<?xml version="1.0" encoding="utf-8" ?>
<svg baseProfile="full" height="723.5" version="1.1" viewBox="0,0,785.5,723.5" width="785.5" xmlns="http://www.w3.org/2000/svg" xmlns:ev="http://www.w3.org/2001/xml-events" xmlns:xlink="http://www.w3.org/1999/xlink"><defs><style type="text/css"><![CDATA[
	.background { fill: white; }
	.line { stroke: firebrick; stroke-width: .1mm; }
	.blacksquare { fill: indigo; }
	.whitesquare { fill: white; }
]]></style></defs><rect class="background" height="100%" width="100%" x="0" y="0" /><path d="M 294.342454 177.219270 L 290.012063 174.408317 L 289.960566 169.963634 L 293.011327 164.537140 L 297.987709 158.780757 L 303.713074 153.346406 L 309.010786 148.886006 L 312.704208 146.051478 L 316.773076 143.398468 L 322.042269 140.414973 L 327.435775 137.810480 L 332.943930 135.563515 L 338.557070 133.652603 L 344.265533 132.056268 L 350.059653 130.753037 L 355.929768 129.721433 L 361.866213 128.939983 L 367.859326 128.387210 L 373.899441 128.041639 L 379.976895 127.881797 L 384.979864 127.833798 L 390.279317 127.787056 L 396.142333 127.783363 L 402.433149 127.870495 L 409.015999 128.096229 L 415.755118 128.508341 L 422.514742 129.154609 L 429.159105 130.082807 L 435.552443 131.340713 L 441.558991 132.976104 L 447.042983 135.036756 L 451.868656 137.570444 L 455.900244 140.624947 L 455.186994 143.958884 L 454.092454 143.619270" fill="none" id="1" stroke="black" stroke-width="1.5" /><path d="M 459.942454 135.219270 L 465.769998 136.059920 L 471.047768 138.948268 L 475.946278 142.690723 L 480.666375 146.123792 L 485.736275 149.109647 L 491.064905 151.853932 L 496.548546 154.465490 L 502.083477 157.053163 L 507.565979 159.725793 L 512.892331 162.592223 L 517.958813 165.761293 L 522.661705 169.341847 L 525.942454 172.419270" fill="none" id="2" stroke="black" stroke-width="1.5" /><path d="M 486.342454 158.019270 L 480.987452 155.381309 L 475.951465 152.097606 L 471.060925 148.589683 L 472.059710 150.827620 L 476.004655 155.298530 L 480.240294 159.440413 L 484.705775 163.322972 L 489.340249 167.015907 L 494.082865 170.588919 L 498.872773 174.111711 L 503.649122 177.653982 L 508.351063 181.285435 L 512.917745 185.075770 L 517.288318 189.094689 L 521.401932 193.411894 L 525.197735 198.097084 L 528.614879 203.219962 L 531.592512 208.850228 L 531.942454 209.619270" fill="none" id="3" stroke="black" stroke-width="1.5" /><path d="M 314.742454 144.819270 L 311.443683 142.637495 L 307.153051 142.831958 L 302.122794 144.971910 L 296.605145 148.626601 L 290.852340 153.365281 L 285.116611 158.757200 L 279.650195 164.371608 L 274.705325 169.777756 L 270.534235 174.544893 L 267.389160 178.242270 L 264.846097 181.247546 L 260.855166 186.092087 L 257.078508 190.900496 L 253.509745 195.701711 L 250.142501 200.524676 L 246.970399 205.398330 L 243.987062 210.351614 L 241.186114 215.413469 L 238.561177 220.612836 L 236.105875 225.978656 L 233.813831 231.539870 L 231.678669 237.325418 L 229.694011 243.364242 L 228.100686 248.352846 L 226.323820 253.968808 L 224.551108 260.032553 L 222.970629 266.363234 L 221.770463 272.780007 L 221.138691 279.102023 L 221.263393 285.148438 L 222.332648 290.738405 L 224.534537 295.691078 L 224.742454 296.019270" fill="none" id="4" stroke="black" stroke-width="1.5" /><path d="M 222.342454 234.819270 L 220.524369 239.435928 L 218.849758 244.689623 L 217.332070 250.464344 L 215.984757 256.644080 L 214.821270 263.112820 L 213.855058 269.754553 L 213.099573 276.453266 L 212.568264 283.092948 L 212.274584 289.557589 L 212.231981 295.731176 L 212.453908 301.497699 L 212.953814 306.741145 L 213.684050 310.203082 L 213.899464 304.204961 L 213.927591 298.206841 L 213.909281 292.208721 L 213.985382 286.210600 L 215.209982 286.200559 L 216.803187 291.874630 L 217.982165 297.961809 L 219.023375 304.223251 L 220.203276 310.420110 L 221.798327 316.313541 L 224.084990 321.664696 L 227.339721 326.234732 L 229.258645 323.374638 L 228.342454 328.419270" fill="none" id="5" stroke="black" stroke-width="1.5" /><path d="M 422.742454 267.219270 L 421.323268 260.721744 L 419.000906 255.182286 L 415.865365 250.548664 L 412.006644 246.768648 L 407.514744 243.790005 L 402.479661 241.560505 L 396.991397 240.027915 L 391.139948 239.140005 L 385.015315 238.844542 L 378.707496 239.089295 L 372.306490 239.822033 L 365.902296 240.990524 L 359.584913 242.542537 L 353.444340 244.425840 L 347.570575 246.588201 L 342.053618 248.977390 L 336.983468 251.541174 L 332.258256 254.342731 L 327.220776 257.678206 L 322.308516 261.230931 L 317.547412 264.995620 L 312.963396 268.966988 L 308.582403 273.139747 L 304.430368 277.508613 L 300.533225 282.068300 L 296.916909 286.813521 L 293.607352 291.738990 L 290.630491 296.839421 L 288.012259 302.109529 L 285.778590 307.544027 L 283.955419 313.137630 L 282.568681 318.885051 L 281.644308 324.781005 L 281.208237 330.820205 L 281.286400 336.997366 L 281.815736 343.116880 L 282.560234 349.113892 L 283.499559 355.061380 L 284.625546 360.959798 L 285.930030 366.809600 L 287.404846 372.611238 L 289.041829 378.365167 L 290.832815 384.071840 L 292.769637 389.731711 L 294.844131 395.345234 L 297.048133 400.912861 L 299.373477 406.435047 L 301.811997 411.912245 L 304.355530 417.344909 L 306.995910 422.733493 L 309.724972 428.078450 L 312.291142 433.061378 L 314.738291 438.105503 L 317.103581 443.293027 L 319.382621 448.614368 L 321.571021 454.059948 L 323.664389 459.620187 L 325.658336 465.285504 L 327.548470 471.046321 L 329.330401 476.893058 L 330.999739 482.816135 L 332.552091 488.805972 L 333.983069 494.852990 L 335.288280 500.947609 L 336.463335 507.080249 L 337.503842 513.241331 L 338.405412 519.421274 L 339.163653 525.610500 L 339.774174 531.799429 L 340.232585 537.978480 L 340.534496 544.138075 L 340.675515 550.268633 L 340.651252 556.360574 L 340.457316 562.404321 L 340.089317 568.390291 L 339.542863 574.308906 L 338.813565 580.150587 L 337.897031 585.905753 L 336.788871 591.564824 L 335.484694 597.118222 L 333.980109 602.556366 L 332.133021 608.081646 L 329.834663 613.507447 L 327.120496 618.760420 L 324.015836 623.824644 L 320.546001 628.684199 L 316.736306 633.323164 L 312.612068 637.725619 L 308.198603 641.875643 L 303.521227 645.757316 L 298.605256 649.354718 L 293.476006 652.651927 L 288.158795 655.633023 L 282.678937 658.282086 L 277.061750 660.583195 L 271.332549 662.520430 L 265.516651 664.077870 L 259.639372 665.239594 L 253.726028 665.989683 L 247.801935 666.312215 L 241.892411 666.191270 L 236.022770 665.610928 L 230.218329 664.555267 L 224.504405 663.008368 L 218.906314 660.954310 L 213.449371 658.377172 L 208.158894 655.261035 L 213.243280 660.152173 L 213.792454 660.819270" fill="none" id="6" stroke="black" stroke-width="1.5" /><path d="M 413.142454 260.019270 L 412.545586 265.906596 L 411.654642 271.777873 L 410.625236 277.656154 L 409.612987 283.564495 L 408.773510 289.525949 L 408.262420 295.563570 L 408.217164 301.623187 L 408.453105 307.468663 L 408.879322 313.347411 L 409.483390 319.253403 L 410.252886 325.180611 L 411.175384 331.123008 L 412.238460 337.074566 L 413.429690 343.029257 L 414.736649 348.981054 L 416.146914 354.923929 L 417.648058 360.851854 L 419.227658 366.758801 L 420.873290 372.638743 L 422.572529 378.485652 L 424.312950 384.293500 L 426.082130 390.056260 L 427.867643 395.767904 L 429.657065 401.422404 L 431.437972 407.013733 L 433.197939 412.535863 L 434.854434 417.830263 L 436.451303 423.176567 L 438.001128 428.624805 L 439.499349 434.168656 L 440.941405 439.801800 L 442.322736 445.517915 L 443.638783 451.310679 L 444.884983 457.173773 L 446.056778 463.100874 L 447.149606 469.085662 L 448.158907 475.121815 L 449.080121 481.203012 L 449.908688 487.322932 L 450.640047 493.475254 L 451.269638 499.653656 L 451.792900 505.851817 L 452.205273 512.063417 L 452.502197 518.282134 L 452.679111 524.501646 L 452.731455 530.715633 L 452.654668 536.917774 L 452.444191 543.101747 L 452.095463 549.261231 L 451.603923 555.389905 L 450.965011 561.481447 L 450.174166 567.529537 L 449.226829 573.527854 L 448.118439 579.470075 L 446.844436 585.349881 L 445.400259 591.160950 L 443.781347 596.896960 L 441.983141 602.551590 L 440.001081 608.118520 L 437.830605 613.591428 L 435.467153 618.963993 L 432.906165 624.229894 L 430.143081 629.382809 L 427.173340 634.416418 L 423.992382 639.324399 L 420.595647 644.100431 L 416.978573 648.738192 L 413.096780 653.275021 L 408.962989 657.695360 L 404.664250 661.914409 L 400.208252 665.934613 L 395.602683 669.758417 L 390.855232 673.388265 L 385.973586 676.826602 L 380.965435 680.075871 L 375.838466 683.138518 L 370.600369 686.016987 L 365.258830 688.713723 L 359.821540 691.231169 L 354.296186 693.571772 L 348.690456 695.737974 L 343.012038 697.732221 L 337.268622 699.556957 L 331.467896 701.214626 L 325.617547 702.707674 L 319.725265 704.038544 L 313.798738 705.209681 L 307.845653 706.223530 L 301.873700 707.082535 L 295.890566 707.789140 L 289.903941 708.345791 L 283.921512 708.754931 L 277.950968 709.019005 L 271.999997 709.140458 L 266.076287 709.121734 L 260.218471 708.966039 L 255.367482 708.692245 L 249.419749 708.188803 L 242.826663 707.386105 L 236.039619 706.214545 L 229.510008 704.604514 L 223.689224 702.486405 L 219.028659 699.790611 L 215.637343 695.999026 L 213.511413 690.736406 L 212.494163 684.708272 L 212.055919 678.333758 L 211.667004 672.032000 L 210.797742 666.222133 L 208.507363 667.998427 L 206.725829 673.378856 L 205.838686 679.129737 L 205.664825 685.153227 L 206.023131 691.351484 L 206.732494 697.626667 L 207.611801 703.880933 L 208.479940 710.016440 L 209.155799 715.935346 L 209.407915 719.728692 L 209.566985 713.705371 L 210.109602 707.558782 L 210.669863 701.448012 L 210.881863 695.532151 L 209.694952 693.799158 L 208.693398 699.950812 L 209.478142 705.766360 L 210.588061 711.366602 L 210.562032 716.872340 L 207.938932 722.404375 L 209.472024 717.712127 L 214.343696 717.754803 L 219.981228 716.296691 L 226.070772 713.950545 L 232.298477 711.329121 L 238.350493 709.045173 L 243.912971 707.711456 L 243.312901 710.701737 L 237.472223 710.567445 L 232.215960 707.726769 L 237.189010 704.767701 L 243.061317 703.098225 L 248.952883 703.075225 L 246.123908 706.248713 L 244.065215 705.513156 L 248.828357 701.665492 L 248.892454 701.619270" fill="none" id="7" stroke="black" stroke-width="1.5" /><path d="M 373.542454 250.419270 L 376.930325 245.737790 L 381.102554 242.863811 L 385.918538 241.605041 L 391.237678 241.769188 L 396.919373 243.163959 L 402.823021 245.597061 L 408.808021 248.876203 L 414.733773 252.809091 L 420.459676 257.203434 L 425.845129 261.866938 L 430.749530 266.607311 L 435.032278 271.232261 L 438.552774 275.549495 L 441.170415 279.366721 L 443.529354 283.990417 L 446.019273 289.885190 L 448.042732 295.760917 L 449.628382 301.619625 L 450.804874 307.463337 L 451.600860 313.294080 L 452.044991 319.113878 L 452.165919 324.924757 L 451.992294 330.728742 L 451.552769 336.527858 L 450.875994 342.324131 L 449.990620 348.119586 L 448.925299 353.916248 L 447.708683 359.716142 L 446.369422 365.521293 L 444.936169 371.333728 L 443.437573 377.155470 L 441.902287 382.988546 L 440.358962 388.834980 L 438.836250 394.696799 L 437.362800 400.576026 L 435.967266 406.474687 L 434.678298 412.394808 L 433.524547 418.338414 L 432.534665 424.307530 L 432.342454 425.619270" fill="none" id="8" stroke="black" stroke-width="1.5" /><path d="M 441.942454 388.419270 L 440.286561 393.268128 L 439.328208 398.840133 L 438.956203 404.944669 L 439.059353 411.391120 L 439.526465 417.988870 L 440.246347 424.547302 L 441.107804 430.875799 L 441.999645 436.783746 L 442.810677 442.080526 L 443.475160 447.155077 L 444.009002 452.935158 L 444.501112 459.223751 L 445.051042 465.800966 L 445.758341 472.446917 L 446.722561 478.941717 L 448.043253 485.065477 L 449.819968 490.598311 L 452.152257 495.320332 L 453.881831 495.508281 L 453.182612 489.548628 L 451.856638 483.718219 L 450.192786 478.553414 L 450.337692 484.450058 L 450.712986 490.443592 L 451.270409 496.506535 L 451.961699 502.611405 L 452.738597 508.730720 L 453.552840 514.836998 L 454.356168 520.902757 L 455.100320 526.900516 L 455.737037 532.802792 L 456.218056 538.582105 L 456.495408 544.223864 L 456.544662 550.500710 L 456.338403 556.679828 L 455.875263 562.758825 L 455.153876 568.735308 L 454.172874 574.606887 L 452.930890 580.371167 L 451.426558 586.025756 L 449.658510 591.568263 L 447.625379 596.996295 L 445.325798 602.307458 L 442.758400 607.499362 L 439.921818 612.569613 L 436.814684 617.515819 L 433.435632 622.335588 L 429.783294 627.026527 L 425.856303 631.586244 L 421.653293 636.012345 L 417.172896 640.302440 L 412.413745 644.454135 L 408.030659 647.475346 L 409.726128 641.719807 L 412.015170 636.234730 L 414.922075 630.971533 L 415.692454 629.769270" fill="none" id="9" stroke="black" stroke-width="1.5" /><path d="M 301.542454 363.219270 L 301.077326 359.561876 L 302.241666 355.971210 L 304.851336 352.474039 L 308.722203 349.097129 L 313.670130 345.867248 L 319.510982 342.811164 L 326.060623 339.955642 L 333.134916 337.327450 L 340.549728 334.953355 L 348.120922 332.860125 L 355.664361 331.074525 L 362.995912 329.623324 L 369.931438 328.533287 L 376.286803 327.831183 L 381.877871 327.543778 L 386.520508 327.697840 L 390.030577 328.320135 L 387.439210 332.988242 L 382.903379 336.703214 L 377.265953 338.205003 L 374.742454 338.019270" fill="none" id="10" stroke="black" stroke-width="1.5" /><path d="M 308.742454 396.819270 L 310.290954 392.253221 L 313.093069 387.965638 L 316.978014 383.989107 L 321.774998 380.356215 L 327.313234 377.099549 L 333.421933 374.251695 L 339.930308 371.845239 L 346.667569 369.912769 L 353.462929 368.486870 L 360.145599 367.600129 L 366.544791 367.285133 L 372.489716 367.574468 L 377.809586 368.500721 L 382.333614 370.096478 L 383.936563 373.828634 L 381.942454 376.419270" fill="none" id="11" stroke="black" stroke-width="1.5" /><path d="M 333.942454 437.619270 L 338.898839 435.659720 L 344.599769 433.344595 L 350.769361 430.987981 L 357.131731 428.903961 L 363.410992 427.406619 L 369.331262 426.810039 L 374.616655 427.428304 L 375.903264 431.034995 L 372.342454 434.019270" fill="none" id="12" stroke="black" stroke-width="1.5" /><path d="M 344.742454 466.419270 L 350.356960 464.521582 L 356.067328 462.437703 L 357.942454 461.619270" fill="none" id="13" stroke="black" stroke-width="1.5" /><path d="M 222.342454 269.619270 L 218.702745 273.384533 L 216.391049 278.689832 L 215.172790 284.970911 L 214.813389 291.663517 L 215.078268 298.203395 L 215.732851 304.026289 L 216.678258 309.303403 L 217.862829 315.133645 L 219.116385 320.984088 L 220.440641 326.845579 L 221.837313 332.708965 L 223.308119 338.565092 L 224.854773 344.404808 L 226.478993 350.218960 L 228.182494 355.998394 L 229.966992 361.733957 L 231.834205 367.416497 L 233.785848 373.036860 L 235.819224 378.758850 L 237.854729 384.516685 L 239.896578 390.265152 L 241.958211 395.994909 L 244.053071 401.696613 L 246.194598 407.360921 L 248.396234 412.978491 L 250.671421 418.539979 L 253.033599 424.036044 L 255.496210 429.457343 L 258.072696 434.794533 L 260.776498 440.038271 L 263.621057 445.179214 L 266.619815 450.208021 L 269.786213 455.115347 L 273.133692 459.891852 L 276.675694 464.528191 L 280.425660 469.015023 L 284.397032 473.343004 L 288.603251 477.502793 L 293.057758 481.485045 L 297.773995 485.280419 L 302.765403 488.879573 L 308.045424 492.273162 L 311.832402 494.284141 L 315.098970 491.189661 L 318.342454 488.019270" fill="none" id="15" stroke="black" stroke-width="1.5" /><path d="M 537.942454 201.219270 L 537.237128 207.074145 L 536.602651 213.020025 L 536.067626 219.031742 L 535.660655 225.084124 L 535.410341 231.152000 L 535.345288 237.210202 L 535.494097 243.233557 L 535.885372 249.196896 L 536.547715 255.075047 L 537.496070 260.993216 L 538.620453 266.899816 L 539.888989 272.763589 L 541.281276 278.590620 L 542.776918 284.386987 L 544.355513 290.158775 L 545.996664 295.912063 L 547.679972 301.652935 L 549.385036 307.387471 L 551.091458 313.121754 L 552.778840 318.861865 L 554.426781 324.613885 L 556.014883 330.383897 L 557.522747 336.177983 L 558.929974 342.002223 L 560.216165 347.862700 L 561.360920 353.765495 L 562.343840 359.716690 L 563.144527 365.722367 L 563.762960 371.706950 L 564.341423 377.662953 L 564.892033 383.645662 L 565.395187 389.648542 L 565.831278 395.665059 L 566.180704 401.688679 L 566.423859 407.712865 L 566.541138 413.731083 L 566.512937 419.736799 L 566.319652 425.723477 L 565.941678 431.684583 L 565.359411 437.613582 L 564.553245 443.503938 L 563.503577 449.349118 L 562.190801 455.142586 L 560.595313 460.877807 L 558.697509 466.548247 L 556.477784 472.147370 L 553.916533 477.668642 L 551.176263 482.781556 L 548.283278 487.507199 L 544.958241 492.339897 L 541.233568 497.169764 L 537.141680 501.886913 L 532.714994 506.381456 L 527.985929 510.543509 L 522.986905 514.263182 L 517.750339 517.430591 L 512.308650 519.935849 L 506.694258 521.669068 L 500.939580 522.520363 L 495.077035 522.379846 L 494.613518 520.058655 L 499.823484 517.686853 L 497.028388 521.031588 L 491.274266 522.782371 L 491.479663 520.582406 L 491.538813 523.000128 L 493.497813 523.882589 L 497.292454 520.569270" fill="none" id="16" stroke="black" stroke-width="1.5" /><path d="M 315.942454 492.819270 L 313.074073 492.652091 L 315.374102 496.735729 L 320.638666 500.304190 L 327.324701 503.313387 L 333.889145 505.719233 L 338.788938 507.477640 L 334.202738 506.798404 L 332.742454 503.619270" fill="none" id="17" stroke="black" stroke-width="1.5" /><path d="M 285.942454 434.019270 L 285.006819 434.914977 L 289.524351 439.241077 L 295.582322 442.199610 L 302.037032 444.433637 L 307.744779 446.586220 L 311.561863 449.300421 L 312.342454 450.819270" fill="none" id="18" stroke="black" stroke-width="1.5" /><path d="M 444.342454 446.019270 L 446.343192 444.542793 L 451.085820 442.196836 L 457.621924 439.283719 L 465.003091 436.105767 L 472.280906 432.965301 L 478.506956 430.164642 L 482.732826 428.006115 L 487.228931 424.993278 L 492.066477 421.466498 L 496.792294 417.689485 L 501.341605 413.662239 L 505.649634 409.384759 L 509.651603 404.857047 L 513.282737 400.079101 L 516.478258 395.050922 L 519.173390 389.772510 L 521.303356 384.243865 L 522.803379 378.464986 L 524.007637 373.815013 L 523.827307 370.317655 L 520.654843 365.423702 L 520.192409 370.616157 L 521.929638 376.260369 L 525.759434 380.610218 L 526.274015 377.464209 L 523.758247 371.975872 L 523.284581 372.583230 L 525.794377 378.005312 L 529.230260 382.911316 L 529.173054 378.840248 L 526.370949 373.489649 L 525.396299 372.443417 L 528.947764 377.321536 L 532.746142 381.986561 L 533.292454 382.569270" fill="none" id="19" stroke="black" stroke-width="1.5" /><path d="M 281.142454 428.019270 L 280.996102 430.061669 L 279.898773 438.001022 L 277.728051 443.261838 L 279.159889 437.307206 L 282.210709 432.855458 L 282.342454 437.619270" fill="none" id="20" stroke="black" stroke-width="1.5" /><path d="M 309.942454 208.419270 L 308.965992 208.869615 L 306.640347 214.431901 L 305.045224 220.129275 L 304.423924 225.943020 L 305.019752 231.854422 L 307.529032 238.858675 L 311.658635 245.373779 L 315.492932 247.600792 L 318.911170 246.360331 L 321.792600 242.473014 L 324.016467 236.759461 L 325.462022 230.040289 L 326.026008 222.105039 L 325.504003 210.251940 L 323.824466 202.905751 L 321.297695 199.427834 L 318.233983 199.179552 L 314.943629 201.522266 L 311.736928 205.817340 L 308.924175 211.426134 L 306.815667 217.710013 L 305.721700 224.030338 L 305.952570 229.748472 L 307.818573 234.225776 L 311.630005 236.823614 L 314.742454 237.219270" fill="none" id="21" stroke="black" stroke-width="1.5" /><path d="M 319.542454 227.619270 L 318.429148 233.428786 L 317.531224 239.415233 L 318.924797 239.339257 L 320.687462 233.647499 L 320.806375 227.656151 L 317.332145 230.970164 L 315.347156 236.715318 L 316.883135 238.528814 L 320.302153 233.673684 L 322.549519 228.147683 L 321.532731 226.853302 L 318.534031 232.071288 L 318.709518 234.498201 L 322.231812 229.589092 L 320.312917 231.916274 L 319.492358 235.475826 L 321.792454 232.269270" fill="none" id="22" stroke="black" stroke-width="1.5" /><path d="M 351.942454 185.619270 L 348.345332 186.574919 L 346.004732 190.418005 L 344.851183 196.295352 L 344.815213 203.353783 L 345.827350 210.740121 L 347.818122 217.601190 L 350.718058 223.083814 L 354.457685 226.334816 L 358.967532 226.501020 L 364.178127 222.729248 L 368.023377 217.300743 L 369.716832 212.235634 L 370.793777 205.911143 L 371.163736 198.925508 L 370.736236 191.876968 L 369.420802 185.363760 L 367.126960 179.984125 L 363.764235 176.336299 L 358.122826 174.565817 L 352.707466 175.668284 L 348.583732 179.298165 L 345.756745 184.651261 L 344.231628 190.923370 L 344.013503 197.310293 L 345.107492 203.007829 L 345.942454 204.969270" fill="none" id="23" stroke="black" stroke-width="1.5" /><path d="M 350.742454 212.019270 L 349.380673 217.890042 L 350.945455 223.424428 L 355.310248 224.593385 L 357.622183 219.513312 L 356.826458 213.532544 L 353.077577 210.572495 L 350.789493 215.225551 L 354.412538 219.807947 L 358.816305 216.705665 L 354.763823 218.319083 L 356.847130 213.329802 L 354.817678 215.692908 L 352.775498 220.983510 L 355.726955 217.874763 L 356.002157 216.768675 L 355.542454 219.369270" fill="none" id="24" stroke="black" stroke-width="1.5" /><path d="M 507.942454 171.219270 L 509.552602 165.239932 L 511.327723 159.383140 L 513.263753 153.643207 L 515.356630 148.014444 L 517.602293 142.491166 L 519.996678 137.067684 L 522.535724 131.738312 L 525.215369 126.497362 L 528.031549 121.339147 L 530.980202 116.257980 L 534.057267 111.248173 L 537.258681 106.304039 L 540.580381 101.419891 L 544.018305 96.590042 L 547.568391 91.808804 L 551.226577 87.070490 L 554.988799 82.369413 L 558.850997 77.699886 L 562.809107 73.056221 L 566.859068 68.432731 L 570.996816 63.823729 L 574.923670 59.573013 L 578.718529 55.713025 L 582.732651 51.873674 L 586.954389 48.068926 L 591.372097 44.312749 L 595.974126 40.619109 L 600.748830 37.001973 L 605.684561 33.475309 L 610.769671 30.053084 L 615.992513 26.749264 L 621.341441 23.577818 L 626.804805 20.552712 L 632.370959 17.687913 L 638.028256 14.997389 L 643.765048 12.495106 L 649.569688 10.195031 L 655.430528 8.111132 L 661.335920 6.257377 L 667.274219 4.647731 L 673.233775 3.296162 L 679.202942 2.216637 L 685.170072 1.423124 L 691.123518 0.929589 L 697.051633 0.750000 L 702.942769 0.898323 L 708.785278 1.388527 L 714.567513 2.234577 L 720.277828 3.450441 L 725.904573 5.050086 L 731.436103 7.047480 L 736.860770 9.456589 L 742.166925 12.291380 L 747.342923 15.565822 L 752.345291 19.270444 L 756.906184 23.211416 L 761.055683 27.387569 L 764.808467 31.787125 L 768.179217 36.398308 L 771.182609 41.209340 L 773.833325 46.208447 L 776.146041 51.383850 L 778.135438 56.723773 L 779.816194 62.216439 L 781.202989 67.850072 L 782.310500 73.612895 L 783.153408 79.493131 L 783.746390 85.479003 L 784.104127 91.558736 L 784.241296 97.720551 L 784.172577 103.952673 L 783.912649 110.243324 L 783.476190 116.580729 L 782.877880 122.953110 L 782.132397 129.348691 L 781.254421 135.755694 L 780.258630 142.162344 L 779.159704 148.556863 L 777.972320 154.927476 L 776.711159 161.262404 L 775.390899 167.549872 L 774.026219 173.778102 L 772.631798 179.935319 L 771.222314 186.009745 L 769.812448 191.989604 L 768.416877 197.863118 L 767.050281 203.618512 L 765.727338 209.244009 L 764.462728 214.727831 L 763.271129 220.058203 L 762.167221 225.223347 L 761.165682 230.211487 L 760.163344 235.631536 L 759.111351 241.659798 L 758.118780 247.679002 L 757.184868 253.689625 L 756.308854 259.692146 L 755.489974 265.687042 L 754.727468 271.674790 L 754.020573 277.655869 L 753.368527 283.630757 L 752.770568 289.599930 L 752.225934 295.563868 L 751.733862 301.523046 L 751.293591 307.477944 L 750.904358 313.429039 L 750.565402 319.376808 L 750.275961 325.321730 L 750.035271 331.264282 L 749.842572 337.204942 L 749.697101 343.144187 L 749.598095 349.082496 L 749.544794 355.020345 L 749.536434 360.958214 L 749.572255 366.896578 L 749.651492 372.835918 L 749.773386 378.776708 L 749.937172 384.719429 L 750.142090 390.664557 L 750.387378 396.612570 L 750.672272 402.563946 L 750.996012 408.519163 L 751.357834 414.478698 L 751.756978 420.443029 L 752.192680 426.412634 L 752.664179 432.387990 L 753.170712 438.369575 L 753.711518 444.357868 L 754.285835 450.353345 L 754.892900 456.356484 L 755.531951 462.367764 L 756.202226 468.387661 L 756.902963 474.416654 L 757.633401 480.455221 L 758.392776 486.503838 L 759.098358 491.874185 L 759.832504 497.029026 L 760.644475 502.573581 L 761.490962 508.447825 L 762.328654 514.591733 L 763.114242 520.945282 L 763.804416 527.448448 L 764.355868 534.041205 L 764.725286 540.663530 L 764.869362 547.255399 L 764.744785 553.756786 L 764.308247 560.107668 L 763.516438 566.248020 L 762.326047 572.117818 L 760.693766 577.657038 L 758.576285 582.805655 L 755.930293 587.503645 L 752.712482 591.690983 L 748.879542 595.307646 L 744.388163 598.293609 L 739.195035 600.588848 L 733.256849 602.133337 L 726.530296 602.867054 L 720.213883 602.722993 L 714.556348 601.643640 L 708.918216 599.718749 L 703.391226 597.056244 L 698.067115 593.764052 L 693.037618 589.950099 L 688.394475 585.722311 L 684.229421 581.188614 L 680.634194 576.456934 L 677.700531 571.635196 L 675.747902 566.931695 L 674.741466 561.037222 L 674.156053 554.176075 L 673.575743 547.101324 L 672.584611 540.566042 L 670.766737 535.323298 L 667.706198 532.126166 L 662.261834 534.415404 L 656.750017 534.460990 L 651.386383 532.503249 L 645.936499 529.907552 L 640.888180 526.684314 L 636.017589 522.960437 L 631.324728 518.957676 L 626.809596 514.897786 L 622.472194 511.002521 L 617.583376 506.413923 L 613.459205 501.746459 L 610.048072 497.042230 L 607.191037 492.256406 L 604.729160 487.344160 L 602.503502 482.260660 L 600.355122 476.961079 L 598.125080 471.400586 L 595.654436 465.534353 L 592.861305 459.516477 L 589.957459 454.128468 L 586.835921 449.138318 L 583.432551 444.417748 L 579.683210 439.838479 L 575.528477 435.304125 L 570.928237 431.337743 L 566.634980 427.330257 L 563.797039 422.308502 L 563.292454 419.319270" fill="none" id="25" stroke="black" stroke-width="1.5" /><path d="M 228.342454 243.219270 L 225.219882 238.504802 L 223.434857 232.725966 L 221.586900 226.816416 L 218.641227 221.723595 L 215.144168 217.066035 L 211.250730 212.533875 L 207.076912 208.097409 L 202.738714 203.726928 L 198.352137 199.392726 L 194.033178 195.065095 L 189.897840 190.714328 L 186.062122 186.310717 L 181.920176 181.668858 L 177.448884 177.576460 L 172.706099 174.039977 L 167.713636 171.019333 L 162.493307 168.474454 L 157.066925 166.365263 L 151.456303 164.651685 L 145.683255 163.293645 L 139.769594 162.251069 L 133.737132 161.483880 L 127.607683 160.952003 L 121.403061 160.615363 L 116.699230 160.489042 L 111.710236 160.543647 L 106.114567 160.791021 L 100.039031 161.254756 L 93.610436 161.958446 L 86.955588 162.925681 L 80.201295 164.180053 L 73.474363 165.745156 L 66.901601 167.644580 L 60.609815 169.901918 L 54.725813 172.540762 L 49.376401 175.584704 L 44.688388 179.057335 L 40.788579 182.982249 L 37.803783 187.383037 L 35.860807 192.283290 L 35.142454 196.569270" fill="none" id="26" stroke="black" stroke-width="1.5" /><path d="M 56.742454 200.019270 L 51.761146 198.760795 L 47.107838 200.383216 L 42.875898 204.259104 L 39.158694 209.761030 L 36.049593 216.261566 L 33.641962 223.133282 L 32.029169 229.748749 L 31.304580 235.480538 L 31.542454 239.619270" fill="none" id="27" stroke="black" stroke-width="1.5" /><path d="M 43.542454 183.219270 L 39.448902 187.013088 L 35.969973 191.703789 L 33.009635 197.054234 L 30.471856 202.827281 L 28.260604 208.785791 L 26.279846 214.692622 L 24.433552 220.310634 L 23.142454 224.019270" fill="none" id="28" stroke="black" stroke-width="1.5" /><path d="M 38.742454 185.619270 L 34.174940 189.047737 L 29.902228 192.931260 L 25.923804 197.226734 L 22.239151 201.891053 L 18.847755 206.881112 L 15.749101 212.153805 L 12.942673 217.666026 L 10.427956 223.374670 L 8.204436 229.236631 L 6.271596 235.208804 L 4.628921 241.248083 L 3.275897 247.311362 L 2.212008 253.355536 L 1.436739 259.337500 L 0.949575 265.214147 L 0.750000 270.942372 L 0.837500 276.479069 L 1.246992 282.365049 L 2.012090 288.423622 L 3.102157 294.342747 L 4.493421 300.135472 L 6.162106 305.814843 L 8.084438 311.393907 L 10.236642 316.885712 L 12.594944 322.303304 L 15.135570 327.659730 L 17.834746 332.968037 L 20.668696 338.241271 L 23.613647 343.492481 L 26.645824 348.734713 L 29.741452 353.981013 L 32.873414 359.238422 L 35.957311 364.370942 L 39.074714 369.494037 L 42.231524 374.600689 L 45.433642 379.683877 L 48.686969 384.736582 L 51.997406 389.751783 L 55.370853 394.722460 L 58.813212 399.641594 L 62.330383 404.502164 L 65.928268 409.297150 L 69.612767 414.019533 L 73.389780 418.662293 L 77.265210 423.218408 L 81.244956 427.680861 L 85.334919 432.042629 L 89.541001 436.296694 L 93.869102 440.436036 L 98.325124 444.453634 L 102.914966 448.342469 L 107.644530 452.095520 L 110.742454 454.419270" fill="none" id="29" stroke="black" stroke-width="1.5" /><path d="M 103.542454 458.019270 L 108.928946 455.665151 L 114.606285 454.101987 L 120.489438 453.294987 L 126.493374 453.209355 L 132.533061 453.810299 L 138.523466 455.063024 L 144.379557 456.932739 L 150.016303 459.384647 L 155.348671 462.383958 L 160.291629 465.895875 L 164.760145 469.885607 L 168.669187 474.318359 L 171.933723 479.159339 L 174.468720 484.373751 L 176.189147 489.926804 L 177.009972 495.783702 L 176.846162 501.909654 L 175.711257 501.340632 L 175.830368 495.422715 L 177.526079 489.673904 L 181.216183 492.760304 L 183.971134 497.725565 L 186.151317 503.190320 L 188.350240 508.766974 L 191.161411 514.067928 L 195.178337 518.705586 L 199.542454 521.619270" fill="none" id="30" stroke="black" stroke-width="1.5" /><path d="M 188.742454 507.219270 L 192.746808 511.354858 L 196.867762 515.684519 L 201.111077 520.094446 L 205.482518 524.470832 L 209.987845 528.699870 L 214.632822 532.667750 L 219.423210 536.260667 L 224.364773 539.364812 L 227.142454 540.819270" fill="none" id="31" stroke="black" stroke-width="1.5" /><path d="M 224.742454 551.619270 L 229.108483 554.384285 L 234.938362 555.390356 L 241.533421 555.016761 L 248.194991 553.642778 L 254.224403 551.647685 L 258.922988 549.410759 L 263.694811 545.861864 L 267.449295 541.488773 L 270.314884 536.539051 L 272.578274 531.171613 L 274.526157 525.545377 L 276.445228 519.819257 L 278.622179 514.152172 L 281.343706 508.703036 L 284.896500 503.630766 L 287.142454 501.219270" fill="none" id="32" stroke="black" stroke-width="1.5" /><path d="M 153.942454 473.619270 L 153.599221 478.547212 L 156.645500 483.661203 L 161.374303 488.650075 L 166.078645 493.202658 L 169.497270 497.508079 L 172.748464 502.568733 L 175.803325 507.739970 L 178.699026 513.000059 L 181.472738 518.327268 L 184.161633 523.699867 L 186.802883 529.096124 L 189.433662 534.494307 L 192.091140 539.872685 L 194.812491 545.209526 L 197.634886 550.483100 L 200.595497 555.671674 L 203.703565 560.664053 L 207.180962 565.463645 L 211.042048 570.057324 L 215.254012 574.397134 L 219.784044 578.435123 L 224.599331 582.123335 L 229.667064 585.413815 L 234.954432 588.258611 L 240.428623 590.609766 L 247.255410 592.710979 L 253.782456 593.688221 L 259.586669 593.438037 L 264.700084 592.030700 L 269.154738 589.536485 L 272.982667 586.025664 L 276.215908 581.568510 L 278.886496 576.235297 L 281.026469 570.096298 L 282.342454 564.819270" fill="none" id="33" stroke="black" stroke-width="1.5" /><path d="M 285.942454 542.019270 L 285.122502 535.928442 L 284.844332 530.010142 L 285.383620 524.215144 L 287.016040 518.494220 L 288.342454 515.619270" fill="none" id="34" stroke="black" stroke-width="1.5" /><path d="M 209.142454 251.619270 L 210.618963 251.753068 L 207.464496 246.799660 L 203.750015 241.931769 L 199.888700 237.137242 L 196.672542 233.953533 L 196.483638 239.564887 L 197.622683 245.845069 L 199.886609 251.850402 L 203.072345 256.637210 L 202.938800 251.462336 L 200.519580 248.894305 L 198.854483 247.051752 L 194.658307 242.767348 L 190.369887 238.529094 L 185.985241 234.365399 L 181.500386 230.304670 L 176.911339 226.375314 L 172.214119 222.605737 L 167.404743 219.024349 L 162.479229 215.659556 L 157.433594 212.539765 L 152.263856 209.693383 L 146.966033 207.148819 L 141.536143 204.934479 L 135.970202 203.078770 L 130.264230 201.610101 L 124.414242 200.556878 L 118.416258 199.947509 L 112.266295 199.810401 L 105.960370 200.173961 L 100.124009 201.036717 L 94.494721 202.487888 L 88.955943 204.500964 L 83.540889 207.031449 L 78.282773 210.034849 L 73.214808 213.466672 L 68.370207 217.282421 L 63.782186 221.437604 L 59.483958 225.887727 L 55.508737 230.588295 L 51.889736 235.494815 L 48.660169 240.562792 L 45.853251 245.747732 L 43.502195 251.005142 L 41.760084 256.010235 L 40.435092 261.283146 L 39.404968 267.058020 L 38.688475 273.212902 L 38.304376 279.625833 L 38.271434 286.174857 L 38.608410 292.738016 L 39.334067 299.193353 L 40.467169 305.418911 L 42.026478 311.292732 L 44.030756 316.692860 L 46.498766 321.497338 L 48.839447 322.129399 L 49.377515 316.168691 L 48.708046 310.229974 L 47.019747 304.949847 L 49.444771 310.184579 L 54.271250 313.625685 L 60.210902 315.162107 L 62.592454 315.219270" fill="none" id="35" stroke="black" stroke-width="1.5" /><path d="M 522.342454 168.819270 L 524.236835 163.276484 L 526.616274 157.911649 L 529.418254 152.707157 L 532.580260 147.645396 L 536.039775 142.708756 L 539.734284 137.879628 L 543.601270 133.140400 L 547.578216 128.473464 L 551.602608 123.861208 L 555.611928 119.286023 L 559.543661 114.730298 L 563.335290 110.176423 L 566.913237 105.652082 L 570.525808 101.229748 L 574.345276 96.834284 L 578.359133 92.482011 L 582.554871 88.189251 L 586.919983 83.972325 L 591.441959 79.847556 L 596.108292 75.831265 L 600.906473 71.939774 L 605.823994 68.189404 L 610.848348 64.596477 L 615.967025 61.177315 L 621.167518 57.948240 L 626.437318 54.925573 L 631.763917 52.125635 L 637.134807 49.564749 L 642.537480 47.259236 L 647.959428 45.225418 L 653.436727 43.468242 L 659.161434 41.887411 L 665.009236 40.525891 L 670.944610 39.462622 L 676.932031 38.776548 L 682.935977 38.546609 L 688.920922 38.851748 L 694.851344 39.770907 L 700.987473 41.508180 L 706.656673 44.079708 L 711.549176 47.306353 L 715.809102 51.102820 L 719.580574 55.383813 L 723.007711 60.064036 L 726.234633 65.058193 L 729.405463 70.280988 L 732.672952 75.652646 L 736.186637 80.970742 L 739.649577 85.995557 L 742.985695 90.846784 L 746.118913 95.644120 L 748.973154 100.507260 L 751.472340 105.555898 L 753.540394 110.909730 L 755.101239 116.688451 L 756.078797 123.011756 L 756.414615 129.210910 L 756.398570 134.834391 L 756.142658 140.707153 L 755.657479 146.767521 L 754.953633 152.953824 L 754.041720 159.204388 L 752.932341 165.457542 L 751.636094 171.651612 L 750.163580 177.724926 L 748.525399 183.615812 L 746.732151 189.262596 L 744.794436 194.603606 L 742.992454 198.969270" fill="none" id="36" stroke="black" stroke-width="1.5" /><path d="M 743.142454 228.819270 L 741.251882 234.456688 L 739.483750 240.155666 L 737.832867 245.909394 L 736.294043 251.711057 L 734.862087 257.553845 L 733.531811 263.430945 L 732.298022 269.335544 L 731.155532 275.260832 L 730.099149 281.199994 L 729.123684 287.146219 L 728.223946 293.092696 L 727.394744 299.032610 L 726.630890 304.959151 L 725.927192 310.865507 L 725.217871 316.726295 L 724.457006 322.615724 L 723.661179 328.533056 L 722.846641 334.474925 L 722.029643 340.437964 L 721.226436 346.418807 L 720.453271 352.414088 L 719.726399 358.420441 L 719.062072 364.434499 L 718.476540 370.452896 L 717.986054 376.472265 L 717.606866 382.489241 L 717.355227 388.500457 L 717.247387 394.502546 L 717.299598 400.492143 L 717.528111 406.465882 L 717.949177 412.420395 L 718.579047 418.352316 L 719.433972 424.258280 L 720.342454 429.219270" fill="none" id="37" stroke="black" stroke-width="1.5" /><path d="M 585.942454 430.419270 L 590.745632 433.751983 L 595.295253 437.607569 L 599.553612 441.912129 L 603.483005 446.591762 L 607.045730 451.572571 L 610.204081 456.780654 L 612.920356 462.142114 L 615.156850 467.583049 L 614.277674 466.841560 L 611.653625 461.442443 L 609.164672 455.953189 L 608.948247 454.913122 L 611.989966 460.313383 L 615.223487 465.406222 L 616.885431 465.075470 L 615.190660 459.362773 L 612.352530 454.038212 L 609.909143 455.286344 L 610.815336 460.700358 L 614.097384 465.860467 L 618.550119 470.582548 L 622.968372 474.682477 L 627.912330 479.157010 L 632.948837 483.122888 L 637.934450 486.401195 L 642.939018 489.027751 L 648.032388 491.038374 L 653.284407 492.468884 L 658.764925 493.355102 L 664.543789 493.732845 L 670.690847 493.637934 L 677.275947 493.106189 L 678.492454 492.969270" fill="none" id="38" stroke="black" stroke-width="1.5" /><path d="M 440.742454 456.819270 L 440.631661 451.788383 L 445.885099 449.143623 L 451.143794 446.359617 L 456.394146 443.446726 L 461.622557 440.415311 L 466.815429 437.275732 L 471.959162 434.038351 L 477.040157 430.713529 L 482.044815 427.311626 L 486.959539 423.843005 L 491.770728 420.318025 L 496.399814 416.796072 L 499.915339 413.680917 L 503.747759 409.637234 L 507.702578 404.834884 L 511.585300 399.443727 L 515.201427 393.633623 L 518.356462 387.574433 L 520.855910 381.436017 L 522.505273 375.388236 L 523.110054 369.600950 L 522.475758 364.244020 L 520.407887 359.487306 L 522.184047 363.948253 L 523.997266 368.401957 L 520.676469 363.313952 L 516.440856 359.126413 L 514.991012 360.087818 L 518.829244 364.513329 L 523.790868 368.324743 L 529.003472 371.676841 L 529.372288 371.373623 L 525.680029 366.580572 L 521.953205 361.790972 L 518.829298 361.348507 L 520.194127 367.406779 L 523.659509 372.177265 L 526.071979 372.150088 L 522.635223 367.146665 L 521.021967 367.187246 L 524.045787 372.357233 L 528.382620 375.903976 L 533.696999 378.006029 L 539.653454 378.841949 L 545.916519 378.590291 L 541.762158 377.812773 L 535.958551 378.841426 L 529.497464 377.777564 L 524.340529 374.818773 L 519.876973 370.623027 L 516.172387 365.806884 L 516.979953 364.264040 L 521.502735 367.982192 L 525.645865 372.611038 L 530.445962 374.976073 L 535.099677 371.483250 L 535.842454 370.419270" fill="none" id="39" stroke="black" stroke-width="1.5" /><path d="M 355.542454 177.219270 L 349.962582 180.038514 L 346.241057 184.250800 L 344.188864 189.488526 L 343.616986 195.384093 L 344.336409 201.569899 L 346.158116 207.678344 L 348.893091 213.341827 L 352.352320 218.192747 L 356.346786 221.863503 L 360.687473 223.986495 L 365.185367 224.194122 L 369.651451 222.118784 L 373.896709 217.392878 L 377.732126 209.648806 L 379.359927 203.461073 L 379.568608 197.229700 L 378.702555 190.697292 L 376.809661 184.446043 L 373.937820 179.058150 L 370.134924 175.115807 L 365.448865 173.201210 L 359.927537 173.896555 L 354.592768 177.087592 L 351.066481 181.377321 L 348.321214 186.923834 L 346.447316 193.254544 L 345.535133 199.896863 L 345.675013 206.378205 L 346.957304 212.225982 L 349.472352 216.967608 L 352.734936 217.335867 L 352.570560 213.739921 L 354.497967 208.748384 L 351.084733 212.366385 L 349.941558 217.600587 L 353.116756 212.586114 L 354.978020 206.469807 L 354.310389 203.402824 L 353.292348 209.407141 L 354.504024 215.001543 L 358.308263 219.379704 L 361.901484 217.428532 L 363.453698 210.971185 L 362.190252 205.269468 L 356.709464 203.811138 L 353.286403 207.499285 L 353.440341 213.822384 L 355.792293 220.098236 L 361.014055 221.157875 L 365.030411 215.771674 L 363.032228 211.478957 L 358.157923 209.166955 L 353.545910 209.722899 L 352.334604 214.034020 L 356.394536 216.689177 L 359.535797 211.754655 L 359.715555 206.691677 L 356.605914 211.577068 L 358.425863 215.169883 L 358.992454 214.419270" fill="none" id="40" stroke="black" stroke-width="1.5" /><path d="M 321.942454 236.019270 L 322.386829 231.875752 L 323.338106 226.337371 L 324.498773 219.833235 L 325.571313 212.792450 L 326.258214 205.644125 L 326.261961 198.817366 L 325.285039 192.741280 L 323.029933 187.844976 L 319.199131 184.557559 L 313.774431 183.360830 L 309.133829 185.455364 L 305.240168 190.207590 L 302.126079 196.338335 L 299.824194 202.568427 L 298.355105 207.661559 L 297.334119 213.548278 L 297.254561 219.505216 L 298.048760 225.431781 L 299.649045 231.227382 L 301.987745 236.791427 L 304.997190 242.023323 L 308.609709 246.822479 L 312.708607 250.431823 L 316.759758 247.563497 L 320.464782 242.325984 L 323.169008 235.889923 L 324.217769 229.425949 L 322.956393 224.104702 L 317.935191 220.330971 L 313.407780 221.811333 L 311.112250 227.031327 L 311.673723 233.275255 L 315.711482 236.264755 L 319.128382 231.608654 L 318.861925 225.799997 L 314.963717 228.672001 L 313.156692 234.184947 L 315.186016 237.517358 L 318.911191 232.866118 L 318.769042 228.197926 L 315.253632 232.668535 L 315.825863 236.174138 L 318.985182 231.116401 L 320.142233 225.219322 L 314.794494 227.721697 L 313.010202 232.465437 L 317.142454 232.569270" fill="none" id="41" stroke="black" stroke-width="1.5" /><path d="M 353.142454 136.419270 L 355.841781 131.578782 L 358.130920 126.298528 L 360.127517 120.687274 L 361.949217 114.853787 L 363.713664 108.906833 L 365.538503 102.955177 L 367.541381 97.107587 L 369.839940 91.472828 L 372.551827 86.159666 L 371.142454 86.019270" fill="none" id="42" stroke="black" stroke-width="1.5" /><path d="M 337.542454 134.019270 L 334.638154 129.811118 L 332.762584 124.363652 L 331.641010 118.103094 L 330.998698 111.455667 L 330.560914 104.847593 L 330.052924 98.705096 L 329.199995 93.454398 L 329.142454 93.219270" fill="none" id="43" stroke="black" stroke-width="1.5" /><path d="M 313.542454 146.019270 L 307.842524 144.612569 L 302.104603 142.964344 L 296.237081 141.637336 L 290.148351 141.194282 L 285.118743 142.084293 L 278.915780 144.280187 L 271.925374 147.307028 L 264.750005 150.679007 L 257.992151 153.910314 L 252.254292 156.515142 L 248.138907 158.007682 L 246.342454 158.019270" fill="none" id="44" stroke="black" stroke-width="1.5" /><path d="M 205.542454 660.819270 L 201.546492 665.125265 L 199.041481 670.918645 L 197.881377 677.670862 L 197.920132 684.853370 L 199.011701 691.937622 L 201.010038 698.395069 L 203.769097 703.697165 L 207.142832 707.315363 L 210.985198 708.721115 L 215.150147 707.385874 L 219.257072 703.109656 L 221.256949 698.798714 L 222.929316 692.713983 L 224.046355 685.669497 L 224.380247 678.479293 L 223.703174 671.957405 L 221.787317 666.917867 L 217.842341 663.897621 L 212.508948 663.882188 L 208.787424 667.456916 L 206.540176 673.251857 L 205.629610 679.897066 L 205.918134 686.022593 L 207.213109 690.905287 L 209.833095 697.228420 L 213.524973 703.114240 L 218.008841 706.522409 L 223.004797 705.412590 L 225.402145 701.218557 L 225.656104 695.040299 L 224.206934 688.104763 L 221.414282 681.705805 L 217.637796 677.137279 L 213.125916 675.698547 L 208.057971 678.200756 L 205.681171 683.389884 L 205.735658 689.722703 L 207.961578 695.655985 L 212.099073 699.646503 L 217.676732 700.091624 L 222.374278 696.448103 L 225.037524 690.636105 L 224.890740 684.796071 L 221.333074 684.814195 L 218.235574 690.118728 L 217.052213 696.232030 L 218.192670 701.856784 L 218.742454 702.819270" fill="none" id="45" stroke="black" stroke-width="1.5" /><path d="M 339.942454 504.819270 L 341.601895 501.017410 L 345.577040 497.372292 L 351.273961 494.074103 L 358.098727 491.313029 L 365.457409 489.279256 L 372.756077 488.162971 L 379.400801 488.154361 L 384.797653 489.443612 L 388.352703 492.220909 L 389.472020 496.676441 L 389.142454 498.819270" fill="none" id="46" stroke="black" stroke-width="1.5" /><path d="M 330.342454 472.419270 L 332.979256 468.236960 L 337.251635 464.681809 L 342.701603 461.672630 L 348.871174 459.128233 L 355.302360 456.967431 L 361.537174 455.109034 L 367.117629 453.471854 L 371.168264 452.266994 L 377.363265 451.236788 L 385.434084 450.463521 L 392.458216 450.651476 L 395.513159 452.504938 L 391.676409 456.728192 L 391.542454 456.819270" fill="none" id="47" stroke="black" stroke-width="1.5" /><path d="M 397.542454 255.219270 L 404.284275 255.271825 L 410.208045 256.601383 L 415.362394 259.054574 L 419.795952 262.478026 L 423.557350 266.718367 L 426.695217 271.622225 L 429.258183 277.036230 L 431.294879 282.807009 L 432.853933 288.781191 L 433.983978 294.805404 L 434.733641 300.726277 L 435.257192 306.569716 L 435.869938 312.495769 L 436.549465 318.472329 L 437.251638 324.484950 L 437.932321 330.519189 L 438.547378 336.560600 L 439.052673 342.594740 L 439.404071 348.607164 L 439.557435 354.583428 L 439.468632 360.509087 L 439.132253 365.779024 L 438.487713 370.465871 L 437.543227 376.123704 L 436.479789 382.492998 L 435.478391 389.314226 L 434.720028 396.327862 L 434.385693 403.274380 L 434.656379 409.894254 L 435.713080 415.927958 L 437.736788 421.115966 L 440.908498 425.198751 L 445.409202 427.916788 L 445.692454 428.019270" fill="none" id="48" stroke="black" stroke-width="1.5" /><path d="M 590.742454 398.019270 L 590.692310 403.788320 L 590.688903 409.772403 L 590.791773 415.892135 L 591.060458 422.068131 L 591.554498 428.221005 L 592.333431 434.271373 L 593.456796 440.139850 L 594.984131 445.747050 L 597.808310 445.000434 L 600.523268 439.887339 L 602.546030 434.275115 L 604.113046 428.343717 L 605.460769 422.273099 L 606.825649 416.243216 L 608.444139 410.434022 L 610.359775 405.759800 L 609.683342 411.668690 L 608.780500 417.633565 L 607.826865 423.629336 L 606.998054 429.630916 L 606.469683 435.613216 L 606.417368 441.551149 L 608.314585 442.892794 L 611.364724 438.325356 L 613.794454 432.903345 L 615.683632 426.895541 L 617.112111 420.570722 L 618.159746 414.197668 L 618.906392 408.045158 L 619.431904 402.381971 L 619.140922 403.945177 L 618.456529 408.990958 L 617.693793 415.037719 L 616.944818 421.811421 L 616.301709 429.038030 L 615.856567 436.443508 L 615.701497 443.753819 L 615.928602 450.694928 L 616.629986 456.992796 L 617.897753 462.373389 L 619.824005 466.562669 L 622.483089 468.729697 L 625.079702 463.865610 L 627.266921 458.560204 L 629.095544 452.894319 L 630.616368 446.948792 L 631.880189 440.804461 L 632.937805 434.542165 L 633.840013 428.242743 L 634.637610 421.987032 L 635.381393 415.855871 L 636.122158 409.930098 L 636.910704 404.290551 L 637.042629 401.750316 L 635.313325 406.890778 L 633.749907 412.411244 L 632.368465 418.243985 L 631.185089 424.321273 L 630.215870 430.575377 L 629.476898 436.938568 L 628.984264 443.343116 L 628.754058 449.721292 L 628.802370 456.005367 L 629.145292 462.127611 L 629.798913 468.020294 L 630.779323 473.615688 L 632.102614 478.846061 L 634.338487 475.046833 L 636.082907 469.264456 L 637.328851 463.007371 L 638.216153 456.592542 L 638.884653 450.336933 L 639.474185 444.557507 L 640.160909 439.229895 L 641.012126 433.288460 L 641.878768 427.348535 L 642.764433 421.411319 L 643.672718 415.478010 L 644.607220 409.549808 L 645.571535 403.627912 L 646.569261 397.713520 L 647.603995 391.807832 L 648.132393 387.776556 L 646.106506 392.943606 L 644.224282 398.350139 L 642.495052 403.966728 L 640.928152 409.763951 L 639.532914 415.712382 L 638.318673 421.782596 L 637.294761 427.945169 L 636.470513 434.170677 L 635.855261 440.429694 L 635.458341 446.692797 L 635.289084 452.930560 L 635.356825 459.113559 L 635.670898 465.212370 L 636.240636 471.197567 L 637.075373 477.039727 L 638.184442 482.709424 L 639.577176 488.177235 L 641.770826 491.373001 L 644.596389 488.462624 L 646.671986 483.460339 L 648.112012 476.933021 L 649.030864 469.447546 L 649.542939 461.570791 L 649.762634 453.869631 L 649.804344 446.910943 L 649.782467 441.261603 L 649.811399 437.488487 L 650.126099 432.544658 L 650.495173 426.588888 L 650.868561 420.591278 L 651.274230 414.568432 L 651.740145 408.536954 L 652.294272 402.513451 L 652.964576 396.514525 L 653.779024 390.556782 L 654.765580 384.656826 L 655.952210 378.831261 L 656.236938 380.443633 L 655.897960 386.351585 L 655.549275 392.293433 L 655.200287 398.264822 L 654.860397 404.261395 L 654.539005 410.278795 L 654.245514 416.312665 L 653.989325 422.358648 L 653.779840 428.412387 L 653.626460 434.469527 L 653.538587 440.525709 L 653.525622 446.576577 L 653.596967 452.617774 L 653.762023 458.644944 L 654.030192 464.653730 L 654.410874 470.639774 L 654.913473 476.598721 L 655.547389 482.526213 L 656.322024 488.417893 L 657.246779 494.269405 L 658.945012 493.905978 L 660.163609 489.433528 L 660.745611 483.159614 L 660.855863 475.783949 L 660.659210 468.006248 L 660.320498 460.526226 L 660.004571 454.043598 L 659.876274 449.258077 L 660.047212 443.913597 L 660.271422 437.928089 L 660.525099 431.938809 L 660.816997 425.947635 L 661.155868 419.956442 L 661.550466 413.967105 L 662.009544 407.981500 L 662.541856 402.001502 L 663.156155 396.028989 L 663.861194 390.065834 L 664.665726 384.113915 L 664.984863 383.692313 L 664.681551 389.689795 L 664.428859 395.687278 L 664.225941 401.684761 L 664.071950 407.682244 L 663.966039 413.679727 L 663.907361 419.677209 L 663.895068 425.674692 L 663.928315 431.672175 L 664.006253 437.669658 L 664.119137 443.273091 L 664.193138 448.640899 L 664.279049 455.080413 L 664.454759 462.120685 L 664.798154 469.290765 L 665.387122 476.119704 L 666.299551 482.136553 L 667.613330 486.870363 L 668.742454 489.069270" fill="none" id="49" stroke="black" stroke-width="1.5" /><path d="M 669.942454 471.219270 L 669.901114 465.502636 L 669.741197 459.655866 L 669.495260 453.699957 L 669.195855 447.655903 L 668.875537 441.544700 L 668.566861 435.387342 L 668.302380 429.204826 L 668.114650 423.018145 L 668.036223 416.848296 L 668.099656 410.716273 L 668.337501 404.643071 L 668.782313 398.649687 L 669.466646 392.757114 L 670.423055 386.986348 L 671.684095 381.358384 L 673.021146 380.129777 L 673.954007 386.045556 L 674.781855 391.976119 L 675.516733 397.919882 L 676.170682 403.875261 L 676.755743 409.840672 L 677.283959 415.814529 L 677.767371 421.795248 L 678.218020 427.781246 L 678.647948 433.770937 L 679.069197 439.762737 L 679.493809 445.755062 L 679.933824 451.746328 L 680.401285 457.734949 L 680.908233 463.719342 L 681.466710 469.697921 L 682.088757 475.669104 L 682.786417 481.631304 L 683.142454 484.419270" fill="none" id="50" stroke="black" stroke-width="1.5" /><path d="M 683.142454 426.819270 L 683.158652 421.332191 L 683.159732 415.542196 L 683.191605 409.519329 L 683.300184 403.333637 L 683.531379 397.055163 L 683.931104 390.753953 L 684.545269 384.500051 L 685.419787 378.363503 L 686.600569 372.414353 L 688.133527 366.722646 L 690.064573 361.358428 L 692.161302 361.180665 L 693.843450 366.502279 L 695.229802 372.053523 L 696.345324 377.804013 L 697.214984 383.723361 L 697.863748 389.781184 L 698.316582 395.947094 L 698.598453 402.190706 L 698.734327 408.481636 L 698.749172 414.789496 L 698.667952 421.083901 L 698.515636 427.334467 L 698.317190 433.510806 L 698.097580 439.582534 L 697.881772 445.519264 L 697.694734 451.290612 L 697.561432 456.866191 L 697.542454 458.019270" fill="none" id="51" stroke="black" stroke-width="1.5" /><path d="M 698.742454 357.219270 L 698.742454 351.219270 L 698.363833 351.044064 L 697.840683 356.821688 L 697.608240 362.741320 L 697.640803 368.768511 L 697.912675 374.868814 L 698.398155 381.007781 L 699.071544 387.150964 L 699.907144 393.263915 L 700.879255 399.312186 L 701.962177 405.261330 L 703.130212 411.076897 L 704.357660 416.724441 L 704.742454 418.419270" fill="none" id="52" stroke="black" stroke-width="1.5" /><path d="M 703.542454 357.219270 L 703.500616 351.247645 L 703.406639 345.248068 L 703.307830 339.232367 L 703.251494 333.212367 L 703.284937 327.199895 L 703.455467 321.206778 L 704.054837 318.465872 L 705.092900 324.361161 L 705.773675 330.316800 L 706.224533 336.310745 L 706.572848 342.320950 L 706.945995 348.325369 L 707.471345 354.301958 L 708.276273 360.228670 L 709.488151 366.083461 L 710.742454 370.419270" fill="none" id="53" stroke="black" stroke-width="1.5" /><path d="M 713.142454 322.419270 L 713.212555 316.430451 L 713.306017 310.403912 L 713.247584 304.381381 L 712.861997 298.404586 L 711.975618 295.043315 L 710.948115 300.690438 L 710.259850 307.316448 L 710.184371 314.145459 L 710.995227 320.401587 L 712.965967 325.308947 L 715.504366 323.581345 L 717.406057 317.922392 L 718.869338 312.072005 L 719.890851 306.100720 L 720.467236 300.079075 L 720.595136 294.077608 L 720.342454 288.969270" fill="none" id="54" stroke="black" stroke-width="1.5" /><path d="M 720.342454 288.819270 L 719.208863 295.317849 L 718.618863 302.019257 L 719.116045 307.727596 L 720.342454 310.419270" fill="none" id="55" stroke="black" stroke-width="1.5" /><path d="M 726.342454 279.219270 L 726.243183 274.030437 L 723.795873 279.737223 L 723.810019 284.533678 L 727.161941 279.872877 L 730.161816 274.616998 L 732.757388 268.917707 L 734.896404 262.926668 L 736.526609 256.795546 L 737.595750 250.676006 L 738.051571 244.719714 L 737.841819 239.078333 L 737.142454 234.819270" fill="none" id="56" stroke="black" stroke-width="1.5" /><path d="M 81.942454 400.419270 L 80.521431 401.685443 L 81.246604 406.286251 L 83.463102 413.043499 L 86.516055 420.778988 L 89.750590 428.314524 L 92.511837 434.471910 L 94.322969 436.823059 L 95.428212 431.929878 L 95.451837 425.939809 L 94.779670 419.339641 L 93.797536 412.616162 L 92.891261 406.256162 L 92.446668 400.746428 L 95.484682 402.881813 L 98.288353 407.301331 L 100.637662 412.911396 L 102.682699 419.287719 L 104.573553 426.006011 L 106.460311 432.641984 L 108.493062 438.771349 L 110.821895 443.969818 L 113.371265 444.964729 L 114.993307 439.749035 L 115.760089 433.850549 L 115.880835 427.515998 L 115.564769 420.992108 L 115.021112 414.525603 L 114.459090 408.363209 L 114.087925 402.751652 L 115.818716 404.032354 L 117.665096 409.264519 L 118.757261 415.112741 L 119.384763 421.354686 L 119.837156 427.768018 L 120.403993 434.130403 L 121.374826 440.219504 L 123.039208 445.812986 L 125.342551 444.598735 L 126.771497 438.996751 L 127.372283 433.096431 L 127.438990 426.997811 L 127.265701 420.800927 L 127.146497 414.605815 L 127.375460 408.512511 L 128.246674 402.621052 L 130.054219 397.031473 L 131.914216 397.359858 L 132.794475 402.947281 L 133.415268 408.926953 L 133.899905 415.173296 L 134.371693 421.560732 L 134.953940 427.963684 L 135.769954 434.256574 L 136.943042 440.313826 L 138.596514 446.009861 L 140.853676 451.219102 L 143.837837 455.815971 L 146.042041 450.829732 L 147.301154 444.975738 L 148.137732 438.992179 L 149.033626 433.041844 L 150.470683 427.287517 L 152.930754 421.891987 L 156.444063 421.005716 L 159.374093 425.970218 L 161.709311 431.302450 L 163.544911 436.937571 L 164.976088 442.810736 L 166.098036 448.857103 L 167.005950 455.011831 L 167.795024 461.210075 L 168.560453 467.386994 L 169.397432 473.477745 L 170.401154 479.417485 L 171.666815 485.141371 L 173.289609 490.584562 L 174.741692 485.174316 L 177.367764 480.261700 L 180.919045 479.747084 L 182.182606 485.453207 L 183.136645 491.802278 L 184.075136 498.328516 L 185.292059 504.566138 L 187.081390 510.049362 L 189.252528 512.613667 L 189.475161 506.620813 L 189.555517 500.613890 L 189.573394 494.601013 L 189.608588 488.590298 L 189.740896 482.589859 L 190.050115 476.607811 L 190.616040 470.652270 L 191.518469 464.731349 L 193.354090 462.523924 L 195.480846 467.004797 L 197.025320 473.650337 L 198.083473 481.525380 L 198.751267 489.694760 L 199.124666 497.223314 L 199.299633 503.175874 L 199.372129 506.617278 L 199.579246 510.615191 L 199.711466 516.587507 L 199.803610 522.785601 L 200.043837 529.040971 L 200.620306 535.185117 L 201.721178 541.049538 L 203.534613 546.465731 L 205.513941 543.340228 L 207.006687 537.731397 L 208.114977 531.930738 L 208.894235 525.976354 L 209.399885 519.906350 L 209.687351 513.758830 L 209.812057 507.571897 L 209.829428 501.383657 L 209.794888 495.232214 L 209.763861 489.155670 L 209.791771 483.192131 L 209.934042 477.379701 L 210.692152 478.463730 L 211.695171 484.482091 L 212.574822 490.443042 L 213.372540 496.353687 L 214.129755 502.221126 L 214.887901 508.052464 L 215.688408 513.854802 L 216.572710 519.635243 L 217.582239 525.400891 L 218.758426 531.158848 L 220.142704 536.916215 L 221.776504 542.680097 L 223.701260 548.457595 L 225.958403 554.255813 L 228.571938 559.174506 L 230.456873 554.042615 L 231.204214 548.029780 L 231.107962 541.544142 L 230.462117 534.993841 L 229.560679 528.787020 L 228.697648 523.331820 L 227.867885 517.731521 L 226.953200 511.790711 L 226.014546 505.860462 L 225.060492 499.937916 L 224.099607 494.020219 L 223.140459 488.104514 L 222.191616 482.187945 L 221.261647 476.267655 L 220.359121 470.340790 L 219.492605 464.404491 L 218.670669 458.455904 L 219.814292 463.158603 L 221.165069 469.017760 L 222.522502 474.866307 L 223.898413 480.701992 L 225.304623 486.522563 L 226.752953 492.325769 L 228.255224 498.109357 L 229.823258 503.871077 L 231.468876 509.608676 L 233.203899 515.319902 L 235.040149 521.002505 L 236.989446 526.654232 L 239.063613 532.272832 L 241.274471 537.856053 L 243.633841 543.401643 L 246.153543 548.907351 L 248.810594 554.152597 L 250.246590 552.765266 L 250.960683 549.724013 L 251.034485 545.255263 L 250.549609 539.585441 L 249.587669 532.940969 L 248.230278 525.548274 L 246.559049 517.633778 L 244.655596 509.423908 L 242.601531 501.145087 L 240.478468 493.023739 L 238.368020 485.286289 L 236.351801 478.159162 L 234.511423 471.868781 L 232.928500 466.641572 L 231.684645 462.703958 L 230.861472 460.282364 L 231.445852 464.109808 L 232.510469 469.695327 L 233.759556 475.491552 L 235.201627 481.432505 L 236.845195 487.452209 L 238.698772 493.484688 L 240.770873 499.463966 L 243.070010 505.324064 L 245.604696 510.999007 L 248.383445 516.422817 L 251.414770 521.529517 L 254.707183 526.253132 L 258.269198 530.527684 L 260.419098 526.875762 L 260.996979 521.754331 L 260.337217 515.887065 L 258.725798 509.542369 L 256.448707 502.988650 L 253.791933 496.494313 L 251.041460 490.327762 L 248.483275 484.757403 L 246.403365 480.051641 L 247.831975 483.397418 L 250.173400 488.938681 L 252.703329 494.472074 L 255.558720 499.821504 L 258.876535 504.810881 L 262.542314 508.347877 L 263.193111 502.560051 L 262.664555 496.454010 L 261.695476 490.344442 L 261.103734 485.194285 L 262.595146 490.987615 L 264.544890 493.809338 L 267.702236 488.607767 L 266.566518 484.025050 L 263.630240 478.918997 L 266.739550 482.934854 L 269.496464 488.425832 L 270.342454 490.419270" fill="none" id="57" stroke="black" stroke-width="1.5" /><path d="M 559.542454 413.619270 L 560.719497 419.190666 L 561.144654 424.908577 L 560.887542 430.734019 L 560.017774 436.628008 L 558.604966 442.551559 L 556.718733 448.465688 L 554.428691 454.331410 L 551.804454 460.109741 L 548.915637 465.761696 L 545.831856 471.248292 L 542.622726 476.530543 L 539.357861 481.569464 L 536.106878 486.326073 L 532.939390 490.761383 L 529.346855 495.710653 L 525.763423 500.734873 L 522.257082 505.493239 L 518.653341 509.954383 L 514.777707 514.086934 L 510.455686 517.859524 L 505.512787 521.240782 L 499.781897 524.196357 L 494.256748 526.634196 L 488.727276 529.036152 L 483.212365 531.436220 L 477.730899 533.868392 L 472.301764 536.366659 L 466.943844 538.965014 L 469.617395 535.765585 L 474.193470 532.018390 L 469.468208 533.690403 L 464.041646 536.239099 L 465.942454 535.869270" fill="none" id="58" stroke="black" stroke-width="1.5" /><path d="M 272.742454 465.219270 L 276.749583 465.444027 L 281.359890 469.445775 L 286.027053 475.168869 L 290.204753 480.557661 L 293.905068 484.199241 L 298.473869 487.653738 L 303.503349 491.023378 L 308.793765 494.381687 L 314.145375 497.802189 L 319.358435 501.358410 L 324.233201 505.123875 L 328.569932 509.172108 L 332.168883 513.576634 L 332.063313 515.249394 L 326.763153 512.352971 L 321.151653 510.264368 L 323.597330 509.606860 L 317.842374 508.376618 L 313.253313 505.493440 L 308.932445 501.398302 L 305.142454 497.619270" fill="none" id="59" stroke="black" stroke-width="1.5" /><path d="M 314.742454 147.219270 L 309.967815 145.851951 L 304.934888 145.910078 L 299.714886 147.219917 L 294.379021 149.607730 L 288.998509 152.899782 L 283.644562 156.922336 L 278.388393 161.501655 L 273.301217 166.464004 L 268.454246 171.635646 L 263.918694 176.842845 L 259.765775 181.911864 L 256.066702 186.668967 L 252.892689 190.940419 L 250.314949 194.552482 L 247.448713 198.801490 L 244.496218 203.763385 L 241.817070 208.929032 L 239.399472 214.279641 L 237.231628 219.796422 L 235.301742 225.460585 L 233.598018 231.253339 L 232.108661 237.155896 L 230.821875 243.149465 L 229.725863 249.215257 L 228.808831 255.334481 L 228.058981 261.488348 L 227.464519 267.658067 L 227.013647 273.824849 L 226.694571 279.969904 L 226.495495 286.074442 L 226.404622 292.119674 L 226.410157 298.086808 L 226.500304 303.957056 L 226.663266 309.711627 L 226.894554 315.432431 L 227.228029 321.524584 L 227.646660 327.580528 L 228.157405 333.600140 L 228.767224 339.583295 L 229.483072 345.529869 L 230.311910 351.439737 L 231.260695 357.312776 L 232.336385 363.148861 L 233.545939 368.947868 L 234.896315 374.709673 L 236.394470 380.434151 L 238.047363 386.121178 L 239.861953 391.770630 L 241.845196 397.382382 L 244.004053 402.956311 L 246.345480 408.492292 L 248.876435 413.990201 L 251.603878 419.449913 L 254.534766 424.871305 L 257.118726 429.622719 L 259.603396 434.662818 L 262.105611 440.065768 L 264.650668 445.733184 L 267.263869 451.566683 L 269.970510 457.467879 L 272.795891 463.338388 L 275.765312 469.079825 L 278.904070 474.593806 L 282.237465 479.781947 L 285.790795 484.545862 L 289.589360 488.787168 L 293.658458 492.407479 L 296.961843 494.180343 L 293.757229 488.875606 L 293.142454 488.019270" fill="none" id="60" stroke="black" stroke-width="1.5" /><path d="M 359.142454 130.419270 L 359.180378 125.320609 L 359.914919 119.899693 L 361.267823 114.231767 L 363.160836 108.392074 L 365.515706 102.455857 L 368.254177 96.498362 L 371.297997 90.594832 L 374.568912 84.820511 L 377.988669 79.250643 L 381.479012 73.960471 L 384.961690 69.025241 L 388.358447 64.520195 L 391.591031 60.520577 L 390.257815 60.905097 L 386.447637 64.766021 L 382.889337 69.704485 L 379.645808 75.423502 L 376.779940 81.626081 L 374.354626 88.015232 L 372.432757 94.293966 L 371.077226 100.165294 L 370.350925 105.332227 L 372.169666 105.714784 L 374.576926 100.625252 L 371.948263 102.119124 L 368.521089 107.030984 L 365.551922 112.342243 L 363.852113 116.708006 L 366.342454 114.819270" fill="none" id="61" stroke="black" stroke-width="1.5" /><path d="M 332.742454 131.619270 L 331.652953 125.806351 L 330.838029 119.884185 L 330.193959 113.889024 L 329.617021 107.857121 L 329.003494 101.824727 L 328.249655 95.828097 L 327.251781 89.903481 L 325.906151 84.087132 L 324.109042 78.415303 L 322.639041 76.929461 L 322.780029 82.661720 L 323.319063 88.674430 L 324.229965 94.834957 L 325.486557 101.010669 L 327.062663 107.068931 L 328.932104 112.877112 L 331.068703 118.302577 L 332.469429 119.608441 L 331.542454 117.219270" fill="none" id="62" stroke="black" stroke-width="1.5" /><path d="M 307.542454 148.419270 L 304.236285 144.341573 L 300.026645 141.362881 L 295.051439 139.384192 L 289.448573 138.306504 L 283.355952 138.030817 L 276.911482 138.458128 L 270.253068 139.489436 L 263.518615 141.025739 L 256.846029 142.968036 L 250.373216 145.217325 L 244.238080 147.674604 L 238.578528 150.240873 L 233.532465 152.817128 L 229.237796 155.304369 L 229.626641 156.334273 L 235.554345 155.400369 L 241.482049 154.428717 L 241.542454 154.419270" fill="none" id="63" stroke="black" stroke-width="1.5" /><path d="M 355.542454 208.419270 L 351.392147 210.839597 L 352.106530 216.934265 L 357.262248 218.569203 L 361.807094 214.980268 L 363.939264 209.689051 L 362.280997 204.938161 L 356.145087 205.165575 L 350.614872 207.560983 L 348.161046 212.124384 L 350.857442 218.170047 L 355.824113 219.239051 L 360.390698 215.684375 L 362.538122 209.836761 L 360.148550 203.828354 L 354.703735 202.010595 L 349.980678 205.009939 L 348.429722 210.317350 L 352.233480 215.215511 L 357.793303 215.047393 L 361.733031 210.731721 L 361.857972 205.103205 L 356.099034 206.808546 L 353.738141 211.619770 L 356.778450 215.897064 L 361.821254 213.137909 L 361.597823 208.404160 L 356.505767 209.335045 L 358.244767 213.836123 L 361.543377 210.384963 L 358.477962 211.324421 L 357.942454 211.869270" fill="none" id="64" stroke="black" stroke-width="1.5" /><path d="M 317.142454 230.019270 L 315.758033 224.239804 L 311.958878 228.173746 L 311.248015 233.973557 L 314.132495 238.059296 L 317.940338 233.775156 L 318.380294 227.868146 L 315.378403 225.169237 L 312.009021 229.934541 L 311.016837 235.744031 L 312.110869 241.702377 L 317.436954 241.166026 L 321.008734 236.601363 L 321.811376 230.595898 L 319.183292 225.918839 L 313.811753 229.765655 L 311.026176 235.379395 L 314.844599 237.565252 L 319.018265 233.748601 L 319.067107 227.654007 L 315.362130 225.024258 L 312.014554 229.996456 L 311.835507 235.758689 L 315.340600 239.664481 L 319.793243 236.150159 L 320.651743 230.450222 L 318.500283 224.811518 L 313.496122 226.464450 L 311.932402 231.709295 L 314.210941 237.244513 L 318.421989 233.573469 L 320.472380 228.055391 L 317.733176 227.011002 L 316.284924 231.829106 L 319.242454 232.569270" fill="none" id="65" stroke="black" stroke-width="1.5" /><path d="M 393.942454 251.619270 L 399.173488 250.257040 L 404.827825 250.862871 L 410.653207 252.976458 L 416.397377 256.137496 L 421.808077 259.885680 L 426.633049 263.760704 L 430.620036 267.302263 L 434.883302 271.565773 L 438.739377 276.156430 L 442.178714 281.025173 L 445.213159 286.141896 L 447.854558 291.476491 L 450.114755 296.998850 L 452.005597 302.678867 L 453.538929 308.486435 L 454.726596 314.391445 L 455.580444 320.363791 L 456.112319 326.373365 L 456.334065 332.390059 L 456.229565 338.398726 L 455.766184 344.372070 L 454.993493 350.309257 L 453.964174 356.215125 L 452.730909 362.094513 L 451.346378 367.952257 L 449.863263 373.793197 L 448.334247 379.622171 L 446.812009 385.444016 L 445.349233 391.263571 L 443.998599 397.085674 L 442.812788 402.915162 L 441.868969 408.070424 L 440.909992 413.639931 L 439.993763 419.625022 L 439.199390 425.907035 L 438.605981 432.367307 L 438.292643 438.887176 L 438.338485 445.347982 L 438.822615 451.631060 L 439.824141 457.617750 L 441.422171 463.189388 L 443.695813 468.227314 L 446.407894 470.005759 L 446.757914 464.143976 L 444.688671 458.571806 L 441.001147 454.672062 L 441.346907 460.583173 L 443.212138 466.292234 L 446.212128 471.534755 L 447.645657 468.654508 L 444.955226 465.153911 L 444.763501 470.503273 L 445.472762 476.312880 L 446.829271 482.419887 L 448.579293 488.661448 L 450.469092 494.874717 L 452.244931 500.896849 L 453.653075 506.564999 L 454.546228 512.039334 L 455.353457 517.936265 L 456.094161 523.891732 L 456.741484 529.891575 L 457.268570 535.921635 L 457.648562 541.967749 L 457.854604 548.015758 L 457.859839 554.051502 L 457.637412 560.060818 L 457.160465 566.029547 L 456.402143 571.943528 L 455.335590 577.788601 L 453.916873 583.616011 L 452.043501 589.839909 L 449.912883 595.815840 L 447.535010 601.553705 L 444.919875 607.063405 L 442.077470 612.354843 L 439.017788 617.437918 L 435.750820 622.322534 L 432.286558 627.018591 L 428.634996 631.535990 L 424.806125 635.884634 L 420.809938 640.074423 L 416.656427 644.115259 L 412.355584 648.017044 L 407.917401 651.789678 L 403.351871 655.443063 L 398.668986 658.987102 L 393.878738 662.431694 L 388.991120 665.786742 L 384.016123 669.062147 L 378.963740 672.267810 L 373.843964 675.413633 L 368.666787 678.509518 L 363.442200 681.565365 L 358.180196 684.591076 L 352.890768 687.596553 L 347.583907 690.591696 L 342.269607 693.586409 L 336.957858 696.590591 L 331.658654 699.614144 L 326.381987 702.666970 L 321.876719 704.607518 L 322.885290 698.706343 L 323.292454 697.119270" fill="none" id="66" stroke="black" stroke-width="1.5" /><path d="M 342.342454 537.219270 L 342.772484 542.764784 L 342.923969 548.454064 L 342.800980 554.261734 L 342.407592 560.162419 L 341.747876 566.130743 L 340.825905 572.141329 L 339.645752 578.168801 L 338.211490 584.187783 L 336.527191 590.172900 L 334.596928 596.098774 L 332.424774 601.940031 L 330.014801 607.671293 L 327.371083 613.267186 L 324.497691 618.702332 L 321.398699 623.951355 L 318.078179 628.988881 L 314.540205 633.789531 L 310.788847 638.327932 L 306.828181 642.578705 L 302.662277 646.516476 L 298.263207 650.143683 L 293.505909 653.493143 L 288.423193 656.549612 L 283.066742 659.310298 L 277.488239 661.772405 L 271.739367 663.933141 L 265.871808 665.789712 L 259.937246 667.339324 L 253.987364 668.579183 L 248.073845 669.506496 L 242.248370 670.118469 L 237.430870 670.218779 L 230.885578 669.473867 L 223.524056 667.858793 L 217.678830 665.316793 L 215.682429 661.791102 L 219.785718 657.507966 L 222.347743 662.557760 L 220.312814 667.562945 L 214.270646 666.221838 L 211.298048 669.596021 L 210.498200 671.340944 L 209.464985 665.546584 L 206.762780 663.882883 L 204.843461 669.754254 L 204.936256 675.696287 L 207.395204 675.350812 L 209.582324 669.435101 L 209.775221 663.733006 L 208.280836 665.180931 L 208.136049 671.114471 L 208.898828 677.131649 L 209.142454 678.669270" fill="none" id="67" stroke="black" stroke-width="1.5" /><path d="M 516.342454 389.619270 L 515.768508 383.878762 L 518.512825 378.466357 L 516.100292 383.745576 L 513.534311 389.163830 L 510.916131 394.520931 L 508.219402 399.818022 L 505.417776 405.056250 L 502.484905 410.236759 L 499.394438 415.360697 L 496.120028 420.429208 L 492.635325 425.443438 L 489.453554 429.884246 L 486.202749 434.571198 L 482.721840 439.595384 L 479.026875 444.799372 L 475.133903 450.025736 L 471.058973 455.117043 L 466.818134 459.915866 L 462.427433 464.264775 L 457.902920 468.006339 L 453.260643 470.983130 L 450.577959 472.426583 L 456.532385 471.682684 L 458.592454 471.369270" fill="none" id="68" stroke="black" stroke-width="1.5" /></svg>