<?xml version="1.0" encoding="utf-8" ?>
<svg baseProfile="full" height="460.5" version="1.1" viewBox="0,0,440.5,460.5" width="440.5" xmlns="http://www.w3.org/2000/svg" xmlns:ev="http://www.w3.org/2001/xml-events" xmlns:xlink="http://www.w3.org/1999/xlink"><defs><style type="text/css"><![CDATA[
	.background { fill: white; }
	.line { stroke: firebrick; stroke-width: .1mm; }
	.blacksquare { fill: indigo; }
	.whitesquare { fill: white; }
]]></style></defs><rect class="background" height="100%" width="100%" x="0" y="0" /><path d="M 222.910000 5.590000 L 215.230617 4.619153 L 207.646571 5.221571 L 200.194258 7.196376 L 192.910073 10.342687 L 185.830411 14.459624 L 178.991667 19.346307 L 172.430238 24.801856 L 166.182517 30.625392 L 160.284902 36.616035 L 154.773787 42.572903 L 149.685567 48.295119 L 145.005786 53.639385 L 139.826398 59.645531 L 134.724168 65.753026 L 129.695981 71.952718 L 124.738723 78.235456 L 119.849277 84.592089 L 115.024529 91.013465 L 110.261363 97.490435 L 105.556664 104.013845 L 100.907317 110.574547 L 96.310206 117.163387 L 91.762216 123.771216 L 87.260233 130.388882 L 82.801140 137.007234 L 78.381822 143.617120 L 74.304629 149.767229 L 70.410220 155.833349 L 66.418136 162.317611 L 62.400470 169.171672 L 58.429316 176.347194 L 54.576770 183.795835 L 50.914924 191.469255 L 47.515873 199.319113 L 44.451710 207.297069 L 41.794531 215.354783 L 39.616429 223.443913 L 37.989497 231.516120 L 36.985830 239.523063 L 36.677522 247.416401 L 37.136668 255.147794 L 38.435360 262.668902 L 40.645694 269.931383 L 43.839762 276.886897 L 47.815034 283.200523 L 52.436345 289.228853 L 57.754232 295.151588 L 63.677174 300.851806 L 70.113650 306.212580 L 76.972141 311.116987 L 84.161126 315.448103 L 91.589086 319.089001 L 99.164499 321.922758 L 106.795846 323.832449 L 114.391607 324.701149 L 121.609190 324.732530 L 126.910000 325.590000" fill="none" id="1" stroke="black" stroke-width="0.5" /><path d="M 118.910000 322.930000 L 124.084347 326.223748 L 130.750116 329.017260 L 138.536303 331.369953 L 147.071907 333.341243 L 155.985925 334.990546 L 164.907355 336.377278 L 173.465194 337.560856 L 181.288441 338.600695 L 188.347684 339.595343 L 196.411109 340.470024 L 204.430586 340.923616 L 212.415582 341.034128 L 220.375561 340.879566 L 228.319989 340.537939 L 236.258333 340.087254 L 244.200057 339.605518 L 252.154627 339.170739 L 260.131510 338.860925 L 268.140171 338.754083 L 276.190075 338.928221 L 282.936537 339.578145 L 291.314788 340.759419 L 300.533405 341.905431 L 309.638663 342.441031 L 317.676837 341.791068 L 323.694203 339.380390 L 324.230000 338.950000" fill="none" id="2" stroke="black" stroke-width="0.5" /><path d="M 220.250000 0.250000 L 228.610621 1.997191 L 236.621676 4.224426 L 244.296588 6.909646 L 251.648776 10.030795 L 258.691662 13.565813 L 265.438666 17.492643 L 271.903209 21.789225 L 278.098712 26.433503 L 284.038596 31.403416 L 289.736281 36.676909 L 295.205188 42.231921 L 300.458738 48.046395 L 305.510352 54.098273 L 310.373450 60.365496 L 315.061454 66.826006 L 319.587784 73.457746 L 323.965860 80.238656 L 328.209105 87.146678 L 332.330938 94.159755 L 336.344780 101.255827 L 340.264052 108.412837 L 344.102175 115.608727 L 347.713904 122.486647 L 351.260556 129.175403 L 354.904821 136.015730 L 358.609452 142.996800 L 362.337200 150.107782 L 366.050819 157.337844 L 369.713062 164.676156 L 373.286682 172.111887 L 376.734430 179.634207 L 380.019061 187.232286 L 383.103326 194.895292 L 385.949979 202.612395 L 388.521773 210.372764 L 390.781459 218.165568 L 392.691792 225.979978 L 394.215523 233.805161 L 395.315406 241.630289 L 395.954193 249.444529 L 396.094638 257.237051 L 395.699492 264.997026 L 394.702050 272.863148 L 392.774383 281.202928 L 390.014394 288.903540 L 386.486924 295.997276 L 382.256814 302.516427 L 377.388906 308.493282 L 371.948040 313.960134 L 365.999058 318.949271 L 359.606801 323.492986 L 352.836109 327.623569 L 345.751825 331.373310 L 338.418788 334.774500 L 330.901841 337.859430 L 323.265824 340.660391 L 316.330000 342.970000" fill="none" id="3" stroke="black" stroke-width="0.5" /><path d="M 226.910000 4.250000 L 219.708500 2.550336 L 212.237415 2.322648 L 204.594961 3.396250 L 196.879350 5.600455 L 189.188797 8.764576 L 181.621514 12.717927 L 174.275716 17.289821 L 167.249617 22.309570 L 160.641430 27.606489 L 154.549368 33.009890 L 149.071646 38.349088 L 144.306477 43.453394 L 139.139181 49.493420 L 134.074126 55.685565 L 129.146116 61.987323 L 124.357523 68.395661 L 119.710650 74.907498 L 115.207735 81.519697 L 110.850943 88.229079 L 106.642372 95.032414 L 102.584047 101.926427 L 98.641279 108.791656 L 94.659365 115.627595 L 90.646075 122.500355 L 86.630257 129.414759 L 82.640759 136.375629 L 78.706430 143.387789 L 74.856118 150.456062 L 71.118672 157.585270 L 67.522939 164.780238 L 64.097770 172.045787 L 60.872011 179.386742 L 57.874512 186.807924 L 55.134121 194.314158 L 52.679687 201.910266 L 50.540057 209.601071 L 48.744081 217.391396 L 47.142014 226.280260 L 46.048240 235.014800 L 45.545924 243.221146 L 45.624379 250.984996 L 46.272922 258.392050 L 47.480865 265.528008 L 49.237525 272.478569 L 51.532214 279.329433 L 54.354249 286.166300 L 57.692942 293.074869 L 61.537610 300.140840 L 65.877566 307.449913 L 70.702124 315.087786 L 72.330000 317.590000" fill="none" id="4" stroke="black" stroke-width="0.5" /><path d="M 218.910000 2.930000 L 227.436508 3.484188 L 235.638998 4.694599 L 243.525533 6.526151 L 251.104178 8.943763 L 258.382998 11.912354 L 265.370058 15.396842 L 272.073421 19.362147 L 278.501152 23.773186 L 284.661317 28.594879 L 290.561978 33.792144 L 296.211202 39.329900 L 301.617052 45.173065 L 306.787593 51.286558 L 311.730889 57.635299 L 316.455005 64.184205 L 320.968005 70.898196 L 325.277955 77.742189 L 329.392918 84.681105 L 333.320958 91.679861 L 337.070142 98.703375 L 340.613416 105.633747 L 344.075408 112.429342 L 347.616481 119.341824 L 351.210200 126.363081 L 354.830133 133.485000 L 358.449846 140.699466 L 362.042908 147.998368 L 365.582884 155.373591 L 369.043342 162.817022 L 372.397850 170.320548 L 375.619973 177.876056 L 378.683279 185.475432 L 381.561336 193.110564 L 384.227709 200.773337 L 386.655967 208.455640 L 388.819676 216.149358 L 390.692403 223.846378 L 392.247716 231.538587 L 393.459181 239.217871 L 394.329332 247.206939 L 394.772183 255.957101 L 394.566504 264.094849 L 393.679972 271.717148 L 392.080266 278.920965 L 389.735064 285.803265 L 386.612044 292.461015 L 382.678882 298.991181 L 377.903259 305.490730 L 372.252850 312.056627 L 368.250000 316.250000" fill="none" id="5" stroke="black" stroke-width="0.5" /><path d="M 68.250000 312.250000 L 73.406226 315.445352 L 80.091823 319.309388 L 87.128212 322.709827 L 94.469241 325.682337 L 102.068758 328.262586 L 109.880610 330.486245 L 117.858645 332.388982 L 125.956710 334.006467 L 134.128654 335.374368 L 142.328325 336.528355 L 150.509569 337.504097 L 158.626235 338.337262 L 166.632171 339.063521 L 174.481224 339.718542 L 182.127241 340.337994 L 189.684233 340.966011 L 197.663199 341.544377 L 205.650979 341.984559 L 213.645182 342.286425 L 221.643412 342.449885 L 229.643273 342.474890 L 237.642369 342.361432 L 245.638303 342.109545 L 253.628679 341.719306 L 261.611104 341.190830 L 269.583187 340.524276 L 277.542540 339.719844 L 285.486777 338.777775 L 293.413520 337.698350 L 301.320392 336.481894 L 309.205027 335.128771 L 315.955662 334.060272 L 323.883195 332.959301 L 332.626481 331.644146 L 341.619099 329.970753 L 350.294630 327.795069 L 358.086653 324.973041 L 364.428749 321.360617 L 368.250000 317.570000" fill="none" id="6" stroke="black" stroke-width="0.5" /><path d="M 217.570000 4.250000 L 209.509576 3.452406 L 201.670362 3.672235 L 194.054379 4.837187 L 186.663647 6.874962 L 179.500185 9.713260 L 172.566015 13.279783 L 165.863156 17.502229 L 159.393629 22.308300 L 153.159453 27.625696 L 147.162650 33.382118 L 141.405238 39.505265 L 135.889240 45.922838 L 130.616673 52.562537 L 125.589560 59.352063 L 120.809919 66.219116 L 116.279772 73.091396 L 112.001138 79.896604 L 107.976038 86.562440 L 104.206491 93.016605 L 100.694519 99.186798 L 96.807310 106.084325 L 92.854741 113.091631 L 88.920149 120.097768 L 85.020455 127.110362 L 81.172581 134.137041 L 77.393446 141.185432 L 73.699973 148.263161 L 70.109082 155.377856 L 66.637695 162.537145 L 63.302731 169.748653 L 60.121113 177.020008 L 57.109760 184.358838 L 54.285595 191.772769 L 51.665538 199.269428 L 49.266511 206.856442 L 47.105433 214.541439 L 45.199226 222.332046 L 43.564812 230.235889 L 42.219111 238.260596 L 41.305090 246.419783 L 41.287872 254.469698 L 42.145661 262.345789 L 43.806438 270.039249 L 46.198184 277.541274 L 49.248881 284.843059 L 52.886509 291.935797 L 57.039050 298.810685 L 61.634485 305.458917 L 66.600795 311.871688 L 66.910000 312.250000" fill="none" id="7" stroke="black" stroke-width="0.5" /><path d="M 217.570000 10.930000 L 218.944411 18.111276 L 219.984797 25.547712 L 220.725949 33.207053 L 221.202658 41.057046 L 221.449714 49.065435 L 221.501908 57.199966 L 221.394031 65.428385 L 221.160873 73.718437 L 220.837224 82.037868 L 220.457877 90.354423 L 220.057620 98.635847 L 219.671245 106.849887 L 219.333542 114.964287 L 219.079302 122.946794 L 218.943316 130.765153 L 218.931906 138.616976 L 218.945402 146.626923 L 218.972109 154.653797 L 219.012346 162.694255 L 219.066431 170.744956 L 219.134683 178.802559 L 219.217420 186.863723 L 219.314960 194.925106 L 219.427620 202.983368 L 219.555721 211.035166 L 219.699578 219.077159 L 219.859512 227.106006 L 220.035839 235.118366 L 220.228879 243.110898 L 220.438949 251.080260 L 220.666368 259.023111 L 220.911454 266.936109 L 221.174525 274.815914 L 221.455899 282.659184 L 221.780045 290.589230 L 222.213855 298.605117 L 222.734753 306.627805 L 223.313495 314.645653 L 223.920836 322.647020 L 224.527532 330.620265 L 225.104338 338.553747 L 225.570000 345.590000" fill="none" id="8" stroke="black" stroke-width="0.5" /><path d="M 60.250000 181.590000 L 63.085597 181.497000 L 70.841907 181.458486 L 78.654095 181.525136 L 86.517039 181.687132 L 94.425620 181.934657 L 102.374714 182.257894 L 110.359202 182.647026 L 118.373962 183.092237 L 126.413872 183.583708 L 134.473811 184.111624 L 142.548659 184.666166 L 150.633294 185.237518 L 158.722594 185.815863 L 166.811438 186.391383 L 174.894706 186.954262 L 182.967276 187.494682 L 191.024026 188.002827 L 199.059836 188.468880 L 207.069585 188.883022 L 215.047862 189.232944 L 223.022849 189.455655 L 231.011583 189.538137 L 239.010949 189.494758 L 247.017831 189.339884 L 255.029113 189.087880 L 263.041679 188.753114 L 271.052415 188.349951 L 279.058204 187.892759 L 287.055931 187.395903 L 295.042480 186.873749 L 303.014736 186.340665 L 310.969583 185.811016 L 318.198230 185.426589 L 325.667889 185.524772 L 334.082434 185.892898 L 343.030041 186.298047 L 352.098886 186.507301 L 360.877144 186.287742 L 368.952991 185.406449 L 375.914602 183.630506 L 380.190000 181.550000" fill="none" id="9" stroke="black" stroke-width="0.5" /><path d="M 136.250000 220.250000 L 143.658402 223.263850 L 150.910000 225.590000" fill="none" id="12" stroke="black" stroke-width="0.5" /><path d="M 184.250000 214.930000 L 189.767082 209.238113 L 190.910000 206.930000" fill="none" id="13" stroke="black" stroke-width="0.5" /><path d="M 194.910000 189.590000 L 193.827430 197.300613 L 190.803513 204.461493 L 186.173937 210.961159 L 180.274392 216.688130 L 173.440566 221.530922 L 166.008148 225.378057 L 158.312828 228.118051 L 150.690294 229.639423 L 142.576123 229.789148 L 133.260856 228.094410 L 126.209798 224.711838 L 120.949065 219.923868 L 117.004773 214.012940 L 113.903037 207.261491 L 111.169973 199.951960 L 108.331696 192.366785 L 104.914322 184.788405 L 104.317817 189.625411 L 105.668674 197.497838 L 108.216276 205.271871 L 111.861228 212.611094 L 116.504134 219.179088 L 121.570000 224.250000" fill="none" id="15" stroke="black" stroke-width="0.5" /><path d="M 248.250000 192.250000 L 247.370924 198.359769 L 251.914694 204.897036 L 257.218218 210.979758 L 263.190984 216.455495 L 269.742480 221.171804 L 276.782195 224.976247 L 284.219617 227.716380 L 291.964234 229.239764 L 299.925533 229.393956 L 307.720879 228.055292 L 315.129529 225.188548 L 322.017974 220.962259 L 328.097154 215.578543 L 333.078007 209.239518 L 336.671472 202.147306 L 338.588487 194.504023 L 338.527694 187.559883 L 336.625200 195.115297 L 333.561094 202.376145 L 329.458526 209.222111 L 324.440648 215.532882 L 318.630612 221.188142 L 312.151568 226.067576 L 305.126667 230.050870 L 297.679062 233.017707 L 289.931903 234.847773 L 282.008342 235.420754 L 273.663626 234.546374 L 264.571323 231.539293 L 258.374073 227.000413 L 254.288524 221.243304 L 251.531326 214.581537 L 249.319129 207.328683 L 246.868584 199.798311 L 243.396340 192.303994 L 242.359479 194.331327 L 244.381835 201.671881 L 247.687737 209.128577 L 252.112878 216.345016 L 257.492947 222.964800 L 263.663638 228.631531 L 270.460640 232.988813 L 277.719646 235.680246 L 285.276347 236.349432 L 285.570000 236.330000" fill="none" id="16" stroke="black" stroke-width="0.5" /><path d="M 245.570000 188.250000 L 247.804319 179.658062 L 251.431646 172.205118 L 256.252045 165.893441 L 262.065575 160.725302 L 268.672301 156.702971 L 275.872284 153.828720 L 283.465586 152.104822 L 291.252268 151.533546 L 299.032394 152.117164 L 306.606026 153.857948 L 313.773224 156.758169 L 320.334052 160.820098 L 326.088571 166.046006 L 330.836844 172.438166 L 334.378933 179.998848 L 336.205818 185.665587 L 334.799495 177.835231 L 331.626769 170.713884 L 326.960986 164.379084 L 321.075493 158.908369 L 314.243639 154.379277 L 306.738770 150.869349 L 298.834234 148.456121 L 290.803377 147.217133 L 282.919548 147.229923 L 275.456093 148.572030 L 268.408812 151.199867 L 261.383981 154.890237 L 254.636523 159.528593 L 248.451551 164.998724 L 243.114174 171.184421 L 238.909503 177.969472 L 236.122650 185.237668 L 235.038725 192.872797 L 235.942840 200.758649 L 237.570000 205.590000" fill="none" id="17" stroke="black" stroke-width="0.5" /><path d="M 253.570000 210.930000 L 247.608613 205.015790 L 243.740690 198.543969 L 241.792236 191.687812 L 241.589255 184.620597 L 242.957752 177.515599 L 245.723731 170.546096 L 249.713197 163.885364 L 254.752154 157.706678 L 260.666608 152.183316 L 267.282561 147.488555 L 274.426020 143.795670 L 281.922988 141.277938 L 289.599471 140.108635 L 297.281472 140.461038 L 304.794996 142.508424 L 311.966048 146.424069 L 318.620632 152.381249 L 324.584753 160.553241 L 328.958679 169.312424 L 331.769649 177.805242 L 333.207042 186.101137 L 333.352644 194.098771 L 332.288240 201.696803 L 330.095616 208.793894 L 326.856559 215.288704 L 322.652855 221.079893 L 317.566290 226.066123 L 311.678649 230.146053 L 305.071718 233.218345 L 297.827284 235.181657 L 290.027133 235.934651 L 281.753050 235.375988 L 273.086822 233.404327 L 264.110235 229.918329 L 256.342888 225.296851 L 250.502976 219.786577 L 246.403111 213.520049 L 243.858034 206.630785 L 242.682490 199.252306 L 242.691222 191.518130 L 243.698975 183.561776 L 245.520491 175.516765 L 247.970515 167.516615 L 250.863790 159.694845 L 254.015060 152.184975 L 257.239068 145.120525 L 257.650000 144.250000" fill="none" id="18" stroke="black" stroke-width="0.5" /><path d="M 128.250000 148.250000 L 120.753707 152.812243 L 114.859087 158.426066 L 110.505570 164.879548 L 107.632586 171.960771 L 106.179564 179.457816 L 106.085934 187.158764 L 107.291125 194.851696 L 109.734566 202.324693 L 113.355687 209.365836 L 118.093918 215.763207 L 123.888687 221.304886 L 130.679426 225.778955 L 138.405562 228.973494 L 147.838271 230.941726 L 156.704456 231.177195 L 164.550757 229.745481 L 171.369731 226.830960 L 177.153937 222.618010 L 181.895933 217.291008 L 185.588276 211.034329 L 188.223524 204.032352 L 189.794235 196.469454 L 190.292968 188.530010 L 189.712280 180.398399 L 188.044730 172.258997 L 185.282874 164.296182 L 181.362627 156.600996 L 175.652154 148.922865 L 169.293844 143.414639 L 162.470936 139.918839 L 155.366668 138.277987 L 148.164281 138.334604 L 141.047012 139.931213 L 134.198100 142.910334 L 127.800785 147.114489 L 122.038305 152.386201 L 117.093899 158.567989 L 113.150806 165.502377 L 110.392265 173.031885 L 109.001515 180.999035 L 109.161794 189.246349 L 111.056342 197.616348 L 114.605342 205.381021 L 119.495018 211.818261 L 125.578618 217.164645 L 132.565714 221.364466 L 140.165876 224.362013 L 148.088676 226.101580 L 156.043684 226.527458 L 163.740471 225.583938 L 170.888608 223.215311 L 177.197666 219.365870 L 182.377217 213.979906 L 186.136830 207.001710 L 188.186077 198.375574 L 188.334179 190.649845 L 187.195616 182.725675 L 184.973579 174.660735 L 181.837846 166.832713 L 177.958193 159.619301 L 173.504400 153.398187 L 167.437062 147.633704 L 160.534747 143.908730 L 153.254625 142.283236 L 145.665008 142.356866 L 137.834214 143.729263 L 129.830555 146.000072 L 127.010000 146.930000" fill="none" id="19" stroke="black" stroke-width="0.5" /><path d="M 292.250000 34.930000 L 299.851377 32.021345 L 307.532775 29.688605 L 315.283858 27.897168 L 323.094291 26.612420 L 330.953737 25.799748 L 338.851862 25.424541 L 346.778330 25.452185 L 354.722805 25.848068 L 362.674953 26.577576 L 370.624436 27.606097 L 378.560920 28.899019 L 386.474070 30.421727 L 394.353549 32.139611 L 402.189022 34.018056 L 409.970154 36.022450 L 418.136290 38.460857 L 425.406255 42.231148 L 431.006130 47.155178 L 435.075684 53.069292 L 437.754689 59.809839 L 439.182915 67.213166 L 439.500132 75.115619 L 438.846111 83.353547 L 437.360623 91.763296 L 435.183437 100.181214 L 432.454325 108.443647 L 429.313057 116.386944 L 425.899403 123.847451 L 422.353134 130.661516 L 418.621813 136.976626 L 413.961186 143.924585 L 409.010243 150.256451 L 403.677278 155.930419 L 397.870580 160.904685 L 391.498443 165.137444 L 384.469157 168.586893 L 376.691014 171.211227 L 372.250000 172.250000" fill="none" id="20" stroke="black" stroke-width="0.5" /><path d="M 288.250000 30.930000 L 295.812623 28.885192 L 303.524200 27.313722 L 311.361026 26.191531 L 319.299397 25.494560 L 327.315608 25.198748 L 335.385956 25.280038 L 343.486735 25.714370 L 351.594242 26.477683 L 359.684773 27.545920 L 367.734622 28.895020 L 375.720086 30.500925 L 383.617460 32.339574 L 391.403040 34.386909 L 399.053122 36.618871 L 406.544001 39.011399 L 413.851973 41.540434 L 421.658813 44.478569 L 428.116218 47.918389 L 433.385256 53.381670 L 435.689227 61.074835 L 435.846760 68.811869 L 435.572615 76.736846 L 434.856202 84.777576 L 433.686932 92.861869 L 432.054217 100.917534 L 429.947469 108.872381 L 427.356097 116.654219 L 424.269514 124.190858 L 420.677131 131.410108 L 416.568360 138.239779 L 411.932610 144.607679 L 406.759294 150.441619 L 401.037823 155.669408 L 394.757608 160.218856 L 387.908060 164.017773 L 380.478591 166.993967 L 372.458612 169.075249 L 369.570000 169.570000" fill="none" id="21" stroke="black" stroke-width="0.5" /><path d="M 154.910000 26.930000 L 146.910849 27.036157 L 138.915645 27.308927 L 130.927859 27.748193 L 122.950957 28.353764 L 114.988401 29.125377 L 107.043647 30.062697 L 99.120143 31.165318 L 91.221328 32.432760 L 83.350631 33.864474 L 75.511466 35.459838 L 67.707237 37.218160 L 59.941331 39.138677 L 52.217118 41.220556 L 50.910000 41.590000" fill="none" id="22" stroke="black" stroke-width="0.5" /><path d="M 152.250000 25.590000 L 144.823175 25.472923 L 137.154331 25.351683 L 129.280787 25.250642 L 121.239862 25.194158 L 113.068875 25.206593 L 104.805145 25.312307 L 96.485990 25.535659 L 88.148729 25.901010 L 79.830682 26.432719 L 71.569167 27.155148 L 63.401503 28.092656 L 55.365008 29.269603 L 47.497003 30.710350 L 39.834805 32.439256 L 32.415733 34.480683 L 25.277107 36.858989 L 17.760895 40.273878 L 11.626572 45.001808 L 7.217059 50.741560 L 4.374117 57.329286 L 2.939511 64.601135 L 2.755003 72.393259 L 3.662355 80.541810 L 5.503331 88.882937 L 8.119694 97.252793 L 11.353207 105.487528 L 15.045631 113.423294 L 19.038731 120.896241 L 23.174270 127.742520 L 27.294009 133.798283 L 31.873551 139.587920 L 37.690535 145.193206 L 44.041844 149.744542 L 50.879110 153.455856 L 58.153969 156.541072 L 65.818055 159.214117 L 64.189082 158.511423 L 57.079378 155.301369 L 50.249459 151.407261 L 43.736161 146.883301 L 37.576317 141.783692 L 31.806763 136.162636 L 26.464334 130.074333 L 21.585863 123.572988 L 17.208186 116.712801 L 13.368137 109.547975 L 10.102551 102.132712 L 7.448263 94.521214 L 5.442107 86.767684 L 4.120918 78.926322 L 3.521530 71.051333 L 3.898977 62.205055 L 5.939938 54.090830 L 9.503944 47.433541 L 14.380127 42.072872 L 20.357620 37.848509 L 27.225558 34.600138 L 34.773071 32.167443 L 42.789295 30.390111 L 51.063361 29.107826 L 59.384402 28.160275 L 67.541553 27.387143 L 75.348253 26.626487 L 83.350947 26.045933 L 91.349487 25.868326 L 99.344653 25.981777 L 107.337224 26.274398 L 115.327980 26.634302 L 123.317701 26.949600 L 131.307166 27.108405 L 139.297155 26.998829 L 142.930000 26.830000" fill="none" id="23" stroke="black" stroke-width="0.5" /><path d="M 154.910000 24.250000 L 146.950150 24.235480 L 138.964444 24.145895 L 130.958676 24.004649 L 122.938642 23.835146 L 114.910134 23.660791 L 106.878949 23.504989 L 98.850881 23.391142 L 90.831725 23.342657 L 82.827275 23.382936 L 74.843325 23.535386 L 66.885672 23.823409 L 59.125173 24.257033 L 51.279389 24.872703 L 43.072597 25.872359 L 34.927399 27.454154 L 27.266398 29.816241 L 20.595136 33.117821 L 14.517958 37.967563 L 8.994440 44.342617 L 4.819187 51.670197 L 2.786802 59.377517 L 3.691889 66.891790 L 4.290000 68.310000" fill="none" id="24" stroke="black" stroke-width="0.5" /><path d="M 64.250000 165.590000 L 57.581004 161.172341 L 51.096661 156.487843 L 44.807641 151.544215 L 38.724294 146.349592 L 32.856629 140.912522 L 26.915091 134.728433 L 21.815594 128.088129 L 17.832337 121.378575 L 14.749126 114.542528 L 12.349767 107.522748 L 10.418066 100.261991 L 8.737830 92.703015 L 7.092865 84.788580 L 5.266977 76.461442 L 4.250000 72.250000" fill="none" id="25" stroke="black" stroke-width="0.5" /><path d="M 292.250000 30.930000 L 300.315790 30.267890 L 308.350545 29.693306 L 316.356404 29.231048 L 324.335505 28.905916 L 332.289985 28.742710 L 340.221983 28.766231 L 348.133637 29.001277 L 356.027083 29.472651 L 363.904462 30.205151 L 371.767909 31.223579 L 379.619564 32.552733 L 387.461564 34.217415 L 395.296047 36.242424 L 403.125151 38.652560 L 411.877108 42.273311 L 418.941733 46.850261 L 424.264906 52.216271 L 428.007024 58.270343 L 430.328482 64.911481 L 431.389675 72.038688 L 431.350999 79.550965 L 430.372849 87.347317 L 428.615622 95.326746 L 426.239713 103.388254 L 423.405518 111.430845 L 420.273432 119.353521 L 416.998674 126.995477 L 413.467380 134.369992 L 409.553784 141.392048 L 405.153781 147.930596 L 400.163266 153.854586 L 394.478132 159.032968 L 387.994277 163.334692 L 380.607593 166.628708 L 374.910000 168.250000" fill="none" id="26" stroke="black" stroke-width="0.5" /><path d="M 18.910000 32.250000 L 15.086896 39.527833 L 12.558911 47.090498 L 11.091257 54.877642 L 10.449147 62.828912 L 10.397791 70.883957 L 10.702401 78.982423 L 11.128190 87.063957 L 11.440369 95.068207 L 11.404150 102.934820 L 10.910000 109.590000" fill="none" id="27" stroke="black" stroke-width="0.5" /><path d="M 221.570000 268.250000 L 225.142207 261.425938 L 229.991482 254.643268 L 231.119903 248.430744 L 221.795584 247.638033 L 213.563848 248.246714 L 209.949932 252.830210 L 213.055757 259.726879 L 219.556952 265.281760 L 218.566605 263.357636 L 213.053333 257.561654 L 207.801537 251.527731 L 213.501832 249.351359 L 221.658603 248.611013 L 229.735295 247.855681 L 232.292746 250.258401 L 227.305290 258.037780 L 221.934538 264.583189 L 218.850000 266.930000" fill="none" id="28" stroke="black" stroke-width="0.5" /><path d="M 221.570000 261.590000 L 219.474682 269.772107 L 219.242473 277.314908 L 222.857874 283.877056 L 230.086407 287.831503 L 237.981543 287.468391 L 243.135377 282.619473 L 242.910000 277.650000" fill="none" id="29" stroke="black" stroke-width="0.5" /><path d="M 217.570000 268.250000 L 220.179750 271.868935 L 218.508341 280.206773 L 215.327749 286.058096 L 210.057056 288.479390 L 202.115344 286.527144 L 200.250000 281.590000" fill="none" id="30" stroke="black" stroke-width="0.5" /><path d="M 432.250000 62.930000 L 427.591399 58.311069 L 421.749894 54.948024 L 414.909733 52.737308 L 407.255161 51.575361 L 398.970423 51.358624 L 390.239765 51.983538 L 381.247433 53.346544 L 372.177672 55.344082 L 363.214729 57.872594 L 354.542849 60.828521 L 346.346278 64.108304 L 338.809262 67.608383 L 332.116045 71.225199 L 326.450875 74.855194 L 322.910000 77.590000" fill="none" id="31" stroke="black" stroke-width="0.5" /><path d="M 326.910000 78.930000 L 329.393091 73.410023 L 333.668805 71.400459 L 339.850184 68.803302 L 347.586187 65.802893 L 356.525774 62.583571 L 366.317904 59.329676 L 376.611536 56.225549 L 387.055630 53.455528 L 397.299146 51.203955 L 406.991043 49.655168 L 415.780280 48.993508 L 423.315817 49.403315 L 429.246613 51.068928 L 433.221628 54.174688 L 434.889822 58.904934 L 434.910000 60.250000" fill="none" id="32" stroke="black" stroke-width="0.5" /><path d="M 0.250000 54.930000 L 6.754951 51.733846 L 14.566069 50.515365 L 22.443856 49.516383 L 30.378357 48.769355 L 38.359616 48.306734 L 46.377678 48.160976 L 54.422588 48.364533 L 62.484390 48.949861 L 70.532140 49.948162 L 78.362856 51.569074 L 85.994411 53.957976 L 93.351681 57.091352 L 100.362247 60.938357 L 107.317277 65.607639 L 116.220517 71.843097 L 119.070000 73.590000" fill="none" id="33" stroke="black" stroke-width="0.5" /><path d="M 0.250000 62.930000 L 1.266741 56.910903 L 4.422556 52.198274 L 9.427414 48.699189 L 15.991282 46.320724 L 23.824130 44.969956 L 32.635925 44.553959 L 42.136636 44.979812 L 52.036230 46.154588 L 62.044677 47.985364 L 71.871945 50.379217 L 81.228001 53.243222 L 89.822815 56.484456 L 97.366354 60.009993 L 103.568587 63.726911 L 108.139482 67.542285 L 112.760409 70.165707 L 113.570000 69.590000" fill="none" id="35" stroke="black" stroke-width="0.5" /><path d="M 389.570000 58.930000 L 391.055914 56.070181 L 393.719503 63.125151 L 391.422657 70.171298 L 385.118673 75.206205 L 384.393614 79.012779 L 387.174958 86.419825 L 385.814360 94.336194 L 380.957011 99.804769 L 373.248098 99.868436 L 375.070335 106.269962 L 373.123174 113.809003 L 367.158455 119.550461 L 359.510906 122.518451 L 352.515252 121.737091 L 349.570000 119.010000" fill="none" id="36" stroke="black" stroke-width="0.5" /><path d="M 388.250000 57.590000 L 392.943686 64.211845 L 392.567588 71.629751 L 388.130948 77.798634 L 380.643011 80.673408 L 382.143997 84.752501 L 383.906027 91.733773 L 380.890870 98.129064 L 374.353863 102.331493 L 366.958362 103.209390 L 371.693997 109.202684 L 372.746044 117.313725 L 370.093158 125.121557 L 364.580380 130.087842 L 357.239378 132.079660 L 348.782422 132.080751 L 350.910000 128.250000" fill="none" id="37" stroke="black" stroke-width="0.5" /><path d="M 46.910000 50.930000 L 40.560175 56.409892 L 38.142165 63.409699 L 39.952116 70.376743 L 46.286176 75.758346 L 43.582862 77.885102 L 43.091116 84.255739 L 47.737415 91.101757 L 55.261504 95.724658 L 58.253233 98.912125 L 54.552399 107.419724 L 58.317695 113.948966 L 66.159834 118.165559 L 74.689533 119.735213 L 80.517507 118.323636 L 80.254471 113.596539 L 80.250000 113.590000" fill="none" id="38" stroke="black" stroke-width="0.5" /><path d="M 45.570000 48.250000 L 40.264640 54.570732 L 37.968183 61.853556 L 38.781463 69.113351 L 42.805313 75.364992 L 50.140565 79.623356 L 49.156588 80.940482 L 47.279820 86.951252 L 51.161510 93.892334 L 58.240647 98.664908 L 65.956226 98.170153 L 62.131922 100.297141 L 58.488243 107.009521 L 60.698332 113.260146 L 66.810990 118.361920 L 74.875019 121.627747 L 82.939223 122.370531 L 89.052404 119.903176 L 91.263363 113.538587 L 90.910000 110.930000" fill="none" id="39" stroke="black" stroke-width="0.5" /><path d="M 269.570000 192.250000 L 271.485241 200.275614 L 276.560407 205.831528 L 283.653215 208.926695 L 291.621380 209.570071 L 299.322619 207.770609 L 305.614648 203.537263 L 309.355183 196.878989 L 309.697249 189.550942 L 309.158951 198.433302 L 305.488807 204.658804 L 299.577667 208.327218 L 292.316384 209.538317 L 284.595806 208.391869 L 277.306787 204.987645 L 271.340175 199.425416 L 267.586822 191.804953 L 266.910000 188.250000" fill="none" id="40" stroke="black" stroke-width="0.5" /><path d="M 312.250000 189.590000 L 309.484433 195.790132 L 303.736467 202.571589 L 300.250000 205.590000" fill="none" id="41" stroke="black" stroke-width="0.5" /><path d="M 273.570000 190.930000 L 278.084674 198.492164 L 284.595527 201.995072 L 292.145933 202.202185 L 299.779267 199.876963 L 304.374953 193.555412 L 302.990886 194.242649 L 297.106949 200.220144 L 289.122011 202.839212 L 281.147305 202.159336 L 275.294063 198.239997 L 273.570000 192.250000" fill="none" id="42" stroke="black" stroke-width="0.5" /><path d="M 121.570000 186.930000 L 125.571145 195.987110 L 132.217116 201.899390 L 140.370619 204.973119 L 148.894359 205.514580 L 156.651041 203.830054 L 162.503370 200.225822 L 165.314051 195.008166 L 164.465180 191.388337 L 161.823532 199.481773 L 156.212292 204.669792 L 148.867987 207.044551 L 141.027145 206.698206 L 133.926296 203.722911 L 128.801967 198.210823 L 126.890687 190.254097 L 126.910000 189.590000" fill="none" id="43" stroke="black" stroke-width="0.5" /><path d="M 130.910000 188.250000 L 128.190113 190.722698 L 131.041836 197.992809 L 136.607038 202.993024 L 143.792603 205.616646 L 151.505412 205.756978 L 158.652350 203.307321 L 164.140298 198.160980 L 166.876139 190.211256 L 166.910000 185.590000" fill="none" id="44" stroke="black" stroke-width="0.5" /><path d="M 133.570000 184.250000 L 135.491091 192.094711 L 141.121008 197.211785 L 148.526746 198.797481 L 156.336023 196.070354 L 159.723915 189.159065 L 158.447346 190.305303 L 154.772452 197.061031 L 149.623698 201.339053 L 142.669836 202.420886 L 133.579617 199.588047 L 132.290000 198.930000" fill="none" id="45" stroke="black" stroke-width="0.5" /><path d="M 192.250000 282.930000 L 193.136272 283.801814 L 200.545646 286.660981 L 208.477736 286.266484 L 215.566851 282.686244 L 216.300232 275.224013 L 216.250000 275.030000" fill="none" id="46" stroke="black" stroke-width="0.5" /><path d="M 182.910000 277.590000 L 188.472891 283.220875 L 196.084149 286.456464 L 204.337960 287.120506 L 211.828509 285.036745 L 217.149981 280.028920 L 218.910000 273.590000" fill="none" id="47" stroke="black" stroke-width="0.5" /><path d="M 217.570000 269.590000 L 220.315645 276.637748 L 226.512565 282.079750 L 234.770608 285.715403 L 243.699623 287.344105 L 251.909457 286.765252 L 258.009958 283.778241 L 260.250000 280.250000" fill="none" id="48" stroke="black" stroke-width="0.5" /><path d="M 220.250000 274.930000 L 220.677330 279.247280 L 227.836591 282.916003 L 237.894556 284.774585 L 247.017998 283.661444 L 250.910000 280.250000" fill="none" id="49" stroke="black" stroke-width="0.5" /><path d="M 253.570000 280.250000 L 248.384110 286.228057 L 244.250000 288.250000" fill="none" id="50" stroke="black" stroke-width="0.5" /><path d="M 82.910000 184.250000 L 76.661160 186.058416 L 70.239644 189.685475 L 63.887708 194.817437 L 57.847608 201.140562 L 52.361601 208.341110 L 47.671943 216.105340 L 44.020890 224.119514 L 41.650699 232.069889 L 40.803626 239.642728 L 41.721927 246.524289 L 42.910000 249.590000" fill="none" id="51" stroke="black" stroke-width="0.5" /><path d="M 94.910000 181.590000 L 87.403149 183.903989 L 80.105092 187.132738 L 73.144289 191.201164 L 66.649201 196.034183 L 60.748289 201.556710 L 55.570014 207.693662 L 51.242838 214.369954 L 47.895220 221.510503 L 45.655621 229.040225 L 44.652504 236.884035 L 45.014328 244.966849 L 45.570000 248.250000" fill="none" id="52" stroke="black" stroke-width="0.5" /><path d="M 354.910000 188.250000 L 357.289717 188.161644 L 364.782881 190.276401 L 371.653506 194.225885 L 377.779297 199.614718 L 383.037959 206.047525 L 387.307195 213.128932 L 390.464709 220.463562 L 392.250000 226.930000" fill="none" id="53" stroke="black" stroke-width="0.5" /><path d="M 348.250000 186.930000 L 355.777116 191.068302 L 362.799851 194.678974 L 369.302679 198.229950 L 375.270071 202.189168 L 380.686502 207.024562 L 385.536445 213.204068 L 389.804373 221.195621 L 392.532891 228.426437 L 394.597978 235.623533 L 396.388945 243.767537 L 397.725594 252.487801 L 398.427723 261.413679 L 398.315133 270.174525 L 397.207624 278.399694 L 394.924996 285.718538 L 391.287049 291.760412 L 389.570000 293.590000" fill="none" id="54" stroke="black" stroke-width="0.5" /><path d="M 82.910000 317.590000 L 87.045672 322.436345 L 93.318025 325.876279 L 101.193906 327.999195 L 110.140156 328.894488 L 119.623619 328.651551 L 129.111140 327.359779 L 138.069563 325.108564 L 145.965730 321.987302 L 152.266486 318.085387 L 156.438674 313.492211 L 157.570000 310.930000" fill="none" id="55" stroke="black" stroke-width="0.5" /><path d="M 114.910000 326.930000 L 119.124258 330.680894 L 126.532267 331.564195 L 135.711711 330.167661 L 145.240273 327.079050 L 153.695635 322.886118 L 159.655480 318.176624 L 161.570000 314.930000" fill="none" id="56" stroke="black" stroke-width="0.5" /><path d="M 280.250000 316.250000 L 283.328987 318.802669 L 292.684238 323.898741 L 299.877658 326.895790 L 307.517324 329.259166 L 315.347292 330.871741 L 323.055424 330.943325 L 331.717604 329.929960 L 340.513731 328.085225 L 348.623703 325.662701 L 355.227419 322.915965 L 357.570000 321.590000" fill="none" id="57" stroke="black" stroke-width="0.5" /><path d="M 278.910000 313.590000 L 278.655978 315.557782 L 284.208937 319.491558 L 291.610687 323.132374 L 300.263418 326.308149 L 309.569325 328.846800 L 318.930600 330.576242 L 327.749435 331.324394 L 335.428024 330.919172 L 341.368558 329.188494 L 342.910000 328.250000" fill="none" id="58" stroke="black" stroke-width="0.5" /><path d="M 176.250000 316.250000 L 171.600244 321.770574 L 165.426395 326.967314 L 158.165994 331.594764 L 150.256580 335.407467 L 142.135691 338.159968 L 134.240869 339.606809 L 127.009651 339.502536 L 124.250000 338.930000" fill="none" id="59" stroke="black" stroke-width="0.5" /><path d="M 266.910000 318.930000 L 272.877973 326.047170 L 279.443514 331.013854 L 286.481484 334.281311 L 293.866744 336.300800 L 301.474155 337.523579 L 309.178577 338.400906 L 316.854873 339.384041 L 321.570000 340.250000" fill="none" id="60" stroke="black" stroke-width="0.5" /><path d="M 169.570000 328.250000 L 177.325137 328.305108 L 185.188329 329.052572 L 193.133538 330.220548 L 201.134725 331.537190 L 209.165851 332.730655 L 217.200877 333.529098 L 224.592358 333.492565 L 233.176158 332.645303 L 242.461915 331.414032 L 251.742912 330.219661 L 260.312433 329.483101 L 267.463760 329.625260 L 272.250000 330.930000" fill="none" id="61" stroke="black" stroke-width="0.5" /><path d="M 169.570000 326.930000 L 177.314398 328.099222 L 184.950911 330.087386 L 193.188194 331.106336 L 201.454317 331.174647 L 209.439206 330.978860 L 217.175926 330.909332 L 225.141042 330.752326 L 233.027383 330.474573 L 240.953384 330.116296 L 249.037476 329.717716 L 257.648073 329.042435 L 267.033297 327.796959 L 272.270000 326.950000" fill="none" id="62" stroke="black" stroke-width="0.5" /><path d="M 164.250000 330.930000 L 160.046833 335.433387 L 157.135593 343.088086 L 155.176861 352.182139 L 153.831213 361.003592 L 152.695297 368.216815 L 151.361052 376.104602 L 150.201222 384.019916 L 149.216372 391.958901 L 148.406982 399.917688 L 147.773446 407.892400 L 147.316073 415.879152 L 147.035085 423.874053 L 146.930620 431.873209 L 146.930000 432.310000" fill="none" id="63" stroke="black" stroke-width="0.5" /><path d="M 160.250000 329.590000 L 157.560290 336.643881 L 153.657785 343.761916 L 149.720812 351.027314 L 146.719601 358.492854 L 144.268245 366.106820 L 142.267748 373.851472 L 140.725000 381.700138 L 139.645314 389.625787 L 139.032409 397.601123 L 138.888396 405.598678 L 138.910000 406.930000" fill="none" id="64" stroke="black" stroke-width="0.5" /><path d="M 134.910000 366.930000 L 137.945825 374.187389 L 140.572649 381.806081 L 142.979002 389.616791 L 145.353413 397.450234 L 147.884411 405.137126 L 150.760526 412.508184 L 153.932459 418.774506 L 151.510666 411.158259 L 149.570000 406.930000" fill="none" id="65" stroke="black" stroke-width="0.5" /><path d="M 140.250000 385.590000 L 141.808541 392.546049 L 144.525968 400.646989 L 148.055830 408.978886 L 152.051679 416.627803 L 156.167067 422.679806 L 157.570000 424.250000" fill="none" id="66" stroke="black" stroke-width="0.5" /><path d="M 157.570000 428.250000 L 163.045811 426.934898 L 171.664928 427.346682 L 181.393877 428.637398 L 190.199186 429.959093 L 197.078752 430.591938 L 205.004057 431.352014 L 212.964478 432.432089 L 220.944541 433.687435 L 228.928771 434.973328 L 236.901696 436.145042 L 244.847841 437.057852 L 252.751732 437.567031 L 258.910000 437.590000" fill="none" id="67" stroke="black" stroke-width="0.5" /><path d="M 161.570000 426.930000 L 169.228299 425.599760 L 177.191357 425.753656 L 185.291145 426.717445 L 193.359634 427.816886 L 201.278796 428.389048 L 209.294480 428.347890 L 217.273963 427.915005 L 225.228610 427.197639 L 233.169785 426.303041 L 241.108852 425.338456 L 249.057174 424.411134 L 256.795752 423.692338 L 265.509253 424.173501 L 274.959960 425.003039 L 281.913312 424.696757 L 282.910000 424.250000" fill="none" id="68" stroke="black" stroke-width="0.5" /><path d="M 276.250000 334.930000 L 278.692890 338.132854 L 284.130302 344.000193 L 289.323769 350.084518 L 294.264639 356.375695 L 298.944683 362.863245 L 303.356105 369.536361 L 301.570000 364.230000" fill="none" id="69" stroke="black" stroke-width="0.5" /><path d="M 288.250000 345.590000 L 292.602715 352.018871 L 297.093911 358.999215 L 301.283230 366.268204 L 304.730314 373.563014 L 306.910000 380.250000" fill="none" id="70" stroke="black" stroke-width="0.5" /><path d="M 306.910000 381.590000 L 305.762231 388.476734 L 303.284619 396.167395 L 299.855299 404.185703 L 295.852408 412.055377 L 291.654079 419.300134 L 287.638449 425.443694 L 286.910000 422.930000" fill="none" id="71" stroke="black" stroke-width="0.5" /><path d="M 298.910000 386.930000 L 297.573904 391.296709 L 292.549321 401.025259 L 288.722076 407.645704 L 284.591007 414.773133 L 280.122493 421.788597 L 275.269161 427.909433 L 276.345844 424.766210 L 277.530000 422.930000" fill="none" id="72" stroke="black" stroke-width="0.5" /><path d="M 286.910000 404.250000 L 283.714112 411.965719 L 279.611938 418.801593 L 274.583849 424.693213 L 268.610218 429.576172 L 261.671415 433.386065 L 254.126931 435.973517 L 247.195493 437.679292 L 239.499175 439.213966 L 231.255899 440.474301 L 222.683583 441.357057 L 214.000148 441.758995 L 205.423514 441.576878 L 197.171600 440.707465 L 189.462327 439.047519 L 182.513613 436.493801 L 181.835933 433.810424 L 189.678401 433.313288 L 198.159347 433.919445 L 206.401254 434.726631 L 214.106763 434.986218 L 222.106398 434.947973 L 230.101648 434.680413 L 238.085942 434.183755 L 246.052716 433.458410 L 253.995421 432.504972 L 261.907529 431.324225 L 264.250000 430.930000" fill="none" id="73" stroke="black" stroke-width="0.5" /><path d="M 277.570000 334.930000 L 277.888957 340.484826 L 281.298343 347.357045 L 286.310365 355.035567 L 291.437233 363.009300 L 295.191154 370.767151 L 296.120995 377.831615 L 295.237307 385.141036 L 293.676723 393.074848 L 291.502607 401.300078 L 288.778323 409.483752 L 285.567233 417.292896 L 281.932700 424.394536 L 277.938089 430.455698 L 277.570000 430.930000" fill="none" id="74" stroke="black" stroke-width="0.5" /><path d="M 154.910000 349.590000 L 151.799182 347.796975 L 149.762436 354.752695 L 148.074114 362.456775 L 146.849697 370.679265 L 146.204669 379.190219 L 146.254511 387.759686 L 147.114707 396.157719 L 148.900738 404.154369 L 151.728088 411.519688 L 155.712239 418.023727 L 160.968673 423.436538 L 167.612872 427.528173 L 173.570000 429.590000" fill="none" id="75" stroke="black" stroke-width="0.5" /><path d="M 149.570000 408.250000 L 148.023253 407.709501 L 144.233886 415.102665 L 140.121288 423.905170 L 136.800970 432.915739 L 135.388443 440.933098 L 136.999217 446.755968 L 138.830000 448.250000" fill="none" id="76" stroke="black" stroke-width="0.5" /><path d="M 132.250000 449.590000 L 139.957497 453.552353 L 146.693857 456.534139 L 153.222126 457.760696 L 160.305351 456.457361 L 168.706578 451.849474 L 176.017780 445.936561 L 181.362482 440.079988 L 185.526070 433.911521 L 189.133330 427.174223 L 186.140091 431.398267 L 181.183388 438.100771 L 175.476880 444.876622 L 169.247030 451.100937 L 162.720303 456.148837 L 156.123163 459.395438 L 149.682076 460.215859 L 143.623505 457.985218 L 138.173914 452.078634 L 134.910000 445.590000" fill="none" id="77" stroke="black" stroke-width="0.5" /><path d="M 248.250000 429.590000 L 246.348296 430.794903 L 251.469033 436.378948 L 257.476511 442.216574 L 264.178988 447.614428 L 271.384721 451.879160 L 278.901966 454.317416 L 286.538979 454.235846 L 293.676814 451.119297 L 297.460878 445.507628 L 298.247239 438.028124 L 296.731391 429.551656 L 293.608827 420.949095 L 289.575040 413.091311 L 285.325522 406.849175 L 286.380901 410.231281 L 289.396566 417.828153 L 292.166110 426.517440 L 293.947362 435.412228 L 293.998151 443.625603 L 291.576306 450.270651 L 285.318968 455.073914 L 277.550128 456.743563 L 270.105293 455.046715 L 263.294719 450.831011 L 257.428661 444.944090 L 252.817373 438.233589 L 249.771112 431.547149 L 249.570000 430.930000" fill="none" id="78" stroke="black" stroke-width="0.5" /><path d="M 278.910000 410.930000 L 283.732174 413.323461 L 289.267629 419.629542 L 294.556300 427.973099 L 298.638118 436.478986 L 300.553015 443.272056 L 298.561288 450.952831 L 292.507419 456.832215 L 285.189060 458.706718 L 279.439397 454.742997 L 278.910000 453.590000" fill="none" id="79" stroke="black" stroke-width="0.5" /><path d="M 288.250000 346.930000 L 287.737008 354.539127 L 287.470028 362.482365 L 287.404015 370.636455 L 287.493924 378.878132 L 287.694710 387.084135 L 287.961328 395.131203 L 288.248735 402.896073 L 288.250000 402.930000" fill="none" id="80" stroke="black" stroke-width="0.5" /><path d="M 257.570000 434.930000 L 253.363616 433.827414 L 258.011273 439.405238 L 264.214298 445.140593 L 271.458464 450.315361 L 279.229543 454.211425 L 287.013308 456.110666 L 294.295529 455.294967 L 300.823813 450.713846 L 303.360827 443.778554 L 302.278538 435.879893 L 298.896429 427.983974 L 294.533986 421.056908 L 292.250000 418.930000" fill="none" id="81" stroke="black" stroke-width="0.5" /><path d="M 156.250000 341.590000 L 150.669847 346.022411 L 143.598368 349.821291 L 135.735848 353.355658 L 127.782573 356.994528 L 120.438828 361.106916 L 114.404900 366.061839 L 110.381072 372.228313 L 109.054682 380.892528 L 111.952566 387.832974 L 118.163639 390.982463 L 126.061742 391.000157 L 134.020716 388.545217 L 138.910000 385.590000" fill="none" id="82" stroke="black" stroke-width="0.5" /><path d="M 102.910000 382.930000 L 105.774599 377.284406 L 110.839032 371.427339 L 117.432258 365.559554 L 124.883237 359.881808 L 132.520929 354.594854 L 139.674293 349.899448 L 145.672287 345.996346 L 148.250000 344.250000" fill="none" id="83" stroke="black" stroke-width="0.5" /><path d="M 153.570000 338.930000 L 147.508543 341.872962 L 140.374647 345.456867 L 132.722111 349.645677 L 125.104738 354.403356 L 118.076327 359.693867 L 112.190680 365.481174 L 108.001598 371.729240 L 106.062882 378.402029 L 107.508739 386.602306 L 112.741385 391.002655 L 120.294450 392.108204 L 128.695271 390.498969 L 136.471182 386.754967 L 142.149520 381.456217 L 142.910000 380.250000" fill="none" id="84" stroke="black" stroke-width="0.5" /><path d="M 118.910000 365.590000 L 112.134370 365.952429 L 107.717281 373.018836 L 107.620291 381.166263 L 112.633947 387.410341 L 120.106667 389.672494 L 127.917111 388.220568 L 133.943938 383.322408 L 135.787536 376.346685 L 133.929322 368.024858 L 128.986752 361.519242 L 121.300888 360.059310 L 114.978365 363.511956 L 111.542320 370.279332 L 110.602883 378.836634 L 111.770183 387.659056 L 114.654350 395.221794 L 117.530000 398.990000" fill="none" id="85" stroke="black" stroke-width="0.5" /><path d="M 288.250000 342.930000 L 294.316653 348.109374 L 301.129092 351.890888 L 308.240130 355.156831 L 315.202582 358.789488 L 321.569259 363.671147 L 327.171240 371.137294 L 330.059230 379.696940 L 328.860459 386.224838 L 324.462381 390.408956 L 317.752448 391.937260 L 309.618112 390.497716 L 301.079070 385.745295 L 297.203078 382.346494 L 290.687396 376.653275 L 284.521181 369.956189 L 280.089100 363.355318 L 278.472049 356.482964 L 280.387940 348.694486 L 286.533807 345.691779 L 283.686243 344.724864 L 278.873343 347.506196 L 278.919858 354.889563 L 281.906978 363.143064 L 286.061598 369.350313 L 291.063693 375.436699 L 296.873050 381.389247 L 303.364970 386.651077 L 310.414752 390.665309 L 317.897696 392.875062 L 326.735801 392.725147 L 332.388901 390.013891 L 333.781125 385.238593 L 331.738937 378.958371 L 327.088799 371.732343 L 320.657177 364.119627 L 313.270534 356.679340 L 305.755333 349.970601 L 298.938038 344.552526 L 293.645112 340.984234 L 292.250000 340.250000" fill="none" id="86" stroke="black" stroke-width="0.5" /><path d="M 117.570000 388.250000 L 124.353564 390.974042 L 131.842597 390.054004 L 139.493415 386.499144 L 146.762332 381.318717 L 153.105663 375.521982 L 157.979725 370.118194 L 161.508747 363.290920 L 162.684049 354.458003 L 161.381473 346.038793 L 157.609113 340.345078 L 151.375066 339.688643 L 150.507449 340.933703 L 159.284693 339.386813 L 165.479931 341.482138 L 168.936948 346.332309 L 169.499530 353.049960 L 167.011462 360.747724 L 161.316529 368.538231 L 160.250000 369.590000" fill="none" id="87" stroke="black" stroke-width="0.5" /><path d="M 321.570000 372.250000 L 317.214375 368.256647 L 310.387200 372.017007 L 306.423031 379.074323 L 306.994408 386.775324 L 312.812034 392.595983 L 320.422406 393.462616 L 327.373405 390.084903 L 331.241358 383.206634 L 330.481550 374.993367 L 325.999531 368.355261 L 319.242348 364.990612 L 311.580213 366.634238 L 305.759483 372.656570 L 304.288836 379.961089 L 306.428779 387.190082 L 311.439818 392.985831 L 318.582457 395.990620 L 326.910000 394.930000" fill="none" id="88" stroke="black" stroke-width="0.5" /><path d="M 142.910000 436.250000 L 137.780862 433.046655 L 134.658427 438.201391 L 135.171062 447.148320 L 140.917979 455.301395 L 148.652503 458.555643 L 156.434058 458.263751 L 162.888749 454.753034 L 166.642684 448.350807 L 166.410042 439.775245 L 162.578260 433.073839 L 156.166682 428.165526 L 148.421053 425.827898 L 140.587119 426.838545 L 133.743168 431.857054 L 131.447142 438.137510 L 133.414577 444.453296 L 138.591506 450.056163 L 145.923959 454.197865 L 154.357969 456.130151 L 162.839568 455.104774 L 168.210000 452.250000" fill="none" id="89" stroke="black" stroke-width="0.5" /><path d="M 292.250000 433.590000 L 291.215264 428.866691 L 284.085151 430.123734 L 275.670175 435.429518 L 270.728707 443.042512 L 270.755892 452.080024 L 275.017745 456.863560 L 281.981824 458.109463 L 290.115690 456.534079 L 297.886901 452.853752 L 302.103958 447.146970 L 299.870731 439.318700 L 295.944261 432.264591 L 290.425897 427.228397 L 283.416987 425.453869 L 275.018881 428.184758 L 274.910000 428.250000" fill="none" id="90" stroke="black" stroke-width="0.5" /><path d="M 253.570000 444.250000 L 249.130204 437.940496 L 245.870295 430.190645 L 244.473677 421.982210 L 245.623750 414.296954 L 250.003917 408.116640 L 256.667322 404.807877 L 264.696796 403.895239 L 273.148860 405.107622 L 281.016982 408.225119 L 287.294628 413.027819 L 290.221199 417.706518 L 285.493313 411.194913 L 279.775341 405.495196 L 273.111071 401.371980 L 265.544292 399.589878 L 256.917590 400.942832 L 249.789494 405.076552 L 245.535878 411.051995 L 243.919282 418.201200 L 244.702244 425.856205 L 247.647302 433.349049 L 252.516997 440.011770 L 257.570000 444.250000" fill="none" id="91" stroke="black" stroke-width="0.5" /><path d="M 138.910000 425.590000 L 142.091231 418.981370 L 147.317599 412.855043 L 153.999795 407.714652 L 161.548513 404.063831 L 169.374447 402.406215 L 177.224507 403.341407 L 183.752211 407.513667 L 186.757028 413.936519 L 187.127875 421.792076 L 185.753666 430.262452 L 183.523316 438.529760 L 181.888253 444.638944 L 185.190868 438.143012 L 187.180275 430.145720 L 187.686575 421.502237 L 186.539870 413.067736 L 183.570263 405.697388 L 178.607855 400.246364 L 171.134566 397.124408 L 163.994465 397.729290 L 157.383669 401.308755 L 151.411774 407.053630 L 146.188376 414.154741 L 141.823073 421.802916 L 138.425458 429.188982 L 136.290000 434.930000" fill="none" id="92" stroke="black" stroke-width="0.5" /><path d="M 168.250000 142.930000 L 175.571914 143.185253 L 182.042457 146.259756 L 187.605253 151.592374 L 192.203932 158.621975 L 195.782118 166.787427 L 198.283440 175.527595 L 199.651523 184.281347 L 199.829994 192.487551 L 198.762480 199.585072 L 197.570000 202.930000" fill="none" id="93" stroke="black" stroke-width="0.5" /><path d="M 164.250000 141.590000 L 163.064943 137.942889 L 169.239595 138.185558 L 175.436543 143.171493 L 181.145295 150.861756 L 185.855362 159.217410 L 189.056250 166.199517 L 190.592827 171.264473 L 191.715895 179.023607 L 192.396947 188.806996 L 192.420418 199.260231 L 191.570745 209.028905 L 189.632361 216.758609 L 186.389703 221.094933 L 184.250000 221.570000" fill="none" id="94" stroke="black" stroke-width="0.5" /><path d="M 166.910000 141.590000 L 174.431856 144.091866 L 181.005953 148.244811 L 186.575764 153.766574 L 191.084764 160.374893 L 194.476428 167.787508 L 196.694232 175.722156 L 197.681649 183.896577 L 197.382155 192.028509 L 195.739224 199.835690 L 192.696332 207.035861 L 188.499636 212.811259 L 190.538093 205.250229 L 192.156413 197.333451 L 193.177348 189.237401 L 193.423648 181.138557 L 192.718065 173.213394 L 190.883350 165.638391 L 187.742253 158.590024 L 183.117526 152.244770 L 176.831921 146.779105 L 169.776160 142.925405 L 162.176273 140.580760 L 154.199781 139.632109 L 146.124794 140.041506 L 138.229422 141.771006 L 130.791773 144.782664 L 124.089958 149.038533 L 118.402085 154.500670 L 113.548739 161.635046 L 110.220184 169.327354 L 108.402047 177.279603 L 107.986504 185.317098 L 108.865735 193.265144 L 110.931916 200.949044 L 114.077224 208.194103 L 118.193838 214.825625 L 123.173934 220.668914 L 128.909691 225.549276 L 135.293285 229.292013 L 142.216894 231.722431 L 149.572697 232.665833 L 157.252869 231.947525 L 165.149589 229.392809 L 173.155035 224.826992 L 179.723356 219.258417 L 184.784587 212.951855 L 188.587521 205.938339 L 191.179657 198.396675 L 192.608490 190.505667 L 192.921520 182.444119 L 192.166242 174.390836 L 190.390154 166.524622 L 187.640753 159.024283 L 183.965537 152.068622 L 179.412004 145.836445 L 174.027649 140.506555 L 167.859971 136.257758 L 160.956467 133.268857 L 153.364635 131.718658 L 145.131970 131.785966 L 136.305972 133.649583 L 127.624569 137.200313 L 120.453237 141.851815 L 114.748759 147.430107 L 110.443006 153.770077 L 107.467850 160.706612 L 105.755162 168.074597 L 105.236813 175.708920 L 105.844676 183.444468 L 107.510621 191.116128 L 110.166521 198.558786 L 113.744246 205.607329 L 118.175668 212.096645 L 123.392659 217.861620 L 129.327089 222.737141 L 135.910832 226.558095 L 143.075758 229.159368 L 150.753738 230.375848 L 158.876644 230.042422 L 167.376348 227.993976 L 176.014114 224.165981 L 183.444167 219.365111 L 189.448284 213.856323 L 194.023474 207.732819 L 197.166744 201.087799 L 198.875103 194.014465 L 199.145558 186.606019 L 197.975118 178.955662 L 195.360790 171.156596 L 191.281254 163.271895 L 185.778973 155.387021 L 179.967358 149.199469 L 173.845398 144.579120 L 167.412081 141.395854 L 160.666397 139.519552 L 153.607335 138.820096 L 146.233883 139.167365 L 138.545031 140.431242 L 130.539767 142.481606 L 122.217080 145.188339 L 117.450000 146.930000" fill="none" id="95" stroke="black" stroke-width="0.5" /><path d="M 277.570000 144.250000 L 267.728236 146.772199 L 259.667119 150.524757 L 253.290418 155.339358 L 248.501900 161.047688 L 245.205336 167.481429 L 243.304494 174.472268 L 242.703142 181.851888 L 243.305050 189.451974 L 245.013987 197.104211 L 247.733721 204.640282 L 251.368022 211.891874 L 255.820657 218.690669 L 260.995396 224.868353 L 266.796008 230.256611 L 273.126262 234.687126 L 279.889927 237.991583 L 286.990770 240.001667 L 294.332562 240.549062 L 301.819071 239.465453 L 309.354065 236.582525 L 316.841315 231.731961 L 323.677882 225.281546 L 328.699876 218.618767 L 332.416577 211.481604 L 334.866881 204.006160 L 336.089683 196.328536 L 336.123879 188.584835 L 335.008364 180.911158 L 332.782036 173.443608 L 329.483789 166.318285 L 325.152520 159.671292 L 319.827123 153.638732 L 313.546496 148.356705 L 306.298337 143.941014 L 298.351368 140.775651 L 290.253370 139.093499 L 282.204639 138.821708 L 274.405473 139.887431 L 267.056169 142.217822 L 260.357022 145.740031 L 254.508330 150.381211 L 249.710389 156.068515 L 246.163496 162.729095 L 244.067949 170.290104 L 243.624043 178.678693 L 244.929983 187.396867 L 247.310588 194.525243 L 250.822357 201.578343 L 255.327198 208.366421 L 260.687020 214.699732 L 266.763732 220.388529 L 273.419243 225.243067 L 280.515462 229.073600 L 287.914297 231.690381 L 295.477658 232.903665 L 303.067453 232.523706 L 310.545591 230.360759 L 317.773981 226.225076 L 320.250000 224.250000" fill="none" id="96" stroke="black" stroke-width="0.5" /><path d="M 390.910000 54.930000 L 386.820458 56.023706 L 391.137964 62.752341 L 390.608727 70.824242 L 387.186749 77.878787 L 381.028793 82.409607 L 381.595489 86.742852 L 382.747690 93.526319 L 378.768277 100.002779 L 371.801453 104.701763 L 370.191869 110.611117 L 370.808406 118.558204 L 367.846156 124.558742 L 361.197745 127.254264 L 357.465386 125.055780 L 358.910000 124.250000" fill="none" id="97" stroke="black" stroke-width="0.5" /><path d="M 48.250000 49.590000 L 42.277608 56.358623 L 41.702948 63.356957 L 45.219676 69.805909 L 51.521450 74.926383 L 52.639542 79.722372 L 50.717478 86.474403 L 54.387974 93.451273 L 61.077406 98.665005 L 63.774672 101.981499 L 60.785072 108.606599 L 62.883822 115.639326 L 68.486383 121.653224 L 76.008214 125.221841 L 83.864775 124.918723 L 85.570000 120.250000" fill="none" id="98" stroke="black" stroke-width="0.5" /><path d="M 434.910000 54.930000 L 433.405505 55.601243 L 435.237910 62.970236 L 436.209343 70.570791 L 436.367641 78.343698 L 435.760642 86.229743 L 434.436183 94.169717 L 432.442103 102.104406 L 429.826237 109.974601 L 426.636425 117.721088 L 422.920503 125.284656 L 418.726308 132.606095 L 414.101679 139.626191 L 409.094453 146.285735 L 403.752467 152.525513 L 398.123558 158.286315 L 392.255565 163.508929 L 386.196325 168.134143 L 379.993675 172.102746 L 378.744932 170.142949 L 378.910000 169.590000" fill="none" id="99" stroke="black" stroke-width="0.5" /><path d="M 433.570000 57.590000 L 432.130102 64.404375 L 430.597779 71.656987 L 428.934707 79.256245 L 427.102563 87.110557 L 425.063024 95.128331 L 422.777767 103.217976 L 420.208469 111.287899 L 417.316807 119.246510 L 414.064457 127.002216 L 410.413097 134.463425 L 406.324403 141.538546 L 401.760052 148.135987 L 396.681720 154.164157 L 391.051086 159.531463 L 384.829825 164.146313 L 377.979614 167.917117 L 381.570000 165.590000" fill="none" id="100" stroke="black" stroke-width="0.5" /><path d="M 288.250000 345.590000 L 291.776961 350.430472 L 294.373054 357.001154 L 296.111331 364.885225 L 297.064846 373.665869 L 297.306652 382.926265 L 296.909804 392.249596 L 295.947354 401.219044 L 294.492356 409.417789 L 292.617863 416.429013 L 290.944323 417.360299 L 290.910000 414.930000" fill="none" id="102" stroke="black" stroke-width="0.5" /><path d="M 289.570000 349.590000 L 291.484370 356.971183 L 292.343901 364.736698 L 292.376047 372.776374 L 291.808262 380.980041 L 290.868000 389.237531 L 289.782715 397.438672 L 288.779861 405.473296 L 288.086892 413.231232 L 286.910000 413.590000" fill="none" id="103" stroke="black" stroke-width="0.5" /><path d="M 168.250000 345.590000 L 170.762544 346.855451 L 176.694707 352.194745 L 182.730492 357.481297 L 188.881373 362.657291 L 195.158827 367.664909 L 201.574328 372.446335 L 208.437526 377.144090 L 215.633632 381.091751 L 221.121057 379.825516 L 229.414843 374.959144 L 236.311534 370.909757 L 243.167419 366.758237 L 249.906297 362.439589 L 256.251449 358.105055 L 263.252722 353.042635 L 269.697964 347.339172 L 273.570000 341.590000" fill="none" id="104" stroke="black" stroke-width="0.5" /><path d="M 165.570000 340.250000 L 172.086633 344.812298 L 178.472689 349.641258 L 184.763450 354.646523 L 190.994199 359.737738 L 197.200217 364.824545 L 203.416785 369.816590 L 210.231637 375.437691 L 215.555353 379.800232 L 223.348781 379.521126 L 229.825153 376.278071 L 236.919288 371.213597 L 243.877475 365.753202 L 249.946001 361.322385 L 256.512786 356.984601 L 263.063403 352.314729 L 269.677573 347.745087 L 276.515929 343.664840 L 273.570000 344.250000" fill="none" id="105" stroke="black" stroke-width="0.5" /><path d="M 220.250000 392.250000 L 215.339746 397.315607 L 218.525137 403.203872 L 225.197395 402.459463 L 223.549088 394.407100 L 217.303955 393.340231 L 214.900018 400.806984 L 220.905894 405.574523 L 225.395636 400.791166 L 220.415145 395.078849 L 220.250000 395.010000" fill="none" id="106" stroke="black" stroke-width="0.5" /><path d="M 221.570000 417.590000 L 217.170116 419.864920 L 219.945978 425.883957 L 224.828439 423.306478 L 221.031423 417.131228 L 213.634106 421.414826 L 215.614636 427.261094 L 222.117539 429.785413 L 226.345825 427.148263 L 221.570000 417.590000" fill="none" id="107" stroke="black" stroke-width="0.5" /></svg>