<?xml version="1.0" encoding="utf-8" ?>
<svg baseProfile="full" height="601.5" version="1.1" viewBox="0,0,585.5,601.5" width="585.5" xmlns="http://www.w3.org/2000/svg" xmlns:ev="http://www.w3.org/2001/xml-events" xmlns:xlink="http://www.w3.org/1999/xlink"><defs><style type="text/css"><![CDATA[
	.background { fill: white; }
	.line { stroke: firebrick; stroke-width: .1mm; }
	.blacksquare { fill: indigo; }
	.whitesquare { fill: white; }
]]></style></defs><rect class="background" height="100%" width="100%" x="0" y="0" /><path d="M 273.375000 551.652340 L 275.985796 548.726080 L 276.851560 547.851560" fill="none" id="1" stroke="black" stroke-width="0.5" /><path d="M 312.707030 246.894530 L 313.683777 247.803785 L 313.762429 251.803011 L 313.841081 255.802238 L 313.777360 259.794884 L 313.257544 263.759006 L 312.528477 267.692003 L 311.799410 271.624999 L 311.070343 275.557996 L 310.341277 279.490992 L 310.000000 281.332030" fill="none" id="2" stroke="black" stroke-width="0.5" /><path d="M 537.351560 176.062500 L 537.287050 180.061980 L 537.044797 184.050437 L 536.614661 188.027243 L 536.184526 192.004048 L 535.361761 193.019263 L 535.062500 192.167970" fill="none" id="3" stroke="black" stroke-width="0.5" /><path d="M 296.921870 443.839840 L 296.840431 439.840669 L 296.758993 435.841498 L 296.677554 431.842327 L 296.664060 431.179680" fill="none" id="4" stroke="black" stroke-width="0.5" /><path d="M 58.390620 570.402340 L 58.028214 566.418791 L 57.665807 562.435242 L 57.303401 558.451693 L 56.940995 554.468144 L 56.578588 550.484596 L 56.216182 546.501047 L 55.853776 542.517498 L 55.492190 538.542970" fill="none" id="5" stroke="black" stroke-width="0.5" /><path d="M 535.964840 165.335930 L 535.376722 169.292458 L 534.788605 173.248987 L 534.200487 177.205515 L 533.612370 181.162044 L 533.024252 185.118572 L 532.436134 189.075101 L 531.848017 193.031629 L 531.808590 193.296870" fill="none" id="6" stroke="black" stroke-width="0.5" /><path d="M 170.265620 159.570310 L 170.403318 155.583127 L 171.223640 151.676967 L 170.853544 153.807018 L 168.589930 156.703080 L 168.589840 156.703120" fill="none" id="7" stroke="black" stroke-width="0.5" /><path d="M 85.933590 80.910150 L 87.180678 79.514784 L 85.675000 81.783833 L 82.494831 84.201229 L 81.070310 85.257810" fill="none" id="8" stroke="black" stroke-width="0.5" /><path d="M 106.582030 95.917970 L 102.607291 95.572755 L 98.870999 95.029350 L 98.433590 93.503900" fill="none" id="9" stroke="black" stroke-width="0.5" /><path d="M 32.398440 352.132810 L 32.398440 356.132810 L 32.398440 360.132810 L 32.415238 363.328481 L 32.582246 359.331969 L 32.749254 355.335457 L 32.916261 351.338945 L 33.083269 347.342433 L 33.269729 343.347233 L 33.640984 339.364499 L 34.012238 335.381765 L 34.383492 331.399031 L 34.754747 327.416297 L 35.126001 323.433563 L 35.497255 319.450829 L 35.868510 315.468095 L 36.239764 311.485361 L 36.611019 307.502627 L 36.982273 303.519893 L 37.353527 299.537159 L 37.930265 295.580944 L 38.582334 291.634451 L 39.305598 287.702919 L 40.297146 283.827763 L 41.288694 279.952607 L 42.280242 276.077451 L 43.271790 272.202296 L 44.263338 268.327140 L 45.254886 264.451984 L 46.246434 260.576828 L 47.237982 256.701672 L 48.229530 252.826517 L 49.221078 248.951361 L 50.212626 245.076205 L 51.204174 241.201049 L 52.195722 237.325893 L 53.187270 233.450737 L 54.202183 229.582283 L 55.415225 225.770652 L 56.628266 221.959021 L 57.841308 218.147390 L 59.237420 214.402721 L 60.769999 210.707968 L 62.302578 207.013215 L 63.835157 203.318461 L 65.367736 199.623708 L 66.900315 195.928955 L 68.432894 192.234202 L 69.965473 188.539448 L 71.498052 184.844695 L 73.030631 181.149942 L 74.563210 177.455189 L 76.095789 173.760435 L 77.628368 170.065682 L 79.160947 166.370929 L 80.693526 162.676176 L 82.226105 158.981422 L 83.758684 155.286669 L 85.291263 151.591916 L 86.823842 147.897163 L 88.356421 144.202409 L 90.143659 140.629398 L 92.056736 137.116545 L 93.969813 133.603692 L 95.882890 130.090839 L 98.006646 126.712842 L 100.395715 123.504673 L 102.784783 120.296503 L 105.173852 117.088334 L 107.562921 113.880165 L 109.951990 110.671996 L 112.341059 107.463826 L 114.730127 104.255657 L 117.119196 101.047488 L 119.508265 97.839318 L 121.897334 94.631149 L 124.286403 91.422980 L 126.675471 88.214810 L 129.064540 85.006641 L 131.453609 81.798472 L 133.842678 78.590302 L 136.231747 75.382133 L 138.620815 72.173964 L 141.009884 68.965795 L 143.398953 65.757625 L 145.788022 62.549456 L 148.177091 59.341287 L 150.566159 56.133117 L 152.955228 52.924948 L 155.344297 49.716779 L 157.904541 46.662734 L 160.845367 43.951361 L 163.786193 41.239988 L 166.727019 38.528616 L 169.812853 36.028452 L 173.399771 34.258136 L 176.986689 32.487819 L 180.573606 30.717502 L 184.160524 28.947185 L 187.747442 27.176868 L 191.334359 25.406552 L 194.921277 23.636235 L 198.508195 21.865918 L 202.095112 20.095601 L 205.682030 18.325284 L 209.268948 16.554968 L 212.855865 14.784651 L 216.442783 13.014334 L 220.029701 11.244017 L 223.616618 9.473700 L 227.203536 7.703384 L 230.790454 5.933067 L 234.377372 4.162750 L 238.172309 3.045767 L 242.122469 2.416296 L 246.072630 1.786825 L 250.028445 1.205551 L 254.017028 0.903546 L 258.005611 0.601542 L 261.994194 0.299538 L 262.648440 0.250000" fill="none" id="10" stroke="black" stroke-width="0.5" /><path d="M 290.445310 513.191400 L 289.692143 517.119853 L 289.414060 518.570310" fill="none" id="11" stroke="black" stroke-width="0.5" /><path d="M 283.101560 555.906250 L 283.143718 551.906472 L 283.185877 547.906694 L 283.228035 543.906917 L 283.270193 539.907139 L 283.312352 535.907361 L 283.354510 531.907583 L 283.396668 527.907805 L 283.438827 523.908027 L 283.480985 519.908250 L 283.523143 515.908472 L 283.565302 511.908694 L 283.607460 507.908916 L 283.649618 503.909138 L 283.691777 499.909360 L 283.733935 495.909583 L 283.776093 491.909805 L 283.818252 487.910027 L 283.860410 483.910249 L 283.902568 479.910471 L 283.944727 475.910693 L 283.986885 471.910916 L 284.029043 467.911138 L 284.071202 463.911360 L 284.113360 459.911582 L 284.155519 455.911804 L 284.197677 451.912026 L 284.467682 447.921397 L 284.746344 443.931116 L 285.025006 439.940834 L 285.303667 435.950552 L 285.814523 431.983855 L 286.343869 428.019035 L 286.873214 424.054216 L 287.402559 420.089396 L 287.931904 416.124577 L 288.461249 412.159757 L 288.990595 408.194938 L 289.519940 404.230118 L 290.049285 400.265299 L 290.578630 396.300479 L 291.107975 392.335660 L 291.637321 388.370840 L 292.166666 384.406021 L 292.696011 380.441201 L 293.225356 376.476382 L 293.754701 372.511562 L 294.284047 368.546743 L 294.813392 364.581923 L 295.342737 360.617104 L 295.872082 356.652284 L 296.401427 352.687465 L 296.930773 348.722645 L 297.460118 344.757826 L 297.989463 340.793006 L 298.518808 336.828187 L 299.251537 332.897843 L 300.058356 328.980057 L 300.865174 325.062271 L 301.671992 321.144486 L 302.478810 317.226700 L 303.285628 313.308914 L 304.555335 309.522422 L 305.925659 305.764469 L 307.295983 302.006516 L 308.666308 298.248563 L 310.036632 294.490610 L 311.406956 290.732657 L 312.777281 286.974704 L 314.147605 283.216751 L 315.517929 279.458798 L 316.888254 275.700844 L 318.258578 271.942891 L 319.628902 268.184938 L 320.999227 264.426985 L 322.369551 260.669032 L 323.739875 256.911079 L 325.110200 253.153126 L 326.480524 249.395173 L 327.850848 245.637220 L 329.221173 241.879267 L 330.591497 238.121314 L 331.961821 234.363361 L 333.332146 230.605408 L 334.702470 226.847455 L 336.072794 223.089502 L 337.443119 219.331548 L 338.813443 215.573595 L 340.183767 211.815642 L 341.554091 208.057689 L 342.924416 204.299736 L 344.294740 200.541783 L 345.665064 196.783830 L 347.035389 193.025877 L 348.405713 189.267924 L 349.776037 185.509971 L 351.146362 181.752018 L 352.516686 177.994065 L 353.887010 174.236112 L 355.786454 170.717702 L 357.706140 167.208456 L 359.625825 163.699210 L 361.545510 160.189963 L 363.465195 156.680717 L 365.384881 153.171471 L 365.726560 152.546870" fill="none" id="12" stroke="black" stroke-width="0.5" /><path d="M 585.152340 302.816400 L 583.556437 306.484246 L 581.960535 310.152092 L 580.364632 313.819938 L 578.768730 317.487784 L 577.172827 321.155630 L 577.164060 321.175780" fill="none" id="13" stroke="black" stroke-width="0.5" /><path d="M 165.496090 133.703120 L 161.920889 131.909258 L 158.345689 130.115397 L 156.574220 129.226560" fill="none" id="14" stroke="black" stroke-width="0.5" /><path d="M 546.820310 296.824220 L 548.046910 293.016931 L 549.273511 289.209642 L 549.300780 289.125000" fill="none" id="17" stroke="black" stroke-width="0.5" /><path d="M 135.218750 128.582030 L 136.969408 124.985477 L 138.720067 121.388923 L 140.470725 117.792370 L 142.221383 114.195817 L 143.972042 110.599264 L 145.722700 107.002710 L 147.225895 104.987381 L 146.163648 108.843756 L 145.101400 112.700132 L 144.039153 116.556507 L 142.976906 120.412882 L 141.514150 124.128203 L 139.925364 127.799137 L 138.336577 131.470072 L 136.747791 135.141006 L 135.159005 138.811940 L 133.570219 142.482874 L 131.981433 146.153809 L 130.392647 149.824743 L 128.803860 153.495677 L 127.215074 157.166612 L 125.626288 160.837546 L 124.029958 164.505102 L 122.349309 168.134898 L 120.668659 171.764693 L 118.988010 175.394489 L 117.288449 179.015244 L 115.518698 182.602440 L 113.748946 186.189637 L 111.979194 189.776833 L 110.209442 193.364030 L 108.439691 196.951226 L 107.155140 199.431868 L 108.594694 195.699887 L 110.034248 191.967905 L 111.473802 188.235924 L 112.988027 184.534554 L 114.582334 180.866014 L 116.176640 177.197474 L 117.770947 173.528934 L 119.365254 169.860394 L 120.959561 166.191854 L 122.553867 162.523314 L 124.148174 158.854774 L 125.742481 155.186234 L 127.336788 151.517694 L 128.931094 147.849154 L 130.524746 144.180340 L 132.012280 140.467223 L 133.499814 136.754105 L 134.987348 133.040987 L 136.474882 129.327870 L 137.962416 125.614752 L 139.449950 121.901634 L 140.937484 118.188517 L 142.399368 114.465812 L 143.666188 110.674709 L 144.471065 106.756524 L 143.609860 108.088133 L 142.008042 111.753400 L 140.406224 115.418667 L 138.804407 119.083933 L 137.202589 122.749200 L 135.600771 126.414467 L 133.998953 130.079733 L 132.397135 133.745000 L 130.795317 137.410267 L 129.193500 141.075533 L 127.591682 144.740800 L 125.989864 148.406067 L 124.388046 152.071333 L 122.786228 155.736600 L 121.184411 159.401867 L 119.582593 163.067133 L 117.980775 166.732400 L 116.378957 170.397667 L 114.777139 174.062933 L 113.125690 177.705798 L 111.436569 181.331659 L 109.747448 184.957521 L 108.058326 188.583382 L 106.369205 192.209243 L 104.680084 195.835104 L 102.990963 199.460965 L 101.301841 203.086826 L 99.498041 206.655601 L 97.076668 209.779143 L 97.579279 207.794950 L 97.625000 207.695310" fill="none" id="18" stroke="black" stroke-width="0.5" /><path d="M 260.652340 263.968750 L 261.323153 260.025400 L 263.120304 256.471307 L 265.214533 253.063345 L 267.308763 249.655383 L 269.402992 246.247422 L 271.497221 242.839460 L 273.680274 239.494975 L 276.226266 236.409861 L 279.334240 233.899579 L 282.476109 231.423967 L 285.617979 228.948354 L 288.759848 226.472742 L 291.901718 223.997130 L 295.043587 221.521518 L 298.185457 219.045906 L 301.327327 216.570293 L 304.548558 214.284868 L 308.518195 213.792951 L 312.487832 213.301034 L 316.457469 212.809117 L 320.427106 212.317200 L 324.396743 211.825283 L 328.366380 211.333366 L 332.336017 210.841449 L 336.127567 211.724726 L 337.410150 212.238280" fill="none" id="19" stroke="black" stroke-width="0.5" /><path d="M 337.765620 215.910150 L 334.984741 213.034961 L 336.334327 212.692132 L 339.183590 214.074220" fill="none" id="20" stroke="black" stroke-width="0.5" /><path d="M 346.851560 215.359370 L 349.024084 218.717962 L 351.196608 222.076554 L 353.369132 225.435146 L 355.541656 228.793738 L 357.714180 232.152330 L 359.330286 235.779024 L 360.249584 239.633490 L 360.351676 243.632187 L 360.453767 247.630884 L 360.555858 251.629581 L 360.657949 255.628278 L 360.760041 259.626975 L 360.862132 263.625672 L 360.964223 267.624369 L 361.066315 271.623066 L 361.168406 275.621763 L 361.270497 279.620459 L 360.642318 283.522521 L 359.503667 287.357032 L 358.365017 291.191543 L 357.226366 295.026054 L 355.460374 298.606681 L 353.611685 302.153842 L 351.762996 305.701003 L 349.914308 309.248164 L 348.065619 312.795325 L 346.216930 316.342486 L 344.402340 319.824220" fill="none" id="21" stroke="black" stroke-width="0.5" /><path d="M 506.554690 281.042970 L 509.670847 283.550871 L 512.787003 286.058772 L 515.903160 288.566673 L 518.776281 291.335022 L 520.369781 294.919035 L 521.552329 298.740236 L 522.734878 302.561437 L 523.917426 306.382638 L 525.099975 310.203840 L 526.282523 314.025041 L 527.465072 317.846242 L 527.558590 321.832102 L 527.214582 325.788248 L 526.211039 329.660315 L 525.207496 333.532381 L 524.203953 337.404448 L 523.200410 341.276515 L 522.196867 345.148582 L 521.193324 349.020649 L 520.189781 352.892716 L 519.186238 356.764782 L 518.182695 360.636849 L 516.627505 364.287908 L 514.680003 367.781793 L 513.707030 369.527340" fill="none" id="22" stroke="black" stroke-width="0.5" /><path d="M 522.597650 289.062500 L 525.728588 289.232616 L 529.146430 291.310683 L 532.564271 293.388749 L 535.370727 296.162027 L 537.868506 299.286303 L 539.518316 302.888159 L 540.895277 306.643685 L 542.272238 310.399211 L 543.649199 314.154738 L 545.026160 317.910264 L 546.403121 321.665790 L 547.780082 325.421317 L 549.157043 329.176843 L 549.620755 333.114069 L 549.786143 337.110648 L 549.951531 341.107227 L 550.116919 345.103807 L 550.282307 349.100386 L 550.447695 353.096966 L 550.613083 357.093545 L 550.778471 361.090124 L 550.943859 365.086704 L 551.109247 369.083283 L 551.274635 373.079862 L 550.351789 376.947917 L 549.687500 379.289060" fill="none" id="23" stroke="black" stroke-width="0.5" /><path d="M 516.542970 359.507810 L 520.374982 360.654842 L 524.206994 361.801874 L 528.039007 362.948906 L 531.871019 364.095938 L 535.703031 365.242970 L 539.535721 366.221654 L 543.376836 365.105486 L 547.217952 363.989318 L 549.332030 362.921870" fill="none" id="24" stroke="black" stroke-width="0.5" /><path d="M 169.910150 130.964840 L 168.137927 129.742180 L 164.231799 130.498832 L 160.353062 131.476279 L 156.474325 132.453726 L 152.595589 133.431172 L 149.513950 135.692705 L 146.917001 138.735049 L 144.320052 141.777393 L 141.723103 144.819736 L 139.126154 147.862080 L 136.529205 150.904424 L 133.932256 153.946768 L 131.335307 156.989112 L 129.618819 160.595232 L 127.942258 164.226918 L 126.265696 167.858603 L 124.589135 171.490289 L 123.652340 173.519530" fill="none" id="25" stroke="black" stroke-width="0.5" /><path d="M 118.789060 176.933590 L 116.233721 173.879205 L 113.312500 171.554680" fill="none" id="26" stroke="black" stroke-width="0.5" /><path d="M 118.886720 175.742180 L 122.606880 177.114238 L 119.311011 174.868722 L 115.762191 173.023220 L 112.213371 171.177718 L 108.664552 169.332216 L 105.188889 167.368616 L 101.955999 165.013108 L 98.723108 162.657599 L 95.490218 160.302091 L 92.257328 157.946582 L 89.649865 155.128527 L 93.637301 155.445314 L 97.624737 155.762101 L 101.612173 156.078888 L 105.389781 157.286737 L 108.996631 159.010544 L 112.572032 160.804007 L 115.953120 162.500000" fill="none" id="27" stroke="black" stroke-width="0.5" /><path d="M 87.542970 155.125000 L 90.273914 152.259331 L 93.012795 149.344107 L 95.751676 146.428883 L 98.490556 143.513658 L 101.229437 140.598434 L 104.432702 138.349485 L 108.115662 136.788779 L 111.798623 135.228074 L 115.481583 133.667368 L 119.164544 132.106663 L 122.847505 130.545958 L 126.530465 128.985252 L 130.213426 127.424547 L 133.987543 126.241506 L 137.976932 125.950347 L 141.957888 126.120596 L 145.933973 126.557340 L 149.910059 126.994084 L 153.886144 127.430827 L 157.862230 127.867571 L 161.838315 128.304315 L 162.019530 128.324220" fill="none" id="28" stroke="black" stroke-width="0.5" /><path d="M 90.218750 426.703120 L 93.355950 429.184647 L 96.493150 431.666175 L 99.630349 434.147702 L 102.767549 436.629229 L 105.904749 439.110756 L 109.041949 441.592284 L 112.179148 444.073811 L 115.316348 446.555338 L 118.453548 449.036866 L 121.590748 451.518393 L 124.727947 453.999920 L 127.865147 456.481448 L 131.002347 458.962975 L 134.139547 461.444502 L 137.276746 463.926029 L 140.308590 466.324220" fill="none" id="29" stroke="black" stroke-width="0.5" /><path d="M 0.250000 359.089840 L 3.310138 361.665797 L 6.370276 364.241755 L 9.430413 366.817712 L 12.490551 369.393670 L 15.550689 371.969627 L 18.610827 374.545585 L 21.670964 377.121542 L 24.731102 379.697500 L 27.791240 382.273457 L 30.851378 384.849415 L 33.911516 387.425372 L 36.971653 390.001329 L 40.031791 392.577287 L 43.091929 395.153244 L 46.152067 397.729202 L 49.212204 400.305159 L 52.272342 402.881117 L 55.332480 405.457074 L 58.396093 408.028848 L 61.489229 410.565088 L 64.582365 413.101327 L 67.675501 415.637566 L 70.768637 418.173806 L 73.861773 420.710045 L 76.954909 423.246284 L 80.048045 425.782524 L 83.224803 428.213177 L 86.402168 430.643064 L 89.579533 433.072952 L 92.756897 435.502840 L 95.934262 437.932727 L 99.111626 440.362615 L 102.288991 442.792503 L 105.466356 445.222390 L 108.767374 447.477489 L 112.116438 449.664672 L 115.465502 451.851855 L 118.814566 454.039038 L 122.163630 456.226222 L 125.512694 458.413405 L 128.861758 460.600588 L 132.210822 462.787771 L 135.559886 464.974954 L 138.908950 467.162137 L 142.258014 469.349320 L 145.607078 471.536504 L 148.956142 473.723687 L 152.305206 475.910870 L 155.654270 478.098053 L 159.003334 480.285236 L 162.352398 482.472419 L 165.701462 484.659603 L 169.050526 486.846786 L 172.399590 489.033969 L 175.748654 491.221152 L 179.097718 493.408335 L 182.446782 495.595518 L 185.795846 497.782701 L 189.144910 499.969885 L 192.493974 502.157068 L 195.843038 504.344251 L 199.192102 506.531434 L 202.541166 508.718617 L 205.890230 510.905800 L 209.239294 513.092983 L 212.588358 515.280167 L 215.937422 517.467350 L 219.286486 519.654533 L 222.635550 521.841716 L 225.984614 524.028899 L 229.333679 526.216082 L 232.682743 528.403266 L 236.031807 530.590449 L 239.380871 532.777632 L 242.729935 534.964815 L 246.078999 537.151998 L 249.428063 539.339181 L 252.777127 541.526364 L 256.126191 543.713548 L 259.475255 545.900731 L 262.824319 548.087914 L 266.173383 550.275097 L 269.522447 552.462280 L 269.765620 552.621090" fill="none" id="30" stroke="black" stroke-width="0.5" /><path d="M 328.488280 587.761720 L 328.746626 583.770072 L 329.004973 579.778423 L 329.263319 575.786775 L 329.521666 571.795126 L 329.780012 567.803478 L 330.038358 563.811829 L 330.296705 559.820181 L 330.555051 555.828533 L 330.813398 551.836884 L 331.071744 547.845236 L 331.330090 543.853587 L 331.583066 540.060123 L 331.624848 544.059905 L 331.666630 548.059686 L 331.708413 552.059468 L 331.702874 556.058282 L 331.497653 560.053015 L 331.292432 564.047747 L 331.087210 568.042479 L 330.881989 572.037211 L 330.676768 576.031943 L 330.388070 580.020113 L 329.966635 583.997850 L 329.545200 587.975588 L 329.123764 591.953325 L 328.702329 595.931062 L 328.280894 599.908799 L 328.199220 600.679680" fill="none" id="31" stroke="black" stroke-width="0.5" /><path d="M 244.093750 552.007810 L 243.678785 548.029393 L 243.263820 544.050975 L 242.848854 540.072558 L 242.484370 536.091515 L 242.484370 532.091515 L 242.770587 530.863289 L 243.568916 534.781917 L 244.007416 538.757809 L 244.445916 542.733701 L 244.884416 546.709593 L 245.322916 550.685486 L 245.744135 554.662999 L 246.052648 558.651083 L 246.361161 562.639168 L 246.669675 566.627253 L 246.978188 570.615337 L 247.286701 574.603422 L 248.249453 578.411293 L 248.312500 578.519530" fill="none" id="32" stroke="black" stroke-width="0.5" /><path d="M 62.707030 411.015620 L 63.160791 414.980003 L 64.103354 418.867364 L 64.777040 422.808842 L 65.411764 426.758161 L 66.046488 430.707481 L 66.681211 434.656801 L 67.315935 438.606120 L 67.950659 442.555440 L 68.395709 446.526510 L 68.671468 450.516993 L 68.947226 454.507477 L 69.222985 458.497960 L 69.498744 462.488443 L 69.774503 466.478927 L 69.859370 467.707030" fill="none" id="33" stroke="black" stroke-width="0.5" /><path d="M 517.574220 438.781250 L 517.880851 442.769480 L 518.187481 446.757710 L 518.494112 450.745940 L 518.778527 454.735336 L 518.891210 458.733748 L 518.859380 462.733543 L 518.823163 466.733379 L 518.786946 470.733215 L 518.750729 474.733051 L 518.714512 478.732887 L 518.678294 482.732723 L 518.642077 486.732559 L 518.276874 490.713485 L 517.854558 494.691129 L 517.507810 497.957030" fill="none" id="34" stroke="black" stroke-width="0.5" /><path d="M 64.480470 384.570310 L 63.578798 380.673261 L 62.677126 376.776213 L 61.775454 372.879164 L 61.867747 374.302512 L 62.433891 378.262245 L 63.000035 382.221977 L 63.566178 386.181710 L 64.132322 390.141442 L 64.698466 394.101175 L 65.264610 398.060907 L 65.830754 402.020639 L 66.340624 405.987129 L 66.727934 409.968333 L 67.090224 413.951431 L 67.306488 417.945581 L 67.522751 421.939730 L 67.739015 425.933880 L 67.955278 429.928029 L 68.171542 433.922179 L 68.387805 437.916328 L 68.604069 441.910478 L 68.820332 445.904627 L 69.036596 449.898777 L 69.252859 453.892926 L 69.469123 457.887076 L 69.685386 461.881225 L 69.762962 465.880308 L 69.828120 469.707030" fill="none" id="35" stroke="black" stroke-width="0.5" /><path d="M 64.542970 375.003900 L 62.569832 376.246655 L 59.592055 373.675603 L 57.088517 370.555940 L 54.786714 367.305438 L 53.430747 363.608030 L 53.031627 359.627992 L 53.134459 355.742762 L 55.766421 352.767473 L 58.577332 349.921638 L 61.392101 347.079855 L 64.372424 344.411958 L 67.463565 341.877494 L 69.375000 340.406250" fill="none" id="37" stroke="black" stroke-width="0.5" /><path d="M 250.570310 502.464840 L 253.596075 505.081087 L 256.621840 507.697333 L 259.647605 510.313580 L 262.738722 512.837552 L 266.210951 514.823407 L 270.086930 515.668804 L 274.035207 516.309985 L 277.983483 516.951166 L 281.931760 517.592346 L 285.880036 518.233527 L 289.828313 518.874708 L 293.776589 519.515888 L 297.724866 520.157069 L 301.625408 520.141733 L 305.439412 518.936171 L 308.887288 516.927334 L 312.299119 514.839415 L 315.710950 512.751495 L 319.122781 510.663575 L 322.534612 508.575655 L 325.946443 506.487735 L 329.358274 504.399815 L 329.679690 504.203120" fill="none" id="38" stroke="black" stroke-width="0.5" /><path d="M 248.601560 540.699220 L 251.792831 543.087217 L 255.262735 545.067872 L 258.949794 546.618871 L 262.636852 548.169870 L 266.323911 549.720870 L 270.010969 551.271869 L 273.698028 552.822868 L 277.385087 554.373867 L 281.190211 555.567165 L 285.076105 556.515761 L 288.961998 557.464356 L 292.864371 557.661619 L 296.788120 556.884320 L 300.711869 556.107021 L 304.635618 555.329722 L 308.559367 554.552422 L 312.483116 553.775123 L 316.406865 552.997824 L 319.996833 551.438352 L 323.272877 549.143242 L 326.548922 546.848132 L 329.824967 544.553022 L 333.101012 542.257911 L 336.377057 539.962801 L 336.703120 539.734370" fill="none" id="39" stroke="black" stroke-width="0.5" /><path d="M 247.863280 542.214840 L 247.850084 543.851696 L 248.215276 547.834990 L 248.580468 551.818285 L 249.602134 555.548301 L 252.006974 558.744665 L 254.411814 561.941029 L 256.816655 565.137393 L 259.221495 568.333757 L 261.626335 571.530121 L 264.031176 574.726485 L 267.396671 576.220325 L 271.376020 576.626263 L 275.355368 577.032202 L 279.334717 577.438140 L 283.314065 577.844078 L 287.099445 576.674890 L 289.160150 575.714840" fill="none" id="40" stroke="black" stroke-width="0.5" /><path d="M 284.937500 576.101560 L 288.632798 575.185945 L 292.062769 573.127962 L 294.085940 571.914060" fill="none" id="41" stroke="black" stroke-width="0.5" /><path d="M 328.617190 546.917970 L 329.552871 550.806993 L 330.342025 554.724914 L 330.937259 558.679173 L 330.927724 562.679161 L 330.918189 566.679150 L 330.908654 570.679139 L 329.387226 574.264795 L 327.356199 577.710797 L 325.325171 581.156798 L 323.294143 584.602800 L 319.602342 584.762695 L 315.929143 583.179152 L 312.255944 581.595610 L 308.582745 580.012067 L 304.936338 578.377271 L 301.539521 576.265012 L 298.162788 574.122124 L 294.871521 571.848898 L 292.121090 569.949220" fill="none" id="42" stroke="black" stroke-width="0.5" /><path d="M 257.847650 573.492180 L 261.267274 575.567312 L 264.686897 577.642445 L 268.218342 579.495097 L 271.923970 581.001191 L 275.629598 582.507285 L 279.335226 584.013379 L 283.040854 585.519474 L 286.746483 587.025568 L 290.703000 587.195114 L 294.702554 587.135394 L 298.702109 587.075674 L 302.701663 587.015954 L 306.701217 586.956234 L 310.700771 586.896514 L 314.700325 586.836794 L 318.527653 585.755507 L 322.158921 584.092359 L 325.749169 582.328807 L 329.339418 580.565254 L 331.937500 579.289060" fill="none" id="43" stroke="black" stroke-width="0.5" /><path d="M 493.316400 471.929680 L 496.341339 472.951813 L 500.057355 471.471534 L 503.773371 469.991255 L 506.731007 467.510767 L 509.159377 464.332242 L 511.587748 461.153718 L 514.016118 457.975193 L 515.988871 454.518930 L 516.902012 450.648601 L 517.603273 446.710552 L 518.304533 442.772502 L 518.441400 442.003900" fill="none" id="44" stroke="black" stroke-width="0.5" /><path d="M 519.570310 387.628900 L 522.623798 387.922361 L 526.178825 386.088844 L 529.723579 384.241261 L 532.552006 381.412834 L 535.380433 378.584407 L 537.985284 375.601242 L 536.709466 372.281153 L 534.303029 369.085991 L 531.896592 365.890829 L 528.712035 363.683252 L 525.042529 362.091172 L 521.373022 360.499092 L 517.703515 358.907011 L 514.640620 357.578120" fill="none" id="45" stroke="black" stroke-width="0.5" /><path d="M 515.574220 442.195310 L 519.429474 441.129000 L 523.284728 440.062689 L 526.545082 437.836336 L 529.255958 434.895053 L 531.966835 431.953769 L 534.677711 429.012486 L 537.310041 426.019479 L 537.489426 422.437908 L 535.510769 418.961572 L 533.532112 415.485235 L 531.472368 412.099163 L 527.804576 410.503137 L 526.980470 410.144530" fill="none" id="46" stroke="black" stroke-width="0.5" /><path d="M 511.871090 469.546870 L 515.275291 469.198065 L 518.467561 466.787792 L 521.659831 464.377520 L 524.172124 461.291899 L 526.218898 457.855227 L 528.265672 454.418554 L 530.312445 450.981882 L 532.359219 447.545209 L 534.405993 444.108537 L 536.084031 440.521738 L 537.019824 436.632742 L 537.955618 432.743746 L 538.891412 428.854749 L 539.734370 424.954741 L 539.734370 422.578120" fill="none" id="47" stroke="black" stroke-width="0.5" /><path d="M 56.781250 373.746090 L 57.132982 377.730596 L 57.484714 381.715101 L 56.371464 379.530071 L 55.136540 375.735871 L 54.260798 371.833470 L 53.450891 367.916322 L 52.640983 363.999174 L 52.001405 360.050714 L 51.628900 359.396035 L 51.803284 363.382736 L 52.409866 367.336476 L 53.016449 371.290216 L 53.623031 375.243955 L 54.229613 379.197695 L 54.836195 383.151435 L 55.442777 387.105175 L 56.049360 391.058914 L 56.638944 395.015124 L 57.182561 398.978012 L 57.726177 402.940900 L 58.269794 406.903787 L 58.746319 410.873985 L 59.068853 414.860960 L 59.391387 418.847936 L 59.713921 422.834911 L 60.036454 426.821886 L 60.358988 430.808862 L 60.550780 434.801117 L 60.550780 435.496090" fill="none" id="48" stroke="black" stroke-width="0.5" /><path d="M 68.410150 413.464840 L 67.960940 417.386804 L 69.032284 421.217543 L 70.562374 424.913328 L 72.092465 428.609112 L 73.622555 432.304897 L 75.152646 436.000681 L 76.682736 439.696466 L 78.490327 443.184319 L 81.607611 445.690818 L 84.724895 448.197317 L 87.842180 450.703817 L 90.959464 453.210316 L 94.076748 455.716815 L 97.797307 456.481889 L 101.488861 454.941620 L 104.550780 453.664060" fill="none" id="49" stroke="black" stroke-width="0.5" /><path d="M 57.554690 405.378900 L 56.986125 409.159441 L 57.464328 413.071608 L 58.683454 416.881297 L 59.902581 420.690986 L 61.121707 424.500675 L 62.340834 428.310364 L 63.559960 432.120053 L 65.162596 435.738248 L 67.475328 439.001876 L 69.788061 442.265504 L 72.100794 445.529132 L 74.413527 448.792760 L 76.726260 452.056388 L 79.797272 454.610829 L 80.812500 455.437500" fill="none" id="50" stroke="black" stroke-width="0.5" /></svg>