<?xml version="1.0" encoding="utf-8" ?>
<svg baseProfile="full" height="601.5" version="1.1" viewBox="0,0,585.5,601.5" width="585.5" xmlns="http://www.w3.org/2000/svg" xmlns:ev="http://www.w3.org/2001/xml-events" xmlns:xlink="http://www.w3.org/1999/xlink"><defs><style type="text/css"><![CDATA[
	.background { fill: white; }
	.line { stroke: firebrick; stroke-width: .1mm; }
	.blacksquare { fill: indigo; }
	.whitesquare { fill: white; }
]]></style></defs><rect class="background" height="100%" width="100%" x="0" y="0" /><path d="M 283.102000 555.906000 L 283.154000 550.946000 L 283.206000 545.986000 L 283.258000 541.026000 L 283.311000 536.066000 L 283.363000 531.106000 L 283.415000 526.146000 L 283.468000 521.186000 L 283.520000 516.225000 L 283.572000 511.265000 L 283.624000 506.305000 L 283.677000 501.345000 L 283.729000 496.385000 L 283.781000 491.425000 L 283.833000 486.465000 L 283.886000 481.505000 L 283.938000 476.545000 L 283.990000 471.584000 L 284.043000 466.624000 L 284.095000 461.664000 L 284.147000 456.704000 L 284.260000 451.745000 L 284.548000 446.793000 L 284.892000 441.845000 L 285.258000 436.898000 L 285.821000 431.969000 L 286.473000 427.052000 L 287.129000 422.135000 L 287.786000 417.219000 L 288.442000 412.302000 L 289.099000 407.385000 L 289.755000 402.468000 L 290.412000 397.552000 L 291.068000 392.635000 L 291.724000 387.718000 L 292.381000 382.801000 L 293.037000 377.885000 L 293.694000 372.968000 L 294.350000 368.051000 L 295.007000 363.134000 L 295.663000 358.218000 L 296.320000 353.301000 L 296.976000 348.384000 L 297.632000 343.467000 L 298.311000 338.553000 L 299.126000 333.661000 L 300.096000 328.796000 L 301.097000 323.938000 L 302.097000 319.079000 L 303.196000 314.242000 L 304.602000 309.485000 L 306.272000 304.814000 L 307.971000 300.154000 L 309.671000 295.494000 L 311.370000 290.834000 L 313.069000 286.173000 L 314.769000 281.513000 L 316.468000 276.853000 L 318.167000 272.193000 L 319.867000 267.533000 L 321.566000 262.872000 L 323.265000 258.212000 L 324.965000 253.552000 L 326.664000 248.892000 L 328.363000 244.231000 L 330.063000 239.571000 L 331.762000 234.911000 L 333.461000 230.251000 L 335.161000 225.591000 L 336.860000 220.930000 L 338.559000 216.270000 L 340.259000 211.610000 L 341.958000 206.950000 L 343.657000 202.289000 L 345.357000 197.629000 L 347.056000 192.969000 L 348.755000 188.309000 L 350.455000 183.649000 L 352.154000 178.988000 L 353.891000 174.342000 L 356.204000 169.954000 L 358.576000 165.598000 L 360.965000 161.250000 L 363.350000 156.901000 L 365.727000 152.547000" fill="none" id="0" stroke="#c583d9" stroke-width="0.5" /><path d="M 169.910000 130.965000 L 167.733000 130.893000 L 165.556000 130.915000 L 163.381000 131.025000 L 161.228000 131.359000 L 159.096000 131.793000 L 156.983000 132.326000 L 154.871000 132.858000 L 152.847000 133.608000 L 150.969000 134.711000 L 149.354000 136.159000 L 147.829000 137.713000 L 146.397000 139.355000 L 144.977000 141.008000 L 143.563000 142.664000 L 142.148000 144.321000 L 140.734000 145.978000 L 139.320000 147.635000 L 137.905000 149.292000 L 136.491000 150.949000 L 135.077000 152.606000 L 133.665000 154.265000 L 132.308000 155.967000 L 131.055000 157.749000 L 130.060000 159.681000 L 129.133000 161.653000 L 128.218000 163.630000 L 127.305000 165.608000 L 126.391000 167.586000 L 125.478000 169.563000 L 124.565000 171.541000 L 123.652000 173.520000" fill="none" id="1" stroke="#f375a0" stroke-width="0.5" /><path d="M 312.707000 246.895000 L 312.991000 248.022000 L 313.264000 249.151000 L 313.471000 250.295000 L 313.645000 251.443000 L 313.739000 252.601000 L 313.797000 253.761000 L 313.810000 254.923000 L 313.810000 256.085000 L 313.800000 257.248000 L 313.755000 258.409000 L 313.694000 259.569000 L 313.586000 260.726000 L 313.466000 261.882000 L 313.307000 263.034000 L 313.144000 264.184000 L 312.950000 265.330000 L 312.754000 266.476000 L 312.542000 267.619000 L 312.330000 268.762000 L 312.118000 269.904000 L 311.907000 271.047000 L 311.695000 272.190000 L 311.483000 273.333000 L 311.271000 274.475000 L 311.059000 275.618000 L 310.847000 276.761000 L 310.636000 277.904000 L 310.424000 279.046000 L 310.212000 280.189000 L 310.000000 281.332000" fill="none" id="2" stroke="#9de993" stroke-width="0.5" /><path d="M 535.965000 165.336000 L 535.826000 166.268000 L 535.688000 167.200000 L 535.549000 168.132000 L 535.411000 169.064000 L 535.272000 169.996000 L 535.134000 170.928000 L 534.995000 171.860000 L 534.857000 172.792000 L 534.718000 173.724000 L 534.579000 174.656000 L 534.441000 175.588000 L 534.302000 176.520000 L 534.164000 177.452000 L 534.025000 178.384000 L 533.887000 179.316000 L 533.748000 180.248000 L 533.610000 181.180000 L 533.471000 182.112000 L 533.333000 183.045000 L 533.194000 183.977000 L 533.055000 184.909000 L 532.917000 185.841000 L 532.778000 186.773000 L 532.640000 187.705000 L 532.501000 188.637000 L 532.363000 189.569000 L 532.224000 190.501000 L 532.086000 191.433000 L 531.947000 192.365000 L 531.809000 193.297000" fill="none" id="3" stroke="#ad5ba7" stroke-width="0.5" /><path d="M 537.352000 176.063000 L 537.343000 176.617000 L 537.335000 177.172000 L 537.323000 177.727000 L 537.311000 178.282000 L 537.295000 178.837000 L 537.278000 179.392000 L 537.259000 179.946000 L 537.238000 180.501000 L 537.214000 181.055000 L 537.188000 181.610000 L 537.157000 182.164000 L 537.126000 182.718000 L 537.092000 183.272000 L 537.050000 183.825000 L 536.997000 184.378000 L 536.942000 184.930000 L 536.886000 185.482000 L 536.828000 186.034000 L 536.769000 186.586000 L 536.710000 187.138000 L 536.651000 187.690000 L 536.591000 188.242000 L 536.532000 188.793000 L 536.482000 189.346000 L 536.435000 189.899000 L 536.352000 190.448000 L 536.259000 190.995000 L 536.073000 191.516000 L 535.867000 192.031000 L 535.362000 193.019000" fill="none" id="4" stroke="#58f2c3" stroke-width="0.5" /><path d="M 58.390600 570.402000 L 58.294000 569.340000 L 58.197400 568.278000 L 58.100800 567.216000 L 58.004200 566.154000 L 57.907500 565.092000 L 57.810900 564.030000 L 57.714300 562.968000 L 57.617700 561.907000 L 57.521100 560.845000 L 57.424500 559.783000 L 57.327900 558.721000 L 57.231200 557.659000 L 57.134600 556.597000 L 57.038000 555.535000 L 56.941400 554.473000 L 56.844800 553.411000 L 56.748200 552.349000 L 56.651600 551.287000 L 56.554900 550.225000 L 56.458300 549.163000 L 56.361700 548.101000 L 56.265100 547.039000 L 56.168500 545.977000 L 56.071900 544.915000 L 55.975300 543.853000 L 55.878600 542.791000 L 55.782000 541.729000 L 55.685400 540.667000 L 55.588800 539.605000 L 55.492200 538.543000" fill="none" id="5" stroke="#c94e76" stroke-width="0.5" /><path d="M 32.415200 363.328000 L 32.631200 358.339000 L 32.829900 353.348000 L 33.018700 348.357000 L 33.268700 343.369000 L 33.731200 338.396000 L 34.194800 333.423000 L 34.658300 328.451000 L 35.121900 323.478000 L 35.585400 318.505000 L 36.049000 313.532000 L 36.512500 308.559000 L 36.976100 303.586000 L 37.487800 298.618000 L 38.244200 293.681000 L 39.110700 288.763000 L 40.277200 283.906000 L 41.515100 279.068000 L 42.753200 274.229000 L 43.991200 269.391000 L 45.229300 264.552000 L 46.467300 259.714000 L 47.705400 254.875000 L 48.943400 250.037000 L 50.181500 245.198000 L 51.419500 240.359000 L 52.657600 235.521000 L 53.912500 230.687000 L 55.371000 225.910000 L 56.885500 221.151000 L 58.485900 216.420000 L 60.326800 211.777000 L 62.240200 207.164000 L 64.153800 202.550000 L 66.067400 197.937000 L 67.981000 193.324000 L 69.894600 188.710000 L 71.808100 184.097000 L 73.721700 179.484000 L 75.635300 174.871000 L 77.548900 170.257000 L 79.462500 165.644000 L 81.376100 161.031000 L 83.289700 156.417000 L 85.203200 151.804000 L 87.116800 147.191000 L 89.145500 142.627000 L 91.465000 138.204000 L 93.853400 133.818000 L 96.284200 129.455000 L 99.058700 125.302000 L 102.041000 121.295000 L 105.024000 117.290000 L 108.007000 113.284000 L 110.990000 109.278000 L 113.973000 105.272000 L 116.956000 101.267000 L 119.939000 97.261000 L 122.922000 93.255200 L 125.905000 89.249500 L 128.888000 85.243700 L 131.871000 81.238000 L 134.854000 77.232300 L 137.837000 73.226500 L 140.820000 69.220800 L 143.803000 65.215100 L 146.786000 61.209300 L 149.769000 57.203600 L 152.752000 53.197900 L 155.766000 49.215600 L 159.136000 45.529500 L 162.807000 42.142800 L 166.479000 38.757300 L 170.443000 35.719000 L 174.921000 33.507400 L 179.400000 31.296900 L 183.878000 29.086500 L 188.357000 26.876100 L 192.836000 24.665700 L 197.314000 22.455200 L 201.793000 20.244800 L 206.271000 18.034400 L 210.750000 15.824000 L 215.229000 13.613500 L 219.707000 11.403100 L 224.186000 9.192680 L 228.665000 6.982250 L 233.143000 4.771860 L 237.863000 3.137090 L 242.788000 2.310240 L 247.733000 1.611030 L 252.688000 0.985850 L 257.662000 0.525330 L 262.648000 0.250000" fill="none" id="6" stroke="#57b870" stroke-width="0.5" /><path d="M 585.152000 302.816000 L 584.886000 303.428000 L 584.620000 304.040000 L 584.354000 304.652000 L 584.087000 305.264000 L 583.821000 305.876000 L 583.555000 306.488000 L 583.288000 307.100000 L 583.022000 307.712000 L 582.756000 308.324000 L 582.490000 308.936000 L 582.223000 309.548000 L 581.957000 310.160000 L 581.691000 310.772000 L 581.424000 311.384000 L 581.158000 311.996000 L 580.892000 312.608000 L 580.626000 313.220000 L 580.359000 313.832000 L 580.093000 314.444000 L 579.827000 315.056000 L 579.561000 315.668000 L 579.294000 316.280000 L 579.028000 316.892000 L 578.762000 317.504000 L 578.495000 318.116000 L 578.229000 318.728000 L 577.963000 319.340000 L 577.697000 319.952000 L 577.164000 321.176000" fill="none" id="7" stroke="#d271bb" stroke-width="0.5" /><path d="M 135.219000 128.582000 L 135.605000 127.788000 L 135.992000 126.994000 L 136.378000 126.200000 L 136.764000 125.407000 L 137.151000 124.613000 L 137.537000 123.819000 L 137.924000 123.025000 L 138.310000 122.231000 L 138.697000 121.437000 L 139.083000 120.643000 L 139.469000 119.850000 L 139.856000 119.056000 L 140.242000 118.262000 L 140.629000 117.468000 L 141.015000 116.674000 L 141.401000 115.880000 L 141.788000 115.086000 L 142.174000 114.293000 L 142.561000 113.499000 L 142.947000 112.705000 L 143.347000 111.918000 L 143.747000 111.131000 L 144.148000 110.344000 L 144.548000 109.557000 L 144.975000 108.784000 L 145.403000 108.012000 L 145.850000 107.251000 L 146.298000 106.490000 L 146.762000 105.739000 L 147.226000 104.987000" fill="none" id="8" stroke="#3d8e43" stroke-width="0.5" /><path d="M 147.226000 104.987000 L 146.357000 108.301000 L 145.454000 111.606000 L 144.527000 114.904000 L 143.589000 118.199000 L 142.479000 121.440000 L 141.248000 124.635000 L 139.924000 127.795000 L 138.566000 130.940000 L 137.205000 134.084000 L 135.845000 137.228000 L 134.484000 140.372000 L 133.123000 143.516000 L 131.762000 146.660000 L 130.401000 149.804000 L 129.041000 152.948000 L 127.680000 156.092000 L 126.318000 159.236000 L 124.947000 162.376000 L 123.555000 165.506000 L 122.124000 168.618000 L 120.684000 171.727000 L 119.240000 174.834000 L 117.781000 177.934000 L 116.289000 181.018000 L 114.783000 184.094000 L 113.266000 187.166000 L 111.744000 190.236000 L 110.218000 193.303000 L 108.688000 196.368000 L 107.155000 199.432000" fill="none" id="9" stroke="#3d8e43" stroke-width="0.5" /><path d="M 107.155000 199.432000 L 108.334000 196.315000 L 109.529000 193.205000 L 110.741000 190.101000 L 111.986000 187.010000 L 113.265000 183.934000 L 114.580000 180.872000 L 115.908000 177.816000 L 117.236000 174.760000 L 118.564000 171.704000 L 119.892000 168.648000 L 121.220000 165.592000 L 122.548000 162.536000 L 123.877000 159.480000 L 125.205000 156.424000 L 126.533000 153.368000 L 127.861000 150.312000 L 129.189000 147.256000 L 130.516000 144.200000 L 131.756000 141.107000 L 132.995000 138.014000 L 134.234000 134.920000 L 135.474000 131.827000 L 136.713000 128.734000 L 137.952000 125.641000 L 139.191000 122.548000 L 140.390000 119.439000 L 141.547000 116.314000 L 142.567000 113.142000 L 143.542000 109.956000 L 144.471000 106.757000" fill="none" id="10" stroke="#3d8e43" stroke-width="0.5" /><path d="M 144.471000 106.757000 L 142.894000 110.118000 L 141.336000 113.488000 L 139.801000 116.868000 L 138.291000 120.260000 L 136.804000 123.661000 L 135.317000 127.063000 L 133.830000 130.465000 L 132.344000 133.867000 L 130.857000 137.269000 L 129.370000 140.671000 L 127.883000 144.073000 L 126.397000 147.475000 L 124.910000 150.877000 L 123.423000 154.279000 L 121.936000 157.681000 L 120.450000 161.083000 L 118.963000 164.485000 L 117.476000 167.887000 L 115.987000 171.288000 L 114.485000 174.683000 L 112.944000 178.061000 L 111.387000 181.432000 L 109.822000 184.798000 L 108.254000 188.164000 L 106.686000 191.529000 L 105.118000 194.894000 L 103.441000 198.205000 L 101.631000 201.445000 L 99.685000 204.607000 L 97.625000 207.695000" fill="none" id="11" stroke="#3d8e43" stroke-width="0.5" /><path d="M 260.652000 263.969000 L 261.623000 260.754000 L 262.813000 257.614000 L 264.320000 254.616000 L 266.035000 251.730000 L 267.792000 248.868000 L 269.551000 246.007000 L 271.330000 243.159000 L 273.203000 240.374000 L 275.289000 237.750000 L 277.653000 235.373000 L 280.221000 233.210000 L 282.855000 231.126000 L 285.492000 229.047000 L 288.130000 226.969000 L 290.768000 224.891000 L 293.405000 222.812000 L 296.043000 220.734000 L 298.681000 218.656000 L 301.345000 216.611000 L 304.226000 214.905000 L 307.416000 213.991000 L 310.740000 213.518000 L 314.073000 213.105000 L 317.406000 212.692000 L 320.738000 212.279000 L 324.071000 211.866000 L 327.407000 211.494000 L 330.759000 211.354000 L 334.102000 211.659000 L 337.410000 212.238000" fill="none" id="12" stroke="#00d4db" stroke-width="0.5" /><path d="M 346.852000 215.359000 L 348.874000 218.485000 L 350.896000 221.611000 L 352.918000 224.737000 L 354.940000 227.863000 L 356.962000 230.989000 L 358.649000 234.307000 L 359.787000 237.852000 L 360.247000 241.546000 L 360.393000 245.266000 L 360.488000 248.988000 L 360.583000 252.709000 L 360.678000 256.431000 L 360.773000 260.153000 L 360.868000 263.874000 L 360.963000 267.596000 L 361.059000 271.318000 L 361.154000 275.039000 L 361.141000 278.762000 L 360.746000 282.464000 L 359.881000 286.085000 L 358.822000 289.654000 L 357.721000 293.210000 L 356.401000 296.691000 L 354.726000 300.016000 L 353.005000 303.317000 L 351.285000 306.619000 L 349.564000 309.920000 L 347.844000 313.221000 L 346.123000 316.523000 L 344.402000 319.824000" fill="none" id="13" stroke="#d55969" stroke-width="0.5" /><path d="M 522.598000 289.063000 L 525.803000 290.099000 L 528.886000 291.452000 L 531.852000 293.045000 L 534.399000 295.212000 L 536.613000 297.744000 L 538.403000 300.573000 L 539.767000 303.650000 L 540.954000 306.803000 L 542.113000 309.966000 L 543.273000 313.129000 L 544.433000 316.292000 L 545.592000 319.455000 L 546.752000 322.618000 L 547.909000 325.781000 L 548.887000 329.001000 L 549.481000 332.306000 L 549.726000 335.665000 L 549.866000 339.031000 L 550.005000 342.397000 L 550.144000 345.763000 L 550.283000 349.129000 L 550.423000 352.495000 L 550.562000 355.861000 L 550.701000 359.227000 L 550.841000 362.593000 L 550.980000 365.958000 L 551.082000 369.325000 L 550.997000 372.686000 L 550.469000 376.012000 L 549.688000 379.289000" fill="none" id="14" stroke="#64e4ff" stroke-width="0.5" /><path d="M 506.555000 281.043000 L 509.114000 283.053000 L 511.646000 285.099000 L 514.167000 287.158000 L 516.607000 289.310000 L 518.639000 291.815000 L 520.121000 294.697000 L 521.228000 297.756000 L 522.208000 300.860000 L 523.170000 303.969000 L 524.133000 307.078000 L 525.095000 310.188000 L 526.057000 313.297000 L 526.891000 316.443000 L 527.352000 319.656000 L 527.361000 322.901000 L 526.974000 326.127000 L 526.302000 329.309000 L 525.485000 332.460000 L 524.669000 335.611000 L 523.852000 338.762000 L 523.036000 341.912000 L 522.219000 345.063000 L 521.402000 348.214000 L 520.586000 351.364000 L 519.769000 354.515000 L 518.937000 357.662000 L 517.984000 360.770000 L 516.771000 363.788000 L 515.327000 366.704000 L 513.707000 369.527000" fill="none" id="15" stroke="#e68e54" stroke-width="0.5" /><path d="M 537.985000 375.601000 L 537.584000 374.662000 L 537.183000 373.724000 L 536.718000 372.815000 L 536.252000 371.907000 L 535.693000 371.053000 L 535.132000 370.200000 L 534.520000 369.383000 L 533.907000 368.567000 L 533.242000 367.792000 L 532.576000 367.019000 L 531.860000 366.291000 L 531.142000 365.566000 L 530.303000 364.985000 L 529.463000 364.405000 L 528.584000 363.885000 L 527.704000 363.367000 L 526.792000 362.910000 L 525.878000 362.454000 L 524.942000 362.048000 L 524.005000 361.641000 L 523.069000 361.235000 L 522.132000 360.829000 L 521.196000 360.422000 L 520.260000 360.016000 L 519.323000 359.610000 L 518.387000 359.203000 L 517.450000 358.797000 L 516.514000 358.391000 L 515.577000 357.984000 L 514.641000 357.578000" fill="none" id="16" stroke="#54aeff" stroke-width="0.5" /><path d="M 516.543000 359.508000 L 517.634000 359.834000 L 518.726000 360.161000 L 519.817000 360.488000 L 520.908000 360.815000 L 522.000000 361.141000 L 523.091000 361.468000 L 524.182000 361.795000 L 525.274000 362.121000 L 526.365000 362.448000 L 527.457000 362.775000 L 528.548000 363.101000 L 529.639000 363.428000 L 530.731000 363.755000 L 531.822000 364.081000 L 532.913000 364.408000 L 534.007000 364.726000 L 535.101000 365.043000 L 536.200000 365.343000 L 537.306000 365.613000 L 538.432000 365.783000 L 539.562000 365.854000 L 540.698000 365.764000 L 541.813000 365.560000 L 542.907000 365.242000 L 543.994000 364.903000 L 545.078000 364.552000 L 546.150000 364.167000 L 547.218000 363.771000 L 548.276000 363.348000 L 549.332000 362.922000" fill="none" id="17" stroke="#eed973" stroke-width="0.5" /><path d="M 89.649900 155.129000 L 90.570400 155.202000 L 91.490900 155.275000 L 92.411400 155.348000 L 93.331900 155.421000 L 94.252400 155.494000 L 95.172900 155.567000 L 96.093400 155.640000 L 97.013900 155.714000 L 97.934400 155.787000 L 98.854900 155.860000 L 99.770900 155.976000 L 100.687000 156.093000 L 101.591000 156.282000 L 102.494000 156.472000 L 103.380000 156.732000 L 104.266000 156.993000 L 105.130000 157.320000 L 105.993000 157.648000 L 106.837000 158.022000 L 107.682000 158.396000 L 108.514000 158.796000 L 109.346000 159.196000 L 110.173000 159.607000 L 111.000000 160.017000 L 111.826000 160.430000 L 112.652000 160.843000 L 113.477000 161.257000 L 114.303000 161.671000 L 115.128000 162.085000 L 115.953000 162.500000" fill="none" id="18" stroke="#008bd4" stroke-width="0.5" /><path d="M 122.607000 177.114000 L 121.491000 176.399000 L 120.375000 175.683000 L 119.241000 174.997000 L 118.106000 174.311000 L 116.945000 173.672000 L 115.783000 173.034000 L 114.607000 172.422000 L 113.430000 171.811000 L 112.260000 171.188000 L 111.089000 170.566000 L 109.920000 169.942000 L 108.750000 169.319000 L 107.589000 168.678000 L 106.428000 168.038000 L 105.312000 167.323000 L 104.195000 166.608000 L 103.115000 165.840000 L 102.035000 165.071000 L 100.964000 164.290000 L 99.892400 163.510000 L 98.820900 162.729000 L 97.749500 161.948000 L 96.678000 161.168000 L 95.606600 160.387000 L 94.561500 159.571000 L 93.516900 158.755000 L 92.530300 157.870000 L 91.544200 156.984000 L 90.597000 156.056000 L 89.649900 155.129000" fill="none" id="19" stroke="#fdb968" stroke-width="0.5" /><path d="M 87.543000 155.125000 L 89.465400 153.095000 L 91.386200 151.063000 L 93.304800 149.029000 L 95.221200 146.993000 L 97.135700 144.956000 L 99.050100 142.918000 L 101.089000 141.007000 L 103.309000 139.325000 L 105.715000 137.909000 L 108.251000 136.731000 L 110.826000 135.640000 L 113.400000 134.550000 L 115.974000 133.459000 L 118.549000 132.368000 L 121.123000 131.277000 L 123.697000 130.186000 L 126.272000 129.095000 L 128.862000 128.043000 L 131.492000 127.103000 L 134.194000 126.387000 L 136.977000 126.117000 L 139.769000 126.092000 L 142.560000 126.238000 L 145.344000 126.493000 L 148.123000 126.798000 L 150.903000 127.103000 L 153.682000 127.408000 L 156.461000 127.714000 L 159.240000 128.019000 L 162.020000 128.324000" fill="none" id="20" stroke="#6f73bc" stroke-width="0.5" /><path d="M 0.250000 359.090000 L 4.044170 362.284000 L 7.838340 365.478000 L 11.632500 368.671000 L 15.426700 371.865000 L 19.220800 375.059000 L 23.015000 378.253000 L 26.809200 381.447000 L 30.603300 384.641000 L 34.397500 387.834000 L 38.191700 391.028000 L 41.985800 394.222000 L 45.780000 397.416000 L 49.574200 400.610000 L 53.368300 403.804000 L 57.164900 406.995000 L 60.988700 410.153000 L 64.823000 413.299000 L 68.658100 416.443000 L 72.493100 419.588000 L 76.328200 422.732000 L 80.188500 425.846000 L 84.106300 428.887000 L 88.045700 431.900000 L 91.985200 434.913000 L 95.924700 437.925000 L 99.864200 440.938000 L 103.804000 443.951000 L 107.842000 446.829000 L 111.974000 449.572000 L 116.127000 452.284000 L 120.279000 454.996000 L 124.432000 457.707000 L 128.584000 460.419000 L 132.736000 463.131000 L 136.889000 465.843000 L 141.041000 468.555000 L 145.194000 471.267000 L 149.346000 473.978000 L 153.498000 476.690000 L 157.651000 479.402000 L 161.803000 482.114000 L 165.956000 484.826000 L 170.108000 487.537000 L 174.260000 490.249000 L 178.413000 492.961000 L 182.565000 495.673000 L 186.718000 498.385000 L 190.870000 501.097000 L 195.022000 503.808000 L 199.175000 506.520000 L 203.327000 509.232000 L 207.480000 511.944000 L 211.632000 514.656000 L 215.784000 517.367000 L 219.937000 520.079000 L 224.089000 522.791000 L 228.242000 525.503000 L 232.394000 528.215000 L 236.546000 530.927000 L 240.699000 533.638000 L 244.851000 536.350000 L 249.004000 539.062000 L 253.156000 541.774000 L 257.308000 544.486000 L 261.461000 547.197000 L 265.613000 549.909000 L 269.766000 552.621000" fill="none" id="21" stroke="#bee481" stroke-width="0.5" /><path d="M 248.602000 540.699000 L 251.234000 542.522000 L 253.959000 544.200000 L 256.810000 545.651000 L 259.736000 546.946000 L 262.686000 548.191000 L 265.637000 549.432000 L 268.588000 550.673000 L 271.539000 551.915000 L 274.493000 553.148000 L 277.472000 554.321000 L 280.517000 555.309000 L 283.607000 556.144000 L 286.721000 556.886000 L 289.879000 557.384000 L 293.064000 557.414000 L 296.233000 556.994000 L 299.373000 556.372000 L 302.513000 555.750000 L 305.654000 555.128000 L 308.794000 554.506000 L 311.934000 553.884000 L 315.055000 553.172000 L 318.076000 552.127000 L 320.912000 550.662000 L 323.593000 548.919000 L 326.215000 547.082000 L 328.837000 545.245000 L 331.459000 543.408000 L 334.081000 541.571000 L 336.703000 539.734000" fill="none" id="22" stroke="#bee481" stroke-width="0.5" /><path d="M 90.218800 426.703000 L 91.888400 428.024000 L 93.558100 429.345000 L 95.227700 430.665000 L 96.897400 431.986000 L 98.567100 433.307000 L 100.236700 434.627000 L 101.906000 435.948000 L 103.576000 437.269000 L 105.246000 438.589000 L 106.915000 439.910000 L 108.585000 441.231000 L 110.255000 442.552000 L 111.924000 443.872000 L 113.594000 445.193000 L 115.264000 446.514000 L 116.933000 447.834000 L 118.603000 449.155000 L 120.273000 450.476000 L 121.942000 451.796000 L 123.612000 453.117000 L 125.282000 454.438000 L 126.951000 455.759000 L 128.621000 457.079000 L 130.291000 458.400000 L 131.960000 459.721000 L 133.630000 461.041000 L 135.300000 462.362000 L 136.969000 463.683000 L 138.639000 465.004000 L 140.309000 466.324000" fill="none" id="23" stroke="#8f6aaf" stroke-width="0.5" /><path d="M 328.488000 587.762000 L 328.591000 586.172000 L 328.694000 584.582000 L 328.797000 582.992000 L 328.900000 581.401000 L 329.003000 579.811000 L 329.106000 578.221000 L 329.209000 576.631000 L 329.312000 575.041000 L 329.414000 573.451000 L 329.517000 571.861000 L 329.620000 570.271000 L 329.723000 568.681000 L 329.826000 567.091000 L 329.929000 565.501000 L 330.032000 563.911000 L 330.135000 562.321000 L 330.238000 560.731000 L 330.341000 559.140000 L 330.444000 557.550000 L 330.547000 555.960000 L 330.649000 554.370000 L 330.752000 552.780000 L 330.855000 551.190000 L 330.958000 549.600000 L 331.062000 548.010000 L 331.166000 546.420000 L 331.270000 544.830000 L 331.374000 543.240000 L 331.478000 541.650000 L 331.583000 540.060000" fill="none" id="24" stroke="#8bb658" stroke-width="0.5" /><path d="M 331.583000 540.060000 L 331.607000 542.086000 L 331.631000 544.111000 L 331.651000 546.137000 L 331.670000 548.162000 L 331.689000 550.188000 L 331.698000 552.214000 L 331.703000 554.239000 L 331.646000 556.264000 L 331.578000 558.288000 L 331.480000 560.312000 L 331.380000 562.335000 L 331.276000 564.358000 L 331.173000 566.381000 L 331.069000 568.404000 L 330.965000 570.427000 L 330.860000 572.450000 L 330.746000 574.472000 L 330.621000 576.494000 L 330.476000 578.515000 L 330.305000 580.533000 L 330.116000 582.550000 L 329.907000 584.565000 L 329.693000 586.579000 L 329.480000 588.593000 L 329.266000 590.608000 L 329.053000 592.622000 L 328.839000 594.637000 L 328.626000 596.651000 L 328.413000 598.665000 L 328.199000 600.680000" fill="none" id="25" stroke="#8bb658" stroke-width="0.5" /><path d="M 328.617000 546.918000 L 328.935000 548.237000 L 329.252000 549.556000 L 329.538000 550.882000 L 329.823000 552.208000 L 330.074000 553.541000 L 330.324000 554.874000 L 330.516000 556.217000 L 330.707000 557.560000 L 330.798000 558.913000 L 330.886000 560.267000 L 330.903000 561.623000 L 330.917000 562.980000 L 330.919000 564.336000 L 330.920000 565.693000 L 330.854000 567.047000 L 330.784000 568.402000 L 330.583000 569.743000 L 330.374000 571.084000 L 329.960000 572.374000 L 329.535000 573.663000 L 328.915000 574.868000 L 328.282000 576.068000 L 327.610000 577.246000 L 326.935000 578.423000 L 326.184000 579.552000 L 325.426000 580.677000 L 324.551000 581.713000 L 323.670000 582.744000 L 322.715000 583.707000 L 321.758000 584.669000" fill="none" id="26" stroke="#8bb658" stroke-width="0.5" /><path d="M 244.094000 552.008000 L 244.020000 551.304000 L 243.947000 550.600000 L 243.874000 549.896000 L 243.800000 549.193000 L 243.727000 548.489000 L 243.653000 547.785000 L 243.580000 547.081000 L 243.506000 546.378000 L 243.433000 545.674000 L 243.360000 544.970000 L 243.286000 544.266000 L 243.213000 543.562000 L 243.141000 542.858000 L 243.069000 542.154000 L 242.998000 541.450000 L 242.928000 540.746000 L 242.863000 540.042000 L 242.798000 539.337000 L 242.742000 538.632000 L 242.685000 537.926000 L 242.639000 537.220000 L 242.593000 536.514000 L 242.575000 535.807000 L 242.556000 535.099000 L 242.551000 534.392000 L 242.546000 533.684000 L 242.589000 532.978000 L 242.631000 532.272000 L 242.771000 530.863000" fill="none" id="27" stroke="#bbabff" stroke-width="0.5" /><path d="M 242.771000 530.863000 L 243.030000 532.442000 L 243.290000 534.021000 L 243.529000 535.603000 L 243.764000 537.186000 L 243.974000 538.772000 L 244.174000 540.360000 L 244.359000 541.949000 L 244.535000 543.540000 L 244.710000 545.130000 L 244.886000 546.721000 L 245.061000 548.311000 L 245.235000 549.902000 L 245.408000 551.492000 L 245.576000 553.084000 L 245.745000 554.675000 L 245.868000 556.270000 L 245.992000 557.866000 L 246.115000 559.461000 L 246.239000 561.056000 L 246.362000 562.652000 L 246.486000 564.247000 L 246.609000 565.842000 L 246.732000 567.438000 L 246.876000 569.031000 L 247.047000 570.622000 L 247.238000 572.211000 L 247.481000 573.792000 L 247.731000 575.373000 L 248.022000 576.946000 L 248.313000 578.520000" fill="none" id="28" stroke="#bbabff" stroke-width="0.5" /><path d="M 247.863000 542.215000 L 247.893000 544.307000 L 247.949000 546.398000 L 248.203000 548.476000 L 248.502000 550.545000 L 248.957000 552.588000 L 249.581000 554.571000 L 250.518000 556.442000 L 251.610000 558.217000 L 252.868000 559.889000 L 254.127000 561.562000 L 255.385000 563.234000 L 256.643000 564.906000 L 257.901000 566.579000 L 259.159000 568.251000 L 260.418000 569.923000 L 261.676000 571.596000 L 262.971000 573.227000 L 264.765000 574.305000 L 266.592000 575.313000 L 268.564000 576.014000 L 270.574000 576.544000 L 272.656000 576.757000 L 274.738000 576.969000 L 276.820000 577.182000 L 278.907000 577.323000 L 280.998000 577.412000 L 283.070000 577.198000 L 285.135000 576.854000 L 287.151000 576.301000 L 289.160000 575.715000" fill="none" id="29" stroke="#658424" stroke-width="0.5" /><path d="M 257.848000 573.492000 L 260.059000 574.903000 L 262.303000 576.260000 L 264.581000 577.560000 L 266.895000 578.794000 L 269.285000 579.874000 L 271.699000 580.901000 L 274.126000 581.896000 L 276.556000 582.884000 L 278.986000 583.871000 L 281.416000 584.859000 L 283.853000 585.826000 L 286.370000 586.565000 L 288.953000 586.967000 L 291.567000 587.141000 L 294.190000 587.143000 L 296.813000 587.104000 L 299.436000 587.065000 L 302.059000 587.026000 L 304.681000 586.986000 L 307.304000 586.947000 L 309.927000 586.905000 L 312.548000 586.830000 L 315.162000 586.613000 L 317.685000 585.929000 L 320.134000 585.004000 L 322.517000 583.908000 L 324.878000 582.765000 L 327.235000 581.615000 L 329.589000 580.458000 L 331.938000 579.289000" fill="none" id="30" stroke="#f1b9ff" stroke-width="0.5" /><path d="M 321.758000 584.669000 L 320.663000 584.479000 L 319.569000 584.279000 L 318.490000 584.013000 L 317.421000 583.712000 L 316.381000 583.319000 L 315.348000 582.909000 L 314.324000 582.476000 L 313.301000 582.040000 L 312.278000 581.603000 L 311.257000 581.163000 L 310.237000 580.720000 L 309.221000 580.270000 L 308.205000 579.817000 L 307.193000 579.357000 L 306.181000 578.895000 L 305.201000 578.372000 L 304.222000 577.844000 L 303.257000 577.293000 L 302.297000 576.731000 L 301.355000 576.140000 L 300.415000 575.546000 L 299.480000 574.945000 L 298.547000 574.340000 L 297.617000 573.730000 L 296.695000 573.109000 L 295.778000 572.480000 L 294.862000 571.851000 L 293.946000 571.220000 L 293.033000 570.585000 L 292.121000 569.949000" fill="none" id="31" stroke="#989c37" stroke-width="0.5" /><path d="M 68.410200 413.465000 L 68.492400 415.545000 L 68.648400 417.619000 L 68.939600 419.680000 L 69.452400 421.693000 L 70.064200 423.682000 L 70.854500 425.608000 L 71.647000 427.533000 L 72.443400 429.457000 L 73.239800 431.380000 L 74.036100 433.304000 L 74.832500 435.227000 L 75.644600 437.144000 L 76.484200 439.049000 L 77.482800 440.872000 L 78.562700 442.650000 L 79.993400 444.163000 L 81.493900 445.599000 L 83.116300 446.904000 L 84.738800 448.208000 L 86.361200 449.513000 L 87.983700 450.818000 L 89.606100 452.122000 L 91.228600 453.427000 L 92.939300 454.608000 L 94.700400 455.711000 L 96.764900 455.979000 L 98.816300 455.988000 L 100.843000 455.514000 L 102.729000 454.672000 L 104.551000 453.664000" fill="none" id="32" stroke="#bb568c" stroke-width="0.5" /><path d="M 62.707000 411.016000 L 63.042800 412.892000 L 63.377300 414.769000 L 63.707600 416.647000 L 64.033900 418.526000 L 64.355700 420.405000 L 64.674200 422.285000 L 64.991200 424.165000 L 65.296100 426.047000 L 65.600000 427.929000 L 65.902500 429.812000 L 66.205100 431.694000 L 66.507600 433.577000 L 66.810200 435.459000 L 67.112700 437.342000 L 67.413100 439.224000 L 67.708400 441.108000 L 67.968700 442.997000 L 68.201900 444.889000 L 68.385800 446.786000 L 68.540800 448.687000 L 68.675800 450.588000 L 68.807800 452.490000 L 68.939300 454.392000 L 69.070700 456.295000 L 69.202200 458.197000 L 69.333600 460.099000 L 69.465000 462.001000 L 69.596500 463.903000 L 69.727900 465.805000 L 69.859400 467.707000" fill="none" id="33" stroke="#cfe395" stroke-width="0.5" /><path d="M 61.775500 372.879000 L 62.187400 376.094000 L 62.610700 379.308000 L 63.048500 382.520000 L 63.501600 385.730000 L 63.960400 388.939000 L 64.419200 392.148000 L 64.878000 395.357000 L 65.335800 398.566000 L 65.786400 401.776000 L 66.207500 404.990000 L 66.553500 408.213000 L 66.860000 411.440000 L 67.106200 414.672000 L 67.302600 417.907000 L 67.479700 421.144000 L 67.654900 424.381000 L 67.830200 427.618000 L 68.005500 430.855000 L 68.180700 434.092000 L 68.356000 437.328000 L 68.531200 440.565000 L 68.706500 443.802000 L 68.881700 447.039000 L 69.057000 450.276000 L 69.232300 453.512000 L 69.407000 456.749000 L 69.573600 459.987000 L 69.709900 463.225000 L 69.787100 466.466000 L 69.828100 469.707000" fill="none" id="34" stroke="#cfe395" stroke-width="0.5" /><path d="M 57.484700 381.715000 L 57.172300 381.010000 L 56.861800 380.305000 L 56.571000 379.590000 L 56.281900 378.876000 L 56.019500 378.151000 L 55.757200 377.426000 L 55.525700 376.690000 L 55.294300 375.955000 L 55.098100 375.209000 L 54.901900 374.464000 L 54.719900 373.714000 L 54.538000 372.965000 L 54.368200 372.213000 L 54.198500 371.461000 L 54.037900 370.707000 L 53.877300 369.953000 L 53.719600 369.198000 L 53.562000 368.443000 L 53.408400 367.688000 L 53.254700 366.932000 L 53.101300 366.176000 L 52.947900 365.421000 L 52.795000 364.665000 L 52.642200 363.909000 L 52.485400 363.155000 L 52.328500 362.400000 L 52.157600 361.648000 L 51.986700 360.896000 L 51.628900 359.396000" fill="none" id="35" stroke="#008c6f" stroke-width="0.5" /><path d="M 51.628900 359.396000 L 51.861600 361.941000 L 52.122100 364.483000 L 52.415700 367.021000 L 52.754500 369.554000 L 53.137700 372.081000 L 53.525300 374.607000 L 53.912800 377.133000 L 54.300300 379.659000 L 54.687900 382.185000 L 55.075400 384.710000 L 55.462800 387.236000 L 55.848700 389.763000 L 56.228700 392.290000 L 56.599700 394.818000 L 56.959000 397.348000 L 57.306300 399.880000 L 57.653600 402.412000 L 57.997100 404.944000 L 58.330400 407.478000 L 58.618500 410.017000 L 58.868900 412.560000 L 59.088700 415.106000 L 59.294700 417.653000 L 59.500800 420.200000 L 59.706800 422.747000 L 59.911200 425.295000 L 60.098900 427.843000 L 60.264200 430.393000 L 60.413900 432.944000 L 60.550800 435.496000" fill="none" id="36" stroke="#008c6f" stroke-width="0.5" /><path d="M 57.554700 405.379000 L 57.441300 407.270000 L 57.376700 409.161000 L 57.462000 411.053000 L 57.699200 412.927000 L 58.086600 414.781000 L 58.606300 416.601000 L 59.172500 418.408000 L 59.749500 420.213000 L 60.326800 422.017000 L 60.904200 423.821000 L 61.481500 425.625000 L 62.058800 427.429000 L 62.651300 429.228000 L 63.251300 431.025000 L 63.949900 432.786000 L 64.688700 434.528000 L 65.621800 436.176000 L 66.614400 437.787000 L 67.709700 439.333000 L 68.804900 440.878000 L 69.900200 442.424000 L 70.995400 443.969000 L 72.090600 445.515000 L 73.185900 447.060000 L 74.300900 448.591000 L 75.464400 450.086000 L 76.708400 451.511000 L 78.026000 452.872000 L 79.409100 454.165000 L 80.812500 455.438000" fill="none" id="37" stroke="#008c6f" stroke-width="0.5" /><path d="M 62.569800 376.247000 L 61.495800 375.243000 L 60.421900 374.239000 L 59.421600 373.162000 L 58.426700 372.080000 L 57.514200 370.928000 L 56.614500 369.766000 L 55.847000 368.514000 L 55.112100 367.241000 L 54.556800 365.885000 L 54.064800 364.500000 L 53.741800 363.071000 L 53.496600 361.621000 L 53.322500 360.163000 L 53.193000 358.698000 L 53.405100 357.276000 L 53.889100 355.888000 L 54.561900 354.600000 L 55.434300 353.417000 L 56.361700 352.279000 L 57.364700 351.204000 L 58.378600 350.140000 L 59.412600 349.095000 L 60.454300 348.058000 L 61.515700 347.041000 L 62.585900 346.034000 L 63.689200 345.062000 L 64.796600 344.095000 L 65.928900 343.158000 L 67.062900 342.222000 L 68.219000 341.314000 L 69.375000 340.406000" fill="none" id="38" stroke="#008c6f" stroke-width="0.5" /><path d="M 517.574000 438.781000 L 517.727000 440.751000 L 517.879000 442.721000 L 518.030000 444.691000 L 518.181000 446.662000 L 518.332000 448.632000 L 518.478000 450.602000 L 518.623000 452.573000 L 518.724000 454.546000 L 518.810000 456.520000 L 518.845000 458.496000 L 518.863000 460.471000 L 518.857000 462.447000 L 518.844000 464.423000 L 518.826000 466.399000 L 518.808000 468.375000 L 518.790000 470.351000 L 518.773000 472.327000 L 518.755000 474.302000 L 518.737000 476.278000 L 518.719000 478.254000 L 518.701000 480.230000 L 518.682000 482.206000 L 518.660000 484.182000 L 518.605000 486.157000 L 518.517000 488.130000 L 518.348000 490.099000 L 518.165000 492.066000 L 517.970000 494.032000 L 517.744000 495.995000 L 517.508000 497.957000" fill="none" id="39" stroke="#ff94af" stroke-width="0.5" /><path d="M 250.570000 502.465000 L 252.784000 504.392000 L 255.004000 506.311000 L 257.227000 508.226000 L 259.463000 510.126000 L 261.751000 511.960000 L 264.178000 513.610000 L 266.883000 514.745000 L 269.712000 515.501000 L 272.591000 516.061000 L 275.485000 516.545000 L 278.382000 517.016000 L 281.278000 517.486000 L 284.175000 517.957000 L 287.072000 518.427000 L 289.968000 518.897000 L 292.865000 519.368000 L 295.765000 519.805000 L 298.685000 520.103000 L 301.610000 519.868000 L 304.422000 519.078000 L 307.089000 517.878000 L 309.649000 516.445000 L 312.159000 514.925000 L 314.662000 513.394000 L 317.165000 511.862000 L 319.668000 510.330000 L 322.171000 508.798000 L 324.674000 507.267000 L 327.177000 505.735000 L 329.680000 504.203000" fill="none" id="40" stroke="#488656" stroke-width="0.5" /><path d="M 515.574000 442.195000 L 517.129000 441.864000 L 518.680000 441.516000 L 520.191000 441.021000 L 521.686000 440.486000 L 523.123000 439.807000 L 524.512000 439.044000 L 525.804000 438.117000 L 527.028000 437.110000 L 528.175000 436.008000 L 529.281000 434.867000 L 530.359000 433.698000 L 531.436000 432.529000 L 532.512000 431.359000 L 533.589000 430.189000 L 534.666000 429.019000 L 535.636000 427.760000 L 536.568000 426.478000 L 537.032000 424.958000 L 537.340000 423.436000 L 536.896000 421.909000 L 536.345000 420.428000 L 535.559000 419.046000 L 534.769000 417.666000 L 533.974000 416.289000 L 533.119000 414.950000 L 532.213000 413.644000 L 531.069000 412.565000 L 529.800000 411.608000 L 528.400000 410.860000 L 526.980000 410.145000" fill="none" id="41" stroke="#ffc0e1" stroke-width="0.5" /><path d="M 493.316000 471.930000 L 494.756000 471.928000 L 496.195000 471.927000 L 497.621000 471.741000 L 499.047000 471.543000 L 500.425000 471.138000 L 501.796000 470.700000 L 503.080000 470.061000 L 504.336000 469.358000 L 505.416000 468.435000 L 506.380000 467.367000 L 507.344000 466.298000 L 508.308000 465.229000 L 509.252000 464.144000 L 510.143000 463.013000 L 511.032000 461.882000 L 511.905000 460.738000 L 512.779000 459.594000 L 513.583000 458.400000 L 514.383000 457.204000 L 515.038000 455.926000 L 515.656000 454.626000 L 516.135000 453.273000 L 516.537000 451.891000 L 516.887000 450.496000 L 517.181000 449.087000 L 517.466000 447.677000 L 517.732000 446.262000 L 517.992000 444.847000 L 518.217000 443.425000 L 518.441000 442.004000" fill="none" id="42" stroke="#6c8139" stroke-width="0.5" /><path d="M 511.871000 469.547000 L 513.672000 468.906000 L 515.449000 468.210000 L 517.160000 467.358000 L 518.803000 466.390000 L 520.384000 465.315000 L 521.762000 464.001000 L 523.078000 462.616000 L 524.157000 461.038000 L 525.215000 459.447000 L 526.211000 457.815000 L 527.202000 456.181000 L 528.188000 454.543000 L 529.168000 452.903000 L 530.146000 451.261000 L 531.125000 449.618000 L 532.100000 447.975000 L 533.063000 446.323000 L 533.994000 444.655000 L 534.876000 442.959000 L 535.633000 441.207000 L 536.312000 439.420000 L 536.794000 437.573000 L 537.241000 435.715000 L 537.688000 433.856000 L 538.118000 431.994000 L 538.511000 430.123000 L 538.865000 428.245000 L 539.184000 426.361000 L 539.465000 424.470000 L 539.734000 422.578000" fill="none" id="43" stroke="#a9d0ff" stroke-width="0.5" /><path d="M 519.570000 387.629000 L 520.330000 387.681000 L 521.090000 387.734000 L 521.849000 387.673000 L 522.607000 387.602000 L 523.322000 387.340000 L 524.037000 387.078000 L 524.735000 386.773000 L 525.433000 386.467000 L 526.105000 386.109000 L 526.777000 385.751000 L 527.445000 385.384000 L 528.113000 385.018000 L 528.774000 384.639000 L 529.434000 384.258000 L 530.037000 383.793000 L 530.639000 383.326000 L 531.177000 382.788000 L 531.716000 382.249000 L 532.254000 381.710000 L 532.792000 381.171000 L 533.330000 380.632000 L 533.868000 380.092000 L 534.397000 379.544000 L 534.925000 378.995000 L 535.449000 378.442000 L 535.972000 377.888000 L 536.480000 377.321000 L 536.988000 376.753000 L 537.487000 376.177000 L 537.985000 375.601000" fill="none" id="44" stroke="#a98c2c" stroke-width="0.5" /></svg>