<?xml version="1.0" encoding="utf-8" ?>
<svg baseProfile="full" height="620.54239" version="1.1" viewBox="0,0,579.54239,620.54239" width="579.54239" xmlns="http://www.w3.org/2000/svg" xmlns:ev="http://www.w3.org/2001/xml-events" xmlns:xlink="http://www.w3.org/1999/xlink"><defs><style type="text/css"><![CDATA[
	.background { fill: white; }
	.line { stroke: firebrick; stroke-width: .1mm; }
	.blacksquare { fill: indigo; }
	.whitesquare { fill: white; }
]]></style></defs><rect class="background" height="100%" width="100%" x="0" y="0" /><path d="M 7.767255 115.430208 L 9.947853 118.783563 L 12.128450 122.136919 L 14.309048 125.490274 L 16.489646 128.843630 L 18.670244 132.196985 L 20.850841 135.550341 L 23.044584 138.894849 L 25.330545 142.177285 L 27.616505 145.459720 L 29.902465 148.742156 L 32.188425 152.024592 L 34.474386 155.307028 L 36.743706 158.600667 L 38.924924 161.953619 L 41.074540 165.326622 L 43.178989 168.728282 L 45.283439 172.129942 L 47.387889 175.531602 L 49.492339 178.933262 L 51.596788 182.334923 L 53.723571 185.722573 L 55.870169 189.097794 L 58.016767 192.473015 L 60.163365 195.848236 L 62.309964 199.223457 L 64.456562 202.598678 L 66.603160 205.973899 L 68.749758 209.349120 L 70.896356 212.724341 L 73.042954 216.099562 L 75.110879 219.523482 L 77.174549 222.950035 L 79.238219 226.376587 L 81.301889 229.803140 L 83.365560 233.229693 L 85.409309 236.668072 L 87.429131 240.120653 L 89.448954 243.573234 L 91.468776 247.025816 L 93.488598 250.478397 L 95.508421 253.930978 L 97.456713 257.424009 L 99.374397 260.934350 L 101.292080 264.444690 L 103.131380 267.996440 L 104.950253 271.558981 L 106.769127 275.121523 L 108.588000 278.684064 L 110.406873 282.246605 L 112.225746 285.809146 L 114.044619 289.371688 L 115.863492 292.934229 L 117.682365 296.496770 L 119.537739 300.040375 L 121.402885 303.578910 L 123.268031 307.117446 L 125.133177 310.655981 L 126.998322 314.194516 L 128.863468 317.733051 L 130.728614 321.271586 L 132.593760 324.810122 L 134.458905 328.348657 L 136.324051 331.887192 L 138.189197 335.425727 L 140.054343 338.964262 L 141.919488 342.502797 L 143.784634 346.041333 L 145.649780 349.579868 L 147.514926 353.118403 L 149.380071 356.656938 L 151.245217 360.195473 L 153.110363 363.734009 L 154.975509 367.272544 L 156.840654 370.811079 L 158.705800 374.349614 L 160.570946 377.888149 L 162.348258 381.471547 L 164.121726 385.056907 L 165.895194 388.642268 L 167.668662 392.227629 L 169.442130 395.812989 L 171.215599 399.398350 L 172.989067 402.983710 L 174.762535 406.569071 L 176.536003 410.154432 L 178.309471 413.739792 L 180.082939 417.325153 L 181.856408 420.910514 L 183.629876 424.495874 L 185.403344 428.081235 L 187.176812 431.666595 L 188.950280 435.251956 L 188.995605 435.343588" fill="none" id="1" stroke="black" stroke-width="0.54239" /><path d="M 91.294815 167.564068 L 95.129700 168.701460 L 98.950491 169.881731 L 102.712404 171.241146 L 106.441787 172.682451 L 110.111079 174.275028 L 113.722880 175.988712 L 117.276528 177.824899 L 120.830176 179.661087 L 124.383824 181.497275 L 127.858013 183.476087 L 131.289525 185.531500 L 134.721037 187.586913 L 138.152550 189.642326 L 141.487558 191.846027 L 144.756522 194.151211 L 148.025487 196.456395 L 151.294451 198.761578 L 154.507043 201.141945 L 157.635961 203.633907 L 160.711594 206.188107 L 163.655908 208.895691 L 166.574460 211.629717 L 169.357642 214.502676 L 172.129308 217.386031 L 174.703114 220.447978 L 177.276921 223.509925 L 179.709765 226.684615 L 182.131302 229.868348 L 184.451575 233.125887 L 186.741022 236.405891 L 189.030470 239.685896 L 191.319917 242.965900 L 193.551320 246.284141 L 195.661122 249.682484 L 197.752358 253.091665 L 199.674197 256.599732 L 201.596036 260.107800 L 203.335498 263.708911 L 205.047692 267.323934 L 206.621426 270.999888 L 208.130273 274.704396 L 209.543396 278.444878 L 210.847810 282.226215 L 212.101966 286.023734 L 213.248963 289.855756 L 214.354041 293.699125 L 215.296443 297.586525 L 216.218466 301.478443 L 217.007393 305.399871 L 217.778505 309.324451 L 218.383239 313.278474 L 218.972038 317.234436 L 219.333473 321.218073 L 219.684460 325.202434 L 219.875286 329.197879 L 220.050725 333.193692 L 220.050725 337.193692 L 220.025841 341.193212 L 219.871612 345.190238 L 219.612128 349.178889 L 219.132397 353.150017 L 218.538556 357.104318 L 217.851627 361.044893 L 216.971589 364.946035 L 216.001992 368.824946 L 214.803579 372.641202 L 213.467884 376.409696 L 212.022084 380.138457 L 210.273851 383.736189 L 208.356132 387.242608 L 206.248529 390.638466 L 203.860841 393.847663 L 201.199229 396.830014 L 198.302659 399.579247 L 195.163934 402.045735 L 191.784153 404.180190 L 188.214415 405.984898 L 184.423731 407.252916 L 180.545680 408.218495 L 176.598724 408.829889 L 172.612434 409.035387 L 168.613560 408.940477 L 164.614687 408.845568 L 160.676823 408.160128 L 156.772546 407.298853 L 152.903874 406.288594 L 149.110751 405.018863 L 145.377661 403.587107 L 141.690724 402.038465 L 138.078962 400.319404 L 134.467199 398.600342 L 130.857873 396.876634 L 127.389319 394.884365 L 123.920765 392.892096 L 120.452212 390.899827 L 117.109526 388.707827 L 113.828560 386.421010 L 110.704864 383.922507 L 107.581167 381.424003 L 104.457471 378.925499 L 101.398262 376.349818 L 98.384337 373.719940 L 95.370413 371.090061 L 92.356489 368.460183 L 89.413108 365.752049 L 86.485746 363.026145 L 83.649213 360.206185 L 80.822793 357.375752 L 78.093247 354.451988 L 75.370043 351.522114 L 72.791405 348.464263 L 70.213419 345.405834 L 67.635433 342.347405 L 65.057447 339.288975 L 62.633113 336.107600 L 60.214550 332.921606 L 57.918258 329.646644 L 55.630850 326.365217 L 53.490873 322.986420 L 51.370880 319.594425 L 49.376904 316.127296 L 47.400932 312.649432 L 45.607912 309.074487 L 43.835565 305.488572 L 42.063218 301.902658 L 40.308363 298.308760 L 38.760997 294.620175 L 37.213632 290.931590 L 35.666266 287.243005 L 34.184555 283.529030 L 32.847522 279.759104 L 31.593900 275.961860 L 30.441746 272.131384 L 29.436427 268.261611 L 28.521253 264.367711 L 27.779709 260.437867 L 27.091855 256.497884 L 26.587091 252.529861 L 26.216511 248.550405 L 26.042758 244.554180 L 26.003475 240.555034 L 26.044151 236.556363 L 26.305229 232.564892 L 26.849294 228.609281 L 27.612987 224.683768 L 28.699207 220.834076 L 30.025759 217.066591 L 31.561200 213.374036 L 33.268832 209.756856 L 35.289035 206.308804 L 37.476736 202.962072 L 39.835580 199.736169 L 42.450225 196.709020 L 45.406140 194.015048 L 48.534278 191.526402 L 51.855586 189.309411 L 55.326919 187.324499 L 58.878277 185.484373 L 62.639845 184.124001 L 66.401412 182.763630 L 70.215232 181.576429 L 74.109497 180.669454 L 78.061429 180.051207 L 82.043383 179.691296 L 86.037461 179.566772 L 90.037121 179.618941 L 94.036781 179.671109 L 97.998146 180.173667 L 101.930010 180.898932 L 105.825580 181.799938 L 109.638051 183.010338 L 113.384078 184.408550 L 117.072755 185.950853 L 120.698446 187.640337 L 124.249511 189.480667 L 127.753099 191.407379 L 131.179131 193.471913 L 134.511239 195.682517 L 137.801199 197.957005 L 140.994342 200.366120 L 144.136537 202.839568 L 147.213193 205.395774 L 150.172658 208.084612 L 153.088288 210.823061 L 156.003918 213.561509 L 158.869142 216.349428 L 161.552454 219.315881 L 164.159347 222.347314 L 166.655981 225.472505 L 169.043716 228.679874 L 171.364130 231.938045 L 173.541687 235.292358 L 175.680606 238.672272 L 177.665163 242.145244 L 179.649721 245.618215 L 181.634278 249.091187 L 183.553694 252.599487 L 185.382111 256.157140 L 187.150932 259.744369 L 188.878552 263.352045 L 190.478395 267.017193 L 192.031385 270.703413 L 193.402735 274.460342 L 194.747277 278.227494 L 195.890706 282.060583 L 196.994734 285.904333 L 197.940143 289.791003 L 198.816681 293.692826 L 199.589903 297.617380 L 200.257490 301.560487 L 200.867804 305.513653 L 201.288298 309.491223 L 201.641748 313.474408 L 201.829996 317.469975 L 201.892443 321.468056 L 201.863923 325.467955 L 201.835403 329.467853 L 201.688219 333.460294 L 201.215711 337.432288 L 200.583373 341.380342 L 199.847227 345.311446 L 198.932256 349.205394 L 197.875831 353.061799 L 196.675430 356.874990 L 195.215082 360.598884 L 193.563245 364.240351 L 191.712554 367.780989 L 189.641686 371.202521 L 187.389467 374.508200 L 184.937600 377.666040 L 182.315406 380.683159 L 179.520554 383.541312 L 176.528877 386.189988 L 173.272896 388.510797 L 169.788828 390.475809 L 166.069860 391.941456 L 162.238108 393.076146 L 158.324486 393.868484 L 154.357329 394.359448 L 150.365704 394.618166 L 146.365737 394.619188 L 142.373191 394.416630 L 138.397617 394.008066 L 134.450554 393.359462 L 130.564612 392.416225 L 126.709470 391.355669 L 122.894449 390.153330 L 119.172431 388.693668 L 115.493467 387.126978 L 111.890800 385.388937 L 108.346211 383.538031 L 104.837827 381.616772 L 101.402591 379.568050 L 97.973779 377.508137 L 94.544966 375.448224 L 91.139931 373.350264 L 87.785777 371.170895 L 84.468897 368.936560 L 81.203136 366.626840 L 77.970877 364.271006 L 74.764906 361.878988 L 71.623046 359.404478 L 68.513591 356.888273 L 65.485714 354.275546 L 62.486542 351.628857 L 59.487369 348.982167 L 56.488197 346.335478 L 53.638450 343.529743 L 50.810023 340.701316 L 48.108082 337.752167 L 45.414565 334.794978 L 42.873838 331.705550 L 40.333653 328.615654 L 37.793468 325.525758 L 35.256329 322.433442 L 32.822103 319.259400 L 30.390214 316.083593 L 28.003600 312.873597 L 25.627482 309.656168 L 23.391762 306.339308 L 21.180589 303.006818 L 19.120762 299.577954 L 17.104191 296.124498 L 15.211502 292.600619 L 13.397115 289.037686 L 11.720883 285.405848 L 10.117795 281.742001 L 8.587398 278.046343 L 7.190086 274.299940 L 5.871358 270.523572 L 4.733574 266.690054 L 3.643976 262.841317 L 2.770055 258.937967 L 1.952646 255.023763 L 1.322135 251.073768 L 0.830201 247.106295 L 0.460134 243.123450 L 0.335072 239.126950 L 0.271195 235.127547 L 0.271195 231.127547 L 0.482629 227.138915 L 0.911513 223.161974 L 1.671934 219.236924 L 2.566578 215.340531 L 3.651673 211.490522 L 5.073318 207.755747 L 6.683652 204.097625 L 8.485843 200.526615 L 10.629060 197.150593 L 12.950446 193.897609 L 15.458867 190.786500 L 18.228017 187.900013 L 21.222661 185.251682 L 24.388733 182.816660 L 27.719064 180.607003 L 31.259235 178.744964 L 34.882960 177.054526 L 38.604805 175.605920 L 42.424976 174.424582 L 46.314187 173.489678 L 50.268424 172.900879 L 54.250083 172.561573 L 58.246494 172.406588 L 62.246494 172.406588 L 66.235548 172.657817 L 70.211296 173.077189 L 74.156303 173.738190 L 78.058739 174.606627 L 81.935905 175.587315 L 85.770493 176.725706 L 89.552722 178.020610 L 93.300403 179.418782 L 96.965948 181.019401 L 100.591487 182.704301 L 104.132493 184.564752 L 107.597674 186.559539 L 111.020317 188.629687 L 114.342150 190.857410 L 117.633527 193.129119 L 120.833526 195.529121 L 124.033525 197.929122 L 127.233524 200.329123 L 130.358498 202.823429 L 133.416428 205.402006 L 136.402490 208.062132 L 139.344992 210.771686 L 142.203940 213.568125 L 145.026381 216.402525 L 147.713212 219.363540 L 150.347504 222.373606 L 152.981797 225.383673 L 155.616089 228.393740 L 158.145702 231.490728 L 160.620341 234.633365 L 163.002404 237.845240 L 165.317725 241.107032 L 167.525916 244.440388 L 169.652556 247.828219 L 171.779196 251.216051 L 173.905836 254.603882 L 175.910929 258.063336 L 177.844103 261.565170 L 179.743180 265.085522 L 181.628040 268.613595 L 183.417285 272.190573 L 185.174774 275.783794 L 186.932263 279.377014 L 188.689752 282.970235 L 190.328020 286.618856 L 191.941168 290.279150 L 193.554317 293.939444 L 195.167465 297.599738 L 196.550218 301.352964 L 197.928181 305.108124 L 199.306143 308.863283 L 200.624060 312.638691 L 201.801641 316.461426 L 202.849582 320.319445 L 203.771786 324.211686 L 204.693990 328.103927 L 205.606737 331.997914 L 206.135391 335.962826 L 206.664046 339.927738 L 207.192700 343.892650 L 207.474715 347.881509 L 207.615175 351.877378 L 207.627270 355.877360 L 207.639365 359.877341 L 207.329793 363.862906 L 206.667399 367.801702 L 205.648356 371.664177 L 204.319456 375.434175 L 202.672433 379.071567 L 200.643277 382.516268 L 198.333516 385.774954 L 195.642363 388.726492 L 192.637829 391.362889 L 189.391940 393.688180 L 185.891026 395.618734 L 182.244849 397.251288 L 179.294815 398.256978" fill="none" id="2" stroke="black" stroke-width="0.54239" /><path d="M 161.468045 399.981388 L 157.503031 399.453502 L 153.576064 398.709319 L 149.692629 397.762457 L 145.870460 396.583042 L 142.112618 395.215230 L 138.413006 393.703156 L 134.802057 391.982387 L 131.191108 390.261618 L 127.592516 388.517289 L 124.124093 386.524793 L 120.703979 384.453819 L 117.362848 382.254536 L 114.103621 379.938445 L 110.897359 377.546817 L 107.800716 375.016407 L 104.731513 372.451258 L 101.662310 369.886108 L 98.593107 367.320958 L 95.614294 364.651598 L 92.641119 361.975737 L 89.749736 359.211901 L 86.864646 356.441294 L 84.085986 353.564572 L 81.323898 350.671327 L 78.680929 347.669797 L 76.063380 344.645158 L 73.555561 341.529991 L 71.083445 338.385371 L 68.611328 335.240750 L 66.139211 332.096130 L 63.754167 328.886397 L 61.436742 325.626099 L 59.166999 322.332972 L 56.948199 319.004770 L 54.795215 315.634770 L 52.726211 312.211435 L 50.771580 308.724590 L 48.959489 305.158594 L 47.147398 301.592598 L 45.335307 298.026602 L 43.677320 294.388484 L 42.100105 290.712563 L 40.608781 287.001259 L 39.139071 283.281050 L 37.907223 279.476253 L 36.698012 275.663405 L 35.488800 271.850557 L 34.336809 268.021721 L 33.394408 264.134321 L 32.560709 260.224436 L 31.883618 256.282159 L 31.315555 252.323557 L 30.808268 248.355855 L 30.594509 244.362730 L 30.454097 240.366221 L 30.508607 236.366592 L 30.563118 232.366964 L 30.617628 228.367335 L 31.000045 224.391189 L 31.516444 220.424679 L 32.329993 216.508285 L 33.252228 212.619232 L 34.388581 208.784039 L 35.648747 204.988555 L 37.014088 201.231146 L 38.638643 197.575900 L 40.367613 193.969614 L 42.235598 190.436832 L 44.341013 187.035769 L 46.714702 183.817465 L 49.289141 180.762345 L 52.084613 177.910712 L 55.151645 175.342967 L 58.459693 173.096819 L 61.948973 171.157561 L 65.579546 169.485948 L 69.309418 168.044417 L 73.188540 167.068498 L 77.125283 166.379582 L 81.100489 165.987181 L 85.097131 165.845927 L 89.096984 165.880208 L 93.065233 166.337736 L 96.993294 167.065134 L 100.875165 168.030057 L 104.651309 169.349077 L 108.344109 170.876380 L 111.954494 172.592518 L 115.432110 174.568926 L 118.832877 176.672887 L 122.185104 178.853762 L 125.439391 181.179619 L 128.625268 183.595945 L 131.749653 186.093587 L 134.756824 188.730021 L 137.724722 191.410785 L 140.555403 194.236956 L 143.343847 197.103771 L 146.059136 200.040981 L 148.708082 203.037114 L 151.304157 206.080204 L 153.786454 209.215495 L 156.225497 212.385837 L 158.664540 215.556179 L 161.103583 218.726521 L 163.323844 222.052574 L 165.520395 225.395501 L 167.570611 228.829833 L 169.611122 232.270228 L 171.504248 235.793644 L 173.389066 239.321740 L 175.125943 242.924802 L 176.856350 246.531143 L 178.586757 250.137483 L 180.316006 253.744352 L 181.907912 257.413935 L 183.499818 261.083517 L 185.091724 264.753100 L 186.683630 268.422682 L 188.152937 272.142982 L 189.618739 275.864732 L 190.999164 279.618876 L 192.371086 283.376247 L 193.600329 287.182222 L 194.807532 290.995706 L 196.014734 294.809191 L 197.221936 298.622675 L 198.219327 302.495845 L 199.200093 306.373743 L 200.180859 310.251642 L 201.109030 314.141431 L 201.891786 318.064095 L 202.558332 322.006373 L 203.106402 325.968648 L 203.654471 329.930922 L 204.202541 333.893197 L 204.424665 337.886884 L 204.643385 341.880900 L 204.862105 345.874916 L 204.932615 349.872987 L 204.914568 353.872700 L 204.787645 357.870686 L 204.354436 361.840840 L 203.700440 365.785493 L 202.846993 369.693386 L 201.808886 373.555325 L 200.566107 377.352493 L 199.094230 381.070982 L 197.422606 384.704944 L 195.396917 388.148942 L 193.124727 391.436283 L 190.621715 394.551046 L 187.879661 397.459051 L 184.901885 400.128961 L 181.754132 402.597088 L 178.339413 404.678018 L 174.741309 406.420454 L 170.944676 407.657111 L 167.036034 408.476214 L 163.069905 408.953496 L 159.076757 409.170368 L 155.076757 409.170368 L 151.098000 408.809006 L 147.150130 408.195775 L 143.246003 407.325264 L 139.401442 406.224932 L 135.593670 405.006842 L 131.848352 403.602350 L 128.160570 402.057839 L 124.509833 400.423179 L 120.951621 398.597623 L 117.424139 396.714167 L 114.030668 394.596537 L 110.637198 392.478906 L 107.243727 390.361276 L 103.949928 388.097984 L 100.746982 385.701917 L 97.544035 383.305851 L 94.341089 380.909784 L 91.230238 378.397383 L 88.163074 375.829795 L 85.204370 373.140657 L 82.305351 370.384629 L 79.406331 367.628602 L 76.507312 364.872574 L 73.717824 362.008219 L 70.993994 359.078928 L 68.270163 356.149637 L 65.546333 353.220345 L 62.903226 350.219304 L 60.313657 347.170675 L 57.812993 344.050137 L 55.372996 340.880530 L 53.036354 337.635526 L 50.763210 334.344201 L 48.618860 330.969649 L 46.552044 327.544992 L 44.590416 324.060111 L 42.683366 320.543983 L 40.828366 317.000352 L 38.998254 313.443572 L 37.274027 309.835107 L 35.595749 306.204214 L 33.917470 302.573322 L 32.239191 298.942429 L 30.712786 295.246082 L 29.225816 291.532738 L 27.906036 287.757387 L 26.612045 283.972471 L 25.481455 280.135913 L 24.365305 276.294793 L 23.414462 272.409449 L 22.480741 268.520414 L 21.746105 264.588454 L 21.048864 260.650453 L 20.508216 256.687159 L 20.050386 252.714831 L 19.723834 248.728183 L 19.572862 244.733108 L 19.516135 240.733511 L 19.515295 236.733517 L 19.630625 232.738204 L 19.955245 228.751398 L 20.573766 224.802236 L 21.379171 220.888323 L 22.454843 217.035670 L 23.823705 213.279191 L 25.426750 209.620063 L 27.282188 206.080923 L 29.484209 202.741596 L 31.887831 199.545820 L 34.569270 196.590688 L 37.426123 193.790975 L 40.316504 191.030012 L 43.497786 188.605255 L 46.865671 186.450390 L 50.389818 184.568314 L 54.047294 182.963616 L 57.818402 181.631057 L 61.677854 180.580042 L 65.592174 179.776716 L 69.543614 179.168239 L 73.525371 178.786652 L 77.521651 178.674958 L 81.521306 178.662805 L 85.520842 178.723712 L 89.491538 179.162327 L 93.445153 179.759773 L 97.358476 180.587965 L 101.235207 181.563817 L 105.082418 182.658791 L 108.843348 184.019636 L 112.578450 185.448415 L 116.267389 186.994937 L 119.889094 188.688915 L 123.475769 190.459724 L 126.986021 192.376867 L 130.476622 194.328535 L 133.819389 196.525329 L 137.134550 198.761116 L 140.317104 201.184202 L 143.429320 203.688484 L 146.281349 206.493111 L 149.133378 209.297737 L 151.985408 212.102363 L 154.837437 214.906990 L 157.689466 217.711616 L 159.249800 219.175340 L 156.553713 216.220494 L 155.695185 215.336998 L 158.307610 218.366063 L 160.863321 221.440533 L 163.247399 224.652414 L 165.603084 227.883668 L 167.724722 231.274634 L 169.846360 234.665601 L 171.750242 238.183027 L 173.644015 241.706325 L 175.434864 245.282596 L 177.201600 248.871279 L 178.881276 252.500900 L 180.518248 256.150602 L 182.120989 259.815312 L 183.696222 263.492082 L 185.211766 267.193066 L 186.643185 270.928175 L 188.027207 274.680326 L 189.302062 278.471730 L 190.576917 282.263134 L 191.851772 286.054538 L 193.121326 289.847583 L 194.211209 293.696240 L 195.301091 297.544896 L 196.228719 301.435650 L 197.147439 305.328714 L 197.904803 309.255936 L 198.642428 313.187337 L 199.222266 317.144664 L 199.781428 321.105388 L 200.086216 325.092384 L 200.348338 329.083786 L 200.610460 333.075189 L 200.872582 337.066591 L 200.885931 341.065623 L 200.868892 345.065586 L 200.851854 349.065550 L 200.753476 353.060896 L 200.317725 357.037091 L 199.738283 360.991761 L 198.989838 364.921116 L 198.031548 368.803307 L 196.949252 372.651076 L 195.592190 376.413839 L 193.977898 380.068807 L 192.171418 383.633845 L 190.087678 387.048231 L 187.728820 390.274999 L 186.475925 391.926268" fill="none" id="3" stroke="black" stroke-width="0.54239" /><path d="M 421.342065 0.910518 L 424.062656 3.842817 L 426.726381 6.824068 L 429.221207 9.950701 L 431.716034 13.077335 L 434.156258 16.245303 L 436.488391 19.495097 L 438.820524 22.744890 L 441.152656 25.994684 L 443.484789 29.244477 L 445.816922 32.494271 L 448.149054 35.744064 L 450.481187 38.993857 L 452.813320 42.243651 L 455.145452 45.493444 L 457.477585 48.743238 L 459.809718 51.993031 L 462.065977 55.295686 L 464.306601 58.609234 L 466.547225 61.922783 L 468.787849 65.236332 L 471.028473 68.549880 L 473.269098 71.863429 L 475.484658 75.193535 L 477.653455 78.554535 L 479.822251 81.915535 L 481.991047 85.276536 L 484.159844 88.637536 L 486.328640 91.998536 L 488.497436 95.359536 L 490.666233 98.720536 L 492.762909 102.126874 L 494.851479 105.538307 L 496.940049 108.949739 L 499.028619 112.361172 L 501.117190 115.772605 L 503.168219 119.206634 L 505.205113 122.649172 L 507.242006 126.091709 L 509.278899 129.534247 L 511.315793 132.976785 L 513.352686 136.419322 L 515.389579 139.861860 L 517.426473 143.304398 L 519.463366 146.746935 L 521.500260 150.189473 L 523.537153 153.632011 L 525.574046 157.074548 L 527.610940 160.517086 L 529.647833 163.959623 L 531.684726 167.402161 L 533.721620 170.844699 L 535.758513 174.287236 L 537.736402 177.763974 L 539.711142 181.242538 L 541.685881 184.721101 L 543.660620 188.199665 L 545.635359 191.678229 L 547.610099 195.156792 L 549.584838 198.635356 L 551.559577 202.113920 L 553.514285 205.603607 L 555.423282 209.118679 L 557.332279 212.633751 L 559.181138 216.180290 L 560.980676 219.752638 L 562.780213 223.324985 L 564.579750 226.897332 L 566.379288 230.469680 L 567.735765 233.162488" fill="none" id="4" stroke="black" stroke-width="0.54239" /><path d="M 570.759385 258.107368 L 566.840851 258.910545 L 562.876438 259.402754 L 558.887343 259.642808 L 554.887343 259.642808 L 550.897070 259.377614 L 546.929131 258.920125 L 542.996966 258.186588 L 539.132684 257.164471 L 535.298735 256.028074 L 531.533433 254.678075 L 527.810121 253.221863 L 524.139583 251.632161 L 520.532391 249.907551 L 516.964787 248.098627 L 513.482491 246.133384 L 510.030959 244.111769 L 506.676364 241.934785 L 503.343241 239.723384 L 500.095179 237.389659 L 496.861754 235.034885 L 493.726592 232.551809 L 490.610589 230.043717 L 487.494585 227.535625 L 484.378582 225.027534 L 481.262579 222.519442 L 478.146576 220.011351 L 475.072003 217.454154 L 472.075188 214.804795 L 469.078373 212.155437 L 466.081558 209.506078 L 463.084743 206.856720 L 460.169763 204.117588 L 457.255069 201.378144 L 454.340374 198.638700 L 451.425679 195.899255 L 448.601151 193.068026 L 445.810281 190.202534 L 443.085838 187.274689 L 440.402489 184.308271 L 437.783234 181.285951 L 435.209037 178.224332 L 432.634840 175.162713 L 430.060643 172.101094 L 427.486446 169.039475 L 424.912249 165.977857 L 422.373475 162.887343 L 419.891547 159.750460 L 417.452025 156.581402 L 415.099339 153.346457 L 412.805476 150.071188 L 410.636602 146.710238 L 408.545457 143.302670 L 406.601858 139.806612 L 404.658259 136.310554 L 402.714661 132.814496 L 400.900180 129.253453 L 399.250279 125.609578 L 397.600378 121.965702 L 395.950476 118.321827 L 394.443969 114.618193 L 393.017847 110.881058 L 391.747949 107.088852 L 390.523670 103.281032 L 389.479344 99.419765 L 388.537268 95.535216 L 387.806898 91.602461 L 387.214862 87.647889 L 386.699344 83.681248 L 386.502384 79.686173 L 386.404736 75.689304 L 386.466029 71.689773 L 386.527323 67.690243 L 386.755678 63.705103 L 387.379255 59.754008 L 388.268203 55.855929 L 389.359955 52.011995 L 390.662517 48.230333 L 392.142007 44.514003 L 393.846316 40.898502 L 395.705635 37.358058 L 397.690141 33.886558 L 399.917406 30.564015 L 402.406734 27.436569 L 405.113070 24.497413 L 408.040997 21.780372 L 411.197334 19.326172 L 414.571980 17.178669 L 418.121357 15.339775 L 421.778419 13.726366 L 425.537199 12.372871 L 429.390368 11.305988 L 433.307813 10.497516 L 437.276035 9.996780 L 441.268386 9.814067 L 445.267855 9.768788 L 449.265149 9.836131 L 453.252248 10.157127 L 457.209435 10.728055 L 461.143016 11.445050 L 465.049911 12.303057 L 468.905679 13.365814 L 472.721130 14.559090 L 476.489953 15.899228 L 480.258777 17.239365 L 483.997514 18.657124 L 487.685008 20.207089 L 491.286312 21.945168 L 494.839351 23.779865 L 498.317178 25.755900 L 501.709645 27.873346 L 505.042518 30.082385 L 508.267273 32.449018 L 511.492029 34.815651 L 514.710297 37.190753 L 517.835132 39.687832 L 520.934506 42.215907 L 523.990824 44.796395 L 526.961584 47.473272 L 529.886401 50.201906 L 532.731971 53.012782 L 535.547230 55.853562 L 538.250733 58.801625 L 540.893405 61.802578 L 543.437164 64.889532 L 545.899116 68.040959 L 548.306037 71.235757 L 550.579899 74.525434 L 552.815999 77.842037 L 554.900947 81.255112 L 556.967143 84.680127 L 558.815700 88.227357 L 560.639528 91.786511 L 562.264083 95.441757 L 563.839038 99.117675 L 565.291354 102.844708 L 566.618791 106.615588 L 567.815194 110.432474 L 569.011598 114.249360 L 570.208001 118.066246 L 571.099587 121.965087 L 571.978586 125.867312 L 572.857586 129.769537 L 573.629565 133.692186 L 574.249439 137.643864 L 574.726112 141.614155 L 575.137070 145.592988 L 575.393433 149.584763 L 575.546785 153.579845 L 575.546785 157.579845 L 575.546785 161.579845 L 575.367525 165.569958 L 574.927611 169.545694 L 574.098104 173.458240 L 573.258843 177.369204 L 572.351070 181.261460 L 571.086154 185.056192 L 569.601211 188.768945 L 567.867400 192.368424 L 565.850631 195.817714 L 563.532245 199.070126 L 560.860727 202.038473 L 557.833371 204.650409 L 554.582781 206.981431 L 551.034866 208.827475 L 547.356504 210.394671 L 543.545386 211.594576 L 539.644244 212.460692 L 535.689072 213.037850 L 531.703347 213.312790 L 527.703549 213.352922 L 523.704949 213.367739 L 519.726859 212.949655 L 515.796876 212.220087 L 511.920769 211.244387 L 508.109299 210.040735 L 504.377204 208.603061 L 500.743240 206.931444 L 497.183732 205.109008 L 493.686730 203.170229 L 490.263540 201.100985 L 486.840350 199.031740 L 483.453310 196.906682 L 480.165063 194.629088 L 476.955284 192.244268 L 473.789727 189.799017 L 470.747940 187.201583 L 467.749716 184.555543 L 464.851982 181.798165 L 462.014382 178.980003 L 459.226068 176.112024 L 456.437754 173.244045 L 453.649440 170.376066 L 451.028774 167.354201 L 448.409559 164.331006 L 445.790344 161.307810 L 443.286837 158.192514 L 440.928198 154.961907 L 438.569559 151.731300 L 436.210921 148.500692 L 434.047586 145.136296 L 431.887127 141.769931 L 429.726668 138.403566 L 427.566208 135.037201 L 425.405749 131.670835 L 423.413085 128.204618 L 421.484809 124.700085 L 419.556533 121.195552 L 417.670890 117.669115 L 415.944744 114.060733 L 414.321064 110.406848 L 412.801605 106.706680 L 411.381615 102.967553 L 410.016550 99.208450 L 408.808759 95.395152 L 407.730246 91.545174 L 406.755423 87.665778 L 405.962755 83.745234 L 405.320206 79.801068 L 404.884602 75.824858 L 404.448998 71.848647 L 404.192717 67.861865 L 404.158086 63.862015 L 404.123454 59.862165 L 404.306712 55.868692 L 404.782335 51.904400 L 405.587807 47.988199 L 406.651521 44.132228 L 408.010316 40.371079 L 409.524845 36.669964 L 411.240618 33.060232 L 413.176122 29.562059 L 415.330533 26.195879 L 417.809505 23.057402 L 420.641468 20.232516 L 423.698806 17.655431 L 427.092830 15.552805 L 430.549064 13.539239 L 434.221873 11.975406 L 438.045939 10.810833 L 441.972216 10.061853 L 445.955930 9.735357 L 449.952711 9.760667 L 453.951126 9.873254 L 457.929424 10.210063 L 461.867443 10.894858 L 465.753119 11.844343 L 469.638795 12.793828 L 473.445042 14.011690 L 477.221586 15.329916 L 480.990625 16.667484 L 484.668079 18.241120 L 488.270163 19.976071 L 491.804576 21.845587 L 495.246476 23.883558 L 498.565362 26.114468 L 501.782601 28.486067 L 504.890565 31.004015 L 507.890596 33.649731 L 510.890626 36.295448 L 513.890657 38.941165 L 516.757988 41.729955 L 519.621621 44.522733 L 522.485254 47.315510 L 525.245721 50.209106 L 527.949025 53.156418 L 530.517041 56.223223 L 533.019880 59.342528 L 535.469383 62.504796 L 537.759593 65.784154 L 539.969613 69.116260 L 542.062758 72.524888 L 544.155903 75.933516 L 546.211428 79.363388 L 548.049379 82.916124 L 549.887330 86.468861 L 551.725281 90.021597 L 553.404729 93.651030 L 555.022130 97.308666 L 556.465558 101.039151 L 557.856654 104.789086 L 559.200152 108.556713 L 560.359594 112.384481 L 561.398248 116.244020 L 562.204227 120.161978 L 563.010207 124.079937 L 563.765150 128.005941 L 564.203599 131.981838 L 564.542441 135.966469 L 564.802536 139.958004 L 564.847477 143.957659 L 564.888981 147.957443 L 564.930485 151.957228 L 564.767558 155.953626 L 564.412783 159.933733 L 563.856546 163.894277 L 563.083027 167.818773 L 562.036164 171.675023 L 560.797531 175.476593 L 559.396871 179.223346 L 557.654425 182.823333 L 555.674512 186.294346 L 553.480938 189.635780 L 551.076373 192.829040 L 548.441027 195.837125 L 545.554229 198.605951 L 542.456384 201.134573 L 539.171607 203.412607 L 535.668163 205.328333 L 532.021236 206.966064 L 528.251829 208.279388 L 524.368845 209.228436 L 520.430067 209.919824 L 516.454370 210.360089 L 512.456112 210.372477 L 508.456161 210.352738 L 504.489347 209.967799 L 500.568216 209.187763 L 496.689068 208.211952 L 492.890048 206.960591 L 489.148762 205.552344 L 485.456894 204.014003 L 481.846970 202.291085 L 478.296723 200.452173 L 474.796091 198.516825 L 471.448252 196.328351 L 468.104893 194.132458 L 464.761534 191.936564 L 461.524962 189.589077 L 458.331578 187.180281 L 455.291099 184.581195 L 452.281123 181.948111 L 449.374537 179.200064 L 446.536581 176.383360 L 443.787332 173.477911 L 441.168320 170.456987 L 438.612898 167.379680 L 436.057476 164.302374 L 433.534355 161.199835 L 431.167202 157.975460 L 428.800050 154.751086 L 426.432897 151.526712 L 424.150940 148.242823 L 421.937992 144.910728 L 419.839797 141.506430 L 417.793639 138.069391 L 415.893727 134.550245 L 414.024733 131.013741 L 412.293353 127.407906 L 410.598283 123.785811 L 409.075396 120.087052 L 407.552508 116.388294 L 406.029621 112.689535 L 404.683243 108.925931 L 403.449448 105.120968 L 402.215652 101.316004 L 401.035041 97.495911 L 400.081406 93.611252 L 399.226194 89.705016 L 398.467288 85.777668 L 397.901454 81.818775 L 397.409946 77.849953 L 397.092540 73.862566 L 396.933458 69.867867 L 396.881983 65.868198 L 396.830507 61.868529 L 396.900656 57.870746 L 397.119193 53.878845 L 397.727426 49.925359 L 398.517684 46.006061 L 399.471118 42.123155 L 400.597423 38.286062 L 402.097818 34.578122 L 403.598212 30.870182 L 405.304361 27.259815 L 407.276118 23.781076 L 409.416159 20.402747 L 411.950947 17.308422 L 414.720783 14.425383 L 417.691879 11.751442 L 420.879716 9.345302 L 424.230797 7.163584 L 427.700414 5.180725 L 431.323495 3.490226 L 435.072087 2.103114 L 438.949421 1.125197 L 442.899945 0.498014 L 446.897511 0.379355 L 450.896049 0.271195 L 454.883398 0.460911 L 458.844098 0.988941 L 462.762333 1.793575 L 466.625726 2.828659 L 470.437861 4.032577 L 474.200706 5.385597 L 477.883842 6.945888 L 481.566978 8.506179 L 485.229651 10.111033 L 488.813414 11.887727 L 492.327215 13.795938 L 495.782792 15.808386 L 499.118105 18.016482 L 502.322975 20.403591 L 505.446702 22.902056 L 508.570430 25.400522 L 511.589276 28.021190 L 514.532663 30.729783 L 517.476049 33.438377 L 520.357814 36.209596 L 523.113662 39.108786 L 525.869511 42.007975 L 528.625359 44.907165 L 531.227988 47.944066 L 533.792464 51.012996 L 536.234584 54.180969 L 538.676704 57.348941 L 541.118825 60.516914 L 543.383517 63.810822 L 545.568250 67.161485 L 547.752983 70.512148 L 549.902720 73.884040 L 551.864991 77.369652 L 553.781032 80.880084 L 555.602152 84.441477 L 557.349581 88.038579 L 559.016199 91.674839 L 560.565837 95.361043 L 562.039433 99.079714 L 563.370001 102.851105 L 564.662387 106.636569 L 565.733336 110.490437 L 566.748796 114.358242 L 567.603515 118.265857 L 568.458234 122.173472 L 569.312954 126.081087 L 569.990725 130.022098 L 570.611357 133.973565 L 571.140012 137.938477 L 571.586298 141.912256 L 571.913702 145.898835 L 572.130451 149.892508 L 572.271195 153.889262 L 572.271195 157.889262 L 572.271195 161.889262 L 572.141784 165.882928 L 571.751165 169.863809 L 571.073226 173.805503 L 570.383493 177.745588 L 569.605573 181.665530 L 568.516284 185.514355 L 567.234545 189.302968 L 565.721362 193.001979 L 563.950915 196.584414 L 561.920972 200.027148 L 559.609299 203.287187 L 556.967486 206.290227 L 554.073106 209.051126 L 550.903736 211.487295 L 547.583336 213.715395 L 544.078747 215.633645 L 540.429407 217.263986 L 536.654716 218.571723 L 532.773396 219.516114 L 528.823019 220.123139 L 524.838175 220.430208 L 520.838280 220.426583 L 516.844920 220.196192 L 512.901485 219.560742 L 509.007726 218.658111 L 505.185377 217.495478 L 501.461343 216.035488 L 497.737309 214.575497 L 494.091369 212.935818 L 490.505699 211.165043 L 486.987106 209.262543 L 483.533445 207.246291 L 480.118409 205.164462 L 476.785029 202.953450 L 473.507623 200.662396 L 470.287039 198.290090 L 467.136378 195.826139 L 463.997741 193.346430 L 460.859104 190.866721 L 457.813999 188.277496 L 454.873736 185.565513 L 451.933472 182.853530 L 448.997339 180.137357 L 446.242821 177.236903 L 443.532165 174.296832 L 440.925999 171.262379 L 438.374396 168.182529 L 435.864380 165.068075 L 433.448463 161.880435 L 431.047748 158.680972 L 428.647032 155.481508 L 426.299599 152.244081 L 424.059473 148.930196 L 421.819347 145.616310 L 419.579221 142.302425 L 417.535666 138.866291 L 415.553996 135.391672 L 413.572326 131.917052 L 411.652601 128.410128 L 409.937752 124.796364 L 408.222902 121.182600 L 406.508052 117.568836 L 404.959758 113.881417 L 403.500113 110.158838 L 402.213872 106.371281 L 400.927632 102.583725 L 399.730381 98.770162 L 398.774628 94.886023 L 398.006034 90.961369 L 397.414330 87.008798 L 397.020168 83.028722 L 396.884650 79.031018 L 396.838125 75.031806 L 396.976540 71.039859 L 397.443206 67.067300 L 398.252412 63.150006 L 399.300272 59.292691 L 400.559203 55.498259 L 402.024254 51.779215 L 403.739577 48.165676 L 405.741011 44.702650 L 407.932767 41.359270 L 410.285314 38.126686 L 412.781852 35.002796 L 415.443768 32.017130 L 418.361238 29.285056 L 421.326309 26.600219 L 424.365559 24.008835 L 427.653315 21.730533 L 430.941071 19.452231 L 434.408584 17.470482 L 438.023884 15.768162 L 441.746078 14.310609 L 445.551858 13.079332 L 449.480168 12.325878 L 453.408823 11.573769 L 457.355061 10.945019 L 461.337400 10.569545 L 465.335715 10.476371 L 469.334988 10.400113 L 473.333474 10.369187 L 477.327683 10.584348 L 481.298823 11.040594 L 485.248243 11.661494 L 489.159914 12.497457 L 493.023934 13.525556 L 496.845842 14.698943 L 500.612314 16.045676 L 504.284068 17.630013 L 507.903394 19.330076 L 511.476812 21.127485 L 514.958391 23.096884 L 518.399963 25.133596 L 521.793054 27.251833 L 525.080657 29.528895 L 528.317064 31.877405 L 531.438159 34.379158 L 534.491846 36.961349 L 537.500950 39.596741 L 540.378821 42.374704 L 543.196905 45.211683 L 545.926178 48.135904 L 548.565229 51.141092 L 551.146328 54.195673 L 553.586605 57.365065 L 555.926903 60.607388 L 558.199669 63.898974 L 560.215115 67.353967 L 562.131956 70.862475 L 563.918845 74.441166 L 565.523244 78.104097 L 567.037125 81.805055 L 568.360571 85.579772 L 569.684017 89.354489 L 571.007463 93.129207 L 572.133500 96.967143 L 573.249030 100.808444 L 574.364561 104.649745 L 575.278453 108.541595 L 576.106968 112.454850 L 576.935483 116.368105 L 577.574078 120.312280 L 578.029661 124.286251 L 578.485244 128.260222 L 578.850663 132.241401 L 579.032291 136.237276 L 579.074345 140.236320 L 579.074345 144.236320 L 579.074345 148.236320 L 578.639944 152.205470 L 578.074656 156.165325 L 577.509368 160.125180 L 576.591520 164.018158 L 575.481778 167.858572 L 574.273533 171.671726 L 573.057233 175.481855 L 571.456702 179.147684 L 569.856171 182.813513 L 568.101306 186.403222 L 566.093976 189.859750 L 563.837889 193.160880 L 561.170515 196.141671 L 558.284414 198.908553 L 555.158529 201.394950 L 551.854796 203.644858 L 548.420186 205.690962 L 544.867866 207.525731 L 541.189206 209.096546 L 537.414770 210.420059 L 533.552467 211.448898 L 529.632146 212.228701 L 525.672492 212.769855 L 521.682903 213.058257 L 517.683128 213.024751 L 513.683286 212.989144 L 509.699340 212.758005 L 505.747575 212.140212 L 501.846251 211.257223 L 497.990048 210.202030 L 494.169232 209.021317 L 490.406655 207.663739 L 486.686610 206.196444 L 482.992087 204.663311 L 479.384032 202.937227 L 475.808407 201.147458 L 472.323537 199.183868 L 468.838667 197.220279 L 465.353797 195.256690 L 461.949171 193.159437 L 458.577733 191.006903 L 455.290354 188.728704 L 452.014016 186.434027 L 448.856608 183.978263 L 445.718743 181.499008 L 442.729336 178.841293 L 439.764799 176.156654 L 436.878614 173.387189 L 433.992429 170.617724 L 431.106244 167.848260 L 428.264287 165.034049 L 425.461456 162.180256 L 422.738557 159.251084 L 420.053886 156.285861 L 417.369215 153.320639 L 414.692470 150.348879 L 412.292107 147.149152 L 409.891743 143.949425 L 407.491380 140.749697 L 405.180449 137.486299 L 402.942480 134.170957 L 400.866481 130.752825 L 398.856975 127.295516 L 397.029340 123.737461 L 395.201706 120.179407 L 393.374071 116.621352 L 391.893064 112.907073 L 390.437831 109.181178 L 388.982598 105.455282 L 387.736961 101.655878 L 386.620408 97.817084 L 385.716845 93.920474 L 385.010097 89.985347 L 384.445115 86.027379 L 384.105016 82.041864 L 384.010884 78.045529 L 383.999728 74.045545 L 383.988573 70.045560 L 384.478880 66.078307 L 385.192348 62.145120 L 386.139713 58.263238 L 387.355932 54.453149 L 388.862766 50.747821 L 390.568563 47.131789 L 392.507430 43.639075 L 394.671661 40.276478 L 396.990841 37.017428 L 399.611733 33.997926 L 402.260128 31.000259 L 405.016036 28.109407 L 407.998607 25.444190 L 411.145152 22.974523 L 414.455177 20.735555 L 417.923895 18.757342 L 421.527727 17.021718 L 425.131560 15.286094 L 428.886137 13.920961 L 432.677988 12.647436 L 436.506864 11.506317 L 440.416978 10.671034 L 444.381220 10.137384 L 448.371846 9.883126 L 452.369374 9.792408 L 456.364726 9.883018 L 460.343733 10.292288 L 464.271956 11.031996 L 468.163974 11.944860 L 472.016168 13.022172 L 475.793529 14.336819 L 479.523507 15.775969 L 483.205022 17.340080 L 486.799927 19.094031 L 490.325890 20.976953 L 493.779468 22.995071 L 497.091290 25.238229 L 500.324233 27.590205 L 503.481982 30.045282 L 506.515659 32.652351 L 509.489500 35.326169 L 512.411444 38.057879 L 515.333388 40.789590 L 518.202112 43.575765 L 521.000610 46.433807 L 523.658017 49.422348 L 526.289389 52.434968 L 528.920761 55.447589 L 531.424948 58.564726 L 533.856691 61.740191 L 536.144474 65.021357 L 538.368669 68.345135 L 540.533654 71.708591 L 542.458217 75.213770 L 544.311037 78.757897 L 546.045026 82.362517 L 547.680562 86.011741 L 549.247122 89.692215 L 550.626012 93.446558 L 551.973456 97.212678 L 553.277122 100.994272 L 554.456265 104.815111 L 555.555356 108.661129 L 556.531237 112.540260 L 557.427241 116.437300 L 558.200934 120.361761 L 558.756670 124.321865 L 559.273377 128.288352 L 559.790085 132.254838 L 560.058946 136.243058 L 560.240458 140.238937 L 560.421970 144.234817 L 560.386644 148.233093 L 560.293510 152.232009 L 560.156218 156.226973 L 559.537768 160.178873 L 558.720459 164.093264 L 557.687561 167.954629 L 556.424051 171.746883 L 555.168835 174.957768" fill="none" id="5" stroke="black" stroke-width="0.54239" /><path d="M 107.704265 400.217608 L 110.752735 397.888857 L 114.287682 396.021894 L 115.168835 395.729418" fill="none" id="6" stroke="black" stroke-width="0.54239" /><path d="M 208.523165 127.642808 L 211.698024 129.038332 L 209.063430 128.002135 L 210.790885 127.997138" fill="none" id="7" stroke="black" stroke-width="0.54239" /><path d="M 16.838125 225.910518 L 19.989278 223.547823 L 22.984998 220.897227 L 26.031812 218.307695 L 29.169308 215.826542 L 32.306803 213.345389 L 35.444299 210.864236 L 38.581795 208.383083 L 41.718647 205.901137 L 44.790526 203.339193 L 47.862405 200.777248 L 50.934284 198.215304 L 54.037740 195.694394 L 57.301088 193.381267 L 60.564437 191.068140 L 63.827785 188.755012 L 67.091133 186.441885 L 70.354481 184.128758 L 73.617830 181.815630 L 76.881178 179.502503 L 80.144526 177.189376 L 83.482877 174.986306 L 86.829259 172.795022 L 90.175641 170.603737 L 93.538547 168.438821 L 96.969689 166.382789 L 100.400830 164.326756 L 103.831971 162.270724 L 107.263113 160.214692 L 110.694254 158.158659 L 114.168716 156.177035 L 117.650673 154.208285 L 121.132629 152.239535 L 124.642890 150.323352 L 128.203265 148.500242 L 131.763640 146.677132 L 135.324015 144.854021 L 138.974890 143.221609 L 142.638635 141.616312 L 146.302379 140.011016 L 150.011200 138.515839 L 153.752751 137.102225 L 157.565962 135.894161 L 161.379174 134.686096 L 165.201320 133.508631 L 169.065442 132.474920 L 172.978260 131.647496 L 176.896742 130.844065 L 180.856878 130.317624 L 184.849771 130.177713 L 188.849754 130.189617 L 192.814722 130.613619 L 196.684318 131.603365 L 200.421608 133.020885 L 203.903737 134.980387 L 207.108067 137.369116 L 210.002051 140.119599 L 212.705556 143.067659 L 215.182837 146.201527 L 217.278279 149.602953 L 219.271626 153.070887 L 221.047901 156.652745 L 222.614395 160.332334 L 223.942303 164.103756 L 224.992390 167.960395 L 225.829054 171.870153 L 226.484245 175.813698 L 226.857269 179.796267 L 227.230293 183.778835 L 227.493049 187.766956 L 227.521929 191.766851 L 227.550810 195.766747 L 227.572250 199.766554 L 227.448275 203.764633 L 227.232451 207.755938 L 226.768628 211.728956 L 226.304806 215.701973 L 225.840983 219.674991 L 225.279891 223.633608 L 224.572691 227.570595 L 223.865491 231.507582 L 223.158291 235.444570 L 222.437496 239.378808 L 221.559611 243.281284 L 220.681726 247.183760 L 219.803841 251.086236 L 218.925956 254.988712 L 218.048071 258.891188 L 217.170186 262.793663 L 216.274445 266.691897 L 215.303182 270.572186 L 214.331919 274.452476 L 213.360656 278.332766 L 212.389393 282.213055 L 211.397696 286.087980 L 210.337494 289.944918 L 209.277292 293.801856 L 208.217090 297.658795 L 207.156889 301.515733 L 206.089206 305.370485 L 204.905597 309.191358 L 203.721989 313.012231 L 202.538381 316.833104 L 201.354772 320.653977 L 200.171164 324.474850 L 198.987555 328.295723 L 197.803947 332.116596 L 196.620338 335.937469 L 195.326287 339.722020 L 194.010897 343.499551 L 192.743635 347.138868" fill="none" id="8" stroke="black" stroke-width="0.54239" /><path d="M 203.767255 321.697928 L 204.553417 325.606489 L 205.341623 329.517972 L 205.526492 333.510611 L 205.609592 337.509748 L 205.524335 341.504120 L 204.822319 345.440296 L 203.823524 349.311943 L 202.778530 353.173029 L 202.570405 353.942018" fill="none" id="9" stroke="black" stroke-width="0.54239" /><path d="M 26.853875 216.438078 L 25.062388 220.014469 L 23.777884 223.793047 L 23.058892 227.720259 L 22.948365 231.712067 L 23.365240 235.680427 L 24.607407 239.474556 L 26.423238 243.031630 L 28.589451 246.394296 L 28.617655 246.438078" fill="none" id="10" stroke="black" stroke-width="0.54239" /><path d="M 274.822375 117.579818 L 274.203501 121.239644 L 274.116376 125.238695 L 274.029251 129.237746 L 273.942126 133.236797 L 273.687329 137.228606 L 273.429315 141.220276 L 273.171301 145.211946 L 272.913287 149.203616 L 272.655273 153.195286 L 272.397259 157.186956 L 272.139245 161.178625 L 271.881231 165.170295 L 271.623217 169.161965 L 271.365202 173.153635 L 271.107188 177.145305 L 270.892874 181.139326 L 270.721140 185.135638 L 270.549406 189.131950 L 270.377672 193.128261 L 270.205938 197.124573 L 270.034204 201.120885 L 269.862470 205.117196 L 269.752807 209.115506 L 269.667199 213.114590 L 269.581590 217.113674 L 269.495982 221.112757 L 269.410374 225.111841 L 269.364437 229.111429 L 269.348437 233.111397 L 269.332438 237.111365 L 269.316439 241.111333 L 269.300439 245.111301 L 269.284440 249.111269 L 269.268441 253.111237 L 269.252441 257.111205 L 269.236442 261.111173 L 269.220443 265.111141 L 269.204443 269.111109 L 269.188444 273.111077 L 269.244975 277.110468 L 269.324562 281.109677 L 269.404149 285.108885 L 269.544228 289.106116 L 269.725858 293.101991 L 269.907487 297.097865 L 270.089117 301.093739 L 270.270747 305.089613 L 270.452377 309.085488 L 270.634006 313.081362 L 270.871745 317.074209 L 271.120981 321.066437 L 271.370217 325.058665 L 271.628561 329.050288 L 271.909035 333.040443 L 272.189509 337.030597 L 272.469983 341.020752 L 272.822315 345.004922 L 273.205726 348.986504 L 273.589138 352.968086 L 273.972549 356.949669 L 274.355961 360.931251 L 274.739372 364.912833 L 275.122783 368.894415 L 275.530123 372.873366 L 276.020975 376.843135 L 276.511827 380.812903 L 277.002679 384.782672 L 277.493532 388.752441 L 277.984384 392.722210 L 278.475236 396.691978 L 278.966088 400.661747 L 279.456941 404.631516 L 279.947793 408.601285 L 280.438645 412.571054 L 280.929497 416.540822 L 281.472818 420.503579 L 282.041654 424.462925 L 282.610490 428.422272 L 283.179326 432.381619 L 283.748162 436.340965 L 284.316998 440.300312 L 284.885834 444.259659 L 285.454670 448.219005 L 286.084677 452.169068 L 286.716156 456.118908 L 287.347636 460.068748 L 287.979115 464.018587 L 288.610595 467.968427 L 289.242074 471.918267 L 289.873554 475.868107 L 290.526242 479.814386 L 291.219134 483.753917 L 291.912025 487.693447 L 292.604917 491.632978 L 293.297808 495.572508 L 293.990700 499.512039 L 294.683591 503.451570 L 295.376483 507.391100 L 296.069374 511.330631 L 296.762266 515.270161 L 297.455157 519.209692 L 298.148049 523.149223 L 298.840940 527.088753 L 299.533832 531.028284 L 300.226723 534.967814 L 300.919615 538.907345 L 301.612506 542.846876 L 302.305398 546.786406 L 302.998289 550.725937 L 303.691181 554.665467 L 304.384072 558.604998 L 305.076964 562.544529 L 305.090095 562.619188" fill="none" id="11" stroke="black" stroke-width="0.54239" /><path d="M 457.216075 194.256978 L 457.137866 198.165255 L 457.888967 202.094103 L 458.356383 206.060843 L 458.610229 210.051383 L 458.652139 214.051163 L 458.694049 218.050944 L 458.735959 222.050724 L 458.777870 226.050505 L 458.819780 230.050285 L 458.847208 234.050077 L 458.811455 238.049917 L 458.775701 242.049757 L 458.739948 246.049597 L 458.704194 250.049437 L 458.668441 254.049278 L 458.406808 258.040007 L 458.120307 262.029734 L 457.833807 266.019460 L 457.547306 270.009187 L 457.154295 273.989545 L 456.739976 277.968030 L 456.325656 281.946514 L 455.911337 285.924999 L 455.474671 289.900832 L 454.946425 293.865798 L 454.418179 297.830764 L 453.889933 301.795730 L 453.361686 305.760696 L 452.833440 309.725662 L 452.305194 313.690628 L 451.776948 317.655594 L 451.198408 321.613338 L 450.589552 325.566728 L 449.980697 329.520119 L 449.371841 333.473509 L 448.762985 337.426899 L 448.154130 341.380290 L 447.545274 345.333680 L 446.936419 349.287070 L 446.327563 353.240461 L 445.718708 357.193851 L 445.109852 361.147241 L 444.488868 365.098699 L 443.838907 369.045540 L 443.188946 372.992380 L 442.538985 376.939221 L 441.889024 380.886061 L 441.239064 384.832902 L 440.589103 388.779743 L 439.939142 392.726583 L 439.289181 396.673424 L 438.639220 400.620264 L 437.989259 404.567105 L 437.339298 408.513946 L 436.689337 412.460786 L 436.039376 416.407627 L 435.389415 420.354467 L 434.739454 424.301308 L 434.017624 428.235401 L 433.270531 432.165013 L 432.523438 436.094626 L 431.776345 440.024238 L 431.029252 443.953850 L 430.282159 447.883462 L 429.492020 451.804149 L 428.615219 455.706869 L 427.738418 459.609589 L 426.861617 463.512308 L 425.984816 467.415028 L 425.108016 471.317747 L 424.231215 475.220467 L 423.289018 479.107693 L 422.321679 482.988963 L 421.354340 486.870233 L 420.387001 490.751503 L 419.419662 494.632773 L 418.452323 498.514043 L 417.475617 502.392871 L 416.425185 506.252481 L 415.374753 510.112091 L 414.324320 513.971702 L 413.273888 517.831312 L 412.223456 521.690922 L 411.173023 525.550533 L 410.079931 529.398091 L 408.955467 533.236786 L 407.831003 537.075481 L 406.675935 540.904804 L 405.457910 544.714845 L 404.239886 548.524887 L 403.021861 552.334928 L 401.803836 556.144969 L 400.585811 559.955011 L 399.367787 563.765052 L 397.991607 567.520734 L 396.609852 571.274499 L 395.228097 575.028264 L 393.846343 578.782030 L 392.464588 582.535795 L 391.082833 586.289560 L 389.598907 590.003746 L 388.091248 593.708737 L 386.583588 597.413729 L 385.075929 601.118721 L 383.568270 604.823713 L 382.060611 608.528704 L 381.940485 608.823908" fill="none" id="12" stroke="black" stroke-width="0.54239" /><path d="M 273.499545 307.099498 L 273.549152 311.099190 L 273.908317 315.078567 L 274.381850 319.050439 L 274.855383 323.022311 L 275.252696 327.001703 L 275.564429 330.989537 L 275.876162 334.977371 L 276.187895 338.965206 L 276.499628 342.953040 L 276.817584 346.940346 L 277.182863 350.923632 L 277.548142 354.906919 L 277.913421 358.890205 L 278.278701 362.873492 L 278.643980 366.856778 L 278.950287 370.844830 L 279.229358 374.835083 L 279.508428 378.825336 L 279.787499 382.815589 L 280.066570 386.805842 L 280.345641 390.796096 L 280.624711 394.786349 L 280.950019 398.772975 L 281.296422 402.757948 L 281.642824 406.742920 L 281.989227 410.727893 L 282.335630 414.712865 L 282.682033 418.697837 L 283.103868 422.675325 L 283.547389 426.650660 L 283.990911 430.625995 L 284.434433 434.601330 L 284.934605 438.569422 L 285.505470 442.528477 L 286.076335 446.487531 L 286.647199 450.446586 L 287.218064 454.405641 L 287.892855 458.348277 L 288.570213 462.290508 L 289.321147 466.219006 L 290.111529 470.140141 L 290.901911 474.061275 L 291.692292 477.982410 L 292.482674 481.903544 L 293.380759 485.801005 L 294.307582 489.692149 L 295.234404 493.583293 L 296.161227 497.474436 L 297.088049 501.365580 L 298.014871 505.256724 L 298.941694 509.147868 L 299.868516 513.039012 L 300.795339 516.930155 L 301.722161 520.821299 L 302.648984 524.712443 L 303.575806 528.603587 L 304.529175 532.488068 L 305.549570 536.355728 L 306.569965 540.223388 L 307.590360 544.091048 L 308.610756 547.958708 L 309.631151 551.826368 L 310.651546 555.694028 L 311.714350 559.549874 L 312.840647 563.388032 L 313.966945 567.226189 L 315.093242 571.064347 L 316.219540 574.902505 L 317.345837 578.740662 L 317.751515 580.123118" fill="none" id="13" stroke="black" stroke-width="0.54239" /><path d="M 301.845995 577.312098 L 304.079190 576.545091 L 307.478725 574.437210 L 310.878259 572.329328 L 314.277794 570.221447 L 317.767898 568.271665 L 321.305810 566.405337 L 324.843722 564.539009 L 328.484319 562.887816 L 332.160359 561.310879 L 335.878294 559.840197 L 339.641350 558.483947 L 343.404405 557.127697 L 347.167460 555.771447 L 347.830255 555.532568" fill="none" id="14" stroke="black" stroke-width="0.54239" /><path d="M 445.594035 201.012888 L 445.405055 204.983387 L 445.745924 208.967830 L 446.110279 212.951201 L 446.381617 216.941493 L 446.610774 220.934924 L 446.773604 224.930591 L 446.814058 228.930387 L 446.854512 232.930182 L 446.894966 236.929978 L 446.935419 240.929773 L 446.829572 244.927112 L 446.611441 248.920399 L 446.253998 252.904397 L 445.896554 256.888394 L 445.533055 260.871777 L 445.083200 264.846400 L 444.633346 268.821024 L 444.183492 272.795647 L 443.733637 276.770270 L 443.283783 280.744894 L 442.814898 284.717221 L 442.306376 288.684765 L 441.797853 292.652309 L 441.289331 296.619853 L 440.780809 300.587397 L 440.212762 304.546785 L 439.635424 308.504901 L 439.058086 312.463017 L 438.480748 316.421133 L 437.903410 320.379249 L 437.326071 324.337364 L 436.748733 328.295480 L 436.171395 332.253596 L 435.594057 336.211712 L 435.016719 340.169827 L 434.439381 344.127943 L 433.862042 348.086059 L 433.284704 352.044175 L 432.624818 355.989019 L 431.932426 359.928638 L 431.240033 363.868256 L 430.547640 367.807874 L 429.855247 371.747492 L 429.162854 375.687111 L 428.393569 379.612050 L 427.585977 383.529676 L 426.778385 387.447302 L 425.970793 391.364929 L 425.163201 395.282555 L 424.355609 399.200181 L 423.548017 403.117807 L 422.740425 407.035433 L 421.932833 410.953060 L 421.125241 414.870686 L 420.283782 418.781164 L 419.439276 422.690999 L 418.594770 426.600834 L 417.750265 430.510669 L 416.905759 434.420504 L 416.061253 438.330339 L 415.216159 442.240045 L 414.338734 446.142624 L 413.461308 450.045203 L 412.583882 453.947782 L 411.706457 457.850361 L 410.829031 461.752940 L 409.951605 465.655520 L 409.074179 469.558099 L 408.142551 473.447997 L 407.197604 477.334779 L 406.252657 481.221561 L 405.307711 485.108343 L 404.362764 488.995126 L 403.417818 492.881908 L 402.472871 496.768690 L 401.515563 500.652410 L 400.537202 504.530916 L 399.558840 508.409423 L 398.580479 512.287929 L 397.569048 516.157813 L 396.529335 520.020325 L 395.489623 523.882837 L 394.449910 527.745349 L 393.410197 531.607860 L 392.370484 535.470372 L 391.330771 539.332884 L 390.291058 543.195396 L 389.205411 547.045153 L 388.104754 550.890742 L 387.004097 554.736331 L 385.903440 558.581920 L 384.802783 562.427508 L 383.702126 566.273097 L 382.601469 570.118686 L 381.500812 573.964275 L 380.400155 577.809864 L 379.299498 581.655453 L 378.198841 585.501042 L 377.098185 589.346631 L 375.997528 593.192220 L 374.896871 597.037809 L 373.796214 600.883398 L 373.247575 602.800288" fill="none" id="15" stroke="black" stroke-width="0.54239" /><path d="M 472.302695 208.524698 L 472.863217 212.485230 L 473.423739 216.445762 L 473.750903 220.431279 L 473.827944 224.428937 L 473.845148 228.428900 L 473.862351 232.428863 L 473.879555 236.428826 L 473.896758 240.428789 L 473.913962 244.428752 L 473.931166 248.428715 L 473.803861 252.423596 L 473.505739 256.412471 L 473.207618 260.401346 L 472.796357 264.379785 L 472.359766 268.355887 L 471.923176 272.331989 L 471.432277 276.301650 L 470.926695 280.269570 L 470.421112 284.237490 L 469.887841 288.201552 L 469.289518 292.156550 L 468.691196 296.111548 L 468.092873 300.066546 L 467.494550 304.021544 L 466.896227 307.976542 L 466.297904 311.931540 L 465.699581 315.886538 L 465.101258 319.841536 L 464.502936 323.796534 L 463.904613 327.751532 L 463.306290 331.706530 L 462.707967 335.661528 L 462.109644 339.616526 L 461.511321 343.571525 L 460.912998 347.526523 L 460.314676 351.481521 L 459.716353 355.436519 L 459.118030 359.391517 L 458.519707 363.346515 L 457.921384 367.301513 L 457.323061 371.256511 L 456.724738 375.211509 L 456.083661 379.159708 L 455.425605 383.105207 L 454.767548 387.050706 L 454.109492 390.996205 L 453.451435 394.941704 L 452.793379 398.887203 L 452.135322 402.832702 L 451.477266 406.778201 L 450.796922 410.719815 L 450.081380 414.655295 L 449.365838 418.590774 L 448.612770 422.519046 L 447.819467 426.439591 L 447.026163 430.360136 L 446.232860 434.280680 L 445.439556 438.201225 L 444.646253 442.121769 L 443.821035 446.035578 L 442.962268 449.942305 L 442.103500 453.849032 L 441.244733 457.755760 L 440.385966 461.662487 L 439.527199 465.569215 L 438.668431 469.475942 L 437.809664 473.382669 L 436.950897 477.289397 L 436.092130 481.196124 L 435.125503 485.077553 L 434.157616 488.958686 L 433.189730 492.839820 L 432.161784 496.705268 L 431.108319 500.564051 L 430.054854 504.422835 L 428.965676 508.271363 L 427.811120 512.101115 L 426.656564 515.930867 L 425.502008 519.760619 L 424.225875 523.551588 L 422.949481 527.342474 L 421.673088 531.133361 L 420.396695 534.924248 L 419.120302 538.715134 L 417.843909 542.506021 L 416.549023 546.290442 L 415.185403 550.050833 L 413.821783 553.811224 L 412.458163 557.571615 L 411.094543 561.332006 L 409.730923 565.092397 L 408.367304 568.852788 L 406.959105 572.596297 L 405.489692 576.316623 L 404.020279 580.036949 L 402.550866 583.757275 L 401.081454 587.477601 L 399.612041 591.197927 L 398.142628 594.918253 L 396.569696 598.595242 L 394.950463 602.252849 L 393.331229 605.910455 L 391.711996 609.568061 L 390.092763 613.225667 L 388.473530 616.883274 L 387.011355 620.186108" fill="none" id="16" stroke="black" stroke-width="0.54239" /><path d="M 476.428675 187.548318 L 476.040092 191.293857 L 475.894294 195.291199 L 475.871764 199.291122 L 475.850128 203.291063 L 475.828492 207.291005 L 475.806855 211.290946 L 475.785219 215.290888 L 475.763583 219.290829 L 475.741946 223.290771 L 475.720310 227.290712 L 475.584224 231.283675 L 475.119711 235.256612 L 474.655198 239.229549 L 474.190686 243.202486 L 473.653265 247.165970 L 473.089233 251.126004 L 472.525202 255.086038 L 471.961170 259.046072 L 471.397138 263.006106 L 470.833107 266.966139 L 470.269075 270.926173 L 469.705043 274.886207 L 469.141011 278.846241 L 468.576980 282.806275 L 468.050725 286.501078" fill="none" id="17" stroke="black" stroke-width="0.54239" /><path d="M 446.570405 209.091628 L 446.066475 205.292182 L 446.066475 201.292182 L 446.484503 197.329272 L 447.224216 193.399519 L 448.229475 189.527897 L 449.551739 185.754604 L 451.113211 182.071968 L 452.894496 178.500436 L 455.032697 175.131317 L 457.680279 172.132932 L 460.808760 169.661203 L 464.580283 168.387664 L 468.573108 168.253046 L 472.074091 170.038605 L 474.773484 172.963788 L 476.698365 176.462631 L 478.134859 180.190830 L 479.274817 184.020971 L 479.990357 187.956451 L 480.208205 189.154618" fill="none" id="18" stroke="black" stroke-width="0.54239" /><path d="M 475.704265 200.634928 L 476.496174 196.750408 L 476.898337 192.770676 L 477.300499 188.790944 L 477.360907 184.794651 L 477.345451 180.794680 L 476.678498 176.865981 L 475.582610 173.023210 L 474.358376 169.215626 L 472.404177 165.758457 L 471.672775 164.894778" fill="none" id="19" stroke="black" stroke-width="0.54239" /><path d="M 255.420805 129.556188 L 255.080808 132.948583 L 255.158880 136.947821 L 255.236952 140.947059 L 255.315024 144.946297 L 255.293903 148.946034 L 255.256011 152.945854 L 255.218118 156.945675 L 255.073186 160.941778 L 254.833491 164.934589 L 254.593796 168.927401 L 254.354102 172.920213 L 254.114407 176.913025 L 253.902833 180.907340 L 253.715486 184.902950 L 253.528139 188.898561 L 253.340792 192.894171 L 253.153445 196.889781 L 252.966098 200.885391 L 252.778751 204.881001 L 252.591403 208.876612 L 252.404056 212.872222 L 252.254199 216.868985 L 252.195757 220.868558 L 252.137315 224.868131 L 252.078874 228.867704 L 252.020432 232.867277 L 251.961991 236.866850 L 251.903549 240.866423 L 251.845107 244.865996 L 251.786666 248.865569 L 251.780279 252.865395 L 251.799780 256.865348 L 251.819281 260.865300 L 251.838782 264.865253 L 251.858283 268.865205 L 251.877784 272.865158 L 251.924020 276.864548 L 252.072583 280.861789 L 252.221146 284.859029 L 252.369708 288.856269 L 252.579213 292.850673 L 252.802547 296.844433 L 253.025881 300.838194 L 253.249215 304.831954 L 253.472549 308.825714 L 253.695883 312.819475 L 253.919217 316.813235 L 254.211303 320.802196 L 254.545040 324.788249 L 254.878777 328.774302 L 255.212515 332.760355 L 255.618313 336.739600 L 256.037052 340.717622 L 256.455792 344.695643 L 256.875448 348.673560 L 257.372442 352.642564 L 257.869437 356.611568 L 258.366431 360.580573 L 258.863425 364.549577 L 259.360420 368.518582 L 259.857414 372.487586 L 260.354409 376.456591 L 260.860645 380.424316 L 261.460220 384.379125 L 262.059795 388.333933 L 262.659370 392.288742 L 263.258945 396.243550 L 263.858520 400.198359 L 264.458095 404.153167 L 265.057670 408.107976 L 265.670495 412.060631 L 266.353951 416.001809 L 267.037408 419.942988 L 267.720865 423.884166 L 268.404322 427.825344 L 269.087779 431.766523 L 269.771235 435.707701 L 270.454692 439.648879 L 271.138149 443.590058 L 271.821606 447.531236 L 272.505063 451.472415 L 273.188519 455.413593 L 273.898978 459.349785 L 274.668288 463.275108 L 275.437598 467.200431 L 276.206908 471.125754 L 276.976218 475.051077 L 277.745528 478.976400 L 278.514838 482.901724 L 279.284148 486.827047 L 280.078243 490.747381 L 280.887680 494.664626 L 281.697116 498.581872 L 282.506553 502.499117 L 283.315989 506.416363 L 284.125426 510.333608 L 284.934862 514.250854 L 285.744299 518.168099 L 286.553735 522.085345 L 287.363172 526.002590 L 288.172608 529.919836 L 289.031020 533.826354 L 289.933212 537.723282 L 290.835404 541.620210 L 291.737596 545.517139 L 292.639788 549.414067 L 293.541980 553.310995 L 294.444172 557.207923 L 295.346364 561.104851 L 296.248556 565.001780 L 297.150748 568.898708 L 297.971985 572.445958" fill="none" id="20" stroke="black" stroke-width="0.54239" /><path d="M 288.712145 124.926268 L 287.454301 128.494616 L 286.929690 132.458667 L 286.561863 136.441719 L 286.194035 140.424771 L 285.826208 144.407823 L 285.458381 148.390875 L 285.090553 152.373927 L 284.722726 156.356979 L 284.354899 160.340031 L 283.987071 164.323083 L 283.646404 168.308348 L 283.364313 172.298389 L 283.082222 176.288430 L 282.800131 180.278470 L 282.518040 184.268511 L 282.235949 188.258552 L 281.953858 192.248592 L 281.696240 196.239923 L 281.557235 200.237507 L 281.418229 204.235091 L 281.279224 208.232675 L 281.140219 212.230259 L 281.001213 216.227843 L 280.862208 220.225427 L 280.796889 224.224441 L 280.780667 228.224408 L 280.764445 232.224376 L 280.748222 236.224343 L 280.732000 240.224310 L 280.715777 244.224277 L 280.699555 248.224244 L 280.683333 252.224211 L 280.735915 256.223748 L 280.802160 260.223199 L 280.868404 264.222651 L 281.055643 268.218232 L 281.245154 272.213740 L 281.434664 276.209248 L 281.716345 280.199307 L 281.998954 284.189311 L 282.281563 288.179315 L 282.564172 292.169319 L 282.846781 296.159323 L 283.129390 300.149327 L 283.481382 304.133464 L 283.872822 308.114265 L 284.264261 312.095065 L 284.655701 316.075866 L 285.047140 320.056667 L 285.438580 324.037468 L 285.830019 328.018269 L 286.331936 331.986439 L 286.849101 335.952865 L 287.366266 339.919292 L 287.883431 343.885718 L 288.400596 347.852145 L 288.917761 351.818572 L 289.434926 355.784998 L 290.059574 359.735711 L 290.699569 363.684180 L 291.339564 367.632649 L 291.979560 371.581118 L 292.619555 375.529586 L 293.259550 379.478055 L 293.899546 383.426524 L 294.589856 387.366359 L 295.302776 391.302314 L 296.015696 395.238270 L 296.728615 399.174225 L 297.441535 403.110181 L 298.154455 407.046136 L 298.867374 410.982092 L 299.580294 414.918047 L 300.293214 418.854003 L 301.006133 422.789958 L 301.719053 426.725914 L 302.431973 430.661869 L 303.144892 434.597825 L 303.857812 438.533780 L 304.570732 442.469736 L 305.347878 446.393448 L 306.132961 450.315647 L 306.918044 454.237846 L 307.703127 458.160044 L 308.488211 462.082243 L 309.273294 466.004442 L 310.058377 469.926641 L 310.898314 473.837129 L 311.783424 477.737973 L 312.668534 481.638816 L 313.553643 485.539660 L 314.438753 489.440503 L 315.323863 493.341347 L 316.208973 497.242191 L 317.094082 501.143034 L 317.979192 505.043878 L 318.864302 508.944721 L 319.749411 512.845565 L 320.704049 516.729912 L 321.665676 520.612601 L 322.627302 524.495290 L 323.588929 528.377979 L 324.550555 532.260669 L 325.512182 536.143358 L 326.477281 540.025176 L 327.460401 543.902479 L 328.443521 547.779781 L 329.426641 551.657084 L 330.409761 555.534387 L 331.392881 559.411689 L 332.376001 563.288992 L 333.359121 567.166294 L 334.342241 571.043597 L 335.325362 574.920899 L 336.358340 578.785098 L 337.408588 582.644759 L 338.458836 586.504419 L 339.509084 590.364080 L 340.559332 594.223740 L 341.609580 598.083401 L 342.659828 601.943061 L 343.710076 605.802722 L 344.397185 608.327848" fill="none" id="21" stroke="black" stroke-width="0.54239" /><path d="M 306.664895 578.729418 L 305.237904 575.075609 L 303.230877 571.615574 L 301.217653 568.159262 L 299.105421 564.762428 L 296.993190 561.365595 L 294.880958 557.968761 L 292.925038 554.479791 L 290.976081 550.986718 L 289.157278 547.425102 L 287.379682 543.841786 L 285.602086 540.258470 L 283.824490 536.675154 L 282.178497 533.031766 L 280.635788 529.341230 L 279.093080 525.650695 L 277.551588 521.959681 L 276.163101 518.208400 L 274.775947 514.456649 L 273.501149 510.665226 L 272.226351 506.873803 L 270.951553 503.082380 L 269.676755 499.290957 L 268.531299 495.459437 L 267.437971 491.611758 L 266.853875 489.556188" fill="none" id="22" stroke="black" stroke-width="0.54239" /><path d="M 357.216075 607.879028 L 357.917604 606.656145 L 361.584991 608.244667 L 365.552985 608.735780 L 368.124554 606.190400 L 369.783420 602.550597 L 370.853875 600.201858" fill="none" id="23" stroke="black" stroke-width="0.54239" /><path d="M 279.704265 483.957768 L 280.686719 487.835239 L 281.669173 491.712710 L 282.651627 495.590182 L 283.641551 499.465674 L 284.708068 503.320871 L 285.774584 507.176067 L 286.841101 511.031264 L 287.858776 514.899292 L 288.824792 518.780891 L 289.790807 522.662491 L 290.756823 526.544090 L 291.722839 530.425689 L 292.688855 534.307289 L 293.722565 538.171070 L 294.792749 542.025250 L 295.862934 545.879430 L 297.030090 549.704172 L 298.283165 553.502830 L 299.536239 557.301488 L 300.789314 561.100146 L 302.042388 564.898805 L 303.295463 568.697463 L 304.548537 572.496121 L 305.878638 576.266782 L 307.357194 579.983484 L 308.898823 583.673530 L 310.533834 587.324111 L 312.356849 590.882221 L 314.393418 594.319184 L 314.633405 594.674298" fill="none" id="24" stroke="black" stroke-width="0.54239" /><path d="M 302.601905 564.201858 L 301.657025 566.095805 L 302.537509 569.985054 L 304.071037 573.661094 L 306.220899 576.999588 L 308.852495 580.004860 L 311.818318 582.687805 L 315.199425 584.765893 L 316.145215 585.130998" fill="none" id="25" stroke="black" stroke-width="0.54239" /><path d="M 331.357805 553.760918 L 329.940485 554.559035 L 331.182246 558.337660 L 332.564515 562.091235 L 334.374512 565.655481 L 336.860561 568.766679 L 340.078908 571.103542 L 343.813461 572.486214 L 344.680645 572.753038" fill="none" id="26" stroke="black" stroke-width="0.54239" /><path d="M 390.066475 590.587688 L 388.818214 591.380805 L 392.538455 592.838703 L 396.423104 593.537393 L 399.123940 590.831594 L 401.284429 587.465248 L 402.160955 586.099498" fill="none" id="27" stroke="black" stroke-width="0.54239" /><path d="M 254.790885 136.477448 L 255.808441 132.806810 L 256.721324 128.919616 L 257.763591 125.057792 L 259.110807 121.296313 L 260.582731 117.577595 L 262.348308 113.991981 L 264.401453 110.559240 L 267.154557 107.667274 L 270.406184 105.358873 L 274.233056 104.279428 L 278.225750 104.310031 L 281.993201 105.607484 L 285.335974 107.765168 L 288.080893 110.654383 L 290.151136 114.067374 L 291.554387 117.807008 L 291.767255 118.406588" fill="none" id="28" stroke="black" stroke-width="0.54239" /><path d="M 22.822375 226.099498 L 25.348093 223.003649 L 28.037634 220.042844 L 30.727176 217.082039 L 33.477249 214.177834 L 36.251017 211.295784 L 39.024785 208.413734 L 41.724681 205.466207 L 44.252890 202.366504 L 46.814564 199.295519 L 49.494627 196.326131 L 52.330239 193.509065 L 55.242776 190.767326 L 58.161253 188.032251 L 61.217587 185.451781 L 64.273921 182.871312 L 67.330255 180.290842 L 70.386589 177.710373 L 73.442923 175.129904 L 76.578559 172.647218 L 79.734520 170.189595 L 82.956657 167.822641 L 86.259444 165.566183 L 89.573855 163.327815 L 92.998652 161.261233 L 96.423449 159.194650 L 99.848247 157.128068 L 103.273044 155.061485 L 106.697841 152.994903 L 110.122639 150.928320 L 113.547436 148.861738 L 117.034753 146.908264 L 120.606514 145.107563 L 124.213315 143.382839 L 127.901778 141.835181 L 131.590240 140.287523 L 135.294167 138.781189 L 139.092468 137.527032 L 142.890769 136.272876 L 146.689071 135.018720 L 150.498793 133.802533 L 154.358682 132.753125 L 158.225751 131.731902 L 162.117259 130.806611 L 166.008767 129.881319 L 169.900276 128.956028 L 173.791784 128.030736 L 177.732300 127.359018 L 181.688339 126.767618 L 185.661895 126.389543 L 189.661417 126.327696 L 193.656435 126.336241 L 197.615468 126.907254 L 201.493611 127.849019 L 205.291389 129.092737 L 208.934370 130.738936 L 212.482741 132.578504 L 215.641275 134.445958" fill="none" id="29" stroke="black" stroke-width="0.54239" /><path d="M 430.633405 6.012888 L 434.233712 4.353864 L 438.019753 3.063171 L 441.982022 2.526727 L 445.961254 2.196655 L 449.961114 2.163197 L 453.954362 2.259160 L 457.929991 2.700039 L 461.897952 3.195513 L 465.841200 3.866926 L 469.728200 4.798954 L 473.597357 5.813660 L 477.452276 6.877792 L 481.268357 8.076762 L 485.060394 9.346865 L 488.821323 10.709000 L 492.514606 12.233954 L 496.133514 13.937921 L 499.640704 15.848846 L 502.955584 18.082602 L 506.199945 20.422287 L 509.321342 22.917379 L 512.344442 25.536705 L 515.321260 28.206201 L 518.167899 31.015986 L 520.895854 33.941436 L 523.623808 36.866887 L 526.286288 39.850804 L 528.856183 42.915027 L 531.299239 46.082278 L 533.742294 49.249529 L 536.103387 52.476619 L 538.375880 55.768393 L 540.648372 59.060167 L 542.920865 62.351942 L 545.150337 65.671743 L 547.243187 69.080552 L 549.187460 72.574831 L 551.047881 76.114717 L 552.719891 79.748500 L 554.295565 83.423563 L 555.773358 87.140568 L 557.002870 90.943866 L 558.148900 94.776178 L 559.294930 98.608490 L 560.418498 102.446762 L 561.323444 106.343052 L 562.034975 109.406588" fill="none" id="30" stroke="black" stroke-width="0.54239" /><path d="M 30.160955 240.816038 L 32.638566 242.562972 L 36.143432 244.490644 L 39.600622 246.500659 L 43.017393 248.580485 L 46.434164 250.660311 L 49.850935 252.740137 L 53.267706 254.819963 L 56.684477 256.899788 L 60.102822 258.976960 L 63.566960 260.976897 L 67.031098 262.976834 L 70.495235 264.976772 L 73.949161 266.993610 L 77.330703 269.130236 L 80.712246 271.266862 L 84.093788 273.403487 L 87.470727 275.547033 L 90.747798 277.840678 L 94.024868 280.134323 L 97.301939 282.427968 L 100.579009 284.721614 L 103.856080 287.015259 L 107.005044 289.480375 L 110.133794 291.972547 L 113.262544 294.464720 L 116.391294 296.956892 L 119.600412 299.342643 L 122.853611 301.670022 L 126.106811 303.997401 L 129.360011 306.324779 L 132.535139 308.755782 L 135.669503 311.240889 L 138.803868 313.725996 L 142.037190 316.079847 L 145.288890 318.409321 L 148.540590 320.738795 L 150.538915 322.170368" fill="none" id="32" stroke="black" stroke-width="0.54239" /><path d="M 31.924735 239.493198 L 28.418258 238.129828 L 30.564239 241.271117 L 33.585379 243.891626 L 36.660063 246.450204 L 39.723087 249.022431 L 42.730692 251.659534 L 45.738297 254.296637 L 48.745902 256.933740 L 51.753507 259.570843 L 54.831639 262.124823 L 57.923369 264.662775 L 61.015100 267.200728 L 64.106830 269.738680 L 67.198561 272.276632 L 70.290292 274.814584 L 73.377243 277.358288 L 76.438251 279.933211 L 79.499258 282.508135 L 82.560266 285.083059 L 85.621273 287.657983 L 88.682281 290.232907 L 91.743289 292.807831 L 94.804296 295.382755 L 97.947772 297.856195 L 101.094396 300.325761 L 104.241020 302.795328 L 107.267233 305.408572 L 110.248948 308.074913 L 113.230663 310.741255 L 116.411674 313.166032 L 119.595975 315.586824 L 122.923932 317.802627 L 126.286084 319.969637 L 129.648236 322.136648 L 132.988270 324.336273 L 136.245340 326.658231 L 139.502411 328.980190 L 142.829054 331.197369 L 146.232944 333.298209 L 149.712619 335.268482 L 153.225192 337.182072 L 156.737765 339.095663 L 160.250338 341.009253 L 163.777828 342.893470 L 167.395278 344.600531 L 171.012728 346.307591 L 174.630178 348.014652 L 178.247628 349.721713 L 181.865077 351.428774 L 185.652050 352.712752 L 189.553579 353.515381 L 193.512882 353.903131 L 197.090095 352.482829 L 198.069393 348.649804 L 199.036302 344.789419 L 199.283262 340.806934 L 199.263325 337.217608" fill="none" id="33" stroke="black" stroke-width="0.54239" /><path d="M 29.310565 241.571938 L 26.561580 241.253198 L 29.591991 243.832828 L 32.795536 246.228093 L 35.999082 248.623358 L 39.068304 251.180565 L 42.014424 253.886184 L 44.996478 256.551409 L 48.026865 259.162300 L 51.057253 261.773192 L 54.156848 264.301308 L 57.263188 266.821358 L 60.369528 269.341409 L 63.475867 271.861459 L 66.582207 274.381510 L 69.688546 276.901560 L 72.794886 279.421611 L 75.901225 281.941661 L 79.026973 284.436900 L 82.220798 286.845112 L 85.414623 289.253323 L 88.608448 291.661535 L 91.837340 294.021895 L 95.095686 296.342063 L 98.354033 298.662230 L 101.612380 300.982398 L 104.788618 303.406687 L 107.804512 306.034305 L 110.924171 308.534158 L 114.161634 310.881382 L 117.466835 313.134303 L 120.772035 315.387224 L 124.077235 317.640144 L 127.541939 319.638166 L 131.013225 321.625671 L 134.492673 323.598035 L 138.060974 325.405584 L 141.629274 327.213132 L 145.197575 329.020680 L 148.765876 330.828228 L 152.334176 332.635776 L 155.902477 334.443325 L 159.470778 336.250873 L 163.039460 338.057640 L 166.656939 339.764639 L 170.274418 341.471639 L 173.802758 343.355075 L 177.426877 345.016282 L 181.039100 346.730924 L 184.641619 348.469272 L 188.335607 349.989896 L 192.098735 351.345944 L 195.913137 352.532667 L 199.798143 353.407696 L 203.718092 352.611457 L 206.328617 349.786202 L 206.572670 345.816771 L 206.633405 343.548318" fill="none" id="34" stroke="black" stroke-width="0.54239" /><path d="M 63.830255 256.005008 L 66.848676 258.629724 L 69.867097 261.254440 L 72.885518 263.879156 L 75.903939 266.503872 L 78.922360 269.128588 L 82.142678 271.500338 L 85.371390 273.861571 L 88.600101 276.222804 L 91.828813 278.584036 L 95.057525 280.945269 L 98.286237 283.306502 L 101.514949 285.667735 L 104.698506 288.088428 L 107.839883 290.564665 L 110.981259 293.040903 L 114.178044 295.443856 L 117.428585 297.774268 L 120.765711 299.979623 L 124.102836 302.184978 L 127.439962 304.390334 L 130.777088 306.595689 L 134.114213 308.801045 L 137.451339 311.006400 L 140.788464 313.211756 L 144.125590 315.417111 L 147.462716 317.622466 L 150.840534 319.763693 L 154.257084 321.843882 L 157.673635 323.924070 L 161.090185 326.004258 L 164.506736 328.084446 L 167.875278 330.239779 L 171.198757 332.465648 L 174.522235 334.691516 L 177.962351 336.731846 L 181.408917 338.761915 L 184.855483 340.791985 L 188.302049 342.822054 L 191.748615 344.852124 L 194.968644 347.169727 L 198.404692 349.217548 L 201.159095 350.312313 L 199.633518 349.712372 L 196.031313 347.973374 L 192.449611 346.195825 L 188.994090 344.181035 L 185.538570 342.166245 L 182.139167 340.063769 L 178.862240 337.769919 L 175.760456 335.246674 L 172.684266 332.689907 L 169.608076 330.133141 L 166.356232 327.810000 L 163.045744 325.564856 L 159.731154 323.325947 L 156.359209 321.174207 L 152.987263 319.022467 L 149.615318 316.870727 L 146.243373 314.718987 L 144.964105 313.902648" fill="none" id="36" stroke="black" stroke-width="0.54239" /><path d="M 27.515295 213.178238 L 31.044157 215.061621 L 34.573019 216.945005 L 38.027532 218.958078 L 41.435885 221.051670 L 44.813759 223.193529 L 48.169079 225.371103 L 51.524399 227.548677 L 54.879719 229.726251 L 58.235038 231.903825 L 61.590358 234.081399 L 64.945678 236.258973 L 68.300998 238.436547 L 71.656318 240.614121 L 75.011638 242.791695 L 78.366958 244.969269 L 81.722278 247.146843 L 85.077598 249.324417 L 88.432917 251.501991 L 91.780957 253.690513 L 95.086768 255.942537 L 98.392579 258.194561 L 101.698390 260.446585 L 104.938404 262.791685 L 108.164167 265.156945 L 111.389930 267.522205 L 114.631628 269.865249 L 117.906199 272.162461 L 121.180771 274.459672 L 124.455342 276.756884 L 127.729914 279.054096 L 131.004485 281.351307 L 134.315471 283.595261 L 137.644322 285.813087 L 140.973173 288.030914 L 144.302023 290.248740 L 147.697982 292.362157 L 151.105346 294.457144 L 154.545539 296.497996 L 157.985731 298.538849 L 161.425923 300.579701 L 164.866115 302.620553 L 168.306307 304.661405 L 171.746500 306.702257 L 175.186692 308.743110 L 178.626884 310.783962 L 182.083265 312.796470 L 185.588900 314.722742 L 189.094535 316.649014 L 192.631589 318.516352 L 196.184838 320.353311 L 199.738088 322.190270 L 203.291337 324.027229 L 206.844586 325.864188 L 210.397836 327.701147 L 213.967763 329.505140 L 217.552721 331.279421 L 221.137680 333.053702 L 224.722638 334.827983 L 228.307596 336.602264 L 231.908759 338.342611 L 235.542281 340.015188 L 236.649145 340.524698" fill="none" id="37" stroke="black" stroke-width="0.54239" /><path d="M 196.680645 354.957768 L 200.570162 355.802278 L 204.445602 356.771355 L 208.400305 357.371623 L 212.386564 357.687096 L 216.382045 357.816038 L 220.382045 357.816038 L 224.382045 357.816038 L 228.376425 357.650470 L 232.367217 357.379220 L 236.357083 357.096981 L 240.336961 356.696267 L 244.316839 356.295554 L 248.295150 355.880591 L 252.267052 355.407303 L 256.238953 354.934016 L 260.210854 354.460728 L 264.175194 353.928616 L 268.137672 353.382020 L 272.100150 352.835424 L 276.062628 352.288828 L 280.025106 351.742232 L 283.987584 351.195637 L 287.925020 350.491533 L 291.861633 349.782251 L 295.798246 349.072969 L 299.734858 348.363687 L 303.654410 347.566234 L 307.571451 346.755811 L 311.488493 345.945387 L 315.405534 345.134964 L 319.306361 344.251315 L 323.199361 343.332323 L 327.092362 342.413331 L 330.985363 341.494340 L 334.878364 340.575348 L 338.771364 339.656356 L 342.664365 338.737365 L 346.532845 337.722079 L 350.391241 336.667196 L 354.249637 335.612313 L 358.108034 334.557430 L 361.966430 333.502547 L 365.788601 332.325588 L 369.597868 331.105144 L 373.407135 329.884699 L 377.216402 328.664255 L 381.025669 327.443810 L 384.809237 326.147357 L 388.577553 324.805792 L 392.345868 323.464227 L 392.397185 323.445958" fill="none" id="38" stroke="black" stroke-width="0.54239" /><path d="M 211.105845 357.485328 L 207.857697 358.165138 L 204.222719 359.813398 L 200.423986 360.991426 L 200.626700 359.006168 L 204.619420 359.213611 L 208.618898 359.278221 L 212.618376 359.342830 L 216.618055 359.309744 L 220.617765 359.261580 L 224.617475 359.213417 L 228.610120 359.028454 L 232.593514 358.664347 L 236.576908 358.300240 L 240.532699 357.711835 L 244.485518 357.099281 L 248.438336 356.486726 L 252.391155 355.874172 L 256.343974 355.261618 L 260.296793 354.649063 L 264.219824 353.870474 L 268.139059 353.070724 L 272.058293 352.270974 L 275.957724 351.383831 L 279.838856 350.415938 L 283.719987 349.448046 L 287.601119 348.480153 L 291.482251 347.512261 L 295.363383 346.544368 L 299.244515 345.576476 L 303.022858 344.267056 L 306.793492 342.932021 L 310.564126 341.596986 L 314.187769 339.925703 L 317.635394 337.903184 L 319.137335 336.957768" fill="none" id="39" stroke="black" stroke-width="0.54239" /><path d="M 255.357805 362.516818 L 255.305328 365.327581 L 256.028354 369.261692 L 256.751380 373.195804 L 257.474406 377.129915 L 258.183615 381.066428 L 258.830357 385.013797 L 259.477100 388.961167 L 260.123842 392.908536 L 260.770584 396.855905 L 261.303459 400.820153 L 261.829613 404.785397 L 262.355768 408.750642 L 262.881922 412.715886 L 263.408077 416.681130 L 263.934231 420.646374 L 264.460385 424.611618 L 265.044698 428.568310 L 265.682370 432.517155 L 266.320043 436.465999 L 266.957715 440.414844 L 267.685534 444.347907 L 268.427242 448.278540 L 269.168949 452.209172 L 269.910939 456.139746 L 270.778660 460.044495 L 271.646381 463.949243 L 272.514102 467.853992 L 273.381823 471.758740 L 274.249544 475.663488 L 275.117265 479.568237 L 276.030580 483.462297 L 276.988585 487.345881 L 277.946590 491.229466 L 278.904595 495.113050 L 279.862601 498.996634 L 280.820606 502.880218 L 281.778611 506.763802 L 282.736616 510.647387 L 283.694621 514.530971 L 284.652626 518.414555 L 285.610631 522.298139 L 286.568637 526.181723 L 287.619099 530.041193 L 288.679889 533.897970 L 289.740679 537.754746 L 290.801469 541.611523 L 291.905109 545.455894 L 293.068863 549.282860 L 294.262410 553.100349 L 295.523796 556.896255 L 296.785182 560.692162 L 298.046568 564.488068 L 298.948365 567.201858" fill="none" id="40" stroke="black" stroke-width="0.54239" /><path d="M 441.688515 207.060128 L 441.688515 211.060128 L 441.688515 215.060128 L 441.911829 219.053606 L 442.145252 223.046790 L 442.361100 227.040686 L 442.451779 231.039658 L 442.508980 235.039026 L 442.513030 239.039024 L 442.517080 243.039022 L 442.521131 247.039020 L 442.525181 251.039018 L 442.529231 255.039016 L 442.533281 259.039014 L 442.537331 263.039012 L 442.469354 267.038018 L 442.355113 271.036386 L 442.065219 275.025683 L 441.766985 279.014550 L 441.468752 283.003416 L 441.170518 286.992283 L 440.872285 290.981150 L 440.551968 294.968121 L 440.166031 298.949459 L 439.780095 302.930797 L 439.394158 306.912135 L 439.008222 310.893473 L 438.572101 314.869601 L 438.131998 318.845316 L 437.691896 322.821031 L 437.251793 326.796746 L 436.803221 330.771454 L 436.298772 334.739518 L 435.794323 338.707582 L 435.289875 342.675646 L 434.785426 346.643710 L 434.280977 350.611774 L 433.776528 354.579838 L 433.272080 358.547902 L 432.748956 362.513370 L 432.152145 366.468597 L 431.555334 370.423823 L 430.958523 374.379050 L 430.361712 378.334276 L 429.764901 382.289503 L 429.128380 386.238222 L 428.431557 390.177059 L 427.734734 394.115896 L 427.037912 398.054733 L 426.341089 401.993570 L 425.644266 405.932407 L 424.936390 409.869225 L 424.195336 413.799980 L 423.454282 417.730736 L 422.713228 421.661491 L 421.972174 425.592247 L 421.231120 429.523003 L 420.490067 433.453758 L 419.720978 437.379097 L 418.944422 441.302993 L 418.167866 445.226889 L 417.391310 449.150785 L 416.614754 453.074681 L 415.838197 456.998578 L 415.061641 460.922474 L 414.285085 464.846370 L 413.508529 468.770266 L 412.731973 472.694162 L 411.931685 476.613194 L 411.102063 480.526214 L 410.272442 484.439235 L 409.442820 488.352255 L 408.613198 492.265275 L 407.783576 496.178296 L 406.953954 500.091316 L 406.124332 504.004336 L 405.294711 507.917356 L 404.465089 511.830377 L 403.635467 515.743397 L 402.805845 519.656417 L 401.976223 523.569437 L 401.146602 527.482458 L 400.316980 531.395478 L 399.487358 535.308498 L 398.657736 539.221519 L 397.828114 543.134539 L 396.998493 547.047559 L 396.147070 550.955794 L 395.261418 554.856514 L 394.375766 558.757235 L 393.490114 562.657955 L 392.604462 566.558676 L 391.718810 570.459396 L 390.833158 574.360117 L 389.947506 578.260837 L 389.061854 582.161558 L 388.176202 586.062278 L 387.290550 589.962999 L 386.404898 593.863719 L 385.625525 597.296348" fill="none" id="41" stroke="black" stroke-width="0.54239" /><path d="M 370.318435 607.619188 L 367.101283 609.794594 L 369.307524 609.356828 L 373.113696 608.150730 L 376.763568 606.534848 L 380.369903 604.804432 L 383.976239 603.074015 L 387.625192 601.436232 L 391.285665 599.823488 L 391.767255 599.611308" fill="none" id="42" stroke="black" stroke-width="0.54239" /><path d="M 443.105845 213.579818 L 444.062168 211.158674 L 444.338563 207.168235 L 444.614959 203.177796 L 444.910874 199.189322 L 445.523199 195.238821 L 446.341743 191.323468 L 447.378174 187.465096 L 448.611267 183.661594 L 450.228482 180.003372 L 452.051046 176.445467 L 454.353936 173.181523 L 457.493920 170.755660 L 461.354754 169.909584 L 465.246497 170.496223 L 468.918305 172.050461 L 472.235346 174.268683 L 472.617655 174.579818" fill="none" id="43" stroke="black" stroke-width="0.54239" /><path d="M 449.342065 204.627058 L 448.906377 200.773924 L 449.193226 196.797003 L 450.064793 192.893112 L 451.215205 189.062983 L 452.542977 185.291378 L 453.940260 181.543365 L 455.498702 177.860642 L 457.283727 174.289551 L 459.692994 171.126034 L 463.380032 169.916283 L 467.379418 169.986366 L 471.321773 170.500690 L 474.897616 172.187518 L 477.187059 175.417486 L 478.361350 179.219195 L 478.825411 183.185956 L 479.042845 186.083748" fill="none" id="44" stroke="black" stroke-width="0.54239" /><path d="M 479.137335 178.241228 L 478.798476 182.187940 L 478.744531 186.187094 L 478.725090 190.187047 L 478.705649 194.187000 L 478.686208 198.186953 L 478.666766 202.186905 L 478.487687 206.182555 L 478.291603 210.177746 L 478.092638 214.172712 L 477.665468 218.149837 L 477.238299 222.126962 L 476.673170 226.086488 L 476.088198 230.043483 L 475.503227 234.000478 L 474.918255 237.957473 L 474.333284 241.914468 L 473.719013 245.866726 L 473.027376 249.806477 L 472.335739 253.746228 L 471.644102 257.685979 L 470.952466 261.625730 L 470.260829 265.565482 L 470.097965 266.493198" fill="none" id="45" stroke="black" stroke-width="0.54239" /><path d="M 27.515295 218.729418 L 30.006515 218.070477 L 32.720636 215.132187 L 35.434757 212.193897 L 38.148878 209.255607 L 40.862999 206.317317 L 43.579681 203.381487 L 46.406256 200.551210 L 49.232832 197.720932 L 52.240673 195.085684 L 55.269893 192.473439 L 58.353232 189.928312 L 61.548290 187.521736 L 64.743348 185.115161 L 67.938406 182.708586 L 71.133464 180.302010 L 74.381588 177.968188 L 77.649080 175.660917 L 80.916571 173.353645 L 84.205232 171.077482 L 87.550511 168.884513 L 90.895789 166.691544 L 94.241068 164.498576 L 97.600230 162.327065 L 100.971491 160.174252 L 104.342751 158.021439 L 107.714011 155.868626 L 111.085272 153.715813 L 114.456532 151.563000 L 117.894803 149.520786 L 121.363754 147.529209 L 124.832704 145.537632 L 128.301655 143.546054 L 131.838719 141.682149 L 135.424694 139.909923 L 139.010669 138.137697 L 142.596643 136.365471 L 146.210001 134.651503 L 149.862754 133.021350 L 153.525657 131.414557 L 157.209796 129.856637 L 160.893936 128.298717 L 164.578076 126.740797 L 168.276505 125.218196 L 172.007447 123.775949 L 174.286945 122.894778" fill="none" id="46" stroke="black" stroke-width="0.54239" /><path d="M 206.633405 135.721548 L 210.131385 137.397622 L 212.844989 140.311400 L 215.108897 143.607851 L 217.167492 147.034890 L 219.129512 150.519874 L 220.948622 154.082294 L 222.709574 157.672463 L 224.334125 161.327710 L 225.624309 165.112875 L 226.792301 168.936382 L 227.810273 172.804680 L 228.828244 176.672979 L 229.614329 180.590565 L 230.257695 184.538486 L 230.707763 188.507608 L 230.935423 192.501124 L 231.163082 196.494641 L 231.175812 200.494470 L 231.182969 204.494464 L 231.190126 208.494458 L 231.197284 212.494451 L 230.980368 216.483909 L 230.597910 220.465583 L 230.215452 224.447256 L 229.803377 228.425123 L 229.166384 232.374077 L 228.529390 236.323031 L 227.892397 240.271986 L 227.216787 244.213782 L 226.396084 248.128682 L 225.575382 252.043583 L 224.754680 255.958484 L 223.933977 259.873384 L 223.113275 263.788285 L 222.288718 267.702315 L 221.345711 271.589568 L 220.402703 275.476821 L 219.459695 279.364074 L 218.516687 283.251327 L 217.515281 287.123620 L 216.473189 290.985490 L 215.431096 294.847361 L 214.389004 298.709231 L 213.346912 302.571102 L 212.245041 306.416325 L 211.141011 310.260947 L 210.036980 314.105569 L 208.932949 317.950190 L 207.828919 321.794812 L 206.724888 325.639434 L 205.620858 329.484056 L 204.471809 333.315335 L 203.302575 337.140631 L 202.133340 340.965927 L 200.964105 344.791223 L 199.794871 348.616519 L 198.559412 352.420680 L 197.296510 356.216082 L 196.033608 360.011485 L 194.770706 363.806887 L 193.507804 367.602289 L 192.244902 371.397691 L 190.982000 375.193094 L 190.538915 376.524698" fill="none" id="47" stroke="black" stroke-width="0.54239" /><path d="M 28.743635 243.343588 L 32.158269 245.426920 L 35.572903 247.510253 L 38.851086 249.796055 L 41.903212 252.378005 L 44.910967 255.014937 L 47.966239 257.595570 L 51.070937 260.117643 L 54.175634 262.639716 L 57.280332 265.161790 L 60.385029 267.683863 L 63.489726 270.205936 L 66.594424 272.728010 L 69.699121 275.250083 L 72.803819 277.772156 L 75.908516 280.294230 L 79.013214 282.816303 L 82.117911 285.338376 L 85.290785 287.771845 L 88.524209 290.126620 L 91.757634 292.481396 L 94.991058 294.836172 L 98.224482 297.190948 L 101.444010 299.564068 L 104.586445 302.038962 L 107.728880 304.513857 L 110.871314 306.988752 L 114.013749 309.463647 L 117.156184 311.938541 L 120.401797 314.276161 L 123.652742 316.606689 L 126.903687 318.937217 L 130.265605 321.103348 L 133.642700 323.246996 L 137.019796 325.390644 L 140.420128 327.494934 L 143.928417 329.416368 L 147.436705 331.337803 L 150.944994 333.259238 L 154.638633 334.786228 L 158.356990 336.260615 L 162.175683 337.442099 L 166.048830 338.434735 L 169.948527 339.324884 L 170.444425 339.438078" fill="none" id="48" stroke="black" stroke-width="0.54239" /><path d="M 113.310565 311.682178 L 116.536060 314.047803 L 119.761555 316.413428 L 122.987049 318.779054 L 126.216013 321.139643 L 129.576170 323.309745 L 132.936327 325.479847 L 136.296485 327.649949 L 139.656642 329.820051 L 143.016799 331.990153 L 146.376957 334.160255 L 149.793872 336.238072 L 153.246414 338.257961 L 156.698956 340.277851 L 160.177937 342.251138 L 163.682981 344.178484 L 167.188026 346.105829 L 170.693071 348.033175 L 174.198116 349.960521 L 177.703161 351.887866 L 181.208205 353.815212 L 184.728833 355.712371 L 188.343078 357.423520 L 192.069945 358.876262 L 195.922731 359.933643 L 199.674308 359.861358 L 198.485080 356.400879 L 195.790628 353.447396 L 192.959598 350.621574 L 192.428675 350.091628" fill="none" id="49" stroke="black" stroke-width="0.54239" /></svg>