<?xml version="1.0" encoding="utf-8" ?>
<svg baseProfile="full" height="651.66972" version="1.1" viewBox="0,0,427.66972,651.66972" width="427.66972" xmlns="http://www.w3.org/2000/svg" xmlns:ev="http://www.w3.org/2001/xml-events" xmlns:xlink="http://www.w3.org/1999/xlink"><defs><style type="text/css"><![CDATA[
	.background { fill: white; }
	.line { stroke: firebrick; stroke-width: .1mm; }
	.blacksquare { fill: indigo; }
	.whitesquare { fill: white; }
]]></style></defs><rect class="background" height="100%" width="100%" x="0" y="0" /><path d="M 374.155180 617.514550 L 370.627391 619.399942 L 367.099601 621.285334 L 363.571812 623.170726 L 360.044023 625.056117 L 356.516233 626.941509 L 352.988444 628.826901 L 349.460655 630.712293 L 345.932865 632.597685 L 342.405076 634.483077 L 338.877287 636.368468 L 335.349497 638.253860 L 331.785438 640.069480 L 328.197423 641.835967 L 324.550982 643.480189 L 320.904540 645.124411 L 316.972109 645.222343 L 317.029913 643.644369 L 320.316036 641.369286 L 323.642676 639.148145 L 326.969316 636.927004 L 329.026270 635.553610" fill="none" id="1" stroke="black" stroke-width="0.66972" /><path d="M 83.315330 251.944240 L 79.364653 251.318022 L 75.413975 250.691805 L 72.940330 250.299710" fill="none" id="3" stroke="black" stroke-width="0.66972" /><path d="M 0.334860 144.131740 L 3.671179 146.338316 L 4.522360 146.901270" fill="none" id="4" stroke="black" stroke-width="0.66972" /><path d="M 51.037990 3.944240 L 47.166521 2.938395 L 45.020136 3.246657 L 47.601406 6.302315 L 50.084721 9.427601 L 50.233300 9.678610" fill="none" id="5" stroke="black" stroke-width="0.66972" /><path d="M 384.205960 608.850490 L 384.200784 612.850299 L 384.027829 613.161270 L 383.997266 609.161387 L 383.856589 608.480280 L 383.560959 612.469340 L 383.265328 616.458401 L 383.072563 617.546413 L 383.060208 613.546432 L 383.047853 609.546451 L 382.901741 607.580509 L 382.842017 611.580063 L 382.747795 615.577536 L 382.561430 615.584860" fill="none" id="6" stroke="black" stroke-width="0.66972" /><path d="M 407.944240 597.705960 L 407.686430 595.546747 L 408.000942 591.560708 L 408.073150 593.933927 L 407.664323 597.911884 L 407.234227 601.888694 L 407.010650 602.035281 L 407.010650 598.035281 L 407.101223 594.037102 L 407.262049 590.040337 L 407.317391 592.167635 L 407.330960 594.518460" fill="none" id="7" stroke="black" stroke-width="0.66972" /><path d="M 359.045800 620.479390 L 358.778791 620.931352 L 358.473231 624.918516 L 358.009287 628.891520 L 357.857845 626.949397 L 357.840228 622.949776 L 357.931009 618.950807 L 358.213204 614.967055 L 358.565330 613.795887 L 358.565330 617.795887 L 358.565330 621.795887 L 358.565330 625.795887 L 358.565330 626.405170" fill="none" id="8" stroke="black" stroke-width="0.66972" /><path d="M 370.741110 611.588770 L 370.416900 614.044159 L 370.416900 618.044159 L 370.414247 620.594326 L 370.399609 616.594353 L 370.385650 612.965962 L 370.612210 616.358300" fill="none" id="9" stroke="black" stroke-width="0.66972" /><path d="M 394.319240 601.186420 L 393.838070 599.797017 L 393.738753 603.795784 L 393.577050 602.642606 L 393.567987 599.800484 L 393.505372 603.799993 L 393.319240 605.920800" fill="none" id="10" stroke="black" stroke-width="0.66972" /><path d="M 199.342680 29.135640 L 198.797725 25.175129 L 197.710653 22.631222 L 197.574453 26.628903 L 197.438253 30.626583 L 197.453177 34.624000 L 197.603341 38.621180 L 197.753505 42.618360 L 197.903670 46.615541 L 198.053834 50.612721 L 198.203998 54.609901 L 198.780136 57.963634 L 198.895527 53.966509 L 198.948010 49.966853 L 198.984624 45.967113 L 198.974406 41.967126 L 198.964187 37.967140 L 198.953969 33.967153 L 198.943750 29.967166 L 198.933532 25.967179 L 198.923313 21.967192 L 198.909963 23.999386 L 198.895591 27.999360 L 198.881218 31.999334 L 198.866846 35.999308 L 198.920736 39.998090 L 199.177356 43.987548 L 199.612055 47.963858 L 200.046754 51.940167 L 200.481453 55.916477 L 200.662990 57.577050" fill="none" id="11" stroke="black" stroke-width="0.66972" /><path d="M 380.467680 650.534080 L 379.397343 647.728553 L 378.858300 646.764550" fill="none" id="12" stroke="black" stroke-width="0.66972" /><path d="M 400.280180 76.709860 L 400.745173 79.347517 L 400.869574 83.343775 L 400.910059 82.185547 L 401.367303 78.223487 L 402.373930 78.909029 L 401.820440 82.862736 L 401.405180 83.670800" fill="none" id="13" stroke="black" stroke-width="0.66972" /><path d="M 387.135650 89.596580 L 386.591669 85.681049 L 386.547023 85.527422 L 386.525190 89.527362 L 386.522360 86.564245 L 386.545544 84.386440 L 386.588770 86.084860" fill="none" id="15" stroke="black" stroke-width="0.66972" /><path d="M 418.444240 76.709860 L 418.234460 77.933082 L 417.700923 81.897340 L 417.240990 83.597522 L 417.190330 79.599265 L 417.144104 78.983883 L 417.092680 80.866110" fill="none" id="16" stroke="black" stroke-width="0.66972" /><path d="M 153.342680 20.631740 L 153.502830 24.528211 L 153.842604 21.906016 L 153.053610 23.498920" fill="none" id="18" stroke="black" stroke-width="0.66972" /><path d="M 127.412990 22.983300 L 127.053918 26.964773 L 127.830960 26.784080" fill="none" id="19" stroke="black" stroke-width="0.66972" /><path d="M 126.862210 23.370020 L 128.272062 23.150977 L 132.272047 23.162133 L 136.272031 23.173289 L 140.272016 23.184445 L 144.272000 23.195601 L 148.271984 23.206758 L 152.271969 23.217914 L 156.271953 23.229070 L 160.271938 23.240226 L 164.270757 23.334330 L 168.269475 23.435569 L 172.268194 23.536809 L 176.266913 23.638048 L 180.265631 23.739287 L 184.264350 23.840526 L 188.263068 23.941766 L 192.261787 24.043005 L 196.260506 24.144244 L 200.254708 24.331026 L 204.241859 24.651385 L 208.209122 25.132858 L 212.154496 25.791662 L 216.099870 26.450467 L 220.045244 27.109271 L 223.990619 27.768075 L 227.935993 28.426879 L 231.881367 29.085684 L 235.826741 29.744488 L 239.772115 30.403292 L 243.717489 31.062096 L 247.662863 31.720901 L 251.608237 32.379705 L 255.553612 33.038509 L 259.459221 33.870843 L 263.297781 34.995767 L 267.136341 36.120691 L 270.842755 37.624698 L 274.548788 39.129796 L 278.254820 40.634894 L 281.960853 42.139992 L 285.666886 43.645090 L 289.372919 45.150188 L 293.078952 46.655286 L 296.784985 48.160384 L 300.491018 49.665482 L 304.197051 51.170580 L 307.903084 52.675678 L 311.609117 54.180776 L 315.287395 55.747352 L 318.867409 57.531589 L 322.447422 59.315826 L 325.975433 61.197709 L 329.453890 63.172635 L 332.932347 65.147561 L 336.410805 67.122488 L 339.889262 69.097414 L 343.367720 71.072340 L 346.846177 73.047267 L 350.324634 75.022193 L 353.803092 76.997119 L 357.281549 78.972045 L 360.760007 80.946972 L 364.238464 82.921898 L 367.716922 84.896824 L 371.195379 86.871751 L 374.673836 88.846677 L 378.152294 90.821603 L 381.564744 92.904816 L 384.913945 95.091790 L 388.247914 97.299796 L 391.370543 99.799634 L 394.493171 102.299472 L 397.615800 104.799310 L 400.738428 107.299148 L 402.080960 108.373920" fill="none" id="20" stroke="black" stroke-width="0.66972" /><path d="M 155.049710 25.010640 L 158.603141 23.462249 L 162.147518 21.608229 L 165.691895 19.754209 L 169.289232 18.029892 L 173.118350 16.873235 L 176.947468 15.716579 L 180.776586 14.559922 L 184.605704 13.403265 L 188.434822 12.246609 L 192.263940 11.089952 L 196.171168 10.258555 L 200.107960 9.550271 L 204.044752 8.841987 L 207.981545 8.133703 L 211.918337 7.425419 L 215.855129 6.717135 L 219.791922 6.008851 L 223.728714 5.300567 L 227.665506 4.592283 L 231.630514 4.078413 L 235.606234 3.638361 L 239.594102 3.344144 L 243.587838 3.120379 L 247.581575 2.896614 L 251.575311 2.672850 L 255.569047 2.449085 L 259.562784 2.225321 L 263.556520 2.001556 L 267.550256 1.777792 L 271.543992 1.554027 L 275.537729 1.330262 L 279.531465 1.106498 L 283.525201 0.882733 L 287.518937 0.658969 L 291.512674 0.435204 L 295.509865 0.334860 L 299.509865 0.334860 L 303.500218 0.399572 L 307.326308 1.566206 L 311.152398 2.732840 L 314.978488 3.899474 L 318.804579 5.066108 L 322.630669 6.232742 L 326.456759 7.399376 L 330.282849 8.566010 L 334.108939 9.732644 L 337.935029 10.899278 L 341.761119 12.065912 L 345.587209 13.232546 L 349.286905 14.700350 L 352.799640 16.613644 L 356.312374 18.526938 L 359.825109 20.440233 L 363.337844 22.353527 L 366.717528 24.490783 L 370.077850 26.660630 L 373.438172 28.830476 L 376.798494 31.000323 L 380.158816 33.170170 L 383.519138 35.340017 L 386.879460 37.509864 L 390.239783 39.679710 L 393.600105 41.849557 L 396.960427 44.019404 L 400.114679 46.456903 L 403.071552 49.150767 L 405.838824 52.029136 L 408.451155 55.058283 L 411.063486 58.087429 L 413.675816 61.116576 L 414.291900 61.830960" fill="none" id="21" stroke="black" stroke-width="0.66972" /><path d="M 201.885650 521.073140 L 204.494805 520.329141 L 206.899657 519.344848 L 205.366110 519.366110" fill="none" id="23" stroke="black" stroke-width="0.66972" /><path d="M 315.303610 583.405170 L 318.937036 581.955960 L 319.877830 581.955960" fill="none" id="24" stroke="black" stroke-width="0.66972" /><path d="M 312.080960 586.334860 L 313.900427 586.871659 L 317.019174 584.455629 L 319.384532 581.229938 L 321.749889 578.004247 L 324.115247 574.778556 L 326.205284 571.374615 L 327.895665 567.749341 L 329.586046 564.124067 L 331.276428 560.498793 L 332.966809 556.873519 L 334.657190 553.248245 L 336.258601 549.583902 L 337.771126 545.881118 L 339.171414 542.134227 L 340.571701 538.387336 L 341.971989 534.640444 L 343.372277 530.893553 L 344.772565 527.146662 L 346.172852 523.399771 L 347.573140 519.652879 L 348.973428 515.905988 L 350.373715 512.159097 L 351.712711 508.390357 L 352.998216 504.602551 L 354.240002 500.801266 L 355.310473 496.947166 L 356.380943 493.093065 L 357.451414 489.238964 L 358.521884 485.384863 L 359.592355 481.530762 L 360.662825 477.676662 L 361.733296 473.822561 L 362.803767 469.968460 L 363.874237 466.114359 L 364.944708 462.260259 L 366.015178 458.406158 L 367.085649 454.552057 L 368.156120 450.697956 L 369.226590 446.843856 L 370.297061 442.989755 L 371.101081 439.072258 L 371.881062 435.149041 L 372.646388 431.223327 L 373.209655 427.263184 L 373.772923 423.303042 L 374.336190 419.342899 L 374.899458 415.382757 L 375.462726 411.422614 L 376.025993 407.462471 L 376.589261 403.502329 L 377.152528 399.542186 L 377.715796 395.582043 L 378.279063 391.621901 L 378.842331 387.661758 L 379.405598 383.701615 L 379.968866 379.741473 L 380.532133 375.781330 L 381.095401 371.821188 L 381.470194 367.839207 L 381.827406 363.855189 L 382.184618 359.871171 L 382.427737 355.878874 L 382.649422 351.885021 L 382.871107 347.891169 L 383.092793 343.897317 L 383.314478 339.903465 L 383.536163 335.909613 L 383.757849 331.915760 L 383.979534 327.921908 L 384.201220 323.928056 L 384.422905 319.934204 L 384.644590 315.940351 L 384.866276 311.946499 L 385.087961 307.952647 L 385.309647 303.958795 L 385.531332 299.964943 L 385.753017 295.971090 L 385.974703 291.977238 L 386.196388 287.983386 L 386.418074 283.989534 L 386.534554 279.991299 L 386.645784 275.992846 L 386.757014 271.994393 L 386.868244 267.995940 L 386.979475 263.997486 L 387.090705 259.999033 L 387.201935 256.000580 L 387.313165 252.002127 L 387.424395 248.003674 L 387.535626 244.005220 L 387.646856 240.006767 L 387.758086 236.008314 L 387.869316 232.009861 L 387.980547 228.011408 L 388.091777 224.012955 L 388.203007 220.014501 L 388.314237 216.016048 L 388.425468 212.017595 L 388.536698 208.019142 L 388.647928 204.020689 L 388.759158 200.022236 L 388.870388 196.023782 L 388.981619 192.025329 L 388.968192 188.027348 L 388.826671 184.029852 L 388.685150 180.032357 L 388.543629 176.034861 L 388.402108 172.037365 L 388.260587 168.039870 L 388.119066 164.042374 L 387.977546 160.044878 L 387.836025 156.047383 L 387.694504 152.049887 L 387.552983 148.052391 L 387.411462 144.054896 L 387.269941 140.057400 L 387.128420 136.059904 L 386.986899 132.062408 L 386.845379 128.064913 L 386.703858 124.067417 L 386.562337 120.069921 L 386.420816 116.072426 L 386.340413 112.073346 L 386.274655 108.073886 L 386.208897 104.074427 L 386.143139 100.074967 L 386.077381 96.075508 L 386.011623 92.076049 L 385.945865 88.076589 L 385.880107 84.077130 L 385.814350 80.077670 L 385.748592 76.078211 L 385.717680 74.198140" fill="none" id="25" stroke="black" stroke-width="0.66972" /><path d="M 336.659080 571.549710 L 340.299936 570.294916 L 342.805487 567.191885 L 345.266102 564.038257 L 347.726718 560.884628 L 350.187333 557.731000 L 352.487847 554.485726 L 353.961168 550.766946 L 355.434490 547.048166 L 356.907812 543.329386 L 358.381134 539.610606 L 359.854456 535.891827 L 361.327777 532.173047 L 362.392307 528.317417 L 363.454861 524.461127 L 364.517416 520.604836 L 365.579971 516.748545 L 366.642526 512.892255 L 367.705080 509.035964 L 368.767635 505.179673 L 369.830190 501.323383 L 370.892744 497.467092 L 371.955299 493.610802 L 372.943281 489.734849 L 373.920190 485.855977 L 374.897099 481.977105 L 375.874008 478.098233 L 376.850916 474.219360 L 377.827825 470.340488 L 378.804734 466.461616 L 379.781643 462.582744 L 380.758551 458.703872 L 381.735460 454.825000 L 382.712369 450.946127 L 383.689278 447.067255 L 384.666186 443.188383 L 385.643095 439.309511 L 386.620004 435.430639 L 387.455857 431.519140 L 388.281419 427.605261 L 389.095193 423.689116 L 389.779698 419.748120 L 390.464202 415.807123 L 391.148707 411.866127 L 391.833211 407.925130 L 392.517716 403.984134 L 393.202220 400.043137 L 393.886725 396.102141 L 394.571230 392.161144 L 395.255734 388.220148 L 395.940239 384.279151 L 396.624743 380.338155 L 397.309248 376.397158 L 397.993752 372.456162 L 398.678257 368.515165 L 399.362761 364.574169 L 400.047266 360.633172 L 400.731771 356.692176 L 401.416275 352.751179 L 401.919777 348.787244 L 402.240019 344.800084 L 402.560260 340.812924 L 402.880501 336.825764 L 403.200742 332.838604 L 403.520983 328.851444 L 403.841224 324.864283 L 404.161465 320.877123 L 404.481706 316.889963 L 404.801947 312.902803 L 405.122188 308.915643 L 405.442429 304.928483 L 405.762671 300.941323 L 406.082912 296.954163 L 406.403153 292.967003 L 406.723394 288.979843 L 407.043635 284.992683 L 407.363876 281.005522 L 407.684117 277.018362 L 408.004358 273.031202 L 408.205005 269.036729 L 408.372933 265.040256 L 408.540861 261.043782 L 408.685390 257.046541 L 408.780021 253.047660 L 408.874653 249.048780 L 408.969284 245.049899 L 409.063915 241.051019 L 409.158547 237.052138 L 409.253178 233.053258 L 409.347809 229.054377 L 409.442441 225.055497 L 409.537072 221.056616 L 409.631703 217.057736 L 409.726334 213.058856 L 409.820966 209.059975 L 409.915597 205.061095 L 409.978735 201.061807 L 409.987575 197.061817 L 409.996415 193.061826 L 410.005254 189.061836 L 410.014094 185.061846 L 410.022934 181.061856 L 410.031774 177.061865 L 410.034734 173.061877 L 410.023763 169.061892 L 410.012792 165.061907 L 410.001821 161.061922 L 409.990850 157.061937 L 409.979879 153.061952 L 409.968908 149.061967 L 409.957937 145.061982 L 409.946966 141.061997 L 409.935995 137.062012 L 409.925024 133.062027 L 409.914053 129.062042 L 409.903082 125.062057 L 409.892111 121.062072 L 409.881139 117.062087 L 409.870168 113.062102 L 409.859197 109.062117 L 409.848226 105.062132 L 409.837255 101.062148 L 409.826284 97.062163 L 409.815313 93.062178 L 409.804342 89.062193 L 409.793371 85.062208 L 409.782400 81.062223 L 409.690545 77.063485 L 409.578172 73.065064 L 409.465799 69.066643 L 409.353426 65.068221 L 409.241052 61.069800 L 409.128679 57.071379 L 409.016306 53.072958 L 408.903933 49.074537 L 408.791559 45.076115 L 408.679186 41.077694 L 408.566813 37.079273 L 408.491110 34.385640" fill="none" id="26" stroke="black" stroke-width="0.66972" /><path d="M 231.424710 560.502830 L 229.010146 561.905242 L 226.891859 562.095432 L 228.255627 562.189799 L 226.784080 562.014550" fill="none" id="27" stroke="black" stroke-width="0.66972" /><path d="M 223.565330 560.952050 L 224.156786 561.763045 L 227.007486 559.805496 L 227.237210 559.311420" fill="none" id="28" stroke="black" stroke-width="0.66972" /><path d="M 217.764550 559.823140 L 220.640072 562.526544 L 224.191119 564.353948 L 227.847294 565.976410 L 231.503468 567.598873 L 235.159643 569.221336 L 238.815818 570.843799 L 242.471993 572.466262 L 246.209607 573.886132 L 249.971492 575.245627 L 253.733376 576.605121 L 257.602851 577.604641 L 261.493760 578.532449 L 265.384669 579.460258 L 269.275578 580.388066 L 273.166487 581.315874 L 277.057396 582.243683 L 280.948304 583.171491 L 284.839213 584.099299 L 288.730122 585.027108 L 292.716438 585.316222 L 296.708633 585.565980 L 300.700828 585.815739 L 304.693023 586.065497 L 308.685218 586.315255 L 312.677413 586.565014 L 316.669608 586.814772 L 320.661803 587.064531 L 324.654299 587.300254 L 327.866110 587.237210" fill="none" id="29" stroke="black" stroke-width="0.66972" /><path d="M 192.768460 526.936420 L 193.029639 530.923309 L 194.512520 534.637000 L 196.314533 538.208099 L 198.116547 541.779198 L 199.918560 545.350297 L 201.911589 548.773075 L 204.925000 551.403542 L 207.938411 554.034008 L 210.951822 556.664474 L 213.965233 559.294941 L 216.978645 561.925407 L 220.661858 563.289977 L 224.531823 564.301595 L 228.428167 565.206076 L 232.325408 566.106915 L 234.967680 566.717670" fill="none" id="30" stroke="black" stroke-width="0.66972" /><path d="M 230.233300 512.858300 L 233.519824 513.546181 L 237.510716 513.815964 L 241.371082 514.763049 L 245.131853 516.125621 L 248.892624 517.488192 L 252.653395 518.850763 L 256.370282 520.319168 L 259.991751 522.017685 L 263.613221 523.716202 L 267.234690 525.414719 L 270.856159 527.113235 L 274.477629 528.811752 L 278.099098 530.510269 L 281.720568 532.208785 L 285.342037 533.907302 L 288.925628 535.683987 L 292.455744 537.555522 L 295.797183 539.754337 L 299.138621 541.953152 L 302.480060 544.151967 L 305.821499 546.350782 L 309.162937 548.549597 L 312.504376 550.748412 L 313.080960 551.127830" fill="none" id="31" stroke="black" stroke-width="0.66972" /><path d="M 196.475490 528.870020 L 195.504534 528.066885 L 194.351587 524.236649 L 193.198640 520.406412 L 192.045693 516.576176 L 190.892746 512.745939 L 189.739798 508.915702 L 188.586851 505.085466 L 187.433904 501.255229 L 186.280957 497.424992 L 185.128010 493.594756 L 183.975062 489.764519 L 182.822115 485.934282 L 181.795021 482.068956 L 180.799861 478.194726 L 179.804702 474.320496 L 178.809542 470.446266 L 177.814383 466.572037 L 176.819223 462.697807 L 175.824063 458.823577 L 174.828904 454.949347 L 173.833744 451.075117 L 172.838585 447.200887 L 171.843425 443.326657 L 170.848266 439.452427 L 169.884416 435.570423 L 168.951901 431.680640 L 168.019387 427.790856 L 167.133167 423.890876 L 166.345141 419.969267 L 165.557116 416.047658 L 164.769091 412.126049 L 163.981066 408.204440 L 163.193041 404.282831 L 162.405016 400.361222 L 161.616991 396.439614 L 160.828966 392.518005 L 160.040940 388.596396 L 159.252915 384.674787 L 158.464890 380.753178 L 157.676865 376.831569 L 156.888840 372.909960 L 156.100815 368.988351 L 155.312790 365.066742 L 154.524764 361.145133 L 153.736739 357.223525 L 152.948714 353.301916 L 152.160689 349.380307 L 151.372664 345.458698 L 150.584639 341.537089 L 149.826353 337.610198 L 149.215874 333.657059 L 148.605395 329.703919 L 147.994917 325.750779 L 147.384438 321.797639 L 146.950994 317.821210 L 146.518336 313.844678 L 146.085678 309.868146 L 145.653020 305.891614 L 145.220362 301.915082 L 144.787705 297.938550 L 144.355047 293.962018 L 143.922389 289.985486 L 143.489731 286.008954 L 143.057073 282.032421 L 142.624415 278.055889 L 142.191757 274.079357 L 141.759099 270.102825 L 141.326442 266.126293 L 140.893784 262.149761 L 140.461126 258.173229 L 140.028468 254.196697 L 139.595810 250.220165 L 139.163152 246.243633 L 138.730494 242.267101 L 138.297836 238.290569 L 137.948133 234.306825 L 137.688051 230.315289 L 137.427969 226.323753 L 137.167887 222.332218 L 136.916874 218.340158 L 136.715250 214.345242 L 136.513626 210.350327 L 136.312002 206.355412 L 136.110378 202.360497 L 135.977985 198.362971 L 135.878213 194.364216 L 135.778442 190.365460 L 135.678670 186.366705 L 135.578899 182.367949 L 135.479127 178.369194 L 135.379356 174.370438 L 135.279585 170.371683 L 135.179813 166.372927 L 135.080042 162.374172 L 134.980270 158.375416 L 134.880499 154.376661 L 134.780728 150.377905 L 134.680956 146.379150 L 134.581185 142.380394 L 134.481413 138.381638 L 134.381642 134.382883 L 134.281870 130.384127 L 134.182099 126.385372 L 134.082328 122.386616 L 133.982556 118.387861 L 133.882785 114.389105 L 133.783013 110.390350 L 133.725490 106.391067 L 133.725490 102.391067 L 133.725490 98.391067 L 133.725490 94.391067 L 133.725490 90.391067 L 133.916675 86.396774 L 134.155246 82.403895 L 134.393817 78.411016 L 134.632387 74.418136 L 134.870958 70.425257 L 135.109528 66.432378 L 135.348099 62.439499 L 135.586670 58.446620 L 135.825240 54.453741 L 136.063811 50.460861 L 136.302381 46.467982 L 136.540952 42.475103 L 136.779523 38.482224 L 137.018093 34.489345 L 137.256664 30.496466 L 137.495235 26.503586 L 137.686430 23.303610" fill="none" id="32" stroke="black" stroke-width="0.66972" /><path d="M 231.166900 570.807520 L 232.824383 567.182424 L 234.722110 563.668201 L 235.416900 562.467670" fill="none" id="33" stroke="black" stroke-width="0.66972" /><path d="M 316.850490 587.752830 L 319.461871 586.764579 L 323.080804 585.060666 L 326.661605 583.289948 L 329.969032 581.040297 L 333.276459 578.790646 L 336.583885 576.540996 L 339.960921 574.398570 L 337.237650 576.618658 L 333.686132 578.454563 L 330.092404 580.211014 L 328.959860 580.764550" fill="none" id="34" stroke="black" stroke-width="0.66972" /><path d="M 151.182520 14.639550 L 151.093291 18.638555 L 151.004062 22.637559 L 150.914833 26.636564 L 150.825604 30.635569 L 150.736374 34.634573 L 150.733300 38.634539 L 150.733300 42.634539 L 150.733300 46.634539 L 150.751865 50.634460 L 150.786012 54.634314 L 150.820160 58.634168 L 150.854307 62.634022 L 150.888454 66.633877 L 150.922601 70.633731 L 150.956749 74.633585 L 150.990896 78.633439 L 151.025043 82.633294 L 151.059191 86.633148 L 151.093338 90.633002 L 151.127485 94.632856 L 151.161633 98.632711 L 151.195780 102.632565 L 151.229927 106.632419 L 151.328943 110.630533 L 151.509353 114.626462 L 151.689762 118.622392 L 151.870171 122.618321 L 152.050581 126.614251 L 152.230990 130.610180 L 152.411400 134.606110 L 152.591809 138.602039 L 152.772218 142.597969 L 152.952628 146.593898 L 153.133037 150.589828 L 153.313447 154.585757 L 153.493856 158.581686 L 153.674266 162.577616 L 153.854675 166.573545 L 154.035084 170.569475 L 154.215494 174.565404 L 154.395903 178.561334 L 154.576313 182.557263 L 154.756722 186.553193 L 154.937131 190.549122 L 155.231481 194.536935 L 155.619356 198.518084 L 156.007232 202.499234 L 156.395107 206.480384 L 156.782982 210.461533 L 157.170858 214.442683 L 157.558733 218.423833 L 157.946608 222.404982 L 158.334484 226.386132 L 158.722359 230.367282 L 159.110235 234.348431 L 159.498110 238.329581 L 159.885985 242.310731 L 160.273861 246.291880 L 160.661736 250.273030 L 161.049611 254.254180 L 161.437487 258.235330 L 161.825362 262.216479 L 162.213237 266.197629 L 162.638488 270.174510 L 163.158151 274.140611 L 163.677813 278.106711 L 164.197476 282.072811 L 164.753161 286.033814 L 165.354237 289.988395 L 165.955314 293.942975 L 166.556390 297.897556 L 167.157467 301.852136 L 167.758543 305.806717 L 168.359620 309.761297 L 168.960696 313.715878 L 169.561773 317.670458 L 170.162849 321.625039 L 170.763926 325.579619 L 171.365002 329.534200 L 171.966079 333.488780 L 172.567155 337.443361 L 173.168232 341.397941 L 173.769308 345.352522 L 174.370385 349.307102 L 174.971461 353.261683 L 175.572538 357.216263 L 176.173614 361.170844 L 176.774691 365.125425 L 177.375767 369.080005 L 178.002376 373.030470 L 178.674439 376.973607 L 179.346502 380.916744 L 180.018565 384.859881 L 180.840408 388.773864 L 181.696439 392.681192 L 182.552471 396.588520 L 183.408502 400.495847 L 184.264534 404.403175 L 185.120565 408.310503 L 185.976597 412.217830 L 186.832628 416.125158 L 187.688660 420.032486 L 188.544691 423.939814 L 189.400723 427.847141 L 190.256754 431.754469 L 191.112786 435.661797 L 191.968817 439.569125 L 192.824849 443.476452 L 193.680880 447.383780 L 194.536912 451.291108 L 195.392943 455.198436 L 196.248975 459.105763 L 197.105006 463.013091 L 197.961038 466.920419 L 199.170086 470.732057 L 200.404516 474.536815 L 201.638946 478.341572 L 202.873377 482.146330 L 204.107807 485.951088 L 205.342237 489.755846 L 206.576668 493.560603 L 207.811098 497.365361 L 209.045529 501.170119 L 210.279959 504.974877 L 211.514389 508.779634 L 212.748820 512.584392 L 213.983250 516.389150 L 215.217681 520.193908 L 216.452111 523.998665 L 217.837921 527.745208 L 219.470909 531.396694 L 221.103896 535.048180 L 222.736884 538.699666 L 224.369871 542.351153 L 226.002859 546.002639 L 226.334860 546.745020" fill="none" id="36" stroke="black" stroke-width="0.66972" /><path d="M 138.912990 23.370020 L 139.048731 23.873410 L 143.029370 23.480332 L 147.010009 23.087254 L 150.990649 22.694175 L 154.971288 22.301097 L 158.951927 21.908019 L 162.873505 21.134811 L 166.747930 20.143374 L 170.613951 19.116785 L 173.764550 18.280170" fill="none" id="37" stroke="black" stroke-width="0.66972" /><path d="M 166.323150 17.827050 L 170.242200 17.026398 L 174.161251 16.225745 L 178.077343 15.411100 L 181.985146 14.557239 L 185.892948 13.703378 L 189.800751 12.849516 L 193.708553 11.995655 L 197.616356 11.141793 L 201.524159 10.287932 L 205.431961 9.434071 L 209.339764 8.580209 L 213.247566 7.726348 L 217.213127 7.208631 L 221.181813 6.709101 L 225.173922 6.496897 L 229.171115 6.347052 L 233.168307 6.197208 L 237.165499 6.047363 L 241.162692 5.897518 L 245.159884 5.747674 L 249.157076 5.597829 L 253.154269 5.447984 L 257.151461 5.298140 L 261.148653 5.148295 L 265.146001 5.006740 L 269.146001 5.006740 L 273.146001 5.006740 L 277.146001 5.006740 L 281.146001 5.006740 L 285.146001 5.006740 L 289.146001 5.006740 L 293.146001 5.006740 L 297.146001 5.006740 L 301.146001 5.006740 L 301.612210 5.006740" fill="none" id="38" stroke="black" stroke-width="0.66972" /><path d="M 287.053610 0.401270 L 290.481711 1.753723 L 294.458985 2.179507 L 298.404798 2.809731 L 302.321610 3.619547 L 306.209186 4.561224 L 310.096761 5.502902 L 313.978364 6.467658 L 317.834699 7.530051 L 321.691035 8.592443 L 325.447981 9.957760 L 329.184131 11.386460 L 332.920281 12.815160 L 336.656431 14.243859 L 340.302909 15.884808 L 343.931687 17.567655 L 347.524913 19.319973 L 350.932749 21.412223 L 354.310401 23.554994 L 357.688053 25.697765 L 361.117858 27.753114 L 364.607943 29.707419 L 368.098027 31.661725 L 371.520529 33.718791 L 374.697477 36.149223 L 377.874425 38.579656 L 380.820303 41.283587 L 383.747156 44.010037 L 386.674009 46.736488 L 389.331054 49.722782 L 391.945495 52.750108 L 394.526592 55.804797 L 396.985642 58.959646 L 399.520787 62.051376 L 402.166872 65.051081 L 404.675163 68.161587 L 407.037009 71.389850 L 409.530676 74.516193 L 411.938048 77.710651 L 414.049842 81.106110 L 411.881382 82.661891 L 410.682520 82.412990" fill="none" id="39" stroke="black" stroke-width="0.66972" /><path d="M 137.557520 22.370020 L 140.954422 23.471740 L 144.888522 24.055513 L 148.887854 23.982435 L 152.887187 23.909358 L 156.886519 23.836280 L 160.885852 23.763202 L 164.885154 23.689482 L 168.873797 23.388282 L 172.862441 23.087081 L 176.851161 22.787585 L 180.850341 22.803977 L 184.849061 22.905147 L 188.847782 23.006318 L 192.846874 23.082593 L 196.846832 23.101019 L 200.841681 23.238984 L 204.828628 23.561863 L 208.810465 23.931188 L 212.772218 24.483010 L 216.733972 25.034831 L 220.682573 25.668975 L 224.619031 26.379113 L 228.555489 27.089251 L 232.491948 27.799388 L 236.425927 28.522769 L 240.352739 29.284447 L 244.279550 30.046125 L 248.204348 30.817644 L 252.114854 31.659038 L 256.025360 32.500432 L 259.935866 33.341826 L 263.867354 34.077801 L 267.802005 34.797883 L 271.736657 35.517966 L 275.671308 36.238049 L 279.605959 36.958132 L 283.459777 38.026397 L 287.309230 39.113462 L 291.135493 40.275110 L 294.922658 41.562503 L 298.709823 42.849896 L 302.462153 44.234698 L 306.206864 45.640808 L 309.989378 46.934856 L 313.820607 48.084503 L 317.651835 49.234150 L 321.362612 50.704918 L 325.004799 52.358541 L 328.646987 54.012165 L 332.289174 55.665788 L 335.931361 57.319412 L 339.557942 59.005876 L 343.140273 60.785457 L 346.722603 62.565038 L 350.214406 64.509239 L 353.635950 66.581204 L 357.223218 68.349489 L 360.816959 70.105915 L 364.323770 72.024098 L 367.771681 74.051883 L 371.149427 76.185966 L 374.369222 78.559344 L 377.468708 81.084724 L 380.391305 83.805491 L 383.102718 86.746280 L 385.814131 89.687069 L 388.623280 92.529088 L 389.194529 94.233825 L 386.041900 92.912990" fill="none" id="40" stroke="black" stroke-width="0.66972" /><path d="M 383.432520 87.116110 L 380.957191 87.902903 L 384.901120 87.340467 L 388.827564 86.576901 L 392.732384 85.720890 L 396.628351 84.820607 L 400.540314 83.986013 L 404.452277 83.151420 L 408.364240 82.316827 L 412.305752 81.638757 L 411.075712 81.586918 L 407.084612 81.853608 L 403.100340 82.174734 L 399.166991 82.901898 L 395.233643 83.629063 L 391.300294 84.356228 L 387.337025 84.824665 L 383.341529 85.014437 L 384.881740 84.022360" fill="none" id="41" stroke="black" stroke-width="0.66972" /><path d="M 337.205960 574.061420 L 335.832397 577.817756 L 335.016287 581.730810 L 336.092673 579.507492 L 338.259878 576.145465 L 340.389855 572.760636 L 342.400122 569.302483 L 344.410390 565.844329 L 346.420657 562.386176 L 348.226658 558.820121 L 349.726416 555.111924 L 351.226173 551.403726 L 352.725931 547.695529 L 354.225689 543.987332 L 355.725446 540.279135 L 357.225204 536.570937 L 358.724962 532.862740 L 360.224719 529.154543 L 361.724477 525.446346 L 363.224235 521.738148 L 364.723992 518.029951 L 366.223750 514.321754 L 367.723508 510.613557 L 369.223265 506.905359 L 370.723023 503.197162 L 372.222781 499.488965 L 373.722538 495.780767 L 375.222296 492.072570 L 376.565340 488.308340 L 377.756736 484.489888 L 378.948132 480.671436 L 380.139527 476.852984 L 381.330923 473.034532 L 382.522318 469.216079 L 383.713714 465.397627 L 384.905109 461.579175 L 386.096505 457.760723 L 387.287900 453.942271 L 388.479296 450.123819 L 389.340846 446.218695 L 390.180452 442.307805 L 390.971264 438.386842 L 391.748962 434.463172 L 392.526660 430.539502 L 393.304358 426.615832 L 394.082056 422.692162 L 394.859754 418.768492 L 395.637452 414.844822 L 396.415150 410.921152 L 397.192848 406.997482 L 397.970546 403.073812 L 398.748244 399.150143 L 399.525943 395.226473 L 400.303641 391.302803 L 401.081339 387.379133 L 401.859037 383.455463 L 402.608772 379.527027 L 403.174631 375.567254 L 403.740489 371.607481 L 404.306348 367.647708 L 404.872206 363.687934 L 405.438065 359.728161 L 406.003923 355.768388 L 406.569782 351.808615 L 407.135640 347.848841 L 407.701499 343.889068 L 408.267357 339.929295 L 408.833216 335.969522 L 409.399074 332.009748 L 409.964933 328.049975 L 410.530791 324.090202 L 411.096650 320.130429 L 411.602181 316.163538 L 411.973303 312.180792 L 412.344426 308.198046 L 412.685622 304.212764 L 412.989772 300.224345 L 413.293921 296.235925 L 413.598071 292.247505 L 413.902221 288.259085 L 414.206371 284.270665 L 414.510521 280.282245 L 414.814671 276.293825 L 415.118821 272.305406 L 415.422971 268.316986 L 415.727121 264.328566 L 416.031271 260.340146 L 416.335420 256.351726 L 416.639570 252.363306 L 416.943720 248.374887 L 417.192680 244.382794 L 417.419720 240.389243 L 417.646760 236.395691 L 417.731666 232.397484 L 417.766440 228.397635 L 417.801213 224.397787 L 417.835986 220.397938 L 417.870759 216.398089 L 417.905533 212.398240 L 417.940306 208.398391 L 417.975079 204.398542 L 418.009852 200.398694 L 418.044626 196.398845 L 418.079399 192.398996 L 418.114172 188.399147 L 418.148945 184.399298 L 418.183719 180.399449 L 418.218492 176.399600 L 418.253265 172.399752 L 418.288038 168.399903 L 418.249174 164.402568 L 417.941695 160.414403 L 417.634215 156.426239 L 417.326736 152.438074 L 417.019256 148.449910 L 416.711777 144.461745 L 416.404297 140.473581 L 416.096818 136.485416 L 415.789338 132.497252 L 415.481859 128.509087 L 415.174379 124.520922 L 414.866900 120.532758 L 414.559420 116.544593 L 414.251941 112.556429 L 413.944461 108.568264 L 413.636982 104.580100 L 413.130536 100.614293 L 412.545238 96.657346 L 411.906736 92.709329 L 411.168081 88.778122 L 410.429426 84.846915 L 409.690771 80.915708 L 408.952116 76.984501 L 408.912990 76.776270" fill="none" id="43" stroke="black" stroke-width="0.66972" /><path d="M 383.045800 325.514550 L 386.743575 324.000681 L 390.382764 322.340470 L 394.021954 320.680259 L 397.661143 319.020049 L 401.300333 317.359838 L 404.891043 315.607675 L 408.316980 313.542983 L 411.742918 311.478291 L 415.168855 309.413599 L 418.594793 307.348907 L 422.020730 305.284215 L 425.343729 303.068548 L 426.819240 301.936420" fill="none" id="44" stroke="black" stroke-width="0.66972" /><path d="M 391.612210 318.202050 L 387.749965 319.242753 L 385.562986 321.061586 L 389.337470 320.067895 L 392.927837 318.304584 L 396.518203 316.541272 L 400.108570 314.777961 L 403.670782 312.959254 L 407.183778 311.047280 L 410.670273 309.086578 L 414.156767 307.125875 L 416.737210 305.674710" fill="none" id="45" stroke="black" stroke-width="0.66972" /><path d="M 207.717680 302.998920 L 208.489577 303.235174 L 212.321248 304.383345 L 216.103960 305.681814 L 219.876736 307.010784 L 223.649511 308.339755 L 227.422287 309.668726 L 231.195063 310.997697 L 234.967838 312.326668 L 238.740614 313.655639 L 242.648091 314.450927 L 246.599647 315.071577 L 250.551203 315.692226 L 254.502759 316.312876 L 258.454315 316.933525 L 262.405871 317.554175 L 266.357427 318.174824 L 270.308983 318.795474 L 274.260538 319.416123 L 278.212094 320.036773 L 282.163650 320.657422 L 286.115206 321.278072 L 290.098503 321.510955 L 294.098389 321.541171 L 298.098275 321.571388 L 302.098160 321.601605 L 306.098046 321.631821 L 310.097932 321.662038 L 314.097818 321.692255 L 318.097704 321.722471 L 322.097590 321.752688 L 326.097476 321.782905 L 330.097361 321.813121 L 334.097247 321.843338 L 338.097133 321.873555 L 342.097019 321.903771 L 346.096905 321.933988 L 350.088494 321.710232 L 354.077878 321.419011 L 358.067263 321.127789 L 362.049956 320.761562 L 366.027889 320.341982 L 370.005823 319.922402 L 373.983756 319.502822 L 377.961689 319.083242 L 381.939622 318.663662 L 385.915753 318.230724 L 389.862674 317.581252 L 393.809595 316.931779 L 397.756516 316.282307 L 401.703437 315.632834 L 405.650358 314.983362 L 409.597279 314.333889 L 413.544200 313.684416 L 417.491121 313.034944 L 421.438042 312.385471 L 421.698150 312.342670" fill="none" id="46" stroke="black" stroke-width="0.66972" /><path d="M 140.233300 243.827050 L 141.728952 247.536905 L 143.224604 251.246760 L 144.720256 254.956615 L 146.532463 258.510748 L 148.871411 261.714336 L 151.737397 264.504700 L 154.603382 267.295063 L 157.469367 270.085427 L 160.335353 272.875790 L 163.201338 275.666153 L 166.067323 278.456517 L 168.933309 281.246880 L 171.799294 284.037244 L 174.665279 286.827607 L 177.648204 289.443132 L 181.321472 291.026517 L 184.994739 292.609901 L 188.668007 294.193285 L 192.341275 295.776669 L 196.014542 297.360053 L 199.687810 298.943437 L 203.361077 300.526821 L 207.034345 302.110205 L 210.707613 303.693589 L 214.380880 305.276973 L 217.541900 306.639550" fill="none" id="47" stroke="black" stroke-width="0.66972" /></svg>