<?xml version="1.0" encoding="utf-8" ?>
<svg baseProfile="full" height="675.5" version="1.1" viewBox="0,0,681.5,675.5" width="681.5" xmlns="http://www.w3.org/2000/svg" xmlns:ev="http://www.w3.org/2001/xml-events" xmlns:xlink="http://www.w3.org/1999/xlink"><defs><style type="text/css"><![CDATA[
	.background { fill: white; }
	.line { stroke: firebrick; stroke-width: .1mm; }
	.blacksquare { fill: indigo; }
	.whitesquare { fill: white; }
]]></style></defs><rect class="background" height="100%" width="100%" x="0" y="0" /><path d="M 16.144313 333.509850 L 20.111088 332.995360 L 23.954636 331.897172 L 27.790872 330.764347 L 31.597999 329.539888 L 35.384702 328.251136 L 39.171405 326.962384 L 42.908126 325.539610 L 46.613992 324.034102 L 50.310062 322.505689 L 53.958507 320.865919 L 57.606953 319.226148 L 61.255398 317.586378 L 64.903844 315.946608 L 68.565681 314.337286 L 72.240001 312.756347 L 75.914322 311.175407 L 79.588642 309.594468 L 83.262963 308.013529 L 86.937283 306.432589 L 90.611604 304.851650 L 94.285924 303.270711 L 97.960245 301.689771 L 101.584279 299.997505 L 105.199533 298.285798 L 108.814786 296.574090 L 112.430040 294.862382 L 116.045293 293.150675 L 119.660546 291.438967 L 123.275800 289.727259 L 126.891053 288.015551 L 130.537637 286.371860 L 134.188151 284.736699 L 137.838664 283.101538 L 141.489177 281.466377 L 145.139691 279.831216 L 148.790204 278.196055 L 152.440718 276.560894 L 156.091231 274.925733 L 159.741744 273.290571 L 163.385898 271.641350 L 167.024352 269.979527 L 170.662805 268.317704 L 174.301259 266.655882 L 177.939713 264.994059 L 181.578166 263.332236 L 185.216620 261.670413 L 188.855073 260.008590 L 192.493527 258.346767 L 196.131981 256.684944 L 199.767051 255.015871 L 203.377843 253.294772 L 206.988635 251.573673 L 210.599427 249.852575 L 214.210219 248.131476 L 217.821011 246.410377 L 221.431802 244.689278 L 225.042594 242.968179 L 228.358373 242.113676 L 231.974111 240.402993 L 235.589850 238.692310 L 239.205588 236.981626 L 242.821326 235.270943 L 246.437065 233.560260 L 250.052803 231.849577 L 253.668541 230.138894 L 257.324209 228.519778 L 261.038116 227.034215 L 264.752022 225.548652 L 268.465929 224.063089 L 272.161708 222.534224 L 275.826338 220.930949 L 279.490967 219.327673 L 283.155596 217.724398 L 286.819556 216.128121 L 290.390492 214.815766 L 293.994174 213.079830 L 297.597856 211.343894 L 301.201538 209.607958 L 304.805221 207.872022 L 308.408903 206.136086 L 312.012585 204.400150 L 315.616268 202.664214 L 319.230666 200.952288 L 322.929378 199.429289 L 326.628090 197.906290 L 330.326803 196.383291 L 334.025515 194.860291 L 337.706621 193.295824 L 341.371251 191.692549 L 345.035880 190.089274 L 348.700509 188.485998 L 352.413745 187.171402 L 356.059639 185.616945 L 359.677986 183.911785 L 363.296332 182.206626 L 366.914678 180.501466 L 370.533025 178.796306 L 374.151371 177.091146 L 377.769717 175.385986 L 381.388064 173.680827 L 385.006410 171.975667 L 388.679653 170.398334 L 392.407671 168.948549 L 396.135690 167.498764 L 399.863709 166.048979 L 403.591727 164.599194 L 407.246643 162.979060 L 410.865918 161.275872 L 414.485193 159.572684 L 418.104468 157.869495 L 421.723743 156.166307 L 425.372191 155.301762 L 428.995278 153.606698 L 432.618365 151.911633 L 436.241452 150.216569 L 439.864538 148.521505 L 443.487625 146.826441 L 447.110712 145.131377 L 450.733798 143.436313 L 454.356885 141.741248 L 457.984790 140.057447 L 461.712809 138.607662 L 465.440828 137.157877 L 469.168846 135.708092 L 472.896865 134.258307 L 476.601219 132.753377 L 480.220494 131.050189 L 483.839769 129.347001 L 487.459044 127.643813 L 491.078318 125.940625 L 494.500694 125.729339 L 498.196519 124.199347 L 501.892345 122.669354 L 505.588170 121.139362 L 509.283995 119.609370 L 512.973850 118.065137 L 516.655810 116.502073 L 520.337770 114.939009 L 524.019730 113.375945 L 527.701691 111.812881 L 531.383651 110.249817 L 535.065611 108.686753 L 538.747571 107.123689 L 542.429531 105.560625 L 546.103057 103.979293 L 549.680766 102.190439 L 553.258475 100.401584 L 556.836183 98.612730 L 560.413892 96.823875 L 563.717388 96.691503 L 567.383077 95.090652 L 571.048767 93.489802 L 574.714456 91.888951 L 578.380145 90.288100 L 582.045834 88.687250 L 585.711524 87.086399 L 589.377213 85.485549 L 593.042902 83.884698 L 596.708591 82.283848 L 600.374281 80.682997 L 604.039970 79.082147 L 607.705659 77.481296 L 611.378685 75.897987 L 615.092592 74.412425 L 618.806498 72.926862 L 622.520405 71.441299 L 626.237870 70.283120 L 629.887513 69.087196 L 633.519495 67.411276 L 637.151477 65.735357 L 640.783459 64.059437 L 644.415441 62.383518 L 648.047423 60.707598 L 651.679405 59.031679 L 655.311387 57.355759 L 658.981800 55.766221 L 662.658381 54.190544 L 666.334961 52.614867 L 669.864631 51.333237 L 669.971083 51.769690" fill="none" id="1" stroke="black" stroke-width="0.5" /><path d="M 43.797853 202.100400 L 47.311789 200.189313 L 50.825725 198.278225 L 54.339660 196.367138 L 57.943305 194.631909 L 61.553228 192.908989 L 65.175167 191.212902 L 68.864476 189.667263 L 72.553785 188.121623 L 76.243094 186.575984 L 79.932402 185.030345 L 83.621711 183.484705 L 87.311020 181.939066 L 91.000329 180.393427 L 94.689637 178.847788 L 98.374691 177.292304 L 102.028267 175.663998 L 105.681844 174.035692 L 109.335420 172.407386 L 112.988996 170.779081 L 116.642573 169.150775 L 120.296149 167.522469 L 123.949725 165.894163 L 127.603302 164.265858 L 131.271189 162.670184 L 134.943886 161.085476 L 138.616583 159.500768 L 142.289279 157.916060 L 145.961976 156.331352 L 149.634673 154.746644 L 153.307369 153.161936 L 156.976372 151.568818 L 160.628091 149.936352 L 164.279810 148.303885 L 167.931530 146.671419 L 171.583249 145.038953 L 175.234968 143.406486 L 178.886688 141.774020 L 182.538407 140.141554 L 186.190126 138.509088 L 189.871279 136.944382 L 193.556820 135.389782 L 197.242362 133.835181 L 200.927903 132.280580 L 204.613445 130.725979 L 208.298986 129.171378 L 211.984528 127.616777 L 215.670069 126.062176 L 219.355611 124.507575 L 223.041152 122.952974 L 226.726693 121.398373 L 230.412235 119.843772 L 234.082955 118.255116 L 237.732383 116.617533 L 241.381810 114.979949 L 245.031238 113.342366 L 248.680665 111.704783 L 252.330093 110.067199 L 255.979520 108.429616 L 259.628948 106.792033 L 263.278375 105.154449 L 266.927803 103.516866 L 270.582901 101.892144 L 274.253358 100.302255 L 277.923814 98.712366 L 281.594271 97.122477 L 285.264728 95.532588 L 288.935185 93.942699 L 292.605641 92.352810 L 296.276098 90.762921 L 299.946555 89.173031 L 303.617012 87.583142 L 307.287468 85.993253 L 310.957925 84.403364 L 314.628382 82.813475 L 318.298839 81.223586 L 321.969295 79.633697 L 325.639752 78.043808 L 329.310209 76.453919 L 332.980666 74.864030 L 336.651123 73.274141 L 340.321579 71.684252 L 343.992036 70.094363 L 347.662262 68.503945 L 351.322744 66.891223 L 354.983226 65.278501 L 358.643708 63.665780 L 362.304190 62.053058 L 365.964672 60.440336 L 369.625154 58.827615 L 373.285636 57.214893 L 376.946118 55.602172 L 380.606600 53.989450 L 384.267082 52.376728 L 387.927564 50.764007 L 391.588046 49.151285 L 395.248528 47.538563 L 398.927995 45.969898 L 402.614198 44.416866 L 406.300401 42.863835 L 409.986604 41.310803 L 413.672807 39.757772 L 417.359010 38.204741 L 421.045213 36.651709 L 424.731416 35.098678 L 428.417619 33.545646 L 432.087234 31.954289 L 435.742480 30.329735 L 439.397726 28.705180 L 443.052972 27.080626 L 446.708218 25.456072 L 450.363464 23.831517 L 453.979133 22.120820 L 457.592818 20.405803 L 460.144313 19.194890" fill="none" id="2" stroke="black" stroke-width="0.5" /><path d="M 174.601003 437.683080 L 178.256936 436.078895 L 181.775019 434.175453 L 185.293103 432.272011 L 188.811186 430.368569 L 192.367208 428.537560 L 195.935221 426.729445 L 199.503235 424.921331 L 203.017191 423.011046 L 206.519306 421.078383 L 210.021422 419.145720 L 213.523538 417.213057 L 216.989594 415.217014 L 220.440295 413.193980 L 223.890995 411.170946 L 227.341695 409.147911 L 230.792395 407.124877 L 234.225717 405.072749 L 237.642799 402.993434 L 241.059881 400.914119 L 244.476963 398.834805 L 247.894045 396.755490 L 251.311128 394.676176 L 254.728210 392.596861 L 258.145292 390.517546 L 261.565173 388.442942 L 265.025483 386.436390 L 268.485794 384.429838 L 271.946104 382.423286 L 275.406415 380.416734 L 278.866725 378.410181 L 282.327036 376.403629 L 285.787346 374.397077 L 289.247656 372.390525 L 292.707967 370.383973 L 296.168277 368.377421 L 299.614850 366.347422 L 303.056893 364.309693 L 306.498937 362.271965 L 309.940980 360.234237 L 313.383023 358.196508 L 316.825067 356.158780 L 320.267110 354.121051 L 323.709154 352.083323 L 327.151197 350.045594 L 330.593240 348.007866 L 334.035284 345.970137 L 337.484378 343.944519 L 340.955694 341.957068 L 344.427011 339.969617 L 347.898327 337.982166 L 351.369644 335.994715 L 354.840960 334.007263 L 358.312277 332.019812 L 361.783593 330.032361 L 365.254910 328.044910 L 368.726226 326.057459 L 372.197543 324.070008 L 375.668859 322.082557 L 379.140176 320.095106 L 382.611492 318.107655 L 386.082809 316.120204 L 389.554125 314.132752 L 393.025442 312.145301 L 396.496758 310.157850 L 399.968075 308.170399 L 403.439391 306.182948 L 406.919067 304.210176 L 410.399521 302.238770 L 413.879974 300.267363 L 417.360428 298.295957 L 420.840881 296.324550 L 424.321335 294.353144 L 427.801788 292.381738 L 431.282242 290.410331 L 434.762695 288.438925 L 438.243149 286.467518 L 441.723602 284.496112 L 445.204056 282.524706 L 448.684509 280.553299 L 452.164963 278.581893 L 455.645416 276.610486 L 459.125870 274.639080 L 462.606324 272.667674 L 466.086777 270.696267 L 469.567231 268.724861 L 473.047684 266.753454 L 476.528138 264.782048 L 480.008591 262.810642 L 483.489045 260.839235 L 486.969498 258.867829 L 490.449952 256.896422 L 493.885508 254.849001 L 497.292141 252.752612 L 500.698775 250.656222 L 504.105408 248.559832 L 507.603333 246.621858 L 511.125217 244.725458 L 514.647102 242.829059 L 518.039610 241.409151 L 521.480094 239.368790 L 524.920578 237.328430 L 528.361061 235.288069 L 531.801545 233.247708 L 535.242029 231.207347 L 538.682512 229.166986 L 542.122996 227.126626 L 545.620761 225.669819 L 549.105053 223.705205 L 552.589345 221.740591 L 556.073637 219.775976 L 559.557929 217.811362 L 563.042221 215.846748 L 566.526513 213.882133 L 570.010805 211.917519 L 573.482297 209.930413 L 576.950835 207.938117 L 580.419373 205.945821 L 583.885177 203.948846 L 587.323168 201.904288 L 590.761159 199.859730 L 594.199149 197.815172 L 597.637140 195.770614 L 601.075131 193.726055 L 604.513122 191.681497 L 607.951113 189.636939 L 611.374346 188.011260 L 614.817030 185.974615 L 618.259715 183.937970 L 621.702399 181.901325 L 625.145084 179.864680 L 628.587768 177.828035 L 632.030453 175.791390 L 635.473137 173.754745 L 638.915822 171.718100 L 642.358507 169.681455 L 645.801191 167.644810 L 649.243876 165.608165 L 652.686560 163.571520 L 656.129245 161.534875 L 659.571929 159.498229 L 663.014614 157.461584 L 666.457299 155.424939 L 669.899983 153.388294 L 673.342668 151.351649 L 676.785352 149.315004 L 680.228037 147.278359 L 680.994703 146.824810" fill="none" id="3" stroke="black" stroke-width="0.5" /><path d="M 107.955333 198.131890 L 108.574905 202.082060 L 109.358154 206.004625 L 110.141403 209.927191 L 110.924652 213.849757 L 111.542552 217.799051 L 112.035082 221.768612 L 112.527612 225.738173 L 113.020142 229.707734 L 113.416691 233.687033 L 113.731502 237.674626 L 114.046312 241.662218 L 114.361123 245.649811 L 114.675933 249.637403 L 114.982900 253.625559 L 115.240659 257.617245 L 115.498419 261.608932 L 115.756179 265.600618 L 116.013938 269.592304 L 116.271698 273.583991 L 116.529457 277.575677 L 116.743957 281.569721 L 116.921477 285.565780 L 117.098996 289.561839 L 117.276515 293.557898 L 117.454034 297.553956 L 117.631554 301.550015 L 117.809073 305.546074 L 117.986592 309.542133 L 118.164111 313.538192 L 118.341631 317.534251 L 118.519150 321.530310 L 118.696669 325.526369 L 118.874188 329.522428 L 118.988821 333.520754 L 119.099585 337.519221 L 119.210350 341.517687 L 119.321115 345.516153 L 119.431880 349.514619 L 119.542645 353.513085 L 119.653410 357.511551 L 119.764175 361.510017 L 119.874939 365.508483 L 119.985704 369.506949 L 120.096469 373.505415 L 120.207234 377.503882 L 120.317999 381.502348 L 120.428764 385.500814 L 120.539528 389.499280 L 120.650293 393.497746 L 120.761058 397.496212 L 120.871823 401.494678 L 120.982588 405.493144 L 121.093353 409.491610 L 121.204117 413.490076 L 121.314882 417.488543 L 121.425647 421.487009 L 121.536412 425.485475 L 121.647177 429.483941 L 121.757942 433.482407 L 121.868706 437.480873 L 121.979471 441.479339 L 122.090236 445.477805 L 122.201001 449.476271 L 122.311766 453.474737 L 122.422531 457.473204 L 122.555956 461.470920 L 122.709794 465.467960 L 122.863632 469.465001 L 123.017470 473.462042 L 123.171308 477.459082 L 123.325146 481.456123 L 123.546067 485.449871 L 123.784446 489.442761 L 124.018323 493.360240" fill="none" id="4" stroke="black" stroke-width="0.5" /><path d="M 4.081323 229.029530 L 0.250000 227.944731 L 3.277835 230.255081 L 6.816996 232.119040 L 10.356157 233.982998 L 13.895318 235.846957 L 17.371687 237.822197 L 20.796977 239.887963 L 24.222267 241.953729 L 27.647557 244.019495 L 31.072847 246.085261 L 34.473887 248.188795 L 37.777838 250.443548 L 41.081788 252.698301 L 44.385739 254.953054 L 47.689689 257.207807 L 50.993640 259.462560 L 54.297590 261.717313 L 57.601541 263.972066 L 60.970857 266.127548 L 64.347622 268.271715 L 67.724388 270.415882 L 71.101154 272.560050 L 74.477919 274.704217 L 77.854685 276.848384 L 81.231451 278.992552 L 84.608216 281.136719 L 87.984982 283.280886 L 91.361748 285.425053 L 94.738514 287.569221 L 98.115279 289.713388 L 101.441814 291.934642 L 104.767189 294.157677 L 108.092563 296.380712 L 111.417937 298.603748 L 114.743312 300.826783 L 118.068686 303.049818 L 121.394060 305.272853 L 124.719434 307.495889 L 128.044809 309.718924 L 131.370183 311.941959 L 134.714403 314.135739 L 138.113464 316.244384 L 141.512525 318.353028 L 144.911587 320.461673 L 148.310648 322.570317 L 151.709710 324.678962 L 155.108771 326.787606 L 158.507832 328.896251 L 161.906894 331.004895 L 165.284440 333.147482 L 168.641952 335.321675 L 171.999464 337.495868 L 175.356975 339.670061 L 178.714487 341.844254 L 182.071999 344.018447 L 185.429510 346.192640 L 188.787022 348.366833 L 192.144534 350.541026 L 195.502045 352.715219 L 198.859557 354.889412 L 202.217069 357.063605 L 205.574580 359.237798 L 208.935640 361.406330 L 212.356061 363.480149 L 215.776481 365.553967 L 219.196902 367.627785 L 222.617322 369.701604 L 226.037743 371.775422 L 229.458164 373.849240 L 232.878584 375.923059 L 236.299005 377.996877 L 239.719426 380.070696 L 240.963213 380.824810" fill="none" id="5" stroke="black" stroke-width="0.5" /><path d="M 212.112813 363.627960 L 215.532836 361.553487 L 218.952860 359.479013 L 222.372883 357.404540 L 225.793111 355.330417 L 229.277904 353.366690 L 232.762696 351.402963 L 236.247488 349.439237 L 239.685132 347.395192 L 243.098384 345.309596 L 246.511635 343.223999 L 249.924887 341.138402 L 253.338139 339.052805 L 256.751390 336.967209 L 260.196283 334.935855 L 263.691871 332.991412 L 267.187460 331.046968 L 270.683048 329.102524 L 274.178637 327.158081 L 277.674225 325.213637 L 281.169814 323.269193 L 284.665402 321.324750 L 288.160991 319.380306 L 291.634079 317.396572 L 295.080233 315.365802 L 298.526387 313.335033 L 301.972540 311.304263 L 305.418694 309.273494 L 308.864848 307.242724 L 312.311001 305.211955 L 315.757155 303.181185 L 319.203309 301.150416 L 322.649463 299.119646 L 326.095616 297.088877 L 329.552120 295.075996 L 333.030290 293.100565 L 336.508461 291.125133 L 339.986632 289.149702 L 343.464802 287.174271 L 346.942973 285.198840 L 350.421144 283.223408 L 353.899314 281.247977 L 357.377485 279.272546 L 360.855656 277.297114 L 364.333826 275.321683 L 367.811997 273.346252 L 371.290168 271.370821 L 374.768338 269.395389 L 378.222022 267.377497 L 381.673873 265.356427 L 385.125725 263.335358 L 388.577576 261.314288 L 392.029427 259.293218 L 395.481279 257.272149 L 398.933130 255.251079 L 402.384982 253.230010 L 405.836833 251.208940 L 409.288684 249.187871 L 412.740536 247.166801 L 416.207552 245.397735 L 419.624687 243.318507 L 423.041823 241.239280 L 426.458958 239.160053 L 429.876094 237.080826 L 433.293229 235.001598 L 436.710364 232.922371 L 440.127500 230.843144 L 443.544635 228.763917 L 446.961770 226.684689 L 450.378906 224.605462 L 453.435088 224.091640 L 456.889973 222.077748 L 460.345197 220.062450 L 463.800421 218.047151 L 467.255645 216.031853 L 470.710869 214.016554 L 474.166093 212.001256 L 477.621316 209.985957 L 481.072843 207.964488 L 484.479476 205.868098 L 487.886109 203.771709 L 491.292742 201.675319 L 494.716625 199.608008 L 498.189597 197.623452 L 501.662570 195.638896 L 505.135543 193.654340 L 508.602925 192.526325 L 511.993718 190.404411 L 515.384511 188.282496 L 518.775304 186.160581 L 522.166097 184.038666 L 525.556890 181.916752 L 528.947683 179.794837 L 532.338476 177.672922 L 535.779745 175.640949 L 539.357454 173.852095 L 542.935163 172.063240 L 546.512871 170.274386 L 550.053197 168.415680 L 553.526170 166.431125 L 556.999142 164.446569 L 560.472115 162.462013 L 563.394715 161.489767 L 566.862559 159.496263 L 570.330402 157.502758 L 573.798246 155.509253 L 577.266089 153.515749 L 580.733933 151.522244 L 584.201777 149.528739 L 587.669620 147.535235 L 591.137464 145.541730 L 594.605307 143.548225 L 598.073151 141.554720 L 601.549614 139.576500 L 605.049800 137.640344 L 608.549985 135.704187 L 612.050171 133.768031 L 615.550356 131.831874 L 619.050542 129.895718 L 622.550727 127.959562 L 626.050912 126.023405 L 629.551098 124.087249 L 633.051283 122.151092 L 636.018323 120.509850" fill="none" id="6" stroke="black" stroke-width="0.5" /><path d="M 26.223053 260.257880 L 29.779278 258.426687 L 33.397250 256.722069 L 37.029404 255.046523 L 40.661558 253.370977 L 44.293713 251.695431 L 47.903184 249.972570 L 51.484113 248.190169 L 55.065041 246.407769 L 58.645969 244.625368 L 62.226898 242.842968 L 65.807826 241.060567 L 69.417913 239.338926 L 73.048686 237.660387 L 76.679458 235.981848 L 80.310230 234.303309 L 83.941003 232.624771 L 87.571775 230.946232 L 91.202547 229.267693 L 94.833320 227.589154 L 98.464092 225.910616 L 102.062381 224.165152 L 105.627378 222.351097 L 109.192375 220.537042 L 112.757372 218.722987 L 116.322370 216.908932 L 119.887367 215.094877 L 123.452364 213.280822 L 127.017361 211.466767 L 130.582358 209.652712 L 134.153764 207.851467 L 137.743269 206.086403 L 141.332774 204.321338 L 144.922279 202.556273 L 148.511784 200.791208 L 152.101289 199.026143 L 155.690794 197.261078 L 159.280299 195.496013 L 162.869804 193.730949 L 166.459309 191.965884 L 170.048814 190.200819 L 173.638319 188.435754 L 177.227824 186.670689 L 180.817329 184.905624 L 184.406834 183.140559 L 187.996339 181.375494 L 191.585843 179.610430 L 195.175348 177.845365 L 198.781702 176.115125 L 202.393483 174.396101 L 206.005263 172.677077 L 209.617043 170.958054 L 213.228824 169.239030 L 216.840604 167.520006 L 220.452385 165.800983 L 224.064165 164.081959 L 227.675945 162.362935 L 231.287726 160.643912 L 234.899506 158.924888 L 238.511287 157.205865 L 242.123067 155.486841 L 245.734848 153.767817 L 249.346628 152.048794 L 252.958408 150.329770 L 256.570189 148.610746 L 260.181969 146.891723 L 263.793750 145.172699 L 267.405530 143.453676 L 271.029112 141.759863 L 274.662643 140.087305 L 278.296175 138.414747 L 281.929706 136.742189 L 285.563237 135.069632 L 289.196769 133.397074 L 292.830300 131.724516 L 296.463832 130.051959 L 300.097363 128.379401 L 303.730895 126.706843 L 307.364426 125.034286 L 310.997958 123.361728 L 314.631489 121.689170 L 318.265020 120.016613 L 321.898552 118.344055 L 325.532083 116.671497 L 329.165615 114.998939 L 332.799146 113.326382 L 336.432678 111.653824 L 340.066209 109.981266 L 343.699741 108.308709 L 347.333272 106.636151 L 350.966803 104.963593 L 354.600335 103.291036 L 358.232702 101.615976 L 361.851854 99.912527 L 365.471006 98.209078 L 369.090158 96.505629 L 372.709310 94.802180 L 376.328462 93.098731 L 379.947614 91.395282 L 383.566766 89.691834 L 387.185918 87.988385 L 390.805071 86.284936 L 394.424223 84.581487 L 398.078181 82.954235 L 401.735317 81.333940 L 405.392453 79.713645 L 409.049589 78.093351 L 412.706725 76.473056 L 416.363861 74.852761 L 420.013464 73.215917 L 423.637067 71.521955 L 427.260669 69.827994 L 430.821473 68.163390" fill="none" id="7" stroke="black" stroke-width="0.5" /><path d="M 212.963213 354.769690 L 212.439584 356.122500 L 212.409622 360.122387 L 212.379660 364.122275 L 212.349697 368.122163 L 212.319735 372.122051 L 212.289773 376.121939 L 212.270293 378.722450" fill="none" id="8" stroke="black" stroke-width="0.5" /><path d="M 31.766363 236.234260 L 31.709261 240.232547 L 31.469526 244.225357 L 31.229791 248.218166 L 30.990056 252.210976 L 30.852973 256.206864 L 30.852973 260.206864 L 30.974181 264.203122 L 31.073443 265.809060" fill="none" id="9" stroke="black" stroke-width="0.5" /><path d="M 23.986833 230.399610 L 27.213941 231.359221 L 30.774915 233.176227 L 34.268894 235.123561 L 37.762873 237.070894 L 41.196827 239.118972 L 44.572582 241.264731 L 47.948336 243.410490 L 51.236682 245.687175 L 54.512728 247.982284 L 57.788773 250.277394 L 61.095248 252.527848 L 64.429661 254.737303 L 67.764074 256.946757 L 71.150215 259.074642 L 74.570471 261.148733 L 77.990726 263.222823 L 81.410982 265.296914 L 84.831238 267.371004 L 88.251493 269.445095 L 91.671749 271.519185 L 95.092005 273.593276 L 98.512260 275.667366 L 101.927046 277.750271 L 105.304186 279.893849 L 108.681326 282.037428 L 112.058466 284.181006 L 115.435605 286.324584 L 118.812745 288.468162 L 122.189885 290.611740 L 125.567024 292.755319 L 128.944164 294.898897 L 132.321304 297.042475 L 135.745424 299.109972 L 139.174579 301.169315 L 142.603735 303.228658 L 146.032891 305.288000 L 149.462046 307.347343 L 152.917212 309.362566 L 156.379405 311.365866 L 159.841599 313.369167 L 163.303793 315.372468 L 166.765987 317.375769 L 170.228180 319.379070 L 173.690374 321.382371 L 177.150565 323.389072 L 180.581366 325.445673 L 184.012166 327.502275 L 187.442966 329.558876 L 190.873766 331.615478 L 194.304566 333.672079 L 197.735366 335.728681 L 201.166167 337.785283 L 204.611303 339.817596 L 208.069804 341.827265 L 211.528305 343.836934 L 214.986806 345.846603 L 218.445307 347.856272 L 220.301793 348.935040" fill="none" id="10" stroke="black" stroke-width="0.5" /><path d="M 23.545883 256.809060 L 27.087475 258.668395 L 30.629067 260.527730 L 34.166073 262.395425 L 37.637375 264.382901 L 41.108678 266.370376 L 44.579981 268.357851 L 48.051256 270.345372 L 51.457287 272.442741 L 54.863317 274.540110 L 58.269348 276.637478 L 61.675379 278.734847 L 65.081409 280.832216 L 68.487440 282.929585 L 71.893470 285.026953 L 75.299501 287.124322 L 78.726661 289.186532 L 82.177217 291.209813 L 85.627772 293.233094 L 89.078328 295.256375 L 92.528883 297.279656 L 95.979439 299.302937 L 99.415979 301.349710 L 102.835403 303.425172 L 106.254826 305.500634 L 109.674250 307.576096 L 113.093673 309.651558 L 116.513097 311.727020 L 119.932520 313.802482 L 123.351944 315.877944 L 126.771367 317.953407 L 130.203673 320.007169 L 133.663083 322.015273 L 137.122493 324.023376 L 140.581903 326.031480 L 144.041313 328.039584 L 147.500724 330.047688 L 150.960134 332.055792 L 154.419544 334.063896 L 157.878954 336.072000 L 161.338364 338.080104 L 164.797774 340.088208 L 168.257185 342.096312 L 171.716595 344.104416 L 175.158044 346.142487 L 178.559866 348.246675 L 181.961688 350.350863 L 185.363510 352.455051 L 188.765332 354.559239 L 192.167154 356.663427 L 195.568976 358.767615 L 198.970798 360.871802 L 202.396134 362.937159 L 205.837179 364.976573 L 209.278225 367.015986 L 212.719270 369.055399 L 216.160315 371.094813 L 219.601361 373.134226 L 223.042406 375.173639 L 226.483451 377.213053 L 229.924497 379.252466 L 233.360994 381.299142 L 236.697959 383.504740 L 240.034924 385.710338 L 240.112813 385.761820" fill="none" id="11" stroke="black" stroke-width="0.5" /><path d="M 116.742733 204.297250 L 119.012225 204.103976 L 122.629554 202.396659 L 126.245112 200.685783 L 129.788643 198.830146 L 133.312189 196.937268 L 136.817425 195.010271 L 140.322661 193.083273 L 143.827897 191.156276 L 147.333134 189.229279 L 150.838370 187.302281 L 154.343606 185.375284 L 157.848842 183.448287 L 161.354079 181.521289 L 164.859315 179.594292 L 168.364551 177.667295 L 171.822721 175.657549 L 175.270574 173.629667 L 178.718428 171.601784 L 182.166281 169.573902 L 185.614134 167.546020 L 189.061988 165.518137 L 192.509841 163.490255 L 195.957695 161.462373 L 199.405548 159.434491 L 202.853402 157.406608 L 206.319285 155.410178 L 209.811508 153.459696 L 213.303730 151.509214 L 216.795953 149.558732 L 220.288176 147.608250 L 223.780399 145.657768 L 227.272622 143.707287 L 230.764845 141.756805 L 234.257068 139.806323 L 237.749290 137.855841 L 241.241513 135.905359 L 244.733736 133.954877 L 248.225959 132.004395 L 251.724866 130.066096 L 255.246185 128.168648 L 258.767504 126.271199 L 262.288824 124.373751 L 265.810143 122.476302 L 269.331462 120.578854 L 272.860353 118.695621 L 276.399878 116.832354 L 279.939403 114.969087 L 283.478928 113.105820 L 287.018453 111.242554 L 290.557978 109.379287 L 294.097503 107.516020 L 297.637028 105.652754 L 301.176553 103.789487 L 304.716078 101.926220 L 308.255603 100.062954 L 311.795128 98.199687 L 315.334653 96.336420 L 318.889520 94.502723 L 322.450960 92.681695 L 326.012400 90.860667 L 329.573840 89.039638 L 333.135280 87.218610 L 336.696720 85.397582 L 340.259908 83.580042 L 343.851219 81.818654 L 347.442529 80.057266 L 351.033840 78.295878 L 354.625151 76.534490 L 358.216461 74.773103 L 361.807772 73.011715 L 365.392856 71.237959 L 368.946475 69.401717 L 372.500095 67.565474 L 376.053714 65.729231 L 379.607334 63.892988 L 383.160954 62.056746 L 386.714573 60.220503 L 390.268193 58.384260 L 393.821813 56.548017 L 397.375432 54.711775 L 400.929052 52.875532 L 404.509377 51.091956 L 408.090705 49.310359 L 411.672033 47.528761 L 415.261619 45.763964 L 418.859801 44.016657 L 422.457983 42.269349 L 426.056166 40.522041 L 429.654348 38.774734 L 433.252530 37.027426 L 436.850713 35.280119 L 440.448895 33.532811 L 444.047078 31.785503 L 447.645260 30.038196 L 451.243442 28.290888 L 454.841625 26.543581 L 458.439807 24.796273 L 462.037989 23.048965 L 465.636172 21.301658 L 469.234354 19.554350 L 472.848528 17.840734 L 476.477236 16.157736 L 480.105943 14.474738 L 483.734651 12.791740 L 487.363358 11.108743 L 490.992066 9.425745 L 494.602255 7.703547 L 498.206891 5.969590 L 501.811526 4.235634 L 505.416161 2.501678 L 509.020797 0.767722 L 510.097063 0.250000" fill="none" id="12" stroke="black" stroke-width="0.5" /><path d="M 104.679743 201.580710 L 107.791307 199.617890 L 111.500572 198.120774 L 115.166195 196.522338 L 118.802382 194.855561 L 122.438568 193.188783 L 126.074755 191.522006 L 129.710941 189.855228 L 133.347128 188.188451 L 136.983315 186.521674 L 140.641423 184.903826 L 144.305703 183.299752 L 147.969983 181.695679 L 151.634263 180.091605 L 155.298544 178.487532 L 158.962824 176.883459 L 162.586839 175.192461 L 166.179957 173.434763 L 169.773075 171.677065 L 173.366193 169.919367 L 176.959311 168.161670 L 180.552430 166.403972 L 184.145548 164.646274 L 187.738666 162.888576 L 191.331784 161.130878 L 194.924902 159.373180 L 198.518732 157.616963 L 202.135974 155.909462 L 205.753216 154.201962 L 209.370459 152.494461 L 212.987701 150.786960 L 216.604943 149.079459 L 220.222185 147.371959 L 223.839427 145.664458 L 227.456670 143.956957 L 231.073912 142.249456 L 234.691154 140.541956 L 238.310598 138.839180 L 241.945026 137.168573 L 245.579455 135.497967 L 249.213884 133.827360 L 252.848313 132.156753 L 256.482742 130.486146 L 260.117171 128.815540 L 263.751599 127.144933 L 267.386028 125.474326 L 271.020457 123.803719 L 274.654886 122.133112 L 278.289315 120.462506 L 281.923744 118.791899 L 285.558173 117.121292 L 289.192601 115.450685 L 292.827030 113.780079 L 296.461459 112.109472 L 300.095888 110.438865 L 303.730317 108.768258 L 307.364746 107.097652 L 310.999174 105.427045 L 314.633603 103.756438 L 318.268032 102.085831 L 321.902461 100.415224 L 325.536890 98.744618 L 329.171319 97.074011 L 332.805747 95.403404 L 336.466299 93.791246 L 340.135219 92.197814 L 343.804139 90.604383 L 347.473059 89.010951 L 351.141979 87.417519 L 354.810899 85.824087 L 358.479820 84.230656 L 362.148740 82.637224 L 365.817660 81.043792 L 369.486580 79.450360 L 373.155500 77.856929 L 376.824420 76.263497 L 380.493341 74.670065 L 384.162261 73.076633 L 387.831181 71.483201 L 391.500101 69.889770 L 395.169021 68.296338 L 398.837941 66.702906 L 402.506862 65.109474 L 406.175782 63.516043 L 409.844702 61.922611 L 413.513622 60.329179 L 417.182542 58.735747 L 420.851462 57.142316 L 424.520383 55.548884 L 428.180317 53.934976 L 431.836984 52.313624 L 435.493652 50.692272 L 439.150319 49.070919 L 442.806987 47.449567 L 446.463654 45.828215 L 450.120322 44.206863 L 453.809522 42.661247 L 457.502917 41.125398 L 461.196312 39.589548 L 464.889707 38.053699 L 468.583102 36.517850 L 472.276497 34.982001 L 475.969892 33.446152 L 479.663287 31.910303 L 483.356682 30.374454 L 487.050078 28.838605 L 490.743473 27.302755 L 494.436868 25.766906 L 497.971083 24.297250" fill="none" id="13" stroke="black" stroke-width="0.5" /><path d="M 118.978953 421.761820 L 122.758897 420.453376 L 126.480984 419.002007 L 130.106716 417.312609 L 133.732448 415.623210 L 137.287789 413.792447 L 140.819244 411.914076 L 144.275085 409.899835 L 147.730926 407.885595 L 151.186767 405.871355 L 154.642608 403.857115 L 158.098448 401.842875 L 161.554289 399.828634 L 164.944573 397.707318 L 168.309923 395.545277 L 171.675272 393.383236 L 175.040622 391.221195 L 178.405971 389.059154 L 181.771321 386.897112 L 185.136671 384.735071 L 188.519265 382.600375 L 191.920493 380.495227 L 195.321720 378.390078 L 198.722948 376.284930 L 202.124175 374.179781 L 205.525403 372.074633 L 208.926631 369.969484 L 212.327858 367.864335 L 215.729086 365.759187 L 219.130314 363.654038 L 222.531541 361.548890 L 225.932769 359.443741 L 229.319583 357.315689 L 232.688896 355.159830 L 236.058209 353.003971 L 239.427522 350.848111 L 242.796835 348.692252 L 246.166148 346.536393 L 249.535461 344.380534 L 252.904774 342.224674 L 256.274087 340.068815 L 259.643400 337.912956 L 263.012714 335.757096 L 266.390643 333.615217 L 269.830605 331.573975 L 273.270566 329.532734 L 276.710527 327.491493 L 280.150489 325.450252 L 283.590450 323.409010 L 287.030411 321.367769 L 290.470373 319.326528 L 293.910334 317.285286 L 297.350295 315.244045 L 300.776370 313.179718 L 304.191674 311.097484 L 307.606978 309.015250 L 311.022282 306.933016 L 314.437586 304.850782 L 317.852890 302.768548 L 321.268194 300.686314 L 324.683498 298.604079 L 328.098802 296.521845 L 331.514106 294.439611 L 334.963940 292.416008 L 338.441207 290.438987 L 341.918474 288.461965 L 345.395741 286.484944 L 348.873008 284.507923 L 352.350275 282.530901 L 355.827542 280.553880 L 359.304810 278.576859 L 362.782077 276.599837 L 366.259344 274.622816 L 369.736611 272.645794 L 373.213878 270.668773 L 376.691145 268.691752 L 380.168412 266.714730 L 383.635810 264.720732 L 387.074393 262.677170 L 390.512976 260.633608 L 393.951559 258.590046 L 397.371230 256.515175 L 400.780128 254.422470 L 404.189026 252.329764 L 407.597924 250.237059 L 411.006821 248.144354 L 414.415719 246.051649 L 417.824617 243.958943 L 421.247433 241.890419 L 424.769317 239.994020 L 428.291202 238.097621 L 431.813086 236.201221 L 435.083140 235.380326 L 438.573164 233.425912 L 442.063188 231.471499 L 445.553212 229.517085 L 449.043236 227.562672 L 452.533260 225.608258 L 456.023285 223.653845 L 459.513309 221.699431 L 462.964792 219.678163 L 466.405026 217.637381 L 469.845260 215.596600 L 473.285494 213.555819 L 476.725729 211.515038 L 480.165963 209.474256 L 483.606197 207.433475 L 486.825617 206.682964 L 490.320568 204.737374 L 493.815518 202.791784 L 497.310469 200.846194 L 500.805420 198.900604 L 504.300370 196.955014 L 507.795321 195.009424 L 511.290272 193.063834 L 514.785222 191.118244 L 518.280173 189.172654 L 521.775124 187.227064 L 525.270074 185.281475 L 528.765025 183.335885 L 532.259975 181.390295 L 535.199433 179.753940" fill="none" id="14" stroke="black" stroke-width="0.5" /><path d="M 121.939583 421.738190 L 125.682680 420.327792 L 129.425777 418.917393 L 133.168874 417.506995 L 136.911972 416.096596 L 140.655069 414.686198 L 144.360532 413.180906 L 148.052838 411.642443 L 151.714236 410.032016 L 155.372140 408.413456 L 159.030044 406.794896 L 162.680504 405.160324 L 166.275578 403.406630 L 169.870652 401.652936 L 173.465726 399.899243 L 176.965987 397.964612 L 180.454013 396.006635 L 183.942039 394.048658 L 187.430065 392.090681 L 190.918091 390.132704 L 194.407184 388.176665 L 197.926215 386.274975 L 201.445245 384.373285 L 204.964276 382.471595 L 208.483306 380.569905 L 212.002336 378.668214 L 215.521367 376.766524 L 219.040397 374.864834 L 222.559427 372.963144 L 226.078458 371.061454 L 229.596821 369.158577 L 233.050366 367.140403 L 236.503911 365.122229 L 239.957456 363.104054 L 243.411001 361.085880 L 246.864546 359.067706 L 250.318091 357.049532 L 253.771636 355.031358 L 257.225181 353.013184 L 260.678726 350.995009 L 264.132271 348.976835 L 267.585816 346.958661 L 271.053367 344.964997 L 274.545386 343.014151 L 278.037406 341.063304 L 281.529425 339.112458 L 285.021444 337.161611 L 288.513463 335.210765 L 292.005482 333.259918 L 295.497501 331.309072 L 298.989521 329.358225 L 302.481540 327.407379 L 305.973559 325.456533 L 309.465578 323.505686 L 312.957597 321.554840 L 316.449617 319.603993 L 319.941636 317.653147 L 323.433655 315.702300 L 326.925674 313.751454 L 330.417693 311.800607 L 333.909712 309.849761 L 337.401732 307.898914 L 340.893751 305.948068 L 344.385770 303.997221 L 347.877789 302.046375 L 351.369416 300.094832 L 354.848682 298.121330 L 358.327948 296.147829 L 361.807214 294.174327 L 365.286480 292.200826 L 368.765746 290.227324 L 372.245012 288.253823 L 375.724278 286.280321 L 379.203544 284.306820 L 382.682810 282.333318 L 386.162076 280.359817 L 389.641342 278.386315 L 393.120608 276.412814 L 396.599874 274.439312 L 400.079140 272.465811 L 403.558406 270.492309 L 407.037672 268.518808 L 410.516938 266.545306 L 413.996204 264.571805 L 417.475470 262.598304 L 420.954736 260.624802 L 424.434002 258.651301 L 427.913268 256.677799 L 431.392534 254.704298 L 434.871800 252.730796 L 438.351066 250.757295 L 441.830332 248.783793 L 445.309598 246.810292 L 448.788864 244.836790 L 452.268130 242.863289 L 455.747396 240.889787 L 459.229719 238.921787 L 462.743211 237.009884 L 466.256704 235.097982 L 469.770196 233.186080 L 473.283689 231.274177 L 476.797181 229.362275 L 480.310674 227.450373 L 483.863157 225.612034 L 487.417747 223.777670 L 490.968980 221.937068 L 494.458140 219.981112 L 497.947299 218.025156 L 500.018323 216.864180" fill="none" id="15" stroke="black" stroke-width="0.5" /><path d="M 484.585253 228.698820 L 480.932046 230.327954 L 477.288738 231.977457 L 473.750598 233.843351 L 470.212457 235.709245 L 466.674316 237.575139 L 463.136175 239.441033 L 459.612855 241.334136 L 456.126186 243.294530 L 452.639518 245.254923 L 449.152850 247.215317 L 445.666181 249.175711 L 442.179513 251.136104 L 438.692844 253.096498 L 435.190990 255.029240 L 431.665926 256.919724 L 428.140863 258.810207 L 424.615799 260.700691 L 421.090736 262.591174 L 417.565672 264.481658 L 414.040609 266.372141 L 410.515546 268.262624 L 406.990482 270.153108 L 403.465419 272.043591 L 399.940355 273.934075 L 396.415292 275.824558 L 392.890228 277.715042 L 389.365165 279.605525 L 385.840101 281.496009 L 382.315038 283.386492 L 378.789975 285.276976 L 375.264911 287.167459 L 371.739848 289.057943 L 368.214784 290.948426 L 364.712737 292.880962 L 361.220412 294.831261 L 357.728088 296.781561 L 354.235763 298.731861 L 350.743438 300.682160 L 347.251114 302.632460 L 343.758789 304.582759 L 340.262348 306.525585 L 336.747341 308.434701 L 333.232333 310.343816 L 329.717326 312.252932 L 326.202318 314.162047 L 322.687311 316.071163 L 319.172303 317.980279 L 315.657296 319.889394 L 312.142288 321.798510 L 308.627281 323.707625 L 305.112273 325.616741 L 301.597266 327.525856 L 298.082258 329.434972 L 294.621595 331.439225 L 291.191623 333.497208 L 287.761651 335.555191 L 284.331680 337.613174 L 281.627521 339.994759 L 278.152192 341.975186 L 274.676864 343.955613 L 271.201535 345.936040 L 267.726206 347.916467 L 264.250878 349.896894 L 260.775549 351.877321 L 257.300220 353.857748 L 253.824892 355.838175 L 250.349563 357.818601 L 246.897571 359.839333 L 243.449834 361.867413 L 240.002097 363.895494 L 236.554361 365.923574 L 233.106624 367.951655 L 229.709893 370.063839 L 226.317900 372.183835 L 222.925906 374.303830 L 219.533913 376.423826 L 216.813603 378.124020" fill="none" id="16" stroke="black" stroke-width="0.5" /><path d="M 207.671873 133.643710 L 207.986170 137.631343 L 208.300467 141.618976 L 208.614763 145.606609 L 208.871742 149.597706 L 209.039966 153.594167 L 209.208190 157.590628 L 209.376413 161.587089 L 209.544637 165.583550 L 209.712860 169.580011 L 209.881084 173.576473 L 210.020735 177.573916 L 210.127512 181.572491 L 210.234290 185.571065 L 210.341068 189.569640 L 210.447845 193.568215 L 210.554623 197.566789 L 210.661400 201.565364 L 210.768178 205.563938 L 210.874955 209.562513 L 210.981733 213.561087 L 211.088511 217.559662 L 211.195288 221.558237 L 211.302066 225.556811 L 211.353366 229.556374 L 211.389143 233.556214 L 211.424919 237.556054 L 211.460695 241.555894 L 211.496471 245.555734 L 211.532247 249.555574 L 211.568023 253.555414 L 211.603799 257.555254 L 211.639575 261.555095 L 211.675351 265.554935 L 211.711127 269.554775 L 211.746903 273.554615 L 211.763859 277.554526 L 211.758369 281.554522 L 211.752878 285.554518 L 211.747388 289.554514 L 211.741897 293.554511 L 211.736407 297.554507 L 211.730916 301.554503 L 211.725426 305.554499 L 211.719935 309.554496 L 211.714445 313.554492 L 211.708954 317.554488 L 211.703464 321.554484 L 211.617393 325.553543 L 211.529813 329.552584 L 211.442234 333.551625 L 211.354655 337.550666 L 211.267076 341.549707 L 211.179497 345.548749 L 211.121583 349.548313 L 211.068182 353.547956 L 211.014781 357.547600 L 210.961379 361.547243 L 210.907978 365.546887 L 210.854577 369.546530 L 210.801176 373.546174 L 210.747775 377.545817 L 210.694374 381.545461 L 210.640973 385.545104 L 210.587571 389.544748 L 210.534170 393.544391 L 210.480769 397.544035 L 210.456504 401.543948 L 210.435752 405.543895 L 210.415000 409.543841 L 210.394248 413.543787 L 210.373496 417.543733 L 210.352744 421.543679 L 210.331992 425.543625 L 210.311240 429.543572 L 210.290488 433.543518 L 210.269735 437.543464 L 210.248983 441.543410 L 210.228231 445.543356 L 210.207479 449.543302 L 210.186727 453.543249 L 210.165975 457.543195 L 210.145223 461.543141 L 210.124471 465.543087 L 210.103719 469.543033 L 210.082967 473.542980 L 210.065573 476.895670" fill="none" id="17" stroke="black" stroke-width="0.5" /><path d="M 29.372663 262.383860 L 31.125214 262.196938 L 34.890521 263.543859 L 38.612263 265.009682 L 42.266011 266.635633 L 45.905368 268.295477 L 49.447444 270.152509 L 52.979196 272.030467 L 56.510948 273.908426 L 60.042700 275.786384 L 63.574452 277.664342 L 67.106204 279.542300 L 70.637956 281.420259 L 74.169708 283.298217 L 77.701460 285.176175 L 81.233212 287.054134 L 84.703783 289.040047 L 88.129510 291.105088 L 91.555237 293.170130 L 94.980964 295.235171 L 98.406691 297.300212 L 101.762096 299.475613 L 105.080993 301.708306 L 108.399891 303.940999 L 111.718789 306.173692 L 115.037686 308.406385 L 118.356584 310.639078 L 121.675482 312.871771 L 125.021263 315.063363 L 128.396829 317.209419 L 131.772395 319.355475 L 135.147960 321.501530 L 138.523526 323.647586 L 141.899092 325.793642 L 145.304810 327.891369 L 148.716326 329.979804 L 152.127842 332.068238 L 155.539359 334.156672 L 158.979057 336.198334 L 162.419616 338.238568 L 165.860174 340.278803 L 169.300733 342.319037 L 172.741291 344.359272 L 176.181850 346.399506 L 179.622408 348.439741 L 183.062967 350.479976 L 186.503525 352.520210 L 189.944084 354.560445 L 193.384642 356.600679 L 194.758483 357.415360" fill="none" id="18" stroke="black" stroke-width="0.5" /><path d="M 460.301793 210.509850 L 459.365901 214.320687 L 458.821726 218.283498 L 458.676661 222.274814 L 458.652141 226.274739 L 458.693735 230.272321 L 459.001304 234.260478 L 459.308873 238.248636 L 459.616443 242.236794 L 459.924012 246.224951 L 460.178059 250.216626 L 460.395057 254.210736 L 460.612056 258.204845 L 460.814359 262.199501 L 460.894617 266.198696 L 460.974876 270.197891 L 461.055135 274.197086 L 461.135393 278.196280 L 461.215652 282.195475 L 461.295911 286.194670 L 461.315096 290.194527 L 461.321652 294.194522 L 461.328209 298.194517 L 461.334765 302.194511 L 461.341321 306.194506 L 461.347878 310.194501 L 461.354434 314.194495 L 461.360990 318.194490 L 461.367546 322.194484 L 461.374103 326.194479 L 461.380659 330.194474 L 461.387215 334.194468 L 461.393772 338.194463 L 461.400328 342.194458 L 461.406884 346.194452 L 461.413441 350.194447 L 461.419997 354.194441 L 461.426553 358.194436 L 461.433110 362.194431 L 461.452072 366.194374 L 461.478896 370.194284 L 461.505720 374.194194 L 461.532544 378.194104 L 461.559368 382.194014 L 461.586192 386.193924 L 461.613016 390.193834 L 461.639840 394.193744 L 461.666664 398.193654 L 461.693488 402.193564 L 461.720312 406.193474 L 461.747136 410.193384 L 461.773960 414.193294 L 461.782103 418.193267 L 461.782103 422.193267 L 461.782103 426.193267 L 461.782103 430.193267 L 461.782103 434.193267 L 461.782103 438.193267 L 461.782103 442.193267 L 461.782103 446.193267 L 461.782103 450.193267 L 461.782103 454.193267 L 461.782103 458.193267 L 461.782103 462.193267 L 461.782103 466.193267 L 461.782103 469.690950" fill="none" id="19" stroke="black" stroke-width="0.5" /><path d="M 280.427773 138.179140 L 283.938324 140.096438 L 287.484324 141.942192 L 291.136395 143.573872 L 294.788465 145.205553 L 298.440536 146.837233 L 302.092606 148.468914 L 305.743551 150.103023 L 309.349206 151.834857 L 312.954861 153.566692 L 316.560516 155.298527 L 320.166171 157.030362 L 323.771826 158.762197 L 327.377481 160.494031 L 330.983136 162.225866 L 334.588791 163.957701 L 338.232118 165.607118 L 341.901109 167.200388 L 345.570099 168.793658 L 349.239090 170.386928 L 352.908080 171.980197 L 356.577071 173.573467 L 360.246061 175.166737 L 363.915051 176.760007 L 367.584042 178.353277 L 371.253032 179.946547 L 374.922023 181.539817 L 378.591013 183.133086 L 382.260004 184.726356 L 385.928994 186.319626 L 389.597985 187.912896 L 393.266975 189.506166 L 396.967788 191.022306 L 400.692832 192.479720 L 404.417875 193.937133 L 408.142918 195.394547 L 411.867961 196.851961 L 415.607620 198.271183 L 419.353875 199.673172 L 423.100130 201.075160 L 426.846386 202.477149 L 430.592641 203.879138 L 434.338896 205.281126 L 438.085151 206.683115 L 441.831406 208.085104 L 445.577661 209.487093 L 449.323917 210.889081 L 453.070172 212.291070 L 456.816427 213.693059 L 460.579200 215.047812 L 464.382762 216.285922 L 468.186324 217.524032 L 471.989885 218.762142 L 475.793447 220.000253 L 479.597009 221.238363 L 483.382136 222.531018 L 487.156930 223.854247 L 490.931723 225.177476 L 494.706516 226.500705 L 495.451403 226.761820" fill="none" id="20" stroke="black" stroke-width="0.5" /><path d="M 283.734863 145.289370 L 280.071999 143.724834 L 278.703587 142.549630 L 282.541537 143.643663 L 286.348432 144.871486 L 290.137184 146.152139 L 293.895182 147.522340 L 297.653180 148.892540 L 301.407475 150.272061 L 305.080856 151.855180 L 308.754238 153.438299 L 312.382428 155.121200 L 315.995222 156.838091 L 319.608016 158.554983 L 323.252296 160.203672 L 326.902446 161.839643 L 330.552597 163.475614 L 334.213076 165.087753 L 337.902660 166.632736 L 341.592243 168.177718 L 345.281827 169.722700 L 348.971411 171.267683 L 352.660995 172.812665 L 356.350579 174.357648 L 360.013531 175.964279 L 363.667540 177.591615 L 367.321548 179.218951 L 370.975557 180.846287 L 374.629565 182.473623 L 378.283574 184.100958 L 381.937582 185.728294 L 385.591591 187.355630 L 389.245599 188.982966 L 392.931683 190.534571 L 396.642957 192.026698 L 400.354231 193.518826 L 404.065505 195.010953 L 407.776779 196.503081 L 411.488053 197.995208 L 415.199328 199.487335 L 418.928676 200.933394 L 422.664478 202.363003 L 426.400281 203.792612 L 430.136083 205.222221 L 433.871885 206.651830 L 437.607687 208.081439 L 441.343489 209.511048 L 445.079291 210.940657 L 448.815094 212.370266 L 452.550896 213.799875 L 456.319086 215.137310 L 460.128032 216.358756 L 463.936978 217.580201 L 467.745924 218.801647 L 471.594689 219.890204 L 475.447699 220.964596 L 479.339260 221.889546 L 483.231176 222.813118 L 483.545883 222.887800" fill="none" id="21" stroke="black" stroke-width="0.5" /><path d="M 276.238803 123.320870 L 276.034920 127.311904 L 276.138101 131.308378 L 276.590031 135.282766 L 277.041960 139.257154 L 277.493890 143.231542 L 277.945820 147.205930 L 278.397750 151.180318 L 278.849679 155.154706 L 279.301609 159.129094 L 279.730277 163.105852 L 280.089308 167.089707 L 280.448339 171.073561 L 280.807371 175.057416 L 281.090957 179.047203 L 281.358993 183.038212 L 281.627030 187.029222 L 281.895066 191.020231 L 282.123656 195.013655 L 282.344391 199.007560 L 282.565125 203.001465 L 282.785859 206.995370 L 283.006593 210.989275 L 283.227328 214.983180 L 283.448062 218.977084 L 283.668796 222.970989 L 283.889530 226.964894 L 284.110264 230.958799 L 284.330999 234.952704 L 284.551733 238.946609 L 284.772467 242.940514 L 284.993201 246.934419 L 285.213936 250.928324 L 285.434670 254.922229 L 285.655404 258.916134 L 285.876138 262.910038 L 286.096872 266.903943 L 286.317607 270.897848 L 286.538341 274.891753 L 286.759075 278.885658 L 286.979809 282.879563 L 287.200544 286.873468 L 287.421278 290.867373 L 287.642012 294.861278 L 287.862746 298.855183 L 288.083481 302.849087 L 288.310747 306.842613 L 288.553524 310.835239 L 288.796301 314.827865 L 289.039078 318.820490 L 289.281855 322.813116 L 289.524633 326.805741 L 289.767410 330.798367 L 290.010187 334.790993 L 290.252964 338.783618 L 290.479172 342.777151 L 290.673892 346.772409 L 290.868613 350.767667 L 291.063334 354.762924 L 291.258054 358.758182 L 291.452775 362.753440 L 291.647496 366.748697 L 291.842217 370.743955 L 292.036937 374.739213 L 292.231658 378.734470 L 292.426379 382.729728 L 292.621100 386.724986 L 292.815820 390.720243 L 293.010541 394.715501 L 293.205262 398.710759 L 293.399983 402.706016 L 293.498643 404.730320" fill="none" id="22" stroke="black" stroke-width="0.5" /><path d="M 461.215173 215.895670 L 460.570414 219.842638 L 460.260669 223.830627 L 460.106315 227.827017 L 459.984305 231.825156 L 459.862296 235.823295 L 459.786211 239.822276 L 459.761537 243.822199 L 459.736863 247.822123 L 459.712188 251.822047 L 459.687514 255.821971 L 459.662840 259.821895 L 459.638165 263.821819 L 459.613491 267.821743 L 459.588817 271.821667 L 459.531098 275.821132 L 459.444842 279.820202 L 459.358587 283.819272 L 459.272332 287.818342 L 459.163851 291.816814 L 459.034847 295.814733 L 458.905843 299.812652 L 458.776840 303.810571 L 458.647836 307.808491 L 458.518833 311.806410 L 458.389829 315.804329 L 458.260825 319.802248 L 458.131822 323.800167 L 458.002818 327.798087 L 457.873815 331.796006 L 457.744811 335.793925 L 457.615807 339.791844 L 457.486804 343.789764 L 457.357800 347.787683 L 457.228797 351.785602 L 457.099793 355.783521 L 456.970789 359.781440 L 456.841786 363.779360 L 456.712782 367.777279 L 456.637937 371.776452 L 456.581737 375.776057 L 456.525537 379.775663 L 456.469338 383.775268 L 456.413138 387.774873 L 456.398540 391.774754 L 456.401764 395.774752 L 456.404988 399.774751 L 456.408212 403.774750 L 456.411436 407.774748 L 456.414659 411.774747 L 456.417883 415.774746 L 456.421107 419.774745 L 456.424331 423.774743 L 456.427555 427.774742 L 456.427773 428.045280" fill="none" id="23" stroke="black" stroke-width="0.5" /><path d="M 458.695493 214.620080 L 457.470261 218.066102 L 457.494153 222.065913 L 457.758384 226.055793 L 458.067167 230.043815 L 458.206385 234.041392 L 458.321503 238.039638 L 458.404388 242.038779 L 458.487273 246.037920 L 458.569284 250.037067 L 458.539845 254.036959 L 458.510407 258.036850 L 458.480968 262.036742 L 458.451529 266.036634 L 458.422091 270.036525 L 458.392652 274.036417 L 458.270020 278.033776 L 458.082176 282.029363 L 457.894333 286.024950 L 457.706489 290.020537 L 457.518645 294.016124 L 457.330801 298.011710 L 457.122590 302.006246 L 456.897858 305.999928 L 456.673126 309.993609 L 456.448394 313.987291 L 456.223662 317.980973 L 455.998930 321.974655 L 455.774198 325.968337 L 455.549466 329.962019 L 455.324733 333.955701 L 455.100001 337.949383 L 454.875269 341.943065 L 454.650537 345.936747 L 454.425805 349.930429 L 454.201073 353.924111 L 453.976341 357.917793 L 453.763516 361.912102 L 453.567404 365.907292 L 453.371293 369.902481 L 453.175182 373.897671 L 452.979071 377.892861 L 452.782959 381.888050 L 452.586848 385.883240 L 452.390737 389.878430 L 452.194625 393.873619 L 451.998514 397.868809 L 451.802403 401.863999 L 451.606292 405.859188 L 451.410180 409.854378 L 451.214069 413.849567 L 451.017958 417.844757 L 450.821847 421.839947 L 450.625735 425.835136 L 450.429624 429.830326 L 450.233513 433.825516 L 450.037401 437.820705 L 449.841290 441.815895 L 449.666290 445.812041 L 449.500415 449.808600 L 449.334541 453.805159 L 449.168666 457.801719 L 449.002791 461.798278 L 448.836916 465.794837 L 448.694978 469.792274 L 448.567579 473.790245 L 448.440181 477.788216 L 448.312782 481.786186 L 448.185383 485.784157 L 448.057985 489.782128 L 447.930586 493.780098 L 447.803188 497.778069 L 447.675789 501.776040 L 447.563316 505.774364 L 447.501502 509.773886 L 447.439689 513.773408 L 447.377875 517.772931 L 447.316061 521.772453 L 447.254248 525.771975 L 447.192434 529.771498 L 447.130621 533.771020 L 447.068807 537.770542 L 447.006993 541.770065 L 446.945180 545.769587 L 446.883366 549.769110 L 446.821553 553.768632 L 446.759739 557.768154 L 446.697925 561.767677 L 446.636112 565.767199 L 446.574298 569.766721 L 446.512484 573.766244 L 446.450671 577.765766 L 446.412033 580.265750" fill="none" id="24" stroke="black" stroke-width="0.5" /><path d="M 274.254543 136.100400 L 274.569513 138.962168 L 274.569513 142.962168 L 274.569513 146.962168 L 274.569513 150.962168 L 274.569513 154.962168 L 274.569513 158.962168 L 274.511660 162.961666 L 274.442255 166.961064 L 274.372850 170.960462 L 274.303444 174.959859 L 274.234039 178.959257 L 274.146294 182.958228 L 274.029603 186.956526 L 273.912913 190.954823 L 273.796222 194.953121 L 273.679531 198.951419 L 273.562840 202.949716 L 273.446150 206.948014 L 273.329459 210.946311 L 273.212768 214.944609 L 273.096077 218.942906 L 272.979387 222.941204 L 272.862696 226.939501 L 272.746005 230.937799 L 272.629314 234.936096 L 272.512623 238.934394 L 272.354061 242.931199 L 272.185852 246.927661 L 272.017644 250.924123 L 271.849435 254.920584 L 271.681226 258.917046 L 271.479965 262.911876 L 271.253763 266.905475 L 271.027561 270.899074 L 270.801359 274.892673 L 270.575156 278.886272 L 270.348954 282.879871 L 270.122752 286.873470 L 269.896550 290.867069 L 269.670348 294.860668 L 269.444145 298.854267 L 269.217943 302.847866 L 268.991741 306.841465 L 268.765539 310.835064 L 268.539337 314.828663 L 268.313135 318.822262 L 268.086932 322.815860 L 267.860730 326.809459 L 267.634528 330.803058 L 267.408326 334.796657 L 267.182124 338.790256 L 266.955922 342.783855 L 266.706530 346.776042 L 266.446433 350.767577 L 266.186336 354.759111 L 265.926238 358.750646 L 265.666141 362.742181 L 265.406044 366.733716 L 265.145946 370.725250 L 264.885849 374.716785 L 264.625752 378.708320 L 264.365654 382.699854 L 264.105557 386.691389 L 263.845459 390.682924 L 263.585362 394.674458 L 263.325265 398.665993 L 263.065167 402.657528 L 262.805070 406.649063 L 262.544973 410.640597 L 262.284875 414.632132 L 262.024778 418.623667 L 261.764681 422.615201 L 261.504583 426.606736 L 261.244486 430.598271 L 260.984389 434.589806 L 260.724291 438.581340 L 260.464194 442.572875 L 260.204096 446.564410 L 259.943999 450.555944 L 259.683902 454.547479 L 259.423804 458.539014 L 259.163707 462.530549 L 258.903610 466.522083 L 258.643512 470.513618 L 258.383415 474.505153 L 258.123318 478.496687 L 257.863220 482.488222 L 257.603123 486.479757 L 257.343026 490.471292 L 257.082928 494.462826 L 256.822831 498.454361 L 256.562733 502.445896 L 256.302636 506.437430 L 256.042539 510.428965 L 255.782441 514.420500 L 255.522344 518.412035 L 255.272406 522.404196 L 255.040220 526.397451 L 254.808035 530.390707 L 254.575850 534.383962 L 254.343665 538.377218 L 254.111479 542.370473 L 253.879294 546.363729 L 253.647109 550.356985 L 253.414924 554.350240 L 253.182738 558.343496 L 252.972758 562.337908 L 252.788694 566.333671 L 252.604629 570.329434 L 252.420565 574.325197 L 252.236500 578.320959 L 252.052435 582.316722 L 251.923843 585.108270" fill="none" id="25" stroke="black" stroke-width="0.5" /><path d="M 272.868723 136.383860 L 273.546496 138.476775 L 273.961187 142.455221 L 274.375878 146.433667 L 274.790570 150.412113 L 275.110833 154.398941 L 275.403454 158.388224 L 275.696076 162.377506 L 275.988697 166.366788 L 276.281319 170.356070 L 276.573941 174.345352 L 276.866562 178.334635 L 277.159184 182.323917 L 277.421866 186.314978 L 277.603789 190.310839 L 277.785713 194.306700 L 277.967636 198.302561 L 278.133470 202.299103 L 278.290048 206.296037 L 278.446626 210.292972 L 278.603204 214.289906 L 278.759782 218.286840 L 278.916360 222.283774 L 279.072938 226.280709 L 279.229517 230.277643 L 279.386095 234.274577 L 279.542673 238.271511 L 279.699251 242.268445 L 279.822230 246.266314 L 279.888065 250.265772 L 279.953900 254.265231 L 280.019736 258.264689 L 280.085571 262.264147 L 280.144900 266.263663 L 280.150351 270.263659 L 280.155801 274.263656 L 280.161251 278.263652 L 280.166702 282.263648 L 280.172152 286.263645 L 280.177602 290.263641 L 280.183053 294.263637 L 280.188503 298.263633 L 280.193953 302.263630 L 280.199404 306.263626 L 280.204854 310.263622 L 280.157163 314.263050 L 280.066106 318.262013 L 279.975050 322.260977 L 279.857547 326.259138 L 279.706060 330.256268 L 279.554573 334.253399 L 279.403086 338.250529 L 279.251599 342.247660 L 279.100112 346.244790 L 278.948625 350.241921 L 278.797138 354.239051 L 278.645651 358.236181 L 278.494164 362.233312 L 278.342677 366.230442 L 278.191190 370.227573 L 278.039703 374.224703 L 277.888216 378.221834 L 277.736728 382.218964 L 277.585241 386.216094 L 277.433754 390.213225 L 277.282267 394.210355 L 277.130780 398.207486 L 276.979293 402.204616 L 276.827806 406.201747 L 276.676319 410.198877 L 276.524832 414.196007 L 276.373345 418.193138 L 276.221858 422.190268 L 276.070371 426.187399 L 275.918884 430.184529 L 275.767397 434.181660 L 275.615910 438.178790 L 275.464423 442.175920 L 275.312936 446.173051 L 275.161449 450.170181 L 275.009962 454.167312 L 274.858475 458.164442 L 274.706988 462.161573 L 274.555501 466.158703 L 274.404014 470.155833 L 274.252527 474.152964 L 274.130860 478.151038 L 274.029282 482.149748 L 273.927703 486.148458 L 273.826125 490.147168 L 273.724546 494.145878 L 273.622967 498.144588 L 273.521389 502.143298 L 273.419810 506.142008 L 273.318232 510.140718 L 273.216653 514.139428 L 273.115075 518.138138 L 273.013496 522.136848 L 272.911918 526.135558 L 272.810339 530.134268 L 272.708761 534.132978 L 272.607182 538.131688 L 272.505604 542.130398 L 272.404025 546.129108 L 272.302447 550.127818 L 272.200868 554.126528 L 272.099290 558.125238 L 271.997711 562.123949 L 271.896132 566.122659 L 271.794554 570.121369 L 271.692975 574.120079 L 271.620162 578.119389 L 271.554891 582.118856 L 271.489621 586.118324 L 271.424350 590.117791 L 271.359079 594.117258 L 271.293809 598.116726 L 271.228538 602.116193 L 271.163267 606.115661 L 271.097997 610.115128 L 271.041953 613.549220" fill="none" id="26" stroke="black" stroke-width="0.5" /><path d="M 466.506513 213.887800 L 466.848689 217.873138 L 467.190864 221.858475 L 467.533040 225.843813 L 467.875216 229.829150 L 468.138929 233.818690 L 468.224379 237.817777 L 468.259792 241.817257 L 468.237098 245.817193 L 468.214403 249.817128 L 468.191709 253.817064 L 468.169014 257.817000 L 468.146319 261.816935 L 468.123625 265.816871 L 468.011053 269.814367 L 467.816705 273.809643 L 467.622358 277.804918 L 467.428010 281.800194 L 467.233663 285.795470 L 467.039315 289.790746 L 466.844968 293.786022 L 466.650620 297.781298 L 466.456272 301.776573 L 466.261925 305.771849 L 466.033522 309.765240 L 465.785789 313.757561 L 465.538056 317.749883 L 465.290322 321.742204 L 465.042589 325.734525 L 464.794856 329.726846 L 464.547123 333.719167 L 464.299389 337.711488 L 464.051656 341.703810 L 463.803923 345.696131 L 463.585093 349.690100 L 463.377435 353.684706 L 463.169778 357.679312 L 462.962120 361.673918 L 462.754462 365.668524 L 462.546804 369.663131 L 462.339146 373.657737 L 462.131488 377.652343 L 461.923830 381.646949 L 461.716172 385.641555 L 461.508515 389.636161 L 461.330582 393.632090 L 461.182682 397.629355 L 461.034782 401.626619 L 460.886882 405.623884 L 460.738982 409.621149 L 460.591081 413.618414 L 460.443181 417.615678 L 460.295281 421.612943 L 460.147381 425.610208 L 459.999481 429.607473 L 459.851581 433.604737 L 459.703680 437.602002 L 459.592601 441.600333 L 459.509077 445.599460 L 459.425553 449.598588 L 459.342029 453.597716 L 459.258506 457.596844 L 459.174982 461.595972 L 459.091458 465.595100 L 459.007934 469.594228 L 458.924410 473.593356 L 458.845214 477.592558 L 458.791592 481.592198 L 458.737970 485.591839 L 458.684349 489.591479 L 458.630727 493.591120 L 458.577106 497.590761 L 458.523484 501.590401 L 458.503870 505.590286 L 458.500002 509.590284 L 458.496135 513.590282 L 458.492267 517.590280 L 458.488400 521.590279 L 458.484533 525.590277 L 458.480665 529.590275 L 458.476798 533.590273 L 458.472930 537.590271 L 458.469063 541.590269 L 458.465196 545.590267 L 458.461328 549.590265 L 458.457461 553.590264 L 458.453593 557.590262 L 458.449726 561.590260 L 458.445859 565.590258 L 458.475125 569.589942 L 458.554910 573.589146 L 458.634695 577.588350 L 458.714480 581.587554 L 458.794265 585.586759 L 458.874050 589.585963 L 458.953835 593.585167 L 459.033621 597.584371 L 459.113406 601.583575 L 459.193191 605.582780 L 459.199433 605.895670" fill="none" id="27" stroke="black" stroke-width="0.5" /><path d="M 238.789983 545.139770 L 242.329014 547.003976 L 245.868044 548.868181 L 249.432071 550.682468 L 253.044834 552.399425 L 256.657597 554.116382 L 260.270361 555.833339 L 263.883124 557.550296 L 267.495887 559.267253 L 271.103784 560.994244 L 274.688799 562.768411 L 278.273813 564.542579 L 281.858828 566.316746 L 285.405808 568.165121 L 288.939443 570.039534 L 292.473079 571.913946 L 296.006714 573.788359 L 299.495575 575.743205 L 302.950506 577.759007 L 306.405436 579.774809 L 309.860366 581.790611 L 313.315296 583.806413 L 316.770226 585.822215 L 320.225156 587.838017 L 323.680086 589.853819 L 327.135016 591.869621 L 330.589947 593.885423 L 334.044877 595.901225 L 337.499807 597.917027 L 340.968383 599.908687 L 344.477291 601.828989 L 347.986200 603.749291 L 351.495108 605.669594 L 355.004017 607.589896 L 358.512925 609.510198 L 362.021834 611.430500 L 365.530742 613.350803 L 369.039651 615.271105 L 372.548560 617.191407 L 376.057468 619.111710 L 379.564710 621.035024 L 383.056191 622.986835 L 386.547671 624.938646 L 390.039151 626.890456 L 393.530632 628.842267 L 397.022112 630.794078 L 400.513592 632.745889 L 404.005073 634.697699 L 407.496553 636.649510 L 410.988033 638.601321 L 414.479514 640.553131 L 417.970994 642.504942 L 421.462474 644.456753 L 424.953955 646.408564 L 428.445435 648.360374 L 431.908422 650.362300 L 435.371296 652.364425 L 438.834170 654.366549 L 442.297044 656.368674 L 445.759918 658.370799 L 449.222792 660.372924 L 452.685666 662.375049 L 456.148540 664.377174 L 459.611414 666.379299 L 463.074288 668.381423 L 466.537162 670.383548 L 470.000036 672.385673 L 473.462910 674.387798 L 473.687623 674.517720" fill="none" id="28" stroke="black" stroke-width="0.5" /><path d="M 461.624623 518.446850 L 461.521895 522.445531 L 461.419168 526.444211 L 461.316440 530.442892 L 461.062451 534.434617 L 460.797777 538.425851 L 460.533104 542.417085 L 460.268430 546.408319 L 460.003757 550.399553 L 459.801157 554.393485 L 459.718487 558.392631 L 459.635816 562.391776 L 459.553145 566.390922 L 459.470475 570.390067 L 459.388403 574.389219 L 459.388403 578.389219 L 459.388403 582.389219 L 459.388403 586.389219 L 459.388403 590.389219 L 459.405157 594.389102 L 459.460902 598.388714 L 459.516647 602.388326 L 459.572391 606.387937 L 459.726594 610.384844 L 459.890481 614.381486 L 460.054367 618.378127 L 460.218253 622.374768 L 460.382139 626.371409 L 460.546025 630.368051 L 460.709911 634.364692 L 460.873797 638.361333 L 461.037684 642.357974 L 461.201570 646.354616 L 461.365456 650.351257 L 461.529342 654.347898 L 461.622705 658.346412 L 461.671123 662.346119 L 461.719540 666.345826 L 461.767958 670.345533 L 461.813603 674.116150" fill="none" id="29" stroke="black" stroke-width="0.5" /><path d="M 289.435653 424.903550 L 290.270582 428.815441 L 291.105510 432.727333 L 291.940439 436.639224 L 292.617940 440.580584 L 293.254485 444.529611 L 293.891029 448.478637 L 294.527574 452.427664 L 295.164118 456.376690 L 295.800663 460.325717 L 296.437207 464.274744 L 297.073752 468.223770 L 297.710297 472.172797 L 298.360655 476.119425 L 299.092468 480.051912 L 299.824281 483.984398 L 300.556095 487.916884 L 301.287908 491.849371 L 302.019721 495.781857 L 302.751534 499.714344 L 303.483347 503.646830 L 304.265790 507.568805 L 305.159875 511.467601 L 306.053960 515.366397 L 306.948046 519.265194 L 307.842131 523.163990 L 308.736216 527.062786 L 309.630301 530.961582 L 310.472648 534.871827 L 311.306951 538.783852 L 312.141253 542.695877 L 312.975555 546.607902 L 313.817534 550.518178 L 314.759933 554.405579 L 315.702332 558.292980 L 316.644732 562.180380 L 317.587131 566.067781 L 318.529530 569.955181 L 319.471930 573.842582 L 320.414329 577.729983 L 321.356729 581.617383 L 322.254611 585.514873 L 322.869875 589.459612 L 323.104943 592.265750" fill="none" id="30" stroke="black" stroke-width="0.5" /><path d="M 369.404153 634.714570 L 373.063480 633.350651 L 376.471131 631.255916 L 379.878782 629.161182 L 383.286434 627.066447 L 386.694085 624.971713 L 390.101736 622.876978 L 393.509387 620.782243 L 396.917039 618.687509 L 400.324690 616.592774 L 403.732341 614.498040 L 407.139992 612.403305 L 410.547644 610.308571 L 411.923843 609.462600" fill="none" id="31" stroke="black" stroke-width="0.5" /><path d="M 307.199433 596.068900 L 310.800812 597.757399 L 314.275630 599.738720 L 317.750449 601.720042 L 321.225268 603.701364 L 324.733712 605.620880 L 328.284790 607.462033 L 331.850700 609.273847 L 335.438769 611.041829 L 339.026838 612.809811 L 342.614908 614.577792 L 346.202977 616.345774 L 349.791046 618.113756 L 353.381405 619.876944 L 357.011514 621.556918 L 360.641622 623.236892 L 364.271730 624.916866 L 367.901839 626.596840 L 371.531947 628.276814 L 375.164633 629.950981 L 378.845837 631.515824 L 382.527042 633.080667 L 383.703363 633.580710" fill="none" id="32" stroke="black" stroke-width="0.5" /><path d="M 330.317543 581.423230 L 333.919679 583.162372 L 337.521815 584.901514 L 341.123951 586.640657 L 344.726087 588.379799 L 348.328223 590.118941 L 351.930360 591.858083 L 355.532496 593.597225 L 359.134632 595.336367 L 362.736768 597.075510 L 366.338904 598.814652 L 369.929835 600.576587 L 373.506866 602.366795 L 377.083898 604.157004 L 380.660929 605.947212 L 384.237961 607.737421 L 387.902891 609.336292 L 391.591406 610.883825 L 395.279921 612.431357 L 398.994380 613.912163 L 402.759493 615.262691 L 406.524605 616.613220 L 410.289718 617.963748 L 412.931713 618.911420" fill="none" id="33" stroke="black" stroke-width="0.5" /><path d="M 379.104943 628.478350 L 380.632305 624.781437 L 382.093865 621.060905 L 383.266190 617.236555 L 384.438514 613.412205 L 385.610838 609.587854 L 386.783163 605.763504 L 387.955487 601.939153 L 389.127812 598.114803 L 390.300136 594.290453 L 391.472460 590.466102 L 392.644785 586.641752 L 393.800755 582.812529 L 394.912877 578.970240 L 396.024999 575.127951 L 397.137121 571.285662 L 398.249243 567.443373 L 399.349187 563.597792 L 400.324428 559.718500 L 401.299669 555.839208 L 402.274910 551.959916 L 403.250151 548.080624 L 404.153961 544.184328 L 405.031224 540.281712 L 405.908486 536.379097 L 406.785749 532.476481 L 407.663012 528.573865 L 408.540274 524.671249 L 409.417537 520.768633 L 410.294800 516.866018 L 411.216888 512.973791 L 412.145892 509.083167 L 413.074895 505.192544 L 414.003898 501.301920 L 414.726993 498.273630" fill="none" id="34" stroke="black" stroke-width="0.5" /><path d="M 372.490773 634.998040 L 375.389036 632.466028 L 376.932630 628.775862 L 378.367245 625.043876 L 379.578816 621.233595 L 380.675793 617.386954 L 381.772770 613.540314 L 382.887979 609.699091 L 384.069257 605.877496 L 385.250535 602.055902 L 386.431813 598.234308 L 387.613091 594.412714 L 388.814018 590.597389 L 390.064565 586.797898 L 391.315112 582.998407 L 392.565658 579.198916 L 393.816205 575.399425 L 395.066751 571.599934 L 396.317298 567.800442 L 397.567845 564.000951 L 398.818391 560.201460 L 400.068938 556.401969 L 401.283884 552.591207 L 402.447773 548.764281 L 403.611663 544.937355 L 404.775552 541.110430 L 405.865965 537.262287 L 406.921225 533.403994 L 407.924076 529.531863 L 408.910935 525.655511 L 409.897795 521.779158 L 410.884654 517.902806 L 411.871513 514.026453 L 412.846795 510.147309 L 413.734848 506.247135 L 414.622901 502.346960 L 415.510954 498.446786 L 416.018323 496.218510" fill="none" id="35" stroke="black" stroke-width="0.5" /><path d="M 263.860843 155.116150 L 266.732338 152.743367 L 270.259813 150.857387 L 273.787289 148.971408 L 277.377604 147.208343 L 280.954621 145.419287 L 284.481271 143.531764 L 288.007921 141.644241 L 291.534571 139.756719 L 295.061220 137.869196 L 298.587870 135.981673 L 302.087847 134.045965 L 305.559752 132.059541 L 309.031656 130.073117 L 311.419903 128.706700" fill="none" id="36" stroke="black" stroke-width="0.5" /><path d="M 138.002583 163.100400 L 141.032130 160.900087 L 144.735338 159.389813 L 148.389331 157.762441 L 152.043323 156.135070 L 155.697316 154.507698 L 159.303480 152.779152 L 162.880216 150.988354 L 166.456953 149.197555 L 170.033689 147.406757 L 173.610425 145.615959 L 177.187161 143.825161 L 180.763897 142.034362 L 184.340633 140.243564 L 187.917370 138.452766 L 191.494106 136.661968 L 195.110729 134.953435 L 198.731909 133.254301 L 202.353088 131.555167 L 205.974268 129.856033 L 209.595448 128.156899 L 213.216628 126.457765 L 216.837808 124.758631 L 220.458988 123.059497 L 224.080168 121.360363 L 227.701347 119.661229 L 231.299303 117.914226 L 234.875157 116.121666 L 238.451011 114.329107 L 242.026865 112.536547 L 245.602718 110.743987 L 249.178572 108.951427 L 252.754426 107.158868 L 256.330279 105.366308 L 253.754356 106.738978 L 250.216986 108.606334 L 248.045553 109.780978 L 251.642169 108.030450 L 255.238786 106.279921 L 258.835402 104.529393 L 262.432019 102.778865 L 266.028635 101.028336 L 269.649680 99.329228 L 273.278727 97.646960 L 276.907773 95.964692 L 280.561101 94.336136 L 284.221421 92.723047 L 287.881740 91.109957 L 291.542060 89.496868 L 295.202380 87.883778 L 298.862700 86.270688 L 302.523020 84.657599 L 306.183340 83.044509 L 309.843660 81.431420 L 313.503980 79.818330 L 317.164300 78.205240 L 320.824620 76.592151 L 324.484940 74.979061 L 328.145260 73.365972 L 331.805580 71.752882 L 335.465899 70.139792 L 339.141580 68.562037 L 342.817885 66.985717 L 346.494190 65.409398 L 350.170494 63.833078 L 353.846799 62.256759 L 357.523104 60.680440 L 361.199409 59.104120 L 364.875714 57.527801 L 368.552018 55.951482 L 372.228323 54.375162 L 375.904628 52.798843 L 379.580933 51.222523 L 383.257238 49.646204 L 386.949775 48.108617 L 390.651491 46.592935 L 394.353208 45.077252 L 398.054925 43.561569 L 401.756641 42.045887 L 405.458358 40.530204 L 409.168739 39.036416 L 412.905267 37.608707 L 416.641796 36.180998 L 420.378325 34.753289 L 424.114853 33.325580 L 427.851382 31.897871 L 431.587573 30.469304 L 435.294086 28.965388 L 439.000598 27.461472 L 442.707111 25.957555 L 446.413624 24.453639 L 450.120136 22.949723 L 453.826649 21.445807 L 457.533162 19.941890 L 461.239674 18.437974 L 463.041953 17.706700" fill="none" id="37" stroke="black" stroke-width="0.5" /><path d="M 486.852973 268.501970 L 490.116847 266.343500 L 493.568284 264.321722 L 497.019720 262.299944 L 500.471157 260.278166 L 503.805222 258.069621 L 507.124008 255.836762 L 510.442794 253.603903 L 513.761580 251.371044 L 517.080366 249.138185 L 520.403971 246.912715 L 523.785513 244.776088 L 527.167054 242.639461 L 530.570542 240.538725 L 534.013544 238.502617 L 537.456546 236.466509 L 540.899548 234.430401 L 544.342550 232.394293 L 547.785552 230.358185 L 551.228554 228.322076 L 554.671556 226.285968 L 558.114559 224.249860 L 561.528196 222.165832 L 564.905515 220.022536 L 568.271440 217.861393 L 571.587755 215.625927 L 574.874488 213.346149 L 578.161220 211.066371 L 581.447953 208.786593 L 584.734685 206.506814 L 588.021418 204.227036 L 591.308151 201.947258 L 594.254543 199.903550" fill="none" id="38" stroke="black" stroke-width="0.5" /><path d="M 193.908093 422.824810 L 197.330223 422.290800 L 201.215527 421.339794 L 204.962832 419.961886 L 208.639116 418.389527 L 212.247988 416.664404 L 215.856859 414.939282 L 219.455148 413.193206 L 222.985565 411.312739 L 226.515982 409.432271 L 230.046398 407.551804 L 233.576815 405.671337 L 237.098571 403.775186 L 240.570407 401.788643 L 244.042244 399.802101 L 247.505902 397.801665 L 250.927623 395.729995 L 254.349345 393.658324 L 257.771067 391.586653 L 261.256349 389.624416 L 264.751304 387.678835 L 268.246259 385.733253 L 271.744082 383.792921 L 275.270221 381.904445 L 278.796360 380.015969 L 282.322499 378.127493 L 285.848638 376.239016 L 289.374777 374.350540 L 292.900917 372.462064 L 296.384795 370.497592 L 299.849472 368.498587 L 303.314148 366.499582 L 306.778824 364.500578 L 310.243500 362.501573 L 313.708176 360.502569 L 317.172852 358.503564 L 320.637529 356.504560 L 324.102205 354.505555 L 327.566881 352.506551 L 331.031557 350.507546 L 334.496233 348.508542 L 338.003215 346.585249 L 341.521582 344.682332 L 345.039949 342.779414 L 348.558316 340.876497 L 352.076682 338.973580 L 355.595049 337.070662 L 359.113416 335.167745 L 362.631783 333.264827 L 366.150150 331.361910 L 369.668517 329.458993 L 373.156459 327.501279 L 376.631859 325.520978 L 380.107259 323.540676 L 383.582659 321.560375 L 387.058059 319.580074 L 390.533460 317.599772 L 394.008860 315.619471 L 397.509122 313.683702 L 401.018583 311.764410 L 404.528045 309.845118 L 408.037506 307.925826 L 411.546967 306.006534 L 415.056428 304.087242 L 418.565889 302.167950 L 422.075351 300.248658 L 425.584812 298.329366 L 429.025155 296.290076 L 432.446257 294.217382 L 435.867359 292.144688 L 439.288461 290.071993 L 442.709563 287.999299 L 446.130665 285.926605 L 449.575734 283.894287 L 453.033664 281.883636 L 456.491595 279.872986 L 459.949526 277.862335 L 463.407456 275.851685 L 466.865387 273.841034 L 466.947463 273.793310" fill="none" id="39" stroke="black" stroke-width="0.5" /><path d="M 200.301793 372.698820 L 203.968592 372.470433 L 207.948595 372.869911 L 211.928759 373.266948 L 215.926595 373.398517 L 219.924430 373.530086 L 223.922266 373.661655 L 227.921385 373.721789 L 231.921366 373.733866 L 235.921348 373.745942 L 239.921330 373.758018 L 243.921312 373.770094 L 247.921294 373.782171 L 251.921275 373.794247 L 255.921257 373.806323 L 259.921239 373.818399 L 263.921221 373.830476 L 267.921202 373.842552 L 271.921184 373.854628 L 275.921166 373.866705 L 279.921148 373.878781 L 283.920349 373.955891 L 287.919468 374.039842 L 291.918587 374.123792 L 295.915186 374.284443 L 299.911193 374.463124 L 303.907200 374.641806 L 304.301793 374.659450" fill="none" id="40" stroke="black" stroke-width="0.5" /><path d="M 30.349033 262.171260 L 33.336097 262.285576 L 37.058006 263.728086 L 40.707158 265.366284 L 44.332792 267.052431 L 47.862074 268.935026 L 51.322154 270.937683 L 54.720213 273.047943 L 58.118272 275.158203 L 61.545767 277.219822 L 64.991536 279.251243 L 68.437306 281.282664 L 71.883076 283.314084 L 75.328846 285.345505 L 78.774616 287.376926 L 82.220386 289.408346 L 85.666156 291.439767 L 89.111926 293.471187 L 92.557696 295.502608 L 96.003466 297.534029 L 99.442483 299.576404 L 102.805541 301.742009 L 106.168598 303.907614 L 109.531655 306.073219 L 112.894713 308.238824 L 116.257770 310.404429 L 119.620827 312.570034 L 122.983885 314.735639 L 126.385703 316.839190 L 129.807107 318.911386 L 133.228511 320.983581 L 136.649915 323.055777 L 140.071319 325.127972 L 143.492723 327.200168 L 146.914127 329.272363 L 150.363869 331.296486 L 153.833697 333.286535 L 157.303525 335.276584 L 160.773353 337.266633 L 164.279648 339.191509 L 167.790834 341.107644 L 171.302020 343.023779 L 174.813206 344.939914 L 178.324392 346.856049 L 181.835578 348.772183 L 185.346764 350.688318 L 188.857950 352.604453 L 192.369136 354.520588 L 193.215173 354.982290" fill="none" id="41" stroke="black" stroke-width="0.5" /><path d="M 211.703363 372.651580 L 208.197840 370.725104 L 204.692317 368.798629 L 201.186794 366.872153 L 197.681271 364.945678 L 194.243646 362.900664 L 190.808421 360.851463 L 187.431699 358.709177 L 184.095427 356.502529 L 180.759156 354.295882 L 177.422885 352.089234 L 174.086613 349.882587 L 170.750342 347.675940 L 167.414070 345.469292 L 164.077799 343.262645 L 160.741527 341.055997 L 157.416708 338.832617 L 154.151940 336.521494 L 150.887172 334.210370 L 147.622405 331.899247 L 144.357637 329.588124 L 141.092869 327.277000 L 137.828101 324.965877 L 134.563334 322.654753 L 136.345524 323.880316 L 139.632209 326.160164 L 138.157020 325.070749 L 134.913379 322.730066 L 131.669738 320.389384 L 128.868723 318.368110" fill="none" id="42" stroke="black" stroke-width="0.5" /><path d="M 101.498643 300.084650 L 104.759492 302.401299 L 108.020342 304.717947 L 111.281191 307.034596 L 114.542041 309.351244 L 117.841779 311.610707 L 121.194845 313.791750 L 124.547911 315.972792 L 127.926413 318.113345 L 131.346715 320.187359 L 134.767018 322.261373 L 138.187320 324.335386 L 141.559628 326.484578 L 144.880581 328.714213 L 148.201534 330.943848 L 151.522486 333.173483 L 154.843439 335.403118 L 158.120902 337.696149 L 161.396514 339.991876 L 164.672126 342.287604 L 167.947738 344.583331 L 171.223351 346.879058 L 174.498963 349.174786 L 177.755377 351.496802 L 180.939238 353.918172 L 184.123098 356.339542 L 187.306959 358.760912 L 190.490819 361.182282 L 193.852711 363.349133 L 197.244761 365.465864 L 200.771237 367.353710 L 204.297714 369.241557 L 206.915963 370.927170" fill="none" id="43" stroke="black" stroke-width="0.5" /><path d="M 316.459273 601.974410 L 319.811672 603.465385 L 323.233842 605.536316 L 326.680960 607.564307 L 330.174941 609.511637 L 333.684286 611.430707 L 337.218457 613.304108 L 340.752629 615.177509 L 344.286800 617.050909 L 347.820972 618.924310 L 351.355144 620.797711 L 354.889315 622.671112 L 358.423487 624.544513 L 362.005529 626.323649 L 365.603213 628.071982 L 369.200897 629.820315 L 372.798581 631.568649 L 374.349033 631.194890" fill="none" id="44" stroke="black" stroke-width="0.5" /><path d="M 378.443523 630.935040 L 381.754012 628.689899 L 385.095546 626.494114 L 388.552909 624.482487 L 392.010272 622.470861 L 395.467635 620.459234 L 398.901370 618.410269 L 402.199482 616.146985 L 405.497594 613.883700 L 406.695493 612.344490" fill="none" id="45" stroke="black" stroke-width="0.5" /><path d="M 484.616753 196.927170 L 485.134818 200.888834 L 485.658028 204.846972 L 485.927190 208.837905 L 486.419090 212.807240 L 486.921740 216.775532 L 487.340381 220.752895 L 487.696387 224.737021 L 488.052394 228.721147 L 488.408400 232.705273 L 488.742733 236.446850" fill="none" id="46" stroke="black" stroke-width="0.5" /><path d="M 486.034073 266.470480 L 488.654562 264.125228 L 491.986412 261.912701 L 495.392495 259.815418 L 498.798579 257.718136 L 502.204663 255.620853 L 505.610747 253.523571 L 509.016831 251.426289 L 512.422914 249.329006 L 515.828998 247.231724 L 519.235082 245.134442 L 522.684748 243.110123 L 526.146101 241.105370 L 529.624802 239.131950 L 533.161049 237.262470 L 536.697297 235.392990 L 540.233544 233.523511 L 543.768309 231.651298 L 547.264049 229.707126 L 550.759789 227.762955 L 554.247078 225.804259 L 557.664862 223.726097 L 561.082645 221.647936 L 564.488555 219.550886 L 567.842889 217.371794 L 571.197224 215.192702 L 574.551558 213.013610 L 577.871867 210.784689 L 581.122459 208.453670 L 583.986833 206.399610" fill="none" id="47" stroke="black" stroke-width="0.5" /></svg>