<?xml version="1.0" encoding="utf-8" ?>
<svg baseProfile="full" height="639.5" version="1.1" viewBox="0,0,413.5,639.5" width="413.5" xmlns="http://www.w3.org/2000/svg" xmlns:ev="http://www.w3.org/2001/xml-events" xmlns:xlink="http://www.w3.org/1999/xlink"><defs><style type="text/css"><![CDATA[
	.background { fill: white; }
	.line { stroke: firebrick; stroke-width: .1mm; }
	.blacksquare { fill: indigo; }
	.whitesquare { fill: white; }
]]></style></defs><rect class="background" height="100%" width="100%" x="0" y="0" /><path d="M 0.250000 48.013780 L 3.433963 50.435015 L 6.617927 52.856249 L 9.801890 55.277484 L 12.985854 57.698718 L 16.169817 60.119953 L 19.353781 62.541187 L 22.537744 64.962422 L 25.721707 67.383657 L 28.905671 69.804891 L 32.089634 72.226126 L 35.273598 74.647360 L 38.457561 77.068595 L 41.641525 79.489829 L 44.825488 81.911064 L 48.009452 84.332299 L 51.193415 86.753533 L 54.377378 89.174768 L 57.621089 91.515254 L 60.867555 93.852017 L 64.114020 96.188780 L 67.360486 98.525542 L 70.645770 100.807249 L 73.937277 103.080129 L 77.267406 105.295547 L 80.614914 107.485112 L 83.962422 109.674676 L 87.309929 111.864241 L 90.666071 114.040314 L 94.056391 116.162984 L 97.446711 118.285655 L 100.837031 120.408326 L 104.227351 122.530996 L 107.617671 124.653667 L 111.007991 126.776338 L 114.398311 128.899008 L 117.788631 131.021679 L 121.178951 133.144350 L 124.569271 135.267020 L 127.959591 137.389691 L 131.394404 139.438155 L 134.863990 141.428627 L 138.333575 143.419098 L 141.803160 145.409570 L 145.272746 147.400041 L 148.742331 149.390513 L 152.211917 151.380985 L 155.681502 153.371456 L 159.151088 155.361928 L 162.620673 157.352399 L 166.071554 159.374962 L 169.513455 161.412931 L 172.955356 163.450899 L 176.397257 165.488868 L 179.831676 167.539145 L 183.225357 169.656439 L 186.423230 171.651570" fill="none" id="2" stroke="black" stroke-width="0.5" /><path d="M 208.029530 0.250000 L 211.680158 1.884905 L 215.389628 3.379589 L 219.113737 4.839386 L 222.837847 6.299184 L 226.561956 7.758981 L 230.286066 9.218779 L 233.975463 10.764052 L 237.636069 12.375583 L 241.279183 14.027165 L 244.922296 15.678747 L 248.553567 17.355971 L 252.173068 19.058679 L 255.792568 20.761387 L 259.412069 22.464095 L 263.031570 24.166803 L 266.651070 25.869511 L 270.277894 27.556128 L 273.939155 29.167083 L 277.600415 30.778037 L 281.278815 32.349050 L 284.968902 33.892832 L 288.658988 35.436614 L 292.349074 36.980396 L 296.039161 38.524178 L 299.731643 40.062135 L 303.439882 41.561791 L 307.148120 43.061447 L 310.856358 44.561103 L 314.564597 46.060758 L 318.272835 47.560414 L 321.981074 49.060070 L 325.689312 50.559726 L 329.409448 52.028896 L 333.153209 53.437531 L 336.896970 54.846167 L 340.667048 56.182338 L 344.442277 57.504324 L 348.228684 58.793350 L 352.029209 60.040751 L 355.829735 61.288151 L 359.630260 62.535552 L 363.430785 63.782952 L 367.231310 65.030353 L 371.031835 66.277753 L 374.832361 67.525153 L 378.632886 68.772554 L 382.433411 70.019954 L 386.233936 71.267355 L 390.034462 72.514755 L 393.834987 73.762156 L 394.265750 73.903540" fill="none" id="3" stroke="black" stroke-width="0.5" /><path d="M 203.935040 118.667320 L 207.634102 119.968862 L 211.142793 121.883976 L 214.583020 123.924770 L 218.023247 125.965564 L 221.463473 128.006358 L 224.903700 130.047152 L 228.343927 132.087946 L 231.784154 134.128740 L 235.222295 136.172878 L 238.569048 138.363596 L 241.915800 140.554315 L 245.262553 142.745034 L 248.591680 144.961975 L 251.884000 147.233676 L 255.176321 149.505377 L 258.468642 151.777077 L 261.761831 154.047491 L 265.100179 156.250995 L 268.438527 158.454500 L 271.776875 160.658004 L 275.115223 162.861509 L 278.461472 165.052700 L 281.855785 167.168979 L 285.250098 169.285259 L 288.644411 171.401538 L 292.038724 173.517818 L 295.433037 175.634097 L 298.861684 177.694032 L 302.298610 179.740380 L 305.735536 181.786728 L 309.172462 183.833076 L 312.609388 185.879424 L 316.069832 187.885004 L 319.561908 189.835748 L 323.053984 191.786493 L 326.587241 193.661152 L 330.130106 195.518061 L 333.672970 197.374970 L 337.215835 199.231878 L 340.758700 201.088787 L 344.321676 202.906194 L 347.907518 204.678688 L 351.493360 206.451182 L 355.079203 208.223676 L 358.665045 209.996170 L 362.250887 211.768664 L 365.836730 213.541158 L 369.422572 215.313652 L 373.008414 217.086146 L 376.594257 218.858639 L 380.162120 220.666509 L 383.707654 222.518316 L 387.253189 224.370123 L 390.798723 226.221929 L 393.415360 227.588580" fill="none" id="4" stroke="black" stroke-width="0.5" /><path d="M 305.604340 40.053150 L 307.798630 43.132420 L 309.801005 46.592445 L 311.598221 50.164119 L 313.331105 53.769270 L 315.063989 57.374421 L 316.796872 60.979572 L 318.529756 64.584723 L 320.262639 68.189875 L 321.995523 71.795026 L 323.728407 75.400177 L 325.461290 79.005328 L 327.194174 82.610479 L 328.945921 86.206330 L 330.750396 89.776186 L 332.554872 93.346041 L 334.359348 96.915896 L 336.163824 100.485752 L 337.968299 104.055607 L 339.772775 107.625462 L 341.577251 111.195318 L 343.381727 114.765173 L 345.186202 118.335028 L 346.990678 121.904884 L 348.795154 125.474739 L 350.599630 129.044595 L 352.404105 132.614450 L 354.208581 136.184305 L 356.013057 139.754161 L 357.853604 143.305366 L 359.723131 146.841589 L 361.592657 150.377811 L 363.530282 153.877063 L 365.477562 157.371072 L 367.445174 160.853505 L 369.455935 164.311371 L 371.466697 167.769237 L 373.477459 171.227103 L 375.488221 174.684969 L 377.498983 178.142835 L 379.509745 181.600701 L 381.584444 185.019683 L 383.729752 188.395724 L 385.875060 191.771765 L 388.020368 195.147807 L 390.197399 198.502955 L 392.451714 201.807204 L 394.706030 205.111453 L 396.960345 208.415702 L 399.214660 211.719951 L 401.468976 215.024200 L 403.698259 218.345240 L 405.900305 221.684551 L 408.102351 225.023861 L 410.304397 228.363172 L 412.506443 231.702482 L 412.690950 231.982280" fill="none" id="5" stroke="black" stroke-width="0.5" /><path d="M 8.596460 328.549210 L 10.531433 331.185783 L 13.523183 333.840861 L 16.514932 336.495938 L 19.506682 339.151015 L 22.506533 341.796787 L 25.548290 344.394423 L 28.590047 346.992058 L 31.631805 349.589694 L 34.673562 352.187330 L 37.715319 354.784966 L 40.757077 357.382602 L 43.798834 359.980238 L 46.776555 362.650511 L 49.735023 365.342623 L 52.693491 368.034735 L 55.651959 370.726848 L 58.610426 373.418960 L 61.568894 376.111072 L 64.527362 378.803184 L 67.547754 381.425407 L 70.576525 384.038173 L 73.625052 386.627311 L 76.732881 389.145524 L 79.840710 391.663737 L 82.948540 394.181951 L 86.056369 396.700164 L 89.164198 399.218377 L 92.313390 401.684481 L 95.471175 404.139760 L 98.628961 406.595038 L 101.786746 409.050316 L 104.944531 411.505595 L 108.102317 413.960873 L 111.260102 416.416152 L 114.417887 418.871430 L 117.611270 421.280188 L 120.806589 423.686418 L 124.001907 426.092647 L 127.197226 428.498877 L 130.402167 430.891759 L 133.694858 433.162922 L 136.987549 435.434086 L 140.302851 437.671973 L 143.627075 439.896727 L 146.951300 442.121481 L 150.275525 444.346235 L 153.599749 446.570989 L 156.923974 448.795743 L 160.248199 451.020497 L 163.572423 453.245251 L 166.896648 455.470005 L 170.192158 457.736638 L 173.465510 460.035587 L 176.738862 462.334536 L 180.012214 464.633484 L 181.226380 465.486220" fill="none" id="6" stroke="black" stroke-width="0.5" /><path d="M 0.816930 249.297240 L 3.868383 251.879373 L 7.100036 254.236578 L 10.331689 256.593784 L 13.498876 259.036009 L 16.640777 261.511581 L 19.782678 263.987153 L 22.913782 266.476032 L 25.983480 269.040589 L 29.053178 271.605147 L 32.122876 274.169704 L 35.192573 276.734262 L 38.262271 279.298819 L 41.331969 281.863377 L 44.401667 284.427934 L 47.468948 286.995323 L 50.483595 289.624373 L 53.498241 292.253424 L 56.512887 294.882475 L 59.527566 297.511488 L 62.593202 300.080900 L 65.658837 302.650312 L 68.724473 305.219724 L 71.790109 307.789136 L 74.895003 310.310317 L 78.033105 312.790704 L 81.171206 315.271092 L 84.309307 317.751479 L 87.447408 320.231867 L 90.653021 322.624028 L 93.867428 325.004698 L 97.101517 327.358353 L 100.352841 329.688351 L 103.604164 332.018350 L 106.855488 334.348348 L 110.106812 336.678347 L 113.398201 338.951354 L 116.691225 341.222035 L 119.984249 343.492717 L 123.277272 345.763398 L 126.599836 347.990160 L 129.944619 350.183883 L 133.289403 352.377606 L 136.634187 354.571330 L 139.978970 356.765053 L 143.367063 358.891268 L 146.755405 361.017095 L 150.143746 363.142923 L 153.532087 365.268751 L 156.920429 367.394578 L 160.308770 369.520406 L 163.697111 371.646234 L 167.062453 373.808119 L 170.418671 375.984309 L 173.767977 378.171057 L 177.105021 380.376535 L 180.442066 382.582014 L 183.779110 384.787492 L 187.116154 386.992971 L 190.421881 389.245113 L 193.727309 391.497699 L 197.032737 393.750285 L 199.903550 395.706690" fill="none" id="7" stroke="black" stroke-width="0.5" /><path d="M 18.643710 477.746060 L 18.297250 481.568777 L 18.353755 485.566456 L 18.681863 489.552976 L 19.235083 493.512162 L 19.967984 497.442061 L 20.981998 501.309861 L 22.011470 505.173403 L 22.924272 509.067626 L 24.097621 512.891662 L 25.547677 516.609854 L 27.379948 520.162382 L 29.523956 523.536595 L 31.781402 526.838072 L 34.099494 530.097895 L 36.450339 533.333903 L 38.943651 536.460142 L 41.544771 539.497913 L 44.305184 542.390955 L 46.360240 544.454720" fill="none" id="8" stroke="black" stroke-width="0.5" /><path d="M 126.328740 617.706690 L 128.452472 620.395027 L 131.721650 622.699562 L 135.080895 624.871075 L 138.452296 627.022350 L 141.947479 628.967521 L 145.442663 630.912693 L 148.963596 632.808534 L 152.676633 634.292356 L 156.471700 635.549034 L 160.296269 636.720646 L 164.222998 637.410833 L 168.222952 637.430061 L 172.156488 636.725014 L 175.916512 635.413135 L 179.159235 633.127161 L 181.912538 630.242077 L 183.801883 626.735617 L 184.627960 623.541340" fill="none" id="9" stroke="black" stroke-width="0.5" /><path d="M 215.273630 382.171260 L 215.273630 386.171260 L 216.041576 390.091031 L 217.126675 393.941039 L 218.301958 397.763567 L 219.558665 401.560662 L 221.074572 405.260627 L 222.956923 408.790040 L 224.747121 412.366072 L 226.658568 415.873704 L 229.173296 418.960696 L 232.001723 421.789123 L 234.548941 424.870676 L 237.209390 427.846168 L 240.371926 430.294585 L 243.626001 432.620741 L 246.931896 434.867387 L 250.578393 436.483102 L 254.393881 437.683959 L 258.209368 438.884815 L 260.470480 439.596460" fill="none" id="10" stroke="black" stroke-width="0.5" /><path d="M 344.187010 493.501970 L 342.932883 493.610466 L 346.463721 495.476232 L 350.124760 497.087691 L 353.785798 498.699150 L 357.446836 500.310609 L 361.107874 501.922068 L 364.783488 503.497030 L 368.547364 504.851000 L 372.323837 506.168032 L 376.130788 507.395679 L 379.937740 508.623327 L 383.851790 509.308903 L 387.848021 509.308768 L 391.810314 508.807313 L 395.611686 507.562495 L 398.974735 505.437729 L 401.688022 502.513620 L 404.375428 499.552537 L 405.005910 498.887790" fill="none" id="11" stroke="black" stroke-width="0.5" /><path d="M 17.604340 341.848420 L 16.930002 338.146494 L 17.468740 334.203159 L 20.046961 331.235605 L 22.586891 328.168501 L 26.199725 327.153847 L 30.151530 326.753940 L 34.058037 327.489007 L 37.715617 329.071962 L 41.218872 330.996389 L 44.298239 333.543169 L 47.033582 336.451812 L 49.676094 339.454666 L 52.318606 342.457520 L 54.961118 345.460374 L 55.399610 345.958660" fill="none" id="12" stroke="black" stroke-width="0.5" /><path d="M 123.273630 388.950790 L 124.713199 389.750070 L 127.784245 392.312411 L 130.911864 394.804953 L 134.071881 397.257359 L 137.231897 399.709764 L 140.391914 402.162170 L 143.551931 404.614576 L 146.591324 407.213131 L 149.477792 409.977818 L 152.239962 412.870790 L 154.958080 415.804518 L 157.521985 418.873209 L 159.854812 422.122504 L 162.094981 425.432135 L 164.414416 428.682424 L 166.455112 432.122709 L 168.610567 435.488337 L 170.874341 438.781123 L 172.393924 442.472482 L 173.592311 446.281716 L 174.437110 450.191488 L 175.432423 454.064676 L 176.476460 457.926021 L 177.520496 461.787366 L 178.564533 465.648712 L 179.400802 469.558892 L 180.141768 473.488995 L 180.717107 477.445811 L 180.848430 479.021650" fill="none" id="13" stroke="black" stroke-width="0.5" /><path d="M 215.462600 257.470470 L 215.285839 253.474377 L 215.109079 249.478285 L 215.021660 245.480217 L 215.646016 241.565892 L 217.041540 237.820431 L 218.864743 234.263964 L 221.074744 230.935585 L 223.949049 228.226774 L 227.762224 227.160251 L 231.737308 227.383979 L 235.648109 228.221660 L 239.498634 229.290937 L 243.231773 230.711409 L 246.819056 232.480984 L 249.572840 234.061020" fill="none" id="14" stroke="black" stroke-width="0.5" /><path d="M 345.509850 293.163380 L 347.032009 296.074035 L 350.305974 298.372111 L 353.528009 300.741621 L 356.723995 303.146963 L 359.919982 305.552305 L 363.155672 307.903782 L 366.399060 310.244815 L 369.642447 312.585849 L 372.757931 315.091537 L 375.729050 317.765739 L 378.459464 320.688873 L 380.987969 323.788334 L 383.330696 327.028940 L 385.638935 330.295748 L 387.947174 333.562555 L 390.255413 336.829363 L 392.406245 340.199999 L 394.500692 343.607827 L 396.595139 347.015655 L 398.689586 350.423483 L 400.728442 353.862631 L 402.557993 357.419700 L 404.387545 360.976769 L 406.033148 364.622422 L 407.639420 368.285708 L 409.011618 372.040398 L 410.310196 375.823743 L 410.486230 376.336610" fill="none" id="15" stroke="black" stroke-width="0.5" /><path d="M 399.777560 353.659450 L 400.673699 354.181092 L 401.776068 358.023671 L 402.623721 361.931740 L 403.431255 365.849376 L 404.030289 369.804267 L 404.629323 373.759157 L 405.228357 377.714048 L 405.784248 381.674577 L 406.221819 385.650572 L 406.600418 389.631942 L 406.888968 393.621521 L 407.177519 397.611099 L 407.210630 398.068900" fill="none" id="16" stroke="black" stroke-width="0.5" /><path d="M 49.698820 337.620080 L 46.800163 334.918491 L 43.716493 332.370752 L 40.766167 329.670310 L 37.915630 326.865332 L 35.100337 324.023832 L 32.351238 321.119147 L 29.643745 318.174749 L 26.951652 315.216331 L 24.420710 312.121895 L 22.112433 308.860224 L 20.188440 305.356287 L 18.720923 301.642156 L 17.521295 297.829215 L 16.450995 293.975067 L 15.380694 290.120919 L 14.310394 286.266771 L 13.246916 282.410790 L 12.241648 278.539171 L 11.410064 274.626801 L 10.712432 270.689231 L 10.130751 266.732961 L 9.750100 262.751115 L 9.484362 258.760983 L 9.478576 254.762052 L 9.517887 250.762245 L 9.541340 248.375980" fill="none" id="17" stroke="black" stroke-width="0.5" /><path d="M 122.990160 390.698820 L 126.213871 392.941409 L 129.242104 395.554693 L 132.391391 398.020862 L 135.540678 400.487031 L 138.664682 402.984379 L 141.728178 405.556340 L 144.687403 408.247200 L 147.880364 410.649135 L 151.340517 412.641402 L 155.071787 414.077553 L 158.864284 415.349151 L 162.847015 415.472248 L 166.767202 414.823969 L 170.365013 413.110146 L 173.544526 410.739003 L 176.234138 407.778262 L 178.659746 404.604692 L 180.525212 401.068426 L 182.023205 397.361002 L 183.494375 393.641370 L 184.752845 389.845679 L 185.960455 386.032662 L 186.991103 382.167722 L 188.021752 378.302782 L 188.818361 374.383450 L 189.597715 370.460109 L 190.171260 367.572830" fill="none" id="18" stroke="black" stroke-width="0.5" /><path d="M 252.092520 238.454720 L 249.162323 235.844514 L 246.331855 233.030457 L 243.499548 230.208116 L 240.697387 227.353779 L 237.703199 224.701452 L 234.945201 221.813673 L 232.058637 219.047938 L 229.283688 216.170919 L 226.808560 213.028967 L 224.373168 209.856001 L 222.082664 206.581390 L 220.102032 203.107648 L 218.279062 199.548247 L 216.511988 195.959730 L 214.855724 192.322735 L 213.419572 188.589444 L 212.032721 184.841833 L 211.245556 180.920051 L 210.549826 176.982691 L 210.057097 173.013689 L 209.943301 169.015658 L 209.856300 165.698820" fill="none" id="19" stroke="black" stroke-width="0.5" /><path d="M 346.549220 294.746060 L 349.500778 297.277707 L 352.588949 299.817491 L 355.791888 302.213567 L 358.994828 304.609642 L 362.197767 307.005718 L 365.501713 309.250223 L 369.131396 310.930565 L 372.700641 312.735333 L 376.446889 314.001215 L 380.408564 314.458034 L 384.221223 313.529440 L 387.818786 311.809840 L 390.530461 309.049080 L 392.630096 305.646431 L 394.975030 302.405863 L 396.993658 298.963470 L 398.190929 295.155603 L 398.806106 291.203966 L 399.139465 287.219454 L 399.179140 283.220877 L 399.179140 279.220877 L 399.023079 275.226061 L 398.757664 271.234876 L 398.549220 268.100390" fill="none" id="20" stroke="black" stroke-width="0.5" /><path d="M 183.998040 615.935040 L 183.131867 619.820387 L 182.531637 623.768304 L 181.495848 627.630837 L 180.143510 631.393618 L 178.204450 634.876606 L 174.940548 637.074480 L 171.044627 637.924467 L 167.588590 638.305120" fill="none" id="21" stroke="black" stroke-width="0.5" /><path d="M 9.509850 187.194880 L 9.124881 191.136944 L 9.185944 195.136478 L 9.664280 199.103987 L 10.214244 203.065999 L 10.764208 207.028011 L 11.314172 210.990023 L 11.864136 214.952035 L 12.414100 218.914047 L 12.889676 222.885225 L 13.317918 226.862235 L 13.732909 230.840471 L 14.041277 234.828567 L 14.349645 238.816662 L 14.658013 242.804758 L 14.966381 246.792854 L 15.133316 250.789160 L 15.288433 254.786151 L 15.433684 258.783373 L 15.465778 262.783244 L 15.497872 266.783115 L 15.529966 270.782987 L 15.562061 274.782858 L 15.594155 278.782729 L 15.620080 282.013780" fill="none" id="22" stroke="black" stroke-width="0.5" /><path d="M 44.533470 333.344490 L 41.720650 330.527329 L 37.891646 329.437338 L 34.047461 328.346209 L 30.169084 327.383674 L 26.718094 327.755665 L 23.281414 329.743609 L 21.478488 333.238877 L 20.314577 337.061100 L 18.823302 340.772717 L 17.332028 344.484334 L 16.407480 346.785430" fill="none" id="23" stroke="black" stroke-width="0.5" /><path d="M 42.139770 539.895670 L 39.988730 538.932894 L 42.856932 541.720979 L 45.725134 544.509064 L 48.593336 547.297149 L 51.461538 550.085233 L 54.329740 552.873318 L 57.234176 555.622484 L 60.219818 558.284428 L 63.205460 560.946371 L 66.191101 563.608315 L 69.185646 566.260075 L 72.222673 568.863240 L 75.259700 571.466405 L 78.296726 574.069570 L 81.379798 576.618013 L 84.463852 579.165287 L 87.547907 581.712562 L 90.674409 584.207251 L 93.814916 586.684592 L 96.955423 589.161933 L 100.135833 591.587363 L 103.337451 593.985204 L 106.539069 596.383045 L 109.740687 598.780887 L 112.942305 601.178728 L 116.143923 603.576569 L 119.345541 605.974410 L 122.624437 608.263336 L 125.887800 610.454720" fill="none" id="24" stroke="black" stroke-width="0.5" /></svg>