<?xml version="1.0" encoding="utf-8" ?>
<svg baseProfile="full" height="620.54239" version="1.1" viewBox="0,0,578.54239,620.54239" width="578.54239" xmlns="http://www.w3.org/2000/svg" xmlns:ev="http://www.w3.org/2001/xml-events" xmlns:xlink="http://www.w3.org/1999/xlink"><defs><style type="text/css"><![CDATA[
	.background { fill: white; }
	.line { stroke: firebrick; stroke-width: .1mm; }
	.blacksquare { fill: indigo; }
	.whitesquare { fill: white; }
]]></style></defs><rect class="background" height="100%" width="100%" x="0" y="0" /><path d="M 7.533694 114.790872 L 10.245634 118.960872 L 12.957134 123.130872 L 15.668534 127.301872 L 18.380734 131.470872 L 21.098734 135.637872 L 23.871534 139.766872 L 26.709034 143.852872 L 29.551834 147.934872 L 32.393834 152.016872 L 35.221734 156.108872 L 37.982834 160.246872 L 40.667834 164.433872 L 43.296234 168.656872 L 45.913834 172.886872 L 48.530834 177.116872 L 51.152634 181.344872 L 53.797434 185.557872 L 56.462734 189.757872 L 59.132134 193.954872 L 61.801634 198.151872 L 64.471034 202.349872 L 67.140534 206.546872 L 69.809934 210.743872 L 72.460834 214.952872 L 75.059234 219.194872 L 77.629334 223.453872 L 80.195634 227.714872 L 82.756634 231.978872 L 85.298134 236.254872 L 87.817434 240.543872 L 90.329234 244.837872 L 92.840334 249.131872 L 95.327034 253.439872 L 97.757334 257.779872 L 100.134634 262.148872 L 102.459634 266.546872 L 104.739634 270.967872 L 107.002634 275.396872 L 109.264634 279.827872 L 111.526634 284.257872 L 113.788634 288.687872 L 116.054634 293.115872 L 118.337634 297.534872 L 120.644634 301.941872 L 122.963634 306.342872 L 125.282634 310.743872 L 127.602634 315.143872 L 129.921634 319.544872 L 132.240634 323.944872 L 134.560634 328.344872 L 136.879634 332.745872 L 139.199634 337.145872 L 141.518634 341.546872 L 143.838634 345.946872 L 146.157634 350.347872 L 148.477634 354.747872 L 150.796634 359.147872 L 153.115634 363.548872 L 155.435634 367.948872 L 157.754634 372.349872 L 160.060634 376.756872 L 162.294634 381.201872 L 164.502634 385.658872 L 166.707634 390.117872 L 168.912634 394.576872 L 171.118634 399.034872 L 173.323634 403.493872 L 175.529634 407.951872 L 177.734634 412.410872 L 179.940634 416.869872 L 182.145634 421.327872 L 184.351634 425.786872 L 186.556634 430.245872 L 188.761634 434.703872" fill="none" id="0" stroke="#c583d9" stroke-width="0.5" /><path d="M 91.061234 166.924872 L 95.698834 168.770872 L 100.336634 170.616872 L 104.973634 172.462872 L 109.551634 174.446872 L 114.065634 176.577872 L 118.579634 178.707872 L 123.093634 180.837872 L 127.433634 183.302872 L 131.769634 185.774872 L 136.105634 188.247872 L 140.325634 190.903872 L 144.410634 193.771872 L 148.495634 196.639872 L 152.580634 199.507872 L 156.385634 202.737872 L 160.173634 205.987872 L 163.961634 209.237872 L 167.552634 212.689872 L 170.883634 216.406872 L 174.214634 220.124872 L 177.545634 223.841872 L 180.538634 227.833872 L 183.501634 231.850872 L 186.464634 235.867872 L 189.315634 239.961872 L 191.995634 244.172872 L 194.676634 248.383872 L 197.356634 252.593872 L 199.660634 257.018872 L 201.913634 261.472872 L 204.166634 265.926872 L 206.239634 270.460872 L 207.996634 275.132872 L 209.753634 279.804872 L 211.509634 284.476872 L 212.849634 289.280872 L 214.113634 294.109872 L 215.376634 298.938872 L 216.479634 303.801872 L 217.250634 308.732872 L 218.021634 313.664872 L 218.792634 318.595872 L 219.047634 323.574872 L 219.179634 328.564872 L 219.312634 333.553872 L 219.257634 338.536872 L 218.758634 343.503872 L 218.260634 348.469872 L 217.761634 353.436872 L 216.910634 358.350872 L 215.958634 363.250872 L 215.006634 368.150872 L 213.739634 372.948872 L 211.652634 377.482872 L 209.565634 382.017872 L 207.478634 386.551872 L 204.186634 390.219872 L 200.552634 393.641872 L 196.918634 397.062872 L 193.018634 400.110872 L 188.594634 402.423872 L 184.171634 404.735872 L 179.748634 407.048872 L 174.820634 407.270872 L 169.829634 407.227872 L 164.838634 407.184872 L 159.917634 406.636872 L 155.103634 405.316872 L 150.289634 403.997872 L 145.475634 402.677872 L 140.991634 400.506872 L 136.545634 398.238872 L 132.098634 395.970872 L 127.701634 393.611872 L 123.381634 391.111872 L 119.060634 388.612872 L 114.740634 386.112872 L 110.758634 383.111872 L 106.827634 380.035872 L 102.897634 376.958872 L 99.039834 373.794872 L 95.315634 370.471872 L 91.591334 367.147872 L 87.867034 363.824872 L 84.355834 360.279872 L 80.887334 356.690872 L 77.418834 353.100872 L 74.038834 349.432872 L 70.852234 345.590872 L 67.665634 341.748872 L 64.479034 337.906872 L 61.539134 333.875872 L 58.662934 329.796872 L 55.786634 325.716872 L 53.038034 321.557872 L 50.620734 317.190872 L 48.203434 312.823872 L 45.786234 308.456872 L 43.611534 303.965872 L 41.511934 299.437872 L 39.412334 294.908872 L 37.388034 290.348872 L 35.597634 285.689872 L 33.807134 281.030872 L 32.016634 276.370872 L 30.682634 271.569872 L 29.517934 266.716872 L 28.353234 261.862872 L 27.347134 256.983872 L 26.919134 252.009872 L 26.491034 247.036872 L 26.063034 242.063872 L 26.311334 237.098872 L 26.846734 232.135872 L 27.382134 227.172872 L 28.173234 222.274872 L 30.051634 217.649872 L 31.930134 213.025872 L 33.808534 208.400872 L 36.885734 204.597872 L 40.517834 201.173872 L 44.149834 197.749872 L 47.835234 194.388872 L 51.793734 191.347872 L 55.752134 188.306872 L 59.710634 185.266872 L 64.277434 183.466872 L 69.105234 182.198872 L 73.932934 180.930872 L 78.793834 179.911872 L 83.785134 179.872872 L 88.776434 179.833872 L 93.767734 179.793872 L 98.663834 180.593872 L 103.519634 181.750872 L 108.374634 182.908872 L 113.157634 184.270872 L 117.659634 186.425872 L 122.161634 188.580872 L 126.664634 190.735872 L 130.825634 193.456872 L 134.838634 196.425872 L 138.851634 199.393872 L 142.831634 202.403872 L 146.671634 205.592872 L 150.512634 208.781872 L 154.352634 211.969872 L 157.848634 215.515872 L 161.174634 219.237872 L 164.500634 222.959872 L 167.737634 226.749872 L 170.489634 230.914872 L 173.240634 235.078872 L 175.992634 239.243872 L 178.511634 243.547872 L 180.897634 247.931872 L 183.283634 252.316872 L 185.623634 256.722872 L 187.623634 261.295872 L 189.623634 265.868872 L 191.623634 270.442872 L 193.241634 275.152872 L 194.603634 279.954872 L 195.966634 284.756872 L 197.279634 289.569872 L 198.093634 294.494872 L 198.906634 299.418872 L 199.720634 304.343872 L 200.305634 309.296872 L 200.717634 314.270872 L 201.129634 319.245872 L 201.488634 324.219872 L 201.039634 329.190872 L 200.589634 334.161872 L 200.140634 339.133872 L 199.207634 344.016872 L 197.882634 348.829872 L 196.558634 353.641872 L 195.188634 358.435872 L 192.814634 362.826872 L 190.439634 367.217872 L 188.065634 371.608872 L 185.097634 375.562872 L 181.621634 379.145872 L 178.145634 382.727872 L 174.594634 386.189872 L 169.869634 387.799872 L 165.144634 389.408872 L 160.419634 391.018872 L 155.561634 391.996872 L 150.589634 392.437872 L 145.617634 392.878872 L 140.652634 393.203872 L 135.770634 392.164872 L 130.888634 391.125872 L 126.006634 390.086872 L 121.345634 388.398872 L 116.848634 386.232872 L 112.351634 384.067872 L 107.860634 381.889872 L 103.456634 379.539872 L 99.053434 377.188872 L 94.649834 374.838872 L 90.400534 372.233872 L 86.277834 369.419872 L 82.155134 366.606872 L 78.039234 363.782872 L 74.146334 360.658872 L 70.253434 357.534872 L 66.360634 354.410872 L 62.594934 351.139872 L 58.951134 347.728872 L 55.307334 344.316872 L 51.663534 340.905872 L 48.343234 337.178872 L 45.025134 333.449872 L 41.706934 329.721872 L 38.541234 325.867872 L 35.543934 321.876872 L 32.546734 317.884872 L 29.549534 313.893872 L 26.754234 309.758872 L 23.967834 305.616872 L 21.181434 301.475872 L 18.570834 297.227872 L 16.185534 292.843872 L 13.800334 288.458872 L 11.415134 284.073872 L 9.611664 279.422872 L 7.853284 274.751872 L 6.094914 270.079872 L 4.610624 265.326872 L 3.516534 260.456872 L 2.422434 255.586872 L 1.328344 250.716872 L 0.923665 245.746872 L 0.597430 240.765872 L 0.271195 235.785872 L 0.313557 230.815872 L 0.952655 225.865872 L 1.591754 220.915872 L 2.230854 215.964872 L 3.987814 211.314872 L 5.913874 206.709872 L 7.839924 202.104872 L 10.279534 197.824872 L 13.615134 194.111872 L 16.950634 190.398872 L 20.286134 186.684872 L 24.569734 184.170872 L 28.952534 181.781872 L 33.335434 179.393872 L 37.854634 177.318872 L 42.591434 175.744872 L 47.328234 174.170872 L 52.065134 172.597872 L 57.039734 172.599872 L 62.030034 172.705872 L 67.020334 172.812872 L 71.955034 173.364872 L 76.817834 174.489872 L 81.680734 175.615872 L 86.543534 176.741872 L 91.152234 178.644872 L 95.741634 180.607872 L 100.330634 182.570872 L 104.738634 184.869872 L 108.892634 187.636872 L 113.046634 190.404872 L 117.200634 193.171872 L 121.261634 196.073872 L 125.313634 198.988872 L 129.364634 201.904872 L 133.257634 205.012872 L 136.897634 208.427872 L 140.538634 211.842872 L 144.178634 215.257872 L 147.509634 218.971872 L 150.792634 222.730872 L 154.076634 226.490872 L 157.251634 230.336872 L 160.225634 234.345872 L 163.199634 238.354872 L 166.172634 242.363872 L 168.845634 246.576872 L 171.456634 250.830872 L 174.067634 255.084872 L 176.594634 259.386872 L 178.935634 263.794872 L 181.277634 268.202872 L 183.619634 272.610872 L 185.787634 277.105872 L 187.911634 281.622872 L 190.035634 286.139872 L 192.051634 290.701872 L 193.782634 295.383872 L 195.513634 300.065872 L 197.244634 304.746872 L 198.810634 309.485872 L 200.324634 314.241872 L 201.838634 318.997872 L 203.223634 323.787872 L 204.200634 328.682872 L 205.177634 333.577872 L 206.154634 338.472872 L 206.616634 343.432872 L 206.885634 348.416872 L 207.154634 353.400872 L 207.078634 358.345872 L 205.699634 363.143872 L 204.321634 367.940872 L 202.942634 372.737872 L 200.358634 376.930872 L 197.341634 380.907872 L 194.324634 384.883872 L 190.925634 388.481872 L 186.970634 391.526872 L 183.016634 394.572872 L 179.061634 397.617872" fill="none" id="1" stroke="#9de993" stroke-width="0.5" /><path d="M 161.234634 399.341872 L 156.414634 398.073872 L 151.595634 396.805872 L 146.808634 395.432872 L 142.125634 393.730872 L 137.441634 392.027872 L 132.865634 390.075872 L 128.404634 387.852872 L 123.944634 385.629872 L 119.735634 382.979872 L 115.626634 380.159872 L 111.518634 377.339872 L 107.641634 374.209872 L 103.777634 371.061872 L 99.941534 367.881872 L 96.233634 364.552872 L 92.525634 361.222872 L 88.907734 357.799872 L 85.423434 354.236872 L 81.939234 350.673872 L 78.651234 346.933872 L 75.477834 343.091872 L 72.304434 339.248872 L 69.217234 335.336872 L 66.144034 331.413872 L 63.092734 327.474872 L 60.269334 323.368872 L 57.446034 319.261872 L 54.737134 315.083872 L 52.276134 310.749872 L 49.815134 306.416872 L 47.521834 301.995872 L 45.369334 297.500872 L 43.216734 293.006872 L 41.346534 288.389872 L 39.559734 283.737872 L 37.773134 279.085872 L 36.376634 274.301872 L 34.980134 269.517872 L 33.690534 264.708872 L 32.759634 259.812872 L 31.828734 254.916872 L 31.167634 249.986872 L 30.822734 245.014872 L 30.477834 240.043872 L 30.665034 235.075872 L 31.088734 230.110872 L 31.512434 225.144872 L 32.295034 220.224872 L 33.104834 215.307872 L 34.030634 210.418872 L 35.580234 205.681872 L 37.129934 200.945872 L 39.005734 196.349872 L 41.377634 191.966872 L 43.749534 187.583872 L 46.997434 183.903872 L 50.762534 180.638872 L 54.527634 177.373872 L 58.494834 174.360872 L 62.491334 171.383872 L 66.590434 168.627872 L 71.445034 167.501872 L 76.299734 166.376872 L 81.199834 165.705872 L 86.181234 165.850872 L 91.162634 165.994872 L 96.031434 166.869872 L 100.825634 168.231872 L 105.619634 169.592872 L 110.091634 171.759872 L 114.503634 174.076872 L 118.887634 176.439872 L 122.933634 179.348872 L 126.979634 182.257872 L 130.896634 185.323872 L 134.523634 188.740872 L 138.150634 192.158872 L 141.677634 195.676872 L 145.119634 199.281872 L 148.560634 202.885872 L 151.770634 206.693872 L 154.910634 210.563872 L 158.050634 214.433872 L 160.874634 218.539872 L 163.699634 222.645872 L 166.439634 226.803872 L 168.892634 231.141872 L 171.345634 235.479872 L 173.668634 239.885872 L 175.833634 244.374872 L 177.998634 248.862872 L 180.068634 253.395872 L 182.093634 257.949872 L 184.117634 262.502872 L 186.003634 267.115872 L 187.875634 271.734872 L 189.716634 276.364872 L 191.363634 281.067872 L 193.011634 285.770872 L 194.569634 290.502872 L 195.972634 295.284872 L 197.376634 300.066872 L 198.570634 304.901872 L 199.621634 309.772872 L 200.672634 314.644872 L 201.570634 319.545872 L 202.434634 324.453872 L 203.277634 329.364872 L 203.721634 334.328872 L 204.165634 339.291872 L 204.483634 344.261872 L 204.482634 349.244872 L 204.480634 354.228872 L 204.071634 359.178872 L 203.270634 364.097872 L 202.469634 369.015872 L 200.968634 373.748872 L 199.223634 378.416872 L 197.477634 383.084872 L 194.648634 387.182872 L 191.791634 391.264872 L 188.692634 395.113872 L 184.698634 398.094872 L 180.704634 401.074872 L 176.320634 403.277872 L 171.541634 404.688872 L 166.762634 406.100872 L 161.854634 406.868872 L 156.898634 407.388872 L 151.942634 407.909872 L 147.060634 406.910872 L 142.177634 405.910872 L 137.350634 404.722872 L 132.699634 402.934872 L 128.047634 401.146872 L 123.551634 399.031872 L 119.229634 396.549872 L 114.907634 394.068872 L 110.656634 391.469872 L 106.434634 388.821872 L 102.212634 386.174872 L 98.218334 383.196872 L 94.240134 380.194872 L 90.308534 377.137872 L 86.619634 373.786872 L 82.930734 370.435872 L 79.308534 367.015872 L 75.791134 363.484872 L 72.273734 359.954872 L 68.875634 356.311872 L 65.551834 352.598872 L 62.228134 348.885872 L 59.131834 344.982872 L 56.077534 341.044872 L 53.050434 337.087872 L 50.364334 332.889872 L 47.678334 328.692872 L 45.092534 324.435872 L 42.736634 320.044872 L 40.380734 315.652872 L 38.139834 311.203872 L 36.000034 306.702872 L 33.860234 302.201872 L 31.932034 297.608872 L 30.070834 292.985872 L 28.209634 288.362872 L 26.868534 283.563872 L 25.533734 278.761872 L 24.227734 273.952872 L 23.024534 269.116872 L 21.821334 264.280872 L 20.888134 259.395872 L 20.289834 254.447872 L 19.691634 249.500872 L 19.485834 244.528872 L 19.468834 239.544872 L 19.451834 234.561872 L 20.080734 229.622872 L 20.777934 224.687872 L 21.649234 219.801872 L 23.585434 215.209872 L 25.521634 210.617872 L 27.887334 206.273872 L 30.892934 202.298872 L 33.898634 198.323872 L 37.276534 194.679872 L 40.874134 191.230872 L 44.471634 187.782872 L 48.870534 185.490872 L 53.363134 183.333872 L 57.910534 181.337872 L 62.785234 180.301872 L 67.659834 179.265872 L 72.575534 178.572872 L 77.556934 178.431872 L 82.538434 178.290872 L 87.487234 178.691872 L 92.415734 179.430872 L 97.344134 180.168872 L 102.126634 181.543872 L 106.882634 183.030872 L 111.620634 184.565872 L 116.146634 186.651872 L 120.671634 188.738872 L 125.106634 190.994872 L 129.336634 193.629872 L 133.565634 196.264872 L 137.618634 199.150872 L 141.519634 202.252872 L 145.419634 205.354872 L 149.097634 208.712872 L 152.708634 212.146872 L 156.320634 215.580872" fill="none" id="2" stroke="#ad5ba7" stroke-width="0.5" /><path d="M 203.533634 321.058872 L 203.767634 322.123872 L 204.000634 323.189872 L 204.202634 324.260872 L 204.405634 325.332872 L 204.584634 326.408872 L 204.763634 327.484872 L 204.900634 328.566872 L 205.036634 329.648872 L 205.125634 330.735872 L 205.214634 331.823872 L 205.255634 332.912872 L 205.296634 334.002872 L 205.321634 335.093872 L 205.347634 336.183872 L 205.328634 337.274872 L 205.309634 338.364872 L 205.245634 339.453872 L 205.180634 340.542872 L 205.042634 341.624872 L 204.904634 342.706872 L 204.703634 343.778872 L 204.502634 344.850872 L 204.257634 345.913872 L 204.013634 346.976872 L 203.742634 348.032872 L 203.470634 349.089872 L 203.191634 350.143872 L 202.912634 351.198872 L 202.624634 352.250872 L 202.336634 353.302872" fill="none" id="3" stroke="#ad5ba7" stroke-width="0.5" /><path d="M 156.320634 215.580872 L 159.246634 219.583872 L 162.173634 223.586872 L 164.991634 227.663872 L 167.685634 231.826872 L 170.378634 235.989872 L 172.754634 240.341872 L 175.108634 244.705872 L 177.339634 249.130872 L 179.386634 253.646872 L 181.434634 258.162872 L 183.329634 262.744872 L 185.200634 267.336872 L 186.989634 271.959872 L 188.612634 276.644872 L 190.234634 281.330872 L 191.745634 286.052872 L 193.227634 290.784872 L 194.626634 295.539872 L 195.784634 300.360872 L 196.942634 305.182872 L 197.700634 310.075872 L 198.301634 314.997872 L 198.902634 319.919872 L 199.502634 324.842872 L 200.101634 329.764872 L 200.395634 334.708872 L 200.522634 339.665872 L 200.610634 344.622872 L 200.376634 349.575872 L 200.143634 354.528872 L 199.398634 359.410872 L 198.269634 364.238872 L 197.109634 369.056872 L 195.218634 373.640872 L 193.328634 378.224872 L 191.143634 382.665872 L 188.693634 386.976872 L 186.242634 391.286872" fill="none" id="4" stroke="#58f2c3" stroke-width="0.5" /><path d="M 421.108634 0.271195 L 424.392634 3.922242 L 427.601634 7.639762 L 430.696634 11.452672 L 433.708634 15.330672 L 436.582634 19.312672 L 439.445634 23.302472 L 442.308634 27.292172 L 445.172634 31.281972 L 448.035634 35.271772 L 450.898634 39.261472 L 453.761634 43.251272 L 456.624634 47.240972 L 459.473634 51.241172 L 462.255634 55.287972 L 465.008634 59.354072 L 467.759634 63.422072 L 470.510634 67.490072 L 473.252634 71.563872 L 475.955634 75.663772 L 478.626634 79.784972 L 481.288634 83.911272 L 483.951634 88.037472 L 486.614634 92.163772 L 489.276634 96.290172 L 491.888634 100.448872 L 494.456634 104.634872 L 497.020634 108.822872 L 499.584634 113.010872 L 502.124634 117.213872 L 504.632634 121.435872 L 507.132634 125.662872 L 509.633634 129.888872 L 512.134634 134.115872 L 514.634634 138.341872 L 517.135634 142.567872 L 519.636634 146.794872 L 522.136634 151.020872 L 524.637634 155.247872 L 527.138634 159.473872 L 529.638634 163.699872 L 532.139634 167.926872 L 534.632634 172.156872 L 537.093634 176.406872 L 539.519634 180.676872 L 541.943634 184.947872 L 544.368634 189.217872 L 546.792634 193.488872 L 549.216634 197.759872 L 551.636634 202.032872 L 554.020634 206.325872 L 556.359634 210.643872 L 558.653634 214.985872 L 560.874634 219.365872 L 563.084634 223.750872 L 565.294634 228.135872 L 567.502634 232.522872" fill="none" id="5" stroke="#c94e76" stroke-width="0.5" /><path d="M 430.399634 5.373562 L 434.998634 3.628632 L 439.741634 2.326912 L 444.614634 1.659442 L 449.531634 1.541312 L 454.446634 1.741052 L 459.335634 2.272162 L 464.200634 3.002922 L 469.003634 4.059272 L 473.764634 5.296302 L 478.490634 6.661402 L 483.174634 8.162522 L 487.807634 9.814472 L 492.354634 11.688972 L 496.780634 13.833972 L 501.011634 16.342472 L 505.045634 19.156572 L 508.912634 22.196572 L 512.645634 25.399172 L 516.248634 28.747972 L 519.691634 32.260872 L 523.028634 35.873772 L 526.296634 39.550472 L 529.425634 43.345172 L 532.432634 47.237772 L 535.364634 51.187072 L 538.196634 55.208472 L 540.989634 59.257572 L 543.750634 63.328272 L 546.386634 67.480672 L 548.828634 71.750472 L 551.093634 76.116872 L 553.116634 80.600172 L 554.976634 85.153772 L 556.595634 89.798272 L 558.024634 94.504772 L 559.388634 99.230672 L 560.633634 103.988872 L 561.801634 108.766872" fill="none" id="6" stroke="#57b870" stroke-width="0.5" /><path d="M 570.525634 257.467872 L 565.605634 256.611872 L 560.685634 255.755872 L 555.765634 254.899872 L 550.845634 254.043872 L 545.925634 253.187872 L 541.060634 252.113872 L 536.319634 250.542872 L 531.578634 248.972872 L 526.838634 247.402872 L 522.097634 245.832872 L 517.356634 244.262872 L 512.926634 242.021872 L 508.658634 239.428872 L 504.391634 236.834872 L 500.123634 234.240872 L 495.856634 231.646872 L 491.588634 229.052872 L 487.651634 225.989872 L 483.770634 222.846872 L 479.890634 219.702872 L 476.010634 216.559872 L 472.129634 213.415872 L 468.249634 210.272872 L 464.600634 206.862872 L 460.952634 203.452872 L 457.303634 200.042872 L 453.655634 196.632872 L 450.007634 193.222872 L 446.407634 189.764872 L 443.086634 186.034872 L 439.765634 182.304872 L 436.444634 178.575872 L 433.123634 174.845872 L 429.802634 171.115872 L 426.663634 167.247872 L 423.951634 163.054872 L 421.240634 158.860872 L 418.528634 154.666872 L 415.816634 150.473872 L 413.105634 146.279872 L 410.553634 141.991872 L 408.183634 137.595872 L 405.812634 133.200872 L 403.441634 128.805872 L 401.070634 124.409872 L 398.700634 120.014872 L 396.814634 115.409872 L 395.232634 110.672872 L 393.651634 105.935872 L 392.069634 101.198872 L 390.488634 96.462172 L 388.906634 91.725172 L 388.437634 86.780672 L 388.203634 81.792172 L 387.969634 76.803772 L 387.735634 71.815272 L 387.500634 66.826872 L 387.294634 61.842672 L 388.987634 57.144372 L 390.680634 52.445972 L 392.373634 47.747672 L 394.065634 43.049372 L 395.758634 38.351072 L 397.934634 33.995072 L 401.802634 30.835972 L 405.670634 27.676772 L 409.538634 24.517572 L 413.405634 21.358472 L 417.273634 18.199272 L 421.641634 16.021272 L 426.470634 14.747572 L 431.298634 13.473872 L 436.127634 12.200072 L 440.956634 10.926372 L 445.785634 9.652672 L 450.571634 10.575272 L 455.346634 12.036372 L 460.122634 13.497372 L 464.897634 14.958372 L 469.672634 16.419472 L 474.448634 17.880472 L 479.156634 19.546372 L 483.863634 21.215172 L 488.569634 22.883872 L 493.276634 24.552672 L 497.983634 26.221472 L 502.588634 28.077572 L 506.546634 31.122972 L 510.504634 34.168272 L 514.462634 37.213672 L 518.420634 40.259072 L 522.378634 43.304372 L 526.181634 46.519972 L 529.586634 50.172672 L 532.992634 53.825472 L 536.397634 57.478172 L 539.803634 61.130872 L 543.208634 64.783672 L 546.278634 68.691672 L 548.894634 72.945672 L 551.510634 77.199672 L 554.126634 81.453572 L 556.742634 85.707572 L 559.358634 89.961472 L 561.426634 94.476672 L 563.085634 99.187172 L 564.743634 103.897872 L 566.402634 108.607872 L 568.060634 113.318872 L 569.719634 118.028872 L 570.449634 122.934872 L 570.823634 127.914872 L 571.197634 132.893872 L 571.570634 137.873872 L 571.944634 142.853872 L 572.318634 147.833872 L 572.385634 152.825872 L 572.410634 157.819872 L 572.435634 162.813872 L 572.460634 167.807872 L 572.485634 172.801872 L 572.328634 177.745872 L 569.753634 182.024872 L 567.179634 186.303872 L 564.604634 190.582872 L 562.029634 194.861872 L 559.455634 199.140872 L 556.188634 202.601872 L 551.540634 204.428872 L 546.893634 206.255872 L 542.245634 208.082872 L 537.597634 209.909872 L 532.950634 211.736872 L 528.135634 211.558872 L 523.249634 210.525872 L 518.363634 209.492872 L 513.477634 208.459872 L 508.591634 207.426872 L 503.705634 206.393872 L 499.451634 203.796872 L 495.217634 201.147872 L 490.984634 198.498872 L 486.751634 195.848872 L 482.517634 193.199872 L 478.328634 190.489872 L 474.490634 187.293872 L 470.653634 184.098872 L 466.815634 180.902872 L 462.977634 177.707872 L 459.140634 174.511872 L 455.539634 171.087872 L 452.484634 167.136872 L 449.429634 163.186872 L 446.375634 159.235872 L 443.320634 155.284872 L 440.265634 151.333872 L 437.398634 147.251872 L 434.739634 143.024872 L 432.080634 138.797872 L 429.421634 134.570872 L 426.762634 130.343872 L 424.103634 126.116872 L 421.762634 121.714872 L 419.616634 117.204872 L 417.471634 112.695872 L 415.325634 108.185872 L 413.179634 103.676872 L 411.034634 99.166972 L 409.999634 94.314172 L 409.224634 89.380572 L 408.450634 84.447072 L 407.675634 79.513572 L 406.901634 74.579972 L 406.167634 69.644272 L 406.396634 64.655572 L 406.624634 59.666872 L 406.853634 54.678172 L 407.082634 49.689472 L 407.311634 44.700772 L 408.092634 39.917672 L 411.181634 35.993372 L 414.269634 32.069172 L 417.358634 28.144872 L 420.446634 24.220572 L 423.535634 20.296272 L 427.413634 17.501072 L 432.159634 15.949272 L 436.906634 14.397572 L 441.653634 12.845772 L 446.400634 11.293972 L 451.146634 9.742172 L 455.999634 10.495872 L 460.868634 11.605072 L 465.738634 12.714272 L 470.607634 13.823472 L 475.476634 14.932672 L 480.307634 16.123972 L 484.322634 19.094872 L 488.336634 22.065772 L 492.350634 25.036672 L 496.364634 28.007572 L 500.378634 30.978472 L 504.376634 33.970972 L 508.313634 37.043772 L 512.249634 40.116472 L 516.186634 43.189172 L 520.123634 46.261972 L 524.059634 49.334672 L 527.633634 52.756772 L 530.556634 56.806272 L 533.478634 60.855772 L 536.401634 64.905272 L 539.323634 68.954772 L 542.246634 73.004372 L 544.795634 77.276872 L 546.973634 81.770872 L 549.150634 86.264872 L 551.328634 90.758972 L 553.506634 95.252972 L 555.684634 99.746872 L 556.926634 104.529872 L 557.658634 109.469872 L 558.390634 114.409872 L 559.122634 119.349872 L 559.854634 124.289872 L 560.586634 129.229872 L 561.170634 134.188872 L 561.717634 139.152872 L 562.265634 144.116872 L 562.812634 149.080872 L 563.359634 154.043872 L 563.906634 159.007872 L 562.309634 163.724872 L 560.648634 168.434872 L 558.987634 173.143872 L 557.325634 177.853872 L 555.664634 182.562872 L 553.623634 187.007872 L 549.779634 190.195872 L 545.934634 193.382872 L 542.090634 196.570872 L 538.245634 199.757872 L 534.401634 202.944872 L 530.110634 205.104872 L 525.157634 205.739872 L 520.203634 206.374872 L 515.250634 207.009872 L 510.296634 207.644872 L 505.343634 208.279872 L 500.560634 207.272872 L 495.844634 205.631872 L 491.127634 203.990872 L 486.411634 202.349872 L 481.694634 200.707872 L 476.978634 199.066872 L 473.165634 195.889872 L 469.441634 192.562872 L 465.717634 189.235872 L 461.993634 185.908872 L 458.268634 182.581872 L 454.545634 179.252872 L 450.842634 175.902872 L 447.139634 172.551872 L 443.435634 169.201872 L 439.732634 165.851872 L 436.029634 162.500872 L 432.513634 158.988872 L 429.723634 154.846872 L 426.934634 150.703872 L 424.145634 146.561872 L 421.355634 142.418872 L 418.566634 138.276872 L 416.189634 133.928872 L 414.555634 129.209872 L 412.921634 124.490872 L 411.287634 119.771872 L 409.653634 115.052872 L 408.019634 110.333872 L 406.428634 105.599872 L 404.878634 100.852872 L 403.328634 96.105272 L 401.778634 91.357872 L 400.228634 86.610572 L 398.678634 81.863272 L 398.061634 76.954872 L 397.930634 71.962572 L 397.798634 66.970372 L 397.667634 61.978172 L 397.535634 56.985972 L 397.404634 51.993772 L 398.809634 47.249572 L 400.504634 42.551772 L 402.198634 37.854072 L 403.892634 33.156372 L 405.587634 28.458572 L 407.334634 23.797872 L 411.166634 20.595772 L 414.999634 17.393672 L 418.831634 14.191472 L 422.663634 10.989372 L 426.495634 7.787242 L 430.731634 5.455382 L 435.651634 4.596022 L 440.570634 3.736662 L 445.490634 2.877312 L 450.409634 2.017952 L 455.328634 1.158592 L 460.049634 2.053502 L 464.651634 3.992942 L 469.253634 5.932382 L 473.855634 7.871822 L 478.457634 9.811272 L 483.059634 11.750672 L 487.440634 14.138872 L 491.784634 16.601472 L 496.129634 19.064072 L 500.474634 21.526672 L 504.818634 23.989272 L 509.161634 26.453672 L 512.751634 29.925472 L 516.341634 33.397372 L 519.930634 36.869272 L 523.520634 40.341072 L 527.110634 43.812972 L 530.591634 47.379172 L 533.552634 51.401072 L 536.512634 55.422972 L 539.472634 59.444872 L 542.433634 63.466772 L 545.393634 67.488672 L 548.119634 71.654072 L 550.358634 76.118272 L 552.596634 80.582372 L 554.835634 85.046472 L 557.073634 89.510572 L 559.312634 93.974772 L 561.129634 98.602672 L 562.492634 103.406872 L 563.855634 108.210872 L 565.218634 113.015872 L 566.582634 117.819872 L 567.945634 122.623872 L 568.555634 127.547872 L 568.748634 132.537872 L 568.941634 137.528872 L 569.134634 142.518872 L 569.326634 147.508872 L 569.519634 152.498872 L 569.458634 157.490872 L 569.340634 162.483872 L 569.222634 167.475872 L 569.105634 172.468872 L 568.987634 177.461872 L 568.870634 182.453872 L 566.151634 186.616872 L 563.354634 190.753872 L 560.558634 194.890872 L 557.761634 199.028872 L 554.965634 203.165872 L 551.741634 206.826872 L 547.323634 209.154872 L 542.905634 211.482872 L 538.486634 213.810872 L 534.068634 216.137872 L 529.650634 218.465872 L 524.940634 218.927872 L 520.023634 218.058872 L 515.105634 217.188872 L 510.187634 216.318872 L 505.270634 215.449872 L 500.352634 214.579872 L 496.018634 212.236872 L 491.840634 209.501872 L 487.662634 206.766872 L 483.484634 204.030872 L 479.305634 201.295872 L 475.127634 198.559872 L 471.046634 195.681872 L 466.970634 192.797872 L 462.893634 189.912872 L 458.817634 187.027872 L 454.740634 184.143872 L 450.747634 181.165872 L 447.471634 177.396872 L 444.196634 173.627872 L 440.920634 169.857872 L 437.644634 166.088872 L 434.368634 162.319872 L 431.297634 158.405872 L 428.843634 154.055872 L 426.390634 149.705872 L 423.936634 145.356872 L 421.483634 141.006872 L 419.030634 136.656872 L 416.577634 132.306872 L 414.127634 127.955872 L 411.676634 123.603872 L 409.225634 119.252872 L 406.774634 114.901872 L 404.324634 110.550872 L 402.656634 105.907872 L 401.663634 101.012872 L 400.669634 96.119172 L 399.676634 91.225072 L 398.682634 86.330872 L 397.689634 81.436772 L 398.169634 76.542272 L 399.160634 71.647472 L 400.150634 66.752772 L 401.141634 61.858072 L 402.131634 56.963372 L 403.122634 52.068572 L 405.732634 47.857372 L 408.548634 43.733172 L 411.364634 39.609072 L 414.180634 35.484872 L 416.996634 31.360672 L 420.048634 27.490672 L 424.378634 25.002172 L 428.707634 22.513772 L 433.037634 20.025272 L 437.367634 17.536872 L 441.697634 15.048472 L 446.258634 13.258972 L 451.217634 12.672672 L 456.177634 12.086272 L 461.136634 11.499972 L 466.096634 10.913572 L 471.055634 10.327272 L 475.963634 10.691672 L 480.830634 11.809172 L 485.698634 12.926672 L 490.565634 14.044172 L 495.432634 15.161672 L 500.299634 16.279172 L 504.707634 18.515672 L 508.956634 21.140972 L 513.204634 23.766172 L 517.452634 26.391472 L 521.700634 29.016672 L 525.948634 31.641972 L 529.397634 35.243972 L 532.810634 38.889972 L 536.222634 42.535972 L 539.635634 46.181972 L 543.048634 49.827972 L 546.427634 53.502572 L 549.510634 57.431072 L 552.593634 61.359572 L 555.677634 65.288072 L 558.760634 69.216572 L 561.843634 73.145172 L 564.458634 77.328772 L 566.083634 82.050672 L 567.709634 86.772572 L 569.335634 91.494472 L 570.961634 96.216372 L 572.586634 100.937872 L 573.772634 105.766872 L 574.477634 110.709872 L 575.183634 115.653872 L 575.888634 120.597872 L 576.594634 125.541872 L 577.300634 130.485872 L 577.134634 135.438872 L 576.532634 140.395872 L 575.930634 145.353872 L 575.328634 150.310872 L 574.727634 155.268872 L 574.125634 160.226872 L 572.865634 165.047872 L 571.451634 169.836872 L 570.036634 174.626872 L 568.622634 179.416872 L 567.208634 184.205872 L 565.685634 188.921872 L 561.761634 192.009872 L 557.836634 195.098872 L 553.912634 198.187872 L 549.988634 201.276872 L 546.064634 204.364872 L 541.915634 206.948872 L 536.994634 207.800872 L 532.073634 208.652872 L 527.153634 209.504872 L 522.232634 210.356872 L 517.311634 211.208872 L 512.420634 211.078872 L 507.561634 209.928872 L 502.701634 208.778872 L 497.841634 207.628872 L 492.981634 206.478872 L 488.122634 205.329872 L 483.674634 203.177872 L 479.410634 200.576872 L 475.147634 197.976872 L 470.884634 195.375872 L 466.621634 192.774872 L 462.357634 190.173872 L 458.317634 187.242872 L 454.305634 184.267872 L 450.294634 181.292872 L 446.283634 178.317872 L 442.272634 175.342872 L 438.272634 172.354872 L 434.686634 168.879872 L 431.100634 165.403872 L 427.514634 161.928872 L 423.928634 158.452872 L 420.341634 154.977872 L 416.894634 151.382872 L 413.999634 147.313872 L 411.104634 143.244872 L 408.209634 139.174872 L 405.315634 135.105872 L 402.420634 131.036872 L 399.830634 126.791872 L 397.771634 122.241872 L 395.712634 117.691872 L 393.653634 113.142872 L 391.593634 108.592872 L 389.534634 104.043872 L 388.159634 99.287672 L 387.360634 94.358072 L 386.561634 89.428372 L 385.763634 84.498672 L 384.964634 79.569072 L 384.166634 74.639372 L 384.924634 69.794772 L 386.255634 64.981572 L 387.586634 60.168272 L 388.917634 55.354972 L 390.248634 50.541772 L 391.579634 45.728472 L 395.033634 42.154972 L 398.571634 38.630372 L 402.109634 35.105872 L 405.647634 31.581272 L 409.185634 28.056672 L 412.918634 24.791872 L 417.296634 22.390072 L 421.675634 19.988372 L 426.053634 17.586672 L 430.431634 15.184972 L 434.810634 12.783272 L 439.485634 11.504472 L 444.479634 11.428072 L 449.472634 11.351672 L 454.465634 11.275372 L 459.459634 11.198972 L 464.452634 11.122572 L 469.155634 12.487172 L 473.730634 14.490872 L 478.304634 16.494572 L 482.878634 18.498272 L 487.453634 20.501972 L 492.027634 22.505572 L 495.786634 25.754872 L 499.454634 29.144372 L 503.121634 32.533872 L 506.789634 35.923372 L 510.456634 39.312872 L 514.118634 42.708372 L 517.651634 46.238372 L 521.183634 49.768472 L 524.716634 53.298472 L 528.248634 56.828572 L 531.781634 60.358572 L 535.067634 64.073072 L 537.466634 68.453072 L 539.865634 72.833172 L 542.264634 77.213172 L 544.663634 81.593172 L 547.062634 85.973172 L 549.042634 90.520272 L 550.322634 95.347572 L 551.601634 100.174872 L 552.880634 105.001872 L 554.160634 109.829872 L 555.439634 114.656872 L 556.176634 119.571872 L 556.479634 124.555872 L 556.781634 129.540872 L 557.083634 134.525872 L 557.385634 139.510872 L 557.687634 144.495872 L 557.380634 149.468872 L 556.891634 154.438872 L 556.402634 159.408872 L 555.913634 164.378872 L 555.424634 169.348872 L 554.935634 174.318872" fill="none" id="7" stroke="#d271bb" stroke-width="0.5" /><path d="M 16.604534 225.270872 L 20.425434 222.054872 L 24.289834 218.890872 L 28.209634 215.795872 L 32.113334 212.680872 L 36.027334 209.578872 L 39.934334 206.467872 L 43.805034 203.311872 L 47.649934 200.124872 L 51.521234 196.969872 L 55.481634 193.927872 L 59.526434 190.998872 L 63.600934 188.110872 L 67.675534 185.222872 L 71.750134 182.334872 L 75.824734 179.446872 L 79.919234 176.586872 L 84.071334 173.811872 L 88.250034 171.076872 L 92.448234 168.371872 L 96.707634 165.763872 L 100.990634 163.193872 L 105.274634 160.626872 L 109.560634 158.063872 L 113.895634 155.583872 L 118.235634 153.112872 L 122.603634 150.690872 L 127.019634 148.358872 L 131.465634 146.082872 L 135.950634 143.887872 L 140.496634 141.819872 L 145.079634 139.836872 L 149.706634 137.957872 L 154.397634 136.246872 L 159.148634 134.707872 L 163.931634 133.273872 L 168.747634 131.954872 L 173.620634 130.865872 L 178.545634 130.058872 L 183.519634 129.641872 L 188.507634 129.654872 L 193.437634 130.346872 L 198.141634 132.023872 L 202.766634 133.892872 L 206.872634 136.734872 L 210.434634 140.235872 L 213.676634 144.033872 L 216.494634 148.153872 L 218.991634 152.476872 L 221.152634 156.976872 L 222.970634 161.625872 L 224.421634 166.400872 L 225.514634 171.270872 L 226.264634 176.205872 L 226.770634 181.173872 L 227.108634 186.155872 L 227.272634 191.145872 L 227.302634 196.140872 L 227.233634 201.133872 L 226.984634 206.119872 L 226.521634 211.092872 L 225.946634 216.053872 L 225.299634 221.005872 L 224.508634 225.936872 L 223.634634 230.853872 L 222.743634 235.767872 L 221.770634 240.666872 L 220.674634 245.539872 L 219.578634 250.411872 L 218.481634 255.284872 L 217.383634 260.156872 L 216.260634 265.022872 L 215.079634 269.875872 L 213.870634 274.721872 L 212.654634 279.565872 L 211.410634 284.401872 L 210.120634 289.226872 L 208.801634 294.043872 L 207.476634 298.858872 L 206.118634 303.665872 L 204.694634 308.451872 L 203.224634 313.224872 L 201.746634 317.995872 L 200.268634 322.766872 L 198.788634 327.536872 L 197.297634 332.302872 L 195.772634 337.058872 L 194.169634 341.788872 L 192.509634 346.499872" fill="none" id="8" stroke="#00d4db" stroke-width="0.5" /><path d="M 22.588834 225.459872 L 25.823434 221.716872 L 29.108534 218.017872 L 32.453334 214.372872 L 35.877034 210.801872 L 39.294234 207.224872 L 42.563334 203.511872 L 45.712734 199.696872 L 48.988034 195.989872 L 52.492134 192.497872 L 56.096534 189.108872 L 59.791434 185.819872 L 63.571334 182.627872 L 67.351234 179.436872 L 71.131234 176.244872 L 74.956134 173.107872 L 78.850434 170.056872 L 82.826334 167.112872 L 86.914234 164.326872 L 91.070934 161.644872 L 95.306434 159.088872 L 99.542134 156.532872 L 103.777634 153.976872 L 108.013634 151.420872 L 112.248634 148.864872 L 116.545634 146.411872 L 120.963634 144.185872 L 125.459634 142.122872 L 130.021634 140.208872 L 134.597634 138.329872 L 139.284634 136.746872 L 143.982634 135.195872 L 148.687634 133.666872 L 153.456634 132.351872 L 158.225634 131.037872 L 163.038634 129.892872 L 167.850634 128.748872 L 172.663634 127.603872 L 177.530634 126.715872 L 182.430634 126.035872 L 187.367634 125.720872 L 192.314634 125.694872 L 197.230634 126.246872 L 202.026634 127.460872 L 206.656634 129.204872 L 211.114634 131.347872 L 215.407634 133.806872" fill="none" id="9" stroke="#00d4db" stroke-width="0.5" /><path d="M 27.281734 218.089872 L 31.061334 214.959872 L 34.725034 211.694872 L 38.237534 208.267872 L 41.570034 204.664872 L 44.971634 201.127872 L 48.437134 197.652872 L 52.095234 194.381872 L 55.830234 191.197872 L 59.672334 188.144872 L 63.580134 185.175872 L 67.500534 182.223872 L 71.441034 179.298872 L 75.425134 176.432872 L 79.432334 173.599872 L 83.470134 170.810872 L 87.554234 168.089872 L 91.658634 165.398872 L 95.772034 162.722872 L 99.900734 160.069872 L 104.036634 157.427872 L 108.173634 154.786872 L 112.314634 152.153872 L 116.496634 149.584872 L 120.736634 147.115872 L 124.993634 144.672872 L 129.278634 142.280872 L 133.642634 140.035872 L 138.042634 137.861872 L 142.448634 135.699872 L 146.887634 133.606872 L 151.374634 131.620872 L 155.882634 129.679872 L 160.402634 127.768872 L 164.932634 125.880872 L 169.485634 124.050872 L 174.053634 122.255872" fill="none" id="10" stroke="#00d4db" stroke-width="0.5" /><path d="M 206.399634 135.081872 L 210.223634 138.238872 L 213.676634 141.792872 L 216.568634 145.817872 L 219.008634 150.133872 L 221.246634 154.558872 L 223.326634 159.058872 L 225.085634 163.693872 L 226.561634 168.427872 L 227.834634 173.219872 L 228.953634 178.049872 L 229.818634 182.931872 L 230.408634 187.853872 L 230.733634 192.801872 L 230.903634 197.756872 L 230.946634 202.715872 L 230.948634 207.674872 L 230.856634 212.631872 L 230.550634 217.580872 L 230.098634 222.518872 L 229.537634 227.445872 L 228.826634 232.352872 L 228.037634 237.248872 L 227.191634 242.134872 L 226.250634 247.003872 L 225.246634 251.859872 L 224.228634 256.713872 L 223.194634 261.563872 L 222.126634 266.405872 L 221.021634 271.239872 L 219.871634 276.063872 L 218.691634 280.880872 L 217.470634 285.686872 L 216.201634 290.480872 L 214.911634 295.268872 L 213.609634 300.053872 L 212.275634 304.830872 L 210.913634 309.598872 L 209.545634 314.364872 L 208.176634 319.131872 L 206.807634 323.897872 L 205.429634 328.661872 L 204.009634 333.412872 L 202.562634 338.156872 L 201.113634 342.898872 L 199.655634 347.638872 L 198.130634 352.357872 L 196.567634 357.063872 L 195.002634 361.768872 L 193.436634 366.474872 L 191.870634 371.179872 L 190.305634 375.885872" fill="none" id="11" stroke="#00d4db" stroke-width="0.5" /><path d="M 29.927434 240.176872 L 34.089234 242.664872 L 38.242634 245.166872 L 42.378834 247.696872 L 46.521934 250.216872 L 50.663734 252.737872 L 54.805834 255.258872 L 58.956334 257.765872 L 63.138134 260.219872 L 67.334434 262.648872 L 71.520134 265.096872 L 75.666334 267.609872 L 79.776034 270.183872 L 83.868934 272.783872 L 87.924134 275.440872 L 91.921034 278.185872 L 95.893534 280.966872 L 99.864134 283.749872 L 103.795634 286.586872 L 107.639634 289.541872 L 111.436634 292.556872 L 115.244634 295.558872 L 119.110634 298.484872 L 123.037634 301.328872 L 126.974634 304.159872 L 130.871634 307.044872 L 134.698634 310.021872 L 138.511634 313.017872 L 142.412634 315.896872 L 146.341634 318.737872 L 150.305634 321.530872" fill="none" id="12" stroke="#d55969" stroke-width="0.5" /><path d="M 63.596734 255.365872 L 67.298134 258.588872 L 71.002334 261.807872 L 74.707134 265.026872 L 78.421534 268.234872 L 82.347834 271.179872 L 86.308134 274.077872 L 90.269634 276.974872 L 94.231134 279.872872 L 98.192634 282.769872 L 102.133634 285.693872 L 106.022634 288.687872 L 109.888634 291.711872 L 113.805634 294.668872 L 117.813634 297.500872 L 121.888634 300.236872 L 125.982634 302.942872 L 130.077634 305.647872 L 134.171634 308.353872 L 138.266634 311.059872 L 142.360634 313.765872 L 146.464634 316.458872 L 150.602634 319.096872 L 154.783634 321.666872 L 158.975634 324.219872 L 163.159634 326.783872 L 167.307634 329.406872 L 171.403634 332.111872 L 175.521634 334.781872 L 179.745634 337.280872 L 183.974634 339.770872 L 188.199634 342.267872 L 192.451634 344.719872 L 196.688634 347.195872 L 200.925634 349.672872" fill="none" id="13" stroke="#d55969" stroke-width="0.5" /><path d="M 200.925634 349.672872 L 198.896634 348.730872 L 196.866634 347.788872 L 194.862634 346.793872 L 192.862634 345.790872 L 190.896634 344.723872 L 188.944634 343.629872 L 187.011634 342.504872 L 185.091634 341.354872 L 183.195634 340.168872 L 181.328634 338.934872 L 179.488634 337.663872 L 177.712634 336.302872 L 175.943634 334.932872 L 174.217634 333.508872 L 172.492634 332.084872 L 170.737634 330.696872 L 168.982634 329.308872 L 167.175634 327.989872 L 165.360634 326.681872 L 163.516634 325.414872 L 161.660634 324.164872 L 159.796634 322.927872 L 157.924634 321.701872 L 156.048634 320.483872 L 154.163634 319.276872 L 152.279634 318.070872 L 150.393634 316.865872 L 148.508634 315.661872 L 146.619634 314.462872 L 144.730634 313.262872" fill="none" id="14" stroke="#d55969" stroke-width="0.5" /><path d="M 26.620334 215.798872 L 26.148834 216.750872 L 25.677334 217.702872 L 25.258934 218.679872 L 24.840534 219.656872 L 24.481834 220.656872 L 24.123134 221.657872 L 23.843334 222.682872 L 23.563734 223.707872 L 23.355334 224.749872 L 23.147134 225.791872 L 23.020934 226.846872 L 22.895034 227.901872 L 22.846634 228.963872 L 22.798434 230.024872 L 22.844734 231.086872 L 22.891534 232.147872 L 23.035234 233.200872 L 23.179234 234.253872 L 23.422534 235.288872 L 23.666134 236.322872 L 24.007234 237.328872 L 24.348734 238.335872 L 24.766134 239.312872 L 25.184134 240.289872 L 25.673534 241.232872 L 26.163234 242.175872 L 26.697634 243.093872 L 27.232234 244.012872 L 27.808134 244.905872 L 28.384134 245.798872" fill="none" id="15" stroke="#64e4ff" stroke-width="0.5" /><path d="M 31.691134 238.853872 L 34.181234 243.151872 L 37.452134 246.869872 L 41.323434 249.990872 L 45.063634 253.270872 L 48.804434 256.548872 L 52.576434 259.791872 L 56.404834 262.967872 L 60.249034 266.123872 L 64.093834 269.280872 L 67.938634 272.436872 L 71.777134 275.599872 L 75.597334 278.785872 L 79.405434 281.986872 L 83.212034 285.188872 L 87.018634 288.390872 L 90.826734 291.590872 L 94.660134 294.760872 L 98.543834 297.868872 L 102.441634 300.958872 L 106.271634 304.130872 L 110.003634 307.420872 L 113.794634 310.637872 L 117.728634 313.680872 L 121.795634 316.541872 L 125.957634 319.265872 L 130.127634 321.977872 L 134.237634 324.778872 L 138.312634 327.631872 L 142.444634 330.401872 L 146.681634 333.006872 L 151.010634 335.456872 L 155.376634 337.840872 L 159.752634 340.205872 L 164.168634 342.494872 L 168.645634 344.661872 L 173.144634 346.784872 L 177.644634 348.902872 L 182.210634 350.870872 L 186.953634 352.327872 L 191.870634 352.905872 L 195.856634 350.627872 L 198.313634 346.338872 L 199.498634 341.517872 L 199.029634 336.577872" fill="none" id="16" stroke="#64e4ff" stroke-width="0.5" /><path d="M 29.077034 240.932872 L 32.527334 244.495872 L 35.962634 248.074872 L 39.609934 251.424872 L 43.379934 254.646872 L 47.106934 257.919872 L 50.878934 261.140872 L 54.707134 264.294872 L 58.558034 267.421872 L 62.410234 270.546872 L 66.262434 273.671872 L 70.114634 276.797872 L 73.966934 279.922872 L 77.836934 283.025872 L 81.775334 286.040872 L 85.735934 289.027872 L 89.718534 291.984872 L 93.736534 294.893872 L 97.769734 297.781872 L 101.766634 300.718872 L 105.667634 303.781872 L 109.530634 306.893872 L 113.489634 309.878872 L 117.558634 312.716872 L 121.669634 315.491872 L 125.868634 318.130872 L 130.155634 320.625872 L 134.490634 323.035872 L 138.899634 325.308872 L 143.324634 327.550872 L 147.749634 329.791872 L 152.174634 332.033872 L 156.599634 334.275872 L 161.029634 336.507872 L 165.487634 338.682872 L 169.950634 340.846872 L 174.403634 343.032872 L 178.872634 345.185872 L 183.375634 347.265872 L 187.961634 349.147872 L 192.628634 350.827872 L 197.449634 351.858872 L 202.260634 351.167872 L 205.594634 347.759872 L 206.399634 342.908872" fill="none" id="17" stroke="#64e4ff" stroke-width="0.5" /><path d="M 196.446634 354.318872 L 201.184634 355.481872 L 205.977634 356.388872 L 210.824634 356.931872 L 215.697634 357.156872 L 220.575634 357.176872 L 225.452634 357.104872 L 230.324634 356.853872 L 235.191634 356.521872 L 240.046634 356.059872 L 244.900634 355.567872 L 249.749634 355.032872 L 254.594634 354.462872 L 259.436634 353.874872 L 264.273634 353.239872 L 269.106634 352.576872 L 273.939634 351.909872 L 278.771634 351.243872 L 283.597634 350.531872 L 288.407634 349.721872 L 293.208634 348.857872 L 298.007634 347.981872 L 302.796634 347.050872 L 307.574634 346.067872 L 312.351634 345.078872 L 317.119634 344.050872 L 321.872634 342.950872 L 326.620634 341.829872 L 331.368634 340.709872 L 336.116634 339.588872 L 340.860634 338.454872 L 345.590634 337.260872 L 350.299634 335.988872 L 355.005634 334.702872 L 359.708634 333.404872 L 364.391634 332.038872 L 369.042634 330.568872 L 373.688634 329.080872 L 378.332634 327.588872 L 382.963634 326.053872 L 387.571634 324.451872 L 392.163634 322.806872" fill="none" id="18" stroke="#64e4ff" stroke-width="0.5" /><path d="M 200.190634 360.351872 L 204.188634 359.603872 L 208.218634 359.048872 L 212.273634 358.730872 L 216.339634 358.667872 L 220.407634 358.619872 L 224.474634 358.536872 L 228.536634 358.326872 L 232.590634 358.001872 L 236.633634 357.559872 L 240.663634 357.003872 L 244.684634 356.391872 L 248.704634 355.769872 L 252.724634 355.146872 L 256.743634 354.516872 L 260.753634 353.835872 L 264.748634 353.069872 L 268.735634 352.261872 L 272.713634 351.412872 L 276.676634 350.492872 L 280.626634 349.521872 L 284.573634 348.537872 L 288.520634 347.552872 L 292.467634 346.568872 L 296.407634 345.556872 L 300.314634 344.428872 L 304.170634 343.133872 L 307.990634 341.738872 L 311.745634 340.179872 L 315.371634 338.336872 L 318.903634 336.318872" fill="none" id="19" stroke="#64e4ff" stroke-width="0.5" /><path d="M 28.510034 242.703872 L 32.742034 245.228872 L 36.844834 247.957872 L 40.740134 250.974872 L 44.472334 254.190872 L 48.245834 257.359872 L 52.064234 260.474872 L 55.888934 263.581872 L 59.713734 266.688872 L 63.538434 269.795872 L 67.363234 272.902872 L 71.187934 276.009872 L 75.012634 279.116872 L 78.837434 282.223872 L 82.693934 285.290872 L 86.625034 288.261872 L 90.602234 291.170872 L 94.585534 294.071872 L 98.563434 296.979872 L 102.494634 299.950872 L 106.372634 302.990872 L 110.243634 306.038872 L 114.115634 309.087872 L 118.028634 312.081872 L 122.023634 314.966872 L 126.050634 317.804872 L 130.153634 320.533872 L 134.311634 323.177872 L 138.494634 325.782872 L 142.752634 328.260872 L 147.076634 330.625872 L 151.435634 332.916872 L 156.004634 334.761872 L 160.662634 336.365872 L 165.410634 337.685872 L 170.210634 338.798872" fill="none" id="20" stroke="#64e4ff" stroke-width="0.5" /><path d="M 113.076634 311.042872 L 115.754634 313.007872 L 118.432634 314.971872 L 121.110634 316.934872 L 123.790634 318.896872 L 126.511634 320.799872 L 129.282634 322.631872 L 132.071634 324.432872 L 134.861634 326.234872 L 137.651634 328.036872 L 140.441634 329.838872 L 143.231634 331.639872 L 146.028634 333.430872 L 148.858634 335.167872 L 151.716634 336.859872 L 154.582634 338.536872 L 157.458634 340.198872 L 160.351634 341.829872 L 163.258634 343.434872 L 166.169634 345.034872 L 169.079634 346.634872 L 171.989634 348.234872 L 174.899634 349.835872 L 177.809634 351.435872 L 180.722634 353.029872 L 183.673634 354.551872 L 186.656634 356.011872 L 189.693634 357.338872 L 192.871634 358.288872 L 196.135634 358.896872 L 199.440634 359.221872" fill="none" id="21" stroke="#64e4ff" stroke-width="0.5" /><path d="M 288.478634 124.286872 L 287.524634 129.146872 L 286.659634 134.023872 L 285.980634 138.929872 L 285.583634 143.865872 L 285.128634 148.797872 L 284.672634 153.729872 L 284.217634 158.661872 L 283.763634 163.593872 L 283.356634 168.529872 L 283.002634 173.469872 L 282.653634 178.409872 L 282.304634 183.349872 L 281.954634 188.290872 L 281.618634 193.231872 L 281.380634 198.178872 L 281.200634 203.128872 L 281.028634 208.077872 L 280.856634 213.027872 L 280.684634 217.977872 L 280.579634 222.929872 L 280.545634 227.881872 L 280.525634 232.834872 L 280.505634 237.787872 L 280.485634 242.739872 L 280.465634 247.692872 L 280.475634 252.645872 L 280.537634 257.597872 L 280.625634 262.549872 L 280.818634 267.498872 L 281.053634 272.445872 L 281.341634 277.390872 L 281.679634 282.331872 L 282.028634 287.271872 L 282.378634 292.212872 L 282.729634 297.152872 L 283.130634 302.088872 L 283.594634 307.019872 L 284.079634 311.948872 L 284.563634 316.877872 L 285.048634 321.806872 L 285.556634 326.733872 L 286.142634 331.651872 L 286.778634 336.563872 L 287.418634 341.474872 L 288.059634 346.385872 L 288.699634 351.296872 L 289.388634 356.201872 L 290.150634 361.094872 L 290.942634 365.984872 L 291.734634 370.872872 L 292.527634 375.761872 L 293.322634 380.650872 L 294.151634 385.533872 L 295.023634 390.408872 L 295.905634 395.282872 L 296.788634 400.155872 L 297.671634 405.029872 L 298.553634 409.902872 L 299.436634 414.775872 L 300.319634 419.649872 L 301.202634 424.522872 L 302.084634 429.396872 L 302.967634 434.269872 L 303.853634 439.142872 L 304.769634 444.009872 L 305.737634 448.867872 L 306.709634 453.723872 L 307.681634 458.579872 L 308.653634 463.436872 L 309.635634 468.290872 L 310.663634 473.135872 L 311.747634 477.968872 L 312.843634 482.798872 L 313.939634 487.628872 L 315.034634 492.458872 L 316.130634 497.288872 L 317.226634 502.118872 L 318.322634 506.948872 L 319.431634 511.775872 L 320.594634 516.589872 L 321.784634 521.397872 L 322.975634 526.204872 L 324.166634 531.012872 L 325.357634 535.819872 L 326.557634 540.624872 L 327.775634 545.425872 L 328.992634 550.226872 L 330.209634 555.027872 L 331.426634 559.827872 L 332.644634 564.628872 L 333.861634 569.429872 L 335.083634 574.229872 L 336.361634 579.014872 L 337.661634 583.793872 L 338.961634 588.572872 L 340.262634 593.351872 L 341.562634 598.130872 L 342.863634 602.909872 L 344.163634 607.688872" fill="none" id="22" stroke="#e68e54" stroke-width="0.5" /><path d="M 273.265634 306.459872 L 273.597634 311.402872 L 273.986634 316.341872 L 274.488634 321.269872 L 274.997634 326.197872 L 275.392634 331.135872 L 275.778634 336.074872 L 276.164634 341.012872 L 276.559634 345.950872 L 277.004634 350.884872 L 277.456634 355.817872 L 277.909634 360.751872 L 278.355634 365.684872 L 278.740634 370.623872 L 279.091634 375.565872 L 279.437634 380.506872 L 279.782634 385.448872 L 280.128634 390.390872 L 280.496634 395.330872 L 280.904634 400.267872 L 281.330634 405.203872 L 281.759634 410.138872 L 282.188634 415.073872 L 282.662634 420.004872 L 283.193634 424.930872 L 283.742634 429.853872 L 284.315634 434.774872 L 284.961634 439.685872 L 285.661634 444.589872 L 286.368634 449.493872 L 287.115634 454.390872 L 287.932634 459.276872 L 288.820634 464.149872 L 289.778634 469.010872 L 290.757634 473.866872 L 291.742634 478.721872 L 292.783634 483.564872 L 293.915634 488.387872 L 295.063634 493.206872 L 296.211634 498.025872 L 297.358634 502.844872 L 298.506634 507.663872 L 299.654634 512.482872 L 300.802634 517.301872 L 301.950634 522.120872 L 303.102634 526.938872 L 304.284634 531.749872 L 305.534634 536.543872 L 306.797634 541.333872 L 308.061634 546.123872 L 309.325634 550.912872 L 310.597634 555.700872 L 311.938634 560.469872 L 313.333634 565.223872 L 314.728634 569.976872 L 316.122634 574.729872 L 317.517634 579.483872" fill="none" id="23" stroke="#eed973" stroke-width="0.5" /><path d="M 274.588634 116.940872 L 274.300634 121.906872 L 273.948634 126.869872 L 273.630634 131.834872 L 273.438634 136.805872 L 273.118634 141.770872 L 272.797634 146.734872 L 272.476634 151.699872 L 272.156634 156.664872 L 271.835634 161.628872 L 271.514634 166.593872 L 271.193634 171.558872 L 270.879634 176.523872 L 270.621634 181.491872 L 270.402634 186.462872 L 270.189634 191.432872 L 269.975634 196.402872 L 269.766634 201.373872 L 269.587634 206.345872 L 269.460634 211.318872 L 269.351634 216.292872 L 269.248634 221.266872 L 269.165634 226.240872 L 269.122634 231.215872 L 269.099634 236.190872 L 269.079634 241.165872 L 269.060634 246.140872 L 269.040634 251.115872 L 269.020634 256.090872 L 269.000634 261.065872 L 268.980634 266.040872 L 268.974634 271.015872 L 269.016634 275.990872 L 269.106634 280.964872 L 269.240634 285.937872 L 269.427634 290.909872 L 269.647634 295.879872 L 269.873634 300.849872 L 270.099634 305.819872 L 270.336634 310.788872 L 270.606634 315.756872 L 270.906634 320.722872 L 271.223634 325.687872 L 271.556634 330.651872 L 271.902634 335.614872 L 272.277634 340.575872 L 272.708634 345.531872 L 273.177634 350.484872 L 273.654634 355.436872 L 274.131634 360.388872 L 274.611634 365.340872 L 275.117634 370.289872 L 275.677634 375.232872 L 276.277634 380.171872 L 276.888634 385.108872 L 277.498634 390.046872 L 278.109634 394.983872 L 278.719634 399.921872 L 279.330634 404.858872 L 279.940634 409.796872 L 280.562634 414.732872 L 281.221634 419.663872 L 281.918634 424.589872 L 282.625634 429.513872 L 283.333634 434.438872 L 284.040634 439.362872 L 284.752634 444.286872 L 285.490634 449.206872 L 286.265634 454.121872 L 287.050634 459.033872 L 287.836634 463.946872 L 288.621634 468.859872 L 289.409634 473.771872 L 290.218634 478.680872 L 291.068634 483.581872 L 291.929634 488.481872 L 292.791634 493.381872 L 293.653634 498.281872 L 294.514634 503.181872 L 295.376634 508.081872 L 296.238634 512.981872 L 297.100634 517.880872 L 297.962634 522.780872 L 298.823634 527.680872 L 299.685634 532.580872 L 300.547634 537.480872 L 301.409634 542.380872 L 302.271634 547.279872 L 303.132634 552.179872 L 303.994634 557.079872 L 304.856634 561.979872" fill="none" id="24" stroke="#008bd4" stroke-width="0.5" /><path d="M 279.470634 483.318872 L 280.422634 487.079872 L 281.375634 490.840872 L 282.330634 494.601872 L 283.296634 498.359872 L 284.315634 502.103872 L 285.349634 505.843872 L 286.377634 509.585872 L 287.372634 513.335872 L 288.328634 517.096872 L 289.267634 520.861872 L 290.205634 524.626872 L 291.142634 528.391872 L 292.088634 532.154872 L 293.066634 535.909872 L 294.082634 539.654872 L 295.128634 543.391872 L 296.223634 547.113872 L 297.385634 550.815872 L 298.590634 554.503872 L 299.806634 558.188872 L 301.021634 561.873872 L 302.237634 565.558872 L 303.456634 569.241872 L 304.704634 572.915872 L 306.035634 576.560872 L 307.474634 580.163872 L 308.990634 583.735872 L 310.642634 587.246872 L 312.460634 590.673872 L 314.399634 594.034872" fill="none" id="25" stroke="#fdb968" stroke-width="0.5" /><path d="M 255.187634 128.916872 L 255.146634 133.883872 L 255.063634 138.849872 L 255.007634 143.816872 L 255.054634 148.782872 L 255.008634 153.749872 L 254.892634 158.715872 L 254.634634 163.675872 L 254.339634 168.633872 L 254.041634 173.591872 L 253.761634 178.550872 L 253.517634 183.511872 L 253.284634 188.472872 L 253.051634 193.434872 L 252.819634 198.395872 L 252.586634 203.357872 L 252.353634 208.318872 L 252.136634 213.280872 L 252.000634 218.246872 L 251.918634 223.212872 L 251.845634 228.178872 L 251.773634 233.145872 L 251.700634 238.111872 L 251.628634 243.077872 L 251.566634 248.044872 L 251.555634 253.011872 L 251.574634 257.978872 L 251.598634 262.945872 L 251.623634 267.912872 L 251.657634 272.878872 L 251.765634 277.844872 L 251.935634 282.808872 L 252.132634 287.771872 L 252.378634 292.732872 L 252.652634 297.691872 L 252.929634 302.651872 L 253.206634 307.610872 L 253.484634 312.569872 L 253.795634 317.526872 L 254.173634 322.479872 L 254.586634 327.428872 L 255.025634 332.376872 L 255.515634 337.319872 L 256.033634 342.258872 L 256.569634 347.196872 L 257.154634 352.129872 L 257.771634 357.057872 L 258.388634 361.986872 L 259.005634 366.914872 L 259.623634 371.842872 L 260.244634 376.770872 L 260.919634 381.691872 L 261.660634 386.603872 L 262.405634 391.513872 L 263.149634 396.424872 L 263.894634 401.335872 L 264.641634 406.245872 L 265.414634 411.152872 L 266.239634 416.050872 L 267.088634 420.944872 L 267.936634 425.837872 L 268.785634 430.731872 L 269.634634 435.625872 L 270.482634 440.519872 L 271.331634 445.413872 L 272.180634 450.307872 L 273.036634 455.199872 L 273.934634 460.085872 L 274.890634 464.959872 L 275.845634 469.833872 L 276.800634 474.707872 L 277.755634 479.581872 L 278.713634 484.455872 L 279.688634 489.325872 L 280.688634 494.191872 L 281.693634 499.055872 L 282.698634 503.919872 L 283.703634 508.783872 L 284.708634 513.647872 L 285.713634 518.511872 L 286.718634 523.376872 L 287.728634 528.239872 L 288.781634 533.093872 L 289.896634 537.933872 L 291.016634 542.772872 L 292.136634 547.611872 L 293.257634 552.450872 L 294.377634 557.289872 L 295.497634 562.128872 L 296.618634 566.967872 L 297.738634 571.806872" fill="none" id="26" stroke="#6f73bc" stroke-width="0.5" /><path d="M 254.557634 135.837872 L 255.049634 133.768872 L 255.553634 131.702872 L 256.096634 129.645872 L 256.659634 127.594872 L 257.247634 125.550872 L 257.909634 123.529872 L 258.607634 121.520872 L 259.403634 119.548872 L 260.217634 117.583872 L 261.082634 115.640872 L 262.020634 113.734872 L 263.083634 111.891872 L 264.299634 110.153872 L 265.620634 108.486872 L 267.187634 107.056872 L 268.829634 105.715872 L 270.811634 104.945872 L 272.835634 104.327872 L 274.937634 104.002872 L 277.045634 104.000872 L 279.158634 104.242872 L 281.129634 105.005872 L 283.053634 105.903872 L 284.744634 107.192872 L 286.334634 108.588872 L 287.689634 110.228872 L 288.878634 111.981872 L 289.926634 113.833872 L 290.761634 115.784872 L 291.533634 117.766872" fill="none" id="27" stroke="#6f73bc" stroke-width="0.5" /><path d="M 255.124634 361.877872 L 255.765634 366.826872 L 256.474634 371.767872 L 257.275634 376.693872 L 258.138634 381.609872 L 258.950634 386.533872 L 259.756634 391.459872 L 260.541634 396.387872 L 261.221634 401.332872 L 261.879634 406.279872 L 262.535634 411.227872 L 263.192634 416.174872 L 263.854634 421.121872 L 264.553634 426.063872 L 265.311634 430.996872 L 266.107634 435.923872 L 266.944634 440.843872 L 267.840634 445.753872 L 268.763634 450.658872 L 269.728634 455.555872 L 270.773634 460.435872 L 271.856634 465.307872 L 272.939634 470.179872 L 274.024634 475.051872 L 275.132634 479.917872 L 276.286634 484.773872 L 277.473634 489.621872 L 278.669634 494.466872 L 279.864634 499.312872 L 281.059634 504.158872 L 282.255634 509.003872 L 283.450634 513.849872 L 284.646634 518.695872 L 285.852634 523.538872 L 287.113634 528.367872 L 288.425634 533.182872 L 289.751634 537.994872 L 291.100634 542.799872 L 292.518634 547.584872 L 294.000634 552.350872 L 295.557634 557.092872 L 297.125634 561.831872 L 298.714634 566.562872" fill="none" id="28" stroke="#bee481" stroke-width="0.5" /><path d="M 357.683634 606.016872 L 358.223634 606.277872 L 358.764634 606.534872 L 359.319634 606.758872 L 359.876634 606.980872 L 360.437634 607.190872 L 361.003634 607.383872 L 361.581634 607.541872 L 362.163634 607.678872 L 362.752634 607.790872 L 363.342634 607.890872 L 363.934634 607.981872 L 364.518634 607.918872 L 365.097634 607.763872 L 365.658634 607.554872 L 366.192634 607.302872 L 366.604634 606.867872 L 367.008634 606.425872 L 367.383634 605.958872 L 367.742634 605.480872 L 368.067634 604.976872 L 368.368634 604.459872 L 368.639634 603.925872 L 368.892634 603.382872 L 369.132634 602.833872 L 369.378634 602.287872 L 369.626634 601.742872 L 369.874634 601.197872 L 370.123634 600.652872 L 370.620634 599.562872" fill="none" id="29" stroke="#bbabff" stroke-width="0.5" /><path d="M 301.612634 576.672872 L 303.124634 575.893872 L 304.633634 575.111872 L 306.127634 574.300872 L 307.615634 573.477872 L 309.085634 572.621872 L 310.545634 571.750872 L 311.990634 570.854872 L 313.447634 569.978872 L 314.915634 569.120872 L 316.397634 568.286872 L 317.887634 567.467872 L 319.385634 566.663872 L 320.886634 565.864872 L 322.396634 565.081872 L 323.906634 564.300872 L 325.439634 563.562872 L 326.974634 562.832872 L 328.529634 562.144872 L 330.087634 561.464872 L 331.656634 560.807872 L 333.230634 560.164872 L 334.814634 559.545872 L 336.404634 558.943872 L 337.999634 558.356872 L 339.597634 557.774872 L 341.197634 557.196872 L 342.796634 556.619872 L 344.395634 556.042872 L 345.996634 555.467872 L 347.596634 554.892872" fill="none" id="30" stroke="#f1b9ff" stroke-width="0.5" /><path d="M 302.368634 563.562872 L 302.219634 564.438872 L 302.074634 565.315872 L 302.024634 566.203872 L 301.997634 567.090872 L 302.120634 567.970872 L 302.278634 568.843872 L 302.567634 569.684872 L 302.865634 570.521872 L 303.204634 571.343872 L 303.552634 572.161872 L 303.951634 572.955872 L 304.361634 573.744872 L 304.838634 574.494872 L 305.321634 575.241872 L 305.845634 575.959872 L 306.374634 576.674872 L 306.940634 577.359872 L 307.510634 578.042872 L 308.113634 578.695872 L 308.719634 579.345872 L 309.359634 579.963872 L 310.001634 580.578872 L 310.683634 581.149872 L 311.366634 581.717872 L 312.086634 582.240872 L 312.806634 582.761872 L 313.566634 583.223872 L 314.327634 583.683872 L 315.911634 584.491872" fill="none" id="31" stroke="#989c37" stroke-width="0.5" /><path d="M 306.431634 578.089872 L 305.035634 575.135872 L 303.566634 572.216872 L 302.014634 569.342872 L 300.352634 566.529872 L 298.637634 563.748872 L 296.913634 560.973872 L 295.209634 558.185872 L 293.560634 555.364872 L 291.959634 552.516872 L 290.406634 549.641872 L 288.913634 546.735872 L 287.451634 543.813872 L 285.997634 540.886872 L 284.556634 537.954872 L 283.156634 535.002872 L 281.817634 532.022872 L 280.534634 529.017872 L 279.274634 526.002872 L 278.022634 522.984872 L 276.810634 519.950872 L 275.676634 516.885872 L 274.564634 513.813872 L 273.503634 510.723872 L 272.460634 507.626872 L 271.419634 504.529872 L 270.381634 501.431872 L 269.371634 498.324872 L 268.414634 495.199872 L 267.499634 492.063872 L 266.620634 488.916872" fill="none" id="32" stroke="#989c37" stroke-width="0.5" /><path d="M 329.706634 553.919872 L 329.961634 554.700872 L 330.215634 555.481872 L 330.478634 556.260872 L 330.741634 557.038872 L 331.017634 557.812872 L 331.293634 558.585872 L 331.593634 559.350872 L 331.893634 560.115872 L 332.216634 560.870872 L 332.540634 561.625872 L 332.926634 562.350872 L 333.314634 563.075872 L 333.733634 563.782872 L 334.152634 564.488872 L 334.610634 565.170872 L 335.068634 565.852872 L 335.586634 566.490872 L 336.105634 567.126872 L 336.661634 567.731872 L 337.217634 568.336872 L 337.872634 568.832872 L 338.528634 569.326872 L 339.214634 569.778872 L 339.900634 570.230872 L 340.632634 570.603872 L 341.364634 570.976872 L 342.127634 571.280872 L 342.890634 571.585872 L 344.446634 572.113872" fill="none" id="33" stroke="#bb568c" stroke-width="0.5" /><path d="M 388.584634 590.741872 L 389.112634 590.953872 L 389.640634 591.165872 L 390.172634 591.367872 L 390.704634 591.568872 L 391.240634 591.761872 L 391.775634 591.954872 L 392.324634 592.104872 L 392.873634 592.252872 L 393.421634 592.407872 L 393.969634 592.561872 L 394.535634 592.589872 L 395.104634 592.603872 L 395.667634 592.521872 L 396.225634 592.422872 L 396.715634 592.131872 L 397.197634 591.831872 L 397.618634 591.449872 L 398.034634 591.061872 L 398.394634 590.620872 L 398.753634 590.179872 L 399.101634 589.728872 L 399.447634 589.277872 L 399.765634 588.805872 L 400.083634 588.333872 L 400.391634 587.855872 L 400.699634 587.376872 L 401.007634 586.897872 L 401.315634 586.419872 L 401.621634 585.939872 L 401.927634 585.459872" fill="none" id="34" stroke="#cfe395" stroke-width="0.5" /><path d="M 445.360634 200.373872 L 445.595634 205.366872 L 445.806634 210.361872 L 446.035634 215.355872 L 446.378634 220.343872 L 446.550634 225.339872 L 446.601634 230.338872 L 446.651634 235.337872 L 446.700634 240.336872 L 446.538634 245.332872 L 446.194634 250.320872 L 445.747634 255.299872 L 445.294634 260.277872 L 444.731634 265.245872 L 444.169634 270.212872 L 443.607634 275.180872 L 443.044634 280.147872 L 442.448634 285.111872 L 441.813634 290.070872 L 441.177634 295.028872 L 440.541634 299.987872 L 439.829634 304.935872 L 439.107634 309.882872 L 438.385634 314.829872 L 437.664634 319.776872 L 436.942634 324.723872 L 436.221634 329.669872 L 435.499634 334.616872 L 434.778634 339.563872 L 434.056634 344.510872 L 433.334634 349.457872 L 432.550634 354.394872 L 431.693634 359.319872 L 430.827634 364.243872 L 429.962634 369.167872 L 429.096634 374.091872 L 428.154634 379.000872 L 427.144634 383.896872 L 426.135634 388.793872 L 425.126634 393.689872 L 424.116634 398.585872 L 423.107634 403.482872 L 422.098634 408.378872 L 421.088634 413.274872 L 420.045634 418.163872 L 418.989634 423.050872 L 417.934634 427.936872 L 416.878634 432.823872 L 415.823634 437.709872 L 414.758634 442.594872 L 413.662634 447.471872 L 412.565634 452.349872 L 411.469634 457.226872 L 410.372634 462.104872 L 409.275634 466.981872 L 408.138634 471.849872 L 406.960634 476.708872 L 405.779634 481.566872 L 404.598634 486.423872 L 403.417634 491.281872 L 402.236634 496.139872 L 401.034634 500.991872 L 399.812634 505.839872 L 398.589634 510.686872 L 397.333634 515.525872 L 396.033634 520.352872 L 394.734634 525.180872 L 393.435634 530.007872 L 392.135634 534.835872 L 390.836634 539.662872 L 389.513634 544.483872 L 388.145634 549.291872 L 386.769634 554.098872 L 385.394634 558.904872 L 384.018634 563.710872 L 382.643634 568.516872 L 381.267634 573.323872 L 379.891634 578.129872 L 378.516634 582.935872 L 377.140634 587.741872 L 375.765634 592.548872 L 374.389634 597.354872 L 373.013634 602.160872" fill="none" id="35" stroke="#cfe395" stroke-width="0.5" /><path d="M 472.068634 207.885872 L 472.813634 212.812872 L 473.322634 217.769872 L 473.531634 222.748872 L 473.610634 227.731872 L 473.632634 232.714872 L 473.654634 237.698872 L 473.675634 242.681872 L 473.679634 247.664872 L 473.489634 252.644872 L 473.126634 257.614872 L 472.673634 262.576872 L 472.144634 267.532872 L 471.583634 272.483872 L 470.971634 277.429872 L 470.339634 282.372872 L 469.674634 287.311872 L 468.945634 292.241872 L 468.200634 297.168872 L 467.455634 302.096872 L 466.709634 307.023872 L 465.964634 311.950872 L 465.219634 316.878872 L 464.473634 321.805872 L 463.728634 326.733872 L 462.982634 331.660872 L 462.237634 336.587872 L 461.491634 341.515872 L 460.746634 346.442872 L 460.001634 351.369872 L 459.255634 356.297872 L 458.510634 361.224872 L 457.764634 366.151872 L 457.015634 371.078872 L 456.247634 376.002872 L 455.446634 380.921872 L 454.629634 385.837872 L 453.809634 390.752872 L 452.989634 395.668872 L 452.170634 400.583872 L 451.343634 405.498872 L 450.492634 410.408872 L 449.606634 415.312872 L 448.684634 420.209872 L 447.723634 425.099872 L 446.738634 429.984872 L 445.750634 434.869872 L 444.756634 439.752872 L 443.736634 444.630872 L 442.683634 449.501872 L 441.614634 454.368872 L 440.545634 459.235872 L 439.475634 464.103872 L 438.405634 468.970872 L 437.335634 473.837872 L 436.246634 478.700872 L 435.100634 483.550872 L 433.903634 488.387872 L 432.669634 493.216872 L 431.387634 498.031872 L 430.071634 502.838872 L 428.712634 507.632872 L 427.291634 512.409872 L 425.836634 517.175872 L 424.313634 521.920872 L 422.734634 526.646872 L 421.144634 531.369872 L 419.554634 536.092872 L 417.961634 540.814872 L 416.342634 545.527872 L 414.658634 550.218872 L 412.960634 554.903872 L 411.261634 559.588872 L 409.561634 564.272872 L 407.846634 568.951872 L 406.067634 573.606872 L 404.242634 578.243872 L 402.411634 582.878872 L 400.580634 587.513872 L 398.745634 592.146872 L 396.843634 596.753872 L 394.846634 601.318872 L 392.831634 605.876872 L 390.812634 610.432872 L 388.794634 614.989872 L 386.777634 619.546872" fill="none" id="36" stroke="#cfe395" stroke-width="0.5" /><path d="M 476.194634 186.908872 L 475.949634 190.215872 L 475.763634 193.526872 L 475.666634 196.840872 L 475.630634 200.156872 L 475.611634 203.472872 L 475.594634 206.788872 L 475.576634 210.104872 L 475.558634 213.420872 L 475.540634 216.736872 L 475.522634 220.052872 L 475.504634 223.367872 L 475.454634 226.683872 L 475.298634 229.995872 L 475.015634 233.298872 L 474.654634 236.594872 L 474.264634 239.887872 L 473.856634 243.178872 L 473.420634 246.465872 L 472.960634 249.749872 L 472.492634 253.032872 L 472.025634 256.315872 L 471.557634 259.598872 L 471.090634 262.881872 L 470.622634 266.164872 L 470.154634 269.447872 L 469.687634 272.729872 L 469.219634 276.012872 L 468.752634 279.295872 L 468.284634 282.578872 L 467.817634 285.861872" fill="none" id="37" stroke="#cfe395" stroke-width="0.5" /><path d="M 446.336634 208.451872 L 446.116634 205.918872 L 445.987634 203.381872 L 445.949634 200.838872 L 446.152634 198.304872 L 446.478634 195.785872 L 446.930634 193.283872 L 447.551634 190.818872 L 448.259634 188.377872 L 449.057634 185.963872 L 450.010634 183.606872 L 451.059634 181.292872 L 452.211634 179.026872 L 453.488634 176.827872 L 454.883634 174.707872 L 456.411634 172.675872 L 458.285634 170.958872 L 460.351634 169.518872 L 462.627634 168.384872 L 465.124634 167.919872 L 467.592634 168.041872 L 470.022634 168.791872 L 472.144634 170.186872 L 473.880634 171.970872 L 475.252634 174.111872 L 476.434634 176.362872 L 477.456634 178.684872 L 478.325634 181.073872 L 478.974634 183.532872 L 479.522634 186.012872 L 479.974634 188.514872" fill="none" id="38" stroke="#cfe395" stroke-width="0.5" /><path d="M 475.470634 199.995872 L 475.683634 198.822872 L 475.896634 197.649872 L 476.083634 196.472872 L 476.269634 195.295872 L 476.423634 194.113872 L 476.571634 192.930872 L 476.693634 191.744872 L 476.807634 190.558872 L 476.902634 189.370872 L 476.989634 188.181872 L 477.041634 186.990872 L 477.076634 185.799872 L 477.094634 184.607872 L 477.099634 183.415872 L 477.074634 182.224872 L 477.022634 181.033872 L 476.932634 179.845872 L 476.796634 178.661872 L 476.619634 177.483872 L 476.379634 176.316872 L 476.111634 175.155872 L 475.788634 174.008872 L 475.454634 172.864872 L 475.090634 171.728872 L 474.709634 170.599872 L 474.252634 169.499872 L 473.783634 168.404872 L 473.231634 167.347872 L 472.676634 166.293872 L 472.057634 165.274872 L 471.439634 164.255872" fill="none" id="39" stroke="#cfe395" stroke-width="0.5" /><path d="M 442.872634 212.940872 L 443.234634 210.885872 L 443.577634 208.828872 L 443.885634 206.765872 L 444.143634 204.695872 L 444.377634 202.623872 L 444.537634 200.543872 L 444.742634 198.468872 L 445.027634 196.402872 L 445.417634 194.354872 L 445.855634 192.314872 L 446.293634 190.275872 L 446.780634 188.248872 L 447.360634 186.244872 L 448.019634 184.266872 L 448.717634 182.300872 L 449.568634 180.396872 L 450.454634 178.508872 L 451.410634 176.655872 L 452.510634 174.886872 L 453.683634 173.161872 L 455.249634 171.784872 L 456.944634 170.620872 L 458.894634 169.879872 L 460.935634 169.612872 L 463.020634 169.580872 L 465.036634 170.117872 L 467.007634 170.776872 L 468.890634 171.672872 L 470.664634 172.759872 L 472.383634 173.940872" fill="none" id="40" stroke="#cfe395" stroke-width="0.5" /><path d="M 449.108634 203.987872 L 449.016634 201.873872 L 448.959634 199.759872 L 449.061634 197.645872 L 449.261634 195.542872 L 449.637634 193.460872 L 450.129634 191.405872 L 450.726634 189.375872 L 451.385634 187.364872 L 452.072634 185.363872 L 452.820634 183.383872 L 453.579634 181.408872 L 454.412634 179.463872 L 455.261634 177.525872 L 456.183634 175.620872 L 457.270634 173.824872 L 458.661634 172.229872 L 460.295634 170.930872 L 462.130634 169.877872 L 464.178634 169.579872 L 466.293634 169.518872 L 468.400634 169.712872 L 470.493634 169.976872 L 472.487634 170.684872 L 474.258634 171.691872 L 475.503634 173.402872 L 476.574634 175.215872 L 477.451634 177.141872 L 478.052634 179.159872 L 478.503634 181.226872 L 478.682634 183.331872 L 478.809634 185.444872" fill="none" id="41" stroke="#cfe395" stroke-width="0.5" /><path d="M 478.903634 177.601872 L 478.743634 180.560872 L 478.616634 183.520872 L 478.533634 186.482872 L 478.492634 189.444872 L 478.477634 192.407872 L 478.463634 195.370872 L 478.448634 198.333872 L 478.396634 201.296872 L 478.299634 204.257872 L 478.169634 207.217872 L 478.019634 210.177872 L 477.841634 213.134872 L 477.574634 216.085872 L 477.262634 219.032872 L 476.907634 221.973872 L 476.512634 224.910872 L 476.085634 227.842872 L 475.651634 230.773872 L 475.218634 233.704872 L 474.785634 236.636872 L 474.349634 239.566872 L 473.902634 242.495872 L 473.434634 245.421872 L 472.938634 248.343872 L 472.425634 251.261872 L 471.913634 254.179872 L 471.401634 257.098872 L 470.888634 260.016872 L 470.376634 262.935872 L 469.864634 265.853872" fill="none" id="42" stroke="#cfe395" stroke-width="0.5" /><path d="M 441.454634 206.420872 L 441.488634 211.364872 L 441.596634 216.306872 L 441.842634 221.244872 L 442.114634 226.181872 L 442.226634 231.123872 L 442.274634 236.067872 L 442.281634 241.011872 L 442.286634 245.955872 L 442.291634 250.898872 L 442.296634 255.842872 L 442.301634 260.786872 L 442.243634 265.730872 L 442.073634 270.671872 L 441.739634 275.603872 L 441.371634 280.533872 L 441.003634 285.464872 L 440.629634 290.393872 L 440.211634 295.320872 L 439.745634 300.241872 L 439.268634 305.162872 L 438.780634 310.082872 L 438.252634 314.998872 L 437.709634 319.912872 L 437.165634 324.825872 L 436.602634 329.737872 L 435.995634 334.644872 L 435.372634 339.548872 L 434.748634 344.452872 L 434.125634 349.357872 L 433.501634 354.261872 L 432.869634 359.165872 L 432.179634 364.060872 L 431.447634 368.949872 L 430.709634 373.838872 L 429.972634 378.727872 L 429.209634 383.611872 L 428.383634 388.486872 L 427.522634 393.354872 L 426.661634 398.222872 L 425.799634 403.090872 L 424.926634 407.957872 L 424.026634 412.818872 L 423.110634 417.676872 L 422.194634 422.534872 L 421.278634 427.393872 L 420.355634 432.250872 L 419.413634 437.103872 L 418.455634 441.953872 L 417.495634 446.803872 L 416.535634 451.653872 L 415.575634 456.503872 L 414.616634 461.352872 L 413.656634 466.202872 L 412.691634 471.051872 L 411.705634 475.896872 L 410.688634 480.734872 L 409.663634 485.570872 L 408.637634 490.407872 L 407.612634 495.243872 L 406.587634 500.079872 L 405.561634 504.916872 L 404.536634 509.752872 L 403.510634 514.588872 L 402.485634 519.425872 L 401.460634 524.261872 L 400.434634 529.098872 L 399.409634 533.934872 L 398.383634 538.770872 L 397.357634 543.606872 L 396.319634 548.440872 L 395.243634 553.266872 L 394.148634 558.087872 L 393.054634 562.908872 L 391.959634 567.729872 L 390.865634 572.550872 L 389.770634 577.371872 L 388.675634 582.193872 L 387.581634 587.014872 L 386.486634 591.835872 L 385.391634 596.656872" fill="none" id="43" stroke="#cfe395" stroke-width="0.5" /><path d="M 456.982634 193.617872 L 457.636634 198.564872 L 458.026634 203.539872 L 458.185634 208.526872 L 458.417634 213.511872 L 458.471634 218.501872 L 458.524634 223.491872 L 458.575634 228.481872 L 458.606634 233.471872 L 458.568634 238.461872 L 458.523634 243.451872 L 458.479634 248.441872 L 458.399634 253.430872 L 458.097634 258.411872 L 457.743634 263.389872 L 457.370634 268.365872 L 456.913634 273.334872 L 456.405634 278.298872 L 455.885634 283.262872 L 455.337634 288.221872 L 454.715634 293.173872 L 454.060634 298.120872 L 453.401634 303.066872 L 452.742634 308.013872 L 452.081634 312.959872 L 451.399634 317.903872 L 450.672634 322.839872 L 449.917634 327.772872 L 449.157634 332.704872 L 448.398634 337.637872 L 447.638634 342.569872 L 446.879634 347.501872 L 446.119634 352.433872 L 445.358634 357.365872 L 444.587634 362.295872 L 443.796634 367.222872 L 442.989634 372.147872 L 442.178634 377.070872 L 441.367634 381.994872 L 440.556634 386.918872 L 439.745634 391.842872 L 438.934634 396.766872 L 438.123634 401.690872 L 437.313634 406.614872 L 436.502634 411.538872 L 435.691634 416.462872 L 434.868634 421.384872 L 434.005634 426.299872 L 433.095634 431.205872 L 432.165634 436.108872 L 431.233634 441.010872 L 430.292634 445.911872 L 429.303634 450.802872 L 428.242634 455.678872 L 427.150634 460.548872 L 426.056634 465.416872 L 424.960634 470.285872 L 423.841634 475.148872 L 422.668634 479.998872 L 421.466634 484.842872 L 420.259634 489.684872 L 419.052634 494.526872 L 417.831634 499.364872 L 416.568634 504.192872 L 415.266634 509.010872 L 413.956634 513.825872 L 412.645634 518.640872 L 411.329634 523.453872 L 409.979634 528.257872 L 408.586634 533.049872 L 407.165634 537.833872 L 405.689634 542.600872 L 404.175634 547.355872 L 402.656634 552.108872 L 401.136634 556.861872 L 399.602634 561.610872 L 397.955634 566.320872 L 396.239634 571.006872 L 394.515634 575.689872 L 392.791634 580.372872 L 391.061634 585.053872 L 389.228634 589.694872 L 387.354634 594.319872 L 385.468634 598.939872 L 383.585634 603.560872 L 381.706634 608.184872" fill="none" id="44" stroke="#cfe395" stroke-width="0.5" /><path d="M 27.281734 212.538872 L 31.611934 214.840872 L 35.894734 217.230872 L 40.106634 219.742872 L 44.258834 222.351872 L 48.375534 225.016872 L 52.489234 227.686872 L 56.603034 230.356872 L 60.716834 233.026872 L 64.830534 235.696872 L 68.944334 238.365872 L 73.058034 241.035872 L 77.171834 243.705872 L 81.285634 246.375872 L 85.399334 249.045872 L 89.509234 251.720872 L 93.586134 254.446872 L 97.642434 257.202872 L 101.673634 259.995872 L 105.657634 262.855872 L 109.615634 265.751872 L 113.587634 268.628872 L 117.588634 271.463872 L 121.603634 274.280872 L 125.617634 277.096872 L 129.637634 279.905872 L 133.684634 282.676872 L 137.759634 285.405872 L 141.841634 288.123872 L 145.961634 290.783872 L 150.139634 293.351872 L 154.343634 295.876872 L 158.561634 298.379872 L 162.778634 300.881872 L 166.996634 303.383872 L 171.214634 305.885872 L 175.432634 308.387872 L 179.660634 310.873872 L 183.923634 313.296872 L 188.227634 315.647872 L 192.556634 317.952872 L 196.910634 320.209872 L 201.266634 322.461872 L 205.623634 324.713872 L 209.981634 326.961872 L 214.358634 329.174872 L 218.753634 331.349872 L 223.148634 333.525872 L 227.553634 335.680872 L 231.978634 337.795872 L 236.415634 339.885872" fill="none" id="45" stroke="#c45372" stroke-width="0.5" /><path d="M 366.867634 609.154872 L 367.739634 608.969872 L 368.612634 608.784872 L 369.472634 608.550872 L 370.332634 608.317872 L 371.178634 608.035872 L 372.024634 607.753872 L 372.860634 607.441872 L 373.695634 607.129872 L 374.511634 606.769872 L 375.327634 606.410872 L 376.138634 606.040872 L 376.950634 605.670872 L 377.755634 605.287872 L 378.560634 604.904872 L 379.365634 604.522872 L 380.171634 604.140872 L 380.975634 603.755872 L 381.779634 603.370872 L 382.588634 602.993872 L 383.396634 602.616872 L 384.204634 602.240872 L 385.012634 601.863872 L 385.827634 601.500872 L 386.641634 601.137872 L 387.456634 600.774872 L 388.270634 600.411872 L 389.085634 600.049872 L 389.900634 599.688872 L 390.717634 599.330872 L 391.533634 598.971872" fill="none" id="46" stroke="#008c6f" stroke-width="0.5" /></svg>