<?xml version="1.0" encoding="utf-8" ?>
<svg baseProfile="full" height="742.5" version="1.1" viewBox="0,0,748.5,742.5" width="748.5" xmlns="http://www.w3.org/2000/svg" xmlns:ev="http://www.w3.org/2001/xml-events" xmlns:xlink="http://www.w3.org/1999/xlink"><defs><style type="text/css"><![CDATA[
	.background { fill: white; }
	.line { stroke: firebrick; stroke-width: .1mm; }
	.blacksquare { fill: indigo; }
	.whitesquare { fill: white; }
]]></style></defs><rect class="background" height="100%" width="100%" x="0" y="0" /><path d="M 75.557100 583.596000 L 79.828900 581.588000 L 84.096500 579.570000 L 88.357900 577.539000 L 92.616100 575.502000 L 96.871300 573.458000 L 101.127000 571.416000 L 105.389000 569.385000 L 109.662000 567.379000 L 113.943000 565.389000 L 118.225000 563.404000 L 122.508000 561.418000 L 126.790000 559.432000 L 131.073000 557.447000 L 135.356000 555.461000 L 139.638000 553.475000 L 143.921000 551.490000 L 148.204000 549.504000 L 152.486000 547.518000 L 156.769000 545.533000 L 161.051000 543.547000 L 165.334000 541.562000 L 169.617000 539.576000 L 173.899000 537.590000 L 178.182000 535.605000 L 182.465000 533.619000 L 186.747000 531.633000 L 191.025000 529.638000 L 195.288000 527.611000 L 199.547000 525.573000 L 203.804000 523.534000 L 208.061000 521.494000" fill="none" id="0" stroke="#c583d9" stroke-width="0.5" /><path d="M 46.328700 621.841000 L 50.933100 623.575000 L 55.549900 625.276000 L 60.184500 626.928000 L 64.831800 628.544000 L 69.479700 630.158000 L 74.127500 631.772000 L 78.775400 633.386000 L 83.423300 635.000000 L 88.071100 636.614000 L 92.720100 638.225000 L 97.394700 639.760000 L 102.088000 641.236000 L 106.785000 642.701000 L 111.482000 644.166000 L 116.179000 645.631000 L 120.862000 647.141000 L 125.536000 648.680000 L 130.207000 650.224000 L 134.863000 651.815000 L 139.482000 653.509000 L 144.083000 655.253000 L 148.681000 657.004000 L 153.266000 658.790000 L 157.835000 660.615000 L 162.399000 662.452000 L 166.963000 664.290000 L 171.528000 666.127000 L 176.092000 667.964000 L 180.656000 669.802000 L 185.220000 671.639000 L 189.785000 673.476000 L 194.344000 675.326000 L 198.867000 677.262000 L 203.352000 679.285000 L 207.837000 681.309000 L 212.322000 683.332000 L 216.807000 685.355000 L 221.292000 687.378000 L 225.777000 689.401000 L 230.270000 691.405000 L 234.785000 693.362000 L 239.308000 695.297000 L 243.832000 697.233000 L 248.355000 699.169000 L 252.877000 701.109000 L 257.386000 703.077000 L 261.871000 705.101000 L 266.348000 707.140000 L 270.826000 709.179000 L 275.304000 711.217000 L 279.782000 713.256000 L 284.260000 715.295000 L 288.745000 717.317000 L 293.273000 719.244000 L 297.816000 721.132000 L 302.360000 723.020000 L 306.903000 724.908000 L 311.447000 726.797000 L 315.990000 728.685000 L 320.533000 730.573000" fill="none" id="1" stroke="#f375a0" stroke-width="0.5" /><path d="M 0.250000 620.187000 L 4.899050 618.424000 L 9.514820 616.577000 L 14.093700 614.640000 L 18.638300 612.623000 L 23.194100 610.632000 L 27.739900 608.617000 L 32.306900 606.653000 L 36.902200 604.754000 L 41.499600 602.861000 L 46.097100 600.967000 L 50.694600 599.074000 L 55.287100 597.169000 L 59.863500 595.225000 L 64.416500 593.227000 L 68.930200 591.143000 L 73.418100 589.003000 L 77.899100 586.848000 L 82.379800 584.693000 L 86.860500 582.538000 L 91.341700 580.384000 L 95.824900 578.234000 L 100.322000 576.113000 L 104.827000 574.010000 L 109.335000 571.912000 L 113.844000 569.816000 L 118.353000 567.721000 L 122.848000 565.596000 L 127.329000 563.441000 L 131.798000 561.262000 L 136.263000 559.075000 L 140.728000 556.887000 L 145.193000 554.699000 L 149.642000 552.479000 L 154.058000 550.194000 L 158.448000 547.861000 L 162.862000 545.573000 L 167.325000 543.384000 L 171.852000 541.327000 L 176.427000 539.379000 L 181.052000 537.557000 L 185.638000 535.641000 L 190.154000 533.562000 L 194.611000 531.357000 L 199.067000 529.151000 L 203.522000 526.945000 L 207.978000 524.739000 L 212.434000 522.532000 L 216.890000 520.326000 L 221.345000 518.120000 L 225.809000 515.929000 L 230.291000 513.777000 L 234.911000 511.939000 L 239.493000 510.010000 L 244.021000 507.960000 L 248.494000 505.788000 L 252.966000 503.616000 L 257.439000 501.444000 L 261.912000 499.272000 L 266.389000 497.109000 L 270.882000 494.981000 L 275.401000 492.907000 L 279.930000 490.856000 L 284.461000 488.808000 L 288.982000 486.738000 L 293.463000 484.584000 L 297.923000 482.386000 L 302.390000 480.204000 L 306.896000 478.102000 L 311.513000 476.258000 L 316.105000 474.352000 L 320.635000 472.308000 L 325.096000 470.111000 L 329.556000 467.913000 L 334.016000 465.716000 L 338.476000 463.518000 L 342.937000 461.323000 L 347.403000 459.138000 L 351.907000 457.031000 L 356.445000 455.000000 L 361.007000 453.024000 L 365.578000 451.066000 L 370.141000 449.092000 L 374.693000 447.092000 L 379.235000 445.069000 L 383.772000 443.035000 L 388.358000 441.115000 L 392.979000 439.281000 L 397.570000 437.375000 L 402.106000 435.338000 L 406.629000 433.274000 L 411.153000 431.210000 L 415.676000 429.146000 L 420.199000 427.082000 L 424.723000 425.018000 L 429.248000 422.957000 L 433.781000 420.915000 L 438.328000 418.902000 L 442.892000 416.931000 L 447.462000 414.972000 L 452.032000 413.014000 L 456.602000 411.055000 L 461.172000 409.097000 L 465.742000 407.138000 L 470.341000 405.249000 L 474.996000 403.507000 L 479.692000 401.878000 L 484.292000 399.989000 L 488.861000 398.028000 L 493.423000 396.052000 L 497.986000 394.076000 L 502.549000 392.101000 L 507.111000 390.125000 L 511.674000 388.149000 L 516.237000 386.173000 L 520.799000 384.197000 L 525.362000 382.222000 L 529.925000 380.246000 L 534.490000 378.276000 L 539.061000 376.321000 L 543.664000 374.441000 L 548.278000 372.587000 L 552.898000 370.749000 L 557.535000 368.957000 L 562.245000 367.364000 L 566.805000 365.391000 L 571.338000 363.348000 L 575.871000 361.304000 L 580.403000 359.260000 L 584.936000 357.216000 L 589.468000 355.172000 L 594.001000 353.128000 L 598.533000 351.085000" fill="none" id="2" stroke="#9de993" stroke-width="0.5" /><path d="M 259.557000 719.707000 L 263.810000 717.150000 L 268.045000 714.564000 L 272.251000 711.931000 L 276.440000 709.272000 L 280.626000 706.607000 L 284.811000 703.942000 L 288.997000 701.277000 L 293.184000 698.613000 L 297.382000 695.969000 L 301.598000 693.352000 L 305.816000 690.738000 L 310.034000 688.125000 L 314.252000 685.511000 L 318.469000 682.896000 L 322.678000 680.268000 L 326.871000 677.615000 L 331.055000 674.946000 L 335.237000 672.276000 L 339.419000 669.605000 L 343.601000 666.935000 L 347.783000 664.264000 L 351.965000 661.593000 L 356.147000 658.923000 L 360.330000 656.253000 L 364.514000 653.586000 L 368.711000 650.939000 L 372.924000 648.317000 L 377.140000 645.700000 L 381.357000 643.084000 L 385.573000 640.468000 L 389.790000 637.852000 L 394.006000 635.236000 L 398.223000 632.620000 L 402.437000 630.001000 L 406.637000 627.359000 L 410.817000 624.686000 L 414.992000 622.004000 L 419.207000 619.386000 L 423.474000 616.854000 L 427.774000 614.376000 L 432.145000 612.034000 L 436.604000 609.860000 L 440.979000 607.519000 L 445.242000 604.980000 L 449.505000 602.441000 L 453.768000 599.901000 L 458.031000 597.362000 L 462.308000 594.846000 L 466.608000 592.370000 L 470.926000 589.926000 L 475.248000 587.488000 L 479.555000 585.024000 L 483.830000 582.504000 L 488.086000 579.953000 L 492.442000 577.578000 L 496.881000 575.362000 L 501.284000 573.078000 L 505.596000 570.625000 L 509.853000 568.075000 L 514.110000 565.526000 L 518.367000 562.976000 L 522.625000 560.429000 L 526.927000 557.956000 L 531.284000 555.582000 L 535.664000 553.251000 L 540.044000 550.918000 L 544.407000 548.554000 L 548.747000 546.150000 L 553.081000 543.734000 L 557.462000 541.403000 L 561.856000 539.099000 L 566.147000 536.608000 L 570.425000 534.092000 L 574.701000 531.576000 L 578.978000 529.060000 L 583.255000 526.544000 L 587.533000 524.030000 L 591.820000 521.531000 L 596.126000 519.066000 L 600.450000 516.632000 L 604.778000 514.204000 L 609.122000 511.806000 L 613.494000 509.459000 L 617.888000 507.153000 L 622.307000 504.897000 L 626.745000 502.678000 L 631.138000 500.372000 L 635.444000 497.906000 L 639.750000 495.439000 L 644.055000 492.972000 L 648.361000 490.506000 L 652.666000 488.039000 L 656.972000 485.573000 L 661.277000 483.106000 L 665.583000 480.639000 L 669.886000 478.168000 L 674.177000 475.676000 L 678.440000 473.138000 L 682.706000 470.602000 L 687.036000 468.181000 L 691.462000 465.941000 L 695.850000 463.636000 L 700.110000 461.091000 L 704.370000 458.546000 L 708.629000 456.001000 L 712.890000 453.458000 L 717.166000 450.941000 L 721.501000 448.526000 L 725.869000 446.172000 L 730.236000 443.816000 L 734.588000 441.432000 L 738.928000 439.027000 L 743.247000 436.584000 L 747.533000 434.085000" fill="none" id="3" stroke="#ad5ba7" stroke-width="0.5" /><path d="M 215.715000 741.439000 L 220.083000 739.078000 L 224.436000 736.688000 L 228.772000 734.268000 L 233.098000 731.830000 L 237.418000 729.381000 L 241.733000 726.924000 L 246.048000 724.466000 L 250.362000 722.008000 L 254.677000 719.550000 L 258.987000 717.085000 L 263.278000 714.585000 L 267.542000 712.040000 L 271.797000 709.480000 L 276.051000 706.919000 L 280.305000 704.358000 L 284.560000 701.797000 L 288.814000 699.236000 L 293.071000 696.679000 L 297.338000 694.139000 L 301.630000 691.641000 L 305.932000 689.162000 L 310.236000 686.685000 L 314.539000 684.207000 L 318.831000 681.709000 L 323.104000 679.179000 L 327.364000 676.628000 L 331.604000 674.043000 L 335.821000 671.422000 L 340.032000 668.790000 L 344.241000 666.155000 L 348.450000 663.520000 L 352.691000 660.941000 L 357.079000 658.615000 L 361.372000 656.121000 L 365.610000 653.532000 L 369.835000 650.923000 L 374.061000 648.315000 L 378.294000 645.720000 L 382.557000 643.174000 L 386.899000 640.765000 L 391.277000 638.422000 L 395.638000 636.046000 L 399.954000 633.591000 L 404.230000 631.067000 L 408.526000 628.580000 L 412.951000 626.327000 L 417.315000 623.958000 L 421.576000 621.410000 L 425.821000 618.834000 L 430.067000 616.257000 L 434.312000 613.681000 L 438.559000 611.109000 L 442.822000 608.561000 L 447.123000 606.081000 L 451.445000 603.635000 L 455.777000 601.208000 L 460.126000 598.811000 L 464.498000 596.456000 L 468.890000 594.140000 L 473.320000 591.896000 L 477.737000 589.628000 L 482.096000 587.249000 L 486.421000 584.810000 L 490.736000 582.353000 L 495.052000 579.897000 L 499.367000 577.440000 L 503.683000 574.984000 L 508.008000 572.545000 L 512.359000 570.151000 L 516.734000 567.802000 L 521.120000 565.473000 L 525.493000 563.122000 L 529.831000 560.705000 L 534.121000 558.205000 L 538.403000 555.691000 L 542.773000 553.336000 L 547.255000 551.204000 L 551.749000 549.105000 L 556.051000 546.625000 L 560.353000 544.144000 L 564.655000 541.664000 L 568.956000 539.183000 L 573.261000 536.707000 L 577.577000 534.253000 L 581.920000 531.844000 L 586.299000 529.503000 L 590.687000 527.180000 L 595.068000 524.842000 L 599.429000 522.466000 L 603.774000 520.062000 L 608.132000 517.683000 L 612.548000 515.413000 L 617.080000 513.385000 L 621.388000 510.919000 L 625.678000 508.417000 L 629.967000 505.915000 L 634.256000 503.413000 L 638.545000 500.911000 L 642.835000 498.409000 L 647.136000 495.927000 L 651.490000 493.539000 L 655.870000 491.201000 L 660.257000 488.874000 L 664.633000 486.528000 L 668.987000 484.139000 L 673.316000 481.707000 L 677.675000 479.328000 L 682.219000 477.339000 L 686.640000 475.100000 L 690.946000 472.628000 L 695.252000 470.155000 L 699.559000 467.682000 L 703.865000 465.210000 L 708.171000 462.737000 L 712.465000 460.242000 L 716.749000 457.732000 L 721.026000 455.208000 L 725.290000 452.663000 L 729.533000 450.085000" fill="none" id="4" stroke="#58f2c3" stroke-width="0.5" /><path d="M 314.833000 693.463000 L 319.450000 691.609000 L 324.004000 689.603000 L 328.470000 687.410000 L 332.876000 685.098000 L 337.253000 682.732000 L 341.563000 680.246000 L 345.853000 677.725000 L 350.141000 675.201000 L 354.429000 672.677000 L 358.717000 670.153000 L 363.005000 667.629000 L 367.293000 665.105000 L 371.581000 662.581000 L 375.869000 660.057000 L 380.157000 657.533000 L 384.448000 655.015000 L 388.753000 652.519000 L 393.068000 650.042000 L 397.386000 647.569000 L 401.704000 645.097000 L 406.019000 642.619000 L 410.318000 640.114000 L 414.593000 637.568000 L 418.857000 635.003000 L 423.120000 632.437000 L 427.383000 629.871000 L 431.646000 627.305000 L 435.909000 624.739000 L 440.172000 622.173000 L 444.435000 619.606000 L 448.698000 617.040000 L 452.956000 614.467000 L 457.201000 611.871000 L 461.430000 609.250000 L 465.654000 606.619000 L 469.877000 603.988000 L 474.100000 601.358000 L 478.324000 598.727000 L 482.547000 596.096000 L 486.771000 593.466000 L 490.994000 590.835000 L 495.218000 588.204000 L 499.441000 585.574000 L 503.665000 582.943000 L 507.888000 580.312000 L 512.111000 577.682000 L 516.334000 575.049000 L 520.551000 572.408000 L 524.757000 569.751000 L 528.959000 567.086000 L 533.161000 564.420000 L 537.362000 561.754000 L 541.563000 559.088000 L 545.765000 556.422000 L 549.966000 553.756000 L 554.167000 551.091000 L 558.368000 548.425000 L 562.571000 545.760000 L 566.781000 543.108000 L 571.005000 540.479000 L 575.233000 537.855000 L 579.460000 535.230000 L 583.687000 532.606000 L 587.915000 529.982000 L 592.142000 527.357000 L 596.369000 524.733000 L 600.596000 522.108000" fill="none" id="5" stroke="#c94e76" stroke-width="0.5" /><path d="M 312.156000 707.494000 L 316.111000 704.491000 L 320.212000 701.691000 L 324.521000 699.223000 L 328.982000 697.042000 L 333.355000 694.688000 L 337.692000 692.268000 L 341.927000 689.674000 L 346.097000 686.978000 L 350.263000 684.274000 L 354.429000 681.570000 L 358.598000 678.872000 L 362.795000 676.218000 L 367.020000 673.607000 L 371.250000 671.005000 L 375.480000 668.403000 L 379.710000 665.801000 L 383.941000 663.199000 L 388.175000 660.605000 L 392.416000 658.021000 L 396.659000 655.440000 L 400.902000 652.859000 L 405.146000 650.279000 L 409.389000 647.698000 L 413.632000 645.118000 L 417.875000 642.538000 L 422.119000 639.957000 L 426.364000 637.381000 L 430.620000 634.821000 L 434.887000 632.280000 L 439.158000 629.746000 L 443.430000 627.212000 L 447.701000 624.678000 L 451.972000 622.145000 L 456.242000 619.608000 L 460.505000 617.061000 L 464.760000 614.499000 L 469.010000 611.931000 L 473.261000 609.362000 L 477.511000 606.793000 L 481.761000 604.224000 L 486.012000 601.656000 L 490.267000 599.095000 L 494.537000 596.560000 L 498.825000 594.054000 L 503.118000 591.557000 L 507.411000 589.061000 L 511.704000 586.564000 L 515.997000 584.068000 L 520.291000 581.571000 L 524.580000 579.069000 L 528.847000 576.528000 L 533.065000 573.906000 L 537.247000 571.228000 L 541.421000 568.537000 L 545.596000 565.847000 L 549.773000 563.161000 L 554.081000 560.696000 L 558.629000 558.721000 L 562.980000 556.359000 L 567.224000 553.780000 L 571.469000 551.201000 L 575.713000 548.622000 L 579.964000 546.055000 L 584.248000 543.543000 L 588.556000 541.072000 L 592.871000 538.614000 L 597.209000 536.196000 L 601.576000 533.831000 L 605.973000 531.521000 L 610.489000 529.459000 L 614.791000 526.985000 L 619.053000 524.436000 L 623.303000 521.867000 L 627.517000 519.239000 L 631.726000 516.604000 L 635.936000 513.969000 L 640.146000 511.335000 L 644.363000 508.712000 L 648.853000 506.592000 L 653.388000 504.569000 L 657.760000 502.213000 L 661.951000 499.549000" fill="none" id="6" stroke="#57b870" stroke-width="0.5" /><path d="M 430.423000 396.203000 L 435.236000 397.367000 L 440.049000 398.531000 L 444.861000 399.695000 L 449.674000 400.859000 L 454.487000 402.023000 L 459.300000 403.187000 L 464.112000 404.351000 L 468.925000 405.515000 L 473.738000 406.679000 L 478.551000 407.843000 L 483.363000 409.007000 L 488.188000 410.121000 L 493.020000 411.204000 L 497.852000 412.283000 L 502.685000 413.362000 L 507.517000 414.441000 L 512.350000 415.519000 L 517.185000 416.587000 L 522.031000 417.602000 L 526.885000 418.582000 L 531.740000 419.557000 L 536.594000 420.531000 L 541.449000 421.505000 L 546.304000 422.479000 L 551.158000 423.453000 L 556.013000 424.427000 L 560.868000 425.402000 L 565.723000 426.376000 L 570.577000 427.350000 L 575.432000 428.324000 L 580.287000 429.298000 L 585.141000 430.274000 L 589.994000 431.261000 L 594.841000 432.269000 L 599.687000 433.289000 L 604.532000 434.309000 L 609.377000 435.329000 L 614.223000 436.349000 L 619.068000 437.369000 L 623.913000 438.389000 L 628.759000 439.408000 L 633.606000 440.420000 L 638.458000 441.408000 L 643.314000 442.376000 L 648.170000 443.342000 L 653.026000 444.309000 L 657.882000 445.275000 L 662.739000 446.242000 L 667.595000 447.209000 L 672.451000 448.175000 L 677.308000 449.142000 L 682.164000 450.108000 L 687.020000 451.075000 L 691.876000 452.041000 L 696.733000 453.008000 L 701.589000 453.974000 L 706.445000 454.941000 L 711.301000 455.907000 L 716.158000 456.874000 L 721.014000 457.841000 L 725.870000 458.807000 L 730.726000 459.774000 L 735.583000 460.740000 L 740.439000 461.707000" fill="none" id="7" stroke="#d271bb" stroke-width="0.5" /><path d="M 22.234200 611.022000 L 26.383800 613.752000 L 30.642700 616.308000 L 35.038200 618.622000 L 39.544600 620.711000 L 44.141400 622.593000 L 48.746300 624.456000 L 53.351200 626.319000 L 57.959900 628.172000 L 62.592400 629.966000 L 67.236800 631.727000 L 71.882800 633.485000 L 76.528800 635.243000 L 81.174800 637.001000 L 85.820800 638.759000 L 90.466800 640.517000 L 95.112800 642.274000 L 99.758800 644.032000 L 104.405000 645.790000 L 109.051000 647.548000 L 113.697000 649.306000 L 118.343000 651.064000 L 122.989000 652.821000 L 127.624000 654.608000 L 132.226000 656.476000 L 136.799000 658.416000 L 141.363000 660.377000 L 145.926000 662.340000 L 150.489000 664.303000 L 155.052000 666.266000 L 159.616000 668.229000 L 164.179000 670.192000 L 168.742000 672.154000 L 173.305000 674.117000 L 177.868000 676.080000 L 182.431000 678.043000 L 186.995000 680.006000 L 191.558000 681.969000 L 196.121000 683.931000 L 200.684000 685.894000 L 205.247000 687.857000 L 209.811000 689.820000 L 214.374000 691.783000 L 218.937000 693.746000 L 223.500000 695.708000 L 228.063000 697.671000 L 232.626000 699.634000 L 237.190000 701.597000 L 241.753000 703.560000 L 246.316000 705.522000 L 250.879000 707.485000 L 255.442000 709.448000 L 260.006000 711.411000 L 264.569000 713.374000 L 269.132000 715.337000" fill="none" id="8" stroke="#3d8e43" stroke-width="0.5" /><path d="M 578.959000 434.636000 L 574.673000 437.169000 L 570.367000 439.667000 L 566.052000 442.150000 L 561.669000 444.509000 L 557.260000 446.822000 L 552.851000 449.132000 L 548.441000 451.443000 L 544.031000 453.753000 L 539.622000 456.063000 L 535.210000 458.371000 L 530.791000 460.661000 L 526.363000 462.936000 L 521.933000 465.207000 L 517.502000 467.478000 L 513.072000 469.749000 L 508.642000 472.020000 L 504.217000 474.300000 L 499.812000 476.619000 L 495.430000 478.982000 L 491.057000 481.360000 L 486.683000 483.737000 L 482.309000 486.114000 L 477.934000 488.491000 L 473.552000 490.852000 L 469.155000 493.187000 L 464.750000 495.506000 L 460.345000 497.824000 L 455.939000 500.143000 L 451.534000 502.461000 L 447.128000 504.779000 L 442.736000 507.123000 L 438.381000 509.533000 L 434.055000 511.998000 L 429.738000 514.476000 L 425.421000 516.955000 L 421.103000 519.433000 L 416.786000 521.912000 L 412.469000 524.390000 L 408.151000 526.869000 L 403.834000 529.347000 L 399.516000 531.825000 L 395.193000 534.293000 L 390.854000 536.734000 L 386.501000 539.150000 L 382.146000 541.561000 L 377.791000 543.973000 L 373.436000 546.384000 L 369.084000 548.802000 L 364.749000 551.249000 L 360.421000 553.709000 L 356.094000 556.171000 L 351.767000 558.632000 L 347.440000 561.094000 L 343.119000 563.567000 L 338.826000 566.086000 L 334.540000 568.620000 L 330.266000 571.171000" fill="none" id="9" stroke="#00d4db" stroke-width="0.5" /><path d="M 79.525600 703.195000 L 83.968500 701.006000 L 88.423400 698.841000 L 92.901300 696.725000 L 97.431700 694.724000 L 101.964000 692.727000 L 106.493000 690.722000 L 111.000000 688.669000 L 115.461000 686.518000 L 119.897000 684.315000 L 124.333000 682.112000 L 128.769000 679.909000 L 133.202000 677.700000 L 137.614000 675.450000 L 141.983000 673.117000 L 146.343000 670.768000 L 150.704000 668.419000 L 155.064000 666.070000 L 159.424000 663.721000 L 163.785000 661.372000 L 168.145000 659.023000 L 172.518000 656.697000 L 176.904000 654.396000 L 181.293000 652.101000 L 185.682000 649.805000 L 190.068000 647.504000 L 194.428000 645.155000 L 198.759000 642.753000 L 203.080000 640.333000 L 207.401000 637.912000 L 211.722000 635.490000 L 216.033000 633.051000 L 220.316000 630.565000 L 224.585000 628.054000 L 228.854000 625.543000 L 233.123000 623.032000 L 237.392000 620.520000 L 241.666000 618.017000 L 245.963000 615.554000 L 250.263000 613.096000 L 254.563000 610.639000 L 258.864000 608.182000 L 263.164000 605.724000 L 267.568000 603.466000 L 271.959000 601.180000 L 276.258000 598.720000 L 280.531000 596.217000 L 284.805000 593.713000 L 289.078000 591.210000 L 293.352000 588.706000 L 297.623000 586.199000 L 301.884000 583.674000 L 306.131000 581.126000 L 310.378000 578.578000 L 314.621000 576.023000 L 318.825000 573.403000 L 323.025000 570.778000 L 327.225000 568.153000 L 331.814000 566.362000 L 336.215000 564.146000 L 340.485000 561.635000 L 344.755000 559.125000 L 349.024000 556.615000 L 353.294000 554.105000 L 357.564000 551.594000 L 361.841000 549.098000 L 366.142000 546.643000 L 370.469000 544.232000 L 374.798000 541.826000 L 379.126000 539.417000 L 383.429000 536.965000 L 387.700000 534.457000 L 391.969000 531.946000 L 396.238000 529.435000 L 400.836000 527.620000 L 405.204000 525.309000 L 409.502000 522.848000 L 413.800000 520.386000 L 418.098000 517.925000 L 422.396000 515.463000 L 426.694000 513.002000 L 430.995000 510.545000 L 435.307000 508.108000 L 439.632000 505.696000 L 443.962000 503.291000 L 448.289000 500.882000 L 452.602000 498.446000 L 456.875000 495.942000 L 461.144000 493.431000 L 465.414000 490.921000 L 469.979000 489.003000 L 474.295000 486.581000 L 478.582000 484.101000 L 482.868000 481.620000 L 487.155000 479.140000 L 491.442000 476.659000 L 495.729000 474.179000 L 500.016000 471.698000 L 504.339000 469.281000 L 508.728000 466.988000 L 513.158000 464.772000 L 517.588000 462.557000 L 522.009000 460.325000 L 526.400000 458.034000 L 530.782000 455.724000 L 535.161000 453.410000 L 539.533000 451.085000" fill="none" id="10" stroke="#d55969" stroke-width="0.5" /><path d="M 528.218000 118.030000 L 528.569000 122.955000 L 528.859000 127.884000 L 529.019000 132.819000 L 529.098000 137.756000 L 529.196000 142.692000 L 529.294000 147.629000 L 529.392000 152.565000 L 529.490000 157.502000 L 529.587000 162.439000 L 529.685000 167.375000 L 529.783000 172.312000 L 529.881000 177.249000 L 529.979000 182.185000 L 530.077000 187.122000 L 530.174000 192.058000 L 530.263000 196.995000 L 530.328000 201.932000 L 530.386000 206.870000 L 530.444000 211.807000 L 530.502000 216.744000 L 530.561000 221.681000 L 530.619000 226.618000 L 530.677000 231.556000 L 530.735000 236.493000 L 530.794000 241.430000 L 530.852000 246.367000 L 530.910000 251.305000 L 530.968000 256.242000 L 531.026000 261.179000 L 531.085000 266.116000 L 531.143000 271.054000 L 531.180000 275.991000 L 531.197000 280.929000 L 531.210000 285.866000 L 531.223000 290.804000 L 531.237000 295.741000 L 531.250000 300.679000 L 531.263000 305.616000 L 531.276000 310.554000 L 531.289000 315.491000 L 531.302000 320.429000 L 531.315000 325.367000 L 531.328000 330.304000 L 531.336000 335.242000 L 531.337000 340.179000 L 531.337000 345.117000 L 531.337000 350.054000 L 531.337000 354.992000 L 531.337000 359.930000 L 531.337000 364.867000 L 531.325000 369.805000 L 531.275000 374.742000 L 531.197000 379.679000 L 531.118000 384.616000 L 531.039000 389.553000 L 530.955000 394.490000 L 530.851000 399.426000 L 530.722000 404.362000 L 530.593000 409.298000 L 530.465000 414.234000 L 530.336000 419.170000 L 530.208000 424.106000 L 530.079000 429.042000 L 529.945000 433.977000 L 529.769000 438.912000 L 529.570000 443.845000 L 529.371000 448.779000 L 529.172000 453.713000 L 528.973000 458.646000 L 528.774000 463.580000 L 528.575000 468.513000 L 528.376000 473.447000" fill="none" id="11" stroke="#64e4ff" stroke-width="0.5" /><path d="M 500.156000 180.746000 L 499.956000 184.217000 L 499.806000 187.690000 L 499.721000 191.165000 L 499.703000 194.641000 L 499.693000 198.117000 L 499.623000 201.592000 L 499.487000 205.066000 L 499.320000 208.538000 L 499.145000 212.010000 L 498.970000 215.482000 L 498.794000 218.953000 L 498.619000 222.425000 L 498.445000 225.897000 L 498.280000 229.369000 L 498.132000 232.842000 L 498.002000 236.316000 L 497.878000 239.790000 L 497.754000 243.264000 L 497.633000 246.738000 L 497.529000 250.213000 L 497.468000 253.689000 L 497.449000 257.165000 L 497.433000 260.641000 L 497.417000 264.117000 L 497.407000 267.593000 L 497.428000 271.069000 L 497.514000 274.545000 L 497.633000 278.019000 L 497.756000 281.493000 L 497.888000 284.967000" fill="none" id="12" stroke="#e68e54" stroke-width="0.5" /><path d="M 429.289000 265.124000 L 429.084000 265.913000 L 428.878000 266.702000 L 428.711000 267.501000 L 428.543000 268.299000 L 428.450000 269.109000 L 428.358000 269.919000 L 428.302000 270.733000 L 428.247000 271.546000 L 428.180000 272.359000 L 428.113000 273.172000 L 428.046000 273.985000 L 427.980000 274.798000 L 427.902000 275.610000 L 427.825000 276.421000 L 427.747000 277.233000 L 427.669000 278.045000 L 427.589000 278.857000 L 427.509000 279.668000 L 427.429000 280.480000 L 427.349000 281.291000 L 427.269000 282.103000 L 427.189000 282.915000 L 427.109000 283.726000 L 427.029000 284.538000 L 426.949000 285.349000 L 426.869000 286.161000 L 426.789000 286.973000 L 426.709000 287.784000 L 426.629000 288.596000 L 426.549000 289.407000" fill="none" id="13" stroke="#54aeff" stroke-width="0.5" /><path d="M 433.573000 178.006000 L 433.470000 181.540000 L 433.387000 185.074000 L 433.318000 188.608000 L 433.299000 192.143000 L 433.301000 195.678000 L 433.307000 199.213000 L 433.313000 202.749000 L 433.319000 206.284000 L 433.326000 209.819000 L 433.332000 213.354000 L 433.338000 216.889000 L 433.349000 220.424000 L 433.384000 223.959000 L 433.463000 227.493000 L 433.584000 231.026000 L 433.718000 234.559000 L 433.852000 238.091000 L 433.986000 241.624000 L 434.120000 245.157000 L 434.255000 248.689000 L 434.389000 252.222000 L 434.524000 255.754000 L 434.663000 259.287000 L 434.820000 262.818000 L 435.007000 266.348000 L 435.199000 269.878000 L 435.391000 273.408000 L 435.583000 276.938000 L 435.775000 280.468000 L 435.967000 283.998000" fill="none" id="14" stroke="#eed973" stroke-width="0.5" /><path d="M 562.738000 199.030000 L 562.787000 199.991000 L 562.835000 200.952000 L 562.887000 201.913000 L 562.940000 202.874000 L 562.991000 203.835000 L 563.043000 204.796000 L 563.092000 205.757000 L 563.140000 206.719000 L 563.191000 207.680000 L 563.243000 208.641000 L 563.287000 209.602000 L 563.332000 210.564000 L 563.374000 211.525000 L 563.417000 212.487000 L 563.456000 213.448000 L 563.496000 214.410000 L 563.536000 215.371000 L 563.577000 216.333000 L 563.617000 217.295000 L 563.657000 218.256000 L 563.698000 219.218000 L 563.738000 220.179000 L 563.778000 221.141000 L 563.819000 222.102000 L 563.859000 223.064000 L 563.900000 224.026000 L 563.940000 224.987000 L 563.980000 225.949000 L 564.021000 226.910000 L 564.061000 227.872000" fill="none" id="15" stroke="#008bd4" stroke-width="0.5" /><path d="M 564.156000 176.541000 L 564.255000 179.331000 L 564.354000 182.121000 L 564.453000 184.910000 L 564.552000 187.700000 L 564.651000 190.490000 L 564.751000 193.279000 L 564.850000 196.069000 L 564.949000 198.859000 L 565.048000 201.648000 L 565.130000 204.438000 L 565.186000 207.229000 L 565.217000 210.020000 L 565.226000 212.812000 L 565.226000 215.603000 L 565.226000 218.395000 L 565.226000 221.186000 L 565.225000 223.977000 L 565.215000 226.769000 L 565.184000 229.560000 L 565.135000 232.351000 L 565.072000 235.142000 L 565.009000 237.932000 L 564.945000 240.723000 L 564.882000 243.514000 L 564.819000 246.304000 L 564.755000 249.095000 L 564.692000 251.886000 L 564.629000 254.676000 L 564.565000 257.467000 L 564.502000 260.258000" fill="none" id="16" stroke="#fdb968" stroke-width="0.5" /><path d="M 555.242000 105.274000 L 555.507000 108.727000 L 555.727000 112.183000 L 555.880000 115.643000 L 555.984000 119.104000 L 556.070000 122.567000 L 556.154000 126.029000 L 556.238000 129.491000 L 556.321000 132.953000 L 556.404000 136.416000 L 556.488000 139.878000 L 556.571000 143.340000 L 556.653000 146.802000 L 556.726000 150.265000 L 556.775000 153.728000 L 556.794000 157.191000 L 556.799000 160.654000 L 556.805000 164.117000 L 556.811000 167.581000 L 556.817000 171.044000 L 556.822000 174.507000 L 556.828000 177.970000 L 556.834000 181.434000 L 556.840000 184.897000 L 556.845000 188.360000 L 556.851000 191.824000 L 556.857000 195.287000 L 556.863000 198.750000 L 556.868000 202.213000 L 556.874000 205.677000 L 556.880000 209.140000" fill="none" id="17" stroke="#6f73bc" stroke-width="0.5" /><path d="M 216.030000 257.778000 L 220.859000 256.545000 L 225.676000 255.263000 L 230.466000 253.885000 L 235.226000 252.407000 L 239.993000 250.951000 L 244.759000 249.494000 L 249.526000 248.037000 L 254.288000 246.566000 L 259.013000 244.980000 L 263.719000 243.336000 L 268.422000 241.686000 L 273.125000 240.036000 L 277.829000 238.386000 L 282.532000 236.736000 L 287.235000 235.086000 L 291.939000 233.438000 L 296.649000 231.807000 L 301.372000 230.214000 L 306.099000 228.635000 L 310.827000 227.055000 L 315.554000 225.476000 L 320.279000 223.889000 L 324.995000 222.273000 L 329.695000 220.616000 L 334.376000 218.904000 L 339.042000 217.150000 L 343.703000 215.386000 L 348.365000 213.622000 L 353.028000 211.860000 L 357.698000 210.120000 L 362.390000 208.438000 L 367.099000 206.805000 L 371.814000 205.188000 L 376.529000 203.571000 L 381.243000 201.953000 L 385.958000 200.336000 L 390.672000 198.719000 L 395.385000 197.095000 L 400.085000 195.436000 L 404.761000 193.710000 L 409.421000 191.941000 L 414.078000 190.164000 L 418.734000 188.387000 L 423.391000 186.611000 L 428.052000 184.843000 L 432.726000 183.113000 L 437.420000 181.436000 L 442.119000 179.775000 L 446.819000 178.115000 L 451.518000 176.454000 L 456.218000 174.793000 L 460.916000 173.129000 L 465.607000 171.443000 L 470.287000 169.728000 L 474.965000 168.007000 L 479.642000 166.287000 L 484.320000 164.566000 L 488.998000 162.845000 L 493.677000 161.128000 L 498.372000 159.455000 L 503.078000 157.812000 L 507.785000 156.172000 L 512.492000 154.532000 L 517.199000 152.892000 L 521.905000 151.252000 L 526.612000 149.612000" fill="none" id="18" stroke="#bee481" stroke-width="0.5" /><path d="M 596.187000 162.108000 L 591.785000 164.402000 L 587.344000 166.618000 L 582.850000 168.726000 L 578.357000 170.835000 L 573.845000 172.904000 L 569.291000 174.880000 L 564.725000 176.827000 L 560.159000 178.772000 L 555.592000 180.718000 L 551.028000 182.669000 L 546.477000 184.650000 L 541.936000 186.654000 L 537.396000 188.662000 L 532.855000 190.665000 L 528.301000 192.640000 L 523.725000 194.563000 L 519.127000 196.432000 L 514.509000 198.252000 L 509.886000 200.061000 L 505.264000 201.870000 L 500.641000 203.678000 L 496.019000 205.487000 L 491.397000 207.296000 L 486.776000 209.108000 L 482.164000 210.945000 L 477.567000 212.818000 L 472.976000 214.704000 L 468.385000 216.590000 L 463.794000 218.477000 L 459.202000 220.363000 L 454.611000 222.249000 L 450.020000 224.136000 L 445.428000 226.022000 L 440.837000 227.908000 L 436.246000 229.794000 L 431.655000 231.681000 L 427.063000 233.567000 L 422.472000 235.453000 L 417.880000 237.338000 L 413.284000 239.214000 L 408.685000 241.081000 L 404.084000 242.943000 L 399.483000 244.806000 L 394.882000 246.668000 L 390.281000 248.530000 L 385.680000 250.393000 L 381.079000 252.255000 L 376.478000 254.118000 L 371.877000 255.980000 L 367.278000 257.848000 L 362.695000 259.754000 L 358.142000 261.730000 L 353.598000 263.729000 L 349.055000 265.728000 L 344.512000 267.727000 L 339.970000 269.731000 L 335.440000 271.759000 L 330.921000 273.813000 L 326.405000 275.873000 L 321.889000 277.933000 L 317.373000 279.993000 L 312.857000 282.054000 L 308.341000 284.114000 L 303.825000 286.174000 L 299.310000 288.235000 L 294.794000 290.295000 L 290.278000 292.355000 L 285.762000 294.415000" fill="none" id="19" stroke="#8f6aaf" stroke-width="0.5" /><path d="M 425.762000 189.486000 L 428.513000 189.954000 L 431.265000 190.419000 L 434.015000 190.893000 L 436.763000 191.378000 L 439.524000 191.788000 L 442.289000 192.167000 L 445.055000 192.537000 L 447.821000 192.904000 L 450.588000 193.272000 L 453.354000 193.640000 L 456.121000 194.008000 L 458.888000 194.372000 L 461.656000 194.726000 L 464.426000 195.062000 L 467.198000 195.390000 L 469.970000 195.713000 L 472.742000 196.036000 L 475.514000 196.359000 L 478.286000 196.681000 L 481.058000 197.003000 L 483.831000 197.321000 L 486.605000 197.628000 L 489.380000 197.918000 L 492.157000 198.201000 L 494.933000 198.481000 L 497.710000 198.761000 L 500.487000 199.041000 L 503.263000 199.320000 L 506.040000 199.600000 L 508.817000 199.880000" fill="none" id="20" stroke="#8bb658" stroke-width="0.5" /><path d="M 342.896000 196.219000 L 347.400000 194.227000 L 351.906000 192.241000 L 356.424000 190.281000 L 360.927000 188.290000 L 365.438000 186.314000 L 369.973000 184.394000 L 374.513000 182.485000 L 379.053000 180.578000 L 383.593000 178.671000 L 388.133000 176.763000 L 392.673000 174.856000 L 397.213000 172.948000 L 401.736000 170.999000 L 406.225000 168.974000 L 410.705000 166.930000 L 415.186000 164.887000 L 419.669000 162.848000 L 424.177000 160.867000 L 428.716000 158.958000 L 433.293000 157.141000 L 437.891000 155.376000 L 442.491000 153.619000 L 447.092000 151.862000 L 451.692000 150.105000 L 456.288000 148.337000 L 460.861000 146.510000 L 465.412000 144.628000 L 469.957000 142.732000 L 474.502000 140.836000 L 479.047000 138.940000 L 483.592000 137.044000 L 488.136000 135.148000 L 492.681000 133.252000 L 497.237000 131.381000 L 501.815000 129.566000 L 506.406000 127.786000 L 510.998000 126.006000 L 515.590000 124.226000 L 520.181000 122.447000 L 524.773000 120.667000 L 529.364000 118.887000 L 533.956000 117.107000 L 538.548000 115.327000 L 543.139000 113.547000 L 547.731000 111.767000 L 552.322000 109.987000 L 556.914000 108.207000 L 561.506000 106.427000 L 566.097000 104.647000 L 570.689000 102.867000 L 575.280000 101.087000 L 579.869000 99.298700 L 584.434000 97.453400 L 588.978000 95.555000 L 593.522000 93.656500 L 598.066000 91.758000 L 602.610000 89.859600 L 607.154000 87.961100 L 611.698000 86.062700 L 616.242000 84.164200 L 620.785000 82.265700" fill="none" id="21" stroke="#bbabff" stroke-width="0.5" /><path d="M 178.234000 259.006000 L 182.972000 257.412000 L 187.727000 255.869000 L 192.504000 254.395000 L 197.298000 252.980000 L 202.092000 251.561000 L 206.862000 250.068000 L 211.603000 248.480000 L 216.324000 246.838000 L 221.025000 245.138000 L 225.723000 243.429000 L 230.421000 241.721000 L 235.119000 240.013000 L 239.817000 238.305000 L 244.515000 236.597000 L 249.213000 234.889000 L 253.911000 233.181000 L 258.609000 231.472000 L 263.305000 229.757000 L 267.992000 228.020000 L 272.673000 226.265000 L 277.352000 224.506000 L 282.032000 222.747000 L 286.711000 220.988000 L 291.390000 219.229000 L 296.069000 217.470000 L 300.756000 215.730000 L 305.462000 214.045000 L 310.186000 212.410000 L 314.915000 210.789000 L 319.644000 209.169000 L 324.373000 207.549000 L 329.102000 205.928000 L 333.828000 204.298000 L 338.547000 202.648000 L 343.260000 200.981000 L 347.971000 199.310000 L 352.683000 197.640000 L 357.394000 195.969000 L 362.105000 194.298000 L 366.817000 192.627000 L 371.528000 190.956000 L 376.241000 189.287000 L 380.956000 187.627000 L 385.676000 185.980000 L 390.397000 184.338000 L 395.119000 182.697000 L 399.841000 181.056000 L 404.563000 179.415000 L 409.285000 177.774000 L 414.007000 176.133000 L 418.729000 174.492000 L 423.451000 172.851000 L 428.173000 171.210000 L 432.895000 169.569000 L 437.617000 167.928000 L 442.339000 166.287000 L 447.061000 164.646000 L 451.783000 163.005000 L 456.504000 161.364000 L 461.226000 159.722000" fill="none" id="22" stroke="#658424" stroke-width="0.5" /><path d="M 360.533000 293.400000 L 365.134000 291.554000 L 369.718000 289.668000 L 374.282000 287.732000 L 378.819000 285.735000 L 383.351000 283.728000 L 387.884000 281.721000 L 392.416000 279.714000 L 396.947000 277.703000 L 401.457000 275.646000 L 405.896000 273.441000 L 410.322000 271.207000 L 414.746000 268.973000 L 419.172000 266.740000 L 423.608000 264.528000 L 428.071000 262.371000 L 432.554000 260.254000 L 437.040000 258.146000 L 441.526000 256.038000 L 446.013000 253.929000 L 450.499000 251.821000 L 454.985000 249.713000 L 459.466000 247.592000 L 463.921000 245.418000 L 468.343000 243.180000 L 472.752000 240.913000 L 477.159000 238.644000 L 481.566000 236.375000 L 485.973000 234.106000 L 490.380000 231.837000 L 494.788000 229.567000 L 499.195000 227.298000 L 503.602000 225.029000 L 508.009000 222.760000 L 512.416000 220.491000 L 516.824000 218.222000 L 521.231000 215.953000 L 525.638000 213.684000 L 530.047000 211.417000 L 534.464000 209.168000 L 538.896000 206.948000 L 543.336000 204.743000 L 547.778000 202.543000 L 552.231000 200.366000 L 556.709000 198.240000 L 561.199000 196.139000 L 565.690000 194.041000 L 570.181000 191.943000 L 574.673000 189.847000 L 579.174000 187.771000 L 583.699000 185.746000 L 588.231000 183.738000 L 592.764000 181.732000 L 597.297000 179.726000 L 601.830000 177.719000 L 606.363000 175.713000 L 610.896000 173.707000" fill="none" id="23" stroke="#f1b9ff" stroke-width="0.5" /><path d="M 380.880000 289.691000 L 384.592000 286.493000 L 388.546000 283.602000 L 392.813000 281.194000 L 397.233000 279.079000 L 401.653000 276.965000 L 406.062000 274.827000 L 410.421000 272.590000 L 414.744000 270.284000 L 419.037000 267.923000 L 423.329000 265.559000 L 427.655000 263.258000 L 432.020000 261.034000 L 436.401000 258.840000 L 440.833000 256.749000 L 445.289000 254.712000 L 449.747000 252.679000 L 454.205000 250.645000 L 458.662000 248.611000 L 463.113000 246.563000 L 467.545000 244.473000 L 471.960000 242.349000 L 476.373000 240.219000 L 480.785000 238.089000 L 485.218000 236.001000 L 489.692000 234.004000 L 494.190000 232.061000 L 498.690000 230.122000 L 503.190000 228.183000 L 507.689000 226.244000 L 512.187000 224.300000 L 516.673000 222.330000 L 521.139000 220.315000 L 525.601000 218.290000 L 530.048000 216.233000 L 534.432000 214.045000 L 538.816000 211.856000 L 543.199000 209.667000 L 547.583000 207.478000 L 551.967000 205.289000" fill="none" id="24" stroke="#f1b9ff" stroke-width="0.5" /><path d="M 560.093000 202.313000 L 555.587000 204.423000 L 551.116000 206.605000 L 546.694000 208.886000 L 542.307000 211.232000 L 537.919000 213.577000 L 533.517000 215.894000 L 529.068000 218.122000 L 524.587000 220.282000 L 520.081000 222.393000 L 515.559000 224.467000 L 511.033000 226.533000 L 506.507000 228.599000 L 501.981000 230.665000 L 497.455000 232.731000 L 492.929000 234.797000 L 488.404000 236.863000 L 483.878000 238.929000 L 479.351000 240.995000 L 474.813000 243.034000 L 470.247000 245.008000 L 465.660000 246.935000 L 461.069000 248.853000 L 456.478000 250.770000 L 451.888000 252.688000 L 447.297000 254.605000 L 442.706000 256.522000 L 438.126000 258.466000 L 433.600000 260.530000 L 429.113000 262.680000 L 424.631000 264.841000 L 420.150000 267.002000 L 415.669000 269.164000 L 411.188000 271.325000 L 406.707000 273.486000" fill="none" id="25" stroke="#f1b9ff" stroke-width="0.5" /><path d="M 561.541000 197.541000 L 562.627000 196.749000 L 563.713000 195.957000 L 564.839000 195.222000 L 565.966000 194.490000 L 567.144000 193.842000 L 568.324000 193.198000 L 569.535000 192.614000 L 570.746000 192.031000 L 571.957000 191.447000 L 573.168000 190.864000 L 574.379000 190.280000 L 575.590000 189.696000 L 576.801000 189.113000 L 578.012000 188.529000 L 579.223000 187.947000 L 580.435000 187.365000 L 581.649000 186.788000 L 582.864000 186.212000 L 584.085000 185.649000 L 585.306000 185.087000 L 586.533000 184.539000 L 587.761000 183.991000 L 588.991000 183.449000 L 590.222000 182.908000 L 591.452000 182.366000 L 592.682000 181.825000 L 593.913000 181.283000 L 595.143000 180.742000 L 596.374000 180.201000 L 597.604000 179.659000" fill="none" id="26" stroke="#f1b9ff" stroke-width="0.5" /><path d="M 394.329000 281.470000 L 398.535000 278.993000 L 402.778000 276.579000 L 407.040000 274.197000 L 411.408000 272.018000 L 415.776000 269.838000 L 420.151000 267.672000 L 424.559000 265.574000 L 428.972000 263.486000 L 433.392000 261.415000 L 437.840000 259.403000 L 442.299000 257.415000 L 446.758000 255.429000 L 451.218000 253.442000 L 455.677000 251.456000 L 460.134000 249.464000 L 464.569000 247.423000 L 468.969000 245.308000 L 473.340000 243.134000 L 477.699000 240.936000 L 482.056000 238.736000 L 486.415000 236.536000 L 490.792000 234.376000 L 495.200000 232.276000 L 499.608000 230.180000 L 504.017000 228.083000 L 508.420000 225.974000 L 512.799000 223.817000 L 517.147000 221.596000 L 521.484000 219.356000 L 525.797000 217.068000 L 530.064000 214.696000 L 534.330000 212.324000 L 538.597000 209.953000 L 542.864000 207.581000" fill="none" id="27" stroke="#f1b9ff" stroke-width="0.5" /><path d="M 555.557000 204.557000 L 551.160000 206.703000 L 546.775000 208.871000 L 542.418000 211.097000 L 538.048000 213.297000 L 533.608000 215.351000 L 529.120000 217.300000 L 524.614000 219.205000 L 520.103000 221.098000 L 515.572000 222.946000 L 511.031000 224.766000 L 506.488000 226.581000 L 501.945000 228.396000 L 497.402000 230.213000 L 492.878000 232.074000 L 488.377000 233.993000 L 483.885000 235.931000 L 479.393000 237.870000 L 474.901000 239.808000 L 470.409000 241.747000 L 465.909000 243.665000 L 461.390000 245.541000 L 456.861000 247.391000 L 452.332000 249.241000 L 447.803000 251.091000 L 443.273000 252.941000 L 438.744000 254.791000 L 434.234000 256.687000 L 429.782000 258.714000 L 425.349000 260.784000 L 420.922000 262.866000 L 416.523000 265.009000 L 412.155000 267.213000 L 407.790000 269.422000 L 403.425000 271.631000 L 399.059000 273.840000 L 394.694000 276.049000 L 390.329000 278.258000" fill="none" id="28" stroke="#f1b9ff" stroke-width="0.5" /><path d="M 555.085000 198.156000 L 557.020000 196.975000 L 558.975000 195.829000 L 560.950000 194.716000 L 562.973000 193.691000 L 565.017000 192.714000 L 567.083000 191.780000 L 569.148000 190.845000 L 571.214000 189.912000 L 573.281000 188.979000 L 575.356000 188.067000 L 577.437000 187.168000 L 579.523000 186.280000 L 581.612000 185.401000 L 583.703000 184.526000 L 585.796000 183.653000 L 587.898000 182.804000 L 590.004000 181.966000 L 592.115000 181.138000 L 594.225000 180.310000 L 596.335000 179.482000 L 598.445000 178.654000 L 600.551000 177.814000 L 602.648000 176.952000 L 604.736000 176.070000 L 606.811000 175.156000 L 608.883000 174.238000 L 610.954000 173.315000 L 613.024000 172.392000 L 615.094000 171.467000 L 617.163000 170.541000" fill="none" id="29" stroke="#f1b9ff" stroke-width="0.5" /><path d="M 169.037000 164.187000 L 168.489000 168.673000 L 168.104000 173.177000 L 167.930000 177.693000 L 167.942000 182.213000 L 167.955000 186.733000 L 167.986000 191.253000 L 168.072000 195.772000 L 168.178000 200.290000 L 168.286000 204.809000 L 168.394000 209.328000 L 168.508000 213.846000 L 168.646000 218.364000 L 168.806000 222.881000 L 168.974000 227.398000 L 169.143000 231.915000 L 169.313000 236.432000 L 169.482000 240.949000 L 169.659000 245.465000 L 169.864000 249.980000 L 170.111000 254.494000 L 170.379000 259.006000 L 170.650000 263.517000 L 170.921000 268.029000 L 171.192000 272.541000 L 171.463000 277.053000 L 171.733000 281.565000 L 172.004000 286.077000 L 172.275000 290.589000 L 172.546000 295.100000 L 172.817000 299.612000" fill="none" id="30" stroke="#989c37" stroke-width="0.5" /><path d="M 391.778000 172.904000 L 391.748000 176.866000 L 391.719000 180.828000 L 391.690000 184.790000 L 391.661000 188.752000 L 391.632000 192.715000 L 391.602000 196.677000 L 391.573000 200.639000 L 391.544000 204.601000 L 391.515000 208.563000 L 391.486000 212.526000 L 391.458000 216.488000 L 391.438000 220.450000 L 391.432000 224.412000 L 391.431000 228.375000 L 391.431000 232.337000 L 391.431000 236.299000 L 391.431000 240.262000 L 391.431000 244.224000 L 391.431000 248.186000 L 391.431000 252.149000 L 391.431000 256.111000 L 391.431000 260.073000 L 391.431000 264.036000 L 391.431000 267.998000 L 391.431000 271.960000 L 391.434000 275.923000 L 391.460000 279.885000 L 391.521000 283.847000 L 391.595000 287.808000 L 391.683000 291.770000" fill="none" id="31" stroke="#bb568c" stroke-width="0.5" /><path d="M 599.620000 98.777600 L 599.521000 102.283000 L 599.422000 105.788000 L 599.322000 109.294000 L 599.223000 112.799000 L 599.110000 116.304000 L 598.957000 119.808000 L 598.775000 123.310000 L 598.583000 126.811000 L 598.381000 130.312000 L 598.157000 133.812000 L 597.910000 137.310000 L 597.651000 140.807000 L 597.389000 144.304000 L 597.127000 147.801000 L 596.866000 151.298000 L 596.604000 154.795000 L 596.343000 158.292000 L 596.081000 161.789000 L 595.820000 165.286000 L 595.558000 168.783000 L 595.297000 172.281000 L 595.035000 175.778000 L 594.774000 179.275000 L 594.512000 182.772000 L 594.251000 186.269000 L 593.989000 189.766000 L 593.728000 193.263000 L 593.466000 196.760000 L 593.204000 200.257000 L 592.943000 203.754000" fill="none" id="32" stroke="#cfe395" stroke-width="0.5" /><path d="M 166.171000 145.573000 L 170.455000 143.072000 L 174.888000 140.848000 L 179.503000 139.030000 L 184.236000 137.545000 L 188.976000 136.085000 L 193.750000 134.739000 L 198.525000 133.395000 L 203.315000 132.107000 L 208.105000 130.819000 L 212.893000 129.525000 L 217.672000 128.195000 L 222.444000 126.845000 L 227.217000 125.495000 L 231.990000 124.145000 L 236.763000 122.795000 L 241.536000 121.445000 L 246.309000 120.095000 L 251.082000 118.745000 L 255.855000 117.395000 L 260.628000 116.045000 L 265.401000 114.695000 L 270.174000 113.345000 L 274.946000 111.995000 L 279.719000 110.645000 L 284.506000 109.345000 L 289.297000 108.060000 L 294.088000 106.774000 L 298.878000 105.488000 L 303.669000 104.203000 L 308.459000 102.917000 L 313.250000 101.632000 L 318.041000 100.346000 L 322.831000 99.059900 L 327.599000 97.693100 L 332.359000 96.297700 L 337.119000 94.902400 L 341.879000 93.507000 L 346.639000 92.111700 L 351.399000 90.716300 L 356.158000 89.321000 L 360.918000 87.925600 L 365.678000 86.530300 L 370.441000 85.144900 L 375.215000 83.799900 L 379.994000 82.472400 L 384.774000 81.144800 L 389.553000 79.817300 L 394.331000 78.487200 L 399.101000 77.124600 L 403.865000 75.745700 L 408.630000 74.366800 L 413.394000 72.987900 L 418.159000 71.609000 L 422.924000 70.230200 L 427.688000 68.851300 L 432.453000 67.472400 L 437.218000 66.093500 L 441.982000 64.714600" fill="none" id="33" stroke="#c45372" stroke-width="0.5" /><path d="M 198.329000 174.392000 L 198.594000 179.021000 L 198.886000 183.649000 L 199.211000 188.274000 L 199.567000 192.898000 L 199.922000 197.521000 L 200.268000 202.145000 L 200.562000 206.772000 L 200.813000 211.402000 L 201.055000 216.033000 L 201.288000 220.664000 L 201.491000 225.297000 L 201.668000 229.930000 L 201.837000 234.564000 L 202.005000 239.198000 L 202.172000 243.832000 L 202.339000 248.466000 L 202.493000 253.100000 L 202.626000 257.735000 L 202.745000 262.370000 L 202.862000 267.006000 L 202.978000 271.641000 L 203.095000 276.277000 L 203.212000 280.912000 L 203.329000 285.548000 L 203.446000 290.183000 L 203.562000 294.818000 L 203.679000 299.454000 L 203.796000 304.089000 L 203.913000 308.725000 L 204.030000 313.360000" fill="none" id="34" stroke="#008c6f" stroke-width="0.5" /><path d="M 214.140000 67.407500 L 218.892000 66.112200 L 223.645000 64.816900 L 228.398000 63.521700 L 233.151000 62.226600 L 237.919000 60.988600 L 242.706000 59.826700 L 247.494000 58.671000 L 252.283000 57.515400 L 257.071000 56.359700 L 261.860000 55.204100 L 266.648000 54.048400 L 271.437000 52.892800 L 276.226000 51.737100 L 281.009000 50.559100 L 285.781000 49.338100 L 290.550000 48.102600 L 295.318000 46.865900 L 300.086000 45.629200 L 304.855000 44.392600 L 309.623000 43.157000 L 314.408000 41.986500 L 319.203000 40.858400 L 324.000000 39.736300 L 328.796000 38.614300 L 333.593000 37.492300 L 338.389000 36.370200 L 343.186000 35.248200 L 347.987000 34.147200 L 352.799000 33.091100 L 357.615000 32.058100 L 362.432000 31.025100 L 367.252000 30.007800 L 372.078000 29.019500 L 376.907000 28.045600 L 381.735000 27.071700 L 386.564000 26.097800 L 391.393000 25.123900 L 396.222000 24.150000 L 401.051000 23.176100 L 405.879000 22.202200 L 410.708000 21.228300 L 415.537000 20.254400 L 420.366000 19.280500 L 425.195000 18.306600 L 430.024000 17.332800 L 434.853000 16.361400 L 439.686000 15.410400 L 444.528000 14.502800 L 449.373000 13.612000 L 454.218000 12.721200 L 459.062000 11.830400 L 463.907000 10.939600 L 468.752000 10.048770 L 473.597000 9.157980 L 478.442000 8.267180 L 483.287000 7.376380 L 488.131000 6.485580 L 492.976000 5.594790 L 497.821000 4.703990 L 502.666000 3.813190 L 507.511000 2.922390 L 512.356000 2.031600 L 517.200000 1.140798 L 522.045000 0.250000" fill="none" id="35" stroke="#ff94af" stroke-width="0.5" /><path d="M 229.415000 62.210600 L 234.219000 61.008400 L 239.035000 59.853400 L 243.864000 58.757300 L 248.709000 57.734100 L 253.572000 56.799200 L 258.442000 55.901800 L 263.312000 55.007800 L 268.183000 54.113800 L 273.054000 53.219800 L 277.922000 52.316600 L 282.782000 51.365300 L 287.631000 50.358400 L 292.469000 49.304800 L 297.298000 48.209300 L 302.125000 47.102700 L 306.952000 45.996200 L 311.779000 44.889700 L 316.606000 43.783100 L 321.432000 42.676600 L 326.259000 41.570100 L 331.086000 40.463500 L 335.913000 39.357000 L 340.739000 38.250400 L 345.566000 37.143900 L 350.393000 36.037400 L 355.220000 34.930800 L 360.047000 33.824300 L 364.874000 32.720600 L 369.705000 31.633300 L 374.542000 30.573900 L 379.383000 29.528600 L 384.224000 28.485100 L 389.064000 27.441600 L 393.905000 26.398000 L 398.746000 25.354500 L 403.586000 24.308300 L 408.421000 23.238300 L 413.241000 22.103800 L 418.055000 20.940200 L 422.868000 19.774600 L 427.685000 18.626600 L 432.519000 17.553700 L 437.362000 16.519600 L 442.205000 15.488400 L 447.040000 14.416800 L 451.856000 13.265500 L 456.659000 12.061000" fill="none" id="36" stroke="#ff94af" stroke-width="0.5" /><path d="M 224.943000 63.935000 L 229.788000 63.081500 L 234.640000 62.265400 L 239.499000 61.497800 L 244.366000 60.777900 L 249.233000 60.054200 L 254.094000 59.297300 L 258.948000 58.496200 L 263.801000 57.685800 L 268.653000 56.874500 L 273.504000 56.053400 L 278.350000 55.203000 L 283.192000 54.329500 L 288.032000 53.450000 L 292.873000 52.570400 L 297.713000 51.690900 L 302.554000 50.811300 L 307.394000 49.930200 L 312.233000 49.039900 L 317.068000 48.130900 L 321.901000 47.207900 L 326.733000 46.282800 L 331.565000 45.357600 L 336.397000 44.432400 L 341.229000 43.507300 L 346.061000 42.582100 L 350.893000 41.656900 L 355.725000 40.731800 L 360.557000 39.806700 L 365.390000 38.883900 L 370.227000 37.984000 L 375.070000 37.120100 L 379.916000 36.271600 L 384.762000 35.423600 L 389.609000 34.575600 L 394.455000 33.727600 L 399.301000 32.879600 L 404.147000 32.031600 L 408.993000 31.183600 L 413.840000 30.335600 L 418.686000 29.487600 L 423.532000 28.639600 L 428.378000 27.791600 L 433.225000 26.943600 L 438.071000 26.095600 L 442.917000 25.247600 L 447.763000 24.399600 L 452.609000 23.551300 L 457.454000 22.695400 L 462.296000 21.824600 L 467.138000 20.948000 L 471.979000 20.070800 L 476.820000 19.193600 L 481.661000 18.316400 L 486.502000 17.439200 L 491.343000 16.562000 L 496.184000 15.684800 L 501.025000 14.807600 L 505.866000 13.930400 L 510.707000 13.053200" fill="none" id="37" stroke="#488656" stroke-width="0.5" /><path d="M 181.394000 214.109000 L 182.707000 213.459000 L 184.020000 212.812000 L 185.342000 212.183000 L 186.667000 211.560000 L 188.002000 210.958000 L 189.340000 210.365000 L 190.685000 209.785000 L 192.033000 209.213000 L 193.384000 208.650000 L 194.740000 208.099000 L 196.099000 207.553000 L 197.458000 207.008000 L 198.817000 206.463000 L 200.177000 205.920000 L 201.536000 205.377000 L 202.897000 204.835000 L 204.257000 204.293000 L 205.617000 203.751000 L 206.977000 203.209000 L 208.337000 202.667000 L 209.698000 202.126000 L 211.058000 201.584000 L 212.415000 201.035000 L 213.769000 200.478000 L 215.118000 199.908000 L 216.462000 199.328000 L 217.800000 198.733000 L 219.136000 198.133000 L 220.465000 197.519000 L 221.793000 196.904000" fill="none" id="38" stroke="#ffc0e1" stroke-width="0.5" /><path d="M 189.636000 184.030000 L 190.741000 184.354000 L 191.847000 184.678000 L 192.947000 185.019000 L 194.048000 185.361000 L 195.140000 185.727000 L 196.233000 186.093000 L 197.319000 186.477000 L 198.405000 186.861000 L 199.490000 187.247000 L 200.576000 187.634000 L 201.661000 188.020000 L 202.747000 188.406000 L 203.832000 188.793000 L 204.917000 189.179000 L 206.003000 189.565000 L 207.088000 189.952000 L 208.174000 190.337000 L 209.260000 190.723000 L 210.347000 191.103000 L 211.435000 191.484000 L 212.525000 191.855000 L 213.616000 192.227000 L 214.714000 192.575000 L 215.812000 192.923000 L 216.913000 193.263000 L 218.014000 193.603000 L 219.116000 193.940000 L 220.217000 194.277000 L 221.320000 194.610000 L 222.423000 194.943000" fill="none" id="39" stroke="#6c8139" stroke-width="0.5" /><path d="M 181.289000 182.447000 L 182.532000 183.218000 L 183.775000 183.988000 L 185.052000 184.700000 L 186.330000 185.412000 L 187.649000 186.042000 L 188.969000 186.672000 L 190.323000 187.225000 L 191.677000 187.777000 L 193.047000 188.290000 L 194.416000 188.802000 L 195.796000 189.286000 L 197.176000 189.770000 L 198.556000 190.254000 L 199.936000 190.739000 L 201.316000 191.223000 L 202.696000 191.707000 L 204.075000 192.191000 L 205.455000 192.676000 L 206.835000 193.160000 L 208.215000 193.644000 L 209.595000 194.128000 L 210.975000 194.612000 L 212.355000 195.097000 L 213.735000 195.581000 L 215.114000 196.065000 L 216.494000 196.549000 L 217.874000 197.034000 L 219.254000 197.518000 L 220.634000 198.002000 L 222.014000 198.486000" fill="none" id="40" stroke="#a9d0ff" stroke-width="0.5" /><path d="M 260.344000 322.762000 L 260.300000 323.301000 L 260.256000 323.841000 L 260.218000 324.381000 L 260.180000 324.920000 L 260.150000 325.461000 L 260.119000 326.001000 L 260.112000 326.542000 L 260.105000 327.084000 L 260.100000 327.625000 L 260.094000 328.166000 L 260.096000 328.707000 L 260.098000 329.248000 L 260.101000 329.790000 L 260.105000 330.331000 L 260.110000 330.872000 L 260.114000 331.413000 L 260.120000 331.954000 L 260.125000 332.496000 L 260.130000 333.037000 L 260.135000 333.578000 L 260.141000 334.119000 L 260.146000 334.661000 L 260.151000 335.202000 L 260.156000 335.743000 L 260.161000 336.284000 L 260.166000 336.825000 L 260.172000 337.367000 L 260.177000 337.908000 L 260.187000 338.990000" fill="none" id="41" stroke="#a98c2c" stroke-width="0.5" /><path d="M 262.549000 318.746000 L 262.580000 319.410000 L 262.610000 320.074000 L 262.646000 320.738000 L 262.682000 321.402000 L 262.728000 322.065000 L 262.776000 322.728000 L 262.830000 323.391000 L 262.886000 324.053000 L 262.944000 324.715000 L 263.001000 325.378000 L 263.063000 326.040000 L 263.126000 326.701000 L 263.190000 327.363000 L 263.253000 328.025000 L 263.317000 328.687000 L 263.381000 329.348000 L 263.446000 330.010000 L 263.510000 330.672000 L 263.574000 331.333000 L 263.638000 331.995000 L 263.702000 332.657000 L 263.767000 333.318000 L 263.831000 333.980000 L 263.895000 334.642000 L 263.959000 335.304000 L 264.023000 335.965000 L 264.088000 336.627000 L 264.152000 337.289000 L 264.216000 337.950000 L 264.344000 339.274000" fill="none" id="42" stroke="#0294bb" stroke-width="0.5" /><path d="M 79.746100 656.116000 L 84.098200 658.551000 L 88.504800 660.885000 L 92.979500 663.086000 L 97.512100 665.165000 L 102.059000 667.214000 L 106.607000 669.259000 L 111.154000 671.305000 L 115.703000 673.349000 L 120.260000 675.375000 L 124.834000 677.360000 L 129.418000 679.325000 L 134.002000 681.287000 L 138.585000 683.254000 L 143.159000 685.241000 L 147.720000 687.257000 L 152.274000 689.289000 L 156.827000 691.323000 L 161.380000 693.357000 L 165.933000 695.392000 L 170.487000 697.423000 L 175.055000 699.424000 L 179.654000 701.351000 L 184.276000 703.223000 L 188.904000 705.081000 L 193.537000 706.925000 L 198.187000 708.728000 L 202.845000 710.509000 L 207.504000 712.287000 L 212.163000 714.065000 L 216.822000 715.843000 L 221.481000 717.622000 L 226.140000 719.400000" fill="none" id="43" stroke="#d7b555" stroke-width="0.5" /><path d="M 83.431100 657.864000 L 86.990200 660.565000 L 90.704100 663.047000 L 94.608100 665.218000 L 98.662200 667.092000 L 102.754000 668.887000 L 106.908000 670.528000 L 111.074000 672.142000 L 115.243000 673.747000 L 119.417000 675.340000 L 123.602000 676.905000 L 127.794000 678.449000 L 131.988000 679.988000 L 136.182000 681.527000 L 140.375000 683.070000 L 144.552000 684.655000 L 148.698000 686.319000 L 152.826000 688.027000 L 156.954000 689.734000 L 161.083000 691.442000 L 165.228000 693.107000 L 169.406000 694.689000 L 173.597000 696.235000 L 177.809000 697.726000 L 182.041000 699.156000 L 186.276000 700.580000 L 190.510000 702.004000 L 194.745000 703.428000 L 198.979000 704.852000 L 203.214000 706.276000 L 207.449000 707.700000 L 211.683000 709.124000" fill="none" id="44" stroke="#d7b555" stroke-width="0.5" /></svg>