<?xml version="1.0" encoding="utf-8" ?>
<svg baseProfile="full" height="453.26167" version="1.1" viewBox="0,0,492.26167,453.26167" width="492.26167" xmlns="http://www.w3.org/2000/svg" xmlns:ev="http://www.w3.org/2001/xml-events" xmlns:xlink="http://www.w3.org/1999/xlink"><defs><style type="text/css"><![CDATA[
	.background { fill: white; }
	.line { stroke: firebrick; stroke-width: .1mm; }
	.blacksquare { fill: indigo; }
	.whitesquare { fill: white; }
]]></style></defs><rect class="background" height="100%" width="100%" x="0" y="0" /><path d="M 141.330615 94.341425 L 138.894930 91.168502 L 136.459245 87.995580 L 135.857175 87.211275" fill="none" id="1" stroke="black" stroke-width="1.26167" /><path d="M 81.444665 86.774735 L 78.740540 89.722227 L 76.036415 92.669718 L 73.842042 96.012539 L 71.660262 99.365125 L 69.805435 102.902864 L 68.052544 106.498330 L 66.451305 110.157676 L 65.103342 113.923708 L 63.755380 117.689740 L 62.710261 121.546409 L 61.767654 125.433760 L 60.833753 129.322532 L 60.490202 133.307751 L 60.146652 137.292971 L 59.872845 141.281191 L 59.872845 145.281191 L 59.872845 149.281191 L 59.946474 153.279130 L 60.170189 157.272869 L 60.393904 161.266608 L 60.973758 165.204295 L 61.987619 169.073673 L 63.001480 172.943051 L 64.304599 176.716382 L 65.806542 180.423694 L 67.308486 184.131007 L 69.196165 187.651290 L 71.176769 191.126518 L 73.164013 194.597758 L 75.301438 197.978795 L 77.438863 201.359833 L 79.737372 204.621023 L 82.361542 207.639918 L 84.985713 210.658813 L 87.791854 213.502830 L 90.704093 216.244885 L 93.616332 218.986940 L 96.787816 221.423769 L 99.965042 223.853838 L 103.279689 226.063956 L 106.856863 227.853878 L 110.434038 229.643801 L 114.244573 230.821878 L 118.105150 231.868752 L 122.001308 232.732953 L 125.972571 233.211571 L 129.943833 233.690189 L 133.940650 233.743205 L 137.940650 233.743205 L 141.897027 233.338632 L 145.805089 232.485958 L 149.690714 231.565499 L 153.335736 229.918132 L 156.980757 228.270765 L 160.356511 226.166904 L 163.561579 223.773675 L 166.604310 221.203093 L 169.271046 218.221731 L 171.932232 215.236428 L 173.868389 211.736242 L 175.804546 208.236057 L 177.232601 204.518975 L 178.421004 200.699590 L 179.443792 196.844263 L 179.945542 192.875857 L 180.447293 188.907451 L 180.610645 184.917737 L 180.610645 180.917737 L 180.610645 176.917737 L 180.523533 172.918870 L 180.419446 168.920225 L 180.315360 164.921579 L 179.632095 160.995289 L 178.749249 157.093933 L 177.866403 153.192576 L 176.745988 149.362047 L 175.348346 145.614168 L 173.950704 141.866289 L 172.551454 138.119077 L 170.886479 134.482064 L 169.221505 130.845052 L 167.556530 127.208040 L 165.643412 123.705472 L 163.505987 120.324434 L 161.368563 116.943397 L 159.152943 113.618259 L 156.645443 110.501779 L 154.137944 107.385299 L 151.567478 104.328847 L 148.574319 101.675359 L 145.581160 99.021871 L 143.584385 97.251695" fill="none" id="2" stroke="black" stroke-width="1.26167" /><path d="M 403.734105 3.541105 L 400.162270 5.341660 L 396.590436 7.142214 L 393.253776 9.324306 L 390.040251 11.706167 L 386.884675 14.155291 L 384.053500 16.980967 L 381.222324 19.806643 L 378.522484 22.750799 L 376.002363 25.857082 L 373.482243 28.963364 L 371.267004 32.280796 L 369.245436 35.732355 L 367.223868 39.183914 L 365.472902 42.775887 L 363.814686 46.415985 L 362.173667 50.062188 L 361.166009 53.933186 L 360.158351 57.804184 L 359.496794 61.731503 L 359.225097 65.722265 L 358.980625 69.713953 L 358.980625 73.713953 L 358.980625 77.713953 L 359.792004 81.605449 L 360.843025 85.464899 L 362.123429 89.237635 L 363.888399 92.827186 L 365.653369 96.416737 L 367.722930 99.834314 L 369.884817 103.199763 L 372.071602 106.547625 L 374.520744 109.710172 L 376.969886 112.872719 L 379.526351 115.942382 L 382.304722 118.819995 L 385.083094 121.697607 L 388.018937 124.406152 L 391.086366 126.973423 L 394.153794 129.540695 L 397.402787 131.865946 L 400.725663 134.092714 L 404.048539 136.319482 L 407.585162 138.183013 L 411.145313 140.006560 L 414.748296 141.728826 L 418.536583 143.012914 L 422.324870 144.297002 L 426.188629 145.276525 L 430.138164 145.909912 L 434.087698 146.543298 L 438.084717 146.580715 L 442.084717 146.580715 L 446.068228 146.298313 L 450.041049 145.832809 L 453.865794 144.849079 L 457.484797 143.145315 L 460.955726 141.206807 L 464.052112 138.674536 L 467.094431 136.087814 L 469.648631 133.009492 L 472.202830 129.931170 L 474.153407 126.454297 L 475.981002 122.896221 L 477.527192 119.217947 L 478.834180 115.437500 L 480.098666 111.645679 L 480.854417 107.717723 L 481.610169 103.789767 L 481.972205 99.824279 L 481.972205 95.824279 L 481.972205 91.824279 L 481.972205 87.824279 L 481.972205 83.824279 L 481.972205 79.824279 L 481.358629 75.880373 L 480.633309 71.946684 L 479.907989 68.012995 L 478.905092 64.144477 L 477.803982 60.299018 L 476.702871 56.453559 L 475.401203 52.676714 L 473.916047 48.962645 L 472.430891 45.248575 L 470.882355 41.562233 L 469.162780 37.950715 L 467.443205 34.339197 L 465.697659 30.741413 L 463.680743 27.287133 L 461.663827 23.832853 L 459.623439 20.394416 L 457.174295 17.231870 L 454.725151 14.069324 L 452.141495 11.028694 L 449.234232 8.281364 L 446.326970 5.534033 L 442.893353 3.515191 L 439.372059 1.617695 L 437.540685 0.630835" fill="none" id="3" stroke="black" stroke-width="1.26167" /><path d="M 416.612805 1.212885 L 420.547860 0.630835 L 424.547860 0.630835 L 428.533821 0.864646 L 432.426572 1.637973 L 436.109612 3.198490 L 439.543114 5.240203 L 442.878540 7.443136 L 446.102491 9.810865 L 449.095633 12.456573 L 451.993418 15.213224 L 454.810273 18.053176 L 455.570865 18.820005" fill="none" id="4" stroke="black" stroke-width="1.26167" /><path d="M 401.158365 6.742395 L 397.168511 7.027113 L 393.522628 8.265452 L 390.363586 10.707560 L 387.447134 13.445134 L 384.836380 16.470258 L 382.282184 19.548582 L 380.317018 23.028966 L 378.380865 26.529153 L 376.800256 30.191135 L 375.433005 33.950207 L 374.065753 37.709279 L 373.174254 41.600800 L 372.402329 45.525610 L 371.630403 49.450419 L 371.091665 53.405851 L 370.824065 57.396890 L 370.556466 61.387929 L 370.288867 65.378968 L 370.249485 69.377649 L 370.249485 73.377649 L 370.249485 77.377649 L 370.444564 81.355231 L 371.351915 85.250962 L 372.259265 89.146692 L 373.166616 93.042422 L 374.419496 96.832539 L 375.845225 100.569824 L 377.270955 104.307108 L 378.788806 108.004417 L 380.544528 111.598501 L 382.300250 115.192585 L 384.088701 118.769505 L 386.046866 122.257425 L 388.005032 125.745346 L 390.033619 129.191095 L 392.183940 132.563945 L 394.334261 135.936796 L 396.668452 139.183442 L 399.042713 142.402586 L 399.870495 143.524935" fill="none" id="5" stroke="black" stroke-width="1.26167" /><path d="M 371.859325 65.238755 L 375.216249 67.084396 L 378.921462 68.591511 L 382.630417 70.088404 L 386.432974 71.329596 L 390.256936 72.501045 L 394.101107 73.606643 L 397.964596 74.641450 L 401.837523 75.641665 L 405.721236 76.597027 L 409.625512 77.466870 L 413.529789 78.336712 L 417.434065 79.206554 L 421.338342 80.076396 L 425.242618 80.946239 L 429.159222 81.756384 L 433.088707 82.504145 L 437.018192 83.251906 L 440.947677 83.999668 L 444.877162 84.747429 L 448.806647 85.495190 L 452.736132 86.242951 L 456.665617 86.990712 L 460.595102 87.738473 L 464.524588 88.486234 L 468.454073 89.233995 L 472.383558 89.981757 L 476.313043 90.729518 L 480.242528 91.477279 L 484.143869 92.349988 L 488.014460 93.359207 L 490.665325 94.050395" fill="none" id="6" stroke="black" stroke-width="1.26167" /><path d="M 13.831495 148.617905 L 13.831495 144.617905 L 13.619621 147.580522 L 13.035902 151.537702 L 12.543625 155.501590 L 12.543625 152.576580 L 12.543625 148.576580 L 12.945945 145.561353 L 13.187565 149.539263 L 13.572906 153.503457 L 15.119365 155.166005" fill="none" id="7" stroke="black" stroke-width="1.26167" /><path d="M 0.630835 163.751285 L 4.410588 165.027747 L 8.130294 166.498729 L 11.874869 167.903992 L 15.636545 169.264062 L 19.437756 170.508560 L 23.244322 171.737403 L 27.028590 173.031538 L 30.791640 174.387803 L 34.554691 175.744067 L 38.317741 177.100331 L 42.080791 178.456595 L 45.843842 179.812859 L 49.606892 181.169123 L 53.322369 182.648818 L 57.022253 184.168967 L 60.722138 185.689117 L 64.422022 187.209266 L 68.071200 188.846996 L 71.716221 190.494365 L 75.361241 192.141734 L 78.998160 193.806654 L 82.616415 195.512008 L 86.234670 197.217363 L 89.852924 198.922717 L 93.471179 200.628072 L 97.089433 202.333426 L 100.703648 204.047017 L 104.267144 205.864019 L 107.830640 207.681022 L 111.394136 209.498024 L 115.002476 211.221715 L 117.826995 210.687625 L 117.826995 210.606585" fill="none" id="8" stroke="black" stroke-width="1.26167" /><path d="M 129.739785 191.835365 L 129.739785 195.835365 L 129.739785 199.835365 L 129.739785 203.835365 L 129.739785 207.835365 L 129.484784 205.616011 L 129.273112 201.629922 L 128.818291 197.655864 L 128.451915 193.676761 L 128.129955 191.052769 L 128.129955 195.052769 L 128.129955 199.052769 L 128.975261 202.931410 L 129.417825 205.017277 L 129.417825 201.570173 L 129.417825 205.570173 L 130.200431 209.486442 L 131.240536 213.346923 L 132.133188 217.242281 L 132.315525 217.736735" fill="none" id="9" stroke="black" stroke-width="1.26167" /><path d="M 62.126615 167.098095 L 62.448585 166.626804 L 62.770555 170.609048 L 62.908433 174.601444 L 63.348274 178.577188 L 63.829102 182.546555 L 64.251557 184.966837 L 63.310697 181.096109 L 63.092525 177.109467 L 62.770555 173.129182 L 62.689880 170.592059 L 62.448585 174.578752 L 62.448585 178.578752 L 62.448585 180.921865" fill="none" id="10" stroke="black" stroke-width="1.26167" /><path d="M 178.034905 67.566975 L 178.034905 71.566975 L 178.034905 75.566975 L 178.034905 79.566975 L 178.034905 83.566975 L 178.034905 87.566975 L 178.034905 91.566975 L 178.034905 95.566975 L 178.034905 99.566975 L 178.034905 103.566975 L 178.034905 107.566975 L 178.034905 111.566975 L 178.034905 115.566975 L 178.034905 119.566975 L 178.034905 123.566975 L 178.034905 127.566975 L 178.034905 131.566975 L 178.034905 135.566975 L 178.034905 139.566975 L 178.034905 143.566975 L 178.034905 147.566975 L 178.034905 151.566975 L 178.034905 155.566975 L 178.034905 159.566975 L 178.034905 163.566975 L 178.034905 167.566975 L 178.034905 171.566975 L 178.034905 175.566975 L 178.034905 179.566975 L 178.034905 183.566975 L 178.034905 187.566975 L 178.034905 191.566975 L 178.034905 195.566975 L 178.034905 199.566975 L 178.034905 203.566975 L 178.034905 207.566975 L 178.034905 211.566975 L 178.034905 215.566975 L 178.245378 219.560513 L 178.356875 223.557090 L 178.356875 227.486135" fill="none" id="11" stroke="black" stroke-width="1.26167" /><path d="M 159.360795 72.659935 L 163.360795 72.659935 L 167.360795 72.659935 L 171.360795 72.659935 L 175.354708 72.741207 L 179.096335 73.930111 L 181.441334 77.037731 L 182.864425 79.208035" fill="none" id="12" stroke="black" stroke-width="1.26167" /><path d="M 17.051175 137.995425 L 13.546397 139.853776 L 13.839511 139.443323 L 16.834325 136.792731 L 19.914404 134.240652 L 22.994484 131.688572 L 26.074564 129.136493 L 29.172940 126.606837 L 32.291134 124.101469 L 35.409327 121.596102 L 38.578299 119.155900 L 41.769855 116.744682 L 44.961410 114.333463 L 48.152965 111.922245 L 51.344520 109.511026 L 54.536076 107.099808 L 57.727631 104.688589 L 60.986692 102.369627 L 64.250590 100.057276 L 67.514489 97.744925 L 70.785907 95.443320 L 74.076354 93.168906 L 77.366800 90.894491 L 80.657247 88.620076 L 84.077368 86.546392 L 87.503402 84.481860 L 90.929435 82.417328 L 94.488666 80.595544 L 98.070455 78.814875 L 101.672827 77.080088 L 105.384511 75.588980 L 109.096195 74.097871 L 109.777805 73.824045" fill="none" id="13" stroke="black" stroke-width="1.26167" /><path d="M 57.297105 105.982495 L 60.529464 103.626258 L 63.761824 101.270021 L 66.994183 98.913784 L 70.373376 96.774994 L 73.766709 94.657142 L 77.160041 92.539290 L 80.553373 90.421439 L 84.121424 88.616189 L 87.703213 86.835518 L 91.319678 85.133626 L 95.051969 83.694875 L 98.784260 82.256125 L 102.544300 80.897820 L 106.369903 79.729589 L 110.195505 78.561358 L 114.037771 77.458232 L 117.954224 76.644969 L 121.870677 75.831705 L 125.792643 75.049241 L 129.748010 74.453363 L 133.703377 73.857485 L 137.677086 73.447928 L 141.672721 73.261118 L 145.668874 73.096475 L 149.668874 73.096475 L 153.668874 73.096475 L 157.668874 73.096475 L 157.750955 73.096475" fill="none" id="14" stroke="black" stroke-width="1.26167" /><path d="M 167.731945 79.644575 L 170.472973 78.097418 L 174.263433 78.780850 L 177.202841 81.466738 L 179.719277 84.573768 L 181.740844 88.025328 L 183.453555 91.629309 L 184.894201 95.355210 L 185.779439 99.256024 L 186.547341 103.180665 L 187.049995 107.135934 L 187.049995 111.135934 L 187.049995 115.135934 L 186.084095 118.351125" fill="none" id="15" stroke="black" stroke-width="1.26167" /><path d="M 132.315525 194.745625 L 132.005111 194.718131 L 135.068087 192.178173 L 137.980324 189.436116 L 140.889125 186.690473 L 143.752752 183.897690 L 146.616380 181.104907 L 149.411467 178.243643 L 152.201746 175.377576 L 155.012284 172.531590 L 157.853732 169.716244 L 160.695180 166.900899 L 163.456564 164.009557 L 166.120018 161.025262 L 168.783471 158.040968 L 171.446925 155.056673 L 174.110379 152.072378 L 176.773832 149.088084 L 179.326407 146.010276 L 181.818596 142.881539 L 184.272814 139.723692 L 186.647075 136.504549 L 187.371965 135.521705" fill="none" id="16" stroke="black" stroke-width="1.26167" /><path d="M 141.652585 182.376995 L 144.988116 180.200155 L 147.971929 177.538013 L 150.939341 174.855763 L 153.767375 172.035586 L 156.418409 169.040254 L 158.972535 165.962791 L 161.492656 162.856508 L 164.012776 159.750225 L 166.532897 156.643943 L 168.911978 153.432725 L 171.163048 150.126263 L 173.372970 146.793324 L 175.449499 143.374549 L 177.498040 139.941024 L 179.144218 136.295465 L 180.758660 132.637049 L 182.114195 128.873736 L 183.164125 125.030054 L 183.832428 121.086419 L 184.117204 117.096569 L 184.401979 113.106719 L 184.686755 109.116869 L 185.209388 105.155681 L 186.198309 101.287063 L 187.792359 97.636960 L 190.591635 95.796555" fill="none" id="17" stroke="black" stroke-width="1.26167" /><path d="M 185.762125 93.177315 L 186.038047 97.167787 L 186.313969 101.158259 L 186.406065 105.155079 L 186.406065 109.155079 L 186.406065 113.155079 L 186.307761 117.148098 L 185.742490 121.107955 L 185.177218 125.067812 L 184.009750 128.887819 L 182.772072 132.691522 L 181.464966 136.470200 L 179.991297 140.188842 L 178.517629 143.907485 L 176.839863 147.535265 L 175.062674 151.118782 L 173.171192 154.638059 L 171.033766 158.019096 L 169.985725 159.676915" fill="none" id="18" stroke="black" stroke-width="1.26167" /><path d="M 21.558715 134.794135 L 24.948109 132.968642 L 28.073458 130.474268 L 31.141642 127.907900 L 34.209826 125.341531 L 37.278010 122.775163 L 40.346194 120.208794 L 43.414378 117.642426 L 46.482562 115.076058 L 49.654943 112.645246 L 52.924106 110.340344 L 56.199232 108.044342 L 59.574313 105.897524 L 62.949394 103.750706 L 66.399127 101.731890 L 69.929531 99.851399 L 73.459936 97.970909 L 77.053410 96.214373 L 80.651848 94.467591 L 84.286616 92.799892 L 87.956116 91.207796 L 91.653250 89.684878 L 95.409729 88.310517 L 99.166208 86.936156 L 102.922686 85.561795 L 106.731897 84.345659 L 110.561828 83.191700 L 112.675515 82.554845" fill="none" id="19" stroke="black" stroke-width="1.26167" /><path d="M 40.876765 115.295345 L 44.276202 113.209050 L 47.737471 111.210621 L 51.245561 109.288824 L 54.753651 107.367026 L 58.310554 105.538245 L 61.885158 103.743196 L 65.459763 101.948147 L 69.034367 100.153098 L 72.656903 98.458572 L 76.301924 96.811203 L 79.958862 95.190894 L 83.634912 93.613981 L 87.310962 92.037067 L 90.987012 90.460154 L 94.663062 88.883240 L 98.358464 87.355533 L 102.123878 86.005844 L 105.889291 84.656154 L 109.654705 83.306465 L 113.420118 81.956776 L 117.209014 80.681335 L 121.065738 79.620353 L 124.947999 78.670324 L 128.880483 77.938495 L 132.852880 77.473918 L 136.852202 77.461875 L 137.145035 77.461875" fill="none" id="20" stroke="black" stroke-width="1.26167" /><path d="M 107.846005 81.536255 L 109.680114 78.689204 L 113.635481 78.093327 L 117.619661 77.817356 L 121.618691 77.752905 L 125.618691 77.752905 L 129.618691 77.752905 L 133.618691 77.752905 L 137.618691 77.752905 L 141.617227 77.827436 L 145.614141 77.984517 L 149.604620 78.247606 L 153.591183 78.575192 L 157.533759 79.235100 L 161.468262 79.955992 L 165.402765 80.676883 L 169.251815 81.751667 L 172.544109 83.886827 L 173.849335 87.537574 L 173.849335 87.647815" fill="none" id="21" stroke="black" stroke-width="1.26167" /><path d="M 138.110945 72.805455 L 140.620412 71.040034 L 144.615664 70.913775 L 148.615664 70.913775 L 152.570210 71.255071 L 156.430787 72.301944 L 160.291364 73.348817 L 164.105579 74.551369 L 167.909895 75.787162 L 171.709705 77.036146 L 175.475118 78.385836 L 179.240531 79.735526 L 182.945574 81.237935 L 186.616084 82.827700 L 188.659835 84.009975" fill="none" id="22" stroke="black" stroke-width="1.26167" /><path d="M 184.152295 85.756135 L 184.152295 89.756135 L 184.152295 93.756135 L 184.789962 97.700859 L 185.639581 101.606409 L 186.636256 105.480250 L 187.373550 109.410803 L 188.031713 113.352933 L 188.195470 117.349579 L 188.337865 121.346663 L 188.337865 125.346663 L 188.266986 129.335343 L 187.021029 133.136341 L 185.775071 136.937340 L 183.817521 140.424695 L 181.852498 143.908757 L 179.391163 147.052427 L 176.848746 150.140487 L 176.425075 150.655085" fill="none" id="23" stroke="black" stroke-width="1.26167" /><path d="M 111.709605 77.025335 L 115.709605 77.025335 L 119.695465 76.795029 L 123.609287 76.010133 L 127.513984 75.162040 L 131.463518 74.528654 L 135.413052 73.895269 L 139.407378 73.824045 L 143.407378 73.824045 L 147.246708 74.620680 L 150.246907 77.249384 L 153.964208 78.430247 L 154.853255 78.480475" fill="none" id="24" stroke="black" stroke-width="1.26167" /><path d="M 124.910275 75.570205 L 128.579636 74.803644 L 132.567685 74.494661 L 136.555733 74.185678 L 140.552886 74.088253 L 144.552735 74.053488 L 148.552583 74.018722 L 152.552432 73.983956 L 156.544002 74.167398 L 160.508654 74.648192 L 164.420273 75.483440 L 168.295823 76.473449 L 172.158407 77.507151 L 176.030478 78.429521 L 176.425075 78.480475" fill="none" id="25" stroke="black" stroke-width="1.26167" /><path d="M 370.893425 117.187025 L 366.993227 117.710789 L 364.166369 120.341863 L 362.211057 123.817530 L 360.635843 127.485578 L 359.316588 131.261762 L 358.670102 135.208519 L 358.336695 139.181705 L 358.336695 143.181705 L 358.827437 147.149903 L 360.887416 150.395131 L 364.140470 152.520682 L 367.957413 153.565355 L 371.957413 153.565355 L 375.786915 152.493544 L 379.374010 150.844629 L 382.541835 148.402317 L 385.405751 145.632611 L 388.076693 142.655016 L 390.063150 139.207500 L 391.676977 135.571907 L 392.521001 131.661968 L 392.787215 127.690374 L 392.530653 123.726962 L 391.412531 119.886414 L 389.028864 116.763188 L 386.114204 114.077832 L 382.621642 112.127958 L 378.801091 111.188823 L 374.825641 110.810436 L 370.829720 110.991028 L 367.198575 112.270669 L 363.887682 114.515216 L 361.138728 117.386755 L 358.546345 120.432991 L 356.902400 124.064540 L 355.407476 127.765305 L 354.900980 131.733108 L 354.473085 135.705908 L 354.473085 139.705908 L 355.410182 143.410954 L 357.701229 146.689842 L 360.714470 149.242870 L 364.043781 151.421054 L 367.990832 152.069736 L 371.951707 152.526835 L 375.950998 152.451520 L 379.815047 151.816451 L 383.407559 150.057514 L 386.886586 148.130954 L 389.853999 145.448705 L 392.713297 142.677335 L 394.779948 139.252579 L 396.468992 135.693558 L 397.028367 131.732864 L 396.989018 127.774011 L 396.405301 123.816830 L 393.978871 120.737107 L 391.274746 117.789615 L 387.951909 115.602767 L 384.515516 113.555523 L 380.760878 112.241649 L 376.918389 111.130217 L 372.967393 110.784435 L 368.967393 110.784435 L 365.100979 111.624207 L 361.508304 113.161088 L 359.081974 116.341170 L 358.658655 116.895995" fill="none" id="26" stroke="black" stroke-width="1.26167" /><path d="M 237.920855 78.480475 L 234.084056 77.607395 L 230.150099 78.199282 L 226.991558 80.550922 L 224.365678 83.531726 L 222.112694 86.832135 L 220.176542 90.332323 L 218.845521 94.053217 L 218.073595 97.978027 L 217.958875 101.966852 L 218.246195 105.924817 L 219.392086 109.757170 L 222.232189 112.434407 L 225.612802 114.420146 L 229.504225 115.345798 L 233.476005 115.586375 L 237.461334 115.511366 L 241.166547 114.004251 L 244.688695 112.185826 L 247.806888 109.680456 L 250.639357 106.890962 L 253.127196 103.758765 L 254.925951 100.235478 L 256.283400 96.481719 L 256.504327 92.487824 L 256.322127 88.506163 L 255.416278 84.735527 L 252.715133 81.785305 L 249.507899 79.434257 L 245.942541 77.713732 L 243.072335 76.879825" fill="none" id="27" stroke="black" stroke-width="1.26167" /><path d="M 220.856585 86.629215 L 220.856585 90.629215 L 220.856585 94.629215 L 220.856585 98.629215 L 220.856585 102.629215 L 220.856585 106.629215 L 220.856585 110.629215 L 220.856585 114.629215 L 220.856585 118.629215 L 220.856585 122.629215 L 220.856585 126.629215 L 220.856585 130.629215 L 220.856585 134.629215 L 220.856585 138.629215 L 220.881999 142.628757 L 221.026207 146.626156 L 221.170415 150.623556 L 221.314623 154.620956 L 221.458831 158.618355 L 221.603039 162.615755 L 221.747246 166.613155 L 221.997308 170.603793 L 222.362845 174.587056 L 222.728382 178.570319 L 223.093919 182.553582 L 223.459456 186.536845 L 223.824993 190.520107 L 224.190530 194.503370 L 224.556067 198.486633 L 224.958620 202.466184 L 225.391338 206.442709 L 225.824055 210.419235 L 226.256773 214.395760 L 226.689490 218.372286 L 227.122207 222.348811 L 227.554925 226.325337 L 227.987642 230.301863 L 228.420360 234.278388 L 228.919631 238.246763 L 229.459299 242.210191 L 229.998967 246.173618 L 230.538635 250.137046 L 231.078304 254.100473 L 231.617972 258.063901 L 232.157640 262.027329 L 232.697309 265.990756 L 233.236977 269.954184 L 233.785925 273.916203 L 234.446681 277.861250 L 235.107437 281.806298 L 235.768193 285.751346 L 236.428950 289.696394 L 237.089706 293.641441 L 237.750462 297.586489 L 238.411218 301.531537 L 239.071974 305.476584 L 239.732730 309.421632 L 240.503699 313.346275 L 241.299110 317.266392 L 242.094521 321.186510 L 242.889932 325.106627 L 243.685343 329.026745 L 244.480754 332.946862 L 245.276165 336.866980 L 246.071576 340.787097 L 246.928202 344.693213 L 247.916058 348.569311 L 248.903915 352.445410 L 249.891771 356.321509 L 250.879627 360.197607 L 251.867484 364.073706 L 252.855340 367.949804 L 253.883018 371.814251 L 255.140437 375.611473 L 256.397856 379.408695 L 257.655275 383.205917 L 258.912695 387.003140 L 260.170114 390.800362 L 261.481813 394.578765 L 262.844727 398.339412 L 264.207640 402.100060 L 265.570553 405.860707 L 266.940529 409.618498 L 268.574388 413.269595 L 270.208247 416.920691 L 271.842106 420.571787 L 273.512027 424.206296 L 275.221173 427.822761 L 276.930318 431.439226 L 278.639463 435.055692 L 280.348608 438.672157 L 282.057754 442.288623 L 283.766899 445.905088 L 285.476044 449.521554 L 286.859915 452.449755" fill="none" id="28" stroke="black" stroke-width="1.26167" /><path d="M 224.076255 87.793325 L 223.601237 91.765020 L 223.432325 95.754954 L 223.432325 99.754954 L 223.432325 103.754954 L 223.432325 107.754954 L 223.432325 111.754954 L 223.432325 115.754954 L 223.432325 119.754954 L 223.432325 123.754954 L 223.432325 127.754954 L 223.432325 131.754954 L 223.432325 135.754954 L 223.522822 139.752415 L 223.747100 143.746123 L 223.971379 147.739830 L 224.195657 151.733538 L 224.419935 155.727245 L 224.644214 159.720953 L 224.868492 163.714660 L 225.133908 167.705113 L 225.540469 171.684398 L 225.947030 175.663682 L 226.353592 179.642967 L 226.760153 183.622252 L 227.166714 187.601537 L 227.573275 191.580822 L 227.979836 195.560107 L 228.386398 199.539392 L 228.792959 203.518676 L 229.199520 207.497961 L 229.606081 211.477246 L 230.012642 215.456531 L 230.419204 219.435816 L 230.825765 223.415101 L 231.232326 227.394386 L 231.638887 231.373670 L 232.045448 235.352955 L 232.203366 239.231331 L 232.773943 243.190427 L 233.344519 247.149524 L 233.915096 251.108620 L 234.485672 255.067716 L 235.056249 259.026812 L 235.626825 262.985908 L 236.197402 266.945004 L 236.767978 270.904101 L 237.338555 274.863197 L 237.994863 278.808184 L 238.723115 282.741331 L 239.451367 286.674479 L 240.179619 290.607626 L 240.907870 294.540774 L 241.636122 298.473922 L 242.364374 302.407069 L 243.092626 306.340217 L 243.820877 310.273364 L 244.627598 314.190822 L 245.467706 318.101604 L 246.307814 322.012387 L 247.147921 325.923169 L 247.988029 329.833952 L 248.828137 333.744734 L 249.668244 337.655516 L 250.517294 341.564082 L 251.601553 345.414326 L 252.685812 349.264571 L 253.770071 353.114815 L 254.854330 356.965060 L 255.938589 360.815304 L 257.022848 364.665549 L 258.300256 368.454746 L 259.625730 372.228752 L 260.951204 376.002757 L 262.276678 379.776763 L 263.602152 383.550769 L 265.151948 387.237855 L 266.715408 390.919647 L 268.278868 394.601439 L 269.839973 398.284202 L 271.324579 401.998491 L 272.809185 405.712781 L 274.293791 409.427070 L 275.778397 413.141359 L 277.263003 416.855648 L 278.747609 420.569938 L 280.175845 424.306243 L 281.601578 428.043527 L 282.775974 431.863303 L 283.842256 435.718565 L 283.962205 436.152255" fill="none" id="29" stroke="black" stroke-width="1.26167" /><path d="M 259.170715 80.226635 L 258.523752 84.173968 L 257.882845 88.121794 L 257.882845 92.121794 L 257.882845 96.121794 L 257.882845 100.121794 L 257.882845 104.121794 L 257.882845 108.121794 L 257.882845 112.121794 L 257.882845 116.121794 L 257.882845 120.121794 L 257.882845 124.121794 L 258.064456 128.117098 L 258.271210 132.111751 L 258.477963 136.106404 L 258.684716 140.101057 L 258.891469 144.095710 L 259.098222 148.090363 L 259.409175 152.077519 L 259.776389 156.060628 L 260.143602 160.043736 L 260.510816 164.026845 L 260.878030 168.009954 L 261.245244 171.993062 L 261.612458 175.976171 L 261.979672 179.959279 L 262.390045 183.938098 L 262.814172 187.915549 L 263.238299 191.893000 L 263.662426 195.870451 L 264.086553 199.847901 L 264.510680 203.825352 L 264.934807 207.802803 L 265.358934 211.780254 L 265.783061 215.757705 L 266.297610 219.723906 L 266.861111 223.684015 L 267.424612 227.644125 L 267.988112 231.604234 L 268.551613 235.564343 L 269.115114 239.524453 L 269.678614 243.484562 L 270.242115 247.444672 L 270.805616 251.404781 L 271.369117 255.364891 L 271.932617 259.325000 L 272.496118 263.285110 L 273.059619 267.245219 L 273.623119 271.205329 L 274.186620 275.165438 L 274.750121 279.125548 L 275.313621 283.085657 L 275.877122 287.045766 L 276.451349 291.004242 L 277.092472 294.952528 L 277.733595 298.900814 L 278.374718 302.849100 L 279.015842 306.797386 L 279.656965 310.745671 L 280.298088 314.693957 L 280.939211 318.642243 L 281.580334 322.590529 L 282.245490 326.534818 L 282.916648 330.478110 L 283.587805 334.421401 L 284.258963 338.364693 L 284.930120 342.307984 L 285.601277 346.251276 L 286.282780 350.192640 L 287.076911 354.113017 L 287.871042 358.033394 L 288.665173 361.953771 L 289.459304 365.874148 L 290.253435 369.794525 L 291.086702 373.706723 L 291.928942 377.617047 L 292.771182 381.527371 L 293.613422 385.437695 L 294.398265 389.359660 L 295.146175 393.289117 L 295.894084 397.218574 L 296.655533 401.145306 L 297.485732 405.058204 L 298.315932 408.971102 L 299.217775 412.867261 L 300.207252 416.742947 L 301.196728 420.618632 L 302.186205 424.494317 L 303.369183 428.310913 L 304.246155 430.768265" fill="none" id="30" stroke="black" stroke-width="1.26167" /><path d="M 292.333365 367.760985 L 288.955737 365.652415 L 289.842434 364.268665 L 293.578758 365.652436 L 297.298464 367.123418 L 300.953691 368.746682 L 304.598712 370.394051 L 308.243732 372.041421 L 311.888753 373.688790 L 315.533773 375.336159 L 319.178794 376.983528 L 322.823814 378.630898 L 326.463887 380.288762 L 330.054073 382.052441 L 333.645772 383.812911 L 337.290792 385.460281 L 340.935812 387.107651 L 344.580832 388.755021 L 348.204436 390.448208 L 351.806134 392.188256 L 355.407833 393.928305 L 356.082915 394.680955" fill="none" id="31" stroke="black" stroke-width="1.26167" /><path d="M 296.840905 368.343045 L 293.544565 366.080653 L 290.579309 363.523669 L 293.223839 363.748924 L 296.980700 365.122237 L 300.737562 366.495550 L 304.494424 367.868863 L 308.251286 369.242177 L 312.008148 370.615490 L 315.777175 371.953994 L 319.571625 373.219755 L 323.366074 374.485517 L 327.160524 375.751278 L 330.894959 377.181085 L 334.622473 378.631191 L 338.379954 380.002809 L 342.141698 381.361621 L 345.779965 382.457835" fill="none" id="32" stroke="black" stroke-width="1.26167" /><path d="M 266.897935 368.052015 L 263.030034 369.071467 L 259.132420 369.955227 L 255.629065 371.488956 L 259.566726 371.469761 L 263.483475 370.673475 L 267.294249 369.457747 L 271.105024 368.242019 L 274.904540 366.993062 L 278.669405 365.641844 L 282.434271 364.290627 L 286.218243 362.996638 L 290.039706 361.814933 L 290.064764 361.537041 L 286.222369 362.645172 L 282.415802 363.874012 L 278.609235 365.102852 L 274.777561 366.250912 L 270.945067 367.396332 L 267.112572 368.541752 L 263.280078 369.687172 L 259.447584 370.832592 L 255.686213 372.174260 L 256.966936 372.219629 L 260.834946 371.294300 L 264.648646 370.087779 L 268.462346 368.881258 L 272.276046 367.674736 L 276.089746 366.468215 L 279.903446 365.261694 L 283.749861 364.165634 L 287.618235 363.151467 L 291.519858 362.269799 L 290.550643 362.477591 L 286.765301 363.761609 L 283.033009 365.200356 L 279.300717 366.639104 L 275.535538 367.986255 L 271.740445 369.250084 L 267.890876 370.335184 L 264.036034 371.402982 L 260.143643 372.280754 L 257.020627 372.708445 L 260.997059 372.324589 L 264.833074 371.212800 L 266.575965 370.671255" fill="none" id="33" stroke="black" stroke-width="1.26167" /><path d="M 286.215975 372.417415 L 282.417767 373.671854 L 278.619559 374.926293 L 274.777967 376.038266 L 270.925258 377.113734 L 267.072548 378.189202 L 269.208499 378.407434 L 273.022715 377.223656 L 276.824840 375.981140 L 280.626965 374.738624 L 284.429089 373.496108 L 288.231214 372.253592 L 292.057068 371.090064 L 295.914482 370.031594 L 299.779848 369.009049 L 300.279659 369.021100 L 296.459907 370.185182 L 292.691676 371.526984 L 288.923445 372.868786 L 285.120169 374.106514 L 281.307811 375.317266 L 277.495452 376.528018 L 273.638815 377.583212 L 269.760309 378.561571 L 265.881802 379.539930 L 262.788472 380.390660 L 266.756348 379.978265 L 270.593462 378.850814 L 274.482091 377.913495 L 274.947115 377.801405" fill="none" id="34" stroke="black" stroke-width="1.26167" /><path d="M 259.492675 385.659135 L 255.900167 383.900190 L 255.269417 381.002705 L 258.939135 382.244842 L 262.119694 384.670547 L 265.141275 386.743609 L 261.924935 384.407034 L 258.922250 381.764330 L 257.154143 379.256545 L 260.875305 380.505325 L 264.376638 382.439405 L 267.877972 384.373485 L 271.544937 385.942377 L 272.371375 386.241185" fill="none" id="35" stroke="black" stroke-width="1.26167" /><path d="M 330.647485 401.520085 L 327.722341 403.950098 L 324.097893 405.630619 L 326.185675 405.807563 L 329.742396 404.068594 L 333.225064 402.101103 L 336.707732 400.133611 L 340.219390 398.219218 L 343.757662 396.353573 L 347.295935 394.487929 L 350.900413 392.755325 L 354.522333 391.057770 L 358.089759 389.254579 L 359.562724 388.306318 L 356.230938 390.502520 L 353.429912 393.330589 L 350.462753 395.972828 L 347.094275 398.109975 L 343.603593 400.063214 L 340.024618 401.845093 L 336.408003 403.553923 L 332.702642 405.054781 L 333.196869 406.098224 L 336.949420 404.981192 L 340.532783 403.203690 L 344.116145 401.426188 L 347.699508 399.648686 L 351.402654 398.139437 L 353.507175 397.300195" fill="none" id="36" stroke="black" stroke-width="1.26167" /><path d="M 361.556365 137.122345 L 361.556365 141.122345 L 361.556365 145.122345 L 361.556365 149.122345 L 361.556365 153.122345 L 361.556365 157.122345 L 361.556365 161.122345 L 361.556365 165.122345 L 361.556365 169.122345 L 361.556365 173.122345 L 361.556365 177.122345 L 361.556365 181.122345 L 361.556365 185.122345 L 361.451717 189.120582 L 361.317014 193.118314 L 361.182311 197.116045 L 361.047609 201.113776 L 360.912906 205.111507 L 360.778203 209.109239 L 360.643500 213.106970 L 360.431649 217.100871 L 360.169697 221.092284 L 359.907745 225.083698 L 359.645793 229.075111 L 359.383841 233.066525 L 359.121889 237.057938 L 358.859938 241.049351 L 358.597986 245.040765 L 358.335809 249.032161 L 357.984559 253.016709 L 357.633310 257.001257 L 357.282061 260.985805 L 356.930812 264.970354 L 356.579563 268.954902 L 356.228314 272.939450 L 355.877065 276.923998 L 355.525816 280.908546 L 355.174566 284.893094 L 354.802164 288.875710 L 354.425616 292.857947 L 354.049069 296.840184 L 353.672521 300.822421 L 353.295974 304.804658 L 352.919426 308.786895 L 352.542879 312.769133 L 352.166331 316.751370 L 351.770660 320.731636 L 351.327166 324.706974 L 350.883672 328.682312 L 350.440178 332.657650 L 349.996683 336.632988 L 349.553189 340.608326 L 349.109695 344.583664 L 348.666201 348.559002 L 348.222706 352.534341 L 347.779212 356.509679 L 347.335718 360.485017 L 346.892224 364.460355 L 346.448729 368.435693 L 345.972554 372.406758 L 345.379158 376.362499 L 344.785761 380.318239 L 344.192365 384.273979 L 343.598969 388.229719 L 342.930994 392.173450 L 342.252593 396.115502 L 341.574191 400.057553 L 340.734204 403.965567 L 339.764744 407.846308 L 338.699778 411.697604 L 337.315794 415.450548 L 337.086835 416.071415" fill="none" id="37" stroke="black" stroke-width="1.26167" /><path d="M 358.980625 124.899225 L 358.980625 128.899225 L 358.980625 132.899225 L 358.980625 136.899225 L 358.980625 140.899225 L 358.980625 144.899225 L 358.953903 148.898727 L 358.805004 152.895955 L 358.656105 156.893183 L 358.507206 160.890410 L 358.358307 164.887638 L 358.209407 168.884866 L 358.060508 172.882093 L 357.911609 176.879321 L 357.762710 180.876549 L 357.613811 184.873777 L 357.464912 188.871004 L 357.316013 192.868232 L 357.167114 196.865460 L 357.018215 200.862687 L 356.869316 204.859915 L 356.720417 208.857143 L 356.571518 212.854370 L 356.422618 216.851598 L 356.572697 220.671307 L 356.251896 224.658423 L 355.931096 228.645538 L 355.610295 232.632653 L 355.289494 236.619768 L 354.968693 240.606883 L 354.647893 244.593998 L 354.327092 248.581113 L 353.951655 252.562995 L 353.509828 256.538519 L 353.068001 260.514043 L 352.626175 264.489567 L 352.184348 268.465091 L 351.742522 272.440614 L 351.300695 276.416138 L 350.858868 280.391662 L 350.385700 284.363415 L 349.871912 288.330280 L 349.358123 292.297146 L 348.844335 296.264011 L 348.330547 300.230877 L 347.816759 304.197742 L 347.302971 308.164608 L 346.789183 312.131473 L 346.151800 316.080182 L 345.503037 320.027220 L 344.854274 323.974258 L 344.205511 327.921295 L 343.556748 331.868333 L 342.907985 335.815371 L 342.221212 339.755755 L 341.490542 343.688454 L 340.759873 347.621153 L 340.029203 351.553852 L 339.298533 355.486551 L 338.567864 359.419250 L 337.837194 363.351949 L 337.106524 367.284648 L 336.375855 371.217347 L 335.645185 375.150046 L 334.857750 379.071646 L 334.053343 382.989927 L 333.248936 386.908209 L 332.463980 390.830185 L 331.775675 394.770519 L 331.087369 398.710854 L 330.362797 402.644374 L 329.574007 406.565830 L 328.979908 410.511118 L 328.799468 414.507046 L 328.715685 416.362445" fill="none" id="38" stroke="black" stroke-width="1.26167" /><path d="M 396.650825 118.205615 L 396.972785 120.958403 L 396.972785 124.958403 L 396.972785 128.958403 L 396.972785 132.958403 L 396.972785 136.958403 L 396.972785 140.958403 L 396.972785 144.958403 L 396.972785 148.958403 L 396.826604 152.954036 L 396.587827 156.946903 L 396.349050 160.939770 L 396.110273 164.932637 L 395.871496 168.925503 L 395.622664 172.917711 L 395.337888 176.907561 L 395.053111 180.897411 L 394.768335 184.887261 L 394.483558 188.877110 L 394.198782 192.866960 L 393.914005 196.856810 L 393.629229 200.846660 L 393.344453 204.836510 L 393.059676 208.826360 L 392.774900 212.816210 L 392.490123 216.806060 L 392.205347 220.795910 L 391.920570 224.785760 L 391.583321 228.771331 L 391.217993 232.754613 L 390.852664 236.737895 L 390.487336 240.721177 L 390.122008 244.704459 L 389.756680 248.687741 L 389.391352 252.671023 L 389.026024 256.654305 L 388.660696 260.637587 L 388.295368 264.620869 L 387.930040 268.604151 L 387.564712 272.587433 L 387.199384 276.570715 L 386.834056 280.553997 L 386.416596 284.531871 L 385.956561 288.505329 L 385.496526 292.478787 L 385.036491 296.452245 L 384.576457 300.425703 L 384.116422 304.399161 L 383.623328 308.368235 L 383.031892 312.324269 L 382.440455 316.280303 L 381.849018 320.236336 L 381.257581 324.192370 L 380.666145 328.148404 L 380.031944 332.097751 L 379.387566 336.045507 L 378.743187 339.993263 L 378.098809 343.941019 L 377.402185 347.879096 L 376.589742 351.795720 L 375.777300 355.712343 L 374.964857 359.628966 L 374.081785 363.530041 L 373.174435 367.425771 L 372.267085 371.321502 L 371.196790 375.175268 L 370.109479 379.024652 L 369.022169 382.874035 L 368.317685 385.368105" fill="none" id="39" stroke="black" stroke-width="1.26167" /><path d="M 325.174045 408.504725 L 325.308316 408.411351 L 329.097454 407.287194 L 331.475806 405.303435 L 327.855158 406.581094 L 324.790925 409.151261 L 322.038565 412.053762 L 324.710002 412.016848 L 328.137695 409.981479 L 331.504426 407.826409 L 334.189135 406.613055" fill="none" id="40" stroke="black" stroke-width="1.26167" /><path d="M 333.867165 410.541915 L 334.626192 411.508487 L 338.095067 409.576188 L 341.243467 407.111725 L 344.504680 404.795589 L 347.765894 402.479452 L 351.065195 400.218815 L 354.405431 398.018551 L 357.822682 395.939514 L 361.239934 393.860478 L 362.522265 393.080315" fill="none" id="41" stroke="black" stroke-width="1.26167" /><path d="M 322.598305 403.557275 L 320.242466 404.717815 L 317.768795 407.667529 L 321.309474 406.395435 L 324.620370 404.150894 L 327.081275 403.601688 L 325.817975 405.303435" fill="none" id="42" stroke="black" stroke-width="1.26167" /><path d="M 321.310435 415.634875 L 325.309663 415.713464 L 328.715685 415.780395" fill="none" id="43" stroke="black" stroke-width="1.26167" /></svg>