<?xml version="1.0" encoding="utf-8" ?>
<svg baseProfile="full" height="324.507305" version="1.1" viewBox="0,0,563.507305,324.507305" width="563.507305" xmlns="http://www.w3.org/2000/svg" xmlns:ev="http://www.w3.org/2001/xml-events" xmlns:xlink="http://www.w3.org/1999/xlink"><defs><style type="text/css"><![CDATA[
	.background { fill: white; }
	.line { stroke: firebrick; stroke-width: .1mm; }
	.blacksquare { fill: indigo; }
	.whitesquare { fill: white; }
]]></style></defs><rect class="background" height="100%" width="100%" x="0" y="0" /><path d="M 355.061652 90.035353 L 359.237652 88.957252 L 363.337652 87.622253 L 367.316652 85.961552 L 371.216653 84.117352 L 375.115653 82.273152 L 379.014653 80.428952 L 382.913653 78.584753 L 386.820652 76.756353 L 390.747653 74.973253 L 394.693652 73.230752 L 398.652652 71.518852 L 402.636652 69.868053 L 406.631652 68.239452 L 410.625653 66.612053 L 414.620653 64.984752 L 418.615653 63.359453 L 422.624652 61.769253 L 426.651653 60.223253 L 430.683652 58.691153 L 434.716653 57.160853 L 438.749652 55.630553 L 442.781653 54.100253 L 446.814652 52.569952 L 450.846653 51.037453 L 454.868652 49.478153 L 458.851653 47.824852 L 462.775652 46.036053 L 466.764653 44.396752 L 470.915652 43.239553 L 475.155652 42.452553" fill="none" id="0" stroke="#c583d9" stroke-width="0.5" /><path d="M 102.317652 183.018652 L 107.261652 183.538652 L 112.188653 184.199652 L 117.084653 185.062652 L 121.960652 186.032652 L 126.844652 186.956652 L 131.733652 187.858652 L 136.626652 188.737652 L 141.521652 189.608652 L 146.415652 190.479652 L 151.310652 191.349652 L 156.205652 192.220652 L 161.098652 193.100652 L 165.984652 194.016652 L 170.862652 194.975652 L 175.737652 195.950652 L 180.608652 196.943652 L 185.461652 198.018652 L 190.290652 199.202652 L 195.106652 200.434652 L 199.924652 201.660652 L 204.749652 202.856652 L 209.587652 204.000653 L 214.432652 205.116652 L 219.277652 206.226653 L 224.128652 207.315652 L 228.987652 208.367652 L 233.850652 209.397652 L 238.714652 210.426652 L 243.578652 211.454652 L 248.442652 212.483652 L 253.306652 213.511652 L 258.173653 214.524652 L 263.048653 215.497652 L 267.928652 216.446652 L 272.811652 217.381652 L 277.703652 218.269652 L 282.600652 219.122652 L 287.499652 219.966652 L 292.399653 220.810652 L 297.298653 221.653652 L 302.203652 222.464652 L 307.115653 223.229652 L 312.031653 223.972652 L 316.947653 224.713652 L 321.840652 225.591652 L 326.709653 226.590652 L 331.558652 227.690652" fill="none" id="1" stroke="#f375a0" stroke-width="0.5" /><path d="M 282.940652 124.521653 L 287.793653 123.482653 L 292.614652 122.305653 L 297.390652 120.959653 L 302.100652 119.398652 L 306.728653 117.607653 L 311.338652 115.768653 L 315.925653 113.876653 L 320.505652 111.964652 L 325.065652 110.005652 L 329.604652 108.001653 L 334.141652 105.989653 L 338.678652 103.978652 L 343.214652 101.967652 L 347.751652 99.956052 L 352.288653 97.945752 L 356.830652 95.946353 L 361.383652 93.971253 L 365.940652 92.005853 L 370.497653 90.041252 L 375.055653 88.078253 L 379.615653 86.121453 L 384.178652 84.171252 L 388.743652 82.223052 L 393.307652 80.274852 L 397.871652 78.326652 L 402.435653 76.378452 L 406.999652 74.430252 L 411.563652 72.482052 L 416.128652 70.533952 L 420.692653 68.585752 L 425.256652 66.637552 L 429.820652 64.689352 L 434.384652 62.741152 L 438.949653 60.792952 L 443.511652 58.840353 L 448.065652 56.869953 L 452.610653 54.875853 L 457.149653 52.870252 L 461.688652 50.863152 L 466.226653 48.856053 L 470.765652 46.848953 L 475.303652 44.841853 L 479.842652 42.834753 L 484.380652 40.827652 L 488.919652 38.820552 L 493.458652 36.813453 L 497.996652 34.806353 L 502.535652 32.800153 L 507.078652 30.801552 L 511.629652 28.823153 L 516.183652 26.852453 L 520.738653 24.882452 L 525.293653 22.912453 L 529.848653 20.942553 L 534.404652 18.976653 L 538.975653 17.045153 L 543.567653 15.162052 L 548.173653 13.315952 L 552.857653 11.675252 L 557.609653 10.247212 L 562.408653 8.984452" fill="none" id="2" stroke="#9de993" stroke-width="0.5" /><path d="M 0.253653 237.149652 L 4.604033 234.693652 L 8.980952 232.286652 L 13.393052 229.943652 L 17.827352 227.643652 L 22.288253 225.395652 L 26.757452 223.163652 L 31.249752 220.979652 L 35.774752 218.862652 L 40.310453 216.769652 L 44.855252 214.696652 L 49.419252 212.665652 L 53.995452 210.662652 L 58.573552 208.663652 L 63.146953 206.654652 L 67.709452 204.620652 L 72.263553 202.567652 L 76.815652 200.509652 L 81.370253 198.458652 L 85.934853 196.428652 L 90.512052 194.427652 L 95.095353 192.441652 L 99.679552 190.456652 L 104.263653 188.471652 L 108.847652 186.486652 L 113.431652 184.501652 L 118.015653 182.516652 L 122.600652 180.531652 L 127.184652 178.548652 L 131.781652 176.592652 L 136.403652 174.696652 L 141.030652 172.813652 L 145.657652 170.930652 L 150.283652 169.047652 L 154.910652 167.164652 L 159.537652 165.281652 L 164.164652 163.398652 L 168.791652 161.515652 L 173.418652 159.633652 L 178.045652 157.750653 L 182.672652 155.867652 L 187.299652 153.984652 L 191.926652 152.101653 L 196.553652 150.218652 L 201.180652 148.335652 L 205.799652 146.432652 L 210.386652 144.455652 L 214.970652 142.469652 L 219.553652 140.482653 L 224.137652 138.496652 L 228.720652 136.509652 L 233.304652 134.523652 L 237.887652 132.536652 L 242.471652 130.550652 L 247.106652 128.695652 L 251.839652 127.101653 L 256.557652 125.466652 L 261.200652 123.624652 L 265.822653 121.729653 L 270.444652 119.835652 L 275.067653 117.941653 L 279.689652 116.047652 L 284.313652 114.156653 L 288.944652 112.283653 L 293.583652 110.431652 L 298.226653 108.588652 L 302.874652 106.758652 L 307.531653 104.949652 L 312.193652 103.156653 L 316.876652 101.417653 L 321.595652 99.777552 L 326.304652 98.111553 L 331.021652 96.466953 L 335.743652 94.837352" fill="none" id="3" stroke="#ad5ba7" stroke-width="0.5" /><path d="M 248.812652 110.407652 L 253.679652 111.166652 L 258.535652 111.991653 L 263.376652 112.901652 L 268.199653 113.903653 L 273.032652 114.855653 L 277.883652 115.714652 L 282.735653 116.564653 L 287.587652 117.414653 L 292.439652 118.263653 L 297.296652 119.085652 L 302.163653 119.847652 L 307.033652 120.584653 L 311.904652 121.318652 L 316.775652 122.052653 L 321.646652 122.786653 L 326.517652 123.518653 L 331.392652 124.228652 L 336.270652 124.908653 L 341.150652 125.578653 L 346.031653 126.247653 L 350.911653 126.917653 L 355.791652 127.586652 L 360.671652 128.256652 L 365.552652 128.919652 L 370.436652 129.562652 L 375.322653 130.191652 L 380.207652 130.821652 L 385.093652 131.451652 L 389.978653 132.081652 L 394.864652 132.711652 L 399.749652 133.340652 L 404.635652 133.970652 L 409.520652 134.600652 L 414.406653 135.230652 L 419.291652 135.860652 L 424.177652 136.489652 L 429.062653 137.119653 L 433.948652 137.749652 L 438.833652 138.379652 L 443.719652 139.009652 L 448.604652 139.638652 L 453.490653 140.268652 L 458.375653 140.899652 L 463.258652 141.549652 L 468.130652 142.273652 L 473.018652 142.886652 L 477.920652 143.372652 L 482.816652 143.916652 L 487.712652 144.457652" fill="none" id="4" stroke="#58f2c3" stroke-width="0.5" /><path d="M 145.460652 92.800152 L 150.360652 93.610853 L 155.263652 94.394253 L 160.175652 95.123553 L 165.091652 95.825753 L 170.007652 96.534352 L 174.922652 97.242852 L 179.837652 97.951453 L 184.752652 98.660552 L 189.665652 99.380053 L 194.573652 100.140052 L 199.477652 100.919652 L 204.379652 101.714652 L 209.268652 102.584653 L 214.142652 103.533653 L 219.014652 104.497653 L 223.886652 105.460652 L 228.757652 106.423653 L 233.629652 107.386652 L 238.501652 108.348653 L 243.375653 109.299653 L 248.253652 110.229653 L 253.132652 111.150653 L 258.012653 112.071652 L 262.892652 112.991653 L 267.772652 113.912653 L 272.652652 114.832652 L 277.532652 115.752652 L 282.415652 116.655653 L 287.307652 117.512653 L 292.204653 118.333652 L 297.103653 119.147653 L 302.002653 119.957652 L 306.906653 120.742653 L 311.815652 121.492653 L 316.726653 122.227653 L 321.637653 122.961652 L 326.549652 123.696652 L 331.460652 124.430653 L 336.371652 125.165653 L 341.282652 125.899653 L 346.194652 126.633652 L 351.108653 127.352653 L 356.025652 128.047652 L 360.943652 128.731652 L 365.862652 129.415652 L 370.780652 130.099652 L 375.699653 130.783652 L 380.618652 131.467652 L 385.536653 132.150652 L 390.456652 132.823652 L 395.381652 133.462652 L 400.310653 134.069652 L 405.239652 134.670652 L 410.169652 135.270652 L 415.098653 135.871652 L 420.028652 136.471652 L 424.957652 137.071652 L 429.888652 137.660652 L 434.823652 138.213652 L 439.759652 138.758652 L 444.695652 139.303652 L 449.631652 139.849652 L 454.567653 140.391652 L 459.507653 140.901652 L 464.452652 141.352652 L 469.399653 141.790652 L 474.345652 142.228652 L 479.291652 142.676652 L 484.241652 143.074652 L 489.195652 143.416652 L 494.151653 143.729652" fill="none" id="5" stroke="#58f2c3" stroke-width="0.5" /><path d="M 203.414652 323.584653 L 207.631652 320.900652 L 211.841652 318.204653 L 216.004652 315.438652 L 220.087652 312.555653 L 224.277652 309.830652 L 228.472652 307.112652 L 232.667652 304.394653 L 236.862652 301.676652 L 241.057652 298.958652 L 245.258652 296.249652 L 249.470652 293.558652 L 253.688652 290.875653 L 257.906653 288.193652 L 262.126652 285.515652 L 266.356652 282.851653 L 270.595652 280.202652 L 274.836653 277.556652 L 279.077652 274.911653 L 283.318652 272.265652 L 287.559652 269.619652 L 291.800653 266.974652 L 296.041652 264.328652 L 300.282652 261.683652 L 304.523652 259.038653 L 308.770652 256.401653 L 313.028652 253.784652 L 317.296652 251.182652 L 321.566652 248.583652 L 325.836653 245.985652 L 330.107652 243.387652 L 334.371652 240.780652 L 338.624652 238.154652 L 342.870653 235.515652 L 347.114652 232.875653 L 351.358653 230.234652 L 355.604652 227.597652 L 359.866652 224.984652 L 364.152652 222.414652 L 368.454653 219.868652 L 372.758652 217.327652 L 377.062653 214.785652 L 381.366652 212.243652 L 385.670652 209.701652 L 389.974652 207.160652 L 394.278652 204.618652 L 398.582652 202.076652 L 402.886652 199.534652 L 407.191652 196.993652 L 411.495653 194.451652 L 415.799652 191.909652 L 420.103653 189.368652 L 424.407652 186.826652 L 428.708652 184.280652 L 432.997653 181.712652 L 437.262653 179.105652 L 441.518652 176.484652 L 445.773652 173.862652 L 450.029652 171.239652 L 454.284652 168.617652 L 458.539652 165.994653 L 462.794652 163.371652 L 467.040652 160.733652 L 471.254652 158.045652 L 475.450652 155.329652 L 479.660652 152.634652 L 483.800653 149.833652 L 487.875653 146.938652 L 491.917652 143.998652" fill="none" id="6" stroke="#c94e76" stroke-width="0.5" /><path d="M 13.776253 223.034652 L 18.457653 224.786652 L 23.166553 226.463652 L 27.900953 228.066652 L 32.591952 229.792652 L 37.308853 231.447652 L 42.041052 233.057652 L 46.790753 234.614652 L 51.542653 236.165652 L 56.302352 237.692652 L 61.077753 239.169652 L 65.855153 240.639652 L 70.632553 242.109652 L 75.409953 243.580652 L 80.187353 245.050652 L 84.964753 246.521652 L 89.743752 247.986652 L 94.530152 249.427652 L 99.324652 250.840652 L 104.120653 252.248652 L 108.917653 253.655652 L 113.713652 255.063652 L 118.509653 256.470652 L 123.306652 257.877653 L 128.102653 259.284652 L 132.902652 260.680653 L 137.713652 262.035652 L 142.537652 263.346653 L 147.364652 264.643652 L 152.192652 265.940652 L 157.022652 267.224652 L 161.864652 268.468652 L 166.714652 269.676652 L 171.568652 270.871652 L 176.421652 272.066652 L 181.275652 273.261652 L 186.129652 274.456652 L 190.982653 275.650652 L 195.836652 276.845652 L 200.690652 278.041652 L 205.531652 279.284652 L 210.358652 280.582652 L 215.198652 281.830652 L 220.049652 283.035652 L 224.900652 284.241652 L 229.748652 285.458652 L 234.591652 286.696652 L 239.431652 287.945652 L 244.270652 289.197653 L 249.110652 290.448652 L 253.949652 291.700652 L 258.788653 292.951652 L 263.627653 294.204653 L 268.463652 295.470652 L 273.290652 296.767652 L 278.112652 298.084653 L 282.933652 299.405652 L 287.754652 300.725652 L 292.575652 302.046652 L 297.396652 303.369652 L 302.207652 304.723653 L 306.987652 306.186652 L 311.761652 307.666652 L 316.536653 309.146652 L 321.310653 310.625653 L 326.085652 312.105652 L 330.859652 313.585652 L 335.614652 315.128652 L 340.382653 316.629652 L 345.152652 318.121652 L 349.910652 319.655652" fill="none" id="7" stroke="#57b870" stroke-width="0.5" /><path d="M 180.555652 274.546652 L 183.591652 274.653652 L 186.627652 274.779652 L 189.662652 274.927652 L 192.695652 275.099652 L 195.727652 275.286653 L 198.760652 275.468652 L 201.796652 275.591653 L 204.833652 275.685653 L 207.870652 275.768652 L 210.907652 275.849652 L 213.945652 275.925653 L 216.982653 275.983653 L 220.021652 276.006652 L 223.059652 276.018652 L 226.097652 276.026653 L 229.135652 276.034652 L 232.174652 276.042652 L 235.212652 276.050653 L 238.250653 276.058652 L 241.289652 276.066652 L 244.327652 276.074653 L 247.365652 276.082652 L 250.404652 276.090652 L 253.442652 276.098653 L 256.480652 276.106652 L 259.518652 276.114652 L 262.557652 276.122653 L 265.595652 276.130652 L 268.633652 276.138652 L 271.672652 276.146652" fill="none" id="8" stroke="#d271bb" stroke-width="0.5" /><path d="M 167.998652 269.307652 L 171.103652 269.764653 L 174.209652 270.210652 L 177.317652 270.644653 L 180.427652 271.061652 L 183.535652 271.489652 L 186.640652 271.947653 L 189.741652 272.427652 L 192.841652 272.911653 L 195.941652 273.395652 L 199.042652 273.879652 L 202.135652 274.405652 L 205.225652 274.954653 L 208.314652 275.507653 L 211.402652 276.061652 L 214.491652 276.615653 L 217.580652 277.169652 L 220.668652 277.723653 L 223.757652 278.277652 L 226.846652 278.831652 L 229.935652 279.385652 L 233.023652 279.939652 L 236.112652 280.493652 L 239.203652 281.036653 L 242.300652 281.538653 L 245.404652 281.997653 L 248.517652 282.389653 L 251.641652 282.684652 L 254.772652 282.877653 L 257.909652 282.970652 L 261.047652 282.985653" fill="none" id="9" stroke="#3d8e43" stroke-width="0.5" /><path d="M 151.256652 210.956652 L 154.561652 211.228652 L 157.862652 211.557652 L 161.154652 211.957652 L 164.435652 212.438652 L 167.711652 212.958652 L 170.985652 213.486652 L 174.260652 214.015652 L 177.534652 214.539652 L 180.812652 215.049652 L 184.092652 215.538652 L 187.374652 216.015652 L 190.657652 216.489652 L 193.940652 216.963652 L 197.222652 217.437652 L 200.505652 217.908652 L 203.790652 218.371652 L 207.075652 218.823652 L 210.362652 219.267652 L 213.649652 219.708652 L 216.937652 220.150652 L 220.224652 220.591652 L 223.511652 221.032652 L 226.798652 221.473652 L 230.085652 221.915652 L 233.372652 222.359652 L 236.657652 222.818652 L 239.939652 223.297652 L 243.219652 223.789652 L 246.499652 224.282652 L 249.778652 224.780652" fill="none" id="10" stroke="#00d4db" stroke-width="0.5" /><path d="M 155.763652 212.266652 L 158.862652 213.184652 L 161.982653 214.027652 L 165.124652 214.785652 L 168.292652 215.422652 L 171.482653 215.935652 L 174.686652 216.364652 L 177.894652 216.757652 L 181.103652 217.137652 L 184.316652 217.491652 L 187.532652 217.807652 L 190.751652 218.100652 L 193.970652 218.389652 L 197.190652 218.677652 L 200.409652 218.966652 L 203.628652 219.254652 L 206.847652 219.542652 L 210.066652 219.831652 L 213.285652 220.119653 L 216.505652 220.403652 L 219.727652 220.656652 L 222.955652 220.829652 L 226.183652 220.975652 L 229.412652 221.114652 L 232.642652 221.246652 L 235.872652 221.352652 L 239.103652 221.414652 L 242.335652 221.435652 L 245.567652 221.438652 L 248.799652 221.439652 L 252.032652 221.433652" fill="none" id="11" stroke="#00d4db" stroke-width="0.5" /><path d="M 70.120553 193.495652 L 74.819052 194.993652 L 79.539552 196.420652 L 84.295253 197.725652 L 89.062552 198.987652 L 93.829853 200.249652 L 98.602052 201.492652 L 103.388653 202.677652 L 108.182653 203.837652 L 112.975652 204.994653 L 117.769653 206.152652 L 122.563653 207.309652 L 127.357653 208.467652 L 132.150652 209.624652 L 136.944652 210.782652 L 141.738653 211.939652 L 146.532652 213.097652 L 151.325652 214.254652 L 156.119653 215.412652 L 160.913652 216.569652 L 165.707652 217.726653 L 170.506652 218.859652 L 175.314652 219.958652 L 180.124652 221.045652 L 184.934652 222.132652 L 189.745652 223.219652 L 194.555652 224.306652 L 199.365652 225.393652 L 204.175652 226.480652 L 208.987652 227.560652 L 213.805652 228.613653 L 218.627652 229.647652 L 223.449652 230.680652 L 228.271652 231.713652 L 233.093652 232.747652 L 237.915652 233.780652 L 242.737652 234.813652 L 247.559652 235.847652 L 252.381652 236.880652 L 257.203652 237.913652 L 262.025652 238.947652 L 266.847652 239.980652 L 271.669652 241.013652 L 276.491652 242.046652 L 281.313652 243.081652 L 286.131652 244.131652 L 290.943652 245.214652 L 295.753652 246.301652 L 300.562653 247.394652 L 305.366652 248.509652 L 310.166652 249.639652 L 314.964652 250.780652 L 319.748652 251.977652 L 324.516652 253.235652 L 329.278652 254.516652 L 334.020652 255.870652 L 338.749652 257.269653 L 343.490653 258.626652 L 348.255652 259.899653 L 353.034652 261.113653 L 357.840652 262.221653 L 362.657652 263.276653 L 367.492652 264.247653 L 372.352652 265.086653 L 377.224652 265.849652 L 382.106652 266.542652" fill="none" id="12" stroke="#64e4ff" stroke-width="0.5" /><path d="M 26.654953 181.999652 L 31.645653 182.012652 L 36.631053 182.241652 L 41.593153 182.776652 L 46.520853 183.566652 L 51.428353 184.473652 L 56.320152 185.462652 L 61.198953 186.513652 L 66.035252 187.745652 L 70.857952 189.029652 L 75.680553 190.313652 L 80.481553 191.676652 L 85.279953 193.048652 L 90.075253 194.431652 L 94.853053 195.873652 L 99.625952 197.331652 L 104.398652 198.790652 L 109.171653 200.249652 L 113.944653 201.707652 L 118.716652 203.166652 L 123.489653 204.624652 L 128.279652 206.027652 L 133.071652 207.419652 L 137.864652 208.812652 L 142.663652 210.181652 L 147.504652 211.393652 L 152.347652 212.598652 L 157.191652 213.802652 L 162.034652 215.007652 L 166.877652 216.212652 L 171.720652 217.417652 L 176.564652 218.616652 L 181.423652 219.757652 L 186.286652 220.879652 L 191.149652 222.001652 L 196.012652 223.122652 L 200.875653 224.244653 L 205.737652 225.369653 L 210.588652 226.544652 L 215.423652 227.778652 L 220.259652 229.013652 L 225.094652 230.249652 L 229.926652 231.499652 L 234.742652 232.807652 L 239.551652 234.141652 L 244.409652 235.283652 L 249.332652 236.104652 L 254.285652 236.712652" fill="none" id="13" stroke="#64e4ff" stroke-width="0.5" /><path d="M 106.824652 269.744652 L 111.108653 267.235653 L 115.391653 264.723653 L 119.673653 262.211653 L 123.958652 259.703652 L 128.250653 257.209653 L 132.607653 254.828652 L 136.994653 252.505652 L 141.382652 250.182652 L 145.816652 247.949652 L 150.398652 246.038652 L 154.821652 243.783652 L 159.244653 241.529652 L 163.668652 239.274652 L 168.091652 237.019652 L 172.514652 234.765652 L 176.937652 232.510652 L 181.360652 230.256652 L 185.784652 228.001652 L 190.200652 225.734652 L 194.605652 223.443652 L 199.008652 221.149652 L 203.410652 218.854652 L 207.813652 216.560652 L 212.215652 214.265652 L 216.618652 211.971652 L 221.021652 209.676652 L 225.423652 207.382652 L 229.826652 205.087652 L 234.229652 202.793652 L 238.631652 200.498652 L 243.034652 198.204652 L 247.436652 195.909652 L 251.839652 193.615652 L 256.242653 191.320652 L 260.650652 189.037652 L 265.076652 186.787652 L 269.508652 184.550652 L 273.940652 182.313652 L 278.372653 180.076652 L 282.804652 177.839652 L 287.254652 175.638652 L 291.733653 173.496652 L 296.211653 171.353652 L 300.690652 169.210652 L 305.168653 167.068652 L 309.647652 164.925652 L 314.125653 162.783652 L 318.604652 160.640652 L 323.082652 158.498652 L 327.561652 156.355652 L 332.040652 154.213652 L 336.518652 152.070652 L 340.997653 149.927652 L 345.475652 147.785652 L 349.953652 145.640652 L 354.420652 143.474652 L 358.879652 141.293652 L 363.339652 139.111652 L 367.799652 136.929652 L 372.258652 134.747652 L 376.716653 132.563652 L 381.174652 130.378652 L 385.559652 128.049653 L 389.895652 125.632653 L 394.232652 123.215653 L 398.568652 120.797652 L 402.855652 118.293653 L 406.936652 115.465653 L 410.941652 112.532652 L 414.900652 109.537653 L 418.811652 106.478652" fill="none" id="14" stroke="#e68e54" stroke-width="0.5" /><path d="M 125.498653 194.368652 L 125.265653 196.978652 L 125.073652 199.592652 L 124.932653 202.208652 L 124.861653 204.828652 L 124.855653 207.449652 L 124.854653 210.070652 L 124.854653 212.691652 L 124.854653 215.311652 L 124.854653 217.932652 L 124.854653 220.553652 L 124.854653 223.174652 L 124.854653 225.795652 L 124.854653 228.415652 L 124.854653 231.036652 L 124.854653 233.657652 L 124.854653 236.278652 L 124.854653 238.899652 L 124.854653 241.520652 L 124.854653 244.140652 L 124.854653 246.761652 L 124.854653 249.382652 L 124.860653 252.003652 L 124.890653 254.623652 L 125.000653 257.242652 L 125.132653 259.859652 L 125.269653 262.476653 L 125.407652 265.093652 L 125.544652 267.711653 L 125.682653 270.328652 L 125.820652 272.945652" fill="none" id="15" stroke="#54aeff" stroke-width="0.5" /><path d="M 138.699652 123.939653 L 143.440652 122.434652 L 148.146652 120.825653 L 152.785652 119.031653 L 157.311652 116.968653 L 161.834652 114.897653 L 166.355652 112.822653 L 170.875653 110.747653 L 175.396652 108.673653 L 179.925652 106.616653 L 184.505652 104.675652 L 189.100652 102.770652 L 193.653652 100.769653 L 198.199652 98.750052 L 202.750653 96.741753 L 207.319652 94.777452 L 211.904652 92.847652 L 216.491652 90.924553 L 221.079652 89.002353 L 225.674652 87.097752 L 230.289652 85.242452 L 234.916652 83.416753 L 239.545652 81.596352 L 244.174652 79.775953 L 248.808652 77.967353 L 253.458652 76.201153 L 258.125653 74.481252 L 262.798653 72.776453 L 267.471653 71.071652 L 272.144653 69.367953 L 276.820652 67.673153 L 281.504652 65.997952 L 286.193652 64.338853 L 290.884652 62.684153 L 295.575652 61.029553 L 300.267652 59.377653 L 304.964652 57.741453 L 309.670652 56.130253 L 314.380652 54.532052 L 319.091653 52.935253 L 323.802652 51.338352 L 328.513652 49.741553 L 333.224652 48.144753 L 337.935653 46.547953 L 342.646652 44.951152 L 347.356652 43.353352 L 352.063652 41.745252 L 356.761652 40.109653 L 361.450652 38.451953 L 366.138652 36.789453 L 370.825652 35.123153 L 375.504652 33.434052 L 380.169652 31.709253 L 384.831652 29.973553 L 389.492652 28.236953 L 394.153652 26.500453 L 398.814652 24.763953 L 403.475652 23.027353 L 408.136652 21.290852 L 412.798653 19.554353 L 417.459653 17.817153 L 422.103653 16.036953 L 426.720652 14.186852 L 431.315652 12.280852 L 435.875653 10.294052" fill="none" id="16" stroke="#eed973" stroke-width="0.5" /><path d="M 100.385653 80.140452 L 105.139652 78.645753 L 109.877652 77.103053 L 114.598653 75.507553 L 119.291652 73.828753 L 123.978652 72.135953 L 128.664652 70.442252 L 133.351653 68.748553 L 138.070652 67.178753 L 142.967652 66.272752 L 147.764652 64.921752 L 152.532652 63.474052 L 157.305652 62.041953 L 162.092652 60.655653 L 166.886652 59.293653 L 171.680652 57.935453 L 176.475652 56.577253 L 181.270652 55.219053 L 186.065652 53.860853 L 190.859652 52.502752 L 195.654652 51.144553 L 200.448652 49.782153 L 205.237652 48.403852 L 210.020652 47.006953 L 214.802652 45.602252 L 219.583652 44.196753 L 224.364652 42.791252 L 229.145652 41.385852 L 233.926652 39.980353 L 238.707652 38.574852 L 243.488653 37.169353 L 248.269652 35.763852 L 253.051652 34.358353 L 257.832652 32.952852 L 262.613653 31.547353 L 267.394653 30.141853 L 272.174652 28.733153 L 276.949653 27.305553 L 281.713652 25.845353 L 286.473653 24.370052 L 291.233653 22.893052 L 295.992652 21.416053 L 300.752653 19.939053 L 305.511652 18.462053 L 310.271652 16.985053 L 315.030652 15.508052 L 319.790652 14.031052 L 324.549652 12.554052 L 329.309652 11.077152 L 334.068652 9.600112 L 338.828652 8.123112 L 343.587652 6.644033 L 348.336653 5.135363 L 353.061652 3.550162 L 357.771652 1.922022 L 362.466653 0.253653" fill="none" id="17" stroke="#008bd4" stroke-width="0.5" /><path d="M 138.377652 73.301353 L 142.180652 71.769253 L 145.984652 70.238052 L 149.788652 68.707252 L 153.595652 67.184753 L 157.423652 65.716153 L 161.284652 64.337753 L 165.159652 62.997953 L 169.057652 61.724753 L 172.972652 60.505553 L 176.890652 59.298552 L 180.809652 58.091552 L 184.727652 56.884552 L 188.646652 55.677553 L 192.565652 54.470553 L 196.483652 53.263652 L 200.402652 52.056652 L 204.320652 50.849652 L 208.239652 49.642653 L 212.158652 48.437753 L 216.081652 47.245753 L 220.013652 46.081353 L 223.951652 44.939352 L 227.890652 43.802453 L 231.830652 42.665553 L 235.769652 41.528652 L 239.707652 40.385753 L 243.628652 39.186352 L 247.454652 37.715052 L 251.106652 35.854453 L 254.607653 33.721753" fill="none" id="18" stroke="#008bd4" stroke-width="0.5" /><path d="M 124.854653 73.592353 L 129.375653 71.751153 L 133.912652 69.949053 L 138.468652 68.194553 L 143.047652 66.502953 L 147.633652 64.830152 L 152.219652 63.158552 L 156.827652 61.545253 L 161.476653 60.058053 L 166.140652 58.616953 L 170.806652 57.180352 L 175.471652 55.743752 L 180.137652 54.307153 L 184.798652 52.857753 L 189.447652 51.369753 L 194.088652 49.854852 L 198.727652 48.336353 L 203.367652 46.817853 L 208.006652 45.299253 L 212.646652 43.780752 L 217.287652 42.268053 L 221.936652 40.780853 L 226.596652 39.324452 L 231.257652 37.876053 L 235.979652 36.637552 L 240.799652 35.865952 L 245.481652 34.485453 L 250.162652 33.098753 L 254.842652 31.711953 L 259.522652 30.323153 L 264.131652 28.714953 L 268.599652 26.749652 L 272.959653 24.554353" fill="none" id="19" stroke="#008bd4" stroke-width="0.5" /><path d="M 136.767652 74.174453 L 141.402652 72.600252 L 146.067652 71.114953 L 150.768652 69.749453 L 155.486652 68.447253 L 160.206652 67.148053 L 164.926652 65.848853 L 169.646652 64.549553 L 174.365652 63.250053 L 179.080652 61.934353 L 183.781652 60.568053 L 188.467652 59.151452 L 193.145652 57.711453 L 197.810652 56.225153 L 202.466652 54.714153 L 207.121652 53.201152 L 211.777652 51.688052 L 216.433652 50.175153 L 221.090652 48.667552 L 225.755652 47.184852 L 230.426652 45.718553 L 235.097652 44.255653 L 239.769652 42.792853 L 244.440652 41.330053 L 249.112652 39.867153 L 253.784652 38.404353 L 258.455652 36.941453 L 263.125653 35.471553 L 267.808652 34.046753 L 272.479652 32.584453 L 277.145652 31.102453" fill="none" id="20" stroke="#008bd4" stroke-width="0.5" /><path d="M 242.051652 25.281953 L 247.049652 25.238853 L 252.048652 25.253953 L 257.047652 25.293153 L 262.040652 25.534453 L 267.027652 25.873353 L 272.014653 26.218053 L 277.001652 26.562753 L 281.988653 26.906253 L 286.976653 27.237053 L 291.965652 27.539153 L 296.955652 27.836753 L 301.945652 28.134453 L 306.935653 28.432153 L 311.925653 28.729753 L 316.915652 29.027453 L 321.904652 29.345053 L 326.884652 29.770353 L 331.856652 30.282753 L 336.841653 30.655853 L 341.830652 30.967853 L 346.819652 31.279853 L 351.808652 31.591853 L 356.797652 31.903853 L 361.786653 32.215852 L 366.776653 32.527853 L 371.765652 32.839852 L 376.754652 33.142553 L 381.745653 33.418553 L 386.738653 33.670653 L 391.731652 33.915852 L 396.724652 34.160953 L 401.717652 34.406153 L 406.709653 34.651252 L 411.702652 34.896453 L 416.695652 35.141553 L 421.688652 35.386753 L 426.681652 35.631953 L 431.674652 35.877052 L 436.666652 36.122253 L 441.659652 36.367353 L 446.652652 36.612552 L 451.645652 36.857653 L 456.638652 37.102853 L 461.631652 37.347952 L 466.623652 37.593153 L 471.616652 37.838253 L 476.609652 38.083452 L 481.602652 38.328553 L 486.595652 38.573752 L 491.588652 38.818852 L 496.580652 39.064053 L 501.573652 39.309252 L 506.566652 39.558152 L 511.557652 39.829953 L 516.547653 40.130353 L 521.537653 40.434452 L 526.526653 40.738553 L 531.516653 41.042552 L 536.505652 41.348953 L 541.492653 41.697553 L 546.477653 42.065053 L 551.461653 42.452553" fill="none" id="21" stroke="#fdb968" stroke-width="0.5" /><path d="M 275.535652 29.356352 L 280.367652 28.437152 L 285.238653 27.754753 L 290.140652 27.353452 L 295.058652 27.320253 L 299.977652 27.319153 L 304.895652 27.319153 L 309.814652 27.319153 L 314.733653 27.319153 L 319.651653 27.319153 L 324.570652 27.319153 L 329.488653 27.322653 L 334.406653 27.441153 L 339.320652 27.636353 L 344.235653 27.846953 L 349.147652 28.095353 L 354.055653 28.413753 L 358.962652 28.761553 L 363.868652 29.112153 L 368.772652 29.484653 L 373.675653 29.880553 L 378.577652 30.283352 L 383.479652 30.686153 L 388.381652 31.088953 L 393.283652 31.491753 L 398.185653 31.894552 L 403.088652 32.297452 L 407.990653 32.700252 L 412.892652 33.103053 L 417.794652 33.505853 L 422.696652 33.908653 L 427.598653 34.311552 L 432.500653 34.714353 L 437.402652 35.115653 L 442.306652 35.506053 L 447.211653 35.871752 L 452.116652 36.229353 L 457.022652 36.580053 L 461.933652 36.860653 L 466.851653 36.922953 L 471.768652 37.036053 L 476.683652 37.241152 L 481.594652 37.505052" fill="none" id="22" stroke="#fdb968" stroke-width="0.5" /><path d="M 310.630652 33.576253 L 315.537652 33.556953 L 320.445652 33.602052 L 325.352652 33.698853 L 330.253652 33.950153 L 335.145652 34.350853 L 340.032652 34.799053 L 344.919652 35.252453 L 349.806652 35.705953 L 354.693652 36.159353 L 359.580652 36.612752 L 364.466653 37.066153 L 369.353653 37.519652 L 374.240653 37.973053 L 379.128652 38.419652 L 384.017652 38.849853 L 388.906653 39.268752 L 393.797652 39.686053 L 398.687653 40.103352 L 403.577652 40.520653 L 408.467652 40.937953 L 413.357652 41.355252 L 418.247653 41.772452 L 423.137653 42.192152 L 428.025652 42.634352 L 432.908652 43.124653 L 437.791652 43.615053 L 442.674652 44.106853 L 447.555653 44.621552 L 452.423653 45.249653 L 457.302652 45.779353 L 462.201652 46.078453 L 467.106652 46.235853" fill="none" id="23" stroke="#6f73bc" stroke-width="0.5" /><path d="M 248.490652 33.139653 L 253.465652 33.030853 L 258.441652 32.942253 L 263.416652 32.869352 L 268.392652 32.850053 L 273.369652 32.848653 L 278.345652 32.848653 L 283.321652 32.848653 L 288.298653 32.848653 L 293.274653 32.860253 L 298.249652 32.948352 L 303.220652 33.165353 L 308.189652 33.440553 L 313.156653 33.744853 L 318.120653 34.094453 L 323.082652 34.465753 L 328.044652 34.845453 L 333.004652 35.245153 L 337.963652 35.664952 L 342.921652 36.091053 L 347.879652 36.517252 L 352.837652 36.943452 L 357.795652 37.369553 L 362.753652 37.795752 L 367.711653 38.221853 L 372.669652 38.648052 L 377.627653 39.073152 L 382.586653 39.490552 L 387.546652 39.892153 L 392.507653 40.283752 L 397.468652 40.673752 L 402.429652 41.063653 L 407.390652 41.452953 L 412.352652 41.825653 L 417.319652 42.127052 L 422.288653 42.405752 L 427.256652 42.683053 L 432.225652 42.959353 L 437.195652 43.202553 L 442.169652 43.363653 L 447.144653 43.471153" fill="none" id="24" stroke="#6f73bc" stroke-width="0.5" /><path d="M 212.108652 74.901953 L 209.038652 78.686853 L 205.997652 82.493553 L 202.991652 86.329153 L 200.022652 90.193252 L 197.058652 94.060952 L 194.095652 97.928753 L 191.131652 101.796653 L 188.457652 105.870653 L 185.718652 109.900653 L 182.936652 113.901652 L 180.154652 117.901652 L 177.407652 121.926653 L 174.703652 125.979653 L 172.013652 130.043652 L 169.324652 134.106652 L 166.655652 138.183652 L 164.026652 142.286652 L 161.417652 146.401652 L 158.807652 150.516652 L 156.197652 154.631652 L 153.587652 158.746652 L 150.978652 162.861652 L 148.368652 166.976653 L 145.758652 171.091652 L 143.148652 175.206652 L 140.539652 179.322652 L 137.940652 183.444652 L 135.382652 187.591652 L 132.833652 191.744653 L 130.240652 195.869653 L 127.568652 199.944652 L 124.877652 204.007652 L 122.186653 208.070652 L 119.496652 212.132652 L 116.805653 216.195652" fill="none" id="25" stroke="#bee481" stroke-width="0.5" /><path d="M 212.108652 93.236653 L 209.163652 97.160053 L 206.221652 101.085652 L 203.315652 105.037653 L 200.319652 108.922652 L 197.280652 112.773652 L 194.236652 116.619653 L 191.191652 120.466652 L 188.147652 124.312652 L 185.102652 128.159652 L 182.058652 132.005652 L 179.013652 135.851653 L 175.963652 139.694652 L 172.899652 143.525652 L 169.822652 147.345652 L 166.744653 151.165652 L 163.666652 154.985652 L 160.588652 158.805652 L 157.495652 162.612652 L 154.342652 166.370652 L 151.141652 170.087652 L 147.926652 173.793652 L 144.711652 177.498652 L 141.496652 181.203652 L 138.280652 184.907652 L 135.065652 188.612652 L 131.849652 192.317652 L 128.657652 196.042652 L 125.575653 199.858652 L 122.732653 203.855652 L 120.025653 207.946652 L 117.449652 212.120652" fill="none" id="26" stroke="#8f6aaf" stroke-width="0.5" /><path d="M 126.464652 204.845652 L 129.482653 200.955652 L 132.468652 197.040652 L 135.413652 193.095652 L 138.407652 189.186652 L 141.473652 185.334652 L 144.553652 181.493652 L 147.633652 177.652652 L 150.713652 173.812652 L 153.793652 169.971652 L 156.874652 166.130652 L 159.956652 162.291652 L 163.077652 158.483652 L 166.287652 154.750653 L 169.534652 151.049652 L 172.781652 147.348652 L 175.994653 143.618652 L 179.169652 139.855652 L 182.332652 136.082652 L 185.519652 132.330652 L 188.758652 128.622652 L 192.035652 124.947653 L 195.310652 121.271653 L 198.546652 117.561653 L 201.753652 113.825653 L 204.902652 110.041652 L 207.993652 106.208652 L 211.029652 102.333652 L 213.929652 98.355352 L 216.637652 94.244253 L 219.191652 90.035353" fill="none" id="27" stroke="#8bb658" stroke-width="0.5" /><path d="M 491.253652 34.449253 L 491.253652 38.590553 L 491.253652 42.731853 L 491.253652 46.873053 L 491.253652 51.014353 L 491.253652 55.155653 L 491.253652 59.296852 L 491.253652 63.438153 L 491.253652 67.579453 L 491.253652 71.720652 L 491.253652 75.861953 L 491.253652 80.003253 L 491.253652 84.144452 L 491.253652 88.285753 L 491.253652 92.427053 L 491.253652 96.568252 L 491.253652 100.709653 L 491.253652 104.850652 L 491.266652 108.991653 L 491.332652 113.132653 L 491.477652 117.271653 L 491.667652 121.407652 L 491.886652 125.543653 L 492.174652 129.674652 L 492.498652 133.803652 L 492.827652 137.931652 L 493.156653 142.059652 L 493.486652 146.187652 L 493.815652 150.315652 L 494.144653 154.443652 L 494.473653 158.572652" fill="none" id="28" stroke="#bbabff" stroke-width="0.5" /><path d="M 276.823652 25.136453 L 277.004652 28.947952 L 277.178652 32.759753 L 277.347652 36.571753 L 277.486652 40.385053 L 277.592652 44.199353 L 277.687653 48.013953 L 277.781653 51.828553 L 277.875653 55.643253 L 277.969652 59.457853 L 278.063652 63.272452 L 278.157652 67.087153 L 278.252653 70.901753 L 278.350652 74.716252 L 278.468652 78.530152 L 278.614652 82.343153 L 278.776653 86.155552 L 278.938652 89.967853 L 279.078652 93.781053 L 279.180653 97.595453 L 279.267652 101.410652 L 279.369652 105.224653 L 279.523652 109.037653 L 279.736652 112.846653 L 279.964652 116.655653 L 280.192653 120.464652 L 280.419652 124.273652 L 280.647652 128.082652 L 280.875653 131.891652 L 281.103653 135.700652 L 281.331652 139.509652" fill="none" id="29" stroke="#658424" stroke-width="0.5" /><path d="M 200.839652 127.432653 L 200.839652 131.398652 L 200.839652 135.364652 L 200.839652 139.330652 L 200.839652 143.296652 L 200.839652 147.261652 L 200.839652 151.227652 L 200.842652 155.193652 L 200.873652 159.159652 L 200.948652 163.124652 L 201.038652 167.089652 L 201.129652 171.054652 L 201.220652 175.019652 L 201.311652 178.984652 L 201.402652 182.949652 L 201.494653 186.914652 L 201.585652 190.879652 L 201.676652 194.844652 L 201.767652 198.809652 L 201.858652 202.774652 L 201.949652 206.739652 L 202.047652 210.703652 L 202.184652 214.667652 L 202.399652 218.627652 L 202.650652 222.585652 L 202.904652 226.543652 L 203.159652 230.500653 L 203.414652 234.458652 L 203.682652 238.415652 L 204.012652 242.367652 L 204.380652 246.316652" fill="none" id="30" stroke="#f1b9ff" stroke-width="0.5" /><path d="M 61.105452 211.684652 L 65.925152 212.682652 L 70.744853 213.681652 L 75.564453 214.679652 L 80.384152 215.677652 L 85.203852 216.676652 L 90.022153 217.680652 L 94.822753 218.767652 L 99.610952 219.907652 L 104.397653 221.053652 L 109.183653 222.200652 L 113.970652 223.347652 L 118.752652 224.511652 L 123.521653 225.729652 L 128.286652 226.964652 L 133.050652 228.199652 L 137.815652 229.433652 L 142.579652 230.668652 L 147.345652 231.899652 L 152.124652 233.079652 L 156.914652 234.210652 L 161.707652 235.329652 L 166.500653 236.448652 L 171.293652 237.567652 L 176.086652 238.686652 L 180.879652 239.805652 L 185.676652 240.906652 L 190.482653 241.971652 L 195.291652 243.018652 L 200.099652 244.074652 L 204.896652 245.172652 L 209.682652 246.324652 L 214.463652 247.494653 L 219.234652 248.701652 L 223.986652 249.986652 L 228.726653 251.312652 L 233.466652 252.638652 L 238.206652 253.964652 L 242.944652 255.295652 L 247.675652 256.652652 L 252.393652 258.056652 L 257.108653 259.468652 L 261.823652 260.881652 L 266.538653 262.293653 L 271.254652 263.701652 L 275.987652 265.053652 L 280.764653 266.240653 L 285.556652 267.361652 L 290.361652 268.429652 L 295.175653 269.453652" fill="none" id="31" stroke="#989c37" stroke-width="0.5" /><path d="M 224.020652 94.837352 L 224.020652 99.516452 L 224.020652 104.195652 L 224.020652 108.874652 L 224.020652 113.553652 L 224.020652 118.232653 L 224.020652 122.911653 L 224.020652 127.591652 L 224.020652 132.270652 L 224.020652 136.949652 L 224.020652 141.628652 L 224.020652 146.307652 L 224.020652 150.986652 L 224.020652 155.665652 L 224.020652 160.344652 L 224.020652 165.024652 L 224.020652 169.703652 L 224.020652 174.382652 L 224.020652 179.061652 L 224.020652 183.740652 L 224.020652 188.419652 L 224.020652 193.098652 L 224.020652 197.777652 L 224.020652 202.457652 L 224.020652 207.136652 L 224.020652 211.815652 L 224.083652 216.494653 L 224.432652 221.160652 L 225.052652 225.797652 L 225.896652 230.400652 L 226.918652 234.966652" fill="none" id="32" stroke="#bb568c" stroke-width="0.5" /><path d="M 112.620653 85.961053 L 110.153653 88.646653 L 107.739653 91.379653 L 105.387653 94.166652 L 103.126653 97.027353 L 100.887653 99.905552 L 98.650752 102.785652 L 96.433053 105.679653 L 94.276953 108.620653 L 92.171653 111.597652 L 90.078653 114.584653 L 87.985753 117.570652 L 85.892853 120.556652 L 83.799853 123.542653 L 81.708152 126.529652 L 79.627453 129.523652 L 77.587253 132.546652 L 75.580552 135.590652 L 73.573853 138.635652 L 71.566753 141.680652 L 69.541053 144.712652 L 67.480153 147.720652 L 65.415953 150.726653 L 63.349853 153.731652 L 61.270052 156.726653 L 59.158952 159.699652 L 57.034553 162.663652 L 54.903753 165.622652 L 52.719053 168.542652 L 50.490353 171.428652 L 48.226753 174.287652" fill="none" id="33" stroke="#cfe395" stroke-width="0.5" /><path d="M 133.548652 56.421753 L 130.164652 59.988352 L 126.863653 63.632252 L 123.684652 67.382852 L 120.605653 71.215753 L 117.527653 75.049653 L 114.459653 78.891153 L 111.423653 82.758152 L 108.402653 86.637353 L 105.384653 90.518353 L 102.366653 94.399353 L 99.348052 98.280253 L 96.329752 102.161653 L 93.312952 106.043653 L 90.321952 109.945652 L 87.362953 113.871652 L 84.415153 117.806652 L 81.467353 121.741653 L 78.513953 125.671653 L 75.536452 129.583652 L 72.536552 133.479652 L 69.532453 137.371652 L 66.528453 141.263652 L 63.510953 145.144652 L 60.450353 148.992652 L 57.351053 152.808652 L 54.251753 156.625653 L 51.152352 160.442652 L 48.053052 164.258652 L 44.953653 168.075652 L 41.854353 171.891652 L 38.886252 175.811652 L 36.425953 180.067652 L 33.333553 183.889652 L 30.241053 187.711652 L 27.148553 191.533652 L 24.032253 195.336652 L 20.854253 199.087652 L 17.639852 202.808652" fill="none" id="34" stroke="#c45372" stroke-width="0.5" /><path d="M 341.539652 129.614652 L 340.927652 131.855652 L 340.454653 134.127652 L 340.126652 136.424652 L 339.949653 138.738653 L 340.026653 141.060652 L 340.113653 143.381652 L 340.203652 145.701652 L 340.293653 148.022652 L 340.383652 150.343652 L 340.463652 152.664652 L 340.528652 154.986652 L 340.563652 157.308652 L 340.570652 159.630652 L 340.570652 161.953652 L 340.564652 164.275652 L 340.546652 166.598652 L 340.496652 168.920652 L 340.433652 171.241652 L 340.370653 173.563652 L 340.283652 175.884652 L 340.157652 178.203652 L 339.996652 180.520652 L 339.799652 182.834652 L 339.589652 185.147652 L 339.378652 187.460652 L 339.166652 189.773652 L 338.954653 192.086652 L 338.742652 194.398652 L 338.531653 196.711652 L 338.319652 199.024652" fill="none" id="35" stroke="#008c6f" stroke-width="0.5" /><path d="M 288.414652 191.749652 L 287.145652 193.565652 L 285.876652 195.381652 L 284.607652 197.197652 L 283.338652 199.013652 L 282.069652 200.829652 L 280.800653 202.645652 L 279.531653 204.461652 L 278.262653 206.277652 L 276.991652 208.091652 L 275.708652 209.898652 L 274.416652 211.698652 L 273.099652 213.479652 L 271.777652 215.257652 L 270.449653 217.030652 L 269.120653 218.803652 L 267.791652 220.576652 L 266.463652 222.348652 L 265.134652 224.121652 L 263.805653 225.894652 L 262.477652 227.667652 L 261.148652 229.440652 L 259.819652 231.213652 L 258.491652 232.986652 L 257.164652 234.760652 L 255.841652 236.537652 L 254.540652 238.330652 L 253.250653 240.132652 L 251.977652 241.944652 L 250.713652 243.764652 L 249.456652 245.588652" fill="none" id="36" stroke="#ff94af" stroke-width="0.5" /><path d="M 339.929652 117.682653 L 337.136652 120.713652 L 334.490653 123.871652 L 332.039652 127.183653 L 329.771652 130.623652 L 327.510652 134.069652 L 325.247653 137.513652 L 322.966653 140.945652 L 320.637653 144.344652 L 318.266652 147.714652 L 315.884652 151.077652 L 313.503652 154.441652 L 311.122653 157.804652 L 308.740653 161.167652 L 306.359652 164.530652 L 303.978653 167.893652 L 301.596653 171.257652 L 299.215652 174.620652 L 296.834653 177.983652 L 294.453652 181.346652 L 292.071652 184.710652 L 289.690652 188.073652 L 287.299652 191.429652 L 284.870653 194.758652 L 282.408652 198.063652 L 279.938652 201.361652 L 277.466653 204.659652 L 274.997653 207.957652 L 272.590652 211.302652 L 270.314652 214.738653 L 268.130652 218.232653" fill="none" id="37" stroke="#488656" stroke-width="0.5" /><path d="M 340.895652 111.571652 L 337.872653 115.114653 L 334.904652 118.704652 L 332.008652 122.351653 L 329.177652 126.050652 L 326.381652 129.775652 L 323.603653 133.513652 L 320.827652 137.253652 L 318.052652 140.993652 L 315.277652 144.734652 L 312.516652 148.485652 L 309.791652 152.263652 L 307.092652 156.058652 L 304.397652 159.857653 L 301.711653 163.662652 L 299.062653 167.493652 L 296.445652 171.346652 L 293.828652 175.199652 L 291.211653 179.052652 L 288.594652 182.904652 L 285.977652 186.757652 L 283.360653 190.610652 L 280.760652 194.474652 L 278.209653 198.371652 L 275.699653 202.295652 L 273.207652 206.229652 L 270.740653 210.180652 L 268.310653 214.153652 L 265.889653 218.132652 L 263.468652 222.111652 L 261.047652 226.090652" fill="none" id="38" stroke="#ffc0e1" stroke-width="0.5" /><path d="M 45.329053 178.652652 L 45.352153 179.985652 L 45.375152 181.318652 L 45.398252 182.650652 L 45.421253 183.983652 L 45.444253 185.316652 L 45.467353 186.648652 L 45.490353 187.981652 L 45.513353 189.314652 L 45.536453 190.646652 L 45.565053 191.979652 L 45.596953 193.311652 L 45.640552 194.643652 L 45.688153 195.975652 L 45.755153 197.307652 L 45.825153 198.638652 L 45.925353 199.967652 L 46.025652 201.296652 L 46.126053 202.625653 L 46.224153 203.954652 L 46.315753 205.284652 L 46.400652 206.614652 L 46.474452 207.945652 L 46.533352 209.276652 L 46.577452 210.608652 L 46.619253 211.940652 L 46.659852 213.273652 L 46.716253 214.604652 L 46.778053 215.936652 L 46.848353 217.267652 L 46.919753 218.598652" fill="none" id="39" stroke="#6c8139" stroke-width="0.5" /><path d="M 46.938952 181.272652 L 46.938952 182.639652 L 46.938952 184.006652 L 46.938952 185.373652 L 46.938952 186.740652 L 46.938952 188.107653 L 46.938952 189.474652 L 46.938952 190.841652 L 46.938952 192.208652 L 46.938952 193.575652 L 46.938952 194.942652 L 46.939053 196.308652 L 46.939152 197.675652 L 46.939853 199.042652 L 46.940452 200.409652 L 46.943553 201.776652 L 46.946553 203.143652 L 46.978053 204.510652 L 47.009552 205.877652 L 47.084453 207.242652 L 47.159453 208.607653 L 47.267453 209.969652 L 47.375352 211.332652 L 47.509453 212.692652 L 47.643552 214.053652 L 47.814152 215.409652 L 47.984752 216.765652 L 48.192453 218.117652 L 48.400253 219.468652 L 48.635452 220.814652 L 48.870753 222.161652" fill="none" id="40" stroke="#6c8139" stroke-width="0.5" /><path d="M 377.599652 108.660652 L 381.799652 106.185653 L 386.031653 103.765653 L 390.308652 101.424653 L 394.615653 99.141153 L 398.934652 96.879752 L 403.272652 94.654652 L 407.632653 92.471753 L 412.002653 90.310653 L 416.399653 88.204853 L 420.818652 86.146152 L 425.239652 84.090953 L 429.646652 82.004953 L 434.037652 79.886553 L 438.422652 77.756653 L 442.807652 75.626053 L 447.193652 73.495452 L 451.578652 71.364752 L 455.968652 69.245553 L 460.374652 67.157453 L 464.790652 65.091453 L 469.270652 63.170752 L 473.873652 61.573253 L 478.394653 59.760353 L 482.879652 57.848253 L 487.387653 55.992553 L 491.916652 54.188553 L 496.465652 52.435453 L 501.052652 50.783453 L 505.646652 49.149352 L 510.249652 47.545453" fill="none" id="41" stroke="#a9d0ff" stroke-width="0.5" /><path d="M 466.784652 49.582653 L 466.614652 53.279553 L 466.522652 56.979253 L 466.522652 60.680053 L 466.644653 64.378853 L 466.774653 68.077353 L 466.904652 71.775852 L 467.034652 75.474352 L 467.093652 79.174752 L 467.105652 82.875552 L 467.106652 86.576352 L 467.106652 90.277152 L 467.106652 93.977953 L 467.106652 97.678753 L 467.106652 101.379653 L 467.106652 105.080652 L 467.106652 108.780653 L 467.106652 112.481652 L 467.106652 116.182653 L 467.106652 119.883652 L 467.106652 123.584653 L 467.106652 127.285652 L 467.106652 130.985652 L 467.106652 134.686652 L 467.106652 138.387652 L 467.106652 142.088652 L 467.106652 145.789652 L 467.106652 149.489652 L 467.106652 153.190652 L 467.106652 156.891652 L 467.106652 160.592652" fill="none" id="42" stroke="#0294bb" stroke-width="0.5" /><path d="M 469.038653 61.078252 L 468.639653 64.691952 L 468.331652 68.314653 L 468.130652 71.944852 L 468.078652 75.580253 L 468.072653 79.215953 L 468.072653 82.851653 L 468.072653 86.487453 L 468.072653 90.123153 L 468.072653 93.758853 L 468.072653 97.394653 L 468.072653 101.030653 L 468.057652 104.665653 L 467.994652 108.301653 L 467.874652 111.934652 L 467.732652 115.567652 L 467.589652 119.200653 L 467.446652 122.833652 L 467.303652 126.466652 L 467.160652 130.099652 L 467.018652 133.732653 L 466.875653 137.365652 L 466.732652 140.998652 L 466.589652 144.631652 L 466.446652 148.264652 L 466.303652 151.897652 L 466.161653 155.530652 L 466.018652 159.162652 L 465.895652 162.796652 L 465.838652 166.431652 L 465.818652 170.067652" fill="none" id="43" stroke="#0294bb" stroke-width="0.5" /><path d="M 469.360653 52.492953 L 469.216653 56.355953 L 469.109652 60.220053 L 469.049652 64.085252 L 469.038653 67.950753 L 469.038653 71.816452 L 469.038653 75.682052 L 469.038653 79.547753 L 469.038653 83.413353 L 469.038653 87.278953 L 469.038653 91.144653 L 469.038653 95.010253 L 469.038653 98.875952 L 469.038653 102.741653 L 469.038653 106.607653 L 469.038653 110.472652 L 469.050653 114.338652 L 469.173653 118.201652 L 469.434652 122.058653 L 469.740653 125.911653 L 470.053652 129.764652 L 470.365653 133.617652 L 470.678652 137.470652 L 470.999652 141.323652 L 471.363653 145.171652 L 471.791652 149.013652 L 472.250653 152.851653 L 472.677652 156.693652 L 473.053652 160.540652 L 473.424652 164.388652 L 473.779652 168.237652" fill="none" id="44" stroke="#0294bb" stroke-width="0.5" /><path d="M 423.962652 195.823652 L 423.965652 195.318652 L 423.967652 194.813652 L 423.965652 194.307652 L 423.963652 193.802652 L 423.957652 193.297652 L 423.950652 192.792652 L 423.944652 192.287652 L 423.938652 191.782652 L 423.923653 191.277652 L 423.905652 190.772652 L 423.888652 190.267652 L 423.872653 189.762652 L 423.847652 189.258652 L 423.816652 188.754652 L 423.784652 188.249652 L 423.749652 187.746652 L 423.713652 187.242652 L 423.675653 186.738653 L 423.629652 186.235652 L 423.571652 185.733652 L 423.514653 185.231652 L 423.459653 184.729652 L 423.398652 184.228652 L 423.319652 183.729652 L 423.240653 183.230652 L 423.161653 182.731652 L 423.079653 182.232653 L 422.986652 181.736652 L 422.891652 181.240652 L 422.674652 180.253652" fill="none" id="45" stroke="#d7b555" stroke-width="0.5" /></svg>