<?xml version="1.0" encoding="utf-8" ?>
<svg baseProfile="full" height="571.62115" version="1.1" viewBox="0,0,438.62115,571.62115" width="438.62115" xmlns="http://www.w3.org/2000/svg" xmlns:ev="http://www.w3.org/2001/xml-events" xmlns:xlink="http://www.w3.org/1999/xlink"><defs><style type="text/css"><![CDATA[
	.background { fill: white; }
	.line { stroke: firebrick; stroke-width: .1mm; }
	.blacksquare { fill: indigo; }
	.whitesquare { fill: white; }
]]></style></defs><rect class="background" height="100%" width="100%" x="0" y="0" /><path d="M 122.508575 68.708275 L 121.980575 73.630975 L 121.524575 78.560675 L 121.192575 83.500375 L 120.999575 88.447375 L 120.787575 93.393675 L 120.656575 98.342775 L 120.635575 103.293575 L 120.634575 108.244575 L 120.634575 113.195575 L 120.634575 118.145575 L 120.634575 123.096575 L 120.561575 128.047575 L 120.452575 132.996575 L 120.302575 137.945575 L 120.102575 142.892575 L 119.900575 147.838575 L 119.761575 152.787575 L 119.654575 157.737575 L 119.580575 162.687575 L 119.564575 167.638575 L 119.563575 172.589575 L 119.563575 177.539575 L 119.563575 182.490575 L 119.563575 187.441575 L 119.563575 192.392575 L 119.563575 197.343575 L 119.563575 202.294575 L 119.563575 207.244575 L 119.563575 212.195575 L 119.563575 217.146575 L 119.563575 222.097575 L 119.563575 227.048575 L 119.563575 231.998575 L 119.563575 236.949575 L 119.563575 241.900575 L 119.563575 246.851575 L 119.563575 251.802575 L 119.563575 256.753575 L 119.563575 261.703575 L 119.563575 266.654575 L 119.563575 271.605575 L 119.563575 276.556575 L 119.563575 281.507575 L 119.563575 286.457575 L 119.563575 291.408575 L 119.563575 296.359575 L 119.563575 301.310575 L 119.563575 306.261575 L 119.563575 311.212575 L 119.563575 316.162575 L 119.563575 321.113575 L 119.563575 326.064575 L 119.563575 331.015575 L 119.563575 335.966575 L 119.563575 340.916575 L 119.567575 345.867575 L 119.596575 350.818575 L 119.676575 355.768575 L 119.780575 360.718575 L 119.879575 365.668575 L 119.949575 370.618575 L 119.969575 375.569575 L 120.000575 380.520575 L 120.073575 385.470575 L 120.151575 390.420575 L 120.216575 395.370575 L 120.241575 400.321575 L 120.250575 405.272575 L 120.259575 410.223575 L 120.268575 415.174575 L 120.277575 420.124575 L 120.286575 425.075575 L 120.295575 430.026575 L 120.304575 434.977575 L 120.313575 439.928575 L 120.322575 444.879575 L 120.331575 449.829575 L 120.340575 454.780575 L 120.349575 459.731575 L 120.355575 464.682575 L 120.479575 469.631575 L 120.771575 474.573575 L 121.169575 479.508575" fill="none" id="0" stroke="#c583d9" stroke-width="0.5" /><path d="M 121.695575 71.119675 L 124.529575 75.162075 L 127.303575 79.246075 L 129.992575 83.386475 L 132.606575 87.574575 L 135.220575 91.762775 L 137.834575 95.950875 L 140.448575 100.138975 L 143.062575 104.327575 L 145.677575 108.514575 L 148.304575 112.694575 L 150.941575 116.868575 L 153.577575 121.042575 L 156.213575 125.216575 L 158.850575 129.390575 L 161.486575 133.564575 L 164.123575 137.738575 L 166.759575 141.912575 L 169.396575 146.086575 L 172.032575 150.260575 L 174.669575 154.434575 L 177.305575 158.608575 L 179.942575 162.782575 L 182.567575 166.962575 L 185.145575 171.173575 L 187.699575 175.398575 L 190.304575 179.591575 L 192.909575 183.785575 L 195.574575 187.941575 L 198.311575 192.050575 L 201.110575 196.116575 L 204.158575 200.000575 L 207.421575 203.705575 L 210.844575 207.262575" fill="none" id="1" stroke="#f375a0" stroke-width="0.5" /><path d="M 323.540575 0.310575 L 323.540575 5.304125 L 323.540575 10.297675 L 323.540575 15.291275 L 323.540575 20.284775 L 323.540575 25.278375 L 323.540575 30.271875 L 323.540575 35.265475 L 323.540575 40.258975 L 323.540575 45.252575 L 323.540575 50.246075 L 323.540575 55.239675 L 323.540575 60.233175 L 323.540575 65.226775 L 323.540575 70.220275 L 323.540575 75.213875 L 323.540575 80.207375 L 323.540575 85.200975 L 323.540575 90.194475 L 323.540575 95.188075 L 323.540575 100.181575 L 323.540575 105.175575 L 323.540575 110.168575 L 323.540575 115.162575 L 323.540575 120.155575 L 323.540575 125.149575 L 323.540575 130.142575 L 323.540575 135.136575 L 323.540575 140.129575 L 323.540575 145.123575 L 323.540575 150.117575 L 323.540575 155.110575 L 323.540575 160.104575 L 323.540575 165.097575 L 323.540575 170.091575 L 323.551575 175.084575 L 323.593575 180.078575 L 323.644575 185.071575 L 323.675575 190.064575 L 323.685575 195.058575 L 323.692575 200.051575 L 323.699575 205.045575 L 323.705575 210.039575 L 323.712575 215.032575 L 323.718575 220.026575 L 323.725575 225.019575 L 323.731575 230.013575 L 323.738575 235.006575 L 323.745575 240.000575 L 323.751575 244.993575 L 323.758575 249.987575 L 323.764575 254.980575 L 323.771575 259.974575 L 323.778575 264.968575 L 323.784575 269.961575 L 323.791575 274.955575 L 323.798575 279.948575 L 323.811575 284.942575 L 323.850575 289.935575 L 323.916575 294.928575 L 323.988575 299.921575 L 324.047575 304.914575 L 324.072575 309.908575 L 324.075575 314.901575 L 324.075575 319.895575 L 324.075575 324.889575 L 324.075575 329.882575 L 324.075575 334.876575 L 324.075575 339.869575 L 324.075575 344.863575 L 324.075575 349.856575 L 324.075575 354.850575 L 324.075575 359.843575 L 324.076575 364.837575 L 324.086575 369.830575 L 324.136575 374.824575 L 324.210575 379.817575 L 324.293575 384.810575 L 324.494575 389.799575 L 324.630575 394.791575 L 324.812575 399.781575 L 324.978575 404.772575 L 325.012575 409.765575" fill="none" id="2" stroke="#9de993" stroke-width="0.5" /><path d="M 121.035575 69.949975 L 125.897575 69.013175 L 130.742575 67.992175 L 135.560575 66.853475 L 140.358575 65.631575 L 145.156575 64.408975 L 149.950575 63.172275 L 154.728575 61.871175 L 159.502575 60.558475 L 164.276575 59.245275 L 169.049575 57.931975 L 173.823575 56.618775 L 178.597575 55.305575 L 183.371575 53.992375 L 188.145575 52.679075 L 192.919575 51.365875 L 197.693575 50.052675 L 202.467575 48.739475 L 207.243575 47.435075 L 212.025575 46.152475 L 216.810575 44.879175 L 221.595575 43.606175 L 226.379575 42.333175 L 231.164575 41.060175 L 235.949575 39.787175 L 240.734575 38.514175 L 245.518575 37.241175 L 250.303575 35.968175 L 255.088575 34.695175 L 259.873575 33.422175 L 264.657575 32.149175 L 269.441575 30.872075 L 274.219575 29.571875 L 278.985575 28.233775 L 283.748575 26.879375 L 288.510575 25.523875 L 293.272575 24.168375 L 298.034575 22.812975 L 302.796575 21.457475 L 307.558575 20.101975 L 312.320575 18.746475 L 317.082575 17.391075 L 321.844575 16.035575 L 326.607575 14.681875 L 331.373575 13.341675 L 336.146575 12.025275 L 340.921575 10.714475 L 345.702575 9.427975 L 350.491575 8.170125 L 355.286575 6.937985 L 360.089575 5.734875 L 364.897575 4.553095" fill="none" id="3" stroke="#ad5ba7" stroke-width="0.5" /><path d="M 116.886575 78.848975 L 113.829575 82.800075 L 110.753575 86.736575 L 107.633575 90.637675 L 104.552575 94.570375 L 101.502575 98.526375 L 98.450675 102.481575 L 95.381075 106.422575 L 92.298775 110.354575 L 89.213775 114.283575 L 86.128675 118.212575 L 83.043575 122.142575 L 79.958475 126.071575 L 76.873375 130.000575 L 73.793575 133.933575 L 70.733075 137.882575 L 67.694975 141.847575 L 64.672775 145.825575 L 61.673875 149.820575 L 58.701275 153.835575 L 55.748675 157.865575 L 52.828075 161.918575 L 49.933775 165.990575 L 47.045275 170.066575 L 44.155775 174.141575 L 41.257575 178.210575 L 38.336675 182.263575 L 35.403575 186.307575 L 32.466675 190.348575 L 29.493475 194.362575 L 26.585675 198.424575 L 23.781875 202.559575 L 21.055375 206.745575" fill="none" id="4" stroke="#c94e76" stroke-width="0.5" /><path d="M 121.705575 74.916875 L 118.537575 78.762075 L 115.278575 82.529175 L 111.889575 86.180575 L 108.429575 89.764575 L 104.967575 93.346575 L 101.504575 96.928675 L 98.042775 100.510575 L 94.580575 104.092575 L 91.121275 107.677575 L 87.682075 111.281575 L 84.280275 114.920575 L 80.902175 118.582575 L 77.545475 122.263575 L 74.221075 125.973575 L 70.918075 129.702575 L 67.628475 133.443575 L 64.362275 137.205575 L 61.117875 140.985575 L 57.885875 144.776575 L 54.679175 148.589575 L 51.508675 152.431575 L 48.351675 156.285575 L 45.194775 160.139575 L 42.037175 163.992575 L 38.873375 167.840575 L 35.687775 171.670575 L 32.484075 175.485575 L 29.614575 179.552575 L 27.260675 183.938575 L 25.338275 188.533575" fill="none" id="5" stroke="#57b870" stroke-width="0.5" /><path d="M 124.783575 71.916075 L 121.802575 75.873275 L 118.937575 79.915175 L 116.244575 84.073375 L 113.681575 88.312875 L 111.049575 92.510575 L 108.404575 96.699675 L 105.759575 100.888575 L 103.114575 105.077575 L 100.465575 109.264575 L 97.778675 113.426575 L 95.060475 117.568575 L 92.342375 121.710575 L 89.633675 125.858575 L 86.956875 130.027575 L 84.279975 134.196575 L 81.603175 138.365575 L 78.926275 142.534575 L 76.249475 146.702575 L 73.572575 150.871575 L 70.949475 155.074575 L 68.416075 159.332575 L 65.893575 163.596575 L 63.417275 167.887575 L 61.038475 172.232575 L 58.681875 176.590575 L 56.388775 180.982575 L 54.151275 185.402575 L 51.994775 189.862575 L 50.028375 194.410575 L 48.410075 199.092575 L 47.020875 203.848575" fill="none" id="6" stroke="#d271bb" stroke-width="0.5" /><path d="M 42.336375 191.637575 L 41.993975 196.557575 L 41.670775 201.479575 L 41.392575 206.403575 L 41.102975 211.326575 L 40.812275 216.250575 L 40.521675 221.173575 L 40.231075 226.097575 L 39.940375 231.020575 L 39.649775 235.944575 L 39.359175 240.867575 L 39.068475 245.790575 L 38.777875 250.714575 L 38.487275 255.637575 L 38.196575 260.561575 L 37.905975 265.484575 L 37.615375 270.407575 L 37.324775 275.331575 L 37.034075 280.254575 L 36.743475 285.178575 L 36.452875 290.101575 L 36.162175 295.025575 L 35.871575 299.948575 L 35.580975 304.871575 L 35.290275 309.795575 L 34.999675 314.718575 L 34.709075 319.642575 L 34.418375 324.565575 L 34.127775 329.488575 L 33.837175 334.412575 L 33.546475 339.335575 L 33.255875 344.259575 L 32.955775 349.182575 L 32.631275 354.103575 L 32.295775 359.023575 L 31.923475 363.941575 L 31.543475 368.859575 L 31.136575 373.774575 L 30.706475 378.687575 L 30.219075 383.595575 L 29.586875 388.486575 L 28.815375 393.357575 L 27.812775 398.186575 L 26.753075 403.002575 L 25.605975 407.799575" fill="none" id="7" stroke="#3d8e43" stroke-width="0.5" /><path d="M 36.848775 201.157575 L 36.811875 206.093575 L 36.731975 211.028575 L 36.582675 215.961575 L 36.416375 220.894575 L 36.322975 225.828575 L 36.313475 230.764575 L 36.309075 235.700575 L 36.270375 240.635575 L 36.205075 245.570575 L 36.134775 250.505575 L 36.064375 255.440575 L 35.993875 260.376575 L 35.923475 265.311575 L 35.852975 270.246575 L 35.782575 275.181575 L 35.711175 280.116575 L 35.630275 285.051575 L 35.527675 289.985575 L 35.415275 294.920575 L 35.302875 299.854575 L 35.190475 304.788575 L 35.078075 309.723575 L 34.965675 314.657575 L 34.853275 319.591575 L 34.740875 324.526575 L 34.628475 329.460575 L 34.516175 334.394575 L 34.403775 339.329575 L 34.291375 344.263575 L 34.178975 349.197575 L 34.066575 354.132575 L 33.954175 359.066575 L 33.845475 364.000575 L 33.754275 368.935575 L 33.684175 373.870575 L 33.620975 378.805575 L 33.559675 383.741575 L 33.514375 388.676575 L 33.502775 393.612575 L 33.502775 398.547575 L 33.502775 403.483575 L 33.502775 408.418575 L 33.502775 413.354575 L 33.502775 418.290575 L 33.502775 423.225575 L 33.502775 428.161575 L 33.502775 433.096575 L 33.502775 438.032575 L 33.502775 442.968575 L 33.502775 447.903575 L 33.502775 452.839575 L 33.502775 457.775575 L 33.430275 462.710575 L 33.292075 467.643575 L 33.101175 472.575575" fill="none" id="8" stroke="#3d8e43" stroke-width="0.5" /><path d="M 35.376575 188.637575 L 36.055975 193.539575 L 36.634875 198.454575 L 37.088275 203.382575 L 37.389075 208.321575 L 37.619875 213.265575 L 37.763975 218.212575 L 37.784775 223.160575 L 37.785675 228.109575 L 37.785675 233.058575 L 37.785675 238.007575 L 37.785675 242.956575 L 37.785675 247.905575 L 37.785675 252.854575 L 37.785675 257.803575 L 37.785675 262.752575 L 37.785675 267.700575 L 37.785675 272.649575 L 37.785675 277.598575 L 37.785675 282.547575 L 37.756975 287.496575 L 37.691675 292.444575 L 37.614475 297.393575 L 37.537175 302.341575 L 37.459975 307.289575 L 37.382675 312.238575 L 37.305475 317.186575 L 37.228175 322.134575 L 37.150975 327.082575 L 37.073675 332.031575 L 36.996475 336.979575 L 36.919475 341.927575 L 36.864875 346.876575 L 36.848775 351.825575 L 36.848775 356.774575 L 36.848775 361.722575 L 36.848775 366.671575 L 36.848775 371.620575 L 36.848775 376.569575 L 36.848775 381.518575 L 36.851075 386.467575 L 36.895275 391.416575 L 37.054375 396.362575 L 37.291175 401.305575 L 37.543875 406.248575 L 37.878575 411.185575 L 38.330675 416.113575 L 38.790175 421.041575 L 39.249675 425.968575 L 39.709175 430.896575 L 40.168575 435.823575 L 40.628075 440.751575 L 41.087575 445.678575 L 41.541175 450.606575 L 41.937075 455.539575 L 42.266275 460.477575 L 42.584375 465.416575 L 42.827575 470.359575 L 42.947275 475.306575 L 42.986575 480.255575" fill="none" id="9" stroke="#3d8e43" stroke-width="0.5" /><path d="M 335.585575 25.351775 L 338.262575 29.560275 L 340.835575 33.833175 L 343.257575 38.193375 L 345.557575 42.619175 L 347.856575 47.044975 L 350.156575 51.470775 L 352.456575 55.896575 L 354.756575 60.322375 L 357.056575 64.748175 L 359.356575 69.173875 L 361.656575 73.599675 L 363.955575 78.025675 L 366.234575 82.462275 L 368.475575 86.918075 L 370.713575 91.375375 L 372.951575 95.832675 L 375.189575 100.289975 L 377.428575 104.747575 L 379.666575 109.204575 L 381.904575 113.661575 L 384.142575 118.119575 L 386.380575 122.576575 L 388.619575 127.033575 L 390.878575 131.480575 L 393.258575 135.863575 L 395.681575 140.223575 L 398.117575 144.575575 L 400.615575 148.892575 L 403.143575 153.191575 L 405.780575 157.425575 L 408.544575 161.577575 L 411.308575 165.728575 L 414.135575 169.838575 L 417.075575 173.867575 L 420.086575 177.843575" fill="none" id="10" stroke="#00d4db" stroke-width="0.5" /><path d="M 320.461575 9.830375 L 323.606575 13.648075 L 326.786575 17.436975 L 330.009575 21.188275 L 333.275575 24.902775 L 336.542575 28.617375 L 339.808575 32.331875 L 343.074575 36.046475 L 346.340575 39.760975 L 349.606575 43.475675 L 352.867575 47.194575 L 356.110575 50.928875 L 359.337575 54.677275 L 362.559575 58.430475 L 365.769575 62.193475 L 368.956575 65.976175 L 372.127575 69.771875 L 375.293575 73.571975 L 378.443575 77.385575 L 381.557575 81.228675 L 384.641575 85.095575 L 387.717575 88.969475 L 390.784575 92.849875 L 393.826575 96.749775 L 396.841575 100.670575 L 399.848575 104.597575 L 402.855575 108.525575 L 405.862575 112.452575 L 408.869575 116.379575 L 411.874575 120.308575 L 414.870575 124.243575 L 417.852575 128.189575 L 420.832575 132.138575 L 423.810575 136.087575 L 426.776575 140.045575 L 429.656575 144.066575 L 432.495575 148.117575 L 435.260575 152.218575 L 437.975575 156.352575" fill="none" id="11" stroke="#d55969" stroke-width="0.5" /><path d="M 326.350575 13.555475 L 327.905575 18.162875 L 329.748575 22.662575 L 332.001575 26.971675 L 334.523575 31.129575 L 337.233575 35.166975 L 340.061575 39.122575 L 343.010575 42.989075 L 346.116575 46.730275 L 349.274575 50.427775 L 352.438575 54.120275 L 355.602575 57.812675 L 358.766575 61.505075 L 361.930575 65.197475 L 365.094575 68.889875 L 368.259575 72.582275 L 371.405575 76.290075 L 374.508575 80.033675 L 377.593575 83.792575 L 380.676575 87.552975 L 383.728575 91.338275 L 386.734575 95.160975 L 389.718575 99.000375 L 392.698575 102.842575 L 395.664575 106.695575 L 398.616575 110.560575 L 401.561575 114.429575 L 404.507575 118.298575 L 407.452575 122.167575 L 410.405575 126.030575 L 413.140575 130.049575 L 415.676575 134.198575 L 418.033575 138.451575" fill="none" id="12" stroke="#64e4ff" stroke-width="0.5" /><path d="M 47.690075 188.947575 L 52.329075 190.688575 L 56.978175 192.402575 L 61.643575 194.071575 L 66.300975 195.761575 L 70.922775 197.546575 L 75.483675 199.482575 L 79.995075 201.530575 L 84.458475 203.681575 L 88.891075 205.895575 L 93.298375 208.159575 L 97.679075 210.475575 L 102.049575 212.809575 L 106.420575 215.143575 L 110.790575 217.477575 L 115.162575 219.811575 L 119.539575 222.133575 L 123.936575 224.416575 L 128.340575 226.687575 L 132.745575 228.957575 L 137.162575 231.201575 L 141.599575 233.407575 L 146.039575 235.606575 L 150.479575 237.805575 L 154.920575 240.004575 L 159.360575 242.202575 L 163.799575 244.405575 L 168.226575 246.629575 L 172.635575 248.890575 L 177.032575 251.175575 L 181.421575 253.474575 L 185.800575 255.792575 L 190.163575 258.141575 L 194.533575 260.476575 L 198.929575 262.762575 L 203.349575 265.002575" fill="none" id="13" stroke="#e68e54" stroke-width="0.5" /><path d="M 37.384175 185.118575 L 42.264275 185.938575 L 47.128875 186.845575 L 51.975575 187.843575 L 56.784175 189.011575 L 61.581675 190.224575 L 66.378175 191.441575 L 71.174675 192.658575 L 75.970475 193.878575 L 80.758775 195.127575 L 85.529075 196.443575 L 90.290475 197.791575 L 95.049175 199.148575 L 99.803175 200.522575 L 104.553575 201.907575 L 109.303575 203.295575 L 114.053575 204.683575 L 118.803575 206.071575 L 123.553575 207.459575 L 128.301575 208.852575 L 133.044575 210.262575 L 137.783575 211.688575 L 142.520575 213.120575 L 147.257575 214.551575 L 151.994575 215.983575 L 156.730575 217.416575 L 161.464575 218.857575 L 166.190575 220.324575 L 170.909575 221.814575 L 175.624575 223.317575 L 180.328575 224.853575 L 185.027575 226.405575 L 189.725575 227.959575 L 194.423575 229.513575 L 199.124575 231.060575 L 203.825575 232.606575 L 208.536575 234.119575 L 213.253575 235.615575" fill="none" id="14" stroke="#54aeff" stroke-width="0.5" /><path d="M 45.414775 180.565575 L 49.986575 182.392575 L 54.583875 184.153575 L 59.218275 185.814575 L 63.874175 187.414575 L 68.530075 189.014575 L 73.186075 190.614575 L 77.841975 192.214575 L 82.497575 193.814575 L 87.145375 195.438575 L 91.781175 197.095575 L 96.413675 198.762575 L 101.046575 200.428575 L 105.678575 202.095575 L 110.310575 203.762575 L 114.932575 205.458575 L 119.544575 207.180575 L 124.154575 208.908575 L 128.764575 210.636575 L 133.374575 212.364575 L 137.984575 214.092575 L 142.594575 215.820575 L 147.204575 217.548575 L 151.813575 219.276575 L 156.423575 221.004575 L 161.030575 222.740575 L 165.630575 224.495575 L 170.224575 226.265575 L 174.818575 228.035575 L 179.412575 229.804575 L 184.006575 231.574575 L 188.600575 233.343575 L 193.194575 235.113575 L 197.789575 236.880575 L 202.392575 238.626575 L 206.982575 240.408575 L 211.550575 242.244575 L 216.103575 244.115575" fill="none" id="15" stroke="#eed973" stroke-width="0.5" /><path d="M 239.085575 134.519575 L 243.932575 135.387575 L 248.763575 136.344575 L 253.570575 137.414575 L 258.346575 138.612575 L 263.100575 139.898575 L 267.835575 141.250575 L 272.561575 142.634575 L 277.277575 144.053575 L 281.988575 145.489575 L 286.693575 146.942575 L 291.389575 148.425575 L 296.081575 149.919575 L 300.774575 151.413575 L 305.466575 152.907575 L 310.159575 154.402575 L 314.851575 155.896575 L 319.544575 157.390575 L 324.236575 158.884575 L 328.928575 160.378575 L 333.621575 161.873575 L 338.313575 163.367575 L 343.006575 164.861575 L 347.700575 166.351575 L 352.404575 167.807575 L 357.125575 169.208575 L 361.851575 170.591575 L 366.578575 171.974575 L 371.304575 173.356575 L 376.031575 174.739575 L 380.762575 176.108575 L 385.511575 177.409575 L 390.266575 178.691575 L 394.995575 180.063575 L 399.699575 181.522575 L 404.381575 183.049575" fill="none" id="16" stroke="#008bd4" stroke-width="0.5" /><path d="M 325.413575 21.109275 L 321.723575 23.816775 L 318.150575 26.677675 L 314.736575 29.725875 L 311.495575 32.957575 L 308.268575 36.204475 L 305.046575 39.454875 L 301.823575 42.705475 L 298.602575 45.957875 L 295.399575 49.227875 L 292.229575 52.528975 L 289.076575 55.847075 L 285.924575 59.166575 L 282.772575 62.486075 L 279.621575 65.805575 L 276.469575 69.125075 L 273.318575 72.444575 L 270.166575 75.764075 L 267.015575 79.083575 L 263.863575 82.403075 L 260.712575 85.722575 L 257.560575 89.042075 L 254.409575 92.361575 L 251.257575 95.681075 L 248.100575 98.995175 L 244.920575 102.287575 L 241.719575 105.558575 L 238.510575 108.823575 L 235.474575 112.233575 L 232.936575 116.035575 L 230.920575 120.135575" fill="none" id="17" stroke="#6f73bc" stroke-width="0.5" /><path d="M 319.792575 30.629075 L 316.641575 33.284375 L 313.565575 36.027475 L 310.618575 38.907675 L 307.734575 41.851375 L 304.944575 44.883475 L 302.217575 47.973075 L 299.500575 51.071375 L 296.794575 54.180075 L 294.118575 57.313375 L 291.460575 60.462975 L 288.808575 63.616375 L 286.155575 66.769775 L 283.502575 69.923175 L 280.849575 73.076575 L 278.196575 76.230075 L 275.543575 79.383475 L 272.890575 82.536875 L 270.237575 85.690275 L 267.584575 88.843575 L 264.928575 91.994475 L 262.261575 95.135975 L 259.582575 98.266875 L 256.903575 101.397575 L 254.223575 104.528575 L 251.544575 107.659575 L 248.864575 110.790575 L 246.185575 113.921575 L 243.505575 117.051575 L 240.937575 120.274575 L 238.544575 123.629575 L 236.274575 127.068575" fill="none" id="18" stroke="#6f73bc" stroke-width="0.5" /><path d="M 324.744575 19.867575 L 321.314575 22.802575 L 317.976575 25.841575 L 314.761575 29.010275 L 311.680575 32.308575 L 308.718575 35.714575 L 305.809575 39.166375 L 302.899575 42.618175 L 299.989575 46.070075 L 297.086575 49.526875 L 294.221575 53.015975 L 291.444575 56.575475 L 288.668575 60.135075 L 285.891575 63.694575 L 283.114575 67.254075 L 280.337575 70.813575 L 277.560575 74.373175 L 274.789575 77.936875 L 272.029575 81.509475 L 269.277575 85.087875 L 266.524575 88.666275 L 263.772575 92.244675 L 261.019575 95.822975 L 258.267575 99.401375 L 255.514575 102.979575 L 252.762575 106.558575 L 250.009575 110.136575 L 247.234575 113.697575 L 244.424575 117.230575 L 241.602575 120.754575 L 238.779575 124.277575 L 235.952575 127.797575" fill="none" id="19" stroke="#6f73bc" stroke-width="0.5" /><path d="M 212.048575 241.927575 L 212.049575 246.850575 L 212.049575 251.774575 L 212.048575 256.697575 L 212.048575 261.621575 L 212.030575 266.544575 L 211.997575 271.468575 L 211.962575 276.391575 L 211.927575 281.315575 L 211.892575 286.238575 L 211.857575 291.161575 L 211.822575 296.085575 L 211.783575 301.008575 L 211.717575 305.931575 L 211.640575 310.854575 L 211.564575 315.777575 L 211.487575 320.700575 L 211.404575 325.623575 L 211.297575 330.545575 L 211.173575 335.467575 L 211.043575 340.389575 L 210.914575 345.311575 L 210.784575 350.233575 L 210.655575 355.154575 L 210.526575 360.076575 L 210.396575 364.998575 L 210.267575 369.920575 L 210.137575 374.842575 L 210.008575 379.764575 L 209.879575 384.685575 L 209.749575 389.607575 L 209.620575 394.529575 L 209.490575 399.451575 L 209.361575 404.373575 L 209.232575 409.294575 L 209.102575 414.216575 L 208.973575 419.138575 L 208.844575 424.060575 L 208.723575 428.982575 L 208.645575 433.905575 L 208.580575 438.828575 L 208.516575 443.751575 L 208.452575 448.674575 L 208.388575 453.597575 L 208.324575 458.520575 L 208.260575 463.444575 L 208.196575 468.367575 L 208.132575 473.290575 L 208.071575 478.213575 L 208.039575 483.136575 L 207.761575 488.052575 L 207.253575 492.949575 L 206.561575 497.823575" fill="none" id="20" stroke="#bee481" stroke-width="0.5" /><path d="M 205.356575 246.997575 L 205.374575 251.976575 L 205.391575 256.955575 L 205.408575 261.934575 L 205.426575 266.913575 L 205.443575 271.891575 L 205.460575 276.870575 L 205.481575 281.849575 L 205.541575 286.828575 L 205.670575 291.805575 L 205.811575 296.782575 L 205.953575 301.759575 L 206.094575 306.736575 L 206.236575 311.712575 L 206.377575 316.689575 L 206.509575 321.666575 L 206.607575 326.644575 L 206.684575 331.623575 L 206.757575 336.601575 L 206.829575 341.579575 L 206.902575 346.558575 L 206.974575 351.536575 L 207.047575 356.515575 L 207.119575 361.493575 L 207.192575 366.471575 L 207.264575 371.450575 L 207.331575 376.428575 L 207.387575 381.407575 L 207.433575 386.385575 L 207.475575 391.364575 L 207.517575 396.343575 L 207.559575 401.322575 L 207.602575 406.300575 L 207.644575 411.279575 L 207.686575 416.258575 L 207.728575 421.236575 L 207.771575 426.215575 L 207.813575 431.194575 L 207.855575 436.173575 L 207.897575 441.151575 L 207.940575 446.130575 L 207.983575 451.109575 L 208.037575 456.087575 L 208.118575 461.066575 L 208.219575 466.043575 L 208.322575 471.021575 L 208.426575 475.999575 L 208.530575 480.977575 L 208.639575 485.955575 L 208.796575 490.931575 L 209.029575 495.904575 L 209.211575 500.880575 L 209.274575 505.858575 L 209.240575 510.837575 L 209.136575 515.815575 L 208.976575 520.791575" fill="none" id="21" stroke="#8f6aaf" stroke-width="0.5" /><path d="M 412.545575 176.323575 L 412.610575 181.322575 L 412.657575 186.321575 L 412.679575 191.320575 L 412.679575 196.319575 L 412.679575 201.318575 L 412.679575 206.317575 L 412.679575 211.316575 L 412.679575 216.315575 L 412.679575 221.314575 L 412.679575 226.313575 L 412.679575 231.313575 L 412.679575 236.312575 L 412.677575 241.311575 L 412.662575 246.310575 L 412.626575 251.309575 L 412.579575 256.308575 L 412.529575 261.307575 L 412.479575 266.306575 L 412.437575 271.304575 L 412.416575 276.304575 L 412.411575 281.303575 L 412.411575 286.302575 L 412.411575 291.301575 L 412.411575 296.300575 L 412.411575 301.299575 L 412.411575 306.298575 L 412.411575 311.297575 L 412.411575 316.296575 L 412.411575 321.296575 L 412.411575 326.295575 L 412.414575 331.294575 L 412.433575 336.293575 L 412.457575 341.292575 L 412.482575 346.291575 L 412.506575 351.290575 L 412.545575 356.289575 L 412.691575 361.285575 L 412.999575 366.275575 L 413.317575 371.264575 L 413.637575 376.253575 L 413.987575 381.240575 L 414.418575 386.220575 L 414.899575 391.196575 L 415.389575 396.171575 L 415.894575 401.144575 L 416.426575 406.115575 L 416.971575 411.084575 L 417.519575 416.053575 L 418.066575 421.023575 L 418.594575 425.994575 L 419.051575 430.972575 L 419.417575 435.957575 L 419.683575 440.949575 L 419.836575 445.946575 L 419.898575 450.944575 L 419.621575 455.933575 L 418.880575 460.874575 L 417.765575 465.746575" fill="none" id="22" stroke="#8bb658" stroke-width="0.5" /><path d="M 416.962575 177.461575 L 416.517575 182.364575 L 416.117575 187.270575 L 415.774575 192.181575 L 415.495575 197.095575 L 415.217575 202.010575 L 414.921575 206.924575 L 414.591575 211.835575 L 414.250575 216.746575 L 413.911575 221.657575 L 413.599575 226.569575 L 413.307575 231.483575 L 413.019575 236.398575 L 412.732575 241.312575 L 412.451575 246.226575 L 412.184575 251.142575 L 411.925575 256.057575 L 411.667575 260.973575 L 411.408575 265.889575 L 411.150575 270.805575 L 410.907575 275.721575 L 410.683575 280.639575 L 410.466575 285.557575 L 410.248575 290.474575 L 410.031575 295.392575 L 409.814575 300.310575 L 409.631575 305.229575 L 409.512575 310.150575 L 409.425575 315.072575 L 409.338575 319.994575 L 409.250575 324.916575 L 409.163575 329.838575 L 409.093575 334.760575 L 409.065575 339.682575 L 409.065575 344.605575 L 409.065575 349.527575 L 409.065575 354.450575 L 409.065575 359.373575 L 409.065575 364.295575 L 409.065575 369.218575 L 409.065575 374.140575 L 409.065575 379.063575 L 409.065575 383.986575 L 409.065575 388.908575 L 409.065575 393.831575 L 409.066575 398.753575 L 409.075575 403.676575 L 409.109575 408.598575 L 409.158575 413.521575 L 409.246575 418.443575 L 409.476575 423.360575 L 409.706575 428.277575 L 409.870575 433.197575 L 410.002575 438.118575" fill="none" id="23" stroke="#bbabff" stroke-width="0.5" /><path d="M 237.345575 131.414575 L 238.203575 136.324575 L 238.916575 141.256575 L 239.398575 146.217575 L 239.790575 151.185575 L 240.123575 156.158575 L 240.361575 161.136575 L 240.567575 166.116575 L 240.758575 171.096575 L 240.889575 176.078575 L 240.987575 181.061575 L 241.081575 186.044575 L 241.169575 191.027575 L 241.238575 196.010575 L 241.282575 200.994575 L 241.320575 205.978575 L 241.358575 210.962575 L 241.397575 215.945575 L 241.435575 220.929575 L 241.473575 225.913575 L 241.512575 230.897575 L 241.550575 235.880575 L 241.591575 240.864575 L 241.653575 245.848575 L 241.754575 250.831575 L 241.878575 255.813575 L 242.004575 260.795575 L 242.130575 265.777575 L 242.264575 270.760575 L 242.415575 275.741575 L 242.580575 280.722575 L 242.748575 285.703575 L 242.919575 290.684575 L 243.118575 295.664575 L 243.371575 300.642575 L 243.657575 305.617575 L 243.953575 310.592575 L 244.282575 315.565575 L 244.687575 320.533575 L 245.148575 325.495575 L 245.631575 330.456575 L 246.163575 335.411575 L 246.760575 340.359575 L 247.373575 345.305575 L 247.986575 350.251575 L 248.596575 355.198575 L 249.183575 360.147575 L 249.711575 365.103575 L 250.198575 370.063575 L 250.599575 375.030575 L 250.902575 380.005575 L 251.110575 384.984575 L 251.196575 389.967575 L 251.252575 394.951575 L 251.264575 399.935575" fill="none" id="24" stroke="#658424" stroke-width="0.5" /><path d="M 253.807575 129.138575 L 253.722575 134.119575 L 253.651575 139.100575 L 253.599575 144.082575 L 253.569575 149.064575 L 253.532575 154.045575 L 253.411575 159.026575 L 253.285575 164.006575 L 253.158575 168.986575 L 253.031575 173.967575 L 252.905575 178.947575 L 252.778575 183.927575 L 252.651575 188.907575 L 252.525575 193.888575 L 252.398575 198.868575 L 252.271575 203.848575 L 252.145575 208.828575 L 252.018575 213.809575 L 251.892575 218.789575 L 251.765575 223.769575 L 251.638575 228.749575 L 251.507575 233.730575 L 251.355575 238.709575 L 251.202575 243.689575 L 251.049575 248.668575 L 250.896575 253.648575 L 250.737575 258.627575 L 250.547575 263.605575 L 250.347575 268.583575 L 250.146575 273.561575 L 249.945575 278.539575 L 249.744575 283.517575 L 249.544575 288.494575 L 249.343575 293.472575 L 249.142575 298.450575 L 248.941575 303.428575 L 248.744575 308.406575 L 248.577575 313.385575 L 248.418575 318.364575 L 248.258575 323.344575 L 248.099575 328.323575 L 248.053575 333.304575 L 248.052575 338.286575 L 248.052575 343.268575 L 248.052575 348.250575 L 248.052575 353.232575 L 248.079575 358.214575 L 248.379575 363.187575 L 248.902575 368.141575 L 249.966575 373.008575 L 251.398575 377.779575 L 253.138575 382.447575" fill="none" id="25" stroke="#f1b9ff" stroke-width="0.5" /><path d="M 247.785575 160.181575 L 247.785575 165.085575 L 247.785575 169.989575 L 247.785575 174.894575 L 247.785575 179.798575 L 247.785575 184.702575 L 247.785575 189.607575 L 247.785575 194.511575 L 247.785575 199.415575 L 247.785575 204.320575 L 247.748575 209.224575 L 247.630575 214.127575 L 247.480575 219.029575 L 247.326575 223.931575 L 247.172575 228.833575 L 247.018575 233.735575 L 246.864575 238.637575 L 246.710575 243.539575 L 246.556575 248.441575 L 246.402575 253.343575 L 246.232575 258.244575 L 246.048575 263.145575 L 245.862575 268.046575 L 245.675575 272.946575 L 245.489575 277.847575 L 245.303575 282.748575 L 245.116575 287.649575 L 244.930575 292.550575 L 244.744575 297.451575 L 244.573575 302.352575 L 244.431575 307.254575 L 244.300575 312.157575 L 244.170575 317.059575 L 244.067575 321.963575 L 244.024575 326.867575 L 244.010575 331.771575 L 243.996575 336.675575 L 243.982575 341.580575 L 243.968575 346.484575 L 243.955575 351.388575 L 243.941575 356.293575 L 243.927575 361.197575 L 243.920575 366.101575 L 243.964575 371.006575 L 244.093575 375.908575 L 244.251575 380.810575 L 244.473575 385.709575 L 244.756575 390.606575 L 244.976575 395.505575 L 244.874575 400.408575 L 244.551575 405.302575 L 244.037575 410.179575" fill="none" id="26" stroke="#989c37" stroke-width="0.5" /><path d="M 400.771575 416.415575 L 400.077575 416.304575 L 399.383575 416.194575 L 398.691575 416.308575 L 397.999575 416.428575 L 397.329575 416.639575 L 396.662575 416.859575 L 395.996575 417.082575 L 395.335575 417.316575 L 394.779575 417.745575 L 394.223575 418.174575 L 393.665575 418.602575 L 393.107575 419.029575 L 392.550575 419.457575 L 391.993575 419.886575 L 391.460575 420.344575 L 390.928575 420.802575 L 390.394575 421.259575 L 389.861575 421.717575 L 389.328575 422.174575 L 388.794575 422.632575 L 388.266575 423.095575 L 387.737575 423.558575 L 387.208575 424.020575 L 386.678575 424.481575 L 386.149575 424.943575 L 385.619575 425.405575 L 385.090575 425.867575 L 384.560575 426.329575 L 384.031575 426.791575 L 383.501575 427.253575" fill="none" id="27" stroke="#cfe395" stroke-width="0.5" /><path d="M 233.597575 510.344575 L 238.012575 508.171575 L 242.426575 505.998575 L 246.840575 503.825575 L 251.255575 501.652575 L 255.669575 499.479575 L 260.084575 497.307575 L 264.498575 495.134575 L 268.912575 492.959575 L 273.300575 490.734575 L 277.651575 488.437575 L 281.992575 486.120575 L 286.329575 483.797575 L 290.638575 481.422575 L 294.934575 479.022575 L 299.228575 476.621575 L 303.501575 474.181575 L 307.749575 471.698575 L 311.989575 469.202575 L 316.217575 466.686575 L 320.409575 464.111575 L 324.577575 461.495575 L 328.744575 458.880575 L 332.912575 456.264575 L 337.079575 453.648575 L 341.248575 451.036575 L 345.428575 448.440575 L 349.621575 445.866575 L 353.819575 443.299575 L 358.017575 440.732575 L 362.214575 438.166575 L 366.426575 435.622575 L 370.703575 433.190575 L 375.032575 430.851575 L 379.361575 428.513575 L 383.693575 426.179575 L 388.047575 423.889575 L 392.364575 421.528575 L 396.595575 419.017575 L 400.771575 416.415575" fill="none" id="28" stroke="#cfe395" stroke-width="0.5" /><path d="M 252.737575 496.478575 L 251.516575 497.013575 L 250.296575 497.548575 L 249.082575 498.096575 L 247.867575 498.644575 L 246.660575 499.207575 L 245.452575 499.770575 L 244.248575 500.341575 L 243.044575 500.911575 L 241.848575 501.498575 L 240.652575 502.086575 L 239.458575 502.677575 L 238.264575 503.269575 L 237.078575 503.875575 L 235.892575 504.482575 L 234.708575 505.094575 L 233.524575 505.705575 L 232.344575 506.323575 L 231.163575 506.940575 L 229.988575 507.569575 L 228.814575 508.198575 L 227.643575 508.835575 L 226.473575 509.471575 L 225.317575 510.134575 L 224.162575 510.797575 L 223.020575 511.485575 L 221.879575 512.173575 L 220.764575 512.903575 L 219.650575 513.633575 L 218.558575 514.396575 L 217.466575 515.160575" fill="none" id="29" stroke="#cfe395" stroke-width="0.5" /><path d="M 217.466575 515.160575 L 222.174575 513.525575 L 226.826575 511.738575 L 231.394575 509.746575 L 235.891575 507.599575 L 240.386575 505.447575 L 244.881575 503.295575 L 249.375575 501.141575 L 253.862575 498.973575 L 258.341575 496.787575 L 262.818575 494.598575 L 267.291575 492.401575 L 271.749575 490.174575 L 276.202575 487.936575 L 280.652575 485.693575 L 285.093575 483.432575 L 289.518575 481.138575 L 293.934575 478.829575 L 298.348575 476.515575 L 302.745575 474.170575 L 307.113575 471.771575 L 311.466575 469.345575 L 315.818575 466.916575 L 320.164575 464.478575 L 324.501575 462.023575 L 328.832575 459.558575 L 333.162575 457.091575 L 337.485575 454.611575 L 341.794575 452.106575 L 346.094575 449.588575 L 350.396575 447.072575 L 354.710575 444.577575 L 359.045575 442.119575 L 363.389575 439.677575 L 367.740575 437.246575 L 372.115575 434.861575 L 376.513575 432.516575 L 380.918575 430.186575 L 385.340575 427.888575 L 389.784575 425.633575 L 394.239575 423.399575 L 398.732575 421.242575 L 403.255575 419.151575 L 407.769575 417.040575 L 412.169575 414.701575 L 416.430575 412.117575 L 420.576575 409.351575" fill="none" id="30" stroke="#cfe395" stroke-width="0.5" /><path d="M 32.833475 433.047575 L 37.177375 435.409575 L 41.532175 437.750575 L 45.906075 440.055575 L 50.263075 442.392575 L 54.575475 444.810575 L 58.875975 447.250575 L 63.176375 449.689575 L 67.472875 452.136575 L 71.755675 454.606575 L 76.024375 457.101575 L 80.288275 459.604575 L 84.552275 462.106575 L 88.818275 464.606575 L 93.093075 467.090575 L 97.379775 469.554575 L 101.670575 472.010575 L 106.011575 474.377575 L 110.369575 476.712575 L 114.742575 479.019575 L 119.151575 481.257575 L 123.574575 483.466575 L 127.998575 485.673575 L 132.423575 487.879575 L 136.848575 490.085575 L 141.272575 492.291575 L 145.697575 494.498575 L 150.122575 496.704575 L 154.543575 498.916575 L 158.951575 501.156575 L 163.346575 503.421575 L 167.733575 505.701575 L 172.101575 508.017575 L 176.460575 510.352575 L 180.842575 512.641575 L 185.250575 514.881575 L 189.664575 517.107575 L 194.105575 519.280575 L 198.838575 520.683575 L 203.750575 521.002575" fill="none" id="31" stroke="#c45372" stroke-width="0.5" /><path d="M 33.235075 427.977575 L 37.037175 430.993575 L 40.933575 433.885575 L 44.960875 436.593575 L 49.062875 439.186575 L 53.174475 441.764575 L 57.330875 444.269575 L 61.515675 446.727575 L 65.724775 449.142575 L 69.950875 451.528575 L 74.180975 453.906575 L 78.411575 456.284575 L 82.646175 458.655575 L 86.893075 461.003575 L 91.154175 463.325575 L 95.424575 465.631575 L 99.715375 467.898575 L 104.015575 470.147575 L 108.316575 472.396575 L 112.616575 474.645575 L 116.925575 476.877575 L 121.260575 479.058575 L 125.611575 481.208575 L 129.965575 483.352575 L 134.321575 485.491575 L 138.688575 487.609575 L 143.069575 489.696575 L 147.456575 491.770575 L 151.861575 493.806575 L 156.304575 495.759575 L 160.787575 497.616575" fill="none" id="32" stroke="#008c6f" stroke-width="0.5" /><path d="M 31.896575 440.394575 L 36.629675 441.542575 L 41.293375 442.945575 L 45.866675 444.619575 L 50.257675 446.723575 L 54.627975 448.872575 L 58.997175 451.024575 L 63.366075 453.176575 L 67.713875 455.370575 L 72.024475 457.637575 L 76.326575 459.920575 L 80.615175 462.228575 L 84.876675 464.586575 L 89.127275 466.963575 L 93.377275 469.342575 L 97.627175 471.720575 L 101.877575 474.099575 L 106.126575 476.477575 L 110.376575 478.856575 L 114.626575 481.234575 L 118.876575 483.613575 L 123.123575 485.997575 L 127.361575 488.397575 L 131.591575 490.811575 L 135.821575 493.224575 L 140.052575 495.638575 L 144.282575 498.051575 L 148.508575 500.472575 L 152.720575 502.917575 L 156.920575 505.383575 L 161.100575 507.881575 L 165.254575 510.424575 L 169.408575 512.966575 L 173.581575 515.477575 L 177.855575 517.811575 L 182.189575 520.034575 L 186.573575 522.154575" fill="none" id="33" stroke="#ff94af" stroke-width="0.5" /><path d="M 21.908375 443.794575 L 26.565875 442.154575 L 31.190775 440.424575 L 35.766475 438.568575 L 40.300175 436.612575 L 44.832475 434.653575 L 49.364875 432.694575 L 53.897275 430.735575 L 58.429575 428.775575 L 62.961975 426.816575 L 67.495175 424.859575 L 72.036375 422.920575 L 76.582575 420.993575 L 81.129775 419.069575 L 85.680475 417.152575 L 90.258975 415.303575 L 94.856775 413.503575 L 99.458475 411.713575 L 104.060575 409.923575 L 108.671575 408.159575 L 113.301575 406.441575 L 117.938575 404.745575 L 122.575575 403.049575 L 127.213575 401.354575 L 131.863575 399.693575 L 136.530575 398.081575 L 141.202575 396.482575 L 145.874575 394.884575 L 150.548575 393.292575 L 155.229575 391.721575 L 159.919575 390.176575 L 164.610575 388.635575 L 169.302575 387.096575 L 173.997575 385.568575 L 178.699575 384.063575 L 183.405575 382.565575 L 188.110575 381.068575 L 192.815575 379.571575 L 197.521575 378.074575 L 202.226575 376.576575 L 206.927575 375.067575 L 211.618575 373.527575 L 216.309575 371.984575 L 220.935575 370.259575 L 225.489575 368.350575 L 229.983575 366.305575" fill="none" id="34" stroke="#488656" stroke-width="0.5" /><path d="M 250.997575 353.060575 L 246.388575 354.760575 L 241.814575 356.554575 L 237.294575 358.478575 L 232.819575 360.506575 L 228.345575 362.534575 L 223.870575 364.562575 L 219.408575 366.617575 L 214.963575 368.709575 L 210.518575 370.800575 L 206.051575 372.844575 L 201.571575 374.861575 L 197.089575 376.873575 L 192.607575 378.884575 L 188.125575 380.896575 L 183.644575 382.908575 L 179.149575 384.892575 L 174.637575 386.835575 L 170.120575 388.767575 L 165.603575 390.698575 L 161.078575 392.610575 L 156.544575 394.501575 L 152.007575 396.386575 L 147.470575 398.271575 L 142.927575 400.139575 L 138.368575 401.969575 L 133.801575 403.780575 L 129.234575 405.590575 L 124.667575 407.399575 L 120.095575 409.198575 L 115.518575 410.982575 L 110.939575 412.763575 L 106.361575 414.544575 L 101.782575 416.325575 L 97.204475 418.106575 L 92.626075 419.887575 L 88.047575 421.668575 L 83.468875 423.448575 L 78.888175 425.223575 L 74.303675 426.989575 L 69.717375 428.749575 L 65.130775 430.509575 L 60.541175 432.261575 L 55.942575 433.990575 L 51.337875 435.702575 L 46.733075 437.414575 L 42.128275 439.125575 L 37.523575 440.837575 L 32.918575 442.549575 L 28.310075 444.250575 L 23.681375 445.896575 L 19.049475 447.533575 L 14.417775 449.171575 L 9.737725 450.664575 L 5.034935 452.085575 L 0.310575 453.432575" fill="none" id="35" stroke="#488656" stroke-width="0.5" /><path d="M 0.310575 453.432575 L 4.896975 451.645575 L 9.487935 449.869575 L 14.085275 448.110575 L 18.687975 446.366575 L 23.256075 444.532575 L 27.813375 442.672575 L 32.369675 440.809575 L 36.925875 438.946575 L 41.482175 437.084575 L 46.043975 435.234575 L 50.613375 433.404575 L 55.185375 431.580575 L 59.757475 429.757575 L 64.329575 427.933575 L 68.901675 426.110575 L 73.473775 424.287575 L 78.052175 422.479575 L 82.646475 420.712575 L 87.251475 418.973575 L 91.857775 417.238575 L 96.463975 415.502575 L 101.070575 413.767575 L 105.676575 412.031575 L 110.282575 410.296575 L 114.888575 408.560575 L 119.494575 406.824575 L 124.101575 405.089575 L 128.707575 403.353575 L 133.312575 401.615575 L 137.908575 399.853575 L 142.484575 398.040575 L 147.055575 396.211575 L 151.624575 394.382575 L 156.189575 392.539575 L 160.724575 390.626575 L 165.252575 388.695575 L 169.779575 386.764575 L 174.305575 384.827575" fill="none" id="36" stroke="#488656" stroke-width="0.5" /><path d="M 209.773575 375.411575 L 214.328575 373.607575 L 218.865575 371.759575 L 223.383575 369.866575 L 227.867575 367.890575 L 232.351575 365.917575 L 236.840575 363.955575 L 241.345575 362.031575 L 245.857575 360.122575 L 250.370575 358.215575 L 254.883575 356.309575 L 259.395575 354.402575 L 263.908575 352.495575 L 268.421575 350.589575 L 272.934575 348.682575 L 277.447575 346.776575 L 281.961575 344.872575 L 286.493575 343.013575 L 291.044575 341.198575 L 295.600575 339.397575 L 300.156575 337.597575 L 304.722575 335.820575 L 309.295575 334.063575 L 313.869575 332.309575 L 318.446575 330.561575 L 323.032575 328.837575 L 327.625575 327.134575 L 332.218575 325.431575 L 336.822575 323.756575 L 341.446575 322.138575 L 346.075575 320.533575 L 350.705575 318.932575 L 355.339575 317.341575 L 359.974575 315.756575 L 364.610575 314.172575 L 369.246575 312.588575 L 373.882575 311.003575 L 378.518575 309.419575 L 383.153575 307.834575 L 387.789575 306.250575 L 392.425575 304.667575 L 397.069575 303.105575 L 401.725575 301.581575 L 406.388575 300.080575" fill="none" id="37" stroke="#488656" stroke-width="0.5" /><path d="M 246.446575 351.922575 L 250.918575 353.985575 L 255.433575 355.953575 L 260.008575 357.775575 L 264.622575 359.497575 L 269.249575 361.183575 L 273.917575 362.753575 L 278.603575 364.269575 L 283.291575 365.778575 L 287.979575 367.286575 L 292.664575 368.805575 L 297.341575 370.348575 L 302.013575 371.903575 L 306.681575 373.472575 L 311.338575 375.074575 L 315.988575 376.698575 L 320.634575 378.331575 L 325.271575 379.989575 L 329.898575 381.676575 L 334.522575 383.373575 L 339.142575 385.079575 L 343.755575 386.803575 L 348.364575 388.539575 L 352.972575 390.274575 L 357.581575 392.010575 L 362.190575 393.745575 L 366.799575 395.481575 L 371.408575 397.217575 L 376.018575 398.950575 L 380.636575 400.661575 L 385.277575 402.307575 L 389.934575 403.910575 L 394.615575 405.440575 L 399.312575 406.919575 L 404.030575 408.334575 L 408.808575 409.528575 L 413.616575 410.593575" fill="none" id="38" stroke="#6c8139" stroke-width="0.5" /><path d="M 266.255575 345.299575 L 270.297575 347.136575 L 274.314575 349.027575 L 278.297575 350.989575 L 282.244575 353.023575 L 286.190575 355.057575 L 290.137575 357.091575 L 294.083575 359.125575 L 298.030575 361.159575 L 301.977575 363.192575 L 305.938575 365.197575 L 309.908575 367.185575 L 313.879575 369.171575 L 317.850575 371.156575 L 321.821575 373.142575 L 325.792575 375.128575 L 329.763575 377.114575 L 333.734575 379.100575 L 337.711575 381.075575 L 341.706575 383.012575 L 345.721575 384.907575 L 349.739575 386.794575 L 353.758575 388.681575 L 357.778575 390.567575 L 361.807575 392.432575 L 365.860575 394.244575 L 369.920575 396.042575 L 373.979575 397.841575 L 378.026575 399.668575 L 381.985575 401.676575 L 385.858575 403.848575 L 389.658575 406.143575" fill="none" id="39" stroke="#6c8139" stroke-width="0.5" /><path d="M 251.800575 341.574575 L 256.301575 343.609575 L 260.804575 345.642575 L 265.310575 347.666575 L 269.809575 349.705575 L 274.328575 351.701575 L 278.860575 353.668575 L 283.393575 355.629575 L 287.927575 357.590575 L 292.461575 359.551575 L 296.995575 361.513575 L 301.529575 363.474575 L 306.063575 365.435575 L 310.597575 367.396575 L 315.131575 369.357575 L 319.665575 371.319575 L 324.199575 373.280575 L 328.733575 375.241575 L 333.267575 377.202575 L 337.801575 379.163575 L 342.335575 381.125575 L 346.867575 383.089575 L 351.391575 385.073575 L 355.914575 387.061575 L 360.436575 389.048575 L 364.959575 391.035575 L 369.482575 393.022575 L 374.004575 395.010575 L 378.527575 396.997575 L 383.049575 398.984575 L 387.572575 400.972575 L 392.098575 402.950575 L 396.690575 404.768575 L 401.370575 406.344575 L 406.121575 407.696575" fill="none" id="40" stroke="#6c8139" stroke-width="0.5" /><path d="M 203.483575 244.721575 L 207.895575 242.599575 L 212.351575 240.569575 L 216.865575 238.671575 L 221.424575 236.886575 L 225.987575 235.109575 L 230.550575 233.334575 L 235.144575 231.638575 L 239.759575 230.002575 L 244.378575 228.377575 L 249.002575 226.766575 L 253.633575 225.178575 L 258.267575 223.595575 L 262.900575 222.013575 L 267.534575 220.430575 L 272.168575 218.847575 L 276.801575 217.265575 L 281.435575 215.682575 L 286.069575 214.099575 L 290.702575 212.517575 L 295.336575 210.934575 L 299.969575 209.352575 L 304.603575 207.769575 L 309.237575 206.186575 L 313.870575 204.604575 L 318.504575 203.021575 L 323.138575 201.438575 L 327.771575 199.856575 L 332.399575 198.257575 L 337.016575 196.627575 L 341.630575 194.988575 L 346.244575 193.349575 L 350.863575 191.724575 L 355.497575 190.142575 L 360.141575 188.589575 L 364.784575 187.036575 L 369.428575 185.483575 L 374.071575 183.930575 L 378.715575 182.376575 L 383.361575 180.829575 L 388.022575 179.329575 L 392.690575 177.853575 L 397.365575 176.397575 L 402.035575 174.924575 L 406.692575 173.411575 L 411.340575 171.873575" fill="none" id="41" stroke="#a9d0ff" stroke-width="0.5" /><path d="M 210.978575 249.274575 L 215.521575 247.249575 L 220.063575 245.221575 L 224.606575 243.195575 L 229.142575 241.153575 L 233.678575 239.113575 L 238.218575 237.080575 L 242.782575 235.102575 L 247.374575 233.191575 L 251.976575 231.302575 L 256.592575 229.451575 L 261.232575 227.659575 L 265.881575 225.888575 L 270.533575 224.128575 L 275.195575 222.395575 L 279.868575 220.688575 L 284.543575 218.991575 L 289.226575 217.314575 L 293.928575 215.691575 L 298.644575 214.109575 L 303.364575 212.539575 L 308.086575 210.977575 L 312.816575 209.436575 L 317.551575 207.915575 L 322.289575 206.400575 L 327.030575 204.894575 L 331.780575 203.418575 L 336.539575 201.971575 L 341.301575 200.534575 L 346.065575 199.105575 L 350.838575 197.704575 L 355.621575 196.339575 L 360.407575 194.984575 L 365.190575 193.618575 L 369.960575 192.206575 L 374.712575 190.737575 L 379.461575 189.257575 L 384.207575 187.770575 L 388.944575 186.251575 L 393.677575 184.721575 L 398.401575 183.163575 L 403.097575 181.523575 L 407.758575 179.787575 L 412.377575 177.940575 L 416.962575 176.012575" fill="none" id="42" stroke="#a98c2c" stroke-width="0.5" /><path d="M 15.083375 186.363575 L 19.761775 184.889575 L 24.424775 183.368575 L 29.067775 181.786575 L 33.686175 180.135575 L 38.280075 178.416575 L 42.862075 176.666575 L 47.442975 174.913575 L 52.036075 173.192575 L 56.633675 171.482575 L 61.231675 169.775575 L 65.829675 168.067575 L 70.427675 166.359575 L 75.025675 164.651575 L 79.623775 162.944575 L 84.221775 161.236575 L 88.819775 159.528575 L 93.417775 157.820575 L 98.018575 156.120575 L 102.631575 154.452575 L 107.254575 152.813575 L 111.879575 151.181575 L 116.505575 149.550575 L 121.142575 147.952575 L 125.794575 146.398575 L 130.451575 144.858575 L 135.108575 143.319575 L 139.768575 141.787575 L 144.434575 140.275575 L 149.104575 138.776575 L 153.775575 137.278575 L 158.449575 135.792575 L 163.138575 134.351575 L 167.839575 132.954575 L 172.542575 131.560575 L 177.245575 130.166575 L 181.947575 128.772575 L 186.650575 127.378575 L 191.353575 125.984575 L 196.056575 124.590575 L 200.758575 123.196575 L 205.461575 121.803575 L 210.164575 120.409575 L 214.864575 119.007575 L 219.525575 117.480575 L 224.151575 115.848575 L 228.746575 114.134575" fill="none" id="43" stroke="#0294bb" stroke-width="0.5" /><path d="M 223.559575 115.169575 L 219.078575 117.341575 L 214.559575 119.435575 L 209.992575 121.422575 L 205.388575 123.319575 L 200.772575 125.190575 L 196.153575 127.052575 L 191.513575 128.860575 L 186.852575 130.614575 L 182.186575 132.357575 L 177.521575 134.100575 L 172.855575 135.842575 L 168.190575 137.584575 L 163.520575 139.315575 L 158.840575 141.019575 L 154.152575 142.699575 L 149.462575 144.375575 L 144.770575 146.045575 L 140.071575 147.693575 L 135.360575 149.308575 L 130.643575 150.908575 L 125.926575 152.505575 L 121.209575 154.103575 L 116.492575 155.700575 L 111.775575 157.298575 L 107.058575 158.895575 L 102.341575 160.492575 L 97.622175 162.084575 L 92.894975 163.651575 L 88.157575 165.187575 L 83.416375 166.711575 L 78.674975 168.235575 L 73.933075 169.757575 L 69.189475 171.274575 L 64.444575 172.787575 L 59.699375 174.299575 L 54.953075 175.808575 L 50.199475 177.293575 L 45.437675 178.752575 L 40.674075 180.205575 L 35.905675 181.642575 L 31.124575 183.036575 L 26.340775 184.421575 L 21.556775 185.805575 L 16.772375 187.188575" fill="none" id="44" stroke="#d7b555" stroke-width="0.5" /><path d="M 228.511575 560.840575 L 233.001575 558.921575 L 237.402575 556.809575 L 241.673575 554.444575 L 245.825575 551.875575 L 249.967575 549.289575 L 254.107575 546.702575 L 258.252575 544.122575 L 262.427575 541.590575 L 266.622575 539.092575 L 270.825575 536.608575 L 275.051575 534.162575 L 279.300575 531.757575 L 283.558575 529.367575 L 287.830575 527.004575 L 292.129575 524.690575 L 296.445575 522.406575 L 300.765575 520.132575 L 305.099575 517.883575 L 309.452575 515.672575 L 313.814575 513.478575 L 318.176575 511.283575 L 322.537575 509.089575 L 326.899575 506.895575 L 331.261575 504.701575 L 335.623575 502.507575 L 339.984575 500.313575 L 344.346575 498.119575 L 348.708575 495.925575 L 353.070575 493.731575 L 357.431575 491.537575 L 361.794575 489.344575 L 366.165575 487.170575 L 370.550575 485.020575 L 374.939575 482.883575 L 379.345575 480.779575 L 383.765575 478.704575 L 388.188575 476.637575 L 392.613575 474.573575 L 397.061575 472.560575 L 401.381575 470.293575 L 405.451575 467.608575" fill="none" id="45" stroke="#4a7ea6" stroke-width="0.5" /><path d="M 220.614575 562.185575 L 225.183575 560.239575 L 229.663575 558.097575 L 234.006575 555.691575 L 238.249575 553.110575 L 242.492575 550.530575 L 246.748575 547.971575 L 251.023575 545.445575 L 255.308575 542.934575 L 259.614575 540.461575 L 263.956575 538.051575 L 268.313575 535.668575 L 272.680575 533.305575 L 277.079575 531.000575 L 281.512575 528.762575 L 285.955575 526.544575 L 290.407575 524.345575 L 294.887575 522.202575 L 299.393575 520.115575 L 303.908575 518.047575 L 308.427575 515.988575 L 312.958575 513.955575 L 317.500575 511.948575 L 322.046575 509.949575 L 326.592575 507.951575 L 331.138575 505.952575 L 335.684575 503.954575 L 340.231575 501.955575 L 344.777575 499.957575 L 349.323575 497.958575 L 353.868575 495.958575 L 358.405575 493.940575 L 362.921575 491.875575 L 367.427575 489.787575 L 371.915575 487.660575 L 376.370575 485.468575 L 380.814575 483.250575 L 385.256575 481.030575 L 389.692575 478.799575 L 393.967575 476.274575 L 398.051575 473.450575 L 401.971575 470.402575" fill="none" id="46" stroke="#4a7ea6" stroke-width="0.5" /><path d="M 47.288575 479.198575 L 51.377075 482.047575 L 55.492275 484.857575 L 59.641575 487.617575 L 63.822375 490.329575 L 68.003275 493.040575 L 72.184175 495.752575 L 76.365075 498.464575 L 80.545475 501.176575 L 84.722275 503.894575 L 88.890775 506.625575 L 93.055975 509.361575 L 97.220675 512.097575 L 101.385575 514.834575 L 105.550575 517.570575 L 109.714575 520.306575 L 113.879575 523.043575 L 118.044575 525.779575 L 122.209575 528.516575 L 126.373575 531.252575 L 130.553575 533.966575 L 134.769575 536.621575 L 139.015575 539.230575 L 143.276575 541.815575 L 147.568575 544.346575 L 151.900575 546.809575 L 156.257575 549.227575 L 160.655575 551.572575 L 165.089575 553.846575 L 169.550575 556.066575 L 174.024575 558.261575 L 178.475575 560.501575 L 182.910575 562.773575 L 187.292575 565.146575 L 191.550575 567.735575 L 195.720575 570.464575" fill="none" id="47" stroke="#ffa372" stroke-width="0.5" /><path d="M 184.343575 319.534575 L 188.919575 317.721575 L 193.489575 315.891575 L 198.049575 314.038575 L 202.601575 312.165575 L 207.153575 310.292575 L 211.706575 308.421575 L 216.265575 306.564575 L 220.839575 304.747575 L 225.423575 302.954575 L 230.010575 301.166575 L 234.596575 299.379575 L 239.182575 297.591575 L 243.769575 295.805575 L 248.361575 294.031575 L 252.963575 292.287575 L 257.574575 290.564575 L 262.185575 288.841575 L 266.796575 287.119575 L 271.407575 285.396575 L 276.018575 283.673575 L 280.629575 281.950575 L 285.234575 280.211575 L 289.829575 278.447575 L 294.421575 276.672575 L 299.012575 274.899575 L 303.612575 273.147575 L 308.220575 271.415575 L 312.829575 269.688575 L 317.438575 267.960575 L 322.047575 266.232575 L 326.657575 264.505575 L 331.270575 262.788575 L 335.891575 261.094575 L 340.519575 259.417575 L 345.156575 257.763575 L 349.810575 256.161575 L 354.479575 254.604575 L 359.156575 253.069575 L 363.843575 251.564575 L 368.536575 250.079575 L 373.230575 248.598575 L 377.927575 247.126575 L 382.543575 245.418575 L 387.075575 243.499575 L 391.532575 241.409575" fill="none" id="48" stroke="#96ddff" stroke-width="0.5" /><path d="M 205.223575 310.738575 L 209.796575 308.887575 L 214.405575 307.125575 L 219.062575 305.495575 L 223.752575 303.961575 L 228.442575 302.429575 L 233.137575 300.910575 L 237.852575 299.456575 L 242.573575 298.024575 L 247.296575 296.594575 L 252.018575 295.164575 L 256.740575 293.734575 L 261.463575 292.304575 L 266.185575 290.875575 L 270.908575 289.445575 L 275.630575 288.015575 L 280.353575 286.585575 L 285.070575 285.137575 L 289.777575 283.659575 L 294.480575 282.166575 L 299.182575 280.672575 L 303.877575 279.154575 L 308.556575 277.588575 L 313.225575 275.990575 L 317.892575 274.389575 L 322.559575 272.788575 L 327.226575 271.187575 L 331.893575 269.586575 L 336.560575 267.985575 L 341.227575 266.382575 L 345.888575 264.765575 L 350.544575 263.132575 L 355.199575 261.496575 L 359.856575 259.864575 L 364.520575 258.254575 L 369.197575 256.683575 L 373.876575 255.117575 L 378.558575 253.559575 L 383.253575 252.042575 L 387.964575 250.573575 L 392.675575 249.108575 L 397.387575 247.644575 L 402.099575 246.181575 L 406.816575 244.733575 L 411.565575 243.394575 L 416.331575 242.115575 L 421.111575 240.892575" fill="none" id="49" stroke="#b06735" stroke-width="0.5" /><path d="M 15.567775 241.202575 L 20.246175 242.565575 L 24.897375 244.017575 L 29.510875 245.585575 L 34.080475 247.277575 L 38.650075 248.968575 L 43.219575 250.660575 L 47.771875 252.398575 L 52.293475 254.214575 L 56.803675 256.058575 L 61.304475 257.925575 L 65.801175 259.802575 L 70.278675 261.724575 L 74.737175 263.690575 L 79.187475 265.675575 L 83.613775 267.712575 L 88.019775 269.793575 L 92.421175 271.883575 L 96.822675 273.974575 L 101.224575 276.064575 L 105.625575 278.155575 L 110.026575 280.245575 L 114.428575 282.336575 L 118.834575 284.417575 L 123.258575 286.460575 L 127.702575 288.457575 L 132.147575 290.453575 L 136.592575 292.449575 L 141.045575 294.429575 L 145.532575 296.328575 L 150.063575 298.121575 L 154.594575 299.914575 L 159.132575 301.687575 L 163.715575 303.342575 L 168.332575 304.901575 L 172.979575 306.366575 L 177.610575 307.883575 L 182.195575 309.530575 L 186.752575 311.256575" fill="none" id="50" stroke="#bae0f9" stroke-width="0.5" /><path d="M 8.474115 242.651575 L 13.382575 243.476575 L 18.251975 244.505575 L 23.048475 245.834575 L 27.802675 247.307575 L 32.544575 248.820575 L 37.254075 250.430575 L 41.944975 252.094575 L 46.611175 253.827575 L 51.262675 255.598575 L 55.896175 257.416575 L 60.519675 259.259575 L 65.135775 261.120575 L 69.741575 263.007575 L 74.343775 264.903575 L 78.945875 266.799575 L 83.547875 268.696575 L 88.149975 270.592575 L 92.751975 272.488575 L 97.354075 274.384575 L 101.956575 276.280575 L 106.562575 278.165575 L 111.181575 280.019575 L 115.814575 281.839575 L 120.452575 283.644575 L 125.100575 285.426575 L 129.765575 287.161575 L 134.438575 288.874575 L 139.115575 290.579575 L 143.798575 292.265575 L 148.485575 293.939575 L 153.173575 295.611575 L 157.861575 297.283575 L 162.550575 298.955575 L 167.238575 300.627575 L 171.926575 302.299575 L 176.614575 303.971575 L 181.302575 305.643575 L 185.991575 307.314575 L 190.715575 308.880575 L 195.479575 310.322575 L 200.270575 311.670575" fill="none" id="51" stroke="#bae0f9" stroke-width="0.5" /><path d="M 35.510375 300.908575 L 40.188875 302.460575 L 44.847875 304.070575 L 49.480475 305.754575 L 54.083375 307.518575 L 58.686275 309.282575 L 63.289075 311.045575 L 67.891975 312.809575 L 72.481575 314.607575 L 77.066575 316.417575 L 81.646375 318.240575 L 86.217475 320.084575 L 90.784675 321.939575 L 95.343575 323.813575 L 99.888675 325.721575 L 104.428575 327.641575 L 108.963575 329.573575 L 113.488575 331.527575 L 118.009575 333.492575 L 122.529575 335.457575 L 127.050575 337.423575 L 131.570575 339.388575 L 136.091575 341.353575 L 140.612575 343.318575 L 145.132575 345.284575 L 149.653575 347.249575 L 154.178575 349.204575 L 158.716575 351.128575 L 163.263575 353.031575 L 167.811575 354.932575 L 172.359575 356.833575 L 176.906575 358.734575 L 181.454575 360.636575 L 186.002575 362.537575 L 190.555575 364.425575 L 195.145575 366.224575 L 199.749575 367.985575 L 204.385575 369.659575 L 209.071575 371.186575 L 213.788575 372.617575" fill="none" id="52" stroke="#b76246" stroke-width="0.5" /><path d="M 197.727575 330.813575 L 202.408575 329.454575 L 207.097575 328.124575 L 211.797575 326.832575 L 216.507575 325.578575 L 221.224575 324.352575 L 225.946575 323.144575 L 230.669575 321.939575 L 235.392575 320.734575 L 240.114575 319.529575 L 244.841575 318.338575 L 249.578575 317.192575 L 254.322575 316.075575 L 259.068575 314.964575 L 263.814575 313.853575 L 268.559575 312.742575 L 273.305575 311.631575 L 278.051575 310.520575 L 282.797575 309.409575 L 287.542575 308.299575 L 292.288575 307.188575 L 297.036575 306.085575 L 301.790575 305.013575 L 306.552575 303.972575 L 311.314575 302.931575 L 316.071575 301.873575 L 320.821575 300.777575 L 325.567575 299.671575 L 330.314575 298.564575 L 335.060575 297.453575 L 339.799575 296.316575 L 344.537575 295.171575 L 349.249575 293.927575 L 353.848575 292.315575 L 358.300575 290.331575 L 362.622575 288.077575" fill="none" id="53" stroke="#b0e4e9" stroke-width="0.5" /><path d="M 199.869575 337.435575 L 204.501575 335.713575 L 209.103575 333.913575 L 213.666575 332.015575 L 218.191575 330.028575 L 222.749575 328.119575 L 227.341575 326.294575 L 231.943575 324.492575 L 236.567575 322.748575 L 241.202575 321.033575 L 245.840575 319.329575 L 250.487575 317.648575 L 255.142575 315.988575 L 259.800575 314.336575 L 264.464575 312.703575 L 269.140575 311.104575 L 273.822575 309.523575 L 278.505575 307.944575 L 283.188575 306.366575 L 287.871575 304.788575 L 292.554575 303.209575 L 297.237575 301.631575 L 301.920575 300.053575 L 306.603575 298.474575 L 311.286575 296.896575 L 315.970575 295.318575 L 320.653575 293.739575 L 325.336575 292.161575 L 330.019575 290.583575 L 334.702575 289.005575 L 339.385575 287.426575 L 344.068575 285.848575 L 348.751575 284.270575 L 353.434575 282.691575 L 358.118575 281.116575 L 362.809575 279.562575 L 367.508575 278.031575 L 372.207575 276.502575 L 376.902575 274.959575 L 381.605575 273.441575 L 386.312575 271.935575" fill="none" id="54" stroke="#b0e4e9" stroke-width="0.5" /><path d="M 207.632575 332.986575 L 212.454575 331.719575 L 217.247575 330.342575 L 221.997575 328.826575 L 226.702575 327.175575 L 231.410575 325.532575 L 236.135575 323.938575 L 240.877575 322.397575 L 245.622575 320.863575 L 250.366575 319.330575 L 255.111575 317.796575 L 259.855575 316.262575 L 264.600575 314.728575 L 269.345575 313.194575 L 274.089575 311.660575 L 278.834575 310.126575 L 283.578575 308.592575 L 288.322575 307.054575 L 293.058575 305.494575 L 297.784575 303.903575 L 302.504575 302.296575 L 307.223575 300.685575 L 311.942575 299.075575 L 316.661575 297.464575 L 321.380575 295.853575 L 326.099575 294.243575 L 330.818575 292.632575 L 335.540575 291.028575 L 340.268575 289.444575 L 345.000575 287.874575 L 349.735575 286.308575 L 354.469575 284.742575 L 359.203575 283.178575 L 363.944575 281.632575 L 368.700575 280.134575 L 373.462575 278.656575 L 378.225575 277.180575 L 382.988575 275.705575 L 387.752575 274.229575 L 392.515575 272.754575 L 397.277575 271.278575 L 402.036575 269.788575 L 406.738575 268.128575 L 411.350575 266.234575 L 415.891575 264.174575" fill="none" id="55" stroke="#b0e4e9" stroke-width="0.5" /></svg>