<?xml version="1.0" encoding="utf-8" ?>
<svg baseProfile="full" height="533.79426" version="1.1" viewBox="0,0,647.79426,533.79426" width="647.79426" xmlns="http://www.w3.org/2000/svg" xmlns:ev="http://www.w3.org/2001/xml-events" xmlns:xlink="http://www.w3.org/1999/xlink"><defs><style type="text/css"><![CDATA[
	.background { fill: white; }
	.line { stroke: firebrick; stroke-width: .1mm; }
	.blacksquare { fill: indigo; }
	.whitesquare { fill: white; }
]]></style></defs><rect class="background" height="100%" width="100%" x="0" y="0" /><path d="M 0.397130 271.058130 L 4.290910 274.192130 L 8.223390 277.276130 L 12.234130 280.258130 L 16.314230 283.145130 L 20.473930 285.915130 L 24.637730 288.679130 L 28.801630 291.444130 L 32.965430 294.208130 L 37.129330 296.972130 L 41.293130 299.737130 L 45.452430 302.508130 L 49.570330 305.340130 L 53.640130 308.241130 L 57.703430 311.151130 L 61.766730 314.061130 L 65.830030 316.971130 L 69.893330 319.881130 L 73.956630 322.791130 L 78.019930 325.701130 L 82.083230 328.612130 L 86.146530 331.522130 L 90.212730 334.428130 L 94.297830 337.307130 L 98.416430 340.138130 L 102.549130 342.949130 L 106.683130 345.758130 L 110.817130 348.566130 L 114.951130 351.375130 L 119.085130 354.183130 L 123.220130 356.992130 L 127.354130 359.800130 L 131.488130 362.609130 L 135.622130 365.417130 L 139.756130 368.226130 L 143.900130 371.021130 L 148.067130 373.779130 L 152.252130 376.512130 L 156.440130 379.239130 L 160.628130 381.966130 L 164.817130 384.692130 L 169.013130 387.408130 L 173.223130 390.102130 L 177.442130 392.782130 L 181.662130 395.458130 L 185.883130 398.135130 L 190.104130 400.811130 L 194.325130 403.487130 L 198.546130 406.164130 L 202.767130 408.840130 L 206.988130 411.516130 L 211.209130 414.193130 L 215.430130 416.869130 L 219.651130 419.545130 L 223.878130 422.211130 L 228.126130 424.845130 L 232.394130 427.446130 L 236.668130 430.036130 L 240.943130 432.626130 L 245.217130 435.215130 L 249.492130 437.805130 L 253.770130 440.389130 L 258.062130 442.950130 L 262.371130 445.482130 L 266.686130 448.004130 L 271.010130 450.510130 L 275.351130 452.987130 L 279.698130 455.454130 L 284.045130 457.920130 L 288.392130 460.386130 L 292.739130 462.853130 L 297.085130 465.319130 L 301.442130 467.770130 L 305.831130 470.158130 L 310.232130 472.528130 L 314.638130 474.887130 L 319.047130 477.241130 L 323.463130 479.580130 L 327.911130 481.860130 L 332.388130 484.082130 L 336.873130 486.288130 L 341.388130 488.431130 L 345.947130 490.479130 L 350.519130 492.497130 L 355.155130 494.364130 L 359.826130 496.141130 L 364.493130 497.929130 L 369.205130 499.596130 L 373.968130 501.109130 L 378.759130 502.531130" fill="none" id="0" stroke="#c583d9" stroke-width="0.5" /><path d="M 50.538830 312.444130 L 49.760830 307.534130 L 49.592930 302.565130 L 50.403630 297.660130 L 51.703330 292.862130 L 52.744130 288.000130 L 53.736130 283.128130 L 54.994330 278.319130 L 56.378630 273.544130 L 57.377730 268.675130 L 58.143430 263.763130 L 59.194430 258.905130 L 60.509130 254.111130 L 61.676830 249.279130 L 62.532230 244.384130 L 63.410930 239.490130 L 64.594930 234.664130 L 65.898330 229.866130 L 67.110830 225.044130 L 68.337730 220.226130 L 69.856730 215.496130 L 71.783030 210.917130 L 73.916830 206.427130 L 76.075930 201.948130 L 78.191430 197.449130 L 80.294830 192.944130 L 82.483430 188.480130 L 84.758630 184.059130 L 87.026630 179.635130 L 89.252430 175.189130 L 91.574130 170.794130 L 94.113830 166.522130 L 96.790330 162.332130 L 99.514530 158.172130 L 102.348130 154.088130 L 105.346130 150.123130 L 108.596130 146.370130 L 112.235130 142.993130 L 116.129130 139.902130 L 120.123130 136.943130 L 124.311130 134.278130 L 128.776130 132.105130 L 133.432130 130.372130 L 138.204130 128.979130 L 143.040130 127.828130 L 147.916130 126.860130 L 152.825130 126.073130 L 157.756130 125.451130 L 162.715130 125.097130 L 167.685130 124.989130 L 172.650130 125.158130 L 177.564130 125.880130 L 182.362130 127.175130 L 187.010130 128.930130 L 191.427130 131.210130 L 195.680130 133.785130 L 199.804130 136.561130 L 203.809130 139.508130 L 207.706130 142.595130 L 211.515130 145.791130" fill="none" id="1" stroke="#00d4db" stroke-width="0.5" /><path d="M 48.586130 301.625130 L 48.470630 296.715130 L 48.889130 291.822130 L 50.009430 287.039130 L 51.722930 282.435130 L 53.553830 277.877130 L 55.550830 273.389130 L 57.775330 269.010130 L 60.131630 264.700130 L 62.466430 260.378130 L 64.643730 255.975130 L 66.630030 251.484130 L 68.522630 246.950130 L 70.397730 242.410130 L 72.272730 237.870130 L 74.147730 233.329130 L 76.003130 228.781130 L 77.742630 224.188130 L 79.276730 219.523130 L 80.675030 214.814130 L 82.056530 210.099130 L 83.438030 205.385130 L 84.819530 200.671130 L 86.231830 195.966130 L 87.790930 191.310130 L 89.590230 186.739130 L 91.504730 182.215130 L 93.363730 177.669130 L 95.081830 173.066130 L 96.869130 168.491130 L 98.861130 164.001130 L 101.113130 159.635130 L 103.635130 155.420130 L 106.253130 151.263130 L 108.972130 147.172130 L 111.877130 143.212130 L 115.005130 139.426130 L 118.356130 135.836130 L 121.911130 132.449130 L 125.703130 129.332130 L 129.764130 126.578130 L 134.010130 124.110130 L 138.401130 121.916130 L 142.914130 119.979130 L 147.488130 118.189130 L 152.122130 116.563130 L 156.842130 115.210130 L 161.626130 114.099130 L 166.463130 113.290130 L 171.362130 113.051130 L 176.248130 113.431130 L 181.040130 114.480130 L 185.684130 116.072130 L 190.191130 118.024130 L 194.581130 120.228130 L 198.887130 122.593130 L 203.171130 124.996130 L 207.421130 127.460130" fill="none" id="2" stroke="#00d4db" stroke-width="0.5" /><path d="M 145.846130 129.799130 L 147.696130 127.382130 L 149.803130 125.193130 L 152.202130 123.343130 L 154.851130 121.868130 L 157.674130 120.738130 L 160.585130 119.850130 L 163.545130 119.143130 L 166.530130 118.553130 L 169.535130 118.073130 L 172.553130 117.692130 L 175.583130 117.408130 L 178.622130 117.236130 L 181.665130 117.202130 L 184.705130 117.311130 L 187.730130 117.621130 L 190.724130 118.151130 L 193.675130 118.889130 L 196.577130 119.806130 L 199.388130 120.973130 L 202.108130 122.334130 L 204.741130 123.856130 L 207.288130 125.520130 L 209.760130 127.294130 L 212.203130 129.109130 L 214.606130 130.977130 L 216.932130 132.939130 L 219.239130 134.923130 L 221.546130 136.908130 L 223.854130 138.893130 L 226.161130 140.877130" fill="none" id="3" stroke="#00d4db" stroke-width="0.5" /><path d="M 98.323730 184.215130 L 98.282130 180.246130 L 98.727930 176.303130 L 100.159630 172.607130 L 101.581130 168.901130 L 103.009130 165.198130 L 105.392130 162.062130 L 107.703130 158.839130 L 109.786130 155.462130 L 111.581130 151.926130 L 113.377130 148.387130 L 115.486130 145.033130 L 117.971130 141.946130 L 120.565130 138.942130 L 123.226130 136.000130 L 125.991130 133.152130 L 128.989130 130.571130 L 132.273130 128.348130 L 135.620130 126.214130 L 139.002130 124.144130 L 142.506130 122.280130 L 146.063130 120.524130 L 149.741130 119.044130 L 153.538130 117.889130 L 157.386130 116.960130 L 161.338130 116.669130 L 165.291130 116.949130 L 169.171130 117.785130 L 173.018130 118.762130 L 176.820130 119.900130 L 180.586130 121.153130" fill="none" id="4" stroke="#00d4db" stroke-width="0.5" /><path d="M 181.814130 114.539130 L 186.372130 116.515130 L 190.902130 118.554130 L 195.376130 120.711130 L 199.817130 122.936130 L 204.288130 125.100130 L 208.788130 127.205130 L 213.298130 129.286130 L 217.810130 131.366130 L 222.334130 133.418130 L 226.904130 135.363130 L 231.528130 137.178130 L 236.156130 138.984130 L 240.783130 140.791130 L 245.411130 142.597130 L 250.039130 144.403130 L 254.667130 146.208130 L 259.304130 147.990130 L 263.987130 149.648130 L 268.723130 151.147130 L 273.498130 152.516130 L 278.314130 153.734130 L 283.129130 154.955130 L 287.918130 156.276130 L 292.676130 157.704130 L 297.444130 159.097130 L 302.242130 160.385130 L 307.080130 161.510130 L 311.929130 162.586130 L 316.790130 163.612130 L 321.680130 164.478130 L 326.605130 165.120130 L 331.548130 165.611130 L 336.504130 165.936130 L 341.469130 166.074130 L 346.436130 166.040130 L 351.398130 165.831130 L 356.353130 165.481130 L 361.295130 164.986130 L 366.211130 164.281130 L 371.094130 163.370130 L 375.939130 162.278130 L 380.729130 160.968130 L 385.442130 159.401130 L 390.074130 157.609130 L 394.653130 155.682130 L 399.270130 153.851130 L 403.838130 151.902130 L 408.501130 150.190130 L 413.105130 148.327130 L 417.489130 145.991130 L 421.711130 143.373130 L 425.584130 140.263130 L 429.465130 137.163130 L 433.457130 134.206130 L 437.352130 131.124130 L 441.020130 127.776130 L 444.412130 124.150130 L 447.820130 120.536130 L 451.059130 116.772130 L 454.140130 112.876130 L 457.347130 109.085130 L 460.564130 105.300130 L 463.537130 101.325130 L 466.336130 97.221930 L 469.020130 93.042630 L 471.536130 88.760430 L 473.808130 84.346230 L 475.761130 79.782630 L 477.515130 75.135130 L 479.322130 70.508230 L 481.224130 65.919230 L 483.074130 61.309830 L 484.833130 56.664030 L 486.611130 52.026030 L 488.262130 47.340930 L 489.862130 42.638030 L 491.550130 37.966830 L 493.399130 33.356130 L 495.280130 28.758330 L 497.083130 24.129730 L 498.795130 19.467430 L 500.924130 14.979330 L 503.268130 10.599430 L 505.720130 6.279020" fill="none" id="5" stroke="#00d4db" stroke-width="0.5" /><path d="M 162.249130 107.507130 L 162.940130 107.689130 L 163.629130 107.875130 L 164.308130 108.100130 L 164.976130 108.349130 L 165.616130 108.666130 L 166.251130 108.993130 L 166.878130 109.337130 L 167.506130 109.676130 L 168.137130 110.011130 L 168.768130 110.347130 L 169.399130 110.683130 L 170.029130 111.018130 L 170.660130 111.354130 L 171.291130 111.690130 L 171.921130 112.025130 L 172.552130 112.361130 L 173.183130 112.697130 L 173.813130 113.033130 L 174.444130 113.368130 L 175.075130 113.704130 L 175.705130 114.040130 L 176.336130 114.375130 L 176.967130 114.711130 L 177.598130 115.047130 L 178.228130 115.382130 L 178.859130 115.718130 L 179.490130 116.054130 L 180.120130 116.389130 L 181.382130 117.061130" fill="none" id="6" stroke="#9de993" stroke-width="0.5" /><path d="M 181.382130 117.061130 L 180.543130 116.547130 L 179.705130 116.033130 L 178.860130 115.528130 L 178.016130 115.024130 L 177.161130 114.537130 L 176.307130 114.050130 L 175.449130 113.570130 L 174.590130 113.089130 L 173.726130 112.621130 L 172.861130 112.152130 L 171.995130 111.687130 L 171.128130 111.221130 L 170.252130 110.774130 L 169.376130 110.327130 L 168.498130 109.883130 L 167.620130 109.440130 L 166.739130 109.004130 L 165.857130 108.568130 L 164.975130 108.134130 L 164.092130 107.699130 L 163.209130 107.266130 L 162.326130 106.832130 L 161.444130 106.399130 L 160.561130 105.966130 L 159.678130 105.532130 L 158.795130 105.099130 L 157.912130 104.666130 L 157.029130 104.232130 L 156.146130 103.799130 L 155.263130 103.366130" fill="none" id="7" stroke="#9de993" stroke-width="0.5" /><path d="M 166.129130 116.547130 L 170.579130 114.344130 L 175.117130 112.329130 L 179.723130 110.475130 L 184.358130 108.693130 L 189.066130 107.117130 L 193.786130 105.575130 L 198.542130 104.150130 L 203.312130 102.771130 L 208.110130 101.491130 L 212.913130 100.232230 L 217.716130 98.973130 L 222.518130 97.714130 L 227.344130 96.542730 L 232.180130 95.419030 L 237.016130 94.295330 L 241.853130 93.171630 L 246.689130 92.048030 L 251.526130 90.924330 L 256.362130 89.800730 L 261.198130 88.677030 L 266.035130 87.553330 L 270.871130 86.429730 L 275.708130 85.306030 L 280.544130 84.182330 L 285.381130 83.058730 L 290.217130 81.935030 L 295.053130 80.811330 L 299.890130 79.687730 L 304.726130 78.562330 L 309.529130 77.303130 L 314.306130 75.951330 L 319.084130 74.599430 L 323.840130 73.173630 L 328.555130 71.616330 L 333.269130 70.058830 L 337.967130 68.449330 L 342.629130 66.742030 L 347.285130 65.016630 L 351.941130 63.291230 L 356.596130 61.565730 L 361.250130 59.833930 L 365.873130 58.022730 L 370.494130 56.205830 L 375.101130 54.353730 L 379.646130 52.355030 L 384.091130 50.141930 L 388.526130 47.911030 L 392.962130 45.680030 L 397.447130 43.549330 L 401.971130 41.502830 L 406.497130 39.461730 L 411.024130 37.420630 L 415.557130 35.394430 L 420.111130 33.417630 L 424.669130 31.448230 L 429.227130 29.478830 L 433.785130 27.509430 L 438.343130 25.540030 L 442.901130 23.570730 L 447.457130 21.597230 L 451.994130 19.578230 L 456.518130 17.532830 L 461.042130 15.487430 L 465.567130 13.441930 L 470.091130 11.396530 L 474.692130 9.529360 L 479.380130 7.894300 L 484.115130 6.401250 L 488.892130 5.043720 L 493.635130 3.575460 L 498.347130 2.009830 L 503.043130 0.397130" fill="none" id="8" stroke="#58f2c3" stroke-width="0.5" /><path d="M 502.129130 8.145160 L 502.645130 8.129590 L 503.160130 8.116160 L 503.675130 8.123570 L 504.190130 8.132780 L 504.706130 8.152750 L 505.221130 8.174250 L 505.735130 8.202570 L 506.249130 8.237920 L 506.762130 8.294130 L 507.274130 8.350660 L 507.786130 8.407860 L 508.298130 8.468560 L 508.809130 8.535060 L 509.320130 8.605110 L 509.830130 8.679690 L 510.340130 8.753760 L 510.850130 8.827330 L 511.360130 8.903740 L 511.869130 8.982350 L 512.379130 9.060330 L 512.889130 9.137930 L 513.398130 9.215530 L 513.908130 9.293130 L 514.417130 9.370730 L 514.927130 9.448340 L 515.437130 9.525940 L 515.946130 9.603540 L 516.456130 9.681140 L 516.965130 9.758740 L 517.984130 9.913940" fill="none" id="9" stroke="#c94e76" stroke-width="0.5" /><path d="M 517.984130 9.913940 L 517.363130 9.876660 L 516.741130 9.839370 L 516.121130 9.784770 L 515.501130 9.729470 L 514.881130 9.662080 L 514.262130 9.594320 L 513.645130 9.514220 L 513.027130 9.434080 L 512.413130 9.333230 L 511.798130 9.232380 L 511.183130 9.134990 L 510.568130 9.037590 L 509.955130 8.929350 L 509.341130 8.821120 L 508.728130 8.712040 L 508.115130 8.602960 L 507.502130 8.493450 L 506.889130 8.383940 L 506.278130 8.261500 L 505.668130 8.139060 L 505.057130 8.018920 L 504.446130 7.898780 L 503.838130 7.760610 L 503.231130 7.622420 L 502.625130 7.478110 L 502.020130 7.333800 L 501.416130 7.181870 L 500.812130 7.029840 L 500.211130 6.867150 L 499.610130 6.704220" fill="none" id="10" stroke="#c94e76" stroke-width="0.5" /><path d="M 358.696130 172.885130 L 360.653130 168.317130 L 362.620130 163.754130 L 364.593130 159.192130 L 366.544130 154.622130 L 368.414130 150.018130 L 370.170130 145.370130 L 371.844130 140.691130 L 373.516130 136.011130 L 375.198130 131.335130 L 376.951130 126.685130 L 378.747130 122.051130 L 380.599130 117.440130 L 382.532130 112.862130 L 384.530130 108.312130 L 386.633130 103.811130 L 388.889130 99.383330 L 391.266130 95.019430 L 393.756130 90.719130 L 396.317130 86.460130 L 398.991130 82.271730 L 401.732130 78.126430 L 404.539130 74.025930 L 407.424130 69.979630 L 410.377130 65.983230 L 413.412130 62.049230 L 416.574130 58.215630 L 419.834130 54.464830 L 423.157130 50.769630 L 426.574130 47.162230 L 430.064130 43.624630 L 433.595130 40.127530 L 437.163130 36.668730 L 440.768130 33.248130 L 444.414130 29.871630 L 448.129130 26.572130 L 451.963130 23.411230 L 455.966130 20.466330 L 460.155130 17.794430 L 464.502130 15.389930 L 469.039130 13.374430 L 473.733130 11.759530 L 478.570130 10.694330 L 483.505130 10.120330 L 488.460130 9.796100 L 493.421130 9.928310 L 498.315130 10.793730 L 503.113130 12.086730 L 507.730130 13.910930 L 512.222130 16.032330 L 516.561130 18.446830 L 520.775130 21.078730 L 524.851130 23.915730 L 528.780130 26.958930 L 532.683130 30.034530 L 536.478130 33.242830 L 540.096130 36.649230 L 543.629130 40.143730 L 547.056130 43.742330 L 550.359130 47.453330 L 553.582130 51.235830 L 556.695130 55.107830 L 559.665130 59.091730 L 562.588130 63.110330 L 565.434130 67.184330 L 568.073130 71.395230 L 570.557130 75.698930 L 572.985130 80.034930 L 575.384130 84.386630 L 577.723130 88.771130 L 579.998130 93.189130 L 582.242130 97.623430 L 584.456130 102.072130 L 586.595130 106.558130 L 588.650130 111.082130 L 590.704130 115.607130 L 592.759130 120.132130 L 594.802130 124.662130 L 596.826130 129.201130 L 598.828130 133.749130 L 600.806130 138.308130 L 602.763130 142.876130 L 604.720130 147.444130 L 606.677130 152.012130 L 608.623130 156.585130 L 610.508130 161.183130 L 612.333130 165.805130 L 614.133130 170.437130 L 615.927130 175.071130 L 617.722130 179.705130 L 619.516130 184.340130 L 621.301130 188.977130 L 623.030130 193.636130 L 624.701130 198.316130 L 626.357130 203.002130 L 628.011130 207.688130 L 629.628130 212.387130 L 631.172130 217.110130 L 632.653130 221.854130 L 634.116130 226.603130 L 635.575130 231.354130 L 636.999130 236.115130 L 638.294130 240.913130 L 639.551130 245.721130 L 640.800130 250.530130 L 642.032130 255.345130 L 643.177130 260.180130 L 644.227130 265.037130 L 645.246130 269.901130 L 646.260130 274.766130 L 647.263130 279.633130" fill="none" id="11" stroke="#c94e76" stroke-width="0.5" /><path d="M 613.279130 281.570130 L 615.800130 277.323130 L 616.895130 272.502130 L 616.956130 267.523130 L 616.971130 262.544130 L 616.894130 257.566130 L 616.649130 252.594130 L 616.245130 247.631130 L 615.840130 242.668130 L 615.436130 237.705130 L 615.031130 232.743130 L 614.627130 227.780130 L 614.223130 222.817130 L 613.814130 217.854130 L 613.367130 212.896130 L 612.846130 207.944130 L 612.252130 203.000130 L 611.603130 198.064130 L 610.940130 193.129130 L 610.233130 188.200130 L 609.429130 183.286130 L 608.558130 178.384130 L 607.671130 173.484130 L 606.754130 168.590130 L 605.765130 163.710130 L 604.703130 158.846130 L 603.552130 154.002130 L 602.311130 149.180130 L 600.973130 144.384130 L 599.536130 139.617130 L 598.019130 134.874130 L 596.430130 130.156130 L 594.727130 125.477130 L 592.863130 120.860130 L 590.952130 116.263130 L 589.033130 111.668130 L 587.060130 107.096130 L 584.948130 102.588130 L 582.810130 98.091130 L 580.670130 93.594830 L 578.531130 89.098630 L 576.392130 84.602330 L 574.253130 80.106030 L 572.114130 75.609730" fill="none" id="12" stroke="#c94e76" stroke-width="0.5" /><path d="M 372.491130 161.995130 L 373.331130 157.085130 L 374.475130 152.237130 L 375.831130 147.444130 L 377.633130 142.802130 L 379.792130 138.315130 L 381.511130 133.644130 L 383.037130 128.902130 L 384.511130 124.144130 L 385.819130 119.338130 L 387.007130 114.501130 L 388.521130 109.761130 L 390.473130 105.183130 L 392.676130 100.716130 L 395.280130 96.481130 L 398.233130 92.472230 L 401.326130 88.567230 L 404.455130 84.691130 L 407.462130 80.722930 L 410.207130 76.569830 L 412.789130 72.309930 L 415.359130 68.042730 L 417.981130 63.807730 L 420.805130 59.709030 L 423.897130 55.804130 L 427.074130 51.967730 L 430.310130 48.186830 L 433.900130 44.739130 L 437.657130 41.476630 L 441.002130 37.789230 L 444.049130 33.849030 L 447.081130 29.896230 L 450.132130 25.963830 L 453.753130 22.546330 L 457.839130 19.698130 L 462.325130 17.532830 L 467.043130 15.936530 L 471.879130 14.746330 L 476.743130 13.669430 L 481.698130 13.210130 L 486.678130 13.129830 L 491.654130 13.320830 L 496.594130 13.936030 L 501.512130 14.724230 L 506.396130 15.703230 L 511.186130 17.055230 L 515.776130 18.963230 L 520.053130 21.492530 L 524.187130 24.271130 L 528.078130 27.365330 L 531.650130 30.831830 L 535.122130 34.404030 L 538.643130 37.926930 L 542.189130 41.425530 L 545.627130 45.026530 L 548.732130 48.909630 L 551.585130 52.992330 L 554.577130 56.974330 L 557.671130 60.878330 L 560.756130 64.788830 L 563.777130 68.749030 L 566.632130 72.830230 L 569.344130 77.008230 L 571.947130 81.255130 L 574.555130 85.498930 L 577.268130 89.676830 L 579.983130 93.853430 L 582.495130 98.153530 L 584.462130 102.730130 L 585.882130 107.505130 L 587.159130 112.319130 L 588.510130 117.114130 L 589.973130 121.876130 L 591.451130 126.633130 L 592.864130 131.410130 L 594.349130 136.164130 L 596.047130 140.846130 L 597.874130 145.480130 L 599.755130 150.092130 L 601.689130 154.683130 L 603.659130 159.258130 L 605.603130 163.845130 L 607.400130 168.489130 L 609.034130 173.194130 L 610.653130 177.905130 L 612.436130 182.555130 L 614.350130 187.153130 L 616.100130 191.813130 L 617.564130 196.573130 L 619.100130 201.307130 L 620.950130 205.932130 L 622.854130 210.535130 L 624.580130 215.204130 L 626.012130 219.975130 L 627.311130 224.781130 L 628.324130 229.659130 L 629.440130 234.511130 L 630.871130 239.281130 L 632.017130 244.129130 L 633.158130 248.978130 L 634.390130 253.804130 L 635.515130 258.657130" fill="none" id="13" stroke="#c94e76" stroke-width="0.5" /><path d="M 626.675130 270.747130 L 625.838130 265.875130 L 625.231130 260.970130 L 624.945130 256.035130 L 624.882130 251.092130 L 624.778130 246.150130 L 624.584130 241.211130 L 624.380130 236.272130 L 624.269130 231.330130 L 624.181130 226.388130 L 623.799130 221.465130 L 623.015130 216.584130 L 622.383130 211.685130 L 622.090130 206.751130 L 621.859130 201.814130 L 621.345130 196.905130 L 620.207130 192.106130 L 618.646130 187.416130 L 617.088130 182.725130 L 615.525130 178.036130 L 613.757130 173.421130 L 611.834130 168.867130 L 609.962130 164.293130 L 608.193130 159.677130 L 606.396130 155.072130 L 604.637130 150.453130 L 603.101130 145.756130 L 601.552130 141.062130 L 599.603130 136.526130 L 597.205130 132.208130 L 594.560130 128.033130 L 591.834130 123.909130 L 589.158130 119.753130 L 586.613130 115.516130 L 584.398130 111.099130 L 582.461130 106.552130 L 580.579130 101.981130 L 578.543130 97.476330 L 576.200130 93.124030 L 573.657130 88.885330" fill="none" id="14" stroke="#c94e76" stroke-width="0.5" /><path d="M 230.570130 216.680130 L 235.148130 214.744130 L 239.670130 212.677130 L 244.108130 210.438130 L 248.586130 208.280130 L 253.019130 206.031130 L 257.415130 203.710130 L 261.811130 201.388130 L 266.206130 199.067130 L 270.612130 196.765130 L 275.069130 194.563130 L 279.553130 192.418130 L 284.010130 190.217130 L 288.349130 187.791130 L 292.652130 185.302130 L 296.937130 182.781130 L 301.221130 180.261130 L 305.426130 177.609130 L 309.460130 174.705130 L 313.494130 171.799130 L 317.528130 168.894130 L 321.518130 165.930130 L 325.308130 162.713130 L 329.204130 159.626130 L 333.001130 156.417130 L 336.774130 153.180130 L 340.732130 150.173130 L 344.744130 147.239130 L 348.811130 144.380130 L 352.708130 141.294130 L 356.593130 138.192130 L 360.339130 134.925130 L 363.797130 131.353130 L 367.294130 127.820130 L 370.828130 124.325130 L 374.262130 120.730130 L 377.553130 117.005130 L 380.711130 113.166130 L 383.642130 109.151130 L 386.721130 105.248130 L 389.672130 101.248130 L 392.621130 97.246030 L 395.686130 93.332230 L 398.595130 89.301730 L 401.194130 85.064430 L 403.638130 80.735530 L 406.596130 76.740130 L 409.543130 72.737430 L 412.826130 69.004930 L 415.551130 64.847830 L 418.538130 60.874330 L 421.697130 57.036030 L 424.857130 53.198830 L 428.206130 49.524830 L 431.788130 46.078530 L 435.472130 42.740830 L 439.231130 39.488030 L 442.993130 36.238430 L 446.950130 33.230030 L 451.089130 30.476430 L 455.135130 27.589130 L 459.303130 24.878930 L 463.860130 22.895130 L 468.305130 20.670530 L 473.053130 19.200230 L 477.957130 18.388730 L 482.928130 18.446730 L 487.830130 19.271130" fill="none" id="15" stroke="#c94e76" stroke-width="0.5" /><path d="M 320.712130 160.673130 L 325.070130 158.224130 L 329.325130 155.603130 L 333.422130 152.739130 L 337.428130 149.750130 L 341.429130 146.754130 L 345.427130 143.753130 L 349.358130 140.670130 L 353.075130 137.329130 L 356.696130 133.882130 L 360.304130 130.423130 L 363.911130 126.963130 L 367.484130 123.468130 L 370.966130 119.882130 L 374.383130 116.233130 L 377.751130 112.541130 L 381.072130 108.804130 L 384.274130 104.968130 L 387.359130 101.035130 L 390.527130 97.170430 L 393.749130 93.349630 L 396.837130 89.420230 L 399.869130 85.446530 L 402.975130 81.530630 L 406.197130 77.710030 L 409.505130 73.962530 L 412.911130 70.304630 L 416.377130 66.702730 L 419.889130 63.145630 L 423.449130 59.637530 L 427.017130 56.136530 L 430.585130 52.635430 L 434.152130 49.134430 L 437.720130 45.633330" fill="none" id="16" stroke="#c94e76" stroke-width="0.5" /><path d="M 450.192130 27.019230 L 453.136130 24.907330 L 456.205130 22.982730 L 459.436130 21.345330 L 462.770130 19.928730 L 466.119130 18.547330 L 469.515130 17.287430 L 472.948130 16.131030 L 476.418130 15.089830 L 479.925130 14.181730 L 483.483130 13.500930 L 487.087130 13.142130 L 490.707130 13.005430 L 494.330130 13.019230 L 497.932130 13.405330 L 501.459130 14.229530 L 504.937130 15.242130 L 508.411130 16.269330 L 511.855130 17.392930 L 515.244130 18.672530 L 518.618130 19.990930 L 521.963130 21.380830 L 525.235130 22.936930 L 528.470130 24.566530 L 531.654130 26.294930 L 534.786130 28.114730 L 537.860130 30.030530 L 540.857130 32.066130 L 543.789130 34.193930 L 546.691130 36.361130 L 549.562130 38.570330" fill="none" id="17" stroke="#c94e76" stroke-width="0.5" /><path d="M 104.901130 157.200130 L 102.977130 161.767130 L 101.521130 166.502130 L 100.712130 171.389130 L 100.505130 176.338130 L 100.788130 181.284130 L 101.538130 186.181130 L 102.599130 191.021130 L 103.960130 195.782130 L 105.850130 200.356130 L 108.217130 204.710130 L 110.654130 209.025130 L 113.310130 213.191130 L 116.587130 216.902130 L 120.125130 220.372130 L 123.835130 223.644130 L 127.952130 226.380130 L 132.341130 228.681130 L 136.862130 230.700130 L 141.524130 232.375130 L 146.296130 233.692130 L 151.183130 234.450130 L 156.113130 234.960130 L 161.032130 235.557130 L 165.965130 236.018130 L 170.914130 236.258130 L 175.869130 236.316130 L 180.821130 236.161130 L 185.751130 235.680130 L 190.598130 234.678130 L 195.301130 233.132130 L 199.945130 231.402130 L 204.635130 229.803130 L 209.328130 228.210130 L 213.928130 226.369130 L 218.342130 224.121130 L 222.611130 221.605130 L 226.918130 219.153130 L 231.351130 216.939130 L 235.862130 214.885130" fill="none" id="18" stroke="#c94e76" stroke-width="0.5" /><path d="M 238.442130 213.679130 L 237.970130 214.205130 L 237.499130 214.730130 L 237.009130 215.240130 L 236.520130 215.749130 L 235.995130 216.221130 L 235.470130 216.694130 L 234.929130 217.148130 L 234.389130 217.603130 L 233.847130 218.056130 L 233.306130 218.509130 L 232.755130 218.951130 L 232.204130 219.393130 L 231.646130 219.827130 L 231.089130 220.260130 L 230.522130 220.682130 L 229.956130 221.103130 L 229.380130 221.512130 L 228.804130 221.922130 L 228.222130 222.322130 L 227.640130 222.722130 L 227.051130 223.111130 L 226.462130 223.500130 L 225.869130 223.885130 L 225.277130 224.269130 L 224.682130 224.649130 L 224.087130 225.030130 L 223.492130 225.410130 L 222.896130 225.790130 L 221.705130 226.548130" fill="none" id="19" stroke="#c94e76" stroke-width="0.5" /><path d="M 221.594130 225.326130 L 217.924130 228.566130 L 213.965130 231.446130 L 209.667130 233.789130 L 205.128130 235.624130 L 200.658130 237.621130 L 195.901130 238.775130 L 191.035130 239.317130 L 186.162130 239.778130 L 181.272130 240.019130 L 176.403130 240.526130 L 171.534130 241.040130 L 166.641130 241.209130 L 161.746130 241.189130 L 156.861130 240.872130 L 152.001130 240.282130 L 147.198130 239.335130 L 142.473130 238.053130 L 137.938130 236.209130 L 133.913130 233.425130 L 130.184130 230.253130 L 126.821130 226.696130 L 123.774130 222.864130 L 120.260130 219.455130 L 116.624130 216.177130 L 113.317130 212.568130 L 110.243130 208.758130 L 107.494130 204.707130 L 105.131130 200.419130 L 103.383130 195.847130 L 102.115130 191.118130 L 101.378130 186.279130 L 101.171130 181.387130 L 101.015130 176.494130 L 101.687130 171.645130 L 102.327130 166.792130 L 103.750130 162.107130 L 105.879130 157.699130 L 108.452130 153.534130 L 111.389130 149.617130" fill="none" id="20" stroke="#c94e76" stroke-width="0.5" /><path d="M 106.888130 153.963130 L 106.243130 155.581130 L 105.599130 157.200130 L 105.062130 158.856130 L 104.541130 160.519130 L 104.146130 162.214130 L 103.797130 163.921130 L 103.549130 165.643130 L 103.372130 167.376130 L 103.229130 169.112130 L 103.131130 170.851130 L 103.042130 172.591130 L 102.978130 174.332130 L 102.922130 176.073130 L 102.912130 177.815130 L 102.902130 179.557130 L 102.907130 181.299130 L 102.913130 183.041130 L 102.931130 184.784130 L 102.951130 186.526130 L 103.041130 188.265130 L 103.164130 190.002130 L 103.368130 191.731130 L 103.645130 193.451130 L 104.023130 195.146130 L 104.570130 196.800130 L 105.183130 198.426130 L 106.012130 199.958130 L 106.864130 201.476130 L 107.883130 202.889130 L 108.901130 204.303130" fill="none" id="21" stroke="#c94e76" stroke-width="0.5" /><path d="M 99.830230 168.704130 L 99.597030 170.759130 L 99.431830 172.818130 L 99.396430 174.886130 L 99.577730 176.941130 L 99.858330 178.990130 L 100.300930 181.010130 L 100.751130 183.028130 L 101.215130 185.043130 L 101.734130 187.045130 L 102.278130 189.040130 L 102.889130 191.015130 L 103.524130 192.983130 L 104.203130 194.937130 L 104.945130 196.867130 L 105.717130 198.785130 L 106.566130 200.670130 L 107.448130 202.540130 L 108.388130 204.382130 L 109.406130 206.181130 L 110.461130 207.960130 L 111.592130 209.691130 L 112.741130 211.411130 L 113.923130 213.107130 L 115.100130 214.808130 L 116.273130 216.511130 L 117.356130 218.273130 L 118.385130 220.065130 L 119.305130 221.916130 L 120.153130 223.802130 L 120.964130 225.704130" fill="none" id="22" stroke="#c94e76" stroke-width="0.5" /><path d="M 103.137130 197.570130 L 104.513130 200.249130 L 105.999130 202.867130 L 107.622130 205.401130 L 109.384130 207.840130 L 111.273130 210.184130 L 113.268130 212.440130 L 115.414130 214.552130 L 117.631130 216.589130 L 119.901130 218.566130 L 122.213130 220.496130 L 124.550130 222.394130 L 126.898130 224.280130 L 129.267130 226.138130 L 131.678130 227.942130 L 134.121130 229.701130 L 136.588130 231.428130 L 139.076130 233.124130 L 141.596130 234.772130 L 144.148130 236.371130 L 146.700130 237.969130 L 149.253130 239.566130 L 151.816130 241.146130 L 154.407130 242.679130 L 157.051130 244.119130 L 159.745130 245.465130 L 162.470130 246.744130 L 165.234130 247.937130 L 168.035130 249.043130 L 170.866130 250.068130 L 173.720130 251.027130" fill="none" id="23" stroke="#c94e76" stroke-width="0.5" /><path d="M 526.476130 342.610130 L 522.493130 345.498130 L 518.630130 348.545130 L 514.872130 351.718130 L 511.444130 355.247130 L 508.091130 358.847130 L 504.538130 362.249130 L 500.724130 365.350130 L 496.547130 367.941130 L 492.096130 370.036130 L 487.534130 371.877130 L 482.920130 373.584130 L 478.254130 375.131130 L 473.460130 376.226130 L 468.593130 376.939130 L 463.701130 377.453130 L 458.790130 377.737130 L 453.872130 377.852130 L 448.952130 377.922130 L 444.033130 378.012130 L 439.115130 378.148130 L 434.197130 378.286130 L 429.282130 378.213130 L 424.396130 377.688130 L 419.557130 376.805130 L 414.756130 375.734130 L 409.981130 374.553130 L 405.191130 373.429130 L 400.448130 372.136130 L 395.876130 370.347130 L 391.498130 368.107130 L 387.226130 365.669130 L 382.987130 363.171130 L 378.755130 360.662130 L 374.524130 358.151130 L 370.362130 355.529130 L 366.322130 352.723130 L 362.387130 349.771130 L 358.504130 346.750130 L 354.631130 343.716130 L 350.870130 340.547130 L 347.436130 337.034130 L 344.246130 333.289130 L 340.925130 329.662130 L 337.247130 326.404130 L 333.367130 323.381130 L 329.828130 319.977130 L 327.065130 315.929130 L 324.583130 311.681130 L 321.753130 307.662130 L 319.023130 303.570130 L 317.012130 299.090130 L 315.343130 294.463130 L 313.433130 289.930130 L 311.018130 285.647130 L 308.740130 281.286130 L 306.955130 276.703130 L 305.499130 272.003130" fill="none" id="24" stroke="#d271bb" stroke-width="0.5" /><path d="M 510.539130 361.318130 L 514.687130 358.534130 L 518.694130 355.550130 L 522.581130 352.411130 L 526.237130 349.007130 L 529.772130 345.477130 L 533.355130 341.995130 L 537.069130 338.653130 L 540.767130 335.294130 L 544.230130 331.695130 L 547.551130 327.963130 L 550.775130 324.147130 L 553.838130 320.200130 L 556.714130 316.116130 L 559.487130 311.960130 L 561.910130 307.595130 L 564.067130 303.090130 L 566.167130 298.557130 L 568.266130 294.023130 L 570.345130 289.480130 L 572.324130 284.893130 L 574.132130 280.237130 L 575.757130 275.513130 L 577.197130 270.730130 L 578.552130 265.921130 L 579.850130 261.097130 L 581.048130 256.247130 L 582.153130 251.375130 L 583.195130 246.489130 L 584.197130 241.594130 L 585.135130 236.687130 L 585.929130 231.756130 L 586.644130 226.811130 L 587.474130 221.886130 L 588.308130 216.960130 L 588.821130 211.996130 L 589.223130 207.018130 L 589.871130 202.066130 L 590.522130 197.115130 L 590.896130 192.134130 L 591.139130 187.144130 L 591.417130 182.156130 L 591.722130 177.169130 L 591.977130 172.180130 L 592.115130 167.186130 L 592.187130 162.190130 L 592.254130 157.195130 L 592.299130 152.199130 L 592.245130 147.204130 L 591.904130 142.226130 L 591.110130 137.294130 L 590.173130 132.387130 L 589.234130 127.480130 L 588.203130 122.593130 L 586.859130 117.783130 L 585.335130 113.026130 L 583.955130 108.224130 L 582.567130 103.426130 L 580.853130 98.736430 L 578.771130 94.196030 L 576.458130 89.767830 L 573.989130 85.424730 L 571.382130 81.163330 L 568.596130 77.016730 L 565.678130 72.961330 L 562.572130 69.048430 L 559.382130 65.203530 L 556.161130 61.384330 L 552.905130 57.594730 L 549.594130 53.853830" fill="none" id="25" stroke="#d271bb" stroke-width="0.5" /><path d="M 292.082130 248.121130 L 294.214130 252.635130 L 296.237130 257.198130 L 298.103130 261.827130 L 299.926130 266.473130 L 301.958130 271.033130 L 304.016130 275.580130 L 306.094130 280.118130 L 308.259130 284.616130 L 310.384130 289.129130 L 312.308130 293.734130 L 314.546130 298.184130 L 317.191130 302.418130 L 319.880130 306.623130 L 322.585130 310.818130 L 325.336130 314.983130 L 328.241130 319.039130 L 331.377130 322.920130 L 334.625130 326.710130 L 337.777130 330.580130 L 340.885130 334.485130 L 344.204130 338.209130 L 347.731130 341.740130 L 351.453130 345.063130 L 355.261130 348.290130 L 359.278130 351.249130 L 363.376130 354.099130 L 367.500130 356.910130 L 371.687130 359.627130 L 375.890130 362.320130 L 380.092130 365.015130 L 384.190130 367.865130 L 388.132130 370.925130 L 392.367130 373.562130 L 396.871130 375.713130 L 401.446130 377.701130 L 406.203130 379.204130 L 411.069130 380.303130 L 415.995130 381.106130 L 420.903130 382.018130 L 425.823130 382.855130 L 430.769130 383.517130 L 435.744130 383.895130 L 440.734130 383.975130 L 445.720130 383.803130 L 450.692130 383.367130 L 455.661130 382.905130 L 460.628130 382.416130 L 465.556130 381.642130 L 470.431130 380.575130 L 475.235130 379.228130 L 479.913130 377.500130 L 484.380130 375.287130 L 488.813130 372.994130 L 493.410130 371.058130 L 498.108130 369.374130 L 502.722130 367.474130 L 507.087130 365.064130 L 511.288130 362.369130 L 515.347130 359.464130 L 519.303130 356.421130 L 523.169130 353.263130" fill="none" id="26" stroke="#d271bb" stroke-width="0.5" /><path d="M 30.475830 306.657130 L 31.732730 301.821130 L 33.122630 297.023130 L 34.654430 292.268130 L 36.544730 287.643130 L 38.558830 283.072130 L 40.648830 278.534130 L 42.663230 273.961130 L 44.648930 269.376130 L 46.618730 264.784130 L 48.588530 260.192130 L 50.573130 255.607130 L 52.589630 251.035130 L 54.697430 246.505130 L 56.915030 242.028130 L 59.190030 237.580130 L 61.517730 233.159130 L 63.935630 228.786130 L 66.411430 224.447130 L 68.960530 220.149130 L 71.635330 215.929130 L 74.378130 211.753130 L 77.197130 207.628130 L 80.111830 203.570130 L 83.089930 199.559130 L 86.139830 195.601130 L 89.284030 191.718130 L 92.498630 187.893130 L 95.785730 184.130130 L 99.126630 180.415130 L 102.483130 176.714130 L 105.860130 173.031130 L 109.326130 169.432130 L 112.815130 165.856130 L 116.331130 162.306130 L 119.936130 158.846130 L 123.605130 155.456130 L 127.332130 152.128130 L 131.168130 148.926130 L 135.136130 145.893130 L 139.174130 142.951130 L 143.242130 140.050130 L 147.439130 137.342130 L 151.728130 134.782130 L 156.143130 132.444130 L 160.660130 130.311130 L 165.236130 128.307130 L 169.880130 126.464130 L 174.621130 124.892130 L 179.434130 123.579130 L 184.340130 122.631130 L 189.325130 122.475130 L 194.259130 122.949130 L 199.105130 124.168130 L 203.899130 125.575130 L 208.451130 127.536130 L 212.735130 130.109130 L 216.673130 133.184130 L 220.459130 136.437130 L 224.097130 139.861130 L 227.513130 143.507130 L 230.876130 147.202130 L 234.170130 150.958130 L 237.200130 154.931130 L 240.091130 159.004130 L 242.869130 163.156130 L 245.484130 167.414130 L 247.968130 171.748130 L 250.359130 176.135130 L 252.632130 180.585130 L 254.876130 185.049130 L 257.108130 189.519130 L 259.333130 193.993130 L 261.474130 198.507130 L 263.564130 203.045130 L 265.593130 207.612130 L 267.619130 212.179130 L 269.641130 216.748130 L 271.660130 221.319130 L 273.622130 225.914130 L 275.556130 230.521130 L 277.460130 235.140130 L 279.355130 239.764130 L 281.250130 244.387130 L 283.145130 249.010130 L 285.039130 253.634130 L 286.934130 258.257130 L 288.827130 262.881130 L 290.670130 267.526130 L 292.470130 272.187130 L 294.236130 276.861130 L 295.992130 281.539130 L 297.747130 286.216130 L 299.503130 290.894130 L 301.259130 295.572130 L 302.997130 300.257130 L 304.710130 304.951130 L 306.353130 309.669130 L 307.990130 314.390130 L 309.624130 319.112130 L 311.253130 323.836130 L 312.835130 328.575130 L 314.388130 333.324130 L 315.902130 338.086130 L 317.415130 342.848130 L 318.928130 347.609130 L 320.442130 352.371130 L 321.955130 357.133130 L 323.459130 361.898130 L 324.947130 366.668130 L 326.369130 371.458130 L 327.776130 376.252130 L 329.172130 381.050130 L 330.567130 385.848130 L 331.933130 390.654130 L 333.268130 395.469130 L 334.506130 400.309130 L 335.735130 405.152130 L 336.956130 409.998130 L 338.171130 414.844130 L 339.333130 419.704130 L 340.448130 424.574130 L 341.483130 429.462130 L 342.509130 434.352130 L 343.527130 439.244130 L 344.526130 444.140130 L 345.442130 449.051130 L 346.309130 453.972130 L 347.131130 458.901130 L 347.953130 463.829130 L 348.756130 468.761130 L 349.506130 473.701130 L 350.202130 478.648130 L 350.855130 483.602130 L 351.444130 488.564130 L 352.011130 493.528130 L 352.564130 498.494130 L 353.101130 503.461130 L 353.515130 508.441130 L 353.900130 513.422130 L 354.264130 518.406130 L 354.624130 523.389130 L 354.978130 528.373130 L 355.326130 533.358130" fill="none" id="27" stroke="#3d8e43" stroke-width="0.5" /><path d="M 155.988130 135.728130 L 159.002130 131.761130 L 162.756130 128.488130 L 167.108130 126.070130 L 171.895130 124.715130 L 176.878130 124.671130 L 181.861130 124.631130 L 186.837130 124.715130 L 191.640130 126.040130 L 196.357130 127.647130 L 201.025130 129.390130 L 205.520130 131.540130 L 209.869130 133.974130 L 214.133130 136.553130 L 218.264130 139.339130 L 222.388130 142.137130 L 226.376130 145.125130 L 230.277130 148.226130 L 234.122130 151.395130 L 237.746130 154.815130 L 241.008130 158.581130 L 243.863130 162.664130 L 246.239130 167.045130 L 248.604130 171.431130 L 251.078130 175.757130 L 253.568130 180.073130 L 256.052130 184.394130 L 258.409130 188.784130 L 260.755130 193.181130 L 262.880130 197.688130 L 264.852130 202.265130 L 266.811130 206.847130 L 268.781130 211.424130 L 270.942130 215.915130 L 273.142130 220.386130 L 275.341130 224.858130 L 277.540130 229.330130 L 279.730130 233.807130 L 281.836130 238.323130 L 283.859130 242.877130 L 285.881130 247.432130 L 287.904130 251.986130 L 289.926130 256.541130 L 291.955130 261.092130 L 294.133130 265.575130 L 296.375130 270.025130 L 298.617130 274.476130 L 300.859130 278.926130 L 303.096130 283.379130 L 305.199130 287.897130 L 307.123130 292.494130 L 308.802130 297.186130 L 310.435130 301.894130 L 312.066130 306.603130 L 313.645130 311.330130 L 315.109130 316.093130 L 316.572130 320.857130 L 318.034130 325.621130 L 319.497130 330.385130 L 320.959130 335.149130 L 322.422130 339.913130 L 323.922130 344.665130 L 325.512130 349.388130 L 326.984130 354.149130 L 328.250130 358.969130 L 329.473130 363.800130 L 330.545130 368.666130 L 331.261130 373.598130 L 331.978130 378.529130 L 332.695130 383.461130 L 333.429130 388.390130 L 334.336130 393.290130 L 335.391130 398.160130 L 336.435130 403.033130 L 337.335130 407.935130 L 338.230130 412.837130 L 339.128130 417.739130 L 340.163130 422.614130 L 341.324130 427.460130 L 342.486130 432.306130 L 343.648130 437.152130 L 344.809130 441.998130 L 345.934130 446.853130 L 346.898130 451.742130 L 347.797130 456.644130 L 348.695130 461.545130 L 349.589130 466.448130 L 350.454130 471.356130 L 351.290130 476.268130 L 351.828130 481.223130 L 352.224130 486.190130 L 352.374130 491.171130 L 352.240130 496.153130" fill="none" id="28" stroke="#3d8e43" stroke-width="0.5" /><path d="M 196.680130 128.736130 L 198.364130 129.397130 L 200.047130 130.058130 L 201.733130 130.713130 L 203.421130 131.361130 L 205.120130 131.983130 L 206.811130 132.623130 L 208.492130 133.291130 L 210.143130 134.024130 L 211.766130 134.823130 L 213.332130 135.723130 L 214.866130 136.682130 L 216.319130 137.755130 L 217.746130 138.866130 L 219.095130 140.071130 L 220.433130 141.288130 L 221.718130 142.560130 L 222.998130 143.837130 L 224.244130 145.148130 L 225.477130 146.471130 L 226.675130 147.826130 L 227.860130 149.192130 L 229.022130 150.578130 L 230.184130 151.964130 L 231.346130 153.350130 L 232.508130 154.736130 L 233.670130 156.121130 L 234.832130 157.507130 L 235.994130 158.893130 L 237.156130 160.279130 L 238.318130 161.665130" fill="none" id="29" stroke="#3d8e43" stroke-width="0.5" /><path d="M 193.594130 131.027130 L 198.303130 132.319130 L 202.846130 134.105130 L 207.085130 136.525130 L 211.021130 139.416130 L 214.871130 142.421130 L 218.717130 145.430130 L 222.625130 148.358130 L 226.576130 151.229130 L 230.533130 154.091130 L 234.469130 156.981130 L 238.080130 160.268130 L 241.442130 163.809130 L 244.626130 167.512130 L 247.659130 171.339130 L 250.460130 175.339130 L 253.127130 179.431130 L 255.778130 183.532130 L 258.511130 187.579130 L 261.303130 191.586130 L 264.048130 195.625130 L 266.723130 199.710130 L 269.244130 203.893130 L 271.556130 208.195130 L 273.756130 212.555130 L 275.899130 216.943130 L 278.031130 221.337130 L 280.163130 225.730130 L 282.294130 230.124130 L 284.450130 234.506130 L 286.708130 238.836130 L 289.060130 243.116130 L 291.309130 247.451130 L 293.521130 251.805130 L 295.990130 256.018130 L 298.739130 260.054130 L 300.905130 264.430130 L 302.295130 269.109130 L 303.879130 273.729130 L 306.185130 278.032130 L 308.901130 282.090130" fill="none" id="30" stroke="#3d8e43" stroke-width="0.5" /><path d="M 300.082130 264.114130 L 297.961130 259.688130 L 295.814130 255.275130 L 293.642130 250.875130 L 291.412130 246.503130 L 289.177130 242.134130 L 286.943130 237.765130 L 284.726130 233.387130 L 282.582130 228.972130 L 280.464130 224.546130 L 278.308130 220.137130 L 275.987130 215.814130 L 273.344130 211.684130 L 270.573130 207.634130 L 267.809130 203.579130 L 265.146130 199.458130 L 262.400130 195.392130 L 259.539130 191.405130 L 256.931130 187.257130 L 254.726130 182.878130 L 252.231130 178.680130 L 249.071130 174.942130 L 245.637130 171.436130 L 242.471130 167.707130 L 239.604130 163.724130 L 236.479130 159.957130 L 232.948130 156.552130 L 229.269130 153.305130 L 225.607130 150.041130 L 222.056130 146.653130 L 218.462130 143.314130 L 214.692130 140.174130 L 210.799130 137.188130 L 206.773130 134.382130 L 202.693130 131.655130 L 198.624130 128.912130 L 194.548130 126.194130 L 190.122130 124.077130 L 185.573130 122.236130 L 181.093130 120.241130 L 176.400130 118.827130 L 171.496130 118.697130 L 166.633130 119.358130" fill="none" id="31" stroke="#3d8e43" stroke-width="0.5" /><path d="M 473.531130 185.806130 L 473.602130 186.466130 L 473.674130 187.125130 L 473.692130 187.787130 L 473.710130 188.450130 L 473.707130 189.113130 L 473.704130 189.776130 L 473.701130 190.439130 L 473.697130 191.101130 L 473.643130 191.762130 L 473.588130 192.423130 L 473.533130 193.083130 L 473.478130 193.744130 L 473.423130 194.405130 L 473.368130 195.065130 L 473.299130 195.725130 L 473.229130 196.384130 L 473.179130 197.045130 L 473.128130 197.706130 L 473.077130 198.367130 L 473.027130 199.028130 L 472.987130 199.689130 L 472.947130 200.351130 L 472.931130 201.014130 L 472.916130 201.677130 L 472.901130 202.339130 L 472.886130 203.002130 L 472.882130 203.665130 L 472.877130 204.328130 L 472.901130 204.990130 L 472.925130 205.653130" fill="none" id="32" stroke="#d55969" stroke-width="0.5" /><path d="M 471.321130 201.751130 L 470.977130 197.925130 L 470.735130 194.091130 L 470.613130 190.253130 L 470.626130 186.412130 L 470.782130 182.573130 L 471.225130 178.757130 L 471.664130 174.941130 L 471.983130 171.114130 L 472.147130 167.277130 L 472.193130 163.435130 L 472.204130 159.594130 L 472.215130 155.752130 L 472.247130 151.911130 L 472.330130 148.070130 L 472.503130 144.233130 L 472.769130 140.400130 L 473.047130 136.569130 L 473.328130 132.737130 L 473.606130 128.906130 L 473.873130 125.073130 L 474.087130 121.238130 L 474.252130 117.400130 L 474.372130 113.560130 L 474.437130 109.719130 L 474.416130 105.878130 L 474.269130 102.039130 L 473.999130 98.207630 L 473.670130 94.380130 L 473.308130 90.555730 L 472.901130 86.735730" fill="none" id="33" stroke="#d55969" stroke-width="0.5" /><path d="M 361.594130 214.862130 L 361.174130 217.374130 L 360.832130 219.897130 L 360.585130 222.430130 L 360.468130 224.975130 L 360.460130 227.521130 L 360.460130 230.068130 L 360.460130 232.615130 L 360.460130 235.162130 L 360.460130 237.709130 L 360.460130 240.256130 L 360.464130 242.803130 L 360.506130 245.349130 L 360.582130 247.895130 L 360.677130 250.440130 L 360.782130 252.985130 L 360.888130 255.529130 L 360.994130 258.074130 L 361.100130 260.619130 L 361.206130 263.163130 L 361.313130 265.708130 L 361.433130 268.252130 L 361.574130 270.795130 L 361.766130 273.335130 L 361.995130 275.871130 L 362.233130 278.407130 L 362.478130 280.942130 L 362.781130 283.471130 L 363.130130 285.993130 L 363.513130 288.511130 L 363.926130 291.024130" fill="none" id="34" stroke="#64e4ff" stroke-width="0.5" /><path d="M 237.153130 212.972130 L 238.152130 211.829130 L 239.151130 210.686130 L 240.194130 209.585130 L 241.245130 208.490130 L 242.330130 207.428130 L 243.428130 206.381130 L 244.583130 205.398130 L 245.779130 204.464130 L 247.021130 203.596130 L 248.323130 202.816130 L 249.641130 202.066130 L 250.999130 201.388130 L 252.358130 200.713130 L 253.726130 200.055130 L 255.094130 199.398130 L 256.445130 198.706130 L 257.796130 198.014130 L 259.115130 197.263130 L 260.428130 196.502130 L 261.696130 195.670130 L 262.947130 194.810130 L 264.178130 193.922130 L 265.394130 193.014130 L 266.646130 192.160130 L 267.947130 191.379130 L 269.264130 190.624130 L 270.617130 189.936130 L 271.975130 189.260130 L 273.367130 188.656130 L 274.759130 188.051130" fill="none" id="35" stroke="#e68e54" stroke-width="0.5" /><path d="M 238.539130 214.956130 L 240.111130 210.445130 L 242.303130 206.205130 L 245.227130 202.436130 L 248.734130 199.189130 L 252.256130 195.961130 L 255.759130 192.716130 L 259.550130 189.810130 L 263.492130 187.109130 L 267.460130 184.447130 L 271.484130 181.869130 L 275.502130 179.283130 L 279.454130 176.601130 L 283.289130 173.750130 L 287.275130 171.134130 L 291.515130 168.935130 L 295.797130 166.814130 L 300.107130 164.753130 L 304.545130 162.992130 L 309.101130 161.557130 L 313.741130 160.425130 L 318.477130 159.868130 L 323.252130 159.791130 L 328.026130 159.985130 L 332.784130 160.410130 L 337.514130 161.088130 L 342.175130 162.131130 L 346.761130 163.471130 L 351.338130 164.846130 L 355.915130 166.220130 L 360.491130 167.594130" fill="none" id="36" stroke="#e68e54" stroke-width="0.5" /><path d="M 242.602130 208.106130 L 243.688130 206.847130 L 244.774130 205.588130 L 245.913130 204.376130 L 247.053130 203.165130 L 248.266130 202.028130 L 249.479130 200.891130 L 250.742130 199.810130 L 252.005130 198.728130 L 253.188130 197.560130 L 254.372130 196.392130 L 255.626130 195.300130 L 256.881130 194.208130 L 258.198130 193.193130 L 259.514130 192.178130 L 260.840130 191.174130 L 262.166130 190.170130 L 263.517130 189.201130 L 264.869130 188.233130 L 266.272130 187.340130 L 267.674130 186.447130 L 269.116130 185.618130 L 270.557130 184.789130 L 272.006130 183.973130 L 273.455130 183.156130 L 274.886130 182.310130 L 276.317130 181.463130 L 277.687130 180.520130 L 279.057130 179.578130 L 280.388130 178.582130 L 281.720130 177.586130" fill="none" id="37" stroke="#e68e54" stroke-width="0.5" /><path d="M 243.200130 209.098130 L 245.781130 204.831130 L 248.467130 200.629130 L 251.237130 196.483130 L 254.225130 192.491130 L 257.496130 188.728130 L 261.048130 185.228130 L 264.688130 181.819130 L 268.346130 178.433130 L 272.264130 175.348130 L 276.329130 172.470130 L 280.773130 170.215130 L 285.429130 168.438130 L 290.231130 167.095130 L 295.099130 166.015130 L 299.994130 165.066130 L 304.863130 163.989130 L 309.708130 162.809130 L 314.510130 161.468130 L 319.314130 160.158130 L 324.245130 159.431130 L 329.215130 159.044130 L 334.198130 158.946130 L 339.179130 159.176130 L 344.143130 159.637130 L 349.078130 160.348130 L 353.976130 161.277130 L 358.839130 162.382130 L 363.656130 163.666130 L 368.404130 165.184130 L 373.065130 166.955130 L 377.645130 168.923130 L 382.114130 171.133130 L 386.485130 173.531130 L 390.789130 176.048130 L 394.981130 178.747130 L 399.116130 181.535130 L 403.246130 184.330130 L 407.283130 187.254130 L 411.196130 190.345130 L 415.062130 193.495130 L 418.960130 196.604130 L 422.947130 199.599130 L 426.997130 202.508130 L 431.015130 205.461130 L 434.913130 208.570130 L 438.691130 211.824130 L 442.360130 215.200130 L 445.896130 218.714130 L 449.254130 222.399130 L 452.430130 226.242130 L 455.542130 230.139130 L 458.654130 234.036130 L 461.765130 237.932130 L 464.877130 241.830130 L 467.978130 245.735130 L 470.986130 249.712130 L 473.829130 253.807130 L 476.461130 258.042130 L 478.987130 262.341130 L 481.498130 266.650130 L 484.008130 270.959130 L 486.519130 275.267130 L 489.029130 279.576130 L 491.540130 283.885130 L 493.961130 288.244130 L 496.218130 292.691130 L 498.425130 297.162130 L 500.805130 301.544130 L 503.346130 305.834130 L 505.834130 310.156130 L 508.029130 314.632130 L 509.773130 319.301130 L 510.965130 324.141130 L 512.158130 328.983130 L 513.872130 333.664130 L 515.485130 338.382130 L 516.895130 343.165130 L 518.224130 347.972130" fill="none" id="38" stroke="#e68e54" stroke-width="0.5" /><path d="M 235.578130 215.995130 L 236.657130 211.115130 L 238.487130 206.469130 L 241.249130 202.312130 L 244.721130 198.715130 L 248.289130 195.214130 L 252.091130 191.969130 L 256.161130 189.069130 L 260.552130 186.680130 L 265.114130 184.635130 L 269.681130 182.599130 L 274.299130 180.689130 L 279.076130 179.211130 L 283.892130 177.869130 L 288.756130 176.712130 L 293.639130 175.643130 L 298.594130 174.990130 L 303.592130 174.875130 L 308.586130 175.069130 L 313.520130 175.863130 L 318.344130 177.177130 L 323.150130 178.557130 L 327.911130 180.080130 L 332.585130 181.856130 L 337.223130 183.725130 L 341.856130 185.605130 L 346.446130 187.586130 L 350.975130 189.705130 L 355.480130 191.872130 L 359.932130 194.148130 L 364.348130 196.493130 L 368.728130 198.905130 L 373.102130 201.326130 L 377.436130 203.818130 L 381.697130 206.435130 L 385.875130 209.181130 L 390.050130 211.932130 L 394.175130 214.757130 L 398.272130 217.623130 L 402.297130 220.589130 L 406.303130 223.581130 L 410.278130 226.614130 L 414.211130 229.701130 L 418.145130 232.787130 L 422.077130 235.875130 L 425.990130 238.988130 L 429.840130 242.177130 L 433.665130 245.397130 L 437.454130 248.659130 L 441.105130 252.075130 L 444.748130 255.499130 L 448.280130 259.038130 L 451.674130 262.710130 L 455.067130 266.382130 L 458.457130 270.057130 L 461.772130 273.800130 L 465.052130 277.574130 L 468.331130 281.348130 L 471.608130 285.125130 L 474.789130 288.982130 L 477.943130 292.861130 L 481.097130 296.741130 L 484.250130 300.621130 L 487.353130 304.542130 L 490.336130 308.554130 L 493.291130 312.587130 L 496.114130 316.714130 L 498.774130 320.947130 L 501.187130 325.326130 L 503.450130 329.785130 L 505.664130 334.268130 L 507.877130 338.751130 L 510.071130 343.244130 L 512.360130 347.689130 L 514.710130 352.102130 L 517.090130 356.499130" fill="none" id="39" stroke="#eed973" stroke-width="0.5" /><path d="M 233.940130 217.082130 L 236.366130 212.745130 L 239.011130 208.539130 L 241.894130 204.493130 L 245.161130 200.751130 L 248.788130 197.356130 L 252.589130 194.157130 L 256.567130 191.179130 L 260.642130 188.338130 L 264.904130 185.788130 L 269.329130 183.527130 L 273.814130 181.388130 L 278.392130 179.457130 L 283.036130 177.690130 L 287.735130 176.078130 L 292.516130 174.728130 L 297.376130 173.713130 L 302.299130 173.050130 L 307.247130 172.588130 L 312.205130 172.258130 L 317.169130 172.030130 L 322.136130 171.897130 L 327.102130 171.997130 L 332.035130 172.538130 L 336.879130 173.616130 L 341.578130 175.214130 L 346.118130 177.226130 L 350.596130 179.381130 L 355.068130 181.547130 L 359.520130 183.755130 L 363.910130 186.083130 L 368.272130 188.464130 L 372.619130 190.871130 L 376.900130 193.396130 L 381.118130 196.021130 L 385.322130 198.671130 L 389.461130 201.421130 L 393.540130 204.260130 L 397.608130 207.115130 L 401.657130 209.995130" fill="none" id="40" stroke="#eed973" stroke-width="0.5" /><path d="M 268.523130 182.405130 L 271.668130 180.567130 L 274.888130 178.864130 L 278.197130 177.342130 L 281.593130 176.023130 L 285.081130 174.975130 L 288.646130 174.226130 L 292.254130 173.727130 L 295.882130 173.398130 L 299.520130 173.208130 L 303.162130 173.135130 L 306.804130 173.171130 L 310.444130 173.318130 L 314.078130 173.559130 L 317.707130 173.880130 L 321.332130 174.239130 L 324.953130 174.632130 L 328.545130 175.236130 L 332.080130 176.114130 L 335.593130 177.077130 L 339.106130 178.040130 L 342.602130 179.066130 L 346.051130 180.235130 L 349.496130 181.419130 L 352.952130 182.570130 L 356.451130 183.583130 L 359.962130 184.554130 L 363.433130 185.657130 L 366.797130 187.055130 L 370.067130 188.661130 L 373.247130 190.436130" fill="none" id="41" stroke="#eed973" stroke-width="0.5" /><path d="M 337.877130 174.279130 L 342.748130 174.928130 L 347.560130 175.927130 L 352.281130 177.291130 L 356.770130 179.290130 L 361.238130 181.336130 L 365.775130 183.223130 L 370.323130 185.086130 L 374.762130 187.193130 L 379.095130 189.512130 L 383.356130 191.959130 L 387.597130 194.441130 L 391.773130 197.032130 L 395.921130 199.667130 L 400.066130 202.307130 L 404.119130 205.085130 L 408.051130 208.032130 L 411.941130 211.035130 L 415.783130 214.099130 L 419.549130 217.256130 L 423.268130 220.468130 L 426.942130 223.732130 L 430.592130 227.022130 L 434.243130 230.312130 L 437.893130 233.602130 L 441.525130 236.913130 L 445.039130 240.347130 L 448.308130 244.016130 L 451.411130 247.827130 L 454.591130 251.573130 L 457.957130 255.153130 L 461.442130 258.618130 L 464.894130 262.115130 L 468.121130 265.822130 L 471.027130 269.784130 L 473.830130 273.820130 L 476.774130 277.755130 L 479.966130 281.491130 L 483.411130 284.996130 L 486.961130 288.394130 L 490.403130 291.901130 L 493.496130 295.720130 L 496.313130 299.746130 L 498.745130 304.016130 L 501.007130 308.379130 L 503.267130 312.742130 L 505.596130 317.070130 L 508.167130 321.258130 L 511.060130 325.230130 L 514.014130 329.157130 L 516.590130 333.341130 L 518.578130 337.836130 L 520.249130 342.457130 L 522.048130 347.030130 L 523.830130 351.610130" fill="none" id="42" stroke="#eed973" stroke-width="0.5" /><path d="M 342.161130 181.531130 L 347.123130 181.266130 L 352.059130 181.775130 L 356.803130 183.221130 L 361.297130 185.351130 L 365.772130 187.520130 L 370.184130 189.814130 L 374.562130 192.173130 L 378.936130 194.538130 L 383.318130 196.890130 L 387.727130 199.190130 L 392.167130 201.431130 L 396.612130 203.659130 L 401.022130 205.957130 L 405.360130 208.388130 L 409.638130 210.923130 L 413.846130 213.573130 L 417.975130 216.343130 L 422.075130 219.158130 L 426.174130 221.974130 L 430.265130 224.802130 L 434.327130 227.670130 L 438.353130 230.589130 L 442.336130 233.567130 L 446.198130 236.698130 L 449.873130 240.047130 L 453.356130 243.594130 L 456.765130 247.215130 L 460.127130 250.879130 L 463.345130 254.671130 L 466.475130 258.535130 L 469.599130 262.404130 L 472.724130 266.273130 L 475.873130 270.122130 L 479.186130 273.830130 L 482.675130 277.374130 L 486.103130 280.974130 L 489.166130 284.887130 L 491.793130 289.107130 L 494.129130 293.497130 L 496.523130 297.854130 L 499.171130 302.062130 L 501.882130 306.230130 L 504.320130 310.559130 L 506.404130 315.073130 L 508.373130 319.640130 L 510.428130 324.168130 L 512.573130 328.654130 L 514.665130 333.165130 L 516.575130 337.755130 L 518.427130 342.370130 L 520.380130 346.944130 L 522.444130 351.468130" fill="none" id="43" stroke="#eed973" stroke-width="0.5" /><path d="M 221.705130 226.548130 L 222.258130 226.220130 L 222.811130 225.892130 L 223.336130 225.520130 L 223.859130 225.145130 L 224.317130 224.694130 L 224.774130 224.241130 L 225.198130 223.757130 L 225.621130 223.273130 L 226.034130 222.780130 L 226.447130 222.287130 L 226.847130 221.783130 L 227.247130 221.279130 L 227.643130 220.773130 L 228.040130 220.267130 L 228.442130 219.764130 L 228.844130 219.262130 L 229.250130 218.764130 L 229.657130 218.265130 L 230.068130 217.770130 L 230.479130 217.276130 L 230.900130 216.790130 L 231.321130 216.303130 L 231.745130 215.819130 L 232.168130 215.335130 L 232.600130 214.858130 L 233.032130 214.381130 L 233.473130 213.913130 L 233.914130 213.445130 L 234.805130 212.517130" fill="none" id="44" stroke="#eed973" stroke-width="0.5" /><path d="M 234.805130 212.517130 L 234.456130 212.979130 L 234.106130 213.440130 L 233.757130 213.902130 L 233.408130 214.364130 L 233.058130 214.825130 L 232.709130 215.286130 L 232.359130 215.748130 L 232.010130 216.209130 L 231.660130 216.671130 L 231.310130 217.132130 L 230.961130 217.594130 L 230.612130 218.055130 L 230.261130 218.516130 L 229.911130 218.977130 L 229.559130 219.436130 L 229.207130 219.896130 L 228.854130 220.355130 L 228.501130 220.814130 L 228.145130 221.270130 L 227.788130 221.726130 L 227.431130 222.181130 L 227.074130 222.637130 L 226.719130 223.094130 L 226.365130 223.552130 L 226.013130 224.012130 L 225.661130 224.472130 L 225.319130 224.938130 L 224.976130 225.405130 L 224.644130 225.879130 L 224.311130 226.353130" fill="none" id="45" stroke="#eed973" stroke-width="0.5" /><path d="M 224.311130 226.353130 L 224.701130 226.002130 L 225.091130 225.652130 L 225.456130 225.276130 L 225.821130 224.900130 L 226.160130 224.500130 L 226.499130 224.101130 L 226.836130 223.699130 L 227.173130 223.298130 L 227.473130 222.868130 L 227.773130 222.438130 L 228.077130 222.012130 L 228.381130 221.585130 L 228.664130 221.144130 L 228.947130 220.702130 L 229.233130 220.263130 L 229.520130 219.825130 L 229.803130 219.383130 L 230.086130 218.942130 L 230.383130 218.511130 L 230.680130 218.079130 L 230.974130 217.645130 L 231.268130 217.211130 L 231.589130 216.797130 L 231.909130 216.382130 L 232.233130 215.970130 L 232.558130 215.559130 L 232.900130 215.162130 L 233.243130 214.765130 L 233.965130 214.005130" fill="none" id="46" stroke="#eed973" stroke-width="0.5" /><path d="M 233.965130 214.005130 L 233.694130 214.588130 L 233.423130 215.170130 L 233.128130 215.741130 L 232.833130 216.311130 L 232.496130 216.858130 L 232.156130 217.403130 L 231.792130 217.931130 L 231.421130 218.456130 L 231.045130 218.977130 L 230.667130 219.496130 L 230.279130 220.008130 L 229.886130 220.516130 L 229.490130 221.021130 L 229.091130 221.525130 L 228.691130 222.028130 L 228.290130 222.530130 L 227.888130 223.030130 L 227.485130 223.530130 L 227.082130 224.030130 L 226.678130 224.530130 L 226.275130 225.030130 L 225.870130 225.529130 L 225.466130 226.028130 L 225.062130 226.527130 L 224.657130 227.026130 L 224.252130 227.524130 L 223.847130 228.023130 L 223.441130 228.520130 L 223.034130 229.017130 L 222.627130 229.514130 L 222.220130 230.011130" fill="none" id="47" stroke="#eed973" stroke-width="0.5" /><path d="M 232.145130 217.507130 L 234.128130 212.974130 L 236.273130 208.516130 L 238.772130 204.247130 L 241.805130 200.339130 L 245.177130 196.719130 L 248.682130 193.227130 L 252.327130 189.882130 L 256.243130 186.859130 L 260.492130 184.325130 L 264.902130 182.083130 L 269.441130 180.114130 L 274.180130 178.693130 L 279.028130 177.709130 L 283.919130 176.961130 L 288.828130 176.340130 L 293.761130 175.964130 L 298.708130 175.925130 L 303.651130 176.139130 L 308.568130 176.689130 L 313.466130 177.388130 L 318.323130 178.330130 L 323.127130 179.514130 L 327.860130 180.955130 L 332.533130 182.579130 L 337.137130 184.390130 L 341.728130 186.236130 L 346.299130 188.128130 L 350.808130 190.166130 L 355.247130 192.349130 L 359.672130 194.562130 L 364.050130 196.868130 L 368.414130 199.199130 L 372.772130 201.541130 L 377.064130 204.002130 L 381.231130 206.668130 L 385.323130 209.450130 L 389.309130 212.381130 L 393.256130 215.364130 L 397.153130 218.412130 L 400.966130 221.564130 L 404.642130 224.876130 L 408.223130 228.290130 L 411.750130 231.760130 L 415.261130 235.246130 L 418.771130 238.732130 L 422.281130 242.219130 L 425.792130 245.706130 L 429.302130 249.192130 L 432.789130 252.702130 L 436.215130 256.271130 L 439.556130 259.920130 L 442.821130 263.638130 L 446.054130 267.383130 L 449.243130 271.165130 L 452.385130 274.987130 L 455.512130 278.822130 L 458.638130 282.656130 L 461.716130 286.530130 L 464.636130 290.524130 L 467.435130 294.604130 L 470.213130 298.697130 L 472.991130 302.791130 L 475.769130 306.885130 L 478.646130 310.911130 L 481.652130 314.840130 L 484.700130 318.737130 L 487.750130 322.633130 L 490.800130 326.528130 L 493.850130 330.424130 L 496.870130 334.343130 L 499.747130 338.368130 L 502.455130 342.508130 L 505.084130 346.700130 L 507.598130 350.961130 L 509.846130 355.367130 L 512.144130 359.749130 L 514.444130 364.129130" fill="none" id="48" stroke="#eed973" stroke-width="0.5" /><path d="M 629.901130 265.678130 L 629.524130 266.281130 L 629.146130 266.885130 L 628.752130 267.477130 L 628.358130 268.070130 L 627.930130 268.639130 L 627.503130 269.208130 L 627.054130 269.761130 L 626.606130 270.313130 L 626.155130 270.864130 L 625.705130 271.415130 L 625.241130 271.955130 L 624.777130 272.495130 L 624.314130 273.035130 L 623.850130 273.575130 L 623.384130 274.113130 L 622.918130 274.651130 L 622.453130 275.190130 L 621.989130 275.729130 L 621.524130 276.268130 L 621.059130 276.807130 L 620.598130 277.349130 L 620.137130 277.891130 L 619.673130 278.431130 L 619.209130 278.971130 L 618.764130 279.526130 L 618.319130 280.082130 L 617.922130 280.672130 L 617.525130 281.263130 L 616.779130 282.476130" fill="none" id="49" stroke="#fdb968" stroke-width="0.5" /><path d="M 616.779130 282.476130 L 617.153130 282.096130 L 617.527130 281.716130 L 617.901130 281.336130 L 618.275130 280.956130 L 618.649130 280.576130 L 619.024130 280.196130 L 619.398130 279.817130 L 619.772130 279.437130 L 620.146130 279.057130 L 620.520130 278.677130 L 620.894130 278.297130 L 621.268130 277.917130 L 621.643130 277.538130 L 622.018130 277.159130 L 622.394130 276.781130 L 622.770130 276.403130 L 623.146130 276.025130 L 623.522130 275.647130 L 623.906130 275.277130 L 624.290130 274.908130 L 624.673130 274.536130 L 625.055130 274.165130 L 625.451130 273.808130 L 625.847130 273.451130 L 626.245130 273.096130 L 626.644130 272.742130 L 627.050130 272.397130 L 627.457130 272.053130 L 628.289130 271.386130" fill="none" id="50" stroke="#fdb968" stroke-width="0.5" /><path d="M 628.289130 271.386130 L 627.827130 271.780130 L 627.365130 272.175130 L 626.902130 272.568130 L 626.440130 272.962130 L 625.977130 273.356130 L 625.513130 273.749130 L 625.049130 274.141130 L 624.585130 274.533130 L 624.121130 274.925130 L 623.657130 275.317130 L 623.193130 275.709130 L 622.729130 276.101130 L 622.264130 276.493130 L 621.800130 276.885130 L 621.335130 277.276130 L 620.871130 277.668130 L 620.407130 278.060130 L 619.942130 278.452130 L 619.478130 278.844130 L 619.014130 279.235130 L 618.550130 279.628130 L 618.086130 280.021130 L 617.621130 280.412130 L 617.156130 280.803130 L 616.686130 281.187130 L 616.215130 281.571130 L 615.723130 281.927130 L 615.231130 282.284130 L 614.224130 282.964130" fill="none" id="51" stroke="#fdb968" stroke-width="0.5" /></svg>