<?xml version="1.0" encoding="utf-8" ?>
<svg baseProfile="full" height="733.674325" version="1.1" viewBox="0,0,488.674325,733.674325" width="488.674325" xmlns="http://www.w3.org/2000/svg" xmlns:ev="http://www.w3.org/2001/xml-events" xmlns:xlink="http://www.w3.org/1999/xlink"><defs><style type="text/css"><![CDATA[
	.background { fill: white; }
	.line { stroke: firebrick; stroke-width: .1mm; }
	.blacksquare { fill: indigo; }
	.whitesquare { fill: white; }
]]></style></defs><rect class="background" height="100%" width="100%" x="0" y="0" /><path d="M 219.392282 3.644242 L 219.123739 7.624542 L 219.095811 11.624444 L 219.148513 15.622502 L 219.359441 19.616937 L 219.570369 23.611372 L 219.597836 27.611048 L 219.615321 31.611010 L 219.632808 35.610971 L 219.594019 39.610034 L 219.448864 43.607400 L 219.303708 47.604765 L 219.158554 51.602131 L 219.013398 55.599497 L 218.868244 59.596861 L 218.723089 63.594227 L 218.577934 67.591593 L 218.432779 71.588958 L 218.344258 75.587926 L 218.263190 79.587104 L 218.182120 83.586283 L 218.101052 87.585461 L 218.019982 91.584640 L 217.938914 95.583818 L 217.857844 99.582996 L 217.776776 103.582175 L 217.695707 107.581353 L 217.614638 111.580532 L 217.533569 115.579710 L 217.452500 119.578888 L 217.417935 123.578687 L 217.392232 127.578605 L 217.366529 131.578521 L 217.340825 135.578440 L 217.315123 139.578357 L 217.289421 143.578274 L 217.263718 147.578192 L 217.250542 151.578149 L 217.250542 155.578149 L 217.250542 159.578149 L 217.250542 163.578149 L 217.250542 167.578149 L 217.250542 171.578149 L 217.250542 175.578149 L 217.250542 179.578149 L 217.257171 183.578099 L 217.318839 187.577623 L 217.380509 191.577147 L 217.442177 195.576672 L 217.503846 199.576197 L 217.565514 203.575722 L 217.627183 207.575245 L 217.688851 211.574770 L 217.750518 215.574295 L 217.812187 219.573820 L 217.873856 223.573343 L 217.935525 227.572868 L 217.997193 231.572394 L 218.058862 235.571918 L 218.120530 239.571443 L 218.182198 243.570966 L 218.243866 247.570492 L 218.305534 251.570017 L 218.367204 255.569541 L 218.428872 259.569065 L 218.501395 263.568401 L 218.578575 267.567656 L 218.655756 271.566913 L 218.732937 275.566167 L 218.810120 279.565422 L 218.887301 283.564678 L 218.964482 287.563933 L 219.041663 291.563188 L 219.118844 295.562444 L 219.196026 299.561699 L 219.273207 303.560954 L 219.350389 307.560209 L 219.427570 311.559465 L 219.504751 315.558720 L 219.581931 319.557975 L 219.659114 323.557232 L 219.736295 327.556486 L 219.813476 331.555741 L 219.884596 335.555100 L 219.943738 339.554664 L 220.002882 343.554225 L 220.062026 347.553788 L 220.121169 351.553351 L 220.180312 355.552914 L 220.239454 359.552476 L 220.298597 363.552039 L 220.357741 367.551603 L 220.416884 371.551165 L 220.476028 375.550727 L 220.535170 379.550290 L 220.594313 383.549853 L 220.653457 387.549416 L 220.712600 391.548978 L 220.771743 395.548541 L 220.821218 399.548214 L 220.853495 403.548084 L 220.885773 407.547955 L 220.918049 411.547824 L 220.950327 415.547693 L 220.982604 419.547563 L 221.014881 423.547433 L 221.047157 427.547303 L 221.079435 431.547172 L 221.111713 435.547042 L 221.143990 439.546912 L 221.176266 443.546782 L 221.208544 447.546652 L 221.240821 451.546521 L 221.273098 455.546391 L 221.305374 459.546261 L 221.337651 463.546132 L 221.369930 467.546000 L 221.402207 471.545870 L 221.434483 475.545740 L 221.466760 479.545610 L 221.499038 483.545479 L 221.531315 487.545349 L 221.563592 491.545219 L 221.595868 495.545089 L 221.628147 499.544960 L 221.667879 503.544761 L 221.707694 507.544563 L 221.747509 511.544365 L 221.787324 515.544167 L 221.827140 519.543969 L 221.866954 523.543770 L 221.906769 527.543572 L 221.946585 531.543375 L 221.986401 535.543176 L 222.026216 539.542979 L 222.066031 543.542780 L 222.105846 547.542581 L 222.145660 551.542384 L 222.185476 555.542185 L 222.225291 559.541988 L 222.265107 563.541789 L 222.304922 567.541591 L 222.344738 571.541393 L 222.384553 575.541194 L 222.424368 579.540997 L 222.464182 583.540798 L 222.503998 587.540600 L 222.543813 591.540403 L 222.583629 595.540203 L 222.623444 599.540006 L 222.663260 603.539807 L 222.703075 607.539609 L 222.742890 611.539412 L 222.772257 615.539290 L 222.791636 619.539243 L 222.811013 623.539197 L 222.830390 627.539150 L 222.849768 631.539103 L 222.869146 635.539056 L 222.888522 639.539009 L 222.907901 643.538962 L 222.927278 647.538915 L 222.946655 651.538867 L 222.966033 655.538821 L 222.985411 659.538774 L 223.004787 663.538727 L 223.024166 667.538680 L 223.043543 671.538633 L 223.062921 675.538586 L 223.082298 679.538539 L 223.101675 683.538492 L 223.121053 687.538445 L 223.140431 691.538398 L 223.159807 695.538351 L 223.173192 699.538321 L 223.176840 703.538320 L 223.180489 707.538318 L 223.184137 711.538317 L 223.187787 715.538315 L 223.191435 719.538313 L 223.195084 723.538312 L 223.198732 727.538310 L 223.202380 731.538308 L 223.203303 732.549752" fill="none" id="1" stroke="black" stroke-width="0.674325" /><path d="M 183.423773 607.589123 L 184.281765 607.505631 L 187.903164 605.807360 L 191.473847 604.005848 L 195.025193 602.165211 L 198.576538 600.324574 L 202.127883 598.483938 L 205.679229 596.643301 L 209.230576 594.802663 L 212.785422 592.968875 L 216.357410 591.168625 L 219.929397 589.368375 L 223.501385 587.568124 L 227.073374 585.767874 L 230.645362 583.967624 L 234.211556 582.156334 L 237.722104 580.239033 L 241.223889 578.305930 L 244.709021 576.342805 L 248.194152 574.379681 L 251.679283 572.416556 L 255.164416 570.453432 L 258.649546 568.490307 L 262.134678 566.527183 L 265.619809 564.564058 L 269.104941 562.600934 L 272.590073 560.637810 L 276.075204 558.674686 L 279.560336 556.711561 L 283.045467 554.748437 L 286.530599 552.785313 L 290.015731 550.822187 L 293.500862 548.859063 L 296.985995 546.895938 L 300.471126 544.932814 L 303.956257 542.969689 L 307.441389 541.006565 L 310.926520 539.043440 L 314.411653 537.080316 L 317.896784 535.117191 L 321.381915 533.154067 L 324.867047 531.190944 L 328.352178 529.227819 L 331.853757 527.294531 L 335.374482 525.395980 L 338.895207 523.497430 L 342.415932 521.598879 L 345.936657 519.700328 L 349.457382 517.801777 L 352.978107 515.903226 L 356.498832 514.004675 L 360.019557 512.106124 L 363.514162 510.160610 L 366.984285 508.171076 L 370.434842 506.148205 L 373.863683 504.088340 L 377.292525 502.028475 L 380.721367 499.968611 L 384.150209 497.908746 L 387.579051 495.848882 L 391.054260 493.868393 L 394.532691 491.893418 L 398.011121 489.918443 L 401.489550 487.943468 L 404.967979 485.968493 L 408.446409 483.993518 L 411.864756 481.917002 L 415.270194 479.818671 L 418.658806 477.693738 L 422.014054 475.516053 L 425.369303 473.338369 L 427.360782 472.045822" fill="none" id="2" stroke="black" stroke-width="0.674325" /><path d="M 33.219052 442.163932 L 36.296005 444.703874 L 39.310429 447.332265 L 42.462525 449.794842 L 45.663573 452.193285 L 48.870371 454.584192 L 52.077171 456.975101 L 55.306359 459.335447 L 58.552763 461.672297 L 61.799166 464.009146 L 65.035282 466.359948 L 68.227283 468.770577 L 71.419285 471.181203 L 74.611287 473.591831 L 77.803288 476.002459 L 80.954586 478.465987 L 84.102653 480.933713 L 87.250720 483.401439 L 90.380893 485.891716 L 93.499375 488.396726 L 96.617857 490.901734 L 99.736339 493.406744 L 102.787363 495.993270 L 105.831580 498.588023 L 108.875797 501.182776 L 111.920014 503.777529 L 114.964230 506.372282 L 118.008448 508.967035 L 121.052665 511.561788 L 124.096882 514.156542 L 127.164433 516.723165 L 130.276940 519.235592 L 133.389449 521.748020 L 136.558061 524.189229 L 139.729406 526.626967 L 142.900751 529.064706 L 146.072094 531.502447 L 149.243439 533.940185 L 152.414784 536.377924 L 155.586129 538.815664 L 158.747057 541.266798 L 161.890684 543.740177 L 165.034312 546.213555 L 168.110613 548.769332 L 171.160837 551.357021 L 174.211060 553.944710 L 177.261284 556.532400 L 180.311507 559.120090 L 183.361729 561.707780 L 186.411954 564.295469 L 189.462176 566.883160 L 192.531402 569.448132 L 195.617313 571.993156 L 198.703226 574.538180 L 201.817517 577.048274 L 204.940454 579.547727 L 208.063389 582.047181 L 211.186327 584.546634 L 214.309263 587.046088 L 217.430092 589.548137 L 220.516791 592.092206 L 223.603489 594.636276 L 226.678094 597.194616 L 229.693848 599.822396 L 232.709602 602.450176 L 235.725357 605.077956 L 238.741111 607.705735 L 241.756866 610.333514 L 244.772620 612.961295 L 247.788374 615.589074 L 250.804129 618.216853 L 253.869203 620.786129 L 256.969172 623.314010 L 260.069142 625.841893 L 263.220353 628.305240 L 266.385053 630.751599 L 269.549754 633.197959 L 272.714454 635.644317 L 275.879154 638.090676 L 279.043854 640.537036 L 282.208555 642.983395 L 285.373255 645.429753 L 288.537955 647.876112 L 291.702655 650.322472 L 294.867355 652.768830 L 297.978776 655.282155 L 301.073781 657.816115 L 303.518262 659.817473" fill="none" id="3" stroke="black" stroke-width="0.674325" /><path d="M 171.707243 176.510382 L 175.634463 175.820933 L 179.506754 174.823821 L 183.350049 173.715180 L 187.155438 172.483807 L 190.954548 171.232102 L 194.753658 169.980399 L 198.552768 168.728695 L 202.351878 167.476990 L 206.150988 166.225287 L 209.950097 164.973582 L 213.749208 163.721879 L 217.548317 162.470175 L 221.347428 161.218470 L 225.139909 159.947008 L 228.925160 158.653999 L 232.710410 157.360989 L 236.495662 156.067980 L 240.280913 154.774969 L 244.066165 153.481960 L 247.851416 152.188951 L 251.636667 150.895940 L 255.426700 149.617477 L 259.240771 148.412132 L 263.054844 147.206788 L 266.868915 146.001442 L 270.682987 144.796098 L 274.497058 143.590754 L 278.311130 142.385409 L 282.125203 141.180064 L 285.939274 139.974718 L 289.753346 138.769374 L 293.553151 137.520603 L 297.338928 136.229135 L 301.124485 134.937030 L 304.897064 133.607501 L 308.669642 132.277971 L 312.442221 130.948441 L 316.214800 129.618910 L 319.987378 128.289381 L 323.759957 126.959851 L 327.532536 125.630322 L 331.305115 124.300792 L 335.077693 122.971262 L 338.850272 121.641732 L 342.622851 120.312202 L 346.395429 118.982672 L 350.168008 117.653142 L 353.940587 116.323611 L 357.713166 114.994082 L 361.475018 113.634884 L 365.225624 112.244574 L 368.976229 110.854266 L 372.726835 109.463957 L 376.477441 108.073649 L 380.234647 106.701508 L 384.002905 105.359780 L 387.771163 104.018051 L 391.556697 102.726003 L 395.344334 101.439995 L 399.145525 100.195650 L 402.964674 99.006487 L 406.783821 97.817324 L 410.602969 96.628160 L 414.422117 95.438997 L 418.241265 94.249834 L 422.060413 93.060671 L 425.874758 91.856801 L 429.659589 90.562564 L 433.444421 89.268327 L 437.212811 87.927002 L 440.980659 86.584121 L 444.725591 85.178696 L 448.469193 83.769638 L 452.212794 82.360579 L 455.956396 80.951520 L 459.699998 79.542461 L 463.443600 78.133403 L 467.187201 76.724344 L 470.930803 75.315285 L 474.674404 73.906226 L 475.140312 73.730863" fill="none" id="4" stroke="black" stroke-width="0.674325" /><path d="M 207.203303 371.628492 L 211.090028 370.686828 L 214.882353 369.414716 L 218.669380 368.127934 L 222.399249 366.682919 L 226.129120 365.237904 L 229.818521 363.695613 L 233.472701 362.068664 L 237.122151 360.431496 L 240.726758 358.697480 L 244.331364 356.963464 L 247.935970 355.229449 L 251.540578 353.495433 L 255.145184 351.761417 L 258.749790 350.027401 L 262.396926 348.386531 L 266.068166 346.798451 L 269.760738 345.261370 L 273.469355 343.762653 L 277.177975 342.263936 L 280.886592 340.765220 L 284.595210 339.266503 L 288.303828 337.767787 L 292.012446 336.269070 L 295.713783 334.752681 L 299.401710 333.203750 L 303.089638 331.654818 L 306.763039 330.071858 L 310.432575 328.479845 L 314.102111 326.887832 L 317.771646 325.295817 L 321.441182 323.703804 L 325.110718 322.111790 L 328.780253 320.519776 L 332.449789 318.927762 L 336.119326 317.335749 L 339.788861 315.743735 L 343.458396 314.151721 L 347.127932 312.559708 L 350.797468 310.967694 L 354.467003 309.375680 L 358.100554 307.703597 L 361.727366 306.016517 L 365.354178 304.329438 L 368.980990 302.642359 L 372.607801 300.955279 L 376.234613 299.268200 L 379.861425 297.581120 L 383.488236 295.894041 L 387.115049 294.206962 L 390.741860 292.519882 L 394.368673 290.832803 L 398.000678 289.157075 L 401.648364 287.515618 L 405.296051 285.874160 L 408.943737 284.232703 L 412.591424 282.591245 L 416.239110 280.949788 L 419.875825 279.284504 L 423.494434 277.579903 L 427.113045 275.875301 L 430.731653 274.170699 L 434.350262 272.466098 L 437.968872 270.761496 L 441.564252 269.008720 L 445.151351 267.238771 L 448.736525 265.464998 L 452.295308 263.638781 L 455.854091 261.812565 L 459.412873 259.986349 L 462.971656 258.160132 L 466.531155 256.335343 L 470.120657 254.570273 L 473.710159 252.805202 L 477.299661 251.040131 L 480.889163 249.275059 L 482.636372 248.415903" fill="none" id="5" stroke="black" stroke-width="0.674325" /><path d="M 418.447392 56.534012 L 418.756425 60.288262 L 418.973298 64.282380 L 419.297735 68.268860 L 419.647269 72.253559 L 419.982840 76.239255 L 420.202575 80.233214 L 420.422311 84.227174 L 420.494642 88.225186 L 420.494642 92.225186 L 420.414326 96.223782 L 420.274492 100.221337 L 420.134659 104.218892 L 419.994824 108.216447 L 419.920007 112.215567 L 419.867415 116.215221 L 419.814823 120.214875 L 419.801722 124.214789 L 419.801722 128.214788 L 419.801722 132.214788 L 419.801722 136.214788 L 419.801722 140.214788 L 419.801722 144.214788 L 419.801722 148.214788 L 419.801722 152.214788 L 419.801722 156.214788 L 419.801722 160.214788 L 419.801722 164.214788 L 419.801722 168.214788 L 419.801722 172.214788 L 419.801722 176.214788 L 419.801722 180.214788 L 419.818253 184.214704 L 419.859325 188.214493 L 419.900397 192.214281 L 419.941469 196.214072 L 419.982541 200.213861 L 420.023614 204.213650 L 420.064686 208.213438 L 420.105758 212.213228 L 420.146830 216.213017 L 420.187902 220.212806 L 420.209594 224.212685 L 420.205955 228.212683 L 420.202315 232.212682 L 420.198675 236.212681 L 420.195035 240.212679 L 420.191395 244.212678 L 420.187756 248.212676 L 420.184116 252.212673 L 420.180476 256.212672 L 420.114500 260.211992 L 420.031133 264.211123 L 419.947766 268.210254 L 419.864398 272.209386 L 419.781031 276.208517 L 419.697664 280.207649 L 419.614297 284.206779 L 419.530929 288.205910 L 419.447563 292.205041 L 419.356713 296.203996 L 419.251138 300.202602 L 419.145564 304.201210 L 419.039989 308.199815 L 418.934415 312.198422 L 418.828839 316.197028 L 418.723264 320.195635 L 418.598389 324.193671 L 418.467866 328.191541 L 418.337342 332.189411 L 418.206818 336.187281 L 418.076295 340.185151 L 417.945771 344.183021 L 417.815247 348.180891 L 417.684724 352.178761 L 417.554200 356.176630 L 417.423676 360.174500 L 417.293153 364.172370 L 417.162629 368.170240 L 417.032106 372.168110 L 416.896231 376.165791 L 416.745168 380.162938 L 416.594104 384.160084 L 416.443041 388.157231 L 416.291977 392.154377 L 416.140914 396.151524 L 415.989850 400.148670 L 415.838787 404.145817 L 415.687724 408.142963 L 415.536660 412.140110 L 415.385597 416.137256 L 415.214927 420.133604 L 415.040403 424.129796 L 414.865881 428.125986 L 414.691356 432.122176 L 414.516833 436.118367 L 414.342310 440.114558 L 414.167786 444.110749 L 413.993263 448.106940 L 413.818739 452.103131 L 413.644216 456.099322 L 413.469692 460.095513 L 413.295169 464.091704 L 413.120645 468.087895 L 412.946123 472.084085 L 412.771598 476.080276 L 412.597075 480.076467 L 412.422551 484.072658 L 412.248028 488.068849 L 412.073505 492.065040 L 411.898981 496.061231 L 411.724458 500.057421 L 411.549934 504.053612 L 411.375411 508.049803 L 411.203302 511.990702" fill="none" id="6" stroke="black" stroke-width="0.674325" /><path d="M 17.124563 248.746602 L 20.993101 249.525193 L 24.597198 251.259344 L 28.198312 253.000602 L 31.799426 254.741860 L 35.400540 256.483117 L 38.972552 258.282536 L 42.525160 260.120734 L 46.074227 261.965503 L 49.563077 263.922014 L 53.051925 265.878524 L 56.537152 267.841334 L 59.983615 269.871579 L 63.430079 271.901824 L 66.842440 273.988432 L 70.240204 276.099166 L 73.637968 278.209902 L 76.988028 280.395457 L 80.335429 282.585186 L 83.682828 284.774915 L 87.030229 286.964644 L 90.403865 289.112456 L 93.836316 291.166300 L 97.295969 293.173559 L 100.771647 295.153374 L 104.247324 297.133188 L 107.720779 299.116806 L 111.151863 301.172934 L 114.574922 303.242129 L 117.960723 305.372002 L 121.346524 307.501874 L 124.732324 309.631746 L 128.118123 311.761619 L 131.503925 313.891491 L 134.889724 316.021363 L 138.275525 318.151236 L 141.665627 320.274170 L 145.078569 322.360276 L 148.492717 324.444383 L 151.924639 326.499115 L 155.356559 328.553846 L 158.843036 330.514337 L 162.333912 332.467226 L 165.824791 334.420114 L 169.315668 336.373003 L 172.806545 338.325892 L 176.297423 340.278780 L 179.779348 342.247410 L 183.242334 344.249340 L 186.705320 346.251271 L 190.168306 348.253202 L 193.631293 350.255133 L 197.057400 352.319295 L 200.476332 354.395569 L 203.878811 356.498513 L 207.268451 358.622268 L 210.658091 360.746024 L 214.047731 362.869781 L 217.437371 364.993538 L 220.827011 367.117294 L 224.216651 369.241050 L 227.627686 371.330163 L 231.044480 373.409950 L 234.461275 375.489737 L 237.878070 377.569524 L 241.304602 379.633056 L 244.750414 381.664406 L 248.196225 383.695756 L 251.642037 385.727106 L 255.087310 387.759357 L 258.507875 389.832935 L 261.928442 391.906513 L 265.349008 393.980091 L 268.769575 396.053668 L 272.146327 398.197446 L 275.511776 400.359332 L 278.832411 402.588831 L 282.134560 404.846222 L 285.436709 407.103612 L 288.738858 409.361003 L 289.659992 409.990702" fill="none" id="7" stroke="black" stroke-width="0.674325" /><path d="M 0.337162 48.384403 L 1.392435 47.315435 L 5.055527 48.922222 L 8.718618 50.529010 L 12.381709 52.135797 L 15.987073 53.867686 L 19.574302 55.636541 L 23.104714 57.516726 L 26.605049 59.452613 L 30.105384 61.388498 L 33.605718 63.324385 L 37.106054 65.260271 L 40.596405 67.213710 L 44.049627 69.232438 L 47.502848 71.251165 L 50.949641 73.280687 L 54.369541 75.355362 L 57.789442 77.430040 L 61.209342 79.504717 L 64.665498 81.518227 L 68.127155 83.522455 L 71.588813 85.526682 L 75.052720 87.526882 L 78.574002 89.424401 L 82.095283 91.321920 L 85.616565 93.219438 L 89.137846 95.116957 L 92.659126 97.014476 L 96.180408 98.911994 L 99.701690 100.809513 L 103.222971 102.707031 L 106.736804 104.618107 L 110.226568 106.572983 L 113.716335 108.527858 L 117.206100 110.482734 L 120.695864 112.437609 L 124.185630 114.392485 L 127.675396 116.347360 L 131.165161 118.302236 L 134.683942 120.204349 L 138.203869 122.104377 L 141.732822 123.987431 L 145.276745 125.842317 L 148.820669 127.697203 L 152.364593 129.552089 L 155.908517 131.406976 L 159.452440 133.261863 L 163.012069 135.086417 L 166.572291 136.909828 L 170.132511 138.733238 L 173.692733 140.556647 L 177.252954 142.380059 L 180.813175 144.203469 L 184.373397 146.026880 L 187.933617 147.850290 L 191.493839 149.673699 L 195.054059 151.497111 L 198.614281 153.320521 L 202.174501 155.143931 L 205.734723 156.967342 L 209.294945 158.790751 L 212.855165 160.614161 L 216.415387 162.437573 L 219.975607 164.260983 L 223.535829 166.084394 L 227.096049 167.907803 L 230.644342 169.753946 L 234.167757 171.647502 L 237.691171 173.541057 L 241.214585 175.434613 L 244.738000 177.328169 L 248.261414 179.221723 L 251.784828 181.115280 L 255.308242 183.008836 L 258.831655 184.902390 L 262.321541 186.856921 L 265.807843 188.817965 L 268.620622 190.400153" fill="none" id="8" stroke="black" stroke-width="0.674325" /><path d="M 67.612752 63.360782 L 67.830461 67.346660 L 68.347265 71.313134 L 68.770646 75.289901 L 69.071179 79.277842 L 69.269806 83.272907 L 69.346626 87.271038 L 69.349190 91.271037 L 69.351754 95.271036 L 69.354318 99.271034 L 69.356882 103.271034 L 69.359446 107.271034 L 69.362009 111.271033 L 69.364574 115.271032 L 69.367137 119.271031 L 69.369702 123.271030 L 69.372266 127.271030 L 69.374830 131.271028 L 69.377394 135.271028 L 69.379958 139.271027 L 69.382522 143.271026 L 69.385086 147.271025 L 69.387650 151.271025 L 69.390214 155.271024 L 69.392778 159.271023 L 69.395342 163.271022 L 69.397906 167.271020 L 69.400469 171.271019 L 69.403034 175.271019 L 69.405597 179.271018 L 69.405940 183.271007 L 69.367629 187.270825 L 69.329317 191.270641 L 69.291004 195.270457 L 69.252692 199.270274 L 69.214380 203.270091 L 69.176067 207.269907 L 69.137754 211.269723 L 69.099443 215.269540 L 69.093063 219.269509 L 69.093063 223.269509 L 69.093063 227.269509 L 69.093063 231.269509 L 69.119293 235.269280 L 69.189273 239.268667 L 69.269711 243.267763 L 69.423701 247.264798 L 69.577690 251.261832 L 69.731679 255.258867 L 69.885670 259.255901 L 70.039659 263.252936 L 70.193649 267.249971 L 70.347639 271.247006 L 70.501629 275.244040 L 70.655619 279.241075 L 70.809607 283.238111 L 70.963598 287.235145 L 71.117587 291.232179 L 71.271578 295.229214 L 71.425567 299.226249 L 71.579557 303.223284 L 71.733547 307.220319 L 71.887537 311.217354 L 72.041526 315.214388 L 72.188431 319.211676 L 72.319370 323.209532 L 72.450309 327.207388 L 72.581248 331.205244 L 72.712187 335.203102 L 72.843125 339.200957 L 72.974065 343.198813 L 73.105004 347.196670 L 73.235943 351.194526 L 73.366882 355.192382 L 73.497821 359.190239 L 73.628760 363.188095 L 73.759698 367.185951 L 73.890638 371.183808 L 74.021577 375.181664 L 74.169668 379.178865 L 74.344153 383.175057 L 74.518638 387.171250 L 74.693122 391.167442 L 74.867607 395.163635 L 75.042092 399.159829 L 75.216577 403.156020 L 75.391062 407.152213 L 75.565545 411.148405 L 75.740031 415.144598 L 75.914516 419.140790 L 76.089001 423.136983 L 76.263486 427.133176 L 76.437971 431.129368 L 76.612454 435.125562 L 76.786940 439.121753 L 76.961425 443.117946 L 77.135910 447.114138 L 77.310395 451.110331 L 77.484879 455.106524 L 77.696072 459.100925 L 77.911393 463.095126 L 78.126714 467.089326 L 78.342033 471.083528 L 78.557354 475.077727 L 78.772675 479.071927 L 79.002688 483.065250 L 79.264422 487.056678 L 79.526156 491.048106 L 79.787890 495.039534 L 80.049624 499.030961 L 80.311357 503.022389 L 80.573092 507.013817 L 80.834826 511.005245 L 81.155582 514.992205 L 81.497580 518.977558 L 81.839578 522.962912 L 82.181576 526.948263 L 82.523574 530.933616 L 82.865572 534.918970 L 83.207570 538.904322 L 83.423772 541.423772" fill="none" id="9" stroke="black" stroke-width="0.674325" /><path d="M 32.463142 90.077313 L 28.494734 89.796951 L 26.410243 87.317380 L 30.301251 86.475739 L 34.265802 85.944389 L 38.230353 85.413040 L 42.194904 84.881691 L 46.156960 84.333155 L 50.107222 83.705099 L 54.040726 82.978774 L 57.974229 82.252448 L 61.900081 81.487077 L 65.816780 80.674996 L 69.733478 79.862915 L 73.650177 79.050836 L 77.566875 78.238756 L 81.483573 77.426675 L 85.400272 76.614595 L 89.309880 75.770074 L 93.208251 74.874138 L 97.106622 73.978202 L 101.004994 73.082266 L 104.903365 72.186329 L 108.801736 71.290394 L 112.700108 70.394458 L 116.582151 69.430280 L 120.463861 68.464708 L 124.345571 67.499137 L 128.227280 66.533565 L 132.108990 65.567994 L 135.990700 64.602422 L 139.872410 63.636851 L 143.754120 62.671278 L 147.635829 61.705707 L 151.517539 60.740136 L 155.399249 59.774563 L 159.280958 58.808992 L 163.162668 57.843421 L 167.044378 56.877849 L 170.926088 55.912277 L 174.807799 54.946706 L 178.689509 53.981134 L 182.571219 53.015563 L 186.452929 52.049991 L 190.334639 51.084421 L 194.216348 50.118848 L 198.098058 49.153278 L 201.979768 48.187705 L 205.861478 47.222134 L 209.743188 46.256563 L 213.624898 45.290990 L 217.506608 44.325419 L 221.388317 43.359848 L 225.270027 42.394276 L 229.139915 41.382652 L 233.006737 40.359085 L 236.873558 39.335516 L 240.725615 38.257903 L 244.575777 37.173350 L 248.425939 36.088797 L 252.276101 35.004244 L 256.126261 33.919691 L 259.976423 32.835139 L 263.826585 31.750587 L 267.676747 30.666035 L 271.528043 29.585556 L 275.384723 28.524414 L 279.241402 27.463273 L 283.098082 26.402131 L 286.954762 25.340989 L 290.811442 24.279848 L 294.668121 23.218706 L 298.524801 22.157564 L 302.381480 21.096422 L 306.244417 20.058441 L 310.110752 19.033035 L 313.977087 18.007630 L 317.843421 16.982223 L 321.709756 15.956819 L 325.576091 14.931413 L 329.442425 13.906007 L 333.308760 12.880603 L 337.175095 11.855196 L 341.041429 10.829792 L 342.037942 10.565502" fill="none" id="10" stroke="black" stroke-width="0.674325" /><path d="M 237.408023 31.211172 L 234.791517 31.540131 L 238.333583 33.379797 L 242.003713 34.970439 L 245.673844 36.561080 L 249.343975 38.151722 L 253.026716 39.711613 L 256.756847 41.155955 L 260.506282 42.547691 L 264.285308 43.858781 L 268.064334 45.169872 L 271.843360 46.480964 L 275.622388 47.792054 L 279.401413 49.103145 L 283.180440 50.414237 L 286.959466 51.725327 L 290.738494 53.036418 L 294.517519 54.347508 L 298.296545 55.658600 L 302.075572 56.969690 L 305.854598 58.280781 L 309.633625 59.591873 L 313.412651 60.902963 L 317.191678 62.214054 L 320.970704 63.525146 L 324.749730 64.836236 L 328.529299 66.145698 L 332.339581 67.362972 L 336.149862 68.580246 L 339.960144 69.797520 L 343.770425 71.014794 L 347.580706 72.232067 L 351.390988 73.449342 L 355.201269 74.666616 L 359.011550 75.883890 L 362.817129 77.115658 L 366.616231 78.367386 L 370.415333 79.619115 L 374.214435 80.870843 L 378.011073 82.129849 L 381.789285 83.443285 L 385.567498 84.756721 L 389.345709 86.070157 L 393.123922 87.383592 L 396.902134 88.697028 L 400.680346 90.010464 L 404.458558 91.323900 L 408.236770 92.637336 L 412.014982 93.950772 L 415.793194 95.264208 L 419.558471 96.614065 L 423.318784 97.977900 L 427.079097 99.341735 L 430.839410 100.705571 L 434.543534 102.214419 L 438.236277 103.751465 L 441.892084 105.374756 L 445.534705 107.026932 L 449.156074 108.725664 L 452.777442 110.424397 L 456.398810 112.123129 L 460.020178 113.821862 L 463.655092 115.491134 L 467.302028 117.134259 L 470.948963 118.777383 L 474.595899 120.420509 L 478.242835 122.063634 L 481.889770 123.706759 L 485.536706 125.349884 L 487.518262 126.242673" fill="none" id="11" stroke="black" stroke-width="0.674325" /><path d="M 244.904093 0.337162 L 245.069733 4.111719 L 245.996273 7.999906 L 246.834674 11.911055 L 247.524395 15.850672 L 247.888236 19.833006 L 248.058294 23.828466 L 248.183953 27.826492 L 248.309611 31.824518 L 248.435270 35.822542 L 248.560929 39.820569 L 248.686588 43.818594 L 248.812247 47.816619 L 248.937905 51.814645 L 249.063565 55.812672 L 249.189222 59.810697 L 249.314882 63.808722 L 249.401228 67.807605 L 249.449707 71.807310 L 249.498187 75.807018 L 249.546667 79.806724 L 249.565503 83.806610 L 249.565503 87.806610 L 249.565503 91.806610 L 249.565503 95.806610 L 249.565503 99.806610 L 249.565503 103.806610 L 249.527455 107.806359 L 249.474876 111.806014 L 249.422300 115.805667 L 249.369722 119.805323 L 249.317145 123.804977 L 249.264567 127.804631 L 249.211991 131.804285 L 249.159413 135.803941 L 249.106836 139.803595 L 249.054258 143.803249 L 249.001680 147.802904 L 248.949104 151.802558 L 248.896525 155.802212 L 248.843949 159.801867 L 248.791370 163.801522 L 248.738794 167.801175 L 248.686217 171.800831 L 248.633639 175.800485 L 248.581062 179.800139 L 248.528485 183.799793 L 248.475907 187.799448 L 248.423329 191.799103 L 248.370752 195.798756 L 248.318174 199.798412 L 248.265598 203.798066 L 248.213020 207.797720 L 248.160443 211.797375 L 248.107866 215.797029 L 248.055287 219.796684 L 247.993697 223.796191 L 247.916809 227.795453 L 247.839921 231.794714 L 247.763033 235.793975 L 247.686144 239.793236 L 247.609256 243.792496 L 247.532366 247.791758 L 247.455478 251.791019 L 247.378590 255.790279 L 247.301702 259.789540 L 247.224813 263.788801 L 247.147925 267.788062 L 247.071036 271.787323 L 246.994147 275.786585 L 246.917260 279.785845 L 246.840371 283.785106 L 246.763483 287.784367 L 246.686594 291.783628 L 246.609706 295.782889 L 246.532816 299.782151 L 246.455928 303.781410 L 246.379041 307.780671 L 246.313137 311.780083 L 246.280099 315.779947 L 246.247062 319.779810 L 246.214023 323.779674 L 246.180987 327.779539 L 246.147949 331.779401 L 246.114911 335.779265 L 246.081874 339.779128 L 246.048835 343.778992 L 246.015799 347.778855 L 245.982761 351.778719 L 245.949723 355.778583 L 245.916685 359.778446 L 245.883647 363.778310 L 245.826484 367.777894 L 245.766748 371.777447 L 245.707010 375.777001 L 245.647274 379.776555 L 245.587536 383.776109 L 245.527799 387.775663 L 245.468062 391.775217 L 245.408324 395.774771 L 245.348588 399.774325 L 245.288850 403.773879 L 245.229114 407.773432 L 245.169376 411.772987 L 245.109639 415.772540 L 245.055419 419.772157 L 245.023929 423.772033 L 244.992436 427.771909 L 244.960945 431.771785 L 244.929452 435.771661 L 244.897961 439.771537 L 244.866468 443.771413 L 244.834977 447.771289 L 244.803485 451.771165 L 244.771994 455.771041 L 244.740501 459.770917 L 244.709010 463.770793 L 244.677517 467.770670 L 244.646026 471.770546 L 244.614535 475.770422 L 244.583043 479.770298 L 244.551551 483.770174 L 244.526757 487.770073 L 244.529989 491.770072 L 244.533223 495.770071 L 244.536458 499.770069 L 244.539692 503.770068 L 244.542924 507.770067 L 244.546159 511.770065 L 244.549393 515.770064 L 244.552626 519.770063 L 244.555859 523.770062 L 244.559094 527.770060 L 244.562327 531.770060 L 244.565561 535.770059 L 244.568794 539.770057 L 244.572029 543.770056 L 244.575262 547.770055 L 244.578496 551.770053 L 244.581729 555.770052 L 244.584963 559.770051 L 244.588197 563.770050 L 244.589133 564.927712" fill="none" id="12" stroke="black" stroke-width="0.674325" /><path d="M 33.439522 495.266292 L 37.265705 494.099961 L 41.091887 492.933631 L 44.918070 491.767300 L 48.744252 490.600969 L 52.454401 489.110037 L 56.152910 487.586545 L 59.851419 486.063052 L 63.549929 484.539560 L 67.248439 483.016067 L 70.946948 481.492575 L 71.142665 481.526226 L 67.533727 483.251210 L 63.924789 484.976195 L 60.315852 486.701179 L 62.686935 485.864156 L 66.421128 484.430680 L 70.124637 482.919383 L 73.828146 481.408085 L 77.531655 479.896787 L 81.235163 478.385491 L 84.938673 476.874192 L 88.642182 475.362894 L 92.345692 473.851597 L 96.049201 472.340299 L 99.752710 470.829002 L 103.456219 469.317704 L 107.159728 467.806406 L 108.892764 467.129167 L 105.229688 468.735986 L 101.566611 470.342806 L 102.236615 470.141809 L 105.955510 468.668777 L 109.674404 467.195744 L 113.346037 465.609240 L 117.011030 464.006798 L 120.676023 462.404354 L 124.341017 460.801912 L 128.006010 459.199469 L 131.671004 457.597026 L 135.335996 455.994583 L 139.000991 454.392140 L 142.665984 452.789697 L 139.499424 454.393064 L 135.924737 456.187950 L 132.350051 457.982835 L 134.678584 457.090164 L 138.379557 455.572663 L 142.080529 454.055163 L 145.797640 452.577894 L 149.521229 451.116767 L 153.244818 449.655642 L 156.972201 448.204275 L 160.704580 446.765753 L 164.436960 445.327232 L 168.169340 443.888711 L 171.901719 442.450190 L 175.634098 441.011669 L 179.366478 439.573149 L 183.098858 438.134626 L 186.831237 436.696105 L 190.563616 435.257584 L 194.295996 433.819063 L 198.028376 432.380542 L 201.760756 430.942020 L 205.493134 429.503499 L 209.225515 428.064978 L 212.957894 426.626457 L 216.690274 425.187936 L 220.422652 423.749415 L 224.155033 422.310893 L 227.887412 420.872372 L 231.619791 419.433852 L 235.352170 417.995330 L 239.084551 416.556809 L 242.816930 415.118288 L 246.534746 413.642727 L 250.247341 412.153890 L 253.959936 410.665054 L 257.672532 409.176217 L 261.385127 407.687381 L 265.097723 406.198545 L 268.810318 404.709708 L 272.522914 403.220872 L 276.235509 401.732035 L 279.950682 400.249706 L 283.676120 398.793302 L 287.401558 397.336899 L 291.126996 395.880496 L 294.852434 394.424093 L 298.577873 392.967691 L 301.439522 391.848973" fill="none" id="13" stroke="black" stroke-width="0.674325" /><path d="M 246.573383 13.305663 L 246.717429 17.303069 L 246.977575 21.293832 L 247.239364 25.284721 L 247.417630 29.280747 L 247.455273 33.279906 L 247.455273 37.279906 L 247.455273 41.279906 L 247.455273 45.279906 L 247.389063 49.278813 L 247.257024 53.276633 L 247.124986 57.274454 L 246.992947 61.272274 L 246.860907 65.270094 L 246.728868 69.267915 L 246.600068 73.265820 L 246.521218 77.265043 L 246.442366 81.264266 L 246.363515 85.263489 L 246.350851 89.263383 L 246.348479 93.263383 L 246.346109 97.263382 L 246.343738 101.263381 L 246.341366 105.263381 L 246.338996 109.263379 L 246.336624 113.263379 L 246.334254 117.263378 L 246.331883 121.263378 L 246.329511 125.263377 L 246.327141 129.263375 L 246.324770 133.263375 L 246.322400 137.263374 L 246.348728 141.263215 L 246.395509 145.262941 L 246.442289 149.262667 L 246.489069 153.262394 L 246.535850 157.262121 L 246.582629 161.261847 L 246.629410 165.261573 L 246.676189 169.261300 L 246.722971 173.261026 L 246.769751 177.260752 L 246.816530 181.260479 L 246.863312 185.260206 L 246.910091 189.259931 L 246.956872 193.259659 L 247.003652 197.259385 L 247.050432 201.259112 L 247.097213 205.258837 L 247.143992 209.258564 L 247.190773 213.258291 L 247.237554 217.258016 L 247.284334 221.257744 L 247.331114 225.257470 L 247.377893 229.257196 L 247.424675 233.256923 L 247.471454 237.256650 L 247.554198 241.255715 L 247.654433 245.254458 L 247.754669 249.253203 L 247.854904 253.251947 L 247.955140 257.250690 L 248.055374 261.249434 L 248.155610 265.248177 L 248.255847 269.246921 L 248.356082 273.245665 L 248.456318 277.244409 L 248.556553 281.243153 L 248.656789 285.241897 L 248.757024 289.240641 L 248.857259 293.239385 L 248.957494 297.238129 L 249.080736 301.236223 L 249.206409 305.234248 L 249.332083 309.232273 L 249.457757 313.230300 L 249.583430 317.228324 L 249.709103 321.226349 L 249.854108 325.223714 L 250.001514 329.220997 L 250.148918 333.218280 L 250.296322 337.215563 L 250.443726 341.212846 L 250.591130 345.210129 L 250.738536 349.207413 L 250.885940 353.204696 L 251.033344 357.201979 L 251.180748 361.199262 L 251.328154 365.196545 L 251.475558 369.193828 L 251.622962 373.191111 L 251.770366 377.188394 L 251.917771 381.185677 L 252.048609 385.183534 L 252.178251 389.181433 L 252.307892 393.179331 L 252.437532 397.177230 L 252.567172 401.175129 L 252.696814 405.173027 L 252.826454 409.170926 L 252.956095 413.168824 L 253.085735 417.166723 L 253.215377 421.164622 L 253.345017 425.162520 L 253.474658 429.160419 L 253.604298 433.158317 L 253.733938 437.156216 L 253.863580 441.154115 L 253.993221 445.152013 L 254.122861 449.149912 L 254.252501 453.147811 L 254.382143 457.145709 L 254.511784 461.143608 L 254.630461 465.141808 L 254.721218 469.140779 L 254.811976 473.139749 L 254.868800 477.139206 L 254.892450 481.139135 L 254.916100 485.139065 L 254.919833 485.770232" fill="none" id="14" stroke="black" stroke-width="0.674325" /><path d="M 247.077313 403.967083 L 248.460739 405.035338 L 251.867454 407.129351 L 255.312692 409.160637 L 258.825842 411.073168 L 262.338992 412.985700 L 265.866625 414.870807 L 269.427143 416.693636 L 273.011024 418.467894 L 276.657701 420.111592 L 280.304378 421.755292 L 283.951054 423.398991 L 287.597731 425.042691 L 291.244023 426.687221 L 294.856560 428.404656 L 298.469095 430.122091 L 302.081631 431.839526 L 305.694168 433.556961 L 309.306704 435.274397 L 312.919241 436.991832 L 316.543207 438.684888 L 320.173908 440.363580 L 323.804608 442.042273 L 327.435309 443.720967 L 331.066011 445.399660 L 334.696711 447.078354 L 338.327412 448.757047 L 341.958113 450.435740 L 345.588813 452.114434 L 349.219515 453.793127 L 352.850215 455.471821 L 356.480916 457.150514 L 360.111617 458.829207 L 363.742317 460.507902 L 367.362698 462.208634 L 370.976965 463.922424 L 374.591232 465.636213 L 378.205499 467.350003 L 381.804144 469.095834 L 385.380329 470.887731 L 388.948018 472.696300 L 392.499250 474.537155 L 396.050483 476.378010 L 399.601716 478.218865 L 403.152948 480.059720 L 406.704182 481.900576 L 410.255414 483.741430 L 413.806646 485.582285 L 417.357589 487.423691 L 420.885596 489.308676 L 424.413602 491.193661 L 427.941609 493.078646 L 431.469616 494.963631 L 434.914294 496.996737 L 438.355174 499.036324 L 441.732930 501.178931 L 444.589132 502.990702" fill="none" id="15" stroke="black" stroke-width="0.674325" /><path d="M 329.345033 114.904083 L 330.307800 118.715566 L 330.830250 122.681300 L 331.352699 126.647034 L 331.875148 130.612768 L 332.397597 134.578502 L 332.920046 138.544236 L 333.281663 142.527276 L 333.614831 146.513376 L 333.771836 150.509682 L 333.901218 154.507589 L 333.975369 158.506397 L 333.976339 162.506396 L 333.977308 166.506396 L 333.978278 170.506396 L 333.979248 174.506396 L 333.980217 178.506396 L 333.981187 182.506396 L 333.982157 186.506396 L 333.983126 190.506396 L 333.984096 194.506396 L 333.985065 198.506395 L 333.986035 202.506395 L 333.987005 206.506395 L 333.987974 210.506395 L 333.988945 214.506395 L 333.989914 218.506395 L 333.990883 222.506395 L 333.991853 226.506395 L 333.992823 230.506394 L 333.993792 234.506394 L 333.994762 238.506394 L 333.995732 242.506394 L 333.996701 246.506394 L 333.997671 250.506394 L 333.998640 254.506394 L 333.999610 258.506394 L 334.000580 262.506394 L 334.001549 266.506394 L 334.002519 270.506394 L 334.003490 274.506394 L 334.004458 278.506394 L 334.005428 282.506394 L 334.006398 286.506394 L 333.944017 290.505877 L 333.877870 294.505330 L 333.811723 298.504783 L 333.745576 302.504236 L 333.679429 306.503689 L 333.613281 310.503142 L 333.547134 314.502595 L 333.480987 318.502049 L 333.414840 322.501501 L 333.348693 326.500954 L 333.282546 330.500407 L 333.216399 334.499860 L 333.150252 338.499313 L 333.084105 342.498766 L 333.017958 346.498220 L 332.951810 350.497672 L 332.913123 354.497455 L 332.883361 358.497344 L 332.853600 362.497233 L 332.823839 366.497122 L 332.794078 370.497011 L 332.764318 374.496901 L 332.734556 378.496790 L 332.704795 382.496679 L 332.675034 386.496569 L 332.645273 390.496458 L 332.620622 394.496366 L 332.620622 398.496366 L 332.620622 402.496366 L 332.620622 406.496366 L 332.620622 410.496366 L 332.620622 414.496366 L 332.620622 418.496366 L 332.620622 422.496366 L 332.620622 426.496366 L 332.620622 430.496366 L 332.620622 434.496366 L 332.620622 438.496366 L 332.620622 442.496366 L 332.620622 446.496366 L 332.620622 450.496366 L 332.620622 454.496366 L 332.620622 458.496366 L 332.620622 462.496366 L 332.620622 466.496366 L 332.620622 470.496366 L 332.620622 474.496366 L 332.620622 478.496366 L 332.620622 482.496366 L 332.620622 486.496366 L 332.620622 490.496366 L 332.620622 494.496366 L 332.620622 498.496366 L 332.620622 502.496366 L 332.620622 506.496366 L 332.620622 510.496366 L 332.620622 514.496367 L 332.620622 518.496367 L 332.620622 522.496367 L 332.620622 526.496367 L 332.620622 530.496367 L 332.620622 534.496367 L 332.620622 538.496367 L 332.620622 542.496367 L 332.620622 546.496367 L 332.620622 550.496367 L 332.620622 554.496367 L 332.620622 558.496367 L 332.620622 562.496367 L 332.620622 566.496367 L 332.620622 570.496367 L 332.620622 574.496367 L 332.620622 578.496367 L 332.620622 582.496367 L 332.620622 586.496367 L 332.620622 590.496367 L 332.620622 592.352903" fill="none" id="16" stroke="black" stroke-width="0.674325" /><path d="M 144.148183 55.565503 L 142.091743 52.134605 L 139.537903 49.126223 L 137.559333 47.333132 L 141.205679 48.977565 L 144.852024 50.621997 L 148.521098 52.213817 L 152.217930 53.741375 L 155.914761 55.268935 L 159.611593 56.796493 L 163.308425 58.324053 L 167.005257 59.851611 L 170.702088 61.379171 L 174.362271 62.991313 L 178.004969 64.643813 L 181.647667 66.296312 L 185.290365 67.948812 L 188.933062 69.601311 L 192.575760 71.253811 L 196.254086 72.825375 L 199.940429 74.377806 L 203.643000 75.891400 L 207.345572 77.404995 L 211.048143 78.918588 L 214.750714 80.432184 L 218.453284 81.945778 L 222.155856 83.459372 L 225.858427 84.972966 L 229.560998 86.486561 L 233.263568 88.000156 L 236.982563 89.472265 L 240.717873 90.903158 L 244.453184 92.334051 L 248.188495 93.764944 L 251.928044 95.184505 L 255.685335 96.556646 L 259.442624 97.928787 L 263.199915 99.300928 L 266.957205 100.673068 L 270.714495 102.045209 L 274.471785 103.417351 L 278.229075 104.789492 L 281.986365 106.161633 L 285.743655 107.533774 L 289.500946 108.905915 L 293.258235 110.278056 L 297.009000 111.667683 L 300.746601 113.092582 L 304.484202 114.517481 L 308.221803 115.942380 L 311.959406 117.367280 L 315.697006 118.792179 L 319.434607 120.217078 L 323.172208 121.641976 L 326.909809 123.066876 L 330.647410 124.491776 L 334.394354 125.891816 L 338.145309 127.281181 L 341.896264 128.670546 L 345.647219 130.059911 L 349.398174 131.449275 L 353.136386 132.872524 L 356.873259 134.299330 L 360.610133 135.726136 L 364.347007 137.152942 L 367.077313 138.195423" fill="none" id="17" stroke="black" stroke-width="0.674325" /><path d="M 210.604872 257.959203 L 214.347867 256.548530 L 218.117244 255.215121 L 221.941298 254.041831 L 225.765353 252.868540 L 229.569471 251.632612 L 233.368251 250.379903 L 237.167029 249.127193 L 240.965807 247.874483 L 244.746714 246.569863 L 248.511588 245.218667 L 252.276461 243.867469 L 256.041333 242.516273 L 259.806205 241.165076 L 263.571078 239.813879 L 267.335951 238.462682 L 271.100824 237.111486 L 274.858089 235.739610 L 278.600932 234.328539 L 282.343775 232.917468 L 286.086619 231.506395 L 289.829462 230.095324 L 293.572305 228.684252 L 297.314399 227.271222 L 301.042519 225.821698 L 304.770640 224.372174 L 308.498761 222.922651 L 312.226880 221.473127 L 315.955000 220.023603 L 319.683121 218.574079 L 323.411241 217.124555 L 327.139361 215.675032 L 330.871157 214.235071 L 334.610339 212.814324 L 338.349521 211.393579 L 342.088702 209.972832 L 345.827884 208.552086 L 349.574116 207.150053 L 353.321340 205.750658 L 357.068565 204.351263 L 360.815790 202.951867 L 364.563014 201.552472 L 368.310239 200.153078 L 372.057464 198.753683 L 375.804689 197.354288 L 379.551914 195.954893 L 383.299139 194.555498 L 387.046364 193.156104 L 390.793588 191.756709 L 394.524406 190.314470 L 398.247816 188.852889 L 401.971226 187.391307 L 405.694634 185.929724 L 409.385651 184.388463 L 413.072700 182.837441 L 416.759749 181.286418 L 420.446798 179.735397 L 424.133848 178.184375 L 427.820897 176.633353 L 431.507945 175.082331 L 435.183147 173.503636 L 438.850308 171.906159 L 442.517470 170.308683 L 446.168186 168.674554 L 449.799666 166.997546 L 453.431145 165.320537 L 457.062624 163.643529 L 458.510392 162.974953" fill="none" id="18" stroke="black" stroke-width="0.674325" /><path d="M 331.990702 122.037942 L 329.478287 124.141120 L 327.566231 127.654530 L 325.604602 131.137794 L 323.345844 134.438341 L 320.934025 137.629442 L 318.422408 140.741625 L 315.873203 143.824084 L 313.323997 146.906543 L 310.774792 149.989002 L 308.225587 153.071461 L 305.663641 156.143221 L 303.068561 159.187160 L 300.473482 162.231099 L 297.878403 165.275036 L 295.280013 168.316123 L 292.652690 171.332276 L 290.025367 174.348428 L 287.398045 177.364580 L 284.770722 180.380732 L 282.141661 183.395325 L 279.426559 186.332708 L 276.711458 189.270093 L 273.996356 192.207477 L 271.281255 195.144860 L 268.566153 198.082244 L 265.851052 201.019628 L 263.135950 203.957011 L 260.459461 206.929474 L 257.795299 209.913137 L 255.131137 212.896800 L 252.466976 215.880461 L 249.802814 218.864124 L 247.138652 221.847787 L 244.474490 224.831448 L 241.810327 227.815111 L 239.106132 230.762480 L 236.397302 233.705649 L 233.688474 236.648819 L 230.979645 239.591988 L 228.305782 242.566933 L 225.634496 245.544218 L 222.963208 248.521502 L 220.303862 251.509160 L 217.729614 254.570737 L 215.155369 257.632313 L 212.581121 260.693890 L 210.006876 263.755467 L 207.432628 266.817044 L 206.478893 267.951332" fill="none" id="19" stroke="black" stroke-width="0.674325" /><path d="M 327.738732 126.667862 L 329.735535 125.210886 L 333.602868 126.092574 L 337.254211 127.714384 L 340.733255 129.686383 L 344.161915 131.744064 L 347.514094 133.926471 L 350.779335 136.236769 L 354.041940 138.550944 L 357.342399 140.809726 L 360.726129 142.941290 L 364.155488 145.000293 L 367.584848 147.059294 L 371.010288 149.124644 L 374.386263 151.270055 L 377.712124 153.492031 L 381.029230 155.727385 L 384.346338 157.962739 L 387.663991 160.197265 L 391.016984 162.378421 L 394.369978 164.559575 L 397.730000 166.729771 L 401.110714 168.867707 L 404.491428 171.005645 L 407.872141 173.143582 L 411.252855 175.281518 L 414.633569 177.419455 L 418.014283 179.557391 L 421.394997 181.695329 L 424.775711 183.833266 L 428.156424 185.971203 L 431.537138 188.109139 L 434.917852 190.247075 L 438.298566 192.385013 L 441.679281 194.522950 L 445.033853 196.699995 L 448.302109 199.006185 L 451.570364 201.312374 L 454.838619 203.618562 L 455.455272 204.053693" fill="none" id="20" stroke="black" stroke-width="0.674325" /><path d="M 53.534012 160.282043 L 55.689156 163.598023 L 58.686847 166.244569 L 61.802434 168.745202 L 65.107005 170.997373 L 68.482101 173.143123 L 71.922617 175.183430 L 75.432986 177.098170 L 78.980860 178.945488 L 82.528734 180.792807 L 86.076609 182.640126 L 89.624484 184.487444 L 93.172359 186.334763 L 90.995344 185.274952 L 87.410580 183.500278 L 89.552266 184.611722 L 93.111277 186.437494 L 96.670287 188.263266 L 100.229298 190.089038 L 103.788308 191.914811 L 107.347319 193.740583 L 110.900030 195.578328 L 114.420712 197.476959 L 117.941394 199.375591 L 121.462074 201.274222 L 124.982757 203.172853 L 128.489983 205.095806 L 131.969210 207.069378 L 135.448436 209.042949 L 138.927662 211.016522 L 142.406889 212.990094 L 145.886115 214.963666 L 149.365341 216.937238 L 152.844567 218.910809 L 156.323792 220.884382 L 159.803019 222.857954 L 163.311519 224.778523 L 166.834736 226.672442 L 170.380978 228.522418 L 173.943719 230.340900 L 177.556538 232.055867 L 181.193691 233.720533 L 184.830846 235.385199 L 188.467998 237.049865 L 192.138289 238.639562 L 195.817662 240.208706 L 199.497035 241.777850 L 203.176408 243.346994 L 206.855781 244.916139 L 210.535154 246.485283 L 214.214527 248.054428 L 217.893900 249.623571 L 221.549481 251.246271 L 225.180304 252.924701 L 228.811127 254.603130 L 232.441948 256.281561 L 236.072772 257.959989 L 237.093063 258.431642" fill="none" id="21" stroke="black" stroke-width="0.674325" /><path d="M 63.990702 180.738732 L 66.184544 177.415006 L 68.505416 174.157161 L 70.891505 170.947505 L 73.324061 167.772182 L 75.756616 164.596858 L 78.208331 161.436706 L 80.740864 158.340533 L 83.273397 155.244361 L 85.819763 152.159907 L 88.456905 149.152335 L 91.094047 146.144765 L 93.676338 143.090165 L 96.246201 140.024907 L 98.816063 136.959649 L 101.385927 133.894391 L 103.955789 130.829133 L 106.525652 127.763875 L 109.095514 124.698616 L 111.603822 121.583233 L 114.073496 118.436873 L 116.481830 115.243139 L 118.890163 112.049408 L 121.298498 108.855676 L 123.706832 105.661943 L 126.172772 102.513411 L 128.701948 99.414496 L 131.231122 96.315582 L 133.760298 93.216667 L 136.289473 90.117752 L 138.851833 87.046287 L 141.421515 83.980877 L 143.991197 80.915468 L 146.602868 77.885962 L 149.232020 74.871405 L 151.861173 71.856847 L 154.490326 68.842290 L 157.119479 65.827733 L 159.756034 62.819820 L 162.469683 59.881093 L 165.183331 56.942366 L 167.952274 54.056343 L 170.757497 51.204901 L 173.562720 48.353457 L 176.367942 45.502015 L 179.046459 42.533533 L 180.998572 40.282042" fill="none" id="22" stroke="black" stroke-width="0.674325" /><path d="M 211.959203 340.329282 L 215.108623 338.286421 L 218.816389 336.787486 L 222.537195 335.319293 L 226.258004 333.851100 L 229.978812 332.382908 L 233.705624 330.930250 L 237.446551 329.514105 L 241.187478 328.097961 L 244.928405 326.681817 L 248.654471 325.227219 L 252.375463 323.759494 L 256.096455 322.291769 L 259.817447 320.824044 L 263.538440 319.356319 L 267.259433 317.888594 L 270.980424 316.420869 L 274.701416 314.953144 L 278.402603 313.436479 L 282.097067 311.903204 L 285.791532 310.369929 L 289.485996 308.836654 L 293.172613 307.284778 L 296.848950 305.708531 L 300.525285 304.132283 L 304.201621 302.556037 L 307.877956 300.979789 L 311.554292 299.403542 L 315.230628 297.827294 L 318.906964 296.251047 L 322.583299 294.674801 L 326.259636 293.098552 L 329.935971 291.522305 L 333.612307 289.946058 L 337.288642 288.369811 L 340.964978 286.793564 L 344.641314 285.217316 L 348.305753 283.613967 L 351.954526 281.974925 L 355.603299 280.335884 L 359.252072 278.696843 L 362.900847 277.057803 L 366.549619 275.418762 L 370.198392 273.779721 L 373.847165 272.140680 L 377.495938 270.501639 L 381.144711 268.862599 L 384.793484 267.223558 L 388.442257 265.584518 L 392.091030 263.945476 L 395.746140 262.320713 L 399.409584 260.714731 L 403.073028 259.108749 L 406.736472 257.502768 L 410.399916 255.896785 L 414.073959 254.315386 L 417.756721 252.754216 L 421.444900 251.206163 L 425.156447 249.714713 L 428.867993 248.223264 L 432.579540 246.731815 L 436.291088 245.240364 L 440.002634 243.748916 L 443.714180 242.257465 L 447.425727 240.766017 L 451.137273 239.274568 L 454.827994 237.732425 L 458.516111 236.183944 L 462.204229 234.635464 L 464.715112 233.581253" fill="none" id="23" stroke="black" stroke-width="0.674325" /><path d="M 68.463143 245.179673 L 68.769647 248.842782 L 71.685645 251.558537 L 75.007573 253.783691 L 78.437226 255.842206 L 81.866878 257.900719 L 85.296531 259.959234 L 88.726184 262.017748 L 92.155837 264.076263 L 95.585489 266.134778 L 98.985616 268.241418 L 102.374583 270.366246 L 105.763552 272.491074 L 109.152521 274.615903 L 112.541488 276.740731 L 115.930457 278.865559 L 119.319425 280.990387 L 122.729760 283.080579 L 126.149265 285.155905 L 129.568771 287.231232 L 132.988278 289.306558 L 136.407783 291.381884 L 139.832203 293.448888 L 143.301051 295.440645 L 146.769900 297.432401 L 150.240037 299.421869 L 153.741334 301.356013 L 157.242633 303.290157 L 160.743930 305.224301 L 164.219839 307.203603 L 167.691762 309.189995 L 171.163684 311.176387 L 174.635606 313.162779 L 178.107529 315.149171 L 181.579452 317.135563 L 185.069450 319.089968 L 188.562418 321.039114 L 192.055385 322.988262 L 195.548352 324.937410 L 199.041321 326.886557 L 202.588705 328.732075 L 206.176323 330.500970 L 209.763943 332.269865 L 213.351562 334.038760 L 216.939180 335.807656 L 220.526800 337.576551 L 224.114418 339.345446 L 227.702038 341.114341 L 231.288421 342.885690 L 234.846380 344.713513 L 238.404336 346.541336 L 241.962295 348.369159 L 245.486224 350.261723 L 249.009417 352.155693 L 252.532608 354.049664 L 256.110312 355.838016 L 259.329282 357.431642" fill="none" id="24" stroke="black" stroke-width="0.674325" /><path d="M 62.951332 246.904083 L 65.739272 248.335821 L 69.187261 250.363473 L 72.634396 252.392562 L 76.065267 254.449046 L 79.496138 256.505529 L 82.927008 258.562012 L 86.357880 260.618495 L 89.788751 262.674979 L 93.219622 264.731462 L 96.649349 266.789841 L 100.068843 268.865189 L 103.488336 270.940536 L 106.907829 273.015884 L 110.327322 275.091231 L 113.746816 277.166578 L 117.166308 279.241926 L 120.585802 281.317273 L 124.005295 283.392621 L 127.424788 285.467968 L 130.844280 287.543315 L 134.304976 289.549050 L 137.769575 291.548188 L 141.234174 293.547325 L 144.698774 295.546463 L 148.163374 297.545600 L 151.646102 299.512452 L 155.156563 301.429914 L 158.667023 303.347377 L 162.177484 305.264840 L 165.687946 307.182303 L 169.198407 309.099765 L 172.708867 311.017228 L 176.219329 312.934691 L 179.729790 314.852154 L 183.240251 316.769616 L 186.750711 318.687079 L 190.261173 320.604542 L 193.787483 322.492021 L 197.349079 324.312745 L 200.933802 326.085960 L 204.563841 327.766081 L 208.207420 329.416169 L 211.870341 331.023340 L 215.533265 332.630512 L 219.196187 334.237684 L 222.859109 335.844855 L 226.522031 337.452026 L 230.123520 339.191827 L 233.703006 340.976153 L 237.235469 342.852771 L 240.706930 344.838629 L 244.103643 346.948051 L 247.434366 349.163065 L 250.686910 351.487902 L 253.747825 354.061611 L 254.447393 355.352902" fill="none" id="25" stroke="black" stroke-width="0.674325" /><path d="M 209.722983 400.329282 L 206.872964 401.394340 L 210.647367 400.076406 L 214.390573 398.666297 L 218.128164 397.241606 L 221.850548 395.777412 L 225.572931 394.313219 L 229.295313 392.849024 L 233.017696 391.384830 L 236.740080 389.920636 L 240.439367 388.399476 L 244.118327 386.830016 L 247.770606 385.198802 L 251.394991 383.506895 L 255.011319 381.797460 L 258.627647 380.088024 L 262.243975 378.378589 L 265.860303 376.669153 L 269.481415 374.970034 L 273.122511 373.314008 L 276.763606 371.657981 L 280.404702 370.001954 L 284.045797 368.345927 L 287.686892 366.689901 L 291.327989 365.033874 L 294.969083 363.377847 L 298.591976 361.682419 L 302.213251 359.983488 L 305.834527 358.284557 L 309.455803 356.585627 L 313.077077 354.886696 L 316.698352 353.187765 L 320.319628 351.488835 L 323.940903 349.789904 L 327.597060 348.167909 L 331.261277 346.563693 L 334.925495 344.959476 L 338.589712 343.355259 L 342.253930 341.751043 L 345.918147 340.146826 L 349.582364 338.542610 L 353.246582 336.938393 L 356.909890 335.332142 L 360.548998 333.671754 L 364.188108 332.011366 L 367.827216 330.350978 L 371.466324 328.690590 L 375.105434 327.030201 L 378.744541 325.369813 L 382.383650 323.709425 L 386.022758 322.049037 L 389.669202 320.405018 L 393.330576 318.794324 L 396.991951 317.183631 L 400.653326 315.572937 L 404.314701 313.962243 L 407.976076 312.351549 L 411.637450 310.740856 L 415.298825 309.130162 L 418.960200 307.519468 L 422.621575 305.908774 L 426.282950 304.298080 L 429.944324 302.687387 L 433.605699 301.076693 L 437.267074 299.465999 L 440.928449 297.855305 L 444.589824 296.244611 L 448.251199 294.633918 L 451.912573 293.023224 L 455.573948 291.412531 L 459.235323 289.801836 L 462.896698 288.191142 L 466.558073 286.580449 L 470.217989 284.966500 L 473.857532 283.307062 L 477.497074 281.647624 L 481.136617 279.988186 L 484.274162 278.557632" fill="none" id="26" stroke="black" stroke-width="0.674325" /><path d="M 55.486762 297.951332 L 57.156146 299.430723 L 60.500335 301.625350 L 63.901241 303.730717 L 67.308582 305.825957 L 70.715923 307.921197 L 74.123263 310.016437 L 77.530604 312.111677 L 80.937945 314.206916 L 84.345947 316.301063 L 87.784978 318.343870 L 91.224009 320.386677 L 94.663041 322.429485 L 98.102072 324.472292 L 101.541104 326.515100 L 104.980135 328.557908 L 108.419167 330.600715 L 111.853994 332.650530 L 115.274509 334.724190 L 118.695025 336.797852 L 122.115541 338.871513 L 125.536056 340.945176 L 128.956571 343.018837 L 132.377088 345.092498 L 135.797604 347.166160 L 139.252922 349.181203 L 142.711057 351.191502 L 146.207021 353.134469 L 149.722711 355.042329 L 153.238400 356.950190 L 156.754088 358.858050 L 160.269778 360.765910 L 163.785467 362.673770 L 167.301155 364.581630 L 170.816845 366.489490 L 174.327617 368.406150 L 177.794961 370.400524 L 181.262304 372.394898 L 184.729647 374.389273 L 188.196991 376.383646 L 191.664335 378.378019 L 195.129640 380.375870 L 198.563627 382.427146 L 201.997614 384.478422 L 205.431601 386.529698 L 208.865589 388.580975 L 212.227497 390.747966 L 215.582747 392.925649 L 218.874550 395.197991 L 222.163909 397.473977 L 225.453267 399.749965 L 228.742626 402.025953 L 232.185594 404.049771 L 235.808949 405.734854 L 239.495914 407.286076 L 243.137281 408.937680 L 245.534013 410.108812" fill="none" id="27" stroke="black" stroke-width="0.674325" /><path d="M 212.085193 564.738732 L 213.599519 561.954393 L 217.087870 560.000545 L 220.600781 558.087574 L 224.118487 556.183600 L 227.665020 554.333708 L 231.211556 552.483818 L 234.758090 550.633929 L 238.304625 548.784038 L 241.830204 546.894628 L 245.351385 544.996924 L 248.872567 543.099221 L 252.393749 541.201518 L 255.914930 539.303813 L 259.436112 537.406110 L 262.957293 535.508406 L 266.515054 533.680211 L 270.073082 531.852524 L 273.631109 530.024838 L 277.189137 528.197152 L 280.756172 526.387364 L 284.344112 524.619121 L 287.932052 522.850877 L 291.519993 521.082632 L 295.107933 519.314388 L 298.695872 517.546144 L 302.283812 515.777900 L 305.871752 514.009658 L 309.459692 512.241414 L 313.047632 510.473169 L 316.635572 508.704926 L 320.223512 506.936681 L 323.811452 505.168437 L 327.399392 503.400194 L 331.000567 501.659298 L 334.613574 499.942857 L 338.226582 498.226413 L 341.855785 496.544835 L 345.497956 494.891176 L 349.140127 493.237517 L 352.782298 491.583857 L 356.424469 489.930198 L 360.066642 488.276538 L 363.696298 486.595922 L 367.310123 484.881201 L 370.923948 483.166479 L 374.524703 481.424793 L 378.109617 479.650422 L 381.694532 477.876052 L 385.279446 476.101682 L 388.864360 474.327311 L 392.449275 472.552941 L 396.034188 470.778571 L 399.619103 469.004200 L 403.204017 467.229830 L 406.812227 465.503608 L 410.428393 463.793830 L 414.044559 462.084052 L 417.660726 460.374274 L 421.276892 458.664496 L 424.893059 456.954718 L 428.509225 455.244939 L 432.125391 453.535161 L 435.741558 451.825383 L 439.357724 450.115605 L 442.973890 448.405827 L 446.590058 446.696049 L 450.206223 444.986271 L 453.842767 443.320592 L 457.488490 441.674779 L 461.134213 440.028965 L 464.779936 438.383151 L 468.425659 436.737338 L 472.071383 435.091524 L 474.352902 434.061562" fill="none" id="28" stroke="black" stroke-width="0.674325" /><path d="M 216.368652 557.699363 L 212.586664 558.997640 L 209.545104 560.222933 L 212.983837 558.208915 L 216.603807 556.512711 L 220.318145 555.028227 L 224.032484 553.543745 L 227.746822 552.059261 L 231.461161 550.574778 L 235.163021 549.060595 L 238.823095 547.446949 L 242.483170 545.833303 L 246.124066 544.177144 L 249.756053 542.501234 L 253.388038 540.825321 L 257.020023 539.149410 L 260.651653 537.472737 L 264.263031 535.752870 L 267.874410 534.033002 L 271.485788 532.313134 L 275.097167 530.593268 L 278.708545 528.873400 L 282.319924 527.153531 L 285.931302 525.433664 L 289.542681 523.713796 L 293.154060 521.993928 L 296.765438 520.274061 L 300.376817 518.554193 L 303.967941 516.792920 L 307.542409 514.997599 L 311.116877 513.202278 L 314.691345 511.406957 L 318.265814 509.611637 L 321.840283 507.816316 L 325.414750 506.020995 L 328.989218 504.225674 L 332.580823 502.465020 L 336.177854 500.715344 L 339.775261 498.966449 L 343.392194 497.258297 L 347.009129 495.550144 L 350.626063 493.841991 L 354.242998 492.133838 L 357.859931 490.425685 L 361.450429 488.663904 L 365.008053 486.835428 L 368.565676 485.006954 L 372.123299 483.178480 L 375.680922 481.350005 L 379.230847 479.506903 L 382.752419 477.609924 L 386.273990 475.712944 L 389.795562 473.815964 L 393.317134 471.918984 L 396.857305 470.057731 L 400.430967 468.260806 L 404.004628 466.463878 L 407.578290 464.666952 L 411.151951 462.870026 L 414.739766 461.101665 L 418.334329 459.346924 L 421.928891 457.592181 L 425.523454 455.837438 L 429.118016 454.082696 L 432.712578 452.327953 L 436.307142 450.573211 L 439.901703 448.818468 L 443.496266 447.063726 L 447.090828 445.308983 L 450.699369 443.583856 L 454.338798 441.924172 L 457.994537 440.301070 L 461.661637 438.703454 L 465.328737 437.105839 L 468.995837 435.508222 L 472.662937 433.910606 L 476.243560 432.128641 L 477.565502 431.463143" fill="none" id="29" stroke="black" stroke-width="0.674325" /><path d="M 80.148183 451.659992 L 77.258621 448.903683 L 74.049436 446.521741 L 71.143841 444.108827 L 74.552864 446.191717 L 77.812885 448.509531 L 80.988059 450.940261 L 84.121462 453.426581 L 87.254866 455.912899 L 90.388270 458.399218 L 93.521674 460.885537 L 96.655077 463.371855 L 99.788481 465.858174 L 102.921885 468.344493 L 106.055289 470.830812 L 109.188692 473.317130 L 112.322096 475.803449 L 115.468945 478.272585 L 118.635784 480.716176 L 121.802622 483.159766 L 124.969459 485.603357 L 128.136299 488.046947 L 131.373477 490.396291 L 134.617049 492.737070 L 137.860621 495.077848 L 141.104192 497.418626 L 144.378885 499.715136 L 147.679349 501.974991 L 150.979812 504.234847 L 154.280275 506.494701 L 157.580737 508.754556 L 160.881200 511.014411 L 164.181663 513.274266 L 167.482125 515.534122 L 170.782589 517.793977 L 174.083051 520.053832 L 177.383513 522.313688 L 180.683976 524.573543 L 183.984440 526.833397 L 187.206921 529.202885 L 190.424500 531.579267 L 193.642078 533.955647 L 196.859657 536.332028 L 200.054338 538.738735 L 203.220782 541.182838 L 206.382650 543.632685 L 209.473556 546.171641 L 212.564461 548.710598 L 213.471023 549.455272" fill="none" id="30" stroke="black" stroke-width="0.674325" /><path d="M 276.998572 231.360782 L 277.193363 235.231571 L 277.987169 239.146321 L 278.470535 243.116301 L 278.808037 247.100634 L 278.990347 251.096147 L 279.044574 255.095779 L 279.076392 259.095556 L 279.074069 263.095556 L 279.071747 267.095555 L 279.069424 271.095554 L 279.067102 275.095554 L 279.064779 279.095553 L 279.062457 283.095552 L 279.060136 287.095552 L 279.057812 291.095551 L 279.055490 295.095551 L 279.053167 299.095551 L 279.050845 303.095550 L 279.048522 307.095548 L 279.046200 311.095548 L 278.972351 315.094741 L 278.884594 319.093779 L 278.796838 323.092816 L 278.709082 327.091853 L 278.621327 331.090891 L 278.533571 335.089928 L 278.445815 339.088965 L 278.358059 343.088002 L 278.270304 347.087040 L 278.146803 351.085107 L 278.017705 355.083024 L 277.888607 359.080940 L 277.759509 363.078856 L 277.630411 367.076773 L 277.501313 371.074688 L 277.372215 375.072604 L 277.243117 379.070521 L 277.114019 383.068437 L 276.984921 387.066353 L 276.855823 391.064269 L 276.726725 395.062185 L 276.597627 399.060101 L 276.484107 403.058453 L 276.389923 407.057344 L 276.295739 411.056235 L 276.201555 415.055126 L 276.107371 419.054017 L 276.013187 423.052909 L 275.942342 427.052189 L 275.902839 431.051994 L 275.863337 435.051799 L 275.823833 439.051604 L 275.784330 443.051408 L 275.744827 447.051213 L 275.707242 451.051028 L 275.707242 455.051028 L 275.707242 459.051028 L 275.707242 463.051028 L 275.707242 467.051028 L 275.707242 471.051028 L 275.707242 475.051028 L 275.707242 479.051028 L 275.707242 483.051028 L 275.707242 487.051028 L 275.707242 491.051028 L 275.743519 495.050862 L 275.780109 499.050695 L 275.816698 503.050527 L 275.882615 507.049895 L 275.972682 511.048881 L 276.062749 515.047867 L 276.152816 519.046853 L 276.242884 523.045839 L 276.332950 527.044826 L 276.423017 531.043811 L 276.513084 535.042797 L 276.603151 539.041782 L 276.693219 543.040769 L 276.784931 547.039711 L 276.903594 551.037951 L 277.022256 555.036190 L 277.140919 559.034430 L 277.259582 563.032669 L 277.378244 567.030910 L 277.496907 571.029149 L 277.615569 575.027389 L 277.774052 579.024223 L 277.937406 583.020886 L 278.100760 587.017549 L 278.264115 591.014212 L 278.427467 595.010875 L 278.590822 599.007539 L 278.754175 603.004202 L 278.939319 606.999895 L 279.131455 610.995278 L 279.323590 614.990660 L 279.515725 618.986043 L 279.707860 622.981426 L 279.899996 626.976809 L 280.092131 630.972193 L 280.284267 634.967575 L 280.476401 638.962958 L 280.668537 642.958340 L 280.860672 646.953724 L 281.052807 650.949106 L 281.244942 654.944490 L 281.437078 658.939872 L 281.439522 658.990702" fill="none" id="31" stroke="black" stroke-width="0.674325" /><path d="M 377.817472 189.597003 L 378.192723 193.579362 L 378.567974 197.561722 L 378.943225 201.544081 L 379.459236 205.509249 L 380.053509 209.464856 L 380.626084 213.423113 L 380.981713 217.407061 L 381.229571 221.399030 L 381.326956 225.397845 L 381.424340 229.396659 L 381.472599 233.396090 L 381.475624 237.396089 L 381.478650 241.396087 L 381.481676 245.396086 L 381.484703 249.396085 L 381.487730 253.396084 L 381.490755 257.396082 L 381.493782 261.396081 L 381.496808 265.396080 L 381.499834 269.396079 L 381.492547 273.395970 L 381.405979 277.395033 L 381.319409 281.394096 L 381.232841 285.393159 L 381.146273 289.392223 L 381.059705 293.391285 L 380.973137 297.390349 L 380.886568 301.389412 L 380.800000 305.388475 L 380.713432 309.387539 L 380.626864 313.386601 L 380.540295 317.385664 L 380.462098 321.384890 L 380.393242 325.384298 L 380.324385 329.383705 L 380.255529 333.383112 L 380.186672 337.382520 L 380.117817 341.381927 L 380.048959 345.381334 L 379.980103 349.380741 L 379.915773 353.380216 L 379.865841 357.379904 L 379.815911 361.379593 L 379.765980 365.379281 L 379.716049 369.378969 L 379.666118 373.378657 L 379.616187 377.378346 L 379.566257 381.378034 L 379.516326 385.377724 L 379.466395 389.377411 L 379.416464 393.377099 L 379.366535 397.376788 L 379.316603 401.376476 L 379.266672 405.376164 L 379.216741 409.375853 L 379.166810 413.375541 L 379.116880 417.375229 L 379.066949 421.374918 L 379.017018 425.374606 L 378.967087 429.374294 L 378.926199 433.374081 L 378.889478 437.373912 L 378.852758 441.373744 L 378.816038 445.373575 L 378.779318 449.373406 L 378.742597 453.373238 L 378.705877 457.373069 L 378.669157 461.372901 L 378.632436 465.372732 L 378.595716 469.372564 L 378.558996 473.372395 L 378.522276 477.372227 L 378.485555 481.372058 L 378.448835 485.371890 L 378.416250 489.371738 L 378.419627 493.371737 L 378.423003 497.371735 L 378.426380 501.371735 L 378.429756 505.371734 L 378.433133 509.371731 L 378.436509 513.371731 L 378.439887 517.371729 L 378.443263 521.371728 L 378.446640 525.371726 L 378.450015 529.371725 L 378.453392 533.371724 L 378.456768 537.371721 L 378.460144 541.371720 L 378.463521 545.371718 L 378.466897 549.371717 L 378.470274 553.371715 L 378.473650 557.371714 L 378.477027 561.371713 L 378.517891 565.371287 L 378.605016 569.370339 L 378.692141 573.369390 L 378.779266 577.368441 L 378.866391 581.367492 L 378.953516 585.366542 L 379.040641 589.365593 L 379.139827 593.364299 L 379.282388 597.361757 L 379.424949 601.359216 L 379.567511 605.356674 L 379.710072 609.354133 L 379.852634 613.351591 L 379.995195 617.349050 L 380.085193 619.872592" fill="none" id="32" stroke="black" stroke-width="0.674325" /><path d="M 369.628502 501.289912 L 372.895713 503.597582 L 376.161236 505.907516 L 379.309327 508.375212 L 382.457418 510.842908 L 385.605509 513.310604 L 388.753601 515.778301 L 391.937871 518.197807 L 395.209063 520.498344 L 398.599971 522.617859 L 400.746612 523.825343" fill="none" id="33" stroke="black" stroke-width="0.674325" /><path d="M 129.534013 479.581253 L 129.513654 475.581304 L 129.340385 471.588604 L 128.982280 467.604666 L 128.624174 463.620729 L 128.385898 459.628244 L 128.174971 455.633809 L 127.964044 451.639375 L 127.753117 447.644940 L 127.542190 443.650505 L 127.331263 439.656070 L 127.120336 435.661635 L 126.946534 431.665507 L 126.793013 427.668454 L 126.639490 423.671402 L 126.485968 419.674349 L 126.332446 415.677296 L 126.178924 411.680243 L 126.025401 407.683191 L 125.871879 403.686138 L 125.718356 399.689085 L 125.564835 395.692032 L 125.434206 391.694211 L 125.319221 387.695864 L 125.204237 383.697518 L 125.089252 379.699170 L 124.974268 375.700823 L 124.859283 371.702476 L 124.763230 367.703664 L 124.681578 363.704498 L 124.599926 359.705331 L 124.518274 355.706164 L 124.436622 351.706997 L 124.354970 347.707831 L 124.273318 343.708664 L 124.191665 339.709498 L 124.110014 335.710331 L 124.042239 331.710916 L 123.980525 327.711392 L 123.918811 323.711868 L 123.857095 319.712344 L 123.795382 315.712820 L 123.733668 311.713296 L 123.671954 307.713773 L 123.610239 303.714248 L 123.548524 299.714725 L 123.486811 295.715201 L 123.425097 291.715677 L 123.374962 287.716010 L 123.337975 283.716182 L 123.300990 279.716352 L 123.264003 275.716523 L 123.233981 271.716658 L 123.230120 267.716660 L 123.226259 263.716662 L 123.222397 259.716664 L 123.218536 255.716667 L 123.214675 251.716668 L 123.210814 247.716670 L 123.206952 243.716673 L 123.200394 239.716693 L 123.147242 235.717047 L 123.094089 231.717399 L 123.040937 227.717753 L 122.987784 223.718106 L 122.934632 219.718458 L 122.919832 218.604872" fill="none" id="34" stroke="black" stroke-width="0.674325" /><path d="M 56.179682 281.061562 L 54.566576 281.243058 L 58.322477 279.868471 L 62.135565 278.660021 L 65.948655 277.451572 L 69.761744 276.243122 L 73.574834 275.034672 L 77.374508 273.784885 L 81.170566 272.523956 L 84.966624 271.263027 L 88.755709 269.981898 L 92.521214 268.632466 L 96.286721 267.283035 L 100.052227 265.933604 L 103.813042 264.571889 L 107.519570 263.068011 L 111.226099 261.564133 L 114.932627 260.060255 L 118.639155 258.556377 L 122.345683 257.052499 L 126.052211 255.548621 L 129.758738 254.044744 L 133.465267 252.540865 L 137.215730 251.151648 L 140.978154 249.793646 L 144.740577 248.435644 L 148.503001 247.077643 L 152.278549 245.756749 L 156.058066 244.447073 L 159.837583 243.137397 L 163.617100 241.827722 L 167.353357 240.400522 L 171.079976 238.947143 L 174.806593 237.493763 L 178.526467 236.023586 L 182.223225 234.495846 L 183.864722 233.817473" fill="none" id="35" stroke="black" stroke-width="0.674325" /><path d="M 51.360782 254.274163 L 54.373024 253.063062 L 58.183222 251.850766 L 61.972538 250.569721 L 65.775784 249.331398 L 69.592027 248.132944 L 73.430973 247.009853 L 77.274182 245.900916 L 81.117392 244.791980 L 84.960600 243.683043 L 88.803811 242.574107 L 92.644338 241.456132 L 96.470168 240.288652 L 100.296001 239.121172 L 104.110996 237.920081 L 107.898302 236.633099 L 111.685607 235.346116 L 115.472911 234.059134 L 119.260216 232.772153 L 123.047521 231.485171 L 126.834826 230.198188 L 130.638700 228.962001 L 134.456401 227.768202 L 138.274102 226.574403 L 142.091803 225.380604 L 145.909504 224.186803 L 149.727205 222.993005 L 153.544907 221.799205 L 157.362608 220.605407 L 157.943463 220.423773" fill="none" id="36" stroke="black" stroke-width="0.674325" /><path d="M 44.274162 317.935582 L 47.363951 317.111882 L 51.122423 315.742982 L 54.877947 314.366365 L 58.591071 312.878851 L 62.304198 311.391337 L 66.017323 309.903822 L 69.721376 308.393992 L 73.419052 306.868479 L 77.116728 305.342967 L 80.814405 303.817454 L 84.512081 302.291943 L 88.219113 300.790025 L 91.957535 299.367281 L 95.695957 297.944537 L 99.434380 296.521794 L 103.172802 295.099050 L 106.911224 293.676306 L 110.649646 292.253562 L 114.388068 290.830819 L 118.118310 289.387184 L 121.828840 287.893209 L 125.539372 286.399233 L 129.249901 284.905259 L 132.960432 283.411283 L 136.682431 281.946512 L 140.418166 280.516728 L 144.171337 279.133559 L 147.928355 277.760671 L 151.685371 276.387781 L 155.442387 275.014892 L 158.352902 273.951332" fill="none" id="37" stroke="black" stroke-width="0.674325" /><path d="M 72.211173 455.628492 L 72.524819 456.917817 L 75.332208 459.764001 L 78.224733 462.526844 L 81.117257 465.289688 L 84.009781 468.052531 L 87.032842 470.671709 L 90.097645 473.241522 L 93.195318 475.772218 L 96.375015 478.198307 L 99.571551 480.602917 L 102.768088 483.007528 L 105.964624 485.412139 L 109.161161 487.816750 L 112.357698 490.221362 L 115.546132 492.636609 L 118.713448 495.079581 L 121.880763 497.522553 L 125.048079 499.965525 L 128.215394 502.408497 L 131.383586 504.850317 L 134.583585 507.250318 L 137.783583 509.650319 L 140.993352 512.037000 L 144.244186 514.367683 L 147.495019 516.698366 L 150.759710 519.009347 L 154.052031 521.281048 L 157.344351 523.552749 L 160.636672 525.824450 L 163.928992 528.096151 L 167.221313 530.367852 L 170.513633 532.639552 L 173.805954 534.911253 L 177.070538 537.222008 L 180.300059 539.582135 L 183.529579 541.942262 L 186.759098 544.302391 L 189.988618 546.662517 L 193.218138 549.022645 L 196.447657 551.382772 L 199.728791 553.670543 L 203.011742 555.955761 L 206.294694 558.240979 L 209.577647 560.526198 L 212.860600 562.811417 L 216.143552 565.096635 L 219.495977 567.278517 L 222.851281 569.456116 L 226.206584 571.633714 L 229.573702 573.792532 L 232.989271 575.874333 L 236.404838 577.956135 L 239.820405 580.037937 L 243.152097 582.250520 L 246.468838 584.486418 L 249.785577 586.722315 L 253.102317 588.958212 L 256.419056 591.194109 L 259.844441 593.259389 L 263.273450 595.318974 L 263.959203 595.730862" fill="none" id="38" stroke="black" stroke-width="0.674325" /><path d="M 68.305663 301.730863 L 68.368653 305.514389 L 68.912186 309.472312 L 69.391472 313.441934 L 69.700997 317.429283 L 69.945750 321.421788 L 70.126767 325.417169 L 70.163933 329.416631 L 70.163933 333.416631 L 70.163933 337.416631 L 70.163933 341.416631 L 70.163933 345.416631 L 70.163933 349.416631 L 70.163933 353.416631 L 70.163933 357.416631 L 70.214457 361.416129 L 70.293895 365.415340 L 70.373334 369.414551 L 70.477973 373.413091 L 70.611708 377.410855 L 70.745443 381.408618 L 70.890869 385.405889 L 71.094611 389.400696 L 71.298353 393.395504 L 71.502094 397.390312 L 71.705838 401.385119 L 71.909580 405.379927 L 72.162621 409.371817 L 72.431537 413.362767 L 72.700451 417.353718 L 72.969368 421.344668 L 73.284602 425.332194 L 73.605480 429.319303 L 73.926359 433.306412 L 74.230637 437.294723 L 74.487577 441.286462 L 74.744517 445.278201 L 75.001457 449.269941 L 75.194964 453.265152 L 75.375231 457.261088 L 75.555500 461.257024 L 75.735768 465.252959 L 75.916036 469.248896 L 76.096304 473.244831 L 76.179682 475.093062" fill="none" id="39" stroke="black" stroke-width="0.674325" /><path d="M 69.250543 260.132432 L 71.667098 262.977034 L 74.898603 265.334442 L 78.130107 267.691852 L 81.361612 270.049262 L 84.658710 272.313697 L 87.963266 274.567562 L 91.273646 276.812447 L 94.679236 278.910532 L 98.084826 281.008616 L 101.490416 283.106701 L 104.896006 285.204785 L 108.301596 287.302869 L 111.693010 289.423687 L 115.075722 291.558461 L 118.458433 293.693234 L 121.841147 295.828008 L 125.223859 297.962781 L 128.606571 300.097555 L 132.018350 302.185227 L 135.443275 304.251597 L 138.885560 306.288742 L 142.338511 308.307936 L 145.791460 310.327129 L 149.244408 312.346323 L 152.709064 314.345153 L 156.191559 316.312952 L 159.674053 318.280751 L 163.156547 320.248550 L 166.639042 322.216349 L 170.121535 324.184148 L 173.604030 326.151946 L 177.126878 328.045960 L 180.662620 329.916395 L 184.198362 331.786830 L 187.734105 333.657265 L 191.269846 335.527700 L 194.805588 337.398135 L 198.341330 339.268570 L 201.877072 341.139005 L 205.412815 343.009440 L 208.948557 344.879875 L 212.484299 346.750310 L 216.016987 348.626396 L 219.518194 350.560703 L 223.019403 352.495010 L 226.477875 354.504528 L 229.931730 356.522171 L 233.385584 358.539815 L 236.822751 360.585082 L 240.215495 362.703876 L 243.608238 364.822670 L 247.000982 366.941464 L 250.393727 369.060258 L 251.896213 369.998572" fill="none" id="40" stroke="black" stroke-width="0.674325" /><path d="M 329.534012 128.014322 L 326.344172 127.953288 L 323.821854 131.056453 L 321.335468 134.189803 L 318.956820 137.405484 L 316.586552 140.627568 L 314.137543 143.787586 L 311.557354 146.844135 L 308.887585 149.822782 L 306.217814 152.801426 L 303.548045 155.780073 L 300.878275 158.758718 L 298.208506 161.737364 L 295.538735 164.716009 L 292.868966 167.694655 L 290.199195 170.673300 L 287.484743 173.611235 L 284.766814 176.546003 L 282.048884 179.480771 L 279.330955 182.415537 L 276.613026 185.350306 L 273.895096 188.285073 L 271.177167 191.219841 L 268.459238 194.154607 L 265.741309 197.089376 L 263.083023 200.076774 L 260.509213 203.138720 L 258.007995 206.259455 L 255.547707 209.413338 L 253.125979 212.596853 L 250.711905 215.786248 L 248.297831 218.975644 L 245.883756 222.165039 L 243.469681 225.354434 L 240.991301 228.492924 L 238.441032 231.574501 L 235.890761 234.656081 L 233.334492 237.732620 L 230.740624 240.777591 L 228.146758 243.822564 L 225.560238 246.873569 L 223.078428 250.010544 L 220.596616 253.147519 L 218.114804 256.284493 L 215.632993 259.421469 L 213.151182 262.558443 L 210.603949 265.641826 L 208.016830 268.692533 L 206.762352 270.171802" fill="none" id="41" stroke="black" stroke-width="0.674325" /><path d="M 417.250542 307.400152 L 417.345033 308.751103 L 417.823475 312.714324 L 418.434811 316.667332 L 418.802458 320.649334 L 419.122002 324.636280 L 419.285341 328.632944 L 419.356681 332.631399 L 419.349062 336.631393 L 419.341441 340.631384 L 419.333822 344.631377 L 419.233289 348.628521 L 418.995838 352.621467 L 418.758386 356.614413 L 418.520935 360.607359 L 418.283484 364.600305 L 418.046032 368.593250 L 417.808582 372.586196 L 417.571129 376.579142 L 417.363198 380.573714 L 417.160736 384.568587 L 416.958275 388.563460 L 416.755813 392.558332 L 416.553351 396.553205 L 416.350889 400.548078 L 416.148427 404.542951 L 415.945966 408.537824 L 415.743504 412.532697 L 415.541043 416.527570 L 415.338580 420.522443 L 415.136118 424.517315 L 414.954542 428.513022 L 414.838064 432.511325 L 414.721587 436.509629 L 414.605108 440.507933 L 414.533447 444.507197 L 414.478563 448.506821 L 414.423678 452.506444 L 414.381948 456.506172 L 414.373318 460.506162 L 414.364689 464.506153 L 414.356059 468.506145 L 414.347429 472.506134 L 414.338799 476.506125 L 414.330170 480.506116 L 414.321540 484.506106 L 414.321412 484.565502" fill="none" id="42" stroke="black" stroke-width="0.674325" /><path d="M 266.573382 514.518262 L 270.314086 513.101529 L 274.054791 511.684798 L 277.795495 510.268064 L 281.536199 508.851332 L 285.276905 507.434599 L 289.014547 506.010088 L 292.717394 504.497170 L 296.420241 502.984251 L 300.094376 501.403308 L 303.761391 499.805495 L 307.428404 498.207681 L 311.095418 496.609869 L 314.762432 495.012054 L 318.429446 493.414242 L 322.096460 491.816428 L 325.763474 490.218615 L 329.430488 488.620801 L 333.097503 487.022987 L 336.770994 485.440203 L 340.450668 483.871766 L 344.130342 482.303328 L 347.810017 480.734890 L 351.489691 479.166452 L 355.169365 477.598014 L 358.849040 476.029576 L 362.528714 474.461139 L 366.208388 472.892700 L 369.888062 471.324262 L 373.567736 469.755824 L 377.247411 468.187387 L 380.927085 466.618948 L 384.606759 465.050510 L 388.286433 463.482072 L 389.974952 462.762352" fill="none" id="43" stroke="black" stroke-width="0.674325" /><path d="M 266.321412 560.463143 L 263.677431 561.815359 L 265.025206 563.523111 L 268.610107 561.759654 L 272.145641 559.888824 L 275.681175 558.017995 L 279.216708 556.147167 L 282.752242 554.276336 L 286.299212 552.427406 L 289.854827 550.595028 L 293.410439 548.762649 L 296.966053 546.930271 L 300.521666 545.097891 L 304.077280 543.265512 L 307.632893 541.433133 L 311.186046 539.596093 L 314.704771 537.693838 L 318.215050 535.776226 L 321.705934 533.823348 L 325.196818 531.870472 L 328.687703 529.917593 L 332.178585 527.964717 L 335.669469 526.011839 L 339.160353 524.058963 L 342.651237 522.106084 L 346.142121 520.153208 L 349.633005 518.200330 L 353.123889 516.247454 L 356.614773 514.294575 L 360.105657 512.341699 L 363.596542 510.388821 L 365.124562 509.534012" fill="none" id="44" stroke="black" stroke-width="0.674325" /></svg>