<?xml version="1.0" encoding="utf-8" ?>
<svg baseProfile="full" height="448.65509" version="1.1" viewBox="0,0,636.65509,448.65509" width="636.65509" xmlns="http://www.w3.org/2000/svg" xmlns:ev="http://www.w3.org/2001/xml-events" xmlns:xlink="http://www.w3.org/1999/xlink"><defs><style type="text/css"><![CDATA[
	.background { fill: white; }
	.line { stroke: firebrick; stroke-width: .1mm; }
	.blacksquare { fill: indigo; }
	.whitesquare { fill: white; }
]]></style></defs><rect class="background" height="100%" width="100%" x="0" y="0" /><path d="M 65.789645 194.631145 L 65.832245 194.078145 L 65.874845 193.526145 L 65.917445 192.974145 L 65.960045 192.421145 L 66.002645 191.869145 L 66.045245 191.316145 L 66.087845 190.764145 L 66.130445 190.211145 L 66.173045 189.659145 L 66.215645 189.107145 L 66.258245 188.554145 L 66.300845 188.002145 L 66.343445 187.449145 L 66.386045 186.897145 L 66.428645 186.345145 L 66.471245 185.792145 L 66.513845 185.240145 L 66.556445 184.687145 L 66.599045 184.135145 L 66.641645 183.582145 L 66.684245 183.030145 L 66.726845 182.478145 L 66.769445 181.925145 L 66.812045 181.373145 L 66.854645 180.820145 L 66.897245 180.268145 L 66.939945 179.715145 L 66.982545 179.163145 L 67.067745 178.058145" fill="none" id="0" stroke="#c583d9" stroke-width="0.5" /><path d="M 193.461545 177.917145 L 193.734545 172.948145 L 193.921545 167.976145 L 194.001545 163.001145 L 193.953545 158.026145 L 193.664545 153.060145 L 193.314545 148.097145 L 193.044545 143.128145 L 192.913545 138.155145 L 192.869545 133.180145 L 192.839545 128.204145 L 192.810545 123.228145 L 192.781545 118.253145 L 192.752545 113.277145 L 192.723545 108.301145 L 192.694545 103.326145 L 192.679545 98.350145 L 192.800545 93.376145 L 192.939545 88.402045 L 193.146545 83.430545 L 193.221545 78.455545 L 193.242545 73.479845 L 193.197545 68.504345 L 193.016545 63.532445 L 192.662545 58.570145 L 192.087545 53.629345 L 191.312545 48.715245 L 190.361545 43.832045 L 189.186545 38.999445 L 187.715545 34.249045 L 185.931545 29.606745 L 183.851545 25.089245 L 181.519545 20.694045 L 179.076545 16.361345 L 176.287545 12.242745 L 173.154545 8.377245 L 169.523545 4.974745 L 165.297545 2.360145 L 160.591545 0.789445 L 155.657545 0.327545 L 150.684545 0.342745 L 145.853545 1.376045 L 141.279545 3.294845 L 136.949545 5.734645 L 132.827545 8.514345 L 128.900545 11.565345 L 125.127545 14.808345 L 121.471545 18.181945 L 117.958545 21.703945 L 114.617545 25.389645 L 111.468545 29.241045 L 108.468545 33.210345 L 105.552545 37.242245 L 102.721545 41.333945" fill="none" id="1" stroke="#c583d9" stroke-width="0.5" /><path d="M 144.201545 1.932445 L 139.444545 3.337645 L 135.067545 5.663445 L 131.511545 9.120145 L 128.793545 13.268945 L 126.446545 17.638845 L 124.518545 22.209345 L 122.624545 26.793545 L 120.829545 31.417945 L 119.035545 36.042445 L 117.251545 40.670845 L 115.554545 45.331845 L 113.995545 50.040845 L 112.472545 54.761445 L 111.022545 59.504945 L 109.597545 64.256145 L 108.172545 69.007745 L 106.798545 73.773845 L 105.431545 78.542045 L 104.064545 83.310345 L 102.697545 88.078645 L 101.330545 92.847145 L 99.963845 97.615145 L 98.596845 102.383145 L 97.229945 107.152145 L 95.863045 111.920145 L 94.496045 116.688145 L 93.129145 121.456145 L 91.762245 126.225145 L 90.395245 130.993145 L 89.028345 135.761145 L 87.662145 140.530145 L 86.371045 145.319145 L 85.123045 150.120145 L 83.875845 154.921145 L 82.628545 159.722145 L 81.381245 164.523145 L 80.134845 169.324145 L 78.940645 174.138145 L 77.796445 178.965145 L 76.652345 183.791145 L 75.508145 188.618145 L 74.363945 193.444145 L 73.219745 198.271145 L 72.075545 203.098145" fill="none" id="2" stroke="#c583d9" stroke-width="0.5" /><path d="M 128.327545 9.089845 L 125.126545 12.918645 L 122.223545 16.977145 L 119.627545 21.238845 L 117.405545 25.707545 L 115.264545 30.215445 L 113.124545 34.723445 L 110.988545 39.233645 L 108.964545 43.795445 L 107.087545 48.419445 L 105.215545 53.045445 L 103.475545 57.722445 L 101.816545 62.429045 L 100.294945 67.181945 L 98.771145 71.934045 L 97.180645 76.664245 L 95.547245 81.379745 L 93.913645 86.095245 L 92.280045 90.811145 L 90.647245 95.526145 L 89.039445 100.251145 L 87.470845 104.988145 L 85.902345 109.726145 L 84.335945 114.464145 L 82.832845 119.223145 L 81.358745 123.990145 L 79.884745 128.758145 L 78.410745 133.526145 L 76.936745 138.294145 L 75.462745 143.062145 L 73.993745 147.831145 L 72.641045 152.634145 L 71.322745 157.448145 L 70.004445 162.261145 L 68.686145 167.074145 L 67.367745 171.887145 L 66.049445 176.700145 L 64.731145 181.513145 L 63.412745 186.327145 L 62.094445 191.140145 L 60.776145 195.953145 L 59.457745 200.766145 L 58.139445 205.579145 L 56.821145 210.392145 L 55.502745 215.205145 L 54.184445 220.019145 L 52.866145 224.832145 L 51.548045 229.645145 L 50.242345 234.462145 L 49.005145 239.296145 L 47.773445 244.132145 L 46.541745 248.968145 L 45.310045 253.804145 L 44.078345 258.640145 L 42.847345 263.477145 L 41.652845 268.322145 L 40.477045 273.172145 L 39.301545 278.022145 L 38.126145 282.872145 L 36.950645 287.722145 L 35.775245 292.572145 L 34.599745 297.422145 L 33.424245 302.272145 L 32.248845 307.122145 L 31.073345 311.972145 L 29.897945 316.822145 L 28.722445 321.672145 L 27.546945 326.522145 L 26.371545 331.372145 L 25.196045 336.222145 L 24.020645 341.072145 L 22.845145 345.922145 L 21.669845 350.772145 L 20.507545 355.626145 L 19.401745 360.492145 L 18.322945 365.364145 L 17.244245 370.237145 L 16.165445 375.109145 L 15.086745 379.982145 L 14.007945 384.854145 L 12.929245 389.727145 L 11.850445 394.599145 L 10.772345 399.472145 L 9.718395 404.350145 L 8.674975 409.230145 L 7.631545 414.110145 L 6.588115 418.990145 L 5.544685 423.870145 L 4.501255 428.750145 L 3.457825 433.630145 L 2.414405 438.511145 L 1.370975 443.391145 L 0.327545 448.271145" fill="none" id="3" stroke="#c583d9" stroke-width="0.5" /><path d="M 125.209545 16.837945 L 121.692545 20.387845 L 118.591545 24.303145 L 116.108545 28.632745 L 114.350545 33.311545 L 112.569545 37.981345 L 110.852545 42.675345 L 109.135545 47.369345 L 107.422545 52.064445 L 105.738545 56.770345 L 104.119545 61.498945 L 102.503545 66.228545 L 100.886545 70.958045 L 99.270345 75.687545 L 97.649245 80.415345 L 95.986445 85.128745 L 94.291345 89.830645 L 92.594145 94.532145 L 90.897045 99.233145 L 89.201145 103.934145 L 87.525945 108.643145 L 85.967845 113.392145 L 84.426745 118.147145 L 82.885645 122.901145 L 81.344945 127.656145 L 79.810945 132.413145 L 78.326045 137.185145 L 76.883845 141.971145 L 75.444745 146.757145 L 74.045445 151.555145 L 72.742045 156.381145 L 71.454845 161.210145 L 70.167545 166.040145 L 68.880345 170.869145 L 67.593145 175.699145 L 66.305845 180.528145 L 65.018645 185.358145 L 63.731345 190.187145 L 62.445045 195.017145 L 61.174745 199.851145 L 59.983445 204.705145 L 58.800545 209.561145 L 57.617745 214.417145 L 56.434945 219.273145 L 55.252145 224.129145 L 54.071545 228.986145 L 52.927645 233.851145 L 51.829545 238.727145 L 50.741645 243.606145 L 49.693945 248.493145 L 48.674345 253.386145 L 47.654745 258.279145 L 46.638045 263.172145 L 45.659745 268.074145 L 44.741645 272.987145 L 43.823645 277.900145 L 42.905545 282.813145 L 41.987545 287.726145 L 41.069545 292.639145 L 40.151445 297.552145 L 39.233445 302.465145 L 38.315445 307.378145 L 37.396745 312.291145 L 36.458845 317.200145 L 35.485245 322.103145 L 34.509445 327.005145 L 33.533245 331.906145 L 32.544545 336.806145 L 31.506945 341.695145 L 30.466045 346.583145 L 29.425145 351.472145 L 28.384245 356.360145 L 27.343345 361.249145 L 26.302445 366.137145 L 25.261545 371.026145 L 24.220645 375.914145 L 23.179745 380.803145 L 22.138845 385.692145 L 21.097945 390.580145 L 20.048145 395.467145 L 18.987445 400.351145 L 17.893145 405.228145 L 16.768545 410.098145" fill="none" id="4" stroke="#c583d9" stroke-width="0.5" /><path d="M 198.059545 69.467845 L 197.989545 64.487145 L 197.710545 59.513945 L 197.092545 54.572345 L 196.320545 49.651545 L 195.029545 44.847045 L 193.376545 40.150245 L 191.504545 35.535145 L 189.371545 31.036945 L 186.928545 26.699745 L 184.196545 22.538045 L 181.141545 18.611245 L 177.759545 14.959445 L 174.014545 11.698045 L 169.776545 9.133945 L 165.068545 7.711645 L 160.094545 7.563045 L 155.213545 8.187345 L 150.814545 10.443145 L 147.168545 13.827845 L 144.024545 17.687945 L 141.308545 21.862945 L 138.602545 26.045345 L 135.977545 30.278645 L 133.429545 34.558945 L 131.057545 38.938345 L 128.772545 43.364545 L 126.589545 47.841545 L 124.552545 52.386645 L 122.596545 56.967445 L 120.663545 61.558545 L 118.766545 66.164345 L 116.919545 70.790145 L 115.099545 75.427245 L 113.284545 80.066045 L 111.482545 84.709845 L 109.758545 89.382245 L 108.167545 94.102145 L 106.632545 98.841145 L 105.141545 103.594145 L 103.715545 108.367145 L 102.308545 113.145145 L 100.901545 117.923145 L 99.489345 122.700145 L 97.993445 127.451145 L 96.465345 132.192145 L 94.934645 136.933145 L 93.403845 141.673145 L 91.882545 146.416145 L 90.392445 151.169145 L 88.926345 155.930145 L 87.466645 160.692145 L 86.006945 165.455145 L 84.547245 170.217145 L 83.087445 174.980145 L 81.627745 179.742145 L 80.168045 184.505145 L 78.712045 189.268145 L 77.272745 194.037145 L 75.860645 198.814145 L 74.457345 203.593145 L 73.054445 208.373145 L 71.651545 213.153145 L 70.248845 217.932145" fill="none" id="5" stroke="#c583d9" stroke-width="0.5" /><path d="M 24.768545 370.058145 L 24.015545 365.179145 L 23.665545 360.256145 L 24.007845 355.333145 L 25.195745 350.541145 L 26.254345 345.718145 L 27.312045 340.896145 L 28.374445 336.074145 L 29.460545 331.258145 L 30.569745 326.447145 L 31.769945 321.658145 L 32.990845 316.874145 L 34.212945 312.090145 L 35.435045 307.307145 L 36.663145 302.525145 L 37.937145 297.755145 L 39.308445 293.012145 L 40.747145 288.289145 L 42.225545 283.578145 L 43.718545 278.872145 L 45.211845 274.166145 L 46.705145 269.460145 L 48.197445 264.754145 L 49.674645 260.043145 L 51.111945 255.320145 L 52.513945 250.586145 L 53.908745 245.850145 L 55.303545 241.113145 L 56.698245 236.377145 L 58.093045 231.641145 L 59.491545 226.906145 L 60.918645 222.180145 L 62.418845 217.476145 L 63.974345 212.790145 L 65.529845 208.104145 L 67.086845 203.419145 L 68.654345 198.737145 L 70.245045 194.063145 L 71.849245 189.394145 L 73.453545 184.725145 L 75.057745 180.055145 L 76.662045 175.386145 L 78.266245 170.716145 L 79.797145 166.023145 L 81.247045 161.303145 L 82.672445 156.576145 L 84.095345 151.848145 L 85.534345 147.125145 L 87.074845 142.435145 L 88.693845 137.771145 L 90.332745 133.114145 L 92.070745 128.493145 L 93.902245 123.908145 L 95.758645 119.333145 L 97.535645 114.727145 L 99.215345 110.085145 L 100.854545 105.427145 L 102.487545 100.768145 L 104.129545 96.112145 L 105.846545 91.483145 L 107.650545 86.887645 L 109.474545 82.299845 L 111.348545 77.732445 L 113.334545 73.212545 L 115.401545 68.728945 L 117.537545 64.278045 L 119.777545 59.878345 L 122.146545 55.547445 L 124.658545 51.297045 L 127.262545 47.103445 L 130.055545 43.033145 L 133.012545 39.080145 L 136.149545 35.267145 L 139.322545 31.486145 L 142.768545 27.951945 L 146.586545 24.822245 L 150.595545 21.940245" fill="none" id="6" stroke="#c583d9" stroke-width="0.5" /><path d="M 190.217545 41.688345 L 189.046545 36.879045 L 187.547545 32.162045 L 185.617545 27.604145 L 182.979545 23.417645 L 179.443545 19.960045 L 175.375545 17.145145 L 170.998545 14.838845 L 166.232545 13.532545 L 161.295545 13.352645 L 156.349545 13.513745 L 151.443545 14.152545 L 146.710545 15.574445 L 142.420545 18.012345 L 138.583545 21.127545 L 135.090545 24.630345 L 131.794545 28.322345 L 128.669545 32.159145 L 125.638545 36.072545 L 122.746545 40.088445 L 120.103545 44.271245 L 117.652545 48.571045 L 115.380545 52.967145 L 113.207545 57.414245 L 111.055545 61.871745 L 108.986545 66.368045 L 106.955545 70.881645 L 104.925545 75.396145 L 102.896545 79.910645 L 100.867545 84.425245 L 98.837745 88.939745 L 96.808345 93.454145 L 94.778945 97.969145 L 92.751345 102.484145 L 90.776745 107.023145 L 88.881745 111.595145 L 87.017945 116.180145 L 85.154045 120.766145 L 83.290245 125.351145 L 81.426445 129.936145 L 79.562845 134.522145 L 77.716845 139.114145 L 75.931245 143.731145 L 74.197945 148.367145 L 72.474345 153.007145 L 70.750845 157.647145 L 69.027245 162.287145 L 67.303745 166.927145 L 65.592245 171.571145 L 63.919145 176.229145 L 62.277445 180.899145 L 60.635845 185.568145 L 58.994245 190.238145 L 57.368445 194.913145 L 55.796045 199.606145 L 54.273945 204.316145 L 52.754145 209.026145 L 51.234345 213.737145 L 49.718345 218.449145 L 48.235645 223.171145 L 46.818745 227.914145 L 45.417845 232.661145 L 44.016845 237.408145 L 42.615845 242.155145 L 41.214945 246.903145 L 39.813945 251.650145 L 38.412945 256.397145 L 37.011945 261.145145 L 35.611045 265.892145 L 34.210045 270.639145 L 32.811345 275.387145 L 31.427645 280.139145 L 30.064245 284.898145 L 28.703745 289.657145 L 27.343345 294.416145 L 25.982845 299.175145 L 24.622345 303.934145 L 23.261945 308.693145 L 21.901445 313.452145 L 20.541045 318.211145 L 19.180545 322.970145 L 17.820145 327.729145 L 16.459645 332.488145 L 15.099245 337.247145" fill="none" id="7" stroke="#c583d9" stroke-width="0.5" /><path d="M 278.563545 46.129245 L 277.435545 46.041945 L 276.307545 45.954645 L 275.176545 45.941645 L 274.045545 45.934245 L 272.915545 45.975945 L 271.785545 46.025645 L 270.659545 46.134245 L 269.535545 46.258045 L 268.421545 46.454245 L 267.312545 46.675845 L 266.214545 46.945145 L 265.121545 47.237645 L 264.034545 47.548645 L 262.949545 47.871745 L 261.873545 48.219745 L 260.804545 48.589245 L 259.742545 48.977545 L 258.687545 49.387345 L 257.641545 49.816145 L 256.606545 50.273245 L 255.576545 50.740445 L 254.555545 51.227745 L 253.540545 51.727445 L 252.543545 52.261045 L 251.547545 52.798245 L 250.559545 53.349445 L 249.573545 53.903845 L 248.598545 54.477445 L 247.625545 55.053245 L 246.669545 55.658145 L 245.713545 56.263145" fill="none" id="8" stroke="#9de993" stroke-width="0.5" /><path d="M 281.650545 43.601645 L 278.208545 43.637245 L 274.778545 43.902645 L 271.379545 44.432445 L 268.056545 45.305645 L 264.775545 46.346245 L 261.518545 47.457945 L 258.297545 48.669845 L 255.116545 49.982445 L 251.956545 51.345745 L 248.824545 52.774645 L 245.747545 54.316145 L 242.741545 55.991245 L 239.806545 57.788545 L 236.936545 59.687745 L 234.124545 61.670445 L 231.349545 63.707045 L 228.589545 65.763645 L 225.830545 67.820445 L 223.074545 69.882345 L 220.344545 71.978345 L 217.703545 74.185945 L 215.062545 76.393545 L 212.422545 78.601145 L 209.781545 80.808745 L 207.141545 83.016545 L 204.511545 85.237245 L 201.913545 87.493645 L 199.349545 89.790545 L 196.792545 92.094145 L 194.248545 94.413145" fill="none" id="9" stroke="#9de993" stroke-width="0.5" /><path d="M 59.571645 419.452145 L 60.783645 414.646145 L 62.066645 409.859145 L 63.492145 405.112145 L 65.196045 400.459145 L 66.864845 395.792145 L 68.543945 391.129145 L 70.266045 386.481145 L 72.006045 381.841145 L 73.748345 377.201145 L 75.490645 372.561145 L 77.232045 367.921145 L 78.959545 363.275145 L 80.626745 358.608145 L 82.239545 353.922145 L 83.837845 349.230145 L 85.439145 344.540145 L 87.064045 339.858145 L 88.745045 335.195145 L 90.469045 330.549145 L 92.203745 325.906145 L 93.938345 321.263145 L 95.656145 316.614145 L 97.293345 311.937145 L 98.811745 307.219145 L 100.269845 302.482145 L 101.726545 297.745145 L 103.210545 293.017145 L 104.798545 288.322145 L 106.498545 283.667145 L 108.218545 279.019145 L 109.979545 274.386145 L 111.835545 269.791145 L 113.760545 265.224145 L 115.646545 260.640145 L 117.483545 256.037145 L 119.313545 251.431145 L 121.192545 246.845145 L 123.158545 242.295145 L 125.171545 237.766145 L 127.184545 233.237145 L 129.196545 228.708145 L 131.209545 224.179145 L 133.222545 219.650145 L 135.223545 215.116145 L 137.176545 210.561145 L 139.092545 205.990145 L 141.041545 201.433145 L 143.096545 196.923145 L 145.272545 192.470145 L 147.541545 188.064145 L 149.846545 183.677145 L 152.070545 179.248145 L 154.221545 174.783145 L 156.356545 170.310145 L 158.492545 165.837145 L 160.627545 161.365145 L 162.762545 156.892145 L 164.897545 152.419145 L 167.039545 147.950145 L 169.250545 143.514145 L 171.543545 139.121145 L 173.901545 134.762145 L 176.344545 130.450145 L 178.914545 126.213145 L 181.586545 122.039145 L 184.358545 117.932145 L 187.250545 113.907145 L 190.170545 109.902145 L 193.090545 105.897145 L 196.010545 101.893145 L 198.958545 97.909145 L 202.004545 94.000145 L 205.184545 90.200145 L 208.529545 86.543245 L 211.980545 82.986945 L 215.478545 79.475245 L 219.028545 76.016945 L 222.646545 72.629745 L 226.335545 69.320745 L 230.050545 66.039245 L 233.789545 62.786545 L 237.621545 59.644145 L 241.597545 56.684845 L 245.681545 53.877245" fill="none" id="10" stroke="#9de993" stroke-width="0.5" /><path d="M 237.146545 62.924545 L 240.818545 59.594745 L 244.644545 56.443345 L 248.572545 53.420845 L 252.837545 50.898245 L 257.422545 49.023645 L 262.184545 47.657145 L 267.067545 46.824245 L 271.976545 46.133045 L 276.926545 46.061045 L 281.808545 46.852745 L 286.364545 48.751845 L 290.478545 51.493745 L 294.179545 54.780645 L 297.449545 58.497345 L 300.471545 62.424745 L 303.359545 66.452945 L 306.026545 70.629245 L 308.386545 74.984545 L 310.448545 79.489945 L 312.263545 84.100745 L 313.931545 88.768245 L 315.459545 93.483145 L 316.814545 98.250145 L 318.049545 103.050145 L 319.211545 107.869145 L 320.320545 112.700145 L 321.352545 117.548145 L 322.301545 122.413145 L 323.219545 127.284145 L 324.114545 132.159145 L 324.932545 137.048145 L 325.659545 141.951145 L 326.336545 146.861145 L 326.959545 151.778145 L 327.489545 156.706145 L 327.922545 161.644145 L 328.294545 166.587145 L 328.651545 171.531145 L 329.008545 176.475145 L 329.348545 181.420145 L 329.635545 186.368145 L 329.858545 191.320145 L 330.004545 196.275145 L 330.117545 201.230145 L 330.222545 206.186145 L 330.292545 211.142145 L 330.292545 216.099145 L 330.276545 221.056145 L 330.260545 226.012145 L 330.244545 230.969145 L 330.218545 235.926145 L 330.113545 240.881145 L 329.887545 245.833145 L 329.639545 250.784145 L 329.390545 255.734145 L 329.141545 260.685145 L 328.891545 265.635145 L 328.642545 270.586145" fill="none" id="11" stroke="#9de993" stroke-width="0.5" /><path d="M 195.823545 106.247145 L 196.403545 105.071145 L 196.983545 103.895145 L 197.597545 102.735145 L 198.210545 101.576145 L 198.873545 100.445145 L 199.537545 99.313145 L 200.254545 98.215145 L 200.972545 97.117145 L 201.715545 96.037145 L 202.459545 94.957145 L 203.226545 93.893145 L 203.993545 92.829145 L 204.783545 91.782145 L 205.573545 90.735145 L 206.368545 89.692245 L 207.164545 88.649545 L 207.962545 87.608645 L 208.759545 86.567645 L 209.561545 85.529845 L 210.363545 84.491945 L 211.172545 83.459545 L 211.981545 82.427145 L 212.802545 81.404545 L 213.624545 80.382045 L 214.454545 79.366745 L 215.284545 78.351445 L 216.123545 77.343145 L 216.962545 76.334845 L 217.810545 75.334445 L 218.658545 74.333945" fill="none" id="12" stroke="#9de993" stroke-width="0.5" /><path d="M 188.201545 114.468145 L 189.434545 112.522145 L 190.665545 110.574145 L 191.894545 108.625145 L 193.106545 106.666145 L 194.326545 104.712145 L 195.556545 102.764145 L 196.784545 100.814145 L 198.012545 98.865145 L 199.240545 96.915145 L 200.497545 94.985145 L 201.782545 93.072145 L 203.094545 91.178145 L 204.449545 89.315245 L 205.811545 87.456945 L 207.179545 85.603745 L 208.552545 83.753545 L 209.944545 81.917845 L 211.355545 80.096545 L 212.815545 78.313945 L 214.288545 76.542845 L 215.776545 74.783545 L 217.317545 73.071345 L 218.871545 71.370245 L 220.437545 69.680345 L 222.039545 68.024845 L 223.662545 66.389145 L 225.304545 64.773045 L 226.972545 63.184245 L 228.652545 61.607445 L 230.343545 60.042645" fill="none" id="13" stroke="#9de993" stroke-width="0.5" /><path d="M 192.138545 104.406145 L 194.166545 99.873145 L 196.457545 95.467145 L 199.060545 91.239145 L 202.027545 87.258245 L 205.204545 83.442345 L 208.500545 79.728045 L 211.953545 76.159145 L 215.641545 72.836345 L 219.521545 69.739245 L 223.472545 66.730745 L 227.523545 63.859745 L 231.697545 61.171445 L 236.022545 58.735845 L 240.496545 56.586845 L 245.104545 54.742545 L 249.838545 53.257445 L 254.678545 52.161445 L 259.591545 51.477545 L 264.544545 51.144045 L 269.507545 51.108545 L 274.444545 51.540245 L 279.304545 52.534045 L 284.050545 53.978045 L 288.615545 55.909545 L 292.886545 58.421045 L 296.792545 61.479845 L 300.380545 64.907245 L 303.661545 68.632745 L 306.653545 72.591145 L 309.222545 76.837745 L 311.382545 81.307645 L 313.205545 85.926245 L 314.731545 90.651145 L 315.933545 95.469145 L 316.894545 100.342145" fill="none" id="14" stroke="#9de993" stroke-width="0.5" /><path d="M 139.855545 207.491145 L 141.016545 205.379145 L 142.178545 203.268145 L 143.343545 201.158145 L 144.523545 199.056145 L 145.682545 196.944145 L 146.825545 194.822145 L 147.944545 192.687145 L 149.053545 190.547145 L 150.153545 188.403145 L 151.243545 186.253145 L 152.304545 184.090145 L 153.345545 181.916145 L 154.364545 179.732145 L 155.352545 177.533145 L 156.327545 175.329145 L 157.288545 173.119145 L 158.226545 170.899145 L 159.100545 168.653145 L 159.941545 166.395145 L 160.749545 164.124145 L 161.541545 161.848145 L 162.317545 159.566145 L 163.073545 157.278145 L 163.782545 154.974145 L 164.465545 152.663145 L 165.136545 150.348145 L 165.808545 148.034145 L 166.480545 145.719145 L 167.151545 143.404145 L 167.823545 141.090145" fill="none" id="15" stroke="#9de993" stroke-width="0.5" /><path d="M 350.172545 153.405145 L 354.135545 150.450145 L 358.189545 147.620145 L 362.370545 144.984145 L 366.629545 142.474145 L 370.889545 139.965145 L 375.164545 137.483145 L 379.516545 135.138145 L 383.875545 132.805145 L 388.233545 130.473145 L 392.591545 128.140145 L 396.950545 125.807145 L 401.311545 123.479145 L 405.704545 121.212145 L 410.121545 118.991145 L 414.541545 116.778145 L 418.962545 114.565145 L 423.382545 112.352145 L 427.802545 110.139145 L 432.223545 107.926145 L 436.643545 105.712145 L 441.064545 103.499145 L 445.484545 101.286145 L 449.921545 99.106145 L 454.407545 97.029145 L 458.916545 95.002145 L 463.426545 92.979145 L 467.937545 90.955145 L 472.447545 88.931545 L 476.957545 86.907845 L 481.468545 84.884245 L 485.978545 82.860645 L 490.488545 80.836945 L 494.999545 78.813345 L 499.509545 76.789745 L 504.019545 74.766145 L 508.530545 72.742445 L 513.040545 70.718945 L 517.557545 68.710245 L 522.088545 66.732945 L 526.626545 64.771745 L 531.163545 62.810445 L 535.701545 60.849145 L 540.239545 58.887945 L 544.777545 56.926645 L 549.315545 54.965445 L 553.852545 53.004145 L 558.390545 51.042945 L 562.928545 49.081645 L 567.466545 47.120445 L 572.007545 45.165745 L 576.559545 43.239145 L 581.122545 41.337045 L 585.685545 39.434945 L 590.248545 37.532745 L 594.811545 35.630645 L 599.374545 33.728545 L 603.937545 31.826345 L 608.499545 29.922645 L 613.053545 27.999745 L 617.585545 26.024645 L 622.113545 24.040945 L 626.641545 22.057245 L 631.169545 20.073545 L 635.697545 18.089845" fill="none" id="16" stroke="#58f2c3" stroke-width="0.5" /><path d="M 476.579545 122.216145 L 474.753545 119.245145 L 472.466545 116.616145 L 469.632545 114.604145 L 466.468545 113.165145 L 463.155545 112.086145 L 459.812545 111.095145 L 456.420545 110.300145 L 452.975545 109.778145 L 449.501545 109.524145 L 446.019545 109.584145 L 442.562545 110.002145 L 439.150545 110.721145 L 435.784545 111.626145 L 432.483545 112.747145 L 429.263545 114.087145 L 426.078545 115.505145 L 422.984545 117.114145 L 419.897545 118.736145 L 416.860545 120.449145 L 413.913545 122.310145 L 411.092545 124.357145 L 408.367545 126.532145 L 405.720545 128.800145 L 403.144545 131.150145 L 400.627545 133.564145 L 398.172545 136.040145 L 395.788545 138.584145 L 393.460545 141.181145 L 391.162545 143.803145 L 388.894545 146.452145" fill="none" id="17" stroke="#c94e76" stroke-width="0.5" /><path d="M 473.965545 113.806145 L 469.654545 111.328145 L 464.995545 109.591145 L 460.106545 108.686145 L 455.134545 108.620145 L 450.213545 109.323145 L 445.303545 110.114145 L 440.454545 111.211145 L 435.755545 112.834145 L 431.149545 114.706145 L 426.581545 116.669145 L 422.024545 118.660145 L 417.537545 120.801145 L 413.133545 123.110145 L 408.841545 125.620145 L 404.692545 128.360145 L 400.562545 131.128145 L 396.418545 133.876145 L 392.254545 136.595145 L 388.099545 139.326145 L 384.005545 142.148145 L 380.005545 145.101145 L 376.098545 148.177145 L 372.286545 151.369145 L 368.527545 154.623145 L 364.798545 157.913145 L 361.079545 161.213145 L 357.360545 164.514145 L 353.643545 167.818145 L 349.948545 171.145145 L 346.290545 174.513145 L 342.646545 177.896145 L 339.002545 181.279145 L 335.360545 184.665145 L 331.747545 188.081145 L 328.200545 191.565145 L 324.734545 195.131145 L 321.349545 198.773145 L 318.015545 202.462145 L 314.708545 206.175145 L 311.446545 209.928145 L 308.234545 213.723145 L 305.041545 217.536145 L 301.850545 221.350145 L 298.660545 225.164145 L 295.469545 228.977145 L 292.279545 232.791145 L 289.088545 236.605145 L 285.917545 240.435145 L 282.786545 244.298145 L 279.682545 248.183145 L 276.583545 252.072145 L 273.484545 255.960145 L 270.396545 259.858145 L 267.330545 263.773145 L 264.285545 267.703145 L 261.262545 271.652145 L 258.249545 275.607145 L 255.236545 279.563145 L 252.225545 283.520145 L 249.236545 287.494145 L 246.295545 291.503145 L 243.385545 295.535145 L 240.500545 299.586145 L 237.665545 303.670145 L 234.866545 307.781145 L 232.076545 311.896145 L 229.283545 316.010145 L 226.470545 320.111145 L 223.619545 324.184145 L 220.747545 328.244145 L 217.873545 332.302145 L 215.003545 336.362145 L 212.155545 340.438145 L 209.335545 344.534145 L 206.529545 348.639145 L 203.771545 352.776145 L 201.083545 356.960145 L 198.412545 361.154145 L 195.741545 365.349145 L 193.071545 369.543145 L 190.401545 373.738145 L 187.732545 377.933145 L 185.086545 382.144145 L 182.531545 386.409145 L 180.045545 390.716145 L 177.605545 395.048145 L 175.193545 399.397145" fill="none" id="18" stroke="#c94e76" stroke-width="0.5" /><path d="M 375.740545 142.101145 L 374.899545 142.504145 L 374.058545 142.907145 L 373.217545 143.310145 L 372.376545 143.713145 L 371.534545 144.116145 L 370.693545 144.519145 L 369.852545 144.922145 L 369.011545 145.325145 L 368.170545 145.728145 L 367.329545 146.131145 L 366.488545 146.534145 L 365.646545 146.937145 L 364.805545 147.340145 L 363.964545 147.743145 L 363.122545 148.143145 L 362.279545 148.542145 L 361.434545 148.937145 L 360.588545 149.331145 L 359.739545 149.717145 L 358.890545 150.103145 L 358.031545 150.466145 L 357.172545 150.829145 L 356.310545 151.184145 L 355.447545 151.540145 L 354.575545 151.870145 L 353.703545 152.201145 L 352.822545 152.507145 L 351.941545 152.814145 L 351.057545 153.110145 L 350.172545 153.405145" fill="none" id="19" stroke="#57b870" stroke-width="0.5" /><path d="M 477.524545 118.413145 L 473.776545 115.120145 L 469.612545 112.374145 L 465.001545 110.472145 L 460.144545 109.338145 L 455.162545 109.087145 L 450.190545 109.494145 L 445.327545 110.607145 L 440.566545 112.096145 L 435.939545 113.959145 L 431.452545 116.140145 L 427.113545 118.600145 L 422.774545 121.062145 L 418.506545 123.644145 L 414.319545 126.356145 L 410.201545 129.173145 L 406.116545 132.035145 L 402.101545 134.996145 L 398.088545 137.959145 L 394.080545 140.930145 L 390.242545 144.116145 L 386.476545 147.388145 L 382.847545 150.811145 L 379.272545 154.290145 L 375.859545 157.928145 L 372.502545 161.618145 L 369.258545 165.407145 L 366.142545 169.303145 L 363.026545 173.199145 L 359.910545 177.095145 L 356.795545 180.991145 L 353.679545 184.887145 L 350.563545 188.783145" fill="none" id="20" stroke="#57b870" stroke-width="0.5" /><path d="M 463.792545 112.082145 L 458.873545 111.226145 L 453.888545 110.956145 L 448.899545 111.103145 L 443.935545 111.632145 L 439.055545 112.679145 L 434.303545 114.204145 L 429.684545 116.098145 L 425.215545 118.322145 L 420.785545 120.625145 L 416.364545 122.944145 L 411.956545 125.288145 L 407.568545 127.669145 L 403.239545 130.157145 L 398.939545 132.692145 L 394.722545 135.364145 L 390.563545 138.126145 L 386.412545 140.900145 L 382.282545 143.705145 L 378.223545 146.610145 L 374.275545 149.665145 L 370.410545 152.825145 L 366.561545 156.005145 L 362.729545 159.205145 L 358.900545 162.409145 L 355.071545 165.612145 L 351.246545 168.820145 L 347.446545 172.059145 L 343.698545 175.356145 L 339.974545 178.681145 L 336.240545 181.995145 L 332.474545 185.272145 L 328.682545 188.520145 L 324.886545 191.763145 L 321.103545 195.021145 L 317.371545 198.336145 L 313.697545 201.717145 L 310.063545 205.139145 L 306.492545 208.628145 L 302.976545 212.172145 L 299.472545 215.729145 L 295.967545 219.284145 L 292.446545 222.824145 L 288.896545 226.333145 L 285.325545 229.822145 L 281.750545 233.307145 L 278.174545 236.791145 L 274.599545 240.276145 L 271.034545 243.771145 L 267.504545 247.301145 L 264.008545 250.865145 L 260.524545 254.441145 L 257.065545 258.041145 L 253.646545 261.679145 L 250.266545 265.353145 L 246.935545 269.072145 L 243.649545 272.830145 L 240.409545 276.629145 L 237.208545 280.460145 L 234.021545 284.302145 L 230.834545 288.145145 L 227.647545 291.988145 L 224.460545 295.831145 L 221.273545 299.674145 L 218.086545 303.517145 L 214.899545 307.360145 L 211.712545 311.202145 L 208.525545 315.046145 L 205.353545 318.901145 L 202.207545 322.777145 L 199.074545 326.664145 L 195.944545 330.554145 L 192.814545 334.443145 L 189.714545 338.357145 L 186.709545 342.343145 L 183.803545 346.402145 L 180.971545 350.514145 L 178.205545 354.670145 L 175.494545 358.862145 L 172.816545 363.075145 L 170.143545 367.292145 L 167.470545 371.509145 L 164.798545 375.726145 L 162.125545 379.942145 L 159.452545 384.159145 L 156.797545 388.387145 L 154.217545 392.661145 L 151.717545 396.982145 L 149.250545 401.323145 L 146.838545 405.694145 L 144.457545 410.082145 L 142.074545 414.469145 L 139.632545 418.823145 L 137.146545 423.153145 L 134.622545 427.461145 L 132.044545 431.735145" fill="none" id="21" stroke="#57b870" stroke-width="0.5" /><path d="M 412.075545 129.869145 L 416.126545 127.058145 L 420.231545 124.328145 L 424.403545 121.700145 L 428.651545 119.197145 L 432.953545 116.789145 L 437.406545 114.679145 L 442.005545 112.907145 L 446.714545 111.453145 L 451.535545 110.449145 L 456.433545 109.937145 L 461.355545 109.984145 L 466.187545 110.841145 L 470.745545 112.647145 L 475.082545 114.988145 L 479.085545 117.829145 L 482.572545 121.295145 L 485.508545 125.237145 L 487.940545 129.520145 L 490.009545 133.992145 L 491.748545 138.603145 L 493.225545 143.306145 L 494.604545 148.040145 L 495.936545 152.787145 L 497.172545 157.560145 L 498.319545 162.355145 L 499.393545 167.167145 L 500.398545 171.994145 L 501.341545 176.833145 L 502.216545 181.685145 L 503.027545 186.549145 L 503.754545 191.425145 L 504.419545 196.311145 L 505.073545 201.198145 L 505.667545 206.092145 L 506.154545 210.998145 L 506.579545 215.910145 L 506.992545 220.823145 L 507.366545 225.740145 L 507.652545 230.662145 L 507.875545 235.587145 L 508.056545 240.514145 L 508.182545 245.443145 L 508.270545 250.373145 L 508.347545 255.302145 L 508.425545 260.232145 L 508.502545 265.162145 L 508.579545 270.092145 L 508.657545 275.022145 L 508.726545 279.952145 L 508.769545 284.882145 L 508.785545 289.813145 L 508.796545 294.743145 L 508.807545 299.674145 L 508.818545 304.604145 L 508.829545 309.535145 L 508.840545 314.465145 L 508.851545 319.395145 L 508.862545 324.326145" fill="none" id="22" stroke="#57b870" stroke-width="0.5" /><path d="M 128.327545 434.280145 L 130.393545 429.767145 L 132.515545 425.280145 L 134.747545 420.847145 L 137.248545 416.559145 L 139.703545 412.245145 L 142.156545 407.930145 L 144.609545 403.615145 L 147.062545 399.300145 L 149.533545 394.996145 L 152.085545 390.739145 L 154.678545 386.506145 L 157.274545 382.276145 L 159.871545 378.046145 L 162.467545 373.815145 L 165.064545 369.585145 L 167.661545 365.355145 L 170.257545 361.125145 L 172.854545 356.895145 L 175.450545 352.664145 L 178.048545 348.435145 L 180.698545 344.238145 L 183.450545 340.108145 L 186.286545 336.035145 L 189.164545 331.990145 L 192.048545 327.951145 L 194.933545 323.912145 L 197.801545 319.861145 L 200.594545 315.758145 L 203.355545 311.634145 L 206.114545 307.508145 L 208.873545 303.382145 L 211.638545 299.259145 L 214.467545 295.181145 L 217.398545 291.176145 L 220.410545 287.231145 L 223.459545 283.314145 L 226.515545 279.403145 L 229.547545 275.473145 L 232.515545 271.495145 L 235.441545 267.486145 L 238.360545 263.471145 L 241.279545 259.457145 L 244.199545 255.443145 L 247.248545 251.530145 L 250.429545 247.719145 L 253.626545 243.923145 L 256.881545 240.176145 L 260.230545 236.513145 L 263.618545 232.886145 L 267.006545 229.258145 L 270.393545 225.630145 L 273.785545 222.006145 L 277.223545 218.426145 L 280.748545 214.933145 L 284.320545 211.486145 L 287.892545 208.040145 L 291.464545 204.594145 L 295.038545 201.150145 L 298.648545 197.743145 L 302.334545 194.419145 L 306.119545 191.211145 L 310.073545 188.213145 L 314.153545 185.387145 L 318.268545 182.612145 L 322.384545 179.837145 L 326.499545 177.062145 L 330.629545 174.310145 L 334.803545 171.623145 L 338.987545 168.953145 L 343.172545 166.284145 L 347.374545 163.642145 L 351.632545 161.092145 L 355.896545 158.552145 L 360.161545 156.012145 L 364.427545 153.475145 L 368.713545 150.972145 L 373.064545 148.584145 L 377.461545 146.281145 L 381.924545 144.110145 L 386.441545 142.054145 L 391.068545 140.260145 L 395.759545 138.640145 L 400.532545 137.282145 L 405.378545 136.210145 L 410.258545 135.304145 L 415.168545 134.576145 L 420.096545 133.983145 L 425.034545 133.481145 L 429.983545 133.108145 L 434.945545 132.972145 L 439.908545 133.043145 L 444.862545 133.342145" fill="none" id="23" stroke="#57b870" stroke-width="0.5" /><path d="M 476.453545 121.602145 L 472.095545 119.274145 L 467.545545 117.352145 L 462.792545 116.011145 L 457.928545 115.155145 L 453.003545 114.761145 L 448.065545 114.611145 L 443.124545 114.558145 L 438.184545 114.524145 L 433.246545 114.599145 L 428.327545 115.049145 L 423.445545 115.803145 L 418.594545 116.737145 L 413.768545 117.793145 L 408.985545 119.030145 L 404.237545 120.398145 L 399.535545 121.912145 L 394.883545 123.577145 L 390.296545 125.409145 L 385.794545 127.442145 L 381.366545 129.634145 L 377.008545 131.959145 L 372.745545 134.455145 L 368.576545 137.106145 L 364.482545 139.872145 L 360.469545 142.753145 L 356.516545 145.716145 L 352.613545 148.747145 L 348.768545 151.849145 L 344.942545 154.975145 L 341.116545 158.101145 L 337.289545 161.227145 L 333.470545 164.362145 L 329.680545 167.531145 L 325.913545 170.728145 L 322.149545 173.930145 L 318.387545 177.132145 L 314.638545 180.351145 L 310.981545 183.673145 L 307.391545 187.068145 L 303.911545 190.575145 L 300.510545 194.158145 L 297.177545 197.806145" fill="none" id="24" stroke="#57b870" stroke-width="0.5" /><path d="M 480.390545 121.153145 L 476.506545 118.005145 L 472.314545 115.281145 L 467.815545 113.103145 L 463.019545 111.697145 L 458.074545 110.977145 L 453.093545 110.554145 L 448.102545 110.264145 L 443.109545 110.022145 L 438.111545 110.075145 L 433.149545 110.656145 L 428.244545 111.614145 L 423.365545 112.703145 L 418.495545 113.836145 L 413.656545 115.089145 L 408.855545 116.481145 L 404.094545 118.008145 L 399.418545 119.770145 L 394.772545 121.617145 L 390.145545 123.510145 L 385.581545 125.547145 L 381.083545 127.728145 L 376.605545 129.952145 L 372.146545 132.212145 L 367.764545 134.616145 L 363.489545 137.205145 L 359.307545 139.944145 L 355.218545 142.819145 L 351.227545 145.829145 L 347.344545 148.976145 L 343.543545 152.223145 L 339.770545 155.503145 L 335.999545 158.786145 L 332.228545 162.068145 L 328.460545 165.354145 L 324.714545 168.665145 L 321.005545 172.017145 L 317.315545 175.390145 L 313.627545 178.765145 L 309.952545 182.154145 L 306.320545 185.589145 L 302.733545 189.072145 L 299.166545 192.574145 L 295.637545 196.115145 L 292.178545 199.724145 L 288.747545 203.360145 L 285.317545 206.998145 L 281.889545 210.636145 L 278.468545 214.282145 L 275.083545 217.961145 L 271.734545 221.673145 L 268.391545 225.390145 L 265.048545 229.108145 L 261.706545 232.826145 L 258.376545 236.555145 L 255.105545 240.335145 L 251.874545 244.150145 L 248.708545 248.019145 L 245.587545 251.924145" fill="none" id="25" stroke="#57b870" stroke-width="0.5" /><path d="M 478.752545 125.924145 L 476.287545 121.647145 L 473.243545 117.763145 L 469.531545 114.512145 L 465.331545 111.916145 L 461.030545 109.492145 L 456.588545 107.335145 L 451.998545 105.517145 L 447.233545 104.224145 L 442.373545 103.362145 L 437.447545 103.044145 L 432.511545 103.079145 L 427.601545 103.578145 L 422.721545 104.325145 L 417.900545 105.385145 L 413.141545 106.699145 L 408.433545 108.184145 L 403.776545 109.824145 L 399.152545 111.556145 L 394.553545 113.352145 L 389.959545 115.163145 L 385.397545 117.049145 L 380.913545 119.115145 L 376.535545 121.394145 L 372.220545 123.795145 L 367.999545 126.354145 L 363.873545 129.065145 L 359.776545 131.821145 L 355.682545 134.580145 L 351.621545 137.389145 L 347.659545 140.334145 L 343.790545 143.400145 L 339.970545 146.529145 L 336.222545 149.742145 L 332.521545 153.010145 L 328.820545 156.279145 L 325.119545 159.547145 L 321.432545 162.831145 L 317.801545 166.176145 L 314.279545 169.636145 L 310.864545 173.202145 L 307.494545 176.810145 L 304.154545 180.447145 L 300.884545 184.146145 L 297.689545 187.910145 L 294.555545 191.725145 L 291.429545 195.547145 L 288.360545 199.414145 L 285.391545 203.360145 L 282.432545 207.312145 L 279.472545 211.264145 L 276.513545 215.217145 L 273.564545 219.177145 L 270.659545 223.170145 L 267.801545 227.196145 L 264.943545 231.222145 L 262.084545 235.248145 L 259.226545 239.274145 L 256.374545 243.304145 L 253.589545 247.381145 L 250.918545 251.534145 L 248.248545 255.687145 L 245.579545 259.841145 L 242.910545 263.995145" fill="none" id="26" stroke="#57b870" stroke-width="0.5" /><path d="M 474.784545 109.554145 L 470.085545 107.871145 L 465.286545 106.502145 L 460.375545 105.615145 L 455.448545 104.823145 L 450.492545 104.228145 L 445.529545 103.709145 L 440.549545 103.374145 L 435.562545 103.185145 L 430.572545 103.237145 L 425.602545 103.677145 L 420.697545 104.583145 L 415.876545 105.870145 L 411.113545 107.360145 L 406.359545 108.878145 L 401.622545 110.450145 L 396.924545 112.133145 L 392.253545 113.890145 L 387.637545 115.786145 L 383.106545 117.878145 L 378.679545 120.180145 L 374.314545 122.601145 L 370.041545 125.177145 L 365.833545 127.860145 L 361.637545 130.563145 L 357.442545 133.267145 L 353.254545 135.981145 L 349.111545 138.763145 L 345.073545 141.695145 L 341.158545 144.789145 L 337.325545 147.985145 L 333.526545 151.221145 L 329.737545 154.470145 L 325.949545 157.719145 L 322.162545 160.970145 L 318.396545 164.245145 L 314.678545 167.574145 L 311.002545 170.949145 L 307.388545 174.391145 L 303.860545 177.920145 L 300.378545 181.496145 L 296.911545 185.086145 L 293.472545 188.703145 L 290.080545 192.364145 L 286.764545 196.093145 L 283.538545 199.900145 L 280.366545 203.753145 L 277.221545 207.628145 L 274.094545 211.518145 L 270.972545 215.412145 L 267.849545 219.306145 L 264.727545 223.199145 L 261.605545 227.093145 L 258.483545 230.987145 L 255.366545 234.885145 L 252.260545 238.791145 L 249.195545 242.729145 L 246.205545 246.725145 L 243.260545 250.754145 L 240.342545 254.803145 L 237.467545 258.882145 L 234.615545 262.979145 L 231.768545 267.078145 L 228.921545 271.177145 L 226.074545 275.276145 L 223.227545 279.375145 L 220.380545 283.474145 L 217.533545 287.573145 L 214.688545 291.674145 L 211.874545 295.795145 L 209.144545 299.973145 L 206.480545 304.193145 L 203.831545 308.423145 L 201.182545 312.653145 L 198.533545 316.883145 L 195.884545 321.113145 L 193.236545 325.343145 L 190.587545 329.572145 L 187.944545 333.806145 L 185.344545 338.066145 L 182.831545 342.378145 L 180.358545 346.713145 L 177.896545 351.054145 L 175.476545 355.419145 L 173.139545 359.829145 L 170.838545 364.258145 L 168.541545 368.688145 L 166.244545 373.119145 L 163.947545 377.550145 L 161.649545 381.980145 L 159.352545 386.411145 L 157.055545 390.842145 L 154.763545 395.275145 L 152.537545 399.742145 L 150.363545 404.235145 L 148.192545 408.728145 L 146.021545 413.222145 L 143.850545 417.716145 L 141.679545 422.210145 L 139.508545 426.704145" fill="none" id="27" stroke="#57b870" stroke-width="0.5" /><path d="M 503.571545 318.279145 L 504.460545 313.382145 L 505.284545 308.474145 L 505.994545 303.548145 L 506.674545 298.618145 L 507.270545 293.677145 L 507.824545 288.731145 L 508.196545 283.769145 L 508.432545 278.798145 L 508.490545 273.821145 L 508.489545 268.845145 L 508.268545 263.874145 L 507.812545 258.919145 L 507.343545 253.964145 L 506.992545 249.000145 L 506.795545 244.028145 L 506.717545 239.052145 L 506.671545 234.075145 L 506.625545 229.098145 L 506.580545 224.122145 L 506.529545 219.145145 L 506.437545 214.169145 L 506.284545 209.195145 L 506.067545 204.223145 L 505.700545 199.261145 L 505.160545 194.314145 L 504.553545 189.375145 L 503.943545 184.435145 L 503.333545 179.496145 L 502.714545 174.558145 L 502.045545 169.627145 L 501.302545 164.706145 L 500.492545 159.795145 L 499.593545 154.901145 L 498.582545 150.028145 L 497.468545 145.178145 L 496.161545 140.379145 L 494.471545 135.704145 L 492.264545 131.257145 L 489.555545 127.085145 L 486.521545 123.149145 L 483.045545 119.602145 L 479.167545 116.489145 L 475.079545 113.652145 L 470.844545 111.045145 L 466.411545 108.790145 L 461.803545 106.917145 L 457.053545 105.443145 L 452.206545 104.320145 L 447.306545 103.462145 L 442.353545 102.996145 L 437.379545 102.865145 L 432.407545 103.023145 L 427.472545 103.646145 L 422.614545 104.721145 L 417.814545 106.037145 L 413.048545 107.467145 L 408.353545 109.118145 L 403.749545 111.008145 L 399.169545 112.954145 L 394.626545 114.987145" fill="none" id="28" stroke="#57b870" stroke-width="0.5" /><path d="M 19.949645 374.428145 L 23.102645 376.683145 L 26.255245 378.938145 L 29.407545 381.193145 L 32.551945 383.460145 L 35.649045 385.791145 L 38.733045 388.139145 L 41.825645 390.475145 L 44.974745 392.734145 L 48.202345 394.880145 L 51.472545 396.961145 L 54.782245 398.978145 L 58.141745 400.911145 L 61.540345 402.775145 L 64.969245 404.582145 L 68.417145 406.353145 L 71.870045 408.114145 L 75.322845 409.876145 L 78.775745 411.637145 L 82.228645 413.398145 L 85.681545 415.159145 L 89.133245 416.923145 L 92.578045 418.700145 L 96.006545 420.508145 L 99.419245 422.346145 L 102.828545 424.190145 L 106.238545 426.034145 L 109.647545 427.878145 L 113.067545 429.702145 L 116.503545 431.497145 L 119.949545 433.271145" fill="none" id="29" stroke="#d271bb" stroke-width="0.5" /><path d="M 185.967545 104.763145 L 186.914545 105.832145 L 187.872545 106.885145 L 189.246545 107.078145 L 189.625545 105.925145 L 188.886545 104.702145 L 188.945545 103.339145 L 189.265545 101.955145 L 190.077545 100.779145 L 190.887545 99.602145 L 191.692545 98.422145 L 192.497545 97.241145 L 193.300545 96.060145 L 194.100545 94.876145 L 194.898545 93.690145 L 195.696545 92.505145 L 196.494545 91.320145 L 197.293545 90.135145 L 198.091545 88.950045 L 198.889545 87.764845 L 199.687545 86.579645 L 200.485545 85.394345 L 201.281545 84.208045 L 202.075545 83.020045 L 202.848545 81.818045 L 203.615545 80.612645 L 204.372545 79.400645 L 205.123545 78.185445 L 205.871545 76.967745 L 206.612545 75.745945 L 207.351545 74.522945" fill="none" id="30" stroke="#eed973" stroke-width="0.5" /><path d="M 192.428545 98.152145 L 193.148545 96.589145 L 193.867545 95.027145 L 194.660545 93.501145 L 195.464545 91.981145 L 196.354545 90.511145 L 197.276545 89.059045 L 198.251545 87.642945 L 199.263545 86.252745 L 200.276545 84.862445 L 201.288545 83.472245 L 202.305545 82.085145 L 203.332545 80.705645 L 204.363545 79.329245 L 205.417545 77.970045 L 206.471545 76.611045 L 207.565545 75.283845 L 208.659545 73.956645 L 209.789545 72.660445 L 210.925545 71.369145 L 212.082545 70.096045 L 213.246545 68.830045 L 214.415545 67.568845 L 215.588545 66.311345 L 216.779545 65.070845 L 217.994545 63.852945 L 219.213545 62.639645 L 220.442545 61.437345 L 221.675545 60.237645 L 222.922545 59.053545 L 224.170545 57.869445" fill="none" id="31" stroke="#eed973" stroke-width="0.5" /><path d="M 192.957545 99.846145 L 193.200545 97.588145 L 193.645545 95.367145 L 194.319545 93.210145 L 195.379545 91.202145 L 196.594545 89.285945 L 197.860545 87.401045 L 199.126545 85.516045 L 200.392545 83.631045 L 201.674545 81.756945 L 202.994545 79.909345 L 204.375545 78.107245 L 205.806545 76.345245 L 207.311545 74.645345 L 208.915545 73.038945 L 210.565545 71.479245 L 212.263545 69.971845 L 214.007545 68.518345 L 215.773545 67.090545 L 217.561545 65.690845 L 219.376545 64.327645 L 221.211545 62.989945 L 223.068545 61.683245 L 224.927545 60.378945 L 226.786545 59.074945 L 228.645545 57.770845 L 230.507545 56.470945 L 232.377545 55.184045 L 234.259545 53.912145 L 236.159545 52.668745 L 238.066545 51.436645 L 239.981545 50.215845" fill="none" id="32" stroke="#eed973" stroke-width="0.5" /><path d="M 212.201545 116.216145 L 208.094545 113.422145 L 203.718545 111.105145 L 199.085545 109.392145 L 194.230545 108.361145 L 189.271545 108.081145 L 184.323545 108.351145 L 179.424545 109.095145 L 174.603545 110.278145 L 169.948545 112.011145 L 165.500545 114.201145 L 161.236545 116.735145 L 157.162545 119.569145 L 153.437545 122.855145 L 149.779545 126.214145 L 146.321545 129.767145 L 143.123545 133.566145 L 140.157545 137.550145 L 137.464545 141.720145 L 135.069545 146.062145 L 132.987545 150.569145 L 131.219545 155.210145 L 129.685545 159.932145 L 128.432545 164.732145 L 127.516545 169.609145 L 127.125545 174.560145 L 126.926545 179.522145 L 127.016545 184.481145 L 127.485545 189.418145 L 128.577545 194.263145 L 130.053545 199.002145 L 131.949545 203.578145 L 134.304545 207.939145 L 137.231545 211.951145 L 140.895545 215.280145 L 145.019545 217.990145 L 149.481545 220.158145 L 154.131545 221.904145 L 159.037545 222.581145 L 163.989545 222.739145 L 168.936545 222.420145 L 173.826545 221.556145 L 178.596545 220.178145 L 183.272545 218.519145 L 187.829545 216.558145 L 192.212545 214.223145 L 196.552545 211.807145 L 200.644545 209.015145 L 204.522545 205.916145 L 208.249545 202.633145 L 211.704545 199.066145 L 215.041545 195.389145 L 218.245545 191.596145 L 221.286545 187.670145 L 224.161545 183.620145 L 226.813545 179.425145 L 229.198545 175.075145 L 231.276545 170.564145 L 232.983545 165.900145 L 234.368545 161.136145 L 235.394545 156.285145 L 236.029545 151.360145 L 236.105545 146.394145 L 235.907545 141.434145 L 235.187545 136.549145 L 233.741545 131.801145 L 231.516545 127.361145 L 228.803545 123.216145 L 225.710545 119.342145 L 222.277545 115.761145 L 218.267545 112.831145 L 213.988545 110.327145 L 209.507545 108.207145 L 204.855545 106.478145 L 200.023545 105.329145 L 195.114545 104.614145 L 190.167545 104.264145 L 185.203545 104.262145 L 180.253545 104.671145 L 175.399545 105.675145 L 170.592545 106.920145 L 165.833545 108.330145 L 161.223545 110.178145 L 156.697545 112.221145 L 152.268545 114.462145 L 147.958545 116.925145 L 143.842545 119.703145 L 139.990545 122.832145 L 136.344545 126.198145 L 132.885545 129.760145 L 129.597545 133.483145 L 126.566545 137.414145 L 123.844545 141.558145 L 121.443545 145.902145 L 119.356545 150.409145 L 117.698545 155.087145 L 116.192545 159.819145 L 114.849545 164.597145 L 113.860545 169.464145 L 113.236545 174.390145 L 112.931545 179.341145 L 113.019545 184.296145 L 113.707545 189.215145 L 114.988545 194.009145 L 116.621545 198.693145 L 118.621545 203.229145 L 121.090545 207.538145 L 124.403545 211.226145 L 127.864545 214.787145 L 131.559545 218.070145 L 135.750545 220.736145 L 140.258545 222.815145 L 144.889545 224.596145 L 149.626545 226.070145 L 154.462545 227.201145 L 159.377545 227.913145 L 164.321545 228.343145 L 169.282545 228.531145 L 174.248545 228.524145 L 179.210545 228.295145 L 184.153545 227.842145 L 189.073545 227.177145 L 193.965545 226.318145" fill="none" id="33" stroke="#d55969" stroke-width="0.5" /><path d="M 185.870545 111.798145 L 180.912545 111.302145 L 175.953545 110.806145 L 170.995545 110.310145 L 166.031545 110.463145 L 161.065545 110.875145 L 156.099545 111.288145 L 151.240545 112.223145 L 146.512545 113.799145 L 141.784545 115.374145 L 137.142545 117.124145 L 132.980545 119.865145 L 128.818545 122.606145 L 124.656545 125.346145 L 121.290545 128.983145 L 118.079545 132.794145 L 114.867545 136.604145 L 112.023545 140.676145 L 109.475545 144.958145 L 106.927545 149.241145 L 104.654545 153.641145 L 103.324545 158.443145 L 101.995545 163.246145 L 100.665545 168.049145 L 101.288545 172.970145 L 102.025545 177.898145 L 102.763545 182.827145 L 104.803545 187.265145 L 107.498545 191.456145 L 110.193545 195.648145 L 113.223545 199.556145 L 116.912545 202.906145 L 120.602545 206.255145 L 124.393545 209.410145 L 129.251545 210.519145 L 134.110545 211.628145 L 138.968545 212.737145 L 143.918545 212.736145 L 148.892545 212.438145 L 153.867545 212.141145 L 158.691545 211.139145 L 163.353545 209.381145 L 168.016545 207.622145 L 172.598545 205.699145 L 176.843545 203.089145 L 181.088545 200.480145 L 185.334545 197.870145 L 189.121545 194.646145 L 192.837545 191.326145 L 196.553545 188.005145 L 199.612545 184.141145 L 202.175545 179.868145 L 204.737545 175.594145 L 206.913545 171.165145 L 208.018545 166.306145 L 209.122545 161.446145 L 210.226545 156.587145 L 209.272545 151.712145 L 208.241545 146.837145 L 207.210545 141.961145 L 205.052545 137.553145 L 202.334545 133.376145 L 199.616545 129.199145 L 196.601545 125.261145 L 193.107545 121.708145 L 189.613545 118.154145 L 186.018545 114.782145 L 181.171545 113.623145 L 176.324545 112.464145 L 171.478545 111.305145 L 166.534545 111.301145 L 161.561545 111.631145 L 156.589545 111.961145 L 151.780545 113.009145 L 147.153545 114.859145 L 142.525545 116.709145 L 138.023545 118.775145 L 134.101545 121.849145 L 130.178545 124.923145 L 126.256545 127.996145 L 123.074545 131.809145 L 120.008545 135.738145 L 116.943545 139.666145 L 114.704545 144.035145 L 113.159545 148.772145 L 111.613545 153.510145 L 110.441545 158.305145 L 110.492545 163.288145 L 110.542545 168.271145 L 110.593545 173.254145 L 111.107545 178.208145 L 111.670545 183.160145 L 112.233545 188.111145 L 114.121545 192.589145 L 116.823545 196.776145 L 119.526545 200.963145 L 122.586545 204.849145 L 126.240545 208.237145 L 129.894545 211.625145 L 133.606545 214.903145 L 138.474545 215.968145 L 143.343545 217.033145 L 148.211545 218.098145 L 153.143545 217.975145 L 158.098545 217.441145 L 163.052545 216.908145 L 167.818545 215.685145 L 172.354545 213.621145 L 176.889545 211.557145 L 181.302545 209.304145 L 185.028545 205.994145 L 188.753545 202.684145 L 192.478545 199.374145 L 195.472545 195.411145 L 198.339545 191.336145 L 201.207545 187.260145 L 203.524545 182.887145 L 205.361545 178.255145 L 207.199545 173.623145 L 208.978545 168.970145 L 210.550545 164.241145 L 212.123545 159.512145 L 213.696545 154.784145 L 213.977545 149.829145 L 214.105545 144.847145 L 214.234545 139.866145 L 213.280545 135.064145 L 211.546545 130.393145 L 209.811545 125.721145 L 207.634545 121.307145 L 204.424545 117.496145 L 201.214545 113.684145 L 198.003545 109.873145 L 193.611545 107.542145 L 189.184545 105.256145 L 184.756545 102.970145 L 179.926545 102.399145 L 174.943545 102.480145 L 169.961545 102.562145 L 165.082545 103.283145 L 160.329545 104.781145 L 155.577545 106.280145 L 150.862545 107.872145 L 146.423545 110.135145 L 141.983545 112.398145 L 137.543545 114.661145 L 133.835545 117.943145 L 130.272545 121.427145 L 126.709545 124.911145 L 123.551545 128.733145 L 120.752545 132.856145 L 117.953545 136.979145 L 115.326545 141.196145 L 113.352545 145.772145 L 111.377545 150.347145 L 109.403545 154.923145 L 108.805545 159.844145 L 108.383545 164.809145 L 107.961545 169.775145 L 107.741545 174.750145 L 107.675545 179.733145 L 107.608545 184.716145 L 108.166545 189.552145 L 110.444545 193.984145 L 112.721545 198.416145 L 115.018545 202.834145 L 118.768545 206.116145 L 122.518545 209.398145 L 126.268545 212.680145 L 130.881545 214.198145 L 135.773545 215.144145 L 140.666545 216.091145 L 145.557545 216.172145 L 150.447545 215.214145 L 155.337545 214.255145 L 160.216545 213.247145 L 165.030545 211.958145 L 169.844545 210.669145 L 174.657545 209.381145 L 178.974545 206.955145 L 183.188545 204.295145 L 187.402545 201.635145 L 191.281545 198.553145 L 194.839545 195.064145 L 198.397545 191.574145 L 201.811545 187.965145 L 204.611545 183.843145 L 207.412545 179.721145 L 210.213545 175.600145 L 212.030545 170.978145 L 213.708545 166.286145 L 215.386545 161.594145 L 216.629545 156.783145 L 217.558545 151.887145 L 218.488545 146.991145 L 219.148545 142.074145 L 219.014545 137.093145 L 218.881545 132.111145 L 218.747545 127.130145 L 216.137545 122.915145 L 213.431545 118.731145 L 210.724545 114.547145 L 207.296545 110.999145 L 203.486545 107.787145 L 199.675545 104.576145 L 195.438545 102.221145 L 190.579545 101.113145 L 185.721545 100.006145 L 180.861545 99.164145 L 175.990545 100.218145 L 171.119545 101.271145 L 166.249545 102.324145 L 161.855545 104.597145 L 157.561545 107.125145 L 153.267545 109.654145 L 149.134545 112.425145 L 145.145545 115.412145 L 141.156545 118.399145 L 137.338545 121.563145 L 134.212545 125.443145 L 131.085545 129.323145 L 127.958545 133.204145 L 125.851545 137.701145 L 123.863545 142.271145 L 121.875545 146.840145 L 120.631545 151.620145 L 119.936545 156.554145 L 119.242545 161.489145 L 118.635545 166.433145 L 118.294545 171.404145 L 117.954545 176.376145 L 117.613545 181.347145 L 119.018545 186.112145 L 120.513545 190.866145 L 122.008545 195.619145 L 124.471545 199.878145 L 127.449545 203.873145 L 130.428545 207.869145 L 133.978545 211.133145 L 138.571545 213.067145 L 143.164545 215.000145 L 147.788545 216.804145 L 152.758545 217.163145 L 157.728545 217.523145 L 162.699545 217.882145 L 167.188545 215.974145 L 171.585545 213.628145 L 175.981545 211.283145 L 180.224545 208.682145 L 184.338545 205.870145 L 188.452545 203.058145 L 192.321545 199.985145 L 195.403545 196.069145 L 198.484545 192.152145 L 201.566545 188.236145 L 203.642545 183.718145 L 205.634545 179.151145 L 207.627545 174.583145 L 208.857545 169.794145 L 209.618545 164.870145 L 210.379545 159.945145 L 210.671545 155.020145 L 209.913545 150.095145 L 209.154545 145.170145 L 208.374545 140.249145 L 206.878545 135.496145 L 205.381545 130.743145 L 203.885545 125.990145 L 201.399545 121.732145 L 198.490545 117.686145 L 195.581545 113.640145 L 191.961545 110.448145 L 187.455545 108.319145 L 182.950545 106.190145 L 178.388545 104.307145 L 173.405545 104.294145 L 168.422545 104.281145 L 163.439545 104.268145 L 158.825545 106.004145 L 154.274545 108.034145 L 149.723545 110.064145 L 145.614545 112.785145 L 141.861545 116.063145 L 138.109545 119.342145 L 134.488545 122.751145 L 131.244545 126.534145 L 128.000545 130.317145 L 124.756545 134.100145 L 122.215545 138.380145 L 119.726545 142.697145 L 117.237545 147.014145 L 115.188545 151.541145 L 113.412545 156.197145 L 111.635545 160.852145 L 110.046545 165.567145 L 108.864545 170.408145 L 107.682545 175.249145 L 106.500545 180.090145" fill="none" id="34" stroke="#d55969" stroke-width="0.5" /><path d="M 196.705545 116.924145 L 192.042545 115.305145 L 187.243545 114.156145 L 182.341545 113.622145 L 177.417545 113.783145 L 172.592545 114.744145 L 167.895545 116.244145 L 163.317545 118.085145 L 158.864545 120.208145 L 154.530545 122.567145 L 150.290545 125.094145 L 146.151545 127.780145 L 142.170545 130.697145 L 138.332545 133.800145 L 134.635545 137.071145 L 131.099545 140.515145 L 127.909545 144.283145 L 125.041545 148.299145 L 122.427545 152.485145 L 120.048545 156.808145 L 117.929545 161.264145 L 116.255545 165.899145 L 114.835545 170.627145 L 113.829545 175.444145 L 113.390545 180.356145 L 113.395545 185.285145 L 113.966545 190.176145 L 115.243545 194.934145 L 117.228545 199.442145 L 119.954545 203.553145 L 123.207545 207.266145 L 126.878545 210.566145 L 131.166545 212.997145 L 135.777545 214.738145 L 140.565545 215.915145 L 145.449545 216.594145 L 150.374545 216.834145 L 155.305545 216.692145 L 160.191545 216.064145 L 164.984545 214.912145 L 169.619545 213.248145 L 174.092545 211.159145 L 178.496545 208.939145 L 182.689545 206.337145 L 186.710545 203.474145 L 190.622545 200.464145 L 194.410545 197.298145 L 198.080545 193.998145 L 201.603545 190.540145 L 204.945545 186.909145 L 208.076545 183.095145 L 210.982545 179.108145 L 213.693545 174.984145 L 216.173545 170.719145 L 218.304545 166.274145 L 219.991545 161.642145 L 221.223545 156.866145 L 222.076545 152.006145 L 222.653545 147.105145 L 222.912545 142.176145 L 222.941545 137.239145" fill="none" id="35" stroke="#d55969" stroke-width="0.5" /><path d="M 199.225545 105.420145 L 194.229545 105.511145 L 189.258545 106.020145 L 184.382545 107.108145 L 179.642545 108.686145 L 175.089545 110.740145 L 170.720545 113.162145 L 166.554545 115.919145 L 162.478545 118.809145 L 158.512545 121.848145 L 154.731545 125.112145 L 151.087545 128.531145 L 147.660545 132.165145 L 144.401545 135.952145 L 141.425545 139.962145 L 138.772545 144.193145 L 136.363545 148.569145 L 134.196545 153.070145 L 132.302545 157.692145 L 130.610545 162.393145 L 129.132545 167.165145 L 127.902545 172.006145 L 126.892545 176.899145 L 126.173545 181.841145 L 125.753545 186.818145 L 125.502545 191.808145 L 125.469545 196.803145 L 125.858545 201.778145 L 126.845545 206.664145 L 128.470545 211.378145 L 130.689545 215.843145 L 133.578545 219.892145 L 137.063545 223.461145 L 140.933545 226.609145 L 145.196545 229.181145 L 149.810545 231.068145 L 154.642545 232.286145 L 159.599545 232.842145 L 164.591545 232.876145 L 169.558545 232.413145 L 174.438545 231.374145 L 179.194545 229.852145 L 183.837545 228.010145 L 188.359545 225.889145 L 192.763545 223.528145 L 197.098545 221.046145 L 201.282545 218.319145 L 205.265545 215.303145 L 209.078545 212.077145 L 212.652545 208.588145 L 215.980545 204.862145 L 219.124545 200.979145 L 222.153545 197.006145 L 224.912545 192.841145 L 227.508545 188.572145 L 229.814545 184.141145 L 231.761545 179.540145 L 233.404545 174.821145 L 234.844545 170.036145 L 235.998545 165.175145 L 236.957545 160.271145" fill="none" id="36" stroke="#d55969" stroke-width="0.5" /><path d="M 218.721545 123.350145 L 217.723545 123.103145 L 216.726545 122.857145 L 215.721545 122.644145 L 214.716545 122.430145 L 213.705545 122.245145 L 212.695545 122.059145 L 211.681545 121.895145 L 210.667545 121.730145 L 209.648545 121.598145 L 208.629545 121.466145 L 207.607545 121.361145 L 206.585545 121.255145 L 205.561545 121.166145 L 204.538545 121.077145 L 203.513545 121.013145 L 202.487545 120.948145 L 201.461545 120.906145 L 200.434545 120.864145 L 199.407545 120.837145 L 198.380545 120.809145 L 197.353545 120.808145 L 196.325545 120.807145 L 195.298545 120.810145 L 194.271545 120.814145 L 193.243545 120.824145 L 192.216545 120.835145 L 191.189545 120.844145 L 190.161545 120.854145 L 189.134545 120.861145 L 188.107545 120.869145" fill="none" id="37" stroke="#d55969" stroke-width="0.5" /><path d="M 186.154545 107.665145 L 186.362545 108.135145 L 186.570545 108.606145 L 186.778545 109.077145 L 186.986545 109.548145 L 187.193545 110.019145 L 187.401545 110.490145 L 187.610545 110.961145 L 187.818545 111.432145 L 188.023545 111.904145 L 188.227545 112.377145 L 188.427545 112.851145 L 188.628545 113.325145 L 188.798545 113.811145 L 188.969545 114.297145 L 189.102545 114.794145 L 189.236545 115.291145 L 189.323545 115.799145 L 189.410545 116.306145 L 189.463545 116.818145 L 189.516545 117.330145 L 189.544545 117.844145 L 189.572545 118.358145 L 189.589545 118.873145 L 189.607545 119.387145 L 189.609545 119.902145 L 189.612545 120.417145 L 189.602545 120.932145 L 189.591545 121.447145 L 189.573545 121.961145 L 189.555545 122.476145" fill="none" id="38" stroke="#d55969" stroke-width="0.5" /><path d="M 131.477545 211.153145 L 132.290545 211.083145 L 133.104545 211.014145 L 133.901545 210.835145 L 134.696545 210.653145 L 135.446545 210.330145 L 136.195545 210.004145 L 136.906545 209.603145 L 137.617545 209.201145 L 138.307545 208.764145 L 138.996545 208.326145 L 139.674545 207.871145 L 140.352545 207.415145 L 141.022545 206.948145 L 141.691545 206.481145 L 142.342545 205.988145 L 142.993545 205.495145 L 143.629545 204.983145 L 144.265545 204.471145 L 144.867545 203.919145 L 145.469545 203.367145 L 146.063545 202.807145 L 146.656545 202.246145 L 147.217545 201.653145 L 147.779545 201.060145 L 148.337545 200.464145 L 148.895545 199.868145 L 149.445545 199.264145 L 149.994545 198.659145 L 150.531545 198.044145 L 151.067545 197.428145" fill="none" id="39" stroke="#d55969" stroke-width="0.5" /></svg>