<?xml version="1.0" encoding="utf-8" ?>
<svg baseProfile="full" height="402.5" version="1.1" viewBox="0,0,769.5,402.5" width="769.5" xmlns="http://www.w3.org/2000/svg" xmlns:ev="http://www.w3.org/2001/xml-events" xmlns:xlink="http://www.w3.org/1999/xlink"><defs><style type="text/css"><![CDATA[
	.background { fill: white; }
	.line { stroke: firebrick; stroke-width: .1mm; }
	.blacksquare { fill: indigo; }
	.whitesquare { fill: white; }
]]></style></defs><rect class="background" height="100%" width="100%" x="0" y="0" /><path d="M 555.840550 210.108270 L 557.489184 209.790181 L 556.375990 209.706690" fill="none" id="1" stroke="black" stroke-width="0.5" /><path d="M 96.155510 30.037400 L 93.625005 29.273378 L 94.612210 30.013780" fill="none" id="7" stroke="black" stroke-width="0.5" /><path d="M 712.250000 130.572830 L 709.059921 128.271471 L 705.448985 126.577692 L 701.660336 125.294674 L 697.871687 124.011656 L 694.079701 122.739357 L 690.232050 121.645932 L 686.384398 120.552507 L 682.536747 119.459082 L 678.689095 118.365657 L 674.841444 117.272232 L 670.993793 116.178807 L 667.146141 115.085382 L 663.298490 113.991957 L 659.444589 112.920889 L 655.587669 111.860620 L 651.730749 110.800352 L 647.873829 109.740083 L 644.016909 108.679815 L 640.159990 107.619546 L 636.303070 106.559277 L 632.446150 105.499009 L 628.589230 104.438740 L 624.732310 103.378472 L 620.875390 102.318203 L 617.018471 101.257934 L 613.161551 100.197666 L 609.304631 99.137397 L 605.447711 98.077129 L 601.590791 97.016860 L 597.733872 95.956591 L 593.876952 94.896323 L 590.020032 93.836054 L 586.163112 92.775786 L 582.306192 91.715517 L 578.449272 90.655248 L 574.592353 89.594980 L 570.735433 88.534711 L 566.878513 87.474443 L 563.021593 86.414174 L 559.164673 85.353905 L 555.307753 84.293637 L 551.450834 83.233368 L 547.593914 82.173100 L 543.736994 81.112831 L 539.880074 80.052562 L 536.023154 78.992294 L 532.166235 77.932025 L 528.309315 76.871757 L 524.452395 75.811488 L 520.595475 74.751219 L 516.738555 73.690951 L 512.881635 72.630682 L 509.024716 71.570414 L 505.167796 70.510145 L 501.284371 69.554346 L 497.388494 68.647623 L 493.492618 67.740900 L 489.596741 66.834178 L 485.700865 65.927455 L 481.804988 65.020732 L 477.909112 64.114010 L 474.013235 63.207287 L 470.117358 62.300564 L 466.221482 61.393842 L 462.325229 60.488803 L 458.414323 59.649271 L 454.503417 58.809738 L 450.592511 57.970206 L 446.681605 57.130674 L 442.770699 56.291142 L 438.859793 55.451610 L 434.948887 54.612078 L 431.037981 53.772546 L 427.127075 52.933014 L 423.216169 52.093482 L 419.305263 51.253950 L 415.394357 50.414418 L 411.483451 49.574885 L 407.572545 48.735353 L 403.661638 47.895821 L 399.750732 47.056289 L 395.839826 46.216757 L 391.928920 45.377225 L 388.000490 44.625335 L 384.067462 43.896437 L 380.134434 43.167540 L 376.201406 42.438642 L 372.268379 41.709744 L 368.335351 40.980847 L 364.402323 40.251949 L 360.469295 39.523052 L 356.536267 38.794154 L 352.603239 38.065256 L 348.670211 37.336359 L 344.737183 36.607461 L 340.804155 35.878564 L 336.871128 35.149666 L 332.938100 34.420768 L 329.005072 33.691871 L 325.072044 32.962973 L 321.139016 32.234076 L 317.205988 31.505178 L 313.272960 30.776280 L 309.339932 30.047383 L 305.406905 29.318485 L 301.473877 28.589588 L 297.540849 27.860690 L 293.607821 27.131792 L 289.674793 26.402895 L 285.741765 25.673997 L 281.808737 24.945100 L 277.875709 24.216202 L 273.941786 23.492385 L 269.996673 22.832015 L 266.051561 22.171646 L 262.106448 21.511276 L 258.161336 20.850907 L 254.216224 20.190537 L 250.271111 19.530168 L 246.325999 18.869798 L 242.372782 18.260744 L 238.416178 17.673131 L 234.459575 17.085518 L 230.502971 16.497904 L 226.546368 15.910291 L 222.589764 15.322678 L 218.633161 14.735065 L 214.670909 14.188612 L 210.702271 13.688701 L 206.733633 13.188790 L 202.764995 12.688879 L 198.796357 12.188968 L 194.827718 11.689057 L 190.859080 11.189146 L 186.890442 10.689236 L 182.921804 10.189325 L 178.953166 9.689414 L 174.984528 9.189503 L 171.015889 8.689592 L 167.047251 8.189681 L 163.078613 7.689770 L 159.109975 7.189859 L 155.141337 6.689948 L 151.172456 6.192136 L 147.194290 5.774768 L 143.216124 5.357399 L 139.237959 4.940030 L 135.259793 4.522662 L 131.281627 4.105293 L 127.303461 3.687924 L 123.325295 3.270555 L 119.347129 2.853187 L 115.360355 2.536848 L 111.368925 2.275149 L 107.377495 2.013451 L 103.386065 1.751752 L 99.394635 1.490054 L 95.403205 1.228355 L 91.411775 0.966657 L 87.418451 0.748569 L 83.419361 0.663208 L 79.420272 0.577846 L 75.421183 0.492485 L 71.422094 0.407123 L 67.423005 0.321762 L 64.061030 0.250000" fill="none" id="16" stroke="black" stroke-width="0.5" /><path d="M 142.360240 0.557080 L 146.207583 1.651589 L 150.125776 2.442409 L 154.070003 3.104028 L 158.028588 3.678139 L 161.987173 4.252250 L 165.945758 4.826360 L 169.904344 5.400471 L 173.862929 5.974582 L 177.821514 6.548693 L 181.780099 7.122804 L 185.738684 7.696915 L 189.697269 8.271026 L 193.655855 8.845137 L 197.614440 9.419248 L 201.573025 9.993359 L 205.531610 10.567470 L 209.490195 11.141581 L 213.448781 11.715691 L 217.407366 12.289802 L 221.365951 12.863913 L 225.324536 13.438024 L 229.279662 14.034925 L 233.230314 14.661305 L 237.180965 15.287684 L 241.131617 15.914064 L 245.082269 16.540443 L 249.032921 17.166823 L 252.983572 17.793202 L 256.924164 18.479018 L 260.860908 19.187572 L 264.797652 19.896126 L 268.734396 20.604680 L 272.671139 21.313234 L 276.607883 22.021788 L 280.544627 22.730342 L 284.481371 23.438896 L 288.418114 24.147450 L 292.354858 24.856004 L 296.291602 25.564558 L 300.228345 26.273112 L 304.165089 26.981666 L 308.101833 27.690220 L 312.038577 28.398775 L 315.975320 29.107329 L 319.905313 29.852374 L 323.834982 30.599169 L 327.764650 31.345965 L 331.694319 32.092760 L 335.623988 32.839556 L 339.553657 33.586351 L 343.483325 34.333147 L 347.412994 35.079942 L 351.342663 35.826738 L 355.272332 36.573533 L 359.202000 37.320328 L 363.131669 38.067124 L 367.061338 38.813919 L 370.991007 39.560715 L 374.920675 40.307510 L 378.850344 41.054306 L 382.780013 41.801101 L 386.709682 42.547897 L 390.639350 43.294692 L 394.569019 44.041488 L 398.498688 44.788283 L 402.427510 45.539339 L 406.344244 46.351247 L 410.260978 47.163156 L 414.177712 47.975065 L 418.094446 48.786974 L 422.011180 49.598882 L 425.927914 50.410791 L 429.844648 51.222700 L 433.761381 52.034609 L 437.678115 52.846517 L 441.594849 53.658426 L 445.511583 54.470335 L 449.428317 55.282243 L 453.345051 56.094152 L 457.261785 56.906061 L 461.178519 57.717970 L 465.095252 58.529878 L 469.011986 59.341787 L 472.928720 60.153696 L 476.845454 60.965604 L 480.762188 61.777513 L 484.678922 62.589422 L 488.595656 63.401331 L 492.512390 64.213239 L 496.429123 65.025148 L 500.345857 65.837057 L 504.257066 66.674310 L 508.156362 67.566213 L 512.055658 68.458116 L 515.954954 69.350019 L 519.848871 70.264713 L 523.735467 71.210425 L 527.622063 72.156137 L 531.508659 73.101850 L 535.395255 74.047562 L 539.281851 74.993274 L 543.168447 75.938987 L 547.055043 76.884699 L 550.934602 77.858495 L 554.807933 78.857148 L 558.681264 79.855801 L 562.554595 80.854454 L 566.427926 81.853107 L 570.301257 82.851760 L 574.174587 83.850413 L 578.047918 84.849066 L 581.921249 85.847719 L 585.794580 86.846372 L 589.667911 87.845025 L 593.541242 88.843678 L 597.409159 89.862649 L 601.265834 90.923806 L 605.122509 91.984964 L 608.979185 93.046121 L 612.835860 94.107278 L 616.692536 95.168435 L 620.549211 96.229592 L 624.405887 97.290750 L 628.261726 98.354847 L 632.099429 99.482693 L 635.937132 100.610538 L 639.774834 101.738384 L 643.612537 102.866230 L 647.450240 103.994075 L 651.287943 105.121921 L 655.125646 106.249767 L 658.963349 107.377613 L 662.801052 108.505458 L 666.638755 109.633304 L 670.476458 110.761150 L 674.314161 111.888995 L 678.136183 113.067942 L 681.945946 114.286838 L 685.755708 115.505735 L 689.565471 116.724632 L 693.375233 117.943529 L 697.184996 119.162426 L 700.994758 120.381323 L 704.804521 121.600220 L 708.605235 122.845953 L 712.375295 124.182610 L 716.145354 125.519266 L 719.915414 126.855923 L 723.685474 128.192579 L 727.455533 129.529236 L 731.225593 130.865893 L 734.995652 132.202549 L 738.765712 133.539206 L 742.511167 134.943249 L 746.255521 136.350308 L 749.999874 137.757367 L 753.744228 139.164425 L 757.488582 140.571484 L 761.232936 141.978543 L 764.977290 143.385601 L 768.721644 144.792660 L 769.163390 144.958660" fill="none" id="17" stroke="black" stroke-width="0.5" /><path d="M 0.250000 42.013780 L 3.358067 44.160573 L 5.825666 47.308740 L 8.293266 50.456906 L 10.760865 53.605073 L 13.473963 56.536090 L 16.297308 59.369589 L 19.120654 62.203089 L 22.061805 64.910264 L 25.085214 67.529233 L 28.108623 70.148202 L 31.132032 72.767171 L 34.155441 75.386140 L 37.178850 78.005109 L 40.202259 80.624078 L 43.225668 83.243046 L 46.249077 85.862015 L 49.272486 88.480984 L 52.346079 91.040204 L 55.447873 93.565846 L 58.549668 96.091489 L 61.651462 98.617132 L 64.753257 101.142774 L 67.855051 103.668417 L 70.971764 106.174767 L 74.196581 108.541316 L 77.421398 110.907865 L 80.646215 113.274415 L 83.871033 115.640964 L 87.095850 118.007513 L 90.320667 120.374062 L 93.545484 122.740611 L 96.770301 125.107160 L 99.995118 127.473709 L 103.219935 129.840258 L 106.444752 132.206808 L 109.669569 134.573357 L 112.894386 136.939906 L 116.119203 139.306455 L 119.344021 141.673004 L 122.568838 144.039553 L 125.793655 146.406102 L 129.018472 148.772651 L 132.243289 151.139201 L 135.483657 153.483578 L 138.806910 155.709783 L 142.130163 157.935988 L 145.453417 160.162192 L 148.776670 162.388397 L 152.099924 164.614602 L 155.423177 166.840806 L 158.746430 169.067011 L 162.069684 171.293215 L 165.392937 173.519420 L 168.716190 175.745625 L 172.039444 177.971829 L 175.362697 180.198034 L 178.685951 182.424238 L 182.009204 184.650443 L 185.332457 186.876648 L 188.655711 189.102852 L 191.978964 191.329057 L 195.311808 193.540810 L 198.654188 195.738195 L 201.996567 197.935579 L 205.338947 200.132964 L 208.724451 202.262831 L 212.123544 204.371425 L 215.522637 206.480019 L 218.921730 208.588613 L 222.320823 210.697206 L 225.719916 212.805800 L 229.119009 214.914394 L 232.518102 217.022987 L 235.917194 219.131581 L 239.316287 221.240175 L 242.715380 223.348769 L 246.114473 225.457362 L 249.513566 227.565956 L 252.912659 229.674550 L 256.311752 231.783143 L 259.710845 233.891737 L 263.109938 236.000331 L 266.509031 238.108924 L 269.908124 240.217518 L 273.307216 242.326112 L 276.765102 244.336376 L 280.231346 246.332660 L 283.697591 248.328944 L 287.163835 250.325228 L 290.630079 252.321513 L 294.096324 254.317797 L 297.562568 256.314081 L 301.028812 258.310365 L 304.495056 260.306649 L 307.961301 262.302933 L 311.427545 264.299218 L 314.893789 266.295502 L 318.360034 268.291786 L 321.826278 270.288070 L 325.292522 272.284354 L 328.758766 274.280638 L 332.225011 276.276923 L 335.691255 278.273207 L 339.157499 280.269491 L 342.623744 282.265775 L 346.089988 284.262059 L 349.556232 286.258343 L 353.022477 288.254628 L 356.488721 290.250912 L 359.954965 292.247196 L 363.426697 294.233819 L 366.916455 296.188707 L 370.406214 298.143595 L 373.895972 300.098484 L 377.385730 302.053372 L 380.875488 304.008260 L 384.365246 305.963149 L 387.855004 307.918037 L 391.344762 309.872925 L 394.834520 311.827814 L 398.324278 313.782702 L 401.814036 315.737590 L 405.303795 317.692479 L 408.793553 319.647367 L 412.283311 321.602255 L 415.773069 323.557144 L 419.262827 325.512032 L 422.752585 327.466920 L 426.242343 329.421809 L 429.732101 331.376697 L 433.221859 333.331585 L 436.711617 335.286474 L 440.201376 337.241362 L 443.691134 339.196250 L 447.180892 341.151139 L 450.670650 343.106027 L 454.160408 345.060915 L 454.202760 345.084640" fill="none" id="18" stroke="black" stroke-width="0.5" /><path d="M 510.643700 241.124010 L 511.118628 240.985476 L 510.213452 240.466868 L 508.383394 236.910059 L 508.375990 236.895670" fill="none" id="20" stroke="black" stroke-width="0.5" /><path d="M 499.966540 242.635820 L 499.995838 238.635927 L 501.550073 241.696097 L 502.607855 241.958766 L 503.176617 241.209025 L 504.164389 245.085146 L 504.533470 246.533460" fill="none" id="21" stroke="black" stroke-width="0.5" /><path d="M 454.297250 279.250000 L 453.871663 277.822165 L 454.745059 280.164672 L 454.781092 276.164834 L 454.943469 275.699427 L 455.265005 279.686483 L 455.273620 279.793310" fill="none" id="22" stroke="black" stroke-width="0.5" /><path d="M 510.706700 238.383860 L 510.389014 239.976413 L 509.926516 240.720471 L 510.265750 242.990160" fill="none" id="23" stroke="black" stroke-width="0.5" /><path d="M 559.714570 157.407480 L 556.196151 159.310301 L 555.273620 159.344490" fill="none" id="24" stroke="black" stroke-width="0.5" /><path d="M 561.604330 156.769680 L 558.054577 158.613387 L 554.504825 160.457095 L 550.955072 162.300802 L 551.874536 162.002048 L 555.476039 160.270867 L 559.122267 158.626172 L 562.063153 156.975296 L 559.116140 158.470470" fill="none" id="25" stroke="black" stroke-width="0.5" /><path d="M 552.470480 163.620080 L 549.016390 165.637321 L 551.770186 164.309749 L 555.187969 162.231586 L 558.605752 160.153424 L 556.778879 161.125032 L 553.373524 163.207823 L 550.181870 165.618910 L 552.915989 163.449716 L 556.333094 161.370439 L 554.363513 162.363215 L 550.961620 164.456407 L 547.655639 166.708182 L 546.675200 167.375980" fill="none" id="26" stroke="black" stroke-width="0.5" /><path d="M 686.423230 77.635820 L 686.423230 73.635820 L 686.423230 69.635820 L 686.423230 65.635820 L 686.213349 68.779273 L 685.978504 72.772374 L 685.743659 76.765474 L 685.508815 80.758574 L 685.273970 84.751674 L 685.039125 88.744774 L 684.804281 92.737874 L 684.569436 96.730974 L 684.334592 100.724074 L 684.099747 104.717174 L 683.924432 108.712288 L 683.888915 112.712130 L 683.853397 116.711972 L 683.817879 120.711815 L 683.782361 124.711657 L 683.746843 128.711499 L 683.711325 132.711341 L 683.675808 136.711184 L 683.640290 140.711026 L 683.604772 144.710868 L 683.569254 148.710711 L 683.533736 152.710553 L 683.525590 153.627950" fill="none" id="27" stroke="black" stroke-width="0.5" /><path d="M 614.139770 176.187010 L 613.796103 172.201801 L 613.708969 174.673238 L 613.698820 176.210630" fill="none" id="28" stroke="black" stroke-width="0.5" /><path d="M 651.840550 144.013780 L 652.972851 144.850424 L 652.824342 148.660249 L 652.344490 148.785430" fill="none" id="29" stroke="black" stroke-width="0.5" /><path d="M 657.352370 140.045270 L 656.554448 143.924813 L 655.399610 144.391730" fill="none" id="30" stroke="black" stroke-width="0.5" /><path d="M 650.738190 145.124010 L 652.719383 144.025668 L 652.604488 148.024018 L 652.564960 149.399600" fill="none" id="31" stroke="black" stroke-width="0.5" /><path d="M 610.423230 171.061020 L 610.013780 175.032541 L 610.013780 179.032541 L 609.937131 181.197255 L 609.163390 179.753940" fill="none" id="32" stroke="black" stroke-width="0.5" /><path d="M 654.265750 88.620080 L 653.133715 92.212224 L 652.710846 96.189809 L 652.526106 100.182898 L 652.429664 104.181735 L 652.333223 108.180572 L 652.236781 112.179409 L 652.158489 116.178422 L 652.177424 120.178377 L 652.196359 124.178333 L 652.215294 128.178288 L 652.234229 132.178243 L 652.304623 136.175970 L 652.631531 140.162589 L 652.958439 144.149208 L 653.285346 148.135827 L 653.612254 152.122446 L 653.817900 156.113729 L 653.798144 160.113680 L 653.793310 161.092520" fill="none" id="34" stroke="black" stroke-width="0.5" /><path d="M 652.974410 90.887790 L 652.978984 94.887787 L 652.983558 98.887785 L 652.988132 102.887782 L 652.992706 106.887780 L 652.997279 110.887777 L 653.001853 114.887774 L 653.006427 118.887772 L 653.011001 122.887769 L 653.015575 126.887766 L 653.020149 130.887764 L 653.024723 134.887761 L 653.029297 138.887759 L 653.033870 142.887756 L 652.925176 146.880833 L 652.433692 150.850524 L 651.942207 154.820214 L 651.450723 158.789905 L 650.983734 162.761420 L 650.881596 166.760116 L 650.832680 168.675190" fill="none" id="35" stroke="black" stroke-width="0.5" /><path d="M 610.832680 130.667320 L 610.462961 126.684443 L 610.093243 122.701566 L 609.640728 118.731036 L 608.832360 114.813570 L 608.550704 116.194511 L 608.529401 120.194454 L 608.508098 124.194398 L 608.486796 128.194341 L 608.510590 132.193438 L 608.681922 136.189767 L 608.904589 140.183059 L 609.205619 144.171716 L 609.506648 148.160372 L 609.807678 152.149029 L 610.108866 156.137671 L 610.518974 160.116592 L 610.929083 164.095513 L 611.339192 168.074434 L 611.749300 172.053355 L 612.159409 176.032275 L 612.569517 180.011196 L 612.979626 183.990117 L 613.389735 187.969038 L 613.799843 191.947959 L 614.209952 195.926880 L 614.600260 199.907554 L 614.895740 203.896625 L 614.906419 207.893865 L 614.864180 210.438970" fill="none" id="36" stroke="black" stroke-width="0.5" /><path d="M 606.202760 120.486220 L 605.874272 118.282873 L 605.392943 122.253808 L 605.209995 126.249406 L 605.032786 130.245479 L 604.898698 134.242725 L 604.858327 138.242521 L 604.817955 142.242318 L 604.777584 146.242114 L 604.737213 150.241910 L 604.696841 154.241707 L 604.656470 158.241503 L 604.616099 162.241299 L 604.738213 166.236303 L 605.014239 170.226768 L 605.290265 174.217233 L 605.588722 178.205836 L 605.974442 182.187195 L 606.360161 186.168554 L 606.745881 190.149913 L 607.131601 194.131272 L 607.517321 198.112631 L 607.903041 202.093990 L 608.101917 206.086903 L 608.209624 210.085452 L 607.683070 212.517710" fill="none" id="37" stroke="black" stroke-width="0.5" /><path d="M 561.950790 148.005900 L 558.577827 149.818462 L 555.453910 152.316034 L 552.468531 154.978271 L 549.483151 157.640508 L 546.497771 160.302745 L 543.512391 162.964983 L 540.500715 165.596580 L 537.416443 168.143591 L 534.332171 170.690603 L 531.247900 173.237615 L 528.163628 175.784626 L 525.148962 178.411658 L 522.199215 181.113324 L 519.295272 183.861097 L 516.574104 186.792862 L 513.852935 189.724626 L 511.131767 192.656390 L 508.410598 195.588154 L 505.689429 198.519919 L 502.968261 201.451683 L 500.310257 204.439831 L 497.704972 207.475040 L 495.099686 210.510248 L 492.571992 213.608665 L 490.126203 216.773806 L 487.680414 219.938947 L 485.265168 223.126567 L 482.970076 226.402625 L 480.785237 229.750642 L 478.710215 233.170332 L 476.635192 236.590022 L 474.568523 240.014446 L 472.701024 243.551740 L 470.833525 247.089034 L 468.966027 250.626328 L 467.209241 254.219122 L 465.492446 257.831961 L 463.775650 261.444801 L 462.167994 265.106295 L 460.628417 268.798138 L 459.088840 272.489981 L 457.655896 276.223377 L 456.291534 279.983498 L 454.927171 283.743620 L 453.695632 287.548209 L 452.521045 291.371865 L 451.346457 295.195521 L 450.171870 299.019177 L 448.997283 302.842833 L 448.596460 304.147640" fill="none" id="38" stroke="black" stroke-width="0.5" /><path d="M 568.596460 204.179130 L 565.288611 201.930101 L 564.029530 201.746060" fill="none" id="39" stroke="black" stroke-width="0.5" /><path d="M 650.738190 145.360230 L 648.528839 142.025748 L 645.722683 139.194869 L 642.380245 137.031617 L 638.792315 135.299171 L 635.011909 134.000478 L 631.097860 133.175728 L 627.154266 132.559742 L 623.164174 132.312045 L 619.166606 132.451498 L 615.175696 132.643718 L 611.268801 133.501724 L 607.438533 134.632495 L 603.656382 135.934544 L 599.878129 137.247250 L 596.148386 138.692594 L 592.418643 140.137938 L 588.688900 141.583282 L 584.959157 143.028625 L 581.229414 144.473969 L 577.516030 145.959033 L 573.850170 147.559493 L 570.184310 149.159953 L 566.518451 150.760413 L 562.852591 152.360873 L 559.186731 153.961333 L 555.638336 155.807077 L 552.093305 157.659848 L 548.650359 159.691890 L 545.248009 161.795224 L 541.923517 164.015206 L 538.675951 166.350440 L 535.428386 168.685674 L 532.180820 171.020907 L 528.933254 173.356141 L 525.685688 175.691374 L 525.226380 176.021650" fill="none" id="40" stroke="black" stroke-width="0.5" /><path d="M 649.163390 145.832680 L 650.719070 142.845207 L 649.357654 139.198996 L 646.597577 136.328930 L 643.274895 134.151192 L 639.681238 132.394596 L 635.863680 131.287059 L 631.951313 130.454359 L 627.972109 130.071177 L 623.979122 129.883793 L 619.979459 129.831894 L 615.982973 129.875092 L 611.995696 130.193870 L 608.051808 130.828189 L 604.133485 131.627322 L 600.275717 132.684501 L 596.452549 133.852276 L 592.680107 135.182193 L 588.989796 136.714801 L 585.355676 138.386079 L 581.721556 140.057358 L 578.214833 141.967201 L 574.804580 144.057698 L 571.394327 146.148194 L 567.984074 148.238690 L 564.573821 150.329186 L 561.163568 152.419682 L 557.808714 154.596386 L 554.490362 156.829890 L 551.173388 159.065332 L 547.973388 161.465332 L 544.773389 163.865333 L 543.116140 165.108270" fill="none" id="41" stroke="black" stroke-width="0.5" /><path d="M 578.076770 143.612200 L 574.622684 145.629448 L 571.341739 147.914727 L 568.082733 150.233968 L 564.823727 152.553209 L 561.564720 154.872450 L 558.305714 157.191690 L 555.081008 159.557368 L 551.906095 161.990458 L 548.731182 164.423548 L 545.556269 166.856639 L 542.478075 169.409582 L 539.429241 171.998909 L 536.380407 174.588235 L 533.331573 177.177561 L 530.282738 179.766887 L 527.233904 182.356214 L 524.270140 185.042470 L 521.307030 187.729472 L 518.343920 190.416474 L 515.380810 193.103476 L 512.417701 195.790478 L 509.454591 198.477480 L 506.491481 201.164482 L 503.528371 203.851484 L 500.565261 206.538486 L 497.602151 209.225488 L 494.680162 211.956401 L 491.804679 214.736977 L 488.929196 217.517552 L 486.053714 220.298127 L 483.265460 223.164202 L 480.543042 226.094806 L 477.820624 229.025409 L 475.098206 231.956013 L 472.485989 234.983232 L 469.936742 238.065656 L 467.387495 241.148081 L 464.838249 244.230505 L 462.289002 247.312929 L 459.739755 250.395354 L 457.370663 253.618014 L 455.008026 256.845698 L 452.645389 260.073383 L 450.282752 263.301067 L 447.920116 266.528752 L 446.769690 268.100390" fill="none" id="42" stroke="black" stroke-width="0.5" /><path d="M 286.895670 104.588580 L 290.471489 102.914713 L 294.177817 101.411796 L 297.946548 100.107338 L 301.854920 99.256084 L 305.763291 98.404831 L 309.674947 97.570260 L 313.614340 96.876585 L 317.553732 96.182909 L 321.493125 95.489234 L 325.450607 94.928674 L 329.432255 94.545943 L 333.413902 94.163213 L 337.395550 93.780482 L 341.377197 93.397752 L 345.366603 93.159596 L 349.366343 93.114039 L 353.366084 93.068482 L 357.365825 93.022926 L 361.365565 92.977369 L 365.365306 92.931812 L 369.365046 92.886255 L 373.359709 93.042076 L 377.352072 93.289139 L 381.344435 93.536203 L 385.336797 93.783266 L 389.329160 94.030329 L 393.321523 94.277392 L 397.310497 94.566473 L 401.290854 94.962397 L 405.271211 95.358321 L 409.251569 95.754245 L 413.231926 96.150170 L 417.212283 96.546094 L 421.192641 96.942018 L 425.172998 97.337942 L 429.153355 97.733866 L 433.133712 98.129791 L 437.114070 98.525715 L 441.094427 98.921639 L 445.069271 99.364815 L 449.033860 99.895881 L 452.998450 100.426948 L 456.963039 100.958014 L 460.927628 101.489080 L 464.892218 102.020147 L 468.856807 102.551213 L 472.821396 103.082279 L 476.785986 103.613346 L 480.742262 104.198688 L 484.684049 104.878623 L 488.625837 105.558558 L 492.567624 106.238493 L 496.509412 106.918428 L 500.451199 107.598363 L 504.392986 108.278297 L 508.334774 108.958232 L 512.276561 109.638167 L 516.218349 110.318102 L 520.158014 111.009177 L 524.073617 111.826521 L 527.989220 112.643864 L 531.904824 113.461208 L 535.820427 114.278551 L 539.736030 115.095895 L 543.651634 115.913238 L 547.567237 116.730582 L 551.482840 117.547925 L 555.363717 118.514601 L 559.238189 119.508816 L 563.112662 120.503032 L 566.987134 121.497247 L 570.861606 122.491463 L 574.736078 123.485678 L 578.556158 124.671837 L 582.376207 125.858100 L 586.196257 127.044364 L 590.016307 128.230627 L 593.836356 129.416891 L 597.656406 130.603154 L 601.476455 131.789417 L 605.296505 132.975681 L 609.113173 134.172206 L 612.890112 135.489298 L 616.667052 136.806390 L 620.443991 138.123481 L 624.220930 139.440573 L 627.997869 140.757665 L 631.774808 142.074757 L 635.495438 143.542324 L 639.209169 145.028325 L 642.922900 146.514326 L 646.636632 148.000327 L 650.350363 149.486328 L 654.064095 150.972329 L 657.717995 152.596784 L 661.345173 154.283075 L 664.972352 155.969366 L 668.599530 157.655656 L 672.226709 159.341947 L 675.853887 161.028238 L 679.481066 162.714528 L 683.108244 164.400819 L 686.735423 166.087110 L 690.340178 167.817284 L 693.831983 169.768515 L 697.323787 171.719746 L 700.815592 173.670976 L 704.307396 175.622207 L 707.799201 177.573438 L 711.291005 179.524669 L 714.713522 181.593613 L 718.114332 183.699437 L 721.515141 185.805261 L 724.915950 187.911085 L 728.316760 190.016910 L 731.717569 192.122734 L 732.533470 192.627950" fill="none" id="44" stroke="black" stroke-width="0.5" /><path d="M 283.903550 101.612200 L 287.181943 99.369069 L 290.836693 97.746687 L 294.738542 96.866017 L 298.640390 95.985348 L 302.566070 95.231719 L 306.521816 94.638357 L 310.479647 94.060440 L 314.451059 93.583065 L 318.422471 93.105691 L 322.393883 92.628316 L 326.374121 92.237010 L 330.359770 91.898484 L 334.345419 91.559959 L 338.331069 91.221434 L 342.328633 91.096602 L 346.327211 90.989958 L 350.325789 90.883315 L 354.324367 90.776671 L 358.322945 90.670028 L 362.321523 90.563384 L 366.320102 90.456741 L 370.319550 90.415350 L 374.319550 90.415350 L 378.319550 90.415350 L 382.319550 90.415350 L 386.318666 90.464092 L 390.316039 90.609035 L 394.313412 90.753979 L 398.310289 90.910628 L 402.305593 91.104397 L 406.300897 91.298165 L 410.296201 91.491934 L 414.284214 91.797114 L 418.270694 92.125714 L 422.257174 92.454313 L 426.243654 92.782913 L 430.230134 93.111512 L 434.216548 93.440736 L 438.184153 93.948784 L 442.151757 94.456832 L 446.119362 94.964880 L 450.086967 95.472929 L 454.054571 95.980977 L 458.022176 96.489025 L 461.973097 97.111348 L 465.920345 97.758834 L 469.867592 98.406321 L 473.814839 99.053807 L 477.762086 99.701294 L 481.709334 100.348780 L 485.656581 100.996267 L 489.580717 101.771582 L 493.504789 102.547246 L 497.428862 103.322911 L 501.352934 104.098575 L 505.277007 104.874239 L 509.201079 105.649904 L 513.125152 106.425568 L 517.038391 107.253014 L 520.944317 108.115420 L 524.850242 108.977827 L 528.756168 109.840233 L 532.662094 110.702639 L 536.568020 111.565045 L 540.473945 112.427451 L 544.379871 113.289858 L 548.285797 114.152264 L 552.191722 115.014670 L 556.085642 115.925515 L 559.942207 116.987074 L 563.798772 118.048633 L 567.655337 119.110192 L 571.511902 120.171751 L 575.368467 121.233310 L 579.185530 122.426468 L 582.989210 123.664217 L 586.792890 124.901965 L 590.596569 126.139714 L 594.400249 127.377463 L 598.196950 128.635582 L 601.960568 129.990269 L 605.724186 131.344956 L 609.487805 132.699643 L 613.251423 134.054330 L 617.015041 135.409017 L 620.778660 136.763704 L 624.542278 138.118391 L 628.305896 139.473078 L 632.038910 140.906527 L 635.729780 142.448436 L 639.420649 143.990345 L 643.111518 145.532254 L 646.802388 147.074163 L 650.493257 148.616072 L 654.149947 150.235784 L 657.782267 151.910972 L 661.414586 153.586160 L 665.046906 155.261349 L 668.679225 156.936537 L 672.311545 158.611725 L 675.943864 160.286913 L 679.576184 161.962101 L 683.208503 163.637289 L 686.781743 165.434960 L 690.353904 167.234866 L 693.914309 169.056814 L 697.398832 171.021017 L 700.883356 172.985221 L 703.336620 174.368110" fill="none" id="45" stroke="black" stroke-width="0.5" /><path d="M 287.588590 100.785430 L 283.765917 101.771915 L 280.575607 104.136518 L 277.852671 107.066641 L 275.213422 110.066424 L 272.825926 113.275764 L 270.669371 116.634826 L 269.083364 120.292009 L 267.744899 124.061257 L 267.172837 128.020139 L 267.033896 132.011477 L 267.205425 136.002936 L 268.104111 139.892276 L 269.315819 143.694691 L 270.868047 147.381232 L 272.420276 151.067773 L 274.576714 154.431231 L 276.780679 157.769275 L 278.984645 161.107318 L 281.654032 164.085314 L 284.331369 167.057160 L 287.008706 170.029006 L 289.724697 172.962944 L 292.643741 175.697753 L 295.562785 178.432562 L 298.481830 181.167372 L 301.526244 183.760855 L 304.589556 186.333038 L 307.652868 188.905220 L 310.726942 191.463906 L 313.916352 193.877961 L 317.105762 196.292017 L 320.295172 198.706072 L 323.484583 201.120127 L 326.775810 203.391612 L 330.094161 205.625117 L 333.412513 207.858622 L 336.730865 210.092127 L 340.049216 212.325631 L 343.468556 214.401035 L 346.890225 216.472794 L 350.311894 218.544552 L 353.733563 220.616310 L 357.155232 222.688068 L 360.576901 224.759826 L 363.998570 226.831584 L 367.420239 228.903342 L 370.876100 230.916980 L 374.349151 232.901398 L 377.822202 234.885816 L 381.295254 236.870234 L 384.768305 238.854652 L 388.241356 240.839070 L 391.730756 242.794349 L 395.234366 244.724302 L 398.737976 246.654255 L 402.258892 248.551799 L 405.811572 250.389860 L 409.364251 252.227920 L 412.916931 254.065981 L 416.469611 255.904042 L 420.022290 257.742102 L 423.574970 259.580163 L 427.127650 261.418224 L 430.680329 263.256284 L 434.233009 265.094345 L 437.785689 266.932406 L 441.290169 268.860449 L 444.788781 270.799447 L 448.287393 272.738446 L 451.786005 274.677444 L 455.284617 276.616442 L 458.783229 278.555440 L 462.281841 280.494438 L 465.780453 282.433436 L 469.279065 284.372435 L 472.777677 286.311433 L 476.276289 288.250431 L 478.108270 289.265750" fill="none" id="46" stroke="black" stroke-width="0.5" /><path d="M 281.572840 100.643700 L 278.586089 103.090444 L 276.345489 106.404009 L 274.104889 109.717574 L 271.864289 113.031139 L 269.641725 116.355498 L 267.780107 119.895891 L 266.311633 123.601972 L 265.088810 127.409551 L 264.461106 131.359993 L 264.364717 135.353254 L 264.351675 139.353233 L 264.864111 143.276416 L 266.050496 147.094469 L 267.829476 150.668996 L 269.925865 154.075630 L 272.022254 157.482263 L 274.538768 160.579541 L 277.169537 163.592688 L 279.800305 166.605836 L 282.602623 169.455870 L 285.479387 172.235120 L 288.384162 174.982526 L 291.507637 177.481306 L 294.631112 179.980087 L 297.754587 182.478867 L 300.878062 184.977648 L 304.043240 187.420759 L 307.319257 189.715908 L 310.595275 192.011057 L 313.871293 194.306205 L 317.147310 196.601354 L 320.423328 198.896503 L 323.783224 201.063106 L 327.203407 203.137316 L 330.623590 205.211526 L 334.043774 207.285735 L 337.463957 209.359945 L 340.884140 211.434155 L 344.304324 213.508365 L 347.724507 215.582574 L 351.144690 217.656784 L 354.564874 219.730994 L 357.985057 221.805203 L 361.405240 223.879413 L 364.825424 225.953623 L 368.245607 228.027833 L 371.665790 230.102042 L 375.062522 232.214146 L 378.444721 234.349733 L 381.826919 236.485321 L 385.209118 238.620908 L 388.591316 240.756495 L 391.973515 242.892083 L 395.355713 245.027670 L 398.737911 247.163258 L 402.120110 249.298845 L 405.529145 251.390240 L 408.983823 253.406474 L 412.438501 255.422709 L 415.893179 257.438943 L 419.347857 259.455177 L 422.802535 261.471411 L 426.257212 263.487646 L 429.711890 265.503880 L 433.166568 267.520114 L 436.621246 269.536348 L 440.075924 271.552583 L 443.506699 273.609187 L 446.935713 275.668766 L 450.364726 277.728345 L 453.793740 279.787924 L 457.222754 281.847502 L 460.651767 283.907081 L 464.080781 285.966660 L 467.509795 288.026239 L 470.938809 290.085818 L 474.367822 292.145397 L 477.800737 294.198163 L 481.312824 296.112645 L 484.824911 298.027128 L 488.336998 299.941610 L 491.849086 301.856093 L 495.361173 303.770575 L 498.873260 305.685058 L 502.385347 307.599540 L 505.941212 309.431137 L 509.502456 311.252549 L 513.063700 313.073961 L 516.624943 314.895374 L 520.186187 316.716786 L 523.747431 318.538198 L 527.308675 320.359610 L 530.869919 322.181022 L 534.431163 324.002434 L 537.992407 325.823846 L 538.517720 326.092520" fill="none" id="47" stroke="black" stroke-width="0.5" /><path d="M 465.257880 256.005900 L 463.896044 259.764424 L 461.878992 263.218624 L 459.803676 266.634429 L 457.425105 269.850389 L 455.046533 273.066349 L 452.667962 276.282309 L 450.289391 279.498269 L 447.790256 282.613343 L 445.044091 285.521706 L 442.222877 288.350678 L 439.164792 290.929073 L 435.963183 293.321101 L 433.226380 295.242120" fill="none" id="48" stroke="black" stroke-width="0.5" /><path d="M 463.084650 259.454720 L 461.513148 263.008180 L 459.490510 266.456590 L 457.219067 269.749089 L 454.774384 272.912296 L 452.264285 276.026682 L 449.754186 279.141068 L 447.129903 282.158085 L 444.451093 285.128603 L 441.541088 287.866854 L 438.558206 290.531889 L 435.368063 292.940288 L 432.011035 295.101701 L 428.516563 297.048151 L 425.022092 298.994601 L 421.527620 300.941052 L 418.612210 302.564960" fill="none" id="49" stroke="black" stroke-width="0.5" /><path d="M 665.635830 138.675190 L 664.040860 140.740792 L 660.146322 141.505596 L 656.146350 141.490746 L 652.195538 140.965547 L 648.308089 140.064898 L 644.701489 138.396854 L 641.659590 135.830974 L 638.854754 132.979151 L 637.068900 131.163380" fill="none" id="50" stroke="black" stroke-width="0.5" /><path d="M 660.344490 140.612200 L 656.418628 141.174789 L 652.451265 140.924246 L 648.574967 139.966344 L 644.829650 138.561852 L 641.291520 136.732029 L 637.876863 134.648735 L 637.352370 134.328740" fill="none" id="51" stroke="black" stroke-width="0.5" /><path d="M 452.061030 282.935040 L 454.256970 279.591711 L 456.564960 277.525590" fill="none" id="52" stroke="black" stroke-width="0.5" /><path d="M 458.580710 269.446850 L 457.672299 273.307985 L 455.800735 276.833523 L 453.587373 280.157181 L 451.040204 283.236618 L 448.325538 286.174404 L 445.610871 289.112190 L 442.231568 291.133317 L 438.895670 292.029530" fill="none" id="53" stroke="black" stroke-width="0.5" /><path d="M 454.706700 270.391730 L 455.814375 269.667922 L 454.106601 273.281686 L 452.119446 276.746953 L 449.721025 279.927182 L 446.844421 282.687786 L 443.602938 285.014609 L 439.958587 286.622685 L 436.075276 287.555852 L 432.113497 288.066358 L 428.113636 288.099694 L 427.084650 288.108270" fill="none" id="54" stroke="black" stroke-width="0.5" /><path d="M 288.848430 100.383860 L 289.193855 99.802809 L 285.240836 100.336769 L 281.241011 100.374152 L 277.241185 100.411534 L 273.259916 100.165171 L 269.299025 99.607190 L 265.338134 99.049209 L 263.242130 98.753940" fill="none" id="55" stroke="black" stroke-width="0.5" /><path d="M 285.982290 109.761810 L 288.900437 107.026043 L 291.405138 103.914311 L 291.998030 103.147640" fill="none" id="56" stroke="black" stroke-width="0.5" /><path d="M 271.368110 116.281490 L 274.490930 113.818776 L 277.202588 110.878213 L 279.914246 107.937650 L 282.846433 105.227849 L 285.906883 102.652262 L 286.328740 102.297240" fill="none" id="57" stroke="black" stroke-width="0.5" /><path d="M 289.478350 102.037400 L 285.622698 102.891712 L 282.337846 105.174199 L 279.616640 108.062163 L 277.277001 111.282861 L 275.775240 114.973982 L 274.999798 118.882147 L 274.897267 122.880832 L 274.794736 126.879518 L 275.423689 130.807603 L 276.289083 134.712868 L 277.592856 138.476316 L 279.178779 142.148489 L 280.822130 145.790455 L 282.949397 149.177893 L 285.095330 152.552398 L 287.519498 155.734128 L 290.254087 158.648994 L 293.036062 161.523122 L 295.818038 164.397250 L 298.600014 167.271378 L 301.431962 170.094520 L 304.361362 172.818233 L 307.290762 175.541947 L 310.220162 178.265660 L 313.149563 180.989374 L 316.078963 183.713087 L 319.063672 186.373359 L 322.161304 188.904105 L 325.258937 191.434850 L 328.356570 193.965595 L 331.454202 196.496341 L 334.648934 198.900650 L 337.893296 201.240332 L 341.151551 203.559817 L 344.496817 205.752805 L 347.842082 207.945793 L 351.187348 210.138781 L 354.532614 212.331770 L 357.877880 214.524758 L 361.223145 216.717746 L 364.568411 218.910734 L 367.913677 221.103722 L 371.258943 223.296710 L 374.604208 225.489698 L 377.949474 227.682687 L 381.294740 229.875675 L 384.640006 232.068663 L 387.985271 234.261651 L 391.330537 236.454639 L 394.675803 238.647627 L 398.021069 240.840616 L 401.417815 242.950674 L 404.867342 244.975708 L 408.316869 247.000742 L 411.779253 249.003099 L 415.288326 250.923100 L 418.797400 252.843100 L 422.306473 254.763101 L 425.815547 256.683102 L 429.324621 258.603102 L 432.833694 260.523103 L 436.342768 262.443103 L 439.851841 264.363104 L 443.360915 266.283105 L 446.864703 268.212527 L 450.332260 270.206529 L 453.799818 272.200532 L 457.267375 274.194534 L 460.734933 276.188537 L 464.202490 278.182539 L 467.670047 280.176541 L 471.137605 282.170544 L 474.605162 284.164546 L 478.072720 286.158549 L 481.543963 288.145966 L 485.056782 290.059106 L 488.569600 291.972246 L 492.082419 293.885387 L 495.595237 295.798527 L 499.108056 297.711667 L 502.620874 299.624808 L 506.133693 301.537948 L 509.646511 303.451088 L 513.159330 305.364229 L 516.672148 307.277369 L 520.184967 309.190509 L 523.697786 311.103650 L 524.848430 311.730310" fill="none" id="58" stroke="black" stroke-width="0.5" /><path d="M 284.942920 100.785430 L 281.128998 101.499449 L 277.970034 103.904270 L 275.355987 106.931937 L 272.932278 110.098090 L 270.873461 113.525963 L 269.308787 117.207239 L 268.065250 120.997364 L 267.069086 124.871336 L 266.654048 128.842491 L 266.534856 132.836990 L 266.564817 136.836878 L 266.965089 140.797065 L 267.783719 144.712399 L 268.668047 148.609143 L 270.022462 152.372859 L 271.496048 156.086501 L 273.346129 159.628502 L 275.417475 163.050421 L 277.507726 166.459976 L 279.812229 169.729421 L 282.116732 172.998865 L 284.508443 176.200772 L 287.097341 179.249970 L 289.686239 182.299168 L 292.275136 185.348365 L 295.123144 188.155564 L 297.988657 190.946412 L 300.854170 193.737260 L 303.726789 196.520232 L 306.796733 199.084496 L 309.866677 201.648759 L 312.936620 204.213022 L 316.006564 206.777286 L 319.076507 209.341549 L 322.146451 211.905812 L 325.271715 214.400403 L 328.465096 216.809203 L 331.658476 219.218003 L 334.851857 221.626804 L 338.045238 224.035604 L 341.264903 226.408171 L 344.545982 228.696079 L 347.827060 230.983987 L 351.108139 233.271895 L 354.389217 235.559803 L 357.670296 237.847712 L 360.993168 240.072753 L 364.372596 242.212721 L 367.752025 244.352689 L 371.131453 246.492658 L 374.510881 248.632626 L 377.890310 250.772594 L 381.278365 252.898623 L 384.701098 254.968623 L 388.123831 257.038623 L 391.546564 259.108623 L 394.969297 261.178623 L 398.392030 263.248623 L 401.814763 265.318623 L 405.237495 267.388623 L 408.660228 269.458623 L 412.082961 271.528623 L 415.505694 273.598623 L 418.928427 275.668623 L 422.351160 277.738623 L 425.773892 279.808623 L 429.196625 281.878622 L 432.619358 283.948622 L 436.042091 286.018622 L 439.464824 288.088622 L 442.887557 290.158622 L 446.310289 292.228622 L 449.733022 294.298622 L 453.155755 296.368622 L 456.578488 298.438622 L 460.001221 300.508622 L 463.423954 302.578622 L 466.846686 304.648622 L 470.269419 306.718622 L 473.692152 308.788622 L 477.114885 310.858622 L 480.537618 312.928622 L 483.960351 314.998622 L 487.383083 317.068622 L 490.805816 319.138622 L 494.228549 321.208622 L 497.647537 323.284715 L 501.040105 325.403791 L 504.432672 327.522868 L 507.825240 329.641944 L 511.217807 331.761021 L 514.610375 333.880098 L 518.002942 335.999174 L 518.139770 336.084640" fill="none" id="59" stroke="black" stroke-width="0.5" /><path d="M 278.580710 107.257870 L 282.275889 105.726318 L 286.035957 104.386461 L 289.901659 103.358674 L 293.829138 102.610792 L 297.768329 101.915973 L 301.707521 101.221154 L 305.646712 100.526336 L 309.612006 100.018384 L 313.590811 99.607147 L 317.578486 99.371940 L 321.578475 99.381085 L 325.578465 99.390231 L 329.555341 99.784305 L 332.029530 100.076770" fill="none" id="60" stroke="black" stroke-width="0.5" /><path d="M 457.226380 269.116140 L 456.364934 271.299309 L 454.379114 274.765675 L 452.051215 278.014399 L 449.269094 280.888386 L 446.129365 283.355003 L 442.686159 285.390766 L 439.042033 287.026142 L 435.276791 288.361953 L 431.427330 289.428277 L 427.483159 290.094244 L 426.234250 290.305120" fill="none" id="61" stroke="black" stroke-width="0.5" /><path d="M 279.777560 105.226380 L 283.208960 103.170780 L 286.858729 101.612401 L 290.694087 100.476607 L 294.594388 99.616373 L 298.533296 98.919949 L 302.472204 98.223524 L 306.411111 97.527100 L 310.362310 96.911619 L 314.330399 96.407369 L 318.298488 95.903118 L 322.266577 95.398867 L 326.234666 94.894616 L 330.214032 94.496753 L 334.199660 94.157976 L 338.185288 93.819200 L 342.170916 93.480424 L 346.156544 93.141647 L 350.153085 92.986914 L 354.150819 92.852295 L 358.148553 92.717676 L 362.146378 92.587694 L 366.146319 92.566086 L 370.146261 92.544478 L 374.146203 92.522870 L 378.146144 92.501262 L 382.146086 92.479654 L 386.146028 92.458046 L 390.144669 92.518388 L 394.141913 92.666848 L 398.139157 92.815307 L 402.136401 92.963766 L 406.133646 93.112225 L 410.125432 93.354023 L 414.112743 93.672391 L 418.100053 93.990759 L 422.087363 94.309127 L 426.074673 94.627495 L 430.061983 94.945863 L 434.049293 95.264231 L 438.036603 95.582599 L 442.023913 95.900967 L 445.990852 96.408790 L 449.954701 96.945360 L 453.918549 97.481931 L 457.882397 98.018501 L 461.846245 98.555072 L 465.810093 99.091642 L 469.773941 99.628212 L 473.737789 100.164783 L 477.701638 100.701353 L 481.662534 101.256321 L 485.595272 101.986779 L 489.528011 102.717237 L 493.460749 103.447696 L 497.393487 104.178154 L 501.326225 104.908612 L 505.258964 105.639071 L 509.191702 106.369529 L 513.124440 107.099987 L 517.057179 107.830446 L 520.989917 108.560904 L 524.922655 109.291362 L 528.855394 110.021821 L 532.788132 110.752279 L 536.720870 111.482737 L 540.644065 112.261811 L 544.561085 113.072336 L 548.478106 113.882862 L 552.395126 114.693388 L 556.312146 115.503913 L 560.229167 116.314439 L 564.146187 117.124965 L 568.063194 117.935550 L 571.956617 118.852751 L 575.850040 119.769951 L 579.743463 120.687152 L 582.801180 121.407480" fill="none" id="62" stroke="black" stroke-width="0.5" /><path d="M 657.131890 138.675190 L 653.561975 136.870832 L 649.915144 135.246976 L 646.141010 133.921867 L 642.366876 132.596759 L 638.592742 131.271650 L 634.742236 130.189190 L 630.889511 129.113776 L 627.036787 128.038363 L 623.184062 126.962950 L 619.331338 125.887537 L 615.478613 124.812124 L 611.625889 123.736711 L 607.773164 122.661298 L 603.920439 121.585884 L 600.045572 120.596187 L 596.154035 119.671016 L 592.262498 118.745846 L 588.370961 117.820675 L 584.479424 116.895504 L 580.587887 115.970334 L 576.696351 115.045163 L 572.772396 114.272731 L 568.840557 113.537446 L 564.908719 112.802161 L 560.976880 112.066876 L 557.045041 111.331591 L 553.113202 110.596306 L 549.170982 109.920022 L 545.224319 109.268981 L 541.277656 108.617941 L 537.330994 107.966900 L 533.384331 107.315859 L 529.437668 106.664819 L 525.491006 106.013778 L 521.544343 105.362738 L 517.597680 104.711697 L 513.635374 104.167652 L 509.667524 103.661525 L 505.699673 103.155399 L 501.731823 102.649273 L 497.763973 102.143147 L 493.796122 101.637021 L 489.828272 101.130895 L 485.856751 100.656275 L 481.878820 100.236679 L 477.900888 99.817083 L 473.922956 99.397487 L 469.945025 98.977891 L 465.967093 98.558295 L 461.989162 98.138699 L 458.011230 97.719103 L 454.027372 97.362416 L 450.041066 97.031714 L 446.054760 96.701012 L 442.068454 96.370310 L 438.082148 96.039608 L 434.093408 95.742245 L 430.101334 95.490571 L 426.109259 95.238896 L 422.117184 94.987221 L 418.125110 94.735547 L 414.133035 94.483872 L 410.136361 94.321337 L 406.139584 94.160804 L 402.142806 94.000272 L 398.146029 93.839739 L 394.149252 93.679207 L 390.152474 93.518675 L 386.155697 93.358142 L 382.158920 93.197610 L 378.159742 93.122601 L 374.160252 93.058718 L 370.160762 92.994836 L 366.161272 92.930953 L 362.161783 92.867070 L 358.162293 92.803187 L 354.162803 92.739304 L 350.163313 92.675422 L 346.163463 92.671120 L 342.163494 92.686680 L 338.163524 92.702240 L 334.163554 92.717800 L 330.163584 92.733360 L 326.163615 92.748920 L 322.163645 92.764480 L 318.164644 92.812783 L 314.170754 93.033783 L 310.176864 93.254784 L 306.182974 93.475785 L 302.189083 93.696786 L 298.195193 93.917787 L 294.201303 94.138788 L 290.210598 94.399984 L 286.231751 94.810803 L 282.252903 95.221621 L 278.274056 95.632440 L 274.580710 96.013780" fill="none" id="63" stroke="black" stroke-width="0.5" /><path d="M 648.501970 134.187010 L 644.903007 132.441312 L 641.263683 130.786026 L 637.561161 129.272312 L 633.844105 127.798927 L 630.027117 126.602850 L 626.210129 125.406773 L 622.393140 124.210696 L 618.576152 123.014619 L 614.746058 121.863319 L 610.886528 120.812593 L 607.026998 119.761866 L 603.167467 118.711139 L 599.307937 117.660413 L 595.414738 116.746436 L 591.508562 115.885163 L 587.602386 115.023890 L 583.693435 114.176323 L 579.759906 113.450133 L 575.826378 112.723944 L 571.892849 111.997754 L 567.959320 111.271565 L 564.005891 110.663748 L 560.051141 110.063786 L 556.096391 109.463823 L 552.141642 108.863861 L 548.186892 108.263898 L 544.232142 107.663936 L 540.277393 107.063974 L 536.322643 106.464011 L 532.367893 105.864049 L 528.413144 105.264086 L 524.458394 104.664124 L 520.503644 104.064161 L 516.542415 103.512833 L 512.568528 103.056520 L 508.594641 102.600208 L 504.620754 102.143896 L 500.646867 101.687584 L 496.672980 101.231271 L 492.692473 100.840678 L 488.707411 100.495307 L 484.722349 100.149936 L 480.737287 99.804564 L 476.752225 99.459193 L 472.767163 99.113822 L 468.782101 98.768450 L 464.797039 98.423079 L 460.811977 98.077708 L 456.819883 97.835617 L 452.824787 97.637599 L 448.829691 97.439581 L 444.834596 97.241562 L 440.839500 97.043544 L 436.844405 96.845526 L 432.849309 96.647508 L 428.854213 96.449489 L 424.859118 96.251471 L 423.399610 96.179130" fill="none" id="64" stroke="black" stroke-width="0.5" /><path d="M 295.147640 99.935040 L 298.283772 98.008029 L 302.081162 96.751114 L 305.878551 95.494199 L 309.675940 94.237285 L 313.520762 93.137430 L 317.379092 92.082308 L 321.267484 91.152278 L 325.183944 90.339050 L 329.130917 89.710497 L 333.100817 89.220703 L 337.070716 88.730909 L 341.040616 88.241115 L 345.034200 88.033990 L 349.030252 87.856329 L 353.026305 87.678669 L 357.025591 87.624056 L 361.025459 87.591589 L 365.025328 87.559123 L 369.024702 87.563026 L 373.022213 87.704115 L 377.019724 87.845203 L 381.017235 87.986292 L 385.012282 88.167404 L 388.996914 88.517703 L 392.981025 88.872892 L 396.950071 89.369556 L 400.919117 89.866220 L 404.888162 90.362884 L 408.857208 90.859547 L 412.826254 91.356211 L 416.795300 91.852875 L 420.764346 92.349539 L 424.712880 92.981584 L 428.650913 93.682937 L 432.588946 94.384291 L 436.526979 95.085644 L 440.465012 95.786997 L 444.390981 96.545798 L 448.278501 97.487708 L 452.166020 98.429618 L 456.053539 99.371528 L 459.941058 100.313438 L 463.828578 101.255347 L 464.911420 101.517710" fill="none" id="65" stroke="black" stroke-width="0.5" /><path d="M 39.683070 133.100390 L 39.939111 133.974181 L 38.675200 134.588580" fill="none" id="68" stroke="black" stroke-width="0.5" /><path d="M 44.659450 134.423230 L 43.622738 135.649676 L 44.722440 132.620605 L 44.218510 136.454720" fill="none" id="69" stroke="black" stroke-width="0.5" /><path d="M 233.131890 226.809050 L 233.518571 225.947390 L 232.684833 229.859535 L 231.840550 231.320860" fill="none" id="70" stroke="black" stroke-width="0.5" /><path d="M 227.147640 230.187010 L 223.632157 232.059514 L 225.478350 230.730310" fill="none" id="71" stroke="black" stroke-width="0.5" /><path d="M 138.706700 50.588580 L 138.764334 51.213293 L 140.470480 50.919290" fill="none" id="74" stroke="black" stroke-width="0.5" /><path d="M 236.564960 88.383860 L 239.645573 85.936841 L 242.148997 84.190870 L 238.448254 85.708929 L 234.864180 87.179130" fill="none" id="76" stroke="black" stroke-width="0.5" /><path d="M 239.872050 77.801180 L 237.309626 80.872659 L 234.503147 83.710753 L 231.203791 85.963338 L 227.860715 88.159662 L 224.400721 90.150095 L 220.801785 91.895849 L 217.117279 93.446585 L 213.395733 94.912905 L 209.558414 96.032497 L 205.702467 97.096299 L 201.846520 98.160100 L 197.902020 98.801607 L 193.943542 99.376459 L 189.985065 99.951311 L 186.005174 100.315603 L 182.012013 100.549402 L 178.015462 100.667320 L 174.015462 100.667320 L 170.022527 100.529247 L 166.043421 100.120944 L 162.064314 99.712641 L 158.095642 99.238001 L 154.183344 98.404980 L 150.301056 97.461636 L 146.505861 96.198112 L 142.800550 94.707225 L 139.184153 93.002673 L 135.782838 90.897666 L 132.728797 88.344408 L 130.178684 85.267866 L 128.450575 81.660423 L 127.687340 77.742480 L 127.684488 73.752528 L 128.803215 69.963300 L 130.710371 66.473639 L 133.591147 63.711822 L 136.725941 61.244591 L 140.230424 59.330655 L 143.808134 57.541803 L 147.551202 56.134165 L 151.301930 54.744187 L 155.168741 53.738694 L 159.062005 52.820819 L 162.955269 51.902944 L 166.848533 50.985069 L 170.810151 50.434886 L 174.773178 49.892282 L 178.736204 49.349678 L 182.700616 48.819541 L 186.686095 48.479011 L 190.671573 48.138481 L 194.664227 47.922248 L 198.662417 47.801931 L 202.660622 47.683909 L 206.660021 47.753226 L 210.659420 47.822542 L 214.658820 47.891859 L 218.650510 48.071451 L 222.620655 48.559251 L 226.590800 49.047051 L 230.498040 49.898316 L 234.401198 50.773163 L 238.183667 52.060008 L 241.926436 53.463108 L 245.323053 55.561176 L 248.505741 57.984088 L 250.901126 61.181950 L 251.762448 65.058879 L 251.492872 69.047122 L 250.236233 72.829635 L 248.559763 76.451268 L 246.414329 79.817917 L 243.872234 82.906242 L 240.973224 85.642930 L 237.906184 88.207653 L 234.519968 90.336864 L 231.090884 92.389181 L 227.499292 94.149995 L 223.881595 95.850943 L 220.147354 97.284625 L 216.405741 98.695670 L 212.543371 99.735910 L 208.681001 100.776150 L 204.818631 101.816390 L 200.870160 102.411461 L 196.898460 102.886436 L 192.926760 103.361410 L 188.946395 103.692513 L 184.946399 103.697649 L 180.946402 103.702786 L 176.946405 103.707923 L 172.946409 103.713059 L 168.964585 103.394272 L 164.990264 102.941752 L 161.025579 102.421487 L 157.082690 101.747968 L 153.144315 101.053520 L 149.274358 100.041873 L 145.419356 98.984429 L 141.698218 97.517073 L 138.101388 95.794411 L 134.707808 93.693307 L 132.002690 90.768118 L 129.951328 87.376186 L 128.844222 83.566491 L 128.628965 79.588783 L 129.262086 75.689341 L 130.950680 72.073264 L 133.464756 68.962087 L 136.428302 66.304088 L 139.859701 64.248485 L 143.505086 62.637950 L 147.253435 61.241568 L 151.018604 59.900130 L 154.906270 58.958826 L 158.793935 58.017521 L 162.683315 57.084381 L 166.621310 56.382815 L 170.559306 55.681250 L 174.497301 54.979685 L 178.435296 54.278119 L 182.373291 53.576554 L 186.339661 53.094544 L 190.326628 52.771900 L 194.313594 52.449257 L 198.300560 52.126613 L 202.293776 51.958660 L 206.293776 51.958660 L 210.293776 51.958660 L 214.286714 52.127099 L 218.272676 52.461921 L 222.229151 53.012979 L 226.159228 53.757623 L 230.089305 54.502266 L 233.969765 55.448675 L 237.796958 56.611684 L 241.554386 57.971549 L 245.259827 59.478104 L 248.701742 61.487391 L 251.725761 64.077211 L 253.505732 67.627037 L 254.064802 71.569369 L 253.908935 75.563803 L 252.617018 79.349427 L 250.475912 82.722593 L 247.591736 85.480271 L 244.279841 87.705196 L 240.719961 89.498694 L 237.021466 91.022223 L 233.276405 92.409977 L 229.421377 93.477103 L 225.566349 94.544229 L 221.666716 95.426199 L 217.748648 96.231643 L 213.829356 97.030392 L 209.879684 97.662925 L 205.930013 98.295458 L 201.980342 98.927990 L 198.019946 99.467677 L 194.030083 99.752279 L 190.040221 100.036882 L 186.046703 100.212402 L 182.046739 100.195550 L 178.046774 100.178697 L 174.058895 99.938977 L 170.094370 99.415153 L 166.139329 98.817113 L 162.221501 98.025530 L 158.326690 97.114244 L 154.493473 95.980123 L 150.699766 94.719627 L 147.056995 93.067290 L 143.542997 91.167183 L 140.207031 88.977351 L 137.193176 86.367061 L 134.779553 83.186767 L 133.072884 79.572279 L 132.169316 75.675670 L 132.075157 71.684499 L 132.445953 67.759779 L 134.110555 64.139328 L 136.837503 61.243769 L 139.978296 58.783953 L 143.325457 56.598088 L 146.806613 54.627922 L 150.454928 53.003027 L 154.170044 51.521967 L 157.976889 50.310097 L 161.865709 49.373573 L 165.789275 48.611737 L 169.740480 47.988856 L 173.691685 47.365976 L 177.642890 46.743095 L 181.626843 46.417320 L 185.618855 46.164662 L 189.618190 46.116810 L 193.618053 46.083752 L 197.616815 46.078831 L 201.601839 46.424635 L 205.575521 46.847233 L 209.490350 47.668277 L 213.405179 48.489322 L 217.231447 49.614155 L 220.974208 51.025446 L 224.470364 52.968114 L 227.698249 55.309239 L 230.428885 58.189611 L 232.573635 61.512392 L 233.148555 65.444302 L 232.537749 69.364978 L 230.898185 72.990998 L 228.577908 76.237550 L 225.784605 79.089078 L 222.579746 81.459098 L 219.234766 83.652523 L 215.540574 85.179658 L 211.833543 86.682295 L 208.122238 88.171851 L 204.243026 89.147408 L 200.363814 90.122966 L 196.462718 90.989581 L 192.507692 91.587718 L 188.552666 92.185855 L 184.597639 92.783992 L 180.625370 93.204415 L 176.629128 93.377768 L 172.632886 93.551121 L 168.636645 93.724475 L 164.640403 93.897828 L 160.643282 94.036357 L 156.643383 94.064773 L 152.643484 94.093188 L 148.643585 94.121603 L 144.643686 94.150019 L 140.643787 94.178434 L 136.650158 94.049170 L 132.665143 93.703249 L 128.707890 93.137183 L 124.793686 92.356328 L 121.009177 91.061146 L 117.464185 89.291678 L 114.694634 86.468723 L 113.761810 82.635417 L 113.951689 78.654362 L 115.209208 74.869185 L 117.067569 71.354357 L 119.433551 68.146215 L 122.248093 65.303970 L 125.454806 62.931398 L 128.933711 60.957260 L 132.484895 59.129543 L 136.167658 57.568370 L 139.850421 56.007198 L 143.563908 54.531160 L 147.394875 53.380640 L 151.225841 52.230120 L 155.056808 51.079600 L 158.935250 50.144791 L 162.895260 49.580595 L 166.855271 49.016399 L 170.815281 48.452203 L 174.775292 47.888007 L 178.768853 47.684074 L 182.764946 47.507326 L 186.761039 47.330578 L 187.336620 47.305120" fill="none" id="81" stroke="black" stroke-width="0.5" /><path d="M 139.903550 59.328740 L 143.136493 56.973304 L 146.727136 55.214036 L 150.394171 53.629761 L 154.188905 52.364854 L 158.072820 51.418585 L 161.972849 50.529895 L 165.872879 49.641206 L 169.772909 48.752517 L 173.699867 47.993923 L 177.632215 47.261364 L 181.577261 46.610189 L 185.545857 46.109947 L 189.514454 45.609704 L 193.483050 45.109462 L 197.469249 44.853981 L 201.468587 44.781178 L 205.467924 44.708374 L 209.461189 44.787767 L 213.430625 45.254072 L 217.348453 46.060683 L 221.266281 46.867294 L 225.096595 48.000601 L 228.893005 49.260470 L 232.689415 50.520338 L 233.037400 50.635820" fill="none" id="82" stroke="black" stroke-width="0.5" /><path d="M 218.895670 49.171260 L 222.663029 48.167213 L 226.662233 48.247042 L 230.653177 48.391165 L 234.542726 49.324658 L 238.226396 50.862388 L 241.623588 52.922502 L 244.675581 55.482817 L 247.213915 58.574235 L 249.318520 61.967963 L 250.789506 65.684261 L 251.777560 68.257870" fill="none" id="83" stroke="black" stroke-width="0.5" /><path d="M 145.919290 52.572830 L 142.680065 54.718785 L 140.500080 58.056624 L 138.158940 61.290463 L 135.672809 64.424016 L 133.604699 67.840762 L 131.616547 71.311678 L 130.290281 75.079016 L 129.977509 79.066769 L 131.154039 82.734198 L 131.588590 83.399600" fill="none" id="84" stroke="black" stroke-width="0.5" /><path d="M 137.856300 85.312990 L 134.925369 82.590924 L 131.994438 79.868858 L 129.926379 76.539279 L 129.831431 72.555285 L 130.582118 68.653262 L 131.677192 64.806080 L 133.693903 61.352465 L 136.447682 58.486934 L 139.657195 56.102938 L 143.125706 54.118218 L 146.790498 52.555583 L 150.583908 51.286708 L 154.404335 50.128677 L 158.356152 49.509689 L 162.307969 48.890702 L 166.259785 48.271715 L 170.252712 48.064305 L 174.248887 47.889422 L 178.245062 47.714539 L 182.202760 47.541340" fill="none" id="85" stroke="black" stroke-width="0.5" /><path d="M 217.320870 45.438970 L 220.867991 43.943002 L 224.836702 43.491851 L 228.822247 43.605642 L 232.696526 44.517900 L 236.280728 46.293708 L 239.545516 48.573127 L 242.679710 51.058450 L 245.469527 53.912444 L 248.162415 56.870206 L 250.518237 60.087101 L 252.684450 63.449767 L 254.343159 67.075772 L 255.845419 70.782956 L 256.124020 71.470470" fill="none" id="86" stroke="black" stroke-width="0.5" /><path d="M 239.998030 51.533460 L 243.372132 53.681816 L 246.673947 55.927284 L 249.700087 58.543097 L 252.344963 61.542852 L 254.465308 64.922625 L 256.038125 68.581922 L 256.802534 72.508202 L 257.037400 76.485552 L 256.950459 80.479737 L 256.130623 84.377759 L 254.870144 88.173967 L 253.192497 91.797928 L 251.006362 95.147146 L 248.673698 98.385572 L 246.019517 101.378117 L 244.722440 102.840550" fill="none" id="87" stroke="black" stroke-width="0.5" /><path d="M 401.509850 319.974410 L 401.855994 315.989415 L 402.139770 313.443163 L 402.139770 317.443163 L 402.285529 321.433983 L 402.787424 325.402370 L 403.289318 329.370758 L 403.791213 333.339146 L 404.006483 337.326104 L 404.020860 341.326079 L 404.029530 343.738190" fill="none" id="88" stroke="black" stroke-width="0.5" /><path d="M 401.793310 310.383860 L 401.720759 314.383202 L 401.648208 318.382544 L 401.575657 322.381886 L 401.679271 326.377057 L 401.941006 330.368485 L 402.202740 334.359913 L 402.244019 338.356263 L 402.160704 342.355395 L 402.139770 343.360230" fill="none" id="89" stroke="black" stroke-width="0.5" /><path d="M 411.494100 331.171260 L 409.807244 334.502444 L 406.071092 334.808541 L 404.533470 332.942910" fill="none" id="91" stroke="black" stroke-width="0.5" /><path d="M 8.690950 55.124010 L 10.888570 58.466235 L 13.428706 61.555204 L 15.980126 64.635830 L 18.641971 67.620171 L 21.346461 70.567328 L 24.050951 73.514485 L 26.755440 76.461642 L 29.464229 79.404471 L 32.429582 82.088997 L 35.394936 84.773524 L 38.360289 87.458050 L 41.325642 90.142576 L 44.290995 92.827102 L 47.256348 95.511628 L 50.263836 98.147689 L 53.334690 100.710862 L 56.405543 103.274035 L 59.476397 105.837209 L 62.547251 108.400382 L 65.618105 110.963555 L 68.692205 113.522710 L 71.843469 115.986353 L 74.994733 118.449996 L 78.145996 120.913639 L 81.297260 123.377281 L 84.448524 125.840924 L 87.599788 128.304567 L 90.751052 130.768210 L 93.903735 133.229992 L 97.112738 135.617941 L 100.321741 138.005890 L 103.530743 140.393839 L 106.739746 142.781789 L 109.948749 145.169738 L 113.157751 147.557687 L 116.396694 149.904678 L 119.645989 152.237505 L 122.895284 154.570332 L 126.144579 156.903159 L 129.393874 159.235986 L 132.643169 161.568813 L 135.892464 163.901640 L 139.170946 166.193230 L 142.451344 168.482114 L 145.731742 170.770998 L 149.012139 173.059883 L 152.292537 175.348767 L 155.572934 177.637651 L 158.853332 179.926536 L 162.133730 182.215420 L 165.414127 184.504304 L 168.694525 186.793189 L 171.974922 189.082073 L 175.265481 191.356079 L 178.591070 193.578794 L 181.916659 195.801508 L 185.242248 198.024222 L 188.569256 200.244781 L 191.924293 202.422792 L 195.279329 204.600803 L 198.634365 206.778814 L 201.989402 208.956824 L 205.344438 211.134835 L 208.699474 213.312846 L 212.054511 215.490857 L 215.409547 217.668867 L 218.764584 219.846878 L 222.119620 222.024889 L 225.474656 224.202900 L 228.829693 226.380911 L 232.184729 228.558921 L 235.539765 230.736932 L 238.894802 232.914943 L 242.249838 235.092954 L 245.604875 237.270964 L 248.971261 239.431223 L 252.356121 241.562590 L 255.740982 243.693956 L 259.125842 245.825322 L 262.510702 247.956688 L 265.895562 250.088054 L 269.280422 252.219420 L 272.665282 254.350786 L 276.050143 256.482152 L 279.439443 258.606373 L 282.849257 260.697586 L 286.259071 262.788799 L 289.668884 264.880011 L 293.078698 266.971224 L 296.488512 269.062437 L 299.898325 271.153650 L 303.308139 273.244862 L 306.717953 275.336075 L 310.127766 277.427288 L 313.537580 279.518501 L 316.947394 281.609713 L 320.357207 283.700926 L 323.767021 285.792139 L 327.176835 287.883352 L 330.586648 289.974564 L 333.996462 292.065777 L 337.406276 294.156990 L 340.816089 296.248202 L 344.225903 298.339415 L 347.660629 300.389148 L 351.108699 302.416661 L 354.556770 304.444174 L 358.004841 306.471686 L 361.452912 308.499199 L 364.900983 310.526711 L 368.349054 312.554224 L 371.797125 314.581737 L 375.245196 316.609249 L 378.693266 318.636762 L 382.141337 320.664274 L 385.589408 322.691787 L 389.037479 324.719300 L 392.485550 326.746812 L 395.933621 328.774325 L 399.381692 330.801837 L 402.829762 332.829350 L 406.277833 334.856862 L 409.725904 336.884375 L 413.173975 338.911888 L 416.637261 340.913175 L 420.108854 342.900143 L 423.580447 344.887111 L 427.052040 346.874079 L 430.523633 348.861047 L 433.995226 350.848015 L 437.466819 352.834983 L 440.938412 354.821951 L 444.410005 356.808919 L 447.881598 358.795887 L 451.367565 360.757474 L 454.857055 362.712841 L 458.346546 364.668207 L 461.836036 366.623574 L 465.325526 368.578940 L 468.815016 370.534307 L 472.304506 372.489673 L 475.793997 374.445039 L 479.283487 376.400406 L 482.772977 378.355772 L 486.262467 380.311139 L 489.751958 382.266505 L 493.241448 384.221872 L 496.730938 386.177238 L 500.295941 387.991068 L 503.863213 389.800647 L 507.430484 391.610226 L 510.997755 393.419805 L 514.565026 395.229384 L 518.132297 397.038963 L 521.699568 398.848542 L 525.266840 400.658121 L 527.147640 401.612200" fill="none" id="92" stroke="black" stroke-width="0.5" /><path d="M 15.935040 57.887790 L 15.967532 56.341009 L 16.544060 60.296934 L 16.672199 64.294881 L 16.800338 68.292828 L 16.848430 67.294562 L 16.631936 63.310622 L 16.041731 59.354404 L 15.451527 55.398187 L 15.336620 57.849189 L 15.376846 61.846679 L 15.874078 65.815654 L 16.218510 68.564960" fill="none" id="93" stroke="black" stroke-width="0.5" /><path d="M 558.769690 169.998030 L 559.243419 170.002956 L 556.627960 172.407480" fill="none" id="94" stroke="black" stroke-width="0.5" /><path d="M 565.131890 162.864170 L 561.863784 165.170571 L 558.595679 167.476972 L 555.351810 169.816113 L 552.191697 172.268395 L 549.031585 174.720678 L 545.871472 177.172960 L 542.873647 179.817717 L 539.922686 182.518056 L 537.049460 185.299081 L 534.241068 188.147402 L 531.432676 190.995724 L 528.624283 193.844045 L 525.815891 196.692366 L 523.007499 199.540687 L 520.199107 202.389008 L 518.643700 203.966530" fill="none" id="95" stroke="black" stroke-width="0.5" /><path d="M 571.431110 158.612200 L 568.192434 159.945959 L 564.877382 162.176716 L 561.653488 164.544521 L 558.536825 167.048860 L 555.472472 169.619801 L 552.408119 172.190742 L 549.436523 174.866304 L 546.517092 177.600699 L 543.636915 180.375317 L 540.832222 183.227281 L 538.027529 186.079245 L 535.222835 188.931208 L 532.418142 191.783172 L 529.613449 194.635135 L 526.808756 197.487099 L 524.004063 200.339063 L 521.199370 203.191026 L 518.482980 206.122682 L 515.932708 209.204260 L 513.541383 212.409080 L 511.192064 215.646471 L 508.842745 218.883862 L 506.493426 222.121253 L 504.942920 224.257870" fill="none" id="96" stroke="black" stroke-width="0.5" /><path d="M 541.667330 185.210630 L 538.342712 187.434796 L 535.018093 189.658961 L 531.884624 192.133529 L 528.862646 194.754150 L 525.840669 197.374770 L 522.818692 199.995391 L 519.930104 202.758300 L 517.120049 205.604981 L 514.373986 208.509861 L 511.805898 211.576605 L 509.237810 214.643350 L 506.744034 217.770303 L 504.276641 220.918632 L 501.809248 224.066960 L 499.450591 227.296791 L 497.120962 230.548380 L 494.791332 233.799968 L 492.484836 237.067705 L 490.235620 240.375427 L 487.986404 243.683149 L 485.737188 246.990871 L 483.487971 250.298594 L 481.238755 253.606316 L 478.989539 256.914038 L 476.740323 260.221761 L 474.491107 263.529483 L 472.348708 266.903107 L 470.401505 270.397159 L 469.667330 271.714560" fill="none" id="97" stroke="black" stroke-width="0.5" /><path d="M 519.431110 204.155510 L 516.543609 206.923602 L 513.874171 209.890527 L 511.383675 213.020611 L 508.893178 216.150696 L 506.402682 219.280780 L 503.912186 222.410864 L 501.599118 225.673494 L 499.304027 228.949552 L 497.008936 232.225610 L 494.713845 235.501668 L 492.418754 238.777726 L 490.157583 242.076867 L 487.952334 245.414063 L 485.747086 248.751260 L 483.541838 252.088456 L 481.370174 255.447164 L 479.260902 258.845837 L 477.151631 262.244509 L 475.042359 265.643181 L 472.933087 269.041853 L 470.823815 272.440525 L 468.714543 275.839197 L 466.717345 279.304339 L 464.837770 282.832107 L 463.149149 286.458202 L 462.391740 288.084640" fill="none" id="98" stroke="black" stroke-width="0.5" /><path d="M 476.187010 262.714560 L 475.514117 265.426378 L 473.437561 268.843385 L 471.318339 272.235479 L 469.090817 275.557849 L 466.863294 278.880219 L 464.635771 282.202589 L 462.289500 285.436874 L 459.756311 288.532509 L 457.076085 291.497593 L 454.302058 294.379393 L 451.341218 297.067888 L 448.366349 299.741864 L 445.391479 302.415840 L 442.416609 305.089816 L 439.361606 307.670988 L 436.152551 310.049329 L 433.226380 311.990160" fill="none" id="100" stroke="black" stroke-width="0.5" /><path d="M 470.832680 274.620080 L 468.912851 278.015624 L 466.483163 281.193141 L 464.053475 284.370658 L 461.329980 287.293081 L 458.524933 290.144696 L 455.719887 292.996312 L 452.707948 295.626704 L 449.675117 298.234757 L 446.642286 300.842809 L 443.609455 303.450861 L 440.576624 306.058913 L 437.386412 308.467107 L 434.018362 310.614676 L 430.544055 312.596893 L 427.069747 314.579111 L 427.053150 314.588580" fill="none" id="101" stroke="black" stroke-width="0.5" /><path d="M 647.620080 154.501970 L 651.060597 152.461665 L 654.515197 150.455762 L 655.186771 150.348949 L 651.905778 151.296528 L 655.687084 150.057331 L 657.229379 149.269060 L 653.471136 150.638590 L 649.608069 151.660292 L 645.640253 152.044314 L 641.669760 151.959976 L 640.312990 151.643700" fill="none" id="102" stroke="black" stroke-width="0.5" /><path d="M 647.714570 140.092520 L 650.285332 137.048461 L 647.608758 139.647363 L 645.643180 143.124706 L 643.693969 146.616224 L 641.456309 149.931775 L 641.289370 150.179130" fill="none" id="103" stroke="black" stroke-width="0.5" /><path d="M 665.257880 139.596450 L 664.279515 143.474955 L 663.301151 147.353460 L 661.775880 151.049936 L 661.320870 152.139760" fill="none" id="104" stroke="black" stroke-width="0.5" /><path d="M 644.690950 141.722440 L 645.946283 137.924528 L 646.832680 137.753997 L 646.121837 141.679600 L 645.156279 145.556191 L 643.920670 149.360566 L 643.179140 151.643700" fill="none" id="105" stroke="black" stroke-width="0.5" /><path d="M 662.864180 136.336610 L 663.235990 140.319292 L 663.607801 144.301974 L 663.979611 148.284656 L 664.092520 149.494090" fill="none" id="106" stroke="black" stroke-width="0.5" /><path d="M 664.092520 145.667320 L 660.728849 147.780099 L 656.997694 149.188600 L 653.132354 150.217750 L 649.168294 150.555495 L 645.202052 150.253569 L 641.947938 148.174153 L 641.730320 147.911420" fill="none" id="107" stroke="black" stroke-width="0.5" /><path d="M 647.021660 152.683070 L 643.709521 150.459131 L 640.004993 148.950333 L 636.135347 147.969343 L 632.198469 147.293114 L 628.224833 146.834619 L 624.236176 146.580214 L 620.238232 146.451989 L 616.240074 146.373262 L 612.241172 146.466985 L 608.242270 146.560709 L 604.263623 146.884903 L 600.309671 147.490101 L 596.355719 148.095299 L 592.401767 148.700496 L 588.461623 149.371869 L 584.595573 150.398348 L 580.729524 151.424827 L 576.927119 152.664860 L 573.129885 153.922245 L 569.384939 155.324549 L 565.659646 156.781325 L 561.995607 158.379948 L 558.380888 160.092783 L 554.863026 161.984422 L 551.453735 164.076486 L 548.212083 166.404674 L 545.230303 169.067233 L 542.321777 171.813225 L 539.571725 174.715438 L 536.867685 177.663008 L 536.596460 177.958660" fill="none" id="108" stroke="black" stroke-width="0.5" /><path d="M 648.533470 150.131890 L 649.721722 150.796384 L 646.020475 149.312502 L 642.333311 147.761753 L 638.646148 146.211003 L 634.796421 145.144180 L 630.920813 144.154398 L 626.955445 143.634274 L 622.972760 143.319556 L 618.974399 143.205045 L 614.976039 143.090534 L 610.982977 143.090767 L 607.012192 143.573326 L 603.070318 144.227930 L 599.159905 145.069757 L 595.338514 146.234792 L 591.548545 147.513905 L 587.771836 148.826091 L 584.148036 150.519629 L 580.580161 152.320489 L 577.116056 154.320482 L 573.651951 156.320476 L 570.187845 158.320470 L 566.723740 160.320463 L 563.297993 162.383594 L 559.926724 164.536393 L 556.716374 166.917859 L 553.601845 169.421962 L 550.738597 172.215134 L 548.019724 175.144416 L 545.478350 178.076770" fill="none" id="109" stroke="black" stroke-width="0.5" /><path d="M 562.076770 151.690940 L 562.606303 152.035864 L 563.165195 155.995770 L 563.707813 159.958795 L 563.698728 159.772882 L 563.352462 155.792769 L 563.239030 151.794378 L 563.125598 147.795986 L 563.654503 151.089339 L 564.241838 155.045984 L 564.829173 159.002629 L 564.312990 161.895670" fill="none" id="110" stroke="black" stroke-width="0.5" /><path d="M 566.895670 148.336610 L 566.910653 152.336582 L 566.925636 156.336554 L 566.927170 156.746060" fill="none" id="111" stroke="black" stroke-width="0.5" /><path d="M 567.998030 155.777560 L 567.453325 151.814821 L 567.277258 147.821874 L 567.832617 148.937108 L 568.246208 152.915668 L 568.501970 156.902410 L 567.840550 157.242120" fill="none" id="112" stroke="black" stroke-width="0.5" /><path d="M 569.478350 157.667320 L 569.709537 153.901909 L 567.227262 150.814050 L 564.217707 148.188025 L 560.689320 146.303752 L 558.391740 145.076770" fill="none" id="113" stroke="black" stroke-width="0.5" /><path d="M 572.785440 151.383860 L 569.224906 149.561061 L 565.664371 147.738263 L 562.031271 146.078642 L 558.292949 144.655638 L 554.554626 143.232633 L 550.816303 141.809628 L 547.077980 140.386623 L 543.313484 139.038177 L 539.505978 137.812250 L 535.698472 136.586323 L 531.890965 135.360396 L 528.083459 134.134469 L 524.252455 132.986725 L 520.399984 131.910402 L 516.547514 130.834079 L 512.695043 129.757757 L 508.842498 128.681730 L 504.940799 127.800397 L 501.039101 126.919064 L 497.137402 126.037732 L 493.235703 125.156399 L 489.334005 124.275066 L 485.432306 123.393733 L 481.530607 122.512401 L 477.609221 121.730669 L 473.665631 121.061267 L 469.722041 120.391865 L 465.778451 119.722463 L 461.834862 119.053061 L 457.891272 118.383659 L 453.947682 117.714257 L 450.004092 117.044855 L 446.059674 116.380977 L 442.093130 115.864714 L 438.126586 115.348452 L 434.160042 114.832189 L 430.193497 114.315926 L 426.222473 113.837471 L 422.245126 113.412368 L 418.267779 112.987265 L 414.290433 112.562161 L 410.313086 112.137058 L 406.335739 111.711955 L 402.358392 111.286851 L 398.381046 110.861748 L 394.403699 110.436644 L 390.426352 110.011541 L 386.443564 109.642811 L 382.458336 109.299364 L 378.473108 108.955916 L 374.487880 108.612468 L 370.502651 108.269021 L 366.517423 107.925573 L 362.532195 107.582126 L 358.546967 107.238678 L 354.561739 106.895231 L 350.576510 106.551783 L 346.591282 106.208335 L 342.606054 105.864888 L 338.620826 105.521440 L 334.623452 105.381629 L 330.625654 105.248935 L 326.627855 105.116242 L 322.630057 104.983549 L 318.632258 104.850855 L 314.634460 104.718162 L 310.636661 104.585469 L 306.638863 104.452776 L 302.641064 104.320082 L 298.641710 104.286836 L 294.641717 104.294375 L 290.641724 104.301913 L 286.641731 104.309452 L 282.641738 104.316991 L 278.641745 104.324529 L 274.644145 104.420689 L 270.649572 104.628984 L 266.654999 104.837280 L 262.660426 105.045576 L 258.665853 105.253871 L 255.116140 105.438970" fill="none" id="114" stroke="black" stroke-width="0.5" /><path d="M 284.974410 105.769680 L 288.935858 105.228832 L 290.431258 105.234501 L 286.433209 105.109561 L 282.477107 104.603666 L 278.547656 103.855729 L 274.657471 102.941079 L 270.807277 101.856638 L 269.352370 101.446850" fill="none" id="115" stroke="black" stroke-width="0.5" /><path d="M 240.124020 88.431100 L 237.876754 87.004133 L 234.059198 85.809870 L 230.134221 85.125415 L 226.159351 84.677750 L 222.184480 84.230084 L 218.209610 83.782419 L 214.234739 83.334753 L 210.280934 82.731353 L 206.329974 82.106920 L 202.456174 81.126800 L 198.601616 80.057976 L 194.803976 78.816208 L 191.068047 77.386930 L 187.420316 75.749224 L 183.793199 74.062800 L 180.166083 72.376375 L 176.538967 70.689950 L 172.911851 69.003525 L 169.284735 67.317100 L 165.657619 65.630675 L 162.030503 63.944250 L 158.403387 62.257826 L 154.776271 60.571401 L 151.270000 58.661277 L 147.871206 56.552201 L 144.760850 54.039501 L 141.750541 51.405485 L 138.760288 48.751053 L 136.072940 45.788256 L 135.777560 45.462600" fill="none" id="116" stroke="black" stroke-width="0.5" /><path d="M 144.848430 49.879920 L 146.404724 50.877051 L 142.941055 48.876302 L 139.323638 47.177328 L 135.668985 45.551440 L 132.014332 43.925552 L 128.304391 42.436837 L 124.543730 41.073961 L 120.783069 39.711085 L 117.022409 38.348209 L 113.261748 36.985333 L 109.501087 35.622457 L 105.742388 34.254451 L 102.031783 32.760661 L 98.530057 30.837761 L 94.571749 30.261739 L 91.741136 31.427239 L 91.626400 35.424100 L 91.641682 39.424071 L 91.656963 43.424042 L 91.672244 47.424013 L 91.817374 51.416232 L 92.124020 54.061020" fill="none" id="117" stroke="black" stroke-width="0.5" /><path d="M 683.872050 116.966530 L 684.146364 120.930901 L 684.133546 124.930880 L 683.917585 128.909910 L 683.113807 132.828321 L 682.738190 134.659450" fill="none" id="118" stroke="black" stroke-width="0.5" /></svg>