<?xml version="1.0" encoding="utf-8" ?>
<svg baseProfile="full" height="571.62115" version="1.1" viewBox="0,0,438.62115,571.62115" width="438.62115" xmlns="http://www.w3.org/2000/svg" xmlns:ev="http://www.w3.org/2001/xml-events" xmlns:xlink="http://www.w3.org/1999/xlink"><defs><style type="text/css"><![CDATA[
	.background { fill: white; }
	.line { stroke: firebrick; stroke-width: .1mm; }
	.blacksquare { fill: indigo; }
	.whitesquare { fill: white; }
]]></style></defs><rect class="background" height="100%" width="100%" x="0" y="0" /><path d="M 122.508209 68.708305 L 121.907001 72.057057 L 121.603534 76.045529 L 121.359885 80.037558 L 121.188533 84.033886 L 121.017180 88.030214 L 120.845828 92.026542 L 120.674475 96.022870 L 120.634409 100.022012 L 120.634409 104.022012 L 120.634409 108.022012 L 120.634409 112.022012 L 120.634409 116.022012 L 120.634409 120.022012 L 120.634409 124.022012 L 120.565837 128.021234 L 120.475093 132.020204 L 120.384348 136.019175 L 120.227882 140.015983 L 120.055580 144.012270 L 119.883279 148.008558 L 119.773534 152.006841 L 119.690768 156.005984 L 119.608003 160.005128 L 119.563669 164.004669 L 119.563669 168.004669 L 119.563669 172.004669 L 119.563669 176.004669 L 119.563669 180.004669 L 119.563669 184.004669 L 119.563669 188.004669 L 119.563669 192.004669 L 119.563669 196.004669 L 119.563669 200.004669 L 119.563669 204.004669 L 119.563669 208.004669 L 119.563669 212.004669 L 119.563669 216.004669 L 119.563669 220.004669 L 119.563669 224.004669 L 119.563669 228.004669 L 119.563669 232.004669 L 119.563669 236.004669 L 119.563669 240.004669 L 119.563669 244.004669 L 119.563669 248.004669 L 119.563669 252.004669 L 119.563669 256.004669 L 119.563669 260.004669 L 119.563669 264.004669 L 119.563669 268.004669 L 119.563669 272.004669 L 119.563669 276.004669 L 119.563669 280.004669 L 119.563669 284.004669 L 119.563669 288.004669 L 119.563669 292.004669 L 119.563669 296.004669 L 119.563669 300.004669 L 119.563669 304.004669 L 119.563669 308.004669 L 119.563669 312.004669 L 119.563669 316.004669 L 119.563669 320.004669 L 119.563669 324.004669 L 119.563669 328.004669 L 119.563669 332.004669 L 119.563669 336.004669 L 119.563669 340.004669 L 119.563669 344.004669 L 119.563669 348.004669 L 119.597941 352.004310 L 119.681823 356.003430 L 119.765706 360.002551 L 119.849588 364.001671 L 119.933470 368.000791 L 119.965199 372.000459 L 119.965199 376.000459 L 119.987116 380.000285 L 120.050592 383.999781 L 120.114068 387.999277 L 120.177544 391.998774 L 120.233818 395.998334 L 120.241064 399.998327 L 120.248310 403.998320 L 120.255556 407.998314 L 120.262802 411.998307 L 120.270048 415.998301 L 120.277294 419.998294 L 120.284541 423.998288 L 120.291787 427.998281 L 120.299033 431.998274 L 120.306279 435.998268 L 120.313525 439.998261 L 120.320771 443.998255 L 120.328017 447.998248 L 120.335264 451.998242 L 120.342510 455.998235 L 120.349756 459.998229 L 120.357002 463.998222 L 120.364248 467.998215 L 120.521106 471.993679 L 120.755877 475.986783 L 121.169789 479.508635" fill="none" id="1" stroke="black" stroke-width="0.62115" /><path d="M 323.540159 0.310575 L 323.540159 4.310575 L 323.540159 8.310575 L 323.540159 12.310575 L 323.540159 16.310575 L 323.540159 20.310575 L 323.540159 24.310575 L 323.540159 28.310575 L 323.540159 32.310575 L 323.540159 36.310575 L 323.540159 40.310575 L 323.540159 44.310575 L 323.540159 48.310575 L 323.540159 52.310575 L 323.540159 56.310575 L 323.540159 60.310575 L 323.540159 64.310575 L 323.540159 68.310575 L 323.540159 72.310575 L 323.540159 76.310575 L 323.540159 80.310575 L 323.540159 84.310575 L 323.540159 88.310575 L 323.540159 92.310575 L 323.540159 96.310575 L 323.540159 100.310575 L 323.540159 104.310575 L 323.540159 108.310575 L 323.540159 112.310575 L 323.540159 116.310575 L 323.540159 120.310575 L 323.540159 124.310575 L 323.540159 128.310575 L 323.540159 132.310575 L 323.540159 136.310575 L 323.540159 140.310575 L 323.540159 144.310575 L 323.540159 148.310575 L 323.540159 152.310575 L 323.540159 156.310575 L 323.540159 160.310575 L 323.540159 164.310575 L 323.540159 168.310575 L 323.540159 172.310575 L 323.540159 176.310575 L 323.592083 180.310198 L 323.650209 184.309775 L 323.677112 188.309600 L 323.682380 192.309597 L 323.687649 196.309594 L 323.692917 200.309590 L 323.698186 204.309587 L 323.703455 208.309583 L 323.708723 212.309580 L 323.713992 216.309576 L 323.719260 220.309573 L 323.724529 224.309569 L 323.729797 228.309566 L 323.735066 232.309562 L 323.740335 236.309559 L 323.745603 240.309555 L 323.750872 244.309552 L 323.756140 248.309548 L 323.761409 252.309545 L 323.766678 256.309541 L 323.771946 260.309538 L 323.777215 264.309535 L 323.782483 268.309531 L 323.787752 272.309528 L 323.793020 276.309524 L 323.798289 280.309521 L 323.803558 284.309517 L 323.818850 288.309433 L 323.877638 292.309001 L 323.936427 296.308569 L 323.995215 300.308137 L 324.054004 304.307705 L 324.075529 308.307547 L 324.075529 312.307547 L 324.075529 316.307547 L 324.075529 320.307547 L 324.075529 324.307547 L 324.075529 328.307547 L 324.075529 332.307547 L 324.075529 336.307547 L 324.075529 340.307547 L 324.075529 344.307547 L 324.075529 348.307547 L 324.075529 352.307547 L 324.075529 356.307547 L 324.075529 360.307547 L 324.075529 364.307547 L 324.075529 368.307547 L 324.096000 372.307391 L 324.156861 376.306928 L 324.217721 380.306465 L 324.278582 384.306002 L 324.339442 388.305539 L 324.744739 392.273260 L 324.744739 396.273260 L 324.744739 400.273260 L 324.744739 404.273260 L 324.934957 408.268342 L 325.012429 409.765705" fill="none" id="2" stroke="black" stroke-width="0.62115" /><path d="M 121.035939 69.950025 L 122.345235 69.953141 L 126.268884 69.175338 L 130.154693 68.230310 L 134.030963 67.243127 L 137.907233 66.255943 L 141.783503 65.268759 L 145.659773 64.281576 L 149.536043 63.294392 L 153.394171 62.238712 L 157.250908 61.177779 L 161.107645 60.116845 L 164.964382 59.055912 L 168.821119 57.994979 L 172.677856 56.934045 L 176.534593 55.873112 L 180.391330 54.812178 L 184.248067 53.751245 L 188.104804 52.690312 L 191.961541 51.629378 L 195.818278 50.568445 L 199.675015 49.507512 L 203.531752 48.446578 L 207.388544 47.385847 L 211.254074 46.357413 L 215.119604 45.328979 L 218.985135 44.300546 L 222.850665 43.272112 L 226.716195 42.243679 L 230.581726 41.215245 L 234.447256 40.186812 L 238.312786 39.158378 L 242.178316 38.129945 L 246.043847 37.101511 L 249.909377 36.073077 L 253.774907 35.044644 L 257.640438 34.016210 L 261.505968 32.987777 L 265.371498 31.959343 L 269.237028 30.930910 L 273.102559 29.902476 L 276.951550 28.813972 L 280.798737 27.718912 L 284.645923 26.623852 L 288.493110 25.528792 L 292.340296 24.433732 L 296.187483 23.338673 L 300.034669 22.243613 L 303.881855 21.148553 L 307.729042 20.053493 L 311.576228 18.958433 L 315.423415 17.863373 L 319.270601 16.768313 L 323.117788 15.673253 L 326.964974 14.578193 L 330.814606 13.491869 L 334.671376 12.431059 L 338.528147 11.370249 L 342.384918 10.309438 L 346.250048 9.279777 L 350.119759 8.267188 L 353.989470 7.254600 L 357.859181 6.242012 L 361.734298 5.251837 L 364.897589 4.553095" fill="none" id="3" stroke="black" stroke-width="0.62115" /><path d="M 124.783539 71.916065 L 122.091508 74.708197 L 119.887574 78.046114 L 117.818469 81.469387 L 115.749364 84.892661 L 113.680259 88.315935 L 111.557780 91.706233 L 109.422223 95.088451 L 107.286667 98.470669 L 105.151110 101.852886 L 103.015553 105.235104 L 100.879997 108.617322 L 98.723899 111.986317 L 96.529287 115.330517 L 94.334674 118.674718 L 92.140062 122.018918 L 89.950111 125.366144 L 87.788853 128.731997 L 85.627595 132.097850 L 83.466338 135.463703 L 81.305080 138.829556 L 79.143822 142.195408 L 76.982565 145.561261 L 74.821307 148.927114 L 72.660049 152.292967 L 70.565050 155.699672 L 68.528407 159.142358 L 66.491765 162.585044 L 64.455122 166.027730 L 62.505895 169.519891 L 60.602838 173.038182 L 58.699782 176.556474 L 56.837258 180.095980 L 55.030898 183.664883 L 53.224538 187.233785 L 51.529763 190.856308 L 49.871837 194.496539 L 48.459981 198.235672 L 47.368646 202.073518 L 47.020849 203.848165" fill="none" id="4" stroke="black" stroke-width="0.62115" /><path d="M 121.705159 74.916875 L 119.670804 77.665392 L 117.064373 80.698154 L 114.351587 83.637338 L 111.571678 86.513466 L 108.791770 89.389593 L 106.011861 92.265720 L 103.231953 95.141848 L 100.452044 98.017975 L 97.672136 100.894102 L 94.892227 103.770230 L 92.112319 106.646357 L 89.332410 109.522485 L 86.577589 112.422298 L 83.865873 115.362807 L 81.154157 118.303317 L 78.442441 121.243826 L 75.766287 124.216443 L 73.117248 127.213540 L 70.468208 130.210637 L 67.819168 133.207733 L 65.191052 136.223022 L 62.591322 139.262989 L 59.991592 142.302957 L 57.391862 145.342924 L 54.811970 148.399498 L 52.277142 151.493790 L 49.742314 154.588083 L 47.207486 157.682375 L 44.672658 160.776668 L 42.137830 163.870961 L 39.603002 166.965253 L 37.056785 170.050091 L 34.481722 173.110981 L 31.906659 176.171872 L 29.331596 179.232762 L 26.771857 182.306037 L 24.485330 185.555391 L 25.294641 188.520191 L 25.338309 188.533695" fill="none" id="5" stroke="black" stroke-width="0.62115" /><path d="M 128.129609 80.711545 L 125.608951 77.605699 L 123.250197 74.389049 L 121.695976 71.119718 L 124.034068 74.356291 L 126.277708 77.667798 L 128.499386 80.993592 L 130.617234 84.386926 L 132.735082 87.780261 L 134.852930 91.173595 L 136.970778 94.566930 L 139.088626 97.960265 L 141.206474 101.353599 L 143.324322 104.746934 L 145.442170 108.140268 L 147.568300 111.528403 L 149.704416 114.910268 L 151.840532 118.292133 L 153.976648 121.673997 L 156.112764 125.055862 L 158.248880 128.437727 L 160.384995 131.819591 L 162.521111 135.201456 L 164.657227 138.583321 L 166.793343 141.965185 L 168.929459 145.347050 L 171.065575 148.728915 L 173.201691 152.110779 L 175.337807 155.492644 L 177.473923 158.874509 L 179.610039 162.256373 L 181.746155 165.638238 L 183.854756 169.037105 L 185.923861 172.460379 L 187.992967 175.883653 L 190.074053 179.299521 L 192.211125 182.680781 L 194.348198 186.062042 L 196.532954 189.412172 L 198.768703 192.729012 L 201.038576 196.021872 L 203.401544 199.249314 L 205.831366 202.425888 L 208.428201 205.461954 L 210.844489 207.262875" fill="none" id="6" stroke="black" stroke-width="0.62115" /><path d="M 326.350859 13.555515 L 326.941322 17.472339 L 328.573997 21.113522 L 330.559600 24.582541 L 332.624225 28.008519 L 334.702587 31.425758 L 336.930624 34.747783 L 339.225971 38.022117 L 341.621424 41.225522 L 344.086275 44.373347 L 346.689052 47.410706 L 349.291830 50.448065 L 351.894608 53.485423 L 354.497385 56.522782 L 357.100163 59.560141 L 359.702941 62.597499 L 362.305719 65.634858 L 364.908496 68.672217 L 367.511274 71.709576 L 370.114052 74.746934 L 372.687891 77.808549 L 375.223842 80.901921 L 377.759793 83.995294 L 380.295744 87.088666 L 382.831695 90.182039 L 385.310593 93.320923 L 387.763010 96.480931 L 390.215427 99.640939 L 392.667844 102.800946 L 395.117341 105.963199 L 397.540148 109.145966 L 399.962954 112.328734 L 402.385761 115.511501 L 404.808568 118.694269 L 407.231374 121.877036 L 409.654181 125.059803 L 412.091030 128.231718 L 414.560069 131.378756 L 417.058388 134.502065 L 419.625667 137.569487 L 419.182812 139.355594 L 418.033199 138.451235" fill="none" id="7" stroke="black" stroke-width="0.62115" /><path d="M 320.461769 9.830375 L 322.842116 13.036142 L 325.483385 16.040089 L 328.124654 19.044036 L 330.765922 22.047984 L 333.407191 25.051931 L 336.048460 28.055878 L 338.689728 31.059826 L 341.330997 34.063773 L 343.972266 37.067720 L 346.613535 40.071668 L 349.254803 43.075615 L 351.896072 46.079562 L 354.534539 49.085945 L 357.141112 52.120047 L 359.747686 55.154149 L 362.354259 58.188251 L 364.960833 61.222353 L 367.544561 64.275792 L 370.106407 67.347752 L 372.668254 70.419713 L 375.230101 73.491673 L 377.791948 76.563634 L 380.324730 79.659248 L 382.812204 82.791734 L 385.299679 85.924221 L 387.787153 89.056707 L 390.274627 92.189194 L 392.752521 95.329151 L 395.184147 98.505185 L 397.615774 101.681219 L 400.047401 104.857253 L 402.479028 108.033286 L 404.910655 111.209320 L 407.342281 114.385354 L 409.773908 117.561388 L 412.205535 120.737422 L 414.630226 123.918728 L 417.039456 127.111784 L 419.448687 130.304840 L 421.857917 133.497896 L 424.267148 136.690952 L 426.676379 139.884009 L 429.000904 143.138984 L 431.312255 146.403591 L 433.623606 149.668198 L 435.816114 153.013253 L 437.975779 156.352605" fill="none" id="8" stroke="black" stroke-width="0.62115" /><path d="M 116.886819 78.848975 L 114.933129 82.006840 L 112.336997 85.049882 L 109.740866 88.092923 L 107.175087 91.160575 L 104.734405 94.329656 L 102.293723 97.498736 L 99.853041 100.667816 L 97.412359 103.836897 L 94.944556 106.984887 L 92.474327 110.130991 L 90.004098 113.277094 L 87.533869 116.423198 L 85.063639 119.569302 L 82.593410 122.715405 L 80.123181 125.861509 L 77.652952 129.007613 L 75.182723 132.153716 L 72.712494 135.299820 L 70.270572 138.467823 L 67.845762 141.649065 L 65.420953 144.830306 L 62.996144 148.011548 L 60.621186 151.230166 L 58.247234 154.449537 L 55.873283 157.668909 L 53.532436 160.912213 L 51.219670 164.175817 L 48.906904 167.439422 L 46.594139 170.703027 L 44.281373 173.966631 L 41.968607 177.230236 L 39.634448 180.478497 L 37.284816 183.715661 L 34.935184 186.952824 L 32.585552 190.189988 L 30.225031 193.419040 L 27.796003 196.597063 L 25.366976 199.775085 L 22.937948 202.953107 L 20.508920 206.131129 L 20.772553 206.982341 L 21.055339 206.745495" fill="none" id="9" stroke="black" stroke-width="0.62115" /><path d="M 47.690069 188.947595 L 51.408486 190.421834 L 55.161705 191.802634 L 58.938496 193.120151 L 62.715287 194.437668 L 66.471856 195.811204 L 70.219351 197.209875 L 73.906617 198.755369 L 77.556779 200.391315 L 81.200551 202.040750 L 84.778692 203.828740 L 88.356833 205.616729 L 91.933905 207.406788 L 95.462214 209.291207 L 98.990523 211.175626 L 102.518832 213.060044 L 106.047141 214.944463 L 109.575451 216.828882 L 113.103760 218.713301 L 116.632069 220.597720 L 120.164981 222.473367 L 123.720503 224.305923 L 127.276026 226.138478 L 130.831549 227.971033 L 134.387071 229.803588 L 137.958263 231.605131 L 141.542859 233.380144 L 145.127455 235.155157 L 148.712051 236.930170 L 152.296647 238.705183 L 155.881243 240.480196 L 159.465839 242.255209 L 163.050435 244.030222 L 166.635031 245.805235 L 170.201163 247.616606 L 173.749055 249.463890 L 177.296948 251.311174 L 180.844841 253.158458 L 184.378439 255.032880 L 187.908598 256.913831 L 191.438730 258.794831 L 194.904783 260.791447 L 198.369149 262.790904 L 201.780850 264.879036 L 205.239789 266.871596 L 203.349289 265.002565" fill="none" id="10" stroke="black" stroke-width="0.62115" /><path d="M 45.414739 180.566025 L 49.057781 182.206628 L 52.802168 183.610287 L 56.585080 184.910124 L 60.367993 186.209960 L 64.150905 187.509797 L 67.933817 188.809633 L 71.716729 190.109470 L 75.499641 191.409307 L 79.282554 192.709143 L 83.065466 194.008980 L 86.844618 195.319509 L 90.608446 196.673612 L 94.372275 198.027714 L 98.136104 199.381816 L 101.899933 200.735918 L 105.663762 202.090020 L 109.427590 203.444123 L 113.191165 204.798917 L 116.936673 206.202900 L 120.682182 207.606883 L 124.427690 209.010866 L 128.173198 210.414849 L 131.918706 211.818832 L 135.664214 213.222815 L 139.409723 214.626798 L 143.155231 216.030781 L 146.900739 217.434764 L 150.646247 218.838747 L 154.391755 220.242730 L 158.137263 221.646713 L 161.882228 223.052128 L 165.614888 224.489921 L 169.347548 225.927714 L 173.080208 227.365507 L 176.812868 228.803300 L 180.545528 230.241093 L 184.278188 231.678886 L 188.010848 233.116679 L 191.743508 234.554472 L 195.476168 235.992265 L 199.208828 237.430058 L 202.952984 238.837601 L 206.698492 240.241585 L 210.443999 241.645570 L 214.167078 243.105739 L 216.104033 244.115727 L 212.224677 243.210768 L 209.907589 242.651715" fill="none" id="11" stroke="black" stroke-width="0.62115" /><path d="M 37.384169 185.118975 L 37.070616 184.260293 L 40.983572 185.069044 L 44.840505 186.129262 L 48.726154 187.076873 L 52.619820 187.993040 L 56.506710 188.936922 L 60.383843 189.920709 L 64.260977 190.904496 L 68.138110 191.888283 L 72.015244 192.872070 L 75.892377 193.855857 L 79.769510 194.839644 L 83.626677 195.897690 L 87.474372 196.990960 L 91.322068 198.084231 L 95.169763 199.177502 L 99.012440 200.288187 L 102.851887 201.410081 L 106.691334 202.531974 L 110.530781 203.653868 L 114.370228 204.775762 L 118.209676 205.897656 L 122.049123 207.019550 L 125.888570 208.141444 L 129.728017 209.263337 L 133.559534 210.411914 L 137.388462 211.569197 L 141.217391 212.726480 L 145.046320 213.883763 L 148.875249 215.041046 L 152.704178 216.198328 L 156.533107 217.355611 L 160.362036 218.512894 L 164.186834 219.683518 L 167.999861 220.892163 L 171.812889 222.100808 L 175.625916 223.309453 L 179.427433 224.553641 L 183.225104 225.809703 L 187.022776 227.065764 L 190.820448 228.321825 L 194.618119 229.577887 L 198.415791 230.833948 L 202.218277 232.074818 L 206.046211 233.235386 L 209.893887 234.324549 L 213.253659 235.615345" fill="none" id="12" stroke="black" stroke-width="0.62115" /><path d="M 239.085329 134.519145 L 240.124744 134.400453 L 244.036525 135.202871 L 247.937893 136.085666 L 251.837617 136.975360 L 255.718073 137.945961 L 259.598528 138.916562 L 263.452331 139.986313 L 267.296433 141.092152 L 271.140535 142.197990 L 274.971431 143.348412 L 278.797659 144.514595 L 282.623887 145.680777 L 286.448621 146.851751 L 290.260045 148.065444 L 294.071469 149.279136 L 297.882892 150.492829 L 301.694316 151.706521 L 305.505740 152.920213 L 309.317164 154.133906 L 313.128587 155.347598 L 316.940011 156.561291 L 320.751435 157.774983 L 324.562858 158.988675 L 328.374282 160.202368 L 332.185706 161.416060 L 335.997130 162.629753 L 339.808553 163.843445 L 343.619977 165.057138 L 347.431401 166.270830 L 351.242824 167.484522 L 355.080939 168.610828 L 358.920047 169.733884 L 362.759154 170.856939 L 366.598261 171.979995 L 370.437369 173.103051 L 374.276476 174.226107 L 378.115584 175.349163 L 381.959895 176.453697 L 385.822174 177.494271 L 389.684454 178.534846 L 393.546734 179.575420 L 397.409014 180.615994 L 401.271293 181.656569 L 405.133573 182.697143 L 406.147795 183.220176 L 404.381229 183.049455" fill="none" id="13" stroke="black" stroke-width="0.62115" /><path d="M 319.792559 30.629085 L 316.691758 33.155947 L 313.703580 35.807187 L 310.882289 38.642732 L 308.060997 41.478276 L 305.342101 44.409480 L 302.704802 47.416914 L 300.067504 50.424348 L 297.430206 53.431781 L 294.823809 56.465758 L 292.248747 59.526649 L 289.673685 62.587541 L 287.098624 65.648432 L 284.523562 68.709324 L 281.948500 71.770215 L 279.373438 74.831107 L 276.798376 77.891998 L 274.223314 80.952890 L 271.648253 84.013781 L 269.073191 87.074673 L 266.498129 90.135564 L 263.922496 93.195971 L 261.321637 96.234973 L 258.720778 99.273974 L 256.119919 102.312976 L 253.519060 105.351978 L 250.918201 108.390980 L 248.317342 111.429982 L 245.716483 114.468984 L 243.115624 117.507986 L 240.514765 120.546987 L 238.045757 123.693882 L 236.274629 127.068855" fill="none" id="14" stroke="black" stroke-width="0.62115" /><path d="M 324.744739 19.867565 L 321.563732 22.254222 L 318.671005 25.016853 L 315.795701 27.796559 L 313.091974 30.744416 L 310.408556 33.710133 L 307.830534 36.768531 L 305.252511 39.826929 L 302.674488 42.885327 L 300.096465 45.943725 L 297.518442 49.002123 L 294.956803 52.073809 L 292.496469 55.227656 L 290.036134 58.381504 L 287.575800 61.535351 L 285.115466 64.689199 L 282.655131 67.843046 L 280.194797 70.996894 L 277.734462 74.150741 L 275.274128 77.304589 L 272.829047 80.470253 L 270.390283 83.640810 L 267.951519 86.811366 L 265.512756 89.981923 L 263.073992 93.152480 L 260.635228 96.323037 L 258.196464 99.493594 L 255.757700 102.664151 L 253.318936 105.834707 L 250.880172 109.005264 L 248.441408 112.175821 L 245.960035 115.312919 L 243.458241 118.433980 L 240.956446 121.555042 L 238.454652 124.676103 L 235.952858 127.797164 L 237.338355 127.807356 L 240.646977 125.559463 L 243.955598 123.311570 L 244.974409 122.619385" fill="none" id="15" stroke="black" stroke-width="0.62115" /><path d="M 325.413959 21.109275 L 322.336847 22.212199 L 319.491988 25.024098 L 316.647129 27.835998 L 313.802271 30.647898 L 310.973616 33.476026 L 308.157432 36.316643 L 305.341249 39.157261 L 302.525065 41.997879 L 299.708881 44.838496 L 296.892697 47.679114 L 294.106427 50.548753 L 291.352338 53.449615 L 288.598250 56.350476 L 285.844162 59.251338 L 283.090073 62.152199 L 280.335985 65.053060 L 277.581896 67.953922 L 274.827808 70.854783 L 272.073720 73.755645 L 269.319631 76.656506 L 266.565543 79.557368 L 263.811455 82.458229 L 261.057366 85.359091 L 258.303278 88.259952 L 255.549190 91.160814 L 252.795101 94.061675 L 250.041013 96.962537 L 247.286925 99.863398 L 244.500164 102.732690 L 241.695523 105.584705 L 238.890882 108.436720 L 236.086242 111.288736 L 233.281601 114.140751 L 230.499280 117.014234 L 227.809630 119.971396 L 229.373240 120.762710 L 230.920909 120.135955" fill="none" id="16" stroke="black" stroke-width="0.62115" /><path d="M 335.586009 25.351795 L 336.717100 26.116016 L 338.656431 29.614444 L 340.595763 33.112871 L 342.457017 36.653216 L 344.301437 40.202598 L 346.145857 43.751980 L 347.990278 47.301362 L 349.834698 50.850744 L 351.679119 54.400126 L 353.523539 57.949509 L 355.367959 61.498891 L 357.212380 65.048273 L 359.056800 68.597655 L 360.901220 72.147037 L 362.745641 75.696419 L 364.590061 79.245801 L 366.411217 82.807069 L 368.206182 86.381715 L 370.001148 89.956362 L 371.796114 93.531008 L 373.591080 97.105655 L 375.386045 100.680301 L 377.181011 104.254948 L 378.975977 107.829594 L 380.770943 111.404241 L 382.565909 114.978887 L 384.360874 118.553534 L 386.155840 122.128181 L 387.950806 125.702827 L 389.745772 129.277474 L 391.574590 132.834224 L 393.517779 136.330510 L 395.460968 139.826796 L 397.404157 143.323082 L 399.384371 146.798199 L 401.411690 150.246383 L 403.439009 153.694568 L 405.555188 157.087112 L 407.771886 160.416714 L 409.988583 163.746317 L 412.205280 167.075919 L 414.453761 170.383435 L 416.801440 173.622015 L 419.149119 176.860596 L 420.086490 177.843504 L 417.364574 174.912433 L 414.738401 171.896418 L 414.017909 171.046225" fill="none" id="17" stroke="black" stroke-width="0.62115" /><path d="M 42.336349 191.637975 L 42.152485 195.629648 L 41.794405 199.613533 L 41.558693 203.606582 L 41.322981 207.599631 L 41.087269 211.592680 L 40.851557 215.585729 L 40.615844 219.578778 L 40.380132 223.571827 L 40.144420 227.564876 L 39.908708 231.557925 L 39.672996 235.550974 L 39.437284 239.544023 L 39.201571 243.537072 L 38.965859 247.530121 L 38.730147 251.523170 L 38.494435 255.516218 L 38.258723 259.509267 L 38.023010 263.502316 L 37.787298 267.495365 L 37.551586 271.488414 L 37.315874 275.481463 L 37.080162 279.474512 L 36.844450 283.467561 L 36.608737 287.460610 L 36.373025 291.453659 L 36.137313 295.446708 L 35.901601 299.439757 L 35.665889 303.432806 L 35.430177 307.425855 L 35.194464 311.418903 L 34.958752 315.411952 L 34.723040 319.405001 L 34.487328 323.398050 L 34.251616 327.391099 L 34.015903 331.384148 L 33.780191 335.377197 L 33.544479 339.370246 L 33.308767 343.363295 L 33.073055 347.356344 L 32.837343 351.349393 L 32.574264 355.340600 L 32.272754 359.329220 L 31.971245 363.317840 L 31.669735 367.306461 L 31.350497 371.293647 L 31.006849 375.278858 L 30.663201 379.264068 L 30.269572 383.243930 L 29.762010 387.211597 L 29.254448 391.179264 L 28.467727 395.100385 L 27.660528 399.018092 L 26.853329 402.935800 L 25.861834 406.810711 L 25.605999 407.799655" fill="none" id="18" stroke="black" stroke-width="0.62115" /><path d="M 35.376529 188.637165 L 35.826655 192.608778 L 36.419888 196.564543 L 36.838171 200.541156 L 37.191166 204.525550 L 37.402619 208.519450 L 37.585573 212.515264 L 37.768526 216.511078 L 37.785699 220.510685 L 37.785699 224.510685 L 37.785699 228.510685 L 37.785699 232.510685 L 37.785699 236.510685 L 37.785699 240.510685 L 37.785699 244.510685 L 37.785699 248.510685 L 37.785699 252.510685 L 37.785699 256.510685 L 37.785699 260.510685 L 37.785699 264.510685 L 37.785699 268.510685 L 37.785699 272.510685 L 37.785699 276.510685 L 37.785699 280.510685 L 37.785699 284.510685 L 37.753099 288.510430 L 37.690664 292.509943 L 37.628228 296.509456 L 37.565793 300.508968 L 37.503357 304.508481 L 37.440922 308.507994 L 37.378486 312.507507 L 37.316050 316.507019 L 37.253615 320.506532 L 37.191179 324.506045 L 37.128744 328.505557 L 37.066308 332.505070 L 37.003873 336.504583 L 36.941437 340.504095 L 36.879001 344.503608 L 36.848799 348.503372 L 36.848799 352.503372 L 36.848799 356.503372 L 36.848799 360.503372 L 36.848799 364.503372 L 36.848799 368.503372 L 36.848799 372.503372 L 36.848799 376.503372 L 36.848799 380.503372 L 36.848799 384.503372 L 36.848799 388.503372 L 36.869475 392.502877 L 37.060881 396.498295 L 37.252287 400.493713 L 37.443693 404.489131 L 37.635099 408.484549 L 37.990726 412.468382 L 38.362113 416.451104 L 38.733500 420.433825 L 39.104888 424.416547 L 39.476275 428.399269 L 39.847663 432.381990 L 40.219050 436.364712 L 40.590437 440.347433 L 40.961825 444.330155 L 41.333212 448.312877 L 41.704600 452.295598 L 41.993338 456.284862 L 42.253110 460.276417 L 42.512882 464.267973 L 42.772654 468.259529 L 42.898851 472.256160 L 42.942694 476.255920 L 42.986536 480.255679 L 43.005569 479.728535 L 42.374121 475.786185 L 41.533299 473.093105" fill="none" id="19" stroke="black" stroke-width="0.62115" /><path d="M 36.848799 201.157785 L 36.848799 205.157785 L 36.818950 209.157267 L 36.680138 213.154858 L 36.541327 217.152448 L 36.402515 221.150039 L 36.313429 225.148493 L 36.313429 229.148493 L 36.313429 233.148493 L 36.313429 237.148493 L 36.268416 241.148171 L 36.211315 245.147764 L 36.154214 249.147356 L 36.097112 253.146949 L 36.040011 257.146541 L 35.982910 261.146133 L 35.925808 265.145726 L 35.868707 269.145318 L 35.811606 273.144911 L 35.754505 277.144503 L 35.697403 281.144096 L 35.637976 285.143645 L 35.546888 289.142608 L 35.455799 293.141570 L 35.364711 297.140533 L 35.273622 301.139496 L 35.182534 305.138458 L 35.091445 309.137421 L 35.000357 313.136384 L 34.909269 317.135347 L 34.818180 321.134309 L 34.727092 325.133272 L 34.636003 329.132235 L 34.544915 333.131198 L 34.453826 337.130160 L 34.362738 341.129123 L 34.271650 345.128086 L 34.180561 349.127049 L 34.089473 353.126011 L 33.998384 357.124974 L 33.907296 361.123937 L 33.816207 365.122899 L 33.744942 369.122215 L 33.693721 373.121887 L 33.642500 377.121559 L 33.591278 381.121231 L 33.540057 385.120903 L 33.502729 389.120664 L 33.502729 393.120664 L 33.502729 397.120664 L 33.502729 401.120664 L 33.502729 405.120664 L 33.502729 409.120664 L 33.502729 413.120664 L 33.502729 417.120664 L 33.502729 421.120664 L 33.502729 425.120664 L 33.502729 429.120664 L 33.502729 433.120664 L 33.502729 437.120664 L 33.502729 441.120664 L 33.502729 445.120664 L 33.502729 449.120664 L 33.502729 453.120664 L 33.502729 457.120664 L 33.502729 461.120664 L 33.502729 465.120664 L 33.502729 469.120664 L 33.502729 473.120664 L 33.101199 472.575725" fill="none" id="20" stroke="black" stroke-width="0.62115" /><path d="M 212.049069 241.927385 L 212.049069 245.927385 L 212.049069 249.927385 L 212.049069 253.927385 L 212.049069 257.927385 L 212.049069 261.927385 L 212.037317 265.927343 L 212.008812 269.927242 L 211.980308 273.927140 L 211.951803 277.927038 L 211.923298 281.926937 L 211.894793 285.926835 L 211.866288 289.926734 L 211.837784 293.926632 L 211.809279 297.926531 L 211.780044 301.926421 L 211.717715 305.925935 L 211.655387 309.925449 L 211.593059 313.924964 L 211.530730 317.924478 L 211.468402 321.923993 L 211.406074 325.923507 L 211.318949 329.922502 L 211.213825 333.921121 L 211.108702 337.919739 L 211.003578 341.918357 L 210.898455 345.916976 L 210.793331 349.915594 L 210.688207 353.914213 L 210.583084 357.912831 L 210.477960 361.911449 L 210.372837 365.910068 L 210.267713 369.908686 L 210.162589 373.907304 L 210.057466 377.905923 L 209.952342 381.904541 L 209.847219 385.903160 L 209.742095 389.901778 L 209.636971 393.900396 L 209.531848 397.899015 L 209.426724 401.897633 L 209.321601 405.896252 L 209.216477 409.894870 L 209.111353 413.893488 L 209.006230 417.892107 L 208.901106 421.890725 L 208.795983 425.889344 L 208.696989 429.888082 L 208.644943 433.887744 L 208.592896 437.887405 L 208.540850 441.887067 L 208.488804 445.886728 L 208.436758 449.886389 L 208.384712 453.886051 L 208.332665 457.885712 L 208.280619 461.885373 L 208.228573 465.885035 L 208.176527 469.884696 L 208.124481 473.884358 L 208.072434 477.884019 L 208.033789 481.883768 L 208.033789 485.883768 L 208.033789 489.883768 L 208.033789 493.883768 L 208.033789 497.883768 L 206.698666 498.327552 L 206.561519 497.823905" fill="none" id="21" stroke="black" stroke-width="0.62115" /><path d="M 205.356929 246.997715 L 205.370837 250.997691 L 205.384745 254.997667 L 205.398653 258.997642 L 205.412561 262.997618 L 205.426469 266.997594 L 205.440377 270.997570 L 205.454284 274.997546 L 205.468192 278.997522 L 205.482100 282.997497 L 205.533583 286.996874 L 205.647249 290.995259 L 205.760915 294.993643 L 205.874581 298.992028 L 205.988247 302.990413 L 206.101913 306.988797 L 206.215579 310.987182 L 206.329246 314.985567 L 206.442912 318.983951 L 206.556578 322.982336 L 206.617223 326.981860 L 206.675459 330.981436 L 206.733695 334.981012 L 206.791930 338.980588 L 206.850166 342.980164 L 206.908402 346.979741 L 206.966637 350.979317 L 207.024873 354.978893 L 207.083109 358.978469 L 207.141344 362.978045 L 207.199580 366.977621 L 207.257816 370.977197 L 207.316051 374.976773 L 207.370234 378.976396 L 207.404183 382.976252 L 207.438131 386.976108 L 207.472079 390.975963 L 207.506027 394.975819 L 207.539976 398.975675 L 207.573924 402.975531 L 207.607872 406.975387 L 207.641821 410.975243 L 207.675769 414.975099 L 207.709717 418.974955 L 207.743666 422.974811 L 207.777614 426.974667 L 207.811562 430.974523 L 207.845510 434.974379 L 207.879459 438.974235 L 207.913407 442.974091 L 207.947355 446.973947 L 207.981304 450.973802 L 208.015252 454.973658 L 208.071663 458.973185 L 208.155093 462.972315 L 208.238524 466.971444 L 208.321955 470.970574 L 208.405386 474.969704 L 208.488816 478.968834 L 208.572247 482.967964 L 208.655678 486.967093 L 208.789018 490.964462 L 208.987767 494.959521 L 209.186515 498.954580 L 209.257115 502.953232 L 209.282478 506.953151 L 209.307841 510.953071 L 209.333204 514.952991 L 209.358567 518.952910 L 208.976208 520.791749 L 207.766099 517.087070 L 206.266124 514.587045 L 204.420029 514.276615" fill="none" id="22" stroke="black" stroke-width="0.62115" /><path d="M 416.962459 177.461745 L 416.388581 181.348837 L 416.162200 185.342426 L 415.935819 189.336015 L 415.709438 193.329604 L 415.483057 197.323193 L 415.256676 201.316781 L 415.030295 205.310370 L 414.769404 209.301778 L 414.491250 213.292095 L 414.213095 217.282412 L 413.934940 221.272729 L 413.671716 225.264004 L 413.438004 229.257170 L 413.204293 233.250337 L 412.970581 237.243503 L 412.736869 241.236670 L 412.503157 245.229836 L 412.284059 249.223814 L 412.074339 253.218312 L 411.864619 257.212811 L 411.654899 261.207309 L 411.445178 265.201807 L 411.235458 269.196306 L 411.025738 273.190804 L 410.835635 277.186251 L 410.659224 281.182359 L 410.482814 285.178467 L 410.306403 289.174575 L 410.129992 293.170683 L 409.953581 297.166791 L 409.777171 301.162899 L 409.600963 305.159013 L 409.530100 309.158385 L 409.459236 313.157758 L 409.388372 317.157130 L 409.317509 321.156502 L 409.246645 325.155874 L 409.175782 329.155246 L 409.104918 333.154619 L 409.065729 337.154272 L 409.065729 341.154272 L 409.065729 345.154272 L 409.065729 349.154272 L 409.065729 353.154272 L 409.065729 357.154272 L 409.065729 361.154272 L 409.065729 365.154272 L 409.065729 369.154272 L 409.065729 373.154272 L 409.065729 377.154272 L 409.065729 381.154272 L 409.065729 385.154272 L 409.065729 389.154272 L 409.065729 393.154272 L 409.065729 397.154272 L 409.065729 401.154272 L 409.076900 405.154219 L 409.114663 409.154041 L 409.152426 413.153862 L 409.190189 417.153684 L 409.359697 421.149372 L 409.572749 425.143694 L 409.760663 429.139025 L 409.868414 433.137574 L 409.976166 437.136122 L 410.002629 438.118165" fill="none" id="23" stroke="black" stroke-width="0.62115" /><path d="M 412.545639 176.323505 L 412.679489 180.189655 L 412.679489 184.189655 L 412.679489 188.189655 L 412.679489 192.189655 L 412.679489 196.189655 L 412.679489 200.189655 L 412.679489 204.189655 L 412.679489 208.189655 L 412.679489 212.189655 L 412.679489 216.189655 L 412.679489 220.189655 L 412.679489 224.189655 L 412.679489 228.189655 L 412.679489 232.189655 L 412.679489 236.189655 L 412.679489 240.189655 L 412.679489 244.189655 L 412.660350 248.189559 L 412.620399 252.189360 L 412.580448 256.189160 L 412.540496 260.188961 L 412.500545 264.188761 L 412.460594 268.188562 L 412.420643 272.188362 L 412.411799 276.188318 L 412.411799 280.188318 L 412.411799 284.188318 L 412.411799 288.188318 L 412.411799 292.188318 L 412.411799 296.188318 L 412.411799 300.188318 L 412.411799 304.188318 L 412.411799 308.188318 L 412.411799 312.188318 L 412.411799 316.188318 L 412.411799 320.188318 L 412.411799 324.188318 L 412.411799 328.188318 L 412.412963 332.188315 L 412.432635 336.188267 L 412.452307 340.188219 L 412.471979 344.188170 L 412.491651 348.188122 L 412.511323 352.188073 L 412.530994 356.188025 L 412.610722 360.185915 L 412.865417 364.177798 L 413.120112 368.169681 L 413.374806 372.161564 L 413.629501 376.153447 L 413.884196 380.145330 L 414.204003 384.131934 L 414.595774 388.112702 L 414.987545 392.093470 L 415.379315 396.074238 L 415.771086 400.055007 L 416.194912 404.032432 L 416.632998 408.008369 L 417.071083 411.984307 L 417.509169 415.960245 L 417.947255 419.936183 L 418.385340 423.912120 L 418.823426 427.888058 L 419.152732 431.873727 L 419.427287 435.864293 L 419.669900 439.856494 L 419.804212 443.854239 L 419.906999 447.852512 L 419.906999 451.852512 L 419.906999 455.852512 L 419.819950 459.847294 L 419.315594 463.813983 L 418.408555 467.709786 L 417.765509 467.242986 L 417.765509 465.746305" fill="none" id="24" stroke="black" stroke-width="0.62115" /><path d="M 253.808039 129.138385 L 253.739061 129.619123 L 253.662811 133.618090 L 253.638746 137.618018 L 253.614681 141.617946 L 253.590615 145.617873 L 253.566550 149.617801 L 253.542485 153.617728 L 253.447691 157.616544 L 253.346010 161.615251 L 253.244328 165.613959 L 253.142647 169.612666 L 253.040966 173.611374 L 252.939285 177.610081 L 252.837604 181.608789 L 252.735922 185.607496 L 252.634241 189.606203 L 252.532560 193.604911 L 252.430879 197.603618 L 252.329198 201.602326 L 252.227516 205.601033 L 252.125835 209.599740 L 252.024154 213.598448 L 251.922473 217.597155 L 251.820792 221.595863 L 251.719110 225.594570 L 251.617429 229.593277 L 251.512251 233.591887 L 251.389608 237.590006 L 251.266965 241.588126 L 251.144322 245.586245 L 251.021679 249.584364 L 250.899036 253.582484 L 250.776393 257.580603 L 250.629879 261.577875 L 250.468663 265.574625 L 250.307447 269.571375 L 250.146231 273.568125 L 249.985016 277.564874 L 249.823800 281.561624 L 249.662584 285.558374 L 249.501368 289.555124 L 249.340153 293.551874 L 249.178937 297.548624 L 249.017721 301.545374 L 248.856505 305.542123 L 248.700795 309.539072 L 248.572795 313.537024 L 248.444796 317.534975 L 248.316796 321.532927 L 248.188797 325.530878 L 248.060797 329.528830 L 248.052799 333.528702 L 248.052799 337.528702 L 248.052799 341.528702 L 248.052799 345.528702 L 248.052799 349.528702 L 248.052799 353.528702 L 248.052799 357.528702 L 248.203119 361.520788 L 248.623139 365.498675 L 249.043160 369.476561 L 250.017077 373.346460 L 251.122080 377.190803 L 252.540692 380.928615 L 253.138819 382.448005" fill="none" id="25" stroke="black" stroke-width="0.62115" /><path d="M 237.345369 131.414855 L 237.495811 134.917174 L 238.551475 138.774045 L 239.040529 142.744036 L 239.460482 146.720857 L 239.758148 150.709766 L 240.055813 154.698675 L 240.264562 158.692720 L 240.428154 162.689374 L 240.591745 166.686027 L 240.755337 170.682680 L 240.868197 174.680847 L 240.943168 178.680145 L 241.018138 182.679442 L 241.093109 186.678739 L 241.168080 190.678037 L 241.233481 194.677461 L 241.264277 198.677342 L 241.295073 202.677223 L 241.325869 206.677105 L 241.356665 210.676986 L 241.387461 214.676868 L 241.418257 218.676749 L 241.449053 222.676631 L 241.479849 226.676512 L 241.510645 230.676394 L 241.541441 234.676275 L 241.572237 238.676156 L 241.603033 242.676038 L 241.646416 246.675711 L 241.747831 250.674425 L 241.849246 254.673140 L 241.950661 258.671854 L 242.052076 262.670568 L 242.153491 266.669282 L 242.254906 270.667996 L 242.375723 274.666137 L 242.510617 278.663862 L 242.645511 282.661587 L 242.780405 286.659312 L 242.915300 290.657036 L 243.050194 294.654761 L 243.247636 298.649592 L 243.482407 302.642697 L 243.717178 306.635801 L 243.951949 310.628906 L 244.186720 314.622010 L 244.493024 318.609607 L 244.872205 322.591595 L 245.251387 326.573582 L 245.630568 330.555569 L 246.038992 334.534353 L 246.530812 338.504002 L 247.022632 342.473651 L 247.514453 346.443300 L 248.006273 350.412949 L 248.498093 354.382598 L 248.989914 358.352246 L 249.438039 362.326775 L 249.834075 366.307121 L 250.230110 370.287468 L 250.562011 374.272941 L 250.803339 378.265654 L 251.044666 382.258368 L 251.152319 386.255669 L 251.185272 390.255533 L 251.218224 394.255397 L 251.251177 398.255261 L 251.265019 399.935465" fill="none" id="26" stroke="black" stroke-width="0.62115" /><path d="M 247.785109 160.181225 L 247.785109 164.181225 L 247.785109 168.181225 L 247.785109 172.181225 L 247.785109 176.181225 L 247.785109 180.181225 L 247.785109 184.181225 L 247.785109 188.181225 L 247.785109 192.181225 L 247.785109 196.181225 L 247.785109 200.181225 L 247.785109 204.181225 L 247.785109 208.181225 L 247.695676 212.179821 L 247.570103 216.177849 L 247.444531 220.175878 L 247.318958 224.173906 L 247.193385 228.171935 L 247.067813 232.169963 L 246.942240 236.167992 L 246.816668 240.166020 L 246.691095 244.164048 L 246.565522 248.162077 L 246.439950 252.160105 L 246.314377 256.158134 L 246.162639 260.155254 L 246.010576 264.152362 L 245.858514 268.149471 L 245.706451 272.146579 L 245.554388 276.143688 L 245.402326 280.140797 L 245.250263 284.137905 L 245.098200 288.135014 L 244.946137 292.132122 L 244.794075 296.129231 L 244.642012 300.126339 L 244.514722 304.124250 L 244.408082 308.122828 L 244.301443 312.121406 L 244.194804 316.119984 L 244.088164 320.118563 L 244.031618 324.117879 L 244.020395 328.117863 L 244.009172 332.117847 L 243.997949 336.117832 L 243.986726 340.117816 L 243.975503 344.117800 L 243.964280 348.117784 L 243.953058 352.117769 L 243.941835 356.117753 L 243.930612 360.117737 L 243.919389 364.117721 L 243.908166 368.117706 L 243.976882 372.116581 L 244.099043 376.114715 L 244.221204 380.112850 L 244.378545 384.109412 L 244.613313 388.102517 L 244.848082 392.095621 L 245.002856 396.091692 L 245.064441 400.091218 L 245.108249 404.090881 L 245.108249 408.090881 L 244.037509 410.179605" fill="none" id="27" stroke="black" stroke-width="0.62115" /><path d="M 233.597769 510.344525 L 237.186567 508.578023 L 240.775366 506.811521 L 244.364164 505.045020 L 247.952962 503.278518 L 251.541760 501.512016 L 255.130558 499.745514 L 258.719356 497.979012 L 262.308154 496.212510 L 265.896952 494.446009 L 269.485750 492.679507 L 273.061268 490.887106 L 276.590207 489.003867 L 280.119146 487.120628 L 283.648085 485.237389 L 287.177024 483.354150 L 290.670748 481.406452 L 294.162067 479.454354 L 297.653386 477.502255 L 301.144706 475.550157 L 304.607572 473.548472 L 308.054603 471.519193 L 311.501634 469.489913 L 314.948666 467.460634 L 318.371447 465.391470 L 321.759354 463.264951 L 325.147262 461.138432 L 328.535169 459.011914 L 331.923077 456.885395 L 335.310984 454.758876 L 338.698892 452.632357 L 342.086799 450.505838 L 345.485293 448.396405 L 348.897822 446.309627 L 352.310351 444.222849 L 355.722881 442.136071 L 359.135410 440.049292 L 362.547939 437.962514 L 365.960469 435.875736 L 369.425208 433.879722 L 372.944763 431.979003 L 376.464318 430.078285 L 379.983874 428.177567 L 383.503429 426.276848 L 387.037326 424.403481 L 390.602272 422.589325 L 394.167218 420.775170 L 397.675105 418.859558 L 400.771617 416.415199 L 398.135455 415.146465 L 394.866128 417.432420 L 391.807834 420.008323 L 388.793399 422.637616 L 385.778965 425.266910 L 383.501749 427.253175" fill="none" id="28" stroke="black" stroke-width="0.62115" /><path d="M 252.737299 496.478715 L 249.071968 498.080386 L 245.430137 499.732787 L 241.838182 501.492860 L 238.246226 503.252932 L 234.689961 505.083230 L 231.150906 506.947389 L 227.611851 508.811548 L 224.100013 510.723858 L 220.712524 512.849076 L 217.466568 515.160207 L 220.797825 514.398820 L 224.495281 512.885084 L 228.159757 511.281458 L 231.775046 509.570450 L 235.382818 507.843029 L 238.990590 506.115609 L 242.598362 504.388189 L 246.206134 502.660768 L 249.813907 500.933348 L 253.416823 499.195892 L 257.010232 497.438790 L 260.603641 495.681687 L 264.197050 493.924584 L 267.790460 492.167482 L 271.364069 490.370462 L 274.937278 488.572637 L 278.510487 486.774812 L 282.083697 484.976987 L 285.649365 483.164465 L 289.193634 481.310239 L 292.737904 479.456014 L 296.282174 477.601788 L 299.826444 475.747563 L 303.358492 473.870725 L 306.851432 471.921528 L 310.344372 469.972330 L 313.837312 468.023133 L 317.330252 466.073936 L 320.820802 464.120498 L 324.296882 462.141391 L 327.772963 460.162284 L 331.249043 458.183177 L 334.725124 456.204070 L 338.196820 454.217374 L 341.647814 452.194841 L 345.098809 450.172309 L 348.549804 448.149777 L 352.000798 446.127245 L 355.465155 444.127999 L 358.952699 442.169164 L 362.440243 440.210329 L 365.927788 438.251494 L 369.415332 436.292659 L 372.943625 434.408483 L 376.477716 432.534931 L 380.011807 430.661378 L 383.545899 428.787826 L 387.113776 426.979611 L 390.685455 425.178746 L 394.257133 423.377882 L 397.857114 421.635766 L 401.491502 419.965071 L 405.125890 418.294375 L 408.741165 416.582935 L 412.349231 414.856129 L 415.957297 413.129323 L 419.368820 411.072106 L 420.576209 409.351795" fill="none" id="29" stroke="black" stroke-width="0.62115" /><path d="M 33.235039 427.977505 L 33.625357 428.722326 L 36.789106 431.166725 L 40.055487 433.475568 L 43.427363 435.626653 L 46.808868 437.763338 L 50.190373 439.900023 L 53.571878 442.036708 L 57.006055 444.087043 L 60.453404 446.115782 L 63.908561 448.130950 L 67.395211 450.091378 L 70.881860 452.051805 L 74.368509 454.012233 L 77.855158 455.972661 L 81.341807 457.933089 L 84.835497 459.880808 L 88.346674 461.796959 L 91.857851 463.713111 L 95.370592 465.626335 L 98.915111 467.480085 L 102.459629 469.333834 L 106.004148 471.187584 L 109.548666 473.041334 L 113.093185 474.895083 L 116.637704 476.748833 L 120.209801 478.548255 L 123.798260 480.315445 L 127.386719 482.082635 L 130.975178 483.849825 L 134.563638 485.617015 L 138.157154 487.373725 L 141.773384 489.083368 L 145.389614 490.793012 L 149.005844 492.502655 L 152.622074 494.212298 L 156.239902 495.918448 L 159.899709 497.532557 L 163.633016 498.962145 L 160.787269 497.616955" fill="none" id="30" stroke="black" stroke-width="0.62115" /><path d="M 32.833509 433.047835 L 36.341021 434.970687 L 39.848533 436.893540 L 43.394288 438.744728 L 46.944233 440.588065 L 50.467622 442.480305 L 53.946784 444.453989 L 57.425947 446.427673 L 60.905109 448.401358 L 64.384271 450.375042 L 67.863434 452.348726 L 71.329271 454.345501 L 74.778875 456.370404 L 78.228479 458.395307 L 81.678083 460.420210 L 85.127687 462.445113 L 88.577291 464.470016 L 92.030365 466.488936 L 95.500961 468.477644 L 98.971557 470.466352 L 102.442154 472.455061 L 105.962463 474.354031 L 109.489086 476.241603 L 113.015709 478.129175 L 116.565340 479.972227 L 120.145019 481.757136 L 123.724698 483.542045 L 127.304376 485.326954 L 130.884055 487.111863 L 134.463734 488.896772 L 138.043413 490.681681 L 141.623092 492.466590 L 145.202770 494.251499 L 148.782449 496.036408 L 152.362128 497.821316 L 155.941807 499.606225 L 159.498415 501.436639 L 163.053937 503.269195 L 166.609459 505.101751 L 170.149848 506.963037 L 173.672049 508.858848 L 177.194250 510.754660 L 180.738824 512.607536 L 184.310503 514.408400 L 187.882182 516.209263 L 191.453861 518.010127 L 195.041816 519.775785 L 198.727503 521.330039 L 202.413191 522.884293 L 206.271749 523.796425 L 203.961555 521.435188 L 203.750819 521.002565" fill="none" id="31" stroke="black" stroke-width="0.62115" /><path d="M 31.896609 440.394645 L 35.525189 440.203098 L 39.212049 441.754568 L 42.898910 443.306039 L 46.565242 444.902512 L 50.153750 446.669605 L 53.742257 448.436697 L 57.330764 450.203789 L 60.919272 451.970881 L 64.507779 453.737974 L 68.076855 455.543067 L 71.610312 457.417814 L 75.143769 459.292562 L 78.677227 461.167310 L 82.189663 463.080626 L 85.680164 465.034188 L 89.170665 466.987750 L 92.661165 468.941312 L 96.151666 470.894874 L 99.642167 472.848436 L 103.132668 474.801998 L 106.623168 476.755560 L 110.113669 478.709122 L 113.604170 480.662683 L 117.094671 482.616245 L 120.585172 484.569807 L 124.075672 486.523369 L 127.550160 488.505268 L 131.024468 490.487484 L 134.498777 492.469701 L 137.973085 494.451917 L 141.447394 496.434133 L 144.921702 498.416349 L 148.396010 500.398566 L 151.853211 502.410392 L 155.305726 504.430327 L 158.758241 506.450262 L 162.172147 508.534665 L 165.582524 510.624959 L 168.992901 512.715253 L 172.403278 514.805546 L 175.862138 516.812789 L 179.359092 518.754775 L 182.856046 520.696762 L 186.573741 522.154796 L 188.333986 520.873576 L 186.217409 518.105235" fill="none" id="32" stroke="black" stroke-width="0.62115" /><path d="M 26.944429 442.257215 L 23.056295 443.196582 L 21.908415 443.794164 L 25.732508 442.622222 L 29.463456 441.179992 L 33.175899 439.692544 L 36.847530 438.105370 L 40.519161 436.518195 L 44.190793 434.931021 L 47.862424 433.343847 L 51.534056 431.756672 L 55.205687 430.169498 L 58.877319 428.582324 L 62.548950 426.995149 L 66.220582 425.407975 L 69.893915 423.824778 L 73.577569 422.265712 L 77.261224 420.706645 L 80.944879 419.147579 L 84.628533 417.588512 L 88.319418 416.047251 L 92.047231 414.596937 L 95.775043 413.146623 L 99.502856 411.696308 L 103.230669 410.245994 L 106.958482 408.795680 L 110.703555 407.391107 L 114.460201 406.017203 L 118.216847 404.643300 L 121.973493 403.269396 L 125.730139 401.895492 L 129.486785 400.521588 L 133.261646 399.199163 L 137.046371 397.904614 L 140.831096 396.610065 L 144.615821 395.315517 L 148.400546 394.020968 L 152.185271 392.726419 L 155.982640 391.469589 L 159.782906 390.221398 L 163.583172 388.973207 L 167.383437 387.725016 L 171.183703 386.476825 L 174.988843 385.243711 L 178.800576 384.030990 L 182.612309 382.818268 L 186.424041 381.605547 L 190.235774 380.392825 L 194.047507 379.180104 L 197.859240 377.967382 L 201.670972 376.754661 L 205.482705 375.541939 L 209.283662 374.295914 L 213.083322 373.045880 L 216.882981 371.795845 L 220.682641 370.545811 L 224.482301 369.295776 L 228.232687 367.905513 L 229.984009 366.305725" fill="none" id="33" stroke="black" stroke-width="0.62115" /><path d="M 250.997339 353.060775 L 247.159079 354.107267 L 243.479529 355.675771 L 239.836227 357.326937 L 236.192925 358.978103 L 232.549623 360.629270 L 228.906321 362.280436 L 225.263019 363.931602 L 221.619717 365.582769 L 217.995215 367.274536 L 214.379259 368.984759 L 210.763303 370.694982 L 207.129365 372.366189 L 203.480188 374.004329 L 199.831010 375.642469 L 196.181833 377.280610 L 192.532655 378.918750 L 188.883478 380.556890 L 185.234300 382.195030 L 181.585122 383.833170 L 177.919204 385.433107 L 174.241275 387.005632 L 170.563346 388.578157 L 166.885416 390.150682 L 163.207487 391.723207 L 159.517156 393.266310 L 155.823299 394.801049 L 152.129443 396.335788 L 148.435586 397.870527 L 144.741730 399.405266 L 141.036694 400.912462 L 137.318118 402.386300 L 133.599543 403.860138 L 129.880968 405.333975 L 126.162393 406.807813 L 122.443817 408.281651 L 118.718126 409.737368 L 114.990254 411.187529 L 111.262382 412.637690 L 107.534509 414.087852 L 103.806637 415.538013 L 100.078765 416.988174 L 96.350892 418.438336 L 92.623020 419.888497 L 88.895148 421.338658 L 85.167275 422.788820 L 81.439403 424.238981 L 77.708837 425.682173 L 73.974551 427.115737 L 70.240265 428.549301 L 66.505979 429.982865 L 62.771692 431.416429 L 59.034059 432.841134 L 55.284756 434.234953 L 51.535454 435.628772 L 47.786151 437.022590 L 44.036849 438.416409 L 40.287546 439.810228 L 36.538244 441.204047 L 32.788942 442.597866 L 29.039639 443.991685 L 25.271920 445.334707 L 21.500531 446.667609 L 17.729142 448.000511 L 13.957753 449.333412 L 10.186365 450.666314 L 6.458961 452.116835 L 2.702724 453.432645 L 0.310575 453.432645 L 3.982421 451.929497 L 7.724073 450.515271 L 11.465726 449.101045 L 15.207379 447.686819 L 18.949031 446.272592 L 22.659597 444.779327 L 26.362135 443.265652 L 30.064673 441.751977 L 33.767211 440.238302 L 37.469749 438.724627 L 41.172287 437.210952 L 44.874825 435.697277 L 48.588817 434.211967 L 52.304221 432.730152 L 56.019625 431.248337 L 59.735028 429.766522 L 63.450432 428.284707 L 67.165835 426.802892 L 70.881239 425.321077 L 74.596643 423.839262 L 78.312046 422.357447 L 82.049963 420.933690 L 85.793081 419.523346 L 89.536198 418.113002 L 93.279316 416.702658 L 97.022433 415.292314 L 100.765551 413.881970 L 104.508669 412.471625 L 108.251786 411.061281 L 111.994904 409.650937 L 115.738022 408.240593 L 119.481139 406.830249 L 123.224257 405.419905 L 126.967374 404.009561 L 130.710492 402.599217 L 134.453610 401.188873 L 138.189166 399.759059 L 141.902976 398.273257 L 145.616787 396.787454 L 149.330598 395.301652 L 153.044409 393.815850 L 156.754559 392.321192 L 160.433302 390.750571 L 164.112045 389.179951 L 167.790788 387.609330 L 171.469532 386.038710 L 174.305389 384.827955" fill="none" id="34" stroke="black" stroke-width="0.62115" /><path d="M 266.255419 345.300065 L 267.370685 345.409011 L 270.946849 347.200698 L 274.502371 349.033254 L 278.057893 350.865810 L 281.613416 352.698366 L 285.168938 354.530922 L 288.724460 356.363478 L 292.279982 358.196034 L 295.835505 360.028590 L 299.391027 361.861146 L 302.946549 363.693702 L 306.520099 365.490752 L 310.097689 367.279844 L 313.675279 369.068935 L 317.252869 370.858027 L 320.830459 372.647119 L 324.408049 374.436210 L 327.985639 376.225302 L 331.563229 378.014394 L 335.140819 379.803485 L 338.718410 381.592577 L 342.328475 383.314673 L 345.949180 385.014818 L 349.569885 386.714963 L 353.190591 388.415108 L 356.811296 390.115253 L 360.432001 391.815398 L 364.079592 393.456589 L 367.737240 395.075728 L 371.394889 396.694866 L 375.052537 398.314004 L 378.697613 399.960106 L 382.289193 401.720946 L 385.837746 403.565732 L 389.221340 405.670854 L 389.658519 406.144035" fill="none" id="35" stroke="black" stroke-width="0.62115" /><path d="M 251.800399 341.574925 L 255.502216 343.032971 L 259.082455 344.816756 L 262.717077 346.486429 L 266.357535 348.143856 L 269.997994 349.801282 L 273.656752 351.417481 L 277.328008 353.005523 L 280.999265 354.593565 L 284.670521 356.181607 L 288.341777 357.769649 L 292.013033 359.357691 L 295.684289 360.945733 L 299.355546 362.533775 L 303.026802 364.121817 L 306.698058 365.709859 L 310.369314 367.297901 L 314.040571 368.885943 L 317.711827 370.473985 L 321.383083 372.062028 L 325.054339 373.650070 L 328.725596 375.238112 L 332.396852 376.826154 L 336.068108 378.414196 L 339.739364 380.002238 L 343.410621 381.590280 L 347.081242 383.179777 L 350.743295 384.788928 L 354.405348 386.398080 L 358.067401 388.007231 L 361.729454 389.616382 L 365.391507 391.225534 L 369.053560 392.834685 L 372.715613 394.443836 L 376.377666 396.052988 L 380.039719 397.662139 L 383.701772 399.271290 L 387.363825 400.880442 L 391.025878 402.489593 L 394.687931 404.098744 L 398.382712 405.628119 L 402.119776 407.054427 L 405.856840 408.480735 L 408.566318 408.686372 L 406.121189 407.696185" fill="none" id="36" stroke="black" stroke-width="0.62115" /><path d="M 246.446679 351.922535 L 250.089494 353.574777 L 253.732308 355.227019 L 257.401252 356.815821 L 261.150989 358.208471 L 264.900727 359.601120 L 268.650464 360.993769 L 272.435215 362.285334 L 276.242962 363.510513 L 280.050709 364.735693 L 283.858455 365.960873 L 287.666202 367.186053 L 291.473949 368.411232 L 295.274877 369.657228 L 299.069578 370.922236 L 302.864278 372.187245 L 306.658979 373.452253 L 310.440443 374.755993 L 314.215623 376.078119 L 317.990803 377.400245 L 321.765982 378.722371 L 325.530582 380.074008 L 329.285799 381.451810 L 333.041017 382.829612 L 336.796235 384.207414 L 340.547609 385.595556 L 344.290975 387.005242 L 348.034340 388.414928 L 351.777706 389.824614 L 355.521071 391.234300 L 359.264437 392.643986 L 363.007803 394.053672 L 366.751168 395.463358 L 370.494534 396.873044 L 374.237899 398.282730 L 377.981265 399.692416 L 381.733209 401.078382 L 385.512267 402.389382 L 389.291325 403.700382 L 393.087664 404.959152 L 396.902888 406.160846 L 400.718111 407.362540 L 404.533335 408.564234 L 408.417229 409.503465 L 412.332111 410.324255 L 413.616389 410.593515" fill="none" id="37" stroke="black" stroke-width="0.62115" /><path d="M 210.978329 249.274195 L 214.709276 247.831962 L 218.314455 246.099265 L 221.933175 244.395582 L 225.581241 242.754968 L 229.229307 241.114353 L 232.877373 239.473739 L 236.525438 237.833124 L 240.173504 236.192509 L 243.857946 234.636409 L 247.557155 233.114615 L 251.256364 231.592822 L 254.955572 230.071029 L 258.685021 228.625633 L 262.423631 227.203382 L 266.162240 225.781131 L 269.900850 224.358880 L 273.644786 222.950951 L 277.404149 221.584498 L 281.163511 220.218045 L 284.922874 218.851593 L 288.682237 217.485140 L 292.459043 216.168798 L 296.254303 214.905469 L 300.049563 213.642140 L 303.844823 212.378811 L 307.640084 211.115482 L 311.441269 209.870309 L 315.251066 208.651517 L 319.060862 207.432726 L 322.870658 206.213934 L 326.680454 204.995142 L 330.496388 203.796096 L 334.325755 202.640264 L 338.155122 201.484431 L 341.984489 200.328599 L 345.813856 199.172766 L 349.647302 198.030882 L 353.496031 196.941256 L 357.344760 195.851631 L 361.193489 194.762005 L 365.042219 193.672379 L 368.882777 192.555276 L 372.701522 191.364820 L 376.520267 190.174364 L 380.339012 188.983907 L 384.157757 187.793451 L 387.965285 186.567635 L 391.771922 185.339013 L 395.578559 184.110390 L 399.373800 182.848141 L 403.143062 181.509239 L 406.912325 180.170337 L 410.662890 178.780423 L 414.391969 177.337938 L 416.962459 176.013075" fill="none" id="38" stroke="black" stroke-width="0.62115" /><path d="M 203.483129 244.721245 L 207.106443 243.026665 L 210.729756 241.332086 L 214.353894 239.639432 L 218.081344 238.188187 L 221.808795 236.736942 L 225.536246 235.285697 L 229.263696 233.834452 L 232.991912 232.385272 L 236.764934 231.057001 L 240.537957 229.728731 L 244.310979 228.400460 L 248.084538 227.073738 L 251.869835 225.780861 L 255.655131 224.487984 L 259.440427 223.195107 L 263.225724 221.902230 L 267.011020 220.609353 L 270.796317 219.316476 L 274.581613 218.023599 L 278.366910 216.730722 L 282.152206 215.437845 L 285.937503 214.144968 L 289.722799 212.852091 L 293.508095 211.559214 L 297.293392 210.266337 L 301.078688 208.973460 L 304.863985 207.680584 L 308.649281 206.387707 L 312.434578 205.094830 L 316.219874 203.801953 L 320.005171 202.509076 L 323.790467 201.216199 L 327.575763 199.923322 L 331.361060 198.630445 L 335.132345 197.297347 L 338.901607 195.958445 L 342.670870 194.619542 L 346.440133 193.280640 L 350.209395 191.941738 L 353.993596 190.646159 L 357.787010 189.377295 L 361.580423 188.108432 L 365.373837 186.839568 L 369.167250 185.570705 L 372.960663 184.301841 L 376.754077 183.032977 L 380.547490 181.764114 L 384.340904 180.495250 L 388.154177 179.287427 L 391.967976 178.081218 L 395.781774 176.875009 L 399.611161 175.719397 L 403.442554 174.570300 L 407.273948 173.421203 L 411.105341 172.272106 L 411.341059 171.874035" fill="none" id="39" stroke="black" stroke-width="0.62115" /><path d="M 19.315389 184.084215 L 15.629702 185.638470 L 15.023732 186.377643 L 18.886992 185.443536 L 22.652282 184.093503 L 26.417572 182.743470 L 30.182863 181.393437 L 33.948153 180.043405 L 37.695100 178.643875 L 41.430836 177.214091 L 45.166571 175.784308 L 48.902335 174.354600 L 52.652048 172.961886 L 56.401761 171.569171 L 60.151474 170.176457 L 63.901186 168.783742 L 67.650899 167.391028 L 71.400612 165.998313 L 75.150325 164.605598 L 78.900038 163.212884 L 82.649750 161.820169 L 86.399463 160.427455 L 90.149176 159.034740 L 93.898889 157.642026 L 97.648602 156.249311 L 101.405726 154.877064 L 105.177816 153.546150 L 108.949907 152.215236 L 112.721997 150.884321 L 116.494088 149.553407 L 120.267319 148.225830 L 124.065144 146.970234 L 127.862970 145.714638 L 131.660795 144.459042 L 135.458621 143.203446 L 139.256446 141.947850 L 143.061812 140.715404 L 146.870604 139.493479 L 150.679397 138.271554 L 154.488189 137.049629 L 158.296982 135.827704 L 162.119488 134.650224 L 165.954559 133.513461 L 169.789630 132.376698 L 173.624702 131.239935 L 177.459773 130.103172 L 181.294844 128.966409 L 185.129915 127.829646 L 188.964986 126.692883 L 192.800057 125.556121 L 196.635128 124.419358 L 200.470199 123.282595 L 204.305270 122.145832 L 208.140341 121.009069 L 211.975412 119.872306 L 215.810483 118.735543 L 219.645555 117.598781 L 223.480626 116.462018 L 227.315697 115.325255 L 228.746637 114.134335 L 224.746637 114.134335 L 221.284229 115.114014 L 220.347329 115.789955" fill="none" id="40" stroke="black" stroke-width="0.62115" /><path d="M 223.559559 115.169095 L 219.924942 116.653248 L 216.382108 118.510215 L 212.775695 120.235827 L 209.102135 121.817183 L 205.394611 123.318602 L 201.687086 124.820022 L 197.979561 126.321442 L 194.272037 127.822862 L 190.532242 129.241351 L 186.785025 130.640767 L 183.037808 132.040183 L 179.290591 133.439599 L 175.543374 134.839015 L 171.796157 136.238430 L 168.048940 137.637846 L 164.301723 139.037262 L 160.546956 140.416010 L 156.780056 141.761545 L 153.013156 143.107080 L 149.246256 144.452616 L 145.479356 145.798151 L 141.712456 147.143686 L 137.928825 148.441128 L 134.140185 149.724176 L 130.351546 151.007223 L 126.562906 152.290271 L 122.774267 153.573318 L 118.985627 154.856365 L 115.196988 156.139413 L 111.408348 157.422460 L 107.619709 158.705508 L 103.831069 159.988555 L 100.042429 161.271602 L 96.253790 162.554650 L 92.455157 163.807413 L 88.646962 165.031198 L 84.838767 166.254983 L 81.030572 167.478768 L 77.222376 168.702553 L 73.414181 169.926337 L 69.603961 171.143794 L 65.792773 172.358228 L 61.981586 173.572662 L 58.170398 174.787096 L 54.359211 176.001530 L 50.541103 177.193782 L 46.715476 178.361932 L 42.889848 179.530082 L 39.064221 180.698232 L 35.233271 181.848478 L 31.390796 182.959958 L 27.548321 184.071438 L 23.705846 185.182918 L 19.863371 186.294397 L 16.772369 187.188505" fill="none" id="41" stroke="black" stroke-width="0.62115" /><path d="M 228.511739 560.840885 L 232.278154 559.713765 L 235.829114 557.878708 L 239.302078 555.894137 L 242.720379 553.818131 L 246.112604 551.698506 L 249.504830 549.578881 L 252.897055 547.459257 L 256.289280 545.339632 L 259.681505 543.220007 L 263.117324 541.171957 L 266.557115 539.130430 L 269.996907 537.088902 L 273.439715 535.052596 L 276.926363 533.092167 L 280.413012 531.131738 L 283.899660 529.171309 L 287.386309 527.210880 L 290.915159 525.327862 L 294.451941 523.459393 L 297.988722 521.590925 L 301.525504 519.722456 L 305.073283 517.875316 L 308.646647 516.077798 L 312.220011 514.280281 L 315.793375 512.482763 L 319.366739 510.685246 L 322.940103 508.887728 L 326.513467 507.090211 L 330.086831 505.292693 L 333.660195 503.495176 L 337.233559 501.697658 L 340.806924 499.900141 L 344.380288 498.102623 L 347.953652 496.305106 L 351.527016 494.507588 L 355.100380 492.710070 L 358.673744 490.912553 L 362.247108 489.115035 L 365.823723 487.324083 L 369.419370 485.571565 L 373.015017 483.819046 L 376.610665 482.066527 L 380.226866 480.357081 L 383.851008 478.664274 L 387.475150 476.971468 L 391.099292 475.278661 L 394.723435 473.585855 L 398.373589 471.951758 L 402.062233 470.404532 L 405.750876 468.857306 L 409.439520 467.310081 L 406.027035 467.468477 L 405.451969 467.608875" fill="none" id="42" stroke="black" stroke-width="0.62115" /><path d="M 220.615009 562.186075 L 223.326759 561.744547 L 226.879922 559.923795 L 230.342663 557.923212 L 233.759370 555.843281 L 237.176077 553.763350 L 240.592784 551.683419 L 244.009491 549.603488 L 247.441655 547.549401 L 250.890396 545.523027 L 254.339136 543.496654 L 257.787877 541.470280 L 261.274180 539.510219 L 264.785356 537.594066 L 268.296533 535.677913 L 271.807709 533.761760 L 275.323282 531.854024 L 278.901632 530.066452 L 282.479981 528.278880 L 286.058331 526.491308 L 289.636681 524.703737 L 293.226840 522.940834 L 296.863361 521.274787 L 300.499882 519.608739 L 304.136403 517.942691 L 307.772924 516.276644 L 311.415363 514.623781 L 315.077142 513.014006 L 318.738921 511.404231 L 322.400700 509.794457 L 326.062479 508.184682 L 329.724258 506.574907 L 333.386036 504.965132 L 337.047815 503.355357 L 340.709594 501.745582 L 344.371373 500.135808 L 348.033152 498.526033 L 351.694931 496.916258 L 355.356710 495.306483 L 359.012746 493.683972 L 362.643564 492.005532 L 366.274382 490.327091 L 369.905200 488.648651 L 373.503953 486.903524 L 377.082187 485.115720 L 380.660421 483.327916 L 384.238655 481.540112 L 387.816889 479.752308 L 391.386995 477.949008 L 394.892195 476.021944 L 398.356801 474.025325 L 401.566479 471.668893 L 401.972059 470.402725" fill="none" id="43" stroke="black" stroke-width="0.62115" /><path d="M 47.288539 479.198205 L 50.435921 481.646545 L 53.791829 483.823212 L 57.147738 485.999879 L 60.503646 488.176546 L 63.859554 490.353213 L 67.215463 492.529880 L 70.571371 494.706547 L 73.927279 496.883214 L 77.283188 499.059881 L 80.639096 501.236548 L 83.995004 503.413215 L 87.340433 505.605935 L 90.683413 507.802406 L 94.026393 509.998877 L 97.369373 512.195348 L 100.712352 514.391820 L 104.055332 516.588291 L 107.398312 518.784762 L 110.741292 520.981233 L 114.084272 523.177705 L 117.427252 525.374176 L 120.770231 527.570647 L 124.113211 529.767118 L 127.456191 531.963589 L 130.799171 534.160061 L 134.189658 536.281582 L 137.602756 538.367430 L 141.015854 540.453278 L 144.428952 542.539125 L 147.883239 544.554737 L 151.369889 546.515163 L 154.856539 548.475590 L 158.356674 550.410894 L 161.917444 552.233232 L 165.478215 554.055569 L 169.059930 555.835798 L 172.661516 557.576079 L 176.244794 559.353128 L 179.804008 561.178505 L 183.363221 563.003881 L 186.922435 564.829257 L 190.408129 566.787969 L 193.764316 568.952007 L 195.720249 570.464165" fill="none" id="44" stroke="black" stroke-width="0.62115" /><path d="M 205.223089 310.739025 L 208.112351 309.307161 L 211.873017 307.944298 L 215.643724 306.610590 L 219.445991 305.368509 L 223.248258 304.126427 L 227.050525 302.884346 L 230.852792 301.642264 L 234.661395 300.420318 L 238.489751 299.261140 L 242.318106 298.101962 L 246.146462 296.942784 L 249.974817 295.783606 L 253.803173 294.624428 L 257.631529 293.465251 L 261.459884 292.306073 L 265.288240 291.146895 L 269.116596 289.987717 L 272.944951 288.828539 L 276.773307 287.669361 L 280.601662 286.510184 L 284.430018 285.351006 L 288.244606 284.147450 L 292.056818 282.936236 L 295.869030 281.725023 L 299.681242 280.513809 L 303.493455 279.302596 L 307.284863 278.028402 L 311.068456 276.730549 L 314.852050 275.432697 L 318.635643 274.134844 L 322.419237 272.836992 L 326.202830 271.539139 L 329.986423 270.241287 L 333.770017 268.943434 L 337.553610 267.645582 L 341.337203 266.347729 L 345.117236 265.039623 L 348.891000 263.713459 L 352.664763 262.387296 L 356.438527 261.061132 L 360.212290 259.734969 L 363.991714 258.425309 L 367.784967 257.155964 L 371.578219 255.886619 L 375.371472 254.617275 L 379.164724 253.347930 L 382.972884 252.124786 L 386.792647 250.937600 L 390.612410 249.750414 L 394.432173 248.563228 L 398.251936 247.376042 L 402.071699 246.188856 L 405.891462 245.001670 L 409.731334 243.882807 L 413.585210 242.811529 L 417.439087 241.740252 L 421.111579 240.892625" fill="none" id="45" stroke="black" stroke-width="0.62115" /><path d="M 184.343609 319.534495 L 186.112800 318.950017 L 189.811930 317.428031 L 193.511059 315.906046 L 197.210189 314.384061 L 200.909319 312.862076 L 204.608449 311.340091 L 208.307579 309.818106 L 212.006709 308.296121 L 215.705838 306.774136 L 219.421964 305.294577 L 223.148791 303.841732 L 226.875618 302.388887 L 230.602446 300.936042 L 234.329273 299.483197 L 238.056100 298.030352 L 241.782928 296.577507 L 245.509755 295.124662 L 249.239368 293.679117 L 252.986376 292.279140 L 256.733383 290.879163 L 260.480391 289.479186 L 264.227398 288.079210 L 267.974406 286.679233 L 271.721413 285.279256 L 275.468421 283.879280 L 279.215428 282.479303 L 282.962436 281.079326 L 286.700941 279.656980 L 290.431889 278.214750 L 294.162837 276.772521 L 297.893785 275.330291 L 301.624869 273.888418 L 305.370378 272.484435 L 309.115886 271.080452 L 312.861394 269.676469 L 316.606902 268.272485 L 320.352410 266.868502 L 324.097918 265.464519 L 327.843426 264.060536 L 331.588935 262.656553 L 335.346909 261.286441 L 339.108935 259.927337 L 342.870960 258.568234 L 346.632986 257.209130 L 350.428168 255.945789 L 354.225170 254.687705 L 358.022172 253.429622 L 361.827731 252.197985 L 365.642072 250.993491 L 369.456412 249.788997 L 373.270753 248.584504 L 377.085094 247.380010 L 380.909521 246.208421 L 384.743609 245.068348 L 388.597001 244.004374 L 390.569398 241.410005 L 391.532319 241.410005" fill="none" id="46" stroke="black" stroke-width="0.62115" /><path d="M 209.773739 375.411625 L 213.542431 374.385006 L 217.155930 372.669599 L 220.792589 371.004831 L 224.453621 369.393359 L 228.114654 367.781887 L 231.775686 366.170415 L 235.436718 364.558943 L 239.109052 362.973673 L 242.793694 361.416942 L 246.478336 359.860210 L 250.162978 358.303479 L 253.847620 356.746747 L 257.532262 355.190016 L 261.216904 353.633284 L 264.901546 352.076553 L 268.586188 350.519821 L 272.270830 348.963090 L 275.955472 347.406358 L 279.640114 345.849627 L 283.324756 344.292895 L 287.029890 342.786281 L 290.749654 341.315446 L 294.469418 339.844611 L 298.189183 338.373776 L 301.908947 336.902941 L 305.641702 335.465461 L 309.376400 334.032972 L 313.111099 332.600482 L 316.845797 331.167992 L 320.584375 329.745787 L 324.334791 328.354966 L 328.085206 326.964145 L 331.835622 325.573324 L 335.586038 324.182504 L 339.361350 322.861100 L 343.140809 321.551254 L 346.920267 320.241409 L 350.699725 318.931563 L 354.483366 317.633870 L 358.268405 316.340241 L 362.053445 315.046612 L 365.838484 313.752983 L 369.623524 312.459354 L 373.408564 311.165726 L 377.193603 309.872097 L 380.978643 308.578468 L 384.763682 307.284839 L 388.548722 305.991211 L 392.333762 304.697582 L 396.121764 303.412848 L 399.926439 302.178162 L 403.731114 300.943475 L 406.388869 300.080985" fill="none" id="47" stroke="black" stroke-width="0.62115" /><path d="M 15.567789 241.203055 L 18.894961 241.655145 L 22.646134 243.043922 L 26.397307 244.432699 L 30.148480 245.821476 L 33.899652 247.210253 L 37.650825 248.599030 L 41.401998 249.987807 L 45.153171 251.376584 L 48.881171 252.825017 L 52.586192 254.332604 L 56.291213 255.840191 L 59.985628 257.373504 L 63.676632 258.915092 L 67.367635 260.456679 L 71.037375 262.047623 L 74.693046 263.671220 L 78.348717 265.294817 L 81.997577 266.933239 L 85.610754 268.649325 L 89.223931 270.365412 L 92.837107 272.081499 L 96.450284 273.797586 L 100.063461 275.513673 L 103.676637 277.229760 L 107.289814 278.945847 L 110.902991 280.661934 L 114.516167 282.378021 L 118.129344 284.094108 L 121.753499 285.786429 L 125.402473 287.425022 L 129.051447 289.063616 L 132.700421 290.702209 L 136.349395 292.340802 L 139.998370 293.979396 L 143.660106 295.587755 L 147.379515 297.059487 L 151.098924 298.531219 L 154.818334 300.002951 L 158.537743 301.474683 L 162.292351 302.851793 L 166.069359 304.168687 L 169.872146 305.408525 L 173.692305 306.593378 L 177.531892 307.714792 L 181.371480 308.836206 L 184.293146 309.911215 L 186.752779 311.256405" fill="none" id="48" stroke="black" stroke-width="0.62115" /><path d="M 8.474119 242.651715 L 12.444870 242.942194 L 16.358015 243.765298 L 20.179457 244.947067 L 24.000900 246.128835 L 27.822343 247.310603 L 31.642286 248.496966 L 35.425198 249.796804 L 39.208110 251.096641 L 42.971396 252.450970 L 46.714376 253.861678 L 50.457357 255.272386 L 54.182782 256.728349 L 57.897933 258.210798 L 61.613084 259.693246 L 65.323532 261.187291 L 69.021912 262.711099 L 72.720291 264.234907 L 76.418670 265.758714 L 80.117050 267.282522 L 83.815429 268.806330 L 87.513808 270.330138 L 91.212188 271.853946 L 94.910567 273.377754 L 98.608946 274.901562 L 102.307326 276.425370 L 106.005705 277.949178 L 109.709583 279.459268 L 113.436446 280.912022 L 117.163308 282.364776 L 120.890171 283.817530 L 124.617034 285.270285 L 128.370736 286.652028 L 132.126791 288.027547 L 135.882845 289.403067 L 139.638900 290.778586 L 143.404798 292.126872 L 147.172336 293.470619 L 150.939874 294.814366 L 154.707412 296.158113 L 158.474950 297.501860 L 162.242488 298.845608 L 166.010026 300.189355 L 169.777565 301.533102 L 173.545103 302.876849 L 177.312641 304.220596 L 181.080179 305.564343 L 184.847717 306.908090 L 188.615255 308.251838 L 192.396022 309.557357 L 196.188279 310.829672 L 200.088878 311.566835 L 200.270899 311.670315" fill="none" id="49" stroke="black" stroke-width="0.62115" /><path d="M 35.510369 300.908795 L 39.346943 301.871470 L 43.082097 303.302771 L 46.817251 304.734071 L 50.552406 306.165372 L 54.287560 307.596673 L 58.022714 309.027974 L 61.757869 310.459275 L 65.493023 311.890575 L 69.228178 313.321876 L 72.948555 314.791156 L 76.668891 316.260544 L 80.389227 317.729933 L 84.099766 319.223780 L 87.805850 320.728753 L 91.511934 322.233725 L 95.215536 323.744685 L 98.899472 325.303087 L 102.583408 326.861489 L 106.267344 328.419891 L 109.947210 329.987782 L 113.615550 331.582550 L 117.283889 333.177317 L 120.952229 334.772085 L 124.620569 336.366853 L 128.288908 337.961621 L 131.957248 339.556388 L 135.625588 341.151156 L 139.293927 342.745924 L 142.962267 344.340692 L 146.630607 345.935459 L 150.298946 347.530227 L 153.967286 349.124995 L 157.650535 350.684794 L 161.341021 352.227622 L 165.031506 353.770450 L 168.721991 355.313278 L 172.412476 356.856106 L 176.102962 358.398934 L 179.793447 359.941762 L 183.483932 361.484590 L 187.174417 363.027418 L 190.864903 364.570246 L 194.595180 366.013676 L 198.330823 367.443701 L 202.066465 368.873726 L 205.812314 370.275432 L 209.606536 371.539910 L 213.479981 372.538121 L 213.789029 372.617765" fill="none" id="50" stroke="black" stroke-width="0.62115" /><path d="M 197.727889 330.813405 L 201.573021 329.711152 L 205.418153 328.608899 L 209.263285 327.506646 L 213.127668 326.474186 L 216.994141 325.449305 L 220.865088 324.441618 L 224.740900 323.452640 L 228.616713 322.463663 L 232.492525 321.474685 L 236.368338 320.485707 L 240.244151 319.496730 L 244.119963 318.507752 L 248.004631 317.554977 L 251.899335 316.643230 L 255.794039 315.731484 L 259.688743 314.819738 L 263.583447 313.907992 L 267.478151 312.996245 L 271.372855 312.084499 L 275.267559 311.172753 L 279.162263 310.261007 L 283.056967 309.349261 L 286.951671 308.437514 L 290.846375 307.525768 L 294.741078 306.614022 L 298.635782 305.702276 L 302.543325 304.847301 L 306.451358 303.994497 L 310.359392 303.141693 L 314.267425 302.288889 L 318.166527 301.396501 L 322.062092 300.488443 L 325.957657 299.580384 L 329.853223 298.672326 L 333.748788 297.764267 L 337.644354 296.856209 L 341.539919 295.948151 L 345.413032 294.949254 L 349.283060 293.937878 L 353.141128 292.883100 L 356.982928 291.769291 L 360.741427 290.408685 L 362.622259 288.077745" fill="none" id="51" stroke="black" stroke-width="0.62115" /><path d="M 199.869369 337.435875 L 203.674399 336.421692 L 207.334304 334.807661 L 210.994209 333.193631 L 214.654115 331.579600 L 218.314020 329.965569 L 221.996363 328.405245 L 225.716699 326.935857 L 229.437035 325.466470 L 233.159349 324.002260 L 236.911838 322.617043 L 240.664327 321.231825 L 244.416816 319.846608 L 248.171001 318.466075 L 251.940064 317.126609 L 255.709126 315.787143 L 259.478188 314.447678 L 263.247251 313.108212 L 267.031307 311.812058 L 270.821819 310.534552 L 274.612330 309.257046 L 278.402842 307.979540 L 282.193354 306.702034 L 285.983865 305.424528 L 289.774377 304.147023 L 293.564889 302.869517 L 297.355400 301.592011 L 301.145912 300.314505 L 304.936424 299.036999 L 308.726935 297.759493 L 312.517447 296.481987 L 316.307959 295.204481 L 320.098470 293.926975 L 323.888982 292.649470 L 327.679494 291.371964 L 331.470005 290.094458 L 335.260517 288.816952 L 339.051029 287.539446 L 342.841540 286.261940 L 346.632052 284.984434 L 350.422564 283.706928 L 354.213075 282.429422 L 358.003587 281.151916 L 361.798725 279.888384 L 365.602591 278.651207 L 369.406457 277.414030 L 373.210322 276.176853 L 377.014188 274.939676 L 380.829875 273.741607 L 384.682092 272.664377 L 386.312449 271.935465" fill="none" id="52" stroke="black" stroke-width="0.62115" /><path d="M 207.632259 332.986395 L 211.563339 332.489657 L 215.337579 331.164850 L 219.111818 329.840042 L 222.886058 328.515235 L 226.660298 327.190428 L 230.434537 325.865620 L 234.212796 324.552736 L 238.018826 323.322233 L 241.824856 322.091731 L 245.630886 320.861229 L 249.436916 319.630726 L 253.242946 318.400224 L 257.048976 317.169722 L 260.855006 315.939220 L 264.661036 314.708717 L 268.467066 313.478215 L 272.273096 312.247713 L 276.079126 311.017210 L 279.885156 309.786708 L 283.691186 308.556206 L 287.497216 307.325704 L 291.303246 306.095201 L 295.095930 304.824535 L 298.881536 303.532562 L 302.667141 302.240589 L 306.452746 300.948616 L 310.238351 299.656644 L 314.023956 298.364671 L 317.809561 297.072698 L 321.595166 295.780725 L 325.380771 294.488752 L 329.166377 293.196779 L 332.951982 291.904807 L 336.737587 290.612834 L 340.533769 289.352336 L 344.331394 288.096134 L 348.129019 286.839931 L 351.926643 285.583729 L 355.724268 284.327526 L 359.521893 283.071324 L 363.319518 281.815121 L 367.135637 280.616667 L 370.956498 279.433019 L 374.777359 278.249371 L 378.598220 277.065724 L 382.419081 275.882076 L 386.239942 274.698428 L 390.060803 273.514781 L 393.881664 272.331133 L 397.702525 271.147485 L 401.523386 269.963838 L 405.322009 268.711382 L 409.112919 267.435057 L 412.769376 265.864359 L 415.891709 264.174755" fill="none" id="53" stroke="black" stroke-width="0.62115" /></svg>