<?xml version="1.0" encoding="utf-8" ?>
<svg baseProfile="full" height="574.70805" version="1.1" viewBox="0,0,540.70805,574.70805" width="540.70805" xmlns="http://www.w3.org/2000/svg" xmlns:ev="http://www.w3.org/2001/xml-events" xmlns:xlink="http://www.w3.org/1999/xlink"><defs><style type="text/css"><![CDATA[
	.background { fill: white; }
	.line { stroke: firebrick; stroke-width: .1mm; }
	.blacksquare { fill: indigo; }
	.whitesquare { fill: white; }
]]></style></defs><rect class="background" height="100%" width="100%" x="0" y="0" /><path d="M 193.338256 553.240745 L 195.048439 552.956058 L 198.509868 550.951435 L 201.971296 548.946812 L 205.432725 546.942189 L 208.810894 544.808550 L 212.063504 542.480347 L 215.235682 540.045298 L 218.372688 537.563525 L 221.509693 535.081752 L 224.646698 532.599979 L 227.783704 530.118206 L 230.920709 527.636433 L 234.057714 525.154660 L 237.194720 522.672887 L 240.331725 520.191114 L 243.468731 517.709341 L 246.605736 515.227568 L 249.742741 512.745795 L 252.879747 510.264022 L 256.016752 507.782249 L 259.153757 505.300476 L 262.290763 502.818703 L 265.427768 500.336930 L 268.564773 497.855157 L 271.701779 495.373384 L 274.845855 492.900585 L 277.992683 490.431279 L 281.139511 487.961972 L 284.286339 485.492666 L 287.433167 483.023359 L 290.579994 480.554052 L 293.726822 478.084746 L 296.873650 475.615439 L 300.020478 473.146133 L 303.167306 470.676826 L 306.314133 468.207520 L 309.460961 465.738213 L 312.607789 463.268907 L 315.754617 460.799600 L 318.901444 458.330293 L 322.048272 455.860987 L 325.195100 453.391680 L 328.341928 450.922374 L 331.488756 448.453067 L 334.635583 445.983761 L 337.782411 443.514454 L 340.929239 441.045147 L 344.076067 438.575841 L 347.222895 436.106534 L 350.369722 433.637228 L 353.516550 431.167921 L 356.663378 428.698615 L 359.810206 426.229308 L 362.957033 423.760002 L 366.118067 421.308911 L 369.279756 418.858662 L 372.441446 416.408414 L 375.603136 413.958165 L 378.764826 411.507917 L 381.926515 409.057668 L 385.088205 406.607420 L 388.249895 404.157171 L 391.411585 401.706923 L 394.573274 399.256674 L 397.734964 396.806425 L 400.896654 394.356177 L 403.908576 392.021995" fill="none" id="1" stroke="black" stroke-width="0.70805" /><path d="M 54.955446 368.604025 L 57.288827 371.852923 L 59.622207 375.101820 L 61.955588 378.350718 L 64.288968 381.599615 L 66.622349 384.848513 L 68.955729 388.097411 L 71.289110 391.346308 L 73.622490 394.595206 L 75.936297 397.858021 L 78.238755 401.128906 L 80.541213 404.399791 L 82.843670 407.670676 L 85.146128 410.941561 L 87.448586 414.212446 L 89.751043 417.483331 L 92.053501 420.754216 L 94.355959 424.025101 L 96.658417 427.295986 L 98.960874 430.566871 L 101.263332 433.837755 L 103.565790 437.108640 L 105.868248 440.379525 L 108.170705 443.650410 L 110.473163 446.921295 L 112.775621 450.192180 L 115.078079 453.463065 L 117.380536 456.733950 L 119.682994 460.004835 L 121.985452 463.275720 L 124.287910 466.546605 L 126.590367 469.817490 L 128.892825 473.088375 L 131.195283 476.359260 L 133.497741 479.630145 L 135.800198 482.901030 L 138.102656 486.171915 L 140.405114 489.442800 L 142.697903 492.720138 L 144.835384 496.101140 L 146.972864 499.482143 L 149.110344 502.863145 L 151.247825 506.244148 L 153.385305 509.625150 L 155.522786 513.006152 L 157.660266 516.387155 L 159.797747 519.768157 L 161.935227 523.149160 L 164.072708 526.530162 L 166.210188 529.911164 L 168.347669 533.292167 L 170.485149 536.673169 L 172.622630 540.054171 L 174.760110 543.435174 L 176.897591 546.816176 L 179.035071 550.197179 L 181.172552 553.578181 L 183.310032 556.959183 L 185.256226 560.037615" fill="none" id="2" stroke="black" stroke-width="0.70805" /><path d="M 194.435916 558.264175 L 196.063721 559.459201 L 196.358823 555.470101 L 196.653926 551.481002 L 196.949028 547.491902 L 197.244130 543.502803 L 197.175769 539.507515 L 197.016628 535.510682 L 196.857486 531.513849 L 196.698344 527.517016 L 196.539203 523.520183 L 196.380061 519.523350 L 196.220919 515.526517 L 196.061778 511.529684 L 195.902636 507.532851 L 195.743495 503.536018 L 195.584353 499.539185 L 195.425211 495.542352 L 195.266070 491.545519 L 195.106928 487.548686 L 194.947787 483.551853 L 194.752964 479.557190 L 194.426772 475.570512 L 194.100579 471.583834 L 193.774387 467.597157 L 193.448195 463.610479 L 193.122002 459.623801 L 192.795810 455.637124 L 192.469618 451.650446 L 192.143425 447.663769 L 191.817233 443.677091 L 191.491041 439.690413 L 191.164848 435.703736 L 190.838656 431.717058 L 190.512464 427.730380 L 190.186271 423.743703 L 189.860079 419.757025 L 189.533887 415.770347 L 189.207694 411.783670 L 188.881502 407.796992 L 188.555310 403.810315 L 188.229117 399.823637 L 187.902925 395.836959 L 187.576733 391.850282 L 187.250540 387.863604 L 186.924348 383.876926 L 186.598156 379.890249 L 186.271963 375.903571 L 185.945771 371.916893 L 185.619579 367.930216 L 185.293386 363.943538 L 184.967194 359.956861 L 184.641002 355.970183 L 184.314809 351.983505 L 183.988617 347.996828 L 183.662425 344.010150 L 183.336232 340.023472 L 183.010040 336.036795 L 182.683848 332.050117 L 182.357655 328.063440 L 182.031463 324.076762 L 181.705271 320.090084 L 181.389036 316.103000 L 181.389036 312.103000 L 181.389036 308.103000 L 181.389036 304.103000 L 181.389036 300.103000 L 181.389036 296.103000 L 181.389036 292.103000 L 181.389036 289.264175" fill="none" id="3" stroke="black" stroke-width="0.70805" /><path d="M 336.361696 457.088395 L 336.651934 453.098939 L 336.942172 449.109482 L 337.531422 445.156371 L 338.205352 441.213552 L 338.879281 437.270734 L 339.553211 433.327915 L 340.225358 429.384800 L 340.863330 425.436004 L 341.501302 421.487208 L 342.139275 417.538411 L 342.777247 413.589615 L 343.415219 409.640819 L 344.053192 405.692023 L 344.691164 401.743227 L 345.329136 397.794430 L 345.967109 393.845634 L 346.605081 389.896838 L 347.243054 385.948042 L 347.881026 381.999246 L 348.518998 378.050449 L 349.156971 374.101653 L 349.794943 370.152857 L 350.432915 366.204061 L 351.070888 362.255265 L 351.708860 358.306469 L 352.327122 354.354646 L 352.903421 350.396378 L 353.479720 346.438111 L 354.056019 342.479844 L 354.632318 338.521577 L 355.208617 334.563309 L 355.826284 330.611626 L 356.507186 326.670005 L 357.188089 322.728385 L 357.868991 318.786764 L 358.549893 314.845144 L 359.230796 310.903523 L 359.911698 306.961903 L 360.592600 303.020282 L 361.273503 299.078662 L 361.954405 295.137041 L 362.635307 291.195421 L 363.316209 287.253800 L 363.997112 283.312180 L 364.678014 279.370559 L 365.358916 275.428939 L 366.039819 271.487318 L 366.720721 267.545698 L 367.401623 263.604077 L 368.082526 259.662457 L 368.763428 255.720836 L 369.444330 251.779216 L 370.125233 247.837595 L 370.806135 243.895975 L 371.487037 239.954354 L 372.167939 236.012734 L 372.848842 232.071113 L 373.529744 228.129493 L 374.210646 224.187872 L 374.891549 220.246252 L 375.572451 216.304631 L 376.253353 212.363011 L 376.934256 208.421391 L 377.615158 204.479770 L 378.296060 200.538150 L 378.976963 196.596529 L 379.657865 192.654909 L 380.338767 188.713288 L 381.019670 184.771668 L 381.700572 180.830047 L 382.381474 176.888427 L 383.062376 172.946806 L 383.743279 169.005186 L 384.424181 165.063565 L 385.099317 161.120953 L 385.773870 157.178241 L 386.448423 153.235529 L 387.122975 149.292817 L 387.797528 145.350105 L 388.467861 141.406699 L 389.091306 137.455583 L 389.714751 133.504467 L 390.338196 129.553352 L 390.961641 125.602236 L 391.506226 122.150895" fill="none" id="4" stroke="black" stroke-width="0.70805" /><path d="M 86.107786 404.162615 L 84.680380 400.425971 L 83.252973 396.689327 L 81.935139 392.913698 L 80.785720 389.082771 L 79.661130 385.244112 L 78.536541 381.405454 L 77.411951 377.566796 L 76.287361 373.728137 L 75.162771 369.889479 L 74.038181 366.050821 L 72.913591 362.212163 L 71.789001 358.373504 L 70.664411 354.534846 L 69.539821 350.696188 L 68.415231 346.857529 L 67.290642 343.018871 L 66.166052 339.180213 L 65.041462 335.341554 L 63.916872 331.502896 L 62.792282 327.664238 L 61.667692 323.825580 L 60.543102 319.986921 L 59.599176 316.101316 L 58.712676 312.200788 L 57.826176 308.300260 L 56.939676 304.399732 L 56.053176 300.499205 L 55.166676 296.598677 L 54.280176 292.698149 L 53.393676 288.797621 L 52.507176 284.897093 L 51.620676 280.996565 L 50.734176 277.096037 L 49.847676 273.195509 L 48.961176 269.294981 L 48.074676 265.394454 L 47.188176 261.493926 L 46.301676 257.593398 L 45.415176 253.692870 L 44.528676 249.792342 L 43.642176 245.891814 L 42.755676 241.991286 L 41.869176 238.090758 L 40.982676 234.190231 L 40.096176 230.289703 L 39.209676 226.389175 L 38.323176 222.488647 L 37.436676 218.588119 L 36.550176 214.687591 L 35.663676 210.787063 L 34.777176 206.886535 L 33.890676 202.986008 L 33.004176 199.085480 L 32.117676 195.184952 L 31.231176 191.284424 L 30.344676 187.383896 L 29.458176 183.483368 L 28.571676 179.582840 L 27.685176 175.682312 L 26.798676 171.781785 L 25.912176 167.881257 L 25.025676 163.980729 L 24.139176 160.080201 L 23.252676 156.179673 L 22.366176 152.279145 L 21.748416 149.561055" fill="none" id="5" stroke="black" stroke-width="0.70805" /><path d="M 70.420286 299.377465 L 73.037368 302.402508 L 75.654450 305.427550 L 78.271532 308.452593 L 80.957889 311.415593 L 83.677225 314.349057 L 86.396562 317.282520 L 89.115898 320.215984 L 91.835235 323.149447 L 94.554571 326.082911 L 97.273908 329.016375 L 99.993244 331.949838 L 102.712581 334.883302 L 105.431918 337.816766 L 108.151254 340.750229 L 110.865085 343.688760 L 113.563042 346.641898 L 116.260999 349.595037 L 118.958956 352.548176 L 120.412476 354.139175" fill="none" id="6" stroke="black" stroke-width="0.70805" /><path d="M 42.072636 264.783715 L 44.953273 267.558951 L 47.833909 270.334187 L 50.714546 273.109422 L 53.595182 275.884658 L 56.371881 278.758623 L 58.995495 281.778002 L 61.619109 284.797381 L 64.242723 287.816760 L 66.866337 290.836139 L 69.489951 293.855518 L 72.212296 296.785728 L 74.949755 299.702287 L 77.687214 302.618846 L 80.424674 305.535405 L 83.162133 308.451964 L 85.899592 311.368524 L 88.637051 314.285083 L 91.374510 317.201642 L 94.111969 320.118201 L 96.849429 323.034760 L 99.586888 325.951319 L 102.324347 328.867879 L 105.061806 331.784438 L 107.799265 334.700997 L 110.536724 337.617556 L 113.274184 340.534115 L 116.011643 343.450674 L 118.749102 346.367234 L 121.486561 349.283793 L 124.224020 352.200352 L 126.961479 355.116911 L 129.698939 358.033470 L 132.436398 360.950029 L 135.173857 363.866589 L 137.911316 366.783148 L 140.648775 369.699707 L 143.405184 372.598358 L 146.162455 375.496195 L 148.919726 378.394032 L 151.676997 381.291868 L 154.475544 384.149509 L 157.299246 386.982653 L 160.122948 389.815798 L 162.946650 392.648942 L 165.770352 395.482086 L 168.594054 398.315231 L 171.417756 401.148375 L 174.241458 403.981519 L 177.065160 406.814664 L 179.888862 409.647808 L 182.712564 412.480953 L 185.536266 415.314097 L 188.359968 418.147241 L 191.183670 420.980386 L 194.007372 423.813530 L 196.831074 426.646674 L 199.654776 429.479819 L 202.434375 432.355904 L 204.420286 434.443865" fill="none" id="7" stroke="black" stroke-width="0.70805" /><path d="M 195.724976 426.357925 L 193.574150 425.309251 L 196.613848 422.746731 L 199.792899 420.319049 L 202.971949 417.891368 L 206.151000 415.463686 L 209.330051 413.036005 L 212.509101 410.608323 L 215.688152 408.180642 L 218.867202 405.752960 L 222.110917 403.413525 L 225.383568 401.113578 L 228.653767 398.810176 L 231.904653 396.479568 L 235.155540 394.148959 L 238.406427 391.818351 L 241.657313 389.487742 L 244.908200 387.157134 L 248.159087 384.826525 L 251.409973 382.495917 L 254.660860 380.165308 L 257.911746 377.834700 L 261.162633 375.504091 L 264.413520 373.173483 L 267.664406 370.842874 L 270.915293 368.512266 L 274.166180 366.181657 L 277.417066 363.851049 L 280.667953 361.520440 L 283.918840 359.189831 L 287.169726 356.859223 L 290.420613 354.528614 L 293.671500 352.198006 L 296.930785 349.879272 L 300.211220 347.590441 L 303.491655 345.301610 L 306.772090 343.012780 L 310.052525 340.723949 L 313.332960 338.435118 L 316.613395 336.146288 L 319.893830 333.857457 L 323.174265 331.568627 L 326.454700 329.279796 L 329.735135 326.990965 L 333.015570 324.702135 L 336.296006 322.413304 L 339.576441 320.124473 L 342.856876 317.835643 L 346.137311 315.546812 L 349.417746 313.257982 L 352.698181 310.969151 L 355.978616 308.680320 L 359.259051 306.391490 L 362.539486 304.102659 L 365.819921 301.813828 L 369.100356 299.524998 L 372.404053 297.270347 L 375.736875 295.058494 L 379.069698 292.846641 L 380.877326 291.646995" fill="none" id="8" stroke="black" stroke-width="0.70805" /><path d="M 194.564826 564.193865 L 196.500505 560.699906 L 198.517010 557.261427 L 200.263877 553.663031 L 202.010745 550.064635 L 203.757612 546.466239 L 205.504480 542.867843 L 207.251347 539.269447 L 208.931474 535.640665 L 210.498489 531.960384 L 212.065504 528.280104 L 213.632519 524.599823 L 215.199534 520.919543 L 216.766549 517.239262 L 218.333564 513.558982 L 219.900579 509.878702 L 221.467594 506.198421 L 223.034609 502.518141 L 224.601624 498.837860 L 226.168639 495.157580 L 227.735654 491.477300 L 229.302669 487.797019 L 230.866280 484.115307 L 232.400824 480.421369 L 233.935367 476.727432 L 235.469910 473.033494 L 237.004453 469.339556 L 238.538997 465.645618 L 240.073540 461.951680 L 241.608083 458.257742 L 243.142627 454.563804 L 244.677170 450.869866 L 246.211713 447.175929 L 247.746256 443.481991 L 249.280800 439.788053 L 250.815343 436.094115 L 252.349886 432.400177 L 253.884429 428.706239 L 255.418973 425.012301 L 256.953516 421.318364 L 258.488059 417.624426 L 260.022603 413.930488 L 261.545524 410.231760 L 263.059413 406.529309 L 264.573301 402.826859 L 266.087190 399.124408 L 267.601078 395.421957 L 269.188773 391.750719 L 270.790719 388.085509 L 272.392664 384.420298 L 273.994610 380.755087 L 275.596555 377.089876 L 277.198501 373.424665 L 278.800447 369.759455 L 280.402392 366.094244 L 282.004338 362.429033 L 283.606283 358.763822 L 285.208229 355.098611 L 286.810175 351.433401 L 288.412120 347.768190 L 290.014066 344.102979 L 291.616011 340.437768 L 293.217957 336.772557 L 294.819903 333.107346 L 296.421848 329.442136 L 298.023794 325.776925 L 299.625739 322.111714 L 301.227685 318.446503 L 302.829631 314.781292 L 304.431576 311.116082 L 306.033522 307.450871 L 307.635467 303.785660 L 309.237413 300.120449 L 310.839359 296.455238 L 312.441304 292.790028 L 314.043250 289.124817 L 315.645195 285.459606 L 317.247141 281.794395 L 318.901143 278.152746 L 320.597647 274.530333 L 322.294150 270.907919 L 323.990653 267.285506 L 325.687156 263.663093 L 327.383659 260.040680 L 329.133440 256.443726 L 330.886116 252.848156 L 332.638791 249.252585 L 334.391467 245.657014 L 336.144142 242.061444 L 337.896818 238.465873 L 339.649494 234.870302 L 341.402169 231.274731 L 343.154845 227.679161 L 344.907520 224.083590 L 346.660196 220.488019 L 348.412871 216.892449 L 350.165547 213.296878 L 351.918222 209.701307 L 353.670898 206.105737 L 355.423573 202.510166 L 357.176249 198.914595 L 358.928924 195.319025 L 360.681600 191.723454 L 362.434275 188.127883 L 364.186951 184.532313 L 365.939626 180.936742 L 367.692302 177.341171 L 369.444977 173.745601 L 371.197653 170.150030 L 372.950328 166.554459 L 374.703004 162.958889 L 376.484579 159.377724 L 378.300800 155.813830 L 380.117022 152.249936 L 381.933243 148.686042 L 383.749464 145.122148 L 385.585028 141.568285 L 387.451713 138.030562 L 389.318399 134.492839 L 391.185084 130.955115 L 393.051769 127.417392 L 394.918455 123.879669 L 396.785140 120.341945 L 398.651825 116.804222 L 400.518510 113.266499 L 402.385196 109.728776 L 404.251881 106.191052 L 406.118566 102.653329 L 407.985251 99.115606 L 409.803106 95.670425" fill="none" id="9" stroke="black" stroke-width="0.70805" /><path d="M 196.916386 554.334495 L 197.311284 551.307154 L 197.322433 547.307170 L 197.333583 543.307185 L 197.163972 539.311088 L 196.980891 535.315280 L 196.797810 531.319472 L 196.614729 527.323664 L 196.431649 523.327856 L 196.248568 519.332048 L 196.065487 515.336240 L 195.882406 511.340432 L 195.699326 507.344624 L 195.516245 503.348816 L 195.240842 499.359222 L 194.886758 495.374925 L 194.532673 491.390628 L 194.178589 487.406331 L 193.824504 483.422034 L 193.470420 479.437736 L 193.183820 475.448234 L 192.922683 471.456767 L 192.661547 467.465300 L 192.400411 463.473833 L 192.139274 459.482366 L 191.878138 455.490899 L 191.617001 451.499433 L 191.355865 447.507966 L 191.094728 443.516499 L 190.833592 439.525032 L 190.572456 435.533565 L 190.311319 431.542098 L 190.050183 427.550631 L 189.789046 423.559165 L 189.527910 419.567698 L 189.266773 415.576231 L 189.005637 411.584764 L 188.744501 407.593297 L 188.483364 403.601830 L 188.222228 399.610363 L 187.961091 395.618896 L 187.699955 391.627430 L 187.438819 387.635963 L 187.201320 383.643083 L 186.985194 379.648926 L 186.769067 375.654769 L 186.552940 371.660612 L 186.336814 367.666455 L 186.120687 363.672299 L 185.904561 359.678142 L 185.688434 355.683985 L 185.472307 351.689828 L 185.256181 347.695671 L 185.040054 343.701514 L 184.823927 339.707357 L 184.607801 335.713200 L 184.391674 331.719043 L 184.175547 327.724887 L 183.959421 323.730730 L 183.743294 319.736573 L 183.527167 315.742416 L 183.311041 311.748259 L 183.094914 307.754102 L 182.878787 303.759945 L 182.662661 299.765788 L 182.446534 295.771631 L 182.230407 291.777475 L 182.014281 287.783318 L 181.780830 283.790146 L 181.542549 279.797250 L 181.304269 275.804353 L 181.065989 271.811457 L 180.827708 267.818560 L 180.690125 263.821609 L 180.606568 259.822482 L 180.523010 255.823355 L 180.439452 251.824227 L 180.355895 247.825100 L 180.272337 243.825973 L 180.188779 239.826846 L 180.105222 235.827719 L 180.021664 231.828591 L 179.938106 227.829464 L 179.854549 223.830337 L 179.770991 219.831210 L 179.687433 215.832083 L 179.603876 211.832956 L 179.520318 207.833828 L 179.436761 203.834701 L 179.353203 199.835574 L 179.269645 195.836447 L 179.186088 191.837320 L 179.102530 187.838193 L 179.018972 183.839065 L 178.935415 179.839938 L 178.851857 175.840811 L 178.810916 173.881365" fill="none" id="10" stroke="black" stroke-width="0.70805" /><path d="M 175.236696 573.533715 L 177.637990 570.334686 L 180.335570 567.403316 L 183.397334 564.830376 L 186.478869 562.280054 L 189.560403 559.729732 L 192.641938 557.179409 L 195.723473 554.629087 L 198.805007 552.078764 L 201.886542 549.528442 L 204.968076 546.978119 L 208.049611 544.427797 L 211.131146 541.877474 L 214.212680 539.327152 L 217.307421 536.792871 L 220.402164 534.258593 L 223.496907 531.724315 L 226.591650 529.190037 L 229.686394 526.655759 L 232.781137 524.121482 L 235.875880 521.587204 L 238.970623 519.052926 L 242.065366 516.518648 L 245.160110 513.984370 L 248.254853 511.450092 L 251.349596 508.915814 L 254.444339 506.381536 L 257.539083 503.847258 L 260.633826 501.312980 L 263.728569 498.778703 L 266.823312 496.244425 L 269.918055 493.710147 L 273.012799 491.175869 L 276.107542 488.641591 L 279.202285 486.107313 L 282.297028 483.573035 L 285.391771 481.038757 L 288.486515 478.504479 L 291.634137 476.037036 L 294.812300 473.608192 L 297.990462 471.179348 L 301.168625 468.750504 L 304.346787 466.321660 L 307.524950 463.892816 L 310.703112 461.463972 L 313.881275 459.035128 L 317.059438 456.606284 L 320.237600 454.177441 L 323.415763 451.748597 L 326.593925 449.319753 L 329.772088 446.890909 L 332.950250 444.462065 L 336.128413 442.033221 L 339.306575 439.604377 L 342.484738 437.175533 L 345.662901 434.746689 L 348.841063 432.317845 L 352.019226 429.889001 L 355.197388 427.460157 L 358.375551 425.031314 L 361.553713 422.602470 L 364.731876 420.173626 L 367.910038 417.744782 L 371.088201 415.315938 L 374.266364 412.887094 L 377.444526 410.458250 L 380.622689 408.029406 L 383.800851 405.600562 L 386.979014 403.171718 L 390.157176 400.742874 L 393.335339 398.314030 L 396.513501 395.885187 L 399.691664 393.456343 L 402.869827 391.027499 L 406.055260 388.608492 L 409.309567 386.282661 L 412.563874 383.956831 L 415.818180 381.631000 L 419.072487 379.305170 L 422.326794 376.979339 L 425.581101 374.653509 L 428.856236 372.357180 L 432.137227 370.069146 L 435.418218 367.781113 L 438.699208 365.493079 L 441.980199 363.205045 L 445.261190 360.917011 L 448.542181 358.628978 L 451.823172 356.340944 L 455.104163 354.052910 L 458.385154 351.764877 L 461.666145 349.476843 L 464.947136 347.188809 L 468.228127 344.900775 L 471.509118 342.612742 L 474.790109 340.324708 L 478.071100 338.036674 L 481.352091 335.748641 L 484.633082 333.460607 L 485.049196 333.170425" fill="none" id="11" stroke="black" stroke-width="0.70805" /><path d="M 177.779666 439.982925 L 180.925464 437.512306 L 184.217777 435.247196 L 187.465541 432.912238 L 190.713306 430.577281 L 193.961070 428.242324 L 197.208835 425.907367 L 200.456600 423.572410 L 203.704364 421.237453 L 206.952129 418.902495 L 210.199893 416.567538 L 213.447658 414.232581 L 216.655595 411.844843 L 219.792027 409.362346 L 222.928460 406.879849 L 226.064892 404.397352 L 229.201324 401.914854 L 232.337756 399.432357 L 235.474189 396.949860 L 238.610621 394.467363 L 241.747053 391.984865 L 244.883485 389.502368 L 248.019918 387.019871 L 251.156350 384.537374 L 254.292782 382.054876 L 257.429215 379.572379 L 260.565647 377.089882 L 263.702079 374.607385 L 266.838511 372.124887 L 269.974944 369.642390 L 273.111376 367.159893 L 276.247808 364.677396 L 279.384240 362.194898 L 282.520673 359.712401 L 285.657105 357.229904 L 288.793537 354.747407 L 291.947962 352.288687 L 295.189477 349.945062 L 298.430992 347.601436 L 301.672507 345.257811 L 304.914022 342.914185 L 308.155537 340.570560 L 311.397052 338.226935 L 314.638567 335.883309 L 317.880082 333.539684 L 321.121597 331.196058 L 324.363112 328.852433 L 327.604628 326.508807 L 330.846143 324.165182 L 334.087658 321.821557 L 337.329173 319.477931 L 340.570688 317.134306 L 343.812203 314.790680 L 347.053718 312.447055 L 350.295233 310.103429 L 353.536748 307.759804 L 356.778263 305.416179 L 360.019778 303.072553 L 363.261293 300.728928 L 366.502808 298.385302 L 369.744323 296.041677 L 372.985838 293.698051 L 376.227353 291.354426 L 379.468868 289.010801 L 382.710384 286.667175 L 385.951899 284.323550 L 389.193414 281.979924 L 392.434929 279.636299 L 395.676444 277.292673 L 398.917959 274.949048 L 402.159474 272.605423 L 405.400989 270.261797 L 408.642504 267.918172 L 411.884019 265.574546 L 415.125534 263.230921 L 418.387267 260.916339 L 421.710476 258.690067 L 425.033684 256.463796 L 428.356893 254.237524 L 431.680101 252.011253 L 435.003310 249.784981 L 438.326519 247.558710 L 441.667332 245.359337 L 445.037530 243.204862 L 448.407728 241.050386 L 451.777926 238.895910 L 455.148124 236.741434 L 458.518322 234.586959 L 461.888520 232.432483 L 465.258718 230.278007 L 468.628916 228.123532 L 471.999114 225.969056 L 475.369312 223.814580 L 478.739510 221.660105 L 482.109708 219.505629 L 485.479906 217.351153 L 488.850104 215.196677 L 492.220302 213.042202 L 495.590500 210.887726 L 498.960698 208.733250 L 502.330896 206.578775 L 505.701094 204.424299 L 506.568726 203.869645" fill="none" id="12" stroke="black" stroke-width="0.70805" /><path d="M 157.553106 268.100115 L 161.206238 266.475760 L 164.676398 264.486291 L 168.108195 262.431524 L 171.535266 260.368714 L 174.962336 258.305903 L 178.389407 256.243093 L 181.816478 254.180283 L 185.243548 252.117472 L 188.670619 250.054662 L 192.097690 247.991852 L 195.524760 245.929041 L 198.932694 243.835671 L 202.284835 241.653207 L 205.636977 239.470744 L 208.989118 237.288280 L 212.341260 235.105817 L 215.693402 232.923354 L 219.045543 230.740890 L 222.397685 228.558427 L 225.749826 226.375963 L 229.101968 224.193500 L 232.454110 222.011036 L 235.806251 219.828573 L 239.158393 217.646109 L 242.510535 215.463646 L 245.862676 213.281183 L 249.214818 211.098719 L 252.566959 208.916256 L 255.919101 206.733792 L 259.271243 204.551329 L 262.623384 202.368865 L 265.975526 200.186402 L 269.327667 198.003939 L 272.679809 195.821475 L 276.031951 193.639012 L 279.384092 191.456548 L 282.736234 189.274085 L 286.088375 187.091621 L 289.440517 184.909158 L 292.792659 182.726695 L 296.144800 180.544231 L 299.496942 178.361768 L 302.849489 176.179929 L 306.206483 174.004937 L 309.563477 171.829944 L 312.920471 169.654952 L 316.277465 167.479960 L 319.634459 165.304967 L 322.991453 163.129975 L 326.348447 160.954983 L 329.705441 158.779990 L 333.062435 156.604998 L 336.419429 154.430006 L 339.776423 152.255014 L 343.133417 150.080021 L 346.490411 147.905029 L 349.847405 145.730037 L 353.204399 143.555044 L 356.561392 141.380052 L 359.918386 139.205060 L 363.275380 137.030067 L 366.632374 134.855075 L 369.989368 132.680083 L 373.346362 130.505090 L 376.703356 128.330098 L 380.060350 126.155106 L 383.417344 123.980113 L 386.774338 121.805121 L 390.131332 119.630129 L 393.488326 117.455136 L 396.845320 115.280144 L 400.202314 113.105152 L 403.559308 110.930159 L 406.916302 108.755167 L 410.273296 106.580175 L 413.633475 104.410148 L 417.010194 102.265908 L 420.386914 100.121668 L 423.763633 97.977428 L 427.140353 95.833188 L 430.517073 93.688948 L 433.893792 91.544709 L 437.275130 89.407793 L 440.665398 87.285039 L 444.055666 85.162285 L 447.445934 83.039531 L 450.836202 80.916778 L 454.226470 78.794024 L 457.616738 76.671270 L 461.007005 74.548516 L 464.397273 72.425763 L 467.787541 70.303009 L 471.177809 68.180255 L 474.568077 66.057501 L 477.958345 63.934748 L 481.348613 61.811994 L 484.738881 59.689240 L 488.129149 57.566486 L 491.519417 55.443733 L 494.909685 53.320979 L 498.299953 51.198225 L 501.690220 49.075471 L 505.080488 46.952718 L 508.470756 44.829964 L 511.861024 42.707210 L 515.251292 40.584456 L 518.641560 38.461703 L 522.031828 36.338949 L 525.422096 34.216195 L 528.812364 32.093441 L 532.202632 29.970688 L 535.592900 27.847934 L 538.983168 25.725180 L 539.682006 25.287615" fill="none" id="13" stroke="black" stroke-width="0.70805" /><path d="M 35.662476 341.932145 L 33.393892 338.637676 L 32.435716 337.535419 L 34.548432 340.931952 L 36.661147 344.328484 L 38.773862 347.725017 L 41.033727 351.020754 L 43.437573 354.217866 L 45.841419 357.414978 L 48.245265 360.612089 L 50.649111 363.809201 L 53.052957 367.006313 L 55.456804 370.203425 L 57.860650 373.400537 L 60.264496 376.597648 L 62.668342 379.794760 L 65.072188 382.991872 L 67.476034 386.188984 L 69.879880 389.386096 L 72.283726 392.583207 L 74.687572 395.780319 L 77.091419 398.977431 L 79.495265 402.174543 L 81.899111 405.371655 L 84.302957 408.568766 L 86.706803 411.765878 L 89.110649 414.962990 L 91.514495 418.160102 L 93.918341 421.357214 L 96.463118 424.441711 L 99.051142 427.491651 L 101.639166 430.541591 L 104.227189 433.591531 L 106.815213 436.641471 L 109.403237 439.691411 L 111.986526 442.745324 L 114.541593 445.822926 L 117.096660 448.900528 L 119.651726 451.978130 L 122.206793 455.055732 L 124.761860 458.133334 L 127.316927 461.210936 L 129.871993 464.288538 L 132.427060 467.366140 L 134.982127 470.443742 L 137.537193 473.521344 L 140.092260 476.598946 L 142.647327 479.676548 L 145.202393 482.754150 L 147.757460 485.831752 L 150.312527 488.909354 L 152.867594 491.986956 L 155.422660 495.064558 L 157.977727 498.142160 L 160.532794 501.219762 L 163.087860 504.297364 L 165.642927 507.374966 L 168.197994 510.452568 L 170.753061 513.530170 L 173.308127 516.607772 L 175.863194 519.685374 L 178.418261 522.762976 L 180.973327 525.840578 L 183.528394 528.918180 L 186.083461 531.995782 L 188.638527 535.073384 L 191.193594 538.150986 L 193.748661 541.228588 L 196.303728 544.306190 L 198.858794 547.383792 L 201.413861 550.461394 L 203.968928 553.538996 L 206.523994 556.616598 L 209.079061 559.694200 L 210.541386 561.455585" fill="none" id="14" stroke="black" stroke-width="0.70805" /><path d="M 4.705446 213.791525 L 7.315539 216.822600 L 9.850317 219.915203 L 12.299818 223.077472 L 14.749320 226.239740 L 17.198821 229.402009 L 19.648322 232.564278 L 22.097824 235.726546 L 24.547325 238.888815 L 27.049849 242.008694 L 29.595280 245.094270 L 32.140711 248.179846 L 34.686142 251.265422 L 37.276657 254.312679 L 39.911739 257.322055 L 42.546822 260.331430 L 45.181904 263.340806 L 47.816986 266.350181 L 50.452069 269.359557 L 53.087151 272.368932 L 55.722233 275.378308 L 58.357315 278.387684 L 60.992398 281.397059 L 63.627480 284.406435 L 66.262562 287.415810 L 69.014605 290.317550 L 71.795203 293.193010 L 74.575802 296.068471 L 77.356400 298.943931 L 80.136999 301.819391 L 82.917597 304.694852 L 85.698196 307.570312 L 88.478794 310.445773 L 91.259392 313.321233 L 94.039991 316.196693 L 96.820589 319.072154 L 99.601188 321.947614 L 102.381786 324.823074 L 105.162385 327.698535 L 107.942983 330.573995 L 110.723581 333.449456 L 113.504180 336.324916 L 116.284778 339.200376 L 119.065377 342.075837 L 121.845975 344.951297 L 124.626574 347.826757 L 127.407172 350.702218 L 130.187770 353.577678 L 132.968369 356.453139 L 135.748967 359.328599 L 138.529566 362.204059 L 141.310164 365.079520 L 144.090763 367.954980 L 146.871361 370.830440 L 149.651959 373.705901 L 152.432558 376.581361 L 155.213156 379.456822 L 157.993755 382.332282 L 160.774353 385.207742 L 163.554952 388.083203 L 166.335550 390.958663 L 169.116148 393.834123 L 171.896747 396.709584 L 174.677345 399.585044 L 177.457944 402.460505 L 180.238542 405.335965 L 183.019141 408.211425 L 185.799739 411.086886 L 188.580337 413.962346 L 191.360936 416.837806 L 194.141534 419.713267 L 196.922133 422.588727 L 199.702731 425.464188 L 202.483330 428.339648 L 205.263928 431.215108 L 208.044526 434.090569 L 210.647796 437.126055 L 213.223690 440.186247 L 215.799583 443.246438 L 218.375477 446.306630 L 220.951371 449.366821 L 223.527264 452.427013 L 226.103158 455.487204 L 228.679052 458.547396 L 231.254945 461.607587 L 233.830839 464.667778 L 236.406733 467.727970 L 238.982627 470.788161 L 239.435916 471.326675" fill="none" id="15" stroke="black" stroke-width="0.70805" /><path d="M 194.111696 558.170425 L 194.655142 557.868368 L 195.262521 558.072043 L 194.797683 554.178327 L 193.483908 550.400233 L 192.170132 546.622139 L 190.856356 542.844045 L 189.542580 539.065951 L 188.228804 535.287858 L 186.915028 531.509764 L 185.540234 527.753964 L 184.108970 524.018795 L 182.677707 520.283626 L 181.192480 516.569618 L 179.703318 512.857153 L 178.214157 509.144688 L 176.724995 505.432223 L 175.235834 501.719757 L 173.746672 498.007292 L 172.257511 494.294827 L 170.768349 490.582362 L 169.279188 486.869897 L 167.790026 483.157431 L 166.300865 479.444966 L 164.811703 475.732501 L 163.322541 472.020036 L 161.833380 468.307571 L 160.344218 464.595105 L 158.855057 460.882640 L 157.365895 457.170175 L 155.876734 453.457710 L 154.387572 449.745244 L 152.898411 446.032779 L 151.409249 442.320314 L 149.920088 438.607849 L 148.430926 434.895384 L 146.941765 431.182918 L 145.452603 427.470453 L 143.963441 423.757988 L 142.445969 420.057049 L 140.918424 416.360212 L 139.390879 412.663375 L 137.863334 408.966538 L 136.335789 405.269700 L 134.808244 401.572863 L 133.293717 397.870694 L 131.789445 394.164326 L 130.285174 390.457957 L 128.780903 386.751589 L 127.276631 383.045220 L 125.772360 379.338852 L 124.268089 375.632483 L 122.763817 371.926115 L 121.259546 368.219746 L 119.755275 364.513378 L 118.251003 360.807009 L 116.746732 357.100641 L 115.242461 353.394272 L 113.738189 349.687904 L 112.233918 345.981535 L 110.729646 342.275167 L 109.225375 338.568798 L 107.721104 334.862429 L 106.216832 331.156061 L 104.712561 327.449692 L 103.208290 323.743324 L 101.704018 320.036955 L 100.199747 316.330587 L 98.695476 312.624218 L 97.191204 308.917850 L 95.686933 305.211481 L 94.182662 301.505113 L 92.678390 297.798744 L 91.174119 294.092376 L 89.669847 290.386007 L 88.165576 286.679639 L 86.661305 282.973270 L 85.157033 279.266902 L 83.652762 275.560533 L 82.148491 271.854164 L 80.644219 268.147796 L 79.139948 264.441427 L 77.635677 260.735059 L 76.131405 257.028690 L 74.627134 253.322322 L 73.122862 249.615953 L 71.618591 245.909585 L 70.114320 242.203216 L 68.610048 238.496848 L 67.167519 234.767727 L 65.907069 230.971510 L 64.646619 227.175293 L 63.386169 223.379075 L 62.125719 219.582858 L 60.865269 215.786641 L 59.604819 211.990423 L 58.344369 208.194206 L 57.083919 204.397989 L 55.823469 200.601771 L 54.563019 196.805554 L 53.302569 193.009337 L 52.042119 189.213120 L 50.781669 185.416902 L 49.521219 181.620685 L 48.260769 177.824468 L 47.000319 174.028250 L 45.739869 170.232033 L 44.479419 166.435816 L 43.218969 162.639598 L 41.958519 158.843381 L 40.698069 155.047164 L 39.437619 151.250946 L 38.177169 147.454729 L 36.916719 143.658512 L 35.656269 139.862295 L 34.395819 136.066077 L 33.135369 132.269860 L 31.874919 128.473643 L 30.614469 124.677425 L 29.354019 120.881208 L 28.093569 117.084991 L 26.833119 113.288773 L 25.572669 109.492556 L 24.312219 105.696339 L 23.051769 101.900122 L 21.791319 98.103904 L 20.530869 94.307687 L 20.459356 94.092305" fill="none" id="16" stroke="black" stroke-width="0.70805" /><path d="M 10.764036 117.412615 L 13.933246 119.853129 L 17.102456 122.293643 L 20.271666 124.734157 L 23.440876 127.174671 L 26.610086 129.615184 L 29.779296 132.055698 L 32.948506 134.496212 L 36.117716 136.936726 L 39.286926 139.377240 L 42.456136 141.817754 L 45.625346 144.258268 L 48.794556 146.698782 L 51.963952 149.139052 L 55.149710 151.557926 L 58.335467 153.976800 L 61.521224 156.395674 L 64.706981 158.814549 L 67.892738 161.233423 L 71.078495 163.652297 L 74.264252 166.071171 L 77.450009 168.490045 L 80.635766 170.908919 L 83.821523 173.327793 L 87.007280 175.746667 L 90.193037 178.165541 L 93.378794 180.584416 L 96.564551 183.003290 L 99.750308 185.422164 L 102.936065 187.841038 L 106.121822 190.259912 L 109.307579 192.678786 L 112.493337 195.097660 L 115.679094 197.516534 L 118.864851 199.935408 L 122.050608 202.354283 L 125.236365 204.773157 L 128.422122 207.192031 L 131.607879 209.610905 L 134.793636 212.029779 L 137.979393 214.448653 L 141.165150 216.867527 L 144.350907 219.286401 L 147.536664 221.705276 L 150.722421 224.124150 L 153.908178 226.543024 L 157.093935 228.961898 L 160.279692 231.380772 L 163.465449 233.799646 L 166.651206 236.218520 L 169.836964 238.637394 L 173.022721 241.056268 L 176.208478 243.475143 L 179.394235 245.894017 L 182.579992 248.312891 L 185.765749 250.731765 L 188.951506 253.150639 L 192.137263 255.569513 L 195.323020 257.988387 L 198.508777 260.407261 L 201.694534 262.826135 L 204.880291 265.245010 L 205.291386 265.557145" fill="none" id="17" stroke="black" stroke-width="0.70805" /><path d="M 13.373416 121.248555 L 14.853918 124.964482 L 16.456761 128.629131 L 18.068240 132.290161 L 19.363756 136.073529 L 20.637911 139.865168 L 21.912067 143.656808 L 23.186222 147.448447 L 24.460377 151.240086 L 25.734533 155.031725 L 27.008688 158.823364 L 28.282843 162.615004 L 29.556999 166.406643 L 30.831154 170.198282 L 32.073179 174.000205 L 33.237438 177.827019 L 34.401696 181.653832 L 35.604263 185.468567 L 36.845518 189.271104 L 38.086772 193.073641 L 39.328027 196.876178 L 40.569281 200.678715 L 41.810536 204.481252 L 43.051790 208.283789 L 44.293045 212.086326 L 45.534299 215.888863 L 46.775554 219.691400 L 48.016808 223.493937 L 49.258063 227.296474 L 50.499317 231.099011 L 51.740572 234.901548 L 52.221076 236.373555" fill="none" id="18" stroke="black" stroke-width="0.70805" /><path d="M 4.353886 125.271995 L 0.354025 125.305290 L 3.503228 123.845265 L 7.236278 122.408484 L 10.969328 120.971703 L 14.702378 119.534923 L 18.435428 118.098142 L 22.168478 116.661361 L 25.901528 115.224581 L 29.634577 113.787800 L 33.340053 112.282033 L 37.034940 110.749776 L 40.729827 109.217520 L 44.424714 107.685264 L 48.119601 106.153008 L 51.814488 104.620751 L 55.509375 103.088495 L 59.204262 101.556239 L 62.899149 100.023982 L 66.594037 98.491726 L 70.288924 96.959470 L 73.983811 95.427214 L 77.678698 93.894957 L 81.373585 92.362701 L 85.068472 90.830445 L 88.763359 89.298189 L 92.458246 87.765932 L 96.153133 86.233676 L 99.848020 84.701420 L 103.530257 83.139170 L 107.206370 81.562404 L 110.882483 79.985637 L 114.558596 78.408870 L 118.234709 76.832104 L 121.918757 75.274109 L 125.611192 73.735951 L 129.303626 72.197793 L 132.996060 70.659635 L 136.688494 69.121477 L 140.380928 67.583319 L 144.073362 66.045161 L 147.765796 64.507003 L 151.458230 62.968845 L 155.150665 61.430687 L 158.843099 59.892529 L 162.535533 58.354371 L 166.227967 56.816212 L 169.920401 55.278054 L 173.612835 53.739896 L 177.305269 52.201738 L 180.997703 50.663580 L 184.690138 49.125422 L 188.382572 47.587264 L 192.075006 46.049106 L 195.767440 44.510948 L 199.459874 42.972790 L 203.152308 41.434632 L 206.844742 39.896474 L 210.537176 38.358316 L 214.229610 36.820157 L 217.922045 35.281999 L 221.614479 33.743841 L 225.310336 32.214077 L 229.025248 30.731028 L 232.740159 29.247979 L 236.455070 27.764930 L 240.169981 26.281881 L 243.884893 24.798832 L 247.599804 23.315783 L 251.314715 21.832734 L 255.029627 20.349685 L 258.744538 18.866636 L 262.459449 17.383587 L 263.560916 16.943865" fill="none" id="19" stroke="black" stroke-width="0.70805" /><path d="M 209.123416 21.326675 L 213.112638 21.620119 L 217.088311 21.960660 L 220.623616 23.831921 L 224.158921 25.703183 L 227.694226 27.574444 L 231.229531 29.445706 L 234.764835 31.316967 L 238.300140 33.188229 L 241.835445 35.059490 L 245.370750 36.930752 L 248.906055 38.802013 L 252.419611 40.713583 L 255.924604 42.641022 L 259.429598 44.568460 L 262.934592 46.495898 L 266.439586 48.423337 L 269.944580 50.350775 L 273.449573 52.278213 L 276.954567 54.205652 L 280.459561 56.133090 L 283.964555 58.060528 L 287.469548 59.987967 L 290.974542 61.915405 L 294.479536 63.842843 L 297.984530 65.770282 L 301.489524 67.697720 L 304.994517 69.625159 L 308.499511 71.552597 L 312.004505 73.480035 L 315.509499 75.407474 L 319.014492 77.334912 L 322.519486 79.262350 L 326.024480 81.189789 L 329.529474 83.117227 L 333.034468 85.044665 L 336.539461 86.972104 L 340.044455 88.899542 L 343.549449 90.826980 L 347.054443 92.754419 L 350.559436 94.681857 L 354.064430 96.609296 L 357.569424 98.536734 L 361.074418 100.464172 L 364.579412 102.391611 L 368.084405 104.319049 L 371.589399 106.246487 L 375.094393 108.173926 L 378.584016 110.128886 L 382.063414 112.102155 L 385.542812 114.075423 L 389.022211 116.048691 L 392.501609 118.021959 L 395.981008 119.995227 L 399.460406 121.968495 L 402.939804 123.941763 L 406.419203 125.915031 L 409.898601 127.888299 L 413.378000 129.861567 L 416.857398 131.834835 L 420.336796 133.808103 L 423.816195 135.781371 L 427.295593 137.754640 L 429.709356 139.123555" fill="none" id="20" stroke="black" stroke-width="0.70805" /><path d="M 163.510136 246.068865 L 164.751284 245.840924 L 168.534819 247.138944 L 172.318355 248.436965 L 176.101891 249.734986 L 179.885426 251.033007 L 183.668962 252.331028 L 187.470520 253.572197 L 191.310870 254.690995 L 195.151221 255.809792 L 198.991572 256.928589 L 202.831922 258.047386 L 206.672273 259.166183 L 210.512623 260.284980 L 214.352974 261.403777 L 218.193325 262.522574 L 222.033675 263.641372 L 225.874026 264.760169 L 229.714377 265.878966 L 233.554727 266.997763 L 237.377908 268.172301 L 241.182154 269.408308 L 244.986399 270.644315 L 248.790645 271.880322 L 252.594891 273.116329 L 256.399137 274.352336 L 260.203383 275.588343 L 264.007629 276.824350 L 267.811875 278.060357 L 271.616121 279.296364 L 275.420367 280.532371 L 279.224613 281.768378 L 283.028858 283.004385 L 286.833104 284.240391 L 290.637350 285.476398 L 294.441596 286.712405 L 298.245842 287.948412 L 302.050088 289.184419 L 305.860360 290.400491 L 309.712274 291.478804 L 313.564188 292.557116 L 317.416102 293.635429 L 321.268016 294.713741 L 325.119930 295.792054 L 328.971844 296.870366 L 332.823758 297.948679 L 336.675672 299.026992 L 340.527586 300.105304 L 344.379501 301.183617 L 348.231415 302.261929 L 352.083329 303.340242 L 355.935243 304.418555 L 359.787157 305.496867 L 363.639071 306.575180 L 367.490985 307.653492 L 371.342899 308.731805 L 375.194813 309.810118 L 379.046727 310.888430 L 382.898641 311.966743 L 386.740121 313.081561 L 390.580079 314.201705 L 394.420037 315.321850 L 395.307006 315.580585" fill="none" id="21" stroke="black" stroke-width="0.70805" /><path d="M 195.982786 413.021995 L 198.136863 409.651542 L 200.290940 406.281089 L 202.445017 402.910636 L 204.599094 399.540184 L 206.753171 396.169731 L 208.907248 392.799278 L 211.061325 389.428825 L 213.215402 386.058372 L 215.369479 382.687919 L 217.523556 379.317467 L 219.677633 375.947014 L 221.831710 372.576561 L 223.985787 369.206108 L 226.139864 365.835655 L 228.293941 362.465202 L 230.448018 359.094750 L 232.602095 355.724297 L 234.756172 352.353844 L 236.910249 348.983391 L 239.064326 345.612938 L 241.218403 342.242485 L 243.431560 338.910571 L 245.648078 335.580849 L 247.864597 332.251128 L 250.081115 328.921406 L 252.297633 325.591684 L 254.514151 322.261962 L 256.730670 318.932241 L 258.947188 315.602519 L 261.163706 312.272797 L 263.380224 308.943075 L 265.596743 305.613354 L 267.813261 302.283632 L 270.029779 298.953910 L 272.246297 295.624188 L 274.462816 292.294467 L 276.679334 288.964745 L 278.895852 285.635023 L 281.112370 282.305301 L 283.328889 278.975580 L 285.545407 275.645858 L 287.761925 272.316136 L 289.978443 268.986414 L 292.194961 265.656693 L 294.411480 262.326971 L 296.627998 258.997249 L 298.844516 255.667528 L 301.099563 252.363825 L 303.360156 249.063867 L 305.620749 245.763910 L 307.881342 242.463952 L 310.141935 239.163995 L 312.402528 235.864037 L 314.663121 232.564080 L 316.923714 229.264122 L 319.184307 225.964165 L 321.444900 222.664207 L 323.705493 219.364250 L 325.968654 216.066060 L 328.242796 212.775425 L 330.516938 209.484790 L 332.791080 206.194155 L 335.065222 202.903519 L 337.339363 199.612884 L 339.613505 196.322249 L 341.887647 193.031614 L 344.161789 189.740979 L 346.435931 186.450344 L 348.710073 183.159709 L 350.984214 179.869074 L 353.258356 176.578439 L 355.532498 173.287804 L 357.806640 169.997169 L 360.080782 166.706534 L 362.354923 163.415899 L 364.629065 160.125264 L 366.903207 156.834629 L 369.177349 153.543994 L 371.451491 150.253359 L 373.725632 146.962724 L 375.999774 143.672089 L 378.273916 140.381454 L 380.548058 137.090819 L 382.822200 133.800184 L 385.096342 130.509548 L 387.370483 127.218913 L 389.644625 123.928278 L 391.918767 120.637643 L 394.192909 117.347008 L 396.467051 114.056373 L 398.741192 110.765738 L 399.689826 109.393085" fill="none" id="22" stroke="black" stroke-width="0.70805" /><path d="M 159.740606 366.572775 L 160.805489 365.428354 L 164.065951 363.111159 L 167.326412 360.793964 L 170.586873 358.476770 L 173.876883 356.202244 L 177.192853 353.965204 L 180.508822 351.728164 L 183.824791 349.491124 L 187.140761 347.254085 L 190.456730 345.017045 L 193.772700 342.780005 L 197.088669 340.542965 L 200.404638 338.305926 L 203.720608 336.068886 L 207.036577 333.831846 L 210.358846 331.604301 L 213.708735 329.418381 L 217.058624 327.232462 L 220.408513 325.046543 L 223.758403 322.860623 L 227.108292 320.674704 L 230.458181 318.488785 L 233.808070 316.302865 L 237.157959 314.116946 L 240.507848 311.931027 L 243.857737 309.745107 L 247.207626 307.559188 L 250.557515 305.373269 L 253.907404 303.187349 L 257.257293 301.001430 L 260.607182 298.815511 L 263.957071 296.629591 L 267.306960 294.443672 L 270.660078 292.262838 L 274.063662 290.161503 L 277.467247 288.060167 L 280.870832 285.958832 L 284.274417 283.857496 L 287.678002 281.756161 L 291.081587 279.654826 L 294.485171 277.553490 L 297.888756 275.452155 L 301.293026 273.351942 L 304.718503 271.286486 L 308.143980 269.221031 L 311.569457 267.155575 L 314.994934 265.090120 L 318.420411 263.024664 L 321.845889 260.959209 L 325.271366 258.893753 L 328.696843 256.828298 L 332.122320 254.762842 L 335.547797 252.697387 L 338.973274 250.631932 L 342.398751 248.566476 L 345.824229 246.501021 L 349.249706 244.435565 L 352.675183 242.370110 L 356.100660 240.304654 L 359.526137 238.239199 L 362.951614 236.173743 L 366.377092 234.108288 L 369.802569 232.042832 L 373.228046 229.977377 L 376.653523 227.911922 L 380.079000 225.846466 L 383.504477 223.781011 L 386.929955 221.715555 L 390.355432 219.650100 L 393.780909 217.584644 L 397.206386 215.519189 L 400.616888 213.429101 L 404.027239 211.338764 L 407.437590 209.248428 L 410.847941 207.158091 L 414.258292 205.067755 L 417.668643 202.977418 L 421.078993 200.887082 L 424.489344 198.796745 L 425.619506 198.104025" fill="none" id="23" stroke="black" stroke-width="0.70805" /><path d="M 281.857786 370.182145 L 281.506739 366.319692 L 281.394990 362.321253 L 281.218332 358.325282 L 281.026146 354.329902 L 280.833959 350.334521 L 280.641773 346.339141 L 280.449586 342.343761 L 280.257400 338.348380 L 280.098388 334.351714 L 279.980733 330.353445 L 279.914326 326.354300 L 279.895324 322.354345 L 279.876322 318.354390 L 279.857320 314.354435 L 279.838318 310.354480 L 279.819316 306.354525 L 279.800314 302.354571 L 279.781312 298.354616 L 279.762310 294.354661 L 279.743308 290.354706 L 279.724306 286.354751 L 279.705304 282.354796 L 279.686302 278.354841 L 279.667300 274.354887 L 279.648298 270.354932 L 279.670751 266.355479 L 279.786616 262.357157 L 279.902481 258.358836 L 280.018347 254.360514 L 280.148545 250.362811 L 280.377343 246.369360 L 280.606142 242.375909 L 280.834940 238.382458 L 281.063739 234.389007 L 281.292537 230.395556 L 281.521336 226.402104 L 281.750134 222.408653 L 281.978933 218.415202 L 282.207731 214.421751 L 282.436530 210.428300 L 282.665328 206.434849 L 282.894127 202.441398 L 283.122925 198.447947 L 283.351724 194.454496 L 283.580522 190.461045 L 283.809321 186.467594 L 284.038119 182.474143 L 284.266918 178.480692 L 284.495716 174.487241 L 284.724515 170.493790 L 284.953313 166.500339 L 285.182112 162.506888 L 285.410910 158.513437 L 285.639709 154.519986 L 285.868507 150.526535 L 286.097306 146.533084 L 286.326104 142.539633 L 286.554903 138.546181 L 286.783701 134.552730 L 287.105145 130.565685 L 287.428143 126.578748 L 287.751141 122.591810 L 288.074140 118.604872 L 288.397138 114.617935 L 288.720136 110.630997 L 289.043135 106.644059 L 289.366133 102.657121 L 289.689131 98.670184 L 289.846076 96.732925" fill="none" id="24" stroke="black" stroke-width="0.70805" /><path d="M 184.932006 353.752465 L 186.837122 350.263301 L 188.856171 346.810267 L 190.944068 343.399153 L 193.084794 340.020204 L 195.225520 336.641256 L 197.366246 333.262308 L 199.506972 329.883359 L 201.647698 326.504411 L 203.788424 323.125462 L 205.929150 319.746514 L 208.069876 316.367566 L 210.210602 312.988617 L 212.351328 309.609669 L 214.487243 306.227740 L 216.559253 302.806223 L 218.631262 299.384707 L 220.703272 295.963190 L 222.775282 292.541674 L 224.847292 289.120157 L 226.919301 285.698641 L 228.991311 282.277124 L 231.063321 278.855607 L 233.135331 275.434091 L 235.207340 272.012574 L 237.279350 268.591058 L 239.351360 265.169541 L 241.423370 261.748025 L 243.495379 258.326508 L 245.567389 254.904992 L 247.639399 251.483475 L 249.711409 248.061958 L 251.783419 244.640442 L 253.855428 241.218925 L 255.927438 237.797409 L 257.999448 234.375892 L 260.071458 230.954376 L 262.143467 227.532859 L 264.215477 224.111343 L 266.287487 220.689826 L 268.359497 217.268309 L 270.431506 213.846793 L 272.503516 210.425276 L 274.575526 207.003760 L 276.647536 203.582243 L 278.719545 200.160727 L 280.791555 196.739210 L 282.863565 193.317694 L 284.935575 189.896177 L 287.007584 186.474660 L 289.079594 183.053144 L 291.151604 179.631627 L 293.223614 176.210111 L 295.333823 172.812518 L 297.507609 169.454743 L 299.681395 166.096968 L 301.855182 162.739193 L 304.028968 159.381418 L 306.202754 156.023643 L 308.376540 152.665868 L 308.947636 151.783715" fill="none" id="25" stroke="black" stroke-width="0.70805" /><path d="M 284.498416 187.635275 L 288.031809 189.510145 L 291.565201 191.385015 L 295.098594 193.259885 L 298.631986 195.134755 L 302.165379 197.009625 L 305.698771 198.884495 L 309.232164 200.759365 L 312.765556 202.634235 L 316.298949 204.509105 L 319.796358 206.449803 L 323.282128 208.411793 L 326.767899 210.373783 L 330.253669 212.335773 L 333.739439 214.297763 L 337.225210 216.259753 L 340.710980 218.221743 L 344.238194 220.107336 L 347.783538 221.959505 L 351.328883 223.811675 L 354.874228 225.663844 L 358.419572 227.516013 L 361.964917 229.368182 L 365.510262 231.220352 L 369.055607 233.072521 L 372.600951 234.924690 L 376.146296 236.776859 L 379.691641 238.629029 L 383.236985 240.481198 L 386.782330 242.333367 L 390.327675 244.185537 L 393.873019 246.037706 L 397.418364 247.889875 L 400.963709 249.742044 L 402.135136 250.354025" fill="none" id="26" stroke="black" stroke-width="0.70805" /><path d="M 101.502326 49.834495 L 104.587892 52.379939 L 107.673458 54.925382 L 110.759024 57.470826 L 113.844590 60.016269 L 116.930156 62.561713 L 120.015722 65.107156 L 123.101288 67.652600 L 126.234889 70.138327 L 129.382429 72.606726 L 132.529968 75.075125 L 135.677508 77.543524 L 138.950317 79.837882 L 142.290261 82.038967 L 145.630204 84.240053 L 148.970148 86.441139 L 152.310091 88.642224 L 155.650034 90.843310 L 158.989978 93.044396 L 162.329921 95.245481 L 165.669865 97.446567 L 169.009808 99.647653 L 172.349751 101.848739 L 175.689695 104.049824 L 179.029638 106.250910 L 182.369581 108.451996 L 185.709525 110.653081 L 189.049468 112.854167 L 192.389412 115.055253 L 195.729355 117.256338 L 199.069298 119.457424 L 202.409242 121.658510 L 205.749185 123.859595 L 209.089129 126.060681 L 212.429072 128.261767 L 215.769015 130.462852 L 219.108959 132.663938 L 222.448902 134.865024 L 225.788845 137.066109 L 229.128789 139.267195 L 232.468732 141.468281 L 235.808676 143.669367 L 239.148619 145.870452 L 242.488562 148.071538 L 245.828506 150.272624 L 249.168449 152.473709 L 252.508393 154.674795 L 255.848336 156.875881 L 259.188279 159.076966 L 262.528223 161.278052 L 265.868166 163.479138 L 269.208109 165.680223 L 272.548053 167.881309 L 275.887996 170.082395 L 279.227940 172.283480 L 282.567883 174.484566 L 285.907826 176.685652 L 289.247770 178.886737 L 292.587713 181.087823 L 295.927657 183.288909 L 299.267600 185.489995 L 302.656331 187.615029 L 306.049419 189.733272 L 309.442507 191.851515 L 312.835595 193.969758 L 316.228683 196.088001 L 319.621771 198.206245 L 323.014859 200.324488 L 326.407947 202.442731 L 327.404666 203.064965" fill="none" id="27" stroke="black" stroke-width="0.70805" /><path d="M 12.404666 177.490745 L 15.262920 180.289028 L 18.121174 183.087310 L 20.979427 185.885593 L 23.948650 188.564120 L 26.956205 191.201281 L 29.963759 193.838441 L 32.971314 196.475602 L 35.978869 199.112762 L 38.986423 201.749923 L 41.993978 204.387083 L 45.001532 207.024244 L 48.009087 209.661405 L 51.016641 212.298565 L 54.024196 214.935726 L 57.031750 217.572886 L 60.039305 220.210047 L 63.046859 222.847207 L 66.054414 225.484368 L 69.061968 228.121528 L 72.069523 230.758689 L 75.077077 233.395849 L 78.084632 236.033010 L 81.092186 238.670171 L 84.099741 241.307331 L 87.107295 243.944492 L 90.115420 246.580999 L 93.134902 249.204495 L 96.154384 251.827990 L 99.173866 254.451486 L 102.193348 257.074981 L 105.212830 259.698477 L 108.232312 262.321972 L 111.286394 264.904776 L 114.361152 267.463265 L 117.435909 270.021755 L 120.510666 272.580244 L 123.585423 275.138734 L 126.660180 277.697223 L 129.734938 280.255712 L 132.809695 282.814202 L 135.884452 285.372691 L 138.959209 287.931181 L 142.033967 290.489670 L 145.108724 293.048159 L 148.183481 295.606649 L 151.258238 298.165138 L 154.332995 300.723628 L 157.407753 303.282117 L 160.482510 305.840606 L 163.557267 308.399096 L 166.632024 310.957585 L 169.706782 313.516075 L 172.781539 316.074564 L 175.856296 318.633053 L 178.931053 321.191543 L 182.005810 323.750032 L 185.080568 326.308522 L 188.155325 328.867011 L 191.230082 331.425500 L 194.304839 333.983990 L 197.379597 336.542479 L 200.454354 339.100969 L 203.529111 341.659458 L 206.603868 344.217947 L 209.707024 346.741489 L 212.840432 349.227803 L 215.973840 351.714116 L 215.982786 351.721215" fill="none" id="28" stroke="black" stroke-width="0.70805" /><path d="M 5.994506 178.197775 L 8.679163 181.152235 L 11.637175 183.844847 L 14.595188 186.537459 L 17.696682 189.062148 L 20.817828 191.563837 L 23.938974 194.065526 L 27.060120 196.567214 L 30.181266 199.068903 L 33.302412 201.570592 L 36.423558 204.072281 L 39.544705 206.573970 L 42.665851 209.075658 L 45.786997 211.577347 L 48.908143 214.079036 L 52.029289 216.580725 L 55.150435 219.082413 L 58.271582 221.584102 L 61.392728 224.085791 L 64.513874 226.587480 L 67.635020 229.089169 L 70.756166 231.590857 L 73.877312 234.092546 L 76.998458 236.594235 L 80.119605 239.095924 L 83.240751 241.597612 L 86.361897 244.099301 L 89.483043 246.600990 L 92.604189 249.102679 L 95.725335 251.604368 L 98.846481 254.106056 L 101.967628 256.607745 L 105.088774 259.109434 L 108.207565 261.614028 L 111.300684 264.150287 L 114.393803 266.686547 L 117.486923 269.222806 L 120.580042 271.759066 L 123.673162 274.295326 L 126.766281 276.831585 L 129.849960 279.379298 L 132.929997 281.931428 L 136.010034 284.483559 L 139.090072 287.035689 L 142.170109 289.587820 L 145.250146 292.139951 L 148.330183 294.692081 L 151.410220 297.244212 L 154.490258 299.796343 L 157.570295 302.348473 L 160.650332 304.900604 L 163.730369 307.452734 L 166.810407 310.004865 L 169.890444 312.556996 L 172.970481 315.109126 L 176.050518 317.661257 L 179.130556 320.213387 L 182.210593 322.765518 L 185.290630 325.317649 L 188.370667 327.869779 L 191.450704 330.421910 L 194.530742 332.974041 L 197.385156 335.740974 L 199.782966 338.942615 L 202.068726 341.994645" fill="none" id="29" stroke="black" stroke-width="0.70805" /><path d="M 26.998416 205.447775 L 29.280010 202.191128 L 31.696989 199.003932 L 34.113967 195.816737 L 36.530946 192.629542 L 38.947925 189.442347 L 41.311142 186.215913 L 43.609666 182.942263 L 45.868542 179.641360 L 48.101330 176.322526 L 50.334118 173.003693 L 52.566906 169.684859 L 54.799694 166.366025 L 57.032482 163.047191 L 59.265270 159.728357 L 61.498058 156.409523 L 63.730845 153.090689 L 65.963633 149.771855 L 68.196421 146.453022 L 70.429209 143.134188 L 72.661997 139.815354 L 74.894785 136.496520 L 77.127573 133.177686 L 79.360361 129.858852 L 81.593149 126.540018 L 83.833012 123.226013 L 86.109361 119.936904 L 88.385710 116.647796 L 90.662059 113.358687 L 92.938408 110.069578 L 95.214756 106.780470 L 97.491105 103.491361 L 99.767454 100.202252 L 102.043803 96.913143 L 104.320152 93.624035 L 106.596501 90.334926 L 108.872850 87.045817 L 111.149199 83.756709 L 113.425547 80.467600 L 115.701896 77.178491 L 117.978245 73.889383 L 120.254594 70.600274 L 122.530943 67.311165 L 122.990606 66.646995" fill="none" id="30" stroke="black" stroke-width="0.70805" /><path d="M 195.947636 104.205585 L 199.329207 106.342166 L 202.710779 108.478746 L 206.089582 110.619648 L 209.444551 112.797763 L 212.799519 114.975879 L 216.154487 117.153995 L 219.509455 119.332111 L 222.864423 121.510227 L 226.219391 123.688343 L 229.574359 125.866459 L 232.929327 128.044575 L 236.284296 130.222691 L 239.639264 132.400807 L 242.994232 134.578922 L 246.349200 136.757038 L 249.664927 138.992815 L 252.922112 141.314614 L 256.179296 143.636412 L 259.436481 145.958210 L 262.693666 148.280008 L 265.950851 150.601806 L 269.182813 152.958541 L 272.411755 155.319460 L 275.640696 157.680378 L 278.869638 160.041297 L 282.098579 162.402215 L 285.327521 164.763134 L 288.531155 167.158246 L 291.732494 169.556460 L 294.933833 171.954674 L 298.135172 174.352887 L 301.336511 176.751101 L 304.537849 179.149315 L 307.696995 181.602242 L 310.830082 184.088960 L 313.963169 186.575678 L 317.096256 189.062396 L 320.229342 191.549114 L 323.362429 194.035833 L 326.495516 196.522551 L 329.628603 199.009269 L 332.761690 201.495987 L 335.894776 203.982705 L 339.027863 206.469423 L 342.160950 208.956141 L 345.294037 211.442860 L 348.427124 213.929578 L 351.560211 216.416296 L 354.693297 218.903014 L 357.826384 221.389732 L 360.959471 223.876450 L 364.092558 226.363168 L 367.225645 228.849886 L 370.358731 231.336605 L 373.491818 233.823323 L 376.624905 236.310041 L 379.757992 238.796759 L 382.891079 241.283477 L 386.024165 243.770195 L 386.932006 244.490745" fill="none" id="31" stroke="black" stroke-width="0.70805" /><path d="M 227.162476 0.354025 L 227.236364 4.353343 L 227.310251 8.352660 L 227.384138 12.351978 L 227.458025 16.351295 L 227.531912 20.350613 L 227.605799 24.349930 L 227.679686 28.349248 L 227.753574 32.348565 L 227.817583 36.348021 L 227.855788 40.347839 L 227.893993 44.347656 L 227.932197 48.347474 L 227.883086 52.347070 L 227.824559 56.346641 L 227.766031 60.346213 L 227.707504 64.345785 L 227.648976 68.345357 L 227.590449 72.344928 L 227.531921 76.344500 L 227.473394 80.344072 L 227.414866 84.343644 L 227.356339 88.343216 L 227.297811 92.342787 L 227.239284 96.342359 L 227.180756 100.341931 L 227.122229 104.341503 L 227.063701 108.341075 L 227.005174 112.340646 L 226.946646 116.340218 L 226.888119 120.339790 L 226.829591 124.339362 L 226.771064 128.338934 L 226.712536 132.338505 L 226.654009 136.338077 L 226.595481 140.337649 L 226.536954 144.337221 L 226.478426 148.336793 L 226.258081 152.327924 L 225.900205 156.311883 L 225.542329 160.295841 L 225.184453 164.279800 L 224.826577 168.263758 L 224.468701 172.247716 L 224.110825 176.231675 L 223.939826 178.135275" fill="none" id="32" stroke="black" stroke-width="0.70805" /><path d="M 175.205446 89.713395 L 178.714436 91.633549 L 182.223426 93.553702 L 185.732416 95.473856 L 189.225121 97.422848 L 192.681528 99.436117 L 196.137934 101.449386 L 199.594341 103.462655 L 202.945115 105.640912 L 206.220171 107.937433 L 209.495227 110.233954 L 212.770283 112.530475 L 216.045338 114.826996 L 219.320394 117.123518 L 222.595450 119.420039 L 225.870506 121.716560 L 229.145562 124.013081 L 232.420617 126.309602 L 235.695673 128.606124 L 238.970729 130.902645 L 242.245785 133.199166 L 245.520840 135.495687 L 248.724284 137.877767 L 251.561577 140.697299 L 253.252326 142.377465" fill="none" id="33" stroke="black" stroke-width="0.70805" /><path d="M 48.998416 311.072775 L 51.512684 314.183797 L 54.076413 317.251693 L 56.825873 320.156716 L 59.644017 322.995388 L 62.462162 325.834060 L 65.280307 328.672732 L 68.012440 331.593983 L 70.734022 334.525364 L 73.455603 337.456745 L 76.177185 340.388126 L 78.898766 343.319507 L 81.620347 346.250888 L 84.341929 349.182269 L 87.063510 352.113650 L 89.785092 355.045031 L 92.506673 357.976412 L 95.228254 360.907793 L 97.949836 363.839174 L 100.671417 366.770555 L 103.392999 369.701936 L 106.114580 372.633317 L 108.836162 375.564698 L 111.557743 378.496079 L 114.279324 381.427460 L 117.000906 384.358841 L 119.722487 387.290222 L 122.444069 390.221603 L 125.148627 393.168553 L 127.826088 396.140287 L 130.503549 399.112021 L 133.181010 402.083755 L 135.858471 405.055489 L 138.535931 408.027224 L 141.213392 410.998958 L 143.890853 413.970692 L 146.568314 416.942426 L 149.245775 419.914160 L 151.923235 422.885894 L 154.600696 425.857628 L 157.278157 428.829362 L 159.955618 431.801097 L 162.633078 434.772831 L 165.310539 437.744565 L 167.988000 440.716299 L 170.665461 443.688033 L 173.342922 446.659767 L 176.046996 449.605670 L 178.937504 452.370623 L 181.828012 455.135576 L 183.869506 457.088395" fill="none" id="34" stroke="black" stroke-width="0.70805" /><path d="M 39.236696 253.572775 L 42.216298 256.241478 L 45.195900 258.910180 L 48.065279 261.696077 L 50.911500 264.506599 L 53.757720 267.317120 L 56.603940 270.127641 L 59.450161 272.938162 L 62.296381 275.748684 L 65.142602 278.559205 L 67.988822 281.369726 L 70.835042 284.180247 L 73.681263 286.990769 L 76.527483 289.801290 L 79.373703 292.611811 L 82.219924 295.422332 L 85.066144 298.232853 L 87.912364 301.043375 L 90.758585 303.853896 L 93.604805 306.664417 L 96.451026 309.474938 L 99.297246 312.285460 L 102.143466 315.095981 L 104.989687 317.906502 L 107.831496 320.721358 L 110.591764 323.616340 L 113.352031 326.511322 L 116.112299 329.406304 L 118.872567 332.301286 L 121.632835 335.196268 L 124.384902 338.098999 L 127.118712 341.018979 L 129.852522 343.938959 L 132.586332 346.858939 L 135.320142 349.778919 L 138.053952 352.698898 L 140.787762 355.618878 L 143.521572 358.538858 L 146.255383 361.458838 L 148.989193 364.378818 L 151.723003 367.298798 L 154.456813 370.218778 L 157.190623 373.138757 L 159.924433 376.058737 L 162.658243 378.978717 L 165.392053 381.898697 L 168.125863 384.818677 L 170.859673 387.738657 L 173.593484 390.658637 L 176.327294 393.578616 L 179.061104 396.498596 L 181.794914 399.418576 L 184.528724 402.338556 L 187.262534 405.258536 L 187.896856 405.936055" fill="none" id="35" stroke="black" stroke-width="0.70805" /></svg>