<?xml version="1.0" encoding="utf-8" ?>
<svg baseProfile="full" height="928.5" version="1.1" viewBox="0,0,516.5,928.5" width="516.5" xmlns="http://www.w3.org/2000/svg" xmlns:ev="http://www.w3.org/2001/xml-events" xmlns:xlink="http://www.w3.org/1999/xlink"><defs><style type="text/css"><![CDATA[
	.background { fill: white; }
	.line { stroke: firebrick; stroke-width: .1mm; }
	.blacksquare { fill: indigo; }
	.whitesquare { fill: white; }
]]></style></defs><rect class="background" height="100%" width="100%" x="0" y="0" /><path d="M 0.250000 199.549000 L 4.908890 197.840000 L 9.561210 196.113000 L 14.199600 194.348000 L 18.827400 192.556000 L 23.457600 190.771000 L 28.087800 188.985000 L 32.718000 187.199000 L 37.352800 185.426000 L 41.997500 183.678000 L 46.643200 181.933000 L 51.288900 180.188000 L 55.931400 178.434000 L 60.561200 176.648000 L 65.188900 174.856000 L 69.816600 173.063000 L 74.443400 171.269000 L 79.057200 169.441000 L 83.660400 167.587000 L 88.261600 165.728000 L 92.862800 163.869000 L 97.464000 162.010000 L 102.065000 160.150000 L 106.666000 158.291000 L 111.268000 156.432000 L 115.869000 154.573000 L 120.470000 152.714000 L 125.071000 150.855000 L 129.655000 148.953000 L 134.228000 147.025000 L 138.797000 145.089000 L 143.345000 143.104000 L 147.876000 141.080000 L 152.404000 139.047000 L 156.931000 137.014000 L 161.458000 134.982000 L 165.985000 132.948000 L 170.503000 130.895000 L 175.007000 128.811000 L 179.504000 126.713000 L 184.008000 124.629000 L 188.536000 122.599000 L 193.082000 120.609000 L 197.632000 118.628000 L 202.354000 117.101000 L 207.072000 115.563000 L 211.580000 113.488000 L 216.086000 111.410000 L 220.593000 109.331000 L 225.099000 107.253000 L 229.605000 105.174000 L 234.133000 103.142000 L 238.703000 101.207000 L 243.291000 99.317300 L 247.880000 97.427800 L 252.420000 95.424600 L 256.865000 93.217800 L 261.304000 90.998600 L 265.907000 89.144500 L 270.679000 87.782400 L 275.229000 85.802100 L 279.779000 83.820900 L 284.329000 81.839700 L 288.879000 79.858400 L 293.429000 77.877200 L 297.979000 75.896000 L 302.517000 73.887200 L 307.014000 71.788500 L 311.504000 69.675500 L 315.997000 67.568900 L 320.519000 65.522900 L 325.106000 63.629100 L 329.694000 61.739500 L 334.302000 59.895700 L 338.977000 58.230600 L 343.496000 56.181400 L 348.015000 54.129600 L 352.534000 52.077800 L 357.052000 50.026000 L 361.571000 47.974200 L 366.090000 45.923200 L 370.614000 43.884500 L 375.158000 41.888800 L 379.704000 39.899700 L 384.251000 37.910600 L 388.772000 35.865000 L 393.412000 34.104900 L 398.096000 32.466100 L 402.801000 30.887800" fill="none" id="0" stroke="#c583d9" stroke-width="0.5" /><path d="M 225.951000 685.974000 L 227.786000 687.325000 L 229.676000 688.595000 L 231.612000 689.795000 L 233.640000 690.833000 L 235.715000 691.770000 L 237.828000 692.622000 L 239.941000 693.473000 L 242.055000 694.323000 L 244.170000 695.172000 L 246.287000 696.014000 L 248.406000 696.851000 L 250.529000 697.678000 L 252.654000 698.500000 L 254.780000 699.320000 L 256.905000 700.142000 L 259.026000 700.974000 L 261.144000 701.813000 L 263.255000 702.671000 L 265.363000 703.536000 L 267.469000 704.406000 L 269.575000 705.276000 L 271.681000 706.145000 L 273.787000 707.015000 L 275.895000 707.879000 L 278.007000 708.733000 L 280.130000 709.560000 L 282.265000 710.356000 L 284.407000 711.132000 L 286.564000 711.867000 L 288.727000 712.582000 L 290.896000 713.282000" fill="none" id="1" stroke="#f375a0" stroke-width="0.5" /><path d="M 414.990000 0.250000 L 414.665000 5.219730 L 414.309000 10.187340 L 413.917000 15.152200 L 413.465000 20.112000 L 412.942000 25.064800 L 412.464000 30.021800 L 412.058000 34.985600 L 411.686000 39.952000 L 411.314000 44.918500 L 410.946000 49.885200 L 410.586000 54.852600 L 410.273000 59.823100 L 409.968000 64.794100 L 409.667000 69.765400 L 409.381000 74.737600 L 409.152000 79.712600 L 408.943000 84.688600 L 408.741000 89.664900 L 408.540000 94.641200 L 408.362000 99.618400 L 408.204000 104.596000 L 408.064000 109.575000 L 407.926000 114.553000 L 407.789000 119.532000 L 407.652000 124.510000 L 407.514000 129.489000 L 407.377000 134.467000 L 407.245000 139.446000 L 407.126000 144.425000 L 407.015000 149.404000 L 406.905000 154.383000 L 406.795000 159.362000 L 406.685000 164.341000 L 406.576000 169.320000 L 406.466000 174.300000 L 406.356000 179.279000 L 406.246000 184.258000 L 406.137000 189.237000 L 406.027000 194.216000 L 405.917000 199.196000 L 405.808000 204.175000 L 405.698000 209.154000 L 405.588000 214.133000 L 405.479000 219.112000 L 405.369000 224.091000 L 405.259000 229.071000 L 405.149000 234.050000 L 405.040000 239.029000 L 404.930000 244.008000 L 404.820000 248.987000 L 404.711000 253.966000 L 404.589000 258.945000 L 404.450000 263.924000 L 404.290000 268.902000 L 404.115000 273.879000 L 403.940000 278.856000 L 403.764000 283.833000 L 403.589000 288.811000 L 403.413000 293.788000 L 403.258000 298.766000 L 403.136000 303.745000 L 403.099000 308.725000 L 403.085000 313.705000 L 403.136000 318.685000 L 403.355000 323.660000 L 403.520000 328.638000 L 403.571000 333.617000 L 403.503000 338.597000 L 403.434000 343.577000 L 403.366000 348.556000 L 403.298000 353.536000 L 403.230000 358.516000 L 403.159000 363.496000 L 403.078000 368.476000 L 402.987000 373.455000 L 402.881000 378.435000 L 402.774000 383.414000 L 402.665000 388.393000 L 402.557000 393.372000 L 402.449000 398.352000 L 402.341000 403.331000 L 402.279000 408.310000 L 402.384000 413.289000 L 402.599000 418.265000 L 402.705000 423.242000 L 402.649000 428.222000 L 402.566000 433.202000 L 402.483000 438.181000 L 402.400000 443.161000 L 402.317000 448.141000 L 402.235000 453.120000 L 402.164000 458.100000 L 402.107000 463.080000 L 402.089000 468.061000 L 402.085000 473.041000 L 402.085000 478.021000 L 402.085000 483.002000 L 402.085000 487.982000 L 402.085000 492.963000 L 402.096000 497.943000 L 402.154000 502.923000 L 402.321000 507.900000 L 402.470000 512.878000 L 402.555000 517.858000 L 402.495000 522.838000 L 402.435000 527.818000 L 402.376000 532.798000 L 402.316000 537.778000 L 402.256000 542.758000 L 402.198000 547.738000 L 402.142000 552.718000 L 402.101000 557.698000 L 402.087000 562.679000 L 402.085000 567.659000 L 402.085000 572.639000 L 402.106000 577.620000 L 402.198000 582.599000 L 402.354000 587.577000 L 402.562000 592.553000 L 402.776000 597.529000 L 403.001000 602.504000 L 403.232000 607.479000 L 403.217000 612.459000 L 403.200000 617.439000 L 403.183000 622.420000 L 403.166000 627.400000 L 403.149000 632.380000 L 403.132000 637.361000 L 403.116000 642.341000 L 403.108000 647.322000 L 403.192000 652.301000 L 403.342000 657.279000 L 403.549000 662.255000 L 403.755000 667.231000 L 403.909000 672.209000 L 404.014000 677.188000 L 404.092000 682.168000 L 404.138000 687.148000 L 404.139000 692.128000 L 404.085000 697.108000" fill="none" id="2" stroke="#9de993" stroke-width="0.5" /><path d="M 27.116200 156.533000 L 27.320600 161.527000 L 27.509700 166.520000 L 27.673900 171.515000 L 27.817900 176.510000 L 28.058600 181.501000 L 28.344900 186.490000 L 28.654600 191.478000 L 28.975800 196.465000 L 29.297800 201.451000 L 29.622400 206.438000 L 29.973900 211.423000 L 30.354200 216.406000 L 30.755900 221.387000 L 31.157100 226.368000 L 31.537300 231.351000 L 31.902800 236.334000 L 32.263600 241.319000 L 32.621900 246.303000 L 32.946700 251.290000 L 33.249100 256.278000 L 33.539000 261.266000 L 33.826700 266.255000 L 34.111000 271.245000 L 34.389500 276.234000 L 34.662300 281.224000 L 34.932800 286.214000 L 35.203200 291.204000 L 35.473500 296.194000 L 35.743900 301.183000 L 36.014200 306.173000 L 36.273300 311.164000 L 36.508800 316.156000 L 36.726500 321.148000 L 36.934900 326.141000 L 37.142200 331.134000 L 37.348500 336.127000 L 37.545500 341.120000 L 37.727200 346.114000 L 37.890100 351.109000 L 38.049100 356.103000 L 38.206900 361.098000 L 38.364800 366.093000 L 38.522700 371.088000 L 38.680600 376.082000 L 38.838400 381.077000 L 38.994700 386.072000 L 39.146200 391.067000 L 39.278900 396.062000 L 39.404500 401.058000 L 39.526900 406.054000 L 39.649200 411.049000 L 39.771600 416.045000 L 39.894000 421.041000 L 40.016300 426.037000 L 40.138700 431.032000 L 40.261100 436.028000 L 40.383400 441.024000 L 40.505800 446.019000 L 40.628100 451.015000 L 40.750500 456.011000 L 40.872900 461.007000 L 40.995200 466.002000 L 41.117600 470.998000 L 41.239900 475.994000 L 41.368100 480.989000 L 41.505600 485.985000 L 41.650500 490.980000 L 41.800600 495.975000 L 41.950700 500.970000 L 42.100800 505.965000 L 42.250900 510.960000 L 42.401000 515.955000 L 42.551100 520.950000 L 42.701200 525.945000 L 42.851300 530.940000 L 43.001400 535.935000 L 43.151500 540.930000 L 43.301600 545.925000 L 43.451500 550.920000 L 43.599300 555.915000 L 43.742200 560.910000 L 43.873500 565.905000 L 44.002600 570.901000 L 44.130700 575.897000 L 44.258800 580.892000 L 44.386900 585.888000 L 44.515000 590.883000 L 44.643100 595.879000 L 44.771200 600.875000 L 44.899300 605.870000 L 45.028100 610.866000 L 45.161000 615.861000 L 45.300900 620.856000 L 45.453100 625.851000 L 45.609100 630.846000 L 45.765500 635.841000 L 45.922000 640.836000 L 46.078400 645.830000 L 46.234900 650.825000 L 46.391300 655.820000 L 46.547700 660.815000 L 46.704200 665.810000 L 46.861700 670.804000 L 47.025700 675.799000 L 47.201000 680.793000 L 47.388100 685.787000 L 47.577300 690.780000 L 47.766600 695.774000 L 47.955900 700.768000 L 48.145700 705.761000 L 48.337200 710.755000 L 48.543000 715.748000 L 48.763000 720.740000 L 48.991200 725.732000 L 49.219500 730.724000 L 49.447800 735.716000 L 49.676100 740.708000 L 49.904400 745.700000 L 50.132700 750.692000 L 50.361000 755.684000 L 50.589300 760.676000 L 50.817500 765.668000 L 51.045800 770.660000 L 51.274100 775.652000 L 51.502400 780.644000 L 51.730700 785.636000 L 51.959000 790.629000 L 52.187300 795.621000 L 52.415500 800.613000 L 52.643800 805.605000 L 52.872100 810.597000 L 53.100400 815.589000" fill="none" id="3" stroke="#ad5ba7" stroke-width="0.5" /><path d="M 65.698800 814.030000 L 70.198200 811.954000 L 74.636400 809.752000 L 78.928700 807.277000 L 83.054400 804.533000 L 87.272700 801.934000 L 91.557400 799.445000 L 95.846400 796.964000 L 100.132100 794.478000 L 104.398000 791.958000 L 108.663000 789.435000 L 112.927000 786.912000 L 117.191000 784.389000 L 121.456000 781.865000 L 125.708000 779.322000 L 129.937000 776.740000 L 134.158000 774.145000 L 138.379000 771.550000 L 142.599000 768.954000 L 146.820000 766.358000 L 151.040000 763.763000 L 155.261000 761.167000 L 159.497000 758.598000 L 163.755000 756.063000 L 168.018000 753.537000 L 172.281000 751.012000 L 176.544000 748.486000 L 180.807000 745.961000 L 185.069000 743.434000 L 189.317000 740.883000 L 193.533000 738.282000 L 197.738000 735.660000 L 201.943000 733.039000 L 206.147000 730.417000 L 210.352000 727.796000 L 214.556000 725.174000 L 218.761000 722.553000 L 222.965000 719.931000 L 227.170000 717.310000 L 231.379000 714.695000 L 235.611000 712.118000 L 239.861000 709.571000 L 244.113000 707.027000 L 248.365000 704.483000 L 252.616000 701.938000 L 256.858000 699.378000 L 261.083000 696.790000 L 265.298000 694.185000 L 269.508000 691.571000 L 273.709000 688.944000 L 277.906000 686.310000 L 282.092000 683.660000 L 286.264000 680.986000 L 290.437000 678.316000 L 294.630000 675.675000 L 298.841000 673.064000 L 303.061000 670.467000 L 307.298000 667.899000 L 311.549000 665.354000 L 315.792000 662.794000 L 320.008000 660.192000 L 324.212000 657.569000 L 328.415000 654.945000 L 332.618000 652.322000 L 336.820000 649.695000 L 341.011000 647.053000 L 345.191000 644.392000 L 349.370000 641.730000 L 353.550000 639.069000 L 357.729000 636.408000 L 361.908000 633.746000 L 366.088000 631.085000 L 370.274000 628.434000 L 374.490000 625.831000 L 378.707000 623.230000 L 382.925000 620.629000 L 387.140000 618.025000 L 391.339000 615.395000 L 395.525000 612.743000 L 399.711000 610.092000 L 403.891000 607.432000 L 408.022000 604.696000 L 412.137000 601.936000 L 416.250000 599.173000 L 420.376000 596.429000 L 424.514000 593.705000 L 428.659000 590.990000" fill="none" id="4" stroke="#58f2c3" stroke-width="0.5" /><path d="M 172.061000 753.888000 L 176.276000 751.416000 L 180.447000 748.871000 L 184.546000 746.210000 L 188.630000 743.528000 L 192.740000 740.886000 L 196.863000 738.263000 L 200.980000 735.632000 L 205.051000 732.930000 L 209.063000 730.141000 L 213.049000 727.314000 L 217.034000 724.486000 L 221.026000 721.669000 L 225.061000 718.914000 L 229.152000 716.241000 L 233.259000 713.595000 L 237.402000 711.004000 L 241.580000 708.470000 L 245.766000 705.949000 L 249.952000 703.428000 L 254.138000 700.908000 L 258.321000 698.382000 L 262.490000 695.834000 L 266.646000 693.264000 L 270.799000 690.689000 L 274.951000 688.114000 L 279.109000 685.547000 L 283.286000 683.011000 L 287.492000 680.524000 L 291.724000 678.081000 L 295.952000 675.632000 L 300.081000 673.020000 L 304.100000 670.241000 L 308.030000 667.337000" fill="none" id="5" stroke="#58f2c3" stroke-width="0.5" /><path d="M 363.400000 29.187000 L 363.955000 34.123500 L 364.476000 39.063800 L 364.961000 44.007700 L 365.376000 48.958000 L 365.749000 53.911600 L 366.090000 58.867500 L 366.404000 63.825300 L 366.692000 68.784600 L 366.966000 73.744800 L 367.234000 78.705200 L 367.482000 83.666700 L 367.710000 88.629100 L 367.903000 93.593100 L 368.086000 98.557400 L 368.262000 103.522000 L 368.430000 108.487000 L 368.559000 113.453000 L 368.680000 118.419000 L 368.798000 123.385000 L 368.916000 128.352000 L 369.034000 133.318000 L 369.151000 138.284000 L 369.248000 143.251000 L 369.339000 148.218000 L 369.424000 153.185000 L 369.508000 158.152000 L 369.584000 163.119000 L 369.653000 168.086000 L 369.705000 173.054000 L 369.754000 178.021000 L 369.802000 182.989000 L 369.848000 187.956000 L 369.878000 192.924000 L 369.899000 197.891000 L 369.912000 202.859000 L 369.924000 207.827000 L 369.935000 212.794000 L 369.946000 217.762000 L 369.957000 222.730000 L 369.969000 227.697000 L 369.980000 232.665000 L 369.991000 237.633000 L 370.002000 242.600000 L 370.013000 247.568000 L 370.025000 252.536000 L 370.036000 257.504000 L 370.047000 262.471000 L 370.058000 267.439000 L 370.069000 272.407000 L 370.081000 277.374000 L 370.092000 282.342000 L 370.103000 287.310000 L 370.114000 292.277000 L 370.125000 297.245000 L 370.137000 302.213000 L 370.148000 307.180000 L 370.159000 312.148000 L 370.170000 317.116000 L 370.181000 322.083000 L 370.193000 327.051000 L 370.204000 332.019000 L 370.215000 336.986000 L 370.226000 341.954000 L 370.237000 346.922000 L 370.249000 351.890000 L 370.260000 356.857000 L 370.271000 361.825000 L 370.282000 366.793000 L 370.293000 371.760000 L 370.305000 376.728000 L 370.315000 381.696000 L 370.324000 386.663000 L 370.328000 391.631000 L 370.329000 396.599000 L 370.329000 401.566000 L 370.329000 406.534000 L 370.329000 411.502000 L 370.329000 416.470000 L 370.329000 421.437000 L 370.329000 426.405000 L 370.329000 431.373000 L 370.329000 436.340000 L 370.321000 441.308000 L 370.305000 446.276000 L 370.281000 451.243000 L 370.249000 456.211000 L 370.217000 461.179000 L 370.185000 466.146000 L 370.153000 471.114000 L 370.121000 476.081000 L 370.089000 481.049000 L 370.057000 486.017000 L 370.024000 490.984000 L 369.992000 495.952000 L 369.960000 500.919000 L 369.928000 505.887000 L 369.896000 510.855000 L 369.863000 515.822000 L 369.822000 520.790000 L 369.772000 525.757000 L 369.710000 530.724000 L 369.646000 535.692000 L 369.581000 540.659000 L 369.517000 545.626000 L 369.452000 550.594000 L 369.388000 555.561000 L 369.323000 560.528000 L 369.258000 565.495000 L 369.193000 570.463000 L 369.125000 575.430000 L 369.041000 580.397000 L 368.933000 585.363000 L 368.810000 590.330000 L 368.685000 595.296000 L 368.560000 600.262000 L 368.435000 605.228000 L 368.311000 610.194000 L 368.206000 615.161000 L 368.123000 620.128000 L 368.078000 625.095000 L 367.941000 630.061000 L 367.786000 635.026000 L 367.632000 639.991000 L 367.477000 644.957000 L 367.323000 649.922000 L 367.170000 654.887000 L 367.030000 659.853000 L 366.895000 664.819000 L 366.765000 669.785000 L 366.635000 674.751000 L 366.505000 679.717000 L 366.375000 684.683000 L 366.245000 689.649000 L 366.115000 694.615000 L 365.985000 699.581000 L 365.855000 704.547000 L 365.723000 709.513000 L 365.584000 714.478000 L 365.424000 719.444000 L 365.261000 724.409000 L 365.089000 729.373000 L 364.896000 734.337000 L 364.688000 739.301000 L 364.475000 744.264000 L 364.260000 749.227000 L 364.045000 754.190000 L 363.832000 759.153000 L 363.620000 764.116000" fill="none" id="6" stroke="#c94e76" stroke-width="0.5" /><path d="M 67.557100 145.171000 L 68.123600 150.131000 L 68.706200 155.090000 L 69.309800 160.045000 L 69.971700 164.994000 L 70.646800 169.940000 L 71.331100 174.886000 L 71.952400 179.839000 L 72.548800 184.796000 L 73.140400 189.753000 L 73.677800 194.716000 L 74.176000 199.683000 L 74.640500 204.654000 L 75.055400 209.629000 L 75.407900 214.609000 L 75.734200 219.591000 L 76.056600 224.573000 L 76.379100 229.555000 L 76.701500 234.537000 L 77.024000 239.519000 L 77.346500 244.501000 L 77.668900 249.483000 L 77.990400 254.465000 L 78.273700 259.449000 L 78.543500 264.434000 L 78.796900 269.420000 L 79.050300 274.406000 L 79.303700 279.392000 L 79.557100 284.378000 L 79.810500 289.364000 L 80.063900 294.350000 L 80.317400 299.336000 L 80.570800 304.322000 L 80.824200 309.308000 L 81.077600 314.294000 L 81.331000 319.280000 L 81.584400 324.266000 L 81.837700 329.252000 L 82.085500 334.238000 L 82.322100 339.225000 L 82.554300 344.212000 L 82.777500 349.199000 L 82.966500 354.188000 L 83.153400 359.177000 L 83.339000 364.166000 L 83.524700 369.155000 L 83.702400 374.144000 L 83.871300 379.133000 L 84.040200 384.123000 L 84.203900 389.113000 L 84.357100 394.103000 L 84.510400 399.093000 L 84.663700 404.083000 L 84.817000 409.073000 L 84.970300 414.063000 L 85.123400 419.053000 L 85.272600 424.043000 L 85.398300 429.034000 L 85.498800 434.025000 L 85.588800 439.017000 L 85.677800 444.008000 L 85.766800 449.000000 L 85.855800 453.992000 L 85.944800 458.983000 L 86.033800 463.975000 L 86.122900 468.966000 L 86.211900 473.958000 L 86.300900 478.950000 L 86.389900 483.941000 L 86.478900 488.933000 L 86.570300 493.924000 L 86.670600 498.916000 L 86.786800 503.907000 L 86.903100 508.898000 L 87.019300 513.889000 L 87.135500 518.880000 L 87.251700 523.871000 L 87.368300 528.862000 L 87.489100 533.853000 L 87.612900 538.844000 L 87.739700 543.835000 L 87.866500 548.825000 L 87.993300 553.816000 L 88.120100 558.807000 L 88.246900 563.798000 L 88.373700 568.789000 L 88.500500 573.779000 L 88.627300 578.770000 L 88.754100 583.761000 L 88.880900 588.752000 L 89.007700 593.743000 L 89.134500 598.733000 L 89.261300 603.724000 L 89.388100 608.715000 L 89.514900 613.706000 L 89.641700 618.696000 L 89.770400 623.687000 L 89.905400 628.678000 L 90.056600 633.668000 L 90.215900 638.658000 L 90.375300 643.648000 L 90.534600 648.637000 L 90.694000 653.627000 L 90.853300 658.617000 L 91.016200 663.607000 L 91.184700 668.596000 L 91.380000 673.585000 L 91.581400 678.573000 L 91.782900 683.562000 L 91.984400 688.550000 L 92.185800 693.538000 L 92.387300 698.527000 L 92.588800 703.515000 L 92.790200 708.503000 L 92.991700 713.492000 L 93.193200 718.480000 L 93.394800 723.468000 L 93.615700 728.456000 L 93.842800 733.443000 L 94.076000 738.430000 L 94.309200 743.417000 L 94.542300 748.404000 L 94.775500 753.391000 L 95.009000 758.378000 L 95.242900 763.365000 L 95.501100 768.350000 L 95.761200 773.336000 L 96.022800 778.322000 L 96.284500 783.307000 L 96.546100 788.293000 L 96.807800 793.278000 L 97.069400 798.264000 L 97.331000 803.249000 L 97.592700 808.235000 L 97.854300 813.220000 L 98.116000 818.206000 L 98.377600 823.191000 L 98.639200 828.177000 L 98.900900 833.163000 L 99.162500 838.148000 L 99.424200 843.134000 L 99.685800 848.119000 L 99.947400 853.105000 L 100.209100 858.090000 L 100.471000 863.076000 L 100.732000 868.061000 L 100.994000 873.047000 L 101.256000 878.032000 L 101.517000 883.018000 L 101.779000 888.003000 L 102.041000 892.989000 L 102.302000 897.975000 L 102.564000 902.960000 L 102.825000 907.946000 L 103.087000 912.931000 L 103.349000 917.917000 L 103.610000 922.902000 L 103.872000 927.888000" fill="none" id="7" stroke="#57b870" stroke-width="0.5" /><path d="M 40.502000 268.762000 L 45.161900 266.960000 L 49.815800 265.142000 L 54.456400 263.291000 L 59.073800 261.383000 L 63.670800 259.426000 L 68.216700 257.354000 L 72.730200 255.211000 L 77.226500 253.033000 L 81.694800 250.798000 L 86.158100 248.553000 L 90.631800 246.328000 L 95.110500 244.114000 L 99.589800 241.901000 L 104.069000 239.687000 L 108.551000 237.480000 L 113.041000 235.288000 L 117.535000 233.105000 L 122.014000 230.891000 L 126.463000 228.619000 L 130.909000 226.339000 L 135.372000 224.093000 L 139.842000 221.861000 L 144.304000 219.614000 L 148.754000 217.342000 L 153.196000 215.055000 L 157.616000 212.726000 L 162.020000 210.365000 L 166.420000 207.998000 L 170.820000 205.631000 L 175.219000 203.264000 L 179.629000 200.916000 L 184.072000 198.630000 L 188.535000 196.384000 L 193.003000 194.149000 L 197.472000 191.915000 L 201.941000 189.680000 L 206.410000 187.446000 L 210.878000 185.211000 L 215.347000 182.977000 L 219.817000 180.745000 L 224.300000 178.539000 L 228.806000 176.382000 L 233.329000 174.259000 L 237.849000 172.130000 L 242.348000 169.957000 L 246.824000 167.738000 L 251.297000 165.511000 L 255.792000 163.331000 L 260.339000 161.262000 L 264.920000 159.266000 L 269.492000 157.253000 L 274.024000 155.149000 L 278.505000 152.938000 L 282.971000 150.699000 L 287.437000 148.459000 L 291.903000 146.219000 L 296.369000 143.979000 L 300.844000 141.758000 L 305.357000 139.615000 L 309.913000 137.565000 L 314.487000 135.554000 L 319.052000 133.523000 L 323.595000 131.444000 L 328.120000 129.327000 L 332.692000 127.316000 L 337.357000 125.532000 L 342.009000 123.719000 L 346.578000 121.697000 L 351.134000 119.645000 L 355.689000 117.593000 L 360.244000 115.541000 L 364.797000 113.484000 L 369.336000 111.396000 L 373.839000 109.231000 L 378.308000 106.997000 L 382.781000 104.772000 L 387.295000 102.631000 L 391.908000 100.711000 L 396.527000 98.808300 L 401.192000 97.019500 L 405.953000 95.504300 L 410.535000 93.521000 L 415.097000 91.483300 L 419.659000 89.445500 L 424.221000 87.407800 L 428.782000 85.370300 L 433.346000 83.335500 L 437.914000 81.313700 L 442.490000 79.306100 L 447.067000 77.303500 L 451.644000 75.300900 L 456.222000 73.298400 L 460.803000 71.304200 L 465.422000 69.403500 L 470.078000 67.592500 L 474.687000 65.666600 L 479.234000 63.597100 L 483.782000 61.527500 L 488.329000 59.458000 L 492.877000 57.388500 L 497.418000 55.306300 L 501.939000 53.181800 L 506.589000 51.353700 L 511.284000 49.646200 L 515.998000 47.990200" fill="none" id="8" stroke="#d271bb" stroke-width="0.5" /><path d="M 143.368000 744.321000 L 145.406000 745.743000 L 147.473000 747.121000 L 149.572000 748.450000 L 151.723000 749.694000 L 153.921000 750.852000 L 156.137000 751.977000 L 158.354000 753.098000 L 160.574000 754.215000 L 162.799000 755.322000 L 165.030000 756.416000 L 167.266000 757.500000 L 169.503000 758.582000 L 171.740000 759.664000 L 173.977000 760.746000 L 176.215000 761.826000 L 178.455000 762.901000 L 180.701000 763.964000 L 182.960000 765.001000 L 185.224000 766.025000 L 187.492000 767.039000 L 189.764000 768.045000 L 192.045000 769.030000 L 194.336000 769.992000 L 196.646000 770.910000 L 198.959000 771.817000 L 201.277000 772.713000 L 203.601000 773.591000 L 205.926000 774.468000 L 208.253000 775.341000 L 210.581000 776.211000" fill="none" id="9" stroke="#3d8e43" stroke-width="0.5" /><path d="M 144.628000 743.116000 L 146.497000 744.457000 L 148.382000 745.776000 L 150.283000 747.073000 L 152.224000 748.308000 L 154.183000 749.513000 L 156.160000 750.689000 L 158.168000 751.813000 L 160.179000 752.930000 L 162.193000 754.042000 L 164.207000 755.154000 L 166.220000 756.268000 L 168.232000 757.384000 L 170.235000 758.516000 L 172.235000 759.653000 L 174.232000 760.795000 L 176.229000 761.938000 L 178.227000 763.079000 L 180.226000 764.218000 L 182.237000 765.335000 L 184.261000 766.428000 L 186.298000 767.498000 L 188.363000 768.511000 L 190.436000 769.510000 L 192.516000 770.492000 L 194.594000 771.480000 L 196.669000 772.473000 L 198.742000 773.471000 L 200.813000 774.472000 L 202.884000 775.475000 L 204.953000 776.481000" fill="none" id="10" stroke="#3d8e43" stroke-width="0.5" /><path d="M 300.030000 648.746000 L 302.081000 649.470000 L 304.136000 650.181000 L 306.197000 650.877000 L 308.275000 651.519000 L 310.355000 652.155000 L 312.431000 652.803000 L 314.496000 653.486000 L 316.556000 654.186000 L 318.610000 654.900000 L 320.664000 655.615000 L 322.718000 656.331000 L 324.771000 657.050000 L 326.822000 657.775000 L 328.869000 658.509000 L 330.907000 659.269000 L 332.940000 660.041000 L 334.967000 660.831000 L 336.991000 661.627000 L 339.013000 662.428000 L 341.025000 663.255000 L 343.032000 664.093000 L 345.034000 664.943000 L 347.035000 665.797000 L 349.036000 666.648000 L 351.041000 667.493000 L 353.062000 668.296000 L 355.092000 669.077000 L 357.139000 669.810000 L 359.196000 670.519000 L 361.258000 671.211000" fill="none" id="11" stroke="#00d4db" stroke-width="0.5" /><path d="M 144.628000 740.163000 L 148.974000 737.733000 L 153.308000 735.281000 L 157.633000 732.814000 L 161.920000 730.281000 L 166.166000 727.680000 L 170.408000 725.073000 L 174.652000 722.468000 L 178.911000 719.889000 L 183.210000 717.375000 L 187.522000 714.886000 L 191.868000 712.454000 L 196.223000 710.041000 L 200.534000 707.549000 L 204.829000 705.030000 L 209.124000 702.510000 L 213.419000 699.990000 L 217.714000 697.471000 L 222.015000 694.962000 L 226.338000 692.491000 L 230.681000 690.056000 L 235.032000 687.634000 L 239.383000 685.213000 L 243.734000 682.791000 L 248.082000 680.364000 L 252.417000 677.915000 L 256.739000 675.441000 L 261.055000 672.958000 L 265.372000 670.476000 L 269.695000 668.005000 L 274.029000 665.555000 L 278.370000 663.114000 L 282.711000 660.676000 L 287.056000 658.243000 L 291.413000 655.832000 L 295.780000 653.440000 L 300.150000 651.053000 L 304.520000 648.665000 L 308.890000 646.278000 L 313.259000 643.891000 L 317.629000 641.504000 L 321.999000 639.117000 L 326.369000 636.729000 L 330.739000 634.342000 L 335.109000 631.955000 L 339.479000 629.568000 L 343.849000 627.181000 L 348.219000 624.793000" fill="none" id="12" stroke="#d55969" stroke-width="0.5" /><path d="M 200.407000 769.171000 L 204.697000 766.619000 L 208.968000 764.038000 L 213.199000 761.390000 L 217.454000 758.781000 L 221.765000 756.267000 L 226.105000 753.802000 L 230.407000 751.272000 L 234.681000 748.694000 L 238.912000 746.048000 L 243.137000 743.390000 L 247.381000 740.764000 L 251.642000 738.165000 L 255.907000 735.574000 L 260.170000 732.977000 L 264.402000 730.333000 L 268.577000 727.597000 L 272.724000 724.822000 L 276.875000 722.050000 L 281.042000 719.303000 L 285.235000 716.596000 L 289.462000 713.943000 L 293.708000 711.319000 L 297.956000 708.699000 L 302.204000 706.080000 L 306.452000 703.460000 L 310.701000 700.840000 L 314.948000 698.219000 L 319.182000 695.576000 L 323.385000 692.885000 L 327.569000 690.164000 L 331.751000 687.439000 L 335.932000 684.715000 L 340.114000 681.990000 L 344.296000 679.265000 L 348.477000 676.541000 L 352.665000 673.825000 L 356.875000 671.144000 L 361.112000 668.507000 L 365.355000 665.880000 L 369.600000 663.254000 L 373.853000 660.642000 L 378.126000 658.064000 L 382.405000 655.494000 L 386.683000 652.924000 L 390.954000 650.342000 L 395.200000 647.719000 L 399.436000 645.080000 L 403.671000 642.439000 L 407.904000 639.793000" fill="none" id="13" stroke="#64e4ff" stroke-width="0.5" /><path d="M 206.045000 772.053000 L 210.346000 769.621000 L 214.599000 767.108000 L 218.847000 764.585000 L 223.120000 762.106000 L 227.405000 759.647000 L 231.676000 757.163000 L 235.932000 754.655000 L 240.172000 752.119000 L 244.376000 749.524000 L 248.555000 746.888000 L 252.713000 744.219000 L 256.849000 741.518000 L 260.975000 738.801000 L 265.061000 736.023000 L 269.130000 733.222000 L 273.188000 730.404000 L 277.217000 727.544000 L 281.209000 724.633000 L 285.201000 721.723000 L 289.236000 718.873000 L 293.290000 716.050000 L 297.347000 713.230000 L 301.402000 710.408000 L 305.447000 707.571000 L 309.476000 704.712000 L 313.496000 701.840000 L 317.515000 698.966000 L 321.531000 696.089000 L 325.535000 693.195000 L 329.514000 690.266000 L 333.478000 687.317000 L 337.423000 684.343000 L 341.356000 681.354000 L 345.272000 678.341000 L 349.163000 675.297000" fill="none" id="14" stroke="#64e4ff" stroke-width="0.5" /><path d="M 364.817000 669.463000 L 360.893000 672.379000 L 356.949000 675.269000 L 352.977000 678.119000 L 348.985000 680.941000 L 344.989000 683.758000 L 340.986000 686.566000 L 336.930000 689.296000 L 332.838000 691.971000 L 328.714000 694.597000 L 324.544000 697.150000 L 320.346000 699.656000 L 316.139000 702.147000 L 311.921000 704.618000 L 307.675000 707.043000 L 303.418000 709.448000 L 299.162000 711.853000 L 294.906000 714.259000 L 290.670000 716.700000 L 286.470000 719.203000 L 282.288000 721.736000 L 278.107000 724.269000 L 273.925000 726.803000 L 269.743000 729.336000 L 265.562000 731.869000 L 261.380000 734.402000 L 257.198000 736.935000 L 253.017000 739.468000 L 248.833000 741.999000 L 244.628000 744.493000 L 240.378000 746.909000 L 236.124000 749.318000 L 231.867000 751.724000 L 227.602000 754.113000 L 223.326000 756.483000 L 219.050000 758.854000 L 214.784000 761.243000 L 210.562000 763.709000 L 206.347000 766.185000 L 202.131000 768.661000 L 197.915000 771.136000 L 193.699000 773.612000" fill="none" id="15" stroke="#64e4ff" stroke-width="0.5" /><path d="M 165.919000 150.486000 L 170.392000 152.454000 L 174.892000 154.359000 L 179.435000 156.158000 L 183.996000 157.912000 L 188.604000 159.536000 L 193.271000 160.982000 L 197.969000 162.326000 L 202.703000 163.537000 L 207.446000 164.713000 L 212.189000 165.886000 L 216.949000 166.991000 L 221.719000 168.051000 L 226.499000 169.065000 L 231.283000 170.063000 L 236.071000 171.039000 L 240.861000 172.003000 L 245.651000 172.966000 L 250.442000 173.930000 L 255.231000 174.900000 L 260.016000 175.892000 L 264.797000 176.900000 L 269.578000 177.909000 L 274.360000 178.917000 L 279.142000 179.920000 L 283.927000 180.910000 L 288.714000 181.892000 L 293.501000 182.875000 L 298.287000 183.857000 L 303.074000 184.839000 L 307.861000 185.821000 L 312.648000 186.803000 L 317.434000 187.788000 L 322.215000 188.795000 L 326.988000 189.843000 L 331.758000 190.901000 L 336.527000 191.970000 L 341.282000 193.095000 L 346.032000 194.242000 L 350.782000 195.389000 L 355.532000 196.536000 L 360.281000 197.683000" fill="none" id="16" stroke="#e68e54" stroke-width="0.5" /><path d="M 319.967000 108.392000 L 323.095000 109.764000 L 326.291000 110.969000 L 329.562000 111.949000 L 332.895000 112.694000 L 336.243000 113.372000 L 339.592000 114.042000 L 342.946000 114.694000 L 346.304000 115.319000 L 349.665000 115.928000 L 353.028000 116.531000 L 356.390000 117.134000 L 359.753000 117.736000 L 363.115000 118.341000 L 366.474000 118.960000 L 369.827000 119.614000 L 373.171000 120.312000 L 376.510000 121.034000 L 379.844000 121.779000 L 383.172000 122.549000 L 386.497000 123.332000 L 389.816000 124.140000 L 393.127000 124.981000 L 396.432000 125.845000 L 399.728000 126.744000 L 403.009000 127.694000 L 406.281000 128.675000 L 409.553000 129.657000 L 412.825000 130.640000 L 416.096000 131.622000 L 419.368000 132.604000" fill="none" id="17" stroke="#54aeff" stroke-width="0.5" /><path d="M 243.652000 109.431000 L 243.566000 112.723000 L 243.517000 116.015000 L 243.498000 119.307000 L 243.555000 122.599000 L 243.665000 125.890000 L 243.784000 129.180000 L 243.888000 132.471000 L 243.970000 135.762000 L 244.028000 139.054000 L 244.061000 142.347000 L 244.073000 145.639000 L 244.081000 148.932000 L 244.092000 152.224000 L 244.113000 155.517000 L 244.145000 158.809000 L 244.183000 162.102000 L 244.224000 165.394000 L 244.269000 168.686000 L 244.324000 171.978000 L 244.393000 175.270000 L 244.465000 178.562000 L 244.537000 181.854000 L 244.618000 185.145000 L 244.728000 188.436000 L 244.854000 191.726000 L 244.984000 195.016000 L 245.117000 198.306000 L 245.264000 201.595000 L 245.428000 204.883000 L 245.604000 208.171000" fill="none" id="18" stroke="#eed973" stroke-width="0.5" /><path d="M 200.030000 127.219000 L 197.619000 129.791000 L 195.421000 132.547000 L 193.541000 135.528000 L 191.911000 138.653000 L 190.327000 141.802000 L 188.822000 144.990000 L 187.372000 148.203000 L 185.938000 151.424000 L 184.504000 154.645000 L 183.070000 157.865000 L 181.636000 161.086000 L 180.203000 164.307000 L 178.770000 167.528000 L 177.344000 170.752000 L 175.948000 173.989000 L 174.599000 177.246000 L 173.252000 180.504000 L 171.905000 183.762000 L 170.558000 187.020000 L 169.212000 190.279000 L 167.872000 193.540000 L 166.570000 196.816000 L 165.292000 200.101000 L 164.023000 203.390000 L 162.790000 206.693000 L 161.620000 210.018000 L 160.524000 213.369000 L 159.476000 216.735000 L 158.538000 220.133000 L 157.667000 223.549000" fill="none" id="19" stroke="#008bd4" stroke-width="0.5" /><path d="M 310.234000 141.463000 L 311.105000 144.144000 L 311.902000 146.847000 L 312.598000 149.578000 L 313.196000 152.333000 L 313.723000 155.102000 L 314.241000 157.873000 L 314.759000 160.644000 L 315.276000 163.415000 L 315.794000 166.186000 L 316.311000 168.957000 L 316.827000 171.729000 L 317.335000 174.502000 L 317.832000 177.277000 L 318.316000 180.054000 L 318.792000 182.832000 L 319.268000 185.611000 L 319.744000 188.389000 L 320.220000 191.168000 L 320.694000 193.947000 L 321.161000 196.727000 L 321.606000 199.511000 L 322.039000 202.296000 L 322.466000 205.083000 L 322.890000 207.870000 L 323.314000 210.656000 L 323.732000 213.444000 L 324.138000 216.234000 L 324.532000 219.025000 L 324.915000 221.818000 L 325.289000 224.612000" fill="none" id="20" stroke="#fdb968" stroke-width="0.5" /></svg>