<?xml version="1.0" encoding="utf-8" ?>
<svg baseProfile="full" height="592.5" version="1.1" viewBox="0,0,630.5,592.5" width="630.5" xmlns="http://www.w3.org/2000/svg" xmlns:ev="http://www.w3.org/2001/xml-events" xmlns:xlink="http://www.w3.org/1999/xlink"><defs><style type="text/css"><![CDATA[
	.background { fill: white; }
	.line { stroke: firebrick; stroke-width: .1mm; }
	.blacksquare { fill: indigo; }
	.whitesquare { fill: white; }
]]></style></defs><rect class="background" height="100%" width="100%" x="0" y="0" /><path d="M 176.294954 35.848420 L 175.429325 38.614119 L 176.563346 42.429263 L 177.848572 46.217163 L 179.133799 50.005064 L 179.476054 51.013780" fill="none" id="2" stroke="black" stroke-width="0.5" /><path d="M 3.035104 57.651570 L 0.250000 58.025013 L 0.336992 62.014715 L 1.013554 65.953446 L 1.748674 69.885316 L 2.483794 73.817185 L 3.218915 77.749055 L 3.954035 81.680924 L 4.689155 85.612794 L 5.424276 89.544663 L 6.159396 93.476533 L 6.894517 97.408402 L 7.629637 101.340272 L 8.372998 105.270536 L 9.167914 109.190754 L 9.962831 113.110971 L 10.757748 117.031189 L 11.552664 120.951407 L 12.492190 124.839316 L 13.441291 128.725086 L 14.390393 132.610856 L 15.339494 136.496625 L 16.288596 140.382395 L 17.237698 144.268165 L 18.186799 148.153934 L 19.170122 152.030754 L 20.244977 155.883634 L 21.319832 159.736515 L 22.394687 163.589395 L 23.469542 167.442275 L 24.544397 171.295155 L 25.642140 175.141400 L 26.794738 178.971742 L 27.947337 182.802083 L 29.099936 186.632425 L 30.252535 190.462766 L 31.405134 194.293108 L 32.557733 198.123449 L 33.761438 201.937923 L 34.980978 205.747479 L 36.200518 209.557036 L 37.420057 213.366593 L 38.639597 217.176150 L 39.859137 220.985706 L 41.078677 224.795263 L 42.298217 228.604820 L 43.517757 232.414376 L 44.737297 236.223933 L 45.956837 240.033490 L 47.176377 243.843047 L 48.395917 247.652603 L 49.615457 251.462160 L 50.834997 255.271717 L 52.054537 259.081273 L 53.274077 262.890830 L 54.493617 266.700387 L 55.740165 270.501063 L 57.019367 274.291003 L 58.298570 278.080942 L 59.577772 281.870881 L 60.894294 285.647803 L 62.249876 289.411099 L 63.605459 293.174395 L 64.961041 296.937691 L 66.316623 300.700987 L 67.672206 304.464283 L 69.027788 308.227579 L 70.383370 311.990875 L 71.738953 315.754171 L 73.094535 319.517467 L 74.450117 323.280763 L 75.805700 327.044058 L 77.233533 330.777555 L 78.925075 334.402288 L 80.616616 338.027020 L 82.308158 341.651753 L 83.985409 345.282718 L 85.490917 348.988585 L 86.996425 352.694451 L 88.501933 356.400317 L 90.007442 360.106184 L 91.512950 363.812050 L 93.018458 367.517916 L 94.523966 371.223783 L 96.029474 374.929649 L 97.578182 378.617294 L 99.181458 382.281923 L 100.784733 385.946553 L 102.388008 389.611182 L 103.991284 393.275811 L 105.594559 396.940441 L 107.197834 400.605070 L 108.801110 404.269699 L 110.404385 407.934329 L 111.712552 411.675984 L 113.244535 415.370985 L 114.776518 419.065985 L 116.308500 422.760986 L 117.840483 426.455986 L 119.372466 430.150987 L 120.904449 433.845987 L 122.436431 437.540988 L 123.960204 441.239229 L 125.364698 444.984546 L 126.769191 448.729862 L 128.173685 452.475179 L 129.578179 456.220496 L 131.140187 459.901876 L 132.743462 463.566505 L 134.346737 467.231135 L 135.950013 470.895764 L 138.014612 474.210273 L 139.672625 477.850464 L 141.330639 481.490656 L 142.988652 485.130847 L 144.646665 488.771038 L 146.304678 492.411229 L 147.962691 496.051421 L 149.620705 499.691612 L 151.278718 503.331803 L 152.936731 506.971994 L 154.594744 510.612186 L 156.252757 514.252377 L 157.910771 517.892568 L 159.663367 521.486054 L 161.545720 525.015466 L 163.428073 528.544877 L 165.310426 532.074289 L 167.180169 535.610259 L 168.989045 539.177887 L 170.797920 542.745515 L 172.606796 546.313143 L 174.415671 549.880771 L 176.224546 553.448399 L 178.033422 557.016027 L 179.842297 560.583655 L 181.651173 564.151283 L 183.460048 567.718911 L 185.268923 571.286539 L 187.077799 574.854168 L 188.886674 578.421796 L 190.695550 581.989424 L 192.504425 585.557052 L 194.313300 589.124680 L 195.570544 591.604330" fill="none" id="3" stroke="black" stroke-width="0.5" /><path d="M 123.318574 0.250000 L 126.631112 2.477907 L 130.112728 4.447261 L 133.659268 6.295705 L 137.224089 8.110106 L 140.788910 9.924508 L 144.353731 11.738910 L 147.918552 13.553311 L 151.500615 15.333163 L 155.093625 17.091082 L 158.686635 18.849001 L 162.279645 20.606920 L 165.872655 22.364839 L 169.465665 24.122758 L 173.058675 25.880677 L 176.651685 27.638596 L 180.244695 29.396515 L 183.785196 31.257229 L 187.315471 33.137963 L 190.845746 35.018697 L 194.376021 36.899431 L 197.906296 38.780165 L 201.436570 40.660898 L 204.966845 42.541632 L 208.497120 44.422366 L 212.027395 46.303100 L 215.557670 48.183834 L 219.087944 50.064567 L 222.618219 51.945301 L 226.148494 53.826035 L 229.641432 55.775176 L 233.132934 57.726948 L 236.622495 59.682125 L 240.080679 61.692340 L 243.538863 63.702554 L 246.997048 65.712768 L 250.455232 67.722982 L 253.913417 69.733196 L 257.371601 71.743410 L 260.829785 73.753624 L 264.287970 75.763838 L 267.746154 77.774052 L 271.204339 79.784266 L 274.662523 81.794480 L 278.120707 83.804694 L 281.578892 85.814908 L 285.037076 87.825123 L 288.495261 89.835337 L 291.953445 91.845551 L 295.342012 93.969239 L 298.700867 96.141356 L 302.059722 98.313474 L 305.418577 100.485591 L 308.777432 102.657708 L 312.136286 104.829825 L 315.495141 107.001943 L 318.853996 109.174060 L 322.212851 111.346177 L 325.571706 113.518294 L 328.930561 115.690412 L 332.289416 117.862529 L 335.648271 120.034646 L 339.007126 122.206763 L 342.365981 124.378880 L 345.698380 126.589906 L 348.953314 128.914859 L 352.208248 131.239811 L 355.463182 133.564764 L 358.718116 135.889717 L 362.077716 138.060291 L 365.442429 140.223321 L 368.807143 142.386352 L 372.171857 144.549382 L 375.426328 146.872850 L 378.651948 149.238305 L 381.877568 151.603760 L 385.103188 153.969214 L 388.336109 156.324479 L 391.613037 158.618328 L 394.889965 160.912177 L 398.166892 163.206027 L 401.443820 165.499876 L 404.720748 167.793726 L 407.997675 170.087575 L 411.274603 172.381424 L 414.551531 174.675274 L 417.828458 176.969123 L 421.056506 179.331245 L 424.283929 181.694239 L 427.511352 184.057233 L 430.738775 186.420227 L 433.966198 188.783220 L 437.193622 191.146214 L 440.421045 193.509208 L 443.648468 195.872201 L 446.875891 198.235195 L 450.084199 200.623776 L 453.265441 203.048584 L 456.446684 205.473393 L 459.627926 207.898202 L 462.809169 210.323010 L 465.990411 212.747819 L 469.171653 215.172628 L 472.352896 217.597436 L 475.534138 220.022245 L 478.715380 222.447053 L 481.896623 224.871862 L 485.077865 227.296671 L 488.259108 229.721479 L 491.440350 232.146288 L 494.586332 234.614620 L 497.618375 237.223587 L 500.650419 239.832555 L 503.682462 242.441523 L 506.714506 245.050490 L 509.746549 247.659458 L 512.778593 250.268426 L 515.810636 252.877393 L 518.842679 255.486361 L 521.874723 258.095329 L 524.906766 260.704296 L 527.938810 263.313264 L 530.970853 265.922232 L 534.002897 268.531199 L 537.039922 271.134164 L 540.163397 273.632944 L 543.286872 276.131724 L 546.410347 278.630505 L 549.533823 281.129285 L 552.635501 283.654384 L 555.672527 286.257550 L 558.709554 288.860715 L 561.746580 291.463881 L 564.783607 294.067046 L 567.820633 296.670212 L 570.857659 299.273377 L 573.894686 301.876543 L 576.931712 304.479708 L 579.968739 307.082874 L 583.005765 309.686039 L 586.042791 312.289205 L 589.079818 314.892370 L 592.116844 317.495536 L 593.869754 318.998030" fill="none" id="4" stroke="black" stroke-width="0.5" /><path d="M 105.964244 150.557090 L 106.237245 146.582620 L 107.807813 142.945797 L 110.332588 139.855157 L 113.252606 137.124917 L 116.548011 134.868185 L 119.932965 132.742339 L 123.529956 130.998689 L 127.249801 129.528058 L 130.970779 128.060865 L 134.835930 127.031006 L 138.701081 126.001147 L 142.610252 125.176994 L 146.558369 124.534830 L 150.506485 123.892665 L 154.483349 123.470821 L 158.473101 123.226741 L 162.471991 123.132498 L 166.470880 123.038256 L 170.469770 122.944013 L 174.467407 122.925567 L 178.460996 123.151942 L 182.433047 123.615685 L 184.231954 123.840550" fill="none" id="5" stroke="black" stroke-width="0.5" /><path d="M 142.184714 170.683070 L 138.372281 169.472552 L 134.630970 168.059888 L 130.900457 166.616533 L 127.272266 164.939216 L 123.679916 163.179951 L 120.234618 161.152763 L 116.843848 159.035125 L 113.723246 156.532757 L 110.828838 153.793717 L 108.210460 150.772889 L 106.395269 147.227925 L 105.680774 143.321067 L 106.420622 139.452873 L 108.937924 136.386824 L 111.872653 133.677824 L 115.154628 131.391202 L 118.513080 129.226090 L 122.029514 127.321906 L 125.642534 125.611826 L 129.363114 124.147699 L 133.175991 122.938580 L 137.037800 121.897444 L 140.950823 121.084514 L 144.890651 120.393317 L 148.830479 119.702120 L 152.807684 119.285340 L 156.788854 118.897669 L 160.770775 118.524290 L 164.770645 118.491976 L 168.770514 118.459662 L 172.770384 118.427347 L 176.770253 118.395033 L 180.749886 118.709363 L 184.718824 119.206886 L 188.687763 119.704408 L 192.626741 120.395659 L 196.550108 121.172913 L 200.453559 122.041170 L 204.294632 123.157484 L 208.135705 124.273798 L 211.920927 125.555081 L 215.623143 127.065374 L 219.254054 128.743613 L 222.878599 130.434081 L 226.336158 132.445371 L 229.757002 134.513117 L 232.898615 136.979522 L 235.679813 139.846689 L 237.751362 143.242425 L 238.739504 147.101976 L 238.565731 151.087052 L 237.336353 154.825783 L 235.394393 158.307874 L 232.762634 161.304675 L 229.899780 164.089394 L 226.633018 166.393729 L 223.148335 168.343893 L 219.545258 170.081086 L 215.848559 171.598412 L 212.013072 172.717304 L 208.139019 173.713151 L 204.201783 174.379313 L 200.234043 174.886302 L 196.266303 175.393291 L 192.283962 175.695887 L 188.284445 175.758057 L 184.284928 175.820227 L 180.285411 175.882396 L 176.285894 175.944566 L 172.305314 175.577851 L 168.326841 175.163424 L 164.359607 174.666229 L 160.416110 173.997127 L 156.499774 173.183302 L 152.583437 172.369477 L 148.695633 171.436063 L 144.833725 170.394113 L 140.977487 169.334312 L 137.222412 167.956121 L 133.467337 166.577929 L 129.781734 165.028470 L 126.199699 163.253688 L 122.668868 161.373998 L 119.260801 159.289562 L 115.939340 157.060685 L 112.931484 154.437126 L 110.095757 151.627830 L 107.922635 148.284684 L 106.752371 144.497584 L 106.611344 140.511426 L 108.458159 136.997194 L 111.311461 134.212870 L 114.404583 131.689661 L 117.791960 129.568460 L 121.257503 127.570959 L 124.817760 125.755780 L 128.516092 124.245530 L 132.296037 122.937088 L 136.075981 121.628646 L 139.941886 120.602693 L 143.848257 119.753777 L 147.779378 119.014663 L 151.710499 118.275549 L 155.675859 117.774536 L 159.655956 117.376004 L 163.636053 116.977471 L 167.629453 116.819495 L 171.629225 116.776718 L 175.628996 116.733941 L 179.628767 116.691164 L 183.621968 116.776377 L 187.596332 117.228517 L 191.570696 117.680656 L 195.524656 118.266141 L 199.452319 119.023397 L 203.354757 119.901450 L 207.206460 120.969895 L 211.028359 122.150187 L 214.850258 123.330478 L 218.543777 124.864509 L 222.119802 126.649489 L 225.589783 128.635731 L 228.880137 130.897941 L 232.026262 133.368143 L 234.959951 136.071844 L 237.307317 139.294426 L 238.735848 143.016394 L 239.221179 146.965387 L 239.235299 150.956727 L 238.242261 154.816167 L 236.305651 158.294557 L 233.764357 161.383542 L 230.951436 164.212095 L 227.819866 166.693935 L 224.372373 168.722431 L 220.805487 170.505155 L 217.079936 171.961270 L 213.264251 173.140442 L 209.395327 174.156034 L 205.487035 174.998708 L 201.529030 175.557076 L 197.554349 176.006418 L 193.567189 176.230729 L 189.567196 176.223587 L 185.567202 176.216445 L 181.574257 176.108487 L 177.612185 175.558954 L 173.650114 175.009420 L 169.719875 174.269556 L 165.806517 173.442704 L 161.927446 172.475156 L 158.085189 171.362922 L 154.250697 170.226936 L 150.493376 168.854880 L 146.736055 167.482823 L 143.057533 165.914142 L 139.392562 164.311647 L 135.798427 162.558930 L 132.370558 160.503946 L 128.989215 158.367005 L 125.974883 155.744087 L 123.180988 152.904420 L 120.968458 149.577481 L 119.503320 145.860095 L 118.691480 141.972379 L 118.749738 137.979622 L 120.573246 134.419450 L 123.256281 131.467262 L 126.335877 128.946857 L 129.629368 126.677806 L 133.248523 124.984549 L 137.064039 123.783784 L 140.880001 122.584711 L 144.791807 121.749381 L 148.738593 121.104384 L 152.691786 120.494245 L 156.656066 119.974415 L 160.640591 119.632168 L 164.640255 119.580349 L 168.639920 119.528529 L 172.639584 119.476710 L 176.639248 119.424890 L 180.628330 119.713655 L 184.617061 120.013692 L 188.600237 120.369561 L 192.569887 120.861374 L 196.539537 121.353188 L 200.494957 121.943212 L 204.440946 122.598322 L 208.386935 123.253432 L 212.332924 123.908543 L 216.232395 124.772596 L 220.083605 125.853421 L 223.934815 126.934245 L 227.622249 128.480694 L 231.302065 130.048799 L 234.838270 131.906133 L 238.178404 134.101064 L 241.187907 136.726602 L 243.583365 139.910860 L 245.103899 143.596553 L 245.751480 147.525892 L 245.734060 151.524509 L 245.116603 155.434310 L 243.380162 159.011094 L 240.837727 162.099139 L 237.784302 164.644376 L 234.494700 166.908721 L 230.942203 168.747135 L 227.331571 170.460104 L 223.572661 171.812255 L 219.735853 172.943144 L 215.868143 173.945348 L 211.936199 174.680071 L 208.004256 175.414794 L 204.032906 175.891059 L 200.044516 176.178914 L 196.051374 176.413040 L 192.055828 176.561495 L 188.055840 176.551628 L 184.055852 176.541760 L 180.088824 176.039890 L 176.123262 175.516134 L 172.174203 174.890834 L 168.252512 174.106290 L 164.370519 173.141856 L 160.488526 172.177422 L 156.647567 171.069643 L 152.843253 169.833846 L 149.038939 168.598049 L 145.302095 167.172258 L 141.570438 165.731864 L 137.873932 164.208719 L 134.246433 162.523117 L 130.618935 160.837514 L 127.104506 158.928362 L 123.742566 156.763705 L 120.401883 154.563742 L 117.477439 151.839975 L 114.657832 149.010684 L 112.324035 145.772712 L 110.255315 142.349205 L 109.357733 138.496257 L 109.826334 134.628830 L 112.135723 131.389209 L 115.074567 128.685872 L 118.304969 126.330770 L 121.878136 124.544333 L 125.486743 122.818659 L 129.331096 121.715747 L 133.177861 120.619207 L 137.087912 119.789001 L 141.039987 119.187366 L 145.011494 118.710783 L 148.983001 118.234201 L 152.979738 118.084424 L 156.977335 117.945780 L 160.975502 117.844589 L 164.975467 117.861347 L 168.975432 117.878105 L 172.970235 118.019899 L 176.956526 118.346556 L 180.921540 118.874442 L 184.886554 119.402328 L 188.838112 120.013484 L 192.767595 120.761260 L 196.697077 121.509036 L 200.594557 122.403305 L 204.477897 123.362301 L 208.357200 124.334609 L 212.119305 125.693494 L 215.881410 127.052378 L 219.561675 128.606681 L 223.094976 130.471719 L 226.514377 132.547219 L 229.796976 134.815620 L 232.672482 137.582878 L 234.815971 140.931152 L 235.779884 144.789913 L 235.720898 148.778773 L 234.969466 152.653546 L 233.084491 156.170020 L 230.527893 159.235705 L 227.624082 161.986683 L 224.558903 164.547470 L 221.197163 166.704452 L 217.753298 168.739100 L 214.173538 170.515493 L 210.470826 172.023168 L 206.734274 173.450815 L 202.955449 174.754710 L 199.115370 175.872487 L 195.240975 176.864202 L 191.312163 177.615491 L 187.383351 178.366780 L 183.420153 178.880307 L 179.439466 179.272899 L 175.457503 179.646365 L 171.459934 179.785810 L 167.460614 179.824800 L 163.460614 179.824800 L 159.460614 179.824800 L 155.472617 179.524471 L 151.494171 179.117943 L 147.527432 178.608685 L 143.591908 177.893387 L 139.656384 177.178090 L 135.736530 176.391835 L 131.865782 175.383217 L 127.995034 174.374599 L 124.161768 173.238168 L 120.385948 171.922609 L 116.663905 170.457551 L 112.941862 168.992492 L 109.355271 167.223348 L 105.776615 165.436390 L 102.197958 163.649432 L 98.765776 161.607699 L 95.420860 159.414178 L 92.257839 156.972019 L 89.432924 154.149988 L 87.244787 150.822744 L 86.247704 146.994111 L 86.714388 143.047920 L 89.095118 139.861737 L 92.162316 137.310103 L 95.596088 135.266903 L 99.232381 133.604105 L 102.884747 131.973086 L 106.601253 130.499338 L 110.352542 129.110874 L 114.107912 127.734355 L 117.924595 126.537305 L 121.788742 125.510130 L 125.673153 124.555486 L 129.557565 123.600841 L 133.490782 122.881083 L 137.433964 122.209283 L 141.377147 121.537484 L 145.342986 121.035248 L 149.324214 120.648182 L 153.305443 120.261117 L 157.289432 119.914215 L 161.286178 119.752914 L 165.284293 119.659450 L 169.284293 119.659450 L 173.284293 119.659450 L 177.284293 119.659450 L 181.284293 119.659450 L 185.278711 119.782875 L 189.262381 120.143953 L 193.246050 120.505031 L 197.229604 120.867115 L 201.191818 121.415621 L 205.154033 121.964128 L 209.116247 122.512635 L 210.688654 122.730310" fill="none" id="6" stroke="black" stroke-width="0.5" /><path d="M 178.373694 324.250000 L 178.087249 320.260270 L 177.942689 316.265836 L 177.964281 312.265894 L 177.985872 308.265952 L 178.282925 304.285041 L 178.720144 301.005900" fill="none" id="7" stroke="black" stroke-width="0.5" /><path d="M 236.011484 442.289370 L 234.155457 438.746043 L 232.299431 435.202716 L 230.443404 431.659390 L 228.632386 428.093821 L 226.945130 424.467091 L 225.355395 420.798400 L 223.882010 417.079645 L 222.408625 413.360890 L 220.935240 409.642136 L 219.664321 405.850196 L 218.440976 402.042371 L 217.383345 398.184727 L 216.325713 394.327083 L 215.268082 390.469439 L 214.368882 386.573813 L 213.562403 382.655957 L 212.999936 378.696443 L 212.460879 374.732932 L 211.921822 370.769422 L 211.580285 366.786803 L 211.350102 362.793447 L 211.369676 358.793495 L 211.389250 354.793543 L 211.408824 350.793591 L 211.802693 346.817919 L 212.348071 342.856463 L 213.085227 338.924975 L 213.983800 335.028999 L 215.014253 331.166534 L 216.404523 327.415915 L 217.794793 323.665295 L 219.214261 319.927072 L 220.947196 316.321946 L 222.802552 312.780390 L 224.775370 309.301583 L 226.956652 305.948672 L 229.264085 302.683399 L 231.675647 299.493210 L 234.229938 296.414965 L 237.003339 293.538132 L 239.856103 290.734253 L 242.708867 287.930374 L 245.916497 285.540828 L 249.125535 283.152926 L 252.450949 280.940194 L 255.927256 278.964724 L 259.497650 277.161316 L 263.186205 275.615151 L 266.940548 274.242147 L 270.748006 273.019784 L 274.614116 271.993534 L 278.546162 271.286960 L 282.502821 270.699723 L 286.459480 270.112485 L 290.444117 269.815655 L 294.440555 269.667710 L 298.440026 269.732762 L 302.439497 269.797814 L 306.438968 269.862866 L 310.395912 270.413762 L 314.345867 271.044526 L 318.295821 271.675290 L 322.202317 272.511631 L 326.069617 273.533390 L 329.936917 274.555149 L 333.804217 275.576908 L 337.625816 276.757463 L 341.442915 277.952867 L 345.215865 279.281343 L 348.988815 280.609820 L 352.761765 281.938296 L 356.528788 283.282178 L 360.219303 284.824935 L 363.909818 286.367692 L 367.494777 288.141779 L 371.078618 289.918317 L 374.566054 291.876676 L 378.047537 293.846265 L 381.435465 295.971308 L 384.805969 298.125305 L 388.176473 300.279302 L 391.546977 302.433299 L 394.877748 304.647490 L 398.183101 306.900185 L 401.488455 309.152880 L 404.793809 311.405575 L 408.082950 313.680667 L 411.255202 316.117225 L 414.427454 318.553783 L 417.599707 320.990341 L 420.771959 323.426899 L 423.944211 325.863457 L 427.116464 328.300016 L 430.269922 330.759561 L 433.288307 333.384319 L 436.306691 336.009078 L 439.325075 338.633836 L 442.343459 341.258595 L 445.281047 343.971250 L 448.150165 346.758392 L 450.993594 349.570985 L 453.753855 352.465973 L 456.514116 355.360962 L 459.274377 358.255951 L 462.034638 361.150940 L 464.794898 364.045928 L 467.555159 366.940917 L 470.313365 369.837836 L 473.030228 372.773591 L 475.747090 375.709347 L 478.392840 378.708347 L 480.991432 381.749287 L 483.590024 384.790228 L 486.188616 387.831169 L 488.787208 390.872109 L 491.269484 394.007690 L 493.718442 397.170379 L 496.115017 400.371827 L 498.423286 403.638614 L 500.731554 406.905401 L 502.893733 410.270456 L 505.049376 413.639907 L 507.205020 417.009358 L 509.360663 420.378809 L 511.461048 423.781309 L 513.409776 427.274511 L 515.358504 430.767713 L 517.164677 434.336666 L 518.969143 437.906527 L 520.773608 441.476387 L 522.578074 445.046248 L 524.280543 448.664448 L 525.901139 452.321450 L 527.454745 456.006024 L 528.877815 459.744322 L 530.300885 463.482620 L 531.723956 467.220918 L 533.140997 470.961278 L 534.305495 474.788019 L 535.469993 478.614759 L 536.448188 482.493147 L 537.420172 486.373256 L 538.114708 490.312057 L 538.797295 494.253386 L 539.479882 498.194715 L 540.110163 502.142371 L 540.387006 506.132780 L 540.663849 510.123188 L 540.940692 514.113596 L 541.082354 518.108688 L 541.082354 522.108688 L 541.082354 526.108688 L 540.983547 530.103595 L 540.572302 534.082399 L 539.858476 538.013282 L 539.020173 541.924452 L 538.181871 545.835621 L 536.970660 549.643389 L 535.590804 553.396424 L 534.069766 557.094677 L 532.283361 560.673609 L 530.273318 564.129722 L 528.068296 567.463379 L 525.623704 570.621688 L 522.889734 573.538638 L 519.931783 576.228321 L 516.638212 578.498209 L 513.344641 580.768097 L 509.811362 582.638820 L 506.117671 584.166556 L 502.318355 585.407569 L 498.427072 586.296013 L 494.477232 586.927492 L 490.527392 587.558972 L 486.532746 587.739839 L 482.534223 587.765498 L 478.534646 587.707334 L 474.535069 587.649170 L 470.565913 587.201523 L 466.605812 586.637967 L 462.645710 586.074411 L 458.716896 585.333857 L 454.805818 584.496343 L 450.944668 583.451587 L 447.083517 582.406831 L 443.222366 581.362075 L 439.385946 580.231574 L 435.561479 579.059630 L 431.737012 577.887686 L 427.913742 576.712081 L 424.135536 575.398628 L 420.364603 574.066146 L 416.673465 572.524879 L 412.982328 570.983612 L 409.291190 569.442345 L 405.608551 567.882143 L 402.003541 566.148965 L 398.404065 564.405053 L 394.901014 562.474085 L 391.397964 560.543117 L 387.894913 558.612149 L 384.393949 556.677648 L 381.011580 554.542332 L 377.629210 552.407016 L 374.246840 550.271700 L 370.864470 548.136384 L 367.561277 545.880727 L 364.261612 543.619707 L 360.961948 541.358686 L 357.662283 539.097665 L 354.419958 536.755832 L 351.195995 534.388119 L 347.972033 532.020406 L 344.748071 529.652692 L 341.570866 527.223692 L 338.435578 524.739749 L 335.337466 522.210660 L 332.298097 519.610230 L 329.287284 516.977821 L 326.360851 514.250920 L 323.449229 511.508803 L 320.644335 508.657036 L 317.839442 505.805270 L 315.034548 502.953503 L 312.229655 500.101736 L 309.489450 497.187873 L 306.754701 494.268772 L 304.019952 491.349672 L 301.285204 488.430571 L 298.550455 485.511470 L 295.815706 482.592369 L 293.144306 479.616541 L 290.543568 476.577435 L 287.942831 473.538329 L 285.342094 470.499223 L 282.765557 467.440224 L 280.287216 464.300507 L 277.808874 461.160790 L 275.330532 458.021073 L 272.852190 454.881356 L 270.509239 451.640049 L 268.187578 448.382766 L 265.865917 445.125483 L 263.544256 441.868201 L 261.313642 438.549315 L 259.153514 435.182737 L 257.085055 431.760698 L 255.105460 428.284895 L 253.209112 424.764498 L 251.412346 421.190756 L 249.615580 417.617014 L 247.818814 414.043272 L 246.118578 410.424336 L 244.524532 406.755682 L 242.930486 403.087029 L 241.336440 399.418376 L 239.800501 395.725684 L 238.336907 392.003066 L 236.959041 388.249144 L 235.679563 384.459298 L 234.515242 380.634246 L 233.456826 376.776817 L 232.532769 372.886545 L 231.692313 368.975838 L 231.096439 365.022666 L 230.569481 361.057528 L 230.042524 357.092391 L 229.562053 353.123121 L 229.381441 349.127201 L 229.282166 345.129726 L 229.309944 341.129822 L 229.337721 337.129919 L 229.365499 333.130015 L 229.914488 329.168264 L 230.565050 325.223811 L 231.398862 321.311681 L 232.460078 317.457821 L 233.644921 313.638857 L 235.130482 309.924950 L 236.818795 306.305262 L 238.699615 302.775033 L 240.580435 299.244804 L 242.587291 295.791547 L 244.868874 292.506067 L 247.150457 289.220587 L 249.488951 285.978357 L 252.043505 282.900330 L 254.787370 279.994525 L 257.649853 277.203891 L 260.727872 274.649326 L 263.805890 272.094761 L 266.883908 269.540195 L 270.157911 267.245032 L 273.490822 265.036912 L 276.954640 263.036420 L 280.473566 261.137957 L 284.045761 259.338118 L 287.718167 257.757645 L 291.420352 256.243767 L 295.204939 254.948813 L 299.004663 253.702463 L 302.855266 252.619479 L 306.740543 251.682161 L 310.666114 250.914115 L 314.591685 250.146070 L 318.517256 249.378024 L 322.495188 248.965522 L 326.478067 248.604097 L 330.473606 248.415228 L 334.470317 248.298899 L 338.469872 248.358537 L 342.469428 248.418174 L 346.468983 248.477812 L 350.460685 248.663018 L 354.436501 249.102204 L 358.404456 249.599102 L 362.352877 250.239388 L 366.293600 250.920927 L 370.207181 251.747902 L 374.107044 252.629762 L 377.949516 253.741252 L 381.791987 254.852743 L 385.634459 255.964234 L 389.470387 257.095544 L 393.219247 258.490552 L 396.968107 259.885560 L 400.716967 261.280569 L 404.465827 262.675577 L 408.157616 264.212058 L 411.825076 265.808848 L 415.454801 267.486231 L 419.029803 269.280489 L 422.604805 271.074746 L 426.179807 272.869004 L 429.754809 274.663262 L 433.274801 276.561933 L 436.776221 278.495856 L 440.238318 280.497278 L 443.647609 282.589343 L 447.056899 284.681408 L 450.466190 286.773473 L 453.875481 288.865538 L 457.173607 291.127247 L 460.452707 293.417989 L 463.703330 295.748393 L 466.922072 298.123199 L 470.134238 300.506538 L 473.251263 303.013360 L 476.368289 305.520181 L 479.485314 308.027002 L 482.602340 310.533823 L 485.695424 313.068844 L 488.674900 315.737688 L 491.654375 318.406532 L 494.633851 321.075375 L 497.613326 323.744219 L 500.552048 326.456558 L 503.408967 329.256203 L 506.265886 332.055849 L 508.974842 334.998867 L 511.683106 337.942557 L 514.391369 340.886246 L 517.099632 343.829936 L 519.754319 346.820822 L 522.332943 349.878714 L 524.903413 352.943255 L 527.380556 356.083918 L 529.857699 359.224581 L 532.334841 362.365244 L 534.811984 365.505908 L 537.289126 368.646571 L 539.766269 371.787234 L 542.212085 374.950866 L 544.462430 378.257820 L 546.712776 381.564774 L 548.963121 384.871728 L 551.213466 388.178683 L 553.355894 391.555290 L 555.442573 394.967881 L 557.429978 398.437230 L 559.312330 401.966642 L 561.138069 405.524205 L 562.816185 409.155172 L 564.494302 412.786140 L 566.172418 416.417107 L 567.838643 420.052930 L 569.181488 423.820790 L 570.515631 427.591485 L 571.650351 431.427161 L 572.768540 435.267192 L 573.670720 439.164123 L 574.505277 443.073447 L 575.043698 447.037044 L 575.582119 451.000641 L 576.120541 454.964239 L 576.524710 458.940096 L 576.713136 462.935655 L 576.798884 466.933635 L 576.798884 470.933635 L 576.798884 474.933635 L 576.736022 478.929866 L 576.258123 482.901215 L 575.663951 486.854974 L 574.945775 490.789974 L 573.951432 494.663330 L 572.849133 498.506427 L 571.566472 502.295197 L 570.005872 505.973199 L 568.288962 509.584213 L 566.330031 513.071703 L 564.203185 516.454795 L 561.939389 519.752356 L 559.383218 522.829041 L 556.720341 525.810151 L 553.942717 528.688485 L 550.875262 531.255598 L 547.806762 533.821589 L 544.724304 536.368774 L 541.379674 538.562731 L 538.035043 540.756687 L 534.690413 542.950644 L 531.145409 544.802207 L 527.538770 546.525104 L 523.854900 548.083662 L 520.171030 549.642220 L 516.435219 551.060929 L 512.627105 552.284967 L 508.771199 553.347643 L 504.879880 554.255521 L 500.938012 554.934986 L 496.996143 555.614452 L 493.048683 556.246131 L 489.056437 556.495072 L 485.064191 556.744013 L 481.071945 556.992954 L 477.074373 557.050244 L 473.074463 557.023399 L 469.074553 556.996553 L 465.077113 556.915445 L 461.091304 556.578806 L 457.119850 556.123025 L 453.168145 555.503325 L 449.216440 554.883626 L 445.264735 554.263926 L 441.361123 553.394595 L 437.465919 552.486414 L 433.610731 551.419866 L 429.755543 550.353318 L 425.900355 549.286769 L 422.059462 548.172993 L 418.259947 546.922520 L 414.470675 545.642280 L 410.706217 544.289925 L 406.962425 542.884087 L 403.266646 541.353984 L 399.570866 539.823882 L 395.875086 538.293780 L 392.199869 536.716977 L 388.575745 535.024131 L 384.951622 533.331285 L 381.327498 531.638438 L 377.732750 529.886657 L 374.199289 528.011916 L 370.665828 526.137176 L 367.132366 524.262435 L 363.614964 522.358644 L 360.147983 520.363639 L 356.695636 518.344679 L 353.337911 516.170815 L 349.980187 513.996950 L 346.622462 511.823086 L 343.264737 509.649222 L 339.999069 507.339675 L 336.738208 505.023042 L 333.477347 502.706410 L 330.216486 500.389778 L 327.066775 497.926573 L 323.956295 495.411636 L 320.913870 492.815873 L 317.905984 490.179090 L 314.898099 487.542306 L 311.890214 484.905523 L 308.948292 482.196370 L 306.044788 479.445068 L 303.141284 476.693765 L 300.237780 473.942463 L 297.384792 471.139442 L 294.565956 468.301456 L 291.824374 465.390421 L 289.148410 462.417339 L 286.472446 459.444257 L 283.796482 456.471175 L 281.167929 453.456951 L 278.601458 450.388852 L 276.034987 447.320754 L 273.468516 444.252655 L 270.902046 441.184557 L 268.335575 438.116459 L 265.830018 435.000151 L 263.433558 431.797499 L 261.037097 428.594847 L 258.640637 425.392195 L 256.325204 422.132388 L 254.112166 418.800352 L 252.023054 415.391807 L 250.035791 411.920383 L 248.048528 408.448959 L 246.061266 404.977534 L 244.228560 401.423220 L 242.436276 397.847229 L 240.643992 394.271237 L 238.871221 390.686008 L 237.241684 387.032981 L 235.687957 383.348686 L 234.268403 379.609052 L 233.004963 375.816359 L 231.851794 371.986189 L 230.870105 368.109158 L 229.954496 364.216537 L 229.261436 360.277036 L 228.696254 356.320030 L 228.305153 352.339196 L 228.137482 348.345004 L 228.051479 344.345928 L 227.965475 340.346853 L 228.040456 336.351747 L 228.323438 332.361769 L 228.922439 328.410775 L 229.650443 324.478495 L 230.587916 320.589904 L 231.675402 316.743866 L 232.919407 312.942228 L 234.431856 309.242092 L 236.041169 305.580977 L 237.844879 302.010735 L 239.758451 298.501156 L 241.819189 295.072839 L 243.958747 291.693585 L 246.146964 288.346534 L 248.607618 285.192935 L 251.068271 282.039336 L 253.528924 278.885737 L 256.178675 275.893009 L 258.901726 272.963374 L 261.864986 270.276537 L 264.828246 267.589700 L 267.791505 264.902863 L 270.871894 262.359094 L 274.090841 259.984567 L 277.309789 257.610040 L 280.528736 255.235513 L 283.871552 253.040172 L 287.238482 250.881034 L 290.669622 248.825000 L 294.152945 246.864719 L 297.740539 245.095774 L 301.328134 243.326830 L 304.915728 241.557885 L 308.612157 240.033554 L 312.357207 238.638667 L 316.205098 237.546086 L 320.052989 236.453505 L 323.910528 235.406446 L 327.870805 234.844125 L 331.831083 234.281804 L 335.791360 233.719483 L 339.779928 233.454308 L 343.775668 233.287737 L 347.775294 233.342403 L 351.774921 233.397069 L 355.774547 233.451734 L 359.747613 233.844949 L 363.706828 234.414699 L 367.666043 234.984450 L 371.613927 235.610903 L 375.488038 236.606525 L 379.362149 237.602147 L 383.236260 238.597770 L 387.045074 239.808239 L 390.818016 241.136737 L 394.518285 242.653890 L 398.207439 244.199901 L 401.896592 245.745911 L 405.584070 247.295607 L 409.174234 249.059330 L 412.763686 250.824418 L 416.264135 252.760098 L 419.764584 254.695778 L 423.265033 256.631458 L 426.765482 258.567138 L 430.130227 260.728946 L 433.485067 262.907260 L 436.674539 265.319431 L 439.846471 267.756405 L 443.018404 270.193379 L 446.190337 272.630353 L 446.720144 273.037400" fill="none" id="8" stroke="black" stroke-width="0.5" /><path d="M 307.854004 484.714570 L 304.770219 482.166969 L 301.686435 479.619368 L 298.629008 477.040998 L 295.638287 474.384762 L 292.647567 471.728526 L 289.781836 468.938703 L 286.932812 466.131024 L 284.083788 463.323344 L 281.234764 460.515665 L 278.512534 457.587213 L 275.846676 454.605066 L 273.180818 451.622920 L 270.609347 448.559280 L 268.047901 445.486985 L 265.486455 442.414691 L 263.033240 439.257137 L 260.646106 436.047528 L 258.258972 432.837918 L 255.871838 429.628309 L 253.681250 426.281536 L 251.513633 422.920312 L 249.466932 419.483597 L 247.420231 416.046881 L 245.373530 412.610165 L 243.391344 409.137302 L 241.529021 405.597280 L 239.751222 402.016012 L 238.106693 398.369709 L 236.462165 394.723406 L 234.817636 391.077103 L 233.285417 387.384711 L 231.894540 383.634316 L 230.613630 379.846467 L 229.426166 376.026791 L 228.238701 372.207114 L 227.051237 368.387438 L 226.080810 364.507212 L 225.119450 360.624457 L 224.158090 356.741702 L 223.196730 352.858947 L 222.235370 348.976192 L 221.334373 345.079214 L 220.461105 341.175702 L 219.587838 337.272190 L 218.723690 333.366780 L 217.966545 329.439092 L 217.209400 325.511404 L 216.452255 321.583716 L 215.801369 317.638075 L 215.226095 313.679659 L 214.650822 309.721243 L 214.117546 305.758391 L 213.853348 301.767126 L 213.589151 297.775861 L 213.324953 293.784595 L 213.271324 289.786368 L 213.271324 285.786368 L 213.271324 281.786368 L 213.653781 277.809054 L 214.272857 273.860297 L 215.112147 269.951000 L 216.180275 266.097647 L 217.679113 262.389077 L 219.177950 258.680508 L 221.005634 255.127094 L 223.193113 251.784687 L 225.492895 248.511921 L 228.015914 245.417699 L 230.703312 242.454948 L 233.518055 239.620497 L 236.500793 236.955300 L 239.517809 234.330837 L 242.679072 231.882221 L 245.986420 229.632454 L 249.322319 227.431662 L 252.909544 225.661968 L 256.524711 223.961299 L 260.340823 222.766629 L 264.243720 221.890618 L 268.211427 221.386420 L 272.200862 221.122059 L 276.197789 221.068040 L 280.196727 221.160194 L 284.195665 221.252347 L 288.172926 221.630843 L 292.140160 222.141775 L 296.107395 222.652707 L 300.048029 223.322914 L 303.965995 224.128857 L 307.883961 224.934800 L 311.780865 225.823345 L 315.606406 226.991777 L 319.431948 228.160210 L 323.257489 229.328642 L 327.033627 230.641823 L 330.775270 232.056075 L 334.516913 233.470326 L 338.258556 234.884578 L 341.971847 236.368119 L 345.631622 237.982444 L 349.291397 239.596769 L 352.951173 241.211094 L 356.610948 242.825420 L 360.219469 244.545615 L 363.755765 246.415005 L 367.292060 248.284394 L 370.828355 250.153783 L 374.364650 252.023172 L 377.900946 253.892561 L 381.381010 255.864240 L 384.854340 257.848171 L 388.327670 259.832102 L 391.800999 261.816033 L 395.274329 263.799964 L 398.747658 265.783894 L 402.220988 267.767825 L 405.694318 269.751756 L 409.167647 271.735687 L 412.640977 273.719618 L 416.114306 275.703548 L 419.587636 277.687479 L 423.060966 279.671410 L 426.534295 281.655341 L 430.007625 283.639271 L 433.480954 285.623202 L 436.954284 287.607133 L 440.427614 289.591064 L 443.900943 291.574995 L 447.374273 293.558925 L 450.824395 295.582510 L 454.255102 297.639266 L 457.685810 299.696022 L 461.116518 301.752778 L 464.547225 303.809534 L 467.977933 305.866289 L 471.408641 307.923045 L 474.839348 309.979801 L 478.311946 311.964997 L 481.784919 313.949553 L 485.257891 315.934108 L 488.730864 317.918664 L 492.203837 319.903220 L 495.676809 321.887776 L 499.149782 323.872331 L 502.622754 325.856887 L 505.907020 328.096624 L 509.341611 330.146889 L 512.776201 332.197155 L 516.210792 334.247420 L 519.645382 336.297685 L 523.079973 338.347951 L 526.514563 340.398216 L 529.949154 342.448481 L 530.869754 342.998030" fill="none" id="9" stroke="black" stroke-width="0.5" /><path d="M 416.483924 358.029530 L 416.458945 362.029452 L 416.433966 366.029374 L 416.285826 370.024557 L 416.003349 374.014570 L 415.720873 378.004584 L 415.312440 381.983182 L 414.872975 385.958967 L 414.433510 389.934753 L 413.994044 393.910538 L 413.554579 397.886324 L 413.115114 401.862109 L 412.675649 405.837895 L 412.236183 409.813680 L 411.895602 413.798796 L 411.583666 417.786614 L 411.271729 421.774432 L 410.959792 425.762251 L 410.688620 429.752629 L 410.499642 433.748153 L 410.486914 437.748133 L 410.474186 441.748112 L 410.461458 445.748092 L 410.448730 449.748072 L 410.445881 453.747856 L 410.617303 457.744181 L 410.788726 461.740506 L 410.814634 462.344490" fill="none" id="11" stroke="black" stroke-width="0.5" /><path d="M 291.696524 495.793310 L 291.804027 491.825150 L 292.768197 487.943587 L 294.025805 484.149984 L 295.521706 480.441387 L 297.068528 476.752574 L 298.661902 473.085934 L 300.551341 469.560310 L 302.440779 466.034687 L 304.446244 462.578263 L 306.650351 459.240312 L 308.854457 455.902362 L 311.058564 452.564411 L 313.262671 449.226461 L 315.466777 445.888510 L 317.755837 442.610471 L 320.160207 439.413754 L 322.757431 436.371815 L 325.357938 433.332513 L 327.958446 430.293210 L 330.558953 427.253908 L 333.173883 424.227549 L 335.915343 421.314750 L 338.656803 418.401951 L 341.398262 415.489151 L 344.195135 412.631255 L 347.082437 409.862955 L 349.969739 407.094655 L 352.857042 404.326355 L 355.783768 401.600956 L 358.785734 398.957436 L 361.813899 396.344998 L 364.927372 393.833765 L 368.040844 391.322532 L 371.154316 388.811299 L 374.277901 386.313321 L 377.522262 383.973636 L 380.770996 381.640232 L 384.090742 379.408800 L 387.415103 377.184588 L 390.833765 375.107870 L 394.253346 373.032744 L 397.758846 371.106227 L 401.264346 369.179710 L 404.835328 367.377904 L 408.411533 365.586044 L 412.068604 363.967924 L 415.742234 362.385381 L 419.415864 360.802838 L 423.089493 359.220294 L 426.836150 357.826246 L 430.617104 356.520724 L 434.398058 355.215202 L 438.179012 353.909680 L 442.019307 352.795460 L 445.875353 351.732019 L 449.783698 350.881554 L 453.702676 350.086476 L 457.656423 349.479937 L 461.624666 348.995431 L 465.610475 348.658792 L 469.605779 348.509295 L 473.605192 348.440809 L 477.604606 348.372323 L 481.600634 348.404583 L 485.586427 348.741411 L 489.553341 349.235655 L 493.505744 349.850888 L 497.411379 350.709562 L 501.295176 351.660620 L 505.129763 352.799017 L 508.902222 354.121527 L 512.634271 355.559305 L 516.285443 357.192996 L 519.874332 358.955043 L 523.417131 360.812077 L 526.959930 362.669110 L 530.458969 364.603645 L 533.879008 366.678093 L 537.220984 368.873773 L 540.524714 371.128849 L 543.828444 373.383925 L 547.093923 375.691653 L 550.259684 378.136639 L 553.425445 380.581625 L 556.591207 383.026610 L 559.756968 385.471596 L 562.090224 387.273620" fill="none" id="12" stroke="black" stroke-width="0.5" /><path d="M 249.649284 423.982280 L 251.193516 420.304226 L 252.977482 416.724077 L 254.761448 413.143928 L 256.545413 409.563779 L 258.436327 406.039838 L 260.373290 402.540099 L 262.310253 399.040360 L 264.394759 395.627277 L 266.507964 392.231049 L 268.687950 388.878516 L 270.953777 385.582150 L 273.219603 382.285784 L 275.485430 378.989418 L 277.751257 375.693052 L 280.017084 372.396686 L 282.447211 369.222778 L 284.958683 366.109498 L 287.470154 362.996218 L 290.039030 359.931892 L 292.716638 356.960290 L 295.479669 354.069510 L 298.298558 351.231576 L 301.117447 348.393642 L 303.936335 345.555709 L 306.866232 342.833148 L 309.810703 340.125733 L 312.755173 337.418318 L 315.712076 334.725101 L 318.784291 332.163559 L 321.880127 329.632022 L 325.091315 327.247013 L 328.324302 324.893402 L 331.681325 322.718455 L 335.038348 320.543508 L 338.395372 318.368561 L 341.752395 316.193614 L 345.243026 314.241264 L 348.741241 312.301550 L 352.327481 310.531840 L 355.930554 308.794640 L 359.577922 307.153557 L 363.239354 305.542994 L 366.949716 304.050732 L 370.679079 302.604407 L 374.466262 301.321068 L 378.273332 300.093789 L 382.136420 299.059447 L 386.010184 298.063581 L 389.953408 297.392026 L 393.904538 296.781868 L 397.889257 296.432561 L 401.879548 296.210630 L 405.879548 296.210630 L 409.876988 296.314009 L 413.872084 296.512004 L 417.824979 297.080970 L 421.762466 297.785385 L 425.621464 298.837376 L 429.450793 299.982764 L 433.200806 301.374670 L 436.876194 302.945793 L 440.502007 304.634367 L 444.011768 306.553110 L 445.617784 307.431100" fill="none" id="13" stroke="black" stroke-width="0.5" /><path d="M 229.365814 358.714570 L 229.466373 354.724243 L 230.490182 350.866490 L 231.951443 347.146661 L 233.656889 343.532453 L 235.563081 340.015859 L 237.845869 336.733470 L 240.157004 333.468711 L 242.468140 330.203952 L 244.779275 326.939193 L 247.090411 323.674434 L 249.452717 320.447879 L 251.926155 317.304298 L 254.399594 314.160717 L 257.062264 311.179572 L 259.794806 308.258406 L 262.527348 305.337239 L 265.354676 302.509464 L 268.235026 299.733931 L 271.189839 297.038016 L 274.158186 294.357225 L 277.274522 291.849547 L 280.406292 289.362340 L 283.674646 287.056290 L 286.942999 284.750240 L 290.211353 282.444191 L 293.485250 280.146639 L 296.912699 278.084457 L 300.340148 276.022276 L 303.767597 273.960094 L 307.195046 271.897912 L 310.707341 269.984668 L 314.229103 268.088039 L 317.821566 266.330037 L 321.424640 264.592839 L 325.121239 263.066410 L 328.826927 261.560463 L 332.616842 260.281606 L 336.412297 259.020175 L 340.276754 257.987718 L 344.149364 256.989659 L 348.066141 256.177958 L 351.997975 255.454086 L 355.961456 254.914810 L 359.940245 254.531047 L 363.932803 254.287156 L 367.931189 254.234250 L 371.930462 254.264080 L 375.925717 254.458851 L 379.887425 254.948788 L 383.819547 255.677962 L 387.688470 256.693555 L 391.507863 257.873852 L 395.286162 259.184813 L 398.984765 260.708078 L 402.610115 262.392796 L 405.491804 263.824800" fill="none" id="14" stroke="black" stroke-width="0.5" /><path d="M 219.161094 308.635830 L 219.866277 304.849926 L 221.618318 301.254046 L 223.370359 297.658166 L 225.249820 294.131681 L 227.320118 290.709129 L 229.462023 287.334403 L 231.830581 284.111061 L 234.339865 280.999608 L 236.946463 277.965527 L 239.553062 274.931447 L 242.267392 271.996089 L 245.062869 269.135090 L 247.973884 266.399461 L 251.053129 263.846375 L 254.171945 261.345787 L 257.474317 259.088722 L 260.939105 257.090036 L 264.404758 255.092725 L 267.920723 253.189792 L 271.510725 251.425738 L 275.100727 249.661684 L 278.740053 248.004488 L 282.411456 246.416786 L 286.082860 244.829085 L 289.800948 243.358909 L 293.561079 241.994571 L 297.321210 240.630233 L 301.089465 239.289670 L 304.898171 238.067477 L 308.738428 236.953979 L 312.609598 235.946984 L 316.480769 234.939989 L 320.378706 234.068324 L 324.341747 233.525824 L 328.304788 232.983324 L 332.274986 232.530188 L 336.273853 232.434979 L 337.428814 232.407480" fill="none" id="15" stroke="black" stroke-width="0.5" /><path d="M 465.176844 310.974410 L 462.174307 308.339545 L 459.200945 305.689102 L 455.708603 303.777415 L 451.983670 302.333580 L 448.170301 301.126015 L 444.344537 299.963290 L 440.452322 299.040978 L 436.560107 298.118665 L 432.648146 297.289061 L 428.717899 296.545315 L 424.787652 295.801568 L 420.855616 295.068703 L 416.894114 294.515078 L 412.932612 293.961453 L 408.958312 293.524373 L 405.334324 293.234250" fill="none" id="16" stroke="black" stroke-width="0.5" /><path d="M 373.554794 383.683070 L 376.082275 386.783367 L 378.490230 389.975605 L 380.838411 393.213821 L 383.209653 396.434562 L 385.692059 399.571067 L 388.174464 402.707572 L 390.656869 405.844078 L 393.139274 408.980583 L 395.733278 412.023992 L 398.373814 415.028583 L 401.014349 418.033175 L 403.654885 421.037767 L 406.295421 424.042358 L 409.025200 426.963482 L 411.846668 429.798851 L 414.027234 431.990160" fill="none" id="17" stroke="black" stroke-width="0.5" /><path d="M 166.783144 531.368110 L 169.972715 533.742105 L 171.759514 534.840550" fill="none" id="18" stroke="black" stroke-width="0.5" /><path d="M 537.901254 379.809050 L 541.612246 378.316220 L 545.323237 376.823390 L 549.007257 375.270748 L 552.582853 373.477676 L 556.158450 371.684604 L 559.734047 369.891532 L 563.309644 368.098459 L 566.885240 366.305387 L 570.460837 364.512315 L 574.036434 362.719243 L 577.612031 360.926170 L 581.202367 359.163837 L 584.839163 357.498389 L 588.475959 355.832942 L 592.138433 354.226244 L 595.830945 352.688273 L 599.523457 351.150303 L 603.215969 349.612332 L 606.908482 348.074362 L 610.634037 346.618509 L 614.362680 345.170331 L 618.091323 343.722152 L 621.819966 342.273974 L 625.548609 340.825796 L 629.277252 339.377617 L 630.153214 339.037400" fill="none" id="19" stroke="black" stroke-width="0.5" /><path d="M 618.153214 338.517720 L 617.131440 342.385016 L 616.109666 346.252312 L 615.444554 348.769680" fill="none" id="20" stroke="black" stroke-width="0.5" /><path d="M 540.168964 378.958660 L 538.982572 375.148687 L 537.066207 371.637626 L 534.399543 368.662282 L 531.700899 365.709771 L 530.877624 364.809050" fill="none" id="21" stroke="black" stroke-width="0.5" /><path d="M 302.783144 487.643700 L 304.390590 483.980898 L 305.998036 480.318096 L 307.605482 476.655294 L 309.212927 472.992492 L 310.820373 469.329690 L 312.474779 465.688519 L 314.213775 462.086313 L 315.952771 458.484106 L 317.877934 454.980648 L 319.884965 451.520615 L 321.984070 448.117901 L 324.202870 444.789699 L 326.421670 441.461497 L 328.862588 438.296557 L 331.376790 435.185482 L 333.890992 432.074406 L 336.405194 428.963331 L 338.923524 425.855754 L 341.579409 422.864722 L 344.235294 419.873689 L 346.891179 416.882656 L 349.579271 413.921315 L 352.344869 411.031425 L 355.147634 408.178906 L 358.052741 405.429297 L 360.957848 402.679687 L 363.862955 399.930078 L 366.768062 397.180468 L 369.765699 394.532179 L 372.766962 391.887860 L 375.865761 389.359678 L 378.988874 386.860444 L 382.202767 384.481190 L 385.456925 382.155151 L 388.803021 379.967097 L 392.202840 377.859676 L 395.688918 375.903331 L 399.231941 374.046725 L 402.824704 372.291058 L 406.455510 370.612592 L 410.158382 369.109308 L 413.919247 367.746996 L 417.680112 366.384684 L 421.440977 365.022372 L 425.270697 363.882289 L 429.142978 362.879571 L 433.015258 361.876853 L 436.887539 360.874135 L 440.796969 360.033060 L 444.718487 359.244584 L 448.673982 358.654813 L 452.634686 358.095510 L 456.616492 357.715918 L 460.600123 357.360691 L 464.598654 357.252296 L 468.168964 357.155510" fill="none" id="22" stroke="black" stroke-width="0.5" /><path d="M 537.491804 382.785430 L 534.649128 380.002010 L 532.020190 376.991084 L 529.228289 374.126596 L 526.436389 371.262108 L 523.499610 368.554645 L 520.297754 366.164742 L 516.929255 364.011392 L 513.448129 362.045219 L 509.860442 360.276463 L 506.120149 358.859433 L 502.312009 357.651077 L 498.449379 356.611806 L 494.544806 355.750530 L 490.624534 354.955882 L 486.669747 354.378652 L 482.696111 353.920156 L 478.712602 353.615069 L 474.712976 353.560418 L 470.713349 353.505767 L 466.713723 353.451116 L 462.723255 353.614315 L 458.746031 354.032056 L 454.803152 354.705635 L 450.911411 355.613709 L 447.046080 356.642893 L 443.180750 357.672077 L 439.373134 358.889241 L 435.596231 360.206436 L 435.539044 360.226380" fill="none" id="23" stroke="black" stroke-width="0.5" /><path d="M 146.909124 119.187010 L 142.982843 118.561205 L 139.282154 119.960039 L 136.060130 122.312538 L 132.972979 124.856059 L 129.885828 127.399580 L 126.939860 130.103402 L 124.026762 132.844544 L 121.195076 135.667121 L 118.453089 138.579424 L 116.011409 141.733708 L 113.884040 145.115206 L 112.027044 148.654523 L 110.527890 152.362964 L 109.621751 156.255769 L 109.491988 160.237893 L 109.825921 164.176896 L 111.421112 167.839829 L 113.789885 171.055467 L 116.394064 174.088613 L 119.203665 176.935742 L 122.212924 179.564611 L 125.550598 181.760165 L 129.170629 183.461746 L 132.829943 185.059777 L 136.667691 186.187472 L 140.505438 187.315167 L 144.446561 187.995956 L 148.389687 188.668082 L 152.354708 189.169405 L 155.476054 189.438970" fill="none" id="24" stroke="black" stroke-width="0.5" /><path d="M 123.161094 135.911420 L 120.496451 138.722200 L 118.677806 142.281696 L 117.122269 145.966842 L 115.961361 149.793048 L 114.872361 153.636282 L 114.751205 157.634447 L 116.112270 161.287617 L 119.009881 164.040171 L 122.347812 166.233234 L 125.858152 168.150920 L 129.554801 169.668700 L 133.281248 171.122518 L 137.145025 172.155318 L 141.011991 173.178342 L 144.925951 173.983031 L 148.871372 174.641552 L 152.816793 175.300073 L 156.795615 175.693909 L 160.780946 176.036160 L 164.777246 176.157007 L 168.776890 176.210337 L 172.776535 176.263666 L 176.774798 176.254140 L 180.768242 176.025212 L 184.728277 175.462762 L 188.687783 174.895040 L 192.635302 174.258895 L 196.551980 173.446716 L 200.468658 172.634536 L 203.728024 171.958660" fill="none" id="25" stroke="black" stroke-width="0.5" /><path d="M 117.649284 154.242120 L 119.755883 156.894959 L 122.704498 159.597860 L 125.902714 161.959985 L 129.571253 163.496679 L 133.512875 164.126309 L 137.494926 164.423422 L 141.494609 164.473758 L 145.491678 164.465939 L 149.470717 164.056980 L 153.449757 163.648022 L 157.381317 162.912040 L 161.312370 162.172565 L 165.222422 161.334439 L 169.113830 160.408727 L 172.928464 159.219174 L 176.708995 157.912428 L 180.489526 156.605683 L 184.153751 155.008287 L 187.792134 153.346308 L 191.430516 151.684329 L 195.068899 150.022350 L 198.646503 148.236670 L 202.185427 146.372262 L 205.724351 144.507854 L 209.263275 142.643446 L 212.744723 140.673939 L 216.223908 138.700295 L 218.058734 137.659450" fill="none" id="27" stroke="black" stroke-width="0.5" /><path d="M 227.413064 126.344490 L 226.551068 129.905198 L 224.016545 132.952417 L 220.968313 135.542452 L 217.717403 137.864873 L 214.397997 140.096787 L 210.958578 142.138941 L 207.435029 144.028529 L 203.872511 145.847447 L 200.309992 147.666365 L 196.747474 149.485283 L 193.157871 151.249088 L 189.541363 152.958143 L 185.924855 154.667198 L 182.237475 156.213546 L 178.523009 157.697710 L 174.736062 158.980783 L 170.928878 160.207710 L 167.074664 161.270885 L 163.196642 162.251159 L 159.281282 163.044298 L 155.323996 163.627294 L 151.358377 164.131580 L 147.365517 164.352360 L 143.365517 164.352360 L 139.365517 164.352360 L 135.421809 163.687617 L 131.478770 163.014981 L 127.665034 161.824800" fill="none" id="28" stroke="black" stroke-width="0.5" /><path d="M 231.161094 128.092520 L 234.697404 126.268378 L 238.405303 124.767883 L 242.098260 123.232902 L 245.728767 121.553790 L 249.359275 119.874679 L 252.989782 118.195567 L 256.620289 116.516455 L 260.298673 114.949580 L 264.023357 113.491251 L 267.748042 112.032921 L 271.472726 110.574591 L 275.252429 109.267003 L 279.040806 107.983181 L 282.829183 106.699359 L 286.617560 105.415537 L 290.405937 104.131715 L 294.194315 102.847893 L 297.982692 101.564071 L 301.771069 100.280249 L 305.559446 98.996428 L 309.347823 97.712606 L 313.151415 96.475545 L 316.969935 95.284370 L 320.788456 94.093194 L 321.901254 93.746060" fill="none" id="29" stroke="black" stroke-width="0.5" /><path d="M 172.704404 550.053150 L 170.824374 546.522500 L 168.944345 542.991850 L 167.064315 539.461201 L 165.184285 535.930551 L 163.380632 532.360574 L 161.598742 528.779392 L 159.816851 525.198209 L 158.034961 521.617027 L 156.253070 518.035845 L 154.471180 514.454663 L 152.689289 510.873481 L 150.993676 507.250663 L 149.298864 503.627458 L 147.604051 500.004254 L 145.909238 496.381049 L 144.214426 492.757845 L 142.519613 489.134640 L 140.824800 485.511436 L 139.129988 481.888232 L 137.452498 478.257095 L 135.816691 474.606871 L 134.180883 470.956647 L 132.545076 467.306423 L 130.909269 463.656199 L 129.273461 460.005975 L 127.715089 456.322205 L 126.170957 452.632265 L 124.626826 448.942325 L 123.150384 445.224874 L 121.682561 441.503920 L 120.214738 437.782967 L 118.746915 434.062013 L 117.279092 430.341059 L 115.811270 426.620106 L 114.343447 422.899152 L 112.875624 419.178199 L 111.407801 415.457245 L 109.939978 411.736291 L 108.472155 408.015338 L 107.004332 404.294384 L 105.536509 400.573431 L 104.068686 396.852477 L 102.600863 393.131523 L 101.133040 389.410570 L 99.665217 385.689616 L 98.197394 381.968663 L 96.729571 378.247709 L 95.261748 374.526755 L 93.788353 370.808094 L 92.212676 367.131514 L 90.636999 363.454934 L 89.061322 359.778354 L 87.561401 356.072971 L 86.296490 352.278238 L 85.031579 348.483505 L 83.766668 344.688771 L 82.437563 340.917553 L 80.952001 337.203646 L 79.466438 333.489739 L 77.980875 329.775833 L 76.569029 326.035709 L 75.375929 322.217789 L 74.182829 318.399869 L 72.989729 314.581949 L 72.025958 311.186985 L 71.201365 308.307511 L 69.871562 304.535028 L 68.541760 300.762545 L 67.211957 296.990063 L 65.882155 293.217580 L 64.552352 289.445097 L 63.222550 285.672615 L 61.892747 281.900132 L 60.645925 278.102712 L 59.675782 274.222142 L 58.705640 270.341572 L 57.735497 266.461002 L 56.741362 262.587174 L 55.548262 258.769254 L 54.355162 254.951334 L 53.162062 251.133414 L 51.968962 247.315494 L 51.579124 244.030105 L 50.498258 240.178906 L 49.417393 236.327708 L 48.336527 232.476510 L 47.255661 228.625311 L 46.174795 224.774113 L 45.093929 220.922915 L 44.013063 217.071716 L 42.932197 213.220518 L 42.006524 209.329303 L 41.090367 205.435634 L 40.174210 201.541965 L 39.258052 197.648297 L 38.219455 193.787012 L 37.090790 189.949550 L 35.962124 186.112088 L 34.833459 182.274626 L 34.299335 179.394568 L 33.927018 176.368382 L 33.049096 172.465914 L 32.171173 168.563447 L 31.293250 164.660979 L 30.415328 160.758512 L 29.537405 156.856045 L 28.659482 152.953577 L 27.781560 149.051110 L 26.903637 145.148642 L 25.937054 141.267227 L 24.966911 137.386657 L 23.996769 133.506087 L 23.026626 129.625517 L 22.869754 128.998030" fill="none" id="31" stroke="black" stroke-width="0.5" /><path d="M 6.027234 93.415350 L 8.686332 90.496849 L 11.734091 87.906257 L 15.294652 86.130001 L 16.861884 85.431100" fill="none" id="32" stroke="black" stroke-width="0.5" /><path d="M 187.381564 36.840550 L 191.259413 37.414045 L 195.144935 38.262028 L 197.586294 38.588580" fill="none" id="33" stroke="black" stroke-width="0.5" /><path d="M 622.436684 337.667320 L 621.190682 340.625606 L 620.705112 344.596025 L 620.219542 348.566443 L 620.200464 348.722440" fill="none" id="34" stroke="black" stroke-width="0.5" /><path d="M 305.019364 487.478340 L 305.380567 483.517074 L 306.496679 479.678423 L 307.889186 475.931587 L 309.442552 472.245525 L 310.995919 468.559463 L 312.617234 464.902815 L 314.241789 461.247569 L 315.884329 457.600752 L 317.654026 454.013528 L 319.423722 450.426304 L 321.296130 446.893599 L 323.275485 443.417660 L 325.254840 439.941720 L 327.283518 436.495979 L 329.479319 433.152559 L 331.675120 429.809139 L 333.870921 426.465719 L 336.147330 423.178627 L 338.532005 419.967190 L 340.916680 416.755754 L 343.301355 413.544317 L 345.720267 410.359599 L 348.255946 407.266003 L 350.791625 404.172408 L 353.327304 401.078812 L 355.862982 397.985217 L 358.495317 394.974778 L 361.175655 392.005638 L 363.855992 389.036499 L 366.536329 386.067359 L 369.216667 383.098219 L 369.712274 382.549210" fill="none" id="35" stroke="black" stroke-width="0.5" /><path d="M 309.712274 482.234250 L 310.767534 478.375957 L 311.822795 474.517664 L 312.878055 470.659371 L 314.103118 466.857434 L 315.564227 463.133839 L 317.152559 459.468774 L 319.029595 455.936532 L 320.906631 452.404290 L 322.988399 448.995930 L 325.246521 445.694281 L 327.504644 442.392632 L 329.943456 439.224417 L 332.434563 436.094818 L 334.925670 432.965220 L 337.416776 429.835621 L 339.907883 426.706022 L 342.398990 423.576424 L 344.890096 420.446825 L 347.381203 417.317226 L 350.155845 414.444055 L 353.020207 411.652025 L 355.884569 408.859995 L 358.691800 406.011686 L 361.440479 403.105698 L 364.332739 400.347899 L 367.496809 397.913400 L 370.416949 395.225708 L 373.277547 392.451457 L 376.389872 389.938802 L 379.775748 387.815715 L 383.195841 385.741356 L 386.770404 383.955100 L 390.237975 381.979651 L 393.895159 380.361468 L 397.628783 378.926181 L 401.362407 377.490893 L 405.096031 376.055605 L 408.771652 374.479709 L 412.434267 372.872498 L 416.196638 371.514350 L 419.959009 370.156203 L 423.721380 368.798056 L 427.535264 367.608194 L 431.413207 366.627602 L 435.291150 365.647009 L 439.169092 364.666417 L 443.047035 363.685824 L 446.947506 362.805461 L 450.872065 362.032264 L 454.796625 361.259068 L 458.749954 360.656171 L 462.710713 360.097249 L 466.671471 359.538327 L 470.632229 358.979405 L 474.599254 358.477805 L 478.587220 358.167769 L 482.586202 358.105522 L 486.585948 358.060480 L 489.334324 358.029530" fill="none" id="36" stroke="black" stroke-width="0.5" /><path d="M 536.767394 379.950790 L 535.199349 376.270948 L 532.812731 373.108817 L 529.876073 370.424578 L 526.664432 368.040178 L 523.390847 365.743482 L 520.069809 363.513974 L 516.748771 361.284467 L 513.315455 359.233929 L 509.862924 357.214021 L 506.374053 355.263924 L 502.739085 353.594490 L 498.984082 352.237497 L 495.166375 351.043717 L 491.345654 349.862259 L 487.407943 349.159098 L 484.168964 348.580710" fill="none" id="37" stroke="black" stroke-width="0.5" /><path d="M 301.239834 481.029530 L 297.967546 478.772716 L 294.914792 476.189099 L 291.911359 473.547245 L 288.907927 470.905391 L 285.904494 468.263538 L 282.901061 465.621684 L 279.922762 462.953979 L 277.197537 460.025985 L 274.472312 457.097991 L 271.777018 454.143665 L 269.220018 451.067669 L 266.663018 447.991673 L 264.106018 444.915677 L 261.643610 441.766278 L 259.298845 438.525586 L 256.954081 435.284895 L 254.677724 431.997569 L 252.518022 428.630718 L 250.358321 425.263866 L 248.198619 421.897015 L 246.038917 418.530164 L 243.879215 415.163312 L 241.871786 411.703565 L 239.866155 408.242720 L 237.860524 404.781876 L 235.854893 401.321031 L 234.001683 397.777220 L 232.183968 394.214088 L 230.449647 390.610709 L 228.791109 386.970757 L 227.162367 383.317927 L 225.647702 379.615794 L 224.133038 375.913660 L 222.821868 372.135528 L 221.538931 368.346850 L 220.373381 364.522239 L 219.315595 360.664637 L 218.284861 356.800340 L 217.421237 352.894684 L 216.557613 348.989027 L 215.894148 345.046729 L 215.318165 341.088415 L 214.742183 337.130102 L 214.166200 333.171789 L 213.590218 329.213476 L 213.193119 325.235285 L 212.886098 321.247085 L 212.594171 317.258009 L 212.437429 313.261081 L 212.280686 309.264153 L 212.194736 305.265734 L 212.183002 301.265751 L 212.171268 297.265768 L 212.159533 293.265785 L 212.147799 289.265803 L 212.137474 285.746060" fill="none" id="38" stroke="black" stroke-width="0.5" /><path d="M 247.129594 230.966530 L 250.331098 233.294568 L 253.864438 235.153520 L 257.503124 236.814833 L 261.141811 238.476145 L 264.780498 240.137457 L 268.419184 241.798770 L 272.057871 243.460082 L 275.663872 245.190146 L 279.249376 246.963326 L 282.774594 248.850618 L 286.260118 250.813045 L 289.745642 252.775473 L 293.231166 254.737900 L 296.716690 256.700328 L 300.202214 258.662755 L 303.674754 260.646833 L 307.047318 262.797602 L 310.419883 264.948371 L 313.792448 267.099140 L 317.107484 269.337551 L 320.422276 271.576336 L 323.737067 273.815121 L 327.051859 276.053906 L 330.366650 278.292691 L 333.681441 280.531476 L 336.996233 282.770260 L 340.259717 285.082575 L 343.504842 287.421199 L 346.749967 289.759823 L 349.995092 292.098447 L 353.240217 294.437071 L 356.485343 296.775695 L 359.697595 299.158714 L 362.881225 301.580386 L 366.017821 304.061252 L 369.096256 306.615315 L 372.174691 309.169379 L 375.253126 311.723442 L 378.254619 314.364912 L 381.178514 317.094534 L 384.102409 319.824156 L 387.026304 322.553779 L 389.950199 325.283401 L 392.874094 328.013023 L 395.713800 330.829717 L 398.540270 333.660100 L 401.366740 336.490483 L 404.193210 339.320866 L 406.926400 342.240886 L 409.642012 345.177798 L 412.294603 348.171335 L 414.925301 351.184545 L 417.555999 354.197754 L 420.186696 357.210963 L 422.817394 360.224172 L 425.448091 363.237382 L 427.129594 365.163380" fill="none" id="39" stroke="black" stroke-width="0.5" /><path d="M 146.373694 118.124010 L 146.008131 122.019296 L 147.617563 125.642179 L 149.436250 129.204816 L 151.254936 132.767452 L 153.096915 136.316623 L 155.276869 139.670397 L 157.456823 143.024171 L 160.008552 146.096277 L 162.647161 149.102561 L 165.481760 151.916830 L 168.433364 154.616466 L 171.385162 157.315876 L 174.505401 159.818695 L 177.625641 162.321514 L 180.801016 164.751269 L 184.063806 167.065184 L 187.633837 168.866008 L 191.372303 170.262241 L 195.241715 171.275969 L 199.189298 171.916160 L 200.357944 172.100390" fill="none" id="40" stroke="black" stroke-width="0.5" /><path d="M 180.735894 161.210630 L 183.679573 163.909360 L 186.819478 166.385047 L 190.197205 168.527698 L 193.589972 170.643547 L 197.178826 172.409937 L 201.046526 173.412197 L 203.192584 173.942910" fill="none" id="41" stroke="black" stroke-width="0.5" /><path d="M 209.460304 319.029530 L 210.667041 318.816068 L 211.989055 315.043578 L 213.613609 311.388962 L 215.339362 307.780392 L 217.065114 304.171822 L 218.790866 300.563252 L 220.576985 296.985601 L 222.496874 293.476466 L 224.455258 289.991446 L 226.775054 286.732836 L 229.094851 283.474225 L 231.656818 280.411300 L 234.355713 277.459018 L 237.054607 274.506736 L 239.963306 271.761477 L 243.023043 269.191523 L 246.180766 266.736164 L 249.338489 264.280805 L 252.694958 262.108701 L 256.136887 260.074406 L 259.644023 258.150972 L 263.315207 256.562764 L 266.986392 254.974556 L 270.657576 253.386348 L 274.429126 252.060416 L 278.222715 250.792078 L 282.016304 249.523739 L 285.830767 248.323121 L 289.680103 247.235641 L 293.554153 246.243800 L 297.448439 245.330273 L 301.342726 244.416745 L 305.237012 243.503218 L 309.172969 242.794582 L 313.114719 242.114427 L 317.056468 241.434272 L 321.009283 240.829885 L 324.980922 240.354407 L 328.963701 239.991861 L 332.951697 239.682205 L 336.939693 239.372549 L 339.633534 239.163380" fill="none" id="42" stroke="black" stroke-width="0.5" /><path d="M 231.161094 378.084640 L 230.097075 374.275314 L 230.058734 370.278487 L 230.419186 366.301733 L 231.275611 362.402561 L 232.308978 358.538347 L 233.543186 354.739492 L 234.981940 351.007202 L 236.574973 347.340312 L 238.356259 343.760139 L 240.213420 340.217406 L 242.126396 336.706502 L 244.229605 333.304074 L 246.332813 329.901647 L 248.570807 326.588433 L 250.911487 323.345517 L 253.352312 320.176546 L 255.939352 317.128327 L 258.598292 314.140681 L 261.500036 311.387523 L 264.442326 308.680014 L 267.518693 306.123460 L 270.595060 303.566907 L 273.671427 301.010353 L 276.770401 298.482673 L 279.990360 296.109519 L 283.210319 293.736365 L 286.543591 291.526201 L 289.889745 289.334569 L 293.235900 287.142937 L 296.582054 284.951306 L 299.932553 282.766524 L 303.341459 280.673832 L 306.750365 278.581140 L 310.203744 276.564095 L 313.690047 274.603050 L 317.176349 272.642005 L 320.662651 270.680960 L 324.148953 268.719915 L 327.691300 266.867044 L 331.304064 265.150088 L 334.916828 263.433133 L 338.601952 261.880100 L 342.304985 260.367635 L 346.020749 258.889774 L 349.821042 257.641669 L 353.621336 256.393564 L 357.421630 255.145458 L 361.221924 253.897353 L 365.022218 252.649248 L 368.891063 251.635702 L 372.765374 250.640857 L 374.594164 250.171260" fill="none" id="43" stroke="black" stroke-width="0.5" /><path d="M 254.720144 433.171260 L 256.166781 429.442019 L 257.613419 425.712777 L 259.060056 421.983536 L 260.511194 418.256246 L 262.243814 414.650968 L 263.976435 411.045690 L 265.858617 407.518906 L 267.841332 404.044882 L 269.824046 400.570857 L 271.806760 397.096833 L 273.789475 393.622809 L 275.786509 390.157537 L 277.973988 386.808667 L 280.161467 383.459796 L 282.411223 380.154733 L 284.823808 376.964211 L 287.236394 373.773689 L 289.669374 370.599989 L 292.342746 367.624576 L 295.016118 364.649163 L 297.689490 361.673751 L 300.409741 358.742178 L 303.199608 355.875709 L 306.035526 353.055723 L 308.927880 350.292702 L 311.820235 347.529681 L 314.712590 344.766661 L 317.698416 342.109892 L 320.807573 339.593318 L 323.967981 337.143737 L 327.210307 334.801234 L 330.490897 332.515430 L 333.876429 330.385130 L 337.272131 328.272337 L 340.799607 326.386359 L 344.327083 324.500381 L 347.854559 322.614403 L 351.382035 320.728425 L 354.983135 318.993451 L 358.641471 317.375867 L 362.323137 315.815696 L 366.072855 314.422995 L 369.822573 313.030294 L 373.572291 311.637593 L 377.322008 310.244891 L 381.135088 309.038986 L 384.958285 307.862904 L 388.830050 306.863695 L 392.717717 305.922394 L 396.635142 305.119250 L 400.565591 304.376574 L 404.522163 303.803825 L 408.494200 303.331680 L 412.476865 302.976821 L 416.469075 302.727305 L 420.464715 302.578374 L 424.464649 302.555387 L 426.909124 302.541340" fill="none" id="44" stroke="black" stroke-width="0.5" /><path d="M 466.814634 308.210630 L 463.513823 305.951283 L 460.213013 303.691936 L 456.912202 301.432589 L 453.611391 299.173242 L 450.109336 297.247451 L 446.522422 295.485202 L 442.759064 294.148732 L 438.916701 293.036863 L 435.047603 292.031155 L 431.129562 291.233898 L 427.160786 290.735077 L 423.192011 290.236256 L 419.217055 289.807304 L 415.222343 289.601693 L 411.224300 289.525590 L 407.224300 289.525590 L 403.224300 289.525590 L 399.224300 289.525590 L 395.243440 289.914863 L 391.262732 290.307246 L 387.282024 290.699630 L 383.301316 291.092014 L 379.347012 291.688112 L 375.397806 292.323539 L 371.471285 293.078221 L 367.564617 293.937255 L 363.657948 294.796288 L 359.751279 295.655322 L 355.844610 296.514356 L 351.961620 297.468533 L 348.108029 298.540836 L 344.254438 299.613139 L 340.431873 300.788345 L 336.627816 302.024932 L 332.823758 303.261519 L 329.061936 304.618657 L 325.317899 306.026560 L 321.573863 307.434462 L 320.326444 307.903540" fill="none" id="45" stroke="black" stroke-width="0.5" /></svg>