<?xml version="1.0" encoding="utf-8" ?>
<svg baseProfile="full" height="639.5" version="1.1" viewBox="0,0,413.5,639.5" width="413.5" xmlns="http://www.w3.org/2000/svg" xmlns:ev="http://www.w3.org/2001/xml-events" xmlns:xlink="http://www.w3.org/1999/xlink"><defs><style type="text/css"><![CDATA[
	.background { fill: white; }
	.line { stroke: firebrick; stroke-width: .1mm; }
	.blacksquare { fill: indigo; }
	.whitesquare { fill: white; }
]]></style></defs><rect class="background" height="100%" width="100%" x="0" y="0" /><path d="M 0.250000 48.013800 L 4.208110 51.023700 L 8.166220 54.033600 L 12.124300 57.043600 L 16.082400 60.053500 L 20.040500 63.063400 L 23.998700 66.073400 L 27.956800 69.083300 L 31.914900 72.093200 L 35.873000 75.103200 L 39.831100 78.113100 L 43.789200 81.123000 L 47.747300 84.133000 L 51.710300 87.136400 L 55.698900 90.105700 L 59.722700 93.027200 L 63.759300 95.931000 L 67.809700 98.815400 L 71.892700 101.653000 L 76.011200 104.440000 L 80.158500 107.183000 L 84.319100 109.906000 L 88.489700 112.614000 L 92.680900 115.290000 L 96.890100 117.937000 L 101.105000 120.576000 L 105.319000 123.215000 L 109.534000 125.853000 L 113.749000 128.492000 L 117.963000 131.131000 L 122.178000 133.770000 L 126.400000 136.397000 L 130.654000 138.971000 L 134.950000 141.475000 L 139.262000 143.952000 L 143.575000 146.426000 L 147.888000 148.901000 L 152.202000 151.375000 L 156.515000 153.849000 L 160.826000 156.327000 L 165.126000 158.825000 L 169.409000 161.351000 L 173.687000 163.885000 L 177.956000 166.435000 L 182.199000 169.029000 L 186.423000 171.652000" fill="none" id="0" stroke="#c583d9" stroke-width="0.5" /><path d="M 126.329000 617.707000 L 127.997000 619.247000 L 129.693000 620.755000 L 131.435000 622.210000 L 133.252000 623.569000 L 135.103000 624.883000 L 137.016000 626.105000 L 138.959000 627.277000 L 140.933000 628.399000 L 142.915000 629.506000 L 144.901000 630.606000 L 146.895000 631.690000 L 148.954000 632.638000 L 151.058000 633.493000 L 153.161000 634.346000 L 155.284000 635.147000 L 157.446000 635.838000 L 159.635000 636.439000 L 161.838000 636.983000 L 164.091000 637.256000 L 166.351000 637.378000 L 168.620000 637.289000 L 170.853000 636.910000 L 173.061000 636.399000 L 175.183000 635.593000 L 177.165000 634.524000 L 179.012000 633.205000 L 180.561000 631.553000 L 181.964000 629.783000 L 183.044000 627.786000 L 183.902000 625.692000 L 184.628000 623.541000" fill="none" id="1" stroke="#f375a0" stroke-width="0.5" /><path d="M 183.998000 615.935000 L 183.793000 616.916000 L 183.587000 617.897000 L 183.387000 618.880000 L 183.189000 619.862000 L 183.012000 620.849000 L 182.830000 621.835000 L 182.627000 622.816000 L 182.417000 623.796000 L 182.187000 624.772000 L 181.934000 625.741000 L 181.629000 626.696000 L 181.315000 627.648000 L 180.986000 628.595000 L 180.650000 629.540000 L 180.305000 630.481000 L 179.922000 631.406000 L 179.497000 632.314000 L 179.003000 633.183000 L 178.446000 634.016000 L 177.771000 634.747000 L 177.025000 635.418000 L 176.196000 635.972000 L 175.327000 636.473000 L 174.422000 636.900000 L 173.504000 637.304000 L 172.538000 637.560000 L 171.561000 637.785000 L 170.574000 637.957000 L 169.585000 638.122000 L 168.587000 638.216000 L 167.589000 638.305000" fill="none" id="2" stroke="#f375a0" stroke-width="0.5" /><path d="M 208.030000 0.250000 L 212.539000 2.139000 L 217.060000 3.998360 L 221.600000 5.813840 L 226.151000 7.598060 L 230.695000 9.402220 L 235.197000 11.310100 L 239.663000 13.298400 L 244.117000 15.314200 L 248.556000 17.363600 L 252.982000 19.439200 L 257.406000 21.520300 L 261.830000 23.601400 L 266.255000 25.679400 L 270.698000 27.719000 L 275.165000 29.706500 L 279.651000 31.649300 L 284.155000 33.552200 L 288.665000 35.439100 L 293.175000 37.325900 L 297.687000 39.208500 L 302.210000 41.064400 L 306.742000 42.897300 L 311.275000 44.730300 L 315.807000 46.563200 L 320.339000 48.396100 L 324.874000 50.222700 L 329.423000 52.014500 L 333.993000 53.751400 L 338.581000 55.441300 L 343.193000 57.061200 L 347.819000 58.644300 L 352.460000 60.182000 L 357.105000 61.706600 L 361.750000 63.231200 L 366.395000 64.755900 L 371.040000 66.280500 L 375.685000 67.805100 L 380.330000 69.329700 L 384.975000 70.854300 L 389.621000 72.378900 L 394.266000 73.903500" fill="none" id="3" stroke="#9de993" stroke-width="0.5" /><path d="M 203.935000 118.667000 L 208.428000 120.799000 L 212.860000 123.054000 L 217.202000 125.479000 L 221.480000 128.016000 L 225.757000 130.553000 L 230.034000 133.091000 L 234.298000 135.650000 L 238.492000 138.322000 L 242.656000 141.042000 L 246.803000 143.786000 L 250.920000 146.576000 L 255.017000 149.395000 L 259.115000 152.213000 L 263.232000 155.002000 L 267.375000 157.753000 L 271.526000 160.492000 L 275.685000 163.220000 L 279.868000 165.909000 L 284.079000 168.555000 L 288.299000 171.186000 L 292.522000 173.812000 L 296.761000 176.413000 L 301.022000 178.978000 L 305.294000 181.524000 L 309.569000 184.065000 L 313.858000 186.581000 L 318.175000 189.050000 L 322.523000 191.465000 L 326.904000 193.818000 L 331.305000 196.134000 L 335.710000 198.443000 L 340.119000 200.743000 L 344.548000 203.004000 L 349.001000 205.219000 L 353.459000 207.423000 L 357.918000 209.627000 L 362.376000 211.830000 L 366.834000 214.034000 L 371.292000 216.238000 L 375.749000 218.445000 L 380.189000 220.685000 L 384.603000 222.977000 L 389.013000 225.276000 L 393.415000 227.589000" fill="none" id="4" stroke="#ad5ba7" stroke-width="0.5" /><path d="M 305.604000 40.053200 L 308.177000 44.212800 L 310.620000 48.449300 L 312.861000 52.796500 L 314.982000 57.203500 L 317.101000 61.611500 L 319.219000 66.019500 L 321.338000 70.427500 L 323.457000 74.835400 L 325.576000 79.243400 L 327.703000 83.647300 L 329.875000 88.029500 L 332.075000 92.397200 L 334.282000 96.762000 L 336.488000 101.127000 L 338.694000 105.492000 L 340.900000 109.856000 L 343.107000 114.221000 L 345.313000 118.586000 L 347.519000 122.951000 L 349.726000 127.316000 L 351.932000 131.681000 L 354.138000 136.045000 L 356.359000 140.403000 L 358.616000 144.742000 L 360.909000 149.061000 L 363.246000 153.358000 L 365.630000 157.628000 L 368.048000 161.879000 L 370.502000 166.110000 L 372.960000 170.338000 L 375.419000 174.566000 L 377.879000 178.793000 L 380.369000 183.002000 L 382.945000 187.160000 L 385.568000 191.288000 L 388.199000 195.410000 L 390.879000 199.502000 L 393.635000 203.542000 L 396.391000 207.582000 L 399.147000 211.622000 L 401.898000 215.666000 L 404.614000 219.733000 L 407.309000 223.815000 L 410.003000 227.897000 L 412.691000 231.982000" fill="none" id="5" stroke="#58f2c3" stroke-width="0.5" /><path d="M 123.274000 388.951000 L 126.215000 391.201000 L 129.153000 393.456000 L 132.088000 395.715000 L 135.012000 397.987000 L 137.938000 400.258000 L 140.862000 402.530000 L 143.763000 404.832000 L 146.569000 407.247000 L 149.249000 409.802000 L 151.829000 412.459000 L 154.336000 415.184000 L 156.730000 418.008000 L 158.973000 420.954000 L 161.112000 423.977000 L 163.207000 427.031000 L 165.237000 430.128000 L 167.215000 433.259000 L 169.203000 436.383000 L 171.048000 439.591000 L 172.492000 442.993000 L 173.580000 446.530000 L 174.451000 450.129000 L 175.352000 453.720000 L 176.307000 457.298000 L 177.273000 460.874000 L 178.226000 464.453000 L 179.069000 468.058000 L 179.774000 471.694000 L 180.359000 475.351000 L 180.848000 479.022000" fill="none" id="6" stroke="#c94e76" stroke-width="0.5" /><path d="M 8.596460 328.549000 L 12.037100 332.044000 L 15.544400 335.472000 L 19.130800 338.817000 L 22.815800 342.053000 L 26.541500 345.243000 L 30.271000 348.428000 L 34.000400 351.612000 L 37.729800 354.797000 L 41.459100 357.982000 L 45.152400 361.209000 L 48.796600 364.491000 L 52.425200 367.791000 L 56.052500 371.091000 L 59.679800 374.392000 L 63.307400 377.693000 L 66.986600 380.935000 L 70.703700 384.135000 L 74.463600 387.283000 L 78.262600 390.385000 L 82.073100 393.473000 L 85.883600 396.560000 L 89.710800 399.627000 L 93.566900 402.657000 L 97.437600 405.669000 L 101.309000 408.679000 L 105.181000 411.689000 L 109.053000 414.700000 L 112.929000 417.705000 L 116.823000 420.685000 L 120.740000 423.636000 L 124.658000 426.586000 L 128.588000 429.520000 L 132.568000 432.386000 L 136.610000 435.164000 L 140.670000 437.915000 L 144.744000 440.645000 L 148.820000 443.372000 L 152.896000 446.100000 L 156.972000 448.828000 L 161.047000 451.555000 L 165.122000 454.285000 L 169.178000 457.042000 L 173.204000 459.843000 L 177.221000 462.656000 L 181.226000 465.486000" fill="none" id="7" stroke="#57b870" stroke-width="0.5" /><path d="M 0.816930 249.297000 L 4.751490 252.300000 L 8.676590 255.314000 L 12.592400 258.341000 L 16.488700 261.393000 L 20.373600 264.459000 L 24.217900 267.576000 L 28.021100 270.743000 L 31.819300 273.916000 L 35.617400 277.089000 L 39.415500 280.262000 L 43.213600 283.435000 L 47.003600 286.618000 L 50.747800 289.855000 L 54.477800 293.108000 L 58.207900 296.361000 L 61.979800 299.565000 L 65.771900 302.745000 L 69.565100 305.924000 L 73.382600 309.074000 L 77.245500 312.168000 L 81.128100 315.237000 L 85.010900 318.306000 L 88.932300 321.325000 L 92.901100 324.282000 L 96.898500 327.200000 L 100.915000 330.092000 L 104.938000 332.974000 L 108.967000 335.848000 L 113.020000 338.689000 L 117.094000 341.500000 L 121.170000 344.307000 L 125.264000 347.088000 L 129.390000 349.820000 L 133.529000 352.535000 L 137.670000 355.245000 L 141.830000 357.927000 L 146.022000 360.557000 L 150.214000 363.187000 L 154.407000 365.818000 L 158.599000 368.448000 L 162.788000 371.083000 L 166.960000 373.746000 L 171.113000 376.439000 L 175.252000 379.152000 L 179.381000 381.881000 L 183.510000 384.610000 L 187.634000 387.346000 L 191.728000 390.126000 L 195.820000 392.910000 L 199.904000 395.707000" fill="none" id="8" stroke="#d271bb" stroke-width="0.5" /><path d="M 18.643700 477.746000 L 18.497700 480.231000 L 18.421100 482.718000 L 18.419200 485.207000 L 18.552400 487.692000 L 18.806100 490.167000 L 19.138000 492.634000 L 19.546000 495.089000 L 20.068300 497.523000 L 20.643000 499.944000 L 21.262400 502.355000 L 21.876000 504.767000 L 22.497900 507.178000 L 23.141100 509.582000 L 23.873500 511.961000 L 24.722400 514.299000 L 25.671200 516.599000 L 26.752900 518.841000 L 27.985900 521.002000 L 29.292400 523.120000 L 30.663200 525.197000 L 32.083400 527.242000 L 33.519900 529.274000 L 34.973200 531.295000 L 36.454100 533.296000 L 37.992200 535.252000 L 39.572500 537.175000 L 41.201300 539.057000 L 42.890500 540.885000 L 44.611100 542.684000 L 46.360200 544.455000" fill="none" id="9" stroke="#3d8e43" stroke-width="0.5" /><path d="M 42.139800 539.896000 L 44.455500 542.728000 L 46.838300 545.504000 L 49.393700 548.116000 L 52.038500 550.644000 L 54.673500 553.182000 L 57.342000 555.684000 L 60.055600 558.138000 L 62.786400 560.573000 L 65.518100 563.007000 L 68.256900 565.432000 L 71.020300 567.830000 L 73.796700 570.212000 L 76.574500 572.593000 L 79.373300 574.950000 L 82.189100 577.285000 L 85.009500 579.616000 L 87.843600 581.929000 L 90.698800 584.217000 L 93.567000 586.488000 L 96.446700 588.745000 L 99.346500 590.976000 L 102.266000 593.181000 L 105.193000 595.375000 L 108.122000 597.568000 L 111.050000 599.761000 L 113.978000 601.955000 L 116.906000 604.148000 L 119.858000 606.310000 L 122.858000 608.404000 L 125.888000 610.455000" fill="none" id="10" stroke="#3d8e43" stroke-width="0.5" /><path d="M 215.274000 382.171000 L 215.459000 384.771000 L 215.746000 387.359000 L 216.156000 389.931000 L 216.730000 392.473000 L 217.459000 394.974000 L 218.230000 397.463000 L 219.044000 399.938000 L 219.942000 402.385000 L 220.981000 404.773000 L 222.098000 407.127000 L 223.273000 409.453000 L 224.472000 411.767000 L 225.753000 414.035000 L 227.155000 416.227000 L 228.716000 418.313000 L 230.469000 420.242000 L 232.219000 422.172000 L 233.956000 424.115000 L 235.662000 426.085000 L 237.515000 427.916000 L 239.498000 429.598000 L 241.585000 431.158000 L 243.713000 432.663000 L 245.896000 434.086000 L 248.172000 435.341000 L 250.552000 436.401000 L 253.010000 437.265000 L 255.482000 438.090000 L 257.968000 438.870000 L 260.470000 439.596000" fill="none" id="11" stroke="#00d4db" stroke-width="0.5" /><path d="M 344.187000 493.502000 L 346.124000 494.656000 L 348.080000 495.779000 L 350.056000 496.867000 L 352.074000 497.873000 L 354.110000 498.842000 L 356.174000 499.751000 L 358.239000 500.659000 L 360.304000 501.566000 L 362.374000 502.461000 L 364.463000 503.310000 L 366.565000 504.126000 L 368.689000 504.886000 L 370.819000 505.627000 L 372.958000 506.342000 L 375.100000 507.049000 L 377.247000 507.737000 L 379.410000 508.376000 L 381.611000 508.857000 L 383.833000 509.218000 L 386.088000 509.157000 L 388.341000 509.059000 L 390.592000 508.923000 L 392.779000 508.385000 L 394.904000 507.663000 L 396.919000 506.651000 L 398.746000 505.343000 L 400.483000 503.907000 L 402.084000 502.318000 L 403.581000 500.636000 L 405.006000 498.888000" fill="none" id="12" stroke="#d55969" stroke-width="0.5" /><path d="M 17.604300 341.848000 L 17.297200 340.023000 L 17.163900 338.188000 L 17.272200 336.340000 L 17.801000 334.575000 L 18.576800 332.924000 L 19.784300 331.521000 L 21.014500 330.138000 L 22.301700 328.824000 L 23.938700 327.959000 L 25.682100 327.402000 L 27.503100 327.069000 L 29.353800 327.033000 L 31.195400 327.133000 L 33.023900 327.422000 L 34.792300 327.958000 L 36.527800 328.595000 L 38.202200 329.384000 L 39.837600 330.250000 L 41.436900 331.177000 L 42.863400 332.357000 L 44.233000 333.599000 L 45.547400 334.903000 L 46.806800 336.259000 L 48.053300 337.628000 L 49.283100 339.012000 L 50.508400 340.399000 L 51.732200 341.788000 L 52.955600 343.178000 L 54.178000 344.568000 L 55.399600 345.959000" fill="none" id="13" stroke="#64e4ff" stroke-width="0.5" /><path d="M 44.533500 333.344000 L 43.430400 332.519000 L 42.327300 331.694000 L 41.146700 330.986000 L 39.954600 330.295000 L 38.679900 329.784000 L 37.380600 329.325000 L 36.057400 328.947000 L 34.720300 328.615000 L 33.379700 328.298000 L 32.035200 327.997000 L 30.681200 327.763000 L 29.306500 327.672000 L 27.945700 327.682000 L 26.646700 328.141000 L 25.359000 328.622000 L 24.223700 329.403000 L 23.088400 330.183000 L 22.503500 331.421000 L 21.945200 332.680000 L 21.451200 333.966000 L 20.973400 335.258000 L 20.485700 336.546000 L 19.992300 337.833000 L 19.490500 339.116000 L 18.979400 340.395000 L 18.467900 341.674000 L 17.955500 342.953000 L 17.442300 344.232000 L 16.924900 345.509000 L 16.407500 346.785000" fill="none" id="14" stroke="#64e4ff" stroke-width="0.5" /><path d="M 215.463000 257.470000 L 215.310000 255.526000 L 215.157000 253.582000 L 215.109000 251.632000 L 215.062000 249.682000 L 215.089000 247.732000 L 215.118000 245.782000 L 215.412000 243.854000 L 215.712000 241.927000 L 216.366000 240.091000 L 217.029000 238.256000 L 217.921000 236.523000 L 218.818000 234.791000 L 219.848000 233.135000 L 220.882000 231.481000 L 222.389000 230.248000 L 223.911000 229.028000 L 225.674000 228.194000 L 227.441000 227.381000 L 229.391000 227.434000 L 231.339000 227.497000 L 233.251000 227.884000 L 235.162000 228.273000 L 237.056000 228.736000 L 238.950000 229.203000 L 240.780000 229.878000 L 242.609000 230.555000 L 244.380000 231.372000 L 246.150000 232.190000 L 247.861000 233.126000 L 249.573000 234.061000" fill="none" id="15" stroke="#e68e54" stroke-width="0.5" /><path d="M 346.549000 294.746000 L 348.952000 296.771000 L 351.379000 298.767000 L 353.841000 300.719000 L 356.340000 302.624000 L 358.856000 304.506000 L 361.425000 306.315000 L 364.057000 308.028000 L 366.756000 309.637000 L 369.519000 311.134000 L 372.382000 312.425000 L 375.347000 313.438000 L 378.409000 314.050000 L 381.551000 314.049000 L 384.446000 312.857000 L 387.261000 311.467000 L 389.752000 309.651000 L 391.708000 307.193000 L 393.452000 304.580000 L 395.134000 301.925000 L 396.608000 299.160000 L 397.768000 296.247000 L 398.451000 293.180000 L 398.853000 290.066000 L 399.077000 286.934000 L 399.169000 283.793000 L 399.178000 280.651000 L 399.100000 277.510000 L 398.964000 274.371000 L 398.779000 271.234000 L 398.549000 268.100000" fill="none" id="16" stroke="#54aeff" stroke-width="0.5" /><path d="M 345.510000 293.163000 L 347.979000 295.762000 L 350.567000 298.243000 L 353.293000 300.571000 L 356.160000 302.723000 L 359.026000 304.877000 L 361.915000 306.999000 L 364.818000 309.103000 L 367.723000 311.204000 L 370.579000 313.371000 L 373.338000 315.660000 L 375.958000 318.106000 L 378.408000 320.724000 L 380.691000 323.487000 L 382.839000 326.358000 L 384.919000 329.277000 L 386.988000 332.205000 L 389.056000 335.134000 L 391.065000 338.103000 L 392.977000 341.136000 L 394.857000 344.188000 L 396.734000 347.242000 L 398.601000 350.303000 L 400.413000 353.397000 L 402.112000 356.553000 L 403.739000 359.748000 L 405.290000 362.980000 L 406.742000 366.258000 L 408.101000 369.576000 L 409.336000 372.941000 L 410.486000 376.337000" fill="none" id="17" stroke="#eed973" stroke-width="0.5" /><path d="M 399.778000 353.659000 L 400.344000 355.056000 L 400.905000 356.455000 L 401.401000 357.878000 L 401.886000 359.304000 L 402.281000 360.759000 L 402.667000 362.215000 L 402.977000 363.690000 L 403.282000 365.166000 L 403.531000 366.652000 L 403.778000 368.139000 L 404.004000 369.629000 L 404.229000 371.119000 L 404.455000 372.609000 L 404.681000 374.099000 L 404.904000 375.590000 L 405.127000 377.080000 L 405.341000 378.572000 L 405.555000 380.064000 L 405.746000 381.559000 L 405.936000 383.054000 L 406.095000 384.552000 L 406.254000 386.051000 L 406.395000 387.551000 L 406.536000 389.052000 L 406.658000 390.554000 L 406.780000 392.056000 L 406.892000 393.559000 L 407.005000 395.062000 L 407.108000 396.565000 L 407.211000 398.069000" fill="none" id="18" stroke="#008bd4" stroke-width="0.5" /><path d="M 9.509850 187.195000 L 9.310570 190.361000 L 9.263040 193.532000 L 9.435400 196.697000 L 9.779910 199.849000 L 10.205010 202.992000 L 10.640200 206.134000 L 11.076300 209.276000 L 11.512400 212.418000 L 11.948600 215.560000 L 12.365900 218.705000 L 12.753200 221.853000 L 13.111800 225.005000 L 13.444500 228.159000 L 13.747600 231.317000 L 14.014200 234.478000 L 14.258700 237.641000 L 14.503200 240.803000 L 14.739900 243.966000 L 14.947200 247.132000 L 15.110300 250.299000 L 15.235600 253.469000 L 15.350600 256.639000 L 15.437300 259.810000 L 15.467400 262.982000 L 15.492800 266.154000 L 15.518300 269.326000 L 15.543700 272.498000 L 15.569200 275.670000 L 15.594600 278.842000 L 15.620100 282.014000" fill="none" id="19" stroke="#fdb968" stroke-width="0.5" /><path d="M 49.698800 337.620000 L 47.110400 335.401000 L 44.555100 333.144000 L 42.042700 330.840000 L 39.578400 328.484000 L 37.155000 326.086000 L 34.771700 323.649000 L 32.426700 321.174000 L 30.110300 318.673000 L 27.832100 316.137000 L 25.634600 313.531000 L 23.576600 310.815000 L 21.724800 307.956000 L 20.143600 304.938000 L 18.847000 301.786000 L 17.768700 298.552000 L 16.815900 295.278000 L 15.900800 291.994000 L 14.988900 288.709000 L 14.079800 285.423000 L 13.187000 282.133000 L 12.349000 278.828000 L 11.612700 275.500000 L 10.983500 272.150000 L 10.449000 268.783000 L 10.023300 265.401000 L 9.719740 262.006000 L 9.527140 258.602000 L 9.466570 255.194000 L 9.469980 251.785000 L 9.541340 248.376000" fill="none" id="20" stroke="#6f73bc" stroke-width="0.5" /><path d="M 122.990000 390.699000 L 125.777000 392.895000 L 128.568000 395.085000 L 131.378000 397.251000 L 134.180000 399.427000 L 136.952000 401.641000 L 139.685000 403.902000 L 142.379000 406.211000 L 145.108000 408.478000 L 147.992000 410.544000 L 151.076000 412.285000 L 154.320000 413.710000 L 157.698000 414.759000 L 161.180000 415.173000 L 164.701000 414.741000 L 168.196000 414.137000 L 171.258000 412.345000 L 173.973000 410.075000 L 176.355000 407.458000 L 178.433000 404.590000 L 180.189000 401.516000 L 181.636000 398.278000 L 182.902000 394.964000 L 184.107000 391.627000 L 185.240000 388.265000 L 186.247000 384.864000 L 187.184000 381.442000 L 188.038000 377.999000 L 188.802000 374.535000 L 189.514000 371.059000 L 190.171000 367.573000" fill="none" id="21" stroke="#bee481" stroke-width="0.5" /><path d="M 252.093000 238.455000 L 249.971000 236.470000 L 247.865000 234.468000 L 245.776000 232.449000 L 243.709000 230.408000 L 241.668000 228.341000 L 239.538000 226.364000 L 237.452000 224.343000 L 235.383000 222.303000 L 233.321000 220.256000 L 231.267000 218.201000 L 229.321000 216.044000 L 227.465000 213.810000 L 225.679000 211.519000 L 223.957000 209.179000 L 222.314000 206.783000 L 220.825000 204.289000 L 219.433000 201.739000 L 218.106000 199.155000 L 216.829000 196.546000 L 215.597000 193.914000 L 214.466000 191.238000 L 213.419000 188.529000 L 212.467000 185.785000 L 211.666000 182.996000 L 211.109000 180.144000 L 210.622000 177.280000 L 210.248000 174.400000 L 210.002000 171.506000 L 209.881000 168.604000 L 209.856000 165.699000" fill="none" id="22" stroke="#8f6aaf" stroke-width="0.5" /></svg>