<?xml version="1.0" encoding="utf-8" ?>
<svg baseProfile="full" height="595.5" version="1.1" viewBox="0,0,806.5,595.5" width="806.5" xmlns="http://www.w3.org/2000/svg" xmlns:ev="http://www.w3.org/2001/xml-events" xmlns:xlink="http://www.w3.org/1999/xlink"><defs><style type="text/css"><![CDATA[
	.background { fill: white; }
	.line { stroke: firebrick; stroke-width: .1mm; }
	.blacksquare { fill: indigo; }
	.whitesquare { fill: white; }
]]></style></defs><rect class="background" height="100%" width="100%" x="0" y="0" /><path d="M 54.171300 268.431000 L 59.128400 268.073000 L 64.068300 267.528000 L 68.980700 266.775000 L 73.857100 265.814000 L 78.719600 264.786000 L 83.581600 263.755000 L 88.443700 262.725000 L 93.305800 261.695000 L 98.167900 260.664000 L 103.030000 259.634000 L 107.892000 258.601000 L 112.750000 257.552000 L 117.604000 256.485000 L 122.457000 255.415000 L 127.310000 254.344000 L 132.164000 253.273000 L 137.017000 252.202000 L 141.870000 251.132000 L 146.724000 250.061000 L 151.577000 248.990000 L 156.431000 247.920000 L 161.284000 246.849000 L 166.139000 245.788000 L 171.004000 244.768000 L 175.876000 243.787000 L 180.751000 242.819000 L 185.626000 241.852000 L 190.501000 240.885000 L 195.376000 239.918000 L 200.251000 238.951000 L 205.126000 237.984000 L 210.001000 237.016000 L 214.876000 236.049000 L 219.751000 235.082000 L 224.626000 234.115000 L 229.501000 233.148000 L 234.376000 232.181000 L 239.251000 231.213000 L 244.126000 230.246000 L 249.001000 229.279000 L 253.876000 228.312000 L 258.751000 227.345000 L 263.626000 226.378000 L 268.501000 225.410000 L 273.377000 224.443000 L 278.252000 223.476000 L 283.127000 222.509000 L 288.002000 221.542000 L 292.877000 220.575000 L 297.752000 219.607000 L 302.627000 218.640000 L 307.502000 217.673000 L 312.377000 216.706000 L 317.252000 215.739000 L 322.127000 214.772000 L 327.003000 213.809000 L 331.883000 212.867000 L 336.768000 211.950000 L 341.654000 211.043000 L 346.541000 210.136000 L 351.427000 209.230000 L 356.314000 208.324000 L 361.201000 207.417000 L 366.088000 206.511000 L 370.974000 205.604000 L 375.861000 204.698000 L 380.748000 203.791000 L 385.634000 202.885000 L 390.521000 201.979000 L 395.408000 201.072000 L 400.294000 200.166000 L 405.181000 199.259000 L 410.068000 198.353000 L 414.956000 197.456000 L 419.857000 196.630000 L 424.762000 195.825000 L 429.666000 195.021000 L 434.571000 194.217000 L 439.475000 193.412000 L 444.380000 192.608000 L 449.284000 191.804000 L 454.189000 191.000000 L 459.093000 190.196000 L 463.998000 189.392000" fill="none" id="0" stroke="#c583d9" stroke-width="0.5" /><path d="M 38.297200 271.455000 L 41.256800 271.268000 L 44.211800 271.022000 L 47.159800 270.705000 L 50.097800 270.307000 L 53.025800 269.837000 L 55.950600 269.348000 L 58.875100 268.858000 L 61.787100 268.299000 L 64.685500 267.674000 L 67.573900 267.002000 L 70.457400 266.310000 L 73.339900 265.614000 L 76.222900 264.920000 L 79.107800 264.233000 L 81.995900 263.561000 L 84.886900 262.901000 L 87.779500 262.248000 L 90.672200 261.595000 L 93.564800 260.943000 L 96.457500 260.290000 L 99.350100 259.637000 L 102.243000 258.984000 L 105.135000 258.331000 L 108.028000 257.679000 L 110.921000 257.026000 L 113.813000 256.373000 L 116.706000 255.720000 L 119.599000 255.067000 L 122.491000 254.415000 L 125.384000 253.762000" fill="none" id="1" stroke="#c583d9" stroke-width="0.5" /><path d="M 269.919000 168.770000 L 274.351000 170.993000 L 278.787000 173.208000 L 283.225000 175.417000 L 287.656000 177.640000 L 292.063000 179.912000 L 296.436000 182.248000 L 300.789000 184.620000 L 305.142000 186.993000 L 309.495000 189.366000 L 313.842000 191.752000 L 318.152000 194.202000 L 322.393000 196.770000 L 326.625000 199.353000 L 330.856000 201.936000 L 335.088000 204.519000 L 339.320000 207.102000 L 343.552000 209.685000 L 347.784000 212.268000 L 352.016000 214.851000 L 356.247000 217.434000 L 360.479000 220.017000 L 364.711000 222.601000 L 368.940000 225.187000 L 373.169000 227.775000 L 377.356000 230.431000 L 381.533000 233.102000 L 385.709000 235.774000 L 389.886000 238.445000 L 394.062000 241.117000 L 398.239000 243.788000 L 402.415000 246.460000 L 406.592000 249.131000 L 410.768000 251.803000 L 414.945000 254.475000 L 419.121000 257.146000 L 423.298000 259.818000 L 427.474000 262.489000 L 431.651000 265.161000 L 435.828000 267.832000 L 440.004000 270.504000 L 444.181000 273.176000 L 448.357000 275.847000 L 452.534000 278.519000 L 456.710000 281.190000 L 460.887000 283.862000 L 465.063000 286.533000 L 469.240000 289.205000 L 473.416000 291.877000 L 477.593000 294.548000 L 481.769000 297.220000 L 485.946000 299.891000 L 490.122000 302.563000 L 494.299000 305.234000 L 498.475000 307.906000 L 502.652000 310.578000 L 506.828000 313.249000 L 511.005000 315.921000 L 515.181000 318.592000 L 519.358000 321.264000 L 523.534000 323.935000 L 527.711000 326.607000 L 531.887000 329.279000 L 536.064000 331.950000 L 540.245000 334.615000 L 544.445000 337.248000 L 548.658000 339.863000 L 552.873000 342.474000 L 557.087000 345.084000 L 561.302000 347.695000 L 565.517000 350.306000 L 569.732000 352.916000 L 573.947000 355.527000 L 578.162000 358.138000 L 582.377000 360.748000 L 586.591000 363.359000 L 590.806000 365.970000 L 595.021000 368.580000 L 599.255000 371.159000 L 603.508000 373.708000 L 607.766000 376.248000 L 612.023000 378.789000 L 616.281000 381.329000 L 620.539000 383.869000 L 624.797000 386.409000 L 629.054000 388.950000 L 633.284000 391.536000 L 637.494000 394.154000 L 641.702000 396.776000 L 645.909000 399.399000 L 650.117000 402.021000 L 654.325000 404.643000 L 658.532000 407.265000 L 662.740000 409.888000 L 666.948000 412.510000 L 671.159000 415.127000 L 675.387000 417.715000 L 679.636000 420.270000 L 683.885000 422.824000 L 688.135000 425.378000 L 692.385000 427.932000 L 696.634000 430.485000 L 700.884000 433.039000 L 705.082000 435.675000 L 709.232000 438.388000 L 713.376000 441.110000 L 717.520000 443.832000 L 721.663000 446.554000 L 725.807000 449.276000 L 729.951000 451.998000" fill="none" id="2" stroke="#f375a0" stroke-width="0.5" /><path d="M 331.683000 158.376000 L 335.483000 161.554000 L 339.410000 164.572000 L 343.495000 167.373000 L 347.638000 170.088000 L 351.804000 172.767000 L 355.972000 175.444000 L 360.188000 178.044000 L 364.473000 180.527000 L 368.776000 182.982000 L 373.079000 185.434000 L 377.383000 187.886000 L 381.687000 190.338000 L 385.991000 192.790000 L 390.266000 195.292000 L 394.506000 197.851000 L 398.734000 200.433000 L 402.959000 203.017000 L 407.185000 205.602000 L 411.411000 208.186000 L 415.636000 210.771000 L 419.877000 213.330000 L 424.148000 215.839000 L 428.439000 218.312000 L 432.735000 220.778000 L 437.032000 223.242000 L 441.329000 225.707000 L 445.625000 228.172000 L 449.922000 230.636000 L 454.218000 233.101000 L 458.515000 235.566000 L 462.811000 238.030000 L 467.108000 240.495000 L 471.404000 242.960000 L 475.701000 245.424000 L 479.998000 247.889000 L 484.294000 250.354000 L 488.591000 252.818000 L 492.887000 255.283000 L 497.184000 257.748000 L 501.480000 260.212000 L 505.777000 262.677000 L 510.073000 265.142000 L 514.370000 267.606000 L 518.670000 270.064000 L 522.984000 272.499000 L 527.308000 274.915000 L 531.634000 277.329000 L 535.959000 279.743000 L 540.284000 282.157000 L 544.609000 284.571000 L 548.934000 286.985000 L 553.260000 289.399000 L 557.585000 291.813000 L 561.910000 294.228000 L 566.235000 296.642000 L 570.560000 299.056000 L 574.885000 301.470000 L 579.211000 303.884000 L 583.536000 306.298000 L 587.873000 308.690000 L 592.234000 311.040000 L 596.603000 313.373000 L 600.948000 315.751000 L 605.212000 318.270000 L 609.398000 320.919000 L 613.574000 323.581000 L 617.804000 326.158000 L 622.111000 328.604000 L 626.446000 331.000000 L 630.783000 333.393000 L 635.120000 335.786000 L 639.457000 338.179000 L 643.786000 340.585000 L 648.090000 343.036000 L 652.370000 345.529000 L 656.644000 348.034000 L 660.917000 350.539000 L 665.190000 353.044000 L 669.452000 355.568000 L 673.664000 358.174000 L 677.839000 360.839000 L 682.058000 363.432000 L 686.324000 365.951000 L 690.589000 368.469000 L 694.855000 370.987000 L 699.118000 373.509000 L 703.370000 376.050000 L 707.602000 378.624000 L 711.823000 381.215000 L 716.045000 383.806000 L 720.267000 386.397000 L 724.488000 388.987000 L 728.710000 391.578000 L 732.932000 394.169000 L 737.153000 396.760000 L 741.375000 399.351000 L 745.597000 401.941000 L 749.819000 404.532000 L 754.040000 407.123000 L 758.262000 409.714000 L 762.484000 412.305000 L 766.705000 414.895000 L 770.927000 417.486000" fill="none" id="3" stroke="#9de993" stroke-width="0.5" /><path d="M 0.250000 284.329000 L 3.286540 288.239000 L 6.201440 292.240000 L 8.943770 296.361000 L 11.710000 300.467000 L 14.606000 304.482000 L 17.621900 308.407000 L 20.780800 312.218000 L 23.978500 315.998000 L 27.178600 319.775000 L 30.399700 323.534000 L 33.724300 327.201000 L 37.104900 330.818000 L 40.518500 334.403000 L 44.025200 337.897000 L 47.548300 341.375000 L 51.071600 344.852000 L 54.594900 348.330000 L 58.118200 351.807000 L 61.641500 355.285000 L 65.164800 358.763000 L 68.688100 362.240000 L 72.211400 365.718000 L 75.765200 369.164000 L 79.399500 372.525000 L 83.068400 375.848000 L 86.741100 379.168000 L 90.428800 382.470000 L 94.154700 385.730000 L 97.898700 388.969000 L 101.645000 392.205000 L 105.391000 395.442000 L 109.136000 398.678000 L 112.880000 401.917000 L 116.597000 405.187000 L 120.275000 408.500000 L 123.939000 411.829000 L 127.603000 415.158000 L 131.267000 418.487000 L 134.931000 421.816000 L 138.595000 425.146000 L 142.259000 428.475000 L 145.923000 431.804000 L 149.586000 435.133000 L 153.250000 438.462000 L 156.914000 441.791000 L 160.578000 445.120000 L 164.242000 448.449000 L 167.904000 451.781000 L 171.536000 455.144000 L 175.134000 458.544000 L 178.728000 461.949000 L 182.321000 465.354000 L 185.915000 468.759000 L 189.508000 472.164000 L 193.101000 475.569000 L 196.694000 478.975000 L 200.272000 482.396000 L 203.829000 485.839000 L 207.385000 489.284000 L 210.940000 492.728000 L 214.496000 496.173000 L 218.052000 499.617000 L 221.607000 503.062000 L 225.163000 506.506000 L 228.719000 509.950000 L 232.274000 513.395000 L 235.834000 516.835000 L 239.414000 520.255000 L 243.019000 523.647000 L 246.627000 527.037000 L 250.235000 530.427000 L 253.843000 533.816000 L 257.459000 537.197000 L 261.100000 540.551000 L 264.749000 543.896000 L 268.398000 547.242000 L 272.046000 550.588000 L 275.695000 553.934000 L 279.344000 557.280000 L 282.993000 560.624000 L 286.665000 563.945000 L 290.438000 567.150000 L 294.238000 570.323000 L 298.038000 573.496000 L 301.838000 576.669000 L 305.637000 579.842000 L 309.437000 583.014000 L 313.237000 586.187000 L 317.037000 589.360000" fill="none" id="4" stroke="#ad5ba7" stroke-width="0.5" /><path d="M 336.470000 577.030000 L 341.439000 576.696000 L 346.372000 576.034000 L 351.199000 574.819000 L 355.887000 573.141000 L 360.593000 571.513000 L 365.302000 569.894000 L 370.011000 568.276000 L 374.720000 566.657000 L 379.429000 565.038000 L 384.139000 563.420000 L 388.848000 561.801000 L 393.557000 560.182000 L 398.266000 558.563000 L 402.975000 556.945000 L 407.684000 555.326000 L 412.393000 553.707000 L 417.102000 552.089000 L 421.812000 550.470000 L 426.521000 548.851000 L 431.230000 547.232000 L 435.939000 545.614000 L 440.648000 543.995000 L 445.358000 542.378000 L 450.073000 540.777000 L 454.801000 539.213000 L 459.538000 537.679000 L 464.277000 536.152000 L 469.017000 534.625000 L 473.757000 533.098000 L 478.496000 531.570000 L 483.236000 530.043000 L 487.976000 528.516000 L 492.714000 526.984000 L 497.445000 525.432000 L 502.168000 523.855000 L 506.888000 522.267000 L 511.607000 520.679000 L 516.327000 519.090000 L 521.046000 517.502000 L 525.765000 515.913000 L 530.486000 514.328000 L 535.213000 512.761000 L 539.948000 511.221000 L 544.686000 509.689000 L 549.424000 508.158000 L 554.163000 506.626000 L 558.901000 505.095000 L 563.639000 503.564000 L 568.377000 502.032000 L 573.116000 500.501000 L 577.854000 498.970000 L 582.592000 497.438000 L 587.330000 495.907000 L 592.069000 494.375000 L 596.807000 492.844000 L 601.546000 491.316000 L 606.292000 489.809000 L 611.041000 488.311000 L 615.791000 486.815000 L 620.540000 485.319000 L 625.290000 483.822000 L 630.039000 482.326000 L 634.788000 480.830000 L 639.538000 479.333000 L 644.287000 477.837000 L 649.037000 476.340000 L 653.786000 474.844000 L 658.534000 473.343000 L 663.277000 471.827000 L 668.016000 470.298000 L 672.754000 468.766000 L 677.492000 467.233000 L 682.230000 465.701000 L 686.968000 464.169000 L 691.706000 462.636000 L 696.444000 461.104000 L 701.182000 459.572000 L 705.920000 458.039000 L 710.658000 456.507000 L 715.393000 454.968000 L 720.123000 453.410000 L 724.849000 451.840000 L 729.574000 450.268000 L 734.298000 448.696000 L 739.023000 447.124000 L 743.748000 445.552000 L 748.473000 443.980000 L 753.202000 442.419000 L 757.945000 440.903000 L 762.698000 439.420000 L 767.454000 437.942000 L 772.209000 436.465000 L 776.964000 434.987000 L 781.720000 433.510000 L 786.475000 432.033000 L 791.231000 430.558000 L 795.979000 429.055000 L 800.704000 427.483000 L 805.415000 425.872000" fill="none" id="5" stroke="#58f2c3" stroke-width="0.5" /><path d="M 10.769700 330.770000 L 15.646200 329.818000 L 20.515600 328.832000 L 25.380200 327.822000 L 30.241900 326.798000 L 35.099300 325.753000 L 39.946300 324.662000 L 44.788600 323.550000 L 49.630700 322.437000 L 54.472800 321.323000 L 59.314900 320.210000 L 64.157000 319.097000 L 68.999100 317.984000 L 73.841200 316.871000 L 78.683300 315.758000 L 83.525400 314.644000 L 88.367500 313.531000 L 93.209600 312.418000 L 98.051700 311.305000 L 102.894000 310.192000 L 107.736000 309.078000 L 112.578000 307.965000 L 117.416000 306.833000 L 122.250000 305.685000 L 127.080000 304.523000 L 131.910000 303.358000 L 136.740000 302.193000 L 141.570000 301.028000 L 146.400000 299.863000 L 151.230000 298.697000 L 156.059000 297.532000 L 160.889000 296.368000 L 165.721000 295.208000 L 170.556000 294.066000 L 175.393000 292.931000 L 180.230000 291.797000 L 185.067000 290.662000 L 189.905000 289.528000 L 194.742000 288.394000 L 199.579000 287.260000 L 204.416000 286.126000 L 209.253000 284.991000 L 214.091000 283.857000 L 218.928000 282.723000 L 223.765000 281.589000 L 228.602000 280.454000 L 233.439000 279.319000 L 238.272000 278.169000 L 243.102000 277.001000 L 247.926000 275.813000 L 252.749000 274.619000 L 257.571000 273.424000 L 262.394000 272.229000 L 267.216000 271.034000 L 272.039000 269.839000 L 276.862000 268.644000 L 281.692000 267.482000 L 286.543000 266.409000 L 291.402000 265.372000 L 296.246000 264.268000 L 301.076000 263.105000 L 305.897000 261.902000 L 310.718000 260.700000 L 315.538000 259.497000 L 320.364000 258.316000 L 325.201000 257.181000 L 330.055000 256.120000 L 334.910000 255.067000 L 339.767000 254.017000 L 344.623000 252.967000 L 349.479000 251.917000 L 354.356000 250.970000 L 359.241000 250.065000 L 364.123000 249.144000 L 368.959000 248.005000 L 373.795000 246.866000 L 378.632000 245.728000 L 383.468000 244.589000 L 388.304000 243.451000 L 393.156000 242.381000 L 398.028000 241.411000 L 402.922000 240.560000 L 407.829000 239.779000 L 412.725000 238.936000 L 417.606000 238.007000 L 422.468000 236.988000 L 427.333000 235.979000 L 432.224000 235.105000 L 437.121000 234.268000 L 442.013000 233.403000 L 446.872000 232.366000 L 451.731000 231.329000 L 456.590000 230.292000 L 461.450000 229.257000 L 466.314000 228.245000 L 471.191000 227.299000 L 476.078000 226.404000 L 480.974000 225.562000 L 485.883000 224.793000 L 490.803000 224.102000 L 495.707000 223.312000 L 500.592000 222.405000 L 505.477000 221.498000 L 510.361000 220.590000 L 515.246000 219.683000 L 520.131000 218.775000 L 525.016000 217.868000 L 529.901000 216.960000 L 534.786000 216.053000 L 539.670000 215.145000 L 544.555000 214.238000 L 549.440000 213.331000 L 554.325000 212.423000 L 559.210000 211.515000 L 564.094000 210.605000 L 568.975000 209.675000 L 573.850000 208.718000 L 578.722000 207.743000 L 583.593000 206.767000 L 588.465000 205.792000 L 593.337000 204.817000 L 598.209000 203.842000 L 603.080000 202.866000 L 607.952000 201.891000 L 612.824000 200.916000 L 617.696000 199.941000 L 622.567000 198.965000 L 627.439000 197.990000 L 632.311000 197.015000 L 637.183000 196.040000 L 642.054000 195.064000 L 646.926000 194.089000 L 651.798000 193.114000 L 656.670000 192.139000 L 661.541000 191.163000" fill="none" id="6" stroke="#c94e76" stroke-width="0.5" /><path d="M 203.431000 294.203000 L 208.245000 292.873000 L 213.068000 291.578000 L 217.910000 290.356000 L 222.788000 289.289000 L 227.660000 288.190000 L 232.532000 287.092000 L 237.403000 285.993000 L 242.275000 284.895000 L 247.145000 283.789000 L 251.997000 282.610000 L 256.828000 281.342000 L 261.655000 280.064000 L 266.483000 278.786000 L 271.311000 277.508000 L 276.138000 276.230000 L 280.968000 274.961000 L 285.813000 273.749000 L 290.672000 272.597000 L 295.534000 271.456000 L 300.396000 270.315000 L 305.258000 269.176000 L 310.122000 268.046000 L 314.990000 266.932000 L 319.860000 265.826000 L 324.731000 264.723000 L 329.601000 263.619000 L 334.472000 262.515000 L 339.342000 261.411000 L 344.213000 260.309000 L 349.086000 259.217000 L 353.963000 258.142000 L 358.842000 257.077000 L 363.721000 256.013000 L 368.601000 254.949000 L 373.480000 253.886000 L 378.359000 252.822000 L 383.238000 251.758000 L 388.118000 250.694000 L 392.997000 249.630000 L 397.876000 248.566000 L 402.756000 247.503000 L 407.635000 246.439000 L 412.515000 245.379000 L 417.398000 244.333000 L 422.285000 243.303000 L 427.173000 242.280000 L 432.061000 241.257000 L 436.949000 240.234000 L 441.837000 239.211000 L 446.725000 238.188000 L 451.613000 237.165000 L 456.501000 236.142000 L 461.389000 235.119000 L 466.277000 234.096000 L 471.165000 233.073000 L 476.051000 232.038000 L 480.929000 230.969000 L 485.801000 229.873000 L 490.672000 228.772000 L 495.543000 227.670000 L 500.414000 226.568000 L 505.284000 225.466000 L 510.155000 224.364000 L 515.026000 223.263000 L 519.897000 222.161000 L 524.768000 221.059000 L 529.639000 219.957000 L 534.510000 218.856000 L 539.381000 217.754000 L 544.252000 216.652000 L 549.122000 215.550000 L 553.993000 214.449000 L 558.864000 213.347000 L 563.735000 212.245000 L 568.606000 211.143000 L 573.477000 210.042000 L 578.348000 208.940000 L 583.219000 207.838000 L 588.089000 206.736000 L 592.960000 205.634000 L 597.831000 204.530000 L 602.696000 203.405000 L 607.555000 202.252000 L 612.414000 201.098000 L 617.273000 199.944000 L 622.131000 198.790000 L 626.990000 197.636000" fill="none" id="7" stroke="#57b870" stroke-width="0.5" /><path d="M 216.974000 542.470000 L 221.730000 541.018000 L 226.485000 539.566000 L 231.240000 538.113000 L 235.996000 536.661000 L 240.751000 535.209000 L 245.506000 533.756000 L 250.261000 532.304000 L 255.016000 530.849000 L 259.763000 529.370000 L 264.471000 527.772000 L 269.166000 526.134000 L 273.857000 524.486000 L 278.547000 522.836000 L 283.238000 521.187000 L 287.929000 519.538000 L 292.623000 517.900000 L 297.334000 516.310000 L 302.052000 514.739000 L 306.770000 513.171000 L 311.488000 511.603000 L 316.207000 510.034000 L 320.925000 508.466000 L 325.643000 506.898000 L 330.362000 505.330000 L 335.080000 503.761000 L 339.798000 502.193000 L 344.517000 500.625000 L 349.235000 499.057000 L 353.953000 497.489000 L 358.674000 495.926000 L 363.403000 494.390000 L 368.140000 492.881000 L 372.881000 491.382000 L 377.622000 489.883000 L 382.363000 488.384000 L 387.103000 486.885000 L 391.844000 485.386000 L 396.585000 483.887000 L 401.319000 482.367000 L 406.041000 480.809000 L 410.750000 479.215000 L 415.456000 477.608000 L 420.161000 476.002000 L 424.867000 474.395000 L 429.672000 473.119000 L 434.514000 471.992000 L 439.317000 470.712000 L 444.078000 469.278000 L 448.820000 467.786000 L 453.563000 466.293000 L 458.306000 464.800000 L 463.049000 463.308000 L 467.792000 461.815000 L 472.535000 460.323000 L 477.277000 458.830000 L 482.020000 457.337000 L 486.763000 455.845000 L 491.550000 454.516000 L 496.401000 453.424000 L 501.244000 452.309000 L 506.010000 450.890000 L 510.775000 449.471000 L 515.540000 448.053000 L 520.306000 446.634000 L 525.071000 445.215000 L 529.837000 443.797000 L 534.602000 442.378000 L 539.368000 440.959000 L 544.133000 439.541000 L 548.899000 438.122000 L 553.664000 436.703000 L 558.433000 435.298000 L 563.261000 434.116000 L 568.134000 433.132000 L 572.962000 431.972000 L 577.733000 430.571000 L 582.504000 429.170000 L 587.274000 427.769000 L 592.045000 426.368000 L 596.816000 424.967000 L 601.586000 423.566000 L 606.357000 422.165000 L 611.134000 420.786000 L 615.932000 419.484000 L 620.757000 418.284000 L 625.599000 417.153000 L 630.444000 416.035000 L 635.286000 414.904000 L 640.086000 413.608000 L 644.875000 412.272000 L 649.663000 410.930000 L 654.450000 409.588000 L 659.236000 408.241000 L 664.015000 406.869000 L 668.779000 405.443000 L 673.525000 403.961000 L 678.279000 402.504000 L 683.080000 401.213000 L 687.922000 400.086000 L 692.772000 398.991000 L 697.611000 397.847000 L 702.428000 396.617000 L 707.228000 395.318000 L 712.025000 394.011000 L 716.822000 392.705000 L 721.620000 391.398000 L 726.417000 390.091000 L 731.214000 388.784000 L 736.011000 387.477000 L 740.809000 386.170000 L 745.606000 384.863000 L 750.403000 383.557000 L 755.201000 382.250000 L 759.998000 380.943000" fill="none" id="8" stroke="#d271bb" stroke-width="0.5" /><path d="M 37.856300 252.746000 L 41.658200 255.979000 L 45.460200 259.212000 L 49.262100 262.445000 L 53.064000 265.678000 L 56.863800 268.914000 L 60.621400 272.198000 L 64.304900 275.565000 L 67.974700 278.947000 L 71.643800 282.330000 L 75.312800 285.713000 L 78.981900 289.096000 L 82.651000 292.479000 L 86.320100 295.863000 L 89.989100 299.246000 L 93.658200 302.629000 L 97.327300 306.012000 L 100.996000 309.395000 L 104.665000 312.778000 L 108.339000 316.155000 L 112.042000 319.502000 L 115.777000 322.812000 L 119.520000 326.113000 L 123.263000 329.414000 L 127.006000 332.715000 L 130.749000 336.016000 L 134.492000 339.316000 L 138.235000 342.617000 L 141.979000 345.918000 L 145.724000 349.216000 L 149.490000 352.491000 L 153.304000 355.710000 L 157.151000 358.888000 L 161.007000 362.057000 L 164.863000 365.226000 L 168.719000 368.394000 L 172.575000 371.563000 L 176.430000 374.731000 L 180.286000 377.900000 L 184.140000 381.071000 L 187.974000 384.265000 L 191.773000 387.502000 L 195.554000 390.760000 L 199.333000 394.019000 L 203.113000 397.278000 L 206.892000 400.537000 L 210.672000 403.797000 L 214.454000 407.052000 L 218.254000 410.287000 L 222.080000 413.491000 L 225.920000 416.680000 L 229.760000 419.868000 L 233.600000 423.055000 L 237.440000 426.243000 L 241.280000 429.430000 L 245.120000 432.618000 L 248.943000 435.827000 L 252.719000 439.089000 L 256.465000 442.387000 L 260.206000 445.691000 L 263.946000 448.994000 L 267.687000 452.298000 L 271.427000 455.602000 L 275.167000 458.906000 L 278.916000 462.201000 L 282.700000 465.454000 L 286.530000 468.655000 L 290.371000 471.840000 L 294.213000 475.026000 L 298.055000 478.211000 L 301.897000 481.397000 L 305.739000 484.582000 L 309.580000 487.768000 L 313.416000 490.961000 L 317.231000 494.179000 L 321.037000 497.407000 L 324.842000 500.636000 L 328.648000 503.864000 L 332.453000 507.093000 L 336.259000 510.322000 L 340.065000 513.550000 L 343.874000 516.774000 L 347.710000 519.968000 L 351.563000 523.139000 L 355.418000 526.309000 L 359.273000 529.478000 L 363.128000 532.648000 L 366.983000 535.817000 L 370.838000 538.987000 L 374.672000 542.182000 L 378.489000 545.397000 L 382.261000 548.664000 L 385.982000 551.990000" fill="none" id="9" stroke="#3d8e43" stroke-width="0.5" /><path d="M 331.463000 364.620000 L 331.313000 369.480000 L 331.214000 374.342000 L 331.170000 379.204000 L 331.214000 384.066000 L 331.461000 388.922000 L 331.733000 393.777000 L 331.955000 398.635000 L 332.116000 403.494000 L 332.262000 408.355000 L 332.407000 413.215000 L 332.551000 418.075000 L 332.696000 422.936000 L 332.841000 427.796000 L 332.985000 432.656000 L 333.130000 437.517000 L 333.274000 442.377000 L 333.419000 447.237000 L 333.564000 452.097000 L 333.708000 456.958000 L 333.853000 461.818000 L 333.998000 466.678000 L 334.137000 471.539000 L 334.238000 476.400000 L 334.270000 481.263000 L 334.274000 486.125000 L 334.278000 490.988000 L 334.282000 495.850000 L 334.286000 500.712000 L 334.290000 505.575000 L 334.290000 510.437000 L 334.260000 515.300000 L 334.176000 520.162000 L 334.081000 525.023000 L 333.986000 529.885000 L 333.888000 534.746000" fill="none" id="10" stroke="#00d4db" stroke-width="0.5" /><path d="M 323.589000 389.447000 L 323.537000 394.315000 L 323.653000 399.182000 L 324.037000 404.035000 L 324.549000 408.876000 L 325.010000 413.723000 L 325.325000 418.581000 L 325.573000 423.443000 L 325.785000 428.307000 L 325.988000 433.171000 L 326.191000 438.035000 L 326.394000 442.899000 L 326.597000 447.763000 L 326.801000 452.627000 L 327.004000 457.491000 L 327.207000 462.355000 L 327.410000 467.219000 L 327.613000 472.083000 L 327.816000 476.947000 L 328.019000 481.811000 L 328.230000 486.675000 L 328.514000 491.535000 L 328.925000 496.386000 L 329.367000 501.234000 L 329.809000 506.083000 L 330.254000 510.931000 L 330.729000 515.776000 L 331.304000 520.610000 L 331.934000 525.437000 L 332.565000 530.265000 L 333.195000 535.092000 L 333.825000 539.919000" fill="none" id="11" stroke="#d55969" stroke-width="0.5" /><path d="M 661.667000 297.699000 L 661.068000 302.383000 L 660.576000 307.079000 L 660.207000 311.786000 L 660.029000 316.505000 L 659.932000 321.226000 L 659.847000 325.947000 L 659.763000 330.668000 L 659.679000 335.389000 L 659.595000 340.111000 L 659.511000 344.832000 L 659.426000 349.553000 L 659.342000 354.275000 L 659.258000 358.996000 L 659.174000 363.717000 L 659.090000 368.438000 L 659.006000 373.160000 L 658.922000 377.881000 L 658.840000 382.602000 L 658.771000 387.324000 L 658.731000 392.046000 L 658.712000 396.768000 L 658.697000 401.490000 L 658.683000 406.212000 L 658.668000 410.934000 L 658.654000 415.656000 L 658.639000 420.378000 L 658.624000 425.100000 L 658.610000 429.822000 L 658.595000 434.544000 L 658.581000 439.266000" fill="none" id="12" stroke="#64e4ff" stroke-width="0.5" /><path d="M 214.770000 144.675000 L 219.604000 145.817000 L 224.473000 146.796000 L 229.338000 147.800000 L 234.165000 148.967000 L 239.043000 149.906000 L 243.921000 150.843000 L 248.799000 151.779000 L 253.677000 152.716000 L 258.556000 153.646000 L 263.444000 154.528000 L 268.342000 155.354000 L 273.241000 156.173000 L 278.140000 156.991000 L 283.040000 157.809000 L 287.939000 158.627000 L 292.838000 159.446000 L 297.737000 160.264000 L 302.637000 161.082000 L 307.536000 161.900000 L 312.433000 162.730000 L 317.324000 163.594000 L 322.212000 164.480000 L 327.099000 165.370000 L 331.985000 166.260000 L 336.872000 167.150000 L 341.759000 168.040000 L 346.645000 168.931000 L 351.532000 169.821000 L 356.419000 170.711000 L 361.305000 171.601000 L 366.192000 172.491000 L 371.079000 173.381000 L 375.965000 174.271000 L 380.852000 175.161000 L 385.739000 176.052000 L 390.625000 176.942000 L 395.512000 177.832000 L 400.399000 178.722000 L 405.285000 179.612000 L 410.172000 180.502000 L 415.060000 181.386000 L 419.953000 182.241000 L 424.853000 183.051000 L 429.757000 183.845000 L 434.660000 184.640000 L 439.563000 185.434000 L 444.466000 186.228000 L 449.369000 187.023000 L 454.272000 187.817000 L 459.176000 188.611000 L 464.079000 189.405000 L 468.982000 190.200000 L 473.885000 190.994000 L 478.787000 191.793000 L 483.685000 192.624000 L 488.573000 193.505000 L 493.459000 194.396000 L 498.346000 195.287000 L 503.232000 196.181000 L 508.113000 197.101000 L 512.985000 198.066000 L 517.855000 199.045000 L 522.725000 200.024000 L 527.594000 201.004000 L 532.464000 201.984000 L 537.333000 202.963000 L 542.203000 203.943000" fill="none" id="13" stroke="#e68e54" stroke-width="0.5" /><path d="M 208.659000 144.722000 L 213.545000 145.499000 L 218.424000 146.306000 L 223.268000 147.313000 L 228.147000 148.138000 L 233.031000 148.931000 L 237.918000 149.706000 L 242.805000 150.482000 L 247.692000 151.260000 L 252.575000 152.060000 L 257.450000 152.907000 L 262.320000 153.782000 L 267.190000 154.658000 L 272.060000 155.533000 L 276.931000 156.402000 L 281.807000 157.249000 L 286.686000 158.069000 L 291.567000 158.883000 L 296.448000 159.697000 L 301.329000 160.511000 L 306.209000 161.325000 L 311.090000 162.139000 L 315.971000 162.953000 L 320.852000 163.767000 L 325.733000 164.581000 L 330.613000 165.395000 L 335.494000 166.209000 L 340.375000 167.023000 L 345.256000 167.837000 L 350.136000 168.651000 L 355.017000 169.465000 L 359.898000 170.279000 L 364.779000 171.093000 L 369.659000 171.907000 L 374.540000 172.721000 L 379.421000 173.535000 L 384.302000 174.349000 L 389.183000 175.163000 L 394.063000 175.977000 L 398.944000 176.791000 L 403.825000 177.604000 L 408.706000 178.418000 L 413.586000 179.232000 L 418.467000 180.046000 L 423.349000 180.856000 L 428.234000 181.644000 L 433.123000 182.406000 L 438.014000 183.157000 L 442.905000 183.905000 L 447.796000 184.654000 L 452.687000 185.403000 L 457.578000 186.152000 L 462.470000 186.901000 L 467.361000 187.650000 L 472.252000 188.399000 L 477.143000 189.148000 L 482.034000 189.897000 L 486.926000 190.646000 L 491.817000 191.394000 L 496.708000 192.144000 L 501.596000 192.911000 L 506.478000 193.720000 L 511.354000 194.563000 L 516.228000 195.412000 L 521.103000 196.262000 L 525.978000 197.111000 L 530.852000 197.960000 L 535.727000 198.810000 L 540.602000 199.659000 L 545.477000 200.508000 L 550.351000 201.357000 L 555.226000 202.207000 L 560.101000 203.056000 L 564.976000 203.905000 L 569.850000 204.755000 L 574.725000 205.604000 L 579.600000 206.453000 L 584.475000 207.303000 L 589.349000 208.152000 L 594.224000 209.001000 L 599.099000 209.851000 L 603.974000 210.700000 L 608.848000 211.549000" fill="none" id="14" stroke="#e68e54" stroke-width="0.5" /><path d="M 360.344000 137.778000 L 364.416000 140.657000 L 368.487000 143.537000 L 372.570000 146.400000 L 376.718000 149.167000 L 380.934000 151.831000 L 385.151000 154.493000 L 389.368000 157.154000 L 393.585000 159.816000 L 397.838000 162.420000 L 402.120000 164.975000 L 406.403000 167.530000 L 410.687000 170.082000 L 415.042000 172.510000 L 419.400000 174.934000 L 423.758000 177.358000 L 428.116000 179.782000 L 432.517000 182.127000 L 436.968000 184.377000 L 441.418000 186.627000 L 445.868000 188.877000 L 450.318000 191.127000 L 454.769000 193.377000 L 459.219000 195.627000 L 463.669000 197.878000 L 468.119000 200.128000 L 472.570000 202.378000 L 477.020000 204.628000 L 481.477000 206.863000 L 485.979000 209.009000 L 490.480000 211.155000 L 494.983000 213.298000 L 499.486000 215.440000 L 503.989000 217.583000 L 508.492000 219.725000 L 512.995000 221.868000 L 517.498000 224.011000 L 522.001000 226.153000 L 526.504000 228.296000 L 531.007000 230.439000 L 535.510000 232.581000 L 540.013000 234.724000 L 544.516000 236.866000 L 549.019000 239.009000 L 553.522000 241.152000 L 558.024000 243.294000 L 562.527000 245.437000 L 567.030000 247.580000 L 571.533000 249.722000 L 576.036000 251.865000 L 580.539000 254.008000 L 585.022000 256.193000 L 589.472000 258.443000 L 593.917000 260.703000 L 598.363000 262.962000 L 602.808000 265.222000 L 607.254000 267.481000 L 611.699000 269.741000 L 616.145000 272.000000 L 620.596000 274.247000 L 625.074000 276.443000 L 629.561000 278.619000 L 634.048000 280.795000 L 638.534000 282.971000 L 643.021000 285.147000 L 647.504000 287.332000 L 651.967000 289.555000 L 656.431000 291.779000 L 660.895000 294.002000 L 665.358000 296.226000 L 669.822000 298.449000 L 674.285000 300.673000 L 678.749000 302.896000 L 683.212000 305.120000 L 687.676000 307.343000 L 692.140000 309.567000 L 696.603000 311.791000 L 701.045000 314.057000 L 705.482000 316.333000 L 709.919000 318.609000 L 714.356000 320.885000 L 718.793000 323.161000 L 723.230000 325.437000 L 727.667000 327.713000 L 732.104000 329.989000 L 736.541000 332.265000 L 740.978000 334.541000 L 745.415000 336.817000" fill="none" id="15" stroke="#54aeff" stroke-width="0.5" /><path d="M 548.502000 236.612000 L 551.683000 238.636000 L 554.905000 240.595000 L 558.170000 242.482000 L 561.500000 244.251000 L 564.837000 246.007000 L 568.174000 247.763000 L 571.511000 249.518000 L 574.848000 251.275000 L 578.178000 253.043000 L 581.495000 254.837000 L 584.803000 256.647000 L 588.109000 258.461000 L 591.415000 260.275000 L 594.721000 262.089000 L 598.027000 263.902000 L 601.333000 265.716000 L 604.642000 267.525000 L 607.973000 269.291000 L 611.346000 270.976000 L 614.745000 272.609000 L 618.148000 274.233000 L 621.551000 275.857000 L 624.960000 277.469000 L 628.396000 279.022000 L 631.863000 280.504000 L 635.341000 281.961000 L 638.821000 283.415000 L 642.300000 284.869000 L 645.779000 286.323000 L 649.258000 287.778000" fill="none" id="16" stroke="#54aeff" stroke-width="0.5" /><path d="M 100.911000 155.494000 L 105.740000 156.747000 L 110.589000 157.914000 L 115.464000 158.970000 L 120.348000 159.985000 L 125.235000 160.983000 L 130.122000 161.981000 L 135.010000 162.979000 L 139.898000 163.969000 L 144.806000 164.861000 L 149.722000 165.704000 L 154.639000 166.543000 L 159.556000 167.382000 L 164.474000 168.220000 L 169.391000 169.059000 L 174.308000 169.898000 L 179.225000 170.737000 L 184.142000 171.576000 L 189.059000 172.414000 L 193.977000 173.247000 L 198.900000 174.047000 L 203.830000 174.808000 L 208.761000 175.560000 L 213.692000 176.312000 L 218.623000 177.063000 L 223.554000 177.815000 L 228.486000 178.566000 L 233.417000 179.318000 L 238.348000 180.070000 L 243.279000 180.821000 L 248.211000 181.570000 L 253.144000 182.305000 L 258.080000 183.025000 L 263.017000 183.739000 L 267.954000 184.452000 L 272.890000 185.165000 L 277.827000 185.878000 L 282.764000 186.591000 L 287.701000 187.304000 L 292.638000 188.017000 L 297.575000 188.730000 L 302.512000 189.444000 L 307.448000 190.157000 L 312.384000 190.881000 L 317.313000 191.641000 L 322.237000 192.442000 L 327.158000 193.258000 L 332.078000 194.075000 L 336.999000 194.894000 L 341.915000 195.735000 L 346.824000 196.621000 L 351.728000 197.532000 L 356.632000 198.446000 L 361.536000 199.359000 L 366.439000 200.273000 L 371.343000 201.186000 L 376.247000 202.099000 L 381.151000 203.013000 L 386.054000 203.926000 L 390.958000 204.840000 L 395.862000 205.753000 L 400.766000 206.667000 L 405.669000 207.580000 L 410.573000 208.494000 L 415.477000 209.407000 L 420.380000 210.321000 L 425.284000 211.234000 L 430.188000 212.147000 L 435.092000 213.061000 L 439.995000 213.974000 L 444.899000 214.888000 L 449.802000 215.804000 L 454.703000 216.734000 L 459.600000 217.683000 L 464.496000 218.637000 L 469.392000 219.592000 L 474.288000 220.547000 L 479.183000 221.502000 L 484.079000 222.457000 L 488.975000 223.412000 L 493.871000 224.367000 L 498.767000 225.321000 L 503.662000 226.276000 L 508.558000 227.231000 L 513.454000 228.186000 L 518.350000 229.141000 L 523.246000 230.096000 L 528.142000 231.051000 L 533.037000 232.006000" fill="none" id="17" stroke="#eed973" stroke-width="0.5" /><path d="M 133.667000 192.935000 L 138.584000 192.622000 L 143.493000 192.208000 L 148.395000 191.719000 L 153.266000 190.984000 L 158.129000 190.196000 L 162.992000 189.406000 L 167.854000 188.616000 L 172.717000 187.827000 L 177.582000 187.053000 L 182.460000 186.359000 L 187.344000 185.719000 L 192.230000 185.089000 L 197.116000 184.460000 L 202.002000 183.831000 L 206.889000 183.201000 L 211.775000 182.572000 L 216.661000 181.943000 L 221.547000 181.313000 L 226.433000 180.684000 L 231.319000 180.055000 L 236.206000 179.433000 L 241.096000 178.840000 L 245.990000 178.275000 L 250.885000 177.715000 L 255.779000 177.155000 L 260.674000 176.596000 L 265.569000 176.037000 L 270.464000 175.491000 L 275.363000 174.965000 L 280.262000 174.449000 L 285.161000 173.932000 L 290.061000 173.416000 L 294.960000 172.899000 L 299.859000 172.382000 L 304.758000 171.866000 L 309.658000 171.349000 L 314.557000 170.833000 L 319.456000 170.316000 L 324.355000 169.800000 L 329.255000 169.283000 L 334.154000 168.767000 L 339.053000 168.250000" fill="none" id="18" stroke="#fdb968" stroke-width="0.5" /><path d="M 138.360000 193.124000 L 143.294000 192.585000 L 148.224000 192.013000 L 153.149000 191.399000 L 158.069000 190.740000 L 162.988000 190.082000 L 167.908000 189.428000 L 172.833000 188.812000 L 177.763000 188.243000 L 182.695000 187.684000 L 187.626000 187.126000 L 192.558000 186.568000 L 197.490000 186.010000 L 202.422000 185.453000 L 207.353000 184.895000 L 212.284000 184.328000 L 217.211000 183.727000 L 222.133000 183.089000 L 227.053000 182.439000 L 231.974000 181.788000 L 236.894000 181.137000 L 241.814000 180.486000 L 246.734000 179.835000 L 251.655000 179.184000 L 256.575000 178.533000 L 261.495000 177.882000 L 266.416000 177.231000 L 271.336000 176.580000 L 276.256000 175.929000 L 281.178000 175.290000 L 286.104000 174.683000 L 291.033000 174.099000 L 295.962000 173.519000 L 300.891000 172.940000 L 305.821000 172.360000 L 310.750000 171.781000 L 315.679000 171.201000 L 320.608000 170.621000 L 325.538000 170.043000 L 330.469000 169.482000 L 335.405000 168.966000 L 340.345000 168.488000 L 345.286000 168.017000 L 350.227000 167.547000 L 355.168000 167.076000 L 360.109000 166.605000 L 365.050000 166.139000 L 369.995000 165.715000 L 374.947000 165.389000 L 379.901000 165.077000 L 384.854000 164.766000 L 389.808000 164.455000 L 394.761000 164.144000 L 399.715000 163.833000" fill="none" id="19" stroke="#fdb968" stroke-width="0.5" /><path d="M 131.274000 194.069000 L 136.233000 193.708000 L 141.186000 193.281000 L 146.131000 192.764000 L 151.069000 192.178000 L 156.006000 191.587000 L 160.942000 190.996000 L 165.879000 190.404000 L 170.816000 189.813000 L 175.753000 189.222000 L 180.690000 188.631000 L 185.626000 188.040000 L 190.563000 187.449000 L 195.500000 186.858000 L 200.437000 186.267000 L 205.374000 185.676000 L 210.307000 185.059000 L 215.231000 184.369000 L 220.149000 183.634000 L 225.065000 182.892000 L 229.981000 182.149000 L 234.898000 181.407000 L 239.814000 180.664000 L 244.730000 179.922000 L 249.647000 179.179000 L 254.563000 178.437000 L 259.479000 177.694000 L 264.396000 176.952000 L 269.312000 176.209000 L 274.230000 175.478000 L 279.152000 174.774000 L 284.077000 174.093000 L 289.003000 173.415000 L 293.928000 172.738000 L 298.854000 172.061000 L 303.780000 171.384000 L 308.706000 170.707000 L 313.631000 170.030000 L 318.557000 169.352000 L 323.483000 168.675000 L 328.409000 167.998000 L 333.334000 167.321000 L 338.260000 166.644000 L 343.186000 165.967000 L 348.112000 165.289000 L 353.037000 164.612000" fill="none" id="20" stroke="#fdb968" stroke-width="0.5" /><path d="M 89.887800 194.352000 L 94.836800 194.311000 L 99.782800 194.136000 L 104.711000 193.682000 L 109.620000 193.054000 L 114.534000 192.466000 L 119.454000 191.925000 L 124.380000 191.444000 L 129.306000 190.968000 L 134.232000 190.492000 L 139.158000 190.016000 L 144.084000 189.540000 L 149.010000 189.063000 L 153.937000 188.587000 L 158.863000 188.111000 L 163.789000 187.635000 L 168.715000 187.159000 L 173.641000 186.683000 L 178.568000 186.206000 L 183.492000 185.709000 L 188.404000 185.106000 L 193.310000 184.455000 L 198.216000 183.800000 L 203.120000 183.137000 L 208.019000 182.433000 L 212.915000 181.708000 L 217.810000 180.981000 L 222.706000 180.254000 L 227.601000 179.528000 L 232.497000 178.801000 L 237.392000 178.074000 L 242.288000 177.347000 L 247.183000 176.620000 L 252.079000 175.893000 L 256.974000 175.166000 L 261.869000 174.439000 L 266.765000 173.712000 L 271.660000 172.986000 L 276.556000 172.259000 L 281.451000 171.532000 L 286.347000 170.805000 L 291.242000 170.078000 L 296.138000 169.351000 L 301.033000 168.624000 L 305.929000 167.897000 L 310.824000 167.170000 L 315.720000 166.443000 L 320.616000 165.722000 L 325.516000 165.027000 L 330.420000 164.360000 L 335.324000 163.695000 L 340.229000 163.030000 L 345.133000 162.365000 L 350.037000 161.699000 L 354.941000 161.034000 L 359.845000 160.369000 L 364.750000 159.703000 L 369.654000 159.038000 L 374.558000 158.373000 L 379.462000 157.707000 L 384.366000 157.042000 L 389.271000 156.377000 L 394.175000 155.712000 L 399.079000 155.046000 L 403.983000 154.381000 L 408.888000 153.716000 L 413.793000 153.060000 L 418.702000 152.429000 L 423.612000 151.808000 L 428.522000 151.187000 L 433.432000 150.566000 L 438.342000 149.946000 L 443.252000 149.325000 L 448.162000 148.704000 L 453.072000 148.083000 L 457.982000 147.463000" fill="none" id="21" stroke="#fdb968" stroke-width="0.5" /><path d="M 86.265700 188.400000 L 89.678600 192.007000 L 93.158600 195.550000 L 96.668900 199.063000 L 100.205400 202.549000 L 103.811000 205.964000 L 107.471000 209.320000 L 111.222000 212.574000 L 114.987000 215.812000 L 118.753000 219.049000 L 122.519000 222.286000 L 126.285000 225.523000 L 130.052000 228.760000 L 133.819000 231.996000 L 137.602000 235.213000 L 141.446000 238.357000 L 145.340000 241.439000 L 149.243000 244.508000 L 153.147000 247.578000 L 157.051000 250.648000 L 160.955000 253.717000 L 164.871000 256.770000 L 168.818000 259.785000 L 172.778000 262.782000 L 176.738000 265.777000 L 180.699000 268.773000 L 184.660000 271.769000 L 188.620000 274.765000 L 192.581000 277.760000 L 196.542000 280.756000 L 200.502000 283.752000 L 204.463000 286.747000 L 208.424000 289.743000 L 212.385000 292.739000 L 216.345000 295.735000 L 220.306000 298.730000 L 224.267000 301.726000 L 228.227000 304.722000 L 232.188000 307.717000 L 236.145000 310.719000 L 240.084000 313.743000 L 244.000000 316.796000 L 247.906000 319.864000 L 251.809000 322.933000 L 255.713000 326.003000 L 259.616000 329.073000 L 263.520000 332.143000 L 267.424000 335.212000 L 271.327000 338.282000 L 275.231000 341.352000 L 279.135000 344.421000 L 283.038000 347.491000 L 286.942000 350.561000 L 290.845000 353.631000 L 294.749000 356.700000 L 298.652000 359.771000 L 302.546000 362.853000 L 306.410000 365.973000 L 310.252000 369.119000 L 314.091000 372.269000 L 317.928000 375.421000 L 321.750000 378.593000 L 325.527000 381.816000 L 329.290000 385.057000 L 333.051000 388.300000 L 336.813000 391.542000 L 340.574000 394.784000 L 344.336000 398.027000 L 348.097000 401.269000 L 351.859000 404.512000 L 355.620000 407.754000" fill="none" id="22" stroke="#6f73bc" stroke-width="0.5" /><path d="M 103.463000 208.833000 L 107.166000 212.084000 L 110.975000 215.211000 L 114.933000 218.147000 L 118.942000 221.013000 L 122.894000 223.957000 L 126.780000 226.986000 L 130.576000 230.130000 L 134.345000 233.305000 L 138.114000 236.480000 L 141.899000 239.636000 L 145.711000 242.759000 L 149.538000 245.865000 L 153.368000 248.967000 L 157.207000 252.057000 L 161.069000 255.118000 L 164.952000 258.152000 L 168.841000 261.179000 L 172.730000 264.206000 L 176.619000 267.233000 L 180.509000 270.259000 L 184.398000 273.286000 L 188.287000 276.313000 L 192.176000 279.340000 L 196.066000 282.367000 L 199.955000 285.393000 L 203.844000 288.420000 L 207.733000 291.447000 L 211.622000 294.474000 L 215.512000 297.500000 L 219.401000 300.527000 L 223.290000 303.554000 L 227.179000 306.581000" fill="none" id="23" stroke="#6f73bc" stroke-width="0.5" /><path d="M 249.384000 319.195000 L 251.584000 320.631000 L 253.742000 322.129000 L 255.845000 323.701000 L 257.886000 325.355000 L 259.857000 327.093000 L 261.824000 328.834000 L 263.791000 330.576000 L 265.757000 332.318000 L 267.724000 334.060000 L 269.695000 335.797000 L 271.685000 337.513000 L 273.692000 339.208000 L 275.710000 340.891000 L 277.727000 342.573000 L 279.745000 344.255000 L 281.763000 345.938000 L 283.781000 347.620000 L 285.799000 349.302000 L 287.817000 350.985000 L 289.835000 352.667000 L 291.853000 354.349000 L 293.871000 356.032000 L 295.891000 357.712000 L 297.922000 359.378000 L 299.978000 361.013000 L 302.088000 362.579000 L 304.227000 364.103000 L 306.372000 365.621000 L 308.520000 367.133000 L 310.675000 368.636000" fill="none" id="24" stroke="#6f73bc" stroke-width="0.5" /><path d="M 316.565000 384.675000 L 321.466000 383.837000 L 326.355000 382.935000 L 331.228000 381.947000 L 336.078000 380.854000 L 340.901000 379.646000 L 345.722000 378.429000 L 350.543000 377.212000 L 355.364000 375.995000 L 360.185000 374.779000 L 365.007000 373.567000 L 369.836000 372.385000 L 374.671000 371.224000 L 379.506000 370.066000 L 384.342000 368.909000 L 389.177000 367.751000 L 394.012000 366.593000 L 398.848000 365.436000 L 403.683000 364.278000 L 408.518000 363.120000 L 413.355000 361.967000 L 418.197000 360.838000 L 423.047000 359.744000 L 427.899000 358.659000 L 432.752000 357.575000 L 437.604000 356.490000 L 442.456000 355.406000 L 447.308000 354.321000 L 452.161000 353.237000 L 457.013000 352.152000 L 461.865000 351.068000 L 466.718000 349.983000 L 471.570000 348.899000 L 476.422000 347.814000 L 481.274000 346.730000 L 486.127000 345.645000 L 490.982000 344.573000 L 495.843000 343.530000 L 500.709000 342.510000 L 505.577000 341.495000 L 510.444000 340.481000 L 515.312000 339.466000 L 520.179000 338.451000 L 525.046000 337.437000 L 529.914000 336.422000 L 534.781000 335.406000 L 539.645000 334.378000 L 544.505000 333.325000 L 549.360000 332.253000 L 554.214000 331.177000 L 559.068000 330.101000 L 563.921000 329.019000 L 568.770000 327.918000 L 573.615000 326.804000 L 578.460000 325.685000 L 583.304000 324.567000 L 588.149000 323.448000 L 592.993000 322.330000 L 597.838000 321.212000 L 602.683000 320.093000 L 607.527000 318.975000 L 612.372000 317.856000 L 617.216000 316.738000 L 622.061000 315.620000 L 626.906000 314.501000 L 631.750000 313.383000 L 636.595000 312.264000 L 641.439000 311.146000 L 646.284000 310.028000 L 651.128000 308.906000 L 655.961000 307.738000 L 660.789000 306.554000 L 665.617000 305.365000 L 670.445000 304.176000 L 675.274000 302.990000" fill="none" id="25" stroke="#bee481" stroke-width="0.5" /><path d="M 646.360000 285.722000 L 646.202000 290.693000 L 646.104000 295.665000 L 646.084000 300.638000 L 646.118000 305.610000 L 645.981000 310.580000 L 645.591000 315.538000 L 645.163000 320.492000 L 644.735000 325.446000 L 644.307000 330.401000 L 643.878000 335.355000 L 643.450000 340.310000 L 643.022000 345.264000 L 642.594000 350.219000 L 642.166000 355.173000 L 641.738000 360.128000 L 641.313000 365.082000 L 640.917000 370.039000 L 640.574000 375.000000 L 640.259000 379.963000 L 639.948000 384.926000 L 639.637000 389.890000 L 639.331000 394.853000 L 639.065000 399.819000 L 638.886000 404.788000 L 638.759000 409.759000 L 638.664000 414.731000 L 638.633000 419.704000 L 638.646000 424.677000 L 638.664000 429.650000 L 638.683000 434.623000 L 638.701000 439.596000 L 638.720000 444.568000 L 638.738000 449.541000" fill="none" id="26" stroke="#8f6aaf" stroke-width="0.5" /><path d="M 204.911000 284.045000 L 204.649000 287.986000 L 204.598000 291.934000 L 204.879000 295.873000 L 205.143000 299.813000 L 205.218000 303.762000 L 205.226000 307.711000 L 205.226000 311.661000 L 205.226000 315.610000 L 205.196000 319.559000 L 205.062000 323.506000 L 204.837000 327.449000 L 204.587000 331.391000 L 204.334000 335.332000 L 204.082000 339.274000 L 203.830000 343.215000 L 203.578000 347.157000 L 203.326000 351.098000 L 203.073000 355.039000 L 202.821000 358.981000 L 202.569000 362.922000 L 202.317000 366.864000 L 202.084000 370.806000 L 201.927000 374.753000 L 201.847000 378.701000 L 201.793000 382.650000 L 201.740000 386.599000 L 201.688000 390.549000 L 201.672000 394.498000 L 201.774000 398.446000 L 201.951000 402.392000" fill="none" id="27" stroke="#8bb658" stroke-width="0.5" /><path d="M 511.526000 337.030000 L 511.373000 340.144000 L 511.220000 343.258000 L 511.068000 346.373000 L 510.915000 349.487000 L 510.762000 352.601000 L 510.609000 355.716000 L 510.458000 358.830000 L 510.316000 361.945000 L 510.197000 365.061000 L 510.095000 368.177000 L 510.000000 371.294000 L 509.908000 374.411000 L 509.817000 377.528000 L 509.725000 380.644000 L 509.633000 383.761000 L 509.541000 386.878000 L 509.449000 389.995000 L 509.357000 393.112000 L 509.265000 396.228000 L 509.183000 399.345000 L 509.131000 402.463000 L 509.129000 405.581000 L 509.146000 408.699000 L 509.166000 411.817000 L 509.187000 414.935000 L 509.207000 418.053000 L 509.228000 421.171000 L 509.248000 424.289000 L 509.269000 427.408000 L 509.289000 430.526000" fill="none" id="28" stroke="#bbabff" stroke-width="0.5" /><path d="M 592.156000 198.652000 L 591.204000 203.480000 L 590.114000 208.279000 L 588.859000 213.037000 L 587.390000 217.734000 L 585.792000 222.388000 L 584.184000 227.039000 L 582.575000 231.689000 L 580.967000 236.340000 L 579.358000 240.991000 L 577.750000 245.641000 L 576.141000 250.292000 L 574.533000 254.943000 L 572.924000 259.594000 L 571.316000 264.244000 L 569.707000 268.895000 L 568.099000 273.546000 L 566.510000 278.203000 L 564.994000 282.885000 L 563.522000 287.581000 L 562.057000 292.278000 L 560.612000 296.983000 L 559.239000 301.708000 L 557.913000 306.447000 L 556.593000 311.188000 L 555.273000 315.928000 L 553.952000 320.669000 L 552.632000 325.410000 L 551.312000 330.150000 L 549.991000 334.891000 L 548.671000 339.631000 L 547.351000 344.372000 L 546.030000 349.112000 L 544.710000 353.853000 L 543.391000 358.594000 L 542.083000 363.338000 L 540.790000 368.086000 L 539.501000 372.835000 L 538.212000 377.584000 L 536.923000 382.334000 L 535.634000 387.083000 L 534.345000 391.832000 L 533.056000 396.581000 L 531.768000 401.331000 L 530.479000 406.080000 L 529.188000 410.829000 L 527.883000 415.573000 L 526.537000 420.307000 L 525.178000 425.036000 L 523.818000 429.766000 L 522.455000 434.494000" fill="none" id="29" stroke="#658424" stroke-width="0.5" /><path d="M 591.841000 95.966500 L 591.529000 100.036400 L 591.289000 104.111000 L 591.143000 108.190000 L 591.094000 112.272000 L 591.046000 116.353000 L 590.997000 120.435000 L 590.949000 124.516000 L 590.900000 128.598000 L 590.852000 132.680000 L 590.804000 136.761000 L 590.755000 140.843000 L 590.675000 144.924000 L 590.547000 149.003000 L 590.396000 153.082000 L 590.241000 157.161000 L 590.086000 161.240000 L 589.931000 165.319000 L 589.776000 169.398000 L 589.621000 173.477000 L 589.466000 177.556000 L 589.311000 181.635000 L 589.156000 185.713000 L 589.001000 189.792000 L 588.846000 193.871000 L 588.696000 197.950000 L 588.577000 202.030000 L 588.527000 206.112000 L 588.521000 210.194000 L 588.515000 214.275000 L 588.508000 218.357000 L 588.502000 222.439000" fill="none" id="30" stroke="#658424" stroke-width="0.5" /><path d="M 586.518000 61.336600 L 587.440000 66.199600 L 588.185000 71.092600 L 588.686000 76.016700 L 588.988000 80.957000 L 589.128000 85.904700 L 589.236000 90.853400 L 589.331000 95.802200 L 589.379000 100.752000 L 589.393000 105.701000 L 589.399000 110.651000 L 589.405000 115.601000 L 589.411000 120.551000 L 589.417000 125.501000 L 589.423000 130.450000 L 589.429000 135.400000 L 589.435000 140.350000 L 589.441000 145.300000 L 589.447000 150.250000 L 589.453000 155.199000 L 589.459000 160.149000 L 589.465000 165.099000 L 589.473000 170.049000 L 589.508000 174.998000 L 589.617000 179.947000 L 589.785000 184.894000 L 589.966000 189.840000 L 590.158000 194.786000 L 590.415000 199.729000 L 590.736000 204.668000 L 591.067000 209.607000 L 591.399000 214.546000 L 591.730000 219.485000 L 592.061000 224.423000" fill="none" id="31" stroke="#658424" stroke-width="0.5" /><path d="M 593.321000 153.132000 L 591.901000 157.907000 L 590.406000 162.659000 L 588.850000 167.391000 L 587.072000 172.045000 L 585.207000 176.665000 L 583.332000 181.280000 L 581.457000 185.896000 L 579.581000 190.511000 L 577.706000 195.127000 L 575.833000 199.743000 L 573.982000 204.368000 L 572.177000 209.012000 L 570.402000 213.667000 L 568.631000 218.323000 L 566.861000 222.980000 L 565.090000 227.637000 L 563.320000 232.293000 L 561.555000 236.952000 L 559.825000 241.624000 L 558.152000 246.317000 L 556.500000 251.017000 L 554.849000 255.717000 L 553.198000 260.417000 L 551.547000 265.118000 L 549.896000 269.818000 L 548.245000 274.519000 L 546.594000 279.219000 L 544.944000 283.920000 L 543.301000 288.623000 L 541.694000 293.338000 L 540.127000 298.068000 L 538.572000 302.800000 L 537.016000 307.533000 L 535.462000 312.267000 L 533.932000 317.007000 L 532.456000 321.766000 L 531.022000 326.537000 L 529.597000 331.311000 L 528.172000 336.084000 L 526.747000 340.858000 L 525.322000 345.632000 L 523.893000 350.404000 L 522.433000 355.167000 L 520.937000 359.919000 L 519.433000 364.669000 L 517.919000 369.415000" fill="none" id="32" stroke="#f1b9ff" stroke-width="0.5" /><path d="M 590.266000 141.604000 L 589.415000 146.519000 L 588.409000 151.403000 L 587.216000 156.245000 L 585.785000 161.022000 L 584.222000 165.759000 L 582.644000 170.490000 L 581.052000 175.216000 L 579.420000 179.929000 L 577.773000 184.636000 L 576.123000 189.342000 L 574.473000 194.049000 L 572.823000 198.755000 L 571.173000 203.462000 L 569.523000 208.168000 L 567.873000 212.875000 L 566.224000 217.581000 L 564.574000 222.288000 L 562.924000 226.994000 L 561.274000 231.701000 L 559.624000 236.407000 L 557.974000 241.114000 L 556.331000 245.823000 L 554.723000 250.544000 L 553.181000 255.286000 L 551.676000 260.041000 L 550.177000 264.798000 L 548.678000 269.555000 L 547.179000 274.311000 L 545.680000 279.068000 L 544.181000 283.825000 L 542.689000 288.584000 L 541.249000 293.358000 L 539.866000 298.150000 L 538.492000 302.944000 L 537.119000 307.739000 L 535.746000 312.533000" fill="none" id="33" stroke="#f1b9ff" stroke-width="0.5" /><path d="M 533.951000 305.234000 L 536.035000 300.816000 L 538.023000 296.352000 L 539.917000 291.849000 L 541.601000 287.263000 L 543.238000 282.659000 L 544.870000 278.054000 L 546.489000 273.444000 L 548.016000 268.803000 L 549.507000 264.151000 L 550.995000 259.497000 L 552.483000 254.843000 L 553.984000 250.194000 L 555.552000 245.566000 L 557.150000 240.950000 L 558.748000 236.333000 L 560.347000 231.716000 L 561.945000 227.099000 L 563.544000 222.482000 L 565.142000 217.865000 L 566.688000 213.230000 L 568.150000 208.569000 L 569.586000 203.899000 L 571.022000 199.229000 L 572.457000 194.559000 L 573.893000 189.889000 L 575.328000 185.218000 L 576.764000 180.548000 L 578.202000 175.879000 L 579.662000 171.217000 L 581.177000 166.572000 L 582.702000 161.930000 L 584.228000 157.289000 L 585.753000 152.647000 L 587.278000 148.006000 L 588.803000 143.364000 L 590.329000 138.722000" fill="none" id="34" stroke="#f1b9ff" stroke-width="0.5" /><path d="M 592.344000 55.265700 L 590.786000 59.999200 L 589.334000 64.766300 L 588.100000 69.594500 L 586.796000 74.404200 L 585.390000 79.185000 L 583.866000 83.929600 L 582.256000 88.645900 L 580.637000 93.358800 L 579.017000 98.071800 L 577.398000 102.785000 L 575.778000 107.498000 L 574.159000 112.211000 L 572.539000 116.924000 L 570.920000 121.637000 L 569.300000 126.350000 L 567.686000 131.064000 L 566.101000 135.789000 L 564.574000 140.532000 L 563.080000 145.287000 L 561.592000 150.043000 L 560.105000 154.799000 L 558.617000 159.555000 L 557.130000 164.312000 L 555.642000 169.068000 L 554.155000 173.824000 L 552.665000 178.580000 L 551.161000 183.331000 L 549.635000 188.075000 L 548.096000 192.815000 L 546.556000 197.554000 L 545.016000 202.294000 L 543.476000 207.033000 L 541.936000 211.773000 L 540.396000 216.512000 L 538.855000 221.252000 L 537.309000 225.989000 L 535.737000 230.718000 L 534.141000 235.439000 L 532.540000 240.158000 L 530.938000 244.877000 L 529.337000 249.597000 L 527.736000 254.316000 L 526.135000 259.035000 L 524.533000 263.754000 L 522.927000 268.471000 L 521.260000 273.168000 L 519.448000 277.810000 L 517.591000 282.434000 L 515.729000 287.057000 L 513.856000 291.675000" fill="none" id="35" stroke="#989c37" stroke-width="0.5" /><path d="M 525.037000 218.234000 L 524.528000 222.050000 L 524.141000 225.880000 L 523.939000 229.724000 L 523.811000 233.571000 L 523.670000 237.418000 L 523.438000 241.261000 L 523.139000 245.099000 L 522.819000 248.935000 L 522.496000 252.771000 L 522.174000 256.607000 L 521.852000 260.443000 L 521.529000 264.279000 L 521.207000 268.115000 L 520.885000 271.951000 L 520.562000 275.787000 L 520.240000 279.623000 L 519.923000 283.460000 L 519.631000 287.298000 L 519.377000 291.140000 L 519.149000 294.982000 L 518.954000 298.827000 L 518.834000 302.674000 L 518.791000 306.524000 L 518.766000 310.373000 L 518.740000 314.223000 L 518.715000 318.072000 L 518.697000 321.922000 L 518.757000 325.771000 L 518.891000 329.618000 L 519.085000 333.463000" fill="none" id="36" stroke="#bb568c" stroke-width="0.5" /><path d="M 589.604000 104.258000 L 588.607000 109.097000 L 587.490000 113.909000 L 586.202000 118.679000 L 584.775000 123.409000 L 583.338000 128.136000 L 581.901000 132.863000 L 580.463000 137.590000 L 578.954000 142.295000 L 577.363000 146.972000 L 575.756000 151.644000 L 574.148000 156.316000 L 572.531000 160.984000 L 570.871000 165.638000 L 569.196000 170.286000 L 567.521000 174.934000 L 565.846000 179.582000 L 564.170000 184.230000 L 562.495000 188.877000 L 560.820000 193.525000 L 559.145000 198.173000 L 557.469000 202.821000 L 555.794000 207.469000 L 554.119000 212.117000 L 552.444000 216.765000 L 550.768000 221.413000 L 549.093000 226.061000 L 547.418000 230.709000 L 545.743000 235.357000 L 544.067000 240.005000 L 542.392000 244.653000 L 540.758000 249.315000 L 539.236000 254.016000 L 537.738000 258.724000 L 536.241000 263.432000 L 534.744000 268.140000 L 533.262000 272.854000 L 531.845000 277.587000 L 530.485000 282.336000 L 529.125000 287.086000 L 527.764000 291.836000 L 526.404000 296.585000 L 525.043000 301.335000 L 523.683000 306.085000" fill="none" id="37" stroke="#cfe395" stroke-width="0.5" /><path d="M 530.455000 247.337000 L 530.699000 252.329000 L 530.944000 257.321000 L 531.188000 262.313000 L 531.419000 267.306000 L 531.544000 272.302000 L 531.601000 277.300000 L 531.647000 282.298000 L 531.694000 287.296000 L 531.740000 292.293000 L 531.787000 297.291000 L 531.833000 302.289000 L 531.880000 307.287000 L 531.926000 312.285000 L 531.972000 317.283000 L 532.019000 322.281000 L 532.065000 327.279000 L 532.112000 332.276000 L 532.173000 337.274000 L 532.284000 342.271000 L 532.451000 347.266000 L 532.639000 352.261000 L 532.829000 357.255000 L 533.024000 362.249000 L 533.248000 367.242000 L 533.508000 372.234000 L 533.776000 377.225000 L 534.044000 382.216000 L 534.312000 387.206000 L 534.580000 392.197000 L 534.848000 397.188000 L 535.116000 402.179000" fill="none" id="38" stroke="#c45372" stroke-width="0.5" /><path d="M 529.730000 217.762000 L 530.260000 222.589000 L 530.645000 227.430000 L 530.828000 232.283000 L 530.843000 237.139000 L 530.849000 241.995000 L 530.855000 246.851000 L 530.860000 251.708000 L 530.866000 256.564000 L 530.872000 261.420000 L 530.878000 266.276000 L 530.884000 271.132000 L 530.891000 275.989000 L 530.927000 280.845000 L 531.023000 285.700000 L 531.150000 290.554000 L 531.313000 295.408000 L 531.538000 300.259000 L 531.795000 305.108000 L 532.051000 309.958000 L 532.308000 314.807000 L 532.564000 319.657000 L 532.821000 324.506000 L 533.086000 329.355000 L 533.392000 334.202000 L 533.763000 339.044000 L 534.141000 343.885000 L 534.519000 348.727000 L 534.896000 353.568000 L 535.274000 358.410000 L 535.652000 363.251000 L 536.030000 368.093000" fill="none" id="39" stroke="#c45372" stroke-width="0.5" /><path d="M 266.455000 172.360000 L 266.197000 175.631000 L 265.957000 178.904000 L 265.723000 182.177000 L 265.536000 185.453000 L 265.403000 188.731000 L 265.303000 192.011000 L 265.212000 195.291000 L 265.123000 198.571000 L 265.033000 201.851000 L 264.944000 205.131000 L 264.854000 208.411000 L 264.741000 211.690000 L 264.579000 214.968000 L 264.379000 218.243000 L 264.160000 221.517000 L 263.937000 224.790000 L 263.714000 228.064000 L 263.491000 231.338000 L 263.268000 234.612000 L 263.046000 237.885000 L 262.823000 241.159000 L 262.600000 244.433000 L 262.377000 247.706000 L 262.159000 250.980000 L 261.963000 254.256000 L 261.812000 257.533000 L 261.698000 260.813000 L 261.592000 264.092000 L 261.486000 267.372000 L 261.384000 270.652000" fill="none" id="40" stroke="#008c6f" stroke-width="0.5" /><path d="M 263.494000 173.045000 L 263.438000 175.698000 L 263.408000 178.350000 L 263.406000 181.003000 L 263.440000 183.655000 L 263.528000 186.307000 L 263.632000 188.957000 L 263.744000 191.608000 L 263.858000 194.258000 L 263.972000 196.909000 L 264.086000 199.559000 L 264.201000 202.209000 L 264.315000 204.860000 L 264.412000 207.511000 L 264.490000 210.162000 L 264.542000 212.815000 L 264.574000 215.467000 L 264.605000 218.120000 L 264.636000 220.773000 L 264.667000 223.425000 L 264.698000 226.078000 L 264.729000 228.731000 L 264.759000 231.383000 L 264.790000 234.036000 L 264.821000 236.688000 L 264.852000 239.341000 L 264.883000 241.994000 L 264.913000 244.646000 L 264.944000 247.299000 L 264.975000 249.952000 L 265.006000 252.604000" fill="none" id="41" stroke="#008c6f" stroke-width="0.5" /><path d="M 399.683000 561.297000 L 399.680000 562.409000 L 399.677000 563.520000 L 399.674000 564.632000 L 399.671000 565.743000 L 399.668000 566.854000 L 399.665000 567.966000 L 399.661000 569.077000 L 399.658000 570.189000 L 399.654000 571.300000 L 399.651000 572.412000 L 399.648000 573.523000 L 399.644000 574.635000 L 399.640000 575.746000 L 399.634000 576.858000 L 399.629000 577.969000 L 399.618000 579.080000 L 399.606000 580.192000 L 399.585000 581.303000 L 399.561000 582.414000 L 399.531000 583.525000 L 399.494000 584.636000 L 399.448000 585.747000 L 399.400000 586.857000 L 399.350000 587.967000 L 399.296000 589.077000 L 399.240000 590.187000 L 399.185000 591.298000 L 399.129000 592.408000 L 399.075000 593.518000 L 399.022000 594.628000" fill="none" id="42" stroke="#ff94af" stroke-width="0.5" /><path d="M 723.809000 448.596000 L 723.543000 449.674000 L 723.276000 450.752000 L 723.030000 451.834000 L 722.784000 452.917000 L 722.587000 454.010000 L 722.391000 455.102000 L 722.224000 456.200000 L 722.056000 457.297000 L 721.867000 458.391000 L 721.677000 459.485000 L 721.469000 460.576000 L 721.261000 461.666000 L 721.043000 462.755000 L 720.824000 463.843000 L 720.599000 464.930000 L 720.374000 466.018000 L 720.143000 467.104000 L 719.913000 468.190000 L 719.681000 469.275000 L 719.449000 470.361000 L 719.217000 471.447000 L 718.985000 472.532000 L 718.754000 473.618000 L 718.522000 474.704000 L 718.290000 475.790000 L 718.059000 476.875000 L 717.827000 477.961000 L 717.595000 479.047000 L 717.364000 480.133000 L 717.132000 481.219000" fill="none" id="43" stroke="#488656" stroke-width="0.5" /><path d="M 2.486230 321.250000 L 5.760680 324.964000 L 9.137270 328.585000 L 12.639700 332.084000 L 16.140200 335.586000 L 19.763300 338.960000 L 23.391100 342.329000 L 26.986100 345.734000 L 30.555000 349.166000 L 34.120700 352.601000 L 37.686300 356.036000 L 41.252000 359.471000 L 44.817600 362.906000 L 48.383200 366.341000 L 51.948900 369.776000 L 55.514500 373.211000 L 59.069500 376.657000 L 62.582400 380.146000 L 66.084900 383.646000 L 69.587400 387.145000 L 73.089900 390.644000 L 76.592500 394.144000 L 80.095000 397.643000 L 83.597500 401.143000 L 87.142400 404.599000 L 90.720400 408.021000 L 94.305300 411.436000 L 97.890200 414.851000 L 101.475000 418.266000 L 105.060000 421.681000 L 108.645000 425.096000 L 112.230000 428.511000 L 115.814000 431.927000 L 119.383000 435.358000 L 122.931000 438.812000 L 126.469000 442.275000 L 130.007000 445.739000 L 133.546000 449.202000 L 137.084000 452.665000 L 140.622000 456.128000 L 144.161000 459.591000 L 147.699000 463.055000 L 151.237000 466.518000 L 154.789000 469.967000 L 158.372000 473.385000 L 161.973000 476.782000 L 165.575000 480.179000 L 169.178000 483.575000 L 172.780000 486.972000 L 176.382000 490.369000 L 179.984000 493.765000 L 183.575000 497.174000 L 187.129000 500.621000 L 190.650000 504.102000 L 194.171000 507.583000 L 197.692000 511.064000 L 201.213000 514.545000 L 204.733000 518.026000 L 208.254000 521.507000 L 211.785000 524.978000 L 215.356000 528.408000 L 218.953000 531.809000 L 222.551000 535.211000 L 226.149000 538.612000 L 229.746000 542.014000 L 233.344000 545.415000 L 236.942000 548.817000 L 240.540000 552.218000 L 244.137000 555.620000 L 247.734000 559.022000 L 251.319000 562.437000 L 254.872000 565.886000 L 258.412000 569.347000 L 261.952000 572.809000 L 265.492000 576.270000 L 269.032000 579.732000 L 272.572000 583.193000 L 276.112000 586.655000 L 279.652000 590.116000" fill="none" id="44" stroke="#ffc0e1" stroke-width="0.5" /><path d="M 19.305100 337.384000 L 23.162500 340.564000 L 26.941000 343.838000 L 30.607400 347.237000 L 34.195100 350.719000 L 37.775200 354.209000 L 41.355400 357.698000 L 44.935500 361.188000 L 48.515600 364.678000 L 52.090900 368.173000 L 55.628300 371.705000 L 59.087600 375.314000 L 62.494600 378.973000 L 65.889800 382.643000 L 69.285100 386.313000 L 72.680300 389.983000 L 76.075500 393.653000 L 79.470700 397.323000 L 82.866000 400.993000 L 86.261200 404.663000 L 89.658500 408.331000 L 93.074700 411.981000 L 96.544100 415.581000 L 100.054500 419.141000 L 103.572000 422.694000 L 107.089000 426.247000 L 110.606000 429.800000 L 114.123000 433.353000 L 117.641000 436.906000 L 121.091000 440.525000 L 124.537000 444.146000 L 127.984000 447.768000 L 131.431000 451.390000 L 134.877000 455.011000 L 138.329000 458.628000 L 141.811000 462.216000 L 145.331000 465.766000 L 148.885000 469.282000 L 152.477000 472.759000 L 156.085000 476.220000 L 159.695000 479.680000 L 163.304000 483.139000 L 166.914000 486.598000 L 170.523000 490.058000 L 174.133000 493.517000 L 177.742000 496.976000 L 181.352000 500.436000 L 184.961000 503.895000 L 188.571000 507.355000 L 192.180000 510.814000 L 195.790000 514.273000 L 199.399000 517.733000 L 203.009000 521.192000 L 206.618000 524.651000 L 210.228000 528.111000 L 213.837000 531.570000 L 217.447000 535.030000" fill="none" id="45" stroke="#ffc0e1" stroke-width="0.5" /><path d="M 182.203000 499.289000 L 185.014000 501.862000 L 187.825000 504.434000 L 190.635000 507.006000 L 193.442000 509.583000 L 196.211000 512.200000 L 198.918000 514.882000 L 201.600000 517.588000 L 204.279000 520.298000 L 206.957000 523.008000 L 209.646000 525.708000 L 212.373000 528.369000 L 215.141000 530.987000 L 217.924000 533.589000 L 220.710000 536.189000 L 223.495000 538.789000 L 226.281000 541.388000 L 229.067000 543.988000 L 231.852000 546.588000 L 234.638000 549.187000 L 237.424000 551.787000 L 240.214000 554.381000 L 243.028000 556.950000 L 245.874000 559.484000 L 248.748000 561.985000 L 251.688000 564.408000 L 254.653000 566.802000 L 257.619000 569.194000 L 260.585000 571.585000 L 263.551000 573.977000 L 266.518000 576.368000" fill="none" id="46" stroke="#ffc0e1" stroke-width="0.5" /><path d="M 390.297000 589.100000 L 395.179000 588.105000 L 400.049000 587.050000 L 404.890000 585.873000 L 409.696000 584.558000 L 414.500000 583.236000 L 419.304000 581.913000 L 424.107000 580.590000 L 428.911000 579.268000 L 433.686000 577.844000 L 438.452000 576.393000 L 443.201000 574.885000 L 447.921000 573.288000 L 452.635000 571.676000 L 457.350000 570.064000 L 462.064000 568.452000 L 466.779000 566.840000 L 471.493000 565.228000 L 476.208000 563.616000 L 480.922000 562.004000 L 485.637000 560.392000 L 490.351000 558.780000 L 495.066000 557.169000 L 499.781000 555.557000 L 504.495000 553.945000 L 509.198000 552.299000 L 513.889000 550.619000 L 518.579000 548.939000 L 523.270000 547.258000 L 527.960000 545.578000 L 532.651000 543.898000 L 537.342000 542.217000 L 542.032000 540.537000 L 546.724000 538.862000 L 551.440000 537.254000 L 556.173000 535.695000 L 560.905000 534.137000 L 565.638000 532.578000 L 570.368000 531.013000 L 575.080000 529.393000 L 579.778000 527.733000 L 584.475000 526.072000 L 589.173000 524.411000 L 593.870000 522.751000 L 598.568000 521.090000 L 603.265000 519.429000 L 607.963000 517.769000 L 612.661000 516.108000 L 617.358000 514.447000 L 622.070000 512.826000 L 626.796000 511.249000 L 631.522000 509.671000 L 636.248000 508.094000 L 640.974000 506.516000 L 645.700000 504.939000 L 650.427000 503.362000 L 655.153000 501.784000 L 659.879000 500.207000 L 664.605000 498.629000 L 669.331000 497.052000 L 674.058000 495.474000 L 678.784000 493.897000 L 683.529000 492.377000 L 688.284000 490.890000 L 693.040000 489.404000 L 697.795000 487.917000 L 702.551000 486.431000 L 707.306000 484.944000 L 712.062000 483.458000 L 716.818000 481.971000 L 721.573000 480.485000 L 726.329000 478.998000" fill="none" id="47" stroke="#6c8139" stroke-width="0.5" /><path d="M 388.187000 588.297000 L 392.692000 588.085000 L 397.187000 587.727000 L 401.668000 587.221000 L 406.111000 586.455000 L 410.511000 585.474000 L 414.892000 584.405000 L 419.270000 583.320000 L 423.634000 582.183000 L 427.973000 580.958000 L 432.296000 579.673000 L 436.615000 578.373000 L 440.927000 577.055000 L 445.216000 575.661000 L 449.474000 574.176000 L 453.720000 572.656000 L 457.966000 571.137000 L 462.212000 569.617000 L 466.458000 568.097000 L 470.704000 566.577000 L 474.950000 565.058000 L 479.196000 563.537000 L 483.439000 562.010000 L 487.675000 560.461000 L 491.898000 558.881000 L 496.115000 557.283000 L 500.333000 555.685000 L 504.550000 554.087000 L 508.767000 552.489000 L 512.984000 550.890000 L 517.201000 549.292000" fill="none" id="48" stroke="#6c8139" stroke-width="0.5" /><path d="M 509.441000 552.917000 L 514.086000 551.293000 L 518.726000 549.657000 L 523.360000 548.003000 L 527.988000 546.332000 L 532.616000 544.660000 L 537.243000 542.989000 L 541.871000 541.318000 L 546.499000 539.647000 L 551.127000 537.976000 L 555.755000 536.305000 L 560.383000 534.633000 L 565.011000 532.962000 L 569.638000 531.291000 L 574.266000 529.620000 L 578.894000 527.949000 L 583.522000 526.278000 L 588.150000 524.606000 L 592.778000 522.935000 L 597.405000 521.264000 L 602.033000 519.593000 L 606.661000 517.922000 L 611.289000 516.251000 L 615.917000 514.579000 L 620.545000 512.908000 L 625.173000 511.237000 L 629.793000 509.545000 L 634.403000 507.826000 L 639.011000 506.100000 L 643.618000 504.374000 L 648.226000 502.648000 L 652.834000 500.922000 L 657.451000 499.222000 L 662.095000 497.597000 L 666.760000 496.033000 L 671.445000 494.526000 L 676.158000 493.116000 L 680.860000 491.665000 L 685.521000 490.089000 L 690.182000 488.512000 L 694.843000 486.936000 L 699.504000 485.360000 L 704.171000 483.800000 L 708.855000 482.294000 L 713.545000 480.808000 L 718.236000 479.322000 L 722.926000 477.836000 L 727.617000 476.350000 L 732.310000 474.870000 L 737.014000 473.427000 L 741.725000 472.009000 L 746.437000 470.592000 L 751.149000 469.174000 L 755.860000 467.756000 L 760.572000 466.338000 L 765.283000 464.920000 L 769.995000 463.502000 L 774.707000 462.085000" fill="none" id="49" stroke="#6c8139" stroke-width="0.5" /><path d="M 201.069000 136.856000 L 204.891000 140.073000 L 208.738000 143.260000 L 212.632000 146.390000 L 216.549000 149.490000 L 220.462000 152.597000 L 224.374000 155.704000 L 228.286000 158.811000 L 232.198000 161.918000 L 236.110000 165.024000 L 240.023000 168.131000 L 243.935000 171.238000 L 247.847000 174.345000 L 251.759000 177.452000 L 255.671000 180.559000 L 259.583000 183.665000 L 263.497000 186.770000 L 267.426000 189.856000 L 271.388000 192.899000 L 275.358000 195.932000 L 279.327000 198.965000 L 283.297000 201.999000 L 287.266000 205.032000 L 291.236000 208.065000 L 295.205000 211.098000 L 299.175000 214.132000 L 303.149000 217.159000 L 307.139000 220.164000 L 311.145000 223.150000 L 315.155000 226.129000 L 319.165000 229.108000 L 323.176000 232.087000 L 327.186000 235.067000 L 331.196000 238.046000 L 335.206000 241.025000 L 339.216000 244.004000 L 343.227000 246.983000 L 347.237000 249.963000 L 351.247000 252.942000 L 355.257000 255.921000 L 359.267000 258.900000 L 363.278000 261.880000 L 367.288000 264.859000 L 371.298000 267.838000 L 375.308000 270.817000 L 379.319000 273.796000 L 383.329000 276.776000 L 387.339000 279.755000 L 391.349000 282.734000 L 395.359000 285.713000 L 399.370000 288.692000 L 403.385000 291.665000 L 407.413000 294.620000 L 411.452000 297.559000 L 415.495000 300.495000 L 419.537000 303.430000 L 423.580000 306.365000 L 427.623000 309.300000 L 431.665000 312.235000 L 435.708000 315.170000 L 439.750000 318.106000 L 443.793000 321.041000 L 447.836000 323.976000 L 451.878000 326.911000 L 455.921000 329.846000 L 459.963000 332.781000 L 464.006000 335.716000 L 468.049000 338.651000 L 472.091000 341.587000 L 476.134000 344.522000 L 480.176000 347.457000 L 484.219000 350.392000 L 488.261000 353.327000 L 492.304000 356.262000 L 496.347000 359.197000 L 500.389000 362.133000 L 504.432000 365.068000 L 508.474000 368.003000 L 512.517000 370.938000 L 516.560000 373.873000 L 520.602000 376.808000 L 524.645000 379.743000 L 528.687000 382.679000 L 532.730000 385.614000 L 536.773000 388.549000 L 540.815000 391.484000 L 544.858000 394.419000 L 548.900000 397.354000 L 552.943000 400.289000" fill="none" id="50" stroke="#a9d0ff" stroke-width="0.5" /><path d="M 115.746000 299.281000 L 120.566000 300.566000 L 125.396000 301.815000 L 130.236000 303.023000 L 135.090000 304.171000 L 139.946000 305.316000 L 144.811000 306.418000 L 149.686000 307.473000 L 154.569000 308.494000 L 159.453000 309.513000 L 164.336000 310.531000 L 169.219000 311.550000 L 174.103000 312.568000 L 178.986000 313.587000 L 183.870000 314.605000 L 188.753000 315.624000 L 193.637000 316.643000 L 198.520000 317.661000 L 203.403000 318.680000 L 208.287000 319.698000 L 213.171000 320.710000 L 218.058000 321.713000 L 222.948000 322.701000 L 227.838000 323.686000 L 232.728000 324.671000 L 237.619000 325.655000 L 242.509000 326.640000 L 247.399000 327.625000 L 252.290000 328.610000 L 257.180000 329.595000 L 262.070000 330.580000 L 266.961000 331.564000 L 271.855000 332.530000 L 276.756000 333.458000 L 281.662000 334.364000 L 286.567000 335.270000 L 291.473000 336.174000 L 296.379000 337.078000 L 301.285000 337.983000 L 306.190000 338.889000 L 311.095000 339.799000 L 315.994000 340.739000 L 320.890000 341.695000 L 325.785000 342.659000 L 330.679000 343.626000 L 335.573000 344.593000 L 340.465000 345.568000 L 345.355000 346.555000 L 350.240000 347.563000 L 355.124000 348.579000 L 360.008000 349.596000 L 364.891000 350.614000 L 369.775000 351.631000 L 374.659000 352.649000 L 379.542000 353.666000 L 384.426000 354.684000 L 389.310000 355.701000 L 394.193000 356.719000 L 399.077000 357.736000 L 403.960000 358.754000 L 408.844000 359.771000 L 413.728000 360.789000 L 418.611000 361.806000 L 423.495000 362.824000 L 428.379000 363.842000 L 433.262000 364.859000 L 438.146000 365.877000 L 443.029000 366.894000 L 447.913000 367.912000 L 452.797000 368.929000 L 457.680000 369.947000 L 462.564000 370.964000 L 467.447000 371.982000 L 472.331000 372.999000 L 477.215000 374.017000 L 482.098000 375.034000 L 486.982000 376.052000 L 491.866000 377.069000 L 496.749000 378.087000 L 501.633000 379.104000 L 506.515000 380.126000 L 511.394000 381.169000 L 516.249000 382.315000 L 521.098000 383.483000 L 525.952000 384.633000 L 530.853000 385.564000 L 535.754000 386.495000 L 540.655000 387.425000 L 545.556000 388.356000 L 550.456000 389.290000 L 555.345000 390.280000 L 560.216000 391.353000 L 565.048000 392.594000 L 569.875000 393.852000 L 574.712000 395.073000 L 579.564000 396.230000 L 584.455000 397.211000 L 589.342000 398.214000 L 594.219000 399.261000 L 599.077000 400.395000 L 603.925000 401.571000 L 608.788000 402.681000 L 613.664000 403.731000 L 618.541000 404.781000 L 623.418000 405.832000 L 628.294000 406.882000 L 633.171000 407.932000 L 638.048000 408.982000 L 642.924000 410.032000 L 647.801000 411.082000 L 652.678000 412.133000 L 657.555000 413.183000 L 662.428000 414.248000 L 667.292000 415.354000 L 672.120000 416.609000 L 676.917000 417.976000 L 681.736000 419.257000 L 686.601000 420.358000 L 691.467000 421.459000 L 696.332000 422.560000 L 701.198000 423.661000 L 706.063000 424.762000 L 710.929000 425.863000 L 715.794000 426.964000 L 720.659000 428.067000 L 725.523000 429.175000 L 730.379000 430.318000 L 735.231000 431.478000 L 740.079000 432.651000 L 744.928000 433.823000 L 749.777000 434.996000 L 754.626000 436.168000 L 759.474000 437.341000 L 764.323000 438.514000 L 769.172000 439.686000 L 774.020000 440.859000 L 778.869000 442.031000 L 783.718000 443.204000 L 788.567000 444.377000 L 793.415000 445.549000" fill="none" id="51" stroke="#a98c2c" stroke-width="0.5" /><path d="M 223.935000 127.337000 L 221.894000 131.855000 L 219.849000 136.371000 L 217.777000 140.875000 L 215.762000 145.405000 L 213.740000 149.932000 L 211.719000 154.458000 L 209.697000 158.985000 L 207.676000 163.512000 L 205.655000 168.039000 L 203.633000 172.566000 L 201.612000 177.093000 L 199.590000 181.620000 L 197.569000 186.147000 L 195.547000 190.674000 L 193.504000 195.191000 L 191.394000 199.677000 L 189.222000 204.133000 L 187.032000 208.581000 L 184.842000 213.029000 L 182.651000 217.476000 L 180.461000 221.924000 L 178.271000 226.372000 L 176.081000 230.819000 L 173.889000 235.267000 L 171.687000 239.708000 L 169.459000 244.137000 L 167.213000 248.557000 L 164.963000 252.975000 L 162.714000 257.393000 L 160.464000 261.811000 L 158.215000 266.229000 L 155.965000 270.647000 L 153.716000 275.065000 L 151.466000 279.483000 L 149.217000 283.901000 L 146.967000 288.319000 L 144.718000 292.737000 L 142.468000 297.155000 L 140.219000 301.573000" fill="none" id="52" stroke="#0294bb" stroke-width="0.5" /><path d="M 135.620000 315.132000 L 137.718000 311.574000 L 139.660000 307.928000 L 141.374000 304.169000 L 142.965000 300.357000 L 144.585000 296.557000 L 146.283000 292.791000 L 148.017000 289.041000 L 149.766000 285.299000 L 151.543000 281.570000 L 153.348000 277.854000 L 155.161000 274.142000 L 156.974000 270.430000 L 158.787000 266.718000 L 160.600000 263.006000 L 162.412000 259.293000 L 164.225000 255.581000 L 166.038000 251.869000 L 167.851000 248.157000 L 169.664000 244.445000 L 171.476000 240.733000 L 173.289000 237.021000 L 175.102000 233.309000 L 176.915000 229.597000 L 178.728000 225.885000 L 180.540000 222.173000 L 182.353000 218.461000 L 184.166000 214.748000 L 185.979000 211.036000 L 187.792000 207.324000 L 189.604000 203.612000" fill="none" id="53" stroke="#0294bb" stroke-width="0.5" /><path d="M 210.518000 55.525600 L 210.813000 59.471400 L 211.109000 63.417100 L 211.405000 67.362900 L 211.700000 71.308700 L 211.996000 75.254500 L 212.292000 79.200300 L 212.587000 83.146000 L 212.883000 87.091800 L 213.178000 91.037600 L 213.474000 94.983400 L 213.770000 98.929100 L 214.065000 102.875000 L 214.361000 106.821000 L 214.657000 110.766000 L 214.938000 114.713000 L 215.173000 118.663000 L 215.356000 122.616000 L 215.516000 126.569000 L 215.673000 130.523000 L 215.831000 134.477000 L 215.988000 138.430000 L 216.128000 142.385000 L 216.205000 146.341000 L 216.243000 150.297000 L 216.276000 154.254000 L 216.309000 158.211000 L 216.341000 162.167000 L 216.374000 166.124000 L 216.406000 170.081000 L 216.439000 174.037000" fill="none" id="54" stroke="#4a7ea6" stroke-width="0.5" /><path d="M 212.848000 38.092500 L 212.692000 42.787500 L 212.668000 47.484900 L 212.800000 52.180600 L 213.154000 56.864800 L 213.556000 61.545200 L 213.961000 66.225200 L 214.366000 70.905300 L 214.771000 75.585300 L 215.176000 80.265400 L 215.581000 84.945400 L 215.987000 89.625500 L 216.392000 94.305500 L 216.797000 98.985600 L 217.202000 103.666000 L 217.604000 108.346000 L 217.983000 113.028000 L 218.338000 117.712000 L 218.686000 122.397000 L 219.034000 127.082000 L 219.382000 131.766000 L 219.730000 136.451000 L 220.078000 141.135000 L 220.426000 145.820000 L 220.774000 150.505000 L 221.122000 155.189000 L 221.470000 159.874000 L 221.818000 164.559000 L 222.167000 169.243000 L 222.515000 173.928000 L 222.863000 178.613000 L 223.211000 183.297000" fill="none" id="55" stroke="#4a7ea6" stroke-width="0.5" /><path d="M 211.463000 6.816930 L 211.376000 11.484900 L 211.300000 16.153100 L 211.232000 20.821400 L 211.223000 25.489900 L 211.372000 30.156200 L 211.593000 34.819700 L 211.862000 39.480800 L 212.153000 44.140500 L 212.449000 48.799900 L 212.744000 53.459400 L 213.039000 58.118800 L 213.335000 62.778300 L 213.630000 67.437700 L 213.925000 72.097200 L 214.221000 76.756600 L 214.516000 81.416100 L 214.811000 86.075500 L 215.118000 90.734300 L 215.455000 95.390900 L 215.817000 100.045600 L 216.184000 104.700000 L 216.552000 109.354000 L 216.920000 114.009000 L 217.288000 118.663000 L 217.655000 123.317000 L 218.023000 127.971000 L 218.391000 132.626000 L 218.759000 137.280000 L 219.126000 141.934000 L 219.494000 146.589000" fill="none" id="56" stroke="#4a7ea6" stroke-width="0.5" /><path d="M 141.132000 196.077000 L 141.119000 200.956000 L 141.260000 205.832000 L 141.666000 210.694000 L 142.152000 215.549000 L 142.495000 220.415000 L 142.798000 225.285000 L 143.098000 230.154000 L 143.344000 235.027000 L 143.513000 239.902000 L 143.659000 244.779000 L 143.806000 249.656000 L 143.952000 254.532000 L 144.099000 259.409000 L 144.245000 264.285000 L 144.392000 269.162000 L 144.538000 274.038000 L 144.685000 278.915000 L 144.831000 283.792000 L 144.978000 288.668000 L 145.124000 293.545000 L 145.271000 298.421000 L 145.417000 303.298000 L 145.563000 308.174000 L 145.721000 313.051000 L 145.927000 317.925000 L 146.182000 322.797000 L 146.438000 327.669000 L 146.693000 332.541000 L 146.948000 337.413000 L 147.204000 342.285000 L 147.459000 347.157000 L 147.715000 352.030000" fill="none" id="57" stroke="#ffa372" stroke-width="0.5" /><path d="M 144.281000 225.037000 L 144.131000 226.574000 L 143.980000 228.111000 L 143.864000 229.650000 L 143.752000 231.190000 L 143.682000 232.733000 L 143.627000 234.276000 L 143.598000 235.819000 L 143.589000 237.363000 L 143.579000 238.907000 L 143.570000 240.451000 L 143.560000 241.995000 L 143.551000 243.539000 L 143.542000 245.084000 L 143.532000 246.628000 L 143.523000 248.172000 L 143.513000 249.716000 L 143.504000 251.260000 L 143.498000 252.804000 L 143.492000 254.348000 L 143.509000 255.892000 L 143.535000 257.435000 L 143.601000 258.978000 L 143.696000 260.519000 L 143.804000 262.059000 L 143.931000 263.598000 L 144.059000 265.137000 L 144.188000 266.675000 L 144.319000 268.214000 L 144.458000 269.752000 L 144.596000 271.289000" fill="none" id="58" stroke="#ffa372" stroke-width="0.5" /><path d="M 135.557000 148.785000 L 136.208000 153.441000 L 136.886000 158.093000 L 137.610000 162.738000 L 138.330000 167.384000 L 139.005000 172.036000 L 139.675000 176.690000 L 140.345000 181.343000 L 141.010000 185.997000 L 141.650000 190.654000 L 142.249000 195.317000 L 142.829000 199.982000 L 143.404000 204.648000 L 143.980000 209.314000 L 144.555000 213.979000 L 145.116000 218.647000 L 145.635000 223.319000 L 146.113000 227.996000 L 146.578000 232.674000 L 147.041000 237.352000 L 147.501000 242.031000 L 147.943000 246.711000 L 148.359000 251.394000 L 148.764000 256.078000 L 149.167000 260.761000 L 149.571000 265.445000 L 149.974000 270.129000 L 150.378000 274.813000 L 150.781000 279.497000 L 151.185000 284.180000 L 151.589000 288.864000" fill="none" id="59" stroke="#96ddff" stroke-width="0.5" /><path d="M 144.407000 135.533000 L 144.326000 139.745000 L 144.395000 143.956000 L 144.662000 148.159000 L 145.089000 152.350000 L 145.530000 156.539000 L 145.972000 160.727000 L 146.409000 164.917000 L 146.822000 169.109000 L 147.191000 173.304000 L 147.527000 177.503000 L 147.822000 181.705000 L 148.066000 185.910000 L 148.282000 190.116000 L 148.493000 194.323000 L 148.703000 198.530000 L 148.913000 202.737000 L 149.124000 206.943000 L 149.334000 211.150000 L 149.546000 215.357000 L 149.783000 219.562000 L 150.082000 223.764000 L 150.409000 227.963000 L 150.737000 232.162000 L 151.066000 236.362000 L 151.394000 240.561000 L 151.723000 244.760000 L 152.052000 248.959000 L 152.380000 253.159000 L 152.709000 257.358000 L 153.037000 261.557000" fill="none" id="60" stroke="#b06735" stroke-width="0.5" /><path d="M 216.313000 0.250000 L 213.904000 4.619600 L 211.673000 9.082790 L 209.691000 13.661800 L 207.892000 18.316200 L 206.093000 22.970500 L 204.294000 27.624900 L 202.494000 32.278900 L 200.645000 36.912900 L 198.629000 41.477400 L 196.569000 46.022400 L 194.507000 50.566400 L 192.393000 55.085700 L 190.147000 59.541600 L 187.845000 63.968700 L 185.538000 68.393600 L 183.231000 72.818400 L 180.925000 77.243300 L 178.618000 81.668200 L 176.312000 86.093100 L 174.005000 90.517900 L 171.698000 94.942800 L 169.392000 99.367700 L 167.085000 103.793000 L 164.779000 108.217000 L 162.472000 112.642000 L 160.157000 117.063000 L 157.818000 121.470000 L 155.458000 125.867000 L 153.095000 130.262000 L 150.732000 134.657000 L 148.369000 139.052000 L 146.009000 143.449000 L 143.677000 147.860000 L 141.435000 152.318000 L 139.212000 156.786000 L 136.989000 161.253000 L 134.770000 165.722000" fill="none" id="61" stroke="#bae0f9" stroke-width="0.5" /><path d="M 187.652000 8.801180 L 192.272000 10.637600 L 196.968000 12.270500 L 201.705000 13.781700 L 206.488000 15.142500 L 211.311000 16.347500 L 216.137000 17.546100 L 220.962000 18.744700 L 225.788000 19.943300 L 230.613000 21.141900 L 235.443000 22.323600 L 240.294000 23.411300 L 245.157000 24.450100 L 250.020000 25.484000 L 254.884000 26.517900 L 259.747000 27.551800 L 264.611000 28.584400 L 269.485000 29.568800 L 274.375000 30.462700 L 279.270000 31.339200 L 284.164000 32.215700 L 289.058000 33.092100 L 293.953000 33.968600 L 298.852000 34.818200 L 303.767000 35.565800 L 308.688000 36.275700 L 313.610000 36.983100 L 318.531000 37.690400 L 323.456000 38.372400 L 328.387000 39.014300 L 333.319000 39.643600 L 338.251000 40.273000 L 343.183000 40.902300 L 348.115000 41.531700 L 353.047000 42.161000 L 357.979000 42.790300 L 362.912000 43.419700 L 367.844000 44.049000 L 372.776000 44.678300 L 377.708000 45.307700 L 382.640000 45.937000 L 387.572000 46.566400 L 392.504000 47.195700 L 397.437000 47.825000 L 402.369000 48.454400 L 407.301000 49.083700 L 412.233000 49.713000 L 417.165000 50.342400 L 422.097000 50.971700 L 427.029000 51.601100 L 431.961000 52.230400 L 436.894000 52.859700 L 441.826000 53.489100 L 446.757000 54.124500 L 451.686000 54.777500 L 456.613000 55.445200 L 461.540000 56.115100 L 466.467000 56.785000 L 471.394000 57.455000 L 476.320000 58.124900 L 481.247000 58.794800 L 486.174000 59.464700 L 491.101000 60.134600 L 496.027000 60.804600 L 500.954000 61.474500 L 505.881000 62.144400 L 510.808000 62.814300 L 515.735000 63.484200 L 520.661000 64.154200 L 525.588000 64.824100 L 530.515000 65.494000 L 535.442000 66.163900 L 540.368000 66.837300 L 545.292000 67.527000 L 550.213000 68.235400 L 555.135000 68.943800 L 560.056000 69.652200 L 564.978000 70.360600 L 569.899000 71.069100 L 574.820000 71.777500 L 579.742000 72.485900 L 584.663000 73.194300 L 589.585000 73.902700 L 594.506000 74.611200 L 599.427000 75.321400 L 604.346000 76.047800 L 609.260000 76.804200 L 614.173000 77.567700 L 619.086000 78.331200 L 624.000000 79.094700 L 628.913000 79.858100 L 633.826000 80.621600 L 638.739000 81.385100 L 643.652000 82.148600 L 648.565000 82.912000 L 653.479000 83.675500 L 658.392000 84.439000" fill="none" id="62" stroke="#b76246" stroke-width="0.5" /><path d="M 144.250000 227.683000 L 146.095000 223.154000 L 148.040000 218.666000 L 150.093000 214.226000 L 152.313000 209.869000 L 154.532000 205.510000 L 156.750000 201.151000 L 158.932000 196.774000 L 160.989000 192.336000 L 163.007000 187.881000 L 165.023000 183.425000 L 167.040000 178.969000 L 169.056000 174.513000 L 171.072000 170.057000 L 173.088000 165.601000 L 175.107000 161.146000 L 177.181000 156.717000 L 179.316000 152.316000 L 181.459000 147.919000 L 183.602000 143.523000 L 185.745000 139.126000 L 187.887000 134.730000 L 190.020000 130.328000 L 192.124000 125.913000 L 194.208000 121.488000 L 196.290000 117.062000 L 198.373000 112.637000 L 200.455000 108.212000 L 202.538000 103.786000 L 204.620000 99.360700 L 206.703000 94.935300 L 208.785000 90.509800" fill="none" id="63" stroke="#b0e4e9" stroke-width="0.5" /><path d="M 140.691000 227.967000 L 143.289000 223.749000 L 145.723000 219.435000 L 147.941000 215.006000 L 149.941000 210.474000 L 151.922000 205.934000 L 153.903000 201.394000 L 155.883000 196.854000 L 157.864000 192.313000 L 159.844000 187.773000 L 161.825000 183.232000 L 163.805000 178.692000 L 165.786000 174.152000 L 167.766000 169.611000 L 169.747000 165.071000 L 171.727000 160.530000 L 173.708000 155.990000 L 175.692000 151.451000 L 177.706000 146.925000 L 179.779000 142.427000 L 181.897000 137.949000 L 184.026000 133.476000 L 186.155000 129.004000 L 188.284000 124.531000 L 190.413000 120.058000 L 192.541000 115.585000 L 194.656000 111.106000 L 196.740000 106.612000 L 198.798000 102.106000 L 200.850000 97.597300 L 202.901000 93.088400 L 204.952000 88.579600 L 207.004000 84.071100 L 209.076000 79.571700 L 211.234000 75.113100 L 213.432000 70.673700 L 215.633000 66.236200 L 217.835000 61.798700 L 220.036000 57.361200 L 222.238000 52.923700 L 224.439000 48.486200" fill="none" id="64" stroke="#ff9b9c" stroke-width="0.5" /><path d="M 146.990000 255.510000 L 148.457000 250.762000 L 150.022000 246.045000 L 151.710000 241.372000 L 153.528000 236.747000 L 155.358000 232.127000 L 157.188000 227.507000 L 159.019000 222.887000 L 160.849000 218.267000 L 162.679000 213.647000 L 164.509000 209.027000 L 166.339000 204.407000 L 168.170000 199.787000 L 170.000000 195.167000 L 171.830000 190.547000 L 173.663000 185.928000 L 175.539000 181.327000 L 177.512000 176.766000 L 179.530000 172.225000 L 181.551000 167.685000 L 183.573000 163.146000 L 185.594000 158.606000 L 187.615000 154.066000 L 189.637000 149.527000 L 191.658000 144.987000 L 193.679000 140.447000 L 195.700000 135.908000 L 197.722000 131.368000 L 199.743000 126.828000 L 201.768000 122.290000 L 203.820000 117.765000 L 205.941000 113.271000 L 208.117000 108.803000 L 210.307000 104.342000 L 212.497000 99.881600 L 214.687000 95.420900 L 216.876000 90.960100 L 219.066000 86.499300 L 221.256000 82.038500 L 223.445000 77.577100 L 225.621000 73.109700 L 227.764000 68.626100 L 229.893000 64.136100 L 232.021000 59.645500 L 234.149000 55.154900 L 236.277000 50.664300 L 238.405000 46.173700 L 240.533000 41.683100" fill="none" id="65" stroke="#378673" stroke-width="0.5" /><path d="M 590.297000 106.171000 L 588.008000 107.261000 L 585.719000 108.350000 L 583.430000 109.439000 L 581.141000 110.529000 L 578.852000 111.618000 L 576.563000 112.707000 L 574.274000 113.797000 L 571.985000 114.886000 L 569.696000 115.975000 L 567.405000 117.061000 L 565.104000 118.123000 L 562.786000 119.150000 L 560.458000 120.153000 L 558.120000 121.133000 L 555.779000 122.105000 L 553.438000 123.077000 L 551.096000 124.048000 L 548.755000 125.019000 L 546.413000 125.990000 L 544.071000 126.962000 L 541.730000 127.933000 L 539.388000 128.904000 L 537.047000 129.875000 L 534.705000 130.846000 L 532.361000 131.812000 L 530.009000 132.757000 L 527.647000 133.677000 L 525.268000 134.554000 L 522.886000 135.419000 L 520.499000 136.274000 L 518.108000 137.116000" fill="none" id="66" stroke="#ffa98e" stroke-width="0.5" /><path d="M 580.943000 137.541000 L 579.097000 138.021000 L 577.251000 138.500000 L 575.405000 138.977000 L 573.559000 139.453000 L 571.712000 139.930000 L 569.864000 140.399000 L 568.015000 140.865000 L 566.158000 141.298000 L 564.299000 141.724000 L 562.434000 142.124000 L 560.569000 142.519000 L 558.702000 142.908000 L 556.835000 143.298000 L 554.968000 143.687000 L 553.102000 144.077000 L 551.235000 144.466000 L 549.368000 144.856000 L 547.501000 145.245000 L 545.635000 145.635000 L 543.768000 146.024000 L 541.901000 146.414000 L 540.034000 146.803000 L 538.168000 147.193000 L 536.301000 147.582000 L 534.434000 147.972000 L 532.567000 148.361000 L 530.701000 148.751000 L 528.834000 149.140000 L 526.967000 149.530000 L 525.100000 149.919000" fill="none" id="67" stroke="#6a79a2" stroke-width="0.5" /></svg>