<?xml version="1.0" encoding="utf-8" ?>
<svg baseProfile="full" height="324.507305" version="1.1" viewBox="0,0,563.507305,324.507305" width="563.507305" xmlns="http://www.w3.org/2000/svg" xmlns:ev="http://www.w3.org/2001/xml-events" xmlns:xlink="http://www.w3.org/1999/xlink"><defs><style type="text/css"><![CDATA[
	.background { fill: white; }
	.line { stroke: firebrick; stroke-width: .1mm; }
	.blacksquare { fill: indigo; }
	.whitesquare { fill: white; }
]]></style></defs><rect class="background" height="100%" width="100%" x="0" y="0" /><path d="M 0.253653 237.149372 L 3.742126 235.192193 L 7.230601 233.235013 L 10.739121 231.314975 L 14.289576 229.472619 L 17.840031 227.630264 L 21.413320 225.832696 L 24.989870 224.041528 L 28.566420 222.250358 L 32.173186 220.522016 L 35.805261 218.846297 L 39.437336 217.170579 L 43.069411 215.494860 L 46.711342 213.841103 L 50.377496 212.241321 L 54.043652 210.641537 L 57.709808 209.041753 L 61.375962 207.441970 L 65.037985 205.832881 L 68.683004 204.185511 L 72.328025 202.538142 L 75.973045 200.890772 L 79.618066 199.243403 L 83.263087 197.596033 L 86.922027 195.980126 L 90.592713 194.390765 L 94.263397 192.801404 L 97.934083 191.212043 L 101.604769 189.622681 L 105.275453 188.033320 L 108.946139 186.443959 L 112.616825 184.854597 L 116.287509 183.265236 L 119.958195 181.675875 L 123.628881 180.086514 L 127.299565 178.497152 L 130.970250 176.907791 L 134.675190 175.400005 L 138.380150 173.892269 L 142.085110 172.384531 L 145.790070 170.876794 L 149.495030 169.369057 L 153.199990 167.861320 L 156.904950 166.353583 L 160.609910 164.845846 L 164.314870 163.338109 L 168.019830 161.830372 L 171.724790 160.322635 L 175.429750 158.814898 L 179.134711 157.307161 L 182.839671 155.799424 L 186.544631 154.291687 L 190.249591 152.783950 L 193.954551 151.276212 L 197.659511 149.768475 L 201.364471 148.260738 L 205.069431 146.753001 L 208.742171 145.168572 L 212.412303 143.577934 L 216.082435 141.987294 L 219.752567 140.396656 L 223.422699 138.806017 L 227.092831 137.215378 L 230.762963 135.624739 L 234.433095 134.034100 L 238.103227 132.443462 L 241.773359 130.852823 L 245.443491 129.262184 L 249.113623 127.671546 L 252.582272 127.156329 L 256.283514 125.639487 L 259.984757 124.122646 L 263.685998 122.605805 L 267.387240 121.088963 L 271.088482 119.572121 L 274.789724 118.055279 L 278.490967 116.538438 L 282.192208 115.021597 L 285.893450 113.504756 L 289.603070 112.008690 L 293.321307 110.534002 L 297.039545 109.059314 L 300.757785 107.584626 L 304.479949 106.119997 L 308.213902 104.685568 L 311.947857 103.251138 L 315.681810 101.816709 L 319.457141 100.496401 L 323.242766 99.204487 L 327.028391 97.912571 L 330.814016 96.620656 L 334.673105 95.588560 L 337.405783 94.837322 L 335.743763 94.837322" fill="none" id="1" stroke="black" stroke-width="0.507305" /><path d="M 248.812542 110.407252 L 252.782686 110.697345 L 256.698836 111.512065 L 260.614986 112.326784 L 264.531137 113.141503 L 268.447287 113.956222 L 272.367653 114.748931 L 276.307687 115.438952 L 280.247723 116.128974 L 284.187756 116.818995 L 288.127792 117.509016 L 292.067825 118.199036 L 296.007859 118.889056 L 299.957695 119.518906 L 303.913061 120.114782 L 307.868429 120.710657 L 311.823797 121.306534 L 315.779164 121.902411 L 319.734532 122.498287 L 323.689898 123.094162 L 327.645266 123.690039 L 331.603160 124.268369 L 335.566035 124.812072 L 339.528910 125.355778 L 343.491786 125.899482 L 347.454662 126.443185 L 351.417538 126.986891 L 355.380414 127.530595 L 359.343290 128.074298 L 363.306166 128.618003 L 367.270060 129.154062 L 371.237232 129.665478 L 375.204404 130.176894 L 379.171575 130.688311 L 383.138747 131.199726 L 387.105919 131.711142 L 391.073091 132.222558 L 395.040263 132.733974 L 399.007435 133.245390 L 402.974607 133.756806 L 406.941779 134.268222 L 410.908952 134.779638 L 414.876124 135.291054 L 418.843296 135.802470 L 422.810467 136.313886 L 426.777639 136.825302 L 430.744811 137.336718 L 434.711983 137.848134 L 438.679155 138.359550 L 442.646327 138.870966 L 446.613499 139.382382 L 450.580671 139.893800 L 454.547843 140.405215 L 458.515016 140.916631 L 462.481576 141.432416 L 466.436944 142.028292 L 470.392312 142.624169 L 474.371923 143.018702 L 478.345503 143.455975 L 482.294994 144.070782 L 486.284849 144.355501 L 487.712402 144.457372" fill="none" id="2" stroke="black" stroke-width="0.507305" /><path d="M 203.415122 323.584293 L 206.989904 321.847905 L 210.238373 319.513929 L 213.486842 317.179953 L 216.735312 314.845976 L 220.031708 312.582205 L 223.388582 310.407027 L 226.745455 308.231851 L 230.102329 306.056672 L 233.459204 303.881494 L 236.816077 301.706317 L 240.172950 299.531139 L 243.529824 297.355961 L 246.895671 295.194763 L 250.271187 293.048630 L 253.646704 290.902495 L 257.022221 288.756361 L 260.397737 286.610228 L 263.773253 284.464093 L 267.164373 282.342736 L 270.558165 280.225622 L 273.951958 278.108509 L 277.345753 275.991397 L 280.739545 273.874284 L 284.133338 271.757171 L 287.527131 269.640059 L 290.920926 267.522945 L 294.314718 265.405832 L 297.708511 263.288720 L 301.102305 261.171606 L 304.496098 259.054493 L 307.889891 256.937380 L 311.292651 254.834822 L 314.709902 252.755784 L 318.127153 250.676747 L 321.544403 248.597709 L 324.961655 246.518671 L 328.378905 244.439633 L 331.796155 242.360596 L 335.212711 240.280427 L 338.609023 238.167359 L 342.005337 236.054291 L 345.401650 233.941223 L 348.797963 231.828155 L 352.194277 229.715087 L 355.590589 227.602018 L 358.986903 225.488950 L 362.418387 223.433898 L 365.862638 221.399901 L 369.306886 219.365903 L 372.751136 217.331906 L 376.195386 215.297909 L 379.639635 213.263911 L 383.083886 211.229914 L 386.528135 209.195917 L 389.972384 207.161920 L 393.416634 205.127923 L 396.860883 203.093926 L 400.305134 201.059929 L 403.749383 199.025932 L 407.193632 196.991934 L 410.637882 194.957937 L 414.082133 192.923940 L 417.526382 190.889943 L 420.970631 188.855946 L 424.414881 186.821949 L 427.859130 184.787952 L 431.303381 182.753954 L 434.720299 180.674657 L 438.125545 178.576017 L 441.530792 176.477376 L 444.936039 174.378736 L 448.341287 172.280096 L 451.746534 170.181455 L 455.151781 168.082815 L 458.557029 165.984174 L 461.962275 163.885534 L 465.367524 161.786894 L 468.758330 159.665404 L 472.115483 157.490657 L 475.472636 155.315909 L 478.829789 153.141162 L 482.186941 150.966414 L 485.544094 148.791667 L 488.832176 146.516546 L 491.917708 143.998540 L 490.065795 142.711212 L 486.322613 143.969539 L 483.322253 146.502129 L 483.204862 146.640072" fill="none" id="3" stroke="black" stroke-width="0.507305" /><path d="M 13.776293 223.034572 L 17.597501 223.939097 L 21.223878 225.621260 L 24.967192 227.031083 L 28.714117 228.430987 L 32.487761 229.757489 L 36.261405 231.083991 L 40.036396 232.406525 L 43.838355 233.649547 L 47.640313 234.892570 L 51.442273 236.135593 L 55.245651 237.374147 L 59.068658 238.550845 L 62.891665 239.727542 L 66.714671 240.904240 L 70.537678 242.080937 L 74.360686 243.257635 L 78.183693 244.434332 L 82.006699 245.611030 L 85.829707 246.787727 L 89.652714 247.964425 L 93.480242 249.126084 L 97.318416 250.252322 L 101.156592 251.378559 L 104.994767 252.504797 L 108.832943 253.631035 L 112.671118 254.757272 L 116.509293 255.883510 L 120.347468 257.009749 L 124.185643 258.135986 L 128.023819 259.262224 L 131.861993 260.388462 L 135.701589 261.509641 L 139.564540 262.547722 L 143.427491 263.585803 L 147.290441 264.623884 L 151.153392 265.661966 L 155.016343 266.700046 L 158.879293 267.738127 L 162.761000 268.703347 L 166.645034 269.659528 L 170.529067 270.615710 L 174.413101 271.571892 L 178.297134 272.528075 L 182.181168 273.484255 L 186.065202 274.440437 L 189.949235 275.396619 L 193.833268 276.352801 L 197.717302 277.308984 L 201.601335 278.265165 L 205.485369 279.221346 L 208.875588 280.261127 L 212.757746 281.224893 L 216.639905 282.188657 L 220.522064 283.152423 L 224.404224 284.116187 L 228.286382 285.079952 L 232.162764 286.066511 L 236.035389 287.067898 L 239.908014 288.069284 L 243.780640 289.070671 L 247.653265 290.072057 L 251.525890 291.073444 L 255.398515 292.074830 L 259.271141 293.076217 L 263.143765 294.077604 L 267.016390 295.078990 L 270.882547 296.104673 L 274.740461 297.161317 L 278.598375 298.217962 L 282.456290 299.274607 L 286.314204 300.331252 L 290.172119 301.387896 L 294.030034 302.444539 L 297.887947 303.501184 L 301.744602 304.562144 L 305.565329 305.746221 L 309.386057 306.930299 L 313.206785 308.114376 L 317.027513 309.298453 L 320.848241 310.482530 L 324.668970 311.666607 L 328.489696 312.850685 L 332.310425 314.034762 L 336.125130 315.237407 L 339.913416 316.521496 L 343.701704 317.805585 L 347.501493 319.050611 L 349.910323 319.655432" fill="none" id="4" stroke="black" stroke-width="0.507305" /><path d="M 70.120593 193.495372 L 73.908879 194.779460 L 77.720740 195.985351 L 81.587553 197.008949 L 85.454367 198.032547 L 89.321180 199.056145 L 93.187994 200.079743 L 97.054807 201.103341 L 100.931738 202.086955 L 104.820003 203.025788 L 108.708265 203.964621 L 112.596530 204.903453 L 116.484792 205.842287 L 120.373057 206.781119 L 124.261319 207.719951 L 128.149584 208.658784 L 132.037847 209.597617 L 135.926110 210.536449 L 139.814373 211.475282 L 143.702637 212.414115 L 147.590900 213.352947 L 151.479164 214.291780 L 155.367428 215.230613 L 159.255691 216.169446 L 163.143955 217.108278 L 167.032218 218.047111 L 170.924989 218.966656 L 174.826612 219.848326 L 178.728234 220.729996 L 182.629856 221.611666 L 186.531479 222.493336 L 190.433101 223.375006 L 194.334724 224.256676 L 198.236346 225.138346 L 202.137969 226.020016 L 206.039592 226.901686 L 209.941215 227.783356 L 213.851845 228.624103 L 217.763053 229.462223 L 221.674262 230.300344 L 225.585471 231.138465 L 229.496680 231.976586 L 233.407888 232.814706 L 237.319097 233.652828 L 241.230306 234.490948 L 245.141514 235.329069 L 249.052723 236.167189 L 252.963932 237.005310 L 256.875141 237.843431 L 260.786349 238.681552 L 264.697559 239.519672 L 268.608767 240.357793 L 272.519975 241.195914 L 276.431184 242.034035 L 280.342394 242.872155 L 284.253602 243.710276 L 288.156743 244.585051 L 292.058364 245.466722 L 295.959987 246.348392 L 299.861609 247.230063 L 303.758806 248.130916 L 307.652391 249.047430 L 311.545976 249.963943 L 315.439561 250.880456 L 319.317670 251.858892 L 323.184634 252.881921 L 327.051599 253.904951 L 330.913114 254.947392 L 334.747574 256.086212 L 338.582034 257.225033 L 342.423098 258.340489 L 346.286418 259.377193 L 350.149740 260.413896 L 354.034582 261.363482 L 357.936205 262.245154 L 361.841655 263.109150 L 365.758505 263.920500 L 369.686082 264.671834 L 373.641449 265.267712 L 377.596816 265.863590 L 381.552184 266.459469 L 382.107073 266.543062" fill="none" id="5" stroke="black" stroke-width="0.507305" /><path d="M 106.824883 269.744352 L 110.275951 267.721946 L 113.727018 265.699540 L 117.178087 263.677132 L 120.629155 261.654725 L 124.080224 259.632319 L 127.531291 257.609913 L 131.026120 255.666019 L 134.561272 253.794468 L 138.096424 251.922917 L 141.631575 250.051367 L 145.166727 248.179815 L 148.529441 246.991159 L 152.093189 245.174651 L 155.656937 243.358143 L 159.220684 241.541635 L 162.784432 239.725127 L 166.348180 237.908619 L 169.911928 236.092111 L 173.475676 234.275603 L 177.039424 232.459095 L 180.603171 230.642587 L 184.166919 228.826079 L 187.730667 227.009571 L 191.284898 225.174599 L 194.832067 223.325927 L 198.379237 221.477255 L 201.926406 219.628583 L 205.473576 217.779911 L 209.020746 215.931239 L 212.567915 214.082567 L 216.115085 212.233895 L 219.662254 210.385223 L 223.209424 208.536551 L 226.756593 206.687879 L 230.303763 204.839207 L 233.850932 202.990535 L 237.398102 201.141863 L 240.945272 199.293191 L 244.492441 197.444519 L 248.039611 195.595847 L 251.586780 193.747175 L 255.133950 191.898503 L 258.681119 190.049831 L 262.238327 188.220729 L 265.809189 186.418244 L 269.380050 184.615760 L 272.950911 182.813275 L 276.521772 181.010791 L 280.092633 179.208306 L 283.663495 177.405822 L 287.252379 175.640006 L 290.860712 173.913759 L 294.469045 172.187509 L 298.077379 170.461261 L 301.685711 168.735013 L 305.294044 167.008765 L 308.902378 165.282517 L 312.510710 163.556268 L 316.119043 161.830020 L 319.727376 160.103772 L 323.335710 158.377524 L 326.944042 156.651276 L 330.552375 154.925027 L 334.160708 153.198780 L 337.769042 151.472531 L 341.377374 149.746283 L 344.985707 148.020035 L 348.594041 146.293786 L 352.199486 144.561570 L 355.792548 142.803756 L 359.385609 141.045942 L 362.978670 139.288128 L 366.571731 137.530314 L 370.164793 135.772500 L 373.757855 134.014686 L 377.350915 132.256872 L 380.943977 130.499058 L 384.487738 128.646952 L 387.981619 126.699442 L 391.475501 124.751931 L 394.969381 122.804422 L 398.463262 120.856911 L 401.957143 118.909402 L 405.256192 116.648478 L 408.535741 114.359249 L 411.709737 111.924961 L 414.883734 109.490675 L 418.057729 107.056389 L 418.811362 106.478392" fill="none" id="6" stroke="black" stroke-width="0.507305" /><path d="M 125.499003 194.368452 L 124.915279 198.325631 L 124.855063 202.321214 L 124.855063 206.321214 L 124.855063 210.321214 L 124.855063 214.321214 L 124.855063 218.321214 L 124.855063 222.321214 L 124.855063 226.321214 L 124.855063 230.321214 L 124.855063 234.321214 L 124.855063 238.321214 L 124.855063 242.321214 L 124.855063 246.321214 L 124.855063 250.321214 L 124.855063 254.321214 L 125.050253 258.316077 L 125.260688 262.310538 L 125.471123 266.304999 L 125.681556 270.299459 L 125.820963 272.945652" fill="none" id="7" stroke="black" stroke-width="0.507305" /><path d="M 138.699662 123.939993 L 142.594536 123.268439 L 146.310004 121.786787 L 149.982642 120.202466 L 153.649545 118.604397 L 157.303146 116.976590 L 160.938631 115.308284 L 164.574117 113.639978 L 168.209602 111.971671 L 171.845088 110.303365 L 175.480573 108.635059 L 179.116059 106.966753 L 182.751544 105.298447 L 186.439798 103.977052 L 190.094913 102.352203 L 193.750028 100.727352 L 197.405143 99.102503 L 201.060258 97.477654 L 204.718470 95.859978 L 208.407450 94.313554 L 212.096431 92.767132 L 215.785411 91.220708 L 219.474391 89.674284 L 223.163371 88.127861 L 226.854673 86.587155 L 230.577175 85.123261 L 234.299676 83.659368 L 238.022177 82.195475 L 241.744679 80.731582 L 245.467180 79.267688 L 249.189681 77.803794 L 252.926606 76.377960 L 256.684340 75.007036 L 260.442075 73.636111 L 264.199810 72.265187 L 267.957543 70.894264 L 271.715278 69.523340 L 275.473012 68.152416 L 279.235053 66.793497 L 283.007250 65.462885 L 286.779448 64.132272 L 290.551645 62.801659 L 294.323842 61.471046 L 298.096038 60.140434 L 301.868235 58.809821 L 305.645242 57.493115 L 309.433528 56.209027 L 313.221815 54.924939 L 317.010102 53.640850 L 320.798389 52.356762 L 324.586677 51.072674 L 328.374963 49.788586 L 332.163251 48.504497 L 335.951536 47.220408 L 339.739823 45.936321 L 343.528110 44.652233 L 347.316397 43.368144 L 351.104684 42.084055 L 354.886010 40.779893 L 358.655995 39.443027 L 362.425981 38.106163 L 366.195967 36.769298 L 369.965954 35.432434 L 373.735938 34.095570 L 377.487961 32.709296 L 381.236285 31.312845 L 384.984607 29.916394 L 388.732931 28.519943 L 392.481253 27.123492 L 396.229577 25.727041 L 399.977899 24.330590 L 403.726223 22.934138 L 407.474544 21.537688 L 411.222868 20.141237 L 414.971190 18.744786 L 418.719514 17.348334 L 422.462812 15.938987 L 426.168025 14.431869 L 429.873236 12.924751 L 433.578449 11.417635 L 435.875642 10.294072" fill="none" id="8" stroke="black" stroke-width="0.507305" /><path d="M 212.108252 74.901993 L 209.600752 78.018473 L 207.093253 81.134952 L 204.585753 84.251431 L 202.146708 87.421666 L 199.713748 90.596678 L 197.280788 93.771691 L 194.847828 96.946703 L 192.414868 100.121717 L 189.981908 103.296729 L 188.253516 106.255720 L 185.969819 109.539732 L 183.686121 112.823742 L 181.402424 116.107754 L 179.118727 119.391763 L 176.873083 122.701594 L 174.665305 126.037118 L 172.457527 129.372641 L 170.249750 132.708165 L 168.041972 136.043688 L 165.860200 139.396063 L 163.717918 142.774024 L 161.575635 146.151986 L 159.433353 149.529948 L 157.291070 152.907910 L 155.148788 156.285872 L 153.006505 159.663833 L 150.864223 163.041795 L 148.721940 166.419757 L 146.579658 169.797719 L 144.437375 173.175680 L 142.295093 176.553642 L 140.152811 179.931604 L 138.010528 183.309566 L 135.916838 186.717788 L 133.830357 190.130499 L 131.743877 193.543210 L 129.580382 196.906899 L 127.371712 200.241831 L 125.163039 203.576763 L 122.954368 206.911694 L 120.745695 210.246625 L 118.537024 213.581557 L 116.805882 216.195452" fill="none" id="9" stroke="black" stroke-width="0.507305" /><path d="M 491.254042 34.449292 L 491.254042 38.449292 L 491.254042 42.449292 L 491.254042 46.449292 L 491.254042 50.449292 L 491.254042 54.449292 L 491.254042 58.449292 L 491.254042 62.449292 L 491.254042 66.449292 L 491.254042 70.449292 L 491.254042 74.449292 L 491.254042 78.449292 L 491.254042 82.449292 L 491.254042 86.449292 L 491.254042 90.449292 L 491.254042 94.449292 L 491.254042 98.449292 L 491.254042 102.449292 L 491.254042 106.449292 L 491.254042 110.449292 L 491.335500 114.447356 L 491.525621 118.442835 L 491.715741 122.438314 L 491.911158 126.433457 L 492.229087 130.420801 L 492.547016 134.408146 L 492.864945 138.395491 L 493.182874 142.382836 L 493.500803 146.370182 L 493.818733 150.357526 L 494.136662 154.344872 L 494.454590 158.332217 L 494.473723 158.572162" fill="none" id="10" stroke="black" stroke-width="0.507305" /><path d="M 276.823712 25.136433 L 277.007902 29.132190 L 277.192091 33.127947 L 277.376280 37.123703 L 277.517372 41.120986 L 277.616047 45.119768 L 277.714723 49.118550 L 277.813399 53.117334 L 277.912074 57.116117 L 278.010749 61.114899 L 278.109425 65.113681 L 278.208101 69.112465 L 278.306777 73.111248 L 278.405451 77.110029 L 278.557554 81.106994 L 278.730930 85.103235 L 278.904304 89.099476 L 279.077586 93.095720 L 279.168805 97.094680 L 279.260025 101.093639 L 279.351245 105.092600 L 279.512041 109.088686 L 279.750817 113.081553 L 279.989594 117.074421 L 280.228369 121.067286 L 280.467146 125.060153 L 280.705922 129.053020 L 280.944698 133.045887 L 281.183474 137.038754 L 281.331253 139.509922" fill="none" id="11" stroke="black" stroke-width="0.507305" /><path d="M 242.051222 25.281953 L 246.051222 25.281953 L 250.051222 25.281953 L 254.051222 25.281953 L 258.051222 25.281953 L 262.042701 25.528796 L 266.033181 25.804625 L 270.023659 26.080452 L 274.014138 26.356282 L 278.004615 26.632110 L 281.995093 26.907939 L 285.985661 27.182383 L 289.978564 27.420566 L 293.971466 27.658751 L 297.964368 27.896935 L 301.957270 28.135119 L 305.950173 28.373303 L 309.943075 28.611487 L 313.935977 28.849671 L 317.928879 29.087854 L 321.921782 29.326038 L 325.914684 29.564222 L 329.741940 30.211923 L 333.734141 30.461571 L 337.726343 30.711219 L 341.718546 30.960867 L 345.710746 31.210515 L 349.702948 31.460164 L 353.695151 31.709812 L 357.687352 31.959460 L 361.679554 32.209108 L 365.671757 32.458756 L 369.663958 32.708405 L 373.656160 32.958053 L 377.648361 33.207701 L 381.642622 33.420467 L 385.637810 33.616633 L 389.632996 33.812800 L 393.628183 34.008966 L 397.623370 34.205134 L 401.618558 34.401300 L 405.613743 34.597468 L 409.608930 34.793635 L 413.604117 34.989801 L 417.599304 35.185969 L 421.594492 35.382136 L 425.589678 35.578302 L 429.584865 35.774470 L 433.580052 35.970636 L 437.575240 36.166804 L 441.570426 36.362969 L 445.565613 36.559137 L 449.560800 36.755304 L 453.555986 36.951470 L 457.551174 37.147638 L 461.546360 37.343805 L 465.541547 37.539972 L 469.536734 37.736139 L 473.531922 37.932305 L 477.527108 38.128473 L 481.522295 38.324640 L 485.517482 38.520806 L 489.512669 38.716974 L 493.507857 38.913141 L 497.503043 39.109307 L 501.498230 39.305473 L 505.493416 39.501641 L 509.488472 39.700218 L 513.481065 39.943517 L 517.473660 40.186813 L 521.466253 40.430110 L 525.458848 40.673408 L 529.451441 40.916705 L 533.444035 41.160001 L 537.436629 41.403300 L 541.425819 41.696551 L 545.414520 41.997000 L 549.403221 42.297449 L 551.461963 42.452523" fill="none" id="12" stroke="black" stroke-width="0.507305" /><path d="M 100.385532 80.140473 L 104.224626 79.026178 L 108.016617 77.753073 L 111.808610 76.479968 L 115.587168 75.168317 L 119.349059 73.808842 L 123.110951 72.449369 L 126.872844 71.089894 L 130.634735 69.730419 L 134.396627 68.370946 L 138.158518 67.011471 L 141.306835 66.884191 L 145.134010 65.721120 L 148.961185 64.558051 L 152.788360 63.394981 L 156.615535 62.231910 L 160.456270 61.115035 L 164.304847 60.024870 L 168.153423 58.934705 L 172.001999 57.844540 L 175.850576 56.754375 L 179.699152 55.664209 L 183.547728 54.574044 L 187.396304 53.483879 L 191.244881 52.393714 L 195.093457 51.303548 L 198.942033 50.213383 L 202.790610 49.123218 L 206.630923 48.004420 L 210.468540 46.876283 L 214.306158 45.748148 L 218.143776 44.620013 L 221.981393 43.491877 L 225.819011 42.363740 L 229.656629 41.235605 L 233.494246 40.107469 L 237.331864 38.979334 L 241.169482 37.851197 L 245.007099 36.723062 L 248.844717 35.594926 L 252.682335 34.466790 L 256.519953 33.338655 L 260.357571 32.210518 L 264.195188 31.082383 L 268.032806 29.954246 L 271.870424 28.826111 L 275.708041 27.697975 L 279.531905 26.524316 L 283.352182 25.338787 L 287.172460 24.153258 L 290.992737 22.967728 L 294.813016 21.782198 L 298.633292 20.596670 L 302.453571 19.411140 L 306.273847 18.225611 L 310.094125 17.040081 L 313.914402 15.854551 L 317.734680 14.669022 L 321.554958 13.483492 L 325.375235 12.297963 L 329.195513 11.112434 L 333.015790 9.926904 L 336.836068 8.741376 L 340.656345 7.555847 L 344.476622 6.370317 L 348.287119 5.154134 L 352.088018 3.907872 L 355.888916 2.661610 L 359.689816 1.415350 L 362.467062 0.253653" fill="none" id="13" stroke="black" stroke-width="0.507305" /><path d="M 282.941092 124.522042 L 286.865014 123.757413 L 290.751582 122.811588 L 294.625810 121.820963 L 298.448437 120.643028 L 302.237690 119.369578 L 305.962174 117.910732 L 309.686655 116.451887 L 313.387503 114.934528 L 317.080331 113.397313 L 320.773157 111.860101 L 324.450340 110.286483 L 328.107081 108.665296 L 331.763824 107.044110 L 335.420565 105.422923 L 339.077305 103.801738 L 342.734046 102.180552 L 346.390787 100.559365 L 350.047528 98.938180 L 353.704270 97.316992 L 357.364117 95.702912 L 361.037337 94.119420 L 364.710558 92.535927 L 368.383780 90.952433 L 372.056999 89.368939 L 375.730220 87.785447 L 379.406219 86.208433 L 383.085100 84.638132 L 386.763980 83.067830 L 390.442859 81.497530 L 394.121738 79.927229 L 397.800618 78.356928 L 401.479498 76.786629 L 405.158377 75.216328 L 408.837257 73.646027 L 412.516138 72.075727 L 416.195017 70.505426 L 419.873897 68.935125 L 423.552776 67.364824 L 427.231655 65.794523 L 430.910535 64.224222 L 434.589415 62.653923 L 438.268295 61.083621 L 441.947174 59.513320 L 445.626055 57.943021 L 449.292817 56.344831 L 452.951061 54.727041 L 456.609307 53.109251 L 460.267551 51.491463 L 463.925796 49.873672 L 467.584042 48.255882 L 471.242286 46.638092 L 474.900531 45.020304 L 478.558776 43.402513 L 482.217021 41.784723 L 485.875267 40.166933 L 489.533511 38.549145 L 493.191756 36.931354 L 496.850001 35.313564 L 500.508246 33.695776 L 504.166492 32.077985 L 507.827575 30.466688 L 511.498897 28.878799 L 515.170221 27.290910 L 518.841543 25.703019 L 522.512865 24.115131 L 526.184188 22.527242 L 529.855510 20.939353 L 533.526832 19.351463 L 537.200005 17.767969 L 540.901558 16.251886 L 544.603110 14.735803 L 548.317384 13.252223 L 552.064728 11.853147 L 555.836986 10.528015 L 559.672020 9.396757 L 562.408853 8.984452" fill="none" id="14" stroke="black" stroke-width="0.507305" /><path d="M 200.839392 127.432312 L 200.839392 131.432312 L 200.839392 135.432312 L 200.839392 139.432312 L 200.839392 143.432312 L 200.839392 147.432312 L 200.839392 151.432312 L 200.839392 155.432312 L 200.862505 159.432046 L 200.954434 163.430990 L 201.046363 167.429933 L 201.138292 171.428877 L 201.230221 175.427820 L 201.322151 179.426764 L 201.414080 183.425707 L 201.506009 187.424651 L 201.597938 191.423594 L 201.689868 195.422538 L 201.781797 199.421481 L 201.873726 203.420425 L 201.965655 207.419368 L 202.057585 211.418312 L 202.189410 215.415515 L 202.446161 219.407266 L 202.702912 223.399017 L 202.959663 227.390768 L 203.216414 231.382520 L 203.473165 235.374271 L 203.729916 239.366022 L 204.101575 243.348671 L 204.381032 246.316712" fill="none" id="15" stroke="black" stroke-width="0.507305" /><path d="M 167.998702 269.307813 L 168.774076 269.461814 L 172.739777 269.932086 L 176.684123 270.590030 L 180.654078 271.079363 L 184.615882 271.627074 L 188.568003 272.244111 L 192.520125 272.861150 L 196.472246 273.478186 L 200.424368 274.095224 L 204.361901 274.799242 L 208.299083 275.505358 L 212.236265 276.211475 L 216.173447 276.917589 L 220.110628 277.623705 L 224.047810 278.329821 L 227.984992 279.035937 L 231.922174 279.742053 L 235.859356 280.448169 L 239.796537 281.154284 L 243.748269 281.770549 L 247.707082 282.343092 L 251.686374 282.722530 L 255.677451 282.986072 L 259.677451 282.986072 L 261.047303 282.986072" fill="none" id="16" stroke="black" stroke-width="0.507305" /><path d="M 180.555432 274.546292 L 184.553935 274.594606 L 188.546261 274.842261 L 192.538587 275.089915 L 196.530913 275.337570 L 200.523753 275.573621 L 204.522340 275.679924 L 208.520927 275.786227 L 212.519515 275.892531 L 216.518102 275.998835 L 220.518054 276.011745 L 224.518040 276.022317 L 228.518026 276.032890 L 232.518012 276.043460 L 236.517998 276.054033 L 240.517984 276.064604 L 244.517970 276.075176 L 248.517956 276.085747 L 252.517942 276.096319 L 256.517928 276.106890 L 260.517914 276.117462 L 264.517900 276.128035 L 268.517886 276.138605 L 271.672233 276.146942" fill="none" id="17" stroke="black" stroke-width="0.507305" /><path d="M 61.105503 211.684532 L 65.022351 212.495884 L 68.939200 213.307236 L 72.856050 214.118588 L 76.772899 214.929940 L 80.689749 215.741292 L 84.606598 216.552644 L 88.523448 217.363996 L 92.437368 218.188464 L 96.327280 219.120442 L 100.217192 220.052419 L 104.107105 220.984398 L 107.997017 221.916374 L 111.886930 222.848352 L 115.776842 223.780329 L 119.662493 224.729391 L 123.534571 225.732896 L 127.406647 226.736402 L 131.278723 227.739908 L 135.150799 228.743415 L 139.022875 229.746920 L 142.894952 230.750426 L 146.767028 231.753932 L 150.641816 232.746430 L 154.537072 233.655815 L 158.432328 234.565200 L 162.327585 235.474584 L 166.222840 236.383969 L 170.118096 237.293354 L 174.013352 238.202739 L 177.908608 239.112123 L 181.803864 240.021508 L 185.699120 240.930893 L 189.607624 241.781530 L 193.516156 242.632049 L 197.424687 243.482569 L 201.333218 244.333088 L 205.229334 245.237402 L 209.115281 246.185780 L 213.001227 247.134158 L 216.887173 248.082536 L 220.759335 249.083560 L 224.611413 250.161289 L 228.463490 251.239018 L 232.315567 252.316747 L 236.167644 253.394476 L 240.019723 254.472206 L 243.871799 255.549935 L 247.716017 256.654796 L 251.547736 257.802809 L 255.379454 258.950821 L 259.211173 260.098835 L 263.042891 261.246848 L 266.874610 262.394859 L 270.706328 263.542872 L 274.538048 264.690884 L 278.417564 265.663501 L 282.301945 266.618271 L 286.186327 267.573042 L 290.070706 268.527812 L 293.974183 269.362812 L 295.175852 269.453332" fill="none" id="18" stroke="black" stroke-width="0.507305" /><path d="M 126.464903 204.845412 L 124.987626 207.687234 L 127.201306 204.376730 L 129.546536 201.136377 L 131.891767 197.896023 L 134.236999 194.655670 L 136.591373 191.422285 L 139.093878 188.301793 L 141.596383 185.181301 L 144.098888 182.060809 L 146.601392 178.940317 L 149.103897 175.819825 L 151.606402 172.699333 L 154.108907 169.578841 L 156.611413 166.458349 L 159.113916 163.337857 L 161.616421 160.217366 L 164.172250 157.141685 L 166.815260 154.139270 L 169.458270 151.136855 L 172.101281 148.134440 L 174.744291 145.132025 L 177.319566 142.071503 L 179.884919 139.002470 L 182.450271 135.933437 L 185.015624 132.864403 L 187.644103 129.850014 L 190.313795 126.871298 L 192.983486 123.892582 L 195.653177 120.913865 L 198.272418 117.890946 L 200.874464 114.852960 L 203.476509 111.814975 L 205.996937 108.709463 L 208.493820 105.584470 L 210.990704 102.459479 L 213.367016 99.246564 L 215.192713 95.709535 L 216.717132 92.011979 L 218.878584 88.796480 L 219.191532 90.035382" fill="none" id="19" stroke="black" stroke-width="0.507305" /><path d="M 212.108252 93.236672 L 209.721367 96.414400 L 207.259422 99.566990 L 204.937046 102.822196 L 202.593407 106.061423 L 200.110897 109.197845 L 197.628386 112.334266 L 195.145876 115.470687 L 192.663365 118.607110 L 190.180855 121.743532 L 187.698344 124.879953 L 185.215833 128.016374 L 182.733323 131.152796 L 180.250812 134.289217 L 177.768302 137.425639 L 175.285791 140.562061 L 172.778189 143.678443 L 170.268343 146.793034 L 167.758497 149.907624 L 165.248650 153.022214 L 162.738804 156.136804 L 160.228958 159.251394 L 157.719112 162.365985 L 155.170154 165.447862 L 152.548329 168.468794 L 149.926504 171.489727 L 147.304679 174.510661 L 144.682854 177.531592 L 142.061029 180.552525 L 139.439204 183.573458 L 136.817379 186.594390 L 134.195554 189.615323 L 131.573729 192.636255 L 128.951904 195.657188 L 126.377432 198.715743 L 124.027400 201.952616 L 121.677367 205.189488 L 119.368297 208.454808 L 117.507154 211.965580 L 117.449813 212.121072" fill="none" id="20" stroke="black" stroke-width="0.507305" /><path d="M 224.021042 94.837322 L 224.021042 98.837322 L 224.021042 102.837322 L 224.021042 106.837322 L 224.021042 110.837322 L 224.021042 114.837322 L 224.021042 118.837322 L 224.021042 122.837322 L 224.021042 126.837322 L 224.021042 130.837322 L 224.021042 134.837322 L 224.021042 138.837322 L 224.021042 142.837322 L 224.021042 146.837322 L 224.021042 150.837322 L 224.021042 154.837322 L 224.021042 158.837322 L 224.021042 162.837322 L 224.021042 166.837322 L 224.021042 170.837322 L 224.021042 174.837322 L 224.021042 178.837322 L 224.021042 182.837322 L 224.021042 186.837322 L 224.021042 190.837322 L 224.021042 194.837322 L 224.021042 198.837322 L 224.021042 202.837322 L 224.021042 206.837322 L 224.021042 210.837322 L 224.021042 214.837322 L 224.169991 218.828969 L 224.617200 222.803891 L 225.106167 226.772823 L 225.794468 230.713158 L 226.806774 234.578670 L 226.918752 234.966672" fill="none" id="21" stroke="black" stroke-width="0.507305" /><path d="M 102.317342 183.018402 L 105.561370 182.727382 L 109.486069 183.436912 L 113.396966 184.276488 L 117.307862 185.116064 L 121.229808 185.900800 L 125.160717 186.641039 L 129.091624 187.381279 L 133.026923 188.097546 L 136.965105 188.798058 L 140.903288 189.498570 L 144.841471 190.199082 L 148.779653 190.899594 L 152.717836 191.600106 L 156.656019 192.300619 L 160.594201 193.001131 L 164.530990 193.709022 L 168.453313 194.493486 L 172.375635 195.277952 L 176.297958 196.062415 L 180.220281 196.846880 L 184.142604 197.631344 L 188.018246 198.620739 L 191.893362 199.612440 L 195.768479 200.604140 L 199.643597 201.595841 L 203.518713 202.587542 L 207.412004 203.504375 L 211.310498 204.399779 L 215.208991 205.295183 L 219.107484 206.190588 L 223.005978 207.085992 L 226.915540 207.931211 L 230.828998 208.758763 L 234.742458 209.586315 L 238.655916 210.413866 L 242.569374 211.241418 L 246.482833 212.068970 L 250.396291 212.896522 L 254.309750 213.724073 L 258.223209 214.551626 L 262.147132 215.327518 L 266.074145 216.088153 L 270.001158 216.848789 L 273.928171 217.609424 L 277.866494 218.308232 L 281.808494 218.986933 L 285.750495 219.665634 L 289.692495 220.344335 L 293.634494 221.023036 L 297.576494 221.701737 L 301.518494 222.380438 L 305.472442 222.985111 L 309.427809 223.580989 L 313.383177 224.176866 L 317.338545 224.772743 L 321.294017 225.367867 L 325.260220 225.886755 L 329.226420 226.405642 L 333.192622 226.924529 L 332.058638 227.665871 L 331.558182 227.691002" fill="none" id="22" stroke="black" stroke-width="0.507305" /><path d="M 133.548182 56.421802 L 130.566643 59.078288 L 127.964597 62.116275 L 125.428268 65.208759 L 122.924141 68.327950 L 120.420015 71.447141 L 117.915887 74.566332 L 115.411761 77.685522 L 112.927014 80.820025 L 110.471391 83.977542 L 108.015767 87.135059 L 105.560145 90.292576 L 103.104521 93.450093 L 100.648898 96.607611 L 98.193274 99.765128 L 95.737651 102.922645 L 93.282027 106.080162 L 90.831590 109.241637 L 88.433313 112.442930 L 86.035037 115.644222 L 83.636760 118.845513 L 81.238484 122.046806 L 78.840208 125.248098 L 76.427389 128.438330 L 73.983341 131.604816 L 71.539293 134.771302 L 69.095247 137.937787 L 66.651199 141.104273 L 64.207150 144.270759 L 61.732892 147.413323 L 59.211300 150.518412 L 56.689708 153.623500 L 54.168115 156.728589 L 51.646524 159.833677 L 49.124932 162.938766 L 46.603341 166.043855 L 44.081750 169.148943 L 41.560158 172.254032 L 39.038566 175.359121 L 37.844880 178.314069 L 35.328888 181.423699 L 32.812897 184.533326 L 30.296907 187.642955 L 27.780916 190.752583 L 25.264926 193.862212 L 22.748935 196.971841 L 20.130187 199.994500 L 17.639893 202.808222" fill="none" id="23" stroke="black" stroke-width="0.507305" /><path d="M 341.539173 129.615012 L 339.929332 130.949937 L 339.929332 134.949937 L 339.941477 138.949701 L 340.096633 142.946691 L 340.251790 146.943680 L 340.406948 150.940670 L 340.562104 154.937660 L 340.573272 158.937444 L 340.573272 162.937444 L 340.551467 166.937145 L 340.442240 170.935654 L 340.333014 174.934162 L 340.159433 178.928849 L 339.794728 182.912189 L 339.430025 186.895528 L 339.065319 190.878867 L 338.700615 194.862206 L 338.335912 198.845545 L 338.319492 199.024872" fill="none" id="24" stroke="black" stroke-width="0.507305" /><path d="M 339.929332 117.682923 L 337.025926 120.164379 L 334.651662 123.383521 L 332.369097 126.666498 L 330.174380 130.010629 L 327.979664 133.354761 L 325.784947 136.698893 L 323.590230 140.043025 L 321.351607 143.357219 L 319.040169 146.621765 L 316.728733 149.886311 L 314.417296 153.150858 L 312.105860 156.415403 L 309.794423 159.679949 L 307.482986 162.944495 L 305.171550 166.209041 L 302.860114 169.473587 L 300.548676 172.738133 L 298.237240 176.002679 L 295.925803 179.267225 L 293.614366 182.531771 L 291.302931 185.796317 L 288.991493 189.060863 L 286.680057 192.325409 L 284.300843 195.540577 L 281.901992 198.741438 L 279.503139 201.942298 L 277.104287 205.143159 L 274.705434 208.344019 L 272.330252 211.561667 L 270.102656 214.883988 L 268.130592 218.232632" fill="none" id="25" stroke="black" stroke-width="0.507305" /><path d="M 340.895232 111.571363 L 338.142877 114.473868 L 335.675034 117.620599 L 333.223053 120.780946 L 330.771073 123.941292 L 328.346497 127.122435 L 325.962716 130.334535 L 323.578936 133.546636 L 321.195155 136.758736 L 318.811374 139.970837 L 316.427594 143.182937 L 314.043813 146.395038 L 311.667473 149.612539 L 309.352410 152.874514 L 307.037347 156.136489 L 304.722284 159.398464 L 302.407220 162.660440 L 300.117818 165.940232 L 297.870328 169.249128 L 295.622839 172.558024 L 293.375349 175.866920 L 291.127859 179.175815 L 288.880370 182.484711 L 286.632880 185.793607 L 284.385391 189.102503 L 282.137901 192.411398 L 279.890412 195.720294 L 277.736613 199.090773 L 275.590432 202.466259 L 273.444251 205.841745 L 271.309740 209.224491 L 269.230505 212.641622 L 267.151271 216.058752 L 265.072035 219.475883 L 262.992799 222.893013 L 261.047303 226.090352" fill="none" id="26" stroke="black" stroke-width="0.507305" /><path d="M 288.414542 191.749212 L 286.123496 195.028100 L 283.832450 198.306989 L 281.541405 201.585877 L 279.250360 204.864766 L 276.959314 208.143654 L 274.657744 211.414926 L 272.258893 214.615786 L 269.860039 217.816647 L 267.461187 221.017507 L 265.062334 224.218367 L 262.663482 227.419228 L 260.264631 230.620088 L 257.865777 233.820949 L 255.466925 237.021809 L 253.143756 240.277270 L 250.862805 243.563189 L 249.456472 245.589142" fill="none" id="27" stroke="black" stroke-width="0.507305" /><path d="M 45.329102 178.653002 L 45.398235 182.652405 L 45.467368 186.651807 L 45.536501 190.651210 L 45.605634 194.650612 L 45.779629 198.644180 L 46.154592 202.626567 L 46.423585 206.616665 L 46.616973 210.611693 L 46.616973 214.611693 L 46.919783 218.598319 L 46.938932 215.031910 L 46.938932 211.031910 L 46.938932 208.046702" fill="none" id="28" stroke="black" stroke-width="0.507305" /><path d="M 46.938932 181.272242 L 46.938932 185.272242 L 46.938932 189.272242 L 46.938932 193.272242 L 46.938932 197.272242 L 46.938932 201.272242 L 46.954470 205.271813 L 47.175398 209.265707 L 47.535027 213.247972 L 47.982231 217.222894 L 48.637935 221.161933 L 48.870742 222.161492" fill="none" id="29" stroke="black" stroke-width="0.507305" /><path d="M 26.654983 181.999812 L 30.653790 182.097503 L 34.652597 182.195194 L 38.650373 182.304087 L 42.599908 182.937469 L 46.549442 183.570853 L 50.484721 184.282909 L 54.405386 185.075622 L 58.326050 185.868336 L 62.227311 186.744579 L 66.095986 187.761119 L 69.964663 188.777659 L 73.833337 189.794198 L 77.683898 190.876769 L 81.529777 191.976415 L 85.375656 193.076061 L 89.221534 194.175706 L 93.053201 195.323404 L 96.878555 196.492450 L 100.703908 197.661496 L 104.529263 198.830542 L 108.354617 199.999587 L 112.179970 201.168633 L 116.005324 202.337679 L 119.830678 203.506725 L 123.656031 204.675771 L 127.494900 205.799476 L 131.336061 206.915485 L 135.177222 208.031495 L 139.018384 209.147504 L 142.866067 210.239319 L 146.747749 211.205005 L 150.629431 212.170689 L 154.511112 213.136374 L 158.392794 214.102059 L 162.274476 215.067744 L 166.156157 216.033429 L 170.037839 216.999114 L 173.919521 217.964799 L 177.803115 218.922502 L 181.700754 219.821621 L 185.598392 220.720740 L 189.496031 221.619858 L 193.393669 222.518977 L 197.291308 223.418095 L 201.188946 224.317214 L 205.086585 225.216332 L 208.980032 226.132698 L 212.855581 227.122708 L 216.731130 228.112718 L 220.606679 229.102728 L 224.482228 230.092738 L 228.357777 231.082748 L 232.223703 232.108887 L 236.078216 233.177871 L 239.932729 234.246855 L 243.787242 235.315840 L 247.696842 236.151953 L 251.621784 236.923203 L 254.285992 236.712832" fill="none" id="30" stroke="black" stroke-width="0.507305" /><path d="M 151.256392 210.956972 L 155.249150 211.197570 L 159.218965 211.672787 L 163.180236 212.226792 L 167.129125 212.864187 L 171.078015 213.501581 L 175.026905 214.138976 L 178.975793 214.776371 L 182.930721 215.374270 L 186.889674 215.945837 L 190.848628 216.517404 L 194.807581 217.088970 L 198.766534 217.660537 L 202.725488 218.232103 L 206.688524 218.774361 L 210.652963 219.306557 L 214.617400 219.838754 L 218.581837 220.370950 L 222.546275 220.903147 L 226.510713 221.435344 L 230.475151 221.967541 L 234.439588 222.499737 L 238.399111 223.066439 L 242.354479 223.662314 L 246.309846 224.258189 L 249.778442 224.780732" fill="none" id="31" stroke="black" stroke-width="0.507305" /><path d="M 155.763942 212.266592 L 159.524700 213.622633 L 163.437850 214.451640 L 167.351001 215.280648 L 171.288738 215.961409 L 175.260000 216.440026 L 179.231263 216.918643 L 183.202525 217.397260 L 187.183694 217.781557 L 191.167742 218.138431 L 195.151790 218.495306 L 199.135839 218.852179 L 203.119887 219.209052 L 207.103935 219.565926 L 211.087984 219.922800 L 215.072032 220.279674 L 219.056080 220.636547 L 223.050039 220.843422 L 227.046408 221.013815 L 231.042777 221.184208 L 235.039146 221.354602 L 239.037456 221.433932 L 243.037456 221.433932 L 247.037456 221.433932 L 251.037456 221.433932 L 252.032212 221.433932" fill="none" id="32" stroke="black" stroke-width="0.507305" /><path d="M 112.620303 85.961012 L 109.939338 88.929586 L 107.258373 91.898159 L 104.713288 94.980597 L 102.259500 98.139540 L 99.805711 101.298484 L 97.351923 104.457427 L 94.940488 107.647633 L 92.644670 110.923181 L 90.348850 114.198730 L 88.053032 117.474278 L 85.757212 120.749826 L 83.461393 124.025374 L 81.165576 127.300922 L 78.880713 130.583918 L 76.679480 133.923766 L 74.478249 137.263613 L 72.277017 140.603460 L 70.074501 143.942443 L 67.810226 147.239875 L 65.545950 150.537306 L 63.281674 153.834737 L 61.005440 157.123780 L 58.675147 160.374892 L 56.344853 163.626004 L 54.014125 166.876791 L 51.552176 170.029379 L 49.090226 173.181966 L 48.226802 174.287602" fill="none" id="33" stroke="black" stroke-width="0.507305" /><path d="M 138.377702 73.301353 L 142.088212 71.807327 L 145.798722 70.313299 L 149.509232 68.819273 L 153.219743 67.325248 L 156.944197 65.868144 L 160.715987 64.536378 L 164.487777 63.204613 L 168.284850 61.949368 L 172.107617 60.771890 L 175.930383 59.594413 L 179.753150 58.416935 L 183.575917 57.239457 L 187.398684 56.061979 L 191.221450 54.884501 L 195.044217 53.707022 L 198.866985 52.529544 L 202.689750 51.352066 L 206.512517 50.174588 L 210.335285 48.997110 L 214.158051 47.819631 L 217.986381 46.660806 L 221.829539 45.551692 L 225.672698 44.442577 L 229.515856 43.333463 L 233.359015 42.224348 L 237.202172 41.115234 L 241.045330 40.006118 L 244.862464 38.816853 L 248.617752 37.441845 L 252.172003 35.612259 L 254.607952 33.721722" fill="none" id="34" stroke="black" stroke-width="0.507305" /><path d="M 124.855063 73.592372 L 128.609495 72.254148 L 132.291402 70.690959 L 135.973308 69.127769 L 139.715013 67.716268 L 143.473172 66.346508 L 147.231331 64.976750 L 150.989491 63.606993 L 154.747650 62.237234 L 158.536389 60.958497 L 162.359257 59.781350 L 166.182126 58.604202 L 170.004995 57.427056 L 173.827863 56.249910 L 177.650732 55.072763 L 181.473602 53.895615 L 185.296470 52.718469 L 189.102098 51.487036 L 192.903640 50.242738 L 196.705182 48.998440 L 200.506724 47.754142 L 204.308266 46.509844 L 208.109808 45.265546 L 211.911350 44.021247 L 215.712892 42.776949 L 219.515848 41.537070 L 223.333768 40.343971 L 227.151688 39.150871 L 230.969608 37.957771 L 234.787528 36.764671 L 237.889294 36.734929 L 241.724505 35.598636 L 245.559716 34.462345 L 249.394927 33.326054 L 253.230138 32.189763 L 257.065349 31.053473 L 260.900560 29.917182 L 264.724538 28.747456 L 268.458997 27.316230 L 272.083602 25.637684 L 272.960103 24.554383" fill="none" id="35" stroke="black" stroke-width="0.507305" /><path d="M 275.535843 29.356323 L 275.145198 27.936112 L 279.124890 27.582094 L 283.124008 27.498028 L 287.123123 27.413961 L 291.122240 27.329895 L 295.122127 27.319133 L 299.122127 27.319133 L 303.122127 27.319133 L 307.122127 27.319133 L 311.122127 27.319133 L 315.122127 27.319133 L 319.122127 27.319133 L 323.122127 27.319133 L 327.122127 27.319133 L 331.122127 27.319133 L 335.119184 27.457235 L 339.115553 27.627629 L 343.111922 27.798022 L 347.108292 27.968416 L 351.101139 28.200608 L 355.090993 28.485326 L 359.080848 28.770043 L 363.070701 29.054762 L 367.060555 29.339481 L 371.047313 29.664532 L 375.033876 29.992119 L 379.020440 30.319706 L 383.007003 30.647293 L 386.993566 30.974880 L 390.980129 31.302467 L 394.966692 31.630054 L 398.953257 31.957642 L 402.939819 32.285229 L 406.926382 32.612816 L 410.912946 32.940403 L 414.899509 33.267989 L 418.886073 33.595576 L 422.872636 33.923164 L 426.859199 34.250751 L 430.845762 34.578338 L 434.832325 34.905926 L 438.818889 35.233513 L 442.806264 35.550634 L 446.795679 35.841442 L 450.785093 36.132250 L 454.774507 36.423060 L 458.763922 36.713867 L 462.756310 36.923012 L 466.756310 36.923012 L 470.756310 36.923012 L 474.756310 36.923012 L 478.756310 36.923012 L 481.595022 37.505073" fill="none" id="36" stroke="black" stroke-width="0.507305" /><path d="M 377.599533 108.661092 L 381.025566 106.596560 L 384.479402 104.580627 L 387.995577 102.673663 L 391.512247 100.767623 L 395.054062 98.908716 L 398.595878 97.049808 L 402.145404 95.205973 L 405.725537 93.421975 L 409.305670 91.637978 L 412.885804 89.853979 L 416.500926 88.142841 L 420.131489 86.463848 L 423.762052 84.784857 L 427.392615 83.105864 L 430.994336 81.366039 L 434.592143 79.617959 L 438.189950 77.869878 L 441.787757 76.121797 L 445.385563 74.373717 L 448.983370 72.625636 L 452.581176 70.877555 L 456.178984 69.129474 L 459.796177 67.422103 L 463.420910 65.730560 L 467.045642 64.039018 L 470.670375 62.347478 L 473.221997 61.981217 L 476.897537 60.403111 L 480.573074 58.825006 L 484.248613 57.246901 L 487.959673 55.754767 L 491.677199 54.278286 L 495.394725 52.801805 L 499.165141 51.466256 L 502.936202 50.132429 L 506.707265 48.798603 L 510.250122 47.545493" fill="none" id="37" stroke="black" stroke-width="0.507305" /><path d="M 355.061802 90.035382 L 358.520556 89.896838 L 362.216009 88.374126 L 365.831957 86.663886 L 369.447905 84.953646 L 373.063853 83.243405 L 376.679801 81.533165 L 380.295749 79.822925 L 383.911698 78.112685 L 387.527645 76.402445 L 391.178242 74.768310 L 394.842430 73.164027 L 398.506619 71.559743 L 402.207247 70.041706 L 405.911637 68.532567 L 409.616027 67.023430 L 413.320416 65.514291 L 417.024807 64.005155 L 420.729197 62.496017 L 424.459625 61.053075 L 428.199420 59.633944 L 431.939214 58.214812 L 435.679010 56.795679 L 439.418804 55.376548 L 443.158598 53.957416 L 446.898393 52.538283 L 450.638189 51.119152 L 454.377982 49.700018 L 458.090724 48.212704 L 461.728084 46.553119 L 465.320594 44.794178 L 468.983015 43.200079 L 472.905552 42.452523 L 475.155672 42.452523" fill="none" id="38" stroke="black" stroke-width="0.507305" /><path d="M 136.767862 74.174432 L 140.497583 72.779808 L 144.304390 71.564143 L 148.150662 70.466871 L 152.007208 69.405244 L 155.863754 68.343619 L 159.720300 67.281992 L 163.576847 66.220365 L 167.433393 65.158738 L 171.289939 64.097112 L 175.146486 63.035486 L 179.003032 61.973860 L 182.846398 60.866801 L 186.672326 59.699638 L 190.498255 58.532474 L 194.322782 57.360863 L 198.126921 56.124524 L 201.931059 54.888188 L 205.735198 53.651851 L 209.539336 52.415512 L 213.343475 51.179175 L 217.147613 49.942838 L 220.951752 48.706501 L 224.762850 47.491976 L 228.580077 46.296661 L 232.397304 45.101346 L 236.214531 43.906030 L 240.031758 42.710715 L 243.848985 41.515400 L 247.666213 40.320086 L 251.483439 39.124771 L 255.300666 37.929456 L 259.117893 36.734141 L 262.935120 35.538826 L 266.752347 34.343511 L 270.510914 32.979343 L 274.144364 31.327720 L 277.145682 31.102483" fill="none" id="39" stroke="black" stroke-width="0.507305" /><path d="M 310.630292 33.576213 L 314.630292 33.576213 L 318.630292 33.576213 L 322.630292 33.576213 L 326.625712 33.745244 L 330.619843 33.961863 L 334.605375 34.295485 L 338.588267 34.665036 L 342.571160 35.034585 L 346.554053 35.404136 L 350.536945 35.773687 L 354.519837 36.143237 L 358.502729 36.512788 L 362.485622 36.882339 L 366.468514 37.251888 L 370.451407 37.621440 L 374.434300 37.990989 L 378.417192 38.360540 L 382.401549 38.713639 L 386.387066 39.053736 L 390.372580 39.393833 L 394.358096 39.733930 L 398.343612 40.074027 L 402.329127 40.414124 L 406.314642 40.754221 L 410.300159 41.094318 L 414.285673 41.434417 L 418.271189 41.774513 L 422.256706 42.114610 L 426.242185 42.455091 L 430.222162 42.854813 L 434.202140 43.254536 L 438.182118 43.654257 L 442.162095 44.053980 L 446.142073 44.453702 L 450.116759 44.894385 L 454.067634 45.519350 L 458.036661 45.998103 L 462.020421 46.358193 L 466.017677 46.268678 L 467.106482 46.235872" fill="none" id="40" stroke="black" stroke-width="0.507305" /><path d="M 248.490572 33.139673 L 252.489832 33.062759 L 256.489093 32.985844 L 260.488353 32.908929 L 264.487775 32.848643 L 268.487775 32.848643 L 272.487775 32.848643 L 276.487775 32.848643 L 280.487775 32.848643 L 284.487775 32.848643 L 288.487775 32.848643 L 292.487775 32.848643 L 296.487775 32.848643 L 300.483418 33.002974 L 304.477050 33.228589 L 308.470683 33.454205 L 312.464315 33.679820 L 316.453932 33.966371 L 320.442632 34.266820 L 324.431331 34.567269 L 328.420032 34.867717 L 332.407186 35.187340 L 336.392492 35.529891 L 340.377796 35.872444 L 344.363102 36.214996 L 348.348408 36.557547 L 352.333712 36.900100 L 356.319018 37.242651 L 360.304324 37.585203 L 364.289628 37.927754 L 368.274933 38.270307 L 372.260240 38.612858 L 376.245544 38.955410 L 380.230849 39.297961 L 384.216842 39.632160 L 388.204543 39.945596 L 392.192245 40.259030 L 396.179945 40.572465 L 400.167646 40.885899 L 404.155347 41.199334 L 408.143047 41.512768 L 412.130748 41.826203 L 416.123677 42.061836 L 420.117465 42.284675 L 424.111253 42.507513 L 428.105041 42.730352 L 432.098829 42.953190 L 436.092617 43.176028 L 440.088249 43.348458 L 444.087646 43.417977 L 447.144502 43.471113" fill="none" id="41" stroke="black" stroke-width="0.507305" /><path d="M 469.360262 52.492942 L 469.038293 56.469324 L 469.038293 60.469324 L 469.038293 64.469324 L 469.038293 68.469324 L 469.038293 72.469324 L 469.038293 76.469324 L 469.038293 80.469324 L 469.038293 84.469324 L 469.038293 88.469324 L 469.038293 92.469324 L 469.038293 96.469324 L 469.038293 100.469324 L 469.038293 104.469324 L 469.038293 108.469324 L 469.038293 112.469324 L 469.038293 116.469324 L 469.298789 120.458779 L 469.622093 124.445691 L 469.945397 128.432604 L 470.268699 132.419517 L 470.592003 136.406430 L 470.915306 140.393343 L 471.238609 144.380256 L 471.705049 148.352452 L 472.199840 152.321731 L 472.657570 156.294876 L 472.992485 160.280830 L 473.327402 164.266784 L 473.779262 168.237900 L 473.867802 165.285785 L 473.867802 161.285785 L 473.566341 157.302410 L 473.223862 154.206762" fill="none" id="42" stroke="black" stroke-width="0.507305" /><path d="M 466.784522 49.582673 L 466.462553 52.603701 L 466.462553 56.603701 L 466.512293 60.602828 L 466.652691 64.600364 L 466.793088 68.597898 L 466.933484 72.595433 L 467.073881 76.592969 L 467.106482 80.592397 L 467.106482 84.592397 L 467.106482 88.592397 L 467.106482 92.592397 L 467.106482 96.592397 L 467.106482 100.592397 L 467.106482 104.592397 L 467.106482 108.592397 L 467.106482 112.592397 L 467.106482 116.592397 L 467.106482 120.592397 L 467.106482 124.592397 L 467.106482 128.592396 L 467.106482 132.592396 L 467.106482 136.592396 L 467.106482 140.592396 L 467.106482 144.592396 L 467.106482 148.592396 L 467.106482 152.592396 L 467.106482 156.592396 L 467.106482 160.592396 L 467.995938 160.781115 L 468.394352 157.990112" fill="none" id="43" stroke="black" stroke-width="0.507305" /><path d="M 469.038293 61.078232 L 468.350722 64.071438 L 468.237302 68.069829 L 468.123882 72.068222 L 468.072392 76.067491 L 468.072392 80.067491 L 468.072392 84.067491 L 468.072392 88.067491 L 468.072392 92.067491 L 468.072392 96.067491 L 468.072392 100.067491 L 468.072392 104.067491 L 468.027119 108.066602 L 467.869998 112.063514 L 467.712875 116.060428 L 467.555753 120.057340 L 467.398631 124.054253 L 467.241510 128.051165 L 467.084386 132.048078 L 466.927264 136.044991 L 466.770142 140.041904 L 466.613021 144.038817 L 466.455898 148.035730 L 466.298776 152.032643 L 466.141654 156.029556 L 465.984533 160.026468 L 465.827410 164.023381 L 465.818612 168.023208 L 465.818612 170.067722" fill="none" id="44" stroke="black" stroke-width="0.507305" /><path d="M 145.460983 92.800133 L 149.404743 93.468526 L 153.349126 94.132951 L 157.308201 94.703678 L 161.267275 95.274406 L 165.226349 95.845133 L 169.185424 96.415861 L 173.144498 96.986587 L 177.103573 97.557315 L 181.062647 98.128043 L 185.021721 98.698769 L 188.980796 99.269497 L 192.934400 99.876256 L 196.884462 100.506339 L 200.834525 101.136421 L 204.784588 101.766503 L 208.722933 102.462213 L 212.646961 103.238104 L 216.570988 104.013994 L 220.495016 104.789885 L 224.419043 105.565776 L 228.343071 106.341668 L 232.267100 107.117559 L 236.191126 107.893451 L 240.115154 108.669342 L 244.040920 109.436240 L 247.971615 110.177606 L 251.902312 110.918972 L 255.833009 111.660338 L 259.763706 112.401703 L 263.694402 113.143069 L 267.625099 113.884435 L 271.555796 114.625801 L 275.486492 115.367168 L 279.417190 116.108534 L 283.347886 116.849900 L 287.291625 117.517736 L 291.237525 118.173379 L 295.183425 118.829023 L 299.129326 119.484667 L 303.075226 120.140310 L 307.024249 120.776173 L 310.980246 121.367857 L 314.936243 121.959542 L 318.892239 122.551226 L 322.848236 123.142910 L 326.804234 123.734595 L 330.760229 124.326279 L 334.716227 124.917963 L 338.672223 125.509647 L 342.628220 126.101332 L 346.584216 126.693016 L 350.540212 127.284701 L 354.502068 127.835791 L 358.463943 128.386735 L 362.425819 128.937680 L 366.387696 129.488624 L 370.349571 130.039569 L 374.311446 130.590514 L 378.273323 131.141459 L 382.235198 131.692403 L 386.197074 132.243348 L 390.158951 132.794293 L 394.124610 133.316219 L 398.095253 133.799962 L 402.065893 134.283706 L 406.036534 134.767449 L 410.007177 135.251192 L 413.977818 135.734936 L 417.948459 136.218679 L 421.919101 136.702422 L 425.889742 137.186166 L 429.860934 137.665155 L 433.836746 138.104391 L 437.812556 138.543627 L 441.788367 138.982862 L 445.764179 139.422098 L 449.739989 139.861334 L 453.715801 140.300569 L 457.691610 140.739805 L 461.674495 141.107908 L 465.658949 141.460233 L 469.643401 141.812559 L 473.627855 142.164885 L 477.612307 142.517210 L 481.596760 142.869536 L 485.581213 143.221861 L 489.569906 143.511831 L 493.565386 143.701907 L 494.151752 143.729802" fill="none" id="45" stroke="black" stroke-width="0.507305" /><path d="M 423.962842 195.823582 L 423.962842 191.823582 L 423.825956 187.830773 L 423.406826 183.852793 L 422.674972 180.253652" fill="none" id="46" stroke="black" stroke-width="0.507305" /></svg>