<?xml version="1.0" encoding="utf-8" ?>
<svg baseProfile="full" height="566.5" version="1.1" viewBox="0,0,771.5,566.5" width="771.5" xmlns="http://www.w3.org/2000/svg" xmlns:ev="http://www.w3.org/2001/xml-events" xmlns:xlink="http://www.w3.org/1999/xlink"><defs><style type="text/css"><![CDATA[
	.background { fill: white; }
	.line { stroke: firebrick; stroke-width: .1mm; }
	.blacksquare { fill: indigo; }
	.whitesquare { fill: white; }
]]></style></defs><rect class="background" height="100%" width="100%" x="0" y="0" /><path d="M 21.698820 131.942920 L 25.631032 131.209633 L 29.563244 130.476345 L 33.495455 129.743058 L 37.427667 129.009771 L 41.359879 128.276483 L 45.292091 127.543196 L 49.224303 126.809909 L 53.139953 125.995344 L 57.045583 125.131598 L 60.951213 124.267852 L 64.842730 123.344794 L 68.718832 122.356952 L 72.594934 121.369110 L 76.471036 120.381268 L 80.341763 119.373096 L 84.199531 118.315921 L 88.057300 117.258745 L 91.893727 116.127461 L 95.722885 114.970936 L 99.552043 113.814412 L 103.381201 112.657887 L 107.210359 111.501363 L 111.039517 110.344838 L 114.868675 109.188313 L 118.697833 108.031789 L 122.526991 106.875264 L 126.356149 105.718740 L 130.185307 104.562215 L 134.014465 103.405691 L 137.843623 102.249166 L 141.672781 101.092642 L 145.501939 99.936117 L 149.331097 98.779593 L 153.155046 97.606213 L 156.969091 96.400781 L 160.783135 95.195350 L 164.597179 93.989918 L 168.411224 92.784487 L 172.225268 91.579055 L 176.039313 90.373624 L 179.853357 89.168192 L 183.666445 87.959901 L 187.438407 86.628620 L 191.210368 85.297340 L 194.982329 83.966059 L 198.754291 82.634779 L 201.881655 82.509386 L 205.704842 81.333274 L 209.528029 80.157162 L 213.351217 78.981050 L 217.174404 77.804938 L 220.997591 76.628827 L 224.820778 75.452715 L 228.643966 74.276603 L 232.467153 73.100491 L 236.290340 71.924379 L 240.113528 70.748267 L 243.936715 69.572156 L 247.759902 68.396044 L 251.583089 67.219932 L 255.406277 66.043820 L 259.272517 65.018632 L 263.140815 64.000659 L 267.009113 62.982686 L 270.877411 61.964712 L 274.749640 61.014092 L 278.618659 60.242246 L 282.465398 59.145615 L 286.312137 58.048984 L 290.158876 56.952353 L 294.005614 55.855722 L 297.852353 54.759091 L 301.699092 53.662460 L 305.545831 52.565829 L 309.392570 51.469198 L 313.239309 50.372567 L 317.111671 49.372852 L 320.997753 48.425028 L 324.883834 47.477203 L 328.769916 46.529378 L 332.655997 45.581553 L 336.542078 44.633729 L 340.428160 43.685904 L 344.314241 42.738079 L 348.200322 41.790255 L 352.086404 40.842430 L 355.670081 40.383392 L 359.188775 40.008325 L 363.070634 39.043354 L 366.952494 38.078384 L 370.834353 37.113414 L 374.716213 36.148443 L 378.598072 35.183473 L 382.479931 34.218503 L 386.361791 33.253532 L 390.243650 32.288562 L 394.125509 31.323592 L 398.007369 30.358621 L 401.889228 29.393651 L 405.771088 28.428681 L 409.652947 27.463710 L 413.534806 26.498740 L 415.580710 25.990160" fill="none" id="1" stroke="black" stroke-width="0.5" /><path d="M 0.250000 111.816930 L 2.560552 115.082103 L 5.084520 118.180306 L 7.697784 121.208647 L 10.311048 124.236988 L 12.984471 127.211251 L 15.718276 130.131236 L 18.452080 133.051221 L 21.185885 135.971206 L 23.919689 138.891192 L 26.653493 141.811177 L 29.387298 144.731162 L 32.001551 147.757700 L 34.589013 150.808117 L 37.176474 153.858534 L 39.750250 156.920008 L 42.189145 160.090465 L 44.628039 163.260921 L 47.066933 166.431378 L 49.505828 169.601834 L 51.944722 172.772290 L 54.383617 175.942747 L 56.822511 179.113203 L 59.261406 182.283660 L 61.700300 185.454116 L 64.139195 188.624572 L 66.578089 191.795029 L 69.016983 194.965485 L 71.455878 198.135942 L 73.894772 201.306398 L 76.312111 204.492936 L 78.656467 207.733923 L 81.000824 210.974909 L 83.345181 214.215895 L 85.689538 217.456881 L 88.033894 220.697867 L 90.378251 223.938854 L 92.722608 227.179840 L 95.066964 230.420826 L 97.385624 233.679732 L 99.616613 236.999776 L 101.847602 240.319819 L 104.078591 243.639862 L 106.309580 246.959906 L 108.540569 250.279949 L 110.771559 253.599992 L 112.932834 256.965804 L 115.092146 260.332906 L 117.251458 263.700007 L 119.410770 267.067109 L 121.570082 270.434210 L 123.729393 273.801312 L 125.900039 277.161064 L 128.093091 280.506288 L 130.286143 283.851512 L 132.479196 287.196736 L 134.672248 290.541959 L 136.865300 293.887183 L 139.058352 297.232407 L 141.251405 300.577631 L 143.444457 303.922854 L 145.637509 307.268078 L 147.830561 310.613302 L 150.023614 313.958525 L 152.216666 317.303749 L 154.409718 320.648973 L 156.602770 323.994197 L 158.706713 327.395993 L 160.801011 330.803913 L 162.895310 334.211832 L 164.989609 337.619751 L 167.083907 341.027670 L 169.178206 344.435589 L 171.272505 347.843508 L 173.366803 351.251428 L 175.461102 354.659347 L 177.555401 358.067266 L 179.649699 361.475185 L 181.845391 364.816922 L 184.122231 368.105691 L 186.399071 371.394459 L 188.675911 374.683228 L 190.952751 377.971997 L 193.229591 381.260766 L 195.506431 384.549534 L 197.783271 387.838303 L 199.986162 391.176418 L 202.149192 394.541132 L 204.312222 397.905846 L 206.475253 401.270560 L 208.693928 404.598142 L 210.970768 407.886910 L 213.247608 411.175679 L 215.524448 414.464448 L 217.801288 417.753217 L 220.078128 421.041986 L 222.354968 424.330754 L 224.631808 427.619523 L 226.823736 430.964377 L 228.954989 434.349309 L 231.086242 437.734240 L 233.217495 441.119171 L 235.348748 444.504103 L 237.480001 447.889034 L 239.611254 451.273966 L 241.742507 454.658897 L 243.978611 457.973946 L 246.282682 461.243694 L 248.586753 464.513443 L 250.890824 467.783192 L 253.194896 471.052940 L 255.498967 474.322689 L 257.803038 477.592437 L 260.107109 480.862186 L 262.411180 484.131935 L 264.715252 487.401683 L 267.019323 490.671432 L 269.323394 493.941180 L 271.627465 497.210929 L 273.931536 500.480678 L 276.235608 503.750426 L 277.919290 506.139770" fill="none" id="2" stroke="black" stroke-width="0.5" /><path d="M 351.116140 0.250000 L 353.811108 3.200351 L 356.866928 5.781429 L 359.922749 8.362507 L 362.978569 10.943584 L 366.034389 13.524662 L 369.090210 16.105739 L 372.146030 18.686817 L 375.201851 21.267894 L 378.257671 23.848972 L 381.362379 26.369573 L 384.526576 28.816583 L 387.690773 31.263594 L 390.854969 33.710604 L 394.019166 36.157614 L 397.183363 38.604624 L 400.347560 41.051634 L 403.511756 43.498645 L 406.675953 45.945655 L 409.840150 48.392665 L 412.982061 50.867998 L 416.104759 53.367750 L 419.227457 55.867501 L 422.350155 58.367253 L 425.472853 60.867004 L 428.547194 63.425227 L 431.588592 66.023284 L 434.629990 68.621340 L 437.671388 71.219397 L 440.712786 73.817454 L 443.754184 76.415510 L 446.795582 79.013567 L 449.836980 81.611623 L 452.878378 84.209680 L 455.919776 86.807736 L 458.961174 89.405793 L 462.002572 92.003850 L 465.043970 94.601906 L 468.085368 97.199963 L 471.126766 99.798019 L 474.168164 102.396076 L 477.209562 104.994133 L 480.196301 107.654578 L 483.171748 110.327912 L 486.147195 113.001247 L 489.073170 115.728272 L 491.980596 118.475430 L 494.888021 121.222589 L 497.795446 123.969747 L 500.702871 126.716906 L 503.610296 129.464064 L 506.517721 132.211223 L 509.425146 134.958381 L 512.332571 137.705540 L 515.239996 140.452698 L 518.147421 143.199857 L 521.054846 145.947015 L 523.962271 148.694174 L 526.880542 151.429764 L 529.809189 154.154287 L 532.737836 156.878810 L 535.666483 159.603334 L 538.595130 162.327857 L 541.523777 165.052380 L 544.452424 167.776903 L 547.381071 170.501426 L 550.309718 173.225949 L 553.238365 175.950472 L 556.167012 178.674996 L 559.043817 181.453267 L 561.872244 184.281694 L 564.700671 187.110121 L 567.529098 189.938548 L 570.357525 192.766975 L 573.185952 195.595402 L 576.014380 198.423830 L 578.842807 201.252257 L 581.888346 203.750473 L 584.824777 206.466605 L 587.761208 209.182737 L 590.697640 211.898868 L 593.634071 214.615000 L 596.570502 217.331131 L 599.506934 220.047263 L 602.443365 222.763395 L 605.379797 225.479526 L 608.316228 228.195658 L 611.252659 230.911789 L 614.189091 233.627921 L 617.031922 236.441372 L 619.860349 239.269799 L 622.688776 242.098226 L 625.517203 244.926653 L 628.448782 247.647928 L 631.382730 250.366742 L 634.316677 253.085556 L 637.250625 255.804371 L 640.184573 258.523185 L 643.118521 261.241999 L 646.052469 263.960813 L 648.986417 266.679627 L 651.920365 269.398441 L 654.854312 272.117255 L 657.788260 274.836069 L 660.751039 277.523166 L 663.736641 280.185154 L 666.722243 282.847142 L 669.707845 285.509130 L 672.693447 288.171119 L 675.679049 290.833107 L 678.664651 293.495095 L 681.650253 296.157083 L 684.635855 298.819071 L 687.621457 301.481059 L 690.607059 304.143047 L 693.511463 306.893394 L 696.415728 309.643894 L 699.319992 312.394393 L 702.224257 315.144893 L 705.128521 317.895393 L 708.032786 320.645892 L 710.937050 323.396392 L 713.841314 326.146891 L 716.745579 328.897391 L 718.423230 330.486220" fill="none" id="3" stroke="black" stroke-width="0.5" /><path d="M 298.990160 548.328740 L 300.884582 547.183337 L 304.659262 545.860114 L 308.434884 544.539249 L 312.188566 543.159580 L 315.906696 541.684621 L 319.624827 540.209661 L 323.324666 538.691068 L 326.983152 537.073823 L 330.641638 535.456578 L 334.300124 533.839333 L 337.958610 532.222088 L 341.617096 530.604843 L 345.275581 528.987598 L 348.934067 527.370353 L 352.592553 525.753108 L 356.239672 524.111248 L 359.843219 522.375031 L 363.446767 520.638815 L 367.050314 518.902598 L 370.653861 517.166382 L 374.257408 515.430166 L 377.860955 513.693949 L 381.464503 511.957733 L 385.068050 510.221516 L 388.671597 508.485300 L 392.275144 506.749084 L 395.879754 505.015121 L 399.512173 503.340149 L 403.144592 501.665176 L 406.777011 499.990204 L 410.409430 498.315232 L 414.041849 496.640259 L 417.674268 494.965287 L 421.306687 493.290314 L 424.881626 491.496466 L 428.450229 489.689515 L 432.018831 487.882564 L 435.587434 486.075612 L 439.156037 484.268661 L 442.724640 482.461710 L 446.293243 480.654759 L 449.869411 478.863853 L 453.534041 477.260578 L 457.198670 475.657302 L 460.863299 474.054027 L 464.527929 472.450752 L 468.130608 470.715211 L 471.708317 468.926357 L 475.286026 467.137502 L 478.863734 465.348648 L 482.442842 464.417719 L 486.042429 462.778822 L 489.642508 461.035425 L 493.242586 459.292028 L 496.842665 457.548631 L 500.442744 455.805234 L 504.042823 454.061837 L 507.642901 452.318440 L 511.242980 450.575043 L 514.843059 448.831646 L 518.471677 447.149730 L 522.126924 445.525176 L 525.782170 443.900622 L 529.437416 442.276068 L 533.092662 440.651515 L 536.747908 439.026961 L 540.403155 437.402407 L 544.058401 435.777853 L 547.713647 434.153299 L 551.368893 432.528745 L 554.986286 431.866510 L 558.640459 430.239543 L 562.294632 428.612577 L 565.948805 426.985611 L 569.602978 425.358645 L 573.257151 423.731679 L 576.911324 422.104713 L 580.565498 420.477747 L 584.219671 418.850781 L 587.873844 417.223815 L 591.528017 415.596849 L 595.182190 413.969883 L 598.836363 412.342917 L 602.490536 410.715950 L 606.144710 409.088984 L 609.798883 407.462018 L 613.453056 405.835052 L 617.107229 404.208086 L 620.761402 402.581120 L 624.415575 400.954154 L 627.799546 400.191561 L 631.464770 398.589644 L 635.129993 396.987727 L 638.795216 395.385810 L 642.460440 393.783894 L 646.125663 392.181977 L 649.790887 390.580060 L 653.456110 388.978143 L 657.121333 387.376227 L 660.786557 385.774310 L 664.468876 384.212680 L 668.167589 382.689681 L 671.866301 381.166681 L 675.565013 379.643682 L 679.263726 378.120683 L 682.889808 376.432937 L 686.509083 374.729749 L 690.128358 373.026561 L 693.747633 371.323373 L 696.990392 370.756416 L 700.598182 369.102178 L 704.220256 367.404951 L 707.842330 365.707724 L 711.464404 364.010497 L 715.086479 362.313270 L 718.708553 360.616043 L 722.330627 358.918816 L 725.952701 357.221589 L 728.580710 355.990160" fill="none" id="4" stroke="black" stroke-width="0.5" /><path d="M 128.187010 100.549220 L 128.159588 103.747978 L 128.995250 107.654248 L 129.605771 111.607382 L 129.667320 112.005910" fill="none" id="5" stroke="black" stroke-width="0.5" /><path d="M 194.958660 54.273620 L 196.392951 57.799058 L 199.145993 60.700914 L 201.899034 63.602769 L 204.652075 66.504624 L 207.405117 69.406479 L 210.158158 72.308334 L 212.911199 75.210190 L 215.704165 78.072873 L 218.553075 80.880669 L 221.401984 83.688464 L 224.250893 86.496260 L 227.099803 89.304055 L 229.948712 92.111851 L 232.797621 94.919646 L 235.553249 97.818736 L 238.299059 100.727434 L 241.029949 103.650136 L 243.758696 106.574847 L 246.487444 109.499558 L 249.216192 112.424269 L 251.944940 115.348981 L 254.673687 118.273692 L 257.402435 121.198403 L 260.131183 124.123114 L 262.859931 127.047826 L 265.588678 129.972537 L 268.317426 132.897248 L 271.046174 135.821959 L 273.774922 138.746670 L 276.503669 141.671382 L 279.232417 144.596093 L 281.961165 147.520804 L 284.612780 150.515284 L 287.249944 153.522836 L 289.887108 156.530387 L 292.524272 159.537939 L 295.161436 162.545490 L 297.798600 165.553042 L 300.402128 168.589385 L 302.966889 171.658913 L 305.531651 174.728440 L 308.096412 177.797968 L 310.661173 180.867496 L 313.225934 183.937023 L 315.790696 187.006551 L 318.355457 190.076078 L 320.920218 193.145606 L 323.484979 196.215134 L 326.047083 199.286856 L 328.576615 202.385479 L 331.106147 205.484103 L 333.635679 208.582727 L 336.165211 211.681350 L 338.694743 214.779974 L 341.224275 217.878597 L 343.753807 220.977221 L 346.596522 223.417256 L 349.089032 226.545737 L 351.581542 229.674218 L 354.074052 232.802699 L 356.566562 235.931180 L 359.059072 239.059661 L 361.551582 242.188142 L 364.044093 245.316623 L 366.858039 247.908806 L 369.392034 251.003781 L 371.926028 254.098756 L 374.460022 257.193732 L 376.994017 260.288707 L 379.528011 263.383682 L 382.062006 266.478658 L 384.596000 269.573633 L 387.129995 272.668608 L 389.663989 275.763584 L 392.197984 278.858559 L 394.731978 281.953534 L 397.299076 285.020956 L 399.882845 288.074501 L 402.466614 291.128046 L 405.050383 294.181591 L 407.634152 297.235136 L 410.217921 300.288682 L 412.801690 303.342227 L 415.385458 306.395772 L 417.969227 309.449317 L 420.552996 312.502862 L 423.136765 315.556407 L 425.720534 318.609952 L 428.304303 321.663498 L 430.888072 324.717043 L 433.471841 327.770588 L 436.055610 330.824133 L 438.639379 333.877678 L 441.131022 337.005566 L 443.569865 340.176062 L 446.008708 343.346558 L 448.447551 346.517054 L 451.091336 349.499859 L 453.663985 352.562779 L 456.236635 355.625698 L 458.809284 358.688617 L 461.381934 361.751536 L 463.954584 364.814455 L 466.527233 367.877374 L 469.099883 370.940294 L 471.672533 374.003213 L 474.245182 377.066132 L 476.817832 380.129051 L 479.390482 383.191970 L 481.963131 386.254889 L 484.420029 389.410316 L 486.840362 392.594965 L 489.260695 395.779614 L 491.681028 398.964263 L 494.101361 402.148911 L 496.521694 405.333560 L 498.942027 408.518209 L 501.362360 411.702858 L 503.782693 414.887506 L 506.203026 418.072155 L 508.623359 421.256804 L 511.043693 424.441453 L 513.464026 427.626102 L 515.884359 430.810750 L 518.304692 433.995399 L 520.783269 437.116073 L 521.163390 437.352360" fill="none" id="6" stroke="black" stroke-width="0.5" /><path d="M 293.163390 561.982290 L 296.426052 560.097118 L 300.091058 558.494704 L 303.530202 556.454230 L 306.961209 554.397973 L 310.503342 552.540328 L 314.050731 550.692077 L 317.677284 549.004962 L 321.308156 547.326639 L 324.939028 545.648315 L 328.569899 543.969992 L 332.200771 542.291669 L 335.831643 540.613345 L 339.462515 538.935022 L 343.093387 537.256698 L 346.724259 535.578375 L 350.355131 533.900051 L 353.986002 532.221728 L 357.616874 530.543404 L 361.247746 528.865081 L 364.893656 527.220494 L 368.569027 525.641997 L 372.244397 524.063500 L 375.919768 522.485004 L 379.595138 520.906507 L 383.270509 519.328010 L 386.945879 517.749513 L 390.625559 516.181200 L 394.317534 514.641940 L 398.009508 513.102679 L 401.701483 511.563419 L 405.393458 510.024158 L 409.085432 508.484897 L 412.777407 506.945637 L 416.469382 505.406376 L 420.161356 503.867116 L 423.853331 502.327855 L 427.545306 500.788594 L 431.237280 499.249334 L 434.929255 497.710073 L 438.621229 496.170813 L 442.313204 494.631552 L 446.005179 493.092291 L 449.697153 491.553031 L 451.651580 490.738190" fill="none" id="7" stroke="black" stroke-width="0.5" /><path d="M 138.927170 208.667330 L 142.892588 208.142489 L 146.730722 207.089186 L 150.500242 205.751008 L 154.269762 204.412829 L 158.039281 203.074650 L 161.808801 201.736471 L 165.578320 200.398293 L 169.329449 199.010993 L 173.050971 197.544611 L 176.772493 196.078229 L 180.494014 194.611847 L 184.215536 193.145465 L 187.937058 191.679083 L 191.658580 190.212701 L 195.380101 188.746319 L 199.111999 187.307030 L 202.861046 185.912524 L 206.610092 184.518018 L 210.359139 183.123512 L 214.108186 181.729006 L 217.857233 180.334500 L 221.606280 178.939994 L 225.355327 177.545488 L 229.104374 176.150982 L 232.853421 174.756476 L 236.602468 173.361970 L 240.351515 171.967464 L 244.100562 170.572958 L 247.849609 169.178452 L 251.598656 167.783946 L 255.347703 166.389440 L 259.096750 164.994934 L 262.845797 163.600428 L 266.619085 162.273585 L 270.400755 160.970139 L 274.182424 159.666692 L 277.964094 158.363246 L 281.761289 157.106636 L 285.572788 155.893181 L 289.384287 154.679725 L 293.195787 153.466270 L 295.210630 152.824810" fill="none" id="8" stroke="black" stroke-width="0.5" /><path d="M 152.061020 201.627960 L 155.385700 199.917883 L 159.217453 198.769984 L 163.049206 197.622086 L 166.832825 196.331785 L 170.575219 194.919523 L 174.317614 193.507262 L 178.060008 192.095000 L 181.816049 190.719927 L 185.583665 189.376399 L 189.351282 188.032871 L 193.118898 186.689342 L 196.886514 185.345814 L 200.654130 184.002286 L 204.421747 182.658758 L 208.189363 181.315230 L 211.956979 179.971702 L 215.724595 178.628174 L 219.492212 177.284646 L 223.259828 175.941117 L 227.027444 174.597589 L 230.795060 173.254061 L 234.562677 171.910533 L 238.330293 170.567005 L 242.097909 169.223477 L 245.865525 167.879949 L 249.633142 166.536421 L 253.400758 165.192892 L 254.234250 164.895670" fill="none" id="9" stroke="black" stroke-width="0.5" /><path d="M 350.643700 140.919290 L 354.281684 139.271090 L 358.052005 137.935171 L 361.822326 136.599251 L 365.592647 135.263332 L 369.362968 133.927412 L 373.133289 132.591493 L 376.903609 131.255573 L 380.673930 129.919654 L 384.444251 128.583734 L 388.233183 127.302823 L 392.040103 126.075076 L 395.847022 124.847328 L 399.653942 123.619581 L 403.460861 122.391833 L 407.267781 121.164085 L 411.074700 119.936338 L 414.881620 118.708590 L 418.688539 117.480843 L 422.495459 116.253095 L 426.302378 115.025348 L 430.109298 113.797600 L 433.916217 112.569852 L 437.723137 111.342105 L 441.530056 110.114357 L 445.362560 108.970594 L 449.207417 107.867383 L 453.052274 106.764172 L 456.897131 105.660961 L 459.399610 104.942920" fill="none" id="10" stroke="black" stroke-width="0.5" /><path d="M 157.509840 203.517720 L 160.385676 201.566381 L 164.148878 200.212254 L 167.917842 198.872511 L 171.686805 197.532767 L 175.455769 196.193024 L 179.224733 194.853280 L 182.993696 193.513536 L 186.762660 192.173793 L 190.531624 190.834049 L 194.300587 189.494306 L 198.069551 188.154562 L 201.838515 186.814819 L 205.607478 185.475075 L 209.376442 184.135331 L 213.145406 182.795588 L 216.914369 181.455844 L 220.683333 180.116101 L 224.452297 178.776357 L 228.221260 177.436614 L 231.990224 176.096870 L 235.759188 174.757127 L 239.528151 173.417383 L 243.297115 172.077639 L 247.066079 170.737896 L 250.835042 169.398152 L 251.872050 169.029530" fill="none" id="11" stroke="black" stroke-width="0.5" /><path d="M 129.068900 106.690950 L 131.435615 105.443905 L 135.265380 104.289392 L 139.095145 103.134879 L 142.924910 101.980366 L 146.754675 100.825853 L 150.584440 99.671341 L 154.414205 98.516828 L 158.243970 97.362315 L 162.073735 96.207802 L 165.897107 95.032847 L 169.702190 93.799421 L 173.507273 92.565994 L 177.312357 91.332568 L 181.117440 90.099141 L 184.922523 88.865715 L 188.738061 87.665791 L 192.569365 86.516398 L 196.400670 85.367006 L 200.231975 84.217614 L 204.072625 83.099948 L 207.915289 81.989122 L 211.757952 80.878296 L 215.600616 79.767470 L 219.443280 78.656644 L 223.285944 77.545818 L 227.128608 76.434992 L 230.971272 75.324166 L 234.813936 74.213340 L 238.656600 73.102514 L 242.499263 71.991688 L 246.341927 70.880862 L 250.184591 69.770036 L 254.039245 68.701839 L 257.897566 67.646681 L 261.755887 66.591523 L 265.614208 65.536366 L 269.472529 64.481208 L 273.330850 63.426050 L 276.911420 62.446850" fill="none" id="12" stroke="black" stroke-width="0.5" /><path d="M 294.391730 547.667330 L 294.373621 551.667289 L 294.355512 555.667248 L 294.337403 559.667207 L 294.516340 563.658736 L 294.738190 566.116140" fill="none" id="13" stroke="black" stroke-width="0.5" /><path d="M 660.218510 396.013780 L 663.732866 394.395769 L 667.361923 392.725596 L 671.046669 391.169110 L 674.731414 389.612623 L 678.416159 388.056136 L 682.100905 386.499650 L 685.785650 384.943163 L 689.469846 383.385402 L 693.131197 381.774654 L 696.792549 380.163906 L 700.453900 378.553158 L 704.115251 376.942411 L 707.776602 375.331663 L 711.437953 373.720915 L 715.133737 372.192454 L 718.851098 370.715556 L 722.568459 369.238658 L 726.285820 367.761760 L 730.003181 366.284862 L 733.720542 364.807964 L 737.437903 363.331066 L 741.155264 361.854168 L 744.872625 360.377271 L 748.589986 358.900373 L 752.307347 357.423475 L 756.024708 355.946577 L 759.742069 354.469679 L 763.459430 352.992781 L 767.176791 351.515883 L 770.894152 350.038985 L 771.116140 349.950790" fill="none" id="14" stroke="black" stroke-width="0.5" /><path d="M 289.698820 565.194880 L 292.914030 563.205014 L 296.456081 561.346987 L 300.042494 559.575649 L 303.628908 557.804312 L 307.215322 556.032974 L 310.801736 554.261637 L 314.388149 552.490299 L 317.987007 550.744759 L 321.605805 549.040558 L 325.224603 547.336357 L 328.843401 545.632156 L 332.462199 543.927955 L 336.080997 542.223754 L 339.699795 540.519553 L 343.318593 538.815352 L 346.937391 537.111151 L 350.556189 535.406950 L 354.169851 533.691992 L 357.770276 531.949311 L 361.370701 530.206630 L 364.971127 528.463949 L 368.571552 526.721267 L 372.171977 524.978586 L 375.772403 523.235905 L 379.372828 521.493224 L 382.973253 519.750543 L 386.613076 518.092401 L 390.263114 516.456178 L 393.913152 514.819956 L 397.563189 513.183734 L 401.227074 511.579693 L 404.924893 510.054527 L 408.622712 508.529361 L 412.320532 507.004195 L 416.018351 505.479029 L 419.716171 503.953863 L 423.413990 502.428697 L 423.809060 502.265750" fill="none" id="15" stroke="black" stroke-width="0.5" /><path d="M 427.651580 498.864180 L 424.031740 500.566168 L 420.411901 502.268155 L 416.782993 503.949925 L 413.104569 505.521291 L 409.426144 507.092657 L 405.747719 508.664024 L 402.069295 510.235390 L 398.390870 511.806756 L 394.686889 513.316665 L 390.978860 514.816838 L 387.270830 516.317010 L 383.562801 517.817182 L 379.854771 519.317355 L 376.186475 520.908826 L 372.561566 522.599988 L 368.936656 524.291150 L 365.311746 525.982312 L 361.686836 527.673474 L 358.061926 529.364636 L 354.437017 531.055798 L 350.812107 532.746960 L 347.187197 534.438122 L 343.562287 536.129284 L 339.937377 537.820446 L 336.312468 539.511608 L 332.687558 541.202770 L 329.062648 542.893932 L 328.501970 543.155510" fill="none" id="16" stroke="black" stroke-width="0.5" /><path d="M 212.627950 77.021660 L 213.549070 79.063499 L 216.595007 81.656233 L 219.640944 84.248967 L 222.686881 86.841701 L 225.732818 89.434435 L 228.778755 92.027169 L 231.779509 94.668539 L 234.589208 97.515571 L 237.398907 100.362603 L 240.208607 103.209635 L 243.018306 106.056666 L 245.828005 108.903698 L 248.637704 111.750730 L 251.447403 114.597762 L 254.274605 117.426897 L 257.183590 120.172403 L 260.092576 122.917909 L 263.001562 125.663415 L 265.910547 128.408921 L 268.696199 131.023232 L 266.864170 128.824810" fill="none" id="17" stroke="black" stroke-width="0.5" /><path d="M 322.045280 188.139770 L 325.002653 190.833085 L 327.770713 193.709036 L 330.356154 196.761165 L 332.941595 199.813295 L 335.502084 202.885322 L 337.902083 206.085322 L 340.302083 209.285322 L 342.702082 212.485323 L 345.018728 215.745510 L 347.301223 219.030357 L 349.583718 222.315203 L 351.866212 225.600050 L 354.148707 228.884897 L 356.431202 232.169744 L 358.713697 235.454590 L 361.082367 238.677669 L 363.459929 241.894376 L 365.837491 245.111082 L 368.251401 248.300312 L 370.697746 251.465023 L 373.177782 254.600372 L 375.978368 257.456369 L 377.289370 258.793310" fill="none" id="18" stroke="black" stroke-width="0.5" /></svg>