<?xml version="1.0" encoding="utf-8" ?>
<svg baseProfile="full" height="422.5" version="1.1" viewBox="0,0,746.5,422.5" width="746.5" xmlns="http://www.w3.org/2000/svg" xmlns:ev="http://www.w3.org/2001/xml-events" xmlns:xlink="http://www.w3.org/1999/xlink"><defs><style type="text/css"><![CDATA[
	.background { fill: white; }
	.line { stroke: firebrick; stroke-width: .1mm; }
	.blacksquare { fill: indigo; }
	.whitesquare { fill: white; }
]]></style></defs><rect class="background" height="100%" width="100%" x="0" y="0" /><path d="M 294.549000 324.935100 L 297.901000 328.373100 L 301.434000 331.625100 L 305.182000 334.626100 L 309.067000 337.449100 L 312.953000 340.271100 L 316.839000 343.094100 L 320.724000 345.916100 L 324.610000 348.739100 L 328.496000 351.561100 L 332.386000 354.377100 L 336.313000 357.141100 L 340.292000 359.830100 L 344.320000 362.444100 L 348.409000 364.963100 L 352.521000 367.445100 L 356.612000 369.959100 L 360.642000 372.572100 L 364.623000 375.257100 L 368.615000 377.927100 L 372.687000 380.472100 L 376.833000 382.895100 L 380.997000 385.288100 L 385.225000 387.565100 L 389.564000 389.620100 L 393.913000 391.656100 L 398.231000 393.760100 L 402.617000 395.714100 L 407.049000 397.564100 L 411.487000 399.400100 L 415.935000 401.211100" fill="none" id="0" stroke="#c583d9" stroke-width="0.5" /><path d="M 311.053000 178.242100 L 314.742000 180.745100 L 318.335000 183.381100 L 321.816000 186.165100 L 325.120000 189.157100 L 328.391000 192.184100 L 331.574000 195.304100 L 334.645000 198.534100 L 337.676000 201.803100 L 340.702000 205.076100 L 343.728000 208.349100 L 346.754000 211.622100 L 349.775000 214.899100 L 352.762000 218.208100 L 355.678000 221.579100 L 358.538000 224.997100 L 361.383000 228.429100 L 364.228000 231.860100 L 367.077000 235.288100 L 369.954000 238.693100 L 372.887000 242.049100 L 375.859000 245.371100 L 378.879000 248.649100 L 381.961000 251.869100 L 385.070000 255.063100 L 388.201000 258.236100 L 391.442000 261.296100 L 394.791000 264.237100 L 398.153000 267.163100 L 401.516000 270.089100 L 404.880000 273.014100" fill="none" id="1" stroke="#f375a0" stroke-width="0.5" /><path d="M 364.470000 223.880100 L 366.591000 228.369100 L 368.901000 232.763100 L 371.431000 237.033100 L 374.288000 241.089100 L 377.516000 244.859100 L 380.951000 248.443100 L 384.515000 251.898100 L 388.108000 255.325100 L 391.700000 258.752100 L 395.313000 262.157100 L 399.008000 265.473100 L 402.816000 268.657100 L 406.760000 271.670100 L 410.869000 274.453100 L 415.061000 277.112100 L 419.268000 279.749100 L 423.508000 282.331100 L 427.856000 284.726100 L 432.343000 286.846100 L 436.931000 288.742100 L 441.558000 290.540100 L 446.278000 292.077100 L 451.038000 293.489100 L 455.799000 294.894100 L 460.581000 296.230100 L 465.432000 297.285100 L 470.289000 298.314100 L 475.170000 299.217100 L 480.073000 300.000100 L 484.980000 300.755100 L 489.895000 301.450100 L 494.836000 301.923100 L 499.792000 302.210100 L 504.754000 302.383100 L 509.718000 302.438100 L 514.682000 302.426100 L 519.645000 302.316100 L 524.598000 301.996100 L 529.542000 301.545100 L 534.483000 301.060100 L 539.414000 300.481100 L 544.318000 299.714100 L 549.208000 298.853100 L 554.066000 297.834100 L 558.886000 296.645100 L 563.698000 295.424100 L 568.510000 294.200100 L 573.321000 292.974100" fill="none" id="2" stroke="#f375a0" stroke-width="0.5" /><path d="M 538.738000 298.289100 L 543.594000 299.218100 L 548.520000 299.644100 L 553.459000 299.431100 L 558.313000 298.494100 L 563.119000 297.329100 L 567.924000 296.164100 L 572.728000 294.993100 L 577.474000 293.608100 L 582.221000 292.222100 L 586.952000 290.786100 L 591.683000 289.349100 L 596.414000 287.912100 L 601.145000 286.476100 L 605.876000 285.038100 L 610.585000 283.530100 L 615.259000 281.917100 L 619.927000 280.289100 L 624.596000 278.660100 L 629.265000 277.032100 L 633.933000 275.403100 L 638.602000 273.775100 L 643.270000 272.146100 L 647.939000 270.518100 L 652.607000 268.889100 L 657.260000 267.216100 L 661.862000 265.406100 L 666.463000 263.595100 L 671.064000 261.785100 L 675.665000 259.974100 L 680.266000 258.164100 L 684.867000 256.353100 L 689.468000 254.542100 L 694.069000 252.732100 L 698.670000 250.921100 L 703.271000 249.110100 L 707.872000 247.300100 L 712.473000 245.489100 L 717.074000 243.679100 L 721.675000 241.868100 L 726.227000 239.939100 L 730.725000 237.884100 L 735.179000 235.738100" fill="none" id="3" stroke="#f375a0" stroke-width="0.5" /><path d="M 300.187000 172.691100 L 302.655000 173.644100 L 305.097000 174.660100 L 307.504000 175.758100 L 309.853000 176.974100 L 312.174000 178.244100 L 314.491000 179.522100 L 316.798000 180.817100 L 319.067000 182.177100 L 321.298000 183.599100 L 323.511000 185.048100 L 325.709000 186.521100 L 327.861000 188.061100 L 329.952000 189.680100 L 331.993000 191.363100 L 333.985000 193.104100 L 335.905000 194.925100 L 337.777000 196.794100 L 339.602000 198.709100 L 341.372000 200.675100 L 343.091000 202.686100 L 344.795000 204.710100 L 346.483000 206.747100 L 348.124000 208.822100 L 349.692000 210.953100 L 351.225000 213.109100 L 352.725000 215.289100 L 354.092000 217.554100 L 355.452000 219.823100 L 356.794000 222.103100 L 358.108000 224.400100" fill="none" id="4" stroke="#f375a0" stroke-width="0.5" /><path d="M 508.030000 130.289100 L 509.939000 131.376100 L 511.854000 132.453100 L 513.774000 133.520100 L 515.709000 134.559100 L 517.651000 135.587100 L 519.597000 136.606100 L 521.505000 137.694100 L 523.379000 138.840100 L 525.218000 140.041100 L 527.041000 141.267100 L 528.864000 142.493100 L 530.686000 143.721100 L 532.484000 144.983100 L 534.246000 146.293100 L 535.974000 147.649100 L 537.678000 149.036100 L 539.381000 150.425100 L 541.081000 151.816100 L 542.781000 153.207100 L 544.482000 154.598100 L 546.182000 155.989100 L 547.869000 157.396100 L 549.529000 158.834100 L 551.162000 160.304100 L 552.725000 161.847100 L 554.288000 163.391100 L 555.850000 164.936100 L 557.411000 166.481100 L 558.972000 168.027100 L 560.533000 169.573100" fill="none" id="5" stroke="#00d4db" stroke-width="0.5" /><path d="M 504.376000 128.400100 L 505.718000 129.137100 L 507.059000 129.875100 L 508.402000 130.611100 L 509.744000 131.347100 L 511.097000 132.064100 L 512.454000 132.774100 L 513.797000 133.509100 L 515.129000 134.263100 L 516.441000 135.050100 L 517.727000 135.881100 L 519.001000 136.730100 L 520.245000 137.623100 L 521.480000 138.527100 L 522.672000 139.488100 L 523.864000 140.450100 L 525.020000 141.453100 L 526.176000 142.457100 L 527.328000 143.466100 L 528.478000 144.476100 L 529.618000 145.498100 L 530.753000 146.526100 L 531.861000 147.582100 L 532.951000 148.658100 L 534.028000 149.745100 L 535.089000 150.849100 L 536.149000 151.954100 L 537.203000 153.064100 L 538.256000 154.176100 L 539.300000 155.295100 L 540.344000 156.415100" fill="none" id="6" stroke="#00d4db" stroke-width="0.5" /><path d="M 363.463000 378.274100 L 367.069000 381.685100 L 370.838000 384.917100 L 374.821000 387.880100 L 378.948000 390.638100 L 383.187000 393.223100 L 387.543000 395.604100 L 391.957000 397.872100 L 396.532000 399.801100 L 401.145000 401.636100 L 405.807000 403.337100 L 410.551000 404.802100 L 415.323000 406.171100 L 420.099000 407.528100 L 424.874000 408.886100 L 429.650000 410.243100 L 434.426000 411.597100 L 439.213000 412.913100 L 444.027000 414.124100 L 448.863000 415.248100 L 453.704000 416.352100 L 458.544000 417.455100 L 463.394000 418.513100 L 468.279000 419.389100 L 473.200000 420.043100 L 478.133000 420.600100 L 483.068000 421.146100 L 488.008000 421.637100 L 492.961000 421.959100 L 497.923000 422.112100 L 502.887000 422.165100 L 507.850000 422.087100 L 512.810000 421.877100 L 517.768000 421.605100 L 522.719000 421.247100 L 527.658000 420.747100 L 532.588000 420.162100 L 537.512000 419.533100 L 542.417000 418.768100 L 547.285000 417.800100 L 552.138000 416.750100 L 556.981000 415.661100 L 561.795000 414.447100 L 566.572000 413.097100 L 571.339000 411.710100 L 576.106000 410.323100 L 580.867000 408.917100 L 585.597000 407.410100 L 590.274000 405.744100 L 594.923000 404.003100 L 599.523000 402.137100 L 604.043000 400.085100 L 608.542000 397.986100 L 612.980000 395.760100 L 617.320000 393.350100 L 621.644000 390.912100 L 625.932000 388.410100 L 630.178000 385.837100 L 634.418000 383.254100 L 638.657000 380.670100 L 642.896000 378.085100" fill="none" id="7" stroke="#9de993" stroke-width="0.5" /><path d="M 407.116000 399.817100 L 410.650000 403.252100 L 414.558000 406.253100 L 419.011000 408.357100 L 423.560000 410.252100 L 428.194000 411.929100 L 432.882000 413.449100 L 437.688000 414.529100 L 442.543000 415.369100 L 447.406000 416.174100 L 452.278000 416.915100 L 457.153000 417.637100 L 462.028000 418.359100 L 466.904000 419.081100 L 471.798000 419.654100 L 476.710000 420.046100 L 481.627000 420.379100 L 486.544000 420.712100 L 491.464000 420.992100 L 496.390000 421.075100 L 501.316000 420.950100 L 506.234000 420.647100 L 511.144000 420.217100 L 516.048000 419.732100 L 520.938000 419.120100 L 525.812000 418.392100 L 530.684000 417.645100 L 535.555000 416.897100 L 540.427000 416.150100 L 545.287000 415.338100 L 550.114000 414.346100 L 554.937000 413.331100 L 559.741000 412.235100 L 564.494000 410.932100 L 569.236000 409.587100 L 573.977000 408.243100 L 578.718000 406.898100 L 583.460000 405.553100 L 588.201000 404.209100 L 592.943000 402.864100" fill="none" id="8" stroke="#9de993" stroke-width="0.5" /><path d="M 706.392000 249.061100 L 710.108000 252.293100 L 713.761000 255.595100 L 717.312000 259.008100 L 720.807000 262.477100 L 724.208000 266.038100 L 727.450000 269.744100 L 730.579000 273.546100 L 733.590000 277.441100 L 736.336000 281.524100 L 738.683000 285.846100 L 740.503000 290.413100 L 741.648000 295.203100 L 742.472000 300.058100 L 742.687000 304.978100 L 742.035000 309.850100 L 740.653000 314.567100 L 738.759000 319.107100 L 736.333000 323.379100 L 733.470000 327.380100 L 730.334000 331.175100 L 727.013000 334.809100 L 723.539000 338.299100 L 719.921000 341.636100 L 716.073000 344.709100 L 712.075000 347.585100 L 707.934000 350.250100 L 703.782000 352.899100 L 699.581000 355.469100 L 695.323000 357.944100 L 691.051000 360.395100 L 686.735000 362.765100 L 682.355000 365.017100 L 677.925000 367.168100 L 673.437000 369.191100 L 668.877000 371.053100 L 664.296000 372.859100 L 659.710000 374.656100 L 655.116000 376.431100" fill="none" id="9" stroke="#ad5ba7" stroke-width="0.5" /><path d="M 745.762000 304.478100 L 745.025000 306.501100 L 744.259000 308.513100 L 743.456000 310.510100 L 742.560000 312.467100 L 741.636000 314.412100 L 740.678000 316.340100 L 739.605000 318.204100 L 738.465000 320.029100 L 737.203000 321.774100 L 735.894000 323.482100 L 734.544000 325.158100 L 733.134000 326.785100 L 731.698000 328.389100 L 730.223000 329.957100 L 728.703000 331.481100 L 727.162000 332.984100 L 725.589000 334.454100 L 723.980000 335.884100 L 722.347000 337.287100 L 720.661000 338.624100 L 718.965000 339.951100 L 717.259000 341.264100 L 715.499000 342.504100 L 713.712000 343.703100 L 711.881000 344.836100 L 710.013000 345.904100 L 708.126000 346.940100 L 706.208000 347.918100 L 704.274000 348.864100 L 702.329000 349.785100" fill="none" id="10" stroke="#ad5ba7" stroke-width="0.5" /><path d="M 618.203000 92.612100 L 619.269000 93.174100 L 620.336000 93.735100 L 621.403000 94.296100 L 622.469000 94.858100 L 623.536000 95.419100 L 624.603000 95.981100 L 625.669000 96.542100 L 626.736000 97.103100 L 627.803000 97.665100 L 628.869000 98.226100 L 629.936000 98.788100 L 631.003000 99.349100 L 632.069000 99.911100 L 633.136000 100.472100 L 634.203000 101.033100 L 635.269000 101.595100 L 636.336000 102.156100 L 637.403000 102.718100 L 638.469000 103.279100 L 639.536000 103.840100 L 640.603000 104.402100 L 641.669000 104.963100 L 642.736000 105.525100 L 643.803000 106.086100 L 644.869000 106.648100 L 645.936000 107.209100 L 647.003000 107.770100 L 648.069000 108.332100 L 649.136000 108.893100 L 650.203000 109.455100" fill="none" id="11" stroke="#58f2c3" stroke-width="0.5" /><path d="M 650.738000 110.163100 L 653.535000 112.395100 L 656.332000 114.626100 L 659.130000 116.858100 L 661.927000 119.089100 L 664.652000 121.407100 L 667.316000 123.796100 L 669.955000 126.212100 L 672.589000 128.634100 L 675.222000 131.057100 L 677.813000 133.525100 L 680.328000 136.069100 L 682.770000 138.684100 L 685.147000 141.359100 L 687.477000 144.074100 L 689.786000 146.807100 L 692.091000 149.544100 L 694.396000 152.281100 L 696.701000 155.018100 L 699.011000 157.750100 L 701.352000 160.456100 L 703.771000 163.092100 L 706.277000 165.646100 L 708.815000 168.169100 L 711.353000 170.691100 L 713.891000 173.213100 L 716.429000 175.736100 L 718.967000 178.258100 L 721.505000 180.780100 L 724.043000 183.302100 L 726.581000 185.825100" fill="none" id="12" stroke="#58f2c3" stroke-width="0.5" /><path d="M 713.919000 177.274100 L 715.626000 179.119100 L 717.302000 180.991100 L 718.949000 182.891100 L 720.579000 184.803100 L 722.097000 186.802100 L 723.501000 188.887100 L 724.822000 191.025100 L 726.006000 193.237100 L 727.053000 195.523100 L 727.443000 198.006100 L 727.828000 200.489100 L 728.209000 202.974100 L 728.086000 205.485100 L 727.808000 207.978100 L 727.374000 210.454100 L 726.460000 212.795100 L 725.406000 215.072100 L 724.211000 217.283100 L 722.916000 219.437100 L 721.523000 221.527100 L 720.034000 223.552100 L 718.277000 225.349100 L 716.447000 227.069100 L 714.545000 228.713100 L 712.561000 230.255100 L 710.574000 231.795100 L 708.584000 233.331100 L 706.594000 234.866100 L 704.604000 236.401100 L 702.612000 237.935100" fill="none" id="13" stroke="#c94e76" stroke-width="0.5" /><path d="M 652.218000 249.510100 L 652.779000 250.384100 L 653.339000 251.259100 L 653.903000 252.131100 L 654.468000 253.002100 L 655.048000 253.864100 L 655.629000 254.724100 L 656.199000 255.592100 L 656.767000 256.462100 L 657.289000 257.360100 L 657.795000 258.266100 L 658.272000 259.189100 L 658.734000 260.118100 L 659.172000 261.060100 L 659.592000 262.010100 L 659.987000 262.970100 L 660.359000 263.940100 L 660.712000 264.916100 L 661.042000 265.901100 L 661.359000 266.890100 L 661.653000 267.886100 L 661.936000 268.885100 L 662.193000 269.891100 L 662.433000 270.901100 L 662.628000 271.921100 L 662.817000 272.942100 L 662.983000 273.968100 L 663.146000 274.993100 L 663.296000 276.021100 L 663.445000 277.049100 L 663.580000 278.078100 L 663.715000 279.108100" fill="none" id="14" stroke="#d55969" stroke-width="0.5" /><path d="M 598.549000 273.415100 L 599.384000 274.419100 L 600.218000 275.424100 L 601.010000 276.462100 L 601.797000 277.504100 L 602.543000 278.575100 L 603.277000 279.655100 L 603.952000 280.771100 L 604.591000 281.910100 L 605.189000 283.069100 L 605.743000 284.252100 L 606.267000 285.447100 L 606.730000 286.668100 L 607.183000 287.892100 L 607.586000 289.134100 L 607.985000 290.377100 L 608.216000 291.662100 L 608.447000 292.947100 L 608.588000 294.245100 L 608.717000 295.544100 L 608.798000 296.847100 L 608.861000 298.151100 L 608.885000 299.456100 L 608.883000 300.762100 L 608.836000 302.066100 L 608.733000 303.367100 L 608.600000 304.665100 L 608.395000 305.955100 L 608.179000 307.242100 L 607.900000 308.518100 L 607.620000 309.793100" fill="none" id="15" stroke="#64e4ff" stroke-width="0.5" /><path d="M 696.691000 245.848100 L 697.006000 246.827100 L 697.321000 247.806100 L 697.661000 248.775100 L 698.003000 249.745100 L 698.412000 250.688100 L 698.821000 251.631100 L 699.197000 252.588100 L 699.573000 253.545100 L 699.914000 254.515100 L 700.254000 255.485100 L 700.559000 256.466100 L 700.863000 257.448100 L 701.085000 258.452100 L 701.306000 259.456100 L 701.482000 260.469100 L 701.656000 261.482100 L 701.785000 262.502100 L 701.912000 263.522100 L 701.964000 264.549100 L 702.016000 265.575100 L 702.041000 266.603100 L 702.067000 267.631100 L 702.067000 268.659100 L 702.066000 269.687100 L 702.027000 270.714100 L 701.987000 271.741100 L 701.944000 272.768100 L 701.901000 273.795100 L 701.847000 274.822100 L 701.793000 275.848100" fill="none" id="16" stroke="#e68e54" stroke-width="0.5" /><path d="M 409.195000 289.573100 L 409.370000 288.326100 L 409.545000 287.079100 L 409.692000 285.829100 L 409.839000 284.579100 L 409.944000 283.324100 L 410.048000 282.070100 L 410.126000 280.813100 L 410.204000 279.557100 L 410.350000 278.306100 L 410.496000 277.056100 L 410.733000 275.820100 L 410.970000 274.583100 L 411.316000 273.373100 L 411.663000 272.163100 L 412.187000 271.018100 L 412.712000 269.874100 L 413.560000 268.945100 L 414.412000 268.018100 L 415.341000 267.168100 L 416.269000 266.318100 L 417.239000 265.515100 L 418.210000 264.716100 L 419.375000 264.237100 L 420.539000 263.758100 L 421.737000 263.373100 L 422.936000 262.987100 L 424.148000 262.648100 L 425.360000 262.308100 L 426.585000 262.015100 L 427.809000 261.722100" fill="none" id="17" stroke="#54aeff" stroke-width="0.5" /><path d="M 343.337000 205.502100 L 343.525000 204.573100 L 343.713000 203.644100 L 343.878000 202.710100 L 344.042000 201.776100 L 344.172000 200.837100 L 344.303000 199.898100 L 344.402000 198.955100 L 344.501000 198.012100 L 344.587000 197.068100 L 344.673000 196.124100 L 344.805000 195.185100 L 344.937000 194.246100 L 345.118000 193.315100 L 345.299000 192.385100 L 345.540000 191.468100 L 345.783000 190.552100 L 346.108000 189.661100 L 346.435000 188.771100 L 346.879000 187.934100 L 347.325000 187.097100 L 347.979000 186.412100 L 348.637000 185.729100 L 349.387000 185.149100 L 350.138000 184.571100 L 351.003000 184.183100 L 351.869000 183.797100 L 352.787000 183.560100 L 353.705000 183.323100 L 354.647000 183.216100 L 355.589000 183.108100" fill="none" id="18" stroke="#eed973" stroke-width="0.5" /><path d="M 306.770000 187.478100 L 306.718000 186.472100 L 306.667000 185.466100 L 306.635000 184.459100 L 306.603000 183.452100 L 306.586000 182.444100 L 306.569000 181.437100 L 306.597000 180.429100 L 306.624000 179.422100 L 306.755000 178.423100 L 306.888000 177.424100 L 307.186000 176.462100 L 307.488000 175.501100 L 307.976000 174.619100 L 308.466000 173.739100 L 309.171000 173.020100 L 309.877000 172.301100 L 310.644000 171.648100 L 311.412000 170.995100 L 312.283000 170.488100 L 313.156000 169.986100 L 314.111000 169.665100 L 315.067000 169.347100 L 316.062000 169.190100 L 317.057000 169.033100 L 318.060000 168.934100 L 319.063000 168.834100 L 320.067000 168.758100 L 321.072000 168.681100 L 322.078000 168.631100 L 323.085000 168.581100" fill="none" id="19" stroke="#008bd4" stroke-width="0.5" /><path d="M 616.376000 91.903100 L 617.109000 91.132100 L 617.842000 90.361100 L 618.635000 89.652100 L 619.427000 88.942100 L 620.277000 88.302100 L 621.128000 87.663100 L 622.067000 87.163100 L 623.008000 86.669200 L 624.052000 86.463700 L 625.096000 86.260700 L 626.160000 86.250100 L 627.223000 86.240500 L 628.279000 86.375900 L 629.333000 86.512900 L 630.350000 86.825800 L 631.366000 87.141100 L 632.327000 87.599100 L 633.287000 88.057100 L 634.217000 88.572100 L 635.147000 89.089100 L 636.014000 89.706100 L 636.881000 90.322100 L 637.686000 91.017100 L 638.492000 91.713100 L 639.224000 92.485100 L 639.955000 93.257100 L 640.624000 94.085100 L 641.291000 94.913100 L 641.905000 95.782100 L 642.518000 96.651100" fill="none" id="20" stroke="#fdb968" stroke-width="0.5" /><path d="M 666.203000 103.974100 L 668.919000 108.093100 L 671.673000 112.186100 L 674.448000 116.265100 L 677.323000 120.274100 L 680.409000 124.120100 L 683.719000 127.775100 L 687.153000 131.317100 L 690.618000 134.829100 L 694.083000 138.341100 L 697.548000 141.853100 L 701.012000 145.366100 L 704.477000 148.878100 L 707.933000 152.398100 L 711.305000 156.000100 L 714.528000 159.734100 L 717.695000 163.518100 L 720.726000 167.410100 L 723.657000 171.378100 L 726.558000 175.368100 L 729.577000 179.269100 L 732.411000 183.298100 L 734.886000 187.561100 L 737.143000 191.948100 L 739.248000 196.408100 L 740.966000 201.016100 L 741.889000 205.848100 L 741.974000 210.777100 L 741.532000 215.690100 L 740.643000 220.543100 L 738.653000 225.054100 L 736.085000 229.261100 L 733.105000 233.188100 L 729.908000 236.944100 L 726.504000 240.512100 L 722.949000 243.931100 L 719.251000 247.194100 L 715.395000 250.269100 L 711.419000 253.190100 L 707.374000 256.013100 L 703.278000 258.763100 L 699.173000 261.500100 L 695.067000 264.235100 L 690.959000 266.966100" fill="none" id="21" stroke="#fdb968" stroke-width="0.5" /><path d="M 633.084000 90.049100 L 635.059000 91.080100 L 637.032000 92.115100 L 639.001000 93.156100 L 640.964000 94.209100 L 642.924000 95.269100 L 644.878000 96.337100 L 646.816000 97.435100 L 648.743000 98.554100 L 650.634000 99.731100 L 652.513000 100.928100 L 654.380000 102.143100 L 656.223000 103.394100 L 658.047000 104.672100 L 659.842000 105.992100 L 661.594000 107.367100 L 663.331000 108.762100 L 665.049000 110.180100 L 666.767000 111.598100 L 668.485000 113.016100 L 670.203000 114.435100 L 671.921000 115.853100 L 673.639000 117.271100 L 675.330000 118.721100 L 676.985000 120.211100 L 678.567000 121.779100 L 680.130000 123.366100 L 681.674000 124.972100 L 683.147000 126.643100 L 684.591000 128.339100 L 686.014000 130.053100" fill="none" id="22" stroke="#fdb968" stroke-width="0.5" /><path d="M 652.974000 110.140100 L 653.107000 109.435100 L 653.246000 108.731100 L 653.406000 108.032100 L 653.583000 107.337100 L 653.781000 106.648100 L 654.002000 105.966100 L 654.235000 105.287100 L 654.521000 104.630100 L 654.816000 103.976100 L 655.125000 103.329100 L 655.523000 102.752100 L 656.081000 102.301100 L 656.675000 101.902100 L 657.290000 101.534100 L 657.948000 101.250100 L 658.617000 101.046100 L 659.313000 101.221100 L 659.995000 101.436100 L 660.656000 101.715100 L 661.301000 102.027100 L 661.937000 102.359100 L 662.443000 102.860100 L 662.927000 103.389100 L 663.383000 103.943100 L 663.837000 104.498100 L 664.288000 105.056100 L 664.703000 105.640100 L 665.088000 106.245100 L 665.793000 107.494100" fill="none" id="23" stroke="#6f73bc" stroke-width="0.5" /><path d="M 732.281000 181.927100 L 731.868000 180.938100 L 731.447000 179.953100 L 731.006000 178.976100 L 730.541000 178.010100 L 730.057000 177.054100 L 729.554000 176.108100 L 729.045000 175.165100 L 728.510000 174.236100 L 727.932000 173.336100 L 727.271000 172.492100 L 726.599000 171.657100 L 725.921000 170.828100 L 725.108000 170.132100 L 724.250000 169.503100 L 723.239000 169.149100 L 722.197000 168.979100 L 721.125000 168.991100 L 720.111000 169.298100 L 719.148000 169.741100 L 718.415000 170.523100 L 717.698000 171.319100 L 717.007000 172.139100 L 716.372000 173.001100 L 715.766000 173.885100 L 715.199000 174.794100 L 714.642000 175.710100 L 714.112000 176.641100 L 713.595000 177.580100 L 713.092000 178.526100 L 712.605000 179.481100 L 712.124000 180.439100" fill="none" id="24" stroke="#bee481" stroke-width="0.5" /><path d="M 319.620000 166.100100 L 320.942000 166.828100 L 322.265000 167.556100 L 323.586000 168.286100 L 324.906000 169.017100 L 326.227000 169.748100 L 327.547000 170.479100 L 328.864000 171.217100 L 330.178000 171.959100 L 331.487000 172.710100 L 332.789000 173.474100 L 334.087000 174.244100 L 335.377000 175.028100 L 336.665000 175.814100 L 337.948000 176.609100 L 339.232000 177.404100 L 340.504000 178.215100 L 341.777000 179.027100 L 343.035000 179.861100 L 344.291000 180.698100 L 345.540000 181.544100 L 346.788000 182.394100 L 348.032000 183.249100 L 349.273000 184.107100 L 350.505000 184.979100 L 351.724000 185.869100 L 352.937000 186.767100 L 354.136000 187.684100 L 355.333000 188.603100 L 356.516000 189.541100 L 357.699000 190.478100" fill="none" id="25" stroke="#8f6aaf" stroke-width="0.5" /><path d="M 327.715000 169.242100 L 329.803000 170.227100 L 331.872000 171.252100 L 333.920000 172.319100 L 335.912000 173.487100 L 337.869000 174.711100 L 339.792000 175.989100 L 341.693000 177.299100 L 343.593000 178.612100 L 345.491000 179.928100 L 347.388000 181.244100 L 349.277000 182.572100 L 351.158000 183.912100 L 352.984000 185.325100 L 354.767000 186.791100 L 356.505000 188.312100 L 358.068000 190.011100 L 359.527000 191.796100 L 360.885000 193.664100 L 362.199000 195.563100 L 363.553000 197.432100 L 364.946000 199.274100 L 366.364000 201.097100 L 367.783000 202.918100 L 369.204000 204.738100 L 370.625000 206.559100 L 372.046000 208.379100 L 373.467000 210.199100 L 374.888000 212.019100 L 376.309000 213.839100 L 377.730000 215.659100" fill="none" id="26" stroke="#8f6aaf" stroke-width="0.5" /><path d="M 347.557000 178.903100 L 350.865000 182.468100 L 354.064000 186.130100 L 357.070000 189.953100 L 360.008000 193.828100 L 362.963000 197.689100 L 366.041000 201.454100 L 369.192000 205.158100 L 372.455000 208.762100 L 375.801000 212.291100 L 379.166000 215.802100 L 382.504000 219.339100 L 385.765000 222.945100 L 388.982000 226.592100 L 392.194000 230.243100 L 395.436000 233.867100 L 398.704000 237.469100 L 402.082000 240.963100 L 405.579000 244.342100 L 409.076000 247.721100 L 412.676000 250.985100 L 416.390000 254.123100 L 419.995000 257.386100 L 423.554000 260.700100 L 427.177000 263.939100 L 431.011000 266.929100 L 434.942000 269.793100 L 438.925000 272.573100 L 443.198000 274.894100 L 447.596000 276.967100 L 452.089000 278.826100 L 456.635000 280.553100 L 461.226000 282.155100" fill="none" id="27" stroke="#8f6aaf" stroke-width="0.5" /><path d="M 425.447000 259.738100 L 427.571000 264.230100 L 430.378000 268.331100 L 433.863000 271.869100 L 438.217000 274.265100 L 442.785000 276.222100 L 447.476000 277.862100 L 452.232000 279.305100 L 456.988000 280.744100 L 461.786000 282.040100 L 466.608000 283.240100 L 471.473000 284.254100 L 476.348000 285.223100 L 481.248000 286.050100 L 486.178000 286.671100 L 491.109000 287.292100 L 496.041000 287.902100 L 500.991000 288.340100 L 505.957000 288.534100 L 510.924000 288.684100 L 515.894000 288.685100 L 520.864000 288.672100 L 525.833000 288.658100 L 530.801000 288.511100 L 535.755000 288.122100 L 540.707000 287.708100 L 545.643000 287.131100 L 550.555000 286.375100 L 555.465000 285.609100 L 560.353000 284.711100 L 565.221000 283.712100 L 570.089000 282.712100 L 574.936000 281.615100 L 579.768000 280.453100 L 584.600000 279.291100 L 589.432000 278.130100 L 594.256000 276.937100 L 599.044000 275.604100 L 603.809000 274.195100" fill="none" id="28" stroke="#8f6aaf" stroke-width="0.5" /><path d="M 68.344500 64.124000 L 68.060000 62.778600 L 67.775600 61.433100 L 67.710800 60.059500 L 67.653400 58.686200 L 67.870900 57.328400 L 68.102200 55.974400 L 68.635700 54.707000 L 69.178300 53.444200 L 69.907100 52.278000 L 70.642900 51.117000 L 71.543200 50.077600 L 72.446500 49.040800 L 73.429200 48.078900 L 74.412800 47.117800 L 75.422100 46.183700 L 76.432100 45.250600 L 77.471400 44.350000 L 78.512700 43.452000 L 79.633600 42.655300 L 80.755500 41.860100 L 81.927900 41.141400 L 83.101400 40.424600 L 84.354600 39.858300 L 85.608400 39.293700 L 86.916000 38.868100 L 88.224000 38.443500 L 89.559900 38.117200 L 90.895900 37.791400 L 92.250100 37.552200 L 93.604300 37.313000" fill="none" id="29" stroke="#8bb658" stroke-width="0.5" /><path d="M 87.194900 36.684300 L 86.490200 36.971300 L 85.785500 37.258200 L 85.095800 37.579600 L 84.406200 37.900900 L 83.733300 38.256000 L 83.060400 38.611200 L 82.425800 39.031000 L 81.791200 39.450800 L 81.209100 39.940800 L 80.627700 40.431500 L 80.107100 40.986400 L 79.587100 41.541800 L 79.152400 42.166200 L 78.717700 42.790600 L 78.292200 43.421500 L 77.866900 44.052300 L 77.450900 44.689400 L 77.035200 45.326700 L 76.673300 45.996000 L 76.311500 46.665300 L 75.989700 47.354800 L 75.668000 48.044300 L 75.387000 48.751400 L 75.106100 49.458500 L 74.865700 50.180400 L 74.625300 50.902300 L 74.387800 51.625100 L 74.150300 52.348000 L 73.924600 53.074600 L 73.698800 53.801200" fill="none" id="30" stroke="#8bb658" stroke-width="0.5" /><path d="M 581.667000 199.549100 L 579.093000 199.718100 L 576.516000 199.721100 L 573.948000 199.534100 L 571.407000 199.088100 L 568.942000 198.335100 L 566.575000 197.332100 L 564.338000 196.062100 L 562.353000 194.416100 L 560.621000 192.512100 L 559.101000 190.438100 L 557.808000 188.209100 L 556.943000 185.779100 L 556.438000 183.260100 L 556.241000 180.698100 L 556.345000 178.120100 L 556.889000 175.598100 L 557.699000 173.158100 L 558.780000 170.826100 L 560.178000 168.658100 L 561.986000 166.824100 L 564.009000 165.245100 L 566.211000 163.909100 L 568.564000 162.851100 L 571.042000 162.155100 L 573.576000 161.708100 L 576.145000 161.493100 L 578.722000 161.602100 L 581.266000 161.992100 L 583.772000 162.589100 L 586.234000 163.360100" fill="none" id="31" stroke="#bbabff" stroke-width="0.5" /><path d="M 592.785000 194.494100 L 588.147000 196.342100 L 583.372000 197.738100 L 578.476000 198.678100 L 573.487000 198.875100 L 568.539000 198.394100 L 563.766000 197.159100 L 559.428000 194.687100 L 556.269000 190.906100 L 554.014000 186.545100 L 552.796000 181.703100 L 553.145000 176.728100 L 554.843000 172.206100 L 557.751000 168.175100 L 561.639000 165.043100 L 566.090000 162.924100 L 570.871000 161.760100 L 575.857000 162.032100 L 580.787000 162.790100 L 585.606000 164.005100 L 590.267000 165.796100 L 593.927000 169.175100 L 596.987000 173.062100 L 599.310000 177.410100 L 599.355000 182.403100 L 598.263000 187.214100 L 596.161000 191.622100 L 592.546000 195.066100 L 588.145000 197.331100 L 583.571000 199.333100 L 578.989000 201.315100 L 574.032000 201.731100 L 569.072000 201.518100 L 564.153000 200.705100 L 559.548000 198.774100 L 555.519000 195.949100 L 551.935000 192.481100 L 548.717000 188.664100 L 547.558000 183.984100 L 547.834000 179.110100 L 549.561000 174.425100 L 553.278000 171.157100 L 557.220000 168.095100 L 561.285000 165.223100 L 566.094000 163.884100 L 571.016000 163.276100 L 575.984000 163.348100 L 580.854000 164.451100 L 585.547000 166.121100 L 589.943000 168.381100 L 593.806000 171.544100 L 595.321000 176.207100 L 595.448000 181.070100 L 594.248000 185.863100 L 590.949000 189.611100 L 586.999000 192.573100 L 582.706000 195.121100 L 578.412000 197.669100 L 573.618000 198.771100 L 568.690000 198.881100 L 563.808000 197.834100 L 559.549000 195.276100 L 556.145000 191.809100 L 553.691000 187.478100 L 552.581000 182.610100 L 552.504000 177.684100 L 553.468000 172.860100 L 556.025000 168.571100 L 560.018000 165.804100 L 564.620000 164.571100 L 569.550000 165.360100 L 574.129000 167.326100 L 578.479000 169.738100 L 582.578000 172.577100 L 586.000000 176.213100 L 589.083000 180.126100 L 591.550000 184.362100 L 592.136000 189.320100 L 590.486000 193.846100 L 587.488000 197.660100 L 583.266000 200.325100 L 578.380000 201.215100 L 573.417000 201.581100 L 568.432000 201.465100 L 563.580000 200.289100 L 559.085000 198.244100 L 554.953000 195.483100 L 551.424000 191.951100 L 548.852000 187.726100 L 547.162000 183.107100 L 546.673000 178.138100 L 548.007000 173.370100 L 550.101000 168.885100 L 552.862000 164.731100 L 556.702000 161.539100 L 561.188000 159.811100 L 566.137000 159.275100 L 571.114000 159.669100 L 575.658000 161.518100 L 579.900000 164.124100 L 583.824000 167.211100 L 587.531000 170.552100 L 590.524000 174.429100 L 592.616000 178.963100 L 592.347000 183.948100 L 591.066000 188.693100 L 588.681000 192.945100 L 584.503000 195.677100 L 580.160000 198.133100 L 575.591000 199.951100 L 570.631000 200.523100 L 565.674000 200.090100 L 561.016000 198.629100 L 556.754000 196.029100 L 553.856000 191.964100 L 551.952000 187.444100 L 551.083000 182.591100 L 552.251000 177.737100 L 554.327000 173.240100 L 557.068000 169.110100 L 560.596000 165.577100 L 565.173000 163.808100 L 570.043000 162.994100 L 575.036000 163.073100 L 579.941000 163.989100 L 584.713000 165.386100 L 589.309000 167.300100 L 593.308000 170.288100 L 596.693000 173.900100 L 599.054000 178.102100 L 599.227000 183.092100 L 597.050000 187.424100 L 593.830000 191.142100 L 589.807000 194.099100 L 585.021000 195.449100 L 580.187000 196.698100 L 575.346000 197.867100 L 570.370000 197.468100 L 565.755000 195.844100 L 561.545000 193.239100 L 558.206000 189.528100 L 556.540000 184.948100 L 555.551000 180.057100 L 554.841000 175.115100 L 556.019000 170.317100 L 558.494000 166.203100 L 562.267000 162.940100 L 567.132000 161.817100 L 572.020000 161.965100 L 576.905000 162.983100 L 581.701000 164.369100 L 586.185000 166.511100 L 590.416000 169.133100 L 594.309000 172.259100 L 597.449000 176.114100 L 598.919000 180.550100 L 598.386000 185.465100 L 595.030000 189.162100 L 591.128000 192.197100 L 586.752000 194.504100 L 581.846000 195.426100 L 576.904000 196.127100 L 571.950000 196.389100 L 566.993000 195.786100 L 562.941000 193.012100 L 559.761000 189.319100 L 557.603000 184.830100 L 557.341000 179.845100 L 557.590000 174.877100 L 558.397000 169.976100 L 560.450000 165.425100 L 563.932000 161.979100 L 568.180000 159.520100 L 572.943000 158.022100" fill="none" id="32" stroke="#bbabff" stroke-width="0.5" /><path d="M 556.407000 167.777100 L 554.176000 169.691100 L 552.250000 171.903100 L 550.688000 174.379100 L 549.728000 177.116100 L 549.462000 180.020100 L 549.846000 182.920100 L 551.000000 185.624100 L 552.738000 187.985100 L 554.715000 190.155100 L 556.841000 192.182100 L 559.162000 193.958100 L 561.777000 195.274100 L 564.638000 195.948100 L 567.542000 196.398100 L 570.471000 196.580100 L 573.410000 196.593100 L 576.344000 196.467100 L 579.271000 196.194100 L 582.194000 195.887100 L 585.072000 195.295100 L 587.816000 194.273100 L 590.314000 192.767100 L 592.460000 190.789100 L 594.115000 188.392100 L 595.003000 185.590100 L 595.540000 182.700100 L 594.884000 179.902100 L 593.558000 177.299100 L 591.892000 174.883100 L 590.024000 172.617100 L 587.967000 170.518100" fill="none" id="33" stroke="#bbabff" stroke-width="0.5" /><path d="M 562.486000 212.352100 L 560.461000 211.927100 L 558.473000 211.380100 L 556.561000 210.589100 L 554.802000 209.522100 L 553.121000 208.316100 L 551.872000 206.667100 L 550.762000 204.934100 L 549.917000 203.045100 L 549.375000 201.060100 L 548.982000 199.029100 L 549.001000 196.959100 L 549.154000 194.904100 L 549.554000 192.873100 L 550.229000 190.927100 L 551.038000 189.023100 L 552.198000 187.309100 L 553.453000 185.672100 L 554.881000 184.175100 L 556.483000 182.877100 L 558.171000 181.682100 L 560.092000 180.912100 L 562.056000 180.296100 L 564.096000 179.950100 L 566.154000 179.763100 L 568.220000 179.649100 L 570.287000 179.748100 L 572.345000 179.935100 L 574.383000 180.294100 L 576.394000 180.774100 L 578.392000 181.313100" fill="none" id="34" stroke="#658424" stroke-width="0.5" /><path d="M 588.502000 195.911100 L 587.094000 200.697100 L 584.290000 204.788100 L 580.299000 207.674100 L 575.634000 209.317100 L 570.711000 209.822100 L 565.742000 209.521100 L 561.002000 208.248100 L 556.810000 205.592100 L 553.317000 202.071100 L 551.144000 197.581100 L 551.378000 192.610100 L 552.586000 187.784100 L 555.396000 183.771100 L 559.323000 180.791100 L 563.914000 179.002100 L 568.830000 178.334100 L 573.803000 178.513100 L 578.715000 179.357100 L 583.513000 180.721100 L 588.110000 182.659100 L 591.085000 186.561100 L 592.240000 191.326100 L 591.352000 196.110100 L 588.683000 200.186100 L 584.967000 203.491100 L 580.812000 206.217100 L 576.249000 208.179100 L 571.369000 209.190100 L 566.386000 209.424100 L 561.469000 208.621100 L 557.130000 206.272100 L 553.770000 202.677100 L 551.568000 198.268100 L 550.847000 193.433100 L 551.735000 188.581100 L 553.969000 184.191100 L 557.630000 180.918100 L 562.494000 179.814100 L 567.430000 180.525100 L 572.196000 181.967100 L 576.812000 183.847100 L 581.118000 186.327100 L 585.148000 189.261100 L 588.250000 192.920100 L 589.276000 197.709100 L 588.271000 202.493100 L 585.007000 206.253100 L 580.690000 208.752100 L 576.155000 210.825100 L 571.315000 211.920100 L 566.367000 211.886100 L 561.625000 210.565100 L 557.542000 207.862100 L 554.498000 203.974100 L 552.694000 199.384100 L 552.588000 194.405100 L 553.968000 189.612100 L 556.943000 185.644100 L 560.902000 182.672100 L 565.623000 181.504100 L 570.580000 181.648100 L 575.451000 182.636100 L 580.157000 184.269100 L 584.684000 186.356100 L 588.939000 188.907100 L 591.866000 192.947100 L 592.432000 197.870100 L 590.673000 202.418100 L 587.409000 206.101100 L 583.203000 208.658100 L 578.465000 210.093100 L 573.531000 210.821100 L 568.569000 211.301100 L 563.594000 211.338100 L 558.758000 210.115100 L 555.310000 206.553100 L 552.934000 202.202100 L 552.614000 197.365100 L 553.132000 192.404100 L 554.495000 187.684100 L 557.308000 183.687100 L 561.281000 180.682100 L 565.614000 178.295100 L 570.565000 177.687100 L 575.541000 178.022100 L 580.251000 179.578100 L 584.887000 181.421100 L 588.920000 184.210100 L 590.908000 188.358100 L 590.238000 193.194100 L 587.700000 197.331100 L 583.590000 200.157100 L 579.415000 202.888100 L 574.576000 204.085100 L 569.614000 204.496100 L 564.653000 204.148100 L 559.876000 202.842100 L 555.630000 200.363100 L 552.237000 196.777100 L 549.890000 192.423100 L 548.742000 187.585100 L 548.673000 182.597100 L 551.082000 178.232100 L 554.520000 174.645100 L 559.069000 172.944100 L 563.999000 172.817100 L 568.862000 173.790100 L 573.548000 175.479100 L 578.084000 177.552100 L 582.436000 179.947100 L 586.116000 183.303100 L 587.647000 188.051100 L 587.411000 193.002100 L 584.905000 197.173100 L 581.061000 200.239100 L 576.550000 202.294100 L 571.781000 203.744100 L 566.899000 204.627100 L 561.942000 204.492100 L 557.117000 203.228100 L 552.374000 201.683100 L 549.122000 197.960100 L 547.386000 193.335100 L 547.927000 188.529100 L 550.357000 184.289100 L 554.040000 181.030100 L 558.460000 178.776100 L 563.238000 177.499100 L 568.200000 177.450100 L 573.037000 178.667100" fill="none" id="35" stroke="#658424" stroke-width="0.5" /><path d="M 553.951000 184.148100 L 552.654000 185.106100 L 551.377000 186.088100 L 550.215000 187.206100 L 549.119000 188.382100 L 548.177000 189.691100 L 547.328000 191.056100 L 546.598000 192.495100 L 545.997000 193.986100 L 545.501000 195.520100 L 545.313000 197.107100 L 545.278000 198.719100 L 545.648000 200.276100 L 546.118000 201.818100 L 546.934000 203.205100 L 547.781000 204.577100 L 548.731000 205.881100 L 549.724000 207.145100 L 550.933000 208.212100 L 552.168000 209.247100 L 553.467000 210.203100 L 554.809000 211.092100 L 556.213000 211.885100 L 557.664000 212.580100 L 559.159000 213.187100 L 560.691000 213.681100 L 562.245000 214.113100 L 563.820000 214.457100 L 565.401000 214.773100 L 566.998000 214.998100 L 568.596000 215.211100" fill="none" id="36" stroke="#658424" stroke-width="0.5" /><path d="M 558.358000 182.863100 L 559.637000 182.341100 L 560.916000 181.818100 L 562.223000 181.370100 L 563.530000 180.922100 L 564.865000 180.569100 L 566.201000 180.215100 L 567.562000 179.979100 L 568.924000 179.743100 L 570.299000 179.615100 L 571.675000 179.488100 L 573.019000 179.804100 L 574.363000 180.125100 L 575.702000 180.462100 L 577.042000 180.800100 L 578.300000 181.370100 L 579.555000 181.946100 L 580.657000 182.781100 L 581.757000 183.616100 L 582.744000 184.582100 L 583.731000 185.549100 L 584.600000 186.623100 L 585.470000 187.697100 L 586.191000 188.875100 L 586.911000 190.054100 L 587.463000 191.320100 L 588.015000 192.587100 L 588.431000 193.904100 L 588.846000 195.222100 L 589.147000 196.571100 L 589.447000 197.919100" fill="none" id="37" stroke="#658424" stroke-width="0.5" /><path d="M 123.620000 284.966100 L 118.732000 283.945100 L 113.844000 282.924100 L 108.956000 281.902100 L 104.068000 280.881100 L 99.227300 279.710100 L 94.633300 277.753100 L 90.039300 275.795100 L 85.445400 273.838100 L 80.851400 271.881100 L 76.462900 269.573100 L 72.511800 266.520100 L 68.560800 263.466100 L 64.609700 260.413100 L 60.658600 257.359100 L 57.116900 253.907100 L 54.172600 249.874100 L 51.228300 245.841100 L 48.284000 241.808100 L 45.339700 237.774100 L 42.493800 233.673100 L 39.766500 229.490100 L 37.039100 225.307100 L 34.311800 221.125100 L 31.584400 216.942100 L 29.102900 212.618100 L 26.892500 208.141100 L 24.682000 203.663100 L 22.471600 199.186100 L 20.261100 194.708100 L 18.450700 190.073100 L 17.015400 185.290100 L 15.580100 180.507100 L 14.144900 175.724100 L 12.709600 170.942100 L 11.905600 166.046100 L 11.603800 161.062100 L 11.302100 156.078100 L 11.000400 151.093100 L 10.698700 146.109100 L 10.844200 141.129100 L 11.247300 136.152100 L 11.650300 131.174100 L 12.053400 126.197100 L 12.456400 121.220100 L 14.194100 116.648100 L 16.629600 112.289100 L 19.065000 107.930100 L 21.500500 103.570100 L 23.936000 99.211100 L 28.046800 96.695100 L 32.617800 94.684100 L 37.188700 92.674100 L 41.759700 90.664100 L 46.330700 88.653100 L 51.168900 89.424100 L 56.039000 90.528100 L 60.909100 91.631100 L 65.779200 92.734100 L 70.649300 93.838100 L 74.646300 96.806100 L 78.612400 99.840100 L 82.578500 102.874100 L 86.544700 105.908100 L 90.500900 108.954100 L 94.226500 112.279100 L 97.952100 115.604100 L 101.678000 118.929100 L 105.403000 122.254100 L 109.080000 125.623100 L 112.028000 129.654100 L 114.976000 133.684100 L 117.924000 137.715100 L 120.872000 141.745100 L 123.736000 145.826100 L 125.969000 150.293100 L 128.201000 154.760100 L 130.433000 159.227100 L 132.666000 163.694100 L 134.798000 168.202100 L 136.364000 172.943100 L 137.929000 177.685100 L 139.495000 182.427100 L 141.061000 187.168100 L 142.439000 191.951100 L 142.995000 196.914100 L 143.551000 201.876100 L 144.107000 206.839100 L 144.663000 211.801100 L 145.085000 216.771100 L 145.102000 221.765100 L 145.119000 226.758100 L 145.136000 231.752100 L 145.153000 236.745100 L 144.808000 241.691100 L 143.487000 246.506100 L 142.167000 251.322100 L 140.846000 256.138100 L 139.526000 260.954100 L 137.191000 265.094100 L 133.255000 268.166100 L 129.318000 271.238100 L 125.382000 274.310100 L 121.445000 277.383100 L 116.946000 278.942100 L 111.959000 279.186100 L 106.971000 279.430100 L 101.984000 279.674100 L 96.996000 279.918100 L 92.592200 277.971100 L 88.387900 275.277100 L 84.183500 272.583100 L 79.979200 269.889100 L 75.774800 267.194100 L 71.919600 264.032100 L 68.135700 260.773100 L 64.351900 257.515100 L 60.568100 254.256100 L 56.784200 250.998100 L 53.789900 247.021100 L 50.902100 242.947100 L 48.014400 238.873100 L 45.126600 234.799100 L 42.238800 230.725100 L 40.049700 226.244100 L 37.925300 221.725100 L 35.800800 217.206100 L 33.676400 212.687100 L 31.551900 208.168100 L 29.436200 203.645100 L 27.321100 199.121100 L 25.206000 194.598100 L 23.091000 190.074100 L 20.975900 185.551100 L 19.730400 180.719100 L 18.520700 175.874100 L 17.311100 171.029100 L 16.101500 166.184100 L 14.891900 161.339100 L 14.523500 156.361100 L 14.170300 151.380100 L 13.817000 146.399100 L 13.463800 141.418100 L 13.123400 136.438100 L 14.278800 131.580100 L 15.434100 126.722100 L 16.589400 121.864100 L 17.744700 117.006100 L 18.943900 112.162100 L 20.842300 107.543100 L 22.740600 102.924100 L 24.639000 98.306100 L 26.537400 93.687100 L 28.812500 89.404100 L 33.179500 86.982100 L 37.546600 84.560700 L 41.913600 82.139100 L 46.280700 79.717500 L 50.806900 78.211200 L 55.735100 79.016300 L 60.663300 79.821500 L 65.591500 80.626700 L 70.519700 81.431800 L 75.103200 83.044200 L 79.093300 86.046700 L 83.083300 89.049100 L 87.073400 92.051100 L 91.063500 95.054100 L 94.980200 98.148100 L 98.781900 101.386100 L 102.584000 104.623100 L 106.385000 107.861100 L 110.187000 111.098100 L 113.624000 114.677100 L 116.600000 118.687100 L 119.577000 122.697100 L 122.553000 126.706100 L 125.529000 130.716100 L 128.260000 134.885100 L 130.714000 139.234100 L 133.169000 143.582100 L 135.623000 147.931100 L 138.078000 152.280100 L 140.278000 156.753100 L 142.220000 161.353100 L 144.163000 165.954100 L 146.105000 170.554100 L 148.047000 175.154100 L 149.453000 179.916100 L 150.368000 184.825100 L 151.282000 189.734100 L 152.196000 194.643100 L 153.110000 199.552100 L 153.952000 204.474100 L 154.733000 209.406100 L 155.514000 214.338100 L 156.296000 219.270100 L 157.077000 224.202100 L 156.618000 229.065100 L 155.290000 233.878100 L 153.963000 238.692100 L 152.635000 243.506100 L 151.307000 248.320100 L 148.534000 252.293100 L 145.005000 255.825100 L 141.475000 259.358100 L 137.946000 262.890100 L 134.417000 266.423100 L 129.695000 267.732100 L 124.800000 268.719100 L 119.905000 269.706100 L 115.010000 270.693100 L 110.116000 271.666100 L 105.469000 269.839100 L 100.821000 268.012100 L 96.174200 266.185100 L 91.526900 264.357100 L 86.960600 262.389100 L 83.029700 259.309100 L 79.098900 256.230100 L 75.168000 253.150100 L 71.237100 250.071100 L 67.341000 246.950100 L 63.667700 243.567100 L 59.994500 240.185100 L 56.321200 236.802100 L 52.647900 233.419100 L 49.118800 229.909100 L 46.211100 225.850100 L 43.303500 221.790100 L 40.395800 217.730100 L 37.488100 213.671100 L 34.753700 209.509100 L 32.615800 204.996100 L 30.477900 200.484100 L 28.340100 195.971100 L 26.202200 191.458100 L 24.326800 186.852100 L 23.147100 182.000100 L 21.967300 177.148100 L 20.787600 172.296100 L 19.607800 167.444100 L 18.476400 162.581100 L 17.459800 157.692100 L 16.443300 152.803100 L 15.426700 147.914100 L 14.410200 143.025100 L 14.000400 138.119100 L 14.740500 133.180100 L 15.480600 128.242100 L 16.220600 123.304100 L 16.960700 118.365100 L 18.276700 113.609100 L 20.516700 109.146100 L 22.756800 104.683100 L 24.996800 100.221100 L 27.236900 95.758100 L 30.226900 91.918100 L 34.206100 88.901100 L 38.185200 85.884700 L 42.164400 82.867800 L 46.143600 79.850900 L 50.725200 78.291500 L 55.673200 77.618400 L 60.621100 76.945300 L 65.569100 76.272100 L 70.517000 75.599000 L 75.221400 76.725000 L 79.812300 78.689500 L 84.403200 80.653900 L 88.994100 82.618400 L 93.585000 84.582900 L 97.719100 87.342100 L 101.728000 90.320100 L 105.737000 93.297100 L 109.745000 96.274100 L 113.754000 99.252100 L 117.506000 102.541100 L 121.197000 105.905100 L 124.887000 109.268100 L 128.578000 112.632100 L 132.268000 115.996100 L 135.311000 119.941100 L 138.255000 123.975100 L 141.198000 128.009100 L 144.142000 132.042100 L 147.085000 136.076100 L 149.473000 140.456100 L 151.798000 144.875100 L 154.124000 149.294100 L 156.450000 153.713100 L 158.776000 158.132100 L 160.182000 162.917100 L 161.529000 167.725100 L 162.877000 172.533100 L 164.225000 177.341100 L 165.560000 182.151100 L 165.561000 187.145100 L 165.562000 192.138100 L 165.563000 197.132100 L 165.564000 202.126100 L 165.547000 207.118100 L 164.941000 212.075100 L 164.336000 217.031100 L 163.730000 221.988100 L 163.124000 226.945100 L 162.170000 231.751100 L 158.991000 235.602100 L 155.812000 239.453100 L 152.634000 243.304100 L 149.455000 247.155100 L 145.954000 250.616100 L 141.562000 252.992100 L 137.171000 255.368100 L 132.779000 257.745100 L 128.387000 260.121100 L 123.753000 261.253100 L 118.790000 260.700100 L 113.827000 260.147100 L 108.864000 259.594100 L 103.901000 259.041100 L 99.145200 257.735100 L 94.595000 255.678100 L 90.044900 253.621100 L 85.494700 251.564100 L 80.944600 249.507100 L 76.742000 246.878100 L 72.821900 243.785100 L 68.901700 240.692100 L 64.981600 237.599100 L 61.061500 234.505100 L 57.433600 231.091100 L 53.981100 227.483100 L 50.528700 223.875100 L 47.076200 220.267100 L 43.623700 216.660100 L 40.424500 212.834100 L 37.363400 208.888100 L 34.302300 204.943100 L 31.241200 200.998100 L 28.180100 197.053100 L 25.828700 192.679100 L 23.768100 188.131100 L 21.707400 183.582100 L 19.646700 179.034100 L 17.586000 174.485100 L 16.352400 169.671100 L 15.378300 164.774100 L 14.404300 159.876100 L 13.430300 154.978100 L 12.456300 150.081100 L 12.708700 145.127100 L 13.230500 140.161100 L 13.752300 135.194100 L 14.274100 130.228100 L 14.795900 125.262100 L 16.812900 120.727100 L 19.017900 116.247100 L 21.222900 111.767100 L 23.427900 107.286100 L 25.632900 102.806100 L 29.067200 99.192100 L 32.544700 95.608100 L 36.022200 92.025100 L 39.499700 88.441100 L 43.029400 84.947600 L 47.866700 83.708400 L 52.704000 82.469200 L 57.541400 81.230000 L 62.378700 79.990800 L 67.240300 78.995100 L 72.227000 79.256300 L 77.213700 79.517500 L 82.200400 79.778600 L 87.187100 80.039800 L 91.955700 80.948600 L 96.085000 83.756600 L 100.214200 86.564500 L 104.343000 89.372100 L 108.473000 92.180100 L 112.234000 95.372100 L 115.207000 99.384100 L 118.181000 103.395100 L 121.155000 107.407100 L 124.128000 111.418100 L 127.009000 115.494100 L 129.734000 119.679100 L 132.458000 123.864100 L 135.183000 128.049100 L 137.907000 132.233100 L 140.383000 136.556100 L 142.479000 141.088100 L 144.575000 145.620100 L 146.671000 150.153100 L 148.767000 154.685100 L 150.527000 159.341100 L 151.867000 164.151100 L 153.206000 168.962100 L 154.546000 173.772100 L 155.885000 178.583100 L 156.683000 183.479100 L 156.889000 188.468100 L 157.095000 193.458100 L 157.302000 198.447100 L 157.508000 203.436100 L 157.308000 208.413100 L 156.791000 213.379100 L 156.275000 218.346100 L 155.758000 223.313100 L 155.241000 228.280100 L 153.779000 232.982100 L 151.644000 237.496100 L 149.508000 242.010100 L 147.372000 246.523100 L 145.237000 251.037100 L 141.552000 254.124100 L 137.229000 256.624100 L 132.906000 259.123100 L 128.583000 261.623100 L 124.260000 264.122100 L 119.418000 263.781100 L 114.490000 262.973100 L 109.562000 262.165100 L 104.634000 261.357100 L 99.793900 260.313100 L 95.520800 257.729100 L 91.247700 255.145100 L 86.974600 252.561100 L 82.701500 249.977100 L 78.539300 247.250100 L 74.950700 243.777100 L 71.362000 240.305100 L 67.773400 236.833100 L 64.184800 233.360100 L 60.677400 229.814100 L 57.530100 225.937100 L 54.382800 222.060100 L 51.235500 218.183100 L 48.088200 214.306100 L 45.105200 210.320100 L 42.755000 205.914100 L 40.404900 201.508100 L 38.054700 197.103100 L 35.704600 192.697100 L 33.368000 188.284100 L 31.075500 183.847100 L 28.783000 179.411100 L 26.490500 174.975100 L 24.198000 170.539100 L 22.174300 166.000100 L 20.930800 161.164100 L 19.687300 156.328100 L 18.443800 151.491100 L 17.200300 146.655100 L 16.331300 141.771100 L 16.304400 136.777100 L 16.277500 131.784100 L 16.250600 126.790100 L 16.223700 121.797100 L 16.935300 116.958100 L 18.969700 112.398100 L 21.004100 107.838100 L 23.038500 103.277100 L 25.072900 98.717100 L 27.698600 94.557100 L 31.175600 90.973100 L 34.652600 87.389100 L 38.129600 83.804700 L 41.606600 80.220600 L 45.771200 77.860600 L 50.641000 76.755800 L 55.510800 75.651100 L 60.380600 74.546300 L 65.250400 73.441600 L 70.057300 73.704300 L 74.805200 75.251100 L 79.553100 76.798000 L 84.301000 78.344900 L 89.049000 79.891700 L 93.288800 82.378000 L 97.182400 85.504500 L 101.076000 88.631100 L 104.970000 91.757100 L 108.863000 94.884100 L 112.449000 98.345100 L 115.890000 101.964100 L 119.331000 105.583100 L 122.772000 109.201100 L 126.213000 112.820100 L 129.379000 116.675100 L 132.428000 120.629100 L 135.477000 124.584100 L 138.526000 128.538100 L 141.575000 132.493100 L 144.077000 136.798100 L 146.402000 141.218100 L 148.726000 145.637100 L 151.051000 150.057100 L 153.375000 154.477100 L 155.223000 159.108100 L 156.942000 163.796100 L 158.661000 168.484100 L 160.380000 173.172100 L 162.100000 177.861100 L 163.162000 182.730100 L 164.082000 187.638100 L 165.003000 192.546100 L 165.923000 197.454100 L 166.844000 202.362100 L 166.532000 207.323100 L 166.039000 212.292100 L 165.545000 217.261100 L 165.052000 222.230100 L 164.423000 227.166100 L 162.576000 231.806100 L 160.729000 236.445100 L 158.883000 241.085100 L 157.036000 245.724100 L 154.710000 250.110100 L 151.914000 254.247100 L 149.118000 258.385100 L 146.322000 262.522100 L 143.526000 266.659100" fill="none" id="38" stroke="#c45372" stroke-width="0.5" /><path d="M 131.337000 277.502100 L 127.152000 276.952100 L 122.997000 276.216100 L 118.887000 275.263100 L 114.851000 274.028100 L 110.850000 272.686100 L 106.904000 271.191100 L 103.035000 269.508100 L 99.253400 267.636100 L 95.510000 265.687100 L 91.800900 263.675100 L 88.190000 261.493100 L 84.669800 259.165100 L 81.181800 256.789100 L 77.740500 254.348100 L 74.408800 251.759100 L 71.155400 249.071100 L 67.921300 246.359100 L 64.718600 243.611100 L 61.604600 240.764100 L 58.583700 237.817100 L 55.590300 234.842100 L 52.620600 231.843100 L 49.771300 228.731100 L 47.111800 225.456100 L 44.516300 222.128100 L 41.949100 218.778100 L 39.565200 215.297100 L 37.392900 211.679100 L 35.370700 207.975100 L 33.478300 204.203100" fill="none" id="39" stroke="#c45372" stroke-width="0.5" /><path d="M 104.187000 259.289100 L 100.107100 256.415100 L 96.027200 253.540100 L 91.947300 250.665100 L 87.867400 247.790100 L 83.914200 244.751100 L 80.102400 241.530100 L 76.290600 238.308100 L 72.478700 235.086100 L 68.666900 231.864100 L 65.212100 228.264100 L 61.776200 224.644100 L 58.340300 221.024100 L 54.904400 217.404100 L 51.684500 213.605100 L 48.760000 209.560100 L 45.835600 205.516100 L 42.911100 201.472100 L 39.986600 197.427100 L 37.628100 193.034100 L 35.336800 188.601100 L 33.045500 184.167100 L 30.754100 179.733100 L 28.730800 175.186100 L 27.176300 170.444100 L 25.621900 165.701100 L 24.067400 160.958100 L 22.513000 156.215100 L 22.038500 151.266100 L 21.728500 146.284100 L 21.418500 141.303100 L 21.108500 136.322100 L 21.099800 131.349100 L 21.693400 126.393100 L 22.287000 121.438100 L 22.880600 116.482100 L 23.474100 111.527100 L 25.713000 107.104100 L 28.136300 102.740100 L 30.559700 98.377100 L 32.983000 94.014100 L 36.252600 90.565100 L 40.790000 88.486100 L 45.327400 86.407600 L 49.864800 84.328700 L 54.402200 82.249800 L 59.390300 82.333100 L 64.380400 82.426200 L 69.370600 82.519300 L 74.360700 82.612400 L 79.086700 83.834600 L 83.600600 85.964100 L 88.114500 88.094100 L 92.628400 90.223100 L 97.101600 92.411100 L 100.669000 95.902100 L 104.236000 99.393100 L 107.803000 102.883100 L 111.370000 106.374100 L 114.891000 109.911100 L 118.369000 113.491100 L 121.846000 117.071100 L 125.323000 120.651100 L 128.801000 124.232100 L 131.475000 128.444100 L 134.136000 132.666100 L 136.798000 136.888100 L 139.460000 141.110100 L 141.885000 145.462100 L 144.028000 149.970100 L 146.170000 154.478100 L 148.313000 158.985100 L 150.455000 163.493100 L 152.077000 168.210100 L 153.655000 172.945100 L 155.233000 177.680100 L 156.812000 182.415100 L 158.035000 187.234100 L 158.747000 192.174100 L 159.458000 197.114100 L 160.170000 202.054100 L 160.882000 206.994100 L 161.237000 211.970100 L 161.541000 216.952100 L 161.844000 221.934100 L 162.148000 226.916100 L 161.852000 231.837100 L 160.562000 236.658100 L 159.272000 241.480100 L 157.982000 246.301100 L 156.692000 251.122100 L 153.516000 254.896100 L 150.102000 258.535100 L 146.687000 262.175100 L 143.272000 265.815100 L 139.170000 268.326100 L 134.368000 269.685100 L 129.565000 271.044100 L 124.763000 272.403100 L 119.965000 273.565100 L 115.224000 272.005100 L 110.483000 270.446100 L 105.741000 268.886100 L 101.000000 267.327100 L 96.664500 264.967100 L 92.600300 262.070100 L 88.536200 259.173100 L 84.472000 256.276100 L 80.419000 253.364100 L 76.528700 250.237100 L 72.638400 247.111100 L 68.748100 243.984100 L 64.857800 240.858100 L 61.315500 237.371100 L 58.058500 233.589100 L 54.801500 229.807100 L 51.544600 226.026100 L 48.297700 222.236100 L 45.530000 218.083100 L 42.762400 213.930100 L 39.994700 209.776100 L 37.227100 205.623100 L 34.741600 201.307100 L 32.542100 196.827100 L 30.342600 192.347100 L 28.143200 187.867100 L 25.943700 183.386100 L 24.443300 178.628100 L 22.966200 173.861100 L 21.489100 169.093100 L 20.012000 164.326100 L 18.826300 159.489100 L 17.981500 154.570100 L 17.136700 149.651100 L 16.291900 144.732100 L 15.447100 139.813100 L 15.332100 134.828100 L 15.275100 129.837100 L 15.218000 124.846100 L 15.160900 119.856100 L 15.919800 115.008100 L 17.677000 110.337100 L 19.434200 105.666100 L 21.191400 100.994100 L 22.948600 96.323100 L 26.733000 93.088100 L 30.558200 89.882100 L 34.383400 86.676200 L 38.208600 83.470300 L 42.583100 81.612600 L 47.559500 81.232400 L 52.536000 80.852100 L 57.512500 80.471900 L 62.489000 80.091700 L 67.147000 81.858500 L 71.798800 83.666900 L 76.450600 85.475400 L 81.102400 87.284100 L 85.388200 89.730100 L 89.297900 92.833100 L 93.207600 95.935100 L 97.117300 99.037100 L 101.027000 102.140100 L 104.701000 105.517100 L 108.365000 108.905100 L 112.030000 112.294100 L 115.694000 115.683100 L 118.916000 119.443100 L 121.616000 123.640100 L 124.317000 127.837100 L 127.017000 132.035100 L 129.717000 136.232100 L 131.760000 140.782100 L 133.760000 145.355100 L 135.760000 149.928100 L 137.760000 154.500100 L 139.530000 159.158100 L 140.971000 163.936100 L 142.412000 168.714100 L 143.854000 173.493100 L 145.295000 178.271100 L 146.101000 183.191100 L 146.823000 188.129100 L 147.545000 193.068100 L 148.267000 198.006100 L 148.776000 202.964100 L 148.924000 207.952100 L 149.072000 212.941100 L 149.220000 217.930100 L 149.368000 222.919100 L 148.659000 227.845100 L 147.783000 232.758100 L 146.906000 237.671100 L 146.030000 242.585100 L 144.207000 247.016100 L 140.747000 250.613100 L 137.287000 254.210100 L 133.827000 257.807100 L 130.363000 261.396100 L 125.392000 261.841100 L 120.421000 262.286100 L 115.450000 262.732100 L 110.479000 263.177100 L 105.808000 262.109100 L 101.383000 259.800100 L 96.958400 257.491100 L 92.533600 255.182100 L 88.128700 252.839100 L 83.978600 250.067100 L 79.828500 247.294100 L 75.678500 244.522100 L 71.528400 241.749100 L 67.777100 238.505100 L 64.355000 234.872100 L 60.932900 231.239100 L 57.510800 227.606100 L 54.096800 223.966100 L 51.157600 219.933100 L 48.218400 215.899100 L 45.279200 211.865100 L 42.340000 207.831100 L 39.767500 203.577100 L 37.576800 199.092100 L 35.386100 194.608100 L 33.195500 190.123100 L 31.004800 185.639100 L 29.609400 180.849100 L 28.236800 176.050100 L 26.864100 171.252100 L 25.491500 166.453100 L 24.321800 161.607100 L 23.412900 156.700100 L 22.504000 151.792100 L 21.595100 146.885100 L 20.686200 141.977100 L 21.423000 137.053100 L 22.230700 132.127100 L 23.038400 127.202100 L 23.846100 122.277100 L 25.269300 117.543100 L 27.400900 113.030100 L 29.532500 108.518100 L 31.664000 104.005100 L 33.795600 99.492100 L 37.218200 95.874100 L 40.698500 92.297100 L 44.178800 88.720100 L 47.659100 85.142400 L 51.786100 82.705100 L 56.642400 81.553500 L 61.498800 80.401800 L 66.355100 79.250200 L 71.211400 78.098500 L 76.189900 78.308700 L 81.173700 78.576800 L 86.157500 78.844900 L 91.141300 79.113000 L 95.865900 80.388000 L 100.360000 82.559300 L 104.854000 84.730700 L 109.348000 86.902000 L 113.822000 89.102100 L 117.470000 92.508100 L 121.118000 95.914100 L 124.767000 99.320100 L 128.415000 102.726100 L 131.999000 106.198100 L 135.522000 109.733100 L 139.044000 113.269100 L 142.567000 116.805100 L 146.089000 120.341100 L 148.802000 124.527100 L 151.493000 128.730100 L 154.184000 132.933100 L 156.876000 137.137100 L 159.145000 141.551100 L 160.890000 146.226100 L 162.636000 150.902100 L 164.381000 155.578100 L 166.127000 160.254100 L 167.261000 165.110100 L 168.339000 169.984100 L 169.416000 174.857100 L 170.493000 179.730100 L 171.176000 184.649100 L 171.228000 189.640100 L 171.280000 194.630100 L 171.332000 199.621100 L 171.384000 204.612100 L 171.241000 209.600100 L 171.063000 214.588100 L 170.885000 219.576100 L 170.708000 224.564100 L 169.857000 229.389100 L 167.744000 233.911100 L 165.631000 238.433100 L 163.519000 242.954100 L 161.406000 247.476100 L 157.603000 250.574100 L 153.506000 253.424100 L 149.408000 256.274100 L 145.311000 259.124100 L 140.896000 261.250100 L 136.024000 262.336100 L 131.153000 263.422100 L 126.282000 264.508100 L 121.410000 265.594100 L 116.723000 263.892100 L 112.035000 262.177100 L 107.348000 260.462100 L 102.661000 258.747100 L 98.314900 256.401100 L 94.310000 253.423100 L 90.305100 250.444100 L 86.300100 247.466100 L 82.295200 244.488100 L 78.672200 241.055100 L 75.052100 237.619100 L 71.432100 234.184100 L 67.812000 230.748100 L 64.341700 227.168100 L 61.048600 223.417100 L 57.755600 219.667100 L 54.462500 215.917100 L 51.169400 212.166100 L 48.513600 207.945100 L 45.898200 203.694100 L 43.282900 199.443100 L 40.667600 195.193100 L 38.362900 190.785100 L 36.488300 186.159100 L 34.613600 181.533100 L 32.739000 176.908100 L 30.864400 172.282100 L 29.798700 167.415100 L 28.823400 162.520100 L 27.848000 157.625100 L 26.872700 152.730100 L 26.472500 147.809100 L 26.992200 142.845100 L 27.511900 137.881100 L 28.031600 132.917100 L 28.551400 127.954100 L 29.571100 123.070100 L 30.641000 118.196100 L 31.710900 113.321100 L 32.780800 108.446100 L 34.704300 104.011100 L 38.054400 100.311100 L 41.404500 96.612100 L 44.754600 92.912100 L 48.104700 89.212100 L 52.745600 87.390100 L 57.399600 85.587900 L 62.053700 83.785200 L 66.707700 81.982500 L 71.529900 81.486400 L 76.488700 82.052100 L 81.447600 82.617700 L 86.406400 83.183400 L 91.332700 83.850600 L 95.696500 86.272800 L 100.060400 88.695100 L 104.424000 91.117100 L 108.788000 93.539100 L 113.079000 96.085100 L 117.312000 98.729100 L 121.545000 101.373100 L 125.778000 104.017100 L 129.992000 106.684100 L 133.357000 110.371100 L 136.721000 114.057100 L 140.086000 117.744100 L 143.450000 121.430100 L 146.433000 125.403100 L 149.032000 129.664100 L 151.632000 133.924100 L 154.231000 138.185100 L 156.830000 142.446100 L 158.638000 147.095100 L 160.418000 151.758100 L 162.199000 156.420100 L 163.979000 161.083100 L 165.469000 165.834100 L 166.581000 170.699100 L 167.692000 175.565100 L 168.804000 180.431100 L 169.916000 185.296100 L 170.331000 190.265100 L 170.670000 195.244100 L 171.010000 200.223100 L 171.350000 205.203100 L 171.304000 210.169100 L 170.630000 215.114100 L 169.956000 220.060100 L 169.282000 225.005100 L 168.609000 229.950100 L 167.576000 234.831100 L 166.478000 239.700100 L 165.380000 244.568100 L 164.282000 249.437100 L 162.379000 253.889100 L 159.040000 257.599100 L 155.700000 261.308100 L 152.360000 265.017100 L 149.021000 268.726100 L 144.401000 270.490100 L 139.674000 272.090100 L 134.946000 273.690100 L 130.219000 275.291100 L 125.468000 275.156100 L 120.699000 273.684100 L 115.930000 272.212100 L 111.161000 270.741100 L 106.429000 269.176100 L 101.982000 266.910100 L 97.535200 264.644100 L 93.088100 262.378100 L 88.641100 260.113100 L 84.505200 257.362100 L 80.591800 254.264100 L 76.678400 251.166100 L 72.765000 248.069100 L 68.875900 244.944100 L 65.335300 241.426100 L 61.794600 237.909100 L 58.254000 234.391100 L 54.713300 230.873100 L 51.378900 227.169100 L 48.226600 223.299100 L 45.074300 219.430100 L 41.922000 215.560100 L 38.769700 211.691100" fill="none" id="40" stroke="#c45372" stroke-width="0.5" /><path d="M 0.250000 148.053100 L 0.839063 143.162100 L 1.599330 138.295100 L 2.571040 133.466100 L 3.791400 128.694100 L 5.296440 124.004100 L 7.083970 119.415100 L 9.107390 114.925100 L 11.442800 110.591100 L 14.099000 106.446100 L 17.017500 102.480100 L 20.078600 98.621100 L 23.391400 94.983100 L 27.006800 91.643100 L 30.895400 88.629100 L 35.074900 86.036300 L 39.528400 83.954700 L 44.221100 82.505000 L 49.074600 81.694100 L 53.982100 81.276800 L 58.901200 81.166400 L 63.808000 81.562200 L 68.659600 82.396200 L 73.417000 83.668200 L 78.067300 85.290300 L 82.597000 87.225100 L 86.993400 89.447100 L 91.232200 91.957100 L 95.320900 94.705100 L 99.255100 97.669100 L 103.024000 100.840100 L 106.676000 104.147100 L 110.274000 107.511100 L 113.774000 110.977100 L 117.198000 114.519100 L 120.575000 118.106100 L 123.897000 121.744100 L 127.101000 125.484100 L 130.142000 129.358100 L 133.035000 133.345100 L 135.854000 137.385100 L 138.619000 141.462100 L 141.271000 145.612100 L 143.755000 149.865100 L 146.075000 154.211100 L 148.309000 158.601100 L 150.493000 163.016100 L 152.526000 167.503100 L 154.388000 172.063100 L 156.189000 176.648100 L 157.813000 181.298100 L 159.148000 186.040100 L 160.391000 190.807100 L 161.510000 195.604100" fill="none" id="41" stroke="#c45372" stroke-width="0.5" /><path d="M 124.554000 274.124100 L 126.042000 273.736100 L 127.529000 273.347100 L 128.999000 272.895100 L 130.469000 272.442100 L 131.909000 271.903100 L 133.348000 271.363100 L 134.757000 270.746100 L 136.165000 270.129100 L 137.542000 269.444100 L 138.919000 268.759100 L 140.266000 268.017100 L 141.613000 267.275100 L 142.921000 266.467100 L 144.229000 265.658100 L 145.523000 264.828100 L 146.818000 263.998100 L 148.112000 263.168100 L 149.407000 262.339100 L 150.702000 261.509100 L 151.996000 260.679100 L 153.291000 259.849100 L 154.585000 259.019100 L 155.855000 258.152100 L 157.125000 257.285100 L 158.379000 256.394100 L 159.632000 255.504100 L 160.878000 254.602100 L 162.123000 253.699100 L 163.360000 252.786100 L 164.596000 251.872100" fill="none" id="42" stroke="#c45372" stroke-width="0.5" /><path d="M 12.974400 150.604100 L 12.919500 155.548100 L 13.259300 160.479100 L 14.099500 165.349100 L 15.434300 170.109100 L 16.937300 174.819100 L 18.630300 179.463100 L 20.549300 184.020100 L 22.512500 188.558100 L 24.475600 193.096100 L 26.438800 197.634100 L 28.417600 202.165100 L 30.458600 206.668100 L 32.585200 211.131100 L 34.809000 215.547100 L 37.148800 219.902100 L 39.635000 224.175100 L 42.306900 228.334100 L 45.084900 232.424100 L 47.952400 236.451100 L 51.014400 240.331100 L 54.229700 244.086100 L 57.479000 247.813100 L 60.769100 251.504100 L 64.236600 255.026100 L 67.867100 258.382100 L 71.574200 261.653100 L 75.483800 264.678100 L 79.501300 267.559100 L 83.533000 270.422100 L 87.588600 273.250100" fill="none" id="43" stroke="#c45372" stroke-width="0.5" /><path d="M 128.754000 272.896100 L 130.015000 272.614100 L 131.277000 272.333100 L 132.532000 272.024100 L 133.787000 271.716100 L 135.037000 271.386100 L 136.286000 271.055100 L 137.518000 270.663100 L 138.749000 270.271100 L 139.970000 269.847100 L 141.191000 269.423100 L 142.406000 268.983100 L 143.621000 268.544100 L 144.828000 268.080100 L 146.034000 267.617100 L 147.231000 267.129100 L 148.428000 266.641100 L 149.616000 266.131100 L 150.804000 265.622100 L 151.985000 265.099100 L 153.167000 264.575100 L 154.341000 264.035100 L 155.516000 263.496100 L 156.679000 262.933100 L 157.842000 262.370100 L 158.995000 261.786100 L 160.148000 261.202100 L 161.295000 260.606100 L 162.441000 260.009100 L 163.582000 259.401100 L 164.722000 258.793100" fill="none" id="44" stroke="#c45372" stroke-width="0.5" /><path d="M 174.801000 213.085100 L 174.798000 215.019100 L 174.767000 216.953100 L 174.642000 218.883100 L 174.434000 220.805100 L 174.135000 222.716100 L 173.738000 224.608100 L 173.301000 226.493100 L 172.828000 228.369100 L 172.346000 230.242100 L 171.835000 232.108100 L 171.300000 233.967100 L 170.730000 235.816100 L 170.126000 237.653100 L 169.503000 239.485100 L 168.862000 241.310100 L 168.218000 243.135100 L 167.567000 244.956100 L 166.887000 246.767100 L 166.153000 248.557100 L 165.340000 250.311100 L 164.474000 252.041100 L 163.553000 253.742100 L 162.614000 255.433100 L 161.558000 257.054100 L 160.458000 258.643100 L 159.251000 260.155100 L 157.983000 261.614100 L 156.659000 263.024100 L 155.268000 264.368100 L 153.856000 265.691100" fill="none" id="45" stroke="#c45372" stroke-width="0.5" /><path d="M 418.896000 150.132100 L 418.440000 149.888100 L 417.984000 149.645100 L 417.529000 149.402100 L 417.073000 149.159100 L 416.617000 148.915100 L 416.162000 148.672100 L 415.706000 148.429100 L 415.251000 148.185100 L 414.795000 147.942100 L 414.339000 147.699100 L 413.884000 147.455100 L 413.428000 147.212100 L 412.972000 146.969100 L 412.517000 146.725100 L 412.061000 146.482100 L 411.605000 146.239100 L 411.150000 145.996100 L 410.694000 145.752100 L 410.238000 145.509100 L 409.783000 145.266100 L 409.327000 145.022100 L 408.872000 144.779100 L 408.416000 144.536100 L 407.960000 144.292100 L 407.505000 144.049100 L 407.049000 143.806100 L 406.593000 143.563100 L 406.138000 143.319100 L 405.682000 143.076100 L 405.226000 142.833100" fill="none" id="46" stroke="#008c6f" stroke-width="0.5" /><path d="M 358.581000 91.856100 L 356.864000 87.161100 L 355.147000 82.465300 L 353.430000 77.769700 L 351.713000 73.074200 L 350.696000 68.226300 L 350.307000 63.241900 L 349.917000 58.257600 L 349.527000 53.273300 L 349.233000 48.297500 L 350.496000 43.460200 L 351.759000 38.622900 L 353.023000 33.785600 L 354.286000 28.948300 L 356.973000 24.902100 L 360.414000 21.274900 L 363.855000 17.647700 L 367.295000 14.020500 L 371.243000 11.335100 L 376.166000 10.463800 L 381.089000 9.592400 L 386.012000 8.721100 L 390.935000 7.849800 L 395.452000 9.907400 L 399.953000 12.084600 L 404.453000 14.261800 L 408.954000 16.438900 L 413.279000 18.924800 L 417.447000 21.685900 L 421.615000 24.446900 L 425.783000 27.207900 L 429.848000 30.083300 L 433.022000 33.946100 L 436.196000 37.808900 L 439.370000 41.671700 L 442.544000 45.534500 L 445.025000 49.828900 L 447.093000 54.380800 L 449.161000 58.932600 L 451.229000 63.484500 L 453.180000 68.078400 L 454.499000 72.900800 L 455.819000 77.723200 L 457.138000 82.545500 L 458.457000 87.368100 L 459.394000 92.273100 L 460.177000 97.210100 L 460.961000 102.148100 L 461.745000 107.086100 L 462.291000 112.037100 L 462.074000 117.032100 L 461.857000 122.027100 L 461.640000 127.022100 L 461.423000 132.017100 L 458.760000 136.066100 L 455.562000 139.909100 L 452.364000 143.752100 L 449.165000 147.594100 L 445.201000 150.233100 L 440.365000 151.501100 L 435.529000 152.768100 L 430.693000 154.036100 L 425.883000 154.821100 L 421.214000 153.033100 L 416.545000 151.245100 L 411.876000 149.457100 L 407.207000 147.670100 L 402.733000 145.454100 L 398.319000 143.105100 L 393.906000 140.756100 L 389.492000 138.407100 L 385.332000 135.718100 L 381.806000 132.174100 L 378.279000 128.630100 L 374.753000 125.085100 L 371.227000 121.541100 L 368.263000 117.530100 L 365.423000 113.415100 L 362.584000 109.300100 L 359.744000 105.185100 L 357.113000 100.945100 L 354.813000 96.506100 L 352.513000 92.067100 L 350.212000 87.628100 L 347.912000 83.189100 L 346.176000 78.504600 L 344.497000 73.795500 L 342.817000 69.086500 L 341.138000 64.377400 L 340.588000 59.537500 L 341.146000 54.569100 L 341.704000 49.600800 L 342.262000 44.632500 L 343.033000 39.751600 L 346.124000 35.821700 L 349.214000 31.891800 L 352.305000 27.961800 L 355.395000 24.031900 L 359.498000 21.376800 L 364.026000 19.256700 L 368.554000 17.136700 L 373.081000 15.016600 L 377.750000 13.998700 L 382.664000 14.915600 L 387.579000 15.832500 L 392.494000 16.749500 L 397.409000 17.666400 L 401.553000 20.418300 L 405.648000 23.285700 L 409.744000 26.153100 L 413.839000 29.020500 L 417.680000 32.199200 L 421.303000 35.644900 L 424.925000 39.090700 L 428.548000 42.536500 L 432.148000 46.003100 L 435.410000 49.792300 L 438.671000 53.581600 L 441.933000 57.370800 L 445.194000 61.160000 L 447.809000 65.380700 L 450.057000 69.846400 L 452.305000 74.312000 L 454.553000 78.777700 L 456.585000 83.315900 L 457.483000 88.234100 L 458.382000 93.152100 L 459.280000 98.070100 L 460.179000 102.989100 L 460.957000 107.927100 L 461.683000 112.873100 L 462.410000 117.819100 L 463.137000 122.766100 L 463.321000 127.661100 L 461.679000 132.383100 L 460.037000 137.106100 L 458.395000 141.828100 L 456.753000 146.550100 L 453.215000 149.873100 L 449.188000 152.835100 L 445.160000 155.797100 L 441.132000 158.759100 L 436.765000 160.756100 L 431.770000 160.963100 L 426.775000 161.169100 L 421.780000 161.376100 L 416.784000 161.582100 L 412.032000 160.110100 L 407.299000 158.497100 L 402.567000 156.884100 L 397.835000 155.271100 L 393.622000 152.791100 L 389.965000 149.382100 L 386.309000 145.972100 L 382.652000 142.563100 L 378.999000 139.149100 L 375.466000 135.612100 L 371.932000 132.075100 L 368.399000 128.538100 L 364.866000 125.001100 L 361.596000 121.232100 L 358.537000 117.277100 L 355.479000 113.322100 L 352.421000 109.367100 L 349.489000 105.335100 L 347.409000 100.789100 L 345.328000 96.243100 L 343.248000 91.697100 L 341.167000 87.151100 L 339.949000 82.342600 L 339.147000 77.407900 L 338.344000 72.473100 L 337.542000 67.538300 L 337.124000 62.609400 L 338.077000 57.701400 L 339.029000 52.793300 L 339.981000 47.885300 L 340.933000 42.977200 L 343.765000 38.996100 L 347.079000 35.252300 L 350.392000 31.508400 L 353.706000 27.764600 L 357.357000 24.419400 L 361.594000 21.764800 L 365.830000 19.110200 L 370.067000 16.455500 L 374.304000 13.800900 L 379.297000 13.554600 L 384.290000 13.309200 L 389.284000 13.063900 L 394.277000 12.818600 L 399.098000 13.703900 L 403.790000 15.431100 L 408.481000 17.158300 L 413.173000 18.885600 L 417.735000 20.835000 L 421.539000 24.078800 L 425.344000 27.322600 L 429.148000 30.566500 L 432.952000 33.810300 L 436.099000 37.652500 L 438.968000 41.746900 L 441.837000 45.841300 L 444.706000 49.935700 L 447.380000 54.142600 L 449.482000 58.678600 L 451.584000 63.214700 L 453.687000 67.750800 L 455.789000 72.286900 L 457.059000 77.105400 L 458.153000 81.983800 L 459.247000 86.862300 L 460.341000 91.741100 L 461.435000 96.619100 L 462.529000 101.497100 L 463.622000 106.376100 L 464.716000 111.254100 L 465.810000 116.133100 L 465.465000 121.089100 L 464.905000 126.057100 L 464.345000 131.026100 L 463.785000 135.994100 L 462.268000 140.618100 L 459.538000 144.806100 L 456.807000 148.994100 L 454.076000 153.181100 L 451.246000 157.254100 L 446.691000 159.315100 L 442.136000 161.376100 L 437.581000 163.437100 L 433.026000 165.498100 L 428.215000 166.332100 L 423.216000 166.264100 L 418.217000 166.197100 L 413.218000 166.129100 L 408.335000 165.637100 L 403.991000 163.160100 L 399.648000 160.684100 L 395.305000 158.207100 L 390.962000 155.731100 L 387.124000 152.556100 L 383.411000 149.208100 L 379.699000 145.859100 L 375.986000 142.511100 L 372.445000 138.998100 L 369.262000 135.143100 L 366.079000 131.288100 L 362.896000 127.432100 L 359.713000 123.577100 L 357.323000 119.196100 L 355.013000 114.762100 L 352.702000 110.328100 L 350.392000 105.894100 L 348.844000 101.224100 L 348.241000 96.261100 L 347.637000 91.298100 L 347.034000 86.335400 L 346.431000 81.372400 L 345.988000 76.392600 L 345.550000 71.412200 L 345.112000 66.431900 L 344.674000 61.451500 L 345.482000 56.666600 L 347.424000 52.059400 L 349.365000 47.452100 L 351.306000 42.844900 L 353.348000 38.301000 L 356.692000 34.585100 L 360.037000 30.869200 L 363.382000 27.153300 L 366.727000 23.437400 L 371.086000 21.580900 L 376.021000 20.779900 L 380.956000 19.978900 L 385.891000 19.177900 L 390.800000 18.950000 L 395.645000 20.184700 L 400.490000 21.419400 L 405.335000 22.654200 L 410.179000 23.888900 L 413.885000 27.151900 L 417.461000 30.645500 L 421.038000 34.139100 L 424.614000 37.632600 L 428.029000 41.277100 L 431.273000 45.081800 L 434.516000 48.886400 L 437.760000 52.691100 L 440.997000 56.500100 L 443.411000 60.878200 L 445.825000 65.256300 L 448.239000 69.634300 L 450.653000 74.012400 L 452.643000 78.581700 L 454.326000 83.289500 L 456.009000 87.997100 L 457.692000 92.705100 L 459.271000 97.440100 L 460.076000 102.374100 L 460.880000 107.308100 L 461.685000 112.243100 L 462.489000 117.177100 L 462.675000 122.153100 L 462.537000 127.151100 L 462.400000 132.149100 L 462.262000 137.146100 L 461.709000 142.029100 L 459.263000 146.390100 L 456.817000 150.750100 L 454.371000 155.110100 L 451.925000 159.471100 L 447.322000 161.080100 L 442.504000 162.416100 L 437.686000 163.752100 L 432.869000 165.088100 L 428.145000 164.494100 L 423.481000 162.694100 L 418.817000 160.894100 L 414.152000 159.094100 L 409.541000 157.181100 L 405.181000 154.735100 L 400.820000 152.289100 L 396.460000 149.843100 L 392.099000 147.398100 L 388.228000 144.272100 L 384.524000 140.914100 L 380.820000 137.556100 L 377.115000 134.199100 L 373.667000 130.621100 L 370.910000 126.450100 L 368.154000 122.280100 L 365.397000 118.109100 L 362.641000 113.938100 L 360.657000 109.370100 L 358.876000 104.698100 L 357.095000 100.027100 L 355.314000 95.355100 L 353.768000 90.611100 L 352.607000 85.748300 L 351.446000 80.885400 L 350.286000 76.022400 L 349.125000 71.159400 L 349.396000 66.189800 L 349.824000 61.208500 L 350.251000 56.227300 L 350.679000 51.246000 L 352.234000 46.641800 L 354.889000 42.405200 L 357.543000 38.168700 L 360.198000 33.932200 L 362.978000 29.841100 L 367.560000 27.841800 L 372.143000 25.842400 L 376.725000 23.843100 L 381.308000 21.843700 L 386.129000 21.622200 L 391.076000 22.342700 L 396.023000 23.063200 L 400.971000 23.783800 L 405.678000 25.083800 L 409.690000 28.067300 L 413.702000 31.050800 L 417.714000 34.034200 L 421.726000 37.017700 L 425.316000 40.487800 L 428.842000 44.031900 L 432.369000 47.576000 L 435.895000 51.120200 L 439.018000 54.972300 L 441.513000 59.305200 L 444.007000 63.638100 L 446.501000 67.971000 L 448.996000 72.303900 L 450.720000 76.994300 L 452.423000 81.695000 L 454.126000 86.395600 L 455.829000 91.096100 L 456.964000 95.933100 L 457.574000 100.895100 L 458.183000 105.857100 L 458.792000 110.819100 L 459.331000 115.783100 L 458.957000 120.769100 L 458.584000 125.755100 L 458.210000 130.740100 L 457.837000 135.726100 L 455.631000 139.920100 L 452.257000 143.609100 L 448.883000 147.299100 L 445.509000 150.988100 L 441.729000 153.748100 L 436.729000 153.719100 L 431.730000 153.691100 L 426.730000 153.662100 L 421.731000 153.633100 L 417.244000 151.554100 L 412.818000 149.228100 L 408.392000 146.903100 L 403.966000 144.577100 L 399.727000 141.960100 L 395.749000 138.931100 L 391.772000 135.901100 L 387.794000 132.872100 L 383.817000 129.843100 L 380.577000 126.036100 L 377.342000 122.224100 L 374.107000 118.413100 L 370.871000 114.601100 L 368.079000 110.483100 L 365.656000 106.110100 L 363.233000 101.737100 L 360.810000 97.364100 L 358.475000 92.957100 L 357.345000 88.087100 L 356.215000 83.216500 L 355.086000 78.346300 L 353.956000 73.476000 L 353.032000 68.565400 L 352.236000 63.629600 L 351.439000 58.693900 L 350.643000 53.758100 L 350.244000 48.855800 L 351.853000 44.122300 L 353.463000 39.388900 L 355.072000 34.655400 L 356.681000 29.921900 L 359.533000 25.920000 L 362.892000 22.216900 L 366.251000 18.513800 L 369.610000 14.810700 L 373.511000 12.217900 L 378.496000 11.847600 L 383.482000 11.477300 L 388.468000 11.107000 L 393.454000 10.736700 L 397.735000 13.192600 L 401.962000 15.861500 L 406.190000 18.530500 L 410.417000 21.199400 L 414.343000 24.259100 L 417.996000 27.672600 L 421.649000 31.086200 L 425.302000 34.499700 L 428.908000 37.952200 L 431.563000 42.188000 L 434.219000 46.423800 L 436.875000 50.659600 L 439.531000 54.895400 L 441.670000 59.392300 L 443.506000 64.042900 L 445.341000 68.693400 L 447.176000 73.343900 L 448.891000 78.032400 L 450.050000 82.895600 L 451.210000 87.759100 L 452.369000 92.622100 L 453.528000 97.485100 L 454.257000 102.423100 L 454.802000 107.393100 L 455.347000 112.363100 L 455.891000 117.333100 L 456.221000 122.305100 L 455.804000 127.287100 L 455.387000 132.270100 L 454.971000 137.252100 L 454.554000 142.234100 L 452.866000 146.879100 L 450.758000 151.412100 L 448.650000 155.946100 L 446.542000 160.479100 L 443.093000 163.361100 L 438.224000 164.497100 L 433.355000 165.633100 L 428.486000 166.769100 L 423.706000 167.075100 L 419.187000 164.935100 L 414.669000 162.796100 L 410.150000 160.656100 L 405.632000 158.516100 L 401.436000 155.820100 L 397.331000 152.965100 L 393.227000 150.110100 L 389.123000 147.255100 L 385.263000 144.123100 L 381.921000 140.405100 L 378.579000 136.687100 L 375.236000 132.969100 L 371.894000 129.251100 L 368.781000 125.340100 L 365.702000 121.401100 L 362.623000 117.462100 L 359.544000 113.523100 L 356.516000 109.545100 L 353.566000 105.509100 L 350.616000 101.473100 L 347.666000 97.436100 L 344.715000 93.400100 L 343.085000 88.690100 L 341.547000 83.932800 L 340.009000 79.175700 L 338.471000 74.418500 L 337.847000 69.550800 L 338.204000 64.564000 L 338.562000 59.577300 L 338.920000 54.590500 L 339.516000 49.691900 L 342.486000 45.670200 L 345.456000 41.648500 L 348.426000 37.626700 L 351.396000 33.605000 L 355.137000 30.411600 L 359.362000 27.739000 L 363.588000 25.066300 L 367.813000 22.393700 L 372.227000 20.321000 L 377.221000 20.091100 L 382.216000 19.861300 L 387.210000 19.631400 L 392.204000 19.401500 L 396.908000 20.884200 L 401.548000 22.745800 L 406.188000 24.607500 L 410.828000 26.469200 L 415.194000 28.800700 L 419.099000 31.923500 L 423.003000 35.046300 L 426.907000 38.169100 L 430.812000 41.291900 L 433.577000 45.447400 L 436.303000 49.638400 L 439.029000 53.829500 L 441.755000 58.020500 L 444.481000 62.211600 L 447.207000 66.402600 L 449.933000 70.593600 L 452.659000 74.784700 L 455.372000 78.981900 L 457.055000 83.689800 L 458.737000 88.398100 L 460.420000 93.105100 L 462.103000 97.813100 L 463.190000 102.667100 L 463.870000 107.620100 L 464.551000 112.573100 L 465.231000 117.526100 L 465.761000 122.485100 L 465.482000 127.477100 L 465.203000 132.469100 L 464.923000 137.460100 L 464.644000 142.452100 L 463.320000 147.217100 L 461.501000 151.874100 L 459.683000 156.531100 L 457.864000 161.188100 L 455.178000 165.057100 L 450.716000 167.313100 L 446.255000 169.569100 L 441.793000 171.825100 L 437.332000 174.081100 L 432.419000 173.450100 L 427.482000 172.663100 L 422.545000 171.875100 L 417.607000 171.088100 L 412.979000 169.362100 L 408.541000 167.061100 L 404.102000 164.760100 L 399.663000 162.459100 L 395.295000 160.048100 L 391.353000 156.973100 L 387.411000 153.899100 L 383.469000 150.824100 L 379.526000 147.749100 L 376.030000 144.199100 L 372.710000 140.461100 L 369.390000 136.723100 L 366.069000 132.985100 L 362.981000 129.082100 L 360.531000 124.724100 L 358.080000 120.366100 L 355.630000 116.008100 L 353.180000 111.650100 L 350.730000 107.292100 L 348.280000 102.934100 L 345.829000 98.576100 L 343.379000 94.218100 L 341.242000 89.727100 L 339.796000 84.941300 L 338.350000 80.155400 L 336.904000 75.369600 L 335.458000 70.583700 L 335.966000 65.651400 L 336.682000 60.703500 L 337.399000 55.755500 L 338.115000 50.807600 L 339.545000 46.075600 L 341.695000 41.561900 L 343.845000 37.048200 L 345.995000 32.534600 L 348.442000 28.296100 L 352.780000 25.811900 L 357.119000 23.327700 L 361.458000 20.843400 L 365.796000 18.359200 L 370.634000 17.479900 L 375.616000 17.068600 L 380.599000 16.657300 L 385.581000 16.246100 L 390.500000 16.552600 L 395.331000 17.839200 L 400.162000 19.125700 L 404.994000 20.412300 L 409.825000 21.698800" fill="none" id="47" stroke="#ff94af" stroke-width="0.5" /><path d="M 465.289000 116.069100 L 465.418000 118.274100 L 465.526000 120.480100 L 465.602000 122.687100 L 465.613000 124.895100 L 465.597000 127.104100 L 465.549000 129.312100 L 465.500000 131.520100 L 465.452000 133.728100 L 465.355000 135.934100 L 465.225000 138.139100 L 464.999000 140.336100 L 464.687000 142.521100 L 464.314000 144.698100 L 463.773000 146.839100 L 463.223000 148.978100 L 462.672000 151.117100 L 462.111000 153.253100 L 461.530000 155.383100 L 460.686000 157.424100 L 459.775000 159.434100 L 458.772000 161.402100 L 457.623000 163.286100 L 456.398000 165.121100 L 454.982000 166.816100 L 453.446000 168.395100 L 451.801000 169.869100 L 449.957000 171.078100 L 448.049000 172.184100 L 446.033000 173.085100 L 443.961000 173.840100 L 441.856000 174.510100" fill="none" id="48" stroke="#488656" stroke-width="0.5" /><path d="M 301.478000 109.691100 L 301.285000 104.706100 L 301.092000 99.722100 L 300.898000 94.738100 L 301.259000 89.780100 L 301.931000 84.837100 L 302.603000 79.894300 L 303.616000 75.038600 L 305.389000 70.376100 L 307.162000 65.713600 L 308.935000 61.051000 L 311.741000 56.935500 L 314.599000 52.847100 L 317.457000 48.758600 L 320.970000 45.298400 L 324.936000 42.273500 L 328.902000 39.248600 L 333.025000 36.481600 L 337.539000 34.357700 L 342.052000 32.233700 L 346.565000 30.109800 L 351.446000 29.152500 L 356.362000 28.309000 L 361.279000 27.465500 L 366.214000 27.490400 L 371.162000 28.123400 L 376.109000 28.756400 L 381.005000 29.615000 L 385.720000 31.240700 L 390.436000 32.866400 L 395.152000 34.492100 L 399.554000 36.817500 L 403.903000 39.259500 L 408.253000 41.701600 L 412.363000 44.494200 L 416.219000 47.658200 L 420.076000 50.822300 L 423.874000 54.047800 L 427.236000 57.732700 L 430.598000 61.417500 L 433.960000 65.102400 L 437.203000 68.891300 L 440.405000 72.716300 L 443.607000 76.541300 L 446.639000 80.492300 L 449.387000 84.655300 L 452.135000 88.818100 L 454.883000 92.982100 L 456.998000 97.499100 L 459.113000 102.016100 L 461.229000 106.534100 L 463.123000 111.145100 L 464.893000 115.809100 L 466.662000 120.472100 L 468.197000 125.201100 L 469.072000 130.112100 L 469.947000 135.023100 L 470.822000 139.934100 L 470.387000 144.885100 L 469.816000 149.840100 L 469.245000 154.796100 L 467.198000 159.123100 L 464.026000 162.973100 L 460.853000 166.822100 L 457.313000 170.209100 L 452.852000 172.443100 L 448.392000 174.677100 L 443.932000 176.910100 L 438.950000 177.062100 L 433.964000 177.195100 L 428.977000 177.328100 L 424.161000 176.354100 L 419.443000 174.735100 L 414.725000 173.115100 L 410.141000 171.216100 L 405.926000 168.548100 L 401.711000 165.880100 L 397.496000 163.212100 L 393.416000 160.344100 L 389.352000 157.452100 L 385.288000 154.559100 L 381.520000 151.320100 L 378.015000 147.770100 L 374.511000 144.220100 L 371.079000 140.607100 L 368.032000 136.657100 L 364.985000 132.708100 L 361.939000 128.758100 L 359.171000 124.612100 L 356.478000 120.413100 L 353.786000 116.214100 L 351.300000 111.899100 L 349.106000 107.419100 L 346.912000 102.939100 L 344.760000 98.443100 L 343.507000 93.615100 L 342.254000 88.787100 L 341.001000 83.958900 L 339.897000 79.095500 L 338.863000 74.215600 L 337.830000 69.335600 L 337.165000 64.423300 L 337.333000 59.438000 L 337.501000 54.452600 L 337.669000 49.467200 L 339.193000 44.730300 L 340.803000 40.008900 L 342.412000 35.287500 L 345.094000 31.213300 L 348.522000 27.590500 L 351.951000 23.967700 L 355.676000 20.741000 L 360.122000 18.478100 L 364.567000 16.215200 L 369.012000 13.952300 L 373.985000 14.181200 L 378.966000 14.450400 L 383.947000 14.719600 L 388.733000 15.925400 L 393.408000 17.665300 L 398.083000 19.405200 L 402.707000 21.264700 L 407.206000 23.417700 L 411.706000 25.570600 L 416.206000 27.723500 L 420.155000 30.754000 L 424.053000 33.866400 L 427.951000 36.978800 L 431.467000 40.483200 L 434.672000 44.305200 L 437.878000 48.127200 L 440.985000 52.020900 L 443.645000 56.240600 L 446.305000 60.460200 L 448.965000 64.679900 L 451.216000 69.125700 L 453.368000 73.625400 L 455.521000 78.125200 L 457.457000 82.714500 L 459.114000 87.420100 L 460.770000 92.125100 L 462.390000 96.840100 L 463.477000 101.709100 L 464.564000 106.577100 L 465.650000 111.446100 L 466.424000 116.369100 L 467.064000 121.316100 L 467.703000 126.263100 L 468.112000 131.223100 L 468.037000 136.211100 L 467.962000 141.198100 L 467.888000 146.186100 L 466.159000 150.855100 L 464.375000 155.514100 L 462.592000 160.172100 L 459.460000 163.873100 L 455.651000 167.094100 L 451.842000 170.315100 L 447.645000 172.640100 L 442.690000 173.219100 L 437.736000 173.797100 L 432.781000 174.376100 L 427.999000 172.969100 L 423.218000 171.546100 L 418.437000 170.123100 L 413.710000 168.535100 L 409.015000 166.849100 L 404.321000 165.164100 L 399.762000 163.204100 L 395.581000 160.484100 L 391.399000 157.764100 L 387.218000 155.044100 L 383.392000 151.850100 L 379.610000 148.598100 L 375.827000 145.347100 L 372.245000 141.886100 L 368.844000 138.237100 L 365.443000 134.588100 L 362.077000 130.908100 L 358.902000 127.061100 L 355.728000 123.213100 L 352.554000 119.365100 L 349.797000 115.216100 L 347.157000 110.984100 L 344.516000 106.752100 L 342.181000 102.363100 L 340.280000 97.752100 L 338.378000 93.140100 L 336.529000 88.514100 L 335.686000 83.597300 L 334.843000 78.680900 L 334.000000 73.764500 L 333.962000 68.806200 L 334.291000 63.828900 L 334.621000 58.851600 L 335.626000 54.075000 L 338.066000 49.724500 L 340.507000 45.374100 L 342.947000 41.023700 L 345.733000 36.886900 L 348.537000 32.761200 L 351.340000 28.635600 L 355.008000 25.397600 L 359.209000 22.708000 L 363.410000 20.018300 L 367.764000 17.662000 L 372.537000 16.211900 L 377.310000 14.761900 L 382.083000 13.311800 L 387.033000 12.774800 L 392.002000 12.327000 L 396.970000 11.879100 L 401.929000 12.003000 L 406.881000 12.600600 L 411.834000 13.198300 L 416.728000 14.027300 L 421.377000 15.835300 L 426.026000 17.643300 L 430.675000 19.451300 L 434.894000 22.080300 L 439.029000 24.870100 L 443.164000 27.659900 L 447.023000 30.786900 L 450.572000 34.291900 L 454.122000 37.796900 L 457.589000 41.368800 L 460.334000 45.533800 L 463.079000 49.698700 L 465.824000 53.863700 L 468.126000 58.278400 L 470.263000 62.785600 L 472.400000 67.292800 L 474.334000 71.881600 L 475.902000 76.617000 L 477.470000 81.352300 L 479.038000 86.087600 L 480.098000 90.961100 L 481.151000 95.837100 L 482.204000 100.713100 L 482.746000 105.655100 L 482.970000 110.638100 L 483.194000 115.621100 L 483.286000 120.603100 L 482.995000 125.583100 L 482.704000 130.563100 L 482.413000 135.543100 L 481.227000 140.376100 L 479.920000 145.190100 L 478.612000 150.004100 L 476.101000 154.122100 L 472.583000 157.658100 L 469.065000 161.195100 L 465.212000 164.198100 L 460.499000 165.833100 L 455.787000 167.468100 L 451.074000 169.103100 L 446.150000 168.455100 L 441.218000 167.712100 L 436.285000 166.969100 L 431.600000 165.397100 L 427.069000 163.312100 L 422.537000 161.227100 L 418.055000 159.046100 L 413.709000 156.597100 L 409.364000 154.148100 L 405.018000 151.699100 L 401.044000 148.694100 L 397.116000 145.619100 L 393.188000 142.544100 L 389.465000 139.238100 L 385.930000 135.718100 L 382.396000 132.198100 L 378.927000 128.619100 L 375.845000 124.698100 L 372.762000 120.777100 L 369.679000 116.855100 L 367.136000 112.578100 L 364.749000 108.198100 L 362.362000 103.818100 L 360.195000 99.334100 L 358.349000 94.700100 L 356.503000 90.066100 L 354.670000 85.428000 L 353.216000 80.656200 L 351.763000 75.884500 L 350.310000 71.112700 L 349.528000 66.209200 L 349.073000 61.241900 L 348.617000 56.274500 L 348.518000 51.315700 L 349.210000 46.375700 L 349.902000 41.435700 L 350.594000 36.495800 L 352.810000 32.039200 L 355.092000 27.603400 L 357.374000 23.167700 L 360.372000 19.239100 L 363.795000 15.610700 L 367.218000 11.982200 L 370.874000 8.628200 L 375.007000 5.835500 L 379.140000 3.042700 L 383.274000 0.250000" fill="none" id="49" stroke="#ffc0e1" stroke-width="0.5" /><path d="M 537.825000 186.486100 L 537.496000 183.601100 L 537.538000 180.707100 L 538.034000 177.868100 L 539.014000 175.143100 L 540.556000 172.682100 L 542.344000 170.399100 L 544.374000 168.337100 L 546.622000 166.502100 L 549.019000 164.864100 L 551.608000 163.555100 L 554.223000 162.291100 L 556.874000 161.116100 L 559.621000 160.176100 L 562.451000 159.526100 L 565.314000 159.054100 L 568.200000 158.740100 L 571.098000 158.567100 L 574.002000 158.599100 L 576.902000 158.742100 L 579.782000 159.074100 L 582.637000 159.607100 L 585.475000 160.219100 L 588.233000 161.118100 L 590.969000 162.092100 L 593.700000 163.082100 L 596.429000 164.073100 L 599.023000 165.375100 L 601.514000 166.860100 L 603.906000 168.504100 L 606.203000 170.281100" fill="none" id="50" stroke="#0294bb" stroke-width="0.5" /><path d="M 541.667000 199.714100 L 537.920000 196.430100 L 534.803000 192.553100 L 532.604000 188.107100 L 531.630000 183.266100 L 532.151000 178.386100 L 534.253000 173.956100 L 537.410000 170.129100 L 541.182000 166.907100 L 545.455000 164.366100 L 550.018000 162.364100 L 554.645000 160.518100 L 559.455000 159.216100 L 564.377000 158.446100 L 569.348000 158.162100 L 574.331000 158.112100 L 579.296000 158.455100 L 584.220000 159.193100 L 589.083000 160.266100 L 593.862000 161.666100 L 598.539000 163.381100 L 603.102000 165.382100 L 607.589000 167.545100 L 611.718000 170.336100 L 615.453000 173.630100 L 618.407000 177.619100 L 619.815000 182.317100 L 620.233000 187.269100 L 619.211000 192.031100 L 616.607000 196.199100 L 613.008000 199.606100 L 608.851000 202.331100 L 604.364000 204.491100 L 599.697000 206.236100 L 594.947000 207.742100 L 590.057000 208.701100 L 585.115000 209.328100 L 580.144000 209.648100 L 575.163000 209.672100 L 570.198000 209.320100 L 565.292000 208.497100 L 560.491000 207.185100 L 555.795000 205.518100 L 551.174000 203.665100 L 546.771000 201.337100 L 542.683000 198.488100 L 539.354000 194.785100 L 536.944000 190.443100 L 536.257000 185.587100 L 536.645000 180.636100 L 538.662000 176.233100 L 541.925000 172.498100 L 545.714000 169.276100 L 549.810000 166.443100 L 554.115000 163.945100 L 558.670000 161.932100 L 563.409000 160.392100 L 568.255000 159.229100 L 573.196000 158.605100 L 578.172000 158.407100 L 583.144000 158.650100 L 588.069000 159.359100 L 592.902000 160.543100 L 597.605000 162.174100 L 602.126000 164.250100 L 606.381000 166.832100 L 610.344000 169.850100 L 614.045000 173.187100" fill="none" id="51" stroke="#0294bb" stroke-width="0.5" /></svg>