<?xml version="1.0" encoding="utf-8" ?>
<svg baseProfile="full" height="496.65212" version="1.1" viewBox="0,0,296.65212,496.65212" width="296.65212" xmlns="http://www.w3.org/2000/svg" xmlns:ev="http://www.w3.org/2001/xml-events" xmlns:xlink="http://www.w3.org/1999/xlink"><defs><style type="text/css"><![CDATA[
	.background { fill: white; }
	.line { stroke: firebrick; stroke-width: .1mm; }
	.blacksquare { fill: indigo; }
	.whitesquare { fill: white; }
]]></style></defs><rect class="background" height="100%" width="100%" x="0" y="0" /><path d="M 67.939260 110.189060 L 67.613260 114.726060 L 67.388760 119.270060 L 67.295260 123.818060 L 67.295260 128.367060 L 67.295260 132.916060 L 67.295260 137.466060 L 67.295260 142.015060 L 67.295260 146.564060 L 67.295260 151.114060 L 67.295260 155.663060 L 67.295260 160.212060 L 67.310660 164.761060 L 67.404660 169.310060 L 67.567360 173.856060 L 67.742060 178.402060 L 67.930160 182.947060 L 68.166360 187.491060 L 68.421760 192.033060 L 68.684560 196.574060 L 68.979360 201.114060 L 69.322260 205.650060 L 69.688160 210.185060 L 70.066760 214.718060 L 70.469160 219.250060 L 70.893960 223.779060 L 71.358960 228.305060 L 71.956860 232.814060 L 72.681160 237.305060 L 73.494160 241.781060 L 74.378560 246.244060" fill="none" id="0" stroke="#c583d9" stroke-width="0.5" /><path d="M 67.295260 115.427060 L 67.139060 120.412060 L 67.027460 125.398060 L 66.973360 130.385060 L 66.974960 135.372060 L 66.999960 140.360060 L 67.093160 145.346060 L 67.227960 150.331060 L 67.465160 155.313060 L 67.840860 160.286060 L 68.248360 165.256060 L 68.641060 170.228060 L 69.012460 175.202060 L 69.375060 180.176060 L 69.748660 185.149060 L 70.155660 190.120060 L 70.590860 195.088060 L 71.026360 200.056060 L 71.421760 205.028060 L 71.750860 210.004060 L 72.040160 214.983060 L 72.339660 219.961060 L 72.692460 224.936060 L 73.099760 229.907060 L 73.516960 234.877060 L 73.912260 239.848060 L 74.283360 244.822060 L 74.637660 249.796060 L 74.956560 254.773060 L 75.263560 259.751060 L 75.594460 264.728060 L 75.925460 269.704060 L 76.150360 274.686060 L 76.271460 279.672060 L 76.310360 284.659060" fill="none" id="1" stroke="#c583d9" stroke-width="0.5" /><path d="M 69.549060 164.320060 L 69.549060 169.197060 L 69.549060 174.074060 L 69.549060 178.952060 L 69.549060 183.829060 L 69.549060 188.706060 L 69.554960 193.584060 L 69.619160 198.461060 L 69.723960 203.337060 L 69.858560 208.212060 L 70.084960 213.084060 L 70.367860 217.954060 L 70.661660 222.822060 L 70.955460 227.691060 L 71.249260 232.559060 L 71.543060 237.428060 L 71.871160 242.294060 L 72.251460 247.156060 L 72.653560 252.017060 L 73.041560 256.879060 L 73.400060 261.743060 L 73.746160 266.608060 L 74.132360 271.470060 L 74.597960 276.325060 L 75.097960 281.177060 L 75.571960 286.031060 L 76.010160 290.889060 L 76.462360 295.745060 L 76.930460 300.600060 L 77.330660 305.461060 L 77.504960 310.335060 L 77.597160 315.212060 L 77.624260 320.089060 L 77.598260 324.966060" fill="none" id="2" stroke="#c583d9" stroke-width="0.5" /><path d="M 0.326060 65.952560 L 5.276940 65.293260 L 10.205880 64.486860 L 15.098360 63.482760 L 19.955960 62.321160 L 24.826860 61.216360 L 29.697560 60.110560 L 34.557660 58.959260 L 39.407960 57.767360 L 44.257060 56.570260 L 49.109560 55.387360 L 53.969860 54.236960 L 58.833860 53.102260 L 63.698460 51.969660 L 68.561960 50.832860 L 73.421160 49.677860 L 78.276960 48.508460 L 83.132060 47.336160 L 87.987160 46.163960 L 92.843060 44.994560 L 97.700860 43.833860 L 102.560060 42.678460 L 107.419060 41.524060 L 112.279060 40.369660 L 117.140060 39.224560 L 122.008060 38.106760 L 126.882060 37.012560 L 131.756060 35.924960 L 136.631060 34.837260 L 141.506060 33.752060 L 146.384060 32.676060 L 151.263060 31.610960 L 156.144060 30.549860 L 161.025060 29.488860 L 165.906060 28.431560 L 170.791060 27.390460 L 175.681060 26.372260 L 180.573060 25.365660 L 185.465060 24.360560 L 190.358060 23.354960 L 195.249060 22.343760 L 200.138060 21.321560 L 205.026060 20.294860 L 209.914060 19.268060 L 214.801060 18.239260 L 219.687060 17.201160 L 224.570060 16.151460 L 229.452060 15.099060 L 234.334060 14.042660 L 239.207060 12.948960 L 244.057060 11.755860 L 248.902060 10.540160 L 253.747060 9.328010 L 258.600060 8.147410 L 263.460060 6.995910 L 268.320060 5.845300 L 273.174060 4.668360 L 278.025060 3.477440 L 282.891060 2.352750 L 287.776060 1.309475 L 292.672060 0.326060" fill="none" id="3" stroke="#f375a0" stroke-width="0.5" /><path d="M 69.871060 118.628060 L 69.865360 122.223060 L 69.895060 125.818060 L 69.955860 129.413060 L 70.095960 133.005060 L 70.309960 136.593060 L 70.561260 140.179060 L 70.840260 143.764060 L 71.141860 147.346060 L 71.455060 150.927060 L 71.786060 154.507060 L 72.138360 158.085060 L 72.502860 161.661060 L 72.843360 165.240060 L 73.118660 168.824060 L 73.328760 172.413060 L 73.507960 176.003060 L 73.681660 179.594060 L 73.855260 183.185060 L 74.028660 186.776060 L 74.198160 190.367060 L 74.352460 193.958060 L 74.476360 197.551060 L 74.572660 201.145060 L 74.654960 204.739060 L 74.700560 208.333060 L 74.700560 211.928060 L 74.700560 215.523060 L 74.700560 219.118060 L 74.700560 222.713060 L 74.700560 226.308060" fill="none" id="4" stroke="#9de993" stroke-width="0.5" /><path d="M 44.757560 103.932060 L 44.481360 108.616060 L 44.271360 113.303060 L 44.146960 117.994060 L 44.116060 122.686060 L 44.113660 127.378060 L 44.113660 132.070060 L 44.113660 136.762060 L 44.113660 141.454060 L 44.113660 146.147060 L 44.160160 150.839060 L 44.243560 155.530060 L 44.335460 160.221060 L 44.464260 164.912060 L 44.663460 169.600060 L 44.903260 174.286060 L 45.148360 178.972060 L 45.413560 183.656060 L 45.719060 188.339060 L 46.047760 193.019060 L 46.377660 197.700060 L 46.715760 202.380060 L 47.070260 207.059060 L 47.433460 211.737060 L 47.810160 216.414060 L 48.258960 221.084060 L 48.819160 225.743060 L 49.382660 230.401060 L 49.969260 235.057060 L 50.577260 239.709060 L 51.202160 244.360060 L 51.840860 249.008060" fill="none" id="5" stroke="#ad5ba7" stroke-width="0.5" /><path d="M 45.723460 107.133060 L 45.723060 112.033060 L 45.723160 116.933060 L 45.723460 121.834060 L 45.725860 126.734060 L 45.808760 131.633060 L 45.939660 136.532060 L 46.144560 141.428060 L 46.434460 146.320060 L 46.747860 151.210060 L 47.070760 156.099060 L 47.404960 160.988060 L 47.742860 165.877060 L 48.074160 170.766060 L 48.359560 175.658060 L 48.594560 180.553060 L 48.812660 185.448060 L 49.030760 190.343060 L 49.265660 195.238060 L 49.533560 200.131060 L 49.820760 205.023060 L 50.109460 209.915060 L 50.392960 214.807060 L 50.655560 219.700060 L 50.892560 224.594060 L 51.124660 229.489060 L 51.359360 234.384060 L 51.610160 239.278060 L 51.889560 244.170060 L 52.175360 249.062060 L 52.473460 253.953060 L 52.816660 258.841060 L 53.189060 263.727060 L 53.642660 268.607060 L 54.245060 273.470060 L 54.805660 278.338060 L 55.382460 283.204060" fill="none" id="6" stroke="#ad5ba7" stroke-width="0.5" /><path d="M 44.435560 127.796060 L 44.478460 132.688060 L 44.609160 137.578060 L 44.881660 142.463060 L 45.222060 147.344060 L 45.594660 152.222060 L 45.977160 157.099060 L 46.380060 161.975060 L 46.793260 166.850060 L 47.202360 171.725060 L 47.588260 176.602060 L 47.959960 181.480060 L 48.328560 186.359060 L 48.690160 191.238060 L 49.042060 196.118060 L 49.390360 200.998060 L 49.729660 205.878060 L 49.991960 210.763060 L 50.182660 215.652060 L 50.363660 220.541060 L 50.544760 225.430060 L 50.725760 230.319060 L 50.906760 235.208060 L 51.081460 240.097060 L 51.193460 244.988060 L 51.196960 249.881060 L 51.203060 254.773060 L 51.246160 259.665060 L 51.358260 264.556060 L 51.484860 269.447060 L 51.611460 274.338060 L 51.742460 279.228060 L 51.938760 284.117060 L 52.483960 288.979060 L 53.203060 293.818060 L 54.094660 298.628060" fill="none" id="7" stroke="#ad5ba7" stroke-width="0.5" /><path d="M 48.621160 229.946060 L 49.328460 234.777060 L 50.020260 239.610060 L 50.667460 244.449060 L 51.342060 249.284060 L 52.162060 254.097060 L 53.012360 258.905060 L 53.891660 263.707060 L 54.786660 268.506060 L 55.720860 273.298060 L 56.694460 278.083060 L 57.673260 282.866060 L 58.623860 287.654060 L 59.557960 292.446060 L 60.490160 297.239060 L 61.422360 302.031060 L 62.355660 306.823060 L 63.302360 311.613060 L 64.267960 316.399060 L 65.246860 321.182060 L 66.254360 325.959060 L 67.293660 330.729060 L 68.327960 335.501060 L 69.348060 340.275060 L 70.413860 345.039060 L 71.646460 349.763060 L 72.978860 354.460060 L 74.308160 359.158060 L 75.597460 363.867060 L 76.761060 368.608060 L 78.078160 373.310060 L 79.446960 377.996060 L 80.779060 382.693060 L 82.105760 387.391060" fill="none" id="8" stroke="#ad5ba7" stroke-width="0.5" /><path d="M 52.484760 67.116660 L 52.500060 72.093260 L 52.484060 77.069760 L 52.454960 82.046260 L 52.496760 87.022460 L 52.748960 91.992660 L 53.029060 96.961360 L 53.310260 101.930060 L 53.591460 106.899060 L 53.872560 111.867060 L 54.153760 116.836060 L 54.434960 121.804060 L 54.713660 126.773060 L 54.965760 131.743060 L 55.147260 136.717060 L 55.308760 141.690060 L 55.469260 146.664060 L 55.629660 151.638060 L 55.792160 156.612060 L 55.977760 161.585060 L 56.228260 166.556060 L 56.514760 171.524060 L 56.807060 176.492060 L 57.099260 181.460060 L 57.391460 186.428060 L 57.674160 191.396060 L 57.904060 196.367060 L 58.042960 201.342060 L 58.128560 206.318060 L 58.205160 211.294060 L 58.281660 216.270060 L 58.358260 221.246060 L 58.434860 226.222060 L 58.511360 231.198060 L 58.587960 236.174060 L 58.664460 241.150060 L 58.741060 246.126060 L 58.817560 251.102060 L 58.971760 256.075060 L 59.297060 261.040060 L 59.617460 266.006060 L 59.790060 270.979060 L 59.914560 275.954060 L 60.039060 280.929060 L 60.163460 285.904060 L 60.287960 290.879060 L 60.412460 295.854060 L 60.536860 300.829060 L 60.661360 305.804060 L 60.809760 310.779060 L 61.078860 315.747060 L 61.468960 320.708060 L 61.764360 325.675060 L 61.966260 330.647060 L 62.158160 335.620060 L 62.354860 340.593060 L 62.587860 345.564060 L 62.859560 350.533060 L 63.141460 355.502060 L 63.423560 360.470060 L 63.712860 365.439060 L 64.078360 370.401060 L 64.470460 375.363060 L 64.862460 380.324060 L 65.253860 385.285060 L 65.616560 390.248060 L 65.968760 395.212060 L 66.320260 400.176060 L 66.659960 405.141060 L 66.968060 410.108060 L 67.268260 415.076060 L 67.558460 420.044060 L 67.814660 425.014060 L 68.056060 429.985060 L 68.308460 434.955060 L 68.583660 439.924060 L 68.856160 444.893060 L 69.061560 449.865060 L 69.414160 454.829060 L 69.532560 459.804060 L 69.415560 464.779060 L 69.227060 469.752060" fill="none" id="9" stroke="#58f2c3" stroke-width="0.5" /><path d="M 27.371360 496.090060 L 31.938860 494.108060 L 36.476960 492.061060 L 40.981360 489.939060 L 45.496960 487.842060 L 50.015260 485.750060 L 54.548560 483.691060 L 59.098160 481.668060 L 63.651160 479.653060 L 68.208660 477.648060 L 72.776460 475.667060 L 77.350160 473.699060 L 81.923760 471.731060 L 86.497360 469.764060 L 91.071060 467.796060 L 95.644660 465.828060 L 100.218360 463.860060 L 104.792060 461.892060 L 109.349060 459.887060 L 113.883060 457.829060 L 118.409060 455.754060 L 122.935060 453.680060 L 127.461060 451.604060 L 131.984060 449.522060 L 136.502060 447.429060 L 141.018060 445.333060 L 145.534060 443.237060 L 150.050060 441.140060 L 154.562060 439.034060 L 159.063060 436.906060 L 163.559060 434.767060 L 168.055060 432.627060 L 172.550060 430.487060 L 177.046060 428.346060 L 181.542060 426.206060 L 186.037060 424.066060 L 190.533060 421.926060 L 195.028060 419.786060 L 199.524060 417.645060 L 204.018060 415.502060 L 208.511060 413.356060 L 213.003060 411.208060 L 217.495060 409.061060 L 221.986060 406.912060 L 226.476060 404.759060 L 230.963060 402.602060 L 235.449060 400.441060 L 239.935060 398.282060 L 244.426060 396.132060 L 248.926060 394.001060 L 253.433060 391.884060 L 257.940060 389.769060 L 262.451060 387.661060 L 266.967060 385.564060 L 271.484060 383.471060 L 275.992060 381.355060 L 280.483060 379.207060 L 285.029060 377.178060 L 289.157060 374.445060 L 292.595060 370.864060 L 295.570060 366.874060" fill="none" id="10" stroke="#c94e76" stroke-width="0.5" /><path d="M 254.036060 54.893560 L 254.036060 59.861560 L 254.036060 64.829560 L 254.036060 69.797560 L 254.036060 74.765660 L 254.036060 79.733660 L 254.036060 84.701660 L 254.036060 89.669660 L 254.036060 94.637660 L 254.036060 99.605660 L 254.019060 104.574060 L 253.979060 109.541060 L 253.936060 114.509060 L 253.893060 119.477060 L 253.851060 124.445060 L 253.808060 129.413060 L 253.765060 134.381060 L 253.722060 139.348060 L 253.679060 144.316060 L 253.636060 149.284060 L 253.593060 154.252060 L 253.550060 159.220060 L 253.507060 164.188060 L 253.465060 169.155060 L 253.422060 174.123060 L 253.379060 179.091060 L 253.336060 184.059060 L 253.293060 189.027060 L 253.250060 193.995060 L 253.207060 198.962060 L 253.164060 203.930060 L 253.122060 208.898060 L 253.084060 213.866060 L 253.070060 218.834060 L 253.070060 223.802060 L 253.070060 228.770060 L 253.070060 233.738060 L 253.070060 238.706060 L 253.070060 243.674060 L 253.070060 248.642060 L 253.070060 253.610060 L 253.070060 258.578060 L 253.070060 263.546060 L 253.070060 268.514060 L 253.070060 273.482060 L 253.070060 278.450060 L 253.070060 283.418060 L 253.070060 288.386060 L 253.070060 293.354060 L 253.070060 298.322060 L 253.070060 303.290060 L 253.070060 308.258060 L 253.072060 313.226060 L 253.088060 318.194060 L 253.132060 323.162060 L 253.190060 328.130060 L 253.248060 333.097060 L 253.306060 338.065060 L 253.375060 343.033060 L 253.498060 347.999060 L 253.695060 352.963060 L 253.896060 357.927060 L 254.097060 362.891060 L 254.293060 367.855060 L 254.470060 372.820060 L 254.629060 377.786060 L 254.788060 382.751060 L 254.950060 387.716060 L 255.129060 392.681060 L 255.321060 397.645060 L 255.515060 402.610060 L 255.720060 407.573060 L 255.956060 412.536060 L 256.180060 417.499060 L 256.284060 422.466060 L 256.294060 427.434060 L 256.349060 432.401060 L 256.522060 437.366060 L 256.588060 442.334060 L 256.620060 447.302060 L 256.636060 452.270060 L 256.612060 457.238060" fill="none" id="11" stroke="#57b870" stroke-width="0.5" /><path d="M 269.813060 26.081960 L 269.505060 31.070360 L 269.284060 36.063260 L 269.177060 41.059860 L 269.169060 46.057760 L 269.169060 51.055660 L 269.169060 56.053560 L 269.168060 61.051360 L 269.153060 66.049160 L 269.082060 71.046560 L 268.999060 76.043760 L 268.916060 81.040960 L 268.836060 86.038160 L 268.761060 91.035460 L 268.689060 96.032860 L 268.616060 101.030060 L 268.543060 106.027060 L 268.470060 111.025060 L 268.398060 116.022060 L 268.325060 121.019060 L 268.252060 126.017060 L 268.179060 131.014060 L 268.107060 136.012060 L 268.034060 141.009060 L 267.961060 146.006060 L 267.888060 151.004060 L 267.816060 156.001060 L 267.743060 160.998060 L 267.670060 165.996060 L 267.596060 170.993060 L 267.516060 175.990060 L 267.430060 180.987060 L 267.344060 185.984060 L 267.271060 190.982060 L 267.241060 195.980060 L 267.237060 200.977060 L 267.237060 205.975060 L 267.237060 210.973060 L 267.237060 215.971060 L 267.237060 220.969060 L 267.237060 225.967060 L 267.237060 230.965060" fill="none" id="12" stroke="#d271bb" stroke-width="0.5" /><path d="M 269.813060 38.159560 L 269.830060 43.131760 L 269.823060 48.103960 L 269.802060 53.076060 L 269.706060 58.047360 L 269.581060 63.018060 L 269.435060 67.988160 L 269.257060 72.957160 L 269.074060 77.926060 L 268.907060 82.895460 L 268.795060 87.866360 L 268.716060 92.837960 L 268.642060 97.809660 L 268.563060 102.781060 L 268.466060 107.752060 L 268.346060 112.723060 L 268.219060 117.694060 L 268.093060 122.664060 L 267.967060 127.635060 L 267.846060 132.606060 L 267.728060 137.577060 L 267.612060 142.548060 L 267.496060 147.518060 L 267.380060 152.489060 L 267.265060 157.460060 L 267.149060 162.431060 L 267.033060 167.402060 L 266.917060 172.373060 L 266.802060 177.344060 L 266.682060 182.315060 L 266.542060 187.285060 L 266.368060 192.254060 L 266.181060 197.223060 L 265.993060 202.191060 L 265.808060 207.160060 L 265.632060 212.129060 L 265.473060 217.099060 L 265.323060 222.069060 L 265.174060 227.039060 L 265.020060 232.009060 L 264.844060 236.978060 L 264.653060 241.946060 L 264.458060 246.915060 L 264.240060 251.882060 L 263.984060 256.848060 L 263.700060 261.812060 L 263.261060 266.765060 L 262.729060 271.708060" fill="none" id="13" stroke="#d271bb" stroke-width="0.5" /><path d="M 265.949060 234.602060 L 265.156060 239.451060 L 264.352060 244.298060 L 263.520060 249.139060 L 262.702060 253.984060 L 261.998060 258.846060 L 261.312060 263.710060 L 260.625060 268.575060 L 259.939060 273.440060 L 259.252060 278.304060 L 258.566060 283.169060 L 258.030060 288.053060 L 257.421060 292.928060 L 256.732060 297.792060 L 256.042060 302.656060 L 255.353060 307.520060 L 254.664060 312.384060 L 253.974060 317.249060 L 253.285060 322.113060 L 252.597060 326.977060 L 251.923060 331.844060 L 251.276060 336.714060 L 250.641060 341.585060 L 250.005060 346.457060 L 249.347060 351.326060 L 248.606060 356.182060 L 247.800060 361.028060 L 247.011060 365.878060 L 246.215060 370.725060 L 245.358060 375.563060 L 244.412060 380.384060 L 243.445060 385.201060 L 242.446060 390.011060" fill="none" id="14" stroke="#d271bb" stroke-width="0.5" /><path d="M 264.983060 232.274060 L 265.041060 237.238060 L 264.959060 242.202060 L 264.689060 247.159060 L 264.257060 252.104060 L 263.698060 257.037060 L 262.998060 261.951060 L 262.277060 266.863060 L 261.534060 271.771060 L 260.757060 276.675060 L 259.971060 281.576060 L 259.181060 286.477060 L 258.360060 291.373060 L 257.490060 296.261060 L 256.602060 301.145060 L 255.713060 306.029060 L 254.830060 310.914060 L 253.966060 315.803060 L 253.121060 320.695060 L 252.284060 325.588060 L 251.446060 330.481060 L 250.606060 335.374060 L 249.758060 340.266060 L 248.903060 345.156060 L 248.046060 350.046060 L 247.187060 354.935060 L 246.317060 359.823060 L 245.415060 364.704060 L 244.482060 369.580060 L 243.541060 374.455060 L 242.601060 379.329060 L 241.669060 384.205060 L 240.750060 389.084060 L 239.836060 393.963060 L 238.917060 398.842060 L 237.960060 403.713060 L 236.936060 408.571060 L 235.899060 413.426060 L 234.862060 418.280060 L 233.824060 423.135060 L 232.787060 427.990060" fill="none" id="15" stroke="#d271bb" stroke-width="0.5" /><path d="M 264.983060 248.281060 L 264.923060 253.209060 L 264.670060 258.132060 L 264.103060 263.028060 L 263.397060 267.906060 L 262.640060 272.777060 L 261.878060 277.647060 L 261.041060 282.504060 L 260.144060 287.351060 L 259.236060 292.195060 L 258.327060 297.040060 L 257.418060 301.884060 L 256.509060 306.729060 L 255.599060 311.573060 L 254.690060 316.418060 L 253.753060 321.257060 L 252.745060 326.082060 L 251.699060 330.899060 L 250.653060 335.715060 L 249.607060 340.532060 L 248.554060 345.347060 L 247.489060 350.160060 L 246.418060 354.971060 L 245.347060 359.782060 L 244.272060 364.593060 L 243.171060 369.397060 L 242.031060 374.193060 L 240.875060 378.984060 L 239.718060 383.776060 L 238.562060 388.567060 L 237.405060 393.358060 L 236.249060 398.150060 L 235.090060 402.941060 L 233.904060 407.725060 L 232.608060 412.481060 L 231.249060 417.219060 L 229.888060 421.956060 L 228.509060 426.688060 L 227.113060 431.415060 L 225.703060 436.138060" fill="none" id="16" stroke="#d271bb" stroke-width="0.5" /><path d="M 267.559060 213.067060 L 266.925060 217.966060 L 266.333060 222.870060 L 265.862060 227.787060 L 265.314060 232.697060 L 264.746060 237.604060 L 264.158060 242.509060 L 263.562060 247.413060 L 262.959060 252.316060 L 262.276060 257.208060 L 261.548060 262.094060 L 260.813060 266.979060 L 260.079060 271.864060 L 259.360060 276.752060 L 258.665060 281.642060 L 257.977060 286.534060 L 257.289060 291.426060 L 256.600060 296.318060 L 255.875060 301.204060 L 255.094060 306.082060 L 254.288060 310.956060 L 253.480060 315.829060 L 252.673060 320.703060 L 251.865060 325.576060 L 251.018060 330.443060 L 250.133060 335.303060 L 249.247060 340.163060 L 248.362060 345.023060 L 247.476060 349.883060 L 246.590060 354.742060 L 245.704060 359.602060 L 244.818060 364.462060 L 243.932060 369.322060 L 243.046060 374.182060 L 242.115060 379.033060 L 241.052060 383.857060 L 239.936060 388.670060 L 238.819060 393.482060 L 237.706060 398.295060 L 236.617060 403.113060 L 235.549060 407.936060 L 234.483060 412.760060 L 233.426060 417.585060 L 232.413060 422.420060 L 231.406060 427.256060 L 230.340060 432.080060 L 229.179060 436.882060 L 227.957060 441.668060" fill="none" id="17" stroke="#d271bb" stroke-width="0.5" /><path d="M 263.051060 286.405060 L 262.165060 291.027060 L 261.167060 295.625060 L 260.025060 300.190060 L 258.762060 304.723060 L 257.516060 309.261060 L 256.284060 313.802060 L 255.025060 318.336060 L 253.698060 322.851060 L 252.338060 327.356060 L 250.973060 331.859060 L 249.609060 336.363060 L 248.244060 340.866060 L 246.934060 345.385060 L 245.753060 349.940060 L 244.587060 354.499060 L 243.313060 359.028060 L 241.977060 363.540060 L 240.613060 368.044060 L 239.226060 372.540060 L 237.829060 377.034060 L 236.423060 381.525060 L 234.999060 386.010060 L 233.567060 390.492060 L 232.126060 394.972060 L 230.663060 399.444060 L 229.191060 403.914060 L 227.718060 408.383060 L 226.228060 412.847060 L 224.693060 417.295060 L 223.127060 421.733060" fill="none" id="18" stroke="#d271bb" stroke-width="0.5" /><path d="M 223.127060 21.716560 L 225.519060 21.640360 L 227.911060 21.663660 L 230.297060 21.803960 L 232.661060 22.176060 L 235.007060 22.645260 L 237.347060 23.146560 L 239.689060 23.640360 L 242.027060 24.151260 L 244.360060 24.681460 L 246.689060 25.232960 L 249.012060 25.804360 L 251.338060 26.370160 L 253.665060 26.928460 L 255.996060 27.467260 L 258.330060 27.996960 L 260.665060 28.520860 L 263.001060 29.038960 L 265.339060 29.549160 L 267.678060 30.055760 L 270.018060 30.558960 L 272.360060 31.050060 L 274.703060 31.534160 L 277.049060 32.008460 L 279.400060 32.455560 L 281.757060 32.867960 L 284.120060 33.245060 L 286.491060 33.568660 L 288.870060 33.824660 L 291.253060 34.044360 L 293.638060 34.230660" fill="none" id="19" stroke="#3d8e43" stroke-width="0.5" /><path d="M 158.412060 62.751260 L 158.370060 67.745760 L 158.327060 72.740260 L 158.285060 77.734760 L 158.243060 82.729160 L 158.201060 87.723660 L 158.158060 92.718160 L 158.116060 97.712660 L 158.074060 102.707060 L 158.032060 107.702060 L 157.994060 112.696060 L 157.977060 117.691060 L 157.975060 122.685060 L 157.975060 127.680060 L 157.975060 132.675060 L 157.975060 137.669060 L 157.975060 142.664060 L 157.975060 147.659060 L 157.975060 152.653060 L 157.975060 157.648060 L 157.975060 162.643060 L 157.975060 167.637060 L 157.975060 172.632060 L 157.975060 177.627060 L 157.975060 182.621060 L 157.975060 187.616060 L 158.109060 192.605060 L 158.498060 197.584060 L 158.725060 202.572060 L 158.771060 207.567060 L 158.786060 212.561060 L 158.801060 217.556060 L 158.817060 222.551060 L 158.832060 227.545060 L 158.847060 232.540060 L 158.862060 237.534060 L 158.878060 242.529060 L 158.893060 247.524060 L 158.908060 252.518060 L 158.924060 257.513060 L 158.939060 262.508060 L 158.954060 267.502060 L 159.014060 272.496060 L 159.192060 277.487060 L 159.468060 282.474060 L 159.770060 287.460060 L 160.072060 292.445060 L 160.374060 297.431060 L 160.671060 302.417060 L 160.939060 307.404060 L 161.157060 312.394060 L 161.347060 317.385060 L 161.532060 322.376060 L 161.717060 327.367060 L 161.904060 332.359060 L 162.102060 337.349060 L 162.308060 342.340060 L 162.516060 347.330060 L 162.724060 352.320060 L 163.075060 357.302060 L 163.773060 362.244060 L 164.274060 367.211060 L 164.670060 372.190060 L 165.052060 377.170060 L 165.373060 382.154060 L 165.659060 387.140060 L 165.936060 392.127060 L 166.195060 397.115060 L 166.423060 402.105060 L 166.632060 407.095060 L 166.758060 412.088060 L 166.782060 417.082060 L 166.783060 422.077060 L 166.783060 427.072060 L 166.783060 432.066060 L 166.783060 437.061060 L 166.783060 442.056060 L 166.764060 447.050060 L 166.416060 452.032060 L 166.045060 457.013060 L 165.769060 462.000060 L 165.495060 466.987060" fill="none" id="20" stroke="#00d4db" stroke-width="0.5" /><path d="M 28.981160 26.372960 L 33.294960 25.773360 L 37.598760 25.106160 L 41.886960 24.344660 L 46.165060 23.528660 L 50.447860 22.737260 L 54.734060 21.964560 L 59.028260 21.237560 L 63.324060 20.520360 L 67.619860 19.803060 L 71.915660 19.085860 L 76.211560 18.368660 L 80.507360 17.651360 L 84.803160 16.934160 L 89.098960 16.216860 L 93.394860 15.499660 L 97.690660 14.782360 L 101.986060 14.060160 L 106.277060 13.316260 L 110.562060 12.540160 L 114.842060 11.732160 L 119.109060 10.861260 L 123.361060 9.916450 L 127.603060 8.932280 L 131.836060 7.907300 L 136.059060 6.841180 L 140.256060 5.679050 L 144.440060 4.468670 L 148.642060 3.323800 L 152.873060 2.293180 L 157.124060 1.344660" fill="none" id="21" stroke="#d55969" stroke-width="0.5" /><path d="M 49.587060 15.750460 L 54.500460 15.736860 L 59.412360 15.859360 L 64.314560 16.187760 L 69.206160 16.648560 L 74.068160 17.352860 L 78.926760 18.084860 L 83.775560 18.878760 L 88.615760 19.723760 L 93.453060 20.585060 L 98.269760 21.553560 L 103.080060 22.555060 L 107.884060 23.585660 L 112.686060 24.628060 L 117.487060 25.670560 L 122.289060 26.713060 L 127.089060 27.759360 L 131.884060 28.833660 L 136.673060 29.932260 L 141.461060 31.035460 L 146.257060 32.102560 L 151.066060 33.109960 L 155.880060 34.091260 L 160.696060 35.064260 L 165.519060 36.005460 L 170.347060 36.914760 L 175.176060 37.821060 L 180.008060 38.714260 L 184.843060 39.590860 L 189.678060 40.462160 L 194.516060 41.321160 L 199.356060 42.164960 L 204.197060 43.006460 L 209.038060 43.847960 L 213.878060 44.692260 L 218.714060 45.563260 L 223.535060 46.509660 L 228.306060 47.682060 L 232.995060 49.150360 L 237.616060 50.819160" fill="none" id="22" stroke="#64e4ff" stroke-width="0.5" /><path d="M 11.272960 92.872560 L 13.985660 93.651160 L 16.691860 94.451860 L 19.389460 95.280860 L 22.077960 96.139260 L 24.758360 97.022560 L 27.438960 97.905460 L 30.124160 98.774160 L 32.813760 99.628860 L 35.506760 100.473060 L 38.200860 101.314060 L 40.897660 102.146060 L 43.601260 102.955060 L 46.312660 103.738060 L 49.031360 104.496060 L 51.755160 105.234060 L 54.482460 105.960060 L 57.212260 106.676060 L 59.944460 107.383060 L 62.678960 108.081060 L 65.415460 108.772060 L 68.154160 109.453060 L 70.893760 110.131060 L 73.632460 110.813060 L 76.368860 111.503060 L 79.102260 112.206060 L 81.833660 112.916060 L 84.562760 113.635060 L 87.288560 114.366060 L 90.010960 115.110060 L 92.730760 115.864060" fill="none" id="23" stroke="#e68e54" stroke-width="0.5" /><path d="M 125.893060 417.367060 L 129.613060 418.646060 L 133.313060 419.979060 L 136.991060 421.373060 L 140.635060 422.854060 L 144.283060 424.323060 L 147.955060 425.733060 L 151.632060 427.128060 L 155.310060 428.522060 L 158.987060 429.916060 L 162.665060 431.311060 L 166.343060 432.705060 L 170.022060 434.096060 L 173.709060 435.465060 L 177.411060 436.793060 L 181.122060 438.098060 L 184.837060 439.388060 L 188.562060 440.652060 L 192.295060 441.890060 L 196.031060 443.119060 L 199.767060 444.348060 L 203.504060 445.576060 L 207.241060 446.802060 L 210.981060 448.018060 L 214.730060 449.208060 L 218.486060 450.376060 L 222.254060 451.503060 L 226.033060 452.591060 L 229.846060 453.555060 L 233.716060 454.252060 L 237.616060 454.764060" fill="none" id="24" stroke="#54aeff" stroke-width="0.5" /><path d="M 160.988060 60.277560 L 164.819060 60.191460 L 168.638060 59.878860 L 172.415060 59.228760 L 176.167060 58.449160 L 179.914060 57.642460 L 183.657060 56.819860 L 187.397060 55.982260 L 191.135060 55.138360 L 194.873060 54.293660 L 198.612060 53.449560 L 202.352060 52.615360 L 206.099060 51.808660 L 209.851060 51.025160 L 213.602060 50.241760 L 217.350060 49.441660 L 221.095060 48.626060 L 224.839060 47.808960 L 228.586060 47.001460 L 232.335060 46.205760 L 236.087060 45.426260 L 239.845060 44.673960 L 243.605060 43.933260 L 247.361060 43.168460 L 251.112060 42.383660 L 254.878060 41.675460 L 258.660060 41.051760 L 262.433060 40.381460 L 266.153060 39.462160 L 269.791060 38.261360 L 273.354060 36.849960" fill="none" id="25" stroke="#eed973" stroke-width="0.5" /><path d="M 68.583160 108.879060 L 70.007760 108.044060 L 71.432360 107.209060 L 72.855660 106.372060 L 74.279060 105.535060 L 75.700660 104.695060 L 77.122160 103.855060 L 78.542260 103.013060 L 79.962260 102.170060 L 81.382960 101.329060 L 82.803660 100.488060 L 84.224460 99.646160 L 85.645160 98.804860 L 87.065960 97.963460 L 88.486660 97.122060 L 89.908060 96.281860 L 91.329560 95.441660 L 92.757860 94.613360 L 94.186260 93.784960 L 95.625060 92.974760 L 97.063760 92.164660 L 98.509260 91.366560 L 99.954760 90.568460 L 101.411060 89.790760 L 102.868060 89.013060 L 104.339060 88.262660 L 105.810060 87.512360 L 107.286060 86.772660 L 108.762060 86.033060 L 110.244060 85.305660 L 111.727060 84.578260" fill="none" id="26" stroke="#eed973" stroke-width="0.5" /><path d="M 65.685460 108.151060 L 68.946560 106.381060 L 72.213960 104.623060 L 75.475760 102.854060 L 78.773060 101.152060 L 82.070460 99.450760 L 85.343260 97.702360 L 88.609760 95.942060 L 91.875760 94.181060 L 95.141860 92.420060 L 98.407960 90.659160 L 101.705060 88.956860 L 105.031060 87.311560 L 108.366060 85.684660 L 111.701060 84.059660 L 115.037060 82.434560 L 118.373060 80.809460 L 121.709060 79.184560 L 125.061060 77.593460 L 128.453060 76.089160 L 131.872060 74.649060 L 135.292060 73.208460 L 138.710060 71.764160 L 142.123060 70.308760 L 145.531060 68.840360 L 148.939060 67.372960 L 152.352060 65.916760 L 155.783060 64.503660 L 159.232060 63.136860 L 162.683060 61.773360 L 166.139060 60.423060" fill="none" id="27" stroke="#eed973" stroke-width="0.5" /><path d="M 61.821860 107.133060 L 62.590360 106.955060 L 63.358860 106.778060 L 64.118660 106.566060 L 64.878260 106.353060 L 65.614960 106.072060 L 66.351660 105.790060 L 67.073660 105.472060 L 67.795660 105.155060 L 68.518460 104.839060 L 69.241360 104.523060 L 69.958160 104.194060 L 70.674960 103.865060 L 71.393360 103.540060 L 72.111660 103.214060 L 72.830260 102.889060 L 73.548760 102.563060 L 74.269060 102.242060 L 74.989360 101.921060 L 75.710460 101.601060 L 76.431560 101.281060 L 77.156160 100.970060 L 77.880760 100.658060 L 78.606360 100.349060 L 79.331960 100.039660 L 80.060560 99.737560 L 80.789160 99.435460 L 81.520160 99.139160 L 82.251060 98.842760 L 82.983360 98.549660 L 83.715660 98.256560" fill="none" id="28" stroke="#eed973" stroke-width="0.5" /><path d="M 71.480860 105.969060 L 74.536060 105.663060 L 77.566160 105.173060 L 80.545660 104.444060 L 83.459460 103.485060 L 86.325460 102.384060 L 89.173260 101.236060 L 92.014360 100.072160 L 94.854460 98.905260 L 97.688160 97.723260 L 100.512060 96.517460 L 103.331060 95.301260 L 106.154060 94.092660 L 108.985060 92.903760 L 111.824060 91.734560 L 114.667060 90.574360 L 117.519060 89.436960 L 120.380060 88.323660 L 123.244060 87.217460 L 126.113060 86.121860 L 128.989060 85.048060 L 131.875060 83.999160 L 134.765060 82.962360 L 137.659060 81.936860 L 140.567060 80.950560 L 143.485060 79.996060 L 146.406060 79.049860 L 149.327060 78.103760 L 152.248060 77.157660 L 155.169060 76.211560 L 158.090060 75.265460" fill="none" id="29" stroke="#008bd4" stroke-width="0.5" /><path d="M 64.397560 109.898060 L 68.410860 108.200060 L 72.446760 106.556060 L 76.515160 104.995060 L 80.582960 103.432060 L 84.650860 101.870060 L 88.718660 100.307060 L 92.782460 98.733860 L 96.830260 97.120260 L 100.857060 95.455060 L 104.879060 93.776660 L 108.913060 92.130060 L 112.956060 90.503760 L 117.002060 88.884360 L 121.053060 87.280360 L 125.108060 85.682560 L 129.165060 84.091960 L 133.229060 82.519160 L 137.296060 80.955960 L 141.364060 79.393960 L 145.432060 77.831960 L 149.501060 76.269960 L 153.569060 74.707960 L 157.637060 73.145960 L 161.703060 71.578360 L 165.755060 69.975960 L 169.779060 68.302760 L 173.783060 66.583960 L 177.745060 64.770060 L 181.631060 62.800060 L 185.457060 60.714060" fill="none" id="30" stroke="#008bd4" stroke-width="0.5" /><path d="M 94.984460 96.510360 L 99.600060 94.919760 L 104.117060 93.074660 L 108.518060 90.958360 L 112.943060 88.892460 L 117.392060 86.880660 L 121.874060 84.941160 L 126.389060 83.081060 L 130.939060 81.309060 L 135.517060 79.610460 L 140.125060 77.992460 L 144.738060 76.392260 L 149.352060 74.792560 L 153.967060 73.196960 L 158.588060 71.617660 L 163.215060 70.055160 L 167.841060 68.491060 L 172.460060 66.907360 L 177.074060 65.307560 L 181.679060 63.680860 L 186.269060 62.015460 L 190.850060 60.324460 L 195.423060 58.611160 L 199.986060 56.871660 L 204.533060 55.090660 L 209.050060 53.234560 L 213.535060 51.303560 L 217.973060 49.266460 L 222.367060 47.135960 L 226.659060 44.808460 L 230.913060 42.411060 L 235.112060 39.917260 L 239.226060 37.286460" fill="none" id="31" stroke="#008bd4" stroke-width="0.5" /><path d="M 267.728060 33.246760 L 265.254060 33.823560 L 262.791060 34.437860 L 260.337060 35.090660 L 257.895060 35.788160 L 255.484060 36.584860 L 253.081060 37.405660 L 250.682060 38.239560 L 248.285060 39.076860 L 245.887060 39.914160 L 243.490060 40.751460 L 241.092060 41.588560 L 238.694060 42.424360 L 236.294060 43.253160 L 233.891060 44.076060 L 231.487060 44.893360 L 229.077060 45.693160 L 226.660060 46.472960 L 224.238060 47.234960 L 221.810060 47.979960 L 219.381060 48.718960 L 216.951060 49.457360 L 214.521060 50.195660 L 212.091060 50.933660 L 209.660060 51.665860 L 207.224060 52.385660 L 204.786060 53.094560 L 202.355060 53.830460 L 199.935060 54.599460 L 197.523060 55.391760 L 195.116060 56.203160" fill="none" id="32" stroke="#008bd4" stroke-width="0.5" /><path d="M 268.203060 31.174860 L 264.611060 31.616160 L 261.075060 32.404060 L 257.622060 33.495360 L 254.207060 34.708260 L 250.797060 35.934160 L 247.385060 37.155360 L 243.968060 38.361960 L 240.548060 39.560560 L 237.129060 40.761360 L 233.717060 41.981860 L 230.308060 43.209760 L 226.898060 44.438260 L 223.489060 45.666760 L 220.080060 46.895260 L 216.671060 48.123760 L 213.254060 49.330660 L 209.825060 50.503460 L 206.389060 51.655960 L 202.952060 52.804760 L 199.519060 53.964060 L 196.093060 55.145660 L 192.672060 56.342560 L 189.251060 57.535860 L 185.818060 58.697860 L 182.367060 59.803660 L 178.910060 60.889560 L 175.462060 62.006360 L 172.020060 63.139860 L 168.589060 64.305160 L 165.173060 65.516060" fill="none" id="33" stroke="#008bd4" stroke-width="0.5" /><path d="M 253.392060 37.431960 L 248.725060 38.998360 L 244.096060 40.676660 L 239.536060 42.532860 L 235.009060 44.469560 L 230.456060 46.343960 L 225.862060 48.116060 L 221.250060 49.840060 L 216.631060 51.544360 L 212.008060 53.238160 L 207.384060 54.928160 L 202.747060 56.583360 L 198.101060 58.213960 L 193.453060 59.839660 L 188.806060 61.465360 L 184.158060 63.091060 L 179.511060 64.717460 L 174.953060 66.578160 L 170.411060 68.480260 L 165.809060 70.228860 L 161.202060 71.966860 L 156.596060 73.704860 L 151.989060 75.442860 L 147.382060 77.180960 L 142.776060 78.919160 L 138.208060 80.757160 L 133.714060 82.767560 L 129.178060 84.683660 L 124.639060 86.590360 L 120.085060 88.463760 L 115.528060 90.327660 L 110.972060 92.194960 L 106.421060 94.073660 L 101.872060 95.956160 L 97.322260 97.838560 L 92.772760 99.720960 L 88.223160 101.603060" fill="none" id="34" stroke="#008bd4" stroke-width="0.5" /><path d="M 95.950360 383.608060 L 96.565560 386.472060 L 97.276460 389.313060 L 98.115260 392.118060 L 99.071660 394.886060 L 100.109260 397.626060 L 101.181060 400.352060 L 102.269060 403.071060 L 103.346060 405.795060 L 104.399060 408.529060 L 105.420060 411.274060 L 106.420060 414.027060 L 107.430060 416.777060 L 108.491060 419.507060 L 109.540060 422.242060 L 110.547060 424.993060 L 111.533060 427.751060 L 112.536060 430.503060 L 113.590060 433.236060 L 114.691060 435.950060 L 115.802060 438.661060 L 116.879060 441.385060 L 117.928060 444.119060 L 118.985060 446.851060 L 120.093060 449.563060 L 121.288060 452.237060 L 122.527060 454.891060 L 123.766060 457.545060 L 125.002060 460.201060 L 126.243060 462.854060 L 127.485060 465.507060" fill="none" id="35" stroke="#fdb968" stroke-width="0.5" /><path d="M 223.771060 58.531360 L 223.771060 63.463160 L 223.771060 68.394960 L 223.771060 73.326760 L 223.771060 78.258560 L 223.771060 83.190360 L 223.771060 88.122160 L 223.771060 93.053860 L 223.771060 97.985660 L 223.771060 102.917060 L 223.771060 107.849060 L 223.771060 112.781060 L 223.771060 117.713060 L 223.771060 122.645060 L 223.771060 127.576060 L 223.771060 132.508060 L 223.771060 137.440060 L 223.771060 142.372060 L 223.771060 147.303060 L 223.771060 152.235060 L 223.771060 157.167060 L 223.771060 162.099060 L 223.771060 167.031060 L 223.771060 171.962060 L 223.771060 176.894060 L 223.771060 181.826060 L 223.771060 186.758060 L 223.771060 191.690060 L 223.753060 196.621060 L 223.665060 201.552060 L 223.514060 206.482060 L 223.364060 211.411060 L 223.213060 216.341060 L 223.062060 221.270060 L 222.907060 226.200060 L 222.719060 231.128060 L 222.474060 236.054060 L 222.220060 240.979060 L 221.965060 245.904060 L 221.710060 250.829060 L 221.455060 255.754060 L 221.200060 260.679060 L 220.945060 265.605060 L 220.690060 270.530060 L 220.436060 275.455060 L 220.224060 280.382060 L 220.397060 285.311060 L 220.365060 290.243060 L 220.228060 295.173060 L 220.083060 300.102060 L 219.908060 305.031060" fill="none" id="36" stroke="#6f73bc" stroke-width="0.5" /></svg>