<?xml version="1.0" encoding="utf-8" ?>
<svg baseProfile="full" height="318.5" version="1.1" viewBox="0,0,500.5,318.5" width="500.5" xmlns="http://www.w3.org/2000/svg" xmlns:ev="http://www.w3.org/2001/xml-events" xmlns:xlink="http://www.w3.org/1999/xlink"><defs><style type="text/css"><![CDATA[
	.background { fill: white; }
	.line { stroke: firebrick; stroke-width: .1mm; }
	.blacksquare { fill: indigo; }
	.whitesquare { fill: white; }
]]></style></defs><rect class="background" height="100%" width="100%" x="0" y="0" /><path d="M 211.138700 317.760100 L 213.509876 316.501647 L 216.962670 314.482188 L 220.415464 312.462730 L 223.883252 310.469882 L 227.399427 308.562919 L 230.915603 306.655956 L 234.369201 304.641853 L 237.757542 302.516026 L 241.145884 300.390199 L 244.534226 298.264372 L 247.922568 296.138545 L 251.310909 294.012719 L 254.699251 291.886892 L 258.087593 289.761065 L 260.701432 289.024574 L 264.136584 286.975250 L 267.571736 284.925925 L 271.006887 282.876600 L 274.440052 280.824006 L 277.840667 278.717869 L 281.241283 276.611732 L 284.641899 274.505596 L 288.042515 272.399459 L 291.443131 270.293322 L 294.831083 268.166882 L 298.218296 266.039257 L 301.605509 263.911632 L 304.992722 261.784007 L 308.379935 259.656382 L 311.771523 257.535770 L 315.171728 255.428970 L 318.571933 253.322170 L 321.972138 251.215371 L 325.372343 249.108571 L 328.772549 247.001771 L 332.183151 244.911955 L 335.605674 242.841608 L 339.028197 240.771260 L 342.450720 238.700913 L 345.873243 236.630566 L 349.295766 234.560219 L 352.721985 232.496018 L 356.155036 230.443175 L 359.588086 228.390332 L 363.021137 226.337489 L 366.454187 224.284646 L 369.887238 222.231803 L 373.336845 220.207700 L 376.834793 218.267504 L 380.332741 216.327308 L 383.830689 214.387112 L 387.328637 212.446915 L 390.826585 210.506719 L 394.327442 208.571820 L 397.841535 206.661023 L 401.355629 204.750226 L 404.869723 202.839429 L 408.383816 200.928632 L 411.897910 199.017835 L 415.422049 197.125888 L 418.967891 195.274671 L 422.513733 193.423454 L 426.059575 191.572237 L 429.605416 189.721020 L 433.154368 187.876021 L 436.762519 186.149392 L 440.370670 184.422763 L 443.978821 182.696134 L 447.586971 180.969505 L 451.204516 179.262788 L 454.831493 177.576062 L 458.458469 175.889337 L 462.085445 174.202611 L 465.712421 172.515886 L 469.339398 170.829160 L 472.985122 169.184425 L 476.662245 167.610015 L 477.727760 167.153800" fill="none" id="1" stroke="black" stroke-width="0.5" /><path d="M 38.242170 170.355090 L 41.887191 172.002459 L 45.532211 173.649828 L 49.204520 175.234095 L 52.901346 176.761667 L 56.598172 178.289239 L 60.277381 179.858069 L 63.937390 181.471866 L 67.597398 183.085663 L 71.257406 184.699460 L 74.892032 186.369469 L 78.522925 188.047748 L 82.153818 189.726026 L 85.784710 191.404304 L 89.363968 193.189935 L 92.941632 194.978878 L 96.519297 196.767820 L 100.096962 198.556762 L 103.697988 200.297918 L 107.307205 202.022316 L 110.916423 203.746713 L 114.525641 205.471111 L 118.134858 207.195509 L 121.744076 208.919907 L 125.353294 210.644305 L 128.962511 212.368703 L 132.571729 214.093101 L 136.186293 215.806187 L 139.809818 217.500313 L 143.433344 219.194438 L 147.056870 220.888563 L 150.680396 222.582688 L 154.308652 224.266524 L 157.953673 225.913893 L 161.598694 227.561261 L 165.243715 229.208630 L 168.888736 230.855998 L 172.533756 232.503367 L 176.171019 234.167786 L 179.807609 235.833684 L 183.444198 237.499582 L 187.080788 239.165479 L 190.717378 240.831377 L 194.353967 242.497275 L 197.990557 244.163172 L 201.627147 245.829070 L 205.263737 247.494968 L 208.900326 249.160866 L 212.564018 250.738608 L 216.272635 252.202789 L 219.946520 253.784740 L 223.620405 255.366692 L 227.294290 256.948643 L 230.968175 258.530595 L 234.642059 260.112546 L 238.315944 261.694497 L 241.989829 263.276449 L 245.663714 264.858400 L 249.337599 266.440352 L 252.961786 268.110280 L 256.675582 269.596122 L 260.389377 271.081963 L 264.103172 272.567805 L 267.816967 274.053647 L 271.530762 275.539489 L 275.223891 277.075720 L 278.911510 278.625386 L 282.599129 280.175052 L 286.286748 281.724719 L 289.974368 283.274385 L 293.646874 284.859427 L 297.315899 286.452616 L 300.984925 288.045805 L 304.653951 289.638993 L 308.314877 291.250463 L 311.959898 292.897831 L 315.604919 294.545200 L 319.249940 296.192568 L 322.861935 297.908196 L 326.415858 299.743852 L 329.969781 301.579508 L 332.842400 303.063260" fill="none" id="2" stroke="black" stroke-width="0.5" /><path d="M 0.250000 183.451290 L 3.972824 181.988219 L 7.695205 180.524061 L 11.377112 178.960872 L 15.059020 177.397684 L 18.743495 175.840657 L 22.445920 174.326707 L 26.148346 172.812757 L 29.850772 171.298807 L 33.558745 169.798577 L 37.272905 168.313648 L 40.987065 166.828718 L 44.701225 165.343788 L 48.415384 163.858859 L 52.113096 162.333454 L 55.810213 160.806585 L 59.507329 159.279716 L 63.204446 157.752847 L 66.901562 156.225977 L 70.620902 154.754183 L 74.342331 153.287565 L 78.063760 151.820947 L 81.785188 150.354329 L 85.506617 148.887711 L 89.228046 147.421094 L 92.949475 145.954476 L 96.670904 144.487858 L 100.392332 143.021240 L 104.113761 141.554623 L 107.835785 140.089523 L 111.563194 138.638171 L 115.290603 137.186820 L 119.018012 135.735468 L 122.745421 134.284117 L 126.472830 132.832765 L 130.212026 131.412467 L 133.963744 130.025165 L 137.715463 128.637864 L 141.467182 127.250562 L 145.218901 125.863260 L 148.970619 124.475958 L 152.742542 123.144862 L 156.518876 121.826036 L 160.295210 120.507210 L 164.071544 119.188384 L 167.847878 117.869558 L 171.621702 116.543653 L 175.385074 115.188282 L 179.148446 113.832912 L 182.911818 112.477541 L 186.675190 111.122170 L 190.438562 109.766799 L 194.221412 108.467309 L 198.011900 107.189734 L 201.802389 105.912159 L 205.592877 104.634583 L 209.383365 103.357008 L 213.173853 102.079433 L 216.964342 100.801857 L 220.754830 99.524282 L 224.545318 98.246707 L 228.335806 96.969131 L 232.119406 95.671373 L 235.899986 94.364770 L 239.680567 93.058167 L 243.461147 91.751564 L 247.233245 90.421113 L 250.989722 89.046749 L 254.746200 87.672386 L 258.502678 86.298022 L 262.280104 84.982821 L 266.064434 83.687117 L 269.848763 82.391413 L 273.578202 80.945803 L 277.142030 79.554770" fill="none" id="3" stroke="black" stroke-width="0.5" /><path d="M 231.422650 97.307390 L 235.409574 97.075192 L 239.360247 96.452648 L 243.350675 96.183881 L 247.347222 96.023124 L 251.344679 95.880494 L 255.342135 95.737863 L 259.341580 95.706750 L 262.331520 95.561230" fill="none" id="4" stroke="black" stroke-width="0.5" /><path d="M 91.688770 184.324370 L 95.232823 186.179010 L 98.790148 188.007438 L 102.382658 189.766379 L 105.973431 191.528831 L 109.551820 193.316324 L 113.130210 195.103816 L 116.708599 196.891309 L 120.286989 198.678801 L 123.865378 200.466294 L 127.472235 202.195616 L 131.079254 203.924610 L 134.687257 205.651516 L 138.314493 207.337685 L 141.941728 209.023853 L 145.568963 210.710022 L 149.228586 212.324573 L 152.890204 213.934716 L 156.551821 215.544859 L 160.254705 217.055966 L 163.976251 218.522285 L 167.697798 219.988603 L 171.425398 221.439252 L 175.166192 222.855748 L 178.906986 224.272244 L 182.653952 225.671532 L 186.442239 226.955621 L 190.230526 228.239709 L 194.016242 229.531054 L 197.767961 230.918355 L 201.519680 232.305657 L 205.261309 233.719059 L 208.970688 235.215892 L 212.680066 236.712726 L 216.337447 238.331185 L 219.982467 239.978555 L 223.600474 241.684086 L 227.201069 243.425764 L 230.754993 245.261418 L 234.049406 247.523274 L 236.723317 250.422874 L 236.896090 250.969480" fill="none" id="5" stroke="black" stroke-width="0.5" /><path d="M 305.153200 250.823970 L 308.952132 249.741104 L 312.361843 247.649724 L 315.687768 245.428477 L 318.998664 243.183936 L 322.376591 241.041974 L 325.761716 238.911030 L 329.156655 236.796016 L 332.582689 234.731484 L 336.008723 232.666952 L 339.434757 230.602421 L 342.896153 228.597945 L 346.363464 226.603514 L 349.830775 224.609082 L 353.298085 222.614651 L 356.789460 220.662834 L 360.287983 218.723676 L 363.786507 216.784518 L 367.285031 214.845360 L 370.783554 212.906203 L 374.328829 211.054215 L 377.879683 209.212630 L 381.430537 207.371045 L 384.981391 205.529460 L 388.532245 203.687875 L 392.086191 201.852285 L 395.645579 200.027248 L 399.204966 198.202211 L 402.764354 196.377174 L 406.323741 194.552137 L 409.883129 192.727100 L 413.442516 190.902062 L 417.001904 189.077025 L 420.561291 187.251988 L 424.120679 185.426951 L 427.680066 183.601914 L 431.239454 181.776876 L 434.798841 179.951839 L 438.358229 178.126802 L 441.917616 176.301765 L 445.477004 174.476728 L 448.988064 172.560691 L 452.493417 170.633906 L 455.998770 168.707121 L 459.450604 166.688847 L 462.848034 164.577576 L 466.184922 162.380646 L 469.308999 159.882618 L 472.180961 157.104774 L 473.220220 155.221700" fill="none" id="6" stroke="black" stroke-width="0.5" /><path d="M 279.717770 92.941990 L 283.650735 93.671225 L 287.583701 94.400460 L 291.516666 95.129695 L 295.434236 95.936630 L 299.348133 96.762110 L 303.262029 97.587590 L 307.175925 98.413070 L 311.089821 99.238549 L 314.993020 100.113003 L 318.894642 100.994675 L 322.794375 101.884149 L 326.667304 102.884359 L 330.540233 103.884570 L 334.414390 104.879948 L 338.295177 105.849221 L 342.175964 106.818494 L 346.056630 107.788221 L 349.903002 108.886139 L 353.749374 109.984056 L 357.595746 111.081974 L 361.428593 112.225997 L 365.258524 113.379957 L 369.088456 114.533918 L 372.943324 115.598217 L 376.819088 116.587385 L 380.694852 117.576554 L 384.570616 118.565723 L 388.446379 119.554891 L 392.322143 120.544060 L 396.197907 121.533228 L 400.081712 122.489704 L 403.974125 123.411180 L 407.866539 124.332656 L 411.759265 125.252677 L 415.686908 126.010052 L 419.614551 126.767427 L 423.542195 127.524802 L 427.469838 128.282177 L 431.397482 129.039552 L 435.325125 129.796927 L 439.262030 130.504289 L 443.200433 131.203562 L 447.128175 131.958819 L 451.047931 132.756009 L 451.326430 132.812650" fill="none" id="7" stroke="black" stroke-width="0.5" /><path d="M 26.651340 170.646120 L 30.649257 170.775179 L 34.648992 170.791630 L 38.648992 170.791630 L 42.648992 170.791630 L 46.648992 170.791630 L 50.648992 170.791630 L 54.648992 170.791630 L 58.648992 170.791630 L 62.648992 170.791630 L 66.648992 170.791630 L 70.648992 170.791630 L 74.648909 170.772203 L 78.648764 170.738096 L 82.648618 170.703989 L 86.648473 170.669881 L 90.648072 170.619157 L 94.647084 170.530270 L 98.646097 170.441384 L 102.645109 170.352498 L 106.644121 170.263612 L 110.642680 170.158239 L 114.640537 170.027308 L 118.638393 169.896377 L 122.636250 169.765447 L 126.634106 169.634516 L 130.631963 169.503586 L 134.631078 169.422418 L 138.630442 169.351069 L 142.629806 169.279720 L 146.629169 169.208371 L 150.628533 169.137021 L 154.627896 169.065672 L 158.627020 168.982269 L 162.626048 168.894106 L 166.625076 168.805942 L 170.624104 168.717779 L 174.623133 168.629615 L 178.622161 168.541452 L 182.621242 168.456088 L 186.620734 168.392292 L 190.620225 168.328495 L 194.619716 168.264699 L 198.619207 168.200902 L 202.618699 168.137105 L 206.618190 168.073309 L 210.617761 168.015599 L 214.617546 167.974162 L 218.617332 167.932724 L 222.617117 167.891287 L 226.616903 167.849849 L 230.616688 167.808412 L 234.616473 167.766974 L 238.616259 167.725537 L 242.616044 167.684099 L 246.615829 167.642662 L 250.615615 167.601224 L 254.615400 167.559787 L 258.615185 167.518349 L 262.614971 167.476912 L 266.614756 167.435474 L 270.614542 167.394037 L 274.614327 167.352599 L 278.614112 167.311162 L 282.613898 167.269725 L 286.613683 167.228287 L 290.613468 167.186850 L 294.613254 167.145412 L 298.613039 167.103975 L 302.612824 167.062537 L 306.612610 167.021100 L 310.612395 166.979662 L 314.612180 166.938225 L 318.611966 166.896787 L 322.611521 166.843158 L 326.610021 166.733635 L 330.608522 166.624113 L 334.607022 166.514591 L 338.605522 166.405068 L 342.604023 166.295546 L 346.602523 166.186023 L 350.601023 166.076501 L 354.599524 165.966979 L 358.598024 165.857456 L 362.596524 165.747934 L 366.595025 165.638411 L 370.593525 165.528889 L 374.592025 165.419366 L 378.589413 165.275313 L 382.586666 165.127118 L 386.583920 164.978924 L 390.581174 164.830729 L 394.578428 164.682535 L 398.575682 164.534340 L 402.572936 164.386146 L 406.570190 164.237952 L 410.567443 164.089757 L 414.564697 163.941563 L 418.561951 163.793368 L 422.559205 163.645174 L 426.556459 163.496979 L 430.553713 163.348785 L 434.550967 163.200591 L 438.548221 163.052396 L 442.545474 162.904202 L 446.542728 162.756007 L 450.539982 162.607813 L 454.537236 162.459618 L 458.534921 162.325509 L 462.533755 162.228937 L 466.532589 162.132364 L 470.531423 162.035792 L 474.530257 161.939219 L 478.529091 161.842647 L 482.527925 161.746074 L 486.526759 161.649502 L 490.525593 161.552929 L 494.524427 161.456356 L 498.523261 161.359784 L 499.621550 161.333260" fill="none" id="8" stroke="black" stroke-width="0.5" /><path d="M 249.774790 0.250000 L 250.064213 4.239516 L 250.353636 8.229031 L 250.575316 12.222716 L 250.777338 16.217611 L 250.979361 20.212506 L 251.181383 24.207402 L 251.383406 28.202297 L 251.585429 32.197192 L 251.787451 36.192087 L 251.989474 40.186982 L 252.191496 44.181877 L 252.173705 48.134612 L 252.362809 52.130140 L 252.551914 56.125667 L 252.741018 60.121195 L 252.930122 64.116722 L 253.119227 68.112249 L 253.308331 72.107777 L 253.434037 76.105779 L 253.556903 80.103891 L 253.679769 84.102004 L 253.802634 88.100116 L 253.925500 92.098229 L 254.048366 96.096341 L 254.171232 100.094454 L 254.294097 104.092566 L 254.416963 108.090679 L 254.539829 112.088792 L 254.662694 116.086904 L 254.785560 120.085017 L 254.908426 124.083129 L 255.031291 128.081242 L 255.154157 132.079354 L 255.269391 136.077670 L 255.359680 140.076651 L 255.449968 144.075632 L 255.540257 148.074613 L 255.630545 152.073594 L 255.720834 156.072575 L 255.811122 160.071556 L 255.901411 164.070536 L 255.991699 168.069517 L 256.081988 172.068498 L 256.172276 176.067479 L 256.262565 180.066460 L 256.352853 184.065441 L 256.443142 188.064422 L 256.533430 192.063402 L 256.646166 196.061812 L 256.759587 200.060203 L 256.873009 204.058595 L 256.986431 208.056986 L 257.099853 212.055378 L 257.243201 216.052538 L 257.458756 220.046726 L 257.674310 224.040913 L 257.889865 228.035101 L 258.105420 232.029289 L 258.533719 236.004965 L 259.011283 239.976354 L 259.488847 243.947744 L 259.986821 247.916558 L 260.510660 251.882108 L 261.034499 255.847659 L 261.043650 255.916930" fill="none" id="9" stroke="black" stroke-width="0.5" /><path d="M 114.870420 97.161880 L 118.870420 97.161880 L 122.870420 97.161880 L 126.864887 96.990305 L 130.856576 96.732583 L 134.848265 96.474861 L 138.842383 96.258777 L 142.836955 96.050468 L 146.831527 95.842158 L 150.826100 95.633849 L 154.822566 95.468764 L 158.820047 95.326813 L 162.817527 95.184861 L 166.815008 95.042910 L 170.812488 94.900958 L 174.809968 94.759007 L 178.807449 94.617055 L 182.804929 94.475104 L 186.802410 94.333152 L 190.799890 94.191201 L 194.797371 94.049249 L 198.795394 93.925794 L 202.794320 93.833110 L 206.793246 93.740426 L 210.792172 93.647742 L 214.791098 93.555058 L 218.790024 93.462374 L 222.788888 93.367339 L 226.787167 93.250001 L 230.785446 93.132663 L 234.783724 93.015325 L 238.782003 92.897986 L 242.780281 92.780648 L 246.778560 92.663310 L 250.777824 92.587953 L 254.777204 92.517530 L 258.776584 92.447108 L 262.775964 92.376685 L 266.775344 92.306262 L 270.774724 92.235839 L 274.774485 92.197653 L 278.774413 92.173549 L 282.774340 92.149444 L 286.774267 92.125339 L 290.774195 92.101234 L 294.774122 92.077130 L 298.774097 92.068910 L 302.774097 92.068910 L 306.774097 92.068910 L 310.774097 92.068910 L 314.774097 92.068910 L 318.774097 92.068910 L 322.774097 92.068910 L 326.774097 92.068910 L 330.774097 92.068910 L 334.774097 92.068910 L 338.774097 92.068910 L 342.774097 92.068910 L 346.774097 92.068910 L 350.774097 92.068910 L 354.774097 92.068910 L 358.774097 92.068910 L 362.773747 92.043033 L 366.772277 91.934605 L 370.770807 91.826176 L 374.769337 91.717748 L 378.767867 91.609320 L 382.766397 91.500892 L 386.764927 91.392463 L 390.763458 91.284035 L 394.761633 91.165204 L 398.758261 91.000997 L 402.754889 90.836790 L 406.752890 90.717795 L 410.752118 90.639212 L 414.751868 90.613780 L 416.231980 90.613780" fill="none" id="10" stroke="black" stroke-width="0.5" /><path d="M 243.657410 13.055170 L 243.657410 17.055170 L 243.956149 21.038964 L 244.388865 25.015489 L 244.959034 28.971761 L 245.691731 32.904083 L 246.424428 36.836404 L 247.157126 40.768726 L 247.846317 44.708891 L 248.532868 48.649531 L 249.219419 52.590172 L 249.905971 56.530812 L 250.576796 60.474065 L 251.201226 64.425025 L 251.825656 68.375986 L 252.450086 72.326946 L 253.074516 76.277906 L 253.698946 80.228867 L 254.296284 84.183945 L 254.874111 88.141990 L 255.451938 92.100034 L 256.029766 96.058078 L 256.607593 100.016123 L 257.185421 103.974167 L 257.763248 107.932212 L 258.341075 111.890256 L 258.918903 115.848300 L 259.496730 119.806345 L 260.074557 123.764389 L 260.652385 127.722434 L 261.230212 131.680478 L 261.808040 135.638522 L 262.385867 139.596567 L 262.963694 143.554611 L 263.541522 147.512656 L 264.119349 151.470700 L 264.656641 155.434380 L 265.180480 159.399931 L 265.704319 163.365482 L 266.228158 167.331033 L 266.751997 171.296583 L 267.378494 175.246945 L 268.025457 179.194278 L 268.672420 183.141611 L 269.319382 187.088944 L 270.026102 191.025937 L 270.743162 194.961140 L 271.460221 198.896344 L 272.262739 202.814616 L 273.100258 206.725953 L 273.600390 209.061640" fill="none" id="11" stroke="black" stroke-width="0.5" /><path d="M 244.301350 22.804560 L 244.386555 26.801618 L 244.623310 30.793443 L 244.623310 34.793443 L 244.713077 38.791802 L 244.859271 42.789129 L 245.005464 46.786457 L 245.151657 50.783784 L 245.292790 54.781282 L 245.414809 58.779420 L 245.536827 62.777559 L 245.658846 66.775697 L 245.780864 70.773836 L 245.902883 74.771974 L 246.180922 78.762076 L 246.470345 82.751592 L 246.555120 83.920170" fill="none" id="12" stroke="black" stroke-width="0.5" /><path d="M 111.328780 85.229790 L 114.986134 85.058126 L 118.708245 83.640796 L 122.338786 81.962167 L 125.952529 80.247273 L 129.587573 78.578367 L 133.232595 76.930999 L 136.896545 75.329051 L 140.632669 73.900284 L 144.368793 72.471517 L 148.104918 71.042749 L 151.866504 69.682787 L 155.632694 68.335266 L 159.398884 66.987745 L 163.165074 65.640224 L 166.951875 64.352296 L 170.745792 63.084937 L 174.539708 61.817577 L 178.333624 60.550218 L 182.127540 59.282859 L 185.921457 58.015500 L 189.715373 56.748140 L 193.509289 55.480781 L 197.303206 54.213422 L 201.097122 52.946063 L 204.891038 51.678704 L 208.684954 50.411344 L 212.478871 49.143985 L 216.271891 47.873984 L 220.054653 46.573709 L 223.837414 45.273434 L 227.620176 43.973159 L 231.402938 42.672884 L 235.185699 41.372609 L 238.965693 40.064930 L 242.673978 38.565389 L 246.288884 36.874074 L 249.525278 34.577310 L 250.418730 31.535370" fill="none" id="13" stroke="black" stroke-width="0.5" /><path d="M 245.589220 39.393090 L 249.424414 40.507598 L 253.320173 41.412932 L 257.244076 42.189454 L 261.167978 42.965977 L 265.091881 43.742500 L 269.015784 44.519023 L 272.939686 45.295545 L 276.863589 46.072068 L 280.787492 46.848591 L 284.711395 47.625114 L 288.635297 48.401636 L 292.559200 49.178159 L 296.483103 49.954682 L 300.407005 50.731205 L 304.330908 51.507728 L 308.252782 52.294276 L 312.169879 53.104429 L 316.086977 53.914582 L 320.004074 54.724735 L 323.921172 55.534887 L 327.831327 56.377122 L 331.732950 57.258792 L 335.634572 58.140462 L 339.536195 59.022132 L 343.437817 59.903802 L 347.328885 60.829809 L 351.209285 61.800633 L 355.089684 62.771457 L 358.970084 63.742281 L 362.850484 64.713105 L 366.721417 65.720885 L 370.590691 66.735144 L 374.459964 67.749402 L 378.329238 68.763661 L 382.191090 69.805645 L 386.049611 70.860070 L 389.908133 71.914496 L 393.768646 72.961346 L 397.646661 73.941652 L 401.524676 74.921959 L 405.402691 75.902266 L 409.280706 76.882573 L 413.172510 77.796987 L 417.118186 78.453978 L 421.093928 78.850082 L 425.089973 78.972710 L 429.089973 78.972710 L 433.089973 78.972710 L 433.618220 78.972710" fill="none" id="14" stroke="black" stroke-width="0.5" /><path d="M 429.432640 94.251610 L 425.762131 95.841379 L 422.091623 97.431148 L 418.471220 99.131430 L 414.856710 100.844706 L 411.242200 102.557983 L 407.627690 104.271260 L 404.013180 105.984536 L 400.398670 107.697813 L 396.784160 109.411089 L 393.236549 111.257792 L 389.701397 113.129343 L 386.166246 115.000893 L 382.631094 116.872444 L 379.353092 118.687868 L 376.216910 120.613679 L 372.754782 122.617093 L 369.292654 124.620507 L 365.830526 126.623922 L 362.368398 128.627336 L 358.906269 130.630750 L 355.444141 132.634165 L 351.982013 134.637579 L 348.519885 136.640993 L 345.057800 138.644482 L 341.603341 140.661091 L 338.148882 142.677700 L 334.694423 144.694309 L 331.239963 146.710918 L 327.754292 148.672178 L 324.241146 150.584717 L 320.728000 152.497256 L 317.214855 154.409795 L 313.635851 156.189909 L 309.990829 157.837277 L 306.345808 159.484645 L 302.700787 161.132012 L 299.004278 162.660158 L 295.305966 164.184129 L 291.607398 165.707453 L 287.867815 167.127144 L 284.128232 168.546834 L 283.581380 168.754440" fill="none" id="15" stroke="black" stroke-width="0.5" /><path d="M 118.412070 106.765760 L 122.103697 108.305854 L 125.879051 109.624196 L 129.664194 110.917342 L 133.433591 112.255868 L 137.202987 113.594394 L 141.008834 114.823902 L 144.825278 116.021712 L 148.641723 117.219522 L 152.443479 118.462841 L 156.240010 119.722344 L 160.036542 120.981846 L 163.833074 122.241349 L 167.629606 123.500852 L 171.426137 124.760354 L 175.222669 126.019857 L 179.019201 127.279360 L 182.787297 128.620688 L 186.546702 129.987021 L 190.306108 131.353355 L 194.065514 132.719689 L 197.824920 134.086023 L 201.584326 135.452356 L 205.343731 136.818690 L 209.103137 138.185024 L 212.862543 139.551357 L 216.554121 141.083970 L 220.273827 142.554952 L 223.993533 144.025934 L 227.713239 145.496916 L 231.424567 146.988754 L 235.128227 148.499681 L 238.831887 150.010609 L 242.535548 151.521536 L 246.239208 153.032463 L 249.942868 154.543391 L 253.646528 156.054318 L 257.350188 157.565245 L 261.053848 159.076173 L 264.757509 160.587100 L 268.483854 162.040616 L 272.219978 163.469383 L 275.929070 164.964879 L 279.606193 166.539289 L 283.328470 168.002479 L 287.056199 169.451814 L 289.698760 170.064060" fill="none" id="16" stroke="black" stroke-width="0.5" /><path d="M 414.622140 103.418950 L 410.626346 103.540076 L 406.719989 104.224180 L 402.946344 105.550681 L 399.227446 107.022284 L 395.518068 108.519117 L 391.850084 110.110144 L 388.238908 111.830438 L 384.627732 113.550731 L 381.021042 115.280194 L 377.446438 117.075243 L 373.871833 118.870293 L 370.297229 120.665342 L 366.724917 122.464856 L 363.183315 124.324171 L 359.641712 126.183487 L 356.100110 128.042803 L 352.558508 129.902118 L 349.016906 131.761434 L 345.475304 133.620749 L 341.933702 135.480065 L 338.392100 137.339381 L 334.847128 139.192062 L 331.256943 140.955744 L 327.666758 142.719425 L 324.076573 144.483106 L 320.486388 146.246787 L 316.858752 147.931962 L 313.228899 149.612488 L 309.599046 151.293013 L 305.976582 152.989209 L 302.370767 154.720710 L 298.764952 156.452212 L 295.141491 158.145848 L 291.496471 159.793218 L 287.871708 161.483758 L 284.289953 163.263610 L 282.937440 164.098020" fill="none" id="17" stroke="black" stroke-width="0.5" /><path d="M 170.248830 90.613780 L 174.037117 89.329692 L 177.809745 88.002172 L 181.545869 86.573405 L 185.285103 85.153261 L 189.073390 83.869173 L 192.861676 82.585085 L 196.643894 81.283485 L 200.414326 79.947879 L 204.184758 78.612273 L 207.958410 77.285960 L 211.746697 76.001872 L 215.534984 74.717783 L 219.323271 73.433695 L 223.126426 72.194590 L 226.933756 70.968117 L 230.741087 69.741643 L 234.548417 68.515170 L 238.355747 67.288697 L 242.163077 66.062223 L 245.970407 64.835750 L 249.777737 63.609276 L 253.598827 62.426547 L 257.422702 61.252674 L 261.246577 60.078801 L 265.070453 58.904928 L 268.894328 57.731055 L 272.718203 56.557182 L 276.542078 55.383308 L 280.365954 54.209435 L 284.189829 53.035562 L 288.022256 51.889957 L 291.855565 50.747266 L 295.688874 49.604575 L 299.522183 48.461885 L 303.355492 47.319194 L 307.188801 46.176504 L 311.022110 45.033813 L 314.855656 43.891946 L 318.709990 42.822316 L 322.564325 41.752686 L 326.418659 40.683056 L 330.272993 39.613426 L 334.106106 38.476616 L 337.875502 37.138088 L 341.644898 35.799561 L 345.414293 34.461033 L 349.306869 33.614409 L 353.286272 33.281530 L 353.770290 32.699470" fill="none" id="18" stroke="black" stroke-width="0.5" /><path d="M 355.058160 30.807800 L 352.069194 30.492132 L 348.649921 32.563375 L 345.125709 34.449873 L 341.527898 36.195242 L 337.882876 37.842608 L 334.169541 39.312079 L 330.358765 40.527806 L 326.547990 41.743534 L 322.728888 42.932564 L 318.902679 44.098808 L 315.076470 45.265051 L 311.250261 46.431295 L 307.390836 47.481817 L 303.528568 48.522435 L 299.666300 49.563053 L 295.804032 50.603670 L 291.948174 51.667602 L 288.096840 52.747982 L 284.245505 53.828362 L 280.394170 54.908742 L 276.542836 55.989123 L 272.699420 57.097212 L 268.858822 58.215160 L 265.018224 59.333108 L 261.177626 60.451055 L 257.337028 61.569003 L 253.511576 62.737414 L 249.690115 63.919121 L 245.868653 65.100829 L 242.047192 66.282536 L 238.225730 67.464243 L 234.447069 68.776306 L 230.668880 70.089809 L 226.890691 71.403312 L 223.112502 72.716815 L 219.344845 74.059936 L 215.585538 75.426541 L 211.826230 76.793145 L 208.066923 78.159750 L 204.328070 79.580630 L 200.601856 81.035048 L 196.875643 82.489466 L 193.149429 83.943884 L 189.423216 85.398302 L 185.697002 86.852720 L 181.970788 88.307138 L 178.244575 89.761556 L 174.518361 91.215975 L 170.793011 92.672588 L 167.074411 94.146365 L 163.355812 95.620141 L 159.637212 97.093917 L 155.918613 98.567694 L 152.200013 100.041470 L 148.494509 101.547444 L 144.802881 103.087537 L 141.134735 104.679140 L 137.550866 106.455622 L 133.966998 108.232104 L 130.551477 110.281398 L 129.358960 111.713210" fill="none" id="19" stroke="black" stroke-width="0.5" /><path d="M 177.332110 42.157840 L 174.248830 42.157840 L 178.243890 42.281917 L 182.230610 42.605173 L 186.182541 43.223430 L 190.134472 43.841687 L 194.060192 44.607331 L 197.982974 45.389494 L 201.906443 46.168138 L 205.835547 46.917902 L 209.764650 47.667667 L 213.693753 48.417431 L 217.617801 49.192626 L 221.534898 50.002779 L 225.451996 50.812932 L 229.369093 51.623085 L 233.286191 52.433237 L 237.203288 53.243390 L 241.120385 54.053543 L 245.037483 54.863696 L 248.954580 55.673849 L 252.871678 56.484001 L 256.794440 57.266065 L 260.719382 58.037317 L 264.644324 58.808568 L 268.569266 59.579820 L 272.494208 60.351072 L 276.418703 61.124549 L 280.336411 61.931740 L 284.254120 62.738932 L 288.171829 63.546123 L 292.089538 64.353314 L 296.007246 65.160506 L 299.922797 65.978027 L 303.835947 66.807035 L 307.749098 67.636043 L 311.662248 68.465050 L 315.575398 69.294058 L 319.487590 70.127533 L 323.396121 70.978050 L 327.304653 71.828568 L 331.213185 72.679085 L 335.121717 73.529602 L 339.040224 74.332441 L 342.961891 75.120176 L 346.883558 75.907910 L 350.806920 76.686331 L 354.754690 77.330623 L 358.702460 77.974915 L 362.652401 78.604594 L 366.617011 79.135501 L 370.581622 79.666409 L 374.573403 79.911504 L 376.654604 79.736064 L 372.794027 78.689190 L 368.892699 77.806332 L 364.981763 76.969325 L 361.052939 76.218099 L 357.119730 75.491820 L 353.170196 74.858434 L 349.220662 74.225047 L 347.974870 74.025260" fill="none" id="20" stroke="black" stroke-width="0.5" /><path d="M 142.881590 10.435930 L 142.881590 14.435930 L 142.881590 18.435930 L 142.881590 22.435930 L 142.881590 26.435930 L 142.881590 30.435930 L 142.881590 34.435930 L 142.876771 38.435874 L 142.783634 42.434789 L 142.690496 46.433705 L 142.597359 50.432620 L 142.504221 54.431536 L 142.411084 58.430452 L 142.317946 62.429367 L 142.210852 66.427781 L 142.016565 70.423060 L 141.822277 74.418338 L 141.627990 78.413617 L 141.433702 82.408896 L 141.239415 86.404175 L 141.045127 90.399453 L 140.824815 94.393300 L 140.579428 98.385766 L 140.334041 102.378232 L 140.175379 106.374961 L 140.027974 110.372244 L 139.829035 114.367152 L 139.572475 118.358419 L 139.339950 122.347723 L 139.339950 122.626720" fill="none" id="21" stroke="black" stroke-width="0.5" /><path d="M 135.154370 19.748780 L 135.154370 23.748780 L 135.154370 27.748780 L 135.283521 31.744177 L 135.568300 35.734026 L 135.819579 39.725534 L 135.930169 43.724005 L 136.040759 47.722476 L 136.120280 51.721377 L 136.120280 55.721377 L 136.120280 59.721377 L 136.120280 63.721377 L 136.120280 67.721377 L 136.120280 71.721377 L 136.120280 75.721377 L 136.120280 79.721377 L 136.120280 83.721377 L 136.120280 87.721377 L 136.120280 91.721377 L 136.120280 95.721377 L 136.120280 99.721377 L 136.120280 103.721377 L 136.120280 107.721377 L 136.120280 111.721377 L 136.120280 115.721377 L 136.212371 117.386936 L 136.442240 113.396004 L 136.442240 109.396004 L 136.442240 105.396004 L 136.442240 101.396004 L 136.442240 98.325990" fill="none" id="22" stroke="black" stroke-width="0.5" /><path d="M 136.120280 29.789210 L 136.120280 33.789210 L 136.236083 37.786903 L 136.395424 41.783728 L 136.554765 45.780553 L 136.714106 49.777378 L 136.913803 53.772296 L 137.132009 57.766340 L 137.350215 61.760384 L 137.568421 65.754428 L 137.786628 69.748471 L 138.004834 73.742515 L 138.130853 77.740235 L 138.231397 81.738972 L 138.331940 85.737708 L 138.374050 89.737178 L 138.374050 93.737178 L 138.374050 97.737178 L 138.374050 99.926630" fill="none" id="23" stroke="black" stroke-width="0.5" /><path d="M 354.092250 17.711600 L 355.179006 17.126119 L 356.856546 20.752492 L 358.379191 24.451350 L 359.783261 28.196459 L 361.167240 31.949405 L 362.427183 35.740514 L 363.392247 39.622350 L 364.357311 43.504186 L 365.322375 47.386022 L 366.355693 51.250223 L 367.391865 55.113686 L 368.428038 58.977149 L 369.443356 62.845945 L 370.389301 66.732485 L 371.335245 70.619024 L 372.281190 74.505564 L 373.191798 78.400356 L 374.065198 82.303838 L 374.938598 86.207320 L 375.873041 90.094115 L 377.106856 93.899072 L 378.340671 97.704030 L 379.574486 101.508987 L 380.808301 105.313944 L 382.285768 109.027765 L 382.747360 110.112570" fill="none" id="24" stroke="black" stroke-width="0.5" /><path d="M 367.614890 17.420570 L 367.953511 21.388743 L 368.764892 25.302447 L 369.927249 29.129839 L 371.055661 32.966798 L 372.063319 36.837796 L 373.070977 40.708794 L 374.143010 44.562168 L 375.247726 48.406592 L 376.352443 52.251017 L 377.345021 56.125326 L 378.299975 60.009661 L 379.254929 63.893997 L 380.307510 67.752494 L 381.399124 71.600659 L 382.490738 75.448825 L 383.703965 79.259745 L 384.954567 83.059218 L 386.205169 86.858690 L 387.455771 90.658163 L 388.700483 94.459537 L 389.906055 98.273537 L 391.440258 101.963318 L 392.084410 102.400360" fill="none" id="25" stroke="black" stroke-width="0.5" /><path d="M 364.073240 19.603270 L 364.418228 20.538760 L 365.809600 24.288883 L 367.279478 28.009025 L 368.749356 31.729168 L 370.318612 35.408310 L 371.899447 39.082676 L 373.470213 42.761013 L 374.823601 46.525098 L 376.176989 50.289184 L 377.530377 54.053270 L 379.000812 57.773085 L 380.477200 61.490648 L 381.953588 65.208212 L 383.486333 68.902839 L 385.025444 72.594877 L 386.570226 76.284521 L 388.141015 79.963192 L 389.711803 83.641864 L 391.326874 87.301284 L 392.934041 90.964069 L 394.466839 94.658732 L 395.777177 98.435840 L 395.948020 99.053550" fill="none" id="26" stroke="black" stroke-width="0.5" /><path d="M 365.361110 21.931480 L 366.443350 25.771587 L 367.953116 29.475721 L 369.413219 33.199613 L 370.860714 36.928522 L 372.222008 40.688922 L 373.519119 44.472770 L 374.816230 48.256617 L 376.012722 52.073202 L 377.190446 55.895893 L 378.368170 59.718584 L 379.484888 63.559436 L 380.589605 67.403860 L 381.694321 71.248285 L 382.709635 75.117187 L 383.717293 78.988185 L 384.766091 82.847829 L 385.886477 86.687717 L 387.006864 90.527604 L 388.127250 94.367491 L 389.101857 98.241405 L 388.330135 94.840459 L 386.950121 91.091739 L 385.417321 87.397077 L 385.001130 86.393890" fill="none" id="27" stroke="black" stroke-width="0.5" /><path d="M 194.396390 13.200680 L 190.400090 13.372694 L 186.403791 13.544708 L 182.407491 13.716723 L 178.410194 13.862269 L 174.412277 13.991330 L 170.414360 14.120392 L 166.417756 14.277282 L 162.425457 14.525375 L 158.433158 14.773468 L 154.440860 15.021561 L 150.448561 15.269654 L 146.456262 15.517747 L 142.463963 15.765841 L 138.479593 16.115028 L 134.497434 16.492394 L 130.515274 16.869759 L 126.533115 17.247125 L 122.550955 17.624491 L 118.576605 18.074960 L 114.604599 18.547367 L 110.632593 19.019773 L 106.690741 19.662247 L 110.289154 19.748780 L 114.289154 19.748780 L 118.289154 19.748780 L 122.289081 19.736818 L 126.288782 19.687963 L 130.288484 19.639109 L 134.287133 19.554175 L 138.282887 19.369900 L 142.278640 19.185626 L 146.274393 19.001351 L 150.270625 18.828592 L 154.267883 18.680514 L 158.265141 18.532437 L 162.262399 18.384359 L 166.259657 18.236282 L 170.257486 18.106341 L 174.256152 18.003071 L 178.254819 17.899801 L 182.253486 17.796532 L 186.252153 17.693262 L 190.250819 17.589992 L 194.249995 17.509770 L 198.249323 17.436493 L 202.248652 17.363216 L 206.247981 17.289940 L 210.247310 17.216663 L 214.246638 17.143386 L 218.246512 17.129540 L 222.246512 17.129540 L 226.246512 17.129540 L 230.246512 17.129540 L 234.246512 17.129540 L 238.246512 17.129540 L 242.246512 17.129540 L 246.246512 17.129540 L 250.246512 17.129540 L 254.246512 17.129540 L 258.246512 17.129540 L 262.246512 17.129540 L 266.246512 17.129540 L 270.246512 17.129540 L 274.246512 17.129540 L 278.246512 17.129540 L 282.246512 17.129540 L 286.246512 17.129540 L 290.246512 17.129540 L 294.246512 17.129540 L 298.246512 17.129540 L 302.246512 17.129540 L 306.246512 17.129540 L 310.246512 17.129540 L 314.246512 17.129540 L 318.246512 17.129540 L 322.246512 17.129540 L 326.246467 17.138047 L 330.246246 17.180088 L 334.246025 17.222130 L 338.245804 17.264171 L 342.245747 17.275060 L 346.245747 17.275060 L 350.245747 17.275060 L 354.245747 17.275060 L 357.022053 17.275060 L 353.022053 17.275060 L 349.022053 17.275060 L 345.023094 17.228960 L 342.823390 17.129540" fill="none" id="28" stroke="black" stroke-width="0.5" /><path d="M 95.874340 27.752020 L 99.874340 27.752020 L 103.855841 27.446841 L 107.826554 26.963685 L 111.800704 26.510586 L 115.777984 26.084855 L 119.755263 25.659124 L 123.736235 25.271798 L 127.721771 24.931937 L 131.707307 24.592077 L 135.692842 24.252216 L 139.679272 23.924062 L 143.670203 23.654854 L 147.661133 23.385645 L 151.652064 23.116436 L 155.642994 22.847227 L 159.633925 22.578019 L 163.629120 22.387021 L 167.625659 22.220656 L 171.622198 22.054291 L 175.618737 21.887926 L 179.615276 21.721561 L 183.611814 21.555196 L 187.609167 21.410618 L 191.606982 21.278412 L 195.604796 21.146206 L 199.602611 21.014000 L 203.600425 20.881794 L 207.598240 20.749588 L 211.596111 20.619699 L 215.595603 20.555903 L 219.595094 20.492106 L 223.594585 20.428309 L 227.594076 20.364513 L 231.593567 20.300716 L 235.593059 20.236920 L 239.592604 20.177188 L 243.592378 20.134654 L 247.592152 20.092120 L 251.591926 20.049587 L 255.591699 20.007053 L 259.591473 19.964519 L 263.591247 19.921985 L 267.591021 19.879451 L 271.590795 19.836917 L 275.590569 19.794383 L 279.590342 19.751849 L 283.590116 19.709316 L 287.589890 19.666782 L 291.589664 19.624248 L 295.589552 19.603270 L 299.589552 19.603270 L 303.589552 19.603270 L 307.589552 19.603270 L 311.589552 19.603270 L 315.589552 19.603270 L 319.589552 19.603270 L 323.589552 19.603270 L 327.589552 19.603270 L 331.589552 19.603270 L 335.589552 19.603270 L 339.589552 19.603270 L 343.589552 19.603270 L 347.589552 19.603270 L 351.589552 19.603270 L 355.589552 19.603270 L 359.589552 19.603270 L 363.589552 19.603270 L 367.589552 19.603270 L 371.583780 19.407263 L 375.576848 19.171872 L 379.426062 18.239992 L 378.328658 15.833552 L 374.503126 14.671516 L 370.589748 13.875848 L 367.614890 13.491710" fill="none" id="29" stroke="black" stroke-width="0.5" /><path d="M 135.476340 32.699470 L 139.476340 32.699470 L 143.463471 32.399929 L 147.447374 32.042750 L 151.424947 31.619769 L 155.402520 31.196787 L 159.383548 30.809975 L 163.369263 30.472223 L 167.354978 30.134471 L 171.340693 29.796719 L 175.327609 29.473736 L 179.315521 29.162989 L 183.303432 28.852241 L 187.291343 28.541494 L 191.279254 28.230747 L 195.271260 27.979074 L 199.263909 27.736682 L 203.256558 27.494289 L 207.249207 27.251896 L 211.241856 27.009503 L 215.234958 26.774851 L 219.228591 26.549235 L 223.222223 26.323620 L 227.215855 26.098004 L 231.209487 25.872389 L 235.203119 25.646774 L 239.197886 25.442833 L 243.193246 25.250224 L 247.188606 25.057615 L 251.183966 24.865006 L 255.179326 24.672397 L 259.174686 24.479788 L 263.170712 24.301906 L 267.167158 24.133328 L 271.163604 23.964750 L 275.160050 23.796173 L 279.156496 23.627595 L 283.152942 23.459017 L 287.150261 23.314021 L 291.148237 23.186775 L 295.146212 23.059529 L 299.144188 22.932282 L 303.142163 22.805036 L 307.140139 22.677790 L 311.139025 22.584476 L 315.138069 22.497023 L 319.137113 22.409570 L 323.136157 22.322116 L 327.135201 22.234663 L 331.134909 22.189393 L 335.134724 22.150932 L 339.134539 22.112471 L 343.134368 22.077000 L 347.134368 22.077000 L 351.134368 22.077000 L 355.134368 22.077000 L 359.134368 22.077000 L 359.243730 22.077000" fill="none" id="30" stroke="black" stroke-width="0.5" /><path d="M 124.207480 104.728570 L 122.941475 104.001010 L 126.941475 104.001010 L 130.941475 104.001010 L 134.941475 104.001010 L 138.941475 104.001010 L 142.941475 104.001010 L 146.941475 104.001010 L 150.941475 104.001010 L 154.941475 104.001010 L 158.941475 104.001010 L 162.941475 104.001010 L 166.941475 104.001010 L 170.941475 104.001010 L 174.941475 104.001010 L 178.941475 104.001010 L 182.941475 104.001010 L 186.941475 104.001010 L 190.941473 104.000446 L 194.941388 103.974440 L 198.941304 103.948433 L 202.941219 103.922427 L 206.941135 103.896420 L 210.941050 103.870413 L 214.940966 103.844407 L 218.940881 103.818400 L 222.940796 103.792394 L 226.940712 103.766387 L 230.940627 103.740381 L 234.940543 103.714374 L 238.940458 103.688368 L 242.636438 103.796310 L 246.635336 103.702425 L 250.634234 103.608539 L 254.633132 103.514654 L 258.632030 103.420769 L 262.630929 103.326883 L 266.629520 103.221548 L 270.627705 103.101082 L 274.625891 102.980616 L 278.624076 102.860150 L 282.622262 102.739684 L 286.620448 102.619218 L 290.619049 102.515572 L 294.618299 102.438109 L 298.617549 102.360647 L 302.616799 102.283184 L 306.616049 102.205721 L 310.615299 102.128259 L 314.612133 101.975097 L 318.608187 101.797456 L 322.604240 101.619815 L 326.600294 101.442173 L 330.596347 101.264532 L 334.593523 101.114732 L 338.590911 100.970203 L 342.588299 100.825674 L 346.585687 100.681145 L 350.579148 100.455817 L 354.571708 100.211972 L 358.564269 99.968128 L 362.549526 99.627822 L 366.533285 99.267733 L 370.522391 98.974520 L 370.411610 98.617010 L 366.411610 98.617010 L 362.411610 98.617010 L 358.411610 98.617010 L 354.413430 98.685530 L 350.419072 98.897915 L 346.424715 99.110300 L 342.435652 99.398749 L 338.450392 99.741821 L 337.993880 99.781120" fill="none" id="31" stroke="black" stroke-width="0.5" /><path d="M 145.779300 106.765760 L 141.779300 106.765760 L 137.780100 106.820631 L 133.781799 106.937215 L 129.783498 107.053799 L 133.578318 107.056790 L 137.570561 106.850538 L 141.559261 106.550087 L 145.546652 106.233838 L 149.530411 105.873746 L 153.514170 105.513654 L 157.497929 105.153562 L 161.485020 104.834001 L 165.474087 104.538450 L 169.463153 104.242900 L 173.452219 103.947350 L 177.441286 103.651800 L 181.433569 103.405520 L 185.427201 103.179904 L 189.420833 102.954289 L 193.414465 102.728673 L 197.408097 102.503058 L 201.401729 102.277442 L 205.398280 102.112618 L 209.395156 101.954557 L 213.392032 101.796497 L 217.388908 101.638437 L 221.385784 101.480377 L 225.382660 101.322317 L 229.380547 101.197510 L 233.379643 101.112457 L 237.378738 101.027403 L 241.377834 100.942350 L 245.376929 100.857297 L 249.376025 100.772243 L 253.375121 100.687190 L 257.373944 100.590623 L 261.372596 100.486761 L 265.371247 100.382899 L 269.369898 100.279037 L 273.368550 100.175175 L 277.367201 100.071313 L 281.365853 99.967451 L 285.364999 99.886974 L 289.364465 99.821641 L 293.363931 99.756307 L 297.363398 99.690974 L 301.362864 99.625640 L 305.362331 99.560307 L 309.361797 99.494973 L 313.361502 99.446648 L 317.361227 99.399696 L 321.360951 99.352745 L 325.360676 99.305793 L 329.360400 99.258842 L 333.360124 99.211890 L 337.359977 99.178535 L 341.359877 99.150288 L 345.359777 99.122040 L 349.359677 99.093793 L 353.359578 99.065545 L 357.359535 99.053550 L 361.359535 99.053550 L 365.359535 99.053550 L 369.359535 99.053550 L 373.359535 99.053550 L 377.359535 99.053550 L 381.359535 99.053550 L 385.359535 99.053550 L 389.359535 99.053550 L 393.351341 98.908040 L 397.332664 98.740657 L 397.879830 98.617010" fill="none" id="32" stroke="black" stroke-width="0.5" /><path d="M 140.627820 113.750400 L 137.544443 113.740986 L 141.543600 113.658832 L 145.537820 113.485194 L 149.522604 113.136628 L 153.507388 112.788061 L 157.499887 112.547892 L 161.493870 112.328582 L 165.487853 112.109273 L 169.481837 111.889963 L 173.475820 111.670653 L 177.469804 111.451343 L 181.463787 111.232033 L 185.457770 111.012723 L 189.452633 110.813946 L 193.450744 110.691024 L 197.448855 110.568103 L 201.446965 110.445182 L 205.445076 110.322260 L 209.443187 110.199339 L 213.441298 110.076418 L 217.439409 109.953496 L 221.437520 109.830575 L 225.435630 109.707654 L 229.433741 109.584732 L 233.431852 109.461811 L 237.430462 109.359887 L 241.429901 109.292941 L 245.429341 109.225995 L 249.428781 109.159048 L 253.428220 109.092102 L 257.427660 109.025156 L 261.427100 108.958210 L 265.426966 108.929625 L 269.426906 108.907580 L 273.426845 108.885534 L 277.426784 108.863489 L 281.426723 108.841443 L 285.426663 108.819397 L 289.426614 108.800225 L 293.426599 108.789495 L 297.426585 108.778764 L 301.426571 108.768034 L 305.426556 108.757303 L 309.426542 108.746573 L 313.426527 108.735842 L 317.426513 108.725112 L 321.426499 108.714381 L 325.426484 108.703651 L 329.426470 108.692920 L 333.426455 108.682190 L 337.426306 108.649443 L 341.426124 108.611276 L 345.425942 108.573109 L 349.425760 108.534943 L 353.425650 108.511920 L 357.425650 108.511920 L 361.425650 108.511920 L 365.425327 108.479026 L 369.424555 108.400443 L 373.416603 108.180691 L 374.551697 107.056790 L 372.766370 107.056790" fill="none" id="33" stroke="black" stroke-width="0.5" /><path d="M 130.968800 109.239490 L 126.968800 109.239490 L 123.176597 109.822203 L 125.773696 111.509407 L 129.761184 111.713210 L 133.761184 111.713210 L 137.761184 111.713210 L 141.761184 111.713210 L 145.759266 111.635111 L 149.754449 111.438850 L 153.749631 111.242588 L 157.744813 111.046327 L 161.736351 110.789469 L 165.726258 110.505494 L 169.716165 110.221519 L 173.706072 109.937544 L 177.695979 109.653568 L 181.685886 109.369593 L 185.675793 109.085618 L 189.665700 108.801643 L 193.655607 108.517668 L 197.645514 108.233693 L 201.638228 107.998742 L 205.634477 107.825555 L 209.630726 107.652367 L 213.626975 107.479179 L 217.623224 107.305991 L 221.619473 107.132804 L 225.616399 106.976761 L 229.613855 106.834131 L 233.611312 106.691500 L 237.608768 106.548870 L 241.606224 106.406240 L 245.603680 106.263609 L 249.601996 106.153521 L 253.601407 106.084880 L 257.600819 106.016240 L 261.600230 105.947599 L 265.599641 105.878958 L 269.599052 105.810318 L 273.598423 105.739737 L 277.597345 105.646846 L 281.596266 105.553955 L 285.595187 105.461064 L 289.594108 105.368173 L 293.593030 105.275282 L 297.591951 105.182391 L 301.590872 105.089500 L 305.589793 104.996609 L 309.588715 104.903718 L 313.587636 104.810827 L 317.586557 104.717936 L 320.906227 105.439720 L 324.906013 105.398322 L 328.905798 105.356925 L 332.905584 105.315527 L 336.905370 105.274129 L 340.905156 105.232731 L 344.904941 105.191333 L 348.904727 105.149935 L 352.904513 105.108538 L 356.904299 105.067140 L 360.904085 105.025742 L 364.899247 104.838725 L 368.886684 104.536171 L 370.834560 103.855490" fill="none" id="34" stroke="black" stroke-width="0.5" /><path d="M 142.237660 97.452910 L 138.409004 96.886653 L 141.660396 96.725340 L 145.660396 96.725340 L 149.660396 96.725340 L 153.660396 96.725340 L 157.660280 96.717144 L 161.658685 96.604202 L 165.657090 96.491259 L 169.655496 96.378317 L 173.653625 96.257095 L 177.650704 96.104239 L 181.647782 95.951382 L 185.644860 95.798526 L 189.641939 95.645670 L 193.639017 95.492813 L 197.636095 95.339957 L 201.633174 95.187100 L 205.630252 95.034244 L 209.627330 94.881387 L 213.624408 94.728531 L 217.622302 94.599509 L 221.620487 94.479045 L 225.618673 94.358581 L 229.616858 94.238116 L 233.615044 94.117652 L 237.613230 93.997188 L 241.611950 93.896880 L 245.610903 93.805369 L 249.609856 93.713858 L 253.608809 93.622346 L 257.607762 93.530835 L 261.606715 93.439324 L 265.605827 93.355777 L 269.605252 93.287994 L 273.604678 93.220212 L 277.604104 93.152429 L 281.603529 93.084646 L 285.602955 93.016863 L 289.602381 92.949080 L 293.602265 92.922114 L 297.602204 92.899916 L 301.602142 92.877717 L 305.602081 92.855519 L 309.602019 92.833321 L 313.601957 92.811123 L 317.601896 92.788925 L 321.601834 92.766727 L 325.601773 92.744528 L 329.601711 92.722330 L 333.601649 92.700132 L 337.589594 92.775430 L 341.586945 92.796480 L 345.586945 92.796480 L 349.586945 92.796480 L 353.586945 92.796480 L 357.586945 92.796480 L 361.586945 92.796480 L 365.586945 92.796480 L 369.586945 92.796480 L 373.586945 92.796480 L 377.586945 92.796480 L 381.586945 92.796480 L 385.586945 92.796480 L 382.366963 92.450137 L 378.368816 92.359940 L 374.368816 92.359940 L 374.054240 92.359940" fill="none" id="35" stroke="black" stroke-width="0.5" /><path d="M 149.320940 96.143290 L 145.320940 96.143290 L 141.866500 96.143290 L 145.865580 96.106621 L 149.860546 95.906004 L 153.850925 95.632299 L 157.839625 95.331848 L 161.827257 95.018163 L 165.812518 94.675091 L 169.797778 94.332019 L 173.783039 93.988947 L 177.777202 93.776558 L 181.772169 93.575944 L 185.767135 93.375329 L 189.762101 93.174715 L 193.757947 92.993257 L 197.754471 92.826528 L 201.750995 92.659799 L 205.747518 92.493070 L 209.744042 92.326341 L 213.741043 92.172593 L 217.739019 92.045347 L 221.736994 91.918101 L 225.734970 91.790855 L 229.732945 91.663609 L 233.730921 91.536363 L 237.729951 91.457010 L 241.729652 91.408154 L 245.729354 91.359297 L 249.729056 91.310441 L 253.728757 91.261585 L 257.728459 91.212728 L 261.728356 91.195830 L 265.728356 91.195830 L 269.728356 91.195830 L 273.728356 91.195830 L 277.728356 91.195830 L 281.728356 91.195830 L 285.728356 91.195830 L 289.728356 91.195830 L 293.728356 91.195830 L 297.728356 91.195830 L 301.728356 91.195830 L 305.728356 91.195830 L 309.728356 91.195830 L 313.728356 91.195830 L 317.728356 91.195830 L 321.728356 91.195830 L 325.728356 91.195830 L 329.728356 91.195830 L 333.728356 91.195830 L 337.728356 91.195830 L 341.728356 91.195830 L 345.728356 91.195830 L 349.728356 91.195830 L 353.728356 91.195830 L 357.728356 91.195830 L 361.728356 91.195830 L 365.728356 91.195830 L 369.728356 91.195830 L 373.727720 91.142329 L 377.721702 91.014779 L 379.459192 89.452085 L 375.505340 88.919096 L 371.510573 88.722110 L 367.510573 88.722110 L 364.717180 88.722110" fill="none" id="36" stroke="black" stroke-width="0.5" /><path d="M 139.661920 48.996970 L 139.661920 52.996970 L 139.661920 56.996970 L 139.661920 60.996970 L 139.661920 64.996970 L 139.427893 68.971389 L 138.593284 72.882707 L 137.876389 76.816789 L 137.408150 78.827200" fill="none" id="37" stroke="black" stroke-width="0.5" /><path d="M 131.934700 79.118230 L 132.405214 77.480868 L 134.916693 74.367923 L 137.348907 71.192339 L 139.770697 68.008799 L 142.167974 64.806894 L 144.542236 61.587751 L 147.016447 58.445622 L 149.523943 55.329139 L 151.984201 52.175483 L 154.423802 49.005570 L 156.922753 45.882887 L 159.463955 42.793827 L 162.005157 39.704767 L 164.546359 36.615706 L 167.262625 33.680315 L 170.072622 30.834836 L 171.536700 30.225750" fill="none" id="38" stroke="black" stroke-width="0.5" /><path d="M 225.627230 31.389850 L 228.016921 34.596400 L 230.695146 37.567445 L 233.373371 40.538490 L 235.982285 43.568579 L 238.489785 46.685059 L 240.922904 49.859731 L 242.369540 51.761720" fill="none" id="39" stroke="black" stroke-width="0.5" /><path d="M 348.296840 70.241910 L 345.426077 73.026757 L 343.789290 74.752830" fill="none" id="40" stroke="black" stroke-width="0.5" /><path d="M 157.692100 21.349430 L 153.700807 21.233189 L 149.980704 20.055642 L 145.993873 19.894300 L 147.402917 20.657359 L 151.375166 21.058400 L 155.375166 21.058400 L 159.375166 21.058400 L 163.375166 21.058400 L 167.375166 21.058400 L 171.375166 21.058400 L 175.375166 21.058400 L 179.370402 20.863839 L 183.365607 20.668047 L 187.360812 20.472256 L 191.356018 20.276464 L 195.351223 20.080672 L 199.346428 19.884880 L 203.342609 19.714347 L 207.341014 19.601405 L 211.339420 19.488462 L 215.337825 19.375519 L 219.336931 19.312240 L 223.336931 19.312240 L 227.336931 19.312240 L 231.336931 19.312240 L 235.336931 19.312240 L 239.336931 19.312240 L 243.336931 19.312240 L 247.336931 19.312240 L 251.336931 19.312240 L 255.327408 19.491853 L 259.302525 19.931233 L 261.365620 20.476350" fill="none" id="41" stroke="black" stroke-width="0.5" /><path d="M 139.661920 62.966250 L 139.655108 66.965923 L 139.225295 70.941465 L 138.642501 74.896408 L 138.321199 78.882512 L 137.723681 82.837419 L 137.408580 86.824989 L 137.408150 90.322750" fill="none" id="42" stroke="black" stroke-width="0.5" /><path d="M 370.512590 37.210390 L 370.631035 41.199561 L 371.387267 45.127093 L 372.211070 49.041163 L 372.936386 52.974853 L 373.599764 56.919328 L 374.246728 60.866660 L 374.893692 64.813993 L 375.392396 68.782097 L 375.971771 72.737411 L 376.729105 76.664918 L 377.577078 80.574003 L 378.515060 84.458464 L 379.527680 86.684920" fill="none" id="43" stroke="black" stroke-width="0.5" /><path d="M 387.254900 104.437550 L 383.850652 106.344453 L 380.623495 108.702304 L 377.271198 110.883465 L 373.910750 113.053116 L 370.652109 115.372474 L 367.287063 117.531987 L 363.886448 119.638125 L 360.469191 121.716143 L 356.986523 123.683635 L 353.503855 125.651126 L 353.448320 125.682500" fill="none" id="44" stroke="black" stroke-width="0.5" /></svg>