<?xml version="1.0" encoding="utf-8" ?>
<svg baseProfile="full" height="460.5" version="1.1" viewBox="0,0,595.5,460.5" width="595.5" xmlns="http://www.w3.org/2000/svg" xmlns:ev="http://www.w3.org/2001/xml-events" xmlns:xlink="http://www.w3.org/1999/xlink"><defs><style type="text/css"><![CDATA[
	.background { fill: white; }
	.line { stroke: firebrick; stroke-width: .1mm; }
	.blacksquare { fill: indigo; }
	.whitesquare { fill: white; }
]]></style></defs><rect class="background" height="100%" width="100%" x="0" y="0" /><path d="M 56.272340 429.368840 L 60.002980 428.014416 L 63.565937 426.196357 L 67.128894 424.378298 L 70.644463 422.471338 L 74.140065 420.526919 L 77.625174 418.564011 L 81.086793 416.559717 L 84.548412 414.555423 L 88.010031 412.551129 L 91.471650 410.546835 L 94.933269 408.542541 L 98.394888 406.538247 L 101.351433 405.308748 L 104.778922 403.246633 L 108.206410 401.184517 L 111.633899 399.122401 L 115.061388 397.060286 L 118.488876 394.998170 L 121.916365 392.936054 L 125.343854 390.873939 L 128.771343 388.811823 L 132.198831 386.749707 L 135.626320 384.687592 L 139.053809 382.625476 L 142.481298 380.563360 L 145.908786 378.501245 L 149.336275 376.439129 L 152.763764 374.377013 L 156.182656 372.300812 L 159.583717 370.195394 L 162.984777 368.089975 L 166.385838 365.984557 L 169.786898 363.879139 L 173.187959 361.773720 L 176.547974 360.143554 L 179.999640 358.122169 L 183.451306 356.100783 L 186.902973 354.079397 L 190.354639 352.058012 L 193.806305 350.036626 L 197.257971 348.015240 L 200.693086 345.966190 L 204.106249 343.880448 L 207.519412 341.794705 L 210.932574 339.708963 L 214.345737 337.623221 L 217.758899 335.537478 L 221.172062 333.451736 L 224.571039 331.343019 L 227.964833 329.225906 L 231.358626 327.108794 L 234.752419 324.991681 L 238.146213 322.874568 L 241.540006 320.757455 L 244.933799 318.640342 L 248.304208 316.486197 L 251.674536 314.331926 L 255.044865 312.177655 L 258.415194 310.023384 L 261.785523 307.869114 L 265.155852 305.714843 L 268.520422 303.551646 L 271.872142 301.368536 L 275.223863 299.185427 L 278.575584 297.002317 L 281.927305 294.819207 L 285.279026 292.636098 L 288.630746 290.452988 L 292.003003 288.301831 L 295.381138 286.159823 L 298.759274 284.017815 L 302.137409 281.875806 L 305.515545 279.733798 L 308.893681 277.591790 L 312.260583 275.432322 L 315.610039 273.245739 L 318.959495 271.059157 L 322.308952 268.872574 L 325.658408 266.685992 L 329.007864 264.499410 L 332.369999 262.332625 L 335.757212 260.205001 L 339.144425 258.077376 L 342.531639 255.949751 L 345.918852 253.822126 L 349.306065 251.694501 L 352.701344 249.579793 L 356.099644 247.469921 L 359.497943 245.360048 L 362.896242 243.250175 L 366.294541 241.140302 L 369.692840 239.030430 L 373.091139 236.920557 L 376.489438 234.810684 L 379.887738 232.700812 L 383.297673 230.610020 L 386.729408 228.554979 L 390.161143 226.499938 L 393.592878 224.444896 L 397.043750 222.422395 L 400.507639 220.422028 L 403.971528 218.421660 L 407.428020 216.408696 L 410.862196 214.357737 L 414.296373 212.306779 L 417.700616 210.206980 L 421.086811 208.077736 L 424.496637 205.987177 L 427.936910 203.946460 L 431.459848 202.052502 L 431.628360 200.621870 L 427.775815 201.581259 L 424.281160 202.950080" fill="none" id="1" stroke="black" stroke-width="0.5" /><path d="M 0.250000 334.494140 L 3.784477 332.621315 L 7.318953 330.748489 L 10.834260 328.840671 L 14.315231 326.870179 L 17.796202 324.899686 L 21.277173 322.929194 L 24.758144 320.958701 L 28.239115 318.988209 L 31.720086 317.017717 L 35.201057 315.047224 L 38.726650 313.160515 L 42.304359 311.371661 L 45.882067 309.582806 L 49.459776 307.793952 L 53.037485 306.005098 L 56.576280 304.142896 L 60.063516 302.183512 L 63.550752 300.224128 L 67.037988 298.264744 L 70.525224 296.305360 L 74.012460 294.345976 L 77.486306 292.363103 L 80.949087 290.360817 L 84.411868 288.358531 L 87.874649 286.356245 L 91.337430 284.353959 L 94.800210 282.351673 L 98.257655 280.340282 L 101.696708 278.297511 L 105.135761 276.254740 L 108.574815 274.211970 L 112.013868 272.169199 L 115.452921 270.126428 L 118.891974 268.083657 L 122.339497 266.055245 L 125.791163 264.033859 L 129.242829 262.012474 L 132.694495 259.991088 L 136.146162 257.969702 L 139.597828 255.948317 L 143.051808 253.930994 L 146.551044 251.993122 L 150.050281 250.055251 L 153.549517 248.117379 L 157.048753 246.179508 L 160.547989 244.241636 L 164.047225 242.303765 L 167.565800 240.401639 L 171.102523 238.533059 L 174.639246 236.664479 L 178.175969 234.795899 L 181.712692 232.927319 L 185.249415 231.058739 L 188.787899 229.193568 L 192.358264 227.390102 L 195.928630 225.586636 L 199.498995 223.783170 L 203.069361 221.979704 L 206.639727 220.176238 L 210.210092 218.372772 L 213.805301 216.619431 L 217.402661 214.870432 L 221.000022 213.121434 L 224.597383 211.372435 L 228.194744 209.623437 L 231.791950 207.874123 L 235.377596 206.101232 L 238.963242 204.328341 L 242.548888 202.555450 L 246.134534 200.782558 L 249.720180 199.009667 L 253.305825 197.236776 L 256.891471 195.463885 L 260.477117 193.690994 L 264.062763 191.918103 L 267.648409 190.145211 L 271.242577 188.389766 L 274.845020 186.651259 L 278.447463 184.912752 L 282.049906 183.174245 L 285.652348 181.435738 L 289.254791 179.697231 L 292.857234 177.958724 L 296.459676 176.220217 L 300.062119 174.481710 L 303.664562 172.743203 L 307.267005 171.004696 L 310.869447 169.266189 L 314.471890 167.527682 L 318.074333 165.789175 L 321.676775 164.050668 L 325.279218 162.312161 L 328.856300 160.522468 L 332.421884 158.709565 L 335.987467 156.896663 L 339.553050 155.083760 L 341.857490 153.912080" fill="none" id="2" stroke="black" stroke-width="0.5" /><path d="M 293.240400 452.068920 L 294.539867 452.206414 L 297.830312 449.931997 L 301.071238 447.590439 L 304.216074 445.118596 L 307.360910 442.646753 L 310.617450 440.324162 L 313.875651 438.003790 L 317.133852 435.683417 L 320.354658 433.311736 L 323.561235 430.920530 L 326.767812 428.529325 L 329.974389 426.138120 L 333.129226 423.679658 L 336.262728 421.193462 L 339.396229 418.707267 L 342.529730 416.221071 L 345.668041 413.741084 L 348.858601 411.328549 L 352.049162 408.916014 L 355.239722 406.503479 L 358.430282 404.090944 L 361.620842 401.678409 L 364.758993 399.198371 L 367.886925 396.705172 L 371.014856 394.211972 L 374.142788 391.718773 L 377.270720 389.225573 L 380.406986 386.743040 L 383.582406 384.310611 L 386.757826 381.878183 L 389.933246 379.445754 L 393.108665 377.013325 L 396.284085 374.580896 L 399.464356 372.154869 L 402.664872 369.755558 L 405.865389 367.356247 L 409.065906 364.956936 L 412.266422 362.557625 L 415.466939 360.158314 L 418.667455 357.759003 L 421.867972 355.359692 L 425.068489 352.960381 L 428.269005 350.561070 L 431.469522 348.161759 L 434.670039 345.762448 L 437.870555 343.363137 L 441.079636 340.975333 L 444.296690 338.598241 L 447.513743 336.221149 L 450.730797 333.844057 L 453.947850 331.466965 L 457.164904 329.089873 L 460.374808 326.703246 L 463.558255 324.281333 L 466.741703 321.859419 L 469.925150 319.437506 L 473.108597 317.015592 L 476.292044 314.593679 L 479.470142 312.164844 L 482.616558 309.695013 L 485.762974 307.225182 L 488.909391 304.755351 L 492.055807 302.285520 L 495.202223 299.815689 L 498.333435 297.326873 L 501.431077 294.796139 L 504.528719 292.265406 L 507.626362 289.734672 L 510.724004 287.203938 L 513.821646 284.673205 L 516.892376 282.109919 L 519.960343 279.543292 L 523.028310 276.976664 L 526.096277 274.410036 L 529.164244 271.843408 L 532.182087 269.218057 L 535.198617 266.591168 L 538.215147 263.964279 L 541.231677 261.337390 L 544.231731 258.691778 L 547.220726 256.033600 L 550.209721 253.375423 L 553.198716 250.717245 L 556.187711 248.059067 L 559.176706 245.400889 L 562.165700 242.742711 L 565.067349 239.989715 L 567.961389 237.228459 L 570.855429 234.467204 L 573.749469 231.705948 L 576.532917 228.833644 L 578.722596 225.539328 L 575.915952 227.072934 L 573.996040 228.560430" fill="none" id="3" stroke="black" stroke-width="0.5" /><path d="M 293.884340 172.101250 L 289.970443 171.275773 L 286.029740 170.594377 L 287.045632 170.355090 L 290.958461 171.027213 L 294.826119 172.047614 L 298.693778 173.068014 L 302.561436 174.088415 L 306.429095 175.108816 L 310.296753 176.129216 L 314.164412 177.149617 L 318.032070 178.170018 L 321.899729 179.190418 L 325.767388 180.210819 L 329.635046 181.231219 L 333.502705 182.251620 L 337.370363 183.272021 L 341.238022 184.292421 L 345.105680 185.312822 L 348.973339 186.333223 L 352.839083 187.360776 L 356.699355 188.408774 L 360.559627 189.456771 L 364.419899 190.504769 L 368.280171 191.552767 L 372.140443 192.600764 L 376.000716 193.648762 L 379.860988 194.696759 L 383.721260 195.744757 L 387.581532 196.792754 L 391.441804 197.840752 L 395.302076 198.888749 L 399.162349 199.936747 L 403.022621 200.984744 L 406.882893 202.032742 L 410.743165 203.080739 L 414.089258 204.435973 L 417.944100 205.503772 L 421.798942 206.571571 L 425.653784 207.639370 L 429.508626 208.707169 L 433.363468 209.774967 L 437.218310 210.842766 L 441.073152 211.910565 L 444.927993 212.978364 L 448.782835 214.046163 L 452.637677 215.113961 L 456.492519 216.181760 L 460.347361 217.249559 L 464.202203 218.317358 L 468.057045 219.385156 L 471.911886 220.452955 L 475.766728 221.520754 L 479.621570 222.588553 L 483.476412 223.656352 L 487.322760 224.754307 L 491.168209 225.855452 L 495.013658 226.956596 L 498.859107 228.057741 L 502.704557 229.158886 L 506.550006 230.260031 L 510.395455 231.361175 L 514.240905 232.462320 L 518.086354 233.563465 L 521.931803 234.664610 L 525.777252 235.765755 L 529.605595 236.924868 L 533.432770 238.087938 L 537.259945 239.251007 L 541.087120 240.414076 L 544.913382 241.580081 L 548.724465 242.794842 L 552.535548 244.009603 L 556.346632 245.224364 L 560.157715 246.439125 L 563.968798 247.653886 L 567.779881 248.868647 L 571.590965 250.083408 L 575.401275 251.300513 L 579.187425 252.590889 L 582.973574 253.881265 L 586.759724 255.171641 L 590.545874 256.462017 L 594.332024 257.752393 L 594.923920 257.954120" fill="none" id="4" stroke="black" stroke-width="0.5" /><path d="M 36.310360 301.026070 L 39.636443 303.242857 L 43.073781 305.284993 L 46.635823 307.104844 L 50.200497 308.919450 L 53.788238 310.688097 L 57.375980 312.456744 L 60.963721 314.225391 L 64.551462 315.994039 L 68.139203 317.762686 L 71.726944 319.531333 L 75.314686 321.299980 L 78.902427 323.068627 L 82.490168 324.837274 L 86.077909 326.605922 L 89.665651 328.374569 L 93.253392 330.143216 L 96.841133 331.911863 L 100.428874 333.680510 L 104.002833 335.476125 L 107.537985 337.347676 L 111.073137 339.219227 L 114.608288 341.090778 L 118.143440 342.962329 L 121.697880 344.796400 L 125.275588 346.585254 L 128.853297 348.374109 L 132.431006 350.162963 L 136.008715 351.951817 L 139.586423 353.740672 L 143.164132 355.529526 L 146.741841 357.318380 L 150.319550 359.107235 L 153.897259 360.896089 L 157.474967 362.684944 L 161.052676 364.473798 L 164.630385 366.262652 L 168.208094 368.051507 L 171.785802 369.840361 L 175.363511 371.629216 L 178.941220 373.418070 L 182.052400 375.192486 L 185.671586 376.895863 L 189.290772 378.599239 L 192.909958 380.302616 L 196.529144 382.005992 L 200.148331 383.709368 L 203.767517 385.412745 L 207.386703 387.116121 L 211.005889 388.819498 L 214.625075 390.522874 L 218.244262 392.226250 L 221.863448 393.929627 L 225.482634 395.633003 L 229.105218 397.329041 L 232.745718 398.986376 L 236.386217 400.643712 L 240.026717 402.301047 L 243.667217 403.958382 L 247.307717 405.615717 L 250.948217 407.273053 L 254.588717 408.930388 L 258.229217 410.587723 L 261.869717 412.245059 L 265.510217 413.902394 L 269.150717 415.559729 L 272.792010 417.215297 L 276.450923 418.831574 L 280.109837 420.447851 L 283.768750 422.064128 L 287.427664 423.680404 L 291.086578 425.296681 L 294.745491 426.912958 L 298.404405 428.529235 L 302.063318 430.145512 L 305.722232 431.761789 L 309.381146 433.378066 L 313.040059 434.994343 L 316.698973 436.610620 L 320.357886 438.226897 L 324.016800 439.843174 L 327.675714 441.459451 L 331.345915 443.049640 L 335.028955 444.610158 L 338.711995 446.170676 L 342.395035 447.731194 L 346.060363 449.331299 L 349.678226 451.037484 L 353.296088 452.743669 L 356.913951 454.449855 L 360.531814 456.156040 L 364.149677 457.862225 L 367.292920 459.344580" fill="none" id="5" stroke="black" stroke-width="0.5" /><path d="M 123.241580 220.411680 L 127.231838 220.534598 L 131.181901 221.164680 L 135.027871 222.241259 L 138.849332 223.422967 L 142.670794 224.604675 L 146.492255 225.786383 L 150.313850 226.967647 L 154.154272 228.086197 L 157.994695 229.204747 L 161.835117 230.323298 L 165.670327 231.459123 L 169.488512 232.651375 L 173.306697 233.843627 L 177.124882 235.035880 L 180.943066 236.228132 L 184.751671 237.450368 L 188.553796 238.692883 L 192.355921 239.935399 L 196.158046 241.177914 L 199.960171 242.420430 L 203.759277 243.671804 L 207.528672 245.010332 L 211.298067 246.348861 L 215.067463 247.687389 L 218.836858 249.025917 L 222.606254 250.364446 L 226.371053 251.715343 L 230.099818 253.163206 L 233.828584 254.611068 L 237.557350 256.058930 L 241.286116 257.506792 L 245.014882 258.954655 L 248.743648 260.402517 L 252.431003 261.952741 L 256.117620 263.504789 L 259.804238 265.056836 L 263.490855 266.608884 L 267.177473 268.160931 L 270.864090 269.712978 L 274.559627 271.243553 L 278.260936 272.760231 L 281.962245 274.276910 L 285.663554 275.793588 L 289.364862 277.310266 L 293.066171 278.826944 L 296.768547 280.340986 L 300.482707 281.825916 L 304.196867 283.310846 L 307.911027 284.795775 L 311.625187 286.280705 L 315.339347 287.765635 L 319.053507 289.250565 L 322.772069 290.724333 L 326.499921 292.174545 L 330.227774 293.624757 L 333.955627 295.074969 L 337.683479 296.525181 L 341.411332 297.975393 L 345.139184 299.425605 L 348.871160 300.865128 L 352.607284 302.293895 L 356.343408 303.722662 L 360.079533 305.151430 L 363.815657 306.580197 L 367.551781 308.008964 L 371.287905 309.437731 L 375.029124 310.853084 L 378.771808 312.264579 L 382.514492 313.676074 L 386.257175 315.087568 L 389.999859 316.499063 L 393.742543 317.910558 L 397.485227 319.322053 L 401.227911 320.733547 L 404.970595 322.145042 L 408.713279 323.556537 L 412.455963 324.968032 L 416.198646 326.379526 L 419.941330 327.791021 L 423.684014 329.202516 L 427.426698 330.614011 L 431.169382 332.025505 L 434.912066 333.437000 L 438.654750 334.848495 L 442.397434 336.259990 L 446.140117 337.671484 L 449.882801 339.082979 L 453.625485 340.494474 L 457.368169 341.905969 L 461.110853 343.317463 L 464.853537 344.728958 L 468.586518 346.165371 L 472.298202 347.656478 L 476.009886 349.147586 L 479.721570 350.638693 L 483.433254 352.129801 L 487.144938 353.620908 L 490.838179 355.156991 L 494.528117 356.701128 L 498.218054 358.245266 L 501.907991 359.789404 L 505.587844 361.356181 L 509.203792 363.066421 L 512.819740 364.776661 L 516.435688 366.486901 L 520.038288 368.224482 L 523.610835 370.023623 L 527.183382 371.822765 L 530.743187 373.645871 L 534.232589 375.601394 L 537.721992 377.556918 L 541.257653 379.427048 L 544.375030 381.058410" fill="none" id="6" stroke="black" stroke-width="0.5" /><path d="M 453.902170 142.998580 L 453.902170 146.998580 L 453.902170 150.998580 L 453.843041 154.997310 L 453.671343 158.993624 L 453.499645 162.989937 L 453.327947 166.986250 L 453.138877 170.981753 L 452.937931 174.976703 L 452.736985 178.971652 L 452.536039 182.966602 L 452.335093 186.961551 L 452.134147 190.956500 L 451.933201 194.951450 L 451.732255 198.946399 L 451.531309 202.941349 L 451.330363 206.936298 L 451.129416 210.931247 L 451.076380 214.929914 L 451.076380 218.929914 L 451.076380 222.929914 L 451.076380 226.929914 L 451.076380 230.929914 L 451.076380 234.929914 L 451.076380 238.929914 L 451.076380 242.929914 L 451.076380 246.929914 L 451.076380 250.929914 L 451.076380 254.929914 L 451.076380 258.929914 L 451.076380 262.929914 L 451.326430 266.874380 L 451.326430 270.874380 L 451.326430 274.874380 L 451.326430 278.874380 L 451.326430 282.874380 L 451.326430 286.874380 L 451.326430 290.874380 L 451.326430 294.874380 L 451.326430 298.874380 L 451.326430 302.874380 L 451.326430 306.874380 L 451.326430 310.874380 L 451.326430 314.874380 L 451.350387 318.874031 L 451.466791 322.872337 L 451.583196 326.870643 L 451.699600 330.868949 L 451.816004 334.867255 L 451.932408 338.865561 L 452.116823 342.861027 L 452.334139 346.855119 L 452.551455 350.849211 L 452.768771 354.843304 L 452.999131 358.836593 L 453.273344 362.827183 L 453.547557 366.817773 L 453.821771 370.808363 L 454.095984 374.798952 L 454.370197 378.789542 L 454.616528 382.781775 L 454.812971 386.776949 L 454.868070 390.775595 L 455.190040 389.236282 L 455.190040 385.236282 L 455.190040 382.222510" fill="none" id="7" stroke="black" stroke-width="0.5" /><path d="M 442.955270 121.026070 L 442.955270 125.026070 L 443.096087 129.016258 L 443.650835 132.977603 L 444.205583 136.938948 L 444.689812 140.908362 L 445.044170 144.892634 L 445.398529 148.876907 L 445.752887 152.861180 L 446.107246 156.845453 L 446.461604 160.829726 L 446.815963 164.813999 L 447.170322 168.798271 L 447.524680 172.782544 L 447.879039 176.766817 L 448.161830 180.755998 L 448.354675 184.751346 L 448.547519 188.746695 L 448.740364 192.742044 L 448.933209 196.737392 L 449.126054 200.732741 L 449.318898 204.728090 L 449.449457 208.725644 L 449.539746 212.724625 L 449.630035 216.723606 L 449.720324 220.722587 L 449.810613 224.721568 L 449.900903 228.720549 L 449.991192 232.719529 L 450.059808 236.718876 L 450.104505 240.718626 L 450.149202 244.718377 L 450.193899 248.718127 L 450.238597 252.717877 L 450.283294 256.717627 L 450.327991 260.717378 L 450.360530 264.717196 L 450.360530 268.717196 L 450.360530 272.717196 L 450.360530 276.717196 L 450.360530 280.717196 L 450.360530 284.717196 L 450.360530 288.717196 L 450.360530 292.717196 L 450.360530 296.717196 L 450.360530 300.717196 L 450.360530 304.717196 L 450.360530 308.717196 L 450.360530 312.717196 L 450.360530 316.717196 L 450.360530 320.717196 L 450.360530 324.717196 L 450.360530 328.717196 L 450.360530 332.717196 L 450.360530 336.717196 L 450.432032 340.716514 L 450.508314 344.715786 L 450.584596 348.715059 L 450.660878 352.714332 L 450.889238 356.706660 L 451.177718 360.696244 L 451.466198 364.685828 L 451.754678 368.675412 L 452.043159 372.664996 L 452.292330 376.110950" fill="none" id="8" stroke="black" stroke-width="0.5" /><path d="M 171.536700 51.616210 L 171.536700 55.616210 L 171.536700 59.616210 L 171.536700 63.616210 L 171.536700 67.616210 L 171.536700 71.616210 L 171.536700 75.616210 L 171.536700 79.616210 L 171.536700 83.616210 L 171.536700 87.616210 L 171.536700 91.616210 L 171.536700 95.616210 L 171.536700 99.616210 L 171.536700 103.616210 L 171.536700 107.616210 L 171.536700 111.616210 L 171.536700 115.616210 L 171.536700 119.616210 L 171.536700 123.616210 L 171.536700 127.616210 L 171.536700 131.616210 L 171.536700 135.616210 L 171.536700 139.616210 L 171.536700 143.616210 L 171.536700 147.616210 L 171.536700 151.616210 L 171.555646 155.616105 L 171.600117 159.615857 L 171.644589 163.615610 L 171.689060 167.615363 L 171.733531 171.615116 L 171.778002 175.614869 L 171.822474 179.614621 L 171.893889 183.613587 L 172.082994 187.609114 L 172.272098 191.604642 L 172.461203 195.600169 L 172.650307 199.595697 L 172.839412 203.591224 L 173.028516 207.586752 L 173.227563 211.581775 L 173.443116 215.575963 L 173.658669 219.570151 L 173.874222 223.564339 L 174.089775 227.558527 L 174.305328 231.552715 L 174.542695 235.545577 L 174.812619 239.536459 L 175.082543 243.527341 L 175.352468 247.518223 L 175.622392 251.509105 L 175.892316 255.499988 L 176.162241 259.490870 L 176.432165 263.481752 L 176.713677 267.471521 L 177.208469 271.440801 L 177.703262 275.410080 L 178.143112 279.385351 L 178.515454 283.367984 L 178.887795 287.350616 L 178.719969 284.518865 L 178.199307 280.558346 L 177.515370 276.617251 L 177.332110 275.561240" fill="none" id="9" stroke="black" stroke-width="0.5" /><path d="M 167.673090 39.102060 L 167.673090 43.102060 L 167.673090 47.102060 L 167.673090 51.102060 L 167.673090 55.102060 L 167.772770 59.099848 L 167.950186 63.095912 L 168.127602 67.091975 L 168.305018 71.088039 L 168.482434 75.084102 L 168.659850 79.080166 L 168.837266 83.076229 L 169.014682 87.072293 L 169.192098 91.068356 L 169.369514 95.064420 L 169.546930 99.060483 L 169.724346 103.056547 L 169.901762 107.052610 L 170.031169 110.941652 L 170.047773 114.692692 L 170.173251 118.690723 L 170.298730 122.688755 L 170.424209 126.686786 L 170.549687 130.684818 L 170.730644 134.680644 L 170.922824 138.676025 L 171.115004 142.671406 L 171.307185 146.666786 L 171.499365 150.662167 L 171.648057 154.659345 L 171.786264 158.656957 L 171.924471 162.654569 L 172.062678 166.652180 L 172.200885 170.649792 L 172.339092 174.647404 L 172.477299 178.645015 L 172.615506 182.642627 L 172.753713 186.640238 L 172.938374 190.635689 L 173.171909 194.628866 L 173.405444 198.622043 L 173.638979 202.615220 L 173.872514 206.608396 L 174.106049 210.601573 L 174.339584 214.594750 L 174.573119 218.587927 L 174.837106 222.578781 L 175.212066 226.561167 L 175.587026 230.543554 L 175.961986 234.525941 L 176.286780 238.512643 L 176.597477 242.500559 L 176.908175 246.488474 L 177.218872 250.476389 L 177.529569 254.464304 L 177.654080 256.062450" fill="none" id="10" stroke="black" stroke-width="0.5" /><path d="M 290.020730 68.786780 L 290.595078 72.745331 L 291.169426 76.703882 L 291.648577 80.674709 L 292.097283 84.649462 L 292.545989 88.624215 L 292.973552 92.601021 L 293.297869 96.587852 L 293.622185 100.574682 L 293.946501 104.561513 L 294.270817 108.548344 L 294.571655 112.536748 L 294.782090 116.531208 L 294.992525 120.525669 L 295.202960 124.520130 L 295.413395 128.514591 L 295.623830 132.509052 L 295.836273 136.503401 L 296.070014 140.496566 L 296.303755 144.489730 L 296.537496 148.482895 L 296.771238 152.476060 L 297.004979 156.469225 L 297.238720 160.462390 L 297.462045 164.456096 L 297.643408 168.451982 L 297.824771 172.447868 L 298.006133 176.443755 L 298.187496 180.439641 L 298.368859 184.435527 L 298.550221 188.431414 L 298.727875 192.427451 L 298.871304 196.424878 L 299.014733 200.422306 L 299.158163 204.419734 L 299.301592 208.417161 L 299.445022 212.414589 L 299.588451 216.412017 L 299.719695 220.409830 L 299.829599 224.408320 L 299.939503 228.406810 L 300.049407 232.405300 L 300.159311 236.403790 L 300.269215 240.402280 L 300.357246 244.401252 L 300.423780 248.400699 L 300.490315 252.400145 L 300.556849 256.399592 L 300.623384 260.399038 L 300.708952 264.398100 L 300.804092 268.396969 L 300.899233 272.395837 L 300.994374 276.394705 L 301.089515 280.393574 L 301.184656 284.392442 L 301.279796 288.391311 L 301.537105 292.382647 L 301.813024 296.373119 L 302.136183 300.359826 L 302.495967 304.343612 L 302.965559 308.315502 L 303.776127 312.219272 L 304.509260 314.704320" fill="none" id="11" stroke="black" stroke-width="0.5" /><path d="M 291.952530 67.768190 L 291.952530 71.768190 L 291.952530 75.768190 L 292.028109 79.765870 L 292.273494 83.758336 L 292.518879 87.750802 L 292.764263 91.743268 L 293.009648 95.735734 L 293.255033 99.728201 L 293.500417 103.720667 L 293.745802 107.713133 L 293.991187 111.705599 L 294.229567 115.698446 L 294.418168 119.693997 L 294.606769 123.689548 L 294.795370 127.685100 L 294.983972 131.680651 L 295.172573 135.676202 L 295.361174 139.671753 L 295.549776 143.667304 L 295.738377 147.662856 L 295.926978 151.658407 L 296.115579 155.653958 L 296.304181 159.649509 L 296.492782 163.645061 L 296.681383 167.640612 L 296.824907 171.637745 L 296.916836 175.636688 L 297.008765 179.635632 L 297.100694 183.634575 L 297.192624 187.633519 L 297.284553 191.632462 L 297.376482 195.631406 L 297.468411 199.630349 L 297.560341 203.629293 L 297.652270 207.628236 L 297.744199 211.627180 L 297.836129 215.626123 L 297.928058 219.625067 L 298.019987 223.624010 L 298.069910 227.623436 L 298.069910 231.623436 L 298.069910 235.623436 L 298.069910 239.623436 L 298.069910 243.623436 L 298.069910 247.623436 L 298.069910 251.623436 L 298.069910 255.623436 L 298.069910 259.623436 L 298.069910 263.623436 L 298.069910 267.623436 L 298.069910 271.623436 L 298.069910 275.623436 L 298.069910 279.623436 L 298.069910 283.623436 L 298.069910 287.623436 L 298.069910 291.623436 L 298.069910 295.623436 L 298.069910 298.552340" fill="none" id="12" stroke="black" stroke-width="0.5" /><path d="M 300.323690 66.313060 L 300.323690 70.313060 L 300.323690 74.313060 L 300.323690 78.313060 L 300.323690 82.313060 L 300.323690 86.313060 L 300.323690 90.313060 L 300.323690 94.313060 L 300.323690 98.313060 L 300.323690 102.313060 L 300.323690 106.313060 L 300.323690 110.313060 L 300.323690 114.313060 L 300.315141 118.313036 L 300.292447 122.312971 L 300.269754 126.312907 L 300.247061 130.312843 L 300.224367 134.312778 L 300.201674 138.312714 L 300.178980 142.312650 L 300.156287 146.312585 L 300.133593 150.312521 L 300.110900 154.312456 L 300.088206 158.312392 L 300.065513 162.312328 L 300.042819 166.312263 L 300.020126 170.312199 L 300.001720 174.312147 L 300.001720 178.312147 L 300.001720 182.312147 L 300.001720 186.312147 L 300.001720 190.312147 L 300.001720 194.312147 L 300.001720 198.312147 L 300.001720 202.312147 L 300.001720 206.312147 L 300.001720 210.312147 L 300.001720 214.312147 L 300.001720 218.312147 L 300.001720 222.312147 L 300.001720 226.312147 L 300.034432 230.311902 L 300.094226 234.311455 L 300.154021 238.311008 L 300.213816 242.310561 L 300.273610 246.310114 L 300.359288 250.308764 L 300.578392 254.302759 L 300.797497 258.296754 L 301.016601 262.290748 L 301.235706 266.284743 L 301.495518 270.276228 L 301.768607 274.266895 L 302.041695 278.257562 L 302.329133 282.247128 L 302.668311 286.232721 L 303.007489 290.218315 L 303.323303 294.205711 L 303.599226 298.196183 L 303.884062 302.185756 L 304.410473 306.150966 L 304.831230 309.320330" fill="none" id="13" stroke="black" stroke-width="0.5" /><path d="M 300.001720 82.901580 L 300.001720 86.901580 L 300.001720 90.901580 L 300.068608 94.900111 L 300.244276 98.896251 L 300.419945 102.892392 L 300.595614 106.888533 L 300.771283 110.884673 L 300.946952 114.880814 L 301.122621 118.876955 L 301.298289 122.873095 L 301.473958 126.869236 L 301.649627 130.865377 L 301.825296 134.861517 L 302.000965 138.857658 L 302.176634 142.853799 L 302.352302 146.849940 L 302.527971 150.846080 L 302.703640 154.842221 L 302.879309 158.838362 L 303.044770 162.834936 L 303.208910 166.831567 L 303.373051 170.828198 L 303.537192 174.824829 L 303.701332 178.821460 L 303.865473 182.818090 L 304.029613 186.814721 L 304.193754 190.811352 L 304.357895 194.807983 L 304.522035 198.804614 L 304.686176 202.801244 L 304.850316 206.797875 L 305.014457 210.794506 L 305.178597 214.791137 L 305.342738 218.787768 L 305.501061 222.784616 L 305.635084 226.782370 L 305.769107 230.780124 L 305.903130 234.777878 L 306.037154 238.775632 L 306.171177 242.773386 L 306.305200 246.771140 L 306.439224 250.768894 L 306.546832 254.767445 L 306.654072 258.766007 L 306.761312 262.764570 L 306.868552 266.763132 L 306.975791 270.761694 L 307.083031 274.760256 L 307.151312 278.759670 L 307.218864 282.759099 L 307.286416 286.758529 L 307.353968 290.757958 L 307.406970 294.757511 L 307.406970 298.757511 L 307.406970 302.757511 L 307.406970 306.757511 L 307.406970 308.447250" fill="none" id="14" stroke="black" stroke-width="0.5" /><path d="M 170.892760 366.070530 L 173.228067 362.823017 L 175.535527 359.556326 L 177.736757 356.216478 L 179.948572 352.883759 L 182.215974 349.588476 L 184.483375 346.293193 L 186.750777 342.997910 L 189.018178 339.702627 L 191.285580 336.407343 L 193.552981 333.112060 L 195.820383 329.816777 L 198.051241 326.496672 L 200.278836 323.174351 L 202.509882 319.854440 L 204.863768 316.620369 L 207.217655 313.386298 L 209.571541 310.152226 L 212.043473 307.009752 L 214.591581 303.926385 L 217.139688 300.843019 L 219.687796 297.759653 L 220.475750 296.806180" fill="none" id="15" stroke="black" stroke-width="0.5" /><path d="M 175.400310 362.869240 L 175.186658 359.607581 L 176.925092 356.006789 L 178.815843 352.481870 L 180.706595 348.956950 L 182.597347 345.432031 L 184.512066 341.920479 L 186.517640 338.459602 L 188.523214 334.998724 L 190.528788 331.537847 L 192.534362 328.076969 L 194.539936 324.616092 L 196.545510 321.155214 L 198.536586 317.686210 L 200.442270 314.169341 L 202.347954 310.652472 L 204.253638 307.135602 L 206.154739 303.616292 L 208.009678 300.072396 L 209.864617 296.528500 L 211.719556 292.984604 L 213.554860 289.430682 L 215.337531 285.849889 L 217.120203 282.269095 L 218.900359 278.687101 L 220.561686 275.048421 L 222.223013 271.409741 L 224.022117 267.840491 L 225.958274 264.340306 L 227.995644 260.902030 L 230.229906 257.584189 L 232.557139 254.335219 L 235.080080 251.231226 L 237.540030 248.204730" fill="none" id="16" stroke="black" stroke-width="0.5" /><path d="M 173.146530 269.158650 L 174.892197 265.834584 L 178.110681 263.461665 L 181.345967 261.109449 L 184.650738 258.857695 L 187.993193 256.660424 L 191.376100 254.527155 L 194.794999 252.450829 L 198.213897 250.374502 L 201.656966 248.339025 L 205.122736 246.341919 L 208.588506 244.344812 L 212.054277 242.347705 L 215.536309 240.379157 L 219.022415 238.417763 L 222.508521 236.456369 L 225.994626 234.494975 L 229.496619 232.562850 L 233.040672 230.708208 L 236.584724 228.853567 L 240.128776 226.998926 L 243.672828 225.144285 L 247.218884 223.293525 L 250.783827 221.479364 L 254.348770 219.665203 L 257.913713 217.851041 L 261.478656 216.036880 L 265.043599 214.222719 L 268.608542 212.408558 L 272.173485 210.594397 L 275.738428 208.780235 L 279.303371 206.966074 L 282.868314 205.151913 L 286.433257 203.337752 L 290.012105 201.551338 L 293.599263 199.781509 L 297.186422 198.011680 L 300.773581 196.241852 L 304.360739 194.472023 L 307.947898 192.702194 L 311.535056 190.932366 L 315.122215 189.162537 L 318.709373 187.392708 L 322.296532 185.622880 L 325.883690 183.853051 L 329.487497 182.117444 L 333.094122 180.387630 L 336.700747 178.657817 L 340.307372 176.928003 L 343.901257 175.172131 L 347.481391 173.388136 L 351.061525 171.604140 L 354.641659 169.820145 L 358.169110 167.934214 L 361.695132 166.045519 L 365.221154 164.156823 L 368.747175 162.268128 L 372.268922 160.371914 L 375.694955 158.307381 L 378.945496 155.988208 L 382.060136 153.483187 L 384.357200 150.247890 L 384.357200 149.692200" fill="none" id="17" stroke="black" stroke-width="0.5" /><path d="M 198.903930 141.252420 L 202.048798 140.046552 L 205.721187 138.462391 L 209.366207 136.815021 L 212.972219 135.085011 L 216.560737 133.317941 L 220.149255 131.550870 L 223.737773 129.783800 L 227.326291 128.016729 L 230.914809 126.249659 L 234.515073 124.506741 L 238.120887 122.775238 L 241.726702 121.043736 L 245.332517 119.312233 L 248.945143 117.595103 L 252.568289 115.900165 L 256.191435 114.205227 L 259.814581 112.510289 L 263.437726 110.815351 L 267.074326 109.150131 L 270.738515 107.545849 L 274.402704 105.941567 L 278.066893 104.337285 L 281.731082 102.733003 L 285.395271 101.128721 L 289.072330 99.554305 L 292.754796 97.992432 L 296.437261 96.430559 L 300.119727 94.868686 L 303.802192 93.306813 L 307.485570 91.747179 L 311.211282 90.291475 L 314.936993 88.835771 L 318.662704 87.380067 L 322.388416 85.924362 L 326.114127 84.468658 L 329.839838 83.012954 L 333.565550 81.557250 L 337.291261 80.101545 L 341.016973 78.645841 L 344.742684 77.190137 L 348.468395 75.734432 L 352.194107 74.278728 L 355.919818 72.823024 L 359.632690 71.335118 L 363.337903 69.828002 L 367.043597 68.322098 L 370.773506 66.877183 L 374.503414 65.432268 L 378.233323 63.987353 L 382.002650 62.648640 L 382.425390 61.802140" fill="none" id="18" stroke="black" stroke-width="0.5" /><path d="M 113.904520 184.324370 L 110.466495 186.368870 L 107.082094 188.493283 L 110.393238 188.001566 L 114.071172 186.466995 L 117.642425 184.665288 L 121.213679 182.863580 L 124.784932 181.061873 L 128.330733 179.210914 L 131.866184 177.339929 L 135.401634 175.468943 L 138.937085 173.597958 L 142.472536 171.726972 L 146.007987 169.855987 L 149.543438 167.985001 L 153.078889 166.114016 L 156.614340 164.243030 L 160.149791 162.372044 L 163.686927 160.504308 L 167.252511 158.691407 L 170.818096 156.878506 L 174.383680 155.065606 L 177.949264 153.252705 L 181.514849 151.439805 L 185.080433 149.626904 L 188.646017 147.814004 L 192.211602 146.001103 L 195.777186 144.188202 L 199.357081 142.403872 L 202.944190 140.633942 L 206.531299 138.864013 L 210.118408 137.094084 L 213.705517 135.324154 L 217.292625 133.554225 L 220.879734 131.784295 L 224.466843 130.014366 L 228.053952 128.244437 L 231.641061 126.474507 L 235.214707 124.677584 L 238.786540 122.877027 L 242.358374 121.076471 L 245.930208 119.275915 L 249.502042 117.475358 L 253.073875 115.674802 L 256.645709 113.874245 L 260.217543 112.073689 L 263.789377 110.273133 L 267.379614 108.510038 L 270.987765 106.783409 L 274.595916 105.056780 L 278.204066 103.330151 L 281.812217 101.603522 L 285.393911 99.822708 L 288.974383 98.039390 L 292.554855 96.256073 L 296.135327 94.472755 L 299.730173 92.718845 L 303.336799 90.989032 L 306.943424 89.259219 L 310.550050 87.529406 L 314.161089 85.808973 L 317.792888 84.132656 L 321.424687 82.456340 L 325.056485 80.780024 L 328.688131 79.103380 L 332.302265 77.389309 L 335.916399 75.675239 L 339.530532 73.961168 L 343.144666 72.247098 L 346.758799 70.533027 L 350.372933 68.818956 L 353.987067 67.104886 L 357.578753 65.344461 L 361.164570 63.571916 L 364.750387 61.799371 L 368.317601 59.989721 L 371.883185 58.176820 L 375.448770 56.363919 L 379.014354 54.551019 L 382.601069 52.780744 L 386.202765 51.040691 L 389.804461 49.300638 L 392.084410 47.832860" fill="none" id="19" stroke="black" stroke-width="0.5" /><path d="M 134.188470 175.448060 L 138.086337 174.556401 L 141.602512 172.649436 L 145.154099 170.810172 L 148.725933 169.009617 L 152.297767 167.209061 L 155.869602 165.408505 L 159.441436 163.607950 L 163.021146 161.823108 L 166.601279 160.039112 L 170.181413 158.255115 L 173.761547 156.471119 L 177.341681 154.687123 L 180.921814 152.903127 L 184.501948 151.119131 L 188.082082 149.335135 L 191.662216 147.551138 L 195.242349 145.767142 L 198.822483 143.983146 L 202.402617 142.199150 L 205.982751 140.415154 L 209.562884 138.631158 L 213.143018 136.847161 L 216.723152 135.063165 L 220.303286 133.279169 L 223.899533 131.528439 L 227.518755 129.825138 L 231.137977 128.121838 L 234.757199 126.418538 L 238.376421 124.715237 L 241.995643 123.011937 L 245.614865 121.308636 L 249.234087 119.605336 L 252.853309 117.902036 L 256.472531 116.198735 L 260.091753 114.495435 L 263.734129 112.842736 L 267.389081 111.217520 L 271.044033 109.592304 L 274.698985 107.967089 L 278.353937 106.341873 L 282.012545 104.725018 L 285.687114 103.144654 L 289.361682 101.564291 L 293.036250 99.983928 L 296.710818 98.403564 L 300.385387 96.823201 L 304.066217 95.257505 L 307.749091 93.696595 L 311.431965 92.135686 L 315.114839 90.574776 L 318.797713 89.013867 L 322.480587 87.452957 L 326.163462 85.892048 L 329.846336 84.331139 L 333.529210 82.770229 L 337.212084 81.209320 L 340.894958 79.648410 L 344.577832 78.087501 L 348.260706 76.526591 L 351.943580 74.965682 L 355.626454 73.404773 L 359.309329 71.843863 L 362.992203 70.282954 L 366.675077 68.722044 L 370.357951 67.161135 L 374.036483 65.590421 L 377.667536 63.912488 L 381.298588 62.234555 L 384.929640 60.556622 L 388.560692 58.878689 L 392.191745 57.200755 L 395.822797 55.522822 L 399.453849 53.844889 L 403.081256 52.159182 L 406.693333 50.440782 L 410.305410 48.722381 L 413.917487 47.003980 L 417.455826 45.140190 L 420.976295 43.241164 L 424.496763 41.342137 L 427.957139 39.335815 L 431.415642 37.326150 L 434.874146 35.316485 L 438.336100 33.312964 L 441.345440 31.680880" fill="none" id="20" stroke="black" stroke-width="0.5" /><path d="M 156.726190 277.452910 L 153.506813 279.826854 L 150.280614 282.191257 L 146.992898 284.469617 L 143.821765 286.903108 L 141.807964 289.239490 L 145.386895 287.557412 L 148.776337 285.435568 L 152.174335 283.326852 L 155.644013 281.336541 L 159.113691 279.346231 L 162.527692 277.262352 L 165.932094 275.162341 L 169.336496 273.062331 L 172.740899 270.962320 L 176.145301 268.862310 L 179.549704 266.762299 L 182.954106 264.662288 L 186.395873 262.624312 L 189.844003 260.596900 L 193.292133 258.569488 L 196.740263 256.542076 L 200.188392 254.514663 L 203.636522 252.487251 L 207.084652 250.459839 L 210.532782 248.432427 L 213.980912 246.405015 L 217.434367 244.386777 L 220.904975 242.398088 L 224.375583 240.409400 L 227.846191 238.420711 L 231.316798 236.432023 L 234.788527 234.445321 L 238.285941 232.504164 L 241.783355 230.563006 L 245.280770 228.621848 L 248.778184 226.680691 L 252.275598 224.739533 L 255.787917 222.825540 L 259.304092 220.918576 L 262.820268 219.011612 L 266.336443 217.104648 L 269.852618 215.197684 L 273.368793 213.290720 L 276.884968 211.383756 L 280.401143 209.476791 L 283.917318 207.569827 L 287.433494 205.662863 L 290.955874 203.767513 L 294.495538 201.904510 L 298.035202 200.041507 L 301.574866 198.178505 L 305.114530 196.315502 L 308.654194 194.452499 L 312.193858 192.589496 L 315.733522 190.726494 L 319.273185 188.863491 L 322.812849 187.000488 L 326.352513 185.137485 L 329.892177 183.274482 L 333.431841 181.411480 L 336.971505 179.548477 L 340.511169 177.685474 L 344.024332 175.773065 L 347.534304 173.854707 L 351.044275 171.936348 L 354.554247 170.017990 L 358.029909 168.038216 L 361.503694 166.055084 L 364.977480 164.071952 L 368.461093 162.106271 L 371.957940 160.164091 L 375.454786 158.221911 L 378.951633 156.279731 L 382.448480 154.337551 L 385.945327 152.395371 L 389.442173 150.453191 L 392.939020 148.511011 L 396.415926 146.533470 L 399.887340 144.546189 L 403.357959 142.557811 L 400.223839 143.004376 L 396.563229 144.612216 L 395.948020 144.890260" fill="none" id="21" stroke="black" stroke-width="0.5" /><path d="M 139.017980 283.564470 L 140.294958 283.108850 L 143.830547 281.238124 L 147.366135 279.367399 L 150.901724 277.496673 L 154.425998 275.604992 L 157.929656 273.675127 L 161.433314 271.745261 L 164.949921 269.839369 L 168.484878 267.967452 L 172.019836 266.095535 L 175.554794 264.223618 L 179.089752 262.351701 L 182.624710 260.479784 L 186.159668 258.607867 L 189.694625 256.735950 L 193.229583 254.864033 L 196.764541 252.992116 L 200.299499 251.120199 L 203.834457 249.248282 L 207.369415 247.376365 L 210.904373 245.504448 L 214.439330 243.632531 L 217.974288 241.760614 L 221.509246 239.888698 L 225.044204 238.016781 L 228.579162 236.144864 L 232.114120 234.272947 L 235.649077 232.401030 L 239.184035 230.529113 L 242.718993 228.657196 L 246.253951 226.785279 L 249.788909 224.913362 L 253.323867 223.041445 L 256.858824 221.169528 L 260.393782 219.297611 L 263.928740 217.425694 L 267.463698 215.553777 L 271.000150 213.684697 L 274.543652 211.829005 L 278.087155 209.973314 L 281.630657 208.117623 L 285.174160 206.261932 L 288.717662 204.406240 L 292.271113 202.569828 L 295.836698 200.756928 L 299.402282 198.944027 L 302.967866 197.131126 L 306.533451 195.318226 L 310.099035 193.505325 L 313.647491 191.659308 L 317.187565 189.797085 L 320.727639 187.934862 L 324.267713 186.072639 L 327.807788 184.210416 L 331.344759 182.342388 L 334.859712 180.433172 L 338.374665 178.523956 L 341.889618 176.614741 L 345.404571 174.705525 L 348.919524 172.796309 L 352.434477 170.887093 L 355.949430 168.977877 L 359.464383 167.068662 L 362.979336 165.159446 L 366.488775 163.240319 L 369.964106 161.259897 L 373.439438 159.279476 L 376.914770 157.299054 L 380.390101 155.318632 L 383.892912 153.387344 L 387.399556 151.462909 L 390.906200 149.538475 L 394.413131 147.614569 L 397.933279 145.714947 L 401.453426 143.815326 L 404.973574 141.915705 L 408.493722 140.016084 L 412.013869 138.116463 L 415.534017 136.216842 L 419.101344 134.407716 L 422.674312 132.609412 L 426.247280 130.811108 L 429.820249 129.012804 L 430.076580 128.883790" fill="none" id="22" stroke="black" stroke-width="0.5" /><path d="M 165.076380 226.985650 L 165.494555 230.615091 L 165.576868 234.614244 L 165.659180 238.613397 L 165.741493 242.612550 L 165.823805 246.611703 L 165.906117 250.610856 L 165.988430 254.610009 L 166.063250 258.609239 L 166.063250 262.609239 L 166.063250 266.609239 L 166.063250 270.609239 L 166.063250 274.609239 L 166.063250 278.609239 L 166.063250 282.609239 L 166.063250 286.609239 L 166.063250 290.609239 L 166.063250 294.609239 L 166.063250 298.609239 L 166.063250 302.609239 L 166.063250 306.609239 L 166.063250 310.609239 L 166.063250 314.609239 L 166.083862 318.609074 L 166.147988 322.608560 L 166.212115 326.608046 L 166.276241 330.607532 L 166.340368 334.607018 L 166.404494 338.606504 L 166.468621 342.605990 L 166.532747 346.605476 L 166.596874 350.604962 L 166.661000 354.604448 L 166.797464 358.600430 L 167.120207 362.587388 L 167.442950 366.574346 L 167.899417 370.542510 L 168.688212 374.463964 L 169.282930 377.420570" fill="none" id="23" stroke="black" stroke-width="0.5" /><path d="M 150.608810 131.066490 L 150.991846 135.048108 L 151.374883 139.029726 L 151.729550 143.013861 L 152.053274 147.000739 L 152.376999 150.987618 L 152.700723 154.974497 L 152.981262 158.964412 L 153.218619 162.957364 L 153.455976 166.950315 L 153.693332 170.943267 L 153.930689 174.936218 L 154.168046 178.929170 L 154.405402 182.922121 L 154.642759 186.915073 L 154.880116 190.908024 L 155.117472 194.900976 L 155.354829 198.893927 L 155.592186 202.886879 L 155.824429 206.880123 L 156.044259 210.874078 L 156.264089 214.868033 L 156.483919 218.861988 L 156.703749 222.855942 L 156.923579 226.849897 L 157.143409 230.843852 L 157.363239 234.837807 L 157.538072 238.833976 L 157.711448 242.830217 L 157.884825 246.826457 L 158.058201 250.822698 L 158.231578 254.818939 L 158.404955 258.815180 L 158.578331 262.811421 L 158.731551 266.808442 L 158.867634 270.806126 L 159.003717 274.803811 L 159.139800 278.801495 L 159.275882 282.799180 L 159.411965 286.796864 L 159.548048 290.794549 L 159.734342 294.789810 L 159.983871 298.782019 L 160.233399 302.774229 L 160.482928 306.766438 L 160.732456 310.758647 L 160.981984 314.750857 L 161.231513 318.743066 L 161.512987 322.733149 L 161.794750 326.723213 L 162.076512 330.713277 L 162.358274 334.703341 L 162.640036 338.693405 L 162.921799 342.683469 L 163.203561 346.673533 L 163.485323 350.663597 L 163.767086 354.653660 L 164.048848 358.643724 L 164.373839 362.630402 L 164.716758 366.615676 L 165.059678 370.600950 L 165.402598 374.586223 L 165.745517 378.571497 L 166.088437 382.556771 L 166.442510 386.540968 L 166.868327 390.518238 L 167.294143 394.495508 L 167.845968 398.456947 L 168.365433 402.421464 L 168.643415 406.411731 L 169.282930 408.851450" fill="none" id="24" stroke="black" stroke-width="0.5" /><path d="M 158.336030 140.524860 L 158.336030 144.524860 L 158.343026 148.524775 L 158.440256 152.523593 L 158.537487 156.522411 L 158.634717 160.521229 L 158.819443 164.516659 L 159.031716 168.511023 L 159.243989 172.505387 L 159.456262 176.499750 L 159.668535 180.494114 L 159.880809 184.488477 L 160.093082 188.482841 L 160.305355 192.477204 L 160.517628 196.471568 L 160.729901 200.465931 L 160.942175 204.460295 L 161.271354 208.398120 L 161.393804 212.396246 L 161.516253 216.394371 L 161.638703 220.392496 L 161.761152 224.390622 L 161.883602 228.388747 L 162.006051 232.386872 L 162.128501 236.384998 L 162.250950 240.383123 L 162.373399 244.381248 L 162.495849 248.379374 L 162.618298 252.377499 L 162.740748 256.375624 L 162.863197 260.373750 L 162.985647 264.371875 L 163.108096 268.370000 L 163.230546 272.368126 L 163.352995 276.366251 L 163.475445 280.364376 L 163.597894 284.362502 L 163.720344 288.360627 L 163.842793 292.358752 L 163.965243 296.356877 L 164.414133 300.135557 L 164.550394 304.108830 L 164.648431 308.107628 L 164.746469 312.106427 L 164.844506 316.105225 L 164.942543 320.104023 L 165.040581 324.102822 L 165.138618 328.101620 L 165.236655 332.100419 L 165.334693 336.099217 L 165.432730 340.098015 L 165.530767 344.096814 L 165.628805 348.095612 L 165.726842 352.094411 L 165.797595 356.093769 L 165.863635 360.093223 L 165.929675 364.092678 L 165.995715 368.092133 L 166.061756 372.091588 L 166.231063 376.087972 L 166.402760 380.084286 L 166.574458 384.080599 L 166.758609 388.076291 L 166.985180 392.069869 L 167.211750 396.063447 L 167.523236 400.049846 L 167.970441 404.024768 L 168.457525 407.994298 L 169.081959 411.945258 L 169.282930 413.216850" fill="none" id="25" stroke="black" stroke-width="0.5" /><path d="M 420.739520 0.250000 L 420.877728 4.247612 L 421.015936 8.245223 L 421.199934 12.240860 L 421.406446 16.235525 L 421.612957 20.230191 L 421.819468 24.224857 L 422.025980 28.219522 L 422.232491 32.214188 L 422.439002 36.208853 L 422.645513 40.203519 L 422.759801 44.201734 L 422.860919 48.200455 L 422.962036 52.199177 L 423.063153 56.197899 L 423.164271 60.196621 L 423.265388 64.195342 L 423.358587 68.194249 L 423.444080 72.193335 L 423.529573 76.192421 L 423.615066 80.191507 L 423.700558 84.190594 L 423.786051 88.189680 L 423.871544 92.188766 L 423.957037 96.187853 L 424.042530 100.186939 L 424.128023 104.186025 L 424.213515 108.185111 L 424.299008 112.184198 L 424.384501 116.183284 L 424.469994 120.182370 L 424.555487 124.181456 L 424.627265 128.180783 L 424.681781 132.180411 L 424.736296 136.180040 L 424.790812 140.179668 L 424.845327 144.179297 L 424.899843 148.178925 L 424.954358 152.178554 L 425.008874 156.178182 L 425.063389 160.177811 L 425.117905 164.177439 L 425.172420 168.177068 L 425.226936 172.176696 L 425.281451 176.176325 L 425.335967 180.175953 L 425.390482 184.175582 L 425.444998 188.175210 L 425.499513 192.174839 L 425.554029 196.174467 L 425.569030 200.174365 L 425.569030 204.174365 L 425.569030 208.174365 L 425.580024 212.174191 L 425.706398 216.172194 L 425.832772 220.170198 L 426.010130 224.165985 L 426.231054 228.159880 L 426.451978 232.153774 L 426.928400 236.110866 L 427.500840 233.113174 L 427.500840 229.287990" fill="none" id="26" stroke="black" stroke-width="0.5" /><path d="M 420.739520 5.197450 L 420.871544 9.195271 L 421.003569 13.193091 L 421.135593 17.190912 L 421.267618 21.188732 L 421.394754 25.186690 L 421.486923 29.185628 L 421.579091 33.184566 L 421.671260 37.183504 L 421.763428 41.182442 L 421.855597 45.181380 L 421.947765 49.180318 L 422.039934 53.179256 L 422.132102 57.178194 L 422.224271 61.177132 L 422.316439 65.176070 L 422.408608 69.175008 L 422.500776 73.173946 L 422.592945 77.172884 L 422.689539 81.171703 L 422.811280 85.169850 L 422.933021 89.167997 L 423.054761 93.166144 L 423.176502 97.164291 L 423.298243 101.162438 L 423.419984 105.160585 L 423.541725 109.158732 L 423.646399 113.157230 L 423.688946 117.157003 L 423.731493 121.156777 L 423.774041 125.156551 L 423.816588 129.156325 L 423.859135 133.156098 L 423.901682 137.155872 L 423.944230 141.155646 L 424.054768 145.153804 L 424.202177 149.151087 L 424.349587 153.148370 L 424.496997 157.145653 L 424.644407 161.142936 L 424.791816 165.140219 L 424.931428 169.137710 L 424.997468 173.137165 L 425.063507 177.136619 L 425.129546 181.136074 L 425.195585 185.135529 L 425.261624 189.134984 L 425.327664 193.134439 L 425.393703 197.133893 L 425.459742 201.133348 L 425.525781 205.132803 L 425.569030 209.132446 L 425.569030 213.132446 L 425.569030 217.132446 L 425.595393 221.131637 L 425.840777 225.124103 L 426.086161 229.116569 L 426.331546 233.109035 L 426.634840 237.095462 L 427.178870 240.783550" fill="none" id="27" stroke="black" stroke-width="0.5" /><path d="M 269.092840 186.507070 L 265.356200 185.079653 L 261.619559 183.652236 L 257.882919 182.224819 L 254.146279 180.797402 L 250.409638 179.369986 L 246.672998 177.942569 L 242.936358 176.515152 L 239.228930 175.014144 L 235.530619 173.490169 L 231.832309 171.966195 L 228.097898 170.533789 L 224.693457 168.492460 L 228.424159 169.613534 L 232.032311 171.340163 L 235.740287 172.835565 L 239.471370 174.277445 L 243.202454 175.719324 L 246.933537 177.161204 L 250.664621 178.603083 L 254.395704 180.044963 L 258.188099 181.314689 L 261.990658 182.555876 L 265.793217 183.797064 L 269.595775 185.038251 L 273.409961 186.241609 L 277.253238 187.350313 L 281.096514 188.459018 L 284.939791 189.567723 L 288.783067 190.676427 L 292.626344 191.785132 L 296.469620 192.893836 L 300.312896 194.002541 L 304.156173 195.111246 L 307.999449 196.219950 L 311.842726 197.328655 L 315.686002 198.437359 L 319.538592 199.512632 L 323.401543 200.550713 L 327.264494 201.588794 L 331.127444 202.626874 L 334.990395 203.664955 L 338.853346 204.703036 L 342.718784 205.731711 L 346.589873 206.739021 L 350.460961 207.746331 L 354.332050 208.753641 L 358.203138 209.760951 L 362.074227 210.768261 L 365.964419 211.698304 L 369.858910 212.610958 L 373.753401 213.523613 L 377.647893 214.436267 L 381.548158 215.323200 L 385.459055 216.162776 L 389.369951 217.002353 L 393.282572 217.833072 L 397.222729 218.522397 L 401.162885 219.211722 L 405.067693 220.064511 L 408.940622 221.064723 L 412.772151 222.210548 L 416.454595 223.719779 L 419.129680 226.329359 L 415.435599 226.814270 L 412.690330 226.814270" fill="none" id="28" stroke="black" stroke-width="0.5" /><path d="M 215.324270 76.062450 L 219.133557 77.282832 L 222.942844 78.503213 L 226.752132 79.723595 L 230.561419 80.943976 L 234.370706 82.164358 L 238.179993 83.384739 L 241.992505 84.594909 L 245.811783 85.783655 L 249.631061 86.972400 L 253.450339 88.161146 L 257.269617 89.349891 L 261.088895 90.538636 L 264.908173 91.727382 L 268.727451 92.916127 L 272.546729 94.104873 L 276.366007 95.293618 L 280.185285 96.482364 L 284.004563 97.671109 L 287.823841 98.859855 L 291.643119 100.048600 L 295.462397 101.237346 L 299.281675 102.426091 L 303.100953 103.614837 L 306.920231 104.803582 L 310.727931 106.028201 L 314.521540 107.296479 L 318.315149 108.564757 L 322.108759 109.833035 L 325.902368 111.101312 L 329.695977 112.369590 L 333.493741 113.625166 L 337.303612 114.843723 L 341.113483 116.062280 L 344.923354 117.280837 L 348.733226 118.499394 L 352.543097 119.717952 L 356.347393 120.953762 L 360.149952 122.194949 L 363.952511 123.436136 L 367.755070 124.677324 L 371.557629 125.918511 L 375.360187 127.159698 L 379.162746 128.400886 L 382.967426 129.635437 L 386.784924 130.829889 L 390.602421 132.024341 L 394.419918 133.218793 L 398.237415 134.413244 L 399.167700 134.704320" fill="none" id="29" stroke="black" stroke-width="0.5" /><path d="M 425.891000 248.495760 L 426.462290 252.454753 L 427.005123 256.417516 L 427.484401 260.388699 L 427.987652 264.356738 L 428.548490 268.317226 L 429.109329 272.277713 L 429.670167 276.238200 L 430.231006 280.198688 L 430.750407 284.164728 L 431.252157 288.133134 L 431.735809 292.103518 L 432.103027 296.086627 L 432.470244 300.069735 L 432.652320 302.044660" fill="none" id="30" stroke="black" stroke-width="0.5" /><path d="M 132.900600 134.413300 L 132.900600 138.413300 L 132.900600 142.413300 L 132.900600 146.413300 L 132.900600 150.413300 L 132.900600 154.413300 L 132.900600 158.413300 L 132.959671 162.412846 L 133.021126 166.412374 L 133.082581 170.411902 L 133.144036 174.411430 L 133.205492 178.410958 L 133.266947 182.410486 L 133.328402 186.410013 L 133.389857 190.409541 L 133.451312 194.409069 L 133.512768 198.408597 L 133.589290 202.407835 L 133.681940 206.406762 L 133.774590 210.405688 L 133.867240 214.404615 L 133.959890 218.403542 L 134.052541 222.402469 L 134.145191 226.401396 L 134.188470 230.400894 L 134.188470 234.400894 L 134.188470 238.400894 L 134.188470 242.400894 L 134.188470 246.400894 L 134.188470 250.400894 L 134.188470 254.400894 L 134.188470 258.400894 L 134.188470 262.400894 L 134.188470 266.400894 L 134.188470 270.400894 L 134.188470 274.400894 L 134.188470 278.400894 L 134.188470 282.400894 L 134.188470 286.400894 L 134.267137 290.399830 L 134.375361 294.398366 L 134.483584 298.396901 L 134.591808 302.395437 L 134.700032 306.393973 L 134.808255 310.392509 L 134.916479 314.391044 L 135.024703 318.389580 L 135.132927 322.388116 L 135.241150 326.386651 L 135.349374 330.385187 L 135.457598 334.383723 L 135.748971 338.372213 L 136.078706 342.358599 L 136.408441 346.344985 L 136.738176 350.331372 L 137.316245 354.288704 L 137.915603 358.243545 L 138.551729 362.192066 L 139.307478 366.120022 L 140.442435 369.937628 L 142.115510 373.561916 L 142.237660 373.782740" fill="none" id="31" stroke="black" stroke-width="0.5" /><path d="M 123.563540 132.230600 L 123.563540 136.230600 L 123.563540 140.230600 L 123.563540 144.230600 L 123.563540 148.230600 L 123.700586 152.227723 L 123.868433 156.224200 L 124.036281 160.220677 L 124.204128 164.217154 L 124.371975 168.213631 L 124.539822 172.210108 L 124.707670 176.206585 L 124.875517 180.203061 L 125.043364 184.199538 L 125.653886 188.070099 L 125.913646 192.061656 L 126.173406 196.053212 L 126.433166 200.044769 L 126.692926 204.036326 L 126.952686 208.027883 L 127.212446 212.019439 L 127.472206 216.010996 L 127.731966 220.002553 L 127.991726 223.994109 L 128.251486 227.985666 L 128.511246 231.977223 L 128.771006 235.968779 L 129.030766 239.960336 L 129.251022 243.954262 L 129.470308 247.948247 L 129.689594 251.942232 L 129.908880 255.936216 L 130.128166 259.930201 L 130.347453 263.924186 L 130.566739 267.918171 L 130.786025 271.912155 L 131.005311 275.906140 L 131.224597 279.900125 L 131.443883 283.894109 L 131.663169 287.888094 L 131.882456 291.882079 L 132.101742 295.876063 L 132.314969 299.870365 L 132.513612 303.865429 L 132.712255 307.860494 L 132.910898 311.855559 L 133.109541 315.850623 L 133.308184 319.845688 L 133.506827 323.840752 L 133.733619 327.834294 L 133.967008 331.827480 L 134.200397 335.820665 L 134.433786 339.813851 L 134.667175 343.807036 L 134.900564 347.800221 L 135.133953 351.793407 L 135.367342 355.786592 L 135.600731 359.779778 L 135.829134 363.773234 L 136.030027 367.768186 L 136.230920 371.763138 L 136.431813 375.758090 L 136.575352 379.755491 L 136.715751 383.753027 L 136.764210 387.752176 L 136.840709 391.748505 L 137.730110 395.318710" fill="none" id="32" stroke="black" stroke-width="0.5" /><path d="M 472.576280 90.031730 L 472.747423 94.028067 L 472.918566 98.024404 L 473.089710 102.020741 L 473.260853 106.017078 L 473.431996 110.013415 L 473.627186 114.008519 L 473.865839 118.001393 L 474.104492 121.994267 L 474.343145 125.987142 L 474.581799 129.980016 L 474.820452 133.972890 L 475.059105 137.965764 L 475.297758 141.958639 L 475.536412 145.951513 L 475.775065 149.944387 L 476.013718 153.937261 L 476.181661 157.933511 L 476.324427 161.930962 L 476.467193 165.928414 L 476.609959 169.925865 L 476.752725 173.923317 L 476.895491 177.920768 L 477.038257 181.918219 L 477.817929 185.580573 L 477.987165 189.576991 L 478.156402 193.573410 L 478.325638 197.569828 L 478.494874 201.566246 L 478.664111 205.562664 L 478.833347 209.559083 L 479.002584 213.555501 L 479.132818 217.553364 L 479.259795 221.551348 L 479.386772 225.549333 L 479.513748 229.547317 L 479.640725 233.545301 L 479.767702 237.543285 L 479.894679 241.541269 L 479.995799 245.539810 L 480.040952 249.539555 L 480.086105 253.539300 L 480.131258 257.539045 L 480.176412 261.538790 L 480.221565 265.538535 L 480.266718 269.538280 L 480.303500 273.538073 L 480.303500 277.538073 L 480.303500 281.538073 L 480.303500 285.538073 L 480.303500 289.538073 L 480.303500 293.538073 L 480.303500 297.538073 L 480.303500 301.538073 L 480.303500 305.538073 L 480.303500 309.538073 L 480.303500 313.538073 L 480.303500 317.538073 L 480.303500 321.538073 L 480.303500 325.538073 L 480.303500 329.538073 L 480.303500 333.538073 L 480.269063 337.537558 L 480.149515 341.535771 L 480.029968 345.533984 L 479.910420 349.532198 L 479.790873 353.530411 L 479.671326 357.528624 L 479.659570 361.528448 L 479.659570 365.528448 L 479.659570 368.980800" fill="none" id="33" stroke="black" stroke-width="0.5" /><path d="M 472.898250 100.799720 L 472.809865 104.798743 L 472.721480 108.797767 L 472.633095 112.796790 L 472.544710 116.795814 L 472.456325 120.794837 L 472.367940 124.793860 L 472.279555 128.792884 L 472.191170 132.791907 L 472.102785 136.790931 L 472.173046 140.788973 L 472.310895 144.786597 L 472.448745 148.784221 L 472.586594 152.781845 L 472.724443 156.779469 L 472.862292 160.777093 L 473.000141 164.774717 L 473.587341 168.577606 L 473.746683 172.574431 L 473.906026 176.571256 L 474.065368 180.568081 L 474.224710 184.564906 L 474.384053 188.561731 L 474.543395 192.558556 L 474.702738 196.555381 L 474.859281 200.552313 L 475.004700 204.549669 L 475.150119 208.547024 L 475.295538 212.544380 L 475.440957 216.541736 L 475.586376 220.539092 L 475.731795 224.536448 L 475.877214 228.533803 L 476.022633 232.531159 L 476.168052 236.528515 L 476.313471 240.525871 L 476.458890 244.523227 L 476.604309 248.520582 L 476.749728 252.517938 L 476.895147 256.515294 L 477.040566 260.512650 L 477.185985 264.510006 L 477.331404 268.507361 L 477.476823 272.504717 L 477.622242 276.502073 L 477.767661 280.499429 L 477.913080 284.496784 L 478.058499 288.494140 L 478.177752 292.492350 L 478.293335 296.490680 L 478.408919 300.489010 L 478.524503 304.487339 L 478.640086 308.485669 L 478.775468 312.483335 L 478.927953 316.480427 L 479.080439 320.477520 L 479.232924 324.474612 L 479.398516 328.471136 L 479.592802 332.466415 L 479.787088 336.461694 L 479.981374 340.456973 L 480.111512 344.454855 L 480.241599 348.452739 L 480.477955 352.444461 L 480.810781 356.430591 L 481.068591 360.421781 L 481.269400 364.324370" fill="none" id="34" stroke="black" stroke-width="0.5" /><path d="M 130.646830 160.169160 L 134.342944 161.698455 L 138.039057 163.227750 L 141.735171 164.757045 L 145.431285 166.286340 L 149.127399 167.815635 L 152.823512 169.344930 L 156.541811 170.819195 L 160.265139 172.280985 L 163.988466 173.742776 L 167.711794 175.204566 L 171.435122 176.666356 L 175.158450 178.128146 L 178.881777 179.589937 L 182.605105 181.051727 L 186.336751 182.491590 L 190.092779 183.867183 L 193.848807 185.242775 L 197.604835 186.618368 L 201.360863 187.993960 L 205.110357 189.386949 L 208.843265 190.824098 L 212.576173 192.261247 L 216.309081 193.698395 L 220.041989 195.135544 L 223.760754 196.608601 L 227.471034 198.103197 L 231.181315 199.597793 L 234.891596 201.092390 L 238.577879 202.644505 L 242.250268 204.229926 L 245.922658 205.815346 L 249.595047 207.400767 L 253.267436 208.986187 L 256.939825 210.571608 L 257.592370 210.963094 L 253.987578 209.233798 L 250.291991 207.705683 L 246.584766 206.203525 L 244.301350 205.278290" fill="none" id="35" stroke="black" stroke-width="0.5" /><path d="M 98.772050 146.054360 L 102.533724 147.414436 L 106.305926 148.744071 L 110.104134 149.998509 L 113.896792 151.268466 L 117.629083 152.707217 L 121.361375 154.145967 L 125.090036 155.593908 L 128.798321 157.093451 L 132.506605 158.592994 L 136.214889 160.092537 L 139.905362 161.635271 L 143.592738 163.185516 L 147.280114 164.735761 L 150.971243 166.276747 L 154.697205 167.731810 L 158.423167 169.186873 L 162.149128 170.641936 L 165.875090 172.096999 L 169.601052 173.552062 L 173.327014 175.007124 L 177.052976 176.462187 L 180.778938 177.917250 L 184.508809 179.362093 L 188.254631 180.765239 L 192.000453 182.168385 L 195.746275 183.571531 L 199.492097 184.974677 L 203.237918 186.377823 L 206.983740 187.780969 L 210.729562 189.184115 L 214.475384 190.587261 L 218.221206 191.990407 L 221.951942 193.432863 L 225.674767 194.895934 L 229.397591 196.359005 L 233.120416 197.822076 L 236.790514 199.410043 L 240.435534 201.057412 L 244.080555 202.704782 L 247.667002 204.473574 L 251.225174 206.300980 L 254.693001 208.290513 L 258.119036 210.355042 L 254.808275 209.735879 L 251.449306 207.587305 L 248.005044 205.556706 L 247.521020 205.278290" fill="none" id="36" stroke="black" stroke-width="0.5" /><path d="M 108.753040 148.237060 L 105.311305 147.108048 L 108.679679 149.134614 L 112.273052 150.890389 L 115.890914 152.596575 L 119.565597 154.171804 L 123.283122 155.648289 L 127.000647 157.124773 L 130.728397 158.575139 L 134.460282 160.014943 L 138.192167 161.454747 L 141.928508 162.882682 L 145.685887 164.254578 L 149.443266 165.626475 L 153.200646 166.998371 L 156.958025 168.370267 L 160.715405 169.742163 L 164.472784 171.114060 L 168.230164 172.485956 L 171.987543 173.857852 L 175.584794 175.345312 L 179.334083 176.739169 L 183.083371 178.133026 L 186.832660 179.526882 L 190.581948 180.920739 L 194.331237 182.314595 L 198.080525 183.708452 L 201.829814 185.102309 L 205.579102 186.496165 L 209.328390 187.890022 L 213.077679 189.283878 L 216.819505 190.697480 L 220.553459 192.131908 L 224.287413 193.566337 L 228.021368 195.000765 L 231.755322 196.435194 L 235.476596 197.901331 L 239.170046 199.437048 L 242.863497 200.972765 L 246.556947 202.508481 L 250.250397 204.044198 L 253.881998 205.720606 L 257.510646 207.403733 L 261.139294 209.086859 L 264.750338 210.807078 L 268.348776 212.553859 L 271.927891 214.337478 L 275.410558 216.304971 L 278.822754 218.390246 L 281.005640 220.266170" fill="none" id="37" stroke="black" stroke-width="0.5" /><path d="M 360.209630 35.027690 L 357.620980 32.990500 L 361.620980 32.990500 L 365.605905 33.247121 L 369.578390 33.715477 L 373.493022 34.506633 L 377.380898 35.447068 L 381.268774 36.387503 L 385.156650 37.327938 L 389.044527 38.268373 L 392.932403 39.208808 L 396.807223 40.201315 L 400.678860 41.206512 L 404.550498 42.211710 L 408.422136 43.216907 L 412.307658 44.166821 L 416.194801 45.110284 L 420.081943 46.053746 L 423.969086 46.997209 L 427.852003 47.957697 L 431.729149 48.941433 L 435.606296 49.925169 L 439.483442 50.908905 L 443.360588 51.892641 L 447.232619 52.896228 L 451.102344 53.908763 L 454.972069 54.921298 L 458.841795 55.933832 L 462.711520 56.946367 L 466.575181 57.981787 L 470.438501 59.018491 L 474.301821 60.055196 L 478.165141 61.091901 L 482.028462 62.128606 L 485.891782 63.165310 L 489.755102 64.202015 L 493.618422 65.238720 L 497.454834 66.370704 L 501.289717 67.508103 L 505.138958 68.591869 L 509.029153 69.522667 L 512.919347 70.453465 L 515.235077 70.912224 L 511.461431 69.585725 L 507.687786 68.259225 L 506.704830 67.913700" fill="none" id="38" stroke="black" stroke-width="0.5" /><path d="M 359.243730 35.027690 L 363.237097 35.164982 L 367.202593 35.652666 L 371.113057 36.494253 L 375.016079 37.369036 L 378.911502 38.277701 L 382.806926 39.186367 L 386.702350 40.095032 L 390.597774 41.003697 L 394.495494 41.902364 L 398.397116 42.784034 L 402.298739 43.665704 L 406.200361 44.547374 L 410.101984 45.429044 L 414.003606 46.310714 L 417.905229 47.192384 L 421.806851 48.074054 L 425.724092 48.883310 L 429.642268 49.688228 L 433.560445 50.493147 L 437.478621 51.298065 L 441.392656 52.122557 L 445.301064 52.973644 L 449.209472 53.824732 L 453.117879 54.675819 L 457.026287 55.526906 L 460.934695 56.377993 L 464.843102 57.229080 L 468.751510 58.080168 L 472.659918 58.931255 L 476.565867 59.793424 L 480.467490 60.675091 L 484.369113 61.556759 L 488.270736 62.438427 L 492.163355 63.358387 L 496.049083 64.307662 L 499.934810 65.256937 L 503.808994 66.251194 L 507.671663 67.290323 L 511.534332 68.329453 L 515.397001 69.368582 L 517.651730 70.241920" fill="none" id="39" stroke="black" stroke-width="0.5" /></svg>