<?xml version="1.0" encoding="utf-8" ?>
<svg baseProfile="full" height="504.5" version="1.1" viewBox="0,0,823.5,504.5" width="823.5" xmlns="http://www.w3.org/2000/svg" xmlns:ev="http://www.w3.org/2001/xml-events" xmlns:xlink="http://www.w3.org/1999/xlink"><defs><style type="text/css"><![CDATA[
	.background { fill: white; }
	.line { stroke: firebrick; stroke-width: .1mm; }
	.blacksquare { fill: indigo; }
	.whitesquare { fill: white; }
]]></style></defs><rect class="background" height="100%" width="100%" x="0" y="0" /><path d="M 13.131900 169.478000 L 18.097300 169.311000 L 23.054300 168.983000 L 27.979600 168.335000 L 32.855200 167.380000 L 37.734300 166.444000 L 42.586100 165.375000 L 47.429700 164.269000 L 52.272600 163.160000 L 57.115500 162.051000 L 61.958500 160.943000 L 66.801400 159.834000 L 71.644300 158.725000 L 76.488700 157.623000 L 81.340300 156.553000 L 86.200100 155.520000 L 91.062200 154.499000 L 95.924400 153.478000 L 100.787000 152.457000 L 105.649000 151.436000 L 110.511000 150.415000 L 115.373000 149.394000 L 120.235000 148.371000 L 125.093000 147.330000 L 129.940000 146.242000 L 134.780000 145.119000 L 139.619000 143.994000 L 144.458000 142.869000 L 149.297000 141.743000 L 154.137000 140.618000 L 158.976000 139.493000 L 163.815000 138.368000 L 168.655000 137.246000 L 173.498000 136.137000 L 178.346000 135.052000 L 183.197000 133.979000 L 188.048000 132.905000 L 192.899000 131.832000 L 197.749000 130.758000 L 202.600000 129.685000 L 207.451000 128.611000 L 212.302000 127.538000 L 217.153000 126.465000 L 222.004000 125.391000 L 226.855000 124.318000 L 231.706000 123.244000 L 236.556000 122.171000 L 241.407000 121.097000 L 246.258000 120.024000 L 251.109000 118.951000 L 255.960000 117.877000 L 260.811000 116.804000 L 265.662000 115.730000 L 270.513000 114.657000 L 275.363000 113.584000 L 280.214000 112.510000 L 285.065000 111.437000 L 289.916000 110.363000 L 294.767000 109.290000 L 299.625000 108.248000 L 304.491000 107.246000 L 309.360000 106.257000 L 314.229000 105.269000 L 319.097000 104.280000 L 323.966000 103.292000 L 328.835000 102.303000 L 333.704000 101.315000 L 338.573000 100.327000 L 343.442000 99.338200 L 348.311000 98.349800 L 353.180000 97.360900 L 358.046000 96.360200 L 362.906000 95.328000 L 367.765000 94.291100 L 372.624000 93.254200 L 377.482000 92.217200 L 382.341000 91.180300 L 387.200000 90.143400 L 392.059000 89.106400 L 396.918000 88.069500 L 401.776000 87.032500 L 406.635000 85.995600 L 411.494000 84.958700" fill="none" id="0" stroke="#c583d9" stroke-width="0.5" /><path d="M 242.171000 367.904000 L 247.167000 368.013000 L 252.156000 367.737000 L 257.078000 366.876000 L 261.920000 365.640000 L 266.755000 364.377000 L 271.540000 362.937000 L 276.300000 361.415000 L 281.035000 359.821000 L 285.737000 358.128000 L 290.438000 356.434000 L 295.140000 354.741000 L 299.841000 353.048000 L 304.542000 351.355000 L 309.244000 349.662000 L 313.945000 347.969000 L 318.638000 346.252000 L 323.285000 344.415000 L 327.932000 342.578000 L 332.579000 340.741000 L 337.226000 338.904000 L 341.873000 337.066000 L 346.520000 335.229000 L 351.168000 333.392000 L 355.815000 331.555000 L 360.462000 329.717000 L 365.109000 327.880000 L 369.756000 326.043000 L 374.403000 324.206000 L 379.050000 322.368000 L 383.697000 320.531000 L 388.344000 318.694000 L 392.991000 316.857000 L 397.638000 315.019000 L 402.285000 313.182000 L 406.932000 311.345000 L 411.579000 309.508000 L 416.259000 307.756000 L 420.941000 306.011000 L 425.623000 304.266000 L 430.306000 302.520000 L 434.988000 300.775000 L 439.670000 299.029000 L 444.353000 297.284000 L 449.035000 295.538000 L 453.709000 293.772000 L 458.340000 291.894000 L 462.952000 289.970000 L 467.563000 288.046000 L 472.175000 286.121000 L 476.787000 284.197000 L 481.400000 282.278000 L 486.370000 281.765000 L 491.080000 280.095000 L 495.789000 278.425000 L 500.499000 276.755000 L 505.209000 275.085000 L 509.919000 273.415000 L 514.628000 271.746000 L 519.338000 270.076000 L 524.048000 268.406000 L 528.758000 266.736000 L 533.467000 265.066000 L 538.177000 263.396000 L 542.887000 261.726000 L 547.597000 260.057000 L 552.306000 258.387000 L 557.017000 256.720000 L 561.760000 255.147000 L 566.506000 253.583000 L 571.252000 252.019000 L 575.998000 250.455000 L 580.744000 248.891000 L 585.490000 247.327000 L 590.236000 245.763000 L 594.982000 244.199000 L 599.728000 242.635000 L 604.474000 241.070000 L 609.220000 239.506000 L 613.966000 237.942000 L 618.712000 236.378000 L 623.458000 234.814000 L 628.204000 233.250000 L 632.950000 231.686000 L 637.696000 230.122000 L 642.441000 228.558000 L 647.187000 226.994000 L 651.933000 225.430000 L 656.679000 223.866000 L 661.425000 222.302000 L 666.171000 220.738000" fill="none" id="1" stroke="#f375a0" stroke-width="0.5" /><path d="M 17.824800 182.825000 L 22.775600 182.231000 L 27.713200 181.536000 L 32.623000 180.666000 L 37.518100 179.716000 L 42.413900 178.770000 L 47.297400 177.763000 L 52.160200 176.660000 L 57.020100 175.544000 L 61.879700 174.428000 L 66.739400 173.311000 L 71.599100 172.194000 L 76.458800 171.077000 L 81.318500 169.961000 L 86.178200 168.844000 L 91.037900 167.727000 L 95.897000 166.608000 L 100.752000 165.472000 L 105.600000 164.304000 L 110.446000 163.129000 L 115.292000 161.954000 L 120.137000 160.779000 L 124.983000 159.603000 L 129.829000 158.428000 L 134.675000 157.253000 L 139.521000 156.078000 L 144.367000 154.903000 L 149.213000 153.727000 L 154.058000 152.552000 L 158.904000 151.377000 L 163.750000 150.202000 L 168.596000 149.026000 L 173.442000 147.851000 L 178.288000 146.676000 L 183.133000 145.497000 L 187.974000 144.304000 L 192.812000 143.096000 L 197.649000 141.884000 L 202.486000 140.671000 L 207.322000 139.459000 L 212.159000 138.246000 L 216.995000 137.033000 L 221.832000 135.821000 L 226.669000 134.608000 L 231.505000 133.396000 L 236.342000 132.183000 L 241.179000 130.970000 L 246.015000 129.758000 L 250.852000 128.545000 L 255.689000 127.332000 L 260.525000 126.120000 L 265.362000 124.907000 L 270.199000 123.694000 L 275.035000 122.482000 L 279.872000 121.269000 L 284.708000 120.057000 L 289.545000 118.844000 L 294.382000 117.631000 L 299.218000 116.419000 L 304.055000 115.206000 L 308.892000 113.993000 L 313.728000 112.781000 L 318.565000 111.568000 L 323.402000 110.356000 L 328.238000 109.143000 L 333.075000 107.931000 L 337.913000 106.723000 L 342.755000 105.533000 L 347.601000 104.358000 L 352.447000 103.185000 L 357.294000 102.012000 L 362.140000 100.839000 L 366.987000 99.666100 L 371.833000 98.493100 L 376.679000 97.320000 L 381.526000 96.146900 L 386.372000 94.973900 L 391.219000 93.800800 L 396.065000 92.627800 L 400.911000 91.454700" fill="none" id="2" stroke="#9de993" stroke-width="0.5" /><path d="M 26.612200 191.872000 L 31.579100 191.705000 L 36.538600 191.386000 L 41.476100 190.826000 L 46.339400 189.803000 L 51.194100 188.740000 L 56.047000 187.668000 L 60.899900 186.597000 L 65.752900 185.525000 L 70.605500 184.453000 L 75.451000 183.348000 L 80.278800 182.169000 L 85.106600 180.990000 L 89.934500 179.810000 L 94.762200 178.631000 L 99.587900 177.443000 L 104.397000 176.189000 L 109.190000 174.876000 L 113.984000 173.564000 L 118.777000 172.251000 L 123.564000 170.915000 L 128.332000 169.515000 L 133.100000 168.115000 L 137.866000 166.706000 L 142.633000 165.298000 L 147.399000 163.889000 L 152.165000 162.481000 L 156.931000 161.072000 L 161.697000 159.664000 L 166.463000 158.255000 L 171.229000 156.847000 L 175.995000 155.438000 L 180.761000 154.030000 L 185.527000 152.621000 L 190.292000 151.211000 L 195.032000 149.717000 L 199.757000 148.178000 L 204.483000 146.638000 L 209.208000 145.099000 L 213.933000 143.560000 L 218.659000 142.021000 L 223.395000 140.515000 L 228.156000 139.090000 L 232.924000 137.689000 L 237.711000 136.355000 L 242.631000 135.655000 L 247.456000 134.465000 L 252.223000 133.059000 L 256.990000 131.653000 L 261.756000 130.247000 L 266.523000 128.841000 L 271.290000 127.435000 L 276.057000 126.029000 L 280.823000 124.623000 L 285.590000 123.217000 L 290.357000 121.811000 L 295.124000 120.405000 L 299.890000 118.999000 L 304.658000 117.599000 L 309.575000 116.878000 L 314.342000 115.471000 L 319.108000 114.065000 L 323.875000 112.659000 L 328.642000 111.253000 L 333.408000 109.847000 L 338.176000 108.444000 L 343.066000 107.560000 L 347.840000 106.178000 L 352.614000 104.797000 L 357.388000 103.415000 L 362.162000 102.033000 L 366.936000 100.652000 L 371.710000 99.274400 L 376.658000 98.806800 L 381.461000 97.531900 L 386.254000 96.216000 L 391.046000 94.900200 L 395.838000 93.584300 L 400.631000 92.268500 L 405.423000 90.952600 L 410.216000 89.636800 L 415.008000 88.321000 L 419.800000 87.005100 L 424.593000 85.689300 L 429.385000 84.373400 L 434.178000 83.057600 L 438.970000 81.741700 L 443.763000 80.425900 L 448.555000 79.110000 L 453.347000 77.794200 L 458.140000 76.478300" fill="none" id="3" stroke="#ad5ba7" stroke-width="0.5" /><path d="M 276.156000 76.950800 L 280.396000 79.586300 L 284.635000 82.222700 L 288.875000 84.859400 L 293.115000 87.494300 L 297.361000 90.121000 L 301.639000 92.695600 L 305.940000 95.230200 L 310.243000 97.761900 L 314.550000 100.286000 L 318.889000 102.757000 L 323.262000 105.165000 L 327.639000 107.565000 L 332.017000 109.966000 L 336.398000 112.360000 L 340.806000 114.705000 L 345.238000 117.003000 L 349.675000 119.291000 L 354.116000 121.572000 L 358.575000 123.816000 L 363.052000 126.027000 L 367.533000 128.229000 L 372.013000 130.431000 L 376.494000 132.633000 L 380.974000 134.835000 L 385.455000 137.038000 L 389.936000 139.240000 L 394.429000 141.416000 L 398.964000 143.503000 L 403.530000 145.522000 L 408.103000 147.525000 L 412.676000 149.527000 L 417.250000 151.530000 L 421.823000 153.532000 L 426.396000 155.535000 L 430.970000 157.537000 L 435.543000 159.540000 L 440.116000 161.542000 L 444.690000 163.545000 L 449.263000 165.547000 L 453.836000 167.550000 L 458.410000 169.552000 L 462.983000 171.555000 L 467.556000 173.557000 L 472.130000 175.560000 L 476.703000 177.563000 L 481.271000 179.576000 L 485.830000 181.612000 L 490.379000 183.668000 L 494.926000 185.730000 L 499.473000 187.792000 L 504.019000 189.854000 L 508.566000 191.917000 L 513.113000 193.979000 L 517.660000 196.041000 L 522.206000 198.103000 L 526.753000 200.165000 L 531.300000 202.227000 L 535.847000 204.290000 L 540.393000 206.352000 L 544.939000 208.416000 L 549.471000 210.510000 L 553.968000 212.678000 L 558.438000 214.902000 L 562.902000 217.138000 L 567.366000 219.374000 L 571.829000 221.610000 L 576.288000 223.857000 L 580.727000 226.140000 L 585.155000 228.447000 L 589.581000 230.757000 L 594.007000 233.067000 L 598.433000 235.377000 L 602.859000 237.687000 L 607.285000 239.997000 L 611.711000 242.307000 L 616.137000 244.617000 L 620.563000 246.927000 L 624.987000 249.241000 L 629.394000 251.586000 L 633.765000 253.998000 L 638.122000 256.437000 L 642.477000 258.877000 L 646.833000 261.317000 L 651.188000 263.758000 L 655.544000 266.198000 L 659.899000 268.638000 L 664.254000 271.079000 L 668.610000 273.519000 L 672.965000 275.959000 L 677.321000 278.400000" fill="none" id="4" stroke="#58f2c3" stroke-width="0.5" /><path d="M 625.037000 253.856000 L 629.560000 255.847000 L 634.082000 257.837000 L 638.605000 259.828000 L 643.128000 261.817000 L 647.657000 263.792000 L 652.214000 265.702000 L 656.789000 267.570000 L 661.366000 269.431000 L 665.943000 271.293000 L 670.520000 273.154000 L 675.097000 275.016000 L 679.674000 276.878000 L 684.251000 278.739000 L 688.829000 280.601000 L 693.406000 282.462000 L 697.983000 284.324000 L 702.560000 286.185000 L 707.137000 288.047000 L 711.714000 289.908000 L 716.291000 291.770000 L 720.868000 293.631000 L 725.445000 295.493000 L 730.022000 297.354000 L 734.600000 299.216000 L 739.177000 301.077000 L 743.754000 302.939000 L 748.331000 304.800000 L 752.908000 306.662000 L 757.482000 308.531000 L 762.038000 310.444000 L 766.573000 312.406000 L 771.080000 314.431000 L 775.540000 316.558000 L 779.983000 318.719000 L 784.407000 320.919000" fill="none" id="5" stroke="#58f2c3" stroke-width="0.5" /><path d="M 196.628000 32.045300 L 201.320000 33.566900 L 205.998000 35.132200 L 210.649000 36.776000 L 215.294000 38.435800 L 219.912000 40.171800 L 224.488000 42.013600 L 229.060000 43.864400 L 233.633000 45.715300 L 238.180000 47.627200 L 242.629000 49.758200 L 247.052000 51.941900 L 251.474000 54.128900 L 255.895000 56.315900 L 260.317000 58.502900 L 264.738000 60.689900 L 269.160000 62.876900 L 273.581000 65.063900 L 278.003000 67.250900 L 282.424000 69.437800 L 286.846000 71.624800 L 291.268000 73.811800 L 295.689000 75.998800 L 300.111000 78.185800 L 304.532000 80.372800 L 308.954000 82.559800 L 313.375000 84.746800 L 317.797000 86.933700 L 322.219000 89.120700 L 326.640000 91.307700 L 331.062000 93.494700 L 335.496000 95.656600 L 339.947000 97.781600 L 344.405000 99.893800 L 348.863000 102.006000 L 353.321000 104.118000 L 357.779000 106.230000 L 362.236000 108.342000 L 366.694000 110.454000 L 371.152000 112.566000 L 375.610000 114.678000 L 380.068000 116.790000 L 384.526000 118.902000 L 388.983000 121.014000 L 393.441000 123.126000 L 397.899000 125.238000 L 402.357000 127.351000 L 406.820000 129.453000 L 411.309000 131.496000 L 415.839000 133.449000 L 420.371000 135.396000 L 424.903000 137.344000 L 429.435000 139.292000 L 433.967000 141.239000 L 438.496000 143.195000 L 442.995000 145.219000 L 447.467000 147.299000 L 451.939000 149.382000 L 456.410000 151.465000 L 460.882000 153.548000 L 465.353000 155.632000 L 469.825000 157.715000" fill="none" id="6" stroke="#c94e76" stroke-width="0.5" /><path d="M 480.565000 156.344000 L 484.120000 159.818000 L 487.731000 163.234000 L 491.412000 166.574000 L 495.161000 169.838000 L 498.904000 173.108000 L 502.602000 176.429000 L 506.210000 179.848000 L 509.781000 183.305000 L 513.347000 186.768000 L 516.914000 190.230000 L 520.488000 193.684000 L 524.090000 197.109000 L 527.712000 200.512000 L 531.339000 203.911000 L 534.967000 207.309000 L 538.594000 210.708000 L 542.221000 214.106000 L 545.848000 217.505000 L 549.475000 220.903000 L 553.116000 224.287000 L 556.799000 227.625000 L 560.523000 230.916000 L 564.261000 234.193000 L 567.998000 237.470000 L 571.736000 240.747000 L 575.473000 244.024000 L 579.210000 247.301000 L 582.948000 250.578000 L 586.685000 253.854000 L 590.423000 257.131000 L 594.160000 260.408000 L 597.898000 263.685000 L 601.635000 266.962000 L 605.372000 270.239000 L 609.110000 273.515000 L 612.847000 276.792000 L 616.587000 280.067000 L 620.358000 283.305000 L 624.202000 286.456000 L 628.093000 289.549000" fill="none" id="7" stroke="#c94e76" stroke-width="0.5" /><path d="M 0.250000 183.463000 L 4.127360 186.609000 L 7.953960 189.817000 L 11.694600 193.125000 L 15.422700 196.447000 L 19.256300 199.647000 L 23.155800 202.766000 L 27.061300 205.878000 L 31.006900 208.938000 L 35.013600 211.918000 L 39.025600 214.891000 L 43.037900 217.864000 L 47.050400 220.836000 L 51.070000 223.799000 L 55.125600 226.712000 L 59.217500 229.574000 L 63.314700 232.429000 L 67.418200 235.274000 L 71.566200 238.054000 L 75.783100 240.728000 L 80.021900 243.368000 L 84.262700 246.004000 L 88.503500 248.641000 L 92.744300 251.277000 L 96.981900 253.919000 L 101.196000 256.598000 L 105.366000 259.344000 L 109.523000 262.111000 L 113.680000 264.877000 L 117.838000 267.643000 L 121.995000 270.410000 L 126.152000 273.176000 L 130.309000 275.942000 L 134.467000 278.708000 L 138.629000 281.467000 L 142.812000 284.194000 L 147.023000 286.878000 L 151.247000 289.541000 L 155.473000 292.202000 L 159.698000 294.863000 L 163.924000 297.523000 L 168.149000 300.184000 L 172.375000 302.845000 L 176.595000 305.514000 L 180.796000 308.214000 L 184.970000 310.955000 L 189.133000 313.712000 L 193.295000 316.471000 L 197.457000 319.230000 L 201.620000 321.989000 L 205.782000 324.747000 L 209.944000 327.506000 L 214.106000 330.265000 L 218.269000 333.024000 L 222.431000 335.782000 L 226.593000 338.541000 L 230.755000 341.300000 L 234.916000 344.061000 L 239.069000 346.833000 L 243.211000 349.622000 L 247.347000 352.420000 L 251.482000 355.220000 L 255.617000 358.019000 L 259.752000 360.819000 L 263.887000 363.618000 L 268.022000 366.418000 L 272.157000 369.217000 L 276.292000 372.017000 L 280.427000 374.816000 L 284.562000 377.616000 L 288.697000 380.415000 L 292.832000 383.215000 L 296.967000 386.014000 L 301.102000 388.814000 L 305.237000 391.613000 L 309.372000 394.413000 L 313.507000 397.212000 L 317.642000 400.012000 L 321.777000 402.811000 L 325.912000 405.611000 L 330.047000 408.410000 L 334.189000 411.198000 L 338.359000 413.947000 L 342.547000 416.665000 L 346.738000 419.380000 L 350.930000 422.094000 L 355.121000 424.809000 L 359.312000 427.524000 L 363.503000 430.238000 L 367.694000 432.953000 L 371.886000 435.667000 L 376.077000 438.382000 L 380.268000 441.096000 L 384.459000 443.811000 L 388.650000 446.526000 L 392.842000 449.240000 L 397.033000 451.955000 L 401.224000 454.669000 L 405.415000 457.384000" fill="none" id="8" stroke="#57b870" stroke-width="0.5" /><path d="M 116.250000 263.045000 L 119.959000 266.280000 L 123.772000 269.390000 L 127.719000 272.329000 L 131.785000 275.101000 L 135.852000 277.873000 L 139.918000 280.644000 L 143.984000 283.416000 L 148.051000 286.187000 L 152.117000 288.959000 L 156.184000 291.730000 L 160.250000 294.502000 L 164.316000 297.273000 L 168.379000 300.051000 L 172.425000 302.851000 L 176.461000 305.668000 L 180.494000 308.487000 L 184.527000 311.307000 L 188.560000 314.127000 L 192.593000 316.947000 L 196.626000 319.767000 L 200.660000 322.586000 L 204.720000 325.366000 L 208.847000 328.046000 L 213.019000 330.657000 L 217.196000 333.258000 L 221.374000 335.859000 L 225.551000 338.460000 L 229.729000 341.061000 L 233.907000 343.661000 L 238.084000 346.262000 L 242.262000 348.863000 L 246.440000 351.464000 L 250.617000 354.065000 L 254.795000 356.666000 L 258.973000 359.266000 L 263.150000 361.867000 L 267.328000 364.468000 L 271.506000 367.068000 L 275.693000 369.654000 L 279.909000 372.192000 L 284.129000 374.724000 L 288.349000 377.256000 L 292.568000 379.787000 L 296.788000 382.319000 L 301.008000 384.851000 L 305.228000 387.383000 L 309.448000 389.915000 L 313.667000 392.447000" fill="none" id="9" stroke="#57b870" stroke-width="0.5" /><path d="M 125.006000 271.880000 L 128.610000 275.208000 L 132.512000 278.170000 L 136.677000 280.767000 L 140.830000 283.382000 L 144.993000 285.983000 L 149.156000 288.584000 L 153.319000 291.185000 L 157.482000 293.786000 L 161.640000 296.394000 L 165.781000 299.030000 L 169.903000 301.694000 L 174.025000 304.359000 L 178.148000 307.023000 L 182.270000 309.687000 L 186.393000 312.352000 L 190.515000 315.016000 L 194.637000 317.681000 L 198.768000 320.333000 L 202.927000 322.939000 L 207.115000 325.499000 L 211.311000 328.045000 L 215.514000 330.582000 L 219.737000 333.083000 L 223.983000 335.545000 L 228.239000 337.990000 L 232.497000 340.433000 L 236.754000 342.876000 L 241.012000 345.319000 L 245.269000 347.762000 L 249.526000 350.205000 L 253.784000 352.648000 L 258.041000 355.091000 L 262.299000 357.533000 L 266.561000 359.967000 L 270.854000 362.346000 L 275.197000 364.634000 L 279.559000 366.884000 L 283.924000 369.130000 L 288.288000 371.376000 L 292.657000 373.615000 L 297.046000 375.811000 L 301.464000 377.950000 L 305.888000 380.076000 L 310.314000 382.200000 L 314.739000 384.324000 L 319.164000 386.448000 L 323.589000 388.573000" fill="none" id="10" stroke="#57b870" stroke-width="0.5" /><path d="M 372.156000 504.203000 L 376.839000 502.594000 L 381.488000 500.885000 L 386.091000 499.057000 L 390.681000 497.199000 L 395.254000 495.295000 L 399.830000 493.402000 L 404.394000 491.479000 L 408.915000 489.457000 L 413.424000 487.408000 L 417.932000 485.358000 L 422.440000 483.308000 L 426.948000 481.257000 L 431.453000 479.198000 L 435.932000 477.085000 L 440.392000 474.933000 L 444.850000 472.776000 L 449.308000 470.618000 L 453.766000 468.461000 L 458.224000 466.304000 L 462.682000 464.146000 L 467.140000 461.989000 L 471.598000 459.832000 L 476.056000 457.675000 L 480.514000 455.517000 L 484.972000 453.360000 L 489.430000 451.203000 L 493.888000 449.045000 L 498.346000 446.888000 L 502.804000 444.731000 L 507.262000 442.573000 L 511.720000 440.416000 L 516.178000 438.259000 L 520.636000 436.102000 L 525.094000 433.944000 L 529.552000 431.787000 L 534.007000 429.623000 L 538.445000 427.424000 L 542.873000 425.206000 L 547.301000 422.987000 L 551.728000 420.769000 L 556.156000 418.550000 L 560.584000 416.332000 L 565.012000 414.113000 L 569.440000 411.895000 L 573.868000 409.676000 L 578.311000 407.489000 L 582.802000 405.400000 L 587.331000 403.397000 L 591.899000 401.484000 L 596.514000 399.686000 L 601.076000 397.760000 L 605.557000 395.651000 L 610.037000 393.539000 L 614.517000 391.428000 L 618.997000 389.317000 L 623.477000 387.206000 L 627.950000 385.079000 L 632.399000 382.903000 L 636.829000 380.689000 L 641.289000 378.535000 L 645.917000 376.772000 L 650.604000 375.174000 L 655.073000 373.040000 L 659.541000 370.904000 L 664.010000 368.768000 L 668.478000 366.633000 L 672.947000 364.497000 L 677.428000 362.389000 L 681.958000 360.387000 L 686.538000 358.501000 L 691.117000 356.614000 L 695.678000 354.686000 L 700.186000 352.634000 L 704.667000 350.525000 L 709.152000 348.424000 L 713.711000 346.491000 L 718.406000 344.914000 L 722.929000 342.897000 L 727.452000 340.879000 L 731.975000 338.861000 L 736.498000 336.843000 L 741.021000 334.826000 L 745.533000 332.784000 L 749.983000 330.611000 L 754.413000 328.397000 L 758.845000 326.187000 L 763.305000 324.034000 L 767.843000 322.048000 L 772.380000 320.063000 L 776.944000 318.142000 L 781.718000 316.824000 L 786.210000 314.737000 L 790.700000 312.649000 L 795.191000 310.560000 L 799.682000 308.472000 L 804.174000 306.386000 L 808.679000 304.331000 L 813.257000 302.441000 L 817.871000 300.640000 L 822.518000 298.927000" fill="none" id="11" stroke="#d271bb" stroke-width="0.5" /><path d="M 537.447000 426.628000 L 542.067000 425.380000 L 546.622000 423.914000 L 551.064000 422.135000 L 555.451000 420.220000 L 559.830000 418.291000 L 564.165000 416.263000 L 568.447000 414.125000 L 572.717000 411.966000 L 576.988000 409.807000 L 581.261000 407.651000 L 585.553000 405.533000 L 589.884000 403.498000 L 594.241000 401.518000 L 598.603000 399.549000 L 602.965000 397.579000 L 607.326000 395.608000 L 611.676000 393.612000 L 616.001000 391.565000 L 620.305000 389.473000 L 624.603000 387.367000 L 628.893000 385.247000 L 633.165000 383.089000 L 637.426000 380.910000 L 641.685000 378.727000 L 645.944000 376.544000 L 650.203000 374.362000 L 654.463000 372.179000 L 658.691000 369.938000 L 662.850000 367.570000 L 666.959000 365.116000" fill="none" id="12" stroke="#d271bb" stroke-width="0.5" /><path d="M 367.998000 315.250000 L 372.769000 313.772000 L 377.510000 312.203000 L 382.208000 310.507000 L 386.887000 308.761000 L 391.563000 307.004000 L 396.238000 305.246000 L 400.913000 303.489000 L 405.588000 301.732000 L 410.263000 299.975000 L 414.937000 298.213000 L 419.597000 296.416000 L 424.235000 294.565000 L 428.867000 292.696000 L 433.498000 290.826000 L 438.129000 288.956000 L 442.760000 287.085000 L 447.392000 285.215000 L 452.023000 283.345000 L 456.654000 281.475000 L 461.285000 279.604000 L 465.916000 277.734000 L 470.547000 275.864000 L 475.178000 273.994000 L 479.809000 272.123000 L 484.440000 270.253000 L 489.071000 268.383000 L 493.703000 266.513000 L 498.334000 264.642000 L 502.965000 262.772000 L 507.596000 260.902000 L 512.227000 259.032000 L 516.859000 257.164000 L 521.499000 255.315000 L 526.154000 253.505000 L 530.819000 251.722000 L 535.487000 249.945000 L 540.154000 248.167000 L 544.822000 246.390000 L 549.489000 244.613000 L 554.157000 242.836000 L 558.822000 241.053000 L 563.480000 239.249000 L 568.129000 237.424000 L 572.775000 235.592000 L 577.421000 233.759000 L 582.067000 231.926000 L 586.713000 230.094000 L 591.360000 228.261000 L 596.006000 226.428000 L 600.652000 224.596000 L 605.298000 222.763000 L 609.944000 220.931000 L 614.590000 219.098000 L 619.236000 217.265000 L 623.883000 215.433000 L 628.529000 213.600000 L 633.175000 211.768000 L 637.821000 209.935000 L 642.467000 208.102000 L 647.113000 206.271000 L 651.764000 204.450000 L 656.435000 202.682000 L 661.116000 200.939000 L 665.797000 199.198000 L 670.478000 197.457000 L 675.159000 195.716000 L 679.841000 193.974000" fill="none" id="13" stroke="#3d8e43" stroke-width="0.5" /><path d="M 17.226400 50.517700 L 17.212500 55.406400 L 17.281200 60.294700 L 17.471000 65.179800 L 17.748500 70.060700 L 18.066000 74.939100 L 18.498300 79.808700 L 18.951300 84.676500 L 19.404700 89.544100 L 19.858200 94.411800 L 20.311600 99.279500 L 20.765000 104.147000 L 21.218500 109.015000 L 21.671900 113.883000 L 22.125300 118.750000 L 22.578800 123.618000 L 23.032200 128.486000 L 23.485700 133.353000 L 23.939100 138.221000 L 24.357300 143.092000 L 24.719800 147.967000 L 25.060100 152.844000 L 25.399900 157.721000 L 25.714100 162.600000 L 25.973500 167.481000 L 26.210800 172.364000 L 26.447700 177.248000 L 26.684600 182.131000 L 26.921500 187.014000 L 27.150400 191.897000 L 27.332200 196.782000 L 27.440800 201.670000 L 27.539000 206.558000 L 27.637300 211.445000 L 27.735500 216.333000 L 27.833700 221.221000 L 27.932000 226.109000" fill="none" id="14" stroke="#00d4db" stroke-width="0.5" /><path d="M 28.213500 219.119000 L 28.372500 222.370000 L 28.526600 225.621000 L 28.675200 228.873000 L 28.813900 232.125000 L 28.944400 235.378000 L 29.071600 238.630000 L 29.198700 241.883000 L 29.325900 245.135000 L 29.453100 248.388000 L 29.580300 251.640000 L 29.707500 254.893000 L 29.834700 258.145000 L 29.961900 261.398000 L 30.089000 264.650000 L 30.216200 267.903000 L 30.343400 271.155000 L 30.470600 274.408000 L 30.597800 277.661000 L 30.725000 280.913000 L 30.852200 284.166000 L 30.979300 287.418000 L 31.106500 290.671000 L 31.233700 293.923000 L 31.360900 297.176000 L 31.488100 300.428000 L 31.615300 303.681000 L 31.742500 306.933000 L 31.869600 310.186000 L 31.996800 313.438000 L 32.124000 316.691000" fill="none" id="15" stroke="#00d4db" stroke-width="0.5" /><path d="M 23.210600 67.029500 L 23.121400 70.921000 L 23.190300 74.812500 L 23.502800 78.692400 L 23.887200 82.566000 L 24.261500 86.440500 L 24.570100 90.320800 L 24.854700 94.203000 L 25.135900 98.085400 L 25.417100 101.968000 L 25.698200 105.850000 L 25.979300 109.733000 L 26.260500 113.615000 L 26.541600 117.498000 L 26.822700 121.380000 L 27.103900 125.262000 L 27.385000 129.145000 L 27.666100 133.027000 L 27.961500 136.909000 L 28.307100 140.786000 L 28.714100 144.657000 L 29.149800 148.525000 L 29.589800 152.393000 L 30.030600 156.260000 L 30.486800 160.126000 L 31.020300 163.982000 L 31.672700 167.819000 L 32.344600 171.653000 L 33.016400 175.487000 L 33.688300 179.321000 L 34.360200 183.156000" fill="none" id="16" stroke="#d55969" stroke-width="0.5" /><path d="M 322.329000 20.045300 L 322.817000 25.011200 L 323.305000 29.977100 L 323.793000 34.943100 L 324.279000 39.909200 L 324.731000 44.878400 L 325.075000 49.856400 L 325.363000 54.837900 L 325.622000 59.820900 L 325.791000 64.807800 L 325.887000 69.796700 L 325.966000 74.786000 L 326.046000 79.775200 L 326.125000 84.764400 L 326.205000 89.753700 L 326.284000 94.742900 L 326.364000 99.732200 L 326.443000 104.721000 L 326.523000 109.711000 L 326.602000 114.700000 L 326.681000 119.689000 L 326.761000 124.678000 L 326.840000 129.668000 L 326.920000 134.657000 L 326.999000 139.646000 L 327.079000 144.635000 L 327.158000 149.625000 L 327.238000 154.614000 L 327.317000 159.603000 L 327.397000 164.592000 L 327.476000 169.581000 L 327.556000 174.571000 L 327.635000 179.560000 L 327.715000 184.549000" fill="none" id="17" stroke="#64e4ff" stroke-width="0.5" /><path d="M 262.234000 197.423000 L 261.628000 202.258000 L 261.204000 207.113000 L 260.995000 211.981000 L 261.087000 216.853000 L 261.281000 221.722000 L 261.487000 226.591000 L 261.693000 231.459000 L 261.899000 236.328000 L 262.104000 241.197000 L 262.310000 246.065000 L 262.494000 250.935000 L 262.612000 255.806000 L 262.696000 260.679000 L 262.776000 265.551000 L 262.856000 270.423000 L 262.936000 275.295000 L 263.016000 280.168000 L 263.096000 285.040000 L 263.176000 289.912000 L 263.256000 294.785000 L 263.336000 299.657000 L 263.416000 304.529000 L 263.496000 309.402000 L 263.579000 314.274000 L 263.697000 319.145000 L 263.900000 324.014000 L 264.137000 328.881000 L 264.389000 333.748000 L 264.722000 338.609000 L 265.112000 343.467000 L 265.503000 348.324000 L 265.894000 353.181000 L 266.285000 358.038000 L 266.675000 362.896000" fill="none" id="18" stroke="#e68e54" stroke-width="0.5" /><path d="M 263.494000 236.589000 L 263.672000 241.470000 L 263.880000 246.350000 L 264.116000 251.228000 L 264.417000 256.104000 L 264.735000 260.978000 L 265.054000 265.851000 L 265.373000 270.725000 L 265.692000 275.599000 L 266.011000 280.473000 L 266.330000 285.347000 L 266.650000 290.221000 L 266.969000 295.095000 L 267.288000 299.969000 L 267.607000 304.843000 L 267.926000 309.717000 L 268.245000 314.591000 L 268.565000 319.465000 L 268.884000 324.339000 L 269.203000 329.213000 L 269.522000 334.087000 L 269.841000 338.961000 L 270.160000 343.835000 L 270.479000 348.709000 L 270.798000 353.583000 L 271.070000 358.460000 L 271.248000 363.341000 L 271.380000 368.223000 L 271.511000 373.106000 L 271.643000 377.989000 L 271.774000 382.871000 L 271.906000 387.754000 L 272.037000 392.636000 L 272.169000 397.519000 L 272.300000 402.402000 L 272.432000 407.284000 L 272.563000 412.167000 L 272.695000 417.049000 L 272.826000 421.932000 L 272.958000 426.815000 L 273.089000 431.697000 L 273.221000 436.580000 L 273.352000 441.463000" fill="none" id="19" stroke="#54aeff" stroke-width="0.5" /><path d="M 615.841000 290.778000 L 615.381000 294.664000 L 615.074000 298.565000 L 614.947000 302.476000 L 615.045000 306.388000 L 615.161000 310.300000 L 615.277000 314.212000 L 615.384000 318.124000 L 615.447000 322.037000 L 615.485000 325.950000 L 615.517000 329.864000 L 615.549000 333.777000 L 615.581000 337.690000 L 615.613000 341.604000 L 615.645000 345.517000 L 615.676000 349.431000 L 615.708000 353.344000 L 615.740000 357.258000 L 615.772000 361.171000 L 615.804000 365.084000 L 615.836000 368.998000 L 615.868000 372.911000 L 615.900000 376.825000 L 615.932000 380.738000 L 615.964000 384.651000 L 615.996000 388.565000 L 616.028000 392.478000 L 616.060000 396.392000 L 616.092000 400.305000 L 616.124000 404.218000 L 616.156000 408.132000" fill="none" id="20" stroke="#eed973" stroke-width="0.5" /><path d="M 610.581000 157.242000 L 610.544000 162.128000 L 610.508000 167.013000 L 610.472000 171.899000 L 610.436000 176.785000 L 610.400000 181.670000 L 610.363000 186.556000 L 610.327000 191.442000 L 610.264000 196.327000 L 610.155000 201.212000 L 610.034000 206.096000 L 609.913000 210.980000 L 609.792000 215.865000 L 609.671000 220.749000 L 609.550000 225.633000 L 609.429000 230.517000 L 609.315000 235.402000 L 609.252000 240.287000 L 609.236000 245.173000 L 609.222000 250.059000 L 609.209000 254.945000 L 609.195000 259.830000 L 609.181000 264.716000 L 609.167000 269.602000 L 609.153000 274.488000 L 609.159000 279.373000 L 609.259000 284.258000 L 609.491000 289.138000 L 609.765000 294.017000 L 610.180000 298.885000 L 610.698000 303.743000 L 611.223000 308.600000 L 611.778000 313.455000" fill="none" id="21" stroke="#008bd4" stroke-width="0.5" /><path d="M 31.336600 52.738200 L 35.881200 54.752200 L 40.353900 56.921500 L 44.796300 59.152000 L 49.202500 61.452700 L 53.508800 63.935800 L 57.811500 66.425200 L 62.114200 68.914600 L 66.416900 71.404100 L 70.719700 73.893400 L 75.026900 76.374900 L 79.362300 78.806900 L 83.721200 81.196600 L 88.083800 83.579500 L 92.446300 85.962400 L 96.808900 88.345400 L 101.171000 90.728300 L 105.534000 93.111300 L 109.893000 95.500000 L 114.237000 97.916600 L 118.561000 100.370000 L 122.876000 102.838000 L 127.189000 105.308000 L 131.503000 107.779000 L 135.817000 110.249000 L 140.131000 112.719000 L 144.445000 115.189000 L 148.758000 117.659000 L 153.072000 120.129000 L 157.386000 122.599000 L 161.700000 125.069000 L 166.014000 127.540000 L 170.327000 130.010000 L 174.641000 132.480000 L 178.955000 134.950000 L 183.269000 137.420000 L 187.583000 139.890000 L 191.896000 142.360000 L 196.210000 144.831000 L 200.524000 147.301000 L 204.838000 149.771000 L 209.148000 152.248000 L 213.447000 154.744000 L 217.739000 157.251000 L 222.030000 159.761000 L 226.320000 162.272000 L 230.602000 164.796000 L 234.866000 167.352000 L 239.116000 169.929000 L 243.364000 172.511000 L 247.613000 175.092000 L 251.861000 177.674000 L 256.109000 180.255000 L 260.357000 182.837000 L 264.605000 185.419000 L 268.853000 188.000000 L 273.101000 190.582000 L 277.349000 193.163000 L 281.597000 195.745000 L 285.845000 198.326000 L 290.091000 200.912000 L 294.307000 203.544000 L 298.499000 206.217000 L 302.682000 208.902000 L 306.867000 211.586000 L 311.053000 214.266000" fill="none" id="22" stroke="#fdb968" stroke-width="0.5" /><path d="M 273.919000 196.573000 L 276.886000 200.481000 L 279.955000 204.309000 L 283.167000 208.018000 L 286.488000 211.631000 L 289.808000 215.244000 L 293.110000 218.873000 L 296.318000 222.585000 L 299.475000 226.341000 L 302.623000 230.105000 L 305.734000 233.899000 L 308.733000 237.783000 L 311.662000 241.719000 L 314.580000 245.664000 L 317.499000 249.609000 L 320.417000 253.553000 L 323.335000 257.498000 L 326.267000 261.432000 L 329.253000 265.325000 L 332.300000 269.171000 L 335.363000 273.005000 L 338.436000 276.829000 L 341.571000 280.604000 L 344.802000 284.297000 L 348.059000 287.967000 L 351.330000 291.625000 L 354.669000 295.220000 L 358.073000 298.754000 L 361.483000 302.281000 L 364.894000 305.809000 L 368.304000 309.337000 L 371.715000 312.864000" fill="none" id="23" stroke="#6f73bc" stroke-width="0.5" /><path d="M 10.769700 55.549200 L 14.870900 58.335000 L 19.026700 61.038600 L 23.279100 63.587500 L 27.657500 65.913400 L 32.014800 68.278700 L 36.371900 70.644300 L 40.696500 73.068700 L 44.986500 75.554100 L 49.272900 78.045500 L 53.559300 80.537000 L 57.847000 83.026100 L 62.156700 85.476900 L 66.488200 87.889200 L 70.823300 90.294800 L 75.158500 92.700400 L 79.493600 95.106000 L 83.828800 97.511600 L 88.163900 99.917200 L 92.499100 102.323000 L 96.834200 104.728000 L 101.169000 107.134000 L 105.473000 109.596000 L 109.734000 112.130000 L 113.982000 114.687000 L 118.229000 117.245000 L 122.476000 119.803000 L 126.723000 122.361000 L 130.970000 124.919000 L 135.218000 127.475000 L 139.490000 129.992000 L 143.784000 132.470000 L 148.082000 134.941000 L 152.380000 137.412000 L 156.678000 139.883000 L 160.976000 142.354000 L 165.275000 144.825000 L 169.573000 147.296000 L 173.869000 149.771000 L 178.143000 152.284000 L 182.390000 154.842000 L 186.636000 157.400000 L 190.883000 159.958000 L 195.130000 162.517000 L 199.377000 165.075000 L 203.624000 167.633000 L 207.871000 170.191000 L 212.118000 172.749000 L 216.365000 175.308000 L 220.612000 177.866000 L 224.858000 180.424000 L 229.105000 182.982000 L 233.352000 185.540000 L 237.599000 188.099000 L 241.846000 190.657000 L 246.093000 193.215000 L 250.340000 195.773000 L 254.587000 198.331000 L 258.834000 200.890000 L 263.080000 203.448000 L 267.327000 206.006000 L 271.574000 208.564000 L 275.826000 211.113000 L 280.130000 213.575000 L 284.435000 216.034000 L 288.741000 218.491000 L 293.047000 220.949000 L 297.352000 223.407000" fill="none" id="24" stroke="#bee481" stroke-width="0.5" /><path d="M 6.013780 61.265700 L 10.954700 60.863000 L 15.891600 60.412600 L 20.826700 59.943900 L 25.759300 59.448700 L 30.682300 58.866400 L 35.604900 58.280900 L 40.527600 57.695300 L 45.446700 57.080500 L 50.356400 56.395200 L 55.265000 55.702000 L 60.173700 55.008900 L 65.082300 54.315700 L 69.991000 53.622600 L 74.899600 52.929400 L 79.808300 52.236200 L 84.716900 51.543100 L 89.625600 50.849900 L 94.534200 50.156800 L 99.442900 49.463600 L 104.351000 48.770500 L 109.260000 48.077300 L 114.164000 47.348600 L 119.053000 46.530700 L 123.934000 45.665500 L 128.814000 44.793000 L 133.694000 43.920600 L 138.574000 43.048100 L 143.454000 42.175600 L 148.334000 41.303100 L 153.214000 40.430700 L 158.094000 39.558200 L 162.974000 38.685700 L 167.854000 37.813300 L 172.734000 36.940800 L 177.614000 36.068300 L 182.494000 35.195800 L 187.374000 34.323400 L 192.254000 33.450900 L 197.134000 32.578400 L 202.014000 31.705900 L 206.894000 30.833500 L 211.774000 29.961000 L 216.654000 29.088500 L 221.533000 28.213900 L 226.410000 27.325500 L 231.284000 26.419100 L 236.157000 25.508100 L 241.030000 24.597200 L 245.903000 23.686300 L 250.776000 22.775400 L 255.649000 21.864400 L 260.522000 20.953500 L 265.395000 20.042600 L 270.268000 19.131700 L 275.140000 18.220700 L 280.013000 17.309800 L 284.886000 16.398900 L 289.759000 15.487900 L 294.632000 14.577000 L 299.505000 13.666100 L 304.379000 12.759600 L 309.258000 11.884700 L 314.149000 11.074700 L 319.043000 10.285700 L 323.937000 9.496760 L 328.832000 8.707790 L 333.727000 7.924630 L 338.628000 7.183490 L 343.537000 6.490140 L 348.446000 5.796790 L 353.354000 5.103450 L 358.263000 4.410100 L 363.171000 3.716750 L 368.080000 3.023400 L 372.989000 2.330050 L 377.897000 1.636700 L 382.806000 0.943349 L 387.715000 0.250000" fill="none" id="25" stroke="#8f6aaf" stroke-width="0.5" /><path d="M 602.234000 114.510000 L 604.433000 117.565000 L 606.699000 120.571000 L 609.040000 123.518000 L 611.484000 126.381000 L 613.959000 129.217000 L 616.443000 132.046000 L 618.927000 134.874000 L 621.411000 137.703000 L 623.895000 140.531000 L 626.379000 143.359000 L 628.863000 146.188000 L 631.347000 149.016000 L 633.828000 151.847000 L 636.288000 154.696000 L 638.704000 157.583000 L 641.084000 160.498000 L 643.455000 163.422000 L 645.826000 166.346000 L 648.197000 169.270000 L 650.568000 172.194000 L 652.944000 175.113000 L 655.360000 177.999000 L 657.878000 180.797000 L 660.458000 183.538000 L 663.048000 186.269000 L 665.638000 189.001000 L 668.228000 191.732000 L 670.818000 194.464000 L 673.408000 197.196000 L 675.998000 199.927000" fill="none" id="26" stroke="#8bb658" stroke-width="0.5" /><path d="M 314.644000 1.879920 L 319.153000 3.943440 L 323.700000 5.922370 L 328.304000 7.763730 L 332.927000 9.558350 L 337.550000 11.353000 L 342.172000 13.147600 L 346.795000 14.942200 L 351.418000 16.736900 L 356.041000 18.531500 L 360.659000 20.336500 L 365.250000 22.210500 L 369.808000 24.164600 L 374.356000 26.140000 L 378.904000 28.117100 L 383.452000 30.094200 L 387.999000 32.071300 L 392.548000 34.046600 L 397.105000 36.001800 L 401.685000 37.901800 L 406.285000 39.755200 L 410.889000 41.596900 L 415.493000 43.438600 L 420.097000 45.280300 L 424.702000 47.122000 L 429.305000 48.964600 L 433.904000 50.819800 L 438.489000 52.709900 L 443.059000 54.633900 L 447.625000 56.568900 L 452.191000 58.503900 L 456.756000 60.438900 L 461.326000 62.365800 L 465.912000 64.252100 L 470.522000 66.078200 L 475.143000 67.877000 L 479.765000 69.674200 L 484.387000 71.471400 L 489.008000 73.268600 L 493.630000 75.065800 L 498.252000 76.863100 L 502.874000 78.660300 L 507.495000 80.457500 L 512.117000 82.254700 L 516.739000 84.051900 L 521.361000 85.849100 L 525.982000 87.646300 L 530.604000 89.443600 L 535.226000 91.240800 L 539.848000 93.038000 L 544.469000 94.835200 L 549.091000 96.633000 L 553.708000 98.441800 L 558.302000 100.309000 L 562.877000 102.221000 L 567.451000 104.138000 L 572.020000 106.064000 L 576.557000 108.067000 L 581.068000 110.127000 L 585.576000 112.193000 L 590.077000 114.274000" fill="none" id="27" stroke="#bb568c" stroke-width="0.5" /><path d="M 492.219000 85.667300 L 495.961000 86.397400 L 499.694000 87.174100 L 503.421000 87.978000 L 507.110000 88.942500 L 510.777000 89.988500 L 514.439000 91.051000 L 518.101000 92.114900 L 521.763000 93.178800 L 525.425000 94.242800 L 529.086000 95.306700 L 532.748000 96.370600 L 536.410000 97.434600 L 540.071000 98.498500 L 543.733000 99.562400 L 547.395000 100.626000 L 551.057000 101.690000 L 554.718000 102.754000 L 558.380000 103.818000 L 562.042000 104.882000 L 565.703000 105.946000 L 569.365000 107.010000 L 573.027000 108.074000 L 576.689000 109.138000 L 580.350000 110.202000 L 584.012000 111.266000 L 587.677000 112.317000 L 591.369000 113.271000 L 595.080000 114.150000 L 598.796000 115.004000 L 602.518000 115.833000" fill="none" id="28" stroke="#bb568c" stroke-width="0.5" /><path d="M 490.077000 81.486200 L 493.009000 82.726500 L 495.954000 83.934000 L 498.919000 85.093800 L 501.898000 86.215700 L 504.885000 87.318200 L 507.873000 88.416200 L 510.861000 89.513700 L 513.850000 90.611200 L 516.838000 91.708800 L 519.827000 92.806300 L 522.815000 93.903800 L 525.803000 95.001300 L 528.793000 96.094700 L 531.788000 97.174600 L 534.791000 98.232200 L 537.800000 99.272700 L 540.809000 100.311000 L 543.819000 101.349000 L 546.829000 102.386000 L 549.838000 103.424000 L 552.848000 104.462000 L 555.858000 105.499000 L 558.867000 106.537000 L 561.877000 107.575000 L 564.887000 108.613000 L 567.896000 109.650000 L 570.906000 110.688000 L 573.916000 111.726000 L 576.925000 112.763000 L 579.935000 113.801000" fill="none" id="29" stroke="#bb568c" stroke-width="0.5" /><path d="M 511.809000 82.407500 L 514.522000 83.224200 L 517.235000 84.040900 L 519.947000 84.857700 L 522.660000 85.674400 L 525.373000 86.491100 L 528.086000 87.307900 L 530.799000 88.124600 L 533.511000 88.941300 L 536.224000 89.758100 L 538.937000 90.574800 L 541.650000 91.391500 L 544.363000 92.208300 L 547.075000 93.025000 L 549.788000 93.842400 L 552.500000 94.661600 L 555.204000 95.505900 L 557.896000 96.389200 L 560.578000 97.303200 L 563.253000 98.235000 L 565.928000 99.166700 L 568.604000 100.098500 L 571.279000 101.032000 L 573.950000 101.975000 L 576.615000 102.936000 L 579.270000 103.926000 L 581.916000 104.937000 L 584.563000 105.948000 L 587.209000 106.960000 L 589.856000 107.971000 L 592.502000 108.982000" fill="none" id="30" stroke="#bb568c" stroke-width="0.5" /><path d="M 316.407000 16.738200 L 321.378000 16.320600 L 326.304000 16.991900 L 331.033000 18.604000 L 335.801000 20.095500 L 340.540000 21.678400 L 345.231000 23.396800 L 349.907000 25.156100 L 354.570000 26.950700 L 359.210000 28.804300 L 363.840000 30.681100 L 368.471000 32.557800 L 373.101000 34.434600 L 377.732000 36.311300 L 382.362000 38.188100 L 386.993000 40.064800 L 391.623000 41.941500 L 396.254000 43.818300 L 400.889000 45.684000 L 405.545000 47.494900 L 410.225000 49.244700 L 414.909000 50.982500 L 419.594000 52.719700 L 424.278000 54.456800 L 428.963000 56.194000 L 433.648000 57.931100 L 438.332000 59.668300 L 443.017000 61.405400 L 447.702000 63.142600 L 452.386000 64.879700 L 457.071000 66.616900 L 461.755000 68.354000 L 466.446000 70.074300 L 471.154000 71.748500 L 475.875000 73.381800 L 480.601000 75.003700 L 485.327000 76.625200 L 490.053000 78.246800 L 494.779000 79.868300 L 499.505000 81.489800 L 504.231000 83.111300 L 508.957000 84.732900 L 513.685000 86.346800 L 518.428000 87.917000 L 523.197000 89.405600 L 527.978000 90.857200 L 532.760000 92.304900 L 537.542000 93.752700 L 542.324000 95.200400 L 547.106000 96.648100 L 551.888000 98.095800 L 556.670000 99.543500 L 561.452000 100.991000 L 566.234000 102.439000" fill="none" id="31" stroke="#bb568c" stroke-width="0.5" /><path d="M 306.801000 9.250000 L 311.016000 11.888300 L 315.324000 14.372300 L 319.751000 16.635300 L 324.273000 18.705400 L 328.794000 20.775400 L 333.315000 22.845000 L 337.883000 24.810500 L 342.489000 26.683800 L 347.097000 28.552900 L 351.705000 30.422000 L 356.313000 32.290900 L 360.944000 34.100900 L 365.587000 35.880400 L 370.231000 37.659300 L 374.874000 39.438200 L 379.517000 41.217100 L 384.161000 42.996000 L 388.804000 44.774900 L 393.448000 46.553800 L 398.091000 48.332700 L 402.735000 50.111600 L 407.378000 51.890500 L 412.022000 53.669400 L 416.665000 55.448200 L 421.308000 57.227100 L 425.952000 59.006000 L 430.595000 60.784900 L 435.239000 62.563800 L 439.882000 64.343800 L 444.511000 66.158500 L 449.121000 68.022500 L 453.731000 69.886400 L 458.341000 71.750400 L 462.951000 73.614400 L 467.561000 75.478400 L 472.171000 77.342300 L 476.781000 79.206300 L 481.391000 81.070300 L 486.001000 82.934300 L 490.611000 84.798300 L 495.221000 86.662200 L 499.831000 88.526200 L 504.441000 90.390200 L 509.040000 92.280500 L 513.599000 94.265700 L 518.148000 96.273600 L 522.697000 98.281500 L 527.246000 100.289000 L 531.795000 102.297000 L 536.344000 104.305000" fill="none" id="32" stroke="#bb568c" stroke-width="0.5" /><path d="M 569.132000 108.297000 L 571.140000 109.126000 L 573.141000 109.971000 L 575.132000 110.840000 L 577.099000 111.762000 L 579.056000 112.703000 L 581.002000 113.670000 L 582.946000 114.640000 L 584.889000 115.610000 L 586.833000 116.580000 L 588.776000 117.551000 L 590.720000 118.521000 L 592.663000 119.493000 L 594.605000 120.466000 L 596.544000 121.444000 L 598.477000 122.436000 L 600.406000 123.435000 L 602.330000 124.444000 L 604.253000 125.453000 L 606.177000 126.463000 L 608.101000 127.472000 L 610.024000 128.481000 L 611.948000 129.491000 L 613.871000 130.500000 L 615.795000 131.509000 L 617.719000 132.519000 L 619.642000 133.528000 L 621.566000 134.537000 L 623.489000 135.546000 L 625.413000 136.556000 L 627.337000 137.565000" fill="none" id="33" stroke="#bb568c" stroke-width="0.5" /><path d="M 258.455000 211.384000 L 263.224000 210.064000 L 267.994000 208.744000 L 272.763000 207.424000 L 277.533000 206.104000 L 282.302000 204.784000 L 287.072000 203.464000 L 291.841000 202.144000 L 296.610000 200.823000 L 301.380000 199.503000 L 306.149000 198.183000 L 310.906000 196.819000 L 315.636000 195.363000 L 320.358000 193.882000 L 325.079000 192.398000 L 329.800000 190.914000 L 334.521000 189.430000 L 339.247000 187.962000 L 343.992000 186.557000 L 348.747000 185.184000 L 353.503000 183.816000 L 358.259000 182.448000 L 363.014000 181.079000 L 367.770000 179.711000 L 372.526000 178.343000 L 377.282000 176.974000 L 382.038000 175.606000 L 386.794000 174.237000 L 391.550000 172.869000 L 396.305000 171.501000 L 401.061000 170.132000 L 405.817000 168.764000 L 410.573000 167.396000 L 415.329000 166.027000 L 420.085000 164.659000 L 424.840000 163.291000 L 429.597000 161.924000 L 434.364000 160.594000 L 439.146000 159.323000 L 443.936000 158.079000 L 448.726000 156.834000 L 453.515000 155.589000 L 458.305000 154.345000 L 463.095000 153.100000 L 467.884000 151.855000 L 472.674000 150.610000 L 477.464000 149.366000 L 482.253000 148.121000 L 487.043000 146.876000 L 491.833000 145.632000 L 496.623000 144.387000 L 501.412000 143.142000 L 506.202000 141.897000 L 510.992000 140.653000 L 515.781000 139.408000 L 520.571000 138.163000 L 525.361000 136.919000 L 530.150000 135.674000 L 534.940000 134.429000 L 539.730000 133.184000 L 544.519000 131.940000 L 549.309000 130.695000 L 554.099000 129.450000 L 558.888000 128.205000 L 563.678000 126.961000 L 568.468000 125.716000 L 573.257000 124.471000 L 578.047000 123.227000 L 582.837000 121.982000 L 587.626000 120.737000 L 592.416000 119.492000 L 597.206000 118.248000 L 601.996000 117.003000 L 606.785000 115.758000 L 611.575000 114.514000 L 616.365000 113.269000 L 621.154000 112.024000 L 625.944000 110.779000 L 630.734000 109.535000 L 635.523000 108.290000 L 640.313000 107.045000" fill="none" id="34" stroke="#c45372" stroke-width="0.5" /><path d="M 267.022000 208.077000 L 271.784000 206.610000 L 276.576000 205.238000 L 281.418000 204.059000 L 286.283000 202.981000 L 291.143000 201.879000 L 296.004000 200.777000 L 300.864000 199.675000 L 305.724000 198.572000 L 310.580000 197.450000 L 315.417000 196.253000 L 320.243000 195.007000 L 325.067000 193.756000 L 329.891000 192.504000 L 334.715000 191.254000 L 339.543000 190.018000 L 344.382000 188.828000 L 349.227000 187.660000 L 354.072000 186.495000 L 358.918000 185.331000 L 363.764000 184.167000 L 368.610000 183.002000 L 373.455000 181.838000 L 378.301000 180.674000 L 383.147000 179.509000 L 387.992000 178.345000 L 392.838000 177.180000 L 397.684000 176.016000 L 402.529000 174.852000 L 407.375000 173.687000 L 412.221000 172.523000 L 417.066000 171.359000 L 421.912000 170.194000 L 426.758000 169.030000 L 431.603000 167.865000 L 436.449000 166.701000 L 441.295000 165.537000 L 446.141000 164.372000 L 450.986000 163.208000 L 455.833000 162.046000 L 460.683000 160.902000 L 465.540000 159.787000 L 470.401000 158.687000 L 475.262000 157.588000 L 480.123000 156.489000 L 484.984000 155.390000 L 489.845000 154.291000 L 494.706000 153.192000 L 499.566000 152.093000 L 504.427000 150.994000 L 509.288000 149.895000 L 514.149000 148.796000 L 519.010000 147.697000 L 523.871000 146.598000 L 528.732000 145.499000 L 533.593000 144.400000 L 538.454000 143.301000 L 543.315000 142.202000 L 548.176000 141.103000 L 553.037000 140.004000 L 557.898000 138.905000 L 562.759000 137.806000 L 567.620000 136.708000 L 572.481000 135.609000 L 577.342000 134.510000 L 582.202000 133.411000 L 587.063000 132.312000 L 591.924000 131.213000 L 596.785000 130.114000 L 601.646000 129.015000 L 606.507000 127.916000 L 611.368000 126.817000" fill="none" id="35" stroke="#008c6f" stroke-width="0.5" /><path d="M 360.376000 301.691000 L 361.068000 305.952000 L 361.735000 310.217000 L 362.394000 314.483000 L 362.947000 318.765000 L 363.470000 323.050000 L 363.921000 327.343000 L 364.259000 331.646000 L 364.545000 335.954000 L 364.822000 340.262000 L 365.099000 344.570000 L 365.376000 348.878000 L 365.653000 353.186000 L 365.930000 357.494000 L 366.207000 361.802000 L 366.486000 366.109000 L 366.781000 370.416000 L 367.113000 374.720000 L 367.481000 379.021000 L 367.859000 383.322000 L 368.255000 387.620000 L 368.721000 391.912000 L 369.281000 396.192000 L 369.883000 400.467000 L 370.491000 404.741000 L 371.099000 409.015000 L 371.707000 413.288000 L 372.315000 417.562000 L 372.924000 421.836000 L 373.532000 426.110000 L 374.140000 430.384000" fill="none" id="36" stroke="#ff94af" stroke-width="0.5" /><path d="M 665.730000 191.565000 L 666.674000 194.959000 L 667.492000 198.385000 L 668.154000 201.845000 L 668.630000 205.335000 L 668.986000 208.839000 L 669.297000 212.348000 L 669.599000 215.858000 L 669.900000 219.368000 L 670.201000 222.877000 L 670.496000 226.388000 L 670.772000 229.900000 L 671.022000 233.413000 L 671.256000 236.928000 L 671.486000 240.444000 L 671.717000 243.959000 L 671.947000 247.474000 L 672.177000 250.989000 L 672.407000 254.504000 L 672.638000 258.019000 L 672.868000 261.535000 L 673.111000 265.049000 L 673.413000 268.558000 L 673.804000 272.059000 L 674.218000 275.557000 L 674.635000 279.055000 L 675.052000 282.553000 L 675.487000 286.049000 L 676.026000 289.530000 L 676.705000 292.987000 L 677.478000 296.423000" fill="none" id="37" stroke="#488656" stroke-width="0.5" /><path d="M 701.100000 225.652000 L 701.067000 230.040000 L 701.033000 234.429000 L 700.999000 238.818000 L 700.965000 243.207000 L 700.931000 247.595000 L 700.897000 251.984000 L 700.852000 256.373000 L 700.756000 260.760000 L 700.621000 265.147000 L 700.476000 269.534000 L 700.330000 273.920000 L 700.185000 278.306000 L 700.039000 282.693000 L 699.906000 287.080000 L 699.820000 291.468000 L 699.785000 295.856000 L 699.768000 300.245000 L 699.751000 304.634000 L 699.734000 309.023000 L 699.717000 313.412000 L 699.706000 317.801000 L 699.748000 322.189000 L 699.925000 326.574000 L 700.160000 330.956000 L 700.401000 335.339000 L 700.642000 339.721000 L 700.882000 344.103000 L 701.123000 348.485000 L 701.364000 352.868000 L 701.604000 357.250000" fill="none" id="38" stroke="#ffc0e1" stroke-width="0.5" /><path d="M 701.699000 222.557000 L 701.607000 227.544000 L 701.681000 232.530000 L 701.985000 237.508000 L 702.377000 242.479000 L 702.442000 247.466000 L 702.460000 252.453000 L 702.477000 257.441000 L 702.493000 262.428000 L 702.488000 267.416000 L 702.413000 272.403000 L 702.280000 277.389000 L 702.133000 282.374000 L 701.986000 287.359000 L 701.839000 292.345000 L 701.692000 297.330000 L 701.545000 302.315000 L 701.398000 307.301000 L 701.251000 312.286000 L 701.104000 317.271000 L 700.957000 322.257000 L 700.811000 327.242000 L 700.687000 332.228000 L 700.631000 337.215000 L 700.620000 342.203000 L 700.615000 347.190000 L 700.610000 352.178000 L 700.605000 357.165000 L 700.608000 362.153000 L 700.704000 367.139000 L 700.969000 372.120000 L 701.352000 377.093000" fill="none" id="39" stroke="#ffc0e1" stroke-width="0.5" /><path d="M 558.675000 303.793000 L 559.070000 308.278000 L 559.464000 312.762000 L 559.858000 317.247000 L 560.253000 321.731000 L 560.639000 326.217000 L 560.979000 330.705000 L 561.248000 335.199000 L 561.478000 339.695000 L 561.674000 344.192000 L 561.813000 348.692000 L 561.925000 353.192000 L 562.032000 357.693000 L 562.115000 362.194000 L 562.150000 366.696000 L 562.161000 371.197000 L 562.171000 375.699000 L 562.182000 380.201000 L 562.192000 384.703000 L 562.202000 389.205000 L 562.213000 393.707000 L 562.223000 398.208000 L 562.233000 402.710000 L 562.244000 407.212000 L 562.259000 411.714000 L 562.316000 416.215000 L 562.474000 420.714000 L 562.691000 425.210000 L 562.917000 429.706000 L 563.142000 434.203000 L 563.368000 438.699000" fill="none" id="40" stroke="#6c8139" stroke-width="0.5" /><path d="M 651.967000 283.927000 L 652.453000 287.961000 L 652.864000 292.002000 L 653.217000 296.049000 L 653.359000 300.109000 L 653.436000 304.171000 L 653.447000 308.234000 L 653.447000 312.296000 L 653.447000 316.359000 L 653.444000 320.421000 L 653.416000 324.484000 L 653.333000 328.546000 L 653.218000 332.607000 L 653.097000 336.667000 L 652.975000 340.728000 L 652.854000 344.789000 L 652.732000 348.850000 L 652.611000 352.911000 L 652.491000 356.972000 L 652.387000 361.033000 L 652.323000 365.095000 L 652.304000 369.158000 L 652.299000 373.220000 L 652.293000 377.283000 L 652.295000 381.345000 L 652.348000 385.408000 L 652.500000 389.467000 L 652.719000 393.524000 L 653.048000 397.573000 L 653.525000 401.607000 L 654.108000 405.628000" fill="none" id="41" stroke="#a9d0ff" stroke-width="0.5" /><path d="M 549.258000 297.179000 L 553.301000 296.128000 L 557.329000 295.021000 L 561.338000 293.846000 L 565.316000 292.571000 L 569.226000 291.103000 L 573.098000 289.535000 L 576.962000 287.946000 L 580.825000 286.356000 L 584.688000 284.766000 L 588.551000 283.176000 L 592.415000 281.588000 L 596.288000 280.023000 L 600.184000 278.514000 L 604.098000 277.054000 L 608.017000 275.607000 L 611.936000 274.160000 L 615.855000 272.713000 L 619.774000 271.266000 L 623.693000 269.819000 L 627.612000 268.372000 L 631.530000 266.925000 L 635.449000 265.479000 L 639.368000 264.032000 L 643.287000 262.585000 L 647.206000 261.138000 L 651.125000 259.691000 L 655.044000 258.244000 L 658.963000 256.797000 L 662.882000 255.350000 L 666.801000 253.904000" fill="none" id="42" stroke="#a98c2c" stroke-width="0.5" /><path d="M 3.116140 100.526000 L 8.095510 100.223900 L 13.061700 99.752900 L 18.001700 99.058900 L 22.929500 98.283200 L 27.852700 97.478300 L 32.761900 96.592400 L 37.633400 95.518500 L 42.495300 94.401600 L 47.357100 93.284700 L 52.219000 92.167700 L 57.080800 91.050800 L 61.942700 89.933900 L 66.804500 88.817000 L 71.666400 87.700100 L 76.528200 86.583200 L 81.390100 85.466300 L 86.252000 84.349400 L 91.113800 83.232400 L 95.969100 82.087500 L 100.811000 80.886100 L 105.650000 79.673600 L 110.489000 78.461200 L 115.328000 77.248700 L 120.166000 76.036200 L 125.005000 74.823800 L 129.844000 73.611300 L 134.683000 72.398800 L 139.522000 71.186400 L 144.361000 69.973900 L 149.200000 68.761400 L 154.039000 67.549000 L 158.878000 66.336500 L 163.717000 65.124000 L 168.556000 63.911600 L 173.394000 62.699100 L 178.233000 61.486700 L 183.072000 60.274200 L 187.911000 59.061700 L 192.750000 57.849300 L 197.589000 56.636800 L 202.428000 55.424300 L 207.272000 54.230800 L 212.127000 53.086600 L 216.984000 51.948800 L 221.841000 50.811000 L 226.698000 49.673200 L 231.555000 48.535400 L 236.412000 47.397600 L 241.269000 46.259900 L 246.126000 45.122100 L 250.983000 43.984300 L 255.840000 42.846500 L 260.697000 41.708700 L 265.554000 40.570900 L 270.411000 39.433200 L 275.268000 38.295400 L 280.125000 37.157600 L 284.982000 36.019800 L 289.839000 34.882000 L 294.696000 33.744200 L 299.553000 32.606400 L 304.410000 31.468700 L 309.267000 30.330900 L 314.124000 29.193100 L 318.981000 28.055300 L 323.838000 26.917500 L 328.695000 25.779700 L 333.552000 24.642000 L 338.409000 23.504200 L 343.262000 22.349000 L 348.100000 21.130100 L 352.934000 19.899100 L 357.767000 18.663100 L 362.559000 17.277300 L 367.345000 15.870000 L 372.129000 14.456600 L 376.913000 13.044700 L 381.699000 11.635800" fill="none" id="43" stroke="#0294bb" stroke-width="0.5" /><path d="M 5.005900 107.659000 L 9.714010 106.069000 L 14.465100 104.612000 L 19.266300 103.331000 L 24.129300 102.308000 L 28.995200 101.298000 L 33.861200 100.290000 L 38.727300 99.281300 L 43.593400 98.272800 L 48.459500 97.264200 L 53.325500 96.255700 L 58.191600 95.247100 L 63.057700 94.238600 L 67.923800 93.230000 L 72.789800 92.221500 L 77.655900 91.212900 L 82.522000 90.204400 L 87.388100 89.195800 L 92.254900 88.190800 L 97.125800 87.206000 L 102.002000 86.249700 L 106.881000 85.304400 L 111.760000 84.360500 L 116.639000 83.416600 L 121.518000 82.472600 L 126.397000 81.528700 L 131.276000 80.584700 L 136.155000 79.640800 L 141.034000 78.696800 L 145.913000 77.752900 L 150.792000 76.808900 L 155.671000 75.865000 L 160.550000 74.921000 L 165.429000 73.977100 L 170.308000 73.033200 L 175.187000 72.089200 L 180.066000 71.145300 L 184.945000 70.201300 L 189.824000 69.257400 L 194.704000 68.313400 L 199.583000 67.369500 L 204.462000 66.425500 L 209.341000 65.481600 L 214.220000 64.537600 L 219.099000 63.593700 L 223.978000 62.649700 L 228.857000 61.705800 L 233.736000 60.761900 L 238.615000 59.817900 L 243.494000 58.874000 L 248.373000 57.932700 L 253.255000 57.003700 L 258.140000 56.092800 L 263.027000 55.190100 L 267.914000 54.288300 L 272.801000 53.386600 L 277.688000 52.484800 L 282.575000 51.583000 L 287.462000 50.681300 L 292.348000 49.775500 L 297.231000 48.850800 L 302.109000 47.900200 L 306.985000 46.939500 L 311.860000 45.977800 L 316.736000 45.016100 L 321.611000 44.054400 L 326.487000 43.092700 L 331.362000 42.131000 L 336.238000 41.169400 L 341.113000 40.207700 L 345.989000 39.246000 L 350.865000 38.284300 L 355.740000 37.322600 L 360.616000 36.360900 L 365.491000 35.399200 L 370.367000 34.437500 L 375.242000 33.475800 L 380.118000 32.514100 L 384.993000 31.552400 L 389.869000 30.590700 L 394.745000 29.629000 L 399.620000 28.667300" fill="none" id="44" stroke="#d7b555" stroke-width="0.5" /><path d="M 86.864200 298.053000 L 91.538100 296.438000 L 96.212100 294.824000 L 100.886000 293.209000 L 105.560000 291.594000 L 110.234000 289.980000 L 114.908000 288.365000 L 119.582000 286.750000 L 124.256000 285.136000 L 128.930000 283.521000 L 133.611000 281.927000 L 138.317000 280.409000 L 143.035000 278.928000 L 147.755000 277.452000 L 152.474000 275.976000 L 157.194000 274.500000 L 161.913000 273.024000 L 166.632000 271.546000 L 171.340000 270.034000 L 176.034000 268.478000 L 180.724000 266.911000 L 185.415000 265.344000 L 190.105000 263.777000 L 194.795000 262.211000 L 199.486000 260.645000 L 204.183000 259.099000 L 208.888000 257.576000 L 213.595000 256.061000 L 218.302000 254.545000 L 223.009000 253.030000 L 227.716000 251.515000 L 232.423000 249.999000 L 237.130000 248.484000 L 241.837000 246.968000 L 246.544000 245.453000 L 251.251000 243.938000 L 255.958000 242.422000 L 260.665000 240.907000 L 265.372000 239.391000 L 270.079000 237.876000 L 274.787000 236.361000 L 279.494000 234.845000 L 284.201000 233.330000 L 288.908000 231.814000 L 293.615000 230.299000 L 298.322000 228.783000 L 303.029000 227.268000 L 307.736000 225.753000 L 312.442000 224.233000 L 317.142000 222.696000 L 321.834000 221.136000 L 326.527000 219.576000 L 331.219000 218.016000 L 335.912000 216.456000 L 340.604000 214.896000 L 345.297000 213.336000 L 349.989000 211.777000 L 354.682000 210.217000 L 359.374000 208.657000 L 364.067000 207.097000 L 368.760000 205.537000 L 373.452000 203.977000 L 378.145000 202.418000 L 382.837000 200.858000 L 387.530000 199.298000 L 392.222000 197.738000 L 396.915000 196.178000 L 401.607000 194.618000 L 406.300000 193.059000 L 410.992000 191.499000 L 415.685000 189.939000 L 420.377000 188.379000 L 425.070000 186.819000 L 429.763000 185.259000 L 434.455000 183.700000 L 439.148000 182.140000" fill="none" id="45" stroke="#4a7ea6" stroke-width="0.5" /></svg>