<?xml version="1.0" encoding="utf-8" ?>
<svg baseProfile="full" height="439.63016" version="1.1" viewBox="0,0,534.63016,439.63016" width="534.63016" xmlns="http://www.w3.org/2000/svg" xmlns:ev="http://www.w3.org/2001/xml-events" xmlns:xlink="http://www.w3.org/1999/xlink"><defs><style type="text/css"><![CDATA[
	.background { fill: white; }
	.line { stroke: firebrick; stroke-width: .1mm; }
	.blacksquare { fill: indigo; }
	.whitesquare { fill: white; }
]]></style></defs><rect class="background" height="100%" width="100%" x="0" y="0" /><path d="M 0.315080 42.311569 L 0.527583 46.305921 L 0.740087 50.300272 L 0.952590 54.294623 L 1.165093 58.288975 L 1.377597 62.283326 L 1.590100 66.277677 L 1.802604 70.272029 L 2.015107 74.266380 L 2.227610 78.260731 L 2.440114 82.255082 L 2.652617 86.249434 L 2.865120 90.243785 L 3.077624 94.238136 L 3.290127 98.232488 L 3.502631 102.226839 L 3.654719 106.223558 L 3.755482 110.222289 L 3.856244 114.221019 L 3.957007 118.219750 L 4.057770 122.218481 L 4.158532 126.217211 L 4.374194 130.210883 L 4.625266 134.202996 L 4.876337 138.195108 L 5.127409 142.187221 L 5.378481 146.179333 L 5.629552 150.171446 L 5.880624 154.163559 L 6.131695 158.155671 L 6.382767 162.147784 L 6.633838 166.139896 L 6.884910 170.132009 L 7.135982 174.124122 L 7.387053 178.116234 L 7.638125 182.108347 L 7.889196 186.100460 L 8.140268 190.092572 L 8.391339 194.084685 L 8.642411 198.076797 L 8.893483 202.068910 L 9.144554 206.061023 L 9.395626 210.053135 L 9.646697 214.045248 L 9.897769 218.037360 L 10.148840 222.029473 L 10.399912 226.021586 L 10.650984 230.013698 L 10.902055 234.005811 L 11.153127 237.997923 L 11.404198 241.990036 L 11.655270 245.982149 L 11.906341 249.974261 L 12.157413 253.966374 L 12.408485 257.958486 L 12.659556 261.950599 L 12.910628 265.942712 L 13.161699 269.934824 L 13.412771 273.926937 L 13.663842 277.919049 L 13.914914 281.911162 L 14.165986 285.903275 L 14.417057 289.895387 L 14.668129 293.887500 L 15.319894 297.832812 L 15.995574 301.775331 L 16.671254 305.717850 L 17.346934 309.660369 L 18.022614 313.602888 L 18.698294 317.545407 L 19.373975 321.487926 L 20.049655 325.430445 L 20.725335 329.372964 L 21.401015 333.315483 L 22.076695 337.258003 L 22.752375 341.200522 L 23.428056 345.143041 L 24.103736 349.085560 L 24.779416 353.028079 L 25.455096 356.970598 L 26.130776 360.913117 L 26.806456 364.855636 L 27.482137 368.798155 L 28.157817 372.740674 L 28.833497 376.683193 L 29.509177 380.625712 L 30.178360 384.530319" fill="none" id="1" stroke="black" stroke-width="0.63016" /><path d="M 310.291640 327.163129 L 312.224807 325.113172 L 313.836655 321.460874 L 314.766524 317.570457 L 315.574207 313.652923 L 316.267710 309.714381 L 316.899975 305.764667 L 317.532240 301.814953 L 318.164505 297.865239 L 318.796770 293.915525 L 319.429035 289.965811 L 320.061300 286.016097 L 320.307270 284.479539" fill="none" id="3" stroke="black" stroke-width="0.63016" /><path d="M 353.584610 67.147509 L 350.573498 69.780607 L 352.484523 68.309459 L 353.553360 65.924849" fill="none" id="4" stroke="black" stroke-width="0.63016" /><path d="M 304.201800 45.467819 L 300.707707 47.162074 L 303.549947 45.267002 L 303.623670 44.565479" fill="none" id="5" stroke="black" stroke-width="0.63016" /><path d="M 270.154920 26.303759 L 268.447509 23.963276 L 267.079509 25.699094 L 268.576800 24.952199" fill="none" id="6" stroke="black" stroke-width="0.63016" /><path d="M 348.010390 63.893599 L 350.724258 66.196581 L 351.896319 69.858854 L 349.686170 69.338909" fill="none" id="7" stroke="black" stroke-width="0.63016" /><path d="M 309.065080 46.112349 L 309.599600 48.779597 L 309.579344 48.580956 L 309.193990 48.752979" fill="none" id="8" stroke="black" stroke-width="0.63016" /><path d="M 309.967420 48.401409 L 306.557336 46.310637 L 302.652698 45.714660 L 298.662804 45.998805 L 294.672909 46.282950 L 290.688392 46.580239 L 287.644055 49.174850 L 284.599717 51.769461 L 281.555379 54.364073 L 278.511042 56.958684 L 275.466704 59.553295 L 272.422366 62.147907 L 269.548428 64.902739 L 267.145998 68.100915 L 265.404960 71.671519 L 263.915990 75.384061 L 262.427021 79.096603 L 260.938051 82.809145 L 259.449081 86.521687 L 257.960111 90.234229 L 256.471142 93.946771 L 254.982172 97.659314 L 253.493202 101.371856 L 252.004232 105.084398 L 250.515263 108.796940 L 249.080567 112.524450 L 248.456108 116.475405 L 247.831649 120.426361 L 247.207190 124.377317 L 246.582731 128.328273 L 245.958272 132.279228 L 245.333814 136.230184 L 244.709355 140.181140 L 244.084896 144.132095 L 243.460437 148.083051 L 242.835978 152.034007 L 242.322890 155.280319" fill="none" id="9" stroke="black" stroke-width="0.63016" /><path d="M 242.065080 154.280319 L 242.047361 158.280280 L 241.934825 162.275051 L 241.515864 166.253049 L 241.096903 170.231048 L 240.424718 174.164593 L 240.031928 172.827103 L 239.928794 168.828433 L 240.011262 164.833536 L 240.276802 160.842359 L 240.580049 156.855679 L 241.260477 152.913977 L 242.269376 149.044003 L 242.998670 146.292039" fill="none" id="10" stroke="black" stroke-width="0.63016" /><path d="M 304.526020 44.342819 L 308.478686 44.472305 L 311.771409 46.711897 L 314.974586 49.107655 L 318.177763 51.503413 L 321.380940 53.899171 L 324.385420 56.539505 L 327.386413 59.184129 L 330.170811 62.054023 L 332.931174 64.948915 L 335.691536 67.843807 L 338.451899 70.738699 L 341.212261 73.633591 L 343.972623 76.528483 L 346.732986 79.423375 L 349.493348 82.318267 L 352.221136 85.243000 L 354.863626 88.245873 L 357.506116 91.248745 L 360.148607 94.251618 L 362.791097 97.254491 L 365.433588 100.257363 L 368.076078 103.260236 L 370.718569 106.263109 L 373.361059 109.265981 L 376.003549 112.268854 L 378.646040 115.271727 L 381.288530 118.274599 L 383.931021 121.277472 L 386.356633 124.456019 L 388.745363 127.664440 L 391.134094 130.872861 L 393.522824 134.081283 L 395.911554 137.289704 L 398.300285 140.498125 L 400.689015 143.706546 L 403.077746 146.914967 L 405.466476 150.123389 L 407.855207 153.331810 L 410.243937 156.540231 L 412.632668 159.748652 L 415.021398 162.957074 L 417.410129 166.165495 L 419.798859 169.373916 L 422.187590 172.582337 L 424.375508 175.929492 L 426.531167 179.298933 L 428.686826 182.668374 L 430.576108 186.191876 L 432.421650 189.740675 L 434.267193 193.289474 L 436.112736 196.838272 L 437.958279 200.387071 L 439.803821 203.935870 L 441.649364 207.484668 L 443.494907 211.033467 L 445.340449 214.582266 L 447.185992 218.131064 L 449.031535 221.679863 L 450.877078 225.228662 L 452.722620 228.777460 L 454.568163 232.326259 L 456.413706 235.875058 L 458.259248 239.423856 L 460.076557 242.985734 L 461.589998 246.688367 L 463.103439 250.391001 L 464.616880 254.093635 L 466.016099 257.838659 L 467.284635 261.632182 L 468.553171 265.425704 L 469.821708 269.219227 L 471.090244 273.012750 L 472.358780 276.806273 L 473.627316 280.599796 L 474.895853 284.393319 L 476.164389 288.186842 L 477.432925 291.980365 L 478.701461 295.773887 L 479.969998 299.567410 L 481.238534 303.360933 L 482.507070 307.154456 L 483.775606 310.947979 L 485.044143 314.741502 L 486.312679 318.535025 L 487.581215 322.328547 L 488.849752 326.122070 L 490.118288 329.915593 L 491.386824 333.709116 L 492.628108 337.510964 L 493.696011 341.365777 L 494.763915 345.220590 L 495.831819 349.075402 L 496.832333 352.948113 L 497.817869 356.824803 L 498.803404 360.701492 L 499.788940 364.578181 L 500.774475 368.454871 L 501.760010 372.331560 L 502.143210 373.838909" fill="none" id="11" stroke="black" stroke-width="0.63016" /><path d="M 204.537740 98.264699 L 205.120642 99.193750 L 205.990860 97.522509" fill="none" id="12" stroke="black" stroke-width="0.63016" /><path d="M 151.971330 66.440479 L 148.638198 64.229092 L 145.305067 62.017705 L 145.076800 61.866259" fill="none" id="13" stroke="black" stroke-width="0.63016" /><path d="M 370.268210 7.006879 L 373.541433 9.306012 L 376.814656 11.605144 L 378.065080 12.483449" fill="none" id="14" stroke="black" stroke-width="0.63016" /><path d="M 408.764300 429.241259 L 408.500345 433.232541 L 408.205030 437.219039 L 407.709020 438.276262 L 408.170154 434.313368 L 408.858050 432.532593 L 408.612446 436.519437 L 408.239662 439.310756 L 408.179067 435.311215 L 408.151020 433.460009" fill="none" id="15" stroke="black" stroke-width="0.63016" /><path d="M 451.928360 385.819379 L 451.414743 389.786267 L 451.320936 386.363140 L 451.695207 382.383218 L 451.722081 385.067610 L 451.380673 387.604324 L 451.401364 383.604378 L 451.597934 382.162093 L 451.455955 386.159573 L 451.340208 386.574727 L 451.523429 382.582765 L 451.604140 381.502979" fill="none" id="16" stroke="black" stroke-width="0.63016" /><path d="M 198.483050 97.491259 L 194.483377 97.440119 L 190.483704 97.388979 L 186.553937 97.875900 L 183.145547 99.909421 L 179.835313 102.154938 L 176.525078 104.400455 L 173.214843 106.645972 L 169.904608 108.891489 L 166.638421 111.194840 L 163.593850 113.789178 L 160.549280 116.383516 L 157.504709 118.977855 L 154.460139 121.572193 L 151.415568 124.166531 L 148.811170 126.385789" fill="none" id="18" stroke="black" stroke-width="0.63016" /><path d="M 15.229140 317.432659 L 14.240951 313.556646 L 13.578204 309.635166 L 13.552150 305.638529 L 13.831276 301.648280 L 14.110402 297.658031 L 14.389528 293.667781 L 14.668654 289.677532 L 14.947780 285.687283 L 15.586029 281.740058 L 16.536939 277.857996 L 17.574425 273.994885 L 18.611911 270.131775 L 19.649396 266.268664 L 20.686882 262.405554 L 21.724368 258.542443 L 22.761854 254.679333 L 23.799340 250.816222 L 24.973500 246.995812 L 26.319747 243.229167 L 27.926540 239.568925 L 29.601906 235.936687 L 31.277272 232.304450 L 32.952637 228.672212 L 34.628003 225.039974 L 36.303369 221.407737 L 37.978735 217.775499 L 39.654100 214.143262 L 41.395316 210.544890 L 43.375404 207.069368 L 45.459479 203.658128 L 47.683210 200.333219 L 49.906941 197.008310 L 52.130672 193.683401 L 54.354403 190.358492 L 56.578135 187.033583 L 58.801866 183.708674 L 61.025597 180.383765 L 63.249328 177.058856 L 65.473059 173.733948 L 67.913300 170.565459 L 70.378861 167.416297 L 73.137953 164.520193 L 75.897044 161.624090 L 78.656136 158.727987 L 81.415227 155.831883 L 84.174319 152.935780 L 86.933410 150.039677 L 89.692501 147.143573 L 92.451593 144.247470 L 95.210684 141.351367 L 97.969776 138.455263 L 100.786619 135.619001 L 103.778901 132.964524 L 106.875298 130.436869 L 110.061742 128.018900 L 113.248186 125.600931 L 116.434630 123.182962 L 119.621074 120.764993 L 122.807518 118.347024 L 125.993962 115.929054 L 129.180406 113.511085 L 132.464927 111.236225 L 135.869808 109.136992 L 139.634584 107.787596 L 143.402270 106.444262 L 147.169955 105.100928 L 150.937640 103.757593 L 154.705326 102.414259 L 158.473011 101.070925 L 162.240696 99.727590 L 166.141567 99.006584 L 170.126189 99.027840 L 174.107754 99.411428 L 178.089319 99.795016 L 182.070884 100.178604 L 186.052449 100.562192 L 190.034014 100.945780 L 193.907057 101.931858 L 197.772225 102.961649 L 201.637394 103.991441 L 205.502563 105.021233 L 209.367731 106.051025 L 213.232900 107.080816 L 217.098069 108.110608 L 220.963238 109.140400 L 224.828406 110.170192 L 226.443990 110.600629" fill="none" id="19" stroke="black" stroke-width="0.63016" /><path d="M 195.682270 99.874069 L 199.660321 100.172059 L 203.452748 101.443868 L 207.010304 103.260783 L 210.539452 105.143630 L 214.068600 107.026477 L 217.553504 108.988640 L 220.871258 111.218332 L 224.144879 113.516898 L 227.418500 115.815464 L 230.692121 118.114031 L 233.965741 120.412597 L 237.239362 122.711164 L 240.408072 125.145781 L 243.463347 127.727504 L 246.518623 130.309227 L 249.573898 132.890950 L 252.629173 135.472673 L 255.684448 138.054396 L 258.739723 140.636119 L 261.794998 143.217843 L 264.850273 145.799566 L 267.905548 148.381289 L 270.960823 150.963012 L 274.016098 153.544735 L 277.071373 156.126458 L 280.126648 158.708182 L 283.181923 161.289905 L 286.237198 163.871628 L 289.292473 166.453351 L 292.347748 169.035074 L 295.403023 171.616797 L 298.458298 174.198520 L 301.468622 176.831967 L 304.451076 179.497482 L 307.433530 182.162996 L 310.415984 184.828511 L 313.398438 187.494025 L 316.380892 190.159540 L 319.363346 192.825054 L 322.345800 195.490569 L 325.328254 198.156083 L 328.310709 200.821598 L 331.293163 203.487112 L 334.242065 206.189117 L 337.148026 208.937824 L 339.996766 211.744913 L 342.803306 214.595060 L 345.609846 217.445206 L 348.416386 220.295352 L 351.222925 223.145499 L 354.029465 225.995645 L 356.836005 228.845792 L 359.642545 231.695938 L 362.449084 234.546085 L 365.255624 237.396231 L 367.998231 240.307802 L 370.733802 243.226131 L 373.469374 246.144461 L 376.204946 249.062791 L 378.794274 252.110615 L 381.360034 255.179308 L 383.925794 258.248000 L 386.491554 261.316693 L 389.057314 264.385386 L 391.623074 267.454079 L 394.188834 270.522772 L 396.754594 273.591464 L 399.320354 276.660157 L 401.886114 279.728850 L 404.266114 282.938491 L 406.530620 286.235764 L 408.580285 289.663344 L 410.457872 293.195294 L 412.335458 296.727244 L 414.213044 300.259193 L 416.090630 303.791143 L 417.968217 307.323093 L 419.845803 310.855043 L 421.723389 314.386993 L 423.600975 317.918943 L 425.478561 321.450893 L 427.355186 324.983303 L 428.927172 328.661463 L 430.499157 332.339623 L 431.855321 336.101265 L 433.167697 339.879846 L 434.480074 343.658426 L 435.792450 347.437006 L 437.104826 351.215586 L 438.417202 354.994166 L 439.729579 358.772747 L 441.041955 362.551327 L 442.354331 366.329907 L 443.666708 370.108487 L 444.979084 373.887068 L 446.291460 377.665648 L 447.598495 381.445989 L 448.790588 385.264223 L 449.982682 389.082458 L 451.174776 392.900692 L 452.366870 396.718926 L 453.558963 400.537160 L 454.666640 404.085009" fill="none" id="20" stroke="black" stroke-width="0.63016" /><path d="M 525.561170 305.034229 L 526.474346 305.759029 L 525.875091 307.147402 L 525.341221 303.183189 L 524.711112 306.636042 L 524.454596 308.922682 L 524.393964 304.923141 L 524.752698 305.700379 L 524.533830 306.835009" fill="none" id="22" stroke="black" stroke-width="0.63016" /><path d="M 528.881490 316.885789 L 529.188514 312.897590 L 528.361647 309.042812 L 527.137265 305.234809 L 525.912882 301.426806 L 524.688499 297.618803 L 523.257894 293.885964 L 521.744748 290.183210 L 520.231602 286.480456 L 518.718456 282.777701 L 517.205311 279.074947 L 515.692165 275.372192 L 514.179019 271.669438 L 512.665874 267.966684 L 511.152728 264.263929 L 509.639582 260.561175 L 508.126437 256.858420 L 506.613291 253.155666 L 505.100145 249.452912 L 503.586999 245.750157 L 502.073854 242.047403 L 500.560708 238.344649 L 499.047562 234.641894 L 497.534417 230.939140 L 496.021271 227.236385 L 494.508125 223.533631 L 492.994980 219.830877 L 491.481834 216.128122 L 489.968688 212.425368 L 488.455543 208.722613 L 486.942397 205.019859 L 485.429251 201.317105 L 483.910736 197.616655 L 482.268687 193.969235 L 480.626639 190.321814 L 478.981334 186.675947 L 477.180185 183.104411 L 475.379037 179.532876 L 473.577889 175.961341 L 471.776740 172.389806 L 469.975592 168.818270 L 468.174443 165.246735 L 466.373295 161.675200 L 464.572147 158.103664 L 462.770998 154.532129 L 460.969850 150.960594 L 459.168701 147.389058 L 457.367553 143.817523 L 455.566405 140.245988 L 453.765256 136.674452 L 451.964108 133.102917 L 450.162960 129.531382 L 448.361811 125.959847 L 446.560663 122.388311 L 444.759514 118.816776 L 442.799752 115.329885 L 440.835469 111.845406 L 438.871187 108.360927 L 436.545916 105.118145 L 434.072438 101.974595 L 431.598960 98.831045 L 429.125482 95.687496 L 426.652004 92.543946 L 424.178526 89.400396 L 421.705048 86.256846 L 419.231570 83.113296 L 416.758092 79.969746 L 414.284614 76.826196 L 411.811136 73.682646 L 409.337658 70.539096 L 406.864180 67.395546 L 404.390702 64.251996 L 401.917224 61.108446 L 399.443746 57.964896 L 396.970267 54.821346 L 394.496789 51.677796 L 392.023311 48.534246 L 389.549833 45.390696 L 387.889300 43.280319" fill="none" id="23" stroke="black" stroke-width="0.63016" /><path d="M 377.611960 34.647509 L 377.357423 32.822776 L 374.768860 29.795535 L 372.028869 26.881354 L 369.288879 23.967173 L 366.548888 21.052992 L 363.592548 18.360770 L 360.609197 15.696259 L 357.625846 13.031749 L 354.561891 10.470324 L 351.393210 11.332331 L 351.827259 15.301860 L 352.386114 19.262628 L 352.944969 23.223396 L 353.503825 27.184163 L 354.062680 31.144931 L 354.622402 35.105567 L 355.266633 39.053347 L 355.910865 43.001127 L 356.555096 46.948907 L 357.199327 50.896686 L 357.843559 54.844466 L 358.487790 58.792246 L 359.132021 62.740026 L 359.776253 66.687806 L 360.420484 70.635586 L 361.064716 74.583366 L 361.706609 78.531464 L 362.140093 82.507906 L 362.573578 86.484348 L 362.604140 86.764699" fill="none" id="24" stroke="black" stroke-width="0.63016" /><path d="M 389.565080 50.335009 L 388.972449 47.487462 L 386.931359 44.053132 L 384.430358 40.931435 L 381.929356 37.809738 L 379.394876 34.717758 L 376.591982 31.864026 L 373.789088 29.010294 L 370.986194 26.156562 L 368.183300 23.302830 L 365.380406 20.449099 L 362.266747 17.939754 L 359.141068 15.443732 L 357.185610 17.397906 L 356.612722 21.328474 L 356.534751 25.327714 L 356.483050 27.979539" fill="none" id="25" stroke="black" stroke-width="0.63016" /><path d="M 359.318990 9.264699 L 355.831589 7.305608 L 352.344189 5.346517 L 348.810397 3.474680 L 345.236044 1.679130 L 342.922335 2.375170 L 343.721282 6.227041 L 344.209610 7.846729" fill="none" id="26" stroke="black" stroke-width="0.63016" /><path d="M 371.588520 27.655319 L 371.551359 24.005918 L 369.833464 20.462332 L 367.605763 17.140082 L 365.096712 14.085457 L 361.889924 11.694535 L 358.683135 9.303613 L 355.504597 6.876177 L 352.385089 4.372446 L 349.369504 1.749308 L 345.752158 0.315080 L 342.483111 0.837559 L 341.051111 4.533893 L 340.043692 8.404953 L 339.795550 9.358449" fill="none" id="27" stroke="black" stroke-width="0.63016" /><path d="M 312.225240 49.366259 L 308.951331 47.100889 L 305.853674 44.626547 L 302.432746 42.553567 L 299.011817 40.480586 L 295.392301 38.869210 L 291.518320 37.895265 L 287.546610 37.420375 L 283.574900 36.945484 L 279.603190 36.470594 L 275.774181 37.245120 L 272.011839 38.603347 L 268.249496 39.961574 L 265.457854 42.566405 L 263.924109 46.260675 L 262.390365 49.954944 L 260.856620 53.649214 L 259.915649 57.533187 L 259.019558 61.431523 L 258.123468 65.329858 L 257.227377 69.228194 L 256.331286 73.126530 L 255.435195 77.024865 L 254.539105 80.923201 L 253.643014 84.821537 L 252.746923 88.719873 L 251.850832 92.618208 L 250.954741 96.516544 L 250.308482 100.463387 L 249.680642 104.413807 L 249.146273 108.377096 L 248.683265 112.350208 L 248.243818 116.325060 L 248.118310 120.323091 L 247.992802 124.321121 L 247.867295 128.319152 L 247.741787 132.317182 L 247.616279 136.315213 L 247.490771 140.313243 L 247.365263 144.311274 L 247.283830 146.905319" fill="none" id="28" stroke="black" stroke-width="0.63016" /><path d="M 353.615860 69.338909 L 353.369762 72.752753 L 353.100228 68.761844 L 352.830693 64.770935 L 352.708025 64.370453 L 352.765342 68.370042 L 352.822659 72.369631 L 352.879976 76.369221 L 352.937293 80.368810 L 352.994610 84.368399 L 353.058398 86.388084 L 353.141853 82.388955 L 353.225308 78.389826 L 353.308764 74.390696 L 353.392219 70.391567 L 353.475675 66.392438 L 353.559130 62.393308 L 353.694945 60.953355 L 353.941903 64.945724 L 354.188860 68.938093 L 354.435818 72.930463 L 354.682775 76.922832 L 354.929733 80.915201 L 355.096330 83.608449" fill="none" id="29" stroke="black" stroke-width="0.63016" /><path d="M 376.647110 110.120159 L 376.568883 114.119394 L 376.549460 112.105494 L 376.209914 109.857618 L 376.068990 112.276409" fill="none" id="30" stroke="black" stroke-width="0.63016" /><path d="M 378.127580 110.151409 L 377.626906 110.795451 L 379.287740 108.088909" fill="none" id="32" stroke="black" stroke-width="0.63016" /><path d="M 341.022110 74.299849 L 338.141768 71.524308 L 335.261426 68.748767 L 335.317864 69.131467 L 337.877048 72.205646 L 340.436232 75.279826 L 342.995416 78.354005 L 345.554599 81.428184 L 348.309717 84.319612 L 351.198493 87.086374 L 354.087270 89.853136 L 356.989206 92.605661 L 359.974142 95.268396 L 362.959078 97.931130 L 365.944015 100.593865 L 368.928951 103.256600 L 371.913887 105.919334 L 374.898823 108.582069 L 377.883759 111.244803 L 380.868696 113.907538 L 383.853632 116.570273 L 386.838568 119.233007 L 389.823504 121.895742 L 392.808441 124.558477 L 395.793377 127.221211 L 398.778313 129.883946 L 401.763249 132.546680 L 404.748186 135.209415 L 407.672989 137.933944 L 410.416109 140.845181 L 413.159228 143.756417 L 415.902347 146.667653 L 418.645466 149.578890 L 421.388585 152.490126 L 424.131705 155.401362 L 426.874824 158.312599 L 429.617943 161.223835 L 432.361062 164.135071 L 433.760390 165.620159" fill="none" id="33" stroke="black" stroke-width="0.63016" /><path d="M 289.158830 96.815479 L 292.268533 99.331378 L 295.378237 101.847276 L 298.487940 104.363174 L 301.597644 106.879073 L 304.642127 109.467188 L 307.460830 112.305306 L 310.279533 115.143424 L 313.098236 117.981542 L 315.916940 120.819660 L 318.735643 123.657777 L 321.554346 126.495895 L 324.373049 129.334013 L 327.191752 132.172131 L 330.010455 135.010249 L 332.829158 137.848367 L 335.647861 140.686485 L 338.466564 143.524602 L 341.285267 146.362720 L 343.571613 149.640664 L 345.827020 152.944168 L 348.082427 156.247671 L 350.337834 159.551175 L 352.593241 162.854679 L 354.848649 166.158183 L 357.104056 169.461687 L 359.359463 172.765191 L 361.614870 176.068695 L 363.870278 179.372199 L 366.125685 182.675703 L 368.381092 185.979207 L 370.636499 189.282711 L 372.891907 192.586215 L 375.147314 195.889719 L 377.330171 199.234034 L 378.982295 202.876902 L 380.634419 206.519770 L 382.286543 210.162638 L 383.938667 213.805506 L 385.590791 217.448373 L 387.242915 221.091241 L 388.895039 224.734109 L 390.547162 228.376977 L 392.010522 232.092831 L 392.014300 232.104539" fill="none" id="34" stroke="black" stroke-width="0.63016" /><path d="M 369.076800 52.588909 L 372.234254 55.044614 L 375.391708 57.500318 L 378.549162 59.956022 L 381.706616 62.411727 L 384.864071 64.867431 L 388.021525 67.323135 L 391.178979 69.778840 L 394.336433 72.234544 L 397.493887 74.690248 L 400.294749 77.527902 L 402.961240 80.509483 L 405.627731 83.491065 L 408.294222 86.472646 L 410.960713 89.454227 L 413.627203 92.435808 L 416.293694 95.417390 L 418.960185 98.398971 L 421.626676 101.380552 L 424.293167 104.362134 L 426.959657 107.343715 L 429.626148 110.325296 L 432.002923 113.518353 L 434.029922 116.966726 L 436.056921 120.415099 L 438.083919 123.863472 L 440.110918 127.311845 L 442.137917 130.760218 L 444.164915 134.208591 L 446.191914 137.656964 L 448.218913 141.105337 L 450.245912 144.553710 L 452.272910 148.002083 L 454.299909 151.450456 L 456.326908 154.898829 L 458.273810 158.388356 L 459.897049 162.044187 L 461.520287 165.700017 L 463.143525 169.355848 L 464.766764 173.011679 L 466.390002 176.667509 L 466.904920 177.827199" fill="none" id="35" stroke="black" stroke-width="0.63016" /><path d="M 291.674460 98.491259 L 293.298451 97.491732 L 296.716553 95.414094 L 300.134656 93.336457 L 303.552758 91.258820 L 306.970860 89.181182 L 310.388962 87.103545 L 313.807065 85.025908 L 317.225167 82.948270 L 320.643269 80.870633 L 324.065808 78.800387 L 327.506876 76.761011 L 330.947943 74.721635 L 334.389010 72.682259 L 337.830078 70.642883 L 341.271145 68.603507 L 344.712213 66.564131 L 348.153280 64.524755 L 351.594348 62.485379 L 355.035415 60.446003 L 358.476483 58.406627 L 361.995260 56.505234 L 365.624832 54.827634 L 369.276964 53.196091 L 372.929095 51.564547 L 373.084646 52.200723 L 369.633301 54.222658 L 366.181957 56.244592 L 362.730612 58.266527 L 359.279267 60.288461 L 355.827922 62.310396 L 352.376577 64.332330 L 348.925233 66.354265 L 345.473888 68.376199 L 342.022543 70.398134 L 338.571198 72.420068 L 335.119853 74.442003 L 331.668509 76.463937 L 328.217164 78.485872 L 324.765819 80.507806 L 321.314474 82.529741 L 317.863129 84.551675 L 314.411785 86.573610 L 310.960440 88.595544 L 307.586098 90.741342 L 304.245682 92.941710 L 300.905266 95.142078 L 297.564850 97.342446 L 294.224433 99.542814 L 290.884017 101.743182 L 288.402002 104.361451 L 289.225240 103.870159" fill="none" id="36" stroke="black" stroke-width="0.63016" /><path d="M 380.029920 50.913129 L 377.186037 48.100243 L 376.489803 44.869424 L 379.557651 47.430946 L 382.260590 50.379526 L 384.963528 53.328106 L 387.666466 56.276686 L 390.369404 59.225266 L 393.072343 62.173847 L 395.775281 65.122427 L 398.478219 68.071007 L 401.181157 71.019587 L 403.846919 73.999566 L 406.301719 77.157724 L 408.756519 80.315881 L 410.871112 83.708638 L 412.950461 87.125700 L 415.029809 90.542761 L 417.109158 93.959823 L 419.188506 97.376885 L 421.267855 100.793946 L 423.347203 104.211008 L 425.426552 107.628069 L 427.505900 111.045131 L 429.585249 114.462192 L 431.664597 117.879254 L 433.743946 121.296315 L 434.822890 123.069379" fill="none" id="37" stroke="black" stroke-width="0.63016" /><path d="M 338.799460 140.108449 L 336.344769 136.950207 L 333.667788 133.978192 L 330.988447 131.008153 L 328.309106 128.038113 L 326.121007 124.786317 L 324.910225 120.973967 L 323.699443 117.161618 L 322.488662 113.349268 L 321.533830 109.497251 L 321.860969 105.539000 L 322.865545 101.667200 L 323.870120 97.795401 L 324.874695 93.923602 L 325.879270 90.051803 L 326.883845 86.180004 L 327.888420 82.308205 L 328.949290 78.461585 L 331.165762 75.131832 L 334.509955 73.020332 L 338.000618 71.067061 L 341.491282 69.113791 L 344.981946 67.160521 L 348.472610 65.207250 L 351.963274 63.253980 L 353.584610 62.346729" fill="none" id="38" stroke="black" stroke-width="0.63016" /><path d="M 338.186170 142.006879 L 336.589414 141.503619 L 339.424742 144.325129 L 342.288438 147.107864 L 345.835820 148.956129 L 349.383202 150.804393 L 352.930584 152.652657 L 356.477966 154.500921 L 360.152045 155.940718 L 364.122698 156.424362 L 368.093352 156.908007 L 372.064005 157.391652 L 376.034658 157.875296 L 380.005312 158.358941 L 383.975965 158.842586 L 387.946618 159.326230 L 391.942149 159.255649 L 395.940166 159.129698 L 399.843635 158.303197 L 403.732000 157.364787 L 407.620366 156.426377 L 409.568990 155.956099" fill="none" id="39" stroke="black" stroke-width="0.63016" /><path d="M 403.608050 156.534229 L 406.944895 154.328449 L 410.248294 152.082543 L 413.018996 149.197546 L 415.345228 145.947285 L 417.638622 142.670039 L 419.932017 139.392793 L 422.225411 136.115547 L 423.468951 132.333357 L 424.597505 128.495862 L 425.726059 124.658367 L 426.737488 120.800389 L 426.978335 116.807646 L 426.770746 112.825333 L 426.344537 108.848105 L 425.918328 104.870877 L 425.429901 100.910340 L 423.808148 97.253850 L 421.708849 93.895731 L 419.133650 90.834955 L 416.558451 87.774179 L 414.463520 85.284229" fill="none" id="40" stroke="black" stroke-width="0.63016" /><path d="M 413.818990 82.545949 L 416.440499 85.240476 L 418.502790 88.667859 L 420.565080 92.095243 L 422.627371 95.522626 L 423.982197 99.268592 L 425.181682 103.084511 L 426.381166 106.900430 L 427.580651 110.716349 L 428.780136 114.532268 L 429.932273 118.358788 L 430.474510 122.321865 L 429.990194 126.292257 L 429.504495 130.262660 L 429.018795 134.233062 L 428.533095 138.203465 L 428.047396 142.173867 L 426.781186 145.841145 L 423.892652 148.561222 L 421.971330 150.092819" fill="none" id="41" stroke="black" stroke-width="0.63016" /><path d="M 336.092420 133.085009 L 338.656775 136.154877 L 341.221129 139.224744 L 343.879158 142.210635 L 346.651669 145.093893 L 349.648555 147.714260 L 352.931607 149.999335 L 356.214659 152.284410 L 359.497712 154.569485 L 362.780764 156.854560 L 366.063816 159.139635 L 369.545948 160.750093 L 373.543617 160.613558 L 377.541286 160.477023 L 381.538955 160.340489 L 385.536624 160.203954 L 389.534293 160.067419 L 393.531962 159.930884 L 397.465036 159.497502 L 401.157955 157.960509 L 404.350240 156.631879" fill="none" id="42" stroke="black" stroke-width="0.63016" /><path d="M 411.631490 86.506879 L 408.972676 83.518451 L 406.313862 80.530022 L 403.111908 78.170184 L 399.593254 76.267798 L 396.074600 74.365412 L 392.555945 72.463026 L 389.037291 70.560640 L 385.518637 68.658254 L 381.999983 66.755868 L 378.295192 65.260997 L 374.381307 65.228620 L 370.406999 65.681259 L 366.432692 66.133898 L 362.458385 66.586537 L 358.484078 67.039176 L 354.509771 67.491815 L 350.535463 67.944455 L 346.869857 69.296416 L 343.455402 71.380042 L 340.040947 73.463668 L 338.830710 74.202199" fill="none" id="43" stroke="black" stroke-width="0.63016" /><path d="M 359.768210 10.420949 L 362.573814 12.918755 L 366.045833 14.900590 L 369.451186 16.999059 L 372.856539 19.097527 L 376.261892 21.195996 L 379.409931 23.648323 L 382.455889 26.241033 L 385.501846 28.833743 L 388.547803 31.426453 L 391.593760 34.019163 L 394.639717 36.611873 L 397.685675 39.204582 L 400.731632 41.797292 L 403.777589 44.390002 L 406.823546 46.982712 L 409.543306 49.900358 L 412.124202 52.956332 L 414.705098 56.012306 L 417.285994 59.068280 L 419.866890 62.124254 L 422.447786 65.180228 L 425.028682 68.236201 L 427.609578 71.292175 L 430.190474 74.348149 L 432.606194 77.532024 L 434.918824 80.795725 L 437.144975 84.117278 L 439.278958 87.500489 L 441.412941 90.883700 L 443.546924 94.266911 L 445.680907 97.650122 L 447.814890 101.033333 L 449.948873 104.416543 L 452.082856 107.799754 L 454.216839 111.182965 L 456.350823 114.566176 L 458.484806 117.949387 L 460.618789 121.332598 L 462.752772 124.715809 L 464.886755 128.099020 L 467.009315 131.489056 L 468.977544 134.971308 L 470.945773 138.453559 L 472.790617 141.998422 L 474.438919 145.643021 L 476.087221 149.287620 L 477.735524 152.932218 L 479.383826 156.576817 L 481.032129 160.221416 L 482.680431 163.866014 L 484.328733 167.510613 L 485.977036 171.155212 L 487.625338 174.799810 L 489.273641 178.444409 L 490.921943 182.089007 L 492.570245 185.733606 L 494.218548 189.378205 L 495.866850 193.022803 L 497.515153 196.667402 L 499.163455 200.312001 L 500.811757 203.956599 L 502.460060 207.601198 L 503.812862 211.365170 L 505.158577 215.132006 L 506.504292 218.898842 L 507.616197 222.736509 L 508.587170 226.616872 L 509.558142 230.497234 L 510.529114 234.377597 L 511.500086 238.257959 L 512.471058 242.138322 L 513.442030 246.018684 L 514.413002 249.899047 L 515.383975 253.779409 L 516.354947 257.659772 L 517.325919 261.540134 L 518.296891 265.420497 L 519.267863 269.300859 L 520.238835 273.181222 L 521.209807 277.061584 L 522.180780 280.941947 L 523.147110 284.803759" fill="none" id="44" stroke="black" stroke-width="0.63016" /><path d="M 375.393210 19.635789 L 372.717041 16.662892 L 369.734446 14.024322 L 366.421521 11.813110 L 362.804237 10.105697 L 359.186953 8.398284 L 355.569669 6.690872 L 351.653016 6.612605 L 347.665037 6.922485 L 343.677058 7.232364 L 339.689079 7.542244 L 336.600216 9.902399 L 333.670758 12.626051 L 332.193990 15.982631 L 332.193990 16.413129" fill="none" id="45" stroke="black" stroke-width="0.63016" /><path d="M 337.959610 69.370159 L 339.661362 72.859346 L 341.091062 76.595114 L 342.603956 80.294832 L 344.351980 83.892667 L 346.100004 87.490501 L 347.848028 91.088335 L 349.718577 94.621302 L 351.711451 98.089509 L 353.704324 101.557715 L 355.697198 105.025921 L 357.690072 108.494127 L 359.915206 111.794607 L 363.085508 114.190526 L 366.431771 116.381993 L 369.014300 118.073289" fill="none" id="47" stroke="black" stroke-width="0.63016" /><path d="M 361.733050 109.053759 L 363.446233 112.565945 L 366.312348 115.353778 L 369.202284 118.119328 L 372.092221 120.884879 L 374.982157 123.650429 L 377.872094 126.415979 L 380.762030 129.181529 L 383.682356 131.913522 L 386.719970 134.516002 L 389.757584 137.118482 L 392.862825 139.636334 L 396.071229 142.025086 L 399.279634 144.413839 L 402.488038 146.802592 L 405.696443 149.191345 L 408.904847 151.580098 L 412.113252 153.968851 L 415.321656 156.357604 L 416.943990 157.565479" fill="none" id="48" stroke="black" stroke-width="0.63016" /><path d="M 365.951800 110.924849 L 366.728378 114.694909 L 368.846996 118.061049 L 371.689606 120.875222 L 374.532216 123.689395 L 377.374826 126.503568 L 380.217436 129.317741 L 383.060045 132.131914 L 385.902655 134.946087 L 388.826136 137.672958 L 391.901982 140.223446 L 395.217385 142.461326 L 398.532787 144.699206 L 401.848189 146.937086 L 405.163592 149.174966 L 408.478994 151.412846 L 411.813673 153.621445 L 415.179775 155.782316 L 418.545877 157.943186 L 420.068990 158.920949" fill="none" id="49" stroke="black" stroke-width="0.63016" /><path d="M 341.471330 137.788129 L 337.502255 137.842223 L 338.128358 138.271959 L 342.109791 137.887003 L 345.981701 137.136869 L 349.517845 135.267193 L 353.053989 133.397517 L 356.590133 131.527842 L 360.011715 129.471904 L 363.124910 126.967009 L 366.153496 124.354029 L 369.182083 121.741049 L 372.210669 119.128069 L 372.686170 118.717819" fill="none" id="50" stroke="black" stroke-width="0.63016" /><path d="M 341.568990 138.530319 L 345.303347 137.325713 L 348.721052 135.248354 L 352.132043 133.159063 L 355.543035 131.069773 L 358.954026 128.980482 L 362.063718 126.474821 L 365.114686 123.888010 L 368.165655 121.301199 L 371.216624 118.714388 L 374.267592 116.127577 L 377.318561 113.540766 L 380.192528 110.772791 L 382.849566 107.782782 L 385.506604 104.792774 L 386.697890 103.452199" fill="none" id="51" stroke="black" stroke-width="0.63016" /><path d="M 411.533830 83.448289 L 409.162785 86.641336 L 407.032239 90.026712 L 404.794682 93.328156 L 402.014379 96.203901 L 399.234076 99.079647 L 396.453772 101.955393 L 393.673469 104.831138 L 390.581152 107.356496 L 387.403580 109.786111 L 384.226007 112.215727 L 381.048434 114.645342 L 377.870861 117.074958 L 374.693289 119.504573 L 371.515716 121.934189 L 367.992392 123.779840 L 364.334120 125.397570 L 360.675848 127.015299 L 358.963520 127.772509" fill="none" id="52" stroke="black" stroke-width="0.63016" /><path d="M 398.002580 98.811569 L 395.290495 101.751738 L 392.578409 104.691907 L 389.861249 107.626952 L 386.895345 110.310870 L 383.929441 112.994788 L 380.963537 115.678705 L 377.997633 118.362623 L 375.031729 121.046540 L 371.698322 123.256814 L 368.361760 125.463023 L 365.025199 127.669232 L 361.688637 129.875441 L 359.221330 131.506879" fill="none" id="53" stroke="black" stroke-width="0.63016" /><path d="M 339.733050 137.596729 L 343.326587 135.839889 L 347.172729 134.797686 L 351.072076 133.906007 L 354.711100 132.271886 L 358.313468 130.533226 L 361.915837 128.794565 L 365.518206 127.055905 L 369.118872 125.314555 L 372.231515 122.802295 L 375.344158 120.290034 L 378.456801 117.777774 L 381.569444 115.265513 L 384.682088 112.753253 L 387.794731 110.240992 L 390.907374 107.728732 L 394.001305 105.195655 L 396.682270 102.514699" fill="none" id="54" stroke="black" stroke-width="0.63016" /><path d="M 523.662740 304.420949 L 521.134473 307.520605 L 518.606206 310.620261 L 516.077939 313.719917 L 513.549673 316.819573 L 511.021406 319.919229 L 508.355870 322.900813 L 505.669070 325.864105 L 502.982269 328.827398 L 500.191466 331.690695 L 497.335960 334.491781 L 494.480454 337.292867 L 491.624947 340.093953 L 488.769441 342.895039 L 485.913935 345.696125 L 483.058428 348.497212 L 480.202922 351.298298 L 477.347416 354.099384 L 474.491909 356.900470 L 471.636403 359.701556 L 468.739849 362.458949 L 465.766093 365.134164 L 462.792337 367.809379 L 459.818580 370.484593 L 456.844824 373.159808 L 453.871068 375.835023 L 450.897311 378.510237 L 450.861960 378.542039" fill="none" id="55" stroke="black" stroke-width="0.63016" /><path d="M 206.279920 95.366259 L 209.249604 98.045994 L 212.219288 100.725728 L 215.662853 102.739413 L 219.168071 104.666445 L 222.673289 106.593476 L 226.178506 108.520507 L 229.683724 110.447538 L 233.188941 112.374570 L 236.694159 114.301601 L 240.073666 116.434504 L 243.389097 118.672341 L 246.704529 120.910177 L 250.019961 123.148014 L 253.335393 125.385850 L 256.650824 127.623687 L 259.966256 129.861523 L 263.209055 132.197115 L 266.308523 134.725612 L 269.407992 137.254108 L 272.507460 139.782605 L 275.606929 142.311102 L 278.706397 144.839598 L 281.805866 147.368095 L 284.828765 149.986936 L 287.831198 152.629926 L 290.833631 155.272916 L 293.836064 157.915906 L 296.838497 160.558896 L 299.840930 163.201886 L 302.843363 165.844876 L 305.845796 168.487866 L 308.848229 171.130856 L 311.850662 173.773846 L 314.790983 176.484962 L 317.699388 179.231083 L 320.607793 181.977204 L 323.374947 184.864771 L 326.125082 187.769381 L 328.875216 190.673991 L 331.625351 193.578601 L 334.375485 196.483211 L 337.125620 199.387821 L 339.802780 202.354257 L 342.216093 205.544228 L 344.629407 208.734200 L 347.042720 211.924171 L 349.456034 215.114142 L 351.869348 218.304114 L 354.282661 221.494085 L 356.695975 224.684057 L 359.109288 227.874028 L 361.522602 231.063999 L 363.935916 234.253971 L 366.349229 237.443942 L 368.762543 240.633914 L 371.175856 243.823885 L 373.589170 247.013856 L 375.852575 250.310810 L 378.084638 253.630132 L 380.316701 256.949453 L 382.548764 260.268774 L 384.780827 263.588096 L 387.012890 266.907417 L 389.244953 270.226739 L 391.477016 273.546060 L 393.709079 276.865382 L 395.941142 280.184703 L 398.173205 283.504025 L 400.405268 286.823346 L 402.637331 290.142667 L 404.685995 293.578195 L 406.734174 297.014030 L 408.782354 300.449865 L 410.830533 303.885700 L 412.878712 307.321535 L 414.926891 310.757370 L 416.975071 314.193205 L 418.968453 317.658832 L 420.738465 321.245900 L 422.320059 324.919054 L 423.873110 328.605249 L 425.426160 332.291444 L 427.026205 335.956448 L 428.760623 339.560861 L 430.495042 343.165274 L 432.229460 346.769687 L 433.750759 350.468434 L 435.252730 354.175735 L 436.754701 357.883036 L 438.256672 361.590337 L 439.758644 365.297639 L 440.995966 369.098714 L 442.163267 372.924601 L 443.488414 376.692901 L 445.058985 380.371666 L 446.570818 384.072457 L 445.433514 384.597529 L 444.807270 384.112349" fill="none" id="57" stroke="black" stroke-width="0.63016" /><path d="M 13.170550 309.573289 L 13.461974 309.142420 L 13.490019 305.142518 L 13.518063 301.142617 L 13.546108 297.142715 L 13.898634 293.162908 L 14.364322 289.190108 L 14.830010 285.217309 L 15.295699 281.244510 L 15.761387 277.271710 L 16.227075 273.298911 L 16.994998 269.374236 L 17.957643 265.493477 L 18.992342 261.629620 L 20.027042 257.765762 L 21.061742 253.901904 L 22.096441 250.038047 L 23.131141 246.174189 L 24.165841 242.310331 L 25.206217 238.448253 L 26.562397 234.685172 L 28.204980 231.040242 L 29.896523 227.415511 L 31.588066 223.790779 L 33.279609 220.166047 L 34.971152 216.541315 L 36.743026 212.956810 L 38.700084 209.469569 L 40.758283 206.039727 L 42.816482 202.609885 L 44.874681 199.180042 L 46.932880 195.750200 L 48.999803 192.325922 L 51.241483 189.013087 L 53.483163 185.700253 L 55.724842 182.387418 L 57.966522 179.074584 L 60.208202 175.761749 L 62.449881 172.448915 L 64.957187 169.342501 L 67.613794 166.352109 L 70.270400 163.361717 L 72.927006 160.371325 L 75.583613 157.380934 L 78.240219 154.390542 L 80.896825 151.400150 L 83.553432 148.409758 L 86.476685 145.681437 L 89.420635 142.973456 L 92.364584 140.265474 L 95.518243 137.810415 L 98.724589 135.418900 L 101.930935 133.027385 L 105.137281 130.635870 L 108.343627 128.244355 L 111.618003 125.952961 L 115.022273 123.852735 L 118.426542 121.752509 L 121.892256 119.757086 L 125.387590 117.812186 L 128.882925 115.867285 L 132.378259 113.922385 L 136.118430 112.530414 L 139.907840 111.249647 L 143.620589 109.777461 L 147.246492 108.088429 L 150.872395 106.399397 L 154.734764 105.471183 L 158.679284 104.807281 L 162.623803 104.143379 L 166.568323 103.479478 L 170.512842 102.815576 L 174.457765 102.154396 L 178.425613 101.648253 L 182.393461 101.142110 L 186.326094 100.426864 L 190.240858 99.605510 L 194.195250 99.147128 L 198.195022 99.104414 L 202.177749 99.454874 L 206.118824 100.102363 L 209.834185 101.515409 L 213.592478 102.820548 L 217.481064 103.758042 L 221.425495 104.225629 L 225.425495 104.225629 L 229.384973 104.621123 L 233.037553 106.138930 L 236.525327 108.097356 L 239.960626 110.121984 L 242.068408 113.458353 L 243.673803 117.122054 L 245.279199 120.785755 L 245.545550 121.393599" fill="none" id="58" stroke="black" stroke-width="0.63016" /><path d="M 331.873670 5.237349 L 335.211613 7.103880 L 339.179614 7.572644 L 343.158636 7.981770 L 347.137658 8.390897 L 351.099900 8.910254 L 355.020427 9.703643 L 358.940955 10.497032 L 362.861482 11.290421 L 366.203481 13.394435 L 369.431558 15.756536 L 372.659636 18.118636 L 375.887713 20.480736 L 378.894584 23.110798 L 381.825413 25.832974 L 384.756242 28.555150 L 387.687070 31.277326 L 390.617899 33.999502 L 393.610108 36.652463 L 396.663154 39.236822 L 399.716199 41.821182 L 402.769244 44.405541 L 405.822290 46.989901 L 408.875335 49.574260 L 411.928381 52.158619 L 414.981426 54.742979 L 418.034472 57.327338 L 421.087517 59.911698 L 424.140563 62.496057 L 427.118560 65.159277 L 429.850911 68.080622 L 432.583263 71.001967 L 435.315614 73.923311 L 438.047966 76.844656 L 440.753241 79.789611 L 443.275392 82.894245 L 445.779143 86.013189 L 448.167072 89.222207 L 450.555000 92.431225 L 452.942929 95.640243 L 455.330858 98.849261 L 457.718787 102.058279 L 459.964381 105.363723 L 462.059008 108.771440 L 464.153635 112.179157 L 466.248263 115.586874 L 468.342890 118.994591 L 470.437517 122.402308 L 472.352389 125.911231 L 474.179691 129.469456 L 476.006993 133.027682 L 477.834294 136.585907 L 479.661596 140.144132 L 481.488898 143.702358 L 483.316200 147.260583 L 485.002449 150.885722 L 486.602285 154.551854 L 488.202120 158.217987 L 489.801955 161.884119 L 491.401791 165.550252 L 493.001626 169.216384 L 494.601461 172.882516 L 496.149747 176.569699 L 497.573457 180.307754 L 498.997167 184.045808 L 500.420876 187.783863 L 501.844586 191.521917 L 503.268295 195.259971 L 504.517517 199.059436 L 505.618795 202.904070 L 506.677922 206.761304 L 507.737049 210.618537 L 508.796176 214.475771 L 509.855302 218.333004 L 510.914429 222.190238 L 511.973556 226.047472 L 512.875250 229.942342 L 513.675213 233.861533 L 514.475176 237.780724 L 515.275139 241.699916 L 516.075102 245.619107 L 516.875065 249.538298 L 517.675028 253.457489 L 518.474991 257.376680 L 519.274954 261.295871 L 520.074917 265.215062 L 520.874880 269.134254 L 521.674843 273.053445 L 522.526185 276.960409 L 523.577327 280.819826 L 524.628469 284.679243 L 525.679612 288.538660 L 526.730754 292.398077 L 527.781896 296.257494 L 528.784656 300.128685 L 529.624443 304.039537 L 530.464230 307.950388 L 531.304016 311.861239 L 532.143803 315.772091 L 533.169117 319.635168 L 534.224370 323.278561 L 531.995759 319.973617 L 530.522110 317.338909" fill="none" id="59" stroke="black" stroke-width="0.63016" /><path d="M 259.330710 49.495159 L 262.045387 46.887431 L 264.452435 43.692729 L 267.408826 41.052321 L 270.624993 38.674030 L 274.012601 36.663484 L 277.901965 35.729221 L 281.806004 34.886217 L 285.800489 34.924820 L 289.797544 35.078269 L 293.686807 35.888618 L 297.498881 37.100267 L 301.310954 38.311917 L 305.123028 39.523566 L 308.894210 40.844738 L 312.567592 42.427858 L 316.170972 44.157490 L 319.710563 46.020631 L 323.319951 47.734201 L 327.021553 49.250164 L 330.317149 51.487771 L 333.514048 53.886727 L 335.936977 57.063759 L 338.258482 60.321153 L 340.431636 63.677785 L 342.556262 67.066880 L 344.680888 70.455975 L 346.324623 74.092416 L 346.369770 74.202199" fill="none" id="60" stroke="black" stroke-width="0.63016" /><path d="M 407.924460 155.858449 L 408.689493 155.137941 L 411.084535 158.329127 L 413.349364 161.626178 L 415.614193 164.923230 L 417.879022 168.220282 L 420.143851 171.517333 L 422.408680 174.814385 L 424.673509 178.111437 L 426.938338 181.408488 L 428.892071 184.892510 L 430.740673 188.439716 L 432.589276 191.986922 L 434.437878 195.534128 L 436.284426 199.082310 L 437.868770 202.755164 L 439.453113 206.428018 L 441.037457 210.100872 L 442.621801 213.773726 L 444.206144 217.446579 L 445.790488 221.119433 L 447.374832 224.792287 L 448.959175 228.465141 L 450.543519 232.137995 L 452.127863 235.810849 L 453.712206 239.483702 L 455.296550 243.156556 L 456.880894 246.829410 L 458.465237 250.502264 L 460.049581 254.175118 L 461.633925 257.847971 L 463.218268 261.520825 L 464.802612 265.193679 L 466.372282 268.872788 L 467.925203 272.559038 L 469.478124 276.245288 L 471.031045 279.931537 L 472.583966 283.617787 L 474.136886 287.304037 L 475.689807 290.990286 L 477.242728 294.676536 L 478.795649 298.362786 L 480.348570 302.049036 L 481.901491 305.735285 L 483.454412 309.421535 L 485.007333 313.107785 L 486.560253 316.794034 L 488.113174 320.480284 L 489.666095 324.166534 L 491.219016 327.852783 L 492.771937 331.539033 L 494.324858 335.225283 L 495.877779 338.911532 L 497.418927 342.602344 L 498.755164 346.372552 L 500.091401 350.142760 L 500.760390 352.030319" fill="none" id="61" stroke="black" stroke-width="0.63016" /><path d="M 342.858050 67.178759 L 342.710981 71.160065 L 342.953766 75.152691 L 343.196551 79.145316 L 344.688356 82.742437 L 346.787936 86.147105 L 348.887515 89.551773 L 350.987095 92.956441 L 353.086675 96.361109 L 355.186254 99.765777 L 357.550271 102.988387 L 359.981539 106.164695 L 362.412808 109.341003 L 364.844077 112.517311 L 367.275345 115.693619 L 369.706614 118.869927 L 372.209395 121.983869 L 375.025564 124.824500 L 377.841734 127.665132 L 380.657904 130.505764 L 383.679924 133.087921 L 387.326674 134.684618 L 391.089580 136.041282 L 394.852486 137.397947 L 398.592029 138.808688 L 401.705646 141.218765 L 404.420870 144.156035 L 407.136094 147.093306 L 408.248670 149.514699" fill="none" id="62" stroke="black" stroke-width="0.63016" /><path d="M 335.674460 129.866259 L 336.641906 131.641986 L 340.641886 131.654584 L 344.639917 131.653857 L 348.468629 130.495860 L 352.297342 129.337862 L 356.126055 128.179865 L 359.954768 127.021868 L 363.783481 125.863871 L 367.612194 124.705874 L 371.306976 123.208177 L 374.895796 121.441719 L 378.484615 119.675261 L 382.073435 117.908803 L 385.662255 116.142346 L 389.251074 114.375888 L 392.839894 112.609430 L 396.392432 110.785327 L 399.537343 108.313580 L 402.589945 105.731412 L 405.519736 103.015948 L 408.085754 99.947471 L 410.651772 96.878994 L 413.217790 93.810517 L 415.783808 90.742040 L 418.349826 87.673563 L 420.455710 85.155319" fill="none" id="63" stroke="black" stroke-width="0.63016" /><path d="M 330.842420 132.217819 L 333.264400 135.322136 L 336.362689 137.852077 L 339.460979 140.382018 L 342.639978 142.793240 L 346.132183 144.743753 L 349.624389 146.694267 L 353.109887 148.655528 L 356.396664 150.935243 L 359.937157 152.750048 L 363.666485 154.186102 L 367.542408 155.057078 L 371.502875 155.421836 L 375.347491 156.525886 L 379.192107 157.629935 L 383.093720 158.492470 L 387.026297 159.223792 L 391.002826 159.395778 L 395.001365 159.287660 L 398.948831 158.778399 L 402.879415 158.161112 L 406.313599 156.159796 L 409.636077 153.954153 L 412.102397 150.804984 L 414.453827 147.584061 L 416.201440 143.986027 L 417.888998 140.360850 L 419.435049 136.671713 L 420.981100 132.982577 L 422.775584 129.452186 L 423.636396 125.551354 L 423.930580 121.566947 L 424.044037 117.568556 L 424.157493 113.570166 L 424.202518 109.571287 L 424.146120 105.571685 L 423.341997 101.690608 L 421.767564 98.013495 L 420.078822 94.389368 L 418.290316 90.811485 L 416.501811 87.233602 L 414.713305 83.655718 L 413.014300 80.256879" fill="none" id="64" stroke="black" stroke-width="0.63016" /><path d="M 341.440080 142.749069 L 338.007658 141.504559 L 335.188482 138.666911 L 332.732667 135.543864 L 330.643727 132.132658 L 328.724210 128.645140 L 327.553829 124.820194 L 326.303028 121.024520 L 324.740831 117.342193 L 323.971730 113.453666 L 323.542592 109.476753 L 323.113453 105.499840 L 322.841901 101.513837 L 322.810973 97.513957 L 322.780044 93.514077 L 323.042945 89.558207 L 324.244452 85.742924 L 325.556828 81.969780 L 327.562171 78.527284 L 329.830415 75.232581 L 332.731717 72.491474 L 335.814038 69.942103 L 339.076041 67.635515 L 342.772777 66.130180 L 346.546576 64.809270 L 350.429513 63.848644 L 354.363569 63.256654 L 358.294787 62.686966 L 362.265985 62.440094 L 366.261972 62.523123 L 370.219946 62.948437 L 373.953109 64.384923 L 377.496976 66.203023 L 381.156462 67.783916 L 384.917615 69.114658 L 388.705530 70.360035 L 392.578083 71.361703 L 396.161773 73.078161 L 399.688312 74.957671 L 403.351638 76.563922 L 407.170428 77.543244 L 410.837886 79.051614 L 413.724000 81.783857 L 414.787106 85.606703 L 415.268210 87.600629" fill="none" id="65" stroke="black" stroke-width="0.63016" /></svg>