<?xml version="1.0" encoding="utf-8" ?>
<svg baseProfile="full" height="574.70805" version="1.1" viewBox="0,0,536.70805,574.70805" width="536.70805" xmlns="http://www.w3.org/2000/svg" xmlns:ev="http://www.w3.org/2001/xml-events" xmlns:xlink="http://www.w3.org/1999/xlink"><defs><style type="text/css"><![CDATA[
	.background { fill: white; }
	.line { stroke: firebrick; stroke-width: .1mm; }
	.blacksquare { fill: indigo; }
	.whitesquare { fill: white; }
]]></style></defs><rect class="background" height="100%" width="100%" x="0" y="0" /><path d="M 189.338165 553.241025 L 193.752165 551.077025 L 198.093165 548.772025 L 202.364165 546.339025 L 206.456165 543.616025 L 210.399165 540.681025 L 214.266165 537.647025 L 218.122165 534.598025 L 221.977165 531.548025 L 225.832165 528.498025 L 229.687165 525.448025 L 233.542165 522.398025 L 237.397165 519.349025 L 241.252165 516.299025 L 245.107165 513.249025 L 248.962165 510.199025 L 252.817165 507.149025 L 256.672165 504.100025 L 260.527165 501.050025 L 264.382165 498.000025 L 268.240165 494.954025 L 272.103165 491.915025 L 275.970165 488.880025 L 279.837165 485.845025 L 283.704165 482.811025 L 287.571165 479.776025 L 291.438165 476.742025 L 295.305165 473.707025 L 299.172165 470.673025 L 303.039165 467.638025 L 306.907165 464.604025 L 310.774165 461.569025 L 314.641165 458.535025 L 318.508165 455.500025 L 322.375165 452.466025 L 326.242165 449.431025 L 330.109165 446.397025 L 333.976165 443.362025 L 337.843165 440.328025 L 341.710165 437.293025 L 345.577165 434.259025 L 349.445165 431.224025 L 353.312165 428.190025 L 357.180165 425.157025 L 361.055165 422.133025 L 364.940165 419.122025 L 368.826165 416.111025 L 372.711165 413.099025 L 376.596165 410.088025 L 380.482165 407.077025 L 384.367165 404.066025 L 388.252165 401.055025 L 392.138165 398.044025 L 396.023165 395.033025 L 399.909165 392.022025" fill="none" id="0" stroke="#c583d9" stroke-width="0.5" /><path d="M 171.237165 573.534025 L 174.536165 569.820025 L 177.968165 566.229025 L 181.650165 562.894025 L 185.512165 559.770025 L 189.339165 556.603025 L 193.166165 553.435025 L 196.993165 550.268025 L 200.820165 547.101025 L 204.647165 543.934025 L 208.474165 540.767025 L 212.310165 537.611025 L 216.153165 534.463025 L 219.996165 531.315025 L 223.839165 528.168025 L 227.683165 525.021025 L 231.526165 521.874025 L 235.370165 518.726025 L 239.213165 515.579025 L 243.056165 512.432025 L 246.900165 509.284025 L 250.743165 506.137025 L 254.586165 502.990025 L 258.430165 499.842025 L 262.273165 496.695025 L 266.116165 493.548025 L 269.960165 490.401025 L 273.803165 487.253025 L 277.646165 484.106025 L 281.490165 480.959025 L 285.358165 477.842025 L 289.276165 474.788025 L 293.220165 471.768025 L 297.167165 468.752025 L 301.114165 465.735025 L 305.061165 462.719025 L 309.008165 459.703025 L 312.955165 456.686025 L 316.902165 453.670025 L 320.849165 450.654025 L 324.796165 447.637025 L 328.742165 444.621025 L 332.689165 441.604025 L 336.636165 438.588025 L 340.583165 435.572025 L 344.530165 432.555025 L 348.477165 429.539025 L 352.424165 426.523025 L 356.371165 423.506025 L 360.318165 420.490025 L 364.265165 417.474025 L 368.212165 414.457025 L 372.159165 411.441025 L 376.106165 408.424025 L 380.053165 405.408025 L 384.000165 402.392025 L 387.947165 399.375025 L 391.894165 396.359025 L 395.840165 393.343025 L 399.794165 390.335025 L 403.783165 387.374025 L 407.824165 384.485025 L 411.866165 381.597025 L 415.907165 378.709025 L 419.951165 375.823025 L 424.006165 372.955025 L 428.079165 370.110025 L 432.153165 367.268025 L 436.228165 364.427025 L 440.303165 361.585025 L 444.377165 358.744025 L 448.452165 355.902025 L 452.527165 353.061025 L 456.601165 350.219025 L 460.676165 347.378025 L 464.751165 344.536025 L 468.825165 341.695025 L 472.900165 338.853025 L 476.975165 336.012025 L 481.049165 333.170025" fill="none" id="1" stroke="#c583d9" stroke-width="0.5" /><path d="M 0.705585 213.792025 L 3.881865 217.629025 L 7.028465 221.490025 L 10.115265 225.400025 L 13.155565 229.346025 L 16.205965 233.284025 L 19.259465 237.220025 L 22.351465 241.125025 L 25.504465 244.982025 L 28.675465 248.823025 L 31.871965 252.644025 L 35.124565 256.417025 L 38.402965 260.167025 L 41.684465 263.915025 L 44.966065 267.662025 L 48.247565 271.410025 L 51.529165 275.158025 L 54.810665 278.905025 L 58.092265 282.653025 L 61.394765 286.382025 L 64.777265 290.038025 L 68.223765 293.635025 L 71.685965 297.216025 L 75.148765 300.797025 L 78.611465 304.378025 L 82.074265 307.959025 L 85.537065 311.540025 L 88.999765 315.121025 L 92.462565 318.702025 L 95.925365 322.283025 L 99.388165 325.864025 L 102.851165 329.444025 L 106.313165 333.025025 L 109.776165 336.606025 L 113.239165 340.187025 L 116.702165 343.768025 L 120.165165 347.349025 L 123.627165 350.930025 L 127.090165 354.511025 L 130.553165 358.092025 L 134.016165 361.673025 L 137.478165 365.253025 L 140.941165 368.834025 L 144.404165 372.415025 L 147.867165 375.996025 L 151.329165 379.577025 L 154.792165 383.158025 L 158.255165 386.739025 L 161.718165 390.320025 L 165.181165 393.901025 L 168.643165 397.482025 L 172.106165 401.062025 L 175.569165 404.643025 L 179.032165 408.224025 L 182.494165 411.805025 L 185.957165 415.386025 L 189.420165 418.967025 L 192.883165 422.548025 L 196.345165 426.129025 L 199.808165 429.710025 L 203.251165 433.310025 L 206.555165 437.037025 L 209.773165 440.839025 L 212.981165 444.650025 L 216.189165 448.461025 L 219.397165 452.272025 L 222.605165 456.083025 L 225.812165 459.894025 L 229.020165 463.705025 L 232.228165 467.516025 L 235.436165 471.327025" fill="none" id="2" stroke="#f375a0" stroke-width="0.5" /><path d="M 9.373565 121.249025 L 10.937065 124.844025 L 12.448765 128.462025 L 13.962265 132.079025 L 15.261565 135.778025 L 16.513065 139.493025 L 17.762065 143.210025 L 19.010965 146.926025 L 20.259865 150.643025 L 21.508765 154.359025 L 22.757665 158.076025 L 24.006565 161.792025 L 25.255465 165.509025 L 26.501265 169.227025 L 27.722465 172.952025 L 28.892965 176.694025 L 30.037965 180.444025 L 31.204665 184.187025 L 32.404565 187.920025 L 33.621265 191.647025 L 34.837965 195.374025 L 36.054565 199.101025 L 37.271265 202.829025 L 38.487865 206.556025 L 39.704565 210.283025 L 40.921265 214.010025 L 42.137865 217.738025 L 43.354565 221.465025 L 44.571265 225.192025 L 45.787865 228.919025 L 47.004565 232.646025 L 48.221265 236.374025" fill="none" id="3" stroke="#9de993" stroke-width="0.5" /><path d="M 82.107965 404.163025 L 80.316465 399.539025 L 78.636365 394.875025 L 77.114265 390.156025 L 75.707965 385.402025 L 74.313465 380.644025 L 72.919565 375.886025 L 71.525565 371.127025 L 70.131565 366.369025 L 68.737665 361.611025 L 67.343665 356.853025 L 65.949765 352.095025 L 64.555765 347.337025 L 63.161765 342.579025 L 61.767865 337.820025 L 60.373865 333.062025 L 58.979865 328.304025 L 57.597865 323.543025 L 56.291765 318.760025 L 55.118265 313.943025 L 54.010465 309.110025 L 52.911565 304.275025 L 51.812765 299.441025 L 50.713865 294.606025 L 49.615065 289.771025 L 48.516165 284.936025 L 47.417365 280.101025 L 46.318465 275.267025 L 45.219665 270.432025 L 44.120865 265.597025 L 43.021965 260.762025 L 41.923165 255.927025 L 40.824265 251.092025 L 39.725465 246.258025 L 38.626565 241.423025 L 37.527765 236.588025 L 36.428865 231.753025 L 35.330065 226.918025 L 34.231265 222.083025 L 33.132365 217.249025 L 32.033565 212.414025 L 30.934665 207.579025 L 29.835865 202.744025 L 28.736965 197.909025 L 27.638165 193.074025 L 26.539265 188.240025 L 25.440465 183.405025 L 24.341665 178.570025 L 23.242765 173.735025 L 22.143965 168.900025 L 21.045065 164.066025 L 19.946265 159.231025 L 18.847365 154.396025 L 17.748565 149.561025" fill="none" id="4" stroke="#ad5ba7" stroke-width="0.5" /><path d="M 190.112165 558.170025 L 189.332165 553.273025 L 188.420165 548.398025 L 187.237165 543.585025 L 185.502165 538.939025 L 183.868165 534.256025 L 182.207165 529.584025 L 180.462165 524.942025 L 178.685165 520.312025 L 176.846165 515.706025 L 175.000165 511.103025 L 173.153165 506.500025 L 171.307165 501.898025 L 169.461165 497.295025 L 167.615165 492.692025 L 165.768165 488.089025 L 163.922165 483.487025 L 162.076165 478.884025 L 160.229165 474.281025 L 158.383165 469.678025 L 156.537165 465.075025 L 154.691165 460.473025 L 152.844165 455.870025 L 150.998165 451.267025 L 149.152165 446.664025 L 147.305165 442.062025 L 145.459165 437.459025 L 143.613165 432.856025 L 141.766165 428.253025 L 139.913165 423.654025 L 138.034165 419.064025 L 136.142165 414.480025 L 134.248165 409.897025 L 132.354165 405.313025 L 130.466165 400.728025 L 128.591165 396.136025 L 126.725165 391.542025 L 124.860165 386.946025 L 122.995165 382.351025 L 121.130165 377.756025 L 119.265165 373.161025 L 117.400165 368.566025 L 115.535165 363.970025 L 113.670165 359.375025 L 111.805165 354.780025 L 109.940165 350.185025 L 108.075165 345.589025 L 106.210165 340.994025 L 104.345165 336.399025 L 102.480165 331.804025 L 100.615165 327.209025 L 98.750165 322.613025 L 96.885165 318.018025 L 95.019865 313.423025 L 93.154865 308.828025 L 91.289765 304.233025 L 89.424765 299.637025 L 87.559765 295.042025 L 85.694765 290.447025 L 83.829765 285.852025 L 81.964765 281.257025 L 80.099765 276.661025 L 78.234665 272.066025 L 76.369665 267.471025 L 74.504665 262.876025 L 72.639665 258.281025 L 70.774665 253.685025 L 68.909665 249.090025 L 67.044765 244.495025 L 65.189865 239.896025 L 63.409665 235.267025 L 61.778465 230.584025 L 60.215765 225.877025 L 58.652965 221.170025 L 57.090265 216.464025 L 55.527565 211.757025 L 53.964865 207.051025 L 52.402065 202.344025 L 50.839365 197.637025 L 49.276665 192.931025 L 47.713965 188.224025 L 46.151265 183.518025 L 44.588465 178.811025 L 43.025765 174.104025 L 41.463065 169.398025 L 39.900365 164.691025 L 38.337565 159.985025 L 36.774865 155.278025 L 35.212165 150.571025 L 33.649465 145.865025 L 32.086765 141.158025 L 30.523965 136.452025 L 28.961265 131.745025 L 27.398565 127.038025 L 25.835865 122.332025 L 24.273065 117.625025 L 22.710365 112.919025 L 21.147665 108.212025 L 19.584965 103.505025 L 18.022265 98.798925 L 16.459465 94.092325" fill="none" id="5" stroke="#58f2c3" stroke-width="0.5" /><path d="M 28.435865 337.535025 L 30.985265 341.762025 L 33.629665 345.930025 L 36.365465 350.038025 L 39.288765 354.015025 L 42.252765 357.962025 L 45.219065 361.907025 L 48.185365 365.852025 L 51.151565 369.797025 L 54.117865 373.742025 L 57.084165 377.688025 L 60.050465 381.633025 L 63.016665 385.578025 L 65.982965 389.523025 L 68.949265 393.468025 L 71.915465 397.413025 L 74.881765 401.358025 L 77.848065 405.304025 L 80.814365 409.249025 L 83.780565 413.194025 L 86.746865 417.139025 L 89.746965 421.058025 L 92.859965 424.889025 L 96.043465 428.661025 L 99.237165 432.424025 L 102.430165 436.188025 L 105.622165 439.953025 L 108.798165 443.732025 L 111.955165 447.526025 L 115.108165 451.323025 L 118.261165 455.121025 L 121.414165 458.919025 L 124.567165 462.716025 L 127.720165 466.514025 L 130.872165 470.312025 L 134.025165 474.109025 L 137.178165 477.907025 L 140.331165 481.705025 L 143.484165 485.502025 L 146.637165 489.300025 L 149.790165 493.098025 L 152.943165 496.895025 L 156.095165 500.693025 L 159.248165 504.491025 L 162.401165 508.288025 L 165.554165 512.086025 L 168.707165 515.884025 L 171.860165 519.681025 L 175.013165 523.479025 L 178.165165 527.277025 L 181.318165 531.074025 L 184.471165 534.872025 L 187.624165 538.670025 L 190.777165 542.467025 L 193.930165 546.265025 L 197.083165 550.063025 L 200.236165 553.860025 L 203.388165 557.658025 L 206.541165 561.456025" fill="none" id="6" stroke="#c94e76" stroke-width="0.5" /><path d="M 50.955565 368.604025 L 53.830565 372.607025 L 56.705665 376.610025 L 59.580665 380.613025 L 62.455665 384.616025 L 65.330665 388.619025 L 68.205765 392.622025 L 71.067265 396.635025 L 73.909365 400.662025 L 76.746665 404.691025 L 79.583565 408.722025 L 82.420465 412.752025 L 85.257465 416.782025 L 88.094365 420.812025 L 90.931265 424.842025 L 93.768165 428.872025 L 96.605165 432.902025 L 99.442165 436.933025 L 102.279165 440.963025 L 105.116165 444.993025 L 107.953165 449.023025 L 110.790165 453.053025 L 113.626165 457.083025 L 116.463165 461.113025 L 119.300165 465.144025 L 122.137165 469.174025 L 124.974165 473.204025 L 127.811165 477.234025 L 130.648165 481.264025 L 133.485165 485.294025 L 136.319165 489.326025 L 139.094165 493.400025 L 141.751165 497.550025 L 144.385165 501.716025 L 147.019165 505.882025 L 149.652165 510.048025 L 152.286165 514.214025 L 154.920165 518.379025 L 157.553165 522.545025 L 160.187165 526.711025 L 162.821165 530.877025 L 165.454165 535.043025 L 168.088165 539.208025 L 170.722165 543.374025 L 173.355165 547.540025 L 175.989165 551.706025 L 178.623165 555.872025 L 181.256165 560.038025" fill="none" id="7" stroke="#57b870" stroke-width="0.5" /><path d="M 190.436165 558.264025 L 191.682165 553.426025 L 192.592165 548.513025 L 193.112165 543.547025 L 193.116165 538.550025 L 192.939165 533.556025 L 192.740165 528.562025 L 192.541165 523.569025 L 192.342165 518.575025 L 192.143165 513.582025 L 191.945165 508.588025 L 191.746165 503.595025 L 191.547165 498.601025 L 191.348165 493.608025 L 191.148165 488.614025 L 190.928165 483.622025 L 190.642165 478.633025 L 190.270165 473.649025 L 189.862165 468.668025 L 189.454165 463.688025 L 189.047165 458.707025 L 188.639165 453.726025 L 188.232165 448.745025 L 187.824165 443.764025 L 187.417165 438.783025 L 187.009165 433.803025 L 186.602165 428.822025 L 186.194165 423.841025 L 185.787165 418.860025 L 185.379165 413.879025 L 184.972165 408.898025 L 184.564165 403.918025 L 184.157165 398.937025 L 183.749165 393.956025 L 183.341165 388.975025 L 182.934165 383.994025 L 182.526165 379.013025 L 182.119165 374.033025 L 181.711165 369.052025 L 181.304165 364.071025 L 180.896165 359.090025 L 180.489165 354.109025 L 180.081165 349.128025 L 179.674165 344.148025 L 179.266165 339.167025 L 178.859165 334.186025 L 178.451165 329.205025 L 178.044165 324.224025 L 177.647165 319.243025 L 177.407165 314.251025 L 177.389165 309.254025 L 177.389165 304.257025 L 177.389165 299.259025 L 177.389165 294.262025 L 177.389165 289.264025" fill="none" id="8" stroke="#d271bb" stroke-width="0.5" /><path d="M 192.916165 554.334025 L 193.146165 549.392025 L 193.256165 544.445025 L 193.181165 539.498025 L 192.946165 534.556025 L 192.720165 529.613025 L 192.493165 524.670025 L 192.267165 519.728025 L 192.040165 514.785025 L 191.814165 509.842025 L 191.587165 504.899025 L 191.278165 499.961025 L 190.856165 495.031025 L 190.418165 490.103025 L 189.980165 485.174025 L 189.544165 480.246025 L 189.180165 475.311025 L 188.852165 470.374025 L 188.529165 465.437025 L 188.206165 460.500025 L 187.883165 455.562025 L 187.560165 450.625025 L 187.237165 445.688025 L 186.914165 440.750025 L 186.591165 435.813025 L 186.268165 430.876025 L 185.945165 425.938025 L 185.622165 421.001025 L 185.299165 416.064025 L 184.976165 411.126025 L 184.653165 406.189025 L 184.330165 401.252025 L 184.007165 396.314025 L 183.684165 391.377025 L 183.372165 386.439025 L 183.087165 381.499025 L 182.818165 376.559025 L 182.551165 371.618025 L 182.283165 366.677025 L 182.016165 361.737025 L 181.749165 356.796025 L 181.481165 351.855025 L 181.214165 346.915025 L 180.947165 341.974025 L 180.679165 337.033025 L 180.412165 332.093025 L 180.145165 327.152025 L 179.877165 322.211025 L 179.610165 317.271025 L 179.342165 312.330025 L 179.075165 307.389025 L 178.808165 302.449025 L 178.540165 297.508025 L 178.273165 292.567025 L 178.001165 287.627025 L 177.715165 282.687025 L 177.420165 277.748025 L 177.126165 272.809025 L 176.854165 267.869025 L 176.674165 262.924025 L 176.568165 257.977025 L 176.465165 253.030025 L 176.361165 248.084025 L 176.258165 243.137025 L 176.155165 238.190025 L 176.051165 233.243025 L 175.948165 228.296025 L 175.844165 223.349025 L 175.741165 218.403025 L 175.638165 213.456025 L 175.534165 208.509025 L 175.431165 203.562025 L 175.328165 198.615025 L 175.224165 193.669025 L 175.121165 188.722025 L 175.018165 183.775025 L 174.914165 178.828025 L 174.811165 173.881025" fill="none" id="9" stroke="#d271bb" stroke-width="0.5" /><path d="M 332.362165 457.088025 L 332.755165 452.111025 L 333.281165 447.147025 L 334.028165 442.211025 L 334.876165 437.291025 L 335.715165 432.370025 L 336.537165 427.445025 L 337.335165 422.517025 L 338.131165 417.589025 L 338.927165 412.660025 L 339.724165 407.732025 L 340.520165 402.803025 L 341.316165 397.875025 L 342.112165 392.946025 L 342.909165 388.018025 L 343.705165 383.089025 L 344.501165 378.161025 L 345.297165 373.232025 L 346.094165 368.304025 L 346.890165 363.375025 L 347.679165 358.446025 L 348.440165 353.512025 L 349.169165 348.573025 L 349.888165 343.632025 L 350.609165 338.692025 L 351.352165 333.756025 L 352.147165 328.827025 L 352.985165 323.905025 L 353.835165 318.986025 L 354.684165 314.066025 L 355.534165 309.147025 L 356.384165 304.227025 L 357.234165 299.308025 L 358.084165 294.388025 L 358.934165 289.469025 L 359.783165 284.549025 L 360.633165 279.630025 L 361.483165 274.710025 L 362.333165 269.790025 L 363.183165 264.871025 L 364.033165 259.951025 L 364.882165 255.032025 L 365.732165 250.112025 L 366.582165 245.193025 L 367.432165 240.273025 L 368.282165 235.354025 L 369.132165 230.434025 L 369.981165 225.515025 L 370.831165 220.595025 L 371.681165 215.676025 L 372.531165 210.756025 L 373.381165 205.836025 L 374.231165 200.917025 L 375.080165 195.997025 L 375.930165 191.078025 L 376.780165 186.158025 L 377.630165 181.239025 L 378.480165 176.319025 L 379.330165 171.400025 L 380.179165 166.480025 L 381.024165 161.560025 L 381.866165 156.639025 L 382.708165 151.718025 L 383.550165 146.797025 L 384.385165 141.875025 L 385.176165 136.946025 L 385.951165 132.014025 L 386.727165 127.082025 L 387.506165 122.151025" fill="none" id="10" stroke="#3d8e43" stroke-width="0.5" /><path d="M 38.072765 264.784025 L 41.688565 268.233025 L 45.281365 271.707025 L 48.863465 275.191025 L 52.350865 278.770025 L 55.646065 282.527025 L 58.923865 286.299025 L 62.201565 290.071025 L 65.496965 293.827025 L 68.886665 297.499025 L 72.304265 301.145025 L 75.724265 304.789025 L 79.144265 308.433025 L 82.564265 312.077025 L 85.984265 315.720025 L 89.404265 319.364025 L 92.824265 323.008025 L 96.244265 326.652025 L 99.664165 330.295025 L 103.084165 333.939025 L 106.504165 337.583025 L 109.924165 341.227025 L 113.344165 344.870025 L 116.764165 348.514025 L 120.184165 352.158025 L 123.604165 355.802025 L 127.024165 359.445025 L 130.444165 363.089025 L 133.865165 366.732025 L 137.293165 370.368025 L 140.733165 373.993025 L 144.177165 377.614025 L 147.634165 381.223025 L 151.129165 384.794025 L 154.651165 388.339025 L 158.179165 391.879025 L 161.707165 395.418025 L 165.235165 398.958025 L 168.762165 402.497025 L 172.290165 406.037025 L 175.818165 409.577025 L 179.346165 413.116025 L 182.873165 416.656025 L 186.401165 420.195025 L 189.929165 423.735025 L 193.446165 427.285025 L 196.941165 430.857025 L 200.420165 434.444025" fill="none" id="11" stroke="#00d4db" stroke-width="0.5" /><path d="M 66.420465 299.377025 L 68.032365 301.251025 L 69.648365 303.122025 L 71.267565 304.989025 L 72.888365 306.856025 L 74.526565 308.706025 L 76.178665 310.545025 L 77.848065 312.368025 L 79.525465 314.183025 L 81.204965 315.997025 L 82.885465 317.810025 L 84.565865 319.622025 L 86.246265 321.435025 L 87.926665 323.248025 L 89.607065 325.061025 L 91.287465 326.873025 L 92.967965 328.686025 L 94.648365 330.499025 L 96.328765 332.312025 L 98.009165 334.124025 L 99.689165 335.937025 L 101.370165 337.750025 L 103.050165 339.563025 L 104.729165 341.377025 L 106.405165 343.194025 L 108.075165 345.016025 L 109.744165 346.840025 L 111.411165 348.664025 L 113.078165 350.489025 L 114.746165 352.314025 L 116.412165 354.139025" fill="none" id="12" stroke="#d55969" stroke-width="0.5" /><path d="M 35.236865 253.573025 L 38.915465 256.887025 L 42.545565 260.255025 L 46.098065 263.705025 L 49.622265 267.183025 L 53.145665 270.662025 L 56.669165 274.142025 L 60.192565 277.621025 L 63.715965 281.100025 L 67.239465 284.579025 L 70.762865 288.059025 L 74.286265 291.538025 L 77.809765 295.017025 L 81.333165 298.496025 L 84.856565 301.976025 L 88.380065 305.455025 L 91.903465 308.934025 L 95.426865 312.413025 L 98.950165 315.893025 L 102.456165 319.390025 L 105.918165 322.929025 L 109.345165 326.504025 L 112.762165 330.088025 L 116.178165 333.673025 L 119.585165 337.266025 L 122.979165 340.872025 L 126.364165 344.485025 L 129.748165 348.100025 L 133.133165 351.715025 L 136.517165 355.330025 L 139.901165 358.944025 L 143.286165 362.559025 L 146.670165 366.174025 L 150.054165 369.789025 L 153.438165 373.403025 L 156.823165 377.018025 L 160.207165 380.633025 L 163.591165 384.248025 L 166.975165 387.862025 L 170.360165 391.477025 L 173.744165 395.092025 L 177.128165 398.707025 L 180.513165 402.321025 L 183.897165 405.936025" fill="none" id="13" stroke="#64e4ff" stroke-width="0.5" /><path d="M 191.725165 426.358025 L 194.847165 422.474025 L 198.269165 418.855025 L 202.012165 415.570025 L 205.973165 412.545025 L 209.935165 409.520025 L 213.909165 406.510025 L 217.929165 403.563025 L 221.994165 400.679025 L 226.060165 397.795025 L 230.114165 394.895025 L 234.166165 391.991025 L 238.217165 389.087025 L 242.268165 386.182025 L 246.319165 383.278025 L 250.370165 380.374025 L 254.422165 377.469025 L 258.473165 374.565025 L 262.524165 371.660025 L 266.575165 368.756025 L 270.626165 365.852025 L 274.678165 362.947025 L 278.729165 360.043025 L 282.780165 357.139025 L 286.832165 354.235025 L 290.889165 351.339025 L 294.963165 348.467025 L 299.048165 345.611025 L 303.136165 342.759025 L 307.224165 339.906025 L 311.312165 337.054025 L 315.400165 334.202025 L 319.488165 331.349025 L 323.576165 328.497025 L 327.664165 325.645025 L 331.752165 322.793025 L 335.840165 319.940025 L 339.928165 317.088025 L 344.016165 314.236025 L 348.105165 311.383025 L 352.193165 308.531025 L 356.281165 305.679025 L 360.369165 302.826025 L 364.459165 299.977025 L 368.572165 297.162025 L 372.714165 294.389025 L 376.877165 291.647025" fill="none" id="14" stroke="#e68e54" stroke-width="0.5" /><path d="M 173.780165 439.983025 L 177.776165 437.081025 L 181.769165 434.173025 L 185.754165 431.255025 L 189.770165 428.380025 L 193.780165 425.496025 L 197.791165 422.613025 L 201.801165 419.730025 L 205.812165 416.847025 L 209.813165 413.951025 L 213.748165 410.966025 L 217.628165 407.909025 L 221.501165 404.844025 L 225.374165 401.778025 L 229.246165 398.713025 L 233.119165 395.648025 L 236.992165 392.582025 L 240.865165 389.517025 L 244.738165 386.451025 L 248.611165 383.386025 L 252.484165 380.321025 L 256.357165 377.255025 L 260.230165 374.190025 L 264.103165 371.124025 L 267.975165 368.059025 L 271.848165 364.994025 L 275.721165 361.928025 L 279.594165 358.863025 L 283.467165 355.797025 L 287.369165 352.770025 L 291.342165 349.835025 L 295.345165 346.941025 L 299.347165 344.047025 L 303.350165 341.153025 L 307.353165 338.259025 L 311.355165 335.365025 L 315.358165 332.471025 L 319.361165 329.577025 L 323.363165 326.683025 L 327.366165 323.789025 L 331.369165 320.895025 L 335.371165 318.001025 L 339.374165 315.108025 L 343.377165 312.214025 L 347.379165 309.320025 L 351.382165 306.426025 L 355.384165 303.532025 L 359.387165 300.638025 L 363.390165 297.744025 L 367.392165 294.850025 L 371.395165 291.956025 L 375.398165 289.062025 L 379.400165 286.168025 L 383.403165 283.274025 L 387.406165 280.380025 L 391.408165 277.486025 L 395.411165 274.593025 L 399.414165 271.699025 L 403.416165 268.805025 L 407.419165 265.911025 L 411.427165 263.025025 L 415.472165 260.190025 L 419.575165 257.441025 L 423.679165 254.692025 L 427.782165 251.943025 L 431.887165 249.195025 L 436.001165 246.462025 L 440.145165 243.775025 L 444.307165 241.115025 L 448.469165 238.454025 L 452.630165 235.794025 L 456.792165 233.134025 L 460.953165 230.473025 L 465.115165 227.813025 L 469.276165 225.153025 L 473.438165 222.492025 L 477.599165 219.832025 L 481.761165 217.171025 L 485.923165 214.511025 L 490.084165 211.851025 L 494.246165 209.190025 L 498.407165 206.530025 L 502.569165 203.870025" fill="none" id="15" stroke="#e68e54" stroke-width="0.5" /><path d="M 191.983165 413.022025 L 194.644165 408.858025 L 197.305165 404.694025 L 199.966165 400.531025 L 202.627165 396.367025 L 205.288165 392.203025 L 207.949165 388.040025 L 210.610165 383.876025 L 213.271165 379.712025 L 215.932165 375.548025 L 218.593165 371.385025 L 221.255165 367.221025 L 223.916165 363.057025 L 226.577165 358.893025 L 229.238165 354.730025 L 231.899165 350.566025 L 234.560165 346.402025 L 237.234165 342.247025 L 239.957165 338.123025 L 242.694165 334.009025 L 245.432165 329.896025 L 248.171165 325.782025 L 250.909165 321.669025 L 253.647165 317.555025 L 256.385165 313.442025 L 259.124165 309.329025 L 261.862165 305.215025 L 264.600165 301.102025 L 267.338165 296.988025 L 270.076165 292.875025 L 272.815165 288.762025 L 275.553165 284.648025 L 278.291165 280.535025 L 281.029165 276.421025 L 283.767165 272.308025 L 286.506165 268.194025 L 289.244165 264.081025 L 291.982165 259.968025 L 294.731165 255.862025 L 297.506165 251.773025 L 300.298165 247.695025 L 303.090165 243.619025 L 305.883165 239.542025 L 308.676165 235.465025 L 311.468165 231.389025 L 314.261165 227.312025 L 317.054165 223.235025 L 319.847165 219.159025 L 322.647165 215.087025 L 325.455165 211.021025 L 328.264165 206.956025 L 331.074165 202.891025 L 333.883165 198.826025 L 336.692165 194.761025 L 339.502165 190.696025 L 342.311165 186.631025 L 345.121165 182.566025 L 347.930165 178.500025 L 350.739165 174.435025 L 353.549165 170.370025 L 356.358165 166.305025 L 359.168165 162.240025 L 361.977165 158.175025 L 364.786165 154.110025 L 367.596165 150.044025 L 370.405165 145.979025 L 373.215165 141.914025 L 376.024165 137.849025 L 378.833165 133.784025 L 381.643165 129.719025 L 384.452165 125.654025 L 387.262165 121.588025 L 390.071165 117.523025 L 392.880165 113.458025 L 395.690165 109.393025" fill="none" id="16" stroke="#54aeff" stroke-width="0.5" /><path d="M 190.565165 564.194025 L 192.977165 559.859025 L 195.326165 555.491025 L 197.544165 551.055025 L 199.701165 546.588025 L 201.865165 542.124025 L 203.993165 537.644025 L 205.999165 533.107025 L 207.951165 528.548025 L 209.895165 523.984025 L 211.838165 519.420025 L 213.781165 514.856025 L 215.724165 510.293025 L 217.667165 505.729025 L 219.611165 501.165025 L 221.554165 496.601025 L 223.497165 492.038025 L 225.439165 487.473025 L 227.365165 482.902025 L 229.272165 478.323025 L 231.175165 473.743025 L 233.078165 469.162025 L 234.981165 464.581025 L 236.884165 460.000025 L 238.787165 455.420025 L 240.690165 450.839025 L 242.593165 446.258025 L 244.496165 441.678025 L 246.399165 437.097025 L 248.302165 432.516025 L 250.205165 427.935025 L 252.108165 423.355025 L 254.010165 418.774025 L 255.911165 414.192025 L 257.799165 409.605025 L 259.679165 405.015025 L 261.556165 400.424025 L 263.452165 395.840025 L 265.402165 391.279025 L 267.383165 386.732025 L 269.369165 382.187025 L 271.355165 377.641025 L 273.342165 373.096025 L 275.328165 368.551025 L 277.315165 364.006025 L 279.302165 359.461025 L 281.288165 354.916025 L 283.275165 350.371025 L 285.261165 345.826025 L 287.248165 341.281025 L 289.234165 336.736025 L 291.221165 332.191025 L 293.207165 327.645025 L 295.194165 323.100025 L 297.180165 318.555025 L 299.167165 314.010025 L 301.153165 309.465025 L 303.140165 304.920025 L 305.126165 300.375025 L 307.113165 295.830025 L 309.099165 291.285025 L 311.088165 286.740025 L 313.091165 282.203025 L 315.136165 277.684025 L 317.227165 273.186025 L 319.331165 268.694025 L 321.436165 264.203025 L 323.558165 259.719025 L 325.715165 255.252025 L 327.888165 250.793025 L 330.061165 246.334025 L 332.235165 241.876025 L 334.408165 237.417025 L 336.581165 232.958025 L 338.755165 228.500025 L 340.928165 224.041025 L 343.102165 219.582025 L 345.275165 215.123025 L 347.449165 210.665025 L 349.622165 206.206025 L 351.795165 201.747025 L 353.969165 197.288025 L 356.142165 192.830025 L 358.316165 188.371025 L 360.489165 183.912025 L 362.663165 179.453025 L 364.836165 174.995025 L 367.009165 170.536025 L 369.185165 166.078025 L 371.375165 161.628025 L 373.599165 157.194025 L 375.850165 152.774025 L 378.103165 148.355025 L 380.366165 143.941025 L 382.655165 139.540025 L 384.970165 135.153025 L 387.285165 130.766025 L 389.599165 126.379025 L 391.914165 121.992025 L 394.229165 117.605025 L 396.544165 113.218025 L 398.859165 108.831025 L 401.173165 104.444025 L 403.488165 100.057425 L 405.803165 95.670425" fill="none" id="17" stroke="#eed973" stroke-width="0.5" /><path d="M 153.553165 268.100025 L 157.952165 265.775025 L 162.326165 263.401025 L 166.647165 260.936025 L 170.896165 258.346025 L 175.159165 255.780025 L 179.422165 253.214025 L 183.686165 250.648025 L 187.948165 248.081025 L 192.204165 245.503025 L 196.419165 242.858025 L 200.593165 240.150025 L 204.763165 237.435025 L 208.933165 234.720025 L 213.103165 232.005025 L 217.273165 229.290025 L 221.443165 226.576025 L 225.613165 223.861025 L 229.783165 221.146025 L 233.953165 218.431025 L 238.123165 215.716025 L 242.293165 213.001025 L 246.463165 210.286025 L 250.633165 207.571025 L 254.803165 204.856025 L 258.973165 202.141025 L 263.143165 199.426025 L 267.313165 196.711025 L 271.483165 193.997025 L 275.653165 191.282025 L 279.823165 188.567025 L 283.993165 185.852025 L 288.163165 183.137025 L 292.333165 180.422025 L 296.503165 177.708025 L 300.676165 174.998025 L 304.851165 172.291025 L 309.027165 169.586025 L 313.203165 166.880025 L 317.379165 164.174025 L 321.555165 161.469025 L 325.731165 158.763025 L 329.907165 156.058025 L 334.083165 153.352025 L 338.259165 150.646025 L 342.435165 147.941025 L 346.611165 145.235025 L 350.787165 142.529025 L 354.963165 139.824025 L 359.139165 137.118025 L 363.315165 134.413025 L 367.491165 131.707025 L 371.667165 129.001025 L 375.843165 126.296025 L 380.019165 123.590025 L 384.195165 120.884025 L 388.371165 118.179025 L 392.547165 115.473025 L 396.723165 112.768025 L 400.899165 110.062025 L 405.076165 107.357025 L 409.258165 104.662025 L 413.453165 101.985025 L 417.653165 99.317525 L 421.854165 96.650125 L 426.054165 93.982925 L 430.257165 91.318825 L 434.466165 88.665325 L 438.682165 86.022225 L 442.900165 83.381625 L 447.117165 80.741025 L 451.334165 78.100325 L 455.552165 75.459725 L 459.769165 72.819025 L 463.986165 70.178425 L 468.204165 67.537825 L 472.421165 64.897125 L 476.639165 62.256525 L 480.856165 59.615925 L 485.073165 56.975225 L 489.291165 54.334625 L 493.508165 51.694025 L 497.726165 49.053325 L 501.943165 46.412725 L 506.160165 43.772025 L 510.378165 41.131425 L 514.595165 38.490825 L 518.812165 35.850125 L 523.030165 33.209525 L 527.247165 30.568925 L 531.465165 27.928225 L 535.682165 25.287625" fill="none" id="18" stroke="#008bd4" stroke-width="0.5" /><path d="M 159.510165 246.069025 L 164.269165 247.393025 L 169.006165 248.793025 L 173.714165 250.288025 L 178.386165 251.891025 L 183.076165 253.440025 L 187.814165 254.837025 L 192.556165 256.219025 L 197.298165 257.601025 L 202.041165 258.982025 L 206.783165 260.364025 L 211.525165 261.745025 L 216.268165 263.127025 L 221.010165 264.508025 L 225.752165 265.890025 L 230.487165 267.296025 L 235.201165 268.773025 L 239.901165 270.292025 L 244.599165 271.818025 L 249.297165 273.344025 L 253.994165 274.871025 L 258.692165 276.397025 L 263.390165 277.923025 L 268.088165 279.450025 L 272.785165 280.976025 L 277.483165 282.502025 L 282.181165 284.028025 L 286.879165 285.555025 L 291.576165 287.081025 L 296.275165 288.605025 L 300.986165 290.090025 L 305.725165 291.482025 L 310.482165 292.814025 L 315.238165 294.146025 L 319.995165 295.477025 L 324.751165 296.809025 L 329.508165 298.140025 L 334.265165 299.472025 L 339.021165 300.803025 L 343.778165 302.135025 L 348.535165 303.467025 L 353.291165 304.798025 L 358.048165 306.130025 L 362.804165 307.461025 L 367.561165 308.793025 L 372.318165 310.124025 L 377.074165 311.458025 L 381.823165 312.814025 L 386.567165 314.190025 L 391.307165 315.581025" fill="none" id="19" stroke="#fdb968" stroke-width="0.5" /><path d="M 6.764165 117.413025 L 10.717865 120.457025 L 14.671565 123.502025 L 18.625265 126.546025 L 22.578965 129.591025 L 26.532665 132.636025 L 30.486265 135.680025 L 34.439965 138.725025 L 38.393665 141.770025 L 42.347365 144.814025 L 46.303065 147.856025 L 50.268365 150.886025 L 54.241265 153.905025 L 58.215565 156.923025 L 62.189965 159.940025 L 66.164265 162.958025 L 70.138565 165.976025 L 74.112965 168.993025 L 78.087265 172.011025 L 82.061565 175.028025 L 86.035865 178.046025 L 90.010265 181.064025 L 93.984565 184.081025 L 97.959165 187.099025 L 101.933165 190.117025 L 105.907165 193.134025 L 109.882165 196.152025 L 113.856165 199.169025 L 117.830165 202.187025 L 121.805165 205.205025 L 125.779165 208.222025 L 129.753165 211.240025 L 133.728165 214.258025 L 137.702165 217.275025 L 141.676165 220.293025 L 145.651165 223.310025 L 149.625165 226.328025 L 153.599165 229.346025 L 157.574165 232.363025 L 161.548165 235.381025 L 165.522165 238.399025 L 169.497165 241.416025 L 173.471165 244.434025 L 177.445165 247.451025 L 181.420165 250.469025 L 185.394165 253.487025 L 189.368165 256.504025 L 193.343165 259.522025 L 197.317165 262.539025 L 201.291165 265.557025" fill="none" id="20" stroke="#6f73bc" stroke-width="0.5" /><path d="M 0.354025 125.272025 L 4.392395 122.447025 L 8.747865 120.170025 L 13.388265 118.501025 L 17.990765 116.730025 L 22.591765 114.954025 L 27.180965 113.149025 L 31.746265 111.284025 L 36.301765 109.395025 L 40.857165 107.506025 L 45.412665 105.617025 L 49.968065 103.728025 L 54.523465 101.839025 L 59.078965 99.949525 L 63.634365 98.060325 L 68.189865 96.171225 L 72.745265 94.282125 L 77.300665 92.393025 L 81.856165 90.503825 L 86.411565 88.614725 L 90.967065 86.725625 L 95.518765 84.827425 L 100.060165 82.905925 L 104.595165 80.966525 L 109.127165 79.022825 L 113.662165 77.084325 L 118.204165 75.163825 L 122.754165 73.260825 L 127.306165 71.363725 L 131.858165 69.467325 L 136.411165 67.570925 L 140.963165 65.674525 L 145.515165 63.778125 L 150.068165 61.881725 L 154.620165 59.985325 L 159.173165 58.088925 L 163.725165 56.192525 L 168.278165 54.296125 L 172.830165 52.399725 L 177.382165 50.503325 L 181.935165 48.606925 L 186.487165 46.710525 L 191.040165 44.814125 L 195.592165 42.917725 L 200.144165 41.021325 L 204.697165 39.124925 L 209.249165 37.228525 L 213.802165 35.332325 L 218.356165 33.441225 L 222.921165 31.575425 L 227.500165 29.743025 L 232.080165 27.914625 L 236.660165 26.086125 L 241.240165 24.257725 L 245.821165 22.429225 L 250.401165 20.600825 L 254.981165 18.772325 L 259.561165 16.943825" fill="none" id="21" stroke="#bee481" stroke-width="0.5" /><path d="M 205.123165 21.326725 L 209.993165 21.977625 L 214.764165 23.150225 L 219.219165 25.217225 L 223.566165 27.506725 L 227.909165 29.805225 L 232.251165 32.103625 L 236.593165 34.402125 L 240.936165 36.701025 L 245.262165 39.029325 L 249.586165 41.362925 L 253.894165 43.724125 L 258.199165 46.091625 L 262.505165 48.459025 L 266.810165 50.826525 L 271.115165 53.194025 L 275.420165 55.561425 L 279.725165 57.928925 L 284.030165 60.296325 L 288.335165 62.663825 L 292.641165 65.031325 L 296.946165 67.398725 L 301.251165 69.766225 L 305.556165 72.133625 L 309.861165 74.501125 L 314.166165 76.868625 L 318.472165 79.236025 L 322.777165 81.603525 L 327.082165 83.970925 L 331.387165 86.338425 L 335.692165 88.705925 L 339.997165 91.073325 L 344.303165 93.440825 L 348.608165 95.808225 L 352.913165 98.175725 L 357.218165 100.543025 L 361.523165 102.911025 L 365.828165 105.278025 L 370.131165 107.650025 L 374.422165 110.043025 L 378.698165 112.462025 L 382.972165 114.886025 L 387.246165 117.310025 L 391.520165 119.734025 L 395.793165 122.157025 L 400.067165 124.581025 L 404.341165 127.005025 L 408.614165 129.429025 L 412.888165 131.852025 L 417.162165 134.276025 L 421.436165 136.700025 L 425.709165 139.124025" fill="none" id="22" stroke="#8f6aaf" stroke-width="0.5" /><path d="M 155.741165 366.573025 L 159.716165 363.543025 L 163.731165 360.567025 L 167.788165 357.650025 L 171.914165 354.830025 L 176.057165 352.033025 L 180.200165 349.238025 L 184.343165 346.443025 L 188.486165 343.648025 L 192.629165 340.853025 L 196.772165 338.058025 L 200.916165 335.264025 L 205.066165 332.480025 L 209.239165 329.729025 L 213.423165 326.995025 L 217.608165 324.264025 L 221.793165 321.533025 L 225.979165 318.801025 L 230.164165 316.070025 L 234.350165 313.339025 L 238.535165 310.608025 L 242.721165 307.877025 L 246.906165 305.146025 L 251.092165 302.414025 L 255.277165 299.683025 L 259.463165 296.952025 L 263.654165 294.229025 L 267.867165 291.541025 L 272.109165 288.899025 L 276.362165 286.273025 L 280.614165 283.648025 L 284.867165 281.022025 L 289.119165 278.397025 L 293.373165 275.772025 L 297.633165 273.160025 L 301.907165 270.570025 L 306.187165 267.989025 L 310.467165 265.408025 L 314.747165 262.828025 L 319.027165 260.247025 L 323.307165 257.666025 L 327.587165 255.086025 L 331.867165 252.505025 L 336.147165 249.924025 L 340.427165 247.344025 L 344.707165 244.763025 L 348.987165 242.182025 L 353.266165 239.602025 L 357.546165 237.021025 L 361.826165 234.440025 L 366.106165 231.860025 L 370.386165 229.279025 L 374.666165 226.698025 L 378.946165 224.118025 L 383.226165 221.537025 L 387.506165 218.956025 L 391.785165 216.374025 L 396.053165 213.774025 L 400.314165 211.163025 L 404.575165 208.551025 L 408.836165 205.939025 L 413.097165 203.328025 L 417.358165 200.716025 L 421.619165 198.104025" fill="none" id="23" stroke="#8bb658" stroke-width="0.5" /><path d="M 277.858165 370.182025 L 277.595165 365.211025 L 277.335165 360.239025 L 277.071165 355.268025 L 276.832165 350.295025 L 276.593165 345.322025 L 276.356165 340.349025 L 276.145165 335.375025 L 275.992165 330.399025 L 275.916165 325.421025 L 275.886165 320.443025 L 275.863165 315.465025 L 275.839165 310.486025 L 275.815165 305.508025 L 275.792165 300.530025 L 275.768165 295.551025 L 275.744165 290.573025 L 275.721165 285.594025 L 275.697165 280.616025 L 275.673165 275.638025 L 275.664165 270.659025 L 275.714165 265.681025 L 275.834165 260.704025 L 275.982165 255.728025 L 276.164165 250.753025 L 276.413165 245.781025 L 276.696165 240.810025 L 276.981165 235.840025 L 277.265165 230.870025 L 277.550165 225.899025 L 277.835165 220.929025 L 278.120165 215.959025 L 278.404165 210.989025 L 278.689165 206.018025 L 278.974165 201.048025 L 279.259165 196.078025 L 279.543165 191.107025 L 279.828165 186.137025 L 280.113165 181.167025 L 280.398165 176.196025 L 280.683165 171.226025 L 280.967165 166.256025 L 281.252165 161.286025 L 281.537165 156.315025 L 281.822165 151.345025 L 282.106165 146.375025 L 282.391165 141.404025 L 282.685165 136.435025 L 283.037165 131.469025 L 283.434165 126.506025 L 283.836165 121.544025 L 284.238165 116.582025 L 284.640165 111.619025 L 285.042165 106.657025 L 285.444165 101.695025 L 285.846165 96.732925" fill="none" id="24" stroke="#bbabff" stroke-width="0.5" /><path d="M 180.932165 353.752025 L 183.377165 349.462025 L 185.878165 345.205025 L 188.467165 340.999025 L 191.108165 336.827025 L 193.750165 332.656025 L 196.393165 328.485025 L 199.036165 324.313025 L 201.678165 320.142025 L 204.321165 315.971025 L 206.964165 311.800025 L 209.603165 307.626025 L 212.186165 303.418025 L 214.746165 299.195025 L 217.304165 294.971025 L 219.862165 290.747025 L 222.420165 286.524025 L 224.978165 282.300025 L 227.535165 278.076025 L 230.093165 273.852025 L 232.651165 269.628025 L 235.209165 265.404025 L 237.767165 261.181025 L 240.325165 256.957025 L 242.883165 252.733025 L 245.441165 248.509025 L 247.998165 244.285025 L 250.556165 240.061025 L 253.114165 235.838025 L 255.672165 231.614025 L 258.230165 227.390025 L 260.788165 223.166025 L 263.346165 218.942025 L 265.904165 214.718025 L 268.461165 210.495025 L 271.019165 206.271025 L 273.577165 202.047025 L 276.135165 197.823025 L 278.693165 193.599025 L 281.251165 189.376025 L 283.809165 185.152025 L 286.367165 180.928025 L 288.929165 176.707025 L 291.532165 172.511025 L 294.214165 168.364025 L 296.897165 164.219025 L 299.581165 160.074025 L 302.264165 155.929025 L 304.948165 151.784025" fill="none" id="25" stroke="#658424" stroke-width="0.5" /><path d="M 191.948165 104.206025 L 196.129165 106.838025 L 200.300165 109.486025 L 204.456165 112.158025 L 208.601165 114.847025 L 212.745165 117.537025 L 216.889165 120.228025 L 221.033165 122.918025 L 225.177165 125.608025 L 229.321165 128.299025 L 233.465165 130.989025 L 237.609165 133.680025 L 241.749165 136.376025 L 245.839165 139.147025 L 249.877165 141.995025 L 253.900165 144.863025 L 257.923165 147.731025 L 261.939165 150.609025 L 265.937165 153.512025 L 269.926165 156.427025 L 273.915165 159.343025 L 277.903165 162.259025 L 281.881165 165.189025 L 285.843165 168.142025 L 289.798165 171.103025 L 293.752165 174.066025 L 297.706165 177.028025 L 301.640165 180.017025 L 305.533165 183.059025 L 309.403165 186.131025 L 313.273165 189.203025 L 317.143165 192.274025 L 321.013165 195.346025 L 324.883165 198.417025 L 328.753165 201.489025 L 332.623165 204.560025 L 336.493165 207.632025 L 340.363165 210.704025 L 344.232165 213.775025 L 348.102165 216.847025 L 351.972165 219.918025 L 355.842165 222.990025 L 359.712165 226.061025 L 363.582165 229.133025 L 367.452165 232.204025 L 371.322165 235.276025 L 375.192165 238.348025 L 379.062165 241.419025 L 382.932165 244.491025" fill="none" id="26" stroke="#f1b9ff" stroke-width="0.5" /><path d="M 171.205165 89.713425 L 173.966165 91.220125 L 176.725165 92.730325 L 179.483165 94.241825 L 182.237165 95.761425 L 184.979165 97.302325 L 187.705165 98.870325 L 190.424165 100.451025 L 193.142165 102.034025 L 195.829165 103.668025 L 198.469165 105.377025 L 201.071165 107.144025 L 203.652165 108.941025 L 206.227165 110.747025 L 208.802165 112.553025 L 211.377165 114.359025 L 213.952165 116.164025 L 216.528165 117.970025 L 219.103165 119.776025 L 221.678165 121.581025 L 224.253165 123.387025 L 226.828165 125.193025 L 229.403165 126.999025 L 231.978165 128.804025 L 234.554165 130.610025 L 237.129165 132.416025 L 239.701165 134.226025 L 242.240165 136.081025 L 244.692165 138.048025 L 247.017165 140.165025 L 249.252165 142.377025" fill="none" id="27" stroke="#f1b9ff" stroke-width="0.5" /><path d="M 97.502165 49.834525 L 101.334165 52.995125 L 105.165165 56.155725 L 108.996165 59.316325 L 112.827165 62.476925 L 116.660165 65.635425 L 120.516165 68.765825 L 124.413165 71.845025 L 128.324165 74.907425 L 132.274165 77.916325 L 136.355165 80.747025 L 140.494165 83.491525 L 144.642165 86.224625 L 148.789165 88.957625 L 152.936165 91.690625 L 157.083165 94.423725 L 161.230165 97.156725 L 165.377165 99.889725 L 169.524165 102.623025 L 173.671165 105.356025 L 177.819165 108.089025 L 181.966165 110.822025 L 186.113165 113.555025 L 190.260165 116.288025 L 194.407165 119.021025 L 198.554165 121.754025 L 202.701165 124.487025 L 206.848165 127.220025 L 210.996165 129.953025 L 215.143165 132.686025 L 219.290165 135.419025 L 223.437165 138.152025 L 227.584165 140.885025 L 231.731165 143.618025 L 235.878165 146.351025 L 240.025165 149.084025 L 244.173165 151.817025 L 248.320165 154.550025 L 252.467165 157.283025 L 256.614165 160.016025 L 260.761165 162.749025 L 264.908165 165.483025 L 269.055165 168.216025 L 273.202165 170.949025 L 277.349165 173.682025 L 281.497165 176.415025 L 285.644165 179.148025 L 289.791165 181.881025 L 293.943165 184.607025 L 298.129165 187.279025 L 302.339165 189.914025 L 306.552165 192.544025 L 310.765165 195.174025 L 314.978165 197.805025 L 319.192165 200.435025 L 323.405165 203.065025" fill="none" id="28" stroke="#989c37" stroke-width="0.5" /><path d="M 280.498165 187.635025 L 284.424165 189.718025 L 288.350165 191.801025 L 292.275165 193.884025 L 296.201165 195.967025 L 300.126165 198.050025 L 304.052165 200.133025 L 307.978165 202.216025 L 311.897165 204.312025 L 315.790165 206.454025 L 319.666165 208.628025 L 323.539165 210.808025 L 327.411165 212.987025 L 331.284165 215.167025 L 335.164165 217.335025 L 339.065165 219.462025 L 342.992165 221.543025 L 346.930165 223.603025 L 350.868165 225.661025 L 354.807165 227.719025 L 358.746165 229.776025 L 362.685165 231.834025 L 366.624165 233.892025 L 370.563165 235.950025 L 374.502165 238.007025 L 378.441165 240.065025 L 382.380165 242.123025 L 386.318165 244.181025 L 390.257165 246.238025 L 394.196165 248.296025 L 398.135165 250.354025" fill="none" id="29" stroke="#bb568c" stroke-width="0.5" /><path d="M 8.404765 177.491025 L 11.921865 180.993025 L 15.493865 184.438025 L 19.130165 187.816025 L 22.847565 191.104025 L 26.578565 194.377025 L 30.310265 197.650025 L 34.041965 200.922025 L 37.773665 204.194025 L 41.505365 207.466025 L 45.237165 210.738025 L 48.968865 214.010025 L 52.700565 217.282025 L 56.432265 220.554025 L 60.163965 223.827025 L 63.895665 227.099025 L 67.627465 230.371025 L 71.359165 233.643025 L 75.090865 236.915025 L 78.822565 240.187025 L 82.554565 243.459025 L 86.290365 246.727025 L 90.033765 249.985025 L 93.780265 253.241025 L 97.527165 256.496025 L 101.275165 259.748025 L 105.040165 262.983025 L 108.833165 266.184025 L 112.644165 269.363025 L 116.459165 272.537025 L 120.274165 275.712025 L 124.089165 278.886025 L 127.904165 282.061025 L 131.719165 285.235025 L 135.535165 288.410025 L 139.350165 291.584025 L 143.165165 294.759025 L 146.980165 297.933025 L 150.795165 301.108025 L 154.610165 304.283025 L 158.425165 307.457025 L 162.240165 310.632025 L 166.055165 313.806025 L 169.870165 316.981025 L 173.686165 320.155025 L 177.501165 323.330025 L 181.316165 326.504025 L 185.131165 329.679025 L 188.946165 332.853025 L 192.761165 336.028025 L 196.576165 339.202025 L 200.392165 342.376025 L 204.226165 345.528025 L 208.093165 348.638025 L 211.983165 351.721025" fill="none" id="30" stroke="#cfe395" stroke-width="0.5" /><path d="M 1.994645 178.198025 L 5.473565 181.674025 L 9.051165 185.048025 L 12.752865 188.286025 L 16.580965 191.373025 L 20.417965 194.449025 L 24.255265 197.525025 L 28.092665 200.601025 L 31.929965 203.677025 L 35.767365 206.752025 L 39.604665 209.828025 L 43.442065 212.904025 L 47.279365 215.980025 L 51.116765 219.055025 L 54.954065 222.131025 L 58.791465 225.207025 L 62.628765 228.283025 L 66.466165 231.358025 L 70.303465 234.434025 L 74.140865 237.510025 L 77.978165 240.585025 L 81.815565 243.661025 L 85.652865 246.737025 L 89.490265 249.813025 L 93.327565 252.888025 L 97.165165 255.964025 L 101.001165 259.041025 L 104.826165 262.132025 L 108.634165 265.244025 L 112.437165 268.362025 L 116.240165 271.480025 L 120.043165 274.599025 L 123.842165 277.722025 L 127.632165 280.856025 L 131.419165 283.994025 L 135.206165 287.131025 L 138.992165 290.269025 L 142.779165 293.407025 L 146.566165 296.545025 L 150.353165 299.682025 L 154.140165 302.820025 L 157.926165 305.958025 L 161.713165 309.096025 L 165.500165 312.233025 L 169.287165 315.371025 L 173.074165 318.509025 L 176.860165 321.647025 L 180.647165 324.785025 L 184.434165 327.922025 L 188.216165 331.066025 L 191.842165 334.388025 L 195.083165 338.087025 L 198.069165 341.995025" fill="none" id="31" stroke="#cfe395" stroke-width="0.5" /><path d="M 22.998565 205.448025 L 25.939865 201.449025 L 28.897865 197.462025 L 31.877265 193.492025 L 34.868965 189.530025 L 37.787565 185.515025 L 40.625865 181.442025 L 43.415965 177.337025 L 46.189165 173.219025 L 48.960165 169.101025 L 51.731065 164.982025 L 54.502065 160.863025 L 57.273065 156.744025 L 60.043965 152.625025 L 62.814965 148.507025 L 65.585965 144.388025 L 68.356865 140.269025 L 71.127865 136.150025 L 73.898865 132.031025 L 76.671165 127.914025 L 79.456465 123.805025 L 82.266865 119.713025 L 85.090465 115.630025 L 87.915465 111.548025 L 90.740465 107.466025 L 93.565565 103.384025 L 96.390165 99.302125 L 99.215165 95.220225 L 102.040165 91.138325 L 104.865165 87.056425 L 107.690165 82.974525 L 110.516165 78.892725 L 113.341165 74.810825 L 116.166165 70.728925 L 118.991165 66.647025" fill="none" id="32" stroke="#c45372" stroke-width="0.5" /><path d="M 223.162165 0.354025 L 223.254165 5.295025 L 223.345165 10.236015 L 223.436165 15.177025 L 223.528165 20.118025 L 223.619165 25.059025 L 223.709165 30.000025 L 223.791165 34.941225 L 223.850165 39.882625 L 223.893165 44.824325 L 223.899165 49.766025 L 223.847165 54.707625 L 223.776165 59.648925 L 223.704165 64.590225 L 223.632165 69.531525 L 223.559165 74.472825 L 223.487165 79.414225 L 223.415165 84.355525 L 223.342165 89.296825 L 223.270165 94.238125 L 223.198165 99.179425 L 223.125165 104.121025 L 223.053165 109.062025 L 222.981165 114.003025 L 222.909165 118.945025 L 222.836165 123.886025 L 222.764165 128.827025 L 222.692165 133.769025 L 222.619165 138.710025 L 222.545165 143.651025 L 222.433165 148.592025 L 222.136165 153.524025 L 221.708165 158.447025 L 221.266165 163.369025 L 220.824165 168.291025 L 220.382165 173.213025 L 219.940165 178.135025" fill="none" id="33" stroke="#008c6f" stroke-width="0.5" /><path d="M 44.998565 311.073025 L 48.173365 314.897025 L 51.452765 318.632025 L 54.885265 322.226025 L 58.383065 325.757025 L 61.858265 329.311025 L 65.257465 332.937025 L 68.640265 336.578025 L 72.022065 340.221025 L 75.403865 343.863025 L 78.785665 347.506025 L 82.167465 351.148025 L 85.549265 354.791025 L 88.931065 358.433025 L 92.312865 362.076025 L 95.694565 365.718025 L 99.076165 369.361025 L 102.458165 373.003025 L 105.840165 376.646025 L 109.222165 380.288025 L 112.603165 383.931025 L 115.984165 387.574025 L 119.354165 391.228025 L 122.702165 394.901025 L 126.033165 398.590025 L 129.360165 402.283025 L 132.687165 405.975025 L 136.014165 409.668025 L 139.341165 413.360025 L 142.668165 417.053025 L 145.995165 420.746025 L 149.322165 424.438025 L 152.649165 428.131025 L 155.976165 431.824025 L 159.303165 435.516025 L 162.630165 439.209025 L 165.957165 442.901025 L 169.289165 446.589025 L 172.697165 450.207025 L 176.239165 453.694025 L 179.869165 457.088025" fill="none" id="34" stroke="#ff94af" stroke-width="0.5" /></svg>