<?xml version="1.0" encoding="utf-8" ?>
<svg baseProfile="full" height="468.67703" version="1.1" viewBox="0,0,229.67703,468.67703" width="229.67703" xmlns="http://www.w3.org/2000/svg" xmlns:ev="http://www.w3.org/2001/xml-events" xmlns:xlink="http://www.w3.org/1999/xlink"><defs><style type="text/css"><![CDATA[
	.background { fill: white; }
	.line { stroke: firebrick; stroke-width: .1mm; }
	.blacksquare { fill: indigo; }
	.whitesquare { fill: white; }
]]></style></defs><rect class="background" height="100%" width="100%" x="0" y="0" /><path d="M 58.606349 82.699115 L 57.661749 83.191115 L 56.717149 83.683215 L 55.775949 84.181615 L 54.834649 84.680115 L 53.898449 85.187915 L 52.962249 85.695815 L 52.029749 86.210515 L 51.097249 86.725215 L 50.175449 87.258715 L 49.253649 87.792215 L 48.336249 88.333315 L 47.418849 88.874415 L 46.511549 89.432315 L 45.604249 89.990115 L 44.704749 90.560615 L 43.805349 91.131015 L 42.917349 91.719115 L 42.029249 92.307215 L 41.157149 92.918515 L 40.285049 93.529915 L 39.425649 94.159015 L 38.566149 94.788215 L 37.740349 95.460815 L 36.914549 96.133415 L 36.101049 96.820915 L 35.287549 97.508415 L 34.518949 98.245715 L 33.750449 98.983115 L 33.008949 99.747815 L 32.267549 100.512515" fill="none" id="0" stroke="#c583d9" stroke-width="0.5" /><path d="M 32.267549 100.512515 L 36.799249 98.415815 L 41.291849 96.236815 L 45.730049 93.949015 L 50.132849 91.594515 L 54.618049 89.400115 L 59.141549 87.286015 L 63.682749 85.209915 L 68.234549 83.157315 L 72.806149 81.149615 L 77.408549 79.213215 L 82.026849 77.314715 L 86.659549 75.452115 L 91.314549 73.645615 L 95.980949 71.868915 L 100.653249 70.106915 L 105.336249 68.373915 L 110.028249 66.667915 L 114.724249 64.970615 L 119.428249 63.294915 L 124.149249 61.669315 L 128.882249 60.077715 L 133.616249 58.491915 L 138.349249 56.899015 L 143.076249 55.291615 L 147.802249 53.678915 L 152.526249 52.062215 L 157.246249 50.431515 L 161.961249 48.788015 L 166.664249 47.112015 L 171.346249 45.377115 L 176.017249 43.612215 L 180.667249 41.791815 L 185.285249 39.894915 L 189.889249 37.960315 L 194.476249 35.989315" fill="none" id="1" stroke="#c583d9" stroke-width="0.5" /><path d="M 187.384249 44.247515 L 188.118249 43.830015 L 188.853249 43.412415 L 189.589249 42.997215 L 190.324249 42.582015 L 191.062249 42.169115 L 191.799249 41.756115 L 192.539249 41.347915 L 193.278249 40.939615 L 194.020249 40.534615 L 194.762249 40.129515 L 195.505249 39.727615 L 196.248249 39.325815 L 196.993249 38.927615 L 197.739249 38.529415 L 198.484249 38.131715 L 199.230249 37.734115 L 199.976249 37.337015 L 200.721249 36.940015 L 201.467249 36.543315 L 202.214249 36.146615 L 202.959249 35.748215 L 203.704249 35.349915 L 204.448249 34.949815 L 205.192249 34.549715 L 205.930249 34.138215 L 206.668249 33.726615 L 207.405249 33.312215 L 208.141249 32.897815 L 208.875249 32.479115 L 209.609249 32.060415" fill="none" id="2" stroke="#c583d9" stroke-width="0.5" /><path d="M 194.798249 38.463015 L 195.649249 38.080415 L 196.500249 37.697915 L 197.353249 37.319015 L 198.206249 36.940315 L 199.061249 36.567515 L 199.916249 36.194715 L 200.773249 35.824915 L 201.630249 35.455215 L 202.485249 35.081615 L 203.340249 34.708015 L 204.194249 34.332915 L 205.048249 33.957715 L 205.904249 33.586815 L 206.760249 33.215815 L 207.618249 32.848015 L 208.475249 32.480215 L 209.334249 32.115915 L 210.193249 31.751715 L 211.054249 31.392215 L 211.915249 31.032715 L 212.775249 30.670315 L 213.635249 30.307815 L 214.491249 29.938015 L 215.348249 29.568115 L 216.203249 29.194115 L 217.058249 28.820015 L 217.906249 28.431515 L 218.754249 28.043015 L 220.443249 27.249415" fill="none" id="3" stroke="#c583d9" stroke-width="0.5" /><path d="M 220.443249 27.249415 L 219.499249 27.441115 L 218.555249 27.633315 L 217.626249 27.889115 L 216.698249 28.148915 L 215.809249 28.520415 L 214.920249 28.892615 L 214.038249 29.281015 L 213.156249 29.669615 L 212.276249 30.062115 L 211.396249 30.454715 L 210.518249 30.850315 L 209.639249 31.245515 L 208.756249 31.631015 L 207.873249 32.016315 L 206.988249 32.397415 L 206.103249 32.778415 L 205.216249 33.155415 L 204.329249 33.532315 L 203.439249 33.901115 L 202.549249 34.270015 L 201.659249 34.640715 L 200.770249 35.011515 L 199.881249 35.384015 L 198.993249 35.756515 L 198.104249 36.129715 L 197.216249 36.502815 L 196.327249 36.876215 L 195.439249 37.249615 L 194.551249 37.623315 L 193.663249 37.996915" fill="none" id="4" stroke="#c583d9" stroke-width="0.5" /><path d="M 193.663249 37.996915 L 194.800249 37.624115 L 195.936249 37.251315 L 197.059249 36.836415 L 198.181249 36.421415 L 199.277249 35.942615 L 200.373249 35.463615 L 201.453249 34.948515 L 202.533249 34.433515 L 203.606249 33.904815 L 204.680249 33.376215 L 205.758249 32.858215 L 206.837249 32.340115 L 207.920249 31.832415 L 209.003249 31.324715 L 210.096249 30.837615 L 211.189249 30.350615 L 212.288249 29.879415 L 213.388249 29.408315 L 214.491249 28.945115 L 215.594249 28.481915 L 216.706249 28.040115 L 217.818249 27.598215 L 218.935249 27.168715 L 220.051249 26.739315 L 221.175249 26.327215 L 222.298249 25.915015 L 223.413249 25.481215 L 224.528249 25.047415 L 225.640249 24.607115 L 226.753249 24.166815" fill="none" id="5" stroke="#c583d9" stroke-width="0.5" /><path d="M 226.753249 24.166815 L 225.333249 24.423715 L 223.913249 24.680815 L 222.509249 25.017715 L 221.107249 25.356015 L 219.735249 25.804515 L 218.364249 26.254415 L 217.025249 26.792415 L 215.686249 27.330915 L 214.362249 27.904615 L 213.038249 28.478515 L 211.722249 29.071215 L 210.406249 29.663915 L 209.092249 30.258615 L 207.777249 30.853415 L 206.466249 31.455915 L 205.154249 32.058615 L 203.853249 32.682215 L 202.552249 33.305915 L 201.271249 33.970715 L 199.990249 34.635415 L 198.732249 35.342215 L 197.474249 36.049115 L 196.198249 36.723715 L 194.922249 37.398115 L 193.598249 37.970315 L 192.272249 38.541815 L 190.905249 39.001515 L 189.537249 39.460615 L 188.143249 39.834915 L 186.749249 40.209215" fill="none" id="6" stroke="#c583d9" stroke-width="0.5" /><path d="M 23.189949 103.070515 L 27.448549 100.645515 L 31.755549 98.307815 L 36.126449 96.091315 L 40.551549 93.985215 L 45.027149 91.988715 L 49.540449 90.079215 L 54.059449 88.182815 L 58.584449 86.301115 L 63.143949 84.504415 L 67.728049 82.771515 L 72.335049 81.100315 L 76.970149 79.508815 L 81.616549 77.950715 L 86.270649 76.415715 L 90.932249 74.903615 L 95.599949 73.410215 L 100.283049 71.966015 L 104.981249 70.570815 L 109.681249 69.183515 L 114.374249 67.772515 L 119.059249 66.333815 L 123.744249 64.895215 L 128.428249 63.456515 L 133.112249 62.014115 L 137.789249 60.550715 L 142.454249 59.049315 L 147.104249 57.499915 L 151.697249 55.792515 L 156.264249 54.014915 L 160.797249 52.151815 L 165.188249 49.975115 L 169.431249 47.523615 L 173.549249 44.865615" fill="none" id="7" stroke="#c583d9" stroke-width="0.5" /><path d="M 121.068249 62.036215 L 124.665249 61.138015 L 128.241249 60.157015 L 131.783249 59.058715 L 135.295249 57.868615 L 138.803249 56.667915 L 142.306249 55.451915 L 145.817249 54.261415 L 149.342249 53.109515 L 152.869249 51.967315 L 156.394249 50.814615 L 159.911249 49.640915 L 163.415249 48.428215 L 166.908249 47.183915 L 170.404249 45.948215 L 173.908249 44.736115 L 177.402249 43.493915 L 180.863249 42.164815 L 184.302249 40.778515 L 187.736249 39.379015 L 191.144249 37.917915 L 194.505249 36.351715 L 197.830249 34.711115 L 201.110249 32.980215 L 204.291249 31.074915 L 207.453249 29.138715 L 210.511249 27.042215 L 213.604249 24.996815 L 216.788249 23.096215 L 219.953249 21.165015 L 223.131249 19.255215" fill="none" id="8" stroke="#c583d9" stroke-width="0.5" /><path d="M 219.590249 195.180515 L 219.590249 200.124515 L 219.590249 205.068515 L 219.590249 210.012515 L 219.590249 214.956515 L 219.590249 219.900515 L 219.590249 224.844515 L 219.590249 229.788515 L 219.562249 234.731515 L 219.368249 239.671515 L 218.988249 244.600515 L 218.569249 249.526515 L 218.142249 254.452515 L 217.687249 259.375515 L 217.210249 264.295515 L 216.728249 269.216515 L 216.245249 274.136515 L 215.730249 279.053515 L 215.141249 283.962515 L 214.513249 288.865515 L 213.882249 293.769515 L 213.248249 298.672515 L 212.589249 303.572515 L 211.877249 308.464515 L 211.127249 313.351515 L 210.369249 318.236515 L 209.610249 323.122515 L 208.852249 328.007515 L 208.094249 332.893515 L 207.336249 337.778515 L 206.578249 342.664515 L 205.809249 347.547515 L 204.976249 352.421515 L 204.025249 357.272515 L 203.014249 362.111515 L 202.012249 366.953515 L 201.091249 371.810515 L 200.111249 376.656515 L 198.987249 381.470515 L 197.839249 386.279515 L 196.646249 391.077515 L 195.416249 395.865515 L 194.154249 400.645515" fill="none" id="9" stroke="#00d4db" stroke-width="0.5" /><path d="M 213.794249 342.731515 L 212.300249 345.603515 L 210.899249 348.522515 L 209.628249 351.498515 L 208.475249 354.523515 L 207.410249 357.581515 L 206.424249 360.665515 L 205.358249 363.722515 L 204.268249 366.771515 L 203.228249 369.837515 L 202.240249 372.920515 L 201.270249 376.009515 L 200.302249 379.099515 L 199.333249 382.188515 L 198.357249 385.275515 L 197.366249 388.358515 L 196.362249 391.436515 L 195.354249 394.513515 L 194.345249 397.590515 L 193.337249 400.666515 L 192.322249 403.741515 L 191.288249 406.809515 L 190.230249 409.869515 L 189.150249 412.922515 L 188.033249 415.961515 L 186.830249 418.967515 L 185.621249 421.971515 L 184.226249 424.886515 L 182.577249 427.669515 L 180.722249 430.321515 L 178.700249 432.850515" fill="none" id="10" stroke="#00d4db" stroke-width="0.5" /><path d="M 178.700249 432.850515 L 178.841249 432.234515 L 178.982249 431.619515 L 179.162249 431.014515 L 179.344249 430.409515 L 179.563249 429.817515 L 179.784249 429.225515 L 180.013249 428.637515 L 180.243249 428.049515 L 180.522249 427.482515 L 180.801249 426.916515 L 181.073249 426.346515 L 181.346249 425.777515 L 181.645249 425.221515 L 181.944249 424.665515 L 182.242249 424.108515 L 182.539249 423.551515 L 182.840249 422.996515 L 183.141249 422.441515 L 183.443249 421.886515 L 183.745249 421.332515 L 184.047249 420.778515 L 184.349249 420.223515 L 184.649249 419.668515 L 184.950249 419.112515 L 185.251249 418.557515 L 185.551249 418.002515 L 185.851249 417.446515 L 186.151249 416.891515 L 186.749249 415.779515" fill="none" id="11" stroke="#00d4db" stroke-width="0.5" /><path d="M 196.408249 391.914515 L 196.075249 393.016515 L 195.741249 394.119515 L 195.400249 395.218515 L 195.057249 396.317515 L 194.711249 397.415515 L 194.365249 398.513515 L 193.996249 399.604515 L 193.622249 400.693515 L 193.252249 401.783515 L 192.885249 402.875515 L 192.522249 403.967515 L 192.161249 405.061515 L 191.783249 406.148515 L 191.395249 407.232515 L 190.997249 408.312515 L 190.589249 409.389515 L 190.172249 410.463515 L 189.745249 411.532515 L 189.317249 412.600515 L 188.885249 413.668515 L 188.455249 414.736515 L 188.026249 415.804515 L 187.598249 416.873515 L 187.173249 417.943515 L 186.742249 419.011515 L 186.291249 420.070515 L 185.839249 421.129515 L 185.378249 422.184515 L 184.916249 423.239515 L 184.443249 424.289515 L 183.971249 425.339515" fill="none" id="12" stroke="#00d4db" stroke-width="0.5" /><path d="M 188.209249 415.056515 L 188.027249 415.814515 L 187.843249 416.571515 L 187.634249 417.322515 L 187.418249 418.071515 L 187.175249 418.812515 L 186.916249 419.546515 L 186.630249 420.271515 L 186.338249 420.994515 L 186.041249 421.715515 L 185.736249 422.432515 L 185.425249 423.146515 L 185.113249 423.861515 L 184.801249 424.575515 L 184.480249 425.285515 L 184.158249 425.995515 L 183.836249 426.705515 L 183.514249 427.414515 L 183.187249 428.122515 L 182.859249 428.829515 L 182.531249 429.536515 L 182.203249 430.243515 L 181.874249 430.950515 L 181.544249 431.656515 L 181.214249 432.362515 L 180.878249 433.065515 L 180.538249 433.766515 L 180.185249 434.461515 L 179.828249 435.154515 L 179.092249 436.528515" fill="none" id="13" stroke="#00d4db" stroke-width="0.5" /><path d="M 179.092249 436.528515 L 179.305249 435.898515 L 179.519249 435.268515 L 179.741249 434.640515 L 179.965249 434.013515 L 180.196249 433.389515 L 180.434249 432.767515 L 180.683249 432.150515 L 180.933249 431.533515 L 181.183249 430.917515 L 181.439249 430.302515 L 181.698249 429.689515 L 181.961249 429.078515 L 182.225249 428.467515 L 182.489249 427.856515 L 182.753249 427.245515 L 183.033249 426.641515 L 183.312249 426.036515 L 183.591249 425.432515 L 183.871249 424.828515 L 184.156249 424.227515 L 184.444249 423.627515 L 184.738249 423.030515 L 185.033249 422.433515 L 185.327249 421.836515 L 185.621249 421.238515 L 185.914249 420.641515 L 186.206249 420.043515 L 186.498249 419.445515 L 186.790249 418.846515 L 187.081249 418.248515" fill="none" id="14" stroke="#00d4db" stroke-width="0.5" /><path d="M 187.081249 418.248515 L 186.873249 419.288515 L 186.665249 420.328515 L 186.343249 421.339515 L 186.019249 422.349515 L 185.559249 423.305515 L 185.096249 424.259515 L 184.481249 425.124515 L 183.867249 425.989515 L 183.234249 426.841515 L 182.602249 427.692515 L 181.952249 428.530515 L 181.302249 429.369515 L 180.646249 430.203515 L 179.990249 431.037515 L 179.331249 431.868515 L 178.672249 432.700515 L 178.010249 433.528515 L 177.347249 434.357515 L 176.700249 435.197515 L 176.052249 436.037515 L 175.382249 436.860515 L 174.712249 437.683515 L 174.020249 438.487515 L 173.328249 439.290515 L 172.518249 439.976515 L 171.707249 440.660515 L 170.826249 441.249515 L 169.943249 441.839515 L 169.009249 442.341515 L 168.075249 442.844515" fill="none" id="15" stroke="#00d4db" stroke-width="0.5" /><path d="M 228.283249 61.745115 L 228.283249 66.678515 L 228.283249 71.611915 L 228.283249 76.545215 L 228.283249 81.478615 L 228.283249 86.411915 L 228.283249 91.345315 L 228.312249 96.278615 L 228.385249 101.211515 L 228.469249 106.144515 L 228.555249 111.076515 L 228.597249 116.009515 L 228.605249 120.943515 L 228.605249 125.876515 L 228.605249 130.809515 L 228.605249 135.743515 L 228.605249 140.676515 L 228.605249 145.609515 L 228.605249 150.543515 L 228.605249 155.476515 L 228.596249 160.410515 L 228.520249 165.342515 L 228.372249 170.273515 L 228.203249 175.204515 L 228.034249 180.134515 L 227.866249 185.065515 L 227.656249 189.994515 L 227.324249 194.916515 L 226.885249 199.830515 L 226.429249 204.742515 L 225.974249 209.654515 L 225.517249 214.567515 L 225.021249 219.475515 L 224.430249 224.373515 L 223.797249 229.265515 L 223.164249 234.158515 L 222.528249 239.050515 L 221.857249 243.938515 L 221.092249 248.811515 L 220.270249 253.676515 L 219.448249 258.540515 L 218.614249 263.402515 L 217.710249 268.252515 L 216.739249 273.089515 L 215.767249 277.926515 L 214.814249 282.766515 L 213.915249 287.617515 L 213.038249 292.472515 L 212.185249 297.331515" fill="none" id="16" stroke="#00d4db" stroke-width="0.5" /><path d="M 73.094949 77.460615 L 77.368349 74.984515 L 81.696749 72.606015 L 86.099249 70.367815 L 90.547849 68.222315 L 95.042349 66.175615 L 99.596249 64.263715 L 104.167249 62.392115 L 108.759249 60.574015 L 113.364249 58.789615 L 117.984249 57.044115 L 122.629249 55.366715 L 127.290249 53.733115 L 131.960249 52.123415 L 136.643249 50.555915 L 141.340249 49.027015 L 146.041249 47.513815 L 150.750249 46.023915 L 155.470249 44.570315 L 160.193249 43.125915 L 164.908249 41.654815 L 169.608249 40.138415 L 174.301249 38.599215 L 178.993249 37.056915 L 183.673249 35.478715 L 188.282249 33.706615 L 192.784249 31.677115 L 197.133249 29.338915 L 201.465249 26.966215 L 205.845249 24.684015 L 210.253249 22.456515" fill="none" id="17" stroke="#9de993" stroke-width="0.5" /><path d="M 13.208949 98.560015 L 15.857049 94.409515 L 18.736649 90.416315 L 21.893249 86.638315 L 25.354449 83.137015 L 28.887349 79.708115 L 32.549749 76.417915 L 36.275449 73.199515 L 40.046349 70.034215 L 43.921649 66.997415 L 47.816849 63.986415 L 51.729149 60.997615 L 55.688749 58.071715 L 59.665249 55.168915 L 63.643649 52.268715 L 67.719849 49.507715 L 71.873349 46.864315 L 76.044249 44.248415 L 80.237449 41.668615 L 84.517549 39.235515 L 88.860549 36.916515 L 93.215649 34.620415 L 97.600449 32.381615 L 102.080249 30.338415 L 106.632249 28.462715 L 111.196249 26.617215 L 115.781249 24.823815 L 120.430249 23.203015 L 125.132249 21.745615 L 129.843249 20.314215 L 134.572249 18.946215 L 139.356249 17.780015 L 144.181249 16.800315 L 149.010249 15.843015 L 153.854249 14.964815 L 158.738249 14.340915 L 163.640249 13.879615 L 168.547249 13.491115 L 173.460249 13.170615 L 178.384249 13.147215 L 183.307249 13.212515 L 188.217249 13.564415 L 193.100249 14.195415 L 197.835249 15.545215 L 202.390249 17.413215 L 206.776249 19.649115 L 211.001249 22.176815 L 215.082249 24.930315" fill="none" id="18" stroke="#ad5ba7" stroke-width="0.5" /><path d="M 30.917149 226.320515 L 30.917149 231.263515 L 30.917149 236.206515 L 30.917149 241.149515 L 30.917149 246.092515 L 30.940849 251.034515 L 31.158149 255.971515 L 31.661949 260.888515 L 32.208549 265.800515 L 32.717649 270.717515 L 33.230649 275.633515 L 33.811949 280.541515 L 34.464849 285.441515 L 35.126149 290.339515 L 35.746449 295.243515 L 36.329249 300.151515 L 36.930349 305.057515 L 37.602449 309.954515 L 38.319149 314.844515 L 39.028049 319.736515 L 39.711949 324.632515 L 40.397149 329.527515 L 41.123349 334.416515 L 41.890749 339.299515 L 42.702649 344.174515 L 43.540349 349.046515 L 44.344949 353.923515 L 45.143149 358.801515 L 45.990049 363.670515 L 46.902549 368.528515 L 47.944549 373.360515 L 49.181949 378.145515 L 50.557149 382.893515" fill="none" id="19" stroke="#c94e76" stroke-width="0.5" /><path d="M 33.492849 285.835515 L 33.955049 290.429515 L 34.565249 295.006515 L 35.359649 299.554515 L 36.350749 304.063515 L 37.399249 308.560515 L 38.457749 313.054515 L 39.505849 317.551515 L 40.523949 322.054515 L 41.532449 326.560515 L 42.605449 331.050515 L 43.761649 335.520515 L 44.951749 339.982515 L 46.144949 344.442515 L 47.347249 348.900515 L 48.580549 353.349515 L 49.857749 357.786515 L 51.224049 362.196515 L 52.705449 366.569515 L 54.188049 370.942515 L 55.592749 375.340515 L 57.074049 379.712515 L 58.679249 384.041515 L 60.203549 388.399515 L 61.650449 392.783515 L 63.094649 397.169515 L 64.504049 401.566515 L 65.780249 406.002515 L 67.106649 410.425515 L 68.592449 414.796515 L 70.197149 419.125515" fill="none" id="20" stroke="#c94e76" stroke-width="0.5" /><path d="M 39.288349 303.588515 L 39.349549 308.570515 L 39.756049 313.535515 L 40.645249 318.436515 L 41.823749 323.278515 L 42.991149 328.122515 L 44.073549 332.986515 L 45.174949 337.845515 L 46.401749 342.674515 L 47.671249 347.492515 L 48.922249 352.316515 L 50.161849 357.142515 L 51.408749 361.966515 L 52.728349 366.770515 L 54.194149 371.532515 L 55.736149 376.270515 L 57.254449 381.016515 L 58.761449 385.765515 L 60.297849 390.505515 L 61.842749 395.242515 L 63.370349 399.985515 L 64.913049 404.723515 L 66.498649 409.447515 L 68.099049 414.166515 L 69.713149 418.880515 L 71.444749 423.551515 L 73.500749 428.087515 L 75.706549 432.555515 L 77.972049 436.993515 L 80.230849 441.434515 L 82.164449 446.025515 L 83.891749 450.699515" fill="none" id="21" stroke="#c94e76" stroke-width="0.5" /><path d="M 13.852849 244.364515 L 13.852849 249.350515 L 13.852849 254.335515 L 13.852849 259.321515 L 13.852849 264.307515 L 13.875749 269.292515 L 14.096549 274.272515 L 14.595749 279.233515 L 15.156649 284.187515 L 15.738649 289.138515 L 16.417149 294.077515 L 17.221749 298.998515 L 18.068849 303.911515 L 18.928249 308.822515 L 19.795449 313.732515 L 20.678549 318.639515 L 21.599549 323.539515 L 22.549049 328.433515 L 23.515949 333.324515 L 24.509549 338.210515 L 25.531149 343.090515 L 26.608449 347.958515 L 27.790449 352.801515 L 29.063849 357.622515 L 30.432349 362.416515 L 31.940449 367.167515 L 33.629549 371.857515 L 35.557649 376.454515 L 37.619049 380.993515 L 39.776949 385.488515 L 42.098749 389.899515 L 44.584549 394.220515 L 47.100749 398.525515 L 49.299949 402.998515 L 51.306649 407.561515 L 53.227249 412.162515 L 55.064749 416.797515" fill="none" id="22" stroke="#d271bb" stroke-width="0.5" /><path d="M 13.208949 274.049515 L 13.596649 278.923515 L 14.216349 283.773515 L 15.168049 288.570515 L 16.358949 293.312515 L 17.553749 298.054515 L 18.799549 302.782515 L 20.104949 307.495515 L 21.406249 312.208515 L 22.580849 316.955515 L 23.681349 321.719515 L 24.772749 326.486515 L 25.942549 331.234515 L 27.151649 335.972515 L 28.363149 340.709515 L 29.574649 345.446515 L 30.786249 350.184515 L 32.007949 354.919515 L 33.264649 359.644515 L 34.553349 364.361515 L 35.849649 369.076515 L 37.146049 373.791515 L 38.456149 378.502515 L 39.861249 383.186515 L 41.405449 387.825515 L 42.976049 392.456515 L 44.546649 397.087515 L 46.147049 401.707515 L 47.834649 406.297515 L 49.502949 410.893515 L 51.100649 415.515515 L 52.797749 420.101515 L 54.587849 424.651515 L 56.157849 429.282515 L 57.707949 433.920515 L 59.152249 438.591515 L 60.538149 443.281515" fill="none" id="23" stroke="#d271bb" stroke-width="0.5" /><path d="M 23.511949 354.226515 L 24.638249 357.408515 L 25.791549 360.580515 L 26.974449 363.740515 L 28.213949 366.879515 L 29.492849 370.003515 L 30.793149 373.117515 L 32.107149 376.226515 L 33.423449 379.333515 L 34.769049 382.428515 L 36.153449 385.506515 L 37.586849 388.562515 L 39.004849 391.624515 L 40.414349 394.691515 L 41.842949 397.748515 L 43.301449 400.792515 L 44.764449 403.833515 L 46.208549 406.883515 L 47.621549 409.948515 L 49.043349 413.009515 L 50.483649 416.061515 L 51.998549 419.077515 L 53.527649 422.086515 L 55.062649 425.091515 L 56.569349 428.111515 L 58.046449 431.146515 L 59.505949 434.189515 L 60.951349 437.239515 L 62.377049 440.298515 L 63.792449 443.362515 L 65.198449 446.430515" fill="none" id="24" stroke="#d271bb" stroke-width="0.5" /><path d="M 65.198449 446.430515 L 64.790749 445.206515 L 64.383049 443.983515 L 63.959649 442.765515 L 63.535149 441.547515 L 63.088349 440.337515 L 62.638049 439.129515 L 62.175849 437.925515 L 61.710649 436.723515 L 61.241149 435.521515 L 60.770149 434.321515 L 60.279349 433.129515 L 59.778549 431.940515 L 59.274149 430.753515 L 58.767449 429.568515 L 58.254449 428.384515 L 57.736049 427.204515 L 57.217549 426.023515 L 56.698849 424.842515 L 56.180149 423.662515 L 55.661349 422.481515 L 55.141149 421.301515 L 54.618049 420.122515 L 54.092749 418.945515 L 53.561349 417.770515 L 53.026549 416.596515 L 52.478249 415.429515 L 51.928049 414.263515 L 51.365949 413.102515 L 50.803149 411.942515 L 50.229949 410.787515 L 49.656749 409.632515" fill="none" id="25" stroke="#d271bb" stroke-width="0.5" /><path d="M 183.208249 243.927515 L 182.921249 248.918515 L 182.677249 253.911515 L 182.491249 258.907515 L 182.351249 263.904515 L 182.197249 268.900515 L 182.000249 273.895515 L 181.797249 278.890515 L 181.574249 283.884515 L 181.270249 288.874515 L 180.947249 293.863515 L 180.625249 298.851515 L 180.295249 303.839515 L 179.942249 308.826515 L 179.581249 313.812515 L 179.221249 318.798515 L 178.841249 323.782515 L 178.403249 328.762515 L 177.911249 333.737515 L 177.405249 338.710515 L 176.894249 343.683515 L 176.359249 348.653515 L 175.783249 353.619515 L 175.187249 358.582515 L 174.591249 363.545515 L 173.994249 368.509515 L 173.397249 373.472515 L 172.800249 378.435515 L 172.198249 383.398515 L 171.555249 388.355515 L 170.832249 393.302515 L 170.069249 398.242515 L 169.278249 403.178515 L 168.385249 408.096515 L 167.421249 413.001515 L 166.450249 417.905515 L 165.511249 422.815515 L 164.590249 427.729515 L 163.653249 432.639515 L 162.683249 437.543515 L 161.750249 442.454515 L 160.869249 447.375515 L 160.026249 452.302515" fill="none" id="26" stroke="#3d8e43" stroke-width="0.5" /><path d="M 182.886249 424.218515 L 181.668249 425.450515 L 180.451249 426.682515 L 179.242249 427.921515 L 178.033249 429.160515 L 176.824249 430.400515 L 175.614249 431.639515 L 174.437249 432.909515 L 173.260249 434.178515 L 172.059249 435.426515 L 170.858249 436.673515 L 169.647249 437.911515 L 168.436249 439.148515 L 167.253249 440.414515 L 166.071249 441.679515 L 164.877249 442.932515 L 163.682249 444.186515 L 162.411249 445.362515 L 161.140249 446.538515 L 159.811249 447.648515 L 158.483249 448.758515 L 157.145249 449.857515 L 155.807249 450.956515 L 154.438249 452.017515 L 153.069249 453.078515 L 151.640249 454.056515 L 150.212249 455.034515 L 148.745249 455.954515 L 147.277249 456.873515 L 145.779249 457.741515 L 144.280249 458.608515" fill="none" id="27" stroke="#64e4ff" stroke-width="0.5" /><path d="M 144.280249 458.608515 L 145.235249 458.123515 L 146.189249 457.638515 L 147.125249 457.117515 L 148.059249 456.594515 L 148.966249 456.025515 L 149.872249 455.454515 L 150.748249 454.838515 L 151.622249 454.219515 L 152.479249 453.577515 L 153.334249 452.933515 L 154.176249 452.271515 L 155.016249 451.607515 L 155.840249 450.924515 L 156.663249 450.239515 L 157.460249 449.524515 L 158.254249 448.805515 L 159.041249 448.078515 L 159.826249 447.350515 L 160.604249 446.614515 L 161.380249 445.877515 L 162.149249 445.132515 L 162.916249 444.384515 L 163.673249 443.627515 L 164.428249 442.868515 L 165.114249 442.047515 L 165.784249 441.211515 L 166.289249 440.270515 L 166.768249 439.313515 L 167.121249 438.302515 L 167.468249 437.289515" fill="none" id="28" stroke="#64e4ff" stroke-width="0.5" /><path d="M 179.666249 417.927515 L 178.109249 420.931515 L 176.524249 423.919515 L 174.748249 426.799515 L 172.903249 429.631515 L 170.857249 432.326515 L 168.708249 434.933515 L 166.393249 437.401515 L 163.974249 439.762515 L 161.456249 442.022515 L 158.846249 444.172515 L 156.183249 446.259515 L 153.387249 448.160515 L 150.548249 450.000515 L 147.580249 451.621515 L 144.593249 453.210515 L 141.539249 454.667515 L 138.482249 456.116515 L 135.405249 457.522515 L 132.301249 458.864515 L 129.119249 460.014515 L 125.919249 461.110515 L 122.688249 462.114515 L 119.438249 463.053515 L 116.169249 463.923515 L 112.869249 464.661515 L 109.549249 465.316515 L 106.201249 465.791515 L 102.843249 466.204515 L 99.470649 466.463515 L 96.095549 466.699515" fill="none" id="29" stroke="#e68e54" stroke-width="0.5" /><path d="M 167.468249 437.289515 L 166.777249 437.634515 L 166.086249 437.979515 L 165.409249 438.349515 L 164.734249 438.723515 L 164.082249 439.136515 L 163.431249 439.551515 L 162.799249 439.994515 L 162.167249 440.437515 L 161.565249 440.920515 L 160.963249 441.403515 L 160.373249 441.901515 L 159.783249 442.399515 L 159.212249 442.919515 L 158.641249 443.438515 L 158.085249 443.973515 L 157.528249 444.507515 L 156.982249 445.053515 L 156.435249 445.598515 L 155.902249 446.156515 L 155.369249 446.715515 L 154.839249 447.276515 L 154.309249 447.837515 L 153.785249 448.403515 L 153.261249 448.970515 L 152.734249 449.534515 L 152.207249 450.098515 L 151.669249 450.652515 L 151.132249 451.206515 L 150.588249 451.754515 L 150.045249 452.302515" fill="none" id="30" stroke="#e68e54" stroke-width="0.5" /><path d="M 210.575249 164.041515 L 210.216249 168.960515 L 209.894249 173.882515 L 209.644249 178.808515 L 209.391249 183.733515 L 209.124249 188.658515 L 208.888249 193.585515 L 208.689249 198.513515 L 208.495249 203.442515 L 208.255249 208.368515 L 207.889249 213.287515 L 207.499249 218.204515 L 207.110249 223.121515 L 206.720249 228.038515 L 206.330249 232.955515 L 205.940249 237.872515 L 205.550249 242.788515 L 205.160249 247.705515 L 204.765249 252.622515 L 204.358249 257.537515 L 203.947249 262.452515 L 203.536249 267.367515 L 203.124249 272.283515 L 202.707249 277.197515 L 202.201249 282.104515 L 201.623249 287.002515 L 201.039249 291.899515 L 200.454249 296.797515 L 199.870249 301.695515 L 199.286249 306.592515 L 198.702249 311.490515 L 198.118249 316.387515 L 197.533249 321.285515 L 196.949249 326.183515 L 196.344249 331.078515 L 195.658249 335.962515 L 194.886249 340.833515 L 194.097249 345.702515 L 193.309249 350.571515 L 192.494249 355.436515 L 191.564249 360.280515 L 190.506249 365.097515 L 189.447249 369.915515 L 188.379249 374.730515 L 187.226249 379.525515 L 185.880249 384.270515 L 184.533249 389.015515 L 183.166249 393.754515 L 181.646249 398.447515 L 180.050249 403.113515 L 178.456249 407.781515 L 176.898249 412.461515 L 175.318249 417.133515 L 173.652249 421.776515 L 171.939249 426.401515" fill="none" id="31" stroke="#54aeff" stroke-width="0.5" /><path d="M 96.276549 457.832515 L 99.440349 457.443515 L 102.604249 457.054515 L 105.744249 456.505515 L 108.884249 455.954515 L 111.977249 455.184515 L 115.070249 454.413515 L 118.110249 453.455515 L 121.150249 452.496515 L 124.129249 451.362515 L 127.108249 450.228515 L 130.095249 449.114515 L 133.082249 448.001515 L 136.032249 446.793515 L 138.982249 445.585515 L 141.918249 444.346515 L 144.855249 443.107515 L 147.775249 441.827515 L 150.694249 440.546515 L 153.557249 439.145515 L 156.419249 437.742515 L 159.177249 436.143515 L 161.932249 434.541515 L 164.522249 432.683515 L 167.108249 430.819515 L 169.351249 428.555515 L 171.584249 426.281515 L 173.448249 423.696515 L 175.305249 421.105515 L 176.842249 418.312515 L 178.378249 415.519515" fill="none" id="32" stroke="#54aeff" stroke-width="0.5" /><path d="M 178.378249 415.519515 L 176.025249 417.815515 L 173.672249 420.111515 L 171.255249 422.338515 L 168.837249 424.565515 L 166.348249 426.713515 L 163.860249 428.861515 L 161.268249 430.883515 L 158.676249 432.905515 L 155.988249 434.797515 L 153.301249 436.690515 L 150.537249 438.470515 L 147.774249 440.251515 L 144.940249 441.916515 L 142.105249 443.581515 L 139.195249 445.110515 L 136.285249 446.639515 L 133.308249 448.031515 L 130.330249 449.424515 L 127.303249 450.705515 L 124.275249 451.985515 L 121.211249 453.175515 L 118.147249 454.366515 L 115.049249 455.466515 L 111.951249 456.566515 L 108.809249 457.531515 L 105.666249 458.495515 L 102.486249 459.326515 L 99.305649 460.157515 L 96.100349 460.886515 L 92.894949 461.615515" fill="none" id="33" stroke="#54aeff" stroke-width="0.5" /><path d="M 92.894949 461.615515 L 96.687449 461.166515 L 100.479249 460.716515 L 104.227249 459.980515 L 107.972249 459.238515 L 111.619249 458.103515 L 115.263249 456.962515 L 118.795249 455.511515 L 122.327249 454.058515 L 125.826249 452.527515 L 129.324249 450.994515 L 132.802249 449.419515 L 136.281249 447.842515 L 139.723249 446.189515 L 143.166249 444.535515 L 146.562249 442.790515 L 149.959249 441.044515 L 153.345249 439.278515 L 156.731249 437.512515 L 160.015249 435.563515 L 163.298249 433.612515 L 166.378249 431.355515 L 169.455249 429.093515 L 172.154249 426.393515 L 174.846249 423.684515 L 177.012249 420.539515 L 179.172249 417.390515 L 180.913249 413.991515 L 182.651249 410.591515 L 184.014249 407.023515 L 185.377249 403.456515" fill="none" id="34" stroke="#54aeff" stroke-width="0.5" /><path d="M 185.377249 403.456515 L 184.457249 406.968515 L 183.534249 410.479515 L 182.074249 413.804515 L 180.584249 417.111515 L 178.429249 420.032515 L 176.248249 422.931515 L 173.580249 425.394515 L 170.905249 427.849515 L 168.074249 430.122515 L 165.239249 432.390515 L 162.307249 434.531515 L 159.372249 436.668515 L 156.329249 438.648515 L 153.284249 440.626515 L 150.184249 442.515515 L 147.082249 444.403515 L 143.912249 446.172515 L 140.741249 447.941515 L 137.489249 449.556515 L 134.238249 451.172515 L 130.950249 452.711515 L 127.661249 454.251515 L 124.312249 455.652515 L 120.962249 457.052515 L 117.471249 458.050515 L 113.978249 459.040515 L 110.387249 459.571515 L 106.794249 460.095515 L 103.168249 460.273515 L 99.541849 460.451515" fill="none" id="35" stroke="#54aeff" stroke-width="0.5" /><path d="M 99.541849 460.451515 L 102.648249 460.086515 L 105.755249 459.722515 L 108.840249 459.206515 L 111.925249 458.689515 L 114.971249 457.979515 L 118.017249 457.266515 L 121.008249 456.350515 L 123.997249 455.430515 L 126.944249 454.382515 L 129.891249 453.331515 L 132.809249 452.205515 L 135.726249 451.076515 L 138.633249 449.922515 L 141.540249 448.768515 L 144.406249 447.514515 L 147.269249 446.255515 L 150.069249 444.861515 L 152.864249 443.456515 L 155.552249 441.858515 L 158.231249 440.243515 L 160.674249 438.294515 L 163.096249 436.314515 L 165.132249 433.945515 L 167.135249 431.542515 L 168.958249 429.001515 L 170.767249 426.449515 L 172.613249 423.924515 L 174.461249 421.401515 L 176.280249 418.856515 L 178.099249 416.311515" fill="none" id="36" stroke="#54aeff" stroke-width="0.5" /><path d="M 178.099249 416.311515 L 177.278249 418.813515 L 176.449249 421.312515 L 175.218249 423.639515 L 173.936249 425.932515 L 172.188249 427.902515 L 170.393249 429.820515 L 168.290249 431.405515 L 166.187249 432.990515 L 164.084249 434.575515 L 161.972249 436.147515 L 159.788249 437.618515 L 157.596249 439.076515 L 155.336249 440.427515 L 153.070249 441.769515 L 150.745249 443.005515 L 148.416249 444.233515 L 146.039249 445.367515 L 143.660249 446.497515 L 141.250249 447.558515 L 138.838249 448.615515 L 136.398249 449.605515 L 133.956249 450.590515 L 131.480249 451.484515 L 129.002249 452.375515 L 126.493249 453.175515 L 123.984249 453.974515 L 121.451249 454.694515 L 118.917249 455.413515 L 116.367249 456.068515 L 113.816249 456.723515" fill="none" id="37" stroke="#54aeff" stroke-width="0.5" /><path d="M 113.816249 456.723515 L 116.400249 455.688515 L 118.984249 454.653515 L 121.604249 453.715515 L 124.225249 452.778515 L 126.896249 451.995515 L 129.566249 451.211515 L 132.262249 450.520515 L 134.959249 449.829515 L 137.647249 449.109515 L 140.335249 448.388515 L 143.013249 447.627515 L 145.690249 446.865515 L 148.355249 446.065515 L 151.021249 445.264515 L 153.669249 444.407515 L 156.316249 443.548515 L 158.906249 442.530515 L 161.494249 441.504515 L 164.071249 440.454515 L 166.648249 439.402515 L 169.154249 438.192515 L 171.655249 436.971515 L 173.902249 435.334515 L 176.130249 433.665515 L 177.607249 431.319515 L 179.043249 428.934515 L 179.594249 426.212515 L 180.101249 423.477515 L 179.883249 420.702515 L 179.666249 417.927515" fill="none" id="38" stroke="#54aeff" stroke-width="0.5" /><path d="M 0.974189 95.886815 L 1.072015 95.060815 L 1.169842 94.234915 L 1.300221 93.413415 L 1.430709 92.592015 L 1.608549 91.779415 L 1.786469 90.967015 L 1.998269 90.162615 L 2.210109 89.358315 L 2.436109 88.557815 L 2.662119 87.757415 L 2.894949 86.958915 L 3.127769 86.160415 L 3.350759 85.359115 L 3.573699 84.557815 L 3.776939 83.751315 L 3.980149 82.944715 L 4.169939 82.134915 L 4.359709 81.325115 L 4.542799 80.513715 L 4.725919 79.702415 L 4.923879 78.894615 L 5.121839 78.086715 L 5.322359 77.279515 L 5.522879 76.472315 L 5.728259 75.666315 L 5.933639 74.860315 L 6.141429 74.054915 L 6.349209 73.249515 L 6.769599 71.640015" fill="none" id="39" stroke="#eed973" stroke-width="0.5" /><path d="M 20.845049 20.913515 L 22.533549 20.136615 L 24.226849 19.370515 L 25.935549 18.639015 L 27.655349 17.934715 L 29.387549 17.260915 L 31.137849 16.636515 L 32.895649 16.032515 L 34.664949 15.463315 L 36.435849 14.898815 L 38.210549 14.346615 L 39.987949 13.803215 L 41.769149 13.272215 L 43.556049 12.760615 L 45.345849 12.259615 L 47.144449 11.790915 L 48.944949 11.329815 L 50.751749 10.893715 L 52.559549 10.462115 L 54.369449 10.039065 L 56.180649 9.621805 L 57.992849 9.208615 L 59.806649 8.802745 L 61.621049 8.399825 L 63.440349 8.018955 L 65.260849 7.644815 L 67.084749 7.286805 L 68.908649 6.929165 L 70.732649 6.571875 L 72.557549 6.219235 L 74.382749 5.868025" fill="none" id="40" stroke="#eed973" stroke-width="0.5" /><path d="M 18.038449 21.583415 L 21.433849 20.421915 L 24.830949 19.265715 L 28.233949 18.126715 L 31.632849 16.975615 L 35.037249 15.840715 L 38.459949 14.762815 L 41.896049 13.728115 L 45.345949 12.740615 L 48.805549 11.787215 L 52.268449 10.846215 L 55.731949 9.906995 L 59.203349 8.997865 L 62.692649 8.161215 L 66.199949 7.402905 L 69.718749 6.699445 L 73.245049 6.034185 L 76.779449 5.413955 L 80.326949 4.875545 L 83.889749 4.450675 L 87.462249 4.112255 L 91.038949 3.821895 L 94.619749 3.588395 L 98.203849 3.413775 L 101.791249 3.315305 L 105.379249 3.266975 L 108.967249 3.248785 L 112.556249 3.248785 L 116.145249 3.248785 L 119.733249 3.248785 L 123.322249 3.248785" fill="none" id="41" stroke="#eed973" stroke-width="0.5" /><path d="M 49.269349 9.214835 L 53.431749 8.671485 L 57.584149 8.056725 L 61.721349 7.345905 L 65.854049 6.609965 L 70.001949 5.967615 L 74.167449 5.449945 L 78.343549 5.024885 L 82.527149 4.682825 L 86.717149 4.429755 L 90.911549 4.266195 L 95.107849 4.154375 L 99.304849 4.074395 L 103.502249 4.016805 L 107.700249 3.983455 L 111.898249 3.976365 L 116.095249 3.976355 L 120.293249 3.976355 L 124.491249 3.976355 L 128.689249 3.976395 L 132.887249 3.986985 L 137.082249 4.096615 L 141.268249 4.400855 L 145.438249 4.874515 L 149.581249 5.543025 L 153.697249 6.367615 L 157.781249 7.334615 L 161.840249 8.406295 L 165.922249 9.382265 L 170.045249 10.170895 L 174.192249 10.815515" fill="none" id="42" stroke="#eed973" stroke-width="0.5" /><path d="M 47.659449 12.998215 L 52.159649 12.452115 L 56.653549 11.856715 L 61.133749 11.165015 L 65.613349 10.470515 L 70.106849 9.871615 L 74.610749 9.357555 L 79.118849 8.880325 L 83.630449 8.438515 L 88.146249 8.042015 L 92.669249 7.737855 L 97.195749 7.491885 L 101.727249 7.355345 L 106.260249 7.323225 L 110.793249 7.323155 L 115.326249 7.323155 L 119.859249 7.323155 L 124.393249 7.323155 L 128.926249 7.323155 L 133.459249 7.373135 L 137.983249 7.654275 L 142.481249 8.218595 L 146.975249 8.816675 L 151.463249 9.454495 L 155.948249 10.114655 L 160.428249 10.801815 L 164.905249 11.516415 L 169.376249 12.262515 L 173.849249 12.999215 L 178.348249 13.554615 L 182.866249 13.927615 L 187.393249 14.162315" fill="none" id="43" stroke="#eed973" stroke-width="0.5" /><path d="M 37.678449 18.818715 L 36.826549 19.345915 L 35.974549 19.873115 L 35.134049 20.418415 L 34.294249 20.964915 L 33.461249 21.521515 L 32.629149 22.079715 L 31.826849 22.679215 L 31.032049 23.289115 L 30.251849 23.917515 L 29.477049 24.552715 L 28.716049 25.204315 L 27.962049 25.864115 L 27.225949 26.543415 L 26.501749 27.235815 L 25.784049 27.934815 L 25.072049 28.639715 L 24.365749 29.350315 L 23.666149 30.067515 L 22.980249 30.797415 L 22.315149 31.546815 L 21.659549 32.304215 L 21.023149 33.078015 L 20.394549 33.858015 L 19.787749 34.655215 L 19.198249 35.464215 L 18.679449 36.321415 L 18.168149 37.182715 L 17.705849 38.071615 L 17.247149 38.962215 L 16.837849 39.876715 L 16.428649 40.791215" fill="none" id="44" stroke="#eed973" stroke-width="0.5" /><path d="M 50.235249 9.505855 L 48.281149 10.884815 L 46.326849 12.263415 L 44.370949 13.639615 L 42.386849 14.975015 L 40.435949 16.357415 L 38.508849 17.773815 L 36.572949 19.178215 L 34.642149 20.589415 L 32.721449 22.014215 L 30.843649 23.495315 L 29.012349 25.032615 L 27.222049 26.617515 L 25.507149 28.284415 L 23.878449 30.034115 L 22.313849 31.841715 L 20.843249 33.727715 L 19.458649 35.676815 L 18.131549 37.665615 L 16.880949 39.704215 L 15.719949 41.794515 L 14.609649 43.912215 L 13.558749 46.060515 L 12.523849 48.216615 L 11.512549 50.383715 L 10.535249 52.566515 L 9.676349 54.798215 L 8.854619 57.044015 L 8.065999 59.301815 L 7.298519 61.567015 L 6.544359 63.836515 L 5.803699 66.110515" fill="none" id="45" stroke="#eed973" stroke-width="0.5" /><path d="M 42.507949 13.289215 L 40.402749 14.158215 L 38.329249 15.097315 L 36.288049 16.107115 L 34.329749 17.270015 L 32.443049 18.540115 L 30.621049 19.906415 L 28.872049 21.365215 L 27.147249 22.852115 L 25.444549 24.364715 L 23.765549 25.903515 L 22.111949 27.469315 L 20.484349 29.062215 L 18.980049 30.772215 L 17.545449 32.539115 L 16.177049 34.359515 L 14.924449 36.261715 L 13.753149 38.212815 L 12.659849 40.210615 L 11.720049 42.285115 L 10.840449 44.385015 L 10.019259 46.509315 L 9.322279 48.677515 L 8.672919 50.860015 L 8.069139 53.056015 L 7.497089 55.260515 L 6.950529 57.471315 L 6.429089 59.688415 L 5.981039 61.921415 L 5.558009 64.159115 L 5.159759 66.401615" fill="none" id="46" stroke="#eed973" stroke-width="0.5" /><path d="M 13.852849 44.283515 L 14.569349 43.156915 L 15.285749 42.030315 L 16.044249 40.931615 L 16.802749 39.832815 L 17.610649 38.769815 L 18.418449 37.706915 L 19.288949 36.694615 L 20.159449 35.682315 L 21.082849 34.718015 L 22.006249 33.753715 L 22.969049 32.828715 L 23.931849 31.903715 L 24.925049 31.011515 L 25.918349 30.119315 L 26.953349 29.276015 L 27.988449 28.432615 L 29.060249 27.636615 L 30.132149 26.840615 L 31.219249 26.065415 L 32.306249 25.290315 L 33.405549 24.532615 L 34.504749 23.774815 L 35.623949 23.046815 L 36.743149 22.318815 L 37.894049 21.642215 L 39.045049 20.965515 L 40.222949 20.337115 L 41.400949 19.708615 L 42.598449 19.118115 L 43.795849 18.527715" fill="none" id="47" stroke="#eed973" stroke-width="0.5" /><path d="M 62.791949 8.923805 L 61.440549 9.365055 L 60.089249 9.806295 L 58.747449 10.275735 L 57.405649 10.745215 L 56.084949 11.271215 L 54.764249 11.797215 L 53.443049 12.321815 L 52.121849 12.846515 L 50.797849 13.364015 L 49.473849 13.881415 L 48.150249 14.400215 L 46.826749 14.919015 L 45.503249 15.437815 L 44.179749 15.956615 L 42.856249 16.475415 L 41.532749 16.994215 L 40.247449 17.601515 L 38.962749 18.210115 L 37.699549 18.862015 L 36.436549 19.514415 L 35.260349 20.312615 L 34.085549 21.113015 L 32.938549 21.952715 L 31.791949 22.793115 L 30.722249 23.729215 L 29.653749 24.666815 L 28.727849 25.745315 L 27.804349 26.825915 L 26.985549 27.988015 L 26.166849 29.150115" fill="none" id="48" stroke="#eed973" stroke-width="0.5" /><path d="M 26.166849 29.150115 L 28.613749 27.204715 L 31.067349 25.267715 L 33.525149 23.336115 L 35.978549 21.398815 L 38.471749 19.513515 L 41.025349 17.714715 L 43.689849 16.079915 L 46.354549 14.445315 L 49.078549 12.918415 L 51.881849 11.535015 L 54.738149 10.264785 L 57.641449 9.110945 L 60.586049 8.062325 L 63.567149 7.121635 L 66.578849 6.286665 L 69.609749 5.522725 L 72.658249 4.830675 L 75.728349 4.243625 L 78.811149 3.729375 L 81.905949 3.288865 L 85.014649 2.959835 L 88.130049 2.712665 L 91.250349 2.522955 L 94.369149 2.309925 L 97.485049 2.059135 L 100.598249 1.777305 L 103.707249 1.455675 L 106.813249 1.102252 L 109.917249 0.729644 L 113.019249 0.338515" fill="none" id="49" stroke="#eed973" stroke-width="0.5" /><path d="M 39.932249 16.781515 L 38.783449 17.562215 L 37.634549 18.342915 L 36.499649 19.143615 L 35.364649 19.944315 L 34.244149 20.765215 L 33.123749 21.586015 L 32.032149 22.445015 L 30.940649 23.304015 L 29.890549 24.213115 L 28.840449 25.122215 L 27.834949 26.080515 L 26.829549 27.038915 L 25.867949 28.041115 L 24.906249 29.043415 L 23.974249 30.073215 L 23.042249 31.103115 L 22.121949 32.143415 L 21.201549 33.183715 L 20.297249 34.238015 L 19.392949 35.292315 L 18.511649 36.365915 L 17.630349 37.439415 L 16.768649 38.528815 L 15.906949 39.618215 L 15.064549 40.722615 L 14.222149 41.826915 L 13.398249 42.945215 L 12.574349 44.063415 L 11.764749 45.192115 L 10.955149 46.320715" fill="none" id="50" stroke="#eed973" stroke-width="0.5" /><path d="M 34.136849 19.546315 L 31.996049 21.548715 L 29.944149 23.641215 L 28.003249 25.835915 L 26.196349 28.141215 L 24.512349 30.540415 L 22.872649 32.970315 L 21.265849 35.422015 L 19.723849 37.914815 L 18.254549 40.450815 L 16.845249 43.020915 L 15.479449 45.614615 L 14.153949 48.229115 L 12.907449 50.882215 L 11.739849 53.570715 L 10.672949 56.300115 L 9.719579 59.071015 L 8.880959 61.879415 L 8.144989 64.716815 L 7.530519 67.583115 L 7.075909 70.477815 L 6.839609 73.395915 L 6.769599 76.325915 L 6.769599 79.257315 L 6.769599 82.188615 L 6.769599 85.120015 L 6.768999 88.051315 L 6.698769 90.981315 L 6.514069 93.905715 L 6.204479 96.820315 L 5.803699 99.724115" fill="none" id="51" stroke="#eed973" stroke-width="0.5" /><path d="M 21.902049 26.239915 L 20.412049 28.532915 L 19.010649 30.880215 L 17.721449 33.289715 L 16.559449 35.764615 L 15.542249 38.303015 L 14.569049 40.858515 L 13.628949 43.426315 L 12.719749 46.005315 L 11.847349 48.597015 L 11.008249 51.199715 L 10.190379 53.809115 L 9.391059 56.424315 L 8.608519 59.044615 L 7.853169 61.672815 L 7.135899 64.311515 L 6.457339 66.960515 L 5.815989 69.618915 L 5.205709 72.284515 L 4.616699 74.954915 L 4.059209 77.632015 L 3.546719 80.317915 L 3.125059 83.019815 L 2.746439 85.728015 L 2.411999 88.441915 L 2.123099 91.161115 L 1.882269 93.885115 L 1.731079 96.615415 L 1.641239 99.348315 L 1.606039 102.082515 L 1.618119 104.817515" fill="none" id="52" stroke="#eed973" stroke-width="0.5" /><path d="M 12.243049 40.500215 L 11.563649 42.370315 L 10.886249 44.241115 L 10.215339 46.114215 L 9.553039 47.990315 L 8.900609 49.870015 L 8.245899 51.748815 L 7.590219 53.627415 L 6.914459 55.498715 L 6.244009 57.372015 L 5.607099 59.256915 L 5.002319 61.152015 L 4.445639 63.062215 L 3.895419 64.974315 L 3.348939 66.887415 L 2.804659 68.801215 L 2.269339 70.717315 L 1.811229 72.653515 L 1.357909 74.590815 L 0.914122 76.530315 L 0.619560 78.493615 L 0.438742 80.475115 L 0.372942 82.462815 L 0.338515 84.452115 L 0.389437 86.441115 L 0.555742 88.414615 L 1.031836 90.346515 L 1.792769 92.157115 L 2.854849 93.839615 L 4.170379 95.321515 L 5.563419 96.742215" fill="none" id="53" stroke="#eed973" stroke-width="0.5" /><path d="M 4.515829 83.572115 L 4.298849 80.849315 L 4.221489 78.120615 L 4.296479 75.392515 L 4.542939 72.673915 L 5.096569 69.999215 L 5.785379 67.357115 L 6.549479 64.735015 L 7.360139 62.126715 L 8.195749 59.526215 L 9.036379 56.927315 L 9.877789 54.328715 L 10.722649 51.731315 L 11.577249 49.136915 L 12.483849 46.560415 L 13.470049 44.013915 L 14.558749 41.510615 L 15.769549 39.062415 L 17.129749 36.693815 L 18.562049 34.368515 L 20.071949 32.093415 L 21.669849 29.879115 L 23.401849 27.767115 L 25.244849 25.752315 L 27.193249 23.841315 L 29.242649 22.037115 L 31.384549 20.342115 L 33.603349 18.749615 L 35.880749 17.243415 L 38.208549 15.815315 L 40.576149 14.453315" fill="none" id="54" stroke="#eed973" stroke-width="0.5" /><path d="M 4.515829 133.774515 L 4.698279 135.408515 L 4.880729 137.043515 L 5.063169 138.678515 L 5.245619 140.312515 L 5.428069 141.947515 L 5.610519 143.581515 L 5.792969 145.216515 L 5.975419 146.851515 L 6.157869 148.485515 L 6.340309 150.120515 L 6.522759 151.754515 L 6.705209 153.389515 L 6.887659 155.024515 L 7.070109 156.658515 L 7.252549 158.293515 L 7.434999 159.927515 L 7.617449 161.562515 L 7.799899 163.197515 L 7.982349 164.831515 L 8.164799 166.466515 L 8.347249 168.100515 L 8.529689 169.735515 L 8.712139 171.370515 L 8.894589 173.004515 L 9.077039 174.639515 L 9.259489 176.273515 L 9.441929 177.908515 L 9.624379 179.543515 L 9.806829 181.177515 L 9.989279 182.812515" fill="none" id="55" stroke="#008bd4" stroke-width="0.5" /><path d="M 81.720649 458.034515 L 81.225549 457.538515 L 80.726149 457.047515 L 80.188149 456.598515 L 79.647049 456.153515 L 79.092349 455.726515 L 78.507249 455.352515 L 77.851349 455.106515 L 77.193549 454.865515 L 76.532849 454.632515 L 75.877049 454.386515 L 75.226049 454.127515 L 74.603049 453.810515 L 73.997249 453.459515 L 73.397949 453.096515 L 72.801049 452.729515 L 72.320149 452.226515 L 72.039649 451.664515 L 72.288749 451.009515 L 72.683749 450.665515 L 73.346849 450.891515 L 74.007949 451.123515 L 74.666949 451.361515 L 75.326049 451.598515 L 75.985349 451.835515 L 76.666849 451.986515 L 77.358249 452.100515 L 78.050749 452.205515 L 78.743649 452.309515 L 79.440449 452.380515 L 80.137849 452.448515" fill="none" id="56" stroke="#fdb968" stroke-width="0.5" /><path d="M 70.841149 447.209515 L 71.353349 447.528515 L 71.865649 447.847515 L 72.376649 448.168515 L 72.887649 448.489515 L 73.397749 448.812515 L 73.907749 449.134515 L 74.417649 449.457515 L 74.927649 449.779515 L 75.433249 450.109515 L 75.938849 450.438515 L 76.443049 450.769515 L 76.947249 451.101515 L 77.446749 451.440515 L 77.945949 451.779515 L 78.432549 452.135515 L 78.918549 452.493515 L 79.393349 452.865515 L 79.867649 453.238515 L 80.330849 453.625515 L 80.793249 454.013515 L 81.239149 454.419515 L 81.683849 454.827515 L 82.082649 455.280515 L 82.477949 455.736515 L 82.796049 456.248515 L 83.107849 456.764515 L 83.256149 457.348515 L 83.398049 457.935515 L 83.397249 459.142515" fill="none" id="57" stroke="#6f73bc" stroke-width="0.5" /><path d="M 83.397249 459.142515 L 82.771049 458.945515 L 82.144749 458.748515 L 81.543549 458.485515 L 80.942449 458.221515 L 80.377649 457.886515 L 79.813549 457.551515 L 79.325149 457.112515 L 78.838449 456.672515 L 78.409449 456.175515 L 77.980649 455.678515 L 77.555649 455.178515 L 77.130749 454.677515 L 76.702649 454.180515 L 76.274549 453.682515 L 75.832449 453.197515 L 75.389849 452.712515 L 74.943249 452.231515 L 74.496549 451.750515 L 74.045749 451.273515 L 73.594649 450.796515 L 73.139849 450.322515 L 72.684749 449.849515 L 72.225849 449.380515 L 71.766649 448.911515 L 71.243349 448.515515 L 70.715449 448.125515 L 70.136649 447.816515 L 69.555449 447.511515 L 68.330249 447.039515" fill="none" id="58" stroke="#6f73bc" stroke-width="0.5" /><path d="M 68.330249 447.039515 L 68.381649 447.622515 L 68.450949 448.201515 L 68.604749 448.765515 L 68.840549 449.292515 L 69.168349 449.776515 L 69.588649 450.174515 L 70.050249 450.533515 L 70.512149 450.892515 L 70.974149 451.251515 L 71.443349 451.600515 L 71.920449 451.938515 L 72.399449 452.274515 L 72.881249 452.605515 L 73.363749 452.936515 L 73.847549 453.265515 L 74.331349 453.593515 L 74.815349 453.922515 L 75.299449 454.250515 L 75.784149 454.577515 L 76.268849 454.904515 L 76.753249 455.232515 L 77.238649 455.558515 L 77.732849 455.871515 L 78.226049 456.185515 L 78.675549 456.560515 L 79.124649 456.934515 L 79.483549 457.396515 L 79.840849 457.859515 L 80.461249 458.851515" fill="none" id="59" stroke="#6f73bc" stroke-width="0.5" /><path d="M 80.461249 458.851515 L 80.024049 458.559515 L 79.586749 458.268515 L 79.158449 457.963515 L 78.730349 457.659515 L 78.310649 457.343515 L 77.891049 457.026515 L 77.472149 456.709515 L 77.053349 456.392515 L 76.658649 456.045515 L 76.263949 455.698515 L 75.866349 455.355515 L 75.468749 455.011515 L 75.096149 454.641515 L 74.723549 454.270515 L 74.354549 453.896515 L 73.985649 453.522515 L 73.624049 453.141515 L 73.262349 452.760515 L 72.909849 452.370515 L 72.557349 451.980515 L 72.205049 451.590515 L 71.852849 451.200515 L 71.495549 450.815515 L 71.138249 450.430515 L 70.774549 450.051515 L 70.410749 449.672515 L 70.036849 449.302515 L 69.662749 448.934515 L 69.277149 448.577515 L 68.891249 448.220515" fill="none" id="60" stroke="#6f73bc" stroke-width="0.5" /><path d="M 68.891249 448.220515 L 69.421449 448.771515 L 69.951549 449.322515 L 70.498049 449.858515 L 71.044449 450.393515 L 71.615549 450.902515 L 72.186649 451.410515 L 72.770649 451.904515 L 73.354749 452.398515 L 73.972649 452.849515 L 74.590749 453.299515 L 75.230449 453.718515 L 75.870249 454.137515 L 76.543349 454.501515 L 77.216449 454.864515 L 77.918049 455.168515 L 78.619749 455.472515 L 79.344749 455.716515 L 80.069649 455.960515 L 80.817449 456.121515 L 81.565249 456.281515 L 82.321849 456.393515 L 83.078549 456.504515 L 83.841949 456.551515 L 84.605349 456.598515 L 85.369749 456.624515 L 86.134049 456.651515 L 86.898849 456.661515 L 87.663649 456.672515 L 89.193249 456.668515" fill="none" id="61" stroke="#6f73bc" stroke-width="0.5" /><path d="M 18.038449 235.342515 L 18.036649 240.307515 L 18.162049 245.270515 L 18.474549 250.224515 L 18.920749 255.169515 L 19.445449 260.105515 L 20.001549 265.039515 L 20.646649 269.961515 L 21.320749 274.880515 L 22.003249 279.797515 L 22.766749 284.703515 L 23.588549 289.599515 L 24.410349 294.495515 L 25.233349 299.391515 L 26.121049 304.275515 L 27.133049 309.135515 L 28.145249 313.996515 L 29.157349 318.856515 L 30.169549 323.716515 L 31.244349 328.563515 L 32.420249 333.386515 L 33.611649 338.206515 L 34.803149 343.025515 L 35.994649 347.845515 L 37.190049 352.663515 L 38.538549 357.441515 L 39.917449 362.210515 L 41.296449 366.979515 L 42.675449 371.749515 L 44.054449 376.518515 L 45.499249 381.267515 L 47.012449 385.996515 L 48.525849 390.724515 L 50.039149 395.452515 L 51.562449 400.177515 L 53.187949 404.868515 L 54.905449 409.526515 L 56.626749 414.183515 L 58.347949 418.839515 L 60.197149 423.447515 L 62.205749 427.987515 L 64.214749 432.527515 L 66.256849 437.052515 L 68.565449 441.447515 L 70.874849 445.842515 L 73.471149 450.073515 L 76.337149 454.127515 L 79.392549 458.040515 L 82.788049 461.662515 L 86.388049 465.080515 L 90.159149 468.309515" fill="none" id="62" stroke="#6f73bc" stroke-width="0.5" /><path d="M 169.363249 399.918515 L 169.922249 400.441515 L 170.481249 400.963515 L 171.092249 401.425515 L 171.705249 401.884515 L 172.389249 402.226515 L 173.074249 402.569515 L 173.777249 402.871515 L 174.481249 403.173515 L 175.213249 403.395515 L 175.946249 403.617515 L 176.681249 403.833515 L 177.415249 404.049515 L 178.152249 404.255515 L 178.890249 404.461515 L 179.631249 404.654515 L 180.371249 404.847515 L 181.116249 405.027515 L 181.860249 405.206515 L 182.608249 405.370515 L 183.355249 405.534515 L 184.105249 405.689515 L 184.855249 405.843515 L 185.604249 406.000515 L 186.354249 406.156515 L 187.103249 406.314515 L 187.852249 406.473515 L 188.598249 406.643515 L 189.345249 406.813515 L 190.090249 406.989515 L 190.835249 407.165515" fill="none" id="63" stroke="#8f6aaf" stroke-width="0.5" /><path d="M 190.835249 407.165515 L 190.047249 407.174515 L 189.258249 407.183515 L 188.470249 407.187515 L 187.682249 407.191515 L 186.894249 407.191515 L 186.105249 407.190515 L 185.317249 407.176515 L 184.529249 407.161515 L 183.743249 407.097515 L 182.958249 407.033515 L 182.176249 406.934515 L 181.394249 406.834515 L 180.622249 406.675515 L 179.850249 406.515515 L 179.090249 406.307515 L 178.330249 406.098515 L 177.585249 405.840515 L 176.840249 405.582515 L 176.116249 405.271515 L 175.391249 404.960515 L 174.681249 404.617515 L 173.971249 404.275515 L 173.291249 403.877515 L 172.610249 403.479515 L 171.943249 403.060515 L 171.275249 402.641515 L 170.642249 402.172515 L 170.008249 401.702515 L 169.397249 401.204515 L 168.787249 400.706515" fill="none" id="64" stroke="#8f6aaf" stroke-width="0.5" /><path d="M 167.298249 402.246515 L 167.951249 402.236515 L 168.603249 402.225515 L 169.255249 402.238515 L 169.908249 402.250515 L 170.558249 402.303515 L 171.209249 402.355515 L 171.858249 402.419515 L 172.507249 402.483515 L 173.151249 402.591515 L 173.794249 402.699515 L 174.434249 402.825515 L 175.075249 402.951515 L 175.707249 403.111515 L 176.340249 403.272515 L 176.965249 403.459515 L 177.590249 403.645515 L 178.207249 403.858515 L 178.824249 404.070515 L 179.428249 404.316515 L 180.032249 404.562515 L 180.630249 404.824515 L 181.228249 405.086515 L 181.808249 405.385515 L 182.388249 405.684515 L 182.964249 405.990515 L 183.539249 406.297515 L 184.104249 406.624515 L 184.668249 406.952515 L 185.783249 407.630515" fill="none" id="65" stroke="#8f6aaf" stroke-width="0.5" /><path d="M 72.109849 450.060515 L 74.546049 446.967515 L 77.072849 443.948515 L 79.688749 441.005515 L 82.467349 438.217515 L 85.366849 435.554515 L 88.353849 432.989515 L 91.455449 430.566515 L 94.626049 428.232515 L 97.874249 426.008515 L 101.166249 423.848515 L 104.505249 421.763515 L 107.887249 419.747515 L 111.282249 417.753515 L 114.701249 415.801515 L 118.150249 413.902515 L 121.639249 412.079515 L 125.182249 410.362515 L 128.762249 408.724515 L 132.377249 407.166515 L 136.030249 405.698515 L 139.718249 404.321515 L 143.467249 403.120515 L 147.258249 402.059515 L 151.073249 401.089515 L 154.916249 400.236515 L 158.802249 399.613515 L 162.724249 399.277515 L 166.661249 399.234515 L 170.594249 399.411515 L 174.514249 399.772515" fill="none" id="66" stroke="#8f6aaf" stroke-width="0.5" /><path d="M 67.621449 447.792515 L 68.584849 446.738515 L 69.548149 445.685515 L 70.538349 444.657515 L 71.532649 443.633515 L 72.546649 442.629515 L 73.567949 441.632515 L 74.626349 440.675515 L 75.710849 439.748515 L 76.800249 438.825515 L 77.896049 437.911515 L 78.998649 437.005515 L 80.117249 436.118515 L 81.241849 435.240515 L 82.399049 434.404515 L 83.556749 433.569515 L 84.750349 432.787515 L 85.943949 432.004515 L 87.158349 431.254515 L 88.375949 430.509515 L 89.601549 429.778515 L 90.830249 429.052515 L 92.068249 428.342515 L 93.312949 427.643515 L 94.574649 426.977515 L 95.858649 426.354515 L 97.147949 425.742515 L 98.450349 425.158515 L 99.755249 424.580515 L 101.074249 424.035515 L 102.394249 423.491515" fill="none" id="67" stroke="#8bb658" stroke-width="0.5" /><path d="M 71.843149 446.350515 L 73.742949 443.356515 L 75.813449 440.478515 L 78.083949 437.757515 L 80.577649 435.240515 L 83.202749 432.857515 L 85.931049 430.594515 L 88.759149 428.457515 L 91.671849 426.436515 L 94.661849 424.532515 L 97.725949 422.749515 L 100.847249 421.066515 L 104.011249 419.468515 L 107.224249 417.967515 L 110.473249 416.548515 L 113.770249 415.244515 L 117.118249 414.075515 L 120.496249 412.998515 L 123.907249 412.031515 L 127.349249 411.180515 L 130.820249 410.461515 L 134.322249 409.910515 L 137.838249 409.452515 L 141.361249 409.056515 L 144.892249 408.737515 L 148.430249 408.501515 L 151.973249 408.359515 L 155.517249 408.248515 L 159.060249 408.128515 L 162.602249 407.964515 L 166.143249 407.775515" fill="none" id="68" stroke="#8bb658" stroke-width="0.5" /><path d="M 68.587349 448.810515 L 69.659749 445.540515 L 71.224349 442.477515 L 73.417949 439.825515 L 76.009649 437.561515 L 78.688549 435.401515 L 81.420349 433.309515 L 84.219949 431.308515 L 87.069449 429.379515 L 89.983249 427.548515 L 92.941649 425.791515 L 95.946549 424.114515 L 99.022149 422.572515 L 102.149249 421.136515 L 105.305249 419.763515 L 108.492249 418.468515 L 111.714249 417.258515 L 114.961249 416.120515 L 118.243249 415.089515 L 121.562249 414.178515 L 124.897249 413.330515 L 128.252249 412.568515 L 131.632249 411.923515 L 135.024249 411.346515 L 138.436249 410.898515 L 141.861249 410.567515 L 145.296249 410.365515 L 148.736249 410.283515 L 152.177249 410.244515 L 155.619249 410.234515 L 159.060249 410.249515" fill="none" id="69" stroke="#8bb658" stroke-width="0.5" /><path d="M 91.125049 443.135515 L 91.935249 440.886515 L 92.934749 438.722515 L 94.156849 436.679515 L 95.795449 434.938515 L 97.563149 433.334515 L 99.398649 431.802515 L 101.270249 430.315515 L 103.203249 428.910515 L 105.173249 427.556515 L 107.185249 426.264515 L 109.222249 425.014515 L 111.275249 423.790515 L 113.348249 422.599515 L 115.438249 421.437515 L 117.539249 420.297515 L 119.657249 419.189515 L 121.796249 418.121515 L 123.943249 417.071515 L 126.101249 416.042515 L 128.273249 415.042515 L 130.454249 414.063515 L 132.645249 413.108515 L 134.846249 412.174515 L 137.061249 411.276515 L 139.295249 410.424515 L 141.540249 409.602515 L 143.795249 408.811515 L 146.063249 408.054515 L 148.349249 407.355515 L 150.642249 406.680515 L 152.943249 406.029515" fill="none" id="70" stroke="#8bb658" stroke-width="0.5" /></svg>