<?xml version="1.0" encoding="utf-8" ?>
<svg baseProfile="full" height="715.5" version="1.1" viewBox="0,0,829.5,715.5" width="829.5" xmlns="http://www.w3.org/2000/svg" xmlns:ev="http://www.w3.org/2001/xml-events" xmlns:xlink="http://www.w3.org/1999/xlink"><defs><style type="text/css"><![CDATA[
	.background { fill: white; }
	.line { stroke: firebrick; stroke-width: .1mm; }
	.blacksquare { fill: indigo; }
	.whitesquare { fill: white; }
]]></style></defs><rect class="background" height="100%" width="100%" x="0" y="0" /><path d="M 60.155510 197.139770 L 63.981728 195.973556 L 67.791054 194.757863 L 71.531645 193.340830 L 75.230215 191.820850 L 78.893976 190.215592 L 82.557738 188.610335 L 86.221499 187.005077 L 89.885260 185.399819 L 93.566605 183.835846 L 97.262707 182.306523 L 100.958809 180.777200 L 104.654912 179.247877 L 108.351014 177.718554 L 112.047116 176.189231 L 115.743218 174.659908 L 119.439320 173.130585 L 123.130903 171.590543 L 126.806299 170.012105 L 130.481695 168.433667 L 134.157090 166.855229 L 137.832486 165.276791 L 141.507882 163.698353 L 145.183278 162.119915 L 148.858673 160.541478 L 152.534069 158.963040 L 156.231148 157.436124 L 159.929193 155.911506 L 163.627238 154.386888 L 167.325284 152.862269 L 171.023329 151.337651 L 174.721374 149.813033 L 178.419420 148.288415 L 182.117465 146.763796 L 185.815510 145.239178 L 189.513555 143.714560 L 193.190651 142.140151 L 196.866238 140.562160 L 200.541826 138.984169 L 204.217413 137.406178 L 207.893001 135.828187 L 211.568589 134.250196 L 215.244176 132.672205 L 218.890634 131.029343 L 222.512062 129.330736 L 226.133489 127.632129 L 229.754916 125.933522 L 233.376343 124.234915 L 236.997770 122.536308 L 240.619198 120.837702 L 244.240625 119.139095 L 247.945215 117.637917 L 251.690532 116.233423 L 255.435848 114.828929 L 259.181165 113.424436 L 262.671635 112.664587 L 266.346959 111.085981 L 270.022283 109.507376 L 273.697606 107.928770 L 277.372930 106.350165 L 281.048254 104.771559 L 284.723578 103.192954 L 288.398901 101.614348 L 292.074225 100.035743 L 295.749549 98.457137 L 299.424873 96.878532 L 303.100196 95.299926 L 306.775520 93.721321 L 310.457333 92.158143 L 314.156045 90.635144 L 317.854758 89.112145 L 321.553470 87.589146 L 325.252183 86.066147 L 328.913173 85.341177 L 332.596924 83.782341 L 336.280676 82.223504 L 339.964428 80.664667 L 343.648180 79.105830 L 347.331932 77.546993 L 351.015684 75.988156 L 354.699435 74.429319 L 358.383187 72.870482 L 362.074580 71.330468 L 365.802598 69.880683 L 369.530617 68.430898 L 373.258636 66.981113 L 376.986654 65.531328 L 380.704583 64.056335 L 384.403295 62.533336 L 388.102008 61.010336 L 391.800720 59.487337 L 395.499432 57.964338 L 399.279099 56.863327 L 402.987323 55.363636 L 406.695548 53.863945 L 410.403772 52.364254 L 414.111996 50.864564 L 417.820221 49.364873 L 421.528445 47.865182 L 425.236669 46.365491 L 428.944894 44.865801 L 432.653118 43.366110 L 436.361342 41.866419 L 440.069567 40.366728 L 443.777791 38.867038 L 447.486015 37.367347 L 449.950790 36.816930" fill="none" id="1" stroke="black" stroke-width="0.5" /><path d="M 339.462600 0.250000 L 343.213787 1.638739 L 346.964974 3.027477 L 350.716161 4.416216 L 354.468662 5.801305 L 358.244297 7.122132 L 362.019931 8.442960 L 365.795565 9.763788 L 369.571200 11.084616 L 373.346834 12.405443 L 377.122468 13.726271 L 380.898102 15.047099 L 384.684075 16.337843 L 388.474044 17.616957 L 392.264014 18.896071 L 396.053983 20.175185 L 399.843952 21.454299 L 403.633922 22.733413 L 407.423891 24.012527 L 411.230664 25.240608 L 415.039166 26.463437 L 418.847668 27.686265 L 422.656171 28.909094 L 426.464673 30.131923 L 430.289312 31.303077 L 434.116900 32.464788 L 437.944487 33.626499 L 441.772075 34.788209 L 445.599663 35.949920 L 449.427251 37.111631 L 453.254838 38.273342 L 457.082426 39.435052 L 460.910014 40.596763 L 464.737602 41.758474 L 468.565189 42.920185 L 472.392777 44.081895 L 476.245856 45.155550 L 480.102112 46.218231 L 483.958368 47.280912 L 487.814624 48.343593 L 491.670880 49.406274 L 495.527136 50.468954 L 499.383392 51.531635 L 503.239647 52.594316 L 507.095903 53.656997 L 510.952159 54.719678 L 514.808415 55.782359 L 518.664671 56.845039 L 522.520927 57.907720 L 526.377183 58.970401 L 530.218104 60.087231 L 534.058968 61.204267 L 537.899831 62.321302 L 541.740695 63.438337 L 545.581558 64.555372 L 549.422422 65.672408 L 553.263285 66.789443 L 557.104149 67.906478 L 560.945012 69.023513 L 564.785876 70.140549 L 568.626739 71.257584 L 572.467603 72.374619 L 576.308466 73.491654 L 580.149330 74.608689 L 583.990193 75.725725 L 587.831056 76.842760 L 591.671920 77.959795 L 595.512783 79.076830 L 599.353647 80.193866 L 603.189146 81.328963 L 607.017052 82.489623 L 610.844958 83.650284 L 614.672865 84.810945 L 618.500771 85.971606 L 622.328677 87.132267 L 626.156584 88.292927 L 629.984490 89.453588 L 633.812396 90.614249 L 637.640302 91.774910 L 641.468209 92.935571 L 645.296115 94.096231 L 649.124021 95.256892 L 652.951928 96.417553 L 656.779834 97.578214 L 660.607740 98.738875 L 664.435646 99.899535 L 668.263553 101.060196 L 672.091459 102.220857 L 675.919365 103.381518 L 679.747272 104.542179 L 683.565435 105.734261 L 687.378460 106.942912 L 691.191485 108.151563 L 695.004511 109.360214 L 698.817536 110.568866 L 702.630561 111.777517 L 706.443587 112.986168 L 710.256612 114.194820 L 714.069637 115.403471 L 717.882663 116.612122 L 721.695688 117.820774 L 725.508713 119.029425 L 729.321738 120.238076 L 733.134764 121.446727 L 736.947789 122.655379 L 740.760814 123.864030 L 744.573840 125.072681 L 748.386865 126.281333 L 752.199890 127.489984 L 756.012916 128.698635 L 759.825941 129.907286 L 763.638966 131.115938 L 767.451992 132.324589 L 771.265017 133.533240 L 775.078042 134.741892 L 778.891068 135.950543 L 782.704093 137.159194 L 786.517118 138.367846 L 790.330144 139.576497 L 791.809050 140.045280" fill="none" id="2" stroke="black" stroke-width="0.5" /><path d="M 227.620080 471.486220 L 231.183593 469.669251 L 234.747106 467.852282 L 238.242984 465.909972 L 241.717953 463.928915 L 245.192923 461.947859 L 248.604618 459.860342 L 252.005532 457.754687 L 255.406445 455.649031 L 258.807359 453.543376 L 262.208273 451.437720 L 265.603613 449.323273 L 268.958772 447.145452 L 272.313932 444.967631 L 275.669091 442.789809 L 279.024250 440.611988 L 282.365202 438.412621 L 285.688572 436.186591 L 289.011942 433.960560 L 292.335312 431.734530 L 295.658682 429.508499 L 298.982052 427.282469 L 302.305422 425.056438 L 305.628793 422.830408 L 308.952163 420.604377 L 312.275533 418.378347 L 315.598903 416.152316 L 318.922273 413.926286 L 322.213297 411.653800 L 325.454150 409.309260 L 328.695004 406.964720 L 331.935857 404.620180 L 335.176711 402.275640 L 338.417564 399.931100 L 341.658418 397.586560 L 344.908929 395.255786 L 348.216635 393.006546 L 351.524341 390.757306 L 354.832047 388.508066 L 358.139753 386.258826 L 361.447459 384.009586 L 364.755165 381.760346 L 368.062871 379.511106 L 371.528249 377.858684 L 374.779655 375.528800 L 378.031061 373.198916 L 381.282467 370.869032 L 384.533873 368.539148 L 387.785279 366.209264 L 391.036685 363.879380 L 394.288091 361.549496 L 397.539497 359.219613 L 400.834645 356.952502 L 404.146319 354.709110 L 407.457994 352.465717 L 410.769669 350.222325 L 414.081344 347.978932 L 417.393019 345.735539 L 420.704693 343.492147 L 424.016368 341.248754 L 427.328043 339.005362 L 430.699069 337.340130 L 433.949458 335.008828 L 437.199847 332.677525 L 440.450236 330.346222 L 443.700625 328.014920 L 446.951014 325.683617 L 450.201402 323.352315 L 453.451791 321.021012 L 456.702180 318.689709 L 459.952569 316.358407 L 463.221436 314.053819 L 466.549637 311.835019 L 469.877838 309.616218 L 473.206039 307.397417 L 476.534241 305.178616 L 479.862442 302.959815 L 483.190643 300.741015 L 486.518844 298.522214 L 489.847045 296.303413 L 493.175246 294.084612 L 496.503448 291.865812 L 499.881706 289.887840 L 503.140334 287.568067 L 506.398961 285.248295 L 509.657589 282.928522 L 512.916217 280.608749 L 516.174844 278.288976 L 519.433472 275.969204 L 522.692100 273.649431 L 525.950728 271.329658 L 529.209355 269.009885 L 532.467983 266.690113 L 535.730474 264.375875 L 539.031703 262.117140 L 542.332932 259.858404 L 545.634161 257.599668 L 548.935390 255.340933 L 552.236619 253.082197 L 555.537848 250.823461 L 558.839077 248.564726 L 562.140306 246.305990 L 565.441535 244.047254 L 568.742764 241.788519 L 572.043993 239.529783 L 575.285528 238.594775 L 578.603373 236.360517 L 581.921217 234.126260 L 585.239062 231.892002 L 588.556906 229.657744 L 591.874751 227.423486 L 595.192596 225.189229 L 598.510440 222.954971 L 601.828285 220.720713 L 605.146129 218.486456 L 608.463974 216.252198 L 611.781818 214.017940 L 615.128562 211.827360 L 618.482336 209.647407 L 621.836111 207.467453 L 625.189885 205.287500 L 628.543659 203.107546 L 631.897434 200.927593 L 635.274905 198.784622 L 638.656861 196.648651 L 642.038816 194.512679 L 645.420772 192.376707 L 648.802728 190.240735 L 652.200040 188.714413 L 655.515322 186.476354 L 658.830604 184.238296 L 662.145885 182.000237 L 665.461167 179.762178 L 668.776448 177.524119 L 672.091730 175.286060 L 675.407012 173.048001 L 678.722293 170.809942 L 682.037575 168.571883 L 685.352857 166.333824 L 688.668138 164.095765 L 692.034750 161.936300 L 695.416705 159.800328 L 698.798661 157.664356 L 702.180617 155.528384 L 705.562572 153.392412 L 708.956635 151.276453 L 712.418340 149.272308 L 715.880045 147.268163 L 719.341750 145.264018 L 722.803456 143.259873 L 726.265161 141.255727 L 729.668613 139.550492 L 733.024102 137.373179 L 736.379591 135.195866 L 739.735081 133.018553 L 743.090570 130.841241 L 746.446059 128.663928 L 749.801549 126.486615 L 753.157038 124.309302 L 756.512527 122.131989 L 759.868017 119.954676 L 763.223506 117.777363 L 766.578996 115.600051 L 769.934485 113.422738 L 773.289974 111.245425 L 776.645464 109.068112 L 780.000953 106.890799 L 783.356442 104.713486 L 786.711932 102.536173 L 790.067421 100.358861 L 793.422910 98.181548 L 796.778400 96.004235 L 799.574861 94.977578 L 802.894576 92.746100 L 806.214291 90.514621 L 809.534005 88.283143 L 812.853720 86.051665 L 816.173435 83.820187 L 819.493149 81.588709 L 822.812864 79.357231 L 826.132579 77.125753 L 828.431100 75.580710" fill="none" id="3" stroke="black" stroke-width="0.5" /><path d="M 4.816930 222.462600 L 8.360490 224.318181 L 11.904051 226.173762 L 15.447611 228.029343 L 18.991171 229.884924 L 22.534731 231.740505 L 26.081214 233.590366 L 29.661117 235.374827 L 33.241019 237.159287 L 36.820921 238.943748 L 40.400823 240.728209 L 43.921213 242.626150 L 47.424639 244.556435 L 50.928065 246.486721 L 54.431492 248.417007 L 57.934918 250.347293 L 61.423807 252.302967 L 64.861844 254.347448 L 68.299881 256.391928 L 71.737918 258.436409 L 75.175955 260.480890 L 78.579751 262.581691 L 81.977186 264.692955 L 85.374622 266.804218 L 88.772057 268.915481 L 92.169493 271.026744 L 95.566928 273.138008 L 98.964363 275.249271 L 102.379078 277.332037 L 105.821919 279.368418 L 109.264760 281.404799 L 112.707601 283.441179 L 116.150442 285.477560 L 119.593283 287.513940 L 123.036124 289.550321 L 126.478965 291.586701 L 129.921806 293.623082 L 133.334915 295.708541 L 136.734068 297.817039 L 140.133220 299.925536 L 143.532373 302.034034 L 146.931525 304.142532 L 150.330678 306.251029 L 153.710718 308.389754 L 157.073027 310.556520 L 160.435337 312.723286 L 163.797646 314.890053 L 167.159955 317.056819 L 170.522264 319.223585 L 173.887909 321.385107 L 177.275839 323.511591 L 180.663769 325.638074 L 184.051698 327.764558 L 187.439628 329.891041 L 190.827558 332.017525 L 194.215488 334.144008 L 197.603417 336.270492 L 200.991347 338.396975 L 204.379277 340.523459 L 207.763776 342.655312 L 211.117126 344.835918 L 214.470476 347.016524 L 217.823827 349.197130 L 221.177177 351.377736 L 224.530527 353.558342 L 227.883877 355.738948 L 231.237227 357.919554 L 234.590577 360.100160 L 237.943927 362.280766 L 241.297278 364.461372 L 244.662816 366.623110 L 248.029312 368.783366 L 251.395807 370.943623 L 254.762302 373.103880 L 258.128798 375.264136 L 261.495293 377.424393 L 264.861789 379.584650 L 268.228284 381.744906 L 271.594779 383.905163 L 274.961275 386.065420 L 278.327770 388.225676 L 281.694266 390.385933 L 285.060761 392.546190 L 288.427256 394.706446 L 291.793752 396.866703 L 295.160247 399.026959 L 298.526742 401.187216 L 301.893238 403.347473 L 305.259733 405.507729 L 308.626229 407.667986 L 311.992724 409.828243 L 315.359219 411.988499 L 318.725715 414.148756 L 322.092210 416.309013 L 325.458706 418.469269 L 328.825201 420.629526 L 331.399600 422.281500" fill="none" id="4" stroke="black" stroke-width="0.5" /><path d="M 7.746060 202.832680 L 7.919066 206.828277 L 8.545255 210.778959 L 9.171444 214.729641 L 9.797633 218.680323 L 10.423821 222.631005 L 11.050010 226.581687 L 11.676199 230.532369 L 12.302388 234.483050 L 12.928576 238.433732 L 13.490316 242.393890 L 14.027684 246.357630 L 14.565053 250.321370 L 15.102422 254.285110 L 15.639791 258.248850 L 16.177160 262.212589 L 16.604290 266.189019 L 16.981571 270.171187 L 17.358851 274.153354 L 17.736132 278.135522 L 18.113412 282.117690 L 18.490693 286.099857 L 18.867973 290.082025 L 19.245254 294.064193 L 19.622534 298.046360 L 19.999815 302.028528 L 20.377095 306.010696 L 20.276306 303.156774 L 20.095654 299.160856 L 19.915001 295.164937 L 20.332134 298.633046 L 20.789762 302.606782 L 21.247391 306.580518 L 21.705019 310.554254 L 22.162647 314.527990 L 22.620275 318.501725 L 23.077903 322.475461 L 23.535531 326.449197 L 23.993159 330.422933 L 24.425695 334.399434 L 24.844434 338.377456 L 25.263174 342.355478 L 25.681913 346.333499 L 26.100653 350.311521 L 26.519392 354.289543 L 26.938131 358.267565 L 27.356871 362.245587 L 27.775610 366.223608 L 28.194350 370.201630 L 28.605412 374.180432 L 28.995221 378.161393 L 29.385031 382.142353 L 29.774840 386.123314 L 30.164649 390.104275 L 30.554458 394.085236 L 30.944267 398.066197 L 31.334077 402.047157 L 31.723886 406.028118 L 32.113695 410.009079 L 32.503504 413.990040 L 32.893314 417.971000 L 33.283123 421.951961 L 33.672932 425.932922 L 34.062741 429.913883 L 34.452550 433.894844 L 34.842360 437.875804 L 35.232169 441.856765 L 35.621978 445.837726 L 36.011787 449.818687 L 36.401597 453.799648 L 36.791406 457.780608 L 37.181215 461.761569 L 37.571024 465.742530 L 37.960833 469.723491 L 38.350643 473.704451 L 38.740452 477.685412 L 39.130261 481.666373 L 39.520070 485.647334 L 39.909880 489.628295 L 40.299689 493.609255 L 40.689498 497.590216 L 41.079307 501.571177 L 41.469116 505.552138 L 41.858926 509.533099 L 42.248735 513.514059 L 42.692891 517.489106 L 43.168535 521.460725 L 43.644178 525.432345 L 44.119821 529.403965 L 44.595465 533.375585 L 45.071108 537.347204 L 45.546751 541.318824 L 46.022395 545.290444 L 46.556382 549.254442 L 47.116950 553.214968 L 47.677517 557.175493 L 48.238084 561.136019 L 48.344490 561.887800" fill="none" id="5" stroke="black" stroke-width="0.5" /><path d="M 767.683070 63.179140 L 766.837984 67.088850 L 765.992897 70.998559 L 765.147811 74.908269 L 764.434684 78.843123 L 763.782802 82.789646 L 763.130921 86.736170 L 762.479039 90.682694 L 761.827158 94.629218 L 761.175276 98.575742 L 760.523395 102.522266 L 759.871513 106.468789 L 759.219632 110.415313 L 758.567750 114.361837 L 757.915869 118.308361 L 757.340412 122.266717 L 756.768395 126.225605 L 756.196379 130.184494 L 755.624362 134.143382 L 755.052346 138.102270 L 754.480329 142.061159 L 753.908313 146.020047 L 753.336296 149.978935 L 752.764280 153.937824 L 752.192263 157.896712 L 751.620247 161.855600 L 751.048230 165.814489 L 750.476214 169.773377 L 749.904197 173.732266 L 749.332181 177.691154 L 748.760164 181.650042 L 748.188148 185.608931 L 747.616131 189.567819 L 747.044115 193.526707 L 746.472098 197.485596 L 745.900082 201.444484 L 745.328065 205.403373 L 744.756049 209.362261 L 744.176483 213.320032 L 743.577556 217.274939 L 742.978629 221.229845 L 742.379701 225.184752 L 741.780774 229.139659 L 741.181847 233.094565 L 740.582919 237.049472 L 739.983992 241.004378 L 739.385065 244.959285 L 738.786137 248.914192 L 738.187210 252.869098 L 737.588283 256.824005 L 736.989355 260.778911 L 736.390428 264.733818 L 735.789881 268.688468 L 735.135671 272.634606 L 734.481461 276.580745 L 733.827252 280.526883 L 733.173042 284.473022 L 732.518832 288.419160 L 731.864623 292.365299 L 731.210413 296.311438 L 730.556203 300.257576 L 729.901993 304.203715 L 729.247784 308.149853 L 728.593574 312.095992 L 727.939364 316.042130 L 727.285155 319.988269 L 726.630945 323.934408 L 725.976735 327.880546 L 725.329246 331.827768 L 724.710398 335.779606 L 724.091549 339.731445 L 723.472701 343.683283 L 722.853853 347.635122 L 722.235005 351.586960 L 721.616157 355.538799 L 720.997309 359.490637 L 720.378461 363.442475 L 719.759613 367.394314 L 719.140765 371.346152 L 718.521917 375.297991 L 717.903069 379.249829 L 717.332423 383.208851 L 716.772171 387.169421 L 716.211919 391.129992 L 715.651667 395.090562 L 715.091415 399.051132 L 714.531163 403.011703 L 713.970912 406.972273 L 713.410660 410.932843 L 712.897561 414.899516 L 712.431162 418.872232 L 711.964763 422.844948 L 711.498364 426.817664 L 711.031965 430.790380 L 710.565567 434.763096 L 710.099168 438.735812 L 709.632769 442.708528 L 709.166370 446.681244 L 708.699971 450.653960 L 708.233572 454.626675 L 707.767173 458.599391 L 707.399600 461.730320" fill="none" id="6" stroke="black" stroke-width="0.5" /><path d="M 439.777560 8.706690 L 439.243351 12.638278 L 439.250683 16.638271 L 439.258014 20.638264 L 439.265345 24.638257 L 439.272677 28.638251 L 439.280008 32.638244 L 439.287339 36.638237 L 439.294671 40.638230 L 439.302002 44.638224 L 439.309333 48.638217 L 439.316665 52.638210 L 439.323996 56.638204 L 439.331328 60.638197 L 439.338659 64.638190 L 439.345990 68.638183 L 439.353322 72.638177 L 439.360653 76.638170 L 439.367984 80.638163 L 439.280098 84.637178 L 439.190552 88.636175 L 439.101007 92.635173 L 439.011461 96.634171 L 438.921915 100.633168 L 438.832369 104.632166 L 438.742823 108.631163 L 438.645305 112.629950 L 438.523178 116.628085 L 438.401051 120.626220 L 438.278924 124.624355 L 438.156797 128.622491 L 438.034671 132.620626 L 437.912544 136.618761 L 437.790417 140.616896 L 437.668290 144.615031 L 437.546163 148.613167 L 437.424036 152.611302 L 437.301910 156.609437 L 437.179783 160.607572 L 437.057656 164.605707 L 436.935529 168.603843 L 436.813402 172.601978 L 436.671322 176.599439 L 436.523315 180.596700 L 436.375307 184.593960 L 436.227299 188.591221 L 436.079292 192.588482 L 435.931284 196.585743 L 435.783276 200.583004 L 435.635268 204.580264 L 435.487261 208.577525 L 435.339253 212.574786 L 435.191245 216.572047 L 435.043238 220.569307 L 434.895230 224.566568 L 434.747222 228.563829 L 434.599215 232.561090 L 434.451207 236.558350 L 434.303199 240.555611 L 434.155192 244.552872 L 434.007184 248.550133 L 433.859176 252.547394 L 433.711168 256.544654 L 433.563161 260.541915 L 433.436743 264.539839 L 433.339306 268.538652 L 433.241869 272.537465 L 433.144432 276.536278 L 433.046996 280.535091 L 432.949559 284.533904 L 432.852122 288.532717 L 432.754685 292.531530 L 432.679034 296.530702 L 432.644603 300.530554 L 432.610171 304.530406 L 432.575740 308.530258 L 432.541309 312.530110 L 432.506877 316.529962 L 432.472446 320.529813 L 432.438014 324.529665 L 432.408929 328.529531 L 432.421731 332.529511 L 432.434533 336.529490 L 432.447335 340.529470 L 432.460137 344.529449 L 432.472939 348.529429 L 432.485741 352.529408 L 432.498543 356.529388 L 432.511345 360.529367 L 432.524147 364.529347 L 432.536949 368.529327 L 432.549751 372.529306 L 432.562553 376.529286 L 432.695787 380.526646 L 432.856915 384.523399 L 433.018043 388.520152 L 433.179171 392.516906 L 433.340299 396.513659 L 433.501427 400.510413 L 433.662555 404.507166 L 433.823683 408.503919 L 434.042063 412.497849 L 434.274974 416.491063 L 434.507885 420.484276 L 434.740796 424.477489 L 434.973707 428.470703 L 435.206618 432.463916 L 435.439529 436.457129 L 435.651570 440.092520" fill="none" id="7" stroke="black" stroke-width="0.5" /><path d="M 0.250000 481.998030 L 3.651060 484.103449 L 7.052121 486.208868 L 10.453181 488.314287 L 13.785354 490.523597 L 17.048495 492.837017 L 20.311635 495.150438 L 23.574776 497.463858 L 26.866695 499.735795 L 30.176303 501.982236 L 33.485911 504.228676 L 36.795519 506.475117 L 40.105127 508.721558 L 43.423278 510.955241 L 46.760527 513.160411 L 50.097775 515.365581 L 53.435023 517.570751 L 56.772271 519.775921 L 60.109519 521.981092 L 63.446767 524.186262 L 66.784015 526.391432 L 70.121264 528.596602 L 73.458512 530.801772 L 76.795760 533.006942 L 80.133008 535.212112 L 83.470256 537.417282 L 86.807504 539.622452 L 90.144752 541.827622 L 93.482001 544.032792 L 96.819249 546.237962 L 100.156497 548.443132 L 103.493745 550.648302 L 106.830993 552.853472 L 110.168241 555.058642 L 113.505489 557.263812 L 116.842738 559.468982 L 120.179986 561.674152 L 123.517234 563.879322 L 126.854482 566.084492 L 130.191730 568.289662 L 133.528978 570.494832 L 136.866226 572.700002 L 140.203475 574.905172 L 143.540723 577.110342 L 146.877971 579.315512 L 150.215219 581.520682 L 153.552467 583.725852 L 156.889715 585.931022 L 160.226963 588.136192 L 163.564211 590.341362 L 166.901460 592.546532 L 170.238708 594.751702 L 173.575956 596.956872 L 176.913204 599.162042 L 180.250452 601.367212 L 183.572870 603.594582 L 186.887661 605.833367 L 190.202452 608.072153 L 193.517242 610.310939 L 196.832033 612.549725 L 200.146824 614.788511 L 203.461615 617.027296 L 206.776406 619.266082 L 210.091196 621.504868 L 213.405987 623.743654 L 216.720778 625.982440 L 220.035569 628.221226 L 223.350360 630.460011 L 226.665150 632.698797 L 229.981988 634.934531 L 233.311214 637.151795 L 236.640439 639.369059 L 239.969664 641.586323 L 243.298889 643.803587 L 246.628114 646.020851 L 249.957340 648.238115 L 253.286565 650.455379 L 256.615790 652.672643 L 259.945015 654.889907 L 263.274240 657.107171 L 266.603466 659.324435 L 269.932691 661.541699 L 273.261916 663.758963 L 276.591141 665.976227 L 279.920366 668.193491 L 283.249592 670.410755 L 286.578817 672.628019 L 289.915867 674.833421 L 293.264488 677.021282 L 296.613109 679.209144 L 299.964223 681.393080 L 303.367541 683.494849 L 306.770858 685.596618 L 310.174175 687.698386 L 313.577492 689.800155 L 316.980809 691.901924 L 320.384126 694.003693 L 323.787443 696.105462 L 327.190760 698.207231 L 330.594077 700.309000 L 333.993101 702.417547 L 337.347478 704.596572 L 340.701856 706.775598 L 344.056233 708.954623 L 347.410611 711.133648 L 350.764988 713.312674 L 353.698820 715.218510" fill="none" id="8" stroke="black" stroke-width="0.5" /><path d="M 319.368110 364.690950 L 319.756739 368.672026 L 320.145369 372.653102 L 320.533998 376.634178 L 320.818091 380.623420 L 321.052354 384.616554 L 321.286617 388.609689 L 321.431545 392.606672 L 321.541622 396.605157 L 321.651699 400.603642 L 321.761776 404.602127 L 321.871853 408.600612 L 321.981930 412.599098 L 322.092007 416.597583 L 322.202084 420.596068 L 322.312161 424.594553 L 322.422238 428.593038 L 322.528692 432.591610 L 322.611461 436.590754 L 322.694231 440.589898 L 322.777001 444.589041 L 322.859771 448.588185 L 322.942541 452.587328 L 323.025311 456.586472 L 323.108081 460.585615 L 323.190850 464.584759 L 323.273620 468.583902 L 323.356390 472.583046 L 323.439160 476.582190 L 323.521930 480.581333 L 323.604700 484.580477 L 323.687470 488.579620 L 323.770239 492.578764 L 323.853009 496.577907 L 323.936010 500.577045 L 324.044591 504.575571 L 324.153173 508.574097 L 324.261754 512.572623 L 324.370336 516.571149 L 324.478918 520.569675 L 324.587499 524.568201 L 324.696081 528.566727 L 324.804662 532.565253 L 324.913244 536.563779 L 325.021826 540.562305 L 325.130407 544.560831 L 325.238989 548.559357 L 325.347571 552.557883 L 325.456152 556.556409 L 325.564734 560.554935 L 325.673315 564.553461 L 325.781897 568.551987 L 325.890479 572.550513 L 325.999060 576.549039 L 326.107642 580.547565 L 326.233329 584.545574 L 326.366200 588.543367 L 326.499072 592.541159 L 326.631944 596.538952 L 326.764815 600.536745 L 326.897687 604.534537 L 327.030559 608.532330 L 327.163430 612.530122 L 327.296302 616.527915 L 327.429174 620.525707 L 327.562045 624.523500 L 327.694917 628.521292 L 327.827789 632.519085 L 327.960660 636.516877 L 328.093532 640.514670 L 328.226404 644.512462 L 328.359275 648.510255 L 328.492147 652.508047 L 328.645450 656.505045 L 328.823522 660.501080 L 329.001594 664.497114 L 329.179667 668.493148 L 329.357739 672.489183 L 329.535812 676.485217 L 329.713884 680.481251 L 329.891957 684.477285 L 330.070029 688.473320 L 330.248101 692.469354 L 330.426174 696.465388 L 330.549210 699.226380" fill="none" id="9" stroke="black" stroke-width="0.5" /><path d="M 329.005900 703.431100 L 332.587695 701.650441 L 336.106326 699.753405 L 339.497602 697.636672 L 342.787525 695.361501 L 345.952987 692.917456 L 349.100079 690.448486 L 352.247172 687.979517 L 355.394265 685.510548 L 358.541357 683.041579 L 361.688450 680.572610 L 364.776347 678.031310 L 367.818920 675.434631 L 370.861494 672.837951 L 373.904068 670.241271 L 376.946641 667.644592 L 379.989215 665.047912 L 383.031789 662.451232 L 386.074362 659.854553 L 389.116936 657.257873 L 392.159510 654.661193 L 395.202083 652.064513 L 398.225169 649.445370 L 401.225275 646.799739 L 404.225381 644.154108 L 407.225487 641.508477 L 410.225593 638.862846 L 413.225699 636.217215 L 416.225806 633.571584 L 419.225912 630.925953 L 422.226018 628.280322 L 425.226124 625.634691 L 428.226230 622.989060 L 431.226336 620.343430 L 434.226442 617.697799 L 437.226548 615.052168 L 440.226655 612.406537 L 443.226761 609.760906 L 446.316070 607.220280 L 449.411899 604.687329 L 452.507729 602.154378 L 455.620310 600.312828 L 458.586552 597.629284 L 461.552793 594.945739 L 464.519035 592.262194 L 467.485276 589.578650 L 470.451517 586.895105 L 473.417759 584.211561 L 476.384000 581.528016 L 479.482393 579.002792 L 482.652889 576.563949 L 485.823385 574.125106 L 488.993881 571.686263 L 492.100441 569.168190 L 495.153987 566.584421 L 498.207532 564.000652 L 501.261077 561.416883 L 503.843613 560.232388 L 506.885729 557.635173 L 509.927846 555.037958 L 512.969962 552.440742 L 516.012079 549.843527 L 519.054195 547.246312 L 522.096312 544.649096 L 525.138428 542.051881 L 528.180545 539.454666 L 531.222661 536.857451 L 534.264778 534.260235 L 537.306894 531.663020 L 540.349011 529.065805 L 543.391127 526.468589 L 546.501136 523.954253 L 549.646409 521.482967 L 552.791682 519.011681 L 555.936956 516.540395 L 559.258532 514.613286 L 562.369415 512.167628 L 565.440317 509.604513 L 568.511219 507.041398 L 571.582122 504.478283 L 574.653024 501.915167 L 577.723926 499.352052 L 580.794828 496.788937 L 583.865730 494.225822 L 586.936633 491.662706 L 589.998497 489.088966 L 593.021254 486.469243 L 596.044010 483.849521 L 599.066766 481.229799 L 602.089523 478.610077 L 604.792753 477.406380 L 607.838465 475.090335 L 610.935951 472.559410 L 614.033437 470.028486 L 617.130924 467.497561 L 620.228410 464.966637 L 623.325896 462.435712 L 626.423382 459.904788 L 629.520869 457.373864 L 632.618355 454.842939 L 635.715841 452.312015 L 638.813328 449.781090 L 641.910814 447.250166 L 645.008300 444.719241 L 648.105786 442.188317 L 651.203273 439.657392 L 654.300759 437.126468 L 657.398245 434.595543 L 660.495732 432.064619 L 663.593218 429.533694 L 666.690704 427.002770 L 669.697915 425.154815 L 672.772614 422.596255 L 675.847313 420.037696 L 678.922012 417.479137 L 681.996711 414.920578 L 685.071410 412.362018 L 688.146110 409.803459 L 691.220809 407.244900 L 694.295508 404.686340 L 697.370207 402.127781 L 700.445468 399.569934 L 703.645468 397.169934 L 706.845468 394.769934 L 710.045468 392.369934 L 713.245468 389.969934 L 716.445468 387.569934 L 719.645468 385.169934 L 722.845468 382.769934 L 726.045468 380.369934 L 729.245468 377.969934 L 732.447537 375.587948 L 735.684281 374.021710 L 738.794395 371.506320 L 741.904510 368.990930 L 745.014624 366.475539 L 748.124739 363.960149 L 751.234853 361.444759 L 754.344968 358.929369 L 757.455082 356.413978 L 760.565196 353.898588 L 763.689920 351.402771 L 766.986088 349.136656 L 770.282255 346.870541 L 773.578423 344.604425 L 776.874591 342.338310 L 780.136898 340.026155 L 783.282171 337.554868 L 786.427445 335.083582 L 789.572718 332.612296 L 792.717991 330.141010 L 793.431100 329.580710" fill="none" id="10" stroke="black" stroke-width="0.5" /><path d="M 4.470470 536.210630 L 8.156716 534.657700 L 11.842962 533.104770 L 15.451342 531.378704 L 19.040562 529.613675 L 22.606832 527.802124 L 26.173102 525.990573 L 29.739372 524.179021 L 33.305642 522.367470 L 36.871912 520.555919 L 40.438182 518.744367 L 43.970639 516.868098 L 47.494466 514.975310 L 51.018292 513.082522 L 54.542118 511.189733 L 58.036530 509.243469 L 61.521937 507.280833 L 65.007343 505.318196 L 68.492750 503.355560 L 71.978156 501.392923 L 75.463563 499.430287 L 78.948969 497.467650 L 82.434375 495.505013 L 85.919782 493.542377 L 89.405188 491.579740 L 92.890595 489.617104 L 96.376001 487.654467 L 99.861407 485.691831 L 103.346814 483.729194 L 106.832220 481.766558 L 110.317627 479.803921 L 113.803033 477.841285 L 117.288439 475.878648 L 120.773846 473.916012 L 124.258586 471.952204 L 127.726827 469.959391 L 131.195068 467.966578 L 134.663309 465.973765 L 138.131550 463.980951 L 141.599791 461.988138 L 145.068032 459.995325 L 148.536273 458.002512 L 151.957148 455.929795 L 155.370024 453.843583 L 158.782899 451.757371 L 162.195775 449.671159 L 165.608650 447.584947 L 169.021526 445.498735 L 172.434401 443.412523 L 175.861488 441.351170 L 179.390900 439.468817 L 182.920311 437.586464 L 186.449723 435.704111 L 189.979135 433.821758 L 192.963573 433.244101 L 196.383459 431.169400 L 199.803344 429.094700 L 203.223230 427.019999 L 206.643116 424.945299 L 210.063001 422.870598 L 213.482887 420.795898 L 216.902773 418.721197 L 220.322658 416.646497 L 223.806854 414.681848 L 227.293157 412.720803 L 230.779459 410.759758 L 234.265761 408.798713 L 237.770572 406.871578 L 241.305724 405.000027 L 244.840875 403.128476 L 248.376027 401.256925 L 251.911179 399.385374 L 255.191226 398.760671 L 258.679899 396.803846 L 262.168571 394.847020 L 265.657244 392.890195 L 269.145916 390.933370 L 272.634588 388.976545 L 276.123261 387.019720 L 279.611933 385.062894 L 283.100606 383.106069 L 286.589278 381.149244 L 290.077950 379.192419 L 293.566623 377.235593 L 297.055295 375.278768 L 300.543968 373.321943 L 304.032640 371.365118 L 307.549160 369.459384 L 311.084312 367.587833 L 314.619463 365.716282 L 318.154615 363.844731 L 321.689767 361.973181 L 325.263744 360.445796 L 328.740669 358.468174 L 332.217595 356.490551 L 335.694520 354.512929 L 339.171446 352.535307 L 342.648371 350.557685 L 346.125297 348.580063 L 349.602222 346.602441 L 353.079148 344.624819 L 356.556073 342.647197 L 360.061908 340.722390 L 363.601581 338.859404 L 367.141254 336.996419 L 370.680926 335.133433 L 374.220599 333.270447 L 377.756269 331.400060 L 381.252899 329.457489 L 384.749528 327.514917 L 388.246157 325.572345 L 391.742786 323.629773 L 395.239415 321.687202 L 398.278953 321.039439 L 401.774396 319.094733 L 405.269839 317.150028 L 408.765282 315.205322 L 412.260725 313.260617 L 415.756167 311.315911 L 419.251610 309.371206 L 422.747053 307.426500 L 426.242496 305.481795 L 429.737939 303.537089 L 433.233382 301.592384 L 436.728825 299.647678 L 440.224267 297.702973 L 443.719710 295.758268 L 447.215153 293.813562 L 450.740709 291.925905 L 454.318418 290.137051 L 457.896127 288.348197 L 461.473835 286.559342 L 465.051544 284.770488 L 468.641298 283.165174 L 472.140208 281.226713 L 475.639118 279.288253 L 479.138028 277.349793 L 482.636938 275.411332 L 486.135848 273.472872 L 489.634758 271.534412 L 493.133668 269.595951 L 496.632578 267.657491 L 500.131488 265.719031 L 503.630398 263.780570 L 507.129308 261.842110 L 510.628218 259.903650 L 514.127128 257.965189 L 517.626038 256.026729 L 518.431100 255.580710" fill="none" id="11" stroke="black" stroke-width="0.5" /><path d="M 419.777560 292.005910 L 423.547619 293.342567 L 427.317679 294.679224 L 431.087738 296.015881 L 434.857798 297.352537 L 438.627857 298.689194 L 442.397917 300.025851 L 446.167976 301.362508 L 449.938036 302.699165 L 453.708095 304.035822 L 457.478155 305.372479 L 461.248214 306.709136 L 465.001381 308.092490 L 468.754068 309.477171 L 472.506754 310.861853 L 476.259441 312.246534 L 480.012128 313.631215 L 483.764815 315.015896 L 487.517501 316.400578 L 491.270188 317.785259 L 495.022875 319.169940 L 498.775562 320.554621 L 502.528248 321.939303 L 506.297224 323.279001 L 510.066430 324.618061 L 513.835637 325.957121 L 517.604843 327.296182 L 521.374050 328.635242 L 525.143256 329.974302 L 528.912463 331.313363 L 532.681669 332.652423 L 536.450876 333.991483 L 540.220082 335.330544 L 543.989289 336.669604 L 547.743129 338.050861 L 551.490802 339.449057 L 555.238474 340.847252 L 558.986147 342.245448 L 562.733819 343.643643 L 566.481492 345.041838 L 570.229164 346.440034 L 573.976837 347.838229 L 577.724510 349.236425 L 581.472182 350.634620 L 585.190726 352.108139 L 588.904011 353.595255 L 592.617296 355.082371 L 596.320348 356.594348 L 600.004605 358.151990 L 603.688863 359.709632 L 607.373120 361.267274 L 611.057377 362.824916 L 614.741634 364.382558 L 618.425892 365.940200 L 622.110149 367.497842 L 625.794406 369.055484 L 629.478663 370.613126 L 633.162921 372.170768 L 636.847178 373.728410 L 640.531435 375.286052 L 644.215692 376.843694 L 647.899949 378.401336 L 651.570176 379.991653 L 655.236759 381.590455 L 658.903343 383.189257 L 662.569926 384.788059 L 666.236509 386.386861 L 669.903092 387.985662 L 673.569675 389.584464 L 677.223841 391.211032 L 680.859872 392.878149 L 684.495902 394.545267 L 688.131933 396.212385 L 691.767964 397.879503 L 695.403994 399.546620 L 699.040025 401.213738 L 702.676055 402.880856 L 706.312086 404.547973 L 709.948117 406.215091 L 713.584147 407.882209 L 717.199989 409.592142 L 720.799491 411.336729 L 724.398993 413.081317 L 727.998496 414.825904 L 731.597998 416.570491 L 735.197500 418.315079 L 738.797002 420.059666 L 739.872040 420.580710" fill="none" id="12" stroke="black" stroke-width="0.5" /><path d="M 167.053150 291.486220 L 167.076438 295.486152 L 167.099727 299.486084 L 167.222085 303.481275 L 167.580941 307.465145 L 167.939798 311.449015 L 168.298654 315.432885 L 168.657511 319.416756 L 169.016367 323.400626 L 169.375224 327.384496 L 169.734080 331.368366 L 170.092937 335.352237 L 170.371872 339.342378 L 170.638815 343.333461 L 170.905758 347.324544 L 171.172701 351.315626 L 171.439644 355.306709 L 171.667014 359.299994 L 171.844441 363.296057 L 172.021867 367.292120 L 172.199294 371.288183 L 172.376721 375.284246 L 172.554147 379.280309 L 172.731574 383.276372 L 172.909001 387.272435 L 173.086427 391.268498 L 173.263854 395.264561 L 173.441280 399.260624 L 173.618707 403.256687 L 173.764830 407.253916 L 173.885182 411.252105 L 174.005534 415.250294 L 174.125886 419.248483 L 174.246238 423.246672 L 174.366590 427.244861 L 174.486942 431.243050 L 174.607294 435.241239 L 174.727646 439.239428 L 174.817903 443.238349 L 174.892008 447.237662 L 174.966112 451.236976 L 175.040217 455.236289 L 175.114322 459.235603 L 175.188426 463.234916 L 175.262531 467.234230 L 175.336636 471.233543 L 175.410741 475.232857 L 175.484845 479.232170 L 175.539013 483.231743 L 175.568832 487.231632 L 175.598650 491.231521 L 175.628468 495.231410 L 175.658286 499.231298 L 175.688105 503.231187 L 175.717923 507.231076 L 175.747741 511.230965 L 175.777559 515.230854 L 175.807378 519.230743 L 175.837196 523.230632 L 175.867014 527.230520 L 175.896832 531.230409 L 175.926651 535.230298 L 175.956469 539.230187 L 175.986287 543.230076 L 176.016105 547.229965 L 176.045924 551.229854 L 176.075742 555.229742 L 176.105560 559.229631 L 176.135378 563.229520 L 176.165197 567.229409 L 176.203813 571.229196 L 176.266403 575.228706 L 176.328993 579.228217 L 176.391583 583.227727 L 176.454173 587.227237 L 176.516763 591.226748 L 176.579353 595.226258 L 176.641943 599.225768 L 176.741087 603.224474 L 176.854427 607.222868 L 176.967767 611.221262 L 177.081106 615.219656 L 177.194446 619.218050 L 177.307786 623.216444 L 177.421126 627.214838 L 177.545123 631.212864 L 177.707512 635.209567 L 177.869902 639.206269 L 178.032291 643.202971 L 178.194680 647.199674 L 178.357070 651.196376 L 178.519459 655.193079 L 178.681848 659.189781 L 178.706690 659.801180" fill="none" id="13" stroke="black" stroke-width="0.5" /><path d="M 606.013780 45.580710 L 605.338777 49.523345 L 604.770138 53.481010 L 604.326261 57.456306 L 603.893508 61.432514 L 603.683033 65.426973 L 603.472557 69.421432 L 603.262081 73.415890 L 603.051606 77.410349 L 602.841130 81.404808 L 602.630654 85.399266 L 602.400398 89.392383 L 602.069391 93.378664 L 601.738384 97.364944 L 601.407376 101.351225 L 601.014008 105.331738 L 600.608209 109.311100 L 600.202409 113.290463 L 599.796610 117.269825 L 599.390810 121.249188 L 598.985011 125.228551 L 598.528591 129.202229 L 598.041745 133.172491 L 597.554899 137.142753 L 597.068053 141.113016 L 596.581207 145.083278 L 596.094362 149.053540 L 595.607516 153.023802 L 595.120670 156.994064 L 594.633824 160.964326 L 594.146979 164.934588 L 593.660133 168.904850 L 593.173287 172.875112 L 592.686441 176.845374 L 592.199595 180.815637 L 591.712750 184.785899 L 591.247210 188.758575 L 590.833307 192.737103 L 590.419403 196.715631 L 590.005499 200.694159 L 589.591596 204.672687 L 589.177692 208.651214 L 588.763789 212.629742 L 588.349885 216.608270 L 587.935981 220.586798 L 587.522078 224.565326 L 587.108174 228.543854 L 586.694271 232.522382 L 586.280367 236.500909 L 585.866464 240.479437 L 585.452560 244.457965 L 585.038656 248.436493 L 584.624753 252.415021 L 584.210849 256.393549 L 583.796946 260.372076 L 583.383042 264.350604 L 582.969139 268.329132 L 582.555235 272.307660 L 582.141331 276.286188 L 581.727428 280.264716 L 581.313524 284.243244 L 580.899621 288.221771 L 580.485717 292.200299 L 580.071813 296.178827 L 579.657910 300.157355 L 579.244006 304.135883 L 578.830103 308.114411 L 578.416199 312.092938 L 578.002296 316.071466 L 577.588392 320.049994 L 577.174488 324.028522 L 576.760585 328.007050 L 576.346681 331.985578 L 575.901261 335.960677 L 575.449949 339.935135 L 574.998638 343.909593 L 574.547326 347.884051 L 574.096014 351.858509 L 573.644702 355.832968 L 573.193390 359.807426 L 572.742078 363.781884 L 572.290766 367.756342 L 571.839454 371.730800 L 571.388142 375.705258 L 570.936830 379.679716 L 570.485519 383.654175 L 570.034207 387.628633 L 569.582895 391.603091 L 569.131583 395.577549 L 568.680271 399.552007 L 568.228959 403.526465 L 567.777647 407.500923 L 567.326335 411.475382 L 566.875023 415.449840 L 566.423711 419.424298 L 565.972400 423.398756 L 565.521088 427.373214 L 565.069776 431.347672 L 564.618464 435.322131 L 564.564960 435.793310" fill="none" id="14" stroke="black" stroke-width="0.5" /><path d="M 159.903540 321.273620 L 163.585867 319.711420 L 167.268194 318.149220 L 170.950521 316.587020 L 174.524867 314.802253 L 178.031012 312.876908 L 181.537156 310.951564 L 185.043301 309.026220 L 188.549446 307.100876 L 192.055590 305.175532 L 195.561735 303.250188 L 199.067879 301.324844 L 202.574024 299.399500 L 206.041137 297.405141 L 209.497968 295.392599 L 212.909357 293.304434 L 216.309108 291.196903 L 219.708860 289.089371 L 223.108611 286.981839 L 226.508363 284.874308 L 229.908114 282.766776 L 233.307866 280.659244 L 236.721427 278.574211 L 240.139688 276.496836 L 243.557950 274.419461 L 246.976212 272.342086 L 250.394473 270.264710 L 253.812735 268.187335 L 257.230997 266.109960 L 260.649258 264.032585 L 264.067520 261.955210 L 267.485782 259.877835 L 270.904043 257.800460 L 274.322305 255.723085 L 277.740567 253.645710 L 281.158828 251.568335 L 284.577090 249.490959 L 287.995070 247.413129 L 291.379911 245.281733 L 294.764752 243.150337 L 298.149594 241.018941 L 301.534435 238.887545 L 304.919276 236.756149 L 308.304118 234.624753 L 311.688959 232.493357 L 315.073801 230.361961 L 318.458642 228.230565 L 321.843483 226.099169 L 325.228325 223.967773 L 328.411025 223.026857 L 331.786786 220.881108 L 335.162547 218.735359 L 338.538308 216.589611 L 341.914069 214.443862 L 345.289830 212.298114 L 348.665591 210.152365 L 352.041353 208.006617 L 355.417114 205.860868 L 358.818554 203.756909 L 362.257973 201.714754 L 365.697392 199.672599 L 369.136811 197.630444 L 372.576230 195.588289 L 376.015649 193.546134 L 379.455068 191.503979 L 382.894487 189.461824 L 386.333906 187.419669 L 389.522598 185.968053 L 392.543854 184.824093 L 395.957648 182.739385 L 399.371443 180.654677 L 402.785238 178.569970 L 406.199032 176.485262 L 409.612827 174.400555 L 413.026622 172.315847 L 416.440417 170.231140 L 419.854211 168.146432 L 423.268006 166.061725 L 426.681801 163.977017 L 430.095595 161.892309 L 433.509390 159.807602 L 436.923185 157.722894 L 440.336980 155.638187 L 443.783781 153.608545 L 447.231517 151.580464 L 450.679254 149.552384 L 454.126991 147.524303 L 457.576264 145.498890 L 461.060873 143.534838 L 464.545482 141.570786 L 468.030091 139.606733 L 471.514699 137.642681 L 474.999308 135.678629 L 478.483917 133.714577 L 481.968526 131.750524 L 485.453135 129.786472 L 488.937744 127.822420 L 492.422352 125.858368 L 495.906961 123.894315 L 499.391570 121.930263 L 502.876179 119.966211 L 506.360788 118.002159 L 509.845397 116.038106 L 513.311566 114.042648 L 516.724693 111.956848 L 520.137820 109.871047 L 523.550948 107.785247 L 526.964075 105.699447 L 530.377202 103.613647 L 533.859849 102.529321 L 537.324433 100.530156 L 540.789017 98.530991 L 544.253600 96.531826 L 547.718184 94.532661 L 551.182767 92.533496 L 554.647351 90.534332 L 558.111935 88.535167 L 561.576518 86.536002 L 565.041102 84.536837 L 568.504578 82.535807 L 571.917705 80.450007 L 575.330833 78.364207 L 578.743960 76.278407 L 582.157087 74.192607 L 585.570215 72.106807 L 589.045782 70.128109 L 592.542411 68.185537 L 596.039040 66.242965 L 599.535669 64.300394 L 603.032299 62.357822 L 606.484167 61.505898 L 609.966456 59.537736 L 613.448745 57.569574 L 616.931034 55.601411 L 620.413323 53.633249 L 623.895612 51.665087 L 627.377901 49.696925 L 630.860190 47.728762 L 634.342479 45.760600 L 637.824768 43.792438 L 641.307057 41.824276 L 644.789347 39.856113 L 648.271636 37.887951 L 651.753925 35.919789 L 655.236214 33.951627 L 658.718503 31.983464 L 662.276685 30.157917 L 665.854394 28.369063 L 669.432103 26.580208 L 673.009812 24.791354 L 676.587521 23.002500 L 680.164843 21.511530 L 683.634734 19.521590 L 687.104624 17.531650 L 690.574514 15.541710 L 694.044405 13.551770 L 697.514295 11.561829 L 700.984185 9.571889 L 704.454075 7.581949 L 707.923966 5.592009 L 711.393856 3.602069 L 711.431100 3.580710" fill="none" id="15" stroke="black" stroke-width="0.5" /><path d="M 152.250000 620.375990 L 155.218652 617.695113 L 158.187305 615.014235 L 161.312264 612.518325 L 164.471097 610.065148 L 167.696435 607.699309 L 170.921774 605.333471 L 174.147112 602.967632 L 177.459009 600.726999 L 180.811634 598.545278 L 184.164259 596.363557 L 187.516884 594.181836 L 190.869509 592.000115 L 194.222134 589.818394 L 197.574758 587.636673 L 200.901583 585.415936 L 204.221709 583.185070 L 207.541835 580.954204 L 210.861961 578.723339 L 214.182087 576.492473 L 217.502214 574.261607 L 220.822340 572.030741 L 224.142466 569.799875 L 227.462592 567.569010 L 230.799556 565.363872 L 234.172803 563.214173 L 237.546050 561.064474 L 240.919297 558.914775 L 244.292544 556.765076 L 247.665790 554.615377 L 251.039037 552.465678 L 254.412284 550.315979 L 257.785531 548.166280 L 261.158778 546.016581 L 264.532025 543.866882 L 267.905271 541.717183 L 271.278518 539.567484 L 274.651765 537.417785 L 278.025012 535.268086 L 281.398259 533.118387 L 284.771506 530.968688 L 288.144752 528.818989 L 291.517999 526.669290 L 294.873296 524.492236 L 298.188038 522.253377 L 301.502779 520.014518 L 304.817521 517.775659 L 308.132262 515.536801 L 311.447004 513.297942 L 314.761745 511.059083 L 318.076487 508.820224 L 321.473290 506.708593 L 324.879923 504.612204 L 328.286556 502.515814 L 331.684121 500.405541 L 334.972890 498.128701 L 338.261659 495.851861 L 341.550428 493.575022 L 344.745025 491.965179 L 347.940884 490.544181 L 351.256975 488.307321 L 354.573066 486.070461 L 357.889156 483.833601 L 361.205247 481.596741 L 364.521338 479.359881 L 367.837428 477.123021 L 371.153519 474.886161 L 374.469610 472.649301 L 377.785700 470.412441 L 381.101791 468.175581 L 384.417882 465.938721 L 387.753076 463.730868 L 391.117790 461.567838 L 394.482504 459.404807 L 397.847218 457.241777 L 401.262577 455.987025 L 404.591800 453.769758 L 407.921023 451.552491 L 411.250247 449.335224 L 414.579470 447.117957 L 417.908693 444.900690 L 421.237916 442.683423 L 424.567139 440.466156 L 427.896362 438.248889 L 431.225586 436.031622 L 434.554809 433.814354 L 437.884032 431.597087 L 441.213255 429.379820 L 444.542478 427.162553 L 447.871701 424.945286 L 451.200924 422.728019 L 454.530148 420.510752 L 457.859371 418.293485 L 461.073002 416.550080 L 464.387438 414.310769 L 467.701874 412.071459 L 471.016311 409.832148 L 474.330747 407.592837 L 477.645183 405.353526 L 480.959619 403.114216 L 484.274056 400.874905 L 487.588492 398.635594 L 490.902928 396.396283 L 494.217364 394.156973 L 497.531800 391.917662 L 500.846237 389.678351 L 504.160673 387.439040 L 507.522938 385.273311 L 510.914931 383.153315 L 514.306925 381.033320 L 517.698918 378.913324 L 521.090911 376.793328 L 524.490747 374.989083 L 527.824740 372.778995 L 531.158733 370.568908 L 534.492727 368.358820 L 537.826720 366.148732 L 541.160714 363.938644 L 544.494707 361.728557 L 547.828701 359.518469 L 551.162694 357.308381 L 554.496688 355.098294 L 557.830681 352.888206 L 561.164674 350.678118 L 564.498668 348.468030 L 567.832661 346.257943 L 571.166655 344.047855 L 574.500648 341.837767 L 577.834642 339.627679 L 581.168635 337.417592 L 584.571614 336.181348 L 587.898291 333.960262 L 591.224967 331.739177 L 594.551644 329.518091 L 597.878321 327.297005 L 601.204997 325.075919 L 604.531674 322.854833 L 607.858351 320.633747 L 611.185027 318.412662 L 612.431100 317.580710" fill="none" id="16" stroke="black" stroke-width="0.5" /><path d="M 277.320860 379.856300 L 280.769179 381.881085 L 284.323910 383.715175 L 287.878641 385.549265 L 291.433372 387.383356 L 294.988103 389.217446 L 298.542834 391.051537 L 302.097565 392.885627 L 305.652296 394.719717 L 309.191015 396.584358 L 312.721772 398.464185 L 316.252529 400.344013 L 319.783287 402.223840 L 323.314044 404.103668 L 326.832643 406.005321 L 330.289262 408.018225 L 333.745882 410.031129 L 337.202501 412.044033 L 340.659120 414.056937 L 344.115740 416.069841 L 347.572359 418.082745 L 351.028979 420.095649 L 354.485598 422.108553 L 357.942217 424.121457 L 361.398837 426.134361 L 364.855456 428.147265 L 368.312465 430.159492 L 371.790752 432.134717 L 375.269040 434.109943 L 378.747327 436.085168 L 382.225615 438.060393 L 385.703903 440.035619 L 389.181073 442.012728 L 392.582079 444.118234 L 395.983086 446.223740 L 399.384092 448.329246 L 402.785099 450.434751 L 406.186105 452.540257 L 409.587112 454.645763 L 412.955407 456.802930 L 416.313039 458.976937 L 419.670671 461.150944 L 423.028303 463.324951 L 426.385936 465.498958 L 429.743568 467.672965 L 433.110716 469.831965 L 436.508887 471.942045 L 439.907057 474.052125 L 443.305227 476.162205 L 446.703398 478.272285 L 450.101568 480.382365 L 453.499739 482.492445 L 456.897909 484.602525 L 460.296080 486.712605 L 463.694250 488.822685 L 467.092421 490.932765 L 470.468143 493.078551 L 473.842601 495.226348 L 477.217059 497.374145 L 480.591517 499.521942 L 483.965975 501.669739 L 487.340434 503.817537 L 490.714892 505.965334 L 494.089350 508.113131 L 497.463808 510.260928 L 500.838266 512.408725 L 504.234278 514.522001 L 507.645498 516.610919 L 511.056718 518.699837 L 514.467937 520.788755 L 517.879157 522.877674 L 521.290377 524.966592 L 524.701597 527.055510 L 528.112817 529.144428 L 531.524037 531.233346 L 534.935256 533.322265 L 538.346476 535.411183 L 541.757696 537.500101 L 545.168916 539.589019 L 548.580136 541.677937 L 549.604330 542.305120" fill="none" id="17" stroke="black" stroke-width="0.5" /><path d="M 574.832670 231.746060 L 574.832670 235.746060 L 574.832670 239.746060 L 574.832670 243.746060 L 574.821505 247.745449 L 574.385221 251.721585 L 573.948937 255.697721 L 573.421106 259.662147 L 572.842505 263.620078 L 572.263905 267.578009 L 571.647535 271.530040 L 570.991227 275.475830 L 570.334918 279.421620 L 569.678610 283.367410 L 569.022302 287.313200 L 568.365993 291.258990 L 567.635515 295.191097 L 566.840653 299.111326 L 566.045792 303.031555 L 565.250931 306.951784 L 564.456069 310.872013 L 563.661208 314.792242 L 562.866346 318.712471 L 562.071485 322.632700 L 561.276624 326.552929 L 560.481762 330.473158 L 559.686901 334.393387 L 558.892040 338.313616 L 558.098014 342.234008 L 557.363079 346.165912 L 556.628143 350.097816 L 555.893207 354.029720 L 555.158272 357.961624 L 554.423336 361.893528 L 553.702647 365.827978 L 553.030072 369.771028 L 552.357497 373.714078 L 551.684922 377.657128 L 551.012348 381.600178 L 550.339773 385.543228 L 549.667198 389.486278 L 548.994623 393.429328 L 548.322048 397.372378 L 547.649473 401.315428 L 547.065260 405.272231 L 546.507594 409.233167 L 545.949929 413.194102 L 545.392263 417.155038 L 544.834597 421.115973 L 544.276932 425.076908 L 543.719266 429.037844 L 543.161600 432.998779 L 542.603934 436.959714 L 542.046269 440.920650 L 541.504468 444.883718 L 540.996309 448.851308 L 540.488150 452.818899 L 539.979991 456.786489 L 539.471832 460.754080 L 538.963673 464.721670 L 538.455514 468.689261 L 537.947355 472.656851 L 537.439196 476.624442 L 536.931037 480.592032 L 536.422878 484.559623 L 535.914719 488.527213 L 535.406560 492.494804 L 534.898401 496.462394 L 534.390242 500.429985 L 533.882083 504.397575 L 533.373924 508.365166 L 532.865765 512.332756 L 532.357606 516.300347 L 531.849447 520.267937 L 531.341288 524.235528 L 530.833129 528.203118 L 530.324970 532.170709 L 529.816811 536.138299 L 529.308652 540.105890 L 528.800493 544.073480 L 528.292334 548.041071 L 527.784175 552.008661 L 527.276016 555.976252 L 527.084640 557.470470" fill="none" id="18" stroke="black" stroke-width="0.5" /><path d="M 257.635820 107.730320 L 257.834094 111.722295 L 258.470310 115.671375 L 259.106526 119.620455 L 259.742742 123.569534 L 260.378958 127.518614 L 261.015174 131.467693 L 261.498746 135.438079 L 261.968238 139.410431 L 262.437731 143.382782 L 262.907224 147.355134 L 263.376716 151.327486 L 263.846209 155.299837 L 264.245256 159.279188 L 264.566557 163.266262 L 264.887859 167.253337 L 265.209160 171.240412 L 265.512485 175.228684 L 265.722971 179.223143 L 265.933458 183.217601 L 266.143944 187.212059 L 266.354430 191.206517 L 266.544279 195.201824 L 266.662746 199.200070 L 266.781213 203.198315 L 266.899680 207.196560 L 267.018147 211.194806 L 267.136614 215.193051 L 267.211568 219.192216 L 267.262165 223.191896 L 267.312762 227.191576 L 267.363359 231.191256 L 267.413955 235.190936 L 267.464552 239.190616 L 267.499364 243.190421 L 267.512037 247.190401 L 267.524709 251.190381 L 267.537381 255.190361 L 267.550054 259.190340 L 267.562726 263.190320 L 267.575398 267.190300 L 267.588071 271.190280 L 267.600743 275.190260 L 267.613415 279.190240 L 267.626088 283.190220 L 267.638760 287.190200 L 267.651433 291.190180 L 267.664105 295.190160 L 267.676777 299.190140 L 267.689450 303.190120 L 267.702122 307.190100 L 267.715923 311.190067 L 267.789658 315.189388 L 267.863392 319.188708 L 267.937127 323.188028 L 268.010861 327.187349 L 268.084596 331.186669 L 268.158330 335.185989 L 268.232065 339.185310 L 268.305800 343.184630 L 268.379534 347.183950 L 268.453269 351.183271 L 268.536181 355.182391 L 268.636948 359.181121 L 268.737714 363.179852 L 268.838481 367.178583 L 268.939248 371.177313 L 269.040015 375.176044 L 269.140781 379.174774 L 269.241548 383.173505 L 269.342315 387.172235 L 269.443082 391.170966 L 269.543849 395.169696 L 269.644615 399.168427 L 269.745382 403.167158 L 269.846149 407.165888 L 269.946916 411.164619 L 270.047682 415.163349 L 270.148449 419.162080 L 270.249216 423.160810 L 270.265750 423.816930" fill="none" id="19" stroke="black" stroke-width="0.5" /><path d="M 179.431100 81.557090 L 183.076178 83.204332 L 186.721256 84.851575 L 190.366333 86.498817 L 194.011411 88.146060 L 197.656489 89.793302 L 201.301567 91.440545 L 204.946645 93.087787 L 208.591722 94.735030 L 212.236800 96.382272 L 215.881878 98.029515 L 219.526956 99.676757 L 223.186588 101.290925 L 226.863581 102.865637 L 230.540575 104.440350 L 234.217568 106.015062 L 237.894562 107.589774 L 241.571555 109.164486 L 245.248549 110.739199 L 248.925542 112.313911 L 252.602536 113.888623 L 256.269630 115.486119 L 259.929858 117.099416 L 263.590087 118.712712 L 267.250316 120.326009 L 270.910545 121.939305 L 274.570773 123.552602 L 278.231002 125.165898 L 281.891231 126.779195 L 285.551460 128.392491 L 289.211688 130.005788 L 292.871917 131.619084 L 296.551443 133.187242 L 300.246735 134.718521 L 303.942028 136.249800 L 307.637320 137.781080 L 311.332612 139.312359 L 315.027904 140.843638 L 318.723196 142.374917 L 322.418488 143.906197 L 326.113780 145.437476 L 329.809072 146.968755 L 333.481789 148.553291 L 337.151814 150.144176 L 340.821839 151.735062 L 344.491864 153.325948 L 348.161889 154.916833 L 351.831914 156.507719 L 355.501939 158.098605 L 359.171963 159.689490 L 362.841988 161.280376 L 366.512013 162.871261 L 370.182038 164.462147 L 373.852063 166.053033 L 377.522088 167.643918 L 381.192113 169.234804 L 384.862138 170.825690 L 388.532163 172.416575 L 392.202188 174.007461 L 395.872213 175.598346 L 399.542238 177.189232 L 403.212262 178.780118 L 406.882287 180.371003 L 410.552312 181.961889 L 414.243129 183.503317 L 417.947460 185.012600 L 421.651791 186.521882 L 425.356121 188.031164 L 429.060452 189.540447 L 432.764783 191.049729 L 436.469114 192.559012 L 440.173445 194.068294 L 443.825201 195.697957 L 447.449934 197.389499 L 451.074667 199.081041 L 454.699399 200.772583 L 458.152390 202.689727 L 461.792059 204.348887 L 465.431727 206.008047 L 469.071396 207.667207 L 472.711065 209.326367 L 476.350733 210.985527 L 479.990402 212.644687 L 483.630070 214.303847 L 487.275490 215.950131 L 490.940120 217.553406 L 494.604749 219.156681 L 498.269378 220.759957 L 501.934008 222.363232 L 505.641230 223.864762 L 509.355137 225.350325 L 513.069044 226.835887 L 516.782950 228.321450 L 520.050655 230.402893 L 523.726542 231.980186 L 527.402429 233.557479 L 531.078316 235.134772 L 534.754204 236.712066 L 538.430091 238.289359 L 542.105978 239.866652 L 545.781865 241.443945 L 549.430332 243.080326 L 553.008040 244.869180 L 556.585749 246.658035 L 560.163458 248.446889 L 563.846981 249.832079 L 567.499785 251.462115 L 571.152590 253.092152 L 574.805395 254.722188 L 578.457863 256.352958 L 582.075511 258.059598 L 585.693160 259.766237 L 589.310808 261.472877 L 592.928457 263.179516 L 596.546106 264.886156 L 600.163754 266.592796 L 603.781403 268.299435 L 607.399051 270.006075 L 611.016700 271.712714 L 614.634348 273.419354 L 618.251997 275.125993 L 621.869646 276.832633 L 625.487294 278.539273 L 629.104943 280.245912 L 632.722591 281.952552 L 636.348028 283.642491 L 639.980620 285.317090 L 643.613211 286.991688 L 647.245803 288.666286 L 650.878394 290.340884 L 654.510986 292.015483 L 658.143577 293.690081 L 661.100390 295.053150" fill="none" id="20" stroke="black" stroke-width="0.5" /><path d="M 401.257870 141.604330 L 401.785198 145.569418 L 402.312526 149.534507 L 402.664443 153.517080 L 402.930203 157.508242 L 403.195963 161.499403 L 403.461723 165.490565 L 403.727483 169.481727 L 403.866458 173.478420 L 403.949289 177.477562 L 404.032120 181.476704 L 404.114950 185.475847 L 404.197781 189.474989 L 404.280611 193.474131 L 404.319586 197.473787 L 404.330414 201.473772 L 404.341243 205.473758 L 404.352072 209.473743 L 404.362901 213.473728 L 404.373729 217.473714 L 404.287072 221.472463 L 404.174834 225.470888 L 404.062597 229.469313 L 403.950360 233.467738 L 403.817139 237.465392 L 403.635460 241.461264 L 403.453782 245.457136 L 403.272103 249.453008 L 403.090425 253.448880 L 402.908746 257.444752 L 402.727068 261.440624 L 402.545389 265.436496 L 402.363711 269.432368 L 402.182032 273.428240 L 402.000354 277.424112 L 401.818675 281.419984 L 401.636997 285.415856 L 401.455318 289.411728 L 401.273640 293.407600 L 401.091962 297.403472 L 400.910283 301.399343 L 400.728605 305.395215 L 400.546926 309.391087 L 400.365248 313.386959 L 400.183569 317.382831 L 400.001891 321.378703 L 399.820212 325.374575 L 399.662815 329.371473 L 399.507007 333.368437 L 399.351199 337.365401 L 399.195392 341.362366 L 399.039584 345.359330 L 398.883776 349.356294 L 398.727968 353.353259 L 398.572161 357.350223 L 398.416353 361.347187 L 398.261819 365.344195 L 398.144156 369.342464 L 398.026493 373.340733 L 397.908830 377.339002 L 397.791167 381.337271 L 397.673504 385.335541 L 397.555841 389.333810 L 397.438178 393.332079 L 397.320515 397.330348 L 397.202852 401.328617 L 397.085189 405.326886 L 396.967526 409.325155 L 396.849863 413.323424 L 396.732200 417.321693 L 396.620187 421.320093 L 396.552091 425.319514 L 396.483995 429.318934 L 396.415899 433.318354 L 396.347803 437.317775 L 396.279706 441.317195 L 396.211610 445.316615 L 396.143514 449.316036 L 396.075418 453.315456 L 396.007322 457.314876 L 395.939225 461.314296 L 395.871129 465.313717 L 395.803033 469.313137 L 395.734937 473.312557 L 395.666841 477.311978 L 395.598745 481.311398 L 395.530648 485.310818 L 395.462552 489.310239 L 395.394456 493.309659 L 395.326360 497.309079 L 395.258264 501.308500 L 395.190168 505.307920 L 395.122071 509.307340 L 395.053975 513.306761 L 394.985879 517.306181 L 394.917783 521.305601 L 394.895670 522.604330" fill="none" id="21" stroke="black" stroke-width="0.5" /></svg>