<?xml version="1.0" encoding="utf-8" ?>
<svg baseProfile="full" height="675.5" version="1.1" viewBox="0,0,677.5,675.5" width="677.5" xmlns="http://www.w3.org/2000/svg" xmlns:ev="http://www.w3.org/2001/xml-events" xmlns:xlink="http://www.w3.org/1999/xlink"><defs><style type="text/css"><![CDATA[
	.background { fill: white; }
	.line { stroke: firebrick; stroke-width: .1mm; }
	.blacksquare { fill: indigo; }
	.whitesquare { fill: white; }
]]></style></defs><rect class="background" height="100%" width="100%" x="0" y="0" /><path d="M 12.312980 333.510000 L 17.155180 332.337000 L 21.976380 331.082000 L 26.773480 329.738000 L 31.526380 328.244000 L 36.219680 326.575000 L 40.872980 324.796000 L 45.485780 322.913000 L 50.041080 320.896000 L 54.588680 318.860000 L 59.134480 316.821000 L 63.692180 314.808000 L 68.261580 312.823000 L 72.837080 310.851000 L 77.413780 308.882000 L 81.990380 306.913000 L 86.566980 304.943000 L 91.143180 302.973000 L 95.683280 300.921000 L 100.203680 298.827000 L 104.710680 296.703000 L 109.213680 294.571000 L 113.716680 292.439000 L 118.221680 290.311000 L 122.730680 288.192000 L 127.267680 286.132000 L 131.810680 284.086000 L 136.357680 282.049000 L 140.903680 280.012000 L 145.450680 277.976000 L 149.997680 275.938000 L 154.543680 273.900000 L 159.082680 271.845000 L 163.618680 269.783000 L 168.151680 267.715000 L 172.683680 265.645000 L 177.214680 263.575000 L 181.746680 261.505000 L 186.278680 259.435000 L 190.809680 257.363000 L 195.332680 255.273000 L 199.840680 253.152000 L 204.339680 251.010000 L 208.836680 248.866000 L 213.335680 246.726000 L 217.845680 244.608000 L 222.427680 242.654000 L 227.027680 240.742000 L 231.593680 238.747000 L 236.105680 236.636000 L 240.609680 234.505000 L 245.113680 232.375000 L 249.641680 230.296000 L 254.208680 228.308000 L 258.807680 226.391000 L 263.428680 224.528000 L 268.026680 222.609000 L 272.608680 220.654000 L 277.176680 218.665000 L 281.772680 216.740000 L 286.346680 214.766000 L 290.892680 212.728000 L 295.381680 210.566000 L 299.869680 208.404000 L 304.358680 206.242000 L 308.848680 204.082000 L 313.371680 201.992000 L 317.924680 199.971000 L 322.510680 198.024000 L 327.114680 196.119000 L 331.706680 194.187000 L 336.290680 192.234000 L 340.863680 190.257000 L 345.461680 188.338000 L 350.058680 186.417000 L 354.643680 184.468000 L 359.154680 182.352000 L 363.661680 180.229000 L 368.168680 178.105000 L 372.675680 175.981000 L 377.191680 173.878000 L 381.730680 171.823000 L 386.310680 169.862000 L 390.943680 168.031000 L 395.575680 166.196000 L 400.193680 164.327000 L 404.747680 162.306000 L 409.273680 160.222000 L 413.795680 158.134000 L 418.373680 156.166000 L 423.015680 154.358000 L 427.617680 152.459000 L 432.130680 150.347000 L 436.643680 148.236000 L 441.155680 146.125000 L 445.670680 144.017000 L 450.196680 141.933000 L 454.762680 139.942000 L 459.363680 138.031000 L 464.006680 136.224000 L 468.632680 134.374000 L 473.221680 132.436000 L 477.771680 130.406000 L 482.323680 128.381000 L 486.976680 126.612000 L 491.683680 124.978000 L 496.379680 123.312000 L 500.999680 121.451000 L 505.599680 119.538000 L 510.196680 117.617000 L 514.783680 115.670000 L 519.369680 113.724000 L 523.955680 111.777000 L 528.541680 109.830000 L 533.127680 107.882000 L 537.707680 105.920000 L 542.274680 103.929000 L 546.746680 101.735000 L 551.227680 99.557000 L 555.749680 97.475700 L 560.548680 96.138500 L 565.195680 94.372600 L 569.761680 92.378600 L 574.327680 90.384600 L 578.893680 88.390700 L 583.459680 86.396700 L 588.025680 84.402700 L 592.591680 82.408700 L 597.157680 80.415000 L 601.724680 78.423800 L 606.296680 76.444900 L 610.907680 74.559000 L 615.545680 72.739900 L 620.211680 70.992100 L 624.912680 69.342700 L 629.528680 67.483500 L 634.053680 65.397000 L 638.577680 63.309500 L 643.094680 61.207700 L 647.624680 59.136100 L 652.207680 57.181700 L 656.832680 55.329000 L 661.477680 53.527800 L 666.139680 51.769700" fill="none" id="0" stroke="#c583d9" stroke-width="0.5" /><path d="M 104.123680 198.132000 L 105.045680 202.977000 L 105.946680 207.826000 L 106.860680 212.672000 L 107.665680 217.538000 L 108.285680 222.431000 L 108.892680 227.325000 L 109.434680 232.227000 L 109.855680 237.141000 L 110.245680 242.057000 L 110.634680 246.974000 L 111.017680 251.891000 L 111.355680 256.811000 L 111.674680 261.733000 L 111.992680 266.654000 L 112.310680 271.576000 L 112.626680 276.498000 L 112.896680 281.422000 L 113.124680 286.349000 L 113.343680 291.276000 L 113.562680 296.203000 L 113.781680 301.130000 L 114.000680 306.057000 L 114.219680 310.984000 L 114.438680 315.911000 L 114.656680 320.838000 L 114.875680 325.765000 L 115.065680 330.693000 L 115.215680 335.623000 L 115.351680 340.553000 L 115.488680 345.483000 L 115.625680 350.413000 L 115.761680 355.343000 L 115.898680 360.273000 L 116.034680 365.203000 L 116.171680 370.133000 L 116.308680 375.063000 L 116.444680 379.993000 L 116.581680 384.923000 L 116.717680 389.853000 L 116.854680 394.783000 L 116.990680 399.713000 L 117.127680 404.643000 L 117.264680 409.573000 L 117.400680 414.503000 L 117.537680 419.433000 L 117.673680 424.363000 L 117.810680 429.293000 L 117.946680 434.223000 L 118.083680 439.153000 L 118.220680 444.083000 L 118.356680 449.013000 L 118.493680 453.943000 L 118.638680 458.873000 L 118.814680 463.802000 L 119.003680 468.730000 L 119.193680 473.658000 L 119.384680 478.587000 L 119.609680 483.513000 L 119.881680 488.438000 L 120.186680 493.360000" fill="none" id="1" stroke="#f375a0" stroke-width="0.5" /><path d="M 39.966580 202.100000 L 44.331180 199.665000 L 48.746780 197.324000 L 53.218080 195.091000 L 57.717580 192.915000 L 62.263080 190.837000 L 66.869580 188.898000 L 71.479380 186.967000 L 76.089180 185.035000 L 80.698980 183.104000 L 85.308780 181.173000 L 89.918180 179.240000 L 94.519680 177.290000 L 99.089680 175.266000 L 103.654680 173.232000 L 108.219680 171.197000 L 112.784680 169.162000 L 117.350680 167.128000 L 121.916680 165.097000 L 126.493680 163.087000 L 131.079680 161.100000 L 135.667680 159.120000 L 140.257680 157.140000 L 144.846680 155.160000 L 149.433680 153.176000 L 154.012680 151.172000 L 158.578680 149.140000 L 163.141680 147.100000 L 167.704680 145.060000 L 172.266680 143.020000 L 176.829680 140.981000 L 181.399680 138.956000 L 185.987680 136.975000 L 190.589680 135.025000 L 195.194680 133.083000 L 199.799680 131.140000 L 204.405680 129.198000 L 209.010680 127.255000 L 213.615680 125.313000 L 218.220680 123.370000 L 222.824680 121.426000 L 227.421680 119.463000 L 231.999680 117.460000 L 236.563680 115.423000 L 241.123680 113.376000 L 245.683680 111.330000 L 250.243680 109.284000 L 254.803680 107.238000 L 259.364680 105.192000 L 263.928680 103.156000 L 268.502680 101.142000 L 273.085680 99.148400 L 277.672680 97.161800 L 282.258680 95.175200 L 286.844680 93.188600 L 291.430680 91.202100 L 296.017680 89.215500 L 300.603680 87.228900 L 305.189680 85.242400 L 309.775680 83.255800 L 314.361680 81.269200 L 318.948680 79.282600 L 323.534680 77.296100 L 328.120680 75.309500 L 332.706680 73.322900 L 337.293680 71.336300 L 341.877680 69.346300 L 346.457680 67.344000 L 351.032680 65.331200 L 355.605680 63.316100 L 360.179680 61.301000 L 364.753680 59.285900 L 369.327680 57.270800 L 373.901680 55.255700 L 378.474680 53.240600 L 383.048680 51.225500 L 387.622680 49.211700 L 392.203680 47.211400 L 396.801680 45.253300 L 401.406680 43.311300 L 406.012680 41.370700 L 410.618680 39.430200 L 415.224680 37.489700 L 419.830680 35.549200 L 424.434680 33.604900 L 429.018680 31.612600 L 433.586680 29.584900 L 438.154680 27.555000 L 442.720680 25.523300 L 447.278680 23.471600 L 451.805680 21.353800 L 456.312680 19.194900" fill="none" id="2" stroke="#ad5ba7" stroke-width="0.5" /><path d="M 134.171680 163.100000 L 138.065680 161.076000 L 141.986680 159.105000 L 145.937680 157.192000 L 149.926680 155.363000 L 153.904680 153.508000 L 157.848680 151.582000 L 161.775680 149.623000 L 165.700680 147.658000 L 169.624680 145.693000 L 173.549680 143.728000 L 177.474680 141.763000 L 181.398680 139.798000 L 185.327680 137.842000 L 189.273680 135.920000 L 193.238680 134.036000 L 197.210680 132.170000 L 201.184680 130.306000 L 205.157680 128.441000 L 209.131680 126.577000 L 213.104680 124.713000 L 217.077680 122.848000 L 221.049680 120.980000 L 225.010680 119.090000 L 228.952680 117.159000 L 232.880680 115.201000 L 236.804680 113.234000 L 240.727680 111.267000 L 244.651680 109.300000 L 248.575680 107.333000 L 252.498680 105.366000" fill="none" id="3" stroke="#ad5ba7" stroke-width="0.5" /><path d="M 244.214680 109.781000 L 248.689680 107.603000 L 253.165680 105.424000 L 257.640680 103.246000 L 262.118680 101.073000 L 266.624680 98.957600 L 271.141680 96.866600 L 275.675680 94.812600 L 280.226680 92.796000 L 284.780680 90.788100 L 289.335680 88.780800 L 293.890680 86.773500 L 298.445680 84.766200 L 302.999680 82.758900 L 307.554680 80.751600 L 312.109680 78.744300 L 316.664680 76.737000 L 321.219680 74.729700 L 325.774680 72.722400 L 330.332680 70.722500 L 334.898680 68.742600 L 339.472680 66.777500 L 344.046680 64.815900 L 348.621680 62.854400 L 353.196680 60.892800 L 357.770680 58.931300 L 362.345680 56.969800 L 366.920680 55.008200 L 371.495680 53.046700 L 376.071680 51.088100 L 380.654680 49.147200 L 385.251680 47.238800 L 389.856680 45.349500 L 394.463680 43.463400 L 399.070680 41.579700 L 403.685680 39.715900 L 408.321680 37.902300 L 412.968680 36.120500 L 417.618680 34.343900 L 422.267680 32.567200 L 426.913680 30.780400 L 431.535680 28.933500 L 436.148680 27.063900 L 440.761680 25.192500 L 445.373680 23.321000 L 449.985680 21.449600 L 454.598680 19.578100 L 459.210680 17.706700" fill="none" id="4" stroke="#ad5ba7" stroke-width="0.5" /><path d="M 112.911680 204.297000 L 117.572680 202.542000 L 122.173680 200.633000 L 126.666680 198.483000 L 131.031680 196.082000 L 135.397680 193.684000 L 139.763680 191.285000 L 144.128680 188.885000 L 148.493680 186.485000 L 152.858680 184.085000 L 157.224680 181.685000 L 161.585680 179.280000 L 165.927680 176.837000 L 170.234680 174.335000 L 174.529680 171.812000 L 178.823680 169.286000 L 183.117680 166.761000 L 187.411680 164.235000 L 191.705680 161.710000 L 196.000680 159.187000 L 200.307680 156.684000 L 204.636680 154.220000 L 208.981680 151.783000 L 213.330680 149.354000 L 217.679680 146.925000 L 222.028680 144.496000 L 226.377680 142.067000 L 230.726680 139.638000 L 235.075680 137.209000 L 239.424680 134.780000 L 243.775680 132.354000 L 248.137680 129.948000 L 252.516680 127.575000 L 256.902680 125.212000 L 261.287680 122.849000 L 265.675680 120.490000 L 270.072680 118.150000 L 274.479680 115.827000 L 278.886680 113.506000 L 283.294680 111.186000 L 287.702680 108.865000 L 292.110680 106.545000 L 296.518680 104.224000 L 300.926680 101.904000 L 305.334680 99.583600 L 309.742680 97.263500 L 314.162680 94.965600 L 318.595680 92.693900 L 323.031680 90.425900 L 327.466680 88.158100 L 331.901680 85.890700 L 336.342680 83.634500 L 340.810680 81.431100 L 345.282680 79.237300 L 349.755680 77.043700 L 354.227680 74.849800 L 358.695680 72.646500 L 363.145680 70.407400 L 367.575680 68.130300 L 372.001680 65.843500 L 376.426680 63.556700 L 380.852680 61.270000 L 385.277680 58.983200 L 389.703680 56.696400 L 394.131680 54.414800 L 398.570680 52.155400 L 403.024680 49.924800 L 407.487680 47.711100 L 411.958680 45.513900 L 416.436680 43.332800 L 420.917680 41.156800 L 425.398680 38.980800 L 429.879680 36.804700 L 434.360680 34.628700 L 438.841680 32.452700 L 443.322680 30.276700 L 447.803680 28.100700 L 452.284680 25.924700 L 456.765680 23.748600 L 461.246680 21.573100 L 465.732680 19.407300 L 470.237680 17.279800 L 474.754680 15.179800 L 479.273680 13.083900 L 483.791680 10.986700 L 488.303680 8.876120 L 492.799680 6.729640 L 497.287680 4.569750 L 501.776680 2.409730 L 506.265680 0.250000" fill="none" id="5" stroke="#58f2c3" stroke-width="0.5" /><path d="M 100.848680 201.581000 L 105.328680 199.453000 L 109.798680 197.305000 L 114.258680 195.137000 L 118.783680 193.108000 L 123.292680 191.041000 L 127.800680 188.975000 L 132.308680 186.908000 L 136.840680 184.893000 L 141.382680 182.902000 L 145.925680 180.913000 L 150.468680 178.924000 L 155.007680 176.925000 L 159.497680 174.819000 L 163.956680 172.648000 L 168.411680 170.469000 L 172.866680 168.290000 L 177.321680 166.110000 L 181.776680 163.931000 L 186.231680 161.752000 L 190.686680 159.573000 L 195.149680 157.411000 L 199.629680 155.284000 L 204.114680 153.167000 L 208.599680 151.050000 L 213.084680 148.933000 L 217.569680 146.816000 L 222.053680 144.699000 L 226.538680 142.582000 L 231.024680 140.466000 L 235.518680 138.369000 L 240.021680 136.291000 L 244.527680 134.220000 L 249.034680 132.149000 L 253.540680 130.078000 L 258.046680 128.006000 L 262.552680 125.935000 L 267.058680 123.864000 L 271.564680 121.792000 L 276.070680 119.721000 L 280.577680 117.650000 L 285.083680 115.578000 L 289.589680 113.507000 L 294.095680 111.436000 L 298.601680 109.364000 L 303.107680 107.293000 L 307.614680 105.222000 L 312.120680 103.151000 L 316.626680 101.079000 L 321.132680 99.008000 L 325.638680 96.936700 L 330.156680 94.891400 L 334.696680 92.895700 L 339.245680 90.920100 L 343.794680 88.944500 L 348.343680 86.968900 L 352.892680 84.993200 L 357.441680 83.017600 L 361.990680 81.042000 L 366.539680 79.066400 L 371.088680 77.090800 L 375.636680 75.115200 L 380.185680 73.139500 L 384.734680 71.163900 L 389.283680 69.188300 L 393.832680 67.212700 L 398.381680 65.237100 L 402.930680 63.261500 L 407.479680 61.285800 L 412.028680 59.310200 L 416.577680 57.334600 L 421.124680 55.354500 L 425.661680 53.352900 L 430.195680 51.342600 L 434.729680 49.332400 L 439.262680 47.322100 L 443.798680 45.315900 L 448.349680 43.344600 L 452.926680 41.435300 L 457.505680 39.531000 L 462.084680 37.626800 L 466.664680 35.722600 L 471.243680 33.818400 L 475.822680 31.914100 L 480.401680 30.009900 L 484.981680 28.105700 L 489.560680 26.201500 L 494.139680 24.297200" fill="none" id="6" stroke="#c94e76" stroke-width="0.5" /><path d="M 170.769680 437.683000 L 175.200680 435.384000 L 179.650680 433.121000 L 184.105680 430.869000 L 188.543680 428.583000 L 192.971680 426.278000 L 197.398680 423.973000 L 201.779680 421.579000 L 206.150680 419.167000 L 210.503680 416.725000 L 214.827680 414.230000 L 219.137680 411.711000 L 223.444680 409.186000 L 227.743680 406.649000 L 232.022680 404.078000 L 236.288680 401.486000 L 240.553680 398.891000 L 244.817680 396.296000 L 249.082680 393.701000 L 253.347680 391.107000 L 257.625680 388.535000 L 261.932680 386.010000 L 266.250680 383.504000 L 270.568680 381.000000 L 274.887680 378.496000 L 279.205680 375.992000 L 283.524680 373.488000 L 287.842680 370.983000 L 292.157680 368.473000 L 296.461680 365.944000 L 300.758680 363.402000 L 305.053680 360.859000 L 309.349680 358.316000 L 313.645680 355.773000 L 317.941680 353.230000 L 322.236680 350.687000 L 326.532680 348.144000 L 330.831680 345.606000 L 335.148680 343.100000 L 339.476680 340.612000 L 343.808680 338.130000 L 348.140680 335.650000 L 352.472680 333.169000 L 356.804680 330.689000 L 361.137680 328.209000 L 365.469680 325.728000 L 369.801680 323.248000 L 374.133680 320.768000 L 378.466680 318.287000 L 382.798680 315.807000 L 387.130680 313.327000 L 391.462680 310.846000 L 395.795680 308.366000 L 400.131680 305.893000 L 404.472680 303.427000 L 408.815680 300.966000 L 413.159680 298.505000 L 417.502680 296.045000 L 421.846680 293.585000 L 426.189680 291.124000 L 430.533680 288.664000 L 434.877680 286.204000 L 439.220680 283.743000 L 443.564680 281.283000 L 447.908680 278.823000 L 452.251680 276.362000 L 456.595680 273.902000 L 460.939680 271.442000 L 465.282680 268.981000 L 469.626680 266.521000 L 473.970680 264.061000 L 478.313680 261.600000 L 482.654680 259.136000 L 486.983680 256.649000 L 491.269680 254.090000 L 495.526680 251.482000 L 499.806680 248.913000 L 504.145680 246.446000 L 508.545680 244.088000 L 512.981680 241.798000 L 517.415680 239.507000 L 521.709680 236.961000 L 526.003680 234.414000 L 530.296680 231.868000 L 534.618680 229.368000 L 539.000680 226.981000 L 543.425680 224.669000 L 547.806680 222.277000 L 552.155680 219.825000 L 556.503680 217.373000 L 560.851680 214.921000 L 565.197680 212.465000 L 569.535680 209.994000 L 573.864680 207.508000 L 578.188680 205.013000 L 582.498680 202.495000 L 586.789680 199.943000 L 591.079680 197.392000 L 595.370680 194.840000 L 599.670680 192.304000 L 604.011680 189.840000 L 608.390680 187.444000 L 612.715680 184.951000 L 617.011680 182.409000 L 621.308680 179.868000 L 625.605680 177.326000 L 629.901680 174.784000 L 634.198680 172.242000 L 638.494680 169.701000 L 642.791680 167.159000 L 647.087680 164.617000 L 651.384680 162.075000 L 655.680680 159.534000 L 659.977680 156.992000 L 664.273680 154.450000 L 668.570680 151.908000 L 672.866680 149.367000 L 677.163680 146.825000" fill="none" id="7" stroke="#3d8e43" stroke-width="0.5" /><path d="M 483.021680 268.502000 L 486.637680 266.269000 L 490.264680 264.054000 L 493.908680 261.868000 L 497.530680 259.647000 L 501.084680 257.317000 L 504.612680 254.948000 L 508.138680 252.576000 L 511.665680 250.205000 L 515.202680 247.850000 L 518.767680 245.537000 L 522.358680 243.264000 L 525.970680 241.026000 L 529.614680 238.840000 L 533.271680 236.675000 L 536.929680 234.512000 L 540.587680 232.349000 L 544.245680 230.186000 L 547.903680 228.023000 L 551.559680 225.857000 L 555.203680 223.671000 L 558.819680 221.438000 L 562.402680 219.154000 L 565.953680 216.818000 L 569.468680 214.431000 L 572.963680 212.014000 L 576.455680 209.592000 L 579.947680 207.170000 L 583.439680 204.748000 L 586.931680 202.326000 L 590.423680 199.904000" fill="none" id="8" stroke="#3d8e43" stroke-width="0.5" /><path d="M 482.202680 266.470000 L 485.243680 264.137000 L 488.358680 261.902000 L 491.570680 259.809000 L 494.835680 257.799000 L 498.099680 255.789000 L 501.363680 253.779000 L 504.628680 251.769000 L 507.892680 249.759000 L 511.157680 247.749000 L 514.428680 245.750000 L 517.720680 243.785000 L 521.032680 241.856000 L 524.366680 239.963000 L 527.729680 238.122000 L 531.112680 236.320000 L 534.501680 234.528000 L 537.886680 232.728000 L 541.258680 230.904000 L 544.613680 229.049000 L 547.957680 227.174000 L 551.277680 225.257000 L 554.562680 223.282000 L 557.833680 221.283000 L 561.088680 219.256000 L 564.309680 217.178000 L 567.524680 215.090000 L 570.736680 212.997000 L 573.918680 210.858000 L 577.053680 208.653000 L 580.155680 206.400000" fill="none" id="9" stroke="#3d8e43" stroke-width="0.5" /><path d="M 190.076680 422.825000 L 194.902680 421.750000 L 199.654680 420.382000 L 204.269680 418.611000 L 208.743680 416.507000 L 213.201680 414.367000 L 217.609680 412.127000 L 221.976680 409.809000 L 226.340680 407.485000 L 230.683680 405.121000 L 235.023680 402.752000 L 239.322680 400.310000 L 243.599680 397.828000 L 247.837680 395.281000 L 252.067680 392.721000 L 256.345680 390.242000 L 260.658680 387.825000 L 264.979680 385.421000 L 269.318680 383.050000 L 273.672680 380.708000 L 278.031680 378.374000 L 282.390680 376.039000 L 286.748680 373.705000 L 291.079680 371.319000 L 295.374680 368.870000 L 299.657680 366.399000 L 303.940680 363.928000 L 308.222680 361.457000 L 312.505680 358.986000 L 316.788680 356.515000 L 321.071680 354.044000 L 325.354680 351.573000 L 329.643680 349.114000 L 333.962680 346.707000 L 338.308680 344.348000 L 342.657680 341.996000 L 347.006680 339.644000 L 351.355680 337.291000 L 355.704680 334.939000 L 360.053680 332.587000 L 364.398680 330.227000 L 368.724680 327.832000 L 373.025680 325.393000 L 377.321680 322.945000 L 381.617680 320.497000 L 385.913680 318.049000 L 390.215680 315.612000 L 394.539680 313.214000 L 398.876680 310.840000 L 403.215680 308.468000 L 407.553680 306.095000 L 411.891680 303.723000 L 416.229680 301.350000 L 420.559680 298.964000 L 424.841680 296.492000 L 429.075680 293.938000 L 433.304680 291.376000 L 437.533680 288.814000 L 441.764680 286.255000 L 446.018680 283.735000 L 450.292680 281.250000 L 454.567680 278.764000 L 458.841680 276.279000 L 463.115680 273.793000" fill="none" id="10" stroke="#3d8e43" stroke-width="0.5" /><path d="M 19.714580 256.809000 L 24.103180 259.083000 L 28.465280 261.408000 L 32.788280 263.805000 L 37.079780 266.257000 L 41.369280 268.713000 L 45.626980 271.224000 L 49.841380 273.807000 L 54.050280 276.399000 L 58.259180 278.990000 L 62.468080 281.582000 L 66.676980 284.174000 L 70.887980 286.762000 L 75.124280 289.309000 L 79.383080 291.818000 L 83.646980 294.318000 L 87.910880 296.818000 L 92.170880 299.325000 L 96.413880 301.861000 L 100.642680 304.420000 L 104.868680 306.985000 L 109.093680 309.549000 L 113.319680 312.114000 L 117.544680 314.679000 L 121.771680 317.240000 L 126.014680 319.777000 L 130.279680 322.275000 L 134.554680 324.757000 L 138.828680 327.238000 L 143.103680 329.719000 L 147.378680 332.201000 L 151.653680 334.682000 L 155.928680 337.164000 L 160.203680 339.645000 L 164.478680 342.127000 L 168.745680 344.621000 L 172.982680 347.167000 L 177.186680 349.767000 L 181.389680 352.367000 L 185.593680 354.967000 L 189.797680 357.568000 L 194.004680 360.163000 L 198.228680 362.729000 L 202.476680 365.256000 L 206.728680 367.776000 L 210.981680 370.296000 L 215.233680 372.816000 L 219.485680 375.336000 L 223.737680 377.857000 L 227.971680 380.407000 L 232.144680 383.056000 L 236.281680 385.762000" fill="none" id="11" stroke="#00d4db" stroke-width="0.5" /><path d="M 25.541380 262.384000 L 30.259080 263.715000 L 34.907580 265.270000 L 39.448580 267.115000 L 43.861380 269.248000 L 48.200380 271.528000 L 52.528980 273.828000 L 56.857080 276.130000 L 61.185080 278.431000 L 65.513180 280.732000 L 69.841180 283.034000 L 74.168880 285.336000 L 78.468280 287.690000 L 82.704380 290.156000 L 86.907480 292.678000 L 91.104980 295.210000 L 95.251780 297.823000 L 99.366680 300.487000 L 103.454680 303.191000 L 107.521680 305.928000 L 111.588680 308.664000 L 115.655680 311.399000 L 119.741680 314.107000 L 123.862680 316.762000 L 127.998680 319.392000 L 132.135680 322.022000 L 136.275680 324.647000 L 140.430680 327.247000 L 144.608680 329.811000 L 148.790680 332.369000 L 152.980680 334.912000 L 157.196680 337.413000 L 161.412680 339.914000 L 165.629680 342.414000 L 169.845680 344.914000 L 174.061680 347.414000 L 178.278680 349.915000 L 182.494680 352.415000 L 186.710680 354.915000 L 190.926680 357.415000" fill="none" id="12" stroke="#00d4db" stroke-width="0.5" /><path d="M 26.517680 262.171000 L 31.270480 263.525000 L 35.939080 265.145000 L 40.494780 267.058000 L 44.842880 269.407000 L 49.091380 271.931000 L 53.303080 274.516000 L 57.515880 277.099000 L 61.771380 279.612000 L 66.028380 282.121000 L 70.285380 284.631000 L 74.542480 287.141000 L 78.799480 289.650000 L 83.056580 292.160000 L 87.313580 294.670000 L 91.570380 297.180000 L 95.816180 299.708000 L 99.970680 302.384000 L 104.125680 305.059000 L 108.280680 307.735000 L 112.435680 310.410000 L 116.590680 313.085000 L 120.763680 315.732000 L 124.980680 318.309000 L 129.207680 320.869000 L 133.434680 323.429000 L 137.661680 325.989000 L 141.888680 328.549000 L 146.140680 331.066000 L 150.425680 333.529000 L 154.712680 335.988000 L 159.020680 338.408000 L 163.356680 340.779000 L 167.694680 343.146000 L 172.032680 345.513000 L 176.370680 347.880000 L 180.707680 350.248000 L 185.045680 352.615000 L 189.383680 354.982000" fill="none" id="13" stroke="#00d4db" stroke-width="0.5" /><path d="M 207.871680 372.652000 L 205.184680 371.175000 L 202.496680 369.698000 L 199.809680 368.221000 L 197.121680 366.744000 L 194.445680 365.248000 L 191.790680 363.713000 L 189.154680 362.147000 L 186.536680 360.550000 L 183.946680 358.908000 L 181.377680 357.234000 L 178.817680 355.546000 L 176.259680 353.854000 L 173.701680 352.162000 L 171.143680 350.470000 L 168.586680 348.779000 L 166.028680 347.087000 L 163.470680 345.395000 L 160.913680 343.704000 L 158.356680 342.010000 L 155.806680 340.307000 L 153.270680 338.584000 L 150.755680 336.829000 L 148.252680 335.057000 L 145.749680 333.286000 L 143.246680 331.514000 L 140.743680 329.742000 L 138.240680 327.970000 L 135.737680 326.198000 L 133.234680 324.427000 L 130.731680 322.655000" fill="none" id="14" stroke="#00d4db" stroke-width="0.5" /><path d="M 97.667680 300.085000 L 101.119680 302.540000 L 104.573680 304.993000 L 108.028680 307.444000 L 111.496680 309.878000 L 115.007680 312.248000 L 118.555680 314.563000 L 122.122680 316.849000 L 125.718680 319.088000 L 129.336680 321.292000 L 132.952680 323.499000 L 136.538680 325.754000 L 140.083680 328.075000 L 143.604680 330.430000 L 147.121680 332.791000 L 150.629680 335.167000 L 154.113680 337.577000 L 157.584680 340.006000 L 161.053680 342.437000 L 164.523680 344.869000 L 167.991680 347.301000 L 171.449680 349.748000 L 174.874680 352.242000 L 178.257680 354.792000 L 181.629680 357.357000 L 185.014680 359.903000 L 188.484680 362.333000 L 192.061680 364.602000 L 195.711680 366.754000 L 199.384680 368.863000 L 203.084680 370.927000" fill="none" id="15" stroke="#00d4db" stroke-width="0.5" /><path d="M 196.470680 372.699000 L 199.936680 372.805000 L 203.401680 372.940000 L 206.862680 373.156000 L 210.326680 373.329000 L 213.791680 373.454000 L 217.257680 373.568000 L 220.724680 373.658000 L 224.191680 373.709000 L 227.659680 373.731000 L 231.127680 373.743000 L 234.595680 373.754000 L 238.063680 373.764000 L 241.530680 373.774000 L 244.998680 373.785000 L 248.466680 373.795000 L 251.934680 373.806000 L 255.402680 373.816000 L 258.870680 373.827000 L 262.337680 373.837000 L 265.805680 373.848000 L 269.273680 373.858000 L 272.741680 373.871000 L 276.209680 373.897000 L 279.676680 373.949000 L 283.143680 374.021000 L 286.610680 374.100000 L 290.076680 374.204000 L 293.541680 374.344000 L 297.006680 374.495000 L 300.470680 374.659000" fill="none" id="16" stroke="#d55969" stroke-width="0.5" /><path d="M 0.250000 229.030000 L 4.011230 232.224000 L 8.109080 234.959000 L 12.469380 237.275000 L 16.740780 239.752000 L 20.969280 242.303000 L 25.194380 244.858000 L 29.393780 247.456000 L 33.526680 250.157000 L 37.605380 252.941000 L 41.684080 255.724000 L 45.762780 258.507000 L 49.842580 261.289000 L 53.942280 264.041000 L 58.086280 266.726000 L 62.253780 269.375000 L 66.422380 272.022000 L 70.590980 274.669000 L 74.759580 277.316000 L 78.928080 279.963000 L 83.096680 282.610000 L 87.265280 285.257000 L 91.433880 287.904000 L 95.576780 290.590000 L 99.688680 293.324000 L 103.793680 296.068000 L 107.898680 298.813000 L 112.004680 301.557000 L 116.109680 304.301000 L 120.214680 307.046000 L 124.319680 309.790000 L 128.437680 312.514000 L 132.594680 315.180000 L 136.782680 317.796000 L 140.978680 320.399000 L 145.174680 323.002000 L 149.370680 325.605000 L 153.566680 328.208000 L 157.756680 330.821000 L 161.926680 333.466000 L 166.076680 336.142000 L 170.221680 338.826000 L 174.366680 341.510000 L 178.511680 344.194000 L 182.655680 346.878000 L 186.800680 349.562000 L 190.945680 352.246000 L 195.090680 354.930000 L 199.235680 357.613000 L 203.388680 360.285000 L 207.577680 362.899000 L 211.796680 365.464000 L 216.019680 368.024000 L 220.241680 370.584000 L 224.464680 373.144000 L 228.686680 375.705000 L 232.909680 378.265000 L 237.131680 380.825000" fill="none" id="17" stroke="#64e4ff" stroke-width="0.5" /><path d="M 20.155480 230.400000 L 24.720080 232.411000 L 29.215480 234.572000 L 33.621580 236.909000 L 37.901280 239.472000 L 42.110880 242.147000 L 46.262880 244.911000 L 50.359780 247.757000 L 54.455880 250.603000 L 58.587980 253.397000 L 62.750480 256.146000 L 66.957880 258.825000 L 71.209980 261.433000 L 75.474480 264.020000 L 79.739580 266.607000 L 84.004780 269.193000 L 88.269880 271.780000 L 92.534280 274.367000 L 96.788680 276.972000 L 101.019680 279.614000 L 105.234680 282.281000 L 109.445680 284.954000 L 113.656680 287.628000 L 117.868680 290.301000 L 122.079680 292.974000 L 126.297680 295.636000 L 130.539680 298.261000 L 134.805680 300.845000 L 139.081680 303.414000 L 143.361680 305.977000 L 147.654680 308.516000 L 151.964680 311.027000 L 156.281680 313.526000 L 160.598680 316.024000 L 164.916680 318.522000 L 169.232680 321.022000 L 173.541680 323.536000 L 177.825680 326.090000 L 182.103680 328.655000 L 186.382680 331.220000 L 190.660680 333.784000 L 194.939680 336.348000 L 199.226680 338.898000 L 203.532680 341.416000 L 207.843680 343.924000 L 212.156680 346.431000 L 216.470680 348.935000" fill="none" id="18" stroke="#e68e54" stroke-width="0.5" /><path d="M 208.281680 363.628000 L 212.523680 361.004000 L 216.803680 358.442000 L 221.098680 355.905000 L 225.407680 353.393000 L 229.750680 350.939000 L 234.071680 348.448000 L 238.343680 345.872000 L 242.600680 343.273000 L 246.856680 340.672000 L 251.115680 338.075000 L 255.399680 335.520000 L 259.739680 333.062000 L 264.097680 330.634000 L 268.456680 328.210000 L 272.815680 325.785000 L 277.174680 323.360000 L 281.532680 320.933000 L 285.877680 318.483000 L 290.193680 315.982000 L 294.493680 313.454000 L 298.790680 310.921000 L 303.088680 308.389000 L 307.385680 305.857000 L 311.683680 303.324000 L 315.980680 300.792000 L 320.279680 298.262000 L 324.587680 295.748000 L 328.914680 293.265000 L 333.250680 290.800000 L 337.587680 288.336000 L 341.924680 285.873000 L 346.262680 283.409000 L 350.599680 280.946000 L 354.937680 278.482000 L 359.274680 276.019000 L 363.611680 273.556000 L 367.946680 271.088000 L 372.271680 268.603000 L 376.582680 266.093000 L 380.887680 263.574000 L 385.191680 261.053000 L 389.496680 258.533000 L 393.801680 256.013000 L 398.105680 253.492000 L 402.410680 250.972000 L 406.732680 248.482000 L 411.075680 246.030000 L 415.393680 243.532000 L 419.667680 240.961000 L 423.928680 238.368000 L 428.190680 235.775000 L 432.451680 233.182000 L 436.712680 230.590000 L 440.973680 227.997000 L 445.364680 225.643000 L 449.915680 223.604000 L 454.343680 221.328000 L 458.652680 218.815000 L 462.961680 216.302000 L 467.269680 213.789000 L 471.578680 211.275000 L 475.876680 208.743000 L 480.147680 206.167000 L 484.400680 203.562000 L 488.663680 200.972000 L 492.960680 198.438000 L 497.292680 195.966000 L 501.704680 193.640000 L 506.185680 191.451000 L 510.492680 188.946000 L 514.720680 186.300000 L 518.949680 183.654000 L 523.177680 181.008000 L 527.415680 178.377000 L 531.716680 175.852000 L 536.139680 173.549000 L 540.595680 171.307000 L 545.024680 169.012000 L 549.388680 166.598000 L 553.746680 164.170000 L 558.203680 161.932000 L 562.649680 159.671000 L 566.992680 157.219000 L 571.316680 154.733000 L 575.641680 152.247000 L 579.965680 149.761000 L 584.290680 147.275000 L 588.614680 144.789000 L 592.939680 142.305000 L 597.273680 139.835000 L 601.633680 137.411000 L 605.997680 134.996000 L 610.362680 132.582000 L 614.727680 130.168000 L 619.092680 127.753000 L 623.457680 125.339000 L 627.821680 122.924000 L 632.186680 120.510000" fill="none" id="19" stroke="#54aeff" stroke-width="0.5" /><path d="M 115.147680 421.762000 L 119.800680 420.022000 L 124.396680 418.135000 L 128.913680 416.069000 L 133.354680 413.842000 L 137.722680 411.477000 L 142.018680 408.982000 L 146.310680 406.480000 L 150.602680 403.979000 L 154.894680 401.477000 L 159.154680 398.922000 L 163.352680 396.266000 L 167.533680 393.583000 L 171.713680 390.897000 L 175.892680 388.212000 L 180.072680 385.527000 L 184.268680 382.869000 L 188.488680 380.248000 L 192.712680 377.633000 L 196.937680 375.019000 L 201.161680 372.404000 L 205.385680 369.790000 L 209.609680 367.175000 L 213.833680 364.561000 L 218.057680 361.946000 L 222.277680 359.326000 L 226.479680 356.675000 L 230.666680 354.002000 L 234.851680 351.325000 L 239.035680 348.647000 L 243.220680 345.970000 L 247.404680 343.292000 L 251.589680 340.615000 L 255.773680 337.937000 L 259.961680 335.266000 L 264.192680 332.662000 L 268.457680 330.115000 L 272.729680 327.580000 L 277.002680 325.045000 L 281.274680 322.510000 L 285.546680 319.975000 L 289.818680 317.440000 L 294.085680 314.895000 L 298.337680 312.327000 L 302.580680 309.744000 L 306.822680 307.158000 L 311.064680 304.572000 L 315.305680 301.986000 L 319.547680 299.400000 L 323.788680 296.814000 L 328.043680 294.249000 L 332.332680 291.742000 L 336.647680 289.281000 L 340.965680 286.825000 L 345.284680 284.370000 L 349.602680 281.914000 L 353.921680 279.459000 L 358.240680 277.004000 L 362.558680 274.548000 L 366.877680 272.093000 L 371.195680 269.638000 L 375.512680 267.179000 L 379.814680 264.696000 L 384.093680 262.172000 L 388.362680 259.630000 L 392.618680 257.069000 L 396.857680 254.478000 L 401.091680 251.879000 L 405.324680 249.280000 L 409.558680 246.681000 L 413.795680 244.088000 L 418.071680 241.560000 L 422.436680 239.187000 L 426.877680 236.961000 L 431.470680 235.068000 L 435.882680 232.786000 L 440.217680 230.359000 L 444.551680 227.932000 L 448.886680 225.505000 L 453.218680 223.074000 L 457.533680 220.612000 L 461.812680 218.089000 L 466.085680 215.554000 L 470.357680 213.020000 L 474.630680 210.485000 L 478.961680 208.052000 L 483.622680 206.333000 L 487.962680 203.917000 L 492.303680 201.501000 L 496.643680 199.084000 L 500.984680 196.668000 L 505.324680 194.252000 L 509.665680 191.835000 L 514.005680 189.419000 L 518.346680 187.003000 L 522.686680 184.587000 L 527.027680 182.170000 L 531.367680 179.754000" fill="none" id="20" stroke="#54aeff" stroke-width="0.5" /><path d="M 118.108680 421.738000 L 122.734680 419.986000 L 127.366680 418.250000 L 132.001680 416.521000 L 136.624680 414.762000 L 141.206680 412.897000 L 145.758680 410.962000 L 150.286680 408.968000 L 154.809680 406.967000 L 159.312680 404.919000 L 163.764680 402.762000 L 168.210680 400.594000 L 172.574680 398.266000 L 176.893680 395.854000 L 181.207680 393.433000 L 185.521680 391.011000 L 189.836680 388.592000 L 194.181680 386.228000 L 198.533680 383.876000 L 202.885680 381.525000 L 207.237680 379.173000 L 211.589680 376.821000 L 215.941680 374.469000 L 220.293680 372.117000 L 224.643680 369.762000 L 228.936680 367.306000 L 233.207680 364.810000 L 237.478680 362.314000 L 241.749680 359.818000 L 246.020680 357.322000 L 250.291680 354.826000 L 254.562680 352.330000 L 258.833680 349.834000 L 263.106680 347.343000 L 267.398680 344.882000 L 271.709680 342.458000 L 276.028680 340.045000 L 280.346680 337.633000 L 284.665680 335.220000 L 288.984680 332.807000 L 293.302680 330.395000 L 297.621680 327.982000 L 301.939680 325.570000 L 306.258680 323.157000 L 310.576680 320.744000 L 314.895680 318.332000 L 319.214680 315.919000 L 323.532680 313.507000 L 327.851680 311.094000 L 332.169680 308.681000 L 336.488680 306.269000 L 340.806680 303.856000 L 345.124680 301.443000 L 349.436680 299.018000 L 353.739680 296.577000 L 358.042680 294.137000 L 362.345680 291.696000 L 366.647680 289.255000 L 370.950680 286.815000 L 375.253680 284.374000 L 379.556680 281.934000 L 383.858680 279.493000 L 388.161680 277.052000 L 392.464680 274.612000 L 396.767680 272.171000 L 401.070680 269.730000 L 405.372680 267.290000 L 409.675680 264.849000 L 413.978680 262.409000 L 418.281680 259.968000 L 422.584680 257.527000 L 426.886680 255.087000 L 431.189680 252.646000 L 435.492680 250.205000 L 439.795680 247.765000 L 444.098680 245.324000 L 448.400680 242.884000 L 452.705680 240.446000 L 457.025680 238.036000 L 461.370680 235.672000 L 465.715680 233.307000 L 470.060680 230.943000 L 474.407680 228.581000 L 478.776680 226.261000 L 483.169680 223.987000 L 487.553680 221.696000 L 491.886680 219.308000 L 496.186680 216.864000" fill="none" id="21" stroke="#eed973" stroke-width="0.5" /><path d="M 480.753680 228.699000 L 476.256680 230.762000 L 471.795680 232.902000 L 467.399680 235.172000 L 463.022680 237.480000 L 458.650680 239.795000 L 454.308680 242.168000 L 449.992680 244.589000 L 445.680680 247.014000 L 441.367680 249.438000 L 437.054680 251.863000 L 432.731680 254.269000 L 428.380680 256.625000 L 424.020680 258.965000 L 419.660680 261.304000 L 415.299680 263.642000 L 410.939680 265.980000 L 406.579680 268.319000 L 402.218680 270.657000 L 397.858680 272.996000 L 393.498680 275.334000 L 389.137680 277.673000 L 384.777680 280.011000 L 380.417680 282.349000 L 376.056680 284.688000 L 371.696680 287.026000 L 367.336680 289.365000 L 362.988680 291.726000 L 358.659680 294.122000 L 354.339680 296.534000 L 350.019680 298.947000 L 345.699680 301.359000 L 341.379680 303.771000 L 337.052680 306.170000 L 332.711680 308.545000 L 328.363680 310.907000 L 324.016680 313.268000 L 319.668680 315.630000 L 315.320680 317.991000 L 310.972680 320.353000 L 306.624680 322.714000 L 302.276680 325.076000 L 297.928680 327.437000 L 293.598680 329.831000 L 289.322680 332.320000 L 285.079680 334.866000 L 280.918680 337.543000 L 276.917680 340.454000 L 272.636680 342.935000 L 268.338680 345.384000 L 264.039680 347.834000 L 259.740680 350.284000 L 255.441680 352.734000 L 251.142680 355.183000 L 246.846680 357.638000 L 242.572680 360.130000 L 238.307680 362.638000 L 234.042680 365.147000 L 229.781680 367.661000 L 225.569680 370.257000 L 221.371680 372.876000 L 217.174680 375.497000 L 212.982680 378.124000" fill="none" id="22" stroke="#eed973" stroke-width="0.5" /><path d="M 260.029680 155.116000 L 261.525680 154.090000 L 263.026680 153.071000 L 264.558680 152.098000 L 266.099680 151.142000 L 267.670680 150.234000 L 269.260680 149.360000 L 270.878680 148.539000 L 272.499680 147.724000 L 274.123680 146.915000 L 275.741680 146.095000 L 277.356680 145.267000 L 278.962680 144.424000 L 280.566680 143.575000 L 282.166680 142.720000 L 283.766680 141.864000 L 285.366680 141.008000 L 286.965680 140.151000 L 288.565680 139.295000 L 290.165680 138.439000 L 291.764680 137.582000 L 293.362680 136.723000 L 294.958680 135.860000 L 296.549680 134.987000 L 298.134680 134.105000 L 299.714680 133.212000 L 301.290680 132.314000 L 302.866680 131.415000 L 304.442680 130.515000 L 306.015680 129.611000 L 307.588680 128.707000" fill="none" id="23" stroke="#008bd4" stroke-width="0.5" /><path d="M 22.391780 260.258000 L 26.867380 258.081000 L 31.355280 255.930000 L 35.861180 253.816000 L 40.379680 251.730000 L 44.865280 249.574000 L 49.322380 247.359000 L 53.777880 245.141000 L 58.233880 242.925000 L 62.698480 240.725000 L 67.197880 238.598000 L 71.713880 236.506000 L 76.231380 234.418000 L 80.748880 232.329000 L 85.266480 230.241000 L 89.783980 228.152000 L 94.295480 226.051000 L 98.771680 223.875000 L 103.213680 221.630000 L 107.648680 219.373000 L 112.084680 217.116000 L 116.520680 214.859000 L 120.955680 212.602000 L 125.392680 210.347000 L 129.837680 208.107000 L 134.297680 205.898000 L 138.762680 203.701000 L 143.228680 201.505000 L 147.695680 199.309000 L 152.161680 197.113000 L 156.627680 194.916000 L 161.093680 192.720000 L 165.559680 190.524000 L 170.026680 188.328000 L 174.492680 186.132000 L 178.958680 183.936000 L 183.424680 181.739000 L 187.891680 179.546000 L 192.366680 177.366000 L 196.852680 175.212000 L 201.345680 173.071000 L 205.839680 170.932000 L 210.333680 168.793000 L 214.827680 166.655000 L 219.321680 164.516000 L 223.815680 162.377000 L 228.309680 160.238000 L 232.803680 158.099000 L 237.297680 155.960000 L 241.790680 153.821000 L 246.284680 151.682000 L 250.778680 149.544000 L 255.272680 147.405000 L 259.767680 145.267000 L 264.266680 143.140000 L 268.777680 141.037000 L 273.296680 138.952000 L 277.817680 136.871000 L 282.338680 134.790000 L 286.859680 132.709000 L 291.380680 130.628000 L 295.901680 128.547000 L 300.422680 126.466000 L 304.943680 124.385000 L 309.464680 122.304000 L 313.985680 120.223000 L 318.506680 118.142000 L 323.027680 116.061000 L 327.548680 113.980000 L 332.069680 111.899000 L 336.590680 109.818000 L 341.111680 107.737000 L 345.632680 105.656000 L 350.152680 103.574000 L 354.669680 101.484000 L 359.174680 99.369100 L 363.678680 97.249600 L 368.181680 95.130100 L 372.684680 93.010600 L 377.187680 90.891100 L 381.690680 88.771600 L 386.193680 86.652300 L 390.701680 84.542300 L 395.245680 82.512400 L 399.795680 80.495900 L 404.345680 78.479900 L 408.895680 76.463700 L 413.438680 74.429600 L 417.973680 72.380300 L 422.491680 70.292000 L 426.989680 68.163400" fill="none" id="24" stroke="#fdb968" stroke-width="0.5" /><path d="M 203.840680 133.644000 L 204.275680 138.601000 L 204.631680 143.564000 L 204.932680 148.531000 L 205.203680 153.500000 L 205.413680 158.471000 L 205.623680 163.443000 L 205.832680 168.415000 L 206.037680 173.387000 L 206.206680 178.360000 L 206.343680 183.334000 L 206.475680 188.308000 L 206.608680 193.283000 L 206.741680 198.257000 L 206.874680 203.231000 L 207.007680 208.206000 L 207.140680 213.180000 L 207.272680 218.154000 L 207.399680 223.129000 L 207.493680 228.104000 L 207.552680 233.080000 L 207.597680 238.056000 L 207.642680 243.031000 L 207.686680 248.007000 L 207.731680 252.983000 L 207.775680 257.959000 L 207.820680 262.935000 L 207.864680 267.911000 L 207.904680 272.887000 L 207.924680 277.863000 L 207.925680 282.839000 L 207.918680 287.815000 L 207.911680 292.791000 L 207.904680 297.767000 L 207.897680 302.743000 L 207.890680 307.720000 L 207.884680 312.696000 L 207.871680 317.672000 L 207.829680 322.648000 L 207.740680 327.623000 L 207.631680 332.598000 L 207.522680 337.573000 L 207.417680 342.548000 L 207.325680 347.523000 L 207.251680 352.498000 L 207.184680 357.474000 L 207.117680 362.450000 L 207.051680 367.425000 L 206.984680 372.401000 L 206.918680 377.377000 L 206.852680 382.352000 L 206.785680 387.328000 L 206.719680 392.304000 L 206.658680 397.279000 L 206.622680 402.255000 L 206.595680 407.231000 L 206.569680 412.207000 L 206.543680 417.183000 L 206.518680 422.159000 L 206.492680 427.135000 L 206.466680 432.111000 L 206.440680 437.087000 L 206.414680 442.063000 L 206.388680 447.039000 L 206.363680 452.016000 L 206.337680 456.992000 L 206.311680 461.968000 L 206.285680 466.944000 L 206.259680 471.920000 L 206.234680 476.896000" fill="none" id="25" stroke="#6f73bc" stroke-width="0.5" /><path d="M 209.131680 354.770000 L 208.993680 355.557000 L 208.855680 356.345000 L 208.749680 357.138000 L 208.645680 357.931000 L 208.606680 358.730000 L 208.567680 359.528000 L 208.568680 360.328000 L 208.569680 361.128000 L 208.563680 361.928000 L 208.558680 362.727000 L 208.552680 363.527000 L 208.546680 364.327000 L 208.540680 365.127000 L 208.534680 365.926000 L 208.528680 366.726000 L 208.522680 367.526000 L 208.516680 368.326000 L 208.510680 369.125000 L 208.504680 369.925000 L 208.498680 370.725000 L 208.492680 371.525000 L 208.486680 372.324000 L 208.480680 373.124000 L 208.474680 373.924000 L 208.468680 374.724000 L 208.462680 375.523000 L 208.456680 376.323000 L 208.450680 377.123000 L 208.444680 377.923000 L 208.438680 378.722000" fill="none" id="26" stroke="#bee481" stroke-width="0.5" /><path d="M 27.935080 236.234000 L 27.918280 237.221000 L 27.901580 238.207000 L 27.871980 239.194000 L 27.842280 240.180000 L 27.797080 241.165000 L 27.751880 242.151000 L 27.698180 243.136000 L 27.644580 244.122000 L 27.584880 245.106000 L 27.525180 246.091000 L 27.466680 247.076000 L 27.408180 248.061000 L 27.351980 249.046000 L 27.295780 250.031000 L 27.241580 251.017000 L 27.187480 252.002000 L 27.148980 252.988000 L 27.110480 253.974000 L 27.081380 254.960000 L 27.052280 255.946000 L 27.041980 256.933000 L 27.031780 257.919000 L 27.038680 258.906000 L 27.045680 259.893000 L 27.064480 260.879000 L 27.083280 261.866000 L 27.115180 262.852000 L 27.147080 263.838000 L 27.194580 264.824000 L 27.242080 265.809000" fill="none" id="27" stroke="#8f6aaf" stroke-width="0.5" /><path d="M 456.470680 210.510000 L 455.624680 215.425000 L 455.040680 220.378000 L 454.833680 225.362000 L 454.891680 230.348000 L 455.251680 235.323000 L 455.635680 240.296000 L 456.012680 245.270000 L 456.340680 250.247000 L 456.617680 255.227000 L 456.866680 260.209000 L 457.032680 265.194000 L 457.143680 270.180000 L 457.243680 275.167000 L 457.343680 280.154000 L 457.431680 285.141000 L 457.476680 290.129000 L 457.491680 295.117000 L 457.499680 300.104000 L 457.508680 305.092000 L 457.516680 310.080000 L 457.524680 315.068000 L 457.532680 320.056000 L 457.540680 325.044000 L 457.548680 330.032000 L 457.557680 335.019000 L 457.565680 340.007000 L 457.573680 344.995000 L 457.581680 349.983000 L 457.589680 354.971000 L 457.599680 359.959000 L 457.618680 364.947000 L 457.646680 369.934000 L 457.679680 374.922000 L 457.712680 379.910000 L 457.745680 384.898000 L 457.779680 389.885000 L 457.812680 394.873000 L 457.846680 399.861000 L 457.879680 404.849000 L 457.912680 409.837000 L 457.939680 414.824000 L 457.949680 419.812000 L 457.950680 424.800000 L 457.950680 429.788000 L 457.950680 434.776000 L 457.950680 439.764000 L 457.950680 444.752000 L 457.950680 449.739000 L 457.950680 454.727000 L 457.950680 459.715000 L 457.950680 464.703000 L 457.950680 469.691000" fill="none" id="28" stroke="#658424" stroke-width="0.5" /><path d="M 462.675680 213.888000 L 463.115680 218.834000 L 463.534680 223.782000 L 463.948680 228.731000 L 464.292680 233.685000 L 464.397680 238.650000 L 464.414680 243.616000 L 464.389680 248.581000 L 464.361680 253.547000 L 464.333680 258.513000 L 464.305680 263.479000 L 464.212680 268.444000 L 464.002680 273.406000 L 463.763680 278.366000 L 463.522680 283.326000 L 463.281680 288.286000 L 463.039680 293.246000 L 462.798680 298.206000 L 462.557680 303.166000 L 462.292680 308.125000 L 461.995680 313.082000 L 461.688680 318.038000 L 461.381680 322.995000 L 461.073680 327.951000 L 460.765680 332.907000 L 460.458680 337.864000 L 460.150680 342.820000 L 459.861680 347.778000 L 459.595680 352.736000 L 459.337680 357.696000 L 459.079680 362.655000 L 458.821680 367.614000 L 458.564680 372.573000 L 458.306680 377.532000 L 458.048680 382.492000 L 457.790680 387.451000 L 457.557680 392.411000 L 457.360680 397.373000 L 457.177680 402.336000 L 456.993680 407.298000 L 456.809680 412.261000 L 456.626680 417.223000 L 456.442680 422.186000 L 456.258680 427.148000 L 456.075680 432.111000 L 455.900680 437.074000 L 455.758680 442.038000 L 455.648680 447.002000 L 455.544680 451.967000 L 455.440680 456.932000 L 455.337680 461.897000 L 455.233680 466.862000 L 455.130680 471.827000 L 455.034680 476.792000 L 454.957680 481.757000 L 454.891680 486.722000 L 454.824680 491.688000 L 454.758680 496.653000 L 454.700680 501.619000 L 454.672680 506.585000 L 454.666680 511.551000 L 454.661680 516.516000 L 454.657680 521.482000 L 454.652680 526.448000 L 454.647680 531.414000 L 454.642680 536.380000 L 454.637680 541.346000 L 454.632680 546.312000 L 454.628680 551.278000 L 454.623680 556.244000 L 454.618680 561.210000 L 454.620680 566.176000 L 454.674680 571.141000 L 454.773680 576.106000 L 454.872680 581.071000 L 454.971680 586.036000 L 455.070680 591.001000 L 455.169680 595.966000 L 455.268680 600.931000 L 455.367680 605.896000" fill="none" id="29" stroke="#658424" stroke-width="0.5" /><path d="M 457.793680 518.447000 L 457.699680 523.314000 L 457.546680 528.179000 L 457.312680 533.041000 L 457.000680 537.899000 L 456.679680 542.756000 L 456.357680 547.613000 L 456.073680 552.472000 L 455.914680 557.337000 L 455.808680 562.204000 L 455.707680 567.071000 L 455.607680 571.937000 L 455.562680 576.805000 L 455.556680 581.672000 L 455.556680 586.540000 L 455.564680 591.408000 L 455.602680 596.275000 L 455.667680 601.143000 L 455.761680 606.009000 L 455.917680 610.875000 L 456.114680 615.738000 L 456.314680 620.602000 L 456.513680 625.465000 L 456.712680 630.329000 L 456.912680 635.193000 L 457.111680 640.056000 L 457.311680 644.920000 L 457.510680 649.784000 L 457.698680 654.648000 L 457.805680 659.514000 L 457.870680 664.381000 L 457.932680 669.249000 L 457.982680 674.116000" fill="none" id="30" stroke="#658424" stroke-width="0.5" /><path d="M 457.383680 215.896000 L 456.858680 220.804000 L 456.442680 225.722000 L 456.189680 230.652000 L 456.040680 235.586000 L 455.956680 240.521000 L 455.919680 245.457000 L 455.889680 250.393000 L 455.859680 255.329000 L 455.828680 260.265000 L 455.798680 265.201000 L 455.767680 270.137000 L 455.706680 275.073000 L 455.609680 280.008000 L 455.502680 284.943000 L 455.382680 289.877000 L 455.235680 294.811000 L 455.076680 299.745000 L 454.917680 304.678000 L 454.758680 309.612000 L 454.598680 314.545000 L 454.439680 319.479000 L 454.280680 324.412000 L 454.121680 329.346000 L 453.962680 334.279000 L 453.802680 339.213000 L 453.643680 344.146000 L 453.484680 349.080000 L 453.325680 354.013000 L 453.166680 358.947000 L 453.007680 363.880000 L 452.866680 368.814000 L 452.778680 373.750000 L 452.709680 378.685000 L 452.640680 383.621000 L 452.580680 388.557000 L 452.568680 393.493000 L 452.572680 398.429000 L 452.576680 403.365000 L 452.580680 408.301000 L 452.584680 413.237000 L 452.588680 418.173000 L 452.592680 423.109000 L 452.596680 428.045000" fill="none" id="31" stroke="#658424" stroke-width="0.5" /><path d="M 454.863680 214.620000 L 454.455680 219.549000 L 454.106680 224.482000 L 454.037680 229.426000 L 454.381680 234.359000 L 454.514680 239.303000 L 454.618680 244.247000 L 454.717680 249.192000 L 454.706680 254.137000 L 454.671680 259.082000 L 454.634680 264.028000 L 454.598680 268.973000 L 454.548680 273.918000 L 454.390680 278.861000 L 454.167680 283.801000 L 453.935680 288.741000 L 453.702680 293.681000 L 453.463680 298.621000 L 453.201680 303.559000 L 452.925680 308.497000 L 452.647680 313.435000 L 452.370680 318.372000 L 452.092680 323.310000 L 451.814680 328.248000 L 451.536680 333.185000 L 451.258680 338.123000 L 450.980680 343.061000 L 450.703680 347.998000 L 450.425680 352.936000 L 450.150680 357.874000 L 449.891680 362.812000 L 449.645680 367.752000 L 449.402680 372.691000 L 449.160680 377.631000 L 448.917680 382.570000 L 448.675680 387.509000 L 448.433680 392.449000 L 448.190680 397.388000 L 447.948680 402.328000 L 447.705680 407.267000 L 447.463680 412.207000 L 447.220680 417.146000 L 446.978680 422.086000 L 446.735680 427.025000 L 446.493680 431.965000 L 446.250680 436.904000 L 446.014680 441.844000 L 445.795680 446.785000 L 445.589680 451.726000 L 445.384680 456.667000 L 445.179680 461.608000 L 444.982680 466.550000 L 444.809680 471.492000 L 444.651680 476.435000 L 444.494680 481.378000 L 444.336680 486.321000 L 444.179680 491.264000 L 444.021680 496.207000 L 443.867680 501.150000 L 443.734680 506.093000 L 443.650680 511.038000 L 443.574680 515.983000 L 443.497680 520.928000 L 443.421680 525.873000 L 443.344680 530.817000 L 443.268680 535.762000 L 443.191680 540.707000 L 443.115680 545.652000 L 443.039680 550.597000 L 442.962680 555.542000 L 442.886680 560.486000 L 442.809680 565.431000 L 442.733680 570.376000 L 442.656680 575.321000 L 442.580680 580.266000" fill="none" id="32" stroke="#658424" stroke-width="0.5" /><path d="M 276.596680 138.179000 L 280.986680 140.472000 L 285.420680 142.677000 L 289.921680 144.743000 L 294.443680 146.763000 L 298.963680 148.788000 L 303.462680 150.858000 L 307.931680 152.994000 L 312.395680 155.138000 L 316.860680 157.283000 L 321.324680 159.427000 L 325.788680 161.571000 L 330.261680 163.698000 L 334.769680 165.750000 L 339.305680 167.737000 L 343.848680 169.710000 L 348.391680 171.683000 L 352.934680 173.655000 L 357.476680 175.628000 L 362.019680 177.601000 L 366.562680 179.574000 L 371.105680 181.546000 L 375.648680 183.519000 L 380.191680 185.492000 L 384.733680 187.465000 L 389.287680 189.412000 L 393.869680 191.291000 L 398.475680 193.111000 L 403.087680 194.916000 L 407.704680 196.710000 L 412.332680 198.474000 L 416.968680 200.215000 L 421.607680 201.950000 L 426.245680 203.686000 L 430.884680 205.422000 L 435.522680 207.158000 L 440.161680 208.894000 L 444.799680 210.630000 L 449.439680 212.364000 L 454.087680 214.073000 L 458.767680 215.694000 L 463.473680 217.237000 L 468.182680 218.770000 L 472.891680 220.305000 L 477.591680 221.866000 L 482.274680 223.480000 L 486.950680 225.110000 L 491.619680 226.762000" fill="none" id="33" stroke="#989c37" stroke-width="0.5" /><path d="M 274.872680 142.550000 L 279.554680 143.980000 L 284.214680 145.479000 L 288.840680 147.080000 L 293.441680 148.754000 L 298.018680 150.489000 L 302.524680 152.405000 L 306.991680 154.407000 L 311.422680 156.488000 L 315.852680 158.573000 L 320.308680 160.599000 L 324.775680 162.603000 L 329.251680 164.587000 L 333.756680 166.501000 L 338.272680 168.392000 L 342.788680 170.283000 L 347.303680 172.174000 L 351.814680 174.076000 L 356.304680 176.026000 L 360.779680 178.012000 L 365.251680 180.004000 L 369.723680 181.995000 L 374.195680 183.987000 L 378.668680 185.979000 L 383.140680 187.969000 L 387.635680 189.909000 L 392.164680 191.767000 L 396.706680 193.593000 L 401.249680 195.419000 L 405.791680 197.245000 L 410.336680 199.063000 L 414.894680 200.850000 L 419.464680 202.605000 L 424.037680 204.355000 L 428.609680 206.104000 L 433.181680 207.854000 L 437.753680 209.604000 L 442.325680 211.353000 L 446.901680 213.095000 L 451.500680 214.773000 L 456.147680 216.311000 L 460.810680 217.802000 L 465.488680 219.246000 L 470.204680 220.561000 L 474.948680 221.768000 L 479.714680 222.888000" fill="none" id="34" stroke="#989c37" stroke-width="0.5" /><path d="M 270.423680 136.100000 L 270.561680 141.095000 L 270.681680 146.089000 L 270.760680 151.085000 L 270.736680 156.081000 L 270.704680 161.077000 L 270.625680 166.073000 L 270.539680 171.068000 L 270.452680 176.064000 L 270.353680 181.059000 L 270.223680 186.054000 L 270.078680 191.048000 L 269.932680 196.042000 L 269.787680 201.036000 L 269.641680 206.030000 L 269.495680 211.024000 L 269.349680 216.018000 L 269.204680 221.012000 L 269.058680 226.006000 L 268.912680 231.000000 L 268.763680 235.994000 L 268.592680 240.988000 L 268.393680 245.980000 L 268.184680 250.972000 L 267.970680 255.963000 L 267.738680 260.954000 L 267.474680 265.943000 L 267.194680 270.932000 L 266.911680 275.920000 L 266.629680 280.908000 L 266.346680 285.896000 L 266.064680 290.885000 L 265.781680 295.873000 L 265.498680 300.861000 L 265.216680 305.849000 L 264.933680 310.837000 L 264.651680 315.826000 L 264.368680 320.814000 L 264.086680 325.802000 L 263.803680 330.790000 L 263.521680 335.779000 L 263.234680 340.767000 L 262.933680 345.754000 L 262.616680 350.740000 L 262.291680 355.725000 L 261.966680 360.711000 L 261.642680 365.697000 L 261.317680 370.682000 L 260.992680 375.668000 L 260.667680 380.654000 L 260.342680 385.639000 L 260.017680 390.625000 L 259.692680 395.611000 L 259.367680 400.596000 L 259.043680 405.582000 L 258.718680 410.568000 L 258.393680 415.553000 L 258.068680 420.539000 L 257.743680 425.524000 L 257.418680 430.510000 L 257.093680 435.496000 L 256.768680 440.481000 L 256.444680 445.467000 L 256.119680 450.453000 L 255.794680 455.438000 L 255.469680 460.424000 L 255.144680 465.410000 L 254.819680 470.395000 L 254.494680 475.381000 L 254.169680 480.367000 L 253.845680 485.352000 L 253.520680 490.338000 L 253.195680 495.323000 L 252.870680 500.309000 L 252.545680 505.295000 L 252.220680 510.280000 L 251.896680 515.266000 L 251.578680 520.252000 L 251.277680 525.239000 L 250.986680 530.227000 L 250.696680 535.215000 L 250.406680 540.203000 L 250.116680 545.190000 L 249.826680 550.178000 L 249.536680 555.166000 L 249.257680 560.154000 L 249.012680 565.145000 L 248.780680 570.135000 L 248.552680 575.126000 L 248.323680 580.117000 L 248.092680 585.108000" fill="none" id="35" stroke="#bb568c" stroke-width="0.5" /><path d="M 272.407680 123.321000 L 272.442680 128.268000 L 272.635680 133.211000 L 273.083680 138.138000 L 273.642680 143.054000 L 274.201680 147.970000 L 274.760680 152.885000 L 275.318680 157.801000 L 275.851680 162.719000 L 276.307680 167.645000 L 276.751680 172.573000 L 277.143680 177.504000 L 277.486680 182.440000 L 277.818680 187.376000 L 278.131680 192.313000 L 278.415680 197.252000 L 278.688680 202.192000 L 278.961680 207.132000 L 279.234680 212.071000 L 279.507680 217.011000 L 279.780680 221.951000 L 280.053680 226.891000 L 280.326680 231.830000 L 280.599680 236.770000 L 280.872680 241.710000 L 281.145680 246.649000 L 281.418680 251.589000 L 281.691680 256.529000 L 281.964680 261.468000 L 282.237680 266.408000 L 282.510680 271.348000 L 282.783680 276.288000 L 283.056680 281.227000 L 283.330680 286.167000 L 283.603680 291.107000 L 283.876680 296.046000 L 284.149680 300.986000 L 284.430680 305.925000 L 284.723680 310.864000 L 285.024680 315.802000 L 285.324680 320.740000 L 285.624680 325.678000 L 285.924680 330.617000 L 286.224680 335.555000 L 286.515680 340.493000 L 286.777680 345.434000 L 287.017680 350.375000 L 287.258680 355.316000 L 287.499680 360.258000 L 287.740680 365.199000 L 287.981680 370.141000 L 288.222680 375.082000 L 288.462680 380.023000 L 288.703680 384.965000 L 288.944680 389.906000 L 289.185680 394.848000 L 289.426680 399.789000 L 289.667680 404.730000" fill="none" id="36" stroke="#cfe395" stroke-width="0.5" /><path d="M 269.037680 136.384000 L 269.794680 141.301000 L 270.451680 146.232000 L 271.009680 151.176000 L 271.405680 156.135000 L 271.770680 161.096000 L 272.134680 166.058000 L 272.498680 171.019000 L 272.862680 175.981000 L 273.224680 180.943000 L 273.553680 185.907000 L 273.797680 190.876000 L 274.023680 195.845000 L 274.238680 200.816000 L 274.438680 205.786000 L 274.633680 210.758000 L 274.828680 215.729000 L 275.022680 220.700000 L 275.217680 225.671000 L 275.412680 230.642000 L 275.607680 235.613000 L 275.797680 240.584000 L 275.955680 245.557000 L 276.059680 250.530000 L 276.142680 255.505000 L 276.223680 260.479000 L 276.289680 265.453000 L 276.316680 270.428000 L 276.325680 275.403000 L 276.332680 280.378000 L 276.339680 285.353000 L 276.346680 290.328000 L 276.352680 295.303000 L 276.359680 300.278000 L 276.366680 305.253000 L 276.355680 310.227000 L 276.294680 315.202000 L 276.186680 320.176000 L 276.047680 325.149000 L 275.877680 330.121000 L 275.691680 335.092000 L 275.502680 340.063000 L 275.314680 345.035000 L 275.126680 350.006000 L 274.937680 354.977000 L 274.749680 359.949000 L 274.560680 364.920000 L 274.372680 369.891000 L 274.184680 374.863000 L 273.995680 379.834000 L 273.807680 384.805000 L 273.618680 389.777000 L 273.430680 394.748000 L 273.241680 399.719000 L 273.053680 404.691000 L 272.865680 409.662000 L 272.676680 414.633000 L 272.488680 419.605000 L 272.299680 424.576000 L 272.111680 429.548000 L 271.923680 434.519000 L 271.734680 439.490000 L 271.546680 444.462000 L 271.357680 449.433000 L 271.169680 454.404000 L 270.981680 459.376000 L 270.792680 464.347000 L 270.604680 469.318000 L 270.425680 474.290000 L 270.275680 479.263000 L 270.144680 484.236000 L 270.018680 489.209000 L 269.892680 494.182000 L 269.765680 499.156000 L 269.639680 504.129000 L 269.513680 509.102000 L 269.386680 514.076000 L 269.260680 519.049000 L 269.134680 524.022000 L 269.007680 528.996000 L 268.881680 533.969000 L 268.755680 538.942000 L 268.628680 543.916000 L 268.502680 548.889000 L 268.376680 553.862000 L 268.249680 558.835000 L 268.123680 563.809000 L 267.997680 568.782000 L 267.873680 573.755000 L 267.779680 578.729000 L 267.697680 583.704000 L 267.616680 588.678000 L 267.535680 593.652000 L 267.453680 598.626000 L 267.372680 603.601000 L 267.291680 608.575000 L 267.210680 613.549000" fill="none" id="37" stroke="#c45372" stroke-width="0.5" /><path d="M 303.367680 596.069000 L 305.895680 597.367000 L 308.410680 598.689000 L 310.910680 600.040000 L 313.394680 601.421000 L 315.862680 602.828000 L 318.344680 604.211000 L 320.844680 605.562000 L 323.359680 606.884000 L 325.886680 608.184000 L 328.423680 609.464000 L 330.969680 610.726000 L 333.517680 611.983000 L 336.066680 613.239000 L 338.615680 614.495000 L 341.164680 615.751000 L 343.713680 617.007000 L 346.262680 618.262000 L 348.818680 619.504000 L 351.384680 620.725000 L 353.962680 621.919000 L 356.541680 623.113000 L 359.120680 624.306000 L 361.698680 625.499000 L 364.277680 626.693000 L 366.856680 627.886000 L 369.439680 629.071000 L 372.033680 630.230000 L 374.638680 631.366000 L 377.251680 632.482000 L 379.871680 633.581000" fill="none" id="38" stroke="#008c6f" stroke-width="0.5" /><path d="M 312.627680 601.974000 L 314.538680 602.992000 L 316.446680 604.014000 L 318.349680 605.045000 L 320.244680 606.091000 L 322.135680 607.144000 L 324.020680 608.208000 L 325.909680 609.265000 L 327.805680 610.309000 L 329.708680 611.340000 L 331.615680 612.364000 L 333.527680 613.378000 L 335.439680 614.392000 L 337.352680 615.406000 L 339.264680 616.420000 L 341.177680 617.433000 L 343.089680 618.447000 L 345.001680 619.461000 L 346.914680 620.475000 L 348.826680 621.488000 L 350.739680 622.502000 L 352.651680 623.516000 L 354.572680 624.514000 L 356.510680 625.477000 L 358.450680 626.438000 L 360.389680 627.398000 L 362.381680 628.246000 L 364.385680 629.063000 L 366.414680 629.816000 L 368.461680 630.519000 L 370.517680 631.195000" fill="none" id="39" stroke="#008c6f" stroke-width="0.5" /><path d="M 234.958680 545.140000 L 239.347680 547.467000 L 243.765680 549.738000 L 248.225680 551.927000 L 252.710680 554.061000 L 257.197680 556.194000 L 261.683680 558.327000 L 266.164680 560.471000 L 270.626680 562.656000 L 275.077680 564.862000 L 279.510680 567.104000 L 283.911680 569.408000 L 288.299680 571.735000 L 292.672680 574.093000 L 296.998680 576.535000 L 301.294680 579.028000 L 305.585680 581.532000 L 309.876680 584.035000 L 314.166680 586.539000 L 318.457680 589.042000 L 322.748680 591.546000 L 327.039680 594.049000 L 331.331680 596.549000 L 335.638680 599.025000 L 339.973680 601.451000 L 344.327680 603.844000 L 348.684680 606.229000 L 353.042680 608.613000 L 357.400680 610.998000 L 361.758680 613.383000 L 366.116680 615.768000 L 370.473680 618.153000 L 374.826680 620.547000 L 379.169680 622.958000 L 383.506680 625.381000 L 387.842680 627.805000 L 392.179680 630.229000 L 396.515680 632.653000 L 400.851680 635.077000 L 405.187680 637.501000 L 409.523680 639.925000 L 413.859680 642.349000 L 418.195680 644.773000 L 422.529680 647.202000 L 426.847680 649.657000 L 431.150680 652.139000 L 435.451680 654.626000 L 439.751680 657.112000 L 444.052680 659.599000 L 448.353680 662.085000 L 452.653680 664.572000 L 456.954680 667.058000 L 461.254680 669.545000 L 465.555680 672.031000 L 469.856680 674.518000" fill="none" id="40" stroke="#ff94af" stroke-width="0.5" /><path d="M 285.604680 424.904000 L 286.660680 429.667000 L 287.648680 434.446000 L 288.549680 439.241000 L 289.345680 444.056000 L 290.123680 448.873000 L 290.899680 453.690000 L 291.676680 458.507000 L 292.452680 463.325000 L 293.229680 468.142000 L 294.011680 472.959000 L 294.847680 477.766000 L 295.728680 482.565000 L 296.621680 487.362000 L 297.514680 492.159000 L 298.406680 496.957000 L 299.302680 501.753000 L 300.250680 506.540000 L 301.291680 511.307000 L 302.382680 516.063000 L 303.472680 520.819000 L 304.563680 525.575000 L 305.642680 530.334000 L 306.687680 535.100000 L 307.707680 539.872000 L 308.726680 544.644000 L 309.765680 549.411000 L 310.870680 554.164000 L 312.019680 558.906000 L 313.169680 563.649000 L 314.318680 568.391000 L 315.468680 573.133000 L 316.617680 577.875000 L 317.666680 582.641000 L 318.529680 587.443000 L 319.273680 592.266000" fill="none" id="41" stroke="#488656" stroke-width="0.5" /><path d="M 365.572680 634.715000 L 367.066680 634.016000 L 368.560680 633.317000 L 370.031680 632.570000 L 371.501680 631.823000 L 372.935680 631.008000 L 374.369680 630.193000 L 375.774680 629.329000 L 377.179680 628.465000 L 378.584680 627.601000 L 379.989680 626.738000 L 381.395680 625.874000 L 382.800680 625.010000 L 384.205680 624.146000 L 385.610680 623.283000 L 387.015680 622.419000 L 388.420680 621.555000 L 389.825680 620.691000 L 391.230680 619.828000 L 392.635680 618.964000 L 394.041680 618.100000 L 395.446680 617.236000 L 396.851680 616.373000 L 398.256680 615.509000 L 399.661680 614.645000 L 401.066680 613.781000 L 402.471680 612.918000 L 403.876680 612.054000 L 405.282680 611.190000 L 406.687680 610.326000 L 408.092680 609.463000" fill="none" id="42" stroke="#ffc0e1" stroke-width="0.5" /><path d="M 374.612680 630.935000 L 375.543680 630.296000 L 376.475680 629.658000 L 377.416680 629.034000 L 378.358680 628.411000 L 379.308680 627.800000 L 380.258680 627.190000 L 381.218680 626.595000 L 382.178680 625.999000 L 383.147680 625.419000 L 384.116680 624.839000 L 385.091680 624.270000 L 386.067680 623.700000 L 387.043680 623.132000 L 388.019680 622.563000 L 388.994680 621.995000 L 389.970680 621.427000 L 390.943680 620.853000 L 391.916680 620.279000 L 392.884680 619.698000 L 393.853680 619.116000 L 394.804680 618.508000 L 395.756680 617.900000 L 396.698680 617.278000 L 397.641680 616.655000 L 398.545680 615.978000 L 399.449680 615.301000 L 400.315680 614.576000 L 401.181680 613.852000 L 402.022680 613.098000 L 402.863680 612.344000" fill="none" id="43" stroke="#ffc0e1" stroke-width="0.5" /><path d="M 326.486680 581.423000 L 329.211680 582.739000 L 331.937680 584.055000 L 334.663680 585.371000 L 337.388680 586.687000 L 340.114680 588.003000 L 342.840680 589.319000 L 345.565680 590.635000 L 348.291680 591.951000 L 351.017680 593.267000 L 353.742680 594.583000 L 356.468680 595.899000 L 359.194680 597.215000 L 361.917680 598.535000 L 364.636680 599.866000 L 367.349680 601.208000 L 370.057680 602.558000 L 372.764680 603.913000 L 375.471680 605.267000 L 378.181680 606.615000 L 380.913680 607.918000 L 383.676680 609.153000 L 386.460680 610.339000 L 389.252680 611.508000 L 392.047680 612.669000 L 394.864680 613.776000 L 397.705680 614.821000 L 400.553680 615.846000 L 403.401680 616.869000 L 406.250680 617.891000 L 409.100680 618.911000" fill="none" id="44" stroke="#6c8139" stroke-width="0.5" /><path d="M 375.273680 628.478000 L 376.951680 624.299000 L 378.504680 620.072000 L 379.879680 615.784000 L 381.199680 611.479000 L 382.519680 607.173000 L 383.839680 602.867000 L 385.159680 598.562000 L 386.479680 594.256000 L 387.798680 589.950000 L 389.108680 585.641000 L 390.393680 581.325000 L 391.651680 577.001000 L 392.903680 572.675000 L 394.154680 568.349000 L 395.396680 564.020000 L 396.507680 559.656000 L 397.606680 555.289000 L 398.700680 550.920000 L 399.762680 546.544000 L 400.775680 542.155000 L 401.766680 537.762000 L 402.753680 533.369000 L 403.741680 528.975000 L 404.729680 524.581000 L 405.719680 520.188000 L 406.724680 515.798000 L 407.758680 511.415000 L 408.803680 507.034000 L 409.848680 502.654000 L 410.895680 498.274000" fill="none" id="45" stroke="#a9d0ff" stroke-width="0.5" /><path d="M 368.659680 634.998000 L 371.309680 630.924000 L 373.605680 626.642000 L 375.434680 622.142000 L 376.814680 617.481000 L 378.159680 612.811000 L 379.543680 608.151000 L 380.971680 603.504000 L 382.406680 598.860000 L 383.850680 594.219000 L 385.325680 589.587000 L 386.835680 584.967000 L 388.355680 580.350000 L 389.875680 575.733000 L 391.394680 571.116000 L 392.914680 566.498000 L 394.434680 561.881000 L 395.945680 557.261000 L 397.421680 552.630000 L 398.852680 547.985000 L 400.257680 543.331000 L 401.620680 538.666000 L 402.917680 533.981000 L 404.151680 529.280000 L 405.355680 524.570000 L 406.554680 519.860000 L 407.753680 515.149000 L 408.933680 510.433000 L 410.038680 505.700000 L 411.125680 500.962000 L 412.186680 496.219000" fill="none" id="46" stroke="#a9d0ff" stroke-width="0.5" /><path d="M 480.785680 196.927000 L 480.970680 198.239000 L 481.155680 199.550000 L 481.316680 200.865000 L 481.477680 202.180000 L 481.613680 203.498000 L 481.749680 204.815000 L 481.883680 206.133000 L 482.017680 207.451000 L 482.152680 208.769000 L 482.288680 210.086000 L 482.434680 211.403000 L 482.580680 212.719000 L 482.738680 214.035000 L 482.896680 215.350000 L 483.047680 216.666000 L 483.197680 217.982000 L 483.336680 219.299000 L 483.475680 220.616000 L 483.602680 221.935000 L 483.729680 223.253000 L 483.849680 224.573000 L 483.970680 225.892000 L 484.087680 227.211000 L 484.203680 228.531000 L 484.321680 229.850000 L 484.439680 231.169000 L 484.557680 232.489000 L 484.675680 233.808000 L 484.793680 235.127000 L 484.911680 236.447000" fill="none" id="47" stroke="#a98c2c" stroke-width="0.5" /></svg>