<?xml version="1.0" encoding="utf-8" ?>
<svg baseProfile="full" height="815.5" version="1.1" viewBox="0,0,886.5,815.5" width="886.5" xmlns="http://www.w3.org/2000/svg" xmlns:ev="http://www.w3.org/2001/xml-events" xmlns:xlink="http://www.w3.org/1999/xlink"><defs><style type="text/css"><![CDATA[
	.background { fill: white; }
	.line { stroke: firebrick; stroke-width: .1mm; }
	.blacksquare { fill: indigo; }
	.whitesquare { fill: white; }
]]></style></defs><rect class="background" height="100%" width="100%" x="0" y="0" /><path d="M 882.617411 432.765896 L 882.610411 437.722896 L 882.604410 442.679896 L 882.597411 447.636896 L 882.586411 452.593896 L 882.522410 457.549896 L 882.337411 462.503896 L 882.137410 467.456896 L 881.937411 472.409896 L 881.737411 477.362896 L 881.538411 482.315896 L 881.338411 487.267896 L 881.138411 492.220896 L 880.942411 497.174896 L 880.781410 502.128896 L 880.695410 507.084896 L 880.663411 512.041896 L 880.645411 516.998896 L 880.627410 521.955896 L 880.609411 526.912896 L 880.592411 531.869896 L 880.616411 536.826896 L 880.736411 541.781896 L 880.917411 546.735896 L 881.108410 551.688896 L 881.299411 556.641896 L 881.490411 561.595896 L 881.681410 566.548896 L 881.878410 571.501896 L 882.106411 576.453896 L 882.383411 581.402896 L 882.678411 586.350896 L 882.973410 591.298896 L 883.268411 596.247896 L 883.563411 601.195896 L 883.858410 606.143896 L 884.153411 611.091896 L 884.448411 616.039896 L 884.744411 620.988896 L 885.039411 625.936896 L 885.334410 630.884896 L 885.629411 635.832896 L 885.924411 640.780896" fill="none" id="0" stroke="#c583d9" stroke-width="0.5" /><path d="M 526.900411 361.166896 L 529.198411 359.941896 L 531.557411 358.844896 L 533.980411 357.903896 L 536.482411 357.181896 L 539.037411 356.683896 L 541.607411 356.271896 L 544.187411 355.918896 L 546.770411 355.596896 L 549.355411 355.278896 L 551.941411 354.978896 L 554.530411 354.706896 L 557.126411 354.503896 L 559.725411 354.347896 L 562.326411 354.215896 L 564.927411 354.096896 L 567.528411 353.990896 L 570.131411 353.925896 L 572.735411 353.907896 L 575.338411 353.948896 L 577.938411 354.086896 L 580.528411 354.339896 L 583.108410 354.687896 L 585.683411 355.072896 L 588.252410 355.493896 L 590.802411 356.011896 L 593.328411 356.644896 L 595.825410 357.382896 L 598.291410 358.215896 L 600.733410 359.118896 L 603.152410 360.080896" fill="none" id="1" stroke="#f375a0" stroke-width="0.5" /><path d="M 456.192411 610.757896 L 459.386411 612.148896 L 462.548411 613.611896 L 465.641411 615.214896 L 468.732411 616.823896 L 471.902411 618.266896 L 475.110411 619.625896 L 478.360411 620.879896 L 481.676411 621.945896 L 485.049411 622.814896 L 488.466411 623.487896 L 491.918411 623.945896 L 495.389411 624.239896 L 498.869411 624.381896 L 502.353411 624.397896 L 505.836410 624.338896 L 509.314411 624.160896 L 512.781410 623.818896 L 516.239411 623.393896 L 519.697411 622.968896 L 523.155411 622.542896 L 526.612411 622.106896 L 530.061411 621.619896 L 533.497411 621.042896 L 536.920411 620.392896 L 540.323411 619.649896 L 543.704410 618.809896 L 547.063411 617.883896 L 550.392410 616.856896 L 553.697411 615.752896 L 556.979410 614.584896" fill="none" id="2" stroke="#9de993" stroke-width="0.5" /><path d="M 834.428411 466.190896 L 836.732411 467.469896 L 839.054411 468.716896 L 841.392410 469.931896 L 843.787411 471.032896 L 846.189411 472.116896 L 848.599410 473.183896 L 850.965411 474.344896 L 853.288411 475.585896 L 855.565410 476.912896 L 857.788411 478.327896 L 859.895411 479.899896 L 861.872411 481.641896 L 863.402410 483.785896 L 864.203411 486.170896 L 864.225411 488.805896 L 863.621411 491.370896 L 862.576411 493.747896 L 861.130411 495.950896 L 859.485411 498.009896 L 857.739411 499.979896 L 855.899411 501.865896 L 853.875411 503.553896 L 851.800410 505.176896 L 849.678411 506.739896 L 847.467411 508.173896 L 845.193411 509.500896 L 842.858410 510.723896 L 840.498410 511.895896 L 838.118410 513.027896 L 835.719410 514.119896" fill="none" id="3" stroke="#ad5ba7" stroke-width="0.5" /><path d="M 254.270410 576.221896 L 254.801411 578.150896 L 255.340410 580.075896 L 255.903411 581.994896 L 256.499411 583.903896 L 257.134411 585.799896 L 257.758411 587.699896 L 258.379411 589.600896 L 258.953411 591.516896 L 259.523411 593.433896 L 260.093411 595.350896 L 260.663411 597.267896 L 261.233411 599.183896 L 261.803411 601.100896 L 262.373411 603.017896 L 262.943411 604.934896 L 263.513411 606.851896 L 264.083411 608.768896 L 264.731411 610.656896 L 265.543411 612.483896 L 266.375411 614.302896 L 267.222411 616.113896 L 268.564411 617.561896 L 270.065411 618.870896 L 271.937410 619.573896 L 273.842411 619.986896 L 275.825411 619.723896 L 277.736411 619.187896 L 279.590411 618.439896 L 281.271411 617.372896 L 282.900411 616.214896" fill="none" id="4" stroke="#58f2c3" stroke-width="0.5" /><path d="M 234.774410 430.639896 L 233.998411 430.815896 L 233.222410 430.992896 L 232.457411 431.210896 L 231.692410 431.429896 L 230.951411 431.720896 L 230.211410 432.012896 L 229.480411 432.325896 L 228.749411 432.639896 L 228.033411 432.988896 L 227.318410 433.338896 L 226.611411 433.703896 L 225.904411 434.068896 L 225.226410 434.483896 L 224.548410 434.900896 L 223.897411 435.358896 L 223.247411 435.817896 L 222.600411 436.280896 L 221.952410 436.743896 L 221.309410 437.212896 L 220.666411 437.680896 L 220.052411 438.187896 L 219.439411 438.694896 L 218.939411 439.313896 L 218.441410 439.934896 L 217.995410 440.592896 L 217.564411 441.259896 L 217.305410 442.012896 L 217.068410 442.770896 L 216.924410 443.552896 L 216.781410 444.335896" fill="none" id="5" stroke="#c94e76" stroke-width="0.5" /><path d="M 230.806410 558.198896 L 230.983410 560.363896 L 231.199410 562.525896 L 231.491411 564.678896 L 231.902411 566.810896 L 232.371410 568.932896 L 232.938411 571.029896 L 233.506410 573.127896 L 234.075411 575.224896 L 234.734410 577.293896 L 235.438411 579.349896 L 236.263410 581.359896 L 237.109410 583.360896 L 237.999411 585.342896 L 238.953410 587.294896 L 239.941410 589.229896 L 240.968411 591.144896 L 242.002410 593.055896 L 243.048410 594.960896 L 244.204410 596.798896 L 245.417410 598.600896 L 246.650410 600.389896 L 247.935410 602.139896 L 249.333410 603.803896 L 250.862411 605.341896 L 252.463411 606.809896 L 254.461410 607.656896 L 256.516411 608.302896 L 258.676411 608.545896 L 260.835411 608.468896 L 262.995411 608.229896" fill="none" id="6" stroke="#c94e76" stroke-width="0.5" /><path d="M 215.026410 441.269896 L 215.246410 446.159896 L 215.650410 451.037896 L 216.344411 455.883896 L 217.188411 460.705896 L 218.031410 465.527896 L 218.875410 470.349896 L 219.719411 475.171896 L 220.553410 479.994896 L 221.271411 484.836896 L 221.876410 489.694896 L 222.452410 494.555896 L 223.027411 499.417896 L 223.603410 504.278896 L 224.178410 509.139896 L 224.754411 514.000896 L 225.343411 518.860896 L 226.011411 523.709896 L 226.762410 528.546896 L 227.530410 533.381896 L 228.306410 538.214896 L 229.151410 543.036896 L 230.124411 547.834896 L 231.162410 552.617896 L 232.199410 557.401896 L 233.268410 562.178896 L 234.472410 566.923896 L 235.832411 571.626896 L 237.238410 576.315896 L 238.758410 580.968896 L 240.329410 585.604896 L 241.900410 590.240896 L 243.471410 594.877896 L 245.042410 599.513896" fill="none" id="7" stroke="#c94e76" stroke-width="0.5" /><path d="M 231.152411 552.528896 L 231.038410 554.589896 L 230.983410 556.649896 L 231.047410 558.712896 L 231.288410 560.757896 L 231.616411 562.794896 L 232.128411 564.793896 L 232.655410 566.787896 L 233.210410 568.774896 L 233.848410 570.736896 L 234.526410 572.684896 L 235.347410 574.577896 L 236.197410 576.457896 L 237.102410 578.311896 L 238.073410 580.131896 L 239.077410 581.933896 L 240.200411 583.664896 L 241.342410 585.382896 L 242.521411 587.075896 L 243.701411 588.768896 L 244.880411 590.461896 L 246.082411 592.138896 L 247.312410 593.794896 L 248.597410 595.408896 L 249.948410 596.966896 L 251.332411 598.496896 L 252.766411 599.980896 L 254.216410 601.448896 L 255.695411 602.886896 L 257.198411 604.300896 L 258.711410 605.702896" fill="none" id="8" stroke="#c94e76" stroke-width="0.5" /><path d="M 229.893410 552.883896 L 230.325411 555.861896 L 230.876410 558.820896 L 231.590410 561.742896 L 232.445411 564.627896 L 233.416411 567.475896 L 234.523411 570.274896 L 235.820411 572.990896 L 237.234410 575.646896 L 238.714410 578.267896 L 240.231411 580.867896 L 241.777411 583.449896 L 243.367411 586.005896 L 244.999411 588.534896 L 246.595410 591.086896 L 248.131410 593.674896 L 249.635411 596.281896 L 251.177411 598.864896 L 252.869410 601.353896 L 254.791411 603.670896 L 256.769411 605.938896 L 258.769411 608.188896 L 260.802411 610.407896 L 262.911411 612.552896 L 265.147411 614.567896 L 267.477411 616.472896 L 269.826411 618.355896 L 272.180411 620.230896 L 274.535411 622.104896 L 276.891411 623.978896 L 279.247411 625.851896" fill="none" id="9" stroke="#c94e76" stroke-width="0.5" /><path d="M 234.207411 566.442896 L 234.215410 565.916896 L 234.222410 565.391896 L 234.230411 564.865896 L 234.237411 564.340896 L 234.244410 563.814896 L 234.252410 563.289896 L 234.259411 562.763896 L 234.267411 562.238896 L 234.274410 561.712896 L 234.281410 561.187896 L 234.289411 560.661896 L 234.296411 560.136896 L 234.335410 559.611896 L 234.373411 559.087896 L 234.436410 558.565896 L 234.498411 558.044896 L 234.589410 557.526896 L 234.680410 557.008896 L 234.807411 556.498896 L 234.935410 555.988896 L 235.067410 555.480896 L 235.199410 554.971896 L 235.340410 554.465896 L 235.482410 553.959896 L 235.630411 553.454896 L 235.777411 552.950896 L 235.934410 552.448896 L 236.091410 551.947896 L 236.251410 551.446896 L 236.412410 550.946896" fill="none" id="10" stroke="#57b870" stroke-width="0.5" /><path d="M 231.971410 567.387896 L 231.859410 566.394896 L 231.746410 565.402896 L 231.733410 564.404896 L 231.727410 563.405896 L 231.813411 562.410896 L 231.914411 561.417896 L 232.189411 560.460896 L 232.505411 559.513896 L 232.891411 558.593896 L 233.303410 557.683896 L 233.776410 556.804896 L 234.278411 555.941896 L 234.861411 555.133896 L 235.494410 554.361896 L 236.154411 553.612896 L 236.834410 552.881896 L 237.536410 552.170896 L 238.260411 551.482896 L 239.009411 550.823896 L 239.794410 550.206896 L 240.584410 549.595896 L 241.386411 548.999896 L 242.192410 548.409896 L 243.009411 547.834896 L 243.825411 547.260896 L 244.642411 546.685896 L 245.459410 546.111896 L 246.276410 545.536896 L 247.093411 544.961896 L 248.727410 543.812896" fill="none" id="11" stroke="#57b870" stroke-width="0.5" /><path d="M 216.781410 444.335896 L 217.263410 445.350896 L 217.745410 446.365896 L 218.282410 447.352896 L 218.819411 448.339896 L 219.426411 449.285896 L 220.034411 450.230896 L 220.709410 451.128896 L 221.385411 452.025896 L 222.128411 452.868896 L 222.872411 453.710896 L 223.677411 454.494896 L 224.483410 455.277896 L 225.381410 455.952896 L 226.279411 456.627896 L 227.210410 457.257896 L 228.140411 457.886896 L 229.100411 458.471896 L 230.060410 459.056896 L 231.027411 459.626896 L 231.995410 460.197896 L 232.986411 460.728896 L 233.976410 461.258896 L 234.987411 461.748896 L 235.999411 462.238896 L 237.025410 462.696896 L 238.051411 463.154896 L 239.080410 463.605896 L 240.109410 464.057896 L 241.142411 464.497896 L 242.176411 464.938896" fill="none" id="12" stroke="#d271bb" stroke-width="0.5" /><path d="M 576.286410 339.316896 L 574.968411 341.281896 L 573.591411 343.203896 L 572.103410 345.043896 L 570.458411 346.738896 L 568.739411 348.364896 L 566.879411 349.827896 L 564.993410 351.256896 L 563.062411 352.624896 L 561.063411 353.888896 L 559.034411 355.104896 L 556.987411 356.291896 L 554.924411 357.450896 L 552.831411 358.554896 L 550.717411 359.618896 L 548.593411 360.661896 L 546.442411 361.648896 L 544.276410 362.598896 L 542.077411 363.473896 L 539.849410 364.268896 L 537.605411 365.021896 L 535.350411 365.737896 L 533.085411 366.420896 L 530.799411 367.033896 L 528.488410 367.536896 L 526.164411 367.981896 L 523.800410 368.073896 L 521.439411 368.047896 L 519.088411 367.780896 L 516.766411 367.341896 L 514.459410 366.812896" fill="none" id="13" stroke="#3d8e43" stroke-width="0.5" /><path d="M 838.554411 594.859896 L 838.582411 596.805896 L 838.610411 598.752896 L 838.676410 600.697896 L 838.743410 602.642896 L 838.885411 604.583896 L 839.028411 606.524896 L 839.168411 608.466896 L 839.309411 610.407896 L 839.412411 612.351896 L 839.515411 614.294896 L 839.451411 616.240896 L 839.385411 618.185896 L 839.103410 620.111896 L 838.820410 622.036896 L 838.303411 623.913896 L 837.785411 625.789896 L 836.924411 627.534896 L 836.061411 629.279896 L 834.750411 630.718896 L 833.437411 632.154896 L 831.966411 633.429896 L 830.493410 634.700896 L 828.751411 635.569896 L 827.006411 636.429896 L 825.119411 636.907896 L 823.232411 637.380896 L 821.295411 637.578896 L 819.359411 637.774896 L 817.413411 637.730896 L 815.467411 637.686896" fill="none" id="14" stroke="#00d4db" stroke-width="0.5" /><path d="M 836.129411 499.355896 L 836.178411 504.324896 L 836.129411 509.293896 L 835.942411 514.259896 L 835.688411 519.222896 L 835.560410 524.189896 L 835.449410 529.157896 L 835.337411 534.125896 L 835.226411 539.093896 L 835.130411 544.062896 L 835.090411 549.031896 L 835.109411 554.000896 L 835.143411 558.969896 L 835.177411 563.938896 L 835.211411 568.908896 L 835.253410 573.877896 L 835.379411 578.844896 L 835.665411 583.804896 L 836.030411 588.760896 L 836.399411 593.716896 L 836.769411 598.671896 L 837.138411 603.627896 L 837.534411 608.580896 L 838.027410 613.525896 L 838.632410 618.457896 L 839.275411 623.385896 L 839.920411 628.312896 L 840.566411 633.239896 L 841.211411 638.166896 L 841.852411 643.094896 L 842.447411 648.027896 L 842.919411 652.974896 L 843.349410 657.925896 L 843.774411 662.876896 L 844.192411 667.828896" fill="none" id="15" stroke="#d55969" stroke-width="0.5" /><path d="M 566.333411 731.229896 L 566.008411 733.343896 L 565.698411 735.459896 L 565.461411 737.584896 L 565.273411 739.714896 L 565.171410 741.850896 L 565.117411 743.988896 L 565.102411 746.126896 L 565.059411 748.265896 L 565.005411 750.403896 L 564.858410 752.536896 L 564.679411 754.666896 L 564.185410 756.747896 L 563.620411 758.805896 L 562.827411 760.791896 L 561.928411 762.727896 L 560.878410 764.590896 L 559.607411 766.295896 L 558.181410 767.889896 L 556.609411 769.335896 L 554.996411 770.739896 L 553.176410 771.860896 L 551.328411 772.932896 L 549.368410 773.787896 L 547.377410 774.557896 L 545.317411 775.134896 L 543.240411 775.635896 L 541.143411 776.056896 L 539.028411 776.360896 L 536.903411 776.600896 L 534.769411 776.733896 L 532.633411 776.843896" fill="none" id="16" stroke="#64e4ff" stroke-width="0.5" /><path d="M 481.452411 763.426896 L 483.876411 765.583896 L 486.387411 767.638896 L 489.008411 769.549896 L 491.725411 771.320896 L 494.535411 772.940896 L 497.425410 774.414896 L 500.385411 775.740896 L 503.413411 776.905896 L 506.486411 777.945896 L 509.607411 778.834896 L 512.800410 779.411896 L 516.028411 779.727896 L 519.267410 779.916896 L 522.511411 780.000896 L 525.750411 779.882896 L 528.971411 779.512896 L 532.157411 778.906896 L 535.295411 778.086896 L 538.383411 777.089896 L 541.465411 776.075896 L 544.514411 774.965896 L 547.476411 773.640896 L 550.394411 772.223896 L 553.286410 770.751896 L 556.150411 769.226896 L 558.993410 767.661896 L 561.828411 766.083896 L 564.663411 764.504896 L 567.498410 762.926896 L 570.333411 761.347896" fill="none" id="17" stroke="#64e4ff" stroke-width="0.5" /><path d="M 455.940411 745.025896 L 458.398411 747.020896 L 460.842411 749.032896 L 463.251411 751.085896 L 465.665411 753.135896 L 468.116411 755.137896 L 470.603411 757.097896 L 473.101411 759.042896 L 475.600411 760.985896 L 478.100411 762.928896 L 480.599411 764.871896 L 483.103411 766.809896 L 485.631411 768.715896 L 488.234411 770.515896 L 490.978411 772.085896 L 493.864411 773.375896 L 496.859411 774.388896 L 499.929411 775.156896 L 503.037411 775.755896 L 506.157411 776.294896 L 509.287411 776.768896 L 512.428411 777.161896 L 515.576411 777.502896 L 518.731411 777.760896 L 521.894411 777.877896 L 525.057411 777.815896 L 528.208411 777.540896 L 531.346411 777.118896 L 534.483410 776.696896 L 537.621411 776.273896 L 540.759411 775.851896" fill="none" id="18" stroke="#64e4ff" stroke-width="0.5" /><path d="M 470.963411 727.473896 L 471.219411 729.683896 L 471.498411 731.889896 L 471.848410 734.086896 L 472.269411 736.268896 L 472.768411 738.436896 L 473.323411 740.590896 L 473.901411 742.737896 L 474.545411 744.866896 L 475.219411 746.985896 L 476.019411 749.061896 L 476.856411 751.121896 L 477.747411 753.159896 L 478.693411 755.171896 L 479.672411 757.169896 L 480.809411 759.079896 L 482.004411 760.951896 L 483.488411 762.608896 L 485.035411 764.202896 L 486.699410 765.677896 L 488.520411 766.934896 L 490.452411 768.036896 L 492.515411 768.856896 L 494.609411 769.605896 L 496.766411 770.145896 L 498.930411 770.659896 L 501.107411 771.114896 L 503.303411 771.453896 L 505.514411 771.690896 L 507.734411 771.825896 L 509.956411 771.930896" fill="none" id="19" stroke="#e68e54" stroke-width="0.5" /><path d="M 869.420411 583.379896 L 869.288411 585.565896 L 869.151410 587.750896 L 869.010411 589.936896 L 868.916410 592.123896 L 868.777410 594.308896 L 868.547411 596.486896 L 868.160411 598.640896 L 867.702411 600.780896 L 867.144411 602.898896 L 866.482411 604.984896 L 865.749411 607.046896 L 864.873410 609.053896 L 863.907411 611.017896 L 862.875411 612.948896 L 861.698411 614.795896 L 860.457411 616.597896 L 859.152410 618.356896 L 857.707411 620.001896 L 856.190410 621.576896 L 854.576411 623.057896 L 852.883411 624.444896 L 851.144411 625.773896 L 849.333411 627.004896 L 847.457411 628.132896 L 845.547411 629.200896 L 843.583411 630.169896 L 841.596411 631.089896 L 839.596411 631.982896 L 837.595411 632.871896 L 835.588411 633.748896 L 833.578411 634.615896" fill="none" id="20" stroke="#54aeff" stroke-width="0.5" /><path d="M 869.263411 587.749896 L 869.285411 589.520896 L 869.300410 591.291896 L 869.267410 593.061896 L 869.225411 594.832896 L 869.157411 596.601896 L 869.033411 598.367896 L 868.817411 600.124896 L 868.507410 601.865896 L 868.102411 603.590896 L 867.592411 605.283896 L 867.019411 606.959896 L 866.327411 608.588896 L 865.597411 610.201896 L 864.797411 611.781896 L 863.988410 613.356896 L 863.075410 614.873896 L 862.146411 616.381896 L 861.115411 617.821896 L 860.066411 619.247896 L 858.960411 620.630896 L 857.797411 621.962896 L 856.541410 623.211896 L 855.212411 624.375896 L 853.809411 625.457896 L 852.366411 626.481896 L 850.898411 627.472896 L 849.391411 628.401896 L 847.870411 629.309896 L 846.317411 630.159896 L 844.759411 631.001896" fill="none" id="21" stroke="#54aeff" stroke-width="0.5" /><path d="M 258.711410 577.119896 L 259.097411 578.834896 L 259.483411 580.548896 L 259.904411 582.254896 L 260.326411 583.960896 L 260.788411 585.656896 L 261.250411 587.351896 L 261.771411 589.030896 L 262.292411 590.708896 L 262.810411 592.387896 L 263.328411 594.067896 L 263.886411 595.733896 L 264.445411 597.399896 L 265.163411 599.003896 L 265.886411 600.605896 L 266.651411 602.187896 L 267.418411 603.768896 L 268.507411 605.144896 L 269.617411 606.507896 L 271.216411 607.210896 L 272.841411 607.879896 L 274.576411 608.153896 L 276.312410 608.412896 L 277.877411 607.611896 L 279.434411 606.799896 L 280.798411 605.691896 L 282.156411 604.576896 L 283.346411 603.284896 L 284.535411 601.989896 L 285.560411 600.562896 L 286.585411 599.135896" fill="none" id="22" stroke="#eed973" stroke-width="0.5" /><path d="M 605.028411 458.328896 L 605.266411 460.882896 L 605.484411 463.438896 L 605.690410 465.995896 L 605.890411 468.553896 L 605.988410 471.116896 L 606.027410 473.681896 L 605.980411 476.245896 L 605.780411 478.802896 L 605.353410 481.331896 L 604.813411 483.838896 L 604.173411 486.321896 L 603.417411 488.773896 L 602.577411 491.196896 L 601.630411 493.578896 L 600.554411 495.905896 L 599.274411 498.129896 L 597.793411 500.220896 L 596.148411 502.183896 L 594.346411 504.006896 L 592.354410 505.622896 L 590.190410 506.990896 L 587.909411 508.152896 L 585.531410 509.111896 L 583.059411 509.797896 L 580.543411 510.283896 L 578.000411 510.595896 L 575.439411 510.737896 L 572.896411 510.399896 L 570.454410 509.669896 L 568.127410 508.607896 L 565.924411 507.292896" fill="none" id="23" stroke="#008bd4" stroke-width="0.5" /><path d="M 543.121411 459.836896 L 542.900411 462.101896 L 542.711411 464.368896 L 542.581411 466.640896 L 542.510411 468.915896 L 542.468411 471.190896 L 542.617411 473.461896 L 542.775411 475.731896 L 542.952411 478.000896 L 543.157411 480.266896 L 543.378410 482.531896 L 543.760411 484.775896 L 544.182411 487.011896 L 544.687411 489.230896 L 545.272410 491.428896 L 545.900411 493.615896 L 546.743410 495.729896 L 547.737411 497.762896 L 549.050410 499.620896 L 550.538411 501.335896 L 552.113410 502.978896 L 553.984411 504.274896 L 555.929411 505.435896 L 558.017410 506.340896 L 560.170411 507.068896 L 562.353410 507.710896 L 564.586411 508.150896 L 566.829410 508.517896 L 569.094410 508.741896 L 571.366411 508.858896 L 573.641411 508.922896" fill="none" id="24" stroke="#008bd4" stroke-width="0.5" /><path d="M 543.593411 456.599896 L 544.112411 458.560896 L 544.637410 460.518896 L 545.201411 462.466896 L 545.782411 464.409896 L 546.410411 466.337896 L 547.058411 468.258896 L 547.740411 470.168896 L 548.422411 472.078896 L 549.103410 473.988896 L 549.786410 475.897896 L 550.470411 477.806896 L 551.182411 479.705896 L 551.904411 481.600896 L 552.680410 483.473896 L 553.465411 485.343896 L 554.317411 487.183896 L 555.186411 489.014896 L 556.190410 490.776896 L 557.261411 492.491896 L 558.573411 494.037896 L 560.044411 495.393896 L 561.802411 496.402896 L 563.625411 497.279896 L 565.511411 498.026896 L 567.482411 498.396896 L 569.505411 498.540896 L 571.522410 498.407896 L 573.538411 498.187896 L 575.498410 497.680896 L 577.452411 497.135896" fill="none" id="25" stroke="#fdb968" stroke-width="0.5" /><path d="M 420.853411 812.395896 L 415.941411 813.195896 L 411.024411 813.951896 L 406.074410 814.469896 L 401.117411 814.844896 L 396.140411 814.907896 L 391.165411 814.865896 L 386.192411 814.704896 L 381.243411 814.237896 L 376.310411 813.582896 L 371.430411 812.618896 L 366.567411 811.562896 L 361.770411 810.240896 L 356.985411 808.875896 L 352.278411 807.261896 L 347.594411 805.583896 L 342.991411 803.693896 L 338.426411 801.715896 L 333.924411 799.594896 L 329.468411 797.380896 L 325.052411 795.085896 L 320.702411 792.670896 L 316.381411 790.201896 L 312.142411 787.596896 L 307.918411 784.965896 L 303.734411 782.270896 L 299.570411 779.547896 L 295.515411 776.661896 L 291.483411 773.745896 L 287.501411 770.759896 L 283.561411 767.720896 L 279.671411 764.617896 L 275.846411 761.435896 L 272.062410 758.202896 L 268.312410 754.931896 L 264.571411 751.649896 L 260.847411 748.348896 L 257.129411 745.041896 L 253.475411 741.662896 L 249.864410 738.240896 L 246.399410 734.667896 L 242.978410 731.054896 L 239.631410 727.371896 L 236.283411 723.689896 L 232.936410 720.007896 L 229.588411 716.324896 L 226.241411 712.642896 L 222.929410 708.928896 L 219.624411 705.207896 L 216.401410 701.415896 L 213.191410 697.613896 L 210.055410 693.748896 L 206.936410 689.871896 L 203.854411 685.964896 L 200.778411 682.052896 L 197.708410 678.135896 L 194.638410 674.218896 L 191.568410 670.302896 L 188.498411 666.385896 L 185.428410 662.468896 L 182.445411 658.485896 L 179.479411 654.489896 L 176.634411 650.406896 L 173.798410 646.317896 L 170.992411 642.207896 L 168.185410 638.098896 L 165.378411 633.988896 L 162.572410 629.878896 L 159.765411 625.769896 L 156.964410 621.655896 L 154.166411 617.540896 L 151.434410 613.381896 L 148.715410 609.213896 L 146.043410 605.015896 L 143.384411 600.808896 L 140.804410 596.553896 L 138.217410 592.301896 L 135.609410 588.063896 L 132.945411 583.860896 L 130.208410 579.704896 L 127.492410 575.535896 L 124.790410 571.355896 L 122.224411 567.092896 L 119.706411 562.800896 L 117.205410 558.498896 L 114.706411 554.194896 L 112.207410 549.890896 L 109.723410 545.578896 L 107.297410 541.233896 L 104.940410 536.852896 L 102.710410 532.403896 L 100.483410 527.953896 L 98.257410 523.501896 L 96.030110 519.051896 L 93.801910 514.601896 L 91.514310 510.182896 L 89.212910 505.770896 L 86.786310 501.425896 L 84.369411 497.075896 L 82.063110 492.665896 L 79.822110 488.223896 L 77.758410 483.695896 L 75.696610 479.166896 L 73.637310 474.635896 L 71.571111 470.108896 L 69.499710 465.583896 L 67.355510 461.093896 L 65.183910 456.615896 L 62.924611 452.181896 L 60.662910 447.748896 L 58.666210 443.190896 L 56.669410 438.632896 L 54.672210 434.074896 L 52.674611 429.516896 L 50.676010 424.958896 L 48.677411 420.401896 L 46.678810 415.843896 L 44.680211 411.285896 L 42.681610 406.728896 L 40.758510 402.138896 L 38.854310 397.540896 L 37.158010 392.862896 L 35.475110 388.179896 L 33.818010 383.487896 L 32.160810 378.794896 L 30.503711 374.102896 L 28.875211 369.399896 L 27.287711 364.683896 L 25.777911 359.941896 L 24.328111 355.181896 L 22.911010 350.410896 L 21.506811 345.636896 L 20.108111 340.860896 L 18.713511 336.083896 L 17.463111 331.266896 L 16.232310 326.445896 L 15.093811 321.600896 L 13.942210 316.759896 L 12.764010 311.924896 L 11.585810 307.089896 L 10.407611 302.254896 L 9.327460 297.396896 L 8.303580 292.526896 L 7.399540 287.633896 L 6.527620 282.734896 L 5.749680 277.818896 L 4.985790 272.901896 L 4.300540 267.972896 L 3.643211 263.039896 L 3.070791 258.096896 L 2.533841 253.148896 L 2.049990 248.196896 L 1.618300 243.238896 L 1.228721 238.277896 L 0.918929 233.310896 L 0.642329 228.341896 L 0.462888 223.368896 L 0.300959 218.395896 L 0.268692 213.418896 L 0.250000 208.442896 L 0.299980 203.466896 L 0.354674 198.489896 L 0.419477 193.513896 L 0.514501 188.538896 L 0.643500 183.563896 L 0.934879 178.597896 L 1.324240 173.635896 L 1.839700 168.686896 L 2.391351 163.740896 L 3.056860 158.809896 L 3.748911 153.881896 L 4.639841 148.985896 L 5.558700 144.094896 L 6.568060 139.221896 L 7.632220 134.360896 L 8.782521 129.518896 L 10.074941 124.715896 L 11.487610 119.943896 L 12.948510 115.186896 L 14.430710 110.435896 L 15.996811 105.712896 L 17.578011 100.993896" fill="none" id="26" stroke="#6f73bc" stroke-width="0.5" /><path d="M 119.719410 37.568696 L 119.956411 32.580196 L 120.366411 27.619096 L 121.690410 22.803596 L 123.455410 18.181096 L 126.095410 13.942196 L 129.328410 10.221796 L 133.182411 7.044826 L 137.486411 4.593896 L 142.041411 2.546746 L 146.871410 1.358456 L 151.770410 0.389475 L 156.759411 0.256716 L 161.747411 0.250000 L 166.691410 0.958084 L 171.604411 1.815146 L 176.428410 3.107876 L 181.207411 4.546556 L 185.920411 6.198486 L 190.572410 8.009346 L 195.175410 9.946316 L 199.660411 12.136696 L 204.096410 14.430996 L 208.398411 16.964196 L 212.679410 19.536796 L 216.917410 22.178496 L 221.116411 24.877996 L 225.112411 27.873196 L 229.095410 30.886896 L 233.046411 33.940996 L 236.961410 37.040996 L 240.835410 40.193596 L 244.681410 43.378696 L 248.511411 46.584196 L 252.257410 49.886596 L 255.977410 53.218496 L 259.696411 56.551896 L 263.413411 59.887496 L 267.105411 63.250096 L 270.776411 66.636296 L 274.368411 70.105596 L 277.942411 73.593896 L 281.484411 77.114296 L 285.004411 80.657296 L 288.503411 84.220996 L 291.962411 87.823196 L 295.402411 91.443996 L 298.813411 95.091396 L 302.219411 98.744396 L 305.523411 102.488896 L 308.820411 106.239896 L 312.081411 110.022896 L 315.342411 113.804896 L 318.603411 117.587896 L 321.854411 121.378896 L 325.091411 125.181896 L 328.267411 129.035896 L 331.399411 132.925896 L 334.449410 136.879896 L 337.468411 140.857896 L 340.473410 144.846896 L 343.474411 148.838896 L 346.396411 152.888896 L 349.293411 156.956896 L 352.082411 161.099896 L 354.841411 165.262896 L 357.539411 169.464896 L 360.215411 173.681896 L 362.867411 177.913896 L 365.513411 182.148896 L 368.157411 186.385896 L 370.761411 190.647896 L 373.354411 194.915896 L 375.873411 199.227896 L 378.380411 203.547896 L 380.818411 207.905896 L 383.242411 212.271896 L 385.623411 216.662896 L 388.004411 221.052896 L 390.385411 225.442896 L 392.697411 229.868896 L 394.949410 234.326896 L 397.070411 238.846896 L 399.132411 243.395896 L 401.160411 247.958896 L 403.183411 252.525896 L 405.205411 257.091896 L 407.210411 261.665896 L 409.115411 266.282896 L 410.980411 270.914896 L 412.751411 275.584896 L 414.517411 280.255896 L 416.276411 284.929896 L 418.034411 289.604896 L 419.790411 294.279896 L 421.477411 298.979896 L 423.142411 303.688896 L 424.731411 308.423896 L 426.313411 313.160896 L 427.892411 317.898896 L 429.471411 322.636896 L 431.049411 327.374896 L 432.606411 332.119896 L 434.123411 336.877896 L 435.612411 341.644896 L 437.072411 346.420896 L 438.526411 351.198896 L 439.977411 355.977896 L 441.427411 360.756896 L 442.878411 365.535896 L 444.329411 370.314896 L 445.779411 375.092896 L 447.230411 379.871896 L 448.673411 384.653896 L 450.091411 389.441896 L 451.486411 394.237896 L 452.845411 399.042896 L 454.182411 403.854896 L 455.502411 408.671896 L 456.796411 413.494896 L 458.080411 418.320896 L 459.353411 423.150896 L 460.624411 427.979896 L 461.895411 432.809896 L 463.166411 437.639896 L 464.437410 442.469896 L 465.708411 447.298896 L 466.979411 452.128896 L 468.243411 456.960896 L 469.498411 461.794896 L 470.660411 466.650896 L 471.765411 471.521896 L 472.757411 476.415896 L 473.716411 481.316896 L 474.644411 486.223896 L 475.561411 491.132896 L 476.368411 496.061896 L 477.166411 500.991896 L 477.932411 505.926896 L 478.698411 510.861896 L 479.464411 515.796896 L 480.230411 520.732896 L 480.995411 525.667896 L 481.761411 530.602896 L 482.527411 535.537896 L 483.227411 540.482896 L 483.912411 545.429896 L 484.465411 550.392896 L 485.036411 555.353896 L 485.744411 560.297896 L 486.379411 565.249896 L 486.832411 570.223896 L 487.257411 575.199896 L 487.646411 580.178896 L 488.036411 585.157896 L 488.425410 590.136896 L 488.782411 595.117896 L 489.127411 600.099896 L 489.360411 605.088896 L 489.576411 610.078896 L 489.726411 615.069896 L 489.857411 620.062896 L 489.902411 625.056896 L 489.942411 630.050896 L 489.974411 635.044896 L 490.006411 640.038896 L 490.038411 645.032896 L 489.973410 650.025896 L 489.855411 655.018896 L 489.620411 660.006896 L 489.355411 664.994896 L 488.951411 669.971896 L 488.532411 674.948896 L 488.047411 679.918896 L 487.530411 684.885896 L 486.917411 689.842896 L 486.274411 694.794896 L 485.587411 699.741896 L 484.813411 704.674896 L 483.968411 709.596896 L 483.012411 714.498896 L 482.008411 719.390896 L 480.904411 724.260896 L 479.782411 729.127896" fill="none" id="27" stroke="#bee481" stroke-width="0.5" /><path d="M 395.247411 292.780896 L 396.922411 291.294896 L 398.614411 289.827896 L 400.330411 288.387896 L 402.094411 287.007896 L 403.876411 285.652896 L 405.686411 284.332896 L 407.524411 283.052896 L 409.376411 281.792896 L 411.248411 280.563896 L 413.123411 279.338896 L 415.000411 278.115896 L 416.877411 276.893896 L 418.753411 275.671896 L 420.630411 274.449896 L 422.522411 273.250896 L 424.429411 272.076896 L 426.381411 270.978896 L 428.375411 269.960896 L 430.396411 268.995896 L 432.449410 268.100896 L 434.511411 267.225896 L 436.581411 266.371896 L 438.689411 265.615896 L 440.813411 264.907896 L 442.964411 264.281896 L 445.125411 263.696896 L 447.294411 263.136896 L 449.477411 262.637896 L 451.667411 262.167896 L 453.861411 261.717896" fill="none" id="28" stroke="#8f6aaf" stroke-width="0.5" /><path d="M 751.310410 210.647896 L 751.877410 211.685896 L 752.425410 212.732896 L 752.837411 213.842896 L 753.193411 214.967896 L 753.400411 216.132896 L 753.497411 217.304896 L 753.439411 218.486896 L 753.197411 219.631896 L 752.796410 220.745896 L 752.376411 221.851896 L 751.944411 222.953896 L 751.492411 224.046896 L 751.033411 225.137896 L 750.551410 226.218896 L 750.064411 227.296896 L 749.491411 228.332896 L 748.908411 229.361896 L 748.270411 230.358896 L 747.617411 231.345896 L 746.925410 232.304896 L 746.214410 233.250896 L 745.476411 234.175896 L 744.710411 235.077896 L 743.919411 235.957896 L 743.109411 236.820896 L 742.290411 237.673896 L 741.454410 238.511896 L 740.613410 239.344896 L 739.758411 240.162896 L 738.900411 240.977896" fill="none" id="29" stroke="#8bb658" stroke-width="0.5" /><path d="M 740.381411 207.174896 L 741.701411 206.818896 L 743.033411 206.537896 L 744.400411 206.491896 L 745.739411 206.678896 L 747.054411 207.055896 L 748.228410 207.740896 L 749.371411 208.491896 L 750.514411 209.242896 L 751.555410 210.097896 L 752.324410 211.229896 L 752.853410 212.465896 L 753.163411 213.797896 L 753.226411 215.156896 L 753.203411 216.524896 L 752.542411 217.720896 L 751.860411 218.905896 L 751.114411 220.052896 L 750.367411 221.198896 L 749.621411 222.345896 L 748.824410 223.455896 L 748.001411 224.548896 L 747.115411 225.590896 L 746.211411 226.616896 L 745.222411 227.561896 L 744.212411 228.482896 L 743.160411 229.356896 L 742.096411 230.216896 L 741.024411 231.066896 L 739.934411 231.891896 L 738.837411 232.710896" fill="none" id="30" stroke="#bbabff" stroke-width="0.5" /><path d="M 219.908411 375.930896 L 219.135411 376.711896 L 218.361411 377.491896 L 217.640411 378.320896 L 216.919410 379.150896 L 216.263410 380.031896 L 215.607410 380.913896 L 215.050410 381.860896 L 214.493411 382.808896 L 214.065410 383.820896 L 213.636411 384.832896 L 213.299410 385.878896 L 212.963411 386.924896 L 212.720410 387.996896 L 212.477410 389.067896 L 212.355411 390.159896 L 212.234410 391.252896 L 212.210410 392.350896 L 212.186410 393.449896 L 212.236411 394.547896 L 212.286410 395.645896 L 212.417410 396.736896 L 212.548410 397.827896 L 212.851410 398.883896 L 213.154411 399.940896 L 213.587411 400.949896 L 214.021411 401.959896 L 214.543410 402.926896 L 215.066410 403.893896 L 215.660411 404.817896 L 216.255411 405.741896" fill="none" id="31" stroke="#f1b9ff" stroke-width="0.5" /><path d="M 222.428410 376.757896 L 221.866411 377.076896 L 221.304410 377.395896 L 220.748411 377.724896 L 220.192410 378.052896 L 219.642411 378.392896 L 219.092410 378.732896 L 218.552411 379.086896 L 218.012410 379.442896 L 217.478410 379.805896 L 216.944411 380.168896 L 216.436410 380.569896 L 215.930410 380.970896 L 215.518410 381.467896 L 215.107410 381.966896 L 214.757410 382.509896 L 214.408411 383.053896 L 214.100411 383.621896 L 213.792410 384.189896 L 213.640411 384.817896 L 213.491411 385.445896 L 213.411410 386.086896 L 213.331411 386.728896 L 213.332411 387.374896 L 213.335410 388.020896 L 213.471410 388.652896 L 213.613410 389.281896 L 213.848410 389.883896 L 214.090410 390.482896 L 214.401410 391.049896 L 214.711410 391.615896" fill="none" id="32" stroke="#f1b9ff" stroke-width="0.5" /><path d="M 229.105411 417.528896 L 228.986411 419.508896 L 228.920411 421.485896 L 229.230411 423.444896 L 229.674410 425.363896 L 230.505411 427.164896 L 231.545411 428.821896 L 232.927411 430.243896 L 234.508410 431.393896 L 236.284411 432.274896 L 238.170411 432.830896 L 240.119410 433.195896 L 242.094411 433.312896 L 244.077410 433.348896 L 246.038410 433.073896 L 247.995410 432.754896 L 249.902411 432.210896 L 251.808411 431.659896 L 253.699410 431.062896 L 255.578410 430.430896 L 257.420411 429.695896 L 259.262411 428.961896 L 261.104411 428.225896 L 262.931411 427.453896 L 264.741411 426.644896 L 266.520411 425.770896 L 268.281411 424.856896 L 270.038411 423.937896 L 271.795411 423.016896 L 273.538411 422.069896 L 275.278411 421.119896" fill="none" id="33" stroke="#989c37" stroke-width="0.5" /><path d="M 213.609410 398.820896 L 213.094411 397.181896 L 212.579410 395.542896 L 212.049410 393.908896 L 211.517411 392.274896 L 210.932411 390.659896 L 210.327410 389.051896 L 209.767411 387.427896 L 209.240410 385.792896 L 208.776410 384.140896 L 208.397411 382.464896 L 208.058411 380.781896 L 207.817410 379.080896 L 207.602410 377.376896 L 207.537410 375.660896 L 207.472410 373.943896 L 207.669410 372.236896 L 207.866411 370.529896 L 208.395410 368.900896 L 208.977410 367.284896 L 209.561410 365.668896 L 210.145410 364.053896 L 210.934410 362.539896 L 211.873411 361.100896 L 212.895410 359.725896 L 214.026410 358.432896 L 215.183411 357.162896 L 216.400410 355.949896 L 217.628411 354.749896 L 218.926411 353.623896 L 220.223410 352.497896" fill="none" id="34" stroke="#989c37" stroke-width="0.5" /><path d="M 375.908411 221.418896 L 376.548411 220.466896 L 377.188411 219.514896 L 377.859411 218.583896 L 378.530411 217.652896 L 379.227411 216.741896 L 379.924411 215.829896 L 380.688411 214.974896 L 381.453411 214.118896 L 382.295411 213.339896 L 383.138411 212.561896 L 384.023411 211.830896 L 384.908411 211.100896 L 385.830411 210.417896 L 386.752411 209.735896 L 387.716411 209.113896 L 388.680411 208.491896 L 389.666411 207.904896 L 390.652411 207.318896 L 391.646411 206.743896 L 392.639411 206.169896 L 393.637411 205.603896 L 394.635411 205.038896 L 395.656411 204.513896 L 396.676411 203.989896 L 397.736411 203.549896 L 398.795411 203.109896 L 399.876411 202.724896 L 400.957411 202.339896 L 402.055411 202.005896 L 403.152411 201.670896" fill="none" id="35" stroke="#989c37" stroke-width="0.5" /><path d="M 208.286410 383.442896 L 209.069411 385.249896 L 209.852410 387.055896 L 210.640411 388.859896 L 211.429410 390.663896 L 212.218411 392.467896 L 213.022411 394.264896 L 213.831411 396.059896 L 214.660411 397.845896 L 215.492411 399.630896 L 216.331411 401.411896 L 217.170411 403.192896 L 218.011411 404.972896 L 218.852410 406.752896 L 219.692410 408.533896 L 220.533411 410.313896 L 221.374411 412.093896 L 222.215410 413.874896 L 223.058411 415.653896 L 223.908411 417.429896 L 224.786410 419.191896 L 225.686410 420.942896 L 226.657410 422.654896 L 227.644410 424.358896 L 228.654411 426.048896 L 229.663410 427.738896 L 230.673410 429.429896 L 231.683411 431.119896 L 232.692410 432.809896 L 233.702410 434.500896 L 234.711410 436.190896" fill="none" id="36" stroke="#989c37" stroke-width="0.5" /><path d="M 224.727410 420.245896 L 224.961410 420.757896 L 225.194411 421.268896 L 225.445411 421.772896 L 225.696410 422.275896 L 225.963411 422.770896 L 226.230411 423.265896 L 226.531410 423.739896 L 226.833410 424.214896 L 227.153411 424.676896 L 227.473410 425.139896 L 227.835410 425.569896 L 228.197410 425.999896 L 228.565410 426.425896 L 228.932411 426.851896 L 229.310410 427.268896 L 229.687410 427.685896 L 230.079410 428.088896 L 230.470410 428.492896 L 230.868411 428.889896 L 231.267411 429.286896 L 231.736411 429.596896 L 232.206411 429.905896 L 232.693410 430.186896 L 233.180410 430.468896 L 233.694411 430.696896 L 234.208410 430.924896 L 234.730411 431.131896 L 235.253411 431.338896 L 235.786410 431.520896 L 236.318410 431.702896" fill="none" id="37" stroke="#989c37" stroke-width="0.5" /><path d="M 207.940410 362.111896 L 211.322410 358.457896 L 214.748411 354.844896 L 218.228410 351.283896 L 221.764410 347.777896 L 225.300410 344.272896 L 228.848410 340.779896 L 232.520410 337.416896 L 236.293410 334.168896 L 240.082411 330.937896 L 243.871410 327.707896 L 247.661410 324.477896 L 251.450411 321.247896 L 255.239410 318.017896 L 259.029411 314.787896 L 262.818411 311.556896 L 266.607411 308.326896 L 270.396411 305.096896 L 274.186411 301.866896 L 277.975411 298.636896 L 281.764411 295.406896 L 285.553411 292.176896 L 289.343411 288.946896 L 293.134411 285.718896 L 296.942411 282.510896 L 300.778411 279.335896 L 304.626411 276.176896 L 308.476411 273.018896 L 312.339411 269.876896 L 316.229411 266.768896 L 320.134411 263.679896 L 324.040411 260.592896 L 327.947411 257.505896 L 331.853411 254.418896 L 335.760411 251.330896 L 339.667411 248.243896 L 343.573411 245.156896 L 347.480411 242.069896 L 351.386411 238.981896 L 355.293411 235.894896 L 359.199410 232.807896 L 363.110411 229.725896 L 367.046411 226.676896 L 371.032411 223.691896 L 375.045411 220.745896 L 379.064411 217.804896 L 383.084411 214.867896 L 387.116411 211.946896 L 391.167411 209.051896 L 395.226411 206.167896 L 399.286411 203.284896 L 403.346411 200.402896 L 407.406411 197.519896 L 411.466411 194.637896 L 415.526411 191.754896 L 419.586410 188.872896 L 423.646411 185.989896 L 427.706411 183.107896 L 431.766411 180.224896 L 435.826411 177.342896 L 439.886411 174.459896 L 443.946411 171.577896 L 448.006411 168.694896 L 452.066411 165.812896" fill="none" id="38" stroke="#989c37" stroke-width="0.5" /><path d="M 377.798411 220.733896 L 379.113411 219.471896 L 380.428411 218.208896 L 381.742411 216.946896 L 383.057411 215.683896 L 384.372411 214.420896 L 385.687410 213.158896 L 387.001411 211.895896 L 388.347411 210.666896 L 389.723410 209.471896 L 391.150411 208.340896 L 392.610411 207.247896 L 394.111411 206.214896 L 395.626411 205.201896 L 397.180411 204.249896 L 398.740411 203.306896 L 400.366411 202.482896 L 402.001411 201.677896 L 403.693411 200.999896 L 405.393411 200.343896 L 407.116411 199.749896 L 408.847411 199.177896 L 410.589411 198.642896 L 412.349411 198.172896 L 414.126411 197.766896 L 415.903411 197.361896 L 417.681411 196.956896 L 419.458411 196.552896 L 421.235411 196.148896 L 423.013411 195.743896 L 424.790411 195.339896" fill="none" id="39" stroke="#989c37" stroke-width="0.5" /><path d="M 380.727411 258.599896 L 380.128411 256.512896 L 379.542411 254.420896 L 378.975411 252.324896 L 378.423411 250.223896 L 377.899411 248.115896 L 377.443411 245.992896 L 377.029411 243.860896 L 376.640411 241.723896 L 376.309411 239.576896 L 376.027411 237.423896 L 375.791411 235.264896 L 375.662411 233.096896 L 375.585411 230.926896 L 375.589411 228.754896 L 375.650411 226.583896 L 375.752411 224.414896 L 375.950411 222.251896 L 376.307411 220.112896 L 376.772411 217.991896 L 377.521411 215.952896 L 378.420411 213.983896 L 379.491411 212.093896 L 380.832411 210.389896 L 382.277411 208.774896 L 383.880411 207.308896 L 385.605411 205.993896 L 387.394411 204.766896 L 389.296411 203.715896 L 391.246411 202.763896 L 393.231411 201.883896" fill="none" id="40" stroke="#989c37" stroke-width="0.5" /><path d="M 246.617411 427.662896 L 244.915411 428.358896 L 243.194411 428.999896 L 241.444411 429.562896 L 239.659411 430.001896 L 237.858410 430.351896 L 236.027411 430.514896 L 234.197410 430.445896 L 232.393410 430.187896 L 230.838411 429.207896 L 229.558411 427.937896 L 228.502410 426.432896 L 227.827410 424.724896 L 227.339410 422.965896 L 227.109410 421.141896 L 227.364410 419.335896 L 227.826411 417.565896 L 228.596410 415.896896 L 229.554410 414.334896 L 230.632410 412.850896 L 232.000410 411.622896 L 233.417410 410.453896 L 234.883410 409.343896 L 236.417410 408.331896 L 237.976410 407.358896 L 239.572410 406.446896 L 241.194411 405.580896 L 242.826411 404.735896 L 244.470410 403.912896 L 246.123411 403.108896 L 247.782410 402.316896" fill="none" id="41" stroke="#989c37" stroke-width="0.5" /><path d="M 739.373410 173.324896 L 740.145411 175.337896 L 740.920411 177.350896 L 741.696411 179.363896 L 742.473410 181.374896 L 743.254411 183.385896 L 744.042411 185.392896 L 744.829410 187.400896 L 745.615411 189.408896 L 746.402410 191.417896 L 747.188411 193.425896 L 747.975411 195.433896 L 748.761411 197.441896 L 749.547411 199.450896 L 750.334410 201.458896 L 751.120411 203.466896 L 751.907411 205.474896 L 752.693411 207.482896 L 753.480411 209.491896 L 754.267410 211.498896 L 755.080410 213.496896 L 755.927411 215.479896 L 756.811411 217.446896 L 757.759411 219.383896 L 758.742411 221.303896 L 759.782411 223.192896 L 760.855411 225.063896 L 761.940410 226.926896 L 763.030411 228.787896 L 764.128410 230.644896 L 765.231411 232.497896" fill="none" id="42" stroke="#cfe395" stroke-width="0.5" /><path d="M 709.137410 151.025896 L 710.955410 151.177896 L 712.772410 151.345896 L 714.575410 151.629896 L 716.373410 151.941896 L 718.154411 152.340896 L 719.901410 152.845896 L 721.593411 153.531896 L 723.232411 154.324896 L 724.821411 155.222896 L 726.357411 156.205896 L 727.862411 157.238896 L 729.322411 158.332896 L 730.768411 159.446896 L 732.174411 160.609896 L 733.575410 161.779896 L 734.894411 163.040896 L 736.196411 164.318896 L 737.376411 165.710896 L 738.522410 167.129896 L 739.569411 168.624896 L 740.569411 170.149896 L 741.491411 171.724896 L 742.329410 173.343896 L 743.086411 175.004896 L 743.842411 176.665896 L 744.599410 178.326896 L 745.355411 179.986896 L 746.112411 181.647896 L 746.868410 183.308896 L 747.625411 184.969896" fill="none" id="43" stroke="#cfe395" stroke-width="0.5" /><path d="M 742.459410 170.584896 L 742.885411 172.078896 L 743.310410 173.571896 L 743.735411 175.065896 L 744.160411 176.559896 L 744.586411 178.053896 L 745.011411 179.547896 L 745.436411 181.041896 L 745.861411 182.535896 L 746.286410 184.029896 L 746.712411 185.523896 L 747.132410 187.019896 L 747.538411 188.518896 L 747.939411 190.018896 L 748.304411 191.528896 L 748.668411 193.038896 L 748.993410 194.557896 L 749.318411 196.076896 L 749.628410 197.598896 L 749.937411 199.120896 L 750.245411 200.643896 L 750.553411 202.165896 L 750.861411 203.688896 L 751.169411 205.210896 L 751.477411 206.732896 L 751.785411 208.255896 L 752.093411 209.777896 L 752.401410 211.300896 L 752.709410 212.822896 L 753.018411 214.345896 L 753.326411 215.867896" fill="none" id="44" stroke="#cfe395" stroke-width="0.5" /><path d="M 701.861411 156.009896 L 703.137410 155.385896 L 704.413411 154.762896 L 705.780411 154.395896 L 707.165411 154.078896 L 708.571411 154.074896 L 709.986411 154.197896 L 711.350411 154.532896 L 712.667411 155.064896 L 713.945410 155.669896 L 715.130411 156.453896 L 716.304411 157.250896 L 717.333411 158.228896 L 718.363410 159.206896 L 719.278411 160.290896 L 720.172411 161.394896 L 720.999411 162.547896 L 721.784411 163.730896 L 722.552411 164.925896 L 723.293411 166.137896 L 724.028411 167.352896 L 724.737411 168.583896 L 725.445410 169.813896 L 726.095411 171.076896 L 726.739411 172.342896 L 727.353410 173.623896 L 727.953411 174.910896 L 728.540411 176.203896 L 729.113410 177.503896 L 729.680410 178.805896 L 730.227411 180.116896 L 730.774411 181.426896" fill="none" id="45" stroke="#c45372" stroke-width="0.5" /><path d="M 378.963411 258.080896 L 379.456411 256.160896 L 379.971411 254.247896 L 380.561411 252.355896 L 381.209411 250.483896 L 381.923411 248.635896 L 382.728411 246.825896 L 383.571411 245.032896 L 384.570411 243.321896 L 385.614411 241.639896 L 386.824410 240.069896 L 388.112411 238.568896 L 389.514411 237.167896 L 391.002411 235.861896 L 392.536411 234.607896 L 394.142411 233.447896 L 395.766411 232.312896 L 397.449410 231.265896 L 399.153411 230.256896 L 400.898411 229.316896 L 402.673411 228.436896 L 404.468411 227.596896 L 406.292411 226.822896 L 408.122411 226.063896 L 409.960411 225.320896 L 411.801411 224.589896 L 413.654411 223.886896 L 415.531411 223.253896 L 417.429411 222.682896 L 419.343411 222.171896 L 421.263411 221.678896" fill="none" id="46" stroke="#008c6f" stroke-width="0.5" /><path d="M 729.074410 174.670896 L 730.089410 174.313896 L 731.110411 173.974896 L 732.149411 173.694896 L 733.199410 173.464896 L 734.262410 173.292896 L 735.332411 173.191896 L 736.406410 173.120896 L 737.480411 173.050896 L 738.554411 172.994896 L 739.631411 173.012896 L 740.691411 173.138896 L 741.729410 173.425896 L 742.739411 173.791896 L 743.734411 174.201896 L 744.459410 174.979896 L 745.125411 175.821896 L 745.618410 176.778896 L 746.059411 177.757896 L 746.410411 178.774896 L 746.670411 179.815896 L 746.867411 180.874896 L 746.749411 181.933896 L 746.555410 182.992896 L 746.259411 184.027896 L 745.902410 185.037896 L 745.402410 185.990896 L 744.854410 186.915896 L 744.264411 187.815896 L 743.608410 188.667896 L 742.932411 189.505896" fill="none" id="47" stroke="#ff94af" stroke-width="0.5" /><path d="M 518.711411 323.654896 L 520.285411 323.691896 L 521.859411 323.725896 L 523.426410 323.581896 L 524.992411 323.427896 L 526.521411 323.050896 L 528.045411 322.660896 L 529.493410 322.042896 L 530.937411 321.417896 L 532.315410 320.655896 L 533.689411 319.888896 L 535.012410 319.034896 L 536.333411 318.179896 L 537.629411 317.286896 L 538.923411 316.389896 L 540.170411 315.428896 L 541.416410 314.466896 L 542.662411 313.504896 L 543.907411 312.541896 L 545.118410 311.535896 L 546.329410 310.529896 L 547.517410 309.496896 L 548.705410 308.463896 L 549.885411 307.421896 L 551.065410 306.379896 L 552.245411 305.337896 L 553.425410 304.295896 L 554.605411 303.253896 L 555.785411 302.211896 L 556.965411 301.169896 L 558.145411 300.127896" fill="none" id="48" stroke="#488656" stroke-width="0.5" /><path d="M 405.893411 202.648896 L 407.440411 202.176896 L 408.987411 201.704896 L 410.582411 201.440896 L 412.182411 201.202896 L 413.795411 201.164896 L 415.412411 201.186896 L 416.986411 201.495896 L 418.536411 201.956896 L 420.042411 202.534896 L 421.504411 203.227896 L 422.939411 203.969896 L 424.326411 204.801896 L 425.690411 205.667896 L 426.963411 206.665896 L 428.229411 207.671896 L 429.384411 208.804896 L 430.538411 209.937896 L 431.688411 211.074896 L 432.839411 212.211896 L 433.923411 213.410896 L 434.986411 214.629896 L 436.010411 215.880896 L 437.009411 217.153896 L 437.961410 218.459896 L 438.855411 219.807896 L 439.735411 221.164896 L 440.585411 222.540896 L 441.427411 223.921896 L 442.227411 225.327896 L 443.026411 226.733896" fill="none" id="49" stroke="#ffc0e1" stroke-width="0.5" /><path d="M 224.727410 378.198896 L 224.283411 377.072896 L 223.838411 375.946896 L 223.393410 374.819896 L 222.949410 373.693896 L 222.504411 372.567896 L 222.060410 371.441896 L 221.615410 370.315896 L 221.170411 369.189896 L 220.755411 368.052896 L 220.340410 366.914896 L 219.984410 365.757896 L 219.629411 364.600896 L 219.343411 363.423896 L 219.058411 362.247896 L 218.773411 361.070896 L 218.488410 359.893896 L 218.345410 358.691896 L 218.206411 357.488896 L 218.187410 356.278896 L 218.171411 355.068896 L 218.249411 353.859896 L 218.330410 352.651896 L 218.913410 351.594896 L 219.525410 350.554896 L 220.464410 349.789896 L 221.405410 349.029896 L 222.551411 348.638896 L 223.698410 348.254896 L 224.905410 348.167896 L 226.113410 348.080896" fill="none" id="50" stroke="#6c8139" stroke-width="0.5" /></svg>