<?xml version="1.0" encoding="utf-8" ?>
<svg baseProfile="full" height="436.5" version="1.1" viewBox="0,0,746.5,436.5" width="746.5" xmlns="http://www.w3.org/2000/svg" xmlns:ev="http://www.w3.org/2001/xml-events" xmlns:xlink="http://www.w3.org/1999/xlink"><defs><style type="text/css"><![CDATA[
	.background { fill: white; }
	.line { stroke: firebrick; stroke-width: .1mm; }
	.blacksquare { fill: indigo; }
	.whitesquare { fill: white; }
]]></style></defs><rect class="background" height="100%" width="100%" x="0" y="0" /><path d="M 363.462600 391.571530 L 365.775198 393.956077 L 368.809952 396.561891 L 371.844707 399.167705 L 375.153047 401.414113 L 378.472830 403.645490 L 381.835009 405.806913 L 385.349269 407.717404 L 388.863529 409.627896 L 392.415440 411.458262 L 396.129199 412.944193 L 399.842958 414.430125 L 403.556717 415.916056 L 407.339593 417.199396 L 411.187170 418.293080 L 415.034748 419.386764 L 418.882326 420.480448 L 422.729904 421.574132 L 426.577482 422.667817 L 430.425059 423.761501 L 434.272637 424.855185 L 438.120215 425.948869 L 441.984309 426.978018 L 445.884239 427.867146 L 449.784168 428.756274 L 453.684098 429.645402 L 457.584028 430.534530 L 461.483957 431.423658 L 465.383887 432.312786 L 469.330835 432.923340 L 473.306547 433.363470 L 477.282259 433.803599 L 481.257971 434.243728 L 485.233683 434.683857 L 489.209395 435.123986 L 493.200736 435.322444 L 497.200021 435.398063 L 501.199306 435.473681 L 505.198592 435.549299 L 509.193576 435.365489 L 513.188158 435.157361 L 517.182740 434.949233 L 521.177321 434.741106 L 525.157448 434.366751 L 529.127991 433.882209 L 533.098535 433.397667 L 537.069079 432.913126 L 541.039623 432.428584 L 544.953439 431.608730 L 548.862404 430.760207 L 552.771369 429.911685 L 556.680335 429.063162 L 560.570723 428.141418 L 564.411422 427.023818 L 568.252122 425.906218 L 572.092821 424.788619 L 575.933520 423.671019 L 579.774220 422.553419 L 583.614919 421.435820 L 587.390099 420.120119 L 591.139779 418.727316 L 594.889460 417.334514 L 598.618299 415.891634 L 602.249011 414.212964 L 605.879722 412.534293 L 609.510433 410.855622 L 613.070624 409.039056 L 616.556926 407.078012 L 620.043229 405.116968 L 623.529531 403.155924 L 626.958946 401.097770 L 630.374349 399.015699 L 633.789752 396.933628 L 637.205156 394.851556 L 640.620559 392.769485 L 642.895670 391.382550" fill="none" id="1" stroke="black" stroke-width="0.5" /><path d="M 706.391730 262.358930 L 709.452634 264.933976 L 712.501403 267.522310 L 715.342583 270.337926 L 718.183763 273.153543 L 721.024944 275.969159 L 723.866124 278.784775 L 726.484251 281.803698 L 729.025204 284.892963 L 731.566157 287.982228 L 734.031930 291.126638 L 736.215335 294.478166 L 738.367097 297.846219 L 739.869811 301.553219 L 741.153290 305.326059 L 741.941547 309.247621 L 742.729804 313.169184 L 742.785223 317.162046 L 742.660034 321.148652 L 741.699540 325.031621 L 740.410605 328.813594 L 738.881327 332.500855 L 736.970242 336.014792 L 734.637851 339.250480 L 732.156267 342.387635 L 729.591659 345.452089 L 726.809538 348.326076 L 724.027416 351.200063 L 721.156374 353.977067 L 718.052335 356.499951 L 714.948296 359.022834 L 711.593306 361.199748 L 708.231326 363.367025 L 704.869345 365.534301 L 701.503265 367.694843 L 698.033991 369.685858 L 694.564718 371.676873 L 691.095444 373.667887 L 687.626170 375.658902 L 684.070762 377.487881 L 680.479782 379.249943 L 676.888802 381.012005 L 673.242550 382.648375 L 669.516721 384.103778 L 665.790892 385.559181 L 662.065063 387.014584 L 658.339234 388.469987 L 655.116140 389.729010" fill="none" id="2" stroke="black" stroke-width="0.5" /><path d="M 311.053150 191.540030 L 314.323080 193.843844 L 317.593010 196.147658 L 320.817979 198.507284 L 323.765115 201.211796 L 326.712252 203.916308 L 329.659389 206.620820 L 332.466995 209.465376 L 335.182310 212.402562 L 337.897626 215.339747 L 340.612942 218.276933 L 343.328258 221.214119 L 346.043574 224.151304 L 348.758889 227.088490 L 351.474205 230.025676 L 354.147052 233.000052 L 356.700218 236.079230 L 359.253385 239.158409 L 361.806551 242.237588 L 364.359717 245.316766 L 366.912884 248.395945 L 369.466050 251.475124 L 372.106769 254.479035 L 374.768006 257.465306 L 377.429242 260.451578 L 380.183816 263.350829 L 382.976634 266.214422 L 385.769452 269.078015 L 388.562271 271.941608 L 391.488663 274.663788 L 394.506714 277.288929 L 397.524766 279.914070 L 400.542817 282.539211 L 403.560869 285.164352 L 404.879920 286.311680" fill="none" id="3" stroke="black" stroke-width="0.5" /><path d="M 364.470470 237.177830 L 365.658659 240.887122 L 367.710322 244.320878 L 369.761984 247.754634 L 371.907795 251.127389 L 374.203351 254.403122 L 376.809547 257.432448 L 379.488795 260.401732 L 382.383209 263.162596 L 385.277623 265.923459 L 388.172037 268.684323 L 391.066451 271.445186 L 393.960866 274.206049 L 396.855280 276.966913 L 399.868417 279.593009 L 402.972181 282.116231 L 406.075944 284.639453 L 409.402123 286.852370 L 412.788630 288.981118 L 416.175138 291.109866 L 419.561645 293.238614 L 422.948152 295.367362 L 426.426580 297.336995 L 429.962411 299.207261 L 433.659851 300.729321 L 437.370751 302.222380 L 441.081650 303.715440 L 444.875883 304.968928 L 448.712296 306.101153 L 452.548709 307.233378 L 456.385122 308.365603 L 460.230121 309.464122 L 464.140719 310.305087 L 468.051317 311.146052 L 471.961915 311.987017 L 475.903411 312.660152 L 479.857107 313.267020 L 483.810803 313.873889 L 487.764498 314.480758 L 491.718194 315.087626 L 495.710325 315.315284 L 499.705383 315.514056 L 503.700441 315.712829 L 507.699031 315.755409 L 511.698990 315.737409 L 515.698950 315.719408 L 519.698909 315.701407 L 523.684790 315.400447 L 527.666779 315.021292 L 531.648769 314.642138 L 535.630758 314.262983 L 539.603660 313.815216 L 543.547053 313.144652 L 547.490445 312.474088 L 551.433838 311.803525 L 555.317787 310.852392 L 559.194306 309.866184 L 563.070824 308.879976 L 566.947342 307.893768 L 570.823861 306.907560 L 573.320860 306.272310" fill="none" id="4" stroke="black" stroke-width="0.5" /><path d="M 538.738190 311.587270 L 541.763773 312.839546 L 545.750451 313.146330 L 549.750451 313.146330 L 553.718694 312.712379 L 557.641947 311.954440 L 561.529347 311.012038 L 565.416747 310.069637 L 569.304147 309.127235 L 573.191547 308.184834 L 577.038456 307.094011 L 580.865876 305.931745 L 584.693295 304.769478 L 588.520714 303.607212 L 592.348133 302.444946 L 596.175552 301.282680 L 600.002971 300.120414 L 603.830391 298.958148 L 607.657810 297.795882 L 611.455363 296.542030 L 615.232178 295.224581 L 619.008992 293.907132 L 622.785807 292.589683 L 626.562621 291.272233 L 630.339436 289.954784 L 634.116250 288.637335 L 637.893065 287.319886 L 641.669879 286.002437 L 645.446694 284.684988 L 649.223508 283.367539 L 653.000323 282.050089 L 656.768141 280.708393 L 660.490299 279.243626 L 664.212456 277.778859 L 667.934614 276.314091 L 671.656771 274.849324 L 675.378929 273.384557 L 679.101086 271.919789 L 682.823244 270.455022 L 686.545401 268.990255 L 690.267559 267.525488 L 693.989717 266.060720 L 697.711874 264.595953 L 701.434032 263.131186 L 705.156189 261.666418 L 708.878347 260.201651 L 712.600504 258.736884 L 716.322662 257.272117 L 720.044819 255.807349 L 723.766977 254.342582 L 727.489134 252.877815 L 731.193022 251.369218 L 734.761334 249.645380 L 735.179130 249.036090" fill="none" id="5" stroke="black" stroke-width="0.5" /><path d="M 666.202750 117.272310 L 668.428681 120.595746 L 670.654612 123.919183 L 672.880543 127.242620 L 675.106474 130.566056 L 677.430115 133.818783 L 679.891196 136.972048 L 682.551597 139.950261 L 685.360739 142.797843 L 688.169880 145.645425 L 690.979021 148.493007 L 693.788163 151.340590 L 696.597304 154.188172 L 699.406445 157.035754 L 702.215586 159.883337 L 705.024728 162.730919 L 707.833869 165.578501 L 710.643010 168.426084 L 713.231233 171.474605 L 715.800577 174.540298 L 718.369921 177.605990 L 720.887528 180.710371 L 723.101736 184.041630 L 725.315943 187.372889 L 727.848046 190.461701 L 730.461400 193.488493 L 732.659219 196.830588 L 734.666318 200.282663 L 736.458061 203.858925 L 738.249805 207.435188 L 739.979807 211.039183 L 741.417065 214.768213 L 742.023397 218.705561 L 742.141340 222.703822 L 742.259282 226.702083 L 741.733024 230.642198 L 740.652841 234.470278 L 738.926275 238.078460 L 736.944889 241.534028 L 734.578914 244.759266 L 732.078662 247.875148 L 729.399204 250.845081 L 726.719745 253.815014 L 723.824182 256.569683 L 720.864718 259.260700 L 717.808393 261.833335 L 714.584703 264.201420 L 711.361014 266.569505 L 708.083088 268.860080 L 704.753818 271.077275 L 701.424547 273.294470 L 698.095276 275.511666 L 694.766005 277.728861 L 691.436734 279.946057 L 690.958660 280.264440" fill="none" id="6" stroke="black" stroke-width="0.5" /><path d="M 300.187000 185.988850 L 303.895322 187.488298 L 307.593989 189.008015 L 311.094794 190.943049 L 314.595600 192.878084 L 318.096406 194.813119 L 321.462695 196.968880 L 324.787131 199.193319 L 328.111567 201.417757 L 331.208882 203.944428 L 334.237533 206.555039 L 337.101534 209.347440 L 339.885080 212.215035 L 342.477803 215.260982 L 345.070526 218.306928 L 347.617936 221.388522 L 349.967986 224.625383 L 352.300505 227.873753 L 354.336152 231.317028 L 356.371798 234.760303 L 358.108260 237.697510" fill="none" id="7" stroke="black" stroke-width="0.5" /><path d="M 632.187000 105.036090 L 633.083898 103.347374 L 636.656172 105.141452 L 640.166174 107.059755 L 643.676177 108.978057 L 647.186179 110.896359 L 650.610041 112.957948 L 653.950636 115.158045 L 657.291231 117.358141 L 660.506149 119.728374 L 663.591008 122.274674 L 666.675867 124.820975 L 669.760725 127.367275 L 672.845584 129.913575 L 675.928315 132.462227 L 678.769207 135.278135 L 681.610098 138.094043 L 684.202745 141.135504 L 686.013780 143.351050" fill="none" id="8" stroke="black" stroke-width="0.5" /><path d="M 508.029520 143.587270 L 506.739725 143.280516 L 510.299068 145.105641 L 513.858410 146.930765 L 517.417753 148.755890 L 520.977096 150.581015 L 524.336368 152.745297 L 527.655423 154.977756 L 530.974478 157.210215 L 534.238756 159.516418 L 537.334785 162.049126 L 540.430813 164.581833 L 543.526842 167.114541 L 546.622870 169.647248 L 549.718899 172.179956 L 552.567960 174.987000 L 555.410940 177.800799 L 558.253920 180.614597 L 560.533460 182.870740" fill="none" id="9" stroke="black" stroke-width="0.5" /><path d="M 504.375980 141.697510 L 507.753983 143.771348 L 511.341512 145.540427 L 514.929040 147.309505 L 518.273216 149.491627 L 521.559333 151.772293 L 524.598870 154.368356 L 527.605061 157.007069 L 530.611253 159.645783 L 533.471979 162.435352 L 536.218245 165.343620 L 538.964512 168.251887 L 540.344480 169.713260" fill="none" id="10" stroke="black" stroke-width="0.5" /><path d="M 652.218500 262.807750 L 653.634329 265.250376 L 655.988411 268.473802 L 658.097678 271.869760 L 659.768612 275.504038 L 661.125722 279.255111 L 662.237364 283.097539 L 662.995632 287.014210 L 663.524287 290.979121 L 663.714560 292.406170" fill="none" id="11" stroke="black" stroke-width="0.5" /><path d="M 598.549210 286.713260 L 599.006389 286.410914 L 601.221411 289.741631 L 603.436434 293.072347 L 605.409025 296.544703 L 606.877957 300.252565 L 608.114197 304.056735 L 608.725513 308.001615 L 608.922985 311.989606 L 608.941128 315.989565 L 608.245107 319.921420 L 607.620080 323.091210" fill="none" id="12" stroke="black" stroke-width="0.5" /><path d="M 696.690940 259.146330 L 697.596610 262.455354 L 699.372133 266.039698 L 700.656855 269.806435 L 701.653020 273.680406 L 702.023377 277.658970 L 702.125613 281.650126 L 701.948464 285.646202 L 701.793300 289.146330" fill="none" id="13" stroke="black" stroke-width="0.5" /><path d="M 409.194880 302.870740 L 409.831170 298.929466 L 410.076175 294.936976 L 410.321180 290.944487 L 411.009350 287.035159 L 412.412537 283.309370 L 414.838838 280.169526 L 418.144603 277.970052 L 421.838190 276.524862 L 425.716950 275.547508 L 427.809050 275.020350" fill="none" id="14" stroke="black" stroke-width="0.5" /><path d="M 343.336610 218.799870 L 344.168100 214.972352 L 344.530725 210.988823 L 344.893350 207.005294 L 345.878714 203.143540 L 347.668852 199.603800 L 350.880013 197.331564 L 354.765028 196.496246 L 355.588580 196.406170" fill="none" id="15" stroke="black" stroke-width="0.5" /><path d="M 306.769680 200.776250 L 306.614081 196.779277 L 306.458482 192.782305 L 307.155518 188.915098 L 309.310164 185.601515 L 312.493715 183.261972 L 316.355736 182.306677 L 320.347666 182.052725 L 323.084640 181.878610" fill="none" id="16" stroke="black" stroke-width="0.5" /><path d="M 616.375980 105.201450 L 619.115247 102.286589 L 622.346056 100.038631 L 626.247073 99.302434 L 630.130213 99.881809 L 633.766899 101.521540 L 637.183516 103.598066 L 640.052183 106.385672 L 642.331201 109.644737 L 642.517710 109.949480" fill="none" id="17" stroke="black" stroke-width="0.5" /><path d="M 652.974410 123.437670 L 653.773996 119.603795 L 655.396743 115.965847 L 658.501691 114.106131 L 662.021502 115.587258 L 664.553574 118.661920 L 665.793300 120.792000" fill="none" id="18" stroke="black" stroke-width="0.5" /><path d="M 732.281490 195.225070 L 730.719293 191.542741 L 728.838179 188.019332 L 726.753128 184.619977 L 723.612281 182.261750 L 719.841339 182.303045 L 717.109831 185.204165 L 714.862303 188.513034 L 712.964263 192.025025 L 712.124010 193.736880" fill="none" id="19" stroke="black" stroke-width="0.5" /><path d="M 319.620080 179.398300 L 323.121195 181.332775 L 326.622309 183.267251 L 330.123424 185.201727 L 333.581399 187.210045 L 336.985914 189.309873 L 340.390429 191.409701 L 343.731568 193.607194 L 347.036150 195.861021 L 350.340733 198.114847 L 353.548882 200.499987 L 356.688415 202.978562 L 357.698820 203.776250" fill="none" id="20" stroke="black" stroke-width="0.5" /><path d="M 327.714560 182.540030 L 331.392845 184.099816 L 334.865529 186.084878 L 338.251860 188.206824 L 341.538954 190.486082 L 344.826047 192.765340 L 348.113141 195.044598 L 351.400234 197.323855 L 354.540001 199.800693 L 357.521591 202.454974 L 359.965736 205.572457 L 362.165667 208.899788 L 364.567906 212.097649 L 367.029409 215.250584 L 369.490912 218.403519 L 371.952416 221.556455 L 374.413919 224.709390 L 376.875422 227.862325 L 377.730310 228.957350" fill="none" id="21" stroke="black" stroke-width="0.5" /><path d="M 347.557080 192.201450 L 350.307852 195.105456 L 353.058625 198.009462 L 355.506613 201.169926 L 357.918403 204.361049 L 360.330194 207.552172 L 362.741984 210.743295 L 365.252249 213.855163 L 367.854004 216.893399 L 370.455758 219.931634 L 373.183019 222.856169 L 375.950287 225.744460 L 378.717556 228.632751 L 381.484824 231.521043 L 384.202017 234.455307 L 386.843820 237.458784 L 389.485624 240.462261 L 392.127427 243.465738 L 394.769230 246.469216 L 397.411033 249.472693 L 400.144432 252.388768 L 403.020894 255.168330 L 405.897357 257.947892 L 408.773819 260.727454 L 411.650281 263.507016 L 414.780609 265.987352 L 417.782301 268.624004 L 420.709876 271.349679 L 423.637451 274.075354 L 426.565026 276.801029 L 429.701300 279.273632 L 432.934593 281.628587 L 436.167886 283.983543 L 439.401179 286.338499 L 442.991603 288.097642 L 446.592592 289.839157 L 450.260321 291.423396 L 454.014814 292.803173 L 457.769307 294.182949 L 461.226370 295.453420" fill="none" id="22" stroke="black" stroke-width="0.5" /><path d="M 425.446850 273.036090 L 426.186332 275.956814 L 428.450734 279.254160 L 430.832933 282.448927 L 433.787672 285.145132 L 437.259225 287.107334 L 440.854079 288.842145 L 444.628363 290.166826 L 448.402647 291.491507 L 452.199120 292.744711 L 456.060069 293.790209 L 459.921019 294.835708 L 463.781969 295.881206 L 467.675043 296.790280 L 471.596834 297.577399 L 475.518624 298.364518 L 479.445416 299.120984 L 483.414037 299.621029 L 487.382658 300.121075 L 491.351280 300.621120 L 495.319901 301.121165 L 499.292671 301.570903 L 503.289593 301.727807 L 507.286514 301.884712 L 511.284313 301.993910 L 515.284301 301.984091 L 519.284289 301.974272 L 523.284277 301.964453 L 527.284265 301.954634 L 531.277723 301.792014 L 535.263969 301.460578 L 539.250214 301.129143 L 543.236459 300.797708 L 547.190208 300.192286 L 551.143387 299.582063 L 555.096567 298.971840 L 559.035045 298.279812 L 562.953339 297.475465 L 566.871632 296.671117 L 570.789926 295.866769 L 574.688095 294.972086 L 578.577294 294.037134 L 582.466492 293.102182 L 586.355691 292.167230 L 590.244889 291.232278 L 594.134088 290.297326 L 597.989857 289.238550 L 601.821161 288.089157 L 603.809050 287.492790" fill="none" id="23" stroke="black" stroke-width="0.5" /><path d="M 713.919290 190.571530 L 716.563310 193.573056 L 719.207330 196.574581 L 721.851350 199.576107 L 723.988260 202.953611 L 726.078051 206.362727 L 727.554519 210.080259 L 728.287295 213.980919 L 728.151393 217.978610 L 727.911700 221.959372 L 726.770285 225.793061 L 724.928032 229.327238 L 722.946194 232.801763 L 720.731951 236.108881 L 717.995381 239.019942 L 714.992774 241.662735 L 711.835984 244.118477 L 708.668684 246.561469 L 705.501384 249.004462 L 702.612200 251.232940" fill="none" id="24" stroke="black" stroke-width="0.5" /><path d="M 618.202750 105.910110 L 621.742404 107.773131 L 625.282058 109.636153 L 628.821712 111.499175 L 632.361366 113.362196 L 635.901020 115.225218 L 639.440674 117.088240 L 642.980328 118.951261 L 646.519982 120.814283 L 650.059636 122.677305 L 650.202750 122.752630" fill="none" id="25" stroke="black" stroke-width="0.5" /><path d="M 650.738190 123.461290 L 653.865080 125.955795 L 656.991970 128.450301 L 660.118861 130.944806 L 663.245751 133.439312 L 666.238983 136.089763 L 669.182579 138.798129 L 672.126175 141.506494 L 675.069771 144.214859 L 678.013367 146.923225 L 680.785725 149.803665 L 683.508416 152.734015 L 686.124966 155.758276 L 688.701783 158.817690 L 691.278600 161.877103 L 693.855418 164.936517 L 696.432235 167.995931 L 699.009053 171.055344 L 701.585870 174.114758 L 704.335281 177.015229 L 707.172492 179.834846 L 710.009702 182.654462 L 712.846913 185.474078 L 715.684123 188.293695 L 718.521334 191.113311 L 721.358544 193.932928 L 724.195755 196.752544 L 726.580710 199.122710" fill="none" id="26" stroke="black" stroke-width="0.5" /><path d="M 68.344480 77.421920 L 67.521362 74.360528 L 67.615564 70.361637 L 69.058755 66.643896 L 71.347836 63.397849 L 74.138916 60.544011 L 77.052336 57.803211 L 80.279439 55.450427 L 83.672201 53.366256 L 87.383628 51.874508 L 91.263141 50.987931 L 93.604330 50.610900" fill="none" id="27" stroke="black" stroke-width="0.5" /><path d="M 369.604330 8.516410 L 370.346753 4.585912 L 371.867600 0.991867 L 375.643168 0.250000 L 379.141595 1.874908 L 380.250000 2.681760" fill="none" id="28" stroke="black" stroke-width="0.5" /><path d="M 86.769680 52.453420 L 87.194896 49.982228 L 83.513452 51.481487 L 80.275506 53.799134 L 78.022887 57.093190 L 75.854360 60.447696 L 74.621205 64.252868 L 73.698820 67.099090" fill="none" id="29" stroke="black" stroke-width="0.5" /><path d="M 581.667320 212.847120 L 577.667576 212.892401 L 573.667833 212.937682 L 569.786494 212.048902 L 566.054408 210.625259 L 562.722841 208.411516 L 560.086208 205.407978 L 557.842857 202.139829 L 556.496741 198.404676 L 556.017438 194.449347 L 556.326576 190.484891 L 557.405472 186.648955 L 559.160831 183.079191 L 561.753735 180.065578 L 565.018231 177.754070 L 568.573324 175.985877 L 572.424609 175.019773 L 576.400820 174.693426 L 580.397110 174.865679 L 584.218641 175.991212 L 586.234250 176.658140" fill="none" id="30" stroke="black" stroke-width="0.5" /><path d="M 592.785430 207.792000 L 589.264174 209.689566 L 585.513240 211.046035 L 581.632389 211.956686 L 577.672330 212.516902 L 573.672474 212.550860 L 569.672619 212.584818 L 565.790403 211.659746 L 562.129627 210.101762 L 558.869067 207.845058 L 556.247284 204.874208 L 554.150897 201.467573 L 552.653740 197.776159 L 552.111460 193.848019 L 552.372199 189.929340 L 553.850261 186.212442 L 556.063633 182.903134 L 558.705425 179.951876 L 561.919229 177.570393 L 565.491062 175.841579 L 569.333977 174.813704 L 573.293532 174.295940 L 577.293532 174.295940 L 581.209652 174.980927 L 585.038006 176.098647 L 588.673221 177.767543 L 592.025086 179.921925 L 594.931781 182.669855 L 597.163382 185.962202 L 599.204115 189.397128 L 600.124010 193.285241 L 600.078350 197.280398 L 598.827954 201.057966 L 596.863130 204.509223 L 594.276600 207.543931 L 591.119413 209.991634 L 587.658285 211.939445 L 583.950633 213.440551 L 580.120454 214.522678 L 576.179623 215.170697 L 572.180191 215.238102 L 568.183930 215.278677 L 564.310393 214.280821 L 560.492616 213.141365 L 556.978731 211.230185 L 553.901885 208.676516 L 551.030945 205.924238 L 548.650038 202.710007 L 546.976173 199.127997 L 546.471824 195.207548 L 547.014002 191.362296 L 549.069543 187.930860 L 551.682118 184.916386 L 554.509236 182.112851 L 557.872164 179.947046 L 561.416233 178.147900 L 565.216275 176.934311 L 569.165210 176.297199 L 573.155521 176.256147 L 577.154610 176.341538 L 581.075433 176.990825 L 584.885564 178.159711 L 588.458005 179.959064 L 591.763760 182.139665 L 594.302094 185.170370 L 596.193614 188.687591 L 596.537281 192.672801 L 595.813816 196.576437 L 593.906785 200.080800 L 591.277966 203.083124 L 588.473304 205.915507 L 585.186444 208.195101 L 581.731268 210.160383 L 577.974426 211.499075 L 574.033709 212.185184 L 570.070762 212.582298 L 566.071472 212.506934 L 562.291562 211.317624 L 559.037666 209.031764 L 556.269233 206.205130 L 554.005686 202.912193 L 552.443347 199.241951 L 551.788401 195.295934 L 551.707751 191.319392 L 552.688349 187.473625 L 554.377195 183.857839 L 556.538712 180.530460 L 559.722504 178.187988 L 563.602085 177.346014 L 567.594177 177.597421 L 571.385832 178.861959 L 574.967298 180.616118 L 578.472798 182.542635 L 581.692123 184.886844 L 584.754469 187.460177 L 587.516362 190.338744 L 590.087412 193.391426 L 591.644542 197.075900 L 592.436308 200.946104 L 592.253638 204.927993 L 590.673685 208.537961 L 587.901770 211.389510 L 584.619032 213.576334 L 580.816296 214.683689 L 576.856063 215.246322 L 572.869327 215.353435 L 568.870566 215.253879 L 564.985473 214.389659 L 561.130655 213.321774 L 557.643967 211.367251 L 554.605560 208.789738 L 551.690724 206.054488 L 549.261880 202.876326 L 547.487804 199.307928 L 546.673357 195.436436 L 546.282831 191.459093 L 547.229234 187.603758 L 548.714794 183.889851 L 550.629991 180.408618 L 553.145475 177.329206 L 556.146105 174.684169 L 559.606535 172.760523 L 563.486194 172.029211 L 567.476074 171.744860 L 571.384469 172.531838 L 575.154244 173.810336 L 578.794223 175.463547 L 582.101217 177.713833 L 585.154787 180.276431 L 587.897185 183.169914 L 590.201812 186.439270 L 592.170867 189.897910 L 593.107941 193.733748 L 593.309576 197.710740 L 592.384787 201.558121 L 590.270621 204.953751 L 587.628228 207.902009 L 584.387772 210.212990 L 580.806631 211.959837 L 577.011475 213.198485 L 573.063604 213.842159 L 569.071021 213.933730 L 565.079503 213.878071 L 561.261088 212.686555 L 557.963866 210.449533 L 555.001170 207.822230 L 552.769302 204.520907 L 551.200272 200.868254 L 550.615398 196.924710 L 551.042501 192.972546 L 552.718734 189.340709 L 554.394968 185.708871 L 556.654782 182.415374 L 559.227299 179.402225 L 562.628420 177.403865 L 566.455308 176.239852 L 570.428284 175.969739 L 574.426569 175.855666 L 578.347017 176.649447 L 582.267465 177.443229 L 586.021713 178.807441 L 589.754993 180.243625 L 593.034652 182.518727 L 596.113184 185.032135 L 598.396059 188.277518 L 599.761037 192.037416 L 599.822553 196.010900 L 598.345030 199.704591 L 595.904533 202.861656 L 592.923959 205.529272 L 589.676799 207.827079 L 586.074493 209.521564 L 582.245984 210.647763 L 578.289682 211.237401 L 574.292202 211.327204 L 570.306340 211.251487 L 566.417768 210.353960 L 562.891912 208.485364 L 560.026304 205.694613 L 557.642873 202.524366 L 556.005725 198.893232 L 554.829316 195.094727 L 554.615147 191.100465 L 554.400978 187.106202 L 555.602022 183.302854 L 557.405016 179.760534 L 560.279296 177.016022 L 563.745054 175.117047 L 567.653471 174.409601 L 571.641950 174.418383 L 575.547145 175.106991 L 579.348191 176.352803 L 583.049390 177.831183 L 586.570540 179.728946 L 590.002084 181.767663 L 593.214749 184.150682 L 596.180266 186.809945 L 598.784920 189.820012 L 599.981336 193.570700 L 599.302298 197.402167 L 597.227571 200.822037 L 594.536695 203.763076 L 591.294729 206.082416 L 587.683634 207.753050 L 583.942490 209.168619 L 580.044948 210.020671 L 576.076293 210.392380 L 572.076600 210.441964 L 568.207529 209.672939 L 564.421884 208.381085 L 561.274719 205.932365 L 558.923946 202.713803 L 557.570538 198.977028 L 556.656356 195.113529 L 556.642465 191.113553 L 556.628575 187.113577 L 557.542829 183.224747 L 559.160778 179.590745 L 561.154260 176.150821 L 564.223768 173.664187 L 567.897705 172.082356 L 571.828007 171.453116 L 572.942910 171.319560" fill="none" id="31" stroke="black" stroke-width="0.5" /><path d="M 562.486220 225.650270 L 558.545691 224.963703 L 554.936730 223.268132 L 551.966415 220.635188 L 550.026320 217.196447 L 548.847387 213.383411 L 548.826311 209.383466 L 549.449215 205.475457 L 551.070419 201.852113 L 553.478970 198.682056 L 556.334095 195.920489 L 559.829925 194.021888 L 563.736801 193.213449 L 567.715161 192.923640 L 571.710022 192.998710 L 575.607446 193.823130 L 578.391730 194.610900" fill="none" id="32" stroke="black" stroke-width="0.5" /><path d="M 588.501970 209.209320 L 588.035043 213.169778 L 586.154214 216.679961 L 583.444059 219.621909 L 580.190029 221.908217 L 576.368367 223.037008 L 572.441462 223.626968 L 568.442071 223.696724 L 564.503176 223.286819 L 560.782357 221.879081 L 557.442935 219.712274 L 554.398578 217.134919 L 552.086085 213.895632 L 550.802153 210.156882 L 550.551929 206.164716 L 551.435394 202.319539 L 553.349464 198.830318 L 555.939230 195.802385 L 559.253470 193.634832 L 562.903105 192.073692 L 566.839007 191.437282 L 570.838834 191.400097 L 574.814503 191.621082 L 578.737996 192.399674 L 582.623863 193.316119 L 586.363171 194.715882 L 589.706631 196.873131 L 592.029702 200.050335 L 592.731139 203.925513 L 592.435202 207.865140 L 590.890651 211.533586 L 588.569633 214.761543 L 585.564275 217.385035 L 582.140443 219.453218 L 578.526990 221.085514 L 574.679762 222.180426 L 570.744802 222.775677 L 566.753242 222.833356 L 562.759815 222.604142 L 558.995113 221.306963 L 555.774272 218.956293 L 553.283770 215.842872 L 551.416346 212.305539 L 550.430580 208.450665 L 550.528933 204.457146 L 551.536325 200.642949 L 553.562529 197.209415 L 556.412846 194.505837 L 560.062618 193.066906 L 564.043577 193.118411 L 567.968707 193.739459 L 571.771183 194.966150 L 575.462106 196.507932 L 579.105438 198.146695 L 582.583266 200.122729 L 585.861715 202.379826 L 588.548742 205.305428 L 589.978841 208.983937 L 589.717085 212.974653 L 588.180085 216.612974 L 585.603433 219.654676 L 582.347138 221.960187 L 578.693135 223.563970 L 574.938826 224.899121 L 570.995740 225.555780 L 566.995740 225.555780 L 563.081737 224.997879 L 559.467978 223.347988 L 556.450995 220.776492 L 554.309475 217.435650 L 552.749678 213.788347 L 552.333820 209.840636 L 552.561371 205.847114 L 554.012984 202.123185 L 556.165328 198.800077 L 559.048558 196.111488 L 562.742915 194.717960 L 566.705703 194.485635 L 570.703359 194.622540 L 574.620684 195.406030 L 578.444916 196.550805 L 582.212070 197.895628 L 585.836873 199.569440 L 589.040631 201.918789 L 591.632966 204.887900 L 592.684383 208.673789 L 592.566988 212.618408 L 590.864246 216.177701 L 588.278353 219.161821 L 585.105353 221.568043 L 581.407372 223.066580 L 577.478163 223.815792 L 573.548954 224.565004 L 569.567671 224.829615 L 565.568990 224.932320 L 561.617322 224.577797 L 557.936615 223.116993 L 555.012770 220.473835 L 553.035978 217.025668 L 552.013652 213.194811 L 551.869515 209.209554 L 552.464711 205.283152 L 553.825077 201.531095 L 555.755975 198.043002 L 558.430432 195.107255 L 561.611154 192.740463 L 565.351945 191.399512 L 569.302131 190.902240 L 573.302131 190.902240 L 577.244871 191.444413 L 581.069883 192.554453 L 584.751371 194.118629 L 588.080174 196.275378 L 590.819209 199.090749 L 591.714222 202.895845 L 590.913735 206.704720 L 588.724994 210.031223 L 585.787584 212.729615 L 582.525929 214.997276 L 578.855404 216.549191 L 574.989226 217.538329 L 571.027011 218.013823 L 567.027423 218.071234 L 563.105442 217.458616 L 559.251692 216.420681 L 555.814151 214.398205 L 552.970309 211.585277 L 550.642591 208.383478 L 549.169069 204.694954 L 548.545649 200.768442 L 548.385172 196.773279 L 549.545287 192.963775 L 551.901682 189.778829 L 554.980187 187.258978 L 558.734995 185.880062 L 562.703547 185.757518 L 566.663064 186.102735 L 570.515254 187.174131 L 574.234962 188.645107 L 577.897470 190.232665 L 581.337141 192.274395 L 584.543558 194.632254 L 587.054945 197.701955 L 588.319188 201.451859 L 588.184084 205.445520 L 586.540281 209.023557 L 583.977359 212.028550 L 580.846802 214.469895 L 577.198458 216.079993 L 573.341637 217.140621 L 569.428150 217.916385 L 565.447867 218.238137 L 561.447893 218.252496 L 557.560145 217.462477 L 553.855806 216.035956 L 550.431931 213.967847 L 547.975406 210.864787 L 546.991843 207.066194 L 546.879231 203.092632 L 548.500966 199.454301 L 550.852214 196.218310 L 553.986176 193.773251 L 557.357583 191.679666 L 561.238464 190.875470 L 565.237731 190.798884 L 569.195601 191.166592 L 573.037400 191.965230" fill="none" id="33" stroke="black" stroke-width="0.5" /><path d="M 553.950780 197.445540 L 550.579132 199.280536 L 548.296268 202.509732 L 546.391732 206.015195 L 545.173652 209.807098 L 545.327387 213.804142 L 547.282625 217.191704 L 549.634826 220.419311 L 552.661487 223.022653 L 555.971789 225.268070 L 559.645829 226.836630 L 563.504918 227.773562 L 567.463884 228.345043 L 568.596450 228.508530" fill="none" id="34" stroke="black" stroke-width="0.5" /><path d="M 562.549210 200.610900 L 558.938084 198.890501 L 558.358190 196.161146 L 561.987405 194.622356 L 565.825785 193.496817 L 569.743432 192.856367 L 573.740435 192.701555 L 577.498804 193.855037 L 580.854208 196.032482 L 583.710055 198.815395 L 586.207998 201.894685 L 588.042569 205.449169 L 589.118297 209.256163 L 589.446850 211.217200" fill="none" id="35" stroke="black" stroke-width="0.5" /><path d="M 556.407480 181.075460 L 553.457645 182.464244 L 551.388211 185.887319 L 549.622154 189.412332 L 549.204689 193.390488 L 549.887166 197.289861 L 552.017969 200.652550 L 554.772074 203.553396 L 557.597404 206.366357 L 561.023809 208.416041 L 564.919668 209.322837 L 568.856641 209.888866 L 572.856379 209.934666 L 576.847434 209.812708 L 580.821069 209.354209 L 584.794704 208.895710 L 588.561489 207.561556 L 591.810557 205.279414 L 594.184934 202.136499 L 595.729237 198.535307 L 595.681318 194.606377 L 594.006720 190.973786 L 591.602041 187.783586 L 588.968559 184.786333 L 587.966530 183.815620" fill="none" id="36" stroke="black" stroke-width="0.5" /><path d="M 0.250000 161.351050 L 0.714957 157.378165 L 1.210887 153.410102 L 1.975729 149.483906 L 2.807076 145.573036 L 3.837728 141.708096 L 5.029138 137.894258 L 6.419274 134.143588 L 8.013276 130.477729 L 9.693563 126.847765 L 11.669513 123.370245 L 13.779674 119.981106 L 16.220785 116.812356 L 18.661895 113.643605 L 21.103006 110.474855 L 23.922354 107.641098 L 26.850580 104.921070 L 29.934537 102.373678 L 33.278488 100.188576 L 36.781460 98.277624 L 40.447616 96.677844 L 44.299406 95.603865 L 48.215385 94.842384 L 52.186075 94.359042 L 56.185951 94.328322 L 60.181450 94.438897 L 64.171726 94.717631 L 68.092573 95.481391 L 71.977802 96.417530 L 75.776644 97.670048 L 79.509982 99.094017 L 83.176227 100.693594 L 86.716223 102.547006 L 90.203929 104.505554 L 93.526752 106.730224 L 96.823781 108.994069 L 99.949714 111.489774 L 103.038959 114.027901 L 105.959340 116.761282 L 108.879722 119.494663 L 111.800103 122.228044 L 114.675217 125.006409 L 117.390232 127.943873 L 120.105247 130.881337 L 122.820262 133.818801 L 125.519078 136.770250 L 128.028972 139.884802 L 130.536899 143.000824 L 132.813344 146.289866 L 135.089789 149.578908 L 137.366234 152.867950 L 139.642679 156.156992 L 141.712354 159.578622 L 143.751562 163.019790 L 145.610059 166.560041 L 147.414888 170.129717 L 149.219717 173.699394 L 151.024546 177.269071 L 152.624023 180.931381 L 154.105529 184.646908 L 155.587036 188.362435 L 157.068542 192.077961 L 158.237944 195.894469 L 159.213686 199.773635 L 160.189428 203.652801 L 161.165170 207.531967 L 161.509840 208.902240" fill="none" id="37" stroke="black" stroke-width="0.5" /><path d="M 123.620080 298.264440 L 119.655783 298.797682 L 115.672273 299.043970 L 111.672776 299.033683 L 107.691912 298.642893 L 103.763958 297.948699 L 99.885801 296.968955 L 96.123307 295.612788 L 92.405735 294.145246 L 88.779406 292.457129 L 85.239678 290.602033 L 81.770800 288.610329 L 78.400961 286.459634 L 75.083895 284.224222 L 71.905470 281.800846 L 68.790244 279.291788 L 65.786160 276.653836 L 62.846103 273.941630 L 59.985456 271.148179 L 57.206824 268.270818 L 54.495304 265.334041 L 51.975876 262.227196 L 49.456448 259.120352 L 46.937020 256.013507 L 44.417592 252.906663 L 42.081908 249.664324 L 39.858388 246.339274 L 37.697635 242.974893 L 35.675255 239.523810 L 33.652875 236.072726 L 31.630494 232.621643 L 29.608114 229.170559 L 27.805004 225.601638 L 26.042919 222.010669 L 24.280834 218.419700 L 22.518749 214.828732 L 20.907678 211.171531 L 19.459514 207.442882 L 18.011350 203.714233 L 16.563186 199.985585 L 15.182190 196.233443 L 13.990630 192.415042 L 12.880820 188.575259 L 12.050278 184.662434 L 11.219736 180.749609 L 10.389194 176.836784 L 9.715200 172.900718 L 9.373181 168.915367 L 9.031162 164.930016 L 8.689143 160.944665 L 8.577477 156.951778 L 8.658270 152.952594 L 8.739063 148.953410 L 8.841009 144.956211 L 9.505733 141.011830 L 10.391176 137.119990 L 11.574945 133.299167 L 12.758713 129.478343 L 14.272338 125.797445 L 16.196861 122.290850 L 18.121384 118.784254 L 20.521492 115.611234 L 23.163188 112.607662 L 25.831484 109.632289 L 28.983979 107.170221 L 32.417934 105.130607 L 36.079807 103.545638 L 39.918958 102.472611 L 43.866332 101.874659 L 47.858457 101.635988 L 51.858418 101.653633 L 55.821237 102.127232 L 59.741827 102.896855 L 63.609354 103.917752 L 67.317660 105.408061 L 71.008176 106.950815 L 74.698692 108.493570 L 78.176015 110.454345 L 81.591777 112.535827 L 85.007540 114.617310 L 88.290487 116.884113 L 91.359190 119.449862 L 94.427892 122.015610 L 97.496595 124.581358 L 100.222061 127.508500 L 102.942449 130.440989 L 105.662837 133.373478 L 108.259312 136.412903 L 110.762300 139.533007 L 113.265288 142.653111 L 115.768276 145.773216 L 117.985875 149.100610 L 120.178925 152.445835 L 122.371976 155.791060 L 124.528627 159.157509 L 126.359735 162.713777 L 128.190843 166.270045 L 130.021951 169.826313 L 131.806903 173.404091 L 133.352466 177.093432 L 134.898029 180.782773 L 136.443592 184.472113 L 137.939644 188.179633 L 139.148619 191.992555 L 140.357593 195.805478 L 141.566567 199.618401 L 142.751237 203.438026 L 143.667396 207.331695 L 144.576876 211.226642 L 145.163920 215.183330 L 145.750965 219.140018 L 146.338009 223.096705 L 146.925054 227.053393 L 147.171219 231.045758 L 147.397856 235.038754 L 147.372049 239.038671 L 147.346243 243.038587 L 147.320436 247.038504 L 147.020068 251.013250 L 146.318170 254.951186 L 145.616271 258.889122 L 144.914372 262.827058 L 143.706474 266.638480 L 142.352479 270.398162 L 140.768632 274.071229 L 138.809180 277.553269 L 136.597367 280.877423 L 134.112978 284.007761 L 131.284551 286.836189 L 128.116768 289.268821 L 124.709786 291.346583 L 121.091544 293.022584 L 117.294747 294.275403 L 113.375556 295.075366 L 109.392834 295.300669 L 105.393545 295.376125 L 101.418625 295.192789 L 97.503718 294.372119 L 93.710427 293.103444 L 90.005577 291.609154 L 86.380977 289.922679 L 82.991594 287.798512 L 79.602212 285.674345 L 76.212829 283.550178 L 73.025143 281.145681 L 69.933937 278.607090 L 67.089133 275.799233 L 64.286922 272.944830 L 61.484711 270.090428 L 58.682500 267.236025 L 56.114014 264.170830 L 53.563133 261.089758 L 51.209544 257.857764 L 48.903367 254.589499 L 46.597191 251.321235 L 44.291014 248.052971 L 42.104506 244.708937 L 40.136392 241.226620 L 38.168278 237.744304 L 36.200164 234.261987 L 34.232051 230.779671 L 32.512849 227.170525 L 30.852384 223.531452 L 29.191918 219.892379 L 27.531453 216.253305 L 25.906425 212.599188 L 24.441926 208.876925 L 22.977427 205.154662 L 21.728971 201.355627 L 20.516228 197.543901 L 19.303486 193.732175 L 18.090743 189.920449 L 17.039958 186.067235 L 16.270727 182.141896 L 15.501496 178.216558 L 14.732265 174.291219 L 14.030528 170.355796 L 13.618801 166.377042 L 13.267958 162.394329 L 13.160835 158.395763 L 13.053712 154.397198 L 12.946589 150.398633 L 12.933956 146.400492 L 13.077042 142.403052 L 13.500902 138.431791 L 14.099290 134.476803 L 15.105860 130.607152 L 16.142038 126.743690 L 17.178216 122.880229 L 18.660916 119.175776 L 20.299895 115.526975 L 21.938874 111.878174 L 24.027945 108.483515 L 26.305825 105.195467 L 28.583706 101.907419 L 31.377122 99.048292 L 34.508064 96.577760 L 37.904328 94.479087 L 41.534521 92.839795 L 45.368807 91.717123 L 49.307751 91.020904 L 53.302142 90.973388 L 57.302103 90.991037 L 61.282396 91.194491 L 65.197406 92.014672 L 68.976140 93.302557 L 72.718970 94.713664 L 76.461800 96.124771 L 80.016647 97.931608 L 83.475121 99.941324 L 86.933595 101.951040 L 90.316908 104.072929 L 93.490900 106.507222 L 96.554172 109.073836 L 99.510126 111.768708 L 102.289715 114.641083 L 105.003539 117.579647 L 107.717363 120.518211 L 110.428290 123.459279 L 112.942814 126.570094 L 115.457337 129.680910 L 117.971861 132.791725 L 120.457071 135.924428 L 122.725391 139.219078 L 124.993711 142.513729 L 127.262032 145.808380 L 129.487111 149.130533 L 131.509274 152.581743 L 133.492533 156.054305 L 135.317798 159.613576 L 137.143063 163.172847 L 138.968328 166.732118 L 140.760926 170.306853 L 142.356980 173.974633 L 143.953035 177.642413 L 145.549089 181.310193 L 147.110111 184.991802 L 148.449658 188.760835 L 149.789205 192.529869 L 151.128751 196.298902 L 152.339870 200.106778 L 153.313593 203.986451 L 154.287316 207.866124 L 155.261038 211.745797 L 156.009291 215.672669 L 156.673432 219.617148 L 156.991730 223.604052 L 157.300663 227.592104 L 157.609596 231.580156 L 157.730310 235.575488 L 157.716248 239.574843 L 157.349976 243.558038 L 156.765999 247.508817 L 155.950879 251.424622 L 154.754686 255.241574 L 153.373236 258.991467 L 151.768254 262.649488 L 149.737837 266.095850 L 147.707421 269.542212 L 145.394957 272.788157 L 142.722042 275.756902 L 139.773289 278.455436 L 136.412388 280.624387 L 132.848252 282.431004 L 129.098516 283.785435 L 125.219940 284.735104 L 121.270378 285.366918 L 117.270455 285.391780 L 113.270532 285.416643 L 109.282205 285.318538 L 105.357427 284.546449 L 101.516471 283.452645 L 97.725032 282.181969 L 94.049888 280.602945 L 90.461786 278.852107 L 87.014676 276.822961 L 83.567566 274.793814 L 80.120456 272.764668 L 76.803868 270.540121 L 73.609328 268.132859 L 70.524442 265.594038 L 67.581143 262.885350 L 64.637845 260.176662 L 61.694546 257.467974 L 58.752681 254.757848 L 56.038451 251.819660 L 53.324220 248.881471 L 50.692636 245.870122 L 48.105430 242.819489 L 45.572313 239.725699 L 43.172314 236.525698 L 40.772315 233.325697 L 38.583450 229.978515 L 36.411279 226.619695 L 34.413872 223.158427 L 32.544190 219.622287 L 30.674508 216.086146 L 28.804826 212.550006 L 26.935143 209.013865 L 25.379833 205.329887 L 23.848786 201.634499 L 22.317738 197.939111 L 20.786691 194.243723 L 19.387391 190.500357 L 18.183588 186.685798 L 17.051259 182.851020 L 16.078392 178.971132 L 15.195858 175.072655 L 14.557671 171.123893 L 14.006076 167.164396 L 13.660626 163.179341 L 13.450092 159.188593 L 13.458596 155.188602 L 13.467101 151.188611 L 13.475605 147.188620 L 13.842954 143.213230 L 14.380413 139.249502 L 15.331338 135.366155 L 16.318054 131.489766 L 17.304770 127.613377 L 18.595935 123.837811 L 20.117964 120.138700 L 22.002234 116.611924 L 23.912124 113.097337 L 25.822013 109.582750 L 28.068085 106.281553 L 30.504133 103.113337 L 33.186059 100.145631 L 36.160168 97.479844 L 39.344107 95.072632 L 42.731170 92.949954 L 46.381427 91.314220 L 50.152956 90.001442 L 54.013977 88.983951 L 57.958349 88.319170 L 61.951534 88.198139 L 65.951241 88.149756 L 69.950949 88.101374 L 73.862340 88.916067 L 77.769356 89.773521 L 81.676372 90.630975 L 85.405757 92.044536 L 89.086394 93.610715 L 92.767030 95.176893 L 96.335166 96.966093 L 99.782188 98.995388 L 103.036026 101.314593 L 106.236027 103.714592 L 109.436028 106.114591 L 112.591132 108.569652 L 115.586181 111.221006 L 118.528007 113.928642 L 121.342407 116.771027 L 124.156807 119.613412 L 126.971207 122.455797 L 129.687903 125.386352 L 132.227371 128.476837 L 134.766839 131.567323 L 137.306308 134.657808 L 139.746676 137.823630 L 142.045227 141.097261 L 144.343778 144.370893 L 146.642329 147.644525 L 148.848822 150.978912 L 150.955069 154.379460 L 152.897188 157.871669 L 154.687671 161.448563 L 156.478154 165.025456 L 158.268637 168.602350 L 159.833341 172.279149 L 161.276362 176.009791 L 162.480751 179.822009 L 163.623436 183.655320 L 164.766121 187.488630 L 165.820063 191.343833 L 166.591284 195.268781 L 167.183527 199.220924 L 167.612956 203.197806 L 168.042385 207.174688 L 168.404590 211.155027 L 168.385299 215.154980 L 168.366008 219.154934 L 168.346717 223.154887 L 167.878898 227.124098 L 167.197443 231.059188 L 166.200497 234.932959 L 165.203551 238.806729 L 164.047239 242.629429 L 162.606937 246.361122 L 160.767860 249.910801 L 158.726657 253.344721 L 156.468790 256.642508 L 153.695849 259.525353 L 150.922908 262.408199 L 148.046453 265.175643 L 144.880286 267.620102 L 141.486899 269.734124 L 137.932916 271.552322 L 134.230916 273.048592 L 130.391966 274.172187 L 126.449994 274.836278 L 122.473814 275.162786 L 118.474093 275.210026 L 114.474372 275.257266 L 110.523901 274.831903 L 106.619861 273.961000 L 102.715821 273.090098 L 98.866014 272.034075 L 95.109188 270.660662 L 91.458963 269.034728 L 87.854415 267.300589 L 84.249868 265.566450 L 80.665964 263.794041 L 77.237094 261.734223 L 73.834964 259.632551 L 70.524784 257.386953 L 67.276937 255.056869 L 64.154607 252.556658 L 61.032277 250.056447 L 57.909947 247.556236 L 54.877548 244.955560 L 52.048189 242.128066 L 49.218829 239.300572 L 46.389469 236.473078 L 43.587269 233.621094 L 41.066592 230.515263 L 38.545915 227.409432 L 36.293538 224.104052 L 34.044198 220.796414 L 31.794857 217.488777 L 29.545517 214.181139 L 27.499851 210.747090 L 25.534144 207.263414 L 23.649386 203.736246 L 21.829527 200.174208 L 20.114741 196.562922 L 18.541371 192.885354 L 17.073834 189.167298 L 15.790892 185.378623 L 14.643146 181.550699 L 13.697847 177.664002 L 12.927563 173.742404 L 12.309662 169.790417 L 11.949660 165.810280 L 11.700427 161.818053 L 11.785338 157.819999 L 11.895261 153.821510 L 12.005185 149.823021 L 12.390311 145.851530 L 13.059531 141.907909 L 14.055674 138.036590 L 15.198122 134.206716 L 16.622105 130.468765 L 18.273915 126.830491 L 20.076303 123.261021 L 22.210758 119.878108 L 24.432901 116.553796 L 26.742019 113.287609 L 29.382901 110.284991 L 32.042313 107.297095 L 34.701725 104.309198 L 37.710200 101.675518 L 40.896329 99.270786 L 44.250272 97.094191 L 47.803829 95.257828 L 51.515078 93.799583 L 55.320427 92.566978 L 59.125777 91.334374 L 63.039904 90.549157 L 67.004720 90.081766 L 71.002397 89.945482 L 75.000075 89.809199 L 78.978588 90.061846 L 82.930221 90.659755 L 86.809489 91.635090 L 90.579812 92.952665 L 94.260734 94.505524 L 97.801671 96.366107 L 101.150250 98.544645 L 104.383837 100.891747 L 107.388427 103.532285 L 110.393017 106.172823 L 113.397607 108.813361 L 116.116557 111.739530 L 118.757017 114.744189 L 121.397476 117.748848 L 124.037936 120.753506 L 126.396572 123.983689 L 128.749260 127.218633 L 130.853020 130.620329 L 132.949409 134.026963 L 135.045797 137.433597 L 137.142186 140.840231 L 139.033532 144.363155 L 140.881271 147.910810 L 142.554660 151.541692 L 144.151140 155.209287 L 145.747621 158.876882 L 147.344101 162.544476 L 148.843597 166.249596 L 150.131405 170.036619 L 151.419213 173.823643 L 152.707021 177.610667 L 153.994829 181.397691 L 154.944933 185.282978 L 155.889994 189.169733 L 156.835054 193.056487 L 157.780115 196.943242 L 158.368990 200.898200 L 158.926635 204.859138 L 159.290829 208.842520 L 159.625139 212.827474 L 159.678112 216.827123 L 159.731086 220.826772 L 159.784060 224.826421 L 159.597301 228.815619 L 159.196450 232.795483 L 158.341031 236.699173 L 157.422573 240.592300 L 156.504115 244.485427 L 155.051653 248.203480 L 153.486853 251.884702 L 151.904058 255.556285 L 149.706204 258.898355 L 147.508350 262.240426 L 145.085095 265.404963 L 142.350956 268.324634 L 139.616371 271.243827 L 136.509343 273.763029 L 133.109414 275.861425 L 129.500467 277.575896 L 125.687905 278.749725 L 121.751379 279.402306 L 117.763695 279.626640 L 113.773885 279.475096 L 109.810410 278.937225 L 105.984078 277.771384 L 102.314244 276.206601 L 98.715799 274.459835 L 95.117353 272.713070 L 91.704871 270.641721 L 88.378077 268.420811 L 85.143866 266.067339 L 81.940788 263.674418 L 78.941080 261.028335 L 75.941373 258.382252 L 72.941666 255.736169 L 69.985288 253.044055 L 67.162847 250.209655 L 64.383690 247.334469 L 61.722002 244.348600 L 59.060313 241.362731 L 56.398625 238.376862 L 53.764901 235.367962 L 51.344612 232.183279 L 48.924324 228.998596 L 46.504036 225.813913 L 44.083748 222.629230 L 41.853458 219.311905 L 39.698039 215.942310 L 37.662028 212.502433 L 35.762298 208.982345 L 33.862568 205.462256 L 31.962838 201.942167 L 30.063107 198.422078 L 28.374949 194.796112 L 26.696192 191.165440 L 25.017436 187.534768 L 23.338679 183.904097 L 21.806021 180.211603 L 20.368839 176.478707 L 19.105214 172.687578 L 17.999983 168.843301 L 17.070117 164.956222 L 16.279993 161.035035 L 15.725824 157.076952 L 15.281171 153.101743 L 15.180990 149.104432 L 15.113974 145.104994 L 15.046959 141.105555 L 15.343074 137.126605 L 15.895857 133.166570 L 16.783716 129.266352 L 18.000740 125.466021 L 19.430124 121.730132 L 20.859507 117.994244 L 22.695167 114.452615 L 24.705553 110.994530 L 26.715939 107.536446 L 29.174347 104.391753 L 31.733375 101.317444 L 34.331363 98.280469 L 37.293823 95.592750 L 40.518126 93.236255 L 43.919114 91.142379 L 47.468035 89.303233 L 51.218961 87.913788 L 55.078750 86.893472 L 59.010767 86.213112 L 63.000771 85.930490 L 66.999650 85.931746 L 70.966839 86.294672 L 74.895520 87.046646 L 78.737578 88.154303 L 82.538588 89.390337 L 86.262062 90.851754 L 89.823273 92.653803 L 93.304244 94.624295 L 96.785216 96.594788 L 100.179690 98.699513 L 103.412447 101.055204 L 106.505237 103.586129 L 109.517138 106.218325 L 112.529039 108.850520 L 115.540939 111.482716 L 118.270194 114.405882 L 120.988670 117.340142 L 123.707147 120.274403 L 126.410692 123.221382 L 128.875299 126.371892 L 131.334861 129.526117 L 133.611900 132.814748 L 135.888938 136.103379 L 138.165977 139.392010 L 140.443016 142.680641 L 142.460955 146.133340 L 144.460173 149.597893 L 146.459392 153.062445 L 148.458610 156.526998 L 150.237561 160.107112 L 151.952017 163.721063 L 153.666473 167.335014 L 155.380928 170.948965 L 156.902709 174.644289 L 158.297807 178.393116 L 159.692905 182.141943 L 161.088003 185.890769 L 162.287681 189.703674 L 163.383275 193.550709 L 164.292541 197.444456 L 165.141380 201.353353 L 165.990219 205.262249 L 166.824195 209.173721 L 167.339964 213.140330 L 167.855733 217.106938 L 168.371502 221.073546 L 168.756118 225.052258 L 168.974966 229.046267 L 169.008901 233.044415 L 168.969025 237.044217 L 168.929150 241.044018 L 168.609650 245.023329 L 168.019526 248.977180 L 167.039666 252.855308 L 166.059806 256.733435 L 164.771499 260.502154 L 163.088598 264.130906 L 161.373267 267.740033 L 158.939110 270.914128 L 156.103623 273.730059 L 152.872104 276.070508 L 149.340348 277.928218 L 145.601205 279.321032 L 143.525590 279.957350" fill="none" id="38" stroke="black" stroke-width="0.5" /><path d="M 104.187000 272.587270 L 100.786727 270.480579 L 97.386454 268.373889 L 93.986182 266.267198 L 90.661661 264.049565 L 87.461660 261.649566 L 84.261660 259.249566 L 81.061660 256.849567 L 77.932413 254.361672 L 74.904265 251.748183 L 71.947274 249.058344 L 69.127252 246.221536 L 66.307231 243.384728 L 63.487210 240.547920 L 60.684790 237.694475 L 58.011312 234.719157 L 55.337835 231.743839 L 52.845125 228.616201 L 50.366261 225.476897 L 47.887397 222.337592 L 45.408534 219.198287 L 43.069239 215.958549 L 40.880053 212.610794 L 38.746156 209.229240 L 36.764671 205.754514 L 34.797576 202.272252 L 33.069571 198.664760 L 31.341566 195.057268 L 29.613561 191.449776 L 27.885556 187.842284 L 26.453084 184.110080 L 25.074257 180.355238 L 23.695429 176.600397 L 22.320011 172.844496 L 21.328389 168.969359 L 20.437492 165.075280 L 19.953667 161.104649 L 19.469843 157.134017 L 18.986018 153.163386 L 18.903930 149.168881 L 18.914087 145.168894 L 18.924244 141.168907 L 19.388451 137.206470 L 20.112567 133.274883 L 21.064468 129.389798 L 22.339607 125.601568 L 23.860851 121.908561 L 25.606799 118.309718 L 27.352747 114.710876 L 29.478854 111.333812 L 31.752356 108.042734 L 34.095915 104.808670 L 36.856448 101.913940 L 40.017614 99.470223 L 43.430934 97.401433 L 47.071854 95.784104 L 50.892022 94.612771 L 54.806485 93.789985 L 58.799049 93.600991 L 62.796155 93.448860 L 66.782559 93.511004 L 70.744614 94.060657 L 74.587486 95.159998 L 78.421398 96.300665 L 82.255310 97.441331 L 85.920044 99.040277 L 89.514739 100.785521 L 93.002637 102.743728 L 96.344494 104.937052 L 99.608635 107.244496 L 102.664057 109.826044 L 105.719480 112.407593 L 108.774902 114.989142 L 111.645343 117.771797 L 114.472677 120.601317 L 117.300010 123.430838 L 120.061937 126.319280 L 122.581957 129.425644 L 125.101977 132.532008 L 127.621997 135.638372 L 130.037562 138.823034 L 132.312291 142.113264 L 134.482816 145.470739 L 136.543747 148.898941 L 138.604677 152.327142 L 140.665607 155.755344 L 142.580468 159.264108 L 144.380467 162.836223 L 146.079554 166.456191 L 147.706325 170.110450 L 149.333097 173.764710 L 150.959869 177.418969 L 152.451202 181.128887 L 153.863970 184.871090 L 155.276739 188.613294 L 156.689508 192.355497 L 157.798454 196.194881 L 158.819722 200.062311 L 159.840991 203.929740 L 160.857020 207.798280 L 161.491662 211.747613 L 162.074665 215.703310 L 162.418064 219.688543 L 162.761462 223.673775 L 163.104861 227.659008 L 163.217438 231.654451 L 163.227276 235.654439 L 163.237114 239.654427 L 162.925938 243.628813 L 162.282238 247.576679 L 161.638538 251.524546 L 160.744157 255.413174 L 159.551289 259.231099 L 158.012828 262.923407 L 156.233818 266.498496 L 154.215703 269.949151 L 151.947561 273.243924 L 149.357386 276.287934 L 146.393777 278.949516 L 143.237629 281.406898 L 139.958415 283.665462 L 136.329219 285.338946 L 132.523676 286.570954 L 128.569493 287.159888 L 124.579945 287.344165 L 120.585451 287.238642 L 116.603913 286.886042 L 112.705555 285.990047 L 108.863701 284.891609 L 105.076965 283.609384 L 101.483651 281.852087 L 97.890337 280.094790 L 94.297023 278.337493 L 90.892366 276.255414 L 87.585670 274.004689 L 84.278974 271.753964 L 80.972278 269.503239 L 77.832101 267.030838 L 74.749380 264.481950 L 71.818934 261.764492 L 68.970846 258.955864 L 66.122757 256.147236 L 63.274669 253.338607 L 60.486709 250.473676 L 57.871043 247.447408 L 55.255378 244.421141 L 52.639712 241.394874 L 50.024047 238.368606 L 47.538764 235.237378 L 45.140870 232.035800 L 42.793755 228.799051 L 40.639805 225.428517 L 38.485855 222.057984 L 36.567764 218.549899 L 34.694825 215.015482 L 32.821887 211.481066 L 30.948949 207.946649 L 29.120119 204.391150 L 27.546123 200.713850 L 25.972127 197.036549 L 24.398131 193.359249 L 22.824135 189.681949 L 21.384826 185.951557 L 20.026249 182.189341 L 18.787057 178.388081 L 17.660041 174.550134 L 16.702446 170.671280 L 15.953998 166.741925 L 15.205549 162.812571 L 14.457101 158.883217 L 13.955920 154.919593 L 13.607523 150.934794 L 13.510371 146.937830 L 13.472139 142.938013 L 13.433907 138.938196 L 13.781206 134.971058 L 14.492147 131.034745 L 15.203088 127.098431 L 16.199638 123.235709 L 17.501481 119.454400 L 19.076493 115.777535 L 20.930915 112.240636 L 23.036895 108.846119 L 25.424583 105.636922 L 28.108711 102.672860 L 31.194458 100.158730 L 34.460119 97.848870 L 37.862796 95.790512 L 41.595257 94.364207 L 45.481693 93.417836 L 49.448176 92.933594 L 53.437200 92.836079 L 57.434472 92.983803 L 61.431743 93.131526 L 65.329662 93.977686 L 69.209568 94.950483 L 73.079681 95.953011 L 76.778282 97.476279 L 80.476884 98.999547 L 84.147616 100.578615 L 87.587178 102.620530 L 91.026740 104.662444 L 94.444491 106.736315 L 97.599399 109.195289 L 100.607923 111.823535 L 103.496288 114.590726 L 106.384653 117.357917 L 109.200006 120.196179 L 111.888389 123.158037 L 114.430510 126.243369 L 116.899389 129.390532 L 119.368268 132.537695 L 121.822163 135.695646 L 124.023614 139.035349 L 126.188732 142.397376 L 128.173285 145.870350 L 130.091417 149.377548 L 131.767650 153.009386 L 133.443882 156.641223 L 135.120115 160.273061 L 136.744886 163.925937 L 138.092991 167.691918 L 139.441096 171.457899 L 140.789200 175.223880 L 142.137305 178.989861 L 143.259928 182.829082 L 144.382139 186.668436 L 145.300794 190.561213 L 146.208590 194.456839 L 147.116387 198.352466 L 148.024183 202.248092 L 148.620052 206.202922 L 149.202727 210.160256 L 149.785403 214.117589 L 150.349192 218.077028 L 150.652117 222.065541 L 150.901114 226.056286 L 150.928889 230.056190 L 150.956663 234.056093 L 150.984438 238.055997 L 150.421029 242.004592 L 149.704561 245.939903 L 148.988093 249.875214 L 147.838370 253.700097 L 146.358615 257.405486 L 144.573482 260.985053 L 142.788349 264.564620 L 140.442800 267.795888 L 137.765308 270.759705 L 134.670510 273.263088 L 131.220916 275.267767 L 127.513916 276.724371 L 123.622834 277.615977 L 119.653794 278.067590 L 115.653794 278.067590 L 111.665158 277.774814 L 107.741689 277.057538 L 103.894406 275.985420 L 100.149087 274.580932 L 96.502112 272.942067 L 92.932812 271.148712 L 89.539319 269.031118 L 86.145825 266.913524 L 82.752332 264.795931 L 79.504392 262.467036 L 76.316450 260.051042 L 73.345099 257.377763 L 70.420945 254.648418 L 67.496790 251.919074 L 64.572636 249.189729 L 61.815963 246.292397 L 59.077810 243.376490 L 56.492059 240.326124 L 53.940113 237.245933 L 51.388168 234.165743 L 48.836223 231.085552 L 46.423026 227.898893 L 44.108195 224.636753 L 41.938788 221.281592 L 39.947860 217.812269 L 37.956931 214.342946 L 35.966002 210.873623 L 34.049992 207.366550 L 32.446324 203.702092 L 30.842657 200.037634 L 29.238990 196.373177 L 27.635322 192.708719 L 26.283581 188.944135 L 24.934258 185.178590 L 23.792689 181.345055 L 22.660276 177.508932 L 21.832062 173.595614 L 21.043922 169.675623 L 20.559497 165.705065 L 20.205004 161.725866 L 20.159423 157.726126 L 20.113842 153.726386 L 20.068261 149.726646 L 20.513628 145.757269 L 21.156643 141.815024 L 22.213584 137.957191 L 23.270526 134.099358 L 24.360294 130.252643 L 25.865123 126.546501 L 27.545929 122.921470 L 29.386290 119.369981 L 31.226650 115.818492 L 33.275209 112.392273 L 35.550972 109.102759 L 38.100593 106.021533 L 40.826962 103.105003 L 43.748959 100.373348 L 46.980988 98.020755 L 50.335145 95.855367 L 53.862870 93.969857 L 57.551460 92.434113 L 61.323835 91.129546 L 65.224661 90.244358 L 69.177959 89.674934 L 73.158234 89.303810 L 77.158234 89.303810 L 81.148383 89.505699 L 85.129379 89.895147 L 89.039769 90.721190 L 92.903685 91.735680 L 96.683979 93.043112 L 100.380957 94.562933 L 104.016097 96.224665 L 107.452922 98.271182 L 110.889748 100.317699 L 114.326573 102.364216 L 117.604055 104.652106 L 120.826694 107.020525 L 123.842490 109.648257 L 126.858286 112.275989 L 129.874082 114.903721 L 132.738502 117.687039 L 135.447966 120.629624 L 138.157430 123.572209 L 140.866894 126.514793 L 143.309943 129.680253 L 145.727869 132.866730 L 148.145794 136.053207 L 150.473055 139.301399 L 152.550807 142.719432 L 154.628558 146.137465 L 156.706309 149.555498 L 158.572444 153.087662 L 160.287187 156.701477 L 161.819094 160.394679 L 163.288804 164.114888 L 164.487259 167.929376 L 165.641674 171.759170 L 166.796090 175.588965 L 167.909661 179.429178 L 168.730747 183.343998 L 169.551833 187.258818 L 170.372919 191.173638 L 171.194006 195.088459 L 172.015092 199.003279 L 172.483575 202.970479 L 172.835942 206.954928 L 173.188309 210.939378 L 173.446850 214.927968 L 173.446850 218.927968 L 173.446850 222.927968 L 173.446850 226.927968 L 172.825059 230.876608 L 172.168731 234.822394 L 171.512403 238.768181 L 170.337487 242.588679 L 169.119990 246.398889 L 167.870551 250.196939 L 166.245998 253.852186 L 164.361647 257.375417 L 162.228627 260.752039 L 159.841533 263.960976 L 157.116202 266.888871 L 154.146987 269.560921 L 150.909982 271.883489 L 147.442083 273.876898 L 143.974185 275.870307 L 140.233038 277.278485 L 136.366005 278.272712 L 132.423301 278.908382 L 128.439587 279.225070 L 124.439587 279.225070 L 120.461555 278.840929 L 116.526145 278.175788 L 112.650474 277.186256 L 108.887450 275.838132 L 105.191411 274.322103 L 101.631095 272.498878 L 98.174090 270.493311 L 94.780153 268.376427 L 91.491121 266.101912 L 88.227982 263.788489 L 85.127796 261.263137 L 82.053705 258.703847 L 78.979614 256.144557 L 75.905524 253.585267 L 72.993786 250.850269 L 70.199961 247.987658 L 67.406136 245.125047 L 64.612311 242.262436 L 61.847391 239.373903 L 59.304935 236.285876 L 56.762478 233.197848 L 54.220022 230.109821 L 51.677565 227.021793 L 49.353820 223.771981 L 47.145123 220.437066 L 44.936425 217.102152 L 42.727727 213.767237 L 40.641039 210.360501 L 38.797079 206.810880 L 37.050870 203.216207 L 35.550100 199.508420 L 34.049330 195.800632 L 32.548559 192.092845 L 31.177222 188.339707 L 30.035646 184.506066 L 28.962286 180.653389 L 27.953994 176.782556 L 27.219172 172.855542 L 26.619757 168.900709 L 26.020342 164.945876 L 25.443397 160.989125 L 25.363544 156.989922 L 25.283692 152.990719 L 25.203839 148.991516 L 25.393410 145.005373 L 25.859692 141.032644 L 26.746223 137.137812 L 27.734780 133.261892 L 28.723338 129.385973 L 30.061163 125.629070 L 31.645009 121.956001 L 33.228856 118.282933 L 35.072555 114.742452 L 37.151529 111.327407 L 39.538609 108.117758 L 42.216878 105.161119 L 45.146942 102.450372 L 48.401504 100.124900 L 51.899867 98.202050 L 55.553234 96.604087 L 59.372695 95.415931 L 63.291385 94.627249 L 67.250387 94.145843 L 71.248706 94.029912 L 75.247026 93.913982 L 79.230984 94.044894 L 83.188880 94.623737 L 87.061246 95.600258 L 90.907152 96.699806 L 94.753058 97.799354 L 98.464296 99.261468 L 102.095473 100.939133 L 105.726649 102.616797 L 109.248580 104.498220 L 112.655542 106.594076 L 116.062503 108.689932 L 119.431513 110.841900 L 122.644993 113.223821 L 125.729822 115.762686 L 128.695965 118.446340 L 131.662107 121.129993 L 134.571405 123.869702 L 137.213291 126.873107 L 139.855176 129.876512 L 142.497062 132.879917 L 144.878058 136.089164 L 147.184434 139.357288 L 149.490810 142.625411 L 151.708161 145.951034 L 153.738575 149.397398 L 155.572235 152.946766 L 157.247636 156.578987 L 158.923037 160.211209 L 160.598439 163.843430 L 162.010480 167.585272 L 163.386503 171.340344 L 164.500757 175.182016 L 165.615010 179.023687 L 166.729263 182.865359 L 167.748726 186.730181 L 168.530764 190.652988 L 169.312802 194.575795 L 170.094840 198.498602 L 170.721132 202.446582 L 171.214655 206.416019 L 171.498157 210.403446 L 171.686889 214.398992 L 171.875620 218.394537 L 172.059265 222.390139 L 171.959860 226.388903 L 171.860455 230.387668 L 171.761050 234.386432 L 171.366350 238.357190 L 170.712216 242.303341 L 170.058081 246.249492 L 169.321829 250.177770 L 168.276730 254.038828 L 167.113948 257.864678 L 165.866866 261.665308 L 164.290905 265.341623 L 162.531555 268.927158 L 160.556254 272.405403 L 158.188043 275.628603 L 155.547751 278.619286 L 152.648003 281.366999 L 149.509862 283.847336 L 146.046392 285.842966 L 142.409346 287.488887 L 138.617048 288.716047 L 134.696733 289.481637 L 130.697134 289.538234 L 126.697534 289.594831 L 122.712116 289.508245 L 118.801323 288.668184 L 114.949304 287.613423 L 111.155907 286.344507 L 107.516290 284.703228 L 103.932936 282.925708 L 100.349583 281.148187 L 96.766230 279.370666 L 93.398850 277.220102 L 90.073112 274.997611 L 86.747374 272.775120 L 83.421635 270.552629 L 80.172356 268.225077 L 77.034840 265.743949 L 73.898824 263.261077 L 70.975387 260.530964 L 68.051951 257.800850 L 65.128514 255.070737 L 62.205078 252.340624 L 59.281641 249.610510 L 56.551200 246.687415 L 53.821290 243.763789 L 51.146503 240.791304 L 48.571785 237.730123 L 45.997068 234.668942 L 43.563969 231.496223 L 41.191371 228.275854 L 38.818773 225.055484 L 38.769680 224.988850" fill="none" id="39" stroke="black" stroke-width="0.5" /><path d="M 418.895670 163.429790 L 415.367214 161.545645 L 411.838759 159.661500 L 408.310303 157.777356 L 405.226370 156.130580" fill="none" id="40" stroke="black" stroke-width="0.5" /><path d="M 358.580710 105.154200 L 356.903470 101.522827 L 355.229823 97.890013 L 353.931862 94.106457 L 352.633902 90.322901 L 351.335941 86.539344 L 350.221674 82.705732 L 349.420716 78.786744 L 348.895319 74.825251 L 348.530730 70.844180 L 348.510142 66.844233 L 348.552019 62.844773 L 348.704215 58.854221 L 349.601088 54.956065 L 350.497960 51.057909 L 351.493101 47.190342 L 352.967104 43.471832 L 354.805809 39.926742 L 356.759682 36.436415 L 358.773285 32.987017 L 361.323051 29.905023 L 364.181778 27.113920 L 367.389333 24.754840 L 370.900313 22.868168 L 374.625997 21.421929 L 378.552699 20.659687 L 382.528665 20.341681 L 386.524678 20.333556 L 390.514513 20.618540 L 394.418390 21.440408 L 398.268360 22.510117 L 402.018470 23.901761 L 405.687218 25.486910 L 409.305011 27.193243 L 412.781515 29.169727 L 416.178690 31.269814 L 419.354853 33.701272 L 422.531017 36.132729 L 425.707180 38.564186 L 428.613094 41.308842 L 431.421787 44.152033 L 433.991130 47.217727 L 436.560473 50.283421 L 439.129815 53.349115 L 441.470208 56.587498 L 443.711947 59.900292 L 445.645374 63.397438 L 447.502749 66.940058 L 449.360123 70.482679 L 451.217498 74.025299 L 452.768699 77.709924 L 454.273354 81.416137 L 455.514898 85.217169 L 456.720380 89.031198 L 457.925862 92.845226 L 459.131344 96.659255 L 459.989710 100.564909 L 460.823638 104.477014 L 461.657567 108.389118 L 462.464279 112.305835 L 462.965735 116.274278 L 463.412508 120.248170 L 463.703970 124.237537 L 463.790841 128.231973 L 463.697298 132.230879 L 463.603754 136.229785 L 463.157824 140.189068 L 462.257701 144.078494 L 460.803797 147.804908 L 459.349893 151.531323 L 457.424690 155.017466 L 455.053378 158.228860 L 452.286064 161.093961 L 449.112588 163.516962 L 445.660598 165.530641 L 441.948981 167.021915 L 438.093787 168.076129 L 434.156646 168.738323 L 430.175515 168.908957 L 426.181012 168.699333 L 422.186508 168.489708 L 418.330262 167.523309 L 414.519672 166.307002 L 410.709082 165.090695 L 407.021240 163.566766 L 403.420083 161.825599 L 399.952711 159.834472 L 396.518308 157.785386 L 393.235884 155.499410 L 389.979094 153.178753 L 386.830818 150.711294 L 383.730022 148.188872 L 380.831318 145.432513 L 377.932614 142.676154 L 375.033910 139.919795 L 372.135206 137.163436 L 369.498909 134.156746 L 366.882077 131.131487 L 364.422827 127.978934 L 362.015424 124.784500 L 359.699397 121.524846 L 357.460768 118.209949 L 355.317180 114.836302 L 353.352767 111.351897 L 351.388353 107.867492 L 349.423940 104.383086 L 347.520831 100.869232 L 346.028618 97.157992 L 344.536405 93.446753 L 343.044192 89.735513 L 341.780001 85.949556 L 340.786501 82.074900 L 340.110441 78.134401 L 339.684641 74.166049 L 339.604025 70.166862 L 339.523408 66.167674 L 339.945432 62.208306 L 340.852095 58.324696 L 342.210225 54.562318 L 343.568356 50.799941 L 345.472479 47.301617 L 347.578537 43.900952 L 349.783672 40.573542 L 352.417686 37.563232 L 355.351845 34.847011 L 358.516572 32.410546 L 361.934798 30.357575 L 365.577565 28.725316 L 369.382163 27.494528 L 373.337393 26.897740 L 377.321854 26.782912 L 381.320218 26.897303 L 385.318582 27.011695 L 389.235204 27.754205 L 393.103530 28.757649 L 396.886276 30.057968 L 400.538757 31.668666 L 404.116467 33.457518 L 407.694177 35.246370 L 411.196624 37.159819 L 414.444819 39.494177 L 417.693014 41.828535 L 420.941209 44.162894 L 423.965510 46.772686 L 426.909050 49.480569 L 429.558019 52.477729 L 432.206987 55.474888 L 434.855956 58.472048 L 437.339048 61.602269 L 439.690199 64.838330 L 442.041349 68.074391 L 444.392500 71.310452 L 446.505808 74.705276 L 448.575617 78.127232 L 450.371579 81.701378 L 452.167541 85.275524 L 453.963503 88.849670 L 455.528135 92.522889 L 456.875821 96.289020 L 458.223507 100.055151 L 459.536447 103.832026 L 460.549882 107.701516 L 461.429732 111.599876 L 462.104663 115.542523 L 462.779595 119.485171 L 463.422219 123.431699 L 463.700156 127.422031 L 463.829972 131.417119 L 463.808597 135.417062 L 463.787222 139.417005 L 463.381097 143.380826 L 462.596276 147.300314 L 461.476965 151.140515 L 459.965489 154.839224 L 458.152867 158.397707 L 456.018833 161.770813 L 453.519574 164.891142 L 450.601427 167.626909 L 447.367423 169.967125 L 443.903446 171.948440 L 440.251484 173.557280 L 436.433565 174.750384 L 432.502975 175.490056 L 428.530337 175.906847 L 424.536805 176.080257 L 420.536937 176.047828 L 416.575147 175.526534 L 412.648943 174.790066 L 408.778625 173.779797 L 405.001244 172.479697 L 401.265127 171.050911 L 397.703388 169.230997 L 394.175599 167.350071 L 390.774363 165.244936 L 387.425861 163.061748 L 384.203475 160.691889 L 381.031471 158.258458 L 377.988137 155.662669 L 374.980442 153.028227 L 372.146568 150.205256 L 369.313363 147.381666 L 366.711357 144.343647 L 364.109350 141.305628 L 361.640289 138.160046 L 359.212398 134.981155 L 356.875756 131.736817 L 354.643092 128.417899 L 352.432858 125.084843 L 350.401295 121.639157 L 348.369731 118.193471 L 346.519672 114.649145 L 344.733544 111.070075 L 343.092319 107.426858 L 341.643566 103.698438 L 340.271349 99.944399 L 339.183593 96.095141 L 338.153517 92.232499 L 337.435035 88.297555 L 336.870623 84.345735 L 336.720232 80.348563 L 336.569841 76.351391 L 336.419449 72.354219 L 336.845380 68.380579 L 337.551264 64.453939 L 338.605515 60.595370 L 340.042905 56.864876 L 341.720679 53.241789 L 343.653583 49.740951 L 345.949701 46.465613 L 348.544258 43.434842 L 351.304594 40.539924 L 354.064930 37.645007 L 357.262683 35.253117 L 360.512837 32.921487 L 363.839635 30.718783 L 367.440722 28.977468 L 371.196484 27.608547 L 375.037602 26.519535 L 378.949550 25.690372 L 382.926301 25.259731 L 386.915697 25.130221 L 390.914552 25.225940 L 394.913406 25.321659 L 398.863415 25.848394 L 402.769809 26.697138 L 406.572920 27.936633 L 410.295981 29.383759 L 413.946878 31.018064 L 417.375994 33.069928 L 420.729942 35.244305 L 423.916784 37.661751 L 426.983431 40.222572 L 429.920052 42.938499 L 432.689393 45.821263 L 435.397529 48.765070 L 437.972702 51.825266 L 440.529328 54.901394 L 442.845331 58.162702 L 445.158324 61.425991 L 447.237625 64.843081 L 449.316926 68.260172 L 451.041323 71.868272 L 452.748085 75.485863 L 454.454847 79.103453 L 456.161609 82.721044 L 457.561369 86.462111 L 458.834703 90.254026 L 460.108038 94.045941 L 461.381372 97.837856 L 462.471462 101.681799 L 463.380742 105.577080 L 464.201279 109.490782 L 464.917506 113.426137 L 465.506192 117.379875 L 465.930453 121.357311 L 466.180557 125.345769 L 466.261079 129.344959 L 466.341601 133.344148 L 466.422123 137.343337 L 466.101845 141.330214 L 465.577042 145.289151 L 464.798813 149.212715 L 463.377302 152.950557 L 461.944534 156.685149 L 460.305955 160.317263 L 458.186896 163.709653 L 455.703141 166.845090 L 452.922733 169.710121 L 449.812826 172.195641 L 446.439073 174.344546 L 443.065321 176.493452 L 439.380839 178.036185 L 435.589740 179.298836 L 431.703003 180.187848 L 427.731538 180.664784 L 423.760074 181.141721 L 419.767416 181.264440 L 415.780813 181.075930 L 411.821014 180.510247 L 407.938020 179.565914 L 404.109826 178.425622 L 400.393921 176.945064 L 396.785757 175.229807 L 393.240680 173.377126 L 389.898720 171.180599 L 386.598438 168.924070 L 383.466357 166.436084 L 380.397361 163.875033 L 377.479213 161.139268 L 374.643632 158.322385 L 371.959976 155.356244 L 369.372289 152.310839 L 366.966633 149.115089 L 364.619501 145.877646 L 362.384939 142.560007 L 360.230787 139.193166 L 358.293933 135.693367 L 356.357078 132.193567 L 354.420224 128.693768 L 352.501847 125.184785 L 350.881473 121.527684 L 349.261099 117.870583 L 347.925343 114.100734 L 346.601714 110.326080 L 345.561946 106.464674 L 344.549315 102.594974 L 343.902711 98.648451 L 343.322506 94.693464 L 343.180751 90.695977 L 343.038996 86.698489 L 342.897242 82.701002 L 343.197844 78.719795 L 343.717013 74.757958 L 344.633175 70.864290 L 345.742642 67.024343 L 346.987488 63.224017 L 348.566827 59.549008 L 350.326065 55.962176 L 352.263326 52.462602 L 354.590793 49.209776 L 356.921953 45.959284 L 359.301920 42.749280 L 362.065759 39.857707 L 365.078998 37.235285 L 368.331229 34.927474 L 371.818330 32.982334 L 375.588994 31.647384 L 379.478028 30.745159 L 383.430706 30.207299 L 387.427160 30.038910 L 391.420712 30.260164 L 395.355454 30.877648 L 399.231100 31.861838 L 402.981313 33.253206 L 406.664617 34.802703 L 410.274541 36.525620 L 413.703769 38.578547 L 417.065901 40.741151 L 420.245940 43.167538 L 423.313447 45.727281 L 426.240083 48.453964 L 428.979798 51.363639 L 431.643691 54.347541 L 434.030839 57.554721 L 436.384002 60.789319 L 438.737165 64.023917 L 441.090328 67.258514 L 443.179994 70.668805 L 445.261218 74.084725 L 447.058581 77.656177 L 448.817434 81.248730 L 450.576287 84.841283 L 452.335140 88.433836 L 453.793768 92.151477 L 455.106096 95.930074 L 456.418425 99.708671 L 457.730754 103.487267 L 458.883472 107.313891 L 459.874220 111.189252 L 460.720053 115.095080 L 461.373771 119.041300 L 462.027489 122.987520 L 462.681207 126.933740 L 463.189703 130.898352 L 463.540382 134.882950 L 463.671805 138.877992 L 463.701434 142.877882 L 463.731064 146.877772 L 463.523322 150.865120 L 463.008176 154.826795 L 461.897066 158.669377 L 460.785957 162.511959 L 459.218979 166.164597 L 457.086299 169.537460 L 454.468594 172.534120 L 451.311081 174.970983 L 447.795084 176.857722 L 444.019497 178.162974 L 440.092750 178.924986 L 436.096484 179.052805 L 432.097909 179.159562 L 428.128309 178.854175 L 424.210420 178.081932 L 420.409366 176.836145 L 416.608312 175.590358 L 412.824849 174.300530 L 409.211565 172.584670 L 405.651925 170.766649 L 402.188046 168.766264 L 398.828419 166.602696 L 395.557414 164.300408 L 392.424024 161.819286 L 389.360617 159.247217 L 386.297209 156.675148 L 383.233802 154.103080 L 380.344102 151.342275 L 377.527242 148.502328 L 374.821103 145.558712 L 372.172415 142.561305 L 369.670340 139.443590 L 367.247637 136.260743 L 365.025337 132.938508 L 362.884211 129.559813 L 360.978964 126.044246 L 359.108044 122.508761 L 357.237125 118.973275 L 355.520936 115.365319 L 354.002711 111.664644 L 352.484486 107.963970 L 351.066446 104.227550 L 349.899223 100.401639 L 349.006159 96.504741 L 348.340268 92.566285 L 347.933036 88.587069 L 347.525803 84.607853 L 347.521085 80.616969 L 347.697125 76.620844 L 347.877048 72.625190 L 348.660407 68.702647 L 349.812217 64.882855 L 351.171847 61.121020 L 352.531477 57.359184 L 354.349255 53.800772 L 356.507798 50.446074 L 358.887813 47.231182 L 361.285060 44.031769 L 364.227242 41.321869 L 367.459961 38.976965 L 370.960970 37.069867 L 374.670851 35.601981 L 378.524476 34.548705 L 382.487355 34.005018 L 386.480677 33.946205 L 390.480438 33.989934 L 394.467374 34.140636 L 398.364107 35.043669 L 402.187624 36.204609 L 405.950572 37.552536 L 409.598258 39.193997 L 413.135217 41.051268 L 416.596027 43.056959 L 419.845214 45.389633 L 423.010641 47.827963 L 426.011636 50.472586 L 428.836482 53.298585 L 431.567700 56.220989 L 434.010540 59.386537 L 436.429377 62.572322 L 438.848214 65.758107 L 441.209033 68.983763 L 443.316098 72.383804 L 445.345443 75.826578 L 447.087581 79.427266 L 448.829719 83.027954 L 450.571857 86.628642 L 452.172997 90.286461 L 453.428673 94.084261 L 454.684348 97.882060 L 455.940023 101.679859 L 457.033394 105.523051 L 457.930104 109.421244 L 458.618042 113.357070 L 459.138887 117.323015 L 459.659732 121.288960 L 460.180577 125.254905 L 460.266345 129.253689 L 460.346681 133.252882 L 460.427017 137.252075 L 460.181988 141.242243 L 459.502379 145.165017 L 458.437399 149.020639 L 457.304777 152.850763 L 455.552015 156.445648 L 453.343841 159.780909 L 450.616677 162.706312 L 447.468212 165.172502 L 443.917135 167.011902 L 440.123135 168.274287 L 436.181895 168.935926 L 432.189442 168.975293 L 428.189927 168.913017 L 424.265995 168.301157 L 420.398153 167.281452 L 416.530311 166.261747 L 412.811127 164.798944 L 409.160450 163.171722 L 405.596629 161.355357 L 402.179305 159.282932 L 398.826139 157.105067 L 395.711942 154.594733 L 392.597745 152.084399 L 389.483549 149.574064 L 386.472668 146.947031 L 383.603383 144.160060 L 380.806461 141.302998 L 378.112360 138.346341 L 375.488484 135.329881 L 372.998644 132.199274 L 370.564137 129.028521 L 368.360517 125.690249 L 366.165963 122.346473 L 364.220618 118.851386 L 362.275273 115.356299 L 360.515527 111.765128 L 358.784603 108.159035 L 357.291556 104.451355 L 355.883556 100.707355 L 354.475556 96.963355 L 353.067555 93.219356 L 351.931079 89.386865 L 350.894119 85.524980 L 350.175942 81.589981 L 349.658476 77.628539 L 349.357118 73.641061 L 349.437215 69.641863 L 349.517313 65.642665 L 349.811480 61.666643 L 350.589144 57.742966 L 351.847626 53.947092 L 353.120798 50.155122 L 354.581221 46.439590 L 356.325378 42.839879 L 358.069535 39.240168 L 360.316572 35.935213 L 362.605194 32.654633 L 365.268585 29.698074 L 368.380014 27.205252 L 371.835488 25.222727 L 375.559915 23.793163 L 379.460158 22.937514 L 383.458129 22.810127 L 387.456100 22.682739 L 391.391451 23.230408 L 395.251813 24.256196 L 399.030002 25.563287 L 402.578739 27.408948 L 406.127476 29.254609 L 409.659098 31.128589 L 412.943024 33.412408 L 416.137528 35.814793 L 419.235978 38.344538 L 422.125798 41.107701 L 424.916258 43.969460 L 427.526582 47.000336 L 429.905222 50.209109 L 432.159365 53.513475 L 434.413509 56.817841 L 436.582627 60.174601 L 438.520830 63.673654 L 440.323269 67.240316 L 441.947822 70.895562 L 443.572375 74.550809 L 445.196928 78.206055 L 446.607144 81.942646 L 447.816777 85.755360 L 449.026409 89.568074 L 450.236042 93.380788 L 451.276989 97.239495 L 452.170020 101.138533 L 452.883494 105.071026 L 453.454597 109.030047 L 454.025700 112.989067 L 454.596802 116.948087 L 455.167905 120.907107 L 455.739008 124.866128 L 456.079558 128.848083 L 456.299610 132.842026 L 456.519661 136.835968 L 456.715182 140.830303 L 456.622720 144.829234 L 456.530257 148.828165 L 456.430786 152.826447 L 455.787173 156.774328 L 454.818406 160.647251 L 453.668716 164.478467 L 452.393750 168.261968 L 450.570792 171.805717 L 448.098588 174.950269 L 445.401802 177.858871 L 442.001602 179.938830 L 438.251045 181.274561 L 434.297060 181.733148 L 430.300882 181.907982 L 426.354039 181.387296 L 422.520502 180.281595 L 418.741808 178.969547 L 414.963114 177.657498 L 411.332627 175.981259 L 407.771314 174.167368 L 404.306106 172.169287 L 400.977768 169.957147 L 397.710078 167.650158 L 394.442387 165.343168 L 391.191130 163.014899 L 388.132868 160.436715 L 385.074607 157.858530 L 382.016345 155.280345 L 378.975294 152.683121 L 376.102334 149.899939 L 373.229375 147.116757 L 370.507024 144.186183 L 367.786503 141.253817 L 365.284335 138.135040 L 362.814979 134.988251 L 360.345623 131.841462 L 357.876267 128.694674 L 355.579769 125.425318 L 353.427295 122.053841 L 351.274822 118.682364 L 349.122349 115.310886 L 347.046819 111.895087 L 345.210283 108.341619 L 343.429747 104.761865 L 341.869443 101.078734 L 340.402658 97.360729 L 339.170413 93.555263 L 338.111672 89.701409 L 337.196622 85.807479 L 336.716702 81.837301 L 336.560902 77.850593 L 336.670698 73.852100 L 336.780495 69.853608 L 337.810716 65.993832 L 339.210531 62.252860 L 341.030249 58.707296 L 343.164787 55.324435 L 345.301922 51.943551 L 347.993531 48.984624 L 350.685139 46.025698 L 353.561549 43.262594 L 356.671242 40.746681 L 359.780934 38.230769 L 363.198773 36.163430 L 366.810885 34.466829 L 370.572609 33.133397 L 374.459929 32.190664 L 378.449544 31.961536 L 382.445157 31.774240 L 386.440092 31.612585 L 390.420241 32.010597 L 394.352225 32.688251 L 398.236180 33.644750 L 402.018629 34.938829 L 405.767792 36.328145 L 409.412535 37.976128 L 412.998271 39.739693 L 416.470716 41.725171 L 419.834961 43.879959 L 423.095364 46.197237 L 426.225358 48.683247 L 429.289712 51.254187 L 432.063075 54.130991 L 434.783443 57.063498 L 437.503811 59.996005 L 440.205461 62.944182 L 442.613747 66.137950 L 444.991756 69.352101 L 447.044532 72.785192 L 449.097307 76.218283 L 451.150083 79.651373 L 453.173273 83.100130 L 454.858991 86.727574 L 456.516453 90.366572 L 457.855068 94.135937 L 459.193683 97.905301 L 460.532298 101.674666 L 461.801817 105.464055 L 462.686131 109.365079 L 463.570444 113.266103 L 464.454758 117.167127 L 465.270481 121.081035 L 465.862031 125.037052 L 466.386552 129.001277 L 466.767016 132.983142 L 467.000297 136.973570 L 467.084193 140.972690 L 467.168089 144.971810 L 467.194310 148.968598 L 466.787744 152.947882 L 466.130615 156.887333 L 465.256869 160.789680 L 464.088419 164.615216 L 462.655345 168.344694 L 460.937660 171.949429 L 458.893060 175.383641 L 456.483428 178.576394 L 453.546619 181.286353 L 450.295620 183.605268 L 446.751551 185.427407 L 443.007074 186.812867 L 439.142505 187.818980 L 435.189258 188.418925 L 431.191777 188.277003 L 427.194295 188.135082 L 423.238669 187.696648 L 419.358100 186.726501 L 415.566900 185.461848 L 411.809631 184.092199 L 408.177062 182.417553 L 404.568327 180.696050 L 401.075653 178.746375 L 397.620349 176.736363 L 394.318842 174.478034 L 391.039592 172.189480 L 387.903115 169.707039 L 384.766639 167.224598 L 381.803522 164.538221 L 378.848425 161.842408 L 376.025540 159.010692 L 373.249382 156.130945 L 370.562953 153.170227 L 367.982504 150.113876 L 365.449927 147.019810 L 363.082380 143.795725 L 360.714833 140.571640 L 358.347287 137.347555 L 355.979740 134.123471 L 353.828008 130.753706 L 351.723176 127.352282 L 349.618344 123.950858 L 347.513513 120.549435 L 345.587750 117.046611 L 343.753590 113.491915 L 342.187713 109.815710 L 340.725578 106.092517 L 339.263444 102.369325 L 337.853843 98.628822 L 336.816150 94.765767 L 335.977602 90.861009 L 335.378154 86.906181 L 334.778706 82.951353 L 334.399352 78.980535 L 334.420856 74.980593 L 334.442361 70.980651 L 334.762713 67.008798 L 335.486943 63.074908 L 336.860257 59.318647 L 338.240039 55.564157 L 339.808408 51.905049 L 342.015004 48.568744 L 344.221601 45.232439 L 346.727896 42.134730 L 349.574210 39.336533 L 352.761225 36.919317 L 355.948240 34.502100 L 359.367088 32.459994 L 363.001952 30.802280 L 366.764811 29.445484 L 370.673746 28.602913 L 374.628981 28.052783 L 378.615123 27.744760 L 382.615123 27.744760 L 386.599310 28.026773 L 390.570458 28.495680 L 394.463118 29.416112 L 398.315529 30.477739 L 402.108417 31.748173 L 405.813569 33.246632 L 409.479816 34.846204 L 409.824800 34.996720" fill="none" id="41" stroke="black" stroke-width="0.5" /><path d="M 465.289370 129.366800 L 465.481339 133.362190 L 465.664575 137.357695 L 465.576588 141.356727 L 465.488600 145.355759 L 465.400613 149.354791 L 465.086678 153.334615 L 464.498354 157.291113 L 463.539400 161.171093 L 462.512741 165.037095 L 461.486081 168.903097 L 459.909002 172.573942 L 458.037028 176.102119 L 455.773513 179.381659 L 453.025979 182.271257 L 449.840843 184.669438 L 446.262911 186.453635 L 442.439365 187.628579 L 441.856300 187.807750" fill="none" id="42" stroke="black" stroke-width="0.5" /><path d="M 301.478340 122.988850 L 300.854489 119.037798 L 300.328182 115.077996 L 300.238869 111.078993 L 300.149556 107.079990 L 300.060242 103.080988 L 300.390511 99.106280 L 300.940789 95.144311 L 301.889414 91.259805 L 302.951105 87.406356 L 304.262977 83.627600 L 305.775661 79.928835 L 307.421248 76.283010 L 309.510363 72.874422 L 311.629505 69.481895 L 313.748647 66.089369 L 316.073556 62.840276 L 318.523395 59.678270 L 321.293210 56.793589 L 324.167062 54.017520 L 327.215814 51.428097 L 330.472700 49.112888 L 333.856353 46.993693 L 337.454619 45.246558 L 341.169591 43.774813 L 344.954549 42.493224 L 348.838778 41.537833 L 352.775472 40.851476 L 356.744614 40.399253 L 360.742960 40.284235 L 364.741306 40.169217 L 368.729351 40.283639 L 372.701304 40.756490 L 376.627108 41.516603 L 380.508072 42.458952 L 384.304463 43.718878 L 388.100854 44.978804 L 391.897245 46.238731 L 395.549301 47.870363 L 399.151188 49.601404 L 402.631215 51.573564 L 406.111242 53.545724 L 409.591268 55.517884 L 412.922232 57.723642 L 416.176876 60.049000 L 419.201010 62.661544 L 422.175466 65.335981 L 425.149922 68.010418 L 428.074498 70.734135 L 430.712757 73.740726 L 433.351016 76.747316 L 435.989276 79.753907 L 438.547979 82.826537 L 441.017472 85.973217 L 443.486966 89.119898 L 445.956460 92.266579 L 448.229040 95.555840 L 450.447841 98.884041 L 452.666642 102.212242 L 454.836755 105.570184 L 456.784963 109.063676 L 458.637778 112.606263 L 460.348454 116.222005 L 462.059129 119.837747 L 463.769804 123.453489 L 465.114553 127.219773 L 466.443516 130.992552 L 467.772479 134.765330 L 468.857109 138.612780 L 469.749906 142.506856 L 470.314011 146.466879 L 470.878115 150.426902 L 471.179130 154.405570 L 471.179130 158.405570 L 471.179130 162.405570 L 470.509883 166.341783 L 469.261791 170.125508 L 467.778641 173.840379 L 465.951708 177.369774 L 463.500261 180.518797 L 460.635448 183.294737 L 457.369749 185.576941 L 453.776910 187.335210 L 450.184072 189.093479 L 446.274762 189.928196 L 442.358630 190.743006 L 438.401785 191.170752 L 434.401825 191.188607 L 430.401865 191.206462 L 426.460048 190.586782 L 422.590485 189.615494 L 418.810541 188.307050 L 415.030597 186.998607 L 411.278482 185.622784 L 407.676859 183.882579 L 404.126061 182.047119 L 400.675206 180.024348 L 397.298609 177.885203 L 394.010266 175.607748 L 390.843342 173.173892 L 387.821786 170.552785 L 384.800231 167.931678 L 381.778675 165.310571 L 378.791370 162.653610 L 376.034827 159.755081 L 373.278283 156.856552 L 370.690132 153.808129 L 368.130426 150.734384 L 365.664782 147.586185 L 363.260873 144.389121 L 360.942577 141.132538 L 358.783136 137.765519 L 356.623696 134.398500 L 354.464255 131.031481 L 352.304815 127.664462 L 350.362532 124.168507 L 348.440092 120.660768 L 346.805474 117.015413 L 345.282286 113.316778 L 343.759098 109.618143 L 342.235910 105.919509 L 340.956241 102.137069 L 339.880697 98.284381 L 339.050925 94.377213 L 338.397683 90.430914 L 337.744442 86.484615 L 337.125763 82.535047 L 337.027391 78.536256 L 336.929020 74.537466 L 336.830649 70.538676 L 337.044152 66.546353 L 337.461014 62.574783 L 338.218160 58.647096 L 339.294366 54.797830 L 340.613739 51.028488 L 342.200347 47.356611 L 344.236950 43.913958 L 346.516979 40.634294 L 349.068557 37.564132 L 351.902095 34.743663 L 355.004941 32.219312 L 358.434620 30.170546 L 362.080152 28.542722 L 365.898345 27.390737 L 369.835308 26.790161 L 373.832729 26.646539 L 377.830149 26.502916 L 381.803770 26.865470 L 385.732709 27.570167 L 389.592702 28.619194 L 393.452694 29.668221 L 397.231123 30.951643 L 400.908508 32.525441 L 404.585893 34.099239 L 408.170494 35.857248 L 411.624153 37.875227 L 415.077812 39.893206 L 418.438013 42.046896 L 421.554975 44.553797 L 424.671937 47.060697 L 427.729018 49.634265 L 430.554922 52.465213 L 433.204702 55.456450 L 435.757701 58.535768 L 438.310700 61.615085 L 440.775025 64.761969 L 443.066511 68.040550 L 445.258173 71.384952 L 447.368901 74.782720 L 449.280448 78.293458 L 451.113323 81.848815 L 452.946199 85.404173 L 454.779074 88.959530 L 456.365567 92.630771 L 457.932507 96.310963 L 459.226682 100.095816 L 460.520856 103.880669 L 461.815030 107.665522 L 463.074718 111.460946 L 464.123720 115.320945 L 465.115943 119.194362 L 465.905774 123.115608 L 466.695604 127.036854 L 467.485435 130.958099 L 468.034435 134.914137 L 468.386703 138.898595 L 468.738972 142.883053 L 468.979702 146.870922 L 468.871560 150.869460 L 468.763419 154.867998 L 468.456004 158.845928 L 467.741700 162.781492 L 466.479688 166.577190 L 465.217676 170.372888 L 463.441960 173.920971 L 461.258788 177.272651 L 458.766370 180.362967 L 455.667752 182.871098 L 452.207702 184.854426 L 448.493308 186.317259 L 444.625853 187.323854 L 440.661345 187.855523 L 436.664702 187.860529 L 432.664963 187.814800 L 428.700322 187.481732 L 424.807168 186.563388 L 420.914015 185.645043 L 417.062304 184.587112 L 413.298755 183.232232 L 409.594092 181.728431 L 405.921694 180.143030 L 402.431763 178.193810 L 398.964880 176.198635 L 395.497998 174.203460 L 392.089183 172.120204 L 388.889183 169.720204 L 385.689183 167.320204 L 382.489183 164.920204 L 379.336196 162.462707 L 376.348433 159.803145 L 373.382314 157.120659 L 370.555766 154.290354 L 367.737931 151.451980 L 365.132602 148.416810 L 362.527273 145.381639 L 359.921944 142.346468 L 357.316615 139.311298 L 354.931078 136.102750 L 352.586020 132.862271 L 350.240962 129.621792 L 347.895904 126.381313 L 345.742464 123.014351 L 343.684479 119.584380 L 341.842171 116.039481 L 340.142809 112.418408 L 338.626304 108.720313 L 337.222704 104.974661 L 336.058070 101.151693 L 335.001571 97.293739 L 334.292097 93.359559 L 333.729945 89.404103 L 333.565347 85.407491 L 333.400749 81.410879 L 333.306689 77.416082 L 333.676679 73.433231 L 334.556181 69.547013 L 335.670204 65.705275 L 336.784227 61.863536 L 338.375254 58.202388 L 340.216604 54.656928 L 342.288344 51.235247 L 344.685849 48.035066 L 347.269809 44.989138 L 350.028434 42.093576 L 352.999955 39.415879 L 356.189985 37.017496 L 359.504198 34.777856 L 362.818411 32.538215 L 366.401926 30.775613 L 370.123102 29.336686 L 373.957013 28.196016 L 377.790924 27.055347 L 381.686279 26.203112 L 385.652216 25.682206 L 389.618153 25.161300 L 393.595491 24.803131 L 397.595318 24.766004 L 401.595146 24.728876 L 405.585383 24.806340 L 409.523397 25.507800 L 413.461411 26.209261 L 417.399425 26.910722 L 421.204252 28.139407 L 424.951665 29.525914 L 428.612632 31.137536 L 432.120988 33.050890 L 435.552806 35.100010 L 438.788537 37.451614 L 442.024269 39.803219 L 445.260000 42.154823 L 448.297596 44.749184 L 451.249835 47.448126 L 453.987842 50.362333 L 456.670244 53.327598 L 459.126900 56.484312 L 461.497096 59.702114 L 463.651888 63.072110 L 465.674003 66.518277 L 467.497814 70.078293 L 469.321626 73.638308 L 471.145437 77.198324 L 472.823174 80.825056 L 474.319592 84.534603 L 475.696841 88.287372 L 476.926455 92.093689 L 478.156070 95.900006 L 479.385684 99.706323 L 480.474187 103.551604 L 481.371896 107.449567 L 482.107907 111.376629 L 482.625437 115.343008 L 483.142967 119.309387 L 483.660497 123.275766 L 483.955041 127.259352 L 484.052144 131.258173 L 484.149246 135.256994 L 484.246349 139.255815 L 484.064246 143.251287 L 483.725308 147.231429 L 483.090867 151.180794 L 482.133553 155.061902 L 480.983569 158.889581 L 479.621167 162.648681 L 477.879741 166.249713 L 475.782796 169.650099 L 473.357870 172.821408 L 470.580717 175.684904 L 467.420142 178.112483 L 463.918007 180.029207 L 460.190133 181.457789 L 456.281305 182.306943 L 452.302516 182.712219 L 448.308015 182.823500 L 444.320492 182.633435 L 440.354824 182.110487 L 436.468409 181.172497 L 432.663419 179.971424 L 428.962808 178.453043 L 425.262197 176.934662 L 421.578189 175.382406 L 418.111004 173.387757 L 414.643818 171.393108 L 411.176633 169.398459 L 407.749632 167.340637 L 404.473433 165.045748 L 401.233402 162.703690 L 398.167092 160.135083 L 395.100782 157.566476 L 392.034471 154.997870 L 388.980020 152.416479 L 386.188709 149.551416 L 383.397399 146.686353 L 380.606088 143.821290 L 377.814778 140.956227 L 375.252547 137.886691 L 372.721711 134.789133 L 370.378424 131.548873 L 368.067989 128.283618 L 366.010516 124.855722 L 363.998728 121.398453 L 362.235435 117.809887 L 360.513017 114.199725 L 358.790598 110.589562 L 357.068179 106.979400 L 355.652064 103.243028 L 354.331249 99.467390 L 353.010434 95.691751 L 351.689619 91.916112 L 350.612972 88.069575 L 349.706244 84.173700 L 349.002938 80.240639 L 348.472749 76.275932 L 348.210063 72.292874 L 348.193853 68.292907 L 348.177643 64.292940 L 348.161433 60.292973 L 348.642399 56.340117 L 349.409640 52.414389 L 350.537198 48.581478 L 351.768208 44.776039 L 353.459748 41.151305 L 355.263098 37.585673 L 357.305476 34.146386 L 359.653504 30.917905 L 362.167133 27.808414 L 364.973086 24.957690 L 367.949150 22.297558 L 371.099170 19.832324 L 374.511157 17.751429 L 378.007472 15.819440 L 381.680350 14.235153 L 383.273620 13.547900" fill="none" id="43" stroke="black" stroke-width="0.5" /><path d="M 12.974410 163.902240 L 12.837733 167.899904 L 12.905100 171.891070 L 13.473154 175.844908 L 14.286407 179.761363 L 15.472043 183.580542 L 16.678127 187.394381 L 17.903035 191.201191 L 19.491254 194.872371 L 21.079473 198.543551 L 22.667691 202.214731 L 24.255910 205.885911 L 25.844129 209.557091 L 27.432347 213.228270 L 29.020566 216.899450 L 30.690265 220.533404 L 32.425793 224.137283 L 34.161322 227.741161 L 36.063705 231.259170 L 37.987686 234.766062 L 39.972402 238.235707 L 42.225930 241.540493 L 44.479458 244.845280 L 46.732986 248.150066 L 49.030474 251.420891 L 51.659149 254.435865 L 54.287824 257.450839 L 56.916500 260.465813 L 59.545175 263.480786 L 62.174172 266.495445 L 65.129595 269.190900 L 68.085018 271.886354 L 71.040441 274.581809 L 74.166579 277.064967 L 77.433466 279.373093 L 80.700354 281.681219 L 83.967241 283.989346 L 87.234128 286.297472 L 87.588580 286.547900" fill="none" id="44" stroke="black" stroke-width="0.5" /><path d="M 126.895670 284.587270 L 124.553610 287.421920 L 128.406318 286.649519 L 132.125615 285.177502 L 135.844911 283.705485 L 139.453323 282.017025 L 142.820873 279.858413 L 146.188423 277.699802 L 149.555974 275.541190 L 152.923524 273.382578 L 156.291075 271.223966 L 159.531033 268.879272 L 162.758268 266.516021 L 164.596450 265.169950" fill="none" id="45" stroke="black" stroke-width="0.5" /><path d="M 537.824800 199.784130 L 537.282113 195.821114 L 537.574229 191.841810 L 539.069489 188.165544 L 541.280534 184.862372 L 543.898589 181.851062 L 547.061243 179.423481 L 550.414094 177.242107 L 554.020239 175.514573 L 557.721388 174.027560 L 561.558166 172.896571 L 565.497824 172.281242 L 569.474864 171.853276 L 573.472253 171.881273 L 577.471605 171.953260 L 581.405448 172.660583 L 585.335345 173.406176 L 589.110429 174.716557 L 592.871229 176.079049 L 596.632028 177.441542 L 600.173681 179.296714 L 603.435103 181.612342 L 606.202750 183.579400" fill="none" id="46" stroke="black" stroke-width="0.5" /><path d="M 541.667320 213.012470 L 538.644887 210.392374 L 535.854315 207.553818 L 533.418568 204.380943 L 531.816351 200.726694 L 530.866587 196.871795 L 531.079519 192.877794 L 532.660725 189.259620 L 534.915387 185.984636 L 537.516568 182.947841 L 540.606331 180.420122 L 543.999322 178.301724 L 547.520947 176.433248 L 551.216709 174.903102 L 555.000578 173.630468 L 558.859066 172.575922 L 562.772929 171.776544 L 566.752794 171.484073 L 570.752037 171.406255 L 574.751280 171.328437 L 578.733769 171.466065 L 582.672904 172.161206 L 586.612038 172.856347 L 590.469530 173.912390 L 594.324321 174.980372 L 598.048397 176.424682 L 601.735228 177.976223 L 605.422059 179.527763 L 608.862374 181.539932 L 612.198452 183.746872 L 615.146515 186.438907 L 617.880320 189.342542 L 619.763348 192.845077 L 620.712687 196.656916 L 620.833451 200.655093 L 620.168728 204.549381 L 618.083600 207.939861 L 615.531062 211.019560 L 612.418756 213.513412 L 609.120847 215.759625 L 605.499621 217.438638 L 601.765864 218.873581 L 598.032107 220.308524 L 594.160600 221.278062 L 590.247325 222.106480 L 586.279054 222.566599 L 582.294477 222.917512 L 578.299441 223.051468 L 574.299585 223.085431 L 570.326309 222.742968 L 566.370915 222.147272 L 562.501479 221.179656 L 558.685836 219.979295 L 554.870193 218.778933 L 551.268540 217.049301 L 547.690830 215.260448 L 544.267420 213.234766 L 541.185590 210.684800 L 538.681290 207.603059 L 536.733335 204.155493 L 535.556291 200.334249 L 535.478264 196.335010 L 536.544593 192.546106 L 538.616160 189.124321 L 541.283331 186.150818 L 544.155932 183.381259 L 547.403177 181.055530 L 550.761814 178.883076 L 554.321439 177.070837 L 557.934057 175.353575 L 561.704126 174.021506 L 565.601673 173.122684 L 569.500032 172.226694 L 573.474390 171.776933 L 577.472265 171.695239 L 581.471908 171.641858 L 585.429816 172.114894 L 589.371079 172.797860 L 593.230141 173.798213 L 597.007426 175.114314 L 600.717672 176.592371 L 604.222774 178.502870 L 607.567686 180.696398 L 610.669810 183.192188 L 613.533112 185.985306 L 614.045270 186.484910" fill="none" id="47" stroke="black" stroke-width="0.5" /><path d="M 294.549210 338.232940 L 292.601407 337.746661 L 295.585893 340.409901 L 298.570378 343.073141 L 301.781909 345.454690 L 305.018230 347.805482 L 308.254552 350.156274 L 311.490873 352.507066 L 314.727195 354.857858 L 317.963516 357.208650 L 321.199838 359.559442 L 324.436159 361.910234 L 327.672481 364.261026 L 330.908802 366.611818 L 334.145124 368.962610 L 337.446152 371.220833 L 340.765664 373.452613 L 344.098010 375.664247 L 347.523481 377.729714 L 350.948951 379.795181 L 354.374421 381.860648 L 357.799892 383.926114 L 361.113465 386.166162 L 364.420746 388.416027 L 367.728026 390.665893 L 371.060477 392.875565 L 374.528588 394.868604 L 377.996699 396.861643 L 381.464810 398.854683 L 384.932921 400.847722 L 388.585082 402.477122 L 392.244753 404.091683 L 395.814300 405.889662 L 399.381007 407.689994 L 403.079549 409.213408 L 406.778091 410.736821 L 410.476632 412.260235 L 414.175174 413.783648 L 415.935040 414.508530" fill="none" id="48" stroke="black" stroke-width="0.5" /><path d="M 407.116140 413.114830 L 408.409898 414.517106 L 411.267739 417.248053 L 414.388589 419.750111 L 418.082521 421.284254 L 421.777030 422.817422 L 425.475698 424.339433 L 429.272191 425.599053 L 433.068684 426.858673 L 436.972455 427.705861 L 440.901532 428.455763 L 444.846492 429.111921 L 448.803306 429.698116 L 452.760120 430.284310 L 456.716934 430.870505 L 460.673748 431.456700 L 464.630562 432.042894 L 468.587375 432.629089 L 472.560545 433.063487 L 476.551412 433.333643 L 480.542278 433.603799 L 484.533145 433.873954 L 488.524011 434.144110 L 492.514878 434.414265 L 496.514335 434.374907 L 500.514042 434.326524 L 504.505339 434.113327 L 508.489193 433.754293 L 512.473047 433.395260 L 516.456902 433.036226 L 520.421232 432.516678 L 524.374990 431.910216 L 528.328748 431.303753 L 532.282506 430.697291 L 536.236264 430.090829 L 540.190022 429.484367 L 544.143781 428.877905 L 548.061489 428.072074 L 551.977270 427.255582 L 555.893051 426.439090 L 559.794169 425.562923 L 563.642410 424.471578 L 567.490652 423.380233 L 571.338894 422.288887 L 575.187136 421.197542 L 579.035378 420.106197 L 582.883620 419.014852 L 586.731862 417.923507 L 590.580104 416.832161 L 592.942910 416.162080" fill="none" id="49" stroke="black" stroke-width="0.5" /><path d="M 745.761810 317.776250 L 744.590402 320.088989 L 743.406394 323.909738 L 741.741248 327.536306 L 739.941541 331.108568 L 737.751522 334.445495 L 735.302221 337.602878 L 732.700900 340.641485 L 729.996203 343.582180 L 727.103238 346.344563 L 724.209592 349.106162 L 721.076885 351.593359 L 717.944178 354.080556 L 714.698641 356.407666 L 711.302949 358.521732 L 707.800270 360.441503 L 704.198169 362.180717 L 702.328740 363.083340" fill="none" id="50" stroke="black" stroke-width="0.5" /><path d="M 128.753930 286.193570 L 131.841130 285.268042 L 135.776202 284.614699 L 139.551980 283.294283 L 143.327759 281.973867 L 147.067962 280.563105 L 150.730316 278.954639 L 154.392670 277.346173 L 158.000325 275.624141 L 161.541088 273.763228 L 164.722440 272.091210" fill="none" id="51" stroke="black" stroke-width="0.5" /><path d="M 174.801180 226.382550 L 174.801180 230.382550 L 174.533683 234.356488 L 173.706724 238.268826 L 172.710715 242.142837 L 171.714706 246.016849 L 170.543437 249.837560 L 169.213929 253.610146 L 167.884421 257.382733 L 166.554914 261.155319 L 164.796426 264.740714 L 162.934808 268.281107 L 160.790773 271.636170 L 158.267657 274.738320 L 155.387210 277.513752 L 153.856300 278.988850" fill="none" id="52" stroke="black" stroke-width="0.5" /><path d="M 131.336610 290.799870 L 127.749567 290.807456 L 123.863634 289.859024 L 119.977700 288.910592 L 116.152503 287.743486 L 112.334065 286.552048 L 108.581040 285.173320 L 104.851145 283.728369 L 101.251654 281.996296 L 97.709315 280.138383 L 94.166977 278.280470 L 90.624639 276.422558 L 87.272138 274.248833 L 83.969497 271.992162 L 80.666857 269.735491 L 77.364216 267.478820 L 74.255894 264.965590 L 71.188863 262.397844 L 68.121832 259.830098 L 65.054800 257.262352 L 62.081813 254.591544 L 59.244728 251.771801 L 56.407643 248.952058 L 53.570559 246.132315 L 50.733474 243.312572 L 48.227901 240.199310 L 45.772548 237.041582 L 43.317195 233.883855 L 40.861842 230.726128 L 38.757742 227.328361 L 36.707873 223.893534 L 34.816549 220.374770 L 33.478340 217.500660" fill="none" id="53" stroke="black" stroke-width="0.5" /></svg>