<?xml version="1.0" encoding="utf-8" ?>
<svg baseProfile="full" height="816.5" version="1.1" viewBox="0,0,886.5,816.5" width="886.5" xmlns="http://www.w3.org/2000/svg" xmlns:ev="http://www.w3.org/2001/xml-events" xmlns:xlink="http://www.w3.org/1999/xlink"><defs><style type="text/css"><![CDATA[
	.background { fill: white; }
	.line { stroke: firebrick; stroke-width: .1mm; }
	.blacksquare { fill: indigo; }
	.whitesquare { fill: white; }
]]></style></defs><rect class="background" height="100%" width="100%" x="0" y="0" /><path d="M 882.697947 432.955681 L 882.692604 436.955678 L 882.687261 440.955674 L 882.681918 444.955671 L 882.676575 448.955667 L 882.671232 452.955663 L 882.649319 456.955315 L 882.488078 460.952064 L 882.326837 464.948812 L 882.165596 468.945561 L 882.004355 472.942310 L 881.843114 476.939059 L 881.681872 480.935808 L 881.520631 484.932557 L 881.359390 488.929305 L 881.198149 492.926054 L 881.036908 496.922803 L 880.875667 500.919552 L 880.771053 504.917546 L 880.756462 508.917519 L 880.741871 512.917493 L 880.727279 516.917466 L 880.712688 520.917439 L 880.698097 524.917413 L 880.683505 528.917386 L 880.668914 532.917360 L 880.654323 536.917333 L 880.766614 540.915093 L 880.920701 544.912124 L 881.074787 548.909155 L 881.228873 552.906186 L 881.382960 556.903217 L 881.537046 560.900249 L 881.691133 564.897280 L 881.845219 568.894311 L 881.999305 572.891342 L 882.182779 576.886930 L 882.420932 580.879834 L 882.659085 584.872738 L 882.897238 588.865642 L 883.135391 592.858547 L 883.373544 596.851451 L 883.611697 600.844355 L 883.849849 604.837259 L 884.088002 608.830163 L 884.326155 612.823067 L 884.564308 616.815971 L 884.802461 620.808875 L 885.040614 624.801779 L 885.278767 628.794683 L 885.516920 632.787588 L 885.755073 636.780492 L 885.993226 640.773396 L 886.005037 640.971431" fill="none" id="1" stroke="black" stroke-width="0.5" /><path d="M 456.272757 610.947811 L 460.001736 612.008691 L 463.445921 614.042798 L 466.890105 616.076906 L 470.464811 617.850223 L 474.157420 619.387960 L 477.850029 620.925698 L 481.628163 622.201771 L 485.516155 623.141725 L 489.426130 623.946891 L 493.411307 624.290937 L 497.396912 624.624242 L 501.396831 624.598818 L 505.396750 624.573393 L 509.389464 624.436156 L 513.359559 623.947957 L 517.329655 623.459758 L 521.299751 622.971558 L 525.269847 622.483359 L 529.239943 621.995160 L 533.180925 621.314681 L 537.117585 620.605662 L 541.015806 619.719505 L 544.892269 618.733081 L 548.734831 617.633034 L 552.518049 616.334088 L 556.301268 615.035142 L 557.060157 614.774581" fill="none" id="2" stroke="black" stroke-width="0.5" /><path d="M 834.508977 466.380881 L 837.983110 468.363406 L 841.520233 470.220593 L 845.184168 471.825456 L 848.848102 473.430318 L 852.461566 475.132654 L 855.886806 477.198503 L 859.310148 479.266951 L 862.320454 481.900970 L 864.493127 485.159799 L 864.839687 489.131116 L 863.646771 492.888785 L 861.381671 496.179004 L 858.892351 499.299421 L 856.047395 502.098686 L 852.947608 504.626792 L 849.728584 506.991789 L 846.379068 509.178280 L 842.788272 510.937431 L 839.185883 512.676049 L 835.800317 514.310021" fill="none" id="3" stroke="black" stroke-width="0.5" /><path d="M 234.855427 430.829701 L 230.977839 431.811692 L 227.370249 433.485228 L 223.853081 435.390361 L 220.639566 437.757605 L 217.710464 440.450736 L 216.753636 444.232109 L 218.127015 447.967384 L 220.432544 451.223988 L 223.059558 454.235584 L 226.122806 456.798611 L 229.538569 458.880093 L 232.954331 460.961575 L 236.563897 462.668603 L 240.235696 464.255391 L 242.257007 465.128911" fill="none" id="4" stroke="black" stroke-width="0.5" /><path d="M 526.981417 361.357261 L 530.573768 359.597996 L 534.190106 357.905715 L 538.082631 356.984713 L 542.031179 356.376618 L 546.001454 355.889877 L 549.971729 355.403135 L 553.942004 354.916393 L 557.927495 354.610750 L 561.923326 354.428167 L 565.919156 354.245584 L 569.914987 354.063002 L 573.913642 354.102799 L 577.912820 354.183866 L 581.876900 354.677934 L 585.832406 355.272890 L 589.787912 355.867846 L 593.654699 356.882115 L 597.492632 357.998867 L 601.211991 359.470726 L 603.233387 360.270651" fill="none" id="5" stroke="black" stroke-width="0.5" /><path d="M 836.209757 499.546241 L 836.597456 503.374237 L 836.441605 507.369874 L 836.204578 511.362845 L 835.967552 515.355816 L 835.754304 519.349760 L 835.664464 523.348751 L 835.574625 527.347742 L 835.484785 531.346733 L 835.394946 535.345724 L 835.305106 539.344714 L 835.215266 543.343705 L 835.143013 547.342834 L 835.170463 551.342739 L 835.197913 555.342645 L 835.225363 559.342551 L 835.252813 563.342457 L 835.280263 567.342363 L 835.307713 571.342268 L 835.335163 575.342174 L 835.394534 579.340782 L 835.691916 583.329712 L 835.989299 587.318643 L 836.286681 591.307573 L 836.584063 595.296503 L 836.881445 599.285433 L 837.178828 603.274363 L 837.476210 607.263293 L 837.773592 611.252223 L 838.261397 615.221599 L 838.780924 619.187717 L 839.300451 623.153835 L 839.819977 627.119953 L 840.339504 631.086071 L 840.859031 635.052189 L 841.378558 639.018307 L 841.898085 642.984425 L 842.417611 646.950543 L 842.811512 650.930253 L 843.152312 654.915709 L 843.493111 658.901164 L 843.833911 662.886620 L 844.174710 666.872075 L 844.272757 668.018681" fill="none" id="6" stroke="black" stroke-width="0.5" /><path d="M 471.044407 727.664351 L 471.293570 731.656583 L 472.015899 735.572069 L 473.041372 739.438386 L 474.066846 743.304702 L 475.186565 747.139652 L 476.682578 750.849362 L 478.178590 754.559071 L 480.106773 758.058436 L 482.103346 761.524514 L 484.717353 764.483308 L 487.780905 767.035964 L 491.417475 768.701906 L 495.180695 769.993547 L 499.081672 770.878069 L 502.987179 771.730257 L 506.981046 771.951659 L 510.036537 772.121041" fill="none" id="7" stroke="black" stroke-width="0.5" /><path d="M 566.414487 731.420251 L 565.363589 735.255564 L 565.212789 739.247622 L 565.205482 743.247615 L 565.198175 747.247608 L 565.190868 751.247602 L 564.875154 755.212876 L 563.839194 759.069235 L 562.284688 762.739804 L 560.248766 766.182916 L 557.738145 769.272978 L 554.521864 771.589723 L 550.947792 773.385832 L 547.260309 774.914247 L 543.380425 775.855809 L 539.459908 776.649247 L 535.485201 776.963560 L 532.713697 777.034421" fill="none" id="8" stroke="black" stroke-width="0.5" /><path d="M 481.532597 763.617101 L 484.707776 766.033849 L 487.641609 768.752787 L 490.907850 771.026511 L 494.348365 773.066818 L 497.916691 774.864875 L 501.572034 776.480417 L 505.362677 777.757535 L 509.160088 779.008990 L 513.087476 779.767690 L 517.080638 779.995808 L 521.074403 780.219062 L 525.070137 780.286247 L 529.025841 779.761608 L 532.961536 779.047251 L 536.771250 777.836708 L 540.571034 776.587049 L 544.370817 775.337390 L 547.993253 773.654513 L 551.578558 771.880932 L 555.132231 770.047138 L 558.627050 768.101311 L 562.121868 766.155484 L 565.616687 764.209656 L 569.111505 762.263829 L 570.414487 761.538361" fill="none" id="9" stroke="black" stroke-width="0.5" /><path d="M 869.501097 583.569861 L 868.920539 587.339275 L 868.943526 591.339209 L 868.939519 595.336805 L 868.229187 599.273229 L 867.288134 603.151703 L 866.054119 606.956596 L 864.401703 610.580494 L 862.473711 614.085184 L 860.179113 617.347376 L 857.708187 620.492932 L 854.786911 623.199505 L 851.705537 625.750022 L 848.365237 627.936597 L 844.868731 629.864206 L 841.208604 631.477734 L 837.548477 633.091261 L 833.888350 634.704789 L 833.658577 634.806081" fill="none" id="10" stroke="black" stroke-width="0.5" /><path d="M 838.634957 595.050171 L 838.105636 598.133839 L 838.535885 602.104662 L 839.067950 606.069118 L 839.552241 610.037005 L 839.592340 614.036804 L 839.632439 618.036603 L 839.004347 621.966935 L 838.142327 625.872945 L 836.362786 629.453537 L 833.932847 632.590631 L 830.834087 635.070573 L 827.192534 636.706945 L 823.294616 637.604851 L 819.300553 637.760172 L 815.548347 637.876941" fill="none" id="11" stroke="black" stroke-width="0.5" /><path d="M 230.886927 558.388761 L 230.938495 562.356958 L 231.680440 566.282091 L 232.726782 570.142812 L 233.773125 574.003533 L 234.819468 577.864254 L 236.335479 581.563539 L 237.883857 585.251699 L 239.689771 588.816787 L 241.586797 592.338334 L 243.483823 595.859881 L 245.694989 599.185686 L 248.020263 602.440391 L 250.640644 605.422950 L 253.705814 607.987752 L 257.545944 608.934659 L 261.537168 608.853019 L 263.075907 608.420251" fill="none" id="12" stroke="black" stroke-width="0.5" /><path d="M 254.351497 576.412381 L 255.046406 580.328404 L 256.468595 584.067037 L 257.875953 587.810688 L 259.015898 591.644815 L 260.155842 595.478941 L 261.295786 599.313068 L 262.435730 603.147195 L 263.575674 606.981321 L 264.715618 610.815448 L 266.248737 614.503279 L 268.163802 617.994138 L 271.369038 620.256127 L 275.339751 620.282642 L 279.103383 618.960481 L 282.443215 616.759226 L 282.981417 616.404501" fill="none" id="13" stroke="black" stroke-width="0.5" /><path d="M 258.792437 577.310021 L 259.097506 581.240848 L 260.536692 584.972971 L 261.724169 588.792302 L 262.902394 592.614839 L 264.080618 596.437375 L 265.458318 600.184796 L 267.094107 603.835028 L 269.607245 606.922227 L 273.052968 608.760079 L 276.935283 608.781708 L 280.218263 606.512626 L 283.281342 603.983789 L 285.632874 600.748005 L 286.666457 599.325761" fill="none" id="14" stroke="black" stroke-width="0.5" /><path d="M 234.288497 566.632851 L 234.344783 562.633247 L 234.401068 558.633643 L 235.336856 554.776730 L 236.493227 551.136791" fill="none" id="15" stroke="black" stroke-width="0.5" /><path d="M 232.052277 567.577731 L 231.615673 563.677462 L 232.267923 559.772938 L 234.047212 556.222124 L 236.586432 553.152701 L 239.561024 550.507409 L 242.832713 548.206094 L 246.104403 545.904780 L 248.808187 544.002931" fill="none" id="16" stroke="black" stroke-width="0.5" /><path d="M 543.674327 456.790331 L 544.366522 460.684817 L 545.711553 464.451897 L 547.056584 468.218977 L 548.401615 471.986057 L 549.746646 475.753137 L 551.091676 479.520217 L 552.463725 483.276510 L 554.083096 486.934055 L 555.901935 490.486162 L 558.012159 493.884243 L 560.948477 496.571652 L 564.383895 498.522492 L 568.351219 498.861567 L 572.339862 498.668716 L 576.212448 497.667181 L 577.532597 497.325761" fill="none" id="17" stroke="black" stroke-width="0.5" /><path d="M 604.965667 460.617101 L 605.108576 458.518610 L 605.444330 462.504494 L 605.780083 466.490378 L 606.115837 470.476262 L 606.131017 474.475623 L 606.083211 478.471567 L 605.319634 482.396196 L 604.403479 486.289866 L 603.143285 490.082523 L 601.809064 493.853445 L 599.990687 497.386588 L 597.822182 500.747776 L 595.132141 503.658448 L 592.121833 506.292466 L 588.672658 508.201827 L 584.943719 509.649244 L 581.063151 510.535737 L 577.094610 510.951731 L 573.098537 510.969875 L 569.303698 509.785594 L 566.040085 507.511378 L 566.005037 507.483241" fill="none" id="18" stroke="black" stroke-width="0.5" /><path d="M 543.201887 460.026551 L 542.536100 463.174809 L 542.523189 467.174788 L 542.510278 471.174767 L 542.792372 475.163584 L 543.107515 479.151150 L 543.422658 483.138716 L 544.151554 487.066222 L 544.983213 490.978809 L 546.282369 494.749553 L 547.765025 498.464621 L 550.152703 501.621936 L 553.203079 504.185031 L 556.706375 506.104460 L 560.471207 507.455768 L 564.361413 508.378060 L 568.297055 509.078887 L 572.296213 509.106873 L 573.721577 509.113161" fill="none" id="19" stroke="black" stroke-width="0.5" /><path d="M 420.934167 812.585611 L 417.009357 813.357535 L 413.084547 814.129459 L 409.122782 814.657639 L 405.145546 815.083774 L 401.160169 815.313240 L 397.161320 815.217265 L 393.162472 815.121291 L 389.163623 815.025317 L 385.164775 814.929343 L 381.187147 814.596764 L 377.235039 813.979639 L 373.282931 813.362514 L 369.388545 812.453204 L 365.498658 811.521120 L 361.632978 810.499697 L 357.804630 809.340495 L 353.976282 808.181292 L 350.223821 806.802699 L 346.497439 805.348714 L 342.773858 803.888118 L 339.137600 802.221497 L 335.501341 800.554876 L 331.884583 798.848344 L 328.335103 797.004112 L 324.785623 795.159881 L 321.261810 793.269005 L 317.804416 791.257432 L 314.347022 789.245858 L 310.915721 787.191713 L 307.554074 785.023919 L 304.192427 782.856125 L 300.857524 780.648839 L 297.596803 778.332010 L 294.336082 776.015181 L 291.087280 773.682177 L 287.908728 771.253842 L 284.730176 768.825508 L 281.551624 766.397173 L 278.491859 763.821107 L 275.437772 761.237978 L 272.383685 758.654850 L 269.369230 756.025965 L 266.376685 753.371785 L 263.384140 750.717604 L 260.391595 748.063424 L 257.399050 745.409243 L 254.406505 742.755063 L 251.413960 740.100882 L 248.565268 737.301073 L 245.874577 734.341313 L 243.183885 731.381552 L 240.493194 728.421792 L 237.802503 725.462032 L 235.111812 722.502271 L 232.421121 719.542511 L 229.730430 716.582751 L 227.039738 713.622991 L 224.349047 710.663230 L 221.658356 707.703470 L 219.010161 704.706716 L 216.449424 701.633831 L 213.888686 698.560946 L 211.327949 695.488061 L 208.806536 692.383391 L 206.339009 689.235168 L 203.871482 686.086944 L 201.403956 682.938720 L 198.936429 679.790497 L 196.468902 676.642273 L 194.001376 673.494049 L 191.533849 670.345826 L 189.066323 667.197602 L 186.598796 664.049378 L 184.131269 660.901155 L 181.663743 657.752931 L 179.337878 654.500990 L 177.082032 651.197786 L 174.826185 647.894582 L 172.570339 644.591378 L 170.314492 641.288174 L 168.058646 637.984970 L 165.802799 634.681766 L 163.546952 631.378563 L 161.291106 628.075359 L 159.035259 624.772155 L 156.779413 621.468951 L 154.523566 618.165747 L 152.291577 614.846733 L 150.128546 611.482019 L 147.965516 608.117305 L 145.802486 604.752591 L 143.649562 601.381599 L 141.591579 597.951627 L 139.533596 594.521655 L 137.475613 591.091683 L 135.417630 587.661712 L 133.243376 584.305320 L 131.024575 580.977118 L 128.805775 577.648917 L 126.586974 574.320716 L 124.413601 570.964221 L 122.405059 567.505066 L 120.396516 564.045910 L 118.387974 560.586754 L 116.379432 557.127598 L 114.370890 553.668442 L 112.362348 550.209287 L 110.353806 546.750131 L 108.345264 543.290975 L 106.392595 539.801668 L 104.603741 536.223959 L 102.814887 532.646250 L 101.026032 529.068541 L 99.237178 525.490833 L 97.448324 521.913124 L 95.659469 518.335415 L 93.870615 514.757706 L 92.081760 511.179997 L 90.239517 507.630630 L 88.278472 504.144328 L 86.317427 500.658026 L 84.356382 497.171724 L 82.395337 493.685422 L 80.654697 490.087298 L 78.999485 486.445832 L 77.344273 482.804366 L 75.689061 479.162900 L 74.033849 475.521434 L 72.378638 471.879968 L 70.723426 468.238502 L 69.068214 464.597036 L 67.413002 460.955570 L 65.608244 457.387879 L 63.725891 453.858467 L 61.843538 450.329056 L 59.961185 446.799644 L 58.910063 443.742127 L 57.303642 440.078875 L 55.697221 436.415624 L 54.090800 432.752372 L 52.484379 429.089120 L 50.877959 425.425869 L 49.271538 421.762617 L 47.665117 418.099366 L 46.058696 414.436114 L 44.452275 410.772863 L 42.845854 407.109611 L 41.239433 403.446360 L 39.633012 399.783108 L 38.026591 396.119857 L 37.606572 394.177195 L 36.274582 390.405484 L 34.942592 386.633773 L 33.610601 382.862063 L 32.278611 379.090352 L 30.946620 375.318641 L 29.614630 371.546930 L 28.282639 367.775220 L 26.950649 364.003509 L 25.806247 360.171136 L 24.677582 356.333674 L 23.548916 352.496212 L 22.420251 348.658750 L 21.291586 344.821288 L 20.162920 340.983826 L 19.034255 337.146364 L 17.905590 333.308902 L 16.971965 329.928811 L 16.573665 327.418000 L 15.626669 323.531717 L 14.679673 319.645434 L 13.732677 315.759150 L 12.785681 311.872867 L 11.838685 307.986584 L 10.891689 304.100300 L 9.944693 300.214017 L 8.997697 296.327733 L 8.262626 292.396978 L 7.567484 288.457844 L 6.872343 284.518710 L 6.177202 280.579576 L 5.551994 276.629311 L 4.989861 272.669007 L 4.427727 268.708703 L 3.865593 264.748399 L 3.375508 260.779222 L 2.959917 256.800870 L 2.544326 252.822518 L 2.128734 248.844167 L 1.755428 244.862098 L 1.470578 240.872253 L 1.185727 236.882408 L 0.900877 232.892564 L 0.657002 228.900701 L 0.548513 224.902173 L 0.440025 220.903644 L 0.331536 216.905116 L 0.250000 212.906397 L 0.302087 208.906736 L 0.354174 204.907076 L 0.406261 200.907415 L 0.458348 196.907754 L 0.510435 192.908093 L 0.562521 188.908432 L 0.614608 184.908771 L 0.759919 180.913873 L 1.115720 176.929729 L 1.471520 172.945585 L 1.827321 168.961440 L 2.282855 164.988729 L 2.837915 161.027428 L 3.392975 157.066127 L 3.948035 153.104825 L 4.677602 149.172522 L 5.433492 145.244592 L 6.189382 141.316663 L 7.010845 137.402905 L 7.944512 133.513398 L 8.878178 129.623891 L 9.811845 125.734383 L 11.020372 121.921744 L 12.239831 118.112161 L 13.459290 114.302579 L 14.678749 110.492996 L 15.898208 106.683413 L 17.117667 102.873831 L 17.658577 101.184031" fill="none" id="21" stroke="black" stroke-width="0.5" /><path d="M 119.800317 37.758831 L 119.837264 33.759002 L 119.874211 29.759173 L 120.260283 25.797386 L 121.298943 21.953197 L 122.945031 18.307598 L 124.983355 14.882985 L 127.546330 11.840779 L 130.451080 9.090792 L 133.603406 6.665230 L 137.022554 4.589314 L 140.715744 3.061674 L 144.474418 1.727387 L 148.396243 0.940438 L 152.348105 0.425488 L 156.347142 0.337744 L 160.346180 0.250000 L 164.318716 0.502030 L 168.255786 1.208766 L 172.192857 1.915503 L 176.032199 3.036748 L 179.870326 4.163153 L 183.688699 5.346551 L 187.400689 6.836897 L 191.112679 8.327243 L 194.821268 9.825352 L 198.433657 11.543097 L 202.005892 13.338757 L 205.501103 15.283881 L 208.996313 17.229004 L 212.491523 19.174127 L 215.863812 21.319159 L 219.176947 23.560396 L 222.400826 25.926436 L 225.592658 28.337289 L 228.784490 30.748141 L 231.976322 33.158994 L 235.115767 35.636547 L 238.214344 38.166136 L 241.312921 40.695726 L 244.411498 43.225315 L 247.510075 45.754904 L 250.492620 48.420114 L 253.471246 51.089906 L 256.449871 53.759699 L 259.428496 56.429491 L 262.407121 59.099284 L 265.385747 61.769076 L 268.364372 64.438868 L 271.313708 67.139760 L 274.157083 69.953159 L 277.000459 72.766559 L 279.843835 75.579958 L 282.687210 78.393357 L 285.530586 81.206756 L 288.311539 84.081305 L 291.065767 86.982034 L 293.819995 89.882763 L 296.574222 92.783492 L 299.328450 95.684221 L 302.082678 98.584950 L 304.724806 101.587118 L 307.336782 104.616570 L 309.948759 107.646022 L 312.560735 110.675474 L 315.172712 113.704926 L 317.784688 116.734378 L 320.396665 119.763830 L 323.008641 122.793281 L 325.620618 125.822733 L 328.232594 128.852185 L 330.690527 132.006268 L 333.107928 135.193143 L 335.525329 138.380018 L 337.942731 141.566892 L 340.360132 144.753767 L 342.777533 147.940642 L 345.194934 151.127517 L 347.509668 154.388338 L 349.766358 157.690966 L 352.023048 160.993594 L 354.279737 164.296222 L 356.415229 167.678183 L 358.539080 171.067764 L 360.662932 174.457344 L 362.786783 177.846924 L 364.910635 181.236505 L 367.034486 184.626085 L 369.158338 188.015666 L 371.263491 191.416617 L 373.295973 194.861761 L 375.328454 198.306905 L 377.360936 201.752049 L 379.385480 205.201685 L 381.292444 208.717860 L 383.199408 212.234035 L 385.106373 215.750211 L 387.013337 219.266386 L 388.920301 222.782561 L 390.827265 226.298736 L 392.734230 229.814911 L 394.641194 233.331086 L 396.291984 236.973201 L 397.911688 240.630599 L 399.531392 244.287997 L 401.151096 247.945395 L 402.770800 251.602793 L 404.390504 255.260191 L 406.010208 258.917588 L 407.629912 262.574986 L 409.249552 266.232410 L 410.658291 269.976132 L 412.067030 273.719854 L 413.475769 277.463576 L 414.884508 281.207298 L 416.293247 284.951020 L 417.701986 288.694742 L 419.110725 292.438464 L 420.519464 296.182186 L 421.919970 299.928828 L 423.184881 303.723562 L 424.449792 307.518295 L 425.714703 311.313028 L 426.979614 315.107761 L 428.244525 318.902494 L 429.509436 322.697227 L 430.774347 326.491961 L 432.039258 330.286694 L 433.304169 334.081427 L 434.510336 337.894864 L 435.672263 341.722386 L 436.834189 345.549908 L 437.996116 349.377431 L 439.158042 353.204953 L 440.319969 357.032475 L 441.481895 360.859997 L 442.643821 364.687520 L 443.805748 368.515042 L 444.967674 372.342564 L 446.129601 376.170087 L 447.291527 379.997609 L 448.453453 383.825131 L 449.615380 387.652654 L 450.777306 391.480176 L 451.853405 395.332642 L 452.923980 399.186714 L 453.994556 403.040786 L 455.065131 406.894857 L 456.121549 410.752758 L 457.139522 414.621056 L 458.157495 418.489354 L 459.175468 422.357652 L 460.193441 426.225951 L 461.211415 430.094249 L 462.229388 433.962547 L 463.247361 437.830845 L 464.265334 441.699143 L 465.283307 445.567441 L 466.301281 449.435740 L 467.319254 453.304038 L 468.337227 457.172336 L 469.355200 461.040634 L 470.373173 464.908932 L 471.281428 468.803029 L 472.093931 472.719639 L 472.906435 476.636250 L 473.718939 480.552860 L 474.531443 484.469470 L 475.262861 488.400774 L 475.876349 492.353449 L 476.489837 496.306123 L 477.103324 500.258797 L 477.716812 504.211471 L 478.330300 508.164145 L 478.943788 512.116819 L 479.557275 516.069493 L 480.170763 520.022168 L 480.784251 523.974842 L 481.397738 527.927516 L 482.011226 531.880190 L 482.624714 535.832864 L 483.238201 539.785538 L 483.850378 543.738383 L 484.269117 547.716405 L 484.687856 551.694427 L 485.106595 555.672449 L 485.525334 559.650470 L 486.383714 563.194271 L 486.695685 567.182086 L 487.007656 571.169902 L 487.319627 575.157718 L 487.631598 579.145534 L 487.943569 583.133349 L 488.255540 587.121165 L 488.567512 591.108981 L 488.879483 595.096796 L 489.191454 599.084612 L 489.377065 603.079849 L 489.534018 607.076768 L 489.690971 611.073688 L 489.847925 615.070607 L 489.952241 619.068727 L 489.977707 623.068646 L 490.003172 627.068565 L 490.028637 631.068484 L 490.054103 635.068403 L 490.079568 639.068322 L 490.105033 643.068241 L 490.130499 647.068160 L 490.155964 651.068079 L 489.997971 655.063497 L 489.776407 659.057356 L 489.554843 663.051215 L 489.333279 667.045074 L 489.012906 671.031470 L 488.632021 675.013294 L 488.251135 678.995119 L 487.870250 682.976943 L 487.414337 686.950331 L 486.901434 690.917311 L 486.388531 694.884291 L 485.875628 698.851271 L 485.263240 702.803390 L 484.594462 706.747086 L 483.925684 710.690782 L 483.256905 714.634477 L 482.379054 718.536095 L 481.470138 722.431460 L 480.561221 726.326826 L 479.863307 729.317891" fill="none" id="22" stroke="black" stroke-width="0.5" /><path d="M 395.327867 292.971431 L 398.254562 290.244811 L 401.365517 287.740537 L 404.588210 285.371096 L 407.829036 283.027847 L 411.181147 280.845336 L 414.533258 278.662825 L 417.885369 276.480314 L 421.237480 274.297804 L 424.589590 272.115293 L 428.100863 270.227418 L 431.763851 268.620397 L 435.426839 267.013376 L 439.163213 265.607046 L 442.998822 264.472098 L 446.858639 263.432046 L 450.769199 262.590904 L 453.942047 261.908441" fill="none" id="23" stroke="black" stroke-width="0.5" /><path d="M 740.461727 207.365131 L 743.929684 206.153570 L 747.674198 207.415518 L 751.095769 209.433081 L 753.376083 212.528688 L 753.411933 216.478807 L 751.559832 220.011936 L 749.256331 223.282087 L 746.754971 226.399398 L 743.858928 229.124614 L 740.680853 231.553573 L 738.918427 232.900571" fill="none" id="24" stroke="black" stroke-width="0.5" /><path d="M 229.186137 417.719461 L 228.993593 421.714824 L 229.554015 425.609654 L 231.446470 429.111986 L 234.390041 431.778834 L 238.087347 433.221434 L 242.061201 433.623322 L 246.059472 433.505727 L 249.907083 432.438171 L 253.745540 431.312894 L 257.517577 430.001863 L 261.199255 428.438136 L 264.875518 426.863034 L 268.410288 424.990762 L 271.945057 423.118489 L 275.359367 421.310021" fill="none" id="25" stroke="black" stroke-width="0.5" /><path d="M 246.697947 427.853321 L 242.962116 429.282854 L 239.166422 430.511886 L 235.215971 430.971431 L 231.450460 430.243938 L 228.615698 427.523449 L 227.384639 423.833734 L 227.052453 419.847551 L 228.486802 416.172244 L 230.752342 412.922379 L 233.760882 410.331629 L 237.047000 408.050965 L 240.531244 406.107224 L 244.121725 404.344146 L 247.712206 402.581068 L 247.863307 402.506871" fill="none" id="26" stroke="black" stroke-width="0.5" /><path d="M 576.367247 339.506871 L 574.547614 343.069025 L 571.851345 346.019507 L 568.803271 348.595991 L 565.657144 351.066190 L 562.443504 353.436332 L 558.975244 355.429112 L 555.506984 357.421893 L 551.965126 359.274764 L 548.358163 361.003873 L 544.751200 362.732983 L 540.997385 364.114060 L 537.242027 365.491479 L 533.404006 366.602767 L 529.529119 367.595367 L 525.608473 368.289315 L 521.614155 368.502452 L 517.705740 368.117236 L 514.540467 367.002931" fill="none" id="27" stroke="black" stroke-width="0.5" /><path d="M 242.540467 415.286391 L 240.820736 411.674948 L 240.178267 410.325761" fill="none" id="29" stroke="black" stroke-width="0.5" /><path d="M 739.453857 173.514741 L 740.712454 177.183744 L 742.274768 180.862636 L 743.733366 184.587215 L 745.191964 188.311795 L 746.650562 192.036374 L 748.109160 195.760953 L 749.567758 199.485533 L 751.026356 203.210112 L 752.484954 206.934692 L 753.943552 210.659271 L 755.402150 214.383850 L 757.042043 218.028273 L 758.815460 221.613658 L 760.829166 225.069145 L 762.857683 228.516625 L 764.886200 231.964105 L 765.312127 232.687971" fill="none" id="30" stroke="black" stroke-width="0.5" /><path d="M 379.044407 258.270651 L 380.144273 254.424836 L 381.244140 250.579021 L 382.781394 246.890165 L 384.590188 243.339896 L 386.845680 240.036450 L 389.592149 237.141559 L 392.711227 234.655358 L 395.964142 232.327581 L 399.388427 230.280260 L 402.943986 228.447776 L 406.626747 226.892326 L 410.333939 225.390083 L 414.041130 223.887841 L 417.895912 222.820547 L 421.343617 221.869071" fill="none" id="31" stroke="black" stroke-width="0.5" /><path d="M 729.154647 174.861201 L 732.502358 173.573405 L 736.493730 173.310815 L 740.485101 173.048225 L 744.118053 174.485399 L 746.433425 177.668727 L 747.034219 181.558795 L 746.117107 185.327281 L 743.816699 188.592766 L 743.012907 189.695841" fill="none" id="32" stroke="black" stroke-width="0.5" /><path d="M 219.989287 376.121041 L 217.152431 378.941014 L 214.834796 382.157433 L 213.235068 385.792644 L 212.343593 389.681326 L 212.209571 393.665599 L 212.391408 397.661464 L 213.547775 401.455390 L 215.493741 404.892510 L 216.335747 405.932061" fill="none" id="33" stroke="black" stroke-width="0.5" /><path d="M 222.508977 376.947811 L 219.043257 378.945005 L 215.786437 381.225471 L 213.658997 384.534019 L 213.249127 388.484562 L 214.792437 391.806081" fill="none" id="34" stroke="black" stroke-width="0.5" /><path d="M 518.792437 323.845451 L 522.726449 324.342263 L 526.588396 323.443501 L 530.350789 322.085414 L 533.834758 320.121205 L 537.145856 317.878861 L 540.442923 315.614055 L 543.568359 313.119976 L 546.635422 310.553386 L 549.633625 307.905598 L 552.631827 305.257810 L 555.630030 302.610022 L 558.225507 300.317891" fill="none" id="35" stroke="black" stroke-width="0.5" /><path d="M 380.808187 258.790331 L 379.744822 254.934264 L 378.681457 251.078197 L 377.663691 247.211788 L 376.959569 243.274250 L 376.255446 239.336711 L 375.819152 235.367281 L 375.580281 231.374479 L 375.704541 227.376409 L 375.828801 223.378340 L 376.447684 219.462709 L 377.626837 215.640459 L 379.496855 212.122733 L 382.053047 209.051070 L 385.089287 206.469269 L 388.366405 204.202421 L 392.040551 202.621075 L 393.312127 202.073791" fill="none" id="36" stroke="black" stroke-width="0.5" /><path d="M 408.871177 204.861201 L 405.974394 202.839280 L 409.071837 201.335319 L 413.060311 201.111415 L 417.034310 201.387603 L 420.719461 202.913797 L 424.263807 204.741808 L 427.504706 207.086286 L 430.393049 209.843401 L 433.214619 212.678669 L 435.834139 215.691443 L 438.278330 218.857450 L 440.332878 222.289480 L 442.387426 225.721511 L 443.107397 226.924191" fill="none" id="37" stroke="black" stroke-width="0.5" /><path d="M 701.942047 156.199781 L 704.701829 154.037089 L 708.681764 153.903355 L 712.504044 154.896062 L 715.942194 156.878044 L 718.822045 159.633244 L 721.218291 162.821240 L 723.448865 166.141562 L 725.359199 169.651817 L 727.203159 173.201439 L 728.830006 176.853423 L 730.395130 180.534508 L 730.855427 181.617101" fill="none" id="38" stroke="black" stroke-width="0.5" /><path d="M 224.808187 378.388761 L 223.339322 374.668219 L 221.870457 370.947677 L 220.401592 367.227134 L 219.205637 363.424871 L 218.387934 359.509343 L 218.164070 355.519677 L 218.519721 351.646838 L 221.469786 349.196671 L 225.354182 348.373720 L 226.194017 348.270651" fill="none" id="39" stroke="black" stroke-width="0.5" /><path d="M 213.690077 399.010801 L 212.564218 395.213283 L 211.326294 391.433501 L 209.812403 387.731051 L 208.679528 383.900995 L 207.920582 379.982434 L 207.500522 376.010281 L 207.608883 372.011749 L 208.527429 368.158556 L 209.945589 364.431700 L 212.014621 361.009674 L 214.649750 358.022051 L 217.559415 355.277265 L 220.304247 352.687971" fill="none" id="40" stroke="black" stroke-width="0.5" /><path d="M 375.989287 221.609231 L 378.289070 218.336465 L 380.588852 215.063698 L 383.521739 212.365040 L 386.652549 209.894288 L 390.105300 207.874757 L 393.558052 205.855226 L 397.065654 203.939783 L 400.798031 202.541143 L 403.233387 201.861201" fill="none" id="41" stroke="black" stroke-width="0.5" /><path d="M 709.217637 151.215531 L 713.188651 151.553453 L 717.130219 152.234660 L 721.013678 153.174014 L 724.505703 155.072172 L 727.862353 157.240387 L 730.984536 159.740781 L 734.106720 162.241176 L 736.941354 165.054366 L 739.338736 168.248997 L 741.523274 171.585685 L 743.181202 175.225915 L 744.839130 178.866145 L 746.497058 182.506376 L 747.705827 185.160411" fill="none" id="42" stroke="black" stroke-width="0.5" /><path d="M 215.107397 441.459621 L 214.928996 445.401597 L 215.253732 449.379335 L 215.943126 453.319479 L 216.632519 457.259623 L 217.321913 461.199768 L 218.011306 465.139912 L 218.700700 469.080056 L 219.390093 473.020200 L 220.079487 476.960345 L 220.768881 480.900489 L 221.361772 484.854777 L 221.832053 488.827035 L 222.302335 492.799293 L 222.772617 496.771551 L 223.242899 500.743810 L 223.713180 504.716068 L 224.183462 508.688326 L 224.653744 512.660584 L 225.124026 516.632842 L 225.594308 520.605101 L 226.179343 524.561457 L 226.806957 528.511912 L 227.434570 532.462368 L 228.062183 536.412824 L 228.689797 540.363280 L 229.396672 544.298855 L 230.244630 548.207943 L 231.092589 552.117030 L 231.940547 556.026118 L 232.788505 559.935206 L 233.636463 563.844294 L 234.703067 567.697692 L 235.828421 571.536126 L 236.953776 575.374560 L 238.169405 579.184478 L 239.453242 582.972850 L 240.737079 586.761222 L 242.020916 590.549594 L 243.304753 594.337966 L 244.588590 598.126338 L 245.123147 599.703721" fill="none" id="43" stroke="black" stroke-width="0.5" /><path d="M 231.233387 552.719461 L 230.996761 556.712456 L 231.131433 560.684450 L 232.048283 564.572614 L 233.135865 568.421921 L 234.223447 572.271228 L 235.913845 575.896386 L 237.605388 579.521118 L 239.607295 582.967094 L 241.893771 586.249171 L 244.180247 589.531247 L 246.466723 592.813324 L 248.904937 595.973760 L 251.610984 598.919487 L 254.389057 601.793663 L 257.316855 604.519098 L 258.792437 605.892691" fill="none" id="44" stroke="black" stroke-width="0.5" /><path d="M 229.973537 553.073791 L 230.219134 557.052927 L 231.243922 560.911523 L 232.489652 564.712596 L 233.735383 568.513669 L 235.326206 572.169950 L 237.181892 575.712973 L 239.198944 579.167174 L 241.215995 582.621374 L 243.294887 586.036715 L 245.532091 589.352574 L 247.623197 592.758257 L 249.572259 596.251272 L 251.521321 599.744288 L 253.978615 602.877418 L 256.626195 605.875804 L 259.273776 608.874190 L 261.968981 611.825846 L 264.916590 614.529844 L 268.022396 617.048728 L 271.152722 619.538921 L 274.283047 622.029115 L 277.413372 624.519308 L 279.327867 626.042301" fill="none" id="45" stroke="black" stroke-width="0.5" /><path d="M 456.020787 745.215531 L 456.164094 744.666971 L 459.113888 747.368585 L 462.063681 750.070199 L 465.013475 752.771814 L 468.114866 755.293862 L 471.272921 757.748793 L 474.430977 760.203724 L 477.589032 762.658656 L 480.747087 765.113587 L 483.905143 767.568518 L 487.099268 769.972217 L 490.475240 772.117634 L 494.127825 773.733761 L 497.923226 774.996668 L 501.856926 775.720864 L 505.791316 776.442375 L 509.743495 777.043700 L 513.718194 777.492894 L 517.692892 777.942089 L 521.681415 778.127595 L 525.680251 778.081794 L 529.644535 777.548455 L 533.608819 777.015115 L 537.573104 776.481775 L 540.839687 776.042301" fill="none" id="46" stroke="black" stroke-width="0.5" /><path d="M 869.343617 587.939941 L 869.105772 591.916434 L 869.286103 595.912367 L 869.131378 599.895641 L 868.282988 603.792162 L 867.087213 607.600884 L 865.293988 611.176404 L 863.500764 614.751925 L 861.211466 618.030665 L 858.831095 621.237495 L 856.066508 624.128353 L 852.814919 626.455980 L 849.522173 628.720592 L 845.984633 630.587625 L 844.839687 631.191901" fill="none" id="47" stroke="black" stroke-width="0.5" /><path d="M 751.390867 210.837571 L 753.363273 214.084869 L 753.879057 217.993907 L 752.696297 221.782103 L 751.156591 225.470734 L 749.376311 229.044842 L 747.200490 232.401299 L 744.674816 235.501225 L 741.915841 238.387522 L 739.012415 241.138906 L 738.981417 241.168281" fill="none" id="48" stroke="black" stroke-width="0.5" /><path d="M 742.540467 170.774581 L 743.635485 174.621780 L 744.730503 178.468978 L 745.825521 182.316177 L 746.920538 186.163375 L 748.015556 190.010574 L 748.923175 193.903331 L 749.716570 197.823857 L 750.509966 201.744383 L 751.303361 205.664909 L 752.096756 209.585435 L 752.890152 213.505961 L 753.406617 216.058051" fill="none" id="49" stroke="black" stroke-width="0.5" /><path d="M 208.367247 383.632851 L 209.965280 387.299770 L 211.563312 390.966689 L 213.161344 394.633607 L 214.835145 398.266136 L 216.543171 401.883130 L 218.251196 405.500125 L 219.959222 409.117119 L 221.667248 412.734114 L 223.375273 416.351108 L 225.083299 419.968102 L 227.063150 423.440178 L 229.114273 426.874256 L 231.165397 430.308334 L 233.216520 433.742413 L 234.792437 436.380881" fill="none" id="50" stroke="black" stroke-width="0.5" /><path d="M 224.808187 420.436001 L 226.491097 424.022950 L 229.015447 427.125797 L 231.797031 429.971558 L 235.303513 431.655584 L 236.398737 431.892691" fill="none" id="51" stroke="black" stroke-width="0.5" /><path d="M 208.020787 362.302141 L 210.503357 359.211936 L 213.344054 356.395832 L 216.184751 353.579729 L 219.025449 350.763625 L 221.866146 347.947522 L 224.706843 345.131419 L 227.547541 342.315315 L 230.388238 339.499212 L 233.412413 336.882651 L 236.456509 334.287756 L 239.500604 331.692860 L 242.544700 329.097965 L 245.588795 326.503070 L 248.632891 323.908174 L 251.676987 321.313279 L 254.721082 318.718384 L 257.765178 316.123488 L 260.809273 313.528593 L 263.853369 310.933697 L 266.897465 308.338802 L 269.941560 305.743907 L 272.985656 303.149011 L 276.029751 300.554116 L 279.073847 297.959221 L 282.117943 295.364325 L 285.162038 292.769430 L 288.206134 290.174534 L 291.250229 287.579639 L 294.294325 284.984744 L 297.349830 282.403491 L 300.442219 279.866340 L 303.534607 277.329189 L 306.626995 274.792038 L 309.719383 272.254887 L 312.813228 269.719545 L 315.951541 267.239426 L 319.089855 264.759307 L 322.228168 262.279189 L 325.366481 259.799070 L 328.504795 257.318951 L 331.643108 254.838832 L 334.781421 252.358713 L 337.919735 249.878594 L 341.058048 247.398476 L 344.196361 244.918357 L 347.334675 242.438238 L 350.472988 239.958119 L 353.611301 237.478000 L 356.749615 234.997881 L 359.887928 232.517763 L 363.026241 230.037644 L 366.164554 227.557525 L 369.361188 225.154085 L 372.589309 222.792045 L 375.817431 220.430005 L 379.045552 218.067965 L 382.273673 215.705925 L 385.501794 213.343885 L 388.751622 211.011960 L 392.013191 208.696325 L 395.274760 206.380689 L 398.536329 204.065053 L 401.797898 201.749418 L 405.059467 199.433782 L 408.321036 197.118147 L 411.582605 194.802511 L 414.844174 192.486876 L 418.105743 190.171240 L 421.367312 187.855605 L 424.628881 185.539969 L 427.890450 183.224334 L 431.152019 180.908698 L 434.413588 178.593063 L 437.675157 176.277427 L 440.936726 173.961791 L 444.198295 171.646156 L 447.459863 169.330520 L 450.721432 167.014885 L 452.146767 166.002931" fill="none" id="52" stroke="black" stroke-width="0.5" /><path d="M 377.879057 220.924191 L 380.764177 218.153616 L 383.649296 215.383041 L 386.534415 212.612466 L 389.419534 209.841891 L 392.581013 207.418213 L 395.926303 205.225260 L 399.309476 203.100458 L 402.937869 201.416783 L 406.712125 200.096570 L 410.497826 198.804881 L 414.396898 197.913100 L 418.297261 197.025875 L 422.197624 196.138651 L 424.871177 195.530491" fill="none" id="53" stroke="black" stroke-width="0.5" /></svg>