<?xml version="1.0" encoding="utf-8" ?>
<svg baseProfile="full" height="524.5" version="1.1" viewBox="0,0,842.5,524.5" width="842.5" xmlns="http://www.w3.org/2000/svg" xmlns:ev="http://www.w3.org/2001/xml-events" xmlns:xlink="http://www.w3.org/1999/xlink"><defs><style type="text/css"><![CDATA[
	.background { fill: white; }
	.line { stroke: firebrick; stroke-width: .1mm; }
	.blacksquare { fill: indigo; }
	.whitesquare { fill: white; }
]]></style></defs><rect class="background" height="100%" width="100%" x="0" y="0" /><path d="M 37.433600 266.570000 L 38.710300 267.448000 L 39.987000 268.325000 L 41.267900 269.196000 L 42.549600 270.067000 L 43.833100 270.934000 L 45.117500 271.800000 L 46.409900 272.654000 L 47.708400 273.499000 L 49.012100 274.336000 L 50.322500 275.162000 L 51.633900 275.986000 L 52.947600 276.807000 L 54.261300 277.628000 L 55.575000 278.449000 L 56.888600 279.270000 L 58.202300 280.091000 L 59.516000 280.912000 L 60.829000 281.735000 L 62.141900 282.557000 L 63.445000 283.394000 L 64.744200 284.238000 L 66.026200 285.107000 L 67.295200 285.996000 L 68.571000 286.875000 L 69.856000 287.740000 L 71.154400 288.584000 L 72.486900 289.374000 L 73.823000 290.158000 L 75.181000 290.903000 L 76.539100 291.648000" fill="none" id="0" stroke="#c583d9" stroke-width="0.5" /><path d="M 13.152400 241.730000 L 17.852300 240.241000 L 22.516200 238.642000 L 27.125300 236.892000 L 31.684700 235.016000 L 36.244000 233.140000 L 40.803400 231.263000 L 45.362800 229.387000 L 49.922100 227.511000 L 54.481600 225.635000 L 59.060100 223.806000 L 63.673000 222.066000 L 68.297100 220.355000 L 72.922200 218.648000 L 77.547300 216.940000 L 82.172500 215.233000 L 86.797600 213.525000 L 91.422800 211.817000 L 96.047900 210.110000 L 100.673000 208.402000 L 105.305000 206.712000 L 109.954000 205.070000 L 114.610000 203.450000 L 119.266000 201.830000 L 123.934000 200.241000 L 128.611000 198.681000 L 133.289000 197.126000 L 137.968000 195.571000 L 142.646000 194.015000 L 147.325000 192.460000 L 152.004000 190.905000 L 156.682000 189.350000 L 161.361000 187.796000 L 166.045000 186.256000 L 170.736000 184.738000 L 175.429000 183.228000 L 180.123000 181.719000 L 184.816000 180.209000 L 189.510000 178.700000 L 194.203000 177.191000 L 198.897000 175.681000 L 203.590000 174.172000 L 208.284000 172.662000 L 212.978000 171.153000 L 217.671000 169.643000 L 222.365000 168.134000 L 227.058000 166.625000 L 231.752000 165.115000 L 236.445000 163.606000 L 241.139000 162.098000 L 245.837000 160.602000 L 250.544000 159.133000 L 255.252000 157.672000 L 259.961000 156.211000 L 264.670000 154.750000 L 269.379000 153.289000 L 274.088000 151.828000 L 278.797000 150.367000" fill="none" id="1" stroke="#f375a0" stroke-width="0.5" /><path d="M 9.265630 246.188000 L 11.695600 247.605000 L 14.116500 249.038000 L 16.525800 250.491000 L 18.922500 251.964000 L 21.307400 253.456000 L 23.684600 254.961000 L 26.039200 256.501000 L 28.387400 258.050000 L 30.734100 259.602000 L 33.080800 261.153000 L 35.427400 262.705000 L 37.774100 264.257000 L 40.120800 265.809000 L 42.467400 267.360000 L 44.814100 268.912000 L 47.160700 270.464000 L 49.507400 272.016000 L 51.854100 273.567000 L 54.200700 275.119000 L 56.547400 276.671000 L 58.894000 278.223000 L 61.240700 279.774000 L 63.587400 281.326000 L 65.934000 282.878000 L 68.285200 284.423000 L 70.655400 285.938000 L 73.042600 287.427000 L 75.447300 288.887000 L 77.869400 290.318000 L 80.304700 291.727000" fill="none" id="2" stroke="#9de993" stroke-width="0.5" /><path d="M 48.011700 262.945000 L 52.187100 265.608000 L 56.362400 268.270000 L 60.537800 270.932000 L 64.713100 273.594000 L 68.888500 276.257000 L 73.063800 278.919000 L 77.262600 281.544000 L 81.496600 284.112000 L 85.737700 286.668000 L 89.979300 289.224000 L 94.220900 291.779000 L 98.462500 294.335000 L 102.704000 296.890000 L 106.948000 299.442000 L 111.220000 301.946000 L 115.512000 304.415000 L 119.808000 306.879000 L 124.103000 309.343000 L 128.399000 311.806000 L 132.694000 314.270000 L 136.990000 316.734000 L 141.285000 319.198000 L 145.580000 321.662000 L 149.876000 324.126000 L 154.171000 326.590000 L 158.467000 329.053000 L 162.762000 331.517000 L 167.058000 333.981000 L 171.353000 336.445000 L 175.648000 338.909000 L 179.944000 341.373000 L 184.238000 343.839000 L 188.510000 346.343000 L 192.768000 348.872000 L 197.023000 351.404000 L 201.279000 353.935000 L 205.535000 356.467000 L 209.790000 358.999000 L 214.046000 361.531000 L 218.289000 364.085000 L 222.510000 366.673000 L 226.722000 369.277000 L 230.934000 371.881000 L 235.146000 374.485000 L 239.358000 377.088000 L 243.570000 379.692000 L 247.783000 382.296000 L 251.995000 384.900000 L 256.207000 387.503000 L 260.410000 390.121000 L 264.592000 392.773000 L 268.760000 395.448000 L 272.926000 398.124000 L 277.092000 400.801000 L 281.258000 403.477000 L 285.425000 406.154000 L 289.591000 408.830000 L 293.757000 411.507000 L 297.923000 414.183000 L 302.094000 416.853000 L 306.282000 419.496000 L 310.489000 422.107000 L 314.697000 424.717000 L 318.905000 427.328000 L 323.113000 429.939000 L 327.320000 432.550000 L 331.533000 435.153000 L 335.776000 437.706000 L 340.072000 440.168000 L 344.372000 442.624000 L 348.672000 445.080000 L 352.972000 447.536000 L 357.274000 449.988000 L 361.599000 452.399000 L 365.986000 454.696000 L 370.401000 456.940000 L 374.815000 459.184000 L 379.229000 461.428000 L 383.643000 463.673000 L 388.057000 465.918000 L 392.460000 468.183000 L 396.816000 470.538000 L 401.171000 472.895000 L 405.472000 475.349000 L 409.735000 477.869000 L 413.980000 480.418000" fill="none" id="3" stroke="#58f2c3" stroke-width="0.5" /><path d="M 266.777000 398.852000 L 270.656000 400.953000 L 274.543000 403.038000 L 278.455000 405.076000 L 282.355000 407.137000 L 286.253000 409.202000 L 290.151000 411.267000 L 294.049000 413.332000 L 297.947000 415.396000 L 301.840000 417.470000 L 305.721000 419.566000 L 309.592000 421.681000 L 313.458000 423.805000 L 317.324000 425.930000 L 321.189000 428.055000 L 325.054000 430.180000 L 328.920000 432.305000 L 332.785000 434.430000 L 336.651000 436.555000 L 340.516000 438.680000 L 344.382000 440.805000 L 348.249000 442.927000 L 352.124000 445.035000 L 356.018000 447.107000 L 359.932000 449.141000 L 363.851000 451.166000 L 367.769000 453.192000 L 371.681000 455.229000 L 375.526000 457.390000 L 379.250000 459.754000 L 382.890000 462.247000" fill="none" id="4" stroke="#58f2c3" stroke-width="0.5" /><path d="M 261.727000 395.707000 L 265.508000 398.169000 L 269.296000 400.620000 L 273.089000 403.063000 L 276.913000 405.458000 L 280.787000 407.771000 L 284.686000 410.041000 L 288.622000 412.248000 L 292.588000 414.398000 L 296.563000 416.533000 L 300.538000 418.668000 L 304.513000 420.802000 L 308.488000 422.937000 L 312.463000 425.072000 L 316.439000 427.206000 L 320.414000 429.341000 L 324.389000 431.476000 L 328.364000 433.610000 L 332.339000 435.745000 L 336.314000 437.880000 L 340.289000 440.014000 L 344.264000 442.149000 L 348.239000 444.284000 L 352.214000 446.418000 L 356.189000 448.553000 L 360.164000 450.688000 L 364.138000 452.825000 L 368.071000 455.036000 L 371.928000 457.377000 L 375.730000 459.806000 L 379.484000 462.309000" fill="none" id="5" stroke="#58f2c3" stroke-width="0.5" /><path d="M 9.988280 241.609000 L 14.438200 243.840000 L 18.878100 246.091000 L 23.296800 248.384000 L 27.674500 250.753000 L 32.056800 253.114000 L 36.397100 255.551000 L 40.662100 258.118000 L 44.903800 260.723000 L 49.140200 263.337000 L 53.354800 265.986000 L 57.534300 268.690000 L 61.700700 271.414000 L 65.865700 274.140000 L 70.031600 276.865000 L 74.208500 279.573000 L 78.410600 282.241000 L 82.627100 284.887000 L 86.846200 287.529000 L 91.065400 290.171000 L 95.284500 292.812000 L 99.503600 295.454000 L 103.723000 298.096000 L 107.943000 300.735000 L 112.176000 303.355000 L 116.431000 305.938000 L 120.699000 308.500000 L 124.968000 311.061000 L 129.236000 313.622000 L 133.505000 316.183000 L 137.773000 318.744000 L 142.044000 321.301000 L 146.326000 323.840000 L 150.625000 326.350000 L 154.930000 328.848000 L 159.237000 331.345000 L 163.543000 333.843000 L 167.849000 336.340000 L 172.155000 338.837000 L 176.462000 341.334000 L 180.768000 343.831000 L 185.074000 346.328000 L 189.380000 348.826000 L 193.687000 351.321000 L 198.007000 353.795000 L 202.340000 356.246000 L 206.674000 358.694000 L 211.008000 361.142000 L 215.343000 363.591000 L 219.677000 366.039000 L 224.011000 368.487000 L 228.345000 370.935000 L 232.679000 373.384000 L 237.014000 375.832000 L 241.348000 378.280000 L 245.684000 380.725000 L 250.033000 383.148000 L 254.400000 385.536000 L 258.774000 387.912000 L 263.150000 390.286000 L 267.525000 392.660000 L 271.900000 395.035000 L 276.275000 397.409000 L 280.650000 399.783000 L 285.026000 402.157000 L 289.401000 404.532000 L 293.776000 406.906000 L 298.151000 409.280000 L 302.526000 411.654000 L 306.902000 414.029000 L 311.277000 416.403000 L 315.652000 418.777000 L 320.027000 421.151000 L 324.402000 423.526000 L 328.778000 425.900000 L 333.153000 428.274000 L 337.528000 430.649000 L 341.903000 433.023000 L 346.278000 435.397000 L 350.654000 437.771000 L 355.029000 440.146000 L 359.404000 442.520000 L 363.779000 444.894000 L 368.154000 447.268000 L 372.530000 449.643000 L 376.905000 452.017000 L 381.280000 454.391000 L 385.655000 456.765000 L 390.030000 459.140000 L 394.406000 461.514000 L 398.781000 463.888000 L 403.156000 466.262000 L 407.531000 468.637000" fill="none" id="6" stroke="#58f2c3" stroke-width="0.5" /><path d="M 372.191000 452.715000 L 376.846000 450.908000 L 381.433000 448.937000 L 385.864000 446.641000 L 389.970000 443.801000 L 394.149000 441.068000 L 398.327000 438.334000 L 402.506000 435.601000 L 406.684000 432.868000 L 410.863000 430.134000 L 415.041000 427.401000 L 419.220000 424.667000 L 423.397000 421.932000 L 427.560000 419.176000 L 431.698000 416.381000 L 435.835000 413.586000 L 439.973000 410.791000 L 444.111000 407.996000 L 448.248000 405.202000 L 452.386000 402.407000 L 456.524000 399.612000 L 460.661000 396.817000 L 464.799000 394.022000 L 468.936000 391.228000 L 473.074000 388.433000 L 477.212000 385.638000 L 481.349000 382.843000 L 485.487000 380.048000 L 489.625000 377.253000 L 493.762000 374.459000 L 497.900000 371.664000 L 502.038000 368.869000 L 506.175000 366.074000 L 510.313000 363.279000 L 514.450000 360.485000 L 518.588000 357.690000 L 522.726000 354.895000 L 526.863000 352.100000 L 531.002000 349.306000 L 535.151000 346.529000 L 539.315000 343.773000 L 543.479000 341.018000 L 547.644000 338.264000 L 551.808000 335.509000 L 555.973000 332.755000 L 560.137000 330.000000 L 564.302000 327.245000 L 568.466000 324.491000 L 572.631000 321.736000 L 576.795000 318.982000 L 580.960000 316.227000 L 585.124000 313.473000 L 589.289000 310.718000 L 593.449000 307.956000 L 597.596000 305.176000 L 601.741000 302.392000 L 605.886000 299.609000 L 610.032000 296.825000 L 614.177000 294.041000 L 618.322000 291.258000 L 622.467000 288.474000 L 626.612000 285.690000 L 630.757000 282.906000 L 634.902000 280.123000 L 639.047000 277.339000 L 643.192000 274.555000 L 647.338000 271.772000 L 651.483000 268.988000 L 655.628000 266.204000 L 659.773000 263.420000 L 663.918000 260.637000" fill="none" id="7" stroke="#c94e76" stroke-width="0.5" /><path d="M 359.691000 458.246000 L 363.870000 455.571000 L 368.037000 452.877000 L 372.184000 450.152000 L 376.282000 447.355000 L 380.351000 444.516000 L 384.411000 441.663000 L 388.466000 438.804000 L 392.521000 435.945000 L 396.577000 433.086000 L 400.632000 430.226000 L 404.687000 427.367000 L 408.742000 424.508000 L 412.798000 421.649000 L 416.853000 418.790000 L 420.908000 415.931000 L 424.963000 413.071000 L 429.019000 410.212000 L 433.074000 407.353000 L 437.129000 404.494000 L 441.184000 401.635000 L 445.240000 398.776000 L 449.295000 395.916000 L 453.350000 393.057000 L 457.405000 390.198000 L 461.461000 387.339000 L 465.517000 384.481000 L 469.590000 381.648000 L 473.679000 378.837000 L 477.772000 376.032000 L 481.866000 373.228000 L 485.959000 370.424000 L 490.053000 367.620000 L 494.146000 364.816000 L 498.240000 362.012000 L 502.333000 359.208000 L 506.427000 356.403000 L 510.520000 353.599000 L 514.614000 350.795000 L 518.707000 347.991000 L 522.801000 345.187000 L 526.894000 342.383000 L 530.988000 339.579000 L 535.081000 336.775000 L 539.175000 333.971000 L 543.269000 331.167000 L 547.362000 328.363000 L 551.456000 325.558000 L 555.549000 322.754000 L 559.643000 319.950000 L 563.736000 317.146000 L 567.830000 314.342000 L 571.923000 311.538000 L 576.017000 308.734000 L 580.110000 305.930000 L 584.204000 303.126000 L 588.299000 300.323000 L 592.407000 297.541000 L 596.536000 294.789000 L 600.675000 292.053000 L 604.816000 289.320000 L 608.958000 286.588000 L 613.100000 283.855000 L 617.241000 281.123000 L 621.383000 278.390000 L 625.525000 275.658000 L 629.666000 272.925000 L 633.808000 270.193000 L 637.950000 267.460000 L 642.091000 264.727000 L 646.235000 261.998000 L 650.389000 259.284000 L 654.556000 256.590000 L 658.729000 253.907000 L 662.903000 251.223000 L 667.076000 248.539000 L 671.249000 245.855000 L 675.423000 243.172000 L 679.596000 240.488000 L 683.770000 237.804000 L 687.943000 235.120000 L 692.116000 232.437000 L 696.290000 229.753000 L 700.463000 227.069000 L 704.637000 224.385000 L 708.810000 221.702000 L 712.983000 219.018000 L 717.157000 216.334000 L 721.330000 213.650000 L 725.504000 210.967000 L 729.681000 208.289000 L 733.868000 205.626000 L 738.059000 202.971000 L 742.252000 200.317000 L 746.445000 197.664000 L 750.637000 195.010000 L 754.830000 192.356000 L 759.023000 189.703000 L 763.215000 187.049000 L 767.408000 184.396000 L 771.601000 181.742000 L 775.793000 179.089000 L 779.986000 176.435000 L 784.179000 173.781000 L 788.371000 171.128000 L 792.564000 168.473000 L 796.747000 165.805000 L 800.912000 163.108000 L 805.059000 160.384000 L 809.201000 157.652000 L 813.345000 154.923000 L 817.492000 152.199000" fill="none" id="8" stroke="#d271bb" stroke-width="0.5" /><path d="M 777.949000 176.363000 L 773.930000 179.274000 L 769.878000 182.138000 L 765.796000 184.959000 L 761.669000 187.714000 L 757.532000 190.455000 L 753.395000 193.194000 L 749.257000 195.933000 L 745.119000 198.672000 L 740.982000 201.411000 L 736.844000 204.151000 L 732.707000 206.890000 L 728.569000 209.629000 L 724.431000 212.368000 L 720.294000 215.107000 L 716.156000 217.847000 L 712.018000 220.586000 L 707.881000 223.325000 L 703.743000 226.064000 L 699.606000 228.803000 L 695.468000 231.543000 L 691.330000 234.282000 L 687.193000 237.021000 L 683.057000 239.763000 L 678.934000 242.524000 L 674.821000 245.300000 L 670.711000 248.080000 L 666.600000 250.860000 L 662.490000 253.639000 L 658.379000 256.419000 L 654.268000 259.199000 L 650.158000 261.978000 L 646.047000 264.758000 L 641.937000 267.538000 L 637.826000 270.317000 L 633.716000 273.097000 L 629.605000 275.877000 L 625.503000 278.669000 L 621.415000 281.481000 L 617.333000 284.303000 L 613.253000 287.126000 L 609.172000 289.950000 L 605.092000 292.774000 L 601.011000 295.597000 L 596.931000 298.421000 L 592.850000 301.245000 L 588.770000 304.068000 L 584.689000 306.892000 L 580.609000 309.715000 L 576.528000 312.539000 L 572.448000 315.363000 L 568.367000 318.186000 L 564.287000 321.010000 L 560.207000 323.834000 L 556.126000 326.657000 L 552.038000 329.470000 L 547.917000 332.233000 L 543.752000 334.931000 L 539.574000 337.608000 L 535.394000 340.283000 L 531.215000 342.957000 L 527.035000 345.632000 L 522.855000 348.307000 L 518.676000 350.981000 L 514.496000 353.656000 L 510.317000 356.331000 L 506.137000 359.006000 L 501.959000 361.683000 L 497.789000 364.373000 L 493.633000 367.084000 L 489.484000 369.805000 L 485.335000 372.527000 L 481.186000 375.249000 L 477.037000 377.971000 L 472.888000 380.693000 L 468.739000 383.415000 L 464.590000 386.137000 L 460.441000 388.858000 L 456.292000 391.580000 L 452.143000 394.302000 L 447.994000 397.024000 L 443.847000 399.749000 L 439.743000 402.538000 L 435.679000 405.387000 L 431.622000 408.243000 L 427.564000 411.099000 L 423.506000 413.955000 L 419.448000 416.811000 L 415.390000 419.667000 L 411.329000 422.518000 L 407.247000 425.339000 L 403.149000 428.138000 L 399.050000 430.934000 L 394.951000 433.731000 L 390.852000 436.528000 L 386.753000 439.325000 L 382.654000 442.121000 L 378.565000 444.931000 L 374.517000 447.801000 L 370.536000 450.763000 L 366.579000 453.757000 L 362.628000 456.760000 L 358.683000 459.769000 L 354.655000 462.668000 L 350.575000 465.491000 L 346.469000 468.277000" fill="none" id="9" stroke="#d271bb" stroke-width="0.5" /><path d="M 467.672000 373.574000 L 464.093000 376.495000 L 460.514000 379.416000 L 456.936000 382.336000 L 453.357000 385.257000 L 449.778000 388.178000 L 446.199000 391.098000 L 442.621000 394.019000 L 439.042000 396.940000 L 435.463000 399.861000 L 431.884000 402.781000 L 428.306000 405.702000 L 424.741000 408.640000 L 421.270000 411.688000 L 417.846000 414.788000 L 414.429000 417.897000 L 411.013000 421.007000 L 407.597000 424.116000 L 404.181000 427.225000 L 400.765000 430.335000 L 397.322000 433.414000 L 393.831000 436.439000 L 390.313000 439.433000 L 386.784000 442.413000 L 383.200000 445.327000 L 379.538000 448.143000 L 375.839000 450.910000 L 372.135000 453.670000 L 368.218000 456.110000 L 364.059000 458.111000 L 359.730000 459.719000" fill="none" id="10" stroke="#d271bb" stroke-width="0.5" /><path d="M 0.250000 245.867000 L 4.908930 244.086000 L 9.562430 242.291000 L 14.208000 240.475000 L 18.840500 238.626000 L 23.444300 236.708000 L 28.048600 234.790000 L 32.656300 232.880000 L 37.265600 230.974000 L 41.917500 229.176000 L 46.592900 227.439000 L 51.285300 225.748000 L 55.979500 224.062000 L 60.673800 222.376000 L 65.368000 220.690000 L 70.062300 219.004000 L 74.756500 217.319000 L 79.450800 215.633000 L 84.145000 213.947000 L 88.839300 212.261000 L 93.528600 210.562000 L 98.208600 208.837000 L 102.879000 207.087000 L 107.547000 205.328000 L 112.214000 203.569000 L 116.881000 201.809000 L 121.548000 200.050000 L 126.215000 198.290000 L 130.882000 196.531000 L 135.550000 194.771000 L 140.217000 193.011000 L 144.884000 191.252000 L 149.551000 189.492000 L 154.218000 187.733000 L 158.885000 185.973000 L 163.552000 184.214000 L 168.219000 182.454000 L 172.886000 180.694000 L 177.553000 178.935000 L 182.221000 177.175000 L 186.888000 175.416000 L 191.555000 173.656000 L 196.222000 171.897000 L 200.889000 170.137000 L 205.556000 168.377000 L 210.223000 166.618000 L 214.890000 164.856000 L 219.550000 163.078000 L 224.203000 161.282000 L 228.848000 159.465000 L 233.491000 157.644000 L 238.135000 155.822000 L 242.778000 154.001000 L 247.421000 152.179000 L 252.064000 150.357000 L 256.707000 148.535000 L 261.350000 146.713000 L 265.993000 144.891000 L 270.637000 143.070000 L 275.280000 141.248000 L 279.923000 139.426000 L 284.566000 137.604000 L 289.209000 135.782000 L 293.852000 133.960000 L 298.496000 132.139000 L 303.139000 130.317000 L 307.782000 128.495000 L 312.425000 126.673000 L 317.068000 124.851000 L 321.711000 123.029000 L 326.355000 121.208000 L 330.998000 119.386000 L 335.641000 117.564000 L 340.284000 115.742000 L 344.927000 113.920000 L 349.570000 112.099000 L 354.214000 110.277000 L 358.857000 108.455000 L 363.500000 106.633000 L 368.143000 104.811000 L 372.786000 102.989000 L 377.429000 101.168000 L 382.072000 99.345700 L 386.716000 97.523900 L 391.359000 95.702100 L 396.002000 93.881200 L 400.647000 92.062800 L 405.298000 90.262400 L 409.956000 88.477800 L 414.618000 86.705200 L 419.281000 84.935300 L 423.945000 83.165500 L 428.608000 81.395600 L 433.271000 79.625700 L 437.934000 77.855800 L 442.597000 76.085900 L 447.261000 74.316300 L 451.924000 72.547200 L 456.593000 70.790900 L 461.268000 69.053900 L 465.949000 67.330700 L 470.632000 65.614400 L 475.315000 63.898000 L 479.998000 62.181700 L 484.681000 60.465400 L 489.365000 58.749000 L 494.048000 57.032700 L 498.731000 55.316300 L 503.414000 53.600000 L 508.097000 51.883700 L 512.780000 50.167300 L 517.464000 48.451000 L 522.147000 46.734700 L 526.830000 45.018300 L 531.513000 43.302000 L 536.196000 41.585700 L 540.880000 39.869300 L 545.563000 38.153000 L 550.246000 36.436600 L 554.929000 34.720300 L 559.612000 33.004000 L 564.295000 31.287600 L 568.979000 29.571300 L 573.662000 27.855000 L 578.345000 26.138600 L 583.028000 24.422300 L 587.711000 22.705900 L 592.395000 20.989500 L 597.076000 19.268000 L 601.744000 17.511700 L 606.401000 15.724800 L 611.051000 13.921600 L 615.702000 12.118300 L 620.341000 10.287500 L 624.965000 8.416640 L 629.557000 6.470670 L 634.125000 4.467780 L 638.663000 2.398430 L 643.164000 0.250000" fill="none" id="11" stroke="#3d8e43" stroke-width="0.5" /><path d="M 705.027000 55.703100 L 700.641000 58.051100 L 696.256000 60.399700 L 691.871000 62.749700 L 687.488000 65.101800 L 683.106000 67.457800 L 678.724000 69.812700 L 674.342000 72.167700 L 669.960000 74.522600 L 665.578000 76.877600 L 661.195000 79.232500 L 656.813000 81.587500 L 652.431000 83.942400 L 648.049000 86.297400 L 643.667000 88.652300 L 639.285000 91.007300 L 634.895000 93.346700 L 630.494000 95.666400 L 626.087000 97.974800 L 621.679000 100.281000 L 617.271000 102.586000 L 612.862000 104.892000 L 608.454000 107.198000 L 604.046000 109.504000 L 599.638000 111.810000 L 595.230000 114.116000 L 590.822000 116.421000 L 586.414000 118.727000 L 582.005000 121.033000 L 577.597000 123.339000 L 573.189000 125.645000 L 568.781000 127.951000 L 564.373000 130.256000 L 559.961000 132.555000 L 555.539000 134.835000 L 551.101000 137.082000 L 546.658000 139.321000 L 542.214000 141.557000 L 537.770000 143.793000 L 533.327000 146.029000 L 528.883000 148.265000 L 524.439000 150.502000 L 519.995000 152.738000 L 515.551000 154.974000 L 511.107000 157.210000 L 506.663000 159.446000 L 502.219000 161.683000 L 497.776000 163.919000 L 493.332000 166.155000 L 488.888000 168.391000 L 484.444000 170.627000 L 480.000000 172.864000 L 475.556000 175.100000 L 471.112000 177.336000 L 466.668000 179.572000 L 462.224000 181.808000 L 457.784000 184.051000 L 453.349000 186.305000 L 448.921000 188.573000 L 444.498000 190.849000 L 440.074000 193.126000 L 435.651000 195.402000 L 431.228000 197.678000 L 426.804000 199.955000 L 422.381000 202.231000 L 417.957000 204.508000 L 413.534000 206.784000 L 409.110000 209.060000 L 404.687000 211.337000 L 400.263000 213.613000 L 395.840000 215.889000 L 391.417000 218.166000 L 386.993000 220.442000 L 382.570000 222.719000 L 378.146000 224.995000 L 373.723000 227.271000 L 369.299000 229.548000 L 364.876000 231.824000 L 360.453000 234.101000 L 356.029000 236.377000 L 351.606000 238.653000 L 347.182000 240.930000 L 342.759000 243.206000 L 338.335000 245.482000 L 333.912000 247.759000 L 329.489000 250.035000 L 325.065000 252.312000 L 320.642000 254.589000 L 316.221000 256.869000 L 311.808000 259.166000 L 307.400000 261.472000 L 302.994000 263.783000 L 298.589000 266.093000 L 294.183000 268.404000 L 289.777000 270.714000 L 285.372000 273.025000 L 280.966000 275.335000 L 276.561000 277.647000 L 272.158000 279.963000 L 267.772000 282.310000 L 263.403000 284.690000 L 259.043000 287.085000 L 254.682000 289.480000 L 250.322000 291.874000 L 245.961000 294.269000 L 241.601000 296.664000 L 237.240000 299.059000 L 232.880000 301.454000 L 228.519000 303.848000 L 224.159000 306.243000 L 219.799000 308.638000 L 215.438000 311.033000 L 211.078000 313.428000 L 206.717000 315.822000 L 202.357000 318.217000 L 197.996000 320.612000 L 193.631000 322.997000 L 189.253000 325.361000 L 184.862000 327.700000 L 180.472000 330.038000 L 176.081000 332.377000 L 171.690000 334.716000 L 167.300000 337.055000 L 162.920000 339.414000 L 158.468000 341.633000 L 153.964000 343.744000 L 149.422000 345.773000 L 144.852000 347.738000" fill="none" id="12" stroke="#00d4db" stroke-width="0.5" /><path d="M 523.563000 152.996000 L 520.644000 154.305000 L 517.725000 155.613000 L 514.807000 156.922000 L 511.888000 158.230000 L 508.970000 159.539000 L 506.051000 160.847000 L 503.133000 162.156000 L 500.214000 163.464000 L 497.296000 164.773000 L 494.377000 166.081000 L 491.459000 167.390000 L 488.540000 168.698000 L 485.622000 170.007000 L 482.703000 171.315000 L 479.785000 172.624000 L 476.866000 173.932000 L 473.948000 175.241000 L 471.029000 176.549000 L 468.111000 177.859000 L 465.196000 179.175000 L 462.291000 180.514000 L 459.392000 181.865000 L 456.495000 183.220000 L 453.600000 184.579000 L 450.719000 185.968000 L 447.865000 187.411000 L 445.022000 188.876000 L 442.157000 190.299000 L 439.275000 191.686000 L 436.379000 193.043000" fill="none" id="13" stroke="#00d4db" stroke-width="0.5" /><path d="M 165.047000 341.250000 L 169.239000 338.597000 L 173.453000 335.979000 L 177.706000 333.424000 L 182.153000 331.229000 L 186.586000 329.002000 L 190.995000 326.727000 L 195.395000 324.436000 L 199.790000 322.133000 L 204.159000 319.783000 L 208.515000 317.409000 L 212.865000 315.023000 L 217.215000 312.637000 L 221.564000 310.250000 L 225.914000 307.864000 L 230.264000 305.478000 L 234.613000 303.091000 L 238.963000 300.705000 L 243.312000 298.319000 L 247.662000 295.932000 L 252.012000 293.546000 L 256.361000 291.160000 L 260.711000 288.773000 L 265.061000 286.387000 L 269.410000 284.001000 L 273.760000 281.614000 L 278.112000 279.233000 L 282.474000 276.870000 L 286.855000 274.542000 L 291.266000 272.271000 L 295.679000 270.003000 L 300.091000 267.735000 L 304.504000 265.468000 L 308.917000 263.200000 L 313.329000 260.932000 L 317.742000 258.665000 L 322.155000 256.397000 L 326.567000 254.129000 L 330.980000 251.862000 L 335.393000 249.594000 L 339.805000 247.326000 L 344.218000 245.059000 L 348.631000 242.791000 L 353.043000 240.523000 L 357.456000 238.256000 L 361.868000 235.988000 L 366.281000 233.720000 L 370.694000 231.453000 L 375.106000 229.185000 L 379.519000 226.917000 L 383.932000 224.650000 L 388.344000 222.382000 L 392.757000 220.114000 L 397.170000 217.847000 L 401.582000 215.579000 L 405.995000 213.311000 L 410.408000 211.044000 L 414.830000 208.796000 L 419.270000 206.582000 L 423.720000 204.388000 L 428.171000 202.197000 L 432.622000 200.006000 L 437.073000 197.815000 L 441.524000 195.624000 L 445.976000 193.432000 L 450.427000 191.241000 L 454.887000 189.068000 L 459.354000 186.911000 L 463.827000 184.764000 L 468.300000 182.619000 L 472.774000 180.474000 L 477.247000 178.329000 L 481.721000 176.184000 L 486.195000 174.039000 L 490.668000 171.894000 L 495.145000 169.755000 L 499.625000 167.623000 L 504.106000 165.494000 L 508.588000 163.366000 L 513.069000 161.238000 L 517.551000 159.110000 L 522.033000 156.983000 L 526.514000 154.855000 L 530.996000 152.727000 L 535.478000 150.599000 L 539.959000 148.471000 L 544.441000 146.343000 L 548.923000 144.215000 L 553.405000 142.087000 L 557.886000 139.959000 L 562.368000 137.831000 L 566.850000 135.703000 L 571.331000 133.575000 L 575.813000 131.448000 L 580.295000 129.320000 L 584.777000 127.192000 L 589.258000 125.064000 L 593.740000 122.936000 L 598.222000 120.808000 L 602.703000 118.680000 L 607.185000 116.552000 L 611.667000 114.424000 L 616.148000 112.296000 L 620.630000 110.168000 L 625.112000 108.040000 L 629.594000 105.912000 L 634.075000 103.785000 L 638.557000 101.657000 L 643.039000 99.528700 L 647.520000 97.400700 L 652.002000 95.272600 L 656.476000 93.128800 L 660.926000 90.935600 L 665.365000 88.719100 L 669.803000 86.501600 L 674.241000 84.284100 L 678.678000 82.065300 L 683.108000 79.831600 L 687.512000 77.548100 L 691.889000 75.212200 L 696.263000 72.870600 L 700.636000 70.527000 L 705.009000 68.184100 L 709.382000 65.841500 L 713.756000 63.498900 L 718.129000 61.156300" fill="none" id="14" stroke="#d55969" stroke-width="0.5" /><path d="M 524.527000 163.941000 L 521.425000 165.580000 L 518.322000 167.219000 L 515.219000 168.858000 L 512.117000 170.496000 L 509.014000 172.135000 L 505.911000 173.774000 L 502.809000 175.413000 L 499.706000 177.051000 L 496.603000 178.690000 L 493.501000 180.329000 L 490.401000 181.972000 L 487.313000 183.640000 L 484.252000 185.355000 L 481.215000 187.111000 L 478.185000 188.880000 L 475.155000 190.650000 L 472.125000 192.419000 L 469.095000 194.189000 L 466.065000 195.958000 L 463.035000 197.728000 L 460.005000 199.497000 L 456.975000 201.267000 L 453.945000 203.036000 L 450.915000 204.806000 L 447.885000 206.575000 L 444.855000 208.345000 L 441.819000 210.103000 L 438.717000 211.744000 L 435.564000 213.282000 L 432.371000 214.738000" fill="none" id="15" stroke="#64e4ff" stroke-width="0.5" /><path d="M 5.621100 245.191000 L 10.592500 245.064000 L 15.564300 244.951000 L 20.536400 244.856000 L 25.509200 244.807000 L 30.482000 244.820000 L 35.455000 244.856000 L 40.428000 244.877000 L 45.401000 244.886000 L 50.373400 244.840000 L 55.344700 244.710000 L 60.315500 244.560000 L 65.286100 244.403000 L 70.256300 244.236000 L 75.224100 244.008000 L 80.191800 243.777000 L 85.159300 243.543000 L 90.126900 243.309000 L 95.094400 243.075000 L 100.061800 242.838000 L 105.029000 242.593000 L 109.994000 242.314000 L 114.959000 242.027000 L 119.923000 241.737000 L 124.888000 241.447000 L 129.853000 241.157000 L 134.817000 240.867000 L 139.782000 240.576000 L 144.746000 240.286000 L 149.711000 239.996000 L 154.675000 239.706000 L 159.640000 239.416000 L 164.605000 239.125000 L 169.569000 238.835000 L 174.536000 238.579000 L 179.503000 238.340000 L 184.471000 238.114000 L 189.439000 237.894000 L 194.407000 237.675000 L 199.375000 237.455000 L 204.343000 237.235000 L 209.312000 237.015000 L 214.280000 236.795000 L 219.248000 236.575000 L 224.217000 236.364000 L 229.186000 236.172000 L 234.156000 236.000000 L 239.127000 235.846000 L 244.097000 235.692000 L 249.068000 235.539000 L 254.039000 235.385000 L 259.009000 235.231000 L 263.980000 235.078000 L 268.951000 234.924000 L 273.921000 234.770000 L 278.892000 234.616000 L 283.863000 234.463000 L 288.833000 234.309000 L 293.804000 234.155000 L 298.775000 234.002000 L 303.745000 233.848000 L 308.716000 233.694000 L 313.687000 233.545000 L 318.658000 233.410000 L 323.630000 233.295000 L 328.602000 233.186000 L 333.574000 233.082000 L 338.546000 232.978000 L 343.518000 232.874000 L 348.489000 232.770000 L 353.461000 232.665000 L 358.433000 232.564000 L 363.406000 232.469000 L 368.378000 232.398000 L 373.351000 232.349000 L 378.324000 232.308000 L 383.297000 232.267000 L 388.270000 232.226000 L 393.242000 232.186000 L 398.215000 232.145000 L 403.188000 232.104000 L 408.161000 232.069000 L 413.134000 232.045000 L 418.107000 232.048000 L 423.080000 232.069000 L 428.053000 232.097000 L 433.026000 232.126000 L 437.999000 232.154000 L 442.972000 232.183000 L 447.945000 232.212000 L 452.918000 232.240000 L 457.891000 232.283000 L 462.863000 232.345000 L 467.835000 232.469000 L 472.806000 232.606000 L 477.777000 232.752000 L 482.748000 232.897000 L 487.719000 233.043000 L 492.690000 233.188000 L 497.661000 233.334000 L 502.632000 233.479000 L 507.602000 233.625000 L 512.573000 233.771000 L 517.544000 233.916000 L 522.515000 234.062000 L 527.486000 234.207000 L 532.457000 234.353000 L 537.428000 234.498000 L 542.399000 234.644000 L 547.370000 234.789000 L 552.341000 234.935000 L 557.312000 235.080000 L 562.283000 235.226000 L 567.253000 235.371000 L 572.224000 235.515000 L 577.195000 235.655000 L 582.167000 235.775000 L 587.139000 235.871000 L 592.112000 235.955000 L 597.084000 236.039000 L 602.056000 236.123000 L 607.029000 236.207000 L 612.001000 236.290000 L 616.974000 236.355000 L 621.946000 236.390000 L 626.919000 236.395000 L 631.892000 236.395000 L 636.866000 236.395000 L 641.839000 236.395000 L 646.812000 236.395000 L 651.785000 236.395000 L 656.758000 236.395000 L 661.731000 236.395000 L 666.704000 236.395000 L 671.677000 236.395000 L 676.650000 236.395000 L 681.623000 236.395000 L 686.595000 236.314000 L 691.565000 236.160000 L 696.533000 235.924000 L 701.500000 235.681000 L 706.452000 235.296000 L 711.362000 234.505000 L 716.190000 233.324000 L 720.956000 231.919000 L 725.660000 230.305000" fill="none" id="16" stroke="#e68e54" stroke-width="0.5" /><path d="M 9.828130 244.594000 L 14.822000 244.592000 L 19.815800 244.587000 L 24.809600 244.575000 L 29.803400 244.546000 L 34.796800 244.487000 L 39.787900 244.342000 L 44.776400 244.111000 L 49.763300 243.849000 L 54.750200 243.585000 L 59.737100 243.321000 L 64.723900 243.057000 L 69.710800 242.793000 L 74.697600 242.529000 L 79.684500 242.265000 L 84.671400 242.001000 L 89.658200 241.738000 L 94.645100 241.474000 L 99.631900 241.210000 L 104.619000 240.946000 L 109.606000 240.686000 L 114.594000 240.441000 L 119.583000 240.220000 L 124.572000 240.012000 L 129.562000 239.804000 L 134.551000 239.598000 L 139.541000 239.397000 L 144.533000 239.282000 L 149.527000 239.216000 L 154.520000 239.190000 L 159.514000 239.175000 L 164.508000 239.160000 L 169.502000 239.145000 L 174.496000 239.131000 L 179.489000 239.116000 L 184.483000 239.101000 L 189.477000 239.086000 L 194.471000 239.071000 L 199.465000 239.056000 L 204.459000 239.041000 L 209.452000 239.027000 L 214.446000 239.012000 L 219.440000 238.997000 L 224.434000 238.982000 L 229.428000 238.967000 L 234.421000 238.952000 L 239.415000 238.937000 L 244.409000 238.922000 L 249.403000 238.908000 L 254.397000 238.893000 L 259.391000 238.871000 L 264.384000 238.839000 L 269.378000 238.772000 L 274.371000 238.693000 L 279.364000 238.609000 L 284.357000 238.525000 L 289.350000 238.440000 L 294.343000 238.356000 L 299.336000 238.272000 L 304.330000 238.188000 L 309.323000 238.103000 L 314.316000 238.019000 L 319.309000 237.935000 L 324.302000 237.850000 L 329.295000 237.766000 L 334.288000 237.682000 L 339.281000 237.598000 L 344.275000 237.513000 L 349.268000 237.429000 L 354.261000 237.345000 L 359.254000 237.261000 L 364.247000 237.176000 L 369.240000 237.092000 L 374.233000 237.008000 L 379.227000 236.923000 L 384.220000 236.842000 L 389.213000 236.771000 L 394.207000 236.722000 L 399.200000 236.708000 L 404.194000 236.699000 L 409.188000 236.693000 L 414.182000 236.687000 L 419.176000 236.686000 L 424.169000 236.704000 L 429.163000 236.752000 L 434.156000 236.861000 L 439.148000 236.980000 L 444.140000 237.103000 L 449.133000 237.226000 L 454.125000 237.350000 L 459.117000 237.473000 L 464.110000 237.596000 L 469.102000 237.719000 L 474.094000 237.843000 L 479.087000 237.966000 L 484.079000 238.089000 L 489.071000 238.213000 L 494.064000 238.336000 L 499.056000 238.459000 L 504.048000 238.583000 L 509.041000 238.706000 L 514.033000 238.825000 L 519.026000 238.936000 L 524.019000 239.023000 L 529.012000 239.091000 L 534.005000 239.153000 L 538.999000 239.215000 L 543.992000 239.277000 L 548.986000 239.339000 L 553.979000 239.402000 L 558.973000 239.464000 L 563.966000 239.526000 L 568.960000 239.588000 L 573.953000 239.650000 L 578.947000 239.712000 L 583.940000 239.775000 L 588.933000 239.837000 L 593.927000 239.899000 L 598.920000 239.967000 L 603.913000 240.062000 L 608.906000 240.181000 L 613.897000 240.329000 L 618.889000 240.484000 L 623.879000 240.677000 L 628.867000 240.908000 L 633.855000 241.157000 L 638.842000 241.409000 L 643.829000 241.678000 L 648.814000 241.973000 L 653.794000 242.337000 L 658.775000 242.703000 L 663.755000 243.069000 L 668.736000 243.436000 L 673.716000 243.802000 L 678.696000 244.175000 L 683.676000 244.548000 L 688.660000 244.864000 L 693.647000 245.123000 L 698.635000 245.348000 L 703.625000 245.551000" fill="none" id="17" stroke="#54aeff" stroke-width="0.5" /><path d="M 465.668000 130.824000 L 469.538000 132.861000 L 473.463000 134.790000 L 477.460000 136.564000 L 481.504000 138.229000 L 485.594000 139.778000 L 489.690000 141.310000 L 493.789000 142.834000 L 497.905000 144.311000 L 502.042000 145.730000 L 506.187000 147.126000 L 510.333000 148.518000 L 514.479000 149.910000 L 518.624000 151.303000 L 522.770000 152.695000 L 526.916000 154.087000 L 531.062000 155.479000 L 535.208000 156.872000 L 539.354000 158.264000 L 543.495000 159.670000 L 547.623000 161.114000 L 551.740000 162.589000 L 555.854000 164.072000 L 559.963000 165.571000 L 564.053000 167.120000 L 568.125000 168.714000 L 572.195000 170.316000 L 576.264000 171.917000 L 580.334000 173.519000 L 584.403000 175.121000 L 588.473000 176.723000" fill="none" id="18" stroke="#eed973" stroke-width="0.5" /><path d="M 404.566000 168.281000 L 403.767000 168.297000 L 402.968000 168.313000 L 402.168000 168.329000 L 401.369000 168.345000 L 400.569000 168.361000 L 399.770000 168.377000 L 398.971000 168.393000 L 398.171000 168.409000 L 397.372000 168.425000 L 396.573000 168.441000 L 395.773000 168.457000 L 394.974000 168.473000 L 394.174000 168.489000 L 393.375000 168.505000 L 392.576000 168.521000 L 391.776000 168.538000 L 390.977000 168.555000 L 390.178000 168.572000 L 389.378000 168.583000 L 388.579000 168.594000 L 387.779000 168.608000 L 386.980000 168.621000 L 386.180000 168.618000 L 385.381000 168.614000 L 384.581000 168.603000 L 383.782000 168.592000 L 382.983000 168.567000 L 382.183000 168.542000 L 381.385000 168.500000 L 380.587000 168.458000" fill="none" id="19" stroke="#008bd4" stroke-width="0.5" /><path d="M 380.587000 168.458000 L 385.536000 168.031000 L 390.492000 167.675000 L 395.453000 167.408000 L 400.418000 167.249000 L 405.386000 167.186000 L 410.354000 167.156000 L 415.322000 167.130000 L 420.290000 167.115000 L 425.258000 167.152000 L 430.226000 167.244000 L 435.193000 167.347000 L 440.160000 167.450000 L 445.127000 167.553000 L 450.094000 167.656000 L 455.061000 167.759000 L 460.028000 167.862000 L 464.995000 167.964000 L 469.963000 168.067000 L 474.930000 168.170000 L 479.897000 168.270000 L 484.864000 168.356000 L 489.832000 168.418000 L 494.800000 168.469000 L 499.768000 168.519000 L 504.736000 168.569000 L 509.704000 168.619000 L 514.672000 168.669000 L 519.640000 168.719000 L 524.608000 168.769000 L 529.575000 168.818000 L 534.543000 168.868000 L 539.511000 168.917000 L 544.479000 168.953000 L 549.448000 168.965000 L 554.416000 168.970000 L 559.384000 168.974000 L 564.352000 168.978000 L 569.320000 168.982000 L 574.288000 168.986000 L 579.257000 168.990000 L 584.225000 168.994000 L 589.193000 168.981000 L 594.157000 168.785000 L 599.113000 168.438000 L 604.059000 167.965000" fill="none" id="20" stroke="#008bd4" stroke-width="0.5" /><path d="M 326.875000 111.953000 L 331.465000 113.828000 L 336.065000 115.679000 L 340.683000 117.483000 L 345.337000 119.195000 L 349.983000 120.925000 L 354.630000 122.656000 L 359.276000 124.386000 L 363.923000 126.117000 L 368.570000 127.847000 L 373.216000 129.578000 L 377.838000 131.373000 L 382.428000 133.247000 L 387.014000 135.132000 L 391.600000 137.017000 L 396.186000 138.902000 L 400.772000 140.787000 L 405.358000 142.672000 L 409.944000 144.557000 L 414.530000 146.442000 L 419.125000 148.305000 L 423.745000 150.107000 L 428.372000 151.888000 L 433.000000 153.668000 L 437.635000 155.428000 L 442.301000 157.106000 L 446.987000 158.727000 L 451.677000 160.336000 L 456.367000 161.945000 L 461.057000 163.554000 L 465.746000 165.164000 L 470.436000 166.773000 L 475.126000 168.382000 L 479.816000 169.991000 L 484.506000 171.600000 L 489.196000 173.210000 L 493.882000 174.829000 L 498.558000 176.480000 L 503.224000 178.157000 L 507.888000 179.839000 L 512.552000 181.521000 L 517.217000 183.203000 L 521.881000 184.885000 L 526.545000 186.568000 L 531.203000 188.268000 L 535.845000 190.010000 L 540.476000 191.780000 L 545.108000 193.550000 L 549.739000 195.321000 L 554.371000 197.091000 L 559.002000 198.861000 L 563.634000 200.631000 L 568.265000 202.401000 L 572.897000 204.171000 L 577.529000 205.942000 L 582.160000 207.712000 L 586.792000 209.482000 L 591.423000 211.252000 L 596.055000 213.022000 L 600.688000 214.789000 L 605.329000 216.534000 L 609.985000 218.238000 L 614.647000 219.927000 L 619.308000 221.617000 L 623.970000 223.307000 L 628.631000 224.996000 L 633.293000 226.686000 L 637.954000 228.375000 L 642.616000 230.065000 L 647.278000 231.754000 L 651.942000 233.435000 L 656.618000 235.086000 L 661.294000 236.733000 L 665.971000 238.381000 L 670.647000 240.029000 L 675.324000 241.676000 L 680.000000 243.324000 L 684.677000 244.972000 L 689.353000 246.619000 L 694.030000 248.267000 L 698.706000 249.915000 L 703.383000 251.563000" fill="none" id="21" stroke="#fdb968" stroke-width="0.5" /><path d="M 436.418000 155.902000 L 439.735000 156.349000 L 443.018000 156.999000 L 446.226000 157.955000 L 449.377000 159.082000 L 452.544000 160.166000 L 455.714000 161.240000 L 458.887000 162.304000 L 462.070000 163.339000 L 465.268000 164.328000 L 468.472000 165.294000 L 471.678000 166.256000 L 474.884000 167.218000 L 478.090000 168.179000 L 481.289000 169.161000 L 484.476000 170.185000 L 487.651000 171.245000 L 490.820000 172.320000 L 493.990000 173.396000 L 497.161000 174.466000 L 500.342000 175.506000 L 503.542000 176.488000 L 506.754000 177.427000 L 509.954000 178.408000 L 513.129000 179.467000 L 516.291000 180.566000 L 519.454000 181.661000 L 522.632000 182.710000 L 525.829000 183.701000 L 528.990000 184.800000 L 532.090000 186.062000 L 535.145000 187.430000" fill="none" id="22" stroke="#fdb968" stroke-width="0.5" /><path d="M 540.672000 190.656000 L 543.606000 191.404000 L 546.503000 192.284000 L 549.338000 193.340000 L 552.111000 194.552000 L 554.845000 195.854000 L 557.577000 197.158000 L 560.310000 198.462000 L 563.043000 199.767000 L 565.776000 201.071000 L 568.508000 202.375000 L 571.241000 203.679000 L 573.974000 204.983000 L 576.707000 206.287000 L 579.447000 207.575000 L 582.204000 208.827000 L 584.983000 210.028000 L 587.784000 211.177000 L 590.603000 212.284000 L 593.429000 213.370000 L 596.256000 214.456000 L 599.083000 215.541000 L 601.909000 216.627000 L 604.735000 217.714000 L 607.559000 218.806000 L 610.365000 219.945000 L 613.130000 221.177000 L 615.875000 222.456000 L 618.587000 223.800000 L 621.254000 225.233000 L 623.891000 226.723000" fill="none" id="23" stroke="#fdb968" stroke-width="0.5" /><path d="M 330.523000 118.324000 L 335.194000 119.993000 L 339.865000 121.662000 L 344.537000 123.331000 L 349.208000 125.000000 L 353.879000 126.669000 L 358.550000 128.339000 L 363.221000 130.008000 L 367.868000 131.742000 L 372.468000 133.597000 L 377.064000 135.464000 L 381.659000 137.330000 L 386.255000 139.197000 L 390.851000 141.063000 L 395.452000 142.917000 L 400.070000 144.727000 L 404.697000 146.515000 L 409.325000 148.300000 L 413.953000 150.085000 L 418.581000 151.869000 L 423.223000 153.616000 L 427.892000 155.291000 L 432.567000 156.949000 L 437.242000 158.607000 L 441.917000 160.265000 L 446.592000 161.923000 L 451.267000 163.581000 L 455.942000 165.239000 L 460.617000 166.897000 L 465.292000 168.555000 L 469.967000 170.212000 L 474.642000 171.870000 L 479.317000 173.529000 L 483.987000 175.201000 L 488.648000 176.896000 L 493.307000 178.599000 L 497.966000 180.302000 L 502.621000 182.016000 L 507.255000 183.785000 L 511.867000 185.611000 L 516.460000 187.482000 L 521.032000 189.406000 L 525.594000 191.355000 L 530.156000 193.303000 L 534.717000 195.251000 L 539.279000 197.199000 L 543.840000 199.147000 L 548.393000 201.117000 L 552.909000 203.169000 L 557.395000 205.285000 L 561.879000 207.406000 L 566.363000 209.526000 L 570.848000 211.646000 L 575.332000 213.767000 L 579.816000 215.887000 L 584.300000 218.007000 L 588.785000 220.127000 L 593.269000 222.248000 L 597.753000 224.368000 L 602.237000 226.488000 L 606.722000 228.609000 L 611.206000 230.729000 L 615.690000 232.849000 L 620.174000 234.970000 L 624.659000 237.090000 L 629.143000 239.210000 L 633.627000 241.331000 L 638.117000 243.438000 L 642.630000 245.497000 L 647.162000 247.514000 L 651.694000 249.531000 L 656.225000 251.548000 L 660.757000 253.565000 L 665.288000 255.582000 L 669.820000 257.600000 L 674.352000 259.617000 L 678.883000 261.634000 L 683.415000 263.651000 L 687.946000 265.668000 L 692.478000 267.685000 L 697.009000 269.703000 L 701.536000 271.731000 L 706.053000 273.781000 L 710.570000 275.831000 L 715.087000 277.880000 L 719.604000 279.930000 L 724.121000 281.979000 L 728.638000 284.029000 L 733.155000 286.079000 L 737.672000 288.128000 L 742.189000 290.178000 L 746.706000 292.228000 L 751.223000 294.277000" fill="none" id="24" stroke="#6f73bc" stroke-width="0.5" /><path d="M 440.105000 166.492000 L 443.343000 167.528000 L 446.554000 168.642000 L 449.724000 169.868000 L 452.862000 171.175000 L 456.006000 172.466000 L 459.159000 173.735000 L 462.315000 174.997000 L 465.471000 176.259000 L 468.628000 177.520000 L 471.784000 178.782000 L 474.940000 180.043000 L 478.097000 181.305000 L 481.253000 182.566000 L 484.409000 183.828000 L 487.566000 185.089000 L 490.722000 186.351000 L 493.879000 187.610000 L 497.044000 188.849000 L 500.232000 190.029000 L 503.444000 191.141000 L 506.664000 192.229000 L 509.892000 193.294000 L 513.138000 194.301000 L 516.398000 195.264000 L 519.659000 196.222000 L 522.920000 197.181000 L 526.176000 198.157000 L 529.407000 199.212000 L 532.608000 200.356000 L 535.785000 201.563000" fill="none" id="25" stroke="#bee481" stroke-width="0.5" /><path d="M 335.371000 113.863000 L 336.480000 118.709000 L 337.526000 123.569000 L 338.419000 128.458000 L 338.960000 133.400000 L 339.494000 138.342000 L 339.949000 143.293000 L 340.401000 148.243000 L 340.853000 153.194000 L 341.305000 158.144000 L 341.757000 163.095000 L 342.209000 168.045000 L 342.661000 172.996000 L 343.113000 177.947000 L 343.565000 182.897000 L 344.017000 187.848000 L 344.474000 192.798000 L 344.954000 197.746000 L 345.463000 202.691000 L 345.978000 207.635000 L 346.494000 212.579000 L 347.010000 217.524000 L 347.526000 222.468000 L 348.042000 227.412000 L 348.558000 232.357000 L 349.072000 237.301000 L 349.577000 242.247000 L 350.061000 247.194000 L 350.535000 252.143000 L 351.007000 257.091000 L 351.479000 262.040000 L 351.930000 266.990000 L 352.338000 271.945000 L 352.725000 276.901000 L 353.111000 281.857000 L 353.497000 286.813000 L 353.883000 291.769000 L 354.269000 296.726000 L 354.655000 301.682000 L 355.041000 306.638000 L 355.427000 311.594000 L 355.813000 316.550000 L 356.199000 321.506000 L 356.585000 326.462000 L 356.971000 331.418000 L 357.357000 336.375000 L 357.743000 341.331000 L 358.129000 346.287000 L 358.515000 351.243000 L 358.908000 356.199000 L 359.327000 361.152000 L 359.778000 366.103000 L 360.242000 371.052000 L 360.708000 376.001000 L 361.177000 380.950000 L 361.678000 385.896000 L 362.249000 390.834000 L 362.854000 395.768000 L 363.463000 400.702000 L 364.072000 405.636000 L 364.682000 410.569000 L 365.291000 415.503000 L 365.900000 420.437000 L 366.509000 425.371000 L 367.118000 430.304000 L 367.728000 435.238000 L 368.337000 440.172000 L 368.946000 445.105000 L 369.555000 450.039000 L 370.164000 454.973000 L 370.773000 459.906000 L 371.384000 464.840000 L 372.006000 469.772000 L 372.658000 474.700000 L 373.314000 479.628000 L 373.971000 484.555000 L 374.628000 489.483000 L 375.284000 494.410000 L 375.941000 499.338000 L 376.598000 504.266000" fill="none" id="26" stroke="#8f6aaf" stroke-width="0.5" /><path d="M 369.789000 409.602000 L 369.747000 413.394000 L 369.705000 417.187000 L 369.662000 420.980000 L 369.620000 424.772000 L 369.578000 428.565000 L 369.536000 432.357000 L 369.494000 436.150000 L 369.451000 439.943000 L 369.409000 443.735000 L 369.367000 447.528000 L 369.325000 451.321000 L 369.283000 455.113000 L 369.245000 458.906000 L 369.230000 462.699000 L 369.262000 466.492000 L 369.334000 470.284000 L 369.418000 474.076000 L 369.502000 477.868000 L 369.586000 481.660000 L 369.669000 485.452000 L 369.753000 489.243000 L 369.837000 493.035000 L 369.921000 496.827000 L 370.005000 500.619000 L 370.089000 504.411000 L 370.172000 508.203000 L 370.256000 511.995000 L 370.340000 515.787000 L 370.424000 519.579000 L 370.508000 523.371000" fill="none" id="27" stroke="#8bb658" stroke-width="0.5" /><path d="M 182.195000 165.613000 L 186.950000 166.986000 L 191.672000 168.467000 L 196.372000 170.019000 L 201.033000 171.684000 L 205.665000 173.426000 L 210.267000 175.245000 L 214.805000 177.221000 L 219.326000 179.236000 L 223.842000 181.259000 L 228.335000 183.334000 L 232.807000 185.455000 L 237.277000 187.580000 L 241.746000 189.705000 L 246.216000 191.830000 L 250.685000 193.955000 L 255.155000 196.080000 L 259.625000 198.205000 L 264.094000 200.330000 L 268.564000 202.455000 L 273.034000 204.580000 L 277.503000 206.705000 L 281.973000 208.831000 L 286.442000 210.956000 L 290.912000 213.081000 L 295.382000 215.206000 L 299.851000 217.331000 L 304.321000 219.456000 L 308.797000 221.567000 L 313.279000 223.665000 L 317.763000 225.761000 L 322.246000 227.856000 L 326.730000 229.952000 L 331.214000 232.047000 L 335.697000 234.143000 L 340.181000 236.238000 L 344.664000 238.334000 L 349.148000 240.429000 L 353.631000 242.525000 L 358.115000 244.620000 L 362.598000 246.716000 L 367.082000 248.811000 L 371.566000 250.907000 L 376.049000 253.002000 L 380.533000 255.098000 L 385.016000 257.193000 L 389.500000 259.289000 L 393.983000 261.384000 L 398.467000 263.480000 L 402.951000 265.575000 L 407.434000 267.671000 L 411.918000 269.766000 L 416.401000 271.862000 L 420.885000 273.957000 L 425.368000 276.053000 L 429.852000 278.148000 L 434.336000 280.244000 L 438.819000 282.339000 L 443.303000 284.435000 L 447.787000 286.529000 L 452.296000 288.568000 L 456.851000 290.505000 L 461.414000 292.421000 L 465.977000 294.338000 L 470.539000 296.254000 L 475.102000 298.171000 L 479.665000 300.087000 L 484.228000 302.003000 L 488.791000 303.920000 L 493.354000 305.836000 L 497.917000 307.753000 L 502.480000 309.669000 L 507.040000 311.594000 L 511.584000 313.554000 L 516.114000 315.548000 L 520.643000 317.542000 L 525.173000 319.536000 L 529.702000 321.530000 L 534.232000 323.524000 L 538.762000 325.518000 L 543.291000 327.513000 L 547.821000 329.507000 L 552.350000 331.501000 L 556.883000 333.487000 L 561.442000 335.413000 L 566.017000 337.301000 L 570.592000 339.189000 L 575.167000 341.076000 L 579.742000 342.964000 L 584.317000 344.851000 L 588.892000 346.739000 L 593.467000 348.628000 L 598.020000 350.567000 L 602.525000 352.615000 L 606.982000 354.766000 L 611.391000 357.016000" fill="none" id="28" stroke="#bbabff" stroke-width="0.5" /><path d="M 180.191000 172.063000 L 184.887000 173.725000 L 189.594000 175.355000 L 194.306000 176.971000 L 198.991000 178.661000 L 203.593000 180.568000 L 208.189000 182.490000 L 212.784000 184.413000 L 217.374000 186.347000 L 221.914000 188.397000 L 226.446000 190.465000 L 230.977000 192.534000 L 235.509000 194.602000 L 240.040000 196.671000 L 244.572000 198.739000 L 249.105000 200.804000 L 253.648000 202.847000 L 258.205000 204.859000 L 262.765000 206.864000 L 267.325000 208.868000 L 271.885000 210.872000 L 276.445000 212.876000 L 281.009000 214.873000 L 285.589000 216.832000 L 290.185000 218.753000 L 294.787000 220.660000 L 299.388000 222.567000 L 303.990000 224.474000 L 308.592000 226.380000 L 313.196000 228.283000 L 317.807000 230.166000 L 322.432000 232.017000 L 327.062000 233.854000 L 331.693000 235.689000 L 336.324000 237.525000 L 340.955000 239.360000 L 345.585000 241.195000 L 350.216000 243.031000 L 354.847000 244.866000 L 359.473000 246.714000 L 364.083000 248.601000 L 368.677000 250.527000 L 373.264000 252.468000 L 377.851000 254.410000 L 382.438000 256.352000 L 387.025000 258.294000 L 391.611000 260.240000 L 396.187000 262.207000 L 400.745000 264.217000 L 405.290000 266.256000 L 409.832000 268.301000 L 414.374000 270.346000 L 418.913000 272.398000 L 423.442000 274.471000 L 427.961000 276.567000 L 432.478000 278.668000 L 436.994000 280.770000 L 441.510000 282.871000 L 446.026000 284.973000 L 450.542000 287.075000 L 455.059000 289.176000 L 459.575000 291.278000 L 464.091000 293.380000 L 468.607000 295.481000 L 473.123000 297.583000 L 477.640000 299.684000 L 482.156000 301.786000 L 486.672000 303.888000 L 491.188000 305.989000 L 495.705000 308.091000 L 500.221000 310.192000 L 504.736000 312.297000 L 509.241000 314.421000 L 513.730000 316.581000 L 518.212000 318.754000 L 522.694000 320.927000 L 527.176000 323.101000 L 531.658000 325.275000 L 536.140000 327.449000 L 540.622000 329.623000 L 545.104000 331.797000 L 549.586000 333.971000 L 554.067000 336.144000 L 558.549000 338.318000 L 563.031000 340.492000" fill="none" id="29" stroke="#658424" stroke-width="0.5" /><path d="M 443.512000 73.539100 L 445.717000 78.003500 L 447.878000 82.489600 L 449.973000 87.006700 L 451.931000 91.584900 L 453.875000 96.169200 L 455.817000 100.754000 L 457.759000 105.339000 L 459.702000 109.924000 L 461.644000 114.509000 L 463.586000 119.094000 L 465.528000 123.679000 L 467.471000 128.264000 L 469.395000 132.857000 L 471.237000 137.483000 L 473.031000 142.128000 L 474.819000 146.775000 L 476.606000 151.423000 L 478.394000 156.070000 L 480.181000 160.718000 L 481.969000 165.365000 L 483.756000 170.013000 L 485.541000 174.661000 L 487.312000 179.315000 L 489.056000 183.979000 L 490.790000 188.647000 L 492.523000 193.315000 L 494.256000 197.983000 L 495.989000 202.651000 L 497.722000 207.320000 L 499.454000 211.988000 L 501.187000 216.656000 L 502.920000 221.324000 L 504.653000 225.992000 L 506.387000 230.660000 L 508.133000 235.323000 L 509.902000 239.978000 L 511.689000 244.625000 L 513.481000 249.271000 L 515.272000 253.917000 L 517.064000 258.563000 L 518.856000 263.209000 L 520.647000 267.855000 L 522.439000 272.501000 L 524.231000 277.147000 L 526.022000 281.793000 L 527.814000 286.439000 L 529.606000 291.085000 L 531.397000 295.731000 L 533.202000 300.371000 L 535.071000 304.987000 L 537.021000 309.568000 L 538.997000 314.139000 L 540.974000 318.709000 L 542.964000 323.273000 L 545.034000 327.802000 L 547.187000 332.292000 L 549.352000 336.776000 L 551.518000 341.260000 L 553.683000 345.743000 L 555.849000 350.227000 L 558.011000 354.713000 L 560.127000 359.220000 L 562.219000 363.739000 L 564.195000 368.309000 L 566.030000 372.938000 L 567.797000 377.594000" fill="none" id="30" stroke="#f1b9ff" stroke-width="0.5" /><path d="M 443.070000 74.136700 L 444.895000 77.524600 L 446.591000 80.978800 L 448.097000 84.520100 L 449.462000 88.118200 L 450.887000 91.692500 L 452.395000 95.232800 L 453.919000 98.766700 L 455.442000 102.301000 L 456.971000 105.832000 L 458.561000 109.336000 L 460.185000 112.825000 L 461.813000 116.311000 L 463.442000 119.798000 L 465.070000 123.285000 L 466.698000 126.772000 L 468.329000 130.257000 L 469.982000 133.732000 L 471.660000 137.195000 L 473.337000 140.658000 L 475.015000 144.122000 L 476.693000 147.585000 L 478.371000 151.048000 L 480.049000 154.511000 L 481.727000 157.974000 L 483.404000 161.437000 L 485.069000 164.906000 L 486.656000 168.412000 L 488.171000 171.950000 L 489.669000 175.494000 L 491.139000 179.051000" fill="none" id="31" stroke="#f1b9ff" stroke-width="0.5" /><path d="M 431.770000 75.488300 L 436.697000 76.209100 L 441.598000 77.093600 L 446.394000 78.402000 L 451.147000 79.891400 L 455.906000 81.361400 L 460.653000 82.869000 L 465.393000 84.396900 L 470.133000 85.927900 L 474.872000 87.458900 L 479.600000 89.026300 L 484.301000 90.669900 L 488.987000 92.359000 L 493.669000 94.056000 L 498.352000 95.753000 L 503.035000 97.450000 L 507.717000 99.146900 L 512.400000 100.844000 L 517.083000 102.541000 L 521.765000 104.238000 L 526.448000 105.935000 L 531.131000 107.630000 L 535.825000 109.295000 L 540.554000 110.859000 L 545.288000 112.407000 L 550.022000 113.954000 L 554.756000 115.502000 L 559.490000 117.050000 L 564.225000 118.597000 L 568.966000 120.122000 L 573.758000 121.480000 L 578.571000 122.761000 L 583.384000 124.040000 L 588.198000 125.320000 L 593.012000 126.599000 L 597.825000 127.878000 L 602.639000 129.157000 L 607.452000 130.437000 L 612.266000 131.716000 L 617.079000 132.995000 L 621.893000 134.275000 L 626.707000 135.554000 L 631.520000 136.833000 L 636.334000 138.113000 L 641.147000 139.392000 L 645.960000 140.674000 L 650.768000 141.975000 L 655.568000 143.303000 L 660.366000 144.641000 L 665.163000 145.979000 L 669.961000 147.317000 L 674.758000 148.655000 L 679.556000 149.993000 L 684.353000 151.332000 L 689.151000 152.670000 L 693.948000 154.008000 L 698.746000 155.346000 L 703.544000 156.684000 L 708.341000 158.023000 L 713.139000 159.361000 L 717.936000 160.699000 L 722.734000 162.037000 L 727.531000 163.375000 L 732.329000 164.714000 L 737.126000 166.052000 L 741.924000 167.390000 L 746.721000 168.728000 L 751.519000 170.066000 L 756.316000 171.405000 L 761.114000 172.743000 L 765.911000 174.081000 L 770.709000 175.419000 L 775.506000 176.757000 L 780.304000 178.096000 L 785.101000 179.434000 L 789.899000 180.773000 L 794.693000 182.124000 L 799.473000 183.522000 L 804.241000 184.963000 L 809.007000 186.409000 L 813.773000 187.855000 L 818.539000 189.302000 L 823.305000 190.748000 L 828.081000 192.161000 L 832.805000 193.738000 L 837.483000 195.448000 L 842.137000 197.223000" fill="none" id="32" stroke="#989c37" stroke-width="0.5" /><path d="M 341.102000 116.609000 L 345.875000 117.814000 L 350.738000 118.589000 L 355.656000 118.697000 L 360.582000 118.763000 L 365.508000 118.792000 L 370.434000 118.746000 L 375.359000 118.671000 L 380.285000 118.595000 L 385.210000 118.518000 L 390.136000 118.442000 L 395.062000 118.366000 L 399.987000 118.290000 L 404.913000 118.213000 L 409.838000 118.137000 L 414.764000 118.063000 L 419.690000 118.000000 L 424.616000 117.962000 L 429.542000 117.928000 L 434.468000 117.895000 L 439.394000 117.861000 L 444.320000 117.827000 L 449.246000 117.794000 L 454.172000 117.760000 L 459.098000 117.727000 L 464.024000 117.693000 L 468.950000 117.659000 L 473.876000 117.626000 L 478.802000 117.592000 L 483.728000 117.559000 L 488.654000 117.525000 L 493.580000 117.491000 L 498.506000 117.458000 L 503.432000 117.424000 L 508.358000 117.391000 L 513.284000 117.357000 L 518.210000 117.323000 L 523.136000 117.290000 L 528.062000 117.256000 L 532.988000 117.223000 L 537.915000 117.189000 L 542.841000 117.155000 L 547.767000 117.122000 L 552.693000 117.088000 L 557.619000 117.039000 L 562.543000 116.925000 L 567.468000 116.786000 L 572.392000 116.646000 L 577.311000 116.393000 L 582.236000 116.284000 L 587.160000 116.131000 L 592.078000 115.855000" fill="none" id="33" stroke="#bb568c" stroke-width="0.5" /><path d="M 337.934000 115.258000 L 342.820000 115.636000 L 347.713000 115.927000 L 352.611000 116.106000 L 357.512000 116.169000 L 362.413000 116.221000 L 367.314000 116.272000 L 372.215000 116.324000 L 377.116000 116.375000 L 382.017000 116.426000 L 386.918000 116.478000 L 391.819000 116.529000 L 396.720000 116.581000 L 401.621000 116.632000 L 406.522000 116.684000 L 411.424000 116.735000 L 416.325000 116.786000 L 421.226000 116.838000 L 426.127000 116.889000 L 431.028000 116.941000 L 435.929000 116.992000 L 440.830000 117.043000 L 445.731000 117.095000 L 450.632000 117.146000 L 455.533000 117.198000 L 460.434000 117.249000 L 465.335000 117.301000 L 470.236000 117.352000 L 475.137000 117.412000 L 480.038000 117.488000 L 484.939000 117.571000 L 489.839000 117.656000 L 494.740000 117.741000 L 499.640000 117.826000 L 504.541000 117.911000 L 509.442000 117.996000 L 514.342000 118.081000 L 519.243000 118.166000 L 524.143000 118.251000 L 529.044000 118.345000 L 533.944000 118.462000 L 538.843000 118.600000 L 543.742000 118.742000 L 548.642000 118.884000 L 553.541000 119.026000 L 558.440000 119.168000 L 563.339000 119.310000 L 568.239000 119.447000 L 573.140000 119.514000 L 578.041000 119.490000 L 582.941000 119.398000" fill="none" id="34" stroke="#bb568c" stroke-width="0.5" /><path d="M 478.858000 99.136700 L 480.229000 99.086800 L 481.600000 99.037000 L 482.970000 98.965400 L 484.340000 98.892300 L 485.707000 98.784900 L 487.074000 98.672400 L 488.439000 98.532100 L 489.803000 98.384900 L 491.165000 98.226300 L 492.527000 98.063600 L 493.889000 97.899800 L 495.251000 97.735300 L 496.611000 97.560000 L 497.971000 97.377500 L 499.331000 97.195600 L 500.690000 97.014100 L 502.050000 96.831500 L 503.409000 96.647600 L 504.768000 96.462900 L 506.127000 96.277100 L 507.487000 96.091500 L 508.846000 95.906200 L 510.205000 95.720900 L 511.564000 95.535500 L 512.923000 95.350200 L 514.282000 95.164900 L 515.641000 94.979600 L 517.001000 94.794300 L 518.360000 94.608900 L 519.719000 94.423600 L 521.078000 94.238300" fill="none" id="35" stroke="#cfe395" stroke-width="0.5" /><path d="M 506.807000 96.486600 L 504.823000 96.707600 L 502.840000 96.941800 L 500.863000 97.218600 L 498.893000 97.540900 L 496.932000 97.914100 L 494.974000 98.308100 L 493.019000 98.710800 L 491.063000 99.113500 L 489.107000 99.516200 L 487.152000 99.918900 L 485.196000 100.322000 L 483.240000 100.724000 L 481.285000 101.127000 L 479.329000 101.530000 L 477.374000 101.932000 L 475.418000 102.335000 L 473.462000 102.738000 L 471.507000 103.140000 L 469.551000 103.543000 L 467.595000 103.946000 L 465.640000 104.348000 L 463.684000 104.751000 L 461.728000 105.154000 L 459.773000 105.557000 L 457.817000 105.959000 L 455.862000 106.362000 L 453.906000 106.765000 L 451.950000 107.167000 L 449.995000 107.570000 L 448.039000 107.973000" fill="none" id="36" stroke="#cfe395" stroke-width="0.5" /><path d="M 503.090000 97.066400 L 499.511000 98.529800 L 495.947000 100.027200 L 492.401000 101.569000 L 488.876000 103.157000 L 485.351000 104.745000 L 481.826000 106.333000 L 478.301000 107.921000 L 474.776000 109.509000 L 471.251000 111.097000 L 467.726000 112.686000 L 464.201000 114.274000 L 460.675000 115.862000 L 457.178000 117.510000 L 453.702000 119.203000 L 450.228000 120.900000 L 446.754000 122.596000 L 443.280000 124.292000 L 439.805000 125.989000 L 436.331000 127.685000 L 432.857000 129.381000 L 429.382000 131.077000 L 425.908000 132.774000 L 422.434000 134.470000 L 418.955000 136.156000 L 415.451000 137.790000 L 411.914000 139.352000 L 408.377000 140.913000 L 404.839000 142.474000 L 401.302000 144.035000 L 397.765000 145.596000" fill="none" id="37" stroke="#c45372" stroke-width="0.5" /><path d="M 503.570000 94.875000 L 499.380000 97.590000 L 495.149000 100.240700 L 490.836000 102.754000 L 486.359000 104.964000 L 481.902000 107.215000 L 477.358000 109.283000 L 472.781000 111.279000 L 468.204000 113.273000 L 463.627000 115.268000 L 459.049000 117.262000 L 454.472000 119.257000 L 449.895000 121.251000 L 445.318000 123.246000 L 440.741000 125.241000 L 436.163000 127.235000 L 431.586000 129.230000 L 427.009000 131.224000 L 422.432000 133.219000 L 417.855000 135.213000 L 413.278000 137.208000 L 408.700000 139.203000 L 404.123000 141.197000 L 399.546000 143.192000 L 394.969000 145.186000 L 390.392000 147.181000 L 385.814000 149.175000 L 381.243000 151.184000 L 376.695000 153.244000 L 372.169000 155.350000 L 367.648000 157.470000 L 363.128000 159.591000 L 358.608000 161.712000 L 354.088000 163.833000 L 349.568000 165.954000 L 345.048000 168.075000 L 340.528000 170.196000 L 336.008000 172.317000 L 331.488000 174.438000 L 326.968000 176.559000 L 322.448000 178.680000 L 317.933000 180.811000 L 313.428000 182.963000 L 308.928000 185.127000 L 304.429000 187.293000 L 299.931000 189.459000 L 295.432000 191.625000 L 290.933000 193.791000 L 286.435000 195.956000 L 281.936000 198.123000 L 277.442000 200.297000 L 272.955000 202.488000 L 268.476000 204.693000 L 263.998000 206.902000 L 259.521000 209.112000 L 255.043000 211.321000 L 250.566000 213.530000 L 246.088000 215.740000 L 241.611000 217.949000 L 237.133000 220.158000 L 232.656000 222.368000 L 228.178000 224.577000 L 223.701000 226.786000 L 219.223000 228.996000 L 214.746000 231.205000 L 210.268000 233.414000 L 205.791000 235.623000 L 201.313000 237.833000 L 196.833000 240.036000 L 192.333000 242.199000 L 187.799000 244.289000 L 183.255000 246.360000 L 178.712000 248.431000 L 174.169000 250.501000 L 169.625000 252.572000 L 165.079000 254.634000 L 160.515000 256.660000 L 155.939000 258.656000 L 151.360000 260.648000 L 146.782000 262.639000 L 142.203000 264.631000 L 137.625000 266.622000 L 133.046000 268.614000 L 128.468000 270.605000 L 123.889000 272.597000 L 119.319000 274.607000 L 114.803000 276.737000 L 110.293000 278.878000 L 105.782000 281.020000 L 101.272000 283.161000 L 96.761600 285.302000 L 92.251200 287.444000 L 87.740800 289.585000 L 83.230500 291.727000" fill="none" id="38" stroke="#c45372" stroke-width="0.5" /><path d="M 88.078100 288.184000 L 89.565900 287.613000 L 91.050200 287.035000 L 92.520000 286.420000 L 93.982000 285.787000 L 95.428200 285.119000 L 96.860000 284.421000 L 98.274500 283.687000 L 99.689700 282.956000 L 101.105000 282.225000 L 102.529000 281.510000 L 103.957000 280.802000 L 105.393000 280.112000 L 106.830000 279.425000 L 108.272000 278.747000 L 109.714000 278.069000 L 111.156000 277.392000 L 112.599000 276.716000 L 114.041000 276.040000 L 115.484000 275.363000 L 116.926000 274.687000 L 118.369000 274.010000 L 119.811000 273.334000 L 121.254000 272.657000 L 122.696000 271.981000 L 124.139000 271.304000 L 125.582000 270.628000 L 127.024000 269.951000 L 128.467000 269.275000 L 129.909000 268.598000 L 131.352000 267.922000" fill="none" id="39" stroke="#c45372" stroke-width="0.5" /><path d="M 79.945300 285.078000 L 84.490100 283.069000 L 89.027700 281.043000 L 93.556500 278.998000 L 98.074500 276.929000 L 102.588000 274.850000 L 107.101000 272.770000 L 111.614000 270.691000 L 116.130000 268.616000 L 120.657000 266.568000 L 125.200000 264.554000 L 129.747000 262.551000 L 134.294000 260.545000 L 138.833000 258.522000 L 143.352000 256.457000 L 147.855000 254.356000 L 152.353000 252.244000 L 156.852000 250.133000 L 161.350000 248.021000 L 165.848000 245.910000 L 170.346000 243.797000 L 174.831000 241.657000 L 179.276000 239.437000 L 183.683000 237.142000 L 188.082000 234.829000 L 192.480000 232.517000 L 196.879000 230.205000 L 201.277000 227.893000 L 205.639000 225.513000 L 209.961000 223.060000 L 214.250000 220.551000" fill="none" id="40" stroke="#008c6f" stroke-width="0.5" /><path d="M 503.770000 96.906300 L 499.176000 98.816600 L 494.582000 100.727000 L 489.988000 102.637000 L 485.394000 104.547000 L 480.801000 106.458000 L 476.207000 108.368000 L 471.611000 110.272000 L 466.997000 112.134000 L 462.377000 113.980000 L 457.757000 115.825000 L 453.136000 117.670000 L 448.516000 119.515000 L 443.896000 121.360000 L 439.275000 123.205000 L 434.655000 125.050000 L 430.035000 126.896000 L 425.414000 128.741000 L 420.794000 130.586000 L 416.174000 132.431000 L 411.553000 134.276000 L 406.933000 136.121000 L 402.313000 137.966000 L 397.692000 139.812000 L 393.073000 141.658000 L 388.460000 143.523000 L 383.863000 145.425000 L 379.271000 147.339000 L 374.678000 149.253000 L 370.086000 151.166000 L 365.494000 153.080000 L 360.905000 155.002000 L 356.327000 156.949000 L 351.758000 158.919000 L 347.191000 160.893000 L 342.625000 162.868000 L 338.059000 164.843000 L 333.492000 166.818000 L 328.926000 168.793000 L 324.359000 170.768000 L 319.795000 172.747000 L 315.237000 174.741000 L 310.685000 176.749000 L 306.135000 178.761000 L 301.585000 180.773000 L 297.035000 182.786000 L 292.485000 184.798000 L 287.935000 186.811000 L 283.385000 188.823000 L 278.835000 190.835000 L 274.285000 192.848000 L 269.735000 194.860000 L 265.185000 196.873000 L 260.636000 198.886000 L 256.092000 200.911000 L 251.559000 202.964000 L 247.038000 205.038000 L 242.518000 207.119000 L 237.999000 209.199000 L 233.480000 211.280000 L 228.960000 213.360000 L 224.441000 215.440000 L 219.922000 217.521000 L 215.403000 219.601000 L 210.883000 221.682000 L 206.364000 223.762000 L 201.845000 225.843000 L 197.326000 227.923000 L 192.806000 230.003000 L 188.287000 232.084000 L 183.770000 234.170000 L 179.261000 236.272000 L 174.757000 238.386000 L 170.254000 240.501000 L 165.751000 242.617000 L 161.248000 244.732000 L 156.745000 246.847000 L 152.242000 248.963000 L 147.739000 251.078000 L 143.235000 253.191000 L 138.723000 255.287000 L 134.199000 257.356000 L 129.670000 259.417000 L 125.142000 261.477000 L 120.613000 263.538000 L 116.085000 265.598000 L 111.556000 267.658000 L 107.028000 269.718000 L 102.499000 271.779000 L 97.970900 273.839000 L 93.442400 275.899000 L 88.913900 277.959000 L 84.384400 280.017000 L 79.836800 282.035000 L 75.273100 284.016000 L 70.708300 285.995000 L 66.155600 288.001000 L 61.543600 289.866000 L 56.906600 291.669000 L 52.257800 293.441000" fill="none" id="41" stroke="#ff94af" stroke-width="0.5" /><path d="M 195.137000 165.297000 L 194.246000 170.144000 L 193.412000 175.001000 L 192.647000 179.869000 L 191.966000 184.750000 L 191.285000 189.631000 L 190.604000 194.511000 L 189.923000 199.392000 L 189.139000 204.258000 L 188.280000 209.110000 L 187.416000 213.962000 L 186.552000 218.814000 L 185.688000 223.666000 L 184.825000 228.517000 L 183.961000 233.369000 L 183.097000 238.221000 L 182.234000 243.073000 L 181.370000 247.924000 L 180.506000 252.776000 L 179.642000 257.628000 L 178.779000 262.480000 L 177.915000 267.332000 L 177.051000 272.183000 L 176.197000 277.037000 L 175.375000 281.896000 L 174.568000 286.757000 L 173.762000 291.619000 L 172.956000 296.481000 L 172.150000 301.343000 L 171.345000 306.204000 L 170.539000 311.066000 L 169.733000 315.928000 L 168.927000 320.790000 L 168.202000 325.664000 L 167.539000 330.547000 L 167.245000 335.466000 L 167.307000 340.393000 L 167.652000 345.309000" fill="none" id="42" stroke="#488656" stroke-width="0.5" /><path d="M 194.496000 167.090000 L 194.102000 171.985000 L 193.595000 176.871000 L 192.911000 181.734000 L 192.135000 186.584000 L 191.360000 191.434000 L 190.585000 196.284000 L 189.809000 201.134000 L 189.034000 205.984000 L 188.259000 210.833000 L 187.483000 215.683000 L 186.708000 220.533000 L 185.933000 225.383000 L 185.157000 230.233000 L 184.382000 235.083000 L 183.607000 239.933000 L 182.831000 244.782000 L 182.056000 249.632000 L 181.281000 254.482000 L 180.505000 259.332000 L 179.730000 264.182000 L 178.954000 269.032000 L 178.179000 273.882000 L 177.382000 278.728000 L 176.538000 283.566000 L 175.676000 288.401000 L 174.765000 293.228000 L 173.783000 298.040000 L 172.784000 302.849000 L 171.778000 307.656000 L 170.717000 312.451000 L 169.542000 317.220000 L 168.342000 321.983000 L 167.497000 326.820000 L 167.263000 331.725000 L 167.449000 336.633000" fill="none" id="43" stroke="#488656" stroke-width="0.5" /><path d="M 168.492000 294.355000 L 168.700000 295.711000 L 168.907000 297.067000 L 169.084000 298.427000 L 169.255000 299.787000 L 169.377000 301.153000 L 169.474000 302.521000 L 169.503000 303.890000 L 169.450000 305.261000 L 169.404000 306.631000 L 169.381000 308.002000 L 169.359000 309.374000 L 169.336000 310.745000 L 169.313000 312.116000 L 169.290000 313.487000 L 169.268000 314.859000 L 169.243000 316.230000 L 169.216000 317.601000 L 169.194000 318.972000 L 169.181000 320.344000 L 169.171000 321.715000 L 169.186000 323.086000 L 169.202000 324.458000 L 169.264000 325.828000 L 169.332000 327.198000 L 169.393000 328.568000 L 169.451000 329.938000 L 169.497000 331.308000 L 169.526000 332.680000 L 169.555000 334.051000 L 169.584000 335.422000 L 169.613000 336.793000" fill="none" id="44" stroke="#488656" stroke-width="0.5" /><path d="M 170.585000 275.496000 L 170.612000 277.765000 L 170.640000 280.033000 L 170.668000 282.302000 L 170.695000 284.571000 L 170.723000 286.840000 L 170.750000 289.109000 L 170.774000 291.378000 L 170.791000 293.647000 L 170.800000 295.915000 L 170.794000 298.184000 L 170.784000 300.453000 L 170.772000 302.722000 L 170.757000 304.991000 L 170.732000 307.260000 L 170.696000 309.529000 L 170.615000 311.796000 L 170.519000 314.063000 L 170.407000 316.329000 L 170.295000 318.596000 L 170.182000 320.862000 L 170.070000 323.128000 L 169.958000 325.394000 L 169.845000 327.660000 L 169.733000 329.927000 L 169.623000 332.193000 L 169.563000 334.461000 L 169.554000 336.730000 L 169.665000 338.996000 L 169.819000 341.259000 L 170.016000 343.520000" fill="none" id="45" stroke="#488656" stroke-width="0.5" /><path d="M 671.371000 146.426000 L 667.459000 149.520000 L 663.430000 152.461000 L 659.306000 155.267000 L 655.080000 157.917000 L 650.801000 160.482000 L 646.534000 163.065000 L 642.252000 165.624000 L 637.920000 168.097000 L 633.580000 170.557000 L 629.240000 173.016000 L 624.901000 175.476000 L 620.561000 177.936000 L 616.221000 180.395000 L 611.882000 182.855000 L 607.542000 185.315000 L 603.204000 187.777000 L 598.878000 190.262000 L 594.579000 192.792000 L 590.291000 195.339000 L 586.003000 197.889000 L 581.716000 200.438000 L 577.428000 202.988000 L 573.141000 205.537000 L 568.853000 208.087000 L 564.565000 210.636000 L 560.278000 213.186000 L 555.990000 215.735000 L 551.703000 218.285000 L 547.415000 220.834000 L 543.128000 223.384000 L 538.840000 225.933000 L 534.552000 228.483000 L 530.265000 231.032000 L 525.977000 233.581000 L 521.690000 236.131000 L 517.402000 238.680000 L 513.115000 241.230000 L 508.827000 243.779000 L 504.539000 246.328000 L 500.247000 248.869000 L 495.945000 251.395000 L 491.637000 253.910000 L 487.328000 256.422000 L 483.018000 258.933000 L 478.708000 261.445000 L 474.398000 263.957000 L 470.088000 266.468000 L 465.778000 268.980000 L 461.469000 271.492000 L 457.159000 274.003000 L 452.849000 276.515000 L 448.539000 279.026000 L 444.229000 281.538000 L 439.919000 284.050000 L 435.610000 286.561000 L 431.300000 289.073000 L 426.996000 291.595000 L 422.708000 294.144000 L 418.435000 296.717000 L 414.166000 299.297000 L 409.896000 301.877000 L 405.627000 304.457000 L 401.358000 307.037000 L 397.089000 309.617000 L 392.819000 312.197000 L 388.550000 314.777000 L 384.281000 317.357000 L 380.012000 319.937000 L 375.743000 322.518000 L 371.473000 325.098000 L 367.204000 327.678000 L 362.935000 330.258000 L 358.663000 332.833000 L 354.379000 335.389000 L 350.084000 337.926000 L 345.786000 340.457000 L 341.488000 342.989000 L 337.189000 345.520000 L 332.886000 348.042000 L 328.558000 350.523000 L 324.208000 352.965000 L 319.854000 355.399000 L 315.501000 357.834000 L 311.147000 360.268000 L 306.793000 362.702000 L 302.439000 365.137000 L 298.085000 367.571000 L 293.731000 370.006000 L 289.377000 372.440000 L 285.023000 374.874000 L 280.669000 377.309000 L 276.315000 379.743000 L 271.961000 382.178000 L 267.607000 384.612000 L 263.253000 387.046000 L 258.874000 389.434000 L 254.451000 391.741000 L 250.159000 394.282000 L 246.008000 397.048000 L 241.934000 399.926000" fill="none" id="46" stroke="#ffc0e1" stroke-width="0.5" /><path d="M 671.691000 149.094000 L 667.361000 151.563000 L 663.005000 153.988000 L 658.631000 156.381000 L 654.299000 158.848000 L 649.951000 161.286000 L 645.589000 163.701000 L 641.201000 166.067000 L 636.807000 168.422000 L 632.413000 170.777000 L 628.018000 173.131000 L 623.624000 175.486000 L 619.230000 177.841000 L 614.836000 180.195000 L 610.441000 182.550000 L 606.049000 184.908000 L 601.664000 187.281000 L 597.289000 189.670000 L 592.917000 192.067000 L 588.547000 194.465000 L 584.176000 196.863000 L 579.805000 199.261000 L 575.434000 201.659000 L 571.063000 204.056000 L 566.692000 206.454000 L 562.321000 208.852000 L 557.950000 211.250000 L 553.580000 213.648000 L 549.209000 216.046000 L 544.838000 218.444000 L 540.467000 220.841000 L 536.096000 223.239000 L 531.725000 225.637000 L 527.354000 228.035000 L 522.983000 230.433000 L 518.613000 232.831000 L 514.242000 235.228000 L 509.871000 237.626000 L 505.500000 240.024000 L 501.129000 242.422000 L 496.758000 244.820000 L 492.387000 247.218000 L 488.016000 249.616000 L 483.646000 252.013000 L 479.275000 254.411000 L 474.904000 256.810000 L 470.542000 259.224000 L 466.193000 261.661000 L 461.845000 264.099000 L 457.496000 266.537000 L 453.147000 268.975000 L 448.799000 271.413000 L 444.450000 273.851000 L 440.102000 276.289000 L 435.753000 278.727000 L 431.405000 281.166000 L 427.063000 283.615000 L 422.739000 286.098000 L 418.430000 288.604000 L 414.122000 291.114000 L 409.815000 293.625000 L 405.508000 296.135000 L 401.201000 298.646000 L 396.894000 301.156000 L 392.586000 303.666000 L 388.279000 306.177000 L 383.972000 308.687000 L 379.665000 311.198000 L 375.357000 313.708000 L 371.050000 316.218000 L 366.743000 318.729000 L 362.436000 321.239000 L 358.128000 323.749000 L 353.821000 326.260000 L 349.514000 328.770000 L 345.207000 331.281000 L 340.900000 333.791000 L 336.592000 336.301000 L 332.285000 338.812000 L 327.978000 341.322000 L 323.671000 343.833000 L 319.363000 346.343000 L 315.056000 348.853000 L 310.749000 351.364000 L 306.442000 353.874000 L 302.135000 356.385000 L 297.827000 358.895000 L 293.520000 361.405000 L 289.213000 363.916000 L 284.906000 366.426000 L 280.598000 368.936000 L 276.291000 371.447000 L 271.984000 373.957000 L 267.677000 376.468000 L 263.370000 378.978000 L 259.062000 381.488000 L 254.755000 383.999000 L 250.448000 386.509000 L 246.141000 389.020000" fill="none" id="47" stroke="#6c8139" stroke-width="0.5" /><path d="M 165.125000 340.254000 L 170.016000 339.410000 L 174.919000 338.632000 L 179.848000 338.059000 L 184.810000 337.940000 L 189.762000 337.601000 L 194.713000 337.244000 L 199.662000 336.862000 L 204.610000 336.475000 L 209.559000 336.087000 L 214.507000 335.700000 L 219.456000 335.313000 L 224.404000 334.926000 L 229.353000 334.538000 L 234.301000 334.151000 L 239.249000 333.764000 L 244.198000 333.377000 L 249.146000 332.989000 L 254.095000 332.602000 L 259.043000 332.215000 L 263.992000 331.828000 L 268.940000 331.440000 L 273.889000 331.053000 L 278.837000 330.666000 L 283.786000 330.279000 L 288.734000 329.891000 L 293.683000 329.504000 L 298.631000 329.117000 L 303.580000 328.733000 L 308.530000 328.370000 L 313.482000 328.027000 L 318.434000 327.690000 L 323.386000 327.352000 L 328.338000 327.015000 L 333.290000 326.678000 L 338.243000 326.348000 L 343.199000 326.076000 L 348.157000 325.847000 L 353.116000 325.623000 L 358.075000 325.399000 L 363.033000 325.176000 L 367.992000 324.952000 L 372.951000 324.742000 L 377.913000 324.608000 L 382.876000 324.537000 L 387.839000 324.470000 L 392.802000 324.402000 L 397.765000 324.335000 L 402.728000 324.267000 L 407.691000 324.200000 L 412.655000 324.132000 L 417.618000 324.064000 L 422.581000 323.997000 L 427.544000 323.929000 L 432.507000 323.862000 L 437.470000 323.799000 L 442.434000 323.768000 L 447.397000 323.795000 L 452.361000 323.850000 L 457.324000 323.905000 L 462.287000 323.959000 L 467.251000 324.014000 L 472.214000 324.068000 L 477.177000 324.123000 L 482.140000 324.178000 L 487.104000 324.232000 L 492.067000 324.287000 L 497.030000 324.342000 L 501.994000 324.396000 L 506.957000 324.451000 L 511.920000 324.505000 L 516.884000 324.560000 L 521.847000 324.615000 L 526.810000 324.669000 L 531.773000 324.724000 L 536.737000 324.779000 L 541.700000 324.831000 L 546.664000 324.855000 L 551.627000 324.783000 L 556.589000 324.682000 L 561.552000 324.580000 L 566.514000 324.479000 L 571.476000 324.345000 L 576.437000 324.182000 L 581.395000 323.940000 L 586.348000 323.613000" fill="none" id="48" stroke="#a9d0ff" stroke-width="0.5" /><path d="M 166.527000 337.230000 L 171.449000 337.754000 L 176.388000 338.083000 L 181.337000 338.125000 L 186.285000 338.002000 L 191.233000 337.868000 L 196.180000 337.734000 L 201.128000 337.600000 L 206.076000 337.466000 L 211.024000 337.332000 L 215.972000 337.198000 L 220.919000 337.064000 L 225.867000 336.930000 L 230.815000 336.796000 L 235.763000 336.662000 L 240.710000 336.528000 L 245.658000 336.394000 L 250.606000 336.260000 L 255.554000 336.126000 L 260.501000 335.992000 L 265.449000 335.858000 L 270.397000 335.724000 L 275.345000 335.590000 L 280.293000 335.457000 L 285.241000 335.334000 L 290.189000 335.245000 L 295.138000 335.184000 L 300.088000 335.127000 L 305.037000 335.071000 L 309.986000 335.015000 L 314.936000 334.958000 L 319.885000 334.902000 L 324.834000 334.846000 L 329.783000 334.797000 L 334.733000 334.764000 L 339.682000 334.750000 L 344.632000 334.743000 L 349.582000 334.735000 L 354.531000 334.728000 L 359.481000 334.720000 L 364.430000 334.713000 L 369.380000 334.705000 L 374.329000 334.698000 L 379.279000 334.690000 L 384.229000 334.683000 L 389.178000 334.675000 L 394.128000 334.668000 L 399.077000 334.660000 L 404.027000 334.652000 L 408.976000 334.636000 L 413.926000 334.577000 L 418.874000 334.472000 L 423.822000 334.352000 L 428.770000 334.233000 L 433.718000 334.113000 L 438.667000 333.994000 L 443.615000 333.868000 L 448.562000 333.715000 L 453.508000 333.545000 L 458.455000 333.374000 L 463.402000 333.203000 L 468.348000 333.032000 L 473.295000 332.862000 L 478.242000 332.691000 L 483.188000 332.520000 L 488.135000 332.349000 L 493.081000 332.178000 L 498.028000 332.007000 L 502.975000 331.836000 L 507.921000 331.665000 L 512.868000 331.494000 L 517.815000 331.323000 L 522.761000 331.152000 L 527.708000 330.981000 L 532.654000 330.810000 L 537.601000 330.639000 L 542.548000 330.468000 L 547.495000 330.312000 L 552.443000 330.190000 L 557.392000 330.170000 L 562.323000 329.766000 L 567.232000 329.135000 L 572.125000 328.391000" fill="none" id="49" stroke="#a98c2c" stroke-width="0.5" /><path d="M 670.969000 124.574000 L 670.670000 128.447000 L 670.440000 132.325000 L 670.300000 136.208000 L 670.242000 140.092000 L 670.183000 143.976000 L 670.124000 147.861000 L 670.044000 151.745000 L 669.884000 155.626000 L 669.668000 159.505000 L 669.439000 163.383000 L 669.211000 167.261000 L 668.982000 171.139000 L 668.754000 175.017000 L 668.525000 178.895000 L 668.296000 182.773000 L 668.058000 186.651000 L 667.790000 190.526000 L 667.490000 194.400000 L 667.178000 198.272000 L 666.863000 202.144000 L 666.549000 206.016000 L 666.235000 209.888000 L 665.916000 213.760000 L 665.575000 217.630000 L 665.195000 221.496000 L 664.790000 225.359000 L 664.382000 229.223000 L 663.973000 233.086000 L 663.565000 236.949000 L 663.156000 240.813000" fill="none" id="50" stroke="#0294bb" stroke-width="0.5" /><path d="M 684.793000 116.293000 L 684.177000 118.426000 L 683.535000 120.550000 L 682.860000 122.665000 L 682.117000 124.757000 L 681.342000 126.837000 L 680.513000 128.896000 L 679.651000 130.942000 L 678.772000 132.980000 L 677.864000 135.006000 L 676.951000 137.029000 L 676.034000 139.051000 L 675.116000 141.072000 L 674.198000 143.093000 L 673.280000 145.114000 L 672.362000 147.135000 L 671.443000 149.156000 L 670.525000 151.177000 L 669.607000 153.198000 L 668.689000 155.219000 L 667.771000 157.240000 L 666.852000 159.261000 L 665.934000 161.282000 L 665.016000 163.303000 L 664.099000 165.325000 L 663.183000 167.347000 L 662.313000 169.389000 L 661.492000 171.450000 L 660.847000 173.574000 L 660.273000 175.718000 L 659.750000 177.875000" fill="none" id="51" stroke="#d7b555" stroke-width="0.5" /><path d="M 97.011700 240.574000 L 101.806000 241.795000 L 106.415000 243.580000 L 110.785000 245.913000 L 115.193000 248.173000 L 119.601000 250.433000 L 124.010000 252.692000 L 128.422000 254.943000 L 132.849000 257.166000 L 137.291000 259.359000 L 141.735000 261.547000 L 146.180000 263.734000 L 150.624000 265.922000 L 155.068000 268.110000 L 159.513000 270.298000 L 163.957000 272.486000 L 168.401000 274.673000 L 172.846000 276.861000 L 177.290000 279.049000 L 181.735000 281.237000 L 186.179000 283.425000 L 190.633000 285.593000 L 195.110000 287.713000 L 199.606000 289.793000 L 204.106000 291.863000 L 208.606000 293.933000 L 213.107000 296.003000 L 217.607000 298.073000 L 222.108000 300.143000 L 226.608000 302.213000 L 231.108000 304.283000 L 235.603000 306.367000 L 240.069000 308.510000 L 244.494000 310.735000 L 248.907000 312.985000 L 253.320000 315.237000 L 257.750000 317.453000 L 262.087000 319.847000 L 266.338000 322.390000 L 270.543000 325.008000" fill="none" id="52" stroke="#4a7ea6" stroke-width="0.5" /><path d="M 83.308600 232.613000 L 87.780400 234.649000 L 92.135400 236.915000 L 96.401300 239.352000 L 100.730000 241.676000 L 105.111000 243.901000 L 109.511000 246.087000 L 113.912000 248.273000 L 118.313000 250.459000 L 122.713000 252.645000 L 127.122000 254.814000 L 131.563000 256.917000 L 136.030000 258.963000 L 140.504000 260.996000 L 144.977000 263.029000 L 149.450000 265.062000 L 153.924000 267.095000 L 158.398000 269.126000 L 162.878000 271.143000 L 167.373000 273.129000 L 171.875000 275.098000 L 176.377000 277.066000 L 180.879000 279.035000 L 185.381000 281.003000 L 189.883000 282.972000 L 194.385000 284.941000 L 198.878000 286.930000 L 203.343000 288.980000 L 207.784000 291.084000 L 212.216000 293.205000 L 216.647000 295.328000 L 221.067000 297.475000 L 225.434000 299.728000 L 229.732000 302.109000 L 234.019000 304.509000 L 238.303000 306.915000 L 242.562000 309.367000 L 246.778000 311.889000 L 250.997000 314.409000 L 255.264000 316.843000 L 259.632000 319.090000 L 263.813000 321.630000 L 267.607000 324.746000 L 271.184000 328.113000" fill="none" id="53" stroke="#4a7ea6" stroke-width="0.5" /><path d="M 81.148400 230.422000 L 81.323400 233.023000 L 81.468600 235.625000 L 81.578600 238.229000 L 81.649200 240.835000 L 81.667400 243.441000 L 81.685600 246.048000 L 81.703800 248.654000 L 81.717800 251.261000 L 81.712000 253.867000 L 81.654800 256.473000 L 81.572200 259.078000 L 81.474500 261.683000 L 81.373100 264.287000 L 81.271700 266.892000 L 81.170300 269.497000 L 81.068900 272.101000 L 80.967500 274.706000 L 80.866100 277.310000 L 80.764700 279.915000 L 80.664600 282.520000 L 80.567900 285.124000 L 80.483200 287.729000 L 80.422700 290.335000 L 80.382600 292.941000 L 80.360000 295.548000 L 80.349900 298.154000 L 80.452000 300.759000 L 80.654100 303.356000 L 80.945300 305.946000 L 81.308600 308.527000" fill="none" id="54" stroke="#ffa372" stroke-width="0.5" /><path d="M 253.793000 368.359000 L 255.019000 369.906000 L 256.234000 371.460000 L 257.381000 373.067000 L 258.495000 374.695000 L 259.519000 376.382000 L 260.508000 378.089000 L 261.444000 379.827000 L 262.379000 381.564000 L 263.315000 383.302000 L 264.251000 385.040000 L 265.187000 386.777000 L 266.122000 388.515000 L 267.058000 390.253000 L 267.994000 391.990000 L 268.929000 393.728000 L 269.865000 395.466000 L 270.801000 397.203000 L 271.736000 398.941000 L 272.672000 400.679000 L 273.608000 402.416000 L 274.544000 404.154000 L 275.479000 405.892000 L 276.415000 407.629000 L 277.351000 409.367000 L 278.286000 411.105000 L 279.222000 412.842000 L 280.158000 414.580000 L 281.093000 416.318000 L 282.029000 418.055000 L 282.965000 419.793000" fill="none" id="55" stroke="#96ddff" stroke-width="0.5" /><path d="M 269.301000 325.523000 L 269.065000 328.858000 L 268.870000 332.196000 L 268.728000 335.537000 L 268.643000 338.879000 L 268.555000 342.221000 L 268.434000 345.562000 L 268.286000 348.902000 L 268.129000 352.242000 L 267.969000 355.581000 L 267.810000 358.921000 L 267.651000 362.261000 L 267.491000 365.600000 L 267.332000 368.940000 L 267.173000 372.279000 L 267.014000 375.619000 L 266.854000 378.959000 L 266.695000 382.298000 L 266.536000 385.638000 L 266.376000 388.978000 L 266.217000 392.317000 L 266.058000 395.657000 L 265.898000 398.996000 L 265.742000 402.336000 L 265.602000 405.676000 L 265.489000 409.018000 L 265.402000 412.360000 L 265.345000 415.703000 L 265.378000 419.046000 L 265.518000 422.386000 L 265.734000 425.723000" fill="none" id="56" stroke="#b06735" stroke-width="0.5" /><path d="M 243.977000 141.969000 L 248.072000 144.813000 L 252.118000 147.727000 L 256.062000 150.777000 L 259.935000 153.917000 L 263.834000 157.024000 L 267.823000 160.016000 L 271.904000 162.880000 L 276.016000 165.696000 L 280.396000 168.077000 L 284.877000 170.264000 L 289.366000 172.434000 L 293.841000 174.631000 L 298.216000 177.022000 L 302.545000 179.495000 L 306.869000 181.978000 L 311.195000 184.457000 L 315.543000 186.898000 L 319.949000 189.231000 L 324.379000 191.519000 L 328.811000 193.802000 L 333.244000 196.085000 L 337.677000 198.367000 L 342.122000 200.627000 L 346.609000 202.799000 L 351.122000 204.919000 L 355.640000 207.029000 L 360.157000 209.139000 L 364.674000 211.249000 L 369.192000 213.360000 L 373.709000 215.470000 L 378.227000 217.580000 L 382.744000 219.690000 L 387.262000 221.801000 L 391.779000 223.911000 L 396.296000 226.021000 L 400.814000 228.131000 L 405.331000 230.241000 L 409.849000 232.352000 L 414.366000 234.462000 L 418.883000 236.572000 L 423.401000 238.682000 L 427.925000 240.779000 L 432.471000 242.825000 L 437.046000 244.808000 L 441.634000 246.760000 L 446.223000 248.708000 L 450.820000 250.641000 L 455.431000 252.537000 L 460.053000 254.406000 L 464.678000 256.268000 L 469.303000 258.131000 L 473.928000 259.995000 L 478.541000 261.886000 L 483.130000 263.835000 L 487.703000 265.823000 L 492.273000 267.816000 L 496.843000 269.810000 L 501.413000 271.803000 L 505.983000 273.797000 L 510.553000 275.791000 L 515.124000 277.784000 L 519.694000 279.778000 L 524.264000 281.771000 L 528.834000 283.765000 L 533.404000 285.759000 L 537.974000 287.752000 L 542.547000 289.740000 L 547.134000 291.694000 L 551.742000 293.597000 L 556.358000 295.483000 L 560.974000 297.367000 L 565.590000 299.251000 L 570.201000 301.150000 L 574.780000 303.122000 L 579.333000 305.155000 L 583.881000 307.197000 L 588.429000 309.240000 L 592.978000 311.282000 L 597.526000 313.325000 L 602.072000 315.374000 L 606.602000 317.457000 L 611.122000 319.560000 L 615.612000 321.729000 L 620.072000 323.959000 L 624.529000 326.193000 L 628.986000 328.427000 L 633.443000 330.663000 L 637.748000 333.177000 L 641.944000 335.870000 L 646.047000 338.703000" fill="none" id="57" stroke="#bae0f9" stroke-width="0.5" /><path d="M 224.547000 148.180000 L 229.190000 149.915000 L 233.800000 151.736000 L 238.362000 153.674000 L 242.880000 155.713000 L 247.405000 157.735000 L 251.975000 159.654000 L 256.574000 161.502000 L 261.176000 163.344000 L 265.778000 165.186000 L 270.379000 167.028000 L 274.981000 168.869000 L 279.583000 170.711000 L 284.184000 172.553000 L 288.786000 174.394000 L 293.388000 176.236000 L 297.990000 178.078000 L 302.591000 179.919000 L 307.193000 181.761000 L 311.795000 183.603000 L 316.395000 185.450000 L 320.970000 187.357000 L 325.510000 189.345000 L 330.038000 191.360000 L 334.567000 193.375000 L 339.095000 195.390000 L 343.624000 197.406000 L 348.152000 199.421000 L 352.681000 201.436000 L 357.209000 203.451000 L 361.738000 205.466000 L 366.266000 207.482000 L 370.794000 209.497000 L 375.323000 211.512000 L 379.851000 213.527000 L 384.380000 215.542000 L 388.908000 217.558000 L 393.437000 219.573000 L 397.965000 221.588000 L 402.494000 223.603000 L 407.022000 225.618000 L 411.550000 227.634000 L 416.079000 229.649000 L 420.607000 231.664000 L 425.136000 233.679000 L 429.664000 235.694000 L 434.193000 237.710000 L 438.727000 239.712000 L 443.280000 241.670000 L 447.841000 243.611000 L 452.402000 245.551000 L 456.963000 247.492000 L 461.524000 249.432000 L 466.085000 251.373000 L 470.646000 253.313000 L 475.207000 255.254000 L 479.768000 257.194000 L 484.329000 259.135000 L 488.890000 261.076000 L 493.449000 263.020000 L 497.982000 265.025000 L 502.468000 267.131000 L 506.952000 269.245000 L 511.422000 271.387000" fill="none" id="58" stroke="#b76246" stroke-width="0.5" /><path d="M 534.344000 106.578000 L 530.030000 108.966000 L 525.681000 111.287000 L 521.286000 113.521000 L 516.843000 115.659000 L 512.398000 117.791000 L 507.953000 119.924000 L 503.507000 122.056000 L 499.062000 124.188000 L 494.617000 126.320000 L 490.172000 128.453000 L 485.726000 130.585000 L 481.281000 132.717000 L 476.836000 134.850000 L 472.391000 136.982000 L 467.945000 139.114000 L 463.500000 141.246000 L 459.055000 143.379000 L 454.610000 145.511000 L 450.165000 147.644000 L 445.731000 149.801000 L 441.309000 151.980000 L 436.889000 154.164000 L 432.468000 156.347000 L 428.048000 158.530000 L 423.627000 160.713000 L 419.207000 162.896000 L 414.786000 165.079000 L 410.366000 167.262000 L 405.945000 169.446000 L 401.525000 171.629000 L 397.104000 173.812000 L 392.684000 175.995000 L 388.263000 178.178000 L 383.843000 180.361000 L 379.422000 182.544000 L 375.002000 184.727000 L 370.581000 186.911000 L 366.157000 189.087000 L 361.715000 191.226000 L 357.264000 193.345000 L 352.812000 195.463000 L 348.360000 197.582000 L 343.903000 199.690000 L 339.392000 201.680000 L 334.866000 203.635000 L 330.320000 205.543000" fill="none" id="59" stroke="#b0e4e9" stroke-width="0.5" /><path d="M 644.526000 128.357000 L 640.692000 131.488000 L 636.790000 134.534000 L 632.785000 137.444000 L 628.729000 140.281000 L 624.579000 142.979000 L 620.359000 145.566000 L 616.129000 148.138000 L 611.811000 150.557000 L 607.467000 152.930000 L 603.121000 155.300000 L 598.774000 157.669000 L 594.428000 160.038000 L 590.082000 162.408000 L 585.736000 164.777000 L 581.382000 167.132000 L 577.014000 169.463000 L 572.643000 171.784000 L 568.271000 174.106000 L 563.899000 176.427000 L 559.527000 178.749000 L 555.155000 181.070000 L 550.783000 183.392000 L 546.411000 185.713000 L 542.039000 188.036000 L 537.679000 190.380000 L 533.337000 192.757000 L 529.004000 195.149000 L 524.670000 197.541000 L 520.336000 199.933000 L 516.002000 202.325000 L 511.668000 204.717000 L 507.334000 207.109000 L 503.006000 209.510000 L 498.689000 211.934000 L 494.383000 214.374000 L 490.076000 216.815000 L 485.770000 219.256000 L 481.463000 221.697000 L 477.157000 224.138000 L 472.851000 226.579000 L 468.544000 229.020000 L 464.238000 231.461000 L 459.931000 233.902000 L 455.625000 236.344000 L 451.320000 238.786000 L 447.021000 241.240000 L 442.735000 243.718000 L 438.454000 246.202000 L 434.172000 248.686000 L 429.890000 251.170000 L 425.608000 253.654000 L 421.327000 256.138000 L 417.045000 258.622000 L 412.763000 261.107000 L 408.481000 263.591000 L 404.200000 266.075000 L 399.918000 268.559000" fill="none" id="60" stroke="#ff9b9c" stroke-width="0.5" /><path d="M 626.656000 133.094000 L 622.200000 135.220000 L 617.763000 137.385000 L 613.349000 139.599000 L 608.963000 141.866000 L 604.578000 144.134000 L 600.192000 146.402000 L 595.806000 148.669000 L 591.420000 150.937000 L 587.034000 153.205000 L 582.648000 155.472000 L 578.262000 157.740000 L 573.876000 160.008000 L 569.491000 162.275000 L 565.105000 164.543000 L 560.719000 166.810000 L 556.333000 169.078000 L 551.947000 171.346000 L 547.561000 173.613000 L 543.175000 175.881000 L 538.789000 178.149000 L 534.404000 180.416000 L 530.021000 182.691000 L 525.666000 185.017000 L 521.337000 187.391000 L 517.013000 189.775000 L 512.690000 192.159000 L 508.366000 194.543000 L 504.042000 196.928000 L 499.719000 199.312000 L 495.395000 201.696000 L 491.072000 204.080000 L 486.748000 206.465000 L 482.424000 208.849000 L 478.101000 211.233000 L 473.777000 213.617000 L 469.453000 216.001000 L 465.130000 218.386000 L 460.806000 220.770000 L 456.483000 223.154000 L 452.159000 225.538000 L 447.835000 227.922000 L 443.512000 230.307000 L 439.188000 232.691000 L 434.867000 235.079000 L 430.559000 237.492000 L 426.273000 239.943000 L 421.987000 242.395000 L 417.702000 244.846000 L 413.416000 247.298000 L 409.130000 249.749000 L 404.844000 252.201000 L 400.558000 254.653000 L 396.201000 256.974000 L 391.741000 259.093000 L 387.219000 261.074000" fill="none" id="61" stroke="#378673" stroke-width="0.5" /><path d="M 9.546880 210.520000 L 10.085480 214.415000 L 10.546600 218.321000 L 10.906300 222.237000 L 11.177000 226.161000 L 11.429900 230.086000 L 11.633900 234.013000 L 11.825300 237.941000 L 12.015900 241.870000 L 12.206400 245.798000 L 12.396900 249.726000 L 12.585000 253.655000 L 12.748000 257.584000 L 12.859900 261.515000 L 12.942300 265.447000 L 13.020100 269.379000 L 13.097800 273.312000 L 13.175500 277.244000 L 13.253300 281.176000 L 13.331000 285.108000 L 13.408700 289.040000 L 13.486400 292.972000 L 13.564200 296.904000 L 13.641900 300.836000 L 13.719600 304.768000 L 13.800100 308.701000 L 13.900300 312.632000 L 14.037100 316.563000 L 14.193300 320.492000 L 14.352200 324.422000 L 14.515600 328.352000" fill="none" id="62" stroke="#ffa98e" stroke-width="0.5" /></svg>