<?xml version="1.0" encoding="utf-8" ?>
<svg baseProfile="full" height="315.50206" version="1.1" viewBox="0,0,491.50206,315.50206" width="491.50206" xmlns="http://www.w3.org/2000/svg" xmlns:ev="http://www.w3.org/2001/xml-events" xmlns:xlink="http://www.w3.org/1999/xlink"><defs><style type="text/css"><![CDATA[
	.background { fill: white; }
	.line { stroke: firebrick; stroke-width: .1mm; }
	.blacksquare { fill: indigo; }
	.whitesquare { fill: white; }
]]></style></defs><rect class="background" height="100%" width="100%" x="0" y="0" /><path d="M 186.313258 104.293070 L 190.245743 105.024892 L 194.163660 105.828899 L 198.072191 106.679419 L 201.980722 107.529939 L 205.889254 108.380458 L 209.795764 109.239952 L 213.691657 110.146607 L 217.587549 111.053262 L 221.483441 111.959917 L 225.379333 112.866572 L 229.275226 113.773227 L 233.171118 114.679882 L 237.067010 115.586537 L 240.962903 116.493192 L 244.858795 117.399847 L 248.754687 118.306502 L 252.649875 119.216124 L 256.537549 120.157394 L 260.425224 121.098663 L 264.312898 122.039932 L 268.200573 122.981201 L 272.083920 123.939958 L 275.961935 124.920265 L 279.839949 125.900572 L 283.717964 126.880879 L 287.595979 127.861186 L 291.470652 128.854544 L 295.342586 129.858598 L 299.214520 130.862652 L 303.086455 131.866706 L 306.958389 132.870760 L 310.823923 133.898850 L 314.682444 134.953277 L 318.540965 136.007704 L 322.399486 137.062131 L 326.258007 138.116558 L 330.116528 139.170985 L 333.975049 140.225413 L 337.833569 141.279840 L 341.692090 142.334267 L 345.550611 143.388694 L 349.409132 144.443121 L 353.262361 145.516653 L 357.113459 146.597877 L 360.964556 147.679101 L 364.815654 148.760325 L 368.666752 149.841548 L 372.515188 150.932033 L 376.352642 152.060728 L 380.190095 153.189423 L 384.027548 154.318118 L 387.865002 155.446813 L 391.702455 156.575507 L 395.518309 157.774972 L 399.332008 158.981494 L 403.145707 160.188017 L 406.959407 161.394540 L 410.773106 162.601062 L 414.553005 163.908831 L 418.326650 165.235331 L 422.100295 166.561831 L 425.873940 167.888331 L 429.638053 169.240736 L 433.371405 170.676729 L 437.104758 172.112723 L 440.838111 173.548717 L 444.567640 174.994443 L 448.280129 176.483544 L 451.992619 177.972645 L 455.705109 179.461745 L 459.417598 180.950846 L 463.130088 182.439947 L 466.842577 183.929048 L 470.563276 185.396976 L 474.309241 186.799741 L 478.055206 188.202505 L 481.813239 189.571061 L 485.610135 190.829467 L 489.407030 192.087872 L 490.572518 192.474150" fill="none" id="1" stroke="black" stroke-width="0.50206" /><path d="M 18.568208 172.684340 L 14.576519 172.942064 L 10.785118 174.159677 L 7.220427 175.933189 L 3.921074 178.153049 L 1.209778 181.093945 L 0.353035 184.995328 L 0.704313 188.945009 L 3.135337 191.851444 L 6.322945 194.244200 L 9.904735 196.024869 L 13.594951 197.517098 L 17.462792 198.536809 L 21.369562 199.354321 L 25.339519 199.843655 L 29.327411 200.040850 L 33.327411 200.040850 L 33.378708 200.040850" fill="none" id="2" stroke="black" stroke-width="0.50206" /><path d="M 207.241148 259.992340 L 203.241606 260.003510 L 199.312457 260.539653 L 195.741947 262.335926 L 192.462661 264.626403 L 190.105809 267.852279 L 188.567028 271.501435 L 188.986686 275.384624 L 191.380966 278.501787 L 194.668682 280.780147 L 198.351552 282.278308 L 202.135547 283.572905 L 206.084436 284.210302 L 210.033325 284.847698 L 214.018219 285.105589 L 218.016520 285.222169 L 222.015216 285.311660 L 226.015216 285.311660 L 230.015216 285.311660 L 233.990964 285.028891 L 237.932546 284.347768 L 241.874128 283.666646 L 245.737391 282.660746 L 249.556191 281.470464 L 253.341478 280.192035 L 256.986500 278.544668 L 260.631521 276.897302 L 260.687748 276.871890" fill="none" id="3" stroke="black" stroke-width="0.50206" /><path d="M 413.300328 165.699700 L 417.280215 165.909310 L 420.736954 167.765251 L 423.464683 170.641940 L 425.299616 174.189412 L 426.177019 178.051989 L 425.372254 181.818238 L 422.242487 184.168237 L 418.378342 185.124825 L 417.807868 185.198490" fill="none" id="4" stroke="black" stroke-width="0.50206" /><path d="M 1.503928 176.031150 L 0.752162 179.913704 L 0.251030 183.860518 L 1.825898 186.362590" fill="none" id="5" stroke="black" stroke-width="0.50206" /><path d="M 4.079668 174.721530 L 3.113768 177.466717 L 4.429889 181.069658 L 7.476690 183.553743 L 11.026052 185.367843 L 14.060668 186.653620" fill="none" id="6" stroke="black" stroke-width="0.50206" /><path d="M 196.294248 269.596220 L 200.294248 269.596220 L 204.277143 269.925106 L 208.262168 270.268266 L 212.250794 270.568820 L 216.241634 270.839369 L 220.236840 271.029705 L 224.233468 271.193914 L 228.233407 271.196870 L 232.233407 271.196870 L 236.233407 271.196870 L 240.231291 271.128131 L 244.223716 270.882079 L 248.165117 270.292703 L 252.056541 269.367057 L 255.797243 267.956844 L 259.465634 266.365211 L 262.620314 263.968905 L 262.941518 262.902610" fill="none" id="7" stroke="black" stroke-width="0.50206" /><path d="M 424.569188 166.136240 L 425.857058 168.579385 L 425.857058 172.538830" fill="none" id="8" stroke="black" stroke-width="0.50206" /><path d="M 6.655408 169.483050 L 10.378451 168.051627 L 13.992713 166.337826 L 17.606974 164.624025 L 21.221236 162.910224 L 24.835497 161.196422 L 28.451652 159.486711 L 32.096674 157.839345 L 35.741696 156.191978 L 39.397664 154.569528 L 43.076542 152.999224 L 46.755421 151.428921 L 50.440757 149.874276 L 54.157035 148.394653 L 57.873312 146.915031 L 61.589589 145.435409 L 65.321356 143.995859 L 69.066645 142.591290 L 72.811934 141.186722 L 76.557223 139.782154 L 80.312617 138.405154 L 84.078383 137.056448 L 87.844148 135.707741 L 91.609914 134.359035 L 95.375680 133.010329 L 99.174374 131.757524 L 102.974365 130.508499 L 106.774357 129.259474 L 110.574349 128.010448 L 114.377597 126.771480 L 118.188372 125.555752 L 121.999147 124.340024 L 125.809922 123.124296 L 129.620696 121.908568 L 133.450496 120.754181 L 137.280428 119.600221 L 141.110359 118.446261 L 144.934908 117.275107 L 148.739225 116.039318 L 152.543542 114.803529 L 156.321460 113.491696 L 160.073179 112.104395 L 163.858567 110.814366 L 167.627805 109.481466 L 171.062275 108.815594 L 171.180788 108.949500" fill="none" id="9" stroke="black" stroke-width="0.50206" /><path d="M 188.888998 104.729610 L 191.223573 103.816078 L 195.209964 103.509329 L 199.208283 103.419990 L 203.208283 103.419990 L 207.208283 103.419990 L 211.208283 103.419990 L 215.208283 103.419990 L 215.612298 103.419990" fill="none" id="10" stroke="black" stroke-width="0.50206" /><path d="M 197.904088 108.658470 L 198.357363 112.632705 L 198.810638 116.606939 L 199.263913 120.581174 L 199.769484 124.548664 L 200.339380 128.507858 L 200.909277 132.467053 L 201.479173 136.426247 L 202.049070 140.385441 L 202.618966 144.344635 L 203.188862 148.303829 L 203.758759 152.263023 L 204.328655 156.222217 L 204.897987 160.181491 L 205.438440 164.144811 L 205.978893 168.108132 L 206.519346 172.071453 L 207.059799 176.034773 L 207.600251 179.998094 L 208.070244 183.964837 L 208.660970 187.920977 L 209.251695 191.877117 L 209.842421 195.833257 L 210.433146 199.789397 L 211.023872 203.745537 L 211.653191 207.695306 L 212.365261 211.631415 L 213.077331 215.567524 L 213.789401 219.503634 L 214.501471 223.439743 L 215.213541 227.375852 L 215.950279 231.307317 L 216.718412 235.232871 L 217.486545 239.158424 L 218.254678 243.083978 L 219.022811 247.009532 L 219.790944 250.935085 L 220.686793 254.833457 L 221.583806 258.731580 L 222.480819 262.629704 L 223.377832 266.527828 L 224.332951 270.411161 L 225.408840 274.263752 L 226.484728 278.116344 L 227.560617 281.968936 L 228.686132 285.806869 L 229.876235 289.625724 L 231.066337 293.444580 L 232.256440 297.263435 L 233.446542 301.082291 L 234.636644 304.901146 L 235.826747 308.720001 L 237.016849 312.538857 L 237.828058 315.141900" fill="none" id="11" stroke="black" stroke-width="0.50206" /><path d="M 59.136108 112.878360 L 59.136108 116.878360 L 59.136108 120.878360 L 59.136108 124.878360 L 59.136108 128.878360 L 58.706297 132.849954 L 58.179885 136.815164 L 56.926376 140.612306 L 55.659250 144.406300 L 54.058531 148.071106 L 52.439838 151.728952 L 50.294029 155.087531 L 47.982593 158.352078 L 45.408662 161.397065 L 42.604017 164.249076 L 39.693460 166.977226 L 36.440529 169.304981 L 33.187599 171.632737 L 29.712852 173.607065 L 26.202233 175.524239 L 22.512547 177.035798 L 18.730490 178.338121 L 14.792670 178.992635 L 10.809521 179.232440 L 10.197058 179.232440" fill="none" id="12" stroke="black" stroke-width="0.50206" /><path d="M 369.834718 106.330260 L 370.129092 110.313177 L 370.452995 114.299887 L 370.903674 118.274210 L 371.520770 122.223548 L 372.276519 126.151505 L 373.333617 130.006610 L 374.455626 133.846024 L 376.240418 137.409278 L 378.176575 140.909463 L 380.431652 144.189033 L 383.024034 147.235269 L 385.617699 150.280130 L 388.838431 152.652235 L 392.059163 155.024340 L 395.396159 157.203198 L 399.000691 158.937369 L 402.605223 160.671540 L 406.312460 162.151695 L 410.109354 163.410104 L 413.906249 164.668513 L 417.806823 165.553952 L 421.708446 166.435620 L 425.655452 167.075957 L 429.626467 167.508131 L 431.652468 167.591370" fill="none" id="13" stroke="black" stroke-width="0.50206" /><path d="M 220.441808 185.780540 L 220.119848 189.748481 L 220.119848 193.748481 L 220.119848 197.748481 L 220.119848 201.748481 L 220.119848 205.748481 L 220.296881 209.741149 L 220.627638 213.727451 L 220.958395 217.713752 L 221.326488 221.696669 L 221.717956 225.677467 L 222.109425 229.658265 L 222.532286 233.635590 L 223.020309 237.605708 L 223.508333 241.575825 L 224.000978 245.545271 L 224.663874 249.489960 L 225.326770 253.434648 L 226.024076 257.372159 L 226.993535 261.252900 L 227.962995 265.133641 L 229.306420 268.895777 L 230.908143 272.546639 L 232.354608 274.834700" fill="none" id="14" stroke="black" stroke-width="0.50206" /><path d="M 62.355788 106.039230 L 61.389878 109.737719 L 61.389878 113.737719 L 62.374050 117.414041 L 65.018707 120.412022 L 65.575458 121.027100" fill="none" id="15" stroke="black" stroke-width="0.50206" /><path d="M 71.048908 102.692420 L 67.329033 104.012436 L 64.037489 106.276123 L 61.853714 109.618514 L 60.745948 113.404467 L 61.953194 116.625264 L 65.829859 117.447081 L 69.824474 117.534780 L 71.048908 117.534780" fill="none" id="16" stroke="black" stroke-width="0.50206" /><path d="M 364.361268 98.036000 L 368.361268 98.036000 L 370.916598 100.740771 L 371.122588 104.699737 L 370.726247 108.609371 L 368.717112 112.031168 L 365.898210 114.847292 L 364.683238 115.788620" fill="none" id="17" stroke="black" stroke-width="0.50206" /><path d="M 189.854898 54.527510 L 186.111935 55.882623 L 187.412580 56.855720 L 191.395660 56.539956 L 195.391959 56.367942 L 199.389931 56.273670 L 203.389931 56.273670 L 207.389931 56.273670 L 211.389931 56.273670 L 215.389931 56.273670 L 219.389931 56.273670 L 217.639194 56.419180 L 213.639194 56.419180 L 209.639194 56.419180 L 205.639194 56.419180 L 202.733598 56.419180" fill="none" id="18" stroke="black" stroke-width="0.50206" /><path d="M 228.169028 174.576010 L 224.181689 174.257996 L 220.186408 174.139470 L 216.186408 174.139470 L 212.186408 174.139470 L 208.186408 174.139470 L 210.939827 174.139470 L 214.939827 174.139470 L 218.938075 174.217026 L 222.925324 174.521289 L 226.209483 174.867040 L 222.214602 174.703563 L 218.239892 174.254470 L 214.265183 173.805377 L 210.287846 173.389540 L 206.290627 173.266390 L 206.396248 173.266390 L 210.396248 173.266390 L 214.392546 173.397564 L 218.384740 173.644993 L 222.373440 173.945443 L 223.017548 173.993960" fill="none" id="19" stroke="black" stroke-width="0.50206" /><path d="M 209.172948 71.989110 L 205.452076 72.933590 L 203.834321 75.481430 L 207.367803 74.028705 L 208.822552 70.524345 L 204.892938 70.097440 L 201.123768 70.808328 L 201.123768 71.989110" fill="none" id="20" stroke="black" stroke-width="0.50206" /><path d="M 81.995798 127.866230 L 78.368419 128.778058 L 74.423891 129.105658 L 70.546530 129.984955 L 67.621031 131.067520 L 71.591029 130.633948 L 74.268578 130.339960" fill="none" id="21" stroke="black" stroke-width="0.50206" /><path d="M 90.366958 48.270440 L 94.366958 48.270440 L 98.359701 48.495460 L 102.346248 48.804277 L 106.309255 49.347028 L 110.272261 49.889779 L 114.228456 50.478309 L 118.177790 51.112940 L 122.127125 51.747571 L 126.076460 52.382203 L 130.008001 53.117616 L 133.935888 53.873725 L 137.863775 54.629834 L 141.791663 55.385943 L 145.712638 56.175993 L 149.623385 57.016263 L 153.534133 57.856533 L 157.444880 58.696804 L 161.355628 59.537074 L 165.255619 60.423849 L 169.138151 61.386110 L 173.020683 62.348371 L 176.903215 63.310631 L 180.785747 64.272892 L 184.662679 65.256674 L 188.521854 66.308705 L 192.381029 67.360736 L 196.240204 68.412767 L 200.099379 69.464798 L 203.958554 70.516829 L 207.824807 71.542534 L 211.691179 72.567802 L 215.557550 73.593070 L 219.423921 74.618337 L 223.290292 75.643605 L 227.156663 76.668873 L 231.023034 77.694141 L 234.889405 78.719409 L 238.755776 79.744677 L 242.622147 80.769945 L 246.271757 82.204525 L 250.126599 83.272324 L 253.981441 84.340122 L 257.836283 85.407921 L 261.691124 86.475720 L 265.544308 87.549438 L 269.392721 88.640180 L 273.241134 89.730922 L 277.089547 90.821663 L 280.937960 91.912405 L 284.777696 93.032432 L 288.599157 94.214140 L 292.420618 95.395848 L 296.242080 96.577556 L 300.063541 97.759264 L 303.875766 98.970080 L 307.679450 100.207815 L 311.483134 101.445549 L 315.286819 102.683284 L 319.087850 103.929070 L 322.882299 105.194833 L 326.676748 106.460597 L 330.471197 107.726361 L 334.255613 109.021668 L 338.036194 110.328270 L 341.816775 111.634871 L 345.608396 112.908985 L 349.402312 114.176344 L 353.131220 115.622078 L 356.850925 117.093060 L 360.687227 118.195127 L 362.429468 117.971320" fill="none" id="22" stroke="black" stroke-width="0.50206" /><path d="M 319.285828 37.647960 L 318.963858 33.666644 L 321.109929 36.767123 L 322.721189 40.426382 L 324.082947 44.187448 L 325.440833 47.949842 L 326.675523 51.754516 L 327.910212 55.559189 L 329.132062 59.367883 L 330.287504 63.197368 L 331.442946 67.026853 L 332.598388 70.856337 L 333.565963 74.736465 L 334.491792 78.627845 L 335.417620 82.519225 L 336.327798 86.414232 L 337.207671 90.316260 L 338.087544 94.218288 L 338.967417 98.120316 L 339.847290 102.022344 L 340.727163 105.924372 L 341.697589 109.803683 L 342.763871 113.658944 L 343.830152 117.514206 L 344.721258 116.785141 L 344.721258 114.770030" fill="none" id="23" stroke="black" stroke-width="0.50206" /><path d="M 310.270738 52.344810 L 311.463669 56.161739 L 312.847653 59.914683 L 314.030384 63.734054 L 315.152392 67.573468 L 316.349905 71.389747 L 317.571325 75.198702 L 318.778331 79.012037 L 319.883046 82.856462 L 320.987760 86.700887 L 322.092475 90.545313 L 323.197189 94.389738 L 324.301903 98.234163 L 325.466196 102.059744 L 326.773187 105.840191 L 328.080179 109.620637 L 329.494835 113.361770 L 330.950400 117.086041 L 332.886556 120.586227 L 335.062228 121.573202 L 334.594251 117.615985 L 333.632325 113.750507 L 332.152291 110.034393 L 330.653493 106.325909 L 329.120694 102.631246 L 327.587896 98.936584 L 326.165070 95.198562 L 324.763972 91.451974 L 323.359150 87.706806 L 321.909961 83.978555 L 320.460772 80.250305 L 319.020684 76.518584 L 317.619587 72.771995 L 316.218491 69.025406 L 314.961925 65.231906 L 313.895641 61.376645 L 312.835495 57.520006 L 312.151559 53.578911 L 311.453673 49.640429 L 310.664880 45.718974 L 311.267358 44.149954 L 313.109273 47.686817 L 314.602179 51.397778 L 315.971195 55.155043 L 317.278184 58.935490 L 318.570500 62.720853 L 319.805193 66.525526 L 321.039886 70.330199 L 322.222433 74.150628 L 323.301237 78.002404 L 324.380042 81.854180 L 325.488756 85.697219 L 326.653013 89.524033 L 327.817270 93.350847 L 328.965360 97.182460 L 330.077134 101.024849 L 331.188908 104.867239 L 332.300682 108.709629 L 333.412456 112.552018 L 334.484159 116.405419 L 335.491819 120.276416 L 336.028138 122.336720" fill="none" id="24" stroke="black" stroke-width="0.50206" /><path d="M 83.605638 122.191210 L 85.671099 119.571970 L 81.991267 120.744270 L 84.058909 121.265834 L 85.488175 117.589648 L 85.537438 117.981625 L 85.537438 121.981625 L 86.333101 125.815099 L 86.825308 126.556610" fill="none" id="25" stroke="black" stroke-width="0.50206" /><path d="M 299.645808 127.575200 L 303.309492 126.718732 L 307.271368 126.167789 L 310.270738 125.392500" fill="none" id="26" stroke="black" stroke-width="0.50206" /><path d="M 335.706168 117.825810 L 339.241145 116.275005 L 343.207141 115.788620 L 343.288159 118.336653 L 343.111418 121.774066 L 343.436785 117.813525 L 344.527571 116.659422 L 345.687158 120.452465 L 345.525173 120.703083 L 344.494897 124.567060 L 344.399288 124.955960" fill="none" id="27" stroke="black" stroke-width="0.50206" /><path d="M 115.480418 67.623710 L 113.183127 70.898226 L 110.970986 74.224008 L 109.151963 77.786473 L 107.742993 81.511626 L 106.787298 85.375337 L 106.787298 89.375337 L 108.859287 92.756692 L 112.140600 94.858860 L 115.860203 96.236795 L 119.799081 96.933386 L 123.766173 97.308430 L 127.766173 97.308430 L 131.766173 97.308430 L 135.766173 97.308430 L 139.766173 97.308430 L 143.674440 96.513029 L 147.569430 95.602507 L 151.398915 94.472333 L 155.156396 93.100713 L 158.879181 91.645952 L 162.497044 89.939768 L 166.009342 88.066503 L 169.103686 85.531738 L 171.786798 82.611651 L 174.093519 79.349189 L 175.048475 75.464854 L 175.366368 71.503357 L 175.163726 67.556729 L 173.193376 64.075677 L 171.048331 60.714636 L 168.505914 57.626575 L 165.799709 54.704997 L 162.670583 52.213297 L 159.494202 49.793483 L 155.965950 47.908958 L 152.392494 46.154402 L 148.456298 45.442813 L 144.515898 44.778110 L 140.515898 44.778110 L 136.515898 44.778110 L 132.769311 46.159614 L 129.029730 47.579309 L 125.797250 49.886428 L 122.675579 52.387461 L 119.872403 55.211457 L 117.328132 58.297990 L 114.896796 61.457693 L 113.119604 65.041209 L 111.342411 68.624725 L 110.265960 72.458252 L 109.373471 76.357414 L 109.041068 80.319858 L 109.041068 84.319858 L 110.634513 87.748305 L 113.176930 90.836365 L 116.394635 93.029640 L 120.061537 94.627710 L 123.770050 96.079078 L 127.729923 96.644236 L 131.689796 97.209394 L 135.651770 97.744970 L 139.651770 97.744970 L 143.651770 97.744970 L 147.651770 97.744970 L 151.635713 97.489345 L 155.604272 96.988808 L 159.572831 96.488271 L 163.538415 95.973582 L 167.372521 94.833567 L 171.206626 93.693551 L 175.040732 92.553536 L 178.665139 90.881076 L 182.246928 89.100405 L 185.731440 87.182936 L 188.589396 84.384350 L 191.321912 81.497191 L 193.002842 77.867526 L 194.040478 74.096133 L 194.040478 70.096133 L 192.960466 66.309732 L 191.416298 62.624749 L 188.676089 59.710773 L 185.919653 56.818165 L 182.376986 54.960879 L 178.834319 53.103593 L 175.018588 51.996508 L 171.110935 51.141960 L 167.185373 50.453140 L 163.185373 50.453140 L 159.185373 50.453140 L 155.197901 50.624987 L 151.240191 51.205102 L 147.282481 51.785217 L 143.419212 52.681583 L 139.791479 54.366681 L 136.163746 56.051778 L 132.574726 57.801671 L 129.371741 60.197685 L 126.168755 62.593699 L 123.106865 65.131049 L 120.705402 68.329951 L 118.303938 71.528853 L 116.811861 75.158670 L 115.856907 79.043006 L 115.938214 82.953765 L 116.693965 86.881721 L 119.628251 89.465363 L 122.800150 91.902381 L 126.590193 93.058910 L 130.471354 94.026688 L 134.407869 94.543680 L 138.407869 94.543680 L 142.407869 94.543680 L 146.402773 94.381152 L 150.394916 94.130560 L 154.387058 93.879968 L 158.221551 92.842469 L 162.002131 91.535865 L 165.782712 90.229262 L 169.376014 88.483459 L 172.936165 86.659912 L 176.432195 84.738626 L 179.522648 82.199117 L 182.613101 79.659609 L 184.912958 76.418473 L 187.067268 73.048170 L 187.960574 69.175062 L 188.491360 65.236504 L 188.108326 61.254886 L 186.696984 57.667025 L 184.322722 54.447882 L 181.304692 51.932062 L 177.888588 49.851141 L 174.253919 48.310082 L 170.352297 47.428412 L 166.450675 46.546741 L 162.453181 46.524280 L 158.453181 46.524280 L 154.466439 46.652769 L 150.550720 47.469558 L 146.635001 48.286348 L 142.719282 49.103138 L 139.077784 50.746323 L 135.450548 52.432490 L 131.823312 54.118658 L 128.525902 56.365600 L 125.289537 58.716332 L 122.111038 61.123061 L 119.867831 64.434861 L 117.624623 67.746661 L 116.926098 71.648719 L 116.550189 75.603512 L 117.525572 79.482768 L 119.522754 82.677619 L 122.738805 85.056068 L 126.104008 87.144801 L 129.908323 88.380593 L 133.712639 89.616386 L 135.442398 90.178280" fill="none" id="28" stroke="black" stroke-width="0.50206" /><path d="M 179.873908 45.942220 L 176.246672 44.256051 L 172.619437 42.569883 L 168.992202 40.883714 L 165.138478 39.837922 L 161.257691 38.868648 L 157.376904 37.899375 L 153.408047 37.611777 L 149.408345 37.562923 L 145.408643 37.514068 L 141.426850 37.834496 L 137.450644 38.270141 L 133.525637 38.855200 L 130.117893 40.949783 L 126.710149 43.044367 L 124.032666 45.941171 L 121.627974 49.137646 L 119.871842 52.643331 L 118.902382 56.524072 L 118.056158 60.419972 L 118.056158 64.419972 L 118.056158 68.419972 L 119.062127 72.249306 L 120.381386 76.025488 L 122.599550 79.219279 L 125.506815 81.966607 L 128.520033 84.546882 L 132.244515 86.005727 L 135.968997 87.464573 L 139.831062 88.349710 L 143.812099 88.738734 L 147.793137 89.127758 L 151.784325 89.278627 L 155.784027 89.229769 L 159.783729 89.180911 L 163.679807 88.482371 L 167.496252 87.284563 L 171.312698 86.086756 L 174.927159 84.438157 L 178.361335 82.387197 L 181.795510 80.336237 L 184.552355 77.459156 L 187.236671 74.493612 L 188.837327 70.901988 L 190.065664 67.095259 L 189.862394 63.126374 L 189.417967 59.179681 L 186.982279 56.006760 L 184.546591 52.833840 L 181.538955 50.227683 L 178.388344 47.763205 L 175.182290 45.384373 L 171.644017 43.518729 L 168.105745 41.653085 L 164.435421 40.121649 L 160.577526 39.064935 L 156.719631 38.008220 L 152.768341 37.610731 L 148.768739 37.554244 L 144.775169 37.565644 L 140.848155 38.326279 L 136.921142 39.086914 L 133.555944 41.124135 L 130.342419 43.505995 L 127.381099 46.135375 L 125.059907 49.392992 L 122.738715 52.650609 L 121.107972 56.258109 L 119.853627 60.056348 L 118.689478 63.870626 L 118.557455 67.868447 L 118.425433 71.866267 L 119.051178 75.775672 L 120.100052 79.635706 L 122.229668 82.748371 L 125.471002 85.092247 L 128.718847 87.421363 L 132.635299 88.234626 L 136.551752 89.047890 L 140.468205 89.861154 L 140.593878 89.887250" fill="none" id="29" stroke="black" stroke-width="0.50206" /><path d="M 262.941518 6.217080 L 258.941518 6.217080 L 254.941518 6.217080 L 251.084414 7.225384 L 247.241925 8.336815 L 243.887831 10.449519 L 240.646498 12.793395 L 238.121186 15.860060 L 235.746926 19.079204 L 234.393933 22.797978 L 233.309675 26.648223 L 232.998548 30.605250 L 232.998548 34.605250 L 233.898230 38.441810 L 235.305117 42.186228 L 237.559628 45.375817 L 240.428364 48.163352 L 243.564134 50.553329 L 247.229592 52.154710 L 250.895049 53.756091 L 254.755323 54.704367 L 258.699084 55.372762 L 262.647768 55.982640 L 266.647768 55.982640 L 270.647768 55.982640 L 274.621201 55.681035 L 278.559605 54.981767 L 282.430975 54.098204 L 285.898284 52.103770 L 289.020878 50.307620" fill="none" id="30" stroke="black" stroke-width="0.50206" /><path d="M 286.767108 5.780540 L 283.052949 4.295608 L 279.338789 2.810677 L 275.416754 2.254204 L 271.423996 2.013602 L 267.432332 1.946779 L 263.442918 2.237590 L 259.453503 2.528401 L 255.785308 4.017726 L 252.185181 5.761024 L 248.788182 7.805765 L 245.820768 10.488012 L 242.853354 13.170260 L 240.779978 16.550951 L 238.895566 20.079263 L 237.414077 23.761913 L 236.459118 27.646248 L 235.574278 31.539075 L 235.574278 35.539075 L 235.574278 39.539075 L 237.253090 43.098283 L 239.218116 46.582343 L 242.157967 49.168610 L 245.468863 51.413151 L 248.990000 53.205880 L 252.839378 54.293211 L 256.688756 55.380542 L 260.644765 55.763296 L 264.643505 55.863695 L 268.642244 55.964095 L 269.380868 55.982640" fill="none" id="31" stroke="black" stroke-width="0.50206" /><path d="M 286.767108 8.836320 L 283.080209 7.284940 L 279.393310 5.733561 L 275.574962 4.671657 L 271.606890 4.167271 L 267.638818 3.662885 L 263.642935 3.597840 L 259.642935 3.597840 L 255.698720 3.902391 L 251.958414 5.320175 L 248.218108 6.737959 L 244.838491 8.775422 L 241.758410 11.327500 L 238.719377 13.914103 L 236.732719 17.385874 L 234.746062 20.857645 L 233.551166 24.614365 L 232.869822 28.555910 L 232.460116 32.505983 L 232.892832 36.482509 L 233.349804 40.448947 L 235.864598 43.559543 L 238.379393 46.670139 L 241.444554 49.136506 L 244.909742 51.134623 L 248.374930 53.132740 L 252.178517 54.330299 L 256.026265 55.423382 L 259.874014 56.516464 L 263.851771 56.908901 L 267.835530 57.268992 L 271.312668 57.583290" fill="none" id="32" stroke="black" stroke-width="0.50206" /><path d="M 294.172358 18.731230 L 291.057488 16.221731 L 287.942618 13.712232 L 284.434479 11.892711 L 280.687967 10.491410 L 276.909421 9.240179 L 272.917278 8.989588 L 268.925135 8.738996 L 264.935086 8.629111 L 260.952165 8.998360 L 256.969245 9.367609 L 253.011451 9.831900 L 249.366430 11.479268 L 245.721409 13.126637 L 242.076388 14.774005 L 238.912014 17.200493 L 235.804356 19.718918 L 232.696698 22.237342 L 230.463834 25.530578 L 228.339179 28.919654 L 226.664087 32.481500 L 225.972254 36.421217 L 225.280420 40.360933 L 225.876996 44.313399 L 226.490731 48.266035 L 229.050964 51.240828 L 231.855609 54.092839 L 235.191658 56.153334 L 238.893211 57.669415 L 242.594765 59.185496 L 246.511805 59.884189 L 250.479697 60.389989 L 254.447589 60.895790 L 255.858238 61.075610" fill="none" id="33" stroke="black" stroke-width="0.50206" /><path d="M 294.494328 19.895330 L 291.612885 17.120931 L 288.731443 14.346532 L 285.505297 12.094127 L 281.822257 10.533610 L 278.139216 8.973093 L 274.257191 8.311861 L 270.259606 8.172883 L 266.262021 8.033905 L 262.288371 8.276541 L 258.339482 8.913935 L 254.390592 9.551329 L 250.473592 10.279051 L 246.999806 12.262181 L 243.526019 14.245312 L 240.052233 16.228443 L 236.975579 18.716394 L 234.230351 21.625642 L 231.485122 24.534889 L 229.134938 27.025490" fill="none" id="34" stroke="black" stroke-width="0.50206" /><path d="M 85.859408 100.655240 L 87.524635 103.128960 L 89.723018 103.128960" fill="none" id="35" stroke="black" stroke-width="0.50206" /><path d="M 87.147278 112.587330 L 86.503348 110.619439 L 86.302117 106.639477 L 86.181378 102.651500 L 86.181378 98.651500 L 87.126835 94.792561 L 88.723718 91.157024 L 88.757118 90.760330" fill="none" id="36" stroke="black" stroke-width="0.50206" /><path d="M 84.249568 113.605920 L 83.605638 110.249850 L 83.605638 106.249850 L 84.336917 102.321081 L 85.123589 98.399275 L 86.068704 94.514521 L 87.068725 90.664563 L 88.817238 87.071366 L 90.044988 84.794280" fill="none" id="37" stroke="black" stroke-width="0.50206" /><path d="M 86.825308 99.491130 L 86.825308 95.491130 L 87.131668 91.523820 L 87.975692 87.613881 L 89.080035 83.771196 L 89.904828 79.857155 L 90.366958 77.664130" fill="none" id="38" stroke="black" stroke-width="0.50206" /><path d="M 89.723018 83.048120 L 90.024000 79.078091 L 90.648339 75.173267 L 90.876460 71.191011 L 91.010888 67.199243 L 91.010888 63.199243 L 91.010888 59.199243 L 90.688918 55.231303 L 90.171992 51.322187 L 90.044988 53.557247 L 90.044988 57.557247 L 90.044988 61.557247 L 90.044988 65.557247 L 90.044988 69.557247 L 90.044988 73.557247 L 90.038958 77.556774 L 89.723018 81.531961 L 89.723018 83.183519 L 89.723018 79.183519 L 89.723018 75.183519 L 89.723018 71.183519 L 90.110308 67.209371 L 90.366958 63.226503 L 90.366958 59.226503 L 90.366958 55.226503 L 90.366958 51.226503 L 89.343955 47.378734 L 88.922686 43.418522 L 88.773451 42.553248 L 89.079088 46.529245 L 89.310241 50.520285 L 89.619852 54.508285 L 89.723018 58.504286 L 89.723018 62.504286 L 89.723018 66.504286 L 89.723018 70.504286 L 89.723018 74.504286 L 89.723018 78.504286 L 89.723018 82.504286 L 89.723018 83.339150" fill="none" id="39" stroke="black" stroke-width="0.50206" /><path d="M 85.215478 95.562270 L 85.819906 91.639650 L 87.719667 88.124929 L 89.558402 84.572664 L 91.695368 81.197929 L 93.941303 77.887978 L 96.187238 74.578027 L 98.537274 71.344467 L 101.021069 68.209063 L 103.504865 65.073659 L 105.988661 61.938255 L 108.502020 58.826608 L 111.029390 55.726221 L 113.688008 52.738204 L 115.480418 50.744160" fill="none" id="40" stroke="black" stroke-width="0.50206" /><path d="M 88.757118 88.723140 L 89.268981 85.272768 L 91.566947 82.003172 L 94.176159 78.971912 L 96.723453 75.888108 L 99.333637 72.858240 L 101.996591 69.873499 L 104.659545 66.888758 L 107.385924 63.962828 L 110.161394 61.082417 L 112.936863 58.202006 L 115.741314 55.350186 L 118.583934 52.536024 L 121.442182 49.739509 L 124.592900 47.275490 L 127.904092 45.036915 L 131.463014 43.229791 L 135.208787 41.837899 L 139.064199 40.871112 L 143.030555 40.412710 L 146.943401 39.707704 L 150.891783 39.103661 L 153.794548 38.666550" fill="none" id="41" stroke="black" stroke-width="0.50206" /><path d="M 104.855488 62.239720 L 107.477606 59.230342 L 110.400346 56.500148 L 113.452667 53.920718 L 116.658518 51.528899 L 119.919732 49.212764 L 123.309774 47.093288 L 126.761684 45.073434 L 130.299279 43.219042 L 134.046856 41.832631 L 138.002220 41.285790 L 142.002220 41.285790 L 146.002220 41.285790 L 150.002220 41.285790 L 154.002220 41.285790 L 157.996736 41.200496 L 161.983508 40.994770 L 165.851482 41.469663 L 166.029308 41.576820" fill="none" id="42" stroke="black" stroke-width="0.50206" /><path d="M 143.491588 39.685150 L 147.200558 39.394120 L 151.200558 39.394120 L 155.099612 40.259647 L 158.791428 41.797981 L 162.409500 43.501506 L 165.923932 45.409775 L 169.530539 47.114070 L 173.283223 48.493064 L 176.928244 50.140433 L 180.150428 52.501174 L 182.872474 55.413565 L 183.737518 56.273670" fill="none" id="43" stroke="black" stroke-width="0.50206" /><path d="M 164.741438 38.812070 L 168.426598 40.130005 L 171.715151 42.402339 L 174.971131 44.725827 L 178.010792 47.325372 L 181.108015 49.856447 L 184.027347 52.589006 L 186.921386 55.350263 L 189.286976 58.565159 L 191.450289 61.916042 L 192.976424 65.611389 L 194.040478 69.369870" fill="none" id="44" stroke="black" stroke-width="0.50206" /><path d="M 207.563118 74.753860 L 210.261593 77.706525 L 212.960069 80.659189 L 215.855684 83.413631 L 216.900168 84.357740" fill="none" id="45" stroke="black" stroke-width="0.50206" /><path d="M 195.650318 55.691620 L 195.876318 55.576897 L 197.517271 59.212212 L 199.787725 62.476315 L 202.504873 65.407539 L 205.417109 68.149598 L 208.634236 70.522761 L 211.950322 72.754373 L 215.362918 74.841042 L 218.880149 76.743692 L 222.432787 78.580675 L 226.044864 80.299075 L 229.633646 82.064825 L 233.197129 83.881757 L 236.713975 85.785175 L 238.471988 87.704550" fill="none" id="46" stroke="black" stroke-width="0.50206" /><path d="M 189.532938 54.090970 L 186.602191 51.398343 L 184.580626 48.741489 L 187.206957 51.745773 L 189.503465 55.016663 L 191.781194 58.303381 L 194.155455 61.522525 L 196.592498 64.694125 L 199.058670 67.842988 L 201.667644 70.875026 L 204.413732 73.771261 L 207.420584 76.409222 L 210.653498 78.736035 L 214.091527 80.780529 L 217.683756 82.529182 L 221.328776 84.176552 L 225.144844 85.373417 L 229.044799 86.221376 L 230.390723 86.394930 L 226.474470 85.611088 L 222.563716 84.771357 L 218.622811 84.086328 L 214.947380 82.527761 L 212.729975 79.479812 L 210.950608 75.997939 L 207.410433 74.271323 L 203.763087 72.653195 L 201.096036 69.762552 L 199.277750 66.207236 L 197.354151 62.700662 L 195.054406 59.429309 L 192.558508 56.306962 L 189.892756 53.330505 L 187.030491 50.536325 L 184.168226 47.742146 L 181.252118 45.005283 L 178.344168 42.263529 L 175.669687 39.289306 L 172.994313 36.319525 L 171.824728 35.174230" fill="none" id="47" stroke="black" stroke-width="0.50206" /><path d="M 203.377538 36.920390 L 207.375333 36.861779 L 211.169682 35.726942 L 214.092041 33.060887 L 216.764243 30.084940 L 219.781734 27.461339 L 222.659381 24.684221 L 223.983458 23.387650" fill="none" id="48" stroke="black" stroke-width="0.50206" /><path d="M 234.608378 7.817730 L 234.608378 11.817730 L 233.224468 15.379696 L 230.379328 18.188471 L 227.476903 20.939104 L 224.647130 23.766184 L 221.980945 26.730955 L 219.743282 30.044657 L 217.757175 33.509162 L 216.110999 37.154721 L 214.291694 40.704555 L 212.009401 43.988079 L 208.876746 46.367122 L 207.744805 44.804924 L 211.037241 42.546422 L 214.329678 40.279854 L 217.376337 37.687969 L 220.375554 35.043434 L 223.131858 32.157943 L 225.432072 28.893301 L 227.376161 25.400881 L 229.003258 21.750524 L 230.754759 18.159314 L 232.771305 14.705703 L 233.000134 15.088371 L 230.943234 18.517956 L 228.947381 21.982132 L 226.769152 25.336295 L 224.833000 28.836483 L 222.650151 32.186897 L 220.297378 35.418475 L 217.844404 38.578051 L 215.391429 41.737626 L 212.631482 44.631690 L 209.703355 47.354465 L 206.420508 49.567196 L 205.309338 48.561460" fill="none" id="49" stroke="black" stroke-width="0.50206" /><path d="M 235.574278 9.127350 L 233.909776 12.693797 L 231.535516 15.912942 L 229.161256 19.132086 L 226.717145 22.296991 L 224.186438 25.394656 L 221.655732 28.492320 L 219.148832 31.609051 L 216.678686 34.755221 L 214.272967 37.950879 L 211.869980 41.148637 L 209.354206 44.255656 L 206.468026 47.009623 L 205.309338 44.685743 L 207.330114 41.325730 L 209.970338 38.324360 L 212.691294 35.392824 L 215.465100 32.511568 L 218.341668 29.732116 L 221.218237 26.952664 L 224.094805 24.173212 L 227.017141 21.441984 L 229.943092 18.714565 L 232.869043 15.987147 L 235.829947 13.298457 L 238.842087 10.666534 L 241.934926 8.130699 L 245.108361 5.699519 L 248.412744 3.449292 L 251.951016 1.583646 L 255.787640 0.504187 L 259.721848 0.251030" fill="none" id="50" stroke="black" stroke-width="0.50206" /><path d="M 235.896248 18.440200 L 235.648833 16.190109 L 238.696348 13.601251 L 241.946368 11.280357 L 245.409151 9.291651 L 249.043230 7.634329 L 252.863084 6.447437 L 256.776701 5.643602 L 260.749838 5.344000 L 264.749838 5.344000 L 268.749694 5.345923 L 272.688031 5.985364 L 275.975312 8.258954 L 278.549844 11.259235 L 280.042161 14.960453 L 280.649728 18.440200" fill="none" id="51" stroke="black" stroke-width="0.50206" /><path d="M 255.858238 7.526700 L 259.549928 6.217080 L 263.549928 6.217080 L 267.537063 6.354913 L 271.365320 7.364411 L 274.740427 9.492290 L 277.489730 12.397561 L 280.107972 15.421600 L 282.502713 18.624366 L 284.453161 22.109323 L 285.157278 24.551760" fill="none" id="52" stroke="black" stroke-width="0.50206" /><path d="M 277.430058 8.254270 L 281.413028 8.519129 L 284.812270 10.591985 L 288.180952 12.748830 L 291.286768 15.249861 L 293.206458 16.985070" fill="none" id="53" stroke="black" stroke-width="0.50206" /><path d="M 202.733598 46.815300 L 203.885007 49.968409 L 205.460033 53.644078 L 207.349847 57.148628 L 209.724107 60.367773 L 212.326793 63.402201 L 215.022312 66.352855 L 218.029166 68.990814 L 221.105111 71.542413 L 224.338715 73.896941 L 227.622397 76.179509 L 230.953723 78.393615 L 234.416629 80.393310 L 237.847310 82.446304 L 241.196765 84.632889 L 243.945438 86.394930" fill="none" id="54" stroke="black" stroke-width="0.50206" /><path d="M 214.002458 68.205760 L 216.031844 68.474380 L 219.400526 70.631226 L 222.921526 72.528720 L 226.473826 74.366581 L 230.052216 76.154073 L 233.684341 77.828561 L 237.329362 79.475929 L 241.029004 80.996350 L 244.749193 82.459123 L 248.593364 83.564723 L 252.467872 84.533362 L 256.419346 85.154536 L 260.387254 85.627175 L 264.378943 85.884896 L 268.376573 85.958390 L 270.990708 85.958390" fill="none" id="55" stroke="black" stroke-width="0.50206" /><path d="M 253.604458 88.141090 L 257.560722 87.553964 L 261.554733 87.335164 L 265.548745 87.116364 L 269.542756 86.897564 L 273.536767 86.678764 L 277.530779 86.459964 L 281.501375 86.001809 L 285.421809 85.246395 L 288.698918 84.357740" fill="none" id="56" stroke="black" stroke-width="0.50206" /><path d="M 299.967778 85.667360 L 303.549567 83.886689 L 307.131355 82.106018 L 310.567905 80.099820 L 313.670828 77.575563 L 316.184081 74.505128 L 317.806386 70.850222 L 319.249636 67.123444 L 319.285828 68.915026 L 318.796810 72.847286 L 317.709496 76.696669 L 316.542591 80.522238 L 314.840578 84.127762 L 312.040943 86.894226 L 308.308544 88.141090 L 305.763188 86.686447 L 307.950152 83.667922 L 311.572753 81.991507 L 315.332517 80.628058 L 319.024591 79.091816 L 320.613065 78.902573 L 318.676913 82.402761 L 316.561537 85.794139 L 314.504142 89.223065 L 311.821882 92.162663 L 310.592708 93.088540" fill="none" id="57" stroke="black" stroke-width="0.50206" /><path d="M 317.675988 78.828240 L 316.659735 82.545367 L 313.936093 85.468482 L 310.958295 88.134706 L 307.743899 90.501673 L 304.326071 92.578158 L 300.720257 94.309662 L 297.011608 95.793006 L 293.228991 97.089046 L 289.338796 98.019844 L 285.384604 98.553309 L 281.393496 98.763560 L 278.073988 98.763560" fill="none" id="58" stroke="black" stroke-width="0.50206" /><path d="M 222.051648 84.794280 L 224.357791 87.598080 L 227.956237 89.343399 L 231.636070 90.911467 L 235.315902 92.479534 L 238.998480 94.040849 L 242.728389 95.485763 L 246.477580 96.876118 L 250.287130 98.095677 L 254.122618 99.212795 L 258.053527 99.953033 L 262.000222 100.561373 L 265.994794 100.769683 L 269.990193 100.946260 L 273.990193 100.946260 L 277.978115 100.776137 L 281.937988 100.210979 L 282.903498 100.073180" fill="none" id="59" stroke="black" stroke-width="0.50206" /><path d="M 207.563118 101.964860 L 211.563118 101.964860 L 215.563118 101.964860 L 219.547495 102.269851 L 223.526560 102.678561 L 227.479411 103.289713 L 231.431342 103.907971 L 235.397973 104.421618 L 239.367243 104.916491 L 243.344661 105.333510 L 247.330376 105.671262 L 251.316091 106.009014 L 255.313361 106.142070 L 259.311766 106.255014 L 263.310703 106.330260 L 267.310703 106.330260 L 271.310703 106.330260 L 275.308825 106.218034 L 279.306585 106.084196 L 283.228627 105.403484 L 287.112358 104.446074 L 290.825622 102.977584 L 294.375805 101.172130 L 297.577882 98.800540 L 300.113538 95.735298 L 302.049697 92.235114 L 303.886796 88.683216 L 306.226643 85.455689 L 309.304838 83.048120" fill="none" id="60" stroke="black" stroke-width="0.50206" /><path d="M 313.168448 82.320560 L 313.178884 84.930362 L 310.501355 87.888779 L 308.206312 91.145597 L 306.452030 94.738305 L 304.277042 98.085995 L 301.428853 100.894521 L 298.280486 103.352772 L 294.933608 105.523198 L 291.401814 107.401077 L 287.623962 108.692970 L 283.782602 109.776137 L 279.818870 110.313560 L 275.834835 110.550140 L 271.834835 110.550140 L 267.835569 110.478711 L 263.847603 110.311167 L 259.962332 109.360026 L 256.077061 108.408886 L 252.191790 107.457746 L 248.303649 106.519038 L 244.394574 105.671019 L 240.725758 104.875120" fill="none" id="61" stroke="black" stroke-width="0.50206" /><path d="M 98.094178 31.245370 L 98.577412 35.112344 L 100.736174 38.460484 L 103.609542 41.243244 L 106.828006 43.564252 L 110.310672 45.531747 L 114.008843 47.019951 L 117.791901 48.319363 L 121.662695 49.286113 L 125.594529 50.021422 L 129.540012 50.640242 L 133.535331 50.833709 L 137.530649 51.027175 L 141.530455 51.035190 L 145.530455 51.035190 L 146.067328 51.035190" fill="none" id="62" stroke="black" stroke-width="0.50206" /><path d="M 89.079088 38.666550 L 92.929666 37.861925 L 96.900155 37.376933 L 100.870644 36.891940 L 104.843085 36.425087 L 108.825880 36.054495 L 112.808676 35.683903 L 116.791472 35.313310 L 120.774267 34.942718 L 124.757063 34.572126 L 128.747909 34.313969 L 132.742875 34.113354 L 136.737841 33.912738 L 140.732834 33.712692 L 144.728588 33.528417 L 148.724341 33.344143 L 152.720094 33.159868 L 156.716087 32.982153 L 160.714617 32.873725 L 164.713147 32.765296 L 168.711677 32.656868 L 172.710296 32.554990 L 176.710296 32.554990 L 180.710296 32.554990 L 184.710296 32.554990 L 188.710296 32.554990 L 192.710296 32.554990 L 196.710296 32.554990 L 200.710296 32.554990 L 204.710296 32.554990 L 208.710296 32.554990 L 212.709385 32.627619 L 216.708470 32.700510 L 216.311546 32.700510 L 215.612298 32.700510" fill="none" id="63" stroke="black" stroke-width="0.50206" /><path d="M 105.821388 60.057020 L 102.898689 62.698847 L 103.857410 63.287398 L 106.798770 60.578467 L 109.606730 57.731213 L 112.642764 55.136178 L 115.872070 52.777673 L 119.189836 50.546054 L 122.615869 48.481521 L 126.251863 46.827700 L 129.931695 45.259633 L 133.611527 43.691565 L 137.444155 42.577851 L 141.346926 41.724951 L 145.312048 41.197879 L 149.308237 41.140280 L 153.308237 41.140280 L 157.241552 41.544742 L 160.970630 42.971879 L 164.367294 45.021976 L 167.090504 47.887424 L 167.317178 48.706980" fill="none" id="64" stroke="black" stroke-width="0.50206" /><path d="M 124.173538 53.363400 L 123.207638 49.531572 L 124.196134 45.996257 L 127.619285 43.969358 L 131.373676 42.599566 L 135.215738 41.492774 L 139.120933 40.650313 L 143.066609 39.993322 L 147.042831 39.559388 L 151.026158 39.248610 L 155.026158 39.248610 L 159.026158 39.248610 L 163.026158 39.248610 L 167.026158 39.248610 L 170.952269 39.706419 L 174.698144 41.064507 L 177.854050 43.494620 L 180.142152 46.766673 L 181.862124 50.375083 L 183.565970 53.982119 L 186.124106 57.034662 L 187.279158 58.165340" fill="none" id="65" stroke="black" stroke-width="0.50206" /><path d="M 157.336188 36.483850 L 161.283075 37.017964 L 164.631144 39.173839 L 167.830015 41.575078 L 170.807078 44.239764 L 173.682489 47.020090 L 176.490196 49.867762 L 179.222060 52.788386 L 182.123365 55.542007 L 185.207170 58.086568 L 187.012225 58.708421 L 184.259867 55.805917 L 181.603932 52.818190 L 179.061515 49.730130 L 176.610180 46.572018 L 174.278080 43.322201 L 171.579115 40.381225 L 168.505450 37.826629 L 165.237655 35.520823 L 161.731408 33.604557 L 158.085273 31.968001 L 154.341117 30.564420 L 150.614242 30.259219 L 153.008206 33.206312 L 156.444705 35.241078 L 159.933179 37.198257 L 163.429838 39.140421 L 166.964967 41.012014 L 170.500097 42.883607 L 174.035226 44.755201 L 177.613083 46.543727 L 181.180309 48.352967 L 184.718581 50.218613 L 188.346886 51.895145 L 192.017647 53.482684 L 195.571568 55.318344 L 198.962604 57.433564 L 199.835898 59.765990" fill="none" id="66" stroke="black" stroke-width="0.50206" /><path d="M 172.468658 42.013360 L 176.237023 42.791924 L 179.398921 45.221846 L 182.366333 47.904096 L 185.333745 50.586346 L 188.213466 53.361090 L 191.049977 56.181409 L 193.845472 59.042370 L 195.972288 61.221120" fill="none" id="67" stroke="black" stroke-width="0.50206" /><path d="M 99.382048 71.843600 L 96.544505 74.275953 L 93.762396 77.149952 L 91.366752 80.344625 L 89.161013 83.680486 L 87.129800 87.120688 L 85.324559 90.690156 L 83.946209 94.443323 L 83.041620 98.313635 L 82.639738 102.289688 L 82.639738 106.289688 L 82.639738 109.531550" fill="none" id="68" stroke="black" stroke-width="0.50206" /><path d="M 290.952688 18.003660 L 291.654789 15.183147 L 294.497965 17.924737 L 297.196776 20.876754 L 299.748390 23.954009 L 302.276282 27.053011 L 304.878326 30.090998 L 307.480370 33.128986 L 310.103114 36.148950 L 312.754145 39.144286 L 315.222677 42.291398 L 317.684624 45.443987 L 319.921997 48.752552 L 320.895658 52.559976 L 318.437551 54.236480 L 317.997958 54.236480" fill="none" id="69" stroke="black" stroke-width="0.50206" /><path d="M 297.070068 14.220310 L 296.876039 15.936598 L 299.749033 18.714698 L 302.530046 21.588521 L 305.332541 24.439957 L 307.956708 27.458856 L 310.282507 30.709445 L 312.516536 34.026977 L 314.698309 37.379568 L 316.689018 40.848742 L 318.576708 44.374452 L 320.416104 47.926441 L 322.104652 51.548857 L 322.505498 54.236480" fill="none" id="70" stroke="black" stroke-width="0.50206" /><path d="M 316.066148 36.920390 L 315.422218 34.467416 L 315.882175 38.417138 L 316.874106 42.291592 L 318.275763 46.034184 L 319.745641 49.754326 L 321.133282 53.505380 L 322.350251 57.312984 L 323.416535 61.168245 L 324.482820 65.023506 L 325.549104 68.878767 L 326.197103 72.821353 L 326.369108 74.026300" fill="none" id="71" stroke="black" stroke-width="0.50206" /><path d="M 312.524508 39.103090 L 313.985670 42.825833 L 315.634378 46.469593 L 317.127282 50.180555 L 318.499746 53.937332 L 319.702540 57.747827 L 320.699212 61.621668 L 321.695883 65.495510 L 322.701074 69.367105 L 323.743138 73.228984 L 324.594454 77.134618 L 325.477327 81.031131 L 326.619170 84.864693 L 327.906876 88.646431 L 328.300918 89.596220" fill="none" id="72" stroke="black" stroke-width="0.50206" /><path d="M 326.691078 69.806410 L 326.369108 73.081372 L 326.720215 77.063859 L 327.612703 80.963021 L 328.211744 84.917322 L 329.044870 88.828115 L 329.922966 92.730543 L 331.081624 96.552994 L 332.393189 100.331855 L 334.183930 103.890565 L 336.665850 106.994558 L 338.603878 108.949500" fill="none" id="73" stroke="black" stroke-width="0.50206" /><path d="M 330.232718 92.652000 L 330.232718 96.652000 L 330.809229 100.587443 L 332.102353 104.372117 L 333.997362 107.860129 L 337.196943 110.068758 L 337.959938 110.113600" fill="none" id="74" stroke="black" stroke-width="0.50206" /><path d="M 341.179618 116.225160 L 345.179618 116.225160 L 346.009128 119.634504 L 345.574128 123.567391 L 345.365188 124.228400" fill="none" id="75" stroke="black" stroke-width="0.50206" /><path d="M 224.305418 84.939800 L 221.024488 82.838869 L 217.836137 84.076844 L 217.544108 88.006601 L 217.544108 92.006601 L 219.176063 95.652399 L 221.597628 98.752651 L 224.477183 101.529009 L 227.874714 103.630668 L 231.300750 105.695196 L 235.069897 107.027983 L 238.848085 108.341488 L 242.768765 109.053273 L 246.734770 109.573658 L 250.708923 109.980590 L 254.708590 110.032236 L 258.708256 110.083882 L 262.708064 110.113600 L 266.708064 110.113600 L 270.708064 110.113600 L 274.694443 109.856695 L 278.672016 109.433717 L 282.649590 109.010739 L 286.532257 108.073410 L 290.398857 107.049006 L 294.180102 105.777936 L 297.852901 104.193464 L 301.328598 102.253831 L 304.582197 99.939002 L 307.074388 96.810267 L 308.276517 93.032573 L 308.338928 89.040717 L 308.338928 85.040717 L 308.338928 81.040717 L 310.270738 81.780899 L 310.270738 85.780899 L 308.379452 89.203457 L 306.005113 92.421654 L 303.603647 95.620554 L 301.136314 98.766142 L 298.508036 101.781462 L 295.734432 104.660691 L 292.897917 107.481007 L 289.650356 109.815835 L 286.277885 111.935354 L 282.632865 113.582724 L 278.852754 114.833138 L 274.959525 115.751162 L 270.997730 116.079650 L 266.997730 116.079650 L 263.003358 115.911331 L 259.012294 115.644109 L 255.110664 114.923966 L 251.317579 113.654122 L 247.565238 112.289009 L 244.026965 110.423366 L 240.488692 108.557723 L 237.138465 106.373094 L 233.809797 104.158274 L 230.794442 101.530037 L 228.213704 98.518088 L 227.203128 94.826635 L 229.031953 92.062818 L 232.917145 91.209135 L 236.903796 90.956467 L 240.902979 90.905840 L 244.881516 91.192375 L 248.730692 92.114030 L 252.277406 93.963575 L 255.824121 95.813120 L 259.370835 97.662665 L 262.917549 99.512210 L 266.548246 101.180753 L 270.250672 102.694702 L 274.100925 103.731643 L 278.010635 104.576728 L 281.988623 104.922418 L 285.981690 105.157809 L 289.981445 105.166150 L 293.962184 105.035459 L 297.792115 103.881498 L 301.522599 102.483796 L 305.066652 100.629155 L 308.438707 98.493026 L 311.694919 96.171367 L 314.713979 93.547385 L 317.557345 90.739924 L 320.274292 87.804506 L 321.906208 84.648770 L 318.603991 86.892219 L 315.309649 89.160988 L 311.904569 91.259232 L 308.414683 93.199816 L 304.769663 94.847187 L 301.084568 96.394086 L 297.306380 97.707591 L 293.517666 98.984269 L 289.616043 99.865939 L 285.714421 100.747608 L 281.759277 101.269066 L 277.769862 101.559873 L 273.779306 101.819340 L 269.779306 101.819340 L 265.779306 101.819340 L 261.798601 101.533416 L 257.834869 100.995992 L 253.883871 100.399888 L 250.053938 99.245932 L 246.224006 98.091975 L 242.451406 96.771243 L 238.721497 95.326329 L 234.998078 93.865327 L 231.309714 92.317435 L 227.621350 90.769542 L 223.963847 89.150820 L 220.318827 87.503451 L 216.706806 85.787316 L 213.141222 83.974416 L 209.618400 82.085809 L 206.225068 79.967957 L 202.974130 77.670465 L 200.137615 74.850148 L 197.778257 71.665466 L 195.804432 68.186384 L 194.769922 64.333691 L 193.995094 60.423132 L 193.802912 56.427752 L 193.718508 52.429781 L 193.718508 48.429781 L 192.868535 44.525015 L 191.256344 40.950169 L 188.817052 37.811520 L 185.529336 35.533160 L 181.894227 33.968567 L 178.064174 32.834236 L 174.071106 32.598844 L 170.076683 32.409480 L 166.076683 32.409480 L 162.084861 32.518668 L 158.129494 33.114546 L 154.213925 33.872649 L 150.431868 35.174972 L 146.743357 36.698749 L 143.172990 38.502213 L 139.883610 40.771639 L 136.834798 43.341889 L 134.044643 46.201244 L 131.574498 49.347414 L 130.934858 50.162110" fill="none" id="76" stroke="black" stroke-width="0.50206" /><path d="M 102.601718 78.537210 L 101.229788 81.706957 L 99.382048 85.155481 L 99.262895 89.143063 L 98.292363 93.018408 L 97.066915 96.826069 L 95.755566 100.601874 L 95.255373 103.108542 L 97.392801 99.727506 L 99.641242 96.420572 L 101.943904 93.149831 L 104.118201 89.793802 L 106.241163 86.403664 L 108.435895 83.060954 L 110.722182 79.778745 L 113.018511 76.504061 L 115.526009 73.387580 L 118.033508 70.271099 L 120.722756 67.321292 L 123.610995 64.553970 L 126.499234 61.786647 L 129.679310 59.380294 L 132.990206 57.135753 L 136.301103 54.891213 L 139.898840 53.173447 L 143.580747 51.610256 L 147.262653 50.047066 L 151.187234 49.342290 L 155.142602 48.746415 L 159.106585 48.294679 L 163.104771 48.415142 L 167.102957 48.535604 L 170.658956 50.170923 L 174.094108 52.220249 L 177.240495 54.634230 L 180.022604 57.508229 L 182.800798 60.385625 L 185.253772 63.545201 L 187.706747 66.704776 L 190.086737 69.917671 L 192.351011 73.215104 L 194.615285 76.512536 L 197.103839 79.641541 L 199.639221 82.735381 L 202.264529 85.747197 L 205.112720 88.555721 L 207.960911 91.364245 L 211.086743 93.851047 L 214.281751 96.257688 L 217.575873 98.515332 L 221.030333 100.531938 L 224.503273 102.514304 L 228.085060 104.294977 L 230.422808 105.457180" fill="none" id="77" stroke="black" stroke-width="0.50206" /><path d="M 168.283078 73.007700 L 164.504889 71.694198 L 164.822423 70.679490 L 168.734062 71.240830 L 172.540628 72.469671 L 176.252688 73.948549 L 179.920392 75.544778 L 183.546743 77.226861 L 187.081221 79.099683 L 190.615700 80.972505 L 194.097282 82.940428 L 197.552655 84.955469 L 201.008029 86.970511 L 204.446251 89.014602 L 207.879639 91.066880 L 211.313028 93.119158 L 214.807769 95.064556 L 218.311427 96.994422 L 221.815085 98.924288 L 225.556516 100.330613 L 229.315165 101.699029 L 233.073813 103.067445 L 236.979216 103.899763 L 240.910781 104.636513 L 244.842345 105.373263 L 248.807041 105.791497 L 252.806069 105.879662 L 256.805097 105.967827 L 260.803800 106.011380 L 264.801117 105.864900 L 268.798434 105.718420 L 272.750925 105.330352 L 276.534707 104.033050 L 280.318489 102.735748 L 283.699626 100.661601 L 286.940959 98.317724 L 289.394112 95.219780 L 291.409845 91.798877 L 292.345183 87.909771 L 292.955133 83.975186 L 293.121980 79.978667 L 293.206458 77.955160" fill="none" id="78" stroke="black" stroke-width="0.50206" /><path d="M 262.941518 13.492750 L 258.981644 12.927592 L 255.003507 12.619670 L 251.003507 12.619670 L 247.181720 13.591214 L 243.442137 15.010904 L 239.855887 16.750962 L 236.404575 18.772952 L 232.956734 20.800132 L 229.769985 23.217699 L 226.583236 25.635267 L 223.460998 28.127017 L 220.624484 30.947334 L 217.787970 33.767652 L 215.076769 36.699592 L 212.601924 39.842065 L 210.127078 42.984538 L 207.927552 46.315055 L 205.900769 49.763554 L 203.873985 53.212054 L 202.181194 56.834360 L 200.519864 60.473039 L 198.808646 64.087875 L 197.020858 67.666117 L 195.233069 71.244359 L 193.315728 74.754443 L 191.379575 78.254630 L 189.221897 81.614241 L 186.879359 84.856541 L 184.333370 87.918986 L 181.402839 90.641482 L 178.285339 93.114194 L 174.847310 95.158688 L 171.142195 96.544090 L 167.248918 97.453940 L 163.248918 97.453940 L 159.261605 97.251038 L 155.292758 96.752786 L 151.542144 95.378984 L 147.812043 93.934964 L 144.100358 92.443859 L 140.270264 91.311316 L 136.387748 90.358657 L 132.442070 89.701672 L 128.469091 89.274751 L 124.479754 88.983643 L 120.495995 88.623553 L 116.517741 88.210855 L 112.545735 87.738446 L 108.651124 86.834485 L 104.895091 85.489754 L 101.666163 83.221069 L 100.991878 82.611580" fill="none" id="79" stroke="black" stroke-width="0.50206" /><path d="M 94.874498 53.217890 L 94.372752 57.186297 L 94.230568 61.177344 L 94.230568 65.177344 L 94.230568 69.177344 L 94.441890 73.167202 L 94.824925 77.148821 L 96.079360 80.931362 L 97.484136 84.676365 L 98.954014 88.396507 L 100.347948 92.131109 L 100.347948 94.398160" fill="none" id="80" stroke="black" stroke-width="0.50206" /><path d="M 218.188038 123.500830 L 222.077385 124.432112 L 225.964748 125.358908 L 229.813958 126.442022 L 233.685605 127.442681 L 237.507911 128.620853 L 241.257902 129.998404 L 242.657568 130.630980" fill="none" id="81" stroke="black" stroke-width="0.50206" /><path d="M 211.426718 124.228400 L 215.420935 124.356613 L 219.316899 125.163196 L 223.140408 126.338262 L 226.971731 127.487185 L 230.790366 128.672004 L 234.547846 130.043624 L 238.302762 131.421830 L 241.998182 132.952801 L 245.643414 134.599681 L 246.843148 135.141900" fill="none" id="82" stroke="black" stroke-width="0.50206" /><path d="M 215.612298 124.082880 L 218.670525 125.465048 L 222.348595 127.035780 L 226.113063 128.381014 L 229.934406 129.562247 L 233.716263 130.861376 L 237.341605 132.538867 L 237.828058 133.395740" fill="none" id="83" stroke="black" stroke-width="0.50206" /><path d="M 190.820808 125.246990 L 194.820808 125.246990 L 198.820808 125.246990 L 202.820808 125.246990 L 206.820808 125.246990 L 210.820808 125.246990 L 214.747747 125.947426 L 218.530114 127.199839 L 222.193934 128.803617 L 225.715051 130.654525 L 226.237228 131.067520" fill="none" id="84" stroke="black" stroke-width="0.50206" /><path d="M 200.479828 125.246990 L 201.202009 124.810450 L 205.202009 124.810450 L 209.050193 125.840564 L 212.755912 127.340526 L 216.445314 128.885944 L 220.134716 130.431361 L 223.743557 132.135569 L 227.208605 134.125780 L 230.850437 135.779667 L 234.388709 137.645314 L 237.977853 139.410876 L 241.615650 141.073594 L 243.528920 142.854110 L 241.691668 142.854110" fill="none" id="85" stroke="black" stroke-width="0.50206" /><path d="M 211.426718 126.120070 L 212.116573 124.679762 L 215.709931 126.342565 L 219.008841 128.604686 L 222.307751 130.866808 L 225.557803 133.197521 L 228.712510 135.654634 L 231.783865 138.216876 L 234.885412 140.736822 L 238.036978 143.188466 L 238.577454 144.600270 L 234.608378 144.309240" fill="none" id="86" stroke="black" stroke-width="0.50206" /><path d="M 206.919178 128.157260 L 204.987378 127.755590 L 207.324854 129.903420 L 211.323316 129.971502 L 215.307120 130.305475 L 219.229015 131.052211 L 223.073800 132.145850 L 226.854446 133.447755 L 230.578970 134.906017 L 234.267335 136.453906 L 237.868707 138.193335 L 241.504909 139.859440 L 244.980851 141.828900 L 247.937246 144.512369 L 247.599814 147.750608 L 245.877238 147.801560" fill="none" id="87" stroke="black" stroke-width="0.50206" /><path d="M 209.816888 126.265580 L 213.594077 127.568981 L 217.372493 128.874279 L 221.040707 130.465115 L 224.486031 132.480658 L 227.775235 134.753660 L 230.932132 137.202927 L 233.899546 139.885175 L 236.765441 142.675543 L 239.629066 145.468329 L 242.347184 148.394083 L 243.301498 149.402210" fill="none" id="88" stroke="black" stroke-width="0.50206" /><path d="M 334.418298 122.045700 L 337.114607 119.144711 L 338.189425 119.337185 L 335.488402 122.273030 L 332.557150 124.992656 L 329.540494 127.618850 L 326.540957 130.264344 L 323.485602 132.845972 L 320.430246 135.427600 L 317.007389 137.481263 L 313.310884 139.005096 L 312.810507 138.968464 L 315.923860 136.471527 L 319.203146 134.181050 L 322.377753 131.747728 L 325.652711 129.451345 L 328.857857 127.058676 L 331.954357 124.531204 L 334.713856 121.639002 L 334.903088 121.988846 L 332.296664 125.021565 L 329.590974 127.955068 L 326.601521 130.610427 L 323.326881 132.894093 L 319.862378 134.886405 L 316.230507 136.545374 L 312.450479 137.839417 L 308.540726 138.652321 L 306.077370 137.633223 L 309.121886 135.224580 L 312.775761 133.599411 L 316.553951 132.285911 L 320.369823 131.086538 L 324.123355 129.706380 L 327.925097 128.465320 L 330.632051 127.429690 L 326.680121 127.869527 L 322.942360 129.269432 L 319.317025 130.958866 L 315.694605 132.651395 L 311.974900 134.122379 L 308.289326 135.676262 L 304.604924 137.232816 L 300.875015 138.677731 L 297.145106 140.122646 L 293.420045 141.579576 L 289.731681 143.127469 L 285.982243 144.518446 L 282.337222 146.165814 L 282.259568 146.200910" fill="none" id="89" stroke="black" stroke-width="0.50206" /><path d="M 252.638558 144.018210 L 248.696696 143.581670 L 250.333867 144.309240 L 254.333867 144.309240 L 258.333867 144.309240 L 262.333867 144.309240 L 266.333867 144.309240 L 270.333867 144.309240 L 274.333867 144.309240 L 278.333867 144.309240 L 282.333867 144.309240 L 286.333867 144.309240 L 290.333867 144.309240 L 294.333867 144.309240 L 298.071176 143.205018 L 298.803703 139.518354 L 295.293191 138.124013 L 291.298572 138.052170 L 287.328568 138.452631 L 283.721593 140.156155 L 280.076573 141.803523 L 276.389050 143.353348 L 272.566163 144.506692 L 268.668186 145.375937 L 264.708312 145.941095 L 260.717433 146.135493 L 256.718254 146.200910 L 252.718254 146.200910 L 248.718254 146.200910 L 244.763429 145.647466 L 241.674934 143.237711 L 241.592194 139.507300 L 245.589473 139.521209 L 249.310436 140.984468 L 253.130048 142.171607 L 256.995771 143.199319 L 260.884037 144.135323 L 264.794989 144.964325 L 268.762052 145.476587 L 272.739534 145.882927 L 276.730374 146.153477 L 280.728768 146.200910 L 284.728768 146.200910 L 288.728768 146.200910 L 292.728768 146.200910 L 296.701296 145.906575 L 300.513633 144.790106 L 302.865488 141.960487 L 299.458028 143.210585 L 295.867460 144.920584 L 292.041971 146.076518 L 288.064398 146.499495 L 284.075104 146.772635 L 280.079015 146.928480 L 276.079015 146.928480 L 272.079559 146.880330 L 268.080580 146.789965 L 264.147996 146.081213 L 260.226082 145.296267 L 256.324460 144.414595 L 252.422838 143.532923 L 248.488127 142.831786 L 244.517233 142.417570 L 248.017582 142.417570 L 252.017582 142.417570 L 256.017582 142.417570 L 260.017582 142.417570 L 264.016897 142.478248 L 268.015876 142.568613 L 272.014855 142.658978 L 276.012455 142.790036 L 280.008376 142.970634 L 284.007722 142.999620 L 288.007722 142.999620 L 292.007722 142.999620 L 296.007722 142.999620 L 299.293299 141.149357 L 298.543109 137.761140 L 294.863815 138.840948 L 291.428775 140.877298 L 287.737633 142.415674 L 283.968322 143.754421 L 280.084032 144.686340 L 276.152401 145.410619 L 272.192528 145.975777 L 268.213631 146.380898 L 264.225809 146.637450 L 260.225809 146.637450 L 256.225809 146.637450 L 252.225809 146.637450 L 248.225809 146.637450 L 249.314977 146.491940 L 253.314977 146.491940 L 257.314977 146.491940 L 261.314977 146.491940 L 265.314977 146.491940 L 269.314977 146.491940 L 273.303791 146.317980 L 277.270854 145.805719 L 281.221996 145.187729 L 285.163996 144.509026 L 289.049679 143.562990 L 292.930466 142.593717 L 296.811253 141.624444 L 300.717448 140.765516 L 304.616767 139.875840 L 308.540895 139.134332 L 312.509741 138.636074 L 312.846478 137.673648 L 316.220912 135.684236 L 315.740770 132.813680 L 314.134348 132.959200" fill="none" id="90" stroke="black" stroke-width="0.50206" /></svg>