<?xml version="1.0" encoding="utf-8" ?>
<svg baseProfile="full" height="355.6103" version="1.1" viewBox="0,0,499.6103,355.6103" width="499.6103" xmlns="http://www.w3.org/2000/svg" xmlns:ev="http://www.w3.org/2001/xml-events" xmlns:xlink="http://www.w3.org/1999/xlink"><defs><style type="text/css"><![CDATA[
	.background { fill: white; }
	.line { stroke: firebrick; stroke-width: .1mm; }
	.blacksquare { fill: indigo; }
	.whitesquare { fill: white; }
]]></style></defs><rect class="background" height="100%" width="100%" x="0" y="0" /><path d="M 483.478150 34.109050 L 484.573150 37.103850 L 485.628150 40.112650 L 486.620150 43.142850 L 487.572150 46.185850 L 488.475150 49.243650 L 489.306150 52.321850 L 490.095150 55.411450 L 490.858150 58.507250 L 491.512150 61.628050 L 492.086150 64.764250 L 492.619150 67.907850 L 493.101150 71.059550 L 493.502150 74.222550 L 493.817150 77.395450 L 494.093150 80.572050 L 494.344150 83.750850 L 494.544150 86.933050 L 494.703150 90.117650 L 494.838150 93.303350 L 494.939150 96.490250 L 494.988150 99.678350 L 494.988150 102.867150 L 494.988150 106.055150 L 494.988150 109.244150 L 494.988150 112.433150 L 494.988150 115.621150 L 494.988150 118.810150 L 494.988150 121.998150 L 494.988150 125.187150 L 494.988150 128.376150" fill="none" id="0" stroke="#f375a0" stroke-width="0.5" /><path d="M 472.101150 35.557750 L 474.708150 37.648450 L 477.119150 39.961850 L 479.282150 42.506650 L 481.116150 45.294250 L 482.865150 48.141650 L 484.551150 51.026250 L 486.145150 53.963050 L 487.658150 56.942550 L 489.099150 59.956750 L 490.426150 63.023450 L 491.627150 66.142050 L 492.761150 69.285350 L 493.792150 72.464050 L 494.674150 75.686650 L 495.505150 78.923250 L 496.288150 82.171950 L 496.924150 85.450150 L 497.420150 88.754850 L 497.902150 92.061750 L 498.324150 95.375050 L 498.468150 98.713650 L 498.588150 102.053150 L 498.689150 105.393150 L 498.728150 108.735150 L 498.736150 112.077150 L 498.736150 115.418150 L 498.733150 118.760150 L 498.640150 122.098150 L 498.322150 125.424150 L 497.805150 128.725150 L 497.130150 131.997150" fill="none" id="1" stroke="#00d4db" stroke-width="0.5" /><path d="M 0.305150 172.870150 L 0.742137 173.791150 L 1.179163 174.712150 L 1.658300 175.612150 L 2.137870 176.511150 L 2.679070 177.375150 L 3.220620 178.238150 L 3.799620 179.077150 L 4.378720 179.916150 L 4.969380 180.746150 L 5.560130 181.577150 L 6.162310 182.399150 L 6.764650 183.221150 L 7.390760 184.025150 L 8.016910 184.830150 L 8.649300 185.629150 L 9.281720 186.428150 L 9.920310 187.223150 L 10.558950 188.017150 L 11.200750 188.809150 L 11.842650 189.600150 L 12.491650 190.386150 L 13.140650 191.172150 L 13.796850 191.952150 L 14.453050 192.732150 L 15.145450 193.480150 L 15.837850 194.228150 L 16.533550 194.973150 L 17.229350 195.717150 L 17.935450 196.452150 L 18.641650 197.187150" fill="none" id="2" stroke="#9de993" stroke-width="0.5" /><path d="M 4.052750 166.662150 L 4.152640 167.679150 L 4.252930 168.695150 L 4.414930 169.704150 L 4.578740 170.713150 L 4.829570 171.703150 L 5.082210 172.693150 L 5.398980 173.664150 L 5.716340 174.635150 L 6.056060 175.599150 L 6.396410 176.562150 L 6.763900 177.515150 L 7.131680 178.469150 L 7.513890 179.416150 L 7.896370 180.364150 L 8.294310 181.305150 L 8.692520 182.245150 L 9.108060 183.179150 L 9.523880 184.112150 L 9.959630 185.036150 L 10.395950 185.960150 L 10.884550 186.857150 L 11.373350 187.754150 L 11.891950 188.635150 L 12.410650 189.515150 L 12.957750 190.378150 L 13.505050 191.240150 L 14.076950 192.087150 L 14.648950 192.934150 L 15.239950 193.767150 L 15.830950 194.600150" fill="none" id="3" stroke="#9de993" stroke-width="0.5" /><path d="M 24.362650 196.457150 L 25.196350 198.012150 L 26.046750 199.556150 L 27.161750 200.924150 L 28.289650 202.278150 L 29.709050 203.326150 L 31.128450 204.374150 L 32.740450 205.084150 L 34.366750 205.769150 L 36.032150 206.348150 L 37.712850 206.885150 L 39.413250 207.351150 L 41.132850 207.746150 L 42.862550 208.082150 L 44.616550 208.275150 L 46.371250 208.454150 L 48.135750 208.462150 L 49.900350 208.471150 L 51.664850 208.464150 L 53.429350 208.456150 L 55.187550 208.333150 L 56.942250 208.147150 L 58.661850 207.798150 L 60.337650 207.246150 L 61.924050 206.540150 L 63.230350 205.354150 L 64.497150 204.133150 L 65.488250 202.673150 L 66.473150 201.210150 L 67.115050 199.566150 L 67.757050 197.923150" fill="none" id="4" stroke="#c94e76" stroke-width="0.5" /><path d="M 30.104450 197.212150 L 31.144950 198.318150 L 32.185350 199.423150 L 33.373750 200.367150 L 34.568750 201.304150 L 35.893350 202.040150 L 37.237750 202.746150 L 38.674350 203.213150 L 40.143750 203.595150 L 41.625750 203.920150 L 43.118650 204.197150 L 44.617450 204.433150 L 46.127750 204.588150 L 47.638750 204.736150 L 49.153550 204.838150 L 50.668450 204.941150 L 52.185850 204.990150 L 53.703450 205.036150 L 55.220750 205.003150 L 56.737850 204.942150 L 58.250150 204.821150 L 59.758550 204.647150 L 61.257450 204.418150 L 62.738150 204.083150 L 64.197750 203.690150 L 65.536550 202.974150 L 66.868350 202.248150 L 67.967150 201.201150 L 69.065850 200.153150 L 69.928250 198.903150 L 70.788150 197.652150" fill="none" id="5" stroke="#c94e76" stroke-width="0.5" /><path d="M 32.182550 197.211150 L 32.697950 197.476150 L 33.213350 197.741150 L 33.730950 198.002150 L 34.248450 198.264150 L 34.768950 198.519150 L 35.289450 198.774150 L 35.812150 199.025150 L 36.334850 199.275150 L 36.860650 199.519150 L 37.386450 199.763150 L 37.913550 200.005150 L 38.440650 200.246150 L 38.968550 200.486150 L 39.496450 200.725150 L 40.024950 200.963150 L 40.553550 201.201150 L 41.082050 201.439150 L 41.610650 201.677150 L 42.139150 201.915150 L 42.667750 202.153150 L 43.196250 202.392150 L 43.724850 202.630150 L 44.253350 202.868150 L 44.781950 203.106150 L 45.310450 203.344150 L 45.839050 203.582150 L 46.367550 203.820150 L 46.896150 204.058150 L 47.424650 204.296150 L 47.953150 204.534150" fill="none" id="6" stroke="#c94e76" stroke-width="0.5" /><path d="M 15.161750 165.110150 L 15.700850 166.241150 L 16.239950 167.372150 L 16.821150 168.482150 L 17.402850 169.592150 L 18.061450 170.658150 L 18.720050 171.724150 L 19.387450 172.785150 L 20.054850 173.846150 L 20.718850 174.909150 L 21.382550 175.971150 L 22.005750 177.059150 L 22.628850 178.146150 L 23.242350 179.239150 L 23.855750 180.331150 L 24.449850 181.435150 L 25.043950 182.538150 L 25.620750 183.650150 L 26.197550 184.763150 L 26.765650 185.880150 L 27.333650 186.997150 L 27.874950 188.127150 L 28.416150 189.257150 L 28.954950 190.389150 L 29.493850 191.520150 L 30.025250 192.655150 L 30.556750 193.790150 L 31.071150 194.932150 L 31.585550 196.075150 L 32.089650 197.222150 L 32.593650 198.370150" fill="none" id="7" stroke="#c94e76" stroke-width="0.5" /><path d="M 32.593650 198.370150 L 32.072350 197.290150 L 31.549750 196.211150 L 31.014650 195.138150 L 30.473950 194.068150 L 29.914750 193.008150 L 29.352950 191.949150 L 28.786950 190.892150 L 28.228050 189.831150 L 27.676350 188.767150 L 27.124650 187.702150 L 26.572950 186.638150 L 26.057650 185.556150 L 25.554650 184.467150 L 25.051550 183.379150 L 24.548550 182.291150 L 24.106250 181.176150 L 23.663950 180.062150 L 23.221750 178.948150 L 22.793450 177.828150 L 22.407150 176.693150 L 22.020950 175.558150 L 21.634650 174.423150 L 21.267650 173.282150 L 20.919850 172.135150 L 20.571950 170.988150 L 20.224150 169.840150 L 19.876350 168.693150 L 19.528550 167.546150 L 19.180750 166.398150 L 18.832850 165.251150" fill="none" id="8" stroke="#c94e76" stroke-width="0.5" /><path d="M 18.832850 165.251150 L 19.060750 166.313150 L 19.292650 167.373150 L 19.586350 168.419150 L 19.896350 169.459150 L 20.312350 170.462150 L 20.730550 171.464150 L 21.158250 172.462150 L 21.588550 173.459150 L 22.026750 174.452150 L 22.464950 175.446150 L 22.903250 176.439150 L 23.341550 177.433150 L 23.779950 178.426150 L 24.218150 179.420150 L 24.656350 180.414150 L 25.082850 181.412150 L 25.497950 182.416150 L 25.912850 183.419150 L 26.327750 184.423150 L 26.731250 185.431150 L 27.128050 186.442150 L 27.524650 187.452150 L 27.921250 188.463150 L 28.304450 189.479150 L 28.683150 190.497150 L 29.059350 191.516150 L 29.435050 192.534150 L 29.780650 193.564150 L 30.122050 194.595150 L 30.446450 195.631150 L 30.769750 196.668150" fill="none" id="9" stroke="#c94e76" stroke-width="0.5" /><path d="M 30.769750 196.668150 L 30.538250 195.780150 L 30.306350 194.893150 L 30.048550 194.012150 L 29.790150 193.132150 L 29.487450 192.266150 L 29.184650 191.400150 L 28.867850 190.540150 L 28.550950 189.679150 L 28.217850 188.824150 L 27.884750 187.970150 L 27.545150 187.118150 L 27.205550 186.265150 L 26.856850 185.417150 L 26.508150 184.569150 L 26.152650 183.723150 L 25.797150 182.878150 L 25.431950 182.036150 L 25.066850 181.195150 L 24.688850 180.359150 L 24.310950 179.523150 L 23.925650 178.691150 L 23.540250 177.858150 L 23.136650 177.035150 L 22.733050 176.211150 L 22.325150 175.389150 L 21.917050 174.568150 L 21.496750 173.753150 L 21.076350 172.937150 L 20.648850 172.126150 L 20.221350 171.314150" fill="none" id="10" stroke="#c94e76" stroke-width="0.5" /><path d="M 20.221350 171.314150 L 20.411850 172.170150 L 20.602350 173.025150 L 20.863650 173.861150 L 21.127350 174.697150 L 21.513050 175.484150 L 21.899150 176.271150 L 22.307650 177.046150 L 22.716250 177.821150 L 23.139450 178.588150 L 23.562650 179.356150 L 23.985750 180.123150 L 24.408950 180.891150 L 24.832150 181.658150 L 25.255250 182.426150 L 25.678450 183.193150 L 26.101650 183.960150 L 26.524750 184.728150 L 26.947950 185.495150 L 27.371050 186.263150 L 27.794250 187.030150 L 28.217450 187.797150 L 28.640550 188.565150 L 29.063750 189.332150 L 29.486950 190.100150 L 29.910050 190.867150 L 30.333250 191.634150 L 30.756450 192.402150 L 31.179550 193.169150 L 31.602750 193.937150 L 32.025850 194.704150" fill="none" id="11" stroke="#c94e76" stroke-width="0.5" /><path d="M 203.345150 107.887150 L 203.583150 108.796150 L 203.822150 109.705150 L 204.105150 110.602150 L 204.388150 111.498150 L 204.739150 112.369150 L 205.090150 113.241150 L 205.476150 114.098150 L 205.862150 114.955150 L 206.268150 115.803150 L 206.673150 116.650150 L 207.102150 117.487150 L 207.530150 118.323150 L 207.984150 119.146150 L 208.439150 119.969150 L 208.932150 120.768150 L 209.426150 121.568150 L 209.949150 122.349150 L 210.472150 123.129150 L 211.013150 123.898150 L 211.553150 124.667150 L 212.110150 125.424150 L 212.666150 126.181150 L 213.255150 126.914150 L 213.844150 127.646150 L 214.463150 128.353150 L 215.082150 129.061150 L 215.720150 129.751150 L 216.357150 130.441150 L 217.012150 131.116150 L 217.666150 131.790150" fill="none" id="12" stroke="#57b870" stroke-width="0.5" /><path d="M 219.673150 93.814850 L 220.355150 95.232650 L 221.036150 96.650550 L 221.687150 98.082950 L 222.332150 99.517650 L 222.939150 100.968150 L 223.532150 102.426150 L 224.100150 103.892150 L 224.650150 105.366150 L 225.208150 106.837150 L 225.775150 108.305150 L 226.353150 109.767150 L 226.958150 111.220150 L 227.568150 112.670150 L 228.206150 114.108150 L 228.844150 115.546150 L 229.500150 116.976150 L 230.156150 118.405150 L 230.832150 119.826150 L 231.513150 121.244150 L 232.233150 122.642150 L 232.970150 124.032150 L 233.749150 125.398150 L 234.561150 126.746150 L 235.406150 128.072150 L 236.294150 129.370150 L 237.196150 130.659150 L 238.132150 131.923150 L 239.075150 133.183150 L 240.052150 134.415150 L 241.030150 135.648150" fill="none" id="13" stroke="#d271bb" stroke-width="0.5" /><path d="M 241.030150 135.648150 L 240.771150 134.932150 L 240.506150 134.218150 L 240.210150 133.517150 L 239.909150 132.818150 L 239.563150 132.139150 L 239.218150 131.461150 L 238.829150 130.806150 L 238.440150 130.152150 L 238.033150 129.509150 L 237.625150 128.866150 L 237.211150 128.227150 L 236.796150 127.589150 L 236.381150 126.951150 L 235.965150 126.313150 L 235.549150 125.675150 L 235.133150 125.037150 L 234.727150 124.393150 L 234.321150 123.749150 L 233.929150 123.097150 L 233.536150 122.445150 L 233.158150 121.784150 L 232.780150 121.123150 L 232.439150 120.443150 L 232.098150 119.762150 L 231.759150 119.080150 L 231.421150 118.398150 L 231.091150 117.712150 L 230.762150 117.026150 L 230.113150 115.648150" fill="none" id="14" stroke="#d271bb" stroke-width="0.5" /><path d="M 222.083150 93.607850 L 222.083150 94.940150 L 222.083150 96.272550 L 222.159150 97.602650 L 222.235150 98.932850 L 222.400150 100.254850 L 222.566150 101.577150 L 222.855150 102.877150 L 223.144150 104.178150 L 223.494150 105.463150 L 223.843150 106.749150 L 224.209150 108.030150 L 224.575150 109.311150 L 224.943150 110.592150 L 225.312150 111.872150 L 225.685150 113.151150 L 226.058150 114.430150 L 226.431150 115.709150 L 226.804150 116.988150 L 227.177150 118.267150 L 227.550150 119.546150 L 227.946150 120.818150 L 228.341150 122.091150 L 228.732150 123.364150 L 229.123150 124.638150 L 229.503150 125.915150 L 229.882150 127.192150 L 230.237150 128.477150 L 230.592150 129.761150 L 230.932150 131.049150 L 231.272150 132.337150" fill="none" id="15" stroke="#d271bb" stroke-width="0.5" /><path d="M 231.272150 132.337150 L 230.732150 131.250150 L 230.192150 130.164150 L 229.635150 129.085150 L 229.078150 128.007150 L 228.493150 126.944150 L 227.907150 125.882150 L 227.311150 124.824150 L 226.716150 123.767150 L 226.118150 122.711150 L 225.520150 121.655150 L 224.922150 120.599150 L 224.324150 119.543150 L 223.726150 118.487150 L 223.128150 117.431150 L 222.531150 116.375150 L 221.933150 115.319150 L 221.347150 114.256150 L 220.760150 113.194150 L 220.179150 112.129150 L 219.597150 111.064150 L 219.048150 109.982150 L 218.498150 108.900150 L 217.954150 107.815150 L 217.411150 106.730150 L 216.877150 105.640150 L 216.344150 104.550150 L 215.811150 103.460150 L 215.279150 102.369150 L 214.749150 101.278150 L 214.219150 100.186050" fill="none" id="16" stroke="#d271bb" stroke-width="0.5" /><path d="M 214.219150 100.186050 L 215.055150 100.620150 L 215.892150 101.055150 L 216.672150 101.583150 L 217.450150 102.114150 L 218.111150 102.786150 L 218.771150 103.458150 L 219.386150 104.172150 L 220.001150 104.886150 L 220.536150 105.662150 L 221.072150 106.437150 L 221.607150 107.213150 L 222.143150 107.988150 L 222.678150 108.763150 L 223.214150 109.539150 L 223.716150 110.336150 L 224.218150 111.134150 L 224.689150 111.950150 L 225.160150 112.766150 L 225.602150 113.599150 L 226.043150 114.431150 L 226.469150 115.272150 L 226.894150 116.113150 L 227.307150 116.960150 L 227.721150 117.806150 L 228.131150 118.655150 L 228.541150 119.503150 L 228.950150 120.352150 L 229.359150 121.201150 L 230.174150 122.900150" fill="none" id="17" stroke="#d271bb" stroke-width="0.5" /><path d="M 230.174150 122.900150 L 229.633150 122.118150 L 229.091150 121.335150 L 228.578150 120.533150 L 228.066150 119.731150 L 227.604150 118.899150 L 227.142150 118.067150 L 226.699150 117.224150 L 226.256150 116.382150 L 225.855150 115.519150 L 225.454150 114.656150 L 225.067150 113.786150 L 224.679150 112.917150 L 224.313150 112.038150 L 223.948150 111.159150 L 223.603150 110.272150 L 223.259150 109.385150 L 222.935150 108.490150 L 222.612150 107.594150 L 222.322150 106.688150 L 222.031150 105.782150 L 221.760150 104.869150 L 221.490150 103.957150 L 221.247150 103.036150 L 221.005150 102.116150 L 220.772150 101.193150 L 220.539150 100.270250 L 220.321150 99.343750 L 220.103150 98.417350 L 219.894150 97.488650 L 219.686150 96.559950" fill="none" id="18" stroke="#d271bb" stroke-width="0.5" /><path d="M 235.199150 137.378150 L 237.046150 140.885150 L 238.882150 144.397150 L 240.716150 147.910150 L 242.513150 151.443150 L 244.260150 155.000150 L 246.006150 158.558150 L 247.569150 162.200150 L 249.113150 165.850150 L 250.648150 169.504150 L 251.988150 173.234150 L 253.310150 176.970150 L 254.632150 180.707150 L 255.811150 184.490150 L 256.943150 188.289150 L 258.071150 192.088150 L 259.092150 195.917150 L 260.005150 199.774150 L 260.901150 203.635150 L 261.720150 207.512150 L 262.411150 211.415150 L 263.101150 215.318150 L 263.599150 219.249150 L 263.975150 223.195150 L 264.201150 227.152150 L 264.243150 231.115150 L 264.243150 235.078150 L 264.113150 239.039150 L 263.289150 242.915150 L 262.124150 246.703150 L 260.629150 250.374150" fill="none" id="19" stroke="#3d8e43" stroke-width="0.5" /><path d="M 456.709150 4.307950 L 457.495150 4.768680 L 458.281150 5.229410 L 459.006150 5.781920 L 459.727150 6.338100 L 460.320150 7.029800 L 460.913150 7.721950 L 461.458150 8.452210 L 462.002150 9.183470 L 462.448150 9.977890 L 462.894150 10.772350 L 463.338150 11.568350 L 463.781150 12.364450 L 464.220150 13.162950 L 464.659150 13.961650 L 465.072150 14.773650 L 465.486150 15.585850 L 465.874150 16.410150 L 466.262150 17.234550 L 466.624150 18.071150 L 466.985150 18.907750 L 467.330150 19.751050 L 467.675150 20.594350 L 467.977150 21.454250 L 468.278150 22.314050 L 468.558150 23.181250 L 468.838150 24.048450 L 469.041150 24.936950 L 469.243150 25.825350 L 469.558150 27.620450" fill="none" id="20" stroke="#d55969" stroke-width="0.5" /><path d="M 469.799150 26.142650 L 469.581150 25.389550 L 469.363150 24.636450 L 469.124150 23.889650 L 468.884150 23.143350 L 468.625150 22.403550 L 468.364150 21.664050 L 468.058150 20.942350 L 467.752150 20.220650 L 467.445150 19.498950 L 467.139150 18.777250 L 466.799150 18.070850 L 466.459150 17.364350 L 466.119150 16.657850 L 465.779150 15.951450 L 465.433150 15.247650 L 465.088150 14.543950 L 464.737150 13.842850 L 464.386150 13.141850 L 464.035150 12.440750 L 463.684150 11.739750 L 463.341150 11.034550 L 462.998150 10.329350 L 462.656150 9.624230 L 462.313150 8.919060 L 461.992150 8.204020 L 461.670150 7.488980 L 461.365150 6.766800 L 461.060150 6.044580 L 460.477150 4.588910" fill="none" id="21" stroke="#d55969" stroke-width="0.5" /><path d="M 460.477150 4.588910 L 460.723150 5.244570 L 460.970150 5.900220 L 461.233150 6.549700 L 461.495150 7.199170 L 461.777150 7.840390 L 462.059150 8.481610 L 462.365150 9.112110 L 462.670150 9.742620 L 462.975150 10.373150 L 463.280150 11.003650 L 463.615150 11.618950 L 463.950150 12.234250 L 464.285150 12.849650 L 464.619150 13.464950 L 464.968150 14.072650 L 465.316150 14.680450 L 465.678150 15.280250 L 466.040150 15.880150 L 466.402150 16.480050 L 466.763150 17.079850 L 467.153150 17.661950 L 467.543150 18.243950 L 467.933150 18.826050 L 468.322150 19.408150 L 468.723150 19.982750 L 469.124150 20.557350 L 469.531150 21.127650 L 469.938150 21.697850 L 470.350150 22.264050 L 470.763150 22.830150" fill="none" id="22" stroke="#d55969" stroke-width="0.5" /><path d="M 469.558150 27.620450 L 468.985150 26.749850 L 468.412150 25.879350 L 467.862150 24.993850 L 467.312150 24.108350 L 466.807150 23.196650 L 466.302150 22.284850 L 465.802150 21.369850 L 465.303150 20.454950 L 464.805150 19.539450 L 464.307150 18.623850 L 463.803150 17.711050 L 463.300150 16.798150 L 462.789150 15.889850 L 462.278150 14.981550 L 461.763150 14.075050 L 461.249150 13.168550 L 460.731150 12.264050 L 460.213150 11.359450 L 459.697150 10.453750 L 459.181150 9.548070 L 458.667150 8.641690 L 458.152150 7.735320 L 457.650150 6.821750 L 457.148150 5.908180 L 456.655150 4.990190 L 456.161150 4.072200 L 455.704150 3.135370 L 455.247150 2.198520 L 454.811150 1.251837 L 454.375150 0.305150" fill="none" id="23" stroke="#64e4ff" stroke-width="0.5" /><path d="M 454.375150 0.305150 L 454.862150 1.181898 L 455.350150 2.058650 L 455.845150 2.931040 L 456.340150 3.803440 L 456.851150 4.667020 L 457.361150 5.530610 L 457.872150 6.393990 L 458.383150 7.257380 L 458.888150 8.123790 L 459.394150 8.990200 L 459.900150 9.856410 L 460.406150 10.722650 L 460.913150 11.588450 L 461.419150 12.454350 L 461.932150 13.316250 L 462.446150 14.178050 L 462.966150 15.035950 L 463.486150 15.893750 L 464.015150 16.746150 L 464.544150 17.598550 L 465.078150 18.447650 L 465.612150 19.296750 L 466.146150 20.145950 L 466.680150 20.995250 L 467.212150 21.845650 L 467.744150 22.696050 L 468.262150 23.555350 L 468.780150 24.414650 L 469.289150 25.278650 L 469.799150 26.142650" fill="none" id="24" stroke="#64e4ff" stroke-width="0.5" /><path d="M 452.158150 15.483350 L 452.528150 16.154950 L 452.898150 16.826450 L 453.268150 17.497950 L 453.638150 18.169550 L 454.008150 18.841050 L 454.378150 19.512550 L 454.748150 20.184150 L 455.118150 20.855650 L 455.488150 21.527150 L 455.858150 22.198750 L 456.228150 22.870250 L 456.594150 23.543750 L 456.955150 24.220550 L 457.315150 24.897350 L 457.675150 25.574150 L 458.025150 26.256450 L 458.363150 26.944350 L 458.702150 27.632250 L 459.040150 28.320150 L 459.360150 29.016950 L 459.667150 29.719250 L 459.975150 30.421450 L 460.283150 31.123750 L 460.564150 31.836750 L 460.837150 32.553350 L 461.107150 33.270650 L 461.378150 33.988150 L 461.625150 34.713750 L 461.869150 35.440550 L 462.100150 36.171650 L 462.330150 36.902950" fill="none" id="25" stroke="#54aeff" stroke-width="0.5" /><path d="M 449.080150 8.343520 L 449.496150 9.232820 L 449.913150 10.122120 L 450.335150 11.008550 L 450.757150 11.894950 L 451.193150 12.774950 L 451.629150 13.654850 L 452.062150 14.535850 L 452.496150 15.416850 L 452.927150 16.299150 L 453.358150 17.181550 L 453.777150 18.069350 L 454.196150 18.957250 L 454.622150 19.842250 L 455.047150 20.727350 L 455.484150 21.606650 L 455.921150 22.485950 L 456.360150 23.364350 L 456.799150 24.242650 L 457.238150 25.120550 L 457.678150 25.998450 L 458.099150 26.885550 L 458.520150 27.772750 L 458.938150 28.661050 L 459.357150 29.549350 L 459.780150 30.435250 L 460.204150 31.321150 L 460.672150 32.184050 L 461.141150 33.046950 L 462.125150 34.746550" fill="none" id="26" stroke="#54aeff" stroke-width="0.5" /><path d="M 462.125150 34.746550 L 461.631150 33.940750 L 461.138150 33.135050 L 460.640150 32.331850 L 460.143150 31.528650 L 459.637150 30.730150 L 459.132150 29.931650 L 458.626150 29.133950 L 458.120150 28.336250 L 457.612150 27.539450 L 457.104150 26.742650 L 456.597150 25.945550 L 456.089150 25.148450 L 455.583150 24.350850 L 455.076150 23.553250 L 454.579150 22.749750 L 454.082150 21.946250 L 453.594150 21.136950 L 453.107150 20.327750 L 452.637150 19.507750 L 452.168150 18.687750 L 451.709150 17.861550 L 451.251150 17.035350 L 450.805150 16.202350 L 450.359150 15.369350 L 449.919150 14.533250 L 449.479150 13.697150 L 449.057150 12.851550 L 448.636150 12.005950 L 448.225150 11.154950 L 447.815150 10.303990" fill="none" id="27" stroke="#54aeff" stroke-width="0.5" /><path d="M 447.815150 10.303990 L 448.207150 11.001050 L 448.599150 11.698150 L 448.995150 12.392650 L 449.392150 13.087050 L 449.797150 13.776850 L 450.202150 14.466550 L 450.609150 15.154850 L 451.016150 15.843150 L 451.418150 16.534550 L 451.820150 17.225950 L 452.220150 17.918550 L 452.620150 18.611250 L 453.016150 19.306050 L 453.412150 20.000850 L 453.805150 20.697250 L 454.198150 21.393650 L 454.591150 22.090350 L 454.983150 22.787150 L 455.375150 23.484350 L 455.767150 24.181550 L 456.158150 24.879150 L 456.549150 25.576650 L 456.939150 26.275150 L 457.328150 26.973650 L 457.714150 27.674050 L 458.100150 28.374550 L 458.481150 29.077650 L 458.862150 29.780850 L 459.617150 31.190850" fill="none" id="28" stroke="#54aeff" stroke-width="0.5" /><path d="M 459.617150 31.190850 L 459.064150 30.623250 L 458.510150 30.055650 L 457.999150 29.450250 L 457.488150 28.844150 L 457.058150 28.177850 L 456.629150 27.511550 L 456.217150 26.834250 L 455.805150 26.156850 L 455.412150 25.468450 L 455.019150 24.779950 L 454.626150 24.091550 L 454.233150 23.403150 L 453.840150 22.714750 L 453.446150 22.026250 L 453.067150 21.330350 L 452.687150 20.634450 L 452.320150 19.931750 L 451.953150 19.229150 L 451.592150 18.523350 L 451.231150 17.817550 L 450.873150 17.110050 L 450.516150 16.402550 L 450.158150 15.695350 L 449.799150 14.988150 L 449.440150 14.281450 L 449.081150 13.574750 L 448.715150 12.871750 L 448.348150 12.168750 L 447.978150 11.467750 L 447.608150 10.766750" fill="none" id="29" stroke="#54aeff" stroke-width="0.5" /><path d="M 447.608150 10.766750 L 447.766150 11.304250 L 447.926150 11.841250 L 448.108150 12.371150 L 448.291150 12.900650 L 448.482150 13.427250 L 448.675150 13.953250 L 448.874150 14.477050 L 449.079150 14.998450 L 449.301150 15.512850 L 449.523150 16.027150 L 449.745150 16.541450 L 449.975150 17.052550 L 450.216150 17.558150 L 450.463150 18.061050 L 450.717150 18.560550 L 450.971150 19.059950 L 451.225150 19.559450 L 451.482150 20.057150 L 451.742150 20.553350 L 452.008150 21.046550 L 452.277150 21.537950 L 452.546150 22.029350 L 452.816150 22.520750 L 453.085150 23.012150 L 453.354150 23.503550 L 453.623150 23.994950 L 453.892150 24.486250 L 454.162150 24.977650 L 454.431150 25.469050 L 454.969150 26.451850" fill="none" id="30" stroke="#54aeff" stroke-width="0.5" /><path d="M 432.488150 10.779150 L 433.142150 10.713350 L 433.797150 10.647550 L 434.453150 10.594750 L 435.109150 10.541950 L 435.767150 10.507850 L 436.424150 10.473850 L 437.082150 10.454250 L 437.740150 10.434850 L 438.398150 10.459650 L 439.055150 10.484750 L 439.711150 10.546050 L 440.366150 10.607650 L 441.012150 10.731250 L 441.659150 10.855150 L 442.290150 11.042450 L 442.921150 11.230150 L 443.529150 11.481850 L 444.137150 11.733450 L 444.704150 12.067650 L 445.271150 12.402450 L 445.808150 12.782450 L 446.345150 13.162750 L 446.846150 13.590150 L 447.346150 14.017550 L 447.832150 14.462050 L 448.317150 14.906650 L 448.769150 15.385150 L 449.221150 15.863850 L 450.081150 16.860650" fill="none" id="31" stroke="#54aeff" stroke-width="0.5" /><path d="M 450.081150 16.860650 L 449.558150 16.363550 L 449.035150 15.866450 L 448.494150 15.388750 L 447.953150 14.911050 L 447.406150 14.440750 L 446.858150 13.970450 L 446.259150 13.568850 L 445.659150 13.167850 L 445.032150 12.810450 L 444.405150 12.453150 L 443.737150 12.179650 L 443.069150 11.906550 L 442.375150 11.711350 L 441.679150 11.519450 L 440.958150 11.487150 L 440.237150 11.454950 L 439.516150 11.436450 L 438.795150 11.417950 L 438.073150 11.406150 L 437.352150 11.394550 L 436.630150 11.404650 L 435.909150 11.414850 L 435.188150 11.445150 L 434.467150 11.475650 L 433.749150 11.548950 L 433.031150 11.622350 L 432.318150 11.736650 L 431.606150 11.851150 L 430.192150 12.141750" fill="none" id="32" stroke="#54aeff" stroke-width="0.5" /><path d="M 430.192150 12.141750 L 430.779150 11.971650 L 431.366150 11.801650 L 431.962150 11.664550 L 432.558150 11.527650 L 433.159150 11.418350 L 433.760150 11.309450 L 434.371150 11.278950 L 434.981150 11.250150 L 435.592150 11.227850 L 436.203150 11.205850 L 436.814150 11.193550 L 437.425150 11.181650 L 438.036150 11.181650 L 438.647150 11.182250 L 439.258150 11.203450 L 439.869150 11.225850 L 440.464150 11.358650 L 441.059150 11.498550 L 441.567150 11.834450 L 442.064150 12.188050 L 442.423150 12.682450 L 442.782150 13.177150 L 443.126150 13.682850 L 443.468150 14.188850 L 443.791150 14.707650 L 444.114150 15.226550 L 444.425150 15.753050 L 444.735150 16.279550 L 445.034150 16.812750 L 445.332150 17.345950" fill="none" id="33" stroke="#54aeff" stroke-width="0.5" /><path d="M 429.688150 11.861750 L 430.358150 11.430950 L 431.029150 11.003050 L 431.748150 10.659350 L 432.470150 10.324950 L 433.235150 10.103840 L 434.002150 9.895630 L 434.794150 9.806790 L 435.586150 9.722270 L 436.381150 9.682020 L 437.177150 9.644740 L 437.973150 9.642800 L 438.769150 9.645030 L 439.563150 9.705250 L 440.357150 9.770630 L 441.139150 9.921450 L 441.920150 10.076150 L 442.680150 10.313150 L 443.440150 10.550350 L 444.200150 10.790150 L 444.959150 11.031050 L 445.700150 11.322950 L 446.440150 11.615450 L 447.158150 11.961050 L 447.875150 12.306750 L 448.519150 12.775250 L 449.163150 13.243650 L 449.683150 13.846950 L 450.200150 14.452350 L 450.616150 15.131650 L 451.032150 15.810850" fill="none" id="34" stroke="#54aeff" stroke-width="0.5" /><path d="M 451.222150 14.034750 L 451.458150 14.817850 L 451.695150 15.601050 L 452.015150 16.353950 L 452.336150 17.106750 L 452.739150 17.818750 L 453.143150 18.529550 L 453.688150 19.140250 L 454.232150 19.750950 L 454.785150 20.354050 L 455.338150 20.957150 L 455.900150 21.551450 L 456.463150 22.145650 L 457.035150 22.730050 L 457.608150 23.314350 L 458.195150 23.884850 L 458.781150 24.455350 L 459.377150 25.016450 L 459.972150 25.577450 L 460.570150 26.136150 L 461.167150 26.694950 L 461.764150 27.254350 L 462.361150 27.813750 L 462.950150 28.382450 L 463.538150 28.951150 L 464.105150 29.540850 L 464.672150 30.130750 L 465.203150 30.752950 L 465.734150 31.375350 L 466.241150 32.017850 L 466.747150 32.660450" fill="none" id="35" stroke="#54aeff" stroke-width="0.5" /><path d="M 67.757050 197.923150 L 66.881650 196.880150 L 66.006150 195.837150 L 64.989150 194.933150 L 63.967450 194.032150 L 62.783650 193.361150 L 61.596350 192.694150 L 60.316150 192.233150 L 59.031350 191.782150 L 57.699250 191.510150 L 56.359750 191.266150 L 55.006850 191.122150 L 53.650050 191.008150 L 52.291150 190.926150 L 50.931150 190.860150 L 49.570550 190.810150 L 48.209450 190.773150 L 46.848150 190.755150 L 45.486550 190.758150 L 44.126950 190.806150 L 42.770550 190.925150 L 41.414250 191.045150 L 40.058250 191.169150 L 38.705850 191.318150 L 37.367750 191.570150 L 36.042150 191.859150 L 34.823050 192.465150 L 33.616950 193.091150 L 32.625050 194.023150 L 31.645750 194.967150 L 30.875050 196.089150 L 30.104450 197.212150" fill="none" id="36" stroke="#eed973" stroke-width="0.5" /><path d="M 70.788150 197.652150 L 70.059750 196.505150 L 69.331350 195.357150 L 68.421950 194.348150 L 67.504250 193.346150 L 66.419850 192.532150 L 65.312650 191.744150 L 64.079050 191.194150 L 62.804550 190.722150 L 61.512250 190.305150 L 60.204150 189.935150 L 58.891650 189.584150 L 57.569150 189.270150 L 56.243750 188.974150 L 54.890450 188.849150 L 53.537050 188.724150 L 52.181250 188.629150 L 50.825150 188.539150 L 49.467450 188.479150 L 48.109050 188.435150 L 46.750450 188.418150 L 45.391450 188.437150 L 44.034150 188.484150 L 42.683550 188.636150 L 41.332950 188.788150 L 40.059250 189.262150 L 38.785550 189.736150 L 37.782550 190.644150 L 36.807750 191.589150 L 36.108350 192.754150 L 35.408950 193.919150" fill="none" id="37" stroke="#eed973" stroke-width="0.5" /><path d="M 246.095150 100.802150 L 247.233150 102.469150 L 248.441150 104.078150 L 249.889150 105.484150 L 251.438150 106.758150 L 253.176150 107.784150 L 255.004150 108.588150 L 256.968150 109.059150 L 258.938150 109.496150 L 260.921150 109.873150 L 262.912150 110.191150 L 264.923150 110.369150 L 266.935150 110.524150 L 268.952150 110.609150 L 270.969150 110.690150 L 272.986150 110.755150 L 275.004150 110.814150 L 277.023150 110.844150 L 279.041150 110.867150 L 281.059150 110.835150 L 283.078150 110.801150 L 285.095150 110.725150 L 287.112150 110.649150 L 289.105150 110.329150 L 291.098150 110.007150 L 293.049150 109.494150 L 294.999150 108.969150 L 296.814150 108.091150 L 298.618150 107.187150 L 300.297150 106.067150 L 301.973150 104.941150" fill="none" id="38" stroke="#008bd4" stroke-width="0.5" /><path d="M 268.928150 96.608650 L 266.867150 96.364950 L 264.801150 96.287550 L 262.729150 96.389350 L 260.705150 96.843250 L 258.807150 97.608150 L 257.047150 98.706950 L 255.902150 100.430150 L 255.370150 102.326150 L 255.515150 104.395150 L 257.142150 105.657150 L 258.914150 106.716150 L 260.788150 107.605150 L 262.786150 108.167150 L 264.808150 108.619150 L 266.854150 108.961150 L 268.918150 109.173150 L 270.987150 109.314150 L 273.060150 109.379150 L 275.135150 109.392150 L 277.209150 109.366150 L 279.283150 109.298150 L 281.320150 108.912150 L 283.347150 108.473150 L 285.365150 107.990150 L 287.383150 107.508150 L 289.296150 106.774150 L 291.054150 105.673150 L 292.481150 104.173150 L 293.714150 102.520150 L 294.759150 100.727150" fill="none" id="39" stroke="#fdb968" stroke-width="0.5" /><path d="M 294.759150 100.727150 L 293.293150 99.854350 L 291.827150 98.982150 L 290.274150 98.274350 L 288.719150 97.573550 L 287.076150 97.112750 L 285.431150 96.659550 L 283.743150 96.412150 L 282.054150 96.166050 L 280.360150 95.967550 L 278.665150 95.769650 L 276.966150 95.611950 L 275.267150 95.454350 L 273.563150 95.360050 L 271.859150 95.265850 L 270.153150 95.222650 L 268.448150 95.180050 L 266.741150 95.173750 L 265.035150 95.168250 L 263.329150 95.182450 L 261.622150 95.197250 L 259.916150 95.212150 L 258.210150 95.226950 L 256.518150 95.447750 L 254.828150 95.680650 L 253.219150 96.243450 L 251.616150 96.827050 L 250.155150 97.705850 L 248.700150 98.597850 L 247.397150 99.698850 L 246.095150 100.802150" fill="none" id="40" stroke="#6f73bc" stroke-width="0.5" /><path d="M 301.973150 104.941150 L 301.644150 104.564150 L 301.316150 104.187150 L 300.923150 103.877150 L 300.531150 103.567150 L 300.116150 103.288150 L 299.700150 103.010150 L 299.274150 102.748150 L 298.847150 102.487150 L 298.394150 102.275150 L 297.941150 102.063150 L 297.488150 101.852150 L 297.034150 101.642150 L 296.547150 101.528150 L 296.060150 101.414150 L 295.573150 101.300150 L 295.086150 101.186150 L 294.599150 101.072150 L 294.112150 100.958150 L 293.620150 100.867150 L 293.128150 100.776150 L 292.637150 100.684150 L 292.145150 100.593150 L 291.653150 100.505150 L 291.160150 100.417150 L 290.668150 100.331150 L 290.175150 100.244450 L 289.682150 100.160350 L 289.189150 100.076250 L 288.695150 99.998050 L 288.201150 99.919950" fill="none" id="41" stroke="#6f73bc" stroke-width="0.5" /><path d="M 469.424150 132.411150 L 468.834150 132.531150 L 468.243150 132.650150 L 467.656150 132.786150 L 467.069150 132.922150 L 466.488150 133.082150 L 465.907150 133.242150 L 465.331150 133.420150 L 464.756150 133.599150 L 464.186150 133.794150 L 463.616150 133.990150 L 463.054150 134.208150 L 462.493150 134.427150 L 461.937150 134.658150 L 461.381150 134.891150 L 460.845150 135.166150 L 460.310150 135.444150 L 459.780150 135.730150 L 459.250150 136.017150 L 458.765150 136.374150 L 458.283150 136.736150 L 457.869150 137.172150 L 457.459150 137.614150 L 457.087150 138.088150 L 456.718150 138.564150 L 456.447150 139.102150 L 456.183150 139.643150 L 456.103150 140.238150 L 456.038150 140.837150 L 456.106150 141.436150 L 456.174150 142.035150" fill="none" id="42" stroke="#bee481" stroke-width="0.5" /><path d="M 482.273150 137.792150 L 481.357150 137.162150 L 480.441150 136.533150 L 479.454150 136.023150 L 478.466150 135.514150 L 477.405150 135.184150 L 476.344150 134.855150 L 475.244150 134.696150 L 474.144150 134.537150 L 473.040150 134.411150 L 471.935150 134.286150 L 470.828150 134.194150 L 469.720150 134.103150 L 468.609150 134.073150 L 467.498150 134.046150 L 466.388150 134.073150 L 465.277150 134.103150 L 464.169150 134.193150 L 463.062150 134.288150 L 461.955150 134.384150 L 460.847150 134.479150 L 459.748150 134.640150 L 458.650150 134.811150 L 457.568150 135.063150 L 456.489150 135.328150 L 455.531150 135.877150 L 454.596150 136.477150 L 453.867150 137.309150 L 453.160150 138.167150 L 452.671150 139.165150 L 452.185150 140.164150" fill="none" id="43" stroke="#bee481" stroke-width="0.5" /><path d="M 488.546150 150.060150 L 489.145150 148.349150 L 489.464150 146.595150 L 489.416150 144.783150 L 488.579150 143.199150 L 487.526150 141.763150 L 486.010150 140.769150 L 484.437150 139.876150 L 482.811150 139.075150 L 481.182150 138.281150 L 479.542150 137.514150 L 477.803150 137.006150 L 476.055150 136.525150 L 474.296150 136.089150 L 472.526150 135.704150 L 470.749150 135.345150 L 468.956150 135.081150 L 467.161150 134.835150 L 465.360150 134.629150 L 463.556150 134.458150 L 461.749150 134.321150 L 459.938150 134.241150 L 458.127150 134.176150 L 456.315150 134.138150 L 454.503150 134.112150 L 452.690150 134.107150 L 450.896150 134.309150 L 449.114150 134.637150 L 447.403150 135.233150 L 445.739150 135.942150 L 444.121150 136.758150" fill="none" id="44" stroke="#bee481" stroke-width="0.5" /><path d="M 452.185150 140.164150 L 452.448150 141.544150 L 452.723150 142.921150 L 453.321150 144.192150 L 453.989150 145.414150 L 454.998150 146.392150 L 456.058150 147.301150 L 457.297150 147.963150 L 458.541150 148.616150 L 459.804150 149.233150 L 461.078150 149.821150 L 462.414150 150.256150 L 463.755150 150.676150 L 465.123150 150.997150 L 466.492150 151.310150 L 467.877150 151.550150 L 469.262150 151.785150 L 470.657150 151.958150 L 472.051150 152.129150 L 473.452150 152.243150 L 474.853150 152.355150 L 476.257150 152.399150 L 477.662150 152.443150 L 479.066150 152.384150 L 480.470150 152.323150 L 481.861150 152.125150 L 483.251150 151.921150 L 484.599150 151.526150 L 485.945150 151.124150 L 487.246150 150.592150 L 488.546150 150.060150" fill="none" id="45" stroke="#8f6aaf" stroke-width="0.5" /><path d="M 267.455150 245.925150 L 266.546150 245.917150 L 265.637150 245.910150 L 264.729150 245.903150 L 263.820150 245.897150 L 262.911150 245.890150 L 262.002150 245.884150 L 261.093150 245.880150 L 260.184150 245.876150 L 259.275150 245.874150 L 258.366150 245.871150 L 257.457150 245.885150 L 256.548150 245.900150 L 255.641150 245.952150 L 254.734150 246.007150 L 253.837150 246.154150 L 252.941150 246.307150 L 252.049150 246.480150 L 251.157150 246.654150 L 250.267150 246.841150 L 249.378150 247.029150 L 248.507150 247.287150 L 247.637150 247.552150 L 246.797150 247.898150 L 245.960150 248.252150 L 245.256150 248.822150 L 244.563150 249.410150 L 244.069150 250.171150 L 243.588150 250.942150 L 242.993150 252.660150" fill="none" id="46" stroke="#8bb658" stroke-width="0.5" /><path d="M 288.617150 254.485150 L 288.189150 253.022150 L 287.662150 251.606150 L 286.822150 250.335150 L 285.704150 249.356150 L 284.388150 248.589150 L 282.968150 248.061150 L 281.506150 247.631150 L 280.018150 247.312150 L 278.518150 247.042150 L 277.008150 246.839150 L 275.495150 246.664150 L 273.976150 246.538150 L 272.456150 246.434150 L 270.934150 246.367150 L 269.411150 246.316150 L 267.887150 246.282150 L 266.363150 246.257150 L 264.840150 246.244150 L 263.316150 246.237150 L 261.792150 246.235150 L 260.268150 246.235150 L 258.744150 246.235150 L 257.220150 246.235150 L 255.698150 246.293150 L 254.177150 246.386150 L 252.699150 246.709150 L 251.247150 247.172150 L 249.847150 247.766150 L 248.473150 248.425150 L 247.178150 249.224150 L 245.907150 250.064150" fill="none" id="47" stroke="#8bb658" stroke-width="0.5" /><path d="M 242.993150 252.660150 L 243.951150 254.039150 L 244.911150 255.419150 L 246.117150 256.588150 L 247.323150 257.757150 L 248.763150 258.621150 L 250.209150 259.475150 L 251.817150 259.940150 L 253.444150 260.357150 L 255.095150 260.658150 L 256.756150 260.909150 L 258.425150 261.092150 L 260.101150 261.211150 L 261.778150 261.298150 L 263.458150 261.320150 L 265.138150 261.341150 L 266.818150 261.363150 L 268.498150 261.384150 L 270.177150 261.346150 L 271.856150 261.303150 L 273.526150 261.131150 L 275.192150 260.914150 L 276.841150 260.605150 L 278.477150 260.222150 L 280.078150 259.736150 L 281.619150 259.065150 L 283.139150 258.357150 L 284.567150 257.472150 L 285.991150 256.581150 L 287.304150 255.533150 L 288.617150 254.485150" fill="none" id="48" stroke="#bbabff" stroke-width="0.5" /><path d="M 241.757150 258.652150 L 243.667150 258.666150 L 245.577150 258.689150 L 247.485150 258.771150 L 249.392150 258.880150 L 251.292150 259.070150 L 253.190150 259.280150 L 255.084150 259.524150 L 256.980150 259.758150 L 258.877150 259.982150 L 260.776150 260.186150 L 262.676150 260.378150 L 264.578150 260.555150 L 266.480150 260.728150 L 268.382150 260.900150 L 270.284150 261.072150 L 272.187150 261.239150 L 274.090150 261.398150 L 275.997150 261.501150 L 277.905150 261.586150 L 279.815150 261.621150 L 281.724150 261.645150 L 283.634150 261.650150 L 285.544150 261.641150 L 287.454150 261.617150 L 289.356150 261.473150 L 291.254150 261.256150 L 293.145150 260.991150 L 295.034150 260.709150 L 296.911150 260.358150 L 298.787150 259.997150" fill="none" id="49" stroke="#bbabff" stroke-width="0.5" /><path d="M 298.787150 259.997150 L 297.465150 260.340150 L 296.144150 260.683150 L 294.822150 261.023150 L 293.500150 261.364150 L 292.182150 261.718150 L 290.864150 262.075150 L 289.538150 262.398150 L 288.210150 262.714150 L 286.870150 262.974150 L 285.526150 263.214150 L 284.172150 263.376150 L 282.812150 263.499150 L 281.450150 263.591150 L 280.087150 263.662150 L 278.723150 263.715150 L 277.358150 263.754150 L 275.994150 263.784150 L 274.629150 263.804150 L 273.263150 263.818150 L 271.898150 263.823150 L 270.533150 263.826150 L 269.168150 263.826150 L 267.803150 263.826150 L 266.438150 263.826150 L 265.073150 263.826150 L 263.707150 263.826150 L 262.342150 263.826150 L 260.977150 263.826150 L 259.612150 263.826150 L 258.247150 263.826150 L 256.882150 263.826150" fill="none" id="50" stroke="#bbabff" stroke-width="0.5" /><path d="M 36.558350 258.900150 L 36.993650 259.455150 L 37.429050 260.010150 L 37.853350 260.574150 L 38.277750 261.138150 L 38.682350 261.716150 L 39.087050 262.295150 L 39.485950 262.877150 L 39.884750 263.459150 L 40.276350 264.046150 L 40.667850 264.633150 L 41.056350 265.222150 L 41.444850 265.811150 L 41.848350 266.390150 L 42.251850 266.969150 L 42.666650 267.540150 L 43.081350 268.111150 L 43.518450 268.665150 L 43.955550 269.219150 L 44.421550 269.749150 L 44.887650 270.279150 L 45.369150 270.795150 L 45.850750 271.311150 L 46.368950 271.790150 L 46.887050 272.269150 L 47.411650 272.741150 L 47.936250 273.213150 L 48.482250 273.661150 L 49.028250 274.108150 L 49.585950 274.540150 L 50.143650 274.972150" fill="none" id="51" stroke="#658424" stroke-width="0.5" /><path d="M 50.143650 274.972150 L 49.628850 274.638150 L 49.113950 274.303150 L 48.600550 273.966150 L 48.087050 273.629150 L 47.575950 273.289150 L 47.064850 272.949150 L 46.554750 272.607150 L 46.044750 272.265150 L 45.537450 271.919150 L 45.030350 271.572150 L 44.533450 271.212150 L 44.036950 270.850150 L 43.561250 270.462150 L 43.086450 270.073150 L 42.625950 269.667150 L 42.166350 269.259150 L 41.724450 268.833150 L 41.283750 268.405150 L 40.855350 267.965150 L 40.427850 267.525150 L 40.009650 267.075150 L 39.592150 266.625150 L 39.221350 266.135150 L 38.854650 265.643150 L 38.546450 265.112150 L 38.243550 264.578150 L 38.179950 263.977150 L 38.162050 263.363150 L 38.308350 262.767150 L 38.454550 262.170150" fill="none" id="52" stroke="#658424" stroke-width="0.5" /><path d="M 38.454550 262.170150 L 39.360850 262.843150 L 40.267050 263.515150 L 41.175350 264.184150 L 42.083850 264.853150 L 42.992450 265.523150 L 43.901050 266.192150 L 44.816550 266.851150 L 45.733950 267.508150 L 46.669550 268.138150 L 47.611850 268.759150 L 48.566250 269.361150 L 49.526650 269.953150 L 50.497750 270.527150 L 51.475950 271.090150 L 52.466350 271.630150 L 53.467350 272.151150 L 54.479550 272.649150 L 55.504450 273.121150 L 56.534850 273.580150 L 57.573350 274.021150 L 58.615250 274.454150 L 59.663750 274.871150 L 60.712250 275.288150 L 61.760850 275.705150 L 62.809350 276.122150 L 63.857850 276.539150 L 64.906350 276.956150 L 65.954850 277.372150 L 67.003350 277.789150 L 68.051850 278.206150 L 69.100350 278.623150" fill="none" id="53" stroke="#658424" stroke-width="0.5" /><path d="M 31.647350 263.137150 L 31.889450 263.577150 L 32.131650 264.016150 L 32.371150 264.457150 L 32.610550 264.898150 L 32.846050 265.341150 L 33.080950 265.785150 L 33.312150 266.230150 L 33.542450 266.676150 L 33.765050 267.126150 L 33.984850 267.577150 L 34.202650 268.029150 L 34.419350 268.482150 L 34.633150 268.936150 L 34.844850 269.391150 L 35.088250 269.828150 L 35.360350 270.250150 L 35.658850 270.652150 L 35.986550 271.032150 L 36.317350 271.409150 L 36.653050 271.782150 L 36.990250 272.154150 L 37.330550 272.522150 L 37.672150 272.890150 L 38.017350 273.254150 L 38.362850 273.618150 L 38.710150 273.980150 L 39.057650 274.342150 L 39.407050 274.703150 L 39.756550 275.063150 L 40.458050 275.781150" fill="none" id="54" stroke="#989c37" stroke-width="0.5" /><path d="M 31.127650 264.810150 L 31.435550 265.284150 L 31.745850 265.757150 L 32.082250 266.211150 L 32.421250 266.663150 L 32.801250 267.082150 L 33.181250 267.500150 L 33.579950 267.901150 L 33.978650 268.302150 L 34.403350 268.675150 L 34.828050 269.048150 L 35.262650 269.409150 L 35.697350 269.771150 L 36.147250 270.113150 L 36.597150 270.455150 L 37.058150 270.783150 L 37.519050 271.110150 L 37.996950 271.412150 L 38.474950 271.714150 L 38.973650 271.980150 L 39.472350 272.246150 L 39.979850 272.495150 L 40.487450 272.744150 L 41.014150 272.949150 L 41.540850 273.155150 L 42.069250 273.356150 L 42.597750 273.556150 L 43.131950 273.741150 L 43.666250 273.926150 L 44.203650 274.102150 L 44.740950 274.277150" fill="none" id="55" stroke="#989c37" stroke-width="0.5" /><path d="M 291.949150 338.225150 L 290.678150 338.407150 L 289.408150 338.592150 L 288.142150 338.804150 L 286.877150 339.023150 L 285.618150 339.269150 L 284.361150 339.531150 L 283.112150 339.825150 L 281.863150 340.120150 L 280.614150 340.416150 L 279.365150 340.712150 L 278.116150 341.008150 L 276.867150 341.304150 L 275.618150 341.600150 L 274.369150 341.897150 L 273.120150 342.193150 L 271.872150 342.489150 L 270.623150 342.785150 L 269.374150 343.082150 L 268.125150 343.377150 L 266.869150 343.642150 L 265.611150 343.898150 L 264.343150 344.094150 L 263.071150 344.263150 L 261.791150 344.344150 L 260.511150 344.355150 L 259.233150 344.233150 L 258.022150 343.876150 L 256.869150 343.312150 L 255.843150 342.548150 L 254.842150 341.744150" fill="none" id="56" stroke="#bb568c" stroke-width="0.5" /><path d="M 254.842150 341.744150 L 256.048150 341.953150 L 257.254150 342.163150 L 258.466150 342.330150 L 259.678150 342.496150 L 260.898150 342.603150 L 262.117150 342.710150 L 263.339150 342.764150 L 264.562150 342.819150 L 265.785150 342.850150 L 267.009150 342.882150 L 268.232150 342.857150 L 269.456150 342.833150 L 270.678150 342.781150 L 271.901150 342.728150 L 273.120150 342.620150 L 274.339150 342.512150 L 275.527150 342.219150 L 276.715150 341.924150 L 277.877150 341.540150 L 279.038150 341.155150 L 280.168150 340.683150 L 281.297150 340.212150 L 282.421150 339.727150 L 283.545150 339.243150 L 284.664150 338.749150 L 285.784150 338.254150 L 286.927150 337.818150 L 288.070150 337.382150 L 289.224150 336.972150 L 290.377150 336.563150" fill="none" id="57" stroke="#bb568c" stroke-width="0.5" /><path d="M 290.377150 336.563150 L 289.247150 337.050150 L 288.116150 337.538150 L 286.977150 338.006150 L 285.839150 338.473150 L 284.693150 338.925150 L 283.548150 339.376150 L 282.385150 339.780150 L 281.222150 340.184150 L 280.047150 340.550150 L 278.871150 340.915150 L 277.684150 341.241150 L 276.497150 341.566150 L 275.283150 341.769150 L 274.068150 341.970150 L 272.849150 342.143150 L 271.630150 342.315150 L 270.408150 342.460150 L 269.185150 342.603150 L 267.957150 342.690150 L 266.729150 342.775150 L 265.499150 342.823150 L 264.269150 342.870150 L 263.038150 342.877150 L 261.807150 342.883150 L 260.578150 342.808150 L 259.349150 342.730150 L 258.143150 342.488150 L 256.937150 342.240150 L 255.757150 341.888150 L 254.577150 341.537150" fill="none" id="58" stroke="#bb568c" stroke-width="0.5" /><path d="M 254.577150 341.537150 L 255.855150 341.569150 L 257.132150 341.602150 L 258.409150 341.644150 L 259.686150 341.686150 L 260.962150 341.753150 L 262.238150 341.820150 L 263.514150 341.874150 L 264.790150 341.928150 L 266.067150 341.972150 L 267.344150 342.015150 L 268.622150 342.021150 L 269.900150 342.026150 L 271.177150 342.000150 L 272.454150 341.973150 L 273.729150 341.882150 L 275.003150 341.791150 L 276.263150 341.582150 L 277.524150 341.372150 L 278.772150 341.101150 L 280.021150 340.831150 L 281.213150 340.373150 L 282.406150 339.914150 L 283.585150 339.421150 L 284.763150 338.928150 L 285.909150 338.362150 L 287.054150 337.795150 L 288.159150 337.155150 L 289.265150 336.514150 L 290.338150 335.821150 L 291.411150 335.127150" fill="none" id="59" stroke="#bb568c" stroke-width="0.5" /><path d="M 291.411150 335.127150 L 290.068150 335.677150 L 288.725150 336.226150 L 287.390150 336.794150 L 286.054150 337.361150 L 284.737150 337.969150 L 283.419150 338.577150 L 282.098150 339.177150 L 280.777150 339.777150 L 279.431150 340.319150 L 278.085150 340.860150 L 276.716150 341.343150 L 275.348150 341.824150 L 273.939150 342.172150 L 272.530150 342.518150 L 271.107150 342.803150 L 269.684150 343.087150 L 268.250150 343.309150 L 266.816150 343.529150 L 265.368150 343.611150 L 263.919150 343.689150 L 262.468150 343.729150 L 261.018150 343.769150 L 259.567150 343.770150 L 258.116150 343.771150 L 256.667150 343.696150 L 255.218150 343.620150 L 253.788150 343.374150 L 252.359150 343.125150 L 250.951150 342.772150 L 249.544150 342.419150" fill="none" id="60" stroke="#bb568c" stroke-width="0.5" /><path d="M 255.677150 341.433150 L 256.195150 341.433150 L 256.712150 341.433150 L 257.230150 341.433150 L 257.748150 341.433150 L 258.265150 341.433150 L 258.783150 341.433150 L 259.300150 341.433150 L 259.818150 341.433150 L 260.336150 341.432150 L 260.853150 341.430150 L 261.371150 341.428150 L 261.889150 341.426150 L 262.406150 341.419150 L 262.924150 341.412150 L 263.441150 341.402150 L 263.959150 341.391150 L 264.476150 341.374150 L 264.993150 341.356150 L 265.510150 341.329150 L 266.027150 341.302150 L 266.543150 341.254150 L 267.058150 341.205150 L 267.566150 341.109150 L 268.075150 341.012150 L 268.579150 340.894150 L 269.083150 340.776150 L 269.581150 340.634150 L 270.079150 340.492150 L 271.069150 340.191150" fill="none" id="61" stroke="#bb568c" stroke-width="0.5" /><path d="M 264.778150 320.841150 L 259.893150 320.471150 L 255.443150 322.365150 L 252.383150 326.166150 L 250.944150 330.799150 L 250.845150 335.718150 L 251.724150 340.552150 L 254.068150 344.847150 L 257.623150 348.246150 L 261.774150 350.904150 L 266.314150 352.789150 L 271.155150 353.622150 L 276.086150 353.800150 L 280.955150 353.306150 L 285.443150 351.374150 L 288.870150 347.915150 L 290.261150 343.247150 L 290.143150 338.371150 L 287.356150 334.353150 L 283.380150 331.461150 L 278.934150 329.345150 L 274.221150 327.935150 L 269.400150 326.884150 L 264.507150 326.334150 L 259.575150 326.227150 L 254.650150 326.494150 L 249.762150 327.047150 L 245.492150 329.187150 L 243.354150 333.485150 L 243.956150 338.178150 L 246.981150 341.943150 L 250.997150 344.789150 L 255.321150 347.160150 L 260.002150 348.697150 L 264.862150 349.528150 L 269.785150 349.712150 L 274.675150 349.147150 L 278.546150 346.731150 L 279.641150 342.151150 L 278.170150 337.538150 L 274.928150 333.893150 L 271.298150 330.551150 L 266.919150 328.294150 L 262.204150 326.886150 L 257.308150 326.279150 L 252.391150 326.102150 L 247.708150 327.321150 L 243.588150 329.993150 L 241.141150 334.125150 L 240.657150 338.995150 L 242.092150 343.683150 L 245.191150 347.480150 L 249.280150 350.219150 L 253.778150 352.218150 L 258.519150 353.559150 L 263.385150 354.334150 L 268.300150 354.752150 L 273.230150 354.951150 L 278.163150 354.885150" fill="none" id="62" stroke="#c45372" stroke-width="0.5" /><path d="M 244.300150 345.572150 L 245.971150 346.169150 L 247.651150 346.737150 L 249.362150 347.209150 L 251.091150 347.598150 L 252.840150 347.894150 L 254.604150 348.076150 L 256.373150 348.210150 L 258.146150 348.279150 L 259.919150 348.335150 L 261.694150 348.354150 L 263.468150 348.365150 L 265.242150 348.361150 L 267.017150 348.345150 L 268.791150 348.322150 L 270.564150 348.253150 L 272.336150 348.170150 L 274.104150 348.025150 L 275.869150 347.847150 L 277.624150 347.585150 L 279.374150 347.292150 L 281.118150 346.968150 L 282.855150 346.607150 L 284.589150 346.231150 L 286.309150 345.795150 L 288.018150 345.324150 L 289.681150 344.704150 L 291.313150 344.014150 L 292.902150 343.223150 L 294.444150 342.349150 L 295.964150 341.433150" fill="none" id="63" stroke="#c45372" stroke-width="0.5" /><path d="M 276.690150 349.711150 L 275.858150 349.714150 L 275.025150 349.718150 L 274.193150 349.721150 L 273.360150 349.724150 L 272.528150 349.727150 L 271.695150 349.730150 L 270.863150 349.734150 L 270.030150 349.737150 L 269.198150 349.740150 L 268.365150 349.743150 L 267.533150 349.746150 L 266.700150 349.750150 L 265.868150 349.753150 L 265.035150 349.756150 L 264.202150 349.759150 L 263.370150 349.762150 L 262.537150 349.766150 L 261.705150 349.769150 L 260.872150 349.772150 L 260.040150 349.775150 L 259.207150 349.778150 L 258.375150 349.782150 L 257.542150 349.785150 L 256.710150 349.790150 L 255.877150 349.796150 L 255.045150 349.803150 L 254.212150 349.811150 L 253.380150 349.828150 L 252.547150 349.845150 L 251.715150 349.867150 L 250.883150 349.890150" fill="none" id="64" stroke="#c45372" stroke-width="0.5" /><path d="M 250.883150 349.890150 L 252.670150 350.028150 L 254.457150 350.166150 L 256.247150 350.275150 L 258.036150 350.384150 L 259.827150 350.453150 L 261.619150 350.522150 L 263.411150 350.551150 L 265.203150 350.581150 L 266.996150 350.596150 L 268.788150 350.611150 L 270.581150 350.593150 L 272.373150 350.574150 L 274.162150 350.453150 L 275.950150 350.332150 L 277.720150 350.045150 L 279.489150 349.757150 L 281.222150 349.299150 L 282.955150 348.839150 L 284.661150 348.290150 L 286.367150 347.740150 L 287.968150 346.932150 L 289.568150 346.125150 L 291.168150 345.316150 L 292.768150 344.507150 L 294.261150 343.516150 L 295.755150 342.525150 L 297.141150 341.389150 L 298.528150 340.252150 L 299.819150 339.008150 L 301.110150 337.765150" fill="none" id="65" stroke="#c45372" stroke-width="0.5" /><path d="M 249.654150 335.535150 L 249.604150 336.648150 L 249.555150 337.760150 L 249.557150 338.874150 L 249.560150 339.987150 L 249.607150 341.100150 L 249.653150 342.213150 L 249.823150 343.313150 L 249.993150 344.414150 L 250.503150 345.403150 L 251.018150 346.391150 L 251.693150 347.276150 L 252.371150 348.160150 L 253.159150 348.947150 L 253.948150 349.733150 L 254.791150 350.461150 L 255.634150 351.188150 L 256.555150 351.814150 L 257.476150 352.440150 L 258.467150 352.949150 L 259.458150 353.456150 L 260.506150 353.833150 L 261.554150 354.208150 L 262.646150 354.429150 L 263.738150 354.649150 L 264.844150 354.776150 L 265.950150 354.904150 L 267.062150 354.976150 L 268.173150 355.049150 L 269.286150 355.070150 L 270.400150 355.092150" fill="none" id="66" stroke="#c45372" stroke-width="0.5" /><path d="M 478.545150 223.720150 L 478.604150 222.969150 L 478.664150 222.217150 L 478.888150 221.500150 L 479.129150 220.786150 L 479.593150 220.196150 L 480.075150 219.616150 L 480.673150 219.163150 L 481.290150 218.729150 L 481.893150 218.277150 L 482.493150 217.821150 L 483.059150 217.325150 L 483.612150 216.812150 L 484.155150 216.289150 L 484.692150 215.760150 L 485.229150 215.231150 L 485.766150 214.702150 L 486.288150 214.159150 L 486.794150 213.600150 L 487.292150 213.035150 L 487.780150 212.461150 L 488.254150 211.875150 L 488.698150 211.266150 L 489.131150 210.650150 L 489.530150 210.010150 L 489.903150 209.358150 L 490.159150 208.649150 L 490.389150 207.932150 L 490.557150 207.198150 L 490.697150 206.458150 L 490.783150 205.709150 L 490.869150 204.960150" fill="none" id="67" stroke="#008c6f" stroke-width="0.5" /><path d="M 487.761150 205.672150 L 487.672150 206.406150 L 487.584150 207.140150 L 487.443150 207.865150 L 487.303150 208.591150 L 487.106150 209.303150 L 486.909150 210.015150 L 486.622150 210.696150 L 486.335150 211.377150 L 486.004150 212.038150 L 485.673150 212.699150 L 485.309150 213.342150 L 484.944150 213.984150 L 484.566150 214.620150 L 484.189150 215.255150 L 483.785150 215.874150 L 483.381150 216.493150 L 482.955150 217.096150 L 482.529150 217.700150 L 482.091150 218.295150 L 481.654150 218.891150 L 481.173150 219.452150 L 480.692150 220.013150 L 480.198150 220.563150 L 479.704150 221.112150 L 479.186150 221.639150 L 478.668150 222.166150 L 478.136150 222.680150 L 477.605150 223.193150 L 476.518150 224.195150" fill="none" id="68" stroke="#008c6f" stroke-width="0.5" /><path d="M 246.040150 319.082150 L 241.913150 321.791150 L 240.137150 326.335150 L 241.972150 330.825150 L 245.792150 333.773150 L 250.599150 334.983150 L 255.484150 335.757150 L 260.434150 335.762150 L 265.256150 334.868150 L 269.679150 332.628150 L 273.776150 329.938150 L 276.711150 325.979150 L 278.433150 321.371150 L 278.876150 316.435150 L 278.404150 311.677150 L 275.015150 308.175150 L 270.422150 306.450150 L 265.478150 306.075150 L 260.528150 305.902150 L 255.625150 306.464150 L 251.005150 308.205150 L 246.979150 311.037150 L 244.281150 315.036150 L 244.091150 319.968150 L 245.335150 324.684150 L 248.537150 328.428150 L 252.594150 331.279150 L 256.809150 333.865150 L 261.432150 335.649150 L 266.216150 336.934150 L 271.129150 337.559150 L 276.086150 337.520150 L 280.970150 336.960150 L 285.265150 334.523150 L 288.625150 330.978150 L 289.854150 326.199150 L 289.631150 321.264150 L 288.047150 316.592150 L 285.125150 312.606150 L 281.288150 309.496150 L 276.745150 307.520150 L 271.986150 306.150150 L 267.069150 305.689150 L 262.203150 306.626150 L 257.493150 308.147150 L 253.240150 310.667150 L 249.804150 314.222150 L 247.552150 318.596150 L 247.437150 323.537150 L 248.874150 328.262150 L 251.690150 332.323150 L 255.597150 335.343150 L 260.256150 337.034150 L 265.044150 338.306150 L 269.977150 338.748150 L 274.894150 338.184150 L 279.511150 336.398150 L 283.553150 333.542150 L 286.550150 329.633150 L 287.336150 324.742150 L 287.061150 319.810150 L 284.787150 315.420150 L 281.131150 312.078150 L 276.809150 309.648150 L 272.360150 307.471150 L 267.459150 306.749150 L 262.561150 307.489150 L 258.095150 309.642150 L 254.329150 312.860150 L 251.689150 317.055150 L 250.190150 321.780150 L 249.804150 326.723150 L 249.770150 331.682150 L 250.314150 336.610150 L 252.355150 341.126150 L 255.494150 344.962150 L 259.736150 347.521150 L 264.639150 348.213150 L 269.593150 348.062150 L 273.921150 345.655150 L 277.543150 342.272150 L 280.250150 338.121150 L 282.111150 333.528150 L 283.180150 328.688150 L 283.486150 323.741150 L 283.194150 318.793150 L 281.832150 314.033150 L 277.514150 311.745150 L 272.635150 312.399150 L 268.173150 314.543150 L 264.419150 317.771150 L 261.958150 322.075150 L 261.031150 326.946150" fill="none" id="69" stroke="#ff94af" stroke-width="0.5" /><path d="M 55.849950 141.931150 L 53.802750 142.597150 L 51.755550 143.263150 L 49.708450 143.928150 L 47.661450 144.594150 L 45.614350 145.260150 L 43.567350 145.927150 L 41.520450 146.593150 L 39.474450 147.262150 L 37.429750 147.936150 L 35.395350 148.639150 L 33.374950 149.382150 L 31.383150 150.195150 L 29.419250 151.076150 L 27.709250 152.330150 L 26.247750 153.813150 L 28.368750 154.180150 L 30.488450 154.245150 L 32.605950 153.857150 L 34.702850 153.379150 L 36.778250 152.808150 L 38.829650 152.159150 L 40.863550 151.454150 L 42.892250 150.734150 L 44.918250 150.006150 L 46.943650 149.277150 L 48.968650 148.547150 L 50.993650 147.816150 L 53.018650 147.086150 L 55.043450 146.355150 L 57.068150 145.624150" fill="none" id="70" stroke="#488656" stroke-width="0.5" /><path d="M 57.068150 145.624150 L 55.649450 145.925150 L 54.230650 146.227150 L 52.821950 146.572150 L 51.413350 146.918150 L 50.023250 147.332150 L 48.633250 147.747150 L 47.254650 148.197150 L 45.876050 148.648150 L 44.498350 149.102150 L 43.120550 149.555150 L 41.750850 150.032150 L 40.381350 150.510150 L 39.018750 151.007150 L 37.656450 151.505150 L 36.298950 152.016150 L 34.941650 152.528150 L 33.587850 153.048150 L 32.234450 153.570150 L 30.884750 154.101150 L 29.535350 154.633150 L 28.198450 155.195150 L 26.862650 155.761150 L 25.540350 156.357150 L 24.219550 156.956150 L 22.952450 157.661150 L 21.691850 158.378150 L 20.534050 159.250150 L 19.385150 160.135150 L 18.320950 161.121150 L 17.259250 162.109150" fill="none" id="71" stroke="#ffc0e1" stroke-width="0.5" /><path d="M 17.259250 162.109150 L 18.268050 161.970150 L 19.276050 161.827150 L 20.278450 161.647150 L 21.277750 161.453150 L 22.267750 161.214150 L 23.253550 160.960150 L 24.232350 160.679150 L 25.204050 160.376150 L 26.168250 160.048150 L 27.125650 159.702150 L 28.078750 159.343150 L 29.027450 158.973150 L 29.974650 158.599150 L 30.918850 158.218150 L 31.862550 157.835150 L 32.805150 157.450150 L 33.747250 157.063150 L 34.684450 156.665150 L 35.620050 156.263150 L 36.549950 155.848150 L 37.474150 155.421150 L 38.387950 154.972150 L 39.301650 154.522150 L 40.215350 154.073150 L 41.118450 153.602150 L 42.014050 153.118150 L 42.811250 152.494150 L 43.566850 151.811150 L 44.240150 151.049150 L 44.901650 150.274150" fill="none" id="72" stroke="#ffc0e1" stroke-width="0.5" /><path d="M 44.901650 150.274150 L 43.737550 150.265150 L 42.573550 150.262150 L 41.410350 150.309150 L 40.248650 150.376150 L 39.091750 150.505150 L 37.937950 150.657150 L 36.789750 150.849150 L 35.649050 151.078150 L 34.516250 151.347150 L 33.395450 151.659150 L 32.282650 152.001150 L 31.178650 152.370150 L 30.078050 152.750150 L 28.987850 153.157150 L 27.899550 153.571150 L 26.816350 153.997150 L 25.736450 154.431150 L 24.692950 154.947150 L 23.649750 155.464150 L 22.607950 155.984150 L 21.567450 156.506150 L 20.529850 157.033150 L 19.502450 157.580150 L 18.488550 158.152150 L 17.505450 158.773150 L 16.546950 159.434150 L 15.757350 160.272150 L 15.051150 161.198150 L 14.499550 162.220150 L 13.970250 163.257150" fill="none" id="73" stroke="#ffc0e1" stroke-width="0.5" /><path d="M 21.987650 163.351150 L 21.895250 163.841150 L 21.802950 164.331150 L 21.712150 164.821150 L 21.621450 165.312150 L 21.532350 165.802150 L 21.443350 166.293150 L 21.354950 166.784150 L 21.266550 167.274150 L 21.178650 167.765150 L 21.090850 168.256150 L 21.019150 168.750150 L 20.955750 169.244150 L 20.892450 169.739150 L 20.829350 170.234150 L 20.773850 170.729150 L 20.725250 171.226150 L 20.683950 171.722150 L 20.651350 172.220150 L 20.618750 172.718150 L 20.586050 173.215150 L 20.591350 173.711150 L 20.675150 174.203150 L 20.764150 174.693150 L 20.867550 175.181150 L 20.974350 175.668150 L 21.095550 176.152150 L 21.224150 176.633150 L 21.391650 177.103150 L 21.564350 177.571150 L 21.990250 178.473150" fill="none" id="74" stroke="#ffc0e1" stroke-width="0.5" /><path d="M 21.990250 178.473150 L 22.107350 177.262150 L 22.224550 176.050150 L 22.303350 174.836150 L 22.381750 173.622150 L 22.389650 172.405150 L 22.397450 171.189150 L 22.393550 169.972150 L 22.389750 168.755150 L 22.408750 167.539150 L 22.427750 166.322150 L 22.524050 165.109150 L 22.620550 163.896150 L 22.835750 162.699150 L 23.051650 161.501150 L 23.492550 160.367150 L 23.933750 159.233150 L 24.434950 158.125150 L 24.936550 157.016150 L 25.636650 156.021150 L 26.342650 155.031150 L 27.239350 154.208150 L 28.137850 153.388150 L 29.151550 152.715150 L 30.165650 152.043150 L 31.231150 151.456150 L 32.296950 150.869150 L 33.396250 150.347150 L 34.495650 149.826150 L 35.620150 149.361150 L 36.744550 148.896150" fill="none" id="75" stroke="#ffc0e1" stroke-width="0.5" /><path d="M 36.744550 148.896150 L 35.856350 149.772150 L 34.968050 150.648150 L 34.051150 151.494150 L 33.132350 152.338150 L 32.128850 153.077150 L 31.114650 153.804150 L 30.163750 154.610150 L 29.226750 155.434150 L 28.334850 156.305150 L 27.457150 157.192150 L 26.611450 158.108150 L 25.780150 159.039150 L 24.989250 160.002150 L 24.223250 160.987150 L 23.534450 162.024150 L 22.907450 163.102150 L 22.364650 164.221150 L 21.911450 165.384150 L 21.494950 166.559150 L 21.128250 167.751150 L 20.825350 168.958150 L 20.639350 170.192150 L 20.467550 171.427150 L 20.331950 172.667150 L 20.215150 173.909150 L 20.166850 175.156150 L 20.122550 176.402150 L 20.101850 177.650150 L 20.083850 178.897150 L 20.098850 180.144150 L 20.113850 181.392150" fill="none" id="76" stroke="#ffc0e1" stroke-width="0.5" /><path d="M 20.113850 181.392150 L 20.274450 180.144150 L 20.433250 178.896150 L 20.537350 177.643150 L 20.635950 176.389150 L 20.656750 175.131150 L 20.672550 173.873150 L 20.634750 172.616150 L 20.601850 171.358150 L 20.631650 170.101150 L 20.669250 168.844150 L 20.817850 167.594150 L 20.979750 166.348150 L 21.345350 165.144150 L 21.735450 163.953150 L 22.465250 162.928150 L 23.201350 161.908150 L 24.042550 160.973150 L 24.886850 160.041150 L 25.795750 159.171150 L 26.706150 158.303150 L 27.653050 157.475150 L 28.602450 156.650150 L 29.638850 155.937150 L 30.677750 155.228150 L 31.806450 154.672150 L 32.936150 154.119150 L 34.108750 153.664150 L 35.281650 153.209150 L 36.486450 152.847150 L 37.691350 152.486150" fill="none" id="77" stroke="#ffc0e1" stroke-width="0.5" /><path d="M 37.691350 152.486150 L 36.554750 152.776150 L 35.418050 153.067150 L 34.320450 153.481150 L 33.223250 153.897150 L 32.207450 154.484150 L 31.191650 155.071150 L 30.255450 155.778150 L 29.319550 156.485150 L 28.425350 157.245150 L 27.531250 158.004150 L 26.772750 158.899150 L 26.016250 159.796150 L 25.333450 160.750150 L 24.652450 161.705150 L 24.141650 162.761150 L 23.634350 163.819150 L 23.296450 164.942150 L 22.963650 166.067150 L 22.717750 167.214150 L 22.474250 168.362150 L 22.288250 169.520150 L 22.104350 170.679150 L 22.038750 171.850150 L 21.978550 173.022150 L 22.188450 174.175150 L 22.406750 175.328150 L 22.901250 176.391150 L 23.403650 177.451150 L 24.090250 178.402150 L 24.776850 179.353150" fill="none" id="78" stroke="#ffc0e1" stroke-width="0.5" /><path d="M 24.776850 179.353150 L 24.391050 178.175150 L 24.005250 176.997150 L 23.679750 175.801150 L 23.354550 174.605150 L 23.093750 173.393150 L 22.833350 172.182150 L 22.690150 170.950150 L 22.547850 169.719150 L 22.472750 168.482150 L 22.398350 167.244150 L 22.393150 166.005150 L 22.388750 164.765150 L 22.689250 163.563150 L 22.994050 162.362150 L 23.501950 161.231150 L 24.015350 160.103150 L 24.717650 159.082150 L 25.421450 158.062150 L 26.348750 157.239150 L 27.276250 156.417150 L 28.264550 155.669150 L 29.253050 154.921150 L 30.295850 154.251150 L 31.338850 153.581150 L 32.471350 153.077150 L 33.604150 152.574150 L 34.773850 152.164150 L 35.943750 151.754150 L 37.142050 151.437150 L 38.340350 151.120150" fill="none" id="79" stroke="#ffc0e1" stroke-width="0.5" /><path d="M 38.340350 151.120150 L 37.246950 151.580150 L 36.153650 152.040150 L 35.096250 152.578150 L 34.038950 153.115150 L 33.027250 153.735150 L 32.015950 154.355150 L 31.094650 155.102150 L 30.173950 155.850150 L 29.307550 156.660150 L 28.441150 157.470150 L 27.866950 158.508150 L 27.293350 159.546150 L 26.829650 160.638150 L 26.369350 161.731150 L 26.130250 162.892150 L 25.892350 164.055150 L 25.776250 165.235150 L 25.660850 166.416150 L 25.603350 167.600150 L 25.546550 168.785150 L 25.544950 169.971150 L 25.543550 171.158150 L 25.559650 172.344150 L 25.575850 173.530150 L 25.632450 174.715150 L 25.689350 175.899150 L 25.804450 177.080150 L 25.919650 178.260150 L 26.073950 179.437150 L 26.228250 180.613150" fill="none" id="80" stroke="#ffc0e1" stroke-width="0.5" /><path d="M 26.538350 154.245150 L 23.811750 158.374150 L 22.306450 163.068150 L 22.420250 167.964150 L 24.792050 172.102150 L 28.902750 174.774150 L 33.633750 176.194150 L 38.490950 177.215150 L 43.412550 176.854150 L 47.651550 174.344150 L 50.685450 170.472150 L 52.054650 165.803150 L 51.463150 160.930150 L 49.003650 156.741150 L 45.621150 153.112150 L 41.702950 150.084150 L 36.891050 149.081150 L 32.162650 150.231150 L 28.633250 153.666150 L 26.375350 158.025150 L 25.163350 162.834150 L 24.710550 167.754150 L 26.164150 172.387150 L 29.368350 176.122150 L 34.043850 177.648150 L 38.969550 178.204150 L 43.867950 177.751150 L 48.247250 175.593150 L 51.603850 171.990150 L 53.618450 167.527150 L 53.016650 162.767150 L 50.018550 158.892150 L 45.577450 156.726150 L 40.836450 155.257150 L 36.012850 154.136150 L 31.080750 153.983150 L 26.678850 155.770150 L 23.975250 159.791150 L 23.032450 164.615150 L 23.719750 169.497150 L 26.483450 173.563150 L 30.856250 175.844150 L 35.740750 176.636150 L 40.703650 176.695150 L 45.532750 175.913150 L 49.826550 173.522150 L 53.751750 170.485150 L 56.391050 166.380150 L 56.903650 161.494150 L 54.739050 157.124150 L 50.496850 154.624150 L 45.680950 153.549150 L 40.723550 153.310150 L 36.135950 154.582150 L 32.690150 158.057150 L 31.248250 162.723150 L 32.025850 167.593150" fill="none" id="81" stroke="#ffc0e1" stroke-width="0.5" /><path d="M 207.092150 96.919050 L 205.855150 97.910250 L 204.734150 99.021450 L 203.749150 100.255950 L 203.056150 101.682150 L 202.637150 103.198150 L 202.407150 104.762150 L 202.364150 106.347150 L 202.523150 107.921150 L 202.885150 109.450150 L 203.516150 110.904150 L 204.544150 112.105150 L 205.686150 113.197150 L 206.927150 114.181150 L 208.301150 114.973150 L 209.747150 115.607150 L 211.245150 116.124150 L 212.774150 116.541150 L 214.325150 116.864150 L 215.890150 117.113150 L 217.467150 117.270150 L 219.050150 117.350150 L 220.634150 117.386150 L 222.220150 117.380150 L 223.803150 117.310150 L 225.220150 116.775150 L 226.415150 115.763150 L 227.128150 114.347150 L 227.202150 112.821150 L 226.752150 111.332150 L 225.964150 109.957150" fill="none" id="82" stroke="#6c8139" stroke-width="0.5" /><path d="M 203.211150 105.507150 L 203.662150 104.276150 L 204.118150 103.047150 L 204.816150 101.936150 L 205.547150 100.854150 L 206.540150 99.997250 L 207.559150 99.179150 L 208.729150 98.586650 L 209.900150 97.994850 L 211.073150 97.408150 L 212.255150 96.845350 L 213.507150 96.454550 L 214.760150 96.065550 L 216.018150 95.692550 L 217.276150 95.321650 L 218.539150 94.970550 L 219.804150 94.622150 L 221.076150 94.302050 L 222.349150 93.985150 L 223.631150 93.708850 L 224.914150 93.435750 L 226.206150 93.212750 L 227.499150 92.991350 L 228.797150 92.803750 L 230.096150 92.618250 L 231.401150 92.489050 L 232.706150 92.361150 L 234.016150 92.288950 L 235.325150 92.217250 L 236.637150 92.188250 L 237.948150 92.159150" fill="none" id="83" stroke="#6c8139" stroke-width="0.5" /><path d="M 237.948150 92.159150 L 237.053150 91.720650 L 236.154150 91.290650 L 235.203150 90.992450 L 234.246150 90.723450 L 233.254150 90.623850 L 232.262150 90.561450 L 231.269150 90.652150 L 230.280150 90.762850 L 229.304150 90.969150 L 228.334150 91.191950 L 227.387150 91.505750 L 226.444150 91.825850 L 225.515150 92.189550 L 224.588150 92.554350 L 223.664150 92.929250 L 222.740150 93.304350 L 221.818150 93.681950 L 220.895150 94.059750 L 219.974150 94.440150 L 219.053150 94.820750 L 218.135150 95.209450 L 217.217150 95.598050 L 216.318150 96.028650 L 215.419150 96.459450 L 214.584150 97.004550 L 213.752150 97.552950 L 212.977150 98.179950 L 212.204150 98.808850 L 211.486150 99.500050 L 210.768150 100.192050" fill="none" id="84" stroke="#6c8139" stroke-width="0.5" /><path d="M 234.396150 70.946550 L 235.295150 70.848450 L 236.194150 70.750050 L 237.082150 70.578750 L 237.970150 70.404750 L 238.829150 70.123550 L 239.688150 69.840350 L 240.524150 69.494850 L 241.360150 69.149350 L 242.195150 68.801550 L 243.030150 68.453650 L 243.864150 68.103550 L 244.698150 67.753450 L 245.532150 67.403350 L 246.366150 67.053350 L 247.203150 66.711150 L 248.040150 66.369150 L 248.881150 66.034850 L 249.721150 65.701050 L 250.574150 65.400350 L 251.427150 65.099950 L 252.289150 64.825450 L 253.151150 64.551150 L 254.021150 64.302650 L 254.890150 64.054550 L 255.775150 63.865950 L 256.660150 63.677550 L 257.549150 63.514650 L 258.439150 63.351850 L 259.333150 63.217150 L 260.228150 63.082350" fill="none" id="85" stroke="#a9d0ff" stroke-width="0.5" /><path d="M 440.648150 14.965950 L 437.107150 11.617850 L 432.381150 11.305650 L 428.267150 13.956250 L 425.816150 18.241950 L 424.552150 23.051350 L 423.905150 27.966550 L 425.346150 32.642450 L 428.895150 35.966450 L 433.642150 37.268850 L 438.602150 37.299550 L 443.413150 36.335450 L 446.718150 32.853950 L 447.702150 28.049550 L 446.040150 23.471750 L 442.381150 20.102450 L 438.507150 17.007350 L 434.099150 14.739950 L 429.284150 13.608650 L 424.544150 14.718950 L 421.499150 18.356250 L 420.270150 23.156950 L 421.872150 27.683650 L 426.029150 30.290050 L 430.826150 31.545950 L 435.778150 31.880550 L 440.676150 31.012250 L 445.321150 29.457650 L 448.645150 25.917450 L 449.507150 21.150950 L 446.607150 17.289150 L 442.230150 14.960250 L 437.582150 13.196550 L 432.663150 12.561250 L 427.698150 12.783150 L 422.917150 13.987350 L 418.990150 16.949650 L 416.312150 21.096550 L 415.228150 25.906950 L 416.070150 30.721550 L 419.497150 34.196750 L 423.958150 36.366950 L 428.771150 37.504050 L 433.732150 37.599250 L 438.668150 37.160450 L 443.002150 34.928450 L 445.440150 30.779550 L 445.161150 25.902350 L 441.758150 22.282550 L 437.876150 19.186950 L 433.543150 16.773450 L 428.846150 15.155250 L 424.059150 13.863850 L 419.131150 13.853450 L 414.901150 16.173650 L 412.431150 20.399050 L 412.085150 25.334650 L 413.500150 29.995850 L 416.969150 33.460950 L 421.504150 35.466750 L 426.323150 36.658550 L 431.261150 37.225150 L 436.231150 37.316850" fill="none" id="86" stroke="#a98c2c" stroke-width="0.5" /><path d="M 217.933150 134.688150 L 219.145150 134.405150 L 220.356150 134.122150 L 221.565150 133.827150 L 222.773150 133.531150 L 223.978150 133.224150 L 225.184150 132.917150 L 226.382150 132.581150 L 227.579150 132.245150 L 228.771150 131.888150 L 229.962150 131.530150 L 231.148150 131.152150 L 232.333150 130.774150 L 233.510150 130.373150 L 234.687150 129.971150 L 235.862150 129.560150 L 237.036150 129.149150 L 238.207150 128.729150 L 239.378150 128.309150 L 240.538150 127.860150 L 241.698150 127.411150 L 242.852150 126.947150 L 244.006150 126.482150 L 245.153150 126.002150 L 246.301150 125.522150 L 247.438150 125.019150 L 248.576150 124.515150 L 249.712150 124.009150 L 250.848150 123.502150 L 251.982150 122.989150 L 253.115150 122.476150" fill="none" id="87" stroke="#0294bb" stroke-width="0.5" /><path d="M 253.115150 122.476150 L 252.081150 122.972150 L 251.048150 123.469150 L 249.988150 123.907150 L 248.929150 124.345150 L 247.832150 124.679150 L 246.735150 125.012150 L 245.629150 125.315150 L 244.523150 125.618150 L 243.416150 125.915150 L 242.309150 126.212150 L 241.211150 126.545150 L 240.114150 126.879150 L 239.022150 127.225150 L 237.929150 127.572150 L 236.845150 127.945150 L 235.760150 128.318150 L 234.679150 128.700150 L 233.598150 129.081150 L 232.518150 129.466150 L 231.438150 129.851150 L 230.354150 130.225150 L 229.271150 130.600150 L 228.185150 130.968150 L 227.099150 131.337150 L 226.010150 131.694150 L 224.920150 132.051150 L 223.830150 132.405150 L 222.739150 132.758150 L 221.647150 133.107150 L 220.554150 133.456150" fill="none" id="88" stroke="#0294bb" stroke-width="0.5" /><path d="M 220.554150 133.456150 L 221.890150 133.084150 L 223.226150 132.712150 L 224.550150 132.302150 L 225.874150 131.890150 L 227.177150 131.418150 L 228.480150 130.946150 L 229.772150 130.441150 L 231.063150 129.937150 L 232.361150 129.449150 L 233.658150 128.962150 L 234.962150 128.490150 L 236.265150 128.018150 L 237.574150 127.560150 L 238.883150 127.102150 L 240.195150 126.655150 L 241.507150 126.207150 L 242.819150 125.760150 L 244.131150 125.313150 L 245.444150 124.867150 L 246.756150 124.420150 L 248.068150 123.973150 L 249.381150 123.526150 L 250.693150 123.079150 L 252.005150 122.632150 L 253.314150 122.175150 L 254.623150 121.717150 L 255.925150 121.241150 L 257.227150 120.764150 L 258.524150 120.276150 L 259.821150 119.787150" fill="none" id="89" stroke="#0294bb" stroke-width="0.5" /><path d="M 98.411950 134.170150 L 97.626150 135.057150 L 96.840350 135.943150 L 96.142150 136.900150 L 95.445050 137.857150 L 94.869250 138.892150 L 94.295550 139.928150 L 93.865050 141.032150 L 93.436250 142.136150 L 93.129650 143.280150 L 92.824550 144.424150 L 92.688850 145.601150 L 92.553450 146.777150 L 92.483250 147.960150 L 92.413050 149.142150 L 92.422250 150.326150 L 92.431450 151.511150 L 92.559250 152.688150 L 92.687550 153.866150 L 93.001850 155.008150 L 93.316050 156.150150 L 93.897850 157.181150 L 94.480350 158.213150 L 95.255550 159.108150 L 96.032350 160.002150 L 96.956050 160.743150 L 97.880350 161.484150 L 98.886850 162.108150 L 99.893650 162.732150 L 100.960150 163.248150 L 102.026150 163.765150" fill="none" id="90" stroke="#d7b555" stroke-width="0.5" /><path d="M 328.220150 51.493050 L 329.571150 50.724950 L 330.921150 49.956850 L 332.334150 49.311250 L 333.756150 48.686150 L 335.229150 48.197650 L 336.720150 47.762350 L 338.240150 47.460850 L 339.781150 47.257650 L 341.326150 47.100950 L 342.877150 47.007950 L 344.427150 46.977450 L 345.974150 47.118850 L 347.510150 47.311250 L 348.961150 47.867150 L 350.412150 48.423050 L 351.656150 49.352350 L 352.899150 50.285650 L 353.949150 51.424950 L 354.966150 52.599850 L 355.894150 53.843850 L 356.786150 55.116450 L 357.667150 56.395850 L 358.541150 57.680750 L 359.351150 59.003450 L 360.063150 60.384650 L 360.708150 61.792750 L 361.152150 63.281950 L 361.570150 64.777150 L 361.826150 66.309750 L 362.082150 67.842250" fill="none" id="91" stroke="#4a7ea6" stroke-width="0.5" /><path d="M 244.836150 262.688150 L 244.702150 265.089150 L 244.585150 267.491150 L 244.487150 269.894150 L 244.429150 272.298150 L 244.388150 274.702150 L 244.356150 277.107150 L 244.326150 279.512150 L 244.296150 281.916150 L 244.266150 284.321150 L 244.237150 286.726150 L 244.211150 289.130150 L 244.194150 291.535150 L 244.185150 293.940150 L 244.192150 296.345150 L 244.204150 298.750150 L 244.218150 301.155150 L 244.231150 303.559150 L 244.245150 305.964150 L 244.259150 308.369150 L 244.273150 310.774150 L 244.337150 313.178150 L 244.489150 315.577150 L 244.725150 317.970150 L 245.063150 320.350150 L 245.414150 322.730150 L 245.746150 325.111150 L 246.018150 327.501150 L 246.171150 329.900150 L 246.265150 332.303150 L 246.308150 334.707150" fill="none" id="92" stroke="#ffa372" stroke-width="0.5" /></svg>