<?xml version="1.0" encoding="utf-8" ?>
<svg baseProfile="full" height="789.5" version="1.1" viewBox="0,0,574.5,789.5" width="574.5" xmlns="http://www.w3.org/2000/svg" xmlns:ev="http://www.w3.org/2001/xml-events" xmlns:xlink="http://www.w3.org/1999/xlink"><defs><style type="text/css"><![CDATA[
	.background { fill: white; }
	.line { stroke: firebrick; stroke-width: .1mm; }
	.blacksquare { fill: indigo; }
	.whitesquare { fill: white; }
]]></style></defs><rect class="background" height="100%" width="100%" x="0" y="0" /><path d="M 263.147640 419.895660 L 262.173102 418.656765 L 262.623054 417.455737 L 259.263441 417.862283 L 261.488478 415.940025 L 258.151171 418.132421 L 256.561675 419.586668 L 257.541340 419.045270" fill="none" id="2" stroke="black" stroke-width="0.5" /><path d="M 265.541340 597.958660 L 263.552185 596.274798 L 267.551254 596.188485 L 263.970200 597.565910 L 263.651580 597.084640" fill="none" id="3" stroke="black" stroke-width="0.5" /><path d="M 269.698820 234.415350 L 269.425937 232.339120 L 270.695362 232.049219 L 269.511748 231.927069 L 269.730320 232.218500" fill="none" id="4" stroke="black" stroke-width="0.5" /><path d="M 266.171260 70.289370 L 270.169737 70.399756 L 268.484887 70.067371 L 269.412156 67.386364 L 267.047424 68.595448 L 267.491002 68.873587 L 268.911420 68.163380" fill="none" id="5" stroke="black" stroke-width="0.5" /><path d="M 31.431110 329.659440 L 34.984732 331.495678 L 38.538354 333.331916 L 42.091976 335.168154 L 45.645598 337.004392 L 49.199221 338.840630 L 52.783350 340.616025 L 56.380562 342.365330 L 59.977773 344.114635 L 63.574985 345.863940 L 67.172197 347.613245 L 70.769409 349.362550 L 74.366620 351.111855 L 77.963832 352.861160 L 81.561044 354.610465 L 85.178136 356.317457 L 88.820908 357.969793 L 92.463680 359.622128 L 96.106452 361.274464 L 99.749223 362.926799 L 103.391995 364.579135 L 107.082375 366.119761 L 110.797202 367.603020 L 114.512030 369.086279 L 118.226857 370.569538 L 121.941684 372.052797 L 125.656512 373.536056 L 129.417720 374.895482 L 133.192925 376.217535 L 136.999133 377.445060 L 140.824019 378.615637 L 144.648904 379.786214 L 148.473790 380.956791 L 152.298675 382.127368 L 156.123561 383.297945 L 159.948446 384.468523 L 157.525680 383.930711 L 153.637351 382.992148 L 154.203936 383.294101 L 158.017746 384.500274 L 161.831555 385.706448 L 165.645365 386.912622 L 169.459175 388.118796 L 173.296764 389.246182 L 177.141051 390.351378 L 180.985338 391.456575 L 184.829625 392.561771 L 188.673912 393.666967 L 192.518199 394.772163 L 196.362485 395.877359 L 200.206772 396.982556 L 204.051059 398.087752 L 207.895346 399.192948 L 211.737221 400.306100 L 215.548041 401.521688 L 219.358860 402.737276 L 223.169680 403.952864 L 226.980499 405.168452 L 230.791319 406.384040 L 234.602138 407.599628 L 238.412958 408.815216 L 242.220606 410.040348 L 246.001137 411.347096 L 249.781667 412.653844 L 253.562197 413.960592 L 257.342728 415.267340 L 261.123258 416.574088 L 264.903788 417.880836 L 268.684319 419.187584 L 272.464849 420.494333 L 276.245379 421.801081 L 280.005251 423.164903 L 283.746351 424.580593 L 287.487450 425.996283 L 291.228549 427.411972 L 294.969648 428.827662 L 298.710747 430.243352 L 302.451846 431.659041 L 306.192945 433.074731 L 309.934045 434.490421 L 312.627960 435.509840" fill="none" id="6" stroke="black" stroke-width="0.5" /><path d="M 24.250000 609.958660 L 24.000795 605.966430 L 23.751589 601.974201 L 23.502384 597.981971 L 23.253179 593.989742 L 23.003973 589.997512 L 22.754768 586.005283 L 22.505563 582.013053 L 22.256357 578.020824 L 22.007152 574.028594 L 21.757947 570.036365 L 21.508741 566.044135 L 21.259536 562.051906 L 21.010330 558.059676 L 20.761125 554.067446 L 20.954464 555.296833 L 21.380688 559.274060 L 21.806912 563.251287 L 21.872014 562.536248 L 21.684640 558.540639 L 21.497265 554.545030 L 21.309891 550.549421 L 21.122517 546.553812 L 20.935142 542.558203 L 20.747768 538.562594 L 20.560394 534.566985 L 20.373019 530.571376 L 20.185645 526.575767 L 19.998270 522.580158 L 19.810896 518.584550 L 19.767981 516.790242 L 20.104387 520.776071 L 20.440792 524.761900 L 20.777197 528.747729 L 20.722260 525.692216 L 20.614912 521.693656 L 20.507563 517.695097 L 20.400215 513.696538 L 20.292866 509.697979 L 20.185517 505.699419 L 20.078169 501.700860 L 19.970820 497.702301 L 19.863471 493.703742 L 19.756123 489.705182 L 19.710164 487.674991 L 19.852197 491.672468 L 19.994229 495.669946 L 20.136262 499.667423 L 20.203825 500.298661 L 20.168938 496.298814 L 20.134051 492.298966 L 20.099164 488.299118 L 20.064277 484.299270 L 20.029390 480.299422 L 19.994503 476.299574 L 19.959616 472.299726 L 19.924729 468.299879 L 19.889842 464.300031 L 19.854955 460.300183 L 19.820068 456.300335 L 19.785181 452.300487 L 19.750294 448.300639 L 19.715407 444.300791 L 19.680520 440.300944 L 19.675200 436.300967 L 19.675200 432.300967 L 19.675200 428.300967 L 19.675200 424.300967 L 19.675200 420.300967 L 19.675200 416.300967 L 19.675200 412.300967 L 19.675200 408.300967 L 19.675200 404.300967 L 19.675200 400.300967 L 19.675200 396.300967 L 19.675200 392.300967 L 19.675200 388.300967 L 19.675200 384.300967 L 19.675200 380.300967 L 19.675200 376.300967 L 19.676809 373.080910 L 19.693308 377.080876 L 19.709807 381.080842 L 19.726307 385.080808 L 19.742806 389.080774 L 19.781620 386.663510 L 19.825937 382.663755 L 19.870255 378.664001 L 19.914572 374.664246 L 20.009543 370.665649 L 20.147988 366.668046 L 20.286433 362.670443 L 20.424878 358.672839 L 20.563323 354.675236 L 20.701768 350.677632 L 20.840214 346.680029 L 20.978659 342.682426 L 21.117104 338.684822 L 21.297810 334.688933 L 21.483569 330.693249 L 21.669328 326.697564 L 21.855087 322.701880 L 22.097233 318.709427 L 22.369163 314.718681 L 22.641092 310.727935 L 22.913022 306.737189 L 23.184951 302.746443 L 23.456880 298.755696 L 23.728810 294.764950 L 24.000739 290.774204 L 24.281134 286.784143 L 24.654613 282.801617 L 25.028091 278.819091 L 25.401569 274.836565 L 25.775047 270.854039 L 26.148526 266.871513 L 26.522004 262.888987 L 26.895482 258.906461 L 27.268961 254.923935 L 27.676202 250.944830 L 28.109348 246.968352 L 28.542495 242.991873 L 28.975642 239.015394 L 29.408789 235.038915 L 29.841936 231.062436 L 30.275083 227.085958 L 30.708229 223.109479 L 31.141376 219.133000 L 31.574523 215.156521 L 32.007670 211.180042 L 32.440817 207.203563 L 32.873964 203.227085 L 33.307110 199.250606 L 33.740257 195.274127 L 34.173404 191.297648 L 34.606551 187.321169 L 34.333891 190.039634 L 33.928300 194.019018 L 33.522709 197.998402 L 33.117119 201.977786 L 33.330056 200.183799 L 33.776654 196.208808 L 34.223252 192.233818 L 34.669851 188.258827 L 35.116449 184.283837 L 35.563047 180.308846 L 36.009645 176.333856 L 36.456244 172.358865 L 36.902842 168.383875 L 37.349440 164.408884 L 37.796038 160.433893 L 38.241379 156.458772 L 38.620931 152.476820 L 39.000483 148.494869 L 39.380034 144.512917 L 39.759586 140.530965 L 40.139138 136.549013 L 40.518690 132.567061 L 40.898241 128.585109 L 41.183647 124.595345 L 41.465665 120.605299 L 41.747684 116.615253 L 42.029703 112.625207 L 42.311722 108.635161 L 42.593741 104.645116 L 42.875760 100.655070 L 43.157778 96.665024 L 43.439797 92.674978 L 43.648225 88.680472 L 43.850179 84.685574 L 44.052134 80.690675 L 44.254088 76.695776 L 44.456042 72.700878 L 44.657996 68.705979 L 44.859951 64.711081 L 45.061905 60.716182 L 45.263859 56.721284 L 45.465814 52.726385 L 45.667768 48.731487 L 45.869722 44.736588 L 46.071676 40.741689 L 46.300247 36.748593 L 46.638730 32.762940 L 46.864180 30.108260" fill="none" id="7" stroke="black" stroke-width="0.5" /><path d="M 18.013780 654.675190 L 16.305634 652.045308 L 16.291670 648.045332 L 16.363379 644.048439 L 16.664814 640.059813 L 16.966249 636.071188 L 17.227758 632.080124 L 17.413799 628.084453 L 17.599840 624.088781 L 17.785881 620.093110 L 17.946034 616.096369 L 18.090421 612.098976 L 18.234807 608.101582 L 18.379194 604.104189 L 18.523580 600.106796 L 18.667967 596.109403 L 18.812353 592.112009 L 18.956740 588.114616 L 19.101126 584.117223 L 19.245513 580.119830 L 19.389899 576.122437 L 19.534286 572.125043 L 19.678672 568.127650 L 19.739304 564.128137 L 19.797304 560.128558 L 19.855304 556.128978 L 19.913304 552.129399 L 19.971304 548.129819 L 20.029304 544.130240 L 20.087304 540.130660 L 20.145304 536.131081 L 20.203304 532.131501 L 20.250420 528.131840 L 20.252572 524.131841 L 20.254725 520.131841 L 20.256877 516.131842 L 20.259030 512.131842 L 20.261182 508.131843 L 20.263335 504.131844 L 20.265487 500.131844 L 20.267640 496.131845 L 20.269792 492.131845 L 20.271945 488.131846 L 20.274097 484.131846 L 20.276250 480.131847 L 20.278403 476.131848 L 20.280555 472.131848 L 20.218970 468.132720 L 20.107515 464.134273 L 19.996060 460.135826 L 19.884605 456.137379 L 19.773151 452.138932 L 19.661696 448.140485 L 19.550241 444.142038 L 19.438786 440.143591 L 19.327331 436.145144 L 19.215876 432.146697 L 19.104421 428.148251 L 18.992966 424.149804 L 18.881511 420.151357 L 18.770057 416.152910 L 18.658602 412.154463 L 18.547147 408.156016 L 18.435692 404.157569 L 18.324237 400.159122 L 18.212782 396.160675 L 18.101327 392.162228 L 17.989872 388.163781 L 17.878417 384.165334 L 17.766963 380.166887 L 17.655508 376.168441 L 17.544053 372.169994 L 17.432598 368.171547 L 17.321143 364.173100 L 17.178109 360.175822 L 16.993621 356.180079 L 16.809133 352.184335 L 16.624644 348.188592 L 16.440156 344.192849 L 16.255668 340.197106 L 16.071179 336.201362 L 15.839308 332.208458 L 15.545344 328.219275 L 15.251380 324.230091 L 14.957415 320.240908 L 14.663451 316.251724 L 14.369487 312.262541 L 14.075523 308.273357 L 13.740569 304.287563 L 13.375404 300.304266 L 13.010240 296.320969 L 12.645075 292.337672 L 12.279910 288.354375 L 11.914746 284.371078 L 11.549581 280.387781 L 11.140033 276.408880 L 10.716606 272.431355 L 10.293180 268.453829 L 9.869754 264.476304 L 9.446327 260.498778 L 9.022901 256.521252 L 8.599474 252.543727 L 8.176048 248.566201 L 7.752622 244.588675 L 7.329195 240.611150 L 6.905769 236.633624 L 6.482343 232.656099 L 6.058916 228.678573 L 5.635490 224.701047 L 5.212064 220.723522 L 4.788637 216.745996 L 4.383220 212.766681 L 4.015553 208.783614 L 3.647887 204.800547 L 3.280220 200.817480 L 2.912553 196.834413 L 2.544886 192.851347 L 2.196873 188.866780 L 1.955884 184.874046 L 1.714895 180.881312 L 1.473907 176.888578 L 1.232918 172.895844 L 0.991930 168.903110 L 0.801546 164.908116 L 0.685652 160.909796 L 0.569758 156.911475 L 0.453863 152.913154 L 0.337969 148.914833 L 0.250000 145.879920" fill="none" id="8" stroke="black" stroke-width="0.5" /><path d="M 262.486220 353.187000 L 263.633573 352.519110 L 265.446850 353.517710" fill="none" id="9" stroke="black" stroke-width="0.5" /><path d="M 261.131890 348.580700 L 262.108270 347.816368 L 263.823131 345.686065 L 262.399990 347.451821 L 265.068900 347.399600" fill="none" id="10" stroke="black" stroke-width="0.5" /><path d="M 261.824810 353.706690 L 261.491866 354.746088 L 265.202163 355.399790 L 268.470480 356.494090" fill="none" id="11" stroke="black" stroke-width="0.5" /><path d="M 264.722440 347.706690 L 262.721092 347.002170 L 264.433515 346.627171 L 264.690950 347.564960" fill="none" id="12" stroke="black" stroke-width="0.5" /><path d="M 261.793310 378.864170 L 264.247602 377.131548 L 261.488276 377.817386 L 264.281500 377.328740" fill="none" id="13" stroke="black" stroke-width="0.5" /><path d="M 265.541340 335.045270 L 262.832974 334.530938 L 263.022121 334.179713 L 264.375990 333.415350" fill="none" id="14" stroke="black" stroke-width="0.5" /><path d="M 30.612210 274.809050 L 28.806921 273.496033 L 29.944341 276.344480 L 30.958660 276.344480" fill="none" id="15" stroke="black" stroke-width="0.5" /><path d="M 26.549220 272.494090 L 30.548398 272.575154 L 32.375990 272.612200" fill="none" id="16" stroke="black" stroke-width="0.5" /><path d="M 268.816930 185.257870 L 266.944855 186.384273 L 269.289370 185.470470" fill="none" id="17" stroke="black" stroke-width="0.5" /><path d="M 24.124020 132.344480 L 28.032371 133.195828 L 31.940722 134.047176 L 35.849073 134.898524 L 39.757424 135.749872 L 43.665774 136.601220 L 47.574125 137.452567 L 51.488611 138.272244 L 55.432158 138.941902 L 59.375704 139.611561 L 63.319250 140.281219 L 67.262797 140.950877 L 71.206343 141.620536 L 75.149889 142.290194 L 79.093436 142.959853 L 83.036982 143.629511 L 86.980528 144.299170 L 90.924075 144.968828 L 94.867621 145.638487 L 98.789485 146.422301 L 102.703940 147.245128 L 106.618395 148.067955 L 110.529662 148.905109 L 114.423783 149.819344 L 118.317903 150.733580 L 122.212024 151.647815 L 126.106144 152.562051 L 130.000264 153.476286 L 133.883641 154.433846 L 137.753700 155.445103 L 141.623759 156.456361 L 145.493818 157.467619 L 149.363877 158.478876 L 153.233936 159.490134 L 157.088907 160.554515 L 160.912751 161.728492 L 164.736594 162.902470 L 168.560437 164.076448 L 172.384280 165.250425 L 176.208123 166.424403 L 180.031966 167.598381 L 183.855810 168.772358 L 187.679653 169.946336 L 191.503496 171.120313 L 195.327339 172.294291 L 199.151182 173.468269 L 202.975025 174.642246 L 206.798868 175.816224 L 210.624049 176.985689 L 214.470038 178.084947 L 218.316027 179.184206 L 222.162016 180.283464 L 226.008005 181.382723 L 229.853994 182.481981 L 233.705907 183.560088 L 237.563372 184.618372 L 241.420836 185.676657 L 245.281541 186.722074 L 249.180140 187.617021 L 253.078738 188.511968 L 256.977337 189.406915 L 258.454730 189.746060" fill="none" id="18" stroke="black" stroke-width="0.5" /><path d="M 275.147640 51.344480 L 274.019334 55.166534 L 273.507801 59.129454 L 273.141959 63.112689 L 272.813474 67.097781 L 272.782499 71.097661 L 272.751523 75.097541 L 272.720547 79.097421 L 272.689571 83.097301 L 272.658596 87.097181 L 272.630936 91.096962 L 272.901916 95.087773 L 273.172897 99.078583 L 273.443878 103.069394 L 273.764661 107.055032 L 274.319579 111.016353 L 274.874498 114.977674 L 275.429416 118.938996 L 275.984335 122.900317 L 276.281500 125.021650" fill="none" id="21" stroke="black" stroke-width="0.5" /><path d="M 415.021660 35.683070 L 416.333280 34.556566 L 415.493642 35.360688 L 415.399610 35.612200" fill="none" id="22" stroke="black" stroke-width="0.5" /><path d="M 281.415360 176.541330 L 278.353452 179.115184 L 276.722440 180.486220" fill="none" id="23" stroke="black" stroke-width="0.5" /><path d="M 552.533470 168.675190 L 551.552842 172.553124 L 550.718558 176.463132 L 549.987326 180.395726 L 549.527419 184.367135 L 549.126743 188.347017 L 548.726067 192.326898 L 548.534737 196.318618 L 548.565937 200.316956 L 548.747789 204.312820 L 548.929641 208.308684 L 549.111494 212.304549 L 549.293346 216.300413 L 549.475198 220.296277 L 549.657051 224.292141 L 549.413169 221.099699 L 549.122087 217.110304 L 548.831005 213.120909 L 548.800448 212.406138 L 549.143817 216.391373 L 549.487186 220.376608 L 549.830555 224.361843 L 549.919290 225.391730" fill="none" id="24" stroke="black" stroke-width="0.5" /><path d="M 554.832680 153.840550 L 553.735608 157.687163 L 553.083294 161.629047 L 552.508463 165.587527 L 551.933632 169.546008 L 551.555393 173.527134 L 551.215138 177.512637 L 550.874884 181.498139 L 550.666182 185.491717 L 550.516353 189.488910 L 550.366523 193.486103 L 550.322235 197.485388 L 550.313536 201.485379 L 550.304838 205.485369 L 550.314086 209.485083 L 550.445882 213.482912 L 550.577679 217.480740 L 550.709476 221.478568 L 550.841273 225.476396 L 551.167283 229.462089 L 551.534151 233.445230 L 551.901019 237.428370 L 552.267886 241.411511 L 552.634754 245.394651 L 553.001622 249.377792 L 553.368489 253.360932 L 553.605311 256.038777 L 553.179095 252.061549 L 552.752878 248.084322 L 552.326661 244.107094 L 552.646019 246.648279 L 553.128890 250.619026 L 553.131890 250.643700" fill="none" id="25" stroke="black" stroke-width="0.5" /><path d="M 337.761810 316.501960 L 337.761810 320.501960 L 337.761810 324.501960 L 337.761810 328.501960 L 337.761810 332.501960 L 337.761810 336.501960 L 337.761810 340.501960 L 337.761810 344.501960 L 337.761810 348.501960 L 337.761810 352.501960 L 337.900797 356.498473 L 338.101382 360.493441 L 338.301966 364.488408 L 338.328740 365.021650" fill="none" id="26" stroke="black" stroke-width="0.5" /><path d="M 340.564960 314.399600 L 339.822312 318.317387 L 339.613473 322.307352 L 339.599954 326.307329 L 339.586435 330.307306 L 339.572917 334.307283 L 339.559398 338.307260 L 339.827646 342.296204 L 340.153901 346.282877 L 340.480155 350.269549 L 340.806410 354.256222 L 341.290646 358.226333 L 341.798236 362.193997 L 342.305827 366.161660 L 342.813417 370.129323 L 343.321007 374.096986 L 343.828598 378.064650 L 344.336188 382.032313 L 344.843779 385.999976 L 345.100400 388.005900" fill="none" id="27" stroke="black" stroke-width="0.5" /><path d="M 485.005910 290.895660 L 484.407519 292.469215 L 483.709930 296.406138 L 483.191354 300.368967 L 482.971429 304.362917 L 482.801180 308.358233 L 482.801180 312.358233 L 482.801180 316.358233 L 482.926187 320.354349 L 483.174494 324.346635 L 483.581591 328.322308 L 484.164946 332.279542 L 484.748302 336.236775 L 485.331658 340.194008 L 485.415360 340.761810" fill="none" id="28" stroke="black" stroke-width="0.5" /><path d="M 547.620080 260.517710 L 547.447187 264.513972 L 547.274294 268.510234 L 546.624632 272.457011 L 545.702544 276.345809 L 544.360823 280.111177 L 542.795044 283.784263 L 540.558761 287.093198 L 539.525590 288.533460" fill="none" id="29" stroke="black" stroke-width="0.5" /><path d="M 549.163390 258.084640 L 548.296110 261.971843 L 547.188791 265.815519 L 545.925619 269.606962 L 544.426162 273.307981 L 542.282129 276.684832 L 540.122402 280.050228 L 537.559938 283.121674 L 534.997475 286.193121 L 533.320870 288.202750" fill="none" id="30" stroke="black" stroke-width="0.5" /><path d="M 546.738190 259.501960 L 546.773200 263.501807 L 546.808211 267.501654 L 546.502610 271.455432 L 545.161916 275.214991 L 543.279511 278.730150 L 541.131117 282.104228 L 538.660541 285.244131 L 536.114281 288.329023 L 533.185980 291.046895 L 529.984507 293.423802 L 527.809060 294.816920" fill="none" id="31" stroke="black" stroke-width="0.5" /><path d="M 549.509850 262.242120 L 548.007526 265.949278 L 546.505203 269.656437 L 545.002879 273.363595 L 543.500556 277.070754 L 541.752437 280.667348 L 539.658993 284.075449 L 537.164384 287.202257 L 534.596333 290.260805 L 531.660120 292.977173 L 528.698913 295.660599 L 525.292280 297.756990 L 521.704789 299.497171 L 517.965931 300.897621 L 514.073300 301.818174 L 511.714570 302.375980" fill="none" id="32" stroke="black" stroke-width="0.5" /><path d="M 490.864180 311.990150 L 493.588971 313.405356 L 497.341266 312.058153 L 501.035144 310.523466 L 504.729022 308.988779 L 508.422900 307.454091 L 512.116778 305.919404 L 515.810656 304.384717 L 519.468409 302.766650 L 523.114321 301.121256 L 526.658462 299.271292 L 530.065832 297.179087 L 533.442250 295.034373 L 536.566144 292.538396 L 539.572810 289.910656 L 542.331433 287.014107 L 544.816825 283.886784 L 546.675200 281.399600" fill="none" id="33" stroke="black" stroke-width="0.5" /><path d="M 483.273630 316.265740 L 487.140003 316.960553 L 491.121701 316.814992 L 494.938038 315.616840 L 498.555072 313.926612 L 502.037747 311.959131 L 505.410569 309.808984 L 508.781120 307.655061 L 512.151672 305.501139 L 515.471095 303.270665 L 518.751792 300.982210 L 522.032489 298.693755 L 525.121891 296.157119 L 528.170234 293.567215 L 531.181332 290.936757 L 534.020732 288.119345 L 536.860131 285.301933 L 539.505423 282.307173 L 542.024060 279.201632 L 543.494100 277.076770" fill="none" id="34" stroke="black" stroke-width="0.5" /><path d="M 559.273630 158.375980 L 557.880045 162.125369 L 556.872015 165.981041 L 556.147624 169.914902 L 555.491394 173.858672 L 555.065603 177.835945 L 554.639811 181.813218 L 554.214019 185.790491 L 553.929834 189.780315 L 553.649495 193.770479 L 553.369156 197.760643 L 553.088818 201.750807 L 552.808479 205.740971 L 552.785440 206.068890" fill="none" id="35" stroke="black" stroke-width="0.5" /><path d="M 488.344490 320.612200 L 490.101740 319.084556 L 493.523095 317.017666 L 497.133610 315.295985 L 500.902455 313.985442 L 504.854120 313.461847 L 508.842335 313.194880 L 512.842335 313.194880 L 516.834165 313.437819 L 520.825127 313.706561 L 523.399610 313.879920" fill="none" id="36" stroke="black" stroke-width="0.5" /><path d="M 484.627960 322.312990 L 484.688154 320.162910 L 488.393737 318.670954 L 492.212641 317.504507 L 496.101114 316.566545 L 499.989588 315.628583 L 503.912151 314.866443 L 507.869404 314.283219 L 511.853585 313.998883 L 515.853564 314.011757 L 519.846095 314.138931 L 523.813909 314.645339 L 527.781723 315.151747 L 531.749538 315.658155 L 535.711590 316.196626 L 539.607449 317.103423 L 543.503308 318.010220 L 547.186084 319.547595 L 549.320870 321.084640" fill="none" id="37" stroke="black" stroke-width="0.5" /><path d="M 524.785440 313.785430 L 528.698335 314.406070 L 532.263729 316.150267 L 535.287517 318.761332 L 538.071158 321.631282 L 540.818729 324.538317 L 543.350139 327.628638 L 545.073336 331.219775 L 545.691875 335.152524 L 545.730320 335.494090" fill="none" id="38" stroke="black" stroke-width="0.5" /><path d="M 521.131890 314.281490 L 524.805431 315.864241 L 528.639319 316.975961 L 532.493740 318.020889 L 536.051623 319.848858 L 538.676302 322.801032 L 540.364051 326.409349 L 541.791390 330.146019 L 542.832680 332.872040" fill="none" id="39" stroke="black" stroke-width="0.5" /><path d="M 530.045280 318.769680 L 533.992966 319.061082 L 537.415434 321.044728 L 540.027979 324.037446 L 541.831973 327.595210 L 542.890213 331.434589 L 543.401652 335.396694 L 543.588590 338.919290" fill="none" id="40" stroke="black" stroke-width="0.5" /><path d="M 267.399610 325.549210 L 266.629644 329.439504 L 267.251120 333.350462 L 268.883290 336.998463 L 270.868264 340.466190 L 272.949332 343.881778 L 275.343222 347.080698 L 278.230003 349.829413 L 281.535715 352.081581 L 281.667330 352.171250" fill="none" id="41" stroke="black" stroke-width="0.5" /><path d="M 277.698820 351.297240 L 281.048707 353.451477 L 284.792515 354.761250 L 288.344490 355.147630" fill="none" id="42" stroke="black" stroke-width="0.5" /><path d="M 267.620080 331.643700 L 266.652770 335.505889 L 266.734049 339.500614 L 268.528437 343.036666 L 271.007581 346.156642 L 274.160426 348.610699 L 277.481198 350.823707 L 281.085509 352.543429 L 284.779233 354.078487 L 288.556329 355.377863 L 292.438434 356.324318 L 296.362944 357.097763 L 300.307265 357.727333 L 304.294764 358.043325 L 308.285015 358.294578 L 312.284946 358.318105 L 316.279953 358.244914 L 320.256817 357.815315 L 323.084650 357.509840" fill="none" id="43" stroke="black" stroke-width="0.5" /><path d="M 268.344490 330.061020 L 266.000569 332.993285 L 267.164794 336.640020 L 269.540969 339.857752 L 272.324432 342.723590 L 275.163147 345.541692 L 278.068478 348.283939 L 281.229617 350.734898 L 284.629974 352.825106 L 288.147924 354.723746 L 291.860174 356.193983 L 295.729929 357.192395 L 299.638635 358.042112 L 303.625079 358.272299 L 307.622545 358.414645 L 311.617953 358.457667 L 315.606084 358.149758 L 319.591208 357.816965 L 323.537844 357.165768 L 327.466431 356.414285 L 331.392450 355.648530 L 335.302182 354.811545 L 339.170892 353.795139 L 343.039603 352.778733 L 346.903082 351.742773 L 350.752477 350.657892 L 354.560096 349.432315 L 358.367715 348.206738 L 362.175334 346.981161 L 365.131890 346.029520" fill="none" id="44" stroke="black" stroke-width="0.5" /><path d="M 274.895670 347.470470 L 277.933965 350.072155 L 281.229117 352.320151 L 284.743225 354.218964 L 288.360006 355.927440 L 292.100207 357.342270 L 295.851548 358.730592 L 299.662137 359.946829 L 303.553549 360.869620 L 307.449654 361.775361 L 311.387451 362.466905 L 315.359710 362.916714 L 319.345073 363.258595 L 323.333296 363.537312 L 327.333248 363.556964 L 331.333199 363.576615 L 335.333151 363.596267 L 339.311937 363.288842 L 343.275996 362.753827 L 347.240054 362.218813 L 351.193323 361.630776 L 355.051238 360.574133 L 358.909153 359.517490 L 362.700455 358.250192 L 366.405732 356.751773 L 370.049335 355.101269 L 373.692937 353.450765 L 377.336539 351.800261 L 378.864180 351.108260" fill="none" id="45" stroke="black" stroke-width="0.5" /><path d="M 320.911420 357.887790 L 324.702462 356.611858 L 328.493503 355.335925 L 332.284545 354.059993 L 336.075586 352.784060 L 339.866628 351.508128 L 343.657670 350.232195 L 347.448711 348.956263 L 351.239753 347.680331 L 355.030794 346.404398 L 358.821836 345.128466 L 362.612878 343.852533 L 366.391740 342.580700" fill="none" id="46" stroke="black" stroke-width="0.5" /><path d="M 273.446850 396.746060 L 275.910889 393.595106 L 278.468405 390.528520 L 281.351134 387.755458 L 284.314203 385.079337 L 287.574258 382.761571 L 290.834313 380.443804 L 294.094368 378.126038 L 295.116140 377.399600" fill="none" id="48" stroke="black" stroke-width="0.5" /><path d="M 266.454730 421.856290 L 265.452784 418.082475 L 265.729632 414.127039 L 266.709576 410.255989 L 268.227714 406.555377 L 270.093509 403.017184 L 271.959305 399.478992 L 274.126751 396.118523 L 276.397714 392.828124 L 278.956737 389.760111 L 281.663605 386.815138 L 284.539262 384.040937 L 287.515638 381.368637 L 290.555355 378.771111 L 293.680690 376.274657 L 296.806025 373.778203 L 300.065981 371.460915 L 303.333604 369.153829 L 306.653778 366.927576 L 310.088379 364.877329 L 313.647433 363.052267 L 317.210776 361.234964 L 320.791605 359.457482 L 324.540880 358.063588 L 328.290154 356.669695 L 332.053333 355.317464 L 335.888300 354.180350 L 336.848430 353.895660" fill="none" id="49" stroke="black" stroke-width="0.5" /><path d="M 266.423230 424.407480 L 265.332713 420.567285 L 264.977799 416.585416 L 265.071341 412.586510 L 265.545786 408.649297 L 266.719284 404.825306 L 268.463047 401.239016 L 270.593015 397.865398 L 272.966826 394.645922 L 275.644815 391.677447 L 278.363485 388.744068 L 281.326985 386.057497 L 284.290486 383.370926 L 287.451028 380.922818 L 290.648098 378.518915 L 293.845167 376.115013 L 297.042237 373.711111 L 300.387410 371.518419 L 303.736856 369.331820 L 307.103284 367.172944 L 310.572713 365.182199 L 314.128272 363.355096 L 317.738372 361.633303 L 321.436251 360.108283 L 325.134130 358.583262 L 328.832010 357.058241 L 332.602532 355.729171 L 336.400885 354.475172 L 340.199238 353.221172 L 344.009346 352.005240 L 347.853447 350.899397 L 351.716363 349.864181 L 355.601137 348.911014 L 359.485912 347.957847 L 363.370686 347.004681 L 367.296877 346.240614 L 371.224426 345.482752 L 375.151976 344.724889 L 376.470480 344.470470" fill="none" id="50" stroke="black" stroke-width="0.5" /><path d="M 270.612210 314.234250 L 270.528138 310.245885 L 269.213470 312.265977 L 268.367927 316.174415 L 267.735963 320.124177 L 267.116444 324.075642 L 266.664706 328.050051 L 266.288738 332.030239 L 266.132653 336.027192 L 265.976567 340.024146 L 265.887800 342.297240" fill="none" id="51" stroke="black" stroke-width="0.5" /><path d="M 272.848430 319.761810 L 271.953660 323.660449 L 271.058890 327.559088 L 270.184881 331.461177 L 269.770853 335.439692 L 269.769105 339.435206 L 270.573011 343.321372 L 272.133867 346.999078 L 274.293303 350.366100 L 276.940376 353.362934 L 277.352370 353.824800" fill="none" id="52" stroke="black" stroke-width="0.5" /><path d="M 273.352370 313.076770 L 271.584466 316.464711 L 271.324486 320.435020 L 271.517034 324.421798 L 272.352557 328.333563 L 273.496617 332.164933 L 274.676272 335.987028 L 276.232935 339.669099 L 277.836990 343.333168 L 279.904036 346.757685 L 282.666717 349.626294 L 282.927170 349.856290" fill="none" id="53" stroke="black" stroke-width="0.5" /><path d="M 270.958660 314.423220 L 269.680736 317.466159 L 269.222977 321.439880 L 268.765218 325.413601 L 268.492646 329.398463 L 268.470703 333.398402 L 269.256581 337.316166 L 270.823333 340.996558 L 272.961343 344.375573 L 275.192093 347.686123 L 277.936843 350.595821 L 281.158018 352.959946 L 283.273630 354.061020" fill="none" id="54" stroke="black" stroke-width="0.5" /><path d="M 273.352370 322.194880 L 272.154312 325.977199 L 272.058534 329.976052 L 271.995799 333.972218 L 273.023845 337.825743 L 274.557764 341.510920 L 276.369225 345.077236 L 278.708044 348.315007 L 281.506101 351.168784 L 284.696779 353.566323 L 286.706700 354.746060" fill="none" id="55" stroke="black" stroke-width="0.5" /><path d="M 497.446850 310.785430 L 500.755210 311.470470 L 504.731779 311.097743 L 508.608351 310.111746 L 512.468425 309.071690 L 516.234994 307.725228 L 519.966526 306.290114 L 523.635906 304.697742 L 527.172129 302.828324 L 530.707781 300.957718 L 534.133005 298.896928 L 537.510323 296.753631 L 540.887641 294.610334 L 544.264959 292.467036 L 547.642277 290.323739 L 551.142641 288.388383 L 551.651580 288.108260" fill="none" id="56" stroke="black" stroke-width="0.5" /><path d="M 507.683070 309.769680 L 511.595243 309.054772 L 515.364859 307.722665 L 519.099968 306.292432 L 522.814763 304.809095 L 526.438549 303.122390 L 530.019796 301.340629 L 533.343586 299.121317 L 536.579608 296.774985 L 539.680142 294.247795 L 542.780675 291.720604 L 545.701513 288.990068 L 547.116140 287.635820" fill="none" id="57" stroke="black" stroke-width="0.5" /><path d="M 517.761810 305.872040 L 521.633664 305.139820 L 525.365559 303.700043 L 529.038913 302.134235 L 532.546373 300.211290 L 535.830827 297.942329 L 538.924252 295.409363 L 541.953392 292.797883 L 544.774184 289.961841 L 547.594976 287.125800 L 549.950284 283.893945 L 551.923044 280.430674 L 552.785440 277.974400" fill="none" id="58" stroke="black" stroke-width="0.5" /><path d="M 527.651580 303.250000 L 531.255075 301.513675 L 534.752780 299.588727 L 537.905303 297.137641 L 540.966553 294.563005 L 543.710529 291.655944 L 545.760491 288.228058 L 547.257962 284.537519 L 548.442626 280.716973 L 549.131040 276.778399 L 549.793284 272.833601 L 550.317684 268.870799 L 550.549220 266.399600" fill="none" id="59" stroke="black" stroke-width="0.5" /><path d="M 540.061030 294.887790 L 542.380461 291.635813 L 544.243384 288.097247 L 545.883024 284.453114 L 547.088177 280.641343 L 548.094097 276.771997 L 548.706806 272.825576 L 548.912320 268.830859 L 549.037400 266.399600" fill="none" id="60" stroke="black" stroke-width="0.5" /><path d="M 551.651580 285.887790 L 552.379915 281.976584 L 552.689449 278.007461 L 552.772330 274.008319 L 552.665932 270.014962 L 552.339011 266.028345 L 552.012090 262.041727 L 551.685168 258.055109 L 551.358247 254.068491 L 551.071227 250.079373 L 550.898107 246.083122 L 550.724987 242.086870 L 550.551867 238.090618 L 550.549220 234.090675 L 550.549220 230.090675 L 550.549220 226.090675 L 550.549220 222.090675 L 550.549220 218.090675 L 550.549220 214.090675 L 550.549220 210.090675 L 550.549220 206.090675 L 550.549220 203.352360" fill="none" id="61" stroke="black" stroke-width="0.5" /><path d="M 350.580710 682.289370 L 350.887242 686.277607 L 351.193773 690.265845 L 351.579644 694.246735 L 352.010776 698.223432 L 352.441907 702.200130 L 352.873038 706.176828 L 353.304170 710.153526 L 353.639485 714.139043 L 353.941502 718.127625 L 354.243518 722.116207 L 354.545534 726.104789 L 354.847550 730.093371 L 354.971778 734.091210 L 355.085645 738.089589 L 355.199513 742.087968 L 355.231615 746.087749 L 355.254871 750.087681 L 355.278127 754.087614 L 355.301383 758.087546 L 355.324639 762.087479 L 355.347895 766.087411 L 355.371151 770.087343 L 355.394406 774.087276 L 356.022293 778.024182 L 357.023718 781.885160 L 358.441805 785.625351 L 358.454730 785.659440" fill="none" id="62" stroke="black" stroke-width="0.5" /><path d="M 353.415360 662.635820 L 353.462276 666.635545 L 353.509192 670.635270 L 353.556108 674.634995 L 353.603024 678.634719 L 353.413908 682.630047 L 353.218033 686.625248 L 353.022159 690.620449 L 352.826284 694.615650 L 352.630409 698.610852 L 352.434535 702.606053 L 352.238660 706.601254 L 352.184429 710.599035 L 352.234681 714.598720 L 352.284933 718.598404 L 352.335184 722.598088 L 352.385436 726.597773 L 352.632970 730.586283 L 353.034684 734.566060 L 353.436399 738.545837 L 353.873560 742.521192 L 354.461892 746.477689 L 355.123318 750.422128 L 355.836833 754.357976 L 356.550349 758.293823 L 357.263865 762.229671 L 357.977381 766.165518 L 358.612210 769.667320" fill="none" id="63" stroke="black" stroke-width="0.5" /><path d="M 484.187010 594.273620 L 484.074775 598.272045 L 483.962539 602.270470 L 483.850304 606.268895 L 483.746070 610.267433 L 483.746070 614.267433 L 483.746070 618.267433 L 483.746070 622.267433 L 483.746070 626.267433 L 483.760001 630.266901 L 484.064843 634.255268 L 484.369686 638.243635 L 484.674529 642.232002 L 484.979371 646.220369 L 485.333694 650.204173 L 485.763377 654.181028 L 486.193060 658.157882 L 486.622742 662.134737 L 487.052425 666.111591 L 487.482108 670.088446 L 487.911791 674.065301 L 488.341473 678.042155 L 488.771156 682.019010 L 489.200839 685.995865 L 489.604330 689.730310" fill="none" id="64" stroke="black" stroke-width="0.5" /><path d="M 487.903550 611.801180 L 487.225698 614.026051 L 486.552675 617.968468 L 486.126731 621.945725 L 485.912697 625.936021 L 485.847795 629.935495 L 485.782894 633.934968 L 485.891588 637.931677 L 486.298191 641.905744 L 486.896324 645.860771 L 487.494458 649.815797 L 488.196321 653.753663 L 488.903878 657.690586 L 489.611436 661.627508 L 490.318994 665.564431 L 491.026552 669.501354 L 491.734109 673.438277 L 492.441667 677.375200 L 493.149225 681.312123 L 493.856783 685.249046 L 494.564340 689.185969 L 494.895670 691.029520" fill="none" id="65" stroke="black" stroke-width="0.5" /><path d="M 267.494100 742.998030 L 267.564494 746.997411 L 267.810147 750.975173 L 268.906662 754.816981 L 270.220074 758.592438 L 272.055734 762.146359 L 274.212489 765.500007 L 276.697968 768.624195 L 279.905914 770.964087 L 283.572300 772.438847 L 283.746070 772.478340" fill="none" id="66" stroke="black" stroke-width="0.5" /><path d="M 267.840550 726.037400 L 265.963832 729.255247 L 265.759461 733.229066 L 265.939137 737.210438 L 266.981718 741.069582 L 268.420829 744.801734 L 269.964470 748.487475 L 271.767737 752.057941 L 273.837860 755.480280 L 276.235505 758.669322 L 278.675200 761.588580" fill="none" id="67" stroke="black" stroke-width="0.5" /><path d="M 266.013780 722.517710 L 265.258254 726.441719 L 264.831324 730.418870 L 264.694941 734.414197 L 264.622881 738.413548 L 265.043352 742.373582 L 266.133545 746.202765 L 267.651304 749.901428 L 269.524816 753.431196 L 271.551669 756.879654 L 273.776854 760.201843 L 276.261806 763.335351 L 278.799372 766.425253 L 281.666041 769.204405 L 284.929134 771.505161 L 287.998030 772.879920" fill="none" id="68" stroke="black" stroke-width="0.5" /><path d="M 269.005910 739.124010 L 269.042547 743.121245 L 269.642929 747.075931 L 270.523908 750.975925 L 271.664910 754.802324 L 273.056527 758.551944 L 275.142031 761.956427 L 277.822328 764.909274 L 281.088020 767.197371 L 284.759016 768.757256 L 288.645944 769.672463 L 292.635654 769.867863 L 296.632038 769.931972 L 300.596240 769.448365 L 304.458548 768.416733 L 308.249757 767.141299 L 312.011570 765.791012 L 315.657544 764.145753 L 319.303518 762.500495 L 322.580710 761.021650" fill="none" id="69" stroke="black" stroke-width="0.5" /><path d="M 274.675200 744.533460 L 275.592293 748.333667 L 277.820932 751.621103 L 280.733991 754.352539 L 284.090883 756.494134 L 287.644383 758.312936 L 291.431452 759.577999 L 295.313813 760.540950 L 299.219669 761.383532 L 303.187824 761.850489 L 307.186161 761.965825 L 311.184498 762.081161 L 315.172094 761.775284 L 319.112146 761.110056 L 323.013243 760.232963 L 326.869317 759.177740 L 330.665822 757.918432 L 334.404874 756.497343 L 338.062895 754.882967 L 341.697536 753.212822 L 344.187010 752.068890" fill="none" id="70" stroke="black" stroke-width="0.5" /><path d="M 293.226380 773.848420 L 295.633784 775.030739 L 299.594963 774.767189 L 303.397615 773.530667 L 307.193746 772.269957 L 310.944624 770.883192 L 314.675816 769.441594 L 316.659450 768.675190" fill="none" id="71" stroke="black" stroke-width="0.5" /><path d="M 295.084650 768.108260 L 299.060383 767.668323 L 303.036117 767.228386 L 306.988623 766.629059 L 310.924569 765.916084 L 314.823905 765.031923 L 318.707196 764.072729 L 322.590487 763.113534 L 326.378458 761.829137 L 330.123318 760.423996 L 333.863792 759.006655 L 337.544652 757.448815 L 341.163057 755.743779 L 344.781462 754.038743 L 348.399866 752.333707 L 352.018271 750.628671 L 355.636676 748.923635 L 359.255080 747.218600 L 362.873485 745.513564 L 366.491890 743.808528 L 366.958660 743.588580" fill="none" id="72" stroke="black" stroke-width="0.5" /><path d="M 295.336620 768.698810 L 293.756746 770.688396 L 297.544810 771.931121 L 301.478113 772.647688 L 305.476827 772.749102 L 309.470129 772.669813 L 313.416669 772.064931 L 317.243791 770.901685 L 320.994289 769.525179 L 324.600950 767.801989 L 328.160906 765.978060 L 331.691324 764.098658 L 335.191875 762.163162 L 338.692426 760.227667 L 342.192977 758.292171 L 345.693528 756.356675 L 349.194078 754.421179 L 352.700899 752.497299 L 356.239913 750.633062 L 359.778927 748.768826 L 363.317942 746.904589 L 366.832680 745.053140" fill="none" id="73" stroke="black" stroke-width="0.5" /><path d="M 490.832680 685.950780 L 494.793537 685.601528 L 498.664006 684.591838 L 502.323625 682.978571 L 505.858058 681.114017 L 509.330073 679.129554 L 512.626745 676.864171 L 515.883423 674.544821 L 519.010143 672.050102 L 522.058820 669.465848 L 524.957052 666.708992 L 527.855283 663.952136 L 530.753514 661.195279 L 531.399610 660.580700" fill="none" id="74" stroke="black" stroke-width="0.5" /><path d="M 494.454730 683.021650 L 498.069681 681.309304 L 501.684632 679.596958 L 505.312399 677.913212 L 508.996331 676.354799 L 512.680262 674.796387 L 516.364194 673.237975 L 519.996740 671.565155 L 523.608771 669.846657 L 527.082299 667.870839 L 530.357165 665.579498 L 533.452259 663.048246 L 536.320239 660.263689 L 538.961682 657.262570 L 541.553393 654.215764 L 544.145104 651.168957 L 546.620710 648.028484 L 549.050370 644.850945 L 551.372803 641.595712 L 553.635540 638.297224 L 555.686238 634.867440 L 557.630503 631.371752 L 558.990160 628.927160" fill="none" id="75" stroke="black" stroke-width="0.5" /><path d="M 547.714570 614.257870 L 546.863751 618.166336 L 546.347982 622.129654 L 545.981937 626.111760 L 545.734655 630.104110 L 545.487372 634.096459 L 545.011366 638.067783 L 544.416523 642.019113 L 543.266330 645.839997 L 541.839388 649.576164 L 539.713423 652.964419 L 538.580710 654.769680" fill="none" id="76" stroke="black" stroke-width="0.5" /><path d="M 543.368110 620.021650 L 544.015838 623.943178 L 544.082575 627.936870 L 543.995033 631.931749 L 542.912407 635.782453 L 541.779843 639.615873 L 540.151443 643.266649 L 538.354780 646.840443 L 536.317051 650.278933 L 534.202196 653.674134 L 532.086800 657.068971 L 529.750812 660.315995 L 527.292197 663.471150 L 524.832496 666.625492 L 522.106150 669.550525 L 519.355620 672.454761 L 516.605091 675.358997 L 516.596460 675.368110" fill="none" id="77" stroke="black" stroke-width="0.5" /><path d="M 547.840550 618.250000 L 547.477928 622.233529 L 546.773898 626.157171 L 545.759050 630.026290 L 544.515256 633.824122 L 543.154223 637.585451 L 541.608313 641.269869 L 539.899986 644.886721 L 537.943503 648.372061 L 535.695003 651.677836 L 533.393589 654.949456 L 530.927358 658.095894 L 528.393276 661.190797 L 525.771401 664.208742 L 522.981872 667.072713 L 520.041104 669.784148 L 517.100336 672.495583 L 513.880613 674.865741 L 510.638289 677.208246 L 507.270465 679.363623 L 506.895670 679.596450" fill="none" id="78" stroke="black" stroke-width="0.5" /><path d="M 539.399610 637.029520 L 538.384775 640.859750 L 536.685017 644.476521 L 534.901262 648.056776 L 532.854713 651.492540 L 530.384263 654.630470 L 527.572601 657.458389 L 524.567015 660.097793 L 521.286307 662.382023 L 517.955692 664.597199 L 514.563155 666.715187 L 511.148148 668.797908 L 507.733141 670.880630 L 504.318134 672.963351 L 502.234260 674.234250" fill="none" id="79" stroke="black" stroke-width="0.5" /><path d="M 523.305120 664.761810 L 520.382176 667.492450 L 517.434924 670.195498 L 514.357542 672.750830 L 511.258174 675.278037 L 508.035570 677.647598 L 504.785385 679.976409 L 501.387788 682.087412 L 497.947516 684.123066 L 494.343046 685.849277 L 490.610923 687.285272 L 486.831264 688.594538 L 483.029908 689.835877 L 479.191139 690.960090 L 477.824810 691.360230" fill="none" id="80" stroke="black" stroke-width="0.5" /><path d="M 573.698820 560.399600 L 573.166048 556.435239 L 572.633276 552.470879 L 572.100505 548.506518 L 571.567733 544.542158 L 571.034961 540.577797 L 570.895670 539.541330" fill="none" id="81" stroke="black" stroke-width="0.5" /><path d="M 561.856300 499.336610 L 561.655297 503.331557 L 561.541340 505.596450" fill="none" id="82" stroke="black" stroke-width="0.5" /><path d="M 28.155510 273.037400 L 28.176475 269.037455 L 28.197441 265.037510 L 28.218406 261.037565 L 28.239371 257.037620 L 28.260337 253.037675 L 28.281302 249.037730 L 28.302268 245.037785 L 28.223661 241.039858 L 28.040622 237.044048 L 27.857583 233.048238 L 27.674544 229.052428 L 27.491505 225.056618 L 27.251549 221.064023 L 26.983565 217.073010 L 26.715582 213.081997 L 26.447598 209.090984 L 26.105945 205.106148 L 25.705574 201.126235 L 25.305204 197.146323 L 24.904833 193.166410 L 24.504463 189.186498 L 24.104092 185.206585 L 23.703722 181.226673 L 23.303351 177.246760 L 22.902980 173.266848 L 22.502610 169.286935 L 21.940510 165.326770 L 21.371508 161.367447 L 20.802505 157.408124 L 20.233502 153.448802 L 19.526691 149.511812 L 18.816150 145.575426 L 18.105609 141.639040 L 17.856300 140.257870" fill="none" id="83" stroke="black" stroke-width="0.5" /><path d="M 31.116140 151.501960 L 29.755817 149.580577 L 31.735071 147.825809 L 30.328740 149.494090" fill="none" id="84" stroke="black" stroke-width="0.5" /><path d="M 33.824810 148.690940 L 33.471790 145.021612 L 33.305267 149.018144 L 32.864929 152.985238 L 32.178117 156.925833 L 31.491305 160.866428 L 30.804493 164.807023 L 30.706700 165.368110" fill="none" id="85" stroke="black" stroke-width="0.5" /><path d="M 173.446850 0.250000 L 169.643003 1.451667 L 165.961296 3.012067 L 162.330788 4.691177 L 158.700280 6.370288 L 155.253526 8.389401 L 152.051973 10.780845 L 151.714570 11.045270" fill="none" id="87" stroke="black" stroke-width="0.5" /><path d="M 176.848430 2.588580 L 175.672216 0.912193 L 173.973608 3.219067 L 175.840550 2.588580" fill="none" id="88" stroke="black" stroke-width="0.5" /><path d="M 39.431110 137.683070 L 36.303514 140.176691 L 33.175918 142.670312 L 32.438980 143.257870" fill="none" id="89" stroke="black" stroke-width="0.5" /><path d="M 31.872050 263.824800 L 31.966835 267.823677 L 32.556358 271.764583 L 33.470883 275.651588 L 35.094148 279.298695 L 37.690285 282.317076 L 38.108270 282.746060" fill="none" id="90" stroke="black" stroke-width="0.5" /><path d="M 31.021660 257.942910 L 30.648576 261.874577 L 31.071212 265.834101 L 32.059511 269.710087 L 33.302747 273.509275 L 34.832451 277.199515 L 36.639734 280.762481 L 38.727796 284.174225 L 41.163226 287.326499 L 44.029530 289.596450" fill="none" id="91" stroke="black" stroke-width="0.5" /><path d="M 28.722440 256.549210 L 27.605246 260.203479 L 28.120856 264.109568 L 29.417574 267.893219 L 31.034230 271.551965 L 32.925639 275.075221 L 35.080618 278.442727 L 37.374573 281.715176 L 39.879111 284.834036 L 42.897553 287.455199 L 46.458581 289.240032 L 47.903550 289.903540" fill="none" id="92" stroke="black" stroke-width="0.5" /><path d="M 27.525590 257.541330 L 27.116140 261.502260 L 27.422721 265.477230 L 28.356080 269.359468 L 29.502216 273.189316 L 31.372427 276.725177 L 33.485509 280.103919 L 35.943969 283.259228 L 38.545275 286.293908 L 41.390703 289.096561 L 44.663609 291.356887 L 48.296761 292.957417 L 51.021660 293.659440" fill="none" id="93" stroke="black" stroke-width="0.5" /><path d="M 28.250000 263.399600 L 25.919290 265.673650 L 26.472485 269.590785 L 28.143956 273.219907 L 30.195698 276.653616 L 32.378338 279.997070 L 34.858172 283.135608 L 37.441776 286.180814 L 40.300847 288.978262 L 43.274885 291.642732 L 46.499116 294.002053 L 49.989278 295.956220 L 53.503883 297.862663 L 57.129241 299.552864 L 60.754599 301.243065 L 64.379957 302.933266 L 64.501970 302.990150" fill="none" id="94" stroke="black" stroke-width="0.5" /><path d="M 30.801180 272.423220 L 31.157587 276.370590 L 32.667905 280.068364 L 34.684388 283.513649 L 37.283267 286.554344 L 40.022212 289.453148 L 43.096302 292.012439 L 46.218722 294.505039 L 49.607871 296.629579 L 52.997020 298.754119 L 56.517106 300.644172 L 60.103801 302.414941 L 63.713001 304.136377 L 67.401255 305.684532 L 71.102551 307.198694 L 74.879835 308.514795 L 78.657120 309.830895 L 82.434405 311.146996 L 82.549220 311.187000" fill="none" id="95" stroke="black" stroke-width="0.5" /><path d="M 29.257880 258.155510 L 29.005910 261.127505 L 29.075679 265.121790 L 29.726671 269.068461 L 30.609107 272.969503 L 31.504748 276.867942 L 31.525590 276.958660" fill="none" id="96" stroke="black" stroke-width="0.5" /><path d="M 30.328740 257.328740 L 30.328740 261.328740 L 30.328740 265.328740 L 31.024891 269.261509 L 32.057190 273.120347 L 33.272513 276.930061 L 34.811387 280.618324 L 36.857324 284.055494 L 37.793310 285.627950" fill="none" id="97" stroke="black" stroke-width="0.5" /><path d="M 32.533470 259.832670 L 31.636442 263.730790 L 30.739414 267.628910 L 30.317204 271.588289 L 30.562526 275.544010 L 32.487199 279.048143 L 35.053180 282.102702 L 38.079130 284.718734 L 41.105081 287.334766 L 41.289370 287.494090" fill="none" id="98" stroke="black" stroke-width="0.5" /><path d="M 32.281500 263.139760 L 30.775456 266.845409 L 29.669169 270.683891 L 29.172157 274.629494 L 29.027670 278.626883 L 29.588462 282.545208 L 31.025884 286.270945 L 32.900389 289.801117 L 35.131417 293.112545 L 37.780642 296.109478 L 40.918713 298.552031 L 42.612210 299.706690" fill="none" id="99" stroke="black" stroke-width="0.5" /><path d="M 30.895670 267.651570 L 31.015455 271.634097 L 31.919749 275.530538 L 32.915740 279.402745 L 34.095764 283.222219 L 35.686700 286.892222 L 37.718867 290.327058 L 40.416498 293.280496 L 43.745860 295.491868 L 47.337274 297.253046 L 47.620080 297.391730" fill="none" id="100" stroke="black" stroke-width="0.5" /><path d="M 31.525590 273.509840 L 31.861250 277.495732 L 32.834069 281.367840 L 34.621052 284.923316 L 37.194616 287.979813 L 40.011476 290.819760 L 42.894490 293.585362 L 46.042577 296.053062 L 49.450297 298.117804 L 53.007562 299.938854 L 56.927234 300.736460 L 56.974410 300.746060" fill="none" id="101" stroke="black" stroke-width="0.5" /><path d="M 32.848430 267.037400 L 32.888831 271.037196 L 31.708911 274.237971 L 31.437786 270.791192 L 31.659666 266.797351 L 31.809060 262.801497 L 31.809060 258.801497 L 31.809060 254.801497 L 31.734929 250.803129 L 31.558922 246.807003 L 31.298527 242.816571 L 30.936124 238.833022 L 30.573721 234.849473 L 30.211318 230.865924 L 29.848915 226.882375 L 29.486512 222.898825 L 29.124109 218.915276 L 28.761706 214.931727 L 28.399303 210.948178 L 28.036900 206.964629 L 27.674497 202.981079 L 27.312094 198.997530 L 26.949691 195.013981 L 26.587288 191.030432 L 26.323171 187.039450 L 26.082403 183.046703 L 25.841635 179.053956 L 25.654151 175.059285 L 25.606407 171.059570 L 25.558664 167.059855 L 25.510920 163.060140 L 25.463177 159.060425 L 25.415434 155.060710 L 25.367690 151.060995 L 25.472344 147.063737 L 25.649006 143.067640 L 25.825667 139.071543 L 26.002329 135.075446 L 26.178991 131.079349 L 26.355653 127.083252 L 26.532315 123.087155 L 26.708976 119.091058 L 26.885638 115.094961 L 26.927170 111.095879 L 26.927170 107.095879 L 26.830937 103.100131 L 26.478153 99.115718 L 25.982290 96.250000" fill="none" id="102" stroke="black" stroke-width="0.5" /><path d="M 25.226380 343.218500 L 23.116140 341.016826 L 24.675432 337.343321 L 26.280172 333.679333 L 27.884913 330.015345 L 29.687612 326.445593 L 31.519727 322.889843 L 33.666184 319.516448 L 34.549220 318.155510" fill="none" id="103" stroke="black" stroke-width="0.5" /><path d="M 23.494100 350.187000 L 22.355041 346.352610 L 22.080112 342.384458 L 23.156704 338.560474 L 24.886585 334.961982 L 26.935526 331.535972 L 29.275250 328.291640 L 31.627408 325.057302 L 34.292610 322.074569 L 37.113051 319.245796 L 39.431110 317.139760" fill="none" id="104" stroke="black" stroke-width="0.5" /><path d="M 25.163390 347.423220 L 24.203425 343.724626 L 24.447343 339.741635 L 25.122637 335.802664 L 26.160650 331.950555 L 27.653689 328.243438 L 29.323588 324.608684 L 31.249893 321.108196 L 33.286166 317.665290 L 35.883712 314.628809 L 39.042233 312.223124 L 42.646534 310.512962 L 46.576864 309.835752 L 50.565877 309.666267 L 54.565857 309.653610 L 55.210630 309.651570" fill="none" id="105" stroke="black" stroke-width="0.5" /><path d="M 25.761810 348.037400 L 24.797766 344.499860 L 24.785440 340.500472 L 25.887519 336.659129 L 27.606858 333.063799 L 29.734318 329.693718 L 32.266118 326.601674 L 35.150659 323.833526 L 38.130995 321.165644 L 41.394305 318.862038 L 44.723034 316.645007 L 48.256858 314.778979 L 51.981829 313.321383 L 55.755757 312.010612 L 59.671813 311.242051 L 63.242130 310.761810" fill="none" id="106" stroke="black" stroke-width="0.5" /><path d="M 26.675200 339.887790 L 28.834640 336.520771 L 31.275843 333.354390 L 33.894407 330.335094 L 36.621651 327.408981 L 39.574582 324.712810 L 42.551121 322.040692 L 45.720024 319.604224 L 48.982101 317.296244 L 52.504171 315.409633 L 56.151858 313.768177 L 59.883016 312.345045 L 63.743124 311.307158 L 67.636429 310.389454 L 71.615411 310.030951 L 75.607821 309.883697 L 79.605849 310.009286 L 80.250000 310.029520" fill="none" id="107" stroke="black" stroke-width="0.5" /><path d="M 28.470480 335.895660 L 28.480682 331.897358 L 30.396867 328.445400 L 33.228036 325.633996 L 36.398719 323.195396 L 39.755914 321.039936 L 43.248154 319.089485 L 46.848518 317.368419 L 50.639916 316.103974 L 54.474503 314.965579 L 58.354129 314.001619 L 62.260512 313.141285 L 63.840550 312.793300" fill="none" id="108" stroke="black" stroke-width="0.5" /><path d="M 31.147640 333.368110 L 32.931243 329.787780 L 35.261396 326.552756 L 37.728862 323.404485 L 40.457053 320.487935 L 43.457219 317.871618 L 46.906589 315.873787 L 50.637055 314.430310 L 54.523200 313.500376 L 58.450936 312.773460 L 62.428173 312.347330 L 66.417698 312.123877 L 70.417285 312.066346 L 74.416871 312.008816 L 75.714570 311.990150" fill="none" id="109" stroke="black" stroke-width="0.5" /><path d="M 37.856300 326.801180 L 40.008442 323.429492 L 42.594207 320.400993 L 45.752924 318.014894 L 49.240858 316.056755 L 53.042411 314.815969 L 56.920765 313.865436 L 60.846552 313.098496 L 64.772339 312.331556 L 68.738176 311.814954 L 72.724376 311.486473 L 76.711968 311.171663 L 80.699561 310.856853 L 84.687153 310.542043 L 88.674746 310.227233 L 92.671322 310.081776 L 96.669842 309.972950 L 97.194890 309.958660" fill="none" id="110" stroke="black" stroke-width="0.5" /><path d="M 27.651580 348.604330 L 27.491564 344.669922 L 28.498100 340.814801 L 30.018328 337.123408 L 31.699763 333.493976 L 33.548044 329.955152 L 35.836083 326.683108 L 38.497452 323.708831 L 41.488585 321.060138 L 44.929853 319.036254 L 48.501163 317.234657 L 52.304338 315.996439 L 56.169305 314.983058 L 60.098253 314.232481 L 64.043941 313.580115 L 68.032463 313.317875 L 72.027771 313.124189 L 76.026588 313.091199 L 80.014260 313.326081 L 82.486220 313.596450" fill="none" id="111" stroke="black" stroke-width="0.5" /><path d="M 36.470480 331.809050 L 38.422106 328.317466 L 40.566053 324.950029 L 43.115703 321.873770 L 46.062618 319.188444 L 49.190856 316.695629 L 52.736498 314.845854 L 56.390266 313.263901 L 60.238056 312.170962 L 64.134820 311.312227 L 68.098141 310.771773 L 72.083367 310.451065 L 76.083270 310.423288 L 80.083174 310.395510 L 84.083077 310.367732 L 85.163390 310.360230" fill="none" id="112" stroke="black" stroke-width="0.5" /><path d="M 23.021660 348.840550 L 26.811525 350.119974 L 30.601389 351.399398 L 34.391254 352.678823 L 38.181118 353.958247 L 41.970983 355.237671 L 45.760848 356.517095 L 49.542369 357.819815 L 53.282773 359.237340 L 57.023177 360.654866 L 60.763581 362.072391 L 64.503985 363.489917 L 68.244389 364.907442 L 71.984793 366.324968 L 75.725196 367.742493 L 79.465600 369.160019 L 83.206004 370.577544 L 86.946408 371.995070 L 90.686812 373.412595 L 94.427216 374.830121 L 98.167620 376.247646 L 101.908024 377.665172 L 105.648428 379.082697 L 109.388832 380.500223 L 113.129236 381.917748 L 116.869640 383.335274 L 120.644861 384.656865 L 124.423753 385.968342 L 128.202646 387.279820 L 131.981538 388.591297 L 135.764084 389.891703 L 139.581242 391.087238 L 143.398401 392.282773 L 147.215559 393.478308 L 151.032717 394.673843 L 154.849875 395.869378 L 158.705666 396.933165 L 162.563988 397.988317 L 166.422311 399.043470 L 170.280634 400.098622 L 174.138956 401.153775 L 178.025517 402.096915 L 181.922937 402.996979 L 185.820357 403.897043 L 189.717778 404.797107 L 193.615198 405.697171 L 197.514930 406.586931 L 201.423315 407.438121 L 205.331700 408.289312 L 209.240086 409.140502 L 213.148471 409.991693 L 217.056856 410.842883 L 220.965241 411.694074 L 224.873626 412.545264 L 228.782012 413.396454 L 232.694753 414.226840 L 236.616328 415.015034 L 240.537903 415.803228 L 244.459478 416.591423 L 248.381052 417.379617 L 252.302627 418.167811 L 256.224202 418.956005 L 260.145777 419.744200 L 264.067352 420.532394 L 266.423230 421.005900" fill="none" id="113" stroke="black" stroke-width="0.5" /><path d="M 26.832680 606.911410 L 24.798701 603.731794 L 23.961124 599.820469 L 23.129017 595.908110 L 22.481585 591.960854 L 21.834154 588.013598 L 21.189758 584.065938 L 20.783003 580.086673 L 20.376247 576.107408 L 19.969492 572.128143 L 19.562736 568.148878 L 19.155980 564.169613 L 18.749225 560.190348 L 18.342469 556.211083 L 18.037871 552.222743 L 17.736841 548.234087 L 17.435811 544.245430 L 17.134781 540.256774 L 16.850508 536.266989 L 16.614427 532.273962 L 16.378345 528.280935 L 16.142264 524.287908 L 15.906183 520.294881 L 15.670102 516.301854 L 15.434020 512.308827 L 15.197939 508.315799 L 14.961858 504.322772 L 14.725776 500.329745 L 14.489695 496.336718 L 14.253614 492.343691 L 14.047809 488.349051 L 13.858225 484.353546 L 13.668640 480.358041 L 13.479055 476.362536 L 13.289471 472.367032 L 13.099886 468.371527 L 12.910695 464.376007 L 12.787833 460.377894 L 12.664972 456.379782 L 12.542110 452.381669 L 12.419249 448.383556 L 12.338366 444.384717 L 12.322726 440.384747 L 12.307086 436.384778 L 12.291445 432.384808 L 12.275805 428.384839 L 12.260164 424.384870 L 12.244524 420.384900 L 12.228883 416.384931 L 12.213243 412.384961 L 12.197602 408.384992 L 12.181962 404.385022 L 12.166321 400.385053 L 12.184176 396.385407 L 12.277021 392.386485 L 12.369866 388.387562 L 12.462711 384.388640 L 12.555556 380.389718 L 12.689138 376.392112 L 12.854800 372.395544 L 13.020461 368.398976 L 13.186123 364.402408 L 13.351785 360.405840 L 13.570302 356.411815 L 13.789005 352.417798 L 14.007709 348.423781 L 14.226413 344.429765 L 14.445117 340.435748 L 14.663820 336.441732 L 14.882524 332.447715 L 15.101228 328.453698 L 15.319932 324.459682 L 15.538635 320.465665 L 15.757339 316.471648 L 15.976043 312.477632 L 16.194747 308.483615 L 16.413451 304.489599 L 16.632154 300.495582 L 16.850858 296.501565 L 17.069562 292.507549 L 17.226380 289.643700" fill="none" id="114" stroke="black" stroke-width="0.5" /><path d="M 23.903550 612.013770 L 24.216315 616.001523 L 24.625475 619.975369 L 25.452722 623.888892 L 26.108270 626.990150" fill="none" id="115" stroke="black" stroke-width="0.5" /><path d="M 27.872050 633.557080 L 28.943329 637.410956 L 30.104484 641.235478 L 31.514444 644.978741 L 32.924404 648.722003 L 33.289370 649.690940" fill="none" id="116" stroke="black" stroke-width="0.5" /><path d="M 23.998030 611.683070 L 22.415286 615.282228 L 21.599546 619.195934 L 21.465618 623.193691 L 21.331691 627.191448 L 21.797199 631.143198 L 23.175044 634.896161 L 24.741494 638.567424 L 26.651323 642.082044 L 28.738666 645.488889 L 30.975873 648.804745 L 33.425254 651.963787 L 35.462600 654.486220" fill="none" id="117" stroke="black" stroke-width="0.5" /><path d="M 24.974410 612.250000 L 23.405304 614.659938 L 23.350700 618.659566 L 23.817675 622.620232 L 24.465881 626.567362 L 25.392653 630.454070 L 26.471978 634.304290 L 27.842093 638.062319 L 29.212209 641.820348 L 30.798676 645.488943 L 32.481976 649.117511 L 34.165276 652.746078 L 36.208623 656.181010 L 38.567451 659.403638 L 41.005910 662.470470" fill="none" id="118" stroke="black" stroke-width="0.5" /><path d="M 24.974410 610.690940 L 23.644082 613.686955 L 23.616377 617.686859 L 23.588673 621.686763 L 24.174810 625.636031 L 25.078723 629.530425 L 26.407523 633.303261 L 27.736323 637.076097 L 29.343907 640.734831 L 31.041644 644.356666 L 32.850754 647.917426 L 34.991952 651.296075 L 37.133150 654.674724 L 39.598096 657.824612 L 42.067678 660.971223 L 44.881977 663.800184 L 47.816609 666.518259 L 47.935040 666.627950" fill="none" id="119" stroke="black" stroke-width="0.5" /><path d="M 23.872050 618.935030 L 23.317019 622.896335 L 22.895670 626.866961 L 22.895670 630.866961 L 23.393590 634.797902 L 24.720566 638.560738 L 26.481157 642.143092 L 28.624704 645.520252 L 30.792518 648.880209 L 33.269438 652.021048 L 35.746358 655.161886 L 38.395353 658.153385 L 41.156258 661.047759 L 44.142895 663.690295 L 45.730320 664.903540" fill="none" id="120" stroke="black" stroke-width="0.5" /><path d="M 24.092520 617.210630 L 24.032148 621.210174 L 24.324828 625.178943 L 25.081919 629.106213 L 26.399344 632.883036 L 27.716769 636.659859 L 29.263171 640.338630 L 31.087406 643.898429 L 33.140876 647.323866 L 35.355535 650.654824 L 37.570194 653.985783 L 40.150633 657.040566 L 42.747851 660.082680 L 45.848596 662.608738 L 49.004400 665.062766 L 52.292553 667.340495 L 55.580707 669.618223 L 57.163390 670.714560" fill="none" id="121" stroke="black" stroke-width="0.5" /><path d="M 21.194890 644.139760 L 24.781367 645.910970 L 28.367844 647.682180 L 31.954320 649.453390 L 35.510310 651.283421 L 39.025183 653.192784 L 42.540056 655.102148 L 46.054929 657.011511 L 49.569802 658.920874 L 53.084675 660.830238 L 56.634335 662.673385 L 60.200903 664.484350 L 63.767471 666.295315 L 67.334039 668.106280 L 70.900607 669.917244 L 74.467175 671.728209 L 78.033742 673.539174 L 81.600310 675.350139 L 85.166878 677.161104 L 88.733446 678.972069 L 92.300014 680.783034 L 95.866582 682.593998 L 99.433150 684.404963 L 102.999718 686.215928 L 106.566285 688.026893 L 110.149819 689.803996 L 113.735640 691.576533 L 117.321461 693.349069 L 120.907283 695.121605 L 124.498349 696.883364 L 128.105714 698.611634 L 131.713079 700.339905 L 135.320444 702.068175 L 138.927809 703.796445 L 142.535174 705.524715 L 146.142539 707.252985 L 149.749904 708.981255 L 153.357269 710.709525 L 156.964634 712.437795 L 160.571999 714.166066 L 164.179364 715.894336 L 167.786729 717.622606 L 171.394094 719.350876 L 175.001459 721.079146 L 178.608824 722.807416 L 182.216190 724.535686 L 185.823555 726.263956 L 189.430920 727.992227 L 193.038285 729.720497 L 196.645650 731.448767 L 200.319575 733.030519 L 203.994348 734.610408 L 207.669120 736.190297 L 211.343892 737.770186 L 215.018664 739.350075 L 218.693436 740.929964 L 222.368209 742.509853 L 226.042981 744.089742 L 229.717753 745.669631 L 233.392525 747.249519 L 237.067298 748.829408 L 240.742070 750.409297 L 244.416842 751.989186 L 248.091614 753.569075 L 251.766387 755.148964 L 255.459085 756.685511 L 259.176263 758.162868 L 262.893442 759.640224 L 266.610621 761.117580 L 270.327800 762.594936 L 274.044979 764.072292 L 277.762158 765.549648 L 281.479337 767.027004 L 285.196516 768.504360 L 288.913695 769.981716 L 292.630874 771.459072 L 296.348053 772.936428 L 300.065232 774.413784 L 303.804824 775.832798 L 307.555005 777.224251 L 311.305186 778.615704 L 315.055368 780.007157 L 318.851697 781.263926 L 322.667185 782.464781 L 326.523849 783.524282 L 330.387352 784.560306 L 334.250855 785.596330 L 338.114357 786.632354 L 341.977860 787.668379 L 345.761810 788.683070" fill="none" id="122" stroke="black" stroke-width="0.5" /><path d="M 23.683070 594.438970 L 22.236559 598.168260 L 21.611532 602.114804 L 21.549672 606.111882 L 21.524868 610.111805 L 21.651147 614.105421 L 22.009248 618.089359 L 22.654912 622.034426 L 23.367397 625.970460 L 24.623792 629.767979 L 26.006231 633.512731 L 27.951329 637.004200 L 30.065495 640.399830 L 30.423230 640.974400" fill="none" id="123" stroke="black" stroke-width="0.5" /><path d="M 23.683070 597.250000 L 21.768377 597.969088 L 21.248762 601.933236 L 21.005867 605.925854 L 20.894175 609.922923 L 20.865958 613.922824 L 21.010903 617.914026 L 21.836978 621.812026 L 22.961443 625.650721 L 24.856730 629.167596 L 26.954236 632.561477 L 29.411833 635.717458 L 32.001012 638.761991 L 34.709538 641.705439 L 37.418064 644.648888 L 40.209794 647.512425 L 43.041512 650.337557 L 45.068900 652.360230" fill="none" id="124" stroke="black" stroke-width="0.5" /><path d="M 21.446850 599.801180 L 19.805053 602.325250 L 20.109732 606.290437 L 20.850325 610.221279 L 21.590919 614.152121 L 22.331512 618.082964 L 23.072106 622.013806 L 23.952037 625.913362 L 24.963058 629.783482 L 26.032792 633.634017 L 27.788854 637.216658 L 29.964558 640.562760 L 32.483829 643.668261 L 35.198633 646.605920 L 37.913437 649.543578 L 40.732623 652.380223 L 43.579720 655.189856 L 46.592694 657.819520 L 49.725333 660.306307 L 53.027416 662.562151 L 56.345623 664.795870 L 59.822152 666.773292 L 63.304871 668.740693 L 66.297250 670.431100" fill="none" id="125" stroke="black" stroke-width="0.5" /><path d="M 25.194890 627.864170 L 25.841684 631.671383 L 27.908256 635.092475 L 30.201148 638.367611 L 32.827145 641.384918 L 35.453142 644.402224 L 38.199605 647.307789 L 41.011344 650.152807 L 43.930517 652.886056 L 46.884460 655.583133 L 49.996142 658.093491 L 53.148844 660.555293 L 56.301547 663.017095 L 59.568588 665.320272 L 62.900865 667.532947 L 66.233142 669.745622 L 69.565419 671.958297 L 72.916584 674.140992 L 76.351005 676.191540 L 79.785427 678.242088 L 83.312652 680.126799 L 86.856719 681.981410 L 90.400787 683.836022 L 92.816930 685.100390" fill="none" id="126" stroke="black" stroke-width="0.5" /><path d="M 48.974410 659.848420 L 52.427682 661.867060 L 55.880955 663.885701 L 59.334227 665.904341 L 62.787500 667.922982 L 66.270070 669.890185 L 69.767829 671.830722 L 73.265587 673.771259 L 76.763346 675.711796 L 80.261105 677.652333 L 83.758864 679.592870 L 87.332963 681.386272 L 90.933533 683.128653 L 94.534103 684.871035 L 98.134673 686.613417 L 101.748920 688.326350 L 105.403114 689.953270 L 109.062128 691.568854 L 112.768921 693.072078 L 116.475715 694.575302 L 120.182508 696.078526 L 123.891023 697.577131 L 127.677362 698.866953 L 131.463701 700.156774 L 135.250039 701.446596 L 139.036378 702.736418 L 142.822716 704.026239 L 146.609055 705.316061 L 150.395394 706.605882 L 154.181732 707.895704 L 157.959353 709.209896 L 161.704670 710.614389 L 165.449987 712.018882 L 169.195304 713.423375 L 172.865167 715.013476 L 175.809060 716.305110" fill="none" id="127" stroke="black" stroke-width="0.5" /><path d="M 77.100400 316.289370 L 75.193815 313.944579 L 75.998030 312.368110" fill="none" id="128" stroke="black" stroke-width="0.5" /><path d="M 78.486220 311.730310 L 75.858053 309.571831 L 71.893934 309.118095 L 67.926648 308.648055 L 64.068878 307.590883 L 60.272340 306.353073 L 56.566899 304.846519 L 53.012108 303.021716 L 49.498096 301.110768 L 45.984084 299.199821 L 45.352370 298.856290" fill="none" id="129" stroke="black" stroke-width="0.5" /><path d="M 76.501970 312.982280 L 75.025911 311.421462 L 71.302047 309.961036 L 67.578184 308.500611 L 63.854321 307.040186 L 60.130457 305.579760 L 56.413776 304.102681 L 52.823961 302.343897 L 49.389687 300.293101 L 45.998697 298.176706 L 42.842120 295.727718 L 39.985099 292.933916 L 37.581886 289.749517 L 35.840550 287.163380" fill="none" id="130" stroke="black" stroke-width="0.5" /><path d="M 114.738190 310.809050 L 111.237700 312.435157 L 108.627960 312.486220" fill="none" id="131" stroke="black" stroke-width="0.5" /><path d="M 313.604330 364.053140 L 309.611538 363.813116 L 305.618746 363.573093 L 301.665706 362.969823 L 297.719805 362.317072 L 293.802325 361.508770 L 289.893862 360.660372 L 286.007451 359.713898 L 282.121041 358.767423 L 278.234630 357.820949 L 274.348220 356.874474 L 270.461809 355.928000 L 266.595693 354.903481 L 262.740519 353.836883 L 258.885345 352.770285 L 255.030170 351.703687 L 251.222408 350.478861 L 247.425322 349.222472 L 243.669259 347.846977 L 239.913195 346.471482 L 236.157132 345.095986 L 232.401069 343.720491 L 228.645005 342.344996 L 225.289370 341.116140" fill="none" id="132" stroke="black" stroke-width="0.5" /><path d="M 294.958660 363.155510 L 290.972725 362.820370 L 286.996247 362.409385 L 283.050065 361.755433 L 279.103884 361.101481 L 275.157703 360.447530 L 271.240756 359.641991 L 267.334400 358.781535 L 263.428044 357.921079 L 259.521688 357.060624 L 255.625749 356.157249 L 251.759578 355.131229 L 247.906490 354.057673 L 244.066154 352.940647 L 240.283669 351.639568 L 236.501184 350.338489 L 232.718699 349.037410 L 228.936214 347.736330 L 225.174945 346.376747 L 221.437710 344.950887 L 217.700475 343.525027 L 213.963240 342.099168 L 210.234717 340.652122 L 206.575424 339.036704 L 205.667330 338.635820" fill="none" id="133" stroke="black" stroke-width="0.5" /><path d="M 274.045280 405.226370 L 270.228015 406.245788 L 266.844987 408.346280 L 264.735820 411.717150 L 263.336620 414.816920" fill="none" id="134" stroke="black" stroke-width="0.5" /><path d="M 276.974410 401.635820 L 273.818055 402.541053 L 271.671195 405.900348 L 269.979149 409.513948 L 268.487074 413.225243 L 267.489092 417.096784 L 266.705809 421.016023 L 266.106269 424.968657 L 265.846078 428.960185 L 265.585887 432.951714 L 265.446850 435.084640" fill="none" id="135" stroke="black" stroke-width="0.5" /><path d="M 272.627960 403.076770 L 269.918352 406.019223 L 267.607184 409.278749 L 265.768394 412.802883 L 264.645063 416.628901 L 263.900960 420.556398 L 263.334188 424.516040 L 262.767416 428.475683 L 262.200644 432.435325 L 261.707226 436.403424 L 261.358195 440.388167 L 261.009164 444.372910 L 260.985845 448.371373 L 260.998545 452.371353 L 261.254359 456.352873 L 261.845765 460.308911 L 262.171260 462.486220" fill="none" id="136" stroke="black" stroke-width="0.5" /><path d="M 271.116140 406.147630 L 269.521447 409.386006 L 268.458044 413.242062 L 267.394641 417.098119 L 266.530241 420.998306 L 265.863918 424.942417 L 265.197594 428.886528 L 264.643786 432.845836 L 264.239914 436.825395 L 263.875185 440.807768 L 263.705486 444.804167 L 263.535788 448.800566 L 263.412801 452.798235 L 263.365014 456.797949 L 263.317228 460.797664 L 263.273630 464.797403 L 263.273630 468.797403 L 263.273630 472.797403 L 263.273630 476.797403 L 263.273630 480.797403 L 263.273630 484.797403 L 263.273630 488.797403 L 263.354260 492.795842 L 263.509106 496.792844 L 263.651580 500.470470" fill="none" id="137" stroke="black" stroke-width="0.5" /><path d="M 545.856300 342.533460 L 544.950901 346.429644 L 544.045503 350.325829 L 543.935040 350.801180" fill="none" id="138" stroke="black" stroke-width="0.5" /><path d="M 544.155510 334.832670 L 544.719919 335.133095 L 544.807662 339.127411 L 544.741171 343.126858 L 544.674679 347.126306 L 544.608188 351.125753 L 544.541697 355.125200 L 544.295435 359.117040 L 544.023788 363.107805 L 543.581856 367.082932 L 543.122085 371.056420 L 542.662314 375.029909 L 542.202543 379.003397 L 541.950790 381.179130" fill="none" id="139" stroke="black" stroke-width="0.5" /><path d="M 545.635830 335.092510 L 545.226157 339.071476 L 544.987228 343.060073 L 544.946826 347.059869 L 544.957294 351.057559 L 545.328194 355.040326 L 545.699095 359.023093 L 546.069995 363.005860 L 546.440896 366.988627 L 546.811796 370.971394 L 547.109277 374.960118 L 547.385303 378.950582 L 547.661329 382.941047 L 547.873500 386.934827 L 548.012143 390.932423 L 548.092520 394.931030 L 548.092520 398.931030 L 547.879523 402.922109 L 547.295352 406.877087 L 546.706700 410.446850" fill="none" id="140" stroke="black" stroke-width="0.5" /></svg>