<?xml version="1.0" encoding="utf-8" ?>
<svg baseProfile="full" height="593.5" version="1.1" viewBox="0,0,410.5,593.5" width="410.5" xmlns="http://www.w3.org/2000/svg" xmlns:ev="http://www.w3.org/2001/xml-events" xmlns:xlink="http://www.w3.org/1999/xlink"><defs><style type="text/css"><![CDATA[
	.background { fill: white; }
	.line { stroke: firebrick; stroke-width: .1mm; }
	.blacksquare { fill: indigo; }
	.whitesquare { fill: white; }
]]></style></defs><rect class="background" height="100%" width="100%" x="0" y="0" /><path d="M 355.147350 486.888000 L 355.147350 488.441000 L 355.147350 489.993000 L 355.147350 491.546000 L 355.147350 493.099000 L 355.147350 494.652000 L 355.147350 496.204000 L 355.147350 497.757000 L 355.147350 499.310000 L 355.147350 500.863000 L 355.147350 502.415000 L 355.147350 503.968000 L 355.147350 505.521000 L 355.147350 507.074000 L 355.147350 508.626000 L 355.147350 510.179000 L 355.147350 511.732000 L 355.147350 513.285000 L 355.147350 514.837000 L 355.147350 516.390000 L 355.147350 517.943000 L 355.147350 519.496000 L 355.147350 521.048000 L 355.147350 522.601000 L 355.147350 524.154000 L 355.147350 525.707000 L 355.147350 527.259000 L 355.147350 528.812000 L 355.147350 530.365000 L 355.147350 531.918000 L 355.147350 533.470000" fill="none" id="0" stroke="#f375a0" stroke-width="0.5" /><path d="M 172.785350 275.211000 L 174.257350 279.876000 L 176.653350 284.138000 L 180.117350 287.580000 L 184.409350 289.892000 L 189.063350 291.373000 L 193.879350 292.199000 L 198.740350 292.740000 L 203.624350 293.004000 L 208.512350 293.203000 L 213.403350 293.249000 L 218.295350 293.214000 L 223.183350 293.039000 L 228.063350 292.702000 L 232.937350 292.279000 L 237.809350 291.836000 L 242.673350 291.319000 L 247.527350 290.712000 L 252.378350 290.078000 L 257.226350 289.425000 L 262.066350 288.711000 L 266.894350 287.924000 L 271.705350 287.040000 L 276.495350 286.045000 L 281.285350 285.049000 L 286.073350 284.047000 L 290.853350 283.007000 L 295.615350 281.886000 L 300.369350 280.734000 L 305.101350 279.490000 L 309.825350 278.219000 L 314.549350 276.949000 L 319.273350 275.678000 L 323.998350 274.407000" fill="none" id="1" stroke="#9de993" stroke-width="0.5" /><path d="M 178.045350 363.415000 L 177.065350 358.644000 L 176.312350 353.832000 L 175.812350 348.987000 L 175.710350 344.118000 L 176.426350 339.308000 L 178.073350 334.736000 L 180.335350 330.429000 L 183.038350 326.382000 L 186.124350 322.618000 L 189.552350 319.164000 L 193.294350 316.053000 L 197.295350 313.281000 L 201.519350 310.865000 L 205.865350 308.667000 L 210.284350 306.620000 L 214.758350 304.694000 L 219.253350 302.816000 L 223.764350 300.981000 L 228.291350 299.182000 L 232.832350 297.419000 L 237.406350 295.745000 L 242.005350 294.142000 L 246.622350 292.590000 L 251.262350 291.108000 L 255.915350 289.667000 L 260.585350 288.280000 L 265.263350 286.925000 L 269.942350 285.570000 L 274.620350 284.214000 L 279.301350 282.865000 L 283.992350 281.554000 L 288.692350 280.276000 L 293.393350 278.998000 L 298.093350 277.720000 L 302.793350 276.441000 L 307.494350 275.163000" fill="none" id="2" stroke="#ad5ba7" stroke-width="0.5" /><path d="M 409.509350 207.557000 L 406.857350 211.612000 L 404.299350 215.726000 L 401.841350 219.902000 L 399.360350 224.056000 L 396.361350 227.853000 L 392.847350 231.187000 L 389.097350 234.254000 L 385.188350 237.118000 L 381.115350 239.742000 L 377.011350 242.317000 L 372.850350 244.801000 L 368.651350 247.218000 L 364.420350 249.579000 L 360.145350 251.860000 L 355.794350 253.990000 L 351.393350 256.015000 L 346.977350 258.011000 L 342.545350 259.968000 L 338.077350 261.843000 L 333.579350 263.644000 L 329.060350 265.392000 L 324.527350 267.103000 L 319.991350 268.806000 L 315.454350 270.508000 L 310.912350 272.194000 L 306.355350 273.842000 L 301.786350 275.455000 L 297.198350 277.013000 L 292.589350 278.509000 L 287.966350 279.959000" fill="none" id="3" stroke="#ad5ba7" stroke-width="0.5" /><path d="M 341.226350 227.329000 L 341.634350 231.161000 L 342.047350 234.993000 L 342.462350 238.825000 L 342.896350 242.655000 L 343.353350 246.482000 L 343.817350 250.308000 L 344.280350 254.134000 L 344.737350 257.961000 L 345.161350 261.792000 L 345.542350 265.627000 L 345.902350 269.465000 L 346.254350 273.303000 L 346.588350 277.142000 L 346.888350 280.985000 L 347.160350 284.829000 L 347.413350 288.675000 L 347.640350 292.523000 L 347.840350 296.372000 L 348.033350 300.221000 L 348.219350 304.071000 L 348.374350 307.922000 L 348.470350 311.775000 L 348.536350 315.628000 L 348.598350 319.482000 L 348.661350 323.336000 L 348.724350 327.190000 L 348.786350 331.043000 L 348.849350 334.897000 L 348.911350 338.751000 L 348.974350 342.604000" fill="none" id="4" stroke="#58f2c3" stroke-width="0.5" /><path d="M 319.683350 267.628000 L 322.812350 266.397000 L 325.952350 265.192000 L 329.101350 264.013000 L 332.266350 262.877000 L 335.445350 261.781000 L 338.636350 260.722000 L 341.856350 259.750000 L 345.085350 258.812000 L 348.314350 257.873000 L 351.544350 256.938000 L 354.780350 256.025000 L 358.032350 255.170000 L 361.309350 254.421000 L 364.618350 253.822000 L 367.958350 253.432000 L 371.318350 253.299000 L 374.680350 253.316000 L 378.031350 253.556000 L 381.346350 254.088000 L 384.610350 254.889000 L 387.821350 255.882000 L 390.968350 257.066000 L 393.987350 258.546000 L 396.966350 260.107000 L 399.795350 261.917000 L 402.382350 264.050000 L 404.565350 266.577000 L 406.203350 269.493000 L 407.262350 272.678000 L 407.840350 275.990000" fill="none" id="5" stroke="#57b870" stroke-width="0.5" /><path d="M 343.273350 259.996000 L 345.706350 259.146000 L 348.140350 258.302000 L 350.576350 257.462000 L 353.013350 256.627000 L 355.457350 255.811000 L 357.913350 255.035000 L 360.394350 254.340000 L 362.900350 253.742000 L 365.420350 253.211000 L 367.955350 252.748000 L 370.509350 252.411000 L 373.071350 252.140000 L 375.639350 251.930000 L 378.211350 251.792000 L 380.785350 251.670000 L 383.359350 251.570000 L 385.935350 251.517000 L 388.512350 251.487000 L 391.088350 251.479000 L 393.664350 251.498000 L 396.187350 252.014000 L 398.552350 252.954000 L 400.740350 254.298000 L 402.572350 256.110000 L 403.596350 258.398000 L 404.149350 260.904000 L 404.366350 263.472000 L 404.461350 266.046000 L 404.456350 268.621000 L 404.344350 271.195000" fill="none" id="6" stroke="#57b870" stroke-width="0.5" /><path d="M 248.293350 518.133000 L 248.688350 520.529000 L 249.054350 522.928000 L 249.390350 525.333000 L 249.648350 527.746000 L 249.875350 530.163000 L 250.076350 532.583000 L 250.243350 535.004000 L 250.392350 537.427000 L 250.528350 539.851000 L 250.652350 542.276000 L 250.769350 544.700000 L 250.881350 547.125000 L 250.987350 549.551000 L 251.090350 551.976000 L 251.192350 554.401000 L 251.293350 556.827000 L 251.385350 559.253000 L 251.470350 561.679000 L 251.542350 564.105000 L 251.602350 566.532000 L 251.657350 568.959000 L 251.706350 571.386000 L 251.737350 573.814000 L 251.757350 576.241000 L 251.765350 578.669000 L 251.772350 581.096000 L 251.779350 583.524000 L 251.787350 585.952000 L 251.794350 588.379000 L 251.801350 590.807000 L 251.809350 593.234000" fill="none" id="7" stroke="#d271bb" stroke-width="0.5" /><path d="M 354.234350 477.841000 L 354.003350 480.051000 L 353.771350 482.260000 L 353.539350 484.470000 L 353.297350 486.679000 L 353.059350 488.888000 L 352.831350 491.099000 L 352.628350 493.311000 L 352.441350 495.526000 L 352.296350 497.743000 L 352.171350 499.961000 L 352.061350 502.181000 L 351.962350 504.401000 L 351.865350 506.620000 L 351.774350 508.841000 L 351.702350 511.062000 L 351.644350 513.283000 L 351.615350 515.505000 L 351.599350 517.727000 L 351.591350 519.949000 L 351.583350 522.171000 L 351.577350 524.393000 L 351.572350 526.615000 L 351.596350 528.837000 L 351.655350 531.057000 L 351.785350 533.276000 L 351.979350 535.489000 L 352.203350 537.700000 L 352.459350 539.907000 L 352.740350 542.111000 L 353.037350 544.313000" fill="none" id="8" stroke="#3d8e43" stroke-width="0.5" /><path d="M 176.754350 556.880000 L 178.210350 560.172000 L 179.682350 563.457000 L 181.180350 566.730000 L 182.688350 569.999000 L 184.524350 573.087000 L 187.008350 575.644000 L 189.897350 577.784000 L 193.166350 579.139000 L 196.717350 579.626000 L 200.309350 579.575000 L 203.876350 579.119000 L 207.397350 578.375000 L 210.875350 577.450000 L 214.309350 576.372000 L 217.714350 575.205000 L 221.101350 573.984000 L 224.444350 572.649000 L 227.766350 571.262000 L 231.085350 569.870000 L 234.405350 568.478000 L 237.724350 567.085000 L 241.044350 565.693000 L 244.363350 564.300000 L 247.683350 562.908000 L 251.005350 561.523000 L 254.335350 560.155000 L 257.671350 558.803000 L 261.008350 557.453000 L 264.345350 556.103000 L 267.683350 554.754000" fill="none" id="9" stroke="#00d4db" stroke-width="0.5" /><path d="M 402.801350 457.502000 L 401.978350 460.134000 L 401.137350 462.761000 L 400.284350 465.383000 L 399.415350 468.001000 L 398.483350 470.596000 L 397.378350 473.121000 L 396.135350 475.581000 L 394.795350 477.991000 L 393.454350 480.401000 L 391.910350 482.685000 L 390.266350 484.898000 L 388.536350 487.044000 L 386.715350 489.116000 L 384.794350 491.095000 L 382.819350 493.018000 L 380.789350 494.885000 L 378.705350 496.690000 L 376.515350 498.366000 L 374.290350 499.996000 L 372.036350 501.586000 L 369.757350 503.138000 L 367.447350 504.644000 L 365.113350 506.114000 L 362.763350 507.557000 L 360.397350 508.974000 L 358.013350 510.360000 L 355.607350 511.708000 L 353.187350 513.031000 L 350.755350 514.332000 L 348.313350 515.612000" fill="none" id="10" stroke="#d55969" stroke-width="0.5" /><path d="M 0.250000 177.463000 L 1.302670 180.840000 L 2.422210 184.196000 L 3.606850 187.530000 L 4.920250 190.815000 L 6.568550 193.942000 L 8.690450 196.764000 L 11.306350 199.129000 L 14.272750 201.042000 L 17.453450 202.580000 L 20.789450 203.742000 L 24.215050 204.618000 L 27.705350 205.164000 L 31.227150 205.497000 L 34.759650 205.649000 L 38.297450 205.686000 L 41.834150 205.642000 L 45.364950 205.435000 L 48.883250 205.070000 L 52.389450 204.598000 L 55.890350 204.088000 L 59.385850 203.542000 L 62.871950 202.940000 L 66.355050 202.320000 L 69.826850 201.639000 L 73.291150 200.921000 L 76.755350 200.202000 L 80.219550 199.484000 L 83.683750 198.766000 L 87.147950 198.047000 L 90.612150 197.329000" fill="none" id="11" stroke="#64e4ff" stroke-width="0.5" /><path d="M 4.816950 253.904000 L 3.777650 250.718000 L 3.160620 247.426000 L 3.038710 244.083000 L 3.547950 240.786000 L 4.534150 237.591000 L 5.927950 234.554000 L 7.717550 231.733000 L 9.841950 229.146000 L 12.190650 226.759000 L 14.717350 224.559000 L 17.394150 222.543000 L 20.212650 220.731000 L 23.047950 218.945000 L 25.950950 217.273000 L 28.924050 215.729000 L 31.960550 214.314000 L 35.053750 213.028000 L 38.197250 211.869000 L 41.385450 210.838000 L 44.599350 209.890000 L 47.831450 209.005000 L 51.064550 208.124000 L 54.305050 207.271000 L 57.567350 206.507000 L 60.838550 205.780000 L 64.109850 205.054000 L 67.381150 204.327000 L 70.652350 203.601000 L 73.923650 202.874000 L 77.194850 202.148000" fill="none" id="12" stroke="#e68e54" stroke-width="0.5" /><path d="M 66.328750 228.226000 L 67.234750 228.722000 L 68.140850 229.218000 L 69.046850 229.714000 L 69.952850 230.210000 L 70.858950 230.705000 L 71.764950 231.201000 L 72.670950 231.697000 L 73.577050 232.193000 L 74.483050 232.689000 L 75.389150 233.184000 L 76.295150 233.680000 L 77.201150 234.176000 L 78.107250 234.672000 L 79.013250 235.168000 L 79.919250 235.663000 L 80.825350 236.159000 L 81.731350 236.655000 L 82.637450 237.151000 L 83.543450 237.647000 L 84.449450 238.142000 L 85.355550 238.638000 L 86.261550 239.134000 L 87.167550 239.630000 L 88.073650 240.126000 L 88.979650 240.621000 L 89.885650 241.117000 L 90.791750 241.613000 L 91.697750 242.109000 L 92.603850 242.605000 L 93.509350 243.100000" fill="none" id="13" stroke="#54aeff" stroke-width="0.5" /><path d="M 169.414350 190.796000 L 168.421350 190.234000 L 167.428350 189.672000 L 166.433350 189.114000 L 165.437350 188.557000 L 164.438350 188.005000 L 163.439350 187.455000 L 162.438350 186.907000 L 161.437350 186.360000 L 160.436350 185.813000 L 159.434350 185.266000 L 158.433350 184.719000 L 157.432350 184.172000 L 156.431350 183.625000 L 155.429350 183.078000 L 154.428350 182.531000 L 153.427350 181.984000 L 152.425350 181.437000 L 151.424350 180.890000 L 150.423350 180.344000 L 149.420350 179.799000 L 148.418350 179.254000 L 147.414350 178.712000 L 146.409350 178.172000 L 145.403350 177.634000 L 144.394350 177.100000 L 143.384350 176.570000 L 142.373350 176.041000 L 141.362350 175.513000 L 140.349350 174.988000 L 139.336350 174.463000" fill="none" id="14" stroke="#eed973" stroke-width="0.5" /><path d="M 94.864350 0.250000 L 99.574350 1.598190 L 104.234350 3.109400 L 108.815350 4.847790 L 113.344350 6.715660 L 117.878350 8.572670 L 122.433350 10.379100 L 127.006350 12.136100 L 131.586350 13.877900 L 136.155350 15.644400 L 140.688350 17.504200 L 145.165350 19.493200 L 149.590350 21.595100 L 153.954350 23.822700 L 158.272350 26.136600 L 162.576350 28.477700 L 166.867350 30.843600 L 171.155350 33.213500 L 175.443350 35.583500 L 179.731350 37.953400 L 184.019350 40.323400 L 188.308350 42.693300 L 192.596350 45.063200 L 196.853350 47.488700 L 201.062350 49.995200 L 205.254350 52.532700 L 209.443350 55.073300 L 213.638350 57.605000 L 217.854350 60.101100 L 222.092350 62.559500 L 226.333350 65.012200 L 230.580350 67.454700" fill="none" id="15" stroke="#008bd4" stroke-width="0.5" /><path d="M 14.932450 432.299000 L 13.368850 435.366000 L 12.659050 438.738000 L 12.949050 442.172000 L 14.849350 445.033000 L 17.506150 447.205000 L 20.548450 448.803000 L 23.803650 449.911000 L 27.168850 450.633000 L 30.573750 451.166000 L 34.003050 451.453000 L 37.448750 451.474000 L 40.891150 451.328000 L 44.321750 451.005000 L 47.733550 450.518000 L 51.123950 449.898000 L 54.495950 449.184000 L 57.858050 448.425000 L 61.218950 447.660000 L 64.569450 446.851000 L 67.897550 445.955000 L 71.213950 445.016000 L 74.516050 444.028000 L 77.811450 443.018000 L 81.106650 442.007000 L 84.396750 440.980000 L 87.672550 439.908000 L 90.931250 438.785000 L 94.185350 437.648000 L 97.439350 436.510000 L 100.691350 435.368000" fill="none" id="16" stroke="#6f73bc" stroke-width="0.5" /><path d="M 13.226350 433.596000 L 13.369350 434.530000 L 13.512250 435.464000 L 13.722750 436.385000 L 13.934350 437.306000 L 14.238250 438.200000 L 14.543350 439.095000 L 14.922650 439.960000 L 15.302450 440.825000 L 15.718050 441.673000 L 16.134150 442.521000 L 16.585650 443.351000 L 17.038150 444.181000 L 17.583850 444.952000 L 18.129950 445.723000 L 18.726650 446.455000 L 19.323850 447.187000 L 19.968950 447.878000 L 20.614750 448.567000 L 21.352750 449.157000 L 22.091050 449.746000 L 22.869650 450.281000 L 23.648550 450.816000 L 24.463350 451.294000 L 25.278450 451.772000 L 26.135550 452.169000 L 26.992750 452.566000 L 27.859550 452.942000 L 28.726350 453.318000 L 29.606250 453.662000 L 30.486250 454.006000" fill="none" id="17" stroke="#6f73bc" stroke-width="0.5" /></svg>