<?xml version="1.0" encoding="utf-8" ?>
<svg baseProfile="full" height="595.5" version="1.1" viewBox="0,0,861.5,595.5" width="861.5" xmlns="http://www.w3.org/2000/svg" xmlns:ev="http://www.w3.org/2001/xml-events" xmlns:xlink="http://www.w3.org/1999/xlink"><defs><style type="text/css"><![CDATA[
	.background { fill: white; }
	.line { stroke: firebrick; stroke-width: .1mm; }
	.blacksquare { fill: indigo; }
	.whitesquare { fill: white; }
]]></style></defs><rect class="background" height="100%" width="100%" x="0" y="0" /><path d="M 113.478000 466.715000 L 114.683000 465.689000 L 115.888000 464.663000 L 117.176000 463.742000 L 118.465000 462.826000 L 119.873000 462.103000 L 121.282000 461.383000 L 122.739000 460.766000 L 124.197000 460.149000 L 125.661000 459.549000 L 127.126000 458.949000 L 128.592000 458.355000 L 130.059000 457.761000 L 131.523000 457.159000 L 132.986000 456.557000 L 134.438000 455.928000 L 135.890000 455.299000 L 137.334000 454.650000 L 138.777000 454.002000 L 140.206000 453.320000 L 141.634000 452.639000 L 143.059000 451.951000 L 144.485000 451.264000 L 145.903000 450.562000 L 147.322000 449.861000 L 148.742000 449.163000 L 150.162000 448.465000 L 151.583000 447.767000 L 153.003000 447.069000 L 154.423000 446.371000 L 155.843000 445.672000" fill="none" id="0" stroke="#c583d9" stroke-width="0.5" /><path d="M 149.266000 449.590000 L 153.845000 447.616000 L 158.424000 445.641000 L 163.002000 443.664000 L 167.578000 441.682000 L 172.153000 439.697000 L 176.728000 437.713000 L 181.302000 435.729000 L 185.863000 433.712000 L 190.376000 431.591000 L 194.871000 429.433000 L 199.362000 427.264000 L 203.852000 425.095000 L 208.342000 422.925000 L 212.832000 420.756000 L 217.322000 418.586000 L 221.812000 416.417000 L 226.302000 414.248000 L 230.792000 412.078000 L 235.273000 409.890000 L 239.727000 407.647000 L 244.138000 405.322000 L 248.538000 402.975000 L 253.177000 401.155000 L 257.774000 399.226000 L 262.304000 397.143000 L 266.796000 394.978000 L 271.273000 392.783000 L 275.735000 390.555000 L 280.190000 388.316000 L 284.646000 386.077000 L 289.102000 383.838000 L 293.557000 381.598000 L 298.013000 379.359000 L 302.469000 377.120000 L 306.924000 374.881000 L 311.380000 372.641000 L 315.836000 370.402000 L 320.291000 368.163000 L 324.747000 365.924000 L 329.203000 363.685000 L 333.658000 361.445000 L 338.114000 359.206000 L 342.569000 356.967000 L 347.025000 354.728000 L 351.481000 352.488000 L 355.928000 350.232000 L 360.352000 347.931000 L 364.749000 345.580000 L 369.131000 343.200000 L 373.513000 340.818000 L 377.894000 338.437000 L 382.275000 336.055000 L 386.656000 333.674000 L 391.057000 331.330000 L 395.522000 329.112000 L 400.068000 327.064000 L 404.596000 324.975000 L 408.987000 322.610000 L 413.377000 320.245000 L 417.767000 317.880000 L 422.157000 315.515000 L 426.547000 313.149000 L 430.970000 310.852000 L 435.535000 308.846000 L 440.188000 307.052000 L 444.664000 304.859000 L 449.114000 302.610000 L 453.565000 300.361000 L 458.016000 298.111000 L 462.466000 295.862000 L 466.917000 293.613000 L 471.368000 291.364000 L 475.818000 289.115000 L 480.269000 286.865000 L 484.719000 284.616000 L 489.170000 282.367000 L 493.621000 280.118000 L 498.071000 277.869000 L 502.522000 275.619000 L 506.973000 273.370000 L 511.423000 271.121000 L 515.874000 268.872000 L 520.324000 266.623000 L 524.775000 264.373000 L 529.226000 262.124000 L 533.676000 259.875000 L 538.127000 257.626000 L 542.581000 255.382000 L 547.047000 253.164000 L 551.524000 250.970000 L 556.008000 248.787000 L 560.492000 246.604000 L 564.975000 244.422000 L 569.459000 242.239000 L 573.943000 240.056000 L 578.426000 237.874000 L 582.910000 235.691000 L 587.393000 233.508000 L 591.877000 231.326000 L 596.361000 229.143000 L 600.844000 226.960000 L 605.328000 224.778000 L 609.812000 222.595000 L 614.295000 220.412000 L 618.779000 218.230000 L 623.262000 216.047000 L 627.746000 213.864000" fill="none" id="1" stroke="#c583d9" stroke-width="0.5" /><path d="M 383.293000 565.631000 L 384.178000 564.985000 L 385.063000 564.340000 L 385.944000 563.691000 L 386.826000 563.041000 L 387.704000 562.387000 L 388.583000 561.733000 L 389.461000 561.079000 L 390.338000 560.424000 L 391.213000 559.765000 L 392.088000 559.106000 L 392.963000 558.448000 L 393.838000 557.789000 L 394.712000 557.130000 L 395.586000 556.470000 L 396.460000 555.810000 L 397.334000 555.151000 L 398.208000 554.491000 L 399.082000 553.832000 L 399.957000 553.172000 L 400.831000 552.513000 L 401.705000 551.853000 L 402.580000 551.194000 L 403.454000 550.535000 L 404.329000 549.876000 L 405.204000 549.217000 L 406.079000 548.559000 L 406.954000 547.901000 L 407.829000 547.242000 L 408.705000 546.585000 L 409.580000 545.927000" fill="none" id="2" stroke="#f375a0" stroke-width="0.5" /><path d="M 400.395000 553.208000 L 404.441000 550.310000 L 408.477000 547.399000 L 412.502000 544.472000 L 416.504000 541.514000 L 420.500000 538.547000 L 424.494000 535.579000 L 428.489000 532.610000 L 432.483000 529.641000 L 436.477000 526.673000 L 440.473000 523.706000 L 444.476000 520.749000 L 448.520000 517.849000 L 452.584000 514.976000 L 456.657000 512.117000 L 460.731000 509.258000 L 464.804000 506.399000 L 468.878000 503.540000 L 472.952000 500.682000 L 477.025000 497.823000 L 481.099000 494.964000 L 485.173000 492.105000 L 489.246000 489.247000 L 493.320000 486.388000 L 497.394000 483.529000 L 501.474000 480.679000 L 505.563000 477.843000 L 509.659000 475.017000 L 513.760000 472.197000 L 517.861000 469.378000 L 521.962000 466.559000 L 526.063000 463.739000 L 530.164000 460.920000 L 534.272000 458.110000 L 538.385000 455.309000 L 542.506000 452.518000 L 546.628000 449.729000 L 550.750000 446.941000 L 554.872000 444.152000 L 558.994000 441.364000 L 563.118000 438.578000 L 567.246000 435.798000 L 571.389000 433.041000 L 575.542000 430.299000 L 579.700000 427.564000 L 583.859000 424.831000 L 588.018000 422.098000 L 592.177000 419.365000 L 596.336000 416.631000 L 600.491000 413.892000 L 604.636000 411.138000 L 608.770000 408.368000 L 612.893000 405.579000 L 617.015000 402.791000 L 621.137000 400.003000 L 625.259000 397.214000 L 629.381000 394.426000 L 633.498000 391.629000 L 637.606000 388.820000 L 641.692000 385.980000 L 645.762000 383.116000 L 649.834000 380.254000 L 653.915000 377.406000 L 658.043000 374.627000 L 662.191000 371.876000 L 666.351000 369.146000 L 670.512000 366.415000 L 674.673000 363.685000 L 678.835000 360.956000 L 682.998000 358.229000 L 687.178000 355.528000 L 691.379000 352.860000 L 695.597000 350.220000 L 699.810000 347.569000 L 703.985000 344.862000 L 708.133000 342.112000 L 712.251000 339.318000 L 716.369000 336.523000 L 720.487000 333.729000 L 724.605000 330.934000 L 728.720000 328.135000 L 732.808000 325.297000 L 736.877000 322.433000 L 740.940000 319.558000 L 745.002000 316.682000 L 749.062000 313.805000 L 753.121000 310.926000" fill="none" id="3" stroke="#f375a0" stroke-width="0.5" /><path d="M 744.471000 318.365000 L 746.096000 317.246000 L 747.720000 316.127000 L 749.352000 315.019000 L 750.983000 313.910000 L 752.618000 312.805000 L 754.252000 311.700000 L 755.890000 310.601000 L 757.528000 309.502000 L 759.174000 308.416000 L 760.820000 307.329000 L 762.467000 306.243000 L 764.113000 305.157000 L 765.752000 304.059000 L 767.391000 302.960000 L 769.020000 301.848000 L 770.649000 300.736000 L 772.267000 299.609000 L 773.886000 298.481000 L 775.500000 297.347000 L 777.113000 296.212000 L 778.725000 295.075000 L 780.336000 293.937000 L 781.948000 292.800000 L 783.560000 291.663000 L 785.172000 290.526000 L 786.784000 289.390000 L 788.396000 288.253000 L 790.008000 287.116000 L 791.620000 285.979000 L 793.232000 284.842000" fill="none" id="4" stroke="#f375a0" stroke-width="0.5" /><path d="M 787.289000 289.710000 L 789.192000 288.387000 L 791.094000 287.064000 L 792.996000 285.740000 L 794.898000 284.415000 L 796.798000 283.089000 L 798.698000 281.761000 L 800.597000 280.432000 L 802.495000 279.103000 L 804.394000 277.774000 L 806.293000 276.446000 L 808.194000 275.121000 L 810.095000 273.796000 L 812.005000 272.483000 L 813.920000 271.178000 L 815.843000 269.885000 L 817.774000 268.603000 L 819.712000 267.331000 L 821.657000 266.072000 L 823.606000 264.818000 L 825.560000 263.572000 L 827.514000 262.326000 L 829.468000 261.081000 L 831.423000 259.835000 L 833.376000 258.589000 L 835.330000 257.342000 L 837.284000 256.096000 L 839.238000 254.850000 L 841.192000 253.603000 L 843.146000 252.357000 L 845.099000 251.111000 L 847.053000 249.864000" fill="none" id="5" stroke="#f375a0" stroke-width="0.5" /><path d="M 383.998000 511.242000 L 385.334000 511.705000 L 386.671000 512.168000 L 387.986000 512.689000 L 389.300000 513.210000 L 390.580000 513.813000 L 391.859000 514.415000 L 393.107000 515.081000 L 394.355000 515.747000 L 395.595000 516.426000 L 396.836000 517.105000 L 398.074000 517.788000 L 399.312000 518.471000 L 400.551000 519.154000 L 401.789000 519.837000 L 403.030000 520.516000 L 404.270000 521.196000 L 405.514000 521.868000 L 406.758000 522.540000 L 408.008000 523.203000 L 409.257000 523.866000 L 410.511000 524.519000 L 411.766000 525.172000 L 413.032000 525.802000 L 414.298000 526.432000 L 415.589000 527.009000 L 416.880000 527.587000 L 418.207000 528.075000 L 419.535000 528.563000 L 420.885000 528.985000 L 422.234000 529.407000" fill="none" id="6" stroke="#9de993" stroke-width="0.5" /><path d="M 58.265700 335.943000 L 62.899900 337.703000 L 67.484800 339.588000 L 72.009200 341.614000 L 76.483200 343.749000 L 80.939600 345.921000 L 85.395800 348.093000 L 89.851900 350.265000 L 94.308000 352.437000 L 98.764200 354.609000 L 103.220000 356.781000 L 107.676000 358.953000 L 112.120000 361.151000 L 116.547000 363.380000 L 120.973000 365.614000 L 125.398000 367.849000 L 129.823000 370.083000 L 134.240000 372.334000 L 138.643000 374.612000 L 143.042000 376.896000 L 147.442000 379.181000 L 151.841000 381.465000 L 156.241000 383.750000 L 160.640000 386.034000 L 165.040000 388.319000 L 169.439000 390.603000 L 173.839000 392.888000 L 178.238000 395.172000 L 182.638000 397.457000 L 187.037000 399.741000 L 191.437000 402.026000 L 195.837000 404.310000 L 200.230000 406.606000 L 204.594000 408.958000 L 208.939000 411.344000 L 213.285000 413.729000 L 217.631000 416.115000 L 221.976000 418.500000 L 226.322000 420.886000 L 230.667000 423.271000 L 235.013000 425.657000 L 239.359000 428.042000 L 243.695000 430.443000 L 248.013000 432.880000 L 252.317000 435.338000 L 256.621000 437.799000 L 260.924000 440.260000 L 265.228000 442.720000 L 269.531000 445.181000 L 273.835000 447.642000 L 278.138000 450.102000 L 282.442000 452.562000 L 286.764000 454.990000 L 291.123000 457.352000 L 295.489000 459.699000 L 299.855000 462.046000 L 304.221000 464.394000 L 308.588000 466.741000 L 312.948000 469.100000 L 317.287000 471.498000 L 321.615000 473.914000 L 325.944000 476.330000 L 330.272000 478.747000 L 334.601000 481.163000 L 338.929000 483.579000 L 343.258000 485.996000 L 347.586000 488.412000 L 351.915000 490.828000 L 356.244000 493.243000 L 360.585000 495.637000 L 364.956000 497.975000 L 369.339000 500.292000 L 373.722000 502.609000 L 378.104000 504.925000 L 382.487000 507.242000 L 386.868000 509.562000 L 391.194000 511.983000 L 395.502000 514.435000 L 399.798000 516.908000 L 404.061000 519.439000" fill="none" id="7" stroke="#ad5ba7" stroke-width="0.5" /><path d="M 382.927000 184.219000 L 385.016000 185.098000 L 387.106000 185.977000 L 389.195000 186.856000 L 391.284000 187.735000 L 393.374000 188.614000 L 395.463000 189.493000 L 397.552000 190.372000 L 399.641000 191.251000 L 401.731000 192.130000 L 403.820000 193.009000 L 405.909000 193.888000 L 407.998000 194.767000 L 410.088000 195.646000 L 412.177000 196.525000 L 414.266000 197.404000 L 416.356000 198.283000 L 418.445000 199.162000 L 420.534000 200.041000 L 422.623000 200.920000 L 424.713000 201.799000 L 426.802000 202.678000 L 428.891000 203.557000 L 430.980000 204.436000 L 433.070000 205.316000 L 435.159000 206.195000 L 437.248000 207.074000 L 439.338000 207.953000 L 441.427000 208.832000 L 443.516000 209.711000 L 445.605000 210.590000" fill="none" id="8" stroke="#58f2c3" stroke-width="0.5" /><path d="M 436.528000 206.944000 L 438.104000 207.666000 L 439.680000 208.387000 L 441.256000 209.109000 L 442.832000 209.831000 L 444.408000 210.552000 L 445.984000 211.274000 L 447.560000 211.996000 L 449.136000 212.717000 L 450.712000 213.439000 L 452.288000 214.160000 L 453.864000 214.882000 L 455.439000 215.604000 L 457.015000 216.325000 L 458.591000 217.047000 L 460.167000 217.769000 L 461.743000 218.490000 L 463.319000 219.212000 L 464.895000 219.934000 L 466.471000 220.655000 L 468.047000 221.377000 L 469.623000 222.098000 L 471.199000 222.820000 L 472.775000 223.542000 L 474.351000 224.263000 L 475.927000 224.985000 L 477.503000 225.707000 L 479.079000 226.428000 L 480.655000 227.150000 L 482.231000 227.872000 L 483.807000 228.593000" fill="none" id="9" stroke="#58f2c3" stroke-width="0.5" /><path d="M 473.614000 224.049000 L 474.964000 224.622000 L 476.314000 225.194000 L 477.664000 225.767000 L 479.015000 226.339000 L 480.365000 226.912000 L 481.715000 227.484000 L 483.066000 228.057000 L 484.416000 228.629000 L 485.766000 229.202000 L 487.117000 229.775000 L 488.467000 230.347000 L 489.817000 230.920000 L 491.167000 231.492000 L 492.518000 232.065000 L 493.868000 232.637000 L 495.218000 233.210000 L 496.569000 233.782000 L 497.919000 234.355000 L 499.269000 234.927000 L 500.620000 235.500000 L 501.970000 236.072000 L 503.320000 236.645000 L 504.671000 237.218000 L 506.021000 237.790000 L 507.371000 238.363000 L 508.721000 238.935000 L 510.072000 239.508000 L 511.422000 240.080000 L 512.772000 240.653000 L 514.123000 241.225000" fill="none" id="10" stroke="#58f2c3" stroke-width="0.5" /><path d="M 501.201000 236.539000 L 505.745000 238.465000 L 510.301000 240.364000 L 514.863000 242.248000 L 519.455000 244.055000 L 524.057000 245.840000 L 528.659000 247.624000 L 533.260000 249.408000 L 537.862000 251.192000 L 542.472000 252.956000 L 547.107000 254.652000 L 551.754000 256.315000 L 556.402000 257.974000 L 561.050000 259.632000 L 565.699000 261.291000 L 570.347000 262.950000 L 574.996000 264.608000 L 579.644000 266.267000 L 584.293000 267.926000 L 588.941000 269.584000 L 593.590000 271.243000 L 598.233000 272.917000 L 602.863000 274.626000 L 607.486000 276.354000 L 612.109000 278.083000 L 616.732000 279.811000 L 621.355000 281.539000 L 625.978000 283.267000 L 630.601000 284.995000 L 635.224000 286.724000 L 639.847000 288.452000 L 644.469000 290.183000 L 649.074000 291.960000 L 653.639000 293.835000 L 658.192000 295.741000 L 662.745000 297.646000 L 667.298000 299.551000 L 671.851000 301.456000 L 676.396000 303.381000 L 680.895000 305.409000 L 685.358000 307.518000 L 689.819000 309.629000 L 694.280000 311.741000 L 698.741000 313.852000 L 703.202000 315.964000 L 707.663000 318.076000 L 712.124000 320.187000" fill="none" id="11" stroke="#58f2c3" stroke-width="0.5" /><path d="M 705.541000 316.455000 L 706.628000 316.614000 L 707.712000 316.783000 L 708.784000 317.021000 L 709.844000 317.301000 L 710.871000 317.688000 L 711.886000 318.106000 L 712.883000 318.566000 L 713.881000 319.024000 L 714.881000 319.478000 L 715.880000 319.933000 L 716.879000 320.388000 L 717.879000 320.843000 L 718.879000 321.297000 L 719.878000 321.751000 L 720.878000 322.206000 L 721.877000 322.660000 L 722.877000 323.115000 L 723.877000 323.569000 L 724.876000 324.023000 L 725.876000 324.478000 L 726.876000 324.932000 L 727.875000 325.386000 L 728.875000 325.841000 L 729.874000 326.295000 L 730.874000 326.750000 L 731.874000 327.204000 L 732.873000 327.658000 L 733.873000 328.113000 L 734.872000 328.567000 L 735.872000 329.022000" fill="none" id="12" stroke="#58f2c3" stroke-width="0.5" /><path d="M 0.250000 361.738000 L 1.436400 361.231000 L 2.622810 360.724000 L 3.809210 360.216000 L 4.995610 359.709000 L 6.182010 359.202000 L 7.368420 358.694000 L 8.554820 358.187000 L 9.741220 357.680000 L 10.927600 357.172000 L 12.114000 356.665000 L 13.300400 356.158000 L 14.486800 355.650000 L 15.673200 355.143000 L 16.859600 354.636000 L 18.046000 354.128000 L 19.232400 353.621000 L 20.418800 353.114000 L 21.605300 352.606000 L 22.791700 352.099000 L 23.978100 351.592000 L 25.164500 351.084000 L 26.350900 350.577000 L 27.537300 350.070000 L 28.723700 349.562000 L 29.910100 349.055000 L 31.096500 348.548000 L 32.282900 348.040000 L 33.469300 347.533000 L 34.655700 347.026000 L 35.842100 346.518000 L 37.028500 346.011000" fill="none" id="13" stroke="#c94e76" stroke-width="0.5" /><path d="M 28.003800 350.060000 L 32.640300 348.302000 L 37.269400 346.524000 L 41.892200 344.731000 L 46.504300 342.910000 L 51.104000 341.058000 L 55.695400 339.185000 L 60.286400 337.311000 L 64.877300 335.438000 L 69.468300 333.564000 L 74.059300 331.691000 L 78.650300 329.817000 L 83.241300 327.943000 L 87.832300 326.070000 L 92.423800 324.197000 L 97.018500 322.333000 L 101.636000 320.526000 L 106.257000 318.728000 L 110.879000 316.931000 L 115.500000 315.134000 L 120.122000 313.337000 L 124.743000 311.540000 L 129.365000 309.743000 L 133.986000 307.946000 L 138.608000 306.149000 L 143.229000 304.352000 L 147.848000 302.548000 L 152.456000 300.716000 L 157.051000 298.852000 L 161.638000 296.970000 L 166.224000 295.084000 L 170.810000 293.198000 L 175.396000 291.312000 L 180.080000 289.694000 L 184.769000 288.082000 L 189.412000 286.345000 L 194.026000 284.528000 L 198.639000 282.710000 L 203.253000 280.892000 L 207.866000 279.075000 L 212.480000 277.257000 L 217.093000 275.440000 L 221.707000 273.622000 L 226.320000 271.804000 L 230.934000 269.987000 L 235.547000 268.169000 L 240.160000 266.352000 L 244.774000 264.534000 L 249.387000 262.717000 L 254.001000 260.899000 L 258.614000 259.081000 L 263.229000 257.266000 L 267.848000 255.464000 L 272.485000 253.707000 L 277.142000 252.005000 L 281.803000 250.311000 L 286.458000 248.603000 L 291.101000 246.864000 L 295.734000 245.095000 L 300.361000 243.312000 L 304.988000 241.530000 L 309.615000 239.747000 L 314.242000 237.964000 L 318.869000 236.182000 L 323.496000 234.399000 L 328.123000 232.617000 L 332.750000 230.834000 L 337.377000 229.052000 L 342.005000 227.269000 L 346.632000 225.487000 L 351.259000 223.704000 L 355.886000 221.922000 L 360.513000 220.139000 L 365.140000 218.356000 L 369.767000 216.574000 L 374.395000 214.793000 L 379.025000 213.019000 L 383.664000 211.268000 L 388.308000 209.528000 L 392.952000 207.792000 L 397.597000 206.055000 L 402.241000 204.318000 L 406.885000 202.580000 L 411.528000 200.840000 L 416.165000 199.081000 L 420.790000 197.295000 L 425.415000 195.505000 L 430.039000 193.716000 L 434.664000 191.927000 L 439.288000 190.136000 L 443.910000 188.341000 L 448.525000 186.527000 L 453.122000 184.670000 L 457.719000 182.809000 L 462.315000 180.948000 L 466.911000 179.087000 L 471.507000 177.227000 L 476.104000 175.366000 L 480.700000 173.505000 L 485.296000 171.645000 L 489.899000 169.801000 L 494.521000 168.006000 L 499.154000 166.238000 L 503.790000 164.478000 L 508.427000 162.721000 L 513.063000 160.963000 L 517.699000 159.203000" fill="none" id="14" stroke="#c94e76" stroke-width="0.5" /><path d="M 259.148000 254.825000 L 258.499000 255.059000 L 257.850000 255.293000 L 257.200000 255.525000 L 256.549000 255.756000 L 255.899000 255.986000 L 255.248000 256.216000 L 254.598000 256.445000 L 253.947000 256.674000 L 253.295000 256.901000 L 252.643000 257.126000 L 251.990000 257.349000 L 251.337000 257.572000 L 250.683000 257.793000 L 250.029000 258.013000 L 249.375000 258.232000 L 248.719000 258.447000 L 248.063000 258.662000 L 247.407000 258.873000 L 246.749000 259.083000 L 246.092000 259.292000 L 245.433000 259.498000 L 244.774000 259.702000 L 244.114000 259.903000 L 243.453000 260.100000 L 242.791000 260.295000 L 242.129000 260.490000 L 241.467000 260.683000 L 240.804000 260.875000 L 239.474000 261.244000" fill="none" id="15" stroke="#57b870" stroke-width="0.5" /><path d="M 239.474000 261.244000 L 244.021000 259.187000 L 248.558000 257.109000 L 253.077000 254.992000 L 257.573000 252.825000 L 262.073000 250.668000 L 266.573000 248.512000 L 271.074000 246.356000 L 275.585000 244.221000 L 280.129000 242.158000 L 284.677000 240.105000 L 289.226000 238.052000 L 293.774000 235.998000 L 298.323000 233.945000 L 302.871000 231.891000 L 307.419000 229.838000 L 311.968000 227.785000 L 316.516000 225.731000 L 321.065000 223.678000 L 325.613000 221.624000 L 330.161000 219.571000 L 334.711000 217.521000 L 339.273000 215.498000 L 343.860000 213.531000 L 348.462000 211.601000 L 353.067000 209.678000 L 357.672000 207.756000 L 362.277000 205.833000 L 366.883000 203.911000 L 371.488000 201.988000 L 376.093000 200.065000 L 380.698000 198.143000 L 385.303000 196.220000 L 389.908000 194.296000 L 394.508000 192.360000 L 399.100000 190.407000 L 403.688000 188.443000 L 408.274000 186.477000 L 412.861000 184.510000 L 417.448000 182.544000 L 422.034000 180.577000 L 426.621000 178.610000 L 431.207000 176.644000 L 435.794000 174.677000 L 440.381000 172.711000 L 444.969000 170.747000 L 449.562000 168.798000 L 454.167000 166.873000 L 458.777000 164.963000 L 463.389000 163.056000 L 468.001000 161.149000 L 472.612000 159.242000 L 477.224000 157.335000 L 481.836000 155.428000 L 486.447000 153.521000 L 491.059000 151.614000 L 495.671000 149.707000 L 500.282000 147.800000 L 504.894000 145.893000 L 509.505000 143.984000 L 514.108000 142.055000 L 518.680000 140.055000 L 523.243000 138.036000 L 527.805000 136.011000 L 532.326000 133.899000 L 536.824000 131.738000 L 541.319000 129.570000 L 545.814000 127.402000 L 550.359000 125.342000 L 554.936000 123.354000 L 559.555000 121.464000 L 564.221000 119.694000 L 568.908000 117.981000 L 573.752000 116.795000 L 578.672000 115.960000 L 583.620000 115.313000" fill="none" id="16" stroke="#57b870" stroke-width="0.5" /><path d="M 7.998030 375.368000 L 11.911700 372.267000 L 16.029000 369.445000 L 20.382500 367.009000 L 24.928700 364.955000 L 29.572000 363.120000 L 34.245200 361.362000 L 38.923300 359.616000 L 43.601700 357.871000 L 48.280000 356.126000 L 52.957600 354.379000 L 57.615000 352.578000 L 62.253100 350.729000 L 66.887900 348.871000 L 71.522300 347.013000 L 76.156700 345.154000 L 80.791200 343.296000 L 85.425600 341.437000 L 90.060000 339.578000 L 94.694400 337.720000 L 99.328800 335.861000 L 103.963000 334.002000 L 108.589000 332.122000 L 113.209000 330.227000 L 117.826000 328.327000 L 122.443000 326.426000 L 127.061000 324.525000 L 131.678000 322.625000 L 136.295000 320.724000 L 140.912000 318.823000 L 145.529000 316.920000 L 150.132000 314.986000 L 154.718000 313.010000 L 159.299000 311.023000 L 163.878000 309.033000 L 168.458000 307.044000 L 173.038000 305.054000 L 177.631000 303.096000 L 182.263000 301.232000 L 186.946000 299.502000 L 191.657000 297.847000 L 196.409000 296.312000 L 201.118000 294.653000 L 205.771000 292.842000 L 210.405000 290.982000 L 215.035000 289.114000 L 219.666000 287.246000 L 224.296000 285.378000 L 228.927000 283.510000 L 233.558000 281.641000 L 238.188000 279.773000 L 242.819000 277.905000 L 247.449000 276.037000 L 252.080000 274.169000 L 256.710000 272.300000 L 261.341000 270.432000 L 265.972000 268.564000 L 270.602000 266.696000 L 275.233000 264.828000 L 279.863000 262.960000 L 284.494000 261.093000 L 289.129000 259.235000 L 293.774000 257.402000 L 298.423000 255.582000 L 303.074000 253.763000 L 307.724000 251.945000 L 312.374000 250.127000 L 317.025000 248.308000 L 321.675000 246.490000 L 326.326000 244.672000 L 330.976000 242.854000 L 335.626000 241.036000 L 340.277000 239.217000 L 344.927000 237.399000 L 349.578000 235.581000 L 354.228000 233.763000 L 358.878000 231.944000 L 363.529000 230.126000 L 368.179000 228.308000 L 372.831000 226.492000 L 377.485000 224.685000 L 382.145000 222.892000 L 386.809000 221.107000 L 391.472000 219.322000 L 396.136000 217.538000 L 400.799000 215.753000 L 405.463000 213.969000 L 410.126000 212.184000 L 414.789000 210.399000 L 419.453000 208.615000 L 424.116000 206.830000 L 428.780000 205.046000 L 433.443000 203.260000 L 438.102000 201.464000 L 442.745000 199.629000 L 447.385000 197.783000 L 452.024000 195.936000 L 456.662000 194.088000 L 461.299000 192.234000 L 465.923000 190.350000 L 470.525000 188.414000 L 475.118000 186.455000 L 479.674000 184.410000 L 484.215000 182.335000 L 488.756000 180.259000 L 493.292000 178.172000 L 497.803000 176.030000 L 502.291000 173.841000 L 506.771000 171.636000 L 511.251000 169.431000 L 515.731000 167.227000 L 520.211000 165.022000 L 524.691000 162.817000" fill="none" id="17" stroke="#d271bb" stroke-width="0.5" /><path d="M 342.045000 594.368000 L 342.824000 593.854000 L 343.603000 593.340000 L 344.374000 592.814000 L 345.145000 592.288000 L 345.913000 591.758000 L 346.681000 591.228000 L 347.449000 590.697000 L 348.217000 590.167000 L 348.978000 589.626000 L 349.739000 589.086000 L 350.498000 588.543000 L 351.257000 588.000000 L 352.016000 587.457000 L 352.775000 586.914000 L 353.530000 586.366000 L 354.286000 585.819000 L 355.042000 585.271000 L 355.798000 584.724000 L 356.554000 584.176000 L 357.310000 583.629000 L 358.065000 583.081000 L 358.820000 582.532000 L 359.575000 581.984000 L 360.331000 581.436000 L 361.086000 580.888000 L 361.841000 580.339000 L 362.596000 579.791000 L 363.352000 579.243000 L 364.107000 578.695000 L 364.862000 578.147000" fill="none" id="18" stroke="#3d8e43" stroke-width="0.5" /><path d="M 356.521000 584.888000 L 357.452000 584.257000 L 358.382000 583.625000 L 359.306000 582.984000 L 360.226000 582.338000 L 361.142000 581.685000 L 362.048000 581.020000 L 362.955000 580.354000 L 363.856000 579.681000 L 364.757000 579.009000 L 365.654000 578.330000 L 366.548000 577.648000 L 367.442000 576.966000 L 368.335000 576.283000 L 369.228000 575.599000 L 370.118000 574.912000 L 371.008000 574.225000 L 371.899000 573.538000 L 372.790000 572.852000 L 373.681000 572.166000 L 374.572000 571.480000 L 375.462000 570.793000 L 376.353000 570.107000 L 377.244000 569.421000 L 378.135000 568.735000 L 379.026000 568.048000 L 379.915000 567.359000 L 380.799000 566.664000 L 381.683000 565.969000 L 383.293000 565.631000" fill="none" id="19" stroke="#3d8e43" stroke-width="0.5" /><path d="M 324.846000 577.712000 L 325.802000 576.987000 L 326.758000 576.261000 L 327.714000 575.536000 L 328.670000 574.811000 L 329.627000 574.086000 L 330.583000 573.360000 L 331.539000 572.635000 L 332.495000 571.910000 L 333.451000 571.185000 L 334.407000 570.459000 L 335.363000 569.734000 L 336.319000 569.009000 L 337.275000 568.283000 L 338.231000 567.558000 L 339.187000 566.833000 L 340.143000 566.108000 L 341.099000 565.382000 L 342.055000 564.657000 L 343.011000 563.932000 L 343.967000 563.207000 L 344.923000 562.481000 L 345.879000 561.756000 L 346.835000 561.031000 L 347.791000 560.305000 L 348.747000 559.580000 L 349.703000 558.855000 L 350.659000 558.130000 L 351.615000 557.404000 L 352.571000 556.679000 L 353.527000 555.954000" fill="none" id="20" stroke="#00d4db" stroke-width="0.5" /><path d="M 348.362000 560.405000 L 349.191000 559.860000 L 350.020000 559.314000 L 350.844000 558.760000 L 351.668000 558.207000 L 352.491000 557.651000 L 353.313000 557.094000 L 354.133000 556.536000 L 354.953000 555.976000 L 355.768000 555.410000 L 356.584000 554.843000 L 357.398000 554.275000 L 358.212000 553.707000 L 359.025000 553.138000 L 359.838000 552.568000 L 360.650000 551.997000 L 361.462000 551.426000 L 362.273000 550.854000 L 363.085000 550.283000 L 363.896000 549.711000 L 364.708000 549.140000 L 365.520000 548.569000 L 366.332000 547.998000 L 367.144000 547.427000 L 367.956000 546.856000 L 368.769000 546.286000 L 369.581000 545.716000 L 370.394000 545.145000 L 371.206000 544.575000 L 372.019000 544.005000 L 373.646000 542.867000" fill="none" id="21" stroke="#00d4db" stroke-width="0.5" /><path d="M 364.188000 550.126000 L 368.333000 547.380000 L 372.451000 544.592000 L 376.532000 541.751000 L 380.552000 538.824000 L 384.557000 535.876000 L 388.560000 532.925000 L 392.563000 529.975000 L 396.565000 527.024000 L 400.568000 524.073000 L 404.581000 521.136000 L 408.611000 518.224000 L 412.712000 515.410000 L 416.821000 512.610000 L 420.936000 509.817000 L 425.051000 507.025000 L 429.166000 504.233000 L 433.344000 501.538000 L 437.548000 498.883000 L 441.685000 496.124000 L 445.742000 493.249000 L 449.778000 490.343000 L 453.805000 487.426000 L 457.833000 484.510000 L 461.866000 481.601000 L 465.943000 478.755000 L 470.089000 476.009000 L 474.279000 473.331000 L 478.473000 470.658000 L 482.668000 467.988000 L 486.863000 465.319000 L 491.059000 462.649000 L 495.241000 459.959000 L 499.399000 457.232000 L 503.493000 454.409000 L 507.562000 451.550000 L 511.640000 448.705000 L 515.744000 445.897000 L 519.940000 443.229000 L 524.167000 440.609000 L 528.432000 438.053000 L 532.748000 435.582000 L 536.978000 432.969000 L 541.150000 430.263000 L 545.280000 427.493000 L 549.399000 424.707000 L 553.517000 421.921000 L 557.636000 419.134000 L 561.755000 416.348000 L 565.874000 413.562000 L 569.993000 410.776000 L 574.112000 407.989000 L 578.231000 405.203000 L 582.353000 402.421000 L 586.504000 399.684000 L 590.688000 396.997000 L 594.913000 394.374000 L 599.155000 391.778000 L 603.436000 389.248000 L 607.735000 386.751000 L 611.985000 384.169000 L 616.128000 381.420000 L 620.247000 378.634000 L 624.366000 375.847000 L 628.485000 373.061000 L 632.604000 370.275000 L 636.728000 367.496000 L 640.860000 364.730000 L 645.021000 362.006000 L 649.190000 359.296000 L 653.380000 356.617000 L 657.611000 354.005000 L 661.865000 351.429000 L 666.081000 348.793000 L 670.257000 346.093000 L 674.433000 343.393000 L 678.609000 340.693000 L 682.785000 337.993000 L 686.961000 335.293000 L 691.137000 332.593000 L 695.313000 329.893000 L 699.489000 327.194000 L 703.665000 324.494000 L 707.841000 321.794000 L 712.017000 319.094000 L 716.193000 316.394000 L 720.369000 313.694000 L 724.545000 310.994000 L 728.725000 308.301000 L 732.913000 305.619000 L 737.130000 302.984000 L 741.365000 300.377000 L 745.606000 297.780000 L 749.847000 295.183000 L 754.087000 292.586000 L 758.328000 289.989000 L 762.569000 287.392000 L 766.810000 284.795000 L 771.051000 282.199000 L 775.292000 279.602000 L 779.533000 277.005000 L 783.774000 274.408000 L 788.015000 271.811000 L 792.255000 269.214000 L 796.497000 266.618000 L 800.741000 264.027000 L 805.007000 261.472000 L 809.296000 258.955000 L 813.612000 256.485000 L 817.929000 254.017000 L 822.246000 251.549000 L 826.563000 249.081000 L 830.880000 246.613000 L 835.197000 244.145000 L 839.515000 241.677000 L 843.832000 239.209000 L 848.149000 236.741000 L 852.466000 234.273000 L 856.783000 231.805000 L 861.100000 229.337000" fill="none" id="22" stroke="#00d4db" stroke-width="0.5" /><path d="M 421.415000 384.841000 L 419.869000 380.113000 L 418.909000 375.242000 L 418.612000 370.272000 L 418.330000 365.301000 L 418.122000 360.326000 L 417.982000 355.349000 L 417.863000 350.371000 L 417.744000 345.393000 L 417.625000 340.415000 L 417.506000 335.437000 L 417.387000 330.460000 L 417.268000 325.482000 L 417.149000 320.504000 L 417.030000 315.526000 L 416.910000 310.548000 L 416.791000 305.571000 L 416.672000 300.593000 L 416.553000 295.615000 L 416.434000 290.637000 L 416.315000 285.659000 L 416.196000 280.682000 L 416.077000 275.704000 L 415.958000 270.726000 L 415.839000 265.748000 L 415.709000 260.771000 L 415.559000 255.794000 L 415.399000 250.817000 L 415.238000 245.840000 L 415.078000 240.864000 L 414.917000 235.887000 L 414.756000 230.911000 L 414.595000 225.934000 L 414.434000 220.957000 L 414.273000 215.981000 L 414.112000 211.004000 L 413.951000 206.027000 L 413.790000 201.051000 L 413.629000 196.074000 L 413.469000 191.098000 L 413.308000 186.121000 L 413.147000 181.144000 L 412.986000 176.168000 L 412.825000 171.191000 L 412.664000 166.214000 L 412.514000 161.237000 L 412.419000 156.259000 L 412.390000 151.280000 L 412.378000 146.301000 L 412.365000 141.322000 L 412.353000 136.343000 L 412.340000 131.363000 L 412.328000 126.384000 L 412.315000 121.405000 L 412.303000 116.426000 L 412.285000 111.447000 L 412.238000 106.468000 L 412.149000 101.489000 L 412.047000 96.511000 L 411.945000 91.532800 L 411.822000 86.555100 L 411.565000 81.582600 L 411.226000 76.615100 L 410.882000 71.647700 L 410.425000 66.689600 L 409.812000 61.748400 L 409.004000 56.835200 L 407.998000 51.958700" fill="none" id="23" stroke="#d55969" stroke-width="0.5" /><path d="M 415.463000 159.061000 L 415.603000 163.944000 L 415.735000 168.827000 L 415.885000 173.710000 L 415.896000 178.596000 L 415.907000 183.482000 L 415.917000 188.368000 L 415.909000 193.253000 L 415.838000 198.139000 L 415.694000 203.022000 L 415.532000 207.906000 L 415.370000 212.789000 L 415.208000 217.672000 L 415.046000 222.555000 L 414.884000 227.438000 L 414.723000 232.321000 L 414.581000 237.205000 L 414.475000 242.090000 L 414.389000 246.975000 L 414.307000 251.860000 L 414.234000 256.746000 L 414.195000 261.631000 L 414.193000 266.517000 L 414.206000 271.403000 L 414.220000 276.289000 L 414.235000 281.175000 L 414.250000 286.061000 L 414.264000 290.946000 L 414.279000 295.832000 L 414.294000 300.718000 L 414.308000 305.604000 L 414.323000 310.490000 L 414.338000 315.376000 L 414.352000 320.262000 L 414.367000 325.147000 L 414.381000 330.033000 L 414.396000 334.919000 L 414.411000 339.805000 L 414.425000 344.691000 L 414.440000 349.577000 L 414.455000 354.463000" fill="none" id="24" stroke="#64e4ff" stroke-width="0.5" /><path d="M 134.297000 0.250000 L 138.900000 2.177480 L 143.520000 4.062680 L 148.156000 5.907490 L 152.802000 7.727830 L 157.438000 9.575180 L 162.136000 11.253900 L 166.857000 12.871800 L 171.586000 14.463200 L 176.316000 16.052500 L 181.046000 17.641900 L 185.776000 19.231200 L 190.506000 20.820600 L 195.236000 22.410000 L 199.966000 23.999300 L 204.696000 25.588700 L 209.426000 27.178100 L 214.166000 28.738000 L 218.921000 30.250200 L 223.684000 31.738800 L 228.448000 33.225200 L 233.211000 34.711200 L 237.975000 36.197200 L 242.738000 37.683200 L 247.502000 39.169300 L 252.265000 40.655300 L 257.029000 42.141300 L 261.792000 43.627300 L 266.556000 45.113300 L 271.319000 46.599300 L 276.083000 48.085400 L 280.846000 49.571400 L 285.610000 51.057400 L 290.373000 52.543400 L 295.137000 54.029400 L 299.901000 55.515400 L 304.664000 57.001400 L 309.428000 58.487500 L 314.191000 59.973500 L 318.955000 61.459500 L 323.715000 62.957100 L 328.468000 64.476200 L 333.211000 66.025500 L 337.951000 67.583500 L 342.691000 69.143100 L 347.431000 70.702700 L 352.171000 72.262900 L 356.900000 73.856400 L 361.614000 75.490900 L 366.321000 77.149600 L 371.023000 78.819600 L 375.725000 80.489600 L 380.427000 82.159600 L 385.129000 83.829600 L 389.831000 85.499600 L 394.534000 87.169700 L 399.236000 88.839700 L 403.952000 90.468600 L 408.673000 92.086500 L 413.388000 93.718400 L 418.088000 95.395700 L 422.779000 97.096400 L 427.470000 98.797900 L 432.161000 100.499000 L 436.852000 102.201000 L 441.543000 103.902000 L 446.233000 105.604000 L 450.924000 107.305000 L 455.619000 108.997000 L 460.322000 110.664000 L 465.046000 112.271000 L 469.773000 113.871000 L 474.467000 115.558000 L 479.115000 117.374000 L 483.717000 119.302000 L 488.358000 121.136000 L 493.004000 122.956000 L 497.651000 124.774000 L 502.298000 126.591000 L 506.946000 128.408000 L 511.593000 130.226000 L 516.240000 132.043000 L 520.887000 133.860000 L 525.535000 135.678000 L 530.175000 137.512000 L 534.800000 139.386000 L 539.410000 141.296000 L 544.009000 143.231000 L 548.613000 145.156000 L 553.240000 147.023000 L 557.893000 148.827000 L 562.560000 150.593000 L 567.227000 152.359000 L 571.894000 154.125000 L 576.561000 155.890000 L 581.211000 157.699000 L 585.825000 159.597000 L 590.369000 161.659000 L 594.974000 163.581000 L 599.602000 165.445000 L 604.241000 167.285000 L 608.879000 169.124000 L 613.518000 170.963000 L 618.157000 172.802000 L 622.794000 174.643000 L 627.429000 176.492000 L 632.058000 178.357000 L 636.681000 180.234000 L 641.304000 182.112000 L 645.927000 183.989000 L 650.551000 185.867000 L 655.174000 187.744000 L 659.797000 189.622000 L 664.420000 191.500000 L 669.044000 193.377000 L 673.667000 195.255000 L 678.290000 197.132000 L 682.913000 199.010000 L 687.536000 200.888000 L 692.160000 202.765000 L 696.783000 204.643000 L 701.406000 206.520000 L 706.029000 208.398000 L 710.652000 210.276000 L 715.276000 212.153000 L 719.899000 214.031000 L 724.522000 215.909000 L 729.145000 217.786000 L 733.769000 219.664000 L 738.392000 221.541000" fill="none" id="25" stroke="#e68e54" stroke-width="0.5" /><path d="M 243.056000 235.077000 L 247.327000 237.623000 L 251.619000 240.135000 L 255.947000 242.582000 L 260.317000 244.955000 L 264.749000 247.209000 L 269.203000 249.420000 L 273.663000 251.620000 L 278.144000 253.775000 L 282.645000 255.889000 L 287.152000 257.988000 L 291.661000 260.086000 L 296.169000 262.183000 L 300.678000 264.281000 L 305.186000 266.379000 L 309.694000 268.476000 L 314.203000 270.574000 L 318.712000 272.670000 L 323.228000 274.750000 L 327.763000 276.791000 L 332.313000 278.797000 L 336.859000 280.812000 L 341.364000 282.916000 L 345.804000 285.153000 L 350.204000 287.470000 L 354.604000 289.785000 L 359.034000 292.045000 L 363.504000 294.222000 L 367.992000 296.364000 L 372.481000 298.503000 L 376.978000 300.623000 L 381.493000 302.708000 L 386.010000 304.786000 L 390.527000 306.865000 L 395.045000 308.943000 L 399.562000 311.021000 L 404.080000 313.099000 L 408.597000 315.177000 L 413.115000 317.255000 L 417.632000 319.334000 L 422.150000 321.412000 L 426.667000 323.490000 L 431.175000 325.588000 L 435.652000 327.752000 L 440.109000 329.956000 L 444.563000 332.167000 L 449.017000 334.378000 L 453.471000 336.589000 L 457.925000 338.800000 L 462.379000 341.012000 L 466.833000 343.222000 L 471.297000 345.412000 L 475.774000 347.576000 L 480.255000 349.733000 L 484.736000 351.888000 L 489.217000 354.043000 L 493.698000 356.199000 L 498.179000 358.354000 L 502.644000 360.541000 L 507.063000 362.822000 L 511.483000 365.100000 L 515.953000 367.277000 L 520.450000 369.400000 L 524.946000 371.524000 L 529.442000 373.648000 L 533.938000 375.771000 L 538.435000 377.895000 L 542.931000 380.019000 L 547.427000 382.142000 L 551.923000 384.266000 L 556.420000 386.389000 L 560.930000 388.484000 L 565.465000 390.523000 L 570.005000 392.551000 L 574.545000 394.579000 L 579.086000 396.606000 L 583.626000 398.634000 L 588.170000 400.654000 L 592.730000 402.636000 L 597.306000 404.582000 L 601.886000 406.517000 L 606.467000 408.453000 L 611.047000 410.388000 L 615.628000 412.323000 L 620.208000 414.258000 L 624.789000 416.194000 L 629.369000 418.129000 L 633.950000 420.064000 L 638.530000 421.999000 L 643.111000 423.935000 L 647.691000 425.870000 L 652.269000 427.812000 L 656.824000 429.805000 L 661.333000 431.902000 L 665.819000 434.046000 L 670.303000 436.196000 L 674.787000 438.346000 L 679.272000 440.492000 L 683.777000 442.598000 L 688.308000 444.647000 L 692.903000 446.547000 L 697.072000 449.249000 L 700.974000 452.329000" fill="none" id="26" stroke="#54aeff" stroke-width="0.5" /><path d="M 580.565000 119.896000 L 580.892000 124.858000 L 581.135000 129.826000 L 581.297000 134.796000 L 581.427000 139.768000 L 581.522000 144.740000 L 581.616000 149.713000 L 581.710000 154.685000 L 581.783000 159.658000 L 581.793000 164.631000 L 581.793000 169.605000 L 581.793000 174.578000 L 581.793000 179.552000 L 581.793000 184.525000 L 581.792000 189.498000 L 581.781000 194.472000 L 581.742000 199.445000 L 581.690000 204.418000 L 581.637000 209.391000 L 581.583000 214.364000 L 581.530000 219.337000 L 581.476000 224.310000 L 581.423000 229.283000 L 581.369000 234.256000 L 581.316000 239.229000 L 581.262000 244.202000 L 581.209000 249.175000 L 581.162000 254.149000 L 581.138000 259.122000 L 581.132000 264.095000 L 581.132000 269.068000 L 581.132000 274.042000 L 581.132000 279.015000 L 581.132000 283.989000 L 581.132000 288.962000 L 581.132000 293.935000 L 581.152000 298.908000 L 581.224000 303.881000 L 581.333000 308.853000 L 581.451000 313.825000 L 581.568000 318.797000 L 581.686000 323.769000 L 581.811000 328.741000 L 581.967000 333.712000 L 582.162000 338.681000 L 582.374000 343.650000 L 582.587000 348.619000 L 582.799000 353.588000 L 583.012000 358.557000 L 583.225000 363.525000 L 583.438000 368.494000 L 583.651000 373.463000 L 583.865000 378.432000 L 584.096000 383.400000 L 584.359000 388.366000 L 584.634000 393.332000 L 584.911000 398.297000 L 585.188000 403.263000 L 585.465000 408.229000 L 585.744000 413.194000 L 586.035000 418.159000 L 586.346000 423.123000 L 586.665000 428.086000 L 586.985000 433.049000 L 587.306000 438.012000 L 587.626000 442.975000 L 587.946000 447.938000 L 588.267000 452.901000 L 588.587000 457.864000 L 588.908000 462.827000 L 589.238000 467.789000 L 589.607000 472.749000 L 589.981000 477.708000 L 590.354000 482.667000 L 590.728000 487.627000 L 591.102000 492.586000 L 591.475000 497.545000 L 591.849000 502.505000 L 592.223000 507.464000 L 592.596000 512.423000" fill="none" id="27" stroke="#eed973" stroke-width="0.5" /><path d="M 281.289000 32.659500 L 281.383000 37.612400 L 281.551000 42.563400 L 281.873000 47.506800 L 282.295000 52.442500 L 282.695000 57.380200 L 283.048000 62.321400 L 283.308000 67.268400 L 283.543000 72.216700 L 283.775000 77.165100 L 284.008000 82.113400 L 284.241000 87.061800 L 284.449000 92.011200 L 284.539000 96.964300 L 284.606000 101.918000 L 284.673000 106.871000 L 284.740000 111.824000 L 284.808000 116.778000 L 284.875000 121.731000 L 284.942000 126.684000 L 285.010000 131.638000 L 285.077000 136.591000 L 285.144000 141.545000 L 285.212000 146.498000 L 285.279000 151.451000 L 285.346000 156.405000 L 285.414000 161.358000 L 285.481000 166.311000 L 285.548000 171.265000 L 285.615000 176.218000 L 285.683000 181.172000 L 285.750000 186.125000 L 285.817000 191.078000 L 285.885000 196.032000 L 285.952000 200.985000 L 286.019000 205.938000 L 286.089000 210.892000 L 286.185000 215.845000 L 286.318000 220.797000 L 286.466000 225.748000 L 286.614000 230.700000 L 286.762000 235.652000 L 286.909000 240.603000 L 287.057000 245.555000 L 287.205000 250.507000 L 287.352000 255.458000 L 287.500000 260.410000 L 287.663000 265.361000 L 287.872000 270.310000 L 288.119000 275.258000 L 288.366000 280.206000 L 288.613000 285.153000 L 288.860000 290.101000 L 289.107000 295.049000 L 289.368000 299.996000 L 289.667000 304.940000 L 289.989000 309.884000 L 290.310000 314.827000 L 290.631000 319.771000 L 290.952000 324.714000 L 291.275000 329.657000 L 291.613000 334.600000 L 291.989000 339.539000 L 292.381000 344.477000 L 292.773000 349.416000 L 293.165000 354.354000 L 293.557000 359.292000 L 293.949000 364.231000 L 294.341000 369.169000 L 294.733000 374.107000 L 295.126000 379.045000 L 295.518000 383.984000 L 295.910000 388.922000 L 296.302000 393.860000 L 296.694000 398.799000 L 297.086000 403.737000 L 297.478000 408.675000" fill="none" id="28" stroke="#008bd4" stroke-width="0.5" /><path d="M 362.486000 343.100000 L 361.959000 347.993000 L 361.572000 352.898000 L 361.359000 357.815000 L 361.353000 362.735000 L 361.361000 367.656000 L 361.370000 372.577000 L 361.378000 377.497000 L 361.386000 382.418000 L 361.395000 387.339000 L 361.403000 392.260000 L 361.411000 397.181000 L 361.420000 402.101000 L 361.428000 407.022000 L 361.436000 411.943000 L 361.445000 416.864000 L 361.453000 421.785000 L 361.461000 426.706000 L 361.469000 431.626000 L 361.456000 436.547000 L 361.402000 441.468000 L 361.323000 446.388000 L 361.244000 451.308000 L 361.165000 456.228000 L 361.071000 461.148000 L 360.938000 466.067000 L 360.775000 470.985000 L 360.610000 475.903000 L 360.445000 480.821000 L 360.295000 485.740000 L 360.203000 490.660000 L 360.124000 495.580000 L 360.133000 500.500000 L 360.249000 505.418000 L 360.790000 510.308000 L 361.750000 515.134000 L 363.022000 519.888000" fill="none" id="29" stroke="#fdb968" stroke-width="0.5" /><path d="M 314.455000 530.825000 L 318.708000 528.250000 L 322.904000 525.582000 L 327.012000 522.783000 L 331.031000 519.856000 L 335.049000 516.926000 L 339.066000 513.997000 L 343.128000 511.130000 L 347.221000 508.307000 L 351.320000 505.493000 L 355.419000 502.680000 L 359.519000 499.866000 L 363.618000 497.052000 L 367.717000 494.239000 L 371.788000 491.384000 L 375.827000 488.485000 L 379.855000 485.571000 L 383.882000 482.655000 L 387.909000 479.738000 L 391.936000 476.822000 L 395.963000 473.906000 L 399.986000 470.985000 L 403.990000 468.037000 L 407.978000 465.067000 L 411.960000 462.090000 L 415.942000 459.113000 L 419.925000 456.137000 L 424.020000 453.324000 L 428.262000 450.732000 L 432.495000 448.125000 L 436.658000 445.408000 L 440.778000 442.624000 L 444.862000 439.788000 L 448.927000 436.926000 L 452.990000 434.060000 L 457.053000 431.194000 L 461.116000 428.328000 L 465.178000 425.462000 L 469.241000 422.596000 L 473.304000 419.730000 L 477.394000 416.905000 L 481.610000 414.271000 L 485.924000 411.801000 L 490.145000 409.174000 L 494.281000 406.415000 L 498.418000 403.657000 L 502.554000 400.898000 L 506.691000 398.139000 L 510.827000 395.381000 L 514.964000 392.622000 L 519.100000 389.864000 L 523.238000 387.107000 L 527.390000 384.372000 L 531.567000 381.675000 L 535.755000 378.995000 L 539.943000 376.315000 L 544.131000 373.636000 L 548.320000 370.957000 L 552.506000 368.275000 L 556.678000 365.570000 L 560.823000 362.825000 L 564.953000 360.057000 L 569.081000 357.285000 L 573.209000 354.513000 L 577.336000 351.741000 L 581.507000 349.035000 L 585.836000 346.596000 L 590.249000 344.305000 L 594.509000 341.751000 L 598.698000 339.072000 L 602.886000 336.393000 L 607.075000 333.715000 L 611.264000 331.036000 L 615.452000 328.357000 L 619.641000 325.678000 L 623.835000 323.007000 L 628.048000 320.367000 L 632.283000 317.764000 L 636.527000 315.173000 L 640.771000 312.583000 L 645.015000 309.993000 L 649.259000 307.403000 L 653.503000 304.812000 L 657.747000 302.222000 L 661.991000 299.632000 L 666.235000 297.042000 L 670.479000 294.451000 L 674.723000 291.861000 L 678.967000 289.271000 L 683.215000 286.687000 L 687.472000 284.120000 L 691.739000 281.567000 L 696.006000 279.016000 L 700.274000 276.465000 L 704.542000 273.914000 L 708.813000 271.370000 L 713.103000 268.856000 L 717.421000 266.391000 L 721.745000 263.938000 L 726.069000 261.482000 L 730.385000 259.014000 L 734.748000 256.631000 L 739.184000 254.384000 L 743.652000 252.203000" fill="none" id="30" stroke="#6f73bc" stroke-width="0.5" /><path d="M 309.478000 408.203000 L 313.761000 405.654000 L 318.048000 403.112000 L 322.343000 400.584000 L 326.655000 398.083000 L 330.963000 395.578000 L 335.271000 393.072000 L 339.579000 390.566000 L 343.887000 388.060000 L 348.194000 385.552000 L 352.491000 383.027000 L 356.768000 380.469000 L 361.040000 377.902000 L 365.312000 375.334000 L 369.583000 372.766000 L 373.854000 370.198000 L 378.124000 367.626000 L 382.384000 365.040000 L 386.640000 362.446000 L 390.895000 359.851000 L 395.149000 357.255000 L 399.397000 354.648000 L 403.620000 352.001000 L 407.816000 349.312000 L 412.006000 346.613000 L 416.195000 343.913000 L 420.385000 341.214000 L 424.686000 338.716000 L 429.157000 336.516000 L 433.498000 334.074000 L 437.733000 331.446000 L 441.968000 328.819000 L 446.241000 326.255000 L 450.622000 323.882000 L 455.052000 321.600000 L 459.414000 319.190000 L 463.728000 316.695000 L 468.042000 314.198000 L 472.355000 311.702000 L 476.669000 309.205000 L 480.982000 306.708000 L 485.296000 304.212000 L 489.609000 301.715000 L 493.923000 299.219000 L 498.236000 296.722000 L 502.550000 294.225000 L 506.864000 291.729000 L 511.177000 289.232000 L 515.491000 286.736000 L 519.804000 284.239000 L 524.118000 281.742000 L 528.431000 279.246000 L 532.745000 276.749000 L 537.058000 274.253000 L 541.372000 271.756000 L 545.698000 269.282000 L 550.071000 266.892000 L 554.477000 264.561000 L 558.888000 262.242000 L 563.301000 259.926000 L 567.728000 257.635000 L 572.180000 255.396000 L 576.638000 253.168000 L 581.096000 250.940000 L 585.554000 248.712000 L 590.013000 246.484000 L 594.471000 244.256000 L 598.929000 242.027000 L 603.381000 239.787000 L 607.799000 237.481000 L 612.196000 235.134000 L 616.591000 232.784000 L 620.986000 230.434000 L 625.381000 228.084000 L 629.776000 225.734000 L 634.171000 223.384000" fill="none" id="31" stroke="#bee481" stroke-width="0.5" /><path d="M 366.581000 55.714600 L 371.484000 55.154900 L 376.365000 55.778900 L 381.090000 57.259400 L 385.808000 58.756500 L 390.471000 60.422200 L 395.117000 62.134000 L 399.732000 63.928300 L 404.312000 65.809700 L 408.892000 67.691100 L 413.472000 69.572500 L 418.052000 71.453800 L 422.632000 73.335200 L 427.213000 75.216600 L 431.793000 77.098000 L 436.373000 78.979400 L 440.953000 80.860800 L 445.533000 82.742200 L 450.113000 84.623600 L 454.693000 86.504900 L 459.273000 88.386300 L 463.853000 90.267700 L 468.434000 92.149100 L 473.014000 94.030500 L 477.594000 95.911900 L 482.174000 97.793300 L 486.757000 99.668300 L 491.355000 101.503000 L 495.970000 103.298000 L 500.587000 105.087000 L 505.204000 106.876000 L 509.821000 108.665000 L 514.438000 110.454000 L 519.055000 112.243000 L 523.672000 114.033000 L 528.289000 115.822000 L 532.906000 117.611000 L 537.523000 119.400000 L 542.140000 121.189000 L 546.757000 122.978000 L 551.373000 124.767000 L 555.990000 126.556000 L 560.607000 128.345000 L 565.216000 130.155000 L 569.787000 132.058000 L 574.305000 134.084000 L 578.784000 136.193000 L 583.197000 138.438000 L 587.603000 140.697000 L 592.096000 142.775000 L 596.618000 144.792000 L 601.140000 146.810000 L 605.661000 148.827000 L 610.186000 150.838000 L 614.728000 152.810000 L 619.295000 154.723000 L 623.871000 156.615000 L 628.463000 158.465000 L 633.085000 160.243000 L 637.717000 161.992000 L 642.350000 163.738000 L 646.984000 165.484000 L 651.617000 167.230000 L 656.250000 168.976000 L 660.884000 170.722000 L 665.517000 172.468000 L 670.151000 174.214000 L 674.784000 175.960000 L 679.417000 177.707000 L 684.051000 179.453000 L 688.684000 181.199000 L 693.317000 182.945000 L 697.951000 184.691000" fill="none" id="32" stroke="#8f6aaf" stroke-width="0.5" /><path d="M 628.251000 140.199000 L 628.262000 145.155000 L 628.273000 150.112000 L 628.284000 155.068000 L 628.296000 160.025000 L 628.307000 164.982000 L 628.318000 169.938000 L 628.330000 174.895000 L 628.341000 179.851000 L 628.352000 184.808000 L 628.363000 189.764000 L 628.375000 194.721000 L 628.386000 199.678000 L 628.397000 204.634000 L 628.408000 209.591000 L 628.420000 214.547000 L 628.431000 219.504000 L 628.442000 224.461000 L 628.454000 229.417000 L 628.465000 234.374000 L 628.476000 239.330000 L 628.491000 244.287000 L 628.535000 249.243000 L 628.650000 254.198000 L 628.821000 259.152000 L 629.008000 264.105000 L 629.195000 269.058000 L 629.388000 274.011000 L 629.621000 278.962000 L 629.925000 283.909000 L 630.271000 288.854000 L 630.625000 293.798000 L 630.978000 298.742000 L 631.332000 303.686000 L 631.685000 308.630000 L 632.041000 313.573000 L 632.411000 318.516000 L 632.813000 323.456000 L 633.236000 328.395000 L 633.663000 333.333000 L 634.090000 338.271000 L 634.516000 343.209000 L 634.943000 348.148000 L 635.370000 353.086000 L 635.797000 358.024000 L 636.224000 362.962000 L 636.650000 367.900000 L 637.077000 372.839000 L 637.504000 377.777000 L 637.918000 382.716000 L 638.236000 387.662000 L 638.479000 392.613000 L 638.714000 397.564000 L 638.948000 402.515000 L 639.183000 407.466000 L 639.417000 412.417000 L 639.652000 417.368000" fill="none" id="33" stroke="#8bb658" stroke-width="0.5" /><path d="M 317.195000 227.518000 L 319.038000 228.156000 L 320.880000 228.794000 L 322.707000 229.477000 L 324.534000 230.162000 L 326.326000 230.930000 L 328.117000 231.701000 L 329.862000 232.573000 L 331.607000 233.444000 L 333.360000 234.297000 L 335.114000 235.151000 L 336.868000 236.004000 L 338.622000 236.856000 L 340.376000 237.709000 L 342.130000 238.562000 L 343.884000 239.414000 L 345.638000 240.267000 L 347.392000 241.120000 L 349.146000 241.973000 L 350.900000 242.825000 L 352.654000 243.678000 L 354.408000 244.531000 L 356.161000 245.383000 L 357.915000 246.236000 L 359.669000 247.089000 L 361.423000 247.942000 L 363.177000 248.794000 L 364.931000 249.647000 L 366.685000 250.500000 L 368.439000 251.352000 L 370.193000 252.205000" fill="none" id="34" stroke="#bbabff" stroke-width="0.5" /><path d="M 360.905000 247.964000 L 365.449000 249.996000 L 369.992000 252.029000 L 374.534000 254.064000 L 379.073000 256.106000 L 383.613000 258.146000 L 388.153000 260.186000 L 392.693000 262.226000 L 397.233000 264.266000 L 401.773000 266.306000 L 406.312000 268.346000 L 410.852000 270.386000 L 415.389000 272.432000 L 419.910000 274.513000 L 424.410000 276.640000 L 428.907000 278.774000 L 433.403000 280.907000 L 437.900000 283.041000 L 442.396000 285.175000 L 446.893000 287.309000 L 451.389000 289.443000 L 455.886000 291.577000 L 460.382000 293.711000 L 464.879000 295.845000 L 469.375000 297.979000 L 473.882000 300.091000 L 478.432000 302.106000 L 483.033000 304.005000 L 487.652000 305.858000 L 492.273000 307.707000 L 496.895000 309.555000 L 501.516000 311.404000 L 506.137000 313.252000 L 510.758000 315.101000 L 515.379000 316.949000 L 519.993000 318.816000 L 524.584000 320.738000 L 529.155000 322.708000 L 533.719000 324.693000 L 538.283000 326.679000 L 542.824000 328.715000 L 547.351000 330.784000 L 551.912000 332.773000 L 556.501000 334.701000 L 561.090000 336.629000 L 565.678000 338.557000 L 570.267000 340.485000 L 574.856000 342.412000 L 579.444000 344.340000 L 584.033000 346.268000 L 588.622000 348.196000 L 593.210000 350.123000 L 597.799000 352.051000 L 602.388000 353.979000 L 606.980000 355.897000 L 611.594000 357.765000 L 616.237000 359.555000 L 620.896000 361.308000 L 625.556000 363.056000 L 630.216000 364.803000 L 634.876000 366.551000 L 639.537000 368.298000 L 644.197000 370.046000 L 648.855000 371.799000 L 653.506000 373.573000 L 658.149000 375.366000 L 662.790000 377.163000 L 667.431000 378.960000 L 672.072000 380.758000 L 676.714000 382.555000 L 681.356000 384.349000 L 686.011000 386.111000 L 690.690000 387.808000 L 695.378000 389.481000 L 700.066000 391.152000 L 704.754000 392.822000 L 709.443000 394.493000 L 714.131000 396.164000 L 718.819000 397.835000 L 723.508000 399.505000 L 728.196000 401.176000 L 732.884000 402.847000 L 737.573000 404.518000" fill="none" id="35" stroke="#bbabff" stroke-width="0.5" /><path d="M 358.833000 286.596000 L 358.550000 283.947000 L 358.287000 281.295000 L 358.090000 278.637000 L 357.948000 275.976000 L 357.865000 273.313000 L 357.864000 270.648000 L 357.896000 267.983000 L 357.937000 265.319000 L 357.979000 262.654000 L 358.022000 259.989000 L 358.064000 257.325000 L 358.107000 254.660000 L 358.149000 251.995000 L 358.192000 249.331000 L 358.234000 246.666000 L 358.277000 244.001000 L 358.319000 241.337000 L 358.354000 238.672000 L 358.377000 236.007000 L 358.377000 233.342000 L 358.360000 230.677000 L 358.324000 228.012000 L 358.286000 225.348000 L 358.247000 222.683000 L 358.208000 220.018000 L 358.169000 217.353000 L 358.130000 214.689000 L 358.092000 212.024000 L 358.053000 209.359000 L 358.014000 206.694000" fill="none" id="36" stroke="#658424" stroke-width="0.5" /><path d="M 358.582000 215.404000 L 358.584000 213.550000 L 358.587000 211.696000 L 358.590000 209.841000 L 358.593000 207.987000 L 358.595000 206.133000 L 358.598000 204.279000 L 358.603000 202.425000 L 358.608000 200.571000 L 358.601000 198.716000 L 358.595000 196.862000 L 358.582000 195.008000 L 358.570000 193.154000 L 358.543000 191.300000 L 358.516000 189.446000 L 358.485000 187.592000 L 358.454000 185.738000 L 358.421000 183.884000 L 358.389000 182.030000 L 358.356000 180.176000 L 358.324000 178.323000 L 358.292000 176.469000 L 358.259000 174.615000 L 358.227000 172.761000 L 358.195000 170.907000 L 358.163000 169.053000 L 358.131000 167.199000 L 358.100000 165.345000 L 358.069000 163.491000 L 358.038000 161.637000 L 358.007000 159.783000" fill="none" id="37" stroke="#658424" stroke-width="0.5" /><path d="M 358.577000 171.770000 L 358.555000 168.867000 L 358.532000 165.965000 L 358.509000 163.063000 L 358.486000 160.160000 L 358.462000 157.258000 L 358.439000 154.356000 L 358.415000 151.453000 L 358.392000 148.551000 L 358.368000 145.649000 L 358.345000 142.746000 L 358.321000 139.844000 L 358.298000 136.942000 L 358.274000 134.039000 L 358.253000 131.137000 L 358.233000 128.234000 L 358.230000 125.332000 L 358.233000 122.430000 L 358.249000 119.527000 L 358.270000 116.625000 L 358.292000 113.722000 L 358.315000 110.820000 L 358.337000 107.918000 L 358.360000 105.015000 L 358.382000 102.113000 L 358.405000 99.210600 L 358.428000 96.308300 L 358.450000 93.405900 L 358.473000 90.503500 L 358.495000 87.601200 L 358.518000 84.698800" fill="none" id="38" stroke="#658424" stroke-width="0.5" /><path d="M 356.817000 60.580700 L 356.900000 63.372500 L 356.983000 66.164300 L 357.065000 68.956000 L 357.148000 71.747800 L 357.230000 74.539600 L 357.270000 77.332300 L 357.286000 80.125200 L 357.289000 82.918200 L 357.289000 85.711200 L 357.289000 88.504200 L 357.280000 91.297200 L 357.253000 94.090000 L 357.198000 96.882400 L 357.108000 99.674000 L 357.010000 102.465000 L 356.907000 105.256000 L 356.804000 108.047000 L 356.701000 110.839000 L 356.598000 113.630000 L 356.495000 116.421000 L 356.393000 119.212000 L 356.293000 122.003000 L 356.209000 124.795000 L 356.151000 127.587000 L 356.116000 130.380000 L 356.092000 133.173000 L 356.069000 135.966000 L 356.045000 138.759000 L 356.022000 141.552000 L 355.998000 144.344000" fill="none" id="39" stroke="#f1b9ff" stroke-width="0.5" /><path d="M 401.289000 82.998000 L 403.041000 86.483600 L 404.951000 89.884300 L 407.068000 93.160100 L 409.338000 96.332900 L 411.623000 99.494200 L 413.948000 102.626000 L 416.313000 105.729000 L 418.689000 108.823000 L 421.066000 111.916000 L 423.443000 115.009000 L 425.821000 118.102000 L 428.198000 121.195000 L 430.554000 124.303000 L 432.852000 127.456000 L 435.100000 130.643000 L 437.334000 133.841000 L 439.567000 137.040000 L 441.800000 140.238000 L 444.033000 143.437000 L 446.266000 146.636000 L 448.499000 149.835000 L 450.732000 153.033000 L 452.964000 156.232000 L 455.197000 159.431000 L 457.430000 162.630000 L 459.653000 165.835000 L 461.820000 169.079000 L 463.906000 172.375000 L 465.979000 175.679000 L 468.030000 178.998000" fill="none" id="40" stroke="#989c37" stroke-width="0.5" /><path d="M 432.219000 290.258000 L 432.233000 295.225000 L 432.323000 300.190000 L 432.512000 305.153000 L 432.772000 310.113000 L 432.873000 315.078000 L 432.940000 320.045000 L 433.004000 325.011000 L 433.068000 329.977000 L 433.132000 334.943000 L 433.196000 339.910000 L 433.260000 344.876000 L 433.323000 349.842000 L 433.367000 354.809000 L 433.376000 359.775000 L 433.369000 364.742000 L 433.361000 369.709000 L 433.354000 374.675000 L 433.346000 379.642000 L 433.339000 384.609000 L 433.332000 389.575000 L 433.324000 394.542000 L 433.317000 399.509000 L 433.310000 404.475000 L 433.302000 409.442000 L 433.295000 414.409000 L 433.287000 419.375000 L 433.280000 424.342000 L 433.273000 429.309000 L 433.265000 434.275000 L 433.258000 439.242000" fill="none" id="41" stroke="#bb568c" stroke-width="0.5" /><path d="M 178.171000 322.927000 L 182.426000 325.459000 L 186.693000 327.971000 L 190.984000 330.440000 L 195.320000 332.829000 L 199.614000 335.295000 L 203.889000 337.793000 L 208.162000 340.293000 L 212.456000 342.757000 L 216.822000 345.092000 L 221.208000 347.388000 L 225.596000 349.682000 L 229.984000 351.975000 L 234.372000 354.268000 L 238.760000 356.561000 L 243.148000 358.854000 L 247.536000 361.148000 L 251.924000 363.441000 L 256.285000 365.785000 L 260.615000 368.185000 L 264.937000 370.600000 L 269.259000 373.016000 L 273.581000 375.432000 L 277.902000 377.848000 L 282.224000 380.263000 L 286.546000 382.679000 L 290.867000 385.095000 L 295.189000 387.511000 L 299.511000 389.927000 L 303.838000 392.333000 L 308.187000 394.698000 L 312.556000 397.027000 L 316.929000 399.350000 L 321.301000 401.673000 L 325.674000 403.995000 L 330.046000 406.318000 L 334.419000 408.640000 L 338.791000 410.963000 L 343.163000 413.286000 L 347.536000 415.608000 L 351.916000 417.915000 L 356.322000 420.175000 L 360.749000 422.392000 L 365.178000 424.604000 L 369.608000 426.815000 L 374.038000 429.027000 L 378.467000 431.239000 L 382.897000 433.451000 L 387.326000 435.662000 L 391.756000 437.874000 L 396.185000 440.086000 L 400.615000 442.298000 L 405.045000 444.509000 L 409.487000 446.696000 L 413.973000 448.789000 L 418.489000 450.819000 L 423.007000 452.844000 L 427.525000 454.869000 L 432.043000 456.894000 L 436.561000 458.919000 L 441.079000 460.944000 L 445.597000 462.969000 L 450.115000 464.994000 L 454.633000 467.019000 L 459.151000 469.044000 L 463.667000 471.074000 L 468.154000 473.167000 L 472.592000 475.362000 L 477.027000 477.563000 L 481.460000 479.766000 L 485.894000 481.969000 L 490.329000 484.171000" fill="none" id="42" stroke="#cfe395" stroke-width="0.5" /><path d="M 189.352000 165.699000 L 188.898000 170.630000 L 188.576000 175.572000 L 188.416000 180.522000 L 188.419000 185.474000 L 188.421000 190.427000 L 188.424000 195.379000 L 188.426000 200.332000 L 188.429000 205.284000 L 188.431000 210.237000 L 188.434000 215.189000 L 188.438000 220.142000 L 188.458000 225.094000 L 188.514000 230.046000 L 188.594000 234.998000 L 188.674000 239.950000 L 188.764000 244.902000 L 188.901000 249.852000 L 189.079000 254.801000 L 189.260000 259.751000 L 189.443000 264.700000 L 189.669000 269.647000 L 189.946000 274.592000 L 190.238000 279.536000 L 190.531000 284.479000 L 190.824000 289.423000 L 191.117000 294.367000 L 191.410000 299.311000 L 191.703000 304.255000 L 191.992000 309.199000 L 192.257000 314.144000 L 192.481000 319.092000 L 192.688000 324.040000 L 192.894000 328.988000 L 193.099000 333.936000 L 193.304000 338.884000 L 193.510000 343.833000" fill="none" id="43" stroke="#c45372" stroke-width="0.5" /><path d="M 89.352400 205.667000 L 88.626500 205.827000 L 87.900700 205.986000 L 87.174800 206.145000 L 86.449000 206.304000 L 85.723100 206.463000 L 84.997300 206.623000 L 84.271400 206.782000 L 83.545600 206.941000 L 82.819800 207.101000 L 82.094000 207.260000 L 81.367800 207.418000 L 80.641700 207.576000 L 79.915500 207.734000 L 79.189300 207.891000 L 78.463900 208.053000 L 77.738500 208.214000 L 77.007700 208.349000 L 76.277000 208.483000 L 75.546100 208.618000 L 74.815300 208.753000 L 74.082700 208.877000 L 73.350100 209.002000 L 72.608300 209.045000 L 71.866400 209.087000 L 71.124500 209.130000 L 70.382600 209.171000 L 69.639500 209.179000 L 68.896400 209.185000 L 67.418900 209.025000" fill="none" id="44" stroke="#008c6f" stroke-width="0.5" /><path d="M 67.418900 209.025000 L 71.908600 206.831000 L 76.469100 204.787000 L 81.125700 202.974000 L 85.831500 201.292000 L 90.541600 199.623000 L 95.252000 197.953000 L 99.962300 196.284000 L 104.673000 194.615000 L 109.383000 192.946000 L 114.092000 191.274000 L 118.778000 189.538000 L 123.454000 187.774000 L 128.128000 186.006000 L 132.798000 184.227000 L 137.453000 182.410000 L 142.103000 180.578000 L 146.752000 178.745000 L 151.400000 176.911000 L 156.049000 175.077000 L 160.698000 173.243000 L 165.351000 171.422000 L 170.014000 169.623000 L 174.680000 167.835000 L 179.347000 166.048000 L 184.014000 164.262000 L 188.681000 162.475000 L 193.348000 160.689000 L 198.016000 158.903000 L 202.683000 157.116000 L 207.350000 155.330000 L 212.017000 153.544000 L 216.673000 151.729000 L 221.311000 149.868000 L 225.937000 147.978000 L 230.561000 146.082000 L 235.184000 144.185000 L 239.808000 142.289000 L 244.431000 140.392000 L 249.055000 138.496000 L 253.678000 136.599000 L 258.307000 134.716000 L 262.956000 132.884000 L 267.628000 131.110000 L 272.307000 129.356000 L 276.986000 127.601000 L 281.666000 125.846000 L 286.345000 124.091000 L 291.015000 122.315000 L 295.664000 120.480000 L 300.291000 118.593000 L 304.918000 116.706000 L 309.620000 115.027000 L 314.414000 113.616000 L 319.169000 112.091000 L 323.857000 110.362000 L 328.546000 108.633000 L 333.235000 106.905000 L 337.924000 105.176000 L 342.613000 103.447000 L 347.301000 101.718000 L 351.990000 99.989700 L 356.679000 98.261000 L 361.368000 96.532200 L 366.056000 94.803500 L 370.744000 93.072500 L 375.427000 91.328100 L 380.100000 89.555300 L 384.764000 87.761700 L 389.428000 85.968100 L 394.093000 84.174500 L 398.762000 82.394600 L 403.456000 80.679500 L 408.171000 79.025200 L 412.867000 77.315000 L 417.558000 75.592300 L 422.249000 73.869500 L 426.941000 72.149500 L 431.642000 70.453900 L 436.369000 68.834400 L 441.125000 67.299500 L 445.885000 65.778600 L 450.645000 64.258200 L 455.408000 62.743000 L 460.177000 61.252200 L 464.959000 59.801700 L 469.743000 58.354200 L 474.526000 56.906800 L 479.309000 55.459700 L 484.094000 54.019800 L 488.892000 52.622600 L 493.707000 51.285800 L 498.525000 49.957800 L 503.343000 48.629900 L 508.160000 47.301900 L 512.978000 45.974000 L 517.796000 44.646000 L 522.613000 43.318100 L 527.431000 41.990200" fill="none" id="45" stroke="#ff94af" stroke-width="0.5" /></svg>