<?xml version="1.0" encoding="utf-8" ?>
<svg baseProfile="full" height="448.5" version="1.1" viewBox="0,0,862.5,448.5" width="862.5" xmlns="http://www.w3.org/2000/svg" xmlns:ev="http://www.w3.org/2001/xml-events" xmlns:xlink="http://www.w3.org/1999/xlink"><defs><style type="text/css"><![CDATA[
	.background { fill: white; }
	.line { stroke: firebrick; stroke-width: .1mm; }
	.blacksquare { fill: indigo; }
	.whitesquare { fill: white; }
]]></style></defs><rect class="background" height="100%" width="100%" x="0" y="0" /><path d="M 123.935040 318.935040 L 125.337931 317.120494 L 128.907947 315.316336 L 132.502706 313.562887 L 136.121722 311.859149 L 139.740738 310.155410 L 143.359753 308.451672 L 146.978769 306.747933 L 150.597785 305.044194 L 154.216801 303.340456 L 157.835816 301.636717 L 161.454832 299.932979 L 165.073848 298.229240 L 168.692864 296.525501 L 172.311879 294.821763 L 175.930895 293.118024 L 179.549911 291.414286 L 183.168926 289.710547 L 186.787942 288.006808 L 190.406958 286.303070 L 194.025974 284.599331 L 197.644989 282.895593 L 201.264005 281.191854 L 204.883021 279.488115 L 208.497547 277.775066 L 212.084329 276.004474 L 215.671111 274.233882 L 219.257893 272.463290 L 222.844674 270.692698 L 226.431456 268.922106 L 230.018238 267.151514 L 233.605020 265.380921 L 237.191801 263.610329 L 240.778583 261.839737 L 244.365365 260.069145 L 247.952147 258.298553 L 251.538929 256.527961 L 255.125710 254.757369 L 258.712492 252.986776 L 262.253020 251.126079 L 265.782432 249.243726 L 269.311844 247.361373 L 272.841255 245.479020 L 276.422077 243.699358 L 280.043912 242.001622 L 283.665748 240.303887 L 287.287584 238.606151 L 290.909420 236.908416 L 294.531255 235.210680 L 298.153091 233.512945 L 301.774927 231.815209 L 305.396763 230.117474 L 308.920887 228.229909 L 312.407189 226.268864 L 315.893491 224.307819 L 319.379794 222.346774 L 322.778033 221.017288 L 326.197186 220.199729 L 329.775941 218.412968 L 333.354695 216.626206 L 336.933449 214.839444 L 340.512203 213.052682 L 344.090958 211.265920 L 347.669712 209.479159 L 351.248466 207.692397 L 354.827221 205.905635 L 358.405975 204.118873 L 361.984729 202.332112 L 365.563484 200.545350 L 369.142238 198.758588 L 372.720992 196.971826 L 376.299746 195.185064 L 379.878501 193.398303 L 383.457255 191.611541 L 387.036009 189.824779 L 390.614764 188.038017 L 394.210319 186.286883 L 397.865565 184.662329 L 401.520811 183.037775 L 405.176057 181.413221 L 408.831303 179.788667 L 412.306978 178.655359 L 415.886305 176.869746 L 419.465633 175.084133 L 423.044960 173.298520 L 426.624288 171.512907 L 430.203616 169.727294 L 433.782943 167.941681 L 437.362271 166.156068 L 440.941599 164.370455 L 444.520926 162.584842 L 448.136158 160.875399 L 451.791404 159.250845 L 455.446650 157.626291 L 459.101897 156.001737 L 462.757143 154.377183 L 466.346517 152.617151 L 469.881669 150.745600 L 473.416820 148.874049 L 476.951972 147.002498 L 480.487124 145.130947 L 483.685830 144.802510 L 487.272924 143.032551 L 490.860018 141.262591 L 494.447112 139.492632 L 498.034206 137.722672 L 501.621300 135.952713 L 505.208394 134.182753 L 508.795488 132.412793 L 512.382582 130.642834 L 515.401949 130.284310 L 519.021659 128.582046 L 522.641369 126.879783 L 526.261079 125.177520 L 529.880789 123.475257 L 533.500499 121.772993 L 537.120209 120.070730 L 540.739919 118.368467 L 544.359629 116.666203 L 547.996391 115.268746 L 551.629174 113.594563 L 555.261957 111.920381 L 558.894740 110.246198 L 562.527523 108.572015 L 566.160306 106.897832 L 569.793088 105.223649 L 573.444223 103.590298 L 577.107982 101.985034 L 580.771741 100.379770 L 584.435500 98.774507 L 588.099258 97.169243 L 591.763017 95.563979 L 595.426776 93.958716 L 599.090535 92.353452 L 602.754294 90.748188 L 606.398514 89.099865 L 610.019257 87.399799 L 613.639999 85.699734 L 617.260742 83.999668 L 620.881484 82.299603 L 624.502227 80.599537 L 628.122970 78.899471 L 631.743712 77.199406 L 635.364455 75.499340 L 638.977870 73.784449 L 642.527481 71.940470 L 646.077092 70.096490 L 649.626704 68.252511 L 652.753940 66.627950" fill="none" id="1" stroke="black" stroke-width="0.5" /><path d="M 29.982280 169.242130 L 33.196336 171.623274 L 36.410392 174.004417 L 39.624447 176.385561 L 42.905402 178.672855 L 46.204596 180.934563 L 49.503790 183.196270 L 52.802983 185.457978 L 56.102177 187.719685 L 59.401371 189.981393 L 62.700564 192.243101 L 65.999758 194.504808 L 69.298952 196.766516 L 72.598145 199.028223 L 75.897339 201.289931 L 79.196533 203.551638 L 82.482210 205.832706 L 85.742404 208.150278 L 89.002598 210.467849 L 92.262791 212.785421 L 95.522985 215.102992 L 98.783178 217.420564 L 102.043372 219.738136 L 105.303565 222.055707 L 108.563759 224.373279 L 111.866709 226.627985 L 115.220129 228.808483 L 118.573550 230.988981 L 121.926970 233.169478 L 125.280391 235.349976 L 128.633811 237.530474 L 131.987232 239.710972 L 135.340652 241.891470 L 138.694073 244.071968 L 142.047493 246.252466 L 145.400914 248.432963 L 148.754334 250.613461 L 152.107755 252.793959 L 155.461175 254.974457 L 158.814596 257.154955 L 162.168016 259.335453 L 165.521437 261.515950 L 168.874857 263.696448 L 172.228278 265.876946 L 175.631331 267.978011 L 179.061303 270.035994 L 182.491274 272.093977 L 185.921246 274.151960 L 189.323216 276.254191 L 192.651417 278.472992 L 195.979618 280.691792 L 199.307820 282.910593 L 202.636021 285.129394 L 206.034468 287.237803 L 209.454111 289.312904 L 212.873754 291.388004 L 216.293397 293.463105 L 219.713040 295.538205 L 223.132683 297.613305 L 226.552326 299.688406 L 229.971969 301.763506 L 233.391612 303.838607 L 236.811255 305.913707 L 240.230898 307.988808 L 243.650541 310.063908 L 247.070184 312.139009 L 250.489827 314.214109 L 253.932171 316.251248 L 257.378405 318.281880 L 260.824640 320.312512 L 264.270874 322.343145 L 267.717109 324.373777 L 271.163343 326.404410 L 274.609578 328.435042 L 278.055812 330.465674 L 281.502047 332.496307 L 284.977821 334.475547 L 288.467053 336.431374 L 291.956286 338.387200 L 295.445518 340.343026 L 298.934751 342.298853 L 302.423983 344.254679 L 305.913216 346.210505 L 309.402448 348.166332 L 312.891681 350.122158 L 316.380913 352.077984 L 319.870146 354.033811 L 323.359378 355.989637 L 326.848611 357.945463 L 330.309422 359.950932 L 333.762584 361.969761 L 337.215746 363.988591 L 340.668908 366.007420 L 344.102609 368.059018 L 347.527673 370.125159 L 350.952737 372.191299 L 354.377801 374.257439 L 357.802865 376.323579 L 361.227929 378.389720 L 364.652994 380.455860 L 368.078058 382.522000 L 371.503122 384.588140 L 374.928186 386.654281 L 378.353250 388.720421 L 381.778314 390.786561 L 385.203379 392.852701 L 388.628443 394.918841 L 392.053507 396.984982 L 395.449849 399.096842 L 398.797804 401.285721 L 402.145759 403.474601 L 405.493715 405.663481 L 408.768412 407.959473 L 412.022302 410.285885 L 415.276193 412.612297 L 418.530084 414.938710 L 421.783975 417.265122 L 425.037865 419.591535 L 427.809050 421.572830" fill="none" id="2" stroke="black" stroke-width="0.5" /><path d="M 402.549210 22.289370 L 403.635163 22.063914 L 407.493893 23.117576 L 411.311811 24.302291 L 415.086519 25.625764 L 418.861227 26.949238 L 422.635934 28.272711 L 426.410642 29.596185 L 430.185350 30.919658 L 433.960058 32.243131 L 437.734765 33.566605 L 441.509473 34.890078 L 445.284181 36.213551 L 449.058888 37.537025 L 452.833596 38.860498 L 456.589650 40.233579 L 460.301163 41.725112 L 464.012676 43.216645 L 467.724190 44.708178 L 471.435703 46.199710 L 475.147216 47.691243 L 478.858729 49.182776 L 482.570242 50.674309 L 486.281755 52.165842 L 489.993268 53.657375 L 493.704781 55.148908 L 497.416295 56.640441 L 501.127808 58.131973 L 504.839321 59.623506 L 508.550834 61.115039 L 512.262347 62.606572 L 515.973860 64.098105 L 519.685373 65.589638 L 523.396886 67.081171 L 527.108400 68.572703 L 530.819913 70.064236 L 534.531426 71.555769 L 538.242939 73.047302 L 541.972827 74.492039 L 545.707594 75.924351 L 549.442360 77.356663 L 553.177127 78.788975 L 556.911894 80.221287 L 560.670795 81.588933 L 564.430755 82.953741 L 568.190715 84.318548 L 571.950675 85.683356 L 575.710635 87.048164 L 579.470595 88.412972 L 583.230555 89.777780 L 586.990515 91.142588 L 590.750475 92.507396 L 594.510898 93.870899 L 598.290813 95.179424 L 602.070729 96.487949 L 605.850644 97.796474 L 609.630560 99.105000 L 613.410475 100.413525 L 617.190391 101.722050 L 620.970307 103.030576 L 624.750222 104.339101 L 628.530138 105.647626 L 632.095578 107.248918 L 635.834851 108.669424 L 639.574124 110.089930 L 643.313397 111.510436 L 647.052670 112.930942 L 650.791943 114.351449 L 654.531216 115.771955 L 658.270489 117.192461 L 662.009762 118.612967 L 665.749035 120.033473 L 669.488307 121.453979 L 673.227580 122.874486 L 676.966853 124.294992 L 680.706126 125.715498 L 684.445399 127.136004 L 688.184672 128.556510 L 691.923945 129.977016 L 695.663218 131.397523 L 699.402491 132.818029 L 703.141764 134.238535 L 706.881037 135.659041 L 710.620310 137.079547 L 714.359583 138.500053 L 718.117921 139.868077 L 721.897112 141.178693 L 725.676302 142.489310 L 729.455493 143.799927 L 733.234684 145.110543 L 737.013875 146.421160 L 740.793066 147.731776 L 744.572257 149.042393 L 748.351448 150.353010 L 752.130639 151.663626 L 755.909830 152.974243 L 759.694644 154.268231 L 763.493572 155.520490 L 767.292499 156.772748 L 771.091426 158.025007 L 774.890354 159.277265 L 778.689281 160.529524 L 782.488208 161.781783 L 786.287135 163.034041 L 790.086063 164.286300 L 793.884990 165.538558 L 797.683917 166.790817 L 801.482845 168.043075 L 805.224667 169.452654 L 808.942332 170.928787 L 812.613658 172.512991 L 816.245881 174.188388 L 819.878104 175.863784 L 823.510328 177.539181 L 823.651570 177.604330" fill="none" id="3" stroke="black" stroke-width="0.5" /><path d="M 287.053150 447.935040 L 290.728553 446.356618 L 294.403955 444.778196 L 298.079358 443.199774 L 301.754760 441.621352 L 305.430163 440.042930 L 309.025783 438.292805 L 312.602315 436.501599 L 316.178847 434.710392 L 319.755379 432.919186 L 323.331910 431.127979 L 326.830252 429.196544 L 330.234061 427.095572 L 333.637870 424.994600 L 337.041679 422.893627 L 340.445488 420.792655 L 343.849297 418.691683 L 347.253106 416.590711 L 350.168210 414.813027 L 346.903105 417.123674 L 343.638000 419.434321 L 342.448545 420.396800 L 345.887150 418.353274 L 349.325755 416.309749 L 352.764360 414.266224 L 356.202965 412.222699 L 359.641570 410.179173 L 363.080175 408.135648 L 366.518780 406.092123 L 369.957385 404.048598 L 373.395990 402.005072 L 376.834595 399.961547 L 380.273200 397.918022 L 383.711805 395.874497 L 387.150410 393.830971 L 390.589015 391.787446 L 394.027620 389.743921 L 397.466225 387.700396 L 400.904830 385.656870 L 404.343435 383.613345 L 407.782041 381.569820 L 411.220646 379.526295 L 414.659251 377.482769 L 418.097856 375.439244 L 421.536461 373.395719 L 424.975066 371.352194 L 428.413671 369.308669 L 431.852276 367.265143 L 435.290881 365.221618 L 438.729486 363.178093 L 442.168091 361.134568 L 445.606696 359.091042 L 449.045301 357.047517 L 452.503562 355.275524 L 455.977529 353.292709 L 459.451495 351.309894 L 462.925462 349.327079 L 466.399429 347.344264 L 469.873396 345.361449 L 473.347362 343.378634 L 476.821329 341.395819 L 480.295296 339.413004 L 483.769263 337.430189 L 487.261903 335.480459 L 490.754760 333.531113 L 494.247616 331.581766 L 497.740473 329.632419 L 501.233330 327.683073 L 504.726186 325.733726 L 508.219043 323.784379 L 511.711899 321.835032 L 515.204756 319.885686 L 518.697613 317.936339 L 522.190469 315.986992 L 525.683326 314.037646 L 529.176183 312.088299 L 532.669039 310.138952 L 536.161896 308.189606 L 539.654753 306.240259 L 543.147609 304.290912 L 546.640466 302.341566 L 550.133323 300.392219 L 553.626179 298.442872 L 557.119036 296.493526 L 560.611892 294.544179 L 564.104749 292.594832 L 567.597606 290.645486 L 571.090462 288.696139 L 574.583319 286.746792 L 578.076176 284.797446 L 581.569032 282.848099 L 585.061889 280.898752 L 588.554746 278.949406 L 592.047602 277.000059 L 595.540459 275.050712 L 599.033316 273.101366 L 602.526172 271.152019 L 606.019029 269.202672 L 609.511886 267.253326 L 613.004742 265.303979 L 616.497599 263.354632 L 619.990455 261.405286 L 623.483312 259.455939 L 626.976169 257.506592 L 630.469025 255.557246 L 633.955114 253.595899 L 637.430248 251.615130 L 640.905382 249.634362 L 644.380516 247.653594 L 647.855650 245.672825 L 651.330784 243.692057 L 654.805918 241.711288 L 658.281052 239.730520 L 661.756186 237.749752 L 665.231320 235.768983 L 668.706454 233.788215 L 672.181588 231.807446 L 675.656722 229.826678 L 679.131856 227.845909 L 682.606990 225.865141 L 686.082124 223.884373 L 689.557258 221.903604 L 693.032392 219.922836 L 696.507526 217.942067 L 699.982660 215.961299 L 703.457794 213.980531 L 706.932928 211.999762 L 710.408062 210.018994 L 713.883196 208.038225 L 717.358330 206.057457 L 720.833464 204.076688 L 724.308598 202.095920 L 727.783732 200.115152 L 731.258866 198.134383 L 734.734000 196.153615 L 738.209134 194.172846 L 741.684268 192.192078 L 745.159403 190.211310 L 748.660156 188.276514 L 752.172874 186.363191 L 755.685593 184.449867 L 759.198312 182.536543 L 762.711031 180.623220 L 766.223749 178.709896 L 769.736468 176.796572 L 773.249187 174.883249 L 776.761905 172.969925 L 780.274624 171.056601 L 783.787343 169.143278 L 787.300061 167.229954 L 790.812780 165.316630 L 794.325499 163.403307 L 797.838217 161.489983 L 801.350936 159.576660 L 804.863655 157.663336 L 808.376374 155.750012 L 811.851167 154.492096 L 815.410755 152.667451 L 818.970344 150.842806 L 822.529933 149.018161 L 826.089521 147.193517 L 829.649110 145.368872 L 833.208699 143.544227 L 836.768287 141.719582 L 840.327876 139.894938 L 843.887465 138.070293 L 847.447053 136.245648 L 851.006642 134.421003 L 854.566231 132.596359 L 858.125819 130.771714 L 861.685408 128.947069 L 862.108270 128.730310" fill="none" id="4" stroke="black" stroke-width="0.5" /><path d="M 0.250000 243.108270 L 2.482248 240.182557 L 5.835344 238.001561 L 9.287148 235.997492 L 12.904304 234.289810 L 16.521461 232.582128 L 20.138618 230.874446 L 23.755775 229.166764 L 27.372931 227.459082 L 30.990088 225.751401 L 34.607245 224.043719 L 38.224401 222.336037 L 41.841558 220.628355 L 45.458715 218.920673 L 49.075872 217.212991 L 52.693028 215.505310 L 56.310185 213.797628 L 59.927342 212.089946 L 63.544498 210.382264 L 67.161655 208.674582 L 70.778812 206.966900 L 74.395969 205.259218 L 78.028008 203.583630 L 81.668269 201.925769 L 85.308529 200.267908 L 88.948790 198.610047 L 92.589050 196.952186 L 96.229311 195.294325 L 99.869571 193.636464 L 103.542480 192.053120 L 107.229039 190.500935 L 110.915599 188.948750 L 114.602158 187.396564 L 118.288718 185.844379 L 121.975277 184.292194 L 125.661837 182.740009 L 129.348396 181.187824 L 133.017320 179.594880 L 136.672566 177.970326 L 140.327813 176.345773 L 143.983059 174.721219 L 147.638305 173.096665 L 151.293552 171.472112 L 154.948798 169.847558 L 158.604044 168.223004 L 162.259290 166.598451 L 165.555119 165.837922 L 169.221820 164.239388 L 172.888520 162.640855 L 176.555220 161.042322 L 180.221921 159.443789 L 183.888621 157.845255 L 187.555321 156.246722 L 191.222022 154.648189 L 194.888722 153.049656 L 198.555422 151.451122 L 202.245592 150.538685 L 205.959876 149.054065 L 209.674160 147.569446 L 213.388443 146.084826 L 217.102727 144.600207 L 220.817011 143.115587 L 224.531295 141.630967 L 228.245579 140.146348 L 231.959863 138.661728 L 235.674147 137.177109 L 239.388431 135.692489 L 243.102715 134.207870 L 246.816998 132.723250 L 250.531282 131.238631 L 254.245566 129.754011 L 257.959850 128.269392 L 261.664601 126.761398 L 265.357760 125.224981 L 269.050919 123.688564 L 272.744078 122.152147 L 276.437237 120.615730 L 280.130396 119.079313 L 283.823555 117.542896 L 287.516713 116.006479 L 291.209872 114.470062 L 294.903031 112.933644 L 298.596190 111.397227 L 302.299921 109.886724 L 306.013828 108.401161 L 309.727735 106.915598 L 313.441642 105.430035 L 317.155548 103.944473 L 320.891576 102.758676 L 324.595051 101.321393 L 328.291197 99.792177 L 331.987344 98.262960 L 335.683490 96.733744 L 339.379636 95.204527 L 343.075782 93.675311 L 346.771928 92.146094 L 350.468075 90.616878 L 354.164221 89.087661 L 357.860367 87.558445 L 361.556513 86.029228 L 365.252660 84.500012 L 368.948806 82.970795 L 372.644952 81.441579 L 376.341098 79.912362 L 380.073914 78.676070 L 383.746114 77.090212 L 387.418314 75.504354 L 391.090514 73.918496 L 394.762714 72.332637 L 398.434914 70.746779 L 402.107115 69.160921 L 405.779315 67.575063 L 409.451515 65.989205 L 413.123715 64.403346 L 416.795915 62.817488 L 420.468115 61.231630 L 424.140315 59.645772 L 427.812515 58.059914 L 431.484716 56.474056 L 435.070358 55.273200 L 438.719043 53.633962 L 442.367728 51.994725 L 446.016412 50.355487 L 449.665097 48.716250 L 453.313782 47.077012 L 456.962467 45.437775 L 460.611151 43.798537 L 464.259836 42.159300 L 467.861951 41.467672 L 471.557013 39.935838 L 475.252076 38.404004 L 478.947138 36.872170 L 482.642200 35.340337 L 486.337262 33.808503 L 490.032325 32.276669 L 493.727387 30.744835 L 497.422449 29.213001 L 501.117511 27.681167 L 504.812574 26.149334 L 508.507636 24.617500 L 512.202698 23.085666 L 515.897761 21.553832 L 519.592823 20.021998 L 523.284177 18.481335 L 526.964953 16.915484 L 530.645728 15.349633 L 534.326504 13.783782 L 538.007280 12.217931 L 541.688056 10.652080 L 545.368832 9.086229 L 549.049608 7.520378 L 552.730383 5.954527 L 556.411159 4.388676 L 560.091935 2.822825 L 563.772711 1.256974 L 566.139760 0.250000" fill="none" id="5" stroke="black" stroke-width="0.5" /><path d="M 287.683070 420.722440 L 289.760611 417.587247 L 292.683237 414.856267 L 295.840687 412.417338 L 299.135482 410.149228 L 302.430277 407.881117 L 305.811708 405.744593 L 309.197284 403.614364 L 312.582860 401.484135 L 315.973942 399.362970 L 319.424843 397.340278 L 322.875744 395.317586 L 326.326645 393.294894 L 329.777546 391.272202 L 333.228447 389.249510 L 336.679348 387.226818 L 340.130249 385.204126 L 343.581149 383.181435 L 347.032050 381.158743 L 350.482951 379.136051 L 353.933852 377.113359 L 357.384753 375.090667 L 360.835654 373.067975 L 364.286555 371.045283 L 367.737456 369.022591 L 371.188357 366.999899 L 374.639258 364.977207 L 378.090159 362.954515 L 381.541060 360.931823 L 384.991961 358.909131 L 388.442862 356.886439 L 391.893763 354.863748 L 395.344664 352.841056 L 398.795565 350.818364 L 402.246466 348.795672 L 405.697367 346.772980 L 409.148268 344.750288 L 412.599168 342.727596 L 416.050069 340.704904 L 419.475337 338.639293 L 422.892489 336.560092 L 426.309641 334.480892 L 429.726792 332.401692 L 433.143944 330.322491 L 436.561096 328.243291 L 439.978248 326.164091 L 443.395399 324.084891 L 446.812551 322.005690 L 450.028716 321.370275 L 453.486197 319.358851 L 456.943679 317.347428 L 460.401160 315.336005 L 463.858641 313.324582 L 467.316122 311.313158 L 470.773604 309.301735 L 474.231085 307.290312 L 477.688566 305.278889 L 481.146047 303.267465 L 484.603529 301.256042 L 488.061010 299.244619 L 491.518491 297.233196 L 494.975972 295.221773 L 498.433454 293.210349 L 501.859076 291.145502 L 505.272203 289.059702 L 508.685331 286.973902 L 512.098458 284.888102 L 515.511585 282.802302 L 518.842764 282.099251 L 522.319371 280.121068 L 525.795977 278.142885 L 529.272584 276.164702 L 532.749190 274.186519 L 536.225796 272.208336 L 539.702403 270.230153 L 543.179009 268.251970 L 546.655615 266.273787 L 550.132222 264.295604 L 553.608828 262.317420 L 557.085434 260.339237 L 560.562041 258.361054 L 564.038647 256.382871 L 567.515254 254.404688 L 570.991860 252.426505 L 574.468466 250.448322 L 577.945073 248.470139 L 581.421679 246.491956 L 584.898285 244.513773 L 588.374892 242.535590 L 591.851498 240.557407 L 595.343176 238.606047 L 598.840913 236.665470 L 602.338650 234.724894 L 605.836387 232.784318 L 609.334123 230.843742 L 612.831860 228.903165 L 616.329597 226.962589 L 619.827334 225.022013 L 623.325071 223.081436 L 626.822808 221.140860 L 630.320545 219.200284 L 633.818282 217.259707 L 637.316019 215.319131 L 640.813756 213.378555 L 644.311493 211.437978 L 647.809230 209.497402 L 651.306967 207.556826 L 654.804704 205.616250 L 658.302440 203.675673 L 661.800177 201.735097 L 665.297914 199.794521 L 668.795651 197.853944 L 672.293388 195.913368 L 675.791125 193.972792 L 679.288862 192.032215 L 682.780981 190.081650 L 686.256062 188.100788 L 689.731143 186.119926 L 693.206223 184.139064 L 696.681304 182.158202 L 700.156385 180.177340 L 703.631466 178.196479 L 707.106546 176.215617 L 710.581627 174.234755 L 714.056708 172.253893 L 717.531789 170.273031 L 721.006869 168.292169 L 724.481950 166.311307 L 727.900526 165.039983 L 731.364739 163.614258 L 734.872686 161.692200 L 738.380634 159.770143 L 741.888581 157.848085 L 745.396528 155.926028 L 748.904476 154.003970 L 752.412423 152.081913 L 755.920371 150.159855 L 759.428318 148.237798 L 762.936265 146.315740 L 766.444213 144.393683 L 769.973978 142.512244 L 773.513466 140.648907 L 777.052954 138.785570 L 780.592442 136.922233 L 784.131930 135.058896 L 787.671418 133.195559 L 791.203123 131.317776 L 794.706181 129.386823 L 798.209240 127.455870 L 801.712299 125.524916 L 805.215357 123.593963 L 808.718416 121.663010 L 812.188008 119.673083 L 815.642151 117.655932 L 819.096293 115.638781 L 822.550436 113.621630 L 826.004579 111.604479 L 826.045280 111.580710" fill="none" id="6" stroke="black" stroke-width="0.5" /><path d="M 247.399610 139.879920 L 250.737079 142.084755 L 254.074548 144.289591 L 257.412018 146.494426 L 260.749487 148.699262 L 264.135582 150.828589 L 267.523654 152.954844 L 270.911727 155.081100 L 274.299800 157.207356 L 277.687872 159.333612 L 281.075945 161.459868 L 284.464018 163.586124 L 287.800337 165.791938 L 291.117370 168.027401 L 294.434402 170.262864 L 297.751435 172.498327 L 301.074109 174.724895 L 304.510294 176.772485 L 307.946480 178.820076 L 311.382666 180.867667 L 314.818852 182.915257 L 318.255037 184.962848 L 321.688820 187.014274 L 325.029977 189.213517 L 328.371134 191.412760 L 331.712291 193.612003 L 335.053448 195.811246 L 338.394605 198.010489 L 341.735762 200.209732 L 343.998030 201.698820" fill="none" id="7" stroke="black" stroke-width="0.5" /><path d="M 506.045280 288.084640 L 509.593092 289.932079 L 511.096739 290.740945 L 507.512654 288.964902 L 509.783486 289.968694 L 513.425199 291.623362 L 517.066912 293.278029 L 518.738190 294.037400" fill="none" id="8" stroke="black" stroke-width="0.5" /><path d="M 680.250000 103.856300 L 679.758345 107.753981 L 678.183921 111.422557 L 676.220244 114.903233 L 673.833552 118.109659 L 671.224685 121.139501 L 668.433428 124.004616 L 665.642170 126.869730 L 662.835032 129.718415 L 659.876648 132.410619 L 656.918264 135.102823 L 653.959879 137.795027 L 651.001495 140.487231 L 647.973449 143.100734 L 644.942013 145.710407 L 641.910576 148.320080 L 638.879139 150.929752 L 635.847702 153.539425 L 632.816265 156.149097 L 629.784829 158.758770 L 626.753392 161.368442 L 623.721955 163.978115 L 620.690518 166.587788 L 617.659081 169.197460 L 614.627645 171.807133 L 611.596208 174.416805 L 608.564771 177.026478 L 605.444766 179.527128 L 602.269465 181.959712 L 599.094164 184.392296 L 595.918863 186.824880 L 592.743563 189.257464 L 589.568262 191.690048 L 586.392961 194.122632 L 584.453655 196.522425 L 581.274284 198.949687 L 578.094913 201.376949 L 574.915542 203.804211 L 571.736171 206.231473 L 568.556800 208.658735 L 565.377429 211.085997 L 562.198058 213.513259 L 559.034074 215.959659 L 555.980529 218.543428 L 552.926983 221.127197 L 549.873438 223.710966 L 546.819893 226.294735 L 543.687009 228.781213 L 540.541735 231.252499 L 537.396462 233.723786 L 534.251189 236.195072 L 531.624921 238.682363 L 528.452620 241.118858 L 525.280319 243.555353 L 522.108019 245.991848 L 518.935718 248.428343 L 515.763417 250.864838 L 512.591116 253.301333 L 509.418816 255.737828 L 506.246515 258.174323 L 503.074214 260.610818 L 499.901913 263.047313 L 496.729613 265.483808 L 493.557312 267.920303 L 490.385011 270.356798 L 487.407480 272.643700" fill="none" id="9" stroke="black" stroke-width="0.5" /><path d="M 287.210630 102.675200 L 283.666728 100.820271 L 280.122827 98.965342 L 276.595797 97.082977 L 273.341438 94.757220 L 270.122683 92.385141 L 267.038071 89.838542 L 268.571281 89.389168 L 272.233696 90.997272 L 275.820191 92.768444 L 279.406687 94.539616 L 282.993182 96.310788 L 286.579677 98.081961 L 290.166173 99.853133 L 293.752668 101.624305 L 297.339163 103.395477 L 300.925659 105.166650 L 304.512154 106.937822 L 308.098649 108.708994 L 311.685145 110.480166 L 315.271640 112.251338 L 318.858136 114.022511 L 322.444631 115.793683 L 326.031126 117.564855 L 329.617622 119.336027 L 333.188949 121.136706 L 336.716481 123.022580 L 340.244013 124.908453 L 343.771544 126.794326 L 347.299076 128.680200 L 350.826608 130.566073 L 354.354140 132.451947 L 357.881672 134.337820 L 361.409204 136.223694 L 364.936736 138.109567 L 368.464268 139.995440 L 371.991800 141.881314 L 375.519332 143.767187 L 379.046864 145.653061 L 382.574396 147.538934 L 386.101928 149.424808 L 389.596173 151.370812 L 393.067044 153.359040 L 396.537916 155.347267 L 400.008788 157.335495 L 403.479660 159.323722 L 406.950532 161.311950 L 410.421404 163.300177 L 413.892275 165.288405 L 417.363147 167.276632 L 420.834019 169.264860 L 424.304891 171.253087 L 427.775763 173.241315 L 431.246635 175.229542 L 434.717507 177.217770 L 438.188378 179.205997 L 441.659250 181.194225 L 445.130122 183.182452 L 448.600994 185.170680 L 452.071866 187.158907 L 455.542738 189.147135 L 459.013609 191.135362 L 462.484481 193.123590 L 465.955353 195.111817 L 469.425189 197.101826 L 472.869796 199.135218 L 476.314404 201.168609 L 479.759011 203.202001 L 483.192179 205.254222 L 486.584172 207.374217 L 489.976166 209.494212 L 493.368159 211.614208 L 496.760153 213.734203 L 500.152146 215.854199 L 503.544139 217.974194 L 506.936133 220.094189 L 510.356305 222.168022 L 513.792292 224.215947 L 517.228279 226.263871 L 520.664265 228.311795 L 524.100252 230.359720 L 527.536239 232.407644 L 530.972226 234.455568 L 534.408213 236.503493 L 537.844200 238.551417 L 541.280187 240.599341 L 544.716174 242.647266 L 548.174230 244.657662 L 551.634079 246.665009 L 555.093929 248.672356 L 558.553778 250.679703 L 562.013627 252.687050 L 565.473477 254.694398 L 568.933326 256.701745 L 572.393175 258.709092 L 575.853025 260.716439 L 579.312874 262.723786 L 582.772724 264.731133 L 586.232573 266.738480 L 589.692422 268.745827 L 593.152272 270.753174 L 596.612121 272.760521 L 600.071971 274.767868 L 603.531820 276.775215 L 606.991669 278.782562 L 610.451519 280.789909 L 613.911368 282.797256 L 617.371217 284.804603 L 620.831067 286.811951 L 624.290916 288.819298 L 627.750766 290.826645 L 629.131890 291.627950" fill="none" id="10" stroke="black" stroke-width="0.5" /><path d="M 208.879920 235.312990 L 208.944794 239.312464 L 209.009667 243.311938 L 208.952590 247.310142 L 208.804454 251.307398 L 208.656318 255.304654 L 208.508182 259.301910 L 208.360045 263.299166 L 208.211909 267.296422 L 208.063773 271.293678 L 207.915637 275.290934 L 207.767501 279.288190 L 207.619365 283.285446 L 207.572455 287.284835 L 207.552100 291.284783 L 207.531744 295.284731 L 207.511389 299.284679 L 207.491034 303.284628 L 207.470678 307.284576 L 207.679066 311.274824 L 207.777560 312.368110" fill="none" id="11" stroke="black" stroke-width="0.5" /><path d="M 200.344490 233.942910 L 200.115551 237.549215 L 200.461440 241.532492 L 200.855490 245.513035 L 201.178813 249.498465 L 201.335974 253.495376 L 201.493135 257.492288 L 201.650297 261.489199 L 201.807458 265.486111 L 201.824800 269.485770 L 201.824800 273.485770 L 201.824800 277.485770 L 201.824800 281.485770 L 201.637986 285.481370 L 201.449668 289.476934 L 201.261350 293.472499 L 201.073032 297.468063 L 200.884714 301.463628 L 200.696396 305.459193 L 200.620587 309.457570 L 200.609020 313.457553 L 200.597454 317.457536 L 200.596460 317.801180" fill="none" id="12" stroke="black" stroke-width="0.5" /><path d="M 131.242130 197.777560 L 134.719025 199.755235 L 138.195921 201.732910 L 141.672816 203.710585 L 145.149712 205.688259 L 148.626607 207.665934 L 152.103503 209.643609 L 155.580398 211.621284 L 159.030755 213.644644 L 162.471089 215.685257 L 165.911424 217.725869 L 169.351758 219.766481 L 172.792093 221.807094 L 176.232427 223.847706 L 179.679915 225.875819 L 183.181911 227.808700 L 186.683907 229.741580 L 190.185902 231.674460 L 193.687898 233.607341 L 197.189894 235.540221 L 200.691889 237.473101 L 204.193885 239.405982 L 207.695881 241.338862 L 211.197876 243.271742 L 214.699872 245.204623 L 218.147487 247.232579 L 221.589001 249.271202 L 225.030514 251.309825 L 228.472028 253.348448 L 231.913542 255.387071 L 235.355055 257.425694 L 238.796569 259.464317 L 242.238082 261.502940 L 245.679596 263.541563 L 249.121110 265.580186 L 252.562623 267.618809 L 256.004137 269.657432 L 259.445651 271.696055 L 262.887164 273.734678 L 266.328678 275.773301 L 269.811292 277.738618 L 273.345853 279.611285 L 276.880413 281.483952 L 280.414974 283.356620 L 283.949534 285.229287 L 285.415350 286.005900" fill="none" id="13" stroke="black" stroke-width="0.5" /><path d="M 427.557090 132.037400 L 423.583454 131.578906 L 424.837615 130.973972 L 428.822921 130.750379 L 432.822171 130.672929 L 436.821422 130.595479 L 440.820672 130.518030 L 444.819922 130.440580 L 448.819172 130.363131 L 452.818422 130.285681 L 456.817672 130.208232 L 460.816922 130.130782 L 464.816172 130.053333 L 468.814041 129.926909 L 472.811296 129.778755 L 476.808552 129.630600 L 480.805807 129.482446 L 484.803062 129.334292 L 488.800318 129.186138 L 492.797573 129.037984 L 496.794828 128.889830 L 500.792084 128.741675 L 504.789339 128.593521 L 508.786594 128.445367 L 512.783850 128.297213 L 516.781105 128.149059 L 520.778360 128.000905 L 524.775616 127.852750 L 528.772871 127.704596 L 532.770126 127.556442 L 536.767382 127.408288 L 540.764637 127.260134 L 544.761893 127.111980 L 548.759148 126.963825 L 552.756410 126.815869 L 556.754462 126.691039 L 560.752513 126.566210 L 564.750565 126.441380 L 568.748617 126.316550 L 572.746669 126.191720 L 576.744720 126.066890 L 580.742772 125.942060 L 584.740824 125.817230 L 588.738875 125.692400 L 592.736927 125.567570 L 596.734979 125.442740 L 600.733031 125.317910 L 604.731082 125.193080 L 608.729134 125.068251 L 612.727186 124.943421 L 616.725237 124.818591 L 620.723289 124.693761 L 624.721157 124.565009 L 628.713313 124.314630 L 632.705469 124.064250 L 633.635830 124.005900" fill="none" id="14" stroke="black" stroke-width="0.5" /><path d="M 368.281500 161.801180 L 369.433831 159.976138 L 373.071489 158.312574 L 376.709147 156.649011 L 380.346805 154.985447 L 383.984463 153.321883 L 387.622121 151.658320 L 391.274067 150.027616 L 394.971599 148.501755 L 398.669132 146.975893 L 402.366665 145.450032 L 406.064197 143.924171 L 409.761730 142.398310 L 413.459263 140.872449 L 417.156795 139.346587 L 420.854328 137.820726 L 424.551860 136.294865 L 428.249393 134.769004 L 431.946926 133.243142 L 435.644458 131.717281 L 439.344960 130.198834 L 443.073694 128.750890 L 446.802428 127.302945 L 450.531162 125.855001 L 454.259896 124.407056 L 457.988630 122.959112 L 461.717364 121.511168 L 465.446098 120.063223 L 469.169014 118.600642 L 472.874291 117.093685 L 476.579569 115.586729 L 480.284846 114.079772 L 483.990124 112.572816 L 487.695402 111.065859 L 491.400679 109.558903 L 495.105957 108.051946 L 498.811234 106.544989 L 502.516512 105.038033 L 506.221789 103.531076 L 509.927067 102.024120 L 513.647136 100.554442 L 517.377672 99.111148 L 521.108208 97.667854 L 524.838745 96.224559 L 528.569281 94.781265 L 532.299817 93.337971 L 536.030354 91.894676 L 539.760890 90.451382 L 543.491426 89.008087 L 547.221963 87.564793 L 550.952499 86.121499 L 554.683035 84.678204 L 558.413572 83.234910 L 562.144108 81.791615 L 565.874644 80.348321 L 569.605181 78.905027 L 573.336947 77.464970 L 577.084683 76.066946 L 580.832420 74.668921 L 584.580156 73.270897 L 588.327893 71.872873 L 592.075629 70.474848 L 595.823365 69.076824 L 599.529984 67.575227 L 603.216136 66.022074 L 606.902288 64.468921 L 610.588440 62.915768 L 614.274592 61.362615 L 617.960744 59.809462 L 619.494090 59.163390" fill="none" id="15" stroke="black" stroke-width="0.5" /><path d="M 477.698820 211.572830 L 474.180025 213.474956 L 470.661230 215.377082 L 467.142435 217.279208 L 463.623641 219.181333 L 460.104846 221.083459 L 456.558872 222.931654 L 452.936551 224.628354 L 449.314229 226.325053 L 445.612699 227.077353 L 448.602314 224.665214 L 451.930086 222.445768 L 455.261681 220.232213 L 458.643328 218.095753 L 462.024975 215.959292 L 465.406622 213.822832 L 468.788269 211.686372 L 472.169916 209.549911 L 475.551564 207.413451 L 478.933211 205.276990 L 482.314858 203.140530 L 485.696505 201.004070 L 489.124424 198.942726 L 492.553708 196.883596 L 495.982991 194.824466 L 499.412274 192.765336 L 502.841557 190.706206 L 506.270840 188.647076 L 509.700124 186.587945 L 513.129407 184.528815 L 516.558690 182.469685 L 519.987973 180.410555 L 523.417256 178.351425 L 526.846540 176.292295 L 530.215029 174.135660 L 533.573383 171.962767 L 536.931736 169.789875 L 540.290090 167.616982 L 543.648443 165.444089 L 547.006796 163.271197 L 550.365150 161.098304 L 553.723503 158.925411 L 557.081856 156.752518 L 560.440210 154.579626 L 563.798563 152.406733 L 567.164884 150.246360 L 570.555547 148.124238 L 573.946211 146.002116 L 577.336874 143.879994 L 580.727537 141.757872 L 584.118201 139.635750 L 587.508864 137.513627 L 590.899527 135.391505 L 594.290190 133.269383 L 597.680854 131.147261 L 601.030840 128.961589 L 604.377749 126.771110 L 607.724659 124.580631 L 611.071568 122.390152 L 614.418477 120.199673 L 617.765387 118.009194 L 621.112296 115.818716 L 624.459205 113.628237 L 627.806115 111.437758 L 631.153024 109.247279 L 634.499934 107.056800 L 637.879553 104.918095 L 641.295022 102.836130 L 644.710490 100.754166 L 648.125958 98.672202 L 651.541427 96.590237 L 654.956895 94.508273 L 658.372364 92.426309 L 661.787832 90.344344 L 665.203300 88.262380 L 668.618769 86.180416 L 672.034237 84.098451 L 675.469390 82.049818 L 678.941645 80.064005 L 682.413899 78.078193 L 685.886153 76.092381 L 689.358407 74.106569 L 692.830662 72.120757 L 696.302916 70.134944 L 699.775170 68.149132 L 703.247425 66.163320 L 706.719679 64.177508 L 709.415350 62.635830" fill="none" id="16" stroke="black" stroke-width="0.5" /><path d="M 393.824800 111.911420 L 397.065036 114.206184 L 400.600887 116.076413 L 404.136738 117.946643 L 407.672589 119.816872 L 411.208440 121.687101 L 414.754246 123.537467 L 418.368826 125.250596 L 421.983407 126.963724 L 425.597987 128.676852 L 429.212568 130.389980 L 432.827148 132.103108 L 436.441729 133.816236 L 440.056309 135.529364 L 441.125964 136.084707 L 437.459582 134.485444 L 433.793200 132.886181 L 430.126818 131.286918 L 432.644481 132.492708 L 436.262867 134.197782 L 439.881254 135.902856 L 443.499641 137.607931 L 447.118028 139.313005 L 450.736414 141.018079 L 454.354801 142.723153 L 457.973188 144.428227 L 461.591574 146.133301 L 465.209961 147.838375 L 468.828348 149.543449 L 472.446735 151.248523 L 474.738182 152.359855 L 471.055658 150.798118 L 467.373135 149.236381 L 470.894947 151.109826 L 474.426603 152.987964 L 477.958259 154.866103 L 481.489916 156.744241 L 485.021572 158.622380 L 488.553228 160.500519 L 492.084884 162.378657 L 495.616540 164.256796 L 499.148197 166.134934 L 502.679853 168.013073 L 506.211509 169.891212 L 509.743165 171.769350 L 513.274821 173.647489 L 516.806477 175.525627 L 520.396154 177.289432 L 523.997171 179.030891 L 527.598187 180.772351 L 531.199204 182.513810 L 534.800220 184.255269 L 538.401237 185.996728 L 542.002253 187.738188 L 545.603270 189.479647 L 549.192998 191.243388 L 552.727136 193.116852 L 556.261274 194.990316 L 559.795412 196.863780 L 563.329550 198.737244 L 566.863688 200.610708 L 570.397826 202.484172 L 572.659450 203.683070" fill="none" id="17" stroke="black" stroke-width="0.5" /><path d="M 348.533460 394.005900 L 352.294721 392.644682 L 356.055982 391.283464 L 359.776101 389.820729 L 363.423788 388.179272 L 367.071475 386.537815 L 370.719161 384.896358 L 374.303712 383.123408 L 377.865587 381.303230 L 381.415108 379.460321 L 384.879850 377.461431 L 388.344592 375.462541 L 391.809334 373.463651 L 395.274076 371.464760 L 398.687494 369.382862 L 402.023979 367.176537 L 405.360463 364.970212 L 408.696948 362.763887 L 412.033432 360.557561 L 415.369917 358.351236 L 418.706401 356.144911 L 422.042885 353.938585 L 425.379370 351.732260 L 428.739830 349.562655 L 432.101767 347.395310 L 435.463703 345.227965 L 438.825639 343.060620 L 442.187576 340.893275 L 445.549512 338.725930 L 448.911448 336.558585 L 452.273385 334.391240 L 455.635321 332.223895 L 458.997257 330.056550 L 462.359193 327.889205 L 465.721130 325.721860 L 469.083066 323.554515 L 472.412707 321.338263 L 475.726222 319.097588 L 479.039736 316.856914 L 482.353251 314.616239 L 485.666765 312.375565 L 488.980279 310.134890 L 492.293794 307.894216 L 495.607308 305.653541 L 498.920823 303.412867 L 502.234337 301.172192 L 505.547852 298.931518 L 508.861366 296.690843 L 512.174880 294.450169 L 515.488395 292.209494 L 518.801909 289.968820 L 522.115424 287.728145 L 525.428938 285.487471 L 528.726599 283.224306 L 531.950617 280.856669 L 535.174635 278.489031 L 538.398653 276.121393 L 541.622671 273.753756 L 544.846689 271.386118 L 546.297240 270.320870" fill="none" id="18" stroke="black" stroke-width="0.5" /><path d="M 278.423230 341.517720 L 275.001060 339.446790 L 271.578890 337.375860 L 272.930119 338.954241 L 276.289062 341.126222 L 279.648005 343.298203 L 283.006949 345.470184 L 286.365892 347.642164 L 289.724835 349.814145 L 293.083778 351.986126 L 296.442722 354.158107 L 299.801665 356.330087 L 303.160608 358.502068 L 306.519551 360.674049 L 309.878495 362.846029 L 313.237438 365.018010 L 316.596381 367.189991 L 319.955324 369.361972 L 323.314268 371.533952 L 326.673211 373.705933 L 330.145066 375.691848 L 333.622550 377.668489 L 337.100033 379.645130 L 340.577516 381.621771 L 344.055000 383.598412 L 347.532483 385.575053 L 351.009966 387.551694 L 354.487450 389.528335 L 357.964933 391.504976 L 361.442416 393.481617 L 364.919900 395.458258 L 368.397383 397.434899 L 371.874867 399.411540 L 375.352350 401.388181 L 376.785430 402.202760" fill="none" id="19" stroke="black" stroke-width="0.5" /><path d="M 59.053150 202.289370 L 55.839151 199.908149 L 52.625153 197.526928 L 49.180530 195.529684 L 49.567037 196.699116 L 53.036289 198.690167 L 56.505542 200.681218 L 59.974795 202.672270 L 63.435075 204.678278 L 66.824692 206.802070 L 70.214309 208.925863 L 73.603926 211.049656 L 76.947622 213.242548 L 80.218461 215.545072 L 83.489299 217.847595 L 86.760138 220.150119 L 90.030977 222.452642 L 93.301815 224.755166 L 96.572654 227.057689 L 99.843493 229.360213 L 103.148848 231.609958 L 106.569401 233.683558 L 109.989954 235.757158 L 113.410507 237.830758 L 116.831060 239.904358 L 120.251613 241.977958 L 123.672166 244.051558 L 127.092719 246.125158 L 130.513272 248.198758 L 133.915494 250.301757 L 137.282904 252.460588 L 140.650314 254.619418 L 144.017724 256.778249 L 144.250000 256.927160" fill="none" id="20" stroke="black" stroke-width="0.5" /><path d="M 79.746060 189.911420 L 79.431100 193.895789 L 79.431100 197.895789 L 79.431100 201.895789 L 79.462851 205.895554 L 79.522148 209.895114 L 79.581444 213.894675 L 79.640741 217.894235 L 79.700037 221.893795 L 79.759334 225.893356 L 79.818630 229.892916 L 79.877927 233.892477 L 80.069672 237.886206 L 80.362131 241.875500 L 81.238624 245.770049 L 81.887790 248.328740" fill="none" id="21" stroke="black" stroke-width="0.5" /><path d="M 355.084650 376.525590 L 354.010588 372.848664 L 355.120804 376.215625 L 355.539013 380.193702 L 355.957221 384.171780 L 356.375430 388.149858 L 356.793639 392.127935 L 357.211847 396.106013 L 357.630056 400.084090 L 358.048265 404.062168 L 358.466473 408.040246 L 358.884682 412.018323 L 358.990160 413.021650" fill="none" id="22" stroke="black" stroke-width="0.5" /></svg>