<?xml version="1.0" encoding="utf-8" ?>
<svg baseProfile="full" height="763.863915" version="1.1" viewBox="0,0,509.863915,763.863915" width="509.863915" xmlns="http://www.w3.org/2000/svg" xmlns:ev="http://www.w3.org/2001/xml-events" xmlns:xlink="http://www.w3.org/1999/xlink"><defs><style type="text/css"><![CDATA[
	.background { fill: white; }
	.line { stroke: firebrick; stroke-width: .1mm; }
	.blacksquare { fill: indigo; }
	.whitesquare { fill: white; }
]]></style></defs><rect class="background" height="100%" width="100%" x="0" y="0" /><path d="M 58.447698 578.817788 L 60.447986 582.237551 L 63.045929 585.279045 L 65.679040 588.288758 L 68.442950 591.180263 L 71.206860 594.071768 L 73.970771 596.963273 L 76.734680 599.854778 L 79.498590 602.746284 L 82.262501 605.637788 L 85.026410 608.529293 L 87.807688 611.403654 L 90.663249 614.204683 L 93.518811 617.005713 L 96.374373 619.806742 L 99.229935 622.607771 L 102.104093 625.389542 L 105.003445 628.145219 L 107.902798 630.900895 L 110.802151 633.656572 L 113.701504 636.412249 L 116.600856 639.167926 L 119.500208 641.923603 L 122.399561 644.679281 L 125.298913 647.434957 L 128.198267 650.190633 L 131.161834 652.876302 L 134.157094 655.527418 L 137.152354 658.178534 L 140.147614 660.829651 L 143.153605 663.468200 L 146.241042 666.011374 L 149.328479 668.554549 L 152.463217 671.038758 L 155.615510 673.501082 L 158.783136 675.943378 L 161.983136 678.343378 L 165.183136 680.743377 L 168.383137 683.143377 L 171.583137 685.543377 L 174.783137 687.943377 L 177.983137 690.343376 L 181.183137 692.743376 L 184.383138 695.143376 L 187.583138 697.543376 L 190.783138 699.943376 L 193.983137 702.343375 L 197.194558 704.727702 L 200.459561 707.038494 L 203.724562 709.349287 L 206.989564 711.660080 L 210.254566 713.970872 L 213.534787 716.259759 L 216.839696 718.513106 L 220.144605 720.766455 L 223.449514 723.019802 L 226.754423 725.273149 L 230.059332 727.526498 L 233.364241 729.779844 L 236.669151 732.033192 L 239.974060 734.286541 L 243.235972 736.601124 L 246.477686 738.944474 L 249.719399 741.287825 L 252.961113 743.631175 L 256.202827 745.974526 L 259.444541 748.317876 L 262.686254 750.661227 L 265.927968 753.004578 L 269.169682 755.347928 L 272.411396 757.691279 L 275.688279 759.984910 L 278.977451 762.261167 L 280.179988 763.093377" fill="none" id="2" stroke="black" stroke-width="0.863915" /><path d="M 265.093367 758.014637 L 268.679843 757.622281 L 271.694979 754.993792 L 274.710116 752.365303 L 277.725252 749.736815 L 280.740388 747.108326 L 283.839988 744.581221 L 286.969777 742.090353 L 290.099565 739.599485 L 293.229354 737.108618 L 296.359143 734.617750 L 299.417736 732.041343 L 302.435333 729.415679 L 305.452928 726.790015 L 308.377586 724.061346 L 311.298631 721.328674 L 314.219676 718.596002 L 317.093407 715.813698 L 319.962524 713.026555 L 322.831640 710.239411 L 325.671931 707.423255 L 328.477441 704.572096 L 331.248321 701.687589 L 333.991538 698.776446 L 336.734757 695.865302 L 339.477974 692.954159 L 342.221192 690.043015 L 344.964409 687.131872 L 347.707628 684.220728 L 350.450845 681.309585 L 353.194063 678.398441 L 355.937280 675.487298 L 358.680498 672.576154 L 361.423716 669.665011 L 364.147687 666.736165 L 366.819831 663.759649 L 369.491975 660.783133 L 372.164119 657.806617 L 374.819237 654.815118 L 377.432029 651.786369 L 380.044822 648.757621 L 382.657614 645.728872 L 385.270406 642.700124 L 387.883197 639.671375 L 390.495990 636.642627 L 393.108782 633.613878 L 395.773762 630.631213 L 398.455884 627.663686 L 401.138007 624.696158 L 403.820129 621.728632 L 406.502251 618.761103 L 409.184373 615.793575 L 411.866495 612.826048 L 412.179988 612.479197" fill="none" id="3" stroke="black" stroke-width="0.863915" /><path d="M 216.368958 497.628807 L 219.758239 495.504479 L 223.147520 493.380150 L 226.536800 491.255821 L 229.926083 489.131492 L 233.315364 487.007163 L 236.704645 484.882835 L 240.093926 482.758506 L 243.353495 480.442648 L 246.583938 478.083784 L 249.814380 475.724919 L 253.006843 473.315037 L 256.193248 470.897018 L 259.379655 468.478998 L 262.566060 466.060980 L 265.752467 463.642960 L 268.938873 461.224941 L 272.125279 458.806921 L 275.311685 456.388902 L 278.538472 454.026069 L 281.807243 451.720611 L 285.076014 449.415154 L 288.403030 447.196352 L 291.772162 445.040209 L 295.141293 442.884065 L 298.551640 440.795496 L 302.010762 438.786898 L 305.469887 436.778301 L 308.929011 434.769702 L 312.388134 432.761105 L 315.847258 430.752508 L 319.306380 428.743911 L 322.765505 426.735313 L 326.224628 424.726716 L 329.683752 422.718118 L 333.150196 420.722381 L 336.643430 418.773710 L 340.136663 416.825040 L 343.629897 414.876368 L 347.123131 412.927697 L 350.616364 410.979026 L 354.101067 409.015254 L 357.573402 407.029583 L 361.045738 405.043912 L 364.518073 403.058241 L 367.990408 401.072569 L 371.462742 399.086899 L 374.935078 397.101227 L 378.407413 395.115556 L 381.881187 393.132449 L 385.385442 391.203666 L 388.889696 389.274885 L 392.393951 387.346104 L 395.898206 385.417323 L 399.402461 383.488541 L 402.906716 381.559759 L 406.424648 379.656264 L 409.956657 377.778788 L 413.488665 375.901311 L 417.020672 374.023834 L 420.552682 372.146358 L 424.084690 370.268881 L 427.616697 368.391405 L 431.148706 366.513928 L 434.680714 364.636452 L 438.177409 362.695249 L 441.641770 360.695698 L 445.106131 358.696147 L 448.570492 356.696596 L 452.034852 354.697046 L 455.499212 352.697495 L 458.963573 350.697944 L 462.427934 348.698392 L 464.935888 347.250857" fill="none" id="5" stroke="black" stroke-width="0.863915" /><path d="M 253.313848 202.943768 L 257.040314 201.489997 L 260.766779 200.036225 L 264.576707 198.820628 L 268.395509 197.630351 L 272.244937 196.543205 L 276.094405 195.456194 L 279.943873 194.369183 L 283.793342 193.282172 L 287.642810 192.195160 L 291.492278 191.108148 L 295.341747 190.021138 L 299.191215 188.934127 L 303.018337 187.771353 L 306.841498 186.595157 L 310.664660 185.418963 L 314.481471 184.223440 L 318.257270 182.903082 L 322.033068 181.582723 L 325.808867 180.262365 L 329.584665 178.942006 L 333.360462 177.621646 L 337.136261 176.301288 L 340.912059 174.980930 L 344.687859 173.660572 L 348.463657 172.340213 L 352.239455 171.019855 L 356.015254 169.699496 L 359.790627 168.377950 L 363.547228 167.003922 L 367.303828 165.629894 L 371.060429 164.255865 L 374.817028 162.881838 L 378.573630 161.507810 L 382.299770 160.053437 L 386.023122 158.591709 L 389.746474 157.129981 L 393.469827 155.668253 L 397.193178 154.206525 L 400.916531 152.744798 L 404.639882 151.283070 L 408.363236 149.821342 L 412.085506 148.356897 L 415.794705 146.859619 L 419.503904 145.362340 L 423.213102 143.865061 L 426.922302 142.367784 L 430.631501 140.870505 L 434.308709 139.297535 L 437.967408 137.680772 L 441.626105 136.064008 L 445.284805 134.447244 L 448.943503 132.830480 L 452.602202 131.213716 L 456.260899 129.596952 L 459.919599 127.980188 L 463.571846 126.349227 L 467.196325 124.657139 L 470.820804 122.965053 L 474.445282 121.272966 L 478.069760 119.580880 L 481.694238 117.888793 L 485.318716 116.196708 L 488.943195 114.504621 L 492.567674 112.812534 L 496.192152 111.120447 L 499.816630 109.428360 L 503.475305 107.811782 L 507.137791 106.203616 L 508.841398 105.455577" fill="none" id="6" stroke="black" stroke-width="0.863915" /><path d="M 476.431958 38.746918 L 475.930326 42.712838 L 475.635997 46.701995 L 475.193064 50.676759 L 474.716410 54.648257 L 474.239756 58.619756 L 473.763101 62.591255 L 473.366876 66.571001 L 473.027455 70.556574 L 472.688033 74.542147 L 472.399547 78.531528 L 472.142719 82.523274 L 471.885893 86.515020 L 471.629065 90.506767 L 471.372236 94.498514 L 471.115409 98.490260 L 470.927811 102.485754 L 470.752157 106.481896 L 470.576503 110.478037 L 470.400848 114.474178 L 470.225194 118.470320 L 470.049541 122.466461 L 469.873887 126.462603 L 469.716000 130.459403 L 469.595527 134.457588 L 469.475054 138.455774 L 469.354582 142.453958 L 469.234109 146.452144 L 469.113637 150.450330 L 468.993165 154.448515 L 468.872693 158.446701 L 468.752221 162.444885 L 468.631748 166.443071 L 468.511276 170.441257 L 468.390803 174.439442 L 468.270331 178.437628 L 468.149858 182.435812 L 468.029385 186.433998 L 467.908913 190.432184 L 467.730197 194.427946 L 467.518105 198.422319 L 467.306014 202.416692 L 467.093922 206.411065 L 466.881831 210.405438 L 466.669738 214.399811 L 466.457648 218.394185 L 466.193651 222.385447 L 465.927101 226.376556 L 465.660551 230.367665 L 465.350123 234.355467 L 465.015499 238.341446 L 464.680874 242.327424 L 464.346249 246.313403 L 464.011623 250.299382 L 463.676999 254.285360 L 463.314213 258.268564 L 462.864259 262.243176 L 462.414304 266.217787 L 461.957022 270.191498 L 461.429337 274.156538 L 460.901651 278.121578 L 460.373964 282.086619 L 459.846278 286.051660 L 459.318593 290.016701 L 458.790907 293.981741 L 458.207021 297.938729 L 457.599929 301.892390 L 456.992835 305.846050 L 456.385741 309.799712 L 455.778648 313.753374 L 455.171555 317.707035 L 454.564461 321.660697 L 453.957368 325.614357 L 453.350275 329.568018 L 452.743181 333.521681 L 452.136088 337.475342 L 451.528995 341.429003 L 450.921901 345.382664 L 450.314808 349.336325 L 449.707715 353.289986 L 449.100620 357.243648 L 448.493528 361.197310 L 447.886435 365.150971 L 447.279340 369.104631 L 446.672248 373.058292 L 446.065155 377.011955 L 445.458060 380.965616 L 444.850968 384.919277 L 444.266958 388.876395 L 443.689586 392.834505 L 443.112212 396.792616 L 442.534839 400.750726 L 441.957466 404.708837 L 441.380092 408.666947 L 440.904398 411.928018" fill="none" id="7" stroke="black" stroke-width="0.863915" /><path d="M 470.731168 83.345348 L 471.274653 87.308253 L 471.486839 91.301413 L 471.585191 95.300203 L 471.683541 99.298994 L 471.781893 103.297785 L 471.880244 107.296575 L 471.978595 111.295367 L 472.102615 115.293172 L 472.310970 119.287742 L 472.519326 123.282311 L 472.727682 127.276882 L 472.936037 131.271452 L 473.144393 135.266022 L 473.352748 139.260592 L 473.561104 143.255161 L 473.698586 147.252784 L 473.834429 151.250476 L 473.970275 155.248169 L 474.106119 159.245861 L 474.232342 163.243774 L 474.279484 167.243496 L 474.326627 171.243219 L 474.373768 175.242941 L 474.420911 179.242663 L 474.468053 183.242385 L 474.462525 187.242274 L 474.440690 191.242214 L 474.418856 195.242154 L 474.397020 199.242095 L 474.375186 203.242036 L 474.353352 207.241976 L 474.163771 211.237459 L 473.973153 215.232915 L 473.782533 219.228370 L 473.591913 223.223825 L 473.401294 227.219280 L 473.210673 231.214736 L 472.975347 235.207707 L 472.722206 239.199690 L 472.469064 243.191672 L 472.215922 247.183653 L 471.962780 251.175635 L 471.709637 255.167617 L 471.456496 259.159599 L 471.203353 263.151581 L 470.950212 267.143563 L 470.683491 271.134593 L 470.377935 275.122906 L 470.072380 279.111219 L 469.766824 283.099531 L 469.461270 287.087844 L 469.155713 291.076156 L 468.829372 295.062734 L 468.469636 299.046525 L 468.109899 303.030316 L 467.750164 307.014107 L 467.390428 310.997897 L 467.030692 314.981688 L 466.632528 318.961769 L 466.223539 322.940806 L 465.814550 326.919842 L 465.405562 330.898878 L 464.996574 334.877914 L 464.587584 338.856949 L 464.178597 342.835985 L 463.769608 346.815022 L 463.379106 350.795878 L 463.004338 354.778282 L 462.629570 358.760688 L 462.254801 362.743092 L 461.880034 366.725498 L 461.505266 370.707902 L 461.130497 374.690308 L 460.755730 378.672712 L 460.380962 382.655117 L 460.006192 386.637521 L 459.631425 390.619927 L 459.256657 394.602331 L 458.881889 398.584737 L 458.507120 402.567141 L 458.132353 406.549547 L 457.757585 410.531951 L 457.359956 414.512090 L 456.945245 418.490533 L 456.530533 422.468976 L 456.115823 426.447421 L 455.701112 430.425864 L 455.286401 434.404308 L 454.871690 438.382751 L 454.456978 442.361196 L 454.042268 446.339640 L 453.627556 450.318083 L 453.177099 454.292390 L 452.671993 458.260370 L 452.166889 462.228350 L 451.661783 466.196330 L 451.156678 470.164310 L 450.602505 474.125464 L 450.005115 478.080602 L 449.407726 482.035742 L 448.810337 485.990881 L 448.212947 489.946021 L 447.567838 493.893640 L 446.919942 497.840820 L 446.272046 501.788000 L 445.624150 505.735180 L 444.976254 509.682360 L 444.328360 513.629540 L 443.627612 517.567461 L 442.895177 521.499832 L 442.162742 525.432203 L 441.420907 529.362704 L 440.593528 533.276200 L 439.766152 537.189695 L 438.938774 541.103191 L 438.111396 545.016686 L 437.284018 548.930182 L 436.778408 551.321717" fill="none" id="8" stroke="black" stroke-width="0.863915" /><path d="M 158.321718 639.715417 L 158.542188 643.707390 L 158.370452 647.685766 L 157.943768 649.353217" fill="none" id="9" stroke="black" stroke-width="0.863915" /><path d="M 158.699668 647.298097 L 158.082488 651.233579 L 157.345337 650.935897" fill="none" id="10" stroke="black" stroke-width="0.863915" /><path d="M 151.455578 639.597307 L 149.833025 635.983881 L 148.590826 632.193442 L 147.755479 628.291998 L 147.516745 625.698583 L 147.956881 629.665028 L 148.513506 633.626110 L 149.070130 637.587192 L 149.626754 641.548274 L 150.183379 645.509356 L 150.578370 649.489730 L 150.969692 653.470542 L 151.361013 657.451355 L 151.752334 661.432167 L 152.143654 665.412981 L 152.534976 669.393792 L 152.926298 673.374605 L 153.317619 677.355417 L 153.660298 680.841407" fill="none" id="12" stroke="black" stroke-width="0.863915" /><path d="M 76.904398 369.951638 L 78.595265 371.892446 L 78.961497 375.872816 L 79.479687 379.837676 L 80.204043 383.771544 L 80.928399 387.705410 L 81.652756 391.639276 L 82.377112 395.573144 L 83.101468 399.507011 L 83.821438 403.441653 L 84.488300 407.385672 L 85.155164 411.329692 L 85.822027 415.273711 L 86.488890 419.217732 L 87.155755 423.161752 L 87.822617 427.105772 L 88.458845 431.054709 L 89.059699 435.009322 L 89.660552 438.963937 L 90.196745 442.927774 L 90.725400 446.892686 L 91.254055 450.857596 L 91.782709 454.822509 L 92.311364 458.787420 L 92.824895 462.754250 L 93.302333 466.725654 L 93.779771 470.697058 L 94.230486 474.671444 L 94.639865 478.650440 L 95.049245 482.629435 L 95.458624 486.608430 L 95.868002 490.587426 L 96.277381 494.566422 L 96.623145 498.551231 L 96.941561 502.538537 L 97.259977 506.525844 L 97.578393 510.513149 L 97.896809 514.500455 L 98.203161 518.488610 L 98.446242 522.481218 L 98.689322 526.473825 L 98.932403 530.466432 L 99.175483 534.459039 L 99.418565 538.451646 L 99.603186 542.447373 L 99.786452 546.443173 L 99.926761 550.440539 L 100.034830 554.439078 L 100.142899 558.437617 L 100.250968 562.436157 L 100.337468 566.434989 L 100.337468 570.434989 L 100.337468 574.434989 L 100.337468 578.434989 L 100.337468 582.434989 L 100.205773 586.430182 L 99.914122 590.419534 L 99.582117 594.404815 L 99.070789 598.371998 L 98.762657 600.762667" fill="none" id="13" stroke="black" stroke-width="0.863915" /><path d="M 54.195737 559.400457 L 56.661243 558.773597 L 57.461362 562.623629 L 58.573140 566.466018 L 59.543081 570.339026 L 60.901211 574.067394 L 62.864322 577.552533 L 64.854507 580.998788 L 67.194190 584.243150 L 69.533873 587.487512 L 71.760297 590.807362 L 73.997797 594.120772 L 76.355706 597.347743 L 79.136438 600.219766 L 81.859688 603.132632 L 84.357602 606.251297 L 87.080540 609.181417 L 90.140223 611.755709 L 93.215846 614.313158 L 96.321518 616.830667 L 99.631147 619.077074 L 102.867244 621.417697 L 105.712522 624.215589 L 105.597307 623.699678" fill="none" id="14" stroke="black" stroke-width="0.863915" /><path d="M 204.778408 705.361087 L 206.065539 707.921389 L 208.381044 711.176092 L 210.943398 714.247629 L 213.603356 717.234681 L 216.477254 720.011253 L 219.318700 722.824618 L 222.111505 725.688224 L 224.904311 728.551830 L 227.869669 731.222213 L 231.070084 733.619631 L 234.354936 735.902118 L 237.639788 738.184605 L 240.846004 740.574817 L 243.876782 743.182838 L 247.142636 745.478094 L 250.497884 747.655779 L 254.223725 748.883952 L 258.172735 749.456712 L 261.808613 748.943425 L 264.772748 746.273243 L 265.934858 742.562164 L 265.532710 738.592865 L 266.558409 734.882597 L 266.132738 731.222900 L 266.641878 727.389185 L 266.689512 731.306470 L 267.329588 735.240792 L 266.983137 739.202762 L 266.651651 743.174524 L 264.360421 746.093812 L 260.441840 746.770537 L 256.561670 746.140353 L 252.566474 746.022700 L 248.862494 744.701698 L 245.229859 743.051294 L 242.040350 740.671462 L 238.624111 738.590762 L 235.351137 736.298516 L 232.034726 734.072036 L 228.998802 731.467586 L 225.866948 728.982114 L 222.562759 726.734048 L 219.153218 724.644861 L 215.638811 722.734639 L 212.568876 720.241666 L 210.107748 717.100087 L 207.624910 713.979249 L 205.408328 711.762667" fill="none" id="15" stroke="black" stroke-width="0.863915" /><path d="M 453.376838 559.896527 L 450.632203 562.785134 L 447.604911 565.399613 L 444.577619 568.014093 L 441.550326 570.628572 L 438.523034 573.243052 L 435.495743 575.857531 L 432.468451 578.472012 L 429.480234 581.131042 L 426.493347 583.791587 L 423.506460 586.452132 L 420.519571 589.112678 L 417.587594 591.833087 L 414.679542 594.579583 L 411.847611 597.404371 L 409.020371 600.233985 L 406.193131 603.063600 L 403.365892 605.893214 L 400.538652 608.722828 L 397.711412 611.552442 L 394.858939 614.356105 L 391.951210 617.102942 L 389.043481 619.849779 L 386.135753 622.596616 L 383.228024 625.343454 L 380.320294 628.090289 L 377.306421 630.719867 L 374.284565 633.340630 L 371.262712 635.961393 L 368.240858 638.582156 L 365.219003 641.202919 L 362.197150 643.823681 L 359.175296 646.444444 L 356.153441 649.065207 L 353.131587 651.685969 L 350.059915 654.248160 L 346.988134 656.810221 L 343.916351 659.372281 L 340.844569 661.934342 L 337.772786 664.496402 L 334.692502 667.048023 L 331.561320 669.537137 L 328.430137 672.026252 L 325.280262 674.491450 L 322.108216 676.928275 L 318.935960 679.364824 L 315.721088 681.744865 L 312.506215 684.124907 L 309.291343 686.504949 L 306.076472 688.884990 L 302.861600 691.265032 L 299.646727 693.645074 L 296.406592 695.990577 L 293.164577 698.333510 L 289.922562 700.676444 L 286.680545 703.019376 L 283.438531 705.362309 L 280.245567 707.770727 L 277.085687 710.223308 L 274.668178 712.305977" fill="none" id="16" stroke="black" stroke-width="0.863915" /><path d="M 447.298097 567.361087 L 447.109118 569.740132 L 446.241940 573.605511 L 444.642646 577.208282 L 443.807470 581.094710 L 441.587243 584.374794 L 438.366190 586.704558 L 434.475057 587.435174 L 430.484485 587.666083 L 426.765878 586.442398 L 423.288964 584.464757 L 419.533783 583.118844 L 415.681385 582.042259 L 411.828987 580.965673 L 408.111304 579.493653 L 404.496979 577.785930 L 401.006149 575.832954 L 397.569382 573.790769 L 394.222575 571.600134 L 390.914827 569.353329 L 387.708055 566.963091 L 384.607336 564.436128 L 384.022508 563.959517" fill="none" id="18" stroke="black" stroke-width="0.863915" /><path d="M 52.872898 557.865027 L 52.833695 557.131574 L 53.669651 561.024239 L 54.195575 564.962847 L 54.930698 568.869340 L 56.512542 572.491736 L 58.323339 576.056603 L 60.457923 579.426576 L 62.844407 582.631144 L 64.983949 585.980861 L 67.562320 589.032255 L 70.323922 591.868215 L 73.120545 594.697801 L 75.890977 597.567611 L 78.865181 600.242329 L 81.920458 602.813425 L 85.232135 605.056815 L 88.381426 607.507185 L 91.348531 610.189775 L 94.682772 612.385077 L 97.351761 615.305766 L 100.082945 618.196312 L 103.452031 620.352526 L 106.814347 622.517646 L 109.758145 625.223916 L 112.564166 628.074572 L 112.652428 628.164237" fill="none" id="19" stroke="black" stroke-width="0.863915" /><path d="M 38.006758 392.628807 L 39.088344 389.962956 L 38.533538 386.103018 L 37.975258 382.191253 L 38.791318 378.300631 L 40.217796 374.654777 L 43.332030 372.318253 L 47.058509 370.941833 L 50.971215 370.125292 L 54.970364 370.094178 L 58.903543 370.808596 L 62.834324 371.549514 L 66.765104 372.290435 L 70.528917 373.634735 L 74.071254 375.481550 L 77.579994 377.402161 L 81.157286 379.188184 L 84.960017 380.423729 L 87.991007 381.219358" fill="none" id="20" stroke="black" stroke-width="0.863915" /><path d="M 35.487068 337.778417 L 37.129999 341.055117 L 39.424017 344.322043 L 41.629166 347.659306 L 43.948191 350.914183 L 46.625988 353.882836 L 49.462899 356.694653 L 52.496906 359.301335 L 55.481445 361.959106 L 58.184344 364.907722 L 60.997219 367.735568 L 64.291591 369.981120 L 67.860295 371.787537 L 71.236900 373.931959 L 74.823285 375.693948 L 78.446317 377.389129 L 74.816395 377.268373 L 71.176846 375.625304 L 67.628211 373.779445 L 64.157423 371.792040 L 60.698116 369.783761 L 57.364177 367.578980 L 54.573985 364.717332 L 51.906088 361.737009 L 49.369985 358.660455 L 47.699300 355.031489 L 45.944144 351.441362 L 43.681622 348.145252 L 41.386020 344.869552 L 40.935887 344.227238" fill="none" id="21" stroke="black" stroke-width="0.863915" /><path d="M 198.888648 455.439828 L 200.540958 456.149412 L 204.273062 457.548756 L 207.793035 459.448701 L 211.313007 461.348646 L 214.832980 463.248592 L 218.352953 465.148537 L 221.688185 467.348633 L 224.974124 469.628960 L 228.453981 471.601418 L 231.926911 473.585291 L 235.282992 475.761691 L 238.339977 478.330152 L 241.325799 480.991894 L 244.311621 483.653636 L 246.660168 486.862432 L 248.317692 490.493060 L 249.790110 494.212197 L 251.581678 497.783297 L 252.909851 501.537447 L 253.030378 505.528839 L 253.030378 509.528839 L 253.030378 513.528839 L 253.498213 517.501238 L 253.100385 517.990553 L 252.557938 516.998887" fill="none" id="22" stroke="black" stroke-width="0.863915" /><path d="M 196.022508 448.589438 L 199.032267 451.064544 L 202.473242 453.081899 L 205.978268 454.998997 L 209.366849 457.118328 L 212.977975 458.838726 L 216.504307 460.723386 L 219.998287 462.670719 L 223.492266 464.618051 L 227.104346 466.325709 L 230.897995 467.593869 L 234.754514 468.641385 L 238.737336 468.907278 L 242.556462 467.848724 L 246.033568 465.975279 L 248.447349 462.852915 L 250.489311 459.413382 L 252.149535 455.782202 L 252.726604 451.839745 L 252.780665 447.840233 L 253.607391 448.254414 L 253.868823 452.230969 L 253.780378 456.229990 L 253.691933 460.229014 L 250.896272 463.047078 L 247.611035 465.322949 L 243.852772 466.553591 L 239.857470 466.581591 L 235.890760 466.148546 L 231.947418 465.743179 L 228.095232 464.676822 L 224.272720 463.540642 L 220.431980 462.451119 L 216.667301 461.122056 L 213.075397 459.361878 L 209.483493 457.601700 L 206.004826 455.628344 L 202.993548 453.022393 L 201.628808 449.416207" fill="none" id="23" stroke="black" stroke-width="0.863915" /><path d="M 21.597307 200.014638 L 25.030157 199.127470 L 28.273314 196.788568 L 31.494407 194.420552 L 34.616851 191.920484 L 37.537891 189.189865 L 40.280945 186.282944 L 42.938400 183.293306 L 45.595856 180.303670 L 48.330601 177.386385 L 51.138566 174.537643 L 53.946531 171.688900 L 56.895197 168.987859 L 59.876803 166.321394 L 62.858408 163.654932 L 65.840013 160.988468 L 68.740848 158.235790 L 71.595799 155.434139 L 74.450751 152.632487 L 77.266622 149.793203 L 79.958641 146.834649 L 82.650658 143.876096 L 85.252229 140.838040 L 87.841056 137.788781 L 90.429884 134.739523 L 92.997390 131.672663 L 95.501272 128.553276 L 98.005152 125.433888 L 100.509034 122.314500 L 103.012915 119.195113 L 105.516797 116.075727 L 108.020679 112.956339 L 110.524559 109.836951 L 113.028441 106.717563 L 115.625673 103.675525 L 118.344344 100.742229 L 121.084444 97.828151 L 123.887510 94.975238 L 126.720907 92.151790 L 129.554305 89.328342 L 132.387702 86.504893 L 135.064571 83.535657 L 137.679840 80.509046 L 139.983486 77.242523 L 141.831540 73.697586 L 143.390978 70.014088 L 144.337468 67.778417" fill="none" id="26" stroke="black" stroke-width="0.863915" /><path d="M 243.014628 304.565818 L 246.918093 304.306629 L 250.398770 302.356900 L 253.864706 300.362738 L 257.418700 298.527222 L 261.022438 296.792526 L 264.686645 295.192216 L 268.395613 293.694365 L 272.109235 292.208829 L 275.881881 290.879490 L 279.654527 289.550151 L 283.427172 288.220812 L 287.230866 286.983569 L 291.038310 285.757445 L 294.845752 284.531319 L 298.653193 283.305195 L 302.460637 282.079070 L 306.268079 280.852945 L 310.075522 279.626820 L 313.882964 278.400694 L 317.685839 277.161153 L 321.450671 275.809844 L 325.215505 274.458537 L 328.980338 273.107229 L 332.718506 271.685194 L 336.438413 270.214719 L 340.158319 268.744243 L 343.878225 267.273769 L 347.598132 265.803293 L 351.318038 264.332819 L 354.989959 262.748893 L 358.636011 261.103811 L 362.282065 259.458729 L 365.928118 257.813648 L 369.556524 256.131112 L 373.146240 254.366478 L 376.735956 252.601844 L 380.325673 250.837209 L 383.915390 249.072575 L 387.505107 247.307940 L 391.094823 245.543306 L 394.698696 243.808029 L 398.314642 242.097785 L 401.930588 240.387541 L 405.546535 238.677296 L 409.162481 236.967051 L 412.778427 235.256808 L 416.394372 233.546563 L 420.010317 231.836319 L 423.626263 230.126075 L 427.242210 228.415830 L 430.840858 226.669550 L 434.436951 224.917946 L 438.033045 223.166343 L 441.629138 221.414739 L 445.221753 219.656137 L 448.789859 217.848204 L 452.357963 216.040270 L 455.926068 214.232336 L 459.494173 212.424402 L 463.062279 210.616467 L 466.630384 208.808534 L 470.198489 207.000600 L 473.766594 205.192666 L 477.334699 203.384733 L 480.902805 201.576799 L 484.470911 199.768865 L 484.778408 199.613057" fill="none" id="27" stroke="black" stroke-width="0.863915" /><path d="M 462.069748 206.983137 L 464.176472 210.383390 L 466.246805 213.804229 L 466.884847 216.926513 L 465.065330 213.385762 L 463.421600 209.739099 L 461.771399 206.095514 L 459.978730 202.519715 L 458.110857 198.984216 L 456.063098 195.549138 L 453.934798 192.162348 L 451.806501 188.775558 L 449.678202 185.388768 L 447.549905 182.001978 L 445.421605 178.615188 L 443.293308 175.228397 L 441.165009 171.841608 L 439.036712 168.454818 L 436.908412 165.068027 L 434.780115 161.681238 L 432.604212 158.325125 L 430.399358 154.987668 L 428.194503 151.650211 L 425.989649 148.312754 L 423.745968 145.001412 L 421.486255 141.700851 L 419.226540 138.400292 L 416.966828 135.099732 L 414.707113 131.799172 L 412.447401 128.498613 L 410.194840 125.193307 L 408.032782 121.827968 L 405.870724 118.462629 L 403.708666 115.097290 L 401.546609 111.731951 L 399.384551 108.366613 L 397.222493 105.001273 L 395.060435 101.635936 L 392.898378 98.270596 L 390.736320 94.905257 L 388.574262 91.539918 L 386.412204 88.174579 L 384.250146 84.809241 L 382.088088 81.443902 L 379.918559 78.083436 L 377.710146 74.748334 L 375.501733 71.413230 L 373.292471 68.078706 L 370.992688 64.805939 L 368.692906 61.533174 L 366.393124 58.260407 L 364.023514 55.038118 L 361.636947 51.828088 L 359.250380 48.618057 L 356.792295 45.463281 L 354.288653 42.343701 L 351.785011 39.224121 L 349.242206 36.136885 L 346.652161 33.088661 L 344.062116 30.040436 L 341.472072 26.992213 L 338.882026 23.943988 L 336.291982 20.895764 L 333.681268 17.865679 L 330.995081 14.901832 L 328.308892 11.937985 L 325.622703 8.974138 L 322.936513 6.010292 L 320.250325 3.046444 L 317.880767 0.431957" fill="none" id="28" stroke="black" stroke-width="0.863915" /><path d="M 479.487068 365.203608 L 477.786639 366.325247 L 474.568758 368.700790 L 471.367063 371.098529 L 468.165368 373.496268 L 464.963674 375.894007 L 461.761979 378.291746 L 458.560285 380.689485 L 455.360379 383.089567 L 452.203259 385.545702 L 449.046140 388.001836 L 445.889020 390.457969 L 442.731899 392.914105 L 439.574781 395.370239 L 436.413309 397.820712 L 433.227962 400.240127 L 430.042616 402.659540 L 426.857270 405.078956 L 423.671922 407.498371 L 420.486577 409.917784 L 417.256387 412.276517 L 414.008398 414.611164 L 410.760412 416.945811 L 407.512425 419.280459 L 404.264436 421.615106 L 401.016450 423.949752 L 397.752888 426.262365 L 394.468039 428.544855 L 391.183189 430.827346 L 387.891003 433.099049 L 384.560997 435.315140 L 381.230993 437.531232 L 377.900986 439.747324 L 374.537758 441.912457 L 371.166470 444.065225 L 367.795182 446.217995 L 364.423893 448.370764 L 361.052605 450.523532 L 357.681315 452.676302 L 354.310027 454.829071 L 350.938738 456.981839 L 347.567451 459.134608 L 344.196162 461.287376 L 340.795592 463.393006 L 337.371651 465.461005 L 333.947710 467.529007 L 330.523769 469.597007 L 327.099828 471.665007 L 323.675885 473.733007 L 320.239369 475.779722 L 316.776045 477.781069 L 313.312721 479.782416 L 309.838560 481.764791 L 306.355374 483.731367 L 302.872189 485.697942 L 299.389004 487.664517 L 295.905819 489.631094 L 292.389972 491.538097 L 288.858817 493.417178 L 285.327663 495.296258 L 281.796507 497.175338 L 278.265352 499.054417 L 274.729370 500.923932 L 271.119836 502.647667 L 267.510302 504.371402 L 263.900767 506.095138 L 260.291233 507.818872 L 256.681698 509.542608 L 253.072165 511.266343 L 251.802028 511.872898" fill="none" id="31" stroke="black" stroke-width="0.863915" /><path d="M 461.093367 320.416207 L 460.053998 321.350581 L 460.315678 325.339571 L 460.400458 329.336005 L 460.400458 333.336005 L 460.175254 337.323944 L 459.748080 341.301069 L 459.153614 345.250941 L 457.180198 348.680764 L 455.022280 352.044376 L 452.146614 354.779056 L 448.805846 356.939500 L 445.035042 358.262947 L 441.097587 358.637250 L 437.424222 357.067450 L 433.756439 355.471405 L 430.012874 354.081992 L 426.141524 353.092244 L 422.222390 352.292000 L 418.582120 350.729560 L 416.128977 347.634150 L 415.046128 345.172118" fill="none" id="32" stroke="black" stroke-width="0.863915" /><path d="M 423.172108 354.242977 L 426.688536 356.149476 L 430.355266 357.703829 L 434.164586 358.924104 L 437.964450 360.169825 L 441.621930 361.781875 L 444.930214 364.008844 L 447.700456 366.879393 L 450.345258 369.880229 L 452.613008 373.168180 L 454.663670 376.602533 L 456.509768 380.147121 L 458.007669 383.850104 L 458.125383 385.349820 L 457.102096 381.517952 L 456.211895 377.620327 L 455.165862 373.766924 L 452.976500 370.470731 L 450.210490 367.581233 L 447.430654 364.706880 L 444.138330 362.449793 L 440.597938 360.604152 L 436.948070 358.967553 L 433.283542 357.369342 L 429.391733 356.510697 L 426.762657 356.794157" fill="none" id="33" stroke="black" stroke-width="0.863915" /><path d="M 421.502817 352.494948 L 425.404687 352.824951 L 429.069169 354.425728 L 432.663276 356.181403 L 436.257385 357.937078 L 439.747028 359.883216 L 443.046318 362.139271 L 446.022461 364.808558 L 448.654674 367.804004 L 450.777653 371.177596 L 452.338931 374.856885 L 453.159794 378.771751 L 453.574036 382.732547 L 453.647080 386.731879 L 453.660298 387.455578" fill="none" id="34" stroke="black" stroke-width="0.863915" /><path d="M 458.447698 381.833528 L 458.024302 385.809430 L 457.908096 389.807742 L 457.791892 393.806054 L 457.446713 397.790797 L 457.089932 401.774854 L 456.733150 405.758911 L 456.929692 403.577757 L 457.207734 399.589520 L 457.278836 395.590152 L 457.349937 391.590783 L 457.679372 387.609496 L 458.166034 383.639211 L 458.652695 379.668926 L 458.920138 379.288899 L 459.093068 383.282337 L 459.266597 387.275754 L 459.266597 391.275754 L 458.918842 395.256884 L 458.486025 399.233399 L 458.053207 403.209914 L 457.511161 407.172833 L 456.955981 411.134117 L 456.400801 415.095402 L 455.845620 419.056686 L 455.290441 423.017970 L 454.735262 426.979255 L 454.180082 430.940539 L 453.624902 434.901825 L 453.069723 438.863109 L 452.514543 442.824393 L 452.007721 446.791700 L 451.574229 450.768143 L 451.361087 453.998888" fill="none" id="35" stroke="black" stroke-width="0.863915" /><path d="M 429.124867 360.455578 L 431.744004 361.075671 L 435.329547 359.322717 L 439.092386 357.966683 L 442.703031 356.264697 L 446.289372 354.500354 L 449.441206 352.052927 L 451.846837 348.860439 L 453.924992 345.480761 L 454.635780 341.556640 L 454.960284 337.569825 L 455.593730 333.643970 L 457.430827 330.131687 L 460.111058 327.179282 L 460.778408 326.652427" fill="none" id="36" stroke="black" stroke-width="0.863915" /><path d="M 465.093367 214.069758 L 466.735864 210.864754 L 466.123529 214.817606 L 465.803642 218.797682 L 465.675855 222.795641 L 465.660298 226.795392 L 465.660298 230.795392 L 465.738270 234.793563 L 465.925857 238.789162 L 466.113443 242.784761 L 466.292951 246.780597 L 466.340361 250.780316 L 466.353218 254.780240 L 466.353218 258.780239 L 466.353218 262.780239 L 466.269058 266.779024 L 466.136966 270.776502 L 465.841477 274.765574 L 465.545989 278.754644 L 465.250500 282.743716 L 464.836110 286.721354 L 464.366125 290.693647 L 463.896140 294.665941 L 463.406024 298.635587 L 462.833661 302.594426 L 462.261298 306.553265 L 461.688935 310.512103 L 461.116572 314.470942 L 460.531387 318.427839 L 459.906503 322.378728 L 459.281619 326.329615 L 458.656734 330.280505 L 458.031849 334.231393 L 457.683720 338.208483 L 459.599803 340.540945 L 460.116987 340.376838" fill="none" id="37" stroke="black" stroke-width="0.863915" /><path d="M 443.298097 590.605187 L 443.070159 589.045763 L 440.162154 591.792104 L 437.260412 594.545264 L 434.358670 597.298424 L 431.456927 600.051584 L 428.555184 602.804745 L 425.653441 605.557905 L 422.751700 608.311065 L 419.909126 611.124783 L 417.089383 613.961868 L 414.269642 616.798954 L 411.449900 619.636039 L 408.630156 622.473124 L 405.810415 625.310210 L 402.990673 628.147295 L 400.170545 630.983980 L 397.230790 633.696514 L 394.291035 636.409048 L 391.351279 639.121582 L 388.411523 641.834116 L 385.471768 644.546649 L 382.405608 647.115276 L 379.656433 650.020539 L 376.830375 652.849688 L 373.945010 655.620007 L 371.063056 658.393770 L 368.265207 661.252449 L 365.323133 663.953529 L 362.228206 666.487583 L 359.187617 669.079920 L 356.363233 671.898277 L 353.108036 674.222861 L 349.873120 676.574054 L 346.768862 679.096668 L 343.664603 681.619283 L 340.560347 684.141898 L 337.456089 686.664513 L 334.309145 689.131009 L 331.049323 691.449102 L 327.898543 693.913154 L 324.751129 696.381716 L 321.603718 698.850278 L 318.620240 701.513413 L 315.673737 704.215826 L 313.094885 707.272132 L 310.260192 710.094279 L 307.265436 712.743517 L 304.233278 715.352352 L 301.310127 718.076178 L 298.403932 720.819034 L 295.339360 723.382980 L 292.030494 725.630513 L 288.721627 727.878044 L 285.448660 730.173189 L 282.377607 732.736123 L 279.306554 735.299058 L 276.188488 737.802249 L 272.975242 740.184484 L 269.670164 742.434119 L 266.526038 744.905408 L 263.425374 747.425800 L 260.827214 750.467110 L 258.775406 752.858325 L 262.374828 751.245373 L 265.572566 748.843272 L 268.643493 746.280186 L 271.714420 743.717100 L 274.841604 741.224902 L 278.035187 738.816369 L 281.228769 736.407837 L 284.422351 733.999304 L 287.467545 731.406659 L 290.331020 728.614537 L 293.250735 725.888734 L 296.450738 723.488740 L 299.448725 720.855838 L 301.960754 717.746206 L 304.837671 714.972425 L 307.771944 712.255951 L 310.552870 709.380808 L 313.333798 706.505666 L 316.350973 703.886917 L 319.443570 701.350019 L 322.320775 698.579083 L 325.402355 696.028816 L 328.378828 693.357008 L 331.358288 690.689077 L 334.518630 688.237090 L 337.678972 685.785104 L 340.839315 683.333118 L 343.941865 680.812120 L 346.910665 678.131407 L 350.226914 675.930447 L 353.591532 673.783290 L 356.811145 671.414299 L 360.173928 669.248269 L 363.440148 666.942278 L 366.576880 664.464165 L 369.619939 661.868055 L 372.663001 659.271946 L 375.706061 656.675837 L 378.749121 654.079727 L 381.792181 651.483618 L 384.865881 648.924076 L 387.954621 646.382485 L 391.210139 644.065261 L 394.256546 641.478854 L 397.078990 638.644456 L 400.030595 635.945588 L 402.992660 633.257669 L 405.829181 630.437359 L 408.651544 627.603536 L 411.336660 624.638718 L 414.021777 621.673899 L 416.706894 618.709081 L 419.392011 615.744263 L 421.901440 612.630600 L 424.384793 609.494845 L 427.213386 606.692397 L 430.500439 604.471342 L 433.248520 601.569462 L 435.523596 598.328199 L 435.676048 597.928018" fill="none" id="38" stroke="black" stroke-width="0.863915" /><path d="M 40.085498 430.636678 L 38.784530 426.854154 L 37.483563 423.071631 L 36.182595 419.289108 L 35.235108 416.534317" fill="none" id="39" stroke="black" stroke-width="0.863915" /><path d="M 35.361088 399.431958 L 36.105226 395.825347 L 38.384708 395.534317" fill="none" id="40" stroke="black" stroke-width="0.863915" /><path d="M 38.290218 330.739048 L 37.964908 327.240373 L 37.941122 331.190348 L 39.200264 334.983849 L 40.478985 338.763187 L 41.439491 342.632597 L 43.185292 346.198928 L 45.001964 349.759901 L 46.873564 353.291990 L 48.853839 356.764838 L 50.680336 360.310162 L 53.298268 363.330075 L 56.105346 366.174455 L 59.258577 368.617416 L 62.830209 370.418373 L 66.437076 372.145516 L 70.058366 373.841339 L 73.599260 375.702003 L 77.493067 376.468334 L 74.214912 376.351116 L 70.363656 375.306742 L 66.734510 373.624694 L 63.105363 371.942645 L 59.381689 370.486005 L 55.638306 369.076365 L 52.471129 366.857580 L 49.749468 363.967711 L 47.218971 361.012849 L 44.939551 357.732639 L 42.871217 354.325384 L 41.703392 350.515190 L 40.652169 346.659700 L 39.081232 342.981092 L 37.607331 339.268392 L 38.637062 335.767919 L 38.983138 335.534317" fill="none" id="41" stroke="black" stroke-width="0.863915" /><path d="M 114.794157 77.227238 L 115.934173 77.217861 L 113.709395 80.536508 L 111.395156 83.799067 L 108.823158 86.861774 L 106.164475 89.848745 L 103.436016 92.773725 L 100.707556 95.698704 L 97.979096 98.623684 L 95.250636 101.548665 L 92.522177 104.473644 L 89.811637 107.415014 L 87.141184 110.393047 L 84.470731 113.371080 L 81.800277 116.349114 L 79.129824 119.327146 L 76.459371 122.305178 L 73.788918 125.283211 L 71.118465 128.261245 L 68.448011 131.239278 L 65.777558 134.217310 L 63.135231 137.219980 L 60.534783 140.259333 L 57.935884 143.299970 L 55.433841 146.420833 L 52.931799 149.541695 L 50.514378 152.727642 L 48.140211 155.946855 L 45.787533 159.181567 L 43.481873 162.450195 L 41.176213 165.718824 L 38.870553 168.987453 L 36.564894 172.256082 L 34.200512 175.482155 L 31.812157 178.690857 L 29.423804 181.899558 L 27.035450 185.108260 L 24.647096 188.316962 L 22.258743 191.525663 L 19.911072 194.764034 L 17.585897 198.018809 L 15.260723 201.273584 L 12.981337 204.559492 L 10.809738 207.918681 L 8.638139 211.277871 L 6.506001 214.661941 L 4.411259 218.069587 L 2.316517 221.477234 L 0.431957 224.966553 L 0.431957 225.101247" fill="none" id="42" stroke="black" stroke-width="0.863915" /></svg>