<?xml version="1.0" encoding="utf-8" ?>
<svg baseProfile="full" height="685.5" version="1.1" viewBox="0,0,1118.5,685.5" width="1118.5" xmlns="http://www.w3.org/2000/svg" xmlns:ev="http://www.w3.org/2001/xml-events" xmlns:xlink="http://www.w3.org/1999/xlink"><defs><style type="text/css"><![CDATA[
	.background { fill: white; }
	.line { stroke: firebrick; stroke-width: .1mm; }
	.blacksquare { fill: indigo; }
	.whitesquare { fill: white; }
]]></style></defs><rect class="background" height="100%" width="100%" x="0" y="0" /><path d="M 469.307000 545.593000 L 474.183000 544.648000 L 479.032000 543.579000 L 483.865000 542.440000 L 488.688000 541.256000 L 493.491000 539.995000 L 498.259000 538.610000 L 502.990000 537.099000 L 507.703000 535.535000 L 512.416000 533.971000 L 517.129000 532.407000 L 521.842000 530.843000 L 526.556000 529.279000 L 531.269000 527.714000 L 535.982000 526.150000 L 540.695000 524.586000 L 545.409000 523.022000 L 550.111000 521.426000 L 554.759000 519.680000 L 559.352000 517.791000 L 563.944000 515.901000 L 568.537000 514.012000 L 573.129000 512.123000 L 577.745000 510.292000 L 582.387000 508.528000 L 587.040000 506.792000 L 591.693000 505.056000 L 596.346000 503.321000 L 600.998000 501.585000 L 605.651000 499.849000 L 610.304000 498.113000 L 614.957000 496.378000 L 619.609000 494.642000 L 624.262000 492.906000 L 628.909000 491.155000 L 633.539000 489.359000 L 638.146000 487.507000 L 642.754000 485.655000 L 647.362000 483.803000 L 651.970000 481.951000 L 656.577000 480.099000 L 661.185000 478.247000 L 665.793000 476.395000 L 670.400000 474.543000 L 675.008000 472.691000 L 679.615000 470.835000 L 684.213000 468.960000 L 688.797000 467.050000 L 693.381000 465.141000 L 697.966000 463.232000 L 702.550000 461.323000 L 707.134000 459.414000 L 711.719000 457.505000 L 716.303000 455.595000 L 720.887000 453.686000 L 725.472000 451.777000 L 730.056000 449.868000 L 734.640000 447.959000 L 739.225000 446.050000 L 743.809000 444.140000 L 748.393000 442.231000 L 752.978000 440.322000 L 757.562000 438.413000 L 762.146000 436.504000 L 766.731000 434.595000 L 771.315000 432.686000 L 775.900000 430.779000 L 780.498000 428.902000 L 785.101000 427.038000 L 789.705000 425.177000 L 794.309000 423.316000 L 798.913000 421.455000 L 803.517000 419.594000 L 808.122000 417.733000 L 812.726000 415.873000 L 817.330000 414.012000 L 821.934000 412.151000 L 826.538000 410.290000 L 831.142000 408.429000 L 835.747000 406.568000 L 840.351000 404.708000 L 844.955000 402.847000 L 849.559000 400.986000 L 854.163000 399.125000 L 858.767000 397.264000 L 863.371000 395.403000 L 867.976000 393.543000 L 872.580000 391.682000 L 877.184000 389.821000 L 881.788000 387.960000 L 886.392000 386.099000 L 890.996000 384.238000 L 895.601000 382.377000 L 900.205000 380.517000 L 904.809000 378.656000 L 909.413000 376.795000 L 914.017000 374.934000 L 918.638000 373.116000 L 923.276000 371.341000 L 927.920000 369.582000 L 932.564000 367.823000 L 937.208000 366.064000 L 941.852000 364.306000 L 946.496000 362.547000 L 951.151000 360.816000 L 955.839000 359.180000 L 960.547000 357.599000 L 965.259000 356.032000 L 969.971000 354.465000 L 974.684000 352.897000 L 979.396000 351.330000 L 984.108000 349.763000" fill="none" id="0" stroke="#c583d9" stroke-width="0.5" /><path d="M 16.596100 138.983000 L 21.560500 138.858000 L 26.511800 138.492000 L 31.436400 137.841000 L 36.226500 136.533000 L 41.030700 135.271000 L 45.844100 134.044000 L 50.658100 132.819000 L 55.472100 131.594000 L 60.286100 130.369000 L 65.100100 129.144000 L 69.914200 127.919000 L 74.728200 126.694000 L 79.542200 125.469000 L 84.356200 124.244000 L 89.170200 123.019000 L 93.984300 121.794000 L 98.798300 120.569000 L 103.612000 119.344000 L 108.426000 118.119000 L 113.240000 116.894000 L 118.054000 115.669000 L 122.868000 114.444000 L 127.682000 113.219000 L 132.496000 111.994000 L 137.310000 110.769000 L 142.124000 109.544000 L 146.939000 108.320000 L 151.754000 107.098000 L 156.573000 105.893000 L 161.394000 104.699000 L 166.217000 103.510000 L 171.041000 102.322000 L 175.864000 101.134000 L 180.687000 99.946600 L 185.511000 98.758900 L 190.334000 97.571100 L 195.157000 96.383400 L 199.981000 95.195700 L 204.804000 94.007900 L 209.627000 92.820200 L 214.451000 91.632400 L 219.274000 90.444700 L 224.097000 89.256900 L 228.921000 88.069200 L 233.744000 86.881400 L 238.567000 85.693700 L 243.391000 84.505900 L 248.214000 83.318200 L 253.038000 82.130400 L 257.861000 80.942700 L 262.684000 79.754900 L 267.508000 78.567200 L 272.330000 77.377000 L 277.145000 76.154900 L 281.948000 74.886000 L 286.747000 73.603500 L 291.544000 72.314700 L 296.339000 71.018500 L 301.135000 69.722300 L 305.930000 68.426100 L 310.746000 67.209100 L 315.593000 66.128800 L 320.471000 65.192000 L 325.326000 64.141500 L 330.156000 62.981800 L 334.981000 61.802900 L 339.807000 60.624000 L 344.632000 59.445100 L 349.458000 58.266100 L 354.283000 57.087200 L 359.109000 55.908300 L 363.934000 54.729400 L 368.760000 53.550500 L 373.585000 52.371500 L 378.411000 51.192600 L 383.236000 50.013700 L 388.062000 48.834800 L 392.887000 47.655900 L 397.713000 46.476900 L 402.538000 45.298000 L 407.364000 44.119100 L 412.190000 42.940200 L 417.015000 41.761300 L 421.841000 40.582300 L 426.666000 39.403400 L 431.492000 38.224500 L 436.317000 37.046000 L 441.144000 35.871600 L 445.975000 34.715100 L 450.822000 33.631400 L 455.677000 32.578700 L 460.534000 31.538000 L 465.391000 30.497300 L 470.249000 29.456700 L 475.106000 28.416000 L 479.963000 27.375300 L 484.820000 26.334700 L 489.677000 25.294000 L 494.535000 24.253300 L 499.392000 23.212600 L 504.249000 22.172000 L 509.106000 21.131300 L 513.963000 20.090600 L 518.821000 19.050000 L 523.678000 18.009300 L 528.535000 16.970900 L 533.397000 15.950400 L 538.266000 14.965700 L 543.146000 14.039800 L 548.028000 13.120200 L 552.909000 12.200900 L 557.791000 11.281600 L 562.672000 10.362300 L 567.554000 9.443030 L 572.436000 8.523720 L 577.317000 7.604420 L 582.199000 6.685120 L 587.081000 5.765820 L 591.962000 4.846510 L 596.844000 3.927210 L 601.725000 3.007910 L 606.607000 2.088610 L 611.489000 1.169303 L 616.370000 0.250000" fill="none" id="1" stroke="#f375a0" stroke-width="0.5" /><path d="M 776.832000 436.072000 L 780.191000 433.637000 L 783.701000 431.424000 L 787.471000 429.701000 L 791.270000 428.029000 L 795.080000 426.386000 L 798.896000 424.754000 L 802.712000 423.123000 L 806.528000 421.492000 L 810.345000 419.861000 L 814.161000 418.230000 L 817.977000 416.599000 L 821.793000 414.969000 L 825.609000 413.338000 L 829.426000 411.707000 L 833.242000 410.076000 L 837.061000 408.453000 L 840.895000 406.863000 L 844.745000 405.314000 L 848.602000 403.782000 L 852.460000 402.254000 L 856.327000 400.748000 L 860.215000 399.296000 L 864.120000 397.891000 L 868.027000 396.493000 L 871.935000 395.096000 L 875.843000 393.699000 L 879.751000 392.301000 L 883.658000 390.904000 L 887.566000 389.507000 L 891.474000 388.109000 L 895.382000 386.712000" fill="none" id="2" stroke="#9de993" stroke-width="0.5" /><path d="M 473.028000 542.101000 L 476.920000 541.059000 L 480.769000 539.870000 L 484.556000 538.495000 L 488.280000 536.958000 L 492.004000 535.422000 L 495.740000 533.913000 L 499.511000 532.495000 L 503.290000 531.098000 L 507.069000 529.701000 L 510.848000 528.305000 L 514.627000 526.909000 L 518.406000 525.512000 L 522.186000 524.116000 L 525.966000 522.724000 L 529.760000 521.369000 L 533.579000 520.085000 L 537.411000 518.842000 L 541.246000 517.605000 L 545.080000 516.367000 L 548.914000 515.130000 L 552.749000 513.893000 L 556.583000 512.656000 L 560.417000 511.419000 L 564.251000 510.182000 L 568.086000 508.945000 L 571.920000 507.707000 L 575.754000 506.470000 L 579.588000 505.233000 L 583.423000 503.996000 L 587.257000 502.759000" fill="none" id="3" stroke="#ad5ba7" stroke-width="0.5" /><path d="M 469.353000 523.403000 L 474.349000 523.429000 L 479.344000 523.334000 L 484.325000 523.013000 L 489.274000 522.324000 L 494.120000 521.114000 L 498.884000 519.623000 L 503.570000 517.893000 L 508.176000 515.956000 L 512.782000 514.019000 L 517.390000 512.085000 L 521.999000 510.155000 L 526.608000 508.225000 L 531.257000 506.396000 L 535.926000 504.615000 L 540.604000 502.860000 L 545.283000 501.105000 L 549.960000 499.348000 L 554.627000 497.563000 L 559.273000 495.724000 L 563.902000 493.843000 L 568.531000 491.961000 L 573.160000 490.078000 L 577.788000 488.196000 L 582.417000 486.314000 L 587.046000 484.431000 L 591.674000 482.549000 L 596.303000 480.667000 L 600.932000 478.784000 L 605.560000 476.902000 L 610.189000 475.020000 L 614.818000 473.138000 L 619.446000 471.255000 L 624.075000 469.373000 L 628.704000 467.491000 L 633.332000 465.608000 L 637.961000 463.726000 L 642.590000 461.844000 L 647.218000 459.961000 L 651.847000 458.079000 L 656.484000 456.218000 L 661.131000 454.381000 L 665.792000 452.580000 L 670.453000 450.780000 L 675.114000 448.979000 L 679.775000 447.178000 L 684.436000 445.377000 L 689.097000 443.576000 L 693.758000 441.776000 L 698.419000 439.975000 L 703.080000 438.174000 L 707.741000 436.373000 L 712.402000 434.573000 L 717.063000 432.772000 L 721.724000 430.971000 L 726.385000 429.170000 L 731.046000 427.369000 L 735.707000 425.569000 L 740.367000 423.765000 L 745.010000 421.919000 L 749.634000 420.026000 L 754.244000 418.099000 L 758.855000 416.172000 L 763.465000 414.245000 L 768.084000 412.341000 L 772.791000 410.663000 L 777.595000 409.304000 L 782.381000 407.888000 L 787.074000 406.173000 L 791.767000 404.458000 L 796.460000 402.743000 L 801.153000 401.028000 L 805.847000 399.313000 L 810.540000 397.598000 L 815.233000 395.883000 L 819.926000 394.168000 L 824.620000 392.453000 L 829.313000 390.738000 L 834.006000 389.023000 L 838.699000 387.308000 L 843.392000 385.592000 L 848.086000 383.877000 L 852.779000 382.162000 L 857.472000 380.447000 L 862.165000 378.732000 L 866.858000 377.017000 L 871.552000 375.302000 L 876.245000 373.587000 L 880.938000 371.872000 L 885.631000 370.157000 L 890.324000 368.442000 L 895.018000 366.727000 L 899.711000 365.012000 L 904.404000 363.297000 L 909.097000 361.582000 L 913.790000 359.866000 L 918.484000 358.152000 L 923.182000 356.450000 L 927.887000 354.769000 L 932.603000 353.116000 L 937.318000 351.463000 L 942.033000 349.810000 L 946.749000 348.157000 L 951.464000 346.504000 L 956.187000 344.873000 L 960.923000 343.278000 L 965.678000 341.743000 L 970.433000 340.208000 L 975.188000 338.673000 L 979.943000 337.137000 L 984.698000 335.602000 L 989.453000 334.067000 L 994.208000 332.532000 L 998.963000 330.996000 L 1003.720000 329.461000 L 1008.470000 327.926000 L 1013.230000 326.391000 L 1017.980000 324.855000 L 1022.740000 323.320000 L 1027.490000 321.785000 L 1032.250000 320.250000 L 1037.000000 318.714000 L 1041.760000 317.179000 L 1046.510000 315.644000 L 1051.270000 314.097000 L 1056.000000 312.512000 L 1060.730000 310.891000 L 1065.450000 309.265000 L 1070.180000 307.638000 L 1074.900000 306.012000 L 1079.630000 304.385000 L 1084.350000 302.759000 L 1089.080000 301.133000 L 1093.800000 299.506000 L 1098.530000 297.880000 L 1103.250000 296.254000 L 1107.980000 294.627000" fill="none" id="4" stroke="#57b870" stroke-width="0.5" /><path d="M 349.320000 570.243000 L 353.946000 568.431000 L 358.547000 566.558000 L 363.106000 564.584000 L 367.675000 562.634000 L 372.257000 560.715000 L 376.833000 558.780000 L 381.410000 556.850000 L 385.997000 554.941000 L 390.615000 553.110000 L 395.235000 551.284000 L 399.856000 549.459000 L 404.476000 547.633000 L 409.096000 545.808000 L 413.717000 543.983000 L 418.337000 542.157000 L 422.958000 540.332000 L 427.578000 538.507000 L 432.199000 536.682000 L 436.819000 534.856000 L 441.439000 533.031000 L 446.060000 531.206000 L 450.681000 529.382000 L 455.305000 527.566000 L 459.936000 525.768000 L 464.571000 523.978000 L 469.206000 522.190000 L 473.841000 520.402000 L 478.475000 518.614000 L 483.110000 516.826000 L 487.745000 515.038000 L 492.380000 513.250000 L 497.015000 511.462000 L 501.650000 509.674000 L 506.285000 507.886000 L 510.920000 506.098000 L 515.555000 504.310000 L 520.190000 502.522000 L 524.825000 500.734000 L 529.460000 498.946000 L 534.095000 497.158000 L 538.730000 495.370000 L 543.365000 493.582000 L 548.000000 491.793000 L 552.635000 490.005000 L 557.270000 488.217000 L 561.905000 486.429000 L 566.540000 484.641000 L 571.179000 482.864000 L 575.836000 481.135000 L 580.510000 479.450000 L 585.185000 477.769000 L 589.860000 476.089000 L 594.535000 474.408000 L 599.210000 472.727000 L 603.885000 471.047000 L 608.560000 469.366000 L 613.235000 467.686000 L 617.910000 466.005000 L 622.585000 464.325000 L 627.260000 462.644000 L 631.935000 460.964000 L 636.610000 459.283000 L 641.285000 457.603000 L 645.960000 455.922000 L 650.635000 454.242000 L 655.310000 452.561000 L 659.986000 450.881000 L 664.661000 449.200000 L 669.336000 447.520000 L 674.011000 445.839000 L 678.686000 444.159000 L 683.361000 442.478000 L 688.036000 440.798000 L 692.711000 439.117000 L 697.386000 437.437000 L 702.061000 435.756000 L 706.736000 434.076000 L 711.411000 432.395000 L 716.086000 430.714000 L 720.761000 429.034000 L 725.436000 427.353000 L 730.111000 425.673000 L 734.786000 423.992000 L 739.461000 422.312000 L 744.136000 420.631000 L 748.811000 418.951000 L 753.486000 417.270000 L 758.161000 415.590000 L 762.836000 413.909000 L 767.512000 412.229000 L 772.187000 410.548000 L 776.862000 408.868000 L 781.537000 407.187000 L 786.212000 405.507000 L 790.887000 403.826000 L 795.562000 402.146000 L 800.237000 400.465000 L 804.912000 398.785000 L 809.587000 397.104000 L 814.262000 395.424000 L 818.937000 393.743000 L 823.612000 392.062000 L 828.287000 390.382000 L 832.962000 388.701000 L 837.637000 387.021000 L 842.312000 385.340000 L 846.987000 383.660000 L 851.662000 381.979000 L 856.337000 380.299000 L 861.012000 378.618000 L 865.687000 376.938000 L 870.362000 375.257000 L 875.037000 373.577000 L 879.713000 371.896000 L 884.388000 370.216000" fill="none" id="5" stroke="#57b870" stroke-width="0.5" /><path d="M 341.292000 574.901000 L 346.117000 573.755000 L 350.867000 572.332000 L 355.571000 570.762000 L 360.290000 569.238000 L 364.982000 567.640000 L 369.619000 565.881000 L 374.255000 564.120000 L 378.887000 562.348000 L 383.476000 560.467000 L 388.038000 558.522000 L 392.595000 556.566000 L 397.152000 554.609000 L 401.709000 552.652000 L 406.266000 550.696000 L 410.823000 548.739000 L 415.380000 546.782000 L 419.937000 544.825000 L 424.494000 542.868000 L 429.051000 540.912000 L 433.608000 538.955000 L 438.165000 536.998000 L 442.723000 535.042000 L 447.286000 533.101000 L 451.871000 531.211000 L 456.468000 529.348000 L 461.066000 527.490000 L 465.664000 525.632000 L 470.262000 523.773000 L 474.860000 521.915000 L 479.458000 520.057000 L 484.056000 518.199000 L 488.653000 516.338000 L 493.243000 514.459000 L 497.813000 512.533000 L 502.377000 510.593000 L 506.940000 508.651000 L 511.503000 506.708000 L 516.066000 504.765000 L 520.629000 502.822000 L 525.193000 500.881000 L 529.759000 498.946000 L 534.349000 497.068000 L 538.958000 495.237000 L 543.574000 493.423000 L 548.191000 491.611000 L 552.807000 489.800000 L 557.427000 487.997000 L 562.057000 486.219000 L 566.703000 484.483000 L 571.357000 482.770000 L 576.011000 481.057000 L 580.665000 479.344000 L 585.319000 477.632000 L 589.973000 475.919000 L 594.628000 474.206000 L 599.282000 472.493000 L 603.936000 470.780000 L 608.590000 469.067000 L 613.244000 467.354000 L 617.898000 465.641000 L 622.552000 463.928000 L 627.207000 462.215000 L 631.861000 460.502000 L 636.515000 458.789000 L 641.169000 457.076000 L 645.823000 455.363000 L 650.477000 453.650000 L 655.132000 451.937000 L 659.786000 450.224000 L 664.440000 448.511000 L 669.094000 446.798000 L 673.748000 445.085000 L 678.402000 443.372000 L 683.056000 441.660000 L 687.711000 439.947000 L 692.365000 438.234000 L 697.019000 436.520000 L 701.671000 434.801000 L 706.318000 433.070000 L 710.960000 431.324000 L 715.600000 429.574000 L 720.240000 427.823000 L 724.881000 426.073000 L 729.521000 424.322000 L 734.161000 422.572000 L 738.801000 420.821000 L 743.441000 419.071000 L 748.081000 417.320000 L 752.722000 415.570000 L 757.362000 413.819000 L 762.002000 412.069000 L 766.642000 410.319000 L 771.282000 408.568000 L 775.922000 406.818000 L 780.563000 405.068000 L 785.207000 403.328000 L 789.865000 401.627000 L 794.553000 400.008000 L 799.242000 398.393000 L 803.931000 396.777000 L 808.620000 395.162000 L 813.309000 393.546000 L 817.997000 391.931000 L 822.686000 390.315000 L 827.375000 388.700000 L 832.064000 387.084000 L 836.753000 385.469000 L 841.442000 383.853000 L 846.131000 382.238000 L 850.820000 380.622000 L 855.508000 379.007000 L 860.197000 377.391000 L 864.886000 375.776000 L 869.575000 374.160000 L 874.264000 372.545000" fill="none" id="6" stroke="#57b870" stroke-width="0.5" /><path d="M 449.234000 534.283000 L 453.700000 532.108000 L 458.163000 529.927000 L 462.636000 527.769000 L 467.136000 525.664000 L 471.836000 524.068000 L 476.504000 522.376000 L 481.115000 520.529000 L 485.719000 518.664000 L 490.322000 516.798000 L 494.922000 514.924000 L 499.514000 513.029000 L 504.075000 511.063000 L 508.626000 509.072000 L 513.171000 507.066000 L 517.715000 505.061000 L 522.266000 503.070000 L 526.833000 501.118000 L 531.461000 499.315000 L 536.131000 497.624000 L 540.825000 495.999000 L 545.537000 494.426000 L 550.248000 492.853000 L 554.960000 491.279000 L 559.671000 489.706000 L 564.383000 488.133000 L 569.094000 486.559000 L 573.806000 484.986000 L 578.517000 483.413000 L 583.229000 481.840000 L 587.940000 480.266000 L 592.652000 478.693000 L 597.363000 477.120000 L 602.075000 475.547000 L 606.786000 473.973000 L 611.498000 472.400000 L 616.209000 470.827000 L 620.921000 469.254000 L 625.632000 467.680000 L 630.344000 466.107000 L 635.055000 464.534000 L 639.767000 462.960000 L 644.478000 461.387000 L 649.190000 459.814000 L 653.901000 458.241000 L 658.613000 456.667000 L 663.324000 455.094000 L 668.035000 453.517000 L 672.743000 451.934000 L 677.431000 450.293000 L 682.116000 448.641000 L 686.798000 446.983000 L 691.480000 445.325000 L 696.163000 443.666000 L 700.845000 442.008000 L 705.527000 440.349000 L 710.209000 438.691000 L 714.891000 437.032000 L 719.573000 435.374000 L 724.256000 433.715000 L 728.938000 432.057000 L 733.620000 430.398000 L 738.302000 428.740000 L 742.984000 427.081000 L 747.667000 425.423000 L 752.349000 423.764000 L 757.031000 422.106000 L 761.713000 420.447000 L 766.395000 418.789000 L 771.078000 417.130000 L 775.760000 415.472000 L 780.442000 413.813000 L 785.124000 412.155000 L 789.810000 410.507000 L 794.501000 408.873000 L 799.198000 407.257000 L 803.899000 405.655000 L 808.601000 404.052000 L 813.303000 402.450000 L 818.005000 400.848000 L 822.706000 399.245000 L 827.408000 397.643000 L 832.110000 396.041000 L 836.812000 394.439000 L 841.513000 392.836000 L 846.215000 391.234000 L 850.917000 389.632000 L 855.612000 388.010000 L 860.301000 386.371000 L 864.981000 384.707000 L 869.659000 383.037000 L 874.337000 381.365000 L 879.014000 379.694000 L 883.692000 378.022000 L 888.369000 376.350000 L 893.047000 374.679000 L 897.724000 373.007000 L 902.402000 371.335000 L 907.079000 369.664000 L 911.757000 367.992000 L 916.434000 366.321000 L 921.112000 364.649000 L 925.789000 362.977000 L 930.467000 361.306000 L 935.144000 359.634000 L 939.822000 357.962000 L 944.499000 356.291000 L 949.176000 354.616000 L 953.849000 352.932000 L 958.517000 351.234000 L 963.173000 349.504000 L 967.829000 347.772000 L 972.483000 346.038000 L 977.138000 344.304000 L 981.793000 342.571000 L 986.448000 340.837000 L 991.103000 339.103000 L 995.757000 337.367000 L 1000.410000 335.620000 L 1005.050000 333.855000 L 1009.670000 332.037000 L 1014.290000 330.214000 L 1018.910000 328.388000 L 1023.530000 326.562000 L 1028.170000 324.792000 L 1032.860000 323.152000 L 1037.600000 321.675000 L 1042.270000 319.969000 L 1046.930000 318.264000 L 1051.600000 316.558000 L 1056.260000 314.853000 L 1060.930000 313.147000 L 1065.590000 311.442000 L 1070.260000 309.736000 L 1074.920000 308.031000 L 1079.590000 306.325000 L 1084.250000 304.620000 L 1088.920000 302.922000 L 1093.620000 301.312000 L 1098.340000 299.757000 L 1103.070000 298.231000 L 1107.790000 296.711000 L 1112.530000 295.201000 L 1117.260000 293.702000" fill="none" id="7" stroke="#57b870" stroke-width="0.5" /><path d="M 0.250000 115.212000 L 3.622750 118.892000 L 7.041910 122.527000 L 10.561200 126.067000 L 14.206400 129.474000 L 17.924000 132.805000 L 21.786600 135.966000 L 25.660800 139.113000 L 29.546100 142.247000 L 33.431600 145.380000 L 37.317400 148.513000 L 41.203100 151.646000 L 45.088800 154.779000 L 48.974500 157.912000 L 52.860200 161.045000 L 56.745900 164.178000 L 60.631700 167.311000 L 64.517400 170.444000 L 68.403100 173.577000 L 72.288800 176.710000 L 76.174500 179.844000 L 80.060200 182.977000 L 83.945900 186.110000 L 87.831700 189.243000 L 91.717400 192.376000 L 95.603100 195.509000 L 99.488800 198.642000 L 103.375000 201.775000 L 107.260000 204.908000 L 111.146000 208.041000 L 115.032000 211.174000 L 118.917000 214.307000 L 122.802000 217.441000 L 126.637000 220.637000 L 130.458000 223.848000 L 134.251000 227.093000 L 138.039000 230.344000 L 141.824000 233.597000 L 145.609000 236.851000 L 149.395000 240.104000 L 153.180000 243.358000 L 156.966000 246.612000 L 160.751000 249.865000 L 164.536000 253.119000 L 168.322000 256.372000 L 172.107000 259.626000 L 175.892000 262.880000 L 179.678000 266.133000 L 183.463000 269.387000 L 187.248000 272.640000 L 191.034000 275.894000 L 194.819000 279.148000 L 198.605000 282.401000 L 202.390000 285.655000 L 206.175000 288.908000 L 209.961000 292.162000 L 213.746000 295.415000 L 217.531000 298.669000 L 221.317000 301.923000 L 225.102000 305.176000 L 228.888000 308.430000 L 232.673000 311.683000 L 236.458000 314.937000 L 240.244000 318.191000 L 244.029000 321.444000 L 247.814000 324.698000 L 251.600000 327.951000 L 255.385000 331.205000 L 259.170000 334.459000 L 262.956000 337.712000 L 266.741000 340.966000 L 270.527000 344.219000 L 274.312000 347.473000 L 278.104000 350.719000 L 281.899000 353.961000 L 285.710000 357.185000 L 289.523000 360.406000 L 293.340000 363.622000 L 297.158000 366.837000 L 300.976000 370.053000 L 304.794000 373.268000 L 308.611000 376.484000 L 312.429000 379.700000 L 316.237000 382.926000 L 320.037000 386.163000 L 323.812000 389.429000 L 327.580000 392.703000 L 331.337000 395.989000 L 335.094000 399.275000 L 338.851000 402.561000 L 342.608000 405.847000 L 346.365000 409.134000 L 350.122000 412.420000 L 353.893000 415.690000 L 357.682000 418.939000 L 361.514000 422.138000 L 365.362000 425.318000 L 369.231000 428.471000 L 373.099000 431.625000 L 376.967000 434.780000 L 380.809000 437.967000 L 384.638000 441.169000 L 388.398000 444.453000 L 392.148000 447.746000 L 395.882000 451.059000 L 399.615000 454.372000 L 403.349000 457.685000 L 407.099000 460.978000 L 410.862000 464.258000 L 414.655000 467.503000 L 418.458000 470.736000 L 422.268000 473.960000 L 426.079000 477.184000 L 429.889000 480.409000 L 433.699000 483.633000 L 437.510000 486.858000 L 441.320000 490.082000 L 445.130000 493.306000 L 448.940000 496.531000 L 452.751000 499.755000 L 456.561000 502.979000 L 460.371000 506.204000 L 464.182000 509.428000 L 467.992000 512.652000 L 471.802000 515.877000 L 475.613000 519.101000 L 479.423000 522.325000 L 483.240000 525.542000 L 487.060000 528.755000 L 490.899000 531.945000 L 494.738000 535.134000 L 498.579000 538.323000 L 502.419000 541.512000 L 506.259000 544.701000 L 510.099000 547.889000 L 513.939000 551.078000 L 517.779000 554.267000 L 521.620000 557.455000 L 525.460000 560.644000 L 529.300000 563.833000 L 533.140000 567.022000 L 536.980000 570.210000 L 540.820000 573.399000 L 544.661000 576.588000 L 548.501000 579.776000 L 552.341000 582.965000 L 556.181000 586.154000 L 560.020000 589.344000 L 563.857000 592.536000 L 567.670000 595.758000 L 571.465000 599.000000 L 575.202000 602.309000 L 578.936000 605.621000 L 582.668000 608.936000 L 586.407000 612.242000 L 590.162000 615.531000 L 593.991000 618.733000 L 597.832000 621.921000 L 601.684000 625.095000 L 605.540000 628.265000 L 609.404000 631.425000 L 613.333000 634.503000 L 617.277000 637.562000 L 621.242000 640.594000 L 625.204000 643.630000 L 629.160000 646.675000 L 632.997000 649.867000 L 636.814000 653.082000 L 640.598000 656.338000 L 644.340000 659.641000 L 648.063000 662.966000" fill="none" id="8" stroke="#d271bb" stroke-width="0.5" /><path d="M 373.727000 45.079800 L 377.661000 48.150700 L 381.615000 51.195200 L 385.591000 54.211500 L 389.646000 57.120300 L 393.789000 59.897700 L 398.036000 62.519200 L 402.249000 65.193800 L 406.460000 67.872800 L 410.671000 70.551700 L 414.881000 73.230700 L 419.092000 75.909700 L 423.303000 78.588700 L 427.514000 81.267700 L 431.724000 83.946600 L 435.935000 86.625600 L 440.146000 89.304600 L 444.356000 91.983600 L 448.567000 94.662600 L 452.778000 97.341600 L 456.988000 100.020500 L 461.199000 102.700000 L 465.410000 105.379000 L 469.622000 108.054000 L 473.847000 110.712000 L 478.081000 113.354000 L 482.321000 115.985000 L 486.563000 118.614000 L 490.806000 121.243000 L 495.048000 123.872000 L 499.290000 126.501000 L 503.532000 129.129000 L 507.774000 131.758000 L 512.017000 134.387000 L 516.259000 137.016000 L 520.501000 139.645000 L 524.743000 142.274000 L 528.985000 144.902000 L 533.227000 147.531000 L 537.483000 150.138000 L 541.751000 152.726000 L 546.035000 155.285000 L 550.326000 157.833000 L 554.618000 160.380000 L 558.910000 162.927000 L 563.202000 165.473000 L 567.494000 168.020000 L 571.786000 170.567000 L 576.078000 173.114000 L 580.370000 175.661000 L 584.662000 178.207000 L 588.954000 180.754000 L 593.246000 183.301000 L 597.538000 185.848000 L 601.830000 188.394000 L 606.122000 190.941000 L 610.413000 193.488000 L 614.705000 196.035000 L 618.997000 198.581000 L 623.289000 201.128000 L 627.581000 203.675000 L 631.873000 206.222000 L 636.165000 208.768000 L 640.457000 211.315000 L 644.749000 213.862000 L 649.041000 216.409000 L 653.333000 218.956000 L 657.625000 221.502000 L 661.917000 224.049000 L 666.209000 226.596000 L 670.501000 229.143000 L 674.793000 231.689000 L 679.085000 234.236000 L 683.377000 236.783000 L 687.669000 239.330000 L 691.961000 241.876000 L 696.253000 244.423000 L 700.544000 246.970000 L 704.836000 249.517000 L 709.128000 252.063000 L 713.420000 254.610000 L 717.712000 257.157000 L 722.004000 259.704000 L 726.296000 262.251000 L 730.588000 264.797000 L 734.880000 267.344000 L 739.172000 269.891000 L 743.464000 272.438000 L 747.756000 274.984000 L 752.054000 277.520000 L 756.357000 280.049000 L 760.674000 282.553000 L 764.993000 285.053000 L 769.315000 287.549000 L 773.637000 290.044000 L 777.959000 292.540000 L 782.281000 295.036000 L 786.609000 297.520000 L 790.946000 299.990000 L 795.293000 302.442000 L 799.650000 304.875000 L 804.008000 307.306000 L 808.367000 309.738000 L 812.725000 312.169000 L 817.084000 314.600000 L 821.442000 317.031000 L 825.800000 319.463000 L 830.159000 321.894000 L 834.517000 324.325000 L 838.876000 326.756000 L 843.234000 329.188000 L 847.593000 331.619000 L 851.951000 334.050000 L 856.309000 336.481000 L 860.668000 338.913000 L 865.026000 341.344000 L 869.385000 343.774000 L 873.748000 346.197000 L 878.123000 348.599000 L 882.507000 350.984000 L 886.906000 353.341000 L 891.305000 355.698000 L 895.704000 358.054000 L 900.103000 360.411000 L 904.503000 362.768000 L 908.902000 365.125000 L 913.301000 367.482000 L 917.700000 369.838000 L 922.099000 372.195000 L 926.498000 374.552000 L 930.897000 376.909000 L 935.297000 379.265000 L 939.695000 381.624000 L 944.089000 383.990000 L 948.477000 386.368000 L 952.854000 388.764000 L 957.230000 391.165000 L 961.605000 393.566000 L 965.980000 395.967000 L 970.355000 398.368000 L 974.730000 400.769000 L 979.106000 403.170000 L 983.481000 405.571000 L 987.856000 407.971000 L 992.231000 410.372000 L 996.607000 412.773000 L 1000.980000 415.174000 L 1005.360000 417.575000 L 1009.730000 419.976000 L 1014.110000 422.377000 L 1018.480000 424.778000 L 1022.860000 427.179000 L 1027.230000 429.580000 L 1031.610000 431.981000 L 1035.980000 434.381000" fill="none" id="9" stroke="#3d8e43" stroke-width="0.5" /><path d="M 82.367100 106.087000 L 81.849800 105.670000 L 81.332500 105.253000 L 80.815100 104.836000 L 80.297800 104.418000 L 79.780500 104.001000 L 79.263200 103.584000 L 78.745800 103.167000 L 78.228500 102.750000 L 77.711200 102.333000 L 77.193800 101.916000 L 76.676500 101.499000 L 76.159200 101.082000 L 75.641800 100.665000 L 75.124500 100.248000 L 74.608300 99.829600 L 74.092100 99.411100 L 73.570200 98.999800 L 73.048300 98.588500 L 72.526400 98.177200 L 72.004500 97.765900 L 71.480300 97.357500 L 70.956200 96.949100 L 70.416500 96.561400 L 69.876800 96.173700 L 69.337100 95.786000 L 68.797400 95.398300 L 68.251300 95.019700 L 67.705200 94.641100 L 67.143800 94.285600 L 66.582400 93.930100" fill="none" id="10" stroke="#00d4db" stroke-width="0.5" /><path d="M 66.582400 93.930100 L 70.136400 97.260600 L 73.841500 100.422000 L 77.688400 103.409000 L 81.797300 106.024000 L 85.992400 108.499000 L 90.195800 110.960000 L 94.399300 113.420000 L 98.602700 115.881000 L 102.806000 118.342000 L 107.010000 120.802000 L 111.213000 123.263000 L 115.417000 125.723000 L 119.620000 128.184000 L 123.813000 130.663000 L 127.917000 133.285000 L 131.957000 136.005000 L 135.997000 138.726000 L 140.037000 141.447000 L 144.077000 144.168000 L 148.117000 146.888000 L 152.157000 149.609000 L 156.197000 152.330000 L 160.237000 155.051000 L 164.277000 157.771000 L 168.317000 160.492000 L 172.357000 163.213000 L 176.396000 165.934000 L 180.436000 168.654000 L 184.476000 171.375000 L 188.516000 174.096000 L 192.556000 176.817000 L 196.596000 179.537000" fill="none" id="11" stroke="#00d4db" stroke-width="0.5" /><path d="M 74.790600 104.810000 L 78.148400 107.504000 L 81.629100 110.037000 L 85.263800 112.343000 L 89.002800 114.476000 L 92.746500 116.602000 L 96.490200 118.728000 L 100.233900 120.853000 L 103.978000 122.979000 L 107.721000 125.104000 L 111.465000 127.230000 L 115.209000 129.355000 L 118.953000 131.481000 L 122.695000 133.609000 L 126.414000 135.777000 L 130.081000 138.031000 L 133.714000 140.340000 L 137.341000 142.660000 L 140.968000 144.979000 L 144.595000 147.299000 L 148.221000 149.618000 L 151.852000 151.932000 L 155.500000 154.217000 L 159.174000 156.461000 L 162.861000 158.684000 L 166.549000 160.905000 L 170.237000 163.125000 L 173.925000 165.346000 L 177.613000 167.566000 L 181.301000 169.787000 L 184.989000 172.007000" fill="none" id="12" stroke="#d55969" stroke-width="0.5" /><path d="M 109.836000 39.272700 L 109.403000 44.203600 L 109.162000 49.147500 L 109.146000 54.096700 L 109.442000 59.037600 L 109.862000 63.969700 L 110.303000 68.900000 L 110.810000 73.823900 L 111.376000 78.741300 L 111.953000 83.657500 L 112.531000 88.573600 L 113.108000 93.489800 L 113.686000 98.405900 L 114.264000 103.322000 L 114.841000 108.238000 L 115.419000 113.154000 L 115.997000 118.070000 L 116.574000 122.987000 L 117.152000 127.903000 L 117.730000 132.819000 L 118.307000 137.735000 L 118.885000 142.651000 L 119.463000 147.567000 L 120.040000 152.483000 L 120.618000 157.400000 L 121.173000 162.318000 L 121.647000 167.245000 L 122.029000 172.180000 L 122.377000 177.118000 L 122.725000 182.056000 L 123.073000 186.993000 L 123.421000 191.931000 L 123.770000 196.869000 L 124.118000 201.806000 L 124.466000 206.744000 L 124.814000 211.682000 L 125.162000 216.620000 L 125.511000 221.557000 L 125.859000 226.495000 L 126.207000 231.433000 L 126.555000 236.370000 L 126.903000 241.308000 L 127.251000 246.246000 L 127.600000 251.183000 L 127.967000 256.120000 L 128.878000 260.982000 L 130.309000 265.718000 L 132.147000 270.314000" fill="none" id="13" stroke="#64e4ff" stroke-width="0.5" /><path d="M 110.578000 35.954300 L 110.530000 40.487300 L 110.483000 45.020300 L 110.436000 49.553300 L 110.392000 54.086400 L 110.430000 58.619200 L 110.548000 63.150700 L 110.699000 67.681400 L 110.900000 72.210000 L 111.172000 76.735000 L 111.483000 81.257500 L 111.803000 85.779500 L 112.123000 90.301500 L 112.442000 94.823400 L 112.762000 99.345400 L 113.082000 103.867000 L 113.401000 108.389000 L 113.721000 112.911000 L 114.041000 117.433000 L 114.360000 121.955000 L 114.680000 126.477000 L 114.999000 130.999000 L 115.319000 135.521000 L 115.639000 140.043000 L 115.958000 144.565000 L 116.278000 149.087000 L 116.598000 153.609000 L 116.917000 158.131000 L 117.237000 162.653000 L 117.557000 167.175000 L 117.876000 171.697000" fill="none" id="14" stroke="#e68e54" stroke-width="0.5" /><path d="M 117.392000 157.220000 L 117.657000 160.788000 L 117.920000 164.356000 L 118.184000 167.923000 L 118.446000 171.491000 L 118.706000 175.059000 L 118.966000 178.627000 L 119.226000 182.195000 L 119.486000 185.764000 L 119.746000 189.332000 L 120.008000 192.899000 L 120.270000 196.467000 L 120.520000 200.036000 L 120.754000 203.606000 L 120.972000 207.177000 L 121.173000 210.749000 L 121.353000 214.322000 L 121.529000 217.895000 L 121.705000 221.468000 L 121.881000 225.041000 L 122.058000 228.614000 L 122.235000 232.187000 L 122.412000 235.761000 L 122.588000 239.334000 L 122.765000 242.907000 L 122.942000 246.480000 L 123.119000 250.053000 L 123.295000 253.626000 L 123.472000 257.199000 L 123.649000 260.773000 L 123.826000 264.346000" fill="none" id="15" stroke="#e68e54" stroke-width="0.5" /><path d="M 124.020000 252.563000 L 124.087000 253.872000 L 124.153000 255.181000 L 124.219000 256.490000 L 124.284000 257.799000 L 124.347000 259.108000 L 124.411000 260.417000 L 124.473000 261.726000 L 124.535000 263.035000 L 124.597000 264.345000 L 124.659000 265.654000 L 124.721000 266.963000 L 124.783000 268.272000 L 124.845000 269.581000 L 124.907000 270.890000 L 124.969000 272.200000 L 125.031000 273.509000 L 125.094000 274.818000 L 125.156000 276.127000 L 125.218000 277.436000 L 125.280000 278.746000 L 125.342000 280.055000 L 125.404000 281.364000 L 125.466000 282.673000 L 125.528000 283.982000 L 125.590000 285.292000 L 125.652000 286.601000 L 125.714000 287.910000 L 125.776000 289.219000 L 125.838000 290.528000 L 125.901000 291.837000" fill="none" id="16" stroke="#e68e54" stroke-width="0.5" /><path d="M 125.805000 281.070000 L 125.911000 282.768000 L 126.018000 284.467000 L 126.121000 286.167000 L 126.225000 287.866000 L 126.324000 289.565000 L 126.423000 291.265000 L 126.519000 292.964000 L 126.615000 294.664000 L 126.711000 296.363000 L 126.807000 298.063000 L 126.903000 299.763000 L 126.999000 301.462000 L 127.095000 303.162000 L 127.192000 304.861000 L 127.288000 306.561000 L 127.384000 308.260000 L 127.480000 309.960000 L 127.576000 311.660000 L 127.672000 313.359000 L 127.768000 315.059000 L 127.864000 316.758000 L 127.960000 318.458000 L 128.057000 320.157000 L 128.153000 321.857000 L 128.249000 323.557000 L 128.345000 325.256000 L 128.441000 326.956000 L 128.537000 328.655000 L 128.633000 330.355000 L 128.729000 332.055000" fill="none" id="17" stroke="#e68e54" stroke-width="0.5" /><path d="M 476.575000 425.990000 L 476.506000 430.921000 L 476.465000 435.852000 L 476.432000 440.784000 L 476.490000 445.715000 L 476.604000 450.645000 L 476.724000 455.575000 L 476.844000 460.505000 L 476.964000 465.435000 L 477.084000 470.365000 L 477.204000 475.296000 L 477.324000 480.226000 L 477.445000 485.156000 L 477.565000 490.086000 L 477.685000 495.016000 L 477.799000 499.946000 L 477.885000 504.877000 L 477.955000 509.808000 L 478.025000 514.739000 L 478.094000 519.670000 L 478.164000 524.601000 L 478.234000 529.532000 L 478.303000 534.463000 L 478.373000 539.394000 L 478.442000 544.325000 L 478.512000 549.257000 L 478.582000 554.188000 L 478.651000 559.119000 L 478.721000 564.050000 L 478.790000 568.981000 L 478.860000 573.912000 L 478.930000 578.843000 L 478.999000 583.774000 L 479.069000 588.705000 L 479.138000 593.636000 L 479.208000 598.567000 L 479.277000 603.498000 L 479.347000 608.429000 L 479.431000 613.360000 L 479.622000 618.288000 L 479.906000 623.211000 L 480.194000 628.134000 L 480.493000 633.056000 L 481.083000 637.952000 L 482.261000 642.740000 L 483.796000 647.427000" fill="none" id="18" stroke="#54aeff" stroke-width="0.5" /><path d="M 480.089000 414.407000 L 479.999000 419.320000 L 479.912000 424.233000 L 479.825000 429.146000 L 479.745000 434.060000 L 479.861000 438.972000 L 479.992000 443.884000 L 480.123000 448.796000 L 480.255000 453.708000 L 480.386000 458.620000 L 480.517000 463.532000 L 480.648000 468.444000 L 480.779000 473.357000 L 480.910000 478.269000 L 481.042000 483.181000 L 481.173000 488.093000 L 481.304000 493.005000 L 481.432000 497.917000 L 481.514000 502.830000 L 481.526000 507.744000 L 481.515000 512.658000 L 481.504000 517.571000 L 481.493000 522.485000 L 481.482000 527.399000 L 481.471000 532.313000 L 481.459000 537.227000 L 481.436000 542.140000 L 481.363000 547.054000 L 481.243000 551.966000 L 481.111000 556.878000 L 480.979000 561.790000 L 480.847000 566.702000 L 480.715000 571.614000 L 480.583000 576.526000 L 480.450000 581.438000 L 480.318000 586.350000 L 480.186000 591.262000 L 480.054000 596.174000 L 479.922000 601.086000 L 479.790000 605.998000 L 479.689000 610.911000 L 479.675000 615.825000 L 479.680000 620.739000 L 479.684000 625.653000 L 479.689000 630.566000 L 479.694000 635.480000 L 479.705000 640.394000 L 479.763000 645.308000 L 479.900000 650.219000 L 480.056000 655.131000 L 480.212000 660.042000 L 480.368000 664.953000 L 480.524000 669.865000 L 480.680000 674.776000 L 480.836000 679.688000 L 480.992000 684.599000" fill="none" id="19" stroke="#eed973" stroke-width="0.5" /><path d="M 915.855000 245.011000 L 915.700000 247.070000 L 915.545000 249.129000 L 915.390000 251.187000 L 915.235000 253.246000 L 915.080000 255.305000 L 914.925000 257.363000 L 914.770000 259.422000 L 914.615000 261.481000 L 914.460000 263.540000 L 914.305000 265.598000 L 914.150000 267.657000 L 913.995000 269.716000 L 913.840000 271.774000 L 913.686000 273.833000 L 913.531000 275.892000 L 913.376000 277.950000 L 913.221000 280.009000 L 913.066000 282.068000 L 912.911000 284.126000 L 912.756000 286.185000 L 912.601000 288.244000 L 912.446000 290.303000 L 912.291000 292.361000 L 912.136000 294.420000 L 911.981000 296.479000 L 911.826000 298.537000 L 911.672000 300.596000 L 911.517000 302.655000 L 911.362000 304.713000 L 911.207000 306.772000 L 911.052000 308.831000" fill="none" id="20" stroke="#008bd4" stroke-width="0.5" /><path d="M 911.774000 300.114000 L 911.698000 305.062000 L 911.608000 310.010000 L 911.499000 314.957000 L 911.367000 319.904000 L 911.235000 324.851000 L 911.103000 329.798000 L 910.971000 334.745000 L 910.839000 339.692000 L 910.659000 344.637000 L 910.473000 349.583000 L 910.287000 354.528000 L 910.101000 359.473000 L 909.915000 364.418000 L 909.729000 369.363000 L 909.543000 374.309000 L 909.357000 379.254000 L 909.170000 384.199000 L 908.984000 389.144000 L 908.798000 394.089000 L 908.612000 399.035000 L 908.426000 403.980000 L 908.240000 408.925000 L 908.054000 413.870000 L 907.868000 418.815000 L 907.682000 423.761000 L 907.496000 428.706000 L 907.310000 433.651000 L 907.124000 438.596000 L 906.938000 443.542000 L 906.752000 448.487000 L 906.566000 453.432000 L 906.380000 458.377000 L 906.194000 463.322000 L 906.008000 468.268000 L 905.822000 473.213000 L 905.652000 478.159000 L 905.635000 483.107000 L 905.676000 488.056000 L 905.716000 493.004000 L 905.757000 497.953000 L 905.798000 502.901000 L 905.844000 507.850000 L 906.061000 512.794000 L 906.541000 517.719000 L 907.384000 522.596000 L 908.471000 527.423000" fill="none" id="21" stroke="#008bd4" stroke-width="0.5" /><path d="M 902.597000 396.158000 L 902.558000 398.567000 L 902.519000 400.976000 L 902.475000 403.385000 L 902.431000 405.794000 L 902.377000 408.202000 L 902.323000 410.611000 L 902.252000 413.019000 L 902.179000 415.427000 L 902.111000 417.836000 L 902.043000 420.244000 L 901.974000 422.652000 L 901.906000 425.060000 L 901.838000 427.469000 L 901.769000 429.877000 L 901.699000 432.285000 L 901.629000 434.693000 L 901.557000 437.101000 L 901.485000 439.509000 L 901.448000 441.918000 L 901.413000 444.327000 L 901.480000 446.735000 L 901.550000 449.144000 L 901.642000 451.551000 L 901.734000 453.959000 L 902.135000 456.333000 L 902.552000 458.706000 L 903.197000 461.027000 L 903.851000 463.346000 L 904.613000 465.631000 L 905.376000 467.916000" fill="none" id="22" stroke="#fdb968" stroke-width="0.5" /><path d="M 904.925000 296.829000 L 904.882000 300.407000 L 904.839000 303.985000 L 904.796000 307.564000 L 904.753000 311.142000 L 904.709000 314.720000 L 904.666000 318.299000 L 904.623000 321.877000 L 904.580000 325.455000 L 904.537000 329.034000 L 904.494000 332.612000 L 904.451000 336.190000 L 904.412000 339.768000 L 904.364000 343.347000 L 904.301000 346.925000 L 904.219000 350.502000 L 904.100000 354.079000 L 903.963000 357.655000 L 903.812000 361.230000 L 903.653000 364.805000 L 903.497000 368.380000 L 903.342000 371.956000 L 903.187000 375.531000 L 903.031000 379.106000 L 902.876000 382.681000 L 902.720000 386.256000 L 902.565000 389.831000 L 902.411000 393.407000 L 902.259000 396.982000 L 902.107000 400.557000 L 901.955000 404.133000" fill="none" id="23" stroke="#6f73bc" stroke-width="0.5" /><path d="M 905.892000 241.150000 L 906.226000 246.121000 L 906.503000 251.095000 L 906.661000 256.073000 L 906.573000 261.054000 L 906.534000 266.035000 L 906.496000 271.017000 L 906.457000 275.998000 L 906.418000 280.979000 L 906.379000 285.961000 L 906.332000 290.942000 L 906.217000 295.922000 L 905.997000 300.898000 L 905.748000 305.874000 L 905.496000 310.849000 L 905.245000 315.824000 L 904.993000 320.799000 L 904.742000 325.774000 L 904.491000 330.749000 L 904.239000 335.725000 L 903.988000 340.700000 L 903.736000 345.675000 L 903.485000 350.650000 L 903.234000 355.625000 L 902.982000 360.600000 L 902.731000 365.576000 L 902.479000 370.551000 L 902.228000 375.526000 L 901.976000 380.501000 L 901.725000 385.476000 L 901.474000 390.451000 L 901.222000 395.426000 L 900.971000 400.402000 L 900.719000 405.377000 L 900.468000 410.352000 L 900.224000 415.327000 L 900.001000 420.304000 L 899.800000 425.281000 L 899.606000 430.259000 L 899.413000 435.237000 L 899.219000 440.215000 L 899.026000 445.192000 L 898.832000 450.170000 L 898.639000 455.148000 L 898.445000 460.126000 L 898.252000 465.103000 L 898.058000 470.081000 L 897.865000 475.059000 L 897.671000 480.037000 L 897.479000 485.014000 L 897.314000 489.993000 L 897.232000 494.974000 L 897.178000 499.955000 L 897.125000 504.936000 L 897.072000 509.917000 L 897.019000 514.899000 L 896.965000 519.880000 L 896.912000 524.861000 L 896.859000 529.842000 L 896.806000 534.823000 L 896.753000 539.805000 L 896.700000 544.786000 L 896.664000 549.767000 L 896.849000 554.745000 L 897.113000 559.719000 L 897.376000 564.694000 L 897.639000 569.669000" fill="none" id="24" stroke="#6f73bc" stroke-width="0.5" /><path d="M 181.282000 77.593400 L 185.414000 80.389000 L 189.550000 83.179100 L 193.707000 85.939200 L 197.875000 88.681300 L 202.068000 91.384200 L 206.271000 94.073600 L 210.483000 96.748100 L 214.695000 99.422600 L 218.906000 102.097000 L 223.102000 104.797000 L 227.294000 107.503000 L 231.398000 110.340000 L 235.495000 113.187000 L 239.576000 116.057000 L 243.657000 118.927000 L 247.737000 121.798000 L 251.818000 124.670000 L 255.898000 127.541000 L 259.978000 130.412000 L 264.059000 133.283000 L 268.139000 136.155000 L 272.219000 139.026000 L 276.299000 141.898000 L 280.375000 144.774000 L 284.408000 147.713000 L 288.432000 150.662000 L 292.426000 153.652000 L 296.418000 156.645000 L 300.404000 159.645000 L 304.391000 162.646000 L 308.377000 165.646000 L 312.363000 168.646000 L 316.350000 171.646000 L 320.336000 174.647000 L 324.322000 177.647000 L 328.309000 180.647000 L 332.295000 183.648000 L 336.281000 186.648000 L 340.268000 189.648000 L 344.254000 192.649000 L 348.240000 195.649000 L 352.227000 198.649000 L 356.213000 201.649000 L 360.200000 204.650000 L 364.186000 207.650000 L 368.172000 210.650000 L 372.159000 213.651000 L 376.145000 216.651000 L 380.131000 219.651000 L 384.118000 222.651000 L 388.104000 225.652000 L 392.090000 228.652000 L 396.077000 231.652000 L 400.063000 234.653000 L 404.049000 237.653000 L 408.036000 240.653000 L 412.022000 243.654000 L 416.009000 246.654000 L 419.995000 249.654000 L 423.981000 252.654000 L 427.968000 255.655000 L 431.954000 258.655000 L 435.940000 261.655000 L 439.927000 264.656000 L 443.922000 267.644000 L 447.924000 270.624000 L 451.953000 273.566000 L 455.994000 276.492000 L 460.040000 279.412000 L 464.086000 282.331000 L 468.132000 285.250000 L 472.178000 288.169000 L 476.224000 291.089000 L 480.270000 294.008000 L 484.317000 296.927000 L 488.363000 299.846000 L 492.409000 302.765000 L 496.455000 305.685000 L 500.501000 308.604000 L 504.547000 311.523000 L 508.593000 314.442000 L 512.639000 317.361000 L 516.686000 320.281000 L 520.732000 323.200000 L 524.778000 326.119000 L 528.824000 329.038000 L 532.870000 331.957000 L 536.916000 334.877000 L 540.962000 337.796000 L 545.008000 340.715000 L 549.055000 343.634000 L 553.101000 346.553000 L 557.147000 349.473000 L 561.193000 352.392000 L 565.239000 355.311000 L 569.285000 358.230000 L 573.331000 361.149000 L 577.377000 364.069000 L 581.423000 366.988000 L 585.455000 369.928000 L 589.474000 372.884000 L 593.486000 375.849000 L 597.497000 378.817000 L 601.506000 381.787000 L 605.516000 384.756000 L 609.525000 387.725000 L 613.534000 390.695000 L 617.544000 393.664000 L 621.553000 396.633000 L 625.563000 399.603000 L 629.572000 402.572000 L 633.582000 405.542000 L 637.591000 408.511000 L 641.600000 411.480000 L 645.610000 414.450000 L 649.619000 417.419000 L 653.629000 420.389000 L 657.638000 423.358000 L 661.648000 426.327000 L 665.657000 429.297000 L 669.666000 432.266000 L 673.676000 435.236000 L 677.685000 438.205000 L 681.695000 441.174000 L 685.704000 444.144000 L 689.736000 447.082000 L 693.775000 450.012000 L 697.845000 452.898000 L 701.918000 455.779000 L 706.001000 458.646000 L 710.084000 461.514000 L 714.167000 464.382000 L 718.250000 467.249000 L 722.332000 470.117000 L 726.371000 473.046000 L 730.375000 476.023000 L 734.373000 479.008000 L 738.369000 481.995000 L 742.413000 484.917000 L 746.463000 487.830000 L 750.513000 490.744000 L 754.564000 493.657000 L 758.614000 496.570000 L 762.662000 499.487000 L 766.704000 502.412000 L 770.736000 505.351000 L 774.758000 508.303000 L 778.772000 511.266000 L 782.781000 514.236000 L 786.791000 517.205000 L 790.800000 520.174000 L 794.810000 523.143000 L 798.819000 526.113000 L 802.829000 529.082000 L 806.838000 532.051000 L 810.848000 535.021000 L 814.857000 537.990000 L 818.867000 540.959000 L 822.863000 543.946000 L 826.852000 546.944000 L 830.795000 550.000000 L 834.726000 553.073000 L 838.649000 556.155000 L 842.572000 559.238000 L 846.494000 562.321000 L 850.410000 565.414000 L 854.304000 568.532000 L 858.149000 571.711000 L 861.924000 574.973000 L 865.702000 578.232000 L 869.482000 581.488000 L 873.299000 584.701000 L 877.130000 587.897000 L 880.961000 591.094000 L 884.791000 594.290000 L 888.622000 597.487000 L 892.453000 600.684000 L 896.284000 603.880000 L 900.114000 607.077000 L 903.945000 610.273000 L 907.776000 613.470000 L 911.607000 616.666000 L 915.437000 619.863000 L 919.268000 623.060000 L 923.099000 626.256000 L 926.930000 629.453000" fill="none" id="25" stroke="#bee481" stroke-width="0.5" /><path d="M 61.765300 158.096000 L 66.715300 158.570000 L 71.665300 159.043000 L 76.615400 159.517000 L 81.565400 159.991000 L 86.515400 160.465000 L 91.465400 160.939000 L 96.415400 161.413000 L 101.365000 161.887000 L 106.315000 162.361000 L 111.266000 162.833000 L 116.216000 163.300000 L 121.174000 163.684000 L 126.134000 164.035000 L 131.095000 164.373000 L 136.056000 164.711000 L 141.018000 165.049000 L 145.979000 165.387000 L 150.940000 165.725000 L 155.903000 166.030000 L 160.869000 166.292000 L 165.838000 166.485000 L 170.807000 166.658000 L 175.777000 166.830000 L 180.747000 167.001000 L 185.716000 167.171000 L 190.686000 167.342000 L 195.656000 167.502000 L 200.627000 167.635000 L 205.598000 167.739000 L 210.570000 167.837000 L 215.542000 167.931000 L 220.514000 168.026000 L 225.485000 168.120000 L 230.457000 168.214000 L 235.429000 168.309000 L 240.401000 168.403000 L 245.372000 168.497000 L 250.344000 168.592000 L 255.316000 168.686000 L 260.288000 168.780000 L 265.259000 168.875000 L 270.231000 168.969000 L 275.203000 169.071000 L 280.173000 169.215000 L 285.142000 169.418000 L 290.107000 169.679000 L 295.073000 169.944000 L 300.038000 170.212000 L 305.004000 170.480000 L 309.969000 170.748000 L 314.935000 171.016000 L 319.900000 171.284000 L 324.866000 171.552000 L 329.831000 171.820000 L 334.796000 172.088000 L 339.762000 172.356000 L 344.728000 172.606000 L 349.696000 172.834000 L 354.664000 173.033000 L 359.634000 173.215000 L 364.603000 173.396000 L 369.572000 173.577000 L 374.542000 173.757000 L 379.511000 173.938000 L 384.480000 174.119000 L 389.450000 174.300000 L 394.419000 174.480000 L 399.388000 174.661000 L 404.358000 174.842000 L 409.327000 175.023000 L 414.297000 175.203000 L 419.266000 175.384000 L 424.235000 175.565000 L 429.205000 175.746000 L 434.174000 175.926000 L 439.143000 176.107000 L 444.113000 176.288000 L 449.082000 176.469000 L 454.051000 176.649000 L 459.021000 176.830000 L 463.990000 177.011000 L 468.960000 177.192000 L 473.929000 177.373000 L 478.898000 177.562000 L 483.866000 177.770000 L 488.834000 177.994000 L 493.800000 178.237000 L 498.767000 178.480000 L 503.734000 178.724000 L 508.701000 178.967000 L 513.667000 179.211000 L 518.634000 179.454000 L 523.601000 179.697000 L 528.567000 179.941000 L 533.534000 180.184000 L 538.501000 180.428000 L 543.467000 180.671000 L 548.434000 180.914000 L 553.401000 181.158000 L 558.367000 181.401000 L 563.334000 181.645000 L 568.301000 181.888000 L 573.267000 182.136000 L 578.233000 182.393000 L 583.197000 182.694000 L 588.159000 183.012000 L 593.121000 183.342000 L 598.083000 183.672000 L 603.044000 184.002000 L 608.006000 184.332000 L 612.968000 184.663000 L 617.929000 184.993000 L 622.891000 185.323000 L 627.853000 185.653000 L 632.814000 185.983000 L 637.776000 186.314000 L 642.738000 186.644000 L 647.699000 186.974000 L 652.661000 187.304000 L 657.623000 187.634000 L 662.584000 187.965000 L 667.546000 188.302000 L 672.504000 188.675000 L 677.460000 189.085000 L 682.411000 189.547000 L 687.362000 190.009000 L 692.313000 190.472000 L 697.264000 190.934000 L 702.215000 191.396000 L 707.167000 191.858000 L 712.118000 192.321000 L 717.069000 192.783000 L 722.020000 193.245000 L 726.971000 193.707000 L 731.922000 194.170000 L 736.873000 194.632000 L 741.824000 195.094000 L 746.775000 195.556000 L 751.727000 196.019000 L 756.678000 196.481000 L 761.629000 196.943000 L 766.580000 197.406000" fill="none" id="26" stroke="#8f6aaf" stroke-width="0.5" /><path d="M 169.288000 321.621000 L 174.043000 320.175000 L 178.803000 318.747000 L 183.570000 317.341000 L 188.357000 316.006000 L 193.157000 314.717000 L 197.965000 313.459000 L 202.769000 312.186000 L 207.573000 310.913000 L 212.377000 309.640000 L 217.181000 308.367000 L 221.985000 307.094000 L 226.789000 305.821000 L 231.593000 304.548000 L 236.397000 303.275000 L 241.201000 302.002000 L 246.005000 300.729000 L 250.806000 299.443000 L 255.602000 298.141000 L 260.390000 296.808000 L 265.177000 295.471000 L 269.963000 294.133000 L 274.749000 292.795000 L 279.536000 291.457000 L 284.322000 290.119000 L 289.108000 288.780000 L 293.894000 287.442000 L 298.681000 286.104000 L 303.467000 284.765000 L 308.245000 283.398000 L 313.019000 282.019000 L 317.790000 280.627000 L 322.560000 279.230000 L 327.330000 277.834000 L 332.099000 276.437000 L 336.869000 275.041000 L 341.639000 273.645000 L 346.408000 272.248000 L 351.178000 270.852000 L 355.948000 269.455000 L 360.717000 268.059000 L 365.487000 266.663000 L 370.256000 265.266000 L 375.026000 263.870000 L 379.796000 262.473000 L 384.565000 261.077000 L 389.334000 259.678000 L 394.102000 258.274000 L 398.856000 256.827000 L 403.605000 255.362000 L 408.349000 253.880000 L 413.093000 252.399000 L 417.837000 250.917000 L 422.581000 249.436000 L 427.424000 248.329000 L 432.276000 247.256000 L 437.124000 246.163000 L 441.933000 244.909000 L 446.740000 243.646000 L 451.547000 242.382000 L 456.353000 241.119000 L 461.160000 239.855000 L 465.966000 238.592000 L 470.773000 237.328000 L 475.579000 236.065000 L 480.386000 234.802000 L 485.193000 233.538000 L 490.001000 232.283000 L 494.815000 231.047000 L 499.647000 229.887000 L 504.493000 228.783000 L 509.354000 227.756000 L 514.257000 226.941000 L 519.153000 226.086000 L 524.032000 225.148000 L 528.866000 223.997000 L 533.701000 222.845000 L 538.536000 221.694000 L 543.370000 220.542000 L 548.205000 219.391000 L 553.039000 218.239000 L 557.874000 217.088000 L 562.709000 215.936000 L 567.543000 214.785000 L 572.378000 213.633000 L 577.212000 212.482000 L 582.059000 211.383000 L 586.921000 210.352000 L 591.809000 209.457000 L 596.688000 208.512000 L 601.555000 207.508000 L 606.399000 206.395000 L 611.239000 205.268000 L 616.077000 204.130000 L 620.911000 202.976000 L 625.745000 201.822000 L 630.579000 200.669000 L 635.413000 199.515000 L 640.247000 198.361000 L 645.082000 197.207000 L 649.916000 196.053000 L 654.750000 194.899000 L 659.584000 193.746000 L 664.418000 192.592000 L 669.252000 191.438000 L 674.086000 190.284000 L 678.920000 189.130000 L 683.754000 187.977000 L 688.588000 186.823000 L 693.422000 185.669000 L 698.256000 184.515000 L 703.090000 183.361000 L 707.924000 182.207000 L 712.758000 181.054000 L 717.592000 179.900000 L 722.426000 178.746000 L 727.260000 177.592000 L 732.095000 176.438000 L 736.929000 175.284000 L 741.763000 174.131000 L 746.597000 172.977000 L 751.431000 171.823000 L 756.265000 170.669000 L 761.099000 169.515000 L 765.935000 168.369000 L 770.791000 167.311000 L 775.694000 166.535000 L 780.620000 165.889000 L 785.488000 164.889000 L 790.356000 163.890000 L 795.225000 162.890000 L 800.093000 161.891000 L 804.961000 160.891000 L 809.829000 159.891000 L 814.698000 158.892000 L 819.566000 157.892000 L 824.434000 156.893000 L 829.303000 155.893000 L 834.171000 154.894000 L 839.040000 153.899000 L 843.911000 152.913000 L 848.819000 152.136000 L 853.741000 151.449000 L 858.674000 150.848000 L 863.588000 150.107000 L 868.497000 149.332000 L 873.402000 148.531000 L 878.309000 147.741000 L 883.217000 146.962000 L 888.127000 146.194000" fill="none" id="27" stroke="#8bb658" stroke-width="0.5" /><path d="M 180.766000 317.186000 L 185.533000 315.795000 L 190.301000 314.409000 L 195.059000 312.989000 L 199.791000 311.487000 L 204.455000 309.784000 L 209.170000 308.233000 L 213.924000 306.800000 L 218.680000 305.372000 L 223.436000 303.944000 L 228.192000 302.516000 L 232.948000 301.089000 L 237.704000 299.661000 L 242.459000 298.233000 L 247.215000 296.806000 L 251.971000 295.378000 L 256.727000 293.950000 L 261.483000 292.522000 L 266.239000 291.095000 L 270.994000 289.667000 L 275.756000 288.258000 L 280.527000 286.883000 L 285.304000 285.528000 L 290.083000 284.181000 L 294.863000 282.836000 L 299.643000 281.491000 L 304.423000 280.145000 L 309.203000 278.800000 L 313.982000 277.454000 L 318.762000 276.109000 L 323.542000 274.764000 L 328.322000 273.418000 L 333.101000 272.073000 L 337.881000 270.727000 L 342.661000 269.382000 L 347.441000 268.037000 L 352.220000 266.691000 L 357.000000 265.346000 L 361.780000 264.001000 L 366.560000 262.655000 L 371.339000 261.310000 L 376.119000 259.964000 L 380.899000 258.619000 L 385.664000 257.223000 L 390.424000 255.807000 L 395.180000 254.381000 L 399.936000 252.953000 L 404.691000 251.525000 L 409.447000 250.097000 L 414.203000 248.669000 L 418.958000 247.240000 L 423.714000 245.812000 L 428.470000 244.386000 L 433.229000 242.969000 L 438.003000 241.603000 L 442.788000 240.277000 L 447.578000 238.968000 L 452.370000 237.666000 L 457.162000 236.365000 L 461.954000 235.063000 L 466.746000 233.762000 L 471.538000 232.460000 L 476.330000 231.159000 L 481.121000 229.857000 L 485.913000 228.556000 L 490.705000 227.254000 L 495.497000 225.953000 L 500.289000 224.651000 L 505.081000 223.350000 L 509.873000 222.048000 L 514.665000 220.747000 L 519.457000 219.445000 L 524.249000 218.144000 L 529.040000 216.842000 L 533.832000 215.541000 L 538.624000 214.239000 L 543.416000 212.938000 L 548.208000 211.636000 L 553.001000 210.339000 L 557.800000 209.065000 L 562.611000 207.835000 L 567.442000 206.688000 L 572.307000 205.702000 L 577.198000 204.848000 L 582.105000 204.085000 L 586.939000 202.958000 L 591.767000 201.794000 L 596.594000 200.631000 L 601.421000 199.468000 L 606.250000 198.308000 L 611.084000 197.176000 L 615.928000 196.083000 L 620.790000 195.076000 L 625.656000 194.086000 L 630.518000 193.081000 L 635.374000 192.044000 L 640.213000 190.928000 L 645.049000 189.800000 L 649.883000 188.667000 L 654.718000 187.535000 L 659.552000 186.402000 L 664.387000 185.269000 L 669.221000 184.136000 L 674.056000 183.003000 L 678.891000 181.870000 L 683.724000 180.732000 L 688.553000 179.578000 L 693.374000 178.386000 L 698.183000 177.151000 L 702.990000 175.907000 L 707.797000 174.663000 L 712.604000 173.419000 L 717.412000 172.175000 L 722.222000 170.943000 L 727.038000 169.736000 L 731.888000 168.670000 L 736.749000 167.658000 L 741.613000 166.661000 L 746.475000 165.649000 L 751.307000 164.505000 L 756.131000 163.330000 L 760.951000 162.137000 L 765.771000 160.945000 L 770.592000 159.752000 L 775.412000 158.562000 L 780.235000 157.380000 L 785.065000 156.228000 L 789.911000 155.145000 L 794.760000 154.077000 L 799.611000 153.014000 L 804.461000 151.950000 L 809.311000 150.886000 L 814.161000 149.822000 L 819.011000 148.758000 L 823.862000 147.695000 L 828.712000 146.631000 L 833.562000 145.567000 L 838.412000 144.503000" fill="none" id="28" stroke="#bbabff" stroke-width="0.5" /><path d="M 171.706000 327.109000 L 176.266000 325.138000 L 180.850000 323.225000 L 185.462000 321.383000 L 190.116000 319.646000 L 194.829000 318.078000 L 199.544000 316.515000 L 204.256000 314.944000 L 208.968000 313.372000 L 213.680000 311.800000 L 218.392000 310.228000 L 223.104000 308.656000 L 227.816000 307.085000 L 232.528000 305.513000 L 237.240000 303.941000 L 241.952000 302.369000 L 246.664000 300.798000 L 251.376000 299.226000 L 256.088000 297.654000 L 260.800000 296.082000 L 265.512000 294.510000 L 270.233000 292.967000 L 274.969000 291.467000 L 279.732000 290.057000 L 284.499000 288.662000 L 289.267000 287.271000 L 294.036000 285.880000 L 298.804000 284.489000 L 303.573000 283.098000 L 308.341000 281.707000 L 313.110000 280.316000 L 317.878000 278.925000 L 322.647000 277.534000 L 327.416000 276.143000 L 332.184000 274.752000 L 336.953000 273.361000 L 341.721000 271.970000 L 346.490000 270.579000 L 351.258000 269.188000 L 356.027000 267.797000 L 360.795000 266.406000 L 365.564000 265.015000 L 370.324000 263.595000 L 375.074000 262.144000 L 379.818000 260.671000 L 384.558000 259.186000 L 389.298000 257.700000 L 394.038000 256.215000 L 398.778000 254.729000 L 403.518000 253.244000 L 408.258000 251.758000 L 412.998000 250.273000 L 417.737000 248.787000 L 422.477000 247.302000 L 427.220000 245.824000 L 431.966000 244.360000 L 436.719000 242.915000 L 441.476000 241.486000 L 446.234000 240.059000 L 450.992000 238.632000 L 455.749000 237.204000 L 460.507000 235.777000 L 465.265000 234.350000 L 470.023000 232.923000 L 474.781000 231.496000 L 479.539000 230.069000 L 484.296000 228.642000 L 489.054000 227.214000 L 493.812000 225.787000 L 498.570000 224.360000 L 503.328000 222.933000 L 508.085000 221.506000 L 512.906000 220.309000 L 517.750000 219.211000 L 522.599000 218.136000 L 527.416000 216.926000 L 532.234000 215.716000 L 537.052000 214.505000 L 541.869000 213.295000 L 546.687000 212.085000 L 551.504000 210.875000 L 556.322000 209.664000 L 561.139000 208.454000 L 565.957000 207.244000 L 570.774000 206.033000 L 575.592000 204.823000 L 580.410000 203.613000 L 585.227000 202.403000 L 590.045000 201.192000 L 594.862000 199.981000 L 599.678000 198.765000 L 604.486000 197.517000 L 609.284000 196.233000 L 614.076000 194.923000 L 618.892000 193.708000 L 623.749000 192.673000 L 628.611000 191.660000 L 633.455000 190.558000 L 638.253000 189.272000 L 643.050000 187.984000 L 647.851000 186.710000 L 652.662000 185.472000 L 657.525000 184.463000 L 662.412000 183.582000 L 667.303000 182.728000 L 672.127000 181.545000 L 676.951000 180.361000 L 681.776000 179.177000 L 686.600000 177.993000 L 691.424000 176.809000 L 696.248000 175.626000 L 701.072000 174.442000 L 705.896000 173.258000 L 710.720000 172.074000 L 715.545000 170.890000 L 720.369000 169.707000 L 725.193000 168.523000 L 730.017000 167.339000 L 734.841000 166.155000 L 739.665000 164.971000 L 744.488000 163.780000 L 749.298000 162.541000 L 754.088000 161.228000 L 758.854000 159.830000 L 763.638000 158.493000 L 768.504000 157.535000 L 773.379000 156.613000 L 778.175000 155.320000 L 782.971000 154.026000 L 787.767000 152.733000 L 792.564000 151.444000 L 797.365000 150.171000 L 802.238000 149.219000 L 807.101000 148.213000 L 811.933000 147.063000 L 816.749000 145.848000 L 821.569000 144.646000 L 826.393000 143.462000 L 831.223000 142.302000" fill="none" id="29" stroke="#658424" stroke-width="0.5" /><path d="M 314.920000 31.965900 L 315.486000 36.915100 L 315.902000 41.879100 L 316.164000 46.853700 L 316.370000 51.830900 L 316.521000 56.810100 L 316.672000 61.789300 L 316.822000 66.768600 L 316.972000 71.747800 L 317.123000 76.727000 L 317.273000 81.706200 L 317.424000 86.685500 L 317.574000 91.664700 L 317.719000 96.644100 L 317.826000 101.624000 L 317.868000 106.606000 L 317.886000 111.587000 L 317.902000 116.569000 L 317.917000 121.550000 L 317.932000 126.531000 L 317.948000 131.513000 L 317.963000 136.494000 L 317.978000 141.476000 L 317.994000 146.457000 L 318.009000 151.439000 L 318.024000 156.420000 L 318.039000 161.402000 L 318.055000 166.383000 L 318.070000 171.365000 L 318.085000 176.346000 L 318.101000 181.328000 L 318.116000 186.309000 L 318.131000 191.291000 L 318.147000 196.272000 L 318.162000 201.254000 L 318.177000 206.235000 L 318.193000 211.217000 L 318.208000 216.198000 L 318.223000 221.179000 L 318.239000 226.161000 L 318.255000 231.142000 L 318.293000 236.124000 L 318.383000 241.104000 L 318.509000 246.084000 L 318.641000 251.064000 L 318.773000 256.044000 L 318.905000 261.023000 L 319.037000 266.003000 L 319.170000 270.983000 L 319.344000 275.961000 L 319.627000 280.934000 L 319.953000 285.905000 L 320.281000 290.876000 L 320.608000 295.847000 L 320.935000 300.817000 L 321.266000 305.788000 L 321.626000 310.756000 L 322.058000 315.719000 L 322.520000 320.679000 L 322.985000 325.639000 L 323.450000 330.599000 L 323.929000 335.557000 L 324.516000 340.504000 L 325.208000 345.437000 L 325.912000 350.368000 L 326.618000 355.299000 L 327.363000 360.225000 L 328.317000 365.114000 L 329.344000 369.988000 L 330.385000 374.860000 L 331.459000 379.724000" fill="none" id="30" stroke="#f1b9ff" stroke-width="0.5" /></svg>