<?xml version="1.0" encoding="utf-8" ?>
<svg baseProfile="full" height="342.85798" version="1.1" viewBox="0,0,351.85798,342.85798" width="351.85798" xmlns="http://www.w3.org/2000/svg" xmlns:ev="http://www.w3.org/2001/xml-events" xmlns:xlink="http://www.w3.org/1999/xlink"><defs><style type="text/css"><![CDATA[
	.background { fill: white; }
	.line { stroke: firebrick; stroke-width: .1mm; }
	.blacksquare { fill: indigo; }
	.whitesquare { fill: white; }
]]></style></defs><rect class="background" height="100%" width="100%" x="0" y="0" /><path d="M 155.165370 313.704990 L 155.687370 314.186990 L 156.210370 314.668990 L 156.739370 315.142990 L 157.269370 315.616990 L 157.810370 316.076990 L 158.351370 316.537990 L 158.899370 316.990990 L 159.447370 317.442990 L 160.014370 317.871990 L 160.581370 318.299990 L 161.159370 318.712990 L 161.738370 319.125990 L 162.335370 319.510990 L 162.933370 319.894990 L 163.550370 320.248990 L 164.166370 320.601990 L 164.801370 320.921990 L 165.435370 321.242990 L 166.088370 321.523990 L 166.740370 321.805990 L 167.402370 322.063990 L 168.065370 322.321990 L 168.733370 322.562990 L 169.401370 322.804990 L 170.072370 323.040990 L 170.742370 323.276990 L 171.414370 323.507990 L 172.086370 323.738990 L 172.760370 323.965990 L 173.433370 324.192990" fill="none" id="0" stroke="#c583d9" stroke-width="0.5" /><path d="M 154.221370 302.837990 L 153.606370 305.307990 L 153.239370 307.820990 L 153.168370 310.352990 L 153.433370 312.883990 L 154.123370 315.333990 L 155.449370 317.430990 L 157.244370 319.224990 L 159.243370 320.800990 L 161.503370 321.960990 L 163.881370 322.837990 L 166.348370 323.444990 L 168.875370 323.747990 L 171.417370 323.775990 L 173.960370 323.689990 L 176.499370 323.524990 L 179.014370 323.136990 L 181.478370 322.517990 L 183.895370 321.728990 L 186.262370 320.793990 L 188.572370 319.725990 L 190.844370 318.579990 L 193.072370 317.351990 L 195.237370 316.013990 L 197.374370 314.630990 L 199.496370 313.226990 L 201.607370 311.805990 L 203.706370 310.365990 L 205.785370 308.897990 L 207.851370 307.410990 L 209.906370 305.908990" fill="none" id="1" stroke="#c583d9" stroke-width="0.5" /><path d="M 0.583120 63.995890 L 0.428990 61.343390 L 0.437550 58.688390 L 0.577360 56.036190 L 0.880430 53.403890 L 1.710770 50.879890 L 2.696370 48.413790 L 3.797370 45.997090 L 5.023570 43.642490 L 6.438570 41.393590 L 8.015570 39.256190 L 9.672870 37.180490 L 11.423270 35.184390 L 13.299870 33.303490 L 15.441070 31.731290 L 17.702070 30.343190 L 20.031270 29.065390 L 22.383670 27.830090 L 24.724270 26.572590 L 27.052570 25.292490 L 29.373970 23.999890 L 31.689970 22.697590 L 33.995370 21.376790 L 36.296570 20.048490 L 38.596170 18.717490 L 40.893270 17.382290 L 43.184270 16.036490 L 45.460470 14.665890 L 47.727270 13.279790 L 49.985770 11.880090 L 52.236670 10.468390" fill="none" id="2" stroke="#f375a0" stroke-width="0.5" /><path d="M 151.512370 88.302990 L 151.060370 90.879990 L 151.057370 93.481190 L 151.585370 96.012290 L 152.674370 98.365790 L 154.425370 100.309390 L 156.570370 101.788990 L 158.869370 103.024990 L 161.276370 104.035990 L 163.785370 104.778990 L 166.385370 105.050990 L 168.996370 105.072990 L 171.606370 104.911990 L 174.207370 104.633990 L 176.806370 104.332990 L 179.401370 103.999990 L 181.992370 103.633990 L 184.577370 103.232990 L 187.152370 102.773990 L 189.723370 102.287990 L 192.283370 101.747990 L 194.830370 101.151990 L 197.370370 100.523990 L 199.895370 99.840590 L 202.412370 99.125690 L 204.920370 98.380390 L 207.416370 97.595590 L 209.892370 96.752590 L 212.361370 95.886390 L 214.822370 94.998990 L 217.276370 94.090390" fill="none" id="3" stroke="#9de993" stroke-width="0.5" /><path d="M 149.055370 152.814990 L 148.922370 149.258990 L 149.354370 145.728990 L 150.547370 142.382990 L 152.381370 139.341990 L 154.415370 136.423990 L 156.630370 133.640990 L 158.878370 130.882990 L 161.172370 128.163990 L 163.638370 125.601990 L 166.171370 123.103990 L 168.772370 120.675990 L 171.518370 118.417990 L 174.382370 116.308990 L 177.330370 114.317990 L 180.393370 112.513990 L 183.482370 110.750990 L 186.525370 108.906990 L 189.576370 107.076990 L 192.667370 105.315990 L 195.819370 103.667990 L 199.011370 102.094990 L 202.221370 100.560990 L 205.435370 99.034490 L 208.649370 97.507990 L 211.870370 95.997890 L 215.134370 94.583090 L 218.444370 93.277190 L 221.740370 91.937190 L 225.012370 90.540090 L 228.268370 89.106190" fill="none" id="4" stroke="#ad5ba7" stroke-width="0.5" /><path d="M 350.536370 3.925050 L 349.865370 6.838240 L 349.116370 9.732040 L 348.280370 12.601290 L 347.348370 15.441190 L 346.286370 18.235490 L 344.917370 20.888590 L 343.305370 23.398290 L 341.486370 25.767890 L 339.507370 28.008890 L 337.484370 30.209690 L 335.380370 32.330690 L 333.169370 34.339690 L 330.831370 36.202390 L 328.407370 37.950990 L 325.936370 39.632590 L 323.426370 41.257090 L 320.888370 42.836390 L 318.340370 44.399390 L 315.808370 45.987990 L 313.284370 47.590890 L 310.766370 49.201490 L 308.247370 50.812090 L 305.729370 52.422690 L 303.207370 54.028290 L 300.676370 55.618990 L 298.122370 57.172890 L 295.553370 58.701190 L 292.969370 60.203990 L 290.372370 61.683890 L 287.764370 63.145490" fill="none" id="5" stroke="#58f2c3" stroke-width="0.5" /><path d="M 350.126370 65.106190 L 349.880370 62.435690 L 349.304370 59.822990 L 348.533370 57.256290 L 347.325370 54.958490 L 345.197370 53.338090 L 342.680370 52.413590 L 340.074370 51.798090 L 337.426370 51.393590 L 334.757370 51.136490 L 332.081370 50.974690 L 329.399370 50.968290 L 326.740370 51.282790 L 324.088370 51.678190 L 321.444370 52.121290 L 318.822370 52.683090 L 316.217370 53.320190 L 313.623370 54.002690 L 311.043370 54.734490 L 308.478370 55.516990 L 305.929370 56.348190 L 303.397370 57.231990 L 300.874370 58.142690 L 298.357370 59.066190 L 295.844370 60.003890 L 293.342370 60.969390 L 290.872370 62.014090 L 288.402370 63.058790 L 285.932370 64.103390 L 283.462370 65.148090 L 280.992370 66.192790" fill="none" id="6" stroke="#c94e76" stroke-width="0.5" /><path d="M 54.850870 203.318990 L 56.763570 207.846990 L 59.299470 212.049990 L 62.502470 215.769990 L 66.157870 219.061990 L 69.899570 222.255990 L 73.642870 225.447990 L 77.404070 228.618990 L 81.214470 231.730990 L 85.049370 234.811990 L 88.909970 237.861990 L 92.782370 240.895990 L 96.655370 243.929990 L 100.528370 246.962990 L 104.400370 249.996990 L 108.273370 253.030990 L 112.146370 256.064990 L 116.026370 259.089990 L 119.936370 262.074990 L 123.896370 264.993990 L 127.909370 267.838990 L 131.991370 270.584990 L 136.123370 273.254990 L 140.309370 275.839990 L 144.538370 278.352990 L 148.782370 280.840990 L 153.020370 283.338990 L 157.226370 285.889990 L 161.391370 288.507990 L 165.466370 291.264990 L 169.495370 294.087990 L 173.446370 297.018990 L 177.344370 300.019990 L 181.202370 303.072990 L 185.026370 306.167990 L 188.843370 309.271990 L 192.659370 312.375990 L 196.479370 315.476990 L 200.332370 318.534990 L 204.300370 321.442990 L 208.327370 324.268990 L 212.473370 326.916990 L 216.723370 329.393990 L 221.018370 331.793990 L 225.313370 334.193990 L 229.583370 336.635990 L 233.757370 339.239990 L 237.874370 341.932990" fill="none" id="7" stroke="#57b870" stroke-width="0.5" /><path d="M 150.284370 167.105990 L 152.785370 170.445990 L 155.613370 173.511990 L 158.798370 176.203990 L 162.272370 178.517990 L 165.806370 180.737990 L 169.358370 182.929990 L 172.916370 185.111990 L 176.501370 187.250990 L 180.121370 189.327990 L 183.785370 191.327990 L 187.462370 193.303990 L 191.151370 195.255990 L 194.894370 197.102990 L 198.649370 198.926990 L 202.404370 200.748990 L 206.159370 202.571990 L 209.914370 204.394990 L 213.669370 206.217990 L 217.421370 208.045990 L 221.148370 209.925990 L 224.798370 211.949990 L 228.425370 214.015990 L 232.080370 216.031990 L 235.712370 218.088990 L 239.332370 220.166990 L 242.952370 222.243990 L 246.573370 224.321990 L 250.193370 226.399990 L 253.813370 228.476990 L 257.433370 230.554990" fill="none" id="8" stroke="#d271bb" stroke-width="0.5" /><path d="M 1.968970 0.428990 L 1.289670 2.856250 L 0.934520 5.341560 L 0.941930 7.845530 L 1.341870 10.333620 L 2.429270 12.607490 L 3.804270 14.704790 L 5.463570 16.581190 L 7.444870 18.139290 L 9.763070 19.108590 L 12.188370 19.743790 L 14.680570 20.102590 L 17.197870 20.230590 L 19.715070 20.146890 L 22.218470 19.889690 L 24.700470 19.456890 L 27.131970 18.793090 L 29.544070 18.063190 L 31.946570 17.300990 L 34.345670 16.528090 L 36.724270 15.694290 L 39.092670 14.832190 L 41.447770 13.934990 L 43.779770 12.978590 L 46.070570 11.928090 L 48.341570 10.835190 L 50.596170 9.708420 L 52.829370 8.539650 L 55.033870 7.318290 L 57.218470 6.061460 L 59.386270 4.775450" fill="none" id="9" stroke="#3d8e43" stroke-width="0.5" /><path d="M 344.646370 212.200990 L 343.913370 213.815990 L 343.186370 215.433990 L 342.497370 217.068990 L 341.836370 218.714990 L 341.252370 220.389990 L 340.656370 222.060990 L 340.042370 223.725990 L 339.308370 225.335990 L 338.458370 226.892990 L 337.504370 228.385990 L 336.492370 229.842990 L 335.411370 231.249990 L 334.310370 232.640990 L 333.116370 233.951990 L 331.910370 235.251990 L 330.633370 236.484990 L 329.353370 237.712990 L 328.048370 238.914990 L 326.736370 240.108990 L 325.401370 241.276990 L 324.055370 242.432990 L 322.694370 243.569990 L 321.307370 244.675990 L 319.896370 245.751990 L 318.454370 246.784990 L 316.994370 247.792990 L 315.514370 248.770990 L 314.027370 249.737990 L 312.519370 250.672990 L 311.008370 251.601990" fill="none" id="10" stroke="#00d4db" stroke-width="0.5" /><path d="M 7.512270 199.326990 L 7.250770 201.265990 L 7.129370 203.213990 L 7.137170 205.169990 L 7.486870 207.094990 L 7.981270 208.979990 L 8.685570 210.804990 L 9.633670 212.511990 L 10.701670 214.144990 L 11.981570 215.624990 L 13.416170 216.944990 L 14.950970 218.154990 L 16.694070 219.042990 L 18.509870 219.740990 L 20.403670 220.232990 L 22.343070 220.476990 L 24.291070 220.647990 L 26.246370 220.716990 L 28.202670 220.739990 L 30.159170 220.737990 L 32.115070 220.684990 L 34.066170 220.555990 L 36.012970 220.360990 L 37.941870 220.033990 L 39.861370 219.658990 L 41.765870 219.209990 L 43.646570 218.672990 L 45.514970 218.092990 L 47.360070 217.441990 L 49.189670 216.748990 L 51.008270 216.026990" fill="none" id="11" stroke="#d55969" stroke-width="0.5" /></svg>