<?xml version="1.0" encoding="utf-8" ?>
<svg baseProfile="full" height="507.61461" version="1.1" viewBox="0,0,691.61461,507.61461" width="691.61461" xmlns="http://www.w3.org/2000/svg" xmlns:ev="http://www.w3.org/2001/xml-events" xmlns:xlink="http://www.w3.org/1999/xlink"><defs><style type="text/css"><![CDATA[
	.background { fill: white; }
	.line { stroke: firebrick; stroke-width: .1mm; }
	.blacksquare { fill: indigo; }
	.whitesquare { fill: white; }
]]></style></defs><rect class="background" height="100%" width="100%" x="0" y="0" /><path d="M 470.008095 9.945105 L 473.445887 11.989998 L 476.948651 13.919257 L 480.483192 15.791961 L 484.017732 17.664665 L 487.552273 19.537369 L 491.086814 21.410074 L 494.621355 23.282778 L 498.155896 25.155482 L 501.690437 27.028186 L 505.224978 28.900890 L 508.735284 30.816828 L 512.177185 32.854797 L 515.619086 34.892766 L 519.060987 36.930734 L 522.502888 38.968703 L 525.944789 41.006672 L 529.382393 43.051801 L 532.799926 45.130375 L 536.217459 47.208948 L 539.634992 49.287522 L 543.052525 51.366096 L 546.470058 53.444670 L 549.887591 55.523243 L 553.305124 57.601817 L 556.722657 59.680391 L 560.140190 61.758964 L 563.557723 63.837538 L 566.975256 65.916112 L 570.392789 67.994686 L 573.794198 70.098726 L 577.134730 72.298918 L 580.475262 74.499110 L 583.815794 76.699303 L 587.156326 78.899495 L 590.496857 81.099687 L 593.837389 83.299880 L 597.177921 85.500072 L 600.518453 87.700264 L 603.858985 89.900457 L 607.199517 92.100649 L 610.540049 94.300841 L 613.880581 96.501034 L 617.305214 98.567770 L 620.731504 100.631877 L 624.157793 102.695985 L 627.584083 104.760093 L 631.010372 106.824200 L 634.436662 108.888308 L 637.862951 110.952416 L 641.289241 113.016523 L 644.687950 115.125026 L 648.056499 117.282079 L 651.425049 119.439132 L 653.850615 120.992345" fill="none" id="1" stroke="black" stroke-width="0.61461" /><path d="M 484.212815 13.441165 L 487.621887 15.533586 L 491.030959 17.626008 L 494.440031 19.718429 L 497.849103 21.810851 L 501.258175 23.903272 L 504.667248 25.995694 L 508.076320 28.088115 L 511.485392 30.180536 L 514.894464 32.272958 L 518.303536 34.365379 L 521.712608 36.457801 L 525.121680 38.550222 L 528.530752 40.642644 L 531.939824 42.735065 L 535.348896 44.827486 L 538.757969 46.919908 L 542.167041 49.012329 L 545.587931 51.085248 L 549.020567 53.138784 L 552.453204 55.192319 L 555.885840 57.245855 L 559.318476 59.299390 L 562.751113 61.352925 L 566.183749 63.406461 L 569.616385 65.459996 L 573.049021 67.513532 L 576.481658 69.567067 L 579.887833 71.663064 L 583.243611 73.839932 L 586.599390 76.016799 L 589.955168 78.193667 L 593.309449 80.372795 L 596.623963 82.611991 L 599.938478 84.851186 L 603.252992 87.090381 L 606.567506 89.329576 L 609.882020 91.568772 L 613.196535 93.807967 L 616.549340 95.989154 L 619.911002 98.156925 L 623.272663 100.324696 L 626.634325 102.492467 L 629.995987 104.660238 L 633.357648 106.828009 L 636.719310 108.995780 L 640.066054 111.186040 L 643.370472 113.440108 L 646.674889 115.694177 L 649.979307 117.948245 L 653.283725 120.202313 L 656.588142 122.456381 L 659.904286 124.692589 L 663.286406 126.828300 L 666.668527 128.964011 L 670.050647 131.099721 L 670.952975 131.669515" fill="none" id="2" stroke="black" stroke-width="0.61461" /><path d="M 21.189195 189.661635 L 24.141818 192.350474 L 26.906708 195.241042 L 29.671598 198.131610 L 32.438202 201.020497 L 35.274675 203.840855 L 38.111149 206.661213 L 40.947622 209.481571 L 43.784095 212.301929 L 46.519268 215.218638 L 49.194121 218.192719 L 51.868974 221.166801 L 54.503152 224.176644 L 57.110285 227.210265 L 59.717418 230.243886 L 62.324552 233.277507 L 64.931685 236.311128 L 67.538818 239.344749 L 70.145951 242.378370 L 72.763608 245.402567 L 75.492514 248.327130 L 78.221420 251.251694 L 80.950325 254.176258 L 83.679231 257.100822 L 86.408137 260.025385 L 89.137043 262.949949 L 91.865949 265.874513 L 94.594855 268.799076 L 97.323760 271.723640 L 100.101448 274.601836 L 102.883912 277.475490 L 105.666376 280.349145 L 108.448841 283.222800 L 111.231305 286.096455 L 114.013769 288.970110 L 116.796233 291.843765 L 119.578698 294.717420 L 122.361162 297.591075 L 125.143626 300.464730 L 127.914953 303.349080 L 130.673357 306.245837 L 133.431762 309.142594 L 136.190167 312.039352 L 138.948572 314.936109 L 141.706977 317.832866 L 144.465381 320.729624 L 147.223786 323.626381 L 149.982191 326.523138 L 152.740596 329.419895 L 155.499001 332.316653 L 158.290165 335.181543 L 161.109722 338.018812 L 163.929279 340.856081 L 166.748837 343.693350 L 169.568394 346.530619 L 172.387952 349.367888 L 175.207509 352.205157 L 178.027067 355.042426 L 180.846624 357.879695 L 183.666182 360.716964 L 186.485739 363.554233 L 189.262587 366.432479 L 191.980693 369.367083 L 194.698798 372.301688 L 197.416903 375.236292 L 200.135009 378.170897 L 202.853114 381.105501 L 205.571219 384.040106 L 208.289324 386.974710 L 211.007430 389.909315 L 213.725535 392.843919 L 216.455734 395.767220 L 219.200375 398.677021 L 221.945017 401.586822 L 224.689658 404.496624 L 227.434300 407.406425 L 230.178941 410.316226 L 232.923583 413.226027 L 235.668224 416.135828 L 238.412866 419.045629 L 241.157508 421.955430 L 243.902149 424.865232 L 246.578848 427.837604 L 249.253238 430.812102 L 251.927628 433.786600 L 254.602017 436.761098 L 256.476862 438.409397 L 255.834865 437.220695" fill="none" id="3" stroke="black" stroke-width="0.61461" /><path d="M 0.307305 169.323055 L 2.892337 172.260383 L 5.323299 175.436926 L 7.839866 178.542876 L 10.495252 181.534351 L 13.150638 184.525827 L 15.806024 187.517303 L 18.461409 190.508778 L 21.116795 193.500254 L 23.772181 196.491730 L 26.427567 199.483205 L 29.082952 202.474681 L 31.821000 205.390385 L 34.570644 208.295460 L 37.320288 211.200534 L 40.069933 214.105608 L 42.819577 217.010682 L 45.569222 219.915756 L 48.318866 222.820830 L 51.068511 225.725904 L 53.818155 228.630978 L 56.567799 231.536052 L 59.317444 234.441126 L 62.067088 237.346201 L 64.816733 240.251275 L 67.581680 243.141694 L 70.365167 246.014358 L 73.148653 248.887023 L 75.932140 251.759688 L 78.715627 254.632352 L 81.501488 257.502686 L 84.320911 260.340090 L 87.140333 263.177493 L 89.959755 266.014896 L 92.779178 268.852300 L 95.598600 271.689703 L 98.418022 274.527106 L 101.237445 277.364510 L 104.056867 280.201913 L 106.876289 283.039316 L 109.695712 285.876720 L 112.515134 288.714123 L 115.334556 291.551526 L 118.153979 294.388930 L 120.973401 297.226333 L 123.792823 300.063736 L 126.599558 302.913672 L 129.401818 305.768025 L 132.204079 308.622379 L 135.006339 311.476733 L 137.808600 314.331087 L 140.610860 317.185441 L 143.413121 320.039795 L 146.215381 322.894149 L 149.017642 325.748503 L 151.819902 328.602856 L 154.622163 331.457210 L 157.424423 334.311564 L 160.226684 337.165918 L 163.062716 339.986437 L 165.922304 342.783356 L 168.781893 345.580275 L 171.641481 348.377193 L 174.501070 351.174112 L 177.360658 353.971030 L 180.220247 356.767949 L 183.079835 359.564867 L 185.939424 362.361786 L 188.799013 365.158704 L 191.637852 367.976462 L 194.447075 370.823963 L 197.256298 373.671465 L 200.065521 376.518966 L 202.874744 379.366468 L 205.683968 382.213970 L 208.493191 385.061471 L 211.302414 387.908973 L 214.111637 390.756475 L 216.920860 393.603976 L 219.745101 396.436423 L 222.599466 399.238673 L 225.453830 402.040922 L 228.308195 404.843172 L 231.162560 407.645421 L 234.016924 410.447671 L 236.871289 413.249920 L 239.725654 416.052170 L 242.580018 418.854419 L 245.434383 421.656669 L 248.267699 424.480049 L 251.080963 427.323558 L 253.894226 430.167068 L 256.707490 433.010578 L 259.520754 435.854087 L 262.334017 438.697597 L 265.147281 441.541107 L 267.960545 444.384617 L 270.773808 447.228126 L 273.587072 450.071636 L 276.400336 452.915146 L 279.213599 455.758656 L 282.026863 458.602165 L 284.840127 461.445675 L 287.653390 464.289185 L 290.466654 467.132695 L 293.279918 469.976204 L 296.093181 472.819714 L 298.906445 475.663224 L 301.719709 478.506733 L 304.532972 481.350243 L 307.346236 484.193753 L 310.208952 486.987377 L 313.076878 489.775745 L 315.944805 492.564114 L 318.812731 495.352482 L 321.680658 498.140850 L 324.548584 500.929219 L 327.416511 503.717587 L 330.284437 506.505955 L 330.889985 507.094705" fill="none" id="4" stroke="black" stroke-width="0.61461" /><path d="M 234.543525 61.512035 L 238.113404 63.203431 L 241.526132 65.289884 L 244.836011 67.533157 L 248.109527 69.831872 L 251.383043 72.130587 L 254.629849 74.465671 L 257.802740 76.901397 L 260.975631 79.337124 L 264.148522 81.772850 L 267.321413 84.208576 L 270.494304 86.644302 L 273.667195 89.080029 L 276.840086 91.515755 L 280.012977 93.951481 L 283.152638 96.429779 L 286.285864 98.916323 L 289.419090 101.402866 L 292.552315 103.889409 L 295.685541 106.375952 L 298.818767 108.862495 L 301.951992 111.349038 L 305.078955 113.843136 L 308.102845 116.461550 L 311.126735 119.079963 L 314.150625 121.698376 L 317.174515 124.316790 L 320.170874 126.966303 L 323.136727 129.650277 L 326.102580 132.334251 L 329.068433 135.018225 L 332.034286 137.702199 L 335.000139 140.386173 L 337.965992 143.070147 L 340.931844 145.754121 L 343.897697 148.438095 L 346.863550 151.122069 L 349.842433 153.791274 L 352.875235 156.399360 L 355.908037 159.007446 L 358.940839 161.615531 L 361.973641 164.223617 L 365.006443 166.831703 L 368.039245 169.439789 L 371.072047 172.047875 L 374.104849 174.655961 L 377.137651 177.264046 L 380.170453 179.872132 L 383.203255 182.480218 L 386.236057 185.088304 L 389.268859 187.696390 L 392.301661 190.304475 L 395.334464 192.912561 L 398.367266 195.520647 L 401.400068 198.128733 L 404.465227 200.698014 L 407.575948 203.212653 L 410.686670 205.727293 L 413.797391 208.241933 L 416.908113 210.756572 L 420.018834 213.271212 L 423.129555 215.785851 L 426.240277 218.300491 L 429.350998 220.815131 L 432.460627 223.331110 L 435.549329 225.872747 L 438.638032 228.414383 L 441.726735 230.956019 L 444.815438 233.497655 L 447.904141 236.039292 L 450.992843 238.580928 L 454.081546 241.122564 L 457.170249 243.664201 L 460.258952 246.205837 L 463.347655 248.747473 L 466.436357 251.289109 L 469.525060 253.830746 L 472.613763 256.372382 L 475.702466 258.914018 L 478.791169 261.455654 L 481.879872 263.997291 L 484.968574 266.538927 L 488.057263 269.080580 L 491.123997 271.648681 L 494.190731 274.216782 L 497.257465 276.784883 L 500.324199 279.352984 L 503.390933 281.921085 L 506.435504 284.515228 L 509.460957 287.131835 L 512.486410 289.748443 L 515.511863 292.365050 L 518.537316 294.981658 L 521.562769 297.598265 L 524.588222 300.214872 L 525.787615 301.252185" fill="none" id="5" stroke="black" stroke-width="0.61461" /><path d="M 259.078955 69.543525 L 262.402427 71.726942 L 265.480719 74.278770 L 268.503759 76.898165 L 271.526799 79.517560 L 274.460925 82.235682 L 277.381393 84.968971 L 280.301860 87.702261 L 283.222328 90.435550 L 286.142795 93.168839 L 289.063263 95.902128 L 292.015673 98.600491 L 294.998201 101.265923 L 297.980728 103.931355 L 300.963256 106.596788 L 303.945783 109.262220 L 306.928311 111.927652 L 309.910839 114.593084 L 312.893366 117.258517 L 315.828757 119.975461 L 318.747793 122.710279 L 321.666829 125.445097 L 324.585865 128.179915 L 327.504901 130.914733 L 330.423937 133.649551 L 333.342973 136.384369 L 336.262009 139.119187 L 339.181045 141.854004 L 342.100081 144.588822 L 345.120368 147.210171 L 348.168658 149.800138 L 351.216949 152.390104 L 354.265239 154.980071 L 357.313529 157.570037 L 360.361819 160.160004 L 363.410110 162.749970 L 366.458400 165.339937 L 369.506690 167.929903 L 372.554981 170.519870 L 375.603271 173.109836 L 378.646408 175.705766 L 381.651068 178.346224 L 384.655728 180.986682 L 387.660388 183.627140 L 390.665048 186.267598 L 393.669708 188.908056 L 396.674368 191.548514 L 399.721358 194.139911 L 402.773498 196.725340 L 405.825638 199.310769 L 408.877778 201.896198 L 411.929918 204.481626 L 414.982057 207.067055 L 418.055029 209.627494 L 421.147680 212.164324 L 424.240332 214.701154 L 427.332984 217.237983 L 430.425636 219.774813 L 433.518288 222.311643 L 436.610940 224.848472 L 439.656772 227.441195 L 442.696478 230.041230 L 445.736185 232.641266 L 448.775892 235.241301 L 451.815598 237.841336 L 454.855305 240.441372 L 457.895011 243.041407 L 460.934718 245.641442 L 463.974425 248.241477 L 467.014131 250.841513 L 470.053838 253.441548 L 473.093545 256.041583 L 476.133251 258.641618 L 479.134476 261.285847 L 482.127750 263.939205 L 485.121023 266.592564 L 488.114297 269.245923 L 491.107570 271.899282 L 494.100844 274.552641 L 497.094117 277.206000 L 500.087391 279.859359 L 503.080664 282.512718 L 506.050023 285.192590 L 508.996999 287.897277 L 511.943975 290.601965 L 514.890950 293.306652 L 517.837926 296.011340 L 520.784902 298.716027 L 523.731878 301.420715 L 526.678853 304.125402 L 529.625829 306.830089 L 532.572805 309.534777 L 535.519780 312.239464 L 538.466756 314.944152 L 541.413732 317.648839 L 544.360708 320.353526 L 547.307683 323.058214 L 549.157695 324.756125" fill="none" id="6" stroke="black" stroke-width="0.61461" /><path d="M 466.134075 11.220695 L 469.949235 12.206205 L 473.582781 13.878732 L 477.184823 15.614005 L 480.696663 17.528941 L 484.208503 19.443878 L 487.720342 21.358814 L 491.232182 23.273751 L 494.744022 25.188688 L 498.255861 27.103624 L 501.761426 29.029877 L 505.245682 30.994555 L 508.729938 32.959232 L 512.214195 34.923910 L 515.698451 36.888587 L 519.182707 38.853265 L 522.666964 40.817942 L 526.151220 42.782620 L 529.635476 44.747297 L 533.119733 46.711975 L 536.603989 48.676652 L 540.088246 50.641329 L 543.572502 52.606007 L 547.087291 54.515381 L 550.606264 56.417178 L 554.125236 58.318976 L 557.644208 60.220773 L 561.163181 62.122570 L 564.682153 64.024368 L 568.201126 65.926165 L 571.720098 67.827962 L 575.239071 69.729760 L 578.722897 71.694756 L 582.195017 73.680803 L 585.667137 75.666850 L 589.139257 77.652897 L 592.611377 79.638944 L 596.083497 81.624991 L 599.555618 83.611038 L 603.027738 85.597084 L 606.499858 87.583131 L 609.975948 89.562027 L 613.497506 91.459033 L 617.019064 93.356038 L 620.540622 95.253043 L 624.062180 97.150049 L 627.583738 99.047054 L 631.105296 100.944059 L 634.626854 102.841065 L 638.148412 104.738070 L 641.669970 106.635075 L 645.191528 108.532081 L 648.713086 110.429086 L 652.199227 112.388876 L 655.644180 114.421682 L 659.089133 116.454488 L 662.534086 118.487294 L 665.979039 120.520100 L 669.423991 122.552906 L 672.838904 124.635720 L 676.251592 126.722240 L 679.664279 128.808760 L 683.076966 130.895280 L 686.489654 132.981800 L 689.902341 135.068320 L 690.795495 135.614395" fill="none" id="7" stroke="black" stroke-width="0.61461" /><path d="M 263.267935 410.078965 L 259.982853 412.341654 L 256.477047 414.267615 L 252.971241 416.193576 L 249.405739 418.002444 L 245.787746 419.708354 L 242.169754 421.414264 L 238.551761 423.120174 L 234.933768 424.826084 L 231.315776 426.531994 L 227.697783 428.237904 L 225.630135 429.212815" fill="none" id="8" stroke="black" stroke-width="0.61461" /><path d="M 139.393915 295.512035 L 139.393915 291.512035 L 139.879949 287.571270 L 140.102826 283.583882 L 140.056414 281.899925 L 139.781117 285.885674 L 139.649356 289.883503 L 139.520033 293.881371 L 139.527307 297.881364 L 139.534582 301.881357 L 139.541856 305.881351 L 139.549131 309.881344 L 139.686951 313.878005 L 139.883757 317.873161 L 140.026542 321.869709 L 140.035933 325.869698 L 140.045323 329.869687 L 140.054714 333.869676 L 140.055335 334.134075" fill="none" id="9" stroke="black" stroke-width="0.61461" /><path d="M 272.338795 50.787625 L 275.451141 53.289230 L 278.687462 55.640023 L 281.923783 57.990816 L 285.160104 60.341609 L 288.396425 62.692402 L 291.632745 65.043195 L 294.869066 67.393987 L 298.105387 69.744780 L 301.341708 72.095573 L 304.523686 74.519307 L 307.702200 76.947691 L 310.880715 79.376075 L 314.059229 81.804458 L 317.237743 84.232842 L 320.416257 86.661226 L 323.594772 89.089610 L 326.773286 91.517993 L 329.951800 93.946377 L 333.130314 96.374761 L 336.308828 98.803144 L 339.521036 101.186608 L 342.742071 103.558302 L 345.963106 105.929996 L 349.184142 108.301689 L 352.405177 110.673383 L 355.626212 113.045077 L 358.847247 115.416771 L 362.068282 117.788465 L 365.289318 120.160159 L 368.510353 122.531853 L 371.729106 124.906606 L 374.919884 127.318853 L 378.110662 129.731100 L 381.301440 132.143347 L 384.492218 134.555594 L 387.682996 136.967841 L 390.873774 139.380088 L 394.064552 141.792335 L 397.255330 144.204582 L 400.446108 146.616829 L 403.647261 149.015059 L 406.886443 151.361908 L 410.125624 153.708758 L 413.364806 156.055607 L 416.603987 158.402457 L 419.843169 160.749306 L 423.082350 163.096156 L 426.321532 165.443005 L 429.560714 167.789855 L 432.799895 170.136704 L 436.039077 172.483554 L 439.278258 174.830403 L 442.517440 177.177253 L 445.756622 179.524102 L 448.995803 181.870952 L 452.234985 184.217801 L 455.474166 186.564651 L 458.713348 188.911500 L 461.952530 191.258350 L 465.191711 193.605199 L 468.430893 195.952049 L 471.670074 198.298898 L 474.909256 200.645748 L 478.148438 202.992597 L 481.387619 205.339447 L 484.626801 207.686296 L 487.865982 210.033146 L 491.105164 212.379995 L 494.344346 214.726845 L 497.583527 217.073694 L 500.822709 219.420544 L 503.991063 221.861769 L 507.149496 224.316214 L 510.307930 226.770658 L 513.466363 229.225103 L 516.624796 231.679548 L 519.783230 234.133992 L 522.941663 236.588437 L 526.100097 239.042882 L 529.258530 241.497327 L 532.416963 243.951771 L 535.580053 246.400122 L 538.778187 248.802607 L 541.976322 251.205093 L 545.174456 253.607578 L 548.372591 256.010063 L 551.570725 258.412549 L 554.768859 260.815034 L 557.966994 263.217520 L 561.165128 265.620005 L 564.363263 268.022491 L 567.561397 270.424976 L 570.759531 272.827462 L 573.957666 275.229947 L 574.102575 275.338805" fill="none" id="10" stroke="black" stroke-width="0.61461" /><path d="M 297.157695 61.252185 L 300.202903 63.845775 L 303.340312 66.325819 L 306.503795 68.773752 L 309.667277 71.221685 L 312.830760 73.669618 L 315.994243 76.117551 L 319.157726 78.565484 L 322.321209 81.013417 L 325.484692 83.461350 L 328.648174 85.909283 L 331.811657 88.357216 L 334.975140 90.805149 L 338.162659 93.221360 L 341.375265 95.604458 L 344.587871 97.987557 L 347.800478 100.370656 L 351.013084 102.753755 L 354.225691 105.136854 L 357.438297 107.519953 L 360.650903 109.903051 L 363.863510 112.286150 L 367.076116 114.669249 L 370.288723 117.052348 L 373.444010 119.510183 L 376.578570 121.995044 L 379.713130 124.479905 L 382.847690 126.964766 L 385.982249 129.449628 L 389.082264 131.977089 L 392.161105 134.530663 L 395.239946 137.084237 L 398.318787 139.637810 L 401.397628 142.191384 L 404.492297 144.725275 L 407.647090 147.184396 L 410.801884 149.643517 L 413.956677 152.102639 L 417.111471 154.561760 L 420.266264 157.020882 L 423.421058 159.480003 L 426.575851 161.939124 L 429.730645 164.398246 L 432.885438 166.857367 L 436.040232 169.316489 L 439.195025 171.775610 L 442.309430 174.284945 L 445.387677 176.839235 L 448.465924 179.393525 L 451.544170 181.947815 L 454.622417 184.502105 L 457.700664 187.056395 L 460.778910 189.610685 L 463.857157 192.164975 L 466.935404 194.719265 L 470.013650 197.273555 L 473.091897 199.827845 L 476.170144 202.382135 L 479.248390 204.936425 L 482.326637 207.490715 L 485.404884 210.045005 L 488.483130 212.599296 L 491.561377 215.153586 L 494.639624 217.707876 L 497.717870 220.262166 L 500.796117 222.816456 L 503.874363 225.370746 L 506.907489 227.978290 L 509.932596 230.595296 L 512.957704 233.212303 L 515.982812 235.829309 L 519.007919 238.446316 L 522.033027 241.063323 L 525.058135 243.680329 L 528.083243 246.297336 L 531.108350 248.914342 L 534.133458 251.531349 L 537.169849 254.135190 L 540.219026 256.724113 L 543.268202 259.313036 L 546.317378 261.901960 L 549.366554 264.490883 L 552.415731 267.079806 L 555.464907 269.668730 L 558.514083 272.257653 L 561.563260 274.846576 L 564.612436 277.435500 L 567.668141 280.016427 L 570.814560 282.486255 L 573.960979 284.956082 L 577.107398 287.425910 L 580.253816 289.895737 L 583.494092 292.239528 L 586.761963 294.546261 L 589.535645 296.504155" fill="none" id="11" stroke="black" stroke-width="0.61461" /><path d="M 397.693125 33.307305 L 401.169818 35.285336 L 404.646511 37.263367 L 408.123204 39.241398 L 411.599897 41.219428 L 415.076590 43.197459 L 418.553283 45.175490 L 422.029976 47.153521 L 425.506669 49.131552 L 428.983362 51.109583 L 432.483299 53.046011 L 435.990232 54.969919 L 439.497165 56.893826 L 443.004098 58.817734 L 446.511031 60.741642 L 450.017964 62.665550 L 453.505948 64.622893 L 456.958302 66.643104 L 460.410656 68.663314 L 463.863010 70.683524 L 467.315365 72.703735 L 470.767719 74.723945 L 474.220073 76.744155 L 477.672428 78.764365 L 481.124782 80.784576 L 484.577136 82.804786 L 488.029491 84.824996 L 491.481845 86.845207 L 494.934199 88.865417 L 498.386554 90.885627 L 501.838908 92.905838 L 505.291262 94.926048 L 508.743617 96.946258 L 512.195971 98.966468 L 515.648325 100.986679 L 519.089649 103.025575 L 522.526440 105.072150 L 525.963231 107.118724 L 529.400022 109.165299 L 532.836813 111.211873 L 536.273604 113.258448 L 539.710395 115.305022 L 543.147186 117.351597 L 546.583977 119.398171 L 550.020768 121.444746 L 553.457559 123.491320 L 556.894350 125.537895 L 560.331141 127.584469 L 563.767932 129.631044 L 567.204724 131.677618 L 570.641515 133.724193 L 574.078306 135.770767 L 577.515097 137.817342 L 580.951888 139.863917 L 584.388679 141.910491 L 587.825470 143.957066 L 591.262261 146.003640 L 594.699052 148.050215 L 598.135843 150.096789 L 601.573775 152.141383 L 605.067839 154.088566 L 608.561902 156.035749 L 612.055966 157.982931 L 615.550029 159.930114 L 619.044093 161.877297 L 622.538156 163.824479 L 626.032219 165.771662 L 629.526283 167.718845 L 633.020346 169.666028 L 636.514410 171.613210 L 639.992345 173.551405" fill="none" id="12" stroke="black" stroke-width="0.61461" /><path d="M 406.543525 25.748255 L 409.255624 28.549883 L 412.578852 30.776124 L 415.919675 32.974777 L 419.339921 35.048884 L 422.760166 37.122990 L 426.180412 39.197097 L 429.600658 41.271203 L 433.020904 43.345310 L 436.441150 45.419417 L 439.861396 47.493523 L 443.281642 49.567630 L 446.701888 51.641736 L 450.122133 53.715843 L 453.542379 55.789950 L 456.939612 57.900708 L 460.293757 60.080092 L 463.647902 62.259475 L 467.002047 64.438858 L 470.356192 66.618241 L 473.710337 68.797625 L 473.653191 68.642646 L 470.407053 66.305428 L 470.979946 66.547513 L 474.360438 68.685800 L 477.740930 70.824087 L 481.121423 72.962374 L 484.501915 75.100661 L 487.882408 77.238948 L 491.262900 79.377235 L 494.643393 81.515522 L 498.023885 83.653808 L 501.404377 85.792095 L 504.784870 87.930382 L 508.165362 90.068669 L 511.528292 92.234357 L 514.882899 94.413029 L 518.237506 96.591700 L 521.592114 98.770372 L 524.946721 100.949043 L 528.295813 103.136160 L 531.639297 105.331863 L 534.982781 107.527567 L 538.326265 109.723271 L 541.669749 111.918974 L 545.013233 114.114678 L 548.356717 116.310382 L 551.700201 118.506085 L 555.043685 120.701789 L 558.387169 122.897492 L 561.730654 125.093196 L 565.074138 127.288900 L 568.417622 129.484603 L 571.757765 131.685303 L 575.064537 133.935916 L 578.371309 136.186530 L 581.678080 138.437143 L 584.984852 140.687757 L 588.291624 142.938371 L 591.598395 145.188984 L 594.905167 147.439598 L 598.211939 149.690211 L 601.518710 151.940825 L 604.825482 154.191438 L 608.147543 156.419403 L 611.471311 158.644839 L 614.795080 160.870274 L 618.118848 163.095710 L 621.442617 165.321145 L 624.766385 167.546581 L 628.090154 169.772016 L 631.413922 171.997452 L 634.737691 174.222887 L 638.061459 176.448323 L 641.385227 178.673758 L 644.708996 180.899194 L 648.032764 183.124629 L 651.356533 185.350065 L 651.551395 185.480535" fill="none" id="13" stroke="black" stroke-width="0.61461" /><path d="M 404.370295 31.464785 L 407.813570 33.500432 L 411.256845 35.536079 L 414.700119 37.571726 L 418.143394 39.607373 L 421.619552 41.585714 L 425.114464 43.531374 L 428.609376 45.477034 L 432.104288 47.422694 L 435.599199 49.368354 L 439.094111 51.314013 L 442.589023 53.259673 L 446.083934 55.205333 L 449.578846 57.150993 L 453.073758 59.096653 L 456.568670 61.042313 L 460.063581 62.987972 L 463.552176 64.944491 L 466.971107 67.020765 L 470.390037 69.097039 L 473.808968 71.173312 L 477.227899 73.249586 L 480.646830 75.325860 L 484.065760 77.402134 L 487.484691 79.478408 L 490.903622 81.554682 L 494.322552 83.630955 L 494.907639 84.015320 L 491.457857 81.990720 L 491.662938 82.178724 L 495.056144 84.296777 L 498.449351 86.414830 L 501.842557 88.532884 L 505.235764 90.650937 L 508.628971 92.768990 L 512.022177 94.887043 L 515.415384 97.005096 L 518.808590 99.123149 L 522.159583 101.307005 L 525.499379 103.508314 L 528.839175 105.709623 L 532.178972 107.910932 L 535.518768 110.112241 L 538.858564 112.313550 L 542.198361 114.514858 L 545.538157 116.716167 L 548.877953 118.917476 L 552.164811 121.196705 L 555.441645 123.490689 L 558.718478 125.784673 L 561.995312 128.078656 L 565.272146 130.372640 L 568.548979 132.666624 L 571.825813 134.960607 L 575.102647 137.254591 L 578.379481 139.548575 L 581.656314 141.842558 L 584.933148 144.136542 L 588.209982 146.430526 L 591.486815 148.724509 L 594.763649 151.018493 L 598.040483 153.312477 L 601.329118 155.588668 L 604.716888 157.715405 L 608.104659 159.842142 L 611.492430 161.968879 L 614.880200 164.095616 L 618.267971 166.222353 L 621.667488 168.329861 L 625.106180 170.373240 L 628.544872 172.416620 L 631.983564 174.459999 L 633.157695 175.157705" fill="none" id="14" stroke="black" stroke-width="0.61461" /><path d="M 376.275805 129.000225 L 380.199074 128.244315 L 384.199074 128.244315 L 388.199074 128.244315 L 392.192581 128.031764 L 396.185123 127.787616 L 400.177665 127.543467 L 404.170207 127.299319 L 408.162749 127.055171 L 412.155291 126.811022 L 416.150005 126.636246 L 420.150001 126.630173 L 424.149996 126.624101 L 428.149991 126.618029 L 432.148056 126.693163 L 436.143245 126.889292 L 440.139558 127.039595 L 444.139558 127.039595 L 448.120758 126.783509 L 452.077871 126.199342 L 456.034985 125.615174 L 459.992099 125.031007 L 463.973564 124.651177 L 467.958676 124.321334 L 471.958634 124.303020 L 475.958592 124.284705 L 479.958550 124.266390 L 483.958508 124.248075 L 487.958466 124.229760 L 491.958424 124.211446 L 495.927051 123.803898 L 499.878439 123.182177 L 503.829827 122.560457 L 507.791623 122.047319 L 511.789162 121.907011 L 515.786700 121.766703 L 519.783049 121.613805 L 523.691842 120.824708 L 527.504237 119.634370 L 531.446685 119.055530 L 535.443974 119.006164 L 534.119767 120.195316 L 533.945095 120.260065" fill="none" id="15" stroke="black" stroke-width="0.61461" /><path d="M 649.756125 40.299435 L 646.051987 41.809191 L 642.347849 43.318946 L 638.643711 44.828702 L 634.939573 46.338457 L 631.235435 47.848213 L 627.531297 49.357968 L 623.827159 50.867724 L 620.123021 52.377479 L 616.418883 53.887235 L 612.714745 55.396990 L 609.010607 56.906746 L 605.306469 58.416501 L 601.602331 59.926257 L 597.898193 61.436012 L 594.194055 62.945768 L 590.489917 64.455523 L 586.785779 65.965279 L 583.081641 67.475034 L 579.416347 69.073908 L 575.788960 70.759750 L 572.161573 72.445592 L 568.534186 74.131434 L 564.906799 75.817276 L 561.297392 77.539477 L 557.755801 79.398813 L 554.214210 81.258150 L 550.672619 83.117487 L 547.172117 85.051613 L 543.703463 87.043707 L 540.234809 89.035801 L 536.766155 91.027895 L 533.297500 93.019989 L 529.828846 95.012083 L 526.414095 97.095061 L 523.002620 99.183562 L 519.591145 101.272063 L 516.179670 103.360564 L 512.768195 105.449065 L 509.356719 107.537566 L 505.945244 109.626068 L 502.533769 111.714569 L 499.122294 113.803070 L 495.710819 115.891571 L 492.299343 117.980072 L 488.887868 120.068573 L 485.491652 122.181704 L 482.102546 124.306313 L 478.713441 126.430923 L 475.324336 128.555532 L 471.935230 130.680142 L 468.546125 132.804751 L 465.157020 134.929361 L 461.767915 137.053970 L 458.378809 139.178580 L 454.989704 141.303189 L 451.600599 143.427799 L 448.159721 145.466107 L 444.689926 147.456213 L 441.220131 149.446319 L 437.750336 151.436425 L 434.280541 153.426532 L 430.810746 155.416638 L 427.340951 157.406744 L 423.871156 159.396850 L 420.401361 161.386956 L 416.931566 163.377063 L 413.461771 165.367169 L 409.991976 167.357275 L 406.522181 169.347381 L 403.052386 171.337487 L 399.582591 173.327594 L 396.112796 175.317700 L 392.643001 177.307806 L 389.173206 179.297912 L 385.678625 181.243410 L 382.155990 183.138413 L 378.633354 185.033416 L 375.110718 186.928419 L 371.588082 188.823422 L 368.043423 190.676711 L 364.491699 192.516618 L 360.939975 194.356525 L 357.388251 196.196432 L 353.836528 198.036339 L 350.284804 199.876246 L 346.733080 201.716153 L 343.173884 203.541491 L 339.607313 205.352450 L 336.040742 207.163408 L 332.474171 208.974367 L 328.907600 210.785325 L 325.341029 212.596284 L 321.774458 214.407242 L 318.207886 216.218201 L 314.641315 218.029159 L 311.074744 219.840117 L 307.508173 221.651076 L 303.941602 223.462034 L 300.375031 225.272993 L 296.808460 227.083951 L 293.241889 228.894910 L 289.675317 230.705868 L 286.108746 232.516826 L 282.561268 234.364720 L 279.021374 236.227286 L 275.481481 238.089853 L 271.941587 239.952419 L 268.401694 241.814986 L 264.861800 243.677552 L 261.321907 245.540118 L 257.782013 247.402685 L 254.242120 249.265251 L 250.702226 251.127818 L 247.162333 252.990384 L 243.622439 254.852951 L 240.082546 256.715517 L 236.542652 258.578084 L 233.002758 260.440650 L 229.481602 262.337166 L 226.018815 264.339442 L 222.556029 266.341718 L 219.093243 268.343995 L 215.630456 270.346271 L 212.167670 272.348547 L 208.704883 274.350823 L 205.242097 276.353100 L 201.779311 278.355376 L 198.316524 280.357652 L 194.853738 282.359928 L 191.390951 284.362205 L 187.928165 286.364481 L 184.465378 288.366757 L 181.002592 290.369034 L 177.539806 292.371310 L 174.077019 294.373586 L 170.614233 296.375862 L 167.146960 298.370224 L 163.650612 300.313303 L 160.154265 302.256382 L 156.657917 304.199461 L 153.161570 306.142539 L 149.665223 308.085618 L 146.168875 310.028697 L 142.672528 311.971775 L 139.176180 313.914854 L 135.679833 315.857933 L 132.183485 317.801011 L 128.687138 319.744090 L 125.190791 321.687169 L 121.694443 323.630247 L 118.198096 325.573326 L 114.690192 327.495374 L 111.175511 329.405091 L 107.660830 331.314808 L 104.146149 333.224525 L 100.631468 335.134241 L 97.116787 337.043958 L 93.602106 338.953675 L 90.087425 340.863392 L 86.572744 342.773109 L 83.058063 344.682825 L 79.543382 346.592542 L 76.028702 348.502259 L 72.514021 350.411976 L 68.999340 352.321692 L 65.484659 354.231409 L 61.969978 356.141126 L 58.536488 358.192678 L 55.109941 360.256358 L 51.683394 362.320038 L 48.256847 364.383718 L 44.830300 366.447398 L 41.403753 368.511078 L 37.977206 370.574758 L 34.550659 372.638438 L 31.124112 374.702118 L 27.677592 376.730249 L 29.126205 375.189195" fill="none" id="16" stroke="black" stroke-width="0.61461" /><path d="M 541.063205 247.842745 L 537.930075 250.311055 L 535.225891 253.258493 L 532.521708 256.205931 L 529.961662 259.276733 L 527.467052 262.403540 L 524.972441 265.530346 L 522.552641 268.715281 L 520.139103 271.905083 L 517.725565 275.094885 L 515.312028 278.284687 L 512.898490 281.474489 L 510.484952 284.664291 L 508.071415 287.854093 L 505.372134 290.804893 L 502.659135 293.744219 L 499.946136 296.683544 L 497.233136 299.622870 L 494.520137 302.562195 L 494.928833 302.271341 L 497.773800 299.459550 L 496.958037 300.483035 L 494.281713 303.455792 L 491.509693 306.338794 L 488.714288 309.199862 L 485.918883 312.060930 L 483.123478 314.921998 L 480.328072 317.783066 L 477.532667 320.644134 L 480.098709 318.378108 L 483.081778 315.713282 L 481.010577 317.877062 L 478.212368 320.735388 L 475.414160 323.593715 L 472.615952 326.452041 L 469.817744 329.310368 L 467.663934 331.555246 L 470.656424 328.901003 L 472.893728 326.989446 L 470.189918 329.937226 L 467.486108 332.885007 L 464.782298 335.832787 L 462.045506 338.749754 L 459.288036 341.647401 L 456.530565 344.545048 L 453.773095 347.442695 L 450.968661 350.294195 L 448.119843 353.102083 L 445.271024 355.909970 L 444.212815 356.952975" fill="none" id="17" stroke="black" stroke-width="0.61461" /><path d="M 540.905725 247.937225 L 537.899209 249.815048 L 535.035208 252.607448 L 532.171207 255.399848 L 529.307206 258.192248 L 526.604126 261.139195 L 523.929707 264.113667 L 521.306575 267.132474 L 518.750171 270.208965 L 516.193767 273.285456 L 513.637362 276.361947 L 511.080958 279.438439 L 508.479268 282.476349 L 505.848007 285.489066 L 503.216746 288.501783 L 500.585484 291.514500 L 497.895837 294.474383 L 495.160152 297.392606 L 492.424466 300.310829 L 489.688781 303.229052 L 486.953095 306.147275 L 484.217410 309.065498 L 481.481724 311.983721 L 478.746039 314.901944 L 476.010353 317.820166 L 473.274668 320.738389 L 470.538982 323.656612 L 467.803297 326.574835 L 465.067611 329.493058 L 462.331926 332.411281 L 459.596240 335.329504 L 456.860555 338.247727 L 454.122844 341.164016 L 451.333734 344.031221 L 448.544625 346.898426 L 445.755515 349.765632 L 442.966405 352.632837 L 440.128156 355.451199 L 437.277867 358.257595 L 434.427579 361.063990 L 431.577290 363.870385 L 428.727002 366.676781 L 425.876713 369.483176 L 423.026425 372.289572 L 420.176136 375.095967 L 417.325848 377.902363 L 414.475559 380.708758 L 411.625271 383.515154 L 409.693125 385.417545" fill="none" id="18" stroke="black" stroke-width="0.61461" /><path d="M 440.086835 16.204945 L 443.718514 17.881522 L 447.350193 19.558098 L 450.981871 21.234675 L 454.613550 22.911251 L 458.205684 24.669674 L 461.776183 26.472877 L 465.346682 28.276080 L 468.917180 30.079282 L 472.487679 31.882485 L 476.058177 33.685688 L 479.628676 35.488891 L 483.199174 37.292093 L 486.769673 39.095296 L 490.340171 40.898499 L 493.910670 42.701701 L 497.459069 44.547720 L 500.997144 46.413737 L 504.535220 48.279755 L 508.073295 50.145773 L 511.611371 52.011790 L 515.106056 53.957796 L 518.599512 55.906069 L 522.092967 57.854342 L 525.586423 59.802615 L 529.079879 61.750888 L 532.543481 63.751362 L 535.994182 65.774396 L 539.444882 67.797430 L 542.895583 69.820463 L 546.311279 71.901792 L 549.718763 73.996800 L 553.126246 76.091808 L 556.533729 78.186816 L 559.941212 80.281824 L 563.348696 82.376832 L 566.756179 84.471839 L 570.163662 86.566847 L 573.571145 88.661855 L 576.978629 90.756863 L 580.386112 92.851871 L 583.793595 94.946879 L 587.201078 97.041886 L 590.608562 99.136894 L 594.061219 101.154614 L 597.558785 103.095499 L 601.056351 105.036383 L 604.553917 106.977267 L 608.089129 108.848589 L 611.626939 110.715109 L 615.164749 112.581629 L 618.702560 114.448149 L 622.240370 116.314669 L 625.778181 118.181189 L 629.315991 120.047709 L 632.853802 121.914229 L 636.364878 123.830521 L 639.874539 125.749449 L 643.384199 127.668376 L 646.893860 129.587304 L 650.418839 131.477071 L 653.990447 133.278075 L 656.937225 134.764005" fill="none" id="19" stroke="black" stroke-width="0.61461" /><path d="M 450.889985 17.315185 L 453.219891 19.021652 L 456.655318 21.068593 L 460.068902 23.153646 L 463.482485 25.238699 L 466.896069 27.323752 L 470.309652 29.408806 L 473.763584 31.425593 L 477.236297 33.410602 L 480.709010 35.395612 L 484.181723 37.380622 L 487.654436 39.365632 L 491.127149 41.350642 L 494.599862 43.335652 L 498.072575 45.320661 L 501.545288 47.305671 L 505.018001 49.290681 L 508.490714 51.275691 L 511.963427 53.260701 L 515.436141 55.245710 L 518.908854 57.230720 L 522.381567 59.215730 L 525.854280 61.200740 L 529.326993 63.185750 L 532.799706 65.170760 L 536.272419 67.155769 L 539.730426 69.166288 L 543.188419 71.176831 L 546.646412 73.187374 L 550.104406 75.197917 L 553.562399 77.208460 L 557.020392 79.219004 L 560.478385 81.229547 L 563.936378 83.240090 L 567.394371 85.250633 L 570.852364 87.261176 L 574.310357 89.271720 L 577.744084 91.323366 L 581.174999 93.379776 L 584.605914 95.436186 L 588.036829 97.492596 L 591.467744 99.549007 L 594.898659 101.605417 L 598.340124 103.643831 L 601.810386 105.633122 L 605.280648 107.622413 L 608.750911 109.611705 L 612.221173 111.600996 L 615.691435 113.590288 L 619.161697 115.579579 L 622.631959 117.568870 L 626.102222 119.558162 L 629.572484 121.547453 L 633.007832 123.595692 L 636.420116 125.682872 L 639.832400 127.770052 L 643.244683 129.857231 L 646.627983 131.990227 L 649.975656 134.179538 L 653.323330 136.368849 L 653.325665 136.688779 L 652.622265 136.252185" fill="none" id="20" stroke="black" stroke-width="0.61461" /><path d="M 458.858485 18.897855 L 462.187655 20.413568 L 465.103434 23.151859 L 468.224282 25.652862 L 471.464383 27.996268 L 474.738231 30.294510 L 478.012079 32.592753 L 481.307267 34.858468 L 484.719130 36.946336 L 488.130993 39.034203 L 491.542856 41.122071 L 494.954719 43.209938 L 498.366582 45.297805 L 501.778445 47.385673 L 505.190308 49.473540 L 508.602171 51.561408 L 512.014034 53.649275 L 515.425897 55.737142 L 518.822271 57.849773 L 522.192541 60.004136 L 525.562812 62.158498 L 528.933082 64.312860 L 532.286424 66.493270 L 535.623682 68.698425 L 538.960940 70.903580 L 542.298198 73.108734 L 545.635456 75.313889 L 548.972714 77.519044 L 552.309972 79.724199 L 555.647231 81.929354 L 558.984489 84.134509 L 562.321747 86.339664 L 565.659005 88.544819 L 568.996263 90.749973 L 572.333521 92.955128 L 575.670780 95.160283 L 579.008038 97.365438 L 582.345296 99.570593 L 585.682554 101.775748 L 589.019812 103.980903 L 592.357070 106.186058 L 595.694328 108.391213 L 599.031587 110.596367 L 602.368845 112.801522 L 605.683420 115.040522 L 608.991514 117.289191 L 612.299608 119.537860 L 615.606193 121.788660 L 618.825643 124.162506 L 622.045092 126.536352 L 625.264541 128.910198 L 628.483991 131.284045 L 631.703440 133.657891 L 634.922890 136.031737 L 638.142339 138.405583 L 641.361789 140.779429 L 644.621142 143.095944 L 646.826985 144.000225" fill="none" id="21" stroke="black" stroke-width="0.61461" /><path d="M 2.889985 186.307305 L 5.891108 184.482324 L 9.531840 182.828097 L 13.215298 181.268568 L 16.898757 179.709038 L 20.582216 178.149509 L 24.265675 176.589980 L 27.949133 175.030451 L 31.632592 173.470922 L 35.316051 171.911392 L 38.999510 170.351863 L 42.682969 168.792334 L 46.366427 167.232805 L 50.049886 165.673275 L 53.753321 164.162049 L 57.462373 162.664408 L 61.171426 161.166768 L 64.880479 159.669127 L 68.589532 158.171487 L 72.298585 156.673846 L 76.007637 155.176205 L 79.716690 153.678565 L 83.425743 152.180924 L 87.134796 150.683284 L 90.843849 149.185643 L 94.552901 147.688003 L 98.261954 146.190362 L 101.971007 144.692721 L 105.680060 143.195081 L 109.389113 141.697440 L 113.098165 140.199800 L 116.807218 138.702159 L 120.516271 137.204519 L 124.225324 135.706878 L 127.934377 134.209237 L 131.643429 132.711597 L 135.352482 131.213956 L 139.061535 129.716316 L 142.770588 128.218675 L 146.479641 126.721035 L 150.188693 125.223394 L 153.897746 123.725753 L 157.606799 122.228113 L 161.320745 120.742840 L 165.050363 119.297174 L 168.779981 117.851507 L 172.509599 116.405841 L 176.239217 114.960175 L 179.968835 113.514509 L 183.698453 112.068843 L 187.428070 110.623177 L 191.157688 109.177511 L 194.887306 107.731845 L 198.616924 106.286178 L 202.346542 104.840512 L 206.076160 103.394846 L 209.805778 101.949180 L 213.535396 100.503514 L 217.265013 99.057848 L 220.994631 97.612182 L 224.724249 96.166516 L 228.453867 94.720850 L 232.163846 93.226794 L 235.846070 91.664352 L 239.528295 90.101910 L 243.210519 88.539468 L 246.892743 86.977026 L 250.574967 85.414585 L 254.257191 83.852143 L 257.939416 82.289701 L 261.556727 81.071399 L 265.143814 80.353034 L 268.878582 78.920726 L 272.613351 77.488419 L 276.348119 76.056112 L 280.082888 74.623804 L 283.817656 73.191497 L 287.552425 71.759190 L 291.287193 70.326882 L 295.021962 68.894575 L 298.772753 67.504842 L 302.525151 66.119379 L 306.277549 64.733916 L 310.029948 63.348453 L 313.782346 61.962990 L 317.534744 60.577527 L 321.287142 59.192065 L 325.039541 57.806602 L 328.791939 56.421139 L 332.561786 55.084423 L 336.341000 53.773872 L 340.120214 52.463321 L 343.899428 51.152770 L 347.678641 49.842219 L 351.457855 48.531668 L 355.237069 47.221117 L 359.016282 45.910566 L 362.795496 44.600015 L 366.574710 43.289464 L 370.353923 41.978913 L 374.133137 40.668362 L 377.912351 39.357811 L 381.691564 38.047260 L 385.471599 36.739155 L 389.275827 35.503091 L 393.080055 34.267028 L 396.884282 33.030964 L 400.688510 31.794901 L 404.492737 30.558838 L 408.313169 29.373872 L 412.134466 28.191630 L 415.955762 27.009388 L 419.777058 25.827146 L 423.598354 24.644903 L 427.419650 23.462661 L 431.240946 22.280419 L 435.062242 21.098177 L 438.883538 19.915935 L 442.704834 18.733693 L 446.533555 17.575963 L 450.368614 16.439161 L 454.203674 15.302359 L 458.038733 14.165557 L 461.873793 13.028755 L 465.708852 11.891953 L 469.543912 10.755152 L 473.378971 9.618350 L 477.214031 8.481548 L 481.049090 7.344746 L 484.884150 6.207944 L 488.719209 5.071142 L 492.554269 3.934340 L 496.389328 2.797538 L 500.224388 1.660736 L 504.059447 0.523934 L 506.638015 0.307305" fill="none" id="22" stroke="black" stroke-width="0.61461" /><path d="M 23.173445 193.582895 L 20.172942 190.937714 L 17.172440 188.292532 L 14.056772 185.788309 L 12.031221 182.726885 L 14.627011 185.756174 L 17.430295 188.609523 L 20.291613 191.404625 L 23.155198 194.197452 L 26.018782 196.990279 L 28.882366 199.783107 L 31.745951 202.575934 L 34.609535 205.368761 L 37.473120 208.161589 L 40.336704 210.954416 L 43.200289 213.747243 L 46.063873 216.540070 L 48.927458 219.332898 L 51.692425 222.221319 L 54.394772 225.170441 L 56.841504 228.326249 L 59.159602 231.586068 L 61.346675 234.435545 L 61.346675 232.488415" fill="none" id="23" stroke="black" stroke-width="0.61461" /><path d="M 241.756125 422.456915 L 244.757891 424.488556 L 247.594373 427.306801 L 250.524047 430.030219 L 253.453721 432.753638 L 256.383396 435.477057 L 259.313070 438.200475 L 262.242744 440.923894 L 265.236844 443.575856 L 268.248088 446.208803 L 271.259331 448.841751 L 274.270575 451.474698 L 277.348363 454.028291 L 280.465747 456.534666 L 283.583131 459.041042 L 286.700515 461.547417 L 289.817899 464.053793 L 292.935282 466.560169 L 296.052666 469.066544 L 299.170050 471.572920 L 302.287434 474.079295 L 305.404817 476.585671 L 308.370905 479.260670 L 308.779745 480.732505" fill="none" id="24" stroke="black" stroke-width="0.61461" /><path d="M 179.740375 310.323055 L 182.489192 311.532920 L 184.785613 314.803560 L 186.929526 318.176498 L 188.909235 321.652236 L 190.826002 325.161520 L 192.607574 328.742861 L 194.389146 332.324202 L 196.170718 335.905543 L 197.952290 339.486884 L 199.733861 343.068225 L 201.515433 346.649565 L 203.297005 350.230906 L 205.078577 353.812247 L 206.860148 357.393588 L 208.641720 360.974929 L 210.423292 364.556269 L 212.204864 368.137610 L 213.986436 371.718951 L 215.768007 375.300292 L 217.549579 378.881633 L 219.331151 382.462973 L 221.113822 386.043746 L 223.004125 389.568906 L 224.894428 393.094066 L 226.784731 396.619227 L 228.675034 400.144387 L 230.565337 403.669547 L 232.455640 407.194707 L 234.345944 410.719867 L 236.114061 414.306221 L 237.793212 417.935987 L 239.081762 421.722759 L 240.044708 425.602120 L 240.900173 429.507750 L 241.421835 433.473587 L 242.197065 435.874235" fill="none" id="25" stroke="black" stroke-width="0.61461" /></svg>