<?xml version="1.0" encoding="utf-8" ?>
<svg baseProfile="full" height="763.863915" version="1.1" viewBox="0,0,509.863915,763.863915" width="509.863915" xmlns="http://www.w3.org/2000/svg" xmlns:ev="http://www.w3.org/2001/xml-events" xmlns:xlink="http://www.w3.org/1999/xlink"><defs><style type="text/css"><![CDATA[
	.background { fill: white; }
	.line { stroke: firebrick; stroke-width: .1mm; }
	.blacksquare { fill: indigo; }
	.whitesquare { fill: white; }
]]></style></defs><rect class="background" height="100%" width="100%" x="0" y="0" /><path d="M 58.447658 578.817957 L 61.399358 582.839957 L 64.501458 586.746958 L 67.796157 590.492957 L 71.238057 594.103957 L 74.685457 597.710957 L 78.132757 601.316957 L 81.580157 604.923957 L 85.035357 608.522957 L 88.530657 612.082957 L 92.077258 615.591957 L 95.638858 619.084957 L 99.207457 622.571957 L 102.797957 626.035957 L 106.407957 629.479957 L 110.023957 632.916957 L 113.639957 636.353957 L 117.256957 639.790957 L 120.872957 643.227958 L 124.488957 646.664957 L 128.122958 650.082957 L 131.813958 653.439957 L 135.542957 656.753957 L 139.280957 660.058957 L 143.039958 663.339957 L 146.875957 666.528957 L 150.749958 669.671957 L 154.669958 672.758957 L 158.615958 675.811957 L 162.603958 678.808957 L 166.595957 681.802957 L 170.586958 684.795957 L 174.577957 687.789957 L 178.568958 690.782957 L 182.560958 693.776957 L 186.551958 696.769957 L 190.543958 699.762957 L 194.542957 702.744957 L 198.573958 705.684957 L 202.636958 708.579957 L 206.709958 711.460957 L 210.790958 714.331957 L 214.890958 717.173957 L 219.007958 719.991957 L 223.130958 722.801957 L 227.252958 725.612957 L 231.374958 728.422957 L 235.496958 731.233957 L 239.607957 734.060957 L 243.683958 736.936957 L 247.732957 739.851957 L 251.776958 742.774957 L 255.819958 745.697957 L 259.862957 748.620957 L 263.905957 751.542957 L 267.949957 754.465957 L 272.000958 757.378957 L 276.080958 760.248957 L 280.179958 763.092957" fill="none" id="0" stroke="#c583d9" stroke-width="0.5" /><path d="M 56.661258 558.773957 L 57.301858 561.475957 L 57.974658 564.170957 L 58.659658 566.862957 L 59.387058 569.541957 L 60.237558 572.185957 L 61.391458 574.712957 L 62.683458 577.169958 L 64.084757 579.566957 L 65.578157 581.907957 L 67.157857 584.192957 L 68.769157 586.454957 L 70.353057 588.736957 L 71.918458 591.030957 L 73.485357 593.323958 L 75.084558 595.594957 L 76.832957 597.752957 L 78.712558 599.795957 L 80.608058 601.825957 L 82.452957 603.900958 L 84.228657 606.036957 L 86.108257 608.081957 L 88.122658 609.990957 L 90.217857 611.813957 L 92.353157 613.589957 L 94.499957 615.352958 L 96.713657 617.029957 L 98.961457 618.660957 L 101.195957 620.310957 L 103.401957 621.998957 L 105.596958 623.699957" fill="none" id="1" stroke="#c583d9" stroke-width="0.5" /><path d="M 204.777958 705.360957 L 206.525958 708.066957 L 208.360958 710.712957 L 210.291958 713.288957 L 212.347958 715.767957 L 214.565957 718.102958 L 216.831958 720.390957 L 219.119957 722.657957 L 221.383958 724.948958 L 223.648958 727.238957 L 225.975958 729.464957 L 228.394958 731.589957 L 230.986958 733.501958 L 233.609958 735.371958 L 236.238957 737.231957 L 238.852958 739.113957 L 241.398958 741.085957 L 243.978958 743.012957 L 246.631957 744.833957 L 249.448958 746.394957 L 252.290958 747.909957 L 255.302958 748.904957 L 258.479958 749.178957 L 261.545957 748.189957 L 263.957958 746.156957 L 265.383958 743.431957 L 265.858958 740.247957 L 266.005958 737.030957 L 266.222958 733.816957 L 266.445958 730.603957 L 266.641957 727.388957" fill="none" id="2" stroke="#c583d9" stroke-width="0.5" /><path d="M 263.922957 746.168957 L 261.583957 746.255957 L 259.245958 746.341957 L 256.913958 746.172957 L 254.583957 745.965957 L 252.293958 745.507957 L 250.019958 744.957957 L 247.841958 744.136957 L 245.729958 743.128957 L 243.706958 741.968957 L 241.792957 740.622957 L 239.868958 739.291957 L 237.920958 737.994957 L 235.974958 736.694957 L 234.037958 735.382957 L 232.102958 734.067957 L 230.299958 732.576957 L 228.495958 731.085957 L 226.631957 729.672957 L 224.758958 728.269957 L 222.813958 726.971957 L 220.842958 725.710957 L 218.833957 724.511957 L 216.798958 723.356957 L 214.869957 722.048957 L 213.072958 720.550957 L 211.337958 718.986957 L 209.749958 717.267957 L 208.191958 715.524957 L 206.799958 713.643957 L 205.407958 711.762957" fill="none" id="3" stroke="#c583d9" stroke-width="0.5" /><path d="M 52.872858 557.864957 L 53.333258 560.994957 L 53.925558 564.102958 L 54.595358 567.194957 L 55.592258 570.192957 L 56.864857 573.086957 L 58.339058 575.883957 L 59.992158 578.578958 L 61.770257 581.195957 L 63.575158 583.793957 L 65.418957 586.362957 L 67.428557 588.803957 L 69.591857 591.112957 L 71.807457 593.370957 L 74.022357 595.629957 L 76.275058 597.851957 L 78.615957 599.979957 L 81.045558 602.006957 L 83.567157 603.916957 L 86.116457 605.790957 L 88.588557 607.762957 L 91.025157 609.780957 L 93.520857 611.723957 L 95.898657 613.796957 L 98.116357 616.052957 L 100.439957 618.190957 L 102.986958 620.063957 L 105.613957 621.824957 L 108.119957 623.752957 L 110.451957 625.890957 L 112.651957 628.163957" fill="none" id="4" stroke="#c583d9" stroke-width="0.5" /><path d="M 466.735957 210.864958 L 466.226958 215.172958 L 465.854958 219.495958 L 465.681958 223.830958 L 465.661958 228.168958 L 465.700958 232.506957 L 465.843957 236.842958 L 466.037958 241.177958 L 466.234958 245.511958 L 466.324957 249.848958 L 466.348957 254.186958 L 466.352958 258.525958 L 466.327958 262.863958 L 466.241958 267.201957 L 466.046958 271.535957 L 465.757958 275.864958 L 465.437957 280.190958 L 465.057957 284.512958 L 464.584958 288.824957 L 464.074957 293.133958 L 463.538958 297.438958 L 462.954958 301.737957 L 462.336957 306.031958 L 461.715958 310.325958 L 461.091958 314.618958 L 460.450958 318.909958 L 459.776958 323.195958 L 459.099958 327.480957 L 458.858958 331.809957 L 459.248958 336.126958 L 460.116958 340.376958" fill="none" id="5" stroke="#00d4db" stroke-width="0.5" /><path d="M 461.092958 320.415957 L 460.899958 323.018957 L 460.719958 325.621958 L 460.553958 328.225957 L 460.411958 330.831957 L 460.292957 333.438958 L 460.184957 336.045957 L 459.991958 338.648957 L 459.571957 341.215958 L 458.956957 343.750958 L 458.141957 346.230957 L 457.075958 348.597958 L 455.773957 350.857957 L 454.032958 352.802957 L 452.058958 354.470957 L 449.850957 355.860957 L 447.546958 357.085958 L 445.101958 357.842958 L 442.503958 358.088957 L 439.939957 357.602958 L 437.432957 356.911958 L 434.987957 356.001958 L 432.524958 355.137958 L 430.054958 354.295957 L 427.576957 353.477958 L 425.041958 352.861958 L 422.569957 352.063958 L 420.191958 350.989958 L 418.243958 349.267958 L 416.537958 347.313958 L 415.045957 345.171958" fill="none" id="6" stroke="#00d4db" stroke-width="0.5" /><path d="M 453.376958 559.896957 L 449.792957 563.236957 L 446.175958 566.539957 L 442.514958 569.795957 L 438.806958 572.997957 L 435.098957 576.199957 L 431.408957 579.421957 L 427.746958 582.675957 L 424.087958 585.933957 L 420.441958 589.205957 L 416.849958 592.536957 L 413.328958 595.943957 L 409.855957 599.397957 L 406.392958 602.863957 L 402.929958 606.328958 L 399.467958 609.794958 L 395.986958 613.241957 L 392.449957 616.631957 L 388.888958 619.995957 L 385.326957 623.359957 L 381.764958 626.722958 L 378.125958 630.002957 L 374.427957 633.215957 L 370.726958 636.425957 L 367.025958 639.635957 L 363.324957 642.845957 L 359.623958 646.054958 L 355.922957 649.264957 L 352.199957 652.449957 L 348.444957 655.595957 L 344.681958 658.732957 L 340.919958 661.870957 L 337.154958 665.004957 L 333.361958 668.105957 L 329.523957 671.150958 L 325.670957 674.175957 L 321.792957 677.169958 L 317.893957 680.135957 L 313.956957 683.050957 L 310.018957 685.965957 L 306.081957 688.880957 L 302.142958 691.794958 L 298.195958 694.694957 L 294.225957 697.565957 L 290.254957 700.435957 L 286.285957 703.306957 L 282.354958 706.230957 L 278.489958 709.240957 L 274.667957 712.305957" fill="none" id="7" stroke="#9de993" stroke-width="0.5" /><path d="M 265.092958 758.014957 L 269.397958 755.585957 L 273.551958 752.908957 L 277.497957 749.935957 L 281.242957 746.710957 L 285.081957 743.596957 L 288.946957 740.516957 L 292.813958 737.438957 L 296.661958 734.336957 L 300.434957 731.144957 L 304.154958 727.889957 L 307.814957 724.568957 L 311.431958 721.199957 L 315.020958 717.801957 L 318.577958 714.369957 L 322.116958 710.919958 L 325.626958 707.439957 L 329.088957 703.912957 L 332.506957 700.341957 L 335.901958 696.749957 L 339.290957 693.151957 L 342.680958 689.554958 L 346.070958 685.957957 L 349.459958 682.360957 L 352.849958 678.763957 L 356.239958 675.165957 L 359.626958 671.566957 L 362.995958 667.949957 L 366.326957 664.298957 L 369.632958 660.623957 L 372.922957 656.935957 L 376.183958 653.221957 L 379.417957 649.483957 L 382.646957 645.741957 L 385.874957 641.998957 L 389.103958 638.256957 L 392.337958 634.518957 L 395.613958 630.817957 L 398.922957 627.146957 L 402.236958 623.479957 L 405.551958 619.812957 L 408.865958 616.145958 L 412.179958 612.478957" fill="none" id="8" stroke="#58f2c3" stroke-width="0.5" /><path d="M 443.297957 590.604957 L 439.333957 593.522957 L 435.470957 596.573958 L 431.738958 599.783957 L 428.167957 603.171957 L 424.597958 606.560957 L 421.063958 609.986957 L 417.581957 613.466957 L 414.111958 616.957957 L 410.641957 620.448958 L 407.171958 623.940957 L 403.700958 627.431957 L 400.208957 630.900958 L 396.614958 634.264957 L 392.996958 637.602958 L 389.378958 640.939957 L 385.738958 644.253957 L 382.109958 647.579957 L 378.610957 651.041957 L 375.104958 654.496958 L 371.576957 657.928957 L 368.051958 661.365957 L 364.393957 664.659957 L 360.650958 667.855957 L 356.970957 671.124957 L 353.138958 674.214957 L 349.204958 677.173957 L 345.356958 680.243957 L 341.536958 683.347958 L 337.703958 686.436957 L 333.803958 689.439957 L 329.865958 692.392957 L 325.980957 695.416957 L 322.144958 698.500957 L 318.417957 701.716957 L 314.897958 705.157957 L 311.550958 708.766957 L 307.949957 712.123957 L 304.258958 715.379957 L 300.628958 718.704957 L 296.954958 721.980957 L 293.029958 724.951957 L 288.963957 727.725957 L 284.959958 730.589957 L 281.173958 733.734957 L 277.359958 736.846957 L 273.438958 739.823958 L 269.404958 742.644957 L 265.607957 745.776957 L 262.082958 749.212957 L 258.774958 752.857957" fill="none" id="9" stroke="#58f2c3" stroke-width="0.5" /><path d="M 258.774958 752.857957 L 262.910957 750.206957 L 266.959958 747.423957 L 270.857957 744.432957 L 274.687957 741.355957 L 278.602958 738.387957 L 282.523957 735.428957 L 286.344958 732.339957 L 289.939957 728.991957 L 293.601958 725.716957 L 297.396957 722.596957 L 300.813958 719.067957 L 304.259957 715.564957 L 307.795957 712.154957 L 311.249957 708.660957 L 314.812957 705.277957 L 318.531958 702.068957 L 322.198958 698.799958 L 325.881957 695.547957 L 329.564957 692.295957 L 333.347958 689.160957 L 337.221958 686.139957 L 341.082958 683.102958 L 344.848957 679.946957 L 348.742957 676.951957 L 352.819957 674.209957 L 356.886957 671.455957 L 360.936958 668.673957 L 364.896957 665.765957 L 368.697958 662.653957 L 372.435958 659.465957 L 376.173958 656.276957 L 379.913958 653.090957 L 383.669958 649.924958 L 387.492957 646.838957 L 391.379957 643.834957 L 395.107957 640.634957 L 398.640958 637.220957 L 402.252958 633.890957 L 405.783957 630.474957 L 409.223957 626.967957 L 412.523957 623.327957 L 415.821957 619.686957 L 419.102958 616.029957 L 422.224958 612.236957 L 425.421958 608.506957 L 428.973957 605.112957 L 432.332958 601.527957 L 435.675958 597.927957" fill="none" id="10" stroke="#58f2c3" stroke-width="0.5" /><path d="M 429.124957 360.455958 L 430.791958 360.176958 L 432.452958 359.874957 L 434.098957 359.488958 L 435.733958 359.065958 L 437.352958 358.580958 L 438.930958 357.988958 L 440.474958 357.300958 L 442.004957 356.583957 L 443.527958 355.850957 L 445.003958 355.030957 L 446.463957 354.180958 L 447.793958 353.141957 L 449.101958 352.071957 L 450.179958 350.771957 L 451.235957 349.454958 L 452.131957 348.021957 L 452.991958 346.569957 L 453.709958 345.039958 L 454.275958 343.463957 L 454.536958 341.793958 L 454.753958 340.118958 L 454.917957 338.436958 L 455.150958 336.764958 L 455.442958 335.099958 L 455.976958 333.507958 L 456.636957 331.951957 L 457.524958 330.521957 L 458.480957 329.127958 L 459.617957 327.880958 L 460.777958 326.651958" fill="none" id="11" stroke="#c94e76" stroke-width="0.5" /><path d="M 216.368958 497.628958 L 220.546958 495.009957 L 224.723958 492.391957 L 228.901958 489.773957 L 233.078958 487.154958 L 237.256957 484.536958 L 241.374958 481.826957 L 245.383958 478.956957 L 249.365958 476.049958 L 253.305958 473.085958 L 257.233958 470.106958 L 261.161958 467.126958 L 265.088957 464.145958 L 269.016957 461.165957 L 272.943958 458.185958 L 276.895958 455.237957 L 280.901958 452.363958 L 284.941958 449.537958 L 289.044958 446.803958 L 293.188958 444.132958 L 297.374957 441.527958 L 301.616958 439.015958 L 305.879957 436.539958 L 310.143957 434.063958 L 314.407958 431.588957 L 318.670957 429.112957 L 322.934957 426.636957 L 327.197958 424.160957 L 331.467958 421.695958 L 335.758958 419.266957 L 340.063958 416.865958 L 344.369957 414.463957 L 348.674958 412.060958 L 352.972958 409.645958 L 357.258958 407.208957 L 361.538958 404.761957 L 365.818958 402.313958 L 370.098957 399.866958 L 374.378958 397.418958 L 378.658957 394.972958 L 382.951957 392.547957 L 387.268957 390.166958 L 391.587958 387.789958 L 395.907958 385.411958 L 400.226958 383.035957 L 404.553958 380.671958 L 408.897958 378.340958 L 413.251958 376.026958 L 417.604958 373.712958 L 421.958957 371.398957 L 426.311958 369.084958 L 430.665957 366.770958 L 435.012958 364.445958 L 439.315958 362.037958 L 443.585958 359.573958 L 447.855957 357.108958 L 452.125958 354.644958 L 456.395958 352.179958 L 460.665957 349.714958 L 464.935958 347.250958" fill="none" id="12" stroke="#57b870" stroke-width="0.5" /><path d="M 253.313958 202.943958 L 257.956957 201.144958 L 262.643957 199.464957 L 267.386957 197.950958 L 272.169958 196.565957 L 276.960958 195.211958 L 281.752958 193.857957 L 286.543958 192.504958 L 291.335958 191.151958 L 296.126958 189.794958 L 300.906958 188.401958 L 305.670957 186.953958 L 310.427957 185.482957 L 315.166958 183.956958 L 319.874957 182.336958 L 324.574957 180.693958 L 329.274958 179.049958 L 333.974958 177.406958 L 338.675958 175.762957 L 343.375958 174.119957 L 348.075958 172.475958 L 352.775958 170.831958 L 357.472958 169.179958 L 362.160957 167.501958 L 366.839958 165.799958 L 371.515958 164.088958 L 376.186958 162.366958 L 380.843957 160.604958 L 385.484958 158.801958 L 390.119957 156.982957 L 394.754957 155.163958 L 399.389958 153.343958 L 404.024958 151.524957 L 408.657958 149.701958 L 413.285957 147.863957 L 417.905957 146.007958 L 422.522958 144.143957 L 427.137958 142.274957 L 431.739958 140.372958 L 436.312957 138.404958 L 440.869957 136.397958 L 445.423958 134.385958 L 449.977958 132.372958 L 454.532958 130.360958 L 459.085958 128.345957 L 463.628958 126.308957 L 468.145958 124.213957 L 472.657958 122.106957 L 477.169958 120.000957 L 481.680958 117.894957 L 486.192958 115.788957 L 490.704958 113.681957 L 495.215958 111.575958 L 499.732957 109.479957 L 504.278957 107.448957 L 508.840958 105.455957" fill="none" id="13" stroke="#d271bb" stroke-width="0.5" /><path d="M 470.730957 83.345357 L 471.119957 88.281957 L 471.455958 93.222358 L 471.683958 98.168858 L 471.777958 103.119957 L 471.898957 108.069958 L 472.032958 113.019957 L 472.244957 117.967957 L 472.499957 122.912957 L 472.757958 127.857957 L 473.015958 132.802958 L 473.273957 137.747958 L 473.530957 142.692958 L 473.711957 147.641958 L 473.879957 152.590958 L 474.047957 157.539958 L 474.206957 162.488957 L 474.281958 167.439958 L 474.339958 172.391958 L 474.398957 177.342958 L 474.455958 182.294958 L 474.458957 187.246958 L 474.435958 192.197958 L 474.407958 197.149957 L 474.380958 202.101957 L 474.319957 207.052958 L 474.126958 212.001958 L 473.890958 216.947958 L 473.654958 221.893957 L 473.418958 226.839957 L 473.166958 231.785958 L 472.875958 236.728958 L 472.565958 241.670958 L 472.251958 246.612958 L 471.938958 251.554958 L 471.624957 256.496958 L 471.311958 261.438958 L 470.995958 266.379957 L 470.657958 271.320958 L 470.290957 276.258958 L 469.912958 281.195958 L 469.533957 286.133958 L 469.149958 291.069957 L 468.736958 296.004957 L 468.298958 300.936958 L 467.853958 305.868958 L 467.407958 310.800958 L 466.946957 315.730957 L 466.456957 320.658957 L 465.951957 325.584958 L 465.445958 330.510958 L 464.938958 335.436958 L 464.432957 340.361958 L 463.928958 345.288958 L 463.439957 350.215958 L 462.969958 355.145958 L 462.505958 360.075958 L 462.041958 365.005958 L 461.577958 369.935958 L 461.113958 374.865958 L 460.649958 379.795957 L 460.185958 384.725957 L 459.721958 389.655957 L 459.257958 394.585958 L 458.793958 399.515958 L 458.329958 404.445958 L 457.861958 409.375958 L 457.376958 414.303958 L 456.867957 419.228958 L 456.354958 424.154958 L 455.840958 429.079958 L 455.327958 434.004957 L 454.814957 438.929958 L 454.300958 443.854958 L 453.782958 448.779958 L 453.233958 453.700958 L 452.626958 458.615958 L 452.001958 463.527958 L 451.370958 468.438958 L 450.704958 473.345957 L 449.979958 478.244957 L 449.240958 483.140958 L 448.496958 488.036958 L 447.724958 492.927957 L 446.923958 497.814957 L 446.121958 502.700958 L 445.319957 507.587958 L 444.513958 512.472958 L 443.662958 517.351957 L 442.760958 522.219957 L 441.847958 527.086957 L 440.874957 531.942957 L 439.857957 536.788957 L 438.826957 541.631957 L 437.798958 546.475957 L 436.777958 551.321957" fill="none" id="14" stroke="#3d8e43" stroke-width="0.5" /><path d="M 458.447958 381.833957 L 458.357957 382.601958 L 458.268957 383.370958 L 458.194957 384.141957 L 458.121958 384.911958 L 458.075958 385.684957 L 458.033957 386.457958 L 458.000958 387.230957 L 457.970957 388.003958 L 457.944957 388.777958 L 457.919958 389.551958 L 457.892958 390.324957 L 457.864958 391.098957 L 457.833957 391.871958 L 457.801958 392.644958 L 457.762958 393.417957 L 457.718957 394.190958 L 457.667957 394.962958 L 457.610957 395.734958 L 457.551958 396.506957 L 457.488958 397.278957 L 457.423958 398.049958 L 457.353958 398.820958 L 457.284958 399.591958 L 457.215958 400.361958 L 457.147958 401.132958 L 457.077958 401.903957 L 457.008958 402.674958 L 456.939957 403.445958 L 456.870958 404.216958 L 456.732957 405.758958" fill="none" id="15" stroke="#3d8e43" stroke-width="0.5" /><path d="M 456.732957 405.758958 L 456.806958 404.875958 L 456.880958 403.992957 L 456.945958 403.108958 L 457.011957 402.224958 L 457.058958 401.339958 L 457.106958 400.454958 L 457.141957 399.568958 L 457.176958 398.682957 L 457.205958 397.797957 L 457.234958 396.911958 L 457.261957 396.025958 L 457.287958 395.139958 L 457.315958 394.253958 L 457.342958 393.367957 L 457.384957 392.482957 L 457.425958 391.597958 L 457.482957 390.712958 L 457.539958 389.828958 L 457.608958 388.944957 L 457.677957 388.060958 L 457.773957 387.179958 L 457.869957 386.298958 L 457.970957 385.418958 L 458.071957 384.537958 L 458.193958 383.659958 L 458.316958 382.781958 L 458.461957 381.907958 L 458.607957 381.033957 L 458.763958 380.160957 L 458.919958 379.288958" fill="none" id="16" stroke="#3d8e43" stroke-width="0.5" /><path d="M 458.919958 379.288958 L 459.080958 381.790957 L 459.208957 384.294958 L 459.270958 386.801958 L 459.262958 389.308958 L 459.218957 391.815958 L 458.991958 394.312957 L 458.749957 396.808958 L 458.478958 399.301958 L 458.194957 401.792957 L 457.905957 404.283957 L 457.560958 406.766957 L 457.215958 409.250958 L 456.870958 411.734958 L 456.523957 414.217958 L 456.175958 416.700958 L 455.827958 419.184957 L 455.479958 421.667957 L 455.131957 424.150958 L 454.783957 426.633958 L 454.435958 429.117957 L 454.087958 431.600957 L 453.739958 434.083957 L 453.391957 436.566958 L 453.043958 439.049958 L 452.694957 441.533957 L 452.385958 444.021957 L 452.091958 446.511957 L 451.829958 449.005958 L 451.589958 451.501958 L 451.360957 453.998958" fill="none" id="17" stroke="#3d8e43" stroke-width="0.5" /><path d="M 476.431958 38.746958 L 475.960958 43.662358 L 475.442958 48.573158 L 474.846958 53.474958 L 474.268957 58.378958 L 473.698958 63.284058 L 473.231958 68.199757 L 472.808958 73.119658 L 472.435958 78.043557 L 472.113958 82.970957 L 471.796958 87.898758 L 471.479958 92.826557 L 471.163958 97.754357 L 470.920957 102.685958 L 470.701957 107.619957 L 470.484958 112.552957 L 470.268957 117.485957 L 470.051958 122.418957 L 469.841958 127.352958 L 469.664958 132.286957 L 469.511957 137.222958 L 469.363958 142.158958 L 469.214958 147.094958 L 469.065958 152.029958 L 468.916958 156.965958 L 468.768957 161.901958 L 468.619957 166.836958 L 468.470957 171.772958 L 468.321957 176.708957 L 468.173958 181.644958 L 468.024958 186.579958 L 467.848957 191.514958 L 467.619957 196.447958 L 467.360957 201.378958 L 467.098957 206.309957 L 466.837958 211.240958 L 466.574957 216.171958 L 466.277958 221.100958 L 465.949957 226.027958 L 465.603958 230.953958 L 465.219958 235.876958 L 464.808958 240.797958 L 464.395958 245.718958 L 463.982957 250.638958 L 463.555958 255.558958 L 463.064957 260.471958 L 462.507958 265.378958 L 461.924958 270.281958 L 461.292957 275.179958 L 460.641957 280.073958 L 459.989958 284.968957 L 459.338957 289.863958 L 458.667957 294.755958 L 457.945958 299.640958 L 457.195958 304.521957 L 456.446957 309.402958 L 455.696957 314.282958 L 454.947958 319.163958 L 454.197958 324.044958 L 453.448958 328.925958 L 452.699957 333.805958 L 451.949957 338.686958 L 451.200958 343.567958 L 450.450958 348.448958 L 449.701957 353.328958 L 448.951957 358.209958 L 448.202958 363.090958 L 447.452958 367.971958 L 446.703958 372.852958 L 445.953958 377.732957 L 445.205958 382.613958 L 444.470957 387.496958 L 443.754957 392.382958 L 443.041958 397.268957 L 442.329958 402.155957 L 441.616958 407.041958 L 440.903957 411.927957" fill="none" id="18" stroke="#d55969" stroke-width="0.5" /><path d="M 147.516958 625.698958 L 147.743958 627.533957 L 147.971958 629.369957 L 148.207958 631.204957 L 148.446957 633.038957 L 148.694958 634.871958 L 148.945958 636.703958 L 149.203958 638.535957 L 149.460958 640.367957 L 149.717958 642.199957 L 149.956958 644.033957 L 150.184957 645.868957 L 150.386958 647.707957 L 150.581958 649.546957 L 150.764958 651.387957 L 150.945958 653.228957 L 151.126958 655.069957 L 151.307958 656.909957 L 151.488957 658.750957 L 151.669958 660.591957 L 151.850958 662.432957 L 152.031958 664.273957 L 152.212958 666.114957 L 152.393957 667.955957 L 152.574958 669.795957 L 152.755958 671.636957 L 152.936958 673.477958 L 153.116958 675.318957 L 153.297958 677.159957 L 153.478958 679.000957 L 153.659958 680.840957" fill="none" id="19" stroke="#64e4ff" stroke-width="0.5" /><path d="M 76.904357 369.951957 L 78.096257 374.754957 L 79.225857 379.573958 L 80.320257 384.399958 L 81.215958 389.266957 L 82.112257 394.134957 L 83.007657 399.001958 L 83.888458 403.871958 L 84.719157 408.750958 L 85.544258 413.630958 L 86.369357 418.510958 L 87.193057 423.390958 L 88.002257 428.272958 L 88.774357 433.161958 L 89.508457 438.055958 L 90.195057 442.956957 L 90.854658 447.861958 L 91.508758 452.767958 L 92.159458 457.673958 L 92.790858 462.582958 L 93.391458 467.494957 L 93.962257 472.411958 L 94.498357 477.331957 L 95.010657 482.253958 L 95.517157 487.176958 L 96.014057 492.100957 L 96.475657 497.028957 L 96.892758 501.959958 L 97.289357 506.893957 L 97.681757 511.826957 L 98.056857 516.761957 L 98.392457 521.699957 L 98.699357 526.638957 L 99.000158 531.578958 L 99.292057 536.519957 L 99.552057 541.461957 L 99.773758 546.405957 L 99.945957 551.351957 L 100.085057 556.298957 L 100.215958 561.246958 L 100.318258 566.194957 L 100.336757 571.143957 L 100.337457 576.092957 L 100.328157 581.041957 L 100.206257 585.989957 L 99.858058 590.925957 L 99.372457 595.850957 L 98.762657 600.762957" fill="none" id="20" stroke="#e68e54" stroke-width="0.5" /><path d="M 266.641957 727.388957 L 266.669958 728.023957 L 266.698958 728.658957 L 266.728958 729.292957 L 266.759957 729.927957 L 266.791958 730.562957 L 266.823958 731.196957 L 266.856958 731.831957 L 266.890958 732.465957 L 266.925958 733.100957 L 266.959958 733.734957 L 266.997957 734.368957 L 267.036958 735.003957 L 267.063958 735.637957 L 267.083957 736.272957 L 267.087958 736.908957 L 267.076957 737.543957 L 267.060958 738.178957 L 267.035957 738.813957 L 266.982957 739.445957 L 266.878958 740.072957 L 266.781958 740.700957 L 266.699957 741.330957 L 266.587958 741.953958 L 266.367957 742.549958 L 266.140958 743.142957 L 265.885958 743.724957 L 265.621958 744.301957 L 265.249957 744.816957 L 264.878958 745.331957 L 263.922957 746.168957" fill="none" id="21" stroke="#54aeff" stroke-width="0.5" /><path d="M 447.297957 567.360957 L 446.731958 570.042957 L 446.101958 572.709957 L 445.398957 575.358957 L 444.548958 577.964957 L 443.627958 580.546957 L 442.401958 582.947957 L 440.545957 584.964957 L 438.065958 586.065957 L 435.457958 586.891957 L 432.792957 587.502957 L 430.062957 587.261957 L 427.452958 586.523957 L 424.927957 585.457957 L 422.454958 584.275958 L 419.875958 583.362957 L 417.258958 582.545957 L 414.633958 581.755957 L 412.038958 580.872957 L 409.473957 579.911957 L 406.939957 578.865957 L 404.473957 577.668957 L 402.053958 576.383957 L 399.673958 575.025958 L 397.332958 573.598957 L 395.028957 572.113957 L 392.753958 570.585957 L 390.510958 569.009957 L 388.320958 567.360957 L 386.158957 565.676957 L 384.022958 563.959957" fill="none" id="22" stroke="#eed973" stroke-width="0.5" /><path d="M 38.006758 392.628958 L 38.048458 390.334958 L 38.111458 388.041958 L 38.188958 385.748958 L 38.179358 383.454958 L 38.357558 381.174958 L 38.727958 378.916958 L 39.748758 376.862957 L 40.962958 374.925958 L 42.380158 373.144958 L 44.412658 372.081957 L 46.548158 371.277958 L 48.763358 370.692958 L 51.048258 370.487957 L 53.335757 370.316958 L 55.622958 370.212958 L 57.879958 370.622957 L 60.135458 371.041958 L 62.389958 371.465958 L 64.644357 371.890958 L 66.865257 372.450958 L 69.054757 373.133958 L 71.150557 374.065958 L 73.212857 375.068958 L 75.245757 376.131957 L 77.275458 377.200958 L 79.340157 378.196957 L 81.438158 379.124957 L 83.602557 379.884957 L 85.787057 380.582958 L 87.990957 381.218957" fill="none" id="23" stroke="#008bd4" stroke-width="0.5" /><path d="M 35.487058 337.777958 L 36.503357 339.481958 L 37.526457 341.181958 L 38.571058 342.868958 L 39.625558 344.549958 L 40.690857 346.223957 L 41.805858 347.863958 L 42.940857 349.491958 L 44.191758 351.030957 L 45.467658 352.549958 L 46.826557 353.994957 L 48.219658 355.406958 L 49.660758 356.770958 L 51.129258 358.103958 L 52.612458 359.421958 L 54.068658 360.769958 L 55.514057 362.128958 L 56.906458 363.541958 L 58.306658 364.947958 L 59.721258 366.338957 L 61.218958 367.635958 L 62.774658 368.866958 L 64.448957 369.927957 L 66.150458 370.947958 L 67.890457 371.900958 L 69.623657 372.866958 L 71.340558 373.860957 L 73.087558 374.798958 L 74.861357 375.687957 L 76.651357 376.543958 L 78.446357 377.388958" fill="none" id="24" stroke="#fdb968" stroke-width="0.5" /><path d="M 78.446357 377.388958 L 76.802357 377.037958 L 75.158357 376.686958 L 73.547857 376.205958 L 71.938657 375.719958 L 70.391458 375.063958 L 68.849657 374.394958 L 67.370657 373.597958 L 65.901657 372.779958 L 64.442157 371.945958 L 62.985058 371.107957 L 61.547858 370.235957 L 60.118558 369.350957 L 58.756458 368.369957 L 57.431857 367.334958 L 56.179158 366.217958 L 54.979858 365.039958 L 53.820058 363.823958 L 52.699258 362.570958 L 51.620158 361.283957 L 50.596258 359.950958 L 49.634557 358.574957 L 48.782658 357.125958 L 47.963458 355.658957 L 47.223258 354.149958 L 46.462658 352.651958 L 45.630458 351.190958 L 44.784258 349.738958 L 43.856958 348.336957 L 42.924658 346.937957 L 41.930258 345.582958 L 40.935858 344.226958" fill="none" id="25" stroke="#fdb968" stroke-width="0.5" /><path d="M 37.964958 327.239958 L 38.361058 329.453958 L 38.768958 331.665957 L 39.247357 333.862957 L 39.747958 336.055958 L 40.306058 338.234958 L 40.930558 340.393957 L 41.651457 342.523957 L 42.495458 344.604958 L 43.450258 346.640958 L 44.455558 348.652958 L 45.488558 350.649958 L 46.558158 352.628958 L 47.639057 354.600957 L 48.710757 356.577958 L 49.781258 358.555958 L 51.064258 360.402958 L 52.382858 362.221958 L 53.937158 363.846958 L 55.535258 365.425958 L 57.263758 366.864958 L 59.064557 368.201957 L 60.985358 369.371958 L 62.956458 370.449957 L 64.978457 371.434957 L 67.027957 372.359958 L 69.094857 373.245958 L 71.179857 374.088957 L 73.271158 374.916958 L 75.380758 375.695958 L 77.493057 376.467958" fill="none" id="26" stroke="#fdb968" stroke-width="0.5" /><path d="M 77.493057 376.467958 L 75.453857 376.114958 L 73.421557 375.729958 L 71.412858 375.230957 L 69.434857 374.632958 L 67.492757 373.917957 L 65.587058 373.113958 L 63.697958 372.268957 L 61.788158 371.470957 L 59.873358 370.685958 L 57.939458 369.948958 L 56.063158 369.095957 L 54.299558 368.012958 L 52.668157 366.753958 L 51.141658 365.356958 L 49.735458 363.840958 L 48.362558 362.291958 L 47.096158 360.655957 L 45.860858 358.996958 L 44.734358 357.260958 L 43.711658 355.465958 L 42.819958 353.598957 L 42.113658 351.658957 L 41.503357 349.680958 L 40.843158 347.719958 L 40.190458 345.755958 L 39.672158 343.752958 L 39.265858 341.728958 L 39.060158 339.669958 L 38.988058 337.603958 L 38.983158 335.533957" fill="none" id="27" stroke="#fdb968" stroke-width="0.5" /><path d="M 196.022958 448.588957 L 198.098958 449.982957 L 200.175958 451.376958 L 202.289958 452.713957 L 204.403958 454.049958 L 206.535958 455.356958 L 208.668958 456.662958 L 210.898958 457.794958 L 213.130958 458.922957 L 215.332958 460.109958 L 217.532958 461.297957 L 219.725958 462.499957 L 221.918958 463.702958 L 224.209958 464.705958 L 226.504958 465.700958 L 228.814958 466.658957 L 231.125957 467.614958 L 233.566958 468.146957 L 236.016958 468.650958 L 238.489958 468.344958 L 240.964957 467.984958 L 243.212958 466.897958 L 245.454958 465.787958 L 247.163958 463.970957 L 248.852958 462.125958 L 249.986958 459.897958 L 251.119957 457.667957 L 251.746958 455.246958 L 252.373958 452.825958 L 252.576958 450.332958 L 252.780957 447.839958" fill="none" id="28" stroke="#6f73bc" stroke-width="0.5" /><path d="M 252.780957 447.839958 L 253.346958 450.146957 L 253.784958 452.470957 L 253.838958 454.844958 L 253.723958 457.209958 L 253.395958 459.561958 L 252.107957 461.451957 L 250.474958 463.176958 L 248.480958 464.461957 L 246.415958 465.595957 L 244.102958 466.132958 L 241.764958 466.411958 L 239.391958 466.312957 L 237.021958 466.158957 L 234.654958 465.971958 L 232.312958 465.582958 L 229.979958 465.142958 L 227.687958 464.519958 L 225.400958 463.880958 L 223.124958 463.199957 L 220.857957 462.491958 L 218.599958 461.756957 L 216.401958 460.861958 L 214.227958 459.905957 L 212.128958 458.795957 L 210.054958 457.641957 L 208.092958 456.303958 L 206.251958 454.819957 L 204.582958 453.129957 L 203.073958 451.300958 L 201.628958 449.415957" fill="none" id="29" stroke="#6f73bc" stroke-width="0.5" /><path d="M 198.888958 455.439957 L 201.645958 456.539958 L 204.367958 457.726958 L 207.022958 459.052957 L 209.643957 460.447958 L 212.256957 461.857957 L 214.869957 463.268957 L 217.461958 464.715958 L 219.993958 466.263958 L 222.472958 467.899958 L 224.957958 469.523957 L 227.502958 471.053958 L 230.072958 472.539958 L 232.615958 474.071957 L 235.075958 475.731958 L 237.409958 477.562957 L 239.652958 479.507958 L 241.860958 481.492957 L 243.983958 483.562957 L 245.855958 485.862957 L 247.360958 488.422957 L 248.557958 491.138958 L 249.699958 493.879957 L 250.966958 496.563958 L 252.098958 499.304958 L 252.762957 502.176958 L 252.980958 505.134957 L 252.992958 508.102958 L 252.885958 511.069957 L 252.747958 514.035957 L 252.557958 516.998957" fill="none" id="30" stroke="#bee481" stroke-width="0.5" /><path d="M 114.793957 77.227257 L 112.331958 81.499857 L 109.594957 85.600157 L 106.508957 89.445358 L 103.160957 93.066558 L 99.798357 96.673457 L 96.434457 100.279557 L 93.073557 103.887957 L 89.734657 107.516957 L 86.434258 111.181957 L 83.141858 114.852958 L 79.849557 118.524957 L 76.557257 122.195957 L 73.264957 125.867958 L 69.972657 129.538958 L 66.686257 133.215958 L 63.426958 136.916958 L 60.212358 140.655957 L 57.053258 144.442958 L 53.965358 148.286957 L 50.952958 152.191958 L 48.010458 156.148958 L 45.122658 160.145958 L 42.269758 164.168958 L 39.427157 168.197958 L 36.567258 172.215958 L 33.659158 176.197958 L 30.719957 180.157958 L 27.775457 184.113957 L 24.831957 188.070958 L 21.901058 192.036957 L 19.009757 196.031958 L 16.145357 200.045958 L 13.327357 204.092958 L 10.621657 208.214957 L 7.958267 212.365958 L 5.385148 216.572958 L 2.879577 220.819958 L 0.431957 225.100958" fill="none" id="31" stroke="#8f6aaf" stroke-width="0.5" /><path d="M 21.597358 200.014958 L 25.950357 197.739958 L 30.137458 195.171958 L 34.122357 192.301958 L 37.718158 188.955958 L 41.075458 185.370958 L 44.348658 181.708957 L 47.675657 178.095957 L 51.102657 174.576958 L 54.605958 171.133958 L 58.221658 167.809957 L 61.878458 164.530957 L 65.523557 161.238957 L 69.094358 157.865958 L 72.611058 154.436958 L 76.085757 150.964957 L 79.453057 147.389958 L 82.728758 143.729958 L 85.944857 140.016958 L 89.124657 136.273958 L 92.277957 132.507958 L 95.382357 128.701958 L 98.456958 124.870957 L 101.531957 121.040957 L 104.605958 117.209958 L 107.680957 113.379957 L 110.755957 109.549957 L 113.870957 105.751957 L 117.119957 102.068957 L 120.482957 98.489157 L 123.906957 94.967258 L 127.380957 91.494457 L 130.847958 88.015957 L 134.227958 84.452057 L 137.435958 80.732658 L 140.221958 76.687357 L 142.479958 72.325257 L 144.337958 67.778458" fill="none" id="32" stroke="#8bb658" stroke-width="0.5" /><path d="M 243.014958 304.565958 L 247.682958 302.829958 L 252.291958 300.945958 L 256.815958 298.862957 L 261.301958 296.699957 L 265.874957 294.728958 L 270.499957 292.880958 L 275.167957 291.145958 L 279.862957 289.482957 L 284.573958 287.868958 L 289.306958 286.316958 L 294.046958 284.788958 L 298.787958 283.261957 L 303.527958 281.734958 L 308.268957 280.208957 L 313.008958 278.678958 L 317.733958 277.106958 L 322.432957 275.455958 L 327.116958 273.762958 L 331.782958 272.021957 L 336.424958 270.216958 L 341.057957 268.388958 L 345.688958 266.557957 L 350.315958 264.713957 L 354.903957 262.775958 L 359.447958 260.736958 L 363.986958 258.688958 L 368.513958 256.610957 L 372.995958 254.438958 L 377.465958 252.242958 L 381.934957 250.045958 L 386.404958 247.848958 L 390.877958 245.657958 L 395.365958 243.498958 L 399.865958 241.363957 L 404.367957 239.234958 L 408.869957 237.104958 L 413.371958 234.975958 L 417.874957 232.845957 L 422.376958 230.716958 L 426.873958 228.576958 L 431.359958 226.413958 L 435.838957 224.234958 L 440.315958 222.052958 L 444.784958 219.853958 L 449.235957 217.619957 L 453.679958 215.370958 L 458.121958 213.119957 L 462.564957 210.868958 L 467.007958 208.616958 L 471.449957 206.365958 L 475.892958 204.114958 L 480.335958 201.863957 L 484.777958 199.612958" fill="none" id="33" stroke="#bbabff" stroke-width="0.5" /><path d="M 466.884957 216.926958 L 464.793958 212.415958 L 462.648957 207.930958 L 460.446957 203.472958 L 458.134957 199.072958 L 455.584958 194.804958 L 452.946957 190.590958 L 450.301958 186.380958 L 447.656958 182.171958 L 445.010958 177.961958 L 442.365958 173.752958 L 439.720957 169.543958 L 437.073958 165.334958 L 434.410957 161.136958 L 431.700958 156.968958 L 428.965958 152.816958 L 426.215958 148.675958 L 423.433958 144.554958 L 420.629957 140.449958 L 417.820958 136.346958 L 415.012958 132.244957 L 412.213957 128.135957 L 409.455958 123.999957 L 406.748958 119.829957 L 404.061958 115.646957 L 401.373958 111.463957 L 398.686958 107.280957 L 395.999957 103.097957 L 393.312957 98.915557 L 390.625958 94.732658 L 387.937957 90.549858 L 385.250958 86.367058 L 382.561958 82.185558 L 379.856958 78.014358 L 377.122957 73.861757 L 374.362957 69.726857 L 371.553958 65.624657 L 368.701957 61.552758 L 365.813958 57.505558 L 362.873958 53.496758 L 359.896957 49.514758 L 356.860957 45.578057 L 353.759957 41.691958 L 350.623958 37.834257 L 347.436958 34.019058 L 344.220957 30.227457 L 341.001958 26.438757 L 337.780957 22.651257 L 334.542957 18.879157 L 331.233958 15.168658 L 327.896957 11.483357 L 324.557957 7.799538 L 321.218957 4.115748 L 317.880958 0.431957" fill="none" id="34" stroke="#658424" stroke-width="0.5" /><path d="M 479.486958 365.203958 L 475.493958 368.103958 L 471.512958 371.020958 L 467.547957 373.958957 L 463.596958 376.916958 L 459.646957 379.875958 L 455.699957 382.837958 L 451.798958 385.860957 L 447.902958 388.890958 L 444.007958 391.920957 L 440.112957 394.951957 L 436.206957 397.967958 L 432.280957 400.958957 L 428.350957 403.943958 L 424.420957 406.929958 L 420.479958 409.899958 L 416.496958 412.814957 L 412.492957 415.699957 L 408.485957 418.580958 L 404.478958 421.460958 L 400.464958 424.332958 L 396.429958 427.174958 L 392.379957 429.994957 L 388.311958 432.789958 L 384.216958 435.543958 L 380.108958 438.277958 L 375.978958 440.979958 L 371.824957 443.644958 L 367.664958 446.300958 L 363.505958 448.956957 L 359.345957 451.612957 L 355.186958 454.268957 L 351.026958 456.924958 L 346.867957 459.581957 L 342.691958 462.212958 L 338.482957 464.789958 L 334.258958 467.340958 L 330.033957 469.892958 L 325.808958 472.442958 L 321.573958 474.975957 L 317.314957 477.469958 L 313.038958 479.933958 L 308.751958 482.378958 L 304.453958 484.804958 L 300.155957 487.230957 L 295.851958 489.645958 L 291.515958 492.002958 L 287.159958 494.321957 L 282.802957 496.639958 L 278.444957 498.955958 L 274.068958 501.238958 L 269.615958 503.365958 L 265.161958 505.492957 L 260.708957 507.618958 L 256.255958 509.745958 L 251.801958 511.872957" fill="none" id="35" stroke="#f1b9ff" stroke-width="0.5" /><path d="M 423.171958 354.242957 L 424.635958 354.984958 L 426.099958 355.725957 L 427.592958 356.406958 L 429.085958 357.087958 L 430.618958 357.672957 L 432.151958 358.258958 L 433.705958 358.785957 L 435.259957 359.313958 L 436.785957 359.915957 L 438.311958 360.518957 L 439.781958 361.248958 L 441.251958 361.977958 L 442.682957 362.780957 L 444.113958 363.583957 L 445.342958 364.671958 L 446.570958 365.759957 L 447.679958 366.969958 L 448.787958 368.179958 L 449.812957 369.460958 L 450.837958 370.742957 L 451.768957 372.093957 L 452.699957 373.445958 L 453.546958 374.850957 L 454.393957 376.256957 L 455.128958 377.723957 L 455.862957 379.191958 L 456.474958 380.713957 L 457.086957 382.235957 L 457.605957 383.792957 L 458.124957 385.349958" fill="none" id="36" stroke="#989c37" stroke-width="0.5" /><path d="M 458.124957 385.349958 L 457.803958 383.841958 L 457.482957 382.333957 L 457.102958 380.839958 L 456.711957 379.348957 L 456.298958 377.863958 L 455.876958 376.380958 L 455.337958 374.940958 L 454.702958 373.535957 L 453.959958 372.192958 L 453.063958 370.938958 L 452.129957 369.714958 L 451.096958 368.570958 L 450.053958 367.434957 L 448.945958 366.363958 L 447.836957 365.292957 L 446.624957 364.339958 L 445.409958 363.390958 L 444.104958 362.572958 L 442.780957 361.783957 L 441.417957 361.065958 L 440.035957 360.382958 L 438.639958 359.728958 L 437.231958 359.101958 L 435.803958 358.523957 L 434.343957 358.026958 L 432.871958 357.580958 L 431.354958 357.305958 L 429.835958 357.047957 L 428.298958 356.920957 L 426.762958 356.793958" fill="none" id="37" stroke="#989c37" stroke-width="0.5" /><path d="M 421.502958 352.494957 L 423.209958 352.861958 L 424.912958 353.244957 L 426.589958 353.727958 L 428.251958 354.258958 L 429.871958 354.908957 L 431.471958 355.605957 L 433.041958 356.368958 L 434.603958 357.148957 L 436.158957 357.943958 L 437.687957 358.784958 L 439.204958 359.649958 L 440.670957 360.595957 L 442.122957 361.565958 L 443.486958 362.654958 L 444.837958 363.759957 L 446.067958 364.998958 L 447.275958 366.256957 L 448.351958 367.631957 L 449.376958 369.041958 L 450.261957 370.546958 L 451.063958 372.093957 L 451.738958 373.703958 L 452.292957 375.354958 L 452.732957 377.044958 L 453.052957 378.757958 L 453.304958 380.485957 L 453.465958 382.223957 L 453.598957 383.964958 L 453.635958 385.709958 L 453.659958 387.455958" fill="none" id="38" stroke="#989c37" stroke-width="0.5" /></svg>