<?xml version="1.0" encoding="utf-8" ?>
<svg baseProfile="full" height="593.5" version="1.1" viewBox="0,0,417.5,593.5" width="417.5" xmlns="http://www.w3.org/2000/svg" xmlns:ev="http://www.w3.org/2001/xml-events" xmlns:xlink="http://www.w3.org/1999/xlink"><defs><style type="text/css"><![CDATA[
	.background { fill: white; }
	.line { stroke: firebrick; stroke-width: .1mm; }
	.blacksquare { fill: indigo; }
	.whitesquare { fill: white; }
]]></style></defs><rect class="background" height="100%" width="100%" x="0" y="0" /><path d="M 413.950790 126.816930 L 410.055987 127.561083 L 408.218510 128.210630" fill="none" id="1" stroke="black" stroke-width="0.5" /><path d="M 180.501970 98.777560 L 176.704009 98.591711 L 177.037400 99.131890" fill="none" id="3" stroke="black" stroke-width="0.5" /><path d="M 243.683070 388.525590 L 247.108590 390.590975 L 248.501970 391.431100" fill="none" id="4" stroke="black" stroke-width="0.5" /><path d="M 293.478350 419.895670 L 296.669945 422.306837 L 297.793310 423.155510" fill="none" id="5" stroke="black" stroke-width="0.5" /><path d="M 193.383860 202.596450 L 190.850285 205.691769 L 188.316710 208.787088 L 186.423230 211.100390" fill="none" id="7" stroke="black" stroke-width="0.5" /><path d="M 249.131890 293.990150 L 247.022000 294.196001 L 247.431100 294.982280" fill="none" id="9" stroke="black" stroke-width="0.5" /><path d="M 356.061030 257.966530 L 355.242809 260.104614 L 355.320091 256.105360 L 355.527320 258.378021 L 356.092520 261.627950" fill="none" id="10" stroke="black" stroke-width="0.5" /><path d="M 179.620080 275.210630 L 179.747012 276.504093 L 181.169496 280.236633 L 182.915875 283.825955 L 185.619996 286.736133 L 188.887199 289.026052 L 192.594170 290.491757 L 196.446259 291.553574 L 200.396971 292.179572 L 204.361917 292.692577 L 208.350860 292.967881 L 212.348123 293.115806 L 216.345495 293.257537 L 220.345486 293.249134 L 224.345478 293.240732 L 228.343581 293.175491 L 232.335313 292.918444 L 236.321656 292.591889 L 240.305299 292.230523 L 244.288943 291.869157 L 248.272488 291.506904 L 252.238831 290.989096 L 256.205173 290.471288 L 260.171516 289.953480 L 264.137859 289.435671 L 268.094700 288.852871 L 272.043282 288.213576 L 275.991142 287.570371 L 279.907413 286.756230 L 283.823683 285.942089 L 287.739954 285.127949 L 291.656224 284.313808 L 295.572495 283.499667 L 299.469096 282.597409 L 303.359847 281.668935 L 307.250597 280.740460 L 311.115544 279.710294 L 314.978284 278.671431 L 318.841025 277.632569 L 322.703765 276.593706 L 326.566506 275.554844 L 330.429246 274.515981 L 330.832680 274.407480" fill="none" id="12" stroke="black" stroke-width="0.5" /><path d="M 167.525590 283.478340 L 167.127821 282.298812 L 168.785430 281.659450" fill="none" id="13" stroke="black" stroke-width="0.5" /><path d="M 416.344490 207.557080 L 413.840323 205.617701 L 412.887003 209.495367 L 411.631588 213.292051 L 410.189959 217.020811 L 408.449607 220.619137 L 406.443743 224.076458 L 403.988949 227.226474 L 401.223550 230.114889 L 398.172337 232.699489 L 394.991161 235.123258 L 391.690363 237.378316 L 388.326684 239.542956 L 384.963006 241.707596 L 381.530255 243.758595 L 378.059913 245.747747 L 374.589571 247.736899 L 371.109664 249.708679 L 367.573048 251.577461 L 364.016234 253.404967 L 360.370480 255.050714 L 356.724727 256.696460 L 353.078974 258.342207 L 349.433220 259.987954 L 345.744871 261.533389 L 342.028867 263.013698 L 338.312256 264.492437 L 334.567624 265.898756 L 330.822992 267.305075 L 327.078361 268.711394 L 323.333729 270.117712 L 319.589097 271.524031 L 315.835691 272.906309 L 312.065538 274.242702 L 308.295385 275.579095 L 304.507175 276.861855 L 300.696441 278.077712 L 296.885707 279.293568 L 294.801180 279.958660" fill="none" id="15" stroke="black" stroke-width="0.5" /><path d="M 339.399610 300.580700 L 335.493699 301.443173 L 333.194880 301.950780" fill="none" id="16" stroke="black" stroke-width="0.5" /><path d="M 184.879920 363.415350 L 183.689277 359.667596 L 183.234777 355.693501 L 182.780278 351.719406 L 182.559190 347.730884 L 182.520824 343.731068 L 182.999238 339.774918 L 184.252248 335.982562 L 185.965262 332.372895 L 188.019970 328.943329 L 190.335840 325.683080 L 192.877413 322.595203 L 195.656347 319.719831 L 198.662601 317.085428 L 201.870461 314.706157 L 205.225937 312.533051 L 208.741409 310.624790 L 212.310551 308.822229 L 215.925503 307.109884 L 219.595879 305.522101 L 223.287965 303.983107 L 226.980051 302.444114 L 230.672137 300.905120 L 234.387407 299.424223 L 238.124692 297.998495 L 241.864786 296.580433 L 245.638377 295.253778 L 249.411968 293.927124 L 253.202266 292.650581 L 257.016958 291.447199 L 260.831649 290.243816 L 264.658430 289.080394 L 268.500447 287.967332 L 272.342464 286.854270 L 276.184481 285.741208 L 280.026498 284.628146 L 283.868514 283.515085 L 287.710531 282.402023 L 291.570212 281.351868 L 295.430058 280.302301 L 299.289903 279.252734 L 303.149749 278.203166 L 307.009594 277.153599 L 310.869440 276.104031 L 314.328740 275.163380" fill="none" id="17" stroke="black" stroke-width="0.5" /><path d="M 409.163390 284.116140 L 410.699684 280.968164 L 410.675200 278.328740" fill="none" id="18" stroke="black" stroke-width="0.5" /><path d="M 183.494100 356.942910 L 180.382191 358.053651 L 182.013780 358.383850" fill="none" id="20" stroke="black" stroke-width="0.5" /><path d="M 348.061030 227.328740 L 348.488105 231.305876 L 348.915179 235.283011 L 349.342254 239.260147 L 349.794288 243.234430 L 350.275614 247.205365 L 350.756939 251.176300 L 351.238264 255.147235 L 351.719590 259.118170 L 352.146270 263.094948 L 352.515372 267.077882 L 352.884474 271.060816 L 353.253577 275.043750 L 353.594459 279.028970 L 353.871253 283.019382 L 354.148047 287.009793 L 354.406839 291.001279 L 354.606500 294.996293 L 354.806162 298.991307 L 355.005823 302.986321 L 355.205485 306.981334 L 355.295191 310.979988 L 355.360179 314.979460 L 355.425167 318.978932 L 355.490155 322.978404 L 355.555143 326.977876 L 355.620131 330.977348 L 355.685119 334.976820 L 355.750107 338.976292 L 355.809060 342.604330" fill="none" id="22" stroke="black" stroke-width="0.5" /><path d="M 326.517720 267.627950 L 330.248374 266.184960 L 333.979028 264.741970 L 337.723501 263.336460 L 341.497985 262.012350 L 345.288818 260.739248 L 349.129797 259.622611 L 352.970776 258.505974 L 356.811755 257.389337 L 360.652735 256.272699 L 364.505604 255.201674 L 368.402919 254.301155 L 372.339001 253.609385 L 376.324677 253.292700 L 380.324466 253.260892 L 384.317194 253.383822 L 388.267312 253.985687 L 392.123517 255.035043 L 395.933365 256.243778 L 399.620194 257.795322 L 403.170640 259.621675 L 406.595665 261.681080 L 409.684408 264.212991 L 412.276635 267.241789 L 413.949811 270.852857 L 414.612668 274.782557 L 414.675200 275.990150" fill="none" id="23" stroke="black" stroke-width="0.5" /><path d="M 341.320870 260.423220 L 345.286822 260.777560 L 349.281665 260.638146 L 352.501970 260.399600" fill="none" id="24" stroke="black" stroke-width="0.5" /><path d="M 353.478350 261.746060 L 350.108270 259.995539 L 353.871035 258.680959 L 357.653781 257.380639 L 361.436527 256.080319 L 365.237312 254.840132 L 369.111187 253.843590 L 373.020579 253.013261 L 376.972884 252.409496 L 380.953146 252.012618 L 384.946602 251.793177 L 388.941791 251.597048 L 392.940253 251.510024 L 396.940014 251.466295 L 400.938964 251.433061 L 404.840746 252.284926 L 408.341108 254.170489 L 410.487631 257.486579 L 411.136556 261.421593 L 411.160360 265.420879 L 411.173370 269.420858 L 411.179140 271.194880" fill="none" id="25" stroke="black" stroke-width="0.5" /><path d="M 255.336620 524.375980 L 254.846039 520.406178 L 255.128447 518.133464 L 255.927154 522.042845 L 256.362547 526.018116 L 256.697700 530.004050 L 257.032854 533.989984 L 257.267577 537.982771 L 257.476951 541.977288 L 257.670673 545.972546 L 257.840079 549.968957 L 258.009485 553.965368 L 258.178892 557.961779 L 258.326639 561.958914 L 258.424170 565.957724 L 258.521700 569.956535 L 258.585481 573.955808 L 258.597560 577.955790 L 258.609640 581.955772 L 258.621720 585.955754 L 258.633799 589.955735 L 258.643700 593.234250" fill="none" id="26" stroke="black" stroke-width="0.5" /><path d="M 361.982290 486.887790 L 361.982290 490.887790 L 361.982290 494.887790 L 361.982290 498.887790 L 361.982290 502.887790 L 361.982290 506.887790 L 361.982290 510.887790 L 361.982290 514.887790 L 361.982290 518.887790 L 361.982290 522.887790 L 361.982290 526.887790 L 361.982290 530.887790 L 361.982290 533.470470" fill="none" id="27" stroke="black" stroke-width="0.5" /><path d="M 361.068900 477.840550 L 360.775176 481.826596 L 360.251202 485.792129 L 359.778875 489.763474 L 359.408379 493.746279 L 359.094707 497.732994 L 358.916024 501.729002 L 358.737342 505.725009 L 358.558660 509.721016 L 358.448641 513.718682 L 358.434088 517.718656 L 358.419534 521.718629 L 358.404980 525.718603 L 358.410401 529.718092 L 358.618818 533.712659 L 359.039182 537.688398 L 359.538149 541.657155 L 359.872050 544.312990" fill="none" id="28" stroke="black" stroke-width="0.5" /><path d="M 183.588580 556.879920 L 185.755949 559.963061 L 186.895208 563.786486 L 188.344995 567.514504 L 190.003255 571.150790 L 192.057764 574.570512 L 194.917698 577.334317 L 198.479982 579.094702 L 202.412215 579.743171 L 206.409277 579.816930 L 210.368000 579.282372 L 214.272390 578.424635 L 218.130571 577.377605 L 221.946294 576.177497 L 225.709700 574.823507 L 229.455031 573.420742 L 233.143664 571.873491 L 236.832297 570.326239 L 240.520930 568.778987 L 244.209563 567.231736 L 247.898196 565.684484 L 251.586828 564.137233 L 255.275461 562.589981 L 258.964625 561.044017 L 262.672844 559.544314 L 266.381063 558.044611 L 270.089283 556.544908 L 273.797502 555.045205 L 274.517720 554.753930" fill="none" id="29" stroke="black" stroke-width="0.5" /><path d="M 403.431100 459.604330 L 404.050060 460.305034 L 407.564372 458.394638 L 411.097453 456.521180 L 414.755297 454.909058 L 416.124020 454.383850" fill="none" id="31" stroke="black" stroke-width="0.5" /><path d="M 409.635830 457.501960 L 408.660789 459.332066 L 407.673017 463.208186 L 406.583390 467.053621 L 405.265658 470.830337 L 403.596421 474.464787 L 401.794433 478.031863 L 399.673105 481.419741 L 397.344903 484.671119 L 394.815144 487.765804 L 392.087337 490.688253 L 389.217054 493.472564 L 386.243878 496.148423 L 383.075282 498.589040 L 379.832531 500.928738 L 376.532310 503.188779 L 373.174730 505.362866 L 369.773882 507.467353 L 366.337103 509.513898 L 362.861993 511.494709 L 359.354989 513.417065 L 355.808648 515.267327 L 355.147640 515.612200" fill="none" id="32" stroke="black" stroke-width="0.5" /><path d="M 216.816930 164.470470 L 213.666316 162.367883 L 213.257880 161.210630" fill="none" id="36" stroke="black" stroke-width="0.5" /><path d="M 20.753940 228.013780 L 17.430257 226.375945 L 14.108270 225.226370" fill="none" id="37" stroke="black" stroke-width="0.5" /><path d="M 11.651580 253.903540 L 9.995186 252.098630 L 9.617507 248.131038 L 9.709047 244.132086 L 10.411843 240.208921 L 11.696747 236.429910 L 13.554786 232.894400 L 16.015875 229.744908 L 18.788700 226.867642 L 21.824101 224.266896 L 25.042941 221.895273 L 28.427707 219.769051 L 31.868114 217.728561 L 35.389371 215.838873 L 39.021328 214.166298 L 42.720038 212.643294 L 46.506102 211.352784 L 50.331807 210.191222 L 54.189885 209.135178 L 58.047964 208.079133 L 61.915044 207.059422 L 65.819888 206.192127 L 69.724731 205.324832 L 73.629574 204.457538 L 77.534417 203.590243 L 81.439260 202.722948 L 84.029530 202.147630" fill="none" id="38" stroke="black" stroke-width="0.5" /><path d="M 0.250000 249.226370 L 2.861661 250.306393 L 0.968556 246.927837 L 0.407480 246.179130" fill="none" id="39" stroke="black" stroke-width="0.5" /><path d="M 73.163390 228.226370 L 76.672366 230.146549 L 80.181342 232.066728 L 83.690318 233.986907 L 87.199294 235.907086 L 90.708270 237.827265 L 94.217246 239.747444 L 97.726222 241.667623 L 100.344490 243.100390" fill="none" id="40" stroke="black" stroke-width="0.5" /><path d="M 6.675200 167.187000 L 6.969311 170.999091 L 9.754622 173.843028 L 12.061030 174.698820" fill="none" id="42" stroke="black" stroke-width="0.5" /><path d="M 7.084650 177.462590 L 7.599316 176.985315 L 8.542966 180.872412 L 9.537806 184.745009 L 10.772904 188.549550 L 12.331196 192.228013 L 14.378059 195.650517 L 17.107389 198.558286 L 20.427166 200.764368 L 23.977579 202.595809 L 27.769550 203.842159 L 31.641564 204.832552 L 35.614616 205.296080 L 39.595717 205.632406 L 43.595507 205.673356 L 47.595297 205.714306 L 51.591127 205.532555 L 55.565767 205.126237 L 59.524761 204.554955 L 63.483756 203.983674 L 67.437548 203.380414 L 71.373495 202.667445 L 75.302939 201.921000 L 79.219603 201.108753 L 83.136267 200.296505 L 87.052930 199.484257 L 90.969594 198.672010 L 94.886257 197.859762 L 97.446850 197.328740" fill="none" id="43" stroke="black" stroke-width="0.5" /><path d="M 175.305120 192.911410 L 176.248745 190.795625 L 172.774675 188.818895 L 169.264204 186.901451 L 165.753733 184.984007 L 162.243262 183.066563 L 158.732790 181.149119 L 155.222319 179.231675 L 151.699439 177.337509 L 148.150642 175.491964 L 146.171260 174.462590" fill="none" id="44" stroke="black" stroke-width="0.5" /><path d="M 228.942920 70.950780 L 230.737478 68.503323 L 229.406568 68.016786 L 227.242130 68.872040" fill="none" id="48" stroke="black" stroke-width="0.5" /><path d="M 101.698820 0.250000 L 105.592879 0.986968 L 109.378920 2.277662 L 113.082911 3.786298 L 116.780136 5.312904 L 120.477362 6.839509 L 124.174587 8.366115 L 127.880382 9.871099 L 131.619536 11.291917 L 135.358691 12.712735 L 139.097846 14.133553 L 142.837000 15.554370 L 146.563019 17.006688 L 150.203819 18.663364 L 153.844619 20.320040 L 157.452552 22.043323 L 160.982340 23.924971 L 164.512127 25.806618 L 168.030479 27.709335 L 171.531395 29.644170 L 175.032311 31.579005 L 178.533227 33.513840 L 182.034143 35.448675 L 185.535059 37.383511 L 189.035975 39.318346 L 192.536891 41.253181 L 196.037807 43.188016 L 199.538723 45.122851 L 203.039639 47.057687 L 206.465254 49.122521 L 209.885476 51.196667 L 213.305699 53.270812 L 216.725921 55.344957 L 220.146143 57.419103 L 223.581810 59.467152 L 227.045829 61.467295 L 230.509848 63.467439 L 233.973866 65.467582 L 237.415360 67.454720" fill="none" id="50" stroke="black" stroke-width="0.5" /><path d="M 90.517720 439.407480 L 89.683246 442.689326 L 89.509840 446.564960" fill="none" id="51" stroke="black" stroke-width="0.5" /><path d="M 23.557090 430.667320 L 19.562177 430.465653 L 18.446216 430.314339 L 22.432450 430.035284 L 23.588580 429.911410" fill="none" id="52" stroke="black" stroke-width="0.5" /><path d="M 16.344490 443.966530 L 16.906758 447.919450 L 16.312990 449.848420" fill="none" id="54" stroke="black" stroke-width="0.5" /><path d="M 21.100400 447.155510 L 19.231303 443.643958 L 18.769690 444.438970" fill="none" id="55" stroke="black" stroke-width="0.5" /><path d="M 23.336620 435.793300 L 21.767109 432.299266 L 19.592378 433.471957 L 19.172467 437.448087 L 19.299715 441.418807 L 21.286825 444.854370 L 24.326612 447.430335 L 27.908567 449.195390 L 31.731769 450.354388 L 35.632281 451.200779 L 39.617763 451.463049 L 43.616738 451.553589 L 47.608101 451.411310 L 51.586684 451.011119 L 55.538732 450.393612 L 59.458402 449.606060 L 63.360842 448.728012 L 67.263281 447.849965 L 71.157604 446.939363 L 75.015494 445.882631 L 78.863175 444.790714 L 82.687533 443.618414 L 86.511891 442.446114 L 90.336249 441.273814 L 94.144223 440.051584 L 97.919657 438.730184 L 101.695091 437.408783 L 105.470525 436.087382 L 107.525590 435.368110" fill="none" id="56" stroke="black" stroke-width="0.5" /><path d="M 20.061030 433.596450 L 20.364159 436.518196 L 21.828059 440.240500 L 23.516452 443.863928 L 25.831432 447.109560 L 28.790909 449.787970 L 32.176294 451.909326 L 35.872348 453.430754 L 37.320870 454.005900" fill="none" id="57" stroke="black" stroke-width="0.5" /></svg>