<?xml version="1.0" encoding="utf-8" ?>
<svg baseProfile="full" height="685.5" version="1.1" viewBox="0,0,1118.5,685.5" width="1118.5" xmlns="http://www.w3.org/2000/svg" xmlns:ev="http://www.w3.org/2001/xml-events" xmlns:xlink="http://www.w3.org/1999/xlink"><defs><style type="text/css"><![CDATA[
	.background { fill: white; }
	.line { stroke: firebrick; stroke-width: .1mm; }
	.blacksquare { fill: indigo; }
	.whitesquare { fill: white; }
]]></style></defs><rect class="background" height="100%" width="100%" x="0" y="0" /><path d="M 349.320390 570.242910 L 352.786024 568.381108 L 356.564347 567.067993 L 360.341169 565.750973 L 364.025579 564.193694 L 367.709990 562.636414 L 371.394400 561.079135 L 375.078811 559.521856 L 378.763222 557.964577 L 382.447632 556.407297 L 386.142628 554.875912 L 389.862854 553.406246 L 393.583080 551.936580 L 397.303306 550.466915 L 401.023532 548.997249 L 404.743759 547.527583 L 408.463985 546.057917 L 412.184211 544.588251 L 415.904437 543.118585 L 419.624663 541.648919 L 423.344889 540.179254 L 427.065115 538.709588 L 430.785341 537.239922 L 434.505567 535.770256 L 438.225794 534.300590 L 441.946020 532.830924 L 445.666246 531.361259 L 449.386472 529.891593 L 453.106698 528.421927 L 456.831439 526.963825 L 460.563373 525.524150 L 464.295308 524.084474 L 468.027242 522.644799 L 471.759177 521.205124 L 475.491111 519.765448 L 479.223045 518.325773 L 482.954980 516.886097 L 486.686914 515.446422 L 490.418849 514.006746 L 494.150783 512.567071 L 497.882718 511.127395 L 501.614652 509.687720 L 505.346586 508.248045 L 509.078521 506.808369 L 512.810455 505.368694 L 516.542390 503.929018 L 520.274324 502.489343 L 524.006259 501.049667 L 527.738193 499.609992 L 531.470127 498.170316 L 535.202062 496.730641 L 538.933996 495.290965 L 542.665931 493.851290 L 546.397865 492.411615 L 550.129800 490.971939 L 553.861734 489.532264 L 557.593668 488.092588 L 561.325603 486.652913 L 565.057537 485.213237 L 568.789472 483.773562 L 572.521406 482.333886 L 576.281402 480.969532 L 580.045592 479.616432 L 583.809781 478.263333 L 587.573970 476.910233 L 591.338160 475.557134 L 595.102349 474.204034 L 598.866539 472.850935 L 602.630728 471.497835 L 606.394917 470.144736 L 610.159107 468.791636 L 613.923296 467.438537 L 617.687486 466.085437 L 621.451675 464.732338 L 625.215864 463.379238 L 628.980054 462.026139 L 632.744243 460.673039 L 636.508433 459.319940 L 640.272622 457.966840 L 644.036811 456.613741 L 647.801001 455.260641 L 651.565190 453.907542 L 655.329379 452.554442 L 659.093569 451.201343 L 662.857758 449.848243 L 666.621948 448.495144 L 670.386137 447.142044 L 674.150326 445.788945 L 677.914516 444.435845 L 681.678705 443.082746 L 685.442895 441.729646 L 689.207084 440.376547 L 692.971273 439.023447 L 696.735463 437.670348 L 700.499652 436.317248 L 704.263842 434.964149 L 708.028031 433.611049 L 711.792220 432.257950 L 715.556410 430.904850 L 719.320599 429.551751 L 723.084788 428.198651 L 726.848978 426.845552 L 730.613167 425.492452 L 734.377357 424.139353 L 738.141546 422.786253 L 741.905735 421.433154 L 745.669925 420.080055 L 749.434114 418.726955 L 753.198304 417.373856 L 756.962493 416.020756 L 760.726682 414.667657 L 764.490872 413.314557 L 768.255061 411.961458 L 772.019251 410.608358 L 775.783440 409.255259 L 779.547629 407.902159 L 783.311819 406.549060 L 787.076008 405.195960 L 790.840198 403.842861 L 794.604387 402.489761 L 798.368576 401.136662 L 802.132766 399.783562 L 805.896955 398.430463 L 809.661144 397.077363 L 813.425334 395.724264 L 817.189523 394.371164 L 820.953713 393.018065 L 824.717902 391.664965 L 828.482091 390.311866 L 832.246281 388.958766 L 836.010470 387.605667 L 839.774660 386.252567 L 843.538849 384.899468 L 847.303038 383.546368 L 851.067228 382.193269 L 854.831417 380.840169 L 858.595607 379.487070 L 862.359796 378.133970 L 866.123985 376.780871 L 869.888175 375.427771 L 873.652364 374.074672 L 877.416554 372.721572 L 881.180743 371.368473 L 884.387560 370.215730" fill="none" id="1" stroke="black" stroke-width="0.5" /><path d="M 341.292450 574.901380 L 344.274658 573.288365 L 348.194030 572.489289 L 352.113402 571.690212 L 356.032774 570.891136 L 359.810652 569.603528 L 363.550402 568.184279 L 367.290153 566.765031 L 371.029903 565.345782 L 374.769653 563.926533 L 378.509404 562.507284 L 382.221812 561.020397 L 385.897284 559.442136 L 389.572756 557.863875 L 393.248227 556.285614 L 396.923699 554.707353 L 400.599171 553.129092 L 404.274643 551.550831 L 407.950114 549.972570 L 411.625586 548.394310 L 415.301058 546.816049 L 418.976530 545.237788 L 422.652001 543.659527 L 426.327473 542.081266 L 430.002945 540.503005 L 433.678417 538.924744 L 437.353888 537.346483 L 441.029360 535.768222 L 444.704832 534.189962 L 448.381905 532.615544 L 452.090524 531.116828 L 455.799142 529.618112 L 459.507760 528.119397 L 463.216379 526.620681 L 466.924997 525.121965 L 470.633616 523.623249 L 474.342234 522.124533 L 478.050853 520.625817 L 481.759471 519.127101 L 485.468090 517.628385 L 489.176708 516.129670 L 492.885326 514.630954 L 496.566901 513.067056 L 500.247223 511.500139 L 503.927545 509.933221 L 507.607867 508.366304 L 511.288189 506.799386 L 514.968511 505.232468 L 518.648833 503.665551 L 522.329155 502.098633 L 526.009477 500.531716 L 529.689799 498.964798 L 533.379855 497.421686 L 537.103570 495.960882 L 540.827285 494.500078 L 544.550999 493.039273 L 548.274714 491.578469 L 551.998429 490.117665 L 555.722143 488.656861 L 559.445858 487.196056 L 563.185708 485.777700 L 566.939535 484.396112 L 570.693361 483.014524 L 574.447188 481.632936 L 578.201015 480.251349 L 581.954842 478.869761 L 585.708668 477.488173 L 589.462495 476.106585 L 593.216322 474.724997 L 596.970148 473.343409 L 600.723975 471.961822 L 604.477802 470.580234 L 608.231629 469.198646 L 611.985455 467.817058 L 615.739282 466.435470 L 619.493109 465.053882 L 623.246936 463.672295 L 627.000762 462.290707 L 630.754589 460.909119 L 634.508416 459.527531 L 638.262242 458.145943 L 642.016069 456.764355 L 645.769896 455.382767 L 649.523723 454.001180 L 653.277549 452.619592 L 657.031376 451.238004 L 660.785203 449.856416 L 664.539029 448.474828 L 668.292856 447.093240 L 672.046683 445.711653 L 675.800510 444.330065 L 679.554336 442.948477 L 683.308163 441.566889 L 687.061990 440.185301 L 690.815816 438.803713 L 694.569643 437.422126 L 698.323470 436.040538 L 702.077297 434.658950 L 705.825233 433.261556 L 709.567776 431.849688 L 713.310319 430.437820 L 717.052862 429.025951 L 720.795405 427.614083 L 724.537948 426.202214 L 728.280491 424.790346 L 732.023034 423.378478 L 735.765577 421.966609 L 739.508120 420.554741 L 743.250663 419.142873 L 746.993206 417.731004 L 750.735749 416.319136 L 754.478292 414.907267 L 758.220835 413.495399 L 761.963378 412.083531 L 765.705921 410.671662 L 769.448464 409.259794 L 773.191006 407.847926 L 776.933549 406.436057 L 780.676092 405.024189 L 784.418635 403.612320 L 788.164353 402.209250 L 791.946186 400.906278 L 795.728020 399.603307 L 799.509853 398.300335 L 803.291687 396.997363 L 807.073520 395.694391 L 810.855354 394.391420 L 814.637187 393.088448 L 818.419021 391.785476 L 822.200854 390.482504 L 825.982688 389.179533 L 829.764521 387.876561 L 833.546355 386.573589 L 837.328188 385.270617 L 841.110022 383.967646 L 844.891855 382.664674 L 848.673689 381.361702 L 852.455522 380.058730 L 856.237356 378.755759 L 860.019189 377.452787 L 863.801023 376.149815 L 867.582856 374.846844 L 871.364690 373.543872 L 874.263970 372.544970" fill="none" id="2" stroke="black" stroke-width="0.5" /><path d="M 0.250000 115.212180 L 2.980780 118.134994 L 5.711559 121.057808 L 8.442339 123.980623 L 11.229061 126.846508 L 14.199165 129.525777 L 17.169268 132.205046 L 20.251589 134.752768 L 23.365469 137.263496 L 26.479348 139.774224 L 29.593228 142.284952 L 32.707107 144.795680 L 35.820987 147.306408 L 38.934866 149.817136 L 42.048746 152.327864 L 45.162625 154.838592 L 48.276505 157.349319 L 51.390384 159.860047 L 54.504264 162.370775 L 57.618143 164.881503 L 60.732023 167.392231 L 63.845902 169.902959 L 66.959782 172.413687 L 70.073661 174.924415 L 73.187541 177.435143 L 76.301420 179.945870 L 79.415300 182.456598 L 82.529179 184.967326 L 85.643059 187.478054 L 88.756938 189.988782 L 91.870818 192.499510 L 94.984697 195.010238 L 98.098577 197.520966 L 101.212456 200.031694 L 104.326336 202.542421 L 107.440215 205.053149 L 110.554095 207.563877 L 113.667974 210.074605 L 116.781854 212.585333 L 119.895733 215.096061 L 123.009613 217.606789 L 126.123492 220.117517 L 129.164303 222.716007 L 132.197768 225.323323 L 135.231233 227.930638 L 138.264698 230.537953 L 141.298162 233.145268 L 144.331627 235.752583 L 147.365092 238.359898 L 150.398556 240.967213 L 153.432021 243.574528 L 156.465486 246.181843 L 159.498950 248.789159 L 162.532415 251.396474 L 165.565880 254.003789 L 168.599344 256.611104 L 171.632809 259.218419 L 174.666274 261.825734 L 177.699738 264.433049 L 180.733203 267.040364 L 183.766668 269.647679 L 186.800132 272.254995 L 189.833597 274.862310 L 192.867062 277.469625 L 195.900526 280.076940 L 198.933991 282.684255 L 201.967456 285.291570 L 205.000920 287.898885 L 208.034385 290.506200 L 211.067850 293.113515 L 214.101314 295.720831 L 217.134779 298.328146 L 220.168244 300.935461 L 223.201708 303.542776 L 226.235173 306.150091 L 229.268638 308.757406 L 232.302102 311.364721 L 235.335567 313.972036 L 238.369032 316.579351 L 241.402496 319.186667 L 244.435961 321.793982 L 247.469426 324.401297 L 250.502890 327.008612 L 253.536355 329.615927 L 256.569820 332.223242 L 259.603284 334.830557 L 262.636749 337.437872 L 265.670214 340.045187 L 268.703678 342.652502 L 271.737143 345.259818 L 274.770608 347.867133 L 277.804072 350.474448 L 280.837537 353.081763 L 283.892480 355.663835 L 286.951860 358.240693 L 290.011239 360.817551 L 293.070619 363.394408 L 296.129999 365.971266 L 299.189379 368.548123 L 302.248759 371.124981 L 305.308139 373.701839 L 308.367518 376.278696 L 311.426898 378.855554 L 314.486278 381.432411 L 317.545658 384.009269 L 320.597184 386.595277 L 323.607996 389.228717 L 326.618809 391.862157 L 329.629622 394.495597 L 332.640435 397.129037 L 335.651248 399.762477 L 338.662060 402.395917 L 341.672873 405.029357 L 344.683686 407.662797 L 347.694499 410.296237 L 350.705312 412.929677 L 353.716124 415.563117 L 356.726937 418.196557 L 359.785877 420.773005 L 362.886376 423.300237 L 365.986875 425.827470 L 369.087375 428.354703 L 372.187874 430.881935 L 375.288373 433.409168 L 378.388872 435.936401 L 381.489371 438.463633 L 384.566735 441.018064 L 387.558572 443.673043 L 390.550409 446.328021 L 393.542247 448.983000 L 396.534084 451.637978 L 399.525921 454.292956 L 402.517758 456.947935 L 405.509595 459.602913 L 408.501432 462.257892 L 411.528715 464.871969 L 414.582154 467.455863 L 417.635592 470.039758 L 420.689031 472.623653 L 423.742470 475.207548 L 426.795908 477.791443 L 429.849347 480.375337 L 432.902786 482.959232 L 435.956224 485.543127 L 439.009663 488.127022 L 442.063102 490.710917 L 445.116540 493.294811 L 448.169979 495.878706 L 451.223418 498.462601 L 454.276856 501.046496 L 457.330295 503.630391 L 460.383734 506.214285 L 463.437172 508.798180 L 466.490611 511.382075 L 469.544050 513.965970 L 472.597488 516.549865 L 475.650927 519.133759 L 478.704366 521.717654 L 481.757804 524.301549 L 484.811243 526.885444 L 487.885715 529.444247 L 490.963101 531.999573 L 494.040487 534.554900 L 497.117874 537.110226 L 500.195260 539.665553 L 503.272646 542.220879 L 506.350033 544.776206 L 509.427419 547.331533 L 512.504805 549.886859 L 515.582192 552.442186 L 518.659578 554.997512 L 521.736964 557.552839 L 524.814350 560.108165 L 527.891737 562.663492 L 530.969123 565.218818 L 534.046509 567.774145 L 537.123896 570.329471 L 540.201282 572.884798 L 543.278668 575.440124 L 546.356055 577.995451 L 549.433441 580.550777 L 552.510827 583.106104 L 555.588213 585.661430 L 558.665600 588.216757 L 561.742986 590.772083 L 564.820372 593.327410 L 567.897759 595.882736 L 570.922109 598.499800 L 573.912203 601.156742 L 576.902296 603.813684 L 579.892390 606.470626 L 582.882483 609.127568 L 585.872577 611.784510 L 588.862670 614.441453 L 591.904585 617.037837 L 594.991681 619.581425 L 598.078777 622.125013 L 601.165873 624.668600 L 604.252969 627.212188 L 607.340065 629.755776 L 610.427161 632.299363 L 613.592159 634.744818 L 616.769765 637.174390 L 619.947371 639.603962 L 623.124977 642.033534 L 626.302583 644.463106 L 629.480189 646.892678 L 632.564214 649.436749 L 635.577651 652.067185 L 638.591089 654.697621 L 641.604527 657.328056 L 644.617965 659.958492 L 647.631403 662.588928 L 648.063000 662.965670" fill="none" id="3" stroke="black" stroke-width="0.5" /><path d="M 373.726620 45.079830 L 373.491239 46.697773 L 376.775192 48.981555 L 380.147856 51.132021 L 383.522701 53.279210 L 386.897546 55.426399 L 390.272391 57.573588 L 393.647236 59.720777 L 397.022081 61.867967 L 400.396926 64.015156 L 403.771771 66.162345 L 407.146616 68.309534 L 410.521461 70.456724 L 413.896306 72.603913 L 417.271150 74.751102 L 420.645995 76.898291 L 424.020840 79.045481 L 427.395685 81.192670 L 430.770530 83.339859 L 434.145375 85.487048 L 437.520220 87.634238 L 440.895065 89.781427 L 444.269910 91.928616 L 447.644755 94.075805 L 451.019600 96.222994 L 454.394445 98.370184 L 457.769290 100.517373 L 461.144135 102.664562 L 464.518980 104.811751 L 467.893825 106.958941 L 471.268670 109.106130 L 474.655117 111.234842 L 478.055208 113.341826 L 481.455299 115.448809 L 484.855390 117.555793 L 488.255481 119.662777 L 491.655573 121.769760 L 495.055664 123.876744 L 498.455755 125.983728 L 501.855846 128.090711 L 505.255937 130.197695 L 508.656028 132.304679 L 512.056119 134.411662 L 515.456211 136.518646 L 518.856302 138.625630 L 522.256393 140.732613 L 525.656484 142.839597 L 529.056575 144.946581 L 532.456666 147.053564 L 535.856758 149.160548 L 539.258057 151.265539 L 542.698032 153.306757 L 546.138007 155.347975 L 549.577982 157.389193 L 553.017957 159.430412 L 556.457932 161.471630 L 559.897907 163.512848 L 563.337882 165.554067 L 566.777857 167.595285 L 570.217832 169.636503 L 573.657807 171.677722 L 577.097782 173.718940 L 580.537757 175.760158 L 583.977732 177.801377 L 587.417707 179.842595 L 590.857682 181.883813 L 594.297657 183.925032 L 597.737632 185.966250 L 601.177607 188.007468 L 604.617582 190.048687 L 608.057557 192.089905 L 611.497532 194.131123 L 614.937507 196.172342 L 618.377482 198.213560 L 621.817457 200.254778 L 625.257431 202.295997 L 628.697406 204.337215 L 632.137381 206.378433 L 635.577356 208.419652 L 639.017331 210.460870 L 642.457306 212.502088 L 645.897281 214.543307 L 649.337256 216.584525 L 652.777231 218.625743 L 656.217206 220.666962 L 659.657181 222.708180 L 663.097156 224.749398 L 666.537131 226.790617 L 669.977106 228.831835 L 673.417081 230.873053 L 676.857056 232.914272 L 680.297031 234.955490 L 683.737006 236.996708 L 687.176981 239.037927 L 690.616956 241.079145 L 694.056931 243.120363 L 697.496906 245.161582 L 700.936881 247.202800 L 704.376856 249.244018 L 707.816831 251.285237 L 711.256806 253.326455 L 714.696781 255.367673 L 718.136755 257.408892 L 721.576730 259.450110 L 725.016705 261.491328 L 728.456680 263.532546 L 731.896655 265.573765 L 735.336630 267.614983 L 738.776605 269.656201 L 742.216580 271.697420 L 745.656555 273.738638 L 749.096530 275.779856 L 752.536505 277.821075 L 755.983689 279.849979 L 759.447611 281.850289 L 762.911534 283.850599 L 766.375457 285.850909 L 769.839379 287.851219 L 773.303302 289.851529 L 776.767225 291.851838 L 780.231147 293.852148 L 783.695070 295.852458 L 787.158993 297.852768 L 790.628785 299.842738 L 794.122037 301.791376 L 797.615288 303.740014 L 801.108540 305.688653 L 804.601792 307.637291 L 808.095044 309.585930 L 811.588296 311.534568 L 815.081548 313.483207 L 818.574799 315.431845 L 822.068051 317.380483 L 825.561303 319.329122 L 829.054555 321.277760 L 832.547807 323.226399 L 836.041058 325.175037 L 839.534310 327.123675 L 843.027562 329.072314 L 846.520814 331.020952 L 850.014066 332.969591 L 853.507318 334.918229 L 857.000569 336.866868 L 860.493821 338.815506 L 863.987073 340.764144 L 867.480325 342.712783 L 870.973577 344.661421 L 874.466829 346.610060 L 877.964491 348.550631 L 881.490381 350.439572 L 885.016271 352.328513 L 888.542162 354.217454 L 892.068052 356.106395 L 895.593942 357.995335 L 899.119833 359.884276 L 902.645723 361.773217 L 906.171613 363.662158 L 909.697504 365.551099 L 913.223394 367.440040 L 916.749284 369.328981 L 920.275174 371.217921 L 923.801065 373.106862 L 927.326955 374.995803 L 930.852845 376.884744 L 934.378736 378.773685 L 937.904626 380.662626 L 941.430516 382.551567 L 944.956407 384.440507 L 948.467390 386.356940 L 951.974103 388.281249 L 955.480816 390.205559 L 958.987528 392.129868 L 962.494241 394.054177 L 966.000953 395.978487 L 969.507666 397.902796 L 973.014379 399.827106 L 976.521091 401.751415 L 980.027804 403.675724 L 983.534516 405.600034 L 987.041229 407.524343 L 990.547942 409.448653 L 994.054654 411.372962 L 997.561367 413.297271 L 1001.068079 415.221581 L 1004.574792 417.145890 L 1008.081505 419.070200 L 1011.588217 420.994509 L 1015.094930 422.918818 L 1018.601643 424.843128 L 1022.108355 426.767437 L 1025.615068 428.691747 L 1029.121780 430.616056 L 1032.628493 432.540366 L 1035.983470 434.381410" fill="none" id="4" stroke="black" stroke-width="0.5" /><path d="M 449.234410 534.283330 L 448.293411 531.286390 L 452.165513 530.282982 L 456.037615 529.279574 L 459.909717 528.276167 L 463.710662 527.035543 L 467.495749 525.742053 L 471.280836 524.448563 L 475.008870 523.002146 L 478.716260 521.500393 L 482.423649 519.998640 L 486.131039 518.496888 L 489.838429 516.995135 L 493.545819 515.493382 L 497.253209 513.991630 L 500.948338 512.460901 L 504.607733 510.845713 L 508.267127 509.230525 L 511.926522 507.615337 L 515.585916 506.000149 L 519.245311 504.384961 L 522.904705 502.769773 L 526.564100 501.154585 L 530.289205 499.702578 L 534.046722 498.331057 L 537.819335 497.002746 L 541.613400 495.735832 L 545.407465 494.468917 L 549.201530 493.202003 L 552.995595 491.935089 L 556.789660 490.668175 L 560.583725 489.401261 L 564.377790 488.134347 L 568.171855 486.867433 L 571.965920 485.600519 L 575.759985 484.333605 L 579.554049 483.066691 L 583.348114 481.799777 L 587.142179 480.532863 L 590.936244 479.265949 L 594.730309 477.999035 L 598.524374 476.732121 L 602.318439 475.465207 L 606.112504 474.198292 L 609.906569 472.931378 L 613.700634 471.664464 L 617.494699 470.397550 L 621.288764 469.130636 L 625.082829 467.863722 L 628.876894 466.596808 L 632.670959 465.329894 L 636.465024 464.062980 L 640.259088 462.796066 L 644.053153 461.529152 L 647.847218 460.262238 L 651.641283 458.995324 L 655.435348 457.728410 L 659.229413 456.461496 L 663.023478 455.194581 L 666.817543 453.927667 L 670.611608 452.660753 L 674.399240 451.375140 L 678.169693 450.039594 L 681.940146 448.704048 L 685.710599 447.368502 L 689.481052 446.032956 L 693.251505 444.697410 L 697.021958 443.361864 L 700.792411 442.026317 L 704.562865 440.690771 L 708.333318 439.355225 L 712.103771 438.019679 L 715.874224 436.684133 L 719.644677 435.348587 L 723.415130 434.013041 L 727.185583 432.677494 L 730.956036 431.341948 L 734.726489 430.006402 L 738.496942 428.670856 L 742.267395 427.335310 L 746.037849 425.999764 L 749.808302 424.664218 L 753.578755 423.328672 L 757.349208 421.993125 L 761.119661 420.657579 L 764.890114 419.322033 L 768.660567 417.986487 L 772.431020 416.650941 L 776.201473 415.315395 L 779.971926 413.979849 L 783.742379 412.644302 L 787.512833 411.308756 L 791.283286 409.973210 L 795.063447 408.665601 L 798.849632 407.375331 L 802.635818 406.085060 L 806.422004 404.794790 L 810.208189 403.504519 L 813.994375 402.214249 L 817.780561 400.923978 L 821.566746 399.633708 L 825.352932 398.343437 L 829.139118 397.053167 L 832.925303 395.762896 L 836.711489 394.472625 L 840.497675 393.182355 L 844.283860 391.892084 L 848.070046 390.601814 L 851.856232 389.311543 L 855.642417 388.021273 L 859.416839 386.697300 L 863.183527 385.351172 L 866.950215 384.005044 L 870.716903 382.658916 L 874.483591 381.312788 L 878.250279 379.966660 L 882.016968 378.620532 L 885.783656 377.274404 L 889.550344 375.928276 L 893.317032 374.582148 L 897.083720 373.236020 L 900.850408 371.889892 L 904.617096 370.543764 L 908.383785 369.197636 L 912.150473 367.851508 L 915.917161 366.505381 L 919.683849 365.159253 L 923.450537 363.813125 L 927.217225 362.466997 L 930.983914 361.120869 L 934.750602 359.774741 L 938.517290 358.428613 L 942.283978 357.082485 L 946.050666 355.736357 L 949.817354 354.390229 L 953.584042 353.044101 L 957.343217 351.677383 L 961.091646 350.281217 L 964.840075 348.885051 L 968.588504 347.488885 L 972.336933 346.092718 L 976.085362 344.696552 L 979.833791 343.300386 L 983.582220 341.904220 L 987.330649 340.508054 L 991.079078 339.111888 L 994.827507 337.715721 L 998.575936 336.319555 L 1002.324365 334.923389 L 1006.051435 333.471573 L 1009.771409 332.001269 L 1013.491383 330.530965 L 1017.211357 329.060661 L 1020.931331 327.590357 L 1024.651305 326.120053 L 1028.371279 324.649749 L 1032.091252 323.179444 L 1035.828091 322.322940 L 1039.584920 320.949537 L 1043.341749 319.576135 L 1047.098579 318.202733 L 1050.855408 316.829330 L 1054.612237 315.455928 L 1058.369066 314.082525 L 1062.125895 312.709123 L 1065.882725 311.335720 L 1069.639554 309.962318 L 1073.396383 308.588915 L 1077.153212 307.215513 L 1080.910041 305.842110 L 1084.666871 304.468708 L 1088.423700 303.095305 L 1092.180529 301.721903 L 1095.990124 300.502574 L 1099.800156 299.284517 L 1103.610187 298.066461 L 1107.420218 296.848405 L 1111.230250 295.630349 L 1115.040281 294.412292 L 1117.262360 293.701900" fill="none" id="5" stroke="black" stroke-width="0.5" /><path d="M 469.352630 523.402920 L 473.248547 524.143719 L 477.247558 524.054781 L 481.234805 523.867432 L 485.142109 523.011291 L 489.049413 522.155151 L 492.956717 521.299011 L 496.864021 520.442871 L 500.626934 519.131114 L 504.314134 517.580452 L 508.001335 516.029790 L 511.688535 514.479127 L 515.375735 512.928465 L 519.062936 511.377803 L 522.750136 509.827140 L 526.437337 508.276478 L 530.146841 506.781909 L 533.892090 505.377236 L 537.637340 503.972563 L 541.382589 502.567890 L 545.127839 501.163217 L 548.873089 499.758544 L 552.618338 498.353871 L 556.349915 496.914210 L 560.055248 495.407390 L 563.760581 493.900571 L 567.465915 492.393751 L 571.171248 490.886931 L 574.876581 489.380111 L 578.581914 487.873291 L 582.287247 486.366471 L 585.992581 484.859652 L 589.697914 483.352832 L 593.403247 481.846012 L 597.108580 480.339192 L 600.813913 478.832372 L 604.519247 477.325553 L 608.224580 475.818733 L 611.929913 474.311913 L 615.635246 472.805093 L 619.340579 471.298273 L 623.045913 469.791454 L 626.751246 468.284634 L 630.456579 466.777814 L 634.161912 465.270994 L 637.867245 463.764174 L 641.572579 462.257355 L 645.277912 460.750535 L 648.983245 459.243715 L 652.688578 457.736895 L 656.393911 456.230075 L 660.118680 454.772276 L 663.849887 453.330718 L 667.581095 451.889161 L 671.312303 450.447604 L 675.043511 449.006046 L 678.774719 447.564489 L 682.505927 446.122932 L 686.237135 444.681374 L 689.968343 443.239817 L 693.699551 441.798260 L 697.430759 440.356702 L 701.161967 438.915145 L 704.893174 437.473588 L 708.624382 436.032030 L 712.355590 434.590473 L 716.086798 433.148916 L 719.818006 431.707358 L 723.549214 430.265801 L 727.280422 428.824244 L 731.011630 427.382686 L 734.742838 425.941129 L 738.474046 424.499572 L 742.205254 423.058014 L 745.921111 421.578280 L 749.611675 420.035639 L 753.302238 418.492999 L 756.992802 416.950358 L 760.683365 415.407717 L 764.373929 413.865077 L 768.064493 412.322436 L 771.755056 410.779795 L 775.236506 409.920257 L 778.775404 409.205789 L 782.532402 407.832847 L 786.289400 406.459905 L 790.046397 405.086964 L 793.803395 403.714022 L 797.560393 402.341081 L 801.317390 400.968139 L 805.074388 399.595197 L 808.831386 398.222256 L 812.588383 396.849314 L 816.345381 395.476372 L 820.102378 394.103431 L 823.859376 392.730489 L 827.616374 391.357547 L 831.373371 389.984606 L 835.130369 388.611664 L 838.887367 387.238723 L 842.644364 385.865781 L 846.401362 384.492839 L 850.158360 383.119898 L 853.915357 381.746956 L 857.672355 380.374014 L 861.429353 379.001073 L 865.186350 377.628131 L 868.943348 376.255189 L 872.700345 374.882248 L 876.457343 373.509306 L 880.214341 372.136365 L 883.971338 370.763423 L 887.728336 369.390481 L 891.485334 368.017540 L 895.242331 366.644598 L 898.999329 365.271656 L 902.756327 363.898715 L 906.513324 362.525773 L 910.270322 361.152831 L 914.027319 359.779890 L 917.784317 358.406948 L 921.541315 357.034007 L 925.303326 355.675068 L 929.078071 354.351703 L 932.852816 353.028337 L 936.627562 351.704971 L 940.402307 350.381605 L 944.177053 349.058239 L 947.951798 347.734874 L 951.726544 346.411508 L 955.501289 345.088142 L 959.289816 343.805713 L 963.096332 342.576712 L 966.902847 341.347712 L 970.709362 340.118711 L 974.515877 338.889710 L 978.322392 337.660709 L 982.128907 336.431709 L 985.935422 335.202708 L 989.741937 333.973707 L 993.548452 332.744706 L 997.354967 331.515706 L 1001.161482 330.286705 L 1004.967998 329.057704 L 1008.774513 327.828703 L 1012.581028 326.599703 L 1016.387543 325.370702 L 1020.194058 324.141701 L 1024.000573 322.912700 L 1027.807088 321.683700 L 1031.613603 320.454699 L 1035.420118 319.225698 L 1039.226633 317.996697 L 1043.033148 316.767697 L 1046.839664 315.538696 L 1050.646179 314.309695 L 1054.444070 313.054838 L 1058.226259 311.752897 L 1062.008447 310.450957 L 1065.790636 309.149016 L 1069.572825 307.847076 L 1073.355013 306.545135 L 1077.137202 305.243195 L 1080.919391 303.941254 L 1084.701579 302.639314 L 1088.483768 301.337373 L 1092.265957 300.035433 L 1096.048145 298.733493 L 1099.830334 297.431552 L 1103.612523 296.129612 L 1107.394711 294.827671 L 1107.977030 294.627220" fill="none" id="6" stroke="black" stroke-width="0.5" /><path d="M 16.596050 138.983160 L 13.068988 140.510876 L 16.855646 140.801880 L 20.805357 140.240062 L 24.717881 139.419676 L 28.594346 138.433258 L 32.470811 137.446841 L 36.347276 136.460424 L 40.223741 135.474007 L 44.100206 134.487590 L 47.976671 133.501173 L 51.853136 132.514756 L 55.729601 131.528339 L 59.606067 130.541922 L 63.482532 129.555505 L 67.358997 128.569087 L 71.235462 127.582670 L 75.111927 126.596253 L 78.988392 125.609836 L 82.864857 124.623419 L 86.741322 123.637002 L 90.617787 122.650585 L 94.494252 121.664168 L 98.370717 120.677751 L 102.247182 119.691334 L 106.123647 118.704916 L 110.000112 117.718499 L 113.876577 116.732082 L 117.753042 115.745665 L 121.629507 114.759248 L 125.505972 113.772831 L 129.382437 112.786414 L 133.258903 111.799997 L 137.135368 110.813580 L 141.011833 109.827163 L 144.888298 108.840745 L 148.764763 107.854328 L 152.641228 106.867911 L 156.521683 105.897433 L 160.405656 104.941006 L 164.289629 103.984579 L 168.173603 103.028152 L 172.057576 102.071725 L 175.941549 101.115298 L 179.825522 100.158871 L 183.709495 99.202443 L 187.593468 98.246016 L 191.477441 97.289589 L 195.361414 96.333162 L 199.245388 95.376735 L 203.129361 94.420308 L 207.013334 93.463881 L 210.897307 92.507454 L 214.781280 91.551026 L 218.665253 90.594599 L 222.549226 89.638172 L 226.433199 88.681745 L 230.317172 87.725318 L 234.201146 86.768891 L 238.085119 85.812464 L 241.969092 84.856037 L 245.853065 83.899609 L 249.737038 82.943182 L 253.621011 81.986755 L 257.504984 81.030328 L 261.388957 80.073901 L 265.272930 79.117474 L 269.156904 78.161047 L 273.040877 77.204620 L 276.924850 76.248192 L 280.790662 75.221439 L 284.652079 74.177670 L 288.513497 73.133902 L 292.374915 72.090133 L 296.236333 71.046365 L 300.097750 70.002596 L 303.959168 68.958827 L 307.820586 67.915059 L 311.682004 66.871290 L 315.543421 65.827522 L 319.278127 65.639353 L 323.163844 64.690033 L 327.049560 63.740714 L 330.935277 62.791395 L 334.820993 61.842075 L 338.706710 60.892756 L 342.592426 59.943437 L 346.478143 58.994117 L 350.363859 58.044798 L 354.249576 57.095479 L 358.135292 56.146160 L 362.021009 55.196840 L 365.906725 54.247521 L 369.792442 53.298202 L 373.678158 52.348882 L 377.563875 51.399563 L 381.449591 50.450244 L 385.335308 49.500924 L 389.221024 48.551605 L 393.106741 47.602286 L 396.992457 46.652966 L 400.878174 45.703647 L 404.763890 44.754328 L 408.649607 43.805008 L 412.535323 42.855689 L 416.421040 41.906370 L 420.306756 40.957051 L 424.192473 40.007731 L 428.078189 39.058412 L 431.963906 38.109093 L 435.849622 37.159773 L 439.735339 36.210454 L 443.621055 35.261135 L 447.510562 34.328347 L 451.421798 33.490354 L 455.333034 32.652360 L 459.244269 31.814366 L 463.155505 30.976372 L 467.066741 30.138379 L 470.977977 29.300385 L 474.889213 28.462391 L 478.800449 27.624398 L 482.711685 26.786404 L 486.622921 25.948410 L 490.534157 25.110416 L 494.445393 24.272423 L 498.356629 23.434429 L 502.267865 22.596435 L 506.179101 21.758441 L 510.090337 20.920448 L 514.001573 20.082454 L 517.912808 19.244460 L 521.824044 18.406467 L 525.735280 17.568473 L 529.646516 16.730479 L 533.557752 15.892485 L 537.479485 15.106648 L 541.410389 14.366384 L 545.341294 13.626120 L 549.272198 12.885856 L 553.203102 12.145593 L 557.134007 11.405329 L 561.064911 10.665065 L 564.995816 9.924801 L 568.926720 9.184537 L 572.857624 8.444273 L 576.788529 7.704009 L 580.719433 6.963746 L 584.650338 6.223482 L 588.581242 5.483218 L 592.512146 4.742954 L 596.443051 4.002690 L 600.373955 3.262426 L 604.304860 2.522163 L 608.235764 1.781899 L 612.166668 1.041635 L 616.097573 0.301371 L 616.370360 0.250000" fill="none" id="7" stroke="black" stroke-width="0.5" /><path d="M 74.790570 104.810390 L 77.696778 107.496066 L 80.985637 109.772776 L 84.393748 111.859671 L 87.872211 113.834588 L 91.350673 115.809505 L 94.829136 117.784423 L 98.307598 119.759340 L 101.786061 121.734257 L 105.264523 123.709175 L 108.742986 125.684092 L 112.221448 127.659010 L 115.699911 129.633927 L 119.178373 131.608844 L 122.656836 133.583762 L 126.135298 135.558679 L 129.533729 137.666300 L 132.903487 139.821464 L 136.273244 141.976628 L 139.643002 144.131792 L 143.012760 146.286956 L 146.382518 148.442120 L 149.752276 150.597284 L 153.122034 152.752448 L 156.518054 154.865298 L 159.944880 156.928515 L 163.371706 158.991733 L 166.798532 161.054950 L 170.225357 163.118167 L 173.652183 165.181384 L 177.079009 167.244602 L 180.505835 169.307819 L 183.932660 171.371036 L 184.989390 172.007270" fill="none" id="8" stroke="black" stroke-width="0.5" /><path d="M 82.367140 106.086680 L 79.253024 103.576246 L 76.138907 101.065812 L 73.024791 98.555378 L 69.910674 96.044944 L 66.582437 93.930097 L 67.700112 96.157570 L 70.930541 98.516454 L 74.160969 100.875338 L 77.391397 103.234222 L 80.734339 105.421429 L 84.186399 107.442142 L 87.638460 109.462855 L 91.090520 111.483568 L 94.542580 113.504281 L 97.994640 115.524994 L 101.446700 117.545707 L 104.898760 119.566420 L 108.350820 121.587133 L 111.802880 123.607846 L 115.254940 125.628559 L 118.707000 127.649272 L 122.159060 129.669985 L 125.593202 131.719206 L 128.910951 133.953606 L 132.228700 136.188005 L 135.546449 138.422405 L 138.864198 140.656805 L 142.181946 142.891205 L 145.499695 145.125605 L 148.817444 147.360005 L 152.135193 149.594405 L 155.452942 151.828805 L 158.770690 154.063205 L 162.088439 156.297605 L 165.406188 158.532005 L 168.723937 160.766405 L 172.041685 163.000804 L 175.359434 165.235204 L 178.677183 167.469604 L 181.994932 169.704004 L 185.312681 171.938404 L 188.630429 174.172804 L 191.948178 176.407204 L 195.265927 178.641604 L 196.596050 179.537400" fill="none" id="9" stroke="black" stroke-width="0.5" /><path d="M 109.836240 39.272690 L 108.928905 43.073623 L 108.953825 47.069968 L 109.056636 51.068647 L 109.159448 55.067325 L 109.431871 59.056405 L 109.780881 63.041150 L 110.129891 67.025895 L 110.478900 71.010640 L 110.934087 74.984499 L 111.400884 78.957168 L 111.867680 82.929838 L 112.334477 86.902507 L 112.801274 90.875176 L 113.268070 94.847845 L 113.734867 98.820515 L 114.201663 102.793184 L 114.668460 106.765853 L 115.135256 110.738522 L 115.602053 114.711192 L 116.068849 118.683861 L 116.535646 122.656530 L 117.002442 126.629199 L 117.469239 130.601869 L 117.936035 134.574538 L 118.402832 138.547207 L 118.869628 142.519876 L 119.336425 146.492546 L 119.803221 150.465215 L 120.270018 154.437884 L 120.736815 158.410553 L 121.203611 162.383223 L 121.618453 166.360773 L 121.899805 170.350866 L 122.181157 174.340959 L 122.462509 178.331052 L 122.743860 182.321145 L 123.025212 186.311238 L 123.306564 190.301331 L 123.587915 194.291424 L 123.869267 198.281516 L 124.150619 202.271609 L 124.431971 206.261702 L 124.713322 210.251795 L 124.994674 214.241888 L 125.276026 218.231981 L 125.557378 222.222074 L 125.838729 226.212167 L 126.120081 230.202259 L 126.401433 234.192352 L 126.682784 238.182445 L 126.964136 242.172538 L 127.245488 246.162631 L 127.526840 250.152724 L 127.808191 254.142817 L 128.096407 258.132092 L 128.760680 262.076549 L 129.478251 266.006999 L 131.360137 269.453305 L 132.146830 270.313820" fill="none" id="10" stroke="black" stroke-width="0.5" /><path d="M 110.577780 35.954330 L 110.536175 39.954114 L 110.494569 43.953897 L 110.452964 47.953681 L 110.411359 51.953464 L 110.369753 55.953248 L 110.431731 59.951778 L 110.570127 63.949383 L 110.708524 67.946988 L 110.846920 71.944593 L 111.107139 75.935786 L 111.389188 79.925830 L 111.671236 83.915873 L 111.953285 87.905917 L 112.235333 91.895961 L 112.517382 95.886005 L 112.799430 99.876048 L 113.081479 103.866092 L 113.363527 107.856136 L 113.645576 111.846179 L 113.927624 115.836223 L 114.209673 119.826267 L 114.491721 123.816310 L 114.773770 127.806354 L 115.055818 131.796398 L 115.337867 135.786441 L 115.619915 139.776485 L 115.901964 143.766529 L 116.184012 147.756572 L 116.466060 151.746616 L 116.748109 155.736660 L 117.030157 159.726704 L 117.312206 163.716747 L 117.594254 167.706791 L 117.876303 171.696835 L 117.815454 169.212647 L 117.674454 165.215133 L 117.533454 161.217618 L 117.392454 157.220104 L 117.646855 160.536354 L 117.937649 164.525770 L 118.228443 168.515186 L 118.519237 172.504602 L 118.810031 176.494017 L 119.100825 180.483433 L 119.391619 184.472849 L 119.682413 188.462265 L 119.973207 192.451681 L 120.264001 196.441097 L 120.554795 200.430513 L 120.845589 204.419928 L 121.058972 208.414079 L 121.256583 212.409195 L 121.454193 216.404311 L 121.651803 220.399427 L 121.849414 224.394543 L 122.047024 228.389658 L 122.244634 232.384774 L 122.442245 236.379890 L 122.639855 240.375006 L 122.837465 244.370122 L 123.035076 248.365237 L 123.232686 252.360353 L 123.430296 256.355469 L 123.627907 260.350585 L 123.825517 264.345700 L 123.942017 264.562495 L 123.967994 260.562580 L 123.993972 256.562664 L 124.019949 252.562748 L 124.195490 255.877837 L 124.384942 259.873348 L 124.574395 263.868859 L 124.763847 267.864370 L 124.953300 271.859881 L 125.142752 275.855392 L 125.332205 279.850903 L 125.521657 283.846414 L 125.711110 287.841925 L 125.900562 291.837436 L 125.892721 289.069038 L 125.848964 285.069277 L 125.805206 281.069517 L 125.970631 283.271859 L 126.196472 287.265478 L 126.422312 291.259098 L 126.648153 295.252717 L 126.873994 299.246337 L 127.099834 303.239956 L 127.325675 307.233575 L 127.551516 311.227195 L 127.777356 315.220814 L 128.003197 319.214434 L 128.229038 323.208053 L 128.454879 327.201672 L 128.680719 331.195292 L 128.729310 332.054540" fill="none" id="11" stroke="black" stroke-width="0.5" /><path d="M 476.574550 425.989780 L 476.536205 429.989596 L 476.497861 433.989412 L 476.459516 437.989229 L 476.421172 441.989045 L 476.490853 445.988064 L 476.588216 449.986879 L 476.685580 453.985694 L 476.782944 457.984509 L 476.880307 461.983323 L 476.977671 465.982138 L 477.075035 469.980953 L 477.172398 473.979768 L 477.269762 477.978583 L 477.367125 481.977398 L 477.464489 485.976213 L 477.561853 489.975027 L 477.659216 493.973842 L 477.756580 497.972657 L 477.844696 501.971650 L 477.901140 505.971252 L 477.957584 509.970853 L 478.014028 513.970455 L 478.070472 517.970057 L 478.126917 521.969659 L 478.183361 525.969260 L 478.239805 529.968862 L 478.296249 533.968464 L 478.352693 537.968066 L 478.409137 541.967667 L 478.465581 545.967269 L 478.522025 549.966871 L 478.578470 553.966472 L 478.634914 557.966074 L 478.691358 561.965676 L 478.747802 565.965278 L 478.804246 569.964879 L 478.860690 573.964481 L 478.917134 577.964083 L 478.973579 581.963685 L 479.030023 585.963286 L 479.086467 589.962888 L 479.142911 593.962490 L 479.199355 597.962092 L 479.255799 601.961693 L 479.312243 605.961295 L 479.368687 609.960897 L 479.425132 613.960499 L 479.599308 617.955834 L 479.832508 621.949030 L 480.065709 625.942227 L 480.298910 629.935423 L 480.532111 633.928619 L 480.765311 637.921816 L 481.433093 641.856243 L 482.268883 645.767951 L 483.796480 647.426790" fill="none" id="12" stroke="black" stroke-width="0.5" /><path d="M 480.088790 414.407410 L 480.017209 418.406769 L 479.945629 422.406129 L 479.874048 426.405488 L 479.802467 430.404848 L 479.739018 434.404172 L 479.845794 438.402746 L 479.952571 442.401321 L 480.059348 446.399895 L 480.166124 450.398470 L 480.272901 454.397045 L 480.379678 458.395619 L 480.486454 462.394194 L 480.593231 466.392768 L 480.700008 470.391343 L 480.806784 474.389917 L 480.913561 478.388492 L 481.020337 482.387067 L 481.127114 486.385641 L 481.233891 490.384216 L 481.340667 494.382790 L 481.447444 498.381365 L 481.538392 502.380133 L 481.529329 506.380123 L 481.520266 510.380112 L 481.511202 514.380102 L 481.502139 518.380092 L 481.493076 522.380082 L 481.484013 526.380071 L 481.474950 530.380061 L 481.465887 534.380051 L 481.456824 538.380041 L 481.447761 542.380030 L 481.393059 546.379355 L 481.285551 550.377910 L 481.178043 554.376465 L 481.070536 558.375020 L 480.963028 562.373575 L 480.855520 566.372130 L 480.748013 570.370685 L 480.640505 574.369240 L 480.532997 578.367795 L 480.425490 582.366350 L 480.317982 586.364905 L 480.210474 590.363460 L 480.102967 594.362015 L 479.995459 598.360570 L 479.887951 602.359125 L 479.780444 606.357680 L 479.672936 610.356235 L 479.673393 614.356189 L 479.677244 618.356187 L 479.681094 622.356185 L 479.684944 626.356184 L 479.688795 630.356182 L 479.692645 634.356180 L 479.696496 638.356178 L 479.700346 642.356176 L 479.777290 646.354979 L 479.904226 650.352964 L 480.031161 654.350950 L 480.158097 658.348935 L 480.285033 662.346921 L 480.411969 666.344906 L 480.538904 670.342891 L 480.665840 674.340877 L 480.792776 678.338862 L 480.919712 682.336848 L 480.991530 684.598850" fill="none" id="13" stroke="black" stroke-width="0.5" /><path d="M 904.924900 296.828820 L 904.876730 300.828530 L 904.828560 304.828240 L 904.780390 308.827950 L 904.732220 312.827660 L 904.684050 316.827370 L 904.635879 320.827080 L 904.587709 324.826790 L 904.539539 328.826500 L 904.491369 332.826210 L 904.443199 336.825919 L 904.395029 340.825629 L 904.346859 344.825339 L 904.298689 348.825049 L 904.173476 352.822622 L 903.999809 356.818850 L 903.826141 360.815078 L 903.652474 364.811306 L 903.478806 368.807534 L 903.305139 372.803763 L 903.131471 376.799991 L 902.957804 380.796219 L 902.784136 384.792447 L 902.610469 388.788675 L 902.436801 392.784903 L 902.263134 396.781132 L 902.089466 400.777360 L 901.955478 404.132722 L 902.276100 400.145593 L 902.596722 396.158463 L 902.754425 395.168152 L 902.640923 399.166541 L 902.527421 403.164930 L 902.413919 407.163320 L 902.300418 411.161709 L 902.186916 415.160098 L 902.073414 419.158488 L 901.959912 423.156877 L 901.846411 427.155266 L 901.732909 431.153656 L 901.619407 435.152045 L 901.505905 439.150434 L 901.392403 443.148824 L 901.289822 447.146918 L 901.619221 451.133332 L 901.948620 455.119746 L 902.278019 459.106160 L 903.014185 463.023308 L 904.434999 466.692245 L 905.376270 467.916040" fill="none" id="14" stroke="black" stroke-width="0.5" /><path d="M 915.854510 245.011290 L 915.554341 249.000011 L 915.254171 252.988733 L 914.954002 256.977454 L 914.653832 260.966176 L 914.353663 264.954897 L 914.053494 268.943618 L 913.753324 272.932340 L 913.453155 276.921061 L 913.152985 280.909783 L 912.852816 284.898504 L 912.552647 288.887225 L 912.252477 292.875947 L 911.952308 296.864668 L 911.652138 300.853389 L 911.351969 304.842111 L 911.051800 308.830832 L 911.122856 308.087204 L 911.448316 304.100466 L 911.773777 300.113729 L 911.905586 299.705655 L 911.798941 303.704233 L 911.692296 307.702812 L 911.585650 311.701390 L 911.479005 315.699968 L 911.372359 319.698546 L 911.265714 323.697124 L 911.159069 327.695702 L 911.052423 331.694280 L 910.945778 335.692858 L 910.839132 339.691436 L 910.694564 343.688795 L 910.544183 347.685967 L 910.393802 351.683140 L 910.243420 355.680312 L 910.093039 359.677484 L 909.942658 363.674656 L 909.792277 367.671828 L 909.641896 371.669001 L 909.491515 375.666173 L 909.341134 379.663345 L 909.190753 383.660517 L 909.040372 387.657689 L 908.889991 391.654862 L 908.739610 395.652034 L 908.589229 399.649206 L 908.438848 403.646378 L 908.288467 407.643550 L 908.138086 411.640723 L 907.987705 415.637895 L 907.837324 419.635067 L 907.686943 423.632239 L 907.536562 427.629411 L 907.386181 431.626584 L 907.235800 435.623756 L 907.085419 439.620928 L 906.935038 443.618100 L 906.784657 447.615272 L 906.634276 451.612445 L 906.483895 455.609617 L 906.333514 459.606789 L 906.183133 463.603961 L 906.032752 467.601133 L 905.882371 471.598305 L 905.731989 475.595478 L 905.606402 479.593014 L 905.639229 483.592880 L 905.672055 487.592745 L 905.704881 491.592610 L 905.737707 495.592476 L 905.770533 499.592341 L 905.803360 503.592206 L 905.836186 507.592071 L 905.955691 511.587838 L 906.300444 515.572954 L 906.645196 519.558069 L 907.532111 523.456032 L 908.453665 527.348427 L 908.471380 527.423250" fill="none" id="15" stroke="black" stroke-width="0.5" /><path d="M 905.892130 241.150500 L 906.516795 241.946280 L 906.690662 245.940835 L 906.659553 249.940714 L 906.628444 253.940593 L 906.597335 257.940472 L 906.566226 261.940351 L 906.535117 265.940230 L 906.504008 269.940109 L 906.472899 273.939988 L 906.441790 277.939867 L 906.410681 281.939746 L 906.379572 285.939625 L 906.348463 289.939504 L 906.317354 293.939383 L 906.148924 297.935260 L 905.947039 301.930162 L 905.745154 305.925064 L 905.543269 309.919966 L 905.341385 313.914868 L 905.139500 317.909770 L 904.937615 321.904672 L 904.735730 325.899575 L 904.533846 329.894477 L 904.331961 333.889379 L 904.130076 337.884281 L 903.928192 341.879183 L 903.726307 345.874085 L 903.524422 349.868987 L 903.322537 353.863889 L 903.120653 357.858791 L 902.918768 361.853693 L 902.716883 365.848595 L 902.514999 369.843497 L 902.313114 373.838399 L 902.111229 377.833301 L 901.909344 381.828204 L 901.707460 385.823106 L 901.505575 389.818008 L 901.303690 393.812910 L 901.101806 397.807812 L 900.899921 401.802714 L 900.698036 405.797616 L 900.496151 409.792518 L 900.294267 413.787420 L 900.092382 417.782322 L 899.936150 421.779265 L 899.780746 425.776245 L 899.625341 429.773225 L 899.469936 433.770205 L 899.314531 437.767185 L 899.159127 441.764165 L 899.003722 445.761145 L 898.848317 449.758125 L 898.692912 453.755106 L 898.537508 457.752086 L 898.382103 461.749066 L 898.226698 465.746046 L 898.071293 469.743026 L 897.915889 473.740006 L 897.760484 477.736986 L 897.605079 481.733966 L 897.449674 485.730946 L 897.294270 489.727926 L 897.244097 493.727512 L 897.201487 497.727285 L 897.158878 501.727058 L 897.116268 505.726831 L 897.073658 509.726604 L 897.031048 513.726377 L 896.988439 517.726150 L 896.945829 521.725923 L 896.903219 525.725696 L 896.860609 529.725469 L 896.818000 533.725242 L 896.775390 537.725015 L 896.732780 541.724788 L 896.690170 545.724561 L 896.647561 549.724334 L 896.805879 553.719937 L 897.014421 557.714497 L 897.222962 561.709057 L 897.431504 565.703617 L 897.638500 569.668580" fill="none" id="16" stroke="black" stroke-width="0.5" /><path d="M 181.281700 77.593420 L 179.138862 75.816398 L 182.219373 78.344527 L 185.523197 80.599465 L 188.827021 82.854404 L 192.137608 85.099072 L 195.514346 87.243282 L 198.891085 89.387491 L 202.267824 91.531701 L 205.644563 93.675911 L 209.021302 95.820120 L 212.398041 97.964330 L 215.774779 100.108539 L 219.151518 102.252749 L 222.528257 104.396959 L 225.904996 106.541168 L 229.224518 108.770929 L 232.495756 111.072885 L 235.766994 113.374841 L 239.038232 115.676797 L 242.309470 117.978754 L 245.580708 120.280710 L 248.851946 122.582666 L 252.123184 124.884622 L 255.394422 127.186579 L 258.665660 129.488535 L 261.936898 131.790491 L 265.208135 134.092447 L 268.479373 136.394404 L 271.750611 138.696360 L 275.021849 140.998316 L 278.293087 143.300272 L 281.564325 145.602229 L 284.824509 147.919371 L 288.020453 150.324770 L 291.216397 152.730168 L 294.412340 155.135567 L 297.608284 157.540966 L 300.804228 159.946365 L 304.000172 162.351764 L 307.196116 164.757162 L 310.392060 167.162561 L 313.588003 169.567960 L 316.783947 171.973359 L 319.979891 174.378757 L 323.175835 176.784156 L 326.371779 179.189555 L 329.567722 181.594954 L 332.763666 184.000352 L 335.959610 186.405751 L 339.155554 188.811150 L 342.351498 191.216549 L 345.547441 193.621947 L 348.743385 196.027346 L 351.939329 198.432745 L 355.135273 200.838144 L 358.331217 203.243542 L 361.527160 205.648941 L 364.723104 208.054340 L 367.919048 210.459739 L 371.114992 212.865137 L 374.310936 215.270536 L 377.506880 217.675935 L 380.702823 220.081334 L 383.898767 222.486732 L 387.094711 224.892131 L 390.290655 227.297530 L 393.486599 229.702929 L 396.682542 232.108327 L 399.878486 234.513726 L 403.074430 236.919125 L 406.270374 239.324524 L 409.466318 241.729922 L 412.662261 244.135321 L 415.858205 246.540720 L 419.054149 248.946119 L 422.250093 251.351517 L 425.446037 253.756916 L 428.641980 256.162315 L 431.837924 258.567714 L 435.033868 260.973112 L 438.229812 263.378511 L 441.425756 265.783910 L 444.621700 268.189309 L 447.818154 270.594015 L 451.062011 272.934398 L 454.305867 275.274782 L 457.549724 277.615165 L 460.793580 279.955549 L 464.037437 282.295932 L 467.281293 284.636316 L 470.525150 286.976699 L 473.769006 289.317083 L 477.012863 291.657466 L 480.256719 293.997850 L 483.500576 296.338233 L 486.744432 298.678617 L 489.988289 301.019000 L 493.232145 303.359384 L 496.476002 305.699767 L 499.719858 308.040151 L 502.963715 310.380534 L 506.207571 312.720918 L 509.451428 315.061301 L 512.695284 317.401685 L 515.939141 319.742068 L 519.182997 322.082452 L 522.426854 324.422835 L 525.670710 326.763219 L 528.914567 329.103602 L 532.158423 331.443986 L 535.402280 333.784369 L 538.646136 336.124753 L 541.889993 338.465136 L 545.133849 340.805520 L 548.377706 343.145903 L 551.621562 345.486287 L 554.865419 347.826670 L 558.109275 350.167054 L 561.353132 352.507437 L 564.596988 354.847821 L 567.840845 357.188204 L 571.084701 359.528588 L 574.328558 361.868972 L 577.572414 364.209355 L 580.816271 366.549739 L 584.060127 368.890122 L 587.286016 371.255085 L 590.500458 373.635708 L 593.714899 376.016331 L 596.929341 378.396953 L 600.143783 380.777576 L 603.358224 383.158199 L 606.572666 385.538822 L 609.787107 387.919445 L 613.001549 390.300068 L 616.215991 392.680691 L 619.430432 395.061313 L 622.644874 397.441936 L 625.859316 399.822559 L 629.073757 402.203182 L 632.288199 404.583805 L 635.502640 406.964428 L 638.717082 409.345050 L 641.931524 411.725673 L 645.145965 414.106296 L 648.360407 416.486919 L 651.574848 418.867542 L 654.789290 421.248165 L 658.003732 423.628787 L 661.218173 426.009410 L 664.432615 428.390033 L 667.647057 430.770656 L 670.861498 433.151279 L 674.075940 435.531902 L 677.290381 437.912524 L 680.504823 440.293147 L 683.719265 442.673770 L 686.933706 445.054393 L 690.148148 447.435016 L 693.384462 449.785314 L 696.657776 452.084317 L 699.931090 454.383321 L 703.204404 456.682324 L 706.477718 458.981327 L 709.751032 461.280330 L 713.024346 463.579333 L 716.297660 465.878336 L 719.570974 468.177339 L 722.844288 470.476343 L 726.117602 472.775346 L 729.390917 475.074349 L 732.332905 477.667533 L 735.580221 480.003114 L 738.827537 482.338695 L 742.074853 484.674276 L 745.322169 487.009857 L 748.569485 489.345438 L 751.816801 491.681019 L 755.064117 494.016600 L 758.311433 496.352180 L 761.558749 498.687761 L 764.806065 501.023342 L 768.053381 503.358923 L 771.282310 505.719698 L 774.496802 508.100252 L 777.711295 510.480806 L 780.925787 512.861361 L 784.140280 515.241915 L 787.354772 517.622469 L 790.569265 520.003023 L 793.783757 522.383577 L 796.998250 524.764132 L 800.212742 527.144686 L 803.427234 529.525240 L 806.641727 531.905794 L 809.856219 534.286348 L 813.070712 536.666903 L 816.285204 539.047457 L 819.499697 541.428011 L 822.714189 543.808565 L 825.928682 546.189119 L 829.088401 548.641460 L 832.233329 551.113185 L 835.378257 553.584911 L 838.523185 556.056636 L 841.668113 558.528362 L 844.813041 561.000087 L 847.957969 563.471813 L 851.102897 565.943539 L 854.247826 568.415264 L 857.392754 570.886990 L 860.537682 573.358715 L 863.127810 576.213067 L 866.199003 578.775834 L 869.270196 581.338601 L 872.341389 583.901368 L 875.412582 586.464134 L 878.483775 589.026901 L 881.554968 591.589668 L 884.626161 594.152435 L 887.697354 596.715201 L 890.768547 599.277968 L 893.839740 601.840735 L 896.910933 604.403502 L 899.982126 606.966268 L 903.053319 609.529035 L 906.124512 612.091802 L 909.195705 614.654569 L 912.266898 617.217335 L 915.338091 619.780102 L 918.409284 622.342869 L 921.480477 624.905636 L 924.551670 627.468402 L 926.929740 629.452790" fill="none" id="17" stroke="black" stroke-width="0.5" /><path d="M 171.706200 327.108900 L 174.898283 325.130407 L 178.651805 323.747992 L 182.405327 322.365576 L 186.158849 320.983161 L 189.952356 319.714714 L 193.746821 318.449001 L 197.541287 317.183287 L 201.335752 315.917574 L 205.130218 314.651860 L 208.924684 313.386147 L 212.719149 312.120433 L 216.513615 310.854720 L 220.308081 309.589006 L 224.102546 308.323293 L 227.897012 307.057579 L 231.691477 305.791866 L 235.485943 304.526153 L 239.280409 303.260439 L 243.074874 301.994726 L 246.869340 300.729012 L 250.663806 299.463299 L 254.458271 298.197585 L 258.252737 296.931872 L 262.047202 295.666158 L 265.841668 294.400445 L 269.636134 293.134731 L 273.436843 291.888996 L 277.276802 290.768856 L 281.116761 289.648716 L 284.956720 288.528576 L 288.796679 287.408435 L 292.636638 286.288295 L 296.476598 285.168155 L 300.316557 284.048015 L 304.156516 282.927875 L 307.996475 281.807735 L 311.836434 280.687595 L 315.676393 279.567455 L 319.516352 278.447315 L 323.356311 277.327175 L 327.196271 276.207034 L 331.036230 275.086894 L 334.876189 273.966754 L 338.716148 272.846614 L 342.556107 271.726474 L 346.396066 270.606334 L 350.236025 269.486194 L 354.075985 268.366054 L 357.915944 267.245914 L 361.755903 266.125774 L 365.595862 265.005633 L 369.435821 263.885493 L 373.263606 262.725109 L 377.080555 261.528907 L 380.897504 260.332705 L 384.714453 259.136503 L 388.531402 257.940301 L 392.348351 256.744099 L 396.165300 255.547896 L 399.982249 254.351694 L 403.799199 253.155492 L 407.616148 251.959290 L 411.433097 250.763088 L 415.250046 249.566885 L 419.066995 248.370683 L 422.883944 247.174481 L 426.700893 245.978279 L 430.517842 244.782077 L 434.346574 243.624297 L 438.177924 242.475055 L 442.009274 241.325814 L 445.840624 240.176573 L 449.671975 239.027331 L 453.503325 237.878090 L 457.334675 236.728849 L 461.166025 235.579607 L 464.997375 234.430366 L 468.828726 233.281125 L 472.660076 232.131883 L 476.491426 230.982642 L 480.322776 229.833400 L 484.154126 228.684159 L 487.985477 227.534918 L 491.816827 226.385676 L 495.648177 225.236435 L 499.479527 224.087194 L 503.310877 222.937952 L 507.142228 221.788711 L 510.973578 220.639470 L 514.804928 219.490228 L 518.249002 219.229182 L 522.128451 218.254566 L 526.007900 217.279951 L 529.887349 216.305335 L 533.766798 215.330719 L 537.646247 214.356104 L 541.525696 213.381488 L 545.405145 212.406872 L 549.284594 211.432257 L 553.164043 210.457641 L 557.043492 209.483026 L 560.922941 208.508410 L 564.802390 207.533794 L 568.681839 206.559179 L 572.561288 205.584563 L 576.440737 204.609947 L 580.320186 203.635332 L 584.199635 202.660716 L 588.079084 201.686101 L 591.958533 200.711485 L 595.837982 199.736869 L 599.717431 198.762254 L 603.596880 197.787638 L 607.459670 196.750032 L 611.313742 195.679456 L 615.167814 194.608881 L 619.021885 193.538305 L 622.875957 192.467730 L 626.393271 192.456366 L 630.256470 191.419209 L 634.119669 190.382051 L 637.982867 189.344893 L 641.846066 188.307736 L 645.709265 187.270578 L 649.572464 186.233420 L 653.435662 185.196263 L 657.298861 184.159105 L 660.493186 184.399377 L 664.377936 183.446109 L 668.262685 182.492841 L 672.147435 181.539573 L 676.032185 180.586305 L 679.916935 179.633037 L 683.801684 178.679769 L 687.686434 177.726501 L 691.571184 176.773233 L 695.455933 175.819965 L 699.340683 174.866698 L 703.225433 173.913430 L 707.110183 172.960162 L 710.994932 172.006894 L 714.879682 171.053626 L 718.764432 170.100358 L 722.649181 169.147090 L 726.533931 168.193822 L 730.418681 167.240554 L 734.303431 166.287286 L 738.188180 165.334019 L 742.072930 164.380751 L 745.957680 163.427483 L 749.842429 162.474215 L 753.680954 161.349492 L 757.518416 160.220826 L 761.355878 159.092161 L 765.193340 157.963496 L 768.554807 157.913900 L 772.416837 156.872398 L 776.278867 155.830896 L 780.140896 154.789394 L 784.002926 153.747892 L 787.864956 152.706389 L 791.726985 151.664887 L 795.589015 150.623385 L 799.451045 149.581883 L 803.069464 149.180318 L 806.955159 148.230908 L 810.840853 147.281497 L 814.726547 146.332087 L 818.612242 145.382677 L 822.497936 144.433267 L 826.383630 143.483856 L 830.269324 142.534446 L 831.222590 142.301530" fill="none" id="18" stroke="black" stroke-width="0.5" /><path d="M 169.288150 321.620840 L 173.088152 320.371845 L 176.888153 319.122850 L 180.733093 318.025389 L 184.599644 317.000797 L 188.466194 315.976206 L 192.332744 314.951614 L 196.199295 313.927022 L 200.065845 312.902430 L 203.932396 311.877838 L 207.798946 310.853247 L 211.665496 309.828655 L 215.532047 308.804063 L 219.398597 307.779471 L 223.265147 306.754879 L 227.131698 305.730288 L 230.998248 304.705696 L 234.864798 303.681104 L 238.731349 302.656512 L 242.597899 301.631920 L 246.464449 300.607329 L 250.331000 299.582737 L 254.193192 298.542137 L 258.045463 297.465101 L 261.897734 296.388065 L 265.750005 295.311029 L 269.602276 294.233993 L 273.454548 293.156957 L 277.306819 292.079921 L 281.159090 291.002885 L 285.011361 289.925849 L 288.863633 288.848813 L 292.715904 287.771777 L 296.568175 286.694741 L 300.420446 285.617705 L 304.272717 284.540669 L 308.123052 283.456867 L 311.961915 282.332975 L 315.800778 281.209083 L 319.639641 280.085192 L 323.478503 278.961300 L 327.317366 277.837409 L 331.156229 276.713517 L 334.995092 275.589625 L 338.833955 274.465734 L 342.672817 273.341842 L 346.511680 272.217951 L 350.350543 271.094059 L 354.189406 269.970167 L 358.028269 268.846276 L 361.867132 267.722384 L 365.705994 266.598493 L 369.544857 265.474601 L 373.383720 264.350710 L 377.222583 263.226818 L 381.061446 262.102926 L 384.900308 260.979035 L 388.739171 259.855143 L 392.578034 258.731252 L 396.416762 257.606913 L 400.234888 256.414474 L 404.053015 255.222036 L 407.871141 254.029598 L 411.689268 252.837159 L 415.507394 251.644721 L 419.325521 250.452282 L 423.143648 249.259844 L 426.961774 248.067405 L 430.422167 247.935007 L 434.290748 246.918110 L 438.159329 245.901212 L 442.027910 244.884315 L 445.896491 243.867418 L 449.765072 242.850520 L 453.633653 241.833623 L 457.502234 240.816726 L 461.370816 239.799828 L 465.239397 238.782931 L 469.107978 237.766034 L 472.976559 236.749136 L 476.845140 235.732239 L 480.713721 234.715342 L 484.582302 233.698444 L 488.450883 232.681547 L 492.319464 231.664650 L 496.188046 230.647752 L 500.085860 229.751430 L 503.990608 228.883708 L 507.895356 228.015986 L 511.800104 227.148265 L 515.432878 227.067055 L 519.276677 226.280654 L 523.167831 225.353874 L 527.058985 224.427095 L 530.950139 223.500315 L 534.841293 222.573536 L 538.732447 221.646756 L 542.623601 220.719977 L 546.514755 219.793197 L 550.405909 218.866418 L 554.297063 217.939638 L 558.188217 217.012859 L 562.079371 216.086079 L 565.970525 215.159300 L 569.861679 214.232520 L 573.752833 213.305741 L 577.643987 212.378961 L 581.535141 211.452182 L 585.426295 210.525402 L 589.317449 209.598623 L 592.642196 209.540874 L 596.542105 208.651657 L 600.442015 207.762440 L 604.341924 206.873224 L 608.241834 205.984007 L 612.136125 205.070713 L 616.026831 204.142054 L 619.917537 203.213396 L 623.808243 202.284738 L 627.698949 201.356079 L 631.589655 200.427421 L 635.480361 199.498763 L 639.371067 198.570104 L 643.261773 197.641446 L 647.152479 196.712788 L 651.043185 195.784129 L 654.933891 194.855471 L 658.824598 193.926813 L 662.715304 192.998155 L 666.606010 192.069496 L 670.496716 191.140838 L 674.387422 190.212180 L 678.278128 189.283521 L 682.168834 188.354863 L 686.059540 187.426205 L 689.950246 186.497546 L 693.840952 185.568888 L 697.731658 184.640230 L 701.622364 183.711571 L 705.513070 182.782913 L 709.403776 181.854255 L 713.294483 180.925596 L 717.185189 179.996938 L 721.075895 179.068280 L 724.966601 178.139622 L 728.857307 177.210963 L 732.748013 176.282305 L 736.638719 175.353647 L 740.529425 174.424988 L 744.420131 173.496330 L 748.310837 172.567672 L 752.201543 171.639013 L 756.092249 170.710355 L 759.982955 169.781697 L 763.873661 168.853038 L 767.764368 167.924380 L 771.655074 166.995722 L 775.111780 167.019601 L 779.030045 166.215110 L 782.948309 165.410619 L 786.866573 164.606128 L 790.784837 163.801637 L 794.703101 162.997145 L 798.621365 162.192654 L 802.539630 161.388163 L 806.457894 160.583672 L 810.376158 159.779181 L 814.294422 158.974690 L 818.212686 158.170198 L 822.130950 157.365707 L 826.049214 156.561216 L 829.967479 155.756725 L 833.885743 154.952234 L 837.804007 154.147743 L 841.722271 153.343251 L 845.640535 152.538760 L 849.558799 151.734269 L 853.399547 151.703034 L 857.350151 151.076358 L 861.300756 150.449683 L 865.251361 149.823007 L 869.201966 149.196332 L 873.152570 148.569656 L 877.103175 147.942981 L 881.053780 147.316305 L 885.004385 146.689630 L 888.127480 146.194220" fill="none" id="19" stroke="black" stroke-width="0.5" /><path d="M 180.765850 317.185710 L 184.072238 316.805584 L 187.957265 315.907216 L 191.691023 314.472278 L 195.424782 313.037341 L 199.158541 311.602403 L 202.892300 310.167466 L 206.705987 308.966431 L 210.537081 307.816337 L 214.368176 306.666244 L 218.199270 305.516151 L 222.030365 304.366057 L 225.861459 303.215964 L 229.692554 302.065871 L 233.523648 300.915777 L 237.354743 299.765684 L 241.185837 298.615590 L 245.016932 297.465497 L 248.848026 296.315404 L 252.679121 295.165310 L 256.510215 294.015217 L 260.341310 292.865123 L 264.172404 291.715030 L 268.003499 290.564937 L 271.834594 289.414843 L 275.665688 288.264750 L 279.509326 287.157790 L 283.359703 286.074000 L 287.210079 284.990209 L 291.060455 283.906418 L 294.910832 282.822628 L 298.761208 281.738837 L 302.611584 280.655046 L 306.461961 279.571255 L 310.312337 278.487465 L 314.162713 277.403674 L 318.013090 276.319883 L 321.863466 275.236093 L 325.713842 274.152302 L 329.564218 273.068511 L 333.414595 271.984721 L 337.264971 270.900930 L 341.115347 269.817139 L 344.965724 268.733348 L 348.816100 267.649558 L 352.666476 266.565767 L 356.516853 265.481976 L 360.367229 264.398186 L 364.217605 263.314395 L 368.067982 262.230604 L 371.918358 261.146814 L 375.768734 260.063023 L 379.619110 258.979232 L 383.469487 257.895441 L 387.300951 256.746627 L 391.131959 255.596247 L 394.962967 254.445867 L 398.793976 253.295487 L 402.624984 252.145106 L 406.455993 250.994726 L 410.287001 249.844346 L 414.118009 248.693965 L 417.949018 247.543585 L 421.780026 246.393205 L 425.611035 245.242825 L 429.442043 244.092444 L 433.273051 242.942064 L 437.109642 241.811208 L 440.969795 240.762775 L 444.829949 239.714342 L 448.690103 238.665910 L 452.550257 237.617477 L 456.410411 236.569044 L 460.270565 235.520611 L 464.130719 234.472178 L 467.990873 233.423745 L 471.851027 232.375312 L 475.711181 231.326879 L 479.571335 230.278447 L 483.431489 229.230014 L 487.291643 228.181581 L 491.151797 227.133148 L 495.011951 226.084715 L 498.872105 225.036282 L 502.732259 223.987849 L 506.592413 222.939416 L 510.452566 221.890983 L 514.312720 220.842551 L 518.172874 219.794118 L 522.033028 218.745685 L 525.893182 217.697252 L 529.753336 216.648819 L 533.613490 215.600386 L 537.473644 214.551953 L 541.333798 213.503520 L 545.193952 212.455088 L 549.054106 211.406655 L 552.914260 210.358222 L 556.774414 209.309789 L 560.640687 208.285508 L 564.534356 207.369351 L 568.428025 206.453194 L 572.321693 205.537036 L 576.215362 204.620879 L 579.934264 204.646305 L 583.822914 203.709071 L 587.711563 202.771837 L 591.600212 201.834604 L 595.488861 200.897370 L 599.377511 199.960136 L 603.266160 199.022903 L 607.154809 198.085669 L 611.043458 197.148435 L 614.940488 196.249090 L 618.861651 195.458845 L 622.782813 194.668600 L 626.703975 193.878354 L 630.625137 193.088109 L 634.538683 192.262909 L 638.433197 191.350351 L 642.327711 190.437792 L 646.222224 189.525233 L 650.116738 188.612675 L 654.011252 187.700116 L 657.905766 186.787557 L 661.800279 185.874999 L 665.694793 184.962440 L 669.589307 184.049882 L 673.483820 183.137323 L 677.378334 182.224764 L 681.272848 181.312206 L 685.167361 180.399647 L 689.061875 179.487089 L 692.940028 178.508165 L 696.812446 177.505979 L 700.684864 176.503793 L 704.557283 175.501607 L 708.429701 174.499421 L 712.302119 173.497235 L 716.174538 172.495049 L 720.046956 171.492863 L 723.919374 170.490677 L 727.791792 169.488491 L 731.709785 168.683618 L 735.629461 167.886033 L 739.549136 167.088448 L 743.468812 166.290863 L 747.388263 165.492279 L 751.271218 164.531729 L 755.154174 163.571178 L 759.037129 162.610628 L 762.920084 161.650077 L 766.803040 160.689527 L 770.685995 159.728976 L 774.568951 158.768426 L 778.451906 157.807875 L 782.334862 156.847325 L 786.232060 155.947822 L 790.139186 155.090872 L 794.046313 154.233921 L 797.953439 153.376971 L 801.860565 152.520021 L 805.767692 151.663070 L 809.674818 150.806120 L 813.581944 149.949170 L 817.489071 149.092219 L 821.396197 148.235269 L 825.303323 147.378319 L 829.210450 146.521368 L 833.117576 145.664418 L 837.024702 144.807468 L 838.412280 144.503130" fill="none" id="20" stroke="black" stroke-width="0.5" /><path d="M 61.765310 158.095660 L 65.747104 158.476865 L 69.728898 158.858071 L 73.710692 159.239276 L 77.692485 159.620482 L 81.674279 160.001687 L 85.656073 160.382892 L 89.637867 160.764098 L 93.619661 161.145303 L 97.601455 161.526509 L 101.583249 161.907714 L 105.565043 162.288919 L 109.546836 162.670125 L 113.528630 163.051330 L 117.510424 163.432536 L 121.499879 163.720193 L 125.490639 163.991918 L 129.481399 164.263643 L 133.472160 164.535368 L 137.462920 164.807093 L 141.453680 165.078818 L 145.444440 165.350543 L 149.435200 165.622268 L 153.425960 165.893993 L 157.416720 166.165718 L 161.412680 166.335915 L 165.410318 166.473331 L 169.407957 166.610746 L 173.405596 166.748161 L 177.403235 166.885577 L 181.400874 167.022992 L 185.398513 167.160407 L 189.396152 167.297823 L 193.393791 167.435238 L 197.391430 167.572653 L 201.390335 167.662613 L 205.389614 167.738518 L 209.388894 167.814423 L 213.388174 167.890329 L 217.387454 167.966234 L 221.386733 168.042140 L 225.386013 168.118045 L 229.385293 168.193951 L 233.384573 168.269856 L 237.383852 168.345761 L 241.383132 168.421667 L 245.382412 168.497572 L 249.381692 168.573478 L 253.380971 168.649383 L 257.380251 168.725289 L 261.379531 168.801194 L 265.378810 168.877099 L 269.378090 168.953005 L 273.377370 169.028910 L 277.376650 169.104816 L 281.375043 169.205030 L 285.369229 169.420608 L 289.363416 169.636186 L 293.357603 169.851764 L 297.351789 170.067342 L 301.345976 170.282919 L 305.340162 170.498497 L 309.334349 170.714075 L 313.328535 170.929653 L 317.322722 171.145231 L 321.316908 171.360808 L 325.311095 171.576386 L 329.305282 171.791964 L 333.299468 172.007542 L 337.293655 172.223119 L 341.287841 172.438697 L 345.282028 172.654275 L 349.277638 172.838340 L 353.274994 172.983741 L 357.272351 173.129141 L 361.269707 173.274541 L 365.267064 173.419942 L 369.264420 173.565342 L 373.261777 173.710742 L 377.259133 173.856142 L 381.256490 174.001543 L 385.253846 174.146943 L 389.251202 174.292343 L 393.248559 174.437744 L 397.245915 174.583144 L 401.243272 174.728544 L 405.240628 174.873944 L 409.237985 175.019345 L 413.235341 175.164745 L 417.232698 175.310145 L 421.230054 175.455546 L 425.227411 175.600946 L 429.224767 175.746346 L 433.222124 175.891746 L 437.219480 176.037147 L 441.216837 176.182547 L 445.214193 176.327947 L 449.211550 176.473348 L 453.208906 176.618748 L 457.206262 176.764148 L 461.203619 176.909548 L 465.200975 177.054949 L 469.198332 177.200349 L 473.195688 177.345749 L 477.193045 177.491150 L 481.190401 177.636550 L 485.186350 177.814932 L 489.181555 178.010721 L 493.176761 178.206510 L 497.171966 178.402299 L 501.167172 178.598088 L 505.162377 178.793877 L 509.157583 178.989667 L 513.152788 179.185456 L 517.147993 179.381245 L 521.143199 179.577034 L 525.138404 179.772823 L 529.133610 179.968612 L 533.128815 180.164401 L 537.124021 180.360190 L 541.119226 180.555980 L 545.114432 180.751769 L 549.109637 180.947558 L 553.104843 181.143347 L 557.100048 181.339136 L 561.095253 181.534925 L 565.090459 181.730714 L 569.085664 181.926504 L 573.080870 182.122293 L 577.076075 182.318082 L 581.069779 182.539868 L 585.060951 182.805477 L 589.052122 183.071085 L 593.043294 183.336694 L 597.034466 183.602303 L 601.025638 183.867912 L 605.016809 184.133521 L 609.007981 184.399129 L 612.999153 184.664738 L 616.990325 184.930347 L 620.981496 185.195956 L 624.972668 185.461565 L 628.963840 185.727174 L 632.955012 185.992782 L 636.946183 186.258391 L 640.937355 186.524000 L 644.928527 186.789609 L 648.919699 187.055218 L 652.910870 187.320826 L 656.902042 187.586435 L 660.893214 187.852044 L 664.884386 188.117653 L 668.875557 188.383262 L 672.866158 188.656018 L 676.848837 189.027857 L 680.831517 189.399696 L 684.814196 189.771536 L 688.796876 190.143375 L 692.779555 190.515214 L 696.762234 190.887053 L 700.744914 191.258893 L 704.727593 191.630732 L 708.710273 192.002571 L 712.692952 192.374411 L 716.675632 192.746250 L 720.658311 193.118089 L 724.640990 193.489928 L 728.623670 193.861768 L 732.606349 194.233607 L 736.589029 194.605446 L 740.571708 194.977286 L 744.554388 195.349125 L 748.537067 195.720964 L 752.519747 196.092804 L 756.502426 196.464643 L 760.485105 196.836482 L 764.467785 197.208321 L 766.579930 197.405520" fill="none" id="21" stroke="black" stroke-width="0.5" /><path d="M 314.919530 31.965910 L 315.313452 35.946466 L 315.707375 39.927022 L 316.101297 43.907578 L 316.252146 47.903814 L 316.372911 51.901990 L 316.493677 55.900167 L 316.614443 59.898343 L 316.735208 63.896520 L 316.855974 67.894696 L 316.976740 71.892873 L 317.097506 75.891049 L 317.218271 79.889226 L 317.339037 83.887402 L 317.459803 87.885579 L 317.580568 91.883756 L 317.701334 95.881932 L 317.822100 99.880109 L 317.862550 103.879621 L 317.874852 107.879603 L 317.887154 111.879584 L 317.899457 115.879565 L 317.911759 119.879546 L 317.924061 123.879527 L 317.936363 127.879508 L 317.948666 131.879489 L 317.960968 135.879470 L 317.973270 139.879451 L 317.985573 143.879432 L 317.997875 147.879413 L 318.010177 151.879394 L 318.022480 155.879375 L 318.034782 159.879357 L 318.047084 163.879338 L 318.059387 167.879319 L 318.071689 171.879300 L 318.083991 175.879281 L 318.096293 179.879262 L 318.108596 183.879243 L 318.120898 187.879224 L 318.133200 191.879205 L 318.145503 195.879186 L 318.157805 199.879167 L 318.170107 203.879148 L 318.182410 207.879130 L 318.194712 211.879111 L 318.207014 215.879092 L 318.219316 219.879073 L 318.231619 223.879054 L 318.243921 227.879035 L 318.256223 231.879016 L 318.268526 235.878997 L 318.343824 239.878045 L 318.449974 243.876637 L 318.556125 247.875228 L 318.662275 251.873819 L 318.768426 255.872410 L 318.874577 259.871002 L 318.980727 263.869593 L 319.086878 267.868184 L 319.193028 271.866775 L 319.299179 275.865367 L 319.554604 279.857062 L 319.817548 283.848410 L 320.080492 287.839759 L 320.343437 291.831107 L 320.606381 295.822455 L 320.869325 299.813803 L 321.132270 303.805151 L 321.395214 307.796499 L 321.685420 311.785671 L 322.058988 315.768189 L 322.432556 319.750707 L 322.806124 323.733224 L 323.179692 327.715742 L 323.553260 331.698260 L 323.926828 335.680777 L 324.382537 339.653585 L 324.947866 343.613434 L 325.513196 347.573283 L 326.078525 351.533131 L 326.643855 355.492980 L 327.209185 359.452829 L 327.929319 363.384942 L 328.773945 367.294751 L 329.618571 371.204560 L 330.463197 375.114369 L 331.307823 379.024178 L 331.459030 379.724120" fill="none" id="22" stroke="black" stroke-width="0.5" /><path d="M 473.253760 549.024520 L 469.565030 547.775887 L 469.307364 545.593229 L 473.220642 544.764820 L 477.133919 543.936411 L 481.047196 543.108003 L 484.960474 542.279594 L 488.831520 541.277547 L 492.688145 540.216207 L 496.544770 539.154867 L 500.364124 537.970647 L 504.160526 536.710753 L 507.956928 535.450858 L 511.753329 534.190963 L 515.549731 532.931069 L 519.346133 531.671174 L 523.142534 530.411279 L 526.938936 529.151385 L 530.735338 527.891490 L 534.531739 526.631595 L 538.328141 525.371701 L 542.124542 524.111806 L 545.920944 522.851911 L 549.717346 521.592017 L 553.468836 520.211105 L 557.168019 518.689249 L 560.867202 517.167394 L 564.566385 515.645539 L 568.265568 514.123683 L 571.964751 512.601828 L 575.663935 511.079972 L 579.396597 509.643502 L 583.144308 508.245407 L 586.892018 506.847313 L 590.639728 505.449219 L 594.387439 504.051125 L 598.135149 502.653030 L 601.882859 501.254936 L 605.630569 499.856842 L 609.378280 498.458748 L 613.125990 497.060653 L 616.873700 495.662559 L 620.621411 494.264465 L 624.369121 492.866371 L 628.116831 491.468276 L 631.851564 490.036684 L 635.562991 488.544939 L 639.274419 487.053193 L 642.985847 485.561448 L 646.697274 484.069702 L 650.408702 482.577956 L 654.120130 481.086211 L 657.831557 479.594465 L 661.542985 478.102720 L 665.254413 476.610974 L 668.965840 475.119229 L 672.677268 473.627483 L 676.388695 472.135737 L 680.100123 470.643992 L 683.802582 469.130328 L 687.495171 467.592540 L 691.187759 466.054753 L 694.880348 464.516965 L 698.572936 462.979177 L 702.265524 461.441389 L 705.958113 459.903602 L 709.650701 458.365814 L 713.343289 456.828026 L 717.035878 455.290239 L 720.728466 453.752451 L 724.421055 452.214663 L 728.113643 450.676875 L 731.806231 449.139088 L 735.498820 447.601300 L 739.191408 446.063512 L 742.883996 444.525725 L 746.576585 442.987937 L 750.269173 441.450149 L 753.961762 439.912361 L 757.654350 438.374574 L 761.346938 436.836786 L 765.039527 435.298998 L 768.732115 433.761211 L 772.424704 432.223423 L 776.117292 430.685635 L 779.819827 429.172090 L 783.528382 427.673218 L 787.236937 426.174345 L 790.945492 424.675472 L 794.654047 423.176600 L 798.362603 421.677727 L 802.071158 420.178855 L 805.779713 418.679982 L 809.488268 417.181110 L 813.196823 415.682237 L 816.905378 414.183364 L 820.613933 412.684492 L 824.322488 411.185619 L 828.031043 409.686747 L 831.739599 408.187874 L 835.448154 406.689002 L 839.156709 405.190129 L 842.865264 403.691256 L 846.573819 402.192384 L 850.282374 400.693511 L 853.990929 399.194639 L 857.699484 397.695766 L 861.408039 396.196894 L 865.116595 394.698021 L 868.825150 393.199149 L 872.533705 391.700276 L 876.242260 390.201403 L 879.950815 388.702531 L 883.659370 387.203658 L 887.367925 385.704786 L 891.076480 384.205913 L 894.785035 382.707041 L 898.493591 381.208168 L 902.202146 379.709295 L 905.910701 378.210423 L 909.619256 376.711550 L 913.327811 375.212678 L 917.036366 373.713805 L 920.773885 372.288933 L 924.514573 370.872157 L 928.255261 369.455381 L 931.995949 368.038605 L 935.736637 366.621829 L 939.477324 365.205053 L 943.218012 363.788276 L 946.958700 362.371500 L 950.699388 360.954724 L 954.469321 359.620215 L 958.264918 358.357899 L 962.060515 357.095583 L 965.856112 355.833266 L 969.651710 354.570950 L 973.447307 353.308634 L 977.242904 352.046318 L 981.038501 350.784002 L 984.108140 349.763120" fill="none" id="23" stroke="black" stroke-width="0.5" /><path d="M 776.832480 436.072500 L 773.707908 436.904527 L 777.016628 434.656779 L 780.618828 432.923254 L 784.236973 431.217667 L 787.855118 429.512080 L 791.518273 427.906696 L 795.196474 426.334806 L 798.874675 424.762915 L 802.552875 423.191025 L 806.231076 421.619135 L 809.909277 420.047244 L 813.587478 418.475354 L 817.265679 416.903464 L 820.943879 415.331573 L 824.622080 413.759683 L 828.300281 412.187793 L 831.978482 410.615902 L 835.656682 409.044012 L 839.334883 407.472122 L 843.047742 405.984376 L 846.766003 404.509746 L 850.484264 403.035116 L 854.202526 401.560486 L 857.927925 400.104792 L 861.694363 398.757964 L 865.460800 397.411135 L 869.227238 396.064306 L 872.993676 394.717477 L 876.760113 393.370648 L 880.526551 392.023819 L 884.292988 390.676990 L 888.059426 389.330162 L 891.825863 387.983333 L 895.381650 386.711830" fill="none" id="24" stroke="black" stroke-width="0.5" /><path d="M 473.028070 542.100630 L 476.966613 541.627577 L 480.664011 540.101392 L 484.361410 538.575206 L 488.058809 537.049021 L 491.756208 535.522835 L 495.453607 533.996650 L 499.204507 532.607305 L 502.956567 531.220928 L 506.708628 529.834551 L 510.460689 528.448173 L 514.212749 527.061796 L 517.964810 525.675419 L 521.716870 524.289042 L 525.468931 522.902665 L 529.220991 521.516288 L 533.017836 520.259378 L 536.824588 519.031111 L 540.631340 517.802845 L 544.438092 516.574578 L 548.244844 515.346311 L 552.051596 514.118045 L 555.858348 512.889778 L 559.665100 511.661511 L 563.471852 510.433245 L 567.278604 509.204978 L 571.085356 507.976711 L 574.892108 506.748445 L 578.698860 505.520178 L 582.505612 504.291911 L 586.312364 503.063645 L 587.256980 502.758860" fill="none" id="25" stroke="black" stroke-width="0.5" /></svg>