<?xml version="1.0" encoding="utf-8" ?>
<svg baseProfile="full" height="733.674325" version="1.1" viewBox="0,0,488.674325,733.674325" width="488.674325" xmlns="http://www.w3.org/2000/svg" xmlns:ev="http://www.w3.org/2001/xml-events" xmlns:xlink="http://www.w3.org/1999/xlink"><defs><style type="text/css"><![CDATA[
	.background { fill: white; }
	.line { stroke: firebrick; stroke-width: .1mm; }
	.blacksquare { fill: indigo; }
	.whitesquare { fill: white; }
]]></style></defs><rect class="background" height="100%" width="100%" x="0" y="0" /><path d="M 219.392163 3.644242 L 219.425162 8.637132 L 219.427163 13.630062 L 219.411163 18.622962 L 219.444163 23.615863 L 219.531162 28.607963 L 219.613163 33.599962 L 219.585162 38.592962 L 219.445163 43.583562 L 219.268163 48.573462 L 219.087163 53.563162 L 218.906162 58.552862 L 218.725163 63.542562 L 218.544162 68.532263 L 218.407162 73.523463 L 218.288162 78.514963 L 218.184163 83.506863 L 218.082163 88.498863 L 217.981163 93.490863 L 217.880163 98.482863 L 217.779163 103.475163 L 217.678163 108.467163 L 217.578163 113.459163 L 217.481163 118.451163 L 217.428163 123.443162 L 217.387163 128.436162 L 217.354163 133.429163 L 217.322163 138.422163 L 217.292163 143.415163 L 217.265163 148.408163 L 217.255163 153.401162 L 217.251162 158.394162 L 217.250163 163.387163 L 217.250163 168.380163 L 217.250163 173.373163 L 217.257162 178.366163 L 217.279163 183.359162 L 217.338163 188.351163 L 217.408163 193.344163 L 217.485163 198.336163 L 217.562162 203.329162 L 217.639162 208.321163 L 217.716162 213.314163 L 217.792163 218.306162 L 217.869163 223.298163 L 217.946163 228.291163 L 218.023163 233.283163 L 218.100163 238.276162 L 218.177163 243.268163 L 218.254163 248.260163 L 218.331163 253.253163 L 218.412162 258.245162 L 218.498163 263.237162 L 218.592163 268.230162 L 218.688163 273.222162 L 218.784163 278.214162 L 218.880163 283.206163 L 218.977162 288.198162 L 219.073162 293.190162 L 219.169162 298.182163 L 219.266163 303.174162 L 219.362163 308.166162 L 219.458163 313.158163 L 219.555162 318.150162 L 219.651162 323.142162 L 219.747163 328.134163 L 219.836163 333.127162 L 219.919162 338.119162 L 219.996162 343.111162 L 220.070163 348.104162 L 220.144162 353.096162 L 220.218163 358.089162 L 220.291163 363.081163 L 220.365162 368.074162 L 220.439163 373.066162 L 220.513162 378.059162 L 220.587163 383.051162 L 220.660163 388.043162 L 220.733162 393.036162 L 220.793162 398.029162 L 220.846162 403.021163 L 220.889162 408.014162 L 220.930162 413.007162 L 220.970163 418.000162 L 221.010163 422.993162 L 221.051163 427.985163 L 221.091162 432.978162 L 221.131163 437.971162 L 221.171163 442.964162 L 221.212163 447.957162 L 221.252162 452.950162 L 221.292163 457.942162 L 221.333163 462.935162 L 221.373163 467.928162 L 221.413162 472.921162 L 221.453163 477.914162 L 221.494163 482.907162 L 221.534163 487.900162 L 221.574162 492.892162 L 221.617163 497.885162 L 221.661163 502.878162 L 221.711163 507.871162 L 221.760163 512.863162 L 221.810163 517.856162 L 221.860163 522.849162 L 221.910163 527.842162 L 221.959163 532.834162 L 222.009163 537.827162 L 222.059163 542.820162 L 222.108162 547.813162 L 222.158163 552.806163 L 222.208163 557.798162 L 222.257162 562.791162 L 222.307163 567.784162 L 222.357163 572.777163 L 222.407162 577.769162 L 222.456163 582.762162 L 222.506163 587.755162 L 222.556162 592.748162 L 222.605163 597.740162 L 222.655163 602.733162 L 222.703163 607.726162 L 222.746162 612.719162 L 222.783163 617.711163 L 222.807163 622.704162 L 222.831163 627.697162 L 222.855163 632.690162 L 222.879163 637.683162 L 222.904163 642.676163 L 222.928163 647.669162 L 222.952163 652.662163 L 222.976163 657.655162 L 223.000163 662.648163 L 223.024163 667.641162 L 223.049162 672.634163 L 223.073162 677.627162 L 223.097162 682.620162 L 223.121162 687.613162 L 223.145162 692.606162 L 223.165163 697.599162 L 223.175162 702.592162 L 223.181162 707.585163 L 223.186162 712.578162 L 223.190163 717.571163 L 223.194163 722.564162 L 223.198162 727.557163 L 223.203163 732.550162" fill="none" id="0" stroke="#c583d9" stroke-width="0.5" /><path d="M 68.463163 245.180162 L 71.239763 249.263162 L 74.566862 252.902163 L 78.501463 255.879163 L 82.737262 258.423162 L 86.973562 260.966162 L 91.209763 263.508162 L 95.439163 266.062162 L 99.643163 268.658163 L 103.831163 271.279162 L 108.017163 273.904162 L 112.203163 276.528162 L 116.390163 279.151162 L 120.587163 281.758162 L 124.802163 284.336163 L 129.025162 286.901162 L 133.249163 289.464162 L 137.480163 292.015162 L 141.735163 294.526162 L 146.013162 296.997163 L 150.310163 299.437162 L 154.625163 301.843162 L 158.945163 304.241162 L 163.252162 306.662162 L 167.545163 309.107162 L 171.834163 311.560162 L 176.122163 314.013162 L 180.415163 316.460162 L 184.718163 318.888162 L 189.030163 321.300162 L 193.344163 323.707162 L 197.669162 326.096162 L 202.034163 328.411162 L 206.448162 330.631162 L 210.878163 332.819163 L 215.309163 335.004162 L 219.740162 337.189162 L 224.172163 339.374162 L 228.601163 341.563162 L 233.017163 343.779162 L 237.414163 346.032162 L 241.805162 348.297162 L 246.162162 350.626162 L 250.525162 352.945162 L 254.918162 355.206163 L 259.329162 357.431162" fill="none" id="1" stroke="#f375a0" stroke-width="0.5" /><path d="M 62.951362 246.904163 L 67.219463 249.309163 L 71.469463 251.745162 L 75.693562 254.227162 L 79.895763 256.745162 L 84.097763 259.264162 L 88.299663 261.782162 L 92.501663 264.301162 L 96.700363 266.825162 L 100.890163 269.364162 L 105.078163 271.905162 L 109.266163 274.447162 L 113.454163 276.989162 L 117.642163 279.531162 L 121.830163 282.072162 L 126.018163 284.614162 L 130.213163 287.144162 L 134.439163 289.623162 L 138.681162 292.074162 L 142.924162 294.522162 L 147.170163 296.966162 L 151.436162 299.375162 L 155.726163 301.741162 L 160.025162 304.089162 L 164.324162 306.437162 L 168.624163 308.786162 L 172.923163 311.134163 L 177.223163 313.483162 L 181.522163 315.831163 L 185.822163 318.180162 L 190.125163 320.520162 L 194.452163 322.819163 L 198.823162 325.031162 L 203.241163 327.148162 L 207.700163 329.176162 L 212.180162 331.159162 L 216.666163 333.127162 L 221.152163 335.096162 L 225.631163 337.080162 L 230.061162 339.171162 L 234.438163 341.373162 L 238.737163 343.721162 L 242.942162 346.234162 L 246.958163 349.040162 L 250.782162 352.102162 L 254.447163 355.353162" fill="none" id="2" stroke="#f375a0" stroke-width="0.5" /><path d="M 183.424162 607.589162 L 187.963163 605.527163 L 192.470163 603.398163 L 196.933163 601.176163 L 201.359162 598.882162 L 205.785163 596.588162 L 210.214163 594.298162 L 214.653163 592.031162 L 219.104163 589.784162 L 223.556162 587.541162 L 228.007162 585.296162 L 232.449162 583.034162 L 236.854163 580.698162 L 241.222162 578.297163 L 245.570163 575.857162 L 249.914163 573.411162 L 254.257162 570.964162 L 258.601162 568.517162 L 262.945162 566.071163 L 267.288162 563.624163 L 271.632162 561.177163 L 275.975162 558.731162 L 280.319163 556.284162 L 284.663162 553.837162 L 289.006162 551.391162 L 293.350162 548.944162 L 297.693162 546.497162 L 302.037162 544.051163 L 306.381162 541.604163 L 310.724162 539.157163 L 315.068162 536.710163 L 319.411162 534.264162 L 323.755162 531.817162 L 328.104162 529.380162 L 332.470162 526.974162 L 336.853162 524.598162 L 341.241162 522.232162 L 345.629162 519.866162 L 350.017162 517.500162 L 354.405162 515.134163 L 358.788162 512.759163 L 363.150162 510.345162 L 367.477162 507.868162 L 371.772162 505.337162 L 376.048162 502.776162 L 380.322162 500.208162 L 384.598163 497.645162 L 388.892162 495.113162 L 393.220162 492.639162 L 397.555162 490.177162 L 401.890162 487.716162 L 406.223163 485.249162 L 410.522162 482.725162 L 414.773162 480.122163 L 418.997163 477.473163 L 423.190162 474.777162 L 427.361162 472.046162" fill="none" id="3" stroke="#9de993" stroke-width="0.5" /><path d="M 263.677162 561.815162 L 267.425162 561.120162 L 271.084162 560.057163 L 274.599162 558.590163 L 277.970162 556.807163 L 281.342162 555.025162 L 284.719162 553.252162 L 288.105162 551.497162 L 291.495162 549.750162 L 294.885162 548.003163 L 298.275162 546.255162 L 301.665162 544.508163 L 305.055162 542.761162 L 308.444163 541.011162 L 311.823162 539.242162 L 315.179162 537.431163 L 318.523162 535.597162 L 321.855162 533.740162 L 325.183162 531.878163 L 328.511162 530.016162 L 331.840162 528.154162 L 335.168162 526.292163 L 338.497163 524.430162 L 341.825162 522.568162 L 345.154162 520.706163 L 348.482162 518.844162 L 351.811162 516.982162 L 355.139162 515.120162 L 358.467162 513.258163 L 361.796162 511.396163 L 365.124162 509.534162" fill="none" id="4" stroke="#9de993" stroke-width="0.5" /><path d="M 71.143863 444.109162 L 75.225163 446.858162 L 79.244163 449.697162 L 83.164963 452.671162 L 87.021363 455.727162 L 90.876163 458.786162 L 94.730863 461.845162 L 98.585663 464.904162 L 102.440162 467.962162 L 106.295163 471.021163 L 110.150163 474.080162 L 114.013163 477.127162 L 117.899163 480.147162 L 121.794162 483.153162 L 125.690162 486.159162 L 129.627162 489.112162 L 133.606163 492.007162 L 137.596162 494.887162 L 141.599163 497.749162 L 145.633162 500.567162 L 149.690163 503.352162 L 153.751162 506.132162 L 157.811162 508.912162 L 161.871162 511.692162 L 165.931162 514.472162 L 169.992163 517.252162 L 174.052163 520.033163 L 178.112163 522.813162 L 182.165163 525.603162 L 186.180162 528.449162 L 190.140163 531.369163 L 194.098163 534.294162 L 198.047163 537.230163 L 201.962163 540.212162 L 205.846162 543.233162 L 209.676163 546.322162 L 213.471162 549.455163" fill="none" id="5" stroke="#ad5ba7" stroke-width="0.5" /><path d="M 72.211163 455.628162 L 75.490563 459.345162 L 78.875263 462.967162 L 82.373362 466.478162 L 86.048963 469.803162 L 89.831763 473.006162 L 93.684263 476.125162 L 97.623463 479.134163 L 101.583163 482.116162 L 105.544162 485.096162 L 109.505163 488.076162 L 113.460163 491.064162 L 117.400163 494.072162 L 121.328163 497.096162 L 125.253163 500.123162 L 129.182163 503.145162 L 133.126162 506.147162 L 137.089163 509.125162 L 141.075163 512.071163 L 145.094163 514.973162 L 149.135163 517.844162 L 153.197163 520.684162 L 157.274163 523.504163 L 161.354163 526.319162 L 165.434163 529.134163 L 169.514162 531.949162 L 173.584163 534.778163 L 177.626162 537.648163 L 181.637163 540.559162 L 185.639162 543.484163 L 189.642163 546.409162 L 193.648163 549.328162 L 197.675162 552.218162 L 201.733162 555.065162 L 205.801163 557.897162 L 209.869163 560.729163 L 213.945163 563.550162 L 218.054163 566.322162 L 222.203163 569.035162 L 226.365162 571.726162 L 230.554163 574.376162 L 234.781162 576.966162 L 239.004163 579.560162 L 243.159163 582.263163 L 247.273163 585.029162 L 251.383162 587.799162 L 255.510163 590.546162 L 259.712162 593.174162 L 263.959162 595.731162" fill="none" id="6" stroke="#58f2c3" stroke-width="0.5" /><path d="M 33.219062 442.164162 L 36.998062 445.375162 L 40.839462 448.511162 L 44.779263 451.523162 L 48.749962 454.494162 L 52.731662 457.450162 L 56.742462 460.367162 L 60.766262 463.265162 L 64.778963 466.179162 L 68.742663 469.160162 L 72.700063 472.148162 L 76.657363 475.137162 L 80.577663 478.174162 L 84.482363 481.231162 L 88.376563 484.302162 L 92.251663 487.396163 L 96.118863 490.501162 L 99.965763 493.630162 L 103.759163 496.824162 L 107.535162 500.040162 L 111.309162 503.257162 L 115.083163 506.474162 L 118.857163 509.690162 L 122.631163 512.907163 L 126.430163 516.096162 L 130.272163 519.231162 L 134.156162 522.315162 L 138.074162 525.354163 L 142.006163 528.377162 L 145.938163 531.399162 L 149.869163 534.421162 L 153.801163 537.444162 L 157.723163 540.478162 L 161.629163 543.534162 L 165.500163 546.634163 L 169.317162 549.799162 L 173.102162 553.004163 L 176.884163 556.212162 L 180.665163 559.420162 L 184.447163 562.628163 L 188.231163 565.833162 L 192.030163 569.021162 L 195.849163 572.184162 L 199.687162 575.325163 L 203.550162 578.435162 L 207.422163 581.534162 L 211.293162 584.632162 L 215.163162 587.734163 L 219.016163 590.856162 L 222.841162 594.012162 L 226.643163 597.196163 L 230.398163 600.436163 L 234.137163 603.694162 L 237.876162 606.952162 L 241.614162 610.209162 L 245.353162 613.467162 L 249.097162 616.720163 L 252.869163 619.939162 L 256.697162 623.092162 L 260.550162 626.213162 L 264.460162 629.264162 L 268.384163 632.297163 L 272.307163 635.330163 L 276.231162 638.363162 L 280.154162 641.396162 L 284.078162 644.428162 L 288.002162 647.461163 L 291.923162 650.497162 L 295.828162 653.554162 L 299.688162 656.668162 L 303.518162 659.817162" fill="none" id="7" stroke="#c94e76" stroke-width="0.5" /><path d="M 171.707163 176.510163 L 176.519162 175.437162 L 181.300162 174.233162 L 186.031162 172.844163 L 190.716162 171.310163 L 195.399163 169.768163 L 200.082163 168.225163 L 204.764162 166.682163 L 209.447163 165.139162 L 214.129163 163.596162 L 218.812162 162.054163 L 223.491163 160.498163 L 228.159163 158.914163 L 232.825163 157.322163 L 237.491163 155.728162 L 242.156162 154.134163 L 246.822163 152.540163 L 251.489162 150.950163 L 256.169162 149.399163 L 260.865162 147.899163 L 265.566162 146.413162 L 270.267162 144.927163 L 274.968162 143.442162 L 279.669162 141.956163 L 284.370162 140.470163 L 289.069163 138.976163 L 293.753162 137.439163 L 298.423162 135.859162 L 303.082162 134.244163 L 307.733162 132.608162 L 312.383162 130.969163 L 317.033163 129.330163 L 321.683162 127.692163 L 326.332162 126.053162 L 330.982162 124.414163 L 335.632162 122.776162 L 340.282162 121.137163 L 344.932163 119.498163 L 349.582162 117.859163 L 354.232162 116.221163 L 358.877162 114.569163 L 363.510162 112.880163 L 368.132162 111.167163 L 372.755162 109.453163 L 377.381162 107.747163 L 382.016162 106.067163 L 386.664162 104.422162 L 391.322162 102.807163 L 395.995162 101.234163 L 400.685162 99.716163 L 405.393162 98.250463 L 410.100162 96.784762 L 414.807163 95.318963 L 419.514162 93.852362 L 424.216162 92.369863 L 428.898162 90.823063 L 433.560162 89.220463 L 438.206163 87.569862 L 442.840162 85.886063 L 447.455162 84.151363 L 452.069163 82.414663 L 456.683162 80.677863 L 461.297162 78.941163 L 465.912162 77.204363 L 470.526162 75.467663 L 475.140162 73.730863" fill="none" id="8" stroke="#57b870" stroke-width="0.5" /><path d="M 207.203163 371.628162 L 211.954162 370.240162 L 216.671163 368.741162 L 221.337163 367.090162 L 225.953163 365.302162 L 230.513162 363.378162 L 235.036163 361.366162 L 239.520162 359.272162 L 243.983162 357.131162 L 248.443162 354.985163 L 252.903163 352.840162 L 257.364162 350.694163 L 261.865162 348.634163 L 266.407162 346.669162 L 270.980162 344.775162 L 275.567162 342.915162 L 280.156162 341.060162 L 284.745162 339.206163 L 289.334162 337.351162 L 293.919162 335.486162 L 298.489162 333.586163 L 303.049162 331.661162 L 307.597162 329.708162 L 312.139162 327.739162 L 316.679162 325.769162 L 321.220162 323.800162 L 325.761162 321.830162 L 330.301162 319.860163 L 334.842162 317.890162 L 339.383162 315.920163 L 343.923162 313.950162 L 348.464162 311.980162 L 353.001162 310.000162 L 357.514162 307.969162 L 362.005162 305.887162 L 366.493162 303.800162 L 370.981162 301.712162 L 375.468162 299.624162 L 379.956163 297.537162 L 384.444163 295.449162 L 388.932163 293.362162 L 393.421162 291.276162 L 397.917162 289.206163 L 402.426162 287.165162 L 406.940162 285.134163 L 411.453162 283.103162 L 415.965162 281.067162 L 420.463162 279.003162 L 424.943162 276.897162 L 429.421162 274.788162 L 433.898162 272.679162 L 438.371162 270.560162 L 442.820162 268.389162 L 447.255162 266.192162 L 451.672162 263.958162 L 456.076162 261.699162 L 460.479162 259.439162 L 464.885162 257.183162 L 469.311162 254.968163 L 473.751162 252.780163 L 478.192162 250.594163 L 482.636162 248.416163" fill="none" id="9" stroke="#d271bb" stroke-width="0.5" /><path d="M 418.447162 56.533963 L 418.779162 61.476262 L 419.147162 66.415863 L 419.579162 71.350363 L 419.979162 76.287363 L 420.257162 81.232863 L 420.451162 86.182462 L 420.492162 91.135563 L 420.412162 96.088262 L 420.246162 101.039163 L 420.073162 105.989163 L 419.947162 110.941163 L 419.872163 115.893163 L 419.818162 120.846163 L 419.803162 125.800162 L 419.802162 130.753163 L 419.802162 135.706163 L 419.802162 140.660163 L 419.802162 145.613163 L 419.802162 150.566163 L 419.802162 155.520162 L 419.802162 160.473163 L 419.802162 165.426163 L 419.802162 170.380163 L 419.802162 175.333163 L 419.806162 180.286163 L 419.833162 185.239162 L 419.879162 190.193162 L 419.930162 195.146163 L 419.981162 200.099163 L 420.032162 205.052163 L 420.083162 210.005163 L 420.134163 214.958163 L 420.180162 219.911163 L 420.203162 224.864162 L 420.204162 229.818162 L 420.200162 234.771163 L 420.195162 239.724163 L 420.191162 244.677163 L 420.186162 249.631163 L 420.177162 254.584163 L 420.122163 259.537162 L 420.025162 264.490162 L 419.922162 269.442162 L 419.819163 274.394162 L 419.715162 279.346162 L 419.612162 284.298162 L 419.509163 289.251162 L 419.401162 294.203162 L 419.279162 299.155162 L 419.148162 304.106162 L 419.017162 309.058162 L 418.886162 314.009163 L 418.752162 318.961163 L 418.605162 323.912162 L 418.446162 328.863162 L 418.284162 333.814162 L 418.123162 338.764162 L 417.961163 343.715162 L 417.799162 348.666162 L 417.638162 353.616162 L 417.476162 358.567162 L 417.314162 363.518162 L 417.153162 368.468162 L 416.988162 373.419162 L 416.813162 378.369162 L 416.626162 383.319163 L 416.439162 388.269162 L 416.252162 393.218162 L 416.065162 398.168162 L 415.877162 403.118162 L 415.690162 408.068162 L 415.502162 413.018162 L 415.307163 417.967162 L 415.093162 422.916162 L 414.877162 427.864162 L 414.661162 432.813162 L 414.445162 437.762162 L 414.229162 442.710162 L 414.013162 447.659162 L 413.797162 452.607162 L 413.580162 457.556162 L 413.364162 462.505162 L 413.148162 467.453162 L 412.932163 472.402162 L 412.716162 477.350162 L 412.500162 482.299162 L 412.284162 487.248162 L 412.068162 492.196162 L 411.851162 497.145162 L 411.635162 502.093162 L 411.419162 507.042162 L 411.203162 511.991162" fill="none" id="10" stroke="#3d8e43" stroke-width="0.5" /><path d="M 417.250162 307.400162 L 417.931162 312.280162 L 418.503162 317.175162 L 418.914162 322.085162 L 419.209162 327.004162 L 419.341162 331.930162 L 419.348163 336.858162 L 419.339162 341.785162 L 419.272162 346.712162 L 419.048162 351.635162 L 418.762162 356.554162 L 418.469162 361.473163 L 418.177162 366.392162 L 417.884163 371.311162 L 417.599162 376.230162 L 417.335162 381.151162 L 417.084162 386.072162 L 416.835162 390.994162 L 416.586163 395.915162 L 416.336163 400.836163 L 416.087162 405.758162 L 415.837162 410.679162 L 415.588162 415.600162 L 415.338162 420.522162 L 415.098163 425.443162 L 414.900162 430.367162 L 414.757162 435.293162 L 414.623162 440.218162 L 414.526162 445.145162 L 414.458162 450.072162 L 414.401162 455.000162 L 414.374162 459.927162 L 414.364162 464.855162 L 414.353162 469.782162 L 414.343162 474.710162 L 414.332162 479.638162 L 414.321162 484.565162" fill="none" id="11" stroke="#3d8e43" stroke-width="0.5" /><path d="M 69.250563 260.132162 L 72.984563 263.402162 L 76.813263 266.560162 L 80.745063 269.589162 L 84.821463 272.421162 L 88.927763 275.208162 L 93.088763 277.914162 L 97.307063 280.529162 L 101.533163 283.133162 L 105.757163 285.738162 L 109.974163 288.356162 L 114.178162 290.994162 L 118.377163 293.642162 L 122.574162 296.291162 L 126.776162 298.932163 L 130.996162 301.545163 L 135.242163 304.116162 L 139.511163 306.648162 L 143.792163 309.158163 L 148.080163 311.659162 L 152.378163 314.140162 L 156.692162 316.595162 L 161.013162 319.037162 L 165.334163 321.479162 L 169.657162 323.919162 L 173.993163 326.333162 L 178.360163 328.692162 L 182.745162 331.018162 L 187.132162 333.339162 L 191.519162 335.660162 L 195.907162 337.981162 L 200.294162 340.302162 L 204.681162 342.622163 L 209.069163 344.944163 L 213.452163 347.272162 L 217.819163 349.630162 L 222.162162 352.034162 L 226.467163 354.503162 L 230.754163 357.004162 L 235.029163 359.526162 L 239.265163 362.114162 L 243.479163 364.736162 L 247.690163 367.363162 L 251.896163 369.998162" fill="none" id="12" stroke="#00d4db" stroke-width="0.5" /><path d="M 17.124563 248.746162 L 21.767663 250.470163 L 26.364563 252.313163 L 30.898263 254.306162 L 35.355262 256.465162 L 39.774662 258.701162 L 44.172462 260.978162 L 48.522962 263.345162 L 52.845062 265.763162 L 57.149362 268.213162 L 61.421262 270.719162 L 65.664263 273.273162 L 69.878163 275.875162 L 74.071263 278.511162 L 78.226263 281.206163 L 82.371263 283.917162 L 86.519163 286.623162 L 90.707863 289.265162 L 94.958562 291.807163 L 99.248362 294.282162 L 103.550162 296.737162 L 107.838163 299.213162 L 112.094163 301.746162 L 116.311163 304.343162 L 120.508163 306.974162 L 124.700163 309.611162 L 128.892163 312.248162 L 133.084163 314.885162 L 137.277163 317.521163 L 141.479163 320.143162 L 145.697163 322.737162 L 149.934163 325.302162 L 154.189163 327.837162 L 158.481163 330.308162 L 162.801163 332.729162 L 167.124163 335.147162 L 171.446163 337.565162 L 175.766163 339.987162 L 180.074162 342.429162 L 184.367163 344.899162 L 188.654163 347.378162 L 192.934163 349.870162 L 197.190163 352.404162 L 201.418162 354.982162 L 205.627162 357.593162 L 209.823162 360.223163 L 214.020162 362.853162 L 218.217163 365.482162 L 222.416163 368.108162 L 226.627162 370.715162 L 230.855163 373.295163 L 235.086163 375.869162 L 239.322163 378.435162 L 243.575163 380.972162 L 247.842163 383.487162 L 252.107163 386.003162 L 256.365162 388.534162 L 260.600162 391.101162 L 264.835162 393.669162 L 269.066162 396.243162 L 273.243162 398.905162 L 277.385162 401.619162 L 281.488162 404.393162 L 285.581163 407.181162 L 289.660162 409.991162" fill="none" id="13" stroke="#d55969" stroke-width="0.5" /><path d="M 0.337162 48.384362 L 5.135052 49.721463 L 9.860143 51.295862 L 14.482662 53.148162 L 18.953663 55.343062 L 23.361163 57.662962 L 27.721663 60.070262 L 32.080362 62.480762 L 36.437762 64.893763 L 40.780362 67.333063 L 45.084862 69.839063 L 49.378363 72.363962 L 53.651362 74.923363 L 57.912862 77.501863 L 62.185762 80.061363 L 66.487662 82.571863 L 70.798063 85.067763 L 75.126063 87.532563 L 79.497263 89.920263 L 83.881363 92.284363 L 88.266163 94.647263 L 92.650863 97.010063 L 97.035663 99.372863 L 101.419162 101.738163 L 105.793163 104.120163 L 110.150163 106.534163 L 114.497163 108.965163 L 118.843163 111.400163 L 123.188163 113.834163 L 127.535162 116.266163 L 131.893163 118.678162 L 136.269162 121.056162 L 140.662162 123.404162 L 145.067162 125.729163 L 149.479163 128.041162 L 153.892163 130.351163 L 158.308163 132.654163 L 162.733162 134.940163 L 167.165163 137.213163 L 171.598163 139.484162 L 176.032162 141.755163 L 180.465162 144.025162 L 184.898163 146.296163 L 189.332163 148.566163 L 193.765163 150.837163 L 198.198162 153.107163 L 202.631163 155.378163 L 207.065163 157.648163 L 211.498163 159.919162 L 215.931162 162.189163 L 220.364162 164.460162 L 224.797163 166.732163 L 229.220163 169.022163 L 233.620162 171.356163 L 238.009163 173.712163 L 242.396163 176.070163 L 246.784163 178.428163 L 251.171163 180.785163 L 255.558163 183.144162 L 259.934162 185.524163 L 264.285162 187.948162 L 268.620162 190.400162" fill="none" id="14" stroke="#64e4ff" stroke-width="0.5" /><path d="M 68.305663 301.731162 L 68.794863 306.667162 L 69.238263 311.607162 L 69.621763 316.552162 L 69.936763 321.502162 L 70.117563 326.459162 L 70.160162 331.419162 L 70.163963 336.379162 L 70.163963 341.339162 L 70.163963 346.300162 L 70.163963 351.260162 L 70.173963 356.220162 L 70.222262 361.180162 L 70.311063 366.139162 L 70.426663 371.098163 L 70.570363 376.056162 L 70.737463 381.014162 L 70.935462 385.970162 L 71.172363 390.924162 L 71.424963 395.878162 L 71.678763 400.832162 L 71.949663 405.785162 L 72.257762 410.735163 L 72.587963 415.684162 L 72.931863 420.633162 L 73.307462 425.579162 L 73.700663 430.523162 L 74.082963 435.469162 L 74.428263 440.417162 L 74.747962 445.367162 L 75.044063 450.318162 L 75.284563 455.272162 L 75.509062 460.227162 L 75.732563 465.183162 L 75.956163 470.138162 L 76.179663 475.093162" fill="none" id="15" stroke="#e68e54" stroke-width="0.5" /><path d="M 67.612763 63.360762 L 68.165863 68.314463 L 68.608263 73.279263 L 68.948063 78.252163 L 69.259763 83.226663 L 69.343563 88.210363 L 69.350463 93.194862 L 69.353662 98.179363 L 69.356863 103.164163 L 69.359963 108.148163 L 69.363163 113.133163 L 69.366363 118.117163 L 69.369563 123.102163 L 69.372763 128.086163 L 69.375962 133.071163 L 69.379163 138.055162 L 69.382362 143.040163 L 69.385563 148.024163 L 69.388762 153.008162 L 69.391963 157.993163 L 69.395163 162.977162 L 69.398363 167.962163 L 69.401563 172.946163 L 69.404363 177.931162 L 69.397463 182.915163 L 69.360962 187.900162 L 69.313862 192.884163 L 69.266163 197.868163 L 69.218363 202.852162 L 69.170663 207.837163 L 69.127163 212.821163 L 69.100863 217.805162 L 69.093563 222.790163 L 69.095263 227.774163 L 69.114163 232.759163 L 69.170963 237.743163 L 69.278762 242.726163 L 69.443162 247.708163 L 69.632663 252.689163 L 69.824562 257.670163 L 70.016463 262.650162 L 70.208363 267.631162 L 70.400263 272.612162 L 70.592163 277.593162 L 70.783963 282.573162 L 70.975863 287.554162 L 71.167763 292.535162 L 71.359662 297.516162 L 71.551563 302.497163 L 71.743463 307.477162 L 71.934363 312.458162 L 72.118963 317.439162 L 72.291763 322.421162 L 72.456663 327.403162 L 72.619863 332.384163 L 72.783062 337.366162 L 72.946162 342.348163 L 73.109363 347.330162 L 73.272563 352.312162 L 73.435663 357.293162 L 73.598863 362.275162 L 73.762062 367.257162 L 73.927163 372.239162 L 74.104363 377.220162 L 74.304462 382.201162 L 74.519063 387.180162 L 74.736463 392.160162 L 74.953862 397.140162 L 75.171363 402.120162 L 75.388762 407.099162 L 75.606163 412.079162 L 75.823663 417.059162 L 76.041063 422.039162 L 76.258463 427.018162 L 76.475863 431.998162 L 76.693363 436.978162 L 76.910763 441.957162 L 77.128163 446.937162 L 77.348063 451.917162 L 77.584163 456.896163 L 77.845863 461.873162 L 78.113863 466.851162 L 78.382163 471.828162 L 78.651663 476.805162 L 78.932862 481.782162 L 79.245763 486.756162 L 79.570863 491.730162 L 79.897063 496.704162 L 80.223163 501.678162 L 80.549963 506.651162 L 80.888863 511.624162 L 81.293762 516.592162 L 81.719063 521.559162 L 82.145263 526.525162 L 82.571463 531.491162 L 82.997563 536.457162 L 83.423763 541.424162" fill="none" id="16" stroke="#54aeff" stroke-width="0.5" /><path d="M 26.410263 87.317363 L 31.270063 86.523463 L 36.133962 85.754663 L 41.004662 85.030363 L 45.884462 84.370063 L 50.744862 83.579763 L 55.588562 82.692963 L 60.426063 81.772263 L 65.251463 80.790762 L 70.073463 79.792462 L 74.895163 78.792663 L 79.716863 77.792963 L 84.538563 76.793063 L 89.351063 75.750062 L 94.152462 74.657162 L 98.951663 73.554163 L 103.751163 72.451262 L 108.550162 71.348263 L 113.343163 70.220063 L 118.125163 69.046163 L 122.904162 67.857663 L 127.683163 66.668963 L 132.461163 65.480362 L 137.240162 64.291663 L 142.019162 63.102962 L 146.797163 61.914262 L 151.576163 60.725562 L 156.354163 59.536963 L 161.133162 58.348262 L 165.912162 57.159562 L 170.690163 55.970862 L 175.469163 54.782162 L 180.248163 53.593562 L 185.026162 52.404863 L 189.805162 51.216162 L 194.584163 50.027462 L 199.362163 48.838763 L 204.141163 47.650163 L 208.919162 46.461462 L 213.698162 45.272762 L 218.477162 44.084062 L 223.254163 42.890862 L 228.025162 41.671662 L 232.787162 40.417262 L 237.542163 39.138962 L 242.286163 37.818262 L 247.026162 36.483062 L 251.766163 35.147962 L 256.506162 33.812762 L 261.245162 32.477663 L 265.985163 31.142963 L 270.727162 29.813863 L 275.473163 28.500163 L 280.220162 27.193863 L 284.968162 25.887563 L 289.716162 24.581163 L 294.464162 23.274863 L 299.212162 21.969363 L 303.962162 20.672463 L 308.720162 19.401863 L 313.480162 18.139563 L 318.239162 16.877163 L 322.999162 15.614862 L 327.759163 14.352562 L 332.518162 13.090162 L 337.278162 11.827863 L 342.038162 10.565463" fill="none" id="17" stroke="#eed973" stroke-width="0.5" /><path d="M 237.408163 31.211163 L 241.576163 33.903762 L 245.848163 36.427662 L 250.299162 38.601962 L 254.921163 40.411062 L 259.561162 42.168862 L 264.236162 43.836562 L 268.923162 45.467862 L 273.612162 47.094562 L 278.301162 48.721262 L 282.989162 50.348062 L 287.678162 51.974762 L 292.367162 53.601462 L 297.056162 55.228262 L 301.745162 56.854962 L 306.433162 58.481662 L 311.122163 60.108362 L 315.811162 61.735163 L 320.500162 63.361863 L 325.190162 64.985363 L 329.892162 66.574263 L 334.617162 68.090663 L 339.345162 69.600963 L 344.072162 71.111362 L 348.800162 72.621662 L 353.528162 74.131963 L 358.255162 75.643863 L 362.977162 77.171963 L 367.691162 78.721663 L 372.405162 80.275663 L 377.114162 81.843563 L 381.809162 83.452663 L 386.497163 85.079963 L 391.185162 86.709563 L 395.873162 88.339263 L 400.561162 89.968863 L 405.248162 91.598562 L 409.936162 93.228163 L 414.621162 94.865963 L 419.298162 96.527963 L 423.966162 98.212862 L 428.623162 99.927163 L 433.252162 101.717163 L 437.838162 103.614163 L 442.381162 105.611163 L 446.895162 107.674163 L 451.391162 109.774163 L 455.885162 111.881163 L 460.382162 113.980163 L 464.895162 116.046163 L 469.418162 118.088163 L 473.943162 120.126163 L 478.468162 122.165163 L 482.993162 124.204163 L 487.518162 126.243163" fill="none" id="18" stroke="#008bd4" stroke-width="0.5" /><path d="M 246.573162 13.305663 L 246.912162 18.269063 L 247.141163 23.238762 L 247.308163 28.211063 L 247.451163 33.183862 L 247.455163 38.158862 L 247.452163 43.133862 L 247.402163 48.108562 L 247.262163 53.081562 L 247.099163 58.053962 L 246.935163 63.026263 L 246.771163 67.998563 L 246.616163 72.971063 L 246.508162 77.944862 L 246.415163 82.919063 L 246.361163 87.893663 L 246.349163 92.868662 L 246.346162 97.843663 L 246.343163 102.819163 L 246.340162 107.794162 L 246.337163 112.769163 L 246.334163 117.744163 L 246.331163 122.719163 L 246.328163 127.694163 L 246.325163 132.669162 L 246.332163 137.644162 L 246.368163 142.618163 L 246.423163 147.593163 L 246.481163 152.568162 L 246.539163 157.542163 L 246.597162 162.517163 L 246.655163 167.492163 L 246.714163 172.466162 L 246.772163 177.441163 L 246.830163 182.416163 L 246.888162 187.390163 L 246.946163 192.365162 L 247.004163 197.340162 L 247.063163 202.314163 L 247.121162 207.289163 L 247.179163 212.264162 L 247.237163 217.238163 L 247.295163 222.213163 L 247.354163 227.188163 L 247.412162 232.162162 L 247.482163 237.137163 L 247.580163 242.111163 L 247.700163 247.084163 L 247.825163 252.058163 L 247.949162 257.031162 L 248.074162 262.005162 L 248.199162 266.978162 L 248.323162 271.952162 L 248.448162 276.925162 L 248.573162 281.898162 L 248.697163 286.872163 L 248.822163 291.845162 L 248.953163 296.819163 L 249.099163 301.792162 L 249.254163 306.764162 L 249.411163 311.737162 L 249.567162 316.709162 L 249.731163 321.681162 L 249.907162 326.653162 L 250.090162 331.625162 L 250.273163 336.597162 L 250.457163 341.568162 L 250.640163 346.540162 L 250.823162 351.511162 L 251.007162 356.483162 L 251.190163 361.455162 L 251.373163 366.426162 L 251.557163 371.398162 L 251.740162 376.370162 L 251.919162 381.341162 L 252.085162 386.314162 L 252.246162 391.286162 L 252.408163 396.258162 L 252.569163 401.231162 L 252.730163 406.203162 L 252.891163 411.176162 L 253.053163 416.148162 L 253.214163 421.120162 L 253.375163 426.093162 L 253.536163 431.065162 L 253.698162 436.038162 L 253.859162 441.010162 L 254.020162 445.982162 L 254.181162 450.955162 L 254.342163 455.927162 L 254.503163 460.899162 L 254.646163 465.872163 L 254.758162 470.846162 L 254.847162 475.820162 L 254.897163 480.795163 L 254.920163 485.770162" fill="none" id="19" stroke="#fdb968" stroke-width="0.5" /><path d="M 244.904163 0.337162 L 245.948162 5.225822 L 246.713163 10.164882 L 247.256163 15.133062 L 247.750163 20.107662 L 248.090162 25.092263 L 248.255163 30.088563 L 248.412162 35.085062 L 248.569163 40.081663 L 248.726163 45.078162 L 248.883162 50.074762 L 249.040163 55.071262 L 249.197163 60.067763 L 249.334163 65.064963 L 249.428163 70.062963 L 249.489162 75.061563 L 249.543162 80.060263 L 249.565163 85.059263 L 249.565163 90.058263 L 249.565163 95.057263 L 249.565163 100.056263 L 249.545163 105.055163 L 249.497163 110.054163 L 249.432163 115.052163 L 249.366163 120.051163 L 249.301163 125.050162 L 249.235163 130.048163 L 249.169162 135.047163 L 249.103162 140.045163 L 249.038162 145.044162 L 248.972162 150.042163 L 248.906162 155.041163 L 248.841162 160.040163 L 248.775162 165.038162 L 248.709163 170.037162 L 248.644162 175.035163 L 248.578163 180.034163 L 248.512163 185.032162 L 248.446163 190.031162 L 248.381163 195.030163 L 248.315163 200.028163 L 248.249163 205.027163 L 248.184163 210.025162 L 248.118163 215.024163 L 248.051163 220.022163 L 247.968163 225.021163 L 247.874163 230.019162 L 247.778163 235.017163 L 247.682163 240.015163 L 247.586163 245.013162 L 247.490162 250.011163 L 247.393163 255.009163 L 247.297163 260.007162 L 247.201163 265.005162 L 247.105163 270.004162 L 247.009163 275.002162 L 246.913162 280.000162 L 246.817162 284.998162 L 246.721162 289.996162 L 246.625163 294.994162 L 246.529163 299.992162 L 246.433163 304.990162 L 246.344163 309.988162 L 246.289163 314.987162 L 246.245162 319.986162 L 246.204162 324.985163 L 246.163162 329.984162 L 246.121162 334.982162 L 246.080163 339.981162 L 246.039163 344.980162 L 245.997163 349.979162 L 245.956163 354.978162 L 245.915163 359.977162 L 245.861163 364.975162 L 245.793162 369.974162 L 245.719163 374.972162 L 245.644162 379.971162 L 245.570163 384.969162 L 245.495162 389.968162 L 245.420163 394.966162 L 245.346162 399.964162 L 245.271163 404.963162 L 245.196163 409.961163 L 245.123163 414.960162 L 245.060163 419.958162 L 245.014162 424.957162 L 244.975163 429.956163 L 244.936162 434.955162 L 244.896163 439.954162 L 244.857163 444.953162 L 244.818162 449.952162 L 244.778163 454.950162 L 244.739162 459.949162 L 244.700163 464.948162 L 244.660163 469.947162 L 244.621162 474.946162 L 244.582163 479.945162 L 244.545163 484.943162 L 244.532162 489.942162 L 244.532162 494.941162 L 244.536163 499.940162 L 244.540163 504.939162 L 244.545163 509.938162 L 244.549162 514.937162 L 244.553163 519.937162 L 244.557163 524.936163 L 244.561162 529.935162 L 244.565163 534.934162 L 244.569163 539.933162 L 244.573162 544.932163 L 244.577163 549.931163 L 244.581163 554.930162 L 244.585162 559.929162 L 244.589163 564.928162" fill="none" id="20" stroke="#6f73bc" stroke-width="0.5" /><path d="M 33.439563 495.266162 L 34.714662 494.877162 L 35.989762 494.489162 L 37.264862 494.100162 L 38.539963 493.711163 L 39.815162 493.323162 L 41.090263 492.934162 L 42.367462 492.552162 L 43.644662 492.170163 L 44.911762 491.756162 L 46.178863 491.342162 L 47.443962 490.922162 L 48.709062 490.502162 L 49.955362 490.029162 L 51.201763 489.556162 L 52.444463 489.074162 L 53.687162 488.591162 L 54.921363 488.087162 L 56.155562 487.584162 L 57.388662 487.077162 L 58.621762 486.571162 L 59.854062 486.063162 L 61.086362 485.554162 L 62.318962 485.046162 L 63.551562 484.539162 L 64.784063 484.031162 L 66.016663 483.523162 L 67.249263 483.016162 L 68.481763 482.508162 L 69.714363 482.000162 L 70.946963 481.492162" fill="none" id="21" stroke="#bee481" stroke-width="0.5" /><path d="M 60.315863 486.701162 L 61.892463 486.110163 L 63.469062 485.519162 L 65.040863 484.915162 L 66.612763 484.312162 L 68.177763 483.691162 L 69.742763 483.069163 L 71.302863 482.436162 L 72.862863 481.802162 L 74.421762 481.166162 L 75.980663 480.530162 L 77.539563 479.894162 L 79.098562 479.257162 L 80.657463 478.621162 L 82.216363 477.985163 L 83.775362 477.349162 L 85.334363 476.713162 L 86.893263 476.076162 L 88.452263 475.440162 L 90.011163 474.804162 L 91.570163 474.168162 L 93.129163 473.532162 L 94.688063 472.896163 L 96.247062 472.259163 L 97.805963 471.623162 L 99.364963 470.987162 L 100.924163 470.351162 L 102.483163 469.715162 L 104.042163 469.079162 L 105.601163 468.442162 L 107.160162 467.806162" fill="none" id="22" stroke="#bee481" stroke-width="0.5" /><path d="M 101.566163 470.343162 L 102.960163 469.816162 L 104.354163 469.290162 L 105.739163 468.741162 L 107.124163 468.192162 L 108.502163 467.626162 L 109.881163 467.060162 L 111.255163 466.486162 L 112.630163 465.911162 L 113.996163 465.317162 L 115.362163 464.722162 L 116.728163 464.128162 L 118.094163 463.533163 L 119.459163 462.936162 L 120.825163 462.340162 L 122.190162 461.743162 L 123.555163 461.146163 L 124.920163 460.549162 L 126.285162 459.952162 L 127.650163 459.355162 L 129.015163 458.758162 L 130.380163 458.161162 L 131.745162 457.564162 L 133.110163 456.968162 L 134.475163 456.371162 L 135.840162 455.774162 L 137.205163 455.177162 L 138.571163 454.580162 L 139.936162 453.983162 L 141.301163 453.386162 L 142.666163 452.790162" fill="none" id="23" stroke="#bee481" stroke-width="0.5" /><path d="M 132.350163 457.983162 L 136.896163 456.135162 L 141.448162 454.303162 L 146.011163 452.496162 L 150.578163 450.702162 L 155.148163 448.915162 L 159.725163 447.144162 L 164.303163 445.378162 L 168.882162 443.614162 L 173.461163 441.849162 L 178.040163 440.084162 L 182.619163 438.319163 L 187.198162 436.555162 L 191.777163 434.790162 L 196.355163 433.025162 L 200.934163 431.260162 L 205.513162 429.496162 L 210.092163 427.731162 L 214.671163 425.966162 L 219.250163 424.201162 L 223.829162 422.436162 L 228.407162 420.672162 L 232.986163 418.907162 L 237.565163 417.142162 L 242.141163 415.369162 L 246.706163 413.570162 L 251.262163 411.747163 L 255.817162 409.920163 L 260.371162 408.094162 L 264.926162 406.267162 L 269.481162 404.441162 L 274.035162 402.615162 L 278.592162 400.794162 L 283.158163 398.996162 L 287.728162 397.209162 L 292.299162 395.422162 L 296.869162 393.636162 L 301.439162 391.849162" fill="none" id="24" stroke="#bee481" stroke-width="0.5" /><path d="M 247.077163 403.967162 L 251.225163 406.602162 L 255.426163 409.149162 L 259.711163 411.555162 L 264.034162 413.889162 L 268.392162 416.160162 L 272.793162 418.344162 L 277.263162 420.384163 L 281.743162 422.403162 L 286.222162 424.423162 L 290.698162 426.450162 L 295.144162 428.541162 L 299.582162 430.651162 L 304.019162 432.761162 L 308.457162 434.870162 L 312.898162 436.973163 L 317.349162 439.054162 L 321.808162 441.119162 L 326.268162 443.181162 L 330.728162 445.243162 L 335.188162 447.305162 L 339.648162 449.367162 L 344.107162 451.429162 L 348.567162 453.492162 L 353.027162 455.554162 L 357.487162 457.616162 L 361.946162 459.680162 L 366.398162 461.759163 L 370.841162 463.858162 L 375.281162 465.963162 L 379.712162 468.086163 L 384.119162 470.259163 L 388.502162 472.479162 L 392.870162 474.729162 L 397.233162 476.991162 L 401.595162 479.252162 L 405.957162 481.513162 L 410.320162 483.775162 L 414.681162 486.038162 L 419.033163 488.319163 L 423.367162 490.634163 L 427.700162 492.951162 L 432.021163 495.289162 L 436.252162 497.788162 L 440.443162 500.353162 L 444.589162 502.991162" fill="none" id="25" stroke="#8f6aaf" stroke-width="0.5" /><path d="M 329.345162 114.904162 L 330.190162 119.808163 L 331.012162 124.717163 L 331.780162 129.634163 L 332.396163 134.572163 L 333.008162 139.511163 L 333.443162 144.469163 L 333.729162 149.437162 L 333.898162 154.411163 L 333.975162 159.387163 L 333.977162 164.364162 L 333.978162 169.341162 L 333.979162 174.318162 L 333.980162 179.294162 L 333.981162 184.271163 L 333.983162 189.248163 L 333.984162 194.224163 L 333.985163 199.201163 L 333.986162 204.178163 L 333.987162 209.155163 L 333.989162 214.131163 L 333.990162 219.108162 L 333.991162 224.085162 L 333.992162 229.062162 L 333.994162 234.038162 L 333.995162 239.015163 L 333.996162 243.992163 L 333.997163 248.968163 L 333.998162 253.945163 L 334.000162 258.922162 L 334.001162 263.899162 L 334.002162 268.875162 L 334.003162 273.852162 L 334.004162 278.829162 L 334.005162 283.806162 L 333.971162 288.782162 L 333.890162 293.758162 L 333.808162 298.734162 L 333.725162 303.710162 L 333.643162 308.686162 L 333.561162 313.662162 L 333.479162 318.638162 L 333.396163 323.614162 L 333.314162 328.591162 L 333.232162 333.567162 L 333.149162 338.543162 L 333.067162 343.519162 L 332.985163 348.495162 L 332.923162 353.471162 L 332.884163 358.448162 L 332.847162 363.424162 L 332.810162 368.401162 L 332.772162 373.377162 L 332.735163 378.354162 L 332.698162 383.331163 L 332.661162 388.307163 L 332.628162 393.284162 L 332.620162 398.260162 L 332.620162 403.237162 L 332.620162 408.214162 L 332.620162 413.191162 L 332.620162 418.167162 L 332.620162 423.144162 L 332.620162 428.121162 L 332.620162 433.098163 L 332.620162 438.074162 L 332.620162 443.051162 L 332.620162 448.028162 L 332.620162 453.004162 L 332.620162 457.981162 L 332.620162 462.958162 L 332.620162 467.935162 L 332.620162 472.911162 L 332.620162 477.888162 L 332.620162 482.865162 L 332.620162 487.842162 L 332.620162 492.818162 L 332.620162 497.795163 L 332.620162 502.772162 L 332.620162 507.748162 L 332.620162 512.725163 L 332.620162 517.702162 L 332.620162 522.679162 L 332.620162 527.655162 L 332.620162 532.632162 L 332.620162 537.609163 L 332.620162 542.585163 L 332.620162 547.562162 L 332.620162 552.539162 L 332.620162 557.516162 L 332.620162 562.492162 L 332.620162 567.469162 L 332.620162 572.446163 L 332.620162 577.423162 L 332.620162 582.399162 L 332.620162 587.376162 L 332.620162 592.353162" fill="none" id="26" stroke="#8bb658" stroke-width="0.5" /><path d="M 137.559163 47.333163 L 142.059163 49.368562 L 146.577163 51.361262 L 151.124163 53.287363 L 155.688163 55.175162 L 160.252162 57.061062 L 164.816163 58.946962 L 169.380163 60.832963 L 173.910163 62.798462 L 178.412162 64.828563 L 182.909163 66.868763 L 187.407162 68.908963 L 191.907162 70.941862 L 196.441163 72.899062 L 200.998163 74.802263 L 205.566163 76.677763 L 210.138162 78.546463 L 214.709163 80.415063 L 219.280163 82.283763 L 223.851163 84.152462 L 228.422163 86.021163 L 232.998163 87.878863 L 237.591162 89.693963 L 242.198162 91.470363 L 246.811162 93.235563 L 251.430162 94.982063 L 256.062162 96.694263 L 260.701162 98.388263 L 265.339162 100.082262 L 269.978162 101.776162 L 274.617162 103.470163 L 279.256162 105.164163 L 283.894162 106.858163 L 288.533163 108.552163 L 293.170163 110.251163 L 297.798162 111.973163 L 302.414162 113.728163 L 307.029162 115.487163 L 311.643162 117.247163 L 316.258162 119.006163 L 320.872163 120.765163 L 325.487162 122.524163 L 330.102162 124.280163 L 334.726162 126.014163 L 339.357162 127.730163 L 343.988162 129.445163 L 348.618162 131.163162 L 353.237162 132.911163 L 357.851162 134.671163 L 362.465162 136.431162 L 367.077162 138.195163" fill="none" id="27" stroke="#bbabff" stroke-width="0.5" /><path d="M 327.739162 126.668163 L 332.555162 127.168163 L 337.259163 128.314163 L 341.681162 130.289163 L 345.753162 132.912162 L 349.806162 135.563163 L 353.772162 138.344163 L 357.783163 141.058163 L 361.889162 143.627162 L 366.036162 146.130163 L 370.179162 148.638162 L 374.273162 151.227162 L 378.311162 153.900162 L 382.330162 156.604163 L 386.350162 159.306162 L 390.394162 161.971162 L 394.456163 164.609162 L 398.532162 167.226163 L 402.621162 169.823162 L 406.714162 172.411163 L 410.808162 175.000163 L 414.902162 177.589163 L 418.995162 180.178163 L 423.089162 182.767163 L 427.183162 185.355163 L 431.276162 187.944163 L 435.370162 190.533163 L 439.462162 193.125163 L 443.537162 195.743163 L 447.548162 198.457163 L 451.520162 201.229163 L 455.455162 204.054163" fill="none" id="28" stroke="#658424" stroke-width="0.5" /><path d="M 210.605163 257.959162 L 215.240162 256.314163 L 219.893163 254.722162 L 224.579162 253.229163 L 229.263162 251.728162 L 233.935163 250.193162 L 238.605163 248.649163 L 243.263162 247.070163 L 247.901162 245.434163 L 252.531162 243.776162 L 257.161162 242.114162 L 261.790162 240.453163 L 266.419162 238.791163 L 271.045163 237.121162 L 275.661162 235.425162 L 280.267162 233.700163 L 284.869162 231.965162 L 289.471162 230.230163 L 294.072162 228.491163 L 298.667162 226.737163 L 303.253162 224.962163 L 307.837162 223.180162 L 312.421162 221.397163 L 317.005162 219.615162 L 321.589162 217.833163 L 326.174162 216.053163 L 330.763162 214.283163 L 335.358162 212.530163 L 339.956163 210.783163 L 344.554162 209.039163 L 349.158163 207.307163 L 353.765162 205.585162 L 358.372163 203.864162 L 362.979162 202.144162 L 367.587162 200.423163 L 372.194163 198.702163 L 376.802162 196.982163 L 381.409162 195.261163 L 386.017162 193.540163 L 390.619162 191.805162 L 395.209162 190.038162 L 399.789162 188.247163 L 404.361162 186.434163 L 408.914162 184.575163 L 413.452162 182.677163 L 417.985163 180.771163 L 422.519162 178.864162 L 427.052162 176.956163 L 431.583162 175.043162 L 436.102162 173.101163 L 440.610163 171.136163 L 445.107162 169.143163 L 449.582162 167.104163 L 454.051162 165.049162 L 458.510162 162.975163" fill="none" id="29" stroke="#f1b9ff" stroke-width="0.5" /><path d="M 331.991162 122.038162 L 329.211163 126.119163 L 326.382162 130.167163 L 323.495162 134.174162 L 320.523162 138.117163 L 317.414162 141.954162 L 314.270162 145.762163 L 311.123162 149.568162 L 307.971162 153.369163 L 304.795163 157.151162 L 301.597162 160.913162 L 298.392162 164.671163 L 295.177162 168.419162 L 291.941162 172.149163 L 288.697162 175.873163 L 285.453162 179.596162 L 282.183162 183.296163 L 278.857162 186.947163 L 275.506162 190.574162 L 272.154162 194.200163 L 268.802162 197.827163 L 265.453162 201.457163 L 262.122163 205.102162 L 258.817162 208.772163 L 255.527163 212.454162 L 252.237163 216.137163 L 248.948162 219.821163 L 245.659163 223.504163 L 242.362163 227.180162 L 239.037162 230.832163 L 235.695163 234.468163 L 232.355163 238.105163 L 229.035163 241.761163 L 225.734162 245.434163 L 222.443162 249.116163 L 219.197163 252.837163 L 216.013162 256.612162 L 212.835162 260.392162 L 209.657162 264.171162 L 206.479163 267.951162" fill="none" id="30" stroke="#989c37" stroke-width="0.5" /><path d="M 329.534162 128.014162 L 325.551162 130.952163 L 321.857162 134.243163 L 318.564162 137.934163 L 315.589162 141.890163 L 312.468162 145.732163 L 309.209162 149.458163 L 305.908163 153.147163 L 302.603162 156.834163 L 299.299162 160.520162 L 295.995162 164.207163 L 292.689162 167.892163 L 289.365162 171.560163 L 286.011162 175.201163 L 282.648162 178.834163 L 279.284162 182.466162 L 275.920163 186.098163 L 272.556162 189.731163 L 269.192162 193.363163 L 265.850162 197.014162 L 262.581163 200.732163 L 259.419162 204.540163 L 256.345162 208.420163 L 253.326163 212.344163 L 250.333163 216.287162 L 247.345163 220.234162 L 244.345163 224.172163 L 241.291163 228.068162 L 238.163162 231.905163 L 235.002162 235.715162 L 231.817162 239.506163 L 228.612163 243.279163 L 225.429163 247.070163 L 222.343163 250.940163 L 219.271163 254.823162 L 216.199162 258.705162 L 213.112163 262.575162 L 209.957163 266.390162 L 206.762163 270.172162" fill="none" id="31" stroke="#989c37" stroke-width="0.5" /><path d="M 53.533963 160.282162 L 54.502162 161.550162 L 55.482862 162.807163 L 56.550663 163.993163 L 57.649062 165.147163 L 58.834062 166.216162 L 60.049563 167.247163 L 61.311662 168.223163 L 62.595462 169.169162 L 63.899562 170.088163 L 65.221163 170.982163 L 66.552563 171.860163 L 67.901863 172.711163 L 69.256763 173.554163 L 70.630163 174.365162 L 72.006263 175.172163 L 73.401363 175.946163 L 74.797863 176.717163 L 76.202463 177.474163 L 77.609363 178.226163 L 79.022762 178.966162 L 80.436763 179.704162 L 81.851962 180.441163 L 83.267063 181.178163 L 84.682263 181.914163 L 86.097262 182.651162 L 87.512263 183.388162 L 88.927363 184.124163 L 90.342363 184.861163 L 91.757362 185.598163 L 93.172363 186.335162" fill="none" id="32" stroke="#bb568c" stroke-width="0.5" /><path d="M 87.410563 183.500163 L 91.792263 185.754163 L 96.174663 188.007162 L 100.558163 190.257162 L 104.942163 192.507162 L 109.319163 194.769162 L 113.672162 197.078163 L 118.011163 199.413162 L 122.347163 201.754163 L 126.673163 204.113163 L 130.976163 206.513162 L 135.265163 208.939163 L 139.551163 211.370162 L 143.837163 213.801163 L 148.123163 216.232163 L 152.409163 218.664163 L 156.697163 221.090162 L 160.999163 223.493163 L 165.328163 225.846162 L 169.687162 228.144162 L 174.084163 230.366163 L 178.531162 232.488163 L 183.006163 234.550162 L 187.494163 236.585162 L 192.004163 238.570163 L 196.532162 240.513162 L 201.064163 242.446163 L 205.597162 244.379163 L 210.129163 246.312162 L 214.661163 248.247163 L 219.182163 250.205163 L 223.674162 252.232163 L 228.149163 254.293162 L 232.623163 256.358162 L 237.093163 258.431162" fill="none" id="33" stroke="#bb568c" stroke-width="0.5" /><path d="M 63.990662 180.739162 L 66.803162 176.672163 L 69.674762 172.647163 L 72.629463 168.682163 L 75.638263 164.759163 L 78.689463 160.868163 L 81.811463 157.034163 L 84.963463 153.224163 L 88.183263 149.472162 L 91.420363 145.735163 L 94.617563 141.963163 L 97.796363 138.176163 L 100.973163 134.387163 L 104.149163 130.598163 L 107.318162 126.802163 L 110.452163 122.978163 L 113.521163 119.101163 L 116.527163 115.176163 L 119.507163 111.230163 L 122.495163 107.290163 L 125.526162 103.384163 L 128.618163 99.525863 L 131.740162 95.691862 L 134.871162 91.865463 L 138.021163 88.053663 L 141.191163 84.259363 L 144.383162 80.482863 L 147.610163 76.736963 L 150.857163 73.008163 L 154.107163 69.281863 L 157.363163 65.560462 L 160.651162 61.868362 L 164.002162 58.232062 L 167.401162 54.641962 L 170.857163 51.105062 L 174.294162 47.551262 L 177.668162 43.936262 L 180.998163 40.282062" fill="none" id="34" stroke="#cfe395" stroke-width="0.5" /><path d="M 211.959163 340.329162 L 216.449162 338.152162 L 220.984162 336.072162 L 225.576163 334.120162 L 230.218163 332.292162 L 234.871162 330.492162 L 239.537162 328.723163 L 244.201163 326.951162 L 248.853162 325.146163 L 253.495162 323.318162 L 258.137162 321.487162 L 262.778162 319.656162 L 267.420163 317.825162 L 272.059162 315.990162 L 276.689162 314.128162 L 281.303162 312.231162 L 285.912162 310.319163 L 290.516162 308.395162 L 295.110163 306.449162 L 299.698162 304.487162 L 304.283163 302.521163 L 308.869162 300.555162 L 313.455162 298.588162 L 318.041162 296.622163 L 322.626162 294.656162 L 327.212162 292.690162 L 331.798162 290.724162 L 336.384163 288.758162 L 340.969162 286.790162 L 345.548162 284.807163 L 350.113162 282.794162 L 354.667162 280.756162 L 359.219162 278.712162 L 363.770162 276.667162 L 368.322162 274.623162 L 372.873162 272.578162 L 377.424162 270.534162 L 381.976162 268.489162 L 386.527162 266.445162 L 391.080162 264.403162 L 395.639162 262.375162 L 400.206163 260.366162 L 404.775162 258.362162 L 409.347162 256.363162 L 413.927162 254.385163 L 418.522162 252.440163 L 423.134163 250.534163 L 427.761162 248.668162 L 432.391162 246.808163 L 437.020162 244.947163 L 441.650162 243.087163 L 446.280162 241.226163 L 450.908163 239.363163 L 455.517162 237.450163 L 460.120162 235.525162 L 464.715162 233.581163" fill="none" id="35" stroke="#c45372" stroke-width="0.5" /><path d="M 209.723163 400.329162 L 214.346162 398.634163 L 218.954162 396.895162 L 223.545163 395.113162 L 228.127162 393.309162 L 232.709163 391.505162 L 237.282162 389.677162 L 241.828163 387.784162 L 246.339163 385.811162 L 250.818162 383.763162 L 255.276162 381.671162 L 259.729162 379.567162 L 264.182163 377.465162 L 268.642162 375.377162 L 273.116162 373.319163 L 277.598163 371.278162 L 282.080162 369.240162 L 286.563162 367.201162 L 291.045163 365.160162 L 295.521163 363.106162 L 299.985163 361.028162 L 304.444163 358.937162 L 308.902162 356.845162 L 313.361162 354.753162 L 317.819163 352.662162 L 322.278162 350.573162 L 326.765162 348.542162 L 331.272162 346.559162 L 335.783163 344.584162 L 340.294162 342.609162 L 344.806162 340.634163 L 349.317162 338.659162 L 353.828162 336.683162 L 358.324162 334.675162 L 362.809162 332.640162 L 367.289162 330.596162 L 371.769162 328.552162 L 376.250162 326.508162 L 380.730162 324.464162 L 385.212162 322.423162 L 389.704162 320.405162 L 394.207162 318.410162 L 398.714162 316.426162 L 403.221162 314.443162 L 407.729162 312.460162 L 412.237162 310.477162 L 416.744162 308.494162 L 421.252162 306.511162 L 425.760162 304.528162 L 430.267162 302.545163 L 434.775162 300.562162 L 439.283163 298.579162 L 443.790162 296.596162 L 448.298162 294.613162 L 452.806162 292.630162 L 457.314162 290.647162 L 461.821162 288.664162 L 466.329162 286.680162 L 470.824162 284.669162 L 475.315162 282.649162 L 479.801162 280.617162 L 484.274162 278.557163" fill="none" id="36" stroke="#008c6f" stroke-width="0.5" /><path d="M 55.486762 297.951162 L 59.529562 300.734162 L 63.612162 303.457162 L 67.749662 306.097162 L 71.930263 308.668162 L 76.110962 311.239162 L 80.291563 313.809162 L 84.479063 316.369162 L 88.693663 318.883162 L 92.913263 321.390162 L 97.132762 323.896163 L 101.352163 326.403162 L 105.572163 328.909162 L 109.789163 331.419162 L 113.994163 333.950162 L 118.192163 336.493162 L 122.389163 339.037162 L 126.585163 341.581163 L 130.782162 344.125162 L 134.985163 346.660162 L 139.211163 349.155162 L 143.470163 351.594162 L 147.762163 353.974162 L 152.074162 356.318162 L 156.387163 358.659162 L 160.701163 361.000162 L 165.015163 363.341162 L 169.328163 365.683162 L 173.628163 368.047162 L 177.901162 370.461163 L 182.155163 372.908163 L 186.410163 375.355162 L 190.663162 377.803162 L 194.909163 380.265162 L 199.132162 382.766162 L 203.345163 385.283163 L 207.550162 387.815162 L 211.711163 390.417162 L 215.818162 393.103162 L 219.863163 395.882162 L 223.899163 398.675162 L 227.948162 401.448162 L 232.146163 403.990162 L 236.555162 406.146163 L 241.011163 408.203162 L 245.534163 410.109162" fill="none" id="37" stroke="#ff94af" stroke-width="0.5" /><path d="M 212.085162 564.739163 L 215.968163 561.635162 L 220.011163 558.745162 L 224.236163 556.127162 L 228.641163 553.824162 L 233.048163 551.525162 L 237.453163 549.222162 L 241.841162 546.886162 L 246.218163 544.529162 L 250.594163 542.171162 L 254.970163 539.813162 L 259.347162 537.456163 L 263.735163 535.121162 L 268.151162 532.840163 L 272.573162 530.568162 L 276.997163 528.302163 L 281.435162 526.063162 L 285.890162 523.857162 L 290.349162 521.660162 L 294.807163 519.462162 L 299.266162 517.265162 L 303.725162 515.067162 L 308.184162 512.870162 L 312.643162 510.672162 L 317.102162 508.475162 L 321.560162 506.278162 L 326.022162 504.086163 L 330.494162 501.916162 L 334.980162 499.773162 L 339.479162 497.660162 L 343.994162 495.579162 L 348.518162 493.520162 L 353.044162 491.465162 L 357.569163 489.406162 L 362.084162 487.329162 L 366.586163 485.220162 L 371.074162 483.082162 L 375.545163 480.911162 L 380.004162 478.713162 L 384.459162 476.508162 L 388.914162 474.303162 L 393.369162 472.098163 L 397.824162 469.892162 L 402.284162 467.697162 L 406.760162 465.536162 L 411.251162 463.405162 L 415.745162 461.280162 L 420.239162 459.155162 L 424.733162 457.030162 L 429.227162 454.905162 L 433.721162 452.781162 L 438.215162 450.656162 L 442.708162 448.531162 L 447.203162 446.408163 L 451.707162 444.303162 L 456.230162 442.243162 L 460.761162 440.197162 L 465.291162 438.152162 L 469.822162 436.107162 L 474.353162 434.061162" fill="none" id="38" stroke="#488656" stroke-width="0.5" /><path d="M 209.545163 560.223162 L 213.973163 557.994163 L 218.457163 555.881162 L 223.021163 553.948162 L 227.624163 552.107162 L 232.222162 550.254163 L 236.790163 548.329162 L 241.329162 546.337162 L 245.847162 544.296162 L 250.351163 542.226162 L 254.852162 540.149162 L 259.351162 538.066163 L 263.835162 535.954162 L 268.312162 533.825163 L 272.787162 531.693162 L 277.263162 529.562162 L 281.738162 527.430162 L 286.214162 525.299162 L 290.689162 523.167163 L 295.165162 521.035162 L 299.635162 518.892162 L 304.089162 516.717162 L 308.525162 514.504163 L 312.955162 512.279162 L 317.384163 510.054162 L 321.814162 507.829162 L 326.245162 505.606162 L 330.684162 503.400162 L 335.137162 501.222162 L 339.601162 499.066162 L 344.077162 496.935162 L 348.559162 494.818162 L 353.041162 492.701162 L 357.516162 490.568162 L 361.962162 488.376162 L 366.380162 486.128162 L 370.790162 483.863162 L 375.197162 481.593162 L 379.587162 479.292162 L 383.960162 476.957162 L 388.325162 474.608162 L 392.695162 472.267162 L 397.088162 469.971162 L 401.506162 467.723163 L 405.934162 465.494162 L 410.367162 463.274162 L 414.809162 461.075162 L 419.261162 458.895162 L 423.716162 456.720162 L 428.170163 454.545163 L 432.625162 452.370162 L 437.080162 450.196162 L 441.534162 448.021163 L 445.992162 445.851162 L 450.464162 443.713162 L 454.971162 441.649162 L 459.505162 439.645162 L 464.049162 437.663162 L 468.576162 435.643162 L 473.079162 433.572162 L 477.565162 431.463162" fill="none" id="39" stroke="#488656" stroke-width="0.5" /><path d="M 266.573162 514.518163 L 270.745162 512.938162 L 274.917162 511.358162 L 279.089162 509.778162 L 283.261162 508.197162 L 287.426162 506.600162 L 291.573162 504.955162 L 295.700162 503.261162 L 299.807163 501.518162 L 303.900162 499.745162 L 307.990162 497.963162 L 312.080162 496.181162 L 316.169162 494.399162 L 320.259163 492.617162 L 324.349162 490.835162 L 328.439162 489.053162 L 332.529162 487.272162 L 336.625162 485.505162 L 340.728162 483.753162 L 344.832162 482.004162 L 348.936162 480.255162 L 353.040162 478.506162 L 357.144162 476.756162 L 361.248162 475.007162 L 365.351162 473.258162 L 369.455162 471.508162 L 373.559162 469.759163 L 377.663162 468.010162 L 381.767162 466.261162 L 385.871162 464.511162 L 389.975162 462.762162" fill="none" id="40" stroke="#ffc0e1" stroke-width="0.5" /><path d="M 276.998162 231.361163 L 277.760162 236.278163 L 278.325162 241.221162 L 278.664162 246.185163 L 278.991162 251.150162 L 279.053162 256.125162 L 279.075162 261.100162 L 279.072162 266.076162 L 279.069163 271.052162 L 279.066162 276.027162 L 279.064162 281.003162 L 279.061162 285.978162 L 279.058162 290.954162 L 279.055162 295.929162 L 279.052162 300.905162 L 279.049162 305.881162 L 279.046162 310.856162 L 278.956163 315.831163 L 278.847162 320.805162 L 278.738162 325.780162 L 278.629162 330.754162 L 278.519162 335.728162 L 278.410162 340.703162 L 278.301162 345.677162 L 278.160162 350.651162 L 278.000162 355.624162 L 277.839162 360.597162 L 277.679162 365.570162 L 277.518162 370.542162 L 277.358162 375.515162 L 277.197162 380.488162 L 277.037162 385.461163 L 276.876162 390.434162 L 276.718162 395.407162 L 276.560162 400.380162 L 276.430162 405.354162 L 276.313162 410.329162 L 276.196162 415.303162 L 276.078162 420.277162 L 275.974162 425.251162 L 275.911162 430.227162 L 275.862162 435.202162 L 275.813162 440.177162 L 275.763162 445.152162 L 275.716162 450.128162 L 275.707162 455.103162 L 275.707162 460.079162 L 275.707162 465.054162 L 275.707162 470.030162 L 275.707162 475.006162 L 275.707162 479.981162 L 275.707162 484.957162 L 275.707162 489.932163 L 275.742162 494.908163 L 275.788162 499.883162 L 275.846162 504.858162 L 275.945162 509.833162 L 276.057163 514.807163 L 276.169162 519.782163 L 276.281162 524.756162 L 276.393162 529.730163 L 276.505162 534.704162 L 276.617162 539.679162 L 276.730162 544.653163 L 276.862162 549.627162 L 277.009163 554.600163 L 277.157162 559.574162 L 277.304162 564.547163 L 277.452162 569.520162 L 277.600162 574.494163 L 277.792162 579.466162 L 277.995162 584.437162 L 278.198162 589.408163 L 278.402162 594.380162 L 278.605162 599.351162 L 278.815162 604.322162 L 279.049162 609.292163 L 279.288162 614.262162 L 279.527162 619.232162 L 279.766162 624.202162 L 280.005162 629.172163 L 280.244162 634.141162 L 280.483162 639.111162 L 280.722162 644.081163 L 280.961163 649.051163 L 281.200162 654.021162 L 281.439162 658.991162" fill="none" id="41" stroke="#6c8139" stroke-width="0.5" /><path d="M 377.817162 189.597162 L 378.209162 194.530163 L 378.732162 199.451163 L 379.367162 204.358162 L 380.026162 209.262163 L 380.680162 214.168162 L 381.081163 219.099163 L 381.288162 224.043162 L 381.414162 228.990162 L 381.468162 233.938163 L 381.477162 238.887163 L 381.480162 243.835162 L 381.484162 248.784163 L 381.488162 253.732163 L 381.492162 258.681162 L 381.495162 263.629162 L 381.499162 268.578162 L 381.474162 273.526162 L 381.382162 278.474162 L 381.275162 283.421162 L 381.168162 288.368162 L 381.061162 293.316162 L 380.954162 298.263162 L 380.847162 303.210162 L 380.740162 308.158163 L 380.633162 313.105162 L 380.529162 318.052162 L 380.435162 323.000162 L 380.349162 327.948162 L 380.264162 332.895162 L 380.179162 337.843162 L 380.093162 342.791162 L 380.008162 347.739162 L 379.929162 352.687162 L 379.862162 357.635162 L 379.801162 362.583162 L 379.739162 367.531162 L 379.677162 372.479162 L 379.615162 377.427162 L 379.554162 382.375162 L 379.492162 387.323162 L 379.430162 392.271163 L 379.368162 397.219162 L 379.307163 402.167162 L 379.245162 407.116162 L 379.183162 412.064162 L 379.121162 417.012162 L 379.059162 421.960162 L 378.998162 426.908163 L 378.942162 431.856162 L 378.895162 436.804162 L 378.849162 441.753162 L 378.804162 446.701162 L 378.758162 451.649162 L 378.713162 456.598163 L 378.667162 461.546162 L 378.622163 466.494162 L 378.577162 471.442162 L 378.531162 476.391162 L 378.486162 481.339162 L 378.443162 486.287162 L 378.418162 491.236162 L 378.422162 496.184162 L 378.426162 501.133162 L 378.430162 506.081163 L 378.434162 511.030162 L 378.439162 515.978162 L 378.443162 520.927163 L 378.447162 525.875162 L 378.451162 530.824162 L 378.455162 535.772162 L 378.459162 540.720163 L 378.464162 545.669162 L 378.468162 550.617162 L 378.472162 555.566163 L 378.481162 560.514162 L 378.525162 565.463162 L 378.628162 570.410162 L 378.735163 575.357162 L 378.843162 580.305162 L 378.951162 585.252162 L 379.062162 590.199162 L 379.203162 595.146162 L 379.380162 600.091162 L 379.556162 605.036162 L 379.732162 609.982162 L 379.909162 614.927163 L 380.085162 619.872162" fill="none" id="42" stroke="#a9d0ff" stroke-width="0.5" /><path d="M 369.628162 501.290162 L 370.681162 502.021163 L 371.734162 502.752162 L 372.776162 503.499162 L 373.817162 504.246162 L 374.849162 505.007162 L 375.880162 505.768162 L 376.904162 506.539162 L 377.927162 507.311162 L 378.941162 508.096162 L 379.954162 508.880162 L 380.963162 509.671162 L 381.972162 510.461163 L 382.981162 511.253162 L 383.989162 512.044162 L 384.998162 512.834162 L 386.008162 513.624163 L 387.018162 514.413162 L 388.028162 515.203162 L 389.045163 515.983162 L 390.062162 516.763163 L 391.091162 517.527163 L 392.120162 518.291162 L 393.168162 519.029162 L 394.216162 519.767162 L 395.285162 520.474162 L 396.354162 521.182163 L 397.443162 521.857162 L 398.533163 522.533163 L 399.640162 523.179162 L 400.746162 523.825163" fill="none" id="43" stroke="#a98c2c" stroke-width="0.5" /><path d="M 129.534163 479.581163 L 129.344163 474.658163 L 129.102162 469.738162 L 128.732163 464.825162 L 128.405163 459.910162 L 128.141163 454.990162 L 127.881163 450.071162 L 127.621163 445.151162 L 127.362163 440.232162 L 127.111163 435.312162 L 126.900163 430.390162 L 126.708163 425.467162 L 126.519163 420.544162 L 126.330163 415.621162 L 126.141163 410.699162 L 125.952163 405.776162 L 125.763163 400.853162 L 125.579163 395.930162 L 125.418163 391.006162 L 125.273163 386.082162 L 125.131163 381.157162 L 124.989163 376.233162 L 124.855163 371.308162 L 124.738163 366.383162 L 124.636163 361.458162 L 124.535162 356.533163 L 124.434162 351.607162 L 124.334163 346.682163 L 124.233163 341.756162 L 124.135163 336.831163 L 124.047162 331.905162 L 123.969163 326.979162 L 123.893163 322.054162 L 123.817163 317.128162 L 123.741163 312.202162 L 123.665163 307.276162 L 123.589163 302.350162 L 123.513163 297.424162 L 123.439163 292.498162 L 123.376163 287.572162 L 123.328163 282.646163 L 123.283163 277.720162 L 123.246163 272.794162 L 123.230163 267.867162 L 123.225163 262.941162 L 123.221163 258.014162 L 123.216163 253.088163 L 123.211163 248.162162 L 123.205163 243.235163 L 123.182163 238.309163 L 123.116163 233.383162 L 123.051163 228.457163 L 122.985163 223.531162 L 122.920163 218.605163" fill="none" id="44" stroke="#0294bb" stroke-width="0.5" /><path d="M 56.179662 281.061162 L 60.291463 279.515162 L 64.424563 278.026162 L 68.585063 276.616162 L 72.770363 275.281162 L 76.948063 273.922162 L 81.118363 272.541162 L 85.285563 271.151162 L 89.442262 269.729162 L 93.579863 268.253162 L 97.715163 266.770162 L 101.846163 265.276162 L 105.949162 263.705162 L 110.019163 262.053162 L 114.090163 260.402162 L 118.161163 258.750162 L 122.232163 257.099162 L 126.302163 255.447163 L 130.373163 253.796163 L 134.464163 252.194163 L 138.582163 250.663162 L 142.712163 249.168162 L 146.845163 247.679163 L 150.986163 246.211163 L 155.135163 244.767163 L 159.286163 243.328163 L 163.428163 241.864162 L 167.541163 240.322163 L 171.635163 238.730163 L 175.722162 237.119163 L 179.797163 235.478162 L 183.865162 233.817162" fill="none" id="45" stroke="#d7b555" stroke-width="0.5" /><path d="M 51.360762 254.274163 L 54.876362 253.033163 L 58.397662 251.808163 L 61.921363 250.591162 L 65.466363 249.436162 L 69.023663 248.320163 L 72.596963 247.257162 L 76.177363 246.218163 L 79.759263 245.184163 L 83.341363 244.150162 L 86.923163 243.116163 L 90.502863 242.074162 L 94.076663 241.012163 L 97.643863 239.928163 L 101.205163 238.825163 L 104.754163 237.684163 L 108.289163 236.500163 L 111.819163 235.300162 L 115.349163 234.101163 L 118.879163 232.901162 L 122.409163 231.702163 L 125.942163 230.509163 L 129.483162 229.345163 L 133.036163 228.215162 L 136.594163 227.100163 L 140.152163 225.987163 L 143.710162 224.874163 L 147.268163 223.762163 L 150.827163 222.649163 L 154.385163 221.536163 L 157.943162 220.424162" fill="none" id="46" stroke="#4a7ea6" stroke-width="0.5" /><path d="M 44.274162 317.935162 L 48.155162 316.689162 L 52.012563 315.372163 L 55.840663 313.972162 L 59.627463 312.464162 L 63.410863 310.947162 L 67.190963 309.421162 L 70.963963 307.879162 L 74.732863 306.326162 L 78.500962 304.772162 L 82.269963 303.219162 L 86.045563 301.683162 L 89.836962 300.187162 L 93.642463 298.726162 L 97.452063 297.276162 L 101.262163 295.826162 L 105.071162 294.376162 L 108.881163 292.927162 L 112.689163 291.474162 L 116.492163 290.006162 L 120.284163 288.510162 L 124.067163 286.992162 L 127.848163 285.470162 L 131.630163 283.950162 L 135.420163 282.449162 L 139.223163 280.981162 L 143.041163 279.553162 L 146.867163 278.149162 L 150.695163 276.749162 L 154.524163 275.350162 L 158.353162 273.951162" fill="none" id="47" stroke="#ffa372" stroke-width="0.5" /></svg>