<?xml version="1.0" encoding="utf-8" ?>
<svg baseProfile="full" height="507.61461" version="1.1" viewBox="0,0,691.61461,507.61461" width="691.61461" xmlns="http://www.w3.org/2000/svg" xmlns:ev="http://www.w3.org/2001/xml-events" xmlns:xlink="http://www.w3.org/1999/xlink"><defs><style type="text/css"><![CDATA[
	.background { fill: white; }
	.line { stroke: firebrick; stroke-width: .1mm; }
	.blacksquare { fill: indigo; }
	.whitesquare { fill: white; }
]]></style></defs><rect class="background" height="100%" width="100%" x="0" y="0" /><path d="M 470.008305 9.945105 L 474.358305 12.403405 L 478.729305 14.825505 L 483.129305 17.194005 L 487.545305 19.533505 L 491.960305 21.873005 L 496.376305 24.212505 L 500.791305 26.551905 L 505.200305 28.903905 L 509.566305 31.335105 L 513.877305 33.861405 L 518.177305 36.407305 L 522.476305 38.953605 L 526.772305 41.505805 L 531.057305 44.077705 L 535.329305 46.669005 L 539.599305 49.265705 L 543.868305 51.862305 L 548.137305 54.459005 L 552.407305 57.055705 L 556.676305 59.652305 L 560.946305 62.249005 L 565.215305 64.845705 L 569.481305 67.448505 L 573.719305 70.094605 L 577.913305 72.812005 L 582.086305 75.560205 L 586.259305 78.308805 L 590.432305 81.057505 L 594.606305 83.806105 L 598.779305 86.554705 L 602.952305 89.303305 L 607.125305 92.051905 L 611.306305 94.789505 L 615.523305 97.469105 L 619.792305 100.065905 L 624.072305 102.644305 L 628.353305 105.223305 L 632.633305 107.802305 L 636.913305 110.380305 L 641.191305 112.963305 L 645.435305 115.600305 L 649.654305 118.279305 L 653.850305 120.992305" fill="none" id="0" stroke="#c583d9" stroke-width="0.5" /><path d="M 484.213305 13.441205 L 488.399305 16.010905 L 492.586305 18.580705 L 496.773305 21.150505 L 500.960305 23.720205 L 505.146305 26.290005 L 509.333305 28.859805 L 513.520305 31.429505 L 517.707305 33.999305 L 521.894305 36.569105 L 526.080305 39.138805 L 530.267305 41.708605 L 534.454305 44.278405 L 538.641305 46.848105 L 542.832305 49.410105 L 547.038305 51.949105 L 551.252305 54.473805 L 555.468305 56.995905 L 559.683305 59.517905 L 563.899305 62.039905 L 568.115305 64.561905 L 572.331305 67.083905 L 576.538305 69.619805 L 580.708305 72.216605 L 584.839305 74.875105 L 588.960305 77.549005 L 593.069305 80.240905 L 597.154305 82.970205 L 601.225305 85.720305 L 605.295305 88.470305 L 609.366305 91.220305 L 613.448305 93.953505 L 617.560305 96.640505 L 621.689305 99.303405 L 625.817305 101.965305 L 629.946305 104.628305 L 634.074305 107.291305 L 638.193305 109.968305 L 642.279305 112.695305 L 646.337305 115.464305 L 650.395305 118.232305 L 654.454305 120.999305 L 658.522305 123.753305 L 662.641305 126.431305 L 666.784305 129.070305 L 670.953305 131.669305" fill="none" id="1" stroke="#c583d9" stroke-width="0.5" /><path d="M 466.134305 11.220705 L 470.763305 12.948505 L 475.317305 14.863305 L 479.758305 17.028405 L 484.101305 19.385305 L 488.439305 21.750705 L 492.777305 24.116105 L 497.114305 26.483105 L 501.442305 28.865605 L 505.753305 31.280705 L 510.057305 33.707605 L 514.361305 36.134405 L 518.665305 38.561305 L 522.968305 40.988105 L 527.272305 43.415005 L 531.576305 45.841805 L 535.880305 48.268705 L 540.186305 50.691405 L 544.504305 53.093305 L 548.840305 55.461705 L 553.187305 57.811905 L 557.533305 60.161105 L 561.880305 62.510305 L 566.227305 64.859405 L 570.573305 67.209505 L 574.911305 69.575405 L 579.223305 71.987705 L 583.515305 74.435905 L 587.804305 76.889105 L 592.093305 79.342305 L 596.381305 81.795605 L 600.670305 84.248805 L 604.960305 86.701005 L 609.264305 89.127205 L 613.595305 91.504905 L 617.942305 93.853505 L 622.292305 96.196805 L 626.642305 98.540005 L 630.992305 100.883305 L 635.342305 103.226305 L 639.692305 105.569305 L 644.042305 107.913305 L 648.382305 110.274305 L 652.688305 112.698305 L 656.952305 115.194305 L 661.207305 117.704305 L 665.463305 120.215305 L 669.712305 122.737305 L 673.933305 125.305305 L 678.149305 127.882305 L 682.364305 130.459305 L 686.580305 133.037305 L 690.795305 135.614305" fill="none" id="2" stroke="#c583d9" stroke-width="0.5" /><path d="M 272.338305 50.787605 L 276.292305 53.765605 L 280.253305 56.733405 L 284.230305 59.680705 L 288.241305 62.579905 L 292.246305 65.488705 L 296.250305 68.397605 L 300.255305 71.306505 L 304.210305 74.283105 L 308.144305 77.285705 L 312.077305 80.290605 L 316.010305 83.295505 L 319.944305 86.300305 L 323.877305 89.305205 L 327.810305 92.310105 L 331.743305 95.315005 L 335.678305 98.317505 L 339.646305 101.275305 L 343.630305 104.212305 L 347.616305 107.147305 L 351.602305 110.082305 L 355.587305 113.016305 L 359.573305 115.951305 L 363.559305 118.886305 L 367.544305 121.821305 L 371.521305 124.767305 L 375.478305 127.741305 L 379.426305 130.726305 L 383.375305 133.711305 L 387.323305 136.696305 L 391.271305 139.680305 L 395.219305 142.665305 L 399.168305 145.649305 L 403.133305 148.612305 L 407.127305 151.536305 L 411.135305 154.440305 L 415.143305 157.344305 L 419.151305 160.248305 L 423.159305 163.152305 L 427.168305 166.056305 L 431.176305 168.960305 L 435.184305 171.864305 L 439.192305 174.768305 L 443.200305 177.672305 L 447.208305 180.576305 L 451.217305 183.480305 L 455.225305 186.384305 L 459.233305 189.288305 L 463.241305 192.192305 L 467.249305 195.096305 L 471.257305 198.000305 L 475.265305 200.904305 L 479.274305 203.808305 L 483.282305 206.712305 L 487.290305 209.616305 L 491.298305 212.520305 L 495.306305 215.424305 L 499.306305 218.339305 L 503.267305 221.307305 L 507.179305 224.339305 L 511.087305 227.376305 L 514.996305 230.413305 L 518.904305 233.451305 L 522.812305 236.488305 L 526.720305 239.525305 L 530.629305 242.562305 L 534.544305 245.590305 L 538.486305 248.583305 L 542.443305 251.556305 L 546.401305 254.529305 L 550.358305 257.502305 L 554.315305 260.474305 L 558.273305 263.447305 L 562.230305 266.420305 L 566.188305 269.393305 L 570.145305 272.366305 L 574.102305 275.338305" fill="none" id="3" stroke="#f375a0" stroke-width="0.5" /><path d="M 458.858305 18.897905 L 462.804305 21.820605 L 466.775305 24.708705 L 470.805305 27.513605 L 474.815305 30.347505 L 478.841305 33.157705 L 482.951305 35.845305 L 487.130305 38.422105 L 491.319305 40.985005 L 495.507305 43.548005 L 499.695305 46.110905 L 503.883305 48.673905 L 508.071305 51.236805 L 512.260305 53.799905 L 516.441305 56.374705 L 520.596305 58.990105 L 524.736305 61.630405 L 528.869305 64.282305 L 532.983305 66.961705 L 537.084305 69.663305 L 541.180305 72.370205 L 545.277305 75.077105 L 549.373305 77.784105 L 553.470305 80.491005 L 557.567305 83.197905 L 561.663305 85.904905 L 565.760305 88.611805 L 569.857305 91.318705 L 573.953305 94.025705 L 578.050305 96.732605 L 582.147305 99.439505 L 586.243305 102.146305 L 590.340305 104.853305 L 594.437305 107.560305 L 598.533305 110.267305 L 602.624305 112.982305 L 606.695305 115.728305 L 610.756305 118.489305 L 614.804305 121.267305 L 618.789305 124.136305 L 622.741305 127.050305 L 626.693305 129.964305 L 630.645305 132.878305 L 634.597305 135.792305 L 638.615305 138.615305 L 642.697305 141.343305 L 646.827305 144.000305" fill="none" id="4" stroke="#ad5ba7" stroke-width="0.5" /><path d="M 440.087305 16.204905 L 444.584305 18.262705 L 449.072305 20.340805 L 453.558305 22.424005 L 458.010305 24.578205 L 462.428305 26.802105 L 466.843305 29.031705 L 471.257305 31.261305 L 475.672305 33.490905 L 480.087305 35.720505 L 484.502305 37.950105 L 488.917305 40.179705 L 493.329305 42.413905 L 497.720305 44.691005 L 502.097305 46.993805 L 506.471305 49.301105 L 510.841305 51.618605 L 515.177305 53.998105 L 519.497305 56.406505 L 523.816305 58.815505 L 528.132305 61.231905 L 532.423305 63.690605 L 536.694305 66.184805 L 540.960305 68.686805 L 545.203305 71.229205 L 549.420305 73.813205 L 553.633305 76.403605 L 557.846305 78.994005 L 562.060305 81.584405 L 566.273305 84.174905 L 570.486305 86.765305 L 574.699305 89.355705 L 578.913305 91.946105 L 583.126305 94.536505 L 587.339305 97.126905 L 591.571305 99.687105 L 595.859305 102.152305 L 600.183305 104.552305 L 604.517305 106.936305 L 608.880305 109.265305 L 613.254305 111.573305 L 617.628305 113.881305 L 622.003305 116.189305 L 626.377305 118.497305 L 630.750305 120.808305 L 635.109305 123.145305 L 639.449305 125.517305 L 643.789305 127.889305 L 648.143305 130.236305 L 652.530305 132.519305 L 656.937305 134.764305" fill="none" id="5" stroke="#ad5ba7" stroke-width="0.5" /><path d="M 450.890305 17.315205 L 455.094305 19.990605 L 459.312305 22.645505 L 463.544305 25.276505 L 467.799305 27.871505 L 472.076305 30.429405 L 476.390305 32.924105 L 480.715305 35.399205 L 485.042305 37.872305 L 489.368305 40.345405 L 493.695305 42.818505 L 498.021305 45.291605 L 502.348305 47.764605 L 506.675305 50.237705 L 511.001305 52.710805 L 515.328305 55.183905 L 519.654305 57.657005 L 523.981305 60.130105 L 528.307305 62.603105 L 532.633305 65.077905 L 536.954305 67.561505 L 541.266305 70.059305 L 545.574305 72.564205 L 549.882305 75.069105 L 554.191305 77.574005 L 558.499305 80.078905 L 562.807305 82.583705 L 567.115305 85.088605 L 571.422305 87.597105 L 575.717305 90.123605 L 579.998305 92.675205 L 584.273305 95.236705 L 588.547305 97.798705 L 592.822305 100.359305 L 597.106305 102.906305 L 601.417305 105.406305 L 605.740305 107.886305 L 610.064305 110.364305 L 614.387305 112.842305 L 618.711305 115.321305 L 623.034305 117.799305 L 627.358305 120.278305 L 631.657305 122.798305 L 635.920305 125.379305 L 640.172305 127.978305 L 644.378305 130.651305 L 648.523305 133.418305 L 652.622305 136.252305" fill="none" id="6" stroke="#ad5ba7" stroke-width="0.5" /><path d="M 179.740305 310.323305 L 182.926305 313.573305 L 185.855305 317.057305 L 188.423305 320.814305 L 190.620305 324.800305 L 192.668305 328.865305 L 194.696305 332.940305 L 196.723305 337.016305 L 198.750305 341.091305 L 200.778305 345.167305 L 202.805305 349.242305 L 204.832305 353.317305 L 206.860305 357.393305 L 208.887305 361.468305 L 210.914305 365.544305 L 212.942305 369.619305 L 214.969305 373.694305 L 216.996305 377.770305 L 219.024305 381.845305 L 221.082305 385.905305 L 223.200305 389.934305 L 225.351305 393.945305 L 227.502305 397.957305 L 229.653305 401.968305 L 231.804305 405.980305 L 233.937305 410.001305 L 235.979305 414.069305 L 237.851305 418.218305 L 239.281305 422.539305 L 240.404305 426.950305 L 241.377305 431.397305 L 242.197305 435.874305" fill="none" id="7" stroke="#58f2c3" stroke-width="0.5" /><path d="M 21.189205 189.661305 L 24.672605 193.170305 L 28.180005 196.655305 L 31.674705 200.153305 L 35.127805 203.692305 L 38.632505 207.179305 L 42.133305 210.671305 L 45.567405 214.228305 L 48.903905 217.877305 L 52.200105 221.562305 L 55.450905 225.287305 L 58.677605 229.034305 L 61.900205 232.783305 L 65.122905 236.533305 L 68.346505 240.282305 L 71.590305 244.014305 L 74.906605 247.681305 L 78.270705 251.304305 L 81.643905 254.919305 L 85.017005 258.534305 L 88.390205 262.149305 L 91.763405 265.764305 L 95.141705 269.375305 L 98.541405 272.965305 L 101.968305 276.529305 L 105.407305 280.081305 L 108.846305 283.633305 L 112.286305 287.185305 L 115.725305 290.738305 L 119.164305 294.290305 L 122.603305 297.843305 L 126.036305 301.401305 L 129.456305 304.971305 L 132.868305 308.550305 L 136.277305 312.131305 L 139.687305 315.712305 L 143.097305 319.292305 L 146.506305 322.873305 L 149.916305 326.453305 L 153.328305 330.032305 L 156.757305 333.594305 L 160.221305 337.121305 L 163.705305 340.630305 L 167.190305 344.137305 L 170.675305 347.645305 L 174.161305 351.152305 L 177.646305 354.659305 L 181.131305 358.166305 L 184.616305 361.673305 L 188.071305 365.210305 L 191.460305 368.809305 L 194.822305 372.435305 L 198.182305 376.062305 L 201.542305 379.690305 L 204.902305 383.317305 L 208.262305 386.945305 L 211.621305 390.572305 L 214.989305 394.193305 L 218.373305 397.798305 L 221.764305 401.395305 L 225.157305 404.992305 L 228.550305 408.589305 L 231.942305 412.186305 L 235.335305 415.782305 L 238.727305 419.379305 L 242.120305 422.976305 L 245.435305 426.644305 L 248.863305 430.207305 L 252.343305 433.719305 L 255.835305 437.220305" fill="none" id="8" stroke="#c94e76" stroke-width="0.5" /><path d="M 0.307305 169.323305 L 3.403795 173.218305 L 6.585905 177.044305 L 9.872575 180.781305 L 13.150205 184.525305 L 16.453705 188.247305 L 19.757205 191.968305 L 23.060705 195.690305 L 26.365605 199.410305 L 29.693705 203.110305 L 33.098905 206.739305 L 36.518805 210.353305 L 39.939605 213.968305 L 43.360305 217.582305 L 46.781105 221.196305 L 50.201805 224.810305 L 53.622605 228.424305 L 57.043405 232.038305 L 60.464105 235.652305 L 63.887105 239.264305 L 67.323905 242.863305 L 70.781005 246.443305 L 74.243505 250.017305 L 77.706805 253.590305 L 81.178605 257.155305 L 84.675805 260.695305 L 88.182605 264.226305 L 91.690205 267.756305 L 95.197705 271.286305 L 98.705305 274.816305 L 102.213305 278.346305 L 105.720305 281.876305 L 109.228305 285.406305 L 112.735305 288.936305 L 116.243305 292.466305 L 119.750305 295.996305 L 123.254305 299.530305 L 126.748305 303.073305 L 130.237305 306.621305 L 133.724305 310.171305 L 137.211305 313.722305 L 140.697305 317.273305 L 144.183305 320.824305 L 147.669305 324.375305 L 151.155305 327.926305 L 154.642305 331.477305 L 158.132305 335.024305 L 161.642305 338.552305 L 165.180305 342.051305 L 168.734305 345.534305 L 172.292305 349.013305 L 175.849305 352.493305 L 179.407305 355.973305 L 182.965305 359.452305 L 186.520305 362.934305 L 190.061305 366.430305 L 193.578305 369.951305 L 197.077305 373.489305 L 200.572305 377.032305 L 204.066305 380.574305 L 207.561305 384.117305 L 211.056305 387.659305 L 214.552305 391.201305 L 218.059305 394.731305 L 221.589305 398.239305 L 225.136305 401.729305 L 228.687305 405.215305 L 232.238305 408.701305 L 235.789305 412.188305 L 239.340305 415.674305 L 242.890305 419.162305 L 246.429305 422.660305 L 249.946305 426.181305 L 253.448305 429.716305 L 256.948305 433.253305 L 260.448305 436.791305 L 263.948305 440.329305 L 267.448305 443.866305 L 270.947305 447.404305 L 274.447305 450.941305 L 277.947305 454.479305 L 281.447305 458.016305 L 284.947305 461.554305 L 288.447305 465.091305 L 291.947305 468.629305 L 295.447305 472.166305 L 298.947305 475.704305 L 302.447305 479.241305 L 305.949305 482.776305 L 309.485305 486.278305 L 313.050305 489.750305 L 316.618305 493.219305 L 320.186305 496.688305 L 323.754305 500.157305 L 327.322305 503.625305 L 330.890305 507.094305" fill="none" id="9" stroke="#c94e76" stroke-width="0.5" /><path d="M 23.173405 193.583305 L 22.795205 193.249305 L 22.417005 192.916305 L 22.038705 192.582305 L 21.660505 192.249305 L 21.282305 191.915305 L 20.904005 191.582305 L 20.525805 191.248305 L 20.147705 190.915305 L 19.770005 190.581305 L 19.391605 190.248305 L 19.011605 189.916305 L 18.630905 189.586305 L 18.249005 189.256305 L 17.865705 188.929305 L 17.480505 188.603305 L 17.095905 188.277305 L 16.712005 187.950305 L 16.331805 187.619305 L 15.954505 187.285305 L 15.578605 186.949305 L 15.203405 186.612305 L 14.836005 186.266305 L 14.472205 185.917305 L 14.109805 185.567305 L 13.750305 185.213305 L 13.442705 184.814305 L 13.135005 184.414305 L 12.856005 183.995305 L 12.581105 183.572305 L 12.306105 183.149305 L 12.031205 182.727305" fill="none" id="10" stroke="#c94e76" stroke-width="0.5" /><path d="M 12.031205 182.727305 L 13.633005 184.494305 L 15.250105 186.248305 L 16.882605 187.987305 L 18.560405 189.683305 L 20.252705 191.364305 L 21.959405 193.031305 L 23.667105 194.696305 L 25.374805 196.362305 L 27.082505 198.027305 L 28.790305 199.693305 L 30.498005 201.359305 L 32.205805 203.024305 L 33.913505 204.690305 L 35.621305 206.355305 L 37.329005 208.021305 L 39.036805 209.686305 L 40.744505 211.352305 L 42.452305 213.017305 L 44.160005 214.683305 L 45.866005 216.350305 L 47.570105 218.020305 L 49.253005 219.710305 L 50.912005 221.424305 L 52.547305 223.161305 L 54.126405 224.949305 L 55.653905 226.780305 L 57.130005 228.654305 L 58.560705 230.563305 L 59.966205 232.490305 L 61.346705 234.435305" fill="none" id="11" stroke="#c94e76" stroke-width="0.5" /><path d="M 241.756305 422.457305 L 244.029305 424.357305 L 246.281305 426.281305 L 248.515305 428.228305 L 250.717305 430.209305 L 252.887305 432.227305 L 255.057305 434.244305 L 257.227305 436.261305 L 259.397305 438.278305 L 261.578305 440.283305 L 263.777305 442.268305 L 265.995305 444.233305 L 268.223305 446.186305 L 270.453305 448.137305 L 272.689305 450.081305 L 274.942305 452.005305 L 277.218305 453.901305 L 279.516305 455.771305 L 281.825305 457.627305 L 284.134305 459.484305 L 286.443305 461.340305 L 288.752305 463.197305 L 291.061305 465.053305 L 293.370305 466.910305 L 295.679305 468.766305 L 297.988305 470.622305 L 300.297305 472.479305 L 302.549305 474.402305 L 304.713305 476.424305 L 306.784305 478.542305 L 308.779305 480.732305" fill="none" id="12" stroke="#c94e76" stroke-width="0.5" /><path d="M 234.543305 61.512005 L 238.863305 63.963505 L 243.132305 66.503305 L 247.297305 69.210605 L 251.337305 72.099205 L 255.354305 75.021705 L 259.294305 78.046405 L 263.234305 81.071105 L 267.174305 84.095705 L 271.114305 87.120405 L 275.054305 90.145105 L 278.994305 93.169905 L 282.904305 96.233805 L 286.795305 99.320905 L 290.686305 102.408305 L 294.577305 105.496305 L 298.468305 108.584305 L 302.358305 111.673305 L 306.203305 114.817305 L 309.958305 118.068305 L 313.713305 121.320305 L 317.466305 124.574305 L 321.177305 127.876305 L 324.860305 131.209305 L 328.543305 134.542305 L 332.225305 137.875305 L 335.908305 141.208305 L 339.591305 144.541305 L 343.274305 147.874305 L 346.958305 151.206305 L 350.672305 154.505305 L 354.438305 157.743305 L 358.204305 160.982305 L 361.970305 164.221305 L 365.737305 167.459305 L 369.503305 170.698305 L 373.269305 173.937305 L 377.035305 177.176305 L 380.801305 180.414305 L 384.567305 183.653305 L 388.333305 186.892305 L 392.099305 190.130305 L 395.865305 193.369305 L 399.632305 196.608305 L 403.419305 199.821305 L 407.267305 202.963305 L 411.130305 206.085305 L 414.993305 209.208305 L 418.856305 212.331305 L 422.718305 215.453305 L 426.581305 218.576305 L 430.444305 221.699305 L 434.293305 224.839305 L 438.128305 227.995305 L 441.964305 231.151305 L 445.800305 234.307305 L 449.635305 237.464305 L 453.471305 240.620305 L 457.306305 243.776305 L 461.142305 246.932305 L 464.977305 250.088305 L 468.813305 253.245305 L 472.648305 256.401305 L 476.484305 259.557305 L 480.319305 262.713305 L 484.155305 265.869305 L 487.990305 269.026305 L 491.799305 272.214305 L 495.607305 275.403305 L 499.416305 278.592305 L 503.224305 281.781305 L 507.002305 285.005305 L 510.759305 288.255305 L 514.516305 291.504305 L 518.273305 294.753305 L 522.030305 298.003305 L 525.787305 301.252305" fill="none" id="13" stroke="#57b870" stroke-width="0.5" /><path d="M 259.079305 69.543505 L 263.031305 72.530905 L 266.907305 75.617905 L 270.696305 78.809705 L 274.360305 82.145205 L 277.979305 85.528805 L 281.597305 88.914405 L 285.214305 92.300005 L 288.833305 95.684105 L 292.494305 99.022105 L 296.186305 102.327305 L 299.880305 105.629305 L 303.574305 108.930305 L 307.268305 112.232305 L 310.963305 115.533305 L 314.626305 118.870305 L 318.251305 122.246305 L 321.868305 125.633305 L 325.483305 129.021305 L 329.099305 132.408305 L 332.715305 135.796305 L 336.330305 139.183305 L 339.946305 142.571305 L 343.625305 145.889305 L 347.377305 149.125305 L 351.152305 152.335305 L 354.927305 155.543305 L 358.703305 158.751305 L 362.479305 161.959305 L 366.255305 165.167305 L 370.031305 168.375305 L 373.806305 171.583305 L 377.575305 174.800305 L 381.314305 178.050305 L 385.036305 181.321305 L 388.758305 184.591305 L 392.479305 187.862305 L 396.211305 191.121305 L 399.971305 194.348305 L 403.750305 197.552305 L 407.530305 200.755305 L 411.311305 203.957305 L 415.098305 207.151305 L 418.907305 210.320305 L 422.735305 213.466305 L 426.566305 216.608305 L 430.396305 219.751305 L 434.227305 222.893305 L 438.035305 226.063305 L 441.804305 229.278305 L 445.570305 232.499305 L 449.335305 235.719305 L 453.100305 238.940305 L 456.865305 242.160305 L 460.630305 245.381305 L 464.395305 248.601305 L 468.161305 251.822305 L 471.926305 255.043305 L 475.683305 258.272305 L 479.412305 261.534305 L 483.121305 264.820305 L 486.829305 268.106305 L 490.536305 271.393305 L 494.244305 274.679305 L 497.951305 277.966305 L 501.657305 281.255305 L 505.346305 284.563305 L 509.004305 287.904305 L 512.655305 291.254305 L 516.305305 294.604305 L 519.955305 297.954305 L 523.605305 301.305305 L 527.256305 304.655305 L 530.906305 308.005305 L 534.556305 311.355305 L 538.207305 314.705305 L 541.857305 318.055305 L 545.507305 321.406305 L 549.157305 324.756305" fill="none" id="14" stroke="#57b870" stroke-width="0.5" /><path d="M 263.268305 410.079305 L 262.084305 410.842305 L 260.900305 411.605305 L 259.701305 412.346305 L 258.503305 413.086305 L 257.284305 413.792305 L 256.064305 414.498305 L 254.822305 415.162305 L 253.580305 415.826305 L 252.329305 416.475305 L 251.078305 417.123305 L 249.817305 417.750305 L 248.555305 418.377305 L 247.286305 418.988305 L 246.017305 419.599305 L 244.743305 420.201305 L 243.470305 420.803305 L 242.195305 421.403305 L 240.920305 422.003305 L 239.646305 422.604305 L 238.372305 423.205305 L 237.098305 423.805305 L 235.823305 424.406305 L 234.549305 425.007305 L 233.275305 425.608305 L 232.001305 426.209305 L 230.727305 426.809305 L 229.452305 427.410305 L 228.178305 428.011305 L 226.904305 428.612305 L 225.630305 429.213305" fill="none" id="15" stroke="#d271bb" stroke-width="0.5" /><path d="M 140.056305 281.900305 L 139.955305 283.639305 L 139.857305 285.378305 L 139.774305 287.117305 L 139.696305 288.857305 L 139.631305 290.598305 L 139.580305 292.339305 L 139.550305 294.081305 L 139.533305 295.822305 L 139.529305 297.564305 L 139.530305 299.306305 L 139.533305 301.048305 L 139.536305 302.790305 L 139.539305 304.531305 L 139.542305 306.273305 L 139.545305 308.015305 L 139.574305 309.757305 L 139.608305 311.498305 L 139.675305 313.239305 L 139.745305 314.979305 L 139.822305 316.719305 L 139.893305 318.459305 L 139.953305 320.200305 L 139.996305 321.941305 L 140.022305 323.683305 L 140.036305 325.425305 L 140.043305 327.167305 L 140.049305 328.908305 L 140.055305 330.650305 L 140.055305 332.392305 L 140.055305 334.134305" fill="none" id="16" stroke="#3d8e43" stroke-width="0.5" /><path d="M 297.157305 61.252205 L 300.997305 64.359805 L 304.849305 67.451305 L 308.727305 70.509505 L 312.641305 73.522905 L 316.547305 76.545705 L 320.454305 79.568405 L 324.360305 82.591205 L 328.266305 85.613905 L 332.173305 88.636705 L 336.090305 91.645405 L 340.040305 94.610505 L 344.005305 97.555505 L 347.972305 100.498305 L 351.939305 103.441305 L 355.906305 106.383305 L 359.873305 109.326305 L 363.840305 112.269305 L 367.807305 115.211305 L 371.741305 118.198305 L 375.629305 121.245305 L 379.501305 124.311305 L 383.371305 127.380305 L 387.223305 130.472305 L 391.041305 133.605305 L 394.845305 136.756305 L 398.647305 139.910305 L 402.456305 143.053305 L 406.315305 146.136305 L 410.206305 149.179305 L 414.102305 152.216305 L 417.997305 155.252305 L 421.893305 158.289305 L 425.788305 161.325305 L 429.684305 164.362305 L 433.580305 167.398305 L 437.474305 170.436305 L 441.338305 173.513305 L 445.156305 176.647305 L 448.957305 179.801305 L 452.758305 182.955305 L 456.559305 186.109305 L 460.360305 189.263305 L 464.161305 192.417305 L 467.962305 195.571305 L 471.763305 198.725305 L 475.564305 201.880305 L 479.366305 205.034305 L 483.167305 208.188305 L 486.968305 211.342305 L 490.769305 214.496305 L 494.570305 217.650305 L 498.371305 220.804305 L 502.168305 223.963305 L 505.941305 227.150305 L 509.681305 230.377305 L 513.416305 233.609305 L 517.152305 236.840305 L 520.887305 240.072305 L 524.622305 243.303305 L 528.358305 246.535305 L 532.094305 249.766305 L 535.837305 252.989305 L 539.595305 256.194305 L 543.360305 259.391305 L 547.125305 262.588305 L 550.890305 265.785305 L 554.656305 268.981305 L 558.421305 272.178305 L 562.186305 275.375305 L 565.958305 278.563305 L 569.789305 281.681305 L 573.674305 284.731305 L 577.566305 287.772305 L 581.487305 290.776305 L 585.486305 293.676305 L 589.535305 296.504305" fill="none" id="17" stroke="#00d4db" stroke-width="0.5" /><path d="M 397.693305 33.307305 L 402.038305 35.779705 L 406.384305 38.252005 L 410.729305 40.724405 L 415.075305 43.196805 L 419.421305 45.669105 L 423.766305 48.141505 L 428.114305 50.609405 L 432.482305 53.041605 L 436.864305 55.449405 L 441.247305 57.854205 L 445.631305 60.258905 L 450.009305 62.673105 L 454.359305 65.137005 L 458.681305 67.651105 L 462.996305 70.176205 L 467.311305 72.701305 L 471.626305 75.226405 L 475.941305 77.751405 L 480.256305 80.276505 L 484.571305 82.801605 L 488.887305 85.326705 L 493.202305 87.851805 L 497.517305 90.376905 L 501.832305 92.901905 L 506.147305 95.427005 L 510.462305 97.952105 L 514.775305 100.481305 L 519.079305 103.024305 L 523.377305 105.579305 L 527.673305 108.137305 L 531.969305 110.695305 L 536.264305 113.253305 L 540.560305 115.811305 L 544.856305 118.369305 L 549.151305 120.927305 L 553.447305 123.485305 L 557.743305 126.043305 L 562.038305 128.601305 L 566.334305 131.159305 L 570.630305 133.717305 L 574.925305 136.275305 L 579.221305 138.833305 L 583.517305 141.391305 L 587.813305 143.949305 L 592.108305 146.507305 L 596.404305 149.065305 L 600.708305 151.609305 L 605.056305 154.078305 L 609.421305 156.514305 L 613.788305 158.948305 L 618.156305 161.382305 L 622.523305 163.816305 L 626.890305 166.250305 L 631.258305 168.683305 L 635.625305 171.117305 L 639.992305 173.551305" fill="none" id="18" stroke="#d55969" stroke-width="0.5" /><path d="M 406.543305 25.748305 L 408.614305 27.420005 L 410.698305 29.073405 L 412.828305 30.668605 L 414.996305 32.211405 L 417.203305 33.697605 L 419.457305 35.111505 L 421.729305 36.497205 L 424.004305 37.877405 L 426.279305 39.257205 L 428.555305 40.637105 L 430.830305 42.016905 L 433.106305 43.396805 L 435.381305 44.776605 L 437.656305 46.156505 L 439.932305 47.536405 L 442.207305 48.916205 L 444.483305 50.296105 L 446.758305 51.675905 L 449.033305 53.055805 L 451.307305 54.439405 L 453.578305 55.825505 L 455.836305 57.233505 L 458.090305 58.648405 L 460.321305 60.098305 L 462.553305 61.548205 L 464.784305 62.998005 L 467.016305 64.447905 L 469.247305 65.897805 L 471.479305 67.347705 L 473.710305 68.797605" fill="none" id="19" stroke="#d55969" stroke-width="0.5" /><path d="M 473.710305 68.797605 L 478.064305 71.147105 L 482.308305 73.684505 L 486.477305 76.349905 L 490.658305 78.994605 L 494.839305 81.639405 L 499.020305 84.284105 L 503.201305 86.929305 L 507.379305 89.579705 L 511.543305 92.250205 L 515.695305 94.940805 L 519.844305 97.635505 L 523.993305 100.331305 L 528.136305 103.036305 L 532.273305 105.748305 L 536.409305 108.464305 L 540.544305 111.180305 L 544.679305 113.895305 L 548.815305 116.611305 L 552.950305 119.327305 L 557.086305 122.043305 L 561.221305 124.758305 L 565.357305 127.474305 L 569.488305 130.197305 L 573.599305 132.948305 L 577.694305 135.725305 L 581.784305 138.509305 L 585.874305 141.293305 L 589.964305 144.076305 L 594.054305 146.860305 L 598.144305 149.644305 L 602.235305 152.426305 L 606.333305 155.198305 L 610.441305 157.955305 L 614.552305 160.707305 L 618.663305 163.460305 L 622.774305 166.212305 L 626.885305 168.965305 L 630.996305 171.717305 L 635.107305 174.470305 L 639.218305 177.223305 L 643.329305 179.975305 L 647.440305 182.728305 L 651.551305 185.480305" fill="none" id="20" stroke="#d55969" stroke-width="0.5" /><path d="M 404.370305 31.464805 L 407.256305 33.179105 L 410.145305 34.888605 L 413.035305 36.594405 L 415.927305 38.298505 L 418.832305 39.980005 L 421.748305 41.643105 L 424.675305 43.286505 L 427.607305 44.919405 L 430.540305 46.552105 L 433.473305 48.184805 L 436.406305 49.817505 L 439.339305 51.450205 L 442.271305 53.083005 L 445.204305 54.715705 L 448.137305 56.348405 L 451.070305 57.981105 L 454.002305 59.613805 L 456.935305 61.246505 L 459.866305 62.882505 L 462.783305 64.542705 L 465.675305 66.247305 L 468.548305 67.982205 L 471.419305 69.722005 L 474.288305 71.464305 L 477.157305 73.206605 L 480.026305 74.949005 L 482.892305 76.696405 L 485.751305 78.454605 L 488.607305 80.218805 L 491.458305 81.990705" fill="none" id="21" stroke="#d55969" stroke-width="0.5" /><path d="M 491.458305 81.990705 L 495.677305 84.653505 L 499.900305 87.310405 L 504.128305 89.959505 L 508.360305 92.601405 L 512.593305 95.243305 L 516.821305 97.891405 L 521.024305 100.579305 L 525.199305 103.312305 L 529.365305 106.056305 L 533.531305 108.802305 L 537.697305 111.548305 L 541.863305 114.293305 L 546.024305 117.046305 L 550.162305 119.834305 L 554.266305 122.671305 L 558.355305 125.530305 L 562.442305 128.391305 L 566.529305 131.252305 L 570.616305 134.114305 L 574.704305 136.975305 L 578.791305 139.836305 L 582.878305 142.698305 L 586.965305 145.559305 L 591.053305 148.420305 L 595.141305 151.281305 L 599.244305 154.118305 L 603.406305 156.871305 L 607.621305 159.539305 L 611.847305 162.191305 L 616.073305 164.843305 L 620.309305 167.480305 L 624.577305 170.064305 L 628.859305 172.624305 L 633.157305 175.157305" fill="none" id="22" stroke="#d55969" stroke-width="0.5" /><path d="M 376.276305 129.000305 L 381.206305 128.675305 L 386.137305 128.365305 L 391.069305 128.076305 L 396.002305 127.797305 L 400.933305 127.497305 L 405.865305 127.195305 L 410.797305 126.905305 L 415.733305 126.698305 L 420.673305 126.629305 L 425.614305 126.631305 L 430.554305 126.690305 L 435.493305 126.841305 L 440.431305 126.968305 L 445.369305 126.867305 L 450.286305 126.422305 L 455.181305 125.749305 L 460.078305 125.094305 L 464.992305 124.590305 L 469.924305 124.344305 L 474.864305 124.289305 L 479.805305 124.267305 L 484.746305 124.244305 L 489.686305 124.202305 L 494.612305 123.872305 L 499.509305 123.226305 L 504.399305 122.518305 L 509.315305 122.058305 L 514.250305 121.821305 L 519.176305 121.448305 L 524.086305 120.900305 L 529.011305 120.523305 L 533.945305 120.260305" fill="none" id="23" stroke="#64e4ff" stroke-width="0.5" /><path d="M 649.756305 40.299405 L 645.152305 42.175905 L 640.548305 44.052305 L 635.944305 45.928805 L 631.341305 47.805205 L 626.737305 49.681705 L 622.133305 51.558205 L 617.529305 53.434605 L 612.925305 55.311105 L 608.321305 57.187505 L 603.718305 59.064005 L 599.114305 60.940405 L 594.510305 62.816905 L 589.906305 64.693805 L 585.305305 66.575805 L 580.739305 68.540805 L 576.200305 70.568805 L 571.691305 72.664205 L 567.186305 74.766705 L 562.703305 76.914705 L 558.259305 79.143105 L 553.856305 81.452605 L 549.481305 83.812805 L 545.133305 86.222705 L 540.822305 88.698605 L 536.512305 91.176805 L 532.208305 93.665105 L 527.927305 96.193705 L 523.677305 98.771705 L 519.436305 101.367305 L 515.196305 103.962305 L 510.956305 106.558305 L 506.716305 109.154305 L 502.476305 111.750305 L 498.236305 114.345305 L 493.996305 116.942305 L 489.760305 119.543305 L 485.534305 122.163305 L 481.318305 124.798305 L 477.106305 127.438305 L 472.894305 130.079305 L 468.681305 132.720305 L 464.469305 135.360305 L 460.257305 138.001305 L 456.041305 140.635305 L 451.805305 143.239305 L 447.548305 145.805305 L 443.237305 148.282305 L 438.926305 150.759305 L 434.615305 153.234305 L 430.302305 155.708305 L 425.990305 158.181305 L 421.677305 160.655305 L 417.365305 163.128305 L 413.052305 165.602305 L 408.740305 168.075305 L 404.427305 170.548305 L 400.114305 173.020305 L 395.798305 175.488305 L 391.478305 177.950305 L 387.151305 180.398305 L 382.791305 182.785305 L 378.416305 185.148305 L 374.036305 187.498305 L 369.641305 189.823305 L 365.237305 192.129305 L 360.823305 194.417305 L 356.408305 196.704305 L 351.993305 198.989305 L 347.577305 201.272305 L 343.155305 203.543305 L 338.725305 205.800305 L 334.292305 208.051305 L 329.859305 210.302305 L 325.426305 212.553305 L 320.993305 214.803305 L 316.561305 217.054305 L 312.128305 219.305305 L 307.695305 221.556305 L 303.262305 223.807305 L 298.829305 226.057305 L 294.396305 228.308305 L 289.965305 230.562305 L 285.539305 232.826305 L 281.130305 235.124305 L 276.728305 237.434305 L 272.328305 239.748305 L 267.929305 242.063305 L 263.529305 244.378305 L 259.129305 246.693305 L 254.730305 249.008305 L 250.330305 251.323305 L 245.930305 253.638305 L 241.530305 255.953305 L 237.133305 258.273305 L 232.747305 260.613305 L 228.382305 262.993305 L 224.070305 265.468305 L 219.766305 267.955305 L 215.462305 270.443305 L 211.158305 272.932305 L 206.854305 275.420305 L 202.550305 277.909305 L 198.246305 280.398305 L 193.943305 282.886305 L 189.639305 285.375305 L 185.335305 287.863305 L 181.031305 290.352305 L 176.727305 292.840305 L 172.422305 295.328305 L 168.105305 297.793305 L 163.775305 300.235305 L 159.433305 302.657305 L 155.087305 305.072305 L 150.742305 307.487305 L 146.396305 309.902305 L 142.051305 312.317305 L 137.705305 314.732305 L 133.360305 317.147305 L 129.014305 319.562305 L 124.669305 321.977305 L 120.320305 324.386305 L 115.967305 326.789305 L 111.603305 329.169305 L 107.236305 331.545305 L 102.867305 333.919305 L 98.499405 336.292305 L 94.131005 338.666305 L 89.762705 341.040305 L 85.394305 343.413305 L 81.026005 345.787305 L 76.657605 348.160305 L 72.289305 350.534305 L 67.920905 352.907305 L 63.575205 355.322305 L 59.255205 357.782305 L 54.988705 360.334305 L 50.737205 362.911305 L 46.471905 365.464305 L 42.159605 367.938305 L 37.824305 370.371305 L 33.479205 372.787305 L 29.126205 375.189305" fill="none" id="24" stroke="#e68e54" stroke-width="0.5" /><path d="M 541.063305 247.842305 L 538.623305 250.102305 L 536.239305 252.420305 L 533.922305 254.805305 L 531.684305 257.264305 L 529.559305 259.822305 L 527.472305 262.411305 L 525.411305 265.021305 L 523.367305 267.644305 L 521.358305 270.294305 L 519.351305 272.946305 L 517.345305 275.598305 L 515.338305 278.250305 L 513.331305 280.902305 L 511.325305 283.554305 L 509.287305 286.181305 L 507.191305 288.763305 L 504.965305 291.233305 L 502.716305 293.682305 L 500.460305 296.126305 L 498.205305 298.570305 L 495.949305 301.013305 L 495.985305 301.485305 L 493.754305 303.949305 L 491.467305 306.363305 L 489.153305 308.751305 L 486.829305 311.129305 L 484.505305 313.508305 L 482.180305 315.887305 L 479.856305 318.265305 L 477.532305 320.644305" fill="none" id="25" stroke="#54aeff" stroke-width="0.5" /><path d="M 483.081305 315.713305 L 482.570305 316.244305 L 482.059305 316.774305 L 481.546305 317.303305 L 481.033305 317.832305 L 480.520305 318.361305 L 480.006305 318.889305 L 479.493305 319.418305 L 478.979305 319.946305 L 478.464305 320.473305 L 477.949305 321.001305 L 477.434305 321.528305 L 476.919305 322.055305 L 476.404305 322.581305 L 475.889305 323.108305 L 475.373305 323.635305 L 474.858305 324.161305 L 474.343305 324.688305 L 473.827305 325.215305 L 473.312305 325.742305 L 472.797305 326.269305 L 472.282305 326.796305 L 471.767305 327.323305 L 471.254305 327.851305 L 470.740305 328.380305 L 470.227305 328.908305 L 469.713305 329.437305 L 469.200305 329.965305 L 468.687305 330.494305 L 468.175305 331.025305 L 467.664305 331.555305" fill="none" id="26" stroke="#54aeff" stroke-width="0.5" /><path d="M 472.893305 326.989305 L 471.960305 328.009305 L 471.027305 329.030305 L 470.091305 330.048305 L 469.156305 331.066305 L 468.219305 332.084305 L 467.283305 333.101305 L 466.346305 334.119305 L 465.409305 335.136305 L 464.465305 336.146305 L 463.521305 337.157305 L 462.576305 338.166305 L 461.631305 339.175305 L 460.679305 340.178305 L 459.727305 341.182305 L 458.774305 342.184305 L 457.821305 343.186305 L 456.867305 344.187305 L 455.914305 345.188305 L 454.952305 346.182305 L 453.990305 347.175305 L 453.027305 348.167305 L 452.063305 349.158305 L 451.086305 350.138305 L 450.110305 351.117305 L 449.131305 352.093305 L 448.152305 353.070305 L 447.170305 354.044305 L 446.188305 355.018305 L 445.200305 355.985305 L 444.213305 356.953305" fill="none" id="27" stroke="#54aeff" stroke-width="0.5" /><path d="M 540.905305 247.937305 L 537.146305 251.043305 L 533.486305 254.267305 L 529.922305 257.594305 L 526.595305 261.160305 L 523.346305 264.797305 L 520.177305 268.504305 L 517.054305 272.249305 L 513.937305 276.000305 L 510.807305 279.740305 L 507.630305 283.439305 L 504.426305 287.116305 L 501.212305 290.784305 L 497.940305 294.400305 L 494.618305 297.970305 L 491.283305 301.528305 L 487.947305 305.086305 L 484.612305 308.644305 L 481.277305 312.202305 L 477.941305 315.760305 L 474.606305 319.317305 L 471.271305 322.875305 L 467.936305 326.433305 L 464.600305 329.991305 L 461.265305 333.549305 L 457.929305 337.106305 L 454.581305 340.652305 L 451.201305 344.167305 L 447.800305 347.663305 L 444.395305 351.153305 L 440.963305 354.618305 L 437.493305 358.045305 L 434.018305 361.467305 L 430.543305 364.888305 L 427.068305 368.310305 L 423.593305 371.731305 L 420.118305 375.153305 L 416.643305 378.574305 L 413.168305 381.996305 L 409.693305 385.417305" fill="none" id="28" stroke="#eed973" stroke-width="0.5" /><path d="M 2.889985 186.307305 L 7.362775 184.125305 L 11.854405 181.983305 L 16.382205 179.918305 L 20.964705 177.978305 L 25.550805 176.046305 L 30.133505 174.105305 L 34.716205 172.165305 L 39.299005 170.225305 L 43.881705 168.285305 L 48.468005 166.353305 L 53.065905 164.449305 L 57.677305 162.578305 L 62.291705 160.714305 L 66.906305 158.851305 L 71.520805 156.988305 L 76.135405 155.124305 L 80.750005 153.261305 L 85.364505 151.398305 L 89.979105 149.535305 L 94.593605 147.671305 L 99.208205 145.808305 L 103.822305 143.945305 L 108.437305 142.081305 L 113.052305 140.218305 L 117.666305 138.355305 L 122.281305 136.492305 L 126.895305 134.628305 L 131.510305 132.765305 L 136.124305 130.902305 L 140.739305 129.039305 L 145.354305 127.175305 L 149.968305 125.312305 L 154.583305 123.449305 L 159.201305 121.596305 L 163.832305 119.774305 L 168.471305 117.971305 L 173.111305 116.172305 L 177.751305 114.374305 L 182.391305 112.575305 L 187.031305 110.776305 L 191.672305 108.978305 L 196.312305 107.179305 L 200.952305 105.381305 L 205.592305 103.582305 L 210.232305 101.783305 L 214.872305 99.985105 L 219.513305 98.186505 L 224.153305 96.387905 L 228.785305 94.568905 L 233.392305 92.688205 L 237.979305 90.758405 L 242.561305 88.815005 L 247.142305 86.871205 L 251.723305 84.927305 L 256.331305 83.048005 L 261.014305 81.374605 L 265.764305 79.888705 L 270.480305 78.306305 L 275.127305 76.524305 L 279.773305 74.742405 L 284.420305 72.960405 L 289.067305 71.178405 L 293.716305 69.405205 L 298.376305 67.656705 L 303.043305 65.928505 L 307.711305 64.204605 L 312.379305 62.480905 L 317.048305 60.757105 L 321.716305 59.033405 L 326.388305 57.317105 L 331.068305 55.627405 L 335.763305 53.974905 L 340.464305 52.343905 L 345.166305 50.713405 L 349.868305 49.082905 L 354.570305 47.452405 L 359.272305 45.821905 L 363.974305 44.191405 L 368.675305 42.560905 L 373.377305 40.930405 L 378.079305 39.300005 L 382.784305 37.679105 L 387.502305 36.093605 L 392.230305 34.543005 L 396.963305 33.005205 L 401.698305 31.472105 L 406.440305 29.962005 L 411.191305 28.483305 L 415.946305 27.012405 L 420.700305 25.541605 L 425.454305 24.070705 L 430.208305 22.599805 L 434.962305 21.128905 L 439.717305 19.659505 L 444.476305 18.203105 L 449.243305 16.774905 L 454.014305 15.358605 L 458.785305 13.944205 L 463.556305 12.529905 L 468.328305 11.115605 L 473.099305 9.701235 L 477.870305 8.286905 L 482.642305 6.872565 L 487.411305 5.450205 L 492.182305 4.036635 L 496.989305 2.747925 L 501.810305 1.513525 L 506.638305 0.307305" fill="none" id="29" stroke="#008bd4" stroke-width="0.5" /></svg>