<?xml version="1.0" encoding="utf-8" ?>
<svg baseProfile="full" height="676.5" version="1.1" viewBox="0,0,548.5,676.5" width="548.5" xmlns="http://www.w3.org/2000/svg" xmlns:ev="http://www.w3.org/2001/xml-events" xmlns:xlink="http://www.w3.org/1999/xlink"><defs><style type="text/css"><![CDATA[
	.background { fill: white; }
	.line { stroke: firebrick; stroke-width: .1mm; }
	.blacksquare { fill: indigo; }
	.whitesquare { fill: white; }
]]></style></defs><rect class="background" height="100%" width="100%" x="0" y="0" /><path d="M 282.646265 160.694694 L 276.231552 160.100654 L 270.132855 160.173448 L 264.298175 160.871142 L 258.675513 162.151803 L 253.212872 163.973494 L 247.858252 166.294283 L 242.559654 169.072235 L 237.265080 172.265414 L 232.542053 175.248677 L 227.469797 178.260640 L 222.118155 181.404793 L 216.679161 184.718659 L 211.344847 188.239763 L 206.307247 192.005628 L 201.758396 196.053778 L 197.890325 200.421736 L 194.895069 205.147028 L 193.846265 207.494694" fill="none" id="1" stroke="black" stroke-width="1.5" /><path d="M 211.846265 183.494694 L 207.317016 185.787693 L 202.884129 189.056943 L 198.592339 193.142870 L 194.486380 197.885899 L 190.610986 203.126457 L 187.010892 208.704968 L 183.730832 214.461860 L 180.815539 220.237556 L 178.309749 225.872483 L 176.258196 231.207067 L 174.705613 236.081734 L 174.646265 236.294694" fill="none" id="2" stroke="black" stroke-width="1.5" /><path d="M 190.246265 207.494694 L 186.684485 212.477857 L 183.695310 217.689353 L 181.119759 223.067641 L 178.798850 228.551179 L 176.573602 234.078426 L 174.285032 239.587840 L 171.774159 245.017881 L 168.882000 250.307006 L 168.646265 250.694694" fill="none" id="3" stroke="black" stroke-width="1.5" /><path d="M 175.846265 237.494694 L 172.794471 242.687566 L 169.811397 247.885770 L 166.855188 253.078843 L 163.883988 258.256321 L 160.855941 263.407740 L 157.729192 268.522636 L 154.461885 273.590544 L 150.831851 278.797087 L 146.967661 283.658313 L 143.033284 287.865872 L 138.874626 291.573862 L 134.337589 294.936381 L 129.268075 298.107524 L 123.561493 301.215122 L 118.302973 303.823661 L 112.884641 306.580189 L 107.618450 309.670391 L 102.816354 313.279954 L 98.790305 317.594563 L 95.852256 322.799906 L 95.446265 323.894694" fill="none" id="4" stroke="black" stroke-width="1.5" /><path d="M 139.846265 284.294694 L 137.693652 289.891364 L 134.346427 294.717044 L 130.111379 298.915660 L 125.295295 302.631135 L 120.204963 306.007397 L 115.147170 309.188368 L 110.144695 312.299125 L 105.021767 315.351712 L 99.823142 318.370671 L 94.582578 321.384227 L 89.333834 324.420603 L 84.110669 327.508024 L 78.946842 330.674716 L 73.876112 333.948901 L 68.932236 337.358806 L 64.148974 340.932653 L 59.560084 344.698668 L 55.246337 348.639516 L 51.910756 351.967971 L 48.399012 355.676902 L 44.751422 359.737305 L 41.008304 364.120176 L 37.209975 368.796511 L 33.396753 373.737306 L 29.608954 378.913558 L 25.886898 384.296263 L 22.270900 389.856416 L 18.801279 395.565014 L 15.518352 401.393053 L 12.462436 407.311529 L 9.673850 413.291439 L 7.192909 419.303777 L 5.059932 425.319541 L 3.315237 431.309726 L 1.999140 437.245329 L 1.151960 443.097346 L 0.814013 448.836772 L 1.025617 454.434605 L 1.827089 459.861839 L 3.258748 465.089472 L 5.360910 470.088499 L 6.796265 472.694694" fill="none" id="5" stroke="black" stroke-width="1.5" /><path d="M 5.446265 422.294694 L 4.564009 427.277866 L 3.703128 432.650242 L 2.895108 438.356083 L 2.171439 444.339650 L 1.563606 450.545204 L 1.103097 456.917006 L 0.821399 463.399316 L 0.750000 469.936396 L 0.920387 476.472506 L 1.364047 482.951907 L 2.112467 489.318860 L 3.197135 495.517626 L 4.649538 501.492465 L 6.501163 507.187638 L 8.783498 512.547406 L 11.528029 517.516031 L 14.766245 522.037772 L 18.529632 526.056891 L 22.246265 529.094694" fill="none" id="6" stroke="black" stroke-width="1.5" /><path d="M 5.446265 509.894694 L 6.615921 515.371775 L 8.744523 520.619016 L 11.668554 525.666148 L 15.224500 530.542902 L 19.248843 535.279007 L 23.578068 539.904193 L 28.048660 544.448191 L 32.497103 548.940732 L 36.759880 553.411544 L 40.673475 557.890358 L 44.074374 562.406905 L 45.046265 563.894694" fill="none" id="7" stroke="black" stroke-width="1.5" /><path d="M 45.046265 565.094694 L 49.763483 568.386287 L 55.033520 571.394485 L 60.440715 574.348619 L 65.566758 577.475495 L 70.279229 580.863974 L 74.927982 584.575818 L 79.542070 588.512968 L 84.150548 592.577367 L 88.782471 596.670955 L 93.466892 600.695675 L 98.232866 604.553469 L 103.109448 608.146279 L 108.125691 611.376045 L 113.310649 614.144711 L 118.693378 616.354217 L 124.246265 617.894694" fill="none" id="8" stroke="black" stroke-width="1.5" /><path d="M 133.846265 621.494694 L 139.103133 623.529662 L 144.814348 623.556779 L 151.379497 622.978231 L 157.398643 622.718724 L 163.402082 622.620664 L 169.392464 622.666180 L 175.372435 622.837399 L 181.344643 623.116452 L 187.311736 623.485467 L 193.276361 623.926572 L 199.241166 624.421897 L 205.208798 624.953569 L 211.181905 625.503719 L 217.163135 626.054474 L 223.155135 626.587963 L 229.160553 627.086316 L 234.646265 627.494694" fill="none" id="9" stroke="black" stroke-width="1.5" /><path d="M 250.246265 631.094694 L 255.515717 628.453274 L 261.018751 626.322778 L 266.687081 624.537525 L 272.452418 622.931833 L 278.246475 621.340021 L 284.000963 619.596406 L 289.647595 617.535307 L 295.118083 614.991041 L 300.344140 611.797926 L 301.846265 610.694694" fill="none" id="10" stroke="black" stroke-width="1.5" /><path d="M 312.646265 610.694694 L 317.648476 607.336086 L 322.370894 603.641467 L 326.693980 599.515205 L 324.351037 599.931523 L 318.707420 602.942648 L 313.197223 605.866387 L 307.791264 608.675758 L 302.460364 611.343780 L 297.175343 613.843469 L 291.907020 616.147846 L 286.626214 618.229927 L 281.303747 620.062732 L 275.910436 621.619277 L 270.417103 622.872583 L 264.794566 623.795666 L 259.013647 624.361546 L 253.045163 624.543240 L 246.859935 624.313767 L 240.428783 623.646145 L 234.646265 622.694694" fill="none" id="11" stroke="black" stroke-width="1.5" /><path d="M 244.246265 615.494694 L 239.123055 616.423363 L 233.483496 617.399471 L 227.443889 618.362620 L 221.120531 619.252412 L 214.629722 620.008448 L 208.087760 620.570330 L 201.610944 620.877661 L 195.315572 620.870042 L 189.317943 620.487074 L 183.734356 619.668360 L 178.681110 618.353502 L 181.651890 615.101453 L 187.193412 613.267901 L 192.646265 613.094694" fill="none" id="12" stroke="black" stroke-width="1.5" /><path d="M 198.646265 614.294694 L 199.866876 616.398214 L 195.334470 617.862553 L 189.905882 618.531785 L 183.801405 618.495635 L 177.241329 617.843826 L 170.445947 616.666081 L 163.635550 615.052124 L 157.030429 613.091679 L 150.850877 610.874470 L 145.317184 608.490219 L 140.649643 606.028652 L 140.571226 603.911471 L 146.350691 603.608297 L 152.295183 604.808429 L 155.446265 605.894694" fill="none" id="13" stroke="black" stroke-width="1.5" /><path d="M 310.246265 609.494694 L 315.664543 606.301108 L 320.647729 602.790683 L 325.260099 599.003269 L 329.565927 594.978715 L 333.629485 590.756872 L 337.515048 586.377589 L 341.286890 581.880716 L 345.009284 577.306102 L 348.746505 572.693597 L 352.562825 568.083052 L 356.522520 563.514316 L 360.689862 559.027238 L 364.246265 555.494694" fill="none" id="14" stroke="black" stroke-width="1.5" /><path d="M 345.046265 583.094694 L 348.170375 577.964108 L 351.414959 572.917853 L 354.735228 567.924578 L 358.086393 562.952929 L 361.423664 557.971555 L 364.702252 552.949104 L 367.877369 547.854222 L 369.046265 545.894694" fill="none" id="15" stroke="black" stroke-width="1.5" /><path d="M 355.846265 560.294694 L 359.066601 555.519166 L 361.546697 550.169573 L 363.448107 544.409684 L 364.932385 538.403265 L 366.161087 532.314084 L 367.295767 526.305910 L 368.497979 520.542508 L 369.046265 518.294694" fill="none" id="16" stroke="black" stroke-width="1.5" /><path d="M 378.646265 520.694694 L 376.721134 515.103513 L 375.360165 509.303745 L 374.356944 503.368721 L 373.505056 497.371773 L 372.598086 491.386233 L 371.429617 485.485433 L 369.788837 479.733799 L 367.662371 474.078338 L 365.292439 468.581821 L 362.752868 463.195030 L 360.117482 457.868749 L 357.460107 452.553760 L 354.854570 447.200847 L 352.374697 441.760791 L 350.094313 436.184375 L 348.087244 430.422383 L 347.446265 428.294694" fill="none" id="17" stroke="black" stroke-width="1.5" /><path d="M 353.446265 443.894694 L 351.951696 438.388573 L 350.316944 432.771780 L 348.593211 427.058460 L 346.831697 421.262757 L 345.083602 415.398814 L 343.400127 409.480776 L 341.832471 403.522785 L 340.431837 397.538986 L 339.249424 391.543523 L 338.336432 385.550539 L 337.744062 379.574178 L 337.523514 373.628584 L 337.725989 367.727900 L 338.402688 361.886271 L 338.888958 359.487828 L 338.071337 365.440290 L 337.846265 367.094694" fill="none" id="18" stroke="black" stroke-width="1.5" /><path d="M 339.046265 357.494694 L 337.168330 351.969839 L 336.865130 346.281669 L 337.854676 340.510565 L 339.854976 334.736907 L 342.584041 329.041075 L 345.759881 323.503450 L 349.100504 318.204412 L 352.323920 313.224342 L 354.646265 309.494694" fill="none" id="19" stroke="black" stroke-width="1.5" /><path d="M 348.646265 315.494694 L 351.970051 310.080041 L 354.881102 304.936308 L 357.366910 299.834137 L 359.414964 294.544171 L 361.012754 288.837050 L 362.147353 282.487185 L 363.177534 277.360531 L 364.705029 271.256224 L 366.341547 264.595251 L 367.698803 257.798599 L 368.388507 251.287252 L 368.022372 245.482197 L 366.212109 240.804421 L 362.429891 240.169282 L 359.586301 245.347196 L 359.446265 245.894694" fill="none" id="20" stroke="black" stroke-width="1.5" /><path d="M 364.246265 250.694694 L 364.212241 245.149260 L 363.549557 239.500931 L 362.319818 233.785855 L 360.584623 228.040182 L 358.405575 222.300062 L 355.844275 216.601644 L 352.962324 210.981077 L 349.821325 205.474511 L 346.482879 200.118096 L 343.008587 194.947980 L 339.460052 190.000313 L 335.898873 185.311245 L 332.386655 180.916925 L 333.599837 180.279146 L 332.148375 175.292738 L 328.587384 171.024579 L 324.468018 168.105747 L 319.390683 166.045513 L 312.955787 164.353148 L 306.191631 162.808720 L 300.348930 161.476319 L 294.555062 160.356769 L 288.692893 159.614061 L 282.645285 159.412185 L 284.297705 158.032869 L 290.079067 156.960586 L 284.788340 157.654915 L 278.816556 158.111742 L 281.067139 158.144694 L 285.046265 158.144694" fill="none" id="21" stroke="black" stroke-width="1.5" /><path d="M 315.046265 183.494694 L 320.545550 185.520971 L 325.153637 188.937874 L 328.979203 193.441797 L 332.130926 198.729133 L 334.717483 204.496276 L 336.847552 210.439617 L 338.629810 216.255551 L 340.172935 221.640470 L 340.246265 221.894694" fill="none" id="22" stroke="black" stroke-width="1.5" /><path d="M 333.046265 205.094694 L 336.057701 206.753226 L 339.254828 211.611305 L 342.309176 218.322201 L 344.892273 225.539183 L 346.675650 231.915521 L 346.801319 234.158836 L 345.190536 228.235259 L 344.372722 221.996457 L 344.294859 216.370183 L 346.652979 221.775277 L 348.310066 227.518033 L 349.634716 233.399826 L 351.008644 239.274330 L 352.813563 244.995223 L 353.212118 241.496467 L 352.780576 235.506420 L 352.341873 229.516373 L 352.217640 225.558074 L 352.068526 231.343585 L 352.097580 237.549375 L 352.523574 243.856401 L 353.565280 249.945622 L 355.441469 255.497997 L 357.795776 256.646502 L 359.130230 250.784214 L 359.736973 245.736786 L 357.708914 251.280872 L 355.666267 256.959895 L 353.749900 262.744317 L 352.100685 268.604600 L 350.859491 274.511208 L 350.167188 280.434603 L 350.164647 286.345249 L 353.371083 285.341642 L 356.042845 279.905030 L 356.479340 275.243362 L 352.359162 279.430692 L 348.998476 284.564637 L 346.532491 290.185486 L 345.725560 294.932097 L 349.348817 290.413260 L 349.996265 289.244694" fill="none" id="23" stroke="black" stroke-width="1.5" /><path d="M 335.446265 310.694694 L 333.093790 315.582167 L 330.753314 321.043340 L 328.532730 326.932705 L 326.539931 333.104755 L 324.882812 339.413982 L 323.669264 345.714879 L 323.007182 351.861939 L 323.004459 357.709654 L 323.768988 363.112516 L 325.729427 364.942118 L 328.228875 359.621753 L 330.134127 353.908064 L 331.642174 347.977838 L 332.950009 342.007863 L 334.254624 336.174928 L 333.731378 338.340483 L 332.099714 344.114363 L 330.473426 349.924600 L 329.154570 355.792769 L 328.445207 361.740447 L 330.168595 360.306777 L 332.084359 354.629508 L 333.287063 348.433675 L 333.880672 342.191120 L 333.969154 336.373691 L 332.164301 340.280372 L 330.671193 346.116291 L 329.763803 352.165518 L 329.388697 358.247714 L 329.492441 364.182539 L 331.138840 361.665845 L 332.924399 355.965675 L 334.392904 350.168627 L 335.617908 344.297176 L 336.672962 338.373797 L 337.631620 332.420963 L 338.567435 326.461149 L 339.553958 320.516829 L 340.664744 314.610478 L 341.973344 308.764571 L 343.553311 303.001581 L 345.478198 297.343984 L 347.833234 292.104619 L 350.914678 286.791461 L 353.993552 281.254389 L 356.187400 275.588437 L 356.613761 269.888640 L 353.103214 268.459018 L 350.225330 273.330080 L 349.809283 279.782591 L 351.345887 284.059349 L 354.320217 278.805048 L 356.577364 273.267607 L 357.996572 267.481526 L 357.258445 264.845080 L 354.538382 268.098234 L 352.005211 272.443479 L 349.648366 277.695537 L 347.457283 283.669133 L 345.421394 290.178990 L 343.530135 297.039832 L 341.772940 304.066383 L 340.139243 311.073366 L 338.618479 317.875505 L 337.200081 324.287523 L 335.873485 330.124144 L 334.628125 335.200093 L 333.426232 339.422455 L 331.688294 345.449375 L 330.196996 351.383230 L 328.939047 357.247280 L 327.901157 363.064782 L 327.070036 368.858993 L 326.432395 374.653172 L 325.974942 380.470575 L 325.684388 386.334461 L 325.547443 392.268088 L 325.550815 398.294713 L 325.681217 404.437594 L 325.846265 408.944694" fill="none" id="24" stroke="black" stroke-width="1.5" /><path d="M 333.046265 379.094694 L 332.954394 382.895674 L 333.089243 387.723740 L 333.455674 393.402670 L 334.058549 399.756246 L 334.902728 406.608247 L 335.993073 413.782452 L 337.334445 421.102642 L 338.931705 428.392595 L 340.789714 435.476093 L 342.913335 442.176914 L 345.307427 448.318838 L 347.976853 453.725645 L 350.926473 458.221115 L 354.161149 461.629027 L 357.685742 463.773161 L 359.446265 464.294694" fill="none" id="25" stroke="black" stroke-width="1.5" /><path d="M 345.046265 382.694694 L 344.906526 388.655963 L 345.292513 394.546455 L 346.153124 400.371221 L 347.437258 406.135312 L 349.093812 411.843779 L 351.071685 417.501673 L 353.319774 423.114044 L 355.786978 428.685944 L 358.422195 434.222423 L 361.174322 439.728531 L 363.992258 445.209320 L 366.824900 450.669840 L 369.621146 456.115142 L 372.329896 461.550278 L 374.900046 466.980297 L 377.280494 472.410250 L 379.420139 477.845189 L 381.267879 483.290163 L 378.704195 481.051052 L 375.600895 476.098999 L 373.283130 470.652916 L 371.723236 464.685140 L 371.446265 463.094694" fill="none" id="26" stroke="black" stroke-width="1.5" /><path d="M 364.246265 439.094694 L 366.445998 444.549118 L 368.714095 450.057010 L 371.003007 455.616640 L 373.265184 461.226279 L 375.453079 466.884200 L 377.519142 472.588671 L 379.415823 478.337966 L 381.095574 484.130353 L 382.510846 489.964105 L 383.614089 495.837492 L 384.357754 501.748786 L 384.694293 507.696256 L 384.646265 512.294694" fill="none" id="27" stroke="black" stroke-width="1.5" /><path d="M 383.446265 506.294694 L 383.485952 511.522587 L 383.629681 517.339374 L 383.786034 523.584687 L 383.863594 530.098157 L 383.770944 536.719417 L 383.416667 543.288098 L 382.709343 549.643834 L 381.557557 555.626256 L 379.869891 561.074996 L 377.554927 565.829685 L 373.470911 566.696547 L 372.646265 566.294694" fill="none" id="28" stroke="black" stroke-width="1.5" /><path d="M 352.246265 472.694694 L 356.466325 473.174276 L 359.683099 475.119523 L 361.977331 478.368819 L 363.429766 482.760544 L 364.121147 488.133082 L 364.132219 494.324813 L 363.543725 501.174120 L 362.436409 508.519385 L 360.891015 516.198990 L 358.988287 524.051316 L 356.808969 531.914746 L 354.433804 539.627662 L 351.943537 547.028445 L 349.418912 553.955478 L 346.940673 560.247143 L 344.589562 565.741820 L 342.446325 570.277893 L 340.591706 573.693743 L 339.106447 575.827753 L 339.046265 575.894694" fill="none" id="29" stroke="black" stroke-width="1.5" /><path d="M 367.846265 481.094694 L 369.892207 486.809100 L 371.336368 492.616838 L 372.213344 498.494916 L 372.557731 504.420341 L 372.404125 510.370117 L 371.787121 516.321253 L 370.741316 522.250754 L 369.301306 528.135626 L 367.501686 533.952877 L 365.377053 539.679512 L 362.962001 545.292537 L 360.291128 550.768960 L 357.399029 556.085786 L 354.320300 561.220023 L 351.089537 566.148675 L 347.741335 570.848750 L 343.988088 575.683315 L 339.996527 580.325799 L 335.848391 584.684785 L 331.544976 588.783562 L 327.087575 592.645418 L 322.477481 596.293641 L 317.715989 599.751521 L 312.804392 603.042346 L 307.743984 606.189405 L 302.536059 609.215986 L 297.181911 612.145378 L 292.191999 614.613819 L 286.468904 616.988217 L 280.155933 619.611460 L 274.023516 622.545346 L 268.842080 625.851675 L 265.382053 629.592245 L 267.834995 631.660513 L 273.399541 631.669691 L 279.159410 630.900708 L 285.042375 629.453654 L 290.976207 627.428615 L 296.888677 624.925681 L 302.707557 622.044940 L 308.360618 618.886480 L 313.775631 615.550390 L 318.880368 612.136757 L 323.602599 608.745670 L 327.870097 605.477218 L 332.155020 601.957923 L 336.617842 597.960532 L 340.903481 593.763759 L 345.000837 589.377093 L 348.898813 584.810023 L 352.586312 580.072039 L 356.052235 575.172631 L 359.285485 570.121287 L 362.274963 564.927498 L 365.009573 559.600752 L 367.478215 554.150539 L 369.669793 548.586349 L 371.573209 542.917670 L 373.177365 537.153993 L 374.471162 531.304807 L 375.443504 525.379600 L 376.083292 519.387864 L 376.379429 513.339086 L 376.396265 512.144694" fill="none" id="30" stroke="black" stroke-width="1.5" /><path d="M 364.246265 561.494694 L 367.637750 561.809310 L 366.861372 566.436321 L 365.248295 571.381976 L 362.880635 576.561525 L 359.840507 581.890222 L 356.210029 587.283317 L 352.071315 592.656063 L 347.506482 597.923712 L 342.597646 603.001516 L 337.426923 607.804728 L 332.076429 612.248599 L 326.628279 616.248382 L 321.164590 619.719328 L 315.767478 622.576690 L 310.519058 624.735720 L 305.501447 626.111669 L 300.796761 626.619791 L 297.046265 626.294694" fill="none" id="31" stroke="black" stroke-width="1.5" /><path d="M 357.046265 591.494694 L 353.090234 595.302658 L 348.850744 599.269574 L 344.353572 603.307009 L 339.624490 607.326532 L 334.689275 611.239707 L 329.573700 614.958104 L 324.303539 618.393288 L 318.904568 621.456826 L 313.402560 624.060286 L 307.823291 626.115235 L 302.192533 627.533239 L 296.536063 628.225865 L 291.810434 626.431989 L 291.046265 625.094694" fill="none" id="32" stroke="black" stroke-width="1.5" /><path d="M 316.246265 623.894694 L 311.290618 626.583342 L 306.138913 629.119377 L 300.808317 631.495122 L 295.315992 633.702900 L 289.679104 635.735033 L 283.914817 637.583844 L 278.040296 639.241656 L 272.072705 640.700791 L 266.029210 641.953571 L 259.926973 642.992320 L 253.783161 643.809359 L 247.614937 644.397012 L 241.439467 644.747600 L 235.273914 644.853447 L 229.135443 644.706875 L 223.041219 644.300207 L 217.008406 643.625765 L 211.054169 642.675871 L 205.195673 641.442849 L 199.450082 639.919021 L 193.834560 638.096709 L 188.366272 635.968236 L 183.062383 633.525924 L 177.940057 630.762097 L 173.016458 627.669076 L 174.411215 627.142671 L 179.840628 629.601499 L 185.247716 632.325055 L 190.764384 634.202578 L 196.476922 635.422996 L 202.482303 636.196222 L 208.666154 636.563224 L 214.914100 636.564973 L 221.111769 636.242437 L 227.144786 635.636587 L 232.898778 634.788393 L 237.387510 633.932467 L 241.711150 633.011783 L 247.138276 631.759628 L 253.382055 630.177315 L 260.155651 628.266151 L 267.172231 626.027447 L 274.144959 623.462512 L 280.787000 620.572657 L 286.811521 617.359190 L 291.931687 613.823422 L 295.860662 609.966663 L 298.311613 605.790222 L 298.997705 601.295409 L 294.470290 599.938836 L 288.505633 600.281630 L 282.646265 601.244694" fill="none" id="33" stroke="black" stroke-width="1.5" /><path d="M 119.446265 607.094694 L 117.407510 602.634674 L 112.964664 605.851185 L 108.618665 610.384865 L 104.582458 615.566459 L 101.068988 620.726711 L 99.991823 623.305205 L 104.410778 619.466824 L 108.770257 615.323767 L 113.042127 610.964451 L 117.198256 606.477292 L 121.210512 601.950710 L 123.579072 598.902780 L 119.140926 602.969757 L 115.249206 607.520904 L 112.048591 612.556223 L 110.351499 617.671505 L 114.759385 614.388234 L 114.796265 614.294694" fill="none" id="34" stroke="black" stroke-width="1.5" /><path d="M 127.846265 608.294694 L 125.800191 613.952795 L 122.942026 619.404756 L 119.909841 624.762766 L 117.341706 630.139012 L 115.875690 635.645683 L 115.846265 635.894694" fill="none" id="35" stroke="black" stroke-width="1.5" /><path d="M 129.046265 608.294694 L 126.608783 613.045675 L 126.172255 619.058140 L 126.537529 625.484413 L 126.646265 628.694694" fill="none" id="36" stroke="black" stroke-width="1.5" /><path d="M 131.446265 611.894694 L 131.637447 618.144956 L 130.421121 624.019542 L 129.411505 624.622502 L 131.467039 618.969973 L 133.909329 613.477528 L 135.831931 613.314350 L 135.715937 619.084984 L 134.399665 625.436144 L 132.617260 631.621844 L 131.837933 634.026121 L 133.526845 628.277429 L 135.572072 622.605932 L 137.928098 617.072320 L 139.455453 615.687695 L 138.640805 621.896532 L 137.826176 627.999132 L 140.154826 625.418149 L 143.394566 620.377744 L 146.608395 615.354124 L 144.276682 619.679089 L 142.542862 625.403935 L 144.478729 624.303697 L 147.539151 619.117573 L 150.286913 613.812973 L 147.409188 617.960164 L 144.199498 623.060660 L 141.623839 626.907131 L 145.207349 621.367148 L 146.154044 616.092984 L 144.646265 613.394694" fill="none" id="37" stroke="black" stroke-width="1.5" /><path d="M 127.846265 605.894694 L 122.643348 607.430026 L 117.243027 610.615322 L 112.155147 614.770790 L 107.889551 619.216639 L 107.862775 621.471351 L 113.574296 619.580277 L 118.901218 616.897095 L 123.754156 613.421805 L 121.549668 612.945575 L 116.101653 615.442500 L 111.036705 618.814172 L 110.425150 620.314695 L 115.945329 617.967901 L 121.303372 615.107838 L 126.487926 611.995571 L 130.602295 609.648795 L 126.907365 614.384700 L 127.163942 618.765586 L 132.646265 616.694694" fill="none" id="38" stroke="black" stroke-width="1.5" /><path d="M 144.646265 620.294694 L 145.306959 625.494872 L 151.157148 626.068695 L 151.480035 620.221674 L 148.149806 615.646179 L 146.008843 621.223130 L 145.928297 627.175815 L 148.176515 629.612136 L 150.746767 624.296105 L 151.758036 618.337207 L 149.572101 620.092602 L 146.848284 625.449716 L 144.282965 630.886787 L 142.246265 634.694694" fill="none" id="39" stroke="black" stroke-width="1.5" /><path d="M 130.246265 603.494694 L 124.566649 605.024101 L 119.284024 608.077033 L 114.795383 612.184317 L 113.958627 616.247299 L 118.246265 614.294694" fill="none" id="40" stroke="black" stroke-width="1.5" /><path d="M 121.846265 608.294694 L 117.032238 612.093706 L 111.925291 615.262372 L 108.646265 616.694694" fill="none" id="41" stroke="black" stroke-width="1.5" /><path d="M 312.646265 161.894694 L 313.773445 165.638580 L 314.088320 166.652887 L 317.629452 162.073894 L 321.139747 157.317015 L 324.594663 152.399294 L 327.969662 147.337771 L 331.240203 142.149489 L 334.381746 136.851488 L 337.369751 131.460812 L 340.179678 125.994501 L 342.786987 120.469597 L 345.167137 114.903142 L 347.295589 109.312177 L 349.147803 103.713745 L 350.699238 98.124887 L 349.562845 99.348674 L 348.646265 100.694694" fill="none" id="42" stroke="black" stroke-width="1.5" /><path d="M 349.846265 97.094694 L 350.203309 92.971012 L 355.422767 92.111312 L 362.929358 92.768083 L 370.147802 93.193814 L 373.846265 92.294694" fill="none" id="43" stroke="black" stroke-width="1.5" /><path d="M 352.246265 103.094694 L 354.679487 102.541435 L 360.796281 101.935419 L 367.427375 101.669855 L 373.790392 101.988489 L 378.646265 103.094694" fill="none" id="44" stroke="black" stroke-width="1.5" /><path d="M 378.646265 95.894694 L 383.792442 93.114667 L 387.714952 96.724746 L 384.292654 101.160975 L 379.116964 104.172837 L 379.846265 104.294694" fill="none" id="45" stroke="black" stroke-width="1.5" /><path d="M 376.246265 109.094694 L 373.460171 113.294860 L 368.912877 116.942449 L 363.362463 120.243704 L 357.567009 123.404866 L 352.284598 126.632179 L 348.205603 129.992775 L 344.240051 133.978724 L 340.168680 138.644060 L 336.164126 143.798230 L 332.399025 149.250684 L 329.046012 154.810871 L 326.277726 160.288238 L 324.266801 165.492235 L 323.072162 166.581483 L 325.489811 161.641097 L 327.046265 159.494694" fill="none" id="46" stroke="black" stroke-width="1.5" /><path d="M 328.246265 159.494694 L 325.827307 162.579008 L 330.364684 158.784945 L 332.243022 156.259874 L 327.149105 159.742259 L 328.563052 156.698254 L 329.596265 154.694694" fill="none" id="47" stroke="black" stroke-width="1.5" /><path d="M 309.046265 155.894694 L 305.781342 151.560643 L 302.889734 146.662576 L 300.355725 141.295323 L 298.163595 135.553716 L 296.297628 129.532586 L 294.742105 123.326764 L 293.481309 117.031080 L 292.499521 110.740367 L 291.781025 104.549455 L 291.310101 98.553175 L 291.071032 92.846359 L 291.048385 87.488989 L 291.167126 81.027960 L 291.252336 74.791338 L 291.169693 68.778274 L 290.784872 62.987916 L 289.963550 57.419416 L 288.571402 52.071923 L 286.474104 46.944586 L 283.537334 42.036555 L 279.626766 37.346982 L 274.608078 32.875014 L 269.447145 29.420779 L 264.094009 26.700292 L 258.556034 24.325776 L 252.990929 22.023313 L 247.556405 19.518987 L 242.410171 16.538880 L 246.813418 19.338849 L 251.498623 23.717610 L 254.489153 28.351342 L 255.972708 33.208287 L 256.136990 38.256685 L 255.169700 43.464778 L 253.258539 48.800807 L 250.591208 54.233012 L 247.355409 59.729635 L 243.738842 65.258917 L 239.929209 70.789098 L 236.114211 76.288421 L 232.481549 81.725125 L 229.218925 87.067453 L 226.514039 92.283644 L 224.554593 97.341940 L 223.516772 102.307273 L 223.305443 109.378495 L 224.245540 115.577311 L 226.221749 120.969385 L 229.118757 125.620381 L 232.821252 129.595963 L 237.213920 132.961797 L 242.181449 135.783546 L 247.608525 138.126874 L 253.379835 140.057447 L 259.380067 141.640928 L 265.493907 142.942981 L 271.582593 144.022754 L 277.928018 144.825892 L 284.239320 145.863013 L 289.373396 147.856376 L 292.187142 151.528240 L 291.537454 157.600867 L 293.413659 157.050997 L 294.646265 153.644694" fill="none" id="48" stroke="black" stroke-width="1.5" /><path d="M 297.046265 151.094694 L 293.330048 147.781119 L 289.757610 143.616089 L 286.389290 138.733779 L 283.285428 133.268366 L 280.506363 127.354025 L 278.112435 121.124933 L 276.163983 114.715264 L 274.721347 108.259195 L 273.844865 101.890902 L 273.594878 95.744559 L 274.031724 89.954344 L 275.215743 84.654432 L 277.207275 79.978998 L 275.330270 84.060689 L 274.103719 89.932349 L 273.183067 93.916996 L 267.999144 91.008996 L 262.107835 89.773891 L 261.927206 94.345112 L 266.250805 98.180751 L 268.113413 96.968697 L 263.331840 93.592610 L 259.635963 93.950028 L 264.879295 96.635937 L 270.550075 98.145628 L 268.585506 103.556037 L 268.743625 109.456395 L 270.824181 115.132761 L 274.626923 119.871197 L 277.996265 122.144694" fill="none" id="49" stroke="black" stroke-width="1.5" /><path d="M 333.046265 219.494694 L 333.226424 225.503558 L 333.311240 231.511334 L 333.301802 237.516938 L 333.199194 243.519281 L 333.004505 249.517278 L 332.718820 255.509842 L 332.343227 261.495886 L 331.878811 267.474324 L 331.326660 273.444069 L 330.687861 279.404034 L 329.963498 285.353133 L 329.595106 291.484583 L 329.614230 297.669051 L 326.662022 302.258189 L 324.578947 307.532961 L 326.988893 311.123737 L 330.106127 306.398073 L 329.596265 301.094694" fill="none" id="50" stroke="black" stroke-width="1.5" /><path d="M 352.246265 461.894694 L 348.113163 466.027560 L 344.008394 470.450144 L 339.960290 475.020779 L 335.997187 479.597800 L 336.169495 481.150298 L 341.644391 478.660952 L 347.128702 476.100832 L 352.657852 473.709060 L 358.267266 471.724755 L 355.737805 473.829627 L 350.573901 476.886017 L 345.361046 479.868982 L 340.200439 482.930318 L 335.193280 486.221825 L 331.891971 489.208745 L 337.533421 487.628597 L 343.240828 485.449160 L 349.014191 483.358527 L 354.853511 482.044791 L 360.758787 482.196048 L 356.948026 485.671581 L 351.958980 488.977193 L 346.749587 491.993079 L 341.422009 494.821398 L 336.078406 497.564312 L 339.777959 496.208394 L 345.850380 493.779329 L 351.868571 492.147961 L 357.245813 492.396458 L 355.216069 495.648749 L 350.196411 499.023564 L 344.896266 502.131975 L 339.530193 505.152318 L 334.312756 508.262932 L 329.458516 511.642151 L 325.182033 515.468314 L 329.713160 515.004561 L 335.587904 513.752751 L 341.465426 512.535336 L 347.358423 511.438020 L 353.279593 510.546509 L 359.241632 509.946507 L 362.846821 510.906580 L 359.695057 514.626603 L 355.323224 517.973721 L 350.009614 520.993389 L 344.032521 523.731062 L 337.670238 526.232193 L 331.201058 528.542238 L 324.903273 530.706651 L 319.055178 532.770886 L 313.935065 534.780398 L 313.333154 535.660350 L 318.934820 534.274281 L 324.949748 532.443257 L 331.164886 530.570032 L 337.367185 529.057360 L 343.343593 528.307993 L 348.881060 528.724687 L 347.447734 531.151362 L 342.113361 533.873101 L 336.639182 536.329553 L 331.071533 538.603314 L 325.456749 540.776981 L 319.841166 542.933153 L 314.271117 545.154426 L 308.792939 547.523398 L 314.606365 547.949045 L 320.517403 547.206188 L 326.428441 545.835812 L 332.339479 544.367622 L 338.250517 543.331324 L 344.161555 543.256625 L 346.458153 545.506461 L 342.033042 549.199590 L 336.972419 552.206938 L 331.432507 554.675888 L 325.569530 556.753821 L 319.539714 558.588118 L 313.499283 560.326160 L 307.604460 562.115329 L 302.011470 564.103006 L 296.876537 566.436573 L 299.038075 566.964451 L 305.006517 566.263583 L 311.112977 565.581851 L 317.251352 565.106701 L 323.315543 565.025579 L 329.199447 565.525930 L 331.401169 567.140940 L 326.024511 569.528335 L 320.372195 571.600012 L 314.533398 573.460151 L 308.597298 575.212931 L 302.653072 576.962531 L 296.789897 578.813129 L 291.096950 580.868906 L 285.663409 583.234040 L 280.578452 586.012711 L 276.555227 589.103905 L 282.519396 588.941588 L 288.463813 588.316037 L 294.401336 587.420158 L 300.344826 586.446861 L 306.307145 585.589055 L 302.210840 586.806762 L 296.425514 588.228529 L 290.519354 589.592894 L 284.541741 590.940419 L 278.542053 592.311666 L 272.569671 593.747198 L 266.673975 595.287575 L 260.904346 596.973361 L 255.310162 598.845118 L 249.940805 600.943407 L 253.618395 601.910758 L 259.618774 601.944088 L 265.656402 601.518842 L 271.658203 600.872519 L 275.429777 600.629371 L 269.534772 602.055465 L 263.637817 603.264446 L 257.737260 604.300896 L 251.831451 605.209400 L 245.918739 606.034539 L 239.997472 606.820898 L 234.065998 607.613059 L 228.270486 608.444694 L 234.270486 608.444694 L 231.497990 608.051090 L 225.470606 607.987847 L 219.358870 608.243799 L 213.234825 608.575112 L 207.170512 608.737953 L 201.237973 608.488487 L 195.509250 607.582881 L 199.220697 604.721723 L 204.631216 602.157905 L 208.535956 600.079571 L 203.344893 600.717028 L 196.427580 601.993422 L 188.948492 603.780231 L 182.072109 605.948936 L 176.962908 608.371014 L 174.796265 610.844694" fill="none" id="51" stroke="black" stroke-width="1.5" /><path d="M 337.846265 631.094694 L 343.125531 630.123141 L 348.856240 629.673935 L 354.921015 629.647930 L 361.202474 629.945980 L 367.583240 630.468940 L 373.945933 631.117664 L 380.173173 631.793007 L 386.147582 632.395822 L 391.751779 632.826964 L 397.581109 633.149745 L 403.571108 633.525597 L 409.557343 633.944476 L 415.539814 634.405166 L 421.518521 634.906449 L 427.493465 635.447109 L 433.464645 636.025928 L 439.432061 636.641689 L 445.395714 637.293176 L 451.355602 637.979172 L 457.311727 638.698459 L 463.264088 639.449820 L 469.212686 640.232039 L 475.157519 641.043899 L 481.098589 641.884182 L 486.576381 642.670609 L 491.508698 643.221589 L 497.168138 643.748571 L 503.364099 644.319869 L 509.905978 645.003800 L 516.603173 645.868680 L 523.265082 646.982827 L 529.701102 648.414555 L 535.720631 650.232181 L 541.133067 652.504022 L 545.747808 655.298393 L 547.575510 659.043148 L 544.296994 663.026511 L 539.626221 666.059961 L 533.896742 668.274435 L 527.442111 669.800869 L 520.595881 670.770199 L 513.691605 671.313361 L 507.062835 671.561292 L 501.043124 671.644928 L 495.966026 671.695204 L 490.827540 671.838629 L 484.835592 671.976284 L 478.841918 672.064531 L 472.846708 672.106717 L 466.850154 672.106191 L 460.852447 672.066303 L 454.853778 671.990399 L 448.854339 671.881828 L 442.854321 671.743939 L 436.853915 671.580079 L 430.853313 671.393598 L 424.852706 671.187844 L 418.852285 670.966165 L 412.852241 670.731908 L 406.852767 670.488424 L 400.854053 670.239059 L 394.856291 669.987163 L 388.859672 669.736084 L 382.864387 669.489169 L 376.870628 669.249768 L 370.878585 669.021229 L 364.882165 668.805059 L 358.878744 668.594757 L 352.876813 668.390081 L 346.876225 668.191399 L 340.876832 667.999083 L 334.878486 667.813500 L 328.881040 667.635021 L 322.884345 667.464016 L 316.888254 667.300853 L 310.892619 667.145903 L 304.897292 666.999535 L 298.902125 666.862118 L 292.906971 666.734023 L 286.911682 666.615618 L 280.916109 666.507273 L 274.920105 666.409358 L 268.923523 666.322242 L 262.926214 666.246296 L 256.928030 666.181887 L 250.928824 666.129387 L 244.928448 666.089164 L 238.926755 666.061588 L 232.923595 666.047029 L 227.049120 666.056067 L 221.247006 666.165700 L 215.309171 666.361747 L 209.265244 666.607169 L 203.144857 666.864928 L 196.977639 667.097985 L 190.793222 667.269304 L 184.621236 667.341845 L 178.491312 667.278572 L 172.433079 667.042444 L 166.476168 666.596425 L 160.650210 665.903477 L 154.984835 664.926561 L 155.477657 662.875223 L 160.542226 661.476806 L 166.986278 661.047976 L 174.088805 661.250759 L 181.128799 661.747184 L 187.385252 662.199278 L 192.424259 662.268490 L 198.412387 662.077441 L 204.402706 661.883159 L 210.394954 661.684989 L 216.388869 661.482278 L 222.384190 661.274371 L 228.380654 661.060613 L 234.378001 660.840351 L 240.375967 660.612930 L 246.374293 660.377696 L 252.372715 660.133994 L 258.370973 659.881171 L 264.368804 659.618572 L 270.365947 659.345542 L 276.362140 659.061428 L 282.357122 658.765576 L 288.350630 658.457330 L 294.342403 658.136037 L 300.332179 657.801043 L 305.596265 657.494694" fill="none" id="52" stroke="black" stroke-width="1.5" /><path d="M 466.246265 651.494694 L 460.361855 650.890663 L 454.454164 650.325724 L 448.525024 649.800706 L 442.576264 649.316437 L 436.609715 648.873745 L 430.627209 648.473459 L 424.630575 648.116406 L 418.621644 647.803414 L 412.602247 647.535313 L 406.574214 647.312929 L 400.539377 647.137091 L 394.499565 647.008627 L 388.456610 646.928365 L 382.412341 646.897134 L 376.368590 646.915761 L 370.327188 646.985075 L 364.289964 647.105904 L 358.258749 647.279076 L 352.235375 647.505419 L 346.221671 647.785761 L 340.219469 648.120931 L 334.230598 648.511756 L 328.256890 648.959064 L 322.300176 649.463685 L 316.362285 650.026445 L 310.445048 650.648174 L 304.550297 651.329698 L 305.376497 651.463073 L 311.363641 651.135395 L 317.360776 650.805664 L 323.365684 650.481169 L 329.376146 650.169200 L 335.389943 649.877047 L 341.404857 649.611997 L 347.418670 649.381342 L 353.429164 649.192369 L 359.434119 649.052370 L 365.431316 648.968631 L 371.418539 648.948444 L 377.393568 648.999098 L 383.354184 649.127881 L 384.506655 649.691727 L 378.588295 650.732905 L 372.662524 651.717468 L 366.737995 652.688676 L 360.823360 653.689790 L 354.927270 654.764070 L 349.058378 655.954777 L 350.262215 657.775913 L 356.027450 659.031972 L 362.020749 659.545362 L 368.122708 659.716246 L 374.213924 659.944789 L 380.174993 660.631156 L 385.076359 662.392971 L 380.153779 665.262483 L 377.296265 665.894694" fill="none" id="53" stroke="black" stroke-width="1.5" /><path d="M 441.046265 662.294694 L 446.834668 661.345602 L 452.845556 660.697190 L 458.955473 660.367095 L 465.040962 660.372954 L 470.978567 660.732403 L 469.317744 662.225756 L 463.498264 663.721580 L 459.223885 664.737280 L 464.890546 665.592589 L 470.969999 665.784168 L 477.212764 665.516718 L 483.369360 664.994942 L 489.190308 664.423540 L 483.905187 664.534775 L 481.846265 664.694694" fill="none" id="55" stroke="black" stroke-width="1.5" /><path d="M 442.246265 649.094694 L 436.619461 647.278499 L 430.767595 646.333844 L 424.759488 645.997273 L 418.663963 646.005328 L 412.549840 646.094550 L 406.485942 646.001483 L 400.541089 645.462669 L 394.784105 644.214650 L 389.283809 641.993968 L 387.046265 640.694694" fill="none" id="56" stroke="black" stroke-width="1.5" /><path d="M 324.646265 637.094694 L 318.660690 637.094694 L 312.651074 637.094694 L 306.635910 637.094694 L 300.633690 637.094694 L 297.046265 637.094694" fill="none" id="57" stroke="black" stroke-width="1.5" /><path d="M 174.646265 645.494694 L 168.687004 646.266618 L 162.793646 647.177161 L 157.846265 647.894694" fill="none" id="58" stroke="black" stroke-width="1.5" /><path d="M 46.246265 505.094694 L 44.137495 499.370526 L 43.389852 493.555338 L 43.626666 487.668447 L 44.471266 481.729168 L 45.546983 475.756819 L 46.246265 471.494694" fill="none" id="59" stroke="black" stroke-width="1.5" /><path d="M 64.246265 460.694694 L 66.434225 456.021859 L 69.046265 451.094694" fill="none" id="60" stroke="black" stroke-width="1.5" /><path d="M 60.646265 383.894694 L 62.947754 378.527303 L 65.446265 374.294694" fill="none" id="63" stroke="black" stroke-width="1.5" /><path d="M 96.646265 377.894694 L 100.956005 373.822545 L 102.646265 370.694694" fill="none" id="64" stroke="black" stroke-width="1.5" /><path d="M 303.046265 422.294694 L 306.984433 427.170390 L 310.275576 432.285406 L 312.949388 437.610230 L 315.035563 443.115348 L 316.563795 448.771248 L 317.563779 454.548417 L 318.065208 460.417342 L 318.097776 466.348509 L 317.691177 472.312407 L 316.875106 478.279521 L 315.679256 484.220340 L 314.133321 490.105350 L 312.266996 495.905038 L 310.109974 501.589891 L 307.691949 507.130396 L 305.042615 512.497041 L 302.191667 517.660312 L 298.976412 522.924422 L 295.524830 527.977396 L 291.854090 532.791447 L 287.969928 537.362093 L 283.878083 541.684851 L 279.584292 545.755238 L 275.094294 549.568773 L 270.413826 553.120972 L 265.548627 556.407352 L 260.504433 559.423431 L 255.286983 562.164726 L 249.902015 564.626755 L 244.355266 566.805034 L 238.652475 568.695082 L 232.799379 570.292415 L 226.801715 571.592550 L 220.665223 572.591006 L 214.404747 573.205909 L 208.302927 573.246899 L 202.344259 572.834704 L 196.482631 572.106470 L 190.671936 571.199342 L 184.866064 570.250466 L 179.018906 569.396986 L 173.084353 568.776048 L 167.016295 568.524796 L 169.060826 569.305544 L 174.880780 570.718640 L 180.653018 572.329369 L 186.421822 573.964629 L 192.231473 575.451318 L 198.126254 576.616335 L 204.145153 577.309529 L 210.173569 577.594512 L 216.171619 577.501234 L 222.127528 577.038753 L 228.029521 576.216124 L 233.865825 575.042406 L 239.624665 573.526655 L 245.294267 571.677930 L 250.862856 569.505286 L 256.318658 567.017782 L 261.649899 564.224474 L 266.844804 561.134419 L 271.895384 557.754674 L 276.810308 554.054691 L 281.434638 550.103393 L 285.775069 545.915962 L 289.838296 541.507580 L 293.631011 536.893428 L 297.159910 532.088688 L 300.431688 527.108541 L 303.453037 521.968169 L 306.230652 516.682754 L 308.771229 511.267477 L 311.081460 505.737521 L 313.168040 500.108066 L 315.037664 494.394294 L 316.697025 488.611387 L 318.152819 482.774526 L 319.411738 476.898894 L 320.480478 470.999671 L 321.365733 465.092039 L 322.074197 459.191181 L 322.156144 458.377267 L 321.517640 464.101987 L 320.749621 469.923404 L 319.851060 475.821825 L 318.820929 481.777552 L 317.658201 487.770891 L 316.361847 493.782145 L 314.930842 499.791621 L 313.364155 505.779621 L 311.660762 511.726451 L 309.819632 517.612415 L 307.839740 523.417817 L 305.720057 529.122962 L 303.459556 534.708155 L 301.057210 540.153700 L 298.511989 545.439901 L 295.822869 550.547064 L 293.002931 555.432841 L 290.098480 559.836599 L 286.724609 564.234507 L 282.920942 568.582121 L 278.727100 572.834996 L 274.182708 576.948690 L 269.327388 580.878756 L 264.200764 584.580752 L 258.842458 588.010233 L 253.292094 591.122755 L 247.589295 593.873874 L 241.773684 596.219146 L 235.884883 598.114126 L 229.962516 599.514371 L 224.046207 600.375436 L 218.175577 600.652877 L 212.390251 600.302250 L 206.729851 599.279111 L 201.234001 597.539016 L 204.356565 594.425786 L 209.556144 592.221251 L 215.649762 590.831493 L 222.230749 590.011586 L 228.892432 589.516603 L 235.228142 589.101617 L 240.831208 588.521702 L 246.302017 587.429016 L 252.185376 586.075070 L 258.055140 584.569845 L 263.866347 582.870272 L 269.574035 580.933282 L 275.133242 578.715805 L 280.499006 576.174774 L 285.626365 573.267119 L 290.470357 569.949772 L 294.986021 566.179663 L 299.128393 561.913725 L 302.852512 557.108887 L 305.446265 552.944694" fill="none" id="69" stroke="black" stroke-width="1.5" /><path d="M 286.246265 500.294694 L 284.684481 505.460468 L 282.248235 510.436479 L 279.033341 515.192630 L 275.135613 519.698823 L 270.650865 523.924963 L 265.674910 527.840950 L 260.303563 531.416690 L 254.632637 534.622083 L 248.757947 537.427034 L 242.775306 539.801444 L 236.780528 541.715217 L 230.869427 543.138256 L 225.137817 544.040463 L 219.681512 544.391741 L 216.176378 543.889295 L 221.135054 542.108718 L 227.073948 540.649453 L 233.597847 539.316036 L 240.311540 537.912999 L 246.819817 536.244877 L 252.727464 534.116205 L 257.639271 531.331518 L 261.160026 527.695348 L 259.160499 528.016633 L 254.800797 532.087892 L 250.651955 536.407261 L 246.149724 540.392857 L 248.439049 536.381490 L 252.014620 531.339794 L 252.646265 530.444694" fill="none" id="70" stroke="black" stroke-width="1.5" /><path d="M 190.246265 272.294694 L 187.145655 277.068406 L 189.844162 276.964147 L 190.948023 275.586307 L 187.161435 280.264938 L 191.275128 277.002718 L 195.046265 272.444694" fill="none" id="71" stroke="black" stroke-width="1.5" /><path d="M 227.446265 249.494694 L 224.909021 252.457932 L 229.551353 248.605942 L 227.929314 250.361646 L 226.246265 252.044694" fill="none" id="72" stroke="black" stroke-width="1.5" /><path d="M 189.046265 310.694694 L 185.877327 315.671633 L 183.311250 321.125614 L 180.932042 326.700072 L 185.067650 324.286383 L 186.037550 323.015087 L 180.894840 326.130732 L 180.646265 326.294694" fill="none" id="73" stroke="black" stroke-width="1.5" /><path d="M 147.046265 323.894694 L 151.349717 319.870592 L 153.046265 316.694694" fill="none" id="74" stroke="black" stroke-width="1.5" /><path d="M 64.246265 527.894694 L 64.382905 533.595894 L 65.165300 539.319885 L 66.543905 545.028554 L 68.469176 550.683791 L 70.891568 556.247484 L 73.761535 561.681521 L 77.029532 566.947792 L 80.646015 572.008183 L 84.561438 576.824584 L 88.726256 581.358883 L 93.090925 585.572969 L 97.605898 589.428730 L 102.221632 592.888054 L 103.846265 592.694694" fill="none" id="76" stroke="black" stroke-width="1.5" /><path d="M 85.846265 548.294694 L 86.565118 554.146045 L 89.547075 559.310823 L 93.843370 563.574793 L 94.246265 563.894694" fill="none" id="77" stroke="black" stroke-width="1.5" /><path d="M 301.846265 202.694694 L 304.417229 208.001552 L 306.186938 213.702828 L 307.351250 219.653959 L 308.106025 225.710384 L 308.647119 231.727541 L 309.046265 236.294694" fill="none" id="78" stroke="black" stroke-width="1.5" /><path d="M 327.046265 409.094694 L 328.837457 411.817483 L 331.624703 418.681150 L 334.019942 425.652458 L 335.332839 430.973800 L 336.389358 436.590525 L 337.220943 442.435018 L 337.824436 448.460851 L 338.196679 454.621594 L 338.334514 460.870819 L 338.234781 467.162098 L 337.894323 473.449001 L 337.309981 479.685100 L 336.478596 485.823966 L 335.397011 491.819171 L 334.062067 497.624287 L 332.470605 503.192883 L 330.619467 508.478533 L 328.397421 513.761360 L 325.850212 519.144253 L 323.072032 524.432079 L 320.071869 529.616917 L 316.858710 534.690846 L 313.441543 539.645944 L 309.829355 544.474290 L 306.031136 549.167963 L 302.055871 553.719040 L 297.912550 558.119602 L 293.610160 562.361725 L 289.157688 566.437490 L 284.564123 570.338973 L 279.838452 574.058255 L 274.989663 577.587413 L 270.026744 580.918527 L 264.958682 584.043673 L 259.794465 586.954933 L 255.121337 589.370525 L 250.424257 591.679843 L 245.058683 594.171476 L 239.180293 596.691591 L 232.944767 599.086356 L 226.507785 601.201937 L 220.025025 602.884500 L 213.652166 603.980213 L 207.544888 604.335243 L 201.858871 603.795755 L 196.749792 602.207918 L 193.613010 599.896344 L 198.780546 600.594890 L 204.596082 602.112506 L 210.770455 603.912180 L 217.014506 605.456897 L 223.054926 606.212682 L 229.103166 606.254251 L 235.103168 605.888031 L 241.046451 605.135828 L 246.924537 604.019448 L 252.728944 602.560696 L 258.451193 600.781378 L 264.082804 598.703300 L 269.615297 596.348266 L 275.040192 593.738083 L 280.349009 590.894556 L 285.533268 587.839491 L 290.584490 584.594693 L 295.494193 581.181969 L 300.253899 577.623123 L 305.099770 573.696655 L 309.735258 569.517233 L 314.041958 565.192731 L 318.042507 560.727638 L 321.759541 556.126440 L 325.215697 551.393627 L 328.433611 546.533687 L 331.435918 541.551108 L 334.245256 536.450377 L 336.884261 531.235985 L 339.375570 525.912418 L 341.741817 520.484165 L 344.005641 514.955714 L 346.189677 509.331554 L 348.316561 503.616172 L 350.408930 497.814058 L 352.497733 491.907689 L 354.600058 485.802523 L 356.304821 480.116818 L 357.493007 474.598265 L 358.045604 468.994555 L 357.843596 463.053379 L 356.739623 456.702414 L 354.569188 451.364400 L 353.437428 445.431285 L 353.446265 445.244694" fill="none" id="79" stroke="black" stroke-width="1.5" /><path d="M 353.446265 454.694694 L 353.396189 460.612811 L 353.275362 466.573760 L 353.073326 472.567437 L 352.779620 478.583737 L 352.383781 484.612556 L 351.875350 490.643791 L 351.243866 496.667336 L 350.478868 502.673089 L 349.569895 508.650943 L 348.506487 514.590796 L 347.278181 520.482543 L 345.874519 526.316081 L 344.285038 532.081303 L 342.499279 537.768108 L 340.506780 543.366389 L 338.297080 548.866044 L 335.859719 554.256968 L 333.184235 559.529057 L 330.260169 564.672206 L 327.077059 569.676311 L 323.624444 574.531269 L 319.891864 579.226974 L 315.868857 583.753324 L 311.544963 588.100212 L 307.050247 592.146108 L 302.670224 595.760023 L 298.041255 599.285830 L 293.185711 602.696832 L 288.125962 605.966335 L 282.884380 609.067641 L 277.483334 611.974054 L 271.945196 614.658879 L 266.292336 617.095419 L 260.547125 619.256978 L 254.731934 621.116860 L 248.869133 622.648369 L 242.981093 623.824808 L 237.090184 624.619483 L 231.218778 625.005696 L 225.389245 624.956751 L 219.623955 624.445953 L 213.945279 623.446604 L 208.375589 621.932010 L 202.937253 619.875474 L 197.652645 617.250300 L 192.544133 614.029791 L 187.634088 610.187252 L 182.944882 605.695987 L 183.618267 605.653113 L 188.672127 608.857242 L 194.020259 611.301758 L 199.614483 613.100868 L 205.406616 614.368780 L 211.348478 615.219702 L 217.391887 615.767841 L 223.488661 616.127405 L 229.897836 616.404456 L 236.391385 616.514953 L 242.733826 616.415895 L 248.922720 616.092035 L 254.955627 615.528131 L 260.830108 614.708937 L 266.543725 613.619209 L 272.094038 612.243702 L 277.478608 610.567172 L 282.694996 608.574375 L 287.740762 606.250065 L 292.613469 603.578999 L 297.310676 600.545931 L 301.829944 597.135617 L 306.168834 593.332813 L 310.324908 589.122275 L 314.295726 584.488757 L 318.078848 579.417015 L 321.671837 573.891804 L 324.646265 568.694694" fill="none" id="80" stroke="black" stroke-width="1.5" /><path d="M 352.246265 292.694694 L 350.355121 298.159529 L 348.577951 303.805084 L 346.938681 309.599821 L 345.461235 315.512202 L 344.169539 321.510691 L 343.087519 327.563748 L 342.239100 333.639836 L 341.648206 339.707417 L 341.338764 345.734953 L 341.334698 351.690907 L 341.659935 357.543739 L 342.341329 363.284134 L 343.350222 369.135460 L 344.633816 375.044066 L 346.192111 380.930912 L 348.025109 386.716963 L 350.132808 392.323180 L 352.513142 397.667060 L 355.347099 402.797237 L 358.643938 407.840211 L 362.215746 412.838168 L 365.874608 417.833292 L 369.432609 422.867768 L 372.701837 427.983782 L 375.494376 433.223517 L 377.622311 438.629159 L 378.646265 442.694694" fill="none" id="81" stroke="black" stroke-width="1.5" /><path d="M 388.246265 489.494694 L 389.291009 495.628356 L 390.051599 501.760378 L 390.527194 507.878692 L 390.716955 513.971228 L 390.620041 520.025919 L 390.235613 526.030696 L 389.562829 531.973490 L 388.600850 537.842233 L 387.348836 543.624856 L 385.805946 549.309290 L 383.971340 554.883468 L 381.844178 560.335320 L 379.423619 565.652777 L 376.708824 570.823773 L 373.698952 575.836236 L 370.393164 580.678100 L 366.790617 585.337296 L 362.890474 589.801754 L 358.691893 594.059407 L 354.194034 598.098186 L 349.396057 601.906022 L 344.297121 605.470847 L 340.531625 606.881679 L 343.478016 602.351491 L 348.132580 597.889789 L 352.954802 593.551590 L 352.301276 594.455827 L 348.203196 599.096326 L 344.334378 603.810047 L 341.078361 608.563639 L 344.799718 607.312943 L 349.476890 603.708980 L 353.532082 599.224045 L 354.796265 597.494694" fill="none" id="82" stroke="black" stroke-width="1.5" /><path d="M 124.246265 641.894694 L 125.387818 639.973100 L 119.679132 639.414513 L 112.636776 639.602039 L 105.370011 640.650223 L 98.988099 642.673605 L 94.600301 645.786732 L 93.315880 650.104144 L 95.118791 654.138354 L 98.623186 657.222690 L 103.551174 659.699579 L 109.579270 661.588292 L 116.383989 662.908098 L 123.641845 663.678264 L 131.029353 663.918062 L 138.223028 663.646758 L 144.899385 662.883623 L 150.734938 661.647925 L 155.406202 659.958934 L 157.501868 657.737465 L 153.013443 655.427550 L 147.348801 653.943143 L 140.917854 653.158933 L 134.130516 652.949609 L 127.396700 653.189861 L 121.126319 653.754379 L 115.729288 654.517853 L 118.032269 654.812467 L 123.978493 654.309475 L 130.032408 653.359178 L 136.052900 652.173250 L 141.898851 650.963366 L 138.170583 651.097989 L 132.189340 651.586018 L 126.208096 652.091031 L 120.226853 652.571867 L 118.625226 652.531438 L 124.568381 651.704301 L 130.528525 650.905887 L 136.488505 650.127618 L 142.431166 649.360918 L 140.870165 650.556969 L 135.258346 652.669724 L 129.675347 654.868943 L 135.304220 654.556903 L 141.228289 653.590785 L 146.992798 651.996530 L 144.092580 652.622275 L 139.696265 653.744694" fill="none" id="83" stroke="black" stroke-width="1.5" /><path d="M 318.646265 165.494694 L 319.363259 161.743677 L 321.458493 156.542249 L 324.432629 150.445598 L 327.786325 144.008911 L 331.020243 137.787374 L 333.635042 132.336174 L 335.331747 127.708913 L 336.940523 122.110874 L 338.710738 115.829979 L 340.749644 109.442212 L 343.164494 103.523554 L 346.062539 98.649988 L 349.164074 95.703062 L 353.351573 94.028758 L 359.185245 92.778148 L 366.144813 92.016458 L 373.709997 91.808916 L 381.360519 92.220746 L 388.576101 93.317177 L 394.836465 95.163435 L 399.621331 97.824747 L 402.410422 101.366339 L 402.683459 105.853437 L 397.354852 107.839510 L 391.586048 108.521948 L 386.599258 107.408718 L 386.665471 105.732843 L 380.327867 105.342575 L 379.083636 104.451990 L 384.241295 103.364944 L 378.935867 106.406215 L 383.295413 106.681722 L 389.267201 106.899136 L 387.114564 109.524331 L 381.893258 112.357808 L 376.293200 114.877278 L 370.648278 117.322722 L 365.281897 119.952088 L 360.166019 122.968937 L 355.242185 126.348482 L 350.536143 130.067916 L 346.073642 134.104432 L 341.880432 138.435225 L 337.982262 143.037488 L 334.404881 147.888414 L 331.174037 152.965198 L 328.315481 158.245033 L 325.854960 163.705112 L 326.167779 161.872413 L 327.046265 158.444694" fill="none" id="84" stroke="black" stroke-width="1.5" /><path d="M 310.246265 152.294694 L 306.651449 147.001900 L 303.695145 141.619504 L 301.314845 136.151858 L 299.448041 130.603313 L 298.032226 124.978217 L 297.004891 119.280922 L 296.303530 113.515778 L 295.865633 107.687136 L 295.628694 101.799345 L 295.530205 95.856757 L 295.507657 89.863721 L 295.498544 83.824588 L 295.440357 77.743708 L 295.270588 71.625432 L 294.926730 65.474109 L 294.340514 59.339182 L 293.163626 53.468498 L 291.263352 47.822676 L 288.689486 42.455194 L 285.491818 37.419534 L 281.720142 32.769176 L 277.424248 28.557601 L 272.653930 24.838288 L 267.571075 21.729977 L 262.268897 19.264031 L 256.635960 17.146021 L 250.823706 15.193124 L 244.983578 13.222517 L 239.267020 11.051378 L 233.825474 8.496884 L 228.810382 5.376212 L 224.373187 1.506539 L 227.172440 0.750000 L 232.890735 2.989769 L 237.559245 6.240570 L 241.212267 10.399514 L 243.884098 15.363712 L 245.609032 21.030276 L 246.421367 27.296319 L 246.382232 33.974119 L 245.571122 40.171713 L 244.090556 45.863769 L 242.054413 51.181080 L 239.576573 56.254439 L 236.770915 61.214639 L 233.751321 66.192472 L 230.631668 71.318730 L 227.525837 76.724207 L 224.559723 82.458015 L 221.678032 88.251328 L 219.020130 94.056500 L 216.858501 99.806071 L 215.465632 105.432581 L 215.114007 110.868571 L 216.076112 116.046579 L 218.624433 120.899146 L 223.031454 125.358813 L 228.266144 128.806263 L 233.206856 131.687792 L 238.346356 134.482010 L 243.661664 137.182555 L 249.129796 139.783068 L 254.727770 142.277186 L 260.432605 144.658549 L 266.221319 146.920795 L 272.070928 149.057564 L 277.958451 151.062494 L 283.860907 152.929224 L 289.755312 154.651393 L 295.618685 156.222640 L 301.428044 157.636603 L 307.160406 158.886923 L 312.792789 159.967237 L 317.146265 160.694694" fill="none" id="85" stroke="black" stroke-width="1.5" /><path d="M 337.846265 178.694694 L 341.663656 183.321237 L 345.512052 187.876573 L 349.342058 192.410098 L 353.104278 196.971208 L 356.749316 201.609299 L 360.227777 206.373766 L 363.490264 211.314007 L 366.487381 216.479416 L 369.169732 221.919390 L 371.487922 227.683325 L 373.417573 233.914898 L 374.839466 240.262926 L 375.713626 246.444014 L 376.085372 252.477518 L 376.000021 258.382796 L 375.502891 264.179205 L 374.639302 269.886102 L 373.454571 275.522844 L 371.994016 281.108788 L 370.302956 286.663290 L 368.426709 292.205709 L 366.410592 297.755401 L 364.299925 303.331722 L 362.140026 308.954031 L 359.976212 314.641683 L 357.853801 320.414037 L 357.046265 322.694694" fill="none" id="86" stroke="black" stroke-width="1.5" /><path d="M 364.246265 299.894694 L 360.268361 300.795995 L 356.629852 303.395080 L 353.331126 307.432740 L 350.372572 312.649763 L 347.754576 318.786941 L 345.477528 325.585062 L 343.541815 332.784916 L 341.947826 340.127292 L 340.695947 347.352980 L 339.786569 354.202770 L 339.220077 360.417452 L 338.996862 365.737814 L 339.117309 369.904647 L 342.646265 368.294694" fill="none" id="87" stroke="black" stroke-width="1.5" /><path d="M 349.846265 333.494694 L 352.046139 328.151179 L 350.741245 330.804690 L 348.425913 336.200836 L 346.863403 342.026267 L 345.885928 348.110490 L 345.325700 354.283010 L 345.014931 360.373334 L 344.785834 366.210968 L 343.859277 362.060623 L 343.627512 356.122785 L 344.182410 350.233312 L 345.414147 344.402663 L 347.212894 338.641297 L 348.322398 336.146320 L 346.729001 341.923713 L 345.504579 347.806408 L 346.177161 349.862339 L 349.041345 344.567178 L 351.202016 338.932998 L 351.783250 334.683621 L 348.852510 339.902669 L 348.865100 340.538113 L 352.030262 334.678108 L 355.046051 328.342621 L 356.918505 322.780478 L 357.046265 320.144694" fill="none" id="88" stroke="black" stroke-width="1.5" /><path d="M 369.046265 415.094694 L 372.377860 420.230822 L 375.471367 425.473801 L 378.324441 430.816335 L 380.934737 436.251127 L 383.299908 441.770881 L 385.417610 447.368299 L 387.285497 453.036085 L 388.901224 458.766942 L 390.262445 464.553572 L 391.366814 470.388680 L 392.211987 476.264967 L 392.795619 482.175138 L 393.115362 488.111894 L 393.168873 494.067940 L 392.953806 500.035979 L 392.467814 506.008713 L 391.708554 511.978846 L 390.673679 517.939081 L 389.360844 523.882120 L 389.837578 518.405464 L 390.457714 512.206607 L 390.717418 506.079579 L 390.195065 500.298436 L 390.185912 501.107034 L 390.707747 500.410862 L 390.395917 494.375693 L 389.478861 488.393663 L 387.879658 482.676304 L 387.803574 488.201810 L 389.046385 494.042230 L 389.246954 490.689267 L 388.170431 484.791382 L 386.334435 478.839932 L 383.911096 473.064423 L 381.072542 467.694357 L 378.244855 463.629594 L 379.473063 469.612308 L 381.771035 475.245917 L 385.371473 479.774139 L 384.611443 474.570719 L 382.630006 468.873234 L 380.127981 463.326247 L 377.433882 457.855961 L 374.876228 452.388577 L 372.783537 446.850299 L 371.484324 441.167329 L 373.839423 442.607826 L 377.089131 447.630721 L 380.066237 452.905386 L 383.004236 458.186039 L 384.496265 460.694694" fill="none" id="89" stroke="black" stroke-width="1.5" /><path d="M 388.246265 487.094694 L 386.046940 492.359231 L 384.680948 497.905460 L 383.977062 503.682576 L 383.764055 509.639777 L 383.870698 515.726258 L 384.125766 521.891216 L 384.358030 528.083847 L 384.396264 534.253348 L 384.069240 540.348914 L 383.205730 546.319743 L 381.634507 552.115029 L 379.233315 557.741972 L 376.212441 562.933947 L 372.695021 567.713288 L 368.781693 572.166847 L 364.573098 576.381477 L 360.169875 580.444032 L 355.672664 584.441365 L 351.182105 588.460330 L 346.792537 592.593293 L 342.453750 596.909441 L 338.233427 601.169855 L 334.026965 605.321247 L 329.729763 609.310331 L 325.237219 613.083818 L 320.444733 616.588421 L 315.247702 619.770853 L 309.800278 622.476208 L 304.550846 624.704891 L 299.161131 626.707800 L 293.642389 628.490441 L 288.005876 630.058320 L 282.262849 631.416942 L 276.424564 632.571811 L 270.502277 633.528434 L 264.507244 634.292315 L 258.450723 634.868961 L 252.343968 635.263875 L 246.198236 635.482563 L 240.024784 635.530531 L 233.834868 635.413283 L 227.639743 635.136326 L 221.450668 634.705163 L 215.278896 634.125301 L 209.135685 633.402245 L 203.032292 632.541500 L 196.979972 631.548571 L 190.989981 630.428963 L 185.073576 629.188182 L 179.242014 627.831733 L 173.506549 626.365121 L 167.878440 624.793852 L 162.368941 623.123430 L 156.989309 621.359361 L 162.867256 622.482790 L 168.826715 623.598245 L 174.777311 624.669408 L 180.720135 625.684020 L 186.656284 626.629826 L 192.586851 627.494569 L 198.512930 628.265994 L 204.435616 628.931844 L 210.356003 629.479862 L 216.275186 629.897792 L 222.194259 630.173377 L 228.114315 630.294363 L 234.036450 630.248491 L 239.961758 630.023506 L 245.891333 629.607151 L 251.826269 628.987170 L 257.767661 628.151307 L 263.716603 627.087305 L 269.674190 625.782908 L 275.641515 624.225859 L 276.796265 623.894694" fill="none" id="90" stroke="black" stroke-width="1.5" /><path d="M 208.246265 617.894694 L 205.600530 623.518294 L 205.485327 629.136901 L 207.693071 634.589061 L 211.837875 634.449938 L 215.822044 630.021282 L 219.313859 624.927629 L 222.378262 619.577182 L 225.025709 614.520512 L 223.417208 620.289610 L 222.028977 626.179215 L 221.385948 632.123710 L 222.826257 636.687370 L 227.415222 634.176200 L 231.218464 629.278553 L 234.218949 623.246426 L 236.399642 617.331812 L 236.253451 617.377979 L 234.549829 623.689460 L 234.598554 629.713928 L 238.113244 633.615479 L 240.971727 628.349938 L 243.577465 622.943148 L 245.999386 617.446804 L 247.438322 614.947863 L 246.272120 620.832989 L 245.207075 626.796896 L 244.799710 632.771717 L 246.322015 636.922588 L 250.723616 633.705465 L 254.668425 629.110688 L 258.106691 623.653871 L 260.988662 617.850628 L 263.264585 612.216575 L 263.378199 611.115155 L 261.110534 616.674391 L 259.390393 622.413558 L 258.422595 628.303396 L 258.411962 634.314644 L 262.386363 633.601674 L 266.364713 629.483131 L 269.725681 623.749526 L 272.416406 617.330319 L 274.384029 611.154971 L 275.575690 606.152942 L 274.106132 611.738378 L 273.138108 617.776215 L 272.954077 623.776538 L 274.095249 628.700271 L 278.176950 624.654676 L 281.058341 619.399012 L 283.022388 613.476873 L 284.352058 607.431853 L 284.975932 603.454440 L 283.907640 609.476839 L 283.681676 615.606494 L 284.462860 621.431350 L 287.798179 620.889638 L 291.514425 616.293245 L 294.658629 611.247570 L 297.526341 605.967821 L 300.413111 600.669204 L 303.614491 595.566926 L 307.426030 590.876193 L 308.019191 594.886412 L 307.190782 600.797286 L 306.852496 606.841275 L 308.722882 612.180993 L 314.081349 610.408464 L 318.181422 606.292874 L 321.182606 600.711510 L 323.244407 594.541658 L 324.526332 588.660603 L 324.166104 588.575736 L 322.804903 594.551630 L 322.408447 600.608574 L 323.685632 606.158470 L 328.240747 602.802620 L 331.497034 597.601045 L 333.474155 591.432101 L 334.191776 585.174144 L 333.669562 579.705528 L 333.079830 584.275559 L 333.945918 590.350015 L 336.863971 595.276054 L 341.477725 594.949123 L 344.478296 590.167893 L 345.893526 584.412163 L 346.058786 578.116316 L 345.309444 571.714736 L 343.980872 565.641806 L 342.408437 560.331911 L 342.798379 565.757286 L 344.790106 571.460745 L 347.955813 576.644857 L 352.137623 577.492957 L 355.326383 573.348308 L 357.053553 567.472499 L 357.619717 560.627911 L 357.325455 553.576929 L 356.471347 547.081935 L 355.357975 541.905311 L 356.077062 544.144068 L 358.638061 549.762199 L 362.423798 554.289762 L 367.494677 556.089151 L 370.053064 551.094474 L 370.792703 545.194075 L 370.219541 538.887949 L 368.839527 532.676090 L 367.158607 527.058494 L 366.880018 530.886874 L 367.945807 537.165085 L 370.476858 542.383770 L 374.891796 545.484050 L 378.370177 542.912286 L 379.526201 537.286808 L 379.917261 531.123639 L 379.588013 524.716566 L 378.583112 518.359377 L 376.947214 512.345859 L 374.724975 506.969800 L 373.296802 505.900090 L 375.593354 511.650897 L 379.672570 515.820132 L 384.457982 516.024480 L 385.904603 510.932267 L 386.573177 504.846891 L 386.452766 498.236551 L 385.532430 491.569441 L 383.801231 485.313761 L 381.248229 479.937706 L 377.862485 475.909473 L 376.819307 479.926329 L 379.358563 485.242733 L 382.488674 480.530827 L 383.181883 474.535037 L 382.493881 468.382108 L 380.818629 463.059226 L 377.036966 457.081291 L 373.352271 451.596271 L 372.204796 447.761941 L 373.648129 441.519222 L 375.815676 433.996338 L 376.791640 427.625705 L 374.660224 424.839740 L 374.296265 424.844694" fill="none" id="91" stroke="black" stroke-width="1.5" /><path d="M 157.846265 641.894694 L 156.695736 639.635610 L 153.586975 638.021976 L 148.842029 637.015160 L 142.782941 636.576530 L 135.731758 636.667452 L 128.010524 637.249295 L 119.941283 638.283427 L 111.846082 639.731214 L 104.046963 641.554024 L 96.865973 643.713226 L 90.625156 646.170186 L 85.646558 648.886273 L 82.252222 651.822854 L 80.764194 654.941295 L 80.934070 657.440860 L 82.011657 659.710897 L 83.939692 661.789448 L 86.665844 663.684185 L 90.137783 665.402777 L 94.303177 666.952897 L 99.109694 668.342216 L 104.505004 669.578404 L 110.436774 670.669133 L 116.852674 671.622074 L 123.700373 672.444899 L 130.927538 673.145277 L 138.481840 673.730882 L 146.310945 674.209382 L 154.362524 674.588451 L 162.584244 674.875758 L 170.923775 675.078976 L 179.328785 675.205775 L 187.746943 675.263826 L 196.125917 675.260800 L 204.413377 675.204369 L 212.556990 675.102204 L 220.504426 674.961976 L 228.203353 674.791356 L 235.601440 674.598015 L 242.646356 674.389625 L 249.285769 674.173856 L 255.467348 673.958379 L 261.138762 673.750867 L 266.247679 673.558989 L 270.741768 673.390417 L 274.568698 673.252823 L 277.676137 673.153877 L 280.011755 673.101250 L 283.948161 673.089623 L 289.937742 673.051889 L 295.930099 672.978950 L 301.924874 672.872726 L 307.921713 672.735138 L 313.920261 672.568107 L 319.920161 672.373552 L 325.921057 672.153394 L 331.922595 671.909553 L 337.924418 671.643950 L 343.926172 671.358505 L 349.927499 671.055139 L 355.928046 670.735771 L 361.927455 670.402322 L 367.925372 670.056712 L 373.921441 669.700863 L 379.915306 669.336693 L 385.906611 668.966124 L 391.895002 668.591076 L 397.880122 668.213469 L 403.861616 667.835224 L 409.839127 667.458260 L 415.812302 667.084499 L 421.546903 666.737211 L 426.669420 666.552103 L 432.152771 666.478329 L 437.945546 666.484135 L 443.996336 666.537768 L 450.253731 666.607476 L 456.666319 666.661504 L 463.182692 666.668100 L 469.751439 666.595510 L 476.321151 666.411982 L 482.840417 666.085761 L 489.257826 665.585094 L 495.521970 664.878229 L 501.581439 663.933412 L 507.384821 662.718890 L 512.880707 661.202909 L 518.017687 659.353717 L 522.744352 657.139559 L 528.704455 653.014514 L 531.063054 648.778486 L 529.506596 645.135102 L 525.109753 642.042385 L 518.947195 639.458354 L 512.093594 637.341031 L 505.623622 635.648436 L 500.281669 634.256850 L 494.283733 632.727643 L 488.299721 631.355543 L 482.328427 630.134961 L 476.368642 629.060310 L 470.419160 628.126004 L 464.478773 627.326453 L 458.546275 626.656071 L 452.620458 626.109269 L 446.700114 625.680461 L 440.784038 625.364059 L 434.871020 625.154474 L 428.959856 625.046121 L 423.049336 625.033410 L 417.138254 625.110754 L 411.225403 625.272567 L 405.309575 625.513259 L 399.389564 625.827244 L 393.464162 626.208934 L 387.532161 626.652742 L 381.592356 627.153079 L 375.643538 627.704359 L 369.684500 628.300993 L 363.714036 628.937394 L 357.730937 629.607975 L 351.733998 630.307147 L 345.722009 631.029324 L 339.693766 631.768917 L 333.648059 632.520340 L 327.583682 633.278004 L 324.646265 633.644694" fill="none" id="92" stroke="black" stroke-width="1.5" /></svg>