<?xml version="1.0" encoding="utf-8" ?>
<svg baseProfile="full" height="1086.5" version="1.1" viewBox="0,0,792.5,1086.5" width="792.5" xmlns="http://www.w3.org/2000/svg" xmlns:ev="http://www.w3.org/2001/xml-events" xmlns:xlink="http://www.w3.org/1999/xlink"><defs><style type="text/css"><![CDATA[
	.background { fill: white; }
	.line { stroke: firebrick; stroke-width: .1mm; }
	.blacksquare { fill: indigo; }
	.whitesquare { fill: white; }
]]></style></defs><rect class="background" height="100%" width="100%" x="0" y="0" /><path d="M 210.288503 965.240403 L 215.559291 965.812625 L 221.480286 963.139151 L 226.970781 960.657597 L 232.135190 957.985356 L 237.224235 955.297932 L 242.488635 952.770828 L 248.179110 950.579550 L 254.327721 948.924935 L 259.915003 947.377388 L 265.443061 945.453054 L 270.901965 943.178413 L 276.281787 940.579944 L 281.572595 937.684129 L 286.764459 934.517445 L 291.847451 931.106374 L 296.811639 927.477395 L 301.647094 923.656988 L 306.343886 919.671633 L 310.892085 915.547809 L 315.281761 911.311997 L 319.502985 906.990676 L 323.545825 902.610326 L 327.400353 898.197428 L 331.056638 893.778460 L 331.488503 893.240403" fill="none" id="1" stroke="black" stroke-width="1.5" /><path d="M 326.688503 895.640403 L 330.565722 890.328748 L 333.782635 884.917917 L 336.389752 879.415450 L 338.437583 873.828891 L 339.976636 868.165779 L 341.057422 862.433656 L 341.730450 856.640064 L 342.046229 850.792543 L 342.055269 844.898636 L 341.808079 838.965884 L 341.355169 833.001827 L 340.747048 827.014008 L 340.034226 821.009967 L 339.267212 814.997246 L 338.496516 808.983387 L 337.772647 802.975930 L 337.146114 796.982417 L 336.667428 791.010390 L 336.387097 785.067389 L 336.355631 779.160956 L 336.623540 773.298633 L 337.230708 767.449723 L 337.940754 761.511193 L 338.638067 755.564171 L 339.320045 749.609403 L 339.984086 743.647631 L 340.627587 737.679599 L 341.247947 731.706050 L 341.842564 725.727728 L 342.408835 719.745376 L 342.944159 713.759738 L 343.445933 707.771557 L 343.911556 701.781576 L 344.338424 695.790540 L 344.723937 689.799191 L 345.065492 683.808272 L 345.360487 677.818529 L 345.606320 671.830702 L 345.803489 665.844463 L 345.953665 659.854960 L 346.055103 653.862330 L 346.112651 647.866870 L 346.131157 641.868879 L 346.115467 635.868655 L 346.070429 629.866494 L 346.000891 623.862694 L 345.911700 617.857554 L 345.807703 611.851370 L 345.693748 605.844441 L 345.574683 599.837064 L 345.455354 593.829536 L 345.340609 587.822156 L 345.235296 581.815221 L 345.144263 575.809029 L 345.072355 569.803877 L 345.024422 563.800062 L 345.005310 557.797884 L 345.019867 551.797639 L 345.072940 545.799624 L 345.169377 539.804138 L 345.314025 533.811479 L 345.511732 527.821943 L 345.767344 521.835829 L 346.085710 515.853433 L 346.471677 509.875055 L 346.930093 503.900991 L 347.088503 502.040403" fill="none" id="2" stroke="black" stroke-width="1.5" /><path d="M 470.688503 960.440403 L 468.743575 957.421864 L 462.280403 954.892751 L 455.662048 952.473669 L 450.416069 949.871574 L 445.025899 947.113893 L 439.616388 944.165356 L 434.311670 940.988249 L 429.235881 937.544861 L 424.513156 933.797481 L 420.267631 929.708395 L 416.623439 925.239892 L 413.309956 919.957612 L 410.385270 914.407714 L 407.981845 908.876312 L 406.042817 903.341024 L 404.511321 897.779466 L 403.330493 892.169257 L 402.443468 886.488013 L 401.793382 880.713351 L 401.323371 874.822889 L 400.976570 868.794243 L 400.696114 862.605031 L 400.427365 856.251773 L 400.069039 849.997428 L 399.571949 843.902049 L 398.942229 837.937800 L 398.186012 832.076843 L 397.309431 826.291342 L 396.318621 820.553461 L 395.219714 814.835363 L 394.018844 809.109213 L 392.722145 803.347172 L 391.335749 797.521405 L 389.865791 791.604076 L 388.318404 785.567348 L 386.866616 779.910453 L 385.475312 774.227575 L 384.126398 768.427999 L 382.828912 762.532947 L 381.591894 756.563642 L 380.424384 750.541308 L 379.335420 744.487167 L 378.334043 738.422441 L 377.429291 732.368355 L 376.630204 726.346130 L 375.945821 720.376989 L 375.385181 714.482156 L 374.957325 708.682854 L 374.593199 702.821781 L 374.060823 696.865041 L 373.385801 690.889734 L 372.614771 684.901240 L 371.794372 678.904941 L 370.971242 672.906219 L 370.192020 666.910454 L 369.503345 660.923029 L 368.951855 654.949324 L 368.584189 648.994721 L 368.446985 643.064602 L 368.592183 637.122195 L 369.010651 631.054021 L 369.597187 625.055526 L 370.292740 619.108256 L 371.038260 613.193758 L 371.774695 607.293578 L 372.442996 601.389263 L 372.984110 595.462359 L 373.338988 589.494414 L 373.448578 583.466974 L 373.268593 577.391717 L 372.986766 571.375533 L 372.681207 565.370794 L 372.358970 559.375485 L 372.027109 553.387592 L 371.692678 547.405099 L 371.362730 541.425989 L 371.044319 535.448249 L 370.744499 529.469862 L 370.470324 523.488814 L 370.228847 517.503088 L 370.027122 511.510671 L 369.872204 505.509545 L 369.771145 499.497696 L 369.738503 495.740403" fill="none" id="3" stroke="black" stroke-width="1.5" /><path d="M 369.888503 497.240403 L 368.583193 492.076460 L 368.424271 486.294733 L 369.172029 480.117941 L 370.586762 473.768803 L 372.428763 467.470038 L 374.458326 461.444366 L 376.435745 455.914505 L 378.200391 450.861609 L 380.255902 445.177900 L 382.510876 439.603814 L 384.948687 434.129653 L 387.552710 428.745719 L 390.306318 423.442313 L 393.192885 418.209736 L 396.195786 413.038291 L 399.298394 407.918278 L 402.484083 402.839999 L 405.736228 397.793756 L 409.038202 392.769850 L 412.373380 387.758583 L 415.498990 382.951864 L 418.408361 378.004793 L 421.183592 372.821367 L 423.831854 367.437429 L 426.360314 361.888825 L 428.776142 356.211401 L 431.086508 350.441001 L 433.298579 344.613470 L 435.419525 338.764654 L 437.456516 332.930397 L 439.416719 327.146545 L 441.307305 321.448944 L 443.135441 315.873437 L 444.908298 310.455870 L 446.745031 304.872263 L 448.581391 299.145817 L 450.382110 293.425138 L 452.173139 287.713686 L 453.980432 282.014922 L 455.829942 276.332305 L 457.747620 270.669296 L 459.759419 265.029355 L 461.891293 259.415943 L 464.169193 253.832520 L 466.589520 248.341566 L 469.147125 242.912999 L 471.751386 237.466939 L 474.272193 231.978604 L 476.579439 226.423211 L 478.543016 220.775979 L 480.032816 215.012124 L 476.674040 218.703856 L 476.538503 218.840403" fill="none" id="4" stroke="black" stroke-width="1.5" /><path d="M 361.488503 472.040403 L 361.725790 465.174811 L 362.350080 458.789888 L 363.334359 452.812490 L 364.651614 447.169472 L 366.274830 441.787690 L 368.176994 436.594000 L 370.331093 431.515258 L 372.710113 426.478318 L 375.287041 421.410036 L 378.034863 416.237269 L 380.926565 410.886872 L 383.935134 405.285700 L 387.005328 399.415370 L 389.668339 394.156742 L 392.298804 388.829544 L 394.893287 383.440643 L 397.448357 377.996904 L 399.960581 372.505194 L 402.426524 366.972380 L 404.842754 361.405328 L 407.205838 355.810903 L 409.512343 350.195972 L 411.758836 344.567402 L 413.941883 338.932059 L 416.058051 333.296808 L 418.103907 327.668517 L 420.076018 322.054052 L 421.970951 316.460278 L 423.780598 310.935583 L 425.677663 305.521664 L 427.764422 300.097611 L 430.024225 294.667010 L 432.440420 289.233446 L 434.996357 283.800507 L 437.675385 278.371778 L 440.460852 272.950846 L 443.336108 267.541297 L 446.284503 262.146717 L 449.289384 256.770694 L 452.334102 251.416813 L 455.402005 246.088660 L 458.476442 240.789823 L 461.540763 235.523886 L 464.578316 230.294438 L 467.572452 225.105063 L 470.506518 219.959349 L 473.363864 214.860881 L 476.152941 209.763502 L 479.147407 204.427441 L 482.286935 199.251593 L 485.588550 194.244067 L 489.069276 189.412969 L 492.746136 184.766405 L 496.636156 180.312483 L 500.756358 176.059309 L 505.123768 172.014989 L 509.755410 168.187631 L 514.668307 164.585341 L 519.703607 161.309700 L 524.933093 158.281110 L 530.235145 155.314453 L 535.429486 152.241886 L 540.335839 148.895564 L 541.663898 150.025488 L 537.888503 152.840403" fill="none" id="5" stroke="black" stroke-width="1.5" /><path d="M 355.488503 458.840403 L 355.608352 452.997757 L 355.353368 447.115193 L 354.783930 441.199841 L 353.960416 435.258833 L 352.943207 429.299301 L 351.792681 423.328376 L 350.569217 417.353190 L 349.333195 411.380873 L 348.144993 405.418557 L 347.064991 399.473374 L 346.153568 393.552455 L 345.471104 387.662931 L 345.066446 381.854778 L 344.892373 376.006867 L 344.903793 370.080792 L 345.062154 364.089192 L 345.328904 358.044709 L 345.665491 351.959981 L 346.033362 345.847649 L 346.393966 339.720353 L 346.708750 333.590733 L 346.939163 327.471428 L 347.046651 321.375080 L 346.992664 315.314328 L 346.738648 309.301812 L 346.246052 303.350173 L 345.476324 297.472049 L 344.390911 291.680082 L 342.951261 285.986911 L 341.118823 280.405176 L 338.849877 274.919261 L 336.174499 269.598898 L 333.200732 264.410460 L 330.037977 259.302125 L 326.795632 254.222073 L 323.583095 249.118484 L 320.509766 243.939537 L 317.685070 238.633420 L 315.000739 233.275550 L 312.243570 227.957313 L 309.423859 222.672156 L 306.551903 217.413527 L 303.637999 212.174873 L 300.692441 206.949643 L 297.725528 201.731285 L 294.747554 196.513246 L 291.768817 191.288973 L 288.884161 186.203595 L 286.513850 181.861379 L 284.046514 177.117861 L 281.475133 172.038288 L 278.792687 166.687909 L 275.992157 161.131970 L 273.066524 155.435721 L 270.008766 149.664409 L 266.811866 143.883282 L 263.468803 138.157587 L 259.972558 132.552573 L 256.316110 127.133488 L 252.492441 121.965579 L 248.494531 117.114094 L 244.315361 112.644281 L 239.947910 108.621388 L 235.385158 105.110663 L 230.620088 102.177354 L 225.645678 99.886709 L 220.454909 98.303974 L 216.496315 99.262165 L 217.028021 105.152553 L 218.428781 111.107048 L 218.688503 112.040403" fill="none" id="6" stroke="black" stroke-width="1.5" /><path d="M 344.688503 515.240403 L 341.483029 510.343943 L 339.705866 504.646870 L 338.687725 498.588062 L 337.759318 492.606397 L 336.365904 486.782234 L 334.801825 480.979945 L 333.215345 475.240401 L 331.689394 469.514694 L 330.306905 463.753916 L 329.150807 457.909158 L 328.304032 451.931514 L 327.843934 445.833311 L 327.489991 439.917027 L 327.101499 433.895277 L 326.753524 427.823375 L 326.521133 421.756633 L 326.479392 415.750362 L 326.705233 409.854225 L 327.381065 403.912813 L 328.402263 397.996617 L 329.559155 392.089752 L 330.642069 386.176334 L 331.441336 380.240480 L 331.747283 374.266305 L 331.638503 371.090403" fill="none" id="7" stroke="black" stroke-width="1.5" /><path d="M 325.488503 367.640403 L 326.225561 361.714989 L 326.377789 355.764261 L 326.062978 349.798032 L 325.398918 343.826121 L 324.503402 337.858342 L 323.494218 331.904511 L 322.489159 325.974445 L 321.573330 319.945203 L 320.774959 313.956018 L 320.028972 308.022176 L 319.264170 302.131018 L 318.409353 296.269887 L 317.393320 290.426125 L 316.144874 284.587074 L 314.592813 278.740077 L 312.750101 272.944130 L 310.872489 267.218372 L 308.979012 261.514235 L 307.068047 255.828472 L 305.137971 250.157836 L 303.187159 244.499078 L 301.213987 238.848953 L 299.216833 233.204212 L 297.144355 227.529996 L 294.667772 222.017386 L 291.830186 216.767037 L 288.741300 211.690341 L 285.510816 206.698693 L 282.248435 201.703488 L 279.063860 196.616121 L 276.066794 191.347985 L 273.241893 185.827900 L 270.515417 180.337503 L 267.851334 174.912253 L 265.204107 169.558089 L 262.528197 164.280952 L 259.778065 159.086780 L 256.908175 153.981515 L 253.872988 148.971095 L 250.626965 144.061460 L 247.124569 139.258550 L 243.320262 134.568305 L 239.168505 129.996665 L 235.928770 126.862441 L 232.426415 124.049568 L 227.828832 120.690473 L 222.336793 116.941039 L 216.151070 112.957145 L 209.472435 108.894672 L 202.501661 104.909501 L 195.439518 101.157511 L 188.486779 97.794585 L 181.844216 94.976602 L 175.712602 92.859443 L 170.292707 91.598988 L 165.785305 91.351119 L 162.391166 92.271715 L 160.311064 94.516658 L 160.038503 95.240403" fill="none" id="8" stroke="black" stroke-width="1.5" /><path d="M 375.888503 683.240403 L 374.552219 678.170564 L 373.745280 672.643636 L 373.424281 666.752371 L 373.545814 660.589521 L 374.066474 654.247838 L 374.942854 647.820075 L 376.131548 641.398983 L 377.589151 635.077315 L 379.272256 628.947823 L 381.137456 623.103259 L 383.141346 617.636375 L 385.240520 612.639923 L 387.659057 607.698657 L 390.648474 602.538147 L 393.965171 597.640265 L 397.584179 592.987767 L 401.480529 588.563411 L 405.629253 584.349955 L 410.005381 580.330155 L 414.583945 576.486769 L 419.339975 572.802554 L 424.248502 569.260268 L 429.284558 565.842667 L 434.423173 562.532509 L 439.639379 559.312552 L 444.908206 556.165551 L 450.204685 553.074266 L 455.503849 550.021452 L 460.780726 546.989868 L 466.010349 543.962270 L 471.167749 540.921416 L 476.227956 537.850063 L 481.166002 534.730968 L 485.934456 531.571790 L 490.713064 528.400320 L 495.664849 525.128922 L 500.722287 521.752511 L 505.817856 518.266006 L 510.884035 514.664325 L 515.853302 510.942386 L 520.658133 507.095105 L 525.231008 503.117400 L 529.504403 499.004191 L 533.410797 494.750393 L 536.971777 490.248407 L 540.306535 485.390670 L 543.426177 480.297443 L 546.387780 475.034485 L 549.248417 469.667559 L 552.065166 464.262426 L 554.895101 458.884845 L 557.795298 453.600580 L 560.822834 448.475389 L 563.965917 443.621855 L 567.189559 438.845281 L 570.535309 434.046082 L 574.002634 429.241267 L 577.591002 424.447844 L 581.299884 419.682819 L 585.128746 414.963200 L 589.077057 410.305996 L 593.144286 405.728213 L 597.329902 401.246860 L 601.633373 396.878944 L 606.054167 392.641473 L 610.591753 388.551454 L 615.245600 384.625895 L 620.015175 380.881805 L 624.899948 377.336189 L 629.899387 374.006057 L 635.012961 370.908416 L 640.240138 368.060273 L 645.580386 365.478636 L 651.033174 363.180513 L 656.597971 361.182911 L 662.274245 359.502838 L 660.661627 361.763922 L 659.088503 362.690403" fill="none" id="9" stroke="black" stroke-width="1.5" /><path d="M 379.488503 708.440403 L 376.426539 706.033993 L 374.624367 702.123852 L 373.918998 696.981787 L 374.147445 690.879603 L 375.146719 684.089106 L 376.753832 676.882101 L 378.805795 669.530395 L 381.139619 662.305793 L 383.592317 655.480100 L 386.000900 649.325123 L 388.202379 644.112667 L 390.033767 640.114538 L 392.220389 635.725211 L 394.763275 630.385696 L 397.271491 624.925290 L 399.786871 619.395988 L 402.351252 613.849787 L 405.006469 608.338681 L 407.794357 602.914666 L 410.756752 597.629739 L 413.935491 592.535894 L 417.372407 587.685128 L 421.109338 583.129435 L 425.207025 578.910262 L 429.772441 575.042981 L 434.614018 571.489843 L 439.593825 568.098653 L 444.573935 564.717212 L 449.416418 561.193323 L 454.054353 557.376889 L 458.499552 553.326201 L 462.801569 549.191688 L 467.111531 545.094255 L 471.580568 541.154803 L 476.359809 537.494235 L 481.373948 534.332576 L 486.434741 531.441111 L 491.644977 528.591511 L 496.956032 525.749043 L 502.319278 522.878974 L 507.686090 519.946571 L 513.007841 516.917101 L 518.235906 513.755831 L 523.321657 510.428029 L 528.216470 506.898961 L 532.871719 503.133895 L 537.238776 499.098097 L 541.269016 494.756835 L 544.913813 490.075375 L 544.938503 490.040403" fill="none" id="10" stroke="black" stroke-width="1.5" /><path d="M 547.488503 482.840403 L 550.537009 477.653872 L 553.479237 472.419355 L 556.332056 467.143602 L 559.112341 461.833362 L 561.836964 456.495383 L 564.522797 451.136415 L 567.186712 445.763206 L 569.845582 440.382506 L 572.688842 435.083259 L 575.883899 429.962682 L 579.353724 424.987424 L 583.021621 420.123336 L 586.810894 415.336269 L 590.644846 410.592074 L 594.446783 405.856601 L 598.140008 401.095700 L 601.647826 396.275224 L 604.893539 391.361022 L 607.800454 386.318945 L 609.888503 382.040403" fill="none" id="11" stroke="black" stroke-width="1.5" /><path d="M 331.488503 650.840403 L 329.128521 645.944820 L 327.084822 640.668298 L 325.320281 635.071659 L 323.797775 629.215722 L 322.480180 623.161307 L 321.330371 616.969236 L 320.311225 610.700327 L 319.385616 604.415402 L 318.516423 598.175281 L 317.666519 592.040784 L 316.798781 586.072732 L 315.876085 580.331944 L 314.861308 574.879241 L 313.716795 568.907457 L 312.715210 562.785382 L 311.599326 556.789044 L 310.071141 551.068810 L 307.832657 545.775046 L 304.585873 541.058119 L 300.032791 537.068396 L 295.120524 534.050873 L 289.900711 531.193821 L 284.455215 528.428756 L 278.910395 525.718693 L 273.392613 523.026651 L 268.028227 520.315645 L 262.799681 517.494344 L 257.304543 514.777066 L 251.734763 512.410928 L 246.104337 510.338902 L 240.427263 508.503964 L 234.717538 506.849087 L 228.989160 505.317244 L 223.256125 503.851410 L 217.532431 502.394559 L 211.832076 500.889664 L 206.169056 499.279700 L 200.557370 497.507640 L 195.011013 495.516458 L 189.543985 493.249128 L 184.170281 490.648624 L 178.903900 487.657920 L 173.758838 484.219990 L 168.749093 480.277807 L 163.977660 476.231970 L 159.303745 472.302218 L 154.751860 468.415901 L 150.350807 464.503739 L 146.129388 460.496448 L 142.116406 456.324748 L 138.340664 451.919357 L 134.830965 447.210992 L 131.616110 442.130373 L 128.724902 436.608217 L 126.388274 431.099823 L 124.481939 425.512245 L 122.593456 419.481925 L 120.567748 413.332312 L 118.249734 407.386856 L 115.484337 401.969008 L 112.116477 397.402218 L 108.314476 394.627361 L 110.200609 400.033892 L 111.888503 402.440403" fill="none" id="12" stroke="black" stroke-width="1.5" /><path d="M 330.288503 638.840403 L 327.571459 634.124040 L 325.875050 628.604025 L 324.964241 622.523101 L 324.603996 616.124010 L 324.559281 609.649492 L 324.595059 603.342289 L 324.476295 597.445143 L 323.966690 592.055907 L 323.105466 586.395411 L 322.016469 580.584797 L 320.712850 574.673578 L 319.207759 568.711264 L 317.514349 562.747366 L 315.645771 556.831396 L 313.615176 551.012866 L 311.435716 545.341285 L 309.120542 539.866165 L 306.682806 534.637019 L 303.934632 529.606871 L 300.549918 525.034801 L 296.591830 520.950150 L 292.125866 517.313032 L 287.217521 514.083562 L 281.932294 511.221857 L 276.335680 508.688031 L 270.493177 506.442200 L 264.470282 504.444479 L 258.332492 502.654983 L 252.145303 501.033827 L 245.974213 499.541128 L 239.884718 498.137000 L 233.942315 496.781558 L 228.212502 495.434918 L 222.760775 494.057195 L 217.612586 492.598617 L 212.013557 491.035840 L 206.142795 489.473024 L 200.173130 487.799916 L 194.277390 485.906264 L 188.628405 483.681813 L 183.399002 481.016312 L 178.634506 477.728196 L 174.084945 473.879603 L 169.740057 469.776287 L 165.472135 465.561435 L 161.153471 461.378236 L 156.656355 457.369877 L 151.723476 453.565709 L 146.637727 449.501975 L 142.169355 445.364032 L 138.208666 441.122498 L 134.645966 436.747990 L 131.371561 432.211125 L 128.275756 427.482523 L 125.248859 422.532799 L 122.181175 417.332573 L 118.963010 411.852462 L 115.597725 406.371154 L 111.977010 401.586342 L 108.075048 397.203989 L 104.012084 392.948240 L 99.908361 388.543240 L 96.326638 384.115848 L 93.190037 378.913884 L 89.780612 373.204463 L 85.891980 368.122702 L 81.317755 364.803718 L 77.152246 365.460958 L 80.688503 368.840403" fill="none" id="13" stroke="black" stroke-width="1.5" /><path d="M 175.488503 496.040403 L 170.647255 494.867742 L 164.724582 494.657034 L 158.177069 495.095875 L 151.461303 495.871866 L 145.033872 496.672605 L 139.351361 497.185690 L 133.948589 497.264345 L 127.932873 497.484477 L 121.771371 498.079773 L 115.701314 499.223166 L 109.959929 501.087589 L 104.784447 503.845975 L 100.412094 507.671258 L 98.513552 511.013881 L 101.088503 506.840403" fill="none" id="14" stroke="black" stroke-width="1.5" /><path d="M 175.488503 499.640403 L 170.973549 502.823803 L 165.918200 505.492837 L 160.418768 507.676847 L 154.571565 509.405171 L 148.472902 510.707150 L 142.219092 511.612125 L 135.906446 512.149435 L 129.631278 512.348420 L 123.489899 512.238421 L 117.578620 511.848777 L 111.993754 511.208829 L 110.047318 515.374441 L 110.688503 517.640403" fill="none" id="15" stroke="black" stroke-width="1.5" /><path d="M 517.488503 516.440403 L 523.194326 514.953384 L 528.991501 513.990416 L 534.863957 513.413120 L 540.795625 513.083113 L 546.770434 512.862017 L 552.772314 512.611451 L 558.785196 512.193034 L 564.793010 511.468385 L 570.779685 510.299125 L 576.729151 508.546873 L 582.795040 506.401040 L 588.513931 504.457495 L 594.057772 502.883554 L 599.608828 501.843956 L 605.349363 501.503440 L 611.461642 502.026745 L 618.222959 503.162114 L 624.269208 504.947081 L 623.088503 506.840403" fill="none" id="16" stroke="black" stroke-width="1.5" /><path d="M 549.888503 506.840403 L 553.137864 506.933737 L 558.162132 506.256834 L 564.563572 505.018926 L 571.944450 503.429246 L 579.907032 501.697026 L 588.053584 500.031498 L 595.986372 498.641895 L 603.307661 497.737448 L 609.619718 497.527390 L 614.524809 498.220953 L 617.625199 500.027370 L 618.523154 503.155872 L 618.288503 504.440403" fill="none" id="17" stroke="black" stroke-width="1.5" /><path d="M 557.088503 443.240403 L 555.571204 438.628755 L 554.809100 432.427345 L 554.550675 425.563196 L 554.544411 418.963331 L 554.538789 413.554774 L 554.578136 406.756679 L 554.563527 400.695789 L 554.293003 395.098616 L 553.564895 389.682820 L 552.177529 384.166060 L 549.929236 378.265997 L 552.636609 382.407411 L 555.339910 387.811770 L 557.463445 393.577977 L 558.846333 399.545150 L 559.327695 405.552410 L 558.746649 411.438875 L 556.942314 417.043666 L 555.888503 419.090403" fill="none" id="18" stroke="black" stroke-width="1.5" /><path d="M 446.688503 248.840403 L 446.922025 243.487002 L 444.860264 237.786699 L 441.486371 232.200974 L 437.783497 227.191305 L 434.004098 222.249603 L 430.323881 217.228478 L 427.282804 212.549292 L 424.870672 207.834863 L 423.077292 202.708005 L 421.892469 196.791536 L 421.315719 189.890161 L 421.293460 183.962685 L 421.599796 178.024058 L 422.178951 172.076062 L 422.975150 166.120477 L 423.932615 160.159083 L 424.995571 154.193659 L 426.108243 148.225986 L 427.214854 142.257844 L 428.259628 136.291013 L 429.186789 130.327273 L 429.940562 124.368405 L 430.465169 118.416188 L 430.704836 112.472402 L 430.603787 106.538827 L 430.106244 100.617244 L 429.156433 94.709433 L 428.476565 95.117218 L 428.538503 97.640403" fill="none" id="19" stroke="black" stroke-width="1.5" /><path d="M 453.888503 248.840403 L 451.368510 243.920144 L 449.647457 238.270820 L 448.278092 232.235672 L 446.813166 226.157936 L 444.805430 220.380851 L 441.746991 214.955757 L 438.348398 209.625788 L 435.166053 204.542180 L 432.308349 199.575737 L 429.883676 194.597266 L 428.000428 189.477571 L 426.766995 184.087458 L 426.291771 178.297732 L 426.683147 171.979201 L 428.037477 165.048417 L 429.510804 158.690096 L 430.652827 152.650079 L 431.483814 146.838762 L 432.024032 141.166545 L 432.293747 135.543827 L 432.313227 129.881006 L 432.102738 124.088480 L 431.682547 118.076649 L 431.072922 111.755911 L 430.309053 106.508249 L 428.716150 100.293885 L 426.642194 92.866137 L 424.686772 85.428555 L 423.449471 79.184689 L 423.529878 75.338091 L 423.888503 74.840403" fill="none" id="20" stroke="black" stroke-width="1.5" /><path d="M 462.288503 305.240403 L 464.415223 298.834652 L 467.027805 293.011305 L 470.089672 287.725425 L 473.564243 282.932075 L 477.414941 278.586320 L 481.605186 274.643222 L 486.098401 271.057845 L 490.858007 267.785252 L 495.847425 264.780506 L 501.030077 261.998672 L 506.369384 259.394813 L 511.828767 256.923991 L 517.371648 254.541271 L 522.961449 252.201715 L 528.561590 249.860388 L 534.135494 247.472353 L 539.646581 244.992672 L 545.058274 242.376411 L 550.333993 239.578631 L 555.437160 236.554396 L 560.328695 233.260504 L 565.148930 229.822929 L 570.030627 226.313742 L 574.893446 222.697237 L 579.657046 218.937708 L 584.241090 214.999448 L 588.565236 210.846750 L 592.549145 206.443909 L 596.217218 201.596013 L 599.282988 196.429923 L 601.796086 191.062674 L 603.902100 185.535605 L 605.746617 179.890057 L 607.475226 174.167368 L 609.233513 168.408878 L 611.167067 162.655928 L 613.275843 157.264518 L 615.640288 151.904463 L 618.275569 146.495010 L 621.158117 141.081531 L 624.264360 135.709397 L 627.570731 130.423981 L 631.053659 125.270652 L 634.689574 120.294784 L 638.454908 115.541746 L 642.326090 111.056912 L 646.279551 106.885652 L 648.410308 104.576913 L 642.662294 107.186209 L 642.288503 107.390403" fill="none" id="21" stroke="black" stroke-width="1.5" /><path d="M 468.288503 282.440403 L 468.320177 277.647849 L 469.556972 273.096391 L 471.876865 268.774464 L 475.157829 264.670501 L 479.277841 260.772936 L 484.114874 257.070202 L 489.546904 253.550734 L 495.451905 250.202964 L 501.707854 247.015327 L 508.192724 243.976255 L 514.784491 241.074184 L 521.361130 238.297546 L 527.800615 235.634774 L 533.980923 233.074304 L 539.780027 230.604568 L 545.075902 228.213999 L 549.746525 225.891033 L 553.669869 223.624101 L 558.282898 220.423595 L 563.480825 216.671735 L 568.379204 212.972429 L 572.994858 209.270113 L 577.344609 205.509223 L 581.445277 201.634195 L 585.313687 197.589466 L 588.966659 193.319471 L 592.421016 188.768646 L 595.693580 183.881427 L 598.801173 178.602251 L 601.760618 172.875554 L 604.376656 167.190955 L 606.831566 161.788743 L 609.384794 156.315873 L 612.050408 150.839862 L 614.842472 145.428228 L 617.775053 140.148491 L 620.862218 135.068167 L 624.347899 130.124789 L 628.325289 125.608881 L 632.585302 121.440261 L 636.970947 117.419123 L 641.325231 113.345656 L 645.491162 109.020055 L 642.339303 112.897627 L 637.338503 115.640403" fill="none" id="22" stroke="black" stroke-width="1.5" /><path d="M 318.288503 343.640403 L 314.155150 341.453525 L 310.998455 336.636742 L 308.442939 330.357639 L 306.113122 323.783803 L 303.633525 318.082821 L 300.403038 313.916179 L 296.269196 309.947459 L 291.685720 306.194628 L 286.729055 302.666639 L 281.475643 299.372445 L 276.001929 296.320997 L 270.384356 293.521250 L 264.699368 290.982156 L 259.023409 288.712667 L 253.432922 286.721738 L 248.004352 285.018320 L 242.470607 283.493631 L 236.658641 281.875642 L 230.880211 280.215059 L 225.125925 278.528900 L 219.386395 276.834185 L 213.652232 275.147931 L 207.914045 273.487156 L 202.162445 271.868881 L 196.388043 270.310122 L 190.581450 268.827898 L 184.733274 267.439229 L 178.834128 266.161132 L 172.971876 265.035660 L 167.018619 263.893418 L 161.076844 262.579245 L 155.258225 260.941139 L 149.674440 258.827096 L 144.437165 256.085111 L 142.395214 255.359396 L 147.125686 258.608819 L 149.238503 259.790403" fill="none" id="23" stroke="black" stroke-width="1.5" /><path d="M 319.488503 343.640403 L 315.970254 339.009775 L 312.880500 333.969958 L 310.093743 328.636080 L 307.484483 323.123266 L 304.927222 317.546645 L 302.296461 312.021344 L 299.466700 306.662489 L 296.312442 301.585207 L 292.708186 296.904626 L 288.352259 292.551718 L 283.413791 288.772885 L 278.222293 285.780002 L 272.811417 283.472121 L 267.214809 281.748296 L 261.466120 280.507580 L 255.598998 279.649026 L 249.647092 279.071688 L 243.644051 278.674619 L 237.623524 278.356872 L 231.619160 278.017501 L 225.664608 277.555558 L 219.770420 276.850018 L 213.916848 275.839131 L 208.092524 274.586813 L 202.285831 273.159452 L 196.485151 271.623431 L 190.678867 270.045139 L 184.855361 268.490961 L 179.003016 267.027283 L 173.110213 265.720492 L 167.165336 264.636973 L 161.434840 263.739151 L 155.772521 262.471835 L 150.048073 260.773827 L 144.325801 258.671736 L 138.670011 256.192172 L 133.145007 253.361744 L 127.815095 250.207060 L 122.744580 246.754729 L 117.997767 243.031362 L 113.638962 239.063565 L 109.732469 234.877950 L 113.088503 235.640403" fill="none" id="24" stroke="black" stroke-width="1.5" /><path d="M 204.288503 276.440403 L 199.815787 272.449739 L 195.950471 267.934382 L 192.522388 263.039956 L 189.361370 257.912087 L 186.297247 252.696398 L 183.159853 247.538515 L 179.779018 242.584061 L 175.984576 237.978662 L 178.893844 240.250692 L 179.088503 240.440403" fill="none" id="25" stroke="black" stroke-width="1.5" /><path d="M 211.488503 280.040403 L 208.410784 275.059686 L 205.375306 269.793662 L 202.491007 264.423891 L 200.688503 260.840403" fill="none" id="26" stroke="black" stroke-width="1.5" /><path d="M 231.888503 492.440403 L 228.571352 491.729450 L 223.732669 489.231794 L 217.937936 485.465794 L 211.752635 480.949810 L 205.742247 476.202198 L 200.472255 471.741319 L 196.508140 468.085530 L 193.615077 464.686974 L 190.922371 459.395647 L 189.087590 453.277350 L 187.832117 446.663602 L 186.877333 439.885925 L 185.944620 433.275839 L 184.755358 427.164865 L 183.030931 421.884524 L 180.492719 417.766335 L 177.888503 415.640403" fill="none" id="27" stroke="black" stroke-width="1.5" /><path d="M 182.688503 412.040403 L 182.622157 418.030682 L 182.570383 424.035719 L 182.754070 430.029005 L 183.394112 435.984035 L 184.611884 441.669673 L 186.192655 447.488640 L 188.127134 453.588545 L 190.295478 459.216076 L 193.206463 464.636432 L 197.075982 469.161274 L 201.418400 472.698248 L 206.052087 475.995675 L 210.795412 479.801875 L 212.688503 481.640403" fill="none" id="28" stroke="black" stroke-width="1.5" /><path d="M 257.088503 532.040403 L 253.380869 529.404655 L 249.123704 529.469370 L 244.468179 531.732975 L 239.565461 535.693900 L 234.566721 540.850571 L 229.623128 546.701417 L 224.885851 552.744866 L 220.506060 558.479346 L 216.634923 563.403284 L 213.423610 567.015110 L 214.498301 568.813548 L 220.296627 568.539948 L 226.580876 566.854005 L 232.513406 564.553475 L 235.488503 563.240403" fill="none" id="29" stroke="black" stroke-width="1.5" /><path d="M 571.488503 536.840403 L 574.979406 535.601142 L 579.849551 534.523634 L 585.849130 533.628696 L 592.728337 532.937144 L 600.237366 532.469796 L 608.126411 532.247470 L 616.145665 532.290982 L 624.045323 532.621150 L 631.575578 533.258791 L 638.486623 534.224722 L 644.528653 535.539760 L 649.451861 537.224722 L 653.006441 539.300426 L 654.942587 541.787689 L 653.909945 543.315008 L 649.369807 544.042307 L 645.035090 547.928259 L 640.581103 553.086162 L 635.683159 557.629312 L 629.551706 560.325018 L 623.410869 561.618084 L 617.732810 561.681830 L 612.302447 560.793681 L 606.904697 559.231062 L 601.324479 557.271396 L 595.346711 555.192109 L 589.483256 553.570611 L 583.582175 552.280468 L 577.814210 550.835742 L 572.362444 548.753294 L 567.409963 545.549989 L 566.630948 542.567452 L 572.492835 542.060698 L 578.562679 541.446121 L 584.741738 540.896070 L 590.931270 540.582894 L 597.032534 540.678941 L 602.946788 541.356560 L 608.575291 542.788101 L 609.433321 544.899681 L 603.525759 545.391679 L 597.475548 544.289433 L 595.264064 543.437865 L 598.920236 545.282443 L 593.083854 546.139373 L 589.405580 544.750851 L 592.938503 542.840403" fill="none" id="30" stroke="black" stroke-width="1.5" /><path d="M 619.488503 480.440403 L 625.117349 478.341048 L 630.831859 476.557631 L 636.621722 475.083281 L 642.476633 473.911125 L 648.386281 473.034292 L 654.340360 472.445909 L 660.328561 472.139104 L 666.340575 472.107005 L 672.366096 472.342740 L 678.394814 472.839438 L 682.361898 473.609177 L 688.671667 475.507210 L 696.250055 478.288611 L 703.316222 481.620399 L 708.089327 485.169597 L 708.788528 488.603225 L 704.688503 491.240403" fill="none" id="31" stroke="black" stroke-width="1.5" /><path d="M 623.088503 480.440403 L 625.773635 484.080630 L 629.811719 488.725544 L 634.638096 493.584624 L 639.688109 497.867350 L 644.295124 500.734787 L 649.076348 502.657778 L 654.668890 504.224422 L 660.853415 505.373087 L 667.410587 506.042141 L 674.121070 506.169952 L 680.765527 505.694889 L 687.124624 504.555321 L 692.979024 502.689615 L 698.109391 500.036140 L 702.296389 496.533265 L 705.320682 492.119358 L 702.288503 492.440403" fill="none" id="32" stroke="black" stroke-width="1.5" /><path d="M 631.488503 486.440403 L 637.290407 484.838043 L 643.209169 484.206502 L 649.132010 484.540654 L 654.946154 485.835373 L 660.538823 488.085532 L 661.459094 489.544512 L 655.368895 488.934292 L 657.748745 490.421721 L 663.430931 492.738426 L 657.598286 493.667796 L 654.288503 493.640403" fill="none" id="33" stroke="black" stroke-width="1.5" /><path d="M 501.888503 480.440403 L 503.126579 474.989112 L 504.295785 469.353280 L 505.384721 463.557980 L 506.381992 457.628285 L 507.276201 451.589268 L 508.055951 445.466002 L 508.709844 439.283561 L 509.226485 433.067017 L 509.594476 426.841443 L 509.802420 420.631913 L 509.838921 414.463499 L 509.692582 408.361275 L 509.352005 402.350314 L 508.805794 396.455689 L 508.042553 390.702473 L 507.050883 385.115738 L 506.640219 387.836545 L 506.610805 394.300155 L 506.520807 400.663665 L 506.247907 406.860444 L 505.669786 412.823864 L 504.664125 418.487296 L 503.108605 423.784111 L 500.880908 428.647681 L 497.858716 433.011377 L 493.919708 436.808569 L 488.941568 439.972628 L 482.801975 442.436926 L 474.536922 444.679987 L 468.900579 447.590659 L 467.553167 450.863304 L 469.521344 454.423154 L 473.831770 458.195441 L 479.511103 462.105398 L 485.586000 466.078257 L 491.083121 470.039250 L 495.029124 473.913608 L 492.012430 471.448178 L 487.672121 467.334307 L 484.088278 462.720374 L 486.807260 458.441411 L 492.277793 456.171135 L 496.983868 453.040538 L 496.188686 453.957575 L 497.880023 456.013441 L 497.048880 459.170218 L 494.838503 461.390403" fill="none" id="34" stroke="black" stroke-width="1.5" /><path d="M 479.088503 496.040403 L 473.942180 492.831309 L 468.412354 490.243656 L 462.598716 488.291155 L 456.600958 486.987519 L 450.518768 486.346460 L 444.451840 486.381691 L 438.499863 487.106922 L 432.762529 488.535867 L 427.339528 490.682237 L 422.330551 493.559745 L 417.835290 497.182102 L 413.953435 501.563022 L 410.784677 506.716215 L 411.894112 506.861629 L 416.559152 503.641066 L 421.891151 501.593301 L 427.729248 500.531135 L 433.912583 500.267368 L 440.280295 500.614799 L 446.671525 501.386229 L 452.925411 502.394457 L 458.881094 503.452284 L 464.377712 504.372509 L 463.102323 507.605186 L 459.757857 509.285324 L 464.188958 505.509438 L 469.284454 502.025307 L 469.938842 499.877021 L 463.577390 499.738387 L 458.136617 498.061626 L 461.681450 498.448376 L 460.788503 502.040403" fill="none" id="35" stroke="black" stroke-width="1.5" /><path d="M 569.088503 367.640403 L 569.006339 361.686971 L 568.797823 355.688099 L 568.519920 349.659451 L 568.229593 343.616694 L 567.983808 337.575492 L 567.839528 331.551511 L 567.853717 325.560415 L 568.083340 319.617870 L 568.600884 313.720478 L 569.620283 307.899600 L 571.149288 302.193502 L 573.133815 296.601251 L 575.519784 291.121915 L 578.253111 285.754561 L 581.279716 280.498257 L 584.545515 275.352071 L 587.996427 270.315070 L 591.578370 265.386321 L 595.237261 260.564893 L 598.919019 255.849852 L 602.569561 251.240267 L 605.728956 253.992111 L 607.964416 257.822042 L 609.345631 262.396571 L 609.942732 267.615808 L 609.825855 273.379869 L 609.065132 279.588865 L 607.730697 286.142908 L 605.892684 292.942112 L 603.621227 299.886589 L 600.986459 306.876453 L 598.058514 313.811814 L 594.907525 320.592788 L 591.603626 327.119485 L 588.216951 333.292018 L 584.817634 339.010502 L 581.475807 344.175047 L 578.261606 348.685766 L 575.245162 352.442774 L 572.496611 355.346181 L 570.219835 355.262299 L 569.088503 350.840403" fill="none" id="36" stroke="black" stroke-width="1.5" /><path d="M 571.488503 342.440403 L 568.243571 338.342449 L 567.109989 332.879516 L 567.697706 326.598525 L 569.616669 320.046395 L 572.476826 313.770047 L 575.888127 308.316402 L 579.460518 304.232380 L 580.663995 305.674484 L 579.294369 311.479494 L 578.069962 317.336025 L 578.162761 322.265438 L 582.493313 317.937903 L 583.691892 312.377833 L 580.322222 315.033483 L 580.424578 320.578871 L 583.638503 320.840403" fill="none" id="37" stroke="black" stroke-width="1.5" /><path d="M 629.088503 316.040403 L 632.192182 310.730327 L 635.126430 305.409809 L 637.941110 300.095261 L 640.686085 294.803093 L 643.411222 289.549716 L 646.166383 284.351542 L 649.001433 279.224982 L 651.966236 274.186445 L 655.110656 269.252344 L 658.484558 264.439090 L 662.137806 259.763093 L 666.120264 255.240765 L 670.481796 250.888516 L 675.272266 246.722758 L 679.287284 243.629358 L 683.722306 240.495308 L 688.758481 237.229799 L 694.272804 233.987300 L 700.142275 230.922278 L 706.243890 228.189201 L 712.454647 225.942537 L 718.651545 224.336756 L 724.711580 223.526323 L 730.511750 223.665708 L 735.929053 224.909379 L 740.840486 227.411804 L 740.834883 229.130286 L 735.674693 230.445586 L 730.672304 233.690614 L 725.913754 238.258804 L 721.485080 243.543589 L 717.472322 248.938405 L 713.961516 253.836683 L 711.038700 257.631859 L 707.516984 261.684854 L 703.811680 265.984606 L 699.941357 270.443960 L 695.907893 274.993393 L 691.713169 279.563381 L 687.359063 284.084400 L 682.847454 288.486926 L 678.180221 292.701435 L 673.359243 296.658404 L 668.386399 300.288307 L 663.263569 303.521622 L 657.992630 306.288824 L 652.575463 308.520389 L 647.013946 310.146794 L 641.393285 311.010340 L 643.299357 305.585143 L 647.284682 300.980643 L 650.688503 298.040403" fill="none" id="38" stroke="black" stroke-width="1.5" /><path d="M 653.088503 295.640403 L 651.060240 290.493928 L 653.203666 285.904222 L 657.471258 281.709283 L 662.061253 277.836746 L 660.559040 280.410285 L 660.645768 283.247108 L 665.849358 283.224534 L 662.838503 287.240403" fill="none" id="39" stroke="black" stroke-width="1.5" /><path d="M 695.088503 322.040403 L 700.596144 319.165118 L 706.325204 316.828241 L 712.217262 315.036485 L 718.213899 313.796567 L 724.256693 313.115201 L 730.287226 312.999102 L 736.247077 313.454985 L 742.077826 314.489565 L 747.721053 316.109557 L 753.118339 318.321675 L 758.211263 321.132636 L 762.941406 324.549153 L 767.250346 328.577942 L 770.030036 332.738506 L 764.018417 333.275096 L 758.079826 333.971645 L 752.197411 334.814511 L 746.354320 335.790053 L 740.533703 336.884629 L 734.718708 338.084598 L 728.892483 339.376317 L 723.038177 340.746146 L 717.138939 342.180443 L 711.177917 343.665566 L 704.774130 345.104614 L 698.877593 345.608083 L 693.551688 344.990456 L 688.576455 343.179748 L 683.731933 340.103972 L 678.798163 335.691140 L 678.419867 330.737696 L 682.407683 326.869304 L 687.885357 324.001498 L 694.239878 322.089493 L 700.858236 321.088503 L 707.127421 320.953740 L 712.434422 321.640420 L 709.224984 324.033511 L 703.592469 326.054025 L 700.630982 327.366001 L 705.301342 329.367269 L 699.668585 331.187405 L 699.911862 331.907317 L 701.088503 336.440403" fill="none" id="40" stroke="black" stroke-width="1.5" /><path d="M 657.888503 400.040403 L 659.802511 397.380104 L 664.164639 395.222917 L 670.283842 393.514532 L 677.469079 392.200639 L 685.029306 391.226929 L 692.273480 390.539092 L 698.510558 390.082819 L 703.406724 389.787265 L 709.249505 389.603936 L 715.160384 389.655889 L 721.116604 389.949470 L 727.095411 390.491024 L 733.074048 391.286897 L 739.029759 392.343434 L 744.939789 393.666980 L 750.781382 395.263882 L 756.531782 397.140483 L 762.168233 399.303130 L 767.667980 401.758167 L 773.008266 404.511941 L 778.166336 407.570797 L 783.119435 410.941079 L 787.844805 414.629134 L 791.058815 418.663424 L 786.154930 421.782793 L 780.325755 422.910239 L 777.888503 422.840403" fill="none" id="41" stroke="black" stroke-width="1.5" /><path d="M 638.688503 406.040403 L 640.326448 411.374994 L 642.863514 416.824134 L 646.128113 422.203978 L 649.948654 427.330679 L 654.153548 432.020393 L 658.571207 436.089273 L 663.030041 439.353474 L 667.020093 441.552884 L 671.572210 443.496596 L 676.736415 445.250617 L 682.421170 446.793756 L 688.534939 448.104822 L 694.986184 449.162622 L 701.683366 449.945964 L 708.534949 450.433656 L 715.449396 450.604507 L 722.335168 450.437324 L 729.100728 449.910915 L 735.654539 449.004089 L 741.905063 447.695653 L 747.760763 445.964416 L 753.130101 443.789185 L 757.921540 441.148769 L 762.043543 438.021976 L 765.404571 434.387613 L 764.212533 430.369987 L 758.840147 427.909858 L 757.488503 427.640403" fill="none" id="42" stroke="black" stroke-width="1.5" /><path d="M 657.888503 410.840403 L 661.988286 407.739451 L 667.202772 405.485718 L 673.209263 404.010432 L 679.685059 403.244821 L 686.307465 403.120114 L 692.753781 403.567538 L 698.701310 404.518323 L 703.758337 405.930415 L 699.202411 409.397168 L 693.367307 410.928463 L 687.229671 411.435837 L 693.316625 411.075749 L 697.587741 412.166394 L 691.870566 413.969560 L 685.999468 415.055255 L 680.052311 415.859521 L 677.011835 416.900073 L 682.905242 417.883220 L 686.895904 417.995509 L 680.915560 417.720890 L 674.690315 417.826524 L 668.763474 418.885900 L 666.360736 421.387361 L 671.893402 423.590509 L 677.751913 424.765561 L 681.285005 424.738628 L 673.563916 423.033845 L 666.455763 421.728968 L 666.288503 421.640403" fill="none" id="43" stroke="black" stroke-width="1.5" /><path d="M 279.888503 138.440403 L 278.313686 133.808315 L 277.151440 127.926554 L 276.327306 121.331216 L 275.766827 114.558400 L 275.395545 108.144203 L 275.139000 102.624722 L 274.960421 96.771959 L 275.248569 90.727739 L 276.034113 84.837611 L 277.299848 79.091538 L 279.028570 73.479486 L 281.203076 67.991419 L 283.806161 62.617300 L 286.820622 57.347096 L 290.189303 52.248781 L 294.001263 47.562214 L 298.051018 42.886326 L 301.664388 38.055752 L 303.886826 33.629738 L 302.866028 38.723780 L 303.518823 44.385337 L 305.338173 50.400540 L 307.817040 56.555519 L 310.448385 62.636407 L 312.725173 68.429333 L 314.140363 73.720429 L 314.708210 78.472986 L 315.168379 84.141354 L 315.459310 90.505854 L 315.497682 97.236677 L 315.200176 104.004015 L 314.483470 110.478059 L 313.264246 116.328999 L 311.459183 121.227027 L 308.168748 125.838985 L 303.713105 129.747257 L 299.138936 133.614541 L 295.407934 138.309838 L 294.288503 140.840403" fill="none" id="44" stroke="black" stroke-width="1.5" /><path d="M 281.088503 143.240403 L 278.612408 140.421019 L 278.263371 135.865758 L 279.596382 130.046526 L 282.166431 123.435229 L 285.528507 116.503773 L 289.237601 109.724067 L 292.848701 103.568015 L 295.916798 98.507524 L 297.996881 95.014500 L 294.743933 99.446813 L 291.882709 104.845168 L 289.603071 110.635103 L 287.945984 116.437684 L 289.837237 117.420896 L 293.935863 113.154779 L 297.470611 108.042624 L 300.657076 102.769260 L 301.626223 101.849562 L 299.120846 107.315863 L 296.495463 112.719339 L 298.872698 112.349596 L 303.961425 108.816722 L 302.617346 114.381608 L 299.698325 119.640413 L 297.837940 118.499741 L 298.038503 116.840403" fill="none" id="45" stroke="black" stroke-width="1.5" /><path d="M 212.688503 77.240403 L 210.808701 71.899239 L 208.750276 66.439027 L 206.508286 60.901294 L 204.077785 55.327563 L 201.453832 49.759359 L 198.631482 44.238208 L 195.605792 38.805633 L 192.371818 33.503160 L 188.924618 28.372314 L 185.259248 23.454618 L 181.370764 18.791598 L 177.254223 14.424779 L 172.904681 10.395684 L 168.317196 6.745840 L 163.486823 3.516770 L 158.408619 0.750000 L 156.640824 1.184193 L 156.442974 6.042720 L 153.191338 11.447348 L 148.524797 16.923970 L 144.082236 21.998482 L 141.460347 26.291936 L 140.531409 31.244562 L 141.144765 36.090561 L 143.111188 40.813607 L 146.241449 45.397371 L 150.346320 49.825525 L 155.236574 54.081742 L 160.722982 58.149694 L 166.616316 62.013052 L 172.727349 65.655489 L 178.866853 69.060677 L 184.845599 72.212289 L 190.474359 75.093996 L 195.563906 77.689471 L 199.925011 79.982385 L 199.501110 83.054427 L 195.482711 79.079571 L 194.838503 78.440403" fill="none" id="46" stroke="black" stroke-width="1.5" /><path d="M 180.288503 56.840403 L 184.729044 60.865167 L 189.722897 64.599816 L 194.427312 68.478117 L 197.999540 72.933839 L 194.525214 70.860568 L 190.432778 66.497306 L 186.912646 61.561709 L 184.853856 58.179362 L 188.035652 63.254066 L 191.667743 68.002505 L 195.943422 72.209910 L 196.513718 69.526608 L 193.110229 64.673178 L 189.695693 61.744021 L 194.989308 65.514064 L 195.888503 66.290403" fill="none" id="47" stroke="black" stroke-width="1.5" /><path d="M 99.888503 98.840403 L 95.783931 96.335649 L 93.205745 91.006916 L 89.705230 86.089184 L 85.483695 81.669977 L 80.742449 77.836822 L 75.682804 74.677246 L 72.234573 75.900677 L 72.288503 76.040403" fill="none" id="48" stroke="black" stroke-width="1.5" /><path d="M 117.888503 91.640403 L 115.338719 88.608897 L 111.606571 85.769102 L 106.855182 83.155076 L 101.247673 80.800879 L 94.947165 78.740568 L 88.116782 77.008202 L 80.919643 75.637840 L 73.518872 74.663539 L 66.077591 74.119358 L 58.758921 74.039356 L 51.725983 74.457591 L 45.141901 75.408121 L 39.169795 76.925005 L 33.972788 79.042301 L 29.714001 81.794068 L 26.556557 85.214364 L 24.663577 89.337247 L 24.198183 94.196776 L 24.288503 95.240403" fill="none" id="49" stroke="black" stroke-width="1.5" /><path d="M 30.288503 96.440403 L 25.143117 99.635240 L 19.899528 102.821682 L 14.940430 106.071485 L 16.345049 108.351900 L 22.053387 109.550628 L 28.500892 110.341458 L 35.046753 110.968179 L 41.050160 111.674576 L 47.387290 112.949603 L 53.639432 114.748366 L 59.084947 116.865021 L 63.984789 119.279871 L 68.599915 121.973223 L 73.191280 124.925382 L 78.019839 128.116653 L 83.346549 131.527342 L 86.838503 133.640403" fill="none" id="50" stroke="black" stroke-width="1.5" /><path d="M 78.288503 137.240403 L 84.170668 138.814504 L 89.956846 138.824143 L 95.594941 137.504360 L 101.032855 135.090196 L 106.218491 131.816693 L 111.099754 127.918891 L 115.624545 123.631833 L 119.740769 119.190559 L 123.396329 114.830110 L 119.160763 118.367740 L 114.437184 121.845850 L 118.891516 118.323602 L 123.898089 114.956787 L 129.237136 112.364038 L 134.997575 110.939128 L 131.472037 111.897170 L 125.254451 112.515777 L 119.083316 112.734995 L 118.589789 109.918747 L 113.237482 109.381414 L 107.270697 109.266722 L 101.244662 109.261763 L 95.191076 109.311062 L 89.141639 109.359144 L 83.128050 109.350536 L 86.842997 110.866910 L 92.813740 112.465015 L 98.931068 113.480410 L 104.835930 113.542077 L 104.390023 110.941648 L 99.295942 107.866728 L 93.417605 105.724959 L 87.264068 104.708157 L 81.344382 105.008140 L 83.526300 105.735399 L 89.671381 105.469878 L 95.783487 104.702148 L 101.757959 103.829912 L 107.490137 103.250877 L 106.162165 104.604324 L 100.152737 105.695594 L 94.291231 105.040552 L 92.692162 103.378146 L 98.693862 103.233714 L 104.711976 103.236296 L 110.679353 103.191765 L 104.682561 103.758458 L 98.706351 103.673222 L 92.771272 102.936056 L 92.485980 101.777035 L 98.393820 100.776309 L 104.341085 99.876237 L 110.311641 99.073593 L 116.289352 98.365147 L 122.258082 97.747675 L 128.201698 97.217949 L 128.538503 97.190403" fill="none" id="51" stroke="black" stroke-width="1.5" /><path d="M 122.688503 235.640403 L 119.512675 230.549059 L 116.127885 225.602547 L 112.551889 220.792796 L 108.802444 216.111735 L 104.897307 211.551293 L 100.854233 207.103399 L 96.690981 202.759980 L 92.425306 198.512967 L 88.074965 194.354288 L 83.657714 190.275872 L 79.191311 186.269647 L 74.693512 182.327543 L 70.182074 178.441487 L 70.892864 183.773863 L 72.288503 188.840403" fill="none" id="52" stroke="black" stroke-width="1.5" /><path d="M 77.088503 187.640403 L 71.021387 187.181327 L 65.177749 185.990142 L 59.365341 184.720492 L 53.302528 184.022739 L 47.253274 184.280116 L 41.434438 185.278890 L 35.722607 186.725957 L 29.994370 188.328215 L 24.126317 189.792562 L 26.414425 186.800038 L 31.935106 184.725094 L 31.236040 186.302474 L 25.697042 188.733607 L 20.065221 191.102560 L 14.919254 194.081847 L 18.149913 194.246036 L 24.445817 195.199311 L 30.328348 197.801753 L 35.599803 200.751498 L 40.340784 204.045417 L 44.631890 207.680380 L 48.553723 211.653256 L 52.186884 215.960916 L 55.611973 220.600229 L 58.909591 225.568065 L 62.160339 230.861294 L 65.470295 236.452109 L 69.374541 241.194227 L 73.953486 244.576358 L 79.084172 246.741221 L 84.643641 247.831535 L 90.508936 247.990017 L 96.557099 247.359387 L 102.665174 246.082362 L 108.710203 244.301661 L 114.569228 242.160002 L 110.803048 240.736446 L 104.714751 240.483426 L 101.611541 239.145509 L 103.994359 234.696034 L 100.013182 230.641097 L 95.115730 226.335469 L 89.724702 222.441591 L 84.262800 219.621906 L 79.391409 218.766735 L 81.920132 224.156499 L 86.192981 228.390325 L 91.491095 231.093153 L 87.195528 227.119953 L 82.200657 223.317971 L 76.968649 221.190039 L 78.606249 225.370337 L 83.318174 228.925264 L 84.282163 229.266015 L 78.497673 227.609682 L 72.907776 225.601527 L 75.637987 224.052428 L 81.445140 225.034395 L 86.802284 228.092414 L 90.588503 232.340403" fill="none" id="53" stroke="black" stroke-width="1.5" /><path d="M 84.288503 448.040403 L 80.628045 443.753494 L 77.462536 438.862024 L 74.588571 433.576178 L 71.802747 428.106140 L 68.901660 422.662093 L 65.681907 417.454221 L 61.940082 412.692709 L 57.129451 408.239837 L 51.889865 404.647622 L 46.538654 402.043279 L 41.076581 400.277234 L 35.504409 399.199909 L 29.822900 398.661728 L 24.032819 398.513114 L 18.134929 398.604492 L 12.129992 398.786285 L 6.018771 398.908917 L 0.750000 398.840792 L 6.744752 398.864249 L 12.761667 398.739743 L 12.866137 398.097862 L 6.925694 398.695445 L 1.111189 400.566367 L 3.878593 404.775845 L 8.074903 409.408922 L 11.270899 414.006119 L 13.675947 418.722102 L 15.499411 423.711536 L 16.950656 429.129088 L 18.239046 435.129423 L 19.573947 441.867207 L 21.535150 448.491966 L 24.474592 453.645856 L 28.266190 457.526985 L 32.784895 460.343770 L 37.905656 462.304628 L 43.503422 463.617977 L 49.453143 464.492233 L 55.629769 465.135813 L 61.908249 465.757136 L 68.163534 466.564618 L 74.270573 467.766676 L 79.176790 468.826619 L 75.872240 464.122602 L 71.926192 459.532473 L 67.532563 455.135560 L 62.885267 451.011194 L 58.178220 447.238702 L 55.776126 445.121438 L 61.381040 447.359228 L 67.197928 448.848233 L 66.628027 446.677691 L 62.232738 442.519125 L 57.709570 438.552576 L 52.705655 435.366158 L 53.243891 440.087372 L 57.733250 443.323378 L 63.346748 442.403178 L 62.668318 437.086031 L 60.138503 434.840403" fill="none" id="54" stroke="black" stroke-width="1.5" /><path d="M 56.688503 439.640403 L 57.931049 440.996405 L 59.271398 434.898813 L 58.633620 428.575221 L 55.746186 423.718699 L 52.988962 424.615331 L 53.641827 429.022330 L 56.415582 434.195285 L 60.706065 439.740248 L 65.909111 445.263272 L 71.420558 450.370408 L 76.636243 454.667710 L 80.952001 457.761230 L 80.547954 457.649854 L 75.418971 454.541829 L 70.712177 450.802704 L 75.369153 453.270046 L 80.277617 456.927516 L 81.830289 456.596151 L 77.113078 453.323425 L 72.483195 455.272007 L 72.138503 456.440403" fill="none" id="55" stroke="black" stroke-width="1.5" /><path d="M 191.088503 538.040403 L 186.638760 535.220058 L 180.916935 534.247007 L 174.516517 534.757501 L 169.228033 536.055983 L 164.609438 537.986067 L 158.620455 540.945641 L 151.826194 544.662243 L 144.791767 548.863406 L 138.082286 553.276668 L 132.262861 557.629563 L 127.898604 561.649628 L 125.554626 565.064398 L 125.796039 567.601408 L 126.288503 568.040403" fill="none" id="56" stroke="black" stroke-width="1.5" /><path d="M 182.688503 541.640403 L 185.964423 539.300653 L 185.150294 545.183327 L 183.605790 550.993158 L 181.913090 556.794834 L 181.488503 558.440403" fill="none" id="57" stroke="black" stroke-width="1.5" /><path d="M 188.688503 551.240403 L 186.240663 555.279622 L 182.003851 559.906268 L 176.473311 564.851188 L 170.144283 569.845227 L 163.512009 574.619234 L 157.071731 578.904056 L 151.318691 582.430538 L 146.748130 584.929528 L 143.855290 586.131874 L 143.088503 586.040403" fill="none" id="58" stroke="black" stroke-width="1.5" /><path d="M 168.288503 582.440403 L 162.453857 584.051455 L 156.566436 585.257002 L 150.638851 586.148472 L 144.683712 586.817293 L 138.713630 587.354891 L 132.741216 587.852695 L 126.779080 588.402132 L 120.839833 589.094628 L 121.473859 586.048566 L 121.488503 586.040403" fill="none" id="59" stroke="black" stroke-width="1.5" /><path d="M 146.688503 552.440403 L 142.690485 553.611372 L 137.842654 556.650995 L 132.498620 561.122135 L 127.011992 566.587651 L 121.736380 572.610404 L 117.025394 578.753254 L 113.232643 584.579062 L 110.711737 589.650687 L 109.816287 593.530991 L 110.688503 595.640403" fill="none" id="60" stroke="black" stroke-width="1.5" /><path d="M 174.288503 542.840403 L 170.457806 544.790547 L 164.998279 548.269533 L 158.635251 552.730822 L 152.094053 557.627878 L 146.100016 562.414163 L 141.378469 566.543140 L 138.654743 569.468271 L 138.288503 570.440403" fill="none" id="61" stroke="black" stroke-width="1.5" /><path d="M 171.888503 551.240403 L 166.699332 554.321960 L 161.642549 557.535050 L 156.607101 560.723508 L 151.481938 563.731169 L 146.156007 566.401865 L 140.518258 568.579430 L 138.288503 569.240403" fill="none" id="62" stroke="black" stroke-width="1.5" /><path d="M 429.888503 601.640403 L 433.193630 600.392223 L 438.758122 601.612357 L 445.439845 604.426778 L 452.096664 607.961459 L 457.586448 611.342373 L 461.922028 615.651293 L 464.418372 618.828189 L 464.688503 617.240403" fill="none" id="63" stroke="black" stroke-width="1.5" /><path d="M 423.888503 599.240403 L 425.516882 602.761644 L 429.749761 606.657902 L 435.077317 611.025256 L 439.989729 615.959787 L 442.977171 621.557572 L 443.088503 622.040403" fill="none" id="64" stroke="black" stroke-width="1.5" /><path d="M 426.288503 605.240403 L 425.402247 610.471882 L 426.639079 615.874718 L 429.546480 621.254263 L 433.671932 626.415865 L 438.562916 631.164877 L 443.766912 635.306648 L 448.831403 638.646528 L 453.303870 640.989869 L 453.888503 641.240403" fill="none" id="65" stroke="black" stroke-width="1.5" /><path d="M 440.688503 635.240403 L 445.547890 638.082478 L 451.288229 640.913394 L 457.389193 642.987990 L 463.330451 643.561102 L 468.591674 641.887567 L 469.488503 641.240403" fill="none" id="66" stroke="black" stroke-width="1.5" /><path d="M 457.488503 617.240403 L 463.210256 619.259854 L 467.625739 623.007131 L 471.169828 627.872632 L 474.277399 633.246753 L 477.383326 638.519892 L 480.922487 643.082447 L 481.488503 643.640403" fill="none" id="67" stroke="black" stroke-width="1.5" /><path d="M 468.288503 635.240403 L 470.963963 640.568532 L 474.120342 646.528711 L 477.778447 651.820516 L 481.959084 655.143526 L 483.888503 655.640403" fill="none" id="68" stroke="black" stroke-width="1.5" /><path d="M 446.688503 620.840403 L 451.011813 623.928482 L 455.088503 626.840403" fill="none" id="69" stroke="black" stroke-width="1.5" /><path d="M 450.288503 622.040403 L 453.541598 625.863487 L 457.488503 623.240403" fill="none" id="70" stroke="black" stroke-width="1.5" /><path d="M 613.488503 103.640403 L 611.543461 97.544264 L 610.069607 91.479651 L 609.065739 85.461576 L 608.530657 79.505049 L 608.463160 73.625079 L 608.862048 67.836677 L 609.726118 62.154852 L 611.054172 56.594616 L 612.845007 51.170978 L 615.097423 45.898948 L 617.810219 40.793537 L 620.982194 35.869754 L 624.612148 31.142609 L 628.698880 26.627114 L 633.241188 22.338277 L 638.237872 18.291110 L 642.977119 18.167230 L 643.488503 18.440403" fill="none" id="71" stroke="black" stroke-width="1.5" /><path d="M 644.688503 25.640403 L 646.766499 31.618712 L 648.416797 37.252671 L 649.502686 42.721712 L 649.887457 48.205265 L 649.434399 53.882764 L 648.006803 59.933638 L 645.513876 66.406977 L 642.332829 71.972073 L 638.586879 76.679608 L 634.427065 80.775020 L 630.004426 84.503744 L 625.470000 88.111219 L 620.974825 91.842882 L 616.669940 95.944169 L 612.706382 100.660518 L 612.288503 101.240403" fill="none" id="72" stroke="black" stroke-width="1.5" /><path d="M 612.288503 89.240403 L 612.924274 83.293838 L 614.264541 77.446487 L 615.759875 71.618435 L 616.860846 65.729763 L 617.088503 62.840403" fill="none" id="73" stroke="black" stroke-width="1.5" /><path d="M 614.688503 83.240403 L 617.138688 77.810418 L 619.468206 72.263898 L 621.836834 66.718015 L 624.404351 61.289938 L 625.488503 59.240403" fill="none" id="74" stroke="black" stroke-width="1.5" /><path d="M 623.088503 73.640403 L 628.266460 70.666033 L 631.488503 67.640403" fill="none" id="75" stroke="black" stroke-width="1.5" /><path d="M 639.888503 151.640403 L 643.437729 146.772497 L 647.499364 142.412453 L 651.923367 138.405682 L 656.559694 134.597597 L 661.258303 130.833605 L 665.088503 127.640403" fill="none" id="76" stroke="black" stroke-width="1.5" /><path d="M 639.888503 158.840403 L 643.912533 157.174032 L 650.574641 156.266548 L 657.496982 156.876838 L 661.488503 158.840403" fill="none" id="77" stroke="black" stroke-width="1.5" /><path d="M 636.288503 164.840403 L 641.237758 166.715788 L 646.863911 167.794678 L 652.969062 168.145203 L 659.355314 167.835492 L 665.824769 166.933674 L 672.179529 165.507877 L 678.221695 163.626230 L 683.753370 161.356862 L 688.576655 158.767902 L 690.288503 157.640403" fill="none" id="78" stroke="black" stroke-width="1.5" /><path d="M 668.688503 162.440403 L 674.164769 160.287208 L 679.505628 157.562166 L 684.647979 154.344154 L 689.528717 150.712053 L 694.084740 146.744741 L 698.252944 142.521097 L 698.688503 142.040403" fill="none" id="79" stroke="black" stroke-width="1.5" /><path d="M 674.688503 125.240403 L 671.119587 122.337194 L 675.136614 118.892185 L 680.643219 116.271507 L 687.021848 114.485869 L 693.654945 113.545981 L 699.924956 113.462552 L 705.214325 114.246290 L 705.888503 114.440403" fill="none" id="80" stroke="black" stroke-width="1.5" /><path d="M 681.888503 126.440403 L 687.691836 125.480235 L 693.898162 124.203010 L 700.191306 122.691208 L 706.255095 121.027311 L 711.773357 119.293797 L 714.515955 118.040140 L 717.284270 118.885333 L 723.244013 118.177556 L 720.762643 119.230777 L 715.309326 121.734756 L 710.467921 125.084547 L 711.162861 130.048677 L 709.097024 134.983379 L 703.919318 138.972059 L 697.925535 141.415815 L 694.938503 141.890403" fill="none" id="81" stroke="black" stroke-width="1.5" /><path d="M 679.488503 148.040403 L 673.958530 150.291393 L 668.120439 151.718075 L 672.815543 150.014970 L 672.916335 150.879950 L 667.522331 153.729136 L 661.885763 155.830005 L 659.088503 156.440403" fill="none" id="82" stroke="black" stroke-width="1.5" /><path d="M 429.888503 176.840403 L 431.330594 171.021653 L 432.631870 165.132496 L 433.990549 159.272039 L 435.604134 153.539836 L 437.712819 147.833266 L 440.427563 141.984296 L 443.524460 136.131829 L 446.779602 130.414773 L 449.969081 124.972031 L 452.868990 119.942510 L 455.255423 115.465116 L 456.288503 113.240403" fill="none" id="84" stroke="black" stroke-width="1.5" /><path d="M 441.888503 152.840403 L 441.127007 148.561706 L 441.701408 143.381757 L 443.439814 137.579819 L 446.170336 131.435156 L 449.721083 125.227031 L 453.920164 119.234706 L 458.595689 113.737446 L 463.575766 109.014514 L 468.688506 105.345173 L 473.762018 103.008687 L 478.624411 102.284318 L 483.103795 103.451331 L 483.888503 104.840403" fill="none" id="85" stroke="black" stroke-width="1.5" /><path d="M 483.888503 104.840403 L 489.051145 106.952233 L 494.870301 106.627116 L 500.564384 104.248986 L 505.351810 100.201782 L 505.488503 100.040403" fill="none" id="86" stroke="black" stroke-width="1.5" /><path d="M 495.888503 107.240403 L 500.955750 104.094851 L 505.748443 100.468597 L 510.241330 96.462648 L 511.488503 95.240403" fill="none" id="87" stroke="black" stroke-width="1.5" /><path d="M 509.088503 95.240403 L 506.208924 100.524024 L 504.056947 106.001482 L 502.318279 111.577896 L 500.678633 117.158387 L 498.823716 122.648075 L 496.439239 127.952078 L 493.210912 132.975519 L 488.824445 137.623515 L 486.288503 139.640403" fill="none" id="88" stroke="black" stroke-width="1.5" /><path d="M 489.888503 137.240403 L 485.278390 140.714002 L 480.812237 144.806723 L 476.530546 149.275548 L 472.473821 153.877461 L 468.682565 158.369443 L 468.288503 158.840403" fill="none" id="89" stroke="black" stroke-width="1.5" /><path d="M 452.688503 176.840403 L 447.402712 179.437988 L 441.722527 181.636780 L 435.821942 183.372337 L 429.874956 184.580214 L 424.055566 185.195969 L 425.088503 181.640403" fill="none" id="90" stroke="black" stroke-width="1.5" /><path d="M 428.688503 179.240403 L 431.266272 174.348240 L 434.551892 169.494745 L 438.411867 164.743699 L 442.712698 160.158884 L 447.320888 155.804083 L 452.102939 151.743079 L 456.925353 148.039652 L 461.654634 144.757586 L 461.476013 145.576935 L 457.093991 149.701997 L 452.937715 154.044936 L 453.766603 153.209999 L 458.655955 149.770890 L 459.780626 151.356238 L 455.762711 155.799984 L 455.088503 156.440403" fill="none" id="91" stroke="black" stroke-width="1.5" /><path d="M 396.288503 84.440403 L 395.127695 78.641579 L 394.050156 72.698103 L 392.841043 66.763432 L 391.488503 61.640403" fill="none" id="92" stroke="black" stroke-width="1.5" /><path d="M 403.488503 83.240403 L 403.611016 77.296738 L 403.572238 71.264105 L 403.238874 65.221495 L 402.477625 59.247898 L 401.155195 53.422306 L 399.888503 49.640403" fill="none" id="93" stroke="black" stroke-width="1.5" /><path d="M 398.688503 60.440403 L 395.565052 55.711369 L 391.744874 51.077854 L 387.326919 46.767992 L 382.410135 43.009914 L 377.093471 40.031754 L 371.475877 38.061643 L 365.536127 36.524913 L 367.488503 37.640403" fill="none" id="94" stroke="black" stroke-width="1.5" /><path d="M 373.488503 40.040403 L 367.800016 38.008313 L 362.552193 34.998211 L 357.888503 31.640403" fill="none" id="95" stroke="black" stroke-width="1.5" /><path d="M 359.088503 38.840403 L 362.211132 42.503506 L 365.297200 48.541437 L 367.488503 54.440403" fill="none" id="96" stroke="black" stroke-width="1.5" /><path d="M 367.488503 65.240403 L 370.740788 70.107835 L 375.345186 73.984037 L 378.288503 76.040403" fill="none" id="97" stroke="black" stroke-width="1.5" /><path d="M 377.088503 88.040403 L 382.584292 88.829060 L 388.768326 90.271917 L 394.812740 92.551493 L 399.889670 95.850312 L 403.171253 100.350893 L 403.488503 101.240403" fill="none" id="98" stroke="black" stroke-width="1.5" /><path d="M 389.088503 96.440403 L 394.877982 97.863864 L 400.681376 99.485202 L 406.399628 101.389322 L 411.888503 103.640403" fill="none" id="99" stroke="black" stroke-width="1.5" /><path d="M 399.888503 68.840403 L 401.104750 74.721945 L 402.490104 80.518503 L 403.851924 86.300129 L 404.997566 92.136875 L 405.734389 98.098792 L 405.888503 103.640403" fill="none" id="100" stroke="black" stroke-width="1.5" /><path d="M 396.288503 84.440403 L 396.636959 88.658037 L 400.637756 94.895665 L 397.298147 90.427449 L 395.088503 86.840403" fill="none" id="101" stroke="black" stroke-width="1.5" /><path d="M 385.488503 91.640403 L 389.598269 95.232310 L 389.093623 91.273701 L 386.128133 86.637079 L 382.052012 81.793932 L 377.320460 76.793810 L 372.388676 71.686265 L 367.711860 66.520847 L 363.745210 61.347109 L 360.943926 56.214601 L 359.763208 51.172874 L 360.658254 46.271480 L 362.798018 48.510771 L 365.006727 54.160284 L 366.209141 52.690614 L 365.276194 47.418237 L 368.511315 52.015834 L 373.488503 52.040403" fill="none" id="102" stroke="black" stroke-width="1.5" /><path d="M 386.688503 61.640403 L 392.691038 61.793428 L 396.288503 62.840403" fill="none" id="103" stroke="black" stroke-width="1.5" /><path d="M 330.288503 259.640403 L 327.706957 254.667535 L 326.362899 249.065649 L 326.065723 243.035383 L 326.624825 236.777374 L 327.849600 230.492258 L 329.549442 224.380672 L 331.533747 218.643253 L 333.611911 213.480637 L 333.888503 212.840403" fill="none" id="104" stroke="black" stroke-width="1.5" /><path d="M 331.488503 224.840403 L 333.337883 220.571974 L 336.036610 215.313370 L 339.458617 209.570053 L 343.477834 203.847484 L 347.968195 198.651125 L 352.803631 194.486438 L 357.858073 191.858886 L 363.005453 191.273929 L 368.119705 193.237029 L 368.688503 193.640403" fill="none" id="105" stroke="black" stroke-width="1.5" /><path d="M 371.088503 188.840403 L 375.647911 184.929318 L 380.410739 181.190616 L 385.467042 178.440394 L 382.774248 183.590171 L 380.688503 185.240403" fill="none" id="106" stroke="black" stroke-width="1.5" /><path d="M 383.088503 187.640403 L 383.088503 181.653523 L 383.088503 179.240403" fill="none" id="107" stroke="black" stroke-width="1.5" /><path d="M 377.088503 232.040403 L 377.725524 226.064209 L 378.370784 220.096253 L 379.022010 214.134263 L 379.676932 208.175968 L 380.333278 202.219098 L 380.988777 196.261381 L 381.641158 190.300546 L 382.288149 184.334322 L 382.927480 178.360437 L 383.088503 176.840403" fill="none" id="108" stroke="black" stroke-width="1.5" /><path d="M 377.088503 196.040403 L 374.558756 200.731689 L 371.957685 206.243340 L 369.547956 212.260161 L 367.592232 218.466951 L 366.353181 224.548512 L 366.093466 230.189646 L 366.288503 232.040403" fill="none" id="109" stroke="black" stroke-width="1.5" /><path d="M 371.088503 224.840403 L 369.647441 230.535277 L 368.412058 236.514824 L 367.488503 240.440403" fill="none" id="110" stroke="black" stroke-width="1.5" /><path d="M 367.488503 241.640403 L 363.073728 245.198357 L 356.506771 248.723823 L 349.240137 251.960767 L 342.726328 254.653153 L 338.417847 256.544948 L 337.488503 257.240403" fill="none" id="111" stroke="black" stroke-width="1.5" /><path d="M 341.088503 254.840403 L 346.132792 251.626304 L 351.622389 249.182396 L 347.606993 252.985556 L 342.282393 256.068609 L 336.442204 257.923049 L 332.815986 256.125095 L 335.296473 250.951250 L 337.488503 248.840403" fill="none" id="112" stroke="black" stroke-width="1.5" /><path d="M 338.688503 248.840403 L 334.155625 252.795203 L 331.073492 254.446316 L 334.287087 249.370508 L 337.488503 245.240403" fill="none" id="113" stroke="black" stroke-width="1.5" /><path d="M 344.688503 238.040403 L 346.776061 233.542443 L 349.902372 228.721991 L 353.775269 223.753164 L 358.102588 218.810083 L 362.592164 214.066865 L 366.951833 209.697628 L 369.888503 206.840403" fill="none" id="114" stroke="black" stroke-width="1.5" /><path d="M 341.088503 240.440403 L 343.882484 235.265235 L 347.912596 230.937918 L 352.499311 226.965345 L 356.963099 222.854405 L 360.624433 218.111991 L 361.488503 216.440403" fill="none" id="115" stroke="black" stroke-width="1.5" /><path d="M 248.688503 472.040403 L 244.142237 468.233364 L 241.237534 463.623439 L 239.757526 458.366690 L 239.485347 452.619180 L 240.204130 446.536973 L 241.697009 440.276130 L 243.747117 433.992716 L 246.137588 427.842792 L 248.651556 421.982423 L 251.072153 416.567669 L 253.182512 411.754595 L 250.731629 417.224121 L 248.168643 422.627079 L 247.488503 424.040403" fill="none" id="116" stroke="black" stroke-width="1.5" /><path d="M 249.888503 433.640403 L 251.506879 428.343503 L 253.553429 422.564624 L 255.655315 416.495362 L 257.439699 410.327313 L 258.533745 404.252075 L 258.564616 398.461245 L 257.159476 393.146419 L 254.688503 394.040403" fill="none" id="117" stroke="black" stroke-width="1.5" /><path d="M 263.088503 412.040403 L 263.923088 417.205537 L 265.616060 422.943949 L 267.947501 428.966273 L 270.697494 434.983144 L 273.646119 440.705197 L 276.573460 445.843065 L 278.688503 449.240403" fill="none" id="118" stroke="black" stroke-width="1.5" /><path d="M 278.688503 445.640403 L 277.471454 451.747051 L 275.100930 457.138942 L 271.833747 461.977409 L 267.926718 466.423784 L 263.636658 470.639399 L 259.220382 474.785586 L 257.088503 476.840403" fill="none" id="119" stroke="black" stroke-width="1.5" /><path d="M 259.488503 446.840403 L 255.878415 451.704405 L 253.094786 456.994700 L 254.227196 458.715044 L 257.639791 453.928895 L 258.288503 452.840403" fill="none" id="120" stroke="black" stroke-width="1.5" /><path d="M 260.688503 444.440403 L 256.469867 448.756231 L 252.148448 452.897098 L 252.625683 448.716914 L 252.713320 445.092173 L 247.516016 448.065838 L 249.300213 442.783348 L 251.318662 437.110333 L 249.710726 437.988991 L 249.089864 441.467839 L 253.353617 437.516692 L 253.488503 437.240403" fill="none" id="121" stroke="black" stroke-width="1.5" /><path d="M 282.288503 935.240403 L 276.853425 937.702173 L 271.442570 940.251806 L 266.033136 942.836106 L 260.602328 945.401875 L 255.127345 947.895918 L 249.585389 950.265038 L 244.033762 952.722390 L 238.674073 955.527811 L 233.447772 958.533684 L 228.282096 961.594487 L 223.104285 964.564695 L 217.841574 967.298784 L 212.292792 969.611986 L 206.434336 970.911818 L 200.490381 971.393226 L 194.502739 971.479555 L 188.513221 971.594145 L 182.563640 972.160339 L 176.994004 973.284801 L 171.319604 974.817970 L 165.548481 976.711858 L 159.754260 978.908722 L 154.010566 981.350814 L 148.391027 983.980389 L 142.969267 986.739702 L 137.818913 989.571006 L 132.954943 992.426962 L 127.885944 995.341452 L 122.609431 998.355475 L 117.273916 1001.513583 L 112.027913 1004.860331 L 107.019932 1008.440273 L 102.398487 1012.297962 L 98.312090 1016.477951 L 96.317502 1020.188703 L 102.165404 1018.857332 L 104.538503 1017.890403" fill="none" id="122" stroke="black" stroke-width="1.5" /><path d="M 287.088503 955.640403 L 283.800362 960.183039 L 279.701422 964.307983 L 274.943526 968.017419 L 269.678522 971.313532 L 264.058252 974.198508 L 258.234564 976.674530 L 252.359302 978.743784 L 246.584312 980.408455 L 241.061438 981.670727 L 239.088503 982.040403" fill="none" id="123" stroke="black" stroke-width="1.5" /><path d="M 231.888503 977.240403 L 225.771964 977.292381 L 219.826540 977.938070 L 214.019139 979.124520 L 208.316668 980.798784 L 202.686035 982.907914 L 201.888503 983.240403" fill="none" id="124" stroke="black" stroke-width="1.5" /><path d="M 201.888503 986.840403 L 195.198681 986.272488 L 189.231871 986.042339 L 183.688272 986.214973 L 178.268086 986.855407 L 172.671512 988.028657 L 166.598752 989.799740 L 164.688503 990.440403" fill="none" id="125" stroke="black" stroke-width="1.5" /><path d="M 159.888503 995.240403 L 152.904053 995.267278 L 146.948377 995.556326 L 141.687713 996.420186 L 136.788298 998.171497 L 131.916370 1001.122897 L 126.744598 1005.580657 L 121.936017 1010.423176 L 117.627165 1014.718829 L 113.426519 1018.311669 L 108.942556 1021.045752 L 103.783756 1022.765133 L 97.558596 1023.313866 L 97.524459 1023.796086 L 103.527359 1023.703949 L 107.238503 1022.840403" fill="none" id="126" stroke="black" stroke-width="1.5" /><path d="M 267.888503 978.440403 L 263.096884 982.035198 L 257.925011 984.992256 L 252.490924 987.499133 L 246.912658 989.743387 L 241.308253 991.912574 L 235.795745 994.194250 L 230.493173 996.775974 L 225.518573 999.845301 L 220.989985 1003.589789 L 217.025445 1008.196995 L 214.029621 1013.351755 L 212.650110 1018.695355 L 211.630402 1025.287791 L 210.451924 1032.073398 L 208.596106 1037.996513 L 205.544376 1042.001471 L 200.827867 1041.974730 L 201.888503 1035.890403" fill="none" id="127" stroke="black" stroke-width="1.5" /><path d="M 206.688503 1039.640403 L 205.693680 1045.462703 L 205.068149 1051.430293 L 204.288503 1056.440403" fill="none" id="128" stroke="black" stroke-width="1.5" /><path d="M 276.288503 979.640403 L 272.506755 984.283194 L 267.961134 988.128053 L 263.118691 991.672758 L 258.446472 995.415083 L 254.411527 999.852805 L 253.488503 1001.240403" fill="none" id="129" stroke="black" stroke-width="1.5" /><path d="M 242.688503 1012.040403 L 237.036118 1012.053524 L 230.867959 1012.549598 L 224.872444 1013.826321 L 219.737990 1016.181387 L 216.153015 1019.912490 L 214.805936 1025.317324 L 216.288503 1032.440403" fill="none" id="130" stroke="black" stroke-width="1.5" /><path d="M 215.088503 1032.440403 L 213.837372 1038.264573 L 212.452723 1044.052329 L 211.539006 1049.968522 L 211.488503 1054.040403" fill="none" id="131" stroke="black" stroke-width="1.5" /><path d="M 306.288503 984.440403 L 309.236927 988.733301 L 314.151157 986.588184 L 317.967542 981.603434 L 321.412281 980.115940 L 323.245781 985.540181 L 323.837406 991.476246 L 323.592151 997.691636 L 322.915010 1003.953856 L 322.210978 1010.030409 L 321.881594 1015.582882 L 321.587813 1020.610691 L 321.064273 1026.751324 L 320.556264 1033.567766 L 320.309079 1040.623006 L 320.568008 1047.480030 L 321.578344 1053.701823 L 323.585376 1058.851374 L 326.834398 1062.491669 L 329.088503 1063.640403" fill="none" id="132" stroke="black" stroke-width="1.5" /><path d="M 342.288503 986.840403 L 342.545638 990.725814 L 340.975091 995.315514 L 338.033821 1000.449043 L 334.178789 1005.965943 L 329.866953 1011.705753 L 325.555273 1017.508016 L 321.700710 1023.212272 L 318.760222 1028.658061 L 317.190771 1033.684925 L 322.050161 1037.059519 L 325.012197 1041.955295 L 325.715785 1048.095307 L 325.387092 1054.675982 L 325.252287 1060.893750 L 326.537536 1065.945037 L 329.088503 1068.440403" fill="none" id="133" stroke="black" stroke-width="1.5" /><path d="M 347.088503 988.040403 L 353.278293 984.673253 L 358.510028 984.206856 L 362.902123 986.154471 L 366.572992 990.029360 L 369.641050 995.344781 L 372.224713 1001.613996 L 374.442395 1008.350264 L 376.412510 1015.066846 L 378.253474 1021.277001 L 380.083700 1026.493991 L 381.888503 1030.040403" fill="none" id="134" stroke="black" stroke-width="1.5" /><path d="M 380.688503 1015.640403 L 382.111219 1021.495508 L 383.343898 1027.364225 L 386.721137 1033.490766 L 390.432859 1036.881809 L 394.872790 1038.852019 L 400.718285 1041.236416 L 405.710145 1043.983814 L 410.178598 1047.090401 L 415.128585 1050.993238 L 420.263995 1055.465791 L 425.288715 1060.281528 L 429.906634 1065.213914 L 433.821640 1070.036417 L 436.737622 1074.522502 L 437.062628 1074.543347 L 435.470740 1068.922538 L 434.096835 1063.022207 L 432.846656 1056.988449 L 431.625947 1050.967362 L 430.340452 1045.105043 L 429.888503 1043.240403" fill="none" id="135" stroke="black" stroke-width="1.5" /><path d="M 428.688503 1038.440403 L 423.665131 1035.093437 L 419.564493 1031.084291 L 416.128748 1026.557915 L 413.100055 1021.659256 L 410.220575 1016.533262 L 407.232465 1011.324883 L 403.877887 1006.179065 L 399.898998 1001.240758 L 395.137687 996.656696 L 390.445168 992.637936 L 386.086928 988.866349 L 382.079223 984.862415 L 378.438307 980.146616 L 375.522058 974.590720 L 373.478363 969.013078 L 370.482183 963.923161 L 374.611328 959.979572 L 379.600662 960.491643 L 384.359730 963.815556 L 388.938503 967.790403" fill="none" id="136" stroke="black" stroke-width="1.5" /><path d="M 413.088503 986.840403 L 415.701820 992.252659 L 417.995319 997.938002 L 420.137630 1003.740021 L 422.297383 1009.502307 L 424.643208 1015.068448 L 427.343735 1020.282034 L 430.567594 1024.986654 L 434.483416 1029.025899 L 439.259830 1032.243357 L 445.065466 1034.482618 L 451.263512 1035.754345 L 457.244832 1036.934054 L 463.184729 1038.177081 L 469.064909 1039.519307 L 474.867081 1040.996616 L 480.572951 1042.644891 L 486.164226 1044.500012 L 491.622613 1046.597864 L 496.929818 1048.974328 L 502.067550 1051.665287 L 507.017514 1054.706623 L 511.761418 1058.134219 L 516.280969 1061.983957 L 520.557874 1066.291720 L 524.573839 1071.093391 L 528.271823 1076.357159 L 525.888503 1073.240403" fill="none" id="138" stroke="black" stroke-width="1.5" /><path d="M 414.288503 960.440403 L 421.309931 962.827067 L 425.561070 966.215877 L 427.784187 970.545321 L 428.721546 975.753885 L 429.115413 981.780055 L 429.708055 988.562317 L 431.356307 995.009442 L 434.250870 999.959846 L 438.178702 1003.724859 L 442.927526 1006.619862 L 448.285069 1008.960235 L 454.039056 1011.061355 L 459.977212 1013.238604 L 465.720275 1015.677135 L 471.169255 1018.039017 L 476.703336 1020.419281 L 482.258341 1022.850015 L 487.770097 1025.363307 L 493.174429 1027.991243 L 498.608310 1030.919030 L 503.862015 1034.535099 L 508.187157 1038.461426 L 511.805253 1042.726679 L 514.937815 1047.359525 L 517.806360 1052.388629 L 520.632403 1057.842659 L 523.428627 1063.347721 L 526.139822 1068.366379 L 529.561673 1073.766365 L 533.653577 1078.739273 L 538.374927 1082.476697 L 543.685119 1084.170230 L 549.543548 1083.011466 L 547.638503 1085.240403" fill="none" id="139" stroke="black" stroke-width="1.5" /><path d="M 438.288503 972.440403 L 443.838381 973.030057 L 449.248831 974.568655 L 454.566730 976.838727 L 459.838953 979.622801 L 465.112375 982.703407 L 470.433871 985.863073 L 475.850317 988.884329 L 481.408588 991.549703 L 487.155560 993.641724 L 493.138108 994.942921 L 499.308319 995.339131 L 505.396691 995.474282 L 511.422548 995.525201 L 517.398378 995.522688 L 523.336667 995.497545 L 529.249901 995.480571 L 535.150569 995.502569 L 541.051157 995.594339 L 546.964151 995.786681 L 552.902038 996.110397 L 558.877306 996.596287 L 564.902440 997.275152 L 570.989929 998.177794 L 576.556323 999.165755 L 582.232156 1000.070970 L 588.416688 1001.136042 L 594.745780 1002.543041 L 600.855290 1004.474037 L 606.381080 1007.111101 L 610.959008 1010.636301 L 614.224934 1015.231710 L 610.655836 1015.875949 L 609.888503 1015.490403" fill="none" id="140" stroke="black" stroke-width="1.5" /><path d="M 464.688503 961.640403 L 469.210445 965.363995 L 474.284169 968.232785 L 479.793656 970.415928 L 485.622887 972.082582 L 491.655843 973.401904 L 497.776506 974.543050 L 503.868857 975.675178 L 509.816878 976.967445 L 515.504550 978.589007 L 520.815854 980.709021 L 521.088503 980.840403" fill="none" id="141" stroke="black" stroke-width="1.5" /><path d="M 533.088503 984.440403 L 538.964718 984.247199 L 545.037505 983.810000 L 551.198359 983.342424 L 557.338774 983.058091 L 563.350246 983.170619 L 569.124270 983.893626 L 571.488503 984.440403" fill="none" id="142" stroke="black" stroke-width="1.5" /><path d="M 567.888503 988.040403 L 574.122328 988.644551 L 580.102219 989.393485 L 585.875397 990.396565 L 591.489086 991.763146 L 596.990508 993.602586 L 602.426885 996.024243 L 607.845439 999.137473 L 612.399316 1002.890106 L 616.311925 1007.663067 L 619.909761 1012.985619 L 623.436846 1018.327015 L 627.137201 1023.156508 L 631.254849 1026.943350 L 635.252555 1027.588737 L 636.356701 1024.535238 L 636.039841 1030.669127 L 635.528405 1035.061685 L 636.056089 1032.438975 L 632.880638 1037.402851 L 631.754150 1042.900637 L 631.608479 1038.876319 L 628.938503 1036.040403" fill="none" id="143" stroke="black" stroke-width="1.5" /><path d="M 611.088503 1024.040403 L 613.272715 1029.800342 L 615.940268 1035.176100 L 618.550155 1040.484362 L 620.561373 1046.041814 L 624.204216 1044.210791 L 627.808861 1046.351813 L 629.088503 1043.240403" fill="none" id="144" stroke="black" stroke-width="1.5" /><path d="M 245.088503 641.240403 L 240.799357 637.056165 L 235.907429 633.882481 L 230.532835 631.663047 L 224.795691 630.341559 L 218.816114 629.861712 L 212.714220 630.167201 L 206.610127 631.201722 L 200.623950 632.908969 L 194.875807 635.232639 L 189.485813 638.116427 L 184.574085 641.504028 L 180.260740 645.339137 L 175.722692 650.661383 L 171.582853 656.780701 L 168.568761 662.766055 L 166.615689 668.594650 L 165.658913 674.243690 L 165.633708 679.690379 L 166.475349 684.911922 L 168.119111 689.885524 L 170.500269 694.588387 L 173.554098 698.997718 L 177.215874 703.090719 L 181.420871 706.844597 L 186.104365 710.236554 L 191.201630 713.243796 L 196.647942 715.843527 L 202.378576 718.012950 L 208.328806 719.729271 L 214.433909 720.969695 L 220.629158 721.711424 L 226.849829 721.931664 L 233.031198 721.607619 L 238.882062 720.757524 L 243.606647 719.555024 L 248.604998 717.800878 L 253.801301 715.532693 L 259.119739 712.788074 L 264.484496 709.604628 L 269.819755 706.019961 L 275.049701 702.071681 L 280.098517 697.797393 L 284.890387 693.234704 L 289.349494 688.421221 L 293.400023 683.394549 L 296.966158 678.192296 L 299.972081 672.852067 L 302.341978 667.411470 L 304.000031 661.908110 L 304.870425 656.379594 L 304.877342 650.863529 L 303.944968 645.397520 L 301.997486 640.019175 L 298.959079 634.766100 L 295.286580 630.365763 L 291.097117 627.484217 L 285.742193 625.186230 L 279.530688 623.509160 L 272.771484 622.490364 L 265.773462 622.167200 L 258.845503 622.577024 L 252.296489 623.757194 L 246.435301 625.745068 L 241.570820 628.578002 L 238.011928 632.293355 L 236.067506 636.928482 L 236.046436 642.520743 L 237.802542 638.268648 L 235.624178 638.664893 L 234.248579 644.142207 L 236.885498 642.543049 L 235.548518 638.307288 L 235.747654 637.307767 L 234.872875 632.437189 L 234.742607 626.515149 L 235.201673 619.889814 L 236.094901 612.909347 L 237.267115 605.921914 L 238.563140 599.275681 L 239.827801 593.318811 L 240.905925 588.399472 L 238.567112 590.254182 L 236.838503 594.440403" fill="none" id="145" stroke="black" stroke-width="1.5" /><path d="M 251.088503 556.040403 L 252.923500 550.478253 L 255.888503 547.640403" fill="none" id="146" stroke="black" stroke-width="1.5" /><path d="M 224.688503 721.640403 L 226.533385 719.800127 L 224.931284 725.610409 L 223.323356 731.446685 L 223.851338 733.601190 L 227.190377 728.688950 L 229.685441 723.127759 L 228.228704 728.321317 L 227.734811 732.585062 L 230.907272 727.585255 L 231.185421 729.624337 L 236.221457 730.838163 L 239.868065 731.105478 L 237.493000 725.509948 L 236.688503 720.440403" fill="none" id="147" stroke="black" stroke-width="1.5" /><path d="M 253.488503 564.440403 L 255.567995 558.850349 L 258.376430 553.521887 L 260.688503 550.040403" fill="none" id="148" stroke="black" stroke-width="1.5" /><path d="M 222.288503 626.840403 L 219.170456 621.625079 L 215.413796 617.013061 L 210.966698 613.204240 L 205.777341 610.398504 L 200.341077 608.963591 L 205.486441 611.844763 L 210.064642 615.212538 L 214.149303 619.180181 L 217.814046 623.860957 L 221.132493 629.368131 L 222.288503 631.640403" fill="none" id="149" stroke="black" stroke-width="1.5" /><path d="M 368.688503 730.040403 L 366.840748 735.516805 L 366.145570 741.532390 L 366.082837 747.697059 L 366.518096 751.440417 L 369.310580 746.205319 L 370.664979 746.110436 L 369.932088 752.088292 L 368.903011 758.065375 L 367.451848 763.887810 L 367.580943 764.470268 L 370.305768 759.162919 L 373.349552 753.996824 L 375.319900 752.494388 L 374.102706 758.279305 L 372.457701 764.047682 L 370.607023 769.812981 L 368.772809 775.588665 L 368.187838 779.090517 L 371.221465 773.641110 L 374.173145 768.245098 L 375.584308 767.547249 L 373.506748 773.170508 L 371.142244 778.668230 L 368.896088 784.217728 L 368.298625 787.759341 L 371.427787 782.873762 L 374.302811 777.495543 L 377.767066 772.447972 L 378.718285 774.939825 L 377.281872 780.744413 L 375.318785 786.470496 L 373.224979 792.164656 L 371.396408 797.873477 L 371.705978 800.528688 L 375.420909 795.814271 L 378.926866 790.960538 L 380.385237 791.105840 L 378.973169 796.884927 L 377.093746 802.595338 L 374.905826 808.246417 L 372.568266 813.847509 L 370.239922 819.407959 L 368.079653 824.937111 L 370.671591 821.667340 L 374.267107 816.616322 L 376.274028 815.897849 L 375.034671 821.742610 L 373.625810 827.577351 L 372.292373 833.431632 L 371.279282 839.335014 L 370.831465 845.317056 L 372.686591 847.526951 L 376.617708 843.126770 L 380.049057 838.090666 L 383.254736 832.861415 L 386.508843 827.881791 L 384.331261 833.194531 L 381.767016 838.627322 L 379.074660 844.104400 L 376.465602 849.638815 L 374.151253 855.243619 L 372.343022 860.931860 L 371.252321 866.716588 L 374.739473 862.181459 L 377.814631 856.925663 L 380.792809 851.584561 L 384.086986 846.577032 L 388.110142 842.321955 L 388.794880 844.713480 L 386.774722 850.346360 L 384.458350 855.867493 L 382.034890 861.353430 L 379.693468 866.880721 L 377.623206 872.525918 L 379.544796 869.939111 L 382.884421 864.391585 L 386.651023 859.017376 L 390.803730 854.879144 L 393.131401 855.269294 L 391.091110 860.880390 L 388.811320 866.427854 L 386.467424 871.965375 L 384.234812 877.546645 L 382.288878 883.225355 L 380.944587 888.762413 L 384.688506 884.095206 L 388.376336 879.362419 L 392.118892 874.665631 L 396.026986 870.106421 L 398.537331 870.038963 L 397.955647 875.827605 L 396.337161 881.617258 L 394.014880 887.341320 L 391.321814 892.933191 L 388.590968 898.326267 L 387.726182 900.555289 L 391.150007 895.669027 L 395.136468 890.923919 L 397.122213 892.539131 L 396.587087 898.433495 L 395.187320 904.427852 L 393.281543 910.342885 L 391.228386 915.999282 L 392.192598 916.173287 L 396.494331 911.862948 L 399.844436 911.445997 L 398.820541 917.331196 L 397.088668 923.059250 L 395.481669 928.830660 L 397.188579 931.851035 L 402.734429 929.805912 L 402.666888 934.207931 L 401.677248 940.150731 L 401.086095 946.128748 L 402.053119 946.314171 L 405.015172 941.232357 L 408.972242 938.638223 L 409.999854 944.958865 L 414.112856 946.642035 L 419.487539 947.541232 L 420.138503 948.440403" fill="none" id="150" stroke="black" stroke-width="1.5" /><path d="M 276.288503 636.440403 L 274.339420 634.540438 L 269.703732 636.456882 L 275.454376 634.740942 L 281.205019 633.022498 L 277.610663 636.085217 L 272.511840 639.628404 L 267.628390 643.324104 L 263.565775 647.444158 L 266.769239 647.309649 L 272.717012 645.127638 L 278.554991 643.299295 L 283.956233 642.444093 L 279.329015 645.856893 L 274.327397 649.250538 L 269.567186 652.885589 L 265.989361 656.747086 L 271.684938 654.989856 L 277.309240 652.938853 L 282.923411 650.787697 L 288.588596 648.730008 L 287.812530 649.547288 L 282.344621 652.163888 L 276.706936 655.004981 L 271.402906 658.250809 L 266.935966 662.081612 L 266.851673 664.595479 L 272.646485 663.110418 L 278.335623 661.207050 L 284.036035 659.323939 L 289.864673 657.899646 L 286.682004 660.557197 L 281.535723 663.668825 L 276.431973 666.820435 L 271.619330 670.349377 L 269.016653 673.827443 L 274.718704 672.866176 L 280.435472 670.637650 L 286.029949 668.155732 L 281.277108 671.176967 L 275.780621 674.037667 L 270.361798 676.945094 L 265.548689 680.271990 L 266.887264 681.339765 L 272.641385 679.630133 L 278.338239 677.812420 L 284.147377 676.395279 L 281.524430 678.760696 L 276.247855 681.563910 L 270.865694 684.218089 L 265.601018 687.141488 L 268.915132 686.776348 L 274.847486 685.817256 L 271.250316 689.926851 L 266.556543 693.548739 L 261.197082 696.624397 L 255.454413 699.203673 L 249.611016 701.336417 L 243.949371 703.072478 L 244.201989 702.599769 L 249.792708 700.331775 L 255.383427 698.231593 L 254.274840 698.256445 L 248.557857 699.847369 L 242.499185 701.655494 L 236.284020 703.440568 L 230.097556 704.962337 L 224.124990 705.980549 L 218.551515 706.254950 L 216.457324 704.161926 L 212.690693 708.732347 L 217.377661 707.527662 L 223.109861 705.465686 L 228.949958 704.584386 L 231.321809 707.088134 L 228.212251 712.311596 L 233.180855 711.401565 L 238.825103 709.185216 L 244.398216 706.692848 L 250.001565 704.571677 L 255.164738 703.622869 L 249.800668 706.213622 L 244.383109 708.804374 L 243.257716 709.116018 L 248.363472 706.275231 L 254.051299 703.008951 L 259.678006 699.335042 L 264.600405 695.271371 L 268.175305 690.835805 L 268.903569 686.805200 L 263.111846 688.325127 L 257.583101 690.601016 L 252.124768 693.103311 L 246.544281 695.302455 L 247.184329 694.067771 L 252.396465 691.103640 L 257.700654 688.310464 L 262.981844 685.474576 L 268.124984 682.382309 L 264.608172 683.083602 L 258.706661 685.093603 L 252.646905 687.062620 L 246.678949 688.536624 L 241.052840 689.061584 L 242.623161 686.984388 L 247.971169 684.232784 L 253.364555 681.524933 L 258.603884 678.592367 L 263.489723 675.166617 L 260.216299 675.558668 L 254.608907 677.681702 L 253.443784 677.293791 L 258.073431 673.577335 L 262.968280 670.085237 L 267.952927 666.651573 L 272.851966 663.110417 L 277.489990 659.295847 L 274.768595 658.442323 L 268.907005 659.767051 L 263.029450 661.221373 L 257.092713 661.969751 L 258.732338 659.165855 L 263.540161 655.570583 L 268.439008 652.045501 L 273.198401 648.365755 L 277.587863 644.306488 L 278.602390 641.240367 L 272.709285 642.590596 L 266.854484 644.679298 L 261.067589 646.773874 L 255.378199 648.141722 L 253.318340 647.073630 L 258.228272 643.627586 L 263.212472 640.274378 L 268.155677 636.869925 L 269.119396 635.034600 L 263.483438 636.979466 L 257.875203 639.535335 L 254.388503 641.090403" fill="none" id="151" stroke="black" stroke-width="1.5" /><path d="M 693.888503 436.040403 L 688.566595 438.775865 L 685.367796 442.736463 L 691.084335 441.471639 L 696.764857 439.131160 L 701.999488 435.854556 L 706.378352 431.781362 L 706.713532 430.706310 L 702.725416 435.247620 L 699.508572 440.215161 L 699.196483 444.355676 L 704.678316 443.180595 L 710.007326 440.233568 L 715.012870 436.185802 L 719.524299 431.708504 L 723.370968 427.472883 L 719.701709 430.061747 L 715.314375 434.345669 L 712.953620 439.482343 L 715.980078 441.984333 L 722.090812 441.307343 L 728.424925 439.749423 L 734.127477 437.143301 L 738.343527 433.321707 L 738.471639 431.058390 L 734.434589 435.445284 L 733.098957 439.989434 L 738.941654 440.374677 L 744.561236 438.662068 L 749.575379 435.291279 L 753.601759 430.701982 L 756.258054 425.333850 L 751.573930 428.795264 L 748.083854 433.546520 L 749.536700 436.448487 L 755.090548 434.750915 L 760.374689 431.537052 L 765.239756 427.611176 L 769.289272 422.638381 L 768.138503 424.190403" fill="none" id="152" stroke="black" stroke-width="1.5" /><path d="M 644.688503 496.040403 L 647.455305 492.302238 L 652.329173 491.457277 L 649.740015 497.073118 L 648.403416 501.733139 L 654.036161 499.647806 L 658.936123 496.330437 L 663.051636 491.961866 L 659.877167 494.332933 L 657.127802 498.540054 L 662.618091 497.837754 L 668.532648 495.630774 L 674.361794 493.183119 L 673.225475 494.139571 L 668.093788 497.237343 L 674.545099 496.335664 L 680.426739 495.824881 L 685.569402 496.842676 L 690.644270 493.584861 L 696.136766 491.140034 L 696.138503 493.640403" fill="none" id="153" stroke="black" stroke-width="1.5" /><path d="M 602.688503 552.440403 L 605.676873 547.332135 L 609.334049 542.515649 L 609.716989 542.966284 L 606.874327 548.254117 L 607.606543 550.645728 L 613.262030 548.595027 L 618.888256 546.480394 L 624.585097 544.658522 L 625.676269 545.181400 L 620.682672 548.469420 L 620.982325 548.351294 L 625.769893 544.744652 L 630.191508 540.676291 L 632.688503 538.040403" fill="none" id="154" stroke="black" stroke-width="1.5" /><path d="M 693.888503 335.240403 L 698.273773 331.321190 L 702.879463 327.197704 L 707.647469 323.431611 L 709.030984 323.552947 L 705.287964 328.336638 L 701.923805 333.260786 L 699.444985 338.614809 L 702.593389 340.015158 L 707.904685 338.298794 L 713.443167 335.357360 L 719.011031 331.722884 L 724.410473 327.927389 L 729.443690 324.502901 L 730.875087 323.434913 L 725.634368 326.367783 L 720.901940 329.981032 L 716.860758 334.384436 L 719.273575 335.859956 L 725.134455 334.663713 L 731.069053 332.744211 L 736.809832 330.331830 L 742.089254 327.656949 L 739.692761 328.569312 L 734.451652 331.387789 L 729.498797 334.761529 L 731.462178 335.854450 L 737.257018 334.491398 L 743.057609 332.456413 L 748.788960 330.255683 L 753.793231 328.758412 L 749.475588 332.798401 L 744.652273 336.332717 L 739.475697 339.513773 L 738.288503 340.190403" fill="none" id="155" stroke="black" stroke-width="1.5" /><path d="M 434.688503 629.240403 L 437.268674 626.108858 L 442.330814 620.800382 L 447.554784 616.473715 L 447.084053 620.799517 L 445.518376 626.650830 L 444.339746 632.473751 L 448.253461 628.871227 L 452.474290 624.620565 L 456.862684 620.537468 L 460.522619 618.227743 L 458.112370 623.653446 L 455.254473 629.082762 L 460.388651 626.416943 L 465.946598 623.660427 L 468.358311 625.895285 L 468.438503 625.490403" fill="none" id="156" stroke="black" stroke-width="1.5" /></svg>