<?xml version="1.0" encoding="utf-8" ?>
<svg baseProfile="full" height="330.5" version="1.1" viewBox="0,0,273.5,330.5" width="273.5" xmlns="http://www.w3.org/2000/svg" xmlns:ev="http://www.w3.org/2001/xml-events" xmlns:xlink="http://www.w3.org/1999/xlink"><defs><style type="text/css"><![CDATA[
	.background { fill: white; }
	.line { stroke: firebrick; stroke-width: .1mm; }
	.blacksquare { fill: indigo; }
	.whitesquare { fill: white; }
]]></style></defs><rect class="background" height="100%" width="100%" x="0" y="0" /><path d="M 188.322900 114.126269 L 191.303484 113.786355 L 194.273504 113.363973 L 197.230677 112.859445 L 200.172733 112.273160 L 203.097412 111.605568 L 206.002467 110.857182 L 208.885666 110.028577 L 211.744795 109.120389 L 214.577657 108.133316 L 217.382077 107.068116 L 220.155901 105.925606 L 222.896997 104.706666 L 225.603261 103.412231 L 228.272612 102.043296 L 230.903002 100.600911 L 233.492409 99.086185 L 236.038845 97.500282 L 238.540353 95.844419 L 240.995012 94.119869 L 243.400937 92.327957 L 244.152900 91.746269" fill="none" id="2" stroke="black" stroke-width="1.5" /><path d="M 132.807900 115.401269 L 135.717631 116.130924 L 138.652784 116.750452 L 141.609191 117.258973 L 144.582655 117.655764 L 147.568957 117.940264 L 150.563856 118.112067 L 153.563101 118.170931 L 156.562434 118.116771 L 159.557599 117.949664 L 162.544342 117.669848 L 165.518426 117.277719 L 167.787900 116.901269" fill="none" id="3" stroke="black" stroke-width="1.5" /><path d="M 61.362900 102.366269 L 64.186870 103.378664 L 67.028753 104.339630 L 69.887612 105.248849 L 72.762504 106.106022 L 75.652483 106.910866 L 78.556596 107.663117 L 81.473886 108.362527 L 84.403391 109.008864 L 87.344146 109.601916 L 90.295183 110.141487 L 93.255528 110.627400 L 96.224205 111.059495 L 99.200237 111.437628 L 102.182643 111.761677 L 103.707900 111.906269" fill="none" id="6" stroke="black" stroke-width="1.5" /><path d="M 35.397900 94.866269 L 35.966114 93.642088 L 38.711472 94.917591 L 41.399133 96.250436 L 44.086794 97.583282 L 46.774455 98.916127 L 47.772900 99.411269" fill="none" id="7" stroke="black" stroke-width="1.5" /><path d="M 239.532900 51.501269 L 240.327290 54.394095 L 241.046489 57.306525 L 241.690013 60.236606 L 242.257430 63.182371 L 242.748361 66.141845 L 243.162475 69.113041 L 243.499494 72.093966 L 243.759193 75.082620 L 243.941398 78.076998 L 244.045985 81.075090 L 244.072885 84.074886 L 244.032900 86.691269" fill="none" id="8" stroke="black" stroke-width="1.5" /><path d="M 229.527900 41.931269 L 230.180973 44.859270 L 230.775111 47.799797 L 231.310075 50.751663 L 231.785649 53.713677 L 232.201640 56.684644 L 232.557882 59.663367 L 232.854230 62.648644 L 233.090566 65.639269 L 233.266792 68.634038 L 233.382839 71.631743 L 233.438660 74.631173 L 233.434232 77.631119 L 233.369558 80.630372 L 233.244662 83.627720 L 233.059595 86.621956 L 232.962900 87.891269" fill="none" id="9" stroke="black" stroke-width="1.5" /><path d="M 217.857900 28.536269 L 218.398482 31.487148 L 218.907493 34.443636 L 219.384873 37.405396 L 219.830569 40.372089 L 220.244529 43.343377 L 220.626706 46.318920 L 220.977057 49.298377 L 221.295542 52.281410 L 221.582123 55.267676 L 221.836769 58.256835 L 222.059450 61.248544 L 222.250141 64.242464 L 222.408819 67.238250 L 222.535468 70.235561 L 222.630072 73.234055 L 222.692621 76.233388 L 222.723107 79.233219 L 222.721527 82.233204 L 222.687882 85.233001 L 222.622174 88.232267 L 222.597900 89.076269" fill="none" id="10" stroke="black" stroke-width="1.5" /><path d="M 208.932900 26.196269 L 209.262037 27.491043 L 209.701958 30.458607 L 210.121844 33.429072 L 210.521676 36.402302 L 210.901437 39.378163 L 211.261108 42.356519 L 211.600674 45.337233 L 211.920119 48.320172 L 212.219428 51.305198 L 212.498588 54.292175 L 212.757586 57.280969 L 212.996410 60.271442 L 213.215050 63.263458 L 213.413495 66.256882 L 213.591736 69.251576 L 213.749766 72.247406 L 213.887577 75.244233 L 214.005163 78.241922 L 214.102518 81.240336 L 214.179639 84.239339 L 214.227900 86.706269" fill="none" id="11" stroke="black" stroke-width="1.5" /><path d="M 200.757900 35.856269 L 200.563993 32.862542 L 200.370087 29.868815 L 200.176180 26.875088 L 199.982274 23.881362 L 199.788367 20.887635 L 199.594461 17.893908 L 199.807679 18.814126 L 200.229348 21.780883 L 200.645769 24.748594 L 201.056942 27.717260 L 201.462868 30.686879 L 201.863546 33.657453 L 202.258976 36.628981 L 202.649159 39.601463 L 203.034095 42.574899 L 203.413783 45.549289 L 203.788223 48.524633 L 204.157416 51.500931 L 204.521361 54.478184 L 204.880059 57.456390 L 205.233509 60.435551 L 205.581711 63.415665 L 205.924666 66.396734 L 206.262373 69.378757 L 206.594833 72.361734 L 206.922045 75.345665 L 207.244010 78.330551 L 207.560727 81.316390 L 207.872196 84.303183 L 208.178418 87.290931 L 208.479393 90.279632 L 208.775119 93.269288 L 208.962900 95.196269" fill="none" id="12" stroke="black" stroke-width="1.5" /><path d="M 95.142900 21.366269 L 95.458996 24.349570 L 95.775093 27.332870 L 96.091190 30.316171 L 96.407286 33.299472 L 96.723383 36.282772 L 97.039479 39.266073 L 97.355576 42.249374 L 97.671673 45.232674 L 97.987769 48.215975 L 98.303866 51.199276 L 98.619963 54.182576 L 98.936059 57.165877 L 99.252156 60.149178 L 99.568252 63.132478 L 99.884349 66.115779 L 100.200446 69.099080 L 100.516542 72.082380 L 100.832639 75.065681 L 101.148736 78.048982 L 101.464832 81.032282 L 101.547900 81.816269" fill="none" id="13" stroke="black" stroke-width="1.5" /><path d="M 79.467900 24.996269 L 80.011299 27.947325 L 80.546186 30.899670 L 81.072560 33.853303 L 81.590422 36.808225 L 82.099772 39.764436 L 82.600610 42.721935 L 83.092935 45.680722 L 83.576748 48.640799 L 84.052048 51.602163 L 84.518836 54.564817 L 84.977112 57.528758 L 85.426875 60.493989 L 85.868127 63.460508 L 86.300865 66.428315 L 86.725092 69.397412 L 87.140806 72.367796 L 87.548008 75.339470 L 87.946697 78.312431 L 88.336874 81.286682 L 88.718539 84.262221 L 89.091691 87.239048 L 89.456331 90.217164 L 89.812459 93.196569 L 90.160075 96.177262 L 90.499178 99.159244 L 90.829768 102.142514 L 91.151847 105.127073 L 91.377900 107.271269" fill="none" id="14" stroke="black" stroke-width="1.5" /><path d="M 72.552900 26.151269 L 73.054375 29.108292 L 73.547292 32.066604 L 74.031649 35.026204 L 74.507448 37.987092 L 74.974687 40.949267 L 75.433367 43.912731 L 75.883488 46.877483 L 76.325049 49.843523 L 76.758052 52.810851 L 77.182495 55.779466 L 77.598379 58.749370 L 78.005705 61.720562 L 78.404471 64.693042 L 78.794677 67.666810 L 79.176325 70.641866 L 79.549414 73.618210 L 79.913943 76.595842 L 80.269913 79.574762 L 80.617324 82.554970 L 80.956176 85.536467 L 81.286469 88.519251 L 81.608203 91.503323 L 81.921377 94.488683 L 82.225992 97.475331 L 82.522049 100.463268 L 82.809546 103.452492 L 83.052900 106.056269" fill="none" id="15" stroke="black" stroke-width="1.5" /><path d="M 67.617900 28.611269 L 67.822681 31.604271 L 68.027462 34.597274 L 68.232243 37.590277 L 68.437024 40.583279 L 68.641805 43.576282 L 68.846586 46.569285 L 69.051367 49.562287 L 69.256148 52.555290 L 69.460929 55.548293 L 69.665710 58.541295 L 69.870491 61.534298 L 70.075272 64.527300 L 70.280053 67.520303 L 70.484834 70.513306 L 70.689615 73.506308 L 70.894396 76.499311 L 71.099177 79.492314 L 71.303958 82.485316 L 71.508739 85.478319 L 71.713520 88.471321 L 71.918301 91.464324 L 72.123082 94.457327 L 72.327863 97.450329 L 72.417900 98.766269" fill="none" id="16" stroke="black" stroke-width="1.5" /><path d="M 61.302900 27.366269 L 61.620061 30.349454 L 61.924891 33.333925 L 62.217387 36.319630 L 62.497543 39.306518 L 62.765354 42.294538 L 63.020815 45.283639 L 63.263923 48.273771 L 63.494672 51.264881 L 63.713060 54.256920 L 63.919082 57.249835 L 64.112735 60.243576 L 64.294016 63.238092 L 64.462921 66.233331 L 64.619447 69.229243 L 64.763593 72.225776 L 64.895355 75.222879 L 65.014731 78.220501 L 65.121719 81.218590 L 65.216317 84.217096 L 65.298525 87.215967 L 65.368339 90.215153 L 65.425760 93.214601 L 65.470786 96.214261 L 65.503416 99.214081 L 65.517900 101.151269" fill="none" id="17" stroke="black" stroke-width="1.5" /><path d="M 52.557900 34.701269 L 52.852410 37.685503 L 53.157364 40.668602 L 53.472760 43.650566 L 53.798599 46.631394 L 54.134882 49.611088 L 54.481607 52.589647 L 54.838774 55.567070 L 55.206385 58.543358 L 55.584439 61.518512 L 55.972935 64.492530 L 56.371874 67.465413 L 56.781257 70.437161 L 57.201082 73.407774 L 57.631350 76.377251 L 58.072060 79.345594 L 58.523214 82.312802 L 58.984811 85.278874 L 59.456850 88.243812 L 59.939332 91.207614 L 60.387900 93.906269" fill="none" id="18" stroke="black" stroke-width="1.5" /><path d="M 48.927900 33.471269 L 49.068712 36.467766 L 49.220028 39.463569 L 49.381849 42.458678 L 49.554175 45.453092 L 49.737004 48.446811 L 49.930338 51.439836 L 50.134176 54.432166 L 50.348519 57.423802 L 50.573366 60.414744 L 50.808717 63.404991 L 51.054573 66.394543 L 51.310932 69.383401 L 51.577797 72.371564 L 51.855165 75.359033 L 52.143038 78.345808 L 52.441416 81.331888 L 52.750297 84.317273 L 53.069683 87.301964 L 53.262900 89.061269" fill="none" id="19" stroke="black" stroke-width="1.5" /><path d="M 43.152900 45.561269 L 43.363868 48.553833 L 43.599843 51.544529 L 43.860808 54.533148 L 44.146744 57.519482 L 44.457633 60.503321 L 44.793451 63.484457 L 45.154176 66.462682 L 45.539782 69.437788 L 45.950243 72.409567 L 46.385530 75.377811 L 46.845612 78.342313 L 47.330457 81.302866 L 47.840031 84.259263 L 48.374299 87.211297 L 48.747900 89.196269" fill="none" id="20" stroke="black" stroke-width="1.5" /><path d="M 39.792900 54.051269 L 39.490974 57.035773 L 39.326096 60.030976 L 39.298612 63.030588 L 39.408579 66.028309 L 39.655767 69.017844 L 40.039656 71.992916 L 40.559441 74.947277 L 41.214029 77.874723 L 42.002047 80.769106 L 42.921839 83.624348 L 43.971473 86.434454 L 44.742900 88.281269" fill="none" id="21" stroke="black" stroke-width="1.5" /><path d="M 87.972900 277.866269 L 90.961037 277.798442 L 93.837338 278.611128 L 96.348155 280.232660 L 96.402900 280.281269" fill="none" id="24" stroke="black" stroke-width="1.5" /><path d="M 86.742900 283.866269 L 89.725826 284.065454 L 92.528264 285.106543 L 94.917749 286.903177 L 96.696068 289.306322 L 97.482900 291.201269" fill="none" id="25" stroke="black" stroke-width="1.5" /><path d="M 79.512900 288.366269 L 82.415790 289.084146 L 85.009974 290.571535 L 87.096017 292.714090 L 88.513550 295.347096 L 89.153594 298.268133 L 89.157900 298.326269" fill="none" id="26" stroke="black" stroke-width="1.5" /><path d="M 74.727900 290.901269 L 77.468391 292.111409 L 79.941795 293.801677 L 82.064919 295.915222 L 83.766354 298.380958 L 84.372900 299.571269" fill="none" id="27" stroke="black" stroke-width="1.5" /><path d="M 71.052900 292.131269 L 73.914424 293.010577 L 76.505009 294.510700 L 78.692020 296.554834 L 80.363485 299.038321 L 80.652900 299.631269" fill="none" id="28" stroke="black" stroke-width="1.5" /><path d="M 162.087900 130.461269 L 162.454214 133.430955 L 162.074428 136.398949 L 160.972156 139.180714 L 160.122900 140.511269" fill="none" id="30" stroke="black" stroke-width="1.5" /><path d="M 114.432900 180.036269 L 117.226440 181.083836 L 120.209903 181.069310 L 122.993109 179.994590 L 125.212070 178.000228 L 125.577900 177.486269" fill="none" id="34" stroke="black" stroke-width="1.5" /><path d="M 122.007900 175.311269 L 119.317320 176.633359 L 116.477119 177.592732 L 113.535948 178.172953 L 112.137900 178.311269" fill="none" id="35" stroke="black" stroke-width="1.5" /><path d="M 137.652900 126.546269 L 139.789398 125.361066 L 141.572411 127.622168 L 141.209648 130.581056 L 141.025717 133.663370 L 142.847222 135.712706 L 143.082900 135.741269" fill="none" id="36" stroke="black" stroke-width="1.5" /><path d="M 141.102900 137.661269 L 138.864385 135.698832 L 137.648026 132.981741 L 137.675394 130.004938 L 138.642900 127.731269" fill="none" id="37" stroke="black" stroke-width="1.5" /><path d="M 188.367900 158.076269 L 190.643472 156.176743 L 193.570095 155.706311 L 196.326323 156.797015 L 195.030654 159.037539 L 192.474438 160.576284 L 189.565297 159.924721 L 188.727900 157.461269" fill="none" id="38" stroke="black" stroke-width="1.5" /><path d="M 183.522900 179.901269 L 186.239151 181.159063 L 188.595378 183.005212 L 190.466465 185.341684 L 188.577069 186.528451 L 185.718981 185.758947 L 183.495867 183.718567 L 182.619308 180.935879 L 182.757900 179.901269" fill="none" id="39" stroke="black" stroke-width="1.5" /><path d="M 133.692900 191.496269 L 131.134910 193.056998 L 128.871285 195.020461 L 126.964757 197.332243 L 127.749890 198.586406 L 130.580748 197.670759 L 132.740876 195.624782 L 133.808717 192.847753 L 133.782900 190.746269" fill="none" id="40" stroke="black" stroke-width="1.5" /><path d="M 156.747900 196.701269 L 155.889152 199.568550 L 155.720863 202.556932 L 156.252262 205.502499 L 157.454202 208.243682 L 158.853352 208.237340 L 159.504063 205.314328 L 159.535487 202.319926 L 158.946264 199.383901 L 157.761927 196.633488 L 157.557900 196.281269" fill="none" id="41" stroke="black" stroke-width="1.5" /><path d="M 131.112900 151.626269 L 133.361662 149.643657 L 135.845453 147.964831 L 138.523505 146.617345 L 141.351860 145.623319 L 144.284093 144.999068 L 147.272074 144.754839 L 150.266759 144.894640 L 153.218992 145.416176 L 155.652900 146.151269" fill="none" id="42" stroke="black" stroke-width="1.5" /><path d="M 173.847900 159.261269 L 174.546236 160.314030 L 174.873606 163.294698 L 174.883308 166.293274 L 174.575232 169.275997 L 173.952848 172.209287 L 173.023163 175.060118 L 171.796643 177.796393 L 170.287098 180.387305 L 168.511524 182.803684 L 166.489910 185.018324 L 164.245019 187.006291 L 162.807900 188.076269" fill="none" id="43" stroke="black" stroke-width="1.5" /><path d="M 127.467900 160.371269 L 126.910513 163.316975 L 126.731392 166.309597 L 126.933433 169.300758 L 127.513371 172.242108 L 128.461830 175.086100 L 129.763479 177.786762 L 131.397277 180.300439 L 133.336814 182.586497 L 135.550739 184.607983 L 138.003262 186.332220 L 140.654741 187.731337 L 143.462315 188.782716 L 146.380599 189.469363 L 149.362420 189.780178 L 152.359579 189.710137 L 155.323627 189.260371 L 155.652900 189.186269" fill="none" id="44" stroke="black" stroke-width="1.5" /><path d="M 133.482900 261.366269 L 135.770553 263.305824 L 138.205497 265.056902 L 140.772243 266.608365 L 143.454466 267.950345 L 146.235103 269.074305 L 149.096467 269.973096 L 152.020357 270.641000 L 154.988174 271.073769 L 157.981040 271.268650 L 160.979918 271.224404 L 163.965732 270.941312 L 166.919490 270.421175 L 169.822403 269.667301 L 172.656005 268.684486 L 174.852900 267.741269" fill="none" id="45" stroke="black" stroke-width="1.5" /><path d="M 134.982900 252.606269 L 137.472764 254.277926 L 140.103456 255.717831 L 142.853464 256.914209 L 145.700302 257.857278 L 148.620692 258.539327 L 151.590753 258.954778 L 154.586201 259.100234 L 157.582541 258.974507 L 160.555274 258.578624 L 163.480092 257.915821 L 166.333078 256.991520 L 168.927900 255.891269" fill="none" id="46" stroke="black" stroke-width="1.5" /><path d="M 170.232900 267.456269 L 167.234589 267.556935 L 164.236279 267.657602 L 161.237968 267.758268 L 158.239657 267.858935 L 155.241347 267.959601 L 152.243036 268.060267 L 149.244726 268.160934 L 146.246415 268.261600 L 143.248105 268.362267 L 141.192900 268.431269" fill="none" id="47" stroke="black" stroke-width="1.5" /><path d="M 170.217900 255.006269 L 167.219090 255.089706 L 164.221927 255.219448 L 161.227125 255.395465 L 158.235398 255.617715 L 155.247462 255.886144 L 152.264027 256.200688 L 149.285806 256.561273 L 146.313509 256.967812 L 143.347846 257.420209 L 140.389524 257.918355 L 137.547900 258.441269" fill="none" id="48" stroke="black" stroke-width="1.5" /><path d="M 222.222900 252.531269 L 225.222603 252.540556 L 228.219360 252.407316 L 231.206403 252.131847 L 234.176984 251.714774 L 237.124396 251.157038 L 240.041981 250.459898 L 242.923150 249.624929 L 245.761395 248.654016 L 248.550306 247.549354 L 251.283585 246.313435 L 253.955057 244.949053 L 256.558691 243.459288 L 259.088604 241.847506 L 259.722900 241.416269" fill="none" id="50" stroke="black" stroke-width="1.5" /><path d="M 218.652900 239.241269 L 221.651305 239.149264 L 224.643976 238.942341 L 227.626510 238.620805 L 230.594520 238.185128 L 233.543639 237.635953 L 236.469528 236.974086 L 239.367883 236.200501 L 242.234440 235.316337 L 245.064982 234.322893 L 247.855345 233.221633 L 250.601422 232.014175 L 253.299175 230.702297 L 255.944635 229.287928 L 258.372900 227.871269" fill="none" id="51" stroke="black" stroke-width="1.5" /><path d="M 187.302900 259.176269 L 190.207707 259.922846 L 193.162544 260.436868 L 196.148824 260.715101 L 199.147761 260.755795 L 202.140491 260.558694 L 205.108187 260.125037 L 208.032182 259.457554 L 210.894082 258.560442 L 213.675884 257.439346 L 216.222900 256.176269" fill="none" id="52" stroke="black" stroke-width="1.5" /><path d="M 186.867900 250.176269 L 185.272831 247.635451 L 187.980376 247.633728 L 190.979711 247.686782 L 193.978797 247.621109 L 196.972934 247.436814 L 199.957434 247.134185 L 202.927622 246.713696 L 205.878844 246.176006 L 208.806479 245.521956 L 210.147900 245.181269" fill="none" id="53" stroke="black" stroke-width="1.5" /><path d="M 213.762900 275.376269 L 216.605399 274.416999 L 219.447898 273.457729 L 221.007900 272.931269" fill="none" id="54" stroke="black" stroke-width="1.5" /><path d="M 208.872900 240.876269 L 211.795138 240.242367 L 214.428229 238.825280 L 216.224951 237.663584 L 216.188912 240.663309 L 216.218138 243.663107 L 216.312614 246.661560 L 216.472296 249.657248 L 216.697109 252.648753 L 216.986945 255.634660 L 217.341668 258.613555 L 217.761110 261.584029 L 218.245072 264.544675 L 218.793326 267.494093 L 219.405611 270.430885 L 220.081638 273.353664 L 220.257900 274.071269" fill="none" id="55" stroke="black" stroke-width="1.5" /><path d="M 205.827900 239.886269 L 208.457444 239.922974 L 208.013482 237.330919 L 207.606355 239.516409 L 207.804806 242.509838 L 208.003257 245.503267 L 208.201708 248.496696 L 208.400159 251.490125 L 208.598610 254.483554 L 208.797061 257.476983 L 208.995512 260.470412 L 209.193963 263.463841 L 209.392414 266.457270 L 208.689572 269.240807 L 208.197900 268.056269" fill="none" id="56" stroke="black" stroke-width="1.5" /><path d="M 179.877900 283.341269 L 182.836840 282.925052 L 185.528910 281.628395 L 187.137900 280.236269" fill="none" id="58" stroke="black" stroke-width="1.5" /><path d="M 175.152900 245.196269 L 176.777823 242.685182 L 179.011311 240.695844 L 181.692936 239.371147 L 182.190291 241.598895 L 182.143835 244.598502 L 182.146429 247.598467 L 182.198072 250.597989 L 182.298750 253.596266 L 182.448435 256.592496 L 182.647088 259.585878 L 182.894656 262.575612 L 183.191072 265.560899 L 183.536258 268.540940 L 183.930120 271.514940 L 184.372555 274.482102 L 184.863443 277.441634 L 185.402653 280.392744 L 185.990041 283.334644 L 186.342900 284.991269" fill="none" id="59" stroke="black" stroke-width="1.5" /><path d="M 174.567900 249.156269 L 173.628100 247.813604 L 172.983582 250.619402 L 173.302619 253.602390 L 173.621655 256.585377 L 173.940691 259.568365 L 174.259727 262.551353 L 174.578763 265.534341 L 174.897799 268.517328 L 175.216835 271.500316 L 175.535871 274.483304 L 175.854908 277.466292 L 176.425006 276.827846 L 177.102900 274.116269" fill="none" id="60" stroke="black" stroke-width="1.5" /><path d="M 236.742900 255.576269 L 237.876591 258.353812 L 239.010282 261.131355 L 240.143973 263.908898 L 241.337317 266.605058 L 244.089269 265.652255 L 245.873166 263.240892 L 246.196624 260.301853 L 245.457900 258.636269" fill="none" id="61" stroke="black" stroke-width="1.5" /><path d="M 258.282900 255.831269 L 256.250999 258.037111 L 254.035662 260.058655 L 251.653542 261.880705 L 249.163219 263.419676 L 249.047407 260.422916 L 248.664011 257.448527 L 248.016104 254.520353 L 247.108882 251.661868 L 246.432900 249.966269" fill="none" id="62" stroke="black" stroke-width="1.5" /><path d="M 230.217900 250.221269 L 231.537829 252.914085 L 232.601066 255.718188 L 233.398357 258.609173 L 233.922763 261.561879 L 234.169718 264.550605 L 234.137075 267.549338 L 233.825116 270.531980 L 233.236558 273.472570 L 232.376523 276.345514 L 231.252496 279.125808 L 229.874260 281.789252 L 229.511385 283.450068 L 232.403877 282.655317 L 235.253197 281.717492 L 238.052272 280.638921 L 240.794155 279.422280 L 243.472041 278.070589 L 246.079282 276.587204 L 248.609407 274.975806 L 251.056137 273.240396 L 253.413399 271.385279 L 255.675340 269.415061 L 257.750028 267.022712 L 258.589113 264.119016 L 257.532900 262.521269" fill="none" id="63" stroke="black" stroke-width="1.5" /><path d="M 233.097900 214.551269 L 236.097164 214.530977 L 239.086942 214.291770 L 242.051278 213.834925 L 244.974351 213.162880 L 247.840558 212.279221 L 248.652900 211.986269" fill="none" id="64" stroke="black" stroke-width="1.5" /><path d="M 233.112900 202.446269 L 236.110838 202.349124 L 239.096855 202.064920 L 242.059291 201.594767 L 244.986577 200.940499 L 247.867283 200.104673 L 250.690159 199.090551 L 251.112900 198.921269" fill="none" id="65" stroke="black" stroke-width="1.5" /><path d="M 233.127900 187.146269 L 236.070108 186.560259 L 239.012317 185.974249 L 241.954526 185.388238 L 244.896735 184.802228 L 247.838943 184.216218 L 250.781152 183.630208 L 251.277900 183.531269" fill="none" id="66" stroke="black" stroke-width="1.5" /><path d="M 230.652900 176.721269 L 233.641803 176.971857 L 236.640909 177.013062 L 239.635568 176.844683 L 242.611152 176.467541 L 245.553126 175.883481 L 248.447118 175.095353 L 249.927900 174.606269" fill="none" id="67" stroke="black" stroke-width="1.5" /><path d="M 244.152900 151.476269 L 244.503187 154.455748 L 244.853475 157.435228 L 245.203762 160.414708 L 245.554049 163.394187 L 245.904337 166.373667 L 246.254624 169.353147 L 246.604912 172.332626 L 246.955501 175.304466 L 247.304382 178.275681 L 247.648291 181.251197 L 247.984186 184.230658 L 248.309024 187.213705 L 248.619763 190.199981 L 248.913361 193.189126 L 249.186776 196.180785 L 249.436966 199.174598 L 249.660889 202.170208 L 249.855504 205.167257 L 250.017767 208.165386 L 250.144636 211.164239 L 250.233071 214.163457 L 250.280028 217.162683 L 250.282466 220.161558 L 250.237343 223.159724 L 250.141616 226.156824 L 251.248025 227.563472 L 253.345638 225.871245 L 254.625328 223.209256 L 255.241203 220.062831 L 255.350344 216.920073 L 255.282556 213.920852 L 255.184247 210.922477 L 255.055428 207.925257 L 254.896111 204.929503 L 254.706313 201.935526 L 254.486054 198.943635 L 254.235357 195.954141 L 253.954247 192.967354 L 253.642755 189.983582 L 253.300911 187.003135 L 252.928752 184.026321 L 252.526315 181.053449 L 252.093644 178.084827 L 251.630781 175.120762 L 251.137777 172.161562 L 250.614680 169.207532 L 250.061547 166.258979 L 249.478433 163.316208 L 248.865400 160.379524 L 248.222511 157.449231 L 247.549832 154.525633 L 246.847433 151.609032 L 245.280677 149.613718 L 243.776607 151.877519 L 244.062900 152.301269" fill="none" id="68" stroke="black" stroke-width="1.5" /><path d="M 227.067900 156.846269 L 227.295938 153.854948 L 228.753882 155.716152 L 231.032992 157.648160 L 233.795693 158.785911 L 236.774379 159.019198 L 239.680523 158.325423 L 242.232623 156.771788 L 244.183473 154.508785 L 245.172900 152.361269" fill="none" id="69" stroke="black" stroke-width="1.5" /><path d="M 225.702900 155.451269 L 227.836879 156.876808 L 228.412790 159.985750 L 228.591679 162.980858 L 228.770702 165.975921 L 228.949860 168.970939 L 229.129153 171.965912 L 229.308581 174.960840 L 229.488144 177.955723 L 229.667841 180.950561 L 229.847673 183.945355 L 230.027640 186.940103 L 230.207741 189.934807 L 230.387978 192.929465 L 230.568349 195.924079 L 230.748855 198.918647 L 230.929496 201.913171 L 231.110271 204.907650 L 231.291181 207.902084 L 231.472226 210.896473 L 231.653406 213.890817 L 231.834721 216.885116 L 232.016170 219.879370 L 232.197754 222.873580 L 232.379473 225.867744 L 232.561327 228.861864 L 232.743315 231.855938 L 232.925438 234.849968 L 231.644885 236.612241 L 229.044327 235.284266 L 228.177900 233.076269" fill="none" id="70" stroke="black" stroke-width="1.5" /><path d="M 223.512900 155.601269 L 223.596510 158.600772 L 223.677558 161.600276 L 223.756044 164.599779 L 223.831967 167.599283 L 223.905329 170.598786 L 223.976127 173.598290 L 224.044364 176.597794 L 224.110038 179.597297 L 224.173149 182.596801 L 224.233699 185.596304 L 224.291686 188.595808 L 224.347110 191.595311 L 224.399973 194.594815 L 224.450273 197.594318 L 224.498010 200.593822 L 224.543186 203.593325 L 224.585799 206.592829 L 224.625849 209.592332 L 224.663338 212.591836 L 224.698264 215.591339 L 224.730627 218.590843 L 224.760429 221.590346 L 224.787667 224.589850 L 224.812344 227.589353 L 224.834458 230.588857 L 224.854010 233.588360 L 225.385237 233.711004 L 225.713418 230.742962 L 225.052408 227.830911 L 224.652900 226.986269" fill="none" id="71" stroke="black" stroke-width="1.5" /><path d="M 173.877900 246.501269 L 176.544400 245.168630 L 179.087168 243.677826 L 181.511265 242.037818 L 183.821751 240.257570 L 186.023685 238.346046 L 188.122127 236.312208 L 190.122138 234.165019 L 192.028778 231.913444 L 193.847106 229.566444 L 195.582183 227.132984 L 197.239069 224.622027 L 198.822823 222.042535 L 200.338506 219.403472 L 201.791178 216.713801 L 203.185898 213.982486 L 204.527728 211.218489 L 205.821726 208.430774 L 207.072953 205.628303 L 208.286469 202.820041 L 209.467333 200.014950 L 210.620607 197.221994 L 211.756962 194.433873 L 212.882183 191.616215 L 213.979735 188.770688 L 215.032452 185.900796 L 216.023167 183.010042 L 216.934715 180.101932 L 217.749927 177.179971 L 218.451638 174.247661 L 219.022681 171.308509 L 219.445890 168.366017 L 219.704097 165.423692 L 219.780137 162.485036 L 219.656842 159.553555 L 219.317047 156.632753 L 218.743584 153.726134 L 219.945692 152.200970 L 222.916322 151.785527 L 225.299407 151.852497 L 225.104049 154.846073 L 224.844992 157.834810 L 224.522355 160.817353 L 224.136284 163.792351 L 223.686952 166.758453 L 223.174566 169.714315 L 222.599356 172.658596 L 221.961583 175.589962 L 221.261537 178.507083 L 220.499535 181.408637 L 219.675923 184.293307 L 218.791075 187.159786 L 217.845390 190.006774 L 216.839299 192.832980 L 215.773257 195.637122 L 214.647747 198.417930 L 213.463281 201.174141 L 212.220395 203.904506 L 210.919653 206.607787 L 209.561645 209.282759 L 208.146986 211.928208 L 206.676318 214.542935 L 205.150308 217.125753 L 203.569647 219.675493 L 201.935053 222.190997 L 200.247267 224.671126 L 198.507054 227.114754 L 196.715203 229.520773 L 194.872526 231.888093 L 192.979860 234.215640 L 191.038062 236.502358 L 189.048012 238.747211 L 187.010615 240.949181 L 185.531957 242.539740 L 187.801362 240.577650 L 189.537900 239.076269" fill="none" id="72" stroke="black" stroke-width="1.5" /><path d="M 249.852900 114.741269 L 249.599845 113.004476 L 251.938726 111.208470 L 254.764589 111.342790 L 255.866645 114.107675 L 255.475301 116.838051 L 252.652664 117.826187 L 250.203294 119.542077 L 248.310395 121.857379 L 247.115547 124.598917 L 246.708121 127.561634 L 247.186488 130.409186 L 249.924236 129.219395 L 252.097415 127.172895 L 253.449294 124.511450 L 253.820169 121.549472 L 255.343943 121.855623 L 258.129586 122.929065 L 259.722900 123.096269" fill="none" id="73" stroke="black" stroke-width="1.5" /><path d="M 237.987900 125.361269 L 236.482745 122.766175 L 238.028273 124.145743 L 239.266438 126.857882 L 239.392121 129.836632 L 239.423255 131.365407 L 240.417070 128.641898 L 240.087290 125.588379 L 239.615842 122.604747 L 240.511159 119.812283 L 243.288501 118.856774 L 244.392900 119.721269" fill="none" id="74" stroke="black" stroke-width="1.5" /><path d="M 229.362900 132.576269 L 231.383469 130.370547 L 233.909366 128.768127 L 236.757900 127.881269" fill="none" id="75" stroke="black" stroke-width="1.5" /><path d="M 237.837900 111.996269 L 235.781093 114.175427 L 233.391273 115.983173 L 230.734670 117.369408 L 227.884908 118.295714 L 227.411967 120.559363 L 227.854233 123.526350 L 228.168601 126.509602 L 228.354488 129.503606 L 228.411552 132.502832 L 228.339687 135.501740 L 228.973314 137.754591 L 229.497900 136.281269" fill="none" id="76" stroke="black" stroke-width="1.5" /><path d="M 205.872900 142.776269 L 204.810659 139.998564 L 205.085082 137.037366 L 206.639684 134.502172 L 209.154486 132.914793 L 212.111872 132.601956 L 213.747478 134.424607 L 213.648222 137.418832 L 213.009191 140.345754 L 211.851453 143.108882 L 211.002900 144.531269" fill="none" id="77" stroke="black" stroke-width="1.5" /><path d="M 202.797900 136.386269 L 200.504880 134.451828 L 199.904984 132.336501 L 201.737577 129.961296 L 203.610808 132.033100 L 204.762761 134.791720 L 205.076960 137.764642 L 204.527115 140.703120 L 204.031745 142.266958 L 206.097994 140.091959 L 206.397900 139.776269" fill="none" id="78" stroke="black" stroke-width="1.5" /><path d="M 188.652900 138.546269 L 189.263777 136.025967 L 192.182686 135.196158 L 194.335482 137.062001 L 195.013238 139.976099 L 194.285071 141.712750 L 191.438274 141.432200 L 189.080980 143.265355 L 188.231080 146.126917 L 188.400292 149.107225 L 191.030827 149.383869 L 193.630752 147.944013 L 195.286977 145.476278 L 195.441835 143.409946 L 195.889248 146.179762 L 198.379495 147.897628 L 200.847900 147.276269" fill="none" id="79" stroke="black" stroke-width="1.5" /><path d="M 179.982900 130.251269 L 177.496566 131.487892 L 178.898625 131.333181 L 179.622999 128.629566 L 177.678472 126.446939 L 174.809869 125.681974 L 171.925689 126.385935 L 169.732081 128.386469 L 168.766115 131.193775 L 169.264294 134.120526 L 171.148459 136.359631 L 173.667747 137.996574 L 176.226508 139.628412 L 178.255086 141.815258 L 179.307079 144.604424 L 179.217807 147.584050 L 177.948253 150.276518 L 175.451521 151.930146 L 172.476189 152.252733 L 169.816392 151.089864 L 168.426208 148.479424 L 168.879241 145.491106 L 170.799576 143.312060 L 172.608771 144.152437 L 171.900269 147.025485 L 173.661346 145.741030 L 174.927900 144.696269" fill="none" id="80" stroke="black" stroke-width="1.5" /><path d="M 92.922900 210.081269 L 92.742691 213.075797 L 92.624903 216.073430 L 92.569587 219.072865 L 92.576766 222.072802 L 92.646438 225.071939 L 92.778573 228.068973 L 92.973112 231.062605 L 93.229972 234.051534 L 93.549041 237.034464 L 93.657900 237.936269" fill="none" id="81" stroke="black" stroke-width="1.5" /><path d="M 91.437900 185.916269 L 91.995496 188.863770 L 92.428818 191.832087 L 92.737101 194.815984 L 92.919802 197.810194 L 92.976598 200.809436 L 92.907389 203.808417 L 92.742900 206.436269" fill="none" id="82" stroke="black" stroke-width="1.5" /><path d="M 108.252900 273.021269 L 108.467569 276.011548 L 108.300843 279.004883 L 107.755421 281.952825 L 106.840131 284.807663 L 105.569787 287.523188 L 103.964950 290.055449 L 102.051594 292.363462 L 101.652900 292.776269" fill="none" id="83" stroke="black" stroke-width="1.5" /><path d="M 86.052900 270.561269 L 85.437685 267.589725 L 85.111785 264.586868 L 85.334705 261.640628 L 86.423867 258.863560 L 88.605674 256.711064 L 91.378336 255.714402 L 93.957900 256.251269" fill="none" id="84" stroke="black" stroke-width="1.5" /><path d="M 79.002900 289.641269 L 81.211477 287.615629 L 83.071218 285.265652 L 84.535142 282.650704 L 85.566266 279.836843 L 86.138542 276.895155 L 86.247900 275.391269" fill="none" id="85" stroke="black" stroke-width="1.5" /><path d="M 66.207900 307.971269 L 69.121312 308.683278 L 72.083366 309.153562 L 75.074040 309.378940 L 78.073121 309.357890 L 79.497900 309.261269" fill="none" id="86" stroke="black" stroke-width="1.5" /><path d="M 26.502900 215.886269 L 26.479809 218.897921 L 26.479270 221.910860 L 26.505861 224.923708 L 26.564156 227.935089 L 26.658731 230.943627 L 26.794163 233.947943 L 26.975027 236.946662 L 27.205899 239.938406 L 27.491355 242.921800 L 27.835971 245.895465 L 28.244322 248.858025 L 28.720985 251.808104 L 29.270535 254.744325 L 29.897548 257.665310 L 30.606601 260.569683 L 31.402268 263.456067 L 32.290942 266.323995 L 33.282463 269.168697 L 34.377685 271.981817 L 35.576628 274.755707 L 36.879312 277.482719 L 38.285759 280.155205 L 39.795987 282.765518 L 41.410018 285.306007 L 43.127872 287.769027 L 44.949568 290.146928 L 46.875128 292.432062 L 48.904571 294.616782 L 51.037919 296.693439 L 53.275190 298.654385 L 55.616406 300.491971 L 58.061586 302.198550 L 60.282900 303.576269" fill="none" id="87" stroke="black" stroke-width="1.5" /><path d="M 39.402900 173.676269 L 37.777388 176.197503 L 36.249268 178.778928 L 34.820764 181.416784 L 33.493958 184.107229 L 32.270782 186.846343 L 31.153017 189.630137 L 30.142293 192.454556 L 29.240081 195.315486 L 28.447695 198.208760 L 27.766290 201.130163 L 27.196858 204.075439 L 26.740228 207.040300 L 26.652900 207.711269" fill="none" id="88" stroke="black" stroke-width="1.5" /><path d="M 63.882900 152.391269 L 61.076583 153.448768 L 58.378676 154.758353 L 55.811765 156.309060 L 53.397344 158.087904 L 51.155625 160.079992 L 50.607900 160.626269" fill="none" id="89" stroke="black" stroke-width="1.5" /><path d="M 20.217900 129.021269 L 20.217900 132.021269 L 20.217900 135.021269 L 20.217900 138.021269 L 20.217900 141.021269 L 20.217900 144.021269 L 20.199431 146.602083 L 20.116040 143.604828 L 20.369994 140.617187 L 20.958075 137.677007 L 21.226821 136.069902 L 20.214701 138.871379 L 20.247900 141.111269" fill="none" id="90" stroke="black" stroke-width="1.5" /><path d="M 89.022900 129.231269 L 91.462132 130.977736 L 93.901364 132.724203 L 95.307900 133.731269" fill="none" id="91" stroke="black" stroke-width="1.5" /><path d="M 86.817900 125.121269 L 89.695007 125.969180 L 92.509558 127.006001 L 95.249166 128.227168 L 97.901770 129.627306 L 100.455696 131.200253 L 102.477900 132.621269" fill="none" id="92" stroke="black" stroke-width="1.5" /><path d="M 90.372900 124.611269 L 87.374617 124.509778 L 84.376334 124.408287 L 81.378051 124.306796 L 78.379769 124.205305 L 75.381486 124.103814 L 72.383203 124.002323 L 69.384920 123.900832 L 66.386638 123.799341 L 65.062292 123.629160 L 68.047769 123.335310 L 71.040247 123.124366 L 74.037424 122.996489 L 77.036995 122.951779 L 80.036652 122.990270 L 83.034088 123.111933 L 86.026997 123.316673 L 89.013077 123.604333 L 91.990031 123.974691 L 94.642934 124.439647 L 91.716983 125.013367 L 88.762015 125.343205 L 85.783589 125.479618 L 82.787266 125.473068 L 79.778606 125.374012 L 76.763170 125.232911 L 73.746518 125.100224 L 70.734209 125.026411 L 67.731680 125.063745 L 64.737300 125.242752 L 61.754563 125.561568 L 58.789995 126.019495 L 55.850080 126.615531 L 52.941249 127.348374 L 50.069863 128.216419 L 47.242203 129.217768 L 44.464455 130.350231 L 41.742693 131.611330 L 39.082871 132.998309 L 36.490808 134.508132 L 33.972172 136.137497 L 31.532472 137.882841 L 29.177046 139.740346 L 28.827900 140.031269" fill="none" id="93" stroke="black" stroke-width="1.5" /><path d="M 70.902900 125.211269 L 73.608488 123.912481 L 76.511029 123.250805 L 79.500875 123.189066 L 82.468378 123.690088 L 85.303890 124.716695 L 87.897763 126.231713 L 90.140349 128.197964 L 91.921999 130.578273 L 92.892900 132.621269" fill="none" id="94" stroke="black" stroke-width="1.5" /><path d="M 82.947900 122.601269 L 85.890448 122.418140 L 88.351672 124.041253 L 89.097900 125.421269" fill="none" id="95" stroke="black" stroke-width="1.5" /><path d="M 86.922900 157.131269 L 89.531378 155.557814 L 92.305671 154.490889 L 95.272965 154.407211 L 97.941486 155.876129 L 99.188819 158.435123 L 99.102900 159.381269" fill="none" id="96" stroke="black" stroke-width="1.5" /><path d="M 48.492900 176.961269 L 50.166509 174.472764 L 52.062144 172.148932 L 54.163700 170.009519 L 56.453320 168.072701 L 58.911551 166.354934 L 61.517508 164.870813 L 64.249048 163.632947 L 67.082965 162.651854 L 69.867900 161.961269" fill="none" id="97" stroke="black" stroke-width="1.5" /><path d="M 57.207900 170.976269 L 59.535946 169.084510 L 61.944957 167.296995 L 64.430269 165.617182 L 66.987071 164.048325 L 69.610412 162.593461 L 72.295213 161.255406 L 75.036277 160.036752 L 77.828296 158.939857 L 80.665865 157.966846 L 83.543489 157.119602 L 86.455599 156.399765 L 87.807900 156.111269" fill="none" id="98" stroke="black" stroke-width="1.5" /><path d="M 49.617900 275.166269 L 48.808148 272.273791 L 48.003429 269.365178 L 47.208437 266.441863 L 46.427861 263.505279 L 45.666394 260.556862 L 44.928728 257.598045 L 44.219554 254.630261 L 43.543563 251.654945 L 42.905448 248.673530 L 42.309900 245.687451 L 41.761610 242.698141 L 41.265271 239.707034 L 40.825574 236.715564 L 40.447210 233.725166 L 40.134871 230.737272 L 39.893250 227.753317 L 39.727036 224.774734 L 39.640923 221.802958 L 39.639601 218.839423 L 39.727763 215.885562 L 39.910100 212.942809 L 40.191304 210.012598 L 40.576065 207.096364 L 41.069077 204.195539 L 41.675030 201.311558 L 42.398617 198.445854 L 43.244528 195.599863 L 44.217456 192.775017 L 45.343070 189.994354 L 46.535679 187.241664 L 47.789614 184.516362 L 49.104246 181.819814 L 50.478917 179.153374 L 51.237900 177.741269" fill="none" id="99" stroke="black" stroke-width="1.5" /><path d="M 79.452900 305.166269 L 82.444513 304.942102 L 85.436126 304.717934 L 88.427739 304.493767 L 90.462900 304.341269" fill="none" id="100" stroke="black" stroke-width="1.5" /><path d="M 51.522900 280.296269 L 52.716595 283.047728 L 54.121145 285.697760 L 55.728003 288.230237 L 57.527390 290.629746 L 59.508352 292.881684 L 61.658835 294.972343 L 63.965750 296.889001 L 66.415057 298.619993 L 68.991848 300.154782 L 71.680442 301.484029 L 74.464475 302.599643 L 77.022900 303.411269" fill="none" id="101" stroke="black" stroke-width="1.5" /><path d="M 95.652900 123.546269 L 97.923470 125.507065 L 100.114703 127.572061 L 102.209579 129.739712 L 104.191078 132.008468 L 106.042178 134.376784 L 107.745860 136.843111 L 109.285102 139.405903 L 110.642884 142.063611 L 111.802185 144.814689 L 112.745607 147.658712 L 113.442840 150.591799 L 113.878242 153.583500 L 114.045305 156.602343 L 113.937520 159.616856 L 113.548379 162.595569 L 112.871376 165.507010 L 111.900001 168.319708 L 110.627747 171.002191 L 109.048106 173.522988 L 107.150003 175.846355 L 104.937632 177.896169 L 102.463862 179.636826 L 99.783466 181.044907 L 96.951220 182.096993 L 94.021897 182.769667 L 91.050271 183.039508 L 88.091116 182.883100 L 85.199206 182.277022 L 82.429316 181.197857 L 79.853736 179.589675 L 77.648003 177.442612 L 76.024247 174.898594 L 75.194609 172.104062 L 75.371229 169.205456 L 75.432900 168.981269" fill="none" id="102" stroke="black" stroke-width="1.5" /><path d="M 95.517900 124.011269 L 92.613965 123.210977 L 89.684363 122.551868 L 86.733673 122.031725 L 83.766474 121.648331 L 80.787346 121.399470 L 77.800869 121.282925 L 74.811621 121.296479 L 71.824184 121.437916 L 68.843135 121.705020 L 65.873055 122.095572 L 62.918523 122.607358 L 59.984119 123.238160 L 57.074422 123.985761 L 54.194011 124.847945 L 51.347467 125.822496 L 48.539369 126.907196 L 45.774295 128.099829 L 43.056827 129.398178 L 40.391543 130.800028 L 37.783023 132.303160 L 35.235847 133.905359 L 32.754593 135.604407 L 30.343842 137.398089 L 28.008172 139.284187 L 25.752165 141.260485 L 23.580398 143.324766 L 21.497452 145.474814 L 19.507905 147.708412 L 17.616339 150.023343 L 15.827332 152.417390 L 14.145463 154.888338 L 12.575313 157.433969 L 11.121460 160.052067 L 9.788484 162.740415 L 8.580966 165.496796 L 7.507960 168.293111 L 6.545574 171.126100 L 5.686398 173.992578 L 4.923767 176.888535 L 4.251018 179.809958 L 3.661484 182.752836 L 3.148501 185.713159 L 2.705404 188.686915 L 2.325529 191.670093 L 2.002211 194.658682 L 1.728784 197.648670 L 1.489910 200.638559 L 1.280881 203.631251 L 1.106263 206.626149 L 0.966080 209.622855 L 0.860351 212.620975 L 0.789089 215.620112 L 0.752304 218.619870 L 0.750000 221.619852 L 0.782178 224.619663 L 0.848834 227.618906 L 0.949959 230.617185 L 1.085540 233.614103 L 1.255558 236.609265 L 1.459991 239.602275 L 1.698812 242.592737 L 1.972044 245.580613 L 2.291215 248.581824 L 2.666803 251.598948 L 3.101324 254.625970 L 3.597294 257.656873 L 4.157229 260.685637 L 4.783642 263.706248 L 5.479051 266.712687 L 6.245970 269.698938 L 7.086914 272.658983 L 8.004400 275.586805 L 9.000943 278.476388 L 10.079058 281.321713 L 11.241260 284.116764 L 12.490065 286.855523 L 13.827989 289.531974 L 15.257547 292.140100 L 16.781253 294.673882 L 18.401625 297.127304 L 20.121177 299.494350 L 21.942424 301.769001 L 23.867882 303.945241 L 25.900067 306.017052 L 28.041494 307.978417 L 30.294678 309.823320 L 32.662135 311.545743 L 35.146380 313.139668 L 37.749929 314.599080 L 40.446854 315.897699 L 43.203934 317.019377 L 46.014318 317.967974 L 48.871155 318.747325 L 51.767596 319.361262 L 54.696791 319.813619 L 57.651890 320.108231 L 60.626043 320.248932 L 63.612400 320.239555 L 66.604111 320.083935 L 69.594326 319.785904 L 72.576196 319.349298 L 75.542870 318.777950 L 78.487498 318.075694 L 81.403231 317.246364 L 84.283219 316.293793 L 87.120611 315.221816 L 89.908559 314.034267 L 92.640211 312.734979 L 95.308718 311.327787 L 97.907929 309.815499 L 100.448315 308.189661 L 102.925326 306.449629 L 105.326278 304.598102 L 107.638484 302.637775 L 109.849260 300.571346 L 111.945920 298.401512 L 113.915779 296.130969 L 115.746151 293.762414 L 117.424351 291.298545 L 118.937694 288.742058 L 120.273494 286.095650 L 121.419066 283.362018 L 122.361724 280.543859 L 123.084450 277.639097 L 123.532805 274.656477 L 123.698396 271.631336 L 123.586883 268.594195 L 123.203925 265.575572 L 122.555180 262.605987 L 121.646310 259.715961 L 120.482971 256.936013 L 119.070825 254.296663 L 117.415530 251.828429 L 115.522746 249.561833 L 113.398131 247.527393 L 111.047346 245.755630 L 108.476049 244.277063 L 105.678431 243.133606 L 102.732399 242.441194 L 99.715656 242.198707 L 96.681800 242.379714 L 93.684430 242.957787 L 90.777144 243.906494 L 88.013540 245.199406 L 85.447217 246.810092 L 83.131772 248.712123 L 81.120803 250.879068 L 79.467909 253.284498 L 78.226689 255.901983 L 77.450739 258.705091 L 77.193659 261.667394 L 77.454350 264.672562 L 78.004268 267.668625 L 78.600776 270.652676 L 79.003377 273.615031 L 78.971577 276.546007 L 78.265690 279.422442 L 76.800801 281.960985 L 74.718001 284.026858 L 72.170361 285.580909 L 69.310954 286.583989 L 66.292853 286.996947 L 63.269128 286.780633 L 60.399291 285.958895 L 57.736553 284.671408 L 55.289482 282.985589 L 53.069438 280.966444 L 51.087781 278.678979 L 49.355872 276.188200 L 48.177900 274.131269" fill="none" id="103" stroke="black" stroke-width="1.5" /><path d="M 264.867900 275.466269 L 265.060287 278.461501 L 264.876137 281.434412 L 264.343076 284.362677 L 263.488729 287.223976 L 262.340721 289.995986 L 260.926677 292.656384 L 259.274224 295.182848 L 257.410987 297.553057 L 255.364590 299.744687 L 253.168467 301.765233 L 250.849199 303.642405 L 248.421481 305.386202 L 245.900008 307.006624 L 243.299472 308.513675 L 240.634567 309.917353 L 237.919985 311.227662 L 235.170421 312.454602 L 232.400566 313.608174 L 229.613491 314.718100 L 226.810598 315.787507 L 223.992487 316.816143 L 221.159751 317.803792 L 218.312987 318.750245 L 215.452793 319.655304 L 212.579771 320.518778 L 209.694525 321.340485 L 206.797664 322.120252 L 203.889797 322.857916 L 200.971535 323.553321 L 198.043492 324.206321 L 195.106285 324.816778 L 192.160532 325.384565 L 189.206853 325.909560 L 186.245868 326.391655 L 183.278203 326.830747 L 180.304480 327.226744 L 177.325325 327.579563 L 174.341366 327.889129 L 171.353231 328.155378 L 168.361548 328.378253 L 165.366946 328.557708 L 162.370057 328.693704 L 159.371509 328.786214 L 156.371936 328.835217 L 153.371967 328.840703 L 150.372235 328.802671 L 147.373369 328.721130 L 144.376002 328.596096 L 141.380765 328.427596 L 138.388286 328.215664 L 135.399197 327.960347 L 132.414126 327.661696 L 129.433701 327.319776 L 126.458549 326.934658 L 123.489297 326.506424 L 120.526570 326.035163 L 117.570990 325.520974 L 114.623180 324.963966 L 111.683760 324.364256 L 108.753348 323.721970 L 105.832562 323.037243 L 102.922016 322.310220 L 100.022322 321.541053 L 97.134091 320.729904 L 94.257930 319.876945 L 91.394444 318.982353 L 89.502900 318.366269" fill="none" id="104" stroke="black" stroke-width="1.5" /><path d="M 95.187900 312.861269 L 97.709174 314.468562 L 100.273426 315.970570 L 102.878801 317.369575 L 105.523446 318.667857 L 108.205507 319.867698 L 110.923129 320.971380 L 113.674460 321.981186 L 116.457645 322.899395 L 119.270831 323.728291 L 122.112163 324.470155 L 124.979787 325.127268 L 127.871851 325.701912 L 130.786499 326.196370 L 133.721879 326.612921 L 136.676135 326.953849 L 139.647415 327.221435 L 142.633865 327.417960 L 145.633630 327.545706 L 148.644858 327.606955 L 151.665693 327.603989 L 154.694282 327.539088 L 157.728771 327.414536 L 160.767307 327.232613 L 163.808036 326.995601 L 166.849103 326.705782 L 169.888655 326.365438 L 172.924838 325.976850 L 175.955798 325.542300 L 178.979681 325.064069 L 181.994633 324.544440 L 184.998802 323.985693 L 187.990331 323.390111 L 190.967369 322.759975 L 193.928061 322.097567 L 196.870552 321.405169 L 199.792990 320.685061 L 202.711217 319.930462 L 205.639526 319.133415 L 208.571979 318.291164 L 211.502634 317.400939 L 214.425545 316.459972 L 217.334772 315.465492 L 220.224369 314.414729 L 223.088394 313.304914 L 225.920903 312.133277 L 228.715954 310.897048 L 231.467603 309.593458 L 234.169906 308.219736 L 236.816921 306.773114 L 239.402704 305.250821 L 241.921312 303.650088 L 244.366801 301.968144 L 246.733229 300.202221 L 249.014652 298.349549 L 251.205127 296.407357 L 253.298710 294.372875 L 255.289459 292.243336 L 257.171429 290.015967 L 258.938678 287.688001 L 260.585263 285.256667 L 262.105240 282.719195 L 263.382900 280.296269" fill="none" id="105" stroke="black" stroke-width="1.5" /><path d="M 264.477900 277.521269 L 262.547446 279.817570 L 260.567955 282.071737 L 258.540346 284.282722 L 256.465561 286.449498 L 254.344564 288.571059 L 252.178340 290.646421 L 249.967895 292.674618 L 247.714255 294.654708 L 245.418467 296.585773 L 243.081598 298.466915 L 240.704733 300.297261 L 238.288976 302.075960 L 235.835449 303.802186 L 233.345292 305.475137 L 230.819660 307.094037 L 228.259728 308.658134 L 225.666684 310.166701 L 223.041732 311.619037 L 220.386092 313.014468 L 217.700997 314.352345 L 214.987694 315.632049 L 212.247444 316.852983 L 209.481519 318.014581 L 206.691204 319.116303 L 203.877794 320.157638 L 201.042597 321.138102 L 198.186930 322.057240 L 195.312118 322.914625 L 192.419497 323.709858 L 189.510410 324.442570 L 186.586209 325.112421 L 183.648252 325.719100 L 180.697903 326.262325 L 177.736533 326.741843 L 174.765517 327.157433 L 171.786235 327.508900 L 168.800070 327.796082 L 165.808411 328.018845 L 162.812645 328.177087 L 159.814165 328.270732 L 156.814363 328.299739 L 153.814633 328.264092 L 150.816368 328.163810 L 147.820960 327.998938 L 144.829800 327.769553 L 141.844279 327.475762 L 138.865782 327.117701 L 135.895693 326.695536 L 132.935391 326.209464 L 129.986252 325.659710 L 127.049645 325.046530 L 124.126934 324.370208 L 121.219477 323.631058 L 118.328623 322.829424 L 115.455716 321.965678 L 112.602090 321.040222 L 109.769070 320.053485 L 106.957972 319.005925 L 104.170102 317.898029 L 101.406755 316.730311 L 98.669214 315.503315 L 95.958751 314.217609 L 93.867900 313.176269" fill="none" id="106" stroke="black" stroke-width="1.5" /><path d="M 93.837900 313.071269 L 95.972002 315.129949 L 98.418279 316.784804 L 101.101810 318.096992 L 103.947677 319.127672 L 106.880961 319.938001 L 109.826744 320.589139 L 112.773303 321.146125 L 115.732759 321.648814 L 118.699704 322.098426 L 121.673334 322.495199 L 124.652849 322.839369 L 127.637447 323.131176 L 130.626326 323.370857 L 133.618684 323.558649 L 136.613721 323.694792 L 139.610633 323.779523 L 142.608619 323.813079 L 145.606878 323.795699 L 148.604608 323.727621 L 151.601007 323.609083 L 154.595273 323.440322 L 157.586605 323.221576 L 160.574201 322.953083 L 163.557260 322.635082 L 166.534979 322.267810 L 169.506557 321.851506 L 172.471192 321.386406 L 175.428083 320.872749 L 178.376428 320.310773 L 181.315425 319.700716 L 184.244272 319.042815 L 187.162167 318.337309 L 190.068310 317.584436 L 192.961898 316.784433 L 195.842130 315.937539 L 198.708203 315.043991 L 201.559317 314.104027 L 204.394668 313.117885 L 207.213457 312.085804 L 210.014881 311.008020 L 212.798138 309.884772 L 215.562427 308.716299 L 218.306945 307.502837 L 221.030892 306.244625 L 223.733465 304.941900 L 226.413863 303.594901 L 229.071284 302.203865 L 231.704927 300.769031 L 234.313989 299.290636 L 236.897669 297.768919 L 239.455166 296.204116 L 241.985676 294.596467 L 244.488400 292.946209 L 246.962535 291.253579 L 249.407279 289.518817 L 251.821831 287.742159 L 254.205389 285.923844 L 256.557152 284.064110 L 258.876317 282.163194 L 261.162082 280.221335 L 263.413647 278.238770 L 265.630210 276.215737 L 267.810968 274.152475 L 267.972900 273.996269" fill="none" id="107" stroke="black" stroke-width="1.5" /><path d="M 266.937900 67.356269 L 266.888698 70.355865 L 266.839495 73.355462 L 266.790293 76.355058 L 266.741091 79.354655 L 266.691889 82.354251 L 266.642687 85.353848 L 266.593485 88.353444 L 266.544283 91.353041 L 266.495080 94.352637 L 266.445878 97.352234 L 266.396676 100.351830 L 266.347474 103.351427 L 266.298272 106.351023 L 266.249070 109.350620 L 266.199868 112.350216 L 266.150666 115.349813 L 266.101463 118.349409 L 266.052261 121.349006 L 266.003059 124.348602 L 265.953857 127.348199 L 265.904655 130.347795 L 265.855453 133.347392 L 265.806251 136.346988 L 265.757048 139.346585 L 265.707846 142.346181 L 265.658644 145.345778 L 265.609442 148.345374 L 265.560240 151.344971 L 265.511038 154.344567 L 265.461836 157.344164 L 265.412633 160.343760 L 265.363431 163.343357 L 265.314229 166.342953 L 265.265027 169.342550 L 265.215825 172.342146 L 265.166623 175.341743 L 265.117421 178.341339 L 265.068218 181.340936 L 265.019016 184.340532 L 264.969814 187.340129 L 264.920612 190.339725 L 264.871410 193.339322 L 264.822208 196.338918 L 264.773006 199.338515 L 264.723803 202.338111 L 264.674601 205.337708 L 264.625399 208.337304 L 264.576197 211.336901 L 264.526995 214.336497 L 264.477793 217.336094 L 264.428591 220.335690 L 264.379389 223.335287 L 264.330186 226.334883 L 264.280984 229.334480 L 264.231782 232.334076 L 264.182580 235.333673 L 264.133378 238.333269 L 264.084176 241.332866 L 264.034974 244.332462 L 263.985771 247.332059 L 263.936569 250.331655 L 263.887367 253.331252 L 263.838165 256.330848 L 263.788963 259.330445 L 263.739761 262.330041 L 263.690559 265.329638 L 263.641356 268.329234 L 263.592154 271.328831 L 263.542952 274.328427 L 263.112876 277.351182 L 260.808605 277.936499 L 261.132900 276.396269" fill="none" id="108" stroke="black" stroke-width="1.5" /><path d="M 261.762900 64.866269 L 261.739379 67.866084 L 261.717105 70.865900 L 261.696080 73.865715 L 261.676302 76.865531 L 261.657772 79.865346 L 261.640489 82.865162 L 261.624455 85.864977 L 261.609668 88.864793 L 261.596129 91.864608 L 261.583837 94.864424 L 261.572794 97.864239 L 261.562998 100.864055 L 261.554450 103.863870 L 261.547150 106.863686 L 261.541098 109.863501 L 261.536293 112.863317 L 261.532736 115.863132 L 261.530427 118.862948 L 261.529365 121.862763 L 261.529552 124.862579 L 261.530986 127.862394 L 261.533668 130.862210 L 261.537597 133.862025 L 261.542775 136.861841 L 261.549200 139.861656 L 261.556873 142.861472 L 261.565794 145.861287 L 261.575962 148.861103 L 261.587379 151.860918 L 261.600043 154.860734 L 261.613954 157.860549 L 261.629114 160.860365 L 261.645521 163.860180 L 261.663176 166.859996 L 261.682079 169.859811 L 261.702230 172.859627 L 261.723628 175.859442 L 261.746274 178.859258 L 261.770168 181.859073 L 261.795310 184.858889 L 261.821699 187.858704 L 261.849337 190.858520 L 261.878222 193.858335 L 261.908354 196.858151 L 261.939735 199.857966 L 261.972363 202.857782 L 262.006239 205.857597 L 262.041363 208.857413 L 262.077735 211.857228 L 262.115354 214.857044 L 262.154221 217.856859 L 262.194336 220.856675 L 262.235699 223.856490 L 262.278309 226.856306 L 262.322167 229.856121 L 262.367273 232.855937 L 262.413627 235.855752 L 262.461228 238.855568 L 262.510078 241.855383 L 262.560175 244.855198 L 262.611519 247.855014 L 262.664112 250.854829 L 262.717952 253.854645 L 262.773040 256.854460 L 262.829376 259.854276 L 262.886960 262.854091 L 262.945791 265.853907 L 263.005870 268.853722 L 263.067197 271.853538 L 263.129772 274.853353 L 263.193594 277.853169 L 263.258664 280.852984 L 262.800507 278.277916 L 262.306269 275.318908 L 262.107900 274.131269" fill="none" id="109" stroke="black" stroke-width="1.5" /><path d="M 263.532900 68.556269 L 263.305193 71.547610 L 263.095086 74.540239 L 262.902587 77.534053 L 262.727701 80.528947 L 262.570436 83.524817 L 262.430796 86.521561 L 262.308786 89.519075 L 262.204410 92.517254 L 262.117673 95.515996 L 262.048576 98.515196 L 261.997123 101.514750 L 261.963315 104.514555 L 261.947154 107.514507 L 261.948639 110.514503 L 261.967772 113.514437 L 262.004551 116.514208 L 262.058974 119.513710 L 262.131041 122.512840 L 262.220748 125.511494 L 262.257900 126.606269" fill="none" id="110" stroke="black" stroke-width="1.5" /><path d="M 20.877900 63.666269 L 20.710605 66.661593 L 20.566866 69.658140 L 20.446690 72.655724 L 20.350086 75.654160 L 20.277059 78.653264 L 20.227614 81.652849 L 20.201753 84.652729 L 20.199479 87.652721 L 20.220791 90.652637 L 20.265688 93.652294 L 20.334168 96.651504 L 20.426226 99.650084 L 20.541857 102.647847 L 20.681053 105.644608 L 20.843806 108.640182 L 21.030105 111.634384 L 21.239940 114.627029 L 21.473296 117.617932 L 21.730161 120.606907 L 22.010517 123.593771 L 22.314348 126.578338 L 22.641635 129.560424 L 22.857900 131.421269" fill="none" id="112" stroke="black" stroke-width="1.5" /><path d="M 15.957900 66.201269 L 16.340016 69.176821 L 16.692161 72.156069 L 17.014301 75.138710 L 17.306401 78.124443 L 17.568433 81.112965 L 17.800370 84.103973 L 18.002188 87.097165 L 18.173867 90.092236 L 18.315390 93.088883 L 18.426743 96.086803 L 18.507913 99.085692 L 18.558893 102.085246 L 18.579678 105.085161 L 18.570265 108.085134 L 18.530656 111.084860 L 18.460854 114.084035 L 18.360867 117.082356 L 18.230704 120.079518 L 18.137807 119.754929 L 18.092501 116.755271 L 18.047194 113.755613 L 18.001888 110.755955 L 17.956582 107.756297 L 17.911275 104.756640 L 17.865969 101.756982 L 17.820663 98.757324 L 17.802900 97.581269" fill="none" id="113" stroke="black" stroke-width="1.5" /><path d="M 28.467900 46.971269 L 25.846332 47.445335 L 23.877637 49.913830 L 22.635798 52.659159 L 21.532063 55.448483 L 20.551635 58.283499 L 19.696397 61.158761 L 18.967993 64.068741 L 18.367823 67.007849 L 17.897040 69.970436 L 17.556548 72.950809 L 17.347003 75.943241 L 17.268807 78.941981 L 17.322109 81.941268 L 17.506809 84.935336 L 17.822550 87.918433 L 18.268726 90.884825 L 18.844479 93.828813 L 18.897900 94.071269" fill="none" id="114" stroke="black" stroke-width="1.5" /><path d="M 239.652900 23.286269 L 241.764529 25.416773 L 243.764173 27.652718 L 245.646576 29.988225 L 247.406786 32.417152 L 249.040176 34.933114 L 250.542452 37.529495 L 251.909664 40.199468 L 253.138217 42.936015 L 254.224880 45.731939 L 255.166797 48.579889 L 255.961491 51.472377 L 256.606872 54.401799 L 257.101244 57.360451 L 257.443307 60.340556 L 257.632161 63.334276 L 257.667311 66.333741 L 257.548662 69.331065 L 257.276528 72.318367 L 256.851624 75.287792 L 256.275068 78.231533 L 255.927900 79.701269" fill="none" id="115" stroke="black" stroke-width="1.5" /><path d="M 256.152900 41.901269 L 256.950659 44.793099 L 257.647758 47.710829 L 258.243359 50.650959 L 258.736747 53.609956 L 259.127330 56.584270 L 259.414640 59.570330 L 259.598330 62.564551 L 259.678182 65.563338 L 259.654097 68.563091 L 259.526107 71.560209 L 259.294364 74.551095 L 258.959147 77.532156 L 258.520857 80.499816 L 257.980022 83.450510 L 257.337290 86.380697 L 257.262900 86.691269" fill="none" id="116" stroke="black" stroke-width="1.5" /><path d="M 240.207900 29.916269 L 243.125668 30.527602 L 245.914626 31.513091 L 248.558860 32.839211 L 251.042458 34.472436 L 253.349506 36.379240 L 255.464091 38.526099 L 257.370299 40.879487 L 259.052216 43.405879 L 260.493930 46.071748 L 261.679526 48.843571 L 262.616594 51.681283 L 263.339139 54.570719 L 263.862506 57.502923 L 264.201986 60.468827 L 264.372873 63.459362 L 264.390457 66.465460 L 264.270030 69.478052 L 264.026883 72.488071 L 263.676309 75.486448 L 263.233600 78.464115 L 263.202900 78.651269" fill="none" id="117" stroke="black" stroke-width="1.5" /><path d="M 54.837900 93.546269 L 57.474653 94.976868 L 60.159814 96.314401 L 62.890098 97.557232 L 65.662168 98.703842 L 68.472633 99.752828 L 71.318056 100.702907 L 74.194958 101.552918 L 77.099820 102.301821 L 80.029091 102.948700 L 82.979189 103.492765 L 85.946506 103.933350 L 86.847900 104.046269" fill="none" id="118" stroke="black" stroke-width="1.5" /><path d="M 241.677900 79.506269 L 239.682505 81.745655 L 237.537835 83.842518 L 235.254043 85.786931 L 232.841943 87.569688 L 230.312955 89.182346 L 227.679053 90.617272 L 224.952709 91.867670 L 222.146831 92.927620 L 219.274703 93.792104 L 218.652900 93.951269" fill="none" id="119" stroke="black" stroke-width="1.5" /><path d="M 248.307900 65.121269 L 247.323480 67.954587 L 246.155457 70.717284 L 244.808857 73.397479 L 243.289471 75.983641 L 241.603834 78.464650 L 239.759196 80.829831 L 237.763492 83.069014 L 235.625305 85.172566 L 233.353833 87.131440 L 230.958845 88.937210 L 228.450642 90.582109 L 225.840013 92.059062 L 223.138187 93.361717 L 220.356785 94.484471 L 220.047900 94.596269" fill="none" id="120" stroke="black" stroke-width="1.5" /><path d="M 98.652900 102.816269 L 101.561479 103.532298 L 104.485099 104.157635 L 107.422574 104.697391 L 110.372719 105.156676 L 113.334350 105.540602 L 116.306282 105.854280 L 119.287330 106.102821 L 122.276309 106.291335 L 125.272035 106.424935 L 128.273323 106.508730 L 131.278988 106.547832 L 134.287845 106.547353 L 137.298710 106.512402 L 140.310398 106.448092 L 143.321723 106.359533 L 146.331502 106.251836 L 149.338549 106.130113 L 152.341680 105.999474 L 155.341331 105.863699 L 158.351289 105.719893 L 161.372368 105.565680 L 164.401840 105.396871 L 167.436978 105.209277 L 170.475055 104.998709 L 173.513344 104.760977 L 176.549116 104.491892 L 179.579645 104.187264 L 182.602203 103.842905 L 185.614062 103.454625 L 188.612496 103.018235 L 191.594778 102.529545 L 194.558179 101.984367 L 197.499972 101.378510 L 200.417430 100.707787 L 203.307826 99.968007 L 206.168432 99.154980 L 208.996520 98.264519 L 211.789365 97.292433 L 214.544237 96.234534 L 217.258410 95.086632 L 219.929156 93.844537 L 222.553748 92.504061 L 225.129459 91.061014 L 227.653561 89.511206 L 230.123327 87.850450 L 231.822900 86.616269" fill="none" id="121" stroke="black" stroke-width="1.5" /><path d="M 40.287900 76.866269 L 40.981670 79.701747 L 42.421812 82.210566 L 44.446707 84.386052 L 46.894733 86.221529 L 49.604273 87.710322 L 52.416841 88.851602 L 55.285449 89.794448 L 58.181193 90.684993 L 61.045751 91.628500 L 63.820801 92.730236 L 66.448021 94.095465 L 67.647900 94.881269" fill="none" id="122" stroke="black" stroke-width="1.5" /><path d="M 48.387900 36.516269 L 45.857706 38.144738 L 43.580489 40.073204 L 41.563685 42.264989 L 39.814730 44.683414 L 38.341060 47.291803 L 37.150112 50.053478 L 36.249321 52.931761 L 35.646124 55.889976 L 35.347956 58.891443 L 35.362254 61.899487 L 35.696453 64.877429 L 36.357990 67.788591 L 37.354301 70.596297 L 38.692822 73.263868 L 40.380988 75.754628 L 38.438466 73.776939 L 36.765434 71.312435 L 35.522168 68.600938 L 34.708308 65.715030 L 34.323495 62.727291 L 34.367368 59.710301 L 34.839567 56.736640 L 35.739732 53.878887 L 37.067503 51.209624 L 38.822520 48.801431 L 40.150938 47.488743 L 38.145175 49.717669 L 36.392186 52.150410 L 34.912530 54.758440 L 33.723556 57.511173 L 32.839209 60.376331 L 32.269858 63.320315 L 32.022179 66.308601 L 32.099078 69.306148 L 32.499652 72.277804 L 32.532185 70.799768 L 32.579385 67.831689 L 32.856859 64.891911 L 33.354323 61.987322 L 34.061494 59.124810 L 34.968091 56.311262 L 36.063830 53.553565 L 37.338430 50.858606 L 38.781606 48.233272 L 40.383077 45.684451 L 42.132560 43.219031 L 44.019773 40.843897 L 46.034432 38.565938 L 48.166256 36.392041 L 50.404961 34.329094 L 52.740265 32.383982 L 55.161885 30.563594 L 57.659539 28.874817 L 60.216183 27.312624 L 62.826573 25.858718 L 65.486947 24.507702 L 68.193524 23.254195 L 70.942526 22.092813 L 73.730170 21.018175 L 76.552676 20.024898 L 79.406264 19.107599 L 82.287153 18.260896 L 85.191563 17.479406 L 88.115712 16.757748 L 91.055821 16.090538 L 94.008109 15.472393 L 96.968796 14.897932 L 99.934100 14.361772 L 102.900241 13.858531 L 105.863439 13.382825 L 108.823247 12.929783 L 111.794313 12.495343 L 114.769637 12.077767 L 117.748824 11.679086 L 120.731481 11.301333 L 123.717215 10.946539 L 126.705633 10.616738 L 129.696341 10.313960 L 132.688946 10.040238 L 135.683055 9.797605 L 138.678275 9.588092 L 141.674211 9.413732 L 144.670471 9.276556 L 147.666662 9.178597 L 150.662389 9.121888 L 153.657261 9.108459 L 156.650883 9.140343 L 159.642862 9.219573 L 162.632805 9.348180 L 165.620318 9.528197 L 168.605009 9.761656 L 171.586484 10.050589 L 174.564349 10.397027 L 177.539910 10.804969 L 180.510325 11.277412 L 183.472758 11.815241 L 186.424384 12.419343 L 189.362383 13.090603 L 192.283931 13.829908 L 195.186206 14.638144 L 198.066385 15.516197 L 200.921647 16.464952 L 203.749168 17.485297 L 206.546127 18.578117 L 209.309700 19.744299 L 212.037065 20.984728 L 214.725399 22.300290 L 217.371881 23.691873 L 219.973688 25.160361 L 222.527997 26.706641 L 225.031985 28.331600 L 227.482831 30.036123 L 229.877712 31.821096 L 232.213805 33.687406 L 234.488288 35.635939 L 236.698390 37.679007 L 238.819068 39.831739 L 240.804079 42.101984 L 242.606718 44.498740 L 244.180277 47.031000 L 245.478050 49.707760 L 246.449688 52.541118 L 247.014083 55.518320 L 247.135752 58.550556 L 246.792775 61.543189 L 245.963232 64.401581 L 244.625204 67.031094 L 242.787900 69.306269" fill="none" id="123" stroke="black" stroke-width="1.5" /><path d="M 45.162900 33.126269 L 42.263509 33.855369 L 39.504645 34.958597 L 36.904409 36.400336 L 34.480905 38.144968 L 32.252235 40.156879 L 30.236501 42.400450 L 28.451807 44.840066 L 26.916255 47.440110 L 25.643297 50.161452 L 24.606759 52.966316 L 23.785906 55.839842 L 23.164313 58.768100 L 22.725558 61.737157 L 22.453215 64.733083 L 22.330859 67.741946 L 22.342068 70.749815 L 22.467900 73.701269" fill="none" id="124" stroke="black" stroke-width="1.5" /><path d="M 18.537900 88.296269 L 18.011981 85.347050 L 17.667911 82.393621 L 17.500611 79.440569 L 17.505000 76.492478 L 17.675997 73.553934 L 18.008522 70.629523 L 18.497495 67.723831 L 19.137836 64.841442 L 19.924463 61.986943 L 20.852296 59.164919 L 21.916256 56.379955 L 23.111261 53.636638 L 24.432232 50.939552 L 25.874087 48.293284 L 27.431747 45.702418 L 29.100131 43.171541 L 30.874158 40.705238 L 32.748748 38.308094 L 34.718821 35.984696 L 36.779297 33.739628 L 38.925094 31.577477 L 41.151133 29.502827 L 43.452333 27.520265 L 45.823614 25.634375 L 48.259895 23.849744 L 50.750201 22.169663 L 53.283645 20.579427 L 55.859644 19.073474 L 58.476159 17.649275 L 61.131148 16.304304 L 63.822570 15.036034 L 66.548384 13.841939 L 69.306548 12.719492 L 72.095022 11.666165 L 74.911764 10.679433 L 77.754733 9.756767 L 80.621889 8.895642 L 83.511190 8.093531 L 86.420595 7.347906 L 89.348063 6.656242 L 92.291553 6.016010 L 95.249024 5.424685 L 98.218434 4.879739 L 101.197743 4.378646 L 104.184910 3.918879 L 107.177893 3.497911 L 110.174651 3.113215 L 113.173143 2.762265 L 116.171329 2.442533 L 119.167166 2.151493 L 122.158929 1.886534 L 125.156677 1.646158 L 128.165082 1.431884 L 131.182927 1.244749 L 134.208995 1.085793 L 137.242069 0.956052 L 140.280932 0.856564 L 143.324368 0.788368 L 146.371158 0.752500 L 149.420086 0.750000 L 152.469936 0.781904 L 155.519490 0.849252 L 158.567531 0.953079 L 161.612843 1.094425 L 164.654208 1.274328 L 167.690409 1.493824 L 170.720230 1.753952 L 173.742454 2.055750 L 176.755863 2.400256 L 179.759240 2.788507 L 182.751369 3.221542 L 185.731033 3.700398 L 188.697015 4.226113 L 191.648098 4.799724 L 194.583064 5.422271 L 197.500697 6.094790 L 200.399780 6.818320 L 203.279096 7.593898 L 206.137428 8.422562 L 208.973559 9.305350 L 211.786272 10.243301 L 214.574350 11.237450 L 217.336577 12.288838 L 220.071734 13.398501 L 222.778606 14.567477 L 225.455975 15.796805 L 228.102625 17.087521 L 230.717338 18.440665 L 233.298897 19.857273 L 235.846085 21.338384 L 238.357687 22.885035 L 240.832483 24.498265 L 243.269259 26.179110 L 245.666796 27.928610 L 248.023877 29.747802 L 250.339286 31.637723 L 252.612037 33.604683 L 254.833272 35.678974 L 256.987013 37.859220 L 259.057878 40.138343 L 261.030485 42.509268 L 262.889452 44.964918 L 264.619398 47.498216 L 266.204941 50.102085 L 267.630698 52.769448 L 268.881289 55.493230 L 269.941332 58.266352 L 270.795445 61.081739 L 271.428246 63.932314 L 271.824354 66.811000 L 271.968386 69.710721 L 271.844961 72.624399 L 271.438698 75.544958 L 271.092900 77.136269" fill="none" id="125" stroke="black" stroke-width="1.5" /><path d="M 17.787900 83.061269 L 18.262337 86.023508 L 18.712304 88.989562 L 19.137770 91.959230 L 19.538707 94.932309 L 19.915087 97.908596 L 20.266884 100.887889 L 20.594075 103.869985 L 20.896637 106.854680 L 21.174549 109.841771 L 21.427793 112.831055 L 21.656352 115.822327 L 21.860209 118.815384 L 22.039352 121.810023 L 22.193766 124.806037 L 22.323444 127.803225 L 22.428374 130.801381 L 22.508550 133.800301 L 22.642185 132.615578 L 22.761299 129.617982 L 22.827808 126.618758 L 22.841691 123.618829 L 22.802944 120.619118 L 22.711580 117.620548 L 22.567626 114.624042 L 22.371126 111.630523 L 22.122142 108.640911 L 21.820749 105.656128 L 21.467040 102.677091 L 21.432900 102.411269" fill="none" id="126" stroke="black" stroke-width="1.5" /><path d="M 21.057900 100.056269 L 21.509287 103.022047 L 21.891368 105.997548 L 22.203937 108.981152 L 22.446822 111.971236 L 22.619891 114.966171 L 22.723051 117.964329 L 22.756244 120.964077 L 22.703410 123.670007 L 22.335920 120.692643 L 22.023326 117.709016 L 21.765734 114.720138 L 21.563232 111.727022 L 21.415888 108.730685 L 21.323751 105.732143 L 21.286854 102.732412 L 21.305209 99.732511 L 21.378810 96.733456 L 21.504026 94.916443 L 21.636702 97.913508 L 21.769379 100.910572 L 21.902055 103.907637 L 22.034732 106.904702 L 22.167408 109.901767 L 22.300084 112.898831 L 22.432761 115.895896 L 22.565437 118.892961 L 22.698113 121.890025 L 22.830790 124.887090 L 22.963466 127.884155 L 23.096143 130.881220 L 23.152885 130.672692 L 23.143504 127.672707 L 23.134122 124.672722 L 23.124741 121.672736 L 23.115359 118.672751 L 23.105978 115.672766 L 23.096596 112.672780 L 23.087215 109.672795 L 23.077833 106.672810 L 23.068452 103.672824 L 23.059070 100.672839 L 23.049689 97.672854 L 23.040307 94.672868 L 23.030926 91.672883 L 23.022900 89.106269" fill="none" id="127" stroke="black" stroke-width="1.5" /></svg>