<?xml version="1.0" encoding="utf-8" ?>
<svg baseProfile="full" height="330.5" version="1.1" viewBox="0,0,272.5,330.5" width="272.5" xmlns="http://www.w3.org/2000/svg" xmlns:ev="http://www.w3.org/2001/xml-events" xmlns:xlink="http://www.w3.org/1999/xlink"><defs><style type="text/css"><![CDATA[
	.background { fill: white; }
	.line { stroke: firebrick; stroke-width: .1mm; }
	.blacksquare { fill: indigo; }
	.whitesquare { fill: white; }
]]></style></defs><rect class="background" height="100%" width="100%" x="0" y="0" /><path d="M 26.481129 215.870640 L 26.460729 219.051640 L 26.464329 222.231640 L 26.496329 225.411640 L 26.566929 228.591640 L 26.679129 231.769640 L 26.838329 234.945640 L 27.050129 238.118640 L 27.319829 241.287640 L 27.653129 244.450640 L 28.055429 247.605640 L 28.534129 250.749640 L 29.096729 253.879640 L 29.746729 256.992640 L 30.487329 260.085640 L 31.323529 263.154640 L 32.261529 266.193640 L 33.307729 269.196640 L 34.465829 272.158640 L 35.736929 275.073640 L 37.122129 277.936640 L 38.622729 280.740640 L 40.242229 283.477640 L 41.985729 286.137640 L 43.851329 288.712640 L 45.838229 291.196640 L 47.946729 293.577640 L 50.176529 295.844640 L 52.526429 297.987640 L 55.008729 299.975640 L 57.596029 301.825640 L 60.261129 303.560640" fill="none" id="0" stroke="#c94e76" stroke-width="0.5" /><path d="M 132.786229 115.385640 L 133.929229 115.665640 L 135.071229 115.944640 L 136.219229 116.201640 L 137.368229 116.453640 L 138.522229 116.682640 L 139.678229 116.901640 L 140.838229 117.097640 L 142.000229 117.276640 L 143.165229 117.438640 L 144.333229 117.581640 L 145.502229 117.712640 L 146.673229 117.818640 L 147.845229 117.919640 L 149.020229 117.988640 L 150.194229 118.057640 L 151.370229 118.090640 L 152.546229 118.122640 L 153.722229 118.124640 L 154.898229 118.120640 L 156.074229 118.089640 L 157.250229 118.049640 L 158.425229 117.987640 L 159.598229 117.909640 L 160.771229 117.814640 L 161.941229 117.694640 L 163.110229 117.564640 L 164.276229 117.409640 L 165.442229 117.250640 L 166.604229 117.068640 L 167.766229 116.885640" fill="none" id="1" stroke="#f375a0" stroke-width="0.5" /><path d="M 108.231229 273.005640 L 108.282229 273.721640 L 108.334229 274.436640 L 108.355229 275.153640 L 108.376229 275.870640 L 108.367229 276.587640 L 108.357229 277.304640 L 108.287229 278.018640 L 108.218229 278.731640 L 108.117229 279.442640 L 108.017229 280.152640 L 107.887229 280.857640 L 107.757229 281.562640 L 107.567229 282.254640 L 107.378229 282.946640 L 107.154229 283.627640 L 106.931229 284.308640 L 106.674229 284.978640 L 106.417229 285.647640 L 106.093229 286.287640 L 105.769229 286.927640 L 105.418229 287.553640 L 105.067229 288.178640 L 104.691229 288.788640 L 104.314229 289.399640 L 103.888229 289.976640 L 103.462229 290.553640 L 103.015229 291.114640 L 102.568229 291.675640 L 102.100229 292.217640 L 101.631229 292.760640" fill="none" id="2" stroke="#00d4db" stroke-width="0.5" /><path d="M 86.901129 157.115640 L 87.341529 156.836640 L 87.784429 156.562640 L 88.235929 156.301640 L 88.692929 156.051640 L 89.156529 155.812640 L 89.624229 155.582640 L 90.093829 155.356640 L 90.572629 155.150640 L 91.053229 154.948640 L 91.539929 154.762640 L 92.036529 154.611640 L 92.550629 154.525640 L 93.068429 154.472640 L 93.588829 154.441640 L 94.109729 154.423640 L 94.630529 154.413640 L 95.144029 154.503640 L 95.643629 154.634640 L 96.107629 154.871640 L 96.567829 155.116640 L 97.024529 155.367640 L 97.453929 155.661640 L 97.873729 155.970640 L 98.163929 156.403640 L 98.428329 156.849640 L 98.610629 157.338640 L 98.765929 157.834640 L 98.890829 158.341640 L 99.081129 159.365640" fill="none" id="3" stroke="#9de993" stroke-width="0.5" /><path d="M 48.471129 176.945640 L 48.976829 176.208640 L 49.482529 175.471640 L 50.014929 174.752640 L 50.547329 174.034640 L 51.112029 173.341640 L 51.676829 172.648640 L 52.278729 171.987640 L 52.880729 171.326640 L 53.514329 170.695640 L 54.147929 170.064640 L 54.821229 169.476640 L 55.494529 168.887640 L 56.195829 168.333640 L 56.897029 167.778640 L 57.628829 167.265640 L 58.360529 166.751640 L 59.120329 166.280640 L 59.880229 165.808640 L 60.662129 165.375640 L 61.444129 164.941640 L 62.252629 164.560640 L 63.061229 164.178640 L 63.887429 163.836640 L 64.713629 163.495640 L 65.557429 163.199640 L 66.401429 162.904640 L 67.258129 162.648640 L 68.114829 162.393640 L 69.846129 161.945640" fill="none" id="4" stroke="#9de993" stroke-width="0.5" /><path d="M 57.186129 170.960640 L 58.080029 170.244640 L 58.973929 169.527640 L 59.883729 168.831640 L 60.796129 168.138640 L 61.724529 167.467640 L 62.659329 166.805640 L 63.608729 166.164640 L 64.568929 165.539640 L 65.538429 164.929640 L 66.520029 164.338640 L 67.507429 163.757640 L 68.509229 163.201640 L 69.513729 162.651640 L 70.534429 162.130640 L 71.555229 161.610640 L 72.593529 161.126640 L 73.631929 160.642640 L 74.684829 160.191640 L 75.740229 159.745640 L 76.807029 159.328640 L 77.878529 158.922640 L 78.958229 158.539640 L 80.043929 158.174640 L 81.135429 157.826640 L 82.234429 157.502640 L 83.336229 157.189640 L 84.444929 156.900640 L 85.554729 156.616640 L 86.670429 156.356640 L 87.786129 156.095640" fill="none" id="5" stroke="#9de993" stroke-width="0.5" /><path d="M 49.596129 275.150640 L 48.693229 271.921640 L 47.803629 268.689640 L 46.929729 265.452640 L 46.078529 262.209640 L 45.254729 258.958640 L 44.463529 255.700640 L 43.710129 252.433640 L 43.000129 249.156640 L 42.339529 245.869640 L 41.735929 242.571640 L 41.196329 239.262640 L 40.725829 235.943640 L 40.330729 232.614640 L 40.017729 229.276640 L 39.794129 225.931640 L 39.667329 222.580640 L 39.644529 219.228640 L 39.736629 215.877640 L 39.955329 212.532640 L 40.304429 209.198640 L 40.787629 205.880640 L 41.410729 202.587640 L 42.178729 199.323640 L 43.095329 196.099640 L 44.167229 192.923640 L 45.406929 189.808640 L 46.747629 186.735640 L 48.172129 183.700640 L 49.666529 180.699640 L 51.216129 177.725640" fill="none" id="6" stroke="#9de993" stroke-width="0.5" /><path d="M 95.631129 123.530640 L 98.170429 125.777640 L 100.616629 128.125640 L 102.944229 130.591640 L 105.110229 133.199640 L 107.108229 135.939640 L 108.913229 138.809640 L 110.497229 141.807640 L 111.816229 144.931640 L 112.839229 148.163640 L 113.545229 151.480640 L 113.920229 154.849640 L 113.958229 158.239640 L 113.647229 161.615640 L 112.974229 164.938640 L 111.922229 168.161640 L 110.442229 171.211640 L 108.570229 174.037640 L 106.310229 176.564640 L 103.696229 178.721640 L 100.794229 180.474640 L 97.673529 181.796640 L 94.395429 182.657640 L 91.022529 182.989640 L 87.676429 182.468640 L 84.335729 181.887640 L 81.272029 180.446640 L 78.607829 178.355640 L 76.677929 175.575640 L 75.660829 172.346640 L 75.411129 168.965640" fill="none" id="7" stroke="#57b870" stroke-width="0.5" /><path d="M 86.796129 125.105640 L 87.353529 125.273640 L 87.910929 125.440640 L 88.467929 125.609640 L 89.024329 125.780640 L 89.578829 125.957640 L 90.130929 126.141640 L 90.679129 126.336640 L 91.223829 126.541640 L 91.764929 126.755640 L 92.305929 126.970640 L 92.847029 127.184640 L 93.380329 127.417640 L 93.911129 127.656640 L 94.441929 127.895640 L 94.972629 128.133640 L 95.492029 128.396640 L 96.011429 128.659640 L 96.530829 128.921640 L 97.047129 129.190640 L 97.553929 129.476640 L 98.060829 129.762640 L 98.567729 130.048640 L 99.069029 130.343640 L 99.564729 130.648640 L 100.056229 130.960640 L 100.545329 131.276640 L 101.026229 131.603640 L 101.505229 131.934640 L 101.981229 132.269640 L 102.456229 132.605640" fill="none" id="8" stroke="#57b870" stroke-width="0.5" /><path d="M 90.351129 124.595640 L 89.507229 124.567640 L 88.663329 124.538640 L 87.819529 124.510640 L 86.975629 124.481640 L 86.131729 124.452640 L 85.287829 124.424640 L 84.443929 124.395640 L 83.600129 124.367640 L 82.756229 124.338640 L 81.912329 124.310640 L 81.068429 124.281640 L 80.224529 124.252640 L 79.380729 124.224640 L 78.536829 124.195640 L 77.692929 124.167640 L 76.849029 124.138640 L 76.005129 124.110640 L 75.161229 124.081640 L 74.317429 124.053640 L 73.473529 124.024640 L 72.629629 123.994640 L 71.785829 123.964640 L 70.942129 123.932640 L 70.098329 123.899640 L 69.254829 123.863640 L 68.411229 123.826640 L 67.568329 123.777640 L 66.725429 123.727640 L 65.882929 123.670640 L 65.040529 123.613640" fill="none" id="9" stroke="#57b870" stroke-width="0.5" /><path d="M 65.040529 123.613640 L 66.025629 123.521640 L 67.010729 123.428640 L 67.996929 123.348640 L 68.983129 123.268640 L 69.970829 123.208640 L 70.958429 123.148640 L 71.946629 123.098640 L 72.934829 123.047640 L 73.923929 123.023640 L 74.913129 122.998640 L 75.902529 122.985640 L 76.891929 122.973640 L 77.881329 122.982640 L 78.870729 122.991640 L 79.859829 123.016640 L 80.849029 123.041640 L 81.837629 123.082640 L 82.826229 123.123640 L 83.813729 123.185640 L 84.801229 123.247640 L 85.787929 123.321640 L 86.774629 123.395640 L 87.758829 123.497640 L 88.742929 123.599640 L 89.725929 123.713640 L 90.708829 123.826640 L 91.688229 123.967640 L 92.667529 124.108640 L 93.644329 124.266640 L 94.621129 124.424640" fill="none" id="10" stroke="#57b870" stroke-width="0.5" /><path d="M 94.621129 124.424640 L 92.330029 124.745640 L 90.035829 125.040640 L 87.731629 125.249640 L 85.423229 125.382640 L 83.110129 125.432640 L 80.797829 125.384640 L 78.485829 125.297640 L 76.174529 125.194640 L 73.862929 125.099640 L 71.549929 125.047640 L 69.238429 125.075640 L 66.929029 125.215640 L 64.619729 125.356640 L 62.310329 125.496640 L 60.022929 125.835640 L 57.741529 126.218640 L 55.484329 126.726640 L 53.239229 127.280640 L 51.016029 127.921640 L 48.822929 128.653640 L 46.650729 129.450640 L 44.520929 130.352640 L 42.403929 131.285640 L 40.344129 132.338640 L 38.309529 133.437640 L 36.335729 134.644640 L 34.399729 135.909640 L 32.497329 137.226640 L 30.644129 138.610640 L 28.806129 140.015640" fill="none" id="11" stroke="#57b870" stroke-width="0.5" /><path d="M 70.881129 125.195640 L 71.670929 124.834640 L 72.460829 124.474640 L 73.277829 124.179640 L 74.094929 123.886640 L 74.937429 123.675640 L 75.780129 123.466640 L 76.642929 123.368640 L 77.505729 123.270640 L 78.373829 123.291640 L 79.241929 123.312640 L 80.104329 123.413640 L 80.966729 123.515640 L 81.816429 123.694640 L 82.666029 123.873640 L 83.489729 124.148640 L 84.313429 124.423640 L 85.100529 124.790640 L 85.887629 125.157640 L 86.638329 125.593640 L 87.389029 126.030640 L 88.096029 126.534640 L 88.803129 127.038640 L 89.431629 127.637640 L 90.060029 128.236640 L 90.597429 128.918640 L 91.134329 129.601640 L 91.600629 130.333640 L 92.066729 131.066640 L 92.468929 131.836640 L 92.871129 132.605640" fill="none" id="12" stroke="#57b870" stroke-width="0.5" /><path d="M 95.496129 123.995640 L 90.664329 122.825640 L 85.766429 121.976640 L 80.819929 121.492640 L 75.852429 121.333640 L 70.889129 121.563640 L 65.953629 122.140640 L 61.068629 123.049640 L 56.255829 124.283640 L 51.531729 125.824640 L 46.914329 127.659640 L 42.425429 129.789640 L 38.081229 132.201640 L 33.896229 134.880640 L 29.894529 137.826640 L 26.097529 141.032640 L 22.519729 144.481640 L 19.186529 148.167640 L 16.127129 152.084640 L 13.359129 156.213640 L 10.907029 160.538640 L 8.817009 165.049640 L 7.062429 169.700640 L 5.597859 174.449640 L 4.401369 179.273640 L 3.439989 184.150640 L 2.676319 189.062640 L 2.082499 193.997640 L 1.622548 198.947640 L 1.264510 203.906640 L 0.997865 208.870640 L 0.826129 213.838640 L 0.750000 218.809640 L 0.765874 223.780640 L 0.875657 228.750640 L 1.083526 233.717640 L 1.383963 238.680640 L 1.780539 243.635640 L 2.293709 248.580640 L 2.999339 253.501640 L 3.732999 258.419640 L 4.702639 263.294640 L 5.853199 268.131640 L 7.191769 272.918640 L 8.744639 277.640640 L 10.523419 282.281640 L 12.544229 286.821640 L 14.834029 291.231640 L 17.411229 295.479640 L 20.286129 299.531640 L 23.471729 303.341640 L 26.978829 306.857640 L 30.822829 309.996640 L 34.974329 312.725640 L 39.324329 315.125640 L 43.869129 317.122640 L 48.625129 318.559640 L 53.496329 319.541640 L 58.438529 320.071640 L 63.409229 320.164640 L 68.370029 319.838640 L 73.291129 319.137640 L 78.144729 318.067640 L 82.911229 316.660640 L 87.572129 314.936640 L 92.100729 312.891640 L 96.430229 310.459640 L 100.656329 307.840640 L 104.698229 304.957640 L 108.474229 301.729640 L 111.976229 298.207640 L 115.150229 294.389640 L 117.921229 290.270640 L 120.230229 285.875640 L 122.010229 281.243640 L 123.158229 276.416640 L 123.554229 271.468640 L 123.226229 266.512640 L 122.180229 261.654640 L 120.386229 257.017640 L 117.878229 252.726640 L 114.672229 248.933640 L 110.784229 245.852640 L 106.337229 243.670640 L 101.512229 242.582640 L 96.571729 242.667640 L 91.763229 243.823640 L 87.286029 245.926640 L 83.355929 248.919640 L 80.422329 252.846640 L 78.552129 257.426640 L 77.706529 262.283640 L 77.957629 267.226640 L 78.583129 272.153640 L 78.189129 276.992640 L 76.000529 281.430640 L 72.704729 284.935640 L 68.024729 286.456640 L 63.108129 286.336640 L 58.487629 284.540640 L 54.329229 281.838640 L 50.853129 278.292640 L 48.156129 274.115640" fill="none" id="13" stroke="#57b870" stroke-width="0.5" /><path d="M 61.341129 102.350640 L 62.708429 102.836640 L 64.076929 103.318640 L 65.449629 103.788640 L 66.825529 104.249640 L 68.204829 104.699640 L 69.589429 105.133640 L 70.976329 105.559640 L 72.369129 105.966640 L 73.763429 106.368640 L 75.162629 106.752640 L 76.564229 107.127640 L 77.969129 107.490640 L 79.377529 107.838640 L 80.787829 108.179640 L 82.202629 108.501640 L 83.618529 108.818640 L 85.038629 109.116640 L 86.460229 109.406640 L 87.884729 109.682640 L 89.311729 109.945640 L 90.740429 110.198640 L 92.172429 110.432640 L 93.605229 110.660640 L 95.041229 110.868640 L 96.478229 111.069640 L 97.917529 111.253640 L 99.358029 111.427640 L 100.799229 111.591640 L 102.242229 111.742640 L 103.686229 111.890640" fill="none" id="14" stroke="#c94e76" stroke-width="0.5" /><path d="M 78.981129 289.625640 L 79.375029 289.270640 L 79.769029 288.915640 L 80.151529 288.547640 L 80.533229 288.179640 L 80.894229 287.791640 L 81.252029 287.399640 L 81.596429 286.996640 L 81.937529 286.590640 L 82.257729 286.167640 L 82.570229 285.739640 L 82.872029 285.302640 L 83.168429 284.863640 L 83.448029 284.412640 L 83.716429 283.955640 L 83.971829 283.490640 L 84.215829 283.019640 L 84.448129 282.542640 L 84.666929 282.059640 L 84.871529 281.570640 L 85.054929 281.073640 L 85.230929 280.572640 L 85.392629 280.067640 L 85.543029 279.559640 L 85.662429 279.042640 L 85.777429 278.524640 L 85.875329 278.003640 L 85.969829 277.481640 L 86.041729 276.956640 L 86.112629 276.430640 L 86.169429 275.903640 L 86.226129 275.375640" fill="none" id="15" stroke="#57b870" stroke-width="0.5" /><path d="M 188.301229 114.110640 L 190.318229 113.871640 L 192.332229 113.606640 L 194.342229 113.312640 L 196.347229 112.986640 L 198.343229 112.609640 L 200.332229 112.195640 L 202.313229 111.748640 L 204.286229 111.266640 L 206.250229 110.746640 L 208.202229 110.184640 L 210.144229 109.589640 L 212.076229 108.962640 L 213.997229 108.300640 L 215.901229 107.594640 L 217.794229 106.855640 L 219.673229 106.085640 L 221.539229 105.283640 L 223.386229 104.437640 L 225.216229 103.555640 L 227.031229 102.643640 L 228.830229 101.699640 L 230.608229 100.718740 L 232.367229 99.702140 L 234.108229 98.656040 L 235.831229 97.580740 L 237.534229 96.472840 L 239.209229 95.323740 L 240.866229 94.148340 L 242.506229 92.949740 L 244.131229 91.730940" fill="none" id="16" stroke="#d271bb" stroke-width="0.5" /><path d="M 63.861129 152.375640 L 63.368929 152.558640 L 62.876729 152.741640 L 62.387829 152.933640 L 61.898929 153.125640 L 61.416729 153.333640 L 60.934529 153.541640 L 60.457029 153.759640 L 59.979529 153.978640 L 59.510229 154.213640 L 59.040929 154.449640 L 58.576329 154.694640 L 58.111829 154.938640 L 57.655529 155.198640 L 57.199229 155.458640 L 56.751629 155.733640 L 56.304029 156.007640 L 55.865629 156.297640 L 55.427229 156.586640 L 55.001829 156.894640 L 54.576529 157.202640 L 54.159329 157.520640 L 53.742029 157.839640 L 53.336529 158.173640 L 52.931029 158.506640 L 52.532129 158.848640 L 52.133329 159.190640 L 51.743829 159.542640 L 51.354329 159.894640 L 50.586129 160.610640" fill="none" id="17" stroke="#3d8e43" stroke-width="0.5" /><path d="M 39.381129 173.660640 L 38.724729 174.691640 L 38.068229 175.722640 L 37.435429 176.768640 L 36.802629 177.813640 L 36.199729 178.877640 L 35.596829 179.940640 L 35.030529 181.023640 L 34.464129 182.106640 L 33.930929 183.206640 L 33.397729 184.305640 L 32.898029 185.421640 L 32.398329 186.536640 L 31.932729 187.666640 L 31.467029 188.796640 L 31.036229 189.940640 L 30.605329 191.084640 L 30.212129 192.241640 L 29.818829 193.398640 L 29.464229 194.568640 L 29.109529 195.737640 L 28.790429 196.917640 L 28.471329 198.097640 L 28.188029 199.286640 L 27.904829 200.475640 L 27.661529 201.673640 L 27.418129 202.870640 L 27.208029 204.075640 L 26.997929 205.279640 L 26.814529 206.487640 L 26.631129 207.695640" fill="none" id="18" stroke="#d55969" stroke-width="0.5" /><path d="M 255.453229 116.822640 L 254.913229 117.004640 L 254.373229 117.186640 L 253.840229 117.388640 L 253.310229 117.598640 L 252.805229 117.861640 L 252.304229 118.133640 L 251.823229 118.438640 L 251.355229 118.762640 L 250.928229 119.139640 L 250.500229 119.516640 L 250.074229 119.894640 L 249.677229 120.300640 L 249.331229 120.753640 L 248.985229 121.206640 L 248.640229 121.660640 L 248.341229 122.142640 L 248.090229 122.653640 L 247.839229 123.165640 L 247.588229 123.677640 L 247.401229 124.213640 L 247.254229 124.764640 L 247.108229 125.315640 L 246.961229 125.866640 L 246.877229 126.428640 L 246.814229 126.995640 L 246.837229 127.563640 L 246.879229 128.131640 L 246.942229 128.698640 L 247.014229 129.263640 L 247.088229 129.828640 L 247.164229 130.393640" fill="none" id="19" stroke="#64e4ff" stroke-width="0.5" /><path d="M 131.091229 151.610640 L 131.758229 151.034640 L 132.426229 150.458640 L 133.121229 149.915640 L 133.816229 149.373640 L 134.543229 148.874640 L 135.270229 148.375640 L 136.034229 147.935640 L 136.799229 147.495640 L 137.600229 147.127640 L 138.401229 146.759640 L 139.224229 146.443640 L 140.047229 146.126640 L 140.889229 145.863640 L 141.730229 145.600640 L 142.591229 145.407640 L 143.451229 145.215640 L 144.324229 145.093640 L 145.198229 144.971640 L 146.077229 144.905640 L 146.956229 144.840640 L 147.838229 144.831640 L 148.720229 144.821640 L 149.598229 144.893640 L 150.477229 144.965640 L 151.347229 145.110640 L 152.217229 145.254640 L 153.076229 145.452640 L 153.935229 145.650640 L 155.631229 146.135640" fill="none" id="20" stroke="#e68e54" stroke-width="0.5" /><path d="M 200.736229 35.840940 L 200.697229 35.242140 L 200.658229 34.643440 L 200.620229 34.044640 L 200.581229 33.445940 L 200.542229 32.847140 L 200.503229 32.248440 L 200.464229 31.649740 L 200.426229 31.050940 L 200.387229 30.452240 L 200.348229 29.853440 L 200.309229 29.254740 L 200.271229 28.655940 L 200.232229 28.057240 L 200.193229 27.458440 L 200.154229 26.859740 L 200.115229 26.260940 L 200.077229 25.662240 L 200.038229 25.063540 L 199.999229 24.464740 L 199.960229 23.866040 L 199.921229 23.267240 L 199.883229 22.668540 L 199.844229 22.069740 L 199.805229 21.471040 L 199.766229 20.872240 L 199.728229 20.273540 L 199.689229 19.674740 L 199.650229 19.076040 L 199.572229 17.878540" fill="none" id="21" stroke="#54aeff" stroke-width="0.5" /><path d="M 199.572229 17.878540 L 199.957229 20.361140 L 200.332229 22.845040 L 200.697229 25.330540 L 201.050229 27.817840 L 201.391229 30.306740 L 201.727229 32.796340 L 202.060229 35.286340 L 202.389229 37.776840 L 202.714229 40.267840 L 203.036229 42.759240 L 203.354229 45.251240 L 203.668229 47.743640 L 203.979229 50.236540 L 204.286229 52.729840 L 204.590229 55.223540 L 204.890229 57.717740 L 205.185229 60.212440 L 205.477229 62.707540 L 205.766229 65.203040 L 206.051229 67.698940 L 206.333229 70.195340 L 206.610229 72.692140 L 206.883229 75.189440 L 207.153229 77.687040 L 207.420229 80.184940 L 207.682229 82.683340 L 207.941229 85.182140 L 208.196229 87.681340 L 208.447229 90.180940 L 208.695229 92.680840 L 208.941229 95.180940" fill="none" id="22" stroke="#54aeff" stroke-width="0.5" /><path d="M 225.681229 155.435640 L 227.021229 157.815640 L 228.036229 160.351640 L 228.545229 163.033640 L 228.737229 165.756640 L 228.900229 168.482640 L 229.063229 171.208640 L 229.226229 173.935640 L 229.389229 176.661640 L 229.553229 179.387640 L 229.717229 182.114640 L 229.880229 184.840640 L 230.044229 187.566640 L 230.208229 190.292640 L 230.372229 193.019640 L 230.537229 195.745640 L 230.701229 198.471640 L 230.865229 201.197640 L 231.030229 203.924640 L 231.195229 206.650640 L 231.359229 209.376640 L 231.524229 212.102640 L 231.689229 214.829640 L 231.854229 217.555640 L 232.020229 220.281640 L 232.185229 223.007640 L 232.350229 225.734640 L 232.479229 228.460640 L 232.379229 231.189640 L 232.081229 233.904640 L 231.623229 236.596640" fill="none" id="23" stroke="#eed973" stroke-width="0.5" /><path d="M 223.491229 155.585640 L 223.563229 158.189640 L 223.634229 160.793640 L 223.703229 163.397640 L 223.770229 166.001640 L 223.835229 168.605640 L 223.898229 171.209640 L 223.959229 173.813640 L 224.018229 176.418640 L 224.075229 179.022640 L 224.131229 181.626640 L 224.184229 184.230640 L 224.235229 186.835640 L 224.285229 189.439640 L 224.333229 192.044640 L 224.379229 194.648640 L 224.422229 197.253640 L 224.464229 199.857640 L 224.504229 202.462640 L 224.542229 205.066640 L 224.578229 207.671640 L 224.612229 210.276640 L 224.644229 212.880640 L 224.675229 215.485640 L 224.703229 218.090640 L 224.729229 220.694640 L 224.754229 223.299640 L 224.785229 225.904640 L 224.907229 228.506640 L 225.104229 231.103640 L 225.363229 233.695640" fill="none" id="24" stroke="#eed973" stroke-width="0.5" /><path d="M 208.911229 26.180940 L 209.258229 28.177440 L 209.591229 30.176540 L 209.906229 32.178440 L 210.202229 34.183240 L 210.470229 36.192040 L 210.729229 38.201940 L 210.980229 40.212940 L 211.222229 42.224940 L 211.455229 44.238140 L 211.676229 46.252540 L 211.890229 48.267840 L 212.094229 50.284040 L 212.290229 52.301040 L 212.475229 54.319240 L 212.651229 56.338140 L 212.819229 58.357640 L 212.979229 60.377940 L 213.127229 62.399040 L 213.267229 64.420840 L 213.398229 66.443140 L 213.521229 68.465940 L 213.634229 70.489340 L 213.736229 72.513340 L 213.831229 74.537640 L 213.917229 76.562440 L 213.994229 78.587540 L 214.058229 80.613040 L 214.115229 82.638840 L 214.163229 84.664740 L 214.206229 86.690940" fill="none" id="25" stroke="#008bd4" stroke-width="0.5" /><path d="M 217.836229 28.520940 L 218.198229 30.516440 L 218.550229 32.513740 L 218.891229 34.512940 L 219.220229 36.514140 L 219.529229 38.518540 L 219.824229 40.525040 L 220.106229 42.533540 L 220.374229 44.543740 L 220.628229 46.555940 L 220.864229 48.570140 L 221.088229 50.585840 L 221.299229 52.602940 L 221.495229 54.621540 L 221.674229 56.641740 L 221.840229 58.663040 L 221.992229 60.685340 L 222.131229 62.708740 L 222.251229 64.733240 L 222.357229 66.758540 L 222.449229 68.784540 L 222.528229 70.811040 L 222.591229 72.838240 L 222.638229 74.865740 L 222.671229 76.893540 L 222.692229 78.921540 L 222.698229 80.949640 L 222.684229 82.977640 L 222.659229 85.005540 L 222.622229 87.033340 L 222.576229 89.060940" fill="none" id="26" stroke="#fdb968" stroke-width="0.5" /><path d="M 229.506229 41.915940 L 229.837229 43.422340 L 230.161229 44.930040 L 230.473229 46.440540 L 230.769229 47.954140 L 231.057229 49.469440 L 231.315229 50.989840 L 231.565229 52.511740 L 231.798229 54.036340 L 232.014229 55.563440 L 232.221229 57.091840 L 232.402229 58.623440 L 232.574229 60.156040 L 232.729229 61.690540 L 232.867229 63.226740 L 232.996229 64.763640 L 233.098229 66.302440 L 233.192229 67.841840 L 233.269229 69.382340 L 233.327229 70.923440 L 233.376229 72.465040 L 233.397229 74.007140 L 233.409229 75.549340 L 233.405229 77.091640 L 233.382229 78.633740 L 233.351229 80.175740 L 233.291229 81.716940 L 233.223229 83.257740 L 233.140229 84.797740 L 233.043229 86.337040 L 232.941229 87.875940" fill="none" id="27" stroke="#6f73bc" stroke-width="0.5" /><path d="M 216.203229 237.648640 L 216.192229 238.872640 L 216.183229 240.097640 L 216.186229 241.321640 L 216.195229 242.546640 L 216.217229 243.770640 L 216.247229 244.994640 L 216.291229 246.218640 L 216.344229 247.441640 L 216.408229 248.664640 L 216.484229 249.886640 L 216.567229 251.108640 L 216.664229 252.328640 L 216.767229 253.549640 L 216.887229 254.767640 L 217.009229 255.986640 L 217.153229 257.202640 L 217.301229 258.417640 L 217.468229 259.630640 L 217.641229 260.842640 L 217.828229 262.053640 L 218.023229 263.262640 L 218.229229 264.469640 L 218.445229 265.674640 L 218.671229 266.877640 L 218.910229 268.078640 L 219.157229 269.278640 L 219.417229 270.474640 L 219.681229 271.670640 L 219.958229 272.863640 L 220.236229 274.055640" fill="none" id="28" stroke="#8f6aaf" stroke-width="0.5" /><path d="M 230.196229 250.205640 L 230.690229 251.247640 L 231.185229 252.290640 L 231.627229 253.355640 L 232.068229 254.421640 L 232.441229 255.513640 L 232.815229 256.604640 L 233.104229 257.721640 L 233.394229 258.837640 L 233.608229 259.971640 L 233.822229 261.104640 L 233.934229 262.253640 L 234.045229 263.401640 L 234.080229 264.554640 L 234.114229 265.707640 L 234.070229 266.860640 L 234.027229 268.012640 L 233.893229 269.158640 L 233.760229 270.304640 L 233.511229 271.430640 L 233.263229 272.557640 L 233.013229 273.683640 L 232.764229 274.809640 L 232.403229 275.905640 L 232.042229 277.001640 L 231.623229 278.076640 L 231.205229 279.151640 L 230.784229 280.225640 L 230.362229 281.298640 L 229.926229 282.366640 L 229.489229 283.434640" fill="none" id="29" stroke="#8bb658" stroke-width="0.5" /><path d="M 244.131229 151.460640 L 244.428229 153.991640 L 244.726229 156.522640 L 245.023229 159.052640 L 245.321229 161.583640 L 245.619229 164.114640 L 245.916229 166.645640 L 246.214229 169.175640 L 246.511229 171.706640 L 246.809229 174.237640 L 247.105229 176.768640 L 247.399229 179.299640 L 247.689229 181.830640 L 247.971229 184.363640 L 248.249229 186.896640 L 248.511229 189.431640 L 248.770229 191.966640 L 249.008229 194.503640 L 249.235229 197.041640 L 249.438229 199.581640 L 249.623229 202.122640 L 249.791229 204.665640 L 249.928229 207.209640 L 250.057229 209.754640 L 250.136229 212.301640 L 250.231229 214.847640 L 250.377229 217.391640 L 250.549229 219.933640 L 250.749229 222.474640 L 250.981229 225.011640 L 251.226229 227.547640" fill="none" id="30" stroke="#658424" stroke-width="0.5" /><path d="M 251.226229 227.547640 L 252.377229 225.153640 L 253.454229 222.730640 L 254.262229 220.199640 L 254.828229 217.620640 L 255.059229 214.974640 L 255.133229 212.322640 L 255.083229 209.666640 L 254.972229 207.013640 L 254.830229 204.360640 L 254.653229 201.710640 L 254.465229 199.060640 L 254.237229 196.414640 L 254.004229 193.767640 L 253.727229 191.125640 L 253.445229 188.484640 L 253.122229 185.847640 L 252.790229 183.212640 L 252.422229 180.581640 L 252.038229 177.953640 L 251.623229 175.329640 L 251.183229 172.710640 L 250.710229 170.096640 L 250.232229 167.483640 L 249.749229 164.871640 L 249.174229 162.278640 L 248.550229 159.696640 L 247.806229 157.147640 L 247.027229 154.607640 L 246.149229 152.100640 L 245.259229 149.598640" fill="none" id="31" stroke="#658424" stroke-width="0.5" /><path d="M 48.906129 33.455940 L 48.994429 35.312740 L 49.085229 37.169540 L 49.178629 39.026140 L 49.276629 40.882440 L 49.379229 42.738540 L 49.485229 44.594540 L 49.595429 46.450140 L 49.710429 48.305540 L 49.828729 50.160740 L 49.950329 52.015740 L 50.077629 53.870340 L 50.208229 55.724640 L 50.342029 57.578840 L 50.480729 59.432540 L 50.623529 61.286040 L 50.769629 63.139240 L 50.919729 64.992140 L 51.074829 66.844540 L 51.233129 68.696740 L 51.394629 70.548640 L 51.562029 72.400040 L 51.732829 74.251140 L 51.907029 76.101940 L 52.086229 77.952240 L 52.269429 79.802140 L 52.456029 81.651640 L 52.647129 83.500740 L 52.842629 85.349440 L 53.040729 87.197840 L 53.241129 89.045940" fill="none" id="32" stroke="#f1b9ff" stroke-width="0.5" /><path d="M 52.536129 34.685940 L 52.732829 36.667240 L 52.932529 38.648240 L 53.135529 40.629040 L 53.342829 42.609240 L 53.556429 44.588840 L 53.774229 46.567940 L 53.995829 48.546640 L 54.222629 50.524840 L 54.454529 52.502340 L 54.690429 54.479440 L 54.930229 56.455940 L 55.175729 58.431840 L 55.425729 60.407240 L 55.679729 62.382040 L 55.937629 64.356340 L 56.201829 66.329840 L 56.470029 68.302740 L 56.742029 70.275140 L 57.018729 72.246940 L 57.300929 74.217840 L 57.587129 76.188240 L 57.877329 78.158140 L 58.172529 80.127140 L 58.472829 82.095540 L 58.777029 84.063240 L 59.085229 86.030240 L 59.399829 87.996340 L 59.718729 89.961740 L 60.040929 91.926540 L 60.366129 93.890940" fill="none" id="33" stroke="#989c37" stroke-width="0.5" /><path d="M 61.281129 27.350940 L 61.539929 29.801840 L 61.792629 32.253440 L 62.037829 34.705740 L 62.274229 37.158940 L 62.502029 39.612940 L 62.721729 42.067740 L 62.933129 44.523240 L 63.136329 46.979340 L 63.331329 49.436240 L 63.518229 51.893640 L 63.695829 54.351840 L 63.865229 56.810540 L 64.026329 59.269840 L 64.179329 61.729640 L 64.324129 64.189940 L 64.460629 66.650740 L 64.589029 69.111940 L 64.709129 71.573640 L 64.821029 74.035640 L 64.924729 76.498040 L 65.019129 78.960740 L 65.105229 81.423840 L 65.182829 83.887140 L 65.252129 86.350740 L 65.313129 88.814540 L 65.365929 91.278540 L 65.410129 93.742740 L 65.445729 96.207040 L 65.473929 98.671440 L 65.496129 101.135640" fill="none" id="34" stroke="#cfe395" stroke-width="0.5" /><path d="M 67.596129 28.595940 L 67.756129 30.934440 L 67.916129 33.272940 L 68.076129 35.611440 L 68.236129 37.949940 L 68.396129 40.288440 L 68.556129 42.626940 L 68.716129 44.965440 L 68.876129 47.303940 L 69.036129 49.642440 L 69.196129 51.980940 L 69.356129 54.319440 L 69.516129 56.657940 L 69.676129 58.996440 L 69.836129 61.334940 L 69.996129 63.673440 L 70.156129 66.011940 L 70.316129 68.350440 L 70.476129 70.688940 L 70.636129 73.027440 L 70.796129 75.365940 L 70.956129 77.704440 L 71.116129 80.042940 L 71.276129 82.381440 L 71.436129 84.719940 L 71.596129 87.058440 L 71.756129 89.396940 L 71.916129 91.735440 L 72.076129 94.073940 L 72.236129 96.412440 L 72.396129 98.750940" fill="none" id="35" stroke="#c45372" stroke-width="0.5" /><path d="M 72.531129 26.135940 L 72.979129 28.785340 L 73.422029 31.435640 L 73.858529 34.087040 L 74.287429 36.739640 L 74.709429 39.393340 L 75.124729 42.048140 L 75.533129 44.704040 L 75.934629 47.360940 L 76.329429 50.018840 L 76.717329 52.677740 L 77.098429 55.337640 L 77.472729 57.998540 L 77.840129 60.660340 L 78.200729 63.323140 L 78.554429 65.986740 L 78.900829 68.651440 L 79.240429 71.316940 L 79.573129 73.983340 L 79.898929 76.650540 L 80.218029 79.318640 L 80.530129 81.987540 L 80.835529 84.657140 L 81.133929 87.327640 L 81.425629 89.998840 L 81.710429 92.670740 L 81.988329 95.343340 L 82.259329 98.016740 L 82.522529 100.690940 L 82.779429 103.365640 L 83.031129 106.040640" fill="none" id="36" stroke="#008c6f" stroke-width="0.5" /><path d="M 79.446129 24.980940 L 79.930629 27.619140 L 80.410129 30.258340 L 80.883229 32.898740 L 81.348829 35.540440 L 81.807729 38.183240 L 82.259829 40.827240 L 82.705229 43.472440 L 83.143829 46.118740 L 83.575729 48.766140 L 84.000929 51.414640 L 84.419329 54.064240 L 84.830929 56.714840 L 85.235829 59.366540 L 85.633929 62.019140 L 86.025229 64.672840 L 86.409629 67.327640 L 86.786929 69.983340 L 87.157429 72.640040 L 87.521229 75.297640 L 87.878229 77.956140 L 88.228429 80.615640 L 88.571829 83.275940 L 88.908529 85.937140 L 89.238329 88.599140 L 89.561229 91.262040 L 89.877229 93.925740 L 90.186329 96.590340 L 90.488729 99.255640 L 90.783629 101.921640 L 91.072429 104.588640 L 91.356129 107.255640" fill="none" id="37" stroke="#ff94af" stroke-width="0.5" /><path d="M 95.121129 21.350940 L 95.334629 23.365940 L 95.548129 25.380940 L 95.761629 27.395940 L 95.975129 29.410940 L 96.188629 31.425940 L 96.402129 33.440940 L 96.615629 35.455940 L 96.829129 37.470940 L 97.042629 39.485940 L 97.256129 41.500940 L 97.469629 43.515940 L 97.683129 45.530940 L 97.896629 47.545940 L 98.110129 49.560940 L 98.323629 51.575940 L 98.537129 53.590940 L 98.750629 55.605940 L 98.964129 57.620940 L 99.177629 59.635940 L 99.391129 61.650940 L 99.604629 63.665940 L 99.818129 65.680940 L 100.031629 67.695940 L 100.245129 69.710940 L 100.458629 71.725940 L 100.672129 73.740940 L 100.885229 75.755940 L 101.099229 77.770940 L 101.312229 79.785940 L 101.526229 81.800940" fill="none" id="38" stroke="#488656" stroke-width="0.5" /><path d="M 156.726229 196.685640 L 156.470229 197.493640 L 156.230229 198.304640 L 156.045229 199.131640 L 155.901229 199.964640 L 155.811229 200.806640 L 155.787229 201.651640 L 155.797229 202.498640 L 155.887229 203.340640 L 155.999229 204.179640 L 156.208229 204.999640 L 156.444229 205.812640 L 156.743229 206.604640 L 157.103229 207.368640 L 157.517229 208.107640 L 158.280229 208.086640 L 158.938229 207.742640 L 159.122229 206.916640 L 159.270229 206.083640 L 159.380229 205.243640 L 159.445229 204.399640 L 159.492229 203.553640 L 159.471229 202.707640 L 159.425229 201.863640 L 159.258229 201.032640 L 159.062229 200.209640 L 158.812229 199.400640 L 158.531229 198.602640 L 158.227229 197.812640 L 157.886229 197.036640 L 157.536229 196.265640" fill="none" id="39" stroke="#a9d0ff" stroke-width="0.5" /><path d="M 133.671229 191.480640 L 133.066229 191.837640 L 132.467229 192.203640 L 131.874229 192.580640 L 131.306229 192.993640 L 130.747229 193.418640 L 130.198229 193.856640 L 129.678229 194.328640 L 129.166229 194.809640 L 128.663229 195.298640 L 128.194229 195.821640 L 127.737229 196.354640 L 127.290229 196.896640 L 127.262229 197.561640 L 127.580229 198.135640 L 128.140229 198.437640 L 128.808229 198.221640 L 129.476229 198.005640 L 130.133229 197.763640 L 130.740229 197.410640 L 131.282229 196.970640 L 131.792229 196.486640 L 132.299229 196.001640 L 132.699229 195.433640 L 133.028229 194.813640 L 133.305229 194.168640 L 133.541229 193.507640 L 133.742229 192.835640 L 133.783229 192.134640 L 133.761229 190.730640" fill="none" id="40" stroke="#a98c2c" stroke-width="0.5" /><path d="M 173.826229 159.245640 L 174.100229 160.306640 L 174.369229 161.369640 L 174.551229 162.449640 L 174.724229 163.531640 L 174.789229 164.625640 L 174.844229 165.719640 L 174.770229 166.812640 L 174.690229 167.905640 L 174.528229 168.989640 L 174.361229 170.072640 L 174.117229 171.140640 L 173.868229 172.207640 L 173.546229 173.255640 L 173.220229 174.301640 L 172.820229 175.321640 L 172.417229 176.340640 L 171.930229 177.322640 L 171.441229 178.302640 L 170.883229 179.246640 L 170.323229 180.188640 L 169.697229 181.087640 L 169.070229 181.986640 L 168.374229 182.832640 L 167.676229 183.677640 L 166.909229 184.459640 L 166.140229 185.241640 L 165.321229 185.969640 L 164.502229 186.697640 L 163.644229 187.379640 L 162.786229 188.060640" fill="none" id="41" stroke="#0294bb" stroke-width="0.5" /><path d="M 127.446229 160.355640 L 127.179229 161.939640 L 126.965229 163.529640 L 126.824229 165.129640 L 126.818229 166.734640 L 126.887229 168.337640 L 127.097229 169.929640 L 127.422229 171.500640 L 127.816229 173.056640 L 128.357229 174.568640 L 128.980229 176.046640 L 129.678229 177.492640 L 130.518229 178.861640 L 131.416229 180.190640 L 132.403229 181.457640 L 133.495229 182.633640 L 134.640229 183.756640 L 135.882229 184.774640 L 137.190229 185.702640 L 138.542229 186.569640 L 139.974229 187.296640 L 141.438229 187.950640 L 142.939229 188.521640 L 144.487229 188.948640 L 146.051229 189.304640 L 147.638229 189.547640 L 149.239229 189.650640 L 150.843229 189.679640 L 152.446229 189.575640 L 154.041229 189.399640 L 155.631229 189.170640" fill="none" id="42" stroke="#d7b555" stroke-width="0.5" /><path d="M 133.461229 261.350640 L 134.600229 262.291640 L 135.751229 263.218640 L 136.937229 264.100640 L 138.149229 264.944640 L 139.390229 265.747640 L 140.672229 266.481640 L 141.971229 267.185640 L 143.312229 267.805640 L 144.663229 268.402640 L 146.047229 268.922640 L 147.443229 269.403640 L 148.859229 269.827640 L 150.291229 270.187640 L 151.733229 270.513640 L 153.191229 270.751640 L 154.653229 270.965640 L 156.126229 271.090640 L 157.600229 271.179640 L 159.078229 271.203640 L 160.554229 271.167640 L 162.030229 271.089640 L 163.499229 270.928640 L 164.965229 270.743640 L 166.416229 270.462640 L 167.859229 270.148640 L 169.283229 269.753640 L 170.692229 269.310640 L 172.088229 268.824640 L 173.462229 268.283640 L 174.831229 267.725640" fill="none" id="43" stroke="#4a7ea6" stroke-width="0.5" /><path d="M 170.211229 267.440640 L 169.243229 267.473640 L 168.275229 267.505640 L 167.307229 267.538640 L 166.339229 267.570640 L 165.371229 267.603640 L 164.403229 267.635640 L 163.435229 267.668640 L 162.467229 267.700640 L 161.499229 267.733640 L 160.531229 267.765640 L 159.563229 267.798640 L 158.595229 267.830640 L 157.627229 267.863640 L 156.659229 267.895640 L 155.691229 267.928640 L 154.723229 267.960640 L 153.755229 267.993640 L 152.787229 268.025640 L 151.819229 268.058640 L 150.851229 268.090640 L 149.883229 268.123640 L 148.915229 268.155640 L 147.947229 268.188640 L 146.979229 268.220640 L 146.011229 268.253640 L 145.043229 268.285640 L 144.075229 268.318640 L 143.107229 268.350640 L 142.139229 268.383640 L 141.171229 268.415640" fill="none" id="44" stroke="#4a7ea6" stroke-width="0.5" /><path d="M 134.961229 252.590640 L 135.960229 253.240640 L 136.959229 253.891640 L 137.988229 254.491640 L 139.023229 255.083640 L 140.085229 255.622640 L 141.159229 256.139640 L 142.256229 256.602640 L 143.370229 257.026640 L 144.497229 257.412640 L 145.640229 257.750640 L 146.790229 258.062640 L 147.955229 258.311640 L 149.123229 258.548640 L 150.304229 258.708640 L 151.486229 258.868640 L 152.675229 258.938640 L 153.865229 259.008640 L 155.057229 259.000640 L 156.249229 258.979640 L 157.437229 258.894640 L 158.624229 258.782640 L 159.803229 258.620640 L 160.978229 258.418640 L 162.144229 258.174640 L 163.297229 257.873640 L 164.443229 257.547640 L 165.572229 257.164640 L 166.697229 256.771640 L 167.801229 256.323640 L 168.906229 255.875640" fill="none" id="45" stroke="#ffa372" stroke-width="0.5" /><path d="M 170.196229 254.990640 L 169.100229 255.023640 L 168.004229 255.056640 L 166.909229 255.097640 L 165.813229 255.139640 L 164.718229 255.192640 L 163.624229 255.245640 L 162.529229 255.311640 L 161.435229 255.377640 L 160.342229 255.455640 L 159.248229 255.533640 L 158.156229 255.623640 L 157.063229 255.712640 L 155.971229 255.814640 L 154.880229 255.916640 L 153.790229 256.030640 L 152.699229 256.145640 L 151.611229 256.273640 L 150.522229 256.400640 L 149.434229 256.539640 L 148.347229 256.679640 L 147.261229 256.830640 L 146.176229 256.981640 L 145.091229 257.144640 L 144.007229 257.306640 L 142.925229 257.483640 L 141.843229 257.659640 L 140.763229 257.846640 L 139.683229 258.033640 L 138.604229 258.229640 L 137.526229 258.425640" fill="none" id="46" stroke="#96ddff" stroke-width="0.5" /><path d="M 230.631229 176.705640 L 231.280229 176.761640 L 231.929229 176.817640 L 232.579229 176.859640 L 233.229229 176.901640 L 233.880229 176.926640 L 234.531229 176.950640 L 235.183229 176.953640 L 235.834229 176.956640 L 236.486229 176.949640 L 237.137229 176.942640 L 237.787229 176.904640 L 238.438229 176.866640 L 239.087229 176.818640 L 239.737229 176.770640 L 240.385229 176.701640 L 241.033229 176.633640 L 241.678229 176.542640 L 242.323229 176.452640 L 242.966229 176.350640 L 243.610229 176.249640 L 244.247229 176.112640 L 244.884229 175.976640 L 245.519229 175.829640 L 246.153229 175.681640 L 246.782229 175.513640 L 247.412229 175.344640 L 248.037229 175.162640 L 248.662229 174.979640 L 249.906229 174.590640" fill="none" id="47" stroke="#b06735" stroke-width="0.5" /><path d="M 233.106229 187.130640 L 233.711229 187.010640 L 234.316229 186.889640 L 234.921229 186.769640 L 235.526229 186.648640 L 236.131229 186.528640 L 236.736229 186.407640 L 237.341229 186.287640 L 237.946229 186.166640 L 238.551229 186.046640 L 239.156229 185.925640 L 239.761229 185.805640 L 240.366229 185.684640 L 240.971229 185.564640 L 241.576229 185.443640 L 242.181229 185.323640 L 242.786229 185.202640 L 243.391229 185.082640 L 243.996229 184.961640 L 244.601229 184.841640 L 245.206229 184.720640 L 245.811229 184.600640 L 246.416229 184.479640 L 247.021229 184.359640 L 247.626229 184.238640 L 248.231229 184.118640 L 248.836229 183.997640 L 249.441229 183.877640 L 250.046229 183.756640 L 250.651229 183.636640 L 251.256229 183.515640" fill="none" id="48" stroke="#bae0f9" stroke-width="0.5" /><path d="M 233.091229 202.430640 L 233.705229 202.412640 L 234.320229 202.393640 L 234.934229 202.363640 L 235.548229 202.334640 L 236.161229 202.291640 L 236.775229 202.248640 L 237.387229 202.189640 L 237.999229 202.130640 L 238.610229 202.063640 L 239.221229 201.997640 L 239.829229 201.906640 L 240.437229 201.816640 L 241.044229 201.717640 L 241.651229 201.618640 L 242.254229 201.501640 L 242.858229 201.384640 L 243.457229 201.248640 L 244.057229 201.112640 L 244.654229 200.966640 L 245.252229 200.821640 L 245.842229 200.651640 L 246.433229 200.480640 L 247.022229 200.303640 L 247.610229 200.125640 L 248.194229 199.932640 L 248.778229 199.740640 L 249.358229 199.536640 L 249.938229 199.332640 L 251.091229 198.905640" fill="none" id="49" stroke="#b76246" stroke-width="0.5" /><path d="M 233.076229 214.535640 L 233.604229 214.534640 L 234.133229 214.532640 L 234.661229 214.523640 L 235.189229 214.513640 L 235.717229 214.490640 L 236.245229 214.466640 L 236.772229 214.433640 L 237.299229 214.401640 L 237.826229 214.352640 L 238.352229 214.304640 L 238.877229 214.247640 L 239.402229 214.191640 L 239.926229 214.120640 L 240.450229 214.050640 L 240.971229 213.966640 L 241.493229 213.882640 L 242.012229 213.784640 L 242.532229 213.687640 L 243.047229 213.572640 L 243.563229 213.456640 L 244.076229 213.330640 L 244.589229 213.204640 L 245.098229 213.063640 L 245.607229 212.922640 L 246.114229 212.773640 L 246.621229 212.623640 L 247.124229 212.463640 L 247.628229 212.303640 L 248.631229 211.970640" fill="none" id="50" stroke="#b0e4e9" stroke-width="0.5" /><path d="M 218.631229 239.225640 L 220.023229 239.174640 L 221.415229 239.118640 L 222.806229 239.032640 L 224.196229 238.936640 L 225.583229 238.807640 L 226.968229 238.658640 L 228.350229 238.478640 L 229.728229 238.275640 L 231.103229 238.049640 L 232.473229 237.794640 L 233.839229 237.523640 L 235.198229 237.218640 L 236.555229 236.901640 L 237.902229 236.546640 L 239.248229 236.185640 L 240.581229 235.779640 L 241.912229 235.369640 L 243.231229 234.919640 L 244.546229 234.459640 L 245.849229 233.966640 L 247.146229 233.458640 L 248.433229 232.922640 L 249.710229 232.366640 L 250.978229 231.788640 L 252.231229 231.181640 L 253.477229 230.556640 L 254.707229 229.902640 L 255.932229 229.239640 L 257.143229 228.549640 L 258.351229 227.855640" fill="none" id="51" stroke="#ff9b9c" stroke-width="0.5" /><path d="M 222.201229 252.515640 L 223.526229 252.510640 L 224.851229 252.500640 L 226.175229 252.456640 L 227.499229 252.400640 L 228.820229 252.309640 L 230.140229 252.196640 L 231.457229 252.047640 L 232.770229 251.873640 L 234.080229 251.674640 L 235.385229 251.443640 L 236.686229 251.193640 L 237.979229 250.906640 L 239.270229 250.607640 L 240.550229 250.264640 L 241.828229 249.915640 L 243.091229 249.515640 L 244.352229 249.109640 L 245.598229 248.658640 L 246.839229 248.194640 L 248.065229 247.692640 L 249.284229 247.173640 L 250.490229 246.624640 L 251.685229 246.053640 L 252.869229 245.458640 L 254.037229 244.832640 L 255.194229 244.188640 L 256.335229 243.513640 L 257.469229 242.829640 L 258.586229 242.117640 L 259.701229 241.400640" fill="none" id="52" stroke="#378673" stroke-width="0.5" /><path d="M 227.274229 153.839640 L 227.745229 154.418640 L 228.216229 154.997640 L 228.735229 155.533640 L 229.254229 156.069640 L 229.824229 156.550640 L 230.395229 157.031640 L 231.029229 157.425640 L 231.663229 157.818640 L 232.375229 158.041640 L 233.087229 158.264640 L 233.812229 158.442640 L 234.537229 158.619640 L 235.273229 158.738640 L 236.010229 158.856640 L 236.754229 158.804640 L 237.499229 158.750640 L 238.226229 158.582640 L 238.952229 158.412640 L 239.645229 158.135640 L 240.338229 157.857640 L 240.977229 157.471640 L 241.615229 157.086640 L 242.169229 156.585640 L 242.721229 156.083640 L 243.199229 155.510640 L 243.675229 154.935640 L 244.076229 154.306640 L 244.477229 153.677640 L 244.814229 153.011640 L 245.151229 152.345640" fill="none" id="53" stroke="#ffa98e" stroke-width="0.5" /><path d="M 185.251229 247.619640 L 186.087229 247.625640 L 186.923229 247.630640 L 187.759229 247.634640 L 188.595229 247.639640 L 189.432229 247.646640 L 190.268229 247.649640 L 191.104229 247.644640 L 191.940229 247.632640 L 192.776229 247.613640 L 193.612229 247.585640 L 194.447229 247.553640 L 195.282229 247.506640 L 196.116229 247.454640 L 196.950229 247.387640 L 197.783229 247.318640 L 198.615229 247.236640 L 199.447229 247.151640 L 200.277229 247.051640 L 201.107229 246.945640 L 201.934229 246.824640 L 202.760229 246.696640 L 203.585229 246.560640 L 204.409229 246.416640 L 205.231229 246.262640 L 206.050229 246.096640 L 206.868229 245.922640 L 207.684229 245.740640 L 208.500229 245.555640 L 209.313229 245.361640 L 210.126229 245.165640" fill="none" id="54" stroke="#6a79a2" stroke-width="0.5" /><path d="M 187.281229 259.160640 L 188.245229 259.399640 L 189.209229 259.637640 L 190.182229 259.841640 L 191.154229 260.044640 L 192.135229 260.203640 L 193.115229 260.363640 L 194.103229 260.468640 L 195.091229 260.574640 L 196.082229 260.631640 L 197.074229 260.689640 L 198.067229 260.683640 L 199.061229 260.677640 L 200.052229 260.622640 L 201.044229 260.568640 L 202.032229 260.466640 L 203.020229 260.363640 L 204.002229 260.213640 L 204.984229 260.063640 L 205.958229 259.866640 L 206.931229 259.669640 L 207.890229 259.409640 L 208.849229 259.149640 L 209.794229 258.844640 L 210.739229 258.538640 L 211.666229 258.181640 L 212.593229 257.824640 L 213.503229 257.425640 L 214.412229 257.025640 L 215.307229 256.593640 L 216.201229 256.160640" fill="none" id="55" stroke="#ffcca9" stroke-width="0.5" /><path d="M 205.806229 239.870640 L 206.093229 238.766640 L 206.689229 237.935640 L 207.431229 238.600640 L 207.735229 239.639640 L 207.717229 240.780640 L 207.745229 241.919640 L 207.820229 243.057640 L 207.896229 244.195640 L 207.971229 245.333640 L 208.047229 246.472640 L 208.122229 247.610640 L 208.197229 248.748640 L 208.273229 249.886640 L 208.348229 251.024640 L 208.424229 252.162640 L 208.499229 253.300640 L 208.575229 254.438640 L 208.650229 255.577640 L 208.726229 256.715640 L 208.801229 257.853640 L 208.876229 258.991640 L 208.952229 260.129640 L 209.027229 261.267640 L 209.098229 262.405640 L 209.110229 263.546640 L 209.117229 264.686640 L 209.037229 265.824640 L 208.954229 266.962640 L 208.811229 268.093640 L 208.668229 269.225640" fill="none" id="56" stroke="#53827e" stroke-width="0.5" /><path d="M 173.606229 247.798640 L 173.474229 248.782640 L 173.342229 249.767640 L 173.278229 250.759640 L 173.216229 251.751640 L 173.255229 252.744640 L 173.297229 253.736640 L 173.402229 254.724640 L 173.508229 255.713640 L 173.614229 256.701640 L 173.719229 257.689640 L 173.825229 258.677640 L 173.931229 259.665640 L 174.036229 260.653640 L 174.142229 261.641640 L 174.248229 262.629640 L 174.353229 263.617640 L 174.459229 264.605640 L 174.565229 265.593640 L 174.670229 266.581640 L 174.776229 267.570640 L 174.882229 268.558640 L 174.987229 269.546640 L 175.093229 270.534640 L 175.199229 271.522640 L 175.305229 272.510640 L 175.410229 273.498640 L 175.516229 274.486640 L 175.622229 275.474640 L 175.833229 277.450640" fill="none" id="57" stroke="#ffcdcf" stroke-width="0.5" /><path d="M 181.671229 239.355640 L 181.794229 240.881640 L 181.908229 242.408640 L 182.003229 243.936640 L 182.070229 245.466640 L 182.124229 246.996640 L 182.145229 248.527640 L 182.173229 250.058640 L 182.215229 251.588640 L 182.271229 253.118640 L 182.334229 254.648640 L 182.418229 256.177640 L 182.509229 257.706640 L 182.614229 259.233640 L 182.733229 260.760640 L 182.859229 262.285640 L 183.005229 263.810640 L 183.159229 265.333640 L 183.327229 266.855640 L 183.508229 268.375640 L 183.697229 269.895640 L 183.906229 271.411640 L 184.123229 272.927640 L 184.354229 274.441640 L 184.600229 275.952640 L 184.854229 277.462640 L 185.130229 278.968640 L 185.412229 280.473640 L 185.707229 281.975640 L 186.011229 283.476640 L 186.321229 284.975640" fill="none" id="58" stroke="#648168" stroke-width="0.5" /><path d="M 264.846229 275.450640 L 264.689229 280.444640 L 263.874229 285.373640 L 262.253229 290.098640 L 259.736229 294.414640 L 256.639229 298.334640 L 253.059229 301.818640 L 249.098229 304.863640 L 244.892229 307.560640 L 240.505229 309.952640 L 235.978229 312.066640 L 231.368229 313.993640 L 226.687229 315.740640 L 222.005229 317.484640 L 217.264229 319.059640 L 212.487229 320.523640 L 207.673229 321.862640 L 202.830229 323.089640 L 197.959229 324.203640 L 193.061229 325.190640 L 188.142229 326.063640 L 183.203229 326.821640 L 178.247229 327.451640 L 173.277229 327.966640 L 168.296229 328.365640 L 163.307229 328.634640 L 158.313229 328.787640 L 153.317229 328.824640 L 148.322229 328.731640 L 143.330229 328.522640 L 138.344229 328.198640 L 133.368229 327.743640 L 128.404229 327.173640 L 123.455229 326.488640 L 118.525229 325.675640 L 113.616229 324.747640 L 108.729229 323.705640 L 103.871229 322.537640 L 99.046529 321.240640 L 94.251029 319.837640 L 89.481129 318.350640" fill="none" id="59" stroke="#e7d3fa" stroke-width="0.5" /><path d="M 95.166129 312.845640 L 99.355129 315.362640 L 103.651229 317.691640 L 108.067229 319.782640 L 112.613229 321.573640 L 117.252229 323.106640 L 121.965229 324.397640 L 126.736229 325.452640 L 131.552229 326.273640 L 136.400229 326.884640 L 141.268229 327.300640 L 146.149229 327.521640 L 151.035229 327.568640 L 155.920229 327.458640 L 160.799229 327.191640 L 165.668229 326.784640 L 170.526229 326.250640 L 175.367229 325.592640 L 180.193229 324.822640 L 185.001229 323.949640 L 189.785229 322.956640 L 194.555229 321.892640 L 199.311229 320.770640 L 204.038229 319.535640 L 208.739229 318.199640 L 213.406229 316.751640 L 218.029229 315.170640 L 222.602229 313.447640 L 227.111229 311.566640 L 231.538229 309.498640 L 235.870229 307.240640 L 240.085229 304.769640 L 244.145229 302.052640 L 248.031229 299.090640 L 251.704229 295.869640 L 255.104229 292.362640 L 258.157229 288.547640 L 260.892229 284.498640 L 263.361229 280.280640" fill="none" id="60" stroke="#e7d3fa" stroke-width="0.5" /><path d="M 264.456229 277.505640 L 261.212229 281.251640 L 257.869229 284.908640 L 254.406229 288.452640 L 250.802229 291.852640 L 247.083229 295.126640 L 243.250229 298.267640 L 239.305229 301.265640 L 235.259229 304.124640 L 231.114229 306.837640 L 226.873229 309.399640 L 222.545229 311.812640 L 218.134229 314.067640 L 213.645229 316.164640 L 209.085229 318.102640 L 204.459229 319.875640 L 199.772229 321.482640 L 195.032229 322.923640 L 190.243229 324.193640 L 185.412229 325.292640 L 180.545229 326.221640 L 175.648229 326.973640 L 170.728229 327.552640 L 165.790229 327.958640 L 160.841229 328.184640 L 155.887229 328.235640 L 150.934229 328.113640 L 145.988229 327.810640 L 141.057229 327.335640 L 136.145229 326.685640 L 131.260229 325.857640 L 126.407229 324.860640 L 121.592229 323.691640 L 116.823229 322.348640 L 112.103229 320.840640 L 107.440229 319.164640 L 102.848229 317.303640 L 98.319629 315.291640 L 93.846129 313.160640" fill="none" id="61" stroke="#e7d3fa" stroke-width="0.5" /><path d="M 93.816129 313.055640 L 97.890629 315.910640 L 102.263229 318.280640 L 106.953229 319.939640 L 111.824229 320.952640 L 116.728229 321.786640 L 121.655229 322.477640 L 126.601229 323.012640 L 131.565229 323.345640 L 136.530229 323.673640 L 141.504229 323.783640 L 146.479229 323.758640 L 151.451229 323.596640 L 156.417229 323.288640 L 161.372229 322.849640 L 166.314229 322.274640 L 171.238229 321.559640 L 176.141229 320.716640 L 181.019229 319.740640 L 185.869229 318.628640 L 190.687229 317.391640 L 195.471229 316.023640 L 200.215229 314.523640 L 204.918229 312.902640 L 209.575229 311.152640 L 214.182229 309.274640 L 218.739229 307.277640 L 223.238229 305.153640 L 227.677229 302.906640 L 232.055229 300.542640 L 236.363229 298.054640 L 240.600229 295.446640 L 244.765229 292.726640 L 248.848229 289.883640 L 252.849229 286.926640 L 256.766229 283.859640 L 260.578229 280.661640 L 264.301229 277.361640 L 267.951229 273.980640" fill="none" id="62" stroke="#e7d3fa" stroke-width="0.5" /><path d="M 266.916229 67.340940 L 266.834229 72.325140 L 266.752229 77.309340 L 266.671229 82.293640 L 266.589229 87.277840 L 266.507229 92.262040 L 266.425229 97.246240 L 266.344229 102.230640 L 266.262229 107.214640 L 266.180229 112.198640 L 266.098229 117.183640 L 266.017229 122.167640 L 265.935229 127.151640 L 265.853229 132.135640 L 265.771229 137.119640 L 265.690229 142.104640 L 265.608229 147.088640 L 265.526229 152.072640 L 265.444229 157.056640 L 265.363229 162.041640 L 265.281229 167.025640 L 265.199229 172.009640 L 265.117229 176.993640 L 265.036229 181.978640 L 264.954229 186.962640 L 264.872229 191.946640 L 264.790229 196.930640 L 264.708229 201.914640 L 264.627229 206.899640 L 264.545229 211.883640 L 264.463229 216.867640 L 264.381229 221.851640 L 264.300229 226.836640 L 264.218229 231.820640 L 264.136229 236.804640 L 264.054229 241.788640 L 263.973229 246.773640 L 263.891229 251.757640 L 263.809229 256.741640 L 263.727229 261.725640 L 263.359229 266.689640 L 262.473229 271.589640 L 261.111229 276.380640" fill="none" id="63" stroke="#e7d3fa" stroke-width="0.5" /><path d="M 261.741229 64.850940 L 261.704229 69.759840 L 261.669229 74.668840 L 261.638229 79.577840 L 261.610229 84.486840 L 261.585229 89.395840 L 261.564229 94.304940 L 261.547229 99.213940 L 261.532229 104.122640 L 261.521229 109.031640 L 261.513229 113.941640 L 261.509229 118.850640 L 261.508229 123.759640 L 261.510229 128.668640 L 261.516229 133.577640 L 261.525229 138.486640 L 261.537229 143.395640 L 261.553229 148.304640 L 261.572229 153.213640 L 261.594229 158.122640 L 261.620229 163.031640 L 261.648229 167.940640 L 261.681229 172.849640 L 261.716229 177.758640 L 261.756229 182.667640 L 261.798229 187.576640 L 261.844229 192.485640 L 261.893229 197.394640 L 261.945229 202.303640 L 262.001229 207.211640 L 262.060229 212.120640 L 262.122229 217.029640 L 262.188229 221.937640 L 262.257229 226.846640 L 262.329229 231.755640 L 262.405229 236.663640 L 262.484229 241.572640 L 262.566229 246.480640 L 262.652229 251.388640 L 262.741229 256.297640 L 262.834229 261.205640 L 262.929229 266.113640 L 263.029229 271.021640 L 263.132229 275.929640 L 263.237229 280.837640" fill="none" id="64" stroke="#e7d3fa" stroke-width="0.5" /><path d="M 263.511229 68.540940 L 263.366229 70.471940 L 263.225229 72.403340 L 263.090229 74.335140 L 262.962229 76.267340 L 262.844229 78.200240 L 262.732229 80.133540 L 262.626229 82.067140 L 262.529229 84.001140 L 262.439229 85.935640 L 262.356229 87.870340 L 262.280229 89.805340 L 262.212229 91.740640 L 262.152229 93.676140 L 262.098229 95.611940 L 262.050229 97.547840 L 262.012229 99.483940 L 261.980229 101.420640 L 261.955229 103.356640 L 261.938229 105.292640 L 261.930229 107.229640 L 261.928229 109.165640 L 261.933229 111.102640 L 261.945229 113.038640 L 261.966229 114.975640 L 261.994229 116.911640 L 262.027229 118.847640 L 262.071229 120.783640 L 262.121229 122.719640 L 262.176229 124.655640 L 262.236229 126.590640" fill="none" id="65" stroke="#e7d3fa" stroke-width="0.5" /><path d="M 239.631229 23.270940 L 241.015229 24.691240 L 242.367229 26.141840 L 243.682229 27.625340 L 244.954229 29.147340 L 246.149229 30.729540 L 247.297229 32.346440 L 248.396229 33.996640 L 249.439229 35.683040 L 250.412229 37.411140 L 251.333229 39.166940 L 252.201229 40.949340 L 253.006229 42.761840 L 253.739229 44.604440 L 254.417229 46.467640 L 255.039229 48.350340 L 255.590229 50.255340 L 256.070229 52.179240 L 256.492229 54.116440 L 256.857229 56.065540 L 257.144229 58.027740 L 257.359229 59.998840 L 257.513229 61.975540 L 257.607229 63.956240 L 257.618229 65.939440 L 257.563229 67.921440 L 257.449229 69.900840 L 257.277229 71.876340 L 257.010229 73.841540 L 256.687229 75.797840 L 256.318229 77.745940 L 255.906229 79.685940" fill="none" id="66" stroke="#e7d3fa" stroke-width="0.5" /><path d="M 256.131229 41.885940 L 256.525229 43.343940 L 256.908229 44.804640 L 257.271229 46.270740 L 257.607229 47.743040 L 257.930229 49.218340 L 258.206229 50.703240 L 258.468229 52.190540 L 258.701229 53.682740 L 258.906229 55.178940 L 259.096229 56.677140 L 259.244229 58.180140 L 259.378229 59.684340 L 259.483229 61.191040 L 259.559229 62.699240 L 259.621229 64.208240 L 259.636229 65.718440 L 259.636229 67.228640 L 259.605229 68.738540 L 259.546229 70.247540 L 259.472229 71.756040 L 259.355229 73.261840 L 259.224229 74.766240 L 259.064229 76.268040 L 258.876229 77.766440 L 258.673229 79.263040 L 258.424229 80.752540 L 258.160229 82.239640 L 257.871229 83.721940 L 257.561229 85.200040 L 257.241229 86.675940" fill="none" id="67" stroke="#e7d3fa" stroke-width="0.5" /><path d="M 240.186229 29.900940 L 242.073229 30.345240 L 243.932229 30.889340 L 245.755229 31.544440 L 247.527229 32.330040 L 249.197229 33.314340 L 250.798229 34.403740 L 252.329229 35.590940 L 253.777229 36.879840 L 255.118229 38.279240 L 256.380229 39.748540 L 257.563229 41.283340 L 258.649229 42.889440 L 259.622229 44.565640 L 260.508229 46.288540 L 261.305229 48.054940 L 261.987229 49.869540 L 262.559229 51.721540 L 263.050229 53.596040 L 263.464229 55.489640 L 263.783229 57.401940 L 264.021229 59.325540 L 264.195229 61.255940 L 264.308229 63.191240 L 264.342229 65.129640 L 264.317229 67.067940 L 264.243229 69.005040 L 264.124229 70.940040 L 263.938229 72.869940 L 263.716229 74.795740 L 263.463229 76.717740 L 263.181229 78.635940" fill="none" id="68" stroke="#e7d3fa" stroke-width="0.5" /><path d="M 20.196129 129.005640 L 20.196129 129.591640 L 20.196129 130.177640 L 20.196129 130.763640 L 20.196129 131.349640 L 20.196129 131.935640 L 20.196129 132.521640 L 20.196129 133.107640 L 20.196129 133.694640 L 20.196129 134.280640 L 20.196129 134.866640 L 20.196129 135.452640 L 20.196129 136.038640 L 20.196129 136.624640 L 20.196129 137.210640 L 20.196129 137.796640 L 20.196129 138.382640 L 20.196129 138.968640 L 20.196129 139.554640 L 20.196129 140.140640 L 20.196129 140.726640 L 20.196029 141.312640 L 20.196029 141.898640 L 20.195529 142.484640 L 20.194929 143.070640 L 20.194029 143.656640 L 20.193029 144.242640 L 20.189829 144.828640 L 20.186629 145.414640 L 20.177629 146.586640" fill="none" id="69" stroke="#e7d3fa" stroke-width="0.5" /><path d="M 20.856129 63.650940 L 20.736929 65.837140 L 20.626529 68.023740 L 20.526529 70.210840 L 20.438329 72.398540 L 20.363229 74.586640 L 20.303129 76.775240 L 20.255329 78.964240 L 20.219329 81.153340 L 20.195029 83.342640 L 20.182629 85.532040 L 20.184429 87.721440 L 20.199229 89.910840 L 20.225829 92.100040 L 20.264129 94.289140 L 20.314229 96.478040 L 20.378029 98.666540 L 20.455429 100.854640 L 20.544529 103.042640 L 20.645529 105.229640 L 20.758129 107.415640 L 20.883829 109.601640 L 21.023929 111.786640 L 21.176029 113.970640 L 21.340329 116.153640 L 21.516529 118.336640 L 21.705029 120.517640 L 21.908329 122.697640 L 22.124529 124.876640 L 22.352229 127.053640 L 22.589929 129.230640 L 22.836129 131.405640" fill="none" id="70" stroke="#e7d3fa" stroke-width="0.5" /><path d="M 15.936129 66.185940 L 16.162529 67.971540 L 16.382429 69.758040 L 16.595429 71.545340 L 16.796229 73.334040 L 16.984829 75.124140 L 17.164129 76.915140 L 17.332529 78.707140 L 17.487929 80.500440 L 17.634629 82.294340 L 17.772529 84.089040 L 17.895229 85.884840 L 18.009229 87.681140 L 18.114529 89.478040 L 18.206629 91.275640 L 18.287129 93.073840 L 18.358329 94.872340 L 18.417929 96.671340 L 18.464429 98.470640 L 18.502129 100.270240 L 18.531129 102.069640 L 18.544729 103.869640 L 18.549729 105.669640 L 18.545929 107.469640 L 18.528929 109.269640 L 18.501129 111.069640 L 18.464029 112.868640 L 18.414529 114.668640 L 18.352829 116.466640 L 18.284129 118.265640 L 18.208929 120.064640" fill="none" id="71" stroke="#e7d3fa" stroke-width="0.5" /><path d="M 18.208929 120.064640 L 18.175229 119.314640 L 18.141529 118.565640 L 18.114329 117.815640 L 18.087229 117.066640 L 18.071029 116.316640 L 18.054929 115.566640 L 18.042629 114.816640 L 18.030329 114.066640 L 18.019029 113.316640 L 18.007729 112.566640 L 17.996329 111.816640 L 17.985029 111.066640 L 17.973729 110.316640 L 17.962429 109.566640 L 17.951029 108.816640 L 17.939729 108.066640 L 17.928429 107.316640 L 17.917029 106.566640 L 17.905729 105.815640 L 17.894429 105.065640 L 17.883129 104.315640 L 17.871729 103.565640 L 17.860429 102.815640 L 17.849129 102.065640 L 17.837729 101.315640 L 17.826429 100.566040 L 17.815129 99.815940 L 17.803829 99.065940 L 17.792429 98.315940 L 17.781129 97.565940" fill="none" id="72" stroke="#e7d3fa" stroke-width="0.5" /><path d="M 28.446129 46.955940 L 26.947929 47.731440 L 25.563829 48.683340 L 24.339429 49.826040 L 23.335929 51.182140 L 22.650529 52.720040 L 22.006129 54.279140 L 21.380229 55.845640 L 20.832029 57.441140 L 20.317129 59.047440 L 19.833529 60.663540 L 19.396929 62.293140 L 19.003129 63.933340 L 18.642829 65.581240 L 18.325329 67.238240 L 18.056229 68.903540 L 17.819529 70.573640 L 17.617429 72.248540 L 17.475529 73.929540 L 17.368629 75.612940 L 17.296329 77.298340 L 17.278829 78.985340 L 17.298729 80.672040 L 17.351329 82.358140 L 17.450629 84.042240 L 17.594029 85.723040 L 17.772229 87.400340 L 17.994329 89.072740 L 18.263529 90.738140 L 18.557929 92.399140 L 18.876129 94.055940" fill="none" id="73" stroke="#e7d3fa" stroke-width="0.5" /><path d="M 45.141129 33.110940 L 43.507829 33.566640 L 41.893229 34.079640 L 40.304029 34.670940 L 38.775929 35.403040 L 37.287129 36.209340 L 35.875029 37.148040 L 34.532929 38.181440 L 33.234529 39.270840 L 32.032329 40.466640 L 30.890529 41.717940 L 29.801929 43.017940 L 28.826229 44.404440 L 27.902229 45.824540 L 27.055329 47.293440 L 26.306929 48.813940 L 25.609329 50.358640 L 25.004229 51.942640 L 24.469629 53.550840 L 23.981129 55.174340 L 23.590029 56.824340 L 23.245129 58.483840 L 22.950329 60.153640 L 22.734929 61.835340 L 22.554329 63.520940 L 22.428329 65.211940 L 22.360929 66.905840 L 22.323829 68.600940 L 22.338129 70.296540 L 22.381529 71.991440 L 22.446129 73.685940" fill="none" id="74" stroke="#e7d3fa" stroke-width="0.5" /><path d="M 18.516129 88.280940 L 17.866829 83.390140 L 17.565229 78.466140 L 17.695529 73.535340 L 18.349829 68.647740 L 19.431829 63.836240 L 20.897729 59.127640 L 22.732429 54.550340 L 24.905429 50.123640 L 27.378629 45.857240 L 30.137929 41.770240 L 33.161629 37.874740 L 36.424329 34.176940 L 39.917929 30.696940 L 43.625629 27.445840 L 47.528429 24.431840 L 51.610829 21.665840 L 55.842029 19.131840 L 60.193629 16.810440 L 64.652029 14.701340 L 69.202029 12.796940 L 73.826929 11.081840 L 78.515129 9.547830 L 83.256229 8.185310 L 88.039229 6.977700 L 92.856329 5.913610 L 97.701129 4.983190 L 102.567229 4.170820 L 107.450229 3.465490 L 112.346229 2.857680 L 117.251229 2.335010 L 122.166229 1.899070 L 127.085229 1.521799 L 132.008229 1.195756 L 136.936229 0.964465 L 141.867229 0.816181 L 146.801229 0.750000 L 151.734229 0.773381 L 156.666229 0.890258 L 161.595229 1.100935 L 166.519229 1.414893 L 171.434229 1.835560 L 176.339229 2.365840 L 181.230229 3.014970 L 186.102229 3.786480 L 190.953229 4.684920 L 195.776229 5.719690 L 200.568229 6.894820 L 205.321229 8.214240 L 210.029229 9.688010 L 214.683229 11.320940 L 219.279229 13.113740 L 223.804229 15.076040 L 228.249229 17.214240 L 232.607229 19.525140 L 236.867229 22.012340 L 241.015229 24.681440 L 245.022229 27.554740 L 248.898229 30.607840 L 252.681229 33.770240 L 256.240229 37.183940 L 259.562229 40.828440 L 262.610229 44.705040 L 265.349229 48.805540 L 267.729229 53.123240 L 269.643229 57.667040 L 271.021229 62.399740 L 271.675229 67.287240 L 271.638229 72.219940 L 271.071229 77.120940" fill="none" id="75" stroke="#e7d3fa" stroke-width="0.5" /><path d="M 17.766129 83.045940 L 18.032829 84.724840 L 18.295129 86.404440 L 18.553129 88.084740 L 18.800229 89.766640 L 19.040829 91.449540 L 19.274829 93.133340 L 19.497229 94.818640 L 19.713829 96.504740 L 19.924629 98.191640 L 20.123729 99.879940 L 20.317029 101.568640 L 20.504529 103.258640 L 20.680329 104.949640 L 20.850129 106.640640 L 21.013829 108.332640 L 21.165029 110.025640 L 21.310229 111.719640 L 21.449429 113.413640 L 21.576829 115.109640 L 21.698429 116.804640 L 21.814129 118.500640 L 21.918129 120.197640 L 22.016329 121.894640 L 22.108629 123.592640 L 22.189229 125.290640 L 22.263229 126.988640 L 22.330729 128.687640 L 22.387129 130.386640 L 22.439129 132.085640 L 22.486829 133.784640" fill="none" id="76" stroke="#e7d3fa" stroke-width="0.5" /><path d="M 22.486829 133.784640 L 22.551929 132.738640 L 22.615329 131.691640 L 22.667329 130.644640 L 22.714829 129.597640 L 22.748729 128.549640 L 22.776529 127.501640 L 22.793929 126.452640 L 22.803529 125.404640 L 22.805129 124.355640 L 22.800029 123.307640 L 22.791029 122.258640 L 22.774029 121.210640 L 22.754429 120.162640 L 22.725529 119.113640 L 22.695329 118.065640 L 22.649229 117.018640 L 22.601829 115.970640 L 22.545129 114.924640 L 22.485729 113.877640 L 22.418529 112.830640 L 22.347229 111.784640 L 22.269429 110.739640 L 22.183629 109.694640 L 22.089929 108.649640 L 21.988829 107.606640 L 21.883429 106.563640 L 21.770829 105.520640 L 21.655729 104.478640 L 21.533929 103.437640 L 21.411129 102.395640" fill="none" id="77" stroke="#e7d3fa" stroke-width="0.5" /><path d="M 21.036129 100.040940 L 21.150029 100.822640 L 21.263829 101.604640 L 21.372129 102.386640 L 21.480329 103.169640 L 21.584029 103.952640 L 21.687729 104.735640 L 21.778429 105.520640 L 21.869129 106.305640 L 21.959829 107.090640 L 22.050529 107.875640 L 22.117929 108.662640 L 22.185229 109.449640 L 22.252629 110.236640 L 22.319929 111.023640 L 22.375529 111.811640 L 22.431029 112.600640 L 22.474829 113.388640 L 22.518629 114.177640 L 22.562429 114.966640 L 22.606229 115.755640 L 22.626329 116.545640 L 22.646529 117.334640 L 22.666629 118.124640 L 22.686729 118.914640 L 22.695129 119.704640 L 22.703429 120.494640 L 22.701929 121.284640 L 22.700429 122.074640 L 22.681629 123.654640" fill="none" id="78" stroke="#e7d3fa" stroke-width="0.5" /><path d="M 22.681629 123.654640 L 22.566429 122.700640 L 22.451229 121.747640 L 22.343929 120.792640 L 22.236529 119.838640 L 22.141929 118.882640 L 22.047329 117.926640 L 21.958629 116.969640 L 21.870029 116.013640 L 21.796529 115.055640 L 21.723129 114.097640 L 21.657729 113.139640 L 21.592329 112.181640 L 21.540429 111.222640 L 21.488529 110.263640 L 21.446929 109.303640 L 21.405329 108.343640 L 21.374129 107.383640 L 21.342829 106.423640 L 21.324229 105.463640 L 21.305529 104.502640 L 21.294429 103.542640 L 21.283329 102.581640 L 21.289729 101.621640 L 21.296029 100.660940 L 21.309829 99.700440 L 21.323629 98.739940 L 21.357329 97.780040 L 21.391129 96.820040 L 21.436629 95.860540 L 21.482229 94.901040" fill="none" id="79" stroke="#e7d3fa" stroke-width="0.5" /><path d="M 21.482229 94.901040 L 21.533629 96.061240 L 21.584929 97.221440 L 21.636329 98.381540 L 21.687729 99.541740 L 21.739029 100.701840 L 21.790429 101.861640 L 21.841729 103.022640 L 21.893129 104.182640 L 21.944529 105.342640 L 21.995829 106.502640 L 22.047229 107.662640 L 22.098529 108.822640 L 22.149929 109.982640 L 22.201229 111.143640 L 22.252629 112.303640 L 22.304029 113.463640 L 22.355329 114.623640 L 22.406729 115.783640 L 22.458029 116.943640 L 22.509429 118.104640 L 22.560829 119.264640 L 22.612129 120.424640 L 22.663529 121.584640 L 22.714829 122.744640 L 22.766229 123.904640 L 22.817529 125.064640 L 22.868929 126.225640 L 22.920329 127.385640 L 22.971629 128.545640 L 23.023029 129.705640 L 23.074329 130.865640" fill="none" id="80" stroke="#e7d3fa" stroke-width="0.5" /><path d="M 23.074329 130.865640 L 23.085329 129.518640 L 23.096129 128.170640 L 23.102629 126.823640 L 23.108329 125.475640 L 23.107729 124.127640 L 23.106529 122.780640 L 23.102229 121.432640 L 23.098029 120.085640 L 23.093829 118.737640 L 23.089629 117.389640 L 23.085429 116.042640 L 23.081229 114.694640 L 23.077029 113.347640 L 23.072729 111.999640 L 23.068529 110.652640 L 23.064329 109.304640 L 23.060129 107.956640 L 23.055929 106.609640 L 23.051729 105.261640 L 23.047529 103.914640 L 23.043229 102.566640 L 23.039029 101.219640 L 23.034829 99.871540 L 23.030629 98.523940 L 23.026429 97.176440 L 23.022229 95.828840 L 23.018029 94.481240 L 23.013729 93.133640 L 23.009529 91.786040 L 23.005329 90.438540 L 23.001129 89.090940" fill="none" id="81" stroke="#e7d3fa" stroke-width="0.5" /><path d="M 229.489229 283.434640 L 230.689229 283.095640 L 231.887229 282.753640 L 233.076229 282.381640 L 234.263229 282.000640 L 235.438229 281.585640 L 236.608229 281.156640 L 237.764229 280.691640 L 238.913229 280.210640 L 240.051229 279.702640 L 241.179229 279.173640 L 242.297229 278.622640 L 243.401229 278.045640 L 244.495229 277.448640 L 245.571229 276.820640 L 246.639229 276.177640 L 247.687229 275.503640 L 248.729229 274.820640 L 249.749229 274.103640 L 250.764229 273.381640 L 251.753229 272.622640 L 252.738229 271.859640 L 253.684229 271.048640 L 254.619229 270.225640 L 255.489229 269.333640 L 256.306229 268.399640 L 256.963229 267.340640 L 257.440229 266.213640 L 257.644229 264.984640 L 257.624229 263.746640 L 257.511229 262.505640" fill="none" id="82" stroke="#93744c" stroke-width="0.5" /><path d="M 173.856229 246.485640 L 177.138229 244.654640 L 180.314229 242.648640 L 183.348229 240.435640 L 186.202229 237.996640 L 188.872229 235.356640 L 191.375229 232.555640 L 193.718229 229.618640 L 195.910229 226.566640 L 197.935229 223.401640 L 199.834229 220.158640 L 201.634229 216.860640 L 203.345229 213.515640 L 204.973229 210.128640 L 206.524229 206.705640 L 208.024229 203.260640 L 209.515229 199.811640 L 210.949229 196.337640 L 212.350229 192.850640 L 213.706229 189.345640 L 214.994229 185.815640 L 216.190229 182.253640 L 217.273229 178.656640 L 218.206229 175.017640 L 218.937229 171.333640 L 219.420229 167.608640 L 219.521229 163.851640 L 219.465229 160.094640 L 219.771229 156.352640 L 221.877229 153.420640 L 225.277229 151.836640" fill="none" id="83" stroke="#cde1bc" stroke-width="0.5" /><path d="M 225.277229 151.836640 L 225.010229 155.198640 L 224.693229 158.554640 L 224.325229 161.905640 L 223.869229 165.246640 L 223.318229 168.572640 L 222.697229 171.886640 L 221.997229 175.184640 L 221.203229 178.460640 L 220.345229 181.720640 L 219.422229 184.963640 L 218.388229 188.173640 L 217.293229 191.361640 L 216.137229 194.528640 L 214.889229 197.660640 L 213.564229 200.760640 L 212.178229 203.833640 L 210.718229 206.872640 L 209.171229 209.868640 L 207.567229 212.833640 L 205.903229 215.766640 L 204.139229 218.639640 L 202.321229 221.478640 L 200.449229 224.282640 L 198.497229 227.031640 L 196.475229 229.729640 L 194.398229 232.384640 L 192.252229 234.985640 L 190.041229 237.530640 L 187.793229 240.042640 L 185.510229 242.524640" fill="none" id="84" stroke="#cde1bc" stroke-width="0.5" /><path d="M 205.851229 142.760640 L 205.429229 141.941640 L 205.149229 141.065640 L 204.997229 140.159640 L 204.915229 139.241640 L 204.922229 138.324640 L 205.074229 137.417640 L 205.357229 136.542640 L 205.839229 135.756640 L 206.356229 134.994640 L 206.991229 134.331640 L 207.729229 133.785640 L 208.534229 133.342640 L 209.390229 133.009640 L 210.289229 132.807640 L 211.201229 132.680640 L 212.122229 132.733640 L 212.772229 133.346640 L 213.360229 134.055640 L 213.648229 134.890640 L 213.662229 135.808640 L 213.589229 136.727640 L 213.505229 137.645640 L 213.371229 138.557640 L 213.178229 139.458640 L 212.907229 140.338640 L 212.589229 141.202640 L 212.237229 142.054640 L 211.851229 142.891640 L 211.429229 143.710640 L 210.981229 144.515640" fill="none" id="85" stroke="#9b6a8a" stroke-width="0.5" /><path d="M 227.863229 118.280640 L 227.710229 118.916640 L 227.567229 119.554640 L 227.493229 120.204640 L 227.462229 120.853640 L 227.541229 121.503640 L 227.626229 122.151640 L 227.721229 122.799640 L 227.805229 123.447640 L 227.877229 124.098640 L 227.950229 124.748640 L 228.023229 125.398640 L 228.073229 126.050640 L 228.114229 126.703640 L 228.156229 127.356640 L 228.198229 128.009640 L 228.239229 128.662640 L 228.279229 129.315640 L 228.320229 129.968640 L 228.352229 130.621640 L 228.360229 131.275640 L 228.368229 131.929640 L 228.376229 132.583640 L 228.373229 133.237640 L 228.359229 133.891640 L 228.352229 134.546640 L 228.350229 135.200640 L 228.446229 135.845640 L 228.572229 136.486640 L 228.760229 137.113640 L 228.951229 137.739640" fill="none" id="86" stroke="#efd8b1" stroke-width="0.5" /><path d="M 239.401229 131.349640 L 239.623229 130.866640 L 239.814229 130.371640 L 239.971229 129.863640 L 240.103229 129.347640 L 240.211229 128.827640 L 240.293229 128.302640 L 240.277229 127.770640 L 240.237229 127.240640 L 240.172229 126.713640 L 240.108229 126.185640 L 240.043229 125.657640 L 239.979229 125.129640 L 239.906229 124.602640 L 239.829229 124.076640 L 239.746229 123.550640 L 239.698229 123.021640 L 239.704229 122.493640 L 239.802229 121.970640 L 239.955229 121.462640 L 240.118229 120.955640 L 240.280229 120.449640 L 240.556229 119.998640 L 240.932229 119.650640 L 241.418229 119.433640 L 241.918229 119.253640 L 242.428229 119.110640 L 242.955229 119.034640 L 243.458229 119.170640 L 244.371229 119.705640" fill="none" id="87" stroke="#928098" stroke-width="0.5" /><path d="M 194.263229 141.697640 L 193.542229 141.548640 L 192.820229 141.427640 L 192.086229 141.482640 L 191.391229 141.694640 L 190.734229 142.020640 L 190.127229 142.437640 L 189.638229 142.974640 L 189.212229 143.574640 L 188.852229 144.216640 L 188.580229 144.894640 L 188.387229 145.604640 L 188.322229 146.337640 L 188.291229 147.071640 L 188.311229 147.807640 L 188.375229 148.540640 L 188.610229 149.116640 L 189.342229 149.193640 L 190.074229 149.270640 L 190.803229 149.326640 L 191.486229 149.051640 L 192.148229 148.733640 L 192.788229 148.371640 L 193.389229 147.947640 L 193.937229 147.465640 L 194.382229 146.879640 L 194.733229 146.236640 L 195.033229 145.565640 L 195.196229 144.848640 L 195.322229 144.123640 L 195.420229 143.394640" fill="none" id="88" stroke="#7c7b5c" stroke-width="0.5" /><path d="M 179.961229 130.235640 L 178.848229 130.938640 L 179.062229 128.798640 L 178.030229 126.958640 L 176.086229 126.047640 L 173.914229 125.969640 L 171.883229 126.795640 L 170.146229 128.079640 L 169.167229 130.009640 L 169.001229 132.148640 L 169.743229 134.213640 L 170.964229 135.994640 L 172.681229 137.354640 L 174.468229 138.622640 L 176.170229 140.007640 L 177.844229 141.416640 L 178.721229 143.420640 L 179.148229 145.564640 L 179.001229 147.741640 L 178.062229 149.698640 L 176.458229 151.175640 L 174.451229 151.986640 L 172.275229 151.949640 L 170.297229 151.085640 L 169.095229 149.335640 L 168.609229 147.221640 L 169.334229 145.176640 L 171.011229 143.975640 L 172.276229 145.418640 L 173.800229 146.459640 L 174.906229 144.680640" fill="none" id="89" stroke="#a6686c" stroke-width="0.5" /><path d="M 92.901129 210.065640 L 92.847229 210.994640 L 92.793429 211.923640 L 92.747629 212.852640 L 92.701929 213.781640 L 92.666229 214.710640 L 92.630629 215.640640 L 92.607129 216.570640 L 92.583629 217.499640 L 92.570929 218.430640 L 92.558229 219.360640 L 92.559929 220.290640 L 92.561629 221.220640 L 92.574129 222.150640 L 92.586629 223.080640 L 92.610329 224.010640 L 92.634029 224.940640 L 92.669329 225.870640 L 92.704729 226.799640 L 92.752029 227.728640 L 92.799429 228.657640 L 92.862229 229.585640 L 92.925029 230.513640 L 92.998629 231.441640 L 93.072129 232.368640 L 93.157429 233.294640 L 93.242629 234.220640 L 93.337229 235.146640 L 93.431829 236.071640 L 93.533929 236.996640 L 93.636129 237.920640" fill="none" id="90" stroke="#c583d9" stroke-width="0.5" /><path d="M 91.416129 185.900640 L 91.545029 186.576640 L 91.673929 187.251640 L 91.793229 187.928640 L 91.912629 188.605640 L 92.020029 189.284640 L 92.127429 189.963640 L 92.220429 190.645640 L 92.313429 191.326640 L 92.399529 192.008640 L 92.485529 192.690640 L 92.550529 193.375640 L 92.615529 194.059640 L 92.673529 194.744640 L 92.731529 195.429640 L 92.775429 196.116640 L 92.819329 196.802640 L 92.849229 197.489640 L 92.879029 198.175640 L 92.901829 198.863640 L 92.924629 199.550640 L 92.926329 200.237640 L 92.927929 200.925640 L 92.922429 201.612640 L 92.917029 202.300640 L 92.896629 202.987640 L 92.876229 203.675640 L 92.842629 204.361640 L 92.809029 205.048640 L 92.721129 206.420640" fill="none" id="91" stroke="#9de993" stroke-width="0.5" /><path d="M 86.031129 270.545640 L 85.885329 269.878640 L 85.739629 269.210640 L 85.617329 268.538640 L 85.495329 267.866640 L 85.406929 267.188640 L 85.319029 266.510640 L 85.257929 265.830640 L 85.197429 265.149640 L 85.191729 264.466640 L 85.187529 263.783640 L 85.232129 263.101640 L 85.278429 262.419640 L 85.403629 261.748640 L 85.532029 261.077640 L 85.781529 260.441640 L 86.034829 259.806640 L 86.349129 259.200640 L 86.665729 258.594640 L 87.148129 258.112640 L 87.634629 257.632640 L 88.159329 257.194640 L 88.685329 256.758640 L 89.310129 256.482640 L 89.936629 256.210640 L 90.592929 256.020640 L 91.249829 255.832640 L 91.930629 255.856640 L 92.612729 255.894640 L 93.936129 256.235640" fill="none" id="92" stroke="#ad5ba7" stroke-width="0.5" /><path d="M 51.501129 280.280640 L 51.986229 281.365640 L 52.471329 282.449640 L 53.004529 283.511640 L 53.537829 284.573640 L 54.129729 285.603640 L 54.721829 286.633640 L 55.381829 287.621640 L 56.041829 288.609640 L 56.759829 289.555640 L 57.477829 290.502640 L 58.251229 291.404640 L 59.024629 292.306640 L 59.850529 293.160640 L 60.676529 294.014640 L 61.556529 294.812640 L 62.436529 295.610640 L 63.366729 296.349640 L 64.296929 297.088640 L 65.269729 297.771640 L 66.242529 298.453640 L 67.254429 299.075640 L 68.266329 299.698640 L 69.313629 300.259640 L 70.360929 300.820640 L 71.444029 301.308640 L 72.527229 301.796640 L 73.636529 302.222640 L 74.745929 302.647640 L 75.873529 303.021640 L 77.001129 303.395640" fill="none" id="93" stroke="#58f2c3" stroke-width="0.5" /><path d="M 40.266129 76.850940 L 40.599029 77.944240 L 40.932829 79.037340 L 41.409529 80.076040 L 41.890729 81.112240 L 42.542929 82.050840 L 43.200829 82.984540 L 44.016829 83.784840 L 44.836329 84.581040 L 45.747029 85.271540 L 46.660229 85.958440 L 47.638629 86.549340 L 48.618629 87.137040 L 49.646329 87.637240 L 50.675129 88.134740 L 51.740229 88.549240 L 52.805929 88.962240 L 53.890729 89.321840 L 54.975829 89.681040 L 56.066829 90.021340 L 57.157929 90.361840 L 58.246429 90.710240 L 59.334829 91.058940 L 60.412629 91.439240 L 61.490229 91.820040 L 62.542029 92.267140 L 63.593829 92.714440 L 64.614729 93.228240 L 65.635629 93.742040 L 66.630829 94.304040 L 67.626129 94.865940" fill="none" id="94" stroke="#d271bb" stroke-width="0.5" /><path d="M 39.771129 54.035940 L 39.661229 55.197040 L 39.551329 56.358040 L 39.471329 57.521640 L 39.391329 58.685140 L 39.348929 59.850640 L 39.306429 61.016140 L 39.309029 62.182440 L 39.311629 63.348640 L 39.354329 64.514140 L 39.396929 65.679640 L 39.479629 66.843040 L 39.562229 68.006340 L 39.684829 69.166140 L 39.807429 70.325940 L 39.973329 71.480340 L 40.139229 72.634840 L 40.348229 73.782140 L 40.557329 74.929540 L 40.805629 76.069140 L 41.054029 77.208640 L 41.342229 78.338740 L 41.630429 79.468840 L 41.959929 80.587640 L 42.289329 81.706340 L 42.662729 82.811240 L 43.036229 83.916140 L 43.443629 85.008940 L 43.851129 86.101740 L 44.286129 87.183840 L 44.721129 88.265940" fill="none" id="95" stroke="#d271bb" stroke-width="0.5" /><path d="M 48.366129 36.500940 L 47.158329 37.374440 L 45.950529 38.247940 L 44.822629 39.222440 L 43.694929 40.197140 L 42.658729 41.268640 L 41.623129 42.340640 L 40.782229 43.571440 L 39.941429 44.802140 L 39.208029 46.099840 L 38.475029 47.397740 L 37.855229 48.753240 L 37.235629 50.108940 L 36.832129 51.543840 L 36.428629 52.978740 L 36.130729 54.439240 L 35.833129 55.899840 L 35.642729 57.378240 L 35.452329 58.856540 L 35.491629 60.346640 L 35.531129 61.836640 L 35.697229 63.317940 L 35.863829 64.799140 L 36.155329 66.260940 L 36.446729 67.722740 L 36.979229 69.114940 L 37.512329 70.506840 L 38.167429 71.845740 L 38.822729 73.184540 L 39.591029 74.461940 L 40.359229 75.739240" fill="none" id="96" stroke="#d271bb" stroke-width="0.5" /><path d="M 40.359229 75.739240 L 39.697529 74.979240 L 39.041829 74.214340 L 38.441929 73.404540 L 37.842029 72.594840 L 37.338029 71.722340 L 36.836129 70.848540 L 36.391529 69.944740 L 35.960829 69.033640 L 35.638729 68.081340 L 35.356129 67.114040 L 35.116329 66.135740 L 34.897329 65.152140 L 34.749529 64.157040 L 34.648729 63.154340 L 34.597029 62.148940 L 34.586929 61.141240 L 34.620029 60.135040 L 34.701829 59.130640 L 34.832829 58.133240 L 35.034829 57.146040 L 35.259029 56.164040 L 35.526629 55.192440 L 35.836429 54.236240 L 36.255929 53.320040 L 36.684229 52.408040 L 37.146029 51.512340 L 37.624329 50.626740 L 38.215029 49.810340 L 38.810729 48.997840 L 39.469929 48.235640 L 40.129129 47.473340" fill="none" id="97" stroke="#d271bb" stroke-width="0.5" /><path d="M 40.129129 47.473340 L 39.548929 48.154740 L 38.970329 48.837540 L 38.421029 49.544040 L 37.872929 50.251540 L 37.357529 50.983240 L 36.842329 51.715040 L 36.389429 52.486940 L 35.936629 53.258940 L 35.483729 54.030840 L 35.030929 54.802840 L 34.701229 55.634840 L 34.371629 56.466940 L 34.042629 57.299240 L 33.713629 58.131540 L 33.449529 58.986640 L 33.185629 59.841840 L 32.988329 60.714840 L 32.791029 61.587740 L 32.594329 62.460840 L 32.397629 63.333940 L 32.336529 64.226840 L 32.275529 65.119740 L 32.214529 66.012640 L 32.153529 66.905540 L 32.169729 67.800340 L 32.187729 68.695140 L 32.240829 69.588540 L 32.296729 70.481640 L 32.387329 71.372040 L 32.477929 72.262440" fill="none" id="98" stroke="#d271bb" stroke-width="0.5" /><path d="M 32.477929 72.262440 L 32.705129 67.322140 L 33.362829 62.421240 L 34.568529 57.627340 L 36.350629 53.018340 L 38.600129 48.617840 L 41.283029 44.468240 L 44.323529 40.572140 L 47.677829 36.942740 L 51.330929 33.615440 L 55.240629 30.592640 L 59.369829 27.877440 L 63.684629 25.467140 L 68.142929 23.331740 L 72.712029 21.443940 L 77.371029 19.789940 L 82.099729 18.345240 L 86.879529 17.078240 L 91.697829 15.966440 L 96.545029 14.986240 L 101.412229 14.108740 L 106.293229 13.313540 L 111.185229 12.587540 L 116.083229 11.907040 L 120.987229 11.265740 L 125.900229 10.700460 L 130.821229 10.206090 L 135.749229 9.790450 L 140.684229 9.467840 L 145.624229 9.246220 L 150.568229 9.130610 L 155.514229 9.135240 L 160.457229 9.267890 L 165.395229 9.533090 L 170.323229 9.946170 L 175.235229 10.516210 L 180.126229 11.247740 L 184.986229 12.154940 L 189.810229 13.243540 L 194.589229 14.512140 L 199.313229 15.970140 L 203.973229 17.625340 L 208.557229 19.476940 L 213.054229 21.532140 L 217.447229 23.800140 L 221.724229 26.280340 L 225.847229 29.004440 L 229.811229 31.961740 L 233.679229 35.038740 L 237.310229 38.391840 L 240.629229 42.051540 L 243.473229 46.087840 L 245.643229 50.520140 L 246.849229 55.300240 L 246.610229 60.232940 L 245.140229 64.952240 L 242.766229 69.290940" fill="none" id="99" stroke="#d271bb" stroke-width="0.5" /><path d="M 241.656229 79.490940 L 241.039229 80.173840 L 240.421229 80.856740 L 239.785229 81.521840 L 239.149229 82.186940 L 238.489229 82.829040 L 237.830229 83.471240 L 237.143229 84.084740 L 236.457229 84.698140 L 235.748229 85.285240 L 235.039229 85.872340 L 234.302229 86.422940 L 233.564229 86.973540 L 232.806229 87.495840 L 232.048229 88.018140 L 231.270229 88.509440 L 230.491229 89.000740 L 229.693229 89.458840 L 228.894229 89.916840 L 228.077229 90.340240 L 227.260229 90.763540 L 226.421229 91.144040 L 225.583229 91.524440 L 224.731229 91.872940 L 223.879229 92.221440 L 223.014229 92.534440 L 222.148229 92.847440 L 221.272229 93.131440 L 220.397229 93.415440 L 218.631229 93.935940" fill="none" id="100" stroke="#d271bb" stroke-width="0.5" /><path d="M 248.286229 65.105940 L 247.810229 66.432840 L 247.322229 67.755140 L 246.793229 69.062040 L 246.234229 70.355840 L 245.641229 71.634740 L 244.995229 72.886940 L 244.326229 74.128040 L 243.596229 75.334040 L 242.851229 76.530540 L 242.054229 77.693540 L 241.233229 78.838440 L 240.375229 79.957340 L 239.480229 81.045640 L 238.564229 82.117340 L 237.597229 83.142640 L 236.616229 84.154940 L 235.585229 85.116540 L 234.536229 86.057340 L 233.453229 86.960240 L 232.343229 87.828440 L 231.214229 88.672340 L 230.049229 89.465840 L 228.874229 90.244640 L 227.661229 90.963740 L 226.437229 91.661340 L 225.184229 92.307340 L 223.915229 92.920240 L 222.631229 93.503840 L 221.331229 94.048340 L 220.026229 94.580940" fill="none" id="101" stroke="#d271bb" stroke-width="0.5" /><path d="M 98.631129 102.800640 L 103.088229 103.806640 L 107.574229 104.671640 L 112.092229 105.352640 L 116.634229 105.849640 L 121.190229 106.191640 L 125.754229 106.405640 L 130.322229 106.504640 L 134.892229 106.509640 L 139.460229 106.438640 L 144.028229 106.308640 L 148.594229 106.138640 L 153.159229 105.942640 L 157.723229 105.723640 L 162.285229 105.481640 L 166.847229 105.212640 L 171.405229 104.893640 L 175.958229 104.507640 L 180.503229 104.042640 L 185.038229 103.484640 L 189.558229 102.817640 L 194.057229 102.025640 L 198.530229 101.091640 L 202.966229 99.999740 L 207.354229 98.728940 L 211.684229 97.271240 L 215.934229 95.594940 L 220.094229 93.706140 L 224.119229 91.545440 L 228.016229 89.160540 L 231.801229 86.600940" fill="none" id="102" stroke="#d271bb" stroke-width="0.5" /><path d="M 54.816129 93.530940 L 55.811929 94.065140 L 56.807729 94.599340 L 57.813429 95.114640 L 58.819029 95.630040 L 59.836629 96.121540 L 60.854129 96.612940 L 61.885229 97.075440 L 62.916229 97.537940 L 63.958629 97.974440 L 65.000929 98.410840 L 66.053929 98.820940 L 67.106929 99.231040 L 68.169929 99.614440 L 69.232929 99.997940 L 70.306029 100.352140 L 71.379129 100.706340 L 72.462029 101.028640 L 73.544929 101.351640 L 74.636529 101.644640 L 75.728029 101.936640 L 76.826829 102.200640 L 77.925529 102.464640 L 79.030629 102.701640 L 80.135629 102.937640 L 81.246829 103.143640 L 82.357929 103.348640 L 83.473429 103.529640 L 84.588929 103.710640 L 85.707529 103.870640 L 86.826129 104.030640" fill="none" id="103" stroke="#d271bb" stroke-width="0.5" /><path d="M 239.511229 51.485940 L 239.811229 52.594940 L 240.110229 53.703840 L 240.396229 54.816540 L 240.678229 55.930240 L 240.946229 57.047140 L 241.205229 58.166340 L 241.455229 59.287640 L 241.686229 60.412840 L 241.914229 61.538640 L 242.122229 62.668540 L 242.329229 63.798440 L 242.514229 64.932340 L 242.696229 66.066440 L 242.862229 67.203240 L 243.020229 68.341040 L 243.166229 69.480440 L 243.299229 70.621440 L 243.426229 71.763140 L 243.535229 72.906740 L 243.642229 74.050540 L 243.726229 75.196240 L 243.810229 76.341940 L 243.873229 77.488940 L 243.932229 78.636140 L 243.973229 79.784140 L 244.004229 80.932440 L 244.025229 82.081040 L 244.032229 83.229740 L 244.035229 84.378540 L 244.023229 85.527240 L 244.011229 86.675940" fill="none" id="104" stroke="#d271bb" stroke-width="0.5" /><path d="M 43.131129 45.545940 L 43.236229 47.009440 L 43.343229 48.472840 L 43.456229 49.935840 L 43.573829 51.398340 L 43.696529 52.860540 L 43.827529 54.321940 L 43.962029 55.783140 L 44.106229 57.243340 L 44.252929 58.703240 L 44.408229 60.162340 L 44.567729 61.620940 L 44.733429 63.078840 L 44.905829 64.536040 L 45.081929 65.992740 L 45.267129 67.448240 L 45.454729 68.903540 L 45.651529 70.357540 L 45.852029 71.811140 L 46.059229 73.263740 L 46.272429 74.715440 L 46.489929 76.166540 L 46.716229 77.616340 L 46.944929 79.065640 L 47.184129 80.513340 L 47.426729 81.960440 L 47.677329 83.406240 L 47.932929 84.851040 L 48.192929 86.295140 L 48.458629 87.738240 L 48.726129 89.180940" fill="none" id="105" stroke="#d271bb" stroke-width="0.5" /></svg>