<?xml version="1.0" encoding="utf-8" ?>
<svg baseProfile="full" height="318.5" version="1.1" viewBox="0,0,500.5,318.5" width="500.5" xmlns="http://www.w3.org/2000/svg" xmlns:ev="http://www.w3.org/2001/xml-events" xmlns:xlink="http://www.w3.org/1999/xlink"><defs><style type="text/css"><![CDATA[
	.background { fill: white; }
	.line { stroke: firebrick; stroke-width: .1mm; }
	.blacksquare { fill: indigo; }
	.whitesquare { fill: white; }
]]></style></defs><rect class="background" height="100%" width="100%" x="0" y="0" /><path d="M 305.153000 250.824000 L 309.619000 248.643000 L 313.999000 246.295000 L 318.242000 243.708000 L 322.422000 241.019000 L 326.631000 238.376000 L 330.865000 235.773000 L 335.119000 233.203000 L 339.383000 230.651000 L 343.678000 228.151000 L 347.985000 225.671000 L 352.298000 223.201000 L 356.628000 220.761000 L 360.971000 218.345000 L 365.318000 215.936000 L 369.675000 213.545000 L 374.061000 211.206000 L 378.467000 208.908000 L 382.879000 206.620000 L 387.292000 204.333000 L 391.708000 202.052000 L 396.128000 199.780000 L 400.550000 197.512000 L 404.973000 195.245000 L 409.395000 192.977000 L 413.818000 190.710000 L 418.240000 188.442000 L 422.663000 186.174000 L 427.085000 183.907000 L 431.508000 181.639000 L 435.930000 179.372000 L 440.353000 177.104000 L 444.769000 174.823000 L 449.146000 172.469000 L 453.500000 170.074000 L 457.824000 167.623000 L 462.073000 165.046000 L 466.120000 162.163000 L 469.811000 158.838000 L 473.220000 155.222000" fill="none" id="0" stroke="#c583d9" stroke-width="0.5" /><path d="M 231.423000 97.307400 L 232.452000 97.222200 L 233.480000 97.137000 L 234.509000 97.051700 L 235.538000 96.966400 L 236.565000 96.855800 L 237.591000 96.745300 L 238.617000 96.625800 L 239.642000 96.506300 L 240.671000 96.417500 L 241.699000 96.328600 L 242.729000 96.262600 L 243.760000 96.196700 L 244.791000 96.142600 L 245.822000 96.088600 L 246.853000 96.048700 L 247.885000 96.008800 L 248.917000 95.969400 L 249.948000 95.929900 L 250.980000 95.894200 L 252.012000 95.858500 L 253.044000 95.823400 L 254.076000 95.788400 L 255.108000 95.768200 L 256.140000 95.748100 L 257.172000 95.721500 L 258.204000 95.694900 L 259.236000 95.659200 L 260.268000 95.623600 L 261.300000 95.592400 L 262.332000 95.561200" fill="none" id="1" stroke="#f375a0" stroke-width="0.5" /><path d="M 114.870000 97.161900 L 119.813000 97.153400 L 124.754000 97.051200 L 129.690000 96.804100 L 134.622000 96.493400 L 139.557000 96.222600 L 144.492000 95.964100 L 149.428000 95.710700 L 154.365000 95.493300 L 159.304000 95.309600 L 164.243000 95.134200 L 169.182000 94.958900 L 174.121000 94.783500 L 179.060000 94.608100 L 183.999000 94.432700 L 188.938000 94.257500 L 193.878000 94.087100 L 198.818000 93.936200 L 203.758000 93.810800 L 208.699000 93.696300 L 213.640000 93.581600 L 218.581000 93.465000 L 223.521000 93.339600 L 228.461000 93.200900 L 233.402000 93.055900 L 238.342000 92.910900 L 243.282000 92.768100 L 248.222000 92.643300 L 253.164000 92.546100 L 258.105000 92.458900 L 263.046000 92.371900 L 267.988000 92.284900 L 272.929000 92.218200 L 277.871000 92.179500 L 282.814000 92.149200 L 287.756000 92.119400 L 292.698000 92.091300 L 297.640000 92.074300 L 302.582000 92.069500 L 307.524000 92.068900 L 312.466000 92.068900 L 317.409000 92.068900 L 322.351000 92.068900 L 327.293000 92.068900 L 332.235000 92.068900 L 337.177000 92.068900 L 342.120000 92.068900 L 347.062000 92.068900 L 352.004000 92.068900 L 356.946000 92.064500 L 361.888000 92.027300 L 366.829000 91.929100 L 371.770000 91.799100 L 376.710000 91.665100 L 381.650000 91.531200 L 386.591000 91.397000 L 391.531000 91.258100 L 396.470000 91.092700 L 401.409000 90.895700 L 406.349000 90.745700 L 411.290000 90.657400 L 416.232000 90.613800" fill="none" id="2" stroke="#f375a0" stroke-width="0.5" /><path d="M 142.238000 97.452900 L 147.182000 96.971400 L 152.138000 96.657700 L 157.106000 96.688600 L 162.073000 96.592500 L 167.039000 96.451300 L 172.005000 96.301700 L 176.970000 96.130300 L 181.935000 95.940400 L 186.900000 95.750500 L 191.864000 95.560700 L 196.829000 95.370800 L 201.794000 95.181000 L 206.758000 94.991200 L 211.723000 94.804000 L 216.688000 94.631500 L 221.654000 94.478200 L 226.620000 94.328400 L 231.586000 94.178800 L 236.552000 94.033700 L 241.519000 93.903100 L 246.485000 93.785700 L 251.452000 93.671700 L 256.419000 93.558000 L 261.386000 93.447000 L 266.353000 93.347300 L 271.321000 93.259200 L 276.288000 93.174700 L 281.256000 93.090500 L 286.224000 93.008400 L 291.191000 92.945800 L 296.159000 92.908500 L 301.128000 92.880400 L 306.096000 92.852800 L 311.064000 92.825200 L 316.032000 92.797600 L 321.000000 92.770100 L 325.968000 92.742500 L 330.937000 92.725700 L 335.905000 92.744700 L 340.873000 92.784800 L 345.841000 92.795800 L 350.809000 92.796500 L 355.778000 92.796500 L 360.746000 92.796500 L 365.714000 92.796500 L 370.682000 92.796500 L 375.650000 92.796500 L 380.619000 92.796500 L 385.587000 92.796500" fill="none" id="3" stroke="#f375a0" stroke-width="0.5" /><path d="M 141.867000 96.143300 L 146.819000 95.970900 L 151.768000 95.736600 L 156.713000 95.415200 L 161.653000 95.029000 L 166.590000 94.608100 L 171.528000 94.192400 L 176.471000 93.856700 L 181.419000 93.594200 L 186.368000 93.346300 L 191.318000 93.108300 L 196.268000 92.890100 L 201.219000 92.682000 L 206.170000 92.476400 L 211.121000 92.279000 L 216.073000 92.102100 L 221.025000 91.940800 L 225.978000 91.783100 L 230.931000 91.631500 L 235.884000 91.507100 L 240.839000 91.422300 L 245.793000 91.358500 L 250.748000 91.298000 L 255.703000 91.243100 L 260.658000 91.208100 L 265.613000 91.196800 L 270.568000 91.195800 L 275.523000 91.195800 L 280.478000 91.195800 L 285.433000 91.195800 L 290.388000 91.195800 L 295.344000 91.195800 L 300.299000 91.195800 L 305.254000 91.195800 L 310.209000 91.195800 L 315.164000 91.195800 L 320.119000 91.195800 L 325.074000 91.195800 L 330.029000 91.195800 L 334.984000 91.195800 L 339.940000 91.195800 L 344.895000 91.195800 L 349.850000 91.195800 L 354.805000 91.195800 L 359.760000 91.195800 L 364.715000 91.195800 L 369.661000 90.913300 L 374.579000 90.306800 L 379.459000 89.452100" fill="none" id="4" stroke="#f375a0" stroke-width="0.5" /><path d="M 211.139000 317.760000 L 215.419000 315.288000 L 219.714000 312.840000 L 224.018000 310.409000 L 228.356000 308.040000 L 232.663000 305.615000 L 236.889000 303.051000 L 241.081000 300.431000 L 245.268000 297.804000 L 249.455000 295.177000 L 253.652000 292.565000 L 257.928000 290.090000 L 262.337000 287.856000 L 266.664000 285.467000 L 270.907000 282.931000 L 275.137000 280.373000 L 279.348000 277.784000 L 283.550000 275.182000 L 287.752000 272.578000 L 291.949000 269.967000 L 296.139000 267.345000 L 300.325000 264.716000 L 304.511000 262.087000 L 308.699000 259.461000 L 312.893000 256.845000 L 317.093000 254.238000 L 321.295000 251.635000 L 325.498000 249.032000 L 329.705000 246.437000 L 333.924000 243.861000 L 338.152000 241.301000 L 342.382000 238.743000 L 346.611000 236.184000 L 350.843000 233.630000 L 355.081000 231.086000 L 359.324000 228.549000 L 363.566000 226.012000 L 367.810000 223.477000 L 372.072000 220.974000 L 376.370000 218.533000 L 380.690000 216.129000 L 385.012000 213.732000 L 389.336000 211.335000 L 393.664000 208.948000 L 398.001000 206.576000 L 402.343000 204.213000 L 406.685000 201.852000 L 411.031000 199.496000 L 415.389000 197.163000 L 419.763000 194.861000 L 424.144000 192.572000 L 428.527000 190.286000 L 432.927000 188.034000 L 437.368000 185.864000 L 441.826000 183.727000 L 446.286000 181.596000 L 450.754000 179.481000 L 455.233000 177.390000 L 459.715000 175.305000 L 464.197000 173.221000 L 468.689000 171.158000 L 473.202000 169.141000 L 477.728000 167.154000" fill="none" id="5" stroke="#9de993" stroke-width="0.5" /><path d="M 91.688800 184.324000 L 96.009600 186.543000 L 100.340000 188.742000 L 104.692000 190.900000 L 109.041000 193.062000 L 113.386000 195.232000 L 117.731000 197.402000 L 122.077000 199.573000 L 126.444000 201.698000 L 130.822000 203.801000 L 135.210000 205.883000 L 139.610000 207.940000 L 144.016000 209.985000 L 148.445000 211.978000 L 152.891000 213.935000 L 157.355000 215.848000 L 161.853000 217.680000 L 166.371000 219.463000 L 170.898000 221.224000 L 175.435000 222.957000 L 179.981000 224.667000 L 184.551000 226.313000 L 189.150000 227.875000 L 193.740000 229.463000 L 198.306000 231.119000 L 202.856000 232.819000 L 207.384000 234.577000 L 211.881000 236.411000 L 216.339000 238.339000 L 220.761000 240.349000 L 225.146000 242.438000 L 229.355000 244.860000 L 233.249000 247.761000 L 236.896000 250.969000" fill="none" id="6" stroke="#ad5ba7" stroke-width="0.5" /><path d="M 38.242200 170.355000 L 42.769500 172.411000 L 47.321900 174.410000 L 51.905700 176.337000 L 56.494700 178.250000 L 61.064800 180.209000 L 65.615800 182.212000 L 70.163100 184.223000 L 74.689800 186.280000 L 79.204600 188.363000 L 83.713600 190.458000 L 88.192800 192.617000 L 92.644800 194.831000 L 97.093600 197.051000 L 101.553000 199.250000 L 106.031000 201.411000 L 110.517000 203.556000 L 115.003000 205.699000 L 119.490000 207.843000 L 123.976000 209.986000 L 128.463000 212.130000 L 132.951000 214.268000 L 137.447000 216.391000 L 141.950000 218.501000 L 146.454000 220.607000 L 150.961000 222.706000 L 155.478000 224.785000 L 160.005000 226.841000 L 164.536000 228.889000 L 169.066000 230.938000 L 173.594000 232.993000 L 178.116000 235.059000 L 182.637000 237.130000 L 187.157000 239.201000 L 191.678000 241.271000 L 196.198000 243.342000 L 200.719000 245.413000 L 205.241000 247.479000 L 209.783000 249.502000 L 214.359000 251.446000 L 218.944000 253.369000 L 223.517000 255.322000 L 228.084000 257.288000 L 232.650000 259.255000 L 237.217000 261.221000 L 241.784000 263.188000 L 246.347000 265.162000 L 250.905000 267.150000 L 255.481000 269.094000 L 260.089000 270.962000 L 264.705000 272.809000 L 269.319000 274.661000 L 273.922000 276.542000 L 278.510000 278.458000 L 283.095000 280.383000 L 287.677000 282.312000 L 292.252000 284.261000 L 296.815000 286.235000 L 301.376000 288.216000 L 305.932000 290.205000 L 310.474000 292.228000 L 315.006000 294.275000 L 319.517000 296.367000 L 324.009000 298.497000 L 328.453000 300.728000 L 332.842000 303.063000" fill="none" id="7" stroke="#58f2c3" stroke-width="0.5" /><path d="M 245.589000 39.393100 L 250.376000 40.595900 L 255.182000 41.722900 L 260.012000 42.737200 L 264.854000 43.695400 L 269.696000 44.653600 L 274.538000 45.611800 L 279.380000 46.570000 L 284.222000 47.528200 L 289.064000 48.486400 L 293.905000 49.444600 L 298.747000 50.402800 L 303.589000 51.363400 L 308.428000 52.337200 L 313.262000 53.330400 L 318.096000 54.330100 L 322.928000 55.337200 L 327.753000 56.374400 L 332.571000 57.448400 L 337.385000 58.536100 L 342.198000 59.634000 L 347.001000 60.768600 L 351.794000 61.947900 L 356.582000 63.144900 L 361.369000 64.350200 L 366.150000 65.577100 L 370.926000 66.823200 L 375.699000 68.077700 L 380.469000 69.347100 L 385.233000 70.638000 L 389.996000 71.933400 L 394.766000 73.202400 L 399.548000 74.422400 L 404.334000 75.632100 L 409.122000 76.828000 L 413.942000 77.890000 L 418.826000 78.596900 L 423.749000 78.940900 L 428.683000 79.056800 L 433.618000 78.972700" fill="none" id="8" stroke="#c94e76" stroke-width="0.5" /><path d="M 170.249000 90.613800 L 174.900000 88.960100 L 179.547000 87.296000 L 184.177000 85.584400 L 188.837000 83.953300 L 193.508000 82.358600 L 198.171000 80.738400 L 202.826000 79.095000 L 207.484000 77.461600 L 212.155000 75.864500 L 216.831000 74.283800 L 221.516000 72.728100 L 226.211000 71.202300 L 230.909000 69.687600 L 235.608000 68.174000 L 240.306000 66.660400 L 245.005000 65.146900 L 249.707000 63.646300 L 254.420000 62.176900 L 259.138000 60.726000 L 263.857000 59.277300 L 268.576000 57.828700 L 273.295000 56.380000 L 278.014000 54.931300 L 282.735000 53.488000 L 287.461000 52.061100 L 292.190000 50.647600 L 296.921000 49.237300 L 301.652000 47.827100 L 306.382000 46.417000 L 311.114000 45.010200 L 315.853000 43.627400 L 320.606000 42.296200 L 325.363000 40.976100 L 330.116000 39.645400 L 334.835000 38.196700 L 339.493000 36.563700 L 344.167000 34.975200 L 348.943000 33.730900 L 353.770000 32.699500" fill="none" id="9" stroke="#57b870" stroke-width="0.5" /><path d="M 355.058000 30.807800 L 350.479000 32.562500 L 345.924000 34.375600 L 341.393000 36.251600 L 336.902000 38.218900 L 332.295000 39.898400 L 327.627000 41.398400 L 322.947000 42.862400 L 318.258000 44.295300 L 313.567000 45.722800 L 308.853000 47.074200 L 304.122000 48.362100 L 299.388000 49.638400 L 294.656000 50.924600 L 289.931000 52.235400 L 285.209000 53.558000 L 280.488000 54.882600 L 275.770000 56.218300 L 271.059000 57.576300 L 266.350000 58.945400 L 261.642000 60.316100 L 256.940000 61.705000 L 252.248000 63.130600 L 247.563000 64.576900 L 242.878000 66.026100 L 238.207000 67.516200 L 233.561000 69.084600 L 228.930000 70.694500 L 224.300000 72.309800 L 219.678000 73.948300 L 215.067000 75.615100 L 210.460000 77.293400 L 205.864000 79.002500 L 201.289000 80.767000 L 196.721000 82.549900 L 192.153000 84.332800 L 187.585000 86.115700 L 183.018000 87.898600 L 178.450000 89.681500 L 173.882000 91.465500 L 169.318000 93.257200 L 164.760000 95.063800 L 160.201000 96.870500 L 155.643000 98.677800 L 151.089000 100.495000 L 146.554000 102.360000 L 142.048000 104.294000 L 137.698000 106.557000 L 133.471000 109.042000 L 129.359000 111.713000" fill="none" id="10" stroke="#57b870" stroke-width="0.5" /><path d="M 124.207000 104.729000 L 129.125000 104.386000 L 134.047000 104.136000 L 138.974000 104.001000 L 143.903000 104.001000 L 148.832000 104.001000 L 153.761000 104.001000 L 158.690000 104.001000 L 163.619000 104.001000 L 168.548000 104.001000 L 173.477000 104.001000 L 178.406000 104.001000 L 183.335000 104.001000 L 188.264000 104.001000 L 193.192000 103.983000 L 198.121000 103.954000 L 203.050000 103.922000 L 207.979000 103.890000 L 212.908000 103.858000 L 217.837000 103.826000 L 222.765000 103.794000 L 227.694000 103.761000 L 232.623000 103.730000 L 237.552000 103.715000 L 242.481000 103.730000 L 247.410000 103.684000 L 252.337000 103.569000 L 257.265000 103.453000 L 262.192000 103.334000 L 267.120000 103.203000 L 272.046000 103.058000 L 276.973000 102.910000 L 281.900000 102.761000 L 286.827000 102.618000 L 291.754000 102.496000 L 296.682000 102.398000 L 301.610000 102.303000 L 306.538000 102.207000 L 311.466000 102.089000 L 316.391000 101.896000 L 321.315000 101.677000 L 326.239000 101.458000 L 331.163000 101.245000 L 336.089000 101.061000 L 341.014000 100.883000 L 345.940000 100.696000 L 350.862000 100.438000 L 355.782000 100.135200 L 360.699000 99.796200 L 365.612000 99.403400 L 370.522000 98.974500" fill="none" id="11" stroke="#00d4db" stroke-width="0.5" /><path d="M 370.522000 98.974500 L 369.439000 98.897700 L 368.356000 98.821400 L 367.272000 98.754100 L 366.188000 98.691600 L 365.103000 98.647300 L 364.018000 98.621800 L 362.932000 98.626500 L 361.846000 98.626000 L 360.760000 98.620200 L 359.675000 98.629100 L 358.589000 98.646700 L 357.503000 98.660700 L 356.417000 98.673500 L 355.332000 98.709400 L 354.247000 98.748500 L 353.162000 98.783100 L 352.076000 98.820600 L 350.992000 98.878200 L 349.908000 98.934700 L 348.823000 98.987800 L 347.739000 99.047800 L 346.655000 99.119500 L 345.572000 99.189400 L 344.488000 99.257400 L 343.405000 99.336500 L 342.323000 99.422200 L 341.240000 99.510900 L 340.158000 99.600600 L 339.076000 99.690800 L 337.994000 99.781100" fill="none" id="12" stroke="#00d4db" stroke-width="0.5" /><path d="M 145.779000 106.766000 L 145.246000 106.767000 L 144.713000 106.769000 L 144.179000 106.771000 L 143.646000 106.773000 L 143.113000 106.775000 L 142.579000 106.777000 L 142.046000 106.782000 L 141.513000 106.787000 L 140.980000 106.793000 L 140.446000 106.799000 L 139.913000 106.807000 L 139.380000 106.816000 L 138.847000 106.825000 L 138.313000 106.834000 L 137.780000 106.845000 L 137.247000 106.855000 L 136.714000 106.867000 L 136.181000 106.879000 L 135.648000 106.892000 L 135.114000 106.905000 L 134.581000 106.918000 L 134.048000 106.932000 L 133.515000 106.946000 L 132.982000 106.961000 L 132.449000 106.976000 L 131.916000 106.991000 L 131.383000 107.007000 L 130.850000 107.022000 L 130.317000 107.038000 L 129.783000 107.054000" fill="none" id="13" stroke="#00d4db" stroke-width="0.5" /><path d="M 129.783000 107.054000 L 134.749000 106.887000 L 139.712000 106.644000 L 144.669000 106.301000 L 149.619000 105.865000 L 154.568000 105.420000 L 159.518000 104.996000 L 164.472000 104.614000 L 169.427000 104.246000 L 174.383000 103.882000 L 179.340000 103.543000 L 184.300000 103.245000 L 189.261000 102.963000 L 194.221000 102.683000 L 199.183000 102.411000 L 204.146000 102.172000 L 209.110000 101.966000 L 214.075000 101.769000 L 219.040000 101.573000 L 224.005000 101.383000 L 228.971000 101.223000 L 233.939000 101.102000 L 238.906000 100.995000 L 243.874000 100.889000 L 248.841000 100.783000 L 253.809000 100.673000 L 258.776000 100.553000 L 263.743000 100.425000 L 268.711000 100.296000 L 273.678000 100.167100 L 278.645000 100.041300 L 283.612000 99.929000 L 288.580000 99.836000 L 293.548000 99.753300 L 298.516000 99.672100 L 303.484000 99.591000 L 308.453000 99.513600 L 313.421000 99.447100 L 318.389000 99.387600 L 323.358000 99.329300 L 328.326000 99.271000 L 333.295000 99.215800 L 338.263000 99.173100 L 343.232000 99.137100 L 348.201000 99.102000 L 353.169000 99.069800 L 358.138000 99.055200 L 363.107000 99.053600 L 368.076000 99.053600 L 373.044000 99.053600 L 378.013000 99.053600 L 382.982000 99.053600 L 387.950000 99.011300 L 392.917000 98.851200 L 397.880000 98.617000" fill="none" id="14" stroke="#00d4db" stroke-width="0.5" /><path d="M 279.718000 92.942000 L 284.536000 93.815900 L 289.347000 94.724100 L 294.151000 95.675500 L 298.944000 96.677300 L 303.735000 97.687300 L 308.526000 98.697900 L 313.311000 99.740500 L 318.088000 100.813000 L 322.856000 101.927000 L 327.604000 103.126000 L 332.346000 104.348000 L 337.093000 105.548000 L 341.843000 106.736000 L 346.581000 107.972000 L 351.299000 109.285000 L 356.006000 110.632000 L 360.704000 112.012000 L 365.394000 113.421000 L 370.094000 114.794000 L 374.820000 116.074000 L 379.564000 117.288000 L 384.309000 118.499000 L 389.053000 119.710000 L 393.798000 120.918000 L 398.548000 122.107000 L 403.309000 123.254000 L 408.074000 124.381000 L 412.850000 125.463000 L 417.657000 126.390000 L 422.466000 127.317000 L 427.274000 128.244000 L 432.082000 129.170000 L 436.893000 130.078000 L 441.710000 130.963000 L 446.519000 131.882000 L 451.326000 132.813000" fill="none" id="15" stroke="#00d4db" stroke-width="0.5" /><path d="M 123.177000 109.822000 L 128.049000 110.757000 L 132.965000 111.415000 L 137.917000 111.712000 L 142.878000 111.682000 L 147.836000 111.527000 L 152.792000 111.290000 L 157.747000 111.035000 L 162.698000 110.717000 L 167.647000 110.369000 L 172.595000 110.017000 L 177.544000 109.664000 L 182.493000 109.312000 L 187.442000 108.960000 L 192.390000 108.608000 L 197.340000 108.270000 L 202.293000 107.985000 L 207.249000 107.756000 L 212.205000 107.541000 L 217.162000 107.326000 L 222.119000 107.119000 L 227.077000 106.927000 L 232.035000 106.748000 L 236.993000 106.571000 L 241.951000 106.396000 L 246.910000 106.241000 L 251.869000 106.121000 L 256.830000 106.029000 L 261.790000 105.944000 L 266.751000 105.859000 L 271.711000 105.769000 L 276.671000 105.666000 L 281.631000 105.553000 L 286.591000 105.438000 L 291.551000 105.323000 L 296.511000 105.207000 L 301.471000 105.092000 L 306.431000 104.977000 L 311.391000 104.862000 L 316.352000 104.880000 L 321.289000 105.321000 L 326.244000 105.384000 L 331.205000 105.333000 L 336.166000 105.282000 L 341.127000 105.230000 L 346.088000 105.179000 L 351.049000 105.128000 L 356.010000 105.076000 L 360.968000 104.891000 L 365.910000 104.457000 L 370.835000 103.855000" fill="none" id="16" stroke="#00d4db" stroke-width="0.5" /><path d="M 0.250000 183.451000 L 4.832330 181.632000 L 9.401290 179.779000 L 13.947100 177.870000 L 18.489200 175.952000 L 23.050000 174.080000 L 27.613900 172.214000 L 32.181700 170.359000 L 36.756700 168.521000 L 41.334400 166.690000 L 45.911000 164.856000 L 50.479000 163.001000 L 55.038600 161.125000 L 59.595600 159.243000 L 64.154800 157.366000 L 68.724600 155.516000 L 73.306800 153.696000 L 77.893700 151.888000 L 82.480600 150.080000 L 87.067600 148.273000 L 91.654600 146.465000 L 96.241600 144.657000 L 100.829000 142.849000 L 105.416000 141.044000 L 110.007000 139.245000 L 114.601000 137.455000 L 119.195000 135.666000 L 123.790000 133.879000 L 128.392000 132.109000 L 133.008000 130.378000 L 137.633000 128.668000 L 142.257000 126.958000 L 146.883000 125.252000 L 151.521000 123.581000 L 156.173000 121.947000 L 160.827000 120.321000 L 165.482000 118.695000 L 170.133000 117.060000 L 174.777000 115.405000 L 179.417000 113.736000 L 184.055000 112.066000 L 188.697000 110.404000 L 193.352000 108.779000 L 198.019000 107.189000 L 202.691000 105.613000 L 207.363000 104.038000 L 212.035000 102.463000 L 216.707000 100.889000 L 221.379000 99.313900 L 226.050000 97.736700 L 230.718000 96.148300 L 235.380000 94.544000 L 240.039000 92.933000 L 244.695000 91.309600 L 249.337000 89.648300 L 253.968000 87.957100 L 258.602000 86.272100 L 263.257000 84.649500 L 267.911000 83.021500 L 272.535000 81.311400 L 277.142000 79.554800" fill="none" id="17" stroke="#00d4db" stroke-width="0.5" /><path d="M 140.628000 113.750000 L 145.560000 113.410000 L 150.491000 113.061000 L 155.421000 112.702000 L 160.355000 112.394000 L 165.291000 112.120000 L 170.227000 111.849000 L 175.163000 111.578000 L 180.099000 111.307000 L 185.035000 111.041000 L 189.973000 110.811000 L 194.914000 110.646000 L 199.855000 110.494000 L 204.796000 110.342000 L 209.737000 110.190000 L 214.679000 110.038000 L 219.620000 109.886000 L 224.561000 109.735000 L 229.502000 109.583000 L 234.443000 109.439000 L 239.386000 109.330000 L 244.328000 109.244000 L 249.271000 109.162000 L 254.214000 109.079000 L 259.157000 109.001000 L 264.100000 108.945000 L 269.043000 108.910000 L 273.987000 108.882000 L 278.930000 108.855000 L 283.874000 108.829000 L 288.817000 108.805000 L 293.760000 108.789000 L 298.704000 108.775000 L 303.647000 108.762000 L 308.591000 108.749000 L 313.534000 108.736000 L 318.478000 108.722000 L 323.421000 108.709000 L 328.365000 108.696000 L 333.308000 108.677000 L 338.251000 108.641000 L 343.195000 108.594000 L 348.138000 108.548000 L 353.081000 108.519000 L 358.024000 108.578000 L 362.957000 108.281000 L 367.870000 107.734000 L 372.766000 107.057000" fill="none" id="18" stroke="#00d4db" stroke-width="0.5" /><path d="M 26.651300 170.646000 L 31.630800 170.714000 L 36.610500 170.769000 L 41.590400 170.799000 L 46.570300 170.792000 L 51.550300 170.792000 L 56.530200 170.792000 L 61.510200 170.792000 L 66.490100 170.791000 L 71.470100 170.785000 L 76.450000 170.756000 L 81.429700 170.714000 L 86.409500 170.669000 L 91.388900 170.598000 L 96.367800 170.492000 L 101.346000 170.381000 L 106.325000 170.267000 L 111.303000 170.132000 L 116.281000 169.974000 L 121.258000 169.811000 L 126.235000 169.649000 L 131.213000 169.502000 L 136.192000 169.396000 L 141.171000 169.306000 L 146.150000 169.217000 L 151.129000 169.127000 L 156.108000 169.032000 L 161.087000 168.927000 L 166.066000 168.818000 L 171.045000 168.709000 L 176.024000 168.599000 L 181.002000 168.495000 L 185.982000 168.404000 L 190.961000 168.323000 L 195.940000 168.244000 L 200.919000 168.164000 L 205.899000 168.087000 L 210.878000 168.018000 L 215.858000 167.961000 L 220.838000 167.910000 L 225.817000 167.858000 L 230.797000 167.807000 L 235.777000 167.755000 L 240.756000 167.703000 L 245.736000 167.652000 L 250.716000 167.600000 L 255.695000 167.549000 L 260.675000 167.497000 L 265.655000 167.445000 L 270.635000 167.394000 L 275.614000 167.342000 L 280.594000 167.291000 L 285.574000 167.239000 L 290.553000 167.187000 L 295.533000 167.136000 L 300.513000 167.084000 L 305.492000 167.033000 L 310.472000 166.981000 L 315.452000 166.928000 L 320.431000 166.861000 L 325.410000 166.759000 L 330.388000 166.630000 L 335.366000 166.494000 L 340.345000 166.357000 L 345.323000 166.221000 L 350.301000 166.085000 L 355.279000 165.948000 L 360.257000 165.812000 L 365.235000 165.676000 L 370.213000 165.538000 L 375.191000 165.390000 L 380.168000 165.216000 L 385.144000 165.032000 L 390.121000 164.848000 L 395.097000 164.663000 L 400.074000 164.479000 L 405.050000 164.294000 L 410.027000 164.110000 L 415.004000 163.925000 L 419.980000 163.741000 L 424.957000 163.556000 L 429.933000 163.372000 L 434.910000 163.187000 L 439.886000 163.003000 L 444.863000 162.818000 L 449.839000 162.634000 L 454.816000 162.453000 L 459.794000 162.298000 L 464.772000 162.175000 L 469.751000 162.055000 L 474.729000 161.934000 L 479.708000 161.814000 L 484.686000 161.694000 L 489.665000 161.574000 L 494.643000 161.453000 L 499.622000 161.333000" fill="none" id="19" stroke="#e68e54" stroke-width="0.5" /><path d="M 249.775000 0.250000 L 250.125000 5.160870 L 250.445000 10.073810 L 250.715000 14.989800 L 250.964000 19.906900 L 251.213000 24.823900 L 251.461000 29.741000 L 251.710000 34.658100 L 251.959000 39.575200 L 252.154000 44.494700 L 252.262000 49.416800 L 252.467000 54.335900 L 252.700000 59.253800 L 252.933000 64.171600 L 253.165000 69.089500 L 253.360000 74.009000 L 253.521000 78.929700 L 253.672000 83.850800 L 253.823000 88.771800 L 253.975000 93.692800 L 254.126000 98.613900 L 254.277000 103.535000 L 254.428000 108.456000 L 254.579000 113.377000 L 254.731000 118.298000 L 254.882000 123.219000 L 255.033000 128.140000 L 255.181000 133.061000 L 255.311000 137.983000 L 255.424000 142.905000 L 255.535000 147.827000 L 255.646000 152.749000 L 255.757000 157.671000 L 255.868000 162.593000 L 255.979000 167.515000 L 256.090000 172.438000 L 256.201000 177.360000 L 256.313000 182.282000 L 256.424000 187.204000 L 256.540000 192.126000 L 256.674000 197.047000 L 256.814000 201.969000 L 256.953000 206.890000 L 257.098000 211.811000 L 257.281000 216.731000 L 257.545000 221.648000 L 257.810000 226.564000 L 258.096000 231.479000 L 258.579000 236.379000 L 259.167000 241.267000 L 259.769000 246.153000 L 260.398000 251.036000 L 261.044000 255.917000" fill="none" id="20" stroke="#54aeff" stroke-width="0.5" /><path d="M 243.657000 13.055200 L 243.849000 18.010500 L 244.222000 22.955400 L 244.817000 27.878100 L 245.670000 32.763400 L 246.572000 37.639800 L 247.459000 42.519000 L 248.316000 47.403500 L 249.167000 52.289000 L 250.009000 57.176000 L 250.821000 62.068200 L 251.603000 66.965400 L 252.377000 71.863700 L 253.149000 76.762400 L 253.907000 81.663100 L 254.641000 86.567600 L 255.361000 91.474300 L 256.077000 96.381400 L 256.793000 101.289000 L 257.510000 106.196000 L 258.226000 111.103000 L 258.942000 116.010000 L 259.659000 120.917000 L 260.375000 125.824000 L 261.092000 130.731000 L 261.808000 135.638000 L 262.524000 140.545000 L 263.241000 145.453000 L 263.949000 150.361000 L 264.629000 155.273000 L 265.285000 160.189000 L 265.934000 165.105000 L 266.598000 170.020000 L 267.335000 174.923000 L 268.128000 179.819000 L 268.934000 184.712000 L 269.774000 189.599000 L 270.656000 194.479000 L 271.569000 199.354000 L 272.560000 204.213000 L 273.600000 209.062000" fill="none" id="21" stroke="#eed973" stroke-width="0.5" /><path d="M 244.301000 22.804600 L 244.392000 24.841400 L 244.475000 26.878500 L 244.545000 28.916100 L 244.587000 30.954300 L 244.615000 32.993000 L 244.645000 35.031500 L 244.683000 37.070000 L 244.738000 39.108100 L 244.803000 41.145800 L 244.874000 43.183400 L 244.948000 45.220800 L 245.023000 47.258300 L 245.097000 49.295700 L 245.170000 51.333300 L 245.242000 53.370800 L 245.309000 55.408500 L 245.374000 57.446300 L 245.436000 59.484100 L 245.499000 61.522000 L 245.561000 63.559800 L 245.623000 65.597700 L 245.685000 67.635600 L 245.747000 69.673400 L 245.815000 71.711100 L 245.885000 73.748700 L 245.993000 75.784700 L 246.110000 77.820100 L 246.245000 79.854400 L 246.396000 81.887600 L 246.555000 83.920200" fill="none" id="22" stroke="#008bd4" stroke-width="0.5" /><path d="M 177.332000 42.157800 L 182.252000 42.698200 L 187.149000 43.419000 L 192.029000 44.248700 L 196.892000 45.173000 L 201.750000 46.126800 L 206.610000 47.064500 L 211.472000 47.997200 L 216.330000 48.948400 L 221.182000 49.931900 L 226.030000 50.932400 L 230.877000 51.935100 L 235.725000 52.937700 L 240.573000 53.940300 L 245.421000 54.942900 L 250.269000 55.943800 L 255.120000 56.931100 L 259.976000 57.891200 L 264.833000 58.845700 L 269.691000 59.800300 L 274.547000 60.760100 L 279.399000 61.740900 L 284.248000 62.737700 L 289.097000 63.736600 L 293.945000 64.737200 L 298.791000 65.745700 L 303.635000 66.765400 L 308.478000 67.790500 L 313.321000 68.817200 L 318.162000 69.849900 L 323.001000 70.893700 L 327.839000 71.944800 L 332.677000 72.990900 L 337.521000 74.011900 L 342.372000 75.000300 L 347.227000 75.966400 L 352.093000 76.877600 L 356.975000 77.691400 L 361.864000 78.472000 L 366.778000 79.062100 L 371.712000 79.469200 L 376.655000 79.736100" fill="none" id="23" stroke="#fdb968" stroke-width="0.5" /><path d="M 376.655000 79.736100 L 375.711000 79.490500 L 374.767000 79.244900 L 373.822000 79.003600 L 372.877000 78.762400 L 371.930000 78.527800 L 370.984000 78.293500 L 370.031000 78.083100 L 369.079000 77.872700 L 368.126000 77.664100 L 367.174000 77.455500 L 366.218000 77.258600 L 365.263000 77.061700 L 364.307000 76.869200 L 363.351000 76.676700 L 362.394000 76.491100 L 361.436000 76.305400 L 360.477000 76.127000 L 359.519000 75.948500 L 358.559000 75.774500 L 357.599000 75.600500 L 356.638000 75.437600 L 355.676000 75.274700 L 354.714000 75.113600 L 353.753000 74.952400 L 352.790000 74.797800 L 351.827000 74.643100 L 350.864000 74.489000 L 349.901000 74.334900 L 348.938000 74.180100 L 347.975000 74.025300" fill="none" id="24" stroke="#fdb968" stroke-width="0.5" /><path d="M 111.329000 85.229800 L 116.144000 83.901100 L 120.890000 82.345800 L 125.514000 80.457500 L 130.051000 78.369400 L 134.611000 76.331800 L 139.232000 74.435800 L 143.898000 72.651900 L 148.566000 70.876500 L 153.265000 69.182600 L 157.968000 67.499800 L 162.671000 65.819700 L 167.398000 64.204100 L 172.135000 62.620900 L 176.872000 61.038400 L 181.610000 59.455900 L 186.347000 57.873300 L 191.084000 56.290800 L 195.822000 54.708200 L 200.559000 53.125700 L 205.297000 51.543200 L 210.034000 49.960500 L 214.770000 48.374800 L 219.498000 46.764100 L 224.222000 45.141200 L 228.946000 43.517300 L 233.668000 41.890700 L 238.384000 40.246500 L 242.847000 38.010700 L 246.845000 35.023200 L 250.419000 31.535400" fill="none" id="25" stroke="#6f73bc" stroke-width="0.5" /><path d="M 135.476000 32.699500 L 140.451000 32.475100 L 145.421000 32.162700 L 150.382000 31.728600 L 155.335000 31.208500 L 160.292000 30.737900 L 165.254000 30.312500 L 170.216000 29.893800 L 175.180000 29.488500 L 180.144000 29.098500 L 185.109000 28.711500 L 190.075000 28.334700 L 195.044000 27.999000 L 200.014000 27.691300 L 204.985000 27.389400 L 209.956000 27.089200 L 214.927000 26.795900 L 219.899000 26.511500 L 224.871000 26.230500 L 229.843000 25.949600 L 234.815000 25.675100 L 239.788000 25.417900 L 244.762000 25.174600 L 249.736000 24.934800 L 254.710000 24.695500 L 259.685000 24.461900 L 264.660000 24.241000 L 269.635000 24.029200 L 274.611000 23.819300 L 279.586000 23.611300 L 284.562000 23.414800 L 289.539000 23.240400 L 294.517000 23.079600 L 299.494000 22.921100 L 304.472000 22.766300 L 309.450000 22.628500 L 314.428000 22.512900 L 319.407000 22.403700 L 324.386000 22.297800 L 329.365000 22.213300 L 334.344000 22.158800 L 339.324000 22.111900 L 344.304000 22.079100 L 349.284000 22.073300 L 354.264000 22.071300 L 359.244000 22.077000" fill="none" id="26" stroke="#8f6aaf" stroke-width="0.5" /><path d="M 194.396000 13.200700 L 191.466000 13.331200 L 188.536000 13.458700 L 185.606000 13.581700 L 182.675000 13.698300 L 179.744000 13.809800 L 176.813000 13.910700 L 173.882000 14.008800 L 170.950000 14.108300 L 168.020000 14.231400 L 165.091000 14.376900 L 162.162000 14.542600 L 159.235000 14.723600 L 156.308000 14.905500 L 153.380000 15.087500 L 150.453000 15.269400 L 147.526000 15.453800 L 144.599000 15.647700 L 141.675000 15.865300 L 138.751000 16.099000 L 135.830000 16.369400 L 132.910000 16.642800 L 129.990000 16.919500 L 127.071000 17.199100 L 124.152000 17.485000 L 121.234000 17.784000 L 118.321000 18.122600 L 115.410000 18.479600 L 112.501000 18.859600 L 109.595000 19.255200 L 106.691000 19.662200" fill="none" id="27" stroke="#8f6aaf" stroke-width="0.5" /><path d="M 106.691000 19.662200 L 111.600000 19.712600 L 116.509000 19.737800 L 121.418000 19.739100 L 126.327000 19.687100 L 131.236000 19.615800 L 136.143000 19.461100 L 141.047000 19.242400 L 145.951000 19.017400 L 150.856000 18.810800 L 155.762000 18.625200 L 160.668000 18.443400 L 165.574000 18.263400 L 170.481000 18.106500 L 175.388000 17.973800 L 180.296000 17.847100 L 185.204000 17.720300 L 190.111000 17.599500 L 195.020000 17.497200 L 199.928000 17.405700 L 204.836000 17.315800 L 209.745000 17.225900 L 214.654000 17.157600 L 219.563000 17.131800 L 224.472000 17.129500 L 229.381000 17.129500 L 234.291000 17.129500 L 239.200000 17.129500 L 244.109000 17.129500 L 249.019000 17.129500 L 253.928000 17.129500 L 258.837000 17.129500 L 263.746000 17.129500 L 268.656000 17.129500 L 273.565000 17.129500 L 278.474000 17.129500 L 283.383000 17.129500 L 288.293000 17.129500 L 293.202000 17.129500 L 298.111000 17.129500 L 303.021000 17.129500 L 307.930000 17.129500 L 312.839000 17.129500 L 317.748000 17.129500 L 322.658000 17.131800 L 327.567000 17.151900 L 332.476000 17.203500 L 337.385000 17.252800 L 342.294000 17.274400 L 347.203000 17.277600 L 352.113000 17.279100 L 357.022000 17.275100" fill="none" id="28" stroke="#8f6aaf" stroke-width="0.5" /><path d="M 95.874300 27.752000 L 100.847000 27.481200 L 105.815000 27.124500 L 110.771000 26.630100 L 115.722000 26.091900 L 120.676000 25.574500 L 125.635000 25.113300 L 130.597000 24.686800 L 135.559000 24.266800 L 140.524000 23.875100 L 145.493000 23.531900 L 150.462000 23.196700 L 155.431000 22.864000 L 160.402000 22.557400 L 165.377000 22.317900 L 170.353000 22.107100 L 175.329000 21.900000 L 180.305000 21.694700 L 185.282000 21.500400 L 190.259000 21.324600 L 195.237000 21.158400 L 200.215000 20.993800 L 205.192000 20.829500 L 210.171000 20.680200 L 215.150000 20.568600 L 220.130000 20.483600 L 225.109000 20.404100 L 230.089000 20.324700 L 235.069000 20.246900 L 240.049000 20.177300 L 245.029000 20.119400 L 250.009000 20.066400 L 254.989000 20.013500 L 259.970000 19.960500 L 264.950000 19.907500 L 269.930000 19.854600 L 274.910000 19.801600 L 279.890000 19.748700 L 284.870000 19.695700 L 289.851000 19.646400 L 294.831000 19.613700 L 299.811000 19.604000 L 304.792000 19.603300 L 309.772000 19.603300 L 314.753000 19.603300 L 319.733000 19.603300 L 324.714000 19.603300 L 329.694000 19.603300 L 334.674000 19.603300 L 339.655000 19.603300 L 344.635000 19.603300 L 349.616000 19.603300 L 354.596000 19.603300 L 359.577000 19.603300 L 364.557000 19.598800 L 369.532000 19.375800 L 374.490000 18.901600 L 379.426000 18.240000" fill="none" id="29" stroke="#8f6aaf" stroke-width="0.5" /><path d="M 145.994000 19.894300 L 149.807000 20.432500 L 153.638000 20.829400 L 157.483000 21.025100 L 161.334000 21.058400 L 165.185000 21.058400 L 169.036000 21.058400 L 172.888000 21.050200 L 176.737000 20.968600 L 180.585000 20.804100 L 184.432000 20.615800 L 188.278000 20.427300 L 192.125000 20.238800 L 195.971000 20.051300 L 199.819000 19.871800 L 203.667000 19.718400 L 207.516000 19.597300 L 211.366000 19.487700 L 215.216000 19.392000 L 219.066000 19.333500 L 222.918000 19.314700 L 226.769000 19.312200 L 230.620000 19.312200 L 234.471000 19.312200 L 238.322000 19.312200 L 242.174000 19.312200 L 246.025000 19.314200 L 249.875000 19.353600 L 253.721000 19.545500 L 257.552000 19.941200 L 261.366000 20.476400" fill="none" id="30" stroke="#8f6aaf" stroke-width="0.5" /><path d="M 429.433000 94.251600 L 424.878000 96.239600 L 420.344000 98.273700 L 415.842000 100.378000 L 411.351000 102.507000 L 406.860000 104.635000 L 402.369000 106.764000 L 397.888000 108.913000 L 393.456000 111.159000 L 389.056000 113.471000 L 384.669000 115.805000 L 380.318000 118.206000 L 376.023000 120.706000 L 371.730000 123.210000 L 367.429000 125.699000 L 363.127000 128.188000 L 358.826000 130.677000 L 354.525000 133.166000 L 350.223000 135.655000 L 345.924000 138.148000 L 341.628000 140.647000 L 337.336000 143.152000 L 333.039000 145.649000 L 328.721000 148.108000 L 324.370000 150.511000 L 320.001000 152.879000 L 315.594000 155.176000 L 311.111000 157.318000 L 306.586000 159.373000 L 302.043000 161.388000 L 297.455000 163.298000 L 292.854000 165.176000 L 288.226000 166.987000 L 283.581000 168.754000" fill="none" id="31" stroke="#8bb658" stroke-width="0.5" /><path d="M 414.622000 103.419000 L 409.812000 104.029000 L 405.063000 105.003000 L 400.463000 106.534000 L 395.964000 108.341000 L 391.516000 110.269000 L 387.139000 112.355000 L 382.777000 114.471000 L 378.416000 116.588000 L 374.083000 118.764000 L 369.751000 120.941000 L 365.432000 123.144000 L 361.139000 125.397000 L 356.847000 127.651000 L 352.554000 129.905000 L 348.261000 132.158000 L 343.969000 134.412000 L 339.676000 136.665000 L 335.380000 138.913000 L 331.035000 141.065000 L 326.684000 143.202000 L 322.332000 145.340000 L 317.954000 147.423000 L 313.555000 149.461000 L 309.157000 151.500000 L 304.771000 153.568000 L 300.401000 155.667000 L 296.017000 157.737000 L 291.629000 159.798000 L 287.275000 161.931000 L 282.937000 164.098000" fill="none" id="32" stroke="#bbabff" stroke-width="0.5" /><path d="M 387.255000 104.438000 L 386.121000 105.136000 L 384.987000 105.834000 L 383.862000 106.545000 L 382.736000 107.256000 L 381.625000 107.989000 L 380.514000 108.723000 L 379.407000 109.463000 L 378.300000 110.203000 L 377.187000 110.933000 L 376.073000 111.664000 L 374.964000 112.400000 L 373.855000 113.136000 L 372.758000 113.891000 L 371.661000 114.646000 L 370.558000 115.391000 L 369.454000 116.136000 L 368.331000 116.851000 L 367.208000 117.566000 L 366.078000 118.270000 L 364.948000 118.974000 L 363.812000 119.669000 L 362.676000 120.364000 L 361.533000 121.046000 L 360.390000 121.728000 L 359.238000 122.397000 L 358.087000 123.065000 L 356.929000 123.724000 L 355.772000 124.382000 L 354.610000 125.032000 L 353.448000 125.683000" fill="none" id="33" stroke="#658424" stroke-width="0.5" /><path d="M 118.412000 106.766000 L 123.039000 108.489000 L 127.673000 110.191000 L 132.319000 111.862000 L 136.976000 113.500000 L 141.671000 115.027000 L 146.379000 116.514000 L 151.080000 118.024000 L 155.769000 119.567000 L 160.455000 121.121000 L 165.141000 122.675000 L 169.827000 124.230000 L 174.513000 125.785000 L 179.190000 127.366000 L 183.845000 129.011000 L 188.487000 130.692000 L 193.127000 132.379000 L 197.767000 134.065000 L 202.407000 135.751000 L 207.047000 137.438000 L 211.674000 139.162000 L 216.271000 140.961000 L 220.859000 142.785000 L 225.448000 144.605000 L 230.033000 146.437000 L 234.609000 148.290000 L 239.181000 150.153000 L 243.752000 152.018000 L 248.324000 153.883000 L 252.895000 155.748000 L 257.466000 157.613000 L 262.039000 159.474000 L 266.623000 161.307000 L 271.225000 163.095000 L 275.811000 164.925000 L 280.397000 166.753000 L 285.034000 168.448000 L 289.699000 170.064000" fill="none" id="34" stroke="#f1b9ff" stroke-width="0.5" /><path d="M 135.154000 19.748800 L 135.118000 23.004000 L 135.136000 26.259200 L 135.214000 29.513500 L 135.373000 32.764600 L 135.581000 36.013300 L 135.771000 39.262900 L 135.893000 42.516000 L 135.987000 45.770100 L 136.063000 49.024600 L 136.103000 52.279600 L 136.118000 55.535000 L 136.120000 58.790400 L 136.120000 62.045800 L 136.120000 65.301100 L 136.120000 68.556500 L 136.120000 71.811900 L 136.120000 75.067300 L 136.120000 78.322700 L 136.120000 81.578100 L 136.120000 84.833500 L 136.120000 88.088900 L 136.120000 91.344300 L 136.120000 94.599600 L 136.120000 97.855000 L 136.120000 101.110000 L 136.120000 104.366000 L 136.127000 107.621000 L 136.145000 110.877000 L 136.174000 114.132000 L 136.212000 117.387000" fill="none" id="35" stroke="#989c37" stroke-width="0.5" /><path d="M 136.212000 117.387000 L 136.257000 116.753000 L 136.300000 116.119000 L 136.330000 115.484000 L 136.357000 114.849000 L 136.377000 114.214000 L 136.395000 113.579000 L 136.413000 112.943000 L 136.425000 112.308000 L 136.429000 111.672000 L 136.433000 111.037000 L 136.438000 110.401000 L 136.440000 109.766000 L 136.442000 109.130000 L 136.442000 108.495000 L 136.442000 107.859000 L 136.442000 107.224000 L 136.442000 106.588000 L 136.442000 105.953000 L 136.442000 105.317000 L 136.442000 104.681000 L 136.442000 104.046000 L 136.442000 103.410000 L 136.442000 102.775000 L 136.442000 102.139000 L 136.442000 101.504000 L 136.442000 100.868000 L 136.442000 100.232600 L 136.442000 99.597100 L 136.442000 98.961500 L 136.442000 98.326000" fill="none" id="36" stroke="#989c37" stroke-width="0.5" /><path d="M 136.120000 29.789200 L 136.146000 32.128600 L 136.182000 34.467900 L 136.227000 36.807000 L 136.301000 39.145400 L 136.384000 41.483400 L 136.477000 43.821100 L 136.570000 46.158800 L 136.668000 48.496300 L 136.772000 50.833600 L 136.889000 53.170200 L 137.011000 55.506600 L 137.136000 57.842700 L 137.264000 60.178800 L 137.391000 62.514900 L 137.519000 64.850900 L 137.647000 67.187000 L 137.773000 69.523100 L 137.899000 71.859300 L 138.004000 74.196500 L 138.090000 76.534400 L 138.159000 78.872900 L 138.218000 81.211700 L 138.274000 83.550600 L 138.327000 85.889600 L 138.353000 88.229000 L 138.370000 90.568400 L 138.377000 92.908000 L 138.380000 95.247500 L 138.379000 97.587100 L 138.374000 99.926600" fill="none" id="37" stroke="#989c37" stroke-width="0.5" /><path d="M 139.662000 48.997000 L 139.662000 49.997900 L 139.662000 50.998800 L 139.662000 51.999700 L 139.662000 53.000600 L 139.662000 54.001500 L 139.662000 55.002400 L 139.662000 56.003300 L 139.662000 57.004200 L 139.663000 58.005100 L 139.664000 59.006000 L 139.662000 60.006900 L 139.660000 61.007800 L 139.652000 62.008700 L 139.643000 63.009500 L 139.632000 64.010400 L 139.620000 65.011200 L 139.559000 66.010300 L 139.498000 67.009300 L 139.407000 68.006000 L 139.315000 69.002700 L 139.146000 69.989300 L 138.978000 70.975900 L 138.801000 71.961100 L 138.624000 72.946200 L 138.418000 73.925800 L 138.213000 74.905400 L 138.006000 75.884700 L 137.799000 76.863900 L 137.604000 77.845600 L 137.408000 78.827200" fill="none" id="38" stroke="#989c37" stroke-width="0.5" /><path d="M 139.662000 62.966300 L 139.662000 63.882100 L 139.662000 64.798000 L 139.631000 65.713300 L 139.600000 66.628600 L 139.528000 67.541600 L 139.456000 68.454600 L 139.359000 69.365300 L 139.261000 70.276000 L 139.153000 71.185400 L 139.045000 72.094800 L 138.933000 73.003800 L 138.821000 73.912800 L 138.717000 74.822700 L 138.613000 75.732700 L 138.509000 76.642500 L 138.404000 77.552400 L 138.303000 78.462600 L 138.201000 79.372800 L 138.091000 80.282000 L 137.980000 81.191200 L 137.875000 82.100900 L 137.769000 83.010700 L 137.678000 83.922000 L 137.587000 84.833300 L 137.521000 85.746800 L 137.454000 86.660200 L 137.426000 87.575600 L 137.398000 88.491100 L 137.403000 89.406900 L 137.408000 90.322700" fill="none" id="39" stroke="#989c37" stroke-width="0.5" /><path d="M 142.882000 10.435900 L 142.882000 14.178300 L 142.882000 17.920800 L 142.882000 21.663200 L 142.882000 25.405600 L 142.882000 29.148000 L 142.881000 32.890400 L 142.871000 36.632800 L 142.824000 40.374900 L 142.744000 44.116500 L 142.657000 47.857900 L 142.570000 51.599300 L 142.483000 55.340700 L 142.396000 59.082100 L 142.304000 62.823400 L 142.185000 66.563800 L 142.022000 70.302600 L 141.841000 74.040600 L 141.659000 77.778600 L 141.477000 81.516600 L 141.295000 85.254600 L 141.110000 88.992500 L 140.912000 92.729700 L 140.696000 96.465800 L 140.473000 100.201600 L 140.279000 103.939000 L 140.127000 107.678000 L 139.972000 111.417000 L 139.785000 115.155000 L 139.573000 118.892000 L 139.340000 122.627000" fill="none" id="40" stroke="#bb568c" stroke-width="0.5" /><path d="M 354.092000 17.711600 L 355.824000 20.322300 L 357.404000 23.026900 L 358.793000 25.833000 L 359.972000 28.732600 L 361.032000 31.680500 L 362.024000 34.651600 L 362.904000 37.657900 L 363.660000 40.698200 L 364.416000 43.738500 L 365.179000 46.777000 L 365.973000 49.807700 L 366.781000 52.834500 L 367.592000 55.860700 L 368.398000 58.888000 L 369.191000 61.918700 L 369.956000 64.956800 L 370.698000 68.000600 L 371.438000 71.044800 L 372.174000 74.090200 L 372.894000 77.139200 L 373.593000 80.193000 L 374.278000 83.250200 L 374.968000 86.306000 L 375.708000 89.350300 L 376.615000 92.348400 L 377.571000 95.331700 L 378.538000 98.311900 L 379.518000 101.287000 L 380.540000 104.249000 L 381.624000 107.188000 L 382.747000 110.113000" fill="none" id="41" stroke="#cfe395" stroke-width="0.5" /><path d="M 367.615000 17.420600 L 367.985000 20.350000 L 368.466000 23.262700 L 369.109000 26.142500 L 369.882000 28.991600 L 370.708000 31.826400 L 371.492000 34.673200 L 372.242000 37.529100 L 373.002000 40.382400 L 373.782000 43.230200 L 374.581000 46.072600 L 375.390000 48.912400 L 376.192000 51.754100 L 376.948000 54.608500 L 377.671000 57.471100 L 378.381000 60.337300 L 379.100000 63.201200 L 379.847000 66.057600 L 380.635000 68.903200 L 381.440000 71.744200 L 382.263000 74.579800 L 383.126000 77.403500 L 384.024000 80.216200 L 384.943000 83.022600 L 385.866000 85.827300 L 386.789000 88.632100 L 387.709000 91.437600 L 388.682000 94.225200 L 389.737000 96.982400 L 390.878000 99.705100 L 392.084000 102.400000" fill="none" id="42" stroke="#ff94af" stroke-width="0.5" /><path d="M 365.361000 21.931500 L 366.215000 24.456500 L 367.092000 26.973700 L 367.996000 29.480900 L 368.932000 31.976800 L 369.901000 34.460100 L 370.845000 36.952900 L 371.762000 39.455600 L 372.653000 41.967700 L 373.523000 44.487100 L 374.376000 47.012400 L 375.206000 49.545600 L 376.012000 52.086200 L 376.801000 54.632300 L 377.586000 57.179600 L 378.357000 59.731000 L 379.114000 62.287000 L 379.854000 64.847600 L 380.591000 67.409300 L 381.316000 69.974300 L 382.023000 72.544400 L 382.709000 75.120100 L 383.386000 77.698300 L 384.076000 80.272900 L 384.784000 82.842500 L 385.513000 85.406600 L 386.259000 87.965400 L 386.990000 90.528700 L 387.707000 93.096200 L 388.410000 95.667400 L 389.102000 98.241400" fill="none" id="43" stroke="#ff94af" stroke-width="0.5" /><path d="M 364.073000 19.603300 L 365.074000 22.276100 L 366.091000 24.943300 L 367.124000 27.603800 L 368.178000 30.256300 L 369.257000 32.898300 L 370.371000 35.526200 L 371.497000 38.148900 L 372.620000 40.772800 L 373.677000 43.423700 L 374.670000 46.099300 L 375.636000 48.785100 L 376.602000 51.470900 L 377.598000 54.145500 L 378.627000 56.807900 L 379.673000 59.463500 L 380.728000 62.115600 L 381.790000 64.764800 L 382.867000 67.408100 L 383.962000 70.043500 L 385.061000 72.677700 L 386.166000 75.309700 L 387.278000 77.938300 L 388.398000 80.563300 L 389.523000 83.186300 L 390.667000 85.801600 L 391.812000 88.415800 L 392.926000 91.043600 L 393.986000 93.693200 L 394.989000 96.365500 L 395.948000 99.053600" fill="none" id="44" stroke="#ff94af" stroke-width="0.5" /><path d="M 370.513000 37.210400 L 370.673000 38.881500 L 370.834000 40.552600 L 371.042000 42.218300 L 371.251000 43.884000 L 371.538000 45.538200 L 371.824000 47.192300 L 372.147000 48.839800 L 372.470000 50.487300 L 372.768000 52.139500 L 373.065000 53.791600 L 373.346000 55.446800 L 373.626000 57.102000 L 373.900000 58.758400 L 374.173000 60.414800 L 374.437000 62.072700 L 374.702000 63.730500 L 374.940000 65.392200 L 375.179000 67.054000 L 375.403000 68.717700 L 375.627000 70.381500 L 375.892000 72.039200 L 376.157000 73.697000 L 376.482000 75.344000 L 376.807000 76.991000 L 377.200000 78.623000 L 377.594000 80.255000 L 378.053000 81.869900 L 378.512000 83.484700 L 379.020000 85.084800 L 379.528000 86.684900" fill="none" id="45" stroke="#ff94af" stroke-width="0.5" /><path d="M 131.935000 79.118200 L 133.090000 77.361700 L 134.258000 75.614100 L 135.445000 73.878600 L 136.663000 72.165200 L 137.900000 70.465500 L 139.172000 68.791900 L 140.438000 67.113200 L 141.699000 65.431100 L 142.951000 63.741900 L 144.216000 62.063000 L 145.493000 60.393400 L 146.797000 58.743700 L 148.102000 57.096000 L 149.410000 55.450100 L 150.709000 53.797000 L 152.004000 52.140900 L 153.294000 50.480600 L 154.591000 48.825800 L 155.892000 47.175100 L 157.215000 45.541100 L 158.544000 43.912000 L 159.880000 42.288400 L 161.215000 40.664800 L 162.554000 39.043900 L 163.900000 37.429000 L 165.327000 35.886400 L 166.798000 34.384600 L 168.343000 32.958900 L 169.926000 31.576300 L 171.537000 30.225800" fill="none" id="46" stroke="#488656" stroke-width="0.5" /><path d="M 225.627000 31.389800 L 226.154000 32.094300 L 226.680000 32.798800 L 227.223000 33.490600 L 227.766000 34.182400 L 228.333000 34.854400 L 228.900000 35.526400 L 229.480000 36.187100 L 230.061000 36.847800 L 230.645000 37.504800 L 231.230000 38.161800 L 231.815000 38.817900 L 232.400000 39.474100 L 232.983000 40.133000 L 233.565000 40.792000 L 234.140000 41.456900 L 234.716000 42.121800 L 235.287000 42.790300 L 235.859000 43.458800 L 236.416000 44.139200 L 236.973000 44.819600 L 237.527000 45.502600 L 238.080000 46.185700 L 238.620000 46.880000 L 239.160000 47.574200 L 239.698000 48.269300 L 240.237000 48.964400 L 240.773000 49.661800 L 241.308000 50.359200 L 242.370000 51.761700" fill="none" id="47" stroke="#ffc0e1" stroke-width="0.5" /></svg>