<?xml version="1.0" encoding="utf-8" ?>
<svg baseProfile="full" height="609.543715" version="1.1" viewBox="0,0,666.543715,609.543715" width="666.543715" xmlns="http://www.w3.org/2000/svg" xmlns:ev="http://www.w3.org/2001/xml-events" xmlns:xlink="http://www.w3.org/1999/xlink"><defs><style type="text/css"><![CDATA[
	.background { fill: white; }
	.line { stroke: firebrick; stroke-width: .1mm; }
	.blacksquare { fill: indigo; }
	.whitesquare { fill: white; }
]]></style></defs><rect class="background" height="100%" width="100%" x="0" y="0" /><path d="M 0.271857 223.888858 L 4.934678 222.086858 L 9.598827 220.287858 L 14.263757 218.489857 L 18.926157 216.686858 L 23.579458 214.859858 L 28.223257 213.008858 L 32.863157 211.147858 L 37.502758 209.286857 L 42.142358 207.424858 L 46.782058 205.563858 L 51.421658 203.702858 L 56.061357 201.840857 L 60.699758 199.976858 L 65.315857 198.057858 L 69.895557 196.053858 L 74.454657 194.002858 L 78.997857 191.916858 L 83.536257 189.820858 L 88.074057 187.722858 L 92.611757 185.625858 L 97.149558 183.527858 L 101.686858 181.430858 L 106.224857 179.332858 L 110.762857 177.234858 L 115.300857 175.137858 L 119.837857 173.039858 L 124.375857 170.942858 L 128.913858 168.844858 L 133.451858 166.746858 L 137.988858 164.649857 L 142.530857 162.560857 L 147.080858 160.489857 L 151.636858 158.431858 L 156.193858 156.377858 L 160.751857 154.322857 L 165.309858 152.268858 L 169.866858 150.214858 L 174.424858 148.160858 L 178.981858 146.105858 L 183.539858 144.051858 L 188.096857 141.997858 L 192.654858 139.943858 L 197.211858 137.889858 L 201.769858 135.834857 L 206.326858 133.780857 L 210.884858 131.726858 L 215.442858 129.672858 L 219.999858 127.617857 L 224.557858 125.563857 L 229.114857 123.508857 L 233.666858 121.442858 L 238.206858 119.349857 L 242.736858 117.234857 L 247.265858 115.120857 L 251.795858 113.005857 L 256.325857 110.891858 L 260.855858 108.777857 L 265.385857 106.662858 L 269.915858 104.548857 L 274.445857 102.433858 L 278.975858 100.319857 L 283.505857 98.205157 L 288.035858 96.090657 L 292.565857 93.976258 L 297.095858 91.861757 L 301.625857 89.747357 L 306.154857 87.632957 L 310.684858 85.518457 L 315.214857 83.404057 L 319.744858 81.289558 L 324.274857 79.175157 L 328.805858 77.061858 L 333.340858 74.958957 L 337.885857 72.878357 L 342.439858 70.815757 L 346.996858 68.758957 L 351.552858 66.702157 L 356.108857 64.645457 L 360.665858 62.588658 L 365.221857 60.531858 L 369.778858 58.475158 L 374.334857 56.418358 L 378.890858 54.361558 L 383.447857 52.304858 L 388.003858 50.248058 L 392.560857 48.191258 L 397.116858 46.134458 L 401.672858 44.077758 L 406.229858 42.020958 L 410.785858 39.964158 L 415.342858 37.907457 L 419.898858 35.850658 L 424.454858 33.793858 L 429.011858 31.737157 L 433.567858 29.680357 L 438.123857 27.622357 L 442.673857 25.552058 L 447.209857 23.449658 L 451.742858 21.342557 L 456.275858 19.235457 L 460.809858 17.128457 L 465.342858 15.021357 L 469.876858 12.914257 L 474.409857 10.807257 L 478.942858 8.700138 L 483.476857 6.593068 L 488.009858 4.485998 L 492.542858 2.378928 L 497.076858 0.271857" fill="none" id="0" stroke="#c583d9" stroke-width="0.5" /><path d="M 306.091858 330.927858 L 310.024857 327.927858 L 313.981857 324.960858 L 317.962857 322.024857 L 321.983857 319.145858 L 326.011858 316.274857 L 330.039857 313.403858 L 334.066858 310.532858 L 338.094857 307.661857 L 342.122858 304.790858 L 346.149857 301.919858 L 350.177858 299.048857 L 354.205858 296.178857 L 358.232858 293.307858 L 362.260857 290.436858 L 366.288858 287.565857 L 370.316858 284.694858 L 374.343858 281.823858 L 378.371858 278.952857 L 382.399857 276.081858 L 386.426857 273.210858 L 390.454858 270.339857 L 394.482858 267.468858 L 398.509858 264.598858 L 402.537858 261.727858 L 406.565857 258.856857 L 410.592858 255.985858 L 414.662858 253.174858 L 418.756858 250.397858 L 422.850858 247.623858 L 426.945857 244.849858 L 431.040858 242.074858 L 435.135857 239.300858 L 439.229858 236.525858 L 443.324858 233.751857 L 447.419858 230.977857 L 451.514858 228.202858 L 455.608857 225.428858 L 459.703858 222.653858 L 463.798857 219.879858 L 467.893858 217.105858 L 471.987858 214.330858 L 476.082857 211.556858 L 480.177858 208.781858 L 484.272857 206.007858 L 488.366858 203.233857 L 492.461858 200.458858 L 496.556858 197.684858 L 500.651858 194.909858 L 504.745857 192.135858 L 508.840858 189.361858 L 512.935857 186.586858 L 517.030858 183.812858 L 521.125858 181.037858 L 525.219857 178.263858 L 529.314858 175.489857 L 533.409858 172.714858 L 537.504857 169.940858 L 541.598858 167.165858 L 545.693858 164.391858 L 549.788858 161.616858 L 553.883857 158.842858 L 557.977858 156.068858 L 562.072858 153.293858 L 566.167857 150.519858 L 570.262857 147.744858 L 574.356858 144.970858 L 578.451857 142.196858 L 582.546857 139.421858 L 586.641858 136.647858 L 590.735858 133.872858 L 594.830857 131.098858 L 598.925858 128.324858 L 603.020858 125.549858 L 607.114857 122.775858 L 611.209857 120.000857 L 615.304858 117.226857 L 619.399858 114.452857 L 623.494857 111.677858 L 627.588858 108.903858 L 631.683858 106.128857 L 635.778857 103.354857 L 639.873857 100.580857" fill="none" id="1" stroke="#f375a0" stroke-width="0.5" /><path d="M 17.506258 213.224858 L 22.292957 214.628858 L 27.062458 216.089858 L 31.808957 217.624858 L 36.533258 219.225858 L 41.257658 220.826858 L 45.982058 222.427858 L 50.706358 224.028858 L 55.428358 225.637858 L 60.142257 227.268858 L 64.853358 228.909858 L 69.564157 230.549858 L 74.275058 232.190858 L 78.985857 233.830858 L 83.696757 235.471857 L 88.407557 237.111858 L 93.118457 238.752858 L 97.829257 240.393858 L 102.539857 242.033858 L 107.250857 243.674858 L 111.959857 245.321858 L 116.645857 247.030857 L 121.275858 248.886858 L 125.865857 250.838858 L 130.448858 252.807858 L 135.031858 254.776858 L 139.615858 256.745857 L 144.198858 258.714857 L 148.781858 260.683857 L 153.365858 262.652857 L 157.948858 264.621858 L 162.531858 266.590858 L 167.114857 268.560857 L 171.698858 270.529857 L 176.281858 272.498857 L 180.864857 274.467858 L 185.447857 276.436858 L 190.031858 278.405858 L 194.614857 280.374858 L 199.197857 282.343858 L 203.785858 284.301857 L 208.391858 286.217858 L 213.015858 288.087857 L 217.646858 289.943858 L 222.282858 291.783858 L 226.933858 293.588858 L 231.590857 295.375857 L 236.247858 297.161857 L 240.905857 298.947857 L 245.563858 300.733857 L 250.220858 302.519858 L 254.878858 304.305858 L 259.536857 306.091858 L 264.193858 307.877858 L 268.851857 309.663858 L 273.509858 311.449858 L 278.166857 313.235858 L 282.824858 315.021858 L 287.482858 316.808857 L 292.139858 318.594857 L 296.797858 320.380857 L 301.455858 322.166857" fill="none" id="2" stroke="#9de993" stroke-width="0.5" /><path d="M 134.853858 258.966858 L 139.757858 259.635857 L 144.661857 260.305858 L 149.565858 260.974857 L 154.469858 261.643858 L 159.374858 262.312858 L 164.278858 262.981857 L 169.182858 263.651858 L 174.086858 264.320857 L 178.990858 264.989858 L 183.894858 265.658858 L 188.798857 266.327857 L 193.702858 266.997858 L 198.606858 267.666857 L 203.511858 268.335858 L 208.415858 269.004858 L 213.319858 269.673857 L 218.223858 270.342858 L 223.127858 271.012857 L 228.031858 271.681858 L 232.935857 272.350858 L 237.839858 273.019858 L 242.743858 273.688857 L 247.652858 274.324858 L 252.566857 274.920858 L 257.481857 275.504858 L 262.396858 276.087857 L 267.311858 276.671857 L 272.226857 277.254858 L 277.141858 277.837857 L 282.056858 278.421857 L 286.971857 279.004858 L 291.886858 279.587857 L 296.801857 280.171857 L 301.716858 280.754858 L 306.631858 281.337857 L 311.546857 281.921857 L 316.461858 282.504858 L 321.376858 283.087857 L 326.291857 283.671857 L 331.207857 284.254858 L 336.122858 284.837857 L 341.037858 285.421857 L 345.952857 286.004858 L 350.867858 286.589857 L 355.778858 287.204858 L 360.682858 287.871858 L 365.583858 288.561858 L 370.485858 289.252858 L 375.386858 289.942858 L 380.287858 290.633858 L 385.188857 291.324858 L 390.089857 292.014858 L 394.990858 292.705858 L 399.891858 293.395858 L 404.793858 294.086858 L 409.694858 294.777857 L 414.595858 295.467858 L 419.496858 296.158858 L 424.397857 296.848858 L 429.298857 297.539857 L 434.199858 298.229858 L 439.101857 298.920858 L 444.002858 299.611857 L 448.903858 300.301857 L 453.804858 300.992858 L 458.705858 301.682858 L 463.606857 302.373857 L 468.507858 303.064858 L 473.409857 303.754858 L 478.310857 304.445857 L 483.211858 305.135857 L 488.112858 305.829858 L 493.006858 306.564858 L 497.879858 307.432858 L 502.751858 308.303857 L 507.624858 309.175858 L 512.496858 310.046857 L 517.368857 310.918858 L 522.240858 311.789857 L 527.112858 312.661857 L 531.985858 313.532858 L 536.857858 314.404857" fill="none" id="3" stroke="#ad5ba7" stroke-width="0.5" /><path d="M 344.134858 262.830858 L 348.152857 265.723858 L 352.352858 268.345858 L 356.812858 270.495857 L 361.363857 272.448858 L 365.915858 274.395858 L 370.467858 276.343858 L 375.019858 278.290858 L 379.577857 280.226857 L 384.205858 281.986857 L 388.869858 283.648858 L 393.537858 285.297858 L 398.206858 286.946858 L 402.875857 288.595858 L 407.544858 290.244858 L 412.213858 291.893858 L 416.881858 293.542858 L 421.550858 295.191858 L 426.219857 296.840858 L 430.888858 298.489858 L 435.556858 300.138858 L 440.225858 301.786857 L 444.894858 303.435857 L 449.560857 305.092858 L 454.192858 306.842858 L 458.800858 308.654857 L 463.407858 310.466858 L 468.015858 312.279857 L 472.623857 314.091858 L 477.231857 315.903858 L 481.839857 317.716858 L 486.446858 319.528858 L 491.054858 321.340858 L 495.662858 323.152857 L 500.270858 324.965858 L 504.878858 326.777857 L 509.485858 328.589857 L 514.093858 330.402857 L 518.701857 332.214857 L 523.309858 334.026858 L 527.916857 335.840858 L 532.519858 337.665858 L 537.108857 339.524857 L 541.689858 341.403858 L 546.270858 343.282858 L 550.851858 345.162858 L 555.432857 347.041857 L 560.013857 348.920858 L 564.594857 350.799858 L 569.174858 352.679858 L 573.755858 354.558857 L 578.336858 356.437858 L 582.917857 358.316858 L 587.498857 360.196858 L 592.079858 362.075857 L 596.660858 363.954858 L 601.241858 365.833858 L 605.822858 367.712857" fill="none" id="4" stroke="#58f2c3" stroke-width="0.5" /><path d="M 20.435958 466.216858 L 24.875657 463.989858 L 29.264357 461.663858 L 33.546258 459.147857 L 37.573958 456.247858 L 41.599457 453.338858 L 45.639858 450.449858 L 49.680357 447.560857 L 53.720758 444.671857 L 57.761158 441.782858 L 61.801558 438.893858 L 65.842057 436.004858 L 69.882458 433.116858 L 73.922857 430.227858 L 77.963257 427.338858 L 82.004058 424.449858 L 86.049157 421.567858 L 90.146057 418.759858 L 94.271657 415.993857 L 98.402857 413.235858 L 102.534858 410.478858 L 106.666857 407.722858 L 110.797857 404.965858 L 114.929857 402.208858 L 119.061858 399.452857 L 123.193857 396.695857 L 127.324857 393.938857 L 131.456858 391.181858 L 135.588858 388.425858 L 139.720858 385.668858 L 143.851858 382.911857 L 147.983857 380.155858 L 152.115858 377.398858 L 156.247858 374.641858 L 160.378858 371.884858 L 164.510858 369.128858 L 168.642858 366.371858 L 172.774857 363.614858 L 176.905857 360.858857 L 181.037858 358.101857 L 185.174858 355.352858 L 189.325858 352.624858 L 193.492858 349.920858 L 197.664858 347.225858 L 201.838858 344.533858 L 206.022858 341.857858 L 210.223858 339.207857 L 214.431858 336.567858 L 218.639858 333.928857 L 222.846857 331.289857 L 227.054857 328.650858 L 231.262858 326.010857 L 235.470858 323.371858 L 239.677858 320.732858 L 243.885858 318.093858 L 248.093858 315.453858 L 252.301858 312.814858 L 256.508858 310.175858 L 260.716858 307.536857 L 264.924858 304.896858 L 269.132858 302.257858 L 273.340858 299.618857 L 277.547858 296.979858 L 281.755857 294.339857 L 285.963858 291.700857 L 290.171857 289.061858 L 294.378858 286.422858 L 298.586858 283.782858 L 302.794858 281.143858 L 307.002858 278.504858 L 311.209857 275.865858 L 315.419858 273.228858 L 319.637857 270.605858 L 323.870857 268.006858 L 328.114858 265.426857 L 332.359858 262.847858 L 336.603858 260.267857 L 340.848858 257.688857 L 345.093858 255.109858 L 349.337857 252.529858 L 353.582857 249.950858 L 357.827857 247.371858 L 362.072857 244.791858 L 366.316858 242.212858 L 370.561858 239.632858 L 374.806858 237.053858 L 379.051857 234.474858 L 383.295858 231.894858 L 387.540858 229.315858 L 391.785858 226.736858 L 396.030858 224.156858 L 400.274857 221.577858 L 404.519858 218.998858 L 408.764858 216.418858 L 413.009858 213.839858 L 417.253858 211.260858 L 421.498857 208.680858 L 425.743857 206.101858 L 429.988857 203.522858 L 434.232858 200.942858 L 438.477858 198.363858 L 442.722858 195.783858 L 446.967858 193.204858 L 451.211858 190.625858 L 455.456858 188.045858 L 459.701858 185.466858 L 463.946858 182.887858 L 468.190857 180.307858 L 472.435857 177.728858" fill="none" id="5" stroke="#c94e76" stroke-width="0.5" /><path d="M 30.473157 460.411857 L 34.679658 457.804858 L 38.873258 455.178857 L 43.039858 452.508858 L 47.176658 449.793858 L 51.319858 447.087857 L 55.463058 444.382858 L 59.606358 441.676857 L 63.749558 438.971857 L 67.892758 436.265858 L 72.035957 433.559858 L 76.179257 430.854858 L 80.322457 428.148858 L 84.465657 425.443858 L 88.608857 422.737858 L 92.752157 420.032858 L 96.895358 417.326858 L 101.038857 414.621858 L 105.181857 411.915858 L 109.324857 409.209857 L 113.467857 406.504858 L 117.611857 403.798857 L 121.754857 401.093858 L 125.900858 398.391858 L 130.105858 395.783858 L 134.342858 393.226857 L 138.583858 390.677858 L 142.842858 388.157858 L 147.135858 385.698858 L 151.445858 383.266858 L 155.756858 380.837857 L 160.067858 378.408858 L 164.378858 375.979858 L 168.690858 373.550858 L 173.001857 371.121858 L 177.312858 368.692858 L 181.623858 366.263858 L 185.934858 363.834857 L 190.246858 361.405858 L 194.557858 358.976857 L 198.868858 356.547858 L 203.179857 354.118857 L 207.490858 351.689858 L 211.801858 349.260857 L 216.113858 346.831858 L 220.424858 344.402857 L 224.735858 341.973858 L 229.046858 339.544858 L 233.357858 337.115858 L 237.669858 334.686858 L 241.980858 332.257858 L 246.291858 329.828858 L 250.602857 327.399857 L 254.910858 324.963858 L 259.209857 322.514858 L 263.504858 320.055858 L 267.798857 317.597858 L 272.093858 315.139858 L 276.387857 312.680858 L 280.682858 310.222858 L 284.976857 307.764858 L 289.271858 305.305858 L 293.565857 302.847858 L 297.860858 300.389858 L 302.154857 297.930858 L 306.449858 295.472858 L 310.743857 293.013858 L 315.038858 290.555858 L 319.332857 288.097858 L 323.627858 285.638858 L 327.921857 283.180858 L 332.216858 280.722858 L 336.510857 278.263858 L 340.805858 275.805858 L 345.099857 273.347858 L 349.394858 270.888858 L 353.688857 268.430858 L 357.983857 265.972858 L 362.278858 263.513858 L 366.572857 261.055858 L 370.867858 258.596857 L 375.161857 256.138857 L 379.457857 253.682858 L 383.764858 251.246858 L 388.089857 248.842858 L 392.418858 246.445858 L 396.747858 244.047858 L 401.080858 241.657858 L 405.432858 239.302858 L 409.795858 236.967858 L 414.157858 234.632858 L 418.520858 232.296858 L 422.882858 229.961858 L 427.245857 227.625858 L 431.608857 225.290858 L 435.970858 222.955858" fill="none" id="6" stroke="#57b870" stroke-width="0.5" /><path d="M 145.548857 401.279857 L 149.907858 398.867858 L 154.256858 396.437858 L 158.583858 393.969857 L 162.862858 391.419858 L 167.147858 388.879858 L 171.409858 386.300858 L 175.653858 383.691858 L 179.891858 381.073858 L 184.076858 378.371858 L 188.242858 375.640858 L 192.406858 372.906858 L 196.571858 370.173857 L 200.735858 367.439858 L 204.900858 364.706858 L 209.064858 361.972858 L 213.229858 359.239858 L 217.393858 356.505857 L 221.558858 353.772857 L 225.728858 351.047858 L 229.921858 348.357858 L 234.127858 345.688857 L 238.335858 343.023858 L 242.544858 340.357858 L 246.752858 337.692858 L 250.961858 335.027857 L 255.169858 332.361857 L 259.378858 329.696858 L 263.586858 327.031858 L 267.794858 324.365858 L 272.003858 321.700857 L 276.211858 319.035858 L 280.420858 316.369858 L 284.628858 313.704858 L 288.837857 311.039857 L 293.045858 308.373857 L 297.254858 305.708858 L 301.462857 303.042858 L 305.672858 300.380857 L 309.894858 297.736857 L 314.138858 295.127858 L 318.395858 292.541857 L 322.660858 289.967858 L 326.945857 287.427858 L 331.259858 284.936858 L 335.590858 282.474857 L 339.924858 280.018858 L 344.257858 277.561858 L 348.590858 275.104858 L 352.924858 272.647857 L 357.257858 270.190857 L 361.591858 267.733857 L 365.924858 265.276858 L 370.258858 262.819858 L 374.591858 260.362858 L 378.925858 257.906858 L 383.258858 255.449858 L 387.592858 252.992858 L 391.925858 250.535858 L 396.258858 248.078857 L 400.592858 245.621858 L 404.925858 243.164858 L 409.263858 240.715857 L 413.621858 238.301858 L 418.007858 235.940858 L 422.405858 233.600858 L 426.804858 231.263858 L 431.203858 228.926858 L 435.602858 226.588858 L 440.002858 224.252858 L 444.407858 221.927858 L 448.834857 219.642858 L 453.279857 217.394858 L 457.727858 215.151858 L 462.176857 212.909858 L 466.624858 210.667857 L 471.072857 208.425858 L 475.520858 206.182858 L 479.969857 203.940858 L 484.417858 201.698858 L 488.865858 199.455858 L 493.314858 197.213858 L 497.762857 194.971857 L 502.210858 192.729858 L 506.658858 190.486858 L 511.107858 188.244858 L 515.555858 186.002858 L 520.003857 183.759858 L 524.452858 181.517858 L 528.900858 179.275858" fill="none" id="7" stroke="#d271bb" stroke-width="0.5" /><path d="M 293.111857 334.630857 L 297.296857 331.957857 L 301.381858 329.134858 L 305.374858 326.182858 L 309.441858 323.332857 L 313.437858 320.384858 L 317.433857 317.436858 L 321.429858 314.488857 L 325.425858 311.539857 L 329.421857 308.591858 L 333.417858 305.642857 L 337.413858 302.694858 L 341.404857 299.740858 L 345.351857 296.726857 L 349.287858 293.698858 L 353.253858 290.709857 L 357.264858 287.781858 L 361.286857 284.869858 L 365.308857 281.957857 L 369.331858 279.045858 L 373.354858 276.134858 L 377.377858 273.222858 L 381.399857 270.310857 L 385.422858 267.399857 L 389.445857 264.487858 L 393.468858 261.576858 L 397.490858 258.664857 L 401.513858 255.752858 L 405.536857 252.841858 L 409.559858 249.929857 L 413.581858 247.017858 L 417.604858 244.106858 L 421.634858 241.204858 L 425.706858 238.361858 L 429.804858 235.556858 L 433.905858 232.757858 L 438.010857 229.962858 L 442.133858 227.195858 L 446.273858 224.452858 L 450.416857 221.715857 L 454.560857 218.977857 L 458.703858 216.240858 L 462.847858 213.503858 L 466.990858 210.766858 L 471.133858 208.028858 L 475.277857 205.291858 L 479.420858 202.554857 L 483.564858 199.817858 L 487.707857 197.080858 L 491.851857 194.342858 L 495.994858 191.605858 L 500.137857 188.868858 L 504.281858 186.131858 L 508.424858 183.394858 L 512.568858 180.656858 L 516.711858 177.919858 L 520.854857 175.182858 L 524.998857 172.445858 L 529.141858 169.707858 L 533.285858 166.970858 L 537.428858 164.233857 L 541.571857 161.496858 L 545.715857 158.759858 L 549.858857 156.021858 L 554.002858 153.284858 L 558.145858 150.547858 L 562.288858 147.810857 L 566.432857 145.072857 L 570.575857 142.335858 L 574.719857 139.598858 L 578.862858 136.861858 L 583.005858 134.124858 L 587.149858 131.386858 L 591.292857 128.649857 L 595.436857 125.912858 L 599.579858 123.175857 L 603.722858 120.438857 L 607.866858 117.700857 L 612.009858 114.963857 L 616.153857 112.226857 L 620.296857 109.489857 L 624.439858 106.751857 L 628.583858 104.014857 L 632.726858 101.277857 L 636.870858 98.540657 L 641.012857 95.801857 L 645.139858 93.040157 L 649.253857 90.258557 L 653.366858 87.475957 L 657.479857 84.692957 L 661.592858 81.910057 L 665.705857 79.127358" fill="none" id="8" stroke="#3d8e43" stroke-width="0.5" /><path d="M 31.775758 459.709857 L 36.428958 458.064858 L 41.038358 456.300858 L 45.628258 454.486857 L 50.158658 452.528858 L 54.497058 450.175858 L 58.760258 447.689858 L 63.018958 445.194858 L 67.277558 442.700857 L 71.536158 440.206858 L 75.794857 437.711858 L 80.053457 435.217858 L 84.312057 432.723858 L 88.570757 430.228858 L 92.829358 427.734858 L 97.087958 425.240858 L 101.354857 422.759858 L 105.709857 420.437858 L 110.088857 418.161857 L 114.468857 415.887857 L 118.848857 413.613857 L 123.229857 411.339857 L 127.609857 409.064858 L 131.989857 406.790858 L 136.369858 404.516858 L 140.749858 402.242858 L 145.129858 399.968858 L 149.510858 397.694858 L 153.890858 395.420858 L 158.270858 393.145858 L 162.650858 390.871858 L 167.030857 388.597858 L 171.411857 386.323858 L 175.791858 384.049858 L 180.174858 381.780858 L 184.588858 379.572857 L 189.043858 377.449858 L 193.513858 375.356857 L 197.990858 373.280858 L 202.491858 371.256858 L 207.010858 369.271858 L 211.531858 367.291857 L 216.052858 365.312858 L 220.573858 363.332857 L 225.094858 361.353858 L 229.615858 359.373857 L 234.136858 357.394858 L 238.657858 355.415858 L 243.178858 353.435857 L 247.699858 351.456858 L 252.220858 349.476857 L 256.741858 347.497858 L 261.262857 345.517857 L 265.783858 343.538858 L 270.304858 341.558857 L 274.825857 339.579858 L 279.346857 337.599857 L 283.867858 335.620857 L 288.388858 333.640858 L 292.909857 331.661857 L 297.430858 329.681858 L 301.951858 327.702857 L 306.472858 325.722858 L 310.991858 323.739858 L 315.497858 321.725858 L 319.973858 319.647857 L 324.443858 317.554858 L 328.912858 315.461858 L 333.382858 313.367858 L 337.851857 311.274857 L 342.321858 309.181858 L 346.790858 307.088858 L 351.259858 304.995857 L 355.729858 302.902857 L 360.198858 300.808857 L 364.668858 298.715858 L 369.137857 296.622858 L 373.607858 294.529857" fill="none" id="9" stroke="#00d4db" stroke-width="0.5" /><path d="M 281.611857 90.111657 L 286.254858 91.758358 L 290.902857 93.391458 L 295.558857 95.001357 L 300.217858 96.603557 L 304.875857 98.205857 L 309.588858 99.641058 L 314.370857 100.824857 L 319.160858 101.977857 L 323.950857 103.129857 L 328.740858 104.281858 L 333.530858 105.433858 L 338.320857 106.586857 L 343.110858 107.738857 L 347.900858 108.890857 L 352.689858 110.042857 L 357.479858 111.194857 L 362.269858 112.346857 L 367.059858 113.499857 L 371.849857 114.651857 L 376.639858 115.803857 L 381.429858 116.955857 L 386.202857 118.175857 L 390.959857 119.455857 L 395.713858 120.750857 L 400.457857 122.078857 L 405.190857 123.445858 L 409.919858 124.824857 L 414.649857 126.203857 L 419.379858 127.581857 L 424.108857 128.960858 L 428.838858 130.339858 L 433.567858 131.718858 L 438.297858 133.097858 L 443.027857 134.476858 L 447.756858 135.855858 L 452.486857 137.234858 L 457.215858 138.613858 L 461.945857 139.992858 L 466.675858 141.371858 L 471.404857 142.750858 L 476.134858 144.129858 L 480.863857 145.508858 L 485.593858 146.887858 L 490.322857 148.266858 L 495.052858 149.645858 L 499.778858 151.038858 L 504.486857 152.487858 L 509.177858 153.991858 L 513.869857 155.495857 L 518.560857 156.999858 L 523.252858 158.502858 L 527.943858 160.006858 L 532.634858 161.510858 L 537.326857 163.014858 L 542.017857 164.518858 L 546.709857 166.021858 L 551.400858 167.525858 L 556.091858 169.029858 L 560.783857 170.533858 L 565.474857 172.037858 L 570.166857 173.541858" fill="none" id="10" stroke="#d55969" stroke-width="0.5" /><path d="M 295.912858 92.721058 L 300.723858 93.921257 L 305.538858 95.111058 L 310.353858 96.296557 L 315.178857 97.440757 L 320.025858 98.493557 L 324.869858 99.551757 L 329.680858 100.755857 L 334.465858 102.058858 L 339.245857 103.380857 L 344.025858 104.701858 L 348.804858 106.023857 L 353.584857 107.344857 L 358.364858 108.666857 L 363.144858 109.988857 L 367.924858 111.309857 L 372.704858 112.631857 L 377.483857 113.952857 L 382.263858 115.274857 L 387.043858 116.596857 L 391.822857 117.920857 L 396.595858 119.268857 L 401.350858 120.674858 L 406.088858 122.139857 L 410.821858 123.619857 L 415.554858 125.100857 L 420.287858 126.580857 L 425.020858 128.061858 L 429.753858 129.541858 L 434.486857 131.022858 L 439.219857 132.502858 L 443.952857 133.983857 L 448.685857 135.463858 L 453.418858 136.944858 L 458.151858 138.424858 L 462.884858 139.905857 L 467.614858 141.396858 L 472.331858 142.927858 L 477.038858 144.489857 L 481.745857 146.050858 L 486.476857 147.534858 L 491.232858 148.941857 L 495.994858 150.324858 L 500.757858 151.706858 L 505.520858 153.087858 L 510.283858 154.469858 L 515.046857 155.850858 L 519.808858 157.231858 L 524.571857 158.613858 L 529.334857 159.994858 L 534.097858 161.376857 L 538.860858 162.757858 L 543.623857 164.139858 L 548.386858 165.520858 L 553.149858 166.902858 L 557.912857 168.283858 L 562.674858 169.664858 L 567.437858 171.046858 L 572.201857 172.425858 L 576.973858 173.773858 L 581.790858 174.953857 L 586.616858 176.096857 L 591.455857 177.181858" fill="none" id="11" stroke="#d55969" stroke-width="0.5" /><path d="M 347.517857 65.373458 L 352.309858 66.559658 L 357.102858 67.745657 L 361.894858 68.931457 L 366.687858 70.116157 L 371.499858 71.218457 L 376.314858 72.308157 L 381.130857 73.397357 L 385.945857 74.486557 L 390.760857 75.575757 L 395.576858 76.664957 L 400.391858 77.754157 L 405.206858 78.843257 L 410.022857 79.932457 L 414.837857 81.021657 L 419.632858 82.197357 L 424.408858 83.445457 L 429.176857 84.728157 L 433.932858 86.051857 L 438.684858 87.389257 L 443.437858 88.726557 L 448.189858 90.063958 L 452.942858 91.401257 L 457.694858 92.738658 L 462.446858 94.076057 L 467.199858 95.413357 L 471.951858 96.750757 L 476.703858 98.088057 L 481.456858 99.425457 L 486.208858 100.762857 L 490.961858 102.099857 L 495.713858 103.437857 L 500.465858 104.774857 L 505.218858 106.111857 L 509.970858 107.449857 L 514.722858 108.786857 L 519.475857 110.123857 L 524.227858 111.461857 L 528.979857 112.798857 L 533.732858 114.136857 L 538.484857 115.473857 L 543.237858 116.810857 L 547.989857 118.148857 L 552.741858 119.485857 L 557.494857 120.822857 L 562.246858 122.160857 L 566.998857 123.497857 L 571.751858 124.834857 L 576.503857 126.172857 L 581.256858 127.509857 L 586.008857 128.847858 L 590.760858 130.184858 L 595.513857 131.521858 L 600.266858 132.854858 L 605.031858 134.146858 L 609.811857 135.381858 L 614.593858 136.609858 L 619.375858 137.837858 L 624.157857 139.065858 L 628.938858 140.293858 L 633.720857 141.521858" fill="none" id="12" stroke="#64e4ff" stroke-width="0.5" /><path d="M 310.892857 608.431857 L 310.892857 605.020858 L 310.892857 601.608857 L 310.892857 598.196857 L 310.892857 594.785858 L 310.853858 591.374857 L 310.766858 587.963858 L 310.635857 584.554858 L 310.467858 581.147857 L 310.276858 577.741858 L 310.076858 574.335857 L 309.873857 570.930858 L 309.671857 567.524858 L 309.469857 564.118857 L 309.266858 560.713858 L 309.064858 557.307857 L 308.862858 553.902857 L 308.659857 550.496858 L 308.457857 547.091858 L 308.255857 543.685857 L 308.052858 540.280858 L 307.850858 536.874857 L 307.648858 533.469857 L 307.445857 530.063858 L 307.243857 526.657857 L 307.041857 523.252858 L 306.838858 519.846858 L 306.636858 516.441857 L 306.433857 513.035858 L 306.231857 509.630857 L 306.029857 506.224857" fill="none" id="13" stroke="#e68e54" stroke-width="0.5" /><path d="M 302.422858 278.411857 L 302.429858 283.405858 L 302.436858 288.398858 L 302.444858 293.392857 L 302.452857 298.385857 L 302.543858 303.378858 L 302.644858 308.371858 L 302.745857 313.363857 L 302.846857 318.355858 L 302.947857 323.348858 L 303.049858 328.340858 L 303.150858 333.333858 L 303.251858 338.325857 L 303.352858 343.318858 L 303.454858 348.310857 L 303.555858 353.303857 L 303.656858 358.295858 L 303.757858 363.288858 L 303.859858 368.280858 L 303.986857 373.272857 L 304.131858 378.263858 L 304.276858 383.255857 L 304.421857 388.246858 L 304.566858 393.237858 L 304.711858 398.229858 L 304.856857 403.220858 L 305.001858 408.212857 L 305.147857 413.203858 L 305.292858 418.194858 L 305.437858 423.186858 L 305.582857 428.177858 L 305.727858 433.168858 L 305.872858 438.160858 L 306.017857 443.151858 L 306.162858 448.143858 L 306.307858 453.134858 L 306.452857 458.125857 L 306.598858 463.117858 L 306.743857 468.108857 L 306.898858 473.099857 L 307.074858 478.090858 L 307.255857 483.080858 L 307.435857 488.070857 L 307.616858 493.060857 L 307.797858 498.050858 L 307.978858 503.041857 L 308.158858 508.031858 L 308.339857 513.021858 L 308.520858 518.011858 L 308.700857 523.002858 L 308.881858 527.992858 L 309.062858 532.982858 L 309.242858 537.972858 L 309.624858 542.951857 L 310.057858 547.926857 L 310.490858 552.900858 L 311.152857 557.850857 L 312.021858 562.767857 L 313.048857 567.654858" fill="none" id="14" stroke="#54aeff" stroke-width="0.5" /><path d="M 594.749857 65.719257 L 594.214857 70.629157 L 593.784858 75.549357 L 593.571857 80.483657 L 593.532857 85.422457 L 593.455857 90.360857 L 593.378857 95.299157 L 593.301857 100.237557 L 593.223858 105.175857 L 593.146858 110.113857 L 593.069858 115.052858 L 592.992858 119.990857 L 592.870858 124.927858 L 592.691857 129.863858 L 592.502858 134.799858 L 592.307857 139.734858 L 592.104857 144.668858 L 591.899858 149.603858 L 591.694858 154.538858 L 591.489857 159.473858 L 591.284858 164.407858 L 591.079858 169.342858 L 590.874857 174.277858 L 590.669858 179.211858 L 590.464857 184.146858 L 590.259858 189.081858 L 590.053858 194.015858 L 589.848858 198.950858 L 589.643857 203.885858 L 589.438858 208.819858 L 589.233857 213.754858 L 589.028857 218.689858 L 588.823858 223.623858 L 588.618857 228.558858 L 588.413858 233.493858 L 588.208858 238.428858 L 588.003857 243.362858 L 587.797857 248.297858 L 587.592858 253.232858 L 587.387857 258.166857 L 587.182857 263.101857 L 586.977858 268.036857 L 586.772857 272.970858 L 586.567858 277.905858 L 586.362858 282.840858 L 586.157857 287.774857 L 585.952858 292.709857 L 585.747858 297.644858 L 585.542857 302.579858 L 585.336858 307.513858 L 585.131858 312.448858 L 584.926857 317.383858 L 584.721858 322.317858 L 584.516858 327.252858 L 584.311857 332.187858 L 584.106858 337.121858 L 583.901858 342.056858 L 583.696857 346.991858 L 583.491858 351.925858 L 583.286857 356.860858 L 583.080857 361.795858 L 582.875858 366.730858 L 582.670858 371.664857 L 582.465857 376.599857 L 582.259858 381.534857 L 582.030858 386.467858 L 581.705857 391.395858 L 581.350857 396.322857 L 580.965857 401.246858 L 580.498857 406.162858 L 579.959857 411.072857" fill="none" id="15" stroke="#eed973" stroke-width="0.5" /><path d="M 7.135137 146.837858 L 9.383487 151.286857 L 10.769958 156.073858 L 11.079857 161.057858 L 11.474757 166.035858 L 11.889057 171.011858 L 12.303457 175.987858 L 12.717757 180.963858 L 13.132157 185.939858 L 13.546557 190.915858 L 13.960857 195.891858 L 14.375258 200.867858 L 14.789557 205.843858 L 15.203957 210.819858 L 15.617757 215.795858 L 16.027757 220.772858 L 16.427058 225.749858 L 16.818257 230.727857 L 17.209557 235.705858 L 17.600758 240.683858 L 17.992057 245.661857 L 18.383257 250.639858 L 18.774558 255.617858 L 19.165757 260.595858 L 19.557057 265.573858 L 19.948258 270.550858 L 20.339557 275.528858 L 20.730757 280.506858 L 21.122058 285.484858 L 21.513257 290.462857 L 21.904557 295.440857 L 22.295758 300.418858 L 22.687057 305.396858 L 23.078257 310.374858 L 23.469558 315.352858 L 23.860757 320.330858 L 24.252057 325.308857 L 24.643258 330.286857 L 25.034557 335.264858 L 25.425757 340.242858 L 25.817058 345.220858 L 26.208958 350.197857 L 26.649558 355.171857 L 27.163158 360.138858 L 27.705457 365.101857 L 28.250058 370.065857 L 28.794557 375.028858 L 29.339157 379.992858 L 29.883757 384.955858 L 30.428358 389.919858 L 30.972957 394.882858 L 31.517557 399.846857 L 32.062058 404.810857 L 32.606658 409.773858 L 33.151257 414.737858 L 33.695858 419.700857 L 34.240458 424.664857 L 34.785058 429.627858 L 35.329557 434.591858 L 35.874158 439.554858 L 36.418758 444.518858 L 36.963358 449.481857 L 37.507958 454.445857 L 38.052558 459.408858 L 38.597058 464.372858 L 39.148257 469.334857 L 39.739258 474.292858 L 40.399458 479.242858 L 41.070758 484.190857 L 41.742058 489.138858 L 42.413358 494.086858 L 43.084558 499.034857 L 43.755858 503.982858 L 44.427157 508.930858 L 45.098458 513.878857 L 45.769758 518.826857 L 46.440958 523.774858 L 47.112258 528.721858 L 47.783558 533.669858" fill="none" id="16" stroke="#008bd4" stroke-width="0.5" /><path d="M 319.041857 578.087858 L 322.941858 575.016858 L 326.799858 571.892857 L 330.582857 568.678858 L 334.306858 565.394858 L 338.036857 562.119857 L 341.767857 558.844857 L 345.494858 555.565857 L 349.195857 552.256858 L 352.872858 548.921857 L 356.546857 545.582858 L 360.219857 542.243857 L 363.893858 538.904858 L 367.567858 535.565857 L 371.240858 532.226858 L 374.917858 528.890858 L 378.612858 525.575857 L 382.335858 522.291857 L 386.067858 519.017857 L 389.800858 515.745858 L 393.533858 512.472858 L 397.266858 509.199858 L 400.999858 505.926857 L 404.731857 502.653858 L 408.464857 499.381858 L 412.197857 496.108857 L 415.930858 492.835858 L 419.662858 489.562858 L 423.395858 486.289857 L 427.128858 483.017857 L 430.861857 479.744858 L 434.594857 476.471857 L 438.326858 473.198858 L 442.059858 469.925858 L 445.792858 466.653858 L 449.526858 463.381858 L 453.268858 460.119858 L 457.025858 456.874858 L 460.791857 453.640858 L 464.559858 450.408858 L 468.327857 447.176857 L 472.095858 443.943858 L 475.863857 440.711858 L 479.632858 437.479858 L 483.400858 434.247858 L 487.168858 431.015858 L 490.936858 427.783858 L 494.704858 424.551857 L 498.472858 421.319858 L 502.240858 418.087857 L 506.008858 414.854858 L 509.776858 411.622858 L 513.544858 408.390858 L 517.311857 405.157858 L 521.066857 401.909857 L 524.773857 398.608857 L 528.471858 395.296857 L 532.170858 391.984858 L 535.868857 388.672858 L 539.566857 385.361857 L 543.264858 382.049858 L 546.962858 378.737858 L 550.661857 375.425858 L 554.359857 372.113857 L 558.057857 368.802858 L 561.755858 365.490858" fill="none" id="17" stroke="#fdb968" stroke-width="0.5" /><path d="M 301.841858 602.732858 L 305.448858 599.315857 L 309.054858 595.898857 L 312.661857 592.482858 L 316.267857 589.065857 L 319.874858 585.648857 L 323.480858 582.231858 L 327.087857 578.814858 L 330.693858 575.398857 L 334.300858 571.981858 L 337.932858 568.591858 L 341.607858 565.248857 L 345.291857 561.916857 L 348.977858 558.585857 L 352.663858 555.253857 L 356.348858 551.922857 L 360.034857 548.591858 L 363.719857 545.259858 L 367.405858 541.928858 L 371.090858 538.597858 L 374.776858 535.265858 L 378.462857 531.934858 L 382.147857 528.603858 L 385.833858 525.271858 L 389.518858 521.940857 L 393.204858 518.609857 L 396.881858 515.268857 L 400.543858 511.911857 L 404.200857 508.548857 L 407.856857 505.184858 L 411.512857 501.821858 L 415.168858 498.457857 L 418.825857 495.094857 L 422.481857 491.730858 L 426.137857 488.367858 L 429.793858 485.003858 L 433.449858 481.640858 L 437.106857 478.276858 L 440.762857 474.913858 L 444.418858 471.549858 L 448.074858 468.186858 L 451.730858 464.822857 L 455.387857 461.458858 L 459.043858 458.095858 L 462.699858 454.731857 L 466.355858 451.368857 L 470.012857 448.004858 L 473.668858 444.641858 L 477.324858 441.277857 L 480.980858 437.914857 L 484.636858 434.550858 L 488.293858 431.187858 L 491.949858 427.823858 L 495.605858 424.460858 L 499.261858 421.096857 L 502.917858 417.733857 L 506.574858 414.369858 L 510.230858 411.006858 L 513.886858 407.642857 L 517.542857 404.279857 L 521.199858 400.915858 L 524.855857 397.552858 L 528.511858 394.188857 L 532.167857 390.825857 L 535.823858 387.461858 L 539.480857 384.097858 L 543.136858 380.734858 L 546.792857 377.370857 L 550.453858 374.012857 L 554.140858 370.683857 L 557.867858 367.398858 L 561.600857 364.120857 L 565.333858 360.841858 L 569.066857 357.563857 L 572.799858 354.285858 L 576.532857 351.007858 L 580.265858 347.729858 L 583.998857 344.451858 L 587.731858 341.173857 L 591.464857 337.895858 L 595.197858 334.617858 L 598.930858 331.338858 L 602.664858 328.061858 L 606.411857 324.800858 L 610.210857 321.598858 L 614.010858 318.398858 L 617.810857 315.198858 L 621.610858 311.998857 L 625.410858 308.797858 L 629.210857 305.597858 L 633.010858 302.397857 L 636.810857 299.197857" fill="none" id="18" stroke="#6f73bc" stroke-width="0.5" /><path d="M 480.357858 455.779857 L 480.329858 450.818858 L 480.301857 445.857858 L 480.273858 440.897857 L 480.246858 435.936858 L 480.223858 430.975858 L 480.272857 426.015858 L 480.442858 421.057858 L 480.636858 416.100858 L 480.832857 411.143858 L 481.028858 406.186858 L 481.223858 401.229858 L 481.419858 396.272857 L 481.615858 391.315857 L 481.810857 386.358857 L 482.006858 381.401858 L 482.202857 376.444858 L 482.397857 371.487858 L 482.593858 366.530858 L 482.789857 361.573858 L 482.984858 356.616858 L 483.180858 351.659857 L 483.376858 346.702857 L 483.571858 341.745857 L 483.767857 336.788858 L 483.963858 331.831858 L 484.158858 326.874858 L 484.354858 321.917858 L 484.550858 316.960858 L 484.745857 312.003858 L 484.941858 307.046857 L 485.136858 302.089857 L 485.332857 297.132858 L 485.528858 292.175858 L 485.723858 287.218858 L 485.919858 282.261858 L 486.115858 277.304858 L 486.310857 272.347858 L 486.506858 267.390858 L 486.702857 262.433857 L 486.897857 257.476857 L 487.090858 252.519858 L 487.272857 247.562858 L 487.446858 242.604858 L 487.618857 237.646858 L 487.791857 232.688858 L 487.964857 227.731858 L 488.136858 222.773858 L 488.309858 217.815858 L 488.482858 212.857858 L 488.654857 207.899857 L 488.827857 202.941857 L 489.000857 197.984858 L 489.173857 193.026858 L 489.345858 188.068858" fill="none" id="19" stroke="#bee481" stroke-width="0.5" /><path d="M 490.568858 185.974858 L 490.610858 190.954858 L 490.651858 195.934858 L 490.693858 200.913858 L 490.735858 205.893858 L 490.777857 210.873858 L 490.819858 215.853858 L 490.860858 220.832858 L 490.902857 225.812858 L 490.944858 230.792857 L 490.986857 235.772858 L 491.027857 240.751857 L 491.069858 245.731858 L 491.111857 250.711858 L 491.148858 255.691857 L 491.162858 260.671857 L 491.149857 265.650858 L 491.126858 270.630857 L 491.102858 275.610858 L 491.079858 280.590858 L 491.055858 285.570857 L 491.031858 290.550858 L 491.007858 295.530858 L 490.984858 300.509858 L 490.960858 305.489858 L 490.936858 310.469857 L 490.913858 315.449858 L 490.889858 320.429858 L 490.865858 325.409857 L 490.841858 330.389858 L 490.818858 335.369858 L 490.794858 340.348858 L 490.770858 345.328858 L 490.747858 350.308857 L 490.723858 355.288858 L 490.699858 360.268858 L 490.669858 365.248857 L 490.617858 370.227858 L 490.547858 375.207857 L 490.472858 380.186858 L 490.396858 385.165858 L 490.321858 390.145858 L 490.246858 395.124858 L 490.171857 400.104858 L 490.096857 405.083858 L 490.021858 410.062858 L 489.946858 415.042858 L 489.871858 420.021858 L 489.796857 425.000857 L 489.721857 429.980858 L 489.646858 434.959857 L 489.570857 439.938857 L 489.495857 444.918858 L 489.420858 449.897857 L 489.345858 454.876858" fill="none" id="20" stroke="#8f6aaf" stroke-width="0.5" /><path d="M 135.240858 230.005858 L 136.094858 234.883858 L 136.861858 239.776858 L 137.474858 244.690858 L 138.015858 249.613858 L 138.561858 254.535858 L 139.102857 259.458858 L 139.548857 264.390858 L 139.934858 269.328858 L 140.314858 274.265858 L 140.694858 279.203858 L 141.075858 284.141858 L 141.455858 289.079858 L 141.835858 294.016858 L 142.215857 298.954858 L 142.596857 303.892857 L 142.976858 308.830858 L 143.356858 313.767857 L 143.736858 318.705858 L 144.117858 323.643858 L 144.497858 328.581858 L 144.877858 333.518858 L 145.257858 338.456858 L 145.637858 343.394858 L 145.963858 348.336858 L 146.218858 353.281858 L 146.451858 358.228858 L 146.684858 363.175858 L 146.917857 368.122858 L 147.150858 373.069858 L 147.382858 378.016858 L 147.615858 382.963858 L 147.848858 387.910858 L 148.081858 392.856857 L 148.314858 397.803857 L 148.547858 402.750857 L 148.779858 407.697857 L 149.012858 412.644858 L 149.245857 417.591858 L 149.478858 422.538858 L 149.711858 427.485858 L 149.943858 432.432858 L 150.176858 437.379858 L 150.409858 442.325857 L 150.642858 447.272857 L 150.875858 452.219857 L 151.107858 457.166857 L 151.340857 462.113857 L 151.573858 467.060857 L 151.806858 472.007858 L 152.039858 476.954858 L 152.271858 481.901858 L 152.504858 486.847858 L 152.737858 491.794858 L 152.970858 496.741858 L 153.203857 501.688857 L 153.434858 506.635857 L 153.653858 511.583858 L 153.844858 516.531858 L 154.027858 521.480857 L 154.210858 526.429858 L 154.393858 531.378857 L 154.576858 536.327858 L 154.759858 541.276858 L 154.942858 546.225857 L 155.125858 551.174858 L 155.308858 556.123857 L 155.491858 561.072858 L 155.674858 566.021858 L 155.857858 570.970857" fill="none" id="21" stroke="#8bb658" stroke-width="0.5" /><path d="M 134.209857 263.603858 L 138.873858 261.818858 L 143.492858 259.916857 L 148.008858 257.784857 L 152.439858 255.479858 L 156.890858 253.212858 L 161.341858 250.946858 L 165.791858 248.679857 L 170.242858 246.412858 L 174.693858 244.146858 L 179.141858 241.874858 L 183.561858 239.548857 L 187.934858 237.135858 L 192.294858 234.699858 L 196.653858 232.261858 L 201.012858 229.823858 L 205.371858 227.384858 L 209.731858 224.946858 L 214.090857 222.508858 L 218.449858 220.070858 L 222.808858 217.632858 L 227.167857 215.193858 L 231.526858 212.755858 L 235.885858 210.317858 L 240.244858 207.879858 L 244.603858 205.441857 L 248.963858 203.002858 L 253.322857 200.564858 L 257.681858 198.126857 L 262.040858 195.688858 L 266.399857 193.250858 L 270.758858 190.811858 L 275.117858 188.373858 L 279.480858 185.942858 L 283.857858 183.535858 L 288.249858 181.157858 L 292.647857 178.789858 L 297.044858 176.421858 L 301.442858 174.053858 L 305.840858 171.685857 L 310.237858 169.317858 L 314.635857 166.949858 L 319.032858 164.581858 L 323.430858 162.213858 L 327.828858 159.845858 L 332.225858 157.477857 L 336.623857 155.109858 L 341.021858 152.741858 L 345.418858 150.373858 L 349.816858 148.005858 L 354.214857 145.637858 L 358.611857 143.269858 L 363.009858 140.901858 L 367.407858 138.533858 L 371.804858 136.165858 L 376.202857 133.797858 L 380.599857 131.429857 L 384.997858 129.061858 L 389.395858 126.693857 L 393.792858 124.325857 L 398.190857 121.957858 L 402.589857 119.592857 L 406.995857 117.239857 L 411.411857 114.906858 L 415.831858 112.579858 L 420.250857 110.252857 L 424.670858 107.926857 L 429.090858 105.600857 L 433.510857 103.273857 L 437.930858 100.947857 L 442.349857 98.621358 L 446.769858 96.294957 L 451.189858 93.968657 L 455.609858 91.642257 L 460.029857 89.315857 L 464.448858 86.989458 L 468.868857 84.663157 L 473.288858 82.336757 L 477.708858 80.010357 L 482.128858 77.684057 L 486.547858 75.357658 L 490.967858 73.031257 L 495.387857 70.704858 L 499.807858 68.378557 L 504.227858 66.052157 L 508.646858 63.725758 L 513.066857 61.399458 L 517.486858 59.073058 L 521.906858 56.746658 L 526.326857 54.420258" fill="none" id="22" stroke="#bbabff" stroke-width="0.5" /><path d="M 142.712858 543.685857 L 147.013858 541.144858 L 151.250858 538.498857 L 155.349858 535.645858 L 159.236858 532.506858 L 163.165858 529.422857 L 167.063858 526.298858 L 170.911857 523.112858 L 174.750858 519.916857 L 178.589858 516.719857 L 182.427858 513.522857 L 186.266858 510.325857 L 190.104858 507.129858 L 193.943858 503.932858 L 197.781858 500.735858 L 201.620857 497.538858 L 205.458858 494.341858 L 209.297858 491.144858 L 213.144858 487.958858 L 217.034858 484.825857 L 220.960858 481.735858 L 224.893858 478.656858 L 228.827858 475.577857 L 232.761858 472.498857 L 236.695858 469.419858 L 240.628858 466.340858 L 244.562858 463.261858 L 248.496858 460.183857 L 252.430858 457.104858 L 256.363857 454.025858 L 260.297858 450.946858 L 264.231857 447.867858 L 268.164857 444.788858 L 272.098858 441.709857 L 276.032858 438.630857 L 279.966858 435.551857 L 283.899857 432.472858 L 287.833858 429.393858 L 291.767857 426.314858 L 295.701858 423.235858 L 299.634858 420.156858 L 303.568858 417.078858 L 307.502858 413.999858 L 311.443858 410.930858 L 315.403858 407.884858 L 319.375857 404.855858 L 323.350858 401.830858 L 327.334857 398.816858 L 331.348858 395.842858 L 335.393858 392.911857 L 339.449858 389.995857 L 343.505857 387.079858 L 347.561858 384.164857 L 351.618857 381.248857 L 355.674858 378.333858 L 359.730858 375.417858 L 363.787858 372.502858 L 367.843858 369.586858 L 371.899857 366.671857 L 375.956858 363.755857 L 380.012857 360.840858 L 384.068858 357.924858 L 388.124858 355.009858 L 392.181858 352.093858 L 396.237858 349.177858 L 400.293858 346.262857 L 404.350858 343.346857 L 408.406858 340.431858 L 412.462857 337.515858 L 416.519858 334.600858 L 420.579858 331.690857 L 424.663858 328.813857 L 428.773858 325.974857 L 432.891858 323.146858 L 437.009858 320.318858 L 441.127858 317.491858 L 445.246858 314.664857 L 449.364858 311.836858 L 453.482858 309.009858 L 457.600858 306.182858 L 461.719857 303.354858 L 465.837857 300.527857 L 469.955858 297.699858 L 474.073858 294.872858 L 478.191858 292.045858 L 482.310857 289.217858 L 486.428857 286.390858 L 490.546857 283.562858 L 494.664857 280.735858 L 498.783858 277.908858" fill="none" id="23" stroke="#658424" stroke-width="0.5" /><path d="M 352.798857 19.599957 L 352.196858 24.512358 L 351.805858 29.445258 L 351.659857 34.393458 L 351.582857 39.343358 L 351.550858 44.293758 L 351.518858 49.244158 L 351.486857 54.194558 L 351.454858 59.144958 L 351.422858 64.095457 L 351.390858 69.045857 L 351.357858 73.996257 L 351.325857 78.946658 L 351.293858 83.897058 L 351.261858 88.847457 L 351.229858 93.797957 L 351.197857 98.748357 L 351.165858 103.698858 L 351.133858 108.648857 L 351.100858 113.599857 L 351.068858 118.549858 L 351.036857 123.500857 L 351.004858 128.450858 L 351.016858 133.400858 L 351.130857 138.349858 L 351.318858 143.296858 L 351.525858 148.242858 L 351.733857 153.188858 L 351.941858 158.135858 L 352.150858 163.081858 L 352.358857 168.027858 L 352.566858 172.973858 L 352.774857 177.919858 L 352.983857 182.865858 L 353.191858 187.811858 L 353.399857 192.758858 L 353.608857 197.704858 L 353.816858 202.650858 L 354.024857 207.596857 L 354.232858 212.542857 L 354.441858 217.488858 L 354.649857 222.434858 L 354.857858 227.380858 L 355.065857 232.327858 L 355.274857 237.273858 L 355.482858 242.219858 L 355.690857 247.165858 L 355.898858 252.111858 L 356.107858 257.057858 L 356.315857 262.003858 L 356.523858 266.950857 L 356.731857 271.896858 L 356.934858 276.842858 L 357.164857 281.787858 L 357.499858 286.726857 L 357.888858 291.662858" fill="none" id="24" stroke="#f1b9ff" stroke-width="0.5" /><path d="M 466.505857 312.826858 L 466.128858 307.892857 L 465.807858 302.954858 L 465.542858 298.012857 L 465.389858 293.066858 L 465.260857 288.119858 L 465.132858 283.172858 L 465.005857 278.226857 L 464.877858 273.279857 L 464.749858 268.332857 L 464.621858 263.385857 L 464.494858 258.438857 L 464.366858 253.491858 L 464.241858 248.544858 L 464.162858 243.597858 L 464.133858 238.648858 L 464.118857 233.700858 L 464.103858 228.751857 L 464.088858 223.803858 L 464.072857 218.854858 L 464.057858 213.906858 L 464.042858 208.957858 L 464.027857 204.009858 L 464.011858 199.060857 L 463.996858 194.112858 L 463.981857 189.164858 L 463.966858 184.215857 L 463.950857 179.267858 L 463.935857 174.318858 L 463.920858 169.370857 L 463.904857 164.421858 L 463.889858 159.473858 L 463.890858 154.524857 L 463.965858 149.576858 L 464.137857 144.631858 L 464.332857 139.686858 L 464.527857 134.742858 L 464.722858 129.797858 L 464.917858 124.852857 L 465.112858 119.908857 L 465.308857 114.963857 L 465.503858 110.018857 L 465.698858 105.074857 L 465.893858 100.129857 L 466.088858 95.185257 L 466.283858 90.240657 L 466.478858 85.295958 L 466.674858 80.351357 L 466.907858 75.408357 L 467.215858 70.469457 L 467.568858 65.533558" fill="none" id="25" stroke="#989c37" stroke-width="0.5" /><path d="M 151.443858 537.728858 L 154.465857 533.758857 L 157.475858 529.779858 L 160.462858 525.783857 L 163.413858 521.761858 L 166.346857 517.724857 L 169.279858 513.688858 L 172.201858 509.644858 L 175.121858 505.599857 L 178.041858 501.553857 L 180.961858 497.508858 L 183.881858 493.462857 L 186.801858 489.417858 L 189.721857 485.371858 L 192.641858 481.326858 L 195.561858 477.280858 L 198.481858 473.235858 L 201.401858 469.189858 L 204.321858 465.144858 L 207.241858 461.099857 L 210.161857 457.053857 L 213.080858 453.008858 L 216.000858 448.962857 L 218.920858 444.917858 L 221.840857 440.871858 L 224.760858 436.826858 L 227.680858 432.780858 L 230.600858 428.735858 L 233.520858 424.689858 L 236.440858 420.644858 L 239.360858 416.598858 L 242.280857 412.553857 L 245.200858 408.507858 L 248.120857 404.462857 L 251.040858 400.416857 L 253.960858 396.371858 L 256.880857 392.325857 L 259.800858 388.280858 L 262.720858 384.234858 L 265.640858 380.189858 L 268.560857 376.143858 L 271.480858 372.098858 L 274.400858 368.052858 L 277.320857 364.007858 L 280.246858 359.966858 L 283.191858 355.939858 L 286.147857 351.920858 L 289.104858 347.901858 L 292.060857 343.882858 L 295.016858 339.863857 L 297.973858 335.844857 L 300.929858 331.825857 L 303.886858 327.806858 L 306.842858 323.787858 L 309.798857 319.768858 L 312.755857 315.749858 L 315.711858 311.730858 L 318.667858 307.711858 L 321.624858 303.693858 L 324.580858 299.674858 L 327.537858 295.655858 L 330.493857 291.636858 L 333.449858 287.617858 L 336.406858 283.598858 L 339.362858 279.579858 L 342.318858 275.560857 L 345.275858 271.541857 L 348.231857 267.522857 L 351.188857 263.503858 L 354.144858 259.484858 L 357.100858 255.465857 L 360.057858 251.446858 L 363.013858 247.427858 L 365.969857 243.408858 L 368.883858 239.359858 L 371.730858 235.262858 L 374.565857 231.156858 L 377.399857 227.050858 L 380.234858 222.944858 L 383.068858 218.838858 L 385.903858 214.733857 L 388.737858 210.627858 L 391.571858 206.521858 L 394.406858 202.415858 L 397.240858 198.309858 L 400.075857 194.203857 L 402.909857 190.097858 L 405.744858 185.992858 L 408.578858 181.886858 L 411.413858 177.780857 L 414.247858 173.674858 L 417.081858 169.568858 L 419.916857 165.462858 L 422.750857 161.356858 L 425.585858 157.251857 L 428.419858 153.145858 L 431.254858 149.039858 L 434.088858 144.933858 L 436.923857 140.827858 L 439.757858 136.721857 L 442.591858 132.615858 L 445.426857 128.510858 L 448.260857 124.404857 L 451.028858 120.253857 L 453.729858 116.058858 L 456.400858 111.845857 L 459.069858 107.629857 L 461.725858 103.406858 L 464.322857 99.146357 L 466.900858 94.874657 L 469.475858 90.601658 L 472.051857 86.328657 L 474.626858 82.055657 L 477.202857 77.782657 L 479.777857 73.509657 L 482.353858 69.236657" fill="none" id="26" stroke="#bb568c" stroke-width="0.5" /><path d="M 204.334857 331.376858 L 208.704858 333.744858 L 213.129858 336.006858 L 217.662858 338.040858 L 222.373858 339.624858 L 227.053858 341.300858 L 231.732858 342.975858 L 236.410858 344.655858 L 241.072857 346.378858 L 245.695858 348.203858 L 250.305858 350.063857 L 254.914858 351.924858 L 259.523858 353.785858 L 264.132858 355.646858 L 268.740858 357.507858 L 273.349857 359.368857 L 277.958858 361.230858 L 282.567858 363.091858 L 287.169858 364.968858 L 291.746858 366.906858 L 296.299858 368.899857 L 300.848858 370.903858 L 305.397857 372.907858 L 309.945857 374.911857 L 314.494858 376.914857 L 319.043858 378.918858 L 323.591858 380.922858 L 328.140858 382.926857 L 332.688857 384.930858 L 337.237858 386.934858 L 341.786857 388.938857 L 346.334857 390.942858 L 350.883858 392.945857 L 355.431858 394.949858 L 359.980858 396.953858 L 364.533858 398.947857 L 369.102858 400.903858 L 373.689858 402.818858 L 378.283858 404.715858 L 382.887857 406.589857 L 387.506858 408.425858 L 392.131858 410.245857 L 396.757858 412.063857 L 401.383858 413.882858 L 406.009858 415.700857 L 410.635857 417.518858 L 415.260857 419.337857 L 419.886858 421.155858 L 424.512857 422.974857 L 429.138858 424.792858 L 433.764858 426.611857 L 438.390858 428.429858 L 443.016858 430.247858 L 447.642857 432.066858 L 452.267857 433.884858 L 456.893858 435.704858 L 461.513858 437.537858 L 466.110858 439.426857 L 470.692858 441.353858 L 475.270858 443.289857 L 479.830858 445.266858 L 484.341858 447.353858 L 488.845858 449.456858 L 493.348858 451.560857 L 497.852858 453.663858 L 502.355858 455.766858 L 506.859858 457.869858 L 511.362858 459.973858 L 515.866858 462.076858 L 520.369857 464.179858 L 524.873857 466.283858" fill="none" id="27" stroke="#cfe395" stroke-width="0.5" /><path d="M 498.009858 440.642857 L 493.614858 438.298857 L 489.174858 436.040858 L 484.658858 433.935857 L 480.138858 431.841858 L 475.616858 429.753858 L 471.064858 427.730858 L 466.419858 425.931858 L 461.729858 424.250857 L 457.036857 422.580858 L 452.343858 420.909857 L 447.650858 419.239858 L 442.957857 417.569858 L 438.263858 415.898858 L 433.570857 414.228858 L 428.877858 412.558857 L 424.184858 410.888858 L 419.491858 409.217858 L 414.797858 407.547858 L 410.104858 405.877858 L 405.411857 404.206858 L 400.718858 402.536857 L 396.025858 400.866858 L 391.332857 399.195857 L 386.638858 397.525858 L 381.945857 395.855858 L 377.252858 394.184858 L 372.559858 392.514858 L 367.866858 390.844857 L 363.172858 389.173857 L 358.479858 387.503858 L 353.786857 385.833858 L 349.093858 384.162858 L 344.400858 382.492858 L 339.707857 380.822857 L 335.015858 379.147857 L 330.332857 377.448858 L 325.662858 375.714857 L 320.998857 373.963858 L 316.335858 372.211858 L 311.672858 370.458858 L 307.009858 368.705858 L 302.346857 366.953858 L 297.683857 365.200857 L 293.020858 363.447857 L 288.357858 361.694858 L 283.694858 359.942858 L 279.031858 358.189858 L 274.368857 356.436858 L 269.705858 354.684858 L 265.042858 352.931858 L 260.379858 351.178857 L 255.716858 349.426857 L 251.053858 347.673857 L 246.388858 345.923857 L 241.714858 344.202857 L 237.012858 342.557858 L 232.295858 340.956858 L 227.575858 339.360858 L 222.856858 337.765858 L 218.137858 336.169858 L 213.418858 334.574858 L 208.699858 332.979858 L 203.980858 331.383858 L 199.261858 329.788858 L 194.541858 328.192858 L 189.822857 326.597858 L 185.103858 325.001858" fill="none" id="28" stroke="#c45372" stroke-width="0.5" /><path d="M 210.939858 88.146857 L 211.472858 93.073257 L 212.005858 97.999657 L 212.537858 102.925857 L 213.070858 107.852857 L 213.603858 112.778858 L 214.136858 117.704858 L 214.668858 122.631857 L 215.080858 127.569857 L 215.448858 132.510858 L 215.739857 137.457858 L 215.924858 142.408858 L 216.083858 147.361858 L 216.241858 152.314858 L 216.398858 157.266858 L 216.555858 162.219858 L 216.713858 167.172858 L 216.870857 172.124858 L 217.028858 177.077858 L 217.185857 182.029858 L 217.342858 186.982858 L 217.500858 191.935857 L 217.657858 196.887858 L 217.815858 201.840857 L 217.972858 206.793858 L 218.129858 211.745857 L 218.287858 216.698858 L 218.444858 221.650858 L 218.602857 226.603858 L 218.759858 231.556858 L 218.916858 236.508858 L 219.074858 241.461858 L 219.231858 246.414858 L 219.389858 251.366858 L 219.544858 256.319858 L 219.684858 261.272857 L 219.806858 266.226857 L 219.925858 271.179858 L 220.045858 276.133858 L 220.164858 281.087857 L 220.284858 286.040858 L 220.403858 290.994858 L 220.522858 295.948858 L 220.642858 300.901858 L 220.761858 305.855858 L 220.881858 310.809858 L 221.000858 315.763858 L 221.119858 320.716858 L 221.239857 325.670858 L 221.358857 330.624858 L 221.477857 335.577857 L 221.597858 340.531858 L 221.716858 345.485858 L 221.836858 350.438857 L 221.955858 355.392857 L 222.074858 360.346857 L 222.194858 365.299858 L 222.313858 370.253858 L 222.432858 375.207857 L 222.552858 380.160858 L 222.671858 385.114858 L 222.791858 390.068858" fill="none" id="29" stroke="#008c6f" stroke-width="0.5" /><path d="M 199.275858 118.908857 L 203.870857 120.853857 L 208.530857 122.635858 L 213.288858 124.138858 L 218.092858 125.485857 L 222.893858 126.845857 L 227.693858 128.205858 L 232.494858 129.565858 L 237.294858 130.925858 L 242.095858 132.283858 L 246.903858 133.618858 L 251.740858 134.842858 L 256.596857 135.989857 L 261.454858 137.125858 L 266.313857 138.262858 L 271.171857 139.398858 L 276.030858 140.534858 L 280.888858 141.670858 L 285.747858 142.807858 L 290.605858 143.943858 L 295.463858 145.079858 L 300.322857 146.216858 L 305.180858 147.352857 L 310.039857 148.488858 L 314.897857 149.624858 L 319.756858 150.761858 L 324.612858 151.904858 L 329.462857 153.077858 L 334.302858 154.288858 L 339.138858 155.517858 L 343.974857 156.747858 L 348.809858 157.977857 L 353.645858 159.208858 L 358.480858 160.438858 L 363.316858 161.669858 L 368.151858 162.899857 L 372.987858 164.130858 L 377.822857 165.360858 L 382.658858 166.590857 L 387.493857 167.821858 L 392.329858 169.051858 L 397.164857 170.282858 L 402.000857 171.512858 L 406.835858 172.743858 L 411.670858 173.973858 L 416.506858 175.203857 L 421.341858 176.434858 L 426.177858 177.664858 L 431.012857 178.895858 L 435.846857 180.133858 L 440.674858 181.393858 L 445.495857 182.676858 L 450.316858 183.965857 L 455.134858 185.260858 L 459.943858 186.589858 L 464.739858 187.966858 L 469.532858 189.353858 L 474.325857 190.741858 L 479.117858 192.128858 L 483.910858 193.516858 L 488.703858 194.903858 L 493.496858 196.291858 L 498.288858 197.679857 L 503.081858 199.066857 L 507.874858 200.454858 L 512.667857 201.841858 L 517.459857 203.229858 L 522.252858 204.616858 L 527.045858 206.004858 L 531.838858 207.391858 L 536.630858 208.779858" fill="none" id="30" stroke="#ff94af" stroke-width="0.5" /><path d="M 33.053958 279.657858 L 37.402158 282.073858 L 41.750458 284.490858 L 46.098758 286.906858 L 50.447158 289.323858 L 54.795558 291.739858 L 59.143958 294.156858 L 63.492358 296.572857 L 67.843657 298.983857 L 72.227257 301.335858 L 76.659557 303.594857 L 81.097457 305.841858 L 85.535457 308.089857 L 89.973357 310.337857 L 94.411257 312.585858 L 98.849157 314.833858 L 103.286857 317.080858 L 107.724857 319.328858 L 112.162858 321.576858 L 116.600857 323.824858 L 121.038857 326.071858 L 125.476857 328.319858 L 129.914858 330.567858 L 134.352857 332.815857 L 138.790858 335.062858 L 143.228858 337.310857 L 147.665858 339.558857 L 152.103858 341.806858 L 156.543858 344.050858 L 160.995857 346.271858 L 165.464858 348.456858 L 169.939858 350.627858 L 174.415858 352.798857 L 178.891858 354.970858 L 183.367858 357.141858 L 187.843858 359.312858 L 192.319858 361.483857 L 196.795858 363.655858 L 201.271858 365.826858 L 205.746858 367.997858 L 210.222858 370.168858 L 214.698858 372.339857 L 219.174858 374.511858 L 223.650858 376.682858 L 228.126857 378.853858 L 232.602857 381.024857 L 237.078857 383.196858 L 241.553858 385.367858 L 246.029858 387.538858 L 250.505858 389.709857 L 254.981858 391.880857 L 259.457857 394.052858 L 263.933857 396.223858 L 268.409857 398.394858 L 272.885857 400.565857 L 277.360858 402.737858 L 281.832857 404.917858 L 286.286857 407.132858 L 290.729858 409.371858 L 295.169858 411.614858 L 299.609858 413.857858 L 304.049858 416.100858 L 308.489858 418.344857 L 312.930858 420.587857 L 317.370857 422.830858 L 321.810857 425.073858 L 326.250857 427.317858 L 330.690857 429.560857 L 335.131858 431.803857 L 339.571858 434.046857 L 344.011858 436.290858 L 348.451858 438.533858 L 352.891858 440.776858 L 357.332857 443.020858 L 361.772857 445.263858 L 366.212857 447.506858 L 370.652857 449.749858 L 375.093858 451.993857 L 379.533858 454.236857" fill="none" id="31" stroke="#488656" stroke-width="0.5" /></svg>