<?xml version="1.0" encoding="utf-8" ?>
<svg baseProfile="full" height="737.5" version="1.1" viewBox="0,0,384.5,737.5" width="384.5" xmlns="http://www.w3.org/2000/svg" xmlns:ev="http://www.w3.org/2001/xml-events" xmlns:xlink="http://www.w3.org/1999/xlink"><defs><style type="text/css"><![CDATA[
	.background { fill: white; }
	.line { stroke: firebrick; stroke-width: .1mm; }
	.blacksquare { fill: indigo; }
	.whitesquare { fill: white; }
]]></style></defs><rect class="background" height="100%" width="100%" x="0" y="0" /><path d="M 276.325154 23.454527 L 276.782154 28.404027 L 277.249154 33.352627 L 277.757154 38.297027 L 278.352154 43.231427 L 279.011154 48.158027 L 279.622154 53.090827 L 280.184154 58.029627 L 280.733154 62.969727 L 281.281154 67.910027 L 281.824154 72.850827 L 282.352154 77.793227 L 282.855154 82.738327 L 283.332154 87.685827 L 283.733154 92.640227 L 284.103154 97.596927 L 284.447154 102.555427 L 284.769154 107.515427 L 285.075154 112.476427 L 285.378154 117.438427 L 285.673154 122.400427 L 285.930154 127.363427 L 286.161154 132.329427 L 286.377154 137.294427 L 286.574154 142.261427 L 286.739154 147.229427 L 286.892154 152.197427 L 287.043154 157.165427 L 287.195154 162.134427 L 287.329154 167.102427 L 287.436154 172.072427 L 287.521154 177.042427 L 287.601154 182.012427 L 287.680154 186.982427 L 287.758154 191.952427 L 287.815154 196.922427 L 287.842154 201.892427 L 287.846154 206.863427 L 287.842154 211.833427 L 287.839154 216.804427 L 287.835154 221.774427 L 287.832154 226.745427 L 287.828154 231.716427 L 287.815154 236.686427 L 287.767154 241.656427 L 287.656154 246.626427 L 287.523154 251.595427 L 287.387154 256.563427 L 287.235154 261.531427 L 287.054154 266.499427 L 286.842154 271.465427 L 286.618154 276.430427 L 286.395154 281.396427 L 286.162154 286.361427 L 285.918154 291.326427 L 285.659154 296.289427 L 285.379154 301.252427 L 285.077154 306.213427 L 284.763154 311.174427 L 284.450154 316.135427 L 284.123154 321.095427 L 283.763154 326.052427 L 283.363154 331.006427 L 282.936154 335.959427 L 282.509154 340.911427 L 282.078154 345.863427 L 281.616154 350.812427 L 281.114154 355.757427 L 280.586154 360.699427 L 280.058154 365.642427 L 279.530154 370.584427 L 278.983154 375.525427 L 278.409154 380.462427 L 277.813154 385.396427 L 277.196154 390.329427 L 276.558154 395.258427 L 275.905154 400.186427 L 275.252154 405.113427 L 274.594154 410.040427 L 273.913154 414.963427 L 273.199154 419.882427 L 272.454154 424.797427 L 271.705154 429.711427 L 270.954154 434.624427 L 270.186154 439.535427 L 269.378154 444.439427 L 268.533154 449.338427 L 267.661154 454.231427 L 266.767154 459.121427 L 265.851154 464.006427 L 264.935154 468.891427 L 264.017154 473.777427 L 263.088154 478.660427 L 262.133154 483.537427 L 261.142154 488.408427 L 260.146154 493.278427 L 259.150154 498.148427 L 258.147154 503.016427 L 257.111154 507.877427 L 256.042154 512.732427 L 254.949154 517.581427 L 253.842154 522.426427 L 252.711154 527.266427 L 251.556154 532.101427 L 250.353154 536.924427 L 249.120154 541.739427 L 247.871154 546.550427 L 246.593154 551.353427 L 245.311154 556.156427 L 244.028154 560.958427 L 242.739154 565.758427 L 241.419154 570.550427 L 240.067154 575.334427 L 238.705154 580.114427 L 237.342154 584.894427 L 235.974154 589.673427 L 234.572154 594.441427 L 233.150154 599.204427 L 231.723154 603.965427 L 230.294154 608.726427 L 228.861154 613.486427" fill="none" id="0" stroke="#f375a0" stroke-width="0.5" /><path d="M 138.908154 32.832427 L 143.487154 31.522927 L 148.152154 30.572427 L 152.890154 30.103127 L 157.652154 30.012527 L 162.415154 29.989227 L 167.177154 29.990527 L 171.939154 30.062627 L 176.699154 30.249627 L 181.455154 30.499727 L 186.206154 30.834327 L 190.951154 31.247927 L 195.690154 31.723827 L 200.425154 32.236027 L 205.157154 32.776027 L 209.883154 33.368427 L 214.598154 34.038727 L 219.293154 34.836327 L 223.960154 35.787127 L 228.600154 36.858227 L 233.218154 38.023027 L 237.818154 39.258827 L 242.396154 40.571827 L 246.953154 41.957127 L 251.464154 43.485227 L 255.903154 45.210027 L 260.257154 47.137127 L 264.510154 49.280627 L 268.669154 51.601027 L 272.739154 54.075227 L 276.735154 56.667127" fill="none" id="1" stroke="#58f2c3" stroke-width="0.5" /><path d="M 7.222994 147.352427 L 5.863644 152.117427 L 4.799344 156.955427 L 4.147784 161.864427 L 3.886284 166.810427 L 3.787024 171.763427 L 3.703054 176.718427 L 3.597674 181.672427 L 3.481474 186.625427 L 3.364634 191.579427 L 3.247794 196.532427 L 3.130964 201.486427 L 3.014124 206.440427 L 2.897284 211.393427 L 2.780454 216.347427 L 2.691754 221.301427 L 2.620564 226.256427 L 2.553094 231.210427 L 2.494284 236.165427 L 2.466924 241.120427 L 2.458704 246.075427 L 2.453834 251.030427 L 2.448954 255.985427 L 2.444074 260.940427 L 2.448524 265.895427 L 2.496134 270.850427 L 2.623054 275.803427 L 2.777744 280.756427 L 2.963374 285.707427 L 3.165544 290.658427 L 3.407534 295.607427 L 3.677514 300.555427 L 3.976104 305.501427 L 4.302474 310.445427 L 4.655124 315.388427 L 5.045244 320.327427 L 5.473734 325.264427 L 5.942144 330.196427 L 6.474534 335.123427 L 7.050474 340.044427 L 7.634904 344.964427 L 8.219344 349.885427 L 8.803784 354.805427 L 9.446714 359.718427 L 10.139594 364.625427 L 10.847754 369.529427 L 11.557954 374.433427 L 12.268154 379.337427 L 12.988754 384.239427 L 13.734254 389.137427 L 14.504954 394.032427 L 15.292254 398.924427 L 16.100154 403.813427 L 16.928254 408.698427 L 17.761154 413.583427 L 18.594154 418.467427 L 19.427054 423.352427 L 20.270854 428.234427 L 21.144954 433.112427 L 22.046554 437.984427 L 22.957754 442.855427 L 23.870054 447.725427 L 24.782354 452.595427 L 25.702254 457.464427 L 26.644654 462.329427 L 27.615254 467.188427 L 28.602754 472.043427 L 29.620654 476.893427 L 30.693254 481.730427 L 31.788454 486.563427 L 32.905754 491.390427 L 34.066854 496.207427 L 35.246654 501.019427 L 36.445754 505.827427 L 37.685154 510.625427 L 38.954154 515.414427 L 40.238154 520.200427 L 41.547654 524.979427 L 42.890454 529.749427 L 44.248554 534.514427 L 45.616954 539.276427 L 47.009554 544.031427 L 48.415554 548.783427 L 49.821454 553.534427 L 51.227454 558.286427 L 52.633454 563.037427 L 54.087054 567.774427 L 55.693954 572.460427 L 57.298354 577.148427 L 58.854154 581.852427 L 60.420954 586.553427 L 62.013754 591.245427 L 63.632154 595.928427 L 65.257454 600.609427 L 66.907954 605.281427 L 68.600954 609.938427 L 70.299654 614.593427 L 72.019654 619.239427 L 73.780454 623.871427 L 75.552254 628.498427 L 77.325454 633.125427 L 79.098654 637.752427 L 80.871854 642.379427 L 82.645054 647.006427 L 84.418254 651.633427 L 86.188954 656.261427 L 87.952754 660.891427 L 89.709254 665.524427 L 91.450454 670.163427 L 93.175754 674.808427" fill="none" id="2" stroke="#c94e76" stroke-width="0.5" /><path d="M 95.821454 653.194427 L 94.406954 650.670427 L 93.023854 648.129427 L 91.686054 645.564427 L 90.390554 642.977427 L 89.117054 640.379427 L 87.845054 637.780427 L 86.588454 635.174427 L 85.345054 632.561427 L 84.113954 629.943427 L 82.895954 627.318427 L 81.704054 624.682427 L 80.527354 622.039427 L 79.358954 619.392427 L 78.193654 616.743427 L 77.028354 614.095427 L 75.875254 611.442427 L 74.753554 608.775427 L 73.661554 606.095427 L 72.589954 603.408427 L 71.520954 600.719427 L 70.464554 598.025427 L 69.437554 595.321427 L 68.446454 592.602427 L 67.490254 589.872427 L 66.559854 587.132427 L 65.674654 584.377427 L 64.807354 581.617427 L 63.958554 578.851427 L 63.127154 576.080427 L 62.309654 573.304427" fill="none" id="3" stroke="#c94e76" stroke-width="0.5" /><path d="M 4.734804 153.848427 L 6.028334 149.066427 L 7.587044 144.364427 L 9.460574 139.778427 L 11.689754 135.355427 L 14.120554 131.039427 L 16.776854 126.858427 L 19.545854 122.750427 L 22.326254 118.650427 L 25.107054 114.551427 L 27.905354 110.463427 L 30.814454 106.454427 L 33.821754 102.517427 L 36.992254 98.712327 L 40.248554 94.979327 L 43.561654 91.296527 L 46.918654 87.653827 L 50.333854 84.065527 L 53.845254 80.571827 L 57.479354 77.206327 L 61.292754 74.047327 L 65.202054 71.004927 L 69.170954 68.040927 L 73.181454 65.133127 L 77.249854 62.307327 L 81.344654 59.519427 L 85.458854 56.760227 L 89.620954 54.074227 L 93.826054 51.455827 L 98.095254 48.944327 L 102.444154 46.574227 L 106.871154 44.351627 L 111.380154 42.302427 L 115.935154 40.357227 L 120.512154 38.462227 L 125.107154 36.609927 L 129.720154 34.806227 L 134.353154 33.050827 L 139.006154 31.352227 L 143.693154 29.750127 L 148.397154 28.196927 L 153.106154 26.657327 L 157.833154 25.176227 L 162.591154 23.798127 L 167.377154 22.520227 L 172.196154 21.380427 L 177.047154 20.375827 L 181.903154 19.397627 L 186.775154 18.500327 L 191.660154 17.679427 L 196.554154 16.909027 L 201.455154 16.193727 L 206.372154 15.589127 L 211.293154 15.025127 L 216.227154 14.587227 L 221.175154 14.346927 L 226.128154 14.265727 L 231.081154 14.283027 L 236.033154 14.417427 L 240.976154 14.740927 L 245.911154 15.173327 L 250.840154 15.659627 L 255.758154 16.255527 L 260.669154 16.903727 L 265.573154 17.605527 L 270.457154 18.430827 L 275.289154 19.522727 L 280.016154 21.002327 L 284.606154 22.865927 L 289.081154 24.989927" fill="none" id="4" stroke="#c94e76" stroke-width="0.5" /><path d="M 12.010354 152.194427 L 13.511454 147.469427 L 15.059054 142.759427 L 16.699754 138.080427 L 18.337154 133.401427 L 20.209754 128.811427 L 22.156554 124.251427 L 24.261254 119.764427 L 26.644054 115.417427 L 29.201954 111.170427 L 31.901354 107.013427 L 34.819454 103.006427 L 37.923554 99.142227 L 41.196554 95.418527 L 44.528854 91.747527 L 47.846954 88.063927 L 51.133954 84.352327 L 54.500054 80.713327 L 58.010654 77.214227 L 61.653454 73.851727 L 65.387154 70.590527 L 69.172054 67.388227 L 72.932454 64.157227 L 76.720654 60.959827 L 80.645954 57.934127 L 84.687954 55.063827 L 88.758354 52.233127 L 92.853154 49.438227 L 97.025654 46.761727 L 101.301154 44.253727 L 105.673154 41.917827 L 110.108154 39.702027 L 114.566154 37.531427 L 119.059154 35.436527 L 123.607154 33.463427 L 128.183154 31.554427 L 132.784154 29.708827 L 137.409154 27.922527 L 142.065154 26.218827 L 146.745154 24.582727 L 151.430154 22.961927 L 156.093154 21.275827 L 160.757154 19.596127 L 165.471154 18.061327 L 170.197154 16.562427 L 174.939154 15.115927" fill="none" id="5" stroke="#c94e76" stroke-width="0.5" /><path d="M 63.947454 74.572627 L 67.870754 71.615627 L 71.859254 68.747227 L 75.952454 66.030227 L 80.084154 63.372127 L 84.124654 60.577427 L 88.156054 57.769527 L 92.187354 54.961627 L 96.234354 52.176227 L 100.384154 49.546127 L 104.590154 47.008327 L 108.868154 44.592027 L 113.214154 42.302027 L 117.583154 40.055227 L 121.955154 37.812827 L 126.347154 35.612127 L 130.795154 33.526927 L 135.315154 31.601127 L 139.895154 29.822127 L 144.521154 28.169627 L 149.173154 26.590527 L 153.849154 25.081227 L 158.555154 23.672627 L 163.294154 22.376327 L 168.064154 21.201727 L 172.863154 20.148627 L 177.688154 19.221327 L 182.527154 18.374127 L 187.362154 17.506027 L 192.190154 16.596427 L 197.015154 15.672227 L 201.841154 14.748027 L 206.672154 13.859527 L 211.521154 13.066427 L 216.376154 12.318327 L 221.240154 11.625327 L 226.108154 10.962527 L 230.984154 10.360527 L 235.872154 9.863827 L 240.767154 9.453727 L 245.668154 9.111327 L 250.575154 8.867397 L 255.485154 8.696737 L 260.396154 8.554917 L 265.306154 8.379557 L 270.215154 8.194647" fill="none" id="6" stroke="#c94e76" stroke-width="0.5" /><path d="M 133.491154 37.627727 L 137.496154 35.350527 L 141.606154 33.268827 L 145.844154 31.462427 L 150.165154 29.863027 L 154.519154 28.355627 L 158.897154 26.920927 L 163.323154 25.638727 L 167.772154 24.440327 L 172.246154 23.338527 L 176.736154 22.306227 L 181.243154 21.347427 L 185.765154 20.467127 L 190.303154 19.667327 L 194.859154 18.985227 L 199.428154 18.385627 L 203.999154 17.805027 L 208.570154 17.224427 L 213.141154 16.649727 L 217.717154 16.107227 L 222.299154 15.622727 L 226.887154 15.201627 L 231.484154 14.890427 L 236.088154 14.705127 L 240.695154 14.638027 L 245.302154 14.632827 L 249.910154 14.667227 L 254.512154 14.886427 L 259.116154 15.060127 L 263.720154 15.236427 L 268.325154 15.399327" fill="none" id="7" stroke="#c94e76" stroke-width="0.5" /><path d="M 94.278154 644.336427 L 91.696754 640.124427 L 89.203754 635.860427 L 86.851854 631.516427 L 84.576754 627.131427 L 82.331054 622.732427 L 80.144554 618.302427 L 77.964254 613.869427 L 75.884454 609.389427 L 73.853854 604.886427 L 71.829454 600.380427 L 69.847454 595.855427 L 67.916754 591.308427 L 66.006254 586.753427 L 64.132354 582.183427 L 62.288854 577.600427 L 60.452254 573.014427 L 58.615754 568.428427 L 56.779254 563.843427 L 54.942654 559.257427 L 53.109554 554.670427 L 51.300154 550.074427 L 49.517754 545.467427 L 47.785254 540.841427 L 46.093454 536.200427 L 44.409854 531.556427 L 42.726454 526.912427 L 41.088554 522.251427 L 39.520954 517.567427 L 37.999454 512.867427 L 36.531154 508.151427 L 35.103754 503.422427 L 33.722654 498.679427 L 32.406754 493.918427 L 31.120554 489.148427 L 29.900254 484.362427 L 28.722554 479.564427 L 27.569254 474.761427 L 26.450354 469.950427 L 25.345654 465.135427 L 24.267554 460.315427 L 23.213554 455.489427 L 22.180154 450.658427 L 21.197954 445.817427 L 20.233254 440.972427 L 19.268654 436.128427 L 18.304054 431.283427 L 17.346454 426.437427 L 16.449054 421.580427 L 15.608054 416.712427 L 14.772354 411.843427 L 13.989754 406.966427 L 13.225154 402.086427 L 12.482854 397.202427" fill="none" id="8" stroke="#c94e76" stroke-width="0.5" /><path d="M 5.301734 150.682427 L 4.428964 155.598427 L 3.699594 160.536427 L 3.190144 165.502427 L 2.926104 170.485427 L 2.766714 175.475427 L 2.602654 180.465427 L 2.411394 185.453427 L 2.188634 190.441427 L 1.963724 195.428427 L 1.738814 200.415427 L 1.548334 205.404427 L 1.378254 210.394427 L 1.213592 215.383427 L 1.049531 220.373427 L 0.885470 225.363427 L 0.732285 230.353427 L 0.603563 235.343427 L 0.487731 240.334427 L 0.373650 245.325427 L 0.299219 250.317427 L 0.256662 255.310427 L 0.250000 260.302427 L 0.261154 265.294427 L 0.277086 270.287427 L 0.293442 275.279427 L 0.317409 280.271427 L 0.377546 285.263427 L 0.526281 290.253427 L 0.712007 295.242427 L 0.900368 300.231427 L 1.115547 305.219427 L 1.389984 310.204427 L 1.704754 315.186427 L 2.032174 320.168427 L 2.365134 325.149427 L 2.720754 330.129427 L 3.126644 335.104427 L 3.558814 340.078427 L 4.025704 345.049427 L 4.512374 350.017427 L 5.053414 354.980427 L 5.643624 359.937427 L 6.256504 364.892427 L 6.872864 369.846427 L 7.497214 374.799427 L 8.152824 379.748427 L 8.858304 384.691427 L 9.601964 389.627427 L 10.381254 394.559427 L 11.188254 399.485427 L 12.018754 404.408427 L 12.870754 409.327427 L 13.746754 414.242427 L 14.654054 419.151427 L 15.597154 424.054427 L 16.558854 428.953427 L 17.520754 433.852427 L 18.485154 438.750427 L 19.466554 443.645427 L 20.471154 448.535427 L 21.489554 453.423427 L 22.511854 458.309427 L 23.535454 463.195427 L 24.565154 468.080427 L 25.610854 472.962427 L 26.676254 477.839427 L 27.765454 482.712427 L 28.892754 487.575427 L 30.045754 492.432427 L 31.205254 497.288427 L 32.364854 502.144427 L 33.532754 506.998427 L 34.729554 511.845427 L 35.975354 516.679427 L 37.258254 521.504427 L 38.564054 526.323427 L 39.906454 531.131427 L 41.266554 535.935427 L 42.645954 540.733427 L 44.044954 545.525427 L 45.461454 550.312427 L 46.901854 555.092427 L 48.374554 559.862427 L 49.859854 564.629427 L 51.345154 569.395427 L 52.830554 574.161427 L 54.322254 578.926427 L 55.839154 583.682427 L 57.381154 588.430427 L 58.937654 593.174427 L 60.511454 597.912427 L 62.108954 602.641427 L 63.716754 607.368427 L 65.347854 612.086427 L 67.023554 616.789427 L 68.706454 621.489427 L 70.428154 626.175427 L 72.174754 630.852427 L 73.935654 635.524427 L 75.720954 640.186427 L 77.530854 644.839427 L 79.340754 649.491427 L 81.150654 654.144427 L 82.960654 658.797427 L 84.772754 663.449427 L 86.592654 668.098427 L 88.415454 672.745427 L 90.258354 677.385427 L 92.120454 682.017427 L 93.989854 686.646427 L 95.861254 691.275427 L 97.731854 695.903427 L 99.600954 700.533427" fill="none" id="9" stroke="#c94e76" stroke-width="0.5" /><path d="M 9.585194 150.281427 L 11.420354 145.730427 L 13.443754 141.259427 L 15.720454 136.912427 L 18.215154 132.686427 L 20.770754 128.496427 L 23.408254 124.358427 L 26.128954 120.274427 L 28.889054 116.216427 L 31.833754 112.291427 L 34.870854 108.436427 L 38.011654 104.665427 L 41.252854 100.981427 L 44.601054 97.393527 L 47.976854 93.831727 L 51.358954 90.276127 L 54.814954 86.792127 L 58.314654 83.351927 L 61.864554 79.963727 L 65.507254 76.675427 L 69.245454 73.496227 L 73.052654 70.399827 L 76.903354 67.357827 L 80.769554 64.335427 L 84.650454 61.332027 L 88.562554 58.369327 L 92.522054 55.470227 L 96.534654 52.645127 L 100.617154 49.922027 L 104.791154 47.341327 L 109.013154 44.840027 L 113.248154 42.361627 L 117.520154 39.946627 L 121.832154 37.602727 L 126.180154 35.326727 L 130.556154 33.106327 L 134.970154 30.961727 L 139.436154 28.929227 L 143.930154 26.957727 L 148.431154 25.001027 L 152.962154 23.116527 L 157.522154 21.303027 L 162.086154 19.500627 L 166.667154 17.739627 L 171.270154 16.038427 L 175.904154 14.423527 L 180.547154 12.834727 L 185.200154 11.275527 L 189.887154 9.822697 L 194.593154 8.430867" fill="none" id="10" stroke="#c94e76" stroke-width="0.5" /><path d="M 291.853154 20.005627 L 287.237154 18.421427 L 282.542154 17.091427 L 277.768154 16.082727 L 272.929154 15.462527 L 268.066154 15.057727 L 263.192154 14.828027 L 258.313154 14.747227 L 253.433154 14.695027 L 248.553154 14.676227 L 243.674154 14.725727 L 238.798154 14.926227 L 233.932154 15.286727 L 229.071154 15.708527 L 224.213154 16.173127 L 219.361154 16.696727 L 214.513154 17.253027 L 209.671154 17.861127 L 204.838154 18.538227 L 200.009154 19.239427 L 195.186154 19.982327 L 190.380154 20.825827 L 185.590154 21.760327 L 180.819154 22.785127 L 176.062154 23.873527 L 171.323154 25.039527 L 166.610154 26.302327 L 161.922154 27.659527 L 157.263154 29.110527 L 152.623154 30.620927 L 148.008154 32.208027 L 143.412154 33.848227" fill="none" id="11" stroke="#c94e76" stroke-width="0.5" /><path d="M 29.018254 158.667427 L 30.588554 153.972427 L 32.356454 149.349427 L 34.325554 144.807427 L 36.611154 140.417427 L 39.139554 136.162427 L 41.765554 131.966427 L 44.512554 127.848427 L 47.456954 123.870427 L 50.522554 119.984427 L 53.600154 116.107427 L 56.677854 112.230427 L 59.755554 108.353427 L 62.833354 104.476427 L 65.967254 100.644427 L 69.198854 96.895527 L 72.494254 93.202027 L 75.807254 89.524227 L 79.145354 85.869027 L 82.510654 82.239027 L 85.887354 78.619527 L 89.315054 75.048627 L 92.807754 71.541127 L 96.364154 68.098327 L 100.006254 64.746627 L 103.746154 61.504227 L 107.559154 58.348527 L 111.404154 55.230727 L 115.334154 52.223027 L 119.338154 49.312027 L 123.358154 46.425027 L 127.414154 43.586727 L 131.523154 40.826727 L 135.696154 38.166527 L 139.904154 35.559727 L 144.131154 32.984027 L 148.413154 30.501727 L 152.733154 28.084627 L 157.081154 25.718327 L 161.485154 23.459427 L 165.949154 21.321427 L 170.459154 19.282327 L 175.005154 17.323127 L 179.592154 15.465627 L 184.210154 13.682727 L 188.839154 11.929727 L 193.499154 10.261227 L 198.208154 8.734907 L 202.947154 7.306467 L 207.713154 5.970487 L 212.509154 4.748107 L 217.335154 3.645287 L 222.187154 2.672307 L 227.074154 1.888567 L 231.981154 1.242167 L 236.906154 0.745046 L 241.842154 0.392486 L 246.791154 0.280522 L 251.741154 0.250000 L 256.691154 0.273757 L 261.636154 0.401954 L 266.558154 0.928358 L 271.464154 1.584377 L 276.339154 2.440887 L 281.179154 3.476627 L 285.967154 4.727567 L 290.698154 6.184557 L 295.393154 7.753697 L 300.028154 9.489317 L 304.585154 11.422227 L 309.103154 13.445227 L 313.588154 15.539427 L 318.057154 17.667127" fill="none" id="12" stroke="#c94e76" stroke-width="0.5" /><path d="M 30.813554 165.328427 L 32.223054 160.549427 L 33.733554 155.801427 L 35.366754 151.094427 L 37.154254 146.443427 L 39.096254 141.854427 L 41.156654 137.318427 L 43.333854 132.836427 L 45.676854 128.439427 L 48.143454 124.110427 L 50.663454 119.811427 L 53.224654 115.537427 L 55.867654 111.314427 L 58.631254 107.168427 L 61.480254 103.081427 L 64.430254 99.065727 L 67.461054 95.111227 L 70.574954 91.221527 L 73.751354 87.382927 L 77.024154 83.626527 L 80.404454 79.966127 L 83.844354 76.361527 L 87.318754 72.790127 L 90.823154 69.248027 L 94.347054 65.725527 L 97.935254 62.269327 L 101.655154 58.956127 L 105.515154 55.806427 L 109.503154 52.821127 L 113.601154 49.989027 L 117.785154 47.282927 L 122.029154 44.673827 L 126.337154 42.170327 L 130.723154 39.807827 L 135.194154 37.611527 L 139.755154 35.606927 L 144.389154 33.778127 L 149.079154 32.096427 L 153.830154 30.598427 L 158.631154 29.269527 L 163.479154 28.124027 L 168.374154 27.194727 L 173.291154 26.391627 L 178.224154 25.694927 L 183.170154 25.091627 L 188.124154 24.560827 L 193.089154 24.133827 L 198.059154 23.789327 L 203.033154 23.485527 L 208.010154 23.260127 L 212.990154 23.104327 L 217.972154 22.994327 L 222.954154 22.954727 L 227.937154 22.945327 L 232.919154 22.943327 L 237.902154 22.985127 L 242.883154 23.122227 L 247.858154 23.389027 L 252.826154 23.771827 L 257.787154 24.231627 L 262.744154 24.742427 L 267.695154 25.297027" fill="none" id="13" stroke="#c94e76" stroke-width="0.5" /><path d="M 10.561554 143.690427 L 13.083754 139.396427 L 15.912954 135.298427 L 19.138654 131.504427 L 22.624954 127.947427 L 26.177454 124.456427 L 29.880054 121.125427 L 33.750654 117.991427 L 37.704954 114.962427 L 41.714254 112.007427 L 45.731654 109.062427 L 49.773454 106.152427 L 53.871154 103.320427 L 57.991554 100.522427 L 62.143654 97.770627 L 66.316154 95.050427 L 70.504854 92.355127 L 74.709654 89.685027 L 78.918454 87.021327 L 83.132354 84.365427 L 87.367454 81.744027 L 91.628454 79.164527 L 95.922854 76.641727 L 100.288154 74.245027 L 104.726154 71.983327 L 109.211154 69.817727 L 113.724154 67.710627 L 118.261154 65.653527 L 122.814154 63.634427 L 127.372154 61.627027 L 131.931154 59.619827 L 136.496154 57.626127 L 141.076154 55.669627 L 145.677154 53.760727 L 150.293154 51.891227 L 154.919154 50.043527 L 159.558154 48.230327 L 164.222154 46.481327 L 168.914154 44.811327 L 173.634154 43.218927 L 178.375154 41.694127 L 183.135154 40.227127 L 187.902154 38.783027 L 192.679154 37.371927 L 197.469154 36.007227 L 202.264154 34.656027 L 207.062154 33.319527 L 211.881154 32.058927 L 216.724154 30.898427 L 221.580154 29.787627 L 226.449154 28.738127 L 231.332154 27.754427 L 236.235154 26.880127 L 241.156154 26.106927 L 246.091154 25.435827 L 251.031154 24.797227 L 255.972154 24.171027 L 260.919154 23.587327 L 265.869154 23.029327" fill="none" id="14" stroke="#c94e76" stroke-width="0.5" /><path d="M 4.451334 150.470427 L 6.614854 146.036427 L 9.020394 141.729427 L 11.750354 137.619427 L 14.874954 133.802427 L 18.157954 130.120427 L 21.547254 126.535427 L 25.063854 123.075427 L 28.738354 119.783427 L 32.641854 116.768427 L 36.643254 113.882427 L 40.709054 111.088427 L 44.801554 108.333427 L 48.929354 105.631427 L 53.108154 103.008427 L 57.296554 100.401427 L 61.545154 97.894327 L 65.819654 95.430927 L 70.119054 93.011227 L 74.456354 90.660227 L 78.784754 88.292827 L 83.102654 85.906127 L 87.424054 83.525927 L 91.762154 81.176227 L 96.130454 78.883527 L 100.541154 76.673927 L 105.020154 74.605827 L 109.551154 72.655527 L 114.112154 70.774727 L 118.689154 68.933727 L 123.274154 67.110927 L 127.860154 65.292727 L 132.446154 63.474427 L 137.033154 61.656127 L 141.619154 59.837827 L 146.205154 58.019627 L 150.800154 56.223127 L 155.410154 54.466327 L 160.043154 52.771327 L 164.697154 51.133127 L 169.355154 49.508427 L 174.022154 47.906727 L 178.707154 46.361527 L 183.412154 44.877027 L 188.130154 43.436027 L 192.854154 42.013727 L 197.578154 40.591727 L 202.303154 39.169727 L 207.027154 37.747727 L 211.751154 36.325727 L 216.475154 34.903727 L 221.200154 33.481727 L 225.926154 32.065927 L 230.659154 30.676227 L 235.408154 29.338127 L 240.179154 28.083627 L 244.965154 26.885127 L 249.758154 25.713627 L 254.554154 24.558527 L 259.369154 23.482927 L 264.199154 22.476427 L 269.028154 21.469927 L 273.857154 20.459427 L 278.680154 19.417627 L 283.493154 18.333727 L 288.300154 17.225527 L 293.084154 16.021127 L 297.865154 14.801927 L 302.637154 13.549127 L 307.406154 12.283927 L 312.169154 11.001227 L 316.924154 9.682837" fill="none" id="15" stroke="#c94e76" stroke-width="0.5" /><path d="M 25.175754 159.304427 L 24.907354 164.265427 L 24.691354 169.228427 L 24.565254 174.194427 L 24.534754 179.161427 L 24.531554 184.129427 L 24.494154 189.096427 L 24.449654 194.064427 L 24.404754 199.032427 L 24.359854 203.999427 L 24.314954 208.967427 L 24.296454 213.934427 L 24.293954 218.902427 L 24.293854 223.870427 L 24.293854 228.838427 L 24.293854 233.805427 L 24.293854 238.773427 L 24.293854 243.741427 L 24.293854 248.708427 L 24.293854 253.676427 L 24.293854 258.644427 L 24.293854 263.612427 L 24.305654 268.579427 L 24.373554 273.547427 L 24.503454 278.513427 L 24.644154 283.478427 L 24.788654 288.444427 L 24.955954 293.409427 L 25.151454 298.373427 L 25.378054 303.335427 L 25.646054 308.296427 L 25.942154 313.255427 L 26.244354 318.213427 L 26.546654 323.172427 L 26.876554 328.129427 L 27.247154 333.082427 L 27.647754 338.034427 L 28.057654 342.985427 L 28.467954 347.936427 L 28.882854 352.886427 L 29.351754 357.832427 L 29.845854 362.775427 L 30.373754 367.714427 L 30.934354 372.650427 L 31.524454 377.583427 L 32.146354 382.511427 L 32.806854 387.435427 L 33.485454 392.356427 L 34.164054 397.277427 L 34.842654 402.199427 L 35.547754 407.116427 L 36.290954 412.028427 L 37.067754 416.934427 L 37.871954 421.837427 L 38.718454 426.732427 L 39.599054 431.621427 L 40.516654 436.503427 L 41.474654 441.377427 L 42.462954 446.246427 L 43.484354 451.107427 L 44.542954 455.961427 L 45.629254 460.808427 L 46.733054 465.652427 L 47.863354 470.489427 L 49.010854 475.323427 L 50.185554 480.150427 L 51.387154 484.970427 L 52.606254 489.786427 L 53.834254 494.599427 L 55.072154 499.410427 L 56.316054 504.220427 L 57.582254 509.024427 L 58.875954 513.820427 L 60.186154 518.612427 L 61.522854 523.396427 L 62.894554 528.171427 L 64.296954 532.936427 L 65.723854 537.695427 L 67.209254 542.435427 L 68.725454 547.166427 L 70.270054 551.887427 L 71.855954 556.595427 L 73.474354 561.292427 L 75.117954 565.980427 L 76.796954 570.655427 L 78.516554 575.316427 L 80.248954 579.972427 L 82.006254 584.618427 L 83.782754 589.257427 L 85.573154 593.891427 L 87.389954 598.515427 L 89.238154 603.126427 L 91.098754 607.732427 L 92.987054 612.327427 L 94.929854 616.899427 L 96.893954 621.462427 L 98.923654 625.996427 L 101.011154 630.504427 L 103.145154 634.990427 L 105.335154 639.448427 L 107.604154 643.868427 L 109.904154 648.271427 L 112.292154 652.627427 L 114.724154 656.958427 L 117.209154 661.260427 L 119.754154 665.526427 L 122.352154 669.760427 L 124.998154 673.965427 L 127.721154 678.120427 L 130.492154 682.242427 L 133.364154 686.296427 L 136.282154 690.317427 L 139.251154 694.299427 L 142.268154 698.245427 L 145.331154 702.156427 L 148.448154 706.025427 L 151.601154 709.864427" fill="none" id="16" stroke="#d271bb" stroke-width="0.5" /><path d="M 313.459154 22.769427 L 313.358154 27.740527 L 313.413154 32.711627 L 313.588154 37.680227 L 313.846154 42.645427 L 314.192154 47.604927 L 314.675154 52.553327 L 315.243154 57.492827 L 315.827154 62.430627 L 316.374154 67.372327 L 316.886154 72.317927 L 317.376154 77.265827 L 317.863154 82.214027 L 318.349154 87.162227 L 318.780154 92.115627 L 319.168154 97.072427 L 319.506154 102.032427 L 319.800154 106.996427 L 320.056154 111.961427 L 320.265154 116.929427 L 320.433154 121.898427 L 320.593154 126.868427 L 320.732154 131.838427 L 320.833154 136.809427 L 320.893154 141.780427 L 320.930154 146.752427 L 320.949154 151.724427 L 320.954154 156.696427 L 320.955154 161.668427 L 320.955154 166.640427 L 320.955154 171.613427 L 320.955154 176.585427 L 320.955154 181.557427 L 320.942154 186.529427 L 320.898154 191.501427 L 320.816154 196.472427 L 320.699154 201.443427 L 320.561154 206.413427 L 320.414154 211.383427 L 320.247154 216.352427 L 320.053154 221.320427 L 319.850154 226.288427 L 319.634154 231.255427 L 319.392154 236.222427 L 319.123154 241.186427 L 318.846154 246.151427 L 318.555154 251.114427 L 318.234154 256.076427 L 317.899154 261.037427 L 317.561154 265.997427 L 317.223154 270.958427 L 316.883154 275.918427 L 316.522154 280.877427 L 316.130154 285.834427 L 315.720154 290.789427 L 315.296154 295.743427 L 314.850154 300.695427 L 314.368154 305.643427 L 313.869154 310.590427 L 313.369154 315.537427 L 312.862154 320.483427 L 312.342154 325.428427 L 311.803154 330.371427 L 311.243154 335.311427 L 310.664154 340.250427 L 310.085154 345.188427 L 309.502154 350.126427 L 308.878154 355.058427 L 308.215154 359.986427 L 307.538154 364.912427 L 306.859154 369.837427 L 306.171154 374.761427 L 305.462154 379.683427 L 304.743154 384.602427 L 304.021154 389.522427 L 303.298154 394.441427 L 302.576154 399.360427 L 301.853154 404.280427 L 301.114154 409.196427 L 300.355154 414.110427 L 299.585154 419.022427 L 298.810154 423.934427 L 298.029154 428.844427 L 297.223154 433.750427 L 296.385154 438.651427 L 295.535154 443.550427 L 294.683154 448.449427 L 293.824154 453.346427 L 292.953154 458.241427 L 292.068154 463.134427 L 291.179154 468.026427 L 290.290154 472.918427 L 289.400154 477.809427 L 288.506154 482.700427 L 287.592154 487.588427 L 286.630154 492.466427 L 285.607154 497.331427 L 284.571154 502.194427 L 283.527154 507.056427 L 282.447154 511.909427 L 281.310154 516.749427 L 280.110154 521.574427 L 278.872154 526.390427 L 277.583154 531.192427 L 276.291154 535.993427 L 274.993154 540.792427 L 273.675154 545.587427 L 272.325154 550.372427 L 270.940154 555.147427 L 269.556154 559.923427 L 268.164154 564.696427 L 266.744154 569.461427 L 265.300154 574.219427 L 263.846154 578.973427 L 262.389154 583.727427 L 260.921154 588.478427 L 259.406154 593.213427 L 257.828154 597.928427 L 256.217154 602.632427 L 254.588154 607.329427 L 252.939154 612.020427 L 251.254154 616.698427" fill="none" id="17" stroke="#3d8e43" stroke-width="0.5" /><path d="M 250.656154 48.871827 L 252.263154 53.507027 L 253.872154 58.141627 L 255.492154 62.772627 L 257.091154 67.410627 L 258.679154 72.052727 L 260.216154 76.711527 L 261.685154 81.392327 L 263.056154 86.102627 L 264.361154 90.831927 L 265.632154 95.570427 L 266.869154 100.318427 L 268.082154 105.071427 L 269.280154 109.829427 L 270.438154 114.596427 L 271.542154 119.376427 L 272.605154 124.166427 L 273.591154 128.971427 L 274.480154 133.796427 L 275.321154 138.629427 L 276.138154 143.467427 L 276.916154 148.310427 L 277.629154 153.164427 L 278.313154 158.022427 L 278.987154 162.882427 L 279.632154 167.745427 L 280.237154 172.614427 L 280.804154 177.487427 L 281.354154 182.362427 L 281.902154 187.237427 L 282.450154 192.113427 L 282.987154 196.989427 L 283.484154 201.870427 L 283.942154 206.754427 L 284.391154 211.640427 L 284.821154 216.527427 L 285.200154 221.418427 L 285.533154 226.313427 L 285.859154 231.208427 L 286.173154 236.104427 L 286.426154 241.003427 L 286.654154 245.904427 L 286.878154 250.805427 L 287.097154 255.706427" fill="none" id="18" stroke="#00d4db" stroke-width="0.5" /><path d="M 266.057154 92.903327 L 266.998154 97.798727 L 267.899154 102.701427 L 268.720154 107.618427 L 269.478154 112.545427 L 270.229154 117.473427 L 270.985154 122.400427 L 271.720154 127.331427 L 272.420154 132.266427 L 273.100154 137.205427 L 273.779154 142.143427 L 274.457154 147.082427 L 275.134154 152.021427 L 275.743154 156.968427 L 276.279154 161.924427 L 276.799154 166.882427 L 277.317154 171.840427 L 277.834154 176.798427 L 278.352154 181.756427 L 278.865154 186.715427 L 279.361154 191.675427 L 279.837154 196.637427 L 280.304154 201.600427 L 280.754154 206.565427 L 281.174154 211.532427 L 281.587154 216.500427 L 282.000154 221.468427 L 282.402154 226.437427 L 282.756154 231.409427 L 283.071154 236.384427 L 283.370154 241.360427 L 283.629154 246.338427 L 283.830154 251.319427 L 283.995154 256.301427 L 284.152154 261.284427 L 284.309154 266.266427 L 284.462154 271.249427 L 284.593154 276.232427 L 284.705154 281.216427 L 284.813154 286.200427 L 284.901154 291.184427 L 284.942154 296.169427 L 284.949154 301.154427 L 284.945154 306.139427 L 284.941154 311.124427 L 284.937154 316.109427 L 284.933154 321.094427 L 284.927154 326.079427 L 284.906154 331.063427 L 284.812154 336.048427 L 284.643154 341.030427 L 284.458154 346.011427 L 284.271154 350.993427 L 284.084154 355.974427 L 283.895154 360.956427 L 283.673154 365.936427 L 283.396154 370.913427 L 283.082154 375.888427 L 282.763154 380.862427 L 282.436154 385.837427 L 282.089154 390.810427 L 281.717154 395.781427 L 281.315154 400.750427 L 280.885154 405.716427 L 280.448154 410.682427 L 280.008154 415.647427 L 279.553154 420.611427 L 279.065154 425.572427 L 278.551154 430.531427 L 278.029154 435.488427 L 277.504154 440.446427 L 276.964154 445.401427 L 276.399154 450.354427 L 275.818154 455.305427 L 275.238154 460.256427 L 274.649154 465.206427 L 274.031154 470.153427 L 273.386154 475.096427 L 272.733154 480.038427 L 272.077154 484.980427 L 271.402154 489.919427 L 270.691154 494.853427 L 269.949154 499.782427 L 269.203154 504.711427 L 268.457154 509.640427 L 267.711154 514.569427 L 266.964154 519.497427 L 266.194154 524.423427 L 265.354154 529.336427 L 264.479154 534.244427 L 263.597154 539.150427 L 262.716154 544.056427 L 261.835154 548.963427 L 260.951154 553.869427 L 260.052154 558.772427 L 259.122154 563.670427 L 258.169154 568.563427 L 257.216154 573.456427 L 256.259154 578.348427 L 255.269154 583.234427 L 254.247154 588.113427 L 253.187154 592.984427 L 252.089154 597.846427 L 250.920154 602.692427 L 249.687154 607.522427 L 248.406154 612.339427 L 247.072154 617.143427 L 245.688154 621.932427 L 244.285154 626.715427 L 242.863154 631.493427 L 241.396154 636.257427" fill="none" id="19" stroke="#d55969" stroke-width="0.5" /><path d="M 7.380474 152.879427 L 9.670824 153.738427 L 11.962654 154.594427 L 14.257154 155.442427 L 16.560654 156.265427 L 18.856254 157.110427 L 21.145054 157.973427 L 23.424654 158.860427 L 25.704154 159.748427 L 27.991654 160.614427 L 30.289754 161.452427 L 32.614254 162.214427 L 34.952154 162.933427 L 37.302154 163.612427 L 39.665954 164.241427 L 42.034854 164.851427 L 44.406454 165.451427 L 46.779154 166.046427 L 49.153654 166.634427 L 51.529954 167.214427 L 53.908454 167.785427 L 56.289254 168.347427 L 58.669954 168.909427 L 61.050754 169.471427 L 63.431454 170.033427 L 65.812254 170.595427 L 68.193554 171.155427 L 70.576254 171.709427 L 72.963254 172.244427 L 75.352154 172.770427 L 77.742654 173.289427" fill="none" id="20" stroke="#64e4ff" stroke-width="0.5" /><path d="M 79.285954 182.454427 L 81.069954 177.861427 L 83.088954 173.365427 L 85.479154 169.056427 L 88.261754 164.990427 L 91.009054 160.899427 L 93.799454 156.838427 L 96.792954 152.924427 L 99.958854 149.148427 L 103.242154 145.474427 L 106.593154 141.862427 L 110.003154 138.304427 L 113.419154 134.753427 L 116.863154 131.228427 L 120.383154 127.780427 L 124.002154 124.436427 L 127.670154 121.145427 L 131.374154 117.895427 L 135.147154 114.726427 L 138.954154 111.598427 L 142.773154 108.483427 L 146.599154 105.377427 L 150.449154 102.302427 L 154.313154 99.244227 L 158.182154 96.193127 L 162.119154 93.229427 L 166.089154 90.310227 L 170.060154 87.393527 L 174.105154 84.579527 L 178.213154 81.859027 L 182.355154 79.188827 L 186.544154 76.594327 L 190.793154 74.100727 L 195.090154 71.687327 L 199.411154 69.320227 L 203.743154 66.971027 L 208.075154 64.622827 L 212.420154 62.296927 L 216.777154 59.995527 L 221.135154 57.695627 L 225.511154 55.429427 L 229.926154 53.242727 L 234.379154 51.132827 L 238.864154 49.091927 L 243.387154 47.135927 L 247.951154 45.279227 L 252.550154 43.509027 L 257.175154 41.808027 L 261.800154 40.108527 L 266.436154 38.438127 L 271.096154 36.834827 L 275.759154 35.242527 L 280.427154 33.664727 L 285.115154 32.144627 L 289.820154 30.681727 L 294.548154 29.295227 L 299.308154 28.019727 L 304.100154 26.872527 L 308.923154 25.864427 L 313.749154 24.869127 L 318.593154 23.963927 L 323.450154 23.128027 L 328.315154 22.345727 L 333.196154 21.670227 L 338.092154 21.110827 L 343.002154 20.701727 L 347.921154 20.408027 L 352.846154 20.250227 L 357.774154 20.218227" fill="none" id="21" stroke="#e68e54" stroke-width="0.5" /><path d="M 76.829254 180.163427 L 79.622254 176.053427 L 82.484954 171.991427 L 85.542454 168.074427 L 88.839054 164.355427 L 92.019154 160.537427 L 95.249054 156.760427 L 98.591554 153.083427 L 102.058154 149.522427 L 105.611154 146.048427 L 109.223154 142.636427 L 112.925154 139.320427 L 116.659154 136.042427 L 120.394154 132.764427 L 124.129154 129.487427 L 127.885154 126.232427 L 131.723154 123.076427 L 135.631154 120.007427 L 139.562154 116.967427 L 143.493154 113.927427 L 147.424154 110.887427 L 151.319154 107.801427 L 155.181154 104.673427 L 159.043154 101.547427 L 162.945154 98.469827 L 166.881154 95.436827 L 170.884154 92.492727 L 174.937154 89.617627 L 179.028154 86.796627 L 183.121154 83.978427 L 187.263154 81.233127 L 191.483154 78.608027 L 195.702154 75.983127 L 199.936154 73.381327 L 204.271154 70.952527 L 208.607154 68.523827 L 212.942154 66.095027 L 217.277154 63.666527 L 221.622154 61.255027 L 225.988154 58.880327 L 230.353154 56.506027 L 234.755154 54.201427 L 239.267154 52.117627 L 243.814154 50.113427 L 248.398154 48.193727 L 253.012154 46.348527 L 257.646154 44.554327 L 262.300154 42.813727 L 266.987154 41.162327 L 271.674154 39.511027 L 276.385154 37.931327 L 281.098154 36.353627 L 285.831154 34.841627 L 290.588154 33.402827 L 295.351154 31.986327 L 300.156154 30.718827 L 305.006154 29.638527 L 309.888154 28.711327 L 314.794154 27.921127 L 319.729154 27.332327 L 324.669154 26.796127 L 329.621154 26.377327 L 334.583154 26.113627 L 339.551154 25.984727 L 344.520154 25.982027 L 349.487154 26.133227 L 354.428154 26.663127 L 359.340154 27.417327 L 364.220154 28.353127 L 369.059154 29.483127 L 373.847154 30.814027 L 378.582154 32.321727 L 383.254154 34.013527" fill="none" id="22" stroke="#54aeff" stroke-width="0.5" /><path d="M 66.372554 172.273427 L 71.225054 171.189427 L 76.042254 169.958427 L 80.806454 168.535427 L 85.510054 166.925427 L 90.145854 165.127427 L 94.747254 163.243427 L 99.332754 161.321427 L 103.912154 159.383427 L 108.490154 157.443427 L 113.068154 155.503427 L 117.646154 153.563427 L 122.220154 151.614427 L 126.783154 149.637427 L 131.337154 147.641427 L 135.889154 145.641427 L 140.423154 143.602427 L 144.913154 141.467427 L 149.369154 139.261427 L 153.802154 137.008427 L 158.203154 134.694427 L 162.584154 132.343427 L 166.973154 130.007427 L 171.384154 127.711427 L 175.808154 125.442427 L 180.235154 123.178427 L 184.659154 120.908427 L 189.070154 118.614427 L 193.460154 116.280427 L 197.839154 113.925427 L 202.207154 111.548427 L 206.544154 109.117427 L 210.841154 106.617427 L 215.095154 104.043427 L 219.335154 101.446427 L 223.561154 98.826227 L 227.756154 96.156327 L 231.937154 93.465927 L 236.105154 90.753727" fill="none" id="23" stroke="#eed973" stroke-width="0.5" /><path d="M 345.333154 29.501727 L 341.957154 33.134427 L 338.517154 36.707227 L 334.990154 40.193727 L 331.391154 43.605127 L 327.631154 46.838927 L 323.791154 49.976527 L 319.892154 53.041827 L 315.960154 56.063827 L 312.013154 59.066227 L 308.025154 62.013827 L 303.962154 64.857627 L 299.861154 67.647327 L 295.732154 70.394227 L 291.611154 73.153227 L 287.512154 75.945027 L 283.395154 78.710427 L 279.249154 81.430527 L 275.051154 84.070127 L 270.796154 86.618427 L 266.525154 89.138927 L 262.248154 91.650327 L 257.950154 94.124227 L 253.625154 96.551027 L 249.288154 98.955227 L 244.939154 101.340427 L 240.579154 103.703427 L 236.209154 106.047427 L 231.816154 108.349427 L 227.397154 110.601427 L 222.964154 112.824427 L 218.515154 115.014427 L 214.040154 117.151427 L 209.539154 119.234427 L 205.022154 121.281427 L 200.500154 123.317427 L 195.977154 125.353427 L 191.455154 127.389427 L 186.933154 129.424427 L 182.408154 131.455427 L 177.875154 133.466427 L 173.328154 135.448427 L 168.777154 137.417427 L 164.225154 139.386427 L 159.673154 141.354427 L 155.110154 143.298427 L 150.505154 145.136427 L 145.879154 146.924427 L 141.247154 148.697427 L 136.588154 150.397427 L 131.891154 151.987427 L 127.184154 153.549427 L 122.476154 155.108427 L 117.768154 156.667427 L 113.053154 158.204427 L 108.311154 159.657427 L 103.566154 161.099427 L 98.813554 162.517427" fill="none" id="24" stroke="#008bd4" stroke-width="0.5" /><path d="M 73.868654 181.415427 L 73.382454 186.360427 L 72.869754 191.303427 L 72.303054 196.240427 L 71.755554 201.179427 L 71.230554 206.120427 L 70.709854 211.062427 L 70.216554 216.007427 L 69.749554 220.955427 L 69.284854 225.902427 L 68.820254 230.850427 L 68.367854 235.798427 L 67.959154 240.751427 L 67.585154 245.706427 L 67.222654 250.662427 L 66.862854 255.618427 L 66.512954 260.575427 L 66.219754 265.536427 L 65.961954 270.499427 L 65.710954 275.462427 L 65.495054 280.426427 L 65.325054 285.393427 L 65.200754 290.361427 L 65.117954 295.329427 L 65.066054 300.298427 L 65.051754 305.268427 L 65.049954 310.237427 L 65.049754 315.206427 L 65.071354 320.176427 L 65.132054 325.144427 L 65.249354 330.112427 L 65.436654 335.078427 L 65.689154 340.041427 L 65.962354 345.003427 L 66.237054 349.965427 L 66.557154 354.924427 L 66.941954 359.878427 L 67.379754 364.828427 L 67.858754 369.774427 L 68.374754 374.716427 L 68.927954 379.655427 L 69.524454 384.588427 L 70.161154 389.517427 L 70.846054 394.439427 L 71.561054 399.356427 L 72.303254 404.270427 L 73.067854 409.180427 L 73.863254 414.085427 L 74.707254 418.982427 L 75.586854 423.873427 L 76.493354 428.759427 L 77.422854 433.641427 L 78.385554 438.516427 L 79.390854 443.382427 L 80.433054 448.241427 L 81.507354 453.093427 L 82.613754 457.938427 L 83.741054 462.777427 L 84.869154 467.617427 L 85.997254 472.457427 L 87.143254 477.292427 L 88.318454 482.120427 L 89.514254 486.944427 L 90.717154 491.765427 L 91.920054 496.587427 L 93.126254 501.408427 L 94.361554 506.221427 L 95.645454 511.022427 L 96.952654 515.816427 L 98.304054 520.598427 L 99.703154 525.366427 L 101.136154 530.124427 L 102.596154 534.874427 L 104.092154 539.613427 L 105.603154 544.347427 L 107.140154 549.073427 L 108.709154 553.788427 L 110.285154 558.501427 L 111.861154 563.214427 L 113.438154 567.926427 L 115.019154 572.638427 L 116.613154 577.344427 L 118.229154 582.043427 L 119.857154 586.739427 L 121.485154 591.434427 L 123.112154 596.129427 L 124.740154 600.824427 L 126.367154 605.520427 L 127.995154 610.215427 L 129.627154 614.908427 L 131.281154 619.595427 L 133.004154 624.255427 L 134.739154 628.912427 L 136.474154 633.569427 L 138.209154 638.226427 L 139.944154 642.882427 L 141.679154 647.539427 L 143.413154 652.196427 L 145.145154 656.854427 L 146.860154 661.518427 L 148.541154 666.194427 L 150.219154 670.871427 L 151.898154 675.549427 L 153.576154 680.226427 L 155.249154 684.905427 L 156.909154 689.589427 L 158.553154 694.279427 L 160.197154 698.968427 L 161.841154 703.658427 L 163.488154 708.346427 L 165.173154 713.021427 L 166.894154 717.683427 L 168.636154 722.337427 L 170.383154 726.989427 L 172.128154 731.642427 L 173.869154 736.297427" fill="none" id="25" stroke="#fdb968" stroke-width="0.5" /><path d="M 147.286154 677.383427 L 145.833154 674.547427 L 144.377154 671.713427 L 142.911154 668.885427 L 141.447154 666.055427 L 139.994154 663.219427 L 138.560154 660.374427 L 137.156154 657.514427 L 135.780154 654.640427 L 134.437154 651.750427 L 133.115154 648.851427 L 131.804154 645.948427 L 130.512154 643.035427 L 129.254154 640.108427 L 128.034154 637.164427 L 126.839154 634.211427 L 125.673154 631.245427 L 124.539154 628.268427 L 123.427154 625.282427 L 122.336154 622.288427 L 121.277154 619.283427 L 120.259154 616.264427 L 119.273154 613.235427 L 118.292154 610.203427 L 117.347154 607.160427 L 116.477154 604.095427 L 115.663154 601.015427 L 114.898154 597.922427 L 114.168154 594.821427 L 113.444154 591.718427 L 112.735154 588.612427" fill="none" id="26" stroke="#6f73bc" stroke-width="0.5" /><path d="M 151.569154 679.438427 L 149.588154 675.669427 L 147.678154 671.863427 L 145.857154 668.014427 L 144.152154 664.111427 L 142.514154 660.181427 L 140.914154 656.234427 L 139.342154 652.277427 L 137.786154 648.313427 L 136.280154 644.329427 L 134.839154 640.322427 L 133.440154 636.301427 L 132.081154 632.265427 L 130.777154 628.211427 L 129.534154 624.138427 L 128.322154 620.056427 L 127.121154 615.970427 L 125.950154 611.876427 L 124.834154 607.767427 L 123.741154 603.651427 L 122.657154 599.533427 L 121.615154 595.404427 L 120.646154 591.257427 L 119.731154 587.098427 L 118.861154 582.929427 L 118.030154 578.753427 L 117.258154 574.565427 L 116.529154 570.370427 L 115.851154 566.165427 L 115.220154 561.954427 L 114.624154 557.738427" fill="none" id="27" stroke="#bee481" stroke-width="0.5" /><path d="M 73.175754 170.194427 L 70.762854 174.549427 L 68.885254 179.160427 L 67.923954 184.044427 L 67.846754 189.021427 L 67.823254 193.999427 L 67.821454 198.978427 L 67.823654 203.956427 L 67.861554 208.934427 L 67.927854 213.913427 L 67.991154 218.891427 L 68.012254 223.869427 L 68.017254 228.847427 L 68.020954 233.826427 L 68.024654 238.804427 L 68.028254 243.783427 L 68.031954 248.761427 L 68.035654 253.740427 L 68.039354 258.718427 L 68.043054 263.697427 L 68.046654 268.675427 L 68.050354 273.654427 L 68.054054 278.632427 L 68.057754 283.611427 L 68.061454 288.589427 L 68.065054 293.568427 L 68.068754 298.546427 L 68.098154 303.524427 L 68.210054 308.501427 L 68.374154 313.477427 L 68.562954 318.452427 L 68.783854 323.426427 L 69.026754 328.398427 L 69.314954 333.368427 L 69.683454 338.333427 L 70.084454 343.295427 L 70.487354 348.257427 L 70.890254 353.219427 L 71.293254 358.182427 L 71.742954 363.140427 L 72.250354 368.092427 L 72.779754 373.042427 L 73.341654 377.989427 L 73.948054 382.930427 L 74.575954 387.869427 L 75.226554 392.805427 L 75.910554 397.736427 L 76.614754 402.665427 L 77.336654 407.590427 L 78.089454 412.512427 L 78.867754 417.429427 L 79.659854 422.344427 L 80.473154 427.255427 L 81.312154 432.163427 L 82.164954 437.068427 L 83.028654 441.971427 L 83.909454 446.871427 L 84.802254 451.768427 L 85.697354 456.666427 L 86.592454 461.563427 L 87.487554 466.460427 L 88.385854 471.357427 L 89.301454 476.251427 L 90.252654 481.137427 L 91.231954 486.019427 L 92.218554 490.898427 L 93.224254 495.774427 L 94.258954 500.644427 L 95.302754 505.512427 L 96.360454 510.376427 L 97.463254 515.231427 L 98.610354 520.076427 L 99.761354 524.919427 L 100.912154 529.763427 L 102.064154 534.606427 L 103.215154 539.450427 L 104.444154 544.274427 L 105.847154 549.050427 L 107.179154 553.847427 L 108.472154 558.655427 L 109.761154 563.463427 L 111.050154 568.272427 L 112.339154 573.081427 L 113.631154 577.889427 L 114.953154 582.688427 L 116.377154 587.458427 L 117.862154 592.210427 L 119.373154 596.953427 L 121.013154 601.653427 L 122.648154 606.353427 L 124.147154 611.101427 L 125.660154 615.844427 L 127.213154 620.574427 L 128.802154 625.292427 L 130.395154 630.008427 L 132.022154 634.713427 L 133.710154 639.397427 L 135.400154 644.080427 L 137.090154 648.762427 L 138.780154 653.445427 L 140.471154 658.128427 L 142.177154 662.805427 L 143.887154 667.481427 L 145.608154 672.152427 L 147.349154 676.816427" fill="none" id="28" stroke="#8f6aaf" stroke-width="0.5" /><path d="M 342.624154 32.856027 L 342.891154 37.835127 L 343.192154 42.812027 L 343.571154 47.783427 L 344.080154 52.742227 L 344.741154 57.684327 L 345.349154 62.633227 L 346.016154 67.574627 L 346.702154 72.513327 L 347.394154 77.451227 L 348.084154 82.389327 L 348.763154 87.329127 L 349.349154 92.280627 L 349.859154 97.240327 L 350.328154 102.204427 L 350.774154 107.170427 L 351.195154 112.138427 L 351.610154 117.107427 L 352.021154 122.076427 L 352.417154 127.047427 L 352.798154 132.018427 L 353.162154 136.991427 L 353.471154 141.968427 L 353.754154 146.946427 L 354.013154 151.925427 L 354.245154 156.906427 L 354.455154 161.888427 L 354.658154 166.870427 L 354.862154 171.852427 L 355.047154 176.834427 L 355.215154 181.817427 L 355.370154 186.801427 L 355.515154 191.785427 L 355.617154 196.770427 L 355.689154 201.756427 L 355.753154 206.742427 L 355.800154 211.728427 L 355.823154 216.714427 L 355.831154 221.700427 L 355.837154 226.686427 L 355.842154 231.672427 L 355.837154 236.658427 L 355.806154 241.644427 L 355.728154 246.630427 L 355.621154 251.615427 L 355.508154 256.599427 L 355.371154 261.584427 L 355.204154 266.567427 L 355.005154 271.549427 L 354.772154 276.530427 L 354.524154 281.510427 L 354.273154 286.490427 L 354.013154 291.469427 L 353.735154 296.447427 L 353.443154 301.425427 L 353.148154 306.402427 L 352.848154 311.379427 L 352.538154 316.356427 L 352.216154 321.332427 L 351.888154 326.307427 L 351.560154 331.282427 L 351.216154 336.256427 L 350.852154 341.229427 L 350.468154 346.201427 L 350.063154 351.170427 L 349.637154 356.138427 L 349.207154 361.106427 L 348.775154 366.073427 L 348.327154 371.039427 L 347.853154 376.003427 L 347.352154 380.963427 L 346.851154 385.924427 L 346.345154 390.885427 L 345.819154 395.843427 L 345.268154 400.799427 L 344.694154 405.752427 L 344.121154 410.705427 L 343.538154 415.657427 L 342.932154 420.606427 L 342.300154 425.552427 L 341.651154 430.495427 L 341.001154 435.439427 L 340.336154 440.381427 L 339.633154 445.317427 L 338.900154 450.249427 L 338.149154 455.178427 L 337.399154 460.107427 L 336.648154 465.037427 L 335.897154 469.966427 L 335.133154 474.893427 L 334.331154 479.814427 L 333.479154 484.727427 L 332.591154 489.634427 L 331.704154 494.540427 L 330.808154 499.445427 L 329.889154 504.346427 L 328.941154 509.241427 L 327.972154 514.132427 L 326.974154 519.017427 L 325.968154 523.901427 L 324.959154 528.784427 L 323.946154 533.666427 L 322.920154 538.545427 L 321.845154 543.414427 L 320.757154 548.280427 L 319.668154 553.146427 L 318.575154 558.011427 L 317.462154 562.871427 L 316.296154 567.719427 L 315.128154 572.566427 L 313.960154 577.414427 L 312.791154 582.261427 L 311.622154 587.108427 L 310.447154 591.954427 L 309.226154 596.788427 L 307.960154 601.611427 L 306.685154 606.431427 L 305.408154 611.251427 L 304.117154 616.067427 L 302.766154 620.867427 L 301.410154 625.665427 L 300.052154 630.462427 L 298.694154 635.260427 L 297.336154 640.058427 L 295.979154 644.856427" fill="none" id="29" stroke="#8bb658" stroke-width="0.5" /><path d="M 342.845154 29.265527 L 343.719154 34.173827 L 344.575154 39.085227 L 345.390154 44.003627 L 346.223154 48.918927 L 347.022154 53.839927 L 347.690154 58.780327 L 348.310154 63.727227 L 348.925154 68.674527 L 349.538154 73.622127 L 350.130154 78.572327 L 350.680154 83.527327 L 351.206154 88.485027 L 351.693154 93.446627 L 352.139154 98.412027 L 352.569154 103.379427 L 352.963154 108.348427 L 353.301154 113.322427 L 353.583154 118.300427 L 353.832154 123.279427 L 354.071154 128.259427 L 354.278154 133.240427 L 354.428154 138.223427 L 354.556154 143.207427 L 354.683154 148.191427 L 354.795154 153.175427 L 354.880154 158.160427 L 354.950154 163.145427 L 355.018154 168.130427 L 355.084154 173.115427 L 355.139154 178.100427 L 355.182154 183.085427 L 355.211154 188.070427 L 355.222154 193.056427 L 355.223154 198.041427 L 355.223154 203.027427 L 355.223154 208.012427 L 355.223154 212.998427 L 355.223154 217.983427 L 355.223154 222.969427 L 355.223154 227.954427 L 355.223154 232.940427 L 355.217154 237.925427 L 355.180154 242.910427 L 355.095154 247.895427 L 354.990154 252.880427 L 354.883154 257.864427 L 354.775154 262.848427 L 354.666154 267.832427 L 354.545154 272.816427 L 354.403154 277.800427 L 354.257154 282.783427 L 354.112154 287.767427 L 353.966154 292.750427 L 353.821154 297.733427 L 353.675154 302.717427 L 353.530154 307.700427 L 353.384154 312.683427 L 353.239154 317.667427" fill="none" id="30" stroke="#8bb658" stroke-width="0.5" /><path d="M 341.302154 29.407227 L 341.309154 34.401427 L 341.313154 39.395727 L 341.369154 44.389527 L 341.515154 49.381427 L 341.631154 54.373927 L 341.685154 59.367827 L 341.723154 64.361927 L 341.760154 69.356027 L 341.806154 74.350027 L 341.884154 79.343727 L 341.986154 84.336927 L 342.090154 89.330027 L 342.194154 94.323227 L 342.336154 99.315327 L 342.501154 104.306427 L 342.670154 109.298427 L 342.840154 114.289427 L 343.018154 119.280427 L 343.220154 124.270427 L 343.442154 129.260427 L 343.666154 134.249427 L 343.904154 139.237427 L 344.156154 144.225427 L 344.414154 149.213427 L 344.672154 154.200427 L 344.931154 159.188427 L 345.190154 164.175427 L 345.449154 169.163427 L 345.707154 174.150427 L 345.966154 179.138427 L 346.223154 184.126427 L 346.462154 189.114427 L 346.686154 194.103427 L 346.904154 199.093427 L 347.121154 204.082427 L 347.305154 209.073427 L 347.442154 214.065427 L 347.551154 219.058427 L 347.654154 224.052427 L 347.751154 229.045427 L 347.807154 234.039427 L 347.820154 239.033427 L 347.821154 244.027427 L 347.821154 249.021427 L 347.821154 254.016427 L 347.821154 259.010427 L 347.817154 264.004427 L 347.795154 268.998427 L 347.740154 273.992427 L 347.661154 278.986427 L 347.556154 283.979427 L 347.426154 288.972427 L 347.252154 293.963427 L 347.022154 298.952427 L 346.760154 303.939427 L 346.491154 308.926427 L 346.221154 313.913427 L 345.942154 318.899427 L 345.637154 323.884427 L 345.304154 328.867427 L 344.965154 333.850427 L 344.626154 338.833427 L 344.287154 343.815427 L 343.948154 348.798427 L 343.610154 353.781427 L 343.267154 358.763427 L 342.910154 363.745427 L 342.534154 368.725427 L 342.146154 373.704427 L 341.758154 378.683427 L 341.370154 383.662427 L 340.975154 388.641427 L 340.552154 393.617427 L 340.100154 398.591427 L 339.641154 403.564427 L 339.179154 408.537427 L 338.711154 413.509427 L 338.232154 418.480427 L 337.730154 423.449427 L 337.201154 428.415427 L 336.662154 433.380427 L 336.091154 438.342427 L 335.509154 443.302427 L 334.926154 448.262427 L 334.344154 453.222427 L 333.752154 458.181427 L 333.126154 463.136427 L 332.467154 468.087427 L 331.791154 473.035427 L 331.096154 477.981427 L 330.378154 482.923427 L 329.639154 487.862427 L 328.813154 492.788427 L 327.972154 497.710427 L 327.111154 502.630427 L 326.232154 507.546427 L 325.333154 512.459427 L 324.400154 517.365427 L 323.436154 522.265427 L 322.468154 527.165427 L 321.500154 532.064427 L 320.530154 536.964427 L 319.527154 541.856427 L 318.502154 546.744427 L 317.445154 551.625427 L 316.344154 556.496427 L 315.212154 561.361427 L 314.054154 566.219427 L 312.859154 571.068427 L 311.623154 575.907427 L 310.324154 580.729427 L 308.987154 585.541427" fill="none" id="31" stroke="#bbabff" stroke-width="0.5" /><path d="M 135.128154 61.344227 L 133.217154 65.921627 L 131.475154 70.565727 L 130.042154 75.311027 L 129.031154 80.159727 L 128.264154 85.060527 L 127.553154 89.969427 L 126.903154 94.887127 L 126.256154 99.805127 L 125.612154 104.723427 L 125.000154 109.646427 L 124.405154 114.570427 L 123.814154 119.495427 L 123.232154 124.421427 L 122.681154 129.351427 L 122.198154 134.288427 L 121.744154 139.227427 L 121.292154 144.167427 L 120.841154 149.107427 L 120.402154 154.048427 L 119.996154 158.992427 L 119.635154 163.939427 L 119.323154 168.889427 L 119.061154 173.843427 L 118.841154 178.798427 L 118.645154 183.755427 L 118.497154 188.713427 L 118.385154 193.672427 L 118.300154 198.632427 L 118.239154 203.592427 L 118.190154 208.552427 L 118.144154 213.512427 L 118.099154 218.472427 L 118.071154 223.433427 L 118.060154 228.393427 L 118.057154 233.353427 L 118.057154 238.314427 L 118.066154 243.274427 L 118.108154 248.234427 L 118.211154 253.194427 L 118.360154 258.152427 L 118.566154 263.108427 L 118.811154 268.062427 L 119.072154 273.016427 L 119.336154 277.969427 L 119.606154 282.922427 L 119.903154 287.874427 L 120.249154 292.822427 L 120.615154 297.769427 L 120.983154 302.716427 L 121.351154 307.662427 L 121.719154 312.609427 L 122.088154 317.556427 L 122.460154 322.502427 L 122.851154 327.447427 L 123.301154 332.387427 L 123.788154 337.323427 L 124.283154 342.259427 L 124.779154 347.195427 L 125.282154 352.129427 L 125.810154 357.062427 L 126.381154 361.989427 L 126.987154 366.912427 L 127.613154 371.833427 L 128.263154 376.751427 L 128.926154 381.667427 L 129.610154 386.579427 L 130.324154 391.488427 L 131.060154 396.394427 L 131.797154 401.299427 L 132.534154 406.204427 L 133.273154 411.109427 L 134.029154 416.012427 L 134.811154 420.910427 L 135.614154 425.805427 L 136.437154 430.697427 L 137.282154 435.585427 L 138.152154 440.468427 L 139.027154 445.351427 L 139.902154 450.234427 L 140.777154 455.116427 L 141.661154 459.997427 L 142.571154 464.873427 L 143.503154 469.745427 L 144.439154 474.617427 L 145.376154 479.488427 L 146.313154 484.359427 L 147.249154 489.230427 L 148.186154 494.101427 L 149.123154 498.972427 L 150.059154 503.844427 L 150.996154 508.715427 L 151.933154 513.586427 L 152.872154 518.457427 L 153.822154 523.325427 L 154.784154 528.191427 L 155.755154 533.056427 L 156.745154 537.916427 L 157.757154 542.772427 L 158.783154 547.626427 L 159.822154 552.476427 L 160.894154 557.319427 L 161.977154 562.160427 L 163.111154 566.989427 L 164.287154 571.808427 L 165.487154 576.621427 L 166.721154 581.425427 L 168.007154 586.216427 L 169.302154 591.004427 L 170.685154 595.768427 L 172.102154 600.522427 L 173.554154 605.265427 L 175.049154 609.994427 L 176.582154 614.712427 L 178.150154 619.418427 L 179.761154 624.109427 L 181.396154 628.793427" fill="none" id="32" stroke="#658424" stroke-width="0.5" /><path d="M 147.569154 33.446627 L 145.969154 35.917627 L 144.434154 38.429527 L 142.992154 40.995527 L 141.635154 43.607527 L 140.352154 46.256627 L 139.172154 48.953927 L 138.111154 51.700027 L 137.140154 54.479027 L 136.247154 57.283927 L 135.402154 60.104327 L 134.579154 62.930827 L 133.763154 65.759627 L 132.952154 68.589627 L 132.144154 71.420527 L 131.375154 74.262427 L 130.660154 77.117927 L 129.987154 79.984027 L 129.326154 82.853027 L 128.701154 85.729927 L 128.106154 88.613127 L 127.523154 91.499027 L 126.945154 94.385527 L 126.367154 97.272327 L 125.793154 100.160027 L 125.246154 103.052427 L 124.721154 105.949427 L 124.211154 108.849427 L 123.718154 111.751427 L 123.243154 114.657427 L 122.782154 117.564427" fill="none" id="33" stroke="#658424" stroke-width="0.5" /></svg>