<?xml version="1.0" encoding="utf-8" ?>
<svg baseProfile="full" height="378.646735" version="1.1" viewBox="0,0,519.646735,378.646735" width="519.646735" xmlns="http://www.w3.org/2000/svg" xmlns:ev="http://www.w3.org/2001/xml-events" xmlns:xlink="http://www.w3.org/1999/xlink"><defs><style type="text/css"><![CDATA[
	.background { fill: white; }
	.line { stroke: firebrick; stroke-width: .1mm; }
	.blacksquare { fill: indigo; }
	.whitesquare { fill: white; }
]]></style></defs><rect class="background" height="100%" width="100%" x="0" y="0" /><path d="M 6.099836 206.758287 L 10.071540 206.697350 L 13.865149 205.429068 L 17.742307 204.471526 L 21.513003 203.140229 L 25.251735 201.718301 L 28.990468 200.296373 L 32.729201 198.874444 L 36.467933 197.452517 L 40.206666 196.030588 L 43.945398 194.608659 L 47.684130 193.186731 L 51.422863 191.764803 L 55.137534 190.282005 L 58.837996 188.763261 L 62.538457 187.244518 L 66.238918 185.725774 L 69.939380 184.207029 L 73.639843 182.688286 L 77.340304 181.169542 L 81.040766 179.650798 L 84.741228 178.132054 L 88.441690 176.613310 L 92.142150 175.094566 L 95.842613 173.575823 L 99.559240 172.097140 L 103.277467 170.622426 L 106.995694 169.147711 L 110.713923 167.672997 L 114.432150 166.198282 L 118.150378 164.723568 L 121.868606 163.248853 L 125.586832 161.774138 L 129.305060 160.299423 L 133.030704 158.844049 L 136.781623 157.454586 L 140.532542 156.065123 L 144.283461 154.675661 L 148.034380 153.286198 L 151.785299 151.896735 L 155.536218 150.507273 L 159.287138 149.117810 L 163.038056 147.728347 L 166.788975 146.338885 L 170.539895 144.949422 L 174.290813 143.559959 L 178.041732 142.170497 L 181.792651 140.781034 L 185.543570 139.391571 L 189.294489 138.002109 L 193.045408 136.612646 L 196.796327 135.223183 L 200.547246 133.833721 L 204.298165 132.444258 L 208.049084 131.054795 L 211.800004 129.665334 L 215.550922 128.275870 L 219.301841 126.886408 L 223.052760 125.496946 L 226.803679 124.107483 L 230.554598 122.718019 L 234.305517 121.328558 L 238.056436 119.939095 L 241.807355 118.549632 L 245.562869 117.172797 L 249.329680 115.827014 L 253.096492 114.481232 L 256.863304 113.135449 L 260.630116 111.789667 L 264.396927 110.443883 L 268.163739 109.098101 L 271.930550 107.752319 L 275.697361 106.406536 L 279.464174 105.060754 L 283.254780 103.783738 L 287.047781 102.513639 L 290.840780 101.243542 L 294.633781 99.973444 L 298.426781 98.703345 L 300.200708 97.694428 L 297.341846 97.694428" fill="none" id="1" stroke="black" stroke-width="0.646735" /><path d="M 274.990095 278.053358 L 275.990696 277.023992 L 279.527094 275.154796 L 283.063491 273.285599 L 286.599889 271.416404 L 290.136287 269.547209 L 293.672684 267.678014 L 297.209082 265.808818 L 300.733901 263.918361 L 304.222719 261.961795 L 307.711538 260.005232 L 311.200356 258.048667 L 314.689175 256.092102 L 318.177994 254.135537 L 321.666811 252.178972 L 325.155631 250.222409 L 328.660863 248.295461 L 332.169240 246.374187 L 335.677616 244.452914 L 339.185993 242.531641 L 342.694370 240.610367 L 346.202748 238.689094 L 349.711125 236.767821 L 353.219502 234.846547 L 356.727879 232.925275 L 360.236256 231.004000 L 363.762153 229.115183 L 367.293350 227.236180 L 370.824547 225.357180 L 374.355745 223.478178 L 377.886942 221.599176 L 381.418138 219.720175 L 384.949336 217.841173 L 388.480534 215.962172 L 392.011730 214.083171 L 395.542928 212.204169 L 399.074125 210.325168 L 402.605322 208.446166 L 406.104444 206.509278 L 409.569806 204.511462 L 413.035168 202.513646 L 416.500529 200.515830 L 419.965891 198.518014 L 423.431253 196.520198 L 426.896614 194.522382 L 430.361976 192.524566 L 433.827337 190.526750 L 437.292699 188.528934 L 440.758060 186.531118 L 444.223423 184.533302 L 447.492723 183.894743 L 450.983277 181.941276 L 454.473830 179.987809 L 457.964383 178.034342 L 461.454938 176.080874 L 464.939653 174.117256 L 468.383239 172.082137 L 471.826826 170.047017 L 475.270412 168.011897 L 478.713999 165.976777 L 482.157585 163.941658 L 485.601172 161.906538 L 489.044758 159.871418 L 492.485176 157.831161 L 495.849394 155.667359 L 499.213612 153.503558 L 502.577830 151.339756 L 505.942048 149.175954 L 509.257744 146.942194 L 512.406997 144.489181 L 513.549501 141.271145 L 516.549262 140.409465 L 518.851745 139.912697" fill="none" id="2" stroke="black" stroke-width="0.646735" /><path d="M 264.818036 99.970898 L 260.850833 99.459716 L 256.893675 98.889966 L 257.429995 98.522238 L 261.399391 98.901651 L 265.347678 99.542769 L 269.295965 100.183886 L 273.244251 100.825004 L 277.192538 101.466121 L 281.140825 102.107240 L 285.089112 102.748356 L 289.037397 103.389475 L 292.985684 104.030592 L 296.933972 104.671710 L 300.882259 105.312827 L 304.823174 105.997389 L 308.761988 106.694345 L 312.700802 107.391303 L 316.639614 108.088259 L 320.578429 108.785216 L 324.517242 109.482172 L 328.456055 110.179129 L 332.394869 110.876085 L 336.333683 111.573042 L 340.270565 112.280293 L 344.194243 113.057951 L 348.117921 113.835609 L 352.041599 114.613267 L 355.965277 115.390924 L 359.888955 116.168582 L 363.812633 116.946241 L 367.736310 117.723900 L 371.659987 118.501558 L 375.583665 119.279216 L 379.507343 120.056874 L 383.431022 120.834531 L 387.354700 121.612189 L 391.278378 122.389848 L 395.202055 123.167506 L 399.125733 123.945164 L 403.049411 124.722822 L 406.973089 125.500479 L 410.892042 126.301454 L 414.808938 127.112583 L 418.725833 127.923714 L 422.642728 128.734843 L 426.559623 129.545974 L 430.476517 130.357103 L 434.388319 131.192439 L 438.299885 132.028891 L 442.211451 132.865344 L 446.123017 133.701797 L 450.034582 134.538249 L 453.946147 135.374701 L 457.857714 136.211154 L 461.769280 137.047607 L 465.680846 137.884059 L 469.588767 138.737001 L 473.488445 139.627229 L 477.388124 140.517457 L 481.287802 141.407686 L 485.187480 142.297914 L 489.087160 143.188142 L 492.986838 144.078372 L 496.886517 144.968599 L 500.786196 145.858828 L 502.389075 146.224737" fill="none" id="3" stroke="black" stroke-width="0.646735" /><path d="M 21.357916 203.136628 L 25.291407 203.647107 L 29.144440 204.718674 L 32.964006 205.906498 L 36.783571 207.094321 L 40.603136 208.282144 L 44.422701 209.469968 L 48.242265 210.657792 L 52.061830 211.845615 L 55.881395 213.033439 L 59.700960 214.221262 L 63.520524 215.409087 L 67.340089 216.596910 L 71.159654 217.784733 L 74.979219 218.972557 L 78.798783 220.160381 L 82.618347 221.348204 L 86.437913 222.536028 L 90.289258 223.613675 L 94.154674 224.642539 L 98.020089 225.671402 L 101.885506 226.700265 L 105.750922 227.729126 L 109.616338 228.757989 L 113.481753 229.786852 L 117.347170 230.815715 L 121.212586 231.844578 L 125.078001 232.873441 L 128.354852 234.609674 L 132.198206 235.718112 L 136.041559 236.826549 L 139.884913 237.934987 L 143.728266 239.043425 L 147.571620 240.151863 L 151.414974 241.260300 L 155.258327 242.368738 L 159.101680 243.477176 L 162.945034 244.585613 L 166.788387 245.694052 L 170.631741 246.802489 L 174.475094 247.910926 L 178.318447 249.019364 L 182.161801 250.127803 L 186.005155 251.236239 L 189.848508 252.344677 L 193.691861 253.453115 L 197.535215 254.561552 L 201.378569 255.669990 L 205.221922 256.778429 L 209.065275 257.886866 L 212.908629 258.995304 L 216.751982 260.103742 L 220.595337 261.212179 L 224.438689 262.320617 L 228.282043 263.429055 L 232.125396 264.537493 L 235.884631 265.739000 L 239.264538 267.369121 L 243.103140 268.493900 L 246.941744 269.618681 L 250.780346 270.743461 L 254.618948 271.868241 L 258.457552 272.993020 L 262.296155 274.117799 L 266.134757 275.242580 L 269.973360 276.367360 L 273.811961 277.492140 L 277.650565 278.616919 L 281.489168 279.741700 L 280.922056 280.329828 L 280.745336 280.329828" fill="none" id="4" stroke="black" stroke-width="0.646735" /><path d="M 278.336165 282.192408 L 278.336165 278.192408 L 277.507340 276.422813 L 277.124348 280.391657 L 277.107495 284.391621 L 277.090642 288.391586 L 277.073788 292.391549 L 277.056934 296.391515 L 277.040081 300.391479 L 277.023227 304.391444 L 277.006372 308.391408 L 277.023472 312.391220 L 277.076265 316.390872 L 277.129056 320.390524 L 277.345425 324.384499 L 277.570019 328.378188 L 277.794613 332.371878 L 278.019206 336.365567 L 278.243802 340.359258 L 278.468396 344.352947 L 278.470006 348.352902 L 278.470006 352.352902 L 278.470006 352.659658" fill="none" id="5" stroke="black" stroke-width="0.646735" /><path d="M 509.215066 143.016977 L 509.040831 147.013180 L 508.866596 151.009384 L 508.813536 155.008229 L 508.813536 159.008229 L 508.813536 163.008229 L 508.813536 167.008229 L 508.813536 171.008229 L 508.813536 175.008229 L 508.813536 179.008229 L 508.813536 183.008229 L 508.813536 187.008229 L 508.813536 191.008229 L 508.813536 195.008229 L 508.813536 199.008229 L 508.813536 203.008229 L 508.813536 207.008229 L 508.813536 211.008229 L 508.813536 215.008229 L 508.438663 218.885714 L 508.010476 218.968477" fill="none" id="6" stroke="black" stroke-width="0.646735" /><path d="M 24.837836 197.755867 L 24.837836 201.755867 L 24.837836 205.755867 L 24.837836 209.755867 L 24.837836 213.755867 L 25.129023 217.742743 L 25.488861 221.726525 L 25.848699 225.710307 L 26.208537 229.694088 L 26.568375 233.677870 L 26.928213 237.661651 L 27.288051 241.645433 L 27.647890 245.629215 L 28.007728 249.612996 L 28.328240 253.599947 L 28.611030 257.589940 L 28.817456 261.584155 L 28.976526 265.580991 L 29.135596 269.577827 L 29.453968 273.500407 L 29.656175 273.500407" fill="none" id="7" stroke="black" stroke-width="0.646735" /><path d="M 264.416516 378.218268 L 267.906776 376.264275 L 271.299552 374.146615 L 274.680024 372.008296 L 278.060496 369.869976 L 281.460841 367.763906 L 284.890535 365.705461 L 288.320231 363.647017 L 291.727113 361.551610 L 295.104708 359.408749 L 298.482302 357.265888 L 301.859896 355.123027 L 305.237492 352.980165 L 308.615087 350.837305 L 311.992682 348.694444 L 315.370275 346.551582 L 318.747871 344.408722 L 322.125466 342.265861 L 325.503061 340.122999 L 328.880656 337.980139 L 332.258250 335.837278 L 335.635845 333.694417 L 339.013440 331.551555 L 342.391034 329.408694 L 345.768630 327.265833 L 349.146224 325.122972 L 352.523819 322.980111 L 355.912064 320.854474 L 359.338304 318.790286 L 362.764545 316.726097 L 366.190786 314.661908 L 369.617027 312.597720 L 373.043268 310.533531 L 376.469508 308.469343 L 379.895749 306.405154 L 383.321990 304.340966 L 386.748231 302.276777 L 390.174471 300.212588 L 393.600712 298.148400 L 397.026952 296.084211 L 400.453193 294.020023 L 403.879434 291.955834 L 407.305675 289.891646 L 410.731916 287.827457 L 414.158156 285.763268 L 417.584397 283.699080 L 421.010638 281.634891 L 424.436879 279.570703 L 427.863119 277.506514 L 431.289360 275.442325 L 434.715600 273.378137 L 438.141841 271.313948 L 441.568082 269.249760 L 444.994323 267.185571 L 448.420564 265.121383 L 451.846804 263.057194 L 455.273045 260.993005 L 458.699286 258.928817 L 462.125527 256.864628 L 465.551767 254.800439 L 468.978007 252.736250 L 472.404248 250.672062 L 475.830489 248.607873 L 479.256730 246.543684 L 482.682971 244.479496 L 486.109212 242.415307 L 489.535452 240.351119 L 492.961693 238.286930 L 496.387934 236.222741 L 499.814175 234.158553 L 503.240415 232.094364 L 506.607109 229.937173 L 509.867420 227.626343 L 512.669372 224.795303 L 512.828816 222.900567" fill="none" id="8" stroke="black" stroke-width="0.646735" /><path d="M 42.103556 283.227168 L 45.806589 284.739631 L 49.514410 286.239677 L 53.274194 287.604970 L 57.033979 288.970261 L 60.823406 290.249819 L 64.623530 291.498444 L 68.423653 292.747068 L 72.248041 293.919019 L 76.074619 295.084050 L 79.901198 296.249082 L 83.727777 297.414113 L 87.554355 298.579144 L 91.380933 299.744175 L 95.207512 300.909206 L 99.033765 302.075265 L 102.834030 303.323456 L 106.634296 304.571647 L 110.434562 305.819839 L 114.234828 307.068030 L 118.035093 308.316221 L 121.832881 309.571912 L 125.629176 310.832129 L 129.425471 312.092344 L 133.221767 313.352560 L 137.018062 314.612775 L 140.814357 315.872991 L 144.600286 317.163381 L 148.369548 318.502284 L 152.138810 319.841186 L 155.908074 321.180090 L 159.677335 322.518993 L 163.446597 323.857896 L 167.215860 325.196798 L 170.973469 326.567968 L 174.728421 327.946495 L 178.483373 329.325020 L 182.238326 330.703548 L 185.993277 332.082075 L 189.748229 333.460601 L 193.490156 334.873479 L 197.215094 336.331161 L 200.940033 337.788843 L 204.664970 339.246525 L 208.389908 340.704206 L 212.114846 342.161889 L 215.837009 343.626630 L 219.557420 345.095825 L 223.277832 346.565022 L 226.998244 348.034220 L 230.718654 349.503416 L 234.419238 351.021287 L 238.107277 352.569954 L 241.795315 354.118623 L 245.483354 355.667290 L 249.171393 357.215958 L 252.859431 358.764625 L 256.547471 360.313293 L 260.259444 361.802061 L 263.999162 363.221396 L 267.738878 364.640731 L 271.478597 366.060066 L 273.250135 366.732417" fill="none" id="9" stroke="black" stroke-width="0.646735" /><path d="M 21.224076 202.929667 L 18.684804 203.641861 L 22.591880 202.822297 L 26.395679 201.584918 L 30.199479 200.347539 L 34.003280 199.110160 L 37.807079 197.872782 L 41.610879 196.635402 L 45.414679 195.398023 L 49.236339 194.217297 L 53.062056 193.049439 L 56.887773 191.881582 L 60.713490 190.713725 L 64.539207 189.545868 L 68.364924 188.378012 L 72.190641 187.210155 L 76.016357 186.042298 L 79.850818 184.903684 L 83.689715 183.779910 L 87.528611 182.656137 L 91.367509 181.532362 L 95.206406 180.408588 L 99.045304 179.284814 L 102.884201 178.161040 L 106.723099 177.037266 L 110.561996 175.913492 L 114.400892 174.789718 L 118.239790 173.665944 L 122.090455 172.583283 L 125.942571 171.505697 L 129.794689 170.428111 L 133.646806 169.350527 L 137.498924 168.272940 L 141.351041 167.195355 L 145.203159 166.117769 L 149.055276 165.040183 L 152.907394 163.962598 L 156.759512 162.885012 L 160.611629 161.807426 L 164.463746 160.729841 L 168.315864 159.652255 L 172.167981 158.574670 L 176.020099 157.497084 L 179.872216 156.419499 L 183.724334 155.341913 L 187.576451 154.264327 L 191.428569 153.186742 L 195.280687 152.109156 L 199.132804 151.031570 L 202.984921 149.953985 L 206.838397 148.881346 L 210.700806 147.841246 L 214.563212 146.801147 L 218.425620 145.761048 L 222.288028 144.720948 L 226.150435 143.680849 L 230.012844 142.640750 L 233.875251 141.600651 L 237.737659 140.560552 L 241.600066 139.520452 L 245.382906 138.224193 L 247.749139 136.704937 L 245.812355 136.704937" fill="none" id="10" stroke="black" stroke-width="0.646735" /><path d="M 242.466285 141.154407 L 238.563390 142.030428 L 241.728415 140.533893 L 245.369385 138.877592 L 249.010357 137.221291 L 252.651327 135.564990 L 256.292298 133.908689 L 259.933268 132.252388 L 263.574239 130.596087 L 267.215210 128.939786 L 270.856180 127.283485 L 274.497151 125.627184 L 278.138122 123.970883 L 281.779091 122.314583 L 285.426070 120.671744 L 289.090630 119.068311 L 292.755191 117.464878 L 296.419751 115.861445 L 300.084311 114.258012 L 303.748872 112.654578 L 307.413432 111.051146 L 311.077991 109.447713 L 314.742553 107.844279 L 318.407113 106.240847 L 322.071674 104.637414 L 325.736234 103.033980 L 329.400794 101.430548 L 333.065355 99.827115 L 336.729915 98.223681 L 340.394475 96.620249 L 344.059035 95.016817 L 347.725068 93.416796 L 351.406250 91.851899 L 355.087431 90.287002 L 358.768613 88.722105 L 362.449794 87.157209 L 366.130976 85.592312 L 369.812158 84.027415 L 373.493338 82.462519 L 377.174521 80.897621 L 380.855703 79.332724 L 384.536884 77.767828 L 388.218066 76.202931 L 391.899247 74.638035 L 395.580429 73.073138 L 399.261611 71.508240 L 402.942791 69.943343 L 406.623974 68.378447 L 410.305155 66.813551 L 413.986336 65.248654 L 417.667519 63.683757 L 421.348700 62.118860 L 425.029882 60.553963 L 428.711063 58.989066 L 432.392245 57.424170 L 436.073427 55.859273 L 439.754608 54.294376 L 443.435789 52.729479 L 447.096650 51.117774 L 450.753571 49.496993 L 454.410492 47.876212 L 458.067411 46.255430 L 461.724333 44.634649 L 465.381254 43.013868 L 469.038174 41.393087 L 472.695095 39.772306 L 476.331495 38.107337 L 479.929181 36.359010 L 483.526868 34.610682 L 487.012351 32.653172 L 490.405901 30.550847 L 492.960015 27.573417 L 493.020076 26.606307" fill="none" id="11" stroke="black" stroke-width="0.646735" /><path d="M 10.382805 170.748587 L 9.454862 171.377492 L 13.139197 169.838163 L 16.813605 168.257425 L 20.488011 166.676686 L 24.162419 165.095948 L 27.862378 163.577806 L 31.593326 162.135576 L 35.324275 160.693347 L 39.055223 159.251118 L 42.786171 157.808888 L 46.517119 156.366659 L 50.263232 154.964968 L 54.024700 153.604320 L 57.786167 152.243671 L 61.547635 150.883023 L 65.324303 149.565647 L 69.110351 148.274975 L 72.896400 146.984302 L 76.682449 145.693630 L 80.472689 144.415802 L 84.291296 143.224903 L 88.109903 142.034003 L 91.928510 140.843104 L 95.747117 139.652205 L 99.565724 138.461305 L 103.384331 137.270406 L 107.202937 136.079507 L 111.021544 134.888607 L 114.840151 133.697708 L 118.658758 132.506810 L 122.499403 131.389731 L 126.345943 130.292403 L 130.192482 129.195074 L 134.039022 128.097746 L 137.885562 127.000419 L 141.732102 125.903090 L 145.578643 124.805762 L 149.425182 123.708433 L 153.271722 122.611105 L 157.118262 121.513777 L 160.964802 120.416448 L 164.811342 119.319119 L 168.657882 118.221790 L 172.504422 117.124463 L 176.350962 116.027135 L 180.197502 114.929806 L 184.033426 113.796033 L 187.867514 112.655956 L 191.701600 111.515879 L 195.535688 110.375803 L 199.350259 109.172584 L 203.158941 107.950317 L 206.967624 106.728051 L 210.776306 105.505784 L 214.584989 104.283517 L 218.379623 103.021496 L 222.110570 101.579265 L 225.766242 99.961131 L 226.405146 99.660468" fill="none" id="12" stroke="black" stroke-width="0.646735" /><path d="M 228.680476 102.868228 L 232.403316 101.712248 L 236.048164 100.064497 L 239.693012 98.416746 L 243.337860 96.768995 L 246.982709 95.121243 L 250.627556 93.473492 L 254.272404 91.825741 L 257.917252 90.177990 L 261.566555 88.540481 L 265.256795 86.997062 L 268.947034 85.453645 L 272.637271 83.910228 L 276.327511 82.366810 L 280.022499 80.834820 L 283.719789 79.308374 L 287.417081 77.781929 L 291.114373 76.255483 L 294.811665 74.729039 L 298.508957 73.202594 L 302.206248 71.676148 L 305.903540 70.149704 L 309.600831 68.623258 L 313.298123 67.096812 L 316.995879 65.571510 L 320.708434 64.082572 L 324.420990 62.593636 L 328.133545 61.104699 L 331.846101 59.615763 L 335.558656 58.126826 L 339.271997 56.639854 L 342.987548 55.158409 L 346.703100 53.676964 L 350.418651 52.195520 L 354.134202 50.714075 L 357.849754 49.232630 L 361.576849 47.780775 L 365.313991 46.354673 L 369.051132 44.928571 L 372.788275 43.502469 L 376.525418 42.076367 L 380.262561 40.650266 L 384.027413 39.299141 L 387.793796 37.952160 L 391.560179 36.605179 L 395.326562 35.258198 L 399.092945 33.911217 L 402.838260 32.507221 L 406.575537 31.081473 L 410.312815 29.655724 L 414.050092 28.229973 L 417.787369 26.804225 L 421.524645 25.378476 L 425.261922 23.952725 L 428.999199 22.526976 L 432.708183 21.030917 L 436.391325 19.470641 L 440.074469 17.910366 L 443.653956 16.127602 L 447.187131 14.256177 L 450.453658 11.978860 L 452.733385 10.464028" fill="none" id="13" stroke="black" stroke-width="0.646735" /><path d="M 3.824505 180.578817 L 0.323367 180.775191 L 4.229967 180.110320 L 8.017758 178.826217 L 11.774757 177.453279 L 15.531755 176.080340 L 19.288753 174.707403 L 23.045752 173.334463 L 26.802751 171.961525 L 30.559750 170.588586 L 34.316750 169.215648 L 38.073748 167.842709 L 41.830747 166.469771 L 45.587746 165.096832 L 49.344745 163.723895 L 53.101743 162.350955 L 56.862776 160.989257 L 60.635410 159.659883 L 64.408043 158.330508 L 68.180677 157.001134 L 71.953311 155.671760 L 75.726681 154.344521 L 79.516503 153.064974 L 83.306326 151.785426 L 87.096150 150.505879 L 90.885973 149.226332 L 94.675796 147.946784 L 98.475109 146.696124 L 102.285433 145.478987 L 106.095759 144.261850 L 109.906084 143.044714 L 113.716409 141.827575 L 117.526734 140.610438 L 121.351687 139.440799 L 125.186527 138.303256 L 129.021366 137.165712 L 132.856206 136.028169 L 136.691046 134.890625 L 140.525885 133.753082 L 144.360726 132.615538 L 148.195564 131.477995 L 152.030405 130.340452 L 155.865244 129.202908 L 159.700083 128.065364 L 163.534523 126.926494 L 167.360333 125.758941 L 171.186143 124.591389 L 175.011953 123.423837 L 178.837763 122.256285 L 182.663573 121.088733 L 186.489384 119.921181 L 190.315193 118.753628 L 194.141003 117.586076 L 197.966814 116.418524 L 201.778978 115.207467 L 205.586312 113.981003 L 209.393645 112.754540 L 213.200978 111.528075 L 217.008312 110.301613 L 220.815645 109.075148 L 224.589686 107.750591 L 228.357034 106.406311 L 232.030407 104.823481 L 235.500932 102.850959 L 236.844885 101.316088" fill="none" id="14" stroke="black" stroke-width="0.646735" /><path d="M 18.011845 170.127727 L 14.752264 172.446160 L 18.391634 171.572047 L 22.069194 170.001987 L 25.726299 168.381622 L 29.383405 166.761258 L 33.040511 165.140895 L 36.697616 163.520530 L 40.354721 161.900165 L 44.011827 160.279801 L 47.668932 158.659437 L 51.326038 157.039073 L 54.983143 155.418708 L 58.640248 153.798344 L 62.297353 152.177979 L 65.960676 150.571933 L 69.641372 149.005893 L 73.322068 147.439854 L 77.002764 145.873816 L 80.683459 144.307777 L 84.364156 142.741738 L 88.057063 141.204775 L 91.752203 139.673130 L 95.447344 138.141485 L 99.142483 136.609840 L 102.837625 135.078195 L 106.532764 133.546550 L 110.246952 132.061860 L 113.964966 130.586608 L 117.682980 129.111357 L 121.400995 127.636105 L 125.119010 126.160854 L 128.837023 124.685602 L 132.555038 123.210350 L 136.273054 121.735099 L 139.991067 120.259847 L 143.709082 118.784594 L 147.427096 117.309342 L 151.145111 115.834091 L 154.863125 114.358840 L 158.581140 112.883588 L 162.299154 111.408336 L 166.017169 109.933085 L 169.735185 108.457833 L 173.453198 106.982580 L 177.171213 105.507328 L 180.889227 104.032077 L 184.600613 102.540372 L 188.302900 101.026083 L 192.005189 99.511796 L 195.707475 97.997507 L 199.409763 96.483221 L 203.112050 94.968933 L 206.814337 93.454645 L 210.516625 91.940357 L 214.218912 90.426069 L 217.921200 88.911782 L 221.623487 87.397494 L 225.325775 85.883206 L 229.028062 84.368918 L 232.730350 82.854630 L 236.432637 81.340343 L 240.134925 79.826054 L 243.837212 78.311767 L 247.539501 76.797478 L 251.257460 75.322092 L 254.975475 73.846841 L 258.693489 72.371590 L 262.411505 70.896338 L 266.129520 69.421087 L 269.847534 67.945836 L 273.553718 66.442408 L 277.210373 64.821028 L 280.867029 63.199650 L 281.013026 62.202108" fill="none" id="15" stroke="black" stroke-width="0.646735" /><path d="M 261.471966 73.274048 L 263.793257 72.611143 L 267.597170 71.374111 L 271.401082 70.137079 L 275.204994 68.900047 L 279.008907 67.663015 L 282.812820 66.425983 L 286.616733 65.188951 L 290.420645 63.951919 L 294.224558 62.714887 L 298.028471 61.477855 L 301.832382 60.240823 L 305.636296 59.003790 L 309.440209 57.766758 L 313.244121 56.529726 L 317.048034 55.292694 L 320.851946 54.055662 L 324.655859 52.818630 L 328.459772 51.581598 L 332.263685 50.344566 L 336.067597 49.107533 L 339.871510 47.870501 L 343.675423 46.633469 L 347.479334 45.396437 L 351.303616 44.223988 L 355.128953 43.054886 L 358.954290 41.885784 L 362.779626 40.716681 L 366.604962 39.547579 L 370.430298 38.378477 L 374.255636 37.209375 L 378.080973 36.040273 L 381.906309 34.871171 L 385.731646 33.702069 L 389.556983 32.532967 L 393.382318 31.363864 L 397.207656 30.194761 L 401.032992 29.025659 L 404.858329 27.856558 L 408.683666 26.687455 L 412.509002 25.518353 L 416.334339 24.349252 L 420.159674 23.180149 L 423.985012 22.011046 L 427.809107 20.837999 L 431.614600 19.605842 L 435.420096 18.373683 L 439.225590 17.141527 L 443.031085 15.909370 L 446.800007 14.569777 L 450.566908 13.224242 L 454.333808 11.878707 L 458.100707 10.533171 L 461.867608 9.187636 L 465.611988 7.783454 L 469.311395 6.262141 L 472.957179 4.619562 L 476.506350 2.780554 L 479.986012 0.807751 L 480.840375 0.323367" fill="none" id="16" stroke="black" stroke-width="0.646735" /><path d="M 39.828226 210.483427 L 40.031658 214.478251 L 40.235090 218.473074 L 40.438522 222.467898 L 40.641954 226.462721 L 40.845386 230.457545 L 41.048818 234.452368 L 41.198901 238.449061 L 41.275538 242.448327 L 41.352174 246.447593 L 41.428811 250.446858 L 41.434346 254.446805 L 41.434346 258.446806 L 41.434346 262.446806 L 41.434346 266.446806 L 42.508172 269.775268 L 43.308146 267.912698" fill="none" id="17" stroke="black" stroke-width="0.646735" /><path d="M 38.355956 209.448667 L 37.954426 213.153360 L 38.100723 217.139367 L 38.858942 221.066848 L 39.381256 225.023061 L 39.587933 229.017719 L 39.794609 233.012375 L 39.828226 237.011506 L 39.828226 241.011506 L 39.828226 245.011506 L 39.828226 249.011506 L 39.828226 253.011506 L 39.828226 257.011506 L 39.828226 261.011506 L 40.413032 264.959394 L 41.490946 268.808868 L 42.237406 270.603078" fill="none" id="18" stroke="black" stroke-width="0.646735" /><path d="M 272.714765 365.076797 L 275.203605 362.212555 L 278.351762 359.749583 L 281.560239 357.360927 L 284.768715 354.972271 L 288.023732 352.650256 L 291.371105 350.460486 L 294.718478 348.270714 L 298.065851 346.080943 L 301.413224 343.891174 L 304.765942 341.709739 L 308.152310 339.580770 L 311.538680 337.451800 L 314.925048 335.322832 L 318.335866 333.233701 L 321.767477 331.178452 L 325.199087 329.123204 L 328.630697 327.067955 L 332.062308 325.012706 L 335.493919 322.957457 L 338.925529 320.902208 L 342.357140 318.846958 L 345.788750 316.791709 L 349.220361 314.736460 L 352.651972 312.681211 L 356.083582 310.625962 L 359.515193 308.570713 L 362.946802 306.515463 L 366.378414 304.460214 L 369.810023 302.404965 L 373.241635 300.349716 L 376.673245 298.294466 L 380.104856 296.239217 L 383.536467 294.183968 L 386.968076 292.128718 L 390.399688 290.073470 L 393.831298 288.018221 L 397.262909 285.962972 L 400.694519 283.907723 L 404.126129 281.852474 L 407.557740 279.797225 L 410.989351 277.741975 L 414.420961 275.686726 L 417.852572 273.631477 L 421.284182 271.576228 L 424.715793 269.520979 L 428.147403 267.465730 L 431.579014 265.410480 L 435.010625 263.355231 L 438.442235 261.299982 L 441.877242 259.250460 L 445.326755 257.225405 L 448.776271 255.200348 L 452.225785 253.175293 L 455.675299 251.150238 L 459.124814 249.125182 L 462.574329 247.100126 L 466.023843 245.075071 L 469.473358 243.050016 L 472.922872 241.024960 L 476.390721 239.031528 L 479.862093 237.044174 L 483.333464 235.056821 L 486.804838 233.069468 L 490.276209 231.082114 L 493.747583 229.094761 L 497.137683 226.973695 L 500.500243 224.807317 L 503.862803 222.640940 L 505.863593 219.589327 L 505.601306 219.589327" fill="none" id="19" stroke="black" stroke-width="0.646735" /><path d="M 502.656766 156.261927 L 502.656766 160.261927 L 502.656766 164.261927 L 502.656766 168.261927 L 502.528775 172.259341 L 502.347486 176.254919 L 502.040023 180.243084 L 501.732561 184.231250 L 501.425098 188.219416 L 501.138638 192.208945 L 500.927752 196.203382 L 500.716868 200.197820 L 500.505982 204.192257 L 500.328063 208.188101 L 500.197698 212.185976 L 500.067334 216.183852 L 499.686242 220.065017 L 498.578032 216.778005 L 498.507635 215.036377" fill="none" id="20" stroke="black" stroke-width="0.646735" /><path d="M 499.444536 157.296687 L 498.373796 158.367162 L 498.373796 162.367162 L 498.373796 166.367162 L 498.373796 170.367162 L 498.373796 174.367162 L 498.373796 178.367162 L 498.431646 182.366103 L 498.577978 186.363427 L 498.724308 190.360748 L 498.870639 194.358071 L 499.016970 198.355393 L 499.163300 202.352716 L 499.176846 206.352468 L 499.176846 210.352468 L 499.176846 214.352468 L 498.507635 216.588527" fill="none" id="21" stroke="black" stroke-width="0.646735" /><path d="M 304.435516 264.704938 L 306.795464 263.344992 L 310.251038 261.332126 L 313.677510 259.268320 L 317.103982 257.204515 L 320.530453 255.140708 L 323.956925 253.076903 L 327.383396 251.013098 L 330.809867 248.949292 L 334.304067 247.002533 L 337.800863 245.060263 L 341.297660 243.117992 L 344.795480 241.177625 L 348.341881 239.327479 L 351.888283 237.477333 L 355.434685 235.627188 L 358.981086 233.777042 L 362.535435 231.942347 L 366.102830 230.133012 L 369.670225 228.323676 L 373.237619 226.514342 L 376.805014 224.705006 L 380.372409 222.895671 L 383.939804 221.086336 L 387.507199 219.277001 L 391.074593 217.467666 L 394.641989 215.658332 L 398.209384 213.848996 L 401.709333 211.913742 L 405.192251 209.946694 L 408.675169 207.979645 L 412.158087 206.012597 L 415.641006 204.045547 L 419.123923 202.078499 L 422.606842 200.111450 L 426.089760 198.144401 L 429.572677 196.177352 L 433.055597 194.210304 L 436.538515 192.243255 L 440.021433 190.276207 L 443.504351 188.309157 L 446.987269 186.342109 L 450.470188 184.375060 L 453.820739 183.412334 L 457.278394 181.401210 L 460.736050 179.390086 L 464.193705 177.378963 L 467.651360 175.367838 L 471.109015 173.356713 L 474.566671 171.345589 L 478.024326 169.334465 L 481.461621 167.291606 L 484.731005 164.987017 L 485.658726 162.884397" fill="none" id="22" stroke="black" stroke-width="0.646735" /><path d="M 52.543296 207.482617 L 56.396825 208.555141 L 60.250355 209.627666 L 64.103885 210.700190 L 67.930637 211.861340 L 71.733329 213.102115 L 75.536023 214.342890 L 79.338717 215.583665 L 83.141410 216.824440 L 86.944103 218.065215 L 90.746797 219.305990 L 94.549491 220.546765 L 98.352184 221.787540 L 102.154877 223.028315 L 105.957571 224.269090 L 109.760264 225.509865 L 113.562958 226.750641 L 117.381898 227.938806 L 121.222066 229.058226 L 125.062235 230.177646 L 128.902404 231.297066 L 132.745167 232.407366 L 136.599637 233.476510 L 140.454105 234.545655 L 144.308574 235.614799 L 148.163043 236.683943 L 152.027538 237.715838 L 155.897859 238.726095 L 159.768180 239.736352 L 163.638500 240.746609 L 167.508821 241.756865 L 171.379142 242.767122 L 175.249462 243.777379 L 179.119782 244.787636 L 182.990103 245.797893 L 186.860423 246.808149 L 190.730744 247.818406 L 194.601065 248.828663 L 198.471385 249.838921 L 202.338974 250.859386 L 206.196574 251.917174 L 210.054175 252.974962 L 213.911777 254.032750 L 217.769377 255.090538 L 221.626978 256.148326 L 225.484579 257.206115 L 229.339058 258.274924 L 233.178462 259.396966 L 237.017866 260.519007 L 240.857270 261.641049 L 244.696675 262.763090 L 248.536079 263.885131 L 252.375482 265.007173 L 256.214888 266.129213 L 260.054292 267.251255 L 263.893696 268.373296 L 267.722797 269.519378 L 269.234856 270.396118" fill="none" id="23" stroke="black" stroke-width="0.646735" /><path d="M 61.243086 276.708168 L 62.814356 276.214968 L 66.707221 276.990653 L 70.519557 278.199976 L 74.292645 279.528060 L 78.065733 280.856144 L 81.838820 282.184227 L 85.611908 283.512311 L 89.352907 284.927623 L 93.087103 286.361420 L 96.821300 287.795218 L 100.555497 289.229015 L 104.289693 290.662813 L 108.023890 292.096609 L 111.758087 293.530408 L 115.492283 294.964204 L 119.226479 296.398003 L 122.960677 297.831800 L 126.693576 299.268944 L 130.418770 300.725970 L 134.143965 302.182996 L 137.869159 303.640022 L 141.594354 305.097048 L 145.319549 306.554074 L 149.044743 308.011100 L 152.769938 309.468126 L 156.495133 310.925152 L 160.220327 312.382179 L 163.945522 313.839204 L 167.670717 315.296231 L 171.395911 316.753257 L 175.121106 318.210283 L 178.846301 319.667308 L 182.571495 321.124335 L 186.315314 322.532760 L 190.060195 323.938417 L 193.805076 325.344073 L 197.549956 326.749729 L 201.294837 328.155385 L 205.039718 329.561040 L 208.784598 330.966697 L 212.529479 332.372353 L 216.274361 333.778008 L 220.020154 335.181199 L 223.776210 336.556716 L 227.532265 337.932233 L 231.288321 339.307750 L 235.045008 340.681476 L 238.833442 341.965131 L 242.621875 343.248785 L 246.410309 344.532441 L 250.198743 345.816096 L 253.987176 347.099751 L 257.792098 348.330744 L 261.636199 349.436584 L 265.422053 349.950004 L 261.586137 348.816095 L 260.936596 348.624088" fill="none" id="24" stroke="black" stroke-width="0.646735" /><path d="M 66.061425 283.848018 L 68.483350 283.024659 L 72.260042 284.342456 L 76.036736 285.660254 L 79.813429 286.978051 L 83.590122 288.295850 L 87.366815 289.613648 L 91.143507 290.931445 L 94.920200 292.249243 L 98.696893 293.567041 L 102.473585 294.884839 L 106.250279 296.202637 L 110.026972 297.520435 L 113.803664 298.838233 L 117.620478 300.034796 L 121.437717 301.230072 L 125.254956 302.425349 L 129.072194 303.620626 L 132.889433 304.815901 L 136.706672 306.011179 L 140.523911 307.206456 L 144.341150 308.401732 L 148.158389 309.597009 L 151.980323 310.776759 L 155.820245 311.897026 L 159.660168 313.017293 L 163.500090 314.137562 L 167.340012 315.257829 L 171.179933 316.378097 L 175.010379 317.530108 L 178.836051 318.698113 L 182.661722 319.866119 L 186.487394 321.034124 L 190.313066 322.202130 L 194.136003 323.378883 L 197.945798 324.597676 L 201.755595 325.816470 L 205.565389 327.035263 L 209.375185 328.254056 L 213.182941 329.479006 L 216.966658 330.776498 L 220.750375 332.073990 L 224.534092 333.371482 L 228.317809 334.668973 L 232.071555 336.049524 L 235.811956 337.467058 L 239.552357 338.884592 L 243.291745 340.304731 L 247.008086 341.784195 L 250.724426 343.263659 L 254.440766 344.743123 L 258.157107 346.222587 L 261.883675 347.675059 L 265.647345 349.029604 L 268.833326 350.176238" fill="none" id="25" stroke="black" stroke-width="0.646735" /><path d="M 243.804715 142.189167 L 246.980353 139.866839 L 250.540623 138.043523 L 254.100893 136.220207 L 257.661163 134.396892 L 261.221432 132.573577 L 264.781702 130.750260 L 268.362662 128.968626 L 271.967572 127.235241 L 275.572482 125.501855 L 279.188966 123.793051 L 282.821503 122.118331 L 286.454039 120.443613 L 290.086574 118.768894 L 293.719110 117.094175 L 297.351646 115.419457 L 300.984182 113.744737 L 304.616717 112.070019 L 308.257858 110.414299 L 311.912647 108.788719 L 315.567438 107.163139 L 319.222228 105.537559 L 322.877018 103.911979 L 326.531808 102.286398 L 330.186597 100.660818 L 333.841386 99.035238 L 337.496176 97.409656 L 341.150967 95.784076 L 344.805757 94.158496 L 348.460546 92.532916 L 352.115336 90.907336 L 355.770126 89.281755 L 359.424915 87.656175 L 363.087071 86.047339 L 366.755129 84.451925 L 370.423188 82.856510 L 374.091247 81.261097 L 377.759305 79.665683 L 381.427364 78.070270 L 385.095423 76.474856 L 388.763481 74.879441 L 392.431540 73.284028 L 396.099599 71.688614 L 399.767657 70.093199 L 403.435716 68.497786 L 407.103775 66.902372 L 410.771833 65.306958 L 414.439892 63.711544 L 418.107951 62.116130 L 421.776009 60.520717 L 425.444068 58.925303 L 429.112127 57.329889 L 432.780186 55.734475 L 436.448243 54.139061 L 440.116303 52.543647 L 443.784362 50.948233 L 447.452420 49.352819 L 451.120478 47.757404 L 454.769925 46.122283 L 458.342726 44.323646 L 461.617962 42.073141 L 464.511556 39.644308" fill="none" id="26" stroke="black" stroke-width="0.646735" /><path d="M 42.638926 195.996767 L 38.664034 196.400265 L 36.315177 197.238477 L 40.295925 196.876986 L 44.171575 195.887371 L 48.047225 194.897754 L 51.922875 193.908139 L 55.782731 192.862606 L 59.603422 191.678409 L 63.424112 190.494214 L 67.244803 189.310016 L 71.065494 188.125819 L 74.886184 186.941622 L 78.706874 185.757425 L 82.527566 184.573228 L 86.348257 183.389031 L 90.168947 182.204834 L 93.989638 181.020637 L 97.810328 179.836440 L 101.631020 178.652243 L 105.451710 177.468046 L 109.272401 176.283850 L 113.093091 175.099652 L 116.925778 173.955148 L 120.762821 172.825060 L 124.599863 171.694971 L 128.436907 170.564883 L 132.273950 169.434794 L 136.110993 168.304706 L 139.948037 167.174617 L 143.785079 166.044529 L 147.622122 164.914440 L 151.459165 163.784352 L 155.296208 162.654263 L 159.133252 161.524174 L 162.970295 160.394086 L 166.807338 159.263997 L 170.644381 158.133909 L 174.481425 157.003820 L 178.318467 155.873732 L 182.146693 154.714174 L 185.973778 153.550813 L 189.800865 152.387452 L 193.627951 151.224091 L 197.455039 150.060730 L 201.282124 148.897369 L 205.109211 147.734008 L 208.936297 146.570647 L 212.763385 145.407286 L 216.590470 144.243925 L 220.417557 143.080563 L 224.264492 141.986262 L 228.125245 140.940038 L 231.985998 139.893814 L 234.301875 139.084887" fill="none" id="27" stroke="black" stroke-width="0.646735" /><path d="M 257.456685 105.041228 L 258.895646 108.682936 L 260.771301 112.215913 L 262.646958 115.748888 L 264.522614 119.281863 L 266.152289 122.932923 L 266.156466 122.942608" fill="none" id="28" stroke="black" stroke-width="0.646735" /><path d="M 34.876046 189.167338 L 35.604226 188.548242 L 39.435963 187.405381 L 43.240469 186.171509 L 47.026411 184.880524 L 50.812353 183.589539 L 54.598295 182.298553 L 58.384237 181.007568 L 62.170179 179.716583 L 65.956120 178.425597 L 69.742063 177.134613 L 73.528005 175.843627 L 77.318437 174.566252 L 81.129413 173.351158 L 84.940392 172.136066 L 88.751368 170.920972 L 92.562347 169.705879 L 96.373323 168.490786 L 100.184301 167.275693 L 103.995278 166.060600 L 107.806256 164.845507 L 111.617233 163.630415 L 115.446058 162.474084 L 119.289113 161.364612 L 123.132168 160.255140 L 126.975223 159.145668 L 130.818277 158.036195 L 134.662138 156.929592 L 138.520227 155.873586 L 142.378317 154.817581 L 146.236406 153.761575 L 150.094495 152.705569 L 153.952585 151.649564 L 157.813975 150.605777 L 161.679110 149.575863 L 165.544246 148.545950 L 169.409382 147.516036 L 173.274518 146.486122 L 177.139654 145.456209 L 181.004790 144.426294 L 184.869926 143.396380 L 188.735063 142.366467 L 192.600200 141.336552 L 196.465335 140.306638 L 200.330471 139.276725 L 204.195607 138.246810 L 208.060744 137.216896 L 211.921276 136.170417 L 215.763565 135.058294 L 219.605853 133.946171 L 223.448141 132.834047 L 227.290430 131.721925 L 231.132719 130.609802 L 234.975007 129.497678 L 238.813587 128.373307 L 242.332445 126.838478 L 242.332445 126.771228" fill="none" id="29" stroke="black" stroke-width="0.646735" /><path d="M 244.206245 127.185128 L 246.396497 125.745811 L 249.863793 123.751413 L 253.404336 121.890079 L 256.944878 120.028745 L 260.485420 118.167412 L 264.025961 116.306078 L 267.591589 114.495485 L 271.220203 112.812281 L 274.848815 111.129080 L 278.477428 109.445876 L 282.121305 107.796580 L 285.786980 106.195695 L 289.452654 104.594812 L 293.118329 102.993927 L 296.784004 101.393045 L 300.438700 99.767387 L 304.086914 98.127102 L 307.735128 96.486817 L 311.383342 94.846531 L 315.031555 93.206246 L 318.679769 91.565960 L 322.327983 89.925674 L 325.976197 88.285388 L 329.624411 86.645104 L 333.272624 85.004818 L 336.920838 83.364533 L 340.569052 81.724248 L 344.216131 81.009762 L 347.884649 79.415403 L 351.553167 77.821047 L 355.221685 76.226689 L 358.890203 74.632331 L 362.558720 73.037974 L 366.227238 71.443616 L 369.895757 69.849258 L 373.564274 68.254901 L 377.232792 66.660543 L 380.901310 65.066185 L 384.569828 63.471828 L 388.238346 61.877470 L 391.917980 60.309025 L 395.601336 58.749250 L 399.284690 57.189474 L 402.968045 55.629699 L 406.651399 54.069924 L 410.334754 52.510148 L 414.018108 50.950373 L 417.701462 49.390597 L 421.384817 47.830822 L 425.068172 46.271047 L 428.751527 44.711271 L 432.434881 43.151496 L 436.118236 41.591721 L 439.801590 40.031945 L 443.473306 38.445624 L 447.116121 36.793382 L 450.758935 35.141140 L 454.334064 33.352820 L 457.849524 31.444537 L 461.206354 29.276698 L 463.980897 26.520297 L 465.046926 25.157637" fill="none" id="30" stroke="black" stroke-width="0.646735" /><path d="M 105.812746 146.121267 L 109.283845 144.133436 L 112.881267 142.385466 L 116.484104 140.647776 L 120.086940 138.910086 L 123.689778 137.172396 L 127.322568 135.498376 L 130.958334 133.830682 L 134.594100 132.162988 L 138.229866 130.495294 L 141.865632 128.827599 L 145.501398 127.159906 L 149.137165 125.492212 L 152.783559 123.848656 L 156.468589 122.292842 L 160.153618 120.737027 L 163.838648 119.181213 L 167.523678 117.625400 L 171.208708 116.069586 L 174.893737 114.513772 L 178.578767 112.957958 L 182.263796 111.402144 L 185.948825 109.846330 L 189.633855 108.290515 L 193.318885 106.734701 L 197.003914 105.178888 L 200.688944 103.623074 L 204.373973 102.067260 L 208.059003 100.511446 L 211.744033 98.955632 L 215.429062 97.399817 L 219.114092 95.844003 L 222.799121 94.288190 L 226.484151 92.732377 L 230.152551 91.137952 L 233.814830 89.529313 L 237.477107 87.920674 L 241.139384 86.312033 L 244.801662 84.703394 L 248.463940 83.094754 L 252.126217 81.486114 L 255.788495 79.877474 L 259.450774 78.268833 L 263.113051 76.660194 L 266.775329 75.051553 L 270.437607 73.442914 L 274.099884 71.834274 L 277.762161 70.225634 L 281.424440 68.616995 L 285.086717 67.008355 L 288.748995 65.399715 L 292.411272 63.791075 L 296.073550 62.182435 L 299.735828 60.573795 L 303.398106 58.965155 L 307.060383 57.356515 L 310.722661 55.747875 L 314.384939 54.139235 L 318.047215 52.530596 L 320.764345 51.337108" fill="none" id="31" stroke="black" stroke-width="0.646735" /><path d="M 160.420625 110.732417 L 164.387826 110.221233 L 168.250253 109.182908 L 172.095289 108.081371 L 175.929649 106.942210 L 179.764008 105.803049 L 183.598368 104.663888 L 187.432727 103.524727 L 191.267088 102.385567 L 195.101446 101.246406 L 198.935806 100.107245 L 202.761103 98.938282 L 206.580554 97.750091 L 210.400004 96.561901 L 214.219455 95.373710 L 218.038905 94.185519 L 221.858356 92.997327 L 225.677807 91.809137 L 229.497257 90.620946 L 233.316707 89.432755 L 237.136158 88.244563 L 240.955608 87.056373 L 244.775059 85.868182 L 248.594509 84.679991 L 252.427466 83.845056 L 256.253666 82.678781 L 260.079865 81.512505 L 263.906064 80.346229 L 267.732264 79.179952 L 271.558463 78.013677 L 275.384661 76.847401 L 279.210861 75.681125 L 283.037059 74.514848 L 286.863110 73.348087 L 290.683287 72.162233 L 294.503464 70.976380 L 298.323641 69.790526 L 302.143818 68.604673 L 305.953320 67.385706 L 309.746817 66.117094 L 313.540314 64.848479 L 317.333811 63.579867 L 321.127308 62.311254 L 324.920805 61.042639 L 328.714302 59.774027 L 332.507800 58.505413 L 336.270803 57.149734 L 340.026859 55.774218 L 343.383786 54.544868" fill="none" id="32" stroke="black" stroke-width="0.646735" /><path d="M 36.883686 204.585287 L 39.901579 202.832110 L 43.399769 200.898437 L 46.828914 198.839076 L 50.258059 196.779715 L 53.687204 194.720355 L 57.128128 192.681441 L 60.629695 190.747783 L 64.131261 188.814126 L 67.632829 186.880469 L 68.738286 186.270007" fill="none" id="33" stroke="black" stroke-width="0.646735" /><path d="M 299.215645 276.501217 L 300.154449 274.127110 L 300.164882 278.127095 L 300.175313 282.127082 L 300.185744 286.127069 L 300.196177 290.127055 L 300.206608 294.127042 L 300.217039 298.127027 L 300.227472 302.127014 L 300.237903 306.127001 L 300.248334 310.126987 L 300.258767 314.126974 L 300.269198 318.126959 L 300.279629 322.126946 L 300.415729 326.120976 L 300.783723 330.104012 L 301.408497 334.053940 L 302.062877 338.000050 L 302.160196 338.586907" fill="none" id="34" stroke="black" stroke-width="0.646735" /><path d="M 288.775906 337.655618 L 287.466159 341.240314 L 290.112067 339.623510 L 293.423204 337.379344 L 296.734494 335.135381 L 300.045782 332.891419 L 303.396455 330.707144 L 306.762047 328.545482 L 310.127642 326.383822 L 313.493236 324.222161 L 316.858829 322.060498 L 320.224423 319.898838 L 323.590016 317.737177 L 326.955611 315.575515 L 330.321204 313.413855 L 333.686798 311.252194 L 337.052391 309.090531 L 340.417985 306.928871 L 343.783579 304.767210 L 347.149173 302.605548 L 350.514767 300.443888 L 353.880359 298.282227 L 357.245954 296.120565 L 360.611548 293.958904 L 363.977141 291.797243 L 367.383882 290.672959 L 370.831850 288.645273 L 374.279818 286.617586 L 377.727787 284.589899 L 381.175755 282.562211 L 384.623723 280.534525 L 388.071692 278.506838 L 391.519660 276.479151 L 394.967627 274.451464 L 398.415596 272.423777 L 401.863564 270.396090 L 405.311532 268.368403 L 408.759501 266.340716 L 412.207470 264.313029 L 415.655438 262.285342 L 419.103407 260.257655 L 422.551375 258.229969 L 426.036810 256.267689 L 429.530182 254.319266 L 433.023553 252.370842 L 436.516926 250.422419 L 440.010298 248.473996 L 443.503670 246.525573 L 446.997042 244.577150 L 450.490414 242.628727 L 453.983786 240.680304 L 457.477158 238.731881 L 460.970529 236.783458 L 464.463901 234.835035 L 467.957273 232.886612 L 471.450645 230.938189 L 474.944017 228.989767 L 478.437388 227.041343 L 481.902530 225.043438 L 485.357417 223.027563 L 488.715856 220.858354 L 491.875153 218.424644 L 491.379067 216.278098 L 490.878596 216.278098" fill="none" id="35" stroke="black" stroke-width="0.646735" /><path d="M 492.618546 162.470497 L 492.217026 166.443754 L 492.217026 170.443754 L 492.217026 174.443754 L 492.217026 178.443754 L 492.217026 182.443754 L 492.217026 186.443754 L 492.217026 190.443754 L 492.340734 194.441755 L 492.470011 198.439665 L 492.599287 202.437575 L 492.651652 206.437103 L 492.690553 210.436914 L 492.729455 214.436724 L 493.287766 217.830237" fill="none" id="36" stroke="black" stroke-width="0.646735" /><path d="M 49.464916 212.035567 L 49.942757 216.006923 L 50.420599 219.978279 L 50.729719 223.965175 L 50.985330 227.956999 L 51.216324 231.949861 L 51.297466 235.949039 L 51.378607 239.948215 L 51.459749 243.947392 L 51.540891 247.946569 L 51.622033 251.945746 L 51.703174 255.944923 L 51.740246 259.944547 L 51.740246 263.944547 L 51.740246 267.944547 L 51.338716 268.902305 L 51.338716 267.395318" fill="none" id="37" stroke="black" stroke-width="0.646735" /><path d="M 49.331076 260.876318 L 48.069529 260.726460 L 51.823964 262.106392 L 55.581824 263.476785 L 59.356799 264.799495 L 63.131774 266.122205 L 66.906749 267.444916 L 70.681725 268.767626 L 74.456699 270.090336 L 78.231674 271.413047 L 82.006650 272.735757 L 85.781625 274.058467 L 89.556600 275.381178 L 93.331575 276.703888 L 97.106550 278.026598 L 100.880929 279.350984 L 104.641337 280.714555 L 108.401746 282.078125 L 112.162154 283.441696 L 115.922564 284.805267 L 119.682973 286.168837 L 123.443382 287.532409 L 127.203790 288.895980 L 130.964198 290.259549 L 134.724607 291.623121 L 138.485017 292.986692 L 142.245425 294.350263 L 146.005834 295.713834 L 149.754831 297.108464 L 153.503536 298.503888 L 157.252242 299.899312 L 161.000947 301.294735 L 164.749653 302.690158 L 168.498358 304.085581 L 172.247064 305.481006 L 175.995769 306.876430 L 179.744475 308.271853 L 183.493180 309.667277 L 187.241886 311.062700 L 190.990591 312.458123 L 194.739297 313.853547 L 198.488002 315.248971 L 202.236708 316.644395 L 205.985413 318.039819 L 209.750397 319.390105 L 213.526831 320.708646 L 217.303264 322.027187 L 221.089197 323.317353 L 224.898274 324.538393 L 228.707350 325.759432 L 232.527423 326.944773 L 236.363338 328.078684 L 240.200742 329.207185 L 244.076827 330.195095 L 247.952912 331.183006 L 251.828996 332.170916 L 252.236815 332.274857" fill="none" id="38" stroke="black" stroke-width="0.646735" /></svg>