<?xml version="1.0" encoding="utf-8" ?>
<svg baseProfile="full" height="782.534895" version="1.1" viewBox="0,0,674.534895,782.534895" width="674.534895" xmlns="http://www.w3.org/2000/svg" xmlns:ev="http://www.w3.org/2001/xml-events" xmlns:xlink="http://www.w3.org/1999/xlink"><defs><style type="text/css"><![CDATA[
	.background { fill: white; }
	.line { stroke: firebrick; stroke-width: .1mm; }
	.blacksquare { fill: indigo; }
	.whitesquare { fill: white; }
]]></style></defs><rect class="background" height="100%" width="100%" x="0" y="0" /><path d="M 441.408068 667.728388 L 437.904219 669.657906 L 434.400371 671.587426 L 430.896522 673.516946 L 427.392673 675.446465 L 423.888824 677.375983 L 420.384975 679.305503 L 416.881126 681.235023 L 413.377278 683.164542 L 409.873429 685.094061 L 406.369581 687.023580 L 402.865732 688.953100 L 399.361883 690.882619 L 397.810857 691.058016 L 400.960327 688.592078 L 404.352925 686.496443 L 407.867675 684.586853 L 411.382426 682.677265 L 414.897176 680.767676 L 418.366108 678.778845 L 421.774605 676.685485 L 425.183100 674.592123 L 428.591594 672.498762 L 432.000090 670.405401 L 435.379552 668.265716 L 438.770574 666.144873 L 442.201049 664.087729 L 445.631523 662.030584 L 449.061998 659.973439 L 452.492473 657.916295 L 455.922947 655.859150 L 459.353422 653.802005 L 462.783896 651.744860 L 466.214371 649.687715 L 469.644846 647.630571 L 473.075319 645.573426 L 476.505794 643.516281 L 479.937019 641.460447 L 483.447636 639.543270 L 486.958254 637.626095 L 490.468871 635.708918 L 493.979489 633.791743 L 497.490107 631.874566 L 501.000723 629.957389 L 504.511342 628.040214 L 508.021958 626.123038 L 511.532577 624.205860 L 515.043194 622.288685 L 518.553812 620.371509 L 522.064428 618.454331 L 525.575046 616.537156 L 529.085664 614.619979 L 532.601631 612.712671 L 536.123941 610.817062 L 539.646249 608.921451 L 543.168560 607.025842 L 546.690869 605.130233 L 548.642448 604.079948" fill="none" id="1" stroke="black" stroke-width="0.534895" /><path d="M 390.095568 689.923698 L 392.686516 689.488314 L 396.419448 688.051227 L 400.013401 686.304611 L 403.567712 684.469706 L 407.122022 682.634798 L 410.676332 680.799893 L 414.230641 678.964987 L 417.784951 677.130080 L 421.339262 675.295175 L 424.893571 673.460267 L 428.422711 671.578300 L 431.922127 669.640753 L 435.416410 667.694069 L 438.891682 665.713542 L 442.366953 663.733012 L 445.842223 661.752485 L 449.317495 659.771956 L 452.792766 657.791429 L 456.268036 655.810900 L 459.743307 653.830371 L 463.218577 651.849844 L 466.693849 649.869314 L 470.169120 647.888787 L 473.644390 645.908258 L 477.119662 643.927731 L 480.594933 641.947202 L 484.070203 639.966673 L 487.545475 637.986146 L 491.020744 636.005616 L 494.496015 634.025089 L 498.014756 632.122921 L 501.534726 630.222972 L 505.054697 628.323023 L 508.574667 626.423074 L 512.094638 624.523124 L 515.614610 622.623176 L 519.134579 620.723227 L 522.654551 618.823278 L 526.174521 616.923329 L 529.694492 615.023380 L 533.214462 613.123430 L 536.734433 611.223481 L 540.254403 609.323532 L 543.774375 607.423582 L 547.294344 605.523633 L 550.814316 603.623683 L 554.334285 601.723734 L 554.861198 601.439327" fill="none" id="2" stroke="black" stroke-width="0.534895" /><path d="M 106.790887 556.857287 L 110.412221 558.555565 L 113.978835 560.366439 L 117.545449 562.177313 L 121.112062 563.988188 L 124.678675 565.799063 L 128.187726 567.719081 L 131.696415 569.639786 L 135.205103 571.560491 L 138.720540 573.468409 L 142.285755 575.282036 L 145.850971 577.095662 L 149.416186 578.909289 L 152.981401 580.722915 L 156.546616 582.536542 L 160.111831 584.350168 L 163.677046 586.163795 L 167.242262 587.977422 L 170.807477 589.791048 L 174.372692 591.604675 L 177.937906 593.418302 L 181.503121 595.231929 L 185.068337 597.045555 L 188.633552 598.859182 L 192.198767 600.672809 L 195.763981 602.486435 L 199.350334 604.257857 L 202.938091 606.026471 L 206.525847 607.795088 L 210.113605 609.563702 L 213.701361 611.332318 L 217.289119 613.100932 L 220.876875 614.869548 L 224.464631 616.638164 L 228.052389 618.406778 L 231.640146 620.175394 L 235.227902 621.944009 L 238.815660 623.712624 L 242.403416 625.481240 L 245.991174 627.249854 L 249.578931 629.018471 L 253.166687 630.787085 L 256.754444 632.555701 L 260.342201 634.324316 L 263.929958 636.092931 L 267.517716 637.861547 L 271.105473 639.630161 L 274.693230 641.398778 L 278.280986 643.167393 L 281.893978 644.883760 L 285.509795 646.594275 L 289.125612 648.304790 L 292.741430 650.015306 L 296.378511 651.679588 L 300.030507 653.311432 L 303.682505 654.943277 L 307.334502 656.575121 L 310.986499 658.206965 L 314.638497 659.838809 L 318.290495 661.470654 L 321.942492 663.102498 L 325.594489 664.734342 L 329.246487 666.366187 L 332.898483 667.998031 L 336.550480 669.629875 L 340.202477 671.261720 L 343.854475 672.893564 L 347.506473 674.525408 L 351.158470 676.157252 L 354.810468 677.789097 L 358.462465 679.420941 L 362.114462 681.052785 L 365.766458 682.684630 L 369.418456 684.316474 L 373.070453 685.948318 L 376.722450 687.580163 L 380.387722 689.181666 L 384.064722 690.756366 L 387.741720 692.331066 L 391.418719 693.905766 L 395.095717 695.480466 L 398.787344 697.020369 L 402.485130 698.545616 L 406.182915 700.070862 L 409.880701 701.596109 L 413.578487 703.121356 L 417.276274 704.646602 L 420.974060 706.171850 L 424.671847 707.697097 L 428.369633 709.222342 L 432.067419 710.747590 L 435.765204 712.272837 L 439.462990 713.798083 L 443.160776 715.323329 L 446.858563 716.848577 L 450.556349 718.373823 L 454.254136 719.899070 L 457.951922 721.424318 L 461.649707 722.949563 L 465.347493 724.474810 L 469.045279 726.000058 L 472.743066 727.525304 L 476.440852 729.050550 L 480.138638 730.575798 L 482.478387 731.540888" fill="none" id="3" stroke="black" stroke-width="0.534895" /><path d="M 185.775258 514.786978 L 189.549548 516.111641 L 193.323838 517.436304 L 197.098129 518.760965 L 200.872420 520.085628 L 204.635662 521.440491 L 208.373781 522.864033 L 212.111898 524.287575 L 215.858444 525.688383 L 219.621215 527.045423 L 223.383985 528.402464 L 227.146756 529.759506 L 230.909526 531.116546 L 234.672297 532.473587 L 238.435067 533.830627 L 242.197836 535.187667 L 245.960608 536.544708 L 249.723377 537.901750 L 253.486148 539.258790 L 257.248919 540.615831 L 261.011688 541.972871 L 264.772292 543.335832 L 268.522084 544.728333 L 272.271876 546.120836 L 276.021667 547.513339 L 279.771458 548.905841 L 283.521251 550.298343 L 287.271042 551.690847 L 291.020833 553.083349 L 294.770624 554.475851 L 298.520417 555.868354 L 302.270208 557.260857 L 306.019999 558.653358 L 309.769791 560.045862 L 313.519583 561.438364 L 317.269375 562.830866 L 321.019165 564.223368 L 324.768957 565.615872 L 328.518749 567.008373 L 332.268541 568.400876 L 336.018332 569.793379 L 339.768124 571.185882 L 343.490377 572.649233 L 347.196264 574.154689 L 350.902152 575.660144 L 354.608040 577.165599 L 358.306252 578.689726 L 361.999407 580.226154 L 365.692561 581.762582 L 369.385715 583.299010 L 373.078869 584.835437 L 376.772023 586.371865 L 380.465178 587.908293 L 384.158333 589.444721 L 387.851488 590.981149 L 391.544642 592.517577 L 395.237796 594.054004 L 398.930950 595.590432 L 402.624104 597.126860 L 406.317259 598.663288 L 410.010414 600.199716 L 413.703568 601.736143 L 417.396723 603.272571 L 421.089877 604.808999 L 424.783031 606.345427 L 428.476185 607.881855 L 432.169340 609.418283 L 435.862495 610.954710 L 439.555649 612.491138 L 443.248804 614.027566 L 446.941958 615.563994 L 450.635112 617.100422 L 454.328266 618.636850 L 458.007347 620.206402 L 461.677036 621.798064 L 465.346725 623.389725 L 469.016413 624.981385 L 472.686103 626.573047 L 476.315297 628.254617 L 479.939242 629.947846 L 483.563188 631.641076 L 487.187133 633.334304 L 490.811078 635.027533 L 494.435022 636.720761 L 498.058966 638.413990 L 501.682911 640.107219 L 505.306856 641.800448 L 508.930802 643.493676 L 512.554746 645.186905 L 516.178692 646.880134 L 519.802636 648.573363 L 523.426581 650.266592 L 527.050526 651.959820 L 530.674470 653.653048 L 534.298416 655.346278 L 537.922360 657.039507 L 541.546306 658.732735 L 545.170250 660.425963 L 548.794195 662.119193 L 552.418140 663.812422 L 556.042084 665.505651 L 559.651394 667.229595 L 563.249277 668.977517 L 566.847161 670.725438 L 570.445045 672.473360 L 574.045808 674.215254 L 577.667451 675.913397 L 581.289097 677.611541 L 584.910740 679.309685 L 588.532385 681.007827 L 589.552608 681.486198" fill="none" id="4" stroke="black" stroke-width="0.534895" /><path d="M 192.154167 658.966667 L 196.036430 658.003322 L 199.918693 657.039977 L 203.789880 656.035220 L 207.634640 654.931676 L 211.379579 653.537704 L 215.090346 652.044316 L 218.801113 650.550928 L 222.511879 649.057539 L 226.222646 647.564151 L 229.933414 646.070763 L 233.644181 644.577375 L 237.337243 643.043696 L 240.946934 641.320290 L 244.556625 639.596883 L 248.166316 637.873478 L 251.776008 636.150071 L 255.385700 634.426667 L 258.995390 632.703261 L 262.605082 630.979854 L 266.214773 629.256449 L 269.824466 627.533042 L 273.434157 625.809637 L 277.043849 624.086231 L 280.653540 622.362824 L 284.263231 620.639420 L 287.872923 618.916013 L 291.482614 617.192608 L 295.092306 615.469202 L 298.701997 613.745795 L 302.320355 612.041124 L 305.970839 610.405897 L 309.621323 608.770670 L 313.271806 607.135442 L 316.922289 605.500214 L 320.572773 603.864987 L 324.223257 602.229760 L 327.873741 600.594534 L 331.524226 598.959307 L 335.174709 597.324079 L 338.825193 595.688852 L 342.475677 594.053624 L 346.126161 592.418397 L 349.776644 590.783170 L 353.427127 589.147942 L 357.077611 587.512716 L 360.728095 585.877489 L 364.378580 584.242262 L 368.029064 582.607035 L 371.679547 580.971806 L 375.330031 579.336579 L 378.980515 577.701352 L 382.630998 576.066125 L 386.300325 574.474140 L 389.983384 572.913666 L 393.666443 571.353192 L 397.349502 569.792718 L 401.036612 568.241887 L 404.728665 566.702813 L 408.420718 565.163739 L 412.112770 563.624664 L 415.804823 562.085590 L 419.496874 560.546516 L 423.188926 559.007442 L 426.880980 557.468367 L 430.573032 555.929293 L 434.265084 554.390220 L 437.957136 552.851145 L 441.649188 551.312071 L 445.341241 549.772996 L 449.033294 548.233922 L 452.725346 546.694848 L 456.417397 545.155774 L 460.109450 543.616699 L 463.801503 542.077625 L 467.493555 540.538551 L 471.185608 538.999477 L 474.901067 537.517819 L 478.616850 536.036959 L 482.332635 534.556099 L 486.048420 533.075239 L 489.764205 531.594381 L 493.479988 530.113521 L 495.720568 529.220577" fill="none" id="5" stroke="black" stroke-width="0.534895" /><path d="M 268.689318 752.126827 L 272.331706 750.473647 L 275.974095 748.820468 L 279.616485 747.167289 L 283.258873 745.514109 L 286.901261 743.860928 L 290.512205 742.141034 L 294.105539 740.383773 L 297.698870 738.626514 L 301.292204 736.869255 L 304.885536 735.111996 L 308.478868 733.354735 L 312.072201 731.597476 L 315.665533 729.840216 L 319.258867 728.082958 L 322.852198 726.325698 L 326.445532 724.568438 L 330.038863 722.811178 L 333.632197 721.053920 L 337.225529 719.296660 L 340.818862 717.539401 L 344.410235 715.778206 L 347.978562 713.970708 L 351.546888 712.163210 L 355.115213 710.355712 L 358.683540 708.548214 L 362.251867 706.740716 L 365.820193 704.933219 L 369.388518 703.125722 L 372.940628 701.287109 L 376.466074 699.397340 L 379.991520 697.507571 L 383.516968 695.617802 L 387.042414 693.728033 L 390.567860 691.838264 L 394.093307 689.948495 L 397.618754 688.058727 L 401.144201 686.168958 L 404.669646 684.279189 L 408.195093 682.389420 L 411.720541 680.499651 L 415.245987 678.609882 L 418.771434 676.720113 L 422.296879 674.830345 L 425.822327 672.940576 L 429.347774 671.050807 L 432.873220 669.161038 L 436.398666 667.271269 L 439.924112 665.381500 L 443.449560 663.491731 L 446.975006 661.601962 L 450.500452 659.712194 L 454.029661 657.829539 L 457.576049 655.979365 L 461.122434 654.129192 L 464.668821 652.279019 L 468.215209 650.428844 L 471.761595 648.578672 L 475.307981 646.728499 L 478.854369 644.878324 L 482.400755 643.028152 L 485.947141 641.177977 L 489.493529 639.327804 L 493.039915 637.477631 L 496.586301 635.627457 L 500.132689 633.777283 L 503.679075 631.927111 L 507.225461 630.076937 L 510.771847 628.226763 L 514.318235 626.376591 L 517.864621 624.526416 L 521.411007 622.676244 L 524.957394 620.826070 L 528.503782 618.975896 L 532.050168 617.125724 L 535.596555 615.275550 L 539.142942 613.425376 L 542.689327 611.575203 L 546.235714 609.725030 L 549.782101 607.874855 L 553.328488 606.024683 L 556.874875 604.174509 L 560.460173 602.401726 L 564.060381 600.658598 L 567.660590 598.915467 L 571.260798 597.172339 L 574.865247 595.438087 L 578.483721 593.733197 L 582.102194 592.028308 L 585.720668 590.323419 L 589.339142 588.618531 L 592.957616 586.913642 L 596.576090 585.208753 L 600.194564 583.503863 L 603.813038 581.798975 L 607.431513 580.094087 L 611.049987 578.389198 L 614.668461 576.684309 L 617.642448 575.283077" fill="none" id="6" stroke="black" stroke-width="0.534895" /><path d="M 123.638537 682.869007 L 127.619411 682.478316 L 131.600286 682.087623 L 135.551255 681.545095 L 139.370736 680.361014 L 143.109883 678.940176 L 146.849030 677.519338 L 150.588178 676.098500 L 154.327325 674.677662 L 158.066472 673.256824 L 161.805619 671.835986 L 165.544766 670.415148 L 169.283912 668.994310 L 173.023058 667.573472 L 176.762205 666.152635 L 180.453444 664.612985 L 184.132320 663.042674 L 187.798442 661.443438 L 191.439212 659.786696 L 195.079982 658.129955 L 198.720753 656.473213 L 202.361524 654.816472 L 206.002294 653.159730 L 209.643064 651.502988 L 213.283834 649.846246 L 216.924603 648.189504 L 220.565373 646.532762 L 224.206143 644.876020 L 227.846913 643.219278 L 231.487684 641.562536 L 235.128454 639.905795 L 238.769224 638.249054 L 242.409994 636.592312 L 246.050764 634.935570 L 249.691533 633.278828 L 253.332303 631.622087 L 256.973074 629.965345 L 260.613845 628.308603 L 264.254615 626.651860 L 267.895384 624.995119 L 271.536155 623.338377 L 275.176924 621.681635 L 278.817695 620.024893 L 282.458464 618.368152 L 286.099235 616.711411 L 289.740004 615.054669 L 293.380775 613.397927 L 297.021545 611.741185 L 300.662314 610.084444 L 304.303085 608.427702 L 307.943855 606.770960 L 311.584626 605.114217 L 315.225395 603.457476 L 318.866166 601.800734 L 322.506935 600.143992 L 326.147706 598.487250 L 329.788476 596.830509 L 333.429245 595.173768 L 337.070016 593.517026 L 340.710785 591.860284 L 344.351556 590.203542 L 347.992325 588.546801 L 351.633096 586.890059 L 355.273865 585.233317 L 358.952067 583.662175 L 362.640385 582.114177 L 366.328706 580.566179 L 370.017025 579.018181 L 373.705345 577.470183 L 377.408457 575.959179 L 381.147147 574.537135 L 384.885835 573.115093 L 388.624525 571.693050 L 392.363212 570.271006 L 396.101901 568.848963 L 399.840591 567.426921 L 403.579279 566.004878 L 407.317969 564.582834 L 411.056657 563.160791 L 414.795345 561.738749 L 418.534035 560.316706 L 422.272723 558.894662 L 426.011412 557.472619 L 429.750101 556.050577 L 433.488789 554.628534 L 437.227479 553.206490 L 440.966167 551.784448 L 444.704856 550.362405 L 448.443545 548.940361 L 452.182233 547.518318 L 455.920923 546.096276 L 459.659610 544.674233 L 463.398300 543.252189 L 467.136989 541.830146 L 470.875677 540.408104 L 474.614367 538.986061 L 478.353054 537.564018 L 482.098681 536.160569 L 485.855263 534.786494 L 489.611847 533.412417 L 493.368429 532.038342 L 497.125013 530.664266 L 500.881595 529.290189 L 504.638177 527.916114 L 508.394761 526.542038 L 512.151343 525.167963 L 515.907927 523.793886 L 519.664510 522.419811 L 523.421092 521.045734 L 527.177675 519.671659 L 530.934259 518.297582 L 534.690842 516.923507 L 538.447425 515.549430 L 542.204007 514.175355 L 545.960590 512.801279 L 549.717174 511.427204 L 553.473757 510.053128 L 557.230340 508.679052 L 560.986922 507.304976 L 564.743505 505.930900 L 568.500087 504.556824 L 572.256671 503.182748 L 575.314318 502.064327" fill="none" id="7" stroke="black" stroke-width="0.534895" /><path d="M 98.255728 581.177608 L 102.217641 580.626932 L 106.155127 579.923539 L 110.083672 579.174872 L 113.978988 578.265745 L 117.874303 577.356619 L 121.769621 576.447492 L 125.664936 575.538366 L 129.560252 574.629240 L 133.455568 573.720113 L 137.350886 572.810986 L 141.246202 571.901860 L 145.141517 570.992732 L 149.032773 570.067890 L 152.880989 568.976455 L 156.729207 567.885019 L 160.577423 566.793582 L 164.425638 565.702147 L 168.273854 564.610710 L 172.122071 563.519275 L 175.970287 562.427839 L 179.818502 561.336402 L 183.666719 560.244967 L 187.514936 559.153530 L 191.363152 558.062095 L 195.211367 556.970659 L 199.059584 555.879222 L 202.907800 554.787787 L 206.756015 553.696350 L 210.604232 552.604914 L 214.452449 551.513479 L 218.294600 550.401273 L 222.125420 549.250268 L 225.956242 548.099266 L 229.787062 546.948262 L 233.610174 545.771981 L 237.431260 544.589060 L 241.252347 543.406140 L 245.073432 542.223221 L 248.894519 541.040301 L 252.715606 539.857380 L 256.536692 538.674461 L 260.357777 537.491541 L 264.178863 536.308620 L 267.999951 535.125700 L 271.821036 533.942781 L 275.642123 532.759861 L 279.463209 531.576940 L 283.284295 530.394021 L 287.105382 529.211101 L 290.926468 528.028180 L 294.747554 526.845260 L 298.568641 525.662341 L 302.389726 524.479420 L 306.210812 523.296500 L 310.031900 522.113582 L 313.852985 520.930662 L 317.671588 519.739816 L 321.484415 518.530539 L 325.297241 517.321259 L 329.110068 516.111981 L 332.922894 514.902703 L 336.735721 513.693424 L 340.548547 512.484145 L 344.361374 511.274868 L 348.174200 510.065588 L 351.987027 508.856311 L 355.799853 507.647033 L 359.612680 506.437753 L 363.425506 505.228476 L 367.238333 504.019197 L 371.051159 502.809918 L 374.863986 501.600639 L 378.676811 500.391362 L 382.489639 499.182083 L 386.302464 497.972804 L 389.548698 496.943227" fill="none" id="8" stroke="black" stroke-width="0.534895" /><path d="M 155.400258 749.677608 L 154.627801 745.752903 L 153.855344 741.828197 L 153.082887 737.903492 L 152.310429 733.978786 L 151.637301 730.037150 L 151.082934 726.076149 L 150.710062 722.093565 L 150.337189 718.110983 L 149.964317 714.128400 L 149.591445 710.145818 L 149.218573 706.163235 L 148.845701 702.180651 L 148.472829 698.198068 L 148.099958 694.215485 L 147.727086 690.232903 L 147.354214 686.250320 L 146.981342 682.267737 L 146.608470 678.285154 L 146.235598 674.302571 L 145.942397 670.314041 L 145.719798 666.320239 L 145.497199 662.326437 L 145.274600 658.332637 L 145.052002 654.338834 L 144.829401 650.345033 L 144.606803 646.351233 L 144.384204 642.357430 L 144.161605 638.363630 L 143.939005 634.369828 L 143.716406 630.376026 L 143.493807 626.382226 L 143.271208 622.388424 L 143.048608 618.394622 L 142.826009 614.400821 L 142.603409 610.407020 L 142.380810 606.413218 L 142.158210 602.419417 L 141.935611 598.425616 L 141.713012 594.431814 L 141.490414 590.438013 L 141.267814 586.444212 L 141.045215 582.450409 L 140.839767 578.455754 L 140.663986 574.459618 L 140.488205 570.463482 L 140.312424 566.467345 L 140.136642 562.471210 L 140.010694 558.473392 L 139.916501 554.474500 L 139.822305 550.475611 L 139.728112 546.476720 L 139.633917 542.477828 L 139.539724 538.478938 L 139.445529 534.480047 L 139.351335 530.481156 L 139.257140 526.482266 L 139.162947 522.483374 L 139.068753 518.484484 L 138.974558 514.485594 L 138.880364 510.486702 L 138.786169 506.487812 L 138.691976 502.488921 L 138.597781 498.490030 L 138.503587 494.491140 L 138.409392 490.492249 L 138.315199 486.493358 L 138.221004 482.494466 L 138.126810 478.495577 L 138.032615 474.496686 L 137.938422 470.497794 L 137.844228 466.498903 L 137.750034 462.500014 L 137.655839 458.501123 L 137.561644 454.502231 L 137.467451 450.503340 L 137.411630 446.503749 L 137.359660 442.504087 L 137.307692 438.504424 L 137.255722 434.504762 L 137.203754 430.505100 L 137.151784 426.505437 L 137.099816 422.505775 L 137.047847 418.506112 L 136.995879 414.506450 L 136.943909 410.506788 L 136.891941 406.507124 L 136.839971 402.507463 L 136.780702 398.507908 L 136.714317 394.508459 L 136.647932 390.509009 L 136.581547 386.509561 L 136.515163 382.510111 L 136.448778 378.510663 L 136.382393 374.511213 L 136.316008 370.511765 L 136.249623 366.512315 L 136.183237 362.512867 L 136.116852 358.513418 L 136.050467 354.513968 L 135.984082 350.514519 L 135.917698 346.515069 L 135.851313 342.515621 L 135.784928 338.516171 L 135.718543 334.516723 L 135.652158 330.517273 L 135.585772 326.517825 L 135.519387 322.518375 L 135.453002 318.518927 L 135.386617 314.519477 L 135.320233 310.520029 L 135.253848 306.520578 L 135.187463 302.521130 L 135.121078 298.521681 L 135.054693 294.522231 L 134.988307 290.522783 L 134.921922 286.523333 L 134.855537 282.523885 L 134.789153 278.524435 L 134.722768 274.524987 L 134.629624 270.526073 L 134.535562 266.527180 L 134.441502 262.528286 L 134.347441 258.529393 L 134.253380 254.530498 L 134.159320 250.531605 L 134.007272 246.534588 L 133.842551 242.537981 L 133.677830 238.541373 L 133.513107 234.544767 L 133.348387 230.548159 L 133.183664 226.551553 L 133.018944 222.554946 L 132.854221 218.558338 L 132.689501 214.561732 L 132.524779 210.565124 L 132.360058 206.568519 L 132.195336 202.571911 L 132.030615 198.575305 L 131.865893 194.578698 L 131.701172 190.582090 L 131.536451 186.585484 L 131.371728 182.588876 L 131.207008 178.592270 L 131.042286 174.595663 L 130.877565 170.599055 L 130.712843 166.602449 L 130.548122 162.605841 L 130.383400 158.609236 L 130.218679 154.612628 L 130.053957 150.616022 L 129.889236 146.619415 L 129.724514 142.622807 L 129.559794 138.626201 L 129.395072 134.629593 L 129.175483 130.635807 L 128.929570 126.643374 L 128.683657 122.650940 L 128.437745 118.658506 L 128.191832 114.666072 L 127.945920 110.673639 L 127.700007 106.681205 L 127.454094 102.688771 L 127.208182 98.696337 L 126.962270 94.703904 L 126.716357 90.711470 L 126.701037 90.462758" fill="none" id="9" stroke="black" stroke-width="0.534895" /><path d="M 492.786977 754.865108 L 492.438312 750.880333 L 492.229720 746.889019 L 492.205650 742.889090 L 492.181579 738.889163 L 492.157510 734.889236 L 492.133440 730.889308 L 492.133499 726.890195 L 492.427071 722.900983 L 492.720643 718.911769 L 493.014215 714.922558 L 493.307789 710.933345 L 493.601361 706.944133 L 493.894933 702.954920 L 494.188507 698.965709 L 494.482079 694.976496 L 494.775651 690.987283 L 495.069225 686.998072 L 495.362797 683.008858 L 495.656369 679.019647 L 495.949943 675.030434 L 496.243515 671.041222 L 496.527405 667.051589 L 496.580703 663.051944 L 496.634000 659.052300 L 496.687297 655.052655 L 496.740592 651.053010 L 496.793889 647.053365 L 496.847187 643.053720 L 496.900484 639.054074 L 496.953780 635.054429 L 497.007077 631.054784 L 497.060375 627.055139 L 497.113672 623.055495 L 497.166968 619.055851 L 497.220265 615.056206 L 497.273563 611.056561 L 497.326860 607.056916 L 497.380156 603.057270 L 497.433453 599.057625 L 497.486751 595.057980 L 497.540048 591.058335 L 497.593345 587.058691 L 497.646641 583.059046 L 497.699939 579.059401 L 497.753236 575.059756 L 497.806533 571.060111 L 497.866074 567.060568 L 497.942707 563.061302 L 498.019341 559.062035 L 498.095976 555.062771 L 498.172610 551.063505 L 498.249243 547.064238 L 498.325877 543.064972 L 498.402512 539.065707 L 498.479146 535.066440 L 498.555780 531.067175 L 498.632413 527.067910 L 498.709047 523.068644 L 498.785682 519.069377 L 498.862316 515.070112 L 498.938949 511.070846 L 499.015583 507.071580 L 499.092218 503.072315 L 499.168852 499.073049 L 499.245486 495.073782 L 499.322119 491.074517 L 499.398753 487.075250 L 499.475388 483.075986 L 499.552022 479.076720 L 499.628655 475.077453 L 499.705289 471.078188 L 499.781924 467.078921 L 499.858558 463.079656 L 499.935192 459.080391 L 500.011825 455.081124 L 500.088459 451.081859 L 500.165094 447.082592 L 500.241728 443.083326 L 500.341256 439.084713 L 500.492316 435.087566 L 500.643375 431.090419 L 500.794435 427.093273 L 500.945493 423.096127 L 501.096553 419.098979 L 501.259246 415.102320 L 501.442620 411.106525 L 501.625994 407.110730 L 501.809369 403.114936 L 501.992743 399.119142 L 502.176116 395.123348 L 502.359490 391.127552 L 502.542865 387.131758 L 502.726240 383.135964 L 502.909613 379.140170 L 503.092987 375.144375 L 503.276362 371.148579 L 503.459736 367.152785 L 503.643109 363.156991 L 503.826483 359.161197 L 504.009859 355.165402 L 504.193233 351.169607 L 504.376606 347.173812 L 504.559980 343.178019 L 504.743355 339.182224 L 504.926729 335.186430 L 505.110102 331.190634 L 505.293477 327.194840 L 505.476852 323.199046 L 505.660226 319.203252 L 505.843599 315.207456 L 506.026973 311.211662 L 506.210348 307.215868 L 506.393722 303.220073 L 506.577096 299.224279 L 506.760470 295.228483 L 506.934774 291.232312 L 507.083118 287.235065 L 507.231463 283.237817 L 507.379807 279.240568 L 507.528151 275.243319 L 507.676495 271.246072 L 507.824839 267.248824 L 507.858483 263.249024 L 507.888036 259.249133 L 507.917591 255.249242 L 507.947143 251.249350 L 507.976697 247.249460 L 508.006251 243.249570 L 508.035803 239.249679 L 508.065357 235.249787 L 508.094911 231.249897 L 508.124463 227.250006 L 508.154017 223.250115 L 508.183571 219.250225 L 508.213123 215.250334 L 508.242678 211.250442 L 508.272230 207.250552 L 508.301783 203.250661 L 508.331338 199.250771 L 508.360890 195.250879 L 508.390444 191.250989 L 508.419998 187.251098 L 508.449550 183.251206 L 508.479104 179.251317 L 508.508658 175.251426 L 508.538210 171.251534 L 508.567765 167.251644 L 508.597318 163.251753 L 508.626870 159.251861 L 508.656425 155.251971 L 508.685977 151.252081 L 508.715530 147.252190 L 508.745085 143.252298 L 508.774637 139.252408 L 508.804191 135.252517 L 508.833745 131.252626 L 508.861198 127.252728 L 508.861198 123.252728 L 508.861198 119.252728 L 508.861198 115.252728 L 508.861198 111.252728 L 508.861198 107.252728 L 508.746983 103.254554 L 508.619129 99.256597 L 508.491277 95.258641 L 508.363424 91.260684 L 508.235570 87.262729 L 508.107717 83.264773 L 507.979865 79.266817 L 507.852012 75.268861 L 507.724158 71.270904 L 507.596306 67.272948 L 507.468453 63.274992 L 507.340599 59.277036 L 507.212746 55.279080 L 507.084894 51.281123 L 506.957041 47.283167 L 506.829187 43.285211 L 506.701335 39.287255 L 506.573482 35.289299 L 506.445628 31.291342 L 506.317775 27.293385 L 506.189923 23.295430 L 506.062070 19.297473 L 505.792872 15.307557 L 505.466521 11.320893 L 505.140172 7.334229 L 504.994008 5.548698" fill="none" id="10" stroke="black" stroke-width="0.534895" /><path d="M 389.708858 778.283077 L 389.584086 774.285023 L 389.459314 770.286971 L 389.334542 766.288917 L 389.209769 762.290864 L 389.084997 758.292809 L 388.960225 754.294756 L 388.835454 750.296703 L 388.710682 746.298650 L 388.604462 742.300200 L 388.558967 738.300459 L 388.513475 734.300719 L 388.467982 730.300978 L 388.422487 726.301235 L 388.376995 722.301494 L 388.331501 718.301754 L 388.286007 714.302012 L 388.240515 710.302270 L 388.195020 706.302529 L 388.149527 702.302789 L 388.104034 698.303047 L 388.058540 694.303305 L 388.013047 690.303564 L 387.967554 686.303823 L 387.922060 682.304082 L 387.876567 678.304340 L 387.831074 674.304599 L 387.785579 670.304858 L 387.740087 666.305117 L 387.694592 662.305375 L 387.649099 658.305633 L 387.603607 654.305893 L 387.558112 650.306152 L 387.557794 646.306186 L 387.563694 642.306190 L 387.569595 638.306196 L 387.575495 634.306200 L 387.581396 630.306204 L 387.587296 626.306209 L 387.593198 622.306213 L 387.599099 618.306217 L 387.604999 614.306221 L 387.610900 610.306225 L 387.616800 606.306229 L 387.622701 602.306234 L 387.628601 598.306238 L 387.634501 594.306244 L 387.640402 590.306248 L 387.646302 586.306252 L 387.652203 582.306257 L 387.658103 578.306261 L 387.664004 574.306264 L 387.669905 570.306269 L 387.675806 566.306273 L 387.681707 562.306277 L 387.687607 558.306282 L 387.693508 554.306287 L 387.699408 550.306291 L 387.705309 546.306296 L 387.711208 542.306300 L 387.717109 538.306304 L 387.723010 534.306309 L 387.728910 530.306312 L 387.734811 526.306317 L 387.740711 522.306321 L 387.771391 518.306536 L 387.833424 514.307018 L 387.895458 510.307499 L 387.957490 506.307979 L 388.019522 502.308461 L 388.081554 498.308942 L 388.157941 494.309770 L 388.289216 490.311923 L 388.420490 486.314078 L 388.551763 482.316234 L 388.683038 478.318389 L 388.814312 474.320542 L 388.945585 470.322698 L 389.076860 466.324853 L 389.208134 462.327006 L 389.339407 458.329161 L 389.470682 454.331317 L 389.601956 450.333470 L 389.733228 446.335625 L 389.864503 442.337781 L 389.995776 438.339935 L 390.127050 434.342089 L 390.258325 430.344245 L 390.389598 426.346399 L 390.520872 422.348553 L 390.652147 418.350708 L 390.783420 414.352864 L 390.914694 410.355018 L 391.045969 406.357172 L 391.177242 402.359328 L 391.308516 398.361482 L 391.439791 394.363636 L 391.571064 390.365792 L 391.702338 386.367946 L 391.833613 382.370100 L 391.964886 378.372255 L 392.096160 374.374410 L 392.227435 370.376565 L 392.358708 366.378719 L 392.489982 362.380875 L 392.621257 358.383029 L 392.752530 354.385183 L 392.883804 350.387338 L 393.015079 346.389493 L 393.146352 342.391647 L 393.277626 338.393802 L 393.408901 334.395957 L 393.540174 330.398112 L 393.671448 326.400266 L 393.802723 322.402421 L 393.933996 318.404576 L 394.065270 314.406730 L 394.196545 310.408884 L 394.327818 306.411040 L 394.448442 302.412962 L 394.491598 298.413194 L 394.534753 294.413428 L 394.577906 290.413660 L 394.621061 286.413894 L 394.664217 282.414127 L 394.707371 278.414358 L 394.750525 274.414592 L 394.793679 270.414825 L 394.836835 266.415057 L 394.879990 262.415291 L 394.923143 258.415523 L 394.966298 254.415755 L 395.009454 250.415988 L 395.052608 246.416222 L 395.095762 242.416455 L 395.138916 238.416686 L 395.182072 234.416920 L 395.225227 230.417153 L 395.268380 226.417385 L 395.311535 222.417618 L 395.354691 218.417851 L 395.397845 214.418083 L 395.440999 210.418317 L 395.484153 206.418550 L 395.527309 202.418781 L 395.570464 198.419015 L 395.613617 194.419248 L 395.656772 190.419480 L 395.699928 186.419714 L 395.743082 182.419946 L 395.786237 178.420178 L 395.829390 174.420412 L 395.872546 170.420645 L 395.892448 166.420751 L 395.892448 162.420751 L 395.892448 158.420751 L 395.892448 154.420751 L 395.892448 150.420751 L 395.892448 146.420751 L 395.906363 142.420838 L 395.955887 138.421144 L 396.005408 134.421451 L 396.054932 130.421758 L 396.104453 126.422065 L 396.153976 122.422370 L 396.203499 118.422678 L 396.253021 114.422984 L 396.302544 110.423291 L 396.352066 106.423597 L 396.401589 102.423904 L 396.451112 98.424211 L 396.500633 94.424517 L 396.550157 90.424824 L 396.599678 86.425129 L 396.649202 82.425437 L 396.698724 78.425744 L 396.748246 74.426050 L 396.797769 70.426356 L 396.847291 66.426663 L 396.896814 62.426970 L 396.946337 58.427276 L 396.995858 54.427582 L 397.045382 50.427890 L 397.094903 46.428196 L 397.144427 42.428503 L 397.193948 38.428809 L 397.243471 34.429116 L 397.292994 30.429422 L 397.342515 26.429728 L 397.392039 22.430035 L 397.441560 18.430342 L 397.491084 14.430649 L 397.665700 10.435284 L 397.892837 6.441739 L 398.119975 2.448192 L 398.244008 0.267448" fill="none" id="11" stroke="black" stroke-width="0.534895" /><path d="M 65.818228 529.958858 L 69.254987 532.005484 L 72.691748 534.052112 L 76.128507 536.098738 L 79.565267 538.145366 L 82.922522 540.310851 L 86.126160 542.705991 L 89.329800 545.101132 L 92.533438 547.496274 L 95.857047 549.710479 L 99.310269 551.729207 L 102.763490 553.747935 L 106.216711 555.766663 L 109.669933 557.785390 L 113.123154 559.804118 L 116.576375 561.822846 L 120.029596 563.841574 L 123.482817 565.860302 L 126.936039 567.879030 L 130.389261 569.897758 L 133.842481 571.916486 L 137.295703 573.935214 L 140.748925 575.953942 L 144.202146 577.972670 L 147.655367 579.991397 L 151.108588 582.010125 L 154.561810 584.028853 L 158.022269 586.034361 L 161.583258 587.856274 L 165.144246 589.678187 L 168.705232 591.500100 L 172.266221 593.322013 L 175.827209 595.143925 L 179.388196 596.965838 L 182.949184 598.787751 L 186.510172 600.609664 L 190.071159 602.431577 L 193.632148 604.253490 L 197.193135 606.075401 L 200.754122 607.897314 L 204.315111 609.719227 L 207.876099 611.541140 L 211.437085 613.363053 L 214.998074 615.184965 L 218.559062 617.006878 L 222.120049 618.828791 L 225.681037 620.650704 L 229.242025 622.472617 L 232.803012 624.294529 L 236.364001 626.116442 L 239.924988 627.938356 L 243.485975 629.760269 L 247.046964 631.582182 L 250.607951 633.404095 L 254.168938 635.226007 L 257.729926 637.047920 L 261.290914 638.869833 L 264.861008 640.673265 L 268.475338 642.386923 L 272.089667 644.100580 L 275.703996 645.814238 L 279.318326 647.527896 L 282.932655 649.241555 L 286.549716 650.949369 L 290.181662 652.625372 L 293.813605 654.301373 L 297.445550 655.977374 L 301.077494 657.653377 L 304.709437 659.329378 L 308.341382 661.005381 L 311.973326 662.681382 L 315.605271 664.357383 L 319.237214 666.033386 L 322.869159 667.709387 L 326.501103 669.385388 L 330.133046 671.061391 L 333.764992 672.737392 L 337.396935 674.413393 L 341.028880 676.089396 L 344.660823 677.765396 L 348.292768 679.441398 L 351.924712 681.117401 L 355.556657 682.793401 L 359.188601 684.469403 L 362.820544 686.145406 L 366.452489 687.821406 L 370.084432 689.497409 L 373.716377 691.173411 L 377.348320 692.849411 L 380.980266 694.525414 L 384.612210 696.201416 L 388.244153 697.877416 L 391.876098 699.553419 L 395.508041 701.229420 L 399.139986 702.905421 L 402.771930 704.581424 L 406.403875 706.257425 L 410.035819 707.933427 L 413.667762 709.609429 L 417.299707 711.285430 L 420.931650 712.961433 L 424.563596 714.637434 L 428.195539 716.313435 L 431.827484 717.989438 L 435.440814 719.704415 L 439.027355 721.475498 L 442.613895 723.246581 L 446.200434 725.017663 L 449.786973 726.788746 L 453.373514 728.559827 L 456.960053 730.330910 L 460.544380 732.106446 L 464.123001 733.893476 L 467.701622 735.680504 L 471.280243 737.467534 L 474.858864 739.254563 L 478.437485 741.041591 L 482.016106 742.828621 L 485.594727 744.615650 L 489.173348 746.402678 L 492.751968 748.189707 L 496.330590 749.976736 L 499.909211 751.763764 L 503.487832 753.550794 L 507.066453 755.337823 L 510.645074 757.124851 L 514.223694 758.911881 L 517.802315 760.698910 L 521.380936 762.485938 L 524.959557 764.272968 L 528.538178 766.059997 L 532.116799 767.847024 L 535.695420 769.634054 L 539.274040 771.421083 L 542.852661 773.208111 L 546.431282 774.995141 L 550.009903 776.782170 L 553.588524 778.569198 L 557.167145 780.356228 L 560.626818 782.083858" fill="none" id="12" stroke="black" stroke-width="0.534895" /><path d="M 79.509637 253.197137 L 83.272334 254.554382 L 87.035032 255.911625 L 90.797729 257.268868 L 94.560426 258.626112 L 98.335319 259.949040 L 102.110619 261.270826 L 105.885917 262.592613 L 109.661215 263.914399 L 113.436515 265.236184 L 117.223844 266.523090 L 121.011246 267.809785 L 124.798648 269.096482 L 128.586050 270.383178 L 132.373452 271.669875 L 136.160854 272.956571 L 139.948256 274.243268 L 143.735657 275.529965 L 147.523058 276.816662 L 151.310461 278.103358 L 155.097862 279.390055 L 158.885264 280.676751 L 162.672665 281.963448 L 166.489965 283.157709 L 170.313497 284.332700 L 174.137029 285.507692 L 177.966336 286.663429 L 181.805338 287.786846 L 185.644339 288.910262 L 189.483340 290.033680 L 193.322342 291.157098 L 197.161344 292.280514 L 201.000346 293.403931 L 204.839348 294.527349 L 208.678348 295.650765 L 212.517350 296.774182 L 216.356353 297.897601 L 220.195354 299.021018 L 224.034356 300.144434 L 227.873357 301.267852 L 231.712358 302.391269 L 235.551361 303.514685 L 239.390363 304.638103 L 243.229364 305.761521 L 247.068365 306.884937 L 250.907367 308.008354 L 254.746369 309.131772 L 258.585371 310.255189 L 262.424373 311.378606 L 266.263374 312.502024 L 270.102375 313.625441 L 273.941377 314.748857 L 277.760338 315.937925 L 281.572261 317.150051 L 285.384183 318.362176 L 289.196104 319.574302 L 293.008028 320.786428 L 296.776875 322.125060 L 300.536412 323.491028 L 304.295952 324.856995 L 308.055491 326.222964 L 311.815028 327.588932 L 315.574568 328.954902 L 319.334106 330.320870 L 323.093644 331.686839 L 326.853183 333.052807 L 330.612722 334.418774 L 334.372260 335.784743 L 338.131799 337.150711 L 341.891338 338.516681 L 345.650875 339.882649 L 349.410415 341.248617 L 353.169953 342.614585 L 356.929491 343.980553 L 360.689031 345.346522 L 364.448569 346.712491 L 368.208107 348.078460 L 371.967646 349.444428 L 375.727185 350.810396 L 379.486722 352.176364 L 383.246262 353.542332 L 387.005801 354.908301 L 390.765338 356.274270 L 394.524878 357.640238 L 398.284416 359.006207 L 402.043954 360.372175 L 405.803493 361.738143 L 409.563032 363.104111 L 413.275862 364.591611 L 416.982520 366.095169 L 420.689177 367.598728 L 424.395834 369.102286 L 428.102492 370.605844 L 431.809150 372.109403 L 435.515808 373.612961 L 439.222466 375.116519 L 442.929124 376.620078 L 446.635782 378.123636 L 450.342440 379.627195 L 454.049098 381.130754 L 457.755756 382.634312 L 461.462414 384.137871 L 465.169070 385.641429 L 468.875728 387.144987 L 472.582386 388.648546 L 476.289044 390.152104 L 479.995702 391.655662 L 482.900258 392.833858" fill="none" id="13" stroke="black" stroke-width="0.534895" /><path d="M 107.404167 83.954948 L 110.959084 82.121217 L 114.770820 81.345578 L 118.764606 81.434551 L 122.725777 81.990549 L 126.686947 82.546547 L 130.648117 83.102545 L 134.609286 83.658543 L 138.570456 84.214540 L 142.531625 84.770539 L 146.492795 85.326537 L 150.453966 85.882535 L 154.413253 86.450133 L 158.347093 87.174641 L 162.280932 87.899150 L 166.214771 88.623658 L 170.148609 89.348166 L 174.082448 90.072674 L 178.016287 90.797182 L 181.950126 91.521690 L 185.883964 92.246198 L 189.817803 92.970707 L 193.751642 93.695215 L 197.685481 94.419723 L 201.619319 95.144231 L 205.553158 95.868739 L 209.486998 96.593247 L 213.420837 97.317755 L 217.354675 98.042264 L 221.270431 98.858710 L 225.185618 99.678044 L 229.100805 100.497378 L 233.015992 101.316714 L 236.931180 102.136048 L 240.846367 102.955382 L 244.761553 103.774716 L 248.676740 104.594052 L 252.591928 105.413386 L 256.507115 106.232720 L 260.422303 107.052054 L 264.337490 107.871390 L 268.252677 108.690724 L 272.167865 109.510058 L 276.083052 110.329392 L 279.998239 111.148728 L 283.913426 111.968062 L 287.828614 112.787396 L 291.743801 113.606730 L 295.658988 114.426066 L 299.574175 115.245400 L 303.489362 116.064735 L 307.403120 116.890595 L 311.302410 117.782526 L 315.201700 118.674457 L 319.100989 119.566388 L 323.000278 120.458319 L 326.885025 121.410804 L 330.764092 122.386942 L 334.643158 123.363079 L 338.522223 124.339217 L 342.401291 125.315354 L 346.280356 126.291492 L 350.159423 127.267629 L 354.038490 128.243767 L 357.917555 129.219905 L 361.796622 130.196043 L 365.675687 131.172179 L 369.554755 132.148317 L 373.433821 133.124456 L 377.312886 134.100593 L 381.191954 135.076730 L 385.071019 136.052869 L 388.950086 137.029006 L 392.829152 138.005144 L 396.708218 138.981281 L 400.587285 139.957419 L 404.466350 140.933557 L 408.345417 141.909695 L 412.224484 142.885831 L 416.103549 143.861970 L 419.982616 144.838108 L 423.855787 145.836676 L 427.713496 146.894070 L 431.571204 147.951466 L 435.428913 149.008860 L 439.286622 150.066256 L 443.144330 151.123650 L 447.002039 152.181046 L 450.751818 153.208857" fill="none" id="14" stroke="black" stroke-width="0.534895" /><path d="M 244.435417 183.552607 L 248.318308 182.591792 L 252.206364 181.652648 L 256.105148 180.758518 L 260.003935 179.864385 L 263.902720 178.970255 L 267.801506 178.076123 L 271.700291 177.181992 L 275.599077 176.287860 L 279.497862 175.393730 L 283.396649 174.499597 L 287.295434 173.605467 L 291.194220 172.711334 L 295.087034 171.791628 L 298.978710 170.867045 L 302.870387 169.942464 L 306.762065 169.017884 L 310.653742 168.093302 L 314.545418 167.168721 L 318.437095 166.244140 L 322.328773 165.319558 L 326.220450 164.394977 L 330.112126 163.470395 L 334.003804 162.545815 L 337.895481 161.621232 L 341.787157 160.696652 L 345.678834 159.772071 L 349.570512 158.847489 L 353.462189 157.922908 L 357.353864 156.998326 L 361.245542 156.073746 L 365.137219 155.149164 L 369.028895 154.224582 L 372.920572 153.300002 L 376.812250 152.375419 L 380.703927 151.450839 L 384.595603 150.526258 L 388.487280 149.601676 L 392.378958 148.677095 L 396.272648 147.761064 L 400.168081 146.852439 L 404.063513 145.943814 L 407.958948 145.035189 L 411.854380 144.126565 L 415.749814 143.217939 L 419.645247 142.309314 L 423.540681 141.400689 L 427.436115 140.492065 L 431.331547 139.583440 L 435.227202 138.675780 L 439.127946 137.790229 L 443.028689 136.904677 L 446.929433 136.019126 L 450.830176 135.133576 L 454.730920 134.248025 L 458.631664 133.362472 L 462.532406 132.476922 L 466.433150 131.591371 L 470.333893 130.705819 L 474.234637 129.820268 L 478.135380 128.934718 L 482.036124 128.049166 L 485.936868 127.163616 L 489.837610 126.278064 L 493.738355 125.392514 L 497.639097 124.506963 L 501.539841 123.621412 L 505.440584 122.735861 L 509.341327 121.850310 L 513.242071 120.964759 L 517.142814 120.079208 L 521.043559 119.193657 L 524.944302 118.308105 L 528.845044 117.422555 L 532.745789 116.537003 L 536.646532 115.651453 L 540.547275 114.765901 L 544.448018 113.880351 L 548.355281 113.024679 L 552.270401 112.205020 L 556.185520 111.385360 L 560.100639 110.565701 L 564.015757 109.746042 L 567.930877 108.926383 L 571.845996 108.106723 L 575.761115 107.287064 L 579.676234 106.467405 L 583.591354 105.647745 L 587.506473 104.828086 L 591.421592 104.008426 L 595.336711 103.188767 L 599.251831 102.369107 L 603.166950 101.549448 L 607.082069 100.729790 L 610.997188 99.910131 L 614.912308 99.090471 L 618.827427 98.270812 L 622.742547 97.451153 L 626.657666 96.631494 L 630.572786 95.811834 L 634.487905 94.992175 L 638.403024 94.172516 L 642.318143 93.352857 L 646.233263 92.533197 L 650.148382 91.713538 L 654.063501 90.893878 L 657.978620 90.074219 L 661.893740 89.254559 L 665.808859 88.434900 L 669.723978 87.615241 L 671.982287 87.142448" fill="none" id="15" stroke="black" stroke-width="0.534895" /><path d="M 0.267448 98.482287 L 4.260355 98.720398 L 8.256801 98.822499 L 12.256687 98.792407 L 16.256574 98.762318 L 20.251356 98.636517 L 24.231755 98.241000 L 28.212152 97.845482 L 32.192549 97.449962 L 36.172948 97.054445 L 40.153345 96.658927 L 44.133743 96.263407 L 48.114141 95.867890 L 52.094538 95.472372 L 56.074936 95.076853 L 60.055333 94.681335 L 64.035730 94.285817 L 68.016129 93.890298 L 71.996526 93.494780 L 75.976923 93.099260 L 79.957322 92.703743 L 83.937719 92.308225 L 87.918116 91.912706 L 91.898514 91.517188 L 95.878912 91.121669 L 99.859310 90.726151 L 103.839707 90.330633 L 107.820104 89.935114 L 111.800502 89.539596 L 115.776746 89.105650 L 119.749710 88.641371 L 123.722673 88.177090 L 127.695638 87.712810 L 131.668601 87.248530 L 135.638818 86.761610 L 139.607467 86.261781 L 143.576115 85.761955 L 147.544764 85.262128 L 151.513413 84.762299 L 155.482062 84.262473 L 159.450710 83.762646 L 163.419359 83.262817 L 167.388008 82.762991 L 171.356657 82.263164 L 175.325305 81.763337 L 179.293954 81.263509 L 183.262603 80.763682 L 187.231251 80.263855 L 191.199900 79.764026 L 195.168549 79.264200 L 199.137198 78.764373 L 203.105846 78.264544 L 207.074495 77.764718 L 211.043144 77.264891 L 215.011792 76.765063 L 218.980441 76.265236 L 222.949090 75.765409 L 226.917739 75.265581 L 230.886387 74.765754 L 234.855036 74.265927 L 238.823685 73.766100 L 242.792333 73.266272 L 246.760982 72.766445 L 250.725842 72.237989 L 254.687868 71.688130 L 258.649895 71.138269 L 262.611920 70.588408 L 266.573948 70.038548 L 270.535974 69.488687 L 274.497999 68.938827 L 278.460027 68.388967 L 282.422053 67.839106 L 286.384079 67.289246 L 290.346106 66.739384 L 294.308132 66.189525 L 298.270158 65.639663 L 302.232185 65.089804 L 306.194211 64.539943 L 310.156237 63.990082 L 314.118265 63.440221 L 318.080290 62.890362 L 322.042318 62.340502 L 326.004344 61.790641 L 329.966369 61.240780 L 333.928397 60.690919 L 337.890422 60.141060 L 341.852449 59.591199 L 345.814476 59.041339 L 349.776502 58.491478 L 353.738529 57.941617 L 357.700556 57.391756 L 361.662581 56.841897 L 365.624608 56.292036 L 369.586635 55.742176 L 373.548660 55.192315 L 377.510688 54.642454 L 381.472713 54.092593 L 385.434740 53.542734 L 389.396767 52.992874 L 393.358792 52.443013 L 397.320820 51.893153 L 401.282846 51.343291 L 405.244872 50.793432 L 409.206899 50.243571 L 413.169436 49.697534 L 417.137038 49.189470 L 421.104641 48.681406 L 425.072244 48.173342 L 429.039846 47.665278 L 433.007449 47.157214 L 436.975052 46.649150 L 440.943308 46.146434 L 444.916450 45.683683 L 448.889592 45.220933 L 452.862735 44.758182 L 456.835878 44.295431 L 460.809021 43.832681 L 464.782164 43.369931 L 468.755306 42.907181 L 472.728449 42.444431 L 476.701592 41.981680 L 480.674734 41.518930 L 484.647876 41.056179 L 488.621018 40.593429 L 492.594161 40.130679 L 496.567304 39.667928 L 500.540447 39.205178 L 504.513590 38.742428 L 508.486732 38.279677 L 512.459874 37.816927 L 516.433018 37.354176 L 520.406160 36.891426 L 524.379302 36.428676 L 528.352445 35.965924 L 532.325587 35.503175 L 536.298730 35.040425 L 540.271872 34.577674 L 543.908068 34.154167" fill="none" id="16" stroke="black" stroke-width="0.534895" /><path d="M 204.685417 62.564328 L 208.662410 62.992732 L 212.639403 63.421136 L 216.616396 63.849541 L 220.593388 64.277945 L 224.570380 64.706349 L 228.547372 65.134753 L 232.524366 65.563158 L 236.501358 65.991562 L 240.478351 66.419966 L 244.455343 66.848370 L 248.423017 67.355379 L 252.389928 67.868809 L 256.356474 68.384861 L 260.312424 68.976858 L 264.268373 69.568855 L 268.224324 70.160853 L 272.180273 70.752849 L 276.136224 71.344848 L 280.092174 71.936845 L 284.048122 72.528842 L 288.004073 73.120840 L 291.960022 73.712837 L 295.915973 74.304834 L 299.871922 74.896832 L 303.827873 75.488828 L 307.783822 76.080827 L 311.739772 76.672824 L 315.695721 77.264820 L 319.651672 77.856819 L 323.607621 78.448816 L 327.563572 79.040813 L 331.519521 79.632811 L 335.475471 80.224807 L 339.431421 80.816806 L 343.387370 81.408803 L 347.339626 82.024135 L 351.284959 82.683187 L 355.230292 83.342240 L 359.175624 84.001292 L 363.120956 84.660343 L 367.066289 85.319395 L 371.011621 85.978448 L 374.956954 86.637500 L 378.902287 87.296553 L 382.847621 87.955605 L 386.792953 88.614657 L 390.738286 89.273708 L 394.683619 89.932761 L 398.628951 90.591813 L 402.574283 91.250866 L 406.519616 91.909918 L 410.464949 92.568970 L 414.410281 93.228021 L 418.355615 93.887073 L 422.300948 94.546126 L 426.246280 95.205179 L 430.191613 95.864231 L 434.136946 96.523283 L 438.082279 97.182334 L 442.027610 97.841386 L 445.972943 98.500439 L 449.918276 99.159492 L 453.863609 99.818544 L 457.808942 100.477596 L 461.754275 101.136648 L 465.699608 101.795699 L 469.639453 102.486710 L 473.578652 103.181481 L 477.517852 103.876253 L 481.457051 104.571024 L 485.396251 105.265795 L 489.335450 105.960566 L 493.274650 106.655338 L 497.213849 107.350110 L 501.153049 108.044881 L 505.092248 108.739653 L 509.031448 109.434424 L 512.970648 110.129196 L 516.909846 110.823966 L 520.849046 111.518738 L 524.788246 112.213510 L 528.727446 112.908281 L 532.666644 113.603053 L 536.605844 114.297824 L 540.545044 114.992595 L 544.484244 115.687366 L 548.423442 116.382137 L 552.362642 117.076909 L 556.301842 117.771681 L 560.241042 118.466453 L 564.180240 119.161224 L 568.119440 119.855995 L 572.058640 120.550767 L 575.997839 121.245537 L 579.937038 121.940309 L 583.876238 122.635081 L 587.815438 123.329852 L 591.754636 124.024624 L 595.693836 124.719395 L 599.633036 125.414167 L 603.572236 126.108937 L 607.511434 126.803708 L 611.450634 127.498480 L 615.389834 128.193252 L 619.343268 128.801325 L 623.297824 129.402567 L 627.252378 130.003808 L 631.206934 130.605050 L 635.161490 131.206290 L 639.125168 131.743604 L 643.090031 132.272634 L 647.054893 132.801663 L 651.019753 133.330694 L 654.984616 133.859724 L 658.949477 134.388755 L 662.914338 134.917785 L 666.879200 135.446815 L 670.844061 135.975844 L 673.497917 136.329948" fill="none" id="17" stroke="black" stroke-width="0.534895" /><path d="M 265.853387 112.911978 L 269.191750 111.398238 L 273.072452 110.454407 L 277.008420 109.741549 L 280.944387 109.028692 L 284.880353 108.315833 L 288.816320 107.602975 L 292.752287 106.890118 L 296.688252 106.177261 L 298.454948 105.857287" fill="none" id="18" stroke="black" stroke-width="0.534895" /><path d="M 216.603387 112.204948 L 220.597431 111.986720 L 224.591473 111.768491 L 228.585516 111.550263 L 232.554021 111.073301 L 236.513655 110.506477 L 240.473290 109.939651 L 244.432926 109.372827 L 248.392561 108.806004 L 252.352195 108.239180 L 256.311830 107.672354 L 260.271465 107.105531 L 264.231102 106.538707 L 268.186907 105.948585 L 272.119654 105.218170 L 276.052399 104.487755 L 279.985145 103.757340 L 283.917892 103.026926 L 287.850639 102.296510 L 291.783386 101.566096 L 295.716132 100.835681 L 299.648878 100.105266 L 303.581624 99.374852 L 307.514370 98.644436 L 311.447117 97.914022 L 315.379863 97.183606 L 319.312610 96.453193 L 323.245357 95.722778 L 327.178103 94.992362 L 331.110850 94.261948 L 335.043595 93.531532 L 338.976341 92.801119 L 342.905889 92.054100 L 346.828382 91.270494 L 350.750877 90.486888 L 354.673370 89.703281 L 358.595866 88.919674 L 362.518360 88.136069 L 366.440854 87.352462 L 370.363347 86.568855 L 374.285843 85.785249 L 378.208337 85.001643 L 382.130831 84.218036 L 386.053325 83.434430 L 389.975820 82.650824 L 393.898314 81.867218 L 397.820808 81.083611 L 401.743302 80.300005 L 405.665796 79.516399 L 409.588291 78.732792 L 413.510784 77.949185 L 417.433279 77.165579 L 421.355773 76.381973 L 424.079948 75.837758" fill="none" id="19" stroke="black" stroke-width="0.534895" /><path d="M 362.361198 51.486198 L 362.499349 55.483812 L 362.637501 59.481425 L 362.775653 63.479039 L 362.913806 67.476652 L 363.196354 71.464605 L 363.698725 75.432450 L 364.236450 79.396141 L 364.120005 76.731227 L 363.798100 72.744201 L 363.476196 68.757175 L 363.425247 64.758149 L 363.393446 60.758276 L 363.361646 56.758402 L 363.329448 52.758538 L 363.173464 48.761580 L 363.017480 44.764623 L 362.861496 40.767665 L 362.747918 38.944695 L 362.747918 42.944695 L 362.747918 46.944695 L 362.747918 50.944695 L 362.747918 54.944695 L 362.747918 58.944695 L 362.747918 62.944695 L 362.747918 66.944694 L 362.780375 70.944557 L 362.814485 74.944411 L 362.848596 78.944266 L 362.882706 82.944119 L 362.916817 86.943974 L 362.943227 90.040887" fill="none" id="20" stroke="black" stroke-width="0.534895" /><path d="M 455.486198 92.232287 L 456.791545 96.013301 L 458.096894 99.794315 L 459.772334 103.414798 L 461.641094 106.951425 L 463.509854 110.488054 L 465.378614 114.024681 L 467.247373 117.561310 L 469.116132 121.097938 L 470.984893 124.634564 L 472.853653 128.171192 L 474.660315 131.738345 L 476.319083 135.378192 L 477.326037 137.587758" fill="none" id="21" stroke="black" stroke-width="0.534895" /><path d="M 190.380728 539.431507 L 193.528222 540.453276 L 197.136327 542.179878 L 200.731608 543.933149 L 204.326888 545.686419 L 207.922169 547.439688 L 211.517450 549.192959 L 215.112731 550.946228 L 218.708012 552.699499 L 222.303292 554.452769 L 225.898573 556.206038 L 229.493854 557.959310 L 233.089135 559.712579 L 236.684416 561.465849 L 240.279697 563.219120 L 243.874977 564.972389 L 247.470258 566.725660 L 251.065539 568.478930 L 254.660820 570.232199 L 258.223615 572.049761 L 261.767882 573.903990 L 265.312149 575.758221 L 268.856417 577.612453 L 272.400684 579.466684 L 275.944951 581.320913 L 279.489217 583.175144 L 283.033484 585.029376 L 286.577751 586.883606 L 290.122019 588.737836 L 293.666286 590.592067 L 297.246550 592.373356 L 300.874257 594.058509 L 304.501964 595.743662 L 308.129672 597.428815 L 311.757379 599.113968 L 315.385086 600.799120 L 319.012793 602.484273 L 322.640501 604.169426 L 326.268208 605.854579 L 329.895915 607.539733 L 333.523621 609.224886 L 337.151330 610.910038 L 340.779037 612.595191 L 344.406744 614.280343 L 348.034450 615.965496 L 351.662157 617.650649 L 355.289866 619.335802 L 358.917573 621.020956 L 362.545279 622.706109 L 366.172986 624.391262 L 369.800694 626.076415 L 373.428402 627.761567 L 377.056108 629.446720 L 380.683815 631.131873 L 384.311523 632.817026 L 387.939230 634.502180 L 391.566937 636.187333 L 395.194644 637.872486 L 398.822352 639.557639 L 402.450059 641.242791 L 406.077765 642.927944 L 409.705473 644.613097 L 413.333181 646.298249 L 416.989354 647.919286 L 420.672309 649.480007 L 424.355264 651.040726 L 428.038219 652.601444 L 431.721174 654.162164 L 435.404129 655.722882 L 439.087084 657.283602 L 442.770038 658.844320 L 446.452992 660.405040 L 450.135947 661.965759 L 453.818902 663.526479 L 457.501857 665.087198 L 461.184812 666.647916 L 464.867767 668.208636 L 468.550722 669.769354 L 472.233676 671.330074 L 475.916630 672.890792 L 479.599585 674.451513 L 483.282540 676.012231 L 486.965495 677.572951 L 490.648450 679.133669 L 490.724477 679.165888" fill="none" id="22" stroke="black" stroke-width="0.534895" /><path d="M 161.619008 614.517448 L 165.486397 613.496026 L 169.353786 612.474606 L 173.184753 611.328916 L 177.005814 610.146777 L 180.839588 609.005651 L 184.673363 607.864525 L 188.507138 606.723399 L 192.340913 605.582272 L 196.174689 604.441145 L 200.008464 603.300018 L 203.842239 602.158892 L 207.676014 601.017766 L 211.509789 599.876640 L 215.343564 598.735514 L 219.153228 597.516764 L 222.958865 596.285045 L 226.759208 595.037444 L 230.542832 593.739682 L 234.326456 592.441920 L 238.110081 591.144157 L 241.893705 589.846394 L 245.677329 588.548632 L 249.460952 587.250869 L 253.244576 585.953106 L 257.028202 584.655343 L 260.811825 583.357581 L 264.595450 582.059819 L 268.379074 580.762055 L 272.162697 579.464293 L 275.946323 578.166530 L 279.729946 576.868767 L 283.513571 575.571004 L 287.297194 574.273242 L 291.080819 572.975480 L 294.864442 571.677716 L 298.648068 570.379954 L 302.440356 569.108016 L 306.241071 567.861197 L 310.041787 566.614376 L 313.842503 565.367555 L 317.643218 564.120735 L 321.443934 562.873914 L 325.244649 561.627094 L 329.045365 560.380274 L 332.846081 559.133452 L 336.646795 557.886633 L 340.447512 556.639811 L 344.248226 555.392991 L 348.048943 554.146171 L 351.849657 552.899349 L 355.650374 551.652530 L 359.451090 550.405709 L 363.251804 549.158888 L 367.052521 547.912068 L 370.853235 546.665247 L 374.653952 545.418427 L 378.454667 544.171607 L 382.275302 542.988320 L 386.107536 541.842032 L 389.939772 540.695745 L 393.778652 539.572147 L 397.623816 538.470012 L 401.468982 537.367875 L 405.314147 536.265740 L 409.159313 535.163606 L 413.004480 534.061471 L 413.158068 534.017448" fill="none" id="23" stroke="black" stroke-width="0.534895" /><path d="M 307.892448 676.619007 L 310.708384 674.072444 L 314.123425 671.993041 L 317.633431 670.074743 L 321.143436 668.156446 L 324.653440 666.238148 L 328.163446 664.319851 L 331.673451 662.401553 L 335.183455 660.483256 L 338.693461 658.564958 L 342.203465 656.646661 L 345.719274 654.739418 L 349.291240 652.939122 L 352.863204 651.138826 L 356.435170 649.338530 L 360.007135 647.538233 L 363.579099 645.737937 L 367.151065 643.937641 L 370.723029 642.137345 L 374.294995 640.337048 L 377.866960 638.536752 L 381.438924 636.736456 L 385.010889 634.936160 L 388.582853 633.135863 L 392.154818 631.335567 L 395.726784 629.535271 L 399.298748 627.734975 L 402.881949 625.957414 L 406.481874 624.213699 L 410.081798 622.469985 L 413.698527 620.761876 L 417.333091 619.091564 L 420.967653 617.421251 L 424.602217 615.750936 L 428.236782 614.080624 L 431.871346 612.410311 L 435.505908 610.739996 L 439.140472 609.069683 L 442.775036 607.399371 L 446.409600 605.729056 L 450.044164 604.058743 L 453.678727 602.388431 L 456.517448 601.083858" fill="none" id="24" stroke="black" stroke-width="0.534895" /><path d="M 257.286977 585.716667 L 253.556240 584.273895 L 255.801671 585.458102 L 259.387136 587.231358 L 262.972602 589.004612 L 266.570179 590.753076 L 270.172737 592.491345 L 273.775295 594.229615 L 277.377852 595.967884 L 280.980410 597.706154 L 284.582966 599.444422 L 288.185524 601.182693 L 291.788081 602.920961 L 295.390639 604.659231 L 298.993197 606.397500 L 302.595754 608.135770 L 306.198310 609.874038 L 309.800868 611.612309 L 313.403426 613.350577 L 317.005983 615.088848 L 320.608541 616.827116 L 324.211097 618.565386 L 327.813655 620.303655 L 331.416213 622.041925 L 335.018770 623.780193 L 338.542462 625.670155 L 342.034748 627.620522 L 345.527036 629.570891 L 349.019322 631.521258 L 352.511609 633.471625 L 356.003895 635.421992 L 359.496182 637.372361 L 362.988469 639.322728 L 366.480755 641.273095 L 369.973043 643.223463 L 373.465329 645.173831 L 376.957616 647.124199 L 380.449903 649.074565 L 383.942189 651.024933 L 387.434476 652.975301 L 390.926762 654.925669 L 394.419050 656.876036 L 397.704768 659.150875 L 400.533068 661.189327" fill="none" id="25" stroke="black" stroke-width="0.534895" /><path d="M 278.740108 566.712757 L 276.369270 565.804065 L 279.906086 567.672470 L 283.442902 569.540873 L 286.979717 571.409277 L 290.516533 573.277680 L 294.053350 575.146084 L 297.590166 577.014487 L 301.126981 578.882891 L 304.663797 580.751294 L 308.200615 582.619699 L 311.737431 584.488101 L 315.274247 586.356506 L 318.811062 588.224908 L 322.347878 590.093313 L 325.887598 591.956200 L 329.430255 593.813504 L 332.972913 595.670808 L 336.515571 597.528111 L 340.058227 599.385415 L 343.600886 601.242719 L 347.143543 603.100023 L 350.686200 604.957327 L 354.228858 606.814631 L 357.771516 608.671935 L 361.314172 610.529239 L 364.856831 612.386543 L 368.399488 614.243847 L 371.942145 616.101150 L 375.484803 617.958454 L 379.027461 619.815758 L 382.570117 621.673062 L 386.112775 623.530366 L 389.655433 625.387670 L 393.198090 627.244974 L 396.740748 629.102278 L 400.283406 630.959582 L 403.826063 632.816886 L 405.169787 633.521358" fill="none" id="26" stroke="black" stroke-width="0.534895" /><path d="M 252.294788 72.228387 L 252.216329 76.227618 L 252.276011 80.222871 L 252.632856 84.206512 L 253.056702 88.183993 L 253.480548 92.161473 L 253.904393 96.138954 L 254.328239 100.116436 L 254.752085 104.093917 L 255.175931 108.071398 L 255.599778 112.048879 L 256.023623 116.026359 L 256.447470 120.003841 L 256.777787 123.988914 L 257.001037 127.982679 L 257.224288 131.976444 L 257.447538 135.970209 L 257.670788 139.963974 L 257.857718 143.959365 L 257.992287 147.957100 L 258.126857 151.954836 L 258.261426 155.952573 L 258.395993 159.950309 L 258.530563 163.948045 L 258.665132 167.945780 L 258.799701 171.943515 L 258.934269 175.941251 L 259.068838 179.938987 L 259.203407 183.936723 L 259.337976 187.934459 L 259.472545 191.932195 L 259.607113 195.929931 L 259.741682 199.927665 L 259.876251 203.925401 L 260.003743 207.923326 L 260.081674 211.922567 L 260.159605 215.921807 L 260.237535 219.921048 L 260.315466 223.920288 L 260.393396 227.919530 L 260.471326 231.918770 L 260.549258 235.918011 L 260.627187 239.917251 L 260.705119 243.916493 L 260.783049 247.915734 L 260.860979 251.914974 L 260.938910 255.914215 L 261.016841 259.913455 L 261.094771 263.912696 L 261.172702 267.911938 L 261.250632 271.911178 L 261.328562 275.910418 L 261.406494 279.909659 L 261.484423 283.908901 L 261.562355 287.908141 L 261.640285 291.907381 L 261.718215 295.906623 L 261.796146 299.905864 L 261.874077 303.905104 L 261.952006 307.904345 L 262.029938 311.903586 L 262.107868 315.902827 L 262.185798 319.902067 L 262.333484 323.898940 L 262.526926 327.894261 L 262.720367 331.889580 L 262.913808 335.884900 L 263.107249 339.880220 L 263.300689 343.875540 L 263.494130 347.870859 L 263.687571 351.866179 L 263.881012 355.861499 L 264.074454 359.856819 L 264.267894 363.852139 L 264.461335 367.847459 L 264.654776 371.842779 L 264.848216 375.838099 L 265.041657 379.833418 L 265.235098 383.828737 L 265.428539 387.824057 L 265.621981 391.819378 L 265.815422 395.814698 L 266.008863 399.810018 L 266.202303 403.805338 L 266.395743 407.800657 L 266.589184 411.795976 L 266.782625 415.791296 L 266.976067 419.786616 L 267.169508 423.781937 L 267.472418 427.769583 L 267.838241 431.752819 L 268.204067 435.736056 L 268.569890 439.719292 L 268.959542 443.700035 L 269.426445 447.672691 L 269.893347 451.645349 L 270.360249 455.618005 L 270.827151 459.590663 L 271.294053 463.563318 L 271.760954 467.535976 L 272.227855 471.508632 L 272.694757 475.481290 L 273.161659 479.453947 L 273.628561 483.426603 L 274.095463 487.399261 L 274.562365 491.371917 L 275.029267 495.344574 L 275.496169 499.317230 L 275.963071 503.289888 L 276.429973 507.262544 L 276.896875 511.235202 L 277.363777 515.207859 L 277.830677 519.180515 L 278.297579 523.153172 L 278.766011 527.125648 L 279.240780 531.097373 L 279.715547 535.069097 L 280.190314 539.040821 L 280.665082 543.012545 L 281.139851 546.984270 L 281.614619 550.955994 L 282.089386 554.927719 L 282.564155 558.899443 L 283.038923 562.871168 L 283.513689 566.842892 L 283.988457 570.814618 L 284.463226 574.786342 L 284.937994 578.758067 L 285.412761 582.729791 L 285.887530 586.701516 L 286.362298 590.673240 L 286.837065 594.644965 L 287.306508 598.572138" fill="none" id="27" stroke="black" stroke-width="0.534895" /><path d="M 287.661977 627.786978 L 286.406801 631.584942 L 286.810296 629.247946 L 286.623911 625.254804 L 286.417873 621.260114 L 286.211837 617.265424 L 286.005800 613.270735 L 285.799763 609.276045 L 285.593727 605.281355 L 285.146314 601.307498 L 284.664809 597.336585 L 284.238180 593.359428 L 283.815218 589.381853 L 283.392257 585.404278 L 282.969294 581.426703 L 282.546333 577.449128 L 282.123371 573.471553 L 281.700409 569.493978 L 281.277447 565.516402 L 280.854486 561.538827 L 280.431524 557.561252 L 280.008562 553.583677 L 279.585600 549.606102 L 279.162639 545.628527 L 278.792754 541.646095 L 278.486820 537.657811 L 278.180885 533.669528 L 277.874952 529.681245 L 277.569018 525.692962 L 277.263084 521.704678 L 277.001818 518.298698" fill="none" id="28" stroke="black" stroke-width="0.534895" /></svg>