<?xml version="1.0" encoding="utf-8" ?>
<svg baseProfile="full" height="320.62513" version="1.1" viewBox="0,0,326.62513,320.62513" width="326.62513" xmlns="http://www.w3.org/2000/svg" xmlns:ev="http://www.w3.org/2001/xml-events" xmlns:xlink="http://www.w3.org/1999/xlink"><defs><style type="text/css"><![CDATA[
	.background { fill: white; }
	.line { stroke: firebrick; stroke-width: .1mm; }
	.blacksquare { fill: indigo; }
	.whitesquare { fill: white; }
]]></style></defs><rect class="background" height="100%" width="100%" x="0" y="0" /><path d="M 42.056565 169.974565 L 46.038065 172.987565 L 49.787265 176.282565 L 53.214265 179.911565 L 56.364865 183.785565 L 59.515465 187.659565 L 62.666065 191.534565 L 65.816665 195.408565 L 68.967265 199.282565 L 72.117865 203.156565 L 75.268465 207.031565 L 78.419065 210.905565 L 81.569565 214.779565 L 84.720165 218.653565 L 87.870665 222.528565 L 90.988965 226.428565 L 93.995165 230.414565 L 96.885265 234.486565 L 99.740565 238.583565 L 102.595565 242.679565 L 105.451565 246.776565 L 108.306565 250.873565 L 111.161565 254.970565 L 114.017565 259.066565 L 116.872565 263.163565 L 119.727565 267.260565 L 122.582565 271.357565 L 125.438565 275.453565 L 128.293565 279.550565 L 131.148565 283.647565 L 134.004565 287.743565 L 136.859565 291.840565 L 139.714565 295.937565 L 142.580565 300.026565 L 145.516565 304.066565 L 148.487565 308.079565 L 151.460565 312.091565 L 154.434565 316.103565 L 157.408565 320.114565" fill="none" id="0" stroke="#c583d9" stroke-width="0.5" /><path d="M 304.228565 80.587565 L 305.479565 79.587565 L 306.730565 78.586565 L 307.868565 77.459565 L 309.006565 76.332565 L 309.985565 75.064565 L 310.964565 73.796565 L 311.726565 72.387565 L 312.488565 70.977565 L 313.111565 69.502565 L 313.735565 68.026565 L 314.324565 66.537565 L 314.913565 65.047565 L 315.502565 63.557565 L 316.091565 62.068565 L 316.680565 60.578565 L 317.269565 59.088565 L 317.858565 57.599565 L 318.447565 56.109565 L 319.027565 54.616565 L 319.608565 53.123565 L 320.129565 51.608565 L 320.649565 50.093565 L 321.031565 48.537565 L 321.412565 46.982565 L 321.706565 45.407565 L 322.000565 43.832565 L 322.289565 42.257565 L 322.577565 40.681565 L 322.840565 39.101565 L 323.103565 37.521565" fill="none" id="1" stroke="#f375a0" stroke-width="0.5" /><path d="M 151.478565 162.439565 L 152.075565 163.674565 L 152.671565 164.910565 L 153.400565 166.071565 L 154.163565 167.211565 L 155.059565 168.242565 L 156.037565 169.205565 L 157.070565 170.102565 L 158.185565 170.903565 L 159.304565 171.697565 L 160.445565 172.460565 L 161.585565 173.222565 L 162.748565 173.951565 L 163.912565 174.678565 L 165.172565 175.204565 L 166.468565 175.657565 L 167.805565 175.904565 L 169.175565 175.983565 L 170.545565 176.024565 L 171.917565 175.991565 L 173.289565 175.954565 L 174.660565 175.885565 L 176.030565 175.816565 L 177.400565 175.723565 L 178.769565 175.628565 L 180.121565 175.413565 L 181.466565 175.137565 L 182.772565 174.741565 L 184.026565 174.184565 L 185.259565 173.588565 L 186.423565 172.861565 L 187.587565 172.134565" fill="none" id="2" stroke="#9de993" stroke-width="0.5" /><path d="M 158.564565 230.470565 L 158.543565 228.077565 L 158.545565 225.684565 L 158.574565 223.292565 L 158.655565 220.901565 L 158.768565 218.510565 L 158.898565 216.121565 L 159.038565 213.733565 L 159.180565 211.344565 L 159.323565 208.955565 L 159.466565 206.567565 L 159.608565 204.178565 L 159.765565 201.791565 L 159.952565 199.406565 L 160.273565 197.035565 L 160.896565 194.733565 L 161.809565 192.540565 L 163.122565 190.539565 L 164.692565 188.738565 L 166.302565 186.968565 L 167.912565 185.197565 L 169.521565 183.427565 L 171.131565 181.656565 L 172.745565 179.890565 L 174.384565 178.147565 L 176.291565 176.725565 L 178.393565 175.635565 L 180.706565 175.024565 L 183.071565 174.674565 L 185.452565 174.502565 L 187.845565 174.517565" fill="none" id="3" stroke="#ad5ba7" stroke-width="0.5" /><path d="M 24.564365 88.446565 L 24.618465 87.096565 L 24.672465 85.745565 L 24.766165 84.396565 L 24.859865 83.048565 L 24.995865 81.703565 L 25.132065 80.358565 L 25.341665 79.022565 L 25.551665 77.687565 L 25.841965 76.366565 L 26.132765 75.046565 L 26.479365 73.739565 L 26.826265 72.433565 L 27.192865 71.131565 L 27.559665 69.830565 L 27.926465 68.529565 L 28.293165 67.228565 L 28.838365 65.991565 L 29.385965 64.755565 L 30.208365 63.683565 L 31.034365 62.613565 L 32.038865 61.708565 L 33.043865 60.804565 L 34.133565 60.003565 L 35.223365 59.204565 L 36.344365 58.448565 L 37.465565 57.693565 L 38.598865 56.956565 L 39.732165 56.219565 L 40.878765 55.502565 L 42.025365 54.786565" fill="none" id="4" stroke="#58f2c3" stroke-width="0.5" /><path d="M 24.790965 35.458565 L 23.660365 34.641565 L 22.529765 33.823565 L 21.462965 32.924565 L 20.399065 32.022565 L 19.436765 31.012565 L 18.482665 29.994565 L 17.602265 28.913565 L 16.732165 27.822565 L 15.872965 26.723565 L 15.016465 25.621565 L 14.189365 24.498565 L 13.373065 23.366565 L 12.602265 22.204565 L 11.854865 21.026565 L 11.148465 19.823565 L 10.471065 18.604565 L 9.805225 17.378565 L 9.150365 16.146565 L 8.496125 14.914565 L 7.842665 13.681565 L 7.188605 12.448565 L 6.533505 11.217565 L 5.876365 9.986565 L 5.214325 8.758565 L 4.547635 7.532565 L 3.864375 6.316565 L 3.177595 5.101565 L 2.470215 3.899565 L 1.761585 2.697565 L 1.037075 1.504565 L 0.312565 0.312565" fill="none" id="5" stroke="#c94e76" stroke-width="0.5" /><path d="M 0.312565 0.312565 L 1.398795 2.074565 L 2.500105 3.826565 L 3.631515 5.559565 L 4.801785 7.265565 L 5.991455 8.959565 L 7.240455 10.609565 L 8.501005 12.250565 L 9.784595 13.873565 L 11.073565 15.492565 L 12.365165 17.109565 L 13.656865 18.726565 L 14.948565 20.343565 L 16.240165 21.960565 L 17.531865 23.577565 L 18.823465 25.194565 L 20.115165 26.811565 L 21.415865 28.421565 L 22.734765 30.016565 L 24.101665 31.569565 L 25.492765 33.101565 L 26.949665 34.571565 L 28.411365 36.036565 L 29.882465 37.492565 L 31.353565 38.947565 L 32.824565 40.403565 L 34.313065 41.841565 L 35.807665 43.272565 L 37.314265 44.691565 L 38.829765 46.100565 L 40.349565 47.505565" fill="none" id="6" stroke="#c94e76" stroke-width="0.5" /><path d="M 7.814415 13.071565 L 8.381345 14.344565 L 8.948265 15.616565 L 9.554395 16.870565 L 10.160555 18.124565 L 10.811165 19.356565 L 11.461965 20.587565 L 12.176365 21.783565 L 12.890965 22.978565 L 13.663765 24.137565 L 14.436565 25.296565 L 15.247065 26.429565 L 16.057565 27.561565 L 16.880565 28.685565 L 17.703665 29.809565 L 18.526665 30.933565 L 19.349765 32.056565 L 20.172765 33.180565 L 20.995865 34.304565 L 21.818865 35.427565 L 22.641965 36.551565 L 23.464965 37.675565 L 24.288065 38.798565 L 25.124965 39.912565 L 25.961965 41.025565 L 26.880165 42.072565 L 27.799165 43.119565 L 28.818465 44.068565 L 29.838665 45.016565 L 30.922165 45.892565 L 32.005865 46.767565" fill="none" id="7" stroke="#57b870" stroke-width="0.5" /><path d="M 11.326165 14.165565 L 11.762865 15.713565 L 12.199465 17.261565 L 12.648765 18.805565 L 13.100065 20.349565 L 13.553965 21.892565 L 14.008965 23.435565 L 14.492765 24.968565 L 14.998665 26.495565 L 15.556565 28.002565 L 16.185665 29.482565 L 16.848165 30.946565 L 17.597165 32.370565 L 18.354065 33.789565 L 19.160765 35.180565 L 19.967565 36.571565 L 20.783165 37.958565 L 21.598865 39.344565 L 22.414565 40.730565 L 23.230165 42.116565 L 24.045865 43.502565 L 24.861565 44.888565 L 25.677265 46.274565 L 26.492865 47.660565 L 27.436165 48.949565 L 28.561465 50.098565 L 29.755265 51.159565 L 31.142065 51.974565 L 32.547865 52.748565 L 34.063965 53.285565 L 35.580065 53.821565" fill="none" id="8" stroke="#57b870" stroke-width="0.5" /><path d="M 303.502565 82.361565 L 304.828565 82.743565 L 306.154565 83.124565 L 307.461565 83.563565 L 308.766565 84.011565 L 310.057565 84.499565 L 311.341565 85.003565 L 312.589565 85.586565 L 313.808565 86.232565 L 314.859565 87.072565 L 315.671565 88.187565 L 316.464565 89.315565 L 317.210565 90.476565 L 317.955565 91.637565 L 318.700565 92.798565 L 319.445565 93.959565 L 320.190565 95.120565 L 320.935565 96.281565 L 321.671565 97.449565 L 322.404565 98.617565 L 322.932565 99.883565 L 323.372565 101.190565 L 323.659565 102.534565 L 323.840565 103.901565 L 324.006565 105.271565 L 324.153565 106.642565 L 324.296565 108.015565 L 324.432565 109.387565 L 324.566565 110.761565 L 324.688565 112.135565 L 324.810565 113.509565" fill="none" id="9" stroke="#d271bb" stroke-width="0.5" /><path d="M 304.388565 83.650565 L 305.869565 82.485565 L 307.328565 81.296565 L 308.724565 80.031565 L 310.079565 78.723565 L 311.390565 77.370565 L 312.543565 75.886565 L 313.637565 74.352565 L 314.561565 72.712565 L 315.462565 71.058565 L 316.293565 69.367565 L 317.117565 67.673565 L 317.930565 65.974565 L 318.743565 64.275565 L 319.556565 62.575565 L 320.367565 60.875565 L 321.174565 59.173565 L 321.952565 57.458565 L 322.676565 55.720565 L 323.297565 53.942565 L 323.790565 52.127565 L 324.192565 50.287565 L 324.581565 48.444565 L 324.967565 46.600565 L 325.353565 44.756565 L 325.708565 42.907565 L 325.981565 41.043565 L 326.133565 39.169565 L 326.166565 37.286565 L 326.086565 35.405565 L 325.970565 33.525565" fill="none" id="10" stroke="#3d8e43" stroke-width="0.5" /></svg>