<?xml version="1.0" encoding="utf-8" ?>
<svg baseProfile="full" height="355.6103" version="1.1" viewBox="0,0,499.6103,355.6103" width="499.6103" xmlns="http://www.w3.org/2000/svg" xmlns:ev="http://www.w3.org/2001/xml-events" xmlns:xlink="http://www.w3.org/1999/xlink"><defs><style type="text/css"><![CDATA[
	.background { fill: white; }
	.line { stroke: firebrick; stroke-width: .1mm; }
	.blacksquare { fill: indigo; }
	.whitesquare { fill: white; }
]]></style></defs><rect class="background" height="100%" width="100%" x="0" y="0" /><path d="M 0.305150 172.870599 L 1.774336 176.167977 L 4.055056 179.454056 L 6.335775 182.740136 L 8.823811 185.870798 L 11.338520 188.981463 L 13.853230 192.092127 L 16.588243 195.010348 L 18.641620 197.187489" fill="none" id="1" stroke="black" stroke-width="0.6103" /><path d="M 235.199330 137.378279 L 237.055332 140.921618 L 238.911335 144.464958 L 240.767337 148.008297 L 242.579432 151.573902 L 244.341301 155.164977 L 246.103169 158.756052 L 247.669315 162.436438 L 249.227210 166.120588 L 250.776483 169.808083 L 252.110536 173.579064 L 253.444590 177.350046 L 254.778644 181.121027 L 255.950645 184.944688 L 257.088989 188.779290 L 258.227333 192.613892 L 259.240411 196.481596 L 260.144995 200.377969 L 261.049579 204.274343 L 261.860525 208.189723 L 262.546682 212.130432 L 263.232840 216.071141 L 263.691049 220.041929 L 264.050556 224.025740 L 264.243230 228.017064 L 264.243230 232.017064 L 264.243230 236.017064 L 264.074356 239.993276 L 262.969350 243.837617 L 261.627582 247.605351 L 260.629470 250.374239" fill="none" id="3" stroke="black" stroke-width="0.6103" /><path d="M 483.477800 34.109079 L 484.837369 37.870936 L 486.173326 41.640691 L 487.350634 45.463510 L 488.527943 49.286329 L 489.531568 53.157667 L 490.505937 57.037178 L 491.446767 60.923719 L 492.112216 64.867978 L 492.777666 68.812236 L 493.413906 72.760223 L 493.760420 76.745186 L 494.106934 80.730148 L 494.453199 84.715128 L 494.639442 88.710790 L 494.825685 92.706451 L 494.988280 96.702664 L 494.988280 100.702664 L 494.988280 104.702664 L 494.988280 108.702664 L 494.988280 112.702664 L 494.988280 116.702664 L 494.988280 120.702664 L 494.988280 124.702664 L 494.988280 128.375849" fill="none" id="4" stroke="black" stroke-width="0.6103" /><path d="M 472.101150 35.557749 L 474.863484 36.213606 L 477.248136 39.425060 L 479.534164 42.704916 L 481.706400 46.063695 L 483.708211 49.526665 L 485.698066 52.996245 L 487.483155 56.575834 L 489.268243 60.155423 L 490.788406 63.849104 L 492.162649 67.605626 L 493.536893 71.362147 L 494.561530 75.227134 L 495.554857 79.101834 L 496.548185 82.976534 L 497.150926 86.929881 L 497.734614 90.887066 L 498.318301 94.844251 L 498.474027 98.840565 L 498.617653 102.837985 L 498.735880 106.835862 L 498.735880 110.835862 L 498.735880 114.835862 L 498.735880 118.835862 L 498.735880 122.835862 L 498.061301 126.776158 L 497.358756 130.713978 L 497.129760 131.997519" fill="none" id="5" stroke="black" stroke-width="0.6103" /><path d="M 4.052750 166.662029 L 3.829774 168.444951 L 4.923456 172.277787 L 6.182642 176.074424 L 7.638878 179.797022 L 9.205858 183.477278 L 10.931041 187.080132 L 12.984991 190.510543 L 15.157223 193.869324 L 15.830920 194.600589" fill="none" id="6" stroke="black" stroke-width="0.6103" /><path d="M 219.673560 93.814819 L 221.570448 97.112047 L 222.968747 100.859681 L 224.367046 104.607315 L 225.765345 108.354949 L 227.260972 112.062366 L 228.915929 115.703948 L 230.570886 119.345530 L 232.303862 122.946959 L 234.305371 126.410189 L 236.485763 129.762235 L 238.705198 133.090013 L 241.030088 135.647748 L 239.653457 131.964148 L 237.467480 128.614297 L 235.281503 125.264446 L 233.095526 121.914594 L 231.373313 118.305020 L 230.113300 115.648289" fill="none" id="7" stroke="black" stroke-width="0.6103" /><path d="M 222.082730 93.607869 L 222.082730 97.607869 L 222.445541 101.590312 L 223.472524 105.450094 L 224.570897 109.296335 L 225.669270 113.142577 L 226.767643 116.988819 L 227.938234 120.813462 L 229.132049 124.631158 L 230.270147 128.464762 L 231.271943 132.337281 L 231.118469 131.948898 L 229.327746 128.378642 L 227.356586 124.898048 L 225.385427 121.417454 L 223.414268 117.936861 L 221.443109 114.456267 L 219.479437 110.971733 L 217.726047 107.376510 L 215.972657 103.781288 L 214.219267 100.186066 L 214.849164 99.870444 L 217.935594 102.405186 L 220.554009 105.420039 L 222.852789 108.691699 L 224.919152 112.115383 L 226.708181 115.690524 L 228.441323 119.295551 L 230.174465 122.900578 L 229.703614 122.503906 L 227.583192 119.112179 L 225.785940 115.545281 L 224.200945 111.873657 L 222.753476 108.146817 L 221.478441 104.355473 L 220.572320 100.460468 L 219.685990 96.559901 L 219.759966 97.505602 L 220.744310 100.126859" fill="none" id="8" stroke="black" stroke-width="0.6103" /><path d="M 456.709230 4.307949 L 459.816180 5.987643 L 462.116546 9.259999 L 464.185242 12.676730 L 465.890782 16.290332 L 467.474476 19.963466 L 468.863015 23.712206 L 469.558140 27.620449 L 467.677044 24.922444 L 465.804273 21.387938 L 463.931181 17.853610 L 461.943777 14.382266 L 459.956373 10.910923 L 457.968969 7.439580 L 456.036229 3.938464 L 454.374871 0.305150 L 455.316696 2.207268 L 457.431266 5.602646 L 459.448773 9.056034 L 461.437580 12.526573 L 463.490854 15.958209 L 465.634491 19.335311 L 467.778128 22.712413 L 469.799372 26.142619 L 468.832280 22.519906 L 467.226042 18.856574 L 465.465030 15.266193 L 463.661718 11.695750 L 461.858406 8.125307 L 460.476984 4.588911 L 461.908490 8.302545 L 463.705957 11.875934 L 465.647350 15.367922 L 467.805977 18.734578 L 470.147325 21.977739 L 470.762730 22.830179" fill="none" id="9" stroke="black" stroke-width="0.6103" /><path d="M 30.553630 190.771969 L 26.921352 192.444440 L 24.407575 195.410994 L 23.995330 199.354137 L 26.703966 202.243589 L 30.225295 204.141019 L 33.903349 205.701742 L 37.676320 207.004011 L 41.565405 207.939436 L 45.527935 208.425003 L 49.517047 208.673349 L 53.517047 208.673349 L 57.504278 208.367275 L 61.239210 207.101014 L 64.642145 205.034937 L 67.365242 202.176979 L 68.283534 198.399540 L 66.778762 195.059303 L 63.323235 193.108227 L 59.551011 191.800485 L 55.620283 191.059288 L 51.637898 190.824348 L 47.638475 190.756392 L 43.639053 190.688436 L 39.647631 190.886362 L 35.747540 191.592800 L 32.134436 193.241255 L 29.843008 196.280805 L 30.811618 199.731229 L 34.219644 201.760640 L 37.952315 203.197090 L 41.863881 204.033543 L 45.806685 204.651074 L 49.796088 204.942043 L 53.792096 205.051679 L 57.792096 205.051679 L 61.745446 204.458028 L 65.588441 203.440170 L 69.105115 201.638165 L 71.096641 198.433512 L 70.367356 194.677967 L 67.068286 192.416928 L 63.401796 190.817913 L 59.594616 189.653346 L 55.686172 188.804040 L 51.694115 188.552092 L 47.699161 188.392019 L 43.699161 188.392019 L 39.719926 188.769181 L 36.104387 190.291275 L 35.408976 193.919450 L 38.756363 195.733934 L 42.638721 196.638435 L 45.544030 197.187489" fill="none" id="10" stroke="black" stroke-width="0.6103" /><path d="M 268.927730 96.608669 L 264.943342 96.298249 L 260.954387 96.498875 L 257.365378 98.108890 L 255.122232 101.287619 L 255.582088 104.949981 L 258.887084 107.058825 L 262.683695 108.278331 L 266.600328 109.090726 L 270.591739 109.317083 L 274.588715 109.439719 L 278.588715 109.439719 L 282.556052 108.972696 L 286.440681 108.116205 L 290.170547 106.681547 L 293.384947 104.321596 L 294.759390 100.727317 L 292.011837 98.202664 L 288.179649 97.068097 L 284.264898 96.302768 L 280.298930 95.782103 L 276.312385 95.471938 L 272.320661 95.214766 L 268.322423 95.160009 L 264.322423 95.160009 L 260.322423 95.160009 L 256.322423 95.160009 L 252.452621 96.104198 L 248.750014 97.527573 L 245.910953 100.042736 L 246.016983 103.861133 L 248.867597 106.271152 L 252.486821 107.961006 L 256.364012 108.944564 L 260.241204 109.928122 L 264.213835 110.334175 L 268.201319 110.650359 L 272.191897 110.888379 L 276.191897 110.888379 L 280.191897 110.888379 L 284.189475 110.780240 L 288.185464 110.601149 L 292.149636 110.198498 L 296.036928 109.255649 L 299.746148 107.835266 L 301.972827 104.941207 L 299.372354 102.369485 L 295.567460 101.140285 L 291.621247 100.486521 L 288.201100 99.919909" fill="none" id="11" stroke="black" stroke-width="0.6103" /><path d="M 469.424300 132.411419 L 465.515634 133.261320 L 461.767666 134.646823 L 458.260764 136.556242 L 455.966272 139.542684 L 456.173860 142.034709" fill="none" id="12" stroke="black" stroke-width="0.6103" /><path d="M 482.273210 137.792179 L 479.271961 135.530732 L 475.385834 134.624293 L 471.417914 134.164100 L 467.425852 133.963569 L 463.425852 133.963569 L 459.437873 134.267234 L 455.648916 135.394454 L 452.512401 137.712502 L 451.623200 141.377091 L 452.683419 145.209934 L 455.935376 147.527357 L 459.493450 149.283318 L 463.244347 150.672843 L 467.151687 151.503299 L 471.086860 152.196196 L 475.082730 152.377919 L 479.080279 152.485799 L 483.080279 152.485799 L 486.991909 151.663483 L 489.927719 149.107387 L 490.182999 145.140326 L 488.269128 142.013824 L 484.987458 139.761194 L 481.349145 138.099062 L 477.563027 136.854275 L 473.689581 135.856070 L 469.756427 135.163062 L 465.792380 134.627959 L 461.810853 134.293897 L 457.813940 134.136774 L 453.815411 134.088272 L 449.815593 134.126451 L 445.815776 134.164629 L 444.120932 136.758421 L 447.852049 138.187840 L 451.754076 139.067719 L 453.898530 139.551279" fill="none" id="13" stroke="black" stroke-width="0.6103" /><path d="M 267.455460 245.924759 L 263.455571 245.895026 L 259.455681 245.865293 L 255.455792 245.835561 L 251.504803 246.269915 L 247.631606 247.219164 L 244.143363 249.167365 L 242.426840 252.643802 L 243.750594 256.151874 L 246.978994 258.345198 L 250.684246 259.824577 L 254.591800 260.679575 L 258.531175 261.256884 L 262.530849 261.307994 L 266.530522 261.359105 L 270.530196 261.410215 L 274.503541 261.197278 L 278.414375 260.357409 L 282.222197 259.192375 L 285.903238 257.627149 L 288.919193 255.001437 L 289.015713 251.142719 L 286.130518 248.849504 L 282.331871 247.646151 L 278.398999 246.916417 L 274.426840 246.520762 L 270.431970 246.318235 L 266.434074 246.235189 L 262.434074 246.235189 L 258.434074 246.235189 L 254.434074 246.235189 L 250.491157 246.787468 L 246.769438 248.105117 L 245.906760 250.063809" fill="none" id="14" stroke="black" stroke-width="0.6103" /><path d="M 33.096650 263.619179 L 31.647327 263.137290 L 33.564063 266.633807 L 35.247480 270.256103 L 37.926150 273.183547 L 40.458000 275.780807 L 37.797471 274.658322 L 35.185293 271.629044 L 32.844359 268.422990 L 31.127688 264.810091 L 32.847723 267.324448 L 35.824132 269.996711 L 39.138969 272.216269 L 42.840072 273.717374 L 44.740970 274.277229" fill="none" id="15" stroke="black" stroke-width="0.6103" /><path d="M 249.654360 335.535109 L 249.595574 339.534677 L 249.536787 343.534245 L 251.119732 347.051951 L 253.755110 350.009927 L 256.953383 352.365869 L 260.568676 354.072602 L 264.484114 354.890734 L 268.463302 355.092099 L 270.400000 355.092099" fill="none" id="16" stroke="black" stroke-width="0.6103" /><path d="M 264.778600 320.841499 L 260.782730 320.659770 L 256.788544 320.824478 L 253.559998 323.099261 L 251.568454 326.565547 L 250.755187 330.477867 L 250.591260 334.461539 L 250.879406 338.442606 L 251.887574 342.218613 L 254.193532 345.487032 L 257.189397 348.114314 L 260.489389 350.342787 L 264.029318 352.193247 L 267.842127 353.402581 L 271.783514 353.921214 L 275.779364 354.057339 L 279.749028 353.856560 L 283.570469 352.674789 L 286.926539 350.514418 L 289.524299 347.526110 L 290.664279 343.789560 L 290.799752 339.807871 L 289.368557 336.319863 L 286.685293 333.373216 L 283.299829 331.242809 L 279.762174 329.427619 L 275.988411 328.101453 L 272.131190 327.120625 L 268.168296 326.577055 L 264.192515 326.222259 L 260.192515 326.222259 L 256.192515 326.222259 L 252.192515 326.222259 L 248.367655 327.095571 L 244.896056 328.951125 L 242.793174 332.141509 L 242.917493 336.120849 L 244.288426 339.713076 L 247.048109 342.608615 L 250.382015 344.814559 L 253.885071 346.703684 L 257.605169 348.173674 L 261.488341 349.088291 L 265.427290 349.726463 L 269.426543 349.803760 L 273.425796 349.881056 L 277.145738 348.878317 L 279.633567 345.951689 L 280.036680 342.048235 L 279.016987 338.216263 L 276.784446 334.999600 L 273.924751 332.225702 L 270.586280 330.022384 L 267.018097 328.276609 L 263.256811 326.915460 L 259.322243 326.249915 L 255.353438 325.808349 L 251.353438 325.808349 L 247.496499 326.719038 L 244.143400 328.696807 L 241.688647 331.751283 L 240.419200 335.538502 L 240.419200 339.538502 L 241.557147 343.317216 L 243.729982 346.527963 L 246.834040 349.050823 L 250.343389 350.914135 L 253.996482 352.543524 L 257.863803 353.517432 L 261.774071 354.359931 L 265.749042 354.687952 L 269.746154 354.839932 L 273.745295 354.885149 L 277.745295 354.885149 L 278.162880 354.885149" fill="none" id="17" stroke="black" stroke-width="0.6103" /><path d="M 244.300640 345.572299 L 247.953405 347.160883 L 251.884880 347.878133 L 255.867160 348.230807 L 259.863991 348.366149 L 263.863991 348.366149 L 267.863991 348.366149 L 271.857971 348.216398 L 275.845063 347.895306 L 279.788540 347.239786 L 283.711496 346.465895 L 287.596473 345.513553 L 291.423378 344.353290 L 295.099493 342.809939 L 295.963980 341.433249" fill="none" id="18" stroke="black" stroke-width="0.6103" /><path d="M 276.690610 349.711339 L 272.690640 349.726724 L 268.690669 349.742110 L 264.690699 349.757496 L 260.690728 349.772882 L 256.690758 349.788268 L 252.690788 349.803654 L 250.883025 349.889818 L 254.873673 350.163192 L 258.864320 350.436566 L 262.860718 350.560616 L 266.860571 350.594976 L 270.860423 350.629337 L 274.855291 350.484934 L 278.801601 349.937128 L 282.672082 348.931383 L 286.479413 347.704913 L 290.089811 345.995449 L 293.585305 344.054209 L 296.826717 341.729838 L 299.662010 338.922998 L 301.110224 337.765245 L 299.111382 341.059177 L 296.363470 343.959158 L 295.027080 345.261869" fill="none" id="19" stroke="black" stroke-width="0.6103" /><path d="M 486.020810 212.398489 L 485.848535 215.714252 L 483.605590 219.024124 L 481.051030 222.092867 L 478.545282 223.720291 L 479.248449 220.105943 L 482.556385 217.869150 L 485.453862 215.120410 L 488.133685 212.150806 L 490.352390 208.838087 L 490.869482 204.960518 L 489.707923 207.497678 L 488.205079 211.192179 L 486.690020 213.847149" fill="none" id="20" stroke="black" stroke-width="0.6103" /><path d="M 487.760770 205.672539 L 487.234386 209.551614 L 485.488705 213.150586 L 483.416420 216.562690 L 481.012908 219.755905 L 478.256446 222.635675 L 476.517970 224.194769" fill="none" id="21" stroke="black" stroke-width="0.6103" /><path d="M 485.083910 144.518129 L 485.310908 142.908875 L 485.448443 146.840787 L 483.268026 150.089033 L 480.533250 152.278839" fill="none" id="22" stroke="black" stroke-width="0.6103" /><path d="M 34.033550 195.221449 L 32.182505 197.210950 L 35.712393 199.020737 L 39.359499 200.663484 L 43.006605 202.306230 L 46.653712 203.948977 L 47.953200 204.534299" fill="none" id="23" stroke="black" stroke-width="0.6103" /><path d="M 241.757630 258.652329 L 245.757630 258.652329 L 249.745809 258.836572 L 253.713011 259.347755 L 257.680213 259.858937 L 261.656103 260.290896 L 265.639806 260.651601 L 269.623509 261.012306 L 273.607212 261.373012 L 277.600799 261.586914 L 281.599337 261.653139 L 285.599337 261.653139 L 289.591923 261.583849 L 293.501372 260.737558 L 297.442495 260.130723 L 298.787045 259.997519 L 294.892472 260.710313 L 291.142254 262.097982 L 287.240227 262.977861 L 283.301168 263.572914 L 279.303876 263.720076 L 275.305828 263.826139 L 271.305828 263.826139 L 267.305828 263.826139 L 263.305828 263.826139 L 259.305828 263.826139 L 256.881870 263.826139" fill="none" id="24" stroke="black" stroke-width="0.6103" /><path d="M 34.033550 259.997519 L 36.558304 258.899729 L 38.993779 262.064197 L 41.184818 265.410739 L 43.375858 268.757282 L 46.069301 271.703693 L 49.150681 274.225533 L 50.143689 274.972630 L 46.792740 272.788336 L 43.499171 270.523309 L 40.515196 267.869423 L 37.993369 264.775135 L 38.454579 262.170519 L 41.666672 264.511074 L 44.852377 266.930016 L 48.146821 269.193670 L 51.586312 271.227796 L 55.135831 273.070880 L 58.852802 274.548760 L 62.569772 276.026640 L 66.286743 277.504521 L 69.100370 278.623229" fill="none" id="25" stroke="black" stroke-width="0.6103" /><path d="M 291.948690 338.225489 L 287.994061 338.676067 L 284.099737 339.588742 L 280.207734 340.511949 L 276.315731 341.435156 L 272.423728 342.358364 L 268.531725 343.281571 L 264.639722 344.204778 L 260.674356 344.641009 L 256.704736 344.349670 L 254.842380 341.743679 L 258.750939 342.497466 L 262.727061 342.881919 L 266.727061 342.881919 L 270.727061 342.881919 L 274.708453 342.587783 L 278.525128 341.396694 L 282.230249 339.894000 L 285.851822 338.195704 L 289.473395 336.497407 L 290.377199 336.563244 L 286.698860 338.134811 L 283.020522 339.706378 L 279.214549 340.897170 L 275.332142 341.859936 L 271.375158 342.404659 L 267.399333 342.843770 L 263.401613 342.918117 L 259.401809 342.957760 L 255.500340 342.506982 L 254.577645 341.536729 L 258.576344 341.572458 L 262.565747 341.863427 L 266.558802 342.054109 L 270.558802 342.054109 L 274.557132 342.006509 L 278.487085 341.379733 L 282.266137 340.078808 L 285.941039 338.521643 L 289.433498 336.571585 L 291.411143 335.127589 L 287.696302 336.465179 L 284.127955 338.272634 L 280.506383 339.965241 L 276.820696 341.519496 L 272.954546 342.517073 L 269.047266 343.358777 L 265.067674 343.735942 L 261.068840 343.800630 L 257.069027 343.761979 L 253.069214 343.723327 L 249.543937 342.418857 L 249.386670 341.226299" fill="none" id="26" stroke="black" stroke-width="0.6103" /><path d="M 255.677290 341.433249 L 259.677290 341.433249 L 263.677290 341.433249 L 267.645501 341.216152 L 271.069210 340.191539" fill="none" id="27" stroke="black" stroke-width="0.6103" /><path d="M 246.040600 319.082399 L 242.344944 320.539972 L 239.855160 323.598376 L 239.340207 327.462860 L 240.472033 331.004547 L 243.758590 333.246352 L 247.463651 334.699745 L 251.360557 335.573861 L 255.336079 335.874464 L 259.335805 335.921314 L 263.314085 335.684343 L 267.151506 334.700690 L 270.647442 332.776195 L 273.775454 330.304252 L 276.251682 327.168761 L 278.040798 323.592171 L 279.091761 319.732705 L 279.169157 315.734384 L 279.073479 311.779340 L 276.695439 308.668702 L 273.182507 306.819612 L 269.279065 305.946032 L 265.291067 305.837449 L 261.291067 305.837449 L 257.291067 305.837449 L 253.479983 306.895159 L 249.834738 308.477266 L 246.634260 310.876629 L 244.303650 314.078100 L 243.497590 317.845313 L 243.899706 321.805261 L 245.317576 325.401910 L 248.058302 328.315400 L 251.244014 330.703072 L 254.570638 332.924237 L 258.237667 334.520287 L 261.943655 336.005104 L 265.826591 336.965732 L 269.759280 337.586610 L 273.754619 337.779665 L 277.753848 337.811589 L 281.642302 337.178738 L 285.190478 335.467494 L 287.950266 332.612526 L 289.698253 329.037973 L 290.041894 325.052762 L 290.074890 321.054182 L 288.810325 317.375495 L 286.729967 313.987355 L 283.922271 311.138347 L 280.680658 308.849497 L 277.172328 306.959200 L 273.304415 305.939763 L 269.357893 305.527029 L 265.361622 305.567708 L 261.428275 306.294884 L 257.706789 307.614041 L 254.205224 309.547700 L 251.226239 312.197929 L 248.806156 315.299539 L 247.245190 318.945630 L 247.245190 322.945630 L 247.701024 326.915060 L 249.450153 330.345664 L 252.146154 333.269424 L 255.442759 335.534904 L 259.079801 337.135234 L 262.900334 338.253157 L 266.870417 338.741466 L 270.863991 338.846349 L 274.801313 338.477284 L 278.577048 337.156744 L 281.976943 335.093435 L 284.908119 332.459051 L 287.214077 329.190632 L 287.766155 325.238863 L 287.612799 321.268765 L 286.586262 317.532176 L 284.048365 314.440400 L 281.109213 311.786207 L 277.809604 309.525106 L 274.160746 307.950437 L 270.381713 306.665259 L 266.381713 306.665259 L 262.445901 307.184119 L 258.696338 308.408667 L 255.669699 311.023903 L 253.234748 314.145242 L 251.123666 317.542099 L 250.152254 321.422352 L 249.520520 325.344477 L 249.520520 329.344477 L 249.750898 333.333217 L 250.140986 337.314150 L 251.987966 340.814521 L 254.281769 344.045925 L 257.304286 346.665924 L 260.985543 348.048594 L 264.902081 348.676579 L 268.902081 348.676579 L 272.442288 346.820954 L 275.623859 344.487617 L 278.356823 341.566844 L 280.346794 338.130920 L 282.082519 334.532788 L 282.937849 330.625307 L 283.516600 326.687909 L 283.516600 322.687909 L 283.516600 318.687909 L 282.747250 314.859809 L 280.157916 312.048451 L 276.327841 311.425169 L 272.349668 311.787870 L 268.769367 313.376455 L 265.665313 315.848760 L 263.138974 318.909496 L 261.414225 322.502442 L 261.070575 326.487653 L 261.031000 326.946589" fill="none" id="28" stroke="black" stroke-width="0.6103" /><path d="M 15.161710 165.109889 L 16.714676 168.737892 L 18.930119 172.068330 L 21.145561 175.398767 L 23.078562 178.900417 L 25.006492 182.405140 L 26.848052 185.954127 L 28.567211 189.565843 L 30.286371 193.177559 L 32.005530 196.789275 L 32.593616 198.369840 L 30.896804 194.762345 L 28.985387 191.248588 L 27.073970 187.734832 L 25.313091 184.147042 L 23.742322 180.468971 L 22.314300 176.734924 L 21.153831 172.906959 L 19.993362 169.078995 L 18.832894 165.251030 L 18.884264 166.992814 L 20.364331 170.705838 L 21.989448 174.360834 L 23.614565 178.015830 L 25.239683 181.670825 L 26.723813 185.384792 L 28.184944 189.108378 L 29.609879 192.845648 L 30.769755 196.667774 L 29.924978 193.226840 L 28.512097 189.487805 L 27.013091 185.779304 L 25.514085 182.070803 L 23.850492 178.435995 L 22.082483 174.847939 L 20.221311 171.314360 L 20.074053 172.665913 L 21.848940 176.248313 L 23.780445 179.751067 L 25.711950 183.253822 L 27.643456 186.756576 L 29.574961 190.259330 L 31.506467 193.762084 L 32.025900 194.704069" fill="none" id="29" stroke="black" stroke-width="0.6103" /><path d="M 30.018260 188.288549 L 26.872151 187.293426 L 28.286433 186.354530 L 32.167578 187.304391 L 36.129249 187.820686 L 40.075795 188.244278 L 40.190320 188.288549" fill="none" id="30" stroke="black" stroke-width="0.6103" /><path d="M 55.849930 141.931229 L 52.046101 143.168517 L 48.242272 144.405806 L 44.438442 145.643094 L 40.634613 146.880383 L 36.830784 148.117672 L 33.047301 149.411211 L 29.348311 150.929525 L 25.855805 152.861451 L 26.555878 154.762269 L 30.532402 154.426608 L 34.429289 153.577831 L 38.255125 152.411370 L 42.017729 151.053868 L 45.780333 149.696367 L 49.542937 148.338865 L 53.305541 146.981364 L 57.068145 145.623863 L 55.287746 145.573243 L 51.485374 146.815003 L 47.683002 148.056763 L 43.880630 149.298523 L 40.084903 150.559036 L 36.349072 151.988568 L 32.613241 153.418101 L 28.877409 154.847633 L 25.200871 156.417449 L 21.579940 158.116074 L 18.050312 159.998022 L 17.259222 162.109079 L 21.230730 161.677237 L 25.039324 160.547682 L 28.759887 159.078868 L 32.480449 157.610054 L 36.167000 156.064380 L 39.756144 154.298580 L 43.345288 152.532781 L 44.901641 150.274594 L 40.903580 150.209319 L 36.917918 150.515983 L 33.099845 151.611816 L 29.348094 152.999032 L 25.620807 154.446363 L 21.973773 156.087467 L 18.491153 158.055043 L 15.039208 160.062356 L 13.970210 163.257435 L 17.936587 163.234952 L 21.934774 163.114520 L 24.396860 163.040359" fill="none" id="31" stroke="black" stroke-width="0.6103" /><path d="M 21.987690 163.350789 L 21.225822 167.277563 L 20.628950 171.227906 L 20.515420 175.222672 L 21.990206 178.472822 L 22.665441 177.451696 L 22.389220 173.475655 L 22.389220 169.475655 L 22.389220 165.475655 L 22.576664 161.487728 L 23.861942 157.762213 L 26.350569 154.659134 L 29.540188 152.271488 L 33.000556 150.265035 L 36.744574 148.896237 L 34.911428 151.452025 L 31.483446 153.513321 L 28.185732 155.765127 L 25.341737 158.564666 L 23.167234 161.913787 L 21.553013 165.564949 L 20.505420 169.417958 L 20.113890 173.391977 L 20.113890 177.391977 L 20.113890 181.391977 L 21.184630 180.514416 L 20.798880 176.535146 L 20.515420 172.550378 L 20.515420 168.550378 L 21.224260 164.679641 L 23.492524 161.414805 L 26.271136 158.538694 L 29.326022 155.969363 L 32.738464 153.930093 L 36.587745 152.937503 L 37.691373 152.485799 L 33.841141 153.439716 L 30.429944 155.496786 L 27.300149 157.987645 L 24.672518 160.976768 L 22.788817 164.493511 L 21.848999 168.358238 L 21.770624 172.357470 L 22.280973 176.241195 L 24.776889 179.353473 L 23.685330 176.471846 L 22.700009 172.599924 L 22.348897 168.637376 L 22.288743 164.637828 L 23.110565 160.856771 L 25.543369 157.711216 L 28.521210 155.057727 L 32.026438 153.140900 L 35.672781 151.496461 L 38.340340 151.120288 L 34.677065 152.617106 L 31.201356 154.586411 L 28.279114 157.282364 L 26.400102 160.780913 L 25.626872 164.691939 L 25.492299 168.685362 L 25.541105 172.685064 L 25.589910 176.684766 L 26.228252 180.612859 L 28.679830 181.252169" fill="none" id="32" stroke="black" stroke-width="0.6103" /><path d="M 26.538350 154.244889 L 23.654746 156.841038 L 22.165567 160.524239 L 21.926228 164.495643 L 21.854382 168.494997 L 23.940192 171.894344 L 27.150361 174.280724 L 30.733071 176.050281 L 34.595682 177.042355 L 38.575230 177.301990 L 42.574989 177.320069 L 46.256315 175.896862 L 49.168014 173.169165 L 51.430777 169.912344 L 52.508187 166.111172 L 52.637700 162.119513 L 50.865902 158.564990 L 48.205622 155.577866 L 45.545342 152.590742 L 42.412005 150.110491 L 38.772139 148.626154 L 34.777774 148.683629 L 31.342137 150.460187 L 28.610233 153.341596 L 26.510966 156.719213 L 25.075616 160.419761 L 24.396860 164.353595 L 24.396860 168.353595 L 25.242192 172.259117 L 27.774902 175.289431 L 31.164064 177.322332 L 34.988508 178.348576 L 38.963462 178.665259 L 42.929168 178.368528 L 46.707697 177.195001 L 49.987615 174.908034 L 52.550457 171.836904 L 54.057890 168.138992 L 54.052502 164.155995 L 52.571254 160.609034 L 49.365782 158.229265 L 45.749121 156.520532 L 41.952254 155.296365 L 38.065510 154.367760 L 34.123827 153.740253 L 30.125465 153.854741 L 26.477186 154.788190 L 24.189426 157.985027 L 23.090088 161.798915 L 22.790750 165.773625 L 23.373667 169.674671 L 25.424627 172.952933 L 28.660256 175.210038 L 32.429521 176.548936 L 36.420845 176.664333 L 40.420214 176.735412 L 44.403179 176.720437 L 48.095976 175.183149 L 51.450703 173.063948 L 54.328324 170.343905 L 56.416560 166.971064 L 57.322200 163.089165 L 56.866398 159.245285 L 54.194277 156.346288 L 50.662208 154.468926 L 46.779561 153.511773 L 42.816016 153.179998 L 38.816260 153.135821 L 35.117616 153.959699 L 32.513841 156.866716 L 31.490530 160.644182 L 31.661314 164.633703 L 32.025900 167.593319" fill="none" id="33" stroke="black" stroke-width="0.6103" /><path d="M 207.092340 96.919099 L 204.034989 99.401884 L 202.462633 102.984448 L 202.140150 106.954051 L 203.131338 110.733977 L 205.773601 113.516294 L 209.226294 115.507064 L 213.035372 116.728100 L 216.970506 117.297206 L 220.962833 117.510859 L 224.915080 117.304226 L 227.589775 114.724844 L 226.800044 111.050705 L 225.964180 109.957099" fill="none" id="34" stroke="black" stroke-width="0.6103" /><path d="M 234.396270 70.946589 L 236.147487 71.155903 L 239.896712 69.778908 L 243.579000 68.216617 L 247.261289 66.654326 L 250.989213 65.208400 L 254.798475 63.997651 L 258.716786 63.255482 L 260.227940 63.082399" fill="none" id="35" stroke="black" stroke-width="0.6103" /><path d="M 451.221670 14.034709 L 452.426228 17.722184 L 455.074797 20.710567 L 457.849747 23.591479 L 460.770178 26.324621 L 463.694047 29.054271 L 466.467594 31.930299 L 466.747440 32.660409" fill="none" id="36" stroke="black" stroke-width="0.6103" /><path d="M 452.158570 15.483369 L 454.088720 18.986870 L 456.018869 22.490371 L 457.949019 25.993873 L 459.686857 29.595125 L 461.168013 33.308814 L 462.330630 36.902939" fill="none" id="37" stroke="black" stroke-width="0.6103" /><path d="M 449.080190 8.343519 L 450.758392 11.969565 L 452.587811 15.522672 L 454.265282 19.153939 L 456.041612 22.736186 L 457.848685 26.303285 L 459.534195 29.930826 L 461.219706 33.558367 L 462.124896 34.746508 L 460.037718 31.345460 L 457.887826 27.972336 L 455.737933 24.599213 L 453.588040 21.226090 L 451.623175 17.744652 L 449.734388 14.218680 L 447.845600 10.692708 L 447.814902 10.303993 L 449.783385 13.781203 L 451.833745 17.215738 L 453.807636 20.694571 L 455.767132 24.181744 L 457.726628 27.668917 L 459.617522 31.190811 L 458.502245 30.465981 L 456.330011 27.107202 L 454.277410 23.678693 L 452.425413 20.133258 L 450.573415 16.587823 L 448.834461 12.989820 L 447.607910 10.766709 L 448.775315 14.521820 L 450.428095 18.162310 L 452.349898 21.670397 L 454.271700 25.178484 L 454.969270 26.451839" fill="none" id="38" stroke="black" stroke-width="0.6103" /><path d="M 440.648090 14.965989 L 438.514791 11.611985 L 435.033366 9.999139 L 431.213047 10.880891 L 428.387354 13.636667 L 426.163411 16.945105 L 424.557498 20.564075 L 423.650050 24.448601 L 423.650050 28.448601 L 424.383188 32.357513 L 426.869219 35.195418 L 430.389368 36.944921 L 434.287590 37.834219 L 438.287590 37.834219 L 442.187514 37.123123 L 445.630786 35.317136 L 447.763165 32.106994 L 448.277130 28.174257 L 446.959729 24.571910 L 444.446383 21.490820 L 441.517187 18.774612 L 438.204063 16.533360 L 434.641117 14.732025 L 430.825964 13.662503 L 426.845725 13.413849 L 423.281248 14.917068 L 420.947655 18.097271 L 420.187308 21.989646 L 420.205667 25.975016 L 422.841762 28.983505 L 426.429890 30.710768 L 430.288559 31.638057 L 434.257702 32.039559 L 438.257702 32.039559 L 442.194167 31.339830 L 445.745196 29.645376 L 448.641219 26.968202 L 449.907177 23.322673 L 449.405562 19.390492 L 446.413728 16.836598 L 442.929827 14.903768 L 439.231916 13.447611 L 435.321887 12.604004 L 431.334839 12.482559 L 427.349191 12.700956 L 423.406764 13.283814 L 420.134198 15.583881 L 417.467092 18.505893 L 415.667631 21.986985 L 414.950260 25.905567 L 415.040406 29.873427 L 417.571028 32.971160 L 420.832063 35.201253 L 424.459228 36.796152 L 428.358789 37.686894 L 432.342177 37.834219 L 436.330962 37.671805 L 440.292999 37.122017 L 443.595367 34.881467 L 445.832466 31.644015 L 446.135640 27.723849 L 444.277974 24.247687 L 441.421936 21.514980 L 438.208804 19.146986 L 434.734642 17.164512 L 431.100822 15.517938 L 427.359711 14.115505 L 423.394107 13.592065 L 419.405818 13.413849 L 415.836922 14.638009 L 413.288863 17.597883 L 411.976564 21.302711 L 411.898976 25.299375 L 412.455871 29.260419 L 415.036742 32.157755 L 418.278917 34.398528 L 421.976894 35.923312 L 425.871279 36.740535 L 429.827846 37.316839 L 433.827846 37.316839 L 436.231270 37.316839" fill="none" id="39" stroke="black" stroke-width="0.6103" /><path d="M 434.223630 14.034709 L 432.487669 10.779119 L 436.414058 10.413039 L 440.414058 10.413039 L 444.200969 11.542955 L 447.438168 13.879317 L 450.080868 16.860685 L 448.734323 15.614315 L 445.753316 12.996818 L 442.086287 11.477794 L 438.090974 11.401467 L 434.091257 11.353897 L 430.192411 12.141743 L 433.458416 11.314782 L 437.453007 11.137369 L 441.425872 11.282818 L 443.732645 14.491461 L 445.332590 17.345939" fill="none" id="40" stroke="black" stroke-width="0.6103" /><path d="M 433.688260 11.861709 L 429.688260 11.861709 L 430.005379 10.998995 L 433.803364 9.770227 L 437.778924 9.585229 L 441.758729 9.822034 L 445.533976 11.092155 L 449.077288 12.915371 L 451.031940 15.810859 L 447.741895 13.650438 L 444.177741 11.855570 L 440.368897 10.653895 L 437.614643 9.895659 L 439.711190 9.895659" fill="none" id="41" stroke="black" stroke-width="0.6103" /><path d="M 460.858360 29.452649 L 456.859687 29.349607 L 460.760495 29.939765 L 460.858360 30.694369" fill="none" id="43" stroke="black" stroke-width="0.6103" /><path d="M 217.933610 134.687899 L 219.223983 134.366681 L 223.121985 133.475988 L 226.986997 132.445608 L 230.821143 131.314290 L 234.601421 130.006813 L 238.381699 128.699336 L 242.119855 127.278390 L 245.814518 125.747807 L 249.464681 124.111863 L 253.114844 122.475919 L 251.033400 123.782468 L 247.198649 124.900765 L 243.334271 125.933520 L 239.473631 126.978249 L 235.708013 128.327369 L 231.942396 129.676488 L 228.171499 131.010064 L 224.363067 132.233110 L 220.554634 133.456155 L 223.192774 133.011482 L 226.918601 131.556074 L 230.644428 130.100665 L 234.370255 128.645256 L 238.154173 127.348847 L 241.940696 126.059566 L 245.727218 124.770285 L 249.513741 123.481004 L 253.300264 122.191723 L 257.086787 120.902441 L 259.821432 119.787329 L 255.852694 120.073795 L 251.980608 121.071171 L 248.241527 122.484461 L 245.906760 123.408999" fill="none" id="44" stroke="black" stroke-width="0.6103" /><path d="M 203.344740 107.887579 L 203.440481 109.484666 L 205.036082 113.149597 L 206.697803 116.786770 L 208.574245 120.319234 L 210.785303 123.652584 L 213.144450 126.881498 L 215.776965 129.880835 L 217.665920 131.790569" fill="none" id="45" stroke="black" stroke-width="0.6103" /><path d="M 98.411950 134.170519 L 95.648931 137.050934 L 93.822361 140.586198 L 92.648446 144.407856 L 92.420556 148.388044 L 92.305627 152.386393 L 93.067060 156.233668 L 95.191753 159.499539 L 98.290035 161.980865 L 101.899622 163.704490 L 102.025710 163.764699" fill="none" id="46" stroke="black" stroke-width="0.6103" /><path d="M 328.220100 51.493069 L 331.269434 49.416122 L 335.021500 48.072785 L 338.927844 47.224620 L 342.909262 46.956414 L 346.907624 46.841926 L 350.633081 48.229171 L 353.720829 50.749116 L 356.021197 54.021472 L 358.321564 57.293827 L 360.493141 60.638205 L 361.906523 64.374070 L 362.082340 67.842299" fill="none" id="47" stroke="black" stroke-width="0.6103" /><path d="M 360.610070 60.392019 L 362.658846 63.809727 L 364.929757 67.101229 L 366.938543 70.560243 L 367.703740 71.877869" fill="none" id="48" stroke="black" stroke-width="0.6103" /><path d="M 203.210890 105.507619 L 203.975211 101.665370 L 207.015547 99.148770 L 210.599096 97.375052 L 214.401087 96.154469 L 218.237626 95.022670 L 222.092963 93.968057 L 226.020279 93.208984 L 229.970097 92.577639 L 233.949399 92.186089 L 237.948246 92.159199 L 236.410083 90.491499 L 232.410542 90.430873 L 228.510761 91.019779 L 224.784057 92.468265 L 221.080499 93.979442 L 217.383660 95.506436 L 213.724807 97.122850 L 210.656951 99.451033 L 210.749654 103.386662 L 213.410331 106.263987 L 215.925960 108.301479" fill="none" id="49" stroke="black" stroke-width="0.6103" /><path d="M 244.836020 262.687899 L 244.637270 266.682958 L 244.438521 270.678017 L 244.385986 274.677617 L 244.336479 278.677310 L 244.286971 282.677004 L 244.237463 286.676698 L 244.187956 290.676391 L 244.180086 294.676222 L 244.203287 298.676154 L 244.226487 302.676087 L 244.249687 306.676020 L 244.272887 310.675953 L 244.296088 314.675885 L 244.790830 318.638284 L 245.400683 322.591521 L 246.010536 326.544757 L 246.168291 330.540308 L 246.302604 334.538052 L 246.308290 334.707299" fill="none" id="50" stroke="black" stroke-width="0.6103" /><path d="M 46.213240 255.134139 L 46.474721 252.611632 L 48.386729 256.114901 L 51.206487 258.825787 L 53.574600 259.997519" fill="none" id="51" stroke="black" stroke-width="0.6103" /></svg>