<?xml version="1.0" encoding="utf-8" ?>
<svg baseProfile="full" height="742.5" version="1.1" viewBox="0,0,748.5,742.5" width="748.5" xmlns="http://www.w3.org/2000/svg" xmlns:ev="http://www.w3.org/2001/xml-events" xmlns:xlink="http://www.w3.org/1999/xlink"><defs><style type="text/css"><![CDATA[
	.background { fill: white; }
	.line { stroke: firebrick; stroke-width: .1mm; }
	.blacksquare { fill: indigo; }
	.whitesquare { fill: white; }
]]></style></defs><rect class="background" height="100%" width="100%" x="0" y="0" /><path d="M 0.250000 620.187010 L 3.854708 618.481702 L 7.609531 617.102825 L 11.364354 615.723948 L 15.098256 614.293833 L 18.745090 612.650482 L 22.391924 611.007132 L 26.038759 609.363782 L 29.687642 607.725184 L 33.386269 606.201978 L 37.084896 604.678771 L 40.783522 603.155564 L 44.482149 601.632357 L 48.180776 600.109150 L 51.879403 598.585944 L 55.578030 597.062737 L 59.261295 595.503459 L 62.922413 593.892183 L 66.583532 592.280907 L 70.192053 590.555387 L 73.796734 588.821526 L 77.401415 587.087664 L 81.006096 585.353803 L 84.610777 583.619942 L 88.215458 581.886080 L 91.820139 580.152219 L 95.424820 578.418357 L 99.036468 576.699229 L 102.663770 575.013205 L 106.291072 573.327181 L 109.918375 571.641156 L 113.545677 569.955132 L 117.172979 568.269108 L 120.800282 566.583084 L 124.417941 564.876854 L 128.010141 563.117281 L 131.602342 561.357708 L 135.194542 559.598135 L 138.786742 557.838563 L 142.378942 556.078990 L 145.971143 554.319417 L 149.563343 552.559844 L 153.109712 550.710649 L 156.639123 548.828296 L 160.168535 546.945943 L 163.697947 545.063590 L 167.292255 543.315177 L 170.956884 541.711902 L 174.621513 540.108627 L 178.286143 538.505351 L 181.928675 537.311118 L 185.503250 535.867526 L 189.087864 534.092551 L 192.672479 532.317575 L 196.257094 530.542600 L 199.841708 528.767624 L 203.426323 526.992649 L 207.010937 525.217673 L 210.595552 523.442698 L 214.180167 521.667722 L 217.764781 519.892747 L 221.349396 518.117771 L 224.934011 516.342796 L 228.518625 514.567820 L 232.103240 512.792845 L 235.233612 512.226820 L 238.831784 510.479491 L 242.429955 508.732161 L 246.028127 506.984831 L 249.626299 505.237502 L 253.224470 503.490172 L 256.822642 501.742842 L 260.420813 499.995513 L 264.018985 498.248183 L 267.617157 496.500854 L 271.224711 494.773587 L 274.872398 493.132128 L 278.520084 491.490669 L 282.167770 489.849211 L 285.815456 488.207752 L 289.463142 486.566293 L 293.061383 484.820688 L 296.639092 483.031834 L 300.216801 481.242980 L 303.794510 479.454125 L 307.372218 477.665271 L 310.771023 476.485112 L 314.121368 475.517585 L 317.709492 473.749716 L 321.297617 471.981847 L 324.885742 470.213978 L 328.473867 468.446109 L 332.061992 466.678241 L 335.650117 464.910372 L 339.238242 463.142503 L 342.826366 461.374634 L 346.414491 459.606765 L 350.002616 457.838897 L 353.641458 456.181222 L 357.318038 454.605545 L 360.994618 453.029868 L 364.671198 451.454191 L 368.347778 449.878514 L 372.024358 448.302837 L 375.676045 446.670487 L 379.323731 445.029028 L 382.971417 443.387569 L 386.619103 441.746111 L 390.266789 440.104652 L 393.973010 439.049276 L 397.612047 437.388731 L 401.251084 435.728187 L 404.890121 434.067642 L 408.529159 432.407098 L 412.168196 430.746553 L 415.807233 429.086009 L 419.446270 427.425464 L 423.085307 425.764919 L 426.724345 424.104375 L 430.363382 422.443830 L 434.002419 420.783286 L 437.663204 419.171903 L 441.339784 417.596225 L 445.016364 416.020548 L 448.692944 414.444871 L 452.369524 412.869194 L 456.046104 411.293517 L 459.722685 409.717839 L 463.399265 408.142162 L 467.075845 406.566485 L 470.752425 404.990808 L 474.429005 403.415131 L 477.791505 402.651096 L 481.383499 401.265889 L 485.054115 399.676366 L 488.724731 398.086844 L 492.395346 396.497322 L 496.065962 394.907800 L 499.736578 393.318278 L 503.407193 391.728756 L 507.077809 390.139234 L 510.748425 388.549712 L 514.419040 386.960189 L 518.089656 385.370667 L 521.760272 383.781145 L 525.430887 382.191623 L 529.101503 380.602101 L 532.772119 379.012579 L 536.442734 377.423057 L 540.120189 375.849958 L 543.834096 374.364396 L 547.548003 372.878833 L 551.261910 371.393270 L 554.975816 369.907707 L 558.689723 368.422145 L 562.287616 367.428629 L 565.934046 365.784381 L 569.580475 364.140133 L 573.226904 362.495884 L 576.873334 360.851636 L 580.519763 359.207388 L 584.166193 357.563139 L 587.812622 355.918891 L 591.459052 354.274643 L 595.105481 352.630395 L 598.533460 351.084650" fill="none" id="1" stroke="black" stroke-width="0.5" /><path d="M 259.557080 719.706700 L 262.978583 717.634668 L 266.400087 715.562637 L 269.819886 713.487862 L 273.193903 711.339372 L 276.567920 709.190882 L 279.941937 707.042392 L 283.315955 704.893903 L 286.689972 702.745413 L 290.063989 700.596923 L 293.438006 698.448433 L 296.820038 696.312702 L 300.220196 694.205826 L 303.620354 692.098950 L 307.020512 689.992074 L 310.420669 687.885198 L 313.820827 685.778322 L 317.220985 683.671446 L 320.621143 681.564570 L 324.012273 679.443343 L 327.383544 677.290546 L 330.754814 675.137749 L 334.126085 672.984952 L 337.497355 670.832155 L 340.868626 668.679358 L 344.239896 666.526561 L 347.611167 664.373764 L 350.982438 662.220967 L 354.353708 660.068170 L 357.724979 657.915373 L 361.096249 655.762576 L 364.467520 653.609779 L 367.845245 651.467237 L 371.244214 649.358443 L 374.643182 647.249649 L 378.042151 645.140855 L 381.441120 643.032061 L 384.840088 640.923267 L 388.239057 638.814473 L 391.638026 636.705679 L 395.036994 634.596885 L 398.435963 632.488091 L 401.834932 630.379297 L 405.233900 628.270503 L 408.601633 626.112253 L 411.966347 623.949223 L 415.331061 621.786192 L 418.695775 619.623162 L 422.141795 617.594173 L 425.614768 615.609617 L 429.087740 613.625061 L 432.560713 611.640505 L 436.008835 610.479460 L 439.445397 608.432501 L 442.881959 606.385542 L 446.318521 604.338583 L 449.755083 602.291624 L 453.191645 600.244664 L 456.628207 598.197705 L 460.064769 596.150746 L 463.501331 594.103787 L 466.987169 592.141939 L 470.473471 590.180894 L 473.959773 588.219849 L 477.446075 586.258804 L 480.909774 584.258862 L 484.339746 582.200879 L 487.769717 580.142896 L 491.199689 578.084913 L 494.618817 576.157454 L 497.958823 575.199142 L 501.390398 573.143834 L 504.821974 571.088527 L 508.253549 569.033219 L 511.685125 566.977911 L 515.116700 564.922604 L 518.548276 562.867296 L 521.979851 560.811988 L 525.411427 558.756680 L 528.912712 556.825046 L 532.447864 554.953495 L 535.983015 553.081944 L 539.518167 551.210393 L 543.053319 549.338843 L 546.546255 547.389953 L 550.032558 545.428908 L 553.518860 543.467863 L 557.005162 541.506818 L 560.526765 539.915307 L 563.974352 537.886971 L 567.421938 535.858635 L 570.869525 533.830300 L 574.317112 531.801964 L 577.764699 529.773628 L 581.212285 527.745293 L 584.659872 525.716957 L 588.107459 523.688621 L 591.555045 521.660285 L 595.030360 519.680144 L 598.516662 517.719099 L 602.002965 515.758054 L 605.489267 513.797009 L 608.981764 511.847313 L 612.516915 509.975762 L 616.052067 508.104211 L 619.587219 506.232660 L 623.122370 504.361109 L 626.458068 503.053557 L 629.928857 501.065185 L 633.399646 499.076813 L 636.870435 497.088441 L 640.341224 495.100069 L 643.812014 493.111697 L 647.282803 491.123325 L 650.753592 489.134953 L 654.224381 487.146581 L 657.695170 485.158209 L 661.165959 483.169837 L 664.636748 481.181465 L 668.107537 479.193094 L 671.578326 477.204722 L 675.031291 475.185951 L 678.461263 473.127968 L 681.891235 471.069985 L 685.321206 469.012002 L 688.757907 467.203347 L 692.208960 465.811160 L 695.642850 463.759721 L 699.076740 461.708282 L 702.510629 459.656843 L 705.944519 457.605404 L 709.378409 455.553966 L 712.812299 453.502527 L 716.246188 451.451088 L 719.711974 449.456109 L 723.241386 447.573756 L 726.770798 445.691403 L 730.300209 443.809050 L 733.824885 441.918121 L 737.297858 439.933566 L 740.770830 437.949010 L 744.243803 435.964454 L 747.533460 434.084650" fill="none" id="2" stroke="black" stroke-width="0.5" /><path d="M 215.714560 741.438980 L 219.225166 739.521782 L 222.735771 737.604584 L 226.246377 735.687385 L 229.746384 733.751187 L 233.222087 731.771417 L 236.697790 729.791648 L 240.173493 727.811878 L 243.649196 725.832109 L 247.124900 723.852339 L 250.600603 721.872570 L 254.076306 719.892800 L 257.552009 717.913031 L 261.027713 715.933262 L 264.467596 713.892334 L 267.894527 711.829291 L 271.321458 709.766248 L 274.748388 707.703206 L 278.175319 705.640163 L 281.602250 703.577120 L 285.029180 701.514077 L 288.456111 699.451034 L 291.883042 697.387991 L 295.309973 695.324948 L 298.754556 693.291895 L 302.221536 691.296887 L 305.688515 689.301880 L 309.155495 687.306873 L 312.622474 685.311866 L 316.089454 683.316859 L 319.552142 681.314547 L 322.982729 679.257591 L 326.413317 677.200635 L 329.843904 675.143679 L 333.245118 673.038785 L 336.635475 670.916173 L 340.025832 668.793561 L 343.416189 666.670949 L 346.806545 664.548338 L 350.196902 662.425726 L 353.587259 660.303114 L 356.627506 659.076448 L 360.031223 656.975326 L 363.434940 654.874205 L 366.838657 652.773084 L 370.242374 650.671962 L 373.646091 648.570841 L 377.049808 646.469720 L 380.453525 644.368598 L 383.906127 642.352561 L 387.435539 640.470208 L 390.964951 638.587855 L 394.494363 636.705502 L 398.009960 634.798750 L 401.439932 632.740767 L 404.869903 630.682784 L 408.299875 628.624801 L 411.729847 626.566818 L 414.870737 625.479402 L 418.290290 623.404153 L 421.709843 621.328905 L 425.129396 619.253656 L 428.548949 617.178407 L 431.968502 615.103159 L 435.388055 613.027910 L 438.807608 610.952661 L 442.227161 608.877413 L 445.687965 606.872741 L 449.174267 604.911696 L 452.660569 602.950651 L 456.146871 600.989606 L 459.634571 599.031121 L 463.169722 597.159570 L 466.704874 595.288019 L 470.240026 593.416468 L 473.775177 591.544917 L 477.299964 590.000865 L 480.776282 588.022175 L 484.252600 586.043485 L 487.728918 584.064796 L 491.205236 582.086106 L 494.681554 580.107416 L 498.157872 578.128726 L 501.634190 576.150036 L 505.110508 574.171347 L 508.586826 572.192657 L 512.089033 570.261111 L 515.624184 568.389561 L 519.159336 566.518010 L 522.694488 564.646459 L 526.229639 562.774908 L 529.709616 560.804558 L 533.157353 558.776478 L 536.605090 556.748397 L 540.052827 554.720317 L 543.500564 552.692236 L 546.841281 551.934805 L 550.306515 549.936768 L 553.771749 547.938730 L 557.236983 545.940693 L 560.702217 543.942656 L 564.167451 541.944618 L 567.632685 539.946581 L 571.097918 537.948543 L 574.563152 535.950506 L 578.028386 533.952468 L 581.533170 532.025980 L 585.068322 530.154429 L 588.603474 528.282878 L 592.138625 526.411327 L 595.673777 524.539776 L 599.179774 522.614476 L 602.676403 520.671904 L 606.173032 518.729332 L 609.669661 516.786760 L 613.166290 514.844189 L 616.276379 513.901287 L 619.731494 511.885803 L 623.186609 509.870318 L 626.641725 507.854833 L 630.096840 505.839349 L 633.551955 503.823864 L 637.007071 501.808379 L 640.462186 499.792895 L 643.917301 497.777410 L 647.372416 495.761926 L 650.880673 493.842008 L 654.415825 491.970457 L 657.950976 490.098906 L 661.486128 488.227355 L 665.021280 486.355804 L 668.514659 484.407725 L 672.000961 482.446680 L 675.487264 480.485636 L 678.973566 478.524591 L 682.456213 477.501981 L 685.925103 475.510298 L 689.393993 473.518615 L 692.862884 471.526933 L 696.331774 469.535250 L 699.800664 467.543567 L 703.269555 465.551884 L 706.738445 463.560202 L 710.207335 461.568519 L 713.676225 459.576836 L 717.115815 457.535237 L 720.545786 455.477254 L 723.975758 453.419271 L 727.405730 451.361288 L 729.533460 450.084650" fill="none" id="3" stroke="black" stroke-width="0.5" /><path d="M 430.423220 396.202760 L 434.311116 397.143112 L 438.199013 398.083464 L 442.086909 399.023815 L 445.974806 399.964167 L 449.862702 400.904519 L 453.750599 401.844871 L 457.638495 402.785222 L 461.526391 403.725574 L 465.414288 404.665926 L 469.302184 405.606278 L 473.190081 406.546629 L 477.077977 407.486981 L 480.965873 408.427333 L 484.853770 409.367685 L 488.754596 410.252431 L 492.658515 411.123874 L 496.562435 411.995318 L 500.466354 412.866761 L 504.370273 413.738205 L 508.274193 414.609648 L 512.178112 415.481092 L 516.082031 416.352535 L 519.991239 417.199026 L 523.913058 417.986004 L 527.834877 418.772983 L 531.756696 419.559961 L 535.678515 420.346939 L 539.600334 421.133917 L 543.522153 421.920896 L 547.443973 422.707874 L 551.365792 423.494852 L 555.287611 424.281830 L 559.209430 425.068809 L 563.131249 425.855787 L 567.053068 426.642765 L 570.974887 427.429743 L 574.896706 428.216722 L 578.818526 429.003700 L 582.740345 429.790678 L 586.662164 430.577656 L 590.582271 431.372961 L 594.496506 432.196832 L 598.410742 433.020703 L 602.324977 433.844573 L 606.239212 434.668444 L 610.153447 435.492314 L 614.067682 436.316185 L 617.981918 437.140055 L 621.896153 437.963926 L 625.810388 438.787796 L 629.724623 439.611667 L 633.638859 440.435538 L 637.559009 441.230517 L 641.482062 442.011321 L 645.405115 442.792126 L 649.328168 443.572930 L 653.251221 444.353735 L 657.174274 445.134540 L 661.097327 445.915344 L 665.020380 446.696149 L 668.943432 447.476954 L 672.866485 448.257758 L 676.789538 449.038563 L 680.712591 449.819368 L 684.635644 450.600172 L 688.558697 451.380977 L 692.481750 452.161782 L 696.404803 452.942586 L 700.327856 453.723391 L 704.250909 454.504195 L 708.173962 455.285000 L 712.097014 456.065805 L 716.020067 456.846609 L 719.943120 457.627414 L 723.866173 458.408219 L 727.789226 459.189023 L 731.712279 459.969828 L 735.635332 460.750633 L 739.558385 461.531437 L 740.438970 461.706700" fill="none" id="4" stroke="black" stroke-width="0.5" /><path d="M 46.328740 621.840560 L 50.075451 623.241330 L 53.822162 624.642100 L 57.575812 626.023622 L 61.354427 627.335900 L 65.133041 628.648178 L 68.911656 629.960455 L 72.690270 631.272733 L 76.468885 632.585011 L 80.247499 633.897289 L 84.026113 635.209567 L 87.804728 636.521844 L 91.583342 637.834122 L 95.364555 639.138513 L 99.183115 640.329565 L 103.001674 641.520616 L 106.820234 642.711667 L 110.638793 643.902718 L 114.457353 645.093769 L 118.275913 646.284821 L 122.075158 647.536007 L 125.873097 648.791258 L 129.671037 650.046509 L 133.468976 651.301761 L 137.235142 652.646421 L 140.973482 654.069379 L 144.711823 655.492337 L 148.450164 656.915294 L 152.187094 658.341854 L 155.897755 659.835507 L 159.608415 661.329161 L 163.319075 662.822814 L 167.029736 664.316467 L 170.740396 665.810120 L 174.451056 667.303774 L 178.161716 668.797427 L 181.872377 670.291080 L 185.583037 671.784733 L 189.293697 673.278387 L 193.004358 674.772040 L 196.705842 676.287203 L 200.352016 677.932018 L 203.998190 679.576833 L 207.644364 681.221648 L 211.290537 682.866462 L 214.936711 684.511277 L 218.582885 686.156092 L 222.229059 687.800907 L 225.875233 689.445722 L 229.521407 691.090536 L 233.191924 692.679959 L 236.869364 694.253629 L 240.546804 695.827299 L 244.224243 697.400968 L 247.901683 698.974638 L 251.579123 700.548308 L 255.256563 702.121978 L 258.908887 703.752528 L 262.549309 705.410034 L 266.189732 707.067540 L 269.830154 708.725046 L 273.470576 710.382552 L 277.110998 712.040058 L 280.751421 713.697564 L 284.391843 715.355069 L 288.032265 717.012575 L 291.706211 718.593066 L 295.399954 720.128079 L 299.093697 721.663092 L 302.787440 723.198105 L 306.481182 724.733118 L 310.174925 726.268131 L 313.868668 727.803144 L 317.562410 729.338157 L 320.533460 730.572840" fill="none" id="5" stroke="black" stroke-width="0.5" /><path d="M 22.234250 611.021660 L 25.589689 613.199051 L 28.945128 615.376441 L 32.424834 617.346364 L 36.010438 619.114377 L 39.648236 620.776476 L 43.356386 622.276352 L 47.064535 623.776228 L 50.772685 625.276104 L 54.480834 626.775980 L 58.188984 628.275855 L 61.920499 629.716028 L 65.661674 631.131517 L 69.402849 632.547007 L 73.144024 633.962496 L 76.885198 635.377986 L 80.626373 636.793475 L 84.367548 638.208964 L 88.108723 639.624454 L 91.849898 641.039943 L 95.591073 642.455433 L 99.332248 643.870922 L 103.073423 645.286412 L 106.814598 646.701901 L 110.555773 648.117390 L 114.296947 649.532880 L 118.038122 650.948369 L 121.779297 652.363859 L 125.520472 653.779348 L 129.261647 655.194838 L 132.943924 656.756108 L 136.618408 658.336667 L 140.292892 659.917227 L 143.967376 661.497786 L 147.641860 663.078345 L 151.316344 664.658904 L 154.990828 666.239464 L 158.665312 667.820023 L 162.339796 669.400582 L 166.014280 670.981142 L 169.688764 672.561701 L 173.363248 674.142260 L 177.037732 675.722819 L 180.712216 677.303379 L 184.386700 678.883938 L 188.061183 680.464497 L 191.735667 682.045056 L 195.410151 683.625616 L 199.084635 685.206175 L 202.759119 686.786734 L 206.433603 688.367293 L 210.108087 689.947853 L 213.782571 691.528412 L 217.457055 693.108971 L 221.131539 694.689531 L 224.806023 696.270090 L 228.480507 697.850649 L 232.154991 699.431208 L 235.829475 701.011768 L 239.503959 702.592327 L 243.178443 704.172886 L 246.852927 705.753445 L 250.527411 707.334005 L 254.201895 708.914564 L 257.876379 710.495123 L 261.550863 712.075682 L 265.225347 713.656242 L 268.899831 715.236801 L 269.131890 715.336620" fill="none" id="6" stroke="black" stroke-width="0.5" /><path d="M 79.525590 703.194890 L 82.933569 701.146617 L 86.591507 699.528133 L 90.249445 697.909649 L 93.907383 696.291165 L 97.565321 694.672681 L 101.223259 693.054197 L 104.881196 691.435713 L 108.539134 689.817229 L 112.174153 688.149902 L 115.756725 686.370808 L 119.339298 684.591714 L 122.921870 682.812621 L 126.504443 681.033527 L 130.087015 679.254433 L 133.669588 677.475340 L 137.239903 675.672560 L 140.761375 673.775395 L 144.282847 671.878230 L 147.804319 669.981065 L 151.325791 668.083901 L 154.847263 666.186736 L 158.368735 664.289571 L 161.890208 662.392406 L 165.411680 660.495242 L 168.933152 658.598077 L 172.463610 656.717841 L 176.008180 654.864189 L 179.552750 653.010538 L 183.097320 651.156887 L 186.641890 649.303235 L 190.186460 647.449584 L 193.720293 645.576102 L 197.209995 643.621113 L 200.699697 641.666125 L 204.189399 639.711136 L 207.679101 637.756147 L 211.168803 635.801159 L 214.658504 633.846170 L 218.126166 631.852792 L 221.573958 629.824805 L 225.021750 627.796818 L 228.469542 625.768831 L 231.917333 623.740844 L 235.365125 621.712857 L 238.812917 619.684870 L 242.266020 617.666044 L 245.738993 615.681488 L 249.211966 613.696933 L 252.684938 611.712377 L 256.157911 609.727821 L 259.630883 607.743265 L 263.103856 605.758709 L 266.576828 603.774154 L 270.092353 602.287881 L 273.547555 600.308643 L 276.998876 598.286667 L 280.450196 596.264691 L 283.901517 594.242715 L 287.352837 592.220739 L 290.804157 590.198763 L 294.255478 588.176787 L 297.706798 586.154810 L 301.148069 584.115885 L 304.578041 582.057902 L 308.008012 579.999919 L 311.437984 577.941936 L 314.864252 575.877905 L 318.256245 573.757909 L 321.648239 571.637913 L 325.040232 569.517918 L 328.432225 567.397922 L 331.590038 566.864785 L 335.038252 564.837516 L 338.486466 562.810246 L 341.934680 560.782977 L 345.382893 558.755707 L 348.831107 556.728438 L 352.279321 554.701169 L 355.727535 552.673899 L 359.175749 550.646630 L 362.623963 548.619360 L 366.107822 546.654449 L 369.604451 544.711877 L 373.101080 542.769306 L 376.597709 540.826734 L 380.094338 538.884162 L 383.562198 536.891275 L 387.009935 534.863194 L 390.457672 532.835114 L 393.905408 530.807033 L 397.353145 528.778953 L 400.313763 528.110411 L 403.784795 526.122463 L 407.255827 524.134515 L 410.726859 522.146567 L 414.197891 520.158619 L 417.668923 518.170671 L 421.139955 516.182724 L 424.610987 514.194776 L 428.082019 512.206828 L 431.553051 510.218880 L 435.035076 508.250419 L 438.531705 506.307847 L 442.028334 504.365275 L 445.524963 502.422704 L 449.021592 500.480132 L 452.504452 498.513478 L 455.952189 496.485398 L 459.399926 494.457317 L 462.847662 492.429237 L 466.295399 490.401156 L 469.839241 489.159287 L 473.301443 487.156001 L 476.763645 485.152714 L 480.225848 483.149428 L 483.688050 481.146142 L 487.150252 479.142856 L 490.612454 477.139569 L 494.074656 475.136283 L 497.536859 473.132997 L 500.999061 471.129711 L 504.461263 469.126424 L 508.036563 467.333098 L 511.614272 465.544244 L 515.191981 463.755390 L 518.769690 461.966535 L 522.347398 460.177681 L 525.884763 458.310431 L 529.419915 456.438880 L 532.955066 454.567329 L 536.490218 452.695778 L 539.533460 451.084650" fill="none" id="7" stroke="black" stroke-width="0.5" /><path d="M 528.218500 118.029530 L 528.571491 122.013924 L 528.865495 126.001512 L 528.944740 130.000727 L 529.023984 133.999942 L 529.103229 137.999157 L 529.182474 141.998372 L 529.261718 145.997587 L 529.340963 149.996802 L 529.420207 153.996017 L 529.499452 157.995232 L 529.578696 161.994447 L 529.657941 165.993662 L 529.737185 169.992877 L 529.816430 173.992092 L 529.895674 177.991307 L 529.974919 181.990521 L 530.054163 185.989736 L 530.133408 189.988951 L 530.212652 193.988166 L 530.281308 197.987549 L 530.328474 201.987271 L 530.375640 205.986992 L 530.422806 209.986714 L 530.469972 213.986436 L 530.517137 217.986158 L 530.564303 221.985880 L 530.611469 225.985602 L 530.658635 229.985324 L 530.705800 233.985046 L 530.752966 237.984768 L 530.800132 241.984490 L 530.847298 245.984212 L 530.894464 249.983934 L 530.941629 253.983655 L 530.988795 257.983377 L 531.035961 261.983099 L 531.083127 265.982821 L 531.130293 269.982543 L 531.177458 273.982265 L 531.189386 277.982242 L 531.200018 281.982227 L 531.210651 285.982213 L 531.221284 289.982199 L 531.231916 293.982185 L 531.242549 297.982171 L 531.253181 301.982157 L 531.263814 305.982143 L 531.274446 309.982128 L 531.285079 313.982114 L 531.295712 317.982100 L 531.306344 321.982086 L 531.316977 325.982072 L 531.327609 329.982058 L 531.336610 333.982046 L 531.336610 337.982046 L 531.336610 341.982046 L 531.336610 345.982046 L 531.336610 349.982046 L 531.336610 353.982046 L 531.336610 357.982046 L 531.336610 361.982046 L 531.336610 365.982046 L 531.336610 369.982046 L 531.289015 373.981663 L 531.224707 377.981146 L 531.160398 381.980629 L 531.096090 385.980112 L 531.031781 389.979595 L 530.967473 393.979078 L 530.888296 397.978248 L 530.784139 401.976892 L 530.679983 405.975536 L 530.575827 409.974179 L 530.471670 413.972823 L 530.367514 417.971467 L 530.263358 421.970110 L 530.159201 425.968754 L 530.055045 429.967398 L 529.950889 433.966041 L 529.807004 437.963367 L 529.645818 441.960118 L 529.484632 445.956869 L 529.323446 449.953620 L 529.162259 453.950371 L 529.001073 457.947122 L 528.839887 461.943873 L 528.678701 465.940624 L 528.517515 469.937375 L 528.375980 473.446850" fill="none" id="8" stroke="black" stroke-width="0.5" /><path d="M 578.958660 434.635830 L 575.502975 436.650337 L 572.047289 438.664844 L 568.591604 440.679351 L 565.135919 442.693858 L 561.593628 444.551772 L 558.050437 446.408058 L 554.507246 448.264344 L 550.964055 450.120631 L 547.420865 451.976917 L 543.877674 453.833204 L 540.334483 455.689490 L 536.791292 457.545776 L 533.248102 459.402063 L 529.690510 461.230561 L 526.130923 463.055209 L 522.571335 464.879856 L 519.011748 466.704504 L 515.452161 468.529152 L 511.892574 470.353800 L 508.332987 472.178447 L 504.773400 474.003095 L 501.218369 475.836373 L 497.703961 477.746592 L 494.189553 479.656811 L 490.675145 481.567029 L 487.160737 483.477248 L 483.646329 485.387467 L 480.131920 487.297686 L 476.617512 489.207904 L 473.099940 491.112207 L 469.560155 492.974979 L 466.020370 494.837752 L 462.480585 496.700525 L 458.940800 498.563298 L 455.401015 500.426070 L 451.861230 502.288843 L 448.321445 504.151616 L 444.781660 506.014389 L 441.241875 507.877162 L 437.770682 509.864664 L 434.301688 511.856166 L 430.832694 513.847668 L 427.363700 515.839170 L 423.894706 517.830672 L 420.425712 519.822174 L 416.956718 521.813676 L 413.487724 523.805179 L 410.018730 525.796681 L 406.549736 527.788183 L 403.080742 529.779685 L 399.611748 531.771187 L 396.142754 533.762689 L 392.664486 535.737744 L 389.165045 537.675245 L 385.665603 539.612746 L 382.166162 541.550247 L 378.666721 543.487748 L 375.167279 545.425249 L 371.667838 547.362750 L 368.169528 549.302268 L 364.692586 551.279860 L 361.215643 553.257451 L 357.738700 555.235043 L 354.261757 557.212635 L 350.784815 559.190227 L 347.307872 561.167818 L 343.830929 563.145410 L 340.381235 565.169905 L 336.941112 567.210873 L 333.500988 569.251841 L 330.265740 571.171260" fill="none" id="9" stroke="black" stroke-width="0.5" /><path d="M 500.155510 180.746070 L 499.735983 183.648436 L 499.724038 187.648418 L 499.712094 191.648400 L 499.700150 195.648382 L 499.688205 199.648365 L 499.567978 203.645451 L 499.366085 207.640352 L 499.164191 211.635254 L 498.962298 215.630155 L 498.760404 219.625057 L 498.558510 223.619959 L 498.356617 227.614860 L 498.168920 231.610373 L 498.026705 235.607844 L 497.884490 239.605315 L 497.742275 243.602786 L 497.600060 247.600257 L 497.475598 251.598086 L 497.456573 255.598041 L 497.437548 259.597996 L 497.418523 263.597951 L 497.399498 267.597905 L 497.409250 271.597414 L 497.552336 275.594854 L 497.695422 279.592294 L 497.838508 283.589734 L 497.887790 284.966540" fill="none" id="10" stroke="black" stroke-width="0.5" /><path d="M 433.572830 178.005910 L 433.471598 182.004629 L 433.370366 186.003348 L 433.290779 190.002321 L 433.297829 194.002315 L 433.304879 198.002309 L 433.311928 202.002303 L 433.318978 206.002296 L 433.326028 210.002290 L 433.333078 214.002284 L 433.340128 218.002278 L 433.347177 222.002272 L 433.392582 226.001503 L 433.544458 229.998619 L 433.696334 233.995734 L 433.848210 237.992850 L 434.000086 241.989966 L 434.151962 245.987082 L 434.303837 249.984197 L 434.455713 253.981313 L 434.607589 257.978429 L 434.768627 261.975121 L 434.985880 265.969217 L 435.203133 269.963313 L 435.420385 273.957408 L 435.637638 277.951504 L 435.854891 281.945600 L 435.966530 283.998040" fill="none" id="11" stroke="black" stroke-width="0.5" /><path d="M 564.155510 176.541340 L 564.297642 180.538814 L 564.439773 184.536288 L 564.581905 188.533762 L 564.724036 192.531236 L 564.866168 196.528710 L 565.008300 200.526184 L 565.150431 204.523658 L 565.226370 208.522309 L 565.226370 212.522309 L 565.226370 216.522309 L 565.226370 220.522309 L 565.226370 224.522309 L 565.222335 228.522263 L 565.131561 232.521233 L 565.040787 236.520203 L 564.950014 240.519172 L 564.859240 244.518142 L 564.768467 248.517112 L 564.677693 252.516082 L 564.586919 256.515052 L 564.501960 260.257880" fill="none" id="12" stroke="black" stroke-width="0.5" /><path d="M 216.029520 257.777560 L 219.920278 256.963654 L 223.777888 255.906063 L 227.603236 254.736998 L 231.428584 253.567933 L 235.253932 252.398869 L 239.079280 251.229804 L 242.904628 250.060740 L 246.729977 248.891675 L 250.555325 247.722610 L 254.380673 246.553546 L 258.172466 245.282200 L 261.946938 243.958054 L 265.721410 242.633909 L 269.495882 241.309764 L 273.270354 239.985618 L 277.044826 238.661473 L 280.819298 237.337327 L 284.593770 236.013182 L 288.368242 234.689037 L 292.142714 233.364891 L 295.917186 232.040746 L 299.709568 230.768906 L 303.503503 229.501604 L 307.297439 228.234302 L 311.091374 226.967000 L 314.885309 225.699698 L 318.679245 224.432396 L 322.473088 223.164825 L 326.248115 221.842262 L 330.023141 220.519698 L 333.778043 219.141891 L 337.519168 217.726272 L 341.260294 216.310653 L 345.001420 214.895034 L 348.742546 213.479414 L 352.483672 212.063795 L 356.224797 210.648176 L 359.972346 209.250367 L 363.755901 207.952402 L 367.539455 206.654436 L 371.323010 205.356471 L 375.106564 204.058505 L 378.890119 202.760540 L 382.673674 201.462575 L 386.457228 200.164609 L 390.240783 198.866644 L 394.024338 197.568678 L 397.807892 196.270713 L 401.577329 194.933767 L 405.314534 193.507830 L 409.051739 192.081892 L 412.788945 190.655955 L 416.526150 189.230018 L 420.263355 187.804081 L 424.000560 186.378143 L 427.737765 184.952206 L 431.478543 183.535992 L 435.249953 182.203150 L 439.021363 180.870309 L 442.792773 179.537467 L 446.564183 178.204625 L 450.335593 176.871784 L 454.107003 175.538942 L 457.878413 174.206100 L 461.649823 172.873259 L 465.414231 171.521002 L 469.168242 170.139915 L 472.922253 168.758828 L 476.676264 167.377741 L 480.430275 165.996654 L 484.184286 164.615566 L 487.938297 163.234479 L 491.692308 161.853392 L 495.446319 160.472305 L 499.223300 159.155357 L 503.000578 157.839236 L 506.777855 156.523114 L 510.555132 155.206993 L 514.332410 153.890872 L 518.109687 152.574751 L 521.886965 151.258629 L 525.664242 149.942508 L 526.612200 149.612210" fill="none" id="13" stroke="black" stroke-width="0.5" /><path d="M 596.187000 162.108270 L 592.568405 163.812903 L 589.062671 165.738098 L 585.485752 167.523207 L 581.858381 169.209083 L 578.231010 170.894960 L 574.603639 172.580836 L 570.938080 174.180937 L 567.258000 175.748423 L 563.577920 177.315908 L 559.897840 178.883394 L 556.217760 180.450879 L 552.537680 182.018365 L 548.859981 183.591337 L 545.201799 185.209269 L 541.543617 186.827200 L 537.885434 188.445131 L 534.227252 190.063063 L 530.569070 191.680994 L 526.891259 193.253250 L 523.199803 194.793754 L 519.495022 196.301296 L 515.770017 197.758805 L 512.045011 199.216314 L 508.320005 200.673823 L 504.594999 202.131331 L 500.869993 203.588840 L 497.144988 205.046349 L 493.419982 206.503858 L 489.694976 207.961366 L 485.969970 209.418875 L 482.251683 210.893137 L 478.551775 212.413228 L 474.851866 213.933320 L 471.151958 215.453412 L 467.452050 216.973503 L 463.752141 218.493595 L 460.052233 220.013686 L 456.352325 221.533778 L 452.652416 223.053870 L 448.952508 224.573961 L 445.252600 226.094053 L 441.552691 227.614144 L 437.852783 229.134236 L 434.152875 230.654328 L 430.452966 232.174419 L 426.753058 233.694511 L 423.053150 235.214602 L 419.353242 236.734694 L 415.653333 238.254786 L 411.947569 239.760517 L 408.239791 241.261311 L 404.532013 242.762105 L 400.824235 244.262899 L 397.116457 245.763694 L 393.408679 247.264488 L 389.700901 248.765282 L 385.993123 250.266076 L 382.285345 251.766870 L 378.577568 253.267664 L 374.869790 254.768458 L 371.162012 256.269252 L 367.454234 257.770046 L 363.746456 259.270840 L 360.082501 260.875406 L 356.421322 262.486546 L 352.760143 264.097685 L 349.098965 265.708824 L 345.437786 267.319963 L 341.776607 268.931102 L 338.115428 270.542242 L 334.471867 272.192695 L 330.832704 273.852966 L 327.193542 275.513236 L 323.554380 277.173507 L 319.915218 278.833778 L 316.276056 280.494049 L 312.636894 282.154319 L 308.997732 283.814590 L 305.358569 285.474861 L 301.719407 287.135131 L 298.080245 288.795402 L 294.441083 290.455673 L 290.801921 292.115944 L 287.162759 293.776214 L 285.761810 294.415360" fill="none" id="14" stroke="black" stroke-width="0.5" /><path d="M 425.761810 189.486220 L 429.511451 189.887276 L 433.425777 190.710717 L 437.344029 191.511253 L 441.309128 192.038499 L 445.274227 192.565745 L 449.239326 193.092992 L 453.204425 193.620238 L 457.169525 194.147484 L 461.134624 194.674731 L 465.106573 195.147037 L 469.079734 195.609631 L 473.052895 196.072225 L 477.026056 196.534818 L 480.999217 196.997412 L 484.972378 197.460006 L 488.950366 197.878139 L 492.930214 198.279156 L 496.910061 198.680173 L 500.889909 199.081190 L 504.869756 199.482206 L 508.816920 199.879930" fill="none" id="15" stroke="black" stroke-width="0.5" /><path d="M 178.234250 259.005910 L 182.032110 257.750418 L 185.829970 256.494926 L 189.627830 255.239435 L 193.464628 254.108593 L 197.301835 252.979061 L 201.139042 251.849529 L 204.973626 250.711670 L 208.765562 249.438398 L 212.557498 248.165126 L 216.332555 246.843575 L 220.091796 245.476790 L 223.851038 244.110005 L 227.610280 242.743220 L 231.369522 241.376435 L 235.128764 240.009650 L 238.888005 238.642865 L 242.647247 237.276080 L 246.406489 235.909295 L 250.165731 234.542510 L 253.924973 233.175725 L 257.684214 231.808940 L 261.443456 230.442155 L 265.202161 229.073918 L 268.946320 227.666340 L 272.690478 226.258761 L 276.434637 224.851183 L 280.178795 223.443604 L 283.922954 222.036026 L 287.667112 220.628447 L 291.411271 219.220869 L 295.155429 217.813291 L 298.899588 216.405712 L 302.643746 214.998134 L 306.426454 213.697876 L 310.210503 212.401353 L 313.994552 211.104830 L 317.778601 209.808307 L 321.562651 208.511785 L 325.346700 207.215262 L 329.130749 205.918739 L 332.914798 204.622216 L 336.693414 203.310107 L 340.463347 201.973095 L 344.233281 200.636083 L 348.003214 199.299071 L 351.773148 197.962059 L 355.543081 196.625047 L 359.313015 195.288035 L 363.082949 193.951023 L 366.852882 192.614011 L 370.622816 191.276999 L 374.392749 189.939987 L 378.162683 188.602975 L 381.937062 187.278625 L 385.715385 185.965508 L 389.493707 184.652391 L 393.272030 183.339274 L 397.050353 182.026157 L 400.828676 180.713040 L 404.606999 179.399924 L 408.385322 178.086807 L 412.163645 176.773690 L 415.941968 175.460573 L 419.720291 174.147456 L 423.498614 172.834339 L 427.276937 171.521223 L 431.055260 170.208106 L 434.833583 168.894989 L 438.611906 167.581872 L 442.390228 166.268755 L 446.168551 164.955638 L 449.946874 163.642521 L 453.725197 162.329405 L 457.503520 161.016288 L 461.226370 159.722450" fill="none" id="16" stroke="black" stroke-width="0.5" /><path d="M 360.533460 293.399610 L 364.238901 291.893056 L 367.944342 290.386501 L 371.649783 288.879947 L 375.318205 287.286209 L 378.975571 285.666432 L 382.632936 284.046655 L 386.290302 282.426877 L 389.947667 280.807100 L 393.605033 279.187323 L 397.262398 277.567546 L 400.919763 275.947769 L 404.493123 274.150599 L 408.063691 272.347534 L 411.634260 270.544469 L 415.204828 268.741404 L 418.775396 266.938339 L 422.345964 265.135274 L 425.932696 263.365378 L 429.552906 261.664179 L 433.173117 259.962980 L 436.793327 258.261782 L 440.413537 256.560583 L 444.033748 254.859384 L 447.653958 253.158186 L 451.274168 251.456987 L 454.894379 249.755788 L 458.514589 248.054590 L 462.134800 246.353391 L 465.701211 244.542887 L 469.257529 242.711877 L 472.813848 240.880866 L 476.370166 239.049855 L 479.926485 237.218845 L 483.482803 235.387834 L 487.039121 233.556824 L 490.595440 231.725813 L 494.151758 229.894803 L 497.708076 228.063792 L 501.264395 226.232781 L 504.820713 224.401771 L 508.377031 222.570760 L 511.933350 220.739750 L 515.489668 218.908739 L 519.045986 217.077729 L 522.602305 215.246718 L 526.158623 213.415707 L 529.714942 211.584697 L 533.271260 209.753686 L 536.847268 207.961631 L 540.430586 206.184041 L 544.013905 204.406451 L 547.597224 202.628861 L 551.180543 200.851271 L 554.792039 199.132195 L 558.416033 197.439070 L 562.040026 195.745945 L 565.664020 194.052821 L 569.288013 192.359696 L 572.912007 190.666571 L 576.536000 188.973447 L 580.171471 187.305555 L 583.829202 185.686604 L 587.486933 184.067653 L 591.144664 182.448702 L 594.802396 180.829751 L 598.460127 179.210800 L 602.117858 177.591849 L 605.775589 175.972898 L 609.433321 174.353947 L 610.895660 173.706700" fill="none" id="17" stroke="black" stroke-width="0.5" /><path d="M 169.037400 164.187010 L 167.914723 167.831617 L 167.914023 171.830893 L 167.924743 175.830878 L 167.935463 179.830864 L 167.946183 183.830850 L 167.956902 187.830835 L 167.976259 191.830706 L 168.071740 195.829566 L 168.167221 199.828427 L 168.262702 203.827287 L 168.358183 207.826147 L 168.453664 211.825007 L 168.549145 215.823868 L 168.689996 219.821336 L 168.839854 223.818528 L 168.989712 227.815720 L 169.139570 231.812911 L 169.289428 235.810103 L 169.439286 239.807295 L 169.589143 243.804487 L 169.739001 247.801679 L 169.946160 251.796077 L 170.185878 255.788887 L 170.425597 259.781698 L 170.665315 263.774508 L 170.905033 267.767319 L 171.144751 271.760129 L 171.384470 275.752939 L 171.624188 279.745750 L 171.863906 283.738560 L 172.103624 287.731371 L 172.343343 291.724181 L 172.583061 295.716992 L 172.816920 299.612210" fill="none" id="18" stroke="black" stroke-width="0.5" /><path d="M 391.777550 172.903550 L 391.748071 176.903441 L 391.718591 180.903333 L 391.689112 184.903224 L 391.659633 188.903115 L 391.630153 192.903007 L 391.600674 196.902898 L 391.571194 200.902790 L 391.541715 204.902681 L 391.512236 208.902572 L 391.482756 212.902464 L 391.453277 216.902355 L 391.431100 220.902273 L 391.431100 224.902273 L 391.431100 228.902273 L 391.431100 232.902273 L 391.431100 236.902273 L 391.431100 240.902273 L 391.431100 244.902273 L 391.431100 248.902273 L 391.431100 252.902273 L 391.431100 256.902273 L 391.431100 260.902273 L 391.431100 264.902273 L 391.431100 268.902273 L 391.431100 272.902273 L 391.431100 276.902273 L 391.465578 280.901928 L 391.545612 284.901128 L 391.625647 288.900327 L 391.683070 291.769690" fill="none" id="19" stroke="black" stroke-width="0.5" /><path d="M 599.620070 98.777560 L 599.506924 102.775959 L 599.393778 106.774359 L 599.280632 110.772758 L 599.167486 114.771158 L 599.025786 118.768368 L 598.806012 122.762326 L 598.586238 126.756283 L 598.366464 130.750241 L 598.104146 134.741438 L 597.805831 138.730299 L 597.507516 142.719159 L 597.209201 146.708020 L 596.910887 150.696880 L 596.612572 154.685741 L 596.314257 158.674601 L 596.015942 162.663462 L 595.717627 166.652322 L 595.419313 170.641183 L 595.120998 174.630043 L 594.822683 178.618904 L 594.524368 182.607764 L 594.226054 186.596625 L 593.927739 190.585485 L 593.629424 194.574346 L 593.331109 198.563206 L 593.032794 202.552067 L 592.942910 203.753940" fill="none" id="20" stroke="black" stroke-width="0.5" /><path d="M 166.171260 145.572840 L 169.353414 143.280833 L 172.923199 141.476218 L 176.632369 139.988325 L 180.424379 138.720948 L 184.246704 137.542038 L 188.069030 136.363129 L 191.891355 135.184219 L 195.752449 134.139686 L 199.615343 133.101395 L 203.478237 132.063104 L 207.341131 131.024812 L 211.204025 129.986521 L 215.062567 128.932448 L 218.911572 127.843799 L 222.760578 126.755150 L 226.609583 125.666502 L 230.458589 124.577853 L 234.307595 123.489204 L 238.156600 122.400555 L 242.005606 121.311906 L 245.854611 120.223258 L 249.703617 119.134609 L 253.552622 118.045960 L 257.401628 116.957311 L 261.250633 115.868662 L 265.099639 114.780014 L 268.948645 113.691365 L 272.797650 112.602716 L 276.646656 111.514067 L 280.495661 110.425418 L 284.358005 109.385167 L 288.221307 108.348397 L 292.084610 107.311627 L 295.947913 106.274857 L 299.811215 105.238087 L 303.674518 104.201317 L 307.537821 103.164547 L 311.401123 102.127776 L 315.264426 101.091006 L 319.127729 100.054236 L 322.991032 99.017466 L 326.836377 97.916725 L 330.674843 96.791480 L 334.513309 95.666234 L 338.351775 94.540989 L 342.190241 93.415744 L 346.028708 92.290499 L 349.867174 91.165253 L 353.705640 90.040008 L 357.544106 88.914763 L 361.382573 87.789517 L 365.221039 86.664272 L 369.059505 85.539027 L 372.905855 84.441402 L 376.759927 83.370825 L 380.613998 82.300248 L 384.468069 81.229672 L 388.322141 80.159095 L 392.176212 79.088518 L 396.029034 78.013535 L 399.871364 76.901557 L 403.713695 75.789578 L 407.556025 74.677600 L 411.398356 73.565621 L 415.240686 72.453643 L 419.083017 71.341664 L 422.925347 70.229686 L 426.767678 69.117707 L 430.610008 68.005729 L 434.452339 66.893751 L 438.294670 65.781772 L 441.982280 64.714570" fill="none" id="21" stroke="black" stroke-width="0.5" /><path d="M 342.895660 196.218510 L 346.586364 194.901027 L 350.168484 193.121024 L 353.796918 191.439758 L 357.455772 189.823345 L 361.114625 188.206933 L 364.773479 186.590520 L 368.456412 185.029986 L 372.144165 183.480639 L 375.831918 181.931293 L 379.519672 180.381947 L 383.207425 178.832600 L 386.895179 177.283254 L 390.582932 175.733907 L 394.270686 174.184561 L 397.958439 172.635214 L 401.637384 171.065755 L 405.276782 169.406002 L 408.916180 167.746248 L 412.555578 166.086495 L 416.194976 164.426741 L 419.834374 162.766988 L 423.483459 161.129483 L 427.177849 159.596028 L 430.872239 158.062573 L 434.606634 156.629539 L 438.343469 155.202632 L 442.080303 153.775724 L 445.817138 152.348817 L 449.553973 150.921910 L 453.290808 149.495002 L 457.027643 148.068095 L 460.739187 146.577867 L 464.430786 145.037708 L 468.122386 143.497548 L 471.813986 141.957388 L 475.505586 140.417229 L 479.197185 138.877069 L 482.888785 137.336910 L 486.580385 135.796750 L 490.271984 134.256591 L 493.963584 132.716431 L 497.656031 131.178377 L 501.385609 129.732607 L 505.115186 128.286837 L 508.844764 126.841066 L 512.574341 125.395296 L 516.303919 123.949526 L 520.033496 122.503756 L 523.763074 121.057985 L 527.492651 119.612215 L 531.222229 118.166445 L 534.951806 116.720675 L 538.681384 115.274905 L 542.410961 113.829134 L 546.140539 112.383364 L 549.870116 110.937594 L 553.599694 109.491824 L 557.329271 108.046053 L 561.058849 106.600283 L 564.788426 105.154513 L 568.518004 103.708743 L 572.247581 102.262972 L 575.977159 100.817202 L 579.706736 99.371432 L 583.417273 97.878372 L 587.108087 96.336330 L 590.798900 94.794288 L 594.489714 93.252245 L 598.180528 91.710203 L 601.871341 90.168161 L 605.562155 88.626118 L 609.252969 87.084076 L 612.943782 85.542034 L 616.634596 83.999991 L 620.325409 82.457949 L 620.785430 82.265750" fill="none" id="22" stroke="black" stroke-width="0.5" /><path d="M 198.328740 174.391740 L 198.453431 178.389796 L 198.758059 182.378137 L 199.064566 186.366376 L 199.371073 190.354616 L 199.677580 194.342855 L 199.984086 198.331095 L 200.290593 202.319334 L 200.546658 206.310829 L 200.755392 210.305379 L 200.964125 214.299929 L 201.172859 218.294479 L 201.381593 222.289029 L 201.536759 226.285949 L 201.681592 230.283326 L 201.826424 234.280703 L 201.971256 238.278081 L 202.116088 242.275458 L 202.260920 246.272835 L 202.405753 250.270212 L 202.540580 254.267896 L 202.641335 258.266627 L 202.742091 262.265358 L 202.842846 266.264089 L 202.943601 270.262820 L 203.044357 274.261550 L 203.145112 278.260281 L 203.245868 282.259012 L 203.346623 286.257743 L 203.447378 290.256474 L 203.548134 294.255205 L 203.648889 298.253935 L 203.749644 302.252666 L 203.850400 306.251397 L 203.951155 310.250128 L 204.029520 313.360240" fill="none" id="23" stroke="black" stroke-width="0.5" /><path d="M 224.942910 63.935040 L 225.078018 63.630883 L 229.034968 63.045612 L 232.991919 62.460340 L 236.948869 61.875069 L 240.905820 61.289797 L 244.862770 60.704526 L 248.819721 60.119254 L 252.775589 59.527111 L 256.720944 58.868188 L 260.666298 58.209264 L 264.611652 57.550341 L 268.557006 56.891417 L 272.502361 56.232494 L 276.444565 55.555505 L 280.380123 54.840397 L 284.315682 54.125288 L 288.251240 53.410180 L 292.186799 52.695072 L 296.122357 51.979963 L 300.057916 51.264855 L 303.993474 50.549746 L 307.929032 49.834638 L 311.864591 49.119530 L 315.795016 48.376908 L 319.723656 47.624720 L 323.652296 46.872531 L 327.580936 46.120343 L 331.509576 45.368155 L 335.438216 44.615967 L 339.366856 43.863778 L 343.295496 43.111590 L 347.224136 42.359402 L 351.152776 41.607214 L 355.081417 40.855026 L 359.010057 40.102837 L 362.938697 39.350649 L 366.867337 38.598461 L 370.799740 37.866811 L 374.739873 37.177358 L 378.680007 36.487905 L 382.620141 35.798453 L 386.560275 35.109000 L 390.500409 34.419547 L 394.440543 33.730095 L 398.380677 33.040642 L 402.320811 32.351189 L 406.260945 31.661736 L 410.201078 30.972284 L 414.141212 30.282831 L 418.081346 29.593378 L 422.021480 28.903926 L 425.961614 28.214473 L 429.901748 27.525020 L 433.841882 26.835568 L 437.782016 26.146115 L 441.722149 25.456662 L 445.662283 24.767210 L 449.602417 24.077757 L 453.542551 23.388304 L 457.482444 22.697497 L 461.418349 21.984302 L 465.354255 21.271108 L 469.290161 20.557913 L 473.226066 19.844719 L 477.161972 19.131524 L 481.097878 18.418330 L 485.033784 17.705135 L 488.969689 16.991941 L 492.905595 16.278746 L 496.841501 15.565552 L 500.777406 14.852357 L 504.713312 14.139163 L 508.649218 13.425968 L 510.706690 13.053150" fill="none" id="24" stroke="black" stroke-width="0.5" /><path d="M 214.139760 67.407480 L 217.999006 66.355711 L 221.858253 65.303942 L 225.717499 64.252174 L 229.576745 63.200405 L 233.435992 62.148636 L 237.303838 61.130346 L 241.192205 60.191941 L 245.080571 59.253536 L 248.968938 58.315131 L 252.857305 57.376725 L 256.745672 56.438320 L 260.634038 55.499915 L 264.522405 54.561510 L 268.410772 53.623104 L 272.299138 52.684699 L 276.187505 51.746294 L 280.075872 50.807888 L 283.950376 49.814106 L 287.822276 48.809918 L 291.694175 47.805730 L 295.566075 46.801541 L 299.437974 45.797353 L 303.309874 44.793165 L 307.181773 43.788977 L 311.053673 42.784789 L 314.943861 41.854762 L 318.838714 40.943651 L 322.733566 40.032541 L 326.628419 39.121430 L 330.523272 38.210319 L 334.418124 37.299209 L 338.312977 36.388098 L 342.207830 35.476987 L 346.102682 34.565877 L 350.005466 33.690144 L 353.916533 32.851363 L 357.827600 32.012583 L 361.738668 31.173803 L 365.649735 30.335023 L 369.566961 29.525841 L 373.488009 28.735031 L 377.409057 27.944220 L 381.330105 27.153410 L 385.251154 26.362599 L 389.172202 25.571789 L 393.093250 24.780978 L 397.014298 23.990168 L 400.935346 23.199357 L 404.856394 22.408547 L 408.777443 21.617737 L 412.698491 20.826926 L 416.619539 20.036116 L 420.540587 19.245305 L 424.461635 18.454495 L 428.382684 17.663684 L 432.303732 16.872874 L 436.224780 16.082063 L 440.149035 15.307888 L 444.083089 14.584551 L 448.017143 13.861215 L 451.951198 13.137878 L 455.885252 12.414541 L 459.819307 11.691205 L 463.753361 10.967868 L 467.687415 10.244531 L 471.621470 9.521195 L 475.555524 8.797858 L 479.489579 8.074521 L 483.423633 7.351185 L 487.357687 6.627848 L 491.291742 5.904511 L 495.225796 5.181175 L 499.159851 4.457838 L 503.093905 3.734501 L 507.027960 3.011165 L 510.962014 2.287828 L 514.896068 1.564491 L 518.830123 0.841154 L 522.045270 0.250000" fill="none" id="25" stroke="black" stroke-width="0.5" /><path d="M 555.242120 105.273630 L 555.519950 109.263970 L 555.797780 113.254309 L 555.942628 117.250877 L 556.038966 121.249717 L 556.135304 125.248556 L 556.231642 129.247396 L 556.327980 133.246236 L 556.424318 137.245076 L 556.520656 141.243915 L 556.616994 145.242755 L 556.713332 149.241595 L 556.787101 153.240725 L 556.793743 157.240719 L 556.800385 161.240714 L 556.807027 165.240708 L 556.813669 169.240703 L 556.820311 173.240697 L 556.826952 177.240692 L 556.833594 181.240686 L 556.840236 185.240681 L 556.846878 189.240675 L 556.853520 193.240670 L 556.860162 197.240664 L 556.866804 201.240659 L 556.873446 205.240653 L 556.879920 209.139770" fill="none" id="26" stroke="black" stroke-width="0.5" /><path d="M 229.415350 62.210630 L 227.836273 62.419092 L 231.718929 61.457331 L 235.615150 60.553843 L 239.523371 59.701900 L 243.431593 58.849956 L 247.339814 57.998013 L 251.262772 57.219491 L 255.197046 56.497353 L 259.131321 55.775214 L 263.065595 55.053075 L 266.999869 54.330936 L 270.934144 53.608797 L 274.868418 52.886659 L 278.802693 52.164520 L 282.726307 51.387952 L 286.642332 50.572628 L 290.557764 49.754596 L 294.456623 48.860783 L 298.355481 47.966971 L 302.254340 47.073158 L 306.153199 46.179345 L 310.052057 45.285533 L 313.950916 44.391720 L 317.849775 43.497908 L 321.748633 42.604095 L 325.647492 41.710282 L 329.546351 40.816470 L 333.445209 39.922657 L 337.344068 39.028845 L 341.242927 38.135032 L 345.141786 37.241219 L 349.040644 36.347407 L 352.939503 35.453594 L 356.838362 34.559782 L 360.737220 33.665969 L 364.636079 32.772157 L 368.534938 31.878344 L 372.442741 31.024749 L 376.352916 30.181822 L 380.263092 29.338895 L 384.173268 28.495968 L 388.083444 27.653042 L 391.993619 26.810115 L 395.903795 25.967188 L 399.813971 25.124261 L 403.724147 24.281335 L 407.634323 23.438408 L 411.527846 22.522760 L 415.415205 21.580185 L 419.302563 20.637610 L 423.189921 19.695036 L 427.077279 18.752461 L 430.980083 17.877752 L 434.892463 17.045117 L 438.804843 16.212482 L 442.717224 15.379847 L 446.629604 14.547212 L 450.527244 13.648360 L 454.423388 12.742786 L 456.659440 12.061030" fill="none" id="27" stroke="black" stroke-width="0.5" /><path d="M 380.879920 289.690950 L 381.432478 287.815922 L 384.610511 285.404800 L 388.094945 283.450096 L 391.703431 281.724168 L 395.311917 279.998239 L 398.920403 278.272311 L 402.528889 276.546383 L 406.130633 274.806871 L 409.687368 272.976669 L 413.235386 271.130131 L 416.736077 269.194887 L 420.236767 267.259644 L 423.737458 265.324401 L 427.261111 263.432630 L 430.832945 261.632076 L 434.404780 259.831521 L 437.983049 258.044375 L 441.622326 256.384355 L 445.261603 254.724335 L 448.900879 253.064315 L 452.540156 251.404295 L 456.179432 249.744275 L 459.818709 248.084255 L 463.457985 246.424235 L 467.071442 244.709209 L 470.673613 242.970138 L 474.275783 241.231066 L 477.877953 239.491994 L 481.480123 237.752923 L 485.082293 236.013851 L 488.745355 234.408131 L 492.418737 232.825012 L 496.092118 231.241893 L 499.765500 229.658774 L 503.438882 228.075655 L 507.112264 226.492536 L 510.785646 224.909416 L 514.459027 223.326297 L 518.108138 221.688261 L 521.751648 220.037554 L 525.395158 218.386848 L 529.038669 216.736142 L 532.617899 214.950385 L 536.196591 213.163499 L 539.775283 211.376613 L 543.353976 209.589727 L 546.932668 207.802841 L 550.511360 206.015955 L 551.966530 205.289370" fill="none" id="28" stroke="black" stroke-width="0.5" /><path d="M 560.092520 202.313000 L 556.399121 203.782632 L 552.837221 205.600657 L 549.309975 207.487064 L 545.782728 209.373472 L 542.255482 211.259879 L 538.728235 213.146286 L 535.200989 215.032694 L 531.657188 216.886515 L 528.053635 218.622720 L 524.450082 220.358924 L 520.830487 222.060929 L 517.191677 223.721972 L 513.552867 225.383015 L 509.914058 227.044058 L 506.275248 228.705101 L 502.636438 230.366144 L 498.997629 232.027187 L 495.358819 233.688230 L 491.720009 235.349273 L 488.081200 237.010316 L 484.442390 238.671359 L 480.803580 240.332402 L 477.164771 241.993445 L 473.524385 243.650882 L 469.833376 245.192457 L 466.142368 246.734033 L 462.451359 248.275608 L 458.760350 249.817184 L 455.069342 251.358759 L 451.378333 252.900335 L 447.687324 254.441911 L 443.996316 255.983486 L 440.305307 257.525062 L 436.614298 259.066637 L 433.009532 260.800034 L 429.406696 262.537726 L 425.803860 264.275419 L 422.201024 266.013111 L 418.598188 267.750803 L 414.995353 269.488495 L 411.392517 271.226188 L 407.789681 272.963880 L 406.706690 273.486220" fill="none" id="29" stroke="black" stroke-width="0.5" /><path d="M 561.541330 197.541340 L 563.380801 195.580206 L 566.984184 193.843649 L 570.587567 192.107092 L 574.190951 190.370536 L 577.794334 188.633979 L 581.397717 186.897422 L 585.017736 185.196968 L 588.679058 183.586156 L 592.340381 181.975344 L 596.001704 180.364531 L 597.604330 179.659450" fill="none" id="30" stroke="black" stroke-width="0.5" /><path d="M 184.911410 212.234260 L 181.394500 214.108704 L 184.086817 212.659975 L 187.751447 211.056701 L 191.416077 209.453426 L 195.115963 207.934537 L 198.831949 206.454185 L 202.547936 204.973832 L 206.263923 203.493480 L 209.979909 202.013128 L 213.695896 200.532775 L 217.373047 198.962457 L 220.998998 197.273528 L 221.793300 196.903550" fill="none" id="31" stroke="black" stroke-width="0.5" /><path d="M 562.738180 199.029530 L 562.832670 200.238931 L 562.993975 204.230237 L 563.236219 208.221133 L 563.403962 212.217614 L 563.571705 216.214096 L 563.739448 220.210577 L 563.907191 224.207058 L 564.061020 227.872050" fill="none" id="32" stroke="black" stroke-width="0.5" /><path d="M 181.289370 182.446850 L 184.461372 184.698526 L 188.119162 186.317345 L 191.798009 187.882990 L 195.572362 189.207475 L 199.346715 190.531960 L 203.121068 191.856446 L 206.895420 193.180931 L 210.669773 194.505416 L 214.444126 195.829902 L 218.218479 197.154387 L 221.992831 198.478872 L 222.013770 198.486220" fill="none" id="33" stroke="black" stroke-width="0.5" /><path d="M 189.635820 184.029530 L 193.454959 185.098714 L 197.223328 186.440130 L 200.991697 187.781545 L 204.760066 189.122961 L 208.528435 190.464376 L 212.296804 191.805792 L 216.105687 193.024299 L 219.933075 194.186668 L 222.423220 194.942920" fill="none" id="34" stroke="black" stroke-width="0.5" /><path d="M 262.549210 318.746070 L 262.739733 322.735032 L 263.126041 326.716334 L 263.512348 330.697636 L 263.898655 334.678938 L 264.284963 338.660241 L 264.344480 339.273630" fill="none" id="35" stroke="black" stroke-width="0.5" /><path d="M 260.344480 322.761820 L 260.063627 326.054448 L 260.101775 330.054266 L 260.139923 334.054084 L 260.178071 338.053902 L 260.187000 338.990160" fill="none" id="36" stroke="black" stroke-width="0.5" /><path d="M 314.832670 693.462600 L 318.570009 692.055155 L 322.231364 690.444418 L 325.881544 688.810611 L 329.414980 686.935824 L 332.948417 685.061037 L 336.481853 683.186249 L 339.951832 681.197989 L 343.399026 679.168987 L 346.846220 677.139984 L 350.293415 675.110982 L 353.740609 673.081979 L 357.187804 671.052977 L 360.634998 669.023975 L 364.082193 666.994972 L 367.529387 664.965970 L 370.976581 662.936967 L 374.423776 660.907965 L 377.870970 658.878963 L 381.318165 656.849960 L 384.765359 654.820958 L 388.225873 652.814897 L 391.697040 650.827185 L 395.168207 648.839472 L 398.639374 646.851760 L 402.110541 644.864048 L 405.581707 642.876335 L 409.052874 640.888623 L 412.486895 638.837651 L 415.913899 636.774730 L 419.340904 634.711810 L 422.767908 632.648890 L 426.194913 630.585969 L 429.621917 628.523049 L 433.048922 626.460129 L 436.475926 624.397209 L 439.902931 622.334288 L 443.329935 620.271368 L 446.756940 618.208448 L 450.183944 616.145527 L 453.610949 614.082607 L 457.022763 611.994882 L 460.417995 609.880077 L 463.813227 607.765271 L 467.208459 605.650466 L 470.603690 603.535661 L 473.998922 601.420855 L 477.394154 599.306050 L 480.789386 597.191245 L 484.184617 595.076439 L 487.579849 592.961634 L 490.975081 590.846829 L 494.370312 588.732023 L 497.765544 586.617218 L 501.160776 584.502413 L 504.556008 582.387607 L 507.951239 580.272802 L 511.346471 578.157997 L 514.741703 576.043191 L 518.136934 573.928386 L 521.525447 571.802893 L 524.902887 569.659788 L 528.280327 567.516683 L 531.657767 565.373578 L 535.035206 563.230472 L 538.412646 561.087367 L 541.790086 558.944262 L 545.167526 556.801156 L 548.544966 554.658051 L 551.922405 552.514946 L 555.299845 550.371840 L 558.677285 548.228735 L 562.054725 546.085630 L 565.432165 543.942524 L 568.829056 541.830410 L 572.227404 539.720615 L 575.625751 537.610820 L 579.024099 535.501026 L 582.422446 533.391231 L 585.820794 531.281436 L 589.219141 529.171641 L 592.617489 527.061846 L 596.015836 524.952051 L 599.414184 522.842256 L 600.596450 522.108270" fill="none" id="37" stroke="black" stroke-width="0.5" /><path d="M 75.557080 583.596460 L 78.790571 581.929903 L 82.440971 580.294490 L 86.082323 578.639578 L 89.688032 576.907854 L 93.293740 575.176129 L 96.899448 573.444405 L 100.505156 571.712680 L 104.110864 569.980956 L 107.726923 568.271165 L 111.355837 566.588613 L 114.984752 564.906062 L 118.613666 563.223510 L 122.242581 561.540958 L 125.871495 559.858407 L 129.500410 558.175855 L 133.129324 556.493304 L 136.758239 554.810752 L 140.387153 553.128201 L 144.016067 551.445649 L 147.644982 549.763097 L 151.273896 548.080546 L 154.902811 546.397994 L 158.531725 544.715443 L 162.160640 543.032891 L 165.789554 541.350340 L 169.418469 539.667788 L 173.047383 537.985237 L 176.676298 536.302685 L 180.305212 534.620133 L 183.934127 532.937582 L 187.563041 531.255030 L 191.191956 529.572479 L 194.799843 527.845310 L 198.407436 526.117516 L 202.015030 524.389722 L 205.622623 522.661928 L 208.061020 521.494100" fill="none" id="38" stroke="black" stroke-width="0.5" /><path d="M 79.746060 656.116150 L 83.236153 658.070440 L 86.726757 660.023763 L 90.308113 661.805306 L 93.908231 663.547214 L 97.556150 665.188155 L 101.204070 666.829096 L 104.851989 668.470036 L 108.499908 670.110977 L 112.147827 671.751917 L 115.795746 673.392858 L 119.443665 675.033798 L 123.112508 676.627060 L 126.789902 678.200838 L 130.467295 679.774616 L 134.144689 681.348394 L 137.822083 682.922172 L 141.499476 684.495949 L 145.159010 686.110565 L 148.811106 687.742188 L 152.463202 689.373811 L 156.115298 691.005435 L 159.767394 692.637058 L 163.419490 694.268681 L 167.071586 695.900304 L 170.723682 697.531928 L 174.375779 699.163551 L 178.058297 700.723450 L 181.769734 702.215173 L 185.481171 703.706897 L 189.192607 705.198620 L 192.904044 706.690343 L 196.632593 708.138384 L 200.369684 709.564621 L 204.106774 710.990859 L 207.843865 712.417096 L 211.580956 713.843333 L 215.318047 715.269571 L 219.055137 716.695808 L 222.792228 718.122045 L 226.139760 719.399610" fill="none" id="39" stroke="black" stroke-width="0.5" /><path d="M 83.431100 657.864180 L 86.133356 660.519914 L 89.516330 662.646327 L 93.057922 664.505662 L 96.667994 666.222810 L 100.329719 667.832707 L 103.996932 669.429267 L 107.731234 670.862791 L 111.465535 672.296315 L 115.199837 673.729838 L 118.934139 675.163362 L 122.677735 676.572125 L 126.432915 677.950033 L 130.188094 679.327941 L 133.943273 680.705848 L 137.698452 682.083756 L 141.453631 683.461664 L 145.196724 684.870552 L 148.892950 686.399576 L 152.589176 687.928600 L 156.285402 689.457624 L 159.981628 690.986648 L 163.677853 692.515672 L 167.412995 693.945698 L 171.161007 695.342983 L 174.909019 696.740268 L 178.695060 698.030262 L 182.486410 699.305280 L 186.277759 700.580299 L 190.069108 701.855317 L 193.860457 703.130335 L 197.651806 704.405353 L 201.443156 705.680371 L 205.234505 706.955389 L 209.025854 708.230407 L 211.683070 709.124020" fill="none" id="40" stroke="black" stroke-width="0.5" /><path d="M 312.155510 707.494100 L 314.892506 704.662034 L 318.263961 702.516513 L 321.778841 700.609072 L 325.365733 698.838703 L 328.952624 697.068333 L 332.474465 695.172816 L 335.984341 693.254283 L 339.463653 691.284531 L 342.818743 689.106602 L 346.173832 686.928672 L 349.528921 684.750743 L 352.884011 682.572814 L 356.239100 680.394885 L 359.594189 678.216956 L 362.982237 676.091174 L 366.389184 673.995294 L 369.796131 671.899414 L 373.203078 669.803533 L 376.610025 667.707653 L 380.016971 665.611773 L 383.423918 663.515893 L 386.830865 661.420013 L 390.247115 659.339343 L 393.664754 657.260944 L 397.082394 655.182545 L 400.500033 653.104147 L 403.917672 651.025748 L 407.335312 648.947349 L 410.752951 646.868951 L 414.170591 644.790552 L 417.588230 642.712153 L 421.005869 640.633755 L 424.423509 638.555356 L 427.841148 636.476957 L 431.273307 634.422732 L 434.713605 632.382059 L 438.153903 630.341385 L 441.594202 628.300712 L 445.034500 626.260039 L 448.474798 624.219366 L 451.915097 622.178692 L 455.355395 620.138019 L 458.795694 618.097346 L 462.222421 616.034009 L 465.645693 613.964900 L 469.068964 611.895791 L 472.492235 609.826681 L 475.915507 607.757572 L 479.338778 605.688463 L 482.762049 603.619353 L 486.185321 601.550244 L 489.608592 599.481135 L 493.036266 597.419452 L 496.494154 595.408727 L 499.952042 593.398003 L 503.409930 591.387279 L 506.867818 589.376555 L 510.325705 587.365831 L 513.783593 585.355106 L 517.241481 583.344382 L 520.699369 581.333658 L 524.157257 579.322934 L 527.615145 577.312210 L 531.032284 575.234972 L 534.394235 573.067649 L 537.756185 570.900326 L 541.118136 568.733004 L 544.480087 566.565681 L 547.842037 564.398358 L 551.203988 562.231035 L 554.556158 560.115923 L 557.662481 559.590256 L 561.080836 557.513035 L 564.499191 555.435813 L 567.917546 553.358592 L 571.335901 551.281370 L 574.754256 549.204149 L 578.172611 547.126927 L 581.591885 545.051264 L 585.064858 543.066709 L 588.537830 541.082153 L 592.010803 539.097597 L 595.483775 537.113041 L 599.004960 535.215381 L 602.526844 533.318982 L 606.048729 531.422582 L 609.600858 530.086161 L 613.034584 528.034448 L 616.468310 525.982735 L 619.902036 523.931022 L 623.325490 521.862514 L 626.716099 519.740306 L 630.106708 517.618097 L 633.497318 515.495888 L 636.887927 513.373680 L 640.278536 511.251471 L 643.669145 509.129263 L 647.059754 507.007054 L 650.076771 506.529213 L 653.525107 504.502151 L 656.973442 502.475088 L 660.421778 500.448026 L 661.950780 499.549220" fill="none" id="41" stroke="black" stroke-width="0.5" /><path d="M 429.289370 265.124020 L 428.410908 268.300023 L 428.226560 272.295773 L 427.843320 276.277143 L 427.450986 280.257855 L 427.058652 284.238568 L 426.666317 288.219281 L 426.549210 289.407480" fill="none" id="42" stroke="black" stroke-width="0.5" /><path d="M 394.328740 281.470480 L 395.096329 279.465061 L 398.824539 278.024550 L 402.495822 276.436571 L 406.085698 274.673667 L 409.664737 272.887474 L 413.243775 271.101281 L 416.822814 269.315089 L 420.407224 267.539945 L 424.022550 265.828391 L 427.637876 264.116837 L 431.253202 262.405283 L 434.880030 260.718771 L 438.534031 259.091417 L 442.188031 257.464062 L 445.842031 255.836708 L 449.496031 254.209354 L 453.150032 252.581999 L 456.804032 250.954645 L 460.458032 249.327290 L 464.101066 247.676297 L 467.703392 245.937547 L 471.291632 244.170267 L 474.862380 242.367560 L 478.433129 240.564852 L 482.003878 238.762145 L 485.574626 236.959437 L 489.145375 235.156730 L 492.757384 233.438200 L 496.369602 231.720096 L 499.981820 230.001992 L 503.594038 228.283888 L 507.206256 226.565785 L 510.809962 224.830388 L 514.374674 223.015772 L 517.936817 221.196150 L 521.490195 219.359438 L 525.028761 217.495105 L 528.524904 215.551659 L 532.021048 213.608214 L 535.517191 211.664768 L 539.013335 209.721323 L 542.509478 207.777877 L 542.864170 207.580710" fill="none" id="43" stroke="black" stroke-width="0.5" /><path d="M 555.557080 204.557090 L 552.160710 205.882707 L 548.634129 207.770357 L 545.107547 209.658008 L 541.580966 211.545658 L 538.004675 213.333858 L 534.378185 215.021630 L 530.718541 216.634567 L 527.032000 218.186797 L 523.345459 219.739027 L 519.658918 221.291256 L 515.954041 222.798790 L 512.239559 224.282914 L 508.525077 225.767037 L 504.810594 227.251161 L 501.096112 228.735285 L 497.381630 230.219408 L 493.669281 231.708666 L 489.996693 233.293624 L 486.324104 234.878582 L 482.651515 236.463540 L 478.978926 238.048498 L 475.306337 239.633455 L 471.633748 241.218413 L 467.961160 242.803371 L 464.277159 244.361156 L 460.574173 245.873735 L 456.871187 247.386313 L 453.168201 248.898892 L 449.465214 250.411470 L 445.762228 251.924048 L 442.059242 253.436627 L 438.356256 254.949205 L 434.653270 256.461784 L 431.020775 258.135512 L 427.396520 259.828077 L 423.772265 261.520642 L 420.148010 263.213207 L 416.561332 264.983029 L 412.992293 266.789121 L 409.423255 268.595212 L 405.854217 270.401303 L 402.285178 272.207394 L 398.716140 274.013485 L 395.147102 275.819576 L 391.578063 277.625667 L 390.328740 278.257880" fill="none" id="44" stroke="black" stroke-width="0.5" /><path d="M 555.084640 198.155520 L 557.513818 196.108692 L 561.158223 194.459962 L 564.802628 192.811232 L 568.447033 191.162501 L 572.091438 189.513771 L 575.738671 187.871520 L 579.425705 186.320461 L 583.112738 184.769402 L 586.801633 183.222921 L 590.525249 181.761868 L 594.248866 180.300814 L 597.972483 178.839761 L 601.696100 177.378707 L 605.372218 175.804319 L 609.024877 174.173957 L 612.677536 172.543594 L 616.330195 170.913232 L 617.163380 170.541340" fill="none" id="45" stroke="black" stroke-width="0.5" /></svg>