<?xml version="1.0" encoding="utf-8" ?>
<svg baseProfile="full" height="709.51805" version="1.1" viewBox="0,0,811.51805,709.51805" width="811.51805" xmlns="http://www.w3.org/2000/svg" xmlns:ev="http://www.w3.org/2001/xml-events" xmlns:xlink="http://www.w3.org/1999/xlink"><defs><style type="text/css"><![CDATA[
	.background { fill: white; }
	.line { stroke: firebrick; stroke-width: .1mm; }
	.blacksquare { fill: indigo; }
	.whitesquare { fill: white; }
]]></style></defs><rect class="background" height="100%" width="100%" x="0" y="0" /><path d="M 367.018025 447.348025 L 370.174025 443.475025 L 373.387025 439.650025 L 376.709025 435.919025 L 380.084025 432.235025 L 383.448025 428.542025 L 386.812025 424.849025 L 390.177025 421.156025 L 393.563025 417.484025 L 397.050025 413.906025 L 400.546025 410.338025 L 404.043025 406.770025 L 407.540025 403.202025 L 411.037025 399.634025 L 414.533025 396.066025 L 418.030025 392.498025 L 421.527025 388.930025 L 425.024025 385.362025 L 428.520025 381.795025 L 432.017025 378.227025 L 435.514025 374.659025 L 439.011025 371.091025 L 442.507025 367.523025 L 446.008025 363.959025 L 449.524025 360.410025 L 453.050025 356.871025 L 456.579025 353.334025 L 460.107025 349.798025 L 463.635025 346.261025 L 467.163025 342.724025 L 470.691025 339.187025 L 474.220025 335.650025 L 477.748025 332.113025 L 481.276025 328.577025 L 484.804025 325.040025 L 488.332025 321.503025 L 491.860025 317.966025 L 495.389025 314.429025 L 498.917025 310.893025 L 502.445025 307.356025 L 505.973025 303.819025 L 509.505025 300.286025 L 513.053025 296.769025 L 516.625025 293.276025 L 520.210025 289.797025 L 523.797025 286.320025 L 527.384025 282.843025 L 530.971025 279.366025 L 534.559025 275.889025 L 538.146025 272.412025 L 541.733025 268.935025 L 545.320025 265.458025 L 548.907025 261.981025 L 552.495025 258.504025 L 556.082025 255.027025 L 559.669025 251.550025 L 563.256025 248.073025 L 566.843025 244.596025 L 570.430025 241.119025 L 574.018025 237.642025 L 577.605025 234.165025 L 581.196025 230.693025 L 584.809025 227.243025 L 588.455025 223.827025 L 592.114025 220.426025 L 595.774025 217.025025 L 599.434025 213.625025 L 603.094025 210.224025 L 606.753025 206.824025 L 610.413025 203.424025 L 614.073025 200.023025 L 617.733025 196.623025 L 621.393025 193.222025 L 625.053025 189.822025 L 628.712025 186.422025 L 632.372025 183.021025 L 636.032025 179.621025 L 639.692025 176.220025 L 643.352025 172.820025 L 647.012025 169.419025 L 650.671025 166.019025 L 654.331025 162.619025 L 657.991025 159.218025 L 661.651025 155.818025 L 665.311025 152.417025 L 668.971025 149.017025 L 672.630025 145.616025 L 676.290025 142.216025" fill="none" id="0" stroke="#f375a0" stroke-width="0.5" /><path d="M 43.489525 247.068025 L 48.321525 245.793025 L 53.102125 244.338025 L 57.822925 242.699025 L 62.448725 240.809025 L 67.052225 238.864025 L 71.655325 236.919025 L 76.258325 234.973025 L 80.859025 233.022025 L 85.433525 231.011025 L 89.970425 228.915025 L 94.503625 226.812025 L 99.036825 224.709025 L 103.570025 222.606025 L 108.103025 220.503025 L 112.636025 218.400025 L 117.170025 216.297025 L 121.703025 214.193025 L 126.236025 212.090025 L 130.769025 209.987025 L 135.307025 207.894025 L 139.863025 205.841025 L 144.428025 203.808025 L 148.995025 201.778025 L 153.561025 199.749025 L 158.128025 197.719025 L 162.694025 195.689025 L 167.261025 193.659025 L 171.828025 191.630025 L 176.394025 189.600025 L 180.961025 187.570025 L 185.527025 185.541025 L 190.094025 183.511025 L 194.660025 181.481025 L 199.227025 179.451025 L 203.793025 177.422025 L 208.360025 175.392025 L 212.927025 173.362025 L 217.493025 171.333025 L 222.060025 169.303025 L 226.626025 167.273025 L 231.193025 165.243025 L 235.759025 163.214025 L 240.326025 161.184025 L 244.892025 159.154025 L 249.459025 157.124025 L 254.026025 155.095025 L 258.592025 153.065025 L 263.159025 151.035025 L 267.725025 149.006025 L 272.292025 146.976025 L 276.858025 144.946025 L 281.425025 142.916025 L 285.988025 140.880025 L 290.540025 138.816025 L 295.075025 136.718025 L 299.604025 134.606025 L 304.133025 132.493025 L 308.661025 130.380025 L 313.190025 128.266025 L 317.718025 126.153025 L 322.247025 124.040025 L 326.775025 121.926025 L 331.304025 119.813025 L 335.832025 117.700025 L 340.361025 115.587025 L 344.889025 113.473025 L 349.418025 111.360025 L 353.946025 109.247025 L 358.475025 107.134025 L 363.003025 105.020025 L 367.532025 102.907025 L 372.060025 100.794025 L 376.589025 98.680625 L 381.117025 96.567325 L 385.646025 94.454025 L 390.174025 92.340825 L 394.703025 90.227525 L 399.231025 88.114225 L 403.760025 86.001025 L 408.288025 83.887725 L 412.817025 81.774425 L 417.345025 79.661225 L 421.874025 77.547925 L 426.402025 75.434625 L 430.931025 73.321425 L 435.459025 71.208125 L 439.988025 69.094925 L 444.516025 66.981625 L 449.045025 64.868325 L 453.573025 62.755125 L 458.102025 60.641825 L 462.630025 58.528525" fill="none" id="1" stroke="#9de993" stroke-width="0.5" /><path d="M 92.161325 225.130025 L 93.292825 224.666025 L 94.424225 224.202025 L 95.555625 223.738025 L 96.687125 223.273025 L 97.818525 222.809025 L 98.949925 222.345025 L 100.081625 221.881025 L 101.213025 221.418025 L 102.344025 220.953025 L 103.475025 220.487025 L 104.604025 220.017025 L 105.733025 219.546025 L 106.859025 219.070025 L 107.984025 218.591025 L 109.108025 218.107025 L 110.229025 217.620025 L 111.350025 217.130025 L 112.469025 216.638025 L 113.589025 216.145025 L 114.707025 215.651025 L 115.826025 215.157025 L 116.945025 214.663025 L 118.063025 214.169025 L 119.182025 213.675025 L 120.301025 213.181025 L 121.419025 212.686025 L 122.538025 212.192025 L 123.657025 211.698025 L 124.776025 211.204025 L 125.894025 210.710025 L 127.013025 210.216025" fill="none" id="2" stroke="#9de993" stroke-width="0.5" /><path d="M 61.622325 243.138025 L 65.886025 240.590025 L 70.212925 238.151025 L 74.634725 235.890025 L 79.104625 233.724025 L 83.584525 231.579025 L 88.063625 229.432025 L 92.525625 227.250025 L 96.963325 225.019025 L 101.390025 222.766025 L 105.816025 220.512025 L 110.243025 218.259025 L 114.669025 216.006025 L 119.096025 213.752025 L 123.524025 211.503025 L 127.975025 209.298025 L 132.447025 207.136025 L 136.922025 204.981025 L 141.398025 202.827025 L 145.873025 200.673025 L 150.349025 198.518025 L 154.825025 196.364025 L 159.300025 194.210025 L 163.776025 192.056025 L 168.251025 189.901025 L 172.727025 187.747025 L 177.203025 185.593025 L 181.678025 183.439025 L 186.154025 181.285025 L 190.639025 179.150025 L 195.159025 177.091025 L 199.688025 175.053025 L 204.218025 173.016025 L 208.749025 170.979025 L 213.279025 168.942025 L 217.809025 166.905025 L 222.339025 164.868025 L 226.869025 162.831025 L 231.400025 160.794025 L 235.930025 158.757025 L 240.460025 156.720025 L 244.990025 154.683025 L 249.520025 152.646025 L 254.050025 150.609025 L 258.581025 148.573025 L 263.119025 146.553025 L 267.676025 144.578025 L 272.248025 142.636025 L 276.822025 140.700025 L 281.396025 138.764025 L 285.970025 136.828025 L 290.545025 134.892025 L 295.119025 132.956025 L 299.693025 131.020025 L 304.267025 129.084025 L 308.841025 127.148025 L 313.416025 125.212025 L 317.990025 123.276025 L 322.564025 121.340025 L 327.138025 119.404025 L 331.713025 117.468025 L 336.287025 115.532025 L 340.861025 113.596025 L 345.435025 111.660025 L 350.010025 109.724025 L 354.584025 107.788025 L 359.155025 105.846025 L 363.719025 103.885025 L 368.277025 101.910025 L 372.833025 99.933425 L 377.390025 97.956225 L 381.946025 95.979025 L 386.503025 94.001825 L 391.060025 92.024625 L 395.616025 90.047425 L 400.173025 88.070225 L 404.729025 86.093025 L 409.286025 84.115725 L 413.842025 82.138525 L 418.399025 80.161325 L 422.956025 78.184125 L 427.512025 76.206925 L 432.069025 74.229725 L 436.625025 72.251125 L 441.178025 70.266025 L 445.728025 68.273725 L 450.276025 66.278525 L 454.825025 64.283225 L 459.374025 62.288025 L 463.923025 60.292725 L 468.471025 58.297525 L 473.020025 56.302225 L 477.569025 54.306925 L 482.117025 52.311725 L 486.666025 50.316425 L 491.215025 48.321225 L 495.763025 46.325925 L 500.312025 44.330725 L 504.851025 42.312925 L 509.364025 40.238925 L 513.851025 38.109625 L 518.327025 35.956425 L 522.801025 33.797825 L 527.271025 31.632625 L 531.695025 29.395625 L 535.575025 26.296825 L 539.134025 22.837125" fill="none" id="3" stroke="#9de993" stroke-width="0.5" /><path d="M 94.809325 315.801025 L 99.188425 313.469025 L 103.535025 311.076025 L 107.846025 308.621025 L 112.158025 306.167025 L 116.456025 303.689025 L 120.753025 301.210025 L 125.051025 298.731025 L 129.349025 296.252025 L 133.647025 293.774025 L 137.944025 291.295025 L 142.242025 288.816025 L 146.540025 286.337025 L 150.838025 283.859025 L 155.135025 281.380025 L 159.433025 278.901025 L 163.731025 276.422025 L 168.029025 273.944025 L 172.326025 271.465025 L 176.624025 268.986025 L 180.922025 266.507025 L 185.220025 264.029025 L 189.517025 261.550025 L 193.815025 259.071025 L 198.113025 256.592025 L 202.410025 254.114025 L 206.708025 251.635025 L 211.007025 249.158025 L 215.331025 246.725025 L 219.679025 244.335025 L 224.033025 241.958025 L 228.388025 239.581025 L 232.743025 237.203025 L 237.097025 234.826025 L 241.452025 232.449025 L 245.807025 230.071025 L 250.161025 227.694025 L 254.516025 225.317025 L 258.871025 222.939025 L 263.225025 220.562025 L 267.580025 218.185025 L 271.934025 215.807025 L 276.289025 213.430025 L 280.644025 211.052025 L 284.998025 208.675025 L 289.353025 206.298025 L 293.708025 203.920025 L 298.064025 201.546025 L 302.433025 199.195025 L 306.817025 196.872025 L 311.203025 194.554025 L 315.590025 192.237025 L 319.977025 189.920025 L 324.364025 187.602025 L 328.751025 185.285025 L 333.138025 182.968025 L 337.525025 180.650025 L 341.911025 178.333025 L 346.298025 176.015025 L 350.685025 173.698025 L 355.072025 171.381025 L 359.459025 169.063025 L 363.846025 166.746025 L 368.233025 164.429025 L 372.619025 162.111025 L 377.006025 159.794025 L 381.393025 157.476025 L 385.780025 155.159025 L 390.167025 152.842025 L 394.554025 150.524025 L 398.941025 148.207025 L 403.327025 145.889025 L 407.714025 143.572025 L 412.101025 141.255025 L 416.488025 138.937025 L 420.875025 136.620025 L 425.262025 134.303025 L 429.649025 131.985025 L 434.035025 129.668025 L 438.422025 127.350025 L 442.809025 125.033025 L 447.196025 122.716025 L 451.583025 120.398025 L 455.970025 118.081025 L 460.357025 115.764025 L 464.744025 113.447025 L 469.134025 111.135025 L 473.531025 108.839025 L 477.930025 106.544025 L 482.329025 104.250025 L 486.729025 101.956025 L 491.128025 99.662125 L 495.527025 97.367925 L 499.926025 95.073825 L 504.325025 92.779725 L 508.724025 90.485625" fill="none" id="4" stroke="#ad5ba7" stroke-width="0.5" /><path d="M 25.837125 250.513025 L 30.823225 250.549025 L 35.808225 250.493025 L 40.792125 250.339025 L 45.749125 249.805025 L 50.683725 249.109025 L 55.591525 248.228025 L 60.510525 247.412025 L 65.430625 246.602025 L 70.350625 245.793025 L 75.266425 244.957025 L 80.179325 244.106025 L 85.088025 243.230025 L 89.996425 242.352025 L 94.904625 241.474025 L 99.812925 240.595025 L 104.721025 239.717025 L 109.629025 238.839025 L 114.538025 237.961025 L 119.446025 237.082025 L 124.354025 236.204025 L 129.263025 235.326025 L 134.171025 234.448025 L 139.079025 233.569025 L 143.987025 232.691025 L 148.896025 231.813025 L 153.805025 230.939025 L 158.722025 230.111025 L 163.649025 229.345025 L 168.583025 228.627025 L 173.520025 227.929025 L 178.457025 227.231025 L 183.394025 226.532025 L 188.331025 225.834025 L 193.268025 225.136025 L 198.205025 224.438025 L 203.143025 223.740025 L 208.080025 223.042025 L 213.017025 222.343025 L 217.954025 221.645025 L 222.891025 220.947025 L 227.828025 220.249025 L 232.765025 219.551025 L 237.702025 218.853025 L 242.639025 218.154025 L 247.577025 217.456025 L 252.514025 216.758025 L 257.451025 216.060025 L 262.388025 215.364025 L 267.326025 214.673025 L 272.267025 214.000025 L 277.208025 213.333025 L 282.150025 212.670025 L 287.092025 212.007025 L 292.034025 211.343025 L 296.976025 210.680025 L 301.918025 210.017025 L 306.860025 209.353025 L 311.802025 208.690025 L 316.744025 208.027025 L 321.686025 207.364025 L 326.628025 206.700025 L 331.570025 206.037025 L 336.511025 205.374025 L 341.453025 204.710025 L 346.395025 204.047025 L 351.337025 203.384025 L 356.279025 202.720025 L 361.221025 202.057025 L 366.163025 201.394025 L 371.105025 200.730025 L 376.047025 200.067025 L 380.989025 199.404025 L 385.931025 198.740025 L 390.873025 198.077025 L 395.814025 197.414025 L 400.756025 196.750025 L 405.698025 196.087025 L 410.640025 195.424025 L 415.582025 194.760025 L 420.526025 194.111025 L 425.472025 193.477025 L 430.422025 192.882025 L 435.376025 192.310025 L 440.330025 191.748025 L 445.284025 191.186025 L 450.239025 190.623025 L 455.193025 190.061025 L 460.148025 189.499025 L 465.102025 188.937025 L 470.057025 188.375025 L 475.011025 187.813025 L 479.966025 187.251025 L 484.920025 186.689025 L 489.875025 186.127025 L 494.829025 185.565025 L 499.783025 185.003025 L 504.738025 184.441025 L 509.692025 183.879025 L 514.647025 183.317025 L 519.602025 182.765025 L 524.560025 182.229025 L 529.520025 181.718025 L 534.483025 181.238025 L 539.446025 180.763025 L 544.410025 180.288025 L 549.374025 179.814025 L 554.337025 179.339025 L 559.301025 178.864025 L 564.264025 178.390025 L 569.228025 177.913025 L 574.190025 177.429025 L 579.151025 176.927025 L 584.111025 176.417025 L 589.071025 175.904025 L 594.031025 175.392025 L 598.991025 174.879025 L 603.951025 174.367025 L 608.910025 173.854025 L 613.870025 173.342025 L 618.830025 172.830025 L 623.790025 172.317025 L 628.750025 171.805025 L 633.710025 171.292025 L 638.669025 170.780025 L 643.629025 170.267025 L 648.589025 169.755025 L 653.549025 169.242025 L 658.509025 168.730025 L 663.469025 168.217025 L 668.428025 167.705025 L 673.388025 167.192025 L 678.348025 166.680025 L 683.308025 166.167025 L 688.268025 165.655025 L 693.228025 165.143025 L 698.187025 164.630025 L 703.147025 164.118025 L 708.107025 163.605025 L 713.067025 163.093025 L 718.027025 162.580025 L 722.987025 162.068025 L 727.946025 161.556025 L 732.907025 161.046025 L 737.868025 160.545025 L 742.829025 160.050025 L 747.791025 159.558025 L 752.753025 159.065025 L 757.715025 158.572025 L 762.676025 158.079025 L 767.638025 157.586025 L 772.600025 157.093025 L 777.562025 156.600025 L 782.524025 156.107025 L 787.486025 155.614025" fill="none" id="5" stroke="#58f2c3" stroke-width="0.5" /><path d="M 129.312025 264.595025 L 133.790025 262.501025 L 138.233025 260.333025 L 142.601025 258.017025 L 146.907025 255.589025 L 151.228025 253.186025 L 155.548025 250.783025 L 159.858025 248.361025 L 164.125025 245.865025 L 168.374025 243.336025 L 172.620025 240.805025 L 176.867025 238.274025 L 181.113025 235.742025 L 185.360025 233.211025 L 189.606025 230.679025 L 193.853025 228.148025 L 198.099025 225.617025 L 202.346025 223.085025 L 206.592025 220.554025 L 210.842025 218.028025 L 215.115025 215.542025 L 219.411025 213.094025 L 223.711025 210.656025 L 228.012025 208.218025 L 232.313025 205.780025 L 236.627025 203.366025 L 240.976025 201.015025 L 245.342025 198.695025 L 249.709025 196.379025 L 254.077025 194.062025 L 258.444025 191.745025 L 262.811025 189.429025 L 267.179025 187.112025 L 271.546025 184.795025 L 275.913025 182.479025 L 280.281025 180.162025 L 284.648025 177.845025 L 289.015025 175.529025 L 293.383025 173.212025 L 297.750025 170.895025 L 302.117025 168.579025 L 306.497025 166.286025 L 310.903025 164.042025 L 315.322025 161.826025 L 319.746025 159.619025 L 324.183025 157.440025 L 328.634025 155.288025 L 333.087025 153.141025 L 337.540025 150.994025 L 341.994025 148.846025 L 346.447025 146.699025 L 350.900025 144.552025 L 355.353025 142.405025 L 359.806025 140.258025 L 364.259025 138.111025 L 368.713025 135.964025 L 373.166025 133.817025 L 377.619025 131.670025 L 382.072025 129.523025 L 386.525025 127.376025 L 390.979025 125.229025 L 395.432025 123.082025 L 399.885025 120.934025 L 404.338025 118.787025 L 408.791025 116.640025 L 413.244025 114.493025 L 417.697025 112.346025 L 422.148025 110.193025 L 426.590025 108.022025 L 431.030025 105.848025 L 435.469025 103.674025 L 439.909025 101.499025 L 444.349025 99.325025 L 448.789025 97.150625 L 453.229025 94.976325 L 457.669025 92.802025" fill="none" id="6" stroke="#c94e76" stroke-width="0.5" /><path d="M 121.314025 261.626025 L 125.943025 259.812025 L 130.462025 257.746025 L 134.855025 255.414025 L 139.257025 253.102025 L 143.649025 250.769025 L 148.041025 248.436025 L 152.433025 246.103025 L 156.825025 243.770025 L 161.217025 241.437025 L 165.609025 239.104025 L 170.002025 236.774025 L 174.406025 234.464025 L 178.835025 232.203025 L 183.283025 229.979025 L 187.731025 227.755025 L 192.179025 225.531025 L 196.627025 223.307025 L 201.075025 221.082025 L 205.523025 218.858025 L 209.971025 216.634025 L 214.419025 214.410025 L 218.867025 212.186025 L 223.324025 209.979025 L 227.796025 207.806025 L 232.276025 205.647025 L 236.757025 203.488025 L 241.237025 201.330025 L 245.717025 199.172025 L 250.197025 197.013025 L 254.678025 194.855025 L 259.158025 192.697025 L 263.638025 190.539025 L 268.118025 188.380025 L 272.599025 186.222025 L 277.079025 184.064025 L 281.559025 181.905025 L 286.040025 179.747025 L 290.520025 177.589025 L 295.000025 175.430025 L 299.480025 173.272025 L 303.961025 171.114025 L 308.441025 168.956025 L 312.921025 166.797025 L 317.401025 164.639025 L 321.882025 162.481025 L 326.362025 160.322025 L 330.842025 158.164025 L 335.323025 156.006025 L 339.803025 153.847025 L 344.283025 151.689025 L 348.763025 149.531025 L 353.244025 147.372025 L 357.724025 145.214025 L 362.204025 143.056025 L 366.684025 140.898025 L 371.165025 138.739025 L 375.645025 136.581025 L 380.125025 134.423025 L 384.605025 132.264025 L 389.086025 130.106025 L 393.566025 127.948025 L 398.046025 125.789025 L 402.527025 123.631025 L 407.007025 121.473025 L 411.487025 119.314025 L 415.967025 117.156025 L 420.448025 114.998025 L 424.928025 112.840025 L 429.408025 110.681025 L 433.888025 108.523025 L 438.369025 106.365025 L 442.849025 104.206025 L 447.329025 102.048025" fill="none" id="7" stroke="#c94e76" stroke-width="0.5" /><path d="M 140.509025 255.989025 L 144.708025 253.374025 L 148.987025 250.889025 L 153.358025 248.573025 L 157.829025 246.455025 L 162.300025 244.337025 L 166.771025 242.218025 L 171.242025 240.100025 L 175.713025 237.982025 L 180.184025 235.863025 L 184.655025 233.745025 L 189.126025 231.627025 L 193.597025 229.508025 L 198.068025 227.390025 L 202.539025 225.271025 L 207.010025 223.153025 L 211.481025 221.035025 L 215.952025 218.916025 L 220.423025 216.798025 L 224.894025 214.681025 L 229.383025 212.601025 L 233.887025 210.554025 L 238.394025 208.514025 L 242.901025 206.474025 L 247.409025 204.434025 L 251.916025 202.394025 L 256.423025 200.354025 L 260.931025 198.314025 L 265.438025 196.274025 L 269.945025 194.234025 L 274.452025 192.194025 L 278.960025 190.154025 L 283.467025 188.114025 L 287.974025 186.075025 L 292.481025 184.035025 L 296.989025 181.995025 L 301.496025 179.955025 L 306.003025 177.915025 L 310.510025 175.875025 L 315.018025 173.835025 L 319.529025 171.805025 L 324.058025 169.813025 L 328.605025 167.863025 L 333.155025 165.920025 L 337.704025 163.976025 L 342.254025 162.033025 L 346.804025 160.089025 L 351.354025 158.146025 L 355.903025 156.203025 L 360.453025 154.259025 L 365.003025 152.316025 L 369.552025 150.372025 L 374.102025 148.429025 L 378.652025 146.485025 L 383.201025 144.542025 L 387.751025 142.598025 L 392.301025 140.655025 L 396.852025 138.714025 L 401.413025 136.797025 L 405.995025 134.931025 L 410.580025 133.075025 L 415.166025 131.218025 L 419.752025 129.361025 L 424.338025 127.504025 L 428.923025 125.647025 L 433.509025 123.790025" fill="none" id="8" stroke="#c94e76" stroke-width="0.5" /><path d="M 382.068025 137.126025 L 377.507025 139.168025 L 372.961025 141.243025 L 368.426025 143.341025 L 363.933025 145.527025 L 359.453025 147.739025 L 354.974025 149.953025 L 350.494025 152.167025 L 346.015025 154.381025 L 341.535025 156.596025 L 337.056025 158.810025 L 332.577025 161.024025 L 328.098025 163.240025 L 323.627025 165.471025 L 319.175025 167.739025 L 314.732025 170.025025 L 310.290025 172.313025 L 305.848025 174.601025 L 301.406025 176.890025 L 296.964025 179.178025 L 292.522025 181.466025 L 288.080025 183.755025 L 283.638025 186.043025 L 279.196025 188.331025 L 274.754025 190.620025 L 270.312025 192.908025 L 265.870025 195.196025 L 261.428025 197.484025 L 256.986025 199.773025 L 252.544025 202.061025 L 248.102025 204.349025 L 243.660025 206.638025 L 239.214025 208.918025 L 234.756025 211.175025 L 230.287025 213.410025 L 225.806025 215.621025 L 221.298025 217.775025 L 216.770025 219.890025 L 212.240025 221.997025 L 207.709025 224.105025 L 203.178025 226.212025 L 198.648025 228.319025 L 194.117025 230.426025 L 189.587025 232.534025 L 185.056025 234.641025 L 180.525025 236.748025 L 175.995025 238.856025 L 171.464025 240.963025 L 166.930025 243.064025 L 162.360025 245.085025 L 157.783025 247.089025 L 153.205025 249.091025 L 148.626025 251.091025" fill="none" id="9" stroke="#c94e76" stroke-width="0.5" /><path d="M 135.517025 262.529025 L 139.781025 259.999025 L 144.045025 257.469025 L 148.309025 254.940025 L 152.573025 252.410025 L 156.838025 249.881025 L 161.102025 247.351025 L 165.366025 244.822025 L 169.641025 242.310025 L 173.967025 239.888025 L 178.319025 237.513025 L 182.675025 235.146025 L 187.031025 232.778025 L 191.387025 230.410025 L 195.744025 228.043025 L 200.100025 225.675025 L 204.456025 223.308025 L 208.812025 220.940025 L 213.168025 218.572025 L 217.524025 216.205025 L 221.881025 213.837025 L 226.237025 211.469025 L 230.597025 209.109025 L 234.976025 206.786025 L 239.389025 204.526025 L 243.820025 202.302025 L 248.258025 200.091025 L 252.708025 197.904025 L 257.164025 195.731025 L 261.621025 193.559025 L 266.078025 191.386025 L 270.535025 189.214025 L 274.991025 187.042025 L 279.448025 184.869025 L 283.905025 182.697025 L 288.362025 180.524025 L 292.818025 178.352025 L 297.275025 176.180025 L 301.732025 174.007025 L 306.189025 171.835025 L 310.645025 169.663025 L 315.102025 167.490025 L 319.559025 165.319025 L 324.024025 163.164025 L 328.498025 161.026025 L 332.973025 158.892025 L 337.449025 156.759025 L 341.925025 154.626025 L 346.400025 152.493025 L 350.876025 150.360025 L 355.352025 148.227025 L 359.827025 146.094025 L 364.303025 143.961025 L 368.779025 141.828025 L 373.254025 139.695025 L 377.730025 137.562025 L 382.206025 135.428025 L 386.681025 133.295025 L 391.157025 131.162025 L 395.633025 129.029025 L 400.108025 126.896025 L 404.584025 124.763025 L 409.060025 122.630025" fill="none" id="10" stroke="#c94e76" stroke-width="0.5" /><path d="M 333.751025 240.529025 L 336.304025 238.188025 L 338.900025 235.897025 L 341.556025 233.674025 L 344.264025 231.515025 L 346.977025 229.362025 L 349.692025 227.213025 L 352.429025 225.091025 L 355.191025 223.002025 L 357.964025 220.927025 L 360.738025 218.854025 L 363.513025 216.781025 L 366.287025 214.708025 L 369.061025 212.635025 L 371.835025 210.563025 L 374.610025 208.490025 L 377.383025 206.416025 L 380.147025 204.329025 L 382.889025 202.214025 L 385.614025 200.076025 L 388.336025 197.935025 L 391.058025 195.794025 L 393.780025 193.654025 L 396.503025 191.513025 L 399.225025 189.372025 L 401.947025 187.231025 L 404.673025 185.095025 L 407.419025 182.985025 L 410.228025 180.960025 L 413.112025 179.043025 L 416.047025 177.204025" fill="none" id="11" stroke="#57b870" stroke-width="0.5" /><path d="M 331.818025 237.239025 L 334.391025 234.810025 L 337.088025 232.517025 L 339.950025 230.434025 L 342.917025 228.505025 L 345.885025 226.576025 L 348.852025 224.646025 L 351.820025 222.717025 L 354.787025 220.787025 L 357.755025 218.859025 L 360.744025 216.962025 L 363.751025 215.096025 L 366.764025 213.238025 L 369.787025 211.396025 L 372.831025 209.590025 L 375.891025 207.810025 L 378.953025 206.035025 L 382.015025 204.259025 L 385.077025 202.484025 L 388.139025 200.708025 L 391.201025 198.933025 L 394.263025 197.158025 L 397.325025 195.382025 L 400.387025 193.607025 L 403.454025 191.840025 L 406.545025 190.114025 L 409.666025 188.444025 L 412.800025 186.800025 L 415.935025 185.156025 L 419.070025 183.512025 L 422.204025 181.868025" fill="none" id="12" stroke="#d271bb" stroke-width="0.5" /><path d="M 348.888025 473.450025 L 352.293025 469.816025 L 355.697025 466.182025 L 359.102025 462.547025 L 362.507025 458.913025 L 365.911025 455.278025 L 369.316025 451.644025 L 372.722025 448.010025 L 376.142025 444.391025 L 379.601025 440.808025 L 383.073025 437.238025 L 386.545025 433.668025 L 390.018025 430.099025 L 393.491025 426.529025 L 396.964025 422.960025 L 400.436025 419.390025 L 403.909025 415.821025 L 407.382025 412.251025 L 410.860025 408.688025 L 414.368025 405.153025 L 417.939025 401.682025 L 421.541025 398.243025 L 425.148025 394.809025 L 428.754025 391.374025 L 432.361025 387.940025 L 435.967025 384.506025 L 439.573025 381.071025 L 443.180025 377.637025 L 446.786025 374.202025 L 450.392025 370.768025 L 453.999025 367.334025 L 457.605025 363.899025 L 461.211025 360.465025 L 464.818025 357.031025 L 468.424025 353.596025 L 472.041025 350.173025 L 475.675025 346.768025 L 479.324025 343.379025 L 482.978025 339.996025 L 486.633025 336.612025 L 490.287025 333.229025 L 493.941025 329.845025 L 497.595025 326.462025 L 501.249025 323.078025 L 504.903025 319.695025 L 508.557025 316.311025 L 512.212025 312.928025 L 515.866025 309.544025 L 519.520025 306.161025 L 523.174025 302.777025 L 526.828025 299.394025 L 530.482025 296.010025 L 534.136025 292.627025 L 537.791025 289.243025 L 541.445025 285.860025 L 545.099025 282.476025 L 548.753025 279.093025 L 552.408025 275.710025 L 556.068025 272.333025 L 559.735025 268.963025 L 563.407025 265.599025 L 567.078025 262.234025 L 570.750025 258.870025 L 574.422025 255.506025 L 578.094025 252.141025 L 581.766025 248.777025 L 585.437025 245.413025 L 589.109025 242.048025 L 592.781025 238.684025 L 596.453025 235.320025 L 600.125025 231.955025 L 603.796025 228.591025 L 607.468025 225.227025 L 611.140025 221.862025 L 614.812025 218.498025 L 618.484025 215.134025 L 622.155025 211.769025 L 625.819025 208.396025 L 629.467025 205.007025 L 633.106025 201.606025 L 636.742025 198.203025 L 640.378025 194.800025 L 644.014025 191.398025 L 647.650025 187.995025 L 651.287025 184.592025 L 654.923025 181.189025 L 658.559025 177.786025 L 662.195025 174.383025 L 665.831025 170.981025 L 669.467025 167.578025 L 673.103025 164.175025 L 676.740025 160.772025 L 680.376025 157.369025 L 684.012025 153.966025 L 687.648025 150.564025 L 691.284025 147.161025 L 694.920025 143.758025 L 698.556025 140.355025 L 702.198025 136.958025 L 705.849025 133.571025 L 709.506025 130.190025 L 713.164025 126.812025 L 716.823025 123.433025 L 720.481025 120.054025 L 724.140025 116.675025 L 727.798025 113.296025 L 731.457025 109.917025 L 735.099025 106.521025 L 738.758025 103.143025 L 742.111025 99.473525 L 745.232025 95.593725 L 748.220025 91.610625" fill="none" id="13" stroke="#3d8e43" stroke-width="0.5" /><path d="M 38.141825 244.200025 L 42.306725 246.905025 L 46.480525 249.596025 L 50.672425 252.259025 L 54.906025 254.855025 L 59.131325 257.465025 L 63.356625 260.075025 L 67.581825 262.684025 L 71.769325 265.354025 L 75.877625 268.144025 L 79.977625 270.946025 L 84.077625 273.749025 L 88.177525 276.551025 L 92.277525 279.353025 L 96.377525 282.156025 L 100.477025 284.958025 L 104.577025 287.760025 L 108.677025 290.563025 L 112.777025 293.365025 L 116.877025 296.167025 L 120.977025 298.970025 L 125.077025 301.772025 L 129.177025 304.574025 L 133.277025 307.376025 L 137.377025 310.179025 L 141.477025 312.981025 L 145.582025 315.777025 L 149.701025 318.551025 L 153.829025 321.312025 L 157.958025 324.071025 L 162.088025 326.829025 L 166.217025 329.588025 L 170.347025 332.347025 L 174.476025 335.105025 L 178.606025 337.864025 L 182.735025 340.623025 L 186.864025 343.382025 L 190.994025 346.140025 L 195.123025 348.899025 L 199.253025 351.658025 L 203.382025 354.417025 L 207.512025 357.175025 L 211.641025 359.934025 L 215.771025 362.693025 L 219.900025 365.452025 L 224.029025 368.210025 L 228.159025 370.969025 L 232.288025 373.728025 L 236.418025 376.486025 L 240.547025 379.245025 L 244.683025 381.994025 L 248.844025 384.705025 L 253.029025 387.380025 L 257.215025 390.050025 L 261.402025 392.721025 L 265.589025 395.392025 L 269.776025 398.063025 L 273.963025 400.734025 L 278.149025 403.405025 L 282.336025 406.076025 L 286.523025 408.746025 L 290.710025 411.417025 L 294.897025 414.088025 L 299.083025 416.759025 L 303.270025 419.430025 L 307.457025 422.101025 L 311.644025 424.772025 L 315.831025 427.443025 L 320.017025 430.113025 L 324.204025 432.784025 L 328.391025 435.455025 L 332.578025 438.126025 L 336.765025 440.797025 L 340.951025 443.468025 L 345.138025 446.139025 L 349.325025 448.809025 L 353.511025 451.481025 L 357.691025 454.163025 L 361.858025 456.864025 L 366.023025 459.570025 L 370.187025 462.275025 L 374.352025 464.981025 L 378.516025 467.686025 L 382.681025 470.392025" fill="none" id="14" stroke="#00d4db" stroke-width="0.5" /><path d="M 310.427025 107.298025 L 314.491025 110.181025 L 318.653025 112.921025 L 322.896025 115.533025 L 327.340025 117.787025 L 331.865025 119.874025 L 336.408025 121.922025 L 340.953025 123.967025 L 345.497025 126.012025 L 350.041025 128.057025 L 354.585025 130.101025 L 359.130025 132.146025 L 363.674025 134.191025 L 368.218025 136.236025 L 372.762025 138.281025 L 377.306025 140.326025 L 381.851025 142.371025 L 386.395025 144.416025 L 390.939025 146.461025 L 395.483025 148.506025 L 400.028025 150.549025 L 404.582025 152.572025 L 409.162025 154.536025 L 413.765025 156.444025 L 418.375025 158.337025 L 422.985025 160.230025 L 427.594025 162.123025 L 432.204025 164.016025 L 436.813025 165.909025 L 441.423025 167.802025 L 446.033025 169.695025 L 450.642025 171.588025 L 455.252025 173.481025 L 459.861025 175.374025 L 464.471025 177.267025 L 469.081025 179.160025 L 473.690025 181.053025 L 478.300025 182.946025 L 482.909025 184.839025 L 487.519025 186.732025 L 492.129025 188.625025 L 496.740025 190.513025 L 501.365025 192.368025 L 506.016025 194.156025 L 510.685025 195.898025 L 515.357025 197.630025 L 520.030025 199.363025 L 524.702025 201.096025 L 529.374025 202.828025 L 534.046025 204.561025 L 538.718025 206.293025 L 543.391025 208.026025 L 548.063025 209.759025 L 552.735025 211.491025 L 557.407025 213.224025 L 562.080025 214.957025 L 566.752025 216.689025 L 571.424025 218.422025 L 576.096025 220.155025 L 580.768025 221.887025 L 585.441025 223.620025 L 590.112025 225.356025 L 594.755025 227.164025 L 599.388025 228.999025 L 604.009025 230.864025" fill="none" id="15" stroke="#d55969" stroke-width="0.5" /><path d="M 357.072025 70.415325 L 361.761025 72.099825 L 366.451025 73.784325 L 371.141025 75.468825 L 375.831025 77.153325 L 380.521025 78.836125 L 385.224025 80.483625 L 389.948025 82.069025 L 394.676025 83.643625 L 399.404025 85.217725 L 404.132025 86.791725 L 408.860025 88.365825 L 413.588025 89.939925 L 418.315025 91.514025 L 423.043025 93.088025 L 427.771025 94.662125 L 432.500025 96.235625 L 437.231025 97.800125 L 441.973025 99.331525 L 446.722025 100.838025 L 451.474025 102.341025 L 456.225025 103.843025 L 460.976025 105.346025 L 465.727025 106.849025 L 470.478025 108.351025 L 475.229025 109.854025 L 479.981025 111.357025 L 484.732025 112.859025 L 489.483025 114.362025 L 494.234025 115.864025 L 498.985025 117.367025 L 503.736025 118.870025 L 508.488025 120.372025 L 513.239025 121.875025 L 517.988025 123.384025 L 522.729025 124.918025 L 527.463025 126.475025 L 532.194025 128.039025 L 536.925025 129.603025 L 541.656025 131.168025 L 546.387025 132.732025 L 551.118025 134.297025 L 555.850025 135.861025 L 560.581025 137.425025 L 565.312025 138.990025 L 570.043025 140.554025 L 574.774025 142.118025 L 579.506025 143.683025 L 584.237025 145.247025 L 588.968025 146.812025 L 593.699025 148.376025 L 598.430025 149.940025 L 603.161025 151.505025 L 607.893025 153.069025 L 612.624025 154.633025 L 617.355025 156.198025 L 622.086025 157.762025 L 626.817025 159.327025 L 631.548025 160.891025 L 636.280025 162.455025 L 641.011025 164.020025 L 645.742025 165.584025 L 650.473025 167.149025 L 655.204025 168.713025 L 659.936025 170.277025 L 664.667025 171.842025 L 669.398025 173.406025 L 674.129025 174.970025 L 678.860025 176.535025 L 683.591025 178.099025 L 688.323025 179.664025 L 693.054025 181.228025 L 697.785025 182.792025 L 702.516025 184.357025 L 707.247025 185.921025 L 711.978025 187.485025 L 716.710025 189.050025 L 721.441025 190.614025 L 726.172025 192.179025 L 730.903025 193.743025 L 735.634025 195.307025 L 740.366025 196.872025 L 745.097025 198.436025 L 749.828025 200.001025 L 754.558025 201.567025 L 759.284025 203.149025 L 764.006025 204.739025 L 768.728025 206.331025 L 773.451025 207.922025 L 778.173025 209.513025 L 782.895025 211.105025 L 787.617025 212.696025 L 792.339025 214.288025 L 797.061025 215.879025 L 801.783025 217.471025 L 806.506025 219.062025 L 811.228025 220.654025" fill="none" id="16" stroke="#64e4ff" stroke-width="0.5" /><path d="M 672.810025 114.161025 L 672.168025 119.095025 L 671.526025 124.028025 L 670.884025 128.962025 L 670.243025 133.895025 L 669.601025 138.828025 L 668.959025 143.762025 L 668.317025 148.695025 L 667.676025 153.629025 L 667.034025 158.562025 L 666.392025 163.495025 L 665.750025 168.429025 L 665.109025 173.362025 L 664.467025 178.296025 L 663.825025 183.229025 L 663.183025 188.162025 L 662.542025 193.096025 L 661.900025 198.029025 L 661.258025 202.963025 L 660.616025 207.896025 L 659.975025 212.830025 L 659.333025 217.763025 L 658.691025 222.696025 L 658.049025 227.630025 L 657.408025 232.563025 L 656.770025 237.497025 L 656.165025 242.435025 L 655.622025 247.380025 L 655.113025 252.329025 L 654.611025 257.279025 L 654.109025 262.228025 L 653.606025 267.178025 L 653.104025 272.127025 L 652.602025 277.077025 L 652.099025 282.026025 L 651.597025 286.976025 L 651.095025 291.926025 L 650.593025 296.875025 L 650.090025 301.825025 L 649.588025 306.774025 L 649.086025 311.724025 L 648.584025 316.673025 L 648.081025 321.623025 L 647.579025 326.572025 L 647.077025 331.522025 L 646.575025 336.472025 L 646.072025 341.421025 L 645.570025 346.371025 L 645.068025 351.320025 L 644.565025 356.270025 L 644.063025 361.219025 L 643.561025 366.169025 L 643.059025 371.118025 L 642.556025 376.068025 L 642.054025 381.018025 L 641.552025 385.967025 L 641.050025 390.917025 L 640.551025 395.867025 L 640.088025 400.820025 L 639.700025 405.780025 L 639.347025 410.742025 L 638.998025 415.705025 L 638.648025 420.667025 L 638.298025 425.630025 L 637.948025 430.593025 L 637.598025 435.555025 L 637.248025 440.518025 L 636.899025 445.481025 L 636.549025 450.443025 L 636.199025 455.406025 L 635.849025 460.369025 L 635.499025 465.331025 L 635.149025 470.294025 L 634.800025 475.257025 L 634.450025 480.219025 L 634.100025 485.182025 L 633.750025 490.145025 L 633.400025 495.107025 L 633.050025 500.070025 L 632.700025 505.033025 L 632.351025 509.995025 L 632.001025 514.958025 L 631.651025 519.921025 L 631.301025 524.883025 L 630.951025 529.846025 L 630.601025 534.809025 L 630.252025 539.771025 L 629.902025 544.734025 L 629.552025 549.697025" fill="none" id="17" stroke="#e68e54" stroke-width="0.5" /><path d="M 360.583025 309.782025 L 360.503025 314.730025 L 360.423025 319.678025 L 360.343025 324.625025 L 360.262025 329.573025 L 360.182025 334.520025 L 360.102025 339.468025 L 360.022025 344.415025 L 359.942025 349.363025 L 359.862025 354.310025 L 359.781025 359.258025 L 359.701025 364.206025 L 359.621025 369.153025 L 359.541025 374.101025 L 359.461025 379.048025 L 359.380025 383.996025 L 359.300025 388.943025 L 359.220025 393.891025 L 359.140025 398.838025 L 359.060025 403.786025 L 358.981025 408.734025 L 358.940025 413.682025 L 358.927025 418.630025 L 358.919025 423.578025 L 358.911025 428.526025 L 358.903025 433.474025 L 358.896025 438.423025 L 358.888025 443.371025 L 358.880025 448.319025 L 358.872025 453.267025 L 358.864025 458.215025 L 358.856025 463.164025 L 358.848025 468.112025 L 358.840025 473.060025 L 358.833025 478.008025 L 358.825025 482.956025 L 358.817025 487.905025 L 358.809025 492.853025 L 358.801025 497.801025 L 358.793025 502.749025 L 358.785025 507.697025 L 358.778025 512.646025 L 358.770025 517.594025 L 358.762025 522.542025 L 358.754025 527.490025 L 358.746025 532.438025 L 358.738025 537.387025 L 358.730025 542.335025 L 358.723025 547.283025 L 358.715025 552.231025 L 358.707025 557.179025 L 358.699025 562.128025 L 358.691025 567.076025 L 358.683025 572.024025 L 358.675025 576.972025 L 358.668025 581.920025 L 358.660025 586.869025 L 358.652025 591.817025 L 358.644025 596.765025 L 358.636025 601.713025 L 358.628025 606.661025 L 358.620025 611.610025 L 358.612025 616.558025 L 358.605025 621.506025 L 358.597025 626.454025 L 358.586025 631.402025 L 358.552025 636.350025 L 358.476025 641.298025 L 358.391025 646.246025 L 358.307025 651.193025 L 358.222025 656.140025 L 358.138025 661.088025 L 358.054025 666.035025 L 357.969025 670.983025 L 357.885025 675.930025 L 357.800025 680.878025 L 357.716025 685.825025" fill="none" id="18" stroke="#54aeff" stroke-width="0.5" /><path d="M 379.072025 130.814025 L 379.709025 133.792025 L 380.440025 136.749025 L 381.267025 139.680025 L 382.217025 142.573025 L 383.328025 145.409025 L 384.461025 148.236025 L 385.594025 151.064025 L 386.727025 153.892025 L 387.872025 156.714025 L 389.053025 159.522025 L 390.266025 162.317025 L 391.483025 165.109025 L 392.701025 167.901025 L 393.919025 170.693025 L 395.137025 173.485025 L 396.355025 176.277025 L 397.573025 179.069025 L 398.792025 181.861025 L 400.010025 184.653025 L 401.232025 187.444025 L 402.467025 190.228025 L 403.717025 193.006025 L 404.973025 195.781025 L 406.229025 198.556025 L 407.484025 201.332025 L 408.740025 204.107025 L 409.996025 206.882025 L 411.252025 209.658025 L 412.507025 212.433025 L 413.763025 215.208025" fill="none" id="19" stroke="#eed973" stroke-width="0.5" /><path d="M 413.763025 0.259025 L 413.631025 5.224745 L 413.499025 10.190455 L 413.368025 15.156125 L 413.236025 20.121925 L 413.104025 25.087625 L 412.972025 30.053325 L 412.840025 35.019025 L 412.709025 39.984725 L 412.577025 44.950425 L 412.445025 49.916225 L 412.313025 54.881925 L 412.182025 59.847625 L 412.050025 64.813325 L 411.918025 69.779025 L 411.786025 74.744725 L 411.654025 79.710525 L 411.524025 84.676225 L 411.406025 89.642325 L 411.326025 94.609125 L 411.276025 99.576325 L 411.232025 104.544025 L 411.189025 109.511025 L 411.146025 114.478025 L 411.102025 119.445025 L 411.059025 124.413025 L 411.015025 129.380025 L 410.972025 134.347025 L 410.929025 139.314025 L 410.885025 144.282025 L 410.842025 149.249025 L 410.798025 154.216025 L 410.755025 159.184025 L 410.712025 164.151025 L 410.668025 169.118025 L 410.625025 174.085025 L 410.581025 179.053025 L 410.538025 184.020025 L 410.495025 188.987025 L 410.451025 193.954025 L 410.408025 198.922025 L 410.364025 203.889025 L 410.321025 208.856025 L 410.278025 213.824025 L 410.234025 218.791025 L 410.191025 223.758025 L 410.147025 228.725025 L 410.104025 233.693025 L 410.061025 238.660025 L 410.017025 243.627025 L 409.974025 248.595025 L 409.930025 253.562025 L 409.889025 258.529025 L 409.856025 263.496025 L 409.832025 268.464025 L 409.810025 273.431025 L 409.787025 278.399025 L 409.765025 283.366025 L 409.743025 288.334025 L 409.721025 293.301025 L 409.699025 298.268025 L 409.677025 303.236025 L 409.655025 308.203025 L 409.633025 313.171025 L 409.611025 318.138025 L 409.588025 323.105025 L 409.566025 328.073025 L 409.544025 333.040025" fill="none" id="20" stroke="#008bd4" stroke-width="0.5" /><path d="M 377.333025 193.755025 L 378.260025 195.791025 L 379.196025 197.822025 L 380.142025 199.848025 L 381.124025 201.858025 L 382.133025 203.854025 L 383.183025 205.829025 L 384.217025 207.812025 L 385.246025 209.798025 L 386.268025 211.788025 L 387.284025 213.780025 L 388.298025 215.773025 L 389.308025 217.769025 L 390.319025 219.764025 L 391.329025 221.760025 L 392.340025 223.755025 L 393.350025 225.750025 L 394.361025 227.746025 L 395.370025 229.741025 L 396.380025 231.737025 L 397.390025 233.733025 L 398.413025 235.722025 L 399.450025 237.703025 L 400.514025 239.671025 L 401.611025 241.619025 L 402.728025 243.557025 L 403.877025 245.476025 L 405.037025 247.388025 L 406.203025 249.297025 L 407.369025 251.205025 L 408.536025 253.113025 L 409.704025 255.021025" fill="none" id="21" stroke="#fdb968" stroke-width="0.5" /><path d="M 363.100025 460.604025 L 363.637025 455.685025 L 364.167025 450.766025 L 364.684025 445.846025 L 365.169025 440.922025 L 365.659025 435.998025 L 366.150025 431.075025 L 366.641025 426.152025 L 367.198025 421.236025 L 367.789025 416.323025 L 368.382025 411.411025 L 368.975025 406.499025 L 369.569025 401.587025 L 370.162025 396.675025 L 370.756025 391.764025 L 371.349025 386.852025 L 371.942025 381.940025 L 372.536025 377.028025 L 373.129025 372.116025 L 373.723025 367.204025 L 374.316025 362.292025 L 374.910025 357.380025 L 375.503025 352.468025 L 376.096025 347.556025 L 376.690025 342.644025 L 377.283025 337.732025 L 377.877025 332.820025 L 378.470025 327.908025 L 379.064025 322.996025 L 379.657025 318.084025 L 380.250025 313.172025 L 380.844025 308.260025 L 381.437025 303.348025 L 382.031025 298.436025 L 382.624025 293.524025 L 383.218025 288.612025 L 383.811025 283.700025 L 384.404025 278.788025 L 384.998025 273.877025 L 385.591025 268.965025 L 386.185025 264.053025 L 386.778025 259.141025 L 387.372025 254.229025 L 387.965025 249.317025 L 388.558025 244.405025 L 389.152025 239.493025 L 389.745025 234.581025 L 390.339025 229.669025 L 390.932025 224.757025 L 391.534025 219.846025 L 392.160025 214.938025 L 392.808025 210.033025 L 393.455025 205.128025 L 394.103025 200.223025 L 394.750025 195.318025 L 395.397025 190.412025 L 396.045025 185.507025 L 396.692025 180.602025 L 397.340025 175.697025 L 397.987025 170.792025 L 398.634025 165.887025 L 399.282025 160.982025 L 399.929025 156.076025 L 400.577025 151.171025 L 401.224025 146.266025 L 401.872025 141.361025 L 402.519025 136.456025 L 403.166025 131.551025 L 403.814025 126.646025 L 404.472025 121.742025 L 405.169025 116.844025 L 405.902025 111.951025 L 406.635025 107.058025 L 407.368025 102.164025 L 408.101025 97.271425 L 408.834025 92.378325 L 409.567025 87.485225 L 410.300025 82.592125 L 411.033025 77.699125 L 411.766025 72.806025 L 412.499025 67.912925 L 413.232025 63.019825 L 413.965025 58.126725 L 414.698025 53.233725 L 415.431025 48.340625 L 416.164025 43.447525 L 416.897025 38.554425 L 417.630025 33.661325" fill="none" id="22" stroke="#6f73bc" stroke-width="0.5" /><path d="M 392.310025 187.474025 L 392.328025 189.818025 L 392.355025 192.162025 L 392.391025 194.505025 L 392.430025 196.849025 L 392.503025 199.192025 L 392.606025 201.533025 L 392.746025 203.873025 L 392.891025 206.213025 L 393.039025 208.552025 L 393.188025 210.891025 L 393.336025 213.231025 L 393.484025 215.570025 L 393.633025 217.909025 L 393.781025 220.249025 L 393.930025 222.588025 L 394.078025 224.927025 L 394.227025 227.267025 L 394.375025 229.606025 L 394.524025 231.945025 L 394.672025 234.284025 L 394.821025 236.624025 L 394.969025 238.963025 L 395.118025 241.302025 L 395.266025 243.642025 L 395.415025 245.981025 L 395.563025 248.320025 L 395.712025 250.660025 L 395.860025 252.999025 L 396.009025 255.338025 L 396.157025 257.678025 L 396.306025 260.017025" fill="none" id="23" stroke="#bee481" stroke-width="0.5" /><path d="M 22.903525 414.083025 L 26.631125 417.399025 L 30.424825 420.639025 L 34.262525 423.827025 L 38.168025 426.931025 L 42.120225 429.976025 L 46.072525 433.020025 L 50.024825 436.065025 L 53.977125 439.109025 L 57.929325 442.154025 L 61.881625 445.198025 L 65.833925 448.243025 L 69.786225 451.287025 L 73.739725 454.330025 L 77.707025 457.355025 L 81.714125 460.327025 L 85.743225 463.269025 L 89.775125 466.208025 L 93.807025 469.146025 L 97.838825 472.084025 L 101.871025 475.023025 L 105.903025 477.961025 L 109.934025 480.899025 L 113.966025 483.838025 L 117.998025 486.776025 L 122.030025 489.714025 L 126.062025 492.653025 L 130.094025 495.591025 L 134.126025 498.529025 L 138.158025 501.468025 L 142.190025 504.406025 L 146.221025 507.344025 L 150.253025 510.283025 L 154.284025 513.222025 L 158.312025 516.166025 L 162.336025 519.116025 L 166.357025 522.068025 L 170.379025 525.020025 L 174.400025 527.973025 L 178.422025 530.925025 L 182.444025 533.877025 L 186.465025 536.830025 L 190.487025 539.782025 L 194.509025 542.734025 L 198.530025 545.687025 L 202.552025 548.639025 L 206.573025 551.592025 L 210.595025 554.544025 L 214.617025 557.496025 L 218.638025 560.449025 L 222.660025 563.401025 L 226.681025 566.353025 L 230.703025 569.306025 L 234.725025 572.258025 L 238.746025 575.210025 L 242.768025 578.163025 L 246.789025 581.115025 L 250.811025 584.067025 L 254.833025 587.020025 L 258.854025 589.972025 L 262.876025 592.925025 L 266.898025 595.877025 L 270.919025 598.829025 L 274.937025 601.787025 L 278.937025 604.768025 L 282.914025 607.780025 L 286.882025 610.805025 L 290.848025 613.831025 L 294.815025 616.857025 L 298.781025 619.883025 L 302.748025 622.909025 L 306.714025 625.935025 L 310.681025 628.961025 L 314.647025 631.987025 L 318.614025 635.013025 L 322.580025 638.039025 L 326.547025 641.065025 L 330.513025 644.090025 L 334.480025 647.116025 L 338.446025 650.142025 L 342.413025 653.168025 L 346.380025 656.194025 L 350.346025 659.220025 L 354.313025 662.246025 L 358.279025 665.272025 L 362.244025 668.300025 L 366.193025 671.349025 L 370.094025 674.459025 L 373.980025 677.588025 L 377.865025 680.718025 L 381.750025 683.848025 L 385.635025 686.978025 L 389.520025 690.108025 L 393.405025 693.238025 L 397.290025 696.368025 L 401.175025 699.498025 L 405.059025 702.628025 L 408.944025 705.758025 L 412.829025 708.888025" fill="none" id="24" stroke="#8f6aaf" stroke-width="0.5" /><path d="M 69.805925 444.396025 L 73.616625 447.547025 L 77.427325 450.699025 L 81.238125 453.850025 L 85.048825 457.002025 L 88.859525 460.153025 L 92.670325 463.305025 L 96.481025 466.457025 L 100.292025 469.608025 L 104.102025 472.760025 L 107.913025 475.911025 L 111.724025 479.063025 L 115.535025 482.214025 L 119.345025 485.366025 L 123.156025 488.517025 L 126.967025 491.669025 L 130.778025 494.820025 L 134.589025 497.971025 L 138.409025 501.112025 L 142.237025 504.242025 L 146.068025 507.369025 L 149.899025 510.496025 L 153.729025 513.623025 L 157.560025 516.751025 L 161.391025 519.878025 L 165.222025 523.005025 L 169.053025 526.132025 L 172.883025 529.259025 L 176.714025 532.386025 L 180.545025 535.513025 L 184.376025 538.641025 L 188.206025 541.768025 L 192.037025 544.895025 L 195.868025 548.022025 L 199.699025 551.149025 L 203.530025 554.276025 L 207.360025 557.403025 L 211.200025 560.519025 L 215.074025 563.593025 L 218.981025 566.624025 L 222.895025 569.647025 L 226.809025 572.670025 L 230.722025 575.692025 L 234.636025 578.715025 L 238.550025 581.738025 L 242.472025 584.750025 L 246.434025 587.708025 L 250.460025 590.580025 L 254.507025 593.423025 L 258.553025 596.265025 L 262.599025 599.108025 L 266.646025 601.951025 L 270.692025 604.793025 L 274.738025 607.636025 L 278.785025 610.479025 L 282.831025 613.321025 L 286.877025 616.164025 L 290.924025 619.007025 L 294.970025 621.850025 L 299.016025 624.692025 L 303.063025 627.535025 L 307.109025 630.378025 L 311.156025 633.220025 L 315.202025 636.063025 L 319.248025 638.906025 L 323.295025 641.748025 L 327.341025 644.591025" fill="none" id="25" stroke="#8bb658" stroke-width="0.5" /><path d="M 696.681025 268.970025 L 694.360025 273.360025 L 692.045025 277.753025 L 689.735025 282.148025 L 687.388025 286.524025 L 684.914025 290.829025 L 682.297025 295.048025 L 679.556025 299.187025 L 676.762025 303.292025 L 673.967025 307.397025 L 671.110025 311.457025 L 668.095025 315.401025 L 664.958025 319.249025 L 661.820025 323.098025 L 658.682025 326.946025 L 655.544025 330.795025 L 652.407025 334.643025 L 649.269025 338.492025 L 646.131025 342.340025 L 642.993025 346.189025 L 639.856025 350.037025 L 636.718025 353.886025 L 633.580025 357.734025 L 630.442025 361.583025 L 627.305025 365.432025 L 624.167025 369.280025 L 621.011025 373.113025 L 617.789025 376.892025 L 614.492025 380.605025 L 611.195025 384.317025 L 607.898025 388.030025 L 604.601025 391.743025 L 601.304025 395.456025 L 598.007025 399.169025 L 594.710025 402.882025 L 591.413025 406.595025 L 588.116025 410.308025 L 584.819025 414.021025 L 581.522025 417.734025 L 578.225025 421.447025 L 574.927025 425.160025 L 571.630025 428.873025 L 568.333025 432.585025 L 565.036025 436.298025 L 561.739025 440.011025 L 558.442025 443.724025 L 555.145025 447.437025 L 551.848025 451.150025 L 548.551025 454.863025 L 545.254025 458.576025 L 541.957025 462.289025 L 538.660025 466.002025 L 535.363025 469.715025 L 532.065025 473.428025 L 528.768025 477.141025 L 525.471025 480.853025 L 522.174025 484.566025 L 518.877025 488.279025 L 515.580025 491.992025 L 512.283025 495.705025 L 508.986025 499.418025 L 505.689025 503.131025 L 502.391025 506.844025 L 499.077025 510.541025 L 495.737025 514.216025 L 492.394025 517.887025 L 489.051025 521.559025 L 485.708025 525.231025 L 482.365025 528.902025 L 479.022025 532.574025 L 475.679025 536.245025 L 472.336025 539.917025 L 468.993025 543.589025 L 465.650025 547.260025 L 462.307025 550.932025 L 458.964025 554.603025 L 455.621025 558.275025 L 452.278025 561.947025 L 448.935025 565.618025 L 445.592025 569.290025 L 442.249025 572.962025 L 438.906025 576.633025 L 435.563025 580.305025 L 432.220025 583.976025 L 428.877025 587.648025 L 425.534025 591.320025 L 422.191025 594.991025 L 418.848025 598.663025 L 415.505025 602.335025 L 412.162025 606.006025 L 408.819025 609.678025 L 405.476025 613.349025 L 402.133025 617.021025 L 398.790025 620.693025 L 395.447025 624.364025 L 392.104025 628.036025 L 388.761025 631.707025 L 385.418025 635.379025 L 382.075025 639.051025 L 378.732025 642.722025 L 375.389025 646.394025 L 372.057025 650.076025 L 368.744025 653.775025 L 365.437025 657.479025 L 362.130025 661.183025 L 358.823025 664.886025 L 355.515025 668.590025 L 352.208025 672.294025" fill="none" id="26" stroke="#bbabff" stroke-width="0.5" /><path d="M 488.239025 517.775025 L 490.790025 515.086025 L 493.341025 512.397025 L 495.892025 509.708025 L 498.442025 507.020025 L 500.993025 504.331025 L 503.544025 501.642025 L 506.093025 498.952025 L 508.634025 496.254025 L 511.165025 493.546025 L 513.692025 490.835025 L 516.218025 488.124025 L 518.745025 485.412025 L 521.271025 482.700025 L 523.797025 479.989025 L 526.324025 477.277025 L 528.850025 474.565025 L 531.377025 471.854025 L 533.903025 469.142025 L 536.432025 466.433025 L 538.977025 463.739025 L 541.556025 461.078025 L 544.163025 458.443025 L 546.777025 455.815025 L 549.390025 453.188025 L 552.004025 450.560025 L 554.617025 447.932025 L 557.231025 445.304025 L 559.671025 442.516025 L 561.918025 439.570025 L 564.001025 436.505025" fill="none" id="27" stroke="#bbabff" stroke-width="0.5" /><path d="M 0.259025 482.439025 L 4.332465 479.600025 L 8.430485 476.797025 L 12.571225 474.058025 L 16.739825 471.361025 L 20.916625 468.677025 L 25.091425 465.989025 L 29.266125 463.302025 L 33.440825 460.614025 L 37.615625 457.927025 L 41.790325 455.239025 L 45.965125 452.552025 L 50.139825 449.864025 L 54.314625 447.177025 L 58.489325 444.489025 L 62.664025 441.802025 L 66.838825 439.114025 L 71.013525 436.427025 L 75.188325 433.739025 L 79.363025 431.052025 L 83.537825 428.364025 L 87.712525 425.677025 L 91.887225 422.989025 L 96.061925 420.301025 L 100.231325 417.606025 L 104.395025 414.902025 L 108.557025 412.194025 L 112.718025 409.485025 L 116.879025 406.776025 L 121.040025 404.067025 L 125.201025 401.359025 L 129.362025 398.650025 L 133.522025 395.941025 L 137.683025 393.232025 L 141.844025 390.523025 L 146.005025 387.814025 L 150.166025 385.105025 L 154.327025 382.396025 L 158.488025 379.688025 L 162.649025 376.979025 L 166.810025 374.270025 L 170.971025 371.561025 L 175.132025 368.852025 L 179.292025 366.143025 L 183.453025 363.434025 L 187.614025 360.726025 L 191.775025 358.017025 L 195.936025 355.308025 L 200.097025 352.599025 L 204.259025 349.892025 L 208.426025 347.193025 L 212.609025 344.517025 L 216.807025 341.867025 L 221.009025 339.222025 L 225.211025 336.577025 L 229.413025 333.933025 L 233.616025 331.289025 L 237.818025 328.645025 L 242.020025 326.001025 L 246.223025 323.356025 L 250.425025 320.712025 L 254.627025 318.068025 L 258.830025 315.424025 L 263.032025 312.780025 L 267.234025 310.136025 L 271.436025 307.491025 L 275.639025 304.847025 L 279.841025 302.203025 L 284.043025 299.559025 L 288.246025 296.915025 L 292.448025 294.270025 L 296.650025 291.626025 L 300.853025 288.982025 L 305.055025 286.338025 L 309.257025 283.694025 L 313.460025 281.049025 L 317.662025 278.405025 L 321.864025 275.761025 L 326.066025 273.117025 L 330.269025 270.473025 L 334.471025 267.829025 L 338.673025 265.184025 L 342.876025 262.540025 L 347.080025 259.899025 L 351.290025 257.267025 L 355.505025 254.644025 L 359.723025 252.025025 L 363.942025 249.407025 L 368.160025 246.788025 L 372.379025 244.170025 L 376.597025 241.551025 L 380.815025 238.933025 L 385.034025 236.314025 L 389.252025 233.696025 L 393.471025 231.077025 L 397.689025 228.459025 L 401.907025 225.840025 L 406.126025 223.222025 L 410.344025 220.604025 L 414.562025 217.985025 L 418.781025 215.367025 L 422.999025 212.748025 L 427.218025 210.130025 L 431.436025 207.511025 L 435.654025 204.893025 L 439.873025 202.274025 L 444.091025 199.656025 L 448.310025 197.037025 L 452.528025 194.419025 L 456.746025 191.800025 L 460.965025 189.182025 L 465.183025 186.564025 L 469.401025 183.945025 L 473.620025 181.327025 L 477.838025 178.708025 L 482.057025 176.090025 L 486.275025 173.471025 L 490.493025 170.853025" fill="none" id="28" stroke="#658424" stroke-width="0.5" /><path d="M 350.208025 285.720025 L 353.363025 283.903025 L 356.500025 282.055025 L 359.610025 280.161025 L 362.702025 278.237025 L 365.788025 276.306025 L 368.772025 274.219025 L 371.687025 272.038025 L 374.590025 269.840025 L 377.493025 267.642025 L 380.396025 265.445025 L 383.299025 263.247025 L 386.202025 261.049025 L 389.105025 258.852025 L 392.011025 256.658025 L 394.932025 254.484025 L 397.878025 252.344025 L 400.839025 250.225025 L 403.800025 248.106025 L 406.761025 245.987025 L 409.722025 243.868025 L 412.682025 241.748025 L 415.643025 239.629025 L 418.604025 237.510025 L 421.568025 235.396025 L 424.566025 233.329025 L 427.662025 231.412025 L 430.815025 229.592025 L 433.968025 227.771025 L 437.121025 225.951025 L 440.275025 224.130025" fill="none" id="29" stroke="#989c37" stroke-width="0.5" /><path d="M 380.974025 288.556025 L 384.090025 284.741025 L 387.130025 280.864025 L 390.070025 276.911025 L 392.899025 272.878025 L 395.834025 268.921025 L 398.802025 264.989025 L 401.772025 261.059025 L 404.742025 257.128025 L 407.713025 253.198025 L 410.683025 249.268025 L 413.653025 245.338025 L 416.626025 241.409025 L 419.664025 237.532025 L 422.745025 233.687025 L 425.861025 229.872025 L 429.006025 226.080025 L 432.159025 222.295025 L 435.312025 218.509025 L 438.466025 214.724025 L 441.619025 210.939025 L 444.772025 207.154025 L 447.925025 203.369025 L 451.078025 199.584025 L 454.231025 195.798025 L 457.384025 192.013025 L 460.537025 188.228025 L 463.690025 184.443025 L 466.844025 180.659025 L 470.013025 176.887025 L 473.226025 173.152025 L 476.468025 169.443025 L 479.709025 165.733025 L 482.950025 162.023025 L 486.192025 158.313025 L 489.433025 154.603025 L 492.675025 150.893025 L 495.916025 147.184025 L 499.157025 143.474025" fill="none" id="30" stroke="#989c37" stroke-width="0.5" /><path d="M 371.986025 294.126025 L 375.155025 290.328025 L 378.222025 286.447025 L 381.225025 282.516025 L 384.212025 278.573025 L 387.202025 274.631025 L 390.229025 270.719025 L 393.336025 266.870025 L 396.509025 263.075025 L 399.728025 259.318025 L 402.949025 255.564025 L 406.171025 251.810025 L 409.392025 248.055025 L 412.614025 244.301025 L 415.835025 240.547025 L 419.057025 236.792025 L 422.278025 233.038025 L 425.499025 229.284025 L 428.743025 225.549025 L 432.044025 221.864025 L 435.370025 218.202025 L 438.700025 214.544025 L 442.030025 210.886025 L 445.360025 207.227025 L 448.690025 203.569025 L 452.020025 199.911025 L 455.350025 196.252025 L 458.680025 192.594025 L 462.010025 188.936025 L 465.340025 185.277025 L 468.670025 181.619025 L 472.000025 177.961025 L 475.329025 174.302025 L 478.659025 170.644025 L 481.989025 166.986025" fill="none" id="31" stroke="#989c37" stroke-width="0.5" /><path d="M 360.259025 281.630025 L 363.864025 280.057025 L 367.355025 278.246025 L 370.679025 276.143025 L 373.820025 273.776025 L 376.962025 271.408025 L 380.103025 269.041025 L 383.245025 266.674025 L 386.386025 264.307025 L 389.528025 261.939025 L 392.670025 259.572025 L 395.811025 257.205025 L 398.953025 254.837025 L 402.094025 252.470025 L 405.236025 250.103025 L 408.377025 247.736025 L 411.519025 245.369025 L 414.674025 243.018025 L 417.869025 240.724025 L 421.113025 238.500025 L 424.378025 236.305025 L 427.642025 234.110025 L 430.907025 231.916025 L 434.171025 229.721025 L 437.436025 227.526025 L 440.700025 225.331025 L 443.964025 223.136025 L 447.233025 220.947025 L 450.530025 218.803025 L 453.883025 216.745025 L 457.261025 214.730025 L 460.665025 212.759025" fill="none" id="32" stroke="#989c37" stroke-width="0.5" /><path d="M 357.298025 203.482025 L 362.018025 204.925025 L 366.617025 206.718025 L 370.938025 209.103025 L 375.053025 211.830025 L 379.245025 214.436025 L 383.439025 217.039025 L 387.633025 219.642025 L 391.828025 222.244025 L 396.022025 224.847025 L 400.216025 227.449025 L 404.411025 230.052025 L 408.605025 232.654025 L 412.830025 235.207025 L 417.196025 237.509025 L 421.646025 239.645025 L 426.109025 241.756025 L 430.571025 243.866025 L 435.033025 245.976025 L 439.495025 248.087025 L 443.958025 250.197025 L 448.420025 252.308025 L 452.882025 254.418025 L 457.344025 256.529025 L 461.807025 258.639025 L 466.269025 260.750025 L 470.731025 262.860025 L 475.194025 264.970025 L 479.668025 267.054025 L 484.162025 269.096025 L 488.662025 271.125025 L 493.146025 273.190025 L 497.611025 275.294025 L 502.070025 277.411025 L 506.530025 279.527025 L 510.989025 281.644025 L 515.449025 283.760025 L 519.908025 285.877025 L 524.367025 287.993025 L 528.827025 290.110025 L 533.286025 292.226025 L 537.746025 294.343025 L 542.205025 296.459025 L 546.664025 298.576025 L 551.124025 300.692025 L 555.581025 302.814025 L 560.019025 304.974025 L 564.423025 307.204025 L 568.809025 309.469025 L 573.183025 311.757025 L 577.527025 314.100025 L 581.853025 316.478025 L 586.179025 318.855025 L 590.505025 321.232025 L 594.831025 323.609025 L 599.157025 325.986025 L 603.483025 328.364025 L 607.809025 330.741025 L 612.135025 333.118025 L 616.461025 335.495025 L 620.788025 337.873025 L 625.114025 340.250025 L 629.440025 342.627025 L 633.766025 345.004025 L 638.092025 347.381025 L 642.418025 349.759025 L 646.744025 352.136025 L 651.067025 354.517025 L 655.370025 356.937025 L 659.642025 359.409025 L 663.912025 361.887025 L 668.181025 364.364025 L 672.451025 366.841025 L 676.720025 369.319025 L 680.990025 371.796025 L 685.259025 374.274025 L 689.529025 376.751025" fill="none" id="33" stroke="#cfe395" stroke-width="0.5" /><path d="M 220.493025 115.255025 L 225.029025 117.276025 L 229.565025 119.297025 L 234.101025 121.318025 L 238.638025 123.339025 L 243.174025 125.360025 L 247.710025 127.382025 L 252.246025 129.403025 L 256.781025 131.426025 L 261.280025 133.526025 L 265.757025 135.675025 L 270.232025 137.828025 L 274.707025 139.981025 L 279.182025 142.134025 L 283.652025 144.297025 L 288.087025 146.532025 L 292.501025 148.808025 L 296.911025 151.089025 L 301.322025 153.371025 L 305.733025 155.652025 L 310.144025 157.934025 L 314.555025 160.215025 L 318.966025 162.496025 L 323.376025 164.778025 L 327.787025 167.059025 L 332.198025 169.341025 L 336.609025 171.622025 L 341.020025 173.904025 L 345.431025 176.185025 L 349.841025 178.466025 L 354.252025 180.748025 L 358.663025 183.029025 L 363.074025 185.311025 L 367.485025 187.592025 L 371.895025 189.873025 L 376.306025 192.155025 L 380.723025 194.426025 L 385.162025 196.650025 L 389.614025 198.851025 L 394.066025 201.051025 L 398.518025 203.252025 L 402.969025 205.452025 L 407.421025 207.653025 L 411.873025 209.853025 L 416.325025 212.054025 L 420.776025 214.254025 L 425.228025 216.455025 L 429.680025 218.655025 L 434.132025 220.856025 L 438.583025 223.056025 L 443.035025 225.257025 L 447.487025 227.457025 L 451.939025 229.658025 L 456.390025 231.858025 L 460.842025 234.059025 L 465.294025 236.259025 L 469.746025 238.460025 L 474.197025 240.660025 L 478.649025 242.861025 L 483.101025 245.061025 L 487.553025 247.262025 L 492.004025 249.462025 L 496.456025 251.663025 L 500.908025 253.863025 L 505.360025 256.064025 L 509.811025 258.264025 L 514.263025 260.465025 L 518.715025 262.665025 L 523.167025 264.866025 L 527.618025 267.066025 L 532.070025 269.267025 L 536.522025 271.467025 L 540.971025 273.673025 L 545.401025 275.918025 L 549.783025 278.255025 L 554.142025 280.632025 L 558.502025 283.009025 L 562.862025 285.386025 L 567.222025 287.764025 L 571.582025 290.141025 L 575.942025 292.518025 L 580.302025 294.895025 L 584.662025 297.273025 L 589.022025 299.650025 L 593.382025 302.027025 L 597.742025 304.404025 L 602.102025 306.782025 L 606.462025 309.159025 L 610.822025 311.536025 L 615.181025 313.913025 L 619.541025 316.291025 L 623.901025 318.668025 L 628.261025 321.045025 L 632.621025 323.422025 L 636.981025 325.800025 L 641.341025 328.177025" fill="none" id="34" stroke="#c45372" stroke-width="0.5" /><path d="M 274.736025 51.700425 L 274.589025 56.658725 L 274.442025 61.617025 L 274.294025 66.575325 L 274.149025 71.533725 L 274.034025 76.492725 L 274.038025 81.453225 L 274.075025 86.413625 L 274.114025 91.373925 L 274.153025 96.334225 L 274.192025 101.295025 L 274.231025 106.255025 L 274.270025 111.215025 L 274.309025 116.176025 L 274.349025 121.136025 L 274.388025 126.096025 L 274.427025 131.057025 L 274.466025 136.017025 L 274.505025 140.977025 L 274.554025 145.938025 L 274.649025 150.897025 L 274.810025 155.855025 L 275.000025 160.812025 L 275.193025 165.768025 L 275.385025 170.725025 L 275.578025 175.682025 L 275.771025 180.639025 L 275.963025 185.595025 L 276.156025 190.552025 L 276.348025 195.509025 L 276.541025 200.466025 L 276.734025 205.422025 L 276.926025 210.379025 L 277.119025 215.336025 L 277.312025 220.293025 L 277.504025 225.249025 L 277.697025 230.206025 L 277.889025 235.163025 L 278.082025 240.120025 L 278.275025 245.076025 L 278.467025 250.033025 L 278.660025 254.990025 L 278.853025 259.947025 L 279.045025 264.903025 L 279.238025 269.860025 L 279.431025 274.817025 L 279.626025 279.774025 L 279.844025 284.729025 L 280.119025 289.682025 L 280.422025 294.633025 L 280.728025 299.584025 L 281.034025 304.535025 L 281.341025 309.486025 L 281.647025 314.437025 L 281.953025 319.388025 L 282.259025 324.339025 L 282.565025 329.291025 L 282.871025 334.242025 L 283.177025 339.193025" fill="none" id="35" stroke="#008c6f" stroke-width="0.5" /><path d="M 539.263025 276.380025 L 539.300025 275.490025 L 539.336025 274.600025 L 539.382025 273.711025 L 539.428025 272.821025 L 539.481025 271.932025 L 539.534025 271.043025 L 539.589025 270.154025 L 539.644025 269.265025 L 539.730025 268.378025 L 539.816025 267.491025 L 539.898025 266.604025 L 539.981025 265.717025 L 540.093025 264.834025 L 540.206025 263.950025 L 540.321025 263.067025 L 540.436025 262.184025 L 540.558025 261.301025 L 540.681025 260.419025 L 540.813025 259.538025 L 540.946025 258.657025 L 541.076025 257.776025 L 541.206025 256.895025 L 541.344025 256.015025 L 541.481025 255.135025 L 541.619025 254.255025 L 541.756025 253.375025 L 541.899025 252.495025 L 542.041025 251.616025 L 542.335025 249.859025" fill="none" id="36" stroke="#ff94af" stroke-width="0.5" /><path d="M 542.335025 249.859025 L 542.197025 254.818025 L 542.059025 259.777025 L 541.921025 264.737025 L 541.783025 269.696025 L 541.646025 274.655025 L 541.508025 279.614025 L 541.365025 284.573025 L 541.181025 289.531025 L 540.909025 294.484025 L 540.619025 299.437025 L 540.328025 304.389025 L 540.036025 309.342025 L 539.745025 314.294025 L 539.454025 319.247025 L 539.163025 324.199025 L 538.871025 329.152025 L 538.580025 334.104025 L 538.289025 339.057025 L 537.997025 344.009025 L 537.706025 348.962025 L 537.415025 353.914025 L 537.123025 358.867025 L 536.832025 363.819025 L 536.541025 368.772025 L 536.243025 373.724025 L 535.892025 378.673025 L 535.425025 383.611025 L 534.863025 388.540025 L 534.276025 393.466025 L 533.698025 398.394025 L 533.141025 403.323025 L 532.607025 408.256025 L 532.078025 413.188025 L 531.550025 418.121025 L 531.022025 423.054025 L 530.494025 427.987025 L 529.966025 432.920025 L 529.438025 437.853025 L 528.910025 442.786025 L 528.382025 447.719025 L 527.854025 452.652025 L 527.326025 457.584025 L 526.797025 462.517025 L 526.269025 467.450025 L 525.741025 472.383025 L 525.213025 477.316025 L 524.685025 482.249025 L 524.172025 487.183025 L 523.947025 492.139025 L 523.966025 497.100025 L 524.185025 502.056025" fill="none" id="37" stroke="#ff94af" stroke-width="0.5" /><path d="M 239.693025 282.626025 L 244.357025 284.249025 L 248.708025 286.551025 L 252.626025 289.564025 L 256.625025 292.468025 L 260.624025 295.372025 L 264.623025 298.276025 L 268.622025 301.181025 L 272.623025 304.081025 L 276.649025 306.948025 L 280.742025 309.718025 L 284.888025 312.408025 L 289.038025 315.092025 L 293.189025 317.775025 L 297.339025 320.458025 L 301.490025 323.142025 L 305.640025 325.825025 L 309.791025 328.509025 L 313.941025 331.192025 L 318.091025 333.876025 L 322.242025 336.559025 L 326.392025 339.243025 L 330.543025 341.926025 L 334.693025 344.610025 L 338.844025 347.293025 L 342.994025 349.976025 L 347.144025 352.660025 L 351.295025 355.343025 L 355.445025 358.027025 L 359.596025 360.710025 L 363.746025 363.394025 L 367.897025 366.077025 L 372.047025 368.761025 L 376.197025 371.444025 L 380.348025 374.127025 L 384.499025 376.809025 L 388.665025 379.469025 L 392.861025 382.081025 L 397.079025 384.656025 L 401.303025 387.223025 L 405.526025 389.789025 L 409.742025 392.369025 L 413.925025 395.002025 L 418.066025 397.700025 L 422.187025 400.427025 L 426.306025 403.159025 L 430.425025 405.891025 L 434.543025 408.623025 L 438.662025 411.354025 L 442.781025 414.086025 L 446.900025 416.818025 L 451.018025 419.550025 L 455.137025 422.282025 L 459.256025 425.013025 L 463.375025 427.745025 L 467.493025 430.477025 L 471.612025 433.209025 L 475.731025 435.941025 L 479.850025 438.673025 L 483.968025 441.404025 L 488.087025 444.136025 L 492.206025 446.868025 L 496.325025 449.600025 L 500.443025 452.332025 L 504.562025 455.063025 L 508.681025 457.795025 L 512.800025 460.527025 L 516.918025 463.259025 L 521.037025 465.991025 L 525.156025 468.722025 L 529.275025 471.454025" fill="none" id="38" stroke="#488656" stroke-width="0.5" /><path d="M 210.669025 207.122025 L 214.086025 209.292025 L 217.504025 211.462025 L 220.921025 213.631025 L 224.338025 215.801025 L 227.755025 217.971025 L 231.172025 220.140025 L 234.590025 222.310025 L 238.007025 224.479025 L 241.424025 226.649025 L 244.841025 228.819025 L 248.258025 230.988025 L 251.676025 233.158025 L 255.093025 235.328025 L 258.510025 237.497025 L 261.927025 239.667025 L 265.344025 241.837025 L 268.762025 244.006025 L 272.176025 246.180025 L 275.573025 248.381025 L 278.940025 250.628025 L 282.290025 252.900025 L 285.637025 255.176025 L 288.984025 257.453025 L 292.326025 259.737025 L 295.647025 262.051025 L 298.942025 264.402025 L 302.232025 266.760025 L 305.522025 269.118025 L 308.813025 271.475025 L 312.103025 273.833025" fill="none" id="39" stroke="#ffc0e1" stroke-width="0.5" /><path d="M 66.907425 440.368025 L 71.023225 443.177025 L 75.487625 445.371025 L 80.269225 446.713025 L 85.204725 447.442025 L 90.137425 448.189025 L 95.066525 448.959025 L 99.996325 449.725025 L 104.930025 450.461025 L 109.875025 451.126025 L 114.825025 451.749025 L 119.768025 452.418025 L 124.706025 453.131025 L 129.643025 453.846025 L 134.581025 454.561025 L 139.518025 455.277025 L 144.456025 455.992025 L 149.393025 456.707025 L 154.330025 457.422025 L 159.268025 458.137025 L 164.205025 458.852025 L 169.143025 459.567025 L 174.080025 460.282025 L 179.017025 460.997025 L 183.955025 461.713025 L 188.891025 462.435025 L 193.816025 463.231025 L 198.722025 464.135025 L 203.623025 465.068025 L 208.519025 466.024025 L 213.406025 467.028025 L 218.290025 468.048025 L 223.173025 469.071025 L 228.056025 470.093025 L 232.939025 471.116025 L 237.822025 472.138025 L 242.705025 473.161025 L 247.588025 474.183025 L 252.471025 475.205025 L 257.354025 476.228025 L 262.237025 477.250025 L 267.120025 478.273025 L 272.003025 479.295025 L 276.886025 480.318025 L 281.769025 481.340025 L 286.652025 482.363025 L 291.535025 483.385025 L 296.418025 484.407025 L 301.301025 485.430025 L 306.184025 486.452025 L 311.067025 487.475025 L 315.950025 488.497025 L 320.834025 489.520025 L 325.717025 490.542025 L 330.600025 491.564025 L 335.483025 492.587025 L 340.366025 493.609025 L 345.249025 494.632025 L 350.132025 495.654025 L 355.015025 496.677025 L 359.898025 497.699025 L 364.781025 498.722025 L 369.664025 499.744025 L 374.547025 500.766025 L 379.430025 501.789025 L 384.313025 502.811025 L 389.196025 503.834025 L 394.079025 504.856025 L 398.962025 505.879025 L 403.845025 506.901025 L 408.728025 507.923025 L 413.611025 508.946025 L 418.494025 509.968025 L 423.377025 510.991025 L 428.260025 512.013025 L 433.143025 513.036025 L 438.026025 514.058025 L 442.909025 515.080025 L 447.792025 516.103025 L 452.676025 517.124025 L 457.562025 518.130025 L 462.456025 519.098025 L 467.353025 520.051025 L 472.250025 521.003025 L 477.148025 521.956025 L 482.045025 522.908025 L 486.942025 523.860025 L 491.839025 524.813025 L 496.736025 525.765025 L 501.634025 526.717025 L 506.531025 527.669025 L 511.428025 528.622025 L 516.325025 529.574025 L 521.222025 530.526025 L 526.120025 531.479025 L 531.017025 532.431025" fill="none" id="40" stroke="#6c8139" stroke-width="0.5" /><path d="M 52.344925 443.267025 L 57.272925 443.810025 L 62.200925 444.354025 L 67.128925 444.898025 L 72.056925 445.441025 L 76.984925 445.985025 L 81.912925 446.529025 L 86.840925 447.072025 L 91.768925 447.616025 L 96.696925 448.159025 L 101.625025 448.703025 L 106.553025 449.247025 L 111.481025 449.790025 L 116.409025 450.334025 L 121.337025 450.878025 L 126.265025 451.421025 L 131.193025 451.967025 L 136.113025 452.574025 L 141.030025 453.210025 L 145.943025 453.876025 L 150.842025 454.641025 L 155.734025 455.444025 L 160.626025 456.252025 L 165.517025 457.059025 L 170.409025 457.867025 L 175.301025 458.675025 L 180.192025 459.482025 L 185.084025 460.290025 L 189.976025 461.097025 L 194.867025 461.905025 L 199.759025 462.712025 L 204.651025 463.520025 L 209.542025 464.328025 L 214.434025 465.135025 L 219.326025 465.943025 L 224.217025 466.750025 L 229.109025 467.558025 L 234.001025 468.366025 L 238.892025 469.173025 L 243.784025 469.981025 L 248.672025 470.812025 L 253.551025 471.694025 L 258.425025 472.602025 L 263.299025 473.511025 L 268.172025 474.419025 L 273.046025 475.327025 L 277.920025 476.236025 L 282.794025 477.144025 L 287.668025 478.052025 L 292.542025 478.961025 L 297.416025 479.869025 L 302.290025 480.777025 L 307.164025 481.686025 L 312.038025 482.594025 L 316.912025 483.502025 L 321.786025 484.410025 L 326.660025 485.319025 L 331.534025 486.227025 L 336.408025 487.135025 L 341.282025 488.044025 L 346.156025 488.952025 L 351.030025 489.860025 L 355.904025 490.769025 L 360.778025 491.677025 L 365.654025 492.573025 L 370.540025 493.416025 L 375.435025 494.204025 L 380.330025 494.992025 L 385.224025 495.781025 L 390.119025 496.569025 L 395.014025 497.357025 L 399.909025 498.145025 L 404.804025 498.933025 L 409.699025 499.721025 L 414.593025 500.509025 L 419.488025 501.297025 L 424.383025 502.086025 L 429.278025 502.874025 L 434.173025 503.662025 L 439.068025 504.450025 L 443.963025 505.238025 L 448.857025 506.026025 L 453.752025 506.814025 L 458.647025 507.602025 L 463.542025 508.391025 L 468.437025 509.179025 L 473.332025 509.967025 L 478.226025 510.755025 L 483.121025 511.543025 L 488.016025 512.331025 L 492.911025 513.119025 L 497.806025 513.907025" fill="none" id="41" stroke="#a9d0ff" stroke-width="0.5" /><path d="M 38.270725 442.880025 L 43.239125 442.993025 L 48.206125 443.153025 L 53.170025 443.390025 L 58.086625 444.066025 L 62.996525 444.832025 L 67.912925 445.557025 L 72.829425 446.282025 L 77.745925 447.007025 L 82.662525 447.731025 L 87.580125 448.449025 L 92.500325 449.148025 L 97.421325 449.842025 L 102.342025 450.535025 L 107.263025 451.229025 L 112.184025 451.922025 L 117.105025 452.616025 L 122.026025 453.310025 L 126.947025 454.003025 L 131.868025 454.697025 L 136.789025 455.390025 L 141.710025 456.084025 L 146.631025 456.779025 L 151.545025 457.521025 L 156.447025 458.338025 L 161.345025 459.177025 L 166.243025 460.017025 L 171.141025 460.857025 L 176.039025 461.697025 L 180.938025 462.537025 L 185.836025 463.377025 L 190.734025 464.217025 L 195.632025 465.057025 L 200.530025 465.896025 L 205.428025 466.736025 L 210.327025 467.576025 L 215.225025 468.416025 L 220.123025 469.256025 L 225.021025 470.096025 L 229.919025 470.936025 L 234.817025 471.776025 L 239.715025 472.615025 L 244.613025 473.456025 L 249.508025 474.315025 L 254.400025 475.190025 L 259.291025 476.071025 L 264.182025 476.951025 L 269.073025 477.832025 L 273.964025 478.712025 L 278.855025 479.593025 L 283.747025 480.471025 L 288.641025 481.331025 L 293.542025 482.156025 L 298.443025 482.981025 L 303.344025 483.805025 L 308.244025 484.629025 L 313.145025 485.453025 L 318.046025 486.277025 L 322.947025 487.101025 L 327.848025 487.925025 L 332.749025 488.749025 L 337.650025 489.573025 L 342.550025 490.397025 L 347.451025 491.221025 L 352.352025 492.045025 L 357.253025 492.869025 L 362.154025 493.693025 L 367.055025 494.517025 L 371.956025 495.341025 L 376.856025 496.164025 L 381.757025 496.988025 L 386.658025 497.812025 L 391.559025 498.636025 L 396.465025 499.429025 L 401.373025 500.211025 L 406.281025 500.991025 L 411.189025 501.770025 L 416.097025 502.549025 L 421.005025 503.329025 L 425.913025 504.108025 L 430.821025 504.887025 L 435.730025 505.667025 L 440.638025 506.446025 L 445.546025 507.226025 L 450.454025 508.005025 L 455.362025 508.784025 L 460.270025 509.564025 L 465.178025 510.343025 L 470.087025 511.122025 L 474.995025 511.902025 L 479.903025 512.681025 L 484.811025 513.461025 L 489.719025 514.240025 L 494.627025 515.019025 L 499.535025 515.799025 L 504.444025 516.578025 L 509.352025 517.357025 L 514.260025 518.137025 L 519.168025 518.916025 L 524.076025 519.696025 L 528.984025 520.475025 L 533.892025 521.254025 L 538.801025 522.034025 L 543.709025 522.813025 L 548.617025 523.592025 L 553.525025 524.372025 L 558.433025 525.151025 L 563.341025 525.931025 L 568.249025 526.710025 L 573.158025 527.489025 L 578.066025 528.269025 L 582.974025 529.048025" fill="none" id="42" stroke="#a98c2c" stroke-width="0.5" /><path d="M 409.415025 322.989025 L 412.146025 320.622025 L 414.876025 318.254025 L 417.607025 315.886025 L 420.338025 313.518025 L 423.068025 311.151025 L 425.799025 308.783025 L 428.529025 306.415025 L 431.260025 304.047025 L 433.996025 301.685025 L 436.745025 299.340025 L 439.509025 297.010025 L 442.277025 294.687025 L 445.046025 292.364025 L 447.814025 290.040025 L 450.583025 287.717025 L 453.351025 285.393025 L 456.119025 283.070025 L 458.888025 280.746025 L 461.656025 278.423025 L 464.442025 276.120025 L 467.276025 273.877025 L 470.152025 271.689025 L 473.041025 269.517025 L 475.930025 267.345025 L 478.819025 265.173025 L 481.707025 263.001025 L 484.596025 260.829025 L 487.485025 258.657025 L 490.374025 256.486025 L 493.263025 254.314025" fill="none" id="43" stroke="#0294bb" stroke-width="0.5" /><path d="M 402.939025 239.818025 L 403.686025 240.617025 L 404.433025 241.417025 L 405.179025 242.217025 L 405.926025 243.018025 L 406.672025 243.818025 L 407.419025 244.618025 L 408.167025 245.417025 L 408.916025 246.215025 L 409.666025 247.012025 L 410.420025 247.805025 L 411.178025 248.594025 L 411.940025 249.380025 L 412.703025 250.164025 L 413.473025 250.942025 L 414.244025 251.718025 L 415.019025 252.492025 L 415.793025 253.265025 L 416.568025 254.037025 L 417.344025 254.810025 L 418.120025 255.582025 L 418.895025 256.354025 L 419.671025 257.126025 L 420.447025 257.898025 L 421.222025 258.670025 L 421.998025 259.442025 L 422.774025 260.214025 L 423.549025 260.986025 L 424.325025 261.758025 L 425.101025 262.530025 L 425.876025 263.302025" fill="none" id="44" stroke="#d7b555" stroke-width="0.5" /></svg>