<?xml version="1.0" encoding="utf-8" ?>
<svg baseProfile="full" height="645.66972" version="1.1" viewBox="0,0,300.66972,645.66972" width="300.66972" xmlns="http://www.w3.org/2000/svg" xmlns:ev="http://www.w3.org/2001/xml-events" xmlns:xlink="http://www.w3.org/1999/xlink"><defs><style type="text/css"><![CDATA[
	.background { fill: white; }
	.line { stroke: firebrick; stroke-width: .1mm; }
	.blacksquare { fill: indigo; }
	.whitesquare { fill: white; }
]]></style></defs><rect class="background" height="100%" width="100%" x="0" y="0" /><path d="M 247.627860 617.495389 L 245.753860 618.497389 L 243.878860 619.498389 L 242.004860 620.500389 L 240.129860 621.502389 L 238.254860 622.504389 L 236.380860 623.506389 L 234.505860 624.508389 L 232.631860 625.509389 L 230.756860 626.511389 L 228.882860 627.513389 L 227.007860 628.515389 L 225.132860 629.517389 L 223.258860 630.519389 L 221.383860 631.521389 L 219.509860 632.522389 L 217.634860 633.524389 L 215.760860 634.526389 L 213.885860 635.528389 L 212.010860 636.530389 L 210.136860 637.532389 L 208.249860 638.511389 L 206.356860 639.476389 L 204.447860 640.411389 L 202.533860 641.336389 L 200.617860 642.255389 L 198.651860 643.063389 L 196.658860 643.792389 L 194.607860 644.349389 L 192.532860 644.803389 L 190.444860 645.202389" fill="none" id="0" stroke="#c583d9" stroke-width="0.5" /><path d="M 185.553860 586.315389 L 189.460860 583.246389 L 193.162860 579.934389 L 196.551860 576.301389 L 199.034860 572.009389 L 201.365860 567.622389 L 203.507860 563.141389 L 205.602860 558.636389 L 207.647860 554.108389 L 209.657860 549.566389 L 211.544860 544.971389 L 213.311860 540.328389 L 215.050860 535.675389 L 216.789860 531.021389 L 218.529860 526.367389 L 220.268860 521.714389 L 222.006860 517.060389 L 223.733860 512.402389 L 225.402860 507.722389 L 226.975860 503.010389 L 228.408860 498.253389 L 229.743860 493.468389 L 231.073860 488.681389 L 232.402860 483.895389 L 233.732860 479.108389 L 235.061860 474.321389 L 236.391860 469.534389 L 237.721860 464.747389 L 239.050860 459.961389 L 240.380860 455.174389 L 241.708860 450.387389 L 243.019860 445.595389 L 244.215860 440.775389 L 245.193860 435.904389 L 246.107860 431.022389 L 246.843860 426.108389 L 247.543860 421.190389 L 248.242860 416.271389 L 248.942860 411.353389 L 249.642860 406.434389 L 250.341860 401.516389 L 251.041860 396.597389 L 251.740860 391.679389 L 252.440860 386.761389 L 253.139860 381.842389 L 253.836860 376.923389 L 254.478860 371.997389 L 255.006860 367.058389 L 255.441860 362.109389 L 255.817860 357.155389 L 256.103860 352.196389 L 256.379860 347.235389 L 256.654860 342.275389 L 256.929860 337.315389 L 257.205860 332.354389 L 257.480860 327.394389 L 257.755860 322.434389 L 258.031860 317.473389 L 258.306860 312.513389 L 258.581860 307.552389 L 258.857860 302.592389 L 259.132860 297.632389 L 259.407860 292.671389 L 259.681860 287.711389 L 259.908860 282.748389 L 260.068860 277.783389 L 260.206860 272.817389 L 260.344860 267.851389 L 260.482860 262.885389 L 260.620860 257.919389 L 260.758860 252.953389 L 260.896860 247.987389 L 261.035860 243.021389 L 261.173860 238.054389 L 261.311860 233.088389 L 261.449860 228.122389 L 261.587860 223.156389 L 261.725860 218.190389 L 261.863860 213.224389 L 262.002860 208.258389 L 262.140860 203.292389 L 262.277860 198.326389 L 262.392860 193.359389 L 262.407860 188.392389 L 262.278860 183.426389 L 262.102860 178.461389 L 261.927860 173.496389 L 261.751860 168.531389 L 261.575860 163.566389 L 261.399860 158.602389 L 261.224860 153.637389 L 261.048860 148.672389 L 260.872860 143.707389 L 260.696860 138.742389 L 260.520860 133.777389 L 260.345860 128.812389 L 260.169860 123.847389 L 259.993860 118.883389 L 259.854860 113.917389 L 259.762860 108.950389 L 259.680860 103.982389 L 259.598860 99.015289 L 259.517860 94.047989 L 259.435860 89.080589 L 259.353860 84.113289 L 259.271860 79.145989 L 259.190860 74.178689" fill="none" id="1" stroke="#f375a0" stroke-width="0.5" /><path d="M 190.444860 645.202389 L 190.599860 644.701389 L 190.757860 644.201389 L 191.030860 643.754389 L 191.323860 643.322389 L 191.700860 642.957389 L 192.089860 642.606389 L 192.496860 642.275389 L 192.916860 641.962389 L 193.349860 641.665389 L 193.782860 641.370389 L 194.217860 641.076389 L 194.651860 640.783389 L 195.086860 640.489389 L 195.521860 640.196389 L 195.955860 639.902389 L 196.392860 639.611389 L 196.828860 639.320389 L 197.264860 639.029389 L 197.700860 638.737389 L 198.136860 638.446389 L 198.573860 638.155389 L 199.009860 637.864389 L 199.445860 637.572389 L 199.881860 637.281389 L 200.317860 636.990389 L 200.754860 636.699389 L 201.190860 636.407389 L 201.626860 636.116389 L 202.498860 635.534389" fill="none" id="2" stroke="#9de993" stroke-width="0.5" /><path d="M 231.481860 628.872389 L 231.451860 628.384389 L 231.421860 627.896389 L 231.397860 627.408389 L 231.375860 626.920389 L 231.361860 626.432389 L 231.347860 625.944389 L 231.337860 625.455389 L 231.329860 624.967389 L 231.325860 624.478389 L 231.323860 623.990389 L 231.325860 623.501389 L 231.328860 623.013389 L 231.332860 622.524389 L 231.339860 622.036389 L 231.350860 621.547389 L 231.361860 621.059389 L 231.372860 620.571389 L 231.387860 620.082389 L 231.406860 619.594389 L 231.426860 619.106389 L 231.446860 618.618389 L 231.472860 618.130389 L 231.500860 617.642389 L 231.532860 617.155389 L 231.566860 616.667389 L 231.624860 616.182389 L 231.687860 615.698389 L 231.764860 615.216389 L 231.845860 614.734389 L 231.940860 614.255389 L 232.037860 613.776389" fill="none" id="3" stroke="#ad5ba7" stroke-width="0.5" /><path d="M 71.183860 22.611789 L 71.136860 23.790389 L 71.090860 24.969089 L 71.052860 26.147989 L 71.014860 27.326889 L 70.978860 28.505989 L 70.942860 29.684989 L 70.935860 30.864489 L 70.928860 32.043989 L 70.940860 33.223589 L 70.951860 34.403089 L 70.980860 35.582289 L 71.009860 36.761489 L 71.052860 37.940189 L 71.096860 39.118989 L 71.140860 40.297689 L 71.183860 41.476489 L 71.228860 42.655189 L 71.272860 43.833889 L 71.316860 45.012689 L 71.361860 46.191389 L 71.405860 47.370089 L 71.449860 48.548789 L 71.493860 49.727589 L 71.538860 50.906289 L 71.610860 52.083689 L 71.682860 53.260989 L 71.808860 54.433789 L 71.934860 55.606689 L 72.093860 56.775389 L 72.252860 57.944189" fill="none" id="4" stroke="#58f2c3" stroke-width="0.5" /><path d="M 72.252860 57.944189 L 72.285860 56.744689 L 72.317860 55.545189 L 72.344860 54.345489 L 72.371860 53.145889 L 72.390860 51.946089 L 72.410860 50.746289 L 72.422860 49.546389 L 72.434860 48.346489 L 72.441860 47.146589 L 72.447860 45.946589 L 72.449860 44.746689 L 72.451860 43.546689 L 72.448860 42.346789 L 72.444860 41.146889 L 72.441860 39.946889 L 72.438860 38.746989 L 72.435860 37.546989 L 72.432860 36.347089 L 72.429860 35.147089 L 72.426860 33.947189 L 72.423860 32.747189 L 72.420860 31.547289 L 72.417860 30.347289 L 72.414860 29.147389 L 72.411860 27.947489 L 72.408860 26.747489 L 72.405860 25.547589 L 72.402860 24.347589 L 72.399860 23.147689 L 72.395860 21.947689" fill="none" id="5" stroke="#58f2c3" stroke-width="0.5" /><path d="M 72.395860 21.947689 L 72.390860 23.137489 L 72.384860 24.327389 L 72.378860 25.517189 L 72.373860 26.706989 L 72.368860 27.896789 L 72.364860 29.086689 L 72.359860 30.276489 L 72.356860 31.466289 L 72.353860 32.656089 L 72.353860 33.845989 L 72.355860 35.035789 L 72.368860 36.225489 L 72.384860 37.415189 L 72.410860 38.604789 L 72.436860 39.794289 L 72.505860 40.982189 L 72.575860 42.169889 L 72.660860 43.356689 L 72.752860 44.542989 L 72.862860 45.727689 L 72.977860 46.911889 L 73.103860 48.095089 L 73.230860 49.278089 L 73.359860 50.460889 L 73.489860 51.643689 L 73.618860 52.826489 L 73.747860 54.009189 L 73.877860 55.191989 L 74.006860 56.374789 L 74.135860 57.557589" fill="none" id="6" stroke="#58f2c3" stroke-width="0.5" /><path d="M 160.526860 0.381799 L 165.290860 1.340169 L 170.046860 2.340189 L 174.788860 3.399709 L 179.521860 4.505419 L 184.243860 5.654459 L 188.947860 6.872689 L 193.635860 8.153299 L 198.239860 9.708669 L 202.788860 11.417489 L 207.327860 13.153689 L 211.816860 15.015389 L 216.243860 17.020289 L 220.585860 19.203389 L 224.783860 21.650789 L 228.895860 24.240989 L 233.035860 26.785089 L 237.242860 29.218689 L 241.464860 31.625089 L 245.560860 34.240189 L 249.455860 37.145889 L 253.188860 40.257089 L 256.755860 43.558189 L 260.241860 46.944289 L 263.516860 50.534789 L 266.667860 54.234289 L 269.741860 57.998189 L 272.806860 61.769089 L 275.971860 65.457289 L 278.983860 69.270989 L 281.871860 73.179389 L 284.722860 77.114989 L 287.522860 81.086589" fill="none" id="7" stroke="#57b870" stroke-width="0.5" /><path d="M 28.522860 24.991189 L 32.880860 22.700189 L 37.314860 20.560389 L 41.778860 18.485489 L 46.442860 16.907789 L 51.152860 15.475789 L 55.865860 14.052189 L 60.578860 12.628589 L 65.296860 11.221589 L 70.107860 10.174869 L 74.949860 9.284589 L 79.794860 8.412819 L 84.640860 7.541049 L 89.485860 6.669289 L 94.330860 5.797529 L 99.176860 4.925759 L 104.047860 4.209939 L 108.940860 3.669459 L 113.849860 3.295749 L 118.764860 3.005459 L 123.680860 2.730019 L 128.595860 2.454609 L 133.511860 2.179199 L 138.426860 1.903789 L 143.342860 1.628369 L 148.257860 1.352959 L 153.173860 1.077549 L 158.088860 0.802138 L 163.004860 0.534739 L 167.924860 0.360860 L 172.848860 0.334860 L 177.744860 0.842562 L 182.512860 2.069339 L 187.222860 3.505239 L 191.931860 4.941149 L 196.640860 6.377059 L 201.349860 7.812959 L 206.058860 9.248869 L 210.768860 10.684789 L 215.477860 12.120789 L 220.143860 13.690789 L 224.636860 15.703189 L 228.960860 18.058089 L 233.283860 20.413089 L 237.571860 22.832189 L 241.730860 25.466189 L 245.866860 28.136789 L 250.002860 30.807489 L 254.138860 33.478189 L 258.274860 36.148789 L 262.410860 38.819489 L 266.546860 41.490189 L 270.658860 44.196589 L 274.497860 47.278989 L 278.039860 50.698789 L 281.361860 54.331989 L 284.610860 58.030889 L 287.764860 61.811489" fill="none" id="8" stroke="#57b870" stroke-width="0.5" /><path d="M 12.385860 23.350589 L 13.564860 23.373989 L 14.742860 23.392189 L 15.920860 23.375289 L 17.098860 23.342089 L 18.274860 23.263189 L 19.449860 23.169789 L 20.622860 23.053989 L 21.795860 22.938189 L 22.968860 22.822289 L 24.141860 22.706489 L 25.314860 22.590689 L 26.487860 22.474889 L 27.659860 22.359089 L 28.832860 22.243189 L 30.005860 22.127089 L 31.175860 21.981489 L 32.343860 21.828689 L 33.505860 21.629589 L 34.665860 21.419089 L 35.818860 21.176089 L 36.968860 20.920189 L 38.114860 20.643489 L 39.258860 20.358989 L 40.400860 20.066889 L 41.540860 19.770389 L 42.680860 19.471389 L 43.820860 19.170489 L 44.959860 18.869089 L 46.098860 18.565089 L 47.237860 18.260689" fill="none" id="9" stroke="#57b870" stroke-width="0.5" /><path d="M 39.795860 17.807589 L 44.253860 16.903889 L 48.707860 15.982189 L 53.156860 15.037989 L 57.600860 14.069489 L 62.044860 13.098589 L 66.487860 12.127689 L 70.931860 11.156689 L 75.375860 10.185809 L 79.818860 9.214889 L 84.269860 8.280489 L 88.748860 7.493309 L 93.259860 6.920309 L 97.792860 6.560759 L 102.335860 6.342379 L 106.880860 6.168759 L 111.425860 5.998369 L 115.970860 5.827979 L 120.516860 5.657589 L 125.061860 5.487209 L 129.606860 5.316819 L 134.151860 5.148699 L 138.698860 5.017369 L 143.246860 4.987269 L 147.794860 4.987269 L 152.342860 4.987269 L 156.891860 4.987269 L 161.439860 4.987269 L 165.988860 4.987269 L 170.536860 4.987269 L 175.084860 4.987269" fill="none" id="10" stroke="#57b870" stroke-width="0.5" /><path d="M 11.030860 22.350589 L 15.884860 23.195789 L 20.777860 23.768189 L 25.703860 23.895189 L 30.629860 23.811889 L 35.555860 23.715289 L 40.477860 23.498189 L 45.391860 23.139589 L 50.307860 22.808789 L 55.233860 22.817089 L 60.159860 22.930489 L 65.085860 23.032389 L 70.011860 23.096989 L 74.934860 23.303489 L 79.844860 23.706689 L 84.738860 24.272289 L 89.618860 24.947589 L 94.483860 25.727089 L 99.335860 26.583989 L 104.184860 27.460389 L 109.030860 28.351089 L 113.869860 29.275089 L 118.704860 30.222889 L 123.532860 31.209489 L 128.351860 32.232589 L 133.174860 33.241889 L 138.011860 34.176889 L 142.857860 35.068089 L 147.703860 35.958689 L 152.534860 36.927789 L 157.310860 38.126889 L 162.038860 39.511789 L 166.735860 41.000589 L 171.399860 42.588589 L 176.036860 44.251589 L 180.676860 45.910389 L 185.354860 47.454689 L 190.043860 48.966489 L 194.656860 50.687389 L 199.173860 52.655089 L 203.659860 54.691989 L 208.142860 56.737289 L 212.605860 58.823189 L 217.029860 60.992789 L 221.403860 63.260089 L 225.741860 65.597389 L 230.075860 67.939589 L 234.429860 70.245589 L 238.748860 72.615689 L 242.941860 75.198689 L 246.945860 78.066589 L 250.777860 81.162189 L 254.313860 84.570189 L 257.191860 88.564889 L 259.514860 92.893489" fill="none" id="11" stroke="#d271bb" stroke-width="0.5" /><path d="M 0.334860 23.350589 L 5.251860 23.258989 L 10.169860 23.195689 L 15.087860 23.168689 L 20.005860 23.182389 L 24.923860 23.196189 L 29.841860 23.209889 L 34.759860 23.252789 L 39.675860 23.364389 L 44.592860 23.488289 L 49.508860 23.612689 L 54.425860 23.737189 L 59.341860 23.861689 L 64.257860 23.986189 L 69.174860 24.120589 L 74.085860 24.368789 L 78.983860 24.811989 L 83.854860 25.493889 L 88.707860 26.286589 L 93.558860 27.096589 L 98.409860 27.906589 L 103.260860 28.716589 L 108.111860 29.526589 L 112.962860 30.336589 L 117.812860 31.146589 L 122.663860 31.956589 L 127.511860 32.782489 L 132.325860 33.791589 L 137.075860 35.065689 L 141.737860 36.629789 L 146.318860 38.418889 L 150.875860 40.269389 L 155.431860 42.119889 L 159.988860 43.970389 L 164.545860 45.820889 L 169.101860 47.671489 L 173.658860 49.521989 L 178.214860 51.372489 L 182.769860 53.226889 L 187.298860 55.143689 L 191.756860 57.221289 L 196.143860 59.443889 L 200.476860 61.769189 L 204.756860 64.192189 L 209.033860 66.620389 L 213.310860 69.048589 L 217.586860 71.476689 L 221.863860 73.904889 L 226.140860 76.333089 L 230.417860 78.761189 L 234.693860 81.189389 L 238.970860 83.617589 L 243.247860 86.045689 L 247.524860 88.473889 L 251.792860 90.916789 L 255.977860 93.500189 L 260.079860 96.212889 L 264.035860 99.133989 L 267.890860 102.188389 L 271.736860 105.252389 L 275.553860 108.354389" fill="none" id="12" stroke="#3d8e43" stroke-width="0.5" /><path d="M 210.131860 571.530389 L 213.815860 568.216389 L 217.442860 564.840389 L 220.924860 561.316389 L 223.903860 557.374389 L 226.316860 553.061389 L 228.312860 548.529389 L 230.136860 543.922389 L 231.937860 539.306389 L 233.682860 534.668389 L 235.389860 530.018389 L 236.707860 525.241389 L 238.023860 520.464389 L 239.339860 515.687389 L 240.656860 510.909389 L 241.972860 506.132389 L 243.288860 501.355389 L 244.601860 496.577389 L 245.885860 491.791389 L 247.102860 486.988389 L 248.312860 482.183389 L 249.523860 477.378389 L 250.733860 472.573389 L 251.943860 467.768389 L 253.153860 462.963389 L 254.363860 458.158389 L 255.573860 453.352389 L 256.784860 448.547389 L 257.994860 443.742389 L 259.198860 438.936389 L 260.367860 434.121389 L 261.397860 429.274389 L 262.406860 424.422389 L 263.282860 419.546389 L 264.131860 414.664389 L 264.979860 409.782389 L 265.827860 404.900389 L 266.675860 400.018389 L 267.523860 395.136389 L 268.371860 390.254389 L 269.219860 385.372389 L 270.067860 380.489389 L 270.915860 375.607389 L 271.763860 370.725389 L 272.611860 365.843389 L 273.459860 360.961389 L 274.304860 356.079389 L 275.050860 351.181389 L 275.594860 346.257389 L 275.990860 341.318389 L 276.387860 336.379389 L 276.784860 331.439389 L 277.180860 326.500389 L 277.577860 321.561389 L 277.974860 316.622389 L 278.371860 311.682389 L 278.767860 306.743389 L 279.164860 301.804389 L 279.561860 296.865389 L 279.957860 291.925389 L 280.354860 286.986389 L 280.751860 282.047389 L 281.147860 277.108389 L 281.495860 272.165389 L 281.747860 267.216389 L 281.957860 262.266389 L 282.131860 257.314389 L 282.268860 252.360389 L 282.385860 247.407389 L 282.502860 242.453389 L 282.620860 237.499389 L 282.737860 232.545389 L 282.854860 227.592389 L 282.971860 222.638389 L 283.089860 217.684389 L 283.206860 212.730389 L 283.322860 207.777389 L 283.414860 202.822389 L 283.458860 197.868389 L 283.469860 192.912389 L 283.480860 187.957389 L 283.491860 183.002389 L 283.502860 178.047389 L 283.504860 173.092389 L 283.493860 168.137389 L 283.480860 163.182389 L 283.466860 158.226389 L 283.453860 153.271389 L 283.439860 148.316389 L 283.425860 143.361389 L 283.412860 138.406389 L 283.398860 133.451389 L 283.385860 128.496389 L 283.371860 123.541389 L 283.358860 118.585389 L 283.344860 113.630389 L 283.330860 108.675389 L 283.317860 103.720389 L 283.303860 98.765389 L 283.290860 93.810289 L 283.276860 88.855089 L 283.262860 83.899989 L 283.200860 78.945189 L 283.075860 73.991689 L 282.938860 69.038489 L 282.798860 64.085289 L 282.659860 59.132089 L 282.520860 54.178889 L 282.381860 49.225689 L 282.242860 44.272589 L 282.102860 39.319389 L 281.963860 34.366189" fill="none" id="13" stroke="#00d4db" stroke-width="0.5" /><path d="M 190.323860 587.733389 L 191.153860 587.405389 L 191.983860 587.077389 L 192.806860 586.733389 L 193.629860 586.388389 L 194.441860 586.018389 L 195.253860 585.648389 L 196.058860 585.262389 L 196.863860 584.877389 L 197.665860 584.485389 L 198.466860 584.094389 L 199.238860 583.646389 L 200.010860 583.197389 L 200.773860 582.735389 L 201.536860 582.272389 L 202.282860 581.782389 L 203.027860 581.291389 L 203.767860 580.793389 L 204.508860 580.295389 L 205.246860 579.793389 L 205.984860 579.291389 L 206.722860 578.790389 L 207.461860 578.290389 L 208.201860 577.791389 L 208.941860 577.292389 L 209.684860 576.798389 L 210.428860 576.305389 L 211.177860 575.820389 L 211.927860 575.336389 L 213.433860 574.379389" fill="none" id="14" stroke="#d55969" stroke-width="0.5" /><path d="M 208.488860 581.711389 L 211.071860 577.445389 L 213.642860 573.172389 L 216.149860 568.861389 L 218.636860 564.539389 L 220.993860 560.144389 L 222.999860 555.584389 L 224.869860 550.961389 L 226.739860 546.338389 L 228.609860 541.715389 L 230.479860 537.092389 L 232.348860 532.469389 L 234.218860 527.846389 L 236.088860 523.223389 L 237.958860 518.599389 L 239.828860 513.976389 L 241.697860 509.353389 L 243.567860 504.730389 L 245.437860 500.107389 L 247.307860 495.484389 L 249.108860 490.834389 L 250.701860 486.109389 L 252.201860 481.353389 L 253.687860 476.593389 L 255.172860 471.832389 L 256.657860 467.071389 L 258.143860 462.311389 L 259.628860 457.550389 L 261.100860 452.785389 L 262.417860 447.979389 L 263.467860 443.104389 L 264.470860 438.219389 L 265.442860 433.328389 L 266.412860 428.436389 L 267.381860 423.545389 L 268.351860 418.653389 L 269.320860 413.761389 L 270.290860 408.869389 L 271.260860 403.977389 L 272.229860 399.086389 L 273.199860 394.194389 L 274.168860 389.302389 L 275.133860 384.409389 L 276.019860 379.502389 L 276.786860 374.575389 L 277.491860 369.638389 L 278.197860 364.702389 L 278.902860 359.765389 L 279.608860 354.828389 L 280.313860 349.891389 L 281.019860 344.954389 L 281.724860 340.018389 L 282.430860 335.081389 L 283.135860 330.144389 L 283.840860 325.207389 L 284.537860 320.269389 L 285.126860 315.318389 L 285.614860 310.355389 L 286.050860 305.387389 L 286.446860 300.416389 L 286.825860 295.443389 L 287.204860 290.471389 L 287.583860 285.498389 L 287.963860 280.526389 L 288.342860 275.553389 L 288.721860 270.581389 L 289.100860 265.608389 L 289.479860 260.636389 L 289.859860 255.663389 L 290.237860 250.691389 L 290.579860 245.716389 L 290.870860 240.737389 L 291.111860 235.756389 L 291.211860 230.771389 L 291.261860 225.784389 L 291.304860 220.797389 L 291.348860 215.811389 L 291.391860 210.824389 L 291.435860 205.837389 L 291.478860 200.850389 L 291.521860 195.864389 L 291.565860 190.877389 L 291.608860 185.890389 L 291.651860 180.903389 L 291.695860 175.917389 L 291.734860 170.930389 L 291.727860 165.943389 L 291.455860 160.964389 L 291.074860 155.991389 L 290.691860 151.019389 L 290.308860 146.047389 L 289.924860 141.075389 L 289.541860 136.103389 L 289.158860 131.131389 L 288.774860 126.158389 L 288.391860 121.186389 L 288.008860 116.214389 L 287.624860 111.242389 L 287.211860 106.272389 L 286.677860 101.315389 L 285.955860 96.381489 L 285.120860 91.465089 L 284.247860 86.555089 L 283.348860 81.649889 L 282.385860 76.756789" fill="none" id="15" stroke="#64e4ff" stroke-width="0.5" /><path d="M 24.655860 14.620089 L 24.537860 19.580089 L 24.428860 24.540289 L 24.324860 29.500589 L 24.236860 34.461189 L 24.206860 39.422389 L 24.206860 44.383789 L 24.221860 49.345189 L 24.256860 54.306489 L 24.298860 59.267689 L 24.340860 64.228889 L 24.383860 69.190089 L 24.425860 74.151389 L 24.467860 79.112589 L 24.510860 84.073789 L 24.552860 89.035089 L 24.594860 93.996289 L 24.637860 98.957489 L 24.679860 103.918389 L 24.771860 108.879389 L 24.947860 113.837389 L 25.171860 118.793389 L 25.394860 123.749389 L 25.618860 128.706389 L 25.842860 133.662389 L 26.066860 138.619389 L 26.289860 143.575389 L 26.513860 148.531389 L 26.737860 153.488389 L 26.961860 158.444389 L 27.184860 163.400389 L 27.408860 168.357389 L 27.632860 173.313389 L 27.856860 178.269389 L 28.080860 183.226389 L 28.311860 188.182389 L 28.604860 193.134389 L 29.052860 198.076389 L 29.531860 203.014389 L 30.013860 207.952389 L 30.494860 212.890389 L 30.975860 217.828389 L 31.456860 222.766389 L 31.937860 227.704389 L 32.418860 232.642389 L 32.899860 237.580389 L 33.380860 242.518389 L 33.861860 247.456389 L 34.342860 252.394389 L 34.824860 257.332389 L 35.305860 262.270389 L 35.802860 267.206389 L 36.383860 272.134389 L 37.015860 277.054389 L 37.671860 281.972389 L 38.368860 286.884389 L 39.103860 291.791389 L 39.849860 296.696389 L 40.594860 301.601389 L 41.340860 306.506389 L 42.086860 311.411389 L 42.831860 316.316389 L 43.577860 321.221389 L 44.322860 326.126389 L 45.068860 331.032389 L 45.813860 335.937389 L 46.559860 340.842389 L 47.304860 345.747389 L 48.050860 350.652389 L 48.795860 355.557389 L 49.541860 360.462389 L 50.287860 365.367389 L 51.041860 370.271389 L 51.843860 375.167389 L 52.676860 380.058389 L 53.544860 384.943389 L 54.549860 389.801389 L 55.604860 394.649389 L 56.666860 399.495389 L 57.728860 404.342389 L 58.789860 409.188389 L 59.851860 414.035389 L 60.913860 418.881389 L 61.975860 423.728389 L 63.036860 428.574389 L 64.098860 433.420389 L 65.160860 438.267389 L 66.222860 443.113389 L 67.284860 447.960389 L 68.345860 452.806389 L 69.407860 457.653389 L 70.469860 462.499389 L 71.663860 467.312389 L 73.083860 472.065389 L 74.613860 476.785389 L 76.144860 481.504389 L 77.675860 486.224389 L 79.206860 490.943389 L 80.737860 495.662389 L 82.268860 500.381389 L 83.799860 505.101389 L 85.330860 509.820389 L 86.862860 514.539389 L 88.393860 519.258389 L 89.974860 523.961389 L 91.730860 528.598389 L 93.709860 533.147389 L 95.752860 537.669389 L 97.785860 542.194389 L 99.807860 546.725389" fill="none" id="16" stroke="#e68e54" stroke-width="0.5" /><path d="M 69.948860 528.850389 L 68.229860 524.183389 L 66.551860 519.502389 L 64.951860 514.792389 L 63.547860 510.021389 L 62.117860 505.258389 L 60.683860 500.496389 L 59.250860 495.733389 L 57.816860 490.971389 L 56.405860 486.202389 L 55.110860 481.401389 L 53.864860 476.586389 L 52.626860 471.769389 L 51.389860 466.952389 L 50.152860 462.135389 L 48.914860 457.318389 L 47.677860 452.501389 L 46.440860 447.684389 L 45.202860 442.867389 L 43.983860 438.045389 L 42.800860 433.214389 L 41.651860 428.376389 L 40.570860 423.521389 L 39.560860 418.652389 L 38.577860 413.776389 L 37.597860 408.900389 L 36.617860 404.024389 L 35.637860 399.148389 L 34.658860 394.273389 L 33.678860 389.397389 L 32.698860 384.521389 L 31.718860 379.645389 L 30.738860 374.769389 L 29.759860 369.893389 L 28.779860 365.017389 L 27.799860 360.141389 L 26.819860 355.265389 L 25.840860 350.389389 L 24.862860 345.513389 L 23.909860 340.631389 L 23.039860 335.735389 L 22.254860 330.824389 L 21.504860 325.907389 L 20.817860 320.982389 L 20.232860 316.043389 L 19.694860 311.099389 L 19.156860 306.155389 L 18.618860 301.210389 L 18.080860 296.266389 L 17.542860 291.322389 L 17.004860 286.378389 L 16.466860 281.433389 L 15.928860 276.489389 L 15.390860 271.545389 L 14.852860 266.601389 L 14.314860 261.656389 L 13.776860 256.712389 L 13.239860 251.768389 L 12.701860 246.824389 L 12.163860 241.879389 L 11.671860 236.930389 L 11.279860 231.973389 L 10.946860 227.010389 L 10.628860 222.047389 L 10.335860 217.082389 L 10.076860 212.116389 L 9.825860 207.149389 L 9.598860 202.181389 L 9.429860 197.210389 L 9.298860 192.238389 L 9.174860 187.267389 L 9.050860 182.295389 L 8.926860 177.323389 L 8.802860 172.351389 L 8.678860 167.379389 L 8.554860 162.407389 L 8.429860 157.435389 L 8.305860 152.463389 L 8.181860 147.492389 L 8.057860 142.520389 L 7.933860 137.548389 L 7.809860 132.576389 L 7.685860 127.604389 L 7.561860 122.632389 L 7.437860 117.660389 L 7.318860 112.688389 L 7.229860 107.716389 L 7.198860 102.743389 L 7.199860 97.769589 L 7.218860 92.796289 L 7.329860 87.824889 L 7.599860 82.858889 L 7.896860 77.894289 L 8.192860 72.929789 L 8.489860 67.965189 L 8.786860 63.000589 L 9.082860 58.036089 L 9.379860 53.071489 L 9.675860 48.106989 L 9.972860 43.142389 L 10.269860 38.177789 L 10.565860 33.213289 L 10.862860 28.248689 L 11.159860 23.284189" fill="none" id="17" stroke="#54aeff" stroke-width="0.5" /><path d="M 91.237860 559.803389 L 94.346860 562.045389 L 97.594860 564.080389 L 101.010860 565.818389 L 104.514860 567.374389 L 108.018860 568.929389 L 111.522860 570.484389 L 115.038860 572.013389 L 118.598860 573.434389 L 122.192860 574.769389 L 125.812860 576.030389 L 129.483860 577.131389 L 133.196860 578.083389 L 136.924860 578.979389 L 140.653860 579.869389 L 144.382860 580.758389 L 148.111860 581.647389 L 151.840860 582.536389 L 155.569860 583.426389 L 159.305860 584.285389 L 163.076860 584.967389 L 166.889860 585.334389 L 170.715860 585.580389 L 174.541860 585.819389 L 178.367860 586.058389 L 182.194860 586.298389 L 186.020860 586.537389 L 189.846860 586.776389 L 193.675860 586.973389 L 197.506860 587.115389 L 201.338860 587.217389" fill="none" id="18" stroke="#eed973" stroke-width="0.5" /><path d="M 66.241860 526.917389 L 66.630860 528.958389 L 67.074860 530.986389 L 67.623860 532.990389 L 68.337860 534.938389 L 69.126860 536.860389 L 70.058860 538.718389 L 70.991860 540.574389 L 71.927860 542.429389 L 72.894860 544.269389 L 73.879860 546.097389 L 75.090860 547.786389 L 76.394860 549.396389 L 77.865860 550.863389 L 79.402860 552.260389 L 80.967860 553.627389 L 82.532860 554.993389 L 84.098860 556.360389 L 85.663860 557.726389 L 87.236860 559.084389 L 88.813860 560.437389 L 90.536860 561.599389 L 92.344860 562.588389 L 94.309860 563.264389 L 96.307860 563.831389 L 98.320860 564.347389 L 100.342860 564.826389 L 102.364860 565.303389 L 104.388860 565.775389 L 106.413860 566.239389 L 108.440860 566.698389" fill="none" id="19" stroke="#eed973" stroke-width="0.5" /><path d="M 103.705860 512.838389 L 106.760860 513.104389 L 109.794860 513.544389 L 112.782860 514.220389 L 115.716860 515.105389 L 118.612860 516.112389 L 121.496860 517.154389 L 124.378860 518.202389 L 127.246860 519.288389 L 130.075860 520.472389 L 132.871860 521.731389 L 135.651860 523.024389 L 138.427860 524.326389 L 141.204860 525.628389 L 143.980860 526.930389 L 146.756860 528.232389 L 149.533860 529.534389 L 152.309860 530.836389 L 155.085860 532.139389 L 157.857860 533.451389 L 160.614860 534.793389 L 163.342860 536.193389 L 166.023860 537.681389 L 168.619860 539.312389 L 171.183860 540.994389 L 173.745860 542.680389 L 176.307860 544.365389 L 178.868860 546.051389 L 181.430860 547.737389 L 183.991860 549.422389 L 186.553860 551.108389" fill="none" id="20" stroke="#008bd4" stroke-width="0.5" /><path d="M 254.429860 87.883389 L 255.484860 87.729789 L 256.539860 87.576189 L 257.591860 87.405989 L 258.643860 87.235789 L 259.692860 87.045989 L 260.741860 86.856089 L 261.785860 86.639589 L 262.828860 86.422989 L 263.870860 86.199089 L 264.912860 85.975289 L 265.953860 85.744089 L 266.993860 85.512989 L 268.034860 85.279889 L 269.074860 85.046689 L 270.114860 84.816489 L 271.155860 84.586289 L 272.196860 84.359089 L 273.238860 84.131789 L 274.280860 83.909389 L 275.323860 83.686989 L 276.365860 83.465189 L 277.408860 83.243389 L 278.450860 83.022189 L 279.493860 82.800889 L 280.538860 82.590789 L 281.583860 82.380689 L 282.631860 82.185289 L 283.679860 81.989889 L 284.728860 81.804589 L 285.778860 81.619289" fill="none" id="21" stroke="#fdb968" stroke-width="0.5" /><path d="M 285.778860 81.619289 L 284.805860 81.645689 L 283.832860 81.671989 L 282.860860 81.716989 L 281.887860 81.761889 L 280.916860 81.828789 L 279.945860 81.895689 L 278.977860 81.992789 L 278.008860 82.089789 L 277.041860 82.201789 L 276.074860 82.313789 L 275.114860 82.471489 L 274.153860 82.629089 L 273.194860 82.793189 L 272.234860 82.957289 L 271.277860 83.134189 L 270.320860 83.311189 L 269.362860 83.485189 L 268.405860 83.659189 L 267.447860 83.831789 L 266.489860 84.004289 L 265.527860 84.155189 L 264.565860 84.306089 L 263.601860 84.440089 L 262.637860 84.574089 L 261.669860 84.672789 L 260.700860 84.771589 L 259.729860 84.839589 L 258.758860 84.907489 L 257.786860 84.951289 L 256.814860 84.994989" fill="none" id="22" stroke="#fdb968" stroke-width="0.5" /><path d="M 256.518860 325.495389 L 258.045860 324.841389 L 259.572860 324.187389 L 261.095860 323.523389 L 262.617860 322.860389 L 264.133860 322.181389 L 265.649860 321.502389 L 267.160860 320.813389 L 268.672860 320.123389 L 270.183860 319.434389 L 271.694860 318.744389 L 273.201860 318.045389 L 274.708860 317.346389 L 276.196860 316.608389 L 277.684860 315.870389 L 279.134860 315.060389 L 280.584860 314.250389 L 282.006860 313.392389 L 283.429860 312.535389 L 284.852860 311.677389 L 286.274860 310.820389 L 287.697860 309.963389 L 289.120860 309.105389 L 290.542860 308.248389 L 291.965860 307.390389 L 293.375860 306.513389 L 294.786860 305.635389 L 296.170860 304.718389 L 297.555860 303.800389 L 298.923860 302.858389 L 300.291860 301.917389" fill="none" id="23" stroke="#6f73bc" stroke-width="0.5" /><path d="M 259.035860 321.042389 L 260.113860 320.725389 L 261.192860 320.408389 L 262.254860 320.041389 L 263.315860 319.671389 L 264.348860 319.229389 L 265.377860 318.777389 L 266.389860 318.290389 L 267.398860 317.795389 L 268.406860 317.298389 L 269.414860 316.801389 L 270.421860 316.303389 L 271.428860 315.804389 L 272.435860 315.305389 L 273.442860 314.806389 L 274.446860 314.302389 L 275.448860 313.793389 L 276.448860 313.279389 L 277.445860 312.761389 L 278.438860 312.234389 L 279.424860 311.695389 L 280.408860 311.153389 L 281.391860 310.608389 L 282.373860 310.062389 L 283.353860 309.511389 L 284.332860 308.960389 L 285.312860 308.409389 L 286.291860 307.858389 L 287.271860 307.307389 L 288.250860 306.757389 L 289.230860 306.206389 L 290.209860 305.655389" fill="none" id="24" stroke="#6f73bc" stroke-width="0.5" /><path d="M 81.190860 302.979389 L 85.882860 304.498389 L 90.564860 306.050389 L 95.228860 307.653389 L 99.880860 309.291389 L 104.532860 310.930389 L 109.184860 312.569389 L 113.924860 313.928389 L 118.772860 314.836389 L 123.643860 315.613389 L 128.515860 316.378389 L 133.387860 317.143389 L 138.260860 317.908389 L 143.132860 318.674389 L 148.004860 319.439389 L 152.877860 320.204389 L 157.749860 320.969389 L 162.662860 321.404389 L 167.592860 321.521389 L 172.524860 321.559389 L 177.456860 321.596389 L 182.388860 321.633389 L 187.320860 321.671389 L 192.252860 321.708389 L 197.184860 321.745389 L 202.116860 321.782389 L 207.048860 321.820389 L 211.979860 321.857389 L 216.911860 321.881389 L 221.842860 321.777389 L 226.764860 321.457389 L 231.681860 321.077389 L 236.593860 320.626389 L 241.498860 320.111389 L 246.403860 319.594389 L 251.308860 319.077389 L 256.211860 318.547389 L 261.104860 317.928389 L 265.971860 317.128389 L 270.837860 316.327389 L 275.704860 315.526389 L 280.571860 314.725389 L 285.437860 313.924389 L 290.304860 313.124389 L 295.170860 312.323389" fill="none" id="25" stroke="#6f73bc" stroke-width="0.5" /><path d="M 13.705860 243.807389 L 14.952860 247.016389 L 16.248860 250.204389 L 17.561860 253.386389 L 19.021860 256.502389 L 20.799860 259.443389 L 22.955860 262.114389 L 25.340860 264.593389 L 27.797860 267.004389 L 30.264860 269.405389 L 32.730860 271.807389 L 35.196860 274.208389 L 37.662860 276.609389 L 40.129860 279.010389 L 42.595860 281.411389 L 45.061860 283.813389 L 47.550860 286.190389 L 50.192860 288.395389 L 53.122860 290.192389 L 56.244860 291.632389 L 59.405860 292.994389 L 62.566860 294.357389 L 65.726860 295.719389 L 68.887860 297.082389 L 72.048860 298.444389 L 75.209860 299.807389 L 78.370860 301.170389 L 81.531860 302.532389 L 84.692860 303.895389 L 87.853860 305.257389 L 91.014860 306.620389" fill="none" id="26" stroke="#6f73bc" stroke-width="0.5" /></svg>