<?xml version="1.0" encoding="utf-8" ?>
<svg baseProfile="full" height="928.5" version="1.1" viewBox="0,0,516.5,928.5" width="516.5" xmlns="http://www.w3.org/2000/svg" xmlns:ev="http://www.w3.org/2001/xml-events" xmlns:xlink="http://www.w3.org/1999/xlink"><defs><style type="text/css"><![CDATA[
	.background { fill: white; }
	.line { stroke: firebrick; stroke-width: .1mm; }
	.blacksquare { fill: indigo; }
	.whitesquare { fill: white; }
]]></style></defs><rect class="background" height="100%" width="100%" x="0" y="0" /><path d="M 0.250000 199.549210 L 4.016312 198.202031 L 7.769977 196.820817 L 11.502040 195.381476 L 15.234104 193.942136 L 18.966167 192.502795 L 22.698231 191.063454 L 26.430294 189.624113 L 30.162358 188.184773 L 33.894422 186.745432 L 37.630990 185.317928 L 41.375555 183.911431 L 45.120120 182.504934 L 48.864685 181.098437 L 52.609250 179.691940 L 56.351092 178.278305 L 60.081139 176.833745 L 63.811185 175.389184 L 67.541231 173.944623 L 71.271277 172.500063 L 75.001323 171.055502 L 78.720408 169.583236 L 82.429097 168.084694 L 86.137786 166.586153 L 89.846474 165.087611 L 93.555163 163.589069 L 97.263852 162.090527 L 100.972541 160.591986 L 104.681230 159.093444 L 108.389918 157.594902 L 112.098607 156.096360 L 115.807296 154.597819 L 119.515985 153.099277 L 123.224674 151.600735 L 126.933362 150.102193 L 130.619779 148.549756 L 134.304395 146.992964 L 137.989011 145.436172 L 141.668397 143.867374 L 145.317438 142.228929 L 148.966478 140.590483 L 152.615518 138.952037 L 156.264559 137.313592 L 159.913599 135.675146 L 163.562639 134.036700 L 167.211680 132.398255 L 170.855551 130.748516 L 174.480283 129.056975 L 178.105016 127.365433 L 181.729748 125.673891 L 185.357451 123.988920 L 189.022080 122.385644 L 192.686709 120.782369 L 196.351339 119.179094 L 200.015968 117.575818 L 203.398646 117.261802 L 207.030899 115.586471 L 210.663153 113.911140 L 214.295406 112.235809 L 217.927660 110.560477 L 221.559913 108.885146 L 225.192167 107.209815 L 228.824420 105.534484 L 232.456674 103.859153 L 236.125600 102.267879 L 239.824312 100.744880 L 243.523024 99.221881 L 247.221737 97.698881 L 250.920449 96.175882 L 254.503530 94.398830 L 258.081239 92.609976 L 261.658947 90.821121 L 265.236656 89.032267 L 268.631816 88.674821 L 272.299220 87.077903 L 275.966624 85.480985 L 279.634029 83.884068 L 283.301433 82.287150 L 286.968837 80.690232 L 290.636241 79.093314 L 294.303645 77.496396 L 297.971049 75.899478 L 301.638453 74.302560 L 305.263584 72.612301 L 308.882859 70.909113 L 312.502134 69.205925 L 316.121408 67.502737 L 319.755082 65.832210 L 323.453794 64.309211 L 327.152507 62.786211 L 330.851219 61.263212 L 334.549932 59.740213 L 338.214631 58.579665 L 341.856741 56.925872 L 345.498852 55.272079 L 349.140962 53.618286 L 352.783072 51.964492 L 356.425183 50.310699 L 360.067293 48.656906 L 363.709404 47.003113 L 367.351514 45.349320 L 370.999245 43.708135 L 374.663874 42.104859 L 378.328503 40.501584 L 381.993133 38.898309 L 385.657762 37.295033 L 389.322391 35.691758 L 392.987021 34.088483 L 396.651650 32.485207 L 400.316279 30.881932 L 402.801190 30.887800" fill="none" id="1" stroke="black" stroke-width="0.5" /><path d="M 414.990160 0.250000 L 414.958514 4.249251 L 414.729917 8.241744 L 414.306110 12.219229 L 413.882303 16.196714 L 413.458495 20.174199 L 413.034688 24.151684 L 412.610881 28.129169 L 412.271046 32.114265 L 411.972812 36.103132 L 411.674578 40.091998 L 411.376344 44.080865 L 411.078110 48.069731 L 410.779876 52.058598 L 410.499963 56.048707 L 410.256883 60.041314 L 410.013802 64.033921 L 409.770722 68.026528 L 409.527641 72.019135 L 409.296559 76.012352 L 409.133803 80.009040 L 408.971048 84.005727 L 408.808292 88.002415 L 408.645537 91.999102 L 408.482782 95.995789 L 408.327910 99.992746 L 408.217607 103.991225 L 408.107304 107.989704 L 407.997001 111.988183 L 407.886698 115.986662 L 407.776395 119.985140 L 407.666092 123.983619 L 407.555789 127.982098 L 407.445486 131.980577 L 407.335183 135.979056 L 407.224880 139.977535 L 407.133906 143.976493 L 407.045799 147.975523 L 406.957692 151.974552 L 406.869585 155.973582 L 406.781478 159.972611 L 406.693371 163.971641 L 406.605264 167.970670 L 406.517157 171.969700 L 406.429050 175.968729 L 406.340943 179.967759 L 406.252836 183.966788 L 406.164728 187.965818 L 406.076621 191.964848 L 405.988514 195.963877 L 405.900407 199.962907 L 405.812300 203.961936 L 405.724193 207.960966 L 405.636086 211.959995 L 405.547979 215.959025 L 405.459872 219.958054 L 405.371765 223.957084 L 405.283658 227.956113 L 405.195551 231.955143 L 405.107444 235.954172 L 405.019337 239.953202 L 404.931230 243.952231 L 404.843123 247.951261 L 404.755016 251.950290 L 404.666909 255.949320 L 404.578802 259.948349 L 404.465061 263.946645 L 404.324152 267.944162 L 404.183243 271.941679 L 404.042335 275.939197 L 403.901426 279.936714 L 403.760517 283.934231 L 403.619608 287.931749 L 403.478700 291.929266 L 403.337791 295.926783 L 403.196882 299.924301 L 403.084650 303.922323 L 403.084650 307.922323 L 403.084650 311.922323 L 403.084650 315.922323 L 403.084650 319.922323 L 403.084650 323.922323 L 403.653843 327.564999 L 403.599043 331.564623 L 403.544244 335.564248 L 403.489444 339.563873 L 403.434644 343.563497 L 403.379845 347.563122 L 403.325045 351.562746 L 403.270245 355.562371 L 403.215445 359.561996 L 403.160646 363.561620 L 403.105846 367.561245 L 403.031340 371.560520 L 402.944404 375.559575 L 402.857468 379.558631 L 402.770532 383.557686 L 402.683596 387.556741 L 402.596660 391.555796 L 402.509724 395.554851 L 402.422788 399.553906 L 402.335852 403.552962 L 402.248916 407.552017 L 402.161980 411.551072 L 402.508788 415.232514 L 402.803694 418.965790 L 402.737036 422.965235 L 402.670378 426.964679 L 402.603721 430.964124 L 402.537063 434.963568 L 402.470406 438.963013 L 402.403748 442.962457 L 402.337090 446.961902 L 402.270433 450.961347 L 402.203775 454.960791 L 402.137117 458.960236 L 402.084650 462.959798 L 402.084650 466.959798 L 402.084650 470.959798 L 402.084650 474.959798 L 402.084650 478.959798 L 402.084650 482.959798 L 402.084650 486.959798 L 402.084650 490.959798 L 402.084650 494.959798 L 402.084650 498.959798 L 402.084650 502.959798 L 402.084650 506.959798 L 402.641152 510.629023 L 402.593263 514.628737 L 402.545374 518.628450 L 402.497485 522.628163 L 402.449596 526.627877 L 402.401706 530.627590 L 402.353817 534.627303 L 402.305928 538.627017 L 402.258039 542.626730 L 402.210150 546.626443 L 402.162261 550.626157 L 402.114372 554.625870 L 402.084650 558.625692 L 402.084650 562.625692 L 402.084650 566.625692 L 402.084650 570.625692 L 402.084650 574.625692 L 402.084650 578.625692 L 402.147821 582.624376 L 402.314343 586.620909 L 402.480865 590.617441 L 402.647388 594.613973 L 402.813910 598.610506 L 402.980432 602.607038 L 403.237601 606.507532 L 403.223884 610.507508 L 403.210167 614.507485 L 403.196450 618.507461 L 403.182732 622.507438 L 403.169015 626.507414 L 403.155298 630.507391 L 403.141580 634.507367 L 403.127863 638.507344 L 403.114146 642.507320 L 403.100428 646.507297 L 403.086711 650.507273 L 403.226152 654.504323 L 403.392674 658.500855 L 403.559197 662.497387 L 403.725719 666.493920 L 403.892241 670.490452 L 404.058763 674.486984 L 404.084650 678.486445 L 404.084650 682.486445 L 404.084650 686.486445 L 404.084650 690.486445 L 404.084650 694.486445 L 404.084650 697.108270" fill="none" id="2" stroke="black" stroke-width="0.5" /><path d="M 27.116150 156.533470 L 26.999634 160.524045 L 27.162768 164.517376 L 27.506672 168.499297 L 27.673667 172.495809 L 27.840662 176.492322 L 28.007657 180.488834 L 28.202168 184.483884 L 28.459916 188.475571 L 28.717663 192.467258 L 28.975411 196.458945 L 29.233159 200.450632 L 29.490906 204.442320 L 29.748654 208.434007 L 30.028605 212.424076 L 30.352055 216.410977 L 30.675505 220.397878 L 30.998955 224.384780 L 31.322406 228.371681 L 31.615856 232.360883 L 31.904370 236.350465 L 32.192884 240.340046 L 32.481398 244.329627 L 32.769911 248.319209 L 33.022431 252.311130 L 33.252766 256.304492 L 33.483101 260.297855 L 33.713435 264.291218 L 33.943770 268.284581 L 34.174105 272.277943 L 34.394149 276.271882 L 34.610557 280.266023 L 34.826964 284.260165 L 35.043371 288.254307 L 35.259779 292.248448 L 35.476186 296.242590 L 35.692593 300.236732 L 35.909001 304.230873 L 36.125408 308.225015 L 36.341815 312.219157 L 36.523013 316.214983 L 36.688872 320.211543 L 36.854731 324.208103 L 37.020590 328.204663 L 37.186450 332.201222 L 37.352309 336.197782 L 37.518168 340.194342 L 37.672552 344.191321 L 37.798920 348.189325 L 37.925288 352.187328 L 38.051657 356.185332 L 38.178025 360.183335 L 38.304394 364.181338 L 38.430762 368.179342 L 38.557130 372.177345 L 38.683499 376.175348 L 38.809867 380.173352 L 38.936235 384.171355 L 39.062604 388.169359 L 39.186760 392.167424 L 39.284704 396.166225 L 39.382648 400.165025 L 39.480592 404.163826 L 39.578536 408.162627 L 39.676480 412.161428 L 39.774424 416.160228 L 39.872368 420.159029 L 39.970311 424.157830 L 40.068255 428.156630 L 40.166199 432.155431 L 40.264143 436.154232 L 40.362087 440.153032 L 40.460031 444.151833 L 40.557975 448.150634 L 40.655919 452.149434 L 40.753862 456.148235 L 40.851806 460.147036 L 40.949750 464.145837 L 41.047694 468.144637 L 41.145638 472.143438 L 41.243582 476.142239 L 41.341526 480.141039 L 41.444935 484.139691 L 41.565082 488.137886 L 41.685230 492.136081 L 41.805377 496.134276 L 41.925524 500.132472 L 42.045672 504.130667 L 42.165819 508.128862 L 42.285966 512.127057 L 42.406114 516.125252 L 42.526261 520.123448 L 42.646408 524.121643 L 42.766556 528.119838 L 42.886703 532.118033 L 43.006850 536.116228 L 43.126998 540.114423 L 43.247145 544.112619 L 43.367292 548.110814 L 43.487440 552.109009 L 43.607587 556.107204 L 43.725804 560.105453 L 43.828334 564.104139 L 43.930865 568.102824 L 44.033395 572.101510 L 44.135925 576.100196 L 44.238456 580.098882 L 44.340986 584.097567 L 44.443516 588.096253 L 44.546047 592.094939 L 44.648577 596.093624 L 44.751107 600.092310 L 44.853638 604.090996 L 44.956168 608.089682 L 45.058698 612.088367 L 45.161229 616.087053 L 45.272033 620.085503 L 45.397258 624.083543 L 45.522483 628.081582 L 45.647709 632.079621 L 45.772934 636.077661 L 45.898160 640.075700 L 46.023385 644.073739 L 46.148610 648.071779 L 46.273836 652.069818 L 46.399061 656.067857 L 46.524286 660.065897 L 46.649512 664.063936 L 46.774737 668.061975 L 46.899963 672.060015 L 47.025188 676.058054 L 47.170823 680.055387 L 47.322326 684.052517 L 47.473829 688.049647 L 47.625332 692.046776 L 47.776835 696.043906 L 47.928337 700.041036 L 48.079840 704.038166 L 48.231343 708.035296 L 48.382846 712.032426 L 48.547513 716.029005 L 48.730243 720.024829 L 48.912974 724.020653 L 49.095704 728.016477 L 49.278434 732.012301 L 49.461164 736.008125 L 49.643894 740.003949 L 49.826624 743.999773 L 50.009354 747.995597 L 50.192084 751.991421 L 50.374815 755.987245 L 50.557545 759.983069 L 50.740275 763.978893 L 50.923005 767.974717 L 51.105735 771.970541 L 51.288465 775.966365 L 51.471195 779.962189 L 51.653926 783.958014 L 51.836656 787.953838 L 52.019386 791.949662 L 52.202116 795.945486 L 52.384846 799.941310 L 52.567576 803.937134 L 52.750306 807.932958 L 52.933036 811.928782 L 53.100400 815.588580" fill="none" id="3" stroke="black" stroke-width="0.5" /><path d="M 65.698820 814.029530 L 69.486994 812.936697 L 72.990591 811.008572 L 76.390699 808.902579 L 79.704470 806.662284 L 83.078321 804.514294 L 86.468350 802.391160 L 89.929792 800.386630 L 93.392289 798.383853 L 96.854785 796.381076 L 100.314719 794.373917 L 103.757282 792.337067 L 107.199845 790.300217 L 110.642409 788.263367 L 114.084972 786.226517 L 117.527535 784.189666 L 120.970098 782.152816 L 124.412661 780.115966 L 127.829851 778.037056 L 131.237069 775.941617 L 134.644287 773.846179 L 138.051506 771.750740 L 141.458724 769.655301 L 144.865942 767.559862 L 148.273161 765.464424 L 151.680379 763.368985 L 155.087597 761.273546 L 158.495218 759.178774 L 161.936629 757.139977 L 165.378040 755.101181 L 168.819450 753.062384 L 172.260861 751.023588 L 175.702272 748.984791 L 179.143683 746.945995 L 182.585094 744.907198 L 186.026505 742.868402 L 189.462025 740.819914 L 192.856343 738.703642 L 196.250661 736.587371 L 199.644979 734.471100 L 203.039298 732.354829 L 206.433616 730.238558 L 209.827934 728.122287 L 213.222252 726.006016 L 216.616571 723.889744 L 220.010889 721.773473 L 223.405207 719.657202 L 226.799525 717.540931 L 230.193844 715.424660 L 233.595745 713.320802 L 237.028099 711.266795 L 240.460453 709.212787 L 243.892807 707.158779 L 247.325160 705.104771 L 250.757514 703.050764 L 254.189868 700.996756 L 257.616071 698.932636 L 261.018727 696.829796 L 264.421383 694.726957 L 267.824039 692.624118 L 271.216987 690.505679 L 274.606452 688.381644 L 277.995918 686.257610 L 281.379725 684.124659 L 284.744882 681.962317 L 288.110039 679.799976 L 291.475195 677.637634 L 294.868805 675.520428 L 298.270925 673.416722 L 301.673045 671.313016 L 305.083898 669.223665 L 308.516252 667.169658 L 311.948607 665.115651 L 315.380961 663.061645 L 318.782378 660.957020 L 322.175703 658.839158 L 325.569029 656.721296 L 328.962355 654.603434 L 332.355681 652.485571 L 335.749006 650.367709 L 339.139315 648.245061 L 342.513328 646.096564 L 345.887340 643.948067 L 349.261353 641.799570 L 352.635365 639.651073 L 356.009378 637.502576 L 359.383390 635.354079 L 362.757403 633.205582 L 366.131415 631.057085 L 369.505428 628.908588 L 372.908313 626.806163 L 376.312954 624.706539 L 379.717595 622.606915 L 383.122236 620.507291 L 386.526876 618.407667 L 389.921965 616.292760 L 393.301038 614.152232 L 396.680112 612.011703 L 400.059186 609.871175 L 403.438259 607.730647 L 406.777959 605.529711 L 410.100341 603.302206 L 413.422723 601.074701 L 416.745105 598.847196 L 420.067487 596.619691 L 423.392195 594.395719 L 426.751250 592.223912 L 428.659450 590.990160" fill="none" id="4" stroke="black" stroke-width="0.5" /><path d="M 363.399610 29.187010 L 363.884659 33.157492 L 364.369709 37.127974 L 364.748510 41.109460 L 365.087479 45.095072 L 365.426448 49.080683 L 365.704853 53.070899 L 365.972307 57.061948 L 366.239762 61.052996 L 366.486974 65.045282 L 366.707545 69.039196 L 366.928116 73.033110 L 367.148688 77.027024 L 367.358271 81.021510 L 367.553499 85.016742 L 367.739951 89.012349 L 367.885023 93.009717 L 368.030096 97.007086 L 368.175168 101.004454 L 368.320240 105.001823 L 368.456213 108.999464 L 368.551153 112.998337 L 368.646092 116.997210 L 368.741032 120.996084 L 368.835972 124.994957 L 368.930912 128.993830 L 369.025852 132.992703 L 369.120791 136.991576 L 369.215731 140.990449 L 369.286193 144.989819 L 369.353563 148.989252 L 369.420933 152.988684 L 369.488303 156.988117 L 369.555673 160.987550 L 369.623043 164.986982 L 369.667113 168.986724 L 369.705723 172.986537 L 369.744334 176.986351 L 369.782945 180.986165 L 369.821556 184.985978 L 369.860167 188.985792 L 369.890364 192.985656 L 369.899384 196.985645 L 369.908404 200.985635 L 369.917424 204.985625 L 369.926443 208.985615 L 369.935463 212.985605 L 369.944483 216.985595 L 369.953503 220.985584 L 369.962523 224.985574 L 369.971542 228.985564 L 369.980562 232.985554 L 369.989582 236.985544 L 369.998602 240.985534 L 370.007621 244.985523 L 370.016641 248.985513 L 370.025661 252.985503 L 370.034681 256.985493 L 370.043700 260.985483 L 370.052720 264.985472 L 370.061740 268.985462 L 370.070760 272.985452 L 370.079780 276.985442 L 370.088799 280.985432 L 370.097819 284.985422 L 370.106839 288.985411 L 370.115859 292.985401 L 370.124878 296.985391 L 370.133898 300.985381 L 370.142918 304.985371 L 370.151938 308.985361 L 370.160957 312.985350 L 370.169977 316.985340 L 370.178997 320.985330 L 370.188017 324.985320 L 370.197037 328.985310 L 370.206056 332.985300 L 370.215076 336.985289 L 370.224096 340.985279 L 370.233116 344.985269 L 370.242135 348.985259 L 370.251155 352.985249 L 370.260175 356.985239 L 370.269195 360.985228 L 370.278214 364.985218 L 370.287234 368.985208 L 370.296254 372.985198 L 370.305274 376.985188 L 370.314294 380.985178 L 370.323313 384.985167 L 370.328740 388.985161 L 370.328740 392.985161 L 370.328740 396.985161 L 370.328740 400.985161 L 370.328740 404.985161 L 370.328740 408.985161 L 370.328740 412.985161 L 370.328740 416.985161 L 370.328740 420.985161 L 370.328740 424.985161 L 370.328740 428.985161 L 370.328740 432.985161 L 370.328740 436.985161 L 370.328740 440.985161 L 370.321403 444.985138 L 370.295584 448.985054 L 370.269766 452.984971 L 370.243947 456.984888 L 370.218129 460.984804 L 370.192310 464.984721 L 370.166491 468.984638 L 370.140673 472.984554 L 370.114854 476.984471 L 370.089036 480.984388 L 370.063217 484.984304 L 370.037399 488.984221 L 370.011580 492.984138 L 369.985761 496.984054 L 369.959943 500.983971 L 369.934124 504.983888 L 369.908306 508.983804 L 369.882487 512.983721 L 369.856669 516.983638 L 369.830850 520.983554 L 369.784985 524.983276 L 369.732999 528.982938 L 369.681013 532.982600 L 369.629027 536.982263 L 369.577041 540.981925 L 369.525055 544.981587 L 369.473068 548.981249 L 369.421082 552.980911 L 369.369096 556.980573 L 369.317110 560.980236 L 369.265124 564.979898 L 369.213138 568.979560 L 369.161151 572.979222 L 369.109165 576.978884 L 369.046165 580.978336 L 368.945330 584.977065 L 368.844495 588.975794 L 368.743660 592.974522 L 368.642825 596.973251 L 368.541989 600.971980 L 368.441154 604.970709 L 368.340319 608.969438 L 368.239484 612.968167 L 368.138649 616.966895 L 368.229816 620.783681 L 368.105312 624.781743 L 367.980808 628.779805 L 367.856304 632.777867 L 367.731799 636.775929 L 367.607295 640.773990 L 367.482791 644.772052 L 367.358287 648.770114 L 367.233782 652.768176 L 367.109278 656.766238 L 367.000682 660.764756 L 366.896009 664.763386 L 366.791335 668.762016 L 366.686662 672.760646 L 366.581989 676.759277 L 366.477316 680.757907 L 366.372642 684.756537 L 366.267969 688.755167 L 366.163296 692.753797 L 366.058623 696.752428 L 365.953949 700.751058 L 365.849276 704.749688 L 365.744603 708.748318 L 365.639929 712.746948 L 365.511246 716.744875 L 365.381584 720.742773 L 365.251923 724.740671 L 365.122261 728.738569 L 364.967894 732.735536 L 364.796250 736.731851 L 364.624606 740.728167 L 364.452962 744.724482 L 364.281318 748.720798 L 364.109674 752.717114 L 363.938031 756.713429 L 363.766387 760.709745 L 363.620080 764.116140" fill="none" id="5" stroke="black" stroke-width="0.5" /><path d="M 67.557090 145.171260 L 67.685170 149.164607 L 68.099593 153.143081 L 68.680171 157.099774 L 69.305167 161.050645 L 69.930164 165.001516 L 70.515418 168.958341 L 71.075713 172.918905 L 71.604466 176.883582 L 72.078509 180.855393 L 72.552552 184.827204 L 73.026595 188.799015 L 73.500637 192.770826 L 73.901889 196.750382 L 74.274098 200.733027 L 74.646307 204.715671 L 75.018516 208.698316 L 75.287469 212.689126 L 75.545828 216.680774 L 75.804188 220.672421 L 76.062547 224.664069 L 76.320907 228.655717 L 76.579266 232.647364 L 76.837625 236.639012 L 77.095985 240.630659 L 77.354344 244.622307 L 77.612703 248.613954 L 77.871063 252.605602 L 78.129422 256.597250 L 78.348163 260.591186 L 78.551200 264.586030 L 78.754238 268.580873 L 78.957275 272.575717 L 79.160313 276.570561 L 79.363350 280.565404 L 79.566387 284.560248 L 79.769425 288.555092 L 79.972462 292.549935 L 80.175499 296.544779 L 80.378537 300.539623 L 80.581574 304.534466 L 80.784611 308.529310 L 80.987649 312.524154 L 81.190686 316.518997 L 81.393723 320.513841 L 81.596761 324.508685 L 81.799798 328.503528 L 82.002835 332.498372 L 82.197167 336.493638 L 82.382094 340.489361 L 82.567020 344.485084 L 82.751947 348.480807 L 82.904154 352.477896 L 83.052889 356.475130 L 83.201623 360.472364 L 83.350358 364.469597 L 83.499092 368.466831 L 83.647827 372.464065 L 83.796561 376.461299 L 83.938021 380.458780 L 84.060839 384.456894 L 84.183656 388.455008 L 84.306474 392.453122 L 84.429291 396.451236 L 84.552109 400.449350 L 84.674926 404.447464 L 84.797744 408.445578 L 84.920561 412.443692 L 85.043379 416.441806 L 85.166196 420.439920 L 85.289014 424.438034 L 85.400103 428.436433 L 85.471422 432.435797 L 85.542742 436.435161 L 85.614061 440.434525 L 85.685381 444.433889 L 85.756700 448.433254 L 85.828020 452.432618 L 85.899339 456.431982 L 85.970658 460.431346 L 86.041978 464.430710 L 86.113297 468.430074 L 86.184617 472.429438 L 86.255936 476.428803 L 86.327256 480.428167 L 86.398575 484.427531 L 86.469895 488.426895 L 86.541214 492.426259 L 86.612632 496.425621 L 86.705750 500.424537 L 86.798868 504.423453 L 86.891986 508.422369 L 86.985104 512.421285 L 87.078222 516.420201 L 87.171340 520.419117 L 87.264458 524.418033 L 87.357576 528.416949 L 87.450694 532.415865 L 87.551203 536.414601 L 87.652795 540.413311 L 87.754387 544.412020 L 87.855980 548.410730 L 87.957572 552.409440 L 88.059164 556.408149 L 88.160757 560.406859 L 88.262349 564.405569 L 88.363942 568.404278 L 88.465534 572.402988 L 88.567126 576.401698 L 88.668719 580.400407 L 88.770311 584.399117 L 88.871903 588.397827 L 88.973496 592.396536 L 89.075088 596.395246 L 89.176680 600.393956 L 89.278273 604.392665 L 89.379865 608.391375 L 89.481458 612.390085 L 89.583050 616.388794 L 89.684642 620.387504 L 89.786235 624.386214 L 89.887834 628.384923 L 90.015513 632.382885 L 90.143192 636.380847 L 90.270871 640.378808 L 90.398551 644.376770 L 90.526230 648.374732 L 90.653909 652.372694 L 90.781588 656.370655 L 90.909267 660.368617 L 91.036946 664.366579 L 91.169114 668.364378 L 91.330534 672.361120 L 91.491953 676.357862 L 91.653373 680.354603 L 91.814793 684.351345 L 91.976212 688.348086 L 92.137632 692.344828 L 92.299052 696.341570 L 92.460471 700.338311 L 92.621891 704.335053 L 92.783311 708.331795 L 92.944730 712.328536 L 93.106150 716.325278 L 93.267570 720.322020 L 93.428989 724.318761 L 93.603082 728.314951 L 93.789895 732.310586 L 93.976709 736.306221 L 94.163522 740.301856 L 94.350335 744.297491 L 94.537148 748.293127 L 94.723962 752.288762 L 94.910775 756.284397 L 95.097588 760.280032 L 95.285717 764.275602 L 95.495348 768.270105 L 95.704979 772.264608 L 95.914609 776.259112 L 96.124240 780.253615 L 96.333871 784.248118 L 96.543501 788.242621 L 96.753132 792.237124 L 96.962763 796.231627 L 97.172393 800.226130 L 97.382024 804.220633 L 97.591655 808.215136 L 97.801285 812.209639 L 98.010916 816.204143 L 98.220546 820.198646 L 98.430177 824.193149 L 98.639808 828.187652 L 98.849438 832.182155 L 99.059069 836.176658 L 99.268700 840.171161 L 99.478330 844.165664 L 99.687961 848.160167 L 99.897592 852.154670 L 100.107222 856.149174 L 100.316853 860.143677 L 100.526484 864.138180 L 100.736114 868.132683 L 100.945745 872.127186 L 101.155376 876.121689 L 101.365006 880.116192 L 101.574637 884.110695 L 101.784268 888.105198 L 101.993898 892.099701 L 102.203529 896.094204 L 102.413160 900.088708 L 102.622790 904.083211 L 102.832421 908.077714 L 103.042052 912.072217 L 103.251682 916.066720 L 103.461313 920.061223 L 103.670944 924.055726 L 103.872050 927.887800" fill="none" id="6" stroke="black" stroke-width="0.5" /><path d="M 40.501970 268.761810 L 44.261844 267.396764 L 47.982090 265.929046 L 51.684098 264.414076 L 55.386106 262.899107 L 59.088115 261.384137 L 62.772748 259.828050 L 66.438561 258.227563 L 70.045749 256.498924 L 73.652937 254.770284 L 77.260125 253.041645 L 80.836129 251.250121 L 84.395442 249.424938 L 87.974831 247.639636 L 91.560953 245.867708 L 95.147076 244.095781 L 98.733198 242.323854 L 102.319320 240.551926 L 105.905443 238.779999 L 109.491565 237.008072 L 113.088736 235.258773 L 116.691351 233.520622 L 120.293966 231.782471 L 123.857737 229.966522 L 127.411941 228.131411 L 130.966145 226.296300 L 134.541961 224.503808 L 138.122649 222.720924 L 141.703337 220.938041 L 145.270478 219.128340 L 148.830306 217.304162 L 152.390133 215.479983 L 155.939906 213.636657 L 159.462438 211.741463 L 162.984971 209.846268 L 166.507504 207.951073 L 170.030037 206.055878 L 173.552569 204.160684 L 177.075102 202.265489 L 180.597635 200.370294 L 184.167715 198.566738 L 187.745424 196.777883 L 191.323133 194.989029 L 194.900841 193.200174 L 198.478550 191.411320 L 202.056259 189.622466 L 205.633968 187.833611 L 209.211676 186.044757 L 212.789385 184.255902 L 216.367094 182.467048 L 219.944803 180.678194 L 223.522511 178.889339 L 227.126712 177.155308 L 230.751444 175.463766 L 234.376177 173.772224 L 238.000910 172.080682 L 241.605651 170.347770 L 245.183360 168.558915 L 248.761068 166.770061 L 252.338777 164.981206 L 255.916486 163.192352 L 259.580590 161.588519 L 263.248956 159.993811 L 266.917322 158.399103 L 270.585687 156.804395 L 274.201675 155.097705 L 277.777086 153.304262 L 281.352498 151.510820 L 284.927909 149.717378 L 288.503320 147.923935 L 292.078731 146.130493 L 295.654142 144.337051 L 299.229553 142.543609 L 302.804964 140.750166 L 306.437661 139.078828 L 310.102291 137.475552 L 313.766920 135.872277 L 317.431549 134.269002 L 321.083660 132.638148 L 324.702934 130.934960 L 328.322209 129.231772 L 331.941484 127.528583 L 335.560759 125.825395 L 338.634252 125.275659 L 342.281300 123.632782 L 345.928347 121.989904 L 349.575395 120.347027 L 353.222442 118.704150 L 356.869490 117.061273 L 360.516537 115.418396 L 364.163584 113.775519 L 367.810632 112.132642 L 371.431575 110.434808 L 375.009284 108.645953 L 378.586992 106.857099 L 382.164701 105.068244 L 385.742410 103.279390 L 389.429547 101.730959 L 393.128260 100.207960 L 396.826972 98.684961 L 400.525684 97.161962 L 403.875911 96.495610 L 407.528106 94.864209 L 411.180302 93.232808 L 414.832497 91.601406 L 418.484692 89.970005 L 422.136887 88.338604 L 425.789083 86.707203 L 429.441278 85.075802 L 433.093473 83.444400 L 436.747919 81.818090 L 440.412548 80.214815 L 444.077178 78.611539 L 447.741807 77.008264 L 451.406436 75.404989 L 455.071066 73.801713 L 458.735695 72.198438 L 462.400324 70.595163 L 466.064954 68.991887 L 469.744210 67.916029 L 473.384923 66.259162 L 477.025636 64.602294 L 480.666349 62.945427 L 484.307062 61.288559 L 487.947775 59.631692 L 491.588488 57.974825 L 495.229200 56.317957 L 498.869913 54.661090 L 502.499978 52.981117 L 506.124710 51.289575 L 509.749443 49.598033 L 513.374175 47.906491 L 515.998040 47.990160" fill="none" id="7" stroke="black" stroke-width="0.5" /><path d="M 172.061030 753.887800 L 169.937007 755.216942 L 173.346298 753.124878 L 176.799619 751.106715 L 180.237393 749.064079 L 183.571545 746.854231 L 186.905697 744.644383 L 190.254944 742.457804 L 193.632076 740.314215 L 197.009209 738.170625 L 200.386341 736.027035 L 203.763474 733.883446 L 207.034645 731.582066 L 210.296754 729.267192 L 213.558864 726.952318 L 216.820974 724.637444 L 220.083083 722.322570 L 223.345437 720.008057 L 226.700627 717.830283 L 230.055817 715.652508 L 233.411007 713.474734 L 236.798068 711.347927 L 240.224902 709.284723 L 243.651735 707.221518 L 247.078569 705.158314 L 250.505402 703.095110 L 253.932236 701.031906 L 257.359069 698.968701 L 260.782376 696.899725 L 264.181827 694.791708 L 267.581277 692.683691 L 270.980728 690.575674 L 274.380179 688.467658 L 277.779629 686.359641 L 281.179080 684.251624 L 284.619782 682.211669 L 288.061463 680.173328 L 291.534236 678.189426 L 295.010536 676.211991 L 298.441650 674.155913 L 301.800336 671.986853 L 305.101084 669.727414 L 308.294216 667.348622 L 308.029530 667.336620" fill="none" id="8" stroke="black" stroke-width="0.5" /><path d="M 143.368110 744.320870 L 145.420858 746.315850 L 148.926512 748.242087 L 152.458600 750.118190 L 156.028515 751.922547 L 159.598430 753.726904 L 163.173461 755.520917 L 166.774451 757.262430 L 170.375441 759.003944 L 173.976431 760.745458 L 177.577421 762.486972 L 181.183055 764.218503 L 184.834727 765.851075 L 188.486399 767.483647 L 192.138071 769.116219 L 195.853127 770.598862 L 199.572224 772.071141 L 203.316275 773.479006 L 207.060326 774.886870 L 210.580710 776.210630" fill="none" id="9" stroke="black" stroke-width="0.5" /><path d="M 225.950790 685.974410 L 225.091244 686.894145 L 228.617165 688.783028 L 232.282613 690.383135 L 235.988462 691.888190 L 239.700647 693.378050 L 243.412833 694.867910 L 247.125018 696.357770 L 250.852784 697.807984 L 254.586042 699.244223 L 258.319300 700.680462 L 262.035016 702.160684 L 265.731941 703.688016 L 269.428866 705.215348 L 273.125791 706.742680 L 276.822717 708.270012 L 280.546040 709.729661 L 284.300816 711.108666 L 288.096143 712.370541 L 290.895670 713.281500" fill="none" id="10" stroke="black" stroke-width="0.5" /><path d="M 300.029530 648.746070 L 303.650107 650.220280 L 307.485793 651.351509 L 311.344525 652.405165 L 315.132717 653.686037 L 318.909739 655.002891 L 322.686761 656.319745 L 326.463784 657.636598 L 330.229082 658.985226 L 333.956265 660.437159 L 337.683447 661.889093 L 341.391179 663.388699 L 345.070259 664.958530 L 348.749339 666.528362 L 352.428419 668.098193 L 356.172978 669.504579 L 359.959479 670.791025 L 361.257880 671.210630" fill="none" id="11" stroke="black" stroke-width="0.5" /><path d="M 144.627960 740.163390 L 147.723045 738.762177 L 151.137677 736.678842 L 154.553229 734.597053 L 158.015336 732.593603 L 161.465105 730.569468 L 164.872899 728.474966 L 168.280694 726.380465 L 171.688488 724.285963 L 175.096282 722.191461 L 178.509503 720.106039 L 181.968060 718.096465 L 185.426617 716.086891 L 188.885173 714.077318 L 192.392786 712.155337 L 195.913277 710.256352 L 199.365071 708.235305 L 202.815170 706.211246 L 206.265270 704.187188 L 209.715369 702.163129 L 213.165469 700.139070 L 216.615568 698.115011 L 220.065668 696.090953 L 223.515767 694.066894 L 227.000209 692.102931 L 230.495508 690.157967 L 233.990807 688.213003 L 237.486106 686.268039 L 240.981405 684.323075 L 244.476704 682.378111 L 247.972003 680.433146 L 251.461157 678.477323 L 254.928217 676.482456 L 258.395277 674.487590 L 261.862337 672.492723 L 265.329398 670.497856 L 268.796458 668.502989 L 272.279523 666.536270 L 275.766735 664.576844 L 279.253947 662.617417 L 282.741159 660.657990 L 286.228371 658.698563 L 289.721337 656.749523 L 293.231691 654.831864 L 296.742045 652.914205 L 300.252399 650.996546 L 303.762753 649.078888 L 307.273107 647.161229 L 310.783461 645.243570 L 314.293815 643.325911 L 317.804169 641.408252 L 321.314523 639.490594 L 324.824877 637.572935 L 328.335230 635.655276 L 331.845584 633.737617 L 335.355938 631.819959 L 338.866292 629.902300 L 342.376646 627.984641 L 345.887000 626.066982 L 348.218510 624.793310" fill="none" id="12" stroke="black" stroke-width="0.5" /><path d="M 200.407480 769.171260 L 203.474929 767.463237 L 206.911086 765.416430 L 210.278174 763.257098 L 213.645263 761.097766 L 217.055223 759.007938 L 220.495991 756.968056 L 223.988091 755.018790 L 227.463142 753.039795 L 230.895487 750.985773 L 234.327832 748.931751 L 237.715956 746.805825 L 241.097546 744.669274 L 244.479137 742.532724 L 247.890329 740.443953 L 251.309031 738.367302 L 254.727733 736.290652 L 258.146435 734.214001 L 261.565137 732.137351 L 264.962223 730.026850 L 268.284368 727.798993 L 271.606514 725.571135 L 274.928660 723.343278 L 278.251211 721.116035 L 281.601444 718.930642 L 284.951677 716.745249 L 288.344217 714.626552 L 291.748901 712.526997 L 295.153584 710.427442 L 298.558267 708.327887 L 301.962951 706.228332 L 305.367634 704.128777 L 308.772318 702.029223 L 312.177001 699.929668 L 315.581685 697.830113 L 318.986368 695.730558 L 322.349148 693.564908 L 325.700528 691.381274 L 329.051908 689.197641 L 332.403288 687.014008 L 335.754667 684.830375 L 339.106047 682.646742 L 342.457427 680.463108 L 345.808807 678.279475 L 349.160186 676.095842 L 352.511566 673.912209 L 355.875835 671.748866 L 359.276708 669.643144 L 362.677580 667.537422 L 366.078453 665.431700 L 369.479326 663.325978 L 372.880198 661.220256 L 376.306501 659.156235 L 379.735686 657.096941 L 383.164870 655.037647 L 386.594055 652.978353 L 390.023239 650.919058 L 393.431031 648.824821 L 396.824479 646.707155 L 400.217927 644.589489 L 403.611375 642.471822 L 407.004823 640.354156 L 407.903550 639.793310" fill="none" id="13" stroke="black" stroke-width="0.5" /><path d="M 165.919300 150.486220 L 168.767224 151.342776 L 172.356344 153.108623 L 175.990969 154.772474 L 179.702587 156.263746 L 183.427019 157.721247 L 187.193624 159.067609 L 190.982037 160.345874 L 194.830017 161.438142 L 198.677997 162.530410 L 202.557752 163.503035 L 206.440623 164.463927 L 210.323494 165.424819 L 214.206365 166.385711 L 218.110469 167.255791 L 222.016839 168.116182 L 225.923209 168.976573 L 229.840405 169.785586 L 233.761835 170.574500 L 237.683265 171.363414 L 241.604695 172.152328 L 245.526125 172.941242 L 249.447556 173.730156 L 253.368986 174.519070 L 257.288654 175.316535 L 261.202529 176.142117 L 265.116403 176.967700 L 269.030278 177.793282 L 272.944152 178.618864 L 276.858027 179.444447 L 280.773300 180.263306 L 284.691681 181.067230 L 288.610061 181.871153 L 292.528442 182.675076 L 296.446823 183.479000 L 300.365203 184.282923 L 304.283584 185.086847 L 308.201965 185.890770 L 312.120345 186.694693 L 316.038726 187.498617 L 319.957107 188.302540 L 323.865866 189.151556 L 327.771108 190.017052 L 331.676350 190.882549 L 335.581592 191.748045 L 339.476429 192.658480 L 343.364643 193.597515 L 347.252858 194.536549 L 351.141073 195.475584 L 355.029288 196.414619 L 358.917502 197.353654 L 360.281500 197.683070" fill="none" id="14" stroke="black" stroke-width="0.5" /><path d="M 319.966540 108.391730 L 323.186644 110.254737 L 327.026098 111.373432 L 330.914842 112.305927 L 334.837077 113.090828 L 338.759313 113.875729 L 342.681548 114.660629 L 346.615831 115.382001 L 350.553110 116.087575 L 354.490389 116.793150 L 358.427668 117.498725 L 362.364947 118.204299 L 366.302225 118.909874 L 370.227038 119.678776 L 374.137978 120.518149 L 378.048918 121.357523 L 381.945608 122.260518 L 385.840928 123.169627 L 389.730798 124.100879 L 393.603021 125.103818 L 397.475245 126.106757 L 401.325755 127.187376 L 405.156812 128.337595 L 408.987869 129.487814 L 412.818926 130.638033 L 416.649983 131.788252 L 419.368110 132.604330" fill="none" id="15" stroke="black" stroke-width="0.5" /><path d="M 370.832680 105.438980 L 366.834012 105.478885 L 362.839776 105.651580 L 358.844451 105.623381 L 358.580710 105.533470" fill="none" id="16" stroke="black" stroke-width="0.5" /><path d="M 243.651580 109.431100 L 243.494100 113.421759 L 243.494100 117.421759 L 243.494100 121.421759 L 243.641692 125.418801 L 243.801963 129.415589 L 243.922196 133.413626 L 244.011312 137.412633 L 244.064754 141.412075 L 244.073178 145.412066 L 244.081602 149.412057 L 244.090026 153.412048 L 244.126595 157.411840 L 244.175004 161.411547 L 244.223413 165.411254 L 244.271822 169.410961 L 244.351749 173.410131 L 244.439553 177.409167 L 244.527357 181.408204 L 244.615161 185.407240 L 244.762542 189.404448 L 244.920089 193.401344 L 245.077636 197.398240 L 245.235183 201.395136 L 245.420112 205.390586 L 245.604340 208.171260" fill="none" id="17" stroke="black" stroke-width="0.5" /><path d="M 200.029530 127.218510 L 196.966145 128.650512 L 195.139226 132.204735 L 193.382115 135.797542 L 191.557628 139.357212 L 189.733140 142.916881 L 188.099266 146.567742 L 186.472525 150.222015 L 184.845784 153.876289 L 183.219044 157.530562 L 181.592303 161.184835 L 179.965562 164.839109 L 178.338821 168.493382 L 176.712080 172.147655 L 175.178972 175.842113 L 173.650970 179.538761 L 172.122968 183.235410 L 170.594966 186.932058 L 169.066964 190.628707 L 167.539870 194.325720 L 166.088403 198.053084 L 164.636936 201.780448 L 163.209502 205.516875 L 161.851998 209.279240 L 160.611239 213.081939 L 159.382374 216.888106 L 158.385016 220.761770 L 157.667330 223.549210" fill="none" id="18" stroke="black" stroke-width="0.5" /><path d="M 144.627960 743.116140 L 145.686970 743.812965 L 148.893081 746.202159 L 152.258099 748.362955 L 155.674016 750.443801 L 159.175938 752.376815 L 162.677860 754.309829 L 166.179782 756.242843 L 169.675559 758.186787 L 173.147058 760.173921 L 176.618556 762.161054 L 180.090055 764.148187 L 183.576504 766.108259 L 187.127390 767.947909 L 190.744899 769.654846 L 194.362407 771.361784 L 197.965393 773.098956 L 201.559048 774.855557 L 204.953187 776.480650 L 202.360240 774.344490" fill="none" id="19" stroke="black" stroke-width="0.5" /><path d="M 206.045280 772.053150 L 203.065756 773.401844 L 206.657073 771.680796 L 210.168654 769.765385 L 213.609202 767.726879 L 217.024681 765.644932 L 220.466580 763.607862 L 223.944291 761.631622 L 227.422003 759.655382 L 230.875709 757.637654 L 234.322284 755.607600 L 237.768860 753.577546 L 241.198759 751.520086 L 244.585803 749.392190 L 247.972846 747.264295 L 251.344427 745.112253 L 254.694305 742.926317 L 258.044183 740.740380 L 261.389352 738.547415 L 264.685519 736.281299 L 267.981686 734.015182 L 271.277853 731.749066 L 274.554621 729.455207 L 277.814397 727.137048 L 281.038175 724.769476 L 284.244088 722.377379 L 287.509225 720.067508 L 290.793837 717.784676 L 294.078449 715.501844 L 297.363061 713.219011 L 300.647673 710.936179 L 303.932285 708.653347 L 307.198137 706.343904 L 310.451792 704.017162 L 313.705447 701.690420 L 316.959102 699.363678 L 320.212757 697.036937 L 323.466413 694.710195 L 326.703777 692.361125 L 329.912463 689.972750 L 333.121149 687.584376 L 336.329836 685.196002 L 339.516703 682.778912 L 342.677494 680.327504 L 345.838284 677.876096 L 348.999075 675.424687 L 349.163390 675.297250" fill="none" id="20" stroke="black" stroke-width="0.5" /><path d="M 364.816930 669.462600 L 361.537079 671.699446 L 358.362280 674.132685 L 355.187482 676.565924 L 351.919437 678.872343 L 348.650207 681.177150 L 345.380977 683.481957 L 342.111747 685.786764 L 338.828453 688.070823 L 335.476696 690.253877 L 332.124938 692.436930 L 328.754588 694.590551 L 325.343570 696.679799 L 321.911534 698.734123 L 318.468266 700.769781 L 315.024998 702.805439 L 311.579138 704.836614 L 308.096619 706.804368 L 304.614099 708.772122 L 301.131579 710.739876 L 297.649059 712.707630 L 294.166539 714.675384 L 290.687190 716.648555 L 287.265957 718.721033 L 283.844724 720.793511 L 280.423491 722.865989 L 277.002258 724.938468 L 273.581025 727.010946 L 270.159792 729.083424 L 266.738559 731.155902 L 263.317326 733.228380 L 259.896093 735.300858 L 256.474860 737.373336 L 253.053628 739.445814 L 249.632395 741.518292 L 246.211162 743.590770 L 242.737188 745.573223 L 239.256499 747.544215 L 235.775811 749.515207 L 232.295123 751.486199 L 228.807605 753.444999 L 225.308979 755.383972 L 221.810353 757.322946 L 218.311727 759.261919 L 214.818269 761.209949 L 211.369039 763.235488 L 207.919808 765.261026 L 204.470577 767.286565 L 201.021346 769.312104 L 197.572115 771.337642 L 194.122885 773.363181 L 193.698820 773.612210" fill="none" id="21" stroke="black" stroke-width="0.5" /><path d="M 310.234260 141.462600 L 311.550622 145.197613 L 312.571277 149.065184 L 313.330142 152.991678 L 314.064313 156.923725 L 314.798484 160.855772 L 315.532655 164.787819 L 316.266826 168.719865 L 317.000997 172.651912 L 317.722170 176.586286 L 318.397558 180.528855 L 319.072945 184.471424 L 319.748332 188.413994 L 320.423719 192.356563 L 321.099106 196.299132 L 321.728981 200.249067 L 322.331549 204.203420 L 322.934117 208.157774 L 323.536685 212.112127 L 324.124661 216.068587 L 324.664963 220.031928 L 325.205266 223.995269 L 325.289370 224.612210" fill="none" id="22" stroke="black" stroke-width="0.5" /></svg>