<?xml version="1.0" encoding="utf-8" ?>
<svg baseProfile="full" height="468.67703" version="1.1" viewBox="0,0,234.67703,468.67703" width="234.67703" xmlns="http://www.w3.org/2000/svg" xmlns:ev="http://www.w3.org/2001/xml-events" xmlns:xlink="http://www.w3.org/1999/xlink"><defs><style type="text/css"><![CDATA[
	.background { fill: white; }
	.line { stroke: firebrick; stroke-width: .1mm; }
	.blacksquare { fill: indigo; }
	.whitesquare { fill: white; }
]]></style></defs><rect class="background" height="100%" width="100%" x="0" y="0" /><path d="M 13.217215 98.560025 L 14.931221 95.071981 L 17.305483 91.852838 L 19.924033 88.832588 L 22.597675 85.857569 L 25.445864 83.049043 L 28.294054 80.240517 L 31.239611 77.537694 L 34.272105 74.929251 L 37.304600 72.320808 L 40.368400 69.750743 L 43.533010 67.304268 L 46.697621 64.857793 L 49.862231 62.411318 L 53.051776 59.998047 L 56.283626 57.641111 L 59.515476 55.284175 L 62.747326 52.927239 L 65.979176 50.570303 L 69.365845 48.442041 L 72.754489 46.316696 L 76.143133 44.191351 L 79.531777 42.066006 L 82.970058 40.026813 L 86.508331 38.161170 L 90.046604 36.295526 L 93.584876 34.429882 L 97.123149 32.564238 L 100.732481 30.851613 L 104.440765 29.352069 L 108.149048 27.852525 L 111.857332 26.352981 L 115.565616 24.853437 L 119.329661 23.511703 L 123.156836 22.348634 L 126.984011 21.185565 L 130.811186 20.022495 L 134.638361 18.859426 L 138.522428 17.923557 L 142.446085 17.145793 L 146.369742 16.368028 L 150.293399 15.590264 L 154.217055 14.812500 L 158.193148 14.390270 L 162.174278 14.002193 L 166.155408 13.614116 L 170.136538 13.226039 L 174.132535 13.143695 L 178.132535 13.143695 L 182.132535 13.143695 L 186.122237 13.326544 L 190.096947 13.775635 L 194.071657 14.224726 L 197.834011 15.518055 L 201.548171 17.002985 L 205.154781 18.718170 L 208.677292 20.613406 L 212.036108 22.773114 L 215.090825 24.930275" fill="none" id="1" stroke="black" stroke-width="0.67703" /><path d="M 78.898585 445.900365 L 79.405708 448.001242 L 81.534794 451.366342 L 83.865868 451.035286 L 85.337925 451.575385" fill="none" id="2" stroke="black" stroke-width="0.67703" /><path d="M 174.200955 401.373275 L 176.454725 403.350370 L 176.412991 407.344705 L 176.132755 408.319445 L 175.488825 408.066895" fill="none" id="3" stroke="black" stroke-width="0.67703" /><path d="M 18.046725 235.342555 L 18.046725 239.342555 L 18.046725 243.342555 L 18.262225 247.334346 L 18.566534 251.322754 L 18.941785 255.304674 L 19.365912 259.282125 L 19.790039 263.259576 L 20.280310 267.228969 L 20.823494 271.191916 L 21.366678 275.154864 L 21.909862 279.117811 L 22.501394 283.073389 L 23.163549 287.018202 L 23.825704 290.963015 L 24.487860 294.907828 L 25.150015 298.852641 L 25.821023 302.795790 L 26.636519 306.711779 L 27.452015 310.627767 L 28.267511 314.543756 L 29.083007 318.459744 L 29.898503 322.375733 L 30.713999 326.291722 L 31.636523 330.183345 L 32.596507 334.066440 L 33.556492 337.949536 L 34.516476 341.832631 L 35.476461 345.715726 L 36.436445 349.598822 L 37.401412 353.480581 L 38.512499 357.323170 L 39.623586 361.165758 L 40.734673 365.008347 L 41.845760 368.850935 L 42.956847 372.693523 L 44.067934 376.536112 L 45.218867 380.366565 L 46.438201 384.176188 L 47.657534 387.985811 L 48.876867 391.795434 L 50.096200 395.605057 L 51.315533 399.414680 L 52.583421 403.207589 L 53.967401 406.960534 L 55.351382 410.713479 L 56.735362 414.466425 L 58.119342 418.219370 L 59.544832 421.955497 L 61.163526 425.613342 L 62.782219 429.271187 L 64.400913 432.929032 L 66.019607 436.586877 L 67.880288 440.127760 L 69.741011 443.668623 L 71.601734 447.209486 L 73.790398 450.548624 L 76.111588 453.806243 L 78.464201 457.038176 L 81.194862 459.961101 L 83.925523 462.884026 L 86.916801 465.534396 L 89.959022 468.131488 L 90.167445 468.309415" fill="none" id="4" stroke="black" stroke-width="0.67703" /><path d="M 210.583275 164.041025 L 210.182303 168.019773 L 209.928948 172.011667 L 209.768158 176.008434 L 209.603795 180.005031 L 209.385587 183.999075 L 209.167379 187.993119 L 208.955875 191.987478 L 208.797954 195.984359 L 208.640034 199.981241 L 208.482113 203.978122 L 208.318869 207.974688 L 208.002742 211.962176 L 207.686614 215.949664 L 207.370486 219.937153 L 207.054358 223.924641 L 206.738231 227.912129 L 206.422103 231.899618 L 206.105975 235.887106 L 205.789847 239.874594 L 205.473720 243.862083 L 205.157592 247.849571 L 204.841464 251.837059 L 204.510728 255.823357 L 204.177010 259.809412 L 203.843291 263.795466 L 203.509573 267.781521 L 203.175855 271.767576 L 202.842136 275.753631 L 202.497647 279.738592 L 202.023888 283.710437 L 201.550128 287.682282 L 201.076369 291.654127 L 200.602610 295.625972 L 200.128851 299.597817 L 199.655092 303.569662 L 199.181333 307.541507 L 198.707574 311.513352 L 198.233815 315.485197 L 197.760055 319.457042 L 197.286296 323.428887 L 196.812537 327.400732 L 196.338778 331.372577 L 195.784763 335.333143 L 195.145487 339.281729 L 194.506211 343.230314 L 193.866936 347.178900 L 193.227660 351.127485 L 192.588384 355.076070 L 191.852483 359.006235 L 190.994177 362.913064 L 190.135871 366.819892 L 189.277565 370.726721 L 188.419260 374.633550 L 187.516747 378.529263 L 186.425135 382.377430 L 185.333523 386.225596 L 184.241911 390.073762 L 183.150300 393.921928 L 181.903090 397.721444 L 180.608156 401.506037 L 179.313222 405.290630 L 178.019903 409.075765 L 176.770143 412.875515 L 175.520384 416.675265 L 174.232920 420.461570 L 172.796386 424.194715 L 171.947175 426.401575" fill="none" id="5" stroke="black" stroke-width="0.67703" /><path d="M 166.795695 2.084675 L 170.615549 3.271567 L 171.947175 3.685325" fill="none" id="6" stroke="black" stroke-width="0.67703" /><path d="M 26.417885 101.324775 L 24.263371 102.992149 L 24.486075 102.298613 L 24.808045 102.634395" fill="none" id="8" stroke="black" stroke-width="0.67703" /><path d="M 208.007535 23.475135 L 210.716303 25.221295 L 210.597416 22.602055 L 211.605897 23.053680 L 210.261305 25.803355" fill="none" id="9" stroke="black" stroke-width="0.67703" /><path d="M 223.461975 24.784755 L 226.037715 25.793054 L 224.749845 25.221295" fill="none" id="10" stroke="black" stroke-width="0.67703" /><path d="M 198.026545 17.363575 L 199.632186 19.476368 L 200.256598 19.255255 L 200.280315 19.255255" fill="none" id="11" stroke="black" stroke-width="0.67703" /><path d="M 47.989705 11.834075 L 46.906626 10.669965 L 45.207077 12.405602 L 48.025033 13.434715 L 50.243475 13.434715" fill="none" id="12" stroke="black" stroke-width="0.67703" /><path d="M 176.454725 42.246355 L 177.691864 40.446396 L 176.676241 41.082255 L 179.352435 39.481605" fill="none" id="13" stroke="black" stroke-width="0.67703" /><path d="M 2.592295 96.522835 L 0.982455 95.886839 L 1.445342 91.944994 L 2.556842 88.104698 L 3.719355 84.280711 L 4.563380 80.370772 L 5.516232 76.486731 L 6.523887 72.615732 L 6.777865 71.640055" fill="none" id="14" stroke="black" stroke-width="0.67703" /><path d="M 20.944435 22.311035 L 20.853325 20.913543 L 24.448911 19.168507 L 28.165924 17.691300 L 31.922719 16.321871 L 35.737918 15.120099 L 39.553117 13.918327 L 43.389939 12.790365 L 47.250516 11.743491 L 51.136034 10.794634 L 55.029870 9.879388 L 58.931492 8.997717 L 62.833114 8.116045 L 66.757889 7.357492 L 70.688857 6.631870 L 74.391035 5.868025" fill="none" id="15" stroke="black" stroke-width="0.67703" /><path d="M 18.046725 21.583465 L 21.861009 20.389429 L 25.617758 19.017167 L 29.406045 17.733078 L 33.194331 16.448990 L 36.992575 15.196014 L 40.822507 14.042056 L 44.659227 12.911817 L 48.519804 11.864943 L 52.380381 10.818069 L 56.240958 9.771196 L 60.101536 8.724322 L 64.000043 7.837748 L 67.920394 7.043488 L 71.845310 6.273249 L 75.783714 5.573981 L 79.722117 4.874713 L 83.700592 4.464162 L 87.680570 4.064439 L 91.669190 3.768014 L 95.660254 3.500787 L 99.656300 3.350808 L 103.655646 3.278509 L 107.655378 3.248785 L 111.655378 3.248785 L 115.655378 3.248785 L 119.655378 3.248785 L 123.330095 3.248785" fill="none" id="16" stroke="black" stroke-width="0.67703" /><path d="M 49.277575 9.214835 L 53.256639 9.001020 L 57.180666 8.225127 L 61.104693 7.449234 L 65.040402 6.736512 L 68.982402 6.057809 L 72.952899 5.575731 L 76.926413 5.117728 L 80.913449 4.795955 L 84.900486 4.474183 L 88.896641 4.318517 L 92.894942 4.201932 L 96.893658 4.104708 L 100.893282 4.049933 L 104.892907 3.995157 L 108.892779 3.976355 L 112.892779 3.976355 L 116.892779 3.976355 L 120.892779 3.976355 L 124.892779 3.976355 L 128.892779 3.976355 L 132.892779 3.976355 L 136.891419 4.007701 L 140.876396 4.354046 L 144.861374 4.700391 L 148.803811 5.375713 L 152.734722 6.110157 L 156.636345 6.991826 L 160.490249 8.058447 L 164.359370 9.069663 L 168.231934 10.069936 L 172.159323 10.798930 L 174.200955 10.815475" fill="none" id="17" stroke="black" stroke-width="0.67703" /><path d="M 47.667735 12.998175 L 51.653651 12.822528 L 55.599939 12.170338 L 59.529423 11.422575 L 63.475839 10.775969 L 67.434652 10.203428 L 71.403038 9.706378 L 75.379447 9.272588 L 79.356901 8.849001 L 83.338645 8.467279 L 87.320390 8.085557 L 91.308956 7.796362 L 95.303631 7.590029 L 99.298305 7.383696 L 103.296743 7.323155 L 107.296743 7.323155 L 111.296743 7.323155 L 115.296743 7.323155 L 119.296743 7.323155 L 123.296743 7.323155 L 127.296743 7.323155 L 131.296743 7.323155 L 135.296743 7.323155 L 139.266013 7.801083 L 143.233076 8.313347 L 147.199316 8.831596 L 151.157472 9.408656 L 155.115628 9.985716 L 159.070232 10.586289 L 163.022163 11.204546 L 166.969600 11.850155 L 170.911599 12.528858 L 174.861188 13.161288 L 178.813480 13.777231 L 182.774175 14.330632 L 186.767266 14.453315 L 187.401615 14.162285" fill="none" id="18" stroke="black" stroke-width="0.67703" /><path d="M 37.686745 18.818715 L 34.304696 20.953746 L 30.990370 23.183697 L 27.964706 25.790401 L 25.088198 28.569655 L 22.305681 31.438448 L 19.785727 34.541889 L 17.647416 37.918974 L 16.436895 40.791225" fill="none" id="19" stroke="black" stroke-width="0.67703" /><path d="M 50.243475 9.505855 L 46.901428 11.683730 L 43.732187 14.120492 L 40.389251 16.312165 L 37.230876 18.766296 L 33.946727 21.049793 L 30.775084 23.484913 L 27.728624 26.073709 L 24.841112 28.834323 L 22.216937 31.853215 L 19.813480 35.048963 L 17.625121 38.390612 L 15.627595 41.855101 L 13.862626 45.444653 L 12.122216 49.046117 L 10.444643 52.675016 L 9.060665 56.427962 L 7.769226 60.213318 L 6.509230 64.009686 L 5.811965 66.110545" fill="none" id="20" stroke="black" stroke-width="0.67703" /><path d="M 42.516255 13.289205 L 38.731626 14.282696 L 35.403097 16.495330 L 32.073818 18.711977 L 28.967676 21.222230 L 25.974800 23.875647 L 23.022907 26.574719 L 20.110668 29.316774 L 17.572756 32.406531 L 15.249406 35.655168 L 13.184119 39.074007 L 11.484616 42.695013 L 10.001059 46.408735 L 8.809379 50.219069 L 7.815332 54.093507 L 6.779159 57.956970 L 5.966440 61.873527 L 5.268416 65.811747 L 5.168025 66.401575" fill="none" id="21" stroke="black" stroke-width="0.67703" /><path d="M 13.861155 44.283545 L 16.030111 40.922648 L 18.327547 37.648383 L 21.005040 34.677383 L 23.885217 31.903128 L 26.887396 29.260965 L 30.075296 26.853382 L 33.348550 24.554438 L 36.638524 22.284775 L 40.126891 20.328103 L 43.719403 18.569166 L 43.804125 18.527685" fill="none" id="22" stroke="black" stroke-width="0.67703" /><path d="M 62.800205 8.923805 L 58.985928 10.068804 L 55.288492 11.591164 L 51.584160 13.094812 L 47.838195 14.497574 L 44.092229 15.900336 L 40.404740 17.444798 L 36.838012 19.249909 L 33.490625 21.429199 L 30.327173 23.875548 L 27.431273 26.633510 L 26.175089 29.150155 L 29.339253 26.787489 L 32.449405 24.272145 L 35.559556 21.756800 L 38.670936 19.243131 L 42.004979 17.033119 L 45.411341 14.939869 L 48.875232 12.939504 L 52.499213 11.251133 L 56.157909 9.637443 L 59.919585 8.277372 L 63.721356 7.044272 L 67.581933 5.997398 L 71.472778 5.072349 L 75.386609 4.254089 L 79.336672 3.624007 L 83.303008 3.108134 L 87.282463 2.730764 L 91.277429 2.530148 L 95.267511 2.249174 L 99.253195 1.915897 L 103.233172 1.516177 L 107.208061 1.068760 L 111.177647 0.577339 L 113.027135 0.338515" fill="none" id="23" stroke="black" stroke-width="0.67703" /><path d="M 39.940515 16.781525 L 36.685149 19.103216 L 33.361417 21.322163 L 30.231643 23.811217 L 27.264232 26.493469 L 24.544924 29.425413 L 21.880316 32.408277 L 19.252038 35.423597 L 16.743183 38.538596 L 14.284625 41.692620 L 11.952525 44.942437 L 10.963445 46.320735" fill="none" id="24" stroke="black" stroke-width="0.67703" /><path d="M 34.145105 19.546275 L 31.178191 22.095963 L 28.519524 25.082977 L 26.057328 28.232773 L 23.829730 31.555093 L 21.602132 34.877413 L 19.453558 38.247960 L 17.517404 41.748147 L 15.637450 45.278114 L 13.828467 48.845687 L 12.166169 52.480116 L 10.660181 56.185787 L 9.400425 59.975228 L 8.334138 63.830489 L 7.462320 67.732600 L 6.777865 71.662891 L 6.777865 75.662891 L 6.777865 79.662891 L 6.777865 83.662891 L 6.777865 87.662891 L 6.777865 91.662891 L 6.740755 95.660619 L 5.879744 99.540328 L 5.811965 99.724125" fill="none" id="25" stroke="black" stroke-width="0.67703" /><path d="M 21.910335 26.239895 L 19.566673 29.458186 L 17.729812 33.010775 L 16.162166 36.688865 L 14.719699 40.419447 L 13.347205 44.176118 L 12.045403 47.958354 L 10.822040 51.766232 L 9.638453 55.587111 L 8.501626 59.422065 L 7.379619 63.261479 L 6.407220 67.140459 L 5.484521 71.032582 L 4.621161 74.938050 L 3.788782 78.850485 L 3.153780 82.797810 L 2.594405 86.758505 L 2.154108 90.734191 L 1.801504 94.717773 L 1.626385 98.711726 L 1.626385 102.711726 L 1.626385 104.817095" fill="none" id="26" stroke="black" stroke-width="0.67703" /><path d="M 12.251315 40.500195 L 10.825584 44.237479 L 9.527476 48.020624 L 8.248292 51.810570 L 6.905645 55.578109 L 5.521665 59.331054 L 4.416998 63.175230 L 3.318872 67.021543 L 2.220747 70.867855 L 1.256449 74.746995 L 0.450048 78.664867 L 0.338515 82.653508 L 0.338515 86.653508 L 0.592610 90.640158 L 2.824133 93.843081 L 5.571686 96.742191 L 4.626493 99.287585 L 4.202125 99.287585" fill="none" id="27" stroke="black" stroke-width="0.67703" /><path d="M 4.524095 83.572145 L 4.202125 79.607340 L 4.202125 75.607340 L 4.631499 71.655853 L 5.625056 67.783337 L 6.770947 63.950983 L 8.002639 60.145345 L 9.234853 56.339868 L 10.467066 52.534392 L 11.699280 48.728916 L 13.022293 44.957078 L 14.566849 41.267316 L 16.471903 37.754756 L 18.541469 34.334681 L 20.769064 31.012360 L 23.254528 27.879675 L 25.937002 24.928399 L 28.904416 22.246150 L 32.064984 19.800713 L 35.326137 17.489944 L 38.790029 15.489579 L 40.584455 14.453315" fill="none" id="28" stroke="black" stroke-width="0.67703" /><path d="M 58.614625 82.699065 L 55.065386 84.543761 L 51.534058 86.420913 L 48.081264 88.440370 L 44.672063 90.531464 L 41.313722 92.702676 L 38.060796 95.030437 L 35.017554 97.625895 L 32.275824 100.512422 L 34.995481 99.898529 L 38.484696 97.942770 L 41.987843 96.011979 L 45.490991 94.081187 L 48.994138 92.150395 L 52.564440 90.351764 L 56.189362 88.660630 L 59.814285 86.969495 L 63.455247 85.313287 L 67.100268 83.665920 L 70.745290 82.018553 L 74.419377 80.438583 L 78.119261 78.918434 L 81.819146 77.398284 L 85.519030 75.878135 L 89.246738 74.428395 L 92.986322 73.008706 L 96.725905 71.589017 L 100.465488 70.169329 L 104.213820 68.773248 L 107.975496 67.413175 L 111.737171 66.053101 L 115.498846 64.693028 L 119.260521 63.332955 L 123.043822 62.035002 L 126.836907 60.765158 L 130.629992 59.495315 L 134.423078 58.225471 L 138.215381 56.953315 L 142.001007 55.661400 L 145.786632 54.369486 L 149.572257 53.077572 L 153.357882 51.785658 L 157.136537 50.473507 L 160.914725 49.160004 L 164.692914 47.846501 L 168.449693 46.473867 L 172.193006 45.064042 L 175.935869 43.653039 L 179.665779 42.208125 L 183.376944 40.718507 L 187.021964 39.071137 L 190.683045 37.462071 L 194.412954 36.017158 L 194.484905 35.989285" fill="none" id="29" stroke="black" stroke-width="0.67703" /><path d="M 73.103165 77.460585 L 76.463617 75.290939 L 79.971873 73.381565 L 83.556731 71.607081 L 87.153385 69.856690 L 90.753511 68.113392 L 94.379221 66.427097 L 98.074642 64.896129 L 101.770064 63.365161 L 105.470035 61.845546 L 109.199943 60.400631 L 112.929852 58.955716 L 116.659761 57.510801 L 120.413692 56.131205 L 124.191031 54.815261 L 127.968370 53.499316 L 131.745709 52.183371 L 135.535180 50.903584 L 139.341747 49.674743 L 143.148314 48.445903 L 146.954881 47.217062 L 150.766829 46.005376 L 154.593281 44.839931 L 158.419733 43.674486 L 162.246186 42.509042 L 166.062053 41.310162 L 169.862045 40.061139 L 173.662038 38.812115 L 177.462030 37.563092 L 181.262022 36.314068 L 185.062014 35.065044 L 188.762733 33.553123 L 192.416627 31.930717 L 195.932802 30.023753 L 199.423150 28.070133 L 202.883411 26.063753 L 206.413257 24.185033 L 210.048237 22.533582 L 210.261305 22.456545" fill="none" id="30" stroke="black" stroke-width="0.67703" /><path d="M 186.435715 43.555975 L 187.392027 44.247542 L 190.869318 42.271033 L 194.370651 40.336953 L 197.895851 38.446907 L 201.427646 36.569031 L 204.959442 34.691154 L 208.447134 32.733561 L 209.617375 32.060425" fill="none" id="31" stroke="black" stroke-width="0.67703" /><path d="M 194.806865 38.463015 L 198.451885 36.815645 L 202.134128 35.256185 L 205.793643 33.643049 L 209.442000 32.003636 L 213.171910 30.558723 L 216.831292 28.945607 L 220.451550 27.249410 L 219.036939 26.930168 L 215.448764 28.695031 L 211.765851 30.250203 L 208.148805 31.953398 L 204.453384 33.484366 L 200.757963 35.015334 L 197.071298 36.566525 L 193.671359 37.996963 L 197.467280 36.824103 L 201.112300 35.176734 L 204.671916 33.369345 L 208.249952 31.612589 L 211.911956 30.004795 L 215.609020 28.479417 L 219.304765 26.954633 L 223.067344 25.690679 L 226.761069 24.166810 L 225.359043 23.982445 L 221.514776 25.081001 L 217.741068 26.405849 L 214.077182 28.007627 L 210.432161 29.654994 L 206.787139 31.302361 L 203.152819 32.972384 L 199.597388 34.800167 L 196.151332 36.830391 L 192.677400 38.791185 L 188.824222 39.738233 L 186.757685 40.209175" fill="none" id="33" stroke="black" stroke-width="0.67703" /><path d="M 23.198205 103.070935 L 25.966555 101.077759 L 29.525565 99.261121 L 33.132190 97.531308 L 36.738816 95.801495 L 40.345441 94.071682 L 43.984608 92.414294 L 47.672973 90.866405 L 51.361339 89.318516 L 55.049704 87.770627 L 58.738070 86.222738 L 62.455794 84.748821 L 66.201759 83.346056 L 69.947723 81.943291 L 73.716578 80.604978 L 77.508192 79.330746 L 81.299805 78.056514 L 85.094256 76.790893 L 88.900822 75.562052 L 92.707388 74.333210 L 96.513955 73.104368 L 100.340094 71.938972 L 104.177374 70.809687 L 108.014654 69.680402 L 111.851536 68.549797 L 115.675294 67.375541 L 119.499052 66.201286 L 123.322810 65.027030 L 127.146568 63.852774 L 130.970325 62.678519 L 134.794083 61.504263 L 138.608866 60.301601 L 142.413182 59.065808 L 146.217497 57.830016 L 149.973044 56.455678 L 153.712628 55.035989 L 157.429881 53.559654 L 161.132307 52.045704 L 164.728711 50.300135 L 168.248245 48.404198 L 171.633403 46.278338 L 173.557015 44.865595" fill="none" id="35" stroke="black" stroke-width="0.67703" /><path d="M 121.076315 62.036175 L 124.967262 61.322443 L 128.770122 60.083073 L 132.558409 58.798984 L 136.346696 57.514896 L 140.129705 56.215471 L 143.906038 54.896643 L 147.701165 53.633978 L 151.510716 52.414419 L 155.314171 51.176117 L 159.112379 49.921680 L 162.898407 48.632022 L 166.660082 47.271947 L 170.426909 45.926584 L 174.215196 44.642496 L 177.991428 43.325889 L 181.701368 41.830447 L 185.411308 40.335004 L 189.121247 38.839562 L 192.769981 37.200882 L 196.367202 35.452521 L 199.952061 33.678039 L 203.382272 31.624241 L 206.816811 29.582159 L 210.111153 27.313391 L 213.441090 25.099826 L 216.842411 23.055981 L 220.168943 20.922199 L 223.284428 19.184992 L 224.179834 18.818715 L 223.140005 19.255255" fill="none" id="36" stroke="black" stroke-width="0.67703" /><path d="M 4.524095 133.774245 L 4.967806 137.749559 L 5.411516 141.724873 L 5.855227 145.700187 L 6.298938 149.675501 L 6.742648 153.650815 L 7.186359 157.626129 L 7.630069 161.601443 L 8.073780 165.576756 L 8.517491 169.552070 L 8.961201 173.527384 L 9.404912 177.502698 L 9.848623 181.478012 L 9.997545 182.812245" fill="none" id="37" stroke="black" stroke-width="0.67703" /><path d="M 13.861155 244.364385 L 13.861155 248.364385 L 13.861155 252.364385 L 13.861155 256.364385 L 13.861155 260.364385 L 13.861155 264.364385 L 13.861155 268.364385 L 13.861155 272.364385 L 14.271327 276.341104 L 14.723942 280.315414 L 15.176558 284.289724 L 15.629173 288.264034 L 16.081789 292.238344 L 16.743660 296.182757 L 17.422061 300.124809 L 18.100462 304.066860 L 18.790232 308.006928 L 19.487436 311.945697 L 20.184640 315.884467 L 20.881844 319.823237 L 21.642086 323.750275 L 22.408546 327.676155 L 23.175005 331.602036 L 23.948484 335.526496 L 24.769121 339.441411 L 25.589757 343.356325 L 26.410393 347.271240 L 27.349683 351.158110 L 28.368562 355.026170 L 29.387441 358.894230 L 30.495137 362.736371 L 31.716558 366.545325 L 32.937978 370.354279 L 34.478217 374.041966 L 36.096914 377.699809 L 37.767869 381.333793 L 39.471601 384.952812 L 41.317357 388.500146 L 43.223086 392.016766 L 45.324644 395.420214 L 47.355799 398.862191 L 49.089671 402.466867 L 50.724069 406.114522 L 52.160602 409.847667 L 53.675279 413.548981 L 55.072985 416.797695" fill="none" id="38" stroke="black" stroke-width="0.67703" /><path d="M 13.217215 274.049105 L 12.895245 277.727135 L 13.548697 281.667394 L 14.417207 285.569886 L 15.394080 289.448767 L 16.370953 293.327648 L 17.347826 297.206529 L 18.324699 301.085410 L 19.397815 304.938715 L 20.475470 308.790813 L 21.553125 312.642911 L 22.505044 316.526917 L 23.394621 320.426745 L 24.284199 324.326572 L 25.178767 328.225192 L 26.169799 332.100480 L 27.160831 335.975767 L 28.151863 339.851055 L 29.142895 343.726343 L 30.133927 347.601631 L 31.124959 351.476918 L 32.115991 355.352206 L 33.147056 359.216873 L 34.207476 363.073751 L 35.267896 366.930629 L 36.328316 370.787507 L 37.388736 374.644386 L 38.449157 378.501264 L 39.554638 382.344319 L 40.839404 386.132376 L 42.124169 389.920433 L 43.408935 393.708490 L 44.693701 397.496547 L 45.978466 401.284605 L 47.375630 405.032537 L 48.780200 408.777825 L 50.095997 412.554571 L 51.363123 416.348566 L 52.786918 420.084228 L 54.309561 423.783087 L 55.540016 427.588051 L 56.927912 431.336010 L 58.281309 435.096466 L 59.648008 438.853405 L 60.546435 442.738086 L 60.546435 443.281125" fill="none" id="39" stroke="black" stroke-width="0.67703" /><path d="M 23.520175 354.226955 L 24.904158 357.979899 L 26.233976 361.752291 L 27.628993 365.499671 L 29.151638 369.198530 L 30.700052 372.886625 L 32.260545 376.569676 L 33.821038 380.252726 L 35.381531 383.935777 L 37.109687 387.543036 L 38.830878 391.153566 L 40.449572 394.811411 L 42.125334 398.442300 L 43.922389 402.015897 L 45.649663 405.622998 L 47.314638 409.260010 L 48.979612 412.897023 L 50.653700 416.529565 L 52.510381 420.072549 L 54.338035 423.630436 L 56.135092 427.204032 L 57.932148 430.777628 L 59.586620 434.418573 L 61.348873 438.008608 L 63.024820 441.639837 L 64.705426 445.266232 L 65.206707 446.430193 L 64.002243 442.631229 L 62.540122 438.908632 L 61.163415 435.153905 L 59.629592 431.459901 L 58.010902 427.802055 L 56.392211 424.144208 L 54.795584 420.476734 L 53.189319 416.813986 L 51.446657 413.213552 L 49.665016 409.632287 L 49.098004 410.597123 L 50.617926 414.297049 L 52.236616 417.954896 L 52.497245 418.543855" fill="none" id="40" stroke="black" stroke-width="0.67703" /><path d="M 30.925425 226.320735 L 30.925425 230.320735 L 30.925425 234.320735 L 30.925425 238.320735 L 30.925425 242.320735 L 30.925425 246.320735 L 30.925425 250.320735 L 30.925425 254.320735 L 31.372585 258.295121 L 31.829346 262.268956 L 32.277102 266.243762 L 32.677380 270.223684 L 33.077657 274.203606 L 33.477935 278.183528 L 34.017310 282.146843 L 34.565254 286.109134 L 35.113199 290.071426 L 35.625642 294.038239 L 36.088331 298.011389 L 36.551019 301.984539 L 37.013707 305.957689 L 37.595829 309.914981 L 38.185966 313.871209 L 38.776103 317.827437 L 39.333834 321.788294 L 39.875138 325.751499 L 40.416442 329.714703 L 41.009149 333.670393 L 41.624991 337.622701 L 42.246577 341.574057 L 42.938415 345.513773 L 43.630253 349.453489 L 44.271624 353.401623 L 44.896055 357.352583 L 45.570423 361.295178 L 46.267627 365.233948 L 47.027523 369.161005 L 47.818783 373.081721 L 48.704021 376.982535 L 49.865705 380.805853 L 50.565445 382.893085" fill="none" id="41" stroke="black" stroke-width="0.67703" /><path d="M 33.501165 285.835685 L 33.501165 289.835685 L 34.209064 293.766081 L 34.988131 297.689479 L 35.769383 301.612403 L 36.687304 305.505656 L 37.605226 309.398910 L 38.523148 313.292163 L 39.441069 317.185416 L 40.329182 321.085434 L 41.181719 324.993526 L 42.034255 328.901617 L 43.033322 332.774163 L 44.066251 336.638495 L 45.099179 340.502827 L 46.132107 344.367158 L 47.165036 348.231490 L 48.213332 352.091550 L 49.322481 355.934699 L 50.431631 359.777847 L 51.668210 363.580265 L 52.993682 367.354272 L 54.296886 371.135643 L 55.483180 374.955683 L 56.669474 378.775723 L 58.097241 382.512131 L 59.527756 386.247586 L 60.763553 390.051685 L 61.998057 393.856382 L 63.274465 397.647263 L 64.507014 401.452141 L 65.662458 405.281625 L 66.616719 409.163638 L 67.515333 413.060748 L 68.551505 416.924211 L 69.450154 420.813504 L 70.205455 420.030691 L 70.205455 419.125905" fill="none" id="42" stroke="black" stroke-width="0.67703" /><path d="M 39.296585 303.588315 L 39.296585 307.588315 L 39.438116 311.583715 L 39.912980 315.541835 L 40.877119 319.423901 L 41.841259 323.305966 L 42.805398 327.188032 L 43.681469 331.090307 L 44.506259 335.004348 L 45.392316 338.903730 L 46.428489 342.767193 L 47.464661 346.630656 L 48.466896 350.503023 L 49.460859 354.377560 L 50.454821 358.252097 L 51.448784 362.126635 L 52.442746 366.001172 L 53.609092 369.824775 L 54.880536 373.617324 L 56.144594 377.412260 L 57.332999 381.231644 L 58.521403 385.051028 L 59.756387 388.855437 L 61.016383 392.651805 L 62.257283 396.454360 L 63.462851 400.268361 L 64.685393 404.076802 L 65.970161 407.864859 L 67.254928 411.652915 L 68.539696 415.440972 L 69.824463 419.229028 L 71.109230 423.017085 L 72.829745 426.626595 L 74.490792 430.264826 L 76.362356 433.794203 L 78.145255 437.371271 L 80.199873 440.801342 L 82.184528 444.273999 L 83.776072 447.928413 L 83.900041 450.699530 L 81.974190 447.195383 L 80.334364 443.554799 L 79.864485 442.408045" fill="none" id="43" stroke="black" stroke-width="0.67703" /><path d="M 78.898585 439.934315 L 78.898585 443.934315 L 80.052885 447.720867 L 80.186455 448.083065" fill="none" id="44" stroke="black" stroke-width="0.67703" /><path d="M 72.137265 453.176025 L 75.184205 455.744177 L 78.654756 457.722257 L 81.728872 458.034353 L 78.738298 455.407656 L 75.017054 454.094913 L 71.864708 452.145917 L 72.466798 450.563630 L 76.192435 451.909693 L 80.146079 452.448465 L 79.033409 452.932286 L 75.444093 454.049105 L 73.907045 453.539653 L 77.632892 454.954798 L 81.357888 456.390746 L 81.796285 456.522835" fill="none" id="45" stroke="black" stroke-width="0.67703" /><path d="M 70.849395 447.209985 L 73.904547 449.118525 L 77.270197 451.280099 L 80.543079 453.568528 L 83.336081 456.396210 L 83.405558 459.142075 L 79.811058 457.897477 L 77.341055 454.763017 L 74.595411 451.855958 L 71.893343 448.916445 L 68.781359 446.538377 L 67.452806 448.042015 L 70.252323 450.863339 L 73.581332 453.073009 L 76.887843 455.323452 L 80.207031 457.553049 L 80.469550 458.851045 L 77.275616 456.657664 L 74.268965 454.029116 L 71.753674 450.937626 L 68.899538 448.220419 L 70.236809 449.688611 L 73.171150 452.396937 L 76.464401 454.658904 L 80.170262 456.128817 L 84.132928 456.668345 L 88.132928 456.668345 L 89.201535 456.668345" fill="none" id="46" stroke="black" stroke-width="0.67703" /><path d="M 67.629715 447.792035 L 68.793857 446.012205 L 71.740957 443.308026 L 74.676681 440.593138 L 77.752203 438.035567 L 80.827724 435.477996 L 84.084524 433.170560 L 87.472386 431.043969 L 90.913241 429.004616 L 94.362608 426.979463 L 98.032109 425.387368 L 101.701609 423.795274 L 102.402205 423.491305" fill="none" id="47" stroke="black" stroke-width="0.67703" /><path d="M 81.474325 439.206745 L 78.345239 441.697629 L 75.108565 444.044717 L 71.851415 446.350840 L 72.729314 444.303172 L 75.126075 441.103018 L 77.693173 438.035753 L 80.532640 435.220730 L 83.497425 432.540608 L 86.584212 429.996646 L 89.821961 427.654376 L 93.132857 425.409834 L 96.556153 423.350693 L 100.077447 421.453197 L 103.618157 419.594953 L 107.263176 417.947581 L 110.908195 416.300209 L 114.651162 414.901203 L 118.439449 413.617115 L 122.255483 412.427246 L 126.135062 411.453148 L 130.019843 410.505794 L 133.981719 409.954852 L 137.943595 409.403910 L 141.921804 408.988122 L 145.903662 408.616605 L 149.899143 408.426523 L 153.896609 408.289982 L 157.895578 408.212405 L 161.891096 408.122937 L 165.876880 407.793612 L 166.151765 407.775865" fill="none" id="48" stroke="black" stroke-width="0.67703" /><path d="M 169.371435 399.918145 L 171.562231 402.072379 L 175.290260 403.517173 L 179.122154 404.646319 L 183.034271 405.479333 L 186.956089 406.253612 L 190.843288 407.165574 L 187.047154 407.193815 L 183.047154 407.193815 L 179.142268 406.548440 L 175.408718 405.120421 L 171.926651 403.191901 L 168.795060 400.706778 L 170.661708 400.210442 L 174.282482 401.896625 L 177.887487 403.621463 L 181.348186 405.592829 L 179.006579 405.871601 L 175.338562 404.318708 L 171.501335 403.214580 L 167.548764 402.620886 L 167.306791 402.246355 L 171.306791 402.246355 L 175.246050 402.849890 L 179.066421 404.008772 L 182.660215 405.760886 L 185.791785 407.630355" fill="none" id="49" stroke="black" stroke-width="0.67703" /><path d="M 68.595625 448.810625 L 68.555574 445.153276 L 71.064766 442.091949 L 73.914401 439.285451 L 76.953857 436.694576 L 80.110376 434.237670 L 83.361657 431.909227 L 86.640939 429.618746 L 90.025486 427.492553 L 93.476800 425.470565 L 96.946147 423.483454 L 100.591167 421.836083 L 104.236187 420.188713 L 107.921354 418.639851 L 111.679513 417.270093 L 115.437673 415.900335 L 119.273311 414.778343 L 123.142308 413.763030 L 127.018801 412.781119 L 130.950635 412.045811 L 134.882470 411.310503 L 138.850786 410.831464 L 142.831618 410.440345 L 146.828401 410.310989 L 150.827671 410.249595 L 154.827671 410.249595 L 158.827671 410.249595 L 159.068485 410.249595" fill="none" id="50" stroke="black" stroke-width="0.67703" /><path d="M 75.034975 447.355495 L 72.118136 450.060463 L 74.156190 447.486134 L 76.698607 444.398074 L 79.309552 441.371700 L 82.114197 438.519689 L 85.062689 435.817706 L 88.060312 433.171687 L 91.232211 430.734669 L 94.422092 428.322715 L 97.746883 426.098807 L 101.071673 423.874899 L 104.472667 421.771475 L 107.906842 419.720514 L 111.345289 417.676954 L 114.839171 415.729447 L 118.333054 413.781940 L 121.867164 411.913136 L 125.492087 410.222002 L 129.117010 408.530867 L 132.797044 406.968316 L 136.521526 405.509471 L 140.246008 404.050625 L 144.088384 402.941343 L 147.935650 401.846562 L 151.820998 400.901089 L 155.722621 400.019419 L 159.678935 399.468046 L 163.664223 399.190575 L 167.664223 399.190575 L 171.650645 399.401738 L 174.522915 399.772635" fill="none" id="51" stroke="black" stroke-width="0.67703" /><path d="M 96.284825 457.832455 L 100.284825 457.832455 L 104.230605 457.346527 L 108.114027 456.392328 L 111.969671 455.327427 L 115.808496 454.203606 L 119.645300 453.072707 L 123.385181 451.655055 L 127.121306 450.226290 L 130.867396 448.823970 L 134.617322 447.431828 L 138.347669 445.990154 L 142.036034 444.442264 L 145.724399 442.894373 L 149.353074 441.212231 L 152.973129 439.510703 L 156.533484 437.690169 L 160.061738 435.805647 L 163.437142 433.670523 L 166.727585 431.396104 L 169.756513 428.784257 L 172.542078 425.922196 L 174.761115 422.624159 L 176.736609 419.147407 L 178.386525 415.519976 L 175.614270 418.284949 L 172.681085 421.003934 L 169.753040 423.728435 L 166.821714 426.449645 L 163.823242 429.091782 L 160.687859 431.574947 L 157.446525 433.918823 L 154.163007 436.202461 L 150.852110 438.447001 L 147.452432 440.553577 L 144.037820 442.636945 L 140.512955 444.527398 L 136.984703 446.411923 L 133.369092 448.122444 L 129.750086 449.826204 L 126.050143 451.343369 L 122.333317 452.821614 L 118.598961 454.254577 L 114.855648 455.664400 L 111.070277 456.952746 L 107.256578 458.159272 L 103.428121 459.318008 L 99.551729 460.295505 L 95.624267 461.047830 L 92.903242 461.615805 L 96.903242 461.615805 L 100.901731 461.515496 L 104.784667 460.716559 L 108.598367 459.510041 L 112.359433 458.148949 L 116.116913 456.777330 L 119.809700 455.244083 L 123.475854 453.644297 L 127.138594 452.036824 L 130.783615 450.389455 L 134.428636 448.742087 L 138.059930 447.065621 L 141.649295 445.300270 L 145.238659 443.534919 L 148.818665 441.751155 L 152.360482 439.892248 L 155.902298 438.033341 L 159.403713 436.102309 L 162.838866 434.052986 L 166.268945 431.995762 L 169.561543 429.724463 L 172.767446 427.349989 L 175.572091 424.497978 L 177.732655 421.156069 L 179.045647 417.394888 L 179.691966 413.456158 L 181.228157 409.781584 L 183.451054 406.458280 L 185.385118 403.456346 L 184.503915 407.194414 L 184.219079 411.164729 L 182.946031 414.934116 L 180.836301 418.295823 L 178.274153 421.362336 L 175.492041 424.236332 L 172.540430 426.929885 L 169.498213 429.526983 L 166.302600 431.928460 L 163.054941 434.263564 L 159.747962 436.511989 L 156.395426 438.693847 L 153.032232 440.858771 L 149.614982 442.937809 L 146.197731 445.016846 L 142.699574 446.953920 L 139.169170 448.834412 L 135.628076 450.693920 L 132.031459 452.444448 L 128.434842 454.194975 L 124.737977 455.718432 L 121.021151 457.196677 L 117.244348 458.508236 L 113.437782 459.737079 L 109.512521 460.487366 L 105.551538 461.005061 L 101.557587 461.179265 L 99.550135 460.451695 L 103.544115 460.304946 L 107.506728 459.786651 L 111.434810 459.043136 L 115.316681 458.078213 L 119.171759 457.014615 L 123.008563 455.883716 L 126.781984 454.564136 L 130.523396 453.149273 L 134.264807 451.734410 L 138.006219 450.319546 L 141.715884 448.826368 L 145.386392 447.236599 L 149.016966 445.562605 L 152.570891 443.726952 L 156.085196 441.818819 L 159.549088 439.818454 L 162.671816 437.339808 L 165.528500 434.555133 L 168.062204 431.465293 L 170.194161 428.083235 L 171.907087 424.473111 L 172.886334 420.616873 L 174.349327 416.999306 L 178.107018 416.311572 L 178.222550 420.242977 L 176.548156 423.753556 L 173.990193 426.820569 L 171.147886 429.616605 L 168.010555 432.097966 L 164.776698 434.449944 L 161.504441 436.750452 L 158.117851 438.878475 L 154.724519 440.996328 L 151.197790 442.882744 L 147.664304 444.757437 L 144.035337 446.437527 L 140.390316 448.084896 L 136.690319 449.602423 L 132.970613 451.073405 L 129.192445 452.381018 L 125.383991 453.603999 L 121.575538 454.826980 L 117.740585 455.959256 L 113.824940 456.723722 L 114.050116 455.802625 L 117.771200 454.345278 L 121.602649 453.199807 L 125.476408 452.205975 L 129.362976 451.260147 L 133.249544 450.314320 L 137.121574 449.312396 L 140.978296 448.251409 L 144.823278 447.149267 L 148.659295 446.015700 L 152.480764 444.835624 L 156.278972 443.581185 L 160.063550 442.289024 L 163.786373 440.825951 L 167.487972 439.313944 L 171.100052 437.595549 L 174.533250 435.573651 L 177.671993 433.108428 L 179.731269 429.867994 L 179.996365 425.898457 L 179.996365 421.898457 L 179.674395 417.927893 L 178.213508 421.195727 L 176.537962 424.808504 L 174.319860 428.132028 L 171.921984 431.333421 L 169.420585 434.449991 L 166.668225 437.352492 L 163.741164 440.076069 L 160.737618 442.716944 L 157.680287 445.296232 L 154.431291 447.624857 L 151.110329 449.850547 L 147.627660 451.818037 L 144.111684 453.722390 L 140.521500 455.486073 L 136.895247 457.166982 L 133.159123 458.595749 L 129.422537 460.023206 L 125.615971 461.252049 L 121.809405 462.480893 L 117.956239 463.547145 L 114.076660 464.521243 L 110.179048 465.414707 L 106.254106 466.185958 L 102.306738 466.817764 L 98.336316 467.290825 L 96.103784 466.699625 L 99.866572 465.376152 L 103.696685 464.225493 L 107.231715 463.216445" fill="none" id="52" stroke="black" stroke-width="0.67703" /><path d="M 91.133345 443.135605 L 91.579729 439.204664 L 94.179377 436.167573 L 97.198437 433.543592 L 100.316092 431.040014 L 103.483919 428.597705 L 106.862575 426.458737 L 110.255906 424.340884 L 113.739771 422.376004 L 117.229171 420.420475 L 120.787880 418.597636 L 124.386319 416.850856 L 127.999808 415.136768 L 131.666710 413.538698 L 135.333612 411.940628 L 139.066499 410.506846 L 142.820072 409.124568 L 146.613245 407.862916 L 150.455733 406.751484 L 152.951095 406.029705" fill="none" id="53" stroke="black" stroke-width="0.67703" /><path d="M 233.764935 99.287585 L 233.764935 103.287585 L 233.764935 106.126715" fill="none" id="54" stroke="black" stroke-width="0.67703" /><path d="M 228.291485 61.745145 L 228.291485 65.745145 L 228.291485 69.745145 L 228.291485 73.745145 L 228.291485 77.745145 L 228.291485 81.745145 L 228.291485 85.745145 L 228.291485 89.745145 L 228.291485 93.745145 L 228.332731 97.744789 L 228.401866 101.744191 L 228.471001 105.743594 L 228.540136 109.742996 L 228.609271 113.742399 L 228.613455 117.742362 L 228.613455 121.742362 L 228.613455 125.742362 L 228.613455 129.742362 L 228.613455 133.742362 L 228.613455 137.742362 L 228.613455 141.742362 L 228.613455 145.742362 L 228.613455 149.742362 L 228.613455 153.742362 L 228.613455 157.742362 L 228.613455 161.742362 L 228.535373 165.741027 L 228.398589 169.738688 L 228.261806 173.736348 L 228.125022 177.734009 L 227.988239 181.731669 L 227.851455 185.729330 L 227.714672 189.726991 L 227.459554 193.717150 L 227.090433 197.700082 L 226.721312 201.683014 L 226.352191 205.665947 L 225.983070 209.648879 L 225.613949 213.631811 L 225.244828 217.614743 L 224.799108 221.589174 L 224.285812 225.556103 L 223.772516 229.523032 L 223.259219 233.489961 L 222.745923 237.456890 L 222.232626 241.423819 L 221.679659 245.384831 L 221.013032 249.328891 L 220.346406 253.272951 L 219.679779 257.217011 L 219.013152 261.161071 L 218.346526 265.105131 L 217.564335 269.027807 L 216.775542 272.949262 L 215.986749 276.870716 L 215.197955 280.792171 L 214.447815 284.720967 L 213.743785 288.658523 L 213.039756 292.596078 L 212.335727 296.533634 L 212.193115 297.331245" fill="none" id="55" stroke="black" stroke-width="0.67703" /><path d="M 219.598365 195.180875 L 219.598365 199.180875 L 219.598365 203.180875 L 219.598365 207.180875 L 219.598365 211.180875 L 219.598365 215.180875 L 219.598365 219.180875 L 219.598365 223.180875 L 219.598365 227.180875 L 219.598365 231.180875 L 219.598365 235.180875 L 219.457977 239.174912 L 219.118798 243.160506 L 218.779618 247.146100 L 218.440439 251.131693 L 218.101259 255.117287 L 217.727990 259.099759 L 217.337749 263.080678 L 216.947508 267.061596 L 216.557267 271.042515 L 216.167026 275.023433 L 215.776785 279.004352 L 215.279362 282.973126 L 214.769003 286.940434 L 214.258644 290.907742 L 213.748284 294.875050 L 213.237925 298.842358 L 212.727565 302.809666 L 212.157039 306.768437 L 211.543595 310.721118 L 210.930151 314.673799 L 210.316707 318.626480 L 209.703263 322.579161 L 209.089819 326.531841 L 208.476375 330.484522 L 207.862931 334.437203 L 207.249487 338.389884 L 206.636043 342.342565 L 206.022599 346.295246 L 205.409155 350.247927 L 204.691977 354.181653 L 203.867935 358.095852 L 203.043893 362.010051 L 202.219851 365.924250 L 201.395809 369.838449 L 200.828039 373.743537 L 199.905342 377.635661 L 198.982644 381.527785 L 198.059947 385.419909 L 197.114658 389.306415 L 196.107002 393.177414 L 195.099346 397.048412 L 194.162935 400.645715" fill="none" id="56" stroke="black" stroke-width="0.67703" /><path d="M 213.802955 342.731405 L 212.182805 346.388540 L 210.298394 349.916853 L 208.791029 353.616513 L 207.467798 357.389639 L 206.262232 361.203641 L 204.926945 364.973730 L 203.567917 368.735784 L 202.363365 372.549923 L 201.166940 376.366802 L 199.970515 380.183681 L 198.774090 384.000560 L 197.559081 387.811481 L 196.313124 391.612480 L 195.067166 395.413478 L 193.821209 399.214477 L 192.575251 403.015476 L 191.312835 406.810887 L 189.987363 410.584893 L 188.661891 414.358900 L 187.224083 418.091004 L 185.754205 421.811147 L 184.141100 425.469121 L 182.427422 429.083440 L 180.568199 432.624659 L 178.708495 432.850038 L 179.719211 429.002443 L 181.503569 425.423013 L 183.439723 421.922827 L 185.344209 418.405360 L 186.757685 415.779095" fill="none" id="57" stroke="black" stroke-width="0.67703" /><path d="M 196.416705 391.914915 L 195.326041 395.466349 L 194.139593 399.285092 L 192.803395 403.055155 L 191.597823 406.869155 L 190.146788 410.593193 L 188.625993 414.292566 L 187.171112 418.018599 L 185.611965 421.702104 L 183.979533 425.339377 L 184.842625 422.296923 L 186.634580 418.721459 L 188.217256 415.056432 L 188.642021 415.315028 L 187.231200 419.055207 L 185.627626 422.717406 L 184.022077 426.375131 L 182.317939 429.990352 L 180.667738 433.627639 L 179.100779 436.528973 L 180.406424 432.766216 L 181.954216 429.077810 L 183.567162 425.418503 L 185.339904 421.834483 L 187.089485 418.248382 L 186.809563 421.651361 L 184.690238 425.005892 L 182.241475 428.168661 L 179.797427 431.335146 L 177.248777 434.417910 L 174.899618 437.653083 L 172.289034 440.678037 L 168.883309 442.372835 L 168.083565 442.844585" fill="none" id="58" stroke="black" stroke-width="0.67703" /><path d="M 182.894075 424.218875 L 180.027826 427.008968 L 177.300431 429.929640 L 174.504921 432.785069 L 171.836066 435.760413 L 168.976891 438.555729 L 166.224531 441.458230 L 163.602734 444.479048 L 160.546021 447.047127 L 157.475009 449.608906 L 154.392362 452.152437 L 151.131147 454.468572 L 147.745061 456.596145 L 144.288493 458.608615 L 146.465118 457.757284 L 149.807571 455.560011 L 153.047841 453.222677 L 156.160579 450.710534 L 159.128465 448.028839 L 162.036265 445.283574 L 164.878889 442.469417 L 167.651585 439.599046 L 167.476269 437.289557 L 164.014423 439.051600 L 160.805804 441.440064 L 157.843821 444.126299 L 155.065886 447.003231 L 152.380212 449.966042 L 150.053395 452.302945" fill="none" id="59" stroke="black" stroke-width="0.67703" /><path d="M 183.216045 243.927845 L 182.940123 247.918317 L 182.752404 251.913714 L 182.582354 255.910098 L 182.469462 259.908478 L 182.360236 263.906987 L 182.251010 267.905495 L 182.089176 271.902217 L 181.926916 275.898925 L 181.764655 279.895632 L 181.600151 283.892222 L 181.342279 287.883901 L 181.084406 291.875580 L 180.826534 295.867259 L 180.568662 299.858938 L 180.309894 303.850556 L 180.021414 307.840140 L 179.732934 311.829724 L 179.444454 315.819308 L 179.155973 319.808891 L 178.867493 323.798475 L 178.526494 327.783486 L 178.121004 331.762880 L 177.715514 335.742274 L 177.310024 339.721668 L 176.904534 343.701062 L 176.499044 347.680456 L 176.029356 351.652720 L 175.551789 355.624109 L 175.074223 359.595498 L 174.596657 363.566887 L 174.119091 367.538276 L 173.641524 371.509665 L 173.163958 375.481054 L 172.686392 379.452443 L 172.208826 383.423832 L 171.731259 387.395221 L 171.147761 391.352021 L 170.534025 395.304657 L 169.920290 399.257292 L 169.306554 403.209928 L 168.595496 407.145326 L 167.814287 411.068298 L 167.033078 414.991271 L 166.251870 418.914243 L 165.512027 422.845194 L 164.778264 426.777317 L 164.044501 430.709440 L 163.272163 434.634119 L 162.490201 438.556942 L 161.708239 442.479764 L 160.926277 446.402586 L 160.202200 450.336300 L 160.034385 452.302945" fill="none" id="60" stroke="black" stroke-width="0.67703" /></svg>