<?xml version="1.0" encoding="utf-8" ?>
<svg baseProfile="full" height="546.5437" version="1.1" viewBox="0,0,389.5437,546.5437" width="389.5437" xmlns="http://www.w3.org/2000/svg" xmlns:ev="http://www.w3.org/2001/xml-events" xmlns:xlink="http://www.w3.org/1999/xlink"><defs><style type="text/css"><![CDATA[
	.background { fill: white; }
	.line { stroke: firebrick; stroke-width: .1mm; }
	.blacksquare { fill: indigo; }
	.whitesquare { fill: white; }
]]></style></defs><rect class="background" height="100%" width="100%" x="0" y="0" /><path d="M 300.480850 0.271850 L 296.690850 3.317400 L 292.975850 6.454600 L 289.374850 9.721070 L 285.855850 13.077050 L 282.261850 16.351450 L 278.609850 19.561950 L 274.898850 22.703550 L 271.160850 25.813050 L 267.390850 28.883650 L 263.593850 31.921750 L 259.790850 34.951450 L 255.987850 37.981150 L 252.184850 41.010750 L 248.381850 44.040450 L 244.578850 47.070150 L 240.775850 50.099750 L 236.973850 53.131450 L 233.188850 56.183050 L 229.427850 59.264650 L 225.675850 62.358350 L 221.937850 65.467450 L 218.227850 68.610850 L 214.543850 71.783350 L 210.879850 74.980350 L 207.225850 78.188350 L 203.619850 81.449750 L 200.067850 84.770950 L 196.610850 88.190050 L 193.457850 91.890850 L 190.657850 95.865850 L 188.135850 100.022850" fill="none" id="0" stroke="#c583d9" stroke-width="0.5" /><path d="M 2.948710 170.386850 L 5.076190 166.978850 L 7.246430 163.597850 L 9.469410 160.250850 L 11.747850 156.941850 L 14.026250 153.632850 L 16.305450 150.324850 L 18.591850 147.020850 L 20.900150 143.732850 L 23.242250 140.468850 L 25.636750 137.242850 L 28.100550 134.069850 L 30.614450 130.935850 L 33.155250 127.823850 L 35.725150 124.735850 L 38.332150 121.679850 L 41.007550 118.682850 L 43.733350 115.730850 L 46.470750 112.790850 L 49.209150 109.850850 L 51.947450 106.910850 L 54.685850 103.971850 L 57.424250 101.031850 L 60.162150 98.091650 L 62.880650 95.133450 L 65.561150 92.141050 L 68.193650 89.106250 L 70.722450 85.984950 L 73.196550 82.819650 L 75.802350 79.762550 L 78.643750 76.923950 L 81.648350 74.257350" fill="none" id="1" stroke="#9de993" stroke-width="0.5" /><path d="M 218.703850 113.474850 L 223.634850 113.613850 L 228.551850 114.000850 L 233.430850 114.726850 L 238.268850 115.695850 L 243.099850 116.694850 L 247.929850 117.696850 L 252.757850 118.714850 L 257.566850 119.814850 L 262.354850 121.000850 L 267.133850 122.227850 L 271.892850 123.525850 L 276.632850 124.892850 L 281.361850 126.297850 L 286.070850 127.767850 L 290.750850 129.327850 L 295.418850 130.926850 L 300.084850 132.526850 L 304.751850 134.126850 L 309.418850 135.726850 L 314.085850 137.325850 L 318.752850 138.925850 L 323.421850 140.518850 L 328.102850 142.075850 L 332.803850 143.570850 L 337.521850 145.014850 L 342.283850 146.300850 L 347.072850 147.486850 L 351.864850 148.655850 L 356.671850 149.765850 L 361.477850 150.878850 L 365.976850 152.881850 L 370.629850 154.513850 L 375.299850 156.106850" fill="none" id="2" stroke="#ad5ba7" stroke-width="0.5" /><path d="M 302.354850 5.238700 L 304.335850 9.827550 L 306.572850 14.296750 L 309.141850 18.583350 L 311.942850 22.723450 L 314.745850 26.862250 L 317.539850 31.006350 L 320.288850 35.180950 L 322.997850 39.381850 L 325.685850 43.595950 L 328.317850 47.845050 L 330.888850 52.131850 L 333.435850 56.432650 L 335.927850 60.764950 L 338.309850 65.159350 L 340.616850 69.593250 L 342.902850 74.038350 L 345.155850 78.500250 L 347.354850 82.988750 L 349.525850 87.491150 L 351.685850 91.998950 L 353.812850 96.522250 L 355.894850 101.066850 L 357.959850 105.618850 L 360.024850 110.170850 L 362.089850 114.722850 L 364.153850 119.274850 L 366.231850 123.820850 L 368.350850 128.347850 L 370.496850 132.862850 L 372.645850 137.374850 L 374.794850 141.887850 L 376.954850 146.395850 L 379.145850 150.887850 L 381.341850 155.378850 L 383.628850 159.822850 L 386.043850 164.199850 L 388.549850 168.523850" fill="none" id="3" stroke="#58f2c3" stroke-width="0.5" /><path d="M 178.148850 503.682850 L 177.946850 504.996850 L 177.744850 506.310850 L 177.592850 507.630850 L 177.441850 508.951850 L 177.362850 510.278850 L 177.282850 511.605850 L 177.259850 512.934850 L 177.236850 514.263850 L 177.226850 515.592850 L 177.217850 516.921850 L 177.214850 518.250850 L 177.211850 519.579850 L 177.211850 520.908850 L 177.211850 522.238850 L 177.211850 523.567850 L 177.211850 524.896850 L 177.207850 526.225850 L 177.204850 527.554850 L 177.175850 528.883850 L 177.146850 530.212850 L 177.062850 531.539850 L 176.979850 532.865850 L 176.828850 534.186850 L 176.677850 535.507850 L 176.433850 536.813850 L 176.189850 538.120850 L 175.857850 539.407850 L 175.525850 540.694850 L 175.127850 541.962850 L 174.729850 543.230850" fill="none" id="4" stroke="#c94e76" stroke-width="0.5" /><path d="M 174.729850 543.230850 L 174.672850 542.721850 L 174.614850 542.212850 L 174.604850 541.700850 L 174.594850 541.188850 L 174.633850 540.678850 L 174.672850 540.167850 L 174.728850 539.658850 L 174.783850 539.149850 L 174.852850 538.641850 L 174.921850 538.134850 L 174.951850 537.622850 L 174.981850 537.111850 L 175.011850 536.600850 L 175.041850 536.089850 L 175.061850 535.577850 L 175.081850 535.065850 L 175.092850 534.553850 L 175.103850 534.041850 L 175.114850 533.529850 L 175.125850 533.017850 L 175.133850 532.505850 L 175.142850 531.993850 L 175.150850 531.481850 L 175.159850 530.968850 L 175.167850 530.456850 L 175.175850 529.944850 L 175.183850 529.432850 L 175.190850 528.920850 L 175.197850 528.408850 L 175.204850 527.896850" fill="none" id="5" stroke="#c94e76" stroke-width="0.5" /><path d="M 175.605850 496.232850 L 175.605850 497.900850 L 175.605850 499.567850 L 175.605850 501.235850 L 175.605850 502.902850 L 175.605850 504.570850 L 175.605850 506.237850 L 175.605850 507.905850 L 175.605850 509.572850 L 175.605850 511.240850 L 175.605850 512.907850 L 175.605850 514.575850 L 175.605850 516.242850 L 175.605850 517.910850 L 175.605850 519.577850 L 175.605850 521.245850 L 175.605850 522.912850 L 175.605850 524.580850 L 175.605850 526.247850 L 175.606850 527.915850 L 175.608850 529.582850 L 175.614850 531.250850 L 175.620850 532.917850 L 175.634850 534.585850 L 175.649850 536.252850 L 175.725850 537.918850 L 175.802850 539.583850 L 175.958850 541.244850 L 176.116850 542.904850 L 176.329850 544.557850 L 176.542850 546.211850" fill="none" id="6" stroke="#c94e76" stroke-width="0.5" /><path d="M 10.443950 459.395850 L 14.442450 462.232850 L 18.441050 465.070850 L 22.439550 467.907850 L 26.438150 470.745850 L 30.436650 473.582850 L 34.435250 476.420850 L 38.414850 479.283850 L 42.357650 482.198850 L 46.288050 485.129850 L 50.217550 488.061850 L 54.146950 490.994850 L 58.076450 493.926850 L 62.005850 496.859850 L 65.935250 499.791850 L 69.864750 502.723850 L 73.798650 505.650850 L 77.737050 508.570850 L 81.681150 511.483850 L 85.633450 514.384850 L 89.601850 517.264850 L 93.610150 520.087850 L 97.645750 522.872850 L 101.693850 525.637850 L 105.787850 528.336850 L 109.916850 530.980850 L 114.078850 533.570850 L 118.332850 536.008850 L 122.624850 538.378850 L 126.971850 540.647850 L 131.340850 542.872850 L 135.733850 545.048850" fill="none" id="7" stroke="#57b870" stroke-width="0.5" /><path d="M 174.802850 352.607850 L 179.389850 350.817850 L 183.943850 348.947850 L 188.453850 346.971850 L 192.918850 344.897850 L 197.383850 342.822850 L 201.849850 340.750850 L 206.324850 338.697850 L 210.821850 336.693850 L 215.329850 334.712850 L 219.849850 332.761850 L 224.391850 330.862850 L 228.946850 328.993850 L 233.509850 327.142850 L 238.089850 325.337850 L 242.688850 323.580850 L 247.295850 321.843850 L 251.908850 320.122850 L 256.536850 318.441850 L 261.176850 316.795850 L 265.820850 315.159850 L 270.471850 313.546850 L 275.143850 311.993850 L 279.833850 310.493850 L 284.525850 309.000850 L 289.216850 307.507850 L 293.908850 306.015850 L 298.600850 304.522850 L 303.291850 303.029850 L 307.986850 301.544850 L 312.689850 300.088850 L 317.397850 298.648850 L 322.105850 297.208850 L 326.817850 295.779850 L 331.534850 294.368850 L 336.253850 292.965850 L 340.973850 291.563850 L 345.692850 290.161850 L 350.412850 288.759850 L 355.131850 287.356850 L 359.851850 285.954850 L 364.571850 284.552850 L 369.290850 283.150850 L 374.010850 281.748850 L 378.646850 280.095850 L 383.179850 278.175850 L 387.612850 276.035850" fill="none" id="8" stroke="#d271bb" stroke-width="0.5" /><path d="M 22.355950 238.163850 L 25.897750 239.997850 L 29.439650 241.830850 L 32.981550 243.664850 L 36.523350 245.498850 L 40.065250 247.332850 L 43.607150 249.166850 L 47.148150 251.001850 L 50.682750 252.849850 L 54.202250 254.726850 L 57.709350 256.625850 L 61.214050 258.529850 L 64.718950 260.433850 L 68.226050 262.332850 L 71.744750 264.210850 L 75.284150 266.049850 L 78.834750 267.866850 L 82.385450 269.682850 L 85.936050 271.499850 L 89.512550 273.264850 L 93.133450 274.936850 L 96.779350 276.553850 L 100.430850 278.158850 L 104.081850 279.763850 L 107.744850 281.341850 L 111.430850 282.865850 L 115.138850 284.335850 L 118.870850 285.742850 L 122.636850 287.055850 L 126.425850 288.300850 L 130.232850 289.487850" fill="none" id="9" stroke="#3d8e43" stroke-width="0.5" /><path d="M 4.822510 236.300850 L 6.683390 236.900850 L 8.467000 237.673850 L 10.155200 238.660850 L 11.426750 240.134850 L 12.601650 241.692850 L 13.612550 243.366850 L 14.514550 245.098850 L 15.341250 246.870850 L 16.204050 248.624850 L 17.092350 250.365850 L 18.058050 252.066850 L 19.048650 253.751850 L 20.061050 255.424850 L 21.282450 256.947850 L 22.558050 258.428850 L 23.913750 259.837850 L 25.330550 261.181850 L 26.813050 262.456850 L 28.413050 263.576850 L 30.051250 264.642850 L 31.757950 265.597850 L 33.485750 266.510850 L 35.241350 267.371850 L 37.022250 268.178850 L 38.813050 268.963850 L 40.624350 269.699850 L 42.439450 270.426850 L 44.260750 271.137850 L 46.088750 271.831850 L 47.919850 272.517850" fill="none" id="10" stroke="#00d4db" stroke-width="0.5" /><path d="M 11.782350 230.502850 L 11.953150 231.773850 L 12.137350 233.042850 L 12.411050 234.296850 L 12.724950 235.538850 L 13.145050 236.750850 L 13.608250 237.945850 L 14.133850 239.115850 L 14.669150 240.281850 L 15.213250 241.442850 L 15.758050 242.604850 L 16.303450 243.765850 L 16.850650 244.925850 L 17.398550 246.085850 L 17.949650 247.243850 L 18.501450 248.401850 L 19.077350 249.548850 L 19.659150 250.691850 L 20.276950 251.815850 L 20.909450 252.931850 L 21.583650 254.022850 L 22.284450 255.096850 L 23.027950 256.141850 L 23.831550 257.138850 L 24.693350 258.088850 L 25.599250 258.995850 L 26.531050 259.877850 L 27.500850 260.716850 L 28.482950 261.541850 L 29.499250 262.324850 L 30.520350 263.100850" fill="none" id="11" stroke="#00d4db" stroke-width="0.5" /><path d="M 15.931450 240.025850 L 16.394850 241.583850 L 16.858750 243.140850 L 17.437950 244.658850 L 18.018850 246.175850 L 18.743550 247.630850 L 19.470250 249.083850 L 20.344550 250.452850 L 21.220150 251.821850 L 22.200350 253.117850 L 23.181450 254.412850 L 24.259450 255.628850 L 25.338050 256.843850 L 26.498150 257.981850 L 27.658650 259.118850 L 28.878750 260.192850 L 30.098850 261.265850 L 31.347750 262.304850 L 32.596750 263.343850 L 33.871450 264.351850 L 35.146250 265.359850 L 36.479150 266.288850 L 37.812250 267.217850 L 39.219850 268.029850 L 40.627750 268.840850 L 42.143150 269.426850 L 43.658950 270.011850 L 45.244450 270.366850 L 46.830350 270.720850 L 48.445850 270.894850 L 50.061350 271.068850" fill="none" id="12" stroke="#00d4db" stroke-width="0.5" /><path d="M 9.640850 280.795850 L 14.438050 282.022850 L 19.152350 283.535850 L 23.733750 285.411850 L 28.174450 287.602850 L 32.572050 289.879850 L 36.941450 292.209850 L 41.299450 294.560850 L 45.655750 296.915850 L 50.014450 299.266850 L 54.381250 301.601850 L 58.756250 303.920850 L 63.133850 306.235850 L 67.511550 308.550850 L 71.889150 310.865850 L 76.270450 313.173850 L 80.663550 315.458850 L 85.067150 317.723850 L 89.476850 319.976850 L 93.906450 322.190850 L 98.365950 324.342850 L 102.839850 326.465850 L 107.317850 328.579850 L 111.810850 330.660850 L 116.316850 332.714850 L 120.825850 334.761850 L 125.362850 336.746850 L 129.934850 338.648850 L 134.517850 340.522850 L 139.116850 342.359850 L 143.733850 344.150850 L 148.355850 345.927850 L 152.978850 347.701850 L 157.563850 349.572850 L 162.115850 351.522850 L 166.638850 353.539850" fill="none" id="13" stroke="#d55969" stroke-width="0.5" /><path d="M 0.271850 269.102850 L 1.892100 268.777850 L 3.515030 268.467850 L 5.151430 268.236850 L 6.792160 268.049850 L 8.442290 267.959850 L 10.093530 267.912850 L 11.746150 267.921850 L 13.398750 267.929850 L 15.051350 267.938850 L 16.703650 267.963850 L 18.355950 267.997850 L 20.005650 268.091850 L 21.654650 268.200850 L 23.295850 268.392850 L 24.935950 268.595850 L 26.565950 268.867850 L 28.194850 269.146850 L 29.817950 269.457850 L 31.438550 269.780850 L 33.052950 270.133850 L 34.662450 270.507850 L 36.264850 270.912850 L 37.863750 271.330850 L 39.459350 271.760850 L 41.059650 272.172850 L 42.662550 272.574850 L 44.273350 272.943850 L 45.886550 273.302850 L 47.505150 273.636850 L 49.124450 273.965850" fill="none" id="14" stroke="#e68e54" stroke-width="0.5" /><path d="M 17.002250 275.725850 L 15.484150 276.677850 L 13.959050 277.617850 L 12.403150 278.506850 L 10.857550 279.413850 L 9.336080 280.360850 L 7.680570 280.965850 L 6.372140 280.720850 L 6.257050 278.932850 L 7.066720 277.464850 L 8.264300 276.131850 L 9.779210 275.187850 L 11.340350 274.314850 L 13.034150 273.728850 L 14.732450 273.157850 L 16.441950 272.619850 L 18.164250 272.127850 L 19.901050 271.685850 L 21.649450 271.294850 L 23.403950 270.929850 L 25.174250 270.653850 L 26.947750 270.398850 L 28.733650 270.249850 L 30.520350 270.112850 L 32.309650 270.013850 L 34.096650 270.023850 L 35.880250 270.196850 L 37.632250 270.544850 L 39.362850 271.009850 L 41.038150 271.639850 L 42.700050 272.310850" fill="none" id="15" stroke="#54aeff" stroke-width="0.5" /><path d="M 5.357880 281.830850 L 5.739730 280.989850 L 6.121570 280.148850 L 6.532890 279.321850 L 6.944240 278.495850 L 7.390990 277.687850 L 7.837790 276.878850 L 8.328170 276.096850 L 8.818650 275.314850 L 9.498300 274.689850 L 10.178810 274.065850 L 10.923750 273.519850 L 11.668950 272.974850 L 12.461450 272.500850 L 13.254350 272.027850 L 14.095550 271.646850 L 14.936850 271.265850 L 15.816750 270.985850 L 16.696650 270.705850 L 17.597450 270.502850 L 18.498350 270.300850 L 19.412550 270.170850 L 20.326850 270.041850 L 21.248750 269.988850 L 22.170650 269.935850 L 23.093550 269.906850 L 24.016550 269.878850 L 24.939750 269.859850 L 25.862950 269.841850 L 27.709650 269.826850" fill="none" id="16" stroke="#54aeff" stroke-width="0.5" /><path d="M 4.420980 274.172850 L 4.981780 274.169850 L 5.542580 274.166850 L 6.103380 274.168850 L 6.664170 274.168850 L 7.224870 274.157850 L 7.785290 274.140850 L 8.344460 274.097850 L 8.900010 274.032850 L 9.444630 273.898850 L 9.989260 273.764850 L 10.533850 273.630850 L 11.077550 273.493850 L 11.619850 273.350850 L 12.162050 273.207850 L 12.704350 273.064850 L 13.245950 272.918850 L 13.786950 272.771850 L 14.328050 272.623850 L 14.869050 272.475850 L 15.407550 272.319850 L 15.944750 272.158850 L 16.481850 271.997850 L 17.018950 271.835850 L 17.553650 271.666850 L 18.087650 271.495850 L 18.620750 271.321850 L 19.153650 271.146850 L 19.686350 270.971850 L 20.219150 270.796850 L 21.285150 270.447850" fill="none" id="17" stroke="#54aeff" stroke-width="0.5" /><path d="M 1.342600 277.173850 L 4.462180 276.200850 L 7.571800 275.196850 L 10.665850 274.145850 L 13.748850 273.061850 L 16.828350 271.968850 L 19.907850 270.875850 L 22.987350 269.782850 L 26.066850 268.688850 L 29.147150 267.597850 L 32.233450 266.524850 L 35.333750 265.491850 L 38.442450 264.484850 L 41.554050 263.485850 L 44.666050 262.488850 L 47.780850 261.500850 L 50.904250 260.540850 L 54.041450 259.625850 L 57.191950 258.758850 L 60.351150 257.923850 L 63.518450 257.119850 L 66.696850 256.359850 L 69.880450 255.622850 L 73.075050 254.935850 L 76.278650 254.291850 L 79.485050 253.660850 L 82.691950 253.032850 L 85.902150 252.422850 L 89.119150 251.848850 L 92.341450 251.305850 L 95.567950 250.787850" fill="none" id="18" stroke="#54aeff" stroke-width="0.5" /><path d="M 131.854850 308.837850 L 132.888850 308.835850 L 133.923850 308.840850 L 134.956850 308.892850 L 135.987850 308.967850 L 137.012850 309.109850 L 138.034850 309.264850 L 139.053850 309.442850 L 140.072850 309.620850 L 141.091850 309.800850 L 142.111850 309.975850 L 143.131850 310.147850 L 144.153850 310.308850 L 145.175850 310.465850 L 146.199850 310.614850 L 147.223850 310.762850 L 148.251850 310.875850 L 149.280850 310.985850 L 150.310850 311.080850 L 151.341850 311.169850 L 152.373850 311.238850 L 153.406850 311.292850 L 154.440850 311.321850 L 155.474850 311.338850 L 156.509850 311.341850 L 157.541850 311.295850 L 158.573850 311.218850 L 159.595850 311.064850 L 160.614850 310.883850 L 161.619850 310.641850 L 162.622850 310.389850" fill="none" id="19" stroke="#eed973" stroke-width="0.5" /><path d="M 131.035850 311.424850 L 133.491850 311.462850 L 135.944850 311.564850 L 138.392850 311.751850 L 140.831850 312.036850 L 143.261850 312.392850 L 145.700850 312.680850 L 148.146850 312.883850 L 150.600850 312.993850 L 153.055850 313.034850 L 155.511850 313.047850 L 157.963850 312.956850 L 160.392850 312.665850 L 162.715850 311.866850 L 164.585850 310.317850 L 166.375850 308.636850 L 168.116850 306.909850 L 169.681850 305.016850 L 171.491850 303.361850 L 173.535850 302.036850 L 174.968850 301.909850 L 173.908850 304.048850 L 172.329850 305.929850 L 170.686850 307.754850 L 169.038850 309.575850 L 167.333850 311.341850 L 165.427850 312.785850 L 163.042850 313.370850 L 160.593850 313.534850 L 158.140850 313.533850 L 155.691850 313.381850 L 153.253850 313.079850" fill="none" id="20" stroke="#eed973" stroke-width="0.5" /><path d="M 176.007850 301.697850 L 175.401850 302.793850 L 174.795850 303.888850 L 174.136850 304.952850 L 173.470850 306.012850 L 172.756850 307.040850 L 172.026850 308.057850 L 171.238850 309.028850 L 170.414850 309.971850 L 169.535850 310.857850 L 168.592850 311.681850 L 167.597850 312.429850 L 166.498850 313.029850 L 165.380850 313.584850 L 164.183850 313.951850 L 162.984850 314.307850 L 161.740850 314.442850 L 160.495850 314.576850 L 159.244850 314.607850 L 157.992850 314.627850 L 156.741850 314.632850 L 155.489850 314.632850 L 154.237850 314.613850 L 152.986850 314.582850 L 151.736850 314.522850 L 150.487850 314.426850 L 149.241850 314.313850 L 147.999850 314.158850 L 146.757850 313.997850 L 145.522850 313.797850 L 144.286850 313.597850" fill="none" id="21" stroke="#eed973" stroke-width="0.5" /><path d="M 130.902850 311.941850 L 132.438850 312.262850 L 133.975850 312.583850 L 135.488850 313.000850 L 137.001850 313.417850 L 138.473850 313.964850 L 139.944850 314.512850 L 141.367850 315.174850 L 142.790850 315.837850 L 144.186850 316.555850 L 145.581850 317.274850 L 146.946850 318.050850 L 148.309850 318.827850 L 149.627850 319.681850 L 150.943850 320.536850 L 152.250850 321.405850 L 153.557850 322.274850 L 154.768850 323.273850 L 155.974850 324.278850 L 157.045850 325.425850 L 158.107850 326.580850 L 158.958850 327.898850 L 159.794850 329.226850 L 160.275850 330.717850 L 160.732850 332.219850 L 160.764850 333.786850 L 160.780850 335.356850 L 160.525850 336.904850 L 160.266850 338.453850 L 159.772850 339.942850 L 159.276850 341.432850" fill="none" id="22" stroke="#fdb968" stroke-width="0.5" /><path d="M 142.011850 316.598850 L 143.544850 317.010850 L 145.078850 317.422850 L 146.562850 317.983850 L 148.039850 318.567850 L 149.430850 319.325850 L 150.792850 320.141850 L 152.085850 321.058850 L 153.333850 322.039850 L 154.544850 323.065850 L 155.712850 324.141850 L 156.862850 325.236850 L 157.971850 326.372850 L 159.074850 327.514850 L 160.141850 328.690850 L 161.207850 329.867850 L 162.219850 331.091850 L 163.230850 332.315850 L 164.170850 333.595850 L 165.100850 334.882850 L 165.934850 336.232850 L 166.734850 337.604850 L 167.394850 339.042850 L 167.957850 340.527850 L 168.390850 342.048850 L 168.663850 343.612850 L 168.881850 345.183850 L 168.974850 346.768850 L 169.041850 348.353850 L 168.970850 349.940850 L 168.898850 351.526850" fill="none" id="23" stroke="#fdb968" stroke-width="0.5" /><path d="M 168.779850 341.651850 L 169.555850 341.879850 L 170.330850 342.106850 L 171.076850 342.417850 L 171.820850 342.731850 L 172.493850 343.178850 L 173.166850 343.626850 L 173.815850 344.108850 L 174.464850 344.590850 L 175.067850 345.127850 L 175.670850 345.665850 L 176.264850 346.213850 L 176.858850 346.761850 L 177.437850 347.325850 L 178.016850 347.888850 L 178.592850 348.455850 L 179.168850 349.022850 L 179.741850 349.593850 L 180.313850 350.163850 L 180.889850 350.730850 L 181.465850 351.297850 L 182.042850 351.862850 L 182.620850 352.428850 L 183.212850 352.978850 L 183.803850 353.529850 L 184.402850 354.072850 L 185.000850 354.615850 L 185.623850 355.130850 L 186.245850 355.645850 L 187.517850 356.643850" fill="none" id="24" stroke="#6f73bc" stroke-width="0.5" /><path d="M 382.125850 228.643850 L 381.675850 230.099850 L 381.226850 231.555850 L 380.718850 232.991850 L 380.200850 234.425850 L 379.620850 235.833850 L 379.016850 237.232850 L 378.358850 238.606850 L 377.665850 239.963850 L 376.938850 241.301850 L 376.170850 242.617850 L 375.368850 243.912850 L 374.490850 245.157850 L 373.592850 246.387850 L 372.584850 247.530850 L 371.574850 248.670850 L 370.424850 249.670850 L 369.274850 250.669850 L 368.010850 251.517850 L 366.730850 252.344850 L 365.375850 253.034850 L 363.992850 253.675850 L 362.567850 254.206850 L 361.113850 254.660850 L 359.646850 255.072850 L 358.165850 255.428850 L 356.679850 255.765850 L 355.183850 256.053850 L 353.685850 256.332850 L 352.178850 256.560850 L 350.672850 256.788850" fill="none" id="25" stroke="#bee481" stroke-width="0.5" /><path d="M 383.329850 232.058850 L 382.376850 233.460850 L 381.423850 234.861850 L 380.465850 236.260850 L 379.507850 237.659850 L 378.551850 239.059850 L 377.584850 240.451850 L 376.601850 241.832850 L 375.573850 243.179850 L 374.504850 244.495850 L 373.389850 245.771850 L 372.248850 247.025850 L 371.048850 248.222850 L 369.830850 249.401850 L 368.541850 250.501850 L 367.242850 251.591850 L 365.863850 252.576850 L 364.474850 253.547850 L 363.013850 254.408850 L 361.534850 255.233850 L 359.994850 255.942850 L 358.430850 256.588850 L 356.820850 257.119850 L 355.188850 257.572850 L 353.533850 257.938850 L 351.856850 258.156850 L 350.165850 258.271850 L 348.474850 258.215850 L 346.783850 258.093850 L 345.112850 257.816850 L 343.444850 257.513850" fill="none" id="26" stroke="#bee481" stroke-width="0.5" /><path d="M 379.983850 231.023850 L 379.001850 232.236850 L 378.019850 233.450850 L 377.085850 234.701850 L 376.156850 235.954850 L 375.323850 237.275850 L 374.491850 238.596850 L 373.655850 239.914850 L 372.814850 241.229850 L 371.901850 242.495850 L 370.985850 243.759850 L 370.021850 244.987850 L 369.048850 246.207850 L 367.914850 247.280850 L 366.775850 248.346850 L 365.514850 249.267850 L 364.250850 250.181850 L 362.876850 250.922850 L 361.500850 251.659850 L 360.050850 252.237850 L 358.598850 252.810850 L 357.095850 253.230850 L 355.590850 253.647850 L 354.056850 253.932850 L 352.521850 254.215850 L 350.969850 254.382850 L 349.416850 254.549850 L 347.857850 254.628850 L 346.298850 254.707850 L 344.737850 254.713850 L 343.176850 254.719850" fill="none" id="27" stroke="#8f6aaf" stroke-width="0.5" /><path d="M 342.775850 259.582850 L 344.357850 259.784850 L 345.938850 260.000850 L 347.505850 260.301850 L 349.062850 260.642850 L 350.594850 261.087850 L 352.113850 261.573850 L 353.612850 262.120850 L 355.108850 262.673850 L 356.602850 263.233850 L 358.093850 263.802850 L 359.581850 264.375850 L 361.062850 264.969850 L 362.540850 265.570850 L 364.003850 266.208850 L 365.463850 266.851850 L 366.878850 267.587850 L 368.293850 268.325850 L 369.706850 269.064850 L 371.104850 269.832850 L 372.443850 270.699850 L 373.738850 271.625850 L 374.949850 272.664850 L 376.083850 273.780850 L 377.132850 274.982850 L 377.695850 276.407850 L 377.920850 277.987850 L 377.756850 279.559850 L 377.474850 281.129850 L 376.812850 282.574850 L 376.102850 284.003850" fill="none" id="28" stroke="#bbabff" stroke-width="0.5" /><path d="M 352.010850 257.720850 L 353.257850 258.307850 L 354.504850 258.894850 L 355.725850 259.533850 L 356.942850 260.180850 L 358.124850 260.887850 L 359.292850 261.618850 L 360.438850 262.383850 L 361.567850 263.174850 L 362.691850 263.971850 L 363.810850 264.776850 L 364.925850 265.585850 L 366.030850 266.410850 L 367.132850 267.237850 L 368.213850 268.092850 L 369.295850 268.947850 L 370.323850 269.863850 L 371.349850 270.784850 L 372.324850 271.757850 L 373.286850 272.745850 L 374.184850 273.788850 L 375.046850 274.864850 L 375.810850 276.004850 L 376.470850 277.214850 L 377.095850 278.441850 L 377.657850 279.700850 L 378.223850 280.956850 L 378.805850 282.206850 L 379.386850 283.456850 L 379.952850 284.712850 L 380.519850 285.969850" fill="none" id="29" stroke="#bbabff" stroke-width="0.5" /><path d="M 152.183850 311.941850 L 153.477850 312.542850 L 154.771850 313.143850 L 156.105850 313.651850 L 157.438850 314.158850 L 158.813850 314.540850 L 160.189850 314.920850 L 161.595850 315.165850 L 163.000850 315.408850 L 164.419850 315.562850 L 165.838850 315.715850 L 167.262850 315.800850 L 168.687850 315.884850 L 170.113850 315.920850 L 171.540850 315.955850 L 172.967850 315.944850 L 174.394850 315.932850 L 175.819850 315.859850 L 177.244850 315.786850 L 178.663850 315.636850 L 180.082850 315.486850 L 181.490850 315.255850 L 182.898850 315.023850 L 184.292850 314.719850 L 185.686850 314.414850 L 187.069850 314.061850 L 188.451850 313.708850 L 189.827850 313.330850 L 191.203850 312.952850 L 192.572850 312.550850 L 193.942850 312.148850" fill="none" id="30" stroke="#658424" stroke-width="0.5" /></svg>