<?xml version="1.0" encoding="utf-8" ?>
<svg baseProfile="full" height="673.5" version="1.1" viewBox="0,0,471.5,673.5" width="471.5" xmlns="http://www.w3.org/2000/svg" xmlns:ev="http://www.w3.org/2001/xml-events" xmlns:xlink="http://www.w3.org/1999/xlink"><defs><style type="text/css"><![CDATA[
	.background { fill: white; }
	.line { stroke: firebrick; stroke-width: .1mm; }
	.blacksquare { fill: indigo; }
	.whitesquare { fill: white; }
]]></style></defs><rect class="background" height="100%" width="100%" x="0" y="0" /><path d="M 30.360200 298.526000 L 35.014800 296.994000 L 39.632100 295.354000 L 44.192400 293.561000 L 48.709300 291.662000 L 53.178800 289.654000 L 57.609700 287.561000 L 62.029700 285.446000 L 66.449000 283.329000 L 70.868300 281.213000 L 75.287600 279.096000 L 79.706900 276.979000 L 84.127000 274.864000 L 88.551800 272.759000 L 92.984900 270.671000 L 97.423200 268.595000 L 101.862000 266.518000 L 106.300000 264.442000 L 110.738000 262.365000 L 115.176000 260.288000 L 119.615000 258.212000 L 124.053000 256.135000 L 128.491000 254.058000 L 132.930000 251.982000 L 137.368000 249.905000 L 141.812000 247.842000 L 146.274000 245.816000 L 150.749000 243.821000 L 155.246000 241.874000 L 159.761000 239.970000 L 164.276000 238.065000 L 168.780000 236.137000 L 173.278000 234.192000 L 177.774000 232.244000 L 182.271000 230.297000 L 186.767000 228.349000 L 191.264000 226.402000 L 195.760000 224.454000 L 200.256000 222.507000 L 204.755000 220.564000 L 209.271000 218.662000 L 213.808000 216.811000 L 218.360000 214.998000" fill="none" id="0" stroke="#c583d9" stroke-width="0.5" /><path d="M 187.557000 330.746000 L 187.117000 329.442000 L 186.678000 328.138000 L 186.207000 326.845000 L 185.737000 325.552000 L 185.224000 324.275000 L 184.712000 322.998000 L 184.154000 321.740000 L 183.596000 320.483000 L 183.019000 319.233000 L 182.443000 317.984000 L 181.844000 316.745000 L 181.246000 315.506000 L 180.631000 314.275000 L 180.015000 313.044000 L 179.391000 311.818000 L 178.766000 310.592000 L 178.139000 309.367000 L 177.511000 308.143000 L 176.885000 306.917000 L 176.259000 305.692000 L 175.638000 304.464000 L 175.016000 303.237000 L 174.402000 302.005000 L 173.788000 300.774000 L 173.180000 299.540000 L 172.572000 298.305000 L 171.969000 297.069000 L 171.365000 295.832000 L 170.768000 294.592000 L 170.171000 293.352000" fill="none" id="1" stroke="#f375a0" stroke-width="0.5" /><path d="M 190.234000 206.730000 L 194.717000 208.919000 L 199.146000 211.216000 L 203.494000 213.661000 L 207.785000 216.205000 L 212.051000 218.792000 L 216.310000 221.389000 L 220.569000 223.987000 L 224.828000 226.585000 L 229.087000 229.183000 L 233.335000 231.798000 L 237.561000 234.450000 L 241.773000 237.123000 L 245.984000 239.798000 L 250.195000 242.473000 L 254.406000 245.148000 L 258.617000 247.823000 L 262.828000 250.498000 L 267.039000 253.173000 L 271.250000 255.848000 L 275.462000 258.521000 L 279.680000 261.186000 L 283.906000 263.836000 L 288.136000 266.482000 L 292.365000 269.127000 L 296.595000 271.773000 L 300.824000 274.418000 L 305.054000 277.063000 L 309.284000 279.709000 L 313.516000 282.350000 L 317.761000 284.970000 L 322.015000 287.576000 L 326.271000 290.180000 L 330.533000 292.772000 L 334.831000 295.305000 L 339.163000 297.779000 L 343.506000 300.234000 L 347.849000 302.688000 L 352.193000 305.141000 L 356.537000 307.595000 L 360.880000 310.049000 L 365.224000 312.502000 L 369.568000 314.956000 L 373.911000 317.410000 L 378.250000 319.872000 L 382.575000 322.358000 L 386.881000 324.877000 L 391.171000 327.424000 L 395.444000 329.999000 L 399.712000 332.581000 L 403.980000 335.164000 L 408.249000 337.746000 L 412.517000 340.329000 L 416.785000 342.911000" fill="none" id="2" stroke="#9de993" stroke-width="0.5" /><path d="M 11.336600 309.581000 L 15.058900 312.900000 L 18.822400 316.174000 L 22.634700 319.389000 L 26.506400 322.534000 L 30.389000 325.665000 L 34.273100 328.794000 L 38.167000 331.910000 L 42.082200 335.000000 L 46.005300 338.080000 L 49.929300 341.159000 L 53.853300 344.238000 L 57.777400 347.316000 L 61.703300 350.393000 L 65.641800 353.453000 L 69.604000 356.482000 L 73.581200 359.492000 L 77.561500 362.498000 L 81.541800 365.503000 L 85.524000 368.507000 L 89.519300 371.492000 L 93.536000 374.449000 L 97.562800 377.392000 L 101.590000 380.334000 L 105.617000 383.277000 L 109.644000 386.219000 L 113.672000 389.162000 L 117.703000 392.099000 L 121.753000 395.010000 L 125.833000 397.879000 L 129.923000 400.734000 L 134.027000 403.567000 L 138.192000 406.311000 L 142.393000 408.999000 L 146.601000 411.677000 L 150.820000 414.336000 L 155.058000 416.967000 L 159.301000 419.589000 L 163.544000 422.211000 L 167.787000 424.833000 L 172.030000 427.455000" fill="none" id="3" stroke="#ad5ba7" stroke-width="0.5" /><path d="M 188.502000 455.636000 L 192.897000 453.385000 L 197.265000 451.085000 L 201.592000 448.706000 L 205.897000 446.288000 L 210.231000 443.923000 L 214.611000 441.643000 L 219.013000 439.407000 L 223.417000 437.175000 L 227.821000 434.943000 L 232.225000 432.711000 L 236.613000 430.446000 L 240.987000 428.157000 L 245.359000 425.863000 L 249.732000 423.569000 L 254.104000 421.275000 L 258.476000 418.981000 L 262.849000 416.687000 L 267.234000 414.419000 L 271.651000 412.213000 L 276.082000 410.035000 L 280.515000 407.859000 L 284.947000 405.684000 L 289.380000 403.509000 L 293.812000 401.333000 L 298.240000 399.149000 L 302.652000 396.933000 L 307.052000 394.691000 L 311.448000 392.444000 L 315.844000 390.196000 L 320.240000 387.948000 L 324.644000 385.716000 L 329.060000 383.507000 L 333.479000 381.304000 L 337.898000 379.102000 L 342.317000 376.899000 L 346.738000 374.700000 L 351.167000 372.519000 L 355.606000 370.358000 L 360.048000 368.201000 L 364.490000 366.045000 L 368.932000 363.889000 L 373.373000 361.733000 L 377.815000 359.577000 L 382.257000 357.420000 L 386.697000 355.260000 L 391.128000 353.083000 L 395.551000 350.888000 L 399.973000 348.691000 L 404.394000 346.493000 L 408.816000 344.296000 L 413.235000 342.095000 L 417.645000 339.873000 L 422.045000 337.634000 L 426.446000 335.395000 L 430.846000 333.155000 L 435.247000 330.916000 L 439.647000 328.677000 L 444.048000 326.437000 L 448.448000 324.198000 L 452.848000 321.959000" fill="none" id="4" stroke="#58f2c3" stroke-width="0.5" /><path d="M 12.942900 275.707000 L 13.405400 280.576000 L 13.903500 285.442000 L 14.455100 290.302000 L 15.040600 295.158000 L 15.589000 300.018000 L 16.032900 304.889000 L 16.406200 309.766000 L 16.770000 314.643000 L 17.122300 319.522000 L 17.408400 324.405000 L 17.644200 329.290000 L 17.869600 334.176000 L 18.087300 339.062000 L 18.277900 343.950000 L 18.457900 348.838000 L 18.637900 353.726000 L 18.817900 358.613000 L 18.997900 363.501000 L 19.178000 368.389000 L 19.358000 373.277000 L 19.538000 378.165000 L 19.718000 383.053000 L 19.898000 387.940000 L 20.073200 392.828000 L 20.232100 397.717000 L 20.377300 402.606000 L 20.522500 407.495000 L 20.667700 412.384000 L 20.812900 417.273000 L 20.958100 422.162000 L 21.103300 427.051000 L 21.248500 431.940000 L 21.393700 436.829000 L 21.541500 441.718000 L 21.703600 446.606000 L 21.887600 451.494000 L 22.076600 456.382000 L 22.265600 461.269000 L 22.454600 466.157000 L 22.643600 471.044000 L 22.832600 475.932000 L 23.021600 480.819000 L 23.210600 485.707000" fill="none" id="5" stroke="#c94e76" stroke-width="0.5" /><path d="M 15.809000 197.281000 L 15.425300 200.984000 L 15.155300 204.696000 L 15.051500 208.416000 L 15.068000 212.138000 L 15.085100 215.860000 L 15.102200 219.582000 L 15.119400 223.304000 L 15.136500 227.026000 L 15.153600 230.748000 L 15.170700 234.470000 L 15.187800 238.192000 L 15.204900 241.914000 L 15.222000 245.636000 L 15.235300 249.357000 L 15.241200 253.079000 L 15.242100 256.801000 L 15.242100 260.523000 L 15.242100 264.245000 L 15.242100 267.967000 L 15.242100 271.689000 L 15.242100 275.411000 L 15.242100 279.133000 L 15.242100 282.855000 L 15.242100 286.577000 L 15.242100 290.299000 L 15.242400 294.021000 L 15.249100 297.743000 L 15.320000 301.464000 L 15.498200 305.182000 L 15.746100 308.896000" fill="none" id="6" stroke="#c94e76" stroke-width="0.5" /><path d="M 7.620080 66.675200 L 7.490080 71.647300 L 7.500850 76.621000 L 7.701550 81.590600 L 8.044170 86.552600 L 8.404010 91.513500 L 8.765160 96.474200 L 9.126310 101.435000 L 9.487460 106.396000 L 9.848600 111.356000 L 10.209750 116.317000 L 10.570900 121.278000 L 10.913100 126.240000 L 11.211600 131.205000 L 11.487900 136.171000 L 11.734200 141.139000 L 11.893200 146.110000 L 11.965400 151.083000 L 12.008700 156.057000 L 12.042500 161.031000 L 12.054500 166.004000 L 12.051900 170.978000 L 12.046800 175.952000 L 12.041700 180.926000 L 12.036600 185.900000 L 12.031400 190.874000 L 12.026300 195.848000 L 12.021200 200.822000 L 12.016100 205.795000 L 12.011000 210.769000 L 12.005800 215.743000 L 12.000700 220.717000 L 11.995600 225.691000 L 11.990500 230.665000 L 11.985400 235.639000 L 11.980200 240.613000 L 11.975100 245.587000 L 11.970000 250.560000 L 11.964900 255.534000 L 11.959800 260.508000 L 11.954700 265.482000 L 11.949500 270.456000 L 11.944400 275.430000 L 11.944000 280.404000 L 11.963500 285.377000 L 12.011400 290.351000 L 12.073300 295.325000 L 12.137000 300.298000 L 12.200800 305.272000 L 12.264600 310.245000 L 12.327800 315.219000 L 12.385600 320.192000 L 12.426100 325.166000 L 12.454000 330.140000 L 12.480500 335.113000 L 12.507000 340.087000 L 12.533500 345.061000" fill="none" id="7" stroke="#57b870" stroke-width="0.5" /><path d="M 184.030000 400.077000 L 184.770000 404.979000 L 185.419000 409.893000 L 185.927000 414.825000 L 186.400000 419.759000 L 186.854000 424.696000 L 187.266000 429.636000 L 187.624000 434.581000 L 187.968000 439.526000 L 188.283000 444.474000 L 188.536000 449.425000 L 188.748000 454.378000 L 188.921000 459.332000 L 189.019000 464.288000 L 189.060000 469.246000 L 189.074000 474.203000 L 189.078000 479.161000 L 189.082000 484.118000 L 189.087000 489.076000 L 189.091000 494.033000 L 189.095000 498.991000 L 189.086000 503.948000 L 189.018000 508.905000 L 188.908000 513.861000 L 188.795000 518.817000 L 188.681000 523.774000 L 188.545000 528.729000 L 188.390000 533.684000 L 188.234000 538.639000 L 188.078000 543.594000 L 187.923000 548.549000 L 187.769000 553.504000 L 187.630000 558.460000 L 187.516000 563.416000 L 187.414000 568.373000 L 187.314000 573.329000 L 187.214000 578.285000 L 187.114000 583.242000 L 187.019000 588.198000 L 186.943000 593.155000 L 186.887000 598.113000 L 186.838000 603.070000 L 186.789000 608.027000 L 186.740000 612.984000 L 186.693000 617.942000 L 186.658000 622.899000 L 186.650000 627.856000 L 186.654000 632.814000 L 186.660000 637.771000 L 186.665000 642.729000 L 186.670000 647.686000 L 186.675000 652.644000" fill="none" id="8" stroke="#d271bb" stroke-width="0.5" /><path d="M 190.234000 188.069000 L 190.230000 193.000000 L 190.225000 197.931000 L 190.221000 202.861000 L 190.217000 207.792000 L 190.212000 212.723000 L 190.208000 217.654000 L 190.181000 222.585000 L 190.031000 227.513000 L 189.842000 232.441000 L 189.649000 237.368000 L 189.456000 242.295000 L 189.263000 247.222000 L 189.071000 252.149000 L 188.895000 257.077000 L 188.739000 262.005000 L 188.587000 266.934000 L 188.435000 271.862000 L 188.283000 276.791000 L 188.131000 281.719000 L 188.018000 286.649000 L 187.928000 291.579000 L 187.841000 296.509000 L 187.755000 301.439000 L 187.668000 306.369000 L 187.582000 311.299000 L 187.495000 316.229000 L 187.409000 321.159000 L 187.334000 326.089000 L 187.305000 331.020000 L 187.305000 335.951000 L 187.305000 340.882000 L 187.305000 345.813000 L 187.305000 350.744000 L 187.305000 355.674000 L 187.305000 360.605000 L 187.305000 365.536000 L 187.309000 370.467000 L 187.334000 375.398000 L 187.388000 380.328000 L 187.453000 385.259000 L 187.518000 390.189000 L 187.583000 395.120000 L 187.648000 400.050000 L 187.713000 404.980000 L 187.773000 409.911000 L 187.821000 414.842000 L 187.863000 419.772000 L 187.906000 424.703000 L 187.948000 429.634000 L 187.991000 434.564000 L 188.033000 439.495000 L 188.076000 444.426000 L 188.118000 449.356000 L 188.161000 454.287000 L 188.203000 459.218000 L 188.246000 464.148000 L 188.288000 469.079000 L 188.332000 474.010000 L 188.392000 478.940000 L 188.525000 483.869000 L 188.687000 488.797000 L 188.862000 493.725000 L 189.125000 498.649000 L 189.487000 503.567000 L 189.919000 508.478000" fill="none" id="9" stroke="#d271bb" stroke-width="0.5" /><path d="M 187.620000 319.833000 L 187.912000 322.654000 L 188.145000 325.481000 L 188.296000 328.313000 L 188.369000 331.149000 L 188.385000 333.986000 L 188.352000 336.822000 L 188.239000 339.656000 L 188.062000 342.487000 L 187.844000 345.316000 L 187.614000 348.143000 L 187.383000 350.970000 L 187.153000 353.798000 L 186.925000 356.625000 L 186.705000 359.453000 L 186.503000 362.283000 L 186.335000 365.115000 L 186.181000 367.947000 L 186.030000 370.780000 L 185.880000 373.613000 L 185.730000 376.445000 L 185.591000 379.279000 L 185.476000 382.113000 L 185.378000 384.948000 L 185.298000 387.784000 L 185.245000 390.620000 L 185.230000 393.456000 L 185.239000 396.293000 L 185.274000 399.130000 L 185.335000 401.966000 L 185.415000 404.801000" fill="none" id="10" stroke="#d271bb" stroke-width="0.5" /><path d="M 187.274000 330.108000 L 187.355000 333.098000 L 187.456000 336.087000 L 187.582000 339.074000 L 187.734000 342.061000 L 187.903000 345.047000 L 188.072000 348.033000 L 188.241000 351.018000 L 188.411000 354.004000 L 188.580000 356.990000 L 188.746000 359.976000 L 188.904000 362.962000 L 189.043000 365.949000 L 189.144000 368.938000 L 189.233000 371.928000 L 189.318000 374.917000 L 189.403000 377.906000 L 189.488000 380.896000 L 189.573000 383.885000 L 189.654000 386.874000 L 189.718000 389.864000 L 189.759000 392.854000 L 189.786000 395.845000 L 189.812000 398.835000 L 189.842000 401.826000 L 189.891000 404.816000 L 189.960000 407.806000 L 190.056000 410.795000 L 190.182000 413.782000 L 190.338000 416.769000 L 190.518000 419.754000" fill="none" id="11" stroke="#d271bb" stroke-width="0.5" /><path d="M 99.935000 119.848000 L 101.920000 124.383000 L 103.931000 128.906000 L 105.982000 133.411000 L 108.045000 137.911000 L 110.056000 142.434000 L 112.005000 146.985000 L 113.899000 151.558000 L 115.740000 156.153000 L 117.567000 160.753000 L 119.390000 165.356000 L 121.194000 169.965000 L 122.973000 174.585000 L 124.741000 179.208000 L 126.508000 183.832000 L 128.274000 188.456000 L 130.056000 193.075000 L 131.880000 197.677000 L 133.749000 202.260000 L 135.661000 206.826000 L 137.602000 211.379000 L 139.554000 215.929000 L 141.512000 220.475000 L 143.492000 225.012000 L 145.495000 229.539000 L 147.505000 234.062000 L 149.522000 238.582000 L 151.573000 243.088000 L 153.677000 247.568000 L 155.828000 252.027000 L 158.029000 256.460000 L 160.283000 260.867000 L 162.579000 265.253000 L 164.883000 269.634000 L 167.185000 274.016000 L 169.472000 278.406000 L 171.720000 282.816000 L 173.960000 287.231000 L 176.187000 291.652000" fill="none" id="12" stroke="#3d8e43" stroke-width="0.5" /><path d="M 102.549000 135.132000 L 105.536000 139.073000 L 108.326000 143.156000 L 110.816000 147.429000 L 113.110000 151.810000 L 115.209000 156.288000 L 117.188000 160.820000 L 119.062000 165.396000 L 120.910000 169.984000 L 122.756000 174.572000 L 124.602000 179.160000 L 126.448000 183.748000 L 128.294000 188.336000 L 130.140000 192.924000 L 131.989000 197.511000 L 133.861000 202.089000 L 135.768000 206.651000 L 137.698000 211.205000 L 139.640000 215.753000 L 141.603000 220.292000 L 143.580000 224.825000 L 145.561000 229.357000 L 147.544000 233.888000 L 149.545000 238.410000 L 151.581000 242.917000 L 153.644000 247.412000 L 155.714000 251.903000 L 157.784000 256.395000 L 159.854000 260.887000 L 161.923000 265.378000 L 163.993000 269.870000 L 166.063000 274.361000 L 168.133000 278.853000 L 170.193000 283.349000 L 172.212000 287.863000 L 174.203000 292.390000 L 176.190000 296.919000 L 178.176000 301.448000 L 180.140000 305.987000 L 181.921000 310.601000 L 183.652000 315.233000 L 185.271000 319.906000 L 186.750000 324.625000 L 188.124000 329.376000" fill="none" id="13" stroke="#3d8e43" stroke-width="0.5" /><path d="M 162.896000 270.037000 L 164.002000 271.766000 L 165.081000 273.511000 L 166.130000 275.276000 L 167.108000 277.080000 L 168.053000 278.901000 L 168.944000 280.750000 L 169.855000 282.589000 L 170.775000 284.424000 L 171.704000 286.254000 L 172.633000 288.084000 L 173.563000 289.914000 L 174.492000 291.744000 L 175.421000 293.574000 L 176.350000 295.404000 L 177.279000 297.234000 L 178.206000 299.065000 L 179.128000 300.899000 L 180.034000 302.740000 L 180.930000 304.586000 L 181.806000 306.443000 L 182.680000 308.299000 L 183.552000 310.157000 L 184.426000 312.014000 L 185.304000 313.870000 L 186.187000 315.722000 L 187.084000 317.568000 L 187.985000 319.412000 L 188.889000 321.255000 L 189.797000 323.095000 L 190.707000 324.935000" fill="none" id="14" stroke="#3d8e43" stroke-width="0.5" /><path d="M 208.156000 0.250000 L 208.085000 5.175320 L 208.041000 10.100950 L 208.035000 15.026800 L 208.057000 19.952500 L 208.256000 24.874300 L 208.546000 29.791600 L 208.845000 34.708400 L 209.143000 39.625200 L 209.426000 44.542900 L 209.664000 49.462900 L 209.894000 54.383400 L 210.095000 59.305100 L 210.252000 64.228400 L 210.398000 69.152100 L 210.543000 74.075800 L 210.689000 78.999400 L 210.835000 83.923100 L 210.980000 88.846800 L 211.111000 93.770900 L 211.200000 98.695900 L 211.267000 103.621000 L 211.331000 108.547000 L 211.395000 113.472000 L 211.460000 118.397000 L 211.524000 123.323000 L 211.572000 128.248000 L 211.588000 133.174000 L 211.589000 138.100000 L 211.589000 143.026000 L 211.589000 147.952000 L 211.589000 152.878000 L 211.589000 157.803000 L 211.598000 162.729000 L 211.641000 167.655000 L 211.718000 172.580000 L 211.832000 177.505000 L 212.028000 182.426000 L 212.232000 187.348000 L 212.435000 192.270000 L 212.639000 197.191000 L 212.843000 202.113000 L 213.048000 207.034000 L 213.269000 211.955000 L 213.535000 216.874000 L 213.811000 221.792000 L 214.088000 226.710000 L 214.364000 231.628000 L 214.640000 236.546000 L 214.917000 241.464000 L 215.193000 246.382000 L 215.470000 251.300000 L 215.746000 256.219000" fill="none" id="15" stroke="#00d4db" stroke-width="0.5" /><path d="M 215.841000 191.116000 L 215.344000 196.057000 L 215.061000 201.014000 L 215.070000 205.979000 L 215.297000 210.940000 L 215.524000 215.900000 L 215.751000 220.861000 L 215.978000 225.821000 L 216.205000 230.782000 L 216.432000 235.742000 L 216.659000 240.702000 L 216.867000 245.664000 L 216.992000 250.628000 L 217.072000 255.593000 L 217.146000 260.558000 L 217.221000 265.523000 L 217.295000 270.488000 L 217.370000 275.453000 L 217.454000 280.418000 L 217.554000 285.383000 L 217.664000 290.347000 L 217.775000 295.311000 L 217.887000 300.276000 L 217.998000 305.240000 L 218.110000 310.205000 L 218.222000 315.169000 L 218.333000 320.133000 L 218.445000 325.098000 L 218.556000 330.062000 L 218.668000 335.026000 L 218.773000 339.991000 L 218.860000 344.956000 L 218.930000 349.921000 L 218.993000 354.886000 L 219.057000 359.852000 L 219.121000 364.817000 L 219.184000 369.782000 L 219.248000 374.747000 L 219.312000 379.712000 L 219.375000 384.678000 L 219.439000 389.643000 L 219.503000 394.608000 L 219.566000 399.573000 L 219.630000 404.539000 L 219.694000 409.504000 L 219.758000 414.469000 L 219.821000 419.434000 L 219.885000 424.400000 L 219.954000 429.365000 L 220.062000 434.329000 L 220.191000 439.293000 L 220.322000 444.257000 L 220.452000 449.221000 L 220.583000 454.185000 L 220.713000 459.149000 L 220.844000 464.113000 L 220.974000 469.077000" fill="none" id="16" stroke="#d55969" stroke-width="0.5" /><path d="M 401.226000 80.659500 L 401.879000 85.579700 L 402.412000 90.514200 L 402.793000 95.462700 L 403.010000 100.421000 L 403.104000 105.384000 L 403.102000 110.347000 L 403.092000 115.310000 L 403.083000 120.273000 L 403.073000 125.237000 L 403.062000 130.200000 L 403.018000 135.163000 L 402.877000 140.124000 L 402.720000 145.085000 L 402.609000 150.047000 L 402.510000 155.009000 L 402.410000 159.972000 L 402.317000 164.934000 L 402.253000 169.897000 L 402.239000 174.860000 L 402.241000 179.824000 L 402.245000 184.787000 L 402.248000 189.750000 L 402.251000 194.714000 L 402.254000 199.677000 L 402.257000 204.640000 L 402.261000 209.604000 L 402.269000 214.567000 L 402.298000 219.530000 L 402.348000 224.493000 L 402.407000 229.456000 L 402.467000 234.419000 L 402.527000 239.382000 L 402.585000 244.345000 L 402.627000 249.308000 L 402.642000 254.271000 L 402.644000 259.235000 L 402.644000 264.198000 L 402.644000 269.161000 L 402.644000 274.125000 L 402.636000 279.088000 L 402.602000 284.051000 L 402.545000 289.014000 L 402.481000 293.977000 L 402.417000 298.940000 L 402.353000 303.903000 L 402.289000 308.866000 L 402.225000 313.829000 L 402.161000 318.791000 L 402.097000 323.754000 L 402.034000 328.717000 L 401.979000 333.680000 L 401.954000 338.644000 L 401.951000 343.607000 L 401.951000 348.570000 L 401.951000 353.533000 L 401.951000 358.497000 L 401.957000 363.460000 L 402.059000 368.422000 L 402.205000 373.383000 L 402.356000 378.344000 L 402.518000 383.305000" fill="none" id="17" stroke="#64e4ff" stroke-width="0.5" /><path d="M 403.211000 218.612000 L 402.970000 221.269000 L 402.759000 223.928000 L 402.582000 226.589000 L 402.443000 229.253000 L 402.362000 231.919000 L 402.295000 234.586000 L 402.236000 237.253000 L 402.180000 239.920000 L 402.125000 242.587000 L 402.081000 245.254000 L 402.055000 247.921000 L 402.045000 250.588000 L 402.045000 253.256000 L 402.045000 255.923000 L 402.071000 258.591000 L 402.134000 261.257000 L 402.245000 263.922000 L 402.395000 266.586000 L 402.556000 269.248000 L 402.729000 271.910000 L 402.919000 274.571000 L 403.123000 277.230000 L 403.332000 279.890000 L 403.541000 282.549000 L 403.743000 285.209000 L 403.931000 287.870000 L 404.086000 290.533000 L 404.226000 293.196000 L 404.355000 295.861000 L 404.470000 298.526000" fill="none" id="18" stroke="#64e4ff" stroke-width="0.5" /><path d="M 409.384000 286.266000 L 409.372000 291.194000 L 409.360000 296.123000 L 409.347000 301.052000 L 409.335000 305.981000 L 409.323000 310.909000 L 409.311000 315.838000 L 409.299000 320.767000 L 409.268000 325.695000 L 409.204000 330.624000 L 409.134000 335.552000 L 409.010000 340.479000 L 408.845000 345.405000 L 408.674000 350.331000 L 408.503000 355.256000 L 408.338000 360.182000 L 408.225000 365.110000 L 408.137000 370.038000 L 408.052000 374.966000 L 407.968000 379.894000 L 407.883000 384.822000 L 407.799000 389.750000 L 407.714000 394.678000 L 407.630000 399.606000 L 407.545000 404.534000 L 407.460000 409.462000 L 407.376000 414.390000 L 407.283000 419.317000 L 407.170000 424.245000 L 407.042000 429.172000 L 406.913000 434.099000 L 406.784000 439.026000 L 406.655000 443.953000 L 406.526000 448.880000 L 406.397000 453.807000 L 406.268000 458.734000 L 406.139000 463.661000 L 406.010000 468.588000 L 405.881000 473.515000 L 405.752000 478.442000 L 405.623000 483.369000 L 405.497000 488.296000 L 405.388000 493.224000 L 405.295000 498.152000 L 405.203000 503.079000 L 405.110000 508.007000 L 405.023000 512.935000 L 404.959000 517.864000 L 404.919000 522.792000 L 404.883000 527.721000 L 404.847000 532.649000 L 404.811000 537.578000 L 404.775000 542.506000 L 404.739000 547.435000 L 404.706000 552.364000 L 404.691000 557.292000 L 404.691000 562.221000 L 404.691000 567.150000 L 404.691000 572.078000 L 404.691000 577.007000 L 404.691000 581.936000 L 404.691000 586.865000 L 404.691000 591.793000" fill="none" id="19" stroke="#e68e54" stroke-width="0.5" /><path d="M 19.116100 530.470000 L 22.984300 533.598000 L 26.837900 536.744000 L 30.670900 539.915000 L 34.490200 543.102000 L 38.309400 546.289000 L 42.122600 549.484000 L 45.887400 552.735000 L 49.586900 556.060000 L 53.266000 559.408000 L 56.943000 562.759000 L 60.620100 566.109000 L 64.307300 569.448000 L 68.025900 572.752000 L 71.759800 576.039000 L 75.500400 579.318000 L 79.260000 582.575000 L 83.046800 585.801000 L 86.858900 588.997000 L 90.691000 592.169000 L 94.530400 595.332000 L 98.369800 598.495000 L 102.209000 601.658000 L 106.044000 604.826000 L 109.853000 608.026000 L 113.618000 611.276000 L 117.363000 614.551000 L 121.106000 617.827000 L 124.849000 621.104000 L 128.593000 624.379000 L 132.351000 627.638000 L 136.146000 630.854000 L 139.977000 634.027000 L 143.845000 637.156000 L 147.740000 640.249000 L 151.656000 643.316000 L 155.591000 646.360000 L 159.527000 649.402000 L 163.464000 652.443000 L 167.400000 655.484000 L 171.337000 658.526000" fill="none" id="20" stroke="#54aeff" stroke-width="0.5" /><path d="M 40.155500 545.211000 L 43.334900 547.779000 L 46.429300 550.448000 L 49.392500 553.263000 L 52.297500 556.138000 L 55.201800 559.013000 L 58.106100 561.889000 L 61.012600 564.762000 L 63.939600 567.614000 L 66.910800 570.421000 L 69.902800 573.205000 L 72.897900 575.986000 L 75.893100 578.766000 L 78.890300 581.545000 L 81.901700 584.308000 L 84.944900 587.036000 L 88.023400 589.724000 L 91.136800 592.372000 L 94.288500 594.974000 L 97.462900 597.548000 L 100.642000 600.117000 L 103.820000 602.686000 L 106.999000 605.255000 L 110.170000 607.834000 L 113.302000 610.459000 L 116.384000 613.143000 L 119.447000 615.848000 L 122.509000 618.555000 L 125.587000 621.244000 L 128.714000 623.876000 L 131.872000 626.470000" fill="none" id="21" stroke="#54aeff" stroke-width="0.5" /><path d="M 195.179000 672.911000 L 199.625000 670.744000 L 204.071000 668.577000 L 208.521000 666.416000 L 212.966000 664.247000 L 217.374000 662.003000 L 221.778000 659.752000 L 226.218000 657.571000 L 230.679000 655.436000 L 235.143000 653.305000 L 239.599000 651.158000 L 244.016000 648.931000 L 248.389000 646.621000 L 252.732000 644.254000 L 257.070000 641.877000 L 261.408000 639.500000 L 265.747000 637.125000 L 270.107000 634.790000 L 274.493000 632.503000 L 278.886000 630.230000 L 283.279000 627.958000 L 287.672000 625.685000 L 292.065000 623.412000 L 296.453000 621.129000 L 300.825000 618.816000 L 305.188000 616.486000 L 309.551000 614.156000 L 313.914000 611.826000 L 318.277000 609.496000 L 322.640000 607.166000 L 326.995000 604.820000 L 331.333000 602.443000 L 335.670000 600.066000 L 340.035000 597.739000 L 344.424000 595.459000 L 348.818000 593.186000 L 353.211000 590.914000 L 357.602000 588.636000 L 361.981000 586.336000 L 366.346000 584.011000 L 370.709000 581.681000 L 375.073000 579.352000 L 379.435000 577.021000 L 383.793000 574.680000 L 388.139000 572.320000 L 392.486000 569.960000 L 396.833000 567.599000 L 401.182000 565.243000 L 405.547000 562.917000 L 409.940000 560.644000 L 414.338000 558.380000 L 418.736000 556.117000 L 423.134000 553.853000 L 427.531000 551.589000 L 431.929000 549.326000 L 436.325000 547.058000 L 440.710000 544.769000 L 445.083000 542.458000 L 449.456000 540.147000 L 453.829000 537.836000 L 458.203000 535.526000" fill="none" id="22" stroke="#eed973" stroke-width="0.5" /><path d="M 15.147600 518.990000 L 19.760700 517.256000 L 24.383900 515.548000 L 29.039200 513.930000 L 33.668300 512.239000 L 38.282000 510.506000 L 42.850300 508.657000 L 47.375500 506.704000 L 51.893600 504.735000 L 56.386300 502.709000 L 60.830600 500.579000 L 65.259500 498.417000 L 69.687300 496.253000 L 74.115200 494.089000 L 78.543000 491.925000 L 82.975900 489.771000 L 87.422300 487.645000 L 91.875200 485.533000 L 96.328100 483.421000 L 100.781000 481.309000 L 105.234000 479.196000 L 109.677000 477.063000 L 114.101000 474.892000 L 118.515000 472.701000 L 122.930000 470.509000 L 127.344000 468.318000 L 131.759000 466.127000 L 136.181000 463.950000 L 140.633000 461.837000 L 145.122000 459.802000 L 149.611000 457.767000 L 154.099000 455.733000 L 158.588000 453.698000 L 163.077000 451.663000 L 167.566000 449.628000 L 172.054000 447.593000 L 176.543000 445.558000 L 181.032000 443.523000 L 185.521000 441.489000 L 190.016000 439.470000 L 194.530000 437.490000 L 199.053000 435.533000" fill="none" id="23" stroke="#008bd4" stroke-width="0.5" /><path d="M 227.494000 433.337000 L 232.027000 435.304000 L 236.527000 437.347000 L 240.979000 439.492000 L 245.386000 441.728000 L 249.710000 444.120000 L 253.990000 446.590000 L 258.261000 449.077000 L 262.531000 451.565000 L 266.800000 454.053000 L 271.070000 456.541000 L 275.340000 459.029000 L 279.609000 461.517000 L 283.879000 464.005000 L 288.149000 466.494000 L 292.418000 468.983000 L 296.669000 471.502000 L 300.911000 474.038000 L 305.152000 476.575000 L 309.393000 479.111000 L 313.634000 481.648000 L 317.881000 484.174000 L 322.145000 486.672000 L 326.427000 489.139000 L 330.731000 491.566000 L 335.053000 493.963000 L 339.375000 496.359000 L 343.697000 498.755000 L 348.019000 501.151000 L 352.341000 503.547000 L 356.663000 505.943000 L 360.984000 508.342000 L 365.292000 510.763000 L 369.572000 513.234000 L 373.840000 515.724000 L 378.108000 518.214000 L 382.372000 520.712000 L 386.623000 523.232000 L 390.867000 525.765000 L 395.110000 528.298000 L 399.354000 530.830000 L 403.598000 533.361000 L 407.859000 535.865000 L 412.150000 538.316000 L 416.447000 540.757000 L 420.754000 543.179000" fill="none" id="24" stroke="#fdb968" stroke-width="0.5" /><path d="M 0.438970 263.589000 L 5.165850 262.061000 L 9.879670 260.493000 L 14.580900 258.888000 L 19.250600 257.193000 L 23.898400 255.440000 L 28.534600 253.655000 L 33.151800 251.823000 L 37.756700 249.959000 L 42.337300 248.037000 L 46.912600 246.101000 L 51.487600 244.166000 L 56.062600 242.230000 L 60.637700 240.294000 L 65.216600 238.368000 L 69.809200 236.474000 L 74.414100 234.611000 L 79.022100 232.755000 L 83.630100 230.899000 L 88.238200 229.043000 L 92.846100 227.187000 L 97.451600 225.325000 L 102.052000 223.450000 L 106.648000 221.566000 L 111.244000 219.680000 L 115.840000 217.795000 L 120.441000 215.920000 L 125.057000 214.086000 L 129.693000 212.300000 L 134.336000 210.533000 L 138.979000 208.767000 L 143.622000 207.002000 L 148.266000 205.236000 L 152.909000 203.470000 L 157.550000 201.699000 L 162.186000 199.915000 L 166.818000 198.118000 L 171.448000 196.317000 L 176.077000 194.517000 L 180.707000 192.717000 L 185.337000 190.916000 L 189.968000 189.116000 L 194.601000 187.324000 L 199.247000 185.565000 L 203.902000 183.832000 L 208.558000 182.101000 L 213.215000 180.370000 L 217.871000 178.639000 L 222.528000 176.908000 L 227.184000 175.178000 L 231.841000 173.447000" fill="none" id="25" stroke="#6f73bc" stroke-width="0.5" /><path d="M 180.470000 182.116000 L 184.595000 179.309000 L 188.929000 176.841000 L 193.495000 174.835000 L 198.220000 173.234000 L 202.952000 171.651000 L 207.680000 170.059000 L 212.392000 168.416000 L 217.094000 166.748000 L 221.796000 165.080000 L 226.505000 163.429000 L 231.223000 161.806000 L 235.943000 160.189000 L 240.649000 158.533000 L 245.330000 156.806000 L 249.997000 155.041000 L 254.658000 153.260000 L 259.306000 151.445000 L 263.937000 149.589000 L 268.562000 147.717000 L 273.189000 145.850000 L 277.823000 144.000000 L 282.467000 142.177000 L 287.115000 140.364000 L 291.764000 138.551000 L 296.412000 136.739000 L 301.061000 134.927000 L 305.709000 133.113000 L 310.353000 131.289000 L 314.990000 129.446000 L 319.624000 127.598000 L 324.259000 125.750000 L 328.894000 123.902000 L 333.528000 122.054000 L 338.163000 120.207000 L 342.805000 118.377000 L 347.482000 116.641000 L 352.170000 114.932000 L 356.858000 113.224000 L 361.546000 111.517000 L 366.234000 109.809000" fill="none" id="26" stroke="#bee481" stroke-width="0.5" /><path d="M 14.108300 74.470500 L 18.573800 72.321400 L 23.141600 70.400700 L 27.831800 68.801800 L 32.595600 67.435300 L 37.363200 66.082200 L 42.130900 64.729600 L 46.898600 63.377100 L 51.666400 62.024600 L 56.434100 60.672100 L 61.201800 59.319600 L 65.969600 57.967100 L 70.737100 56.613800 L 75.501800 55.250700 L 80.260700 53.867500 L 85.017200 52.475900 L 89.773600 51.083900 L 94.529900 49.691900 L 99.286300 48.299900 L 104.043000 46.907900 L 108.799000 45.516000 L 113.556000 44.125600 L 118.316000 42.746500 L 123.083000 41.390100 L 127.854000 40.049500 L 132.626000 38.712100 L 137.398000 37.374800 L 142.170000 36.037500 L 146.944000 34.707500 L 151.726000 33.406100 L 156.511000 32.116200 L 161.287000 30.793000 L 166.050000 29.424800 L 170.811000 28.049700 L 175.573000 26.674600 L 180.334000 25.299500 L 185.095000 23.924300 L 189.856000 22.549200" fill="none" id="27" stroke="#8f6aaf" stroke-width="0.5" /><path d="M 104.281000 122.896000 L 108.999000 121.428000 L 113.704000 119.922000 L 118.394000 118.371000 L 123.071000 116.781000 L 127.754000 115.207000 L 132.458000 113.702000 L 137.188000 112.276000 L 141.925000 110.872000 L 146.656000 109.451000 L 151.376000 107.995000 L 156.090000 106.515000 L 160.795000 105.010000 L 165.486000 103.463000 L 170.169000 101.889000 L 174.850000 100.310000 L 179.531000 98.731100 L 184.212000 97.152000 L 188.893000 95.573100 L 193.576000 94.000600 L 198.272000 92.467900 L 202.975000 90.954800 L 207.678000 89.442100 L 212.381000 87.929400 L 217.083000 86.416700 L 221.784000 84.896800 L 226.471000 83.337200 L 231.150000 81.750600 L 235.826000 80.159500 L 240.503000 78.568300 L 245.180000 76.977100 L 249.857000 75.386000 L 254.534000 73.794800 L 259.212000 72.206500 L 263.896000 70.639200 L 268.594000 69.111300 L 273.300000 67.608500 L 278.008000 66.110500 L 282.717000 64.619800 L 287.436000 63.157500 L 292.163000 61.721700 L 296.884000 60.268300 L 301.587000 58.755500 L 306.286000 57.230500 L 310.985000 55.705200 L 315.683000 54.179100" fill="none" id="28" stroke="#8bb658" stroke-width="0.5" /><path d="M 94.549200 125.683000 L 99.457700 124.753000 L 104.336000 123.677000 L 109.175000 122.434000 L 113.946000 120.953000 L 118.676000 119.346000 L 123.396000 117.710000 L 128.116000 116.072000 L 132.836000 114.434000 L 137.555000 112.795000 L 142.275000 111.157000 L 146.994000 109.519000 L 151.713000 107.877000 L 156.425000 106.216000 L 161.127000 104.529000 L 165.826000 102.834000 L 170.519000 101.120000 L 175.195000 99.361000 L 179.865000 97.586400 L 184.538000 95.820100 L 189.221000 94.080800 L 193.914000 92.367600 L 198.610000 90.662300 L 203.311000 88.972600 L 208.027000 87.322800 L 212.753000 85.703300 L 217.481000 84.090800 L 222.210000 82.478300 L 226.938000 80.865800 L 231.667000 79.253300 L 236.395000 77.640800 L 241.125000 76.031400 L 245.859000 74.435700 L 250.599000 72.858900 L 255.342000 71.288800 L 260.086000 69.722800 L 264.840000 68.186700 L 269.614000 66.714100 L 274.401000 65.286400 L 279.202000 63.902200 L 284.007000 62.537800 L 288.814000 61.175700 L 293.621000 59.813700 L 298.427000 58.451100 L 303.228000 57.069900 L 307.999000 55.588300 L 312.765000 54.091400 L 317.531000 52.592100 L 322.287000 51.061900 L 327.028000 49.487000 L 331.767000 47.906400 L 336.502000 46.313000" fill="none" id="29" stroke="#8bb658" stroke-width="0.5" /><path d="M 209.388000 125.813000 L 213.257000 123.809000 L 217.088000 121.735000 L 220.872000 119.575000 L 224.595000 117.312000 L 228.278000 114.983000 L 231.925000 112.600000 L 235.556000 110.192000 L 239.141000 107.715000 L 242.663000 105.150000 L 246.140000 102.524000 L 249.595000 99.869900 L 253.020000 97.177300 L 256.450000 94.490300 L 259.916000 91.849500 L 263.400000 89.233800 L 266.891000 86.626900 L 270.397000 84.040300 L 273.915000 81.468900 L 277.435000 78.901100 L 280.966000 76.348900 L 284.519000 73.827700 L 288.101000 71.346400 L 291.707000 68.900400 L 295.318000 66.462400 L 298.929000 64.024500 L 302.537000 61.582300 L 306.121000 59.104600 L 309.657000 56.558700 L 313.183000 53.998900 L 316.691000 51.415300" fill="none" id="30" stroke="#bbabff" stroke-width="0.5" /><path d="M 10.990200 197.919000 L 15.775600 196.686000 L 20.545200 195.393000 L 25.283000 193.987000 L 30.016800 192.569000 L 34.729900 191.083000 L 39.440000 189.587000 L 44.107100 187.962000 L 48.755500 186.285000 L 53.370900 184.519000 L 57.967100 182.703000 L 62.560100 180.879000 L 67.153100 179.056000 L 71.746100 177.232000 L 76.352600 175.443000 L 80.968400 173.677000 L 85.585900 171.917000 L 90.203300 170.156000 L 94.820800 168.395000 L 99.438300 166.634000 L 104.056000 164.873000 L 108.673000 163.112000 L 113.291000 161.352000 L 117.908000 159.591000 L 122.526000 157.830000 L 127.143000 156.069000 L 131.761000 154.309000 L 136.382000 152.557000 L 141.007000 150.817000 L 145.634000 149.081000 L 150.261000 147.346000 L 154.890000 145.615000 L 159.525000 143.901000 L 164.166000 142.205000 L 168.809000 140.512000 L 173.452000 138.819000 L 178.095000 137.126000 L 182.738000 135.433000 L 187.380000 133.740000 L 192.023000 132.047000 L 196.666000 130.354000 L 201.311000 128.668000 L 205.978000 127.042000 L 210.648000 125.426000 L 215.319000 123.811000 L 219.989000 122.196000 L 224.659000 120.581000" fill="none" id="31" stroke="#bbabff" stroke-width="0.5" /><path d="M 0.250000 192.864000 L 4.481850 195.354000 L 8.710330 197.849000 L 12.932400 200.355000 L 17.153700 202.862000 L 21.369700 205.378000 L 25.557600 207.941000 L 29.718500 210.547000 L 33.875600 213.160000 L 38.032700 215.772000 L 42.189900 218.384000 L 46.346900 220.997000 L 50.450800 223.692000 L 54.506000 226.460000 L 58.549400 229.245000 L 62.592800 232.030000 L 66.637900 234.813000 L 70.704700 237.564000 L 74.793600 240.281000 L 78.902700 242.969000 L 83.025100 245.635000 L 87.150300 248.298000 L 91.275400 250.960000 L 95.400600 253.623000 L 99.522100 256.291000 L 103.624000 258.990000 L 107.699000 261.728000 L 111.753000 264.498000 L 115.784000 267.300000 L 119.812000 270.108000 L 123.839000 272.916000 L 127.867000 275.724000 L 131.894000 278.533000 L 135.922000 281.341000 L 139.955000 284.140000 L 144.013000 286.905000 L 148.094000 289.634000 L 152.197000 292.330000 L 156.314000 295.006000 L 160.430000 297.682000 L 164.546000 300.359000 L 168.658000 303.042000 L 172.738000 305.773000 L 176.776000 308.565000 L 180.785000 311.400000" fill="none" id="32" stroke="#658424" stroke-width="0.5" /><path d="M 15.179100 194.589000 L 17.709000 191.799000 L 20.316100 189.081000 L 23.024400 186.464000 L 25.805500 183.925000 L 28.588200 181.387000 L 31.371000 178.849000 L 34.155400 176.313000 L 36.949500 173.788000 L 39.757100 171.278000 L 42.568500 168.772000 L 45.374800 166.261000 L 48.150600 163.716000 L 50.876900 161.117000 L 53.583800 158.499000 L 56.290800 155.881000 L 58.997700 153.262000 L 61.704600 150.644000 L 64.426600 148.041000 L 67.188900 145.481000 L 69.982300 142.955000 L 72.783600 140.438000 L 75.585400 137.921000 L 78.384800 135.402000 L 81.170300 132.867000 L 83.930500 130.305000 L 86.673500 127.724000 L 89.414100 125.141000 L 92.154600 122.558000 L 94.895200 119.975000 L 97.635800 117.392000" fill="none" id="33" stroke="#f1b9ff" stroke-width="0.5" /><path d="M 53.887800 348.581000 L 58.239600 346.263000 L 62.605900 343.972000 L 66.993700 341.722000 L 71.392600 339.495000 L 75.802700 337.289000 L 80.239800 335.139000 L 84.685300 333.006000 L 89.141600 330.895000 L 93.618600 328.829000 L 98.103500 326.780000 L 102.588000 324.731000 L 107.071000 322.677000 L 111.541000 320.596000 L 115.986000 318.463000 L 120.418000 316.302000 L 124.855000 314.150000 L 129.308000 312.034000 L 133.789000 309.977000 L 138.292000 307.968000 L 142.804000 305.980000 L 147.317000 303.993000 L 151.830000 302.006000 L 156.342000 300.018000 L 160.851000 298.022000 L 165.344000 295.992000 L 169.827000 293.938000 L 174.310000 291.884000 L 178.792000 289.830000 L 183.278000 287.783000 L 187.772000 285.755000 L 192.275000 283.745000 L 196.780000 281.741000 L 201.286000 279.738000 L 205.791000 277.735000 L 210.305000 275.751000 L 214.836000 273.805000 L 219.376000 271.883000 L 223.919000 269.966000 L 228.462000 268.048000 L 233.004000 266.130000 L 237.547000 264.213000 L 242.089000 262.295000 L 246.632000 260.378000 L 251.175000 258.460000 L 255.717000 256.542000 L 260.260000 254.625000 L 264.803000 252.707000 L 269.345000 250.790000 L 273.888000 248.872000" fill="none" id="34" stroke="#989c37" stroke-width="0.5" /><path d="M 183.400000 301.691000 L 187.917000 299.743000 L 192.449000 297.826000 L 197.003000 295.964000 L 201.558000 294.106000 L 206.092000 292.195000 L 210.608000 290.244000 L 215.122000 288.285000 L 219.637000 286.331000 L 224.162000 284.399000 L 228.698000 282.494000 L 233.236000 280.594000 L 237.763000 278.667000 L 242.271000 276.695000 L 246.756000 274.674000 L 251.228000 272.622000 L 255.698000 270.566000 L 260.168000 268.512000 L 264.647000 266.475000 L 269.148000 264.489000 L 273.674000 262.559000 L 278.215000 260.666000 L 282.767000 258.799000 L 287.320000 256.936000 L 291.872000 255.068000 L 296.412000 253.171000 L 300.933000 251.230000 L 305.447000 249.274000 L 309.961000 247.316000 L 314.475000 245.359000 L 318.989000 243.402000 L 323.503000 241.445000 L 328.016000 239.487000 L 332.530000 237.530000 L 337.052000 235.590000 L 341.588000 233.686000 L 346.136000 231.809000 L 350.687000 229.939000 L 355.238000 228.069000 L 359.788000 226.199000 L 364.339000 224.329000 L 368.890000 222.459000 L 373.447000 220.605000 L 378.021000 218.792000 L 382.604000 217.002000 L 387.188000 215.216000 L 391.772000 213.429000 L 396.356000 211.642000 L 400.940000 209.855000 L 405.524000 208.068000 L 410.108000 206.281000" fill="none" id="35" stroke="#bb568c" stroke-width="0.5" /><path d="M 54.549200 347.281000 L 59.356700 346.169000 L 64.138300 344.951000 L 68.881100 343.588000 L 73.584500 342.096000 L 78.287900 340.604000 L 82.982000 339.082000 L 87.660500 337.513000 L 92.306500 335.851000 L 96.923900 334.110000 L 101.537000 332.357000 L 106.149000 330.605000 L 110.758000 328.842000 L 115.335000 326.999000 L 119.901000 325.126000 L 124.465000 323.251000 L 129.030000 321.377000 L 133.595000 319.503000 L 138.159000 317.628000 L 142.724000 315.754000 L 147.305000 313.921000 L 151.916000 312.163000 L 156.541000 310.442000 L 161.165000 308.720000 L 165.789000 306.998000 L 170.412000 305.272000 L 175.025000 303.519000 L 179.623000 301.729000 L 184.217000 299.927000 L 188.810000 298.124000 L 193.404000 296.322000 L 197.998000 294.521000 L 202.603000 292.749000 L 207.230000 291.034000 L 211.861000 289.330000 L 216.492000 287.626000 L 221.123000 285.922000 L 225.754000 284.218000 L 230.385000 282.514000 L 235.016000 280.810000 L 239.645000 279.100000 L 244.262000 277.359000 L 248.861000 275.571000 L 253.460000 273.783000 L 258.060000 271.996000 L 262.659000 270.208000 L 267.259000 268.421000 L 271.865000 266.652000 L 276.492000 264.939000 L 281.132000 263.258000" fill="none" id="36" stroke="#bb568c" stroke-width="0.5" /><path d="M 53.982300 586.313000 L 53.854500 581.390000 L 53.726700 576.467000 L 53.598900 571.545000 L 53.471100 566.622000 L 53.339300 561.699000 L 53.175400 556.777000 L 52.985100 551.856000 L 52.792300 546.936000 L 52.599500 542.015000 L 52.406600 537.094000 L 52.213800 532.174000 L 52.021600 527.253000 L 51.872600 522.331000 L 51.738800 517.408000 L 51.606300 512.485000 L 51.473700 507.563000 L 51.341200 502.640000 L 51.208700 497.717000 L 51.090000 492.794000 L 50.985700 487.871000 L 50.885400 482.947000 L 50.785200 478.024000 L 50.685000 473.100000 L 50.586200 468.177000 L 50.519500 463.253000 L 50.473600 458.329000 L 50.427600 453.404000 L 50.382500 448.480000 L 50.359700 443.556000 L 50.356500 438.631000 L 50.354100 433.707000 L 50.351700 428.782000 L 50.349200 423.858000 L 50.346800 418.933000 L 50.344400 414.009000 L 50.342000 409.084000 L 50.339600 404.160000 L 50.337100 399.235000 L 50.334700 394.311000 L 50.332300 389.387000 L 50.335800 384.462000 L 50.368000 379.538000 L 50.437600 374.614000 L 50.508600 369.690000 L 50.579500 364.766000 L 50.650400 359.842000 L 50.721400 354.918000 L 50.792300 349.994000 L 50.863300 345.070000 L 50.934200 340.146000 L 51.005200 335.222000 L 51.076100 330.298000 L 51.147000 325.374000 L 51.218000 320.450000 L 51.288900 315.526000 L 51.359900 310.602000 L 51.430800 305.678000 L 51.501700 300.754000 L 51.572700 295.830000 L 51.643600 290.906000 L 51.714600 285.982000" fill="none" id="37" stroke="#cfe395" stroke-width="0.5" /><path d="M 54.517700 187.242000 L 54.512900 192.219000 L 54.508100 197.197000 L 54.503400 202.174000 L 54.498600 207.151000 L 54.493800 212.129000 L 54.489000 217.106000 L 54.484200 222.083000 L 54.479500 227.061000 L 54.474700 232.038000 L 54.469900 237.015000 L 54.465100 241.992000 L 54.458900 246.970000 L 54.436900 251.947000 L 54.375800 256.924000 L 54.290600 261.900000 L 54.200700 266.877000 L 54.110800 271.853000 L 54.020900 276.830000 L 53.930900 281.806000 L 53.841000 286.783000 L 53.751100 291.759000 L 53.661200 296.736000 L 53.571300 301.712000 L 53.481400 306.689000 L 53.391500 311.665000 L 53.301500 316.642000 L 53.211600 321.618000 L 53.121700 326.595000 L 53.031800 331.571000 L 52.941900 336.548000 L 52.852000 341.524000 L 52.762000 346.501000 L 52.672100 351.477000 L 52.582200 356.454000 L 52.492300 361.430000 L 52.402400 366.407000 L 52.312500 371.383000 L 52.222600 376.360000 L 52.132600 381.336000 L 52.042700 386.313000 L 51.952800 391.289000 L 51.862900 396.266000 L 51.773000 401.242000 L 51.683100 406.219000" fill="none" id="38" stroke="#c45372" stroke-width="0.5" /><path d="M 131.998000 629.470000 L 132.017000 624.507000 L 131.949000 619.543000 L 131.825000 614.581000 L 131.672000 609.619000 L 131.448000 604.661000 L 131.223000 599.702000 L 130.997000 594.743000 L 130.772000 589.784000 L 130.547000 584.825000 L 130.321000 579.867000 L 130.096000 574.908000 L 129.871000 569.949000 L 129.646000 564.990000 L 129.432000 560.031000 L 129.230000 555.071000 L 129.030000 550.111000 L 128.830000 545.152000 L 128.630000 540.192000 L 128.430000 535.232000 L 128.230000 530.272000 L 128.030000 525.312000 L 127.830000 520.352000 L 127.629000 515.393000 L 127.429000 510.433000 L 127.230000 505.473000 L 127.051000 500.512000 L 126.896000 495.551000 L 126.749000 490.589000 L 126.602000 485.627000 L 126.455000 480.666000 L 126.307000 475.704000 L 126.164000 470.742000 L 126.046000 465.780000 L 125.952000 460.817000 L 125.865000 455.854000 L 125.778000 450.890000 L 125.700000 445.927000 L 125.646000 440.964000 L 125.611000 436.000000 L 125.578000 431.036000 L 125.545000 426.072000 L 125.520000 421.108000 L 125.510000 416.145000 L 125.510000 411.181000 L 125.510000 406.217000 L 125.510000 401.253000 L 125.510000 396.289000 L 125.510000 391.325000 L 125.517000 386.361000 L 125.556000 381.398000 L 125.634000 376.434000 L 125.719000 371.471000 L 125.804000 366.508000 L 125.890000 361.545000 L 125.975000 356.582000 L 126.060000 351.619000 L 126.145000 346.655000 L 126.230000 341.692000 L 126.315000 336.729000 L 126.400000 331.766000 L 126.485000 326.803000 L 126.571000 321.840000 L 126.656000 316.876000 L 126.741000 311.913000 L 126.826000 306.950000 L 126.911000 301.987000 L 126.996000 297.024000 L 127.081000 292.061000 L 127.166000 287.098000 L 127.251000 282.134000 L 127.337000 277.171000" fill="none" id="39" stroke="#008c6f" stroke-width="0.5" /><path d="M 354.203000 210.392000 L 354.580000 215.373000 L 354.849000 220.362000 L 354.967000 225.356000 L 354.967000 230.352000 L 354.950000 235.348000 L 354.916000 240.344000 L 354.747000 245.336000 L 354.485000 250.325000 L 354.213000 255.314000 L 353.940000 260.302000 L 353.668000 265.291000 L 353.395000 270.279000 L 353.123000 275.268000 L 352.854000 280.256000 L 352.605000 285.246000 L 352.387000 290.237000 L 352.180000 295.229000 L 351.975000 300.220000 L 351.770000 305.212000 L 351.576000 310.204000 L 351.414000 315.197000 L 351.276000 320.191000 L 351.143000 325.185000 L 351.011000 330.180000 L 350.879000 335.174000 L 350.755000 340.168000 L 350.667000 345.163000 L 350.625000 350.159000 L 350.604000 355.155000 L 350.586000 360.150000 L 350.569000 365.146000 L 350.551000 370.142000 L 350.538000 375.138000 L 350.549000 380.134000 L 350.593000 385.129000 L 350.669000 390.125000 L 350.791000 395.119000 L 350.947000 400.112000 L 351.111000 405.106000 L 351.274000 410.099000 L 351.438000 415.092000 L 351.602000 420.085000 L 351.765000 425.078000 L 351.942000 430.071000 L 352.168000 435.062000 L 352.409000 440.052000 L 352.651000 445.042000 L 352.893000 450.032000 L 353.142000 455.022000 L 353.419000 460.010000 L 353.714000 464.997000 L 354.011000 469.984000 L 354.307000 474.971000 L 354.604000 479.958000 L 354.901000 484.945000 L 355.197000 489.932000 L 355.494000 494.919000" fill="none" id="40" stroke="#ff94af" stroke-width="0.5" /><path d="M 352.722000 517.526000 L 352.068000 512.653000 L 351.594000 507.759000 L 351.373000 502.848000 L 351.368000 497.931000 L 351.368000 493.015000 L 351.368000 488.098000 L 351.368000 483.182000 L 351.368000 478.265000 L 351.394000 473.349000 L 351.490000 468.433000 L 351.602000 463.518000 L 351.714000 458.603000 L 351.826000 453.688000 L 351.954000 448.773000 L 352.133000 443.860000 L 352.345000 438.948000 L 352.562000 434.036000 L 352.780000 429.124000 L 353.017000 424.214000 L 353.312000 419.306000 L 353.643000 414.401000 L 353.976000 409.495000 L 354.310000 404.590000 L 354.644000 399.685000 L 354.977000 394.780000 L 355.311000 389.875000 L 355.644000 384.970000 L 355.976000 380.064000 L 356.288000 375.158000 L 356.564000 370.249000 L 356.822000 365.339000 L 357.081000 360.430000 L 357.336000 355.520000 L 357.584000 350.609000 L 357.826000 345.699000 L 358.068000 340.788000 L 358.311000 335.878000 L 358.553000 330.967000 L 358.795000 326.057000 L 359.037000 321.146000 L 359.279000 316.236000 L 359.521000 311.325000 L 359.763000 306.415000 L 360.000000 301.504000 L 360.192000 296.591000 L 360.348000 291.677000 L 360.505000 286.763000 L 360.661000 281.849000 L 360.817000 276.935000" fill="none" id="41" stroke="#488656" stroke-width="0.5" /><path d="M 264.533000 473.352000 L 263.740000 468.446000 L 263.103000 463.517000 L 262.654000 458.568000 L 262.312000 453.609000 L 262.046000 448.646000 L 261.864000 443.680000 L 261.696000 438.712000 L 261.542000 433.745000 L 261.439000 428.776000 L 261.344000 423.807000 L 261.249000 418.838000 L 261.154000 413.868000 L 261.059000 408.899000 L 260.964000 403.930000 L 260.870000 398.961000 L 260.775000 393.992000 L 260.680000 389.023000 L 260.585000 384.054000 L 260.490000 379.085000 L 260.395000 374.115000 L 260.301000 369.146000 L 260.208000 364.177000 L 260.128000 359.208000 L 260.068000 354.238000 L 260.016000 349.268000 L 259.965000 344.298000 L 259.914000 339.329000 L 259.864000 334.359000 L 259.813000 329.389000 L 259.762000 324.419000 L 259.712000 319.450000 L 259.661000 314.480000 L 259.610000 309.510000 L 259.560000 304.540000 L 259.509000 299.570000 L 259.459000 294.601000 L 259.395000 289.631000 L 259.301000 284.662000 L 259.188000 279.693000 L 259.073000 274.724000 L 258.958000 269.756000 L 258.843000 264.787000 L 258.728000 259.818000 L 258.613000 254.850000 L 258.498000 249.881000 L 258.383000 244.912000 L 258.268000 239.944000 L 258.153000 234.975000 L 258.037000 230.006000 L 257.920000 225.037000 L 257.797000 220.069000 L 257.665000 215.101000 L 257.530000 210.132000 L 257.396000 205.164000 L 257.261000 200.196000 L 257.127000 195.228000 L 256.993000 190.260000 L 256.858000 185.291000 L 256.724000 180.323000 L 256.589000 175.355000 L 256.463000 170.386000 L 256.385000 165.417000 L 256.367000 160.447000 L 256.361000 155.477000 L 256.355000 150.507000 L 256.351000 145.537000 L 256.359000 140.567000 L 256.405000 135.597000 L 256.467000 130.628000 L 256.640000 125.661000 L 256.866000 120.696000 L 257.096000 115.731000 L 257.325000 110.766000 L 257.555000 105.802000 L 257.784000 100.837000 L 258.014000 95.872100" fill="none" id="42" stroke="#ffc0e1" stroke-width="0.5" /><path d="M 10.517700 473.069000 L 13.969800 476.551000 L 17.441900 480.013000 L 20.924700 483.465000 L 24.465300 486.857000 L 28.036400 490.217000 L 31.658100 493.523000 L 35.291200 496.816000 L 38.925100 500.108000 L 42.535500 503.426000 L 46.063400 506.831000 L 49.570700 510.258000 L 53.076500 513.686000 L 56.550200 517.146000 L 60.009700 520.621000 L 63.468400 524.097000 L 66.954700 527.545000 L 70.505100 530.927000 L 74.084500 534.278000 L 77.663900 537.629000 L 81.260300 540.962000 L 84.894700 544.254000 L 88.550100 547.522000 L 92.205600 550.790000 L 95.870900 554.047000 L 99.563900 557.273000 L 103.264000 560.490000 L 106.929000 563.747000 L 110.565000 567.038000 L 114.197000 570.332000 L 117.829000 573.625000 L 121.461000 576.919000 L 125.094000 580.213000 L 128.726000 583.507000 L 132.375000 586.782000 L 136.088000 589.984000 L 139.855000 593.124000 L 143.656000 596.222000 L 147.480000 599.291000 L 151.304000 602.360000 L 155.128000 605.429000 L 158.951000 608.499000 L 162.775000 611.568000 L 166.599000 614.637000 L 170.423000 617.707000" fill="none" id="43" stroke="#6c8139" stroke-width="0.5" /><path d="M 211.904000 174.368000 L 215.782000 177.458000 L 219.660000 180.549000 L 223.539000 183.639000 L 227.421000 186.724000 L 231.351000 189.749000 L 235.314000 192.729000 L 239.281000 195.705000 L 243.248000 198.681000 L 247.203000 201.672000 L 251.129000 204.701000 L 255.048000 207.740000 L 258.985000 210.755000 L 262.956000 213.726000 L 266.940000 216.679000 L 270.934000 219.617000 L 274.954000 222.522000 L 278.990000 225.403000 L 283.031000 228.277000 L 287.081000 231.139000 L 291.144000 233.981000 L 295.215000 236.813000 L 299.288000 239.643000 L 303.360000 242.472000 L 307.433000 245.302000 L 311.505000 248.132000 L 315.577000 250.962000 L 319.650000 253.791000 L 323.726000 256.616000 L 327.815000 259.422000 L 331.919000 262.205000 L 336.028000 264.981000 L 340.145000 267.746000 L 344.288000 270.470000 L 348.456000 273.157000 L 352.630000 275.834000 L 356.807000 278.508000 L 360.994000 281.166000 L 365.187000 283.812000 L 369.382000 286.458000 L 373.576000 289.103000 L 377.771000 291.748000 L 381.965000 294.393000 L 386.160000 297.038000 L 390.355000 299.684000 L 394.549000 302.329000" fill="none" id="44" stroke="#a9d0ff" stroke-width="0.5" /><path d="M 214.045000 258.746000 L 218.284000 261.339000 L 222.545000 263.893000 L 226.838000 266.395000 L 231.150000 268.862000 L 235.417000 271.407000 L 239.656000 274.000000 L 243.840000 276.678000 L 247.997000 279.400000 L 252.150000 282.128000 L 256.303000 284.855000 L 260.457000 287.580000 L 264.625000 290.284000 L 268.821000 292.945000 L 273.031000 295.583000 L 277.247000 298.213000 L 281.473000 300.826000 L 285.715000 303.412000 L 289.964000 305.987000 L 294.215000 308.559000 L 298.465000 311.132000 L 302.715000 313.705000 L 306.966000 316.278000 L 311.216000 318.851000 L 315.466000 321.424000 L 319.717000 323.997000 L 323.967000 326.570000 L 328.217000 329.143000 L 332.468000 331.716000 L 336.727000 334.274000 L 341.015000 336.784000 L 345.332000 339.244000 L 349.668000 341.670000 L 354.019000 344.068000 L 358.378000 346.453000 L 362.737000 348.837000 L 367.097000 351.220000 L 371.456000 353.604000 L 375.807000 356.002000 L 380.128000 358.454000 L 384.433000 360.935000 L 388.737000 363.417000 L 393.054000 365.877000 L 397.400000 368.284000 L 401.780000 370.631000 L 406.194000 372.911000 L 410.612000 375.183000 L 415.037000 377.443000 L 419.498000 379.631000 L 423.963000 381.809000 L 428.439000 383.967000" fill="none" id="45" stroke="#a98c2c" stroke-width="0.5" /><path d="M 217.762000 389.423000 L 221.838000 392.303000 L 225.937000 395.150000 L 230.066000 397.954000 L 234.224000 400.715000 L 238.380000 403.479000 L 242.515000 406.273000 L 246.612000 409.123000 L 250.697000 411.992000 L 254.781000 414.860000 L 258.877000 417.712000 L 262.990000 420.539000 L 267.111000 423.355000 L 271.245000 426.151000 L 275.417000 428.890000 L 279.620000 431.582000 L 283.831000 434.261000 L 288.047000 436.932000 L 292.281000 439.574000 L 296.534000 442.187000 L 300.792000 444.790000 L 305.051000 447.393000 L 309.309000 449.996000 L 313.568000 452.599000 L 317.826000 455.202000 L 322.084000 457.805000 L 326.343000 460.408000 L 330.601000 463.011000 L 334.862000 465.611000 L 339.135000 468.190000 L 343.430000 470.731000 L 347.743000 473.242000 L 352.076000 475.719000 L 356.421000 478.175000 L 360.768000 480.628000 L 365.115000 483.080000 L 369.462000 485.533000 L 373.809000 487.985000 L 378.154000 490.440000 L 382.486000 492.919000 L 386.777000 495.468000 L 391.049000 498.048000 L 395.319000 500.632000 L 399.588000 503.218000 L 403.842000 505.829000 L 408.085000 508.457000 L 412.326000 511.087000 L 416.565000 513.722000" fill="none" id="46" stroke="#0294bb" stroke-width="0.5" /><path d="M 186.014000 390.226000 L 190.539000 388.205000 L 195.054000 386.160000 L 199.545000 384.064000 L 204.043000 381.983000 L 208.534000 379.886000 L 212.990000 377.716000 L 217.424000 375.502000 L 221.856000 373.284000 L 226.291000 371.071000 L 230.736000 368.880000 L 235.195000 366.715000 L 239.659000 364.561000 L 244.134000 362.432000 L 248.616000 360.315000 L 253.097000 358.199000 L 257.579000 356.083000 L 262.061000 353.967000 L 266.543000 351.852000 L 271.026000 349.737000 L 275.512000 347.631000 L 280.005000 345.539000 L 284.502000 343.454000 L 288.998000 341.370000 L 293.495000 339.286000 L 297.989000 337.195000 L 302.472000 335.081000 L 306.944000 332.945000 L 311.413000 330.802000 L 315.878000 328.651000 L 320.334000 326.481000 L 324.782000 324.295000 L 329.229000 322.107000 L 333.683000 319.933000 L 338.157000 317.800000 L 342.649000 315.706000 L 347.160000 313.652000 L 351.690000 311.642000 L 356.244000 309.686000 L 360.799000 307.735000 L 365.331000 305.728000 L 369.843000 303.677000 L 374.350000 301.615000 L 378.850000 299.537000 L 383.329000 297.417000 L 387.795000 295.267000 L 392.259000 293.113000 L 396.732000 290.979000 L 401.235000 288.908000 L 405.754000 286.872000 L 410.274000 284.840000 L 414.794000 282.807000 L 419.314000 280.774000 L 423.829000 278.730000 L 428.328000 276.650000 L 432.817000 274.549000" fill="none" id="47" stroke="#d7b555" stroke-width="0.5" /><path d="M 124.357000 401.400000 L 128.923000 399.437000 L 133.495000 397.488000 L 138.074000 395.553000 L 142.663000 393.646000 L 147.254000 391.740000 L 151.843000 389.830000 L 156.417000 387.887000 L 160.981000 385.919000 L 165.542000 383.943000 L 170.091000 381.941000 L 174.624000 379.903000 L 179.148000 377.844000 L 183.648000 375.734000 L 188.132000 373.588000 L 192.612000 371.436000 L 197.093000 369.285000 L 201.584000 367.157000 L 206.104000 365.089000 L 210.651000 363.082000 L 215.220000 361.127000 L 219.801000 359.198000 L 224.384000 357.274000 L 228.966000 355.349000 L 233.547000 353.420000 L 238.116000 351.463000 L 242.665000 349.460000 L 247.205000 347.438000 L 251.745000 345.416000 L 256.286000 343.393000 L 260.826000 341.371000 L 265.366000 339.349000 L 269.907000 337.327000 L 274.453000 335.317000 L 279.014000 333.343000 L 283.585000 331.390000 L 288.157000 329.441000 L 292.728000 327.490000 L 297.295000 325.527000 L 301.850000 323.538000 L 306.402000 321.543000 L 310.954000 319.548000 L 315.507000 317.553000 L 320.059000 315.559000 L 324.612000 313.564000 L 329.164000 311.569000 L 333.717000 309.575000 L 338.277000 307.598000 L 342.850000 305.650000 L 347.431000 303.722000" fill="none" id="48" stroke="#4a7ea6" stroke-width="0.5" /><path d="M 180.943000 647.730000 L 184.727000 644.483000 L 188.575000 641.309000 L 192.480000 638.209000 L 196.509000 635.269000 L 200.628000 632.457000 L 204.829000 629.770000 L 209.082000 627.167000 L 213.352000 624.590000 L 217.622000 622.014000 L 221.908000 619.464000 L 226.236000 616.986000 L 230.576000 614.530000 L 234.916000 612.073000 L 239.255000 609.616000 L 243.595000 607.159000 L 247.935000 604.702000 L 252.268000 602.233000 L 256.582000 599.732000 L 260.897000 597.231000 L 265.211000 594.730000 L 269.526000 592.229000 L 273.851000 589.747000 L 278.201000 587.308000 L 282.558000 584.882000 L 286.915000 582.455000 L 291.271000 580.028000 L 295.628000 577.601000 L 299.984000 575.173000 L 304.301000 572.677000 L 308.613000 570.171000 L 312.924000 567.664000 L 317.236000 565.158000 L 321.559000 562.672000 L 325.897000 560.212000 L 330.235000 557.752000 L 334.573000 555.292000 L 338.915000 552.839000 L 343.287000 550.439000 L 347.676000 548.072000 L 352.065000 545.705000 L 356.454000 543.337000 L 360.841000 540.965000 L 365.194000 538.531000 L 369.525000 536.059000 L 373.855000 533.586000 L 378.186000 531.113000 L 382.517000 528.641000 L 386.848000 526.168000 L 391.179000 523.695000 L 395.510000 521.223000 L 399.841000 518.750000 L 404.171000 516.278000 L 408.519000 513.835000 L 412.902000 511.457000 L 417.286000 509.078000 L 421.651000 506.666000 L 426.001000 504.227000 L 430.350000 501.788000 L 434.700000 499.349000 L 439.050000 496.910000 L 443.400000 494.470000" fill="none" id="49" stroke="#ffa372" stroke-width="0.5" /><path d="M 184.533000 641.990000 L 189.179000 640.147000 L 193.805000 638.255000 L 198.389000 636.263000 L 202.883000 634.075000 L 207.395000 631.926000 L 211.906000 629.773000 L 216.393000 627.571000 L 220.854000 625.318000 L 225.312000 623.057000 L 229.762000 620.783000 L 234.171000 618.428000 L 238.545000 616.011000 L 242.914000 613.582000 L 247.282000 611.153000 L 251.650000 608.725000 L 256.019000 606.296000 L 260.389000 603.870000 L 264.769000 601.463000 L 269.167000 599.088000 L 273.573000 596.729000 L 277.981000 594.373000 L 282.388000 592.016000 L 286.796000 589.659000 L 291.203000 587.302000 L 295.605000 584.935000 L 299.994000 582.543000 L 304.371000 580.131000 L 308.745000 577.713000 L 313.119000 575.294000 L 317.491000 572.870000 L 321.846000 570.419000 L 326.179000 567.928000 L 330.501000 565.417000 L 334.822000 562.905000 L 339.143000 560.393000 L 343.501000 557.947000 L 347.948000 555.669000 L 352.428000 553.453000 L 356.846000 551.117000 L 361.225000 548.707000 L 365.596000 546.285000 L 369.965000 543.857000 L 374.334000 541.430000 L 378.704000 539.003000 L 383.072000 536.574000 L 387.433000 534.133000 L 391.781000 531.667000 L 396.129000 529.203000 L 400.502000 526.782000 L 404.867000 524.347000 L 409.201000 521.858000 L 413.527000 519.355000 L 417.853000 516.853000 L 422.180000 514.350000 L 426.512000 511.858000 L 430.891000 509.449000 L 435.350000 507.192000 L 439.817000 504.950000 L 444.241000 502.623000 L 448.512000 500.029000 L 452.772000 497.415000 L 457.126000 494.962000 L 461.519000 492.578000 L 465.956000 490.277000 L 470.470000 488.132000" fill="none" id="50" stroke="#96ddff" stroke-width="0.5" /><path d="M 17.478300 342.132000 L 18.572500 341.313000 L 19.666700 340.493000 L 20.798200 339.726000 L 21.930200 338.960000 L 23.111600 338.273000 L 24.293500 337.586000 L 25.512600 336.968000 L 26.731800 336.350000 L 27.956800 335.743000 L 29.181700 335.137000 L 30.408200 334.533000 L 31.634600 333.929000 L 32.857700 333.319000 L 34.080800 332.709000 L 35.299700 332.090000 L 36.518700 331.472000 L 37.733900 330.846000 L 38.949200 330.220000 L 40.162300 329.590000 L 41.375300 328.960000 L 42.588700 328.331000 L 43.802200 327.701000 L 45.015600 327.072000 L 46.229100 326.443000 L 47.442500 325.814000 L 48.656000 325.184000 L 49.869500 324.555000 L 51.082900 323.926000 L 52.296400 323.297000 L 53.509800 322.667000" fill="none" id="51" stroke="#b06735" stroke-width="0.5" /></svg>