<?xml version="1.0" encoding="utf-8" ?>
<svg baseProfile="full" height="1192.104415" version="1.1" viewBox="0,0,1651.104415,1192.104415" width="1651.104415" xmlns="http://www.w3.org/2000/svg" xmlns:ev="http://www.w3.org/2001/xml-events" xmlns:xlink="http://www.w3.org/1999/xlink"><defs><style type="text/css"><![CDATA[
	.background { fill: white; }
	.line { stroke: firebrick; stroke-width: .1mm; }
	.blacksquare { fill: indigo; }
	.whitesquare { fill: white; }
]]></style></defs><rect class="background" height="100%" width="100%" x="0" y="0" /><path d="M 52.006676 8.492693 L 48.075189 7.755528 L 51.731389 7.426914 L 55.719301 7.116159 L 59.717022 6.983471 L 63.714934 6.854258 L 67.712846 6.725043 L 71.710758 6.595829 L 75.708671 6.466615 L 79.706583 6.337401 L 83.704495 6.208187 L 87.702408 6.078974 L 91.700320 5.949759 L 95.698234 5.820545 L 99.696146 5.691331 L 103.694057 5.562117 L 100.742762 5.805496 L 96.753952 6.104501 L 92.765143 6.403506 L 96.350872 6.341311 L 100.350033 6.259400 L 104.349194 6.177490 L 108.348356 6.095579 L 112.347517 6.013669 L 116.346678 5.931758 L 120.345839 5.849848 L 124.345001 5.767937 L 128.344163 5.686027 L 132.343323 5.604116 L 134.084975 5.590043 L 130.088110 5.748403 L 126.091246 5.906764 L 122.094382 6.065124 L 119.860928 6.172019 L 123.860225 6.097004 L 127.859521 6.021990 L 131.858819 5.946976 L 135.858114 5.871962 L 139.857412 5.796947 L 143.856708 5.721933 L 147.856005 5.646920 L 151.855301 5.571904 L 155.854598 5.496891 L 159.853894 5.421876 L 163.853191 5.346862 L 167.852487 5.271847 L 171.851784 5.196833 L 175.851080 5.121819 L 179.850377 5.046804 L 183.849673 4.971791 L 187.848971 4.896776 L 191.848267 4.821763 L 195.847564 4.746747 L 199.846860 4.671733 L 203.846157 4.596719 L 207.845453 4.521706 L 211.844750 4.446690 L 215.844046 4.371676 L 219.843343 4.296663 L 223.842639 4.221647 L 227.841936 4.146634 L 231.841233 4.071619 L 235.840529 3.996606 L 239.839826 3.921590 L 243.839122 3.846577 L 247.838419 3.771562 L 251.837715 3.696548 L 255.837012 3.621533 L 259.836308 3.546519 L 263.835604 3.471506 L 267.834901 3.396490 L 271.834198 3.321477 L 275.833495 3.246462 L 279.832790 3.171449 L 283.832088 3.096433 L 287.831384 3.021420 L 291.830681 2.946406 L 295.829976 2.871391 L 299.829273 2.796377 L 303.828570 2.721362 L 307.827867 2.646349 L 311.827162 2.571333 L 315.826920 2.545332 L 319.826920 2.545332 L 323.826920 2.545332 L 327.826920 2.545332 L 331.826920 2.545332 L 335.826920 2.545332 L 339.826920 2.545332 L 343.826920 2.545332 L 347.826920 2.545332 L 351.826920 2.545332 L 355.826920 2.545332 L 359.826920 2.545332 L 363.826920 2.545332 L 367.826920 2.545332 L 371.826920 2.545332 L 375.826920 2.545332 L 379.826920 2.545332 L 383.652346 3.017422 L 387.652222 2.986027 L 391.652100 2.954635 L 395.651976 2.923241 L 399.651853 2.891847 L 403.651729 2.860455 L 407.651607 2.829060 L 411.651483 2.797668 L 415.651361 2.766274 L 419.651238 2.734881 L 423.651114 2.703487 L 427.650991 2.672095 L 431.650868 2.640701 L 435.650745 2.609307 L 439.650621 2.577914 L 443.650498 2.546520 L 447.650374 2.515128 L 451.650252 2.483734 L 455.650128 2.452341 L 459.650006 2.420948 L 463.649881 2.389553 L 467.649759 2.358160 L 471.649635 2.326766 L 475.649513 2.295374 L 479.649389 2.263980 L 483.649266 2.232587 L 487.649142 2.201194 L 491.649020 2.169801 L 495.648897 2.138406 L 499.648774 2.107013 L 503.648650 2.075620 L 507.648527 2.044226 L 511.648404 2.012834 L 515.648281 1.981440 L 519.648158 1.950047 L 523.648033 1.918654 L 527.647910 1.887259 L 531.647788 1.855866 L 535.647665 1.824472 L 539.647541 1.793079 L 543.647417 1.761686 L 547.647295 1.730293 L 551.647172 1.698900 L 555.647048 1.667507 L 559.646925 1.636112 L 563.646803 1.604719 L 567.646679 1.573325 L 571.488327 1.880068 L 575.303250 2.277241 L 579.303246 2.283745 L 583.303241 2.290246 L 587.303235 2.296749 L 591.303230 2.303253 L 595.303225 2.309754 L 599.303218 2.316257 L 603.303213 2.322761 L 607.303208 2.329263 L 611.303203 2.335765 L 615.303198 2.342268 L 619.303193 2.348771 L 623.303188 2.355274 L 627.303182 2.361776 L 631.303177 2.368279 L 635.303171 2.374782 L 639.303166 2.381285 L 643.303160 2.387787 L 647.303156 2.394290 L 651.303151 2.400792 L 655.303145 2.407296 L 659.303140 2.413798 L 663.303135 2.420300 L 667.303129 2.426804 L 671.303123 2.433307 L 675.303118 2.439808 L 679.303113 2.446312 L 683.303108 2.452814 L 687.303103 2.459318 L 691.303098 2.465820 L 695.303093 2.472322 L 699.303087 2.478826 L 703.303081 2.485327 L 707.303076 2.491830 L 711.303070 2.498334 L 715.303066 2.504836 L 719.303061 2.511338 L 723.303056 2.517842 L 727.303050 2.524344 L 731.303045 2.530846 L 735.303039 2.537349 L 739.303033 2.543852 L 743.302846 2.511382 L 747.302605 2.467429 L 751.302363 2.423475 L 755.302121 2.379523 L 759.301881 2.335568 L 763.301638 2.291615 L 767.301398 2.247661 L 771.301156 2.203709 L 775.300914 2.159756 L 779.300673 2.115801 L 783.300432 2.071848 L 787.300189 2.027896 L 791.299949 1.983942 L 795.299706 1.939988 L 799.299465 1.896035 L 803.299224 1.852081 L 807.298982 1.808129 L 811.298741 1.764174 L 815.298500 1.720222 L 819.298257 1.676268 L 823.298017 1.632314 L 827.297775 1.588361 L 831.274292 1.603395 L 835.067821 2.063744 L 839.067265 1.997116 L 843.066710 1.930489 L 847.066156 1.863862 L 851.065600 1.797233 L 855.065045 1.730606 L 859.064491 1.663979 L 863.063935 1.597352 L 867.063381 1.530724 L 871.062827 1.464096 L 875.062272 1.397469 L 879.061716 1.330842 L 883.061162 1.264213 L 887.060607 1.197586 L 891.060051 1.130958 L 895.059497 1.064331 L 899.058942 0.997703 L 903.058386 0.931076 L 907.057832 0.864448 L 911.057277 0.797821 L 915.056721 0.731193 L 919.056167 0.664566 L 923.055612 0.597938 L 926.132262 1.383180 L 930.084236 1.402678 L 934.084164 1.378379 L 938.084090 1.354080 L 942.084015 1.329781 L 946.083942 1.305483 L 950.083867 1.281182 L 954.083793 1.256883 L 958.083721 1.232584 L 962.083646 1.208286 L 966.083573 1.183987 L 970.083499 1.159686 L 974.083424 1.135387 L 978.083352 1.111088 L 982.083278 1.086790 L 986.083203 1.062491 L 990.083130 1.038191 L 994.083056 1.013891 L 998.082982 0.989592 L 1002.082909 0.965294 L 1006.082834 0.940994 L 1010.082761 0.916695 L 1014.082687 0.892395 L 1018.082613 0.868096 L 1022.082540 0.843797 L 1026.082465 0.819498 L 1030.082391 0.795199 L 1034.082317 0.770900 L 1038.082244 0.746601 L 1042.082170 0.722301 L 1046.082096 0.698002 L 1050.082022 0.673704 L 1054.081948 0.649404 L 1058.081875 0.625105 L 1062.081801 0.600805 L 1066.081727 0.576506 L 1070.081653 0.552207 L 1073.471946 1.354240 L 1077.471937 1.362757 L 1081.471928 1.371274 L 1085.471919 1.379792 L 1089.471910 1.388310 L 1093.471900 1.396828 L 1097.471891 1.405344 L 1101.471882 1.413863 L 1105.471873 1.422379 L 1109.471864 1.430897 L 1113.471855 1.439414 L 1117.471846 1.447931 L 1121.471837 1.456449 L 1125.471828 1.464967 L 1129.471819 1.473485 L 1133.471810 1.482001 L 1137.471801 1.490519 L 1141.471792 1.499036 L 1145.471783 1.507553 L 1149.471774 1.516072 L 1153.471764 1.524589 L 1157.471755 1.533106 L 1161.471746 1.541624 L 1165.108639 1.928907 L 1169.107705 2.015306 L 1173.106772 2.101704 L 1177.105840 2.188103 L 1181.104906 2.274501 L 1185.103973 2.360899 L 1189.103039 2.447297 L 1193.102106 2.533697 L 1197.101173 2.620094 L 1201.100240 2.706493 L 1205.099307 2.792891 L 1209.098373 2.879289 L 1213.097440 2.965688 L 1217.096507 3.052086 L 1221.095574 3.138485 L 1225.094641 3.224883 L 1229.093707 3.311281 L 1233.092774 3.397680 L 1237.091841 3.484078 L 1241.090908 3.570476 L 1245.089975 3.656875 L 1249.089041 3.743273 L 1253.088108 3.829673 L 1257.087175 3.916071 L 1261.086242 4.002468 L 1265.085309 4.088868 L 1269.084375 4.175266 L 1273.083442 4.261665 L 1277.082509 4.348063 L 1281.081576 4.434461 L 1285.080643 4.520860 L 1289.078979 4.634881 L 1293.077028 4.759821 L 1297.075076 4.884759 L 1301.073124 5.009698 L 1305.071173 5.134637 L 1309.069221 5.259576 L 1313.067269 5.384516 L 1317.065318 5.509454 L 1321.063366 5.634393 L 1325.061414 5.759332 L 1329.059463 5.884271 L 1333.057511 6.009211 L 1337.055559 6.134149 L 1341.053607 6.259088 L 1345.051656 6.384027 L 1349.049704 6.508966 L 1353.047752 6.633906 L 1357.045801 6.758844 L 1361.043849 6.883783 L 1365.041898 7.008722 L 1369.039946 7.133661 L 1373.037994 7.258601 L 1377.036042 7.383539 L 1381.034090 7.508478 L 1385.032139 7.633417 L 1389.030187 7.758356 L 1393.028235 7.883296 L 1397.026284 8.008235 L 1401.024332 8.133173 L 1405.022380 8.258112 L 1409.020429 8.383052 L 1413.018477 8.507991 L 1416.601971 9.055184 L 1420.601741 9.098166 L 1424.601509 9.141148 L 1428.601278 9.184131 L 1432.601048 9.227113 L 1436.600817 9.270096 L 1440.600586 9.313078 L 1444.600355 9.356059 L 1448.600124 9.399041 L 1452.599894 9.442023 L 1456.599662 9.485006 L 1460.599431 9.527988 L 1464.118457 10.351195 L 1468.118250 10.391860 L 1472.118043 10.432526 L 1476.117836 10.473192 L 1480.117630 10.513858 L 1483.628161 11.042770 L 1487.625447 11.190110 L 1491.622732 11.337447 L 1495.620018 11.484785 L 1499.617303 11.632124 L 1503.614589 11.779462 L 1507.611874 11.926801 L 1511.609160 12.074139 L 1515.606445 12.221477 L 1519.603731 12.368816 L 1523.601016 12.516153 L 1527.598302 12.663493 L 1531.595887 12.797536 L 1535.595752 12.830381 L 1539.595617 12.863227 L 1543.595482 12.896073 L 1547.595347 12.928918 L 1551.595213 12.961764 L 1555.595078 12.994611 L 1559.190165 13.024133" fill="none" id="1" stroke="black" stroke-width="1.104415" /><path d="M 60.199005 975.379452 L 56.238352 974.819788 L 52.269199 974.381003 L 48.269199 974.381003 L 44.269199 974.381003 L 40.269199 974.381003 L 36.269199 974.381003 L 34.262739 974.435908 L 38.256675 974.656081 L 42.250611 974.876252 L 46.244546 975.096425 L 50.238483 975.316597 L 54.232418 975.536768 L 58.226354 975.756941 L 62.220289 975.977112 L 66.214225 976.197284 L 70.208161 976.417455 L 74.202097 976.637628 L 78.196033 976.857800 L 82.189969 977.077971 L 86.183905 977.298144 L 90.183658 977.340252 L 94.183448 977.381204 L 98.183238 977.422158 L 102.183029 977.463110 L 106.182819 977.504064 L 110.182609 977.545016 L 106.245890 977.661078 L 102.247591 977.777721 L 98.249292 977.894365 L 100.903029 977.964433 L 104.902569 978.025077 L 108.902110 978.085722 L 112.901650 978.146367 L 116.901190 978.207013 L 120.900730 978.267658 L 124.900271 978.328303 L 128.899811 978.388947 L 132.899351 978.449592 L 136.898892 978.510238 L 137.528492 978.577477 L 133.529220 978.653778 L 129.529947 978.730077 L 125.530674 978.806378 L 126.462278 978.872699 L 130.461827 978.932813 L 134.461375 978.992928 L 138.460923 979.053043 L 142.460472 979.113157 L 146.460020 979.173271 L 150.459568 979.233385 L 154.459115 979.293499 L 158.458664 979.353613 L 162.458213 979.413728 L 166.457761 979.473842 L 170.457310 979.533956 L 174.456858 979.594070 L 178.455819 979.523091 L 182.454668 979.427161 L 186.453518 979.331230 L 190.452367 979.235298 L 194.451217 979.139368 L 198.450066 979.043436 L 202.448915 978.947506 L 206.447765 978.851575 L 210.446615 978.755645 L 214.445464 978.659713 L 218.444314 978.563783 L 221.871391 979.414798 L 225.870890 979.351513 L 229.870390 979.288227 L 233.869889 979.224941 L 237.869388 979.161654 L 241.868887 979.098367 L 245.868387 979.035082 L 249.867885 978.971795 L 253.867386 978.908510 L 257.866885 978.845223 L 261.866383 978.781938 L 265.865883 978.718651 L 269.865383 978.655366 L 273.864882 978.592079 L 277.864382 978.528794 L 281.863880 978.465507 L 285.863380 978.402220 L 289.862880 978.338935 L 293.862379 978.275648 L 297.861877 978.212363 L 301.861378 978.149076 L 305.860877 978.085791 L 309.860376 978.022504 L 313.859874 977.959219 L 317.859375 977.895932 L 321.858874 977.832646 L 325.858373 977.769360 L 329.857872 977.706074 L 333.857371 977.642788 L 337.856871 977.579501 L 341.856371 977.516216 L 345.855869 977.452929 L 349.855368 977.389644 L 353.854869 977.326357 L 357.854368 977.263072 L 361.853866 977.199785 L 365.853366 977.136499 L 369.852866 977.073212 L 373.852365 977.009927 L 377.851865 976.946641 L 381.851363 976.883354 L 385.850863 976.820069 L 389.850363 976.756782 L 393.849862 976.693497 L 397.849360 976.630210 L 401.848861 976.566925 L 405.536790 977.287281 L 409.536668 977.255934 L 413.536544 977.224589 L 417.536422 977.193243 L 421.536299 977.161898 L 425.536177 977.130553 L 429.536054 977.099207 L 433.535931 977.067861 L 437.535808 977.036516 L 441.535685 977.005169 L 445.535563 976.973823 L 449.535439 976.942478 L 453.535317 976.911133 L 457.535193 976.879787 L 461.535071 976.848442 L 465.534948 976.817096 L 469.534826 976.785750 L 473.534702 976.754404 L 477.534580 976.723058 L 481.534457 976.691712 L 485.534334 976.660368 L 489.534212 976.629022 L 493.534088 976.597676 L 497.533966 976.566331 L 498.893407 976.580898 L 494.894858 976.688635 L 490.896309 976.796370 L 486.897760 976.904108 L 482.899210 977.011844 L 482.645259 977.063248 L 486.645239 977.050661 L 490.645218 977.038072 L 494.645199 977.025484 L 498.645179 977.012896 L 502.645160 977.000306 L 506.645140 976.987719 L 510.645120 976.975129 L 514.645101 976.962542 L 518.645081 976.949952 L 522.645060 976.937365 L 526.645041 976.924776 L 530.645020 976.912187 L 534.645002 976.899600 L 538.644981 976.887010 L 542.644962 976.874423 L 546.644941 976.861833 L 550.644922 976.849246 L 554.644903 976.836657 L 558.644882 976.824068 L 562.644863 976.811481 L 566.644842 976.798891 L 570.644823 976.786304 L 574.644802 976.773714 L 578.644784 976.761127 L 582.644763 976.748537 L 586.644744 976.735950 L 590.644724 976.723361 L 594.644703 976.710772 L 598.644685 976.698185 L 602.644664 976.685595 L 606.644645 976.673008 L 610.644624 976.660418 L 614.644605 976.647831 L 618.644586 976.635242 L 622.644565 976.622653 L 626.644546 976.610065 L 630.644525 976.597476 L 634.644506 976.584889 L 638.644486 976.572299 L 642.644467 976.559712 L 646.644446 976.547123 L 650.229308 977.326842 L 654.229077 977.369834 L 658.228846 977.412826 L 662.228615 977.455816 L 666.228384 977.498808 L 670.228152 977.541801 L 674.227921 977.584792 L 678.227690 977.627783 L 682.227460 977.670774 L 686.227229 977.713767 L 690.226998 977.756759 L 694.226767 977.799749 L 698.226535 977.842741 L 702.226304 977.885733 L 706.226073 977.928725 L 710.225842 977.971716 L 714.225612 978.014707 L 718.225380 978.057700 L 722.225149 978.100691 L 726.224918 978.143682 L 730.224686 978.186674 L 734.224455 978.229666 L 738.224224 978.272658 L 742.223994 978.315648 L 746.223763 978.358640 L 750.223532 978.401633 L 754.223301 978.444624 L 758.223070 978.487616 L 762.222838 978.530606 L 766.222607 978.573599 L 770.222376 978.616591 L 774.222146 978.659582 L 778.222023 978.679610 L 782.222020 978.674544 L 786.222016 978.669475 L 790.222014 978.664409 L 794.222011 978.659340 L 798.222008 978.654274 L 802.222004 978.649205 L 806.222001 978.644139 L 810.221998 978.639071 L 814.221995 978.634004 L 818.221992 978.628936 L 822.221987 978.623868 L 826.221984 978.618801 L 830.221981 978.613733 L 834.221978 978.608666 L 838.221975 978.603598 L 842.221971 978.598531 L 846.221969 978.593462 L 850.221966 978.588396 L 854.221963 978.583327 L 858.221960 978.578261 L 862.221956 978.573193 L 866.221953 978.568126 L 870.221950 978.563058 L 874.221947 978.557990 L 878.221942 978.552923 L 882.221939 978.547855 L 885.838203 979.286593 L 889.838037 979.250091 L 893.837871 979.213588 L 897.837703 979.177084 L 901.837538 979.140582 L 905.837371 979.104079 L 909.837204 979.067575 L 913.837038 979.031073 L 917.836872 978.994570 L 921.836704 978.958066 L 925.836537 978.921564 L 929.836372 978.885061 L 933.836205 978.848557 L 937.836038 978.812055 L 941.835872 978.775552 L 945.835706 978.739048 L 949.835538 978.702546 L 953.835372 978.666043 L 957.835206 978.629539 L 961.835038 978.593037 L 965.834872 978.556534 L 969.834706 978.520030 L 973.834540 978.483528 L 977.834372 978.447024 L 981.834207 978.410521 L 985.834040 978.374019 L 989.833872 978.337515 L 993.833707 978.301012 L 997.833540 978.264510 L 1001.833373 978.228006 L 1005.833206 978.191503 L 1009.833041 978.155002 L 1013.832874 978.118498 L 1017.832706 978.081996 L 1021.832541 978.045493 L 1025.832373 978.008989 L 1029.832207 977.972487 L 1033.832040 977.935984 L 1037.831874 977.899480 L 1041.831707 977.862978 L 1045.831541 977.826475 L 1049.831374 977.789971 L 1053.831207 977.753469 L 1057.831041 977.716966 L 1061.830874 977.680462 L 1065.830708 977.643960 L 1069.830541 977.607457 L 1073.830375 977.570953 L 1077.830208 977.534451 L 1081.830041 977.497948 L 1085.829875 977.461444 L 1089.829708 977.424942 L 1093.829542 977.388439 L 1097.829375 977.351935 L 1101.829209 977.315433 L 1105.829042 977.278930 L 1109.828876 977.242426 L 1113.828709 977.205924 L 1117.828542 977.169421 L 1121.828376 977.132917 L 1125.828209 977.096415 L 1129.828043 977.059911 L 1133.827877 977.023408 L 1137.827710 976.986906 L 1141.827543 976.950403 L 1145.827376 976.913900 L 1149.827210 976.877398 L 1153.827043 976.840894 L 1157.826877 976.804392 L 1161.826710 976.767889 L 1165.826544 976.731385 L 1169.826377 976.694883 L 1173.826211 976.658380 L 1177.826044 976.621876 L 1181.825877 976.585374 L 1185.825711 976.548871 L 1189.825695 976.545332 L 1193.825695 976.545332 L 1197.825695 976.545332 L 1201.825695 976.545332 L 1205.825695 976.545332 L 1209.825695 976.545332 L 1213.825695 976.545332 L 1217.825695 976.545332 L 1221.825695 976.545332 L 1225.825695 976.545332 L 1229.825695 976.545332 L 1233.825695 976.545332 L 1237.825695 976.545332 L 1241.825695 976.545332 L 1245.825695 976.545332 L 1249.825695 976.545332 L 1253.825695 976.545332 L 1257.825695 976.545332 L 1261.825695 976.545332 L 1265.825695 976.545332 L 1269.825695 976.545332 L 1273.825695 976.545332 L 1277.825695 976.545332 L 1281.825695 976.545332 L 1285.825695 976.545332 L 1289.825695 976.545332 L 1293.825695 976.545332 L 1297.825695 976.545332 L 1301.825695 976.545332 L 1305.825695 976.545332 L 1309.825695 976.545332 L 1313.825695 976.545332 L 1317.825695 976.545332 L 1321.825695 976.545332 L 1325.825695 976.545332 L 1329.825695 976.545332 L 1333.825695 976.545332 L 1337.825695 976.545332 L 1341.825695 976.545332 L 1345.825695 976.545332 L 1349.825695 976.545332 L 1353.825695 976.545332 L 1357.825695 976.545332 L 1361.825695 976.545332 L 1365.825695 976.545332 L 1368.937882 977.382705 L 1372.937872 977.391830 L 1376.937861 977.400958 L 1380.937851 977.410085 L 1384.937840 977.419210 L 1388.937830 977.428337 L 1392.937820 977.437465 L 1396.937809 977.446590 L 1400.937799 977.455717 L 1404.937788 977.464845 L 1408.937778 977.473972 L 1412.937768 977.483097 L 1416.937757 977.492225 L 1420.937747 977.501352 L 1424.937736 977.510477 L 1428.937726 977.519605 L 1432.937715 977.528732 L 1436.937705 977.537858 L 1440.281512 978.266414 L 1444.112040 978.535983 L 1448.111062 978.624458 L 1452.110083 978.712932 L 1456.109104 978.801407 L 1460.108126 978.889882 L 1464.107147 978.978358 L 1468.106168 979.066833 L 1472.105190 979.155308 L 1476.104211 979.243782 L 1480.103233 979.332257 L 1484.102254 979.420732 L 1488.101275 979.509208 L 1492.100297 979.597683 L 1496.099318 979.686158 L 1500.098340 979.774633 L 1504.097361 979.863107 L 1508.096382 979.951582 L 1512.095404 980.040057 L 1516.094425 980.128533 L 1520.093447 980.217008 L 1524.092468 980.305483 L 1528.091489 980.393958 L 1532.090511 980.482432 L 1536.089532 980.570907 L 1540.088554 980.659382 L 1544.087575 980.747858 L 1548.087413 980.732348 L 1552.087331 980.706664 L 1556.087248 980.680982 L 1560.087165 980.655298 L 1564.087083 980.629615 L 1568.087000 980.603933 L 1572.086918 980.578248 L 1576.086836 980.552566 L 1574.340848 980.615272 L 1570.342034 980.712632 L 1566.343219 980.809993 L 1562.344404 980.907353 L 1566.180141 980.909352 L 1570.180141 980.909352 L 1574.180141 980.909352 L 1578.179282 980.875688 L 1582.174070 980.671552 L 1586.168857 980.467417 L 1590.163645 980.263282 L 1594.158434 980.059145 L 1598.153220 979.855011 L 1602.148008 979.650874 L 1602.290550 979.732145 L 1598.309295 980.118938 L 1594.328040 980.505730 L 1593.168258 980.704853 L 1597.165668 980.560946 L 1601.163079 980.417038 L 1605.156058 980.218637 L 1609.124210 979.714866 L 1613.092359 979.211097 L 1617.060509 978.707326 L 1621.028660 978.203554 L 1624.996809 977.699783 L 1623.496500 978.103454 L 1619.578318 978.908349 L 1615.980906 979.658168 L 1619.943166 979.109988 L 1623.905425 978.561807 L 1627.875755 978.084074 L 1631.859327 977.721925 L 1635.842899 977.359776 L 1639.826472 976.997628 L 1643.810045 976.635478 L 1647.793616 976.273330 L 1650.022595 976.070693" fill="none" id="2" stroke="black" stroke-width="1.104415" /><path d="M 20.773426 308.796702 L 22.464950 312.421443 L 22.923916 313.404953" fill="none" id="3" stroke="black" stroke-width="1.104415" /><path d="M 25.074396 315.017843 L 27.174538 318.410289 L 28.760946 320.163713" fill="none" id="4" stroke="black" stroke-width="1.104415" /><path d="M 28.760946 320.240513 L 31.297287 322.845496 L 32.242686 326.154432" fill="none" id="5" stroke="black" stroke-width="1.104415" /><path d="M 32.242686 326.231233 L 33.766793 329.929487 L 34.438023 330.077613 L 33.301735 326.309997 L 31.677201 322.654742 L 30.052665 318.999487 L 27.830433 316.038091 L 26.121122 312.838587 L 24.811196 310.570200 L 25.665262 314.439954 L 27.998667 317.502035 L 30.312709 320.731745 L 32.486142 324.089748 L 34.403120 327.588252 L 36.909478 329.243571 L 34.102069 327.057189 L 32.352841 323.459941 L 29.477219 320.905186 L 27.492684 317.432202 L 25.508149 313.959218 L 23.523614 310.486233 L 21.143561 307.311073 L 19.264140 303.937134 L 18.923891 305.950796 L 20.730000 309.471057 L 23.227172 312.550250 L 25.303359 315.969234 L 27.379546 319.388216 L 29.455732 322.807200 L 31.531920 326.226183 L 32.513270 325.870770 L 31.478098 322.076665 L 30.809026 320.394122" fill="none" id="6" stroke="black" stroke-width="1.104415" /><path d="M 25.586416 304.956502 L 23.275520 302.453911 L 20.363816 302.037942" fill="none" id="7" stroke="black" stroke-width="1.104415" /><path d="M 16.574856 294.741553 L 17.501159 293.563693 L 18.397313 297.462015 L 19.390552 301.314381 L 21.837520 304.478610 L 23.646092 308.032420 L 25.341094 311.655534 L 27.036096 315.278651 L 28.731098 318.901767 L 30.426101 322.524882 L 32.121102 326.147998 L 34.132441 329.601078 L 36.219220 333.013606 L 38.305999 336.426134 L 40.046349 339.244816 L 38.102877 335.748687 L 36.764882 333.241017 L 38.996414 336.560696 L 41.227944 339.880375 L 43.459477 343.200053 L 45.691008 346.519732 L 47.922539 349.839410 L 50.041511 353.230245 L 52.083032 356.670041 L 54.124552 360.109836 L 56.166072 363.549632 L 58.207594 366.989428 L 60.249113 370.429222 L 62.290635 373.869018 L 64.332155 377.308814 L 66.373675 380.748609 L 68.415195 384.188405 L 70.456716 387.628200 L 72.498236 391.067996 L 74.539757 394.507792 L 76.581277 397.947587 L 78.622798 401.387383 L 80.664319 404.827179 L 82.705839 408.266975 L 84.747360 411.706771 L 86.788880 415.146566 L 88.830401 418.586362 L 90.871921 422.026158 L 92.913442 425.465953 L 94.954962 428.905749 L 96.996483 432.345544 L 99.038003 435.785340 L 101.079524 439.225136 L 103.121045 442.664931 L 105.162565 446.104727 L 107.204086 449.544522 L 109.285435 452.960230 L 111.383868 456.365605 L 113.482301 459.770980 L 115.580734 463.176355 L 117.679167 466.581728 L 119.777600 469.987103 L 121.876034 473.392478 L 123.974467 476.797854 L 126.072900 480.203229 L 128.171334 483.608604 L 130.269767 487.013979 L 130.069107 486.664884 L 127.989745 483.247830 L 125.910384 479.830777 L 127.535823 482.282632 L 129.726282 485.629553 L 131.916742 488.976475 L 134.107201 492.323398 L 136.297660 495.670321 L 138.488119 499.017244 L 140.678578 502.364166 L 142.869037 505.711088 L 145.059495 509.058011 L 147.249955 512.404932 L 149.440414 515.751856 L 151.630873 519.098777 L 153.821332 522.445700 L 156.011791 525.792622 L 158.202250 529.139545 L 160.392708 532.486468 L 162.583168 535.833389 L 164.773627 539.180312 L 166.964086 542.527234 L 169.154545 545.874157 L 171.345004 549.221079 L 173.535461 552.568002 L 175.725921 555.914923 L 177.916380 559.261847 L 180.106839 562.608768 L 182.297298 565.955692 L 184.487757 569.302614 L 186.678216 572.649535 L 188.868674 575.996459 L 191.059134 579.343380 L 193.249593 582.690304 L 195.440052 586.037225 L 197.630511 589.384148 L 199.820970 592.731070 L 202.011429 596.077993 L 204.201887 599.424915 L 206.392347 602.771838 L 208.582806 606.118761 L 210.773265 609.465682 L 212.963724 612.812605 L 215.154183 616.159527 L 217.322982 619.520403 L 219.465001 622.898532 L 221.607018 626.276663 L 223.749036 629.654791 L 225.891053 633.032922 L 228.033071 636.411051 L 230.175089 639.789181 L 232.317107 643.167310 L 234.459125 646.545441 L 236.601142 649.923569 L 238.743160 653.301700 L 240.885177 656.679829 L 243.027195 660.057959 L 245.169213 663.436088 L 247.311231 666.814219 L 249.453248 670.192348 L 251.595266 673.570478 L 250.753096 672.102909 L 248.700434 668.669750 L 246.647771 665.236592 L 246.504052 665.000009 L 248.553124 668.435311 L 250.602198 671.870612 L 252.651271 675.305914 L 254.700343 678.741218 L 256.749415 682.176520 L 258.798489 685.611822 L 260.847561 689.047123 L 262.896634 692.482425 L 264.945707 695.917727 L 266.994779 699.353030 L 269.043853 702.788333 L 271.092924 706.223635 L 273.141998 709.658936 L 275.191071 713.094238 L 277.240143 716.529541 L 279.289216 719.964843 L 281.338289 723.400145 L 283.387361 726.835447 L 285.436435 730.270749 L 287.485506 733.706052 L 289.534580 737.141354 L 291.583653 740.576656 L 293.632725 744.011957 L 295.681798 747.447259 L 297.730870 750.882563 L 299.779944 754.317865 L 301.829017 757.753167 L 303.878089 761.188468 L 305.927162 764.623770 L 307.976235 768.059072 L 310.025307 771.494375 L 312.074381 774.929678 L 314.123452 778.364980 L 316.172526 781.800281 L 316.229422 781.840874 L 314.229556 778.376694 L 312.229689 774.912517 L 310.523161 771.936509 L 312.643134 775.328515 L 314.763107 778.720523 L 316.883081 782.112530 L 318.986462 785.514782 L 321.069430 788.929639 L 323.152398 792.344494 L 325.235366 795.759351 L 327.318332 799.174207 L 329.401300 802.589065 L 331.484268 806.003921 L 333.567237 809.418778 L 335.650205 812.833635 L 337.733172 816.248491 L 339.816140 819.663347 L 341.899108 823.078203 L 343.982076 826.493060 L 346.065044 829.907917 L 348.148010 833.322774 L 350.230978 836.737630 L 352.313946 840.152487 L 354.396915 843.567342 L 355.945198 846.109526 L 353.848703 842.702957 L 351.752208 839.296389 L 349.655713 835.889820 L 349.829276 836.068412 L 352.012116 839.420307 L 354.194957 842.772203 L 356.377798 846.124099 L 358.560640 849.475994 L 360.743481 852.827890 L 362.926322 856.179785 L 365.109163 859.531681 L 367.292004 862.883578 L 369.474845 866.235474 L 371.657686 869.587370 L 373.840527 872.939266 L 376.023368 876.291161 L 378.206208 879.643057 L 380.389049 882.994952 L 382.571889 886.346848 L 384.754730 889.698744 L 386.937571 893.050639 L 389.120412 896.402535 L 387.058650 893.379449 L 384.808013 890.072694 L 382.557377 886.765938 L 381.991594 885.866456 L 384.327829 889.113302 L 386.664064 892.360147 L 389.000300 895.606992 L 391.336536 898.853837 L 393.672772 902.100682 L 396.009007 905.347526 L 398.345242 908.594371 L 400.681479 911.841216 L 403.017715 915.088061 L 405.353949 918.334906 L 407.690185 921.581751 L 410.026422 924.828597 L 412.362657 928.075442 L 414.698892 931.322288 L 417.035127 934.569133 L 419.371364 937.815978 L 421.707600 941.062823 L 424.043835 944.309668 L 421.899800 941.645526 L 419.405124 938.518771 L 416.910449 935.392018 L 416.050228 934.317963 L 418.538773 937.449597 L 421.027320 940.581233 L 423.515866 943.712869 L 426.004411 946.844503 L 428.492956 949.976139 L 430.981503 953.107774 L 433.470049 956.239409 L 435.958595 959.371045 L 438.447140 962.502679 L 440.935687 965.634314 L 443.424233 968.765951 L 445.912778 971.897585 L 448.401323 975.029221 L 450.889870 978.160856 L 453.378416 981.292491 L 455.866962 984.424127 L 458.355507 987.555762 L 460.844054 990.687396 L 463.332600 993.819033 L 465.821146 996.950668 L 468.309690 1000.082302 L 470.798237 1003.213938 L 473.286783 1006.345574 L 475.775329 1009.477208 L 478.160929 1012.483468 L 475.573409 1009.433103 L 472.985887 1006.382735 L 470.398368 1003.332369 L 470.440168 1003.270719 L 473.135962 1006.225832 L 475.831756 1009.180945 L 478.527551 1012.136057 L 481.223344 1015.091170 L 483.919140 1018.046283 L 486.614934 1021.001397 L 489.310727 1023.956510 L 492.006522 1026.911622 L 494.702316 1029.866736 L 497.398111 1032.821849 L 500.093905 1035.776962 L 502.789698 1038.732075 L 505.485494 1041.687188 L 508.181287 1044.642301 L 510.877082 1047.597414 L 513.572877 1050.552527 L 516.268670 1053.507640 L 518.964464 1056.462753 L 521.660259 1059.417866 L 524.356054 1062.372979 L 527.051848 1065.328092 L 529.747641 1068.283205 L 532.443436 1071.238318 L 535.139231 1074.193431 L 537.835025 1077.148544 L 540.530819 1080.103658 L 543.226613 1083.058771 L 545.922407 1086.013884 L 548.618202 1088.968997 L 551.313997 1091.924110 L 554.009791 1094.879223 L 556.705584 1097.834336 L 559.401378 1100.789449 L 562.097174 1103.744562 L 564.792968 1106.699675 L 567.488762 1109.654788 L 568.230755 1110.491367 L 565.503041 1107.565692 L 562.775327 1104.640017 L 562.098837 1103.850235 L 564.911849 1106.693993 L 567.724861 1109.537751 L 570.537875 1112.381509 L 573.350887 1115.225267 L 576.163899 1118.069025 L 578.976912 1120.912783 L 581.789924 1123.756542 L 584.602938 1126.600301 L 587.415950 1129.444058 L 590.228962 1132.287816 L 593.041976 1135.131574 L 595.854987 1137.975332 L 598.668001 1140.819090 L 601.481013 1143.662848 L 604.294025 1146.506606 L 607.107039 1149.350364 L 609.920051 1152.194122 L 612.733063 1155.037880 L 614.888940 1157.201101 L 612.145318 1154.290340 L 609.401693 1151.379579 L 612.110298 1153.861938 L 615.050793 1156.573671 L 617.991286 1159.285404 L 620.931780 1161.997138 L 623.872273 1164.708871 L 626.812766 1167.420605 L 629.753260 1170.132338 L 632.693753 1172.844072 L 635.634247 1175.555805 L 638.574740 1178.267539 L 641.515234 1180.979272 L 641.937235 1181.437487 L 638.916624 1178.815291 L 635.896013 1176.193096 L 635.291522 1175.619580 L 638.372267 1178.170856 L 641.648036 1180.460571 L 644.972419 1182.685090 L 648.296801 1184.909609 L 651.621183 1187.134128 L 654.945565 1189.358647 L 658.213406 1191.545332" fill="none" id="8" stroke="black" stroke-width="1.104415" /><path d="M 13.093125 177.231292 L 12.023150 178.669556 L 13.590578 182.349660 L 14.321965 181.933313 L 12.395267 178.613763 L 11.181420 179.833551 L 14.011757 182.439310 L 15.849911 185.991940 L 15.728236 183.319857 L 13.687292 179.953049 L 11.252111 176.854546 L 10.843858 177.451162 L 11.780888 181.339860 L 14.779483 183.872366 L 16.960158 187.220661 L 19.123170 190.585386 L 20.363816 192.515303" fill="none" id="9" stroke="black" stroke-width="1.104415" /><path d="M 14.321965 184.527682 L 17.325811 187.135797 L 18.944593 188.208109 L 15.940219 185.601472 L 13.503127 182.429631 L 11.633631 182.364620 L 14.117166 184.527682" fill="none" id="10" stroke="black" stroke-width="1.104415" /><path d="M 10.942635 206.570453 L 8.773371 203.253795 L 6.164235 200.289586 L 3.504996 197.357016 L 1.334148 194.081621 L 0.552207 190.184258 L 3.253718 187.756214 L 5.515216 186.601393" fill="none" id="11" stroke="black" stroke-width="1.104415" /><path d="M 17.803706 108.107602 L 15.922989 108.384637 L 12.580595 106.571016 L 12.273886 105.035442" fill="none" id="13" stroke="black" stroke-width="1.104415" /><path d="M 257.019676 250.348793 L 254.082791 248.011574 L 255.070385 247.884344 L 258.706615 249.124546 L 261.861935 251.548402 L 265.427255 253.361821 L 268.992575 255.175240 L 272.597960 256.906791 L 276.217483 258.609453 L 279.837006 260.312114 L 283.456528 262.014774 L 287.076051 263.717437 L 290.695574 265.420097 L 294.315096 267.122759 L 292.472975 266.306917 L 288.827893 264.659687 L 285.182810 263.012454 L 283.079517 262.087135 L 286.678895 263.831979 L 290.278273 265.576823 L 293.927711 267.213790 L 297.583986 268.836028 L 301.240261 270.458267 L 304.896535 272.080506 L 308.552809 273.702744 L 312.209084 275.324984 L 315.865358 276.947222 L 314.903623 276.524716 L 311.244887 274.908040 L 307.586150 273.291363 L 308.182918 273.638891 L 311.786802 275.374409 L 315.390686 277.109926 L 318.994570 278.845442 L 322.598455 280.580960 L 326.202338 282.316477 L 329.806222 284.051992 L 333.410106 285.787509 L 337.013991 287.523027 L 340.617875 289.258544 L 338.223603 288.058695 L 334.641943 286.277765 L 331.060283 284.496836 L 330.718721 284.392571 L 334.241210 286.287847 L 337.763698 288.183125 L 341.286185 290.078401 L 344.808674 291.973679 L 348.331163 293.868956 L 351.853652 295.764232 L 355.376140 297.659511 L 358.879026 299.590219 L 362.356174 301.567450 L 365.833323 303.544680 L 369.310471 305.521909 L 372.787620 307.499140 L 376.264768 309.476370 L 379.741916 311.453600 L 383.219065 313.430831 L 386.696213 315.408061 L 390.173361 317.385290 L 390.772670 317.734565 L 387.286734 315.772869 L 383.800797 313.811172 L 384.985803 314.565554 L 388.414969 316.624879 L 391.844135 318.684204 L 395.273302 320.743529 L 398.702468 322.802854 L 402.131634 324.862178 L 405.560801 326.921503 L 408.989967 328.980828 L 412.424814 331.030465 L 415.896143 333.017894 L 419.367473 335.005322 L 422.838802 336.992750 L 426.379500 338.834888 L 428.136926 339.518343" fill="none" id="14" stroke="black" stroke-width="1.104415" /><path d="M 13.093125 55.112772 L 16.730348 56.777289 L 20.367571 58.441803 L 24.004793 60.106320 L 22.630099 59.712997 L 18.872634 58.341335 L 15.115170 56.969672 L 11.357705 55.598008 L 14.865538 56.752240 L 18.663524 58.007348 L 22.461511 59.262455 L 26.259498 60.517563 L 23.550683 58.366211 L 23.936602 58.525500 L 19.942067 58.316479 L 15.948301 58.103687 L 12.192331 56.727943 L 14.731585 56.495252" fill="none" id="15" stroke="black" stroke-width="1.104415" /><path d="M 423.426335 436.137893 L 423.369575 438.479451 L 424.597904 442.195279 L 427.263753 445.133886 L 429.208079 448.349753 L 429.209030 446.133840 L 427.088321 442.742293 L 424.967611 439.350746 L 423.559210 437.143912 L 425.560137 440.607478 L 427.561065 444.071043 L 429.561994 447.534608 L 431.562922 450.998175 L 433.563850 454.461740 L 435.564777 457.925306 L 437.565706 461.388870 L 439.566634 464.852437 L 441.567563 468.316003 L 443.568490 471.779567 L 445.712160 472.306703 L 443.790447 469.039865 L 441.367806 465.960310 L 439.279664 462.555586 L 436.848432 459.379250 L 434.974753 455.851104 L 433.154327 452.289355 L 431.254559 448.771717 L 429.190141 445.345614 L 427.125724 441.919511 L 426.293646 438.979652" fill="none" id="16" stroke="black" stroke-width="1.104415" /><path d="M 244.014356 313.558562 L 240.104805 314.404388 L 236.436456 315.009524 L 240.264403 314.892705 L 244.253839 314.602209 L 248.047611 313.723044 L 251.545563 311.845159 L 255.369977 310.673043 L 259.194391 309.500927 L 263.018805 308.328812 L 266.843220 307.156696 L 270.667635 305.984580 L 274.492049 304.812465 L 278.316463 303.640349 L 282.150979 302.503815 L 286.020768 301.491521 L 289.890556 300.479226 L 293.760344 299.466933 L 297.630132 298.454639 L 301.499921 297.442345 L 305.369709 296.430051 L 309.239497 295.417757 L 313.109285 294.405463 L 316.979074 293.393169 L 320.848861 292.380876 L 324.657501 291.184596 L 328.363360 289.679071 L 332.182006 288.750833 L 329.090051 288.758128 L 325.251692 289.864081 L 321.430553 291.046830 L 317.609414 292.229578 L 313.932496 293.758978 L 310.125261 294.926856 L 306.250966 295.921763 L 302.376670 296.916672 L 298.502377 297.911579 L 294.628082 298.906487 L 291.103256 300.782303 L 287.264130 301.884911 L 283.405938 302.940546 L 279.547749 303.996182 L 275.689558 305.051817 L 271.831367 306.107452 L 267.973177 307.163087 L 264.392956 308.899007 L 260.666182 310.266431 L 256.795718 311.276133 L 253.605649 313.226433 L 249.846318 314.433065 L 246.170593 315.701114 L 242.227469 316.373244 L 238.658456 318.027424 L 236.146958 319.856493 L 238.632569 318.895446 L 241.726240 316.487972 L 245.454251 315.038169 L 249.182264 313.588368 L 252.910276 312.138566 L 256.638287 310.688763 L 260.366301 309.238962 L 264.094313 307.789159 L 267.860608 306.450702 L 271.691932 305.301373 L 275.523256 304.152043 L 279.354579 303.002716 L 283.185903 301.853386 L 287.017227 300.704058 L 290.848551 299.554729 L 293.744400 298.676522 L 289.892263 299.754033 L 286.040124 300.831546 L 283.452330 301.517846 L 287.239850 300.231499 L 291.079374 299.115012 L 294.937883 298.060546 L 298.796394 297.006080 L 302.654904 295.951616 L 306.513415 294.897150 L 310.371926 293.842685 L 314.216401 292.742887 L 317.995703 291.432593 L 321.775007 290.122300 L 325.575792 288.880400 L 329.425527 287.794333 L 333.275262 286.708269 L 337.185943 286.062693 L 333.645542 286.188397 L 329.845960 287.438671 L 326.046380 288.688946 L 322.246800 289.939222 L 318.447219 291.189497 L 314.647639 292.439772 L 310.848057 293.690046 L 307.033209 294.889995 L 303.179451 295.961700 L 299.325693 297.033405 L 295.471936 298.105110 L 291.618178 299.176816 L 287.764421 300.248520 L 283.910663 301.320225 L 280.056905 302.391931 L 276.203148 303.463636 L 272.349390 304.535342 L 268.613893 305.955465 L 264.904003 307.451031 L 261.459863 309.436576 L 257.770902 310.819791 L 254.311687 312.671021 L 250.432112 313.620999 L 246.540230 314.544716 L 243.162538 316.574509 L 239.300078 317.614414 L 235.822025 318.948919 L 237.171212 318.797450 L 240.714529 316.941404 L 244.390255 315.372098 L 248.100918 313.878451 L 251.811581 312.384805 L 255.522244 310.891158 L 259.232907 309.397511 L 262.943569 307.903863 L 266.710309 306.560665 L 270.493328 305.261137 L 274.276345 303.961609 L 278.069747 302.694223 L 281.898117 301.535091 L 285.726486 300.375959 L 289.554856 299.216827 L 293.383224 298.057695 L 297.211594 296.898563 L 301.039963 295.739431 L 304.868334 294.580299 L 308.696703 293.421167 L 312.525073 292.262035 L 316.004435 291.208573" fill="none" id="17" stroke="black" stroke-width="1.104415" /><path d="M 375.091606 544.738893 L 374.355549 543.904858 L 372.214743 544.663669 L 370.831927 541.368110 L 369.890096 544.467350 L 369.459376 546.351773" fill="none" id="18" stroke="black" stroke-width="1.104415" /><path d="M 375.091606 544.354873 L 378.272814 546.552970 L 381.348220 548.567126 L 385.189600 549.682382 L 388.833312 551.302618 L 392.490454 552.885689 L 396.342185 553.964654 L 399.873396 554.953832" fill="none" id="20" stroke="black" stroke-width="1.104415" /><path d="M 440.015796 565.783212 L 436.682964 566.265594 L 438.763425 566.883277 L 441.709211 566.226715 L 440.116509 568.087333 L 441.039835 568.087333" fill="none" id="21" stroke="black" stroke-width="1.104415" /><path d="M 384.717585 554.800223 L 387.351650 557.575930 L 390.961826 559.205856 L 392.272943 559.969020 L 388.901666 557.816233 L 385.530389 555.663447 L 382.270576 553.575023 L 385.820421 555.418552 L 389.370267 557.262081 L 392.920112 559.105610 L 396.469957 560.949139 L 400.019802 562.792666 L 403.568481 564.637989 L 407.066400 566.402884 L 410.922714 567.465353 L 414.779028 568.527822 L 418.075065 569.040245 L 414.124791 568.853110 L 411.957076 568.394553" fill="none" id="22" stroke="black" stroke-width="1.104415" /><path d="M 369.459376 542.434763 L 372.476645 545.028488 L 375.397583 547.552373 L 378.372145 549.981262 L 381.489299 552.203294 L 384.682041 554.140877 L 388.096137 556.225088 L 391.389478 558.154629 L 394.077633 560.743839 L 397.494386 562.570420 L 400.972038 564.431939 L 404.624487 565.833849 L 408.208025 567.211910 L 411.083799 569.550819 L 414.741184 571.085891 L 418.686757 571.743496 L 421.559257 573.540422 L 418.023069 573.763349 L 414.114222 572.936495 L 411.071169 570.741550 L 407.413716 569.231348 L 404.333818 567.230121 L 400.830003 565.510001 L 397.243548 563.857608 L 393.901678 561.732829 L 390.289427 560.014792 L 387.247677 557.867902 L 384.184753 555.793479 L 380.567872 554.238583 L 377.696755 552.035282 L 379.638618 551.845738 L 382.875043 554.014095 L 386.054319 556.406938 L 389.551761 558.348046 L 393.049201 560.289153 L 396.468587 562.357412 L 399.782344 564.597727 L 403.196897 566.641957 L 406.947265 568.032906 L 410.697632 569.423856 L 413.897750 571.485950 L 417.786427 572.234753 L 415.577131 571.831553 L 412.378732 569.910297 L 408.873506 568.454188 L 405.191569 567.267216 L 401.868520 565.224712 L 398.596763 563.051475 L 395.068854 561.421969 L 391.947822 559.394987 L 388.226704 558.042061 L 385.226768 555.902633 L 382.581094 553.342192 L 380.314206 551.113632" fill="none" id="23" stroke="black" stroke-width="1.104415" /><path d="M 418.101326 571.159503 L 421.606227 571.208517 L 425.548067 571.888153 L 429.524978 572.157952 L 432.716090 571.100945 L 428.754121 571.651226 L 424.792153 572.201505 L 420.807434 571.922638 L 417.539355 571.622534 L 421.539281 571.647122 L 425.539204 571.671711 L 429.539129 571.696300 L 433.451110 570.876865 L 436.328408 569.085824 L 432.336985 569.320629 L 428.666315 570.555467 L 425.015354 571.653114 L 421.045599 571.429180 L 417.090622 570.830718 L 413.135645 570.232258 L 409.806585 568.738975 L 408.595546 567.914165 L 412.516060 568.707613 L 416.137656 570.122750 L 419.736983 571.151604 L 423.725778 571.450769 L 427.668733 571.204217 L 431.551717 570.243784 L 435.434702 569.283350 L 437.865316 566.722330 L 438.822741 567.796384 L 435.949411 570.256003 L 432.197001 571.396909 L 428.808740 572.877595 L 424.852738 573.386813 L 423.531128 573.214357 L 427.498099 572.701381 L 430.450327 570.595633 L 434.340240 569.663665 L 437.881659 568.014654 L 440.770105 565.637982 L 440.675747 566.295219 L 437.940738 568.778572 L 437.810130 568.005308 L 440.604432 565.204001 L 441.799255 561.428938 L 441.961476 558.144050 L 441.145186 561.986849 L 439.499521 565.585186 L 436.829633 568.269453 L 435.145343 569.149550 L 437.047770 565.688572 L 439.305472 562.386637 L 440.973985 558.768602 L 441.539659 554.808801 L 441.551855 554.723422" fill="none" id="24" stroke="black" stroke-width="1.104415" /><path d="M 748.764146 435.830683 L 749.106844 434.574420 L 747.837253 438.327174 L 745.930897 441.843678 L 743.676335 444.911065 L 740.969173 447.331827 L 738.121401 449.832804 L 735.298817 451.988891 L 732.379495 454.042999 L 729.577977 455.551112 L 729.449074 456.001578 L 733.016682 454.490274 L 736.282914 452.364880 L 738.914692 449.690401 L 741.725762 446.971393 L 743.301420 443.294804 L 745.004969 440.045073 L 747.106306 437.213153 L 748.346972 439.485335 L 746.089995 442.733937 L 743.176775 445.360434 L 740.452645 447.869588 L 737.765231 450.188957 L 735.158014 452.447550 L 733.103783 454.216537 L 736.242529 451.855179 L 740.033974 450.580449 L 742.574446 447.779438 L 744.568737 444.312047 L 746.844684 441.046264 L 749.183973 437.833865 L 750.607425 434.186757 L 750.607425 433.756973" fill="none" id="25" stroke="black" stroke-width="1.104415" /><path d="M 749.173766 383.296683 L 749.199405 387.296601 L 749.225043 391.296517 L 749.250683 395.296436 L 749.279104 399.296177 L 749.760425 403.267112 L 750.193782 407.240679 L 750.149708 411.240436 L 750.105635 415.240194 L 750.061562 419.239951 L 750.017488 423.239708 L 749.973413 427.239464 L 749.929340 431.239222 L 749.898362 434.271899 L 749.962607 430.272415 L 749.839163 426.278278 L 749.547262 422.288944 L 749.255363 418.299609 L 749.071355 414.306331 L 749.071355 410.306331 L 749.071355 406.306331 L 749.071355 402.306331 L 749.071355 398.306331 L 749.071355 394.306331 L 749.071355 390.306331 L 749.071355 386.306331 L 749.071355 382.306331 L 749.071355 378.306331 L 749.197779 377.381837 L 749.526075 381.368341 L 749.854371 385.354847 L 750.182668 389.341352 L 750.510965 393.327855 L 750.839262 397.314361 L 751.167559 401.300865 L 751.221845 405.298634 L 751.221845 409.298634 L 751.560221 413.277634 L 752.054830 417.246936 L 752.176270 421.234091 L 752.062841 425.232482 L 751.949412 429.230874 L 751.836265 433.209416 L 751.836265 429.209416 L 751.836265 425.209416 L 751.836265 421.209416 L 751.794847 417.211150 L 751.460486 413.225148 L 751.126126 409.239148 L 750.791764 405.253148 L 750.457404 401.267147 L 750.123043 397.281146 L 749.890596 393.290878 L 749.890596 389.290878 L 749.890596 385.290878 L 749.890596 384.755953" fill="none" id="26" stroke="black" stroke-width="1.104415" /><path d="M 234.593186 326.692063 L 233.844741 322.762708 L 233.773945 326.012675 L 233.384817 329.988677 L 232.893339 333.958370 L 232.442696 337.930579 L 232.442696 341.930579 L 232.442696 345.930579 L 232.442696 349.930579 L 232.442696 353.930579 L 232.442696 357.930579 L 232.314971 361.927130 L 232.099071 365.921299 L 231.883171 369.915468 L 232.043324 367.956223 L 232.331725 363.966634 L 232.620126 359.977044 L 232.749906 355.981729 L 232.749906 351.981729 L 232.749906 347.981729 L 232.749906 343.981729 L 232.749906 339.981729 L 232.749906 335.981729 L 232.749906 331.981729 L 232.757092 327.982007 L 233.066838 323.994017 L 233.358363 320.321758 L 233.207325 324.318906 L 233.056289 328.316053 L 232.905251 332.313200 L 232.754213 336.310348 L 232.779121 340.300931 L 233.227550 344.275716 L 233.675980 348.250500 L 233.863547 352.243708 L 233.978195 356.242065 L 233.488820 360.211789 L 232.996475 364.181373 L 232.773465 364.172724 L 232.820658 360.173001 L 232.867852 356.173281 L 232.915046 352.173559 L 232.962239 348.173836 L 233.009433 344.174116 L 233.056627 340.174394 L 233.103820 336.174672 L 233.151014 332.174951 L 233.198207 328.175230 L 233.245401 324.175507 L 233.233461 325.374344 L 233.189659 329.374103 L 233.145857 333.373864 L 233.102055 337.373625 L 233.058254 341.373384 L 233.014452 345.373145 L 232.970650 349.372905 L 232.926849 353.372664 L 232.883047 357.372425 L 232.801024 361.371154 L 232.629138 365.367459 L 232.355756 365.285979 L 232.237886 361.291449 L 232.237886 357.291449 L 232.237886 353.291449 L 232.237886 349.291449 L 232.237886 345.291449 L 232.457425 341.298290 L 232.706451 337.306050 L 232.955477 333.313808 L 233.204503 329.321568 L 233.453530 325.329328 L 233.702556 321.337086 L 233.828861 319.758209 L 233.671634 323.755117 L 233.514408 327.752026 L 233.357181 331.748936 L 233.199955 335.745845 L 233.042729 339.742752 L 232.885503 343.739662 L 232.728275 347.736571 L 232.571050 351.733479 L 232.413823 355.730389 L 232.256597 359.727297 L 232.099371 363.724205 L 231.942144 367.721114 L 231.930676 364.304436 L 231.930676 360.304436 L 231.930676 356.304436 L 231.930676 352.304436 L 232.026601 348.309200 L 232.422974 344.328888 L 232.819348 340.348574 L 233.215721 336.368263 L 233.612095 332.387949 L 233.819017 328.396417 L 233.895193 324.397144 L 233.971370 320.397869 L 233.978756 323.622266 L 233.651821 327.602374 L 233.166881 331.572870 L 232.731015 335.547182 L 232.596228 339.544910 L 232.461442 343.542639 L 232.326655 347.540367 L 232.191868 351.538095 L 232.057081 355.535823 L 231.922293 359.533551 L 231.787507 363.531281 L 231.652720 367.529009 L 231.623466 368.396682" fill="none" id="27" stroke="black" stroke-width="1.104415" /><path d="M 233.364336 392.589972 L 233.755974 396.533602 L 234.884079 400.371229 L 236.012182 404.208856 L 237.540142 407.899589 L 239.164678 411.554844 L 240.789214 415.210098 L 242.413748 418.865352 L 244.951176 421.480163 L 246.365849 425.221647 L 249.175161 428.067759 L 251.539866 431.200103 L 254.554924 433.177646 L 256.974280 436.287596 L 260.010841 438.565269 L 262.612423 440.985208 L 265.369895 443.489541 L 267.338146 446.824730 L 269.825380 449.606863 L 271.553842 452.691523 L 272.585096 455.569333" fill="none" id="28" stroke="black" stroke-width="1.104415" /><path d="M 241.863876 415.323982 L 244.017715 418.613835 L 246.375894 421.831221 L 248.612645 425.147384 L 247.228995 423.065692 L 245.009578 419.737903 L 242.790159 416.410114 L 243.929674 417.957630 L 246.248537 421.216905 L 248.567400 424.476180 L 250.886263 427.735456 L 253.205127 430.994731 L 255.881193 433.959377 L 258.158458 437.197220 L 260.306631 440.468733 L 262.960962 443.149541 L 265.435848 445.800637 L 267.106354 449.424814 L 269.891867 451.802075 L 272.175486 454.703228 L 272.175486 455.338923" fill="none" id="29" stroke="black" stroke-width="1.104415" /><path d="M 233.569136 377.997192 L 233.111734 374.023431 L 232.654332 370.049668 L 232.256302 368.572345 L 231.988323 372.563358 L 231.720345 376.554372 L 231.693647 375.444227 L 231.803569 371.445737 L 231.913489 367.447248 L 232.023411 363.448757 L 232.113683 366.744623 L 232.202060 370.743647 L 232.290436 374.742671 L 232.504131 375.263081 L 232.880035 371.280782 L 233.159526 367.293945 L 233.159526 363.293945 L 233.159526 359.293945 L 233.231302 362.912164 L 233.306669 366.911453 L 233.382036 370.910744 L 233.457403 374.910033 L 233.532771 378.909324 L 233.532178 378.769253 L 233.460762 374.769892 L 233.389346 370.770529 L 233.317931 366.771166 L 233.135432 364.488679 L 232.749906 368.460278 L 232.749906 372.460278 L 232.771139 376.458795 L 233.327087 380.419972 L 233.883034 384.381148 L 234.438982 388.342326 L 234.994929 392.303501 L 235.865632 396.199379 L 236.931344 400.054798 L 237.052110 397.856114 L 236.109721 393.968711 L 235.167332 390.081309 L 234.224942 386.193906 L 233.282554 382.306503 L 232.427633 378.407109 L 232.289188 374.409507 L 232.291584 375.445278 L 232.376898 379.444367 L 232.579988 383.433308 L 233.180155 387.388026 L 233.780322 391.342744 L 235.183265 395.070910 L 236.461309 398.853269 L 237.835676 402.538341 L 237.637337 398.655864 L 236.576722 394.799038 L 235.516108 390.942215 L 234.470022 387.082255 L 233.846179 383.131202 L 233.569136 379.152939 L 233.646568 380.225843 L 233.768650 384.223980 L 234.021161 388.199525 L 235.250866 392.005812 L 236.480571 395.812100 L 237.710277 399.618387 L 238.939983 403.424676 L 240.169688 407.230963 L 240.737426 407.700051 L 239.634400 403.901976 L 237.974398 400.262692 L 236.371971 396.604039 L 235.494977 392.701364 L 234.952394 391.342488 L 235.680999 395.256576 L 236.666940 399.133164 L 237.652881 403.009749 L 238.775040 406.841502 L 240.812587 410.231308 L 242.324351 413.906004 L 243.809546 415.999565 L 243.114717 412.133820 L 241.624587 408.421742 L 239.891683 404.825077 L 237.815881 401.442630 L 236.089558 398.135710 L 236.873867 401.229901 L 238.112430 405.024683 L 240.025470 408.528514 L 242.047431 411.979843 L 244.069391 415.431172 L 245.408310 419.189811 L 248.125513 421.239576 L 249.419522 424.837686 L 251.475047 427.986674 L 252.206686 430.377592" fill="none" id="30" stroke="black" stroke-width="1.104415" /><path d="M 243.297526 414.709553 L 243.310972 416.441126 L 246.146541 419.151117 L 248.270748 422.538466 L 250.388561 425.931823 L 248.822626 423.450046 L 246.690679 420.065553 L 244.558733 416.681058 L 244.062601 415.752421 L 246.364144 419.023950 L 248.665687 422.295478 L 250.967230 425.567006 L 253.268773 428.838536 L 255.417326 432.207288 L 256.773450 433.746713 L 254.947547 430.429456 L 252.259606 427.467197 L 249.420017 424.983138 L 247.180901 421.737700 L 245.162645 418.376692 L 243.867165 414.846367 L 244.006988 418.239654 L 246.429170 421.273609 L 248.885696 424.372650 L 251.012749 427.760222 L 253.139801 431.147795 L 255.266853 434.535368 L 257.784986 437.630703 L 260.464827 440.596317 L 263.489486 443.213842 L 265.314406 443.818303" fill="none" id="31" stroke="black" stroke-width="1.104415" /><path d="M 252.411496 425.922953 L 251.890445 427.086356 L 254.711718 429.804022 L 257.152969 432.961838 L 259.552948 436.161856 L 258.829534 435.229824 L 256.405507 432.047985 L 253.981479 428.866149 L 252.877223 427.400306 L 255.330309 430.559796 L 257.783393 433.719285 L 260.236480 436.878774 L 262.770528 439.961367 L 264.806708 443.171565 L 267.859009 444.974595 L 270.466598 447.271114 L 271.458656 449.732223" fill="none" id="32" stroke="black" stroke-width="1.104415" /><path d="M 416.053236 587.595573 L 416.628513 590.454357 L 419.596391 593.082661 L 421.535606 596.581154 L 423.167792 599.538169 L 421.161235 596.077863 L 419.154676 592.617554 L 417.148120 589.157248 L 417.333110 589.365130 L 419.429267 592.771907 L 421.525425 596.178683 L 423.621582 599.585458 L 425.717740 602.992234 L 427.813898 606.399011 L 429.910055 609.805786 L 431.829284 613.310977 L 433.618120 616.888695 L 435.406955 620.466413 L 436.903236 624.147386 L 437.756420 628.055336 L 438.609605 631.963286 L 439.462790 635.871237 L 439.909945 639.845090 L 440.220606 641.653349 L 440.220606 637.653349 L 440.220606 633.653349 L 440.220606 629.653349 L 439.105568 625.849790 L 437.172452 622.352976 L 435.226526 618.862323 L 433.895263 615.090354 L 432.113364 611.525795 L 430.492215 607.960024 L 429.867481 609.375366 L 431.429646 613.037694 L 433.090796 616.676454 L 434.751946 620.315216 L 436.373586 623.967282 L 437.252029 627.869631 L 437.660505 631.824225 L 438.572090 635.681927 L 439.100171 639.624883 L 439.523877 638.347715 L 440.018486 634.378412 L 439.566463 630.483205 L 438.460289 626.639199 L 437.354118 622.795192 L 437.148485 622.080613" fill="none" id="33" stroke="black" stroke-width="1.104415" /><path d="M 440.630225 642.740913 L 444.629588 642.812336 L 448.207446 641.229375 L 451.921377 639.852686 L 454.375895 639.060075 L 450.477555 639.956149 L 446.579216 640.852224 L 442.680877 641.748298 L 439.213406 642.545332" fill="none" id="34" stroke="black" stroke-width="1.104415" /><path d="M 437.660505 644.661023 L 438.941008 645.163753 L 442.929726 644.938474 L 446.796967 644.314836 L 449.918693 641.813871 L 453.405985 639.910300 L 449.631035 641.059290 L 445.805379 642.227343 L 441.979721 643.395397 L 438.213406 644.545332" fill="none" id="35" stroke="black" stroke-width="1.104415" /><path d="M 726.235246 457.950263 L 726.986155 459.318450 L 730.262776 461.564952 L 733.064260 464.242724 L 735.843132 466.741998 L 738.078421 469.882295 L 741.406606 472.101122 L 742.727640 475.853613 L 745.480405 478.522015 L 746.137089 482.231173 L 747.023242 486.115290 L 748.297347 489.900360 L 749.811860 493.602554 L 750.567640 497.480805 L 750.854009 497.685658 L 750.997816 493.710591 L 750.036385 489.827854 L 748.116669 486.456730 L 745.580776 483.456618 L 744.026735 479.784119 L 742.518804 476.079239 L 740.603770 472.567476 L 738.688382 469.055882 L 736.231017 466.154990 L 733.434817 464.401803 L 735.758475 466.904742 L 738.897478 469.364059 L 740.855881 472.848327 L 742.801155 476.343454 L 744.746428 479.838581 L 746.691703 483.333707 L 748.507147 486.886500 L 749.796187 490.673104 L 751.085227 494.459709 L 751.920832 495.615179 L 751.868029 491.615526 L 751.352120 487.691050 L 749.527612 484.246610 L 746.996758 481.756764 L 745.387519 478.102971 L 743.628681 474.510410 L 741.869845 470.917848 L 739.233369 468.036507 L 736.361174 465.748037 L 733.926359 463.166618 L 731.698266 460.859732 L 733.220026 461.936524 L 736.097563 464.678672 L 738.746334 467.676007 L 741.722457 470.282457 L 743.639095 473.759846 L 745.938815 476.910278 L 747.221462 480.428275 L 748.140433 484.296919 L 749.543379 488.042816 L 750.407280 491.922703 L 750.812225 495.046643" fill="none" id="36" stroke="black" stroke-width="1.104415" /><path d="M 234.797986 452.650782 L 236.320582 455.726745 L 239.024356 458.610564 L 240.990821 461.857333 L 238.882014 458.458372 L 236.773208 455.059412 L 235.213406 452.545333" fill="none" id="37" stroke="black" stroke-width="1.104415" /><path d="M 447.286486 931.601122 L 450.130050 929.571158 L 454.032487 928.693096 L 457.630069 927.093951 L 456.764500 927.219465 L 453.120805 928.869762 L 449.477108 930.520060 L 447.213406 931.545332" fill="none" id="38" stroke="black" stroke-width="1.104415" /><path d="M 434.383576 941.585653 L 433.453463 941.913610 L 437.335560 942.658221 L 441.275532 942.955583 L 444.256392 940.870553 L 446.285794 937.535846 L 447.491296 933.829796 L 447.485462 936.742525 L 445.222482 939.557432 L 442.348638 941.860361 L 439.822543 944.711017 L 437.559258 944.964309 L 440.861898 942.721146 L 443.746545 939.968053 L 446.365060 936.944252 L 448.983575 933.920450 L 450.351603 930.756273 L 449.333537 934.457943 L 446.342828 937.114194 L 444.074268 940.360363 L 441.665302 943.121733 L 441.654266 943.121733" fill="none" id="39" stroke="black" stroke-width="1.104415" /><path d="M 385.946436 899.189792 L 388.614392 900.810858 L 389.223365 901.724333" fill="none" id="40" stroke="black" stroke-width="1.104415" /><path d="M 388.506535 897.730513 L 389.564758 898.880770 L 392.546037 901.333945 L 394.674700 904.720506 L 397.410624 907.615256 L 400.280929 910.401177 L 403.151233 913.187098 L 405.890643 916.100269 L 408.594469 919.048036 L 411.298294 921.995802 L 414.068756 924.866886 L 417.364912 927.133019 L 419.642786 930.361638 L 422.753637 932.863090 L 425.953621 935.263112 L 428.841882 937.693337 L 431.966944 939.713759 L 434.915022 942.108795 L 437.814901 944.452452 L 438.345540 944.078558 L 435.466179 941.301999 L 432.191488 939.054495 L 428.933981 936.758043 L 426.053151 934.355363 L 422.896317 932.172269 L 419.913316 929.921800 L 417.423498 926.791176 L 414.366170 924.292421 L 411.609337 921.732619 L 409.481447 918.403352 L 406.404078 915.848005 L 403.694795 912.982079 L 401.249531 909.839256 L 398.178863 907.646447 L 396.303971 904.124577 L 393.774240 901.046314 L 393.043854 902.344775 L 396.093947 904.583776 L 398.163605 908.006716 L 400.568248 911.137594 L 403.677211 913.654408 L 406.596565 916.350668 L 408.997795 919.541973 L 411.877156 922.318534 L 415.011795 924.427884 L 417.293022 927.621117 L 420.054643 930.377991 L 422.690557 933.273773 L 425.639541 935.465150 L 428.397964 937.911105 L 431.167269 940.622689 L 434.285743 942.608531 L 438.225240 943.216866 L 441.949093 942.461900 L 443.395135 940.587202" fill="none" id="41" stroke="black" stroke-width="1.104415" /><path d="M 743.541536 754.874892 L 746.284592 751.963596 L 749.040509 749.067635 L 751.491233 746.105967 L 752.049752 744.732086 L 750.140296 747.986159 L 747.599895 750.624325 L 744.639644 752.827922 L 743.122711 753.915314 L 745.903176 751.054753 L 747.740260 747.501592 L 749.962558 744.693161 L 749.491145 747.926168 L 746.768914 750.811012 L 745.715587 751.724560 L 747.248131 748.149315 L 750.234562 745.840899 L 752.220130 742.397791 L 755.318006 740.215929 L 754.716794 741.460921 L 752.547986 744.585068 L 749.992996 747.040882" fill="none" id="42" stroke="black" stroke-width="1.104415" /><path d="M 753.269925 502.650242 L 752.612337 498.704666 L 752.052989 495.802026 L 752.143746 499.800995 L 752.234502 503.799966 L 752.325259 507.798937 L 752.416014 511.797907 L 752.506772 515.796877 L 752.597527 519.795848 L 752.688285 523.794818 L 752.779041 527.793788 L 752.838279 531.792285 L 752.627355 535.786720 L 752.416431 539.781154 L 752.205505 543.775590 L 751.994581 547.770024 L 751.783657 551.764460 L 751.631465 554.646623" fill="none" id="44" stroke="black" stroke-width="1.104415" /><path d="M 235.310006 451.959542 L 234.206774 448.699181 L 235.908812 445.114425 L 237.445134 444.220668 L 234.604343 446.870134 L 232.679330 450.376460 L 231.013602 453.285276 L 231.536347 449.369363 L 233.253392 445.769711 L 235.666509 443.587893 L 234.581590 446.960552 L 233.137244 449.982705 L 234.678478 446.367075 L 237.178750 444.125522 L 240.582842 443.114510 L 244.504495 442.399069 L 248.469571 442.483472 L 252.391112 443.271835 L 256.312654 444.060197 L 259.156530 446.689217 L 262.430987 448.861883 L 265.446377 450.980883 L 268.566666 452.650782 L 268.796146 452.650782" fill="none" id="45" stroke="black" stroke-width="1.104415" /><path d="M 246.779266 443.203872 L 246.834017 443.671316 L 250.729090 444.581484 L 254.624163 445.491653 L 258.519236 446.401821 L 262.414309 447.311989 L 265.861888 448.886408 L 269.163227 450.771474 L 270.944603 451.849745 L 267.061917 451.369046 L 263.527287 449.586893 L 260.698479 447.197043 L 256.814194 446.241879 L 253.924602 444.107894 L 254.776590 444.614238 L 258.603593 445.777869 L 261.964179 447.814988 L 265.693844 449.200636 L 269.082504 451.299676 L 270.433313 451.856813 L 266.830733 450.271594 L 263.538426 447.999874 L 259.803451 446.978382 L 263.026592 447.749671 L 266.450198 449.761329 L 270.042739 451.520206 L 272.927101 453.649232 L 273.711545 453.649232" fill="none" id="46" stroke="black" stroke-width="1.104415" /><path d="M 252.718705 442.589443 L 248.825040 441.673271 L 244.861334 441.360572 L 241.666201 442.856507 L 237.848675 443.863534 L 235.133297 446.148879 L 233.208267 449.420075 L 230.718607 452.174533 L 229.780186 454.110052" fill="none" id="47" stroke="black" stroke-width="1.104415" /><path d="M 250.977835 441.130162 L 246.978021 441.168626 L 242.978527 441.209746 L 239.084860 442.125911 L 235.952432 444.117123 L 233.662306 447.056984 L 231.955564 450.674584 L 230.248821 454.292185 L 230.189806 454.417273" fill="none" id="48" stroke="black" stroke-width="1.104415" /><path d="M 249.646586 656.412042 L 248.290355 653.447237 L 247.752912 657.410966 L 249.064440 661.140277 L 250.574055 664.844472 L 252.083669 668.548667 L 253.593283 672.252862 L 255.102898 675.957059 L 256.779423 679.581951 L 258.697498 683.092076 L 260.615576 686.602202 L 262.533652 690.112327 L 264.889053 693.273155 L 266.620187 696.807477 L 268.979380 699.829751 L 269.308166 701.112033" fill="none" id="49" stroke="black" stroke-width="1.104415" /><path d="M 245.960036 651.266173 L 245.140805 653.748653 L 246.219229 657.573651 L 247.393696 658.080819 L 246.967678 654.137120 L 245.928605 650.274435 L 245.079590 647.536723 L 245.367131 651.526374 L 246.504294 655.322381 L 247.905716 658.683953 L 247.286388 654.784455 L 246.021493 650.989715 L 244.756597 647.194977 L 243.958602 645.873413 L 244.977320 649.733569 L 246.272860 653.517954 L 246.080873 650.133731 L 244.726717 646.369922 L 244.119847 644.926154 L 244.766414 648.797078 L 244.295332 645.081494 L 243.057006 641.278002 L 242.307365 637.362733 L 241.769101 633.399114 L 241.610451 634.255392 L 241.990465 638.224288 L 242.722087 642.156810 L 243.453708 646.089331 L 243.701747 642.622612 L 243.185776 638.656030 L 242.669804 634.689448 L 242.446956 635.732378 L 242.397118 639.732067 L 242.916985 643.667287 L 242.794135 640.299051 L 242.065787 636.365922 L 241.337441 632.432792 L 240.609094 628.499662 L 240.288370 630.547984 L 240.338579 634.493207 L 240.348616 630.882268 L 239.772251 626.933821 L 239.039363 623.001535 L 239.214529 626.531903 L 239.446022 630.525198 L 239.654746 632.222037 L 239.807008 628.224937 L 239.159875 624.282609 L 238.689346 620.323862 L 239.175083 621.338775 L 239.856110 625.275488 L 240.099930 629.268049 L 240.343750 633.260611 L 240.331945 632.096862 L 240.179675 628.099761 L 240.027405 624.102660 L 239.875135 620.105560 L 239.902137 620.987027 L 240.043643 624.984524 L 240.429305 628.956209 L 241.126779 632.894930 L 241.824252 636.833652 L 241.863876 633.284653 L 241.365936 629.320547 L 240.885970 626.019111 L 241.441916 629.980288 L 241.997861 633.941465 L 242.553808 637.902641 L 243.293501 641.832314 L 244.088879 645.752438 L 244.423976 645.198643" fill="none" id="50" stroke="black" stroke-width="1.104415" /><path d="M 239.815786 633.985253 L 239.303765 635.572475 L 240.142435 639.473148 L 241.076802 643.362488 L 242.614100 647.031941 L 243.497799 648.133149 L 242.558000 644.245118 L 241.618200 640.357089 L 240.678401 636.469058 L 240.691434 636.508854 L 241.637615 640.395335 L 242.583796 644.281817 L 243.529978 648.168299 L 244.534886 652.037533 L 245.840512 655.818453 L 247.146136 659.599370 L 248.560125 663.337589 L 250.184663 666.992843 L 251.809202 670.648095 L 253.832160 674.081023 L 255.719693 677.597661 L 257.464766 681.196928 L 259.209840 684.796193 L 261.166601 688.280822 L 263.227319 691.709150 L 265.288037 695.137480 L 267.464896 697.118213" fill="none" id="51" stroke="black" stroke-width="1.104415" /><path d="M 232.954716 545.660543 L 232.442696 547.969437 L 232.442696 551.969437 L 232.442696 555.969437 L 232.748671 559.953481 L 233.164696 563.931789 L 233.254226 561.796415 L 233.244179 557.796429 L 233.234132 553.796441 L 233.224084 549.796453 L 233.214037 545.796467 L 233.213406 545.545332" fill="none" id="52" stroke="black" stroke-width="1.104415" /><path d="M 233.261926 546.812603 L 233.584107 550.799606 L 233.943743 554.781657 L 234.669092 558.715341 L 235.072624 560.614358 L 234.548581 556.648836 L 234.024538 552.683312 L 233.500495 548.717787 L 233.403677 548.343953 L 233.824478 552.321757 L 234.245278 556.299562 L 234.666078 560.277366 L 235.086880 564.255170 L 235.507681 568.232974 L 235.928482 572.210780 L 236.349282 576.188584 L 236.770083 580.166388 L 237.190884 584.144192 L 237.611684 588.121997 L 238.032486 592.099801 L 238.453286 596.077605 L 238.874087 600.055408 L 239.294888 604.033213 L 239.715688 608.011017 L 240.136489 611.988821 L 240.557289 615.966625 L 240.978091 619.944430 L 241.398892 623.922235 L 241.708096 624.855561 L 241.836543 620.857624 L 241.423703 616.888980 L 240.864547 612.928254 L 240.305392 608.967529 L 239.949275 604.988830 L 239.803919 600.991471 L 239.570886 596.999862 L 239.193061 593.017746 L 238.815237 589.035630 L 238.437413 585.053514 L 238.059589 581.071397 L 237.681765 577.089281 L 237.303941 573.107166 L 236.926117 569.125049 L 236.548292 565.142933 L 236.170468 561.160817 L 235.791821 557.797965 L 235.403430 561.779065 L 235.195695 565.769499 L 235.171672 569.769427 L 235.147650 573.769354 L 235.123627 577.769283 L 235.166949 581.767180 L 235.431821 585.758401 L 235.696694 589.749621 L 235.961566 593.740842 L 236.226439 597.732063 L 236.679872 601.706190 L 237.137087 605.679972 L 237.594302 609.653756 L 237.978499 613.632044 L 238.013127 617.631894 L 238.047757 621.631743 L 238.225062 625.618462 L 238.921099 629.557438 L 239.148281 628.754728 L 239.059416 624.755714 L 238.873785 620.762869 L 238.454273 616.784928 L 238.034761 612.806988 L 237.615248 608.829048 L 237.195735 604.851108 L 236.776222 600.873168 L 236.356708 596.895228 L 236.018083 592.910565 L 235.775259 588.917942 L 235.532433 584.925320 L 235.289610 580.932698 L 235.046785 576.940075 L 234.803962 572.947452 L 234.797986 568.947634 L 234.797986 564.947634 L 234.797986 560.947634 L 234.754520 556.950082 L 234.305406 552.975374 L 234.420158 556.627822 L 234.560422 560.625363 L 234.700686 564.622903 L 234.840950 568.620442 L 234.981213 572.617983 L 235.142002 576.614347 L 235.459176 580.601751 L 235.776351 584.589157 L 236.093525 588.576562 L 236.410701 592.563967 L 236.727876 596.551372 L 237.045051 600.538778 L 237.255685 604.530414 L 237.255685 608.530414 L 237.255685 612.530414 L 237.255685 616.530414 L 237.106267 613.803209 L 236.637134 609.835714 L 236.035866 605.881162 L 235.434599 601.926612 L 234.833332 597.972060 L 234.301828 594.009300 L 233.968911 590.023179 L 233.635995 586.037058 L 233.303078 582.050936 L 232.970163 578.064814 L 232.637247 574.078691 L 232.304331 570.092570 L 231.971415 566.106449 L 231.638498 562.120327 L 231.521056 558.125223 L 231.521056 554.125223 L 231.521056 550.125223 L 231.521056 546.125223 L 231.521056 542.125223 L 231.521056 538.125223 L 231.521056 534.125223 L 231.788111 536.145876 L 232.142267 540.130167 L 232.442696 544.116841 L 232.442696 548.116841 L 232.442696 552.116841 L 232.646861 556.109322 L 232.941061 560.098490 L 233.235260 564.087655 L 233.529459 568.076822 L 233.823657 572.065988 L 234.117857 576.055153 L 234.412056 580.044321 L 234.706255 584.033486 L 235.000455 588.022653 L 235.294654 592.011819 L 235.588853 596.000984 L 235.883052 599.990151 L 236.177251 603.979317 L 236.542804 607.961842 L 236.989780 611.936791 L 237.162438 609.028641 L 237.291662 605.030729 L 237.420886 601.032816 L 237.190331 597.046643 L 236.800759 593.065660 L 236.411189 589.084676 L 236.021618 585.103691 L 235.632047 581.122708 L 235.242476 577.141724 L 234.852903 573.160739 L 234.463333 569.179755 L 234.134416 565.194483 L 233.960037 561.198285 L 233.785661 557.202089 L 233.611283 553.205892 L 233.436904 549.209693 L 233.262527 545.213497 L 232.701220 541.253141 L 232.138573 537.292911 L 231.930676 533.307606 L 232.359657 529.352602 L 232.772558 530.605394 L 232.964003 534.600810 L 233.155448 538.596227 L 233.346892 542.591643 L 233.538338 546.587059 L 233.729782 550.582474 L 233.921228 554.577890 L 234.112673 558.573307 L 234.304119 562.568723 L 234.495564 566.564139 L 234.687009 570.559554 L 234.878454 574.554970 L 235.069899 578.550387 L 235.153880 580.545485 L 234.916163 576.552555 L 234.678446 572.559625 L 234.440729 568.566695 L 234.203012 564.573765 L 234.311235 567.917702 L 234.450278 571.915284 L 234.681948 575.908127 L 234.951683 579.899023 L 235.221417 583.889918 L 235.491151 587.880813 L 235.760886 591.871707 L 236.030620 595.862602 L 236.300353 599.853498 L 236.570087 603.844393 L 236.743666 606.412582" fill="none" id="53" stroke="black" stroke-width="1.104415" /><path d="M 232.647506 452.573973 L 231.957374 454.184996 L 231.553365 458.164540 L 231.149356 462.144085 L 230.745347 466.123629 L 231.331751 463.039247 L 232.037729 459.102040 L 232.743705 455.164833 L 233.213406 452.545333" fill="none" id="54" stroke="black" stroke-width="1.104415" /><path d="M 444.623986 942.891323 L 441.082260 944.741878 L 438.824478 945.017183 L 442.471966 943.939577 L 445.763488 941.887972 L 449.508801 940.483466 L 452.379289 937.796381 L 455.935253 936.909536 L 452.092978 937.876711 L 449.337585 940.526045 L 445.678770 941.846747 L 444.767486 943.071516 L 448.183888 941.591106 L 451.782714 939.846638 L 455.068955 937.571332 L 458.563052 935.978952 L 456.223333 936.037076 L 452.994508 937.987055 L 449.606473 939.918429 L 446.291150 941.954620 L 444.623986 942.430502" fill="none" id="55" stroke="black" stroke-width="1.104415" /><path d="M 253.845156 678.147603 L 255.339858 681.729564 L 258.009595 684.680058 L 260.213620 688.009119 L 261.633376 690.488287 L 259.522467 687.090632 L 257.411557 683.692977 L 255.300646 680.295322 L 255.273213 680.169987 L 257.458646 683.520193 L 259.644081 686.870398 L 261.829515 690.220605 L 264.014949 693.570809 L 266.200382 696.921015 L 268.385817 700.271222 L 270.571250 703.621427 L 272.756684 706.971634 L 274.241177 709.091374 L 273.093742 705.313800 L 271.055019 701.912486 L 268.415835 698.906707 L 266.024781 695.740719 L 264.236447 692.172156 L 262.064870 688.812952 L 259.893294 685.453747 L 257.818312 682.039671 L 256.044919 678.454273 L 255.176406 678.457716 L 256.302665 682.277996 L 258.788993 685.296590 L 260.307591 688.978642 L 262.225665 692.488769 L 264.143739 695.998897 L 266.188311 699.434309 L 268.336449 702.808551 L 270.484587 706.182792 L 272.632724 709.557032 L 274.780863 712.931273 L 277.500495 715.658083 L 277.500495 716.242433" fill="none" id="56" stroke="black" stroke-width="1.104415" /><path d="M 267.567296 696.887803 L 266.768034 697.807727 L 267.505013 701.730034 L 269.546470 705.028317 L 271.596464 708.423845 L 271.237365 706.622040 L 270.087643 702.790833 L 268.937921 698.959628 L 268.893136 697.859259 L 270.731068 701.412004 L 272.569001 704.964751 L 274.406934 708.517496 L 276.244867 712.070243 L 278.082800 715.622988 L 279.920731 719.175733 L 281.758665 722.728480 L 283.596598 726.281226 L 285.434530 729.833971 L 287.272463 733.386718 L 289.110395 736.939463 L 290.948329 740.492210 L 292.786262 744.044955 L 294.624193 747.597700 L 295.011595 748.346553" fill="none" id="57" stroke="black" stroke-width="1.104415" /><path d="M 283.235125 726.073363 L 281.391856 723.147491 L 281.564295 727.125600 L 283.599192 730.400608 L 285.896328 733.629621 L 287.858959 737.115031 L 289.821589 740.600442 L 291.784219 744.085852 L 293.775514 747.553207 L 296.071223 750.828833 L 298.366931 754.104459 L 300.662639 757.380084 L 302.958347 760.655711 L 305.254054 763.931337 L 307.549762 767.206963 L 309.845471 770.482589 L 312.513082 773.451536 L 314.575379 776.878503 L 316.635191 780.307378 L 317.341441 779.794839 L 314.391003 777.616592 L 312.306354 774.210498 L 310.207376 770.816986 L 307.075817 768.488052 L 304.788670 765.206443 L 302.645494 761.840648 L 300.907155 758.238124 L 299.158275 754.641541 L 296.976771 751.288775 L 294.795269 747.936007 L 292.708748 744.532251 L 291.119674 740.861440 L 289.222150 737.354402 L 287.071504 733.981759 L 285.519561 730.296492 L 282.824493 727.404000 L 282.497604 729.470071 L 284.586265 732.697153 L 286.894135 735.928349 L 289.044397 739.296579 L 291.488585 742.462956 L 293.932772 745.629333 L 296.376961 748.795710 L 298.821149 751.962087 L 301.242929 755.144817 L 303.512850 758.438365 L 305.782771 761.731913 L 308.052691 765.025461 L 310.322611 768.319009 L 312.535480 771.649550 L 314.616136 775.065814 L 315.697226 777.839322" fill="none" id="58" stroke="black" stroke-width="1.104415" /><path d="M 387.687306 891.432582 L 385.834316 890.094115 L 387.176428 893.770998 L 390.445806 896.008649 L 392.743489 899.282890 L 395.041171 902.557131 L 397.338853 905.831373 L 399.636536 909.105614 L 402.170192 912.193805 L 404.817948 915.192035 L 405.608025 916.086693" fill="none" id="59" stroke="black" stroke-width="1.104415" /></svg>