<?xml version="1.0" encoding="utf-8" ?>
<svg baseProfile="full" height="538.640915" version="1.1" viewBox="0,0,705.640915,538.640915" width="705.640915" xmlns="http://www.w3.org/2000/svg" xmlns:ev="http://www.w3.org/2001/xml-events" xmlns:xlink="http://www.w3.org/1999/xlink"><defs><style type="text/css"><![CDATA[
	.background { fill: white; }
	.line { stroke: firebrick; stroke-width: .1mm; }
	.blacksquare { fill: indigo; }
	.whitesquare { fill: white; }
]]></style></defs><rect class="background" height="100%" width="100%" x="0" y="0" /><path d="M 262.327542 150.739629 L 265.462542 151.768629 L 268.562542 152.900629 L 271.603542 154.179629 L 274.594542 155.572629 L 277.568542 157.003628 L 280.541542 158.435629 L 283.514542 159.867628 L 286.488542 161.298629 L 289.451542 162.749629 L 292.338542 164.347629 L 295.057542 166.218628 L 297.659542 168.246629 L 300.220542 170.327629 L 302.773542 172.418629 L 305.327542 174.509628 L 307.880542 176.599628 L 310.433542 178.690629 L 312.986542 180.781629 L 315.540542 182.872628 L 318.093542 184.962628 L 320.646542 187.053629 L 323.198542 189.145628 L 325.737542 191.254628 L 328.186542 193.463628 L 330.397542 195.902628 L 332.451542 198.485628 L 334.505542 201.068628 L 336.559542 203.651628 L 338.613542 206.234629 L 340.667542 208.817629" fill="none" id="0" stroke="#f375a0" stroke-width="0.5" /><path d="M 280.115542 42.955928 L 277.958542 47.395128 L 275.805542 51.836928 L 273.662542 56.283228 L 271.522542 60.730829 L 269.388542 65.181428 L 267.300542 69.653829 L 265.464542 74.226928 L 263.902542 78.908929 L 262.624542 83.674729 L 261.818542 88.485229 L 262.358542 93.391329 L 263.225542 98.243229 L 264.300542 103.060629 L 265.374542 107.877629 L 266.449542 112.695628 L 267.524542 117.512629 L 268.598542 122.330629 L 269.673542 127.147628 L 270.747542 131.964629 L 271.822542 136.782628 L 272.897542 141.599628 L 274.078542 146.391628 L 275.389542 151.144629 L 277.134542 155.761629 L 279.297542 160.180629 L 281.769542 164.453629 L 284.690542 168.429629 L 287.687542 172.350628 L 290.794542 176.185629 L 293.902542 180.020628 L 297.009542 183.854628 L 300.117542 187.689628 L 303.224542 191.524629 L 306.332542 195.359629 L 309.439542 199.193628 L 312.548542 203.027628 L 315.661542 206.858629 L 319.012542 210.470629 L 322.567542 213.893629 L 326.571542 216.771628 L 330.692542 219.479628 L 334.996542 221.895628 L 339.656542 223.342628 L 344.505542 224.254628 L 349.428542 224.601629 L 354.353542 224.937628 L 359.278542 225.255629 L 364.204542 225.574628 L 369.129542 225.893629 L 374.055542 226.211628 L 378.979542 226.173629 L 383.902542 225.819628 L 388.427542 223.917629 L 392.792542 221.644629 L 396.866542 218.858629 L 400.605542 215.661629 L 404.155542 212.231628" fill="none" id="1" stroke="#00d4db" stroke-width="0.5" /><path d="M 37.940542 258.649629 L 41.882843 261.704629 L 45.825243 264.758628 L 49.767543 267.813628 L 53.709943 270.868628 L 57.652242 273.922628 L 61.594643 276.977628 L 65.539743 280.028629 L 69.523743 283.028629 L 73.574643 285.937629 L 77.632743 288.837628 L 81.690943 291.735629 L 85.749243 294.634629 L 89.807443 297.533629 L 93.865643 300.432629 L 97.923943 303.331629 L 101.982543 306.230629 L 106.040543 309.129629 L 110.098543 312.028629 L 114.156543 314.927629 L 118.214543 317.826629 L 122.273543 320.725629 L 126.331543 323.624629 L 130.389543 326.523628 L 134.447542 329.422628 L 138.506542 332.321628 L 142.564542 335.220628 L 146.622543 338.119628 L 150.680543 341.018628 L 154.739542 343.917628 L 158.797542 346.816628 L 162.855542 349.715628 L 166.913543 352.614628 L 170.971542 355.513628 L 175.030542 358.412628 L 179.099542 361.295629 L 183.225542 364.095628 L 187.432542 366.774629 L 191.674543 369.397628 L 195.918543 372.016629 L 200.164542 374.633628 L 204.422542 377.228629 L 208.705543 379.783629 L 213.001542 382.316628 L 217.298542 384.848629 L 221.596542 387.379629 L 225.893542 389.911629 L 230.190542 392.442629 L 234.487542 394.974628 L 238.784542 397.505629 L 243.081542 400.037628 L 247.378543 402.568628 L 251.675543 405.100629 L 255.972543 407.631628 L 260.269542 410.162628 L 264.567542 412.694629 L 268.864542 415.225629 L 273.161542 417.757629 L 277.458542 420.288629 L 281.755542 422.820628 L 286.052542 425.351629 L 290.349542 427.883628 L 294.646542 430.414628 L 298.943542 432.945628 L 303.240542 435.477628 L 307.537542 438.008628 L 311.835542 440.540629 L 316.132542 443.071628 L 320.429542 445.603629 L 324.726542 448.134629 L 329.023542 450.666629 L 333.320542 453.197629 L 337.617542 455.729628 L 341.902542 458.280628 L 346.128542 460.928629 L 350.328542 463.618628 L 354.526542 466.311628 L 358.723542 469.004629 L 362.921542 471.697629 L 367.119542 474.390628 L 371.316542 477.084629 L 375.514542 479.777628 L 379.711542 482.470628 L 383.909542 485.163629 L 388.107542 487.857628 L 392.304542 490.550629 L 396.502542 493.243628 L 400.699542 495.936628 L 404.897542 498.629629" fill="none" id="2" stroke="#ad5ba7" stroke-width="0.5" /><path d="M 387.085542 491.122629 L 391.536542 493.163629 L 396.077542 494.996628 L 400.717542 496.560629 L 405.445542 497.838629 L 410.186542 499.064629 L 414.928542 500.287628 L 419.674542 501.496628 L 424.461542 502.495629 L 429.335542 502.946628 L 434.228542 503.166629 L 439.121542 503.359628 L 444.015542 503.553629 L 448.909542 503.746628 L 453.802542 503.939629 L 458.696542 504.133628 L 463.589542 504.326629 L 468.474542 504.169628 L 473.240542 503.151629 L 477.892542 501.622629 L 482.522542 500.026629 L 487.152542 498.430629 L 491.781542 496.834629 L 496.411542 495.237629 L 501.033542 493.618628 L 505.583542 491.808628 L 509.876542 489.464629 L 513.943543 486.738629 L 517.882542 483.828628 L 521.802543 480.893628 L 525.690542 477.915629" fill="none" id="3" stroke="#ad5ba7" stroke-width="0.5" /><path d="M 394.717542 485.809628 L 399.379542 487.431628 L 404.085542 488.916629 L 408.849542 490.204629 L 413.643542 491.380629 L 418.437542 492.553629 L 423.235542 493.708628 L 428.065542 494.713629 L 432.946542 495.440629 L 437.844542 496.047628 L 442.744542 496.637629 L 447.645542 497.221629 L 452.554542 497.724628 L 457.477542 498.064629 L 462.406542 498.323628 L 467.335542 498.574629 L 472.266542 498.766629 L 477.200542 498.758628 L 482.114542 498.367629 L 486.967542 497.497629 L 491.772542 496.372629 L 496.564542 495.190629 L 501.297542 493.799628 L 505.801542 491.813628 L 510.030542 489.279629 L 514.177543 486.603629 L 518.278543 483.858629 L 522.138542 480.787628 L 525.577543 477.255629 L 528.775543 473.496628 L 531.973543 469.737629 L 535.300543 466.092628 L 538.706543 462.520628" fill="none" id="4" stroke="#ad5ba7" stroke-width="0.5" /><path d="M 466.034542 538.122629 L 468.927542 534.135629 L 471.914542 530.218629 L 475.101542 526.463629 L 478.406542 522.810629 L 481.736542 519.181628 L 485.080542 515.564629 L 488.425542 511.948628 L 491.769542 508.332628 L 495.114542 504.716629 L 498.459542 501.100629 L 501.804542 497.484628 L 505.148542 493.869628 L 508.493542 490.253628 L 511.838542 486.637629 L 515.183543 483.021629 L 518.527542 479.405628 L 521.881543 475.797628 L 525.295543 472.246628 L 528.762542 468.747629 L 532.241543 465.261629 L 535.721543 461.774629 L 539.201543 458.288629 L 542.680543 454.802629 L 546.160543 451.315629 L 549.640543 447.829629 L 553.120543 444.343629 L 556.599542 440.857628 L 560.079543 437.370629 L 563.559543 433.884629 L 567.038543 430.398628 L 570.518543 426.911629 L 573.998542 423.425629 L 577.477543 419.939629 L 580.957543 416.452629 L 584.437543 412.966629 L 587.917542 409.480629 L 591.461543 406.059628 L 595.118542 402.760628 L 598.823543 399.514629 L 602.528543 396.268628 L 606.233542 393.022628 L 609.938543 389.777628 L 613.643543 386.531629 L 617.348543 383.285628 L 621.053543 380.039628 L 624.758542 376.793629 L 628.463543 373.548629 L 632.168543 370.302629 L 635.873542 367.056628 L 639.578543 363.810629 L 643.283543 360.564629 L 646.988542 357.318628 L 650.694543 354.073628 L 654.399543 350.827629 L 658.104542 347.581629 L 661.809543 344.335628 L 665.519543 341.095628 L 669.276543 337.910628 L 673.158543 334.877629 L 677.063543 331.876628 L 680.968543 328.874629 L 684.874543 325.872629 L 688.779543 322.871628 L 692.685542 319.869628 L 696.590542 316.867629 L 700.495543 313.866628 L 704.401543 310.864628" fill="none" id="5" stroke="#58f2c3" stroke-width="0.5" /><path d="M 28.823342 268.055629 L 32.228243 264.468629 L 35.784643 261.032628 L 39.631343 257.927629 L 43.848843 255.344628 L 48.008543 252.668629 L 52.205943 250.052628 L 56.417043 247.458629 L 60.628943 244.865629 L 64.840843 242.273629 L 69.052743 239.680629 L 73.264643 237.087628 L 77.476543 234.494629 L 81.688443 231.902628 L 85.900443 229.309629 L 90.112343 226.716629 L 94.324443 224.124629 L 98.541443 221.539628 L 102.782543 218.995629 L 107.041543 216.480628 L 111.303543 213.971629 L 115.565543 211.461628 L 119.827543 208.952629 L 124.089543 206.442629 L 128.351542 203.933628 L 132.614542 201.424629 L 136.876542 198.914628 L 141.138542 196.405629 L 145.400543 193.895628 L 149.662543 191.386629 L 153.924543 188.877629 L 158.187543 186.368628 L 162.463542 183.883629 L 166.773542 181.458629 L 171.105542 179.070628 L 175.437543 176.683628 L 179.768542 174.296628 L 184.100542 171.909628 L 188.433542 169.523629 L 192.806543 167.213628 L 197.240543 165.022628 L 201.684542 162.851629 L 206.129542 160.681628 L 210.573543 158.511629 L 215.017542 156.340629 L 219.462542 154.170628 L 223.906543 151.999629 L 228.350542 149.829629 L 232.795542 147.659628 L 237.239542 145.488629 L 241.683542 143.318628 L 246.127543 141.147628 L 250.572542 138.977629 L 255.016542 136.807628 L 259.465542 134.645628 L 263.936542 132.530629 L 268.421542 130.445628 L 272.905542 128.360628 L 277.390542 126.274629 L 281.875542 124.189628 L 286.360542 122.104629 L 290.845542 120.018629 L 295.330542 117.933628 L 299.815542 115.848629 L 304.299542 113.762629" fill="none" id="6" stroke="#c94e76" stroke-width="0.5" /><path d="M 19.061642 53.044128 L 22.116342 56.990729 L 25.175642 60.933729 L 28.237243 64.875028 L 31.289742 68.823329 L 34.310543 72.795929 L 37.077243 76.949428 L 39.687743 81.202928 L 42.116343 85.562828 L 44.493443 89.951029 L 46.870543 94.339229 L 49.247643 98.727429 L 51.624643 103.115628 L 54.001743 107.503629 L 56.378743 111.891628 L 58.755842 116.280629 L 61.132943 120.668628 L 63.509943 125.056629 L 65.887043 129.444628 L 68.264143 133.832628 L 70.641143 138.221629 L 73.018243 142.609629 L 75.395243 146.997628 L 77.772343 151.385628 L 80.149443 155.773629 L 82.526443 160.162629 L 84.903543 164.550628 L 87.280643 168.938628 L 89.657643 173.326628 L 92.041943 177.711628 L 94.503143 182.052628 L 97.031843 186.355628 L 99.560543 190.657628 L 102.093543 194.957628 L 104.716543 199.203629 L 107.457543 203.374629 L 110.199543 207.544628 L 112.940543 211.714629 L 115.681543 215.885628 L 118.422543 220.055629 L 121.164543 224.226629 L 123.905543 228.396628 L 126.646543 232.566629 L 129.388542 236.737628 L 132.129542 240.907628 L 134.870542 245.078629 L 137.611542 249.248628 L 140.353543 253.418629 L 143.094542 257.589629 L 145.835543 261.759629 L 148.577542 265.929628 L 151.318543 270.100629 L 154.059542 274.270628 L 156.800543 278.441628 L 159.542542 282.611628 L 162.283542 286.781629 L 165.024542 290.952629 L 167.778542 295.114628 L 170.655542 299.192629 L 173.538543 303.266629 L 176.421542 307.339629 L 179.305543 311.413629 L 182.188542 315.486628 L 185.071542 319.560629 L 187.954543 323.633628 L 190.838542 327.707628 L 193.721542 331.780628 L 196.604543 335.854628 L 199.488542 339.927629 L 202.371543 344.001628 L 205.254542 348.074629 L 208.137542 352.148628 L 211.021543 356.221629 L 213.904542 360.295629 L 216.787543 364.368628 L 219.670542 368.442629 L 222.554542 372.515628 L 225.437543 376.589629 L 228.320542 380.662628 L 231.203542 384.736628 L 234.087542 388.810629 L 236.970542 392.883628 L 239.853543 396.957628 L 242.737542 401.030628 L 245.620542 405.104628 L 248.505542 409.176628 L 251.445542 413.209629 L 254.426542 417.211629 L 257.407542 421.214629 L 260.388542 425.217628 L 263.368542 429.219628 L 266.349542 433.222628 L 269.330542 437.224628 L 272.311542 441.227628" fill="none" id="7" stroke="#57b870" stroke-width="0.5" /><path d="M 14.651442 204.665628 L 16.473842 209.041629 L 18.296242 213.418629 L 20.118642 217.795628 L 21.941142 222.172629 L 23.763542 226.549629 L 25.585942 230.926628 L 27.408342 235.302628 L 29.230742 239.679629 L 31.053142 244.056628 L 32.875543 248.433628 L 34.697943 252.810629 L 36.520443 257.187629 L 38.386243 261.544628 L 40.515242 265.777628 L 43.080542 269.764629 L 45.808843 273.641629 L 48.537143 277.519629 L 51.318542 281.358629 L 54.143643 285.165629 L 57.099743 288.871628 L 60.323042 292.342628 L 63.956143 295.366628 L 67.886443 298.011629 L 71.913643 300.513628 L 75.950443 303.000629 L 79.987143 305.486628 L 84.023943 307.973629 L 88.060743 310.459629 L 92.097443 312.946628 L 96.134243 315.432629 L 100.170543 317.919628" fill="none" id="8" stroke="#d271bb" stroke-width="0.5" /><path d="M 18.288142 156.055629 L 18.692742 161.018629 L 19.196243 165.970629 L 19.806242 170.911629 L 20.728043 175.804629 L 21.702343 180.687628 L 22.715642 185.562628 L 23.728842 190.437628 L 24.790843 195.301628 L 25.926042 200.148629 L 27.318842 204.928629 L 28.852842 209.664628 L 30.459542 214.377629 L 32.076643 219.086628 L 33.920843 223.708629 L 35.957843 228.247628 L 38.316643 232.632629 L 40.747643 236.977629 L 43.201143 241.310629 L 45.654543 245.642629 L 48.108043 249.975628 L 50.561443 254.307628 L 53.014943 258.640628 L 55.468343 262.973629 L 57.921843 267.305629 L 60.375243 271.638628 L 62.828643 275.971629 L 65.282143 280.303629 L 67.735543 284.636629 L 70.425543 288.825628 L 73.564543 292.643628 L 77.190543 296.056628 L 80.920043 299.354628 L 84.833543 302.419628 L 88.953843 305.194629 L 93.701343 306.694629 L 98.448843 308.195628 L 103.196543 309.696628 L 107.943543 311.197629 L 112.691543 312.698628 L 117.472543 314.010628 L 122.446543 314.233629 L 126.925543 312.453628 L 131.093542 309.753628 L 134.939542 306.591629 L 138.785542 303.429628 L 142.631542 300.266629 L 146.476542 297.104628 L 149.795542 293.405628 L 152.092543 289.185629 L 152.878543 284.268628 L 152.508543 279.314629 L 152.024542 274.359628 L 151.518542 269.405628 L 151.013542 264.452629 L 150.507542 259.499629 L 150.000542 254.545628 L 149.427542 249.599628 L 148.722543 244.672629 L 147.889543 239.764629 L 146.821542 234.901628 L 145.399542 230.139629 L 143.717543 225.452629 L 141.923542 220.808628 L 140.126542 216.164628 L 138.328542 211.521628 L 136.529542 206.878628 L 134.731542 202.235628 L 132.933542 197.593628 L 131.134543 192.950628 L 129.336543 188.307628 L 127.519543 183.671628 L 125.647543 179.057628 L 123.653543 174.495629 L 121.461543 170.034628 L 118.886543 165.772628 L 116.210543 161.574628 L 113.497543 157.399629 L 110.753543 153.244629 L 108.005543 149.092628 L 105.257543 144.940629 L 102.508543 140.789628 L 99.759843 136.637629 L 96.966543 132.516628 L 94.116543 128.433628 L 90.617243 124.895629 L 86.833243 121.685629 L 82.758943 118.834628 L 77.996943 117.380629 L 73.125543 116.478628 L 68.168843 116.007628 L 63.212143 115.535629 L 58.255443 115.064628 L 53.297843 114.705629 L 48.334143 115.096628 L 43.885843 117.031628 L 39.848443 119.908629 L 36.309243 123.410629 L 32.770043 126.912628 L 29.230842 130.414628 L 25.691543 133.916629 L 22.152342 137.419628 L 19.370143 141.364629 L 18.050842 146.165628 L 17.509042 151.108629 L 17.066743 156.067629 L 16.647142 161.028628 L 16.227542 165.990629 L 15.807942 170.951628 L 15.388443 175.912629 L 14.974142 180.874629 L 14.704542 185.844628 L 14.630142 190.815629 L 15.701042 195.678629 L 17.095443 200.449628 L 18.746643 205.146628 L 20.570142 209.779629 L 22.393642 214.412629 L 24.217142 219.045628 L 26.040643 223.679629 L 27.864142 228.312628 L 29.688643 232.944628 L 31.517442 237.575628 L 33.535643 242.125629 L 35.729343 246.591629 L 38.240143 250.890628 L 41.063043 254.987628 L 44.018743 258.993628 L 47.065143 262.931628 L 50.111743 266.869628 L 53.158343 270.807629 L 56.204943 274.746628 L 59.251542 278.684628 L 62.298143 282.622629 L 65.344743 286.560629 L 68.392843 290.497629 L 71.531543 294.360629 L 74.791243 298.124629 L 78.381643 301.572629 L 82.087643 304.893628 L 85.901443 308.094628" fill="none" id="9" stroke="#d271bb" stroke-width="0.5" /><path d="M 88.670943 297.176628 L 93.637543 297.545629 L 98.604043 297.914628 L 103.580543 297.766629 L 108.558543 297.597628 L 113.511543 297.093629 L 118.462543 296.554628 L 123.091543 294.779629 L 127.675543 292.833628 L 131.183542 289.390628 L 134.489542 285.665629 L 136.811543 281.286629 L 138.965542 276.796628 L 141.054542 272.275628 L 143.128543 267.747629 L 145.196542 263.217628 L 147.263542 258.686628 L 148.584542 253.911629 L 149.595542 249.034628 L 149.528542 244.112628 L 148.939542 239.166629 L 148.040542 234.273629 L 146.968542 229.410629 L 145.874542 224.552628 L 144.764543 219.697629 L 143.655542 214.842628 L 142.546542 209.986628 L 141.436543 205.131629 L 140.327542 200.276628 L 139.188542 195.428629 L 138.013542 190.589629 L 136.354543 185.937628 L 133.954543 181.573629 L 131.468542 177.260628 L 128.824543 173.040628 L 126.178543 168.821629 L 123.529543 164.603629 L 120.880543 160.386629 L 118.231543 156.169628 L 115.582543 151.952629 L 112.933543 147.734629 L 110.271543 143.525629 L 107.538543 139.362628 L 104.711543 135.278628 L 101.091543 131.858629 L 97.417543 128.513629 L 93.002743 126.208629 L 88.585943 123.908629 L 84.066143 121.816629 L 79.546343 119.725628 L 75.026543 117.633629 L 70.506843 115.542629 L 65.564243 115.299628 L 60.584743 115.217629 L 56.786543 118.431629 L 52.992643 121.657629 L 49.328143 125.030629 L 45.670543 128.410629 L 42.243243 132.021628 L 38.841343 135.658628 L 37.304143 140.312628 L 36.092143 145.142629 L 35.391343 150.066629 L 34.812243 155.013629 L 34.247643 159.961628 L 33.687643 164.909628 L 33.173743 169.863629 L 32.678743 174.818628 L 32.672043 179.786629 L 32.915343 184.761629 L 33.819443 189.630629 L 35.130543 194.434629 L 36.468043 199.231628 L 37.825443 204.023629 L 39.182842 208.815629 L 40.540243 213.606628 L 41.897643 218.398629 L 43.255043 223.190629 L 44.612443 227.981628 L 45.969843 232.773629 L 47.392943 237.545628 L 48.926743 242.283628 L 50.688043 246.928629 L 52.918643 251.380629 L 55.334943 255.721629 L 58.220543 259.780628 L 61.169043 263.792628 L 64.320643 267.648628 L 67.472243 271.504629 L 70.623943 275.360629 L 73.775543 279.216629 L 76.927143 283.072629 L 80.088643 286.920629 L 83.352343 290.682629 L 86.622043 294.438628 L 90.037243 298.063628 L 93.452343 301.687629 L 97.524343 304.553629 L 101.602543 307.411629 L 106.281543 309.111628 L 110.967543 310.796628 L 115.714543 312.302629 L 120.465543 313.795629 L 125.353543 314.732628 L 130.257542 315.600629 L 134.193543 312.841629 L 138.013542 309.646629 L 141.112542 305.759629 L 144.145543 301.809628 L 146.334542 297.352628 L 148.394543 292.818628 L 149.039542 287.908629 L 149.499542 282.949629 L 149.733542 277.975629 L 149.922542 272.999629 L 150.058542 268.021629 L 150.180543 263.042628 L 149.959542 258.071628 L 149.617542 253.102629 L 148.906543 248.179629 L 148.033542 243.276628 L 147.063542 238.392629 L 146.040542 233.518629 L 145.017542 228.644629 L 143.994542 223.770628 L 142.970542 218.896628 L 141.947542 214.022628 L 140.924543 209.148629 L 139.901543 204.274629 L 138.785542 199.422629 L 137.556543 194.596629 L 136.009543 189.880629 L 133.988542 185.328629 L 131.662543 180.949628 L 128.795542 176.877629 L 125.868543 172.849628 L 122.815543 168.914628 L 119.763543 164.979628 L 116.710543 161.045628 L 113.657543 157.110628 L 110.604543 153.175628 L 107.533543 149.255629 L 104.373543 145.406629 L 101.149543 141.617628 L 97.459543 138.273629 L 93.734343 134.974628 L 89.574143 132.236628 L 85.412743 129.500629 L 81.209643 126.829628 L 77.006443 124.157629 L 72.796343 121.497629 L 68.586043 118.837628 L 64.375443 116.178629 L 60.164642 113.518629 L 55.418443 112.095629 L 50.598743 110.840628 L 45.659543 110.981628 L 40.696743 111.397628 L 36.077843 113.120628 L 31.552743 115.200629 L 29.379842 119.399629 L 27.782242 124.116629 L 27.021342 129.026628 L 26.392242 133.966629 L 25.763143 138.906629 L 25.134042 143.846629 L 24.510842 148.787629 L 23.889543 153.729628 L 23.506442 158.692629 L 23.217942 163.664628 L 23.508042 168.619629 L 24.084542 173.565629 L 25.031242 178.446629 L 26.195943 183.288628 L 27.424643 188.114629 L 28.699642 192.929629 L 29.974642 197.743628 L 31.249543 202.557628 L 32.524543 207.371629 L 33.799443 212.185629 L 35.074443 217.000629 L 36.349443 221.814628 L 37.676043 226.614629 L 39.085843 231.390628 L 40.714043 236.085629 L 42.776543 240.618628 L 45.117843 244.984629 L 48.144843 248.939628 L 51.251043 252.827629 L 54.599243 256.514629 L 57.952243 260.196628 L 61.325343 263.860629 L 64.698343 267.524629 L 68.071443 271.188628 L 71.444443 274.852628 L 74.817443 278.516629 L 78.190543 282.180629 L 81.563543 285.844628 L 84.936643 289.508628" fill="none" id="10" stroke="#d271bb" stroke-width="0.5" /><path d="M 66.995243 144.235628 L 64.039142 140.211628 L 61.083043 136.186629 L 58.127043 132.162629 L 54.059342 129.293629 L 49.925043 126.492628 L 45.790743 123.692628 L 41.098843 122.130629 L 36.262343 120.888628 L 31.610142 120.255629 L 28.272443 123.969628 L 24.934742 127.683628 L 21.660642 131.448629 L 18.772443 135.521628 L 15.884242 139.594628 L 13.198542 143.761629 L 11.982642 148.604628 L 10.766742 153.447629 L 9.647382 158.306628 L 9.254242 163.283628 L 8.861092 168.261629 L 8.510673 173.240629 L 8.559062 178.234629 L 8.607452 183.227629 L 8.661032 188.220629 L 8.775952 193.212628 L 8.890872 198.204629 L 9.005793 203.196629 L 9.120712 208.188628 L 9.235622 213.180629 L 9.366692 218.171628 L 9.916632 223.134628 L 10.466542 228.097629 L 11.045242 233.054629 L 12.440842 237.848628 L 13.836442 242.642629 L 15.243242 247.433628 L 17.178142 252.036629 L 19.113042 256.639629 L 21.048042 261.242629 L 22.982943 265.846629 L 24.917842 270.449629 L 26.852842 275.052629 L 28.787743 279.655628 L 30.722642 284.258628 L 32.657643 288.862629 L 34.626643 293.450628 L 36.597043 298.038629 L 38.567443 302.627629 L 41.894843 306.327629 L 45.307543 309.973629 L 48.720143 313.618628 L 53.362743 315.410628 L 58.047343 317.138628 L 62.732043 318.866628 L 67.477043 320.421628 L 72.224343 321.969628 L 76.971743 323.517629 L 81.841343 324.616628 L 86.718443 325.687629 L 91.595543 326.758628 L 95.937743 324.297628 L 100.278543 321.830628 L 104.620543 319.363629 L 108.678543 316.454629 L 112.733543 313.540629 L 116.787543 310.626628 L 119.710543 306.585628 L 122.603543 302.515628 L 125.211543 298.345628 L 125.507543 293.361628 L 125.802543 288.376628 L 126.070543 283.391629 L 126.074543 278.398628 L 126.078543 273.404629 L 126.075543 268.411629 L 125.974543 263.419628 L 125.874543 258.426628 L 125.720543 253.440629 L 124.689543 248.554629 L 123.658543 243.669628 L 122.626543 238.783628 L 121.582543 233.900629 L 120.538543 229.017629 L 119.493543 224.134628 L 118.384543 219.266628 L 117.275543 214.397628 L 116.167543 209.528628 L 114.426543 204.848628 L 112.683543 200.169628 L 110.940543 195.490629 L 108.723543 191.016628 L 106.501543 186.545628 L 104.279543 182.073629 L 101.918543 177.673629 L 99.553143 173.275629 L 97.187943 168.878628 L 94.703143 164.547629 L 92.212043 160.219628 L 89.720943 155.891628 L 86.666843 151.945628 L 83.574443 148.025629 L 80.481943 144.104628 L 77.389443 140.184629 L 74.297043 136.263629 L 71.204543 132.343628 L 67.462543 129.051628 L 63.644543 125.833629 L 59.826543 122.615628 L 55.199243 120.845629 L 50.457343 119.281628 L 45.712743 117.779629 L 40.854543 118.933628 L 35.996243 120.087628 L 31.143142 121.252629 L 26.936843 123.943629 L 22.730642 126.634629 L 18.572142 129.378628 L 15.417442 133.249629 L 12.262742 137.120629 L 9.163602 141.018629 L 7.963802 145.865629 L 6.763993 150.712628 L 5.592903 155.564628 L 4.929653 160.514629 L 4.266413 165.463628 L 3.611542 170.413628 L 3.201492 175.389629 L 2.791432 180.366628 L 2.437942 185.336628 L 3.890552 190.113629 L 5.343173 194.891628 L 6.795793 199.668629 L 8.248403 204.445628 L 9.701022 209.223628 L 11.153643 214.000629 L 12.606242 218.778628 L 14.058842 223.555629 L 15.511442 228.332628 L 17.166742 233.043629 L 18.828442 237.752629 L 20.490142 242.461628 L 22.752842 246.909628 L 25.047542 251.344628 L 27.342242 255.779629 L 30.040442 259.979628 L 32.762643 264.165629 L 35.484843 268.351629 L 38.297343 272.477628 L 41.117342 276.598629 L 43.937342 280.718629 L 46.830643 284.788629 L 49.731743 288.852628 L 52.632843 292.916629 L 56.188743 296.408629 L 59.828443 299.827629 L 63.468043 303.245629 L 67.901843 305.490629 L 72.429243 307.596629 L 76.956643 309.702629 L 81.808843 310.820628 L 86.702643 311.813628 L 91.596443 312.805629 L 94.729043 308.922628 L 97.858743 305.031629 L 100.936543 301.109628 L 102.999543 296.561628 L 105.061543 292.014629 L 107.081543 287.455628 L 107.610543 282.489628 L 108.138543 277.524629 L 108.626543 272.557629 L 108.463543 267.566628 L 108.299543 262.576629 L 108.135543 257.585628 L 107.940543 252.596629 L 107.746543 247.606628 L 107.540543 242.618628 L 106.629543 237.708629 L 105.719543 232.799629 L 104.793543 227.893629 L 103.234543 223.149629 L 101.676543 218.405629 L 100.118543 213.661629 L 98.490943 208.940629 L 96.863343 204.220629 L 95.235743 199.499629 L 93.557643 194.796628 L 91.878743 190.094628 L 90.199843 185.391628 L 87.864643 180.980628 L 85.505743 176.579629 L 83.146743 172.178629 L 80.063543 168.255629 L 76.937943 164.361628 L 73.812343 160.467628 L 70.624443 156.624629 L 67.431843 152.785629 L 64.239242 148.945628 L 60.698943 145.427628 L 57.123443 141.942629 L 53.547843 138.456628 L 49.768543 135.194628 L 45.966143 131.958629 L 42.163843 128.721629 L 37.751943 126.420629 L 33.255243 124.249629 L 28.758543 122.078629 L 23.909643 122.794629 L 19.022842 123.820628 L 14.137042 124.848629 L 11.432142 129.045628 L 8.727232 133.242628 L 6.209313 137.519629 L 5.046803 142.375629 L 3.884292 147.231628 L 2.777242 152.098628 L 2.165313 157.053629 L 1.553383 162.009628 L 0.985275 166.968628 L 0.834260 171.959629 L 0.683245 176.950628 L 0.537783 181.941629 L 0.461169 186.934629 L 0.384554 191.927628 L 0.320458 196.919628 L 0.473875 201.910629 L 0.627292 206.901628 L 0.827192 211.886629 L 2.090353 216.717628 L 3.353512 221.547629 L 4.625592 226.376629 L 6.305602 231.078629 L 7.985613 235.780629 L 9.665662 240.482629 L 11.370342 245.176628 L 13.075143 249.869629 L 14.779842 254.562628 L 16.487443 259.255629 L 18.195042 263.947629 L 19.902642 268.639629 L 22.213242 273.064629 L 24.548542 277.477628 L 26.883942 281.891629 L 30.043942 285.753628 L 33.228043 289.600629 L 36.412243 293.446628 L 39.939042 296.980629 L 43.480443 300.500629 L 47.021943 304.020628 L 50.698543 307.398628 L 54.384042 310.767629 L 58.069543 314.136629 L 62.495143 316.421628 L 66.975443 318.626628 L 71.455843 320.830628 L 76.212643 322.334629 L 80.990643 323.785628 L 85.768643 325.235629 L 90.354243 323.533629 L 94.920443 321.512629 L 99.165543 319.145628 L 101.527543 314.746628 L 103.889543 310.346629 L 106.185543 305.916629 L 108.059543 301.288629 L 109.934543 296.660628 L 111.604543 291.983629 L 111.994543 287.005629 L 112.383543 282.027628 L 112.770543 277.049628 L 113.133543 272.068628 L 113.495543 267.088629 L 113.771543 262.110629 L 113.233543 257.146629 L 112.694543 252.181628 L 112.065543 247.237628 L 110.460543 242.509628 L 108.855543 237.780629 L 107.234543 233.058628 L 105.412543 228.409628 L 103.591543 223.759628 L 101.760543 219.114629 L 99.785043 214.528628 L 97.809143 209.942629 L 95.821143 205.362628 L 93.534843 200.923629 L 91.248543 196.484629 L 88.955943 192.048629 L 86.378443 187.772628 L 83.800943 183.495629 L 81.223443 179.218628 L 78.644143 174.943628 L 76.064743 170.667629 L 73.485443 166.392629 L 70.821243 162.168629 L 68.155443 157.946629 L 65.489643 153.724628 L 62.041343 150.118628 L 58.560743 146.538628 L 55.080043 142.958629 L 51.313043 139.681628 L 47.531043 136.421628 L 43.748943 133.161629 L 38.851043 133.364629 L 33.877043 133.804629 L 28.993443 134.499629 L 24.848743 137.283628 L 20.703943 140.068628 L 17.056142 143.230628 L 15.485542 147.970629 L 13.914942 152.710629 L 12.447642 157.478629 L 11.426242 162.365629 L 10.404942 167.253628 L 9.543582 172.160629 L 9.411302 177.151628 L 9.279022 182.143629 L 9.310172 187.122628 L 10.167242 192.042629 L 11.024342 196.961628 L 11.989242 201.853629 L 13.591342 206.582628 L 15.193542 211.311629 L 16.801243 216.039628 L 18.446842 220.753628 L 20.092543 225.467628 L 21.738142 230.182628 L 23.383743 234.896628 L 25.029342 239.610628 L 26.702842 244.314628 L 28.674743 248.901628 L 30.646742 253.489629 L 32.659942 258.055629 L 35.196843 262.356628 L 37.733743 266.657628 L 40.295243 270.942629 L 43.242243 274.973629 L 46.189243 279.004629 L 49.138843 283.033629 L 52.147543 287.018628 L 55.156343 291.003628 L 58.167543 294.986628 L 61.302843 298.872629 L 64.438043 302.759629 L 67.573343 306.645628" fill="none" id="11" stroke="#d271bb" stroke-width="0.5" /><path d="M 9.139732 233.782628 L 11.641242 235.957628 L 14.142742 238.131629 L 16.644243 240.306628 L 19.145743 242.481628 L 21.647243 244.656629 L 24.148743 246.830628 L 26.694142 248.951628 L 29.359343 250.919628 L 32.142643 252.719628 L 34.980643 254.432628 L 37.829643 256.126628 L 40.678643 257.820628 L 43.527543 259.515628 L 46.376542 261.209629 L 49.225543 262.903629 L 52.074443 264.597628 L 54.923443 266.292628 L 57.772443 267.986628 L 60.621343 269.680629 L 63.470343 271.374629 L 66.319343 273.069629 L 69.168243 274.763628 L 72.017243 276.457628 L 74.866243 278.151629 L 77.715243 279.846629 L 80.564143 281.540629 L 83.413143 283.234628 L 86.262143 284.928629 L 89.111043 286.623628 L 91.960043 288.317629" fill="none" id="12" stroke="#d271bb" stroke-width="0.5" /><path d="M 270.346542 169.778628 L 273.513542 173.606628 L 276.680542 177.434629 L 279.846542 181.262629 L 283.013542 185.091629 L 286.180542 188.919628 L 289.350542 192.744629 L 292.561542 196.535629 L 295.828542 200.278628 L 299.108542 204.009628 L 302.389542 207.740629 L 305.671542 211.470629 L 308.952542 215.201628 L 312.233542 218.932628 L 315.514542 222.662629 L 318.795542 226.393629 L 322.076542 230.124629 L 325.357542 233.854628 L 328.638542 237.585629 L 331.919542 241.316629 L 335.200542 245.046628 L 338.481542 248.777628 L 341.762542 252.507629 L 345.043542 256.238629 L 348.324542 259.969628 L 351.612542 263.694629 L 354.942542 267.380629 L 358.352542 270.993628 L 361.810542 274.561628 L 365.276542 278.119628 L 368.743542 281.678629 L 372.209542 285.237629 L 375.676542 288.796628 L 379.144542 292.354628 L 382.630542 295.893628 L 386.165542 299.384629 L 389.747542 302.827629 L 393.345542 306.253628 L 396.942542 309.679628 L 400.540542 313.106628 L 404.137542 316.532628 L 407.735542 319.959629 L 411.333542 323.385628 L 414.930542 326.811628 L 418.528542 330.238629 L 422.125542 333.664628 L 425.723542 337.091629 L 429.321542 340.517629 L 432.918542 343.944629 L 436.516542 347.370629 L 440.113542 350.796628 L 443.711542 354.223629 L 447.308542 357.649629 L 450.906542 361.076629 L 454.504542 364.502629 L 458.101542 367.928629 L 461.699542 371.355629 L 465.296542 374.781629 L 468.894542 378.208628 L 472.492542 381.634629 L 476.089542 385.061628 L 479.687542 388.487629 L 483.284542 391.913629 L 486.882542 395.340628 L 490.479542 398.766629 L 494.077542 402.193628 L 497.675542 405.619628 L 501.272542 409.046628 L 504.870542 412.472628 L 508.467542 415.898628 L 512.065542 419.325628" fill="none" id="13" stroke="#3d8e43" stroke-width="0.5" /><path d="M 245.768542 167.942629 L 248.637542 168.676628 L 251.462542 169.562628 L 254.212542 170.651628 L 256.887542 171.918629 L 259.514542 173.285629 L 262.141542 174.652628 L 264.768542 176.019629 L 267.395542 177.386629 L 269.948542 178.881629 L 272.412542 180.521628 L 274.805542 182.266628 L 277.167542 184.052628 L 279.523542 185.846629 L 281.879542 187.640628 L 284.235542 189.434629 L 286.591542 191.228629 L 288.943542 193.027628 L 291.281542 194.845629 L 293.544542 196.755629 L 295.707542 198.777628 L 297.783542 200.886629 L 299.796542 203.059629 L 301.772542 205.264629 L 303.748542 207.470629 L 305.724542 209.676628 L 307.700542 211.881629 L 309.676542 214.087628 L 311.652542 216.292629 L 313.628542 218.498628 L 315.604542 220.704629" fill="none" id="14" stroke="#3d8e43" stroke-width="0.5" /><path d="M 279.948542 141.528628 L 282.109542 146.009628 L 284.270542 150.490629 L 286.431542 154.971629 L 288.592542 159.452629 L 290.752542 163.933628 L 292.913542 168.414628 L 295.074542 172.895628 L 297.235542 177.375629 L 299.396542 181.856628 L 301.557542 186.337628 L 303.718542 190.818628 L 305.879542 195.299629 L 308.040542 199.780629 L 310.210542 204.257629 L 312.438542 208.701628 L 315.062542 212.928629 L 317.940542 216.973628 L 321.095542 220.819628 L 324.590542 224.353629 L 328.198542 227.776628 L 331.997542 230.987628 L 335.927542 234.031629 L 339.973542 236.925628 L 344.072542 239.744629 L 348.348542 242.152628 L 353.221542 243.153628 L 358.117542 244.029629 L 363.029542 244.816629 L 367.941542 245.603629 L 372.853542 246.391628 L 377.766542 247.178629 L 382.678542 247.965629 L 387.590542 248.752629 L 392.502542 249.540628 L 397.434542 250.084629 L 402.409542 250.108629 L 407.100542 248.720629 L 411.645542 246.715629 L 415.702542 243.836628 L 419.609542 240.769629 L 423.321542 237.457628 L 427.033542 234.145628 L 430.745542 230.833629 L 434.456542 227.520628 L 437.786542 223.864629 L 440.692542 219.826628 L 441.714542 215.045628 L 442.078542 210.115629 L 441.285542 205.204629 L 440.460542 200.298629 L 439.606542 195.397628 L 438.751542 190.496629 L 437.897542 185.595629 L 437.043542 180.694628 L 436.188542 175.794628 L 435.334542 170.893629 L 434.315542 166.024629 L 432.992542 161.254628 L 430.900542 156.740629 L 428.379542 152.468628 L 425.619542 148.328629 L 422.830542 144.209629 L 420.041542 140.090629 L 417.251542 135.970629 L 414.462542 131.851629 L 411.673542 127.732629 L 408.883542 123.613629 L 406.094542 119.494629 L 403.304542 115.375629 L 400.460542 111.293628 L 397.572542 107.244629 L 394.394542 103.417629 L 391.170542 99.629029 L 387.883542 95.894628 L 384.451542 92.295428 L 380.919542 88.798828 L 376.981542 85.758729 L 372.998542 82.780229 L 368.961542 79.872129 L 364.925542 76.964028 L 360.889542 74.055929 L 356.853542 71.147929 L 352.816542 68.239829 L 348.780542 65.331728 L 344.744542 62.423628 L 340.707542 59.515529 L 336.671542 56.607428 L 332.616542 53.726228 L 328.545542 50.867029 L 324.170542 48.505729 L 319.656542 46.481828 L 314.825542 45.293829 L 309.917542 44.577129 L 304.959542 44.163128 L 299.993542 43.879429 L 295.025542 43.611229 L 290.056542 43.365229 L 285.086542 43.151929 L 280.115542 42.955928" fill="none" id="15" stroke="#d55969" stroke-width="0.5" /><path d="M 630.155543 369.266629 L 633.510543 368.014629 L 636.732543 366.454629 L 639.787542 364.590628 L 642.479542 362.245629 L 644.751543 359.491628 L 646.855543 356.594628 L 648.893543 353.649629 L 650.693543 350.563628 L 652.087543 347.274629 L 653.150543 343.855629 L 654.101543 340.403629 L 655.016543 336.941628 L 655.684543 333.436628 L 655.505543 329.878628 L 654.124543 326.575628 L 652.238542 323.531629 L 650.352543 320.487629 L 648.466543 317.443628 L 646.580542 314.399629 L 644.360543 311.600629 L 641.755543 309.158629 L 638.852543 307.074629 L 635.770543 305.255629 L 632.619543 303.552629 L 629.460542 301.866628 L 626.300543 300.181628 L 623.141543 298.495629 L 619.982543 296.809628 L 616.822543 295.124629 L 613.663543 293.438628" fill="none" id="16" stroke="#64e4ff" stroke-width="0.5" /><path d="M 648.967543 309.672628 L 649.981543 312.005629 L 650.923543 314.368628 L 651.770543 316.765628 L 652.473543 319.209629 L 653.109542 321.672628 L 653.706543 324.145628 L 654.225543 326.633628 L 654.512542 329.160628 L 654.580542 331.701629 L 654.567543 334.244628 L 654.514543 336.788629 L 654.461543 339.331629 L 654.386543 341.873628 L 654.239542 344.412628 L 653.978543 346.942629 L 653.354542 349.408629 L 652.552543 351.818628 L 651.636543 354.191628 L 650.683543 356.549628 L 649.707543 358.898628 L 648.667542 361.219628 L 647.533543 363.494628 L 646.202543 365.661629 L 644.598543 367.629629 L 642.808543 369.426628 L 640.860543 371.062629 L 638.825542 372.588629 L 636.785543 374.108629 L 634.734542 375.613629 L 632.667542 377.094628" fill="none" id="17" stroke="#e68e54" stroke-width="0.5" /><path d="M 537.885543 529.147628 L 537.799543 527.816628 L 537.713543 526.485628 L 537.630543 525.154628 L 537.546542 523.823629 L 537.466543 522.492629 L 537.386543 521.161629 L 537.309543 519.830628 L 537.231543 518.499628 L 537.154543 517.167628 L 537.076543 515.836628 L 536.998542 514.505629 L 536.920543 513.174629 L 536.839542 511.843629 L 536.759543 510.512629 L 536.668543 509.181628 L 536.577543 507.851629 L 536.471543 506.522628 L 536.364542 505.193628 L 536.247543 503.864628 L 536.131543 502.536629 L 536.012542 501.208628 L 535.892542 499.879629 L 535.773543 498.551628 L 535.653543 497.223629 L 535.534543 495.895628 L 535.414543 494.567629 L 535.295543 493.239628 L 535.175543 491.911629 L 535.056542 490.583628 L 534.936542 489.254629" fill="none" id="18" stroke="#54aeff" stroke-width="0.5" /><path d="M 399.194542 521.208629 L 399.853542 518.666629 L 400.467542 516.114628 L 401.029542 513.549629 L 401.519542 510.970628 L 401.929542 508.377629 L 402.316542 505.780628 L 402.673542 503.179628 L 402.949542 500.568628 L 403.136542 497.950628 L 403.278542 495.328628 L 403.389542 492.705628 L 403.491542 490.081629 L 403.593542 487.458628 L 403.695542 484.834629 L 403.796542 482.211629 L 403.898542 479.587628 L 404.000542 476.964629 L 404.100542 474.340628 L 404.196542 471.716629 L 404.257542 469.091629 L 404.284542 466.466629 L 404.284542 463.841629 L 404.284542 461.215628 L 404.284542 458.590628 L 404.284542 455.964629 L 404.284542 453.339629 L 404.284542 450.713629 L 404.284542 448.088629 L 404.284542 445.462628 L 404.284542 442.836629" fill="none" id="19" stroke="#eed973" stroke-width="0.5" /><path d="M 398.034542 305.391629 L 400.919542 309.316628 L 403.947542 313.133628 L 407.173542 316.784628 L 410.542542 320.302629 L 414.184542 323.538629 L 418.311542 326.127629 L 422.507542 328.602628 L 426.702542 331.078628 L 430.898542 333.553629 L 435.094542 336.029629 L 439.290542 338.504629 L 443.504542 340.948628 L 447.990542 342.848629 L 452.632542 344.327629 L 457.295542 345.737629 L 461.958542 347.147628 L 466.622542 348.556628 L 471.305542 349.898628 L 476.114542 350.676628 L 480.986542 350.686628 L 485.853542 350.471629 L 490.720542 350.255629 L 495.587542 350.040629 L 500.454542 349.824629 L 505.318542 349.561628 L 510.145542 348.901629 L 514.747543 347.304628 L 519.170543 345.262629 L 523.593543 343.219628 L 528.016543 341.177629 L 532.439543 339.134629 L 536.862543 337.092628 L 541.341543 335.175629 L 545.936542 333.557629 L 550.592543 332.126628" fill="none" id="20" stroke="#008bd4" stroke-width="0.5" /><path d="M 641.815542 252.626629 L 645.023543 250.017629 L 647.957543 247.106628 L 650.376543 243.762629 L 652.534543 240.237628 L 654.644543 236.681628 L 656.737543 233.116628 L 658.693543 229.475628 L 660.259543 225.661629 L 661.292542 221.668629 L 661.956543 217.588628 L 662.524543 213.492628 L 663.092543 209.397628 L 663.660543 205.301628 L 664.153543 201.204629 L 663.750543 197.092628 L 661.847543 193.422629 L 659.666542 189.910629 L 657.466543 186.409628 L 655.266543 182.908628 L 653.067543 179.407628 L 650.856543 175.913628 L 648.626543 172.432628 L 646.215542 169.080628 L 643.505543 165.963628 L 640.619543 163.002629 L 637.721543 160.053629 L 634.822543 157.105628 L 631.924543 154.156629 L 629.026543 151.207628 L 626.127543 148.258629" fill="none" id="21" stroke="#bbabff" stroke-width="0.5" /><path d="M 614.565542 147.133629 L 615.949543 147.853629 L 617.333543 148.572629 L 618.690542 149.342628 L 620.043543 150.118628 L 621.359542 150.955628 L 622.662542 151.814628 L 623.941542 152.706628 L 625.204543 153.622628 L 626.467543 154.537629 L 627.730543 155.452629 L 628.989542 156.373628 L 630.240543 157.306628 L 631.486543 158.244629 L 632.709542 159.212628 L 633.932543 160.181628 L 635.123542 161.188628 L 636.314543 162.196629 L 637.471543 163.242628 L 638.623542 164.294628 L 639.744543 165.378628 L 640.854542 166.474628 L 641.953543 167.582628 L 643.043543 168.697629 L 644.133542 169.813628 L 645.224542 170.929629 L 646.314543 172.045628 L 647.404543 173.161629 L 648.494543 174.277628 L 649.584542 175.393629 L 650.674543 176.508629" fill="none" id="22" stroke="#bbabff" stroke-width="0.5" /><path d="M 526.127543 66.304129 L 529.663543 69.061029 L 533.199543 71.818028 L 536.736543 74.575029 L 540.272542 77.331929 L 543.775543 80.131629 L 547.221543 83.000428 L 550.636543 85.906029 L 554.046542 88.817928 L 557.456543 91.729928 L 560.866543 94.641829 L 564.276543 97.553729 L 567.686542 100.465628 L 571.096543 103.377629 L 574.506543 106.289629 L 577.916542 109.201628 L 581.326543 112.113629 L 584.736543 115.025628 L 588.146543 117.937629 L 591.524543 120.885628 L 594.785543 123.962628 L 597.898543 127.188629 L 600.959542 130.465629 L 604.020543 133.741628 L 607.081543 137.018629 L 610.143543 140.294628 L 613.204543 143.571629 L 616.265543 146.847629 L 619.326543 150.124629 L 622.388542 153.401628 L 625.449543 156.677628 L 628.510543 159.954629" fill="none" id="23" stroke="#bbabff" stroke-width="0.5" /><path d="M 473.155542 43.216029 L 476.176542 43.458429 L 479.173542 43.902428 L 482.107542 44.636829 L 484.979542 45.601529 L 487.813542 46.678829 L 490.644542 47.760429 L 493.476542 48.842028 L 496.308542 49.923729 L 499.139542 51.005328 L 501.971542 52.086928 L 504.802542 53.168529 L 507.634542 54.250529 L 510.444542 55.386829 L 513.214542 56.616628 L 515.949543 57.923229 L 518.656543 59.286329 L 521.333543 60.707529 L 523.951543 62.234828 L 526.410543 64.006628 L 528.762542 65.917229 L 531.087543 67.861728 L 533.413543 69.806229 L 535.738542 71.750728 L 538.063543 73.695228 L 540.389543 75.639729 L 542.714542 77.584228 L 544.996543 79.579029 L 547.159543 81.696629 L 549.157542 83.974429 L 551.042542 86.348828" fill="none" id="24" stroke="#bbabff" stroke-width="0.5" /><path d="M 644.842543 166.364629 L 646.346543 168.868628 L 647.847543 171.373628 L 649.386543 173.855628 L 650.922543 176.338628 L 652.329543 178.897628 L 653.662542 181.496629 L 654.988542 184.098628 L 656.312543 186.702629 L 657.599542 189.322629 L 658.777542 191.995629 L 659.623542 194.790628 L 660.274543 197.635628 L 660.823543 200.504628 L 661.337543 203.379628 L 661.850543 206.254628 L 662.363542 209.129628 L 662.876543 212.004628 L 663.372543 214.883629 L 663.816542 217.769629 L 664.161542 220.669628 L 664.337543 223.584629 L 664.473543 226.502629 L 664.595543 229.420628 L 664.717543 232.338628 L 664.838543 235.256629 L 664.948543 238.175628 L 664.959542 241.095629 L 664.802543 244.008629 L 664.469542 246.909628 L 664.010543 249.794628" fill="none" id="25" stroke="#bbabff" stroke-width="0.5" /><path d="M 642.331543 272.438628 L 645.380543 270.010628 L 648.283543 267.409628 L 651.013542 264.631628 L 653.428543 261.572629 L 655.694543 258.400628 L 657.930543 255.207628 L 660.133542 251.992628 L 662.078543 248.627629 L 663.460542 244.988629 L 664.504543 241.233629 L 665.402542 237.441629 L 665.914543 233.591629 L 665.697543 229.716629 L 664.927543 225.898629 L 663.972543 222.119629 L 662.994543 218.346629 L 662.010543 214.574628 L 660.882542 210.845629 L 659.297543 207.296628 L 657.127543 204.074628 L 654.515543 201.189628 L 651.698543 198.496629 L 648.846543 195.838628 L 645.995543 193.181628 L 643.143543 190.523629 L 640.291542 187.866628 L 637.439543 185.209629 L 634.526543 182.619629 L 631.481543 180.186629 L 628.350543 177.864629" fill="none" id="26" stroke="#bbabff" stroke-width="0.5" /><path d="M 622.456543 230.465629 L 625.357543 230.073629 L 628.205542 229.409628 L 630.937543 228.387629 L 633.532542 227.044628 L 636.014543 225.492628 L 638.464542 223.889629 L 640.706543 222.006629 L 642.661542 219.837628 L 644.400543 217.486628 L 646.020543 215.048629 L 647.600543 212.583629 L 649.148543 210.099628 L 650.491543 207.497628 L 651.433543 204.734629 L 652.015543 201.873628 L 652.384543 198.969628 L 652.688543 196.057628 L 652.993542 193.145628 L 653.145543 190.222629 L 652.831543 187.321629 L 651.899543 184.578629 L 650.471543 182.033628 L 648.775543 179.647628 L 647.005543 177.315629 L 645.235543 174.983629 L 643.466543 172.651628 L 641.655543 170.350628 L 639.773543 168.109629 L 637.810542 165.937628 L 635.792542 163.817629" fill="none" id="27" stroke="#bbabff" stroke-width="0.5" /><path d="M 488.034542 38.130128 L 490.094542 39.132029 L 492.168542 40.104129 L 494.256542 41.046129 L 496.378542 41.909928 L 498.515542 42.731529 L 500.668542 43.513829 L 502.822542 44.296129 L 504.954542 45.131729 L 507.065542 46.020328 L 509.088542 47.095928 L 511.084542 48.218629 L 513.055543 49.386128 L 515.017542 50.567129 L 516.980543 51.748229 L 518.943543 52.929329 L 520.906543 54.110428 L 522.860543 55.305228 L 524.806542 56.514128 L 526.692543 57.814929 L 528.535543 59.173729 L 530.336543 60.589129 L 532.100543 62.050528 L 533.864542 63.512028 L 535.628542 64.973629 L 537.364542 66.467329 L 539.007542 68.058329 L 540.557543 69.745429 L 541.893543 71.605628 L 543.145543 73.521728 L 544.311542 75.493329" fill="none" id="28" stroke="#bbabff" stroke-width="0.5" /><path d="M 543.508542 73.480328 L 544.059543 73.736228 L 544.610543 73.992129 L 545.159543 74.252028 L 545.707543 74.512229 L 546.254543 74.776729 L 546.801542 75.041928 L 547.344542 75.312629 L 547.887542 75.584628 L 548.429543 75.859229 L 548.970543 76.134828 L 549.483542 76.457829 L 549.982543 76.805228 L 550.458543 77.180628 L 550.920543 77.575228 L 551.336543 78.013929 L 551.714542 78.489529 L 552.082543 78.972329 L 552.440542 79.462929 L 552.794543 79.956429 L 553.142542 80.454029 L 553.482543 80.957628 L 553.804543 81.472628 L 554.125543 81.987729 L 554.446543 82.503428 L 554.767542 83.019429 L 555.086543 83.536428 L 555.405543 84.053329 L 555.723543 84.570429 L 556.042542 85.087429 L 556.360543 85.604828 L 556.678543 86.122229" fill="none" id="29" stroke="#bbabff" stroke-width="0.5" /><path d="M 480.819542 43.926929 L 481.715542 43.528228 L 482.612542 43.133629 L 483.579542 42.972929 L 484.546542 42.843029 L 485.510542 43.017929 L 486.461542 43.231129 L 487.308542 43.725729 L 488.144542 44.235928 L 488.908542 44.849528 L 489.671542 45.465128 L 490.422542 46.095429 L 491.172542 46.727429 L 491.909542 47.373528 L 492.634542 48.031928 L 493.235542 48.806429 L 493.822542 49.589829 L 494.248542 50.472828 L 494.668542 51.358629 L 495.004542 52.279528 L 495.337542 53.201729 L 495.609542 54.143529 L 495.880542 55.085729 L 496.129542 56.034228 L 496.376542 56.983029 L 496.592542 57.939329 L 496.808542 58.895729 L 496.975542 59.861928 L 497.141542 60.828128 L 497.409542 62.770729" fill="none" id="30" stroke="#658424" stroke-width="0.5" /><path d="M 396.940542 343.559628 L 397.250542 341.660628 L 397.548542 339.759629 L 397.805542 337.852628 L 398.021542 335.940629 L 398.192542 334.024629 L 398.331542 332.105629 L 398.458542 330.185629 L 398.783542 328.289628 L 399.151542 326.401629 L 399.669542 324.548629 L 400.208542 322.701629 L 400.776542 320.863629 L 401.344542 319.024629 L 401.913542 317.186628 L 402.522542 315.361628 L 403.165542 313.549628 L 404.017542 311.824629 L 404.969542 310.158629 L 406.091542 308.595628 L 407.253542 307.061628 L 408.441542 305.548629 L 409.629542 304.034628 L 410.817542 302.521629 L 412.006542 301.007629 L 413.194542 299.494628 L 414.382542 297.980629 L 415.570542 296.467628 L 416.759542 294.953628 L 417.947542 293.440629 L 419.135542 291.926628" fill="none" id="31" stroke="#f1b9ff" stroke-width="0.5" /><path d="M 305.264542 235.715629 L 306.118542 233.950628 L 306.989542 232.194628 L 307.914542 230.465629 L 308.858542 228.746629 L 309.822542 227.039628 L 310.923542 225.420628 L 312.083542 223.839629 L 313.346542 222.339629 L 314.619542 220.848628 L 315.908542 219.371629 L 317.198542 217.894629 L 318.487542 216.417629 L 319.825542 214.985628 L 321.190542 213.577629 L 322.687542 212.312628 L 324.212542 211.080628 L 325.811542 209.946629 L 327.411542 208.813628 L 329.012542 207.681628 L 330.613542 206.548629 L 332.214542 205.416629 L 333.815542 204.284628 L 335.415542 203.151628 L 337.016542 202.019629 L 338.626542 200.900629 L 340.258542 199.814628 L 341.940542 198.810629 L 343.667542 197.882629 L 345.431542 197.026628 L 347.206542 196.192629" fill="none" id="32" stroke="#989c37" stroke-width="0.5" /><path d="M 244.772542 166.719628 L 244.878543 167.642629 L 244.984543 168.564628 L 245.074543 169.489629 L 245.164542 170.413628 L 245.229543 171.339629 L 245.293543 172.266628 L 245.344542 173.193628 L 245.395543 174.120629 L 245.442543 175.048629 L 245.489542 175.975628 L 245.533542 176.903628 L 245.578542 177.831628 L 245.622543 178.758629 L 245.667542 179.686629 L 245.711543 180.613629 L 245.756542 181.541629 L 245.800543 182.469628 L 245.845542 183.396628 L 245.889543 184.324628 L 245.934542 185.251629 L 245.978543 186.179629 L 246.023542 187.107629 L 246.067543 188.034628 L 246.112542 188.962628 L 246.157543 189.889629 L 246.202542 190.817629 L 246.247543 191.744629 L 246.292542 192.672629 L 246.383543 194.527628" fill="none" id="33" stroke="#bb568c" stroke-width="0.5" /><path d="M 246.383543 194.527628 L 246.420542 193.594628 L 246.457542 192.661629 L 246.490543 191.728629 L 246.523542 190.795628 L 246.556543 189.861628 L 246.589542 188.928629 L 246.610543 187.995629 L 246.632542 187.061629 L 246.647542 186.127629 L 246.662543 185.194628 L 246.655542 184.260628 L 246.649542 183.326628 L 246.638542 182.393629 L 246.627543 181.459629 L 246.606542 180.525629 L 246.585543 179.592628 L 246.560542 178.658628 L 246.536542 177.725628 L 246.510542 176.791629 L 246.483542 175.858629 L 246.457542 174.925628 L 246.431543 173.991628 L 246.405542 173.058628 L 246.379542 172.124629 L 246.352542 171.191629 L 246.326542 170.258629 L 246.300543 169.324628 L 246.274542 168.391628 L 246.247543 167.457628 L 246.221542 166.524629" fill="none" id="34" stroke="#bb568c" stroke-width="0.5" /><path d="M 248.879542 181.941629 L 249.190542 180.807628 L 249.503543 179.673629 L 249.844542 178.547629 L 250.188542 177.422629 L 250.559542 176.305629 L 250.941542 175.192629 L 251.368542 174.097629 L 251.815542 173.009628 L 252.320542 171.946629 L 252.852542 170.898629 L 253.447542 169.883629 L 254.060542 168.879628 L 254.704543 167.895628 L 255.355542 166.915628 L 256.014543 165.940629 L 256.695542 164.981628 L 257.398542 164.037629 L 258.149542 163.134628 L 258.940542 162.263629 L 259.814542 161.481628 L 260.740542 160.755629 L 261.711542 160.094628 L 262.704542 159.462628 L 263.710542 158.852629 L 264.720542 158.250629 L 265.752542 157.685629 L 266.789542 157.129628 L 267.852542 156.625629 L 268.918542 156.129628 L 270.003542 155.673629 L 271.088542 155.219628" fill="none" id="35" stroke="#cfe395" stroke-width="0.5" /><path d="M 244.249542 183.138629 L 246.741543 184.493628 L 249.221542 185.870629 L 251.684542 187.277628 L 254.130542 188.713628 L 256.561542 190.176628 L 258.991542 191.638629 L 261.421542 193.101629 L 263.839542 194.585629 L 266.217542 196.129628 L 268.513542 197.795628 L 270.665542 199.643629 L 272.776542 201.537629 L 274.875542 203.446629 L 276.973542 205.355628 L 279.071542 207.264629 L 281.169542 209.173629 L 283.267542 211.082628 L 285.365542 212.991628 L 287.463542 214.900629 L 289.561542 216.809629 L 291.659542 218.718628 L 293.745542 220.640628 L 295.774542 222.621629 L 297.686542 224.712628 L 299.403542 226.969628 L 300.994542 229.318628 L 302.585542 231.666629 L 304.176542 234.015628 L 305.767542 236.363629 L 307.358542 238.711628" fill="none" id="36" stroke="#c45372" stroke-width="0.5" /><path d="M 24.506943 96.626129 L 24.503742 97.280129 L 24.500442 97.934028 L 24.497242 98.587929 L 24.494042 99.241828 L 24.490842 99.895729 L 24.487542 100.549628 L 24.484343 101.203629 L 24.481143 101.857629 L 24.477942 102.511629 L 24.474642 103.165628 L 24.471442 103.819629 L 24.468242 104.473629 L 24.465042 105.126628 L 24.461742 105.780629 L 24.458543 106.434629 L 24.455343 107.088628 L 24.452143 107.742628 L 24.448942 108.396629 L 24.445642 109.050629 L 24.442442 109.704628 L 24.439242 110.358628 L 24.435942 111.012629 L 24.432643 111.666629 L 24.429443 112.319629 L 24.426143 112.973629 L 24.422742 113.627629 L 24.419442 114.281628 L 24.416042 114.935629 L 24.412643 115.589629 L 24.409242 116.243628" fill="none" id="37" stroke="#ff94af" stroke-width="0.5" /><path d="M 24.409242 116.243628 L 24.409242 115.235629 L 24.409242 114.226629 L 24.409242 113.218628 L 24.409242 112.209628 L 24.409242 111.201628 L 24.409242 110.192628 L 24.409242 109.184629 L 24.409242 108.175629 L 24.409242 107.167629 L 24.409242 106.159628 L 24.409242 105.150628 L 24.409242 104.142629 L 24.409242 103.133629 L 24.409242 102.125629 L 24.412042 101.116629 L 24.414842 100.108628 L 24.420343 99.100128 L 24.425942 98.091729 L 24.440842 97.083428 L 24.455742 96.075129 L 24.476142 95.066828 L 24.496643 94.058628 L 24.531942 93.050828 L 24.567242 92.043029 L 24.607442 91.035329 L 24.647642 90.027728 L 24.692342 89.020229 L 24.737042 88.012828 L 24.785242 87.005528 L 24.833443 85.998228" fill="none" id="38" stroke="#ff94af" stroke-width="0.5" /><path d="M 24.833443 85.998228 L 24.803842 86.892829 L 24.774142 87.787329 L 24.744542 88.681928 L 24.714842 89.576429 L 24.685242 90.471029 L 24.655542 91.365528 L 24.625943 92.260129 L 24.596242 93.154629 L 24.566643 94.049228 L 24.536942 94.943729 L 24.507343 95.838329 L 24.477642 96.732828 L 24.447942 97.627429 L 24.418342 98.521929 L 24.388642 99.416528 L 24.359042 100.310629 L 24.329342 101.205629 L 24.299743 102.100628 L 24.270042 102.994629 L 24.240443 103.889629 L 24.210242 104.783629 L 24.180042 105.678629 L 24.148642 106.572629 L 24.117142 107.467629 L 24.084142 108.361628 L 24.051042 109.256629 L 24.012442 110.150628 L 23.973743 111.044629 L 23.931942 111.938629 L 23.890042 112.832628" fill="none" id="39" stroke="#ff94af" stroke-width="0.5" /><path d="M 23.890042 112.832628 L 23.840642 112.034628 L 23.791242 111.235629 L 23.751842 110.436628 L 23.712442 109.637629 L 23.690442 108.838628 L 23.668543 108.038629 L 23.651542 107.238629 L 23.634542 106.438629 L 23.621543 105.638628 L 23.608542 104.839629 L 23.597143 104.039629 L 23.585742 103.239628 L 23.574343 102.439628 L 23.562942 101.639629 L 23.551543 100.839629 L 23.540142 100.039629 L 23.528742 99.239929 L 23.517342 98.440028 L 23.505942 97.640229 L 23.494542 96.840328 L 23.483142 96.040429 L 23.471742 95.240528 L 23.460342 94.440629 L 23.448842 93.640728 L 23.437442 92.840829 L 23.426042 92.040929 L 23.414642 91.241028 L 23.403242 90.441228 L 23.380443 88.841429" fill="none" id="40" stroke="#ff94af" stroke-width="0.5" /><path d="M 24.423343 98.409529 L 24.414243 97.873228 L 24.405242 97.337029 L 24.396142 96.800729 L 24.387042 96.264428 L 24.378042 95.728229 L 24.368942 95.191929 L 24.359842 94.655629 L 24.350842 94.119428 L 24.341742 93.583129 L 24.332742 93.046829 L 24.323642 92.510628 L 24.314542 91.974328 L 24.305542 91.438029 L 24.296442 90.901829 L 24.287342 90.365528 L 24.278343 89.829228 L 24.269243 89.292929 L 24.260243 88.756728 L 24.251143 88.220428 L 24.242043 87.684128 L 24.233042 87.147929 L 24.223942 86.611628 L 24.214842 86.075328 L 24.205842 85.539129 L 24.196742 85.002829 L 24.187742 84.466528 L 24.178642 83.930329 L 24.169542 83.394029 L 24.151442 82.321528" fill="none" id="41" stroke="#ff94af" stroke-width="0.5" /><path d="M 23.186642 87.188629 L 23.724842 85.836428 L 24.264843 84.484928 L 24.904042 83.177429 L 25.550042 81.873628 L 26.333443 80.647029 L 27.122242 79.424228 L 27.995542 78.259828 L 28.869342 77.095928 L 29.753542 75.939829 L 30.639142 74.784929 L 31.556242 73.654729 L 32.475343 72.526229 L 33.448243 71.443828 L 34.422943 70.363028 L 35.457643 69.339529 L 36.492443 68.316029 L 37.530843 67.296228 L 38.569243 66.276428 L 39.607943 65.256929 L 40.646743 64.237528 L 41.704943 63.238228 L 42.763143 62.238929 L 43.921243 61.357428 L 45.079743 60.476529 L 46.397643 59.859029 L 47.715743 59.242029 L 49.126342 58.883429 L 50.537243 58.526629 L 51.984943 58.377229 L 53.432743 58.227728" fill="none" id="42" stroke="#ff94af" stroke-width="0.5" /><path d="M 20.706142 82.668628 L 21.367842 81.000129 L 22.029542 79.331628 L 22.938242 77.783828 L 23.850043 76.238129 L 25.063743 74.915729 L 26.277442 73.593429 L 27.726643 72.534429 L 29.176243 71.475928 L 30.625843 70.417428 L 32.075443 69.359028 L 33.546143 68.330129 L 35.017143 67.301429 L 36.555143 66.376328 L 38.094043 65.452329 L 39.779843 64.837628 L 41.467843 64.227129 L 43.244943 63.980128 L 45.023643 63.739229 L 46.802343 63.498328 L 48.581043 63.257429 L 50.359743 63.016528 L 52.138343 62.775629 L 53.917043 62.534728 L 55.695743 62.293829 L 57.483943 62.139629 L 59.272443 61.987828 L 61.049143 62.227629 L 62.825443 62.486029 L 64.554943 62.965528 L 66.284243 63.446528" fill="none" id="43" stroke="#ff94af" stroke-width="0.5" /><path d="M 515.023543 315.880629 L 515.454543 316.198628 L 515.886543 316.516629 L 516.314543 316.837628 L 516.743542 317.158629 L 517.166542 317.486628 L 517.590542 317.814629 L 518.011543 318.146629 L 518.431542 318.478629 L 518.851543 318.810629 L 519.271543 319.143628 L 519.691542 319.476629 L 520.110543 319.809628 L 520.529543 320.143628 L 520.948543 320.477628 L 521.367543 320.810629 L 521.786542 321.144629 L 522.206543 321.477628 L 522.625543 321.811628 L 523.044543 322.144629 L 523.463543 322.478629 L 523.882542 322.811628 L 524.301542 323.145628 L 524.721543 323.478629 L 525.140543 323.812629 L 525.559543 324.145628 L 525.978543 324.479628 L 526.397542 324.812629 L 526.816542 325.146629 L 527.236543 325.480629 L 527.655543 325.813628" fill="none" id="44" stroke="#488656" stroke-width="0.5" /><path d="M 513.385543 313.926628 L 514.495543 315.522628 L 515.600543 317.122629 L 516.685542 318.734628 L 517.755543 320.357628 L 518.808543 321.992629 L 519.837543 323.641629 L 520.856543 325.296628 L 521.862543 326.959629 L 522.868542 328.623628 L 523.871543 330.288629 L 524.861543 331.961629 L 525.831543 333.645628 L 526.728543 335.369628 L 527.584542 337.114628 L 528.278543 338.928629 L 528.934543 340.758628 L 529.467543 342.627629 L 529.988542 344.500629 L 530.486543 346.379629 L 530.984542 348.258628 L 531.482543 350.137629 L 531.979542 352.016629 L 532.472543 353.897628 L 532.902542 355.792628 L 533.258542 357.700628 L 533.440542 359.635628 L 533.591543 361.573628 L 533.717543 363.513628 L 533.773543 365.455628 L 533.807543 367.399629" fill="none" id="45" stroke="#ffc0e1" stroke-width="0.5" /><path d="M 415.299542 296.594628 L 417.282542 299.398628 L 419.598542 301.929628 L 422.336542 303.979628 L 425.330542 305.646629 L 428.413542 307.158629 L 431.506542 308.651629 L 434.598542 310.144629 L 437.690542 311.638628 L 440.790542 313.115629 L 443.947542 314.466629 L 447.219542 315.506628 L 450.535542 316.400628 L 453.855542 317.275628 L 457.176542 318.150628 L 460.496542 319.025628 L 463.817542 319.900628 L 467.137542 320.776629 L 470.458542 321.651629 L 473.780542 322.518628 L 477.119542 323.322629 L 480.524542 323.763628 L 483.955542 323.756628 L 487.351542 323.296628 L 490.737542 322.722628 L 494.122542 322.147628 L 497.508542 321.573628 L 500.888542 320.972628 L 504.232542 320.216629 L 507.466542 319.065629 L 510.616542 317.696628" fill="none" id="46" stroke="#6c8139" stroke-width="0.5" /><path d="M 400.452542 342.626628 L 403.394542 346.448628 L 406.692542 349.968629 L 410.364542 353.089629 L 414.489542 355.591629 L 418.724542 357.902628 L 422.969542 360.195628 L 427.214542 362.487629 L 431.540542 364.599628 L 436.138542 366.039628 L 440.851542 367.072629 L 445.579542 368.031629 L 450.308542 368.990629 L 455.036542 369.949629 L 459.765542 370.908629 L 464.500542 371.831629 L 469.264542 372.582628 L 474.062542 373.081629 L 478.871542 373.471629 L 483.680542 373.855629 L 488.494542 374.175629 L 493.309542 374.050629 L 497.966542 372.906629 L 502.405542 371.032628 L 506.786542 369.012629 L 511.166542 366.988629 L 515.561542 364.997629 L 520.061542 363.260628 L 524.630543 361.710628 L 529.100543 359.896629 L 533.518543 357.958628" fill="none" id="47" stroke="#a9d0ff" stroke-width="0.5" /><path d="M 499.952542 372.196628 L 501.165542 372.007629 L 502.378542 371.818628 L 503.595542 371.654629 L 504.812542 371.489628 L 506.033542 371.360629 L 507.254542 371.231628 L 508.478542 371.129629 L 509.702542 371.027628 L 510.926542 370.927629 L 512.150543 370.828628 L 513.370543 370.695628 L 514.591543 370.563628 L 515.799543 370.343629 L 517.007542 370.122629 L 518.192543 369.800629 L 519.377543 369.478629 L 520.533543 369.065629 L 521.690542 368.652628 L 522.825542 368.183628 L 523.959542 367.713629 L 525.093543 367.241628 L 526.226543 366.768628 L 527.349542 366.272628 L 528.472543 365.776629 L 529.558543 365.202629 L 530.644543 364.628628 L 531.686542 363.979628 L 532.728543 363.330628 L 533.734542 362.626628 L 534.741543 361.922628" fill="none" id="48" stroke="#a98c2c" stroke-width="0.5" /><path d="M 622.069543 232.622628 L 623.316542 233.851629 L 624.559543 235.084629 L 625.774543 236.346629 L 626.976543 237.619629 L 628.144543 238.924629 L 629.295543 240.244629 L 630.419543 241.587628 L 631.527542 242.943628 L 632.620543 244.311629 L 633.644543 245.730628 L 634.628542 247.179629 L 635.484542 248.704629 L 636.301542 250.253628 L 636.996543 251.860628 L 637.675543 253.474628 L 638.303543 255.109629 L 638.931542 256.743628 L 639.559543 258.378628 L 640.187543 260.013628 L 640.815542 261.648628 L 641.413543 263.293629 L 641.963543 264.956629 L 642.387542 266.650628 L 642.689543 268.375629 L 642.935542 270.108629 L 643.150543 271.846629 L 643.350543 273.586629 L 643.545543 275.326629 L 643.713543 277.070628 L 643.877543 278.813628" fill="none" id="49" stroke="#0294bb" stroke-width="0.5" /><path d="M 613.499543 151.352629 L 614.762542 150.500629 L 616.049543 149.692629 L 617.471543 149.143629 L 618.928543 148.755629 L 620.450542 148.679629 L 621.956543 148.799629 L 623.442543 149.136629 L 624.881543 149.623628 L 626.286542 150.213628 L 627.445542 151.162629 L 628.502543 152.261629 L 629.338543 153.531629 L 630.144543 154.825628 L 630.875543 156.163628 L 631.585542 157.510628 L 632.117543 158.939628 L 632.594542 160.383629 L 632.880543 161.880629 L 633.091543 163.386629 L 633.156543 164.909628 L 633.221543 166.432628 L 633.286542 167.955628 L 633.351543 169.478629 L 633.416542 171.001629 L 633.402542 172.524629 L 633.348543 174.047629 L 633.206543 175.564628 L 633.037542 177.079629 L 632.792542 178.584629 L 632.538543 180.086628" fill="none" id="50" stroke="#d7b555" stroke-width="0.5" /><path d="M 498.311542 213.649629 L 498.759542 214.163628 L 499.207542 214.678629 L 499.654542 215.192629 L 500.102542 215.706628 L 500.550542 216.221629 L 500.998542 216.735628 L 501.446542 217.249629 L 501.893542 217.764629 L 502.341542 218.278628 L 502.789542 218.792629 L 503.237542 219.307628 L 503.685542 219.821629 L 504.132542 220.335629 L 504.580542 220.850628 L 505.028542 221.364629 L 505.476542 221.878628 L 505.923542 222.392629 L 506.371542 222.907628 L 506.819542 223.421628 L 507.267542 223.935629 L 507.715542 224.450628 L 508.162542 224.964629 L 508.610542 225.478629 L 509.058542 225.993628 L 509.506542 226.507629 L 509.954542 227.021628 L 510.401542 227.536629 L 510.849542 228.050628 L 511.745542 229.079629" fill="none" id="51" stroke="#ffa372" stroke-width="0.5" /><path d="M 512.549543 179.282628 L 508.839542 182.624629 L 505.535542 186.367628 L 502.825542 190.557628 L 500.817542 195.122628 L 499.487542 199.929629 L 498.844542 204.873628 L 498.911542 209.857629 L 499.670542 214.783628 L 501.377542 219.449628 L 503.893542 223.745629 L 506.758542 227.834629 L 510.086542 231.534628 L 513.984542 234.627629 L 518.234542 237.239629 L 522.690542 239.485628 L 527.357543 241.224628 L 532.201543 242.417629 L 537.128542 243.208629 L 542.097543 243.694628 L 547.083543 243.931628 L 552.053543 243.669628 L 556.935542 242.650629 L 561.689543 241.130629 L 566.251543 239.146628 L 570.259543 236.213628 L 573.352543 232.321629 L 575.331543 227.752629 L 576.170543 222.839629 L 575.816542 217.865629 L 574.127543 213.168629 L 571.561542 208.883629" fill="none" id="52" stroke="#ffa372" stroke-width="0.5" /><path d="M 559.772542 212.876629 L 555.908543 209.759628 L 551.851543 206.901628 L 547.683543 204.206628 L 543.121543 202.277628 L 538.219542 201.793629 L 533.259543 201.581628 L 528.300543 201.379628 L 523.338543 201.410629 L 518.485543 202.296628 L 513.908543 204.154629 L 509.639542 206.670628 L 505.601542 209.552628 L 502.189542 213.076628 L 500.059542 217.480628 L 498.899542 222.303629 L 498.003542 227.185629 L 497.767542 232.072629 L 499.455542 236.572629 L 502.768542 240.268629 L 506.091542 243.956628 L 509.464542 247.596629 L 513.127543 250.920628 L 517.444543 253.350628 L 522.152542 254.921628 L 526.925543 256.286629 L 531.697543 257.651629 L 536.503542 258.894629 L 541.404543 259.667628 L 546.361543 259.830628 L 551.322543 259.688628 L 556.282542 259.497629 L 561.223543 259.044628 L 566.133542 258.324629 L 570.709542 256.546628 L 574.786542 253.752629 L 578.585542 250.559629 L 580.731543 246.384628 L 579.971543 241.695628 L 577.985543 237.145628 L 575.868542 232.658628 L 573.288543 228.439628 L 570.199543 224.557628 L 566.942543 220.811629 L 563.639543 217.105628 L 560.324543 213.411629 L 557.008542 209.717628 L 553.615543 206.102629 L 549.811542 202.922629 L 545.621543 200.263629 L 541.270543 197.873628 L 536.772542 195.774629" fill="none" id="53" stroke="#b06735" stroke-width="0.5" /><path d="M 554.229542 226.118628 L 550.218543 223.270628 L 546.195542 220.441629 L 542.167542 217.617628 L 538.100543 214.851629 L 533.733542 212.613629 L 529.015543 211.334629 L 524.157542 210.574628 L 519.257542 210.247628 L 514.339542 210.164628 L 509.422542 210.202629 L 504.659542 211.066629 L 500.666542 213.686629 L 497.689542 217.601629 L 494.962542 221.683628 L 493.133542 226.162629 L 493.263542 231.065629 L 494.331542 235.867628 L 495.414542 240.665628 L 496.769542 245.393629 L 499.417542 249.525629 L 503.247542 252.575628 L 507.406542 255.196629 L 511.612542 257.746628 L 515.888542 260.177629 L 520.395543 262.115629 L 525.157542 263.250629 L 530.033543 263.882629 L 534.925543 264.404629 L 539.817543 264.908629 L 544.713543 265.385628 L 549.606543 265.532628 L 554.445542 264.730629 L 559.145543 263.281629 L 563.816542 261.756628 L 568.125543 259.489628 L 570.632542 255.271628 L 571.282542 250.396628 L 571.570542 245.486628 L 570.310542 240.755629 L 567.906543 236.485628 L 565.266543 232.335629 L 562.590542 228.208629 L 559.797543 224.160629 L 556.605543 220.434629 L 552.944543 217.166629 L 549.045543 214.168629 L 545.106543 211.223628 L 541.166542 208.277628 L 537.218543 205.344628 L 533.135543 202.629628 L 528.630543 200.707628 L 523.813543 199.711628 L 518.960542 198.914628 L 514.061542 198.477629" fill="none" id="54" stroke="#b06735" stroke-width="0.5" /><path d="M 523.436542 205.790628 L 518.591543 204.632629 L 513.630543 204.217628 L 508.690542 204.781629 L 503.990542 206.379628 L 499.446542 208.414628 L 495.715542 211.614629 L 493.258542 215.882629 L 491.333542 220.475628 L 491.181542 225.261629 L 492.829542 229.921628 L 495.137542 234.333629 L 498.005542 238.371629 L 501.622542 241.759628 L 505.754542 244.526628 L 510.090542 246.980628 L 514.436542 249.415628 L 518.802543 251.815629 L 523.252543 254.041629 L 527.952543 255.676628 L 532.836543 256.653629 L 537.755543 257.443628 L 542.693543 258.105629 L 547.602543 257.321628 L 552.416542 256.046628 L 557.217543 254.715629 L 561.802543 252.794628 L 565.311542 249.391628 L 567.453543 244.954629 L 568.831543 240.174629 L 567.950542 235.549629 L 565.254543 231.395628 L 562.168543 227.485628 L 559.082543 223.574628 L 555.835542 219.803629 L 552.251543 216.350628 L 548.452543 213.128628 L 544.624543 209.940629 L 540.796542 206.751629 L 536.893543 203.671628 L 532.532542 201.291629 L 527.719542 200.023629 L 522.760543 199.540628" fill="none" id="55" stroke="#b06735" stroke-width="0.5" /><path d="M 566.889543 239.774629 L 565.733542 237.624629 L 564.568543 235.479628 L 563.397542 233.337628 L 562.223543 231.197629 L 561.020543 229.073629 L 559.753542 226.994629 L 558.052543 225.243628 L 556.228543 223.628628 L 554.324543 222.100628 L 552.396543 220.604628 L 550.467543 219.107629 L 548.539543 217.611628 L 546.610543 216.115629 L 544.681542 214.618628 L 542.734542 213.148629 L 540.726543 211.760628 L 538.601543 210.565629 L 536.410543 209.494629 L 534.148543 208.578629 L 531.845543 207.772628 L 529.512542 207.059629 L 527.140543 206.482629 L 524.740543 206.042629 L 522.335542 205.625629 L 519.930543 205.208629 L 517.525543 204.792629 L 515.114542 204.408628 L 512.697543 204.068628 L 510.267542 203.838628 L 507.834542 203.651628 L 505.397542 203.504628" fill="none" id="56" stroke="#b06735" stroke-width="0.5" /><path d="M 499.858542 203.922629 L 501.800542 202.798629 L 503.820542 201.833629 L 505.913542 201.027628 L 508.111542 200.571629 L 510.331542 200.446629 L 512.570542 200.600628 L 514.794543 200.901628 L 517.018543 201.207628 L 519.240543 201.517629 L 521.463543 201.827629 L 523.686542 202.136629 L 525.909543 202.448629 L 528.120543 202.830628 L 530.278543 203.413628 L 532.381543 204.194628 L 534.275543 205.399629 L 536.105543 206.694628 L 537.880543 208.067629 L 539.654543 209.441629 L 541.429543 210.815629 L 543.204543 212.189628 L 544.979542 213.562628 L 546.754543 214.936629 L 548.528543 216.310629 L 550.284543 217.708629 L 551.986543 219.169628 L 553.636543 220.690629 L 555.169543 222.330628 L 556.656543 224.010628 L 558.096543 225.731628" fill="none" id="57" stroke="#b06735" stroke-width="0.5" /><path d="M 500.178542 204.536629 L 502.533542 203.033628 L 505.066542 201.863629 L 507.739542 201.085629 L 510.496542 200.752629 L 513.286542 200.788628 L 516.066542 201.054629 L 518.834542 201.434629 L 521.567543 201.998628 L 524.254543 202.750629 L 526.888542 203.675628 L 529.466543 204.752629 L 531.853543 206.198629 L 534.236543 207.656629 L 536.673543 209.014629 L 539.188543 210.229628 L 541.704543 211.443628 L 544.220543 212.656629 L 546.637542 214.046628 L 548.925543 215.643629 L 551.082543 217.417629 L 553.107543 219.341629 L 555.000543 221.393629 L 556.723543 223.585629 L 558.249543 225.920628 L 559.557543 228.388629 L 560.063543 231.132629 L 560.104542 233.912629 L 559.682543 236.655629 L 558.830542 239.308628 L 557.643543 241.836628" fill="none" id="58" stroke="#b06735" stroke-width="0.5" /><path d="M 578.002543 213.684629 L 574.102543 210.567629 L 570.202543 207.450628 L 566.302543 204.333629 L 562.402542 201.217628 L 558.502543 198.100628 L 554.602543 194.983629 L 550.702543 191.866628 L 546.802543 188.749629 L 542.842543 185.711628 L 538.811542 182.765628 L 534.262542 180.808628 L 529.527542 179.284628 L 524.534543 179.267629 L 519.551542 179.438628 L 514.582543 179.925628 L 509.644542 180.641628 L 504.721542 181.470629 L 500.426542 184.002629 L 496.476542 186.948629 L 493.373542 190.859629 L 491.159542 195.258629 L 489.520542 199.974628 L 490.103542 204.897628 L 491.045542 209.786629 L 492.608542 214.528628 L 494.805542 218.964629 L 497.540542 223.140628 L 500.930542 226.787629 L 504.445542 230.332628 L 507.970542 233.868628 L 511.574542 237.320628 L 515.284543 240.661629 L 519.237543 243.701628 L 523.284543 246.625629 L 527.400543 249.449628 L 531.647542 252.046628 L 536.181542 254.135628 L 540.940542 255.531629 L 545.838543 256.497629 L 550.817543 256.806628 L 555.805543 257.005629 L 560.797543 257.017629 L 565.664543 256.233629 L 570.410543 254.685629 L 574.589542 252.023629 L 578.428543 248.894629 L 581.262542 244.784628 L 583.287542 240.322629 L 584.365543 235.447629 L 584.491543 230.480628 L 584.236543 225.512629 L 582.634543 220.784628 L 580.983542 216.072629 L 579.254543 211.389629 L 576.979542 206.964629 L 574.444543 202.663628 L 571.160543 198.905629 L 567.832543 195.184629 L 564.420543 191.539628 L 560.638542 188.316629 L 556.579543 185.409628 L 552.056542 183.325628 L 547.456543 181.386629 L 542.798543 179.591629 L 538.009543 178.289628 L 533.072543 177.545628 L 528.093543 177.410629 L 523.114542 177.554629 L 518.323543 178.958629 L 513.893543 181.033628 L 510.085542 184.261629 L 507.287542 188.306628 L 504.927542 192.706628 L 503.775542 197.564628 L 502.788542 202.451628 L 502.195542 207.408628 L 503.000542 212.203629 L 504.713542 216.892629 L 507.686542 220.888629 L 510.933542 224.647628 L 514.814543 227.787629 L 518.864542 230.696629 L 523.054543 233.411629 L 527.392542 235.879628 L 531.790543 238.233629 L 536.397542 240.156629 L 541.052543 241.955628 L 545.770543 243.588628 L 550.608542 244.788628 L 555.496543 245.788628 L 560.489542 245.779629 L 565.340542 245.110628 L 569.896543 243.069628 L 573.504543 239.799629 L 576.638542 235.912629 L 578.661542 231.356628 L 580.109542 226.658628 L 580.171542 221.666629 L 579.200542 216.851629 L 577.485543 212.162629 L 574.993542 207.848628 L 572.341543 203.620629 L 569.434543 199.561629 L 566.177543 195.809629 L 562.536542 192.393629 L 558.629543 189.293629 L 554.624543 186.314628 L 550.372543 183.697629 L 545.987543 181.343628 L 541.367543 179.451628 L 536.506543 178.623628 L 531.521543 178.337628 L 526.529543 178.300628 L 521.538543 178.325628 L 516.548543 178.502629 L 511.821542 179.760628 L 507.303542 181.886629 L 504.476542 185.939628 L 501.959542 190.234629 L 500.042542 194.844628 L 499.105542 199.662629 L 498.979542 204.653628 L 500.275542 209.441629 L 501.964542 214.122628 L 504.465542 218.443628 L 507.045542 222.716629 L 509.715542 226.934629 L 512.713543 230.920628 L 515.880543 234.761629 L 520.056542 237.496629 L 524.289543 240.138629 L 528.628542 242.608629 L 533.260543 244.390628 L 538.046542 245.810629 L 543.007542 246.343628 L 547.980543 246.763629 L 552.968543 246.965629 L 557.931542 246.663628 L 562.871543 245.944628 L 567.259543 243.665628 L 571.374543 240.908628 L 574.556542 237.060629 L 576.376543 232.650629 L 576.846543 227.679629 L 576.437543 222.723628 L 575.633542 217.819628 L 573.609542 213.255629 L 571.398543 208.785629 L 568.940542 204.440629 L 566.134543 200.318628 L 563.186542 196.290628" fill="none" id="59" stroke="#b06735" stroke-width="0.5" /><path d="M 574.202543 250.887629 L 575.143543 252.022628 L 576.084542 253.158628 L 577.023543 254.295628 L 577.962543 255.432628 L 578.900543 256.569629 L 579.838543 257.707628 L 580.772542 258.848629 L 581.702543 259.992629 L 582.620543 261.146629 L 583.522542 262.313628 L 584.407542 263.492629 L 585.251543 264.701629 L 586.079543 265.920629 L 586.814543 267.199629 L 587.548543 268.477628 L 588.213543 269.793629 L 588.878542 271.109628 L 589.543543 272.426628 L 590.208543 273.742629 L 590.873542 275.058628 L 591.538543 276.374629 L 592.203543 277.690629 L 592.868542 279.006628 L 593.533543 280.322629 L 594.197543 281.639629 L 594.862543 282.955628 L 595.527542 284.271629 L 596.192543 285.587628 L 596.857543 286.903629 L 597.522542 288.219628" fill="none" id="60" stroke="#b06735" stroke-width="0.5" /><path d="M 285.002542 17.063629 L 282.625542 21.456229 L 280.248542 25.848828 L 277.955542 30.278928 L 276.247542 34.972329 L 274.539542 39.665829 L 273.079542 44.421729 L 272.355542 49.363529 L 271.632542 54.305329 L 271.210542 59.263728 L 271.388542 64.255128 L 271.566542 69.246429 L 272.103542 74.192528 L 273.169542 79.071828 L 274.236542 83.951228 L 275.878542 88.626929 L 278.115542 93.092729 L 280.351542 97.558628 L 282.686542 101.972628 L 285.101542 106.344628 L 287.516542 110.716628 L 289.931542 115.087628 L 292.346542 119.459628 L 294.762542 123.831628 L 297.177542 128.203629 L 299.592542 132.574628 L 302.007542 136.946629 L 304.535542 141.253628 L 307.106542 145.535629 L 309.677542 149.817629 L 313.046542 153.466629 L 316.629542 156.946629 L 320.212542 160.425628 L 324.372542 163.167629 L 328.610542 165.810629 L 332.847542 168.454629 L 337.094542 171.084629 L 341.340542 173.713628 L 345.587542 176.342628 L 349.891542 178.875629 L 354.195542 181.408628 L 358.527542 183.879628 L 363.323542 185.270628 L 368.120542 186.662629 L 372.919542 187.570628 L 377.724542 186.209629 L 382.530542 184.848628 L 387.329542 183.466629 L 392.107542 182.012629 L 396.885542 180.557628 L 401.631542 179.009628 L 406.298542 177.230628 L 410.965542 175.451628 L 414.358542 172.550628 L 415.532542 167.696629 L 416.706542 162.841629 L 417.069542 157.904629 L 416.896542 152.913628 L 416.723542 147.921628 L 416.442542 142.935629 L 416.105542 137.952629 L 415.769542 132.969628 L 414.112542 128.331628 L 411.966542 123.821629 L 409.820542 119.311628 L 406.994542 115.209628 L 404.022542 111.195628 L 401.050542 107.181629 L 398.078542 103.167629 L 395.106542 99.153728 L 392.134542 95.139629 L 389.162542 91.125529 L 386.191542 87.111529 L 383.219542 83.097429 L 379.687542 79.566328 L 376.152542 76.037228 L 372.606542 72.521828 L 368.841542 69.239728 L 365.076542 65.957628 L 361.292542 62.698428 L 357.366542 59.612229 L 353.439542 56.525928 L 349.512542 53.439628 L 345.585542 50.353329 L 341.658542 47.267128 L 337.704542 44.216729 L 333.661542 41.284829 L 329.618542 38.352928 L 325.321542 35.990029 L 320.436542 34.953128 L 315.550542 33.916229 L 310.621542 33.457028 L 305.636542 33.759729 L 300.651542 34.062429 L 295.736542 34.819729 L 290.896542 36.050528 L 286.055542 37.281429 L 282.048542 39.977728 L 278.515542 43.507728 L 274.981542 47.037729 L 272.637542 51.383729 L 270.613542 55.950029 L 268.590542 60.516329 L 266.828542 65.188129 L 265.114542 69.879228 L 263.400542 74.570329 L 263.899542 79.496429 L 264.590542 84.442928 L 265.339542 89.373628 L 267.240542 93.992129 L 269.142542 98.610529 L 271.043542 103.228628 L 272.945542 107.847628 L 274.847542 112.465628 L 276.769542 117.074629 L 278.794542 121.640629 L 280.819542 126.206628 L 283.217542 130.507629 L 286.845542 133.941629 L 290.472542 137.374629 L 294.314542 140.523629 L 298.610542 143.071629 L 302.906542 145.618628 L 307.244542 148.091629 L 311.651542 150.441629 L 316.058542 152.790628 L 320.535542 154.998628 L 325.099542 157.025629 L 329.664542 159.052628 L 334.265542 160.994629 L 338.902542 162.848628 L 343.540542 164.703629 L 348.383542 165.513629 L 353.377542 165.552628 L 358.371542 165.591629 L 363.366542 165.630629 L 368.360542 165.669628 L 373.354542 165.708629 L 378.329542 165.348628 L 383.294542 164.809629 L 388.259542 164.270628 L 391.357542 160.752629 L 394.004542 156.517629 L 396.651542 152.282628 L 398.553542 147.668629 L 400.415542 143.033628 L 402.273542 138.398629 L 403.589542 133.579629 L 404.905542 128.761629 L 405.985542 123.930628 L 405.240542 118.991629 L 404.495542 114.052628 L 403.654542 109.133629 L 402.402542 104.298629 L 401.151542 99.463528 L 399.881542 94.633329 L 398.555542 89.818028 L 397.229542 85.002829 L 395.831542 80.209328 L 394.269542 75.465228 L 392.707542 70.721228 L 390.664542 66.218029 L 387.804542 62.123029 L 384.945542 58.028129 L 382.085542 53.933228 L 379.226542 49.838228 L 376.367542 45.743329 L 373.479542 41.668028 L 370.563542 37.613428 L 367.646542 33.558829 L 364.493542 29.695529 L 361.142542 25.992028 L 357.791542 22.288529 L 353.896542 19.230629 L 349.681542 16.550529 L 345.467542 13.870428 L 341.068542 11.518528 L 336.588542 9.310538 L 332.108542 7.102599 L 327.491542 5.206678 L 322.830542 3.413348 L 318.168542 1.620019 L 313.519542 2.974108 L 308.872542 4.804658 L 304.316542 6.779148 L 300.645542 10.166428 L 296.975542 13.553728 L 293.306542 16.942028 L 289.642542 20.336529 L 285.978542 23.731029 L 282.679542 27.378929 L 280.767542 31.993229 L 278.856542 36.607529 L 277.433542 41.342429 L 276.975542 46.316029 L 276.518542 51.289529 L 276.064542 56.263329 L 275.616542 61.237729 L 275.167542 66.212029 L 274.815542 71.192928 L 274.578542 76.181828 L 274.342542 81.170728 L 274.839542 86.089229 L 276.020542 90.942128 L 277.201542 95.795029 L 279.181542 100.330629 L 281.655542 104.669629 L 284.128542 109.008629 L 286.759542 113.251628 L 289.464542 117.450629 L 292.169542 121.649629 L 294.873542 125.847628 L 297.578542 130.046628 L 300.283542 134.245629 L 302.988542 138.444628 L 305.692542 142.642629 L 308.397542 146.841629 L 311.639542 150.630629 L 314.973542 154.349628 L 318.307542 158.067629 L 322.860542 160.068628 L 327.472542 161.985628 L 332.093542 163.877629 L 336.914542 165.180629 L 341.735542 166.484629 L 346.557542 167.786629 L 351.380542 169.083629 L 356.203542 170.380629 L 361.040542 171.334629 L 365.948542 170.411629 L 370.857542 169.489629 L 375.679542 168.287629 L 380.251542 166.276628 L 384.822542 164.264629 L 389.347542 162.155629 L 393.769542 159.834629 L 398.192542 157.513629 L 401.585542 154.269629 L 403.413542 149.621629 L 405.241542 144.973628 L 406.468542 140.164628 L 407.211542 135.225628 L 407.953542 130.286629 L 408.512542 125.325629 L 408.955542 120.350628 L 409.397542 115.376628 L 408.702542 110.495628 L 407.448542 105.660629 L 406.193542 100.826628 L 404.614542 96.092428 L 402.925542 91.392128 L 401.237542 86.691728 L 399.474542 82.018929 L 397.693542 77.352728 L 395.912542 72.686628 L 393.414542 68.373029 L 390.803542 64.115429 L 388.192542 59.857829 L 384.779542 56.215029 L 381.345542 52.588828 L 377.910542 48.962929 L 374.467542 45.344729 L 371.024542 41.726529 L 367.554542 38.135928 L 363.814542 34.826329 L 360.073542 31.516828 L 356.180542 28.459629 L 351.512542 26.682928 L 346.844542 24.906129 L 342.132542 23.276129 L 337.264542 22.159129 L 332.396542 21.042229 L 327.502542 20.073729 L 322.546542 19.450928 L 317.591542 18.828229 L 312.631542 18.619629 L 307.666542 19.153728 L 302.700542 19.687829 L 298.223542 21.458129 L 294.237542 24.467828 L 290.252542 27.477429 L 286.332542 30.571229 L 282.464542 33.730928 L 278.596542 36.890628 L 275.279542 40.576428 L 272.303542 44.587328 L 269.326542 48.598228 L 268.070542 53.323228 L 267.330542 58.262628 L 266.590542 63.202028 L 266.057542 68.167129 L 265.563542 73.137129 L 265.070542 78.107229 L 265.439542 83.079329 L 265.909542 88.051728 L 266.378542 93.024129 L 267.949542 97.759328 L 269.568542 102.483628 L 271.312542 107.145629 L 274.143542 111.260628 L 276.974542 115.375629 L 279.806542 119.489628 L 282.647542 123.597628 L 285.487542 127.705629 L 288.328542 131.813628 L 291.168542 135.921628 L 294.009542 140.029629 L 296.871542 144.122628 L 299.793542 148.173629 L 302.714542 152.224628 L 306.134542 155.716629 L 310.493542 158.154629 L 314.852542 160.593628 L 319.292542 162.868628 L 323.853542 164.903628 L 328.414542 166.938628 L 333.092542 168.652628 L 337.896542 170.018629 L 342.700542 171.385628 L 347.504542 172.752629 L 352.308542 174.118628 L 357.112542 175.485628 L 361.928542 176.806628 L 366.753542 178.097629 L 371.578542 179.387629 L 376.410542 179.014629 L 381.245542 177.763629 L 386.080542 176.512629 L 390.309542 173.941629 L 394.409542 171.088628 L 398.508542 168.235628 L 402.217542 164.896628 L 405.884542 161.506629 L 409.552542 158.115629 L 411.042542 153.363629 L 412.484542 148.582628 L 413.788542 143.775629 L 414.072542 138.789628 L 414.357542 133.803629 L 414.624542 128.815629 L 414.808542 123.824629 L 414.992542 118.833629 L 415.019542 113.847628 L 414.548542 108.874629 L 414.076542 103.902629 L 413.166542 99.038629 L 411.271542 94.417629 L 409.376542 89.796729 L 407.481542 85.175729 L 405.586542 80.554728 L 403.691542 75.933729 L 401.708542 71.351028 L 399.605542 66.820729 L 397.503542 62.290329 L 395.108542 57.920628 L 392.402542 53.722729 L 389.696542 49.524929 L 386.483542 45.743729 L 382.890542 42.274329 L 379.297542 38.804828 L 375.659542 35.383929 L 371.993542 31.991529 L 368.327542 28.599229 L 364.662542 25.206829 L 360.996542 21.814429 L 357.330542 18.422028 L 353.453542 15.279228 L 349.504542 12.221729 L 345.555542 9.164278 L 340.739542 8.406668 L 335.754542 8.097659 L 330.769542 7.788648 L 325.799542 8.262259 L 320.830542 8.762148 L 315.866542 9.287868 L 311.110542 10.812828 L 306.354542 12.337729 L 301.745542 14.119729 L 298.028542 17.455329 L 294.310542 20.791028 L 290.629542 24.164829 L 287.078542 27.677629 L 283.528542 31.190428 L 280.324542 34.957329 L 278.043542 39.400529 L 275.762542 43.843629 L 274.988542 48.486928 L 276.030542 53.371429 L 277.072542 58.255929 L 278.273542 63.101629 L 279.613542 67.912829 L 280.954542 72.724129 L 282.353542 77.518529 L 283.792542 82.301129 L 285.231542 87.083729 L 286.852542 91.806028 L 288.571542 96.495328 L 290.290542 101.184629 L 292.009542 105.873628 L 293.728542 110.563629 L 295.448542 115.252629 L 298.468542 119.136629 L 301.896542 122.769628 L 305.323542 126.402629 L 308.921542 129.865629 L 312.554542 133.292629 L 316.187542 136.720629 L 319.846542 140.119629 L 323.509542 143.514629 L 327.172542 146.910629 L 330.894542 150.240629 L 334.620542 153.565629 L 338.346542 156.891628" fill="none" id="61" stroke="#bae0f9" stroke-width="0.5" /><path d="M 298.792542 2.501178 L 301.548542 1.741099 L 304.337542 1.118119 L 307.155542 0.645145 L 309.997542 0.359076 L 312.856542 0.320458 L 315.708542 0.518690 L 318.555542 0.782434 L 321.400542 1.074609 L 324.243542 1.373309 L 327.087542 1.672009 L 329.931542 1.970708 L 332.771542 2.297198 L 335.592542 2.748749 L 338.361542 3.431928 L 341.027542 4.465848 L 343.576542 5.760688 L 346.125542 7.056399 L 348.674542 8.352099 L 351.223542 9.647809 L 353.772542 10.943528 L 356.321542 12.239228 L 358.870542 13.534928 L 361.419542 14.830628 L 363.968542 16.126328 L 366.517542 17.422028 L 369.066542 18.717728 L 371.554542 20.125229 L 373.865542 21.786328 L 375.952542 23.736028 L 377.870542 25.856628" fill="none" id="62" stroke="#b76246" stroke-width="0.5" /></svg>