<?xml version="1.0" encoding="utf-8" ?>
<svg baseProfile="full" height="767.5" version="1.1" viewBox="0,0,823.5,767.5" width="823.5" xmlns="http://www.w3.org/2000/svg" xmlns:ev="http://www.w3.org/2001/xml-events" xmlns:xlink="http://www.w3.org/1999/xlink"><defs><style type="text/css"><![CDATA[
	.background { fill: white; }
	.line { stroke: firebrick; stroke-width: .1mm; }
	.blacksquare { fill: indigo; }
	.whitesquare { fill: white; }
]]></style></defs><rect class="background" height="100%" width="100%" x="0" y="0" /><path d="M 322.685095 574.074220 L 326.282963 572.453803 L 329.787527 570.525584 L 333.216493 568.466641 L 336.635677 566.390785 L 340.054861 564.314929 L 343.474046 562.239073 L 346.893230 560.163217 L 350.312415 558.087361 L 353.731599 556.011505 L 357.150784 553.935649 L 360.569968 551.859793 L 364.035022 549.861519 L 367.501786 547.866138 L 370.968551 545.870758 L 374.435315 543.875377 L 377.902080 541.879997 L 381.368844 539.884616 L 384.835609 537.889235 L 388.302373 535.893855 L 391.769138 533.898474 L 395.235902 531.903093 L 398.702667 529.907713 L 402.169431 527.912332 L 405.636196 525.916952 L 409.102960 523.921571 L 412.569725 521.926190 L 416.036489 519.930810 L 419.503254 517.935429 L 423.012601 516.015935 L 426.522072 514.096659 L 430.031542 512.177384 L 433.541012 510.258108 L 437.050482 508.338833 L 440.559953 506.419558 L 444.069423 504.500282 L 447.578893 502.581007 L 451.088364 500.661731 L 454.597834 498.742456 L 458.107304 496.823181 L 461.616775 494.903905 L 465.126245 492.984630 L 468.635715 491.065354 L 472.145186 489.146079 L 475.654656 487.226804 L 479.164126 485.307528 L 482.673597 483.388253 L 486.183067 481.468977 L 489.692537 479.549702 L 493.202008 477.630427 L 496.711478 475.711151 L 500.220948 473.791876 L 503.730419 471.872600 L 507.239889 469.953325 L 510.770715 468.073819 L 514.309147 466.208479 L 517.847580 464.343139 L 521.386013 462.477799 L 524.924446 460.612459 L 528.462879 458.747119 L 532.001312 456.881779 L 535.539744 455.016439 L 539.078177 453.151099 L 542.616610 451.285759 L 546.155043 449.420419 L 549.693476 447.555079 L 553.231908 445.689739 L 556.770341 443.824399 L 560.308774 441.959059 L 563.847207 440.093719 L 567.385640 438.228379 L 570.924073 436.363039 L 574.462505 434.497700 L 578.000938 432.632360 L 581.539371 430.767020 L 585.077804 428.901680 L 588.616237 427.036340 L 592.154670 425.171000 L 595.693102 423.305660 L 599.231535 421.440320 L 602.769968 419.574980 L 606.331455 417.754526 L 609.908881 415.965106 L 613.486306 414.175685 L 617.063732 412.386265 L 620.641158 410.596844 L 624.218583 408.807424 L 627.796009 407.018003 L 631.373434 405.228583 L 634.950860 403.439163 L 638.528286 401.649742 L 642.105711 399.860322 L 645.683137 398.070901 L 649.260563 396.281481 L 652.837988 394.492060 L 656.415414 392.702640 L 659.992840 390.913219 L 663.570265 389.123799 L 667.147691 387.334378 L 670.725117 385.544958 L 674.302542 383.755537 L 677.879968 381.966117 L 681.457394 380.176696 L 685.034819 378.387276 L 688.612245 376.597855 L 692.189671 374.808435 L 695.787787 373.061203 L 699.392835 371.328105 L 702.997883 369.595008 L 706.602932 367.861910 L 710.207980 366.128813 L 713.813028 364.395716 L 712.472760 364.766690 L 708.697757 366.079038 L 704.829147 367.095826 L 704.524945 366.757810" fill="none" id="1" stroke="black" stroke-width="0.5" /><path d="M 67.950725 411.179690 L 65.386006 410.874912 L 69.172425 409.599755 L 72.993616 408.417175 L 76.814808 407.234596 L 80.635999 406.052016 L 84.457191 404.869436 L 88.278383 403.686857 L 92.099574 402.504277 L 95.920766 401.321697 L 99.741957 400.139117 L 103.563149 398.956538 L 107.384341 397.773958 L 111.205532 396.591378 L 115.017230 395.380009 L 118.792322 394.057633 L 122.567414 392.735257 L 126.342507 391.412881 L 130.117599 390.090504 L 133.892691 388.768128 L 137.667783 387.445752 L 141.442876 386.123376 L 145.217968 384.801000 L 148.993060 383.478624 L 152.768152 382.156248 L 156.543245 380.833872 L 160.318337 379.511496 L 164.093429 378.189120 L 167.868521 376.866743 L 171.643614 375.544367 L 175.418706 374.221991 L 179.193798 372.899615 L 182.968890 371.577239 L 186.743983 370.254863 L 190.519075 368.932487 L 194.294167 367.610111 L 198.069259 366.287735 L 201.844352 364.965359 L 205.619444 363.642982 L 209.394536 362.320606 L 213.169628 360.998230 L 216.944721 359.675854 L 220.743694 358.424680 L 224.552682 357.203364 L 228.361670 355.982049 L 232.170657 354.760734 L 235.979645 353.539418 L 239.788633 352.318103 L 243.597621 351.096787 L 247.406609 349.875472 L 251.215597 348.654157 L 255.024585 347.432841 L 258.833573 346.211526 L 262.642561 344.990211 L 266.451548 343.768895 L 270.260536 342.547580 L 274.069524 341.326264 L 277.878512 340.104949 L 281.687500 338.883634 L 285.496488 337.662318 L 289.305476 336.441003 L 293.114464 335.219688 L 296.923452 333.998372 L 300.732439 332.777057 L 304.541427 331.555741 L 308.350415 330.334426 L 312.170150 329.147720 L 316.000951 327.996649 L 319.831752 326.845578 L 323.662553 325.694508 L 327.493354 324.543437 L 331.329589 323.410885 L 335.175005 322.309625 L 339.020421 321.208364 L 342.865838 320.107104 L 346.711254 319.005844 L 350.556670 317.904584 L 354.402086 316.803324 L 358.247503 315.702063 L 362.092919 314.600803 L 365.938335 313.499543 L 369.783751 312.398283 L 373.629167 311.297023 L 377.474584 310.195762 L 381.320000 309.094502 L 385.165416 307.993242 L 389.010832 306.891982 L 392.856249 305.790722 L 396.701665 304.689461 L 400.547081 303.588201 L 404.392497 302.486941 L 408.237913 301.385681 L 412.083330 300.284421 L 415.928746 299.183160 L 419.774162 298.081900 L 423.619578 296.980640 L 427.464995 295.879380 L 431.318717 294.807696 L 435.175242 293.745991 L 439.031766 292.684287 L 442.888291 291.622582 L 446.744816 290.560877 L 450.613176 289.543188 L 454.482110 288.527636 L 458.351045 287.512084 L 462.219979 286.496532 L 466.088914 285.480980 L 469.957848 284.465428 L 473.826783 283.449876 L 477.695717 282.434324 L 481.564652 281.418772 L 485.433586 280.403219 L 489.302521 279.387667 L 493.171455 278.372115 L 497.040389 277.356563 L 500.909324 276.341011 L 504.778258 275.325459 L 508.647193 274.309907 L 512.516127 273.294355 L 516.385062 272.278803 L 520.253996 271.263251 L 524.122931 270.247699 L 527.970835 269.156866 L 531.805929 268.020182 L 535.641023 266.883497 L 539.476117 265.746813 L 543.311212 264.610128 L 547.146306 263.473443 L 550.981400 262.336759 L 554.816495 261.200074 L 558.651589 260.063390 L 562.486683 258.926705 L 566.321777 257.790020 L 570.156872 256.653336 L 573.991966 255.516651 L 577.827060 254.379967 L 577.962445 254.339840" fill="none" id="2" stroke="black" stroke-width="0.5" /><path d="M 56.325725 419.199220 L 58.220196 417.706103 L 61.908105 416.157128 L 65.596015 414.608153 L 69.283924 413.059179 L 72.971834 411.510204 L 76.659744 409.961229 L 80.359697 408.441679 L 84.075298 406.960359 L 87.790899 405.479039 L 91.506500 403.997720 L 95.222101 402.516400 L 98.937703 401.035080 L 102.653304 399.553760 L 106.368905 398.072440 L 110.084506 396.591120 L 113.800107 395.109800 L 117.515708 393.628481 L 121.231309 392.147161 L 124.946910 390.665841 L 128.662511 389.184521 L 132.383086 387.716114 L 136.132378 386.322268 L 139.881671 384.928422 L 143.630963 383.534577 L 147.380256 382.140731 L 151.129548 380.746885 L 154.878841 379.353039 L 158.628133 377.959194 L 162.377426 376.565348 L 166.126718 375.171502 L 169.876011 373.777656 L 173.625303 372.383811 L 177.374595 370.989965 L 181.123888 369.596119 L 184.873180 368.202273 L 188.622473 366.808428 L 192.371765 365.414582 L 196.121058 364.020736 L 199.870350 362.626890 L 203.619643 361.233045 L 207.368935 359.839199 L 211.118228 358.445353 L 214.867520 357.051507 L 218.616813 355.657662 L 222.366105 354.263816 L 226.115398 352.869970 L 229.864690 351.476124 L 233.613982 350.082279 L 237.363275 348.688433 L 241.112567 347.294587 L 244.890127 345.981636 L 248.691570 344.737035 L 252.493012 343.492433 L 256.294455 342.247831 L 260.095898 341.003229 L 263.897340 339.758627 L 267.698783 338.514026 L 271.500226 337.269424 L 275.301668 336.024822 L 279.103111 334.780220 L 282.904554 333.535618 L 286.705996 332.291017 L 290.507439 331.046415 L 294.308882 329.801813 L 298.110324 328.557211 L 301.911767 327.312609 L 305.713210 326.068008 L 309.514652 324.823406 L 313.316095 323.578804 L 317.117538 322.334202 L 320.918980 321.089600 L 324.720423 319.844999 L 328.521866 318.600397 L 332.323308 317.355795 L 336.124751 316.111193 L 339.926194 314.866591 L 343.727636 313.621989 L 347.529079 312.377388 L 351.330522 311.132786 L 355.131964 309.888184 L 358.933407 308.643582 L 362.734850 307.398980 L 366.536292 306.154379 L 370.337735 304.909777 L 374.141644 303.672929 L 377.963390 302.492139 L 381.785135 301.311349 L 385.606880 300.130560 L 389.428625 298.949770 L 393.250370 297.768980 L 397.072227 296.588558 L 400.903833 295.440170 L 404.735439 294.291782 L 408.567045 293.143394 L 412.398651 291.995006 L 416.230257 290.846618 L 420.061864 289.698230 L 423.893470 288.549843 L 427.725076 287.401455 L 431.556682 286.253067 L 435.388288 285.104679 L 439.219894 283.956291 L 443.051500 282.807903 L 446.883106 281.659515 L 450.714712 280.511127 L 454.546318 279.362739 L 458.377924 278.214352 L 462.209531 277.065964 L 466.041137 275.917576 L 469.872743 274.769188 L 473.704349 273.620800 L 477.535955 272.472412 L 481.367561 271.324024 L 485.199167 270.175636 L 489.032132 269.031901 L 492.879697 267.938172 L 496.727262 266.844442 L 500.574827 265.750713 L 504.422392 264.656984 L 508.269957 263.563255 L 512.117521 262.469525 L 515.965086 261.375796 L 519.812651 260.282067 L 523.660216 259.188337 L 527.507781 258.094608 L 531.355346 257.000879 L 535.202911 255.907149 L 539.050476 254.813420 L 542.898041 253.719691 L 546.745606 252.625961 L 550.590846 251.524170 L 554.429814 250.400639 L 558.268782 249.277108 L 562.107751 248.153577 L 565.946719 247.030047 L 569.785688 245.906516 L 573.624656 244.782985 L 577.463624 243.659454 L 581.302593 242.535923 L 585.141561 241.412392 L 588.980530 240.288862 L 592.819498 239.165331 L 596.658467 238.041800 L 600.497435 236.918269 L 604.336403 235.794738 L 608.175372 234.671208 L 612.014340 233.547677 L 615.853309 232.424146 L 619.692277 231.300615 L 623.415565 230.210940" fill="none" id="3" stroke="black" stroke-width="0.5" /><path d="M 10.259315 378.515620 L 13.612232 380.696892 L 16.965149 382.878164 L 20.318066 385.059436 L 23.670983 387.240708 L 27.023900 389.421979 L 30.376817 391.603251 L 33.729734 393.784523 L 37.082651 395.965795 L 40.435568 398.147067 L 43.788485 400.328339 L 47.141403 402.509611 L 50.494320 404.690883 L 53.847237 406.872154 L 57.200154 409.053426 L 60.553071 411.234698 L 63.905988 413.415970 L 67.258905 415.597242 L 70.611822 417.778514 L 73.964739 419.959786 L 77.317656 422.141058 L 80.670573 424.322330 L 84.023490 426.503601 L 87.376408 428.684873 L 90.729325 430.866145 L 94.082242 433.047417 L 97.435159 435.228689 L 100.771510 437.435049 L 104.094389 439.661812 L 107.417268 441.888576 L 110.740147 444.115339 L 114.063026 446.342103 L 117.385905 448.568867 L 120.708784 450.795630 L 124.031662 453.022394 L 127.354541 455.249157 L 130.677420 457.475921 L 134.000299 459.702685 L 137.323178 461.929448 L 140.646057 464.156212 L 143.968936 466.382975 L 147.291814 468.609739 L 150.614693 470.836503 L 153.937572 473.063266 L 157.260451 475.290030 L 160.583330 477.516793 L 163.906209 479.743557 L 167.229088 481.970320 L 170.551966 484.197084 L 173.874845 486.423848 L 177.197724 488.650611 L 180.520603 490.877375 L 183.843482 493.104138 L 187.166361 495.330902 L 190.489240 497.557666 L 193.812118 499.784429 L 197.134997 502.011193 L 200.457876 504.237956 L 203.780755 506.464720 L 207.103634 508.691484 L 210.426513 510.918247 L 213.749392 513.145011 L 217.072270 515.371774 L 220.395149 517.598538 L 223.718028 519.825302 L 227.040907 522.052065 L 230.331665 524.325629 L 233.604293 526.625609 L 236.876921 528.925588 L 240.149549 531.225568 L 243.422177 533.525548 L 246.694805 535.825527 L 249.967433 538.125507 L 253.240061 540.425487 L 256.512688 542.725466 L 259.785316 545.025446 L 263.057944 547.325426 L 266.330572 549.625405 L 269.603200 551.925385 L 272.875828 554.225365 L 276.148456 556.525344 L 279.421084 558.825324 L 282.693712 561.125304 L 285.966340 563.425283 L 289.238968 565.725263 L 292.511596 568.025243 L 295.784223 570.325222 L 299.056851 572.625202 L 302.329479 574.925182 L 305.602107 577.225161 L 308.874735 579.525141 L 312.147363 581.825121 L 315.419991 584.125100 L 318.692619 586.425080 L 321.965247 588.725060 L 325.237875 591.025040 L 328.510503 593.325019 L 331.783131 595.624999 L 335.055758 597.924979 L 338.328386 600.224958 L 341.601014 602.524938 L 344.873642 604.824918 L 348.146270 607.124897 L 351.418898 609.424877 L 354.712444 611.694329 L 358.038722 613.916011 L 361.365001 616.137693 L 364.691279 618.359375 L 368.017558 620.581058 L 371.343836 622.802740 L 374.670115 625.024422 L 377.996393 627.246104 L 381.322672 629.467786 L 384.648950 631.689468 L 387.975229 633.911150 L 391.301507 636.132832 L 394.627786 638.354514 L 395.032755 638.625000" fill="none" id="4" stroke="black" stroke-width="0.5" /><path d="M 312.376505 303.460940 L 315.893270 305.366815 L 319.410036 307.272689 L 322.926802 309.178564 L 326.443568 311.084438 L 329.960334 312.990313 L 333.528808 314.796306 L 337.115186 316.567717 L 340.701563 318.339129 L 344.287940 320.110540 L 347.874317 321.881952 L 351.460694 323.653364 L 355.047071 325.424775 L 358.633448 327.196187 L 362.219825 328.967598 L 365.806203 330.739010 L 369.392580 332.510422 L 372.978957 334.281833 L 376.565334 336.053245 L 380.151711 337.824656 L 383.738088 339.596068 L 387.324465 341.367480 L 390.910843 343.138891 L 394.497220 344.910303 L 398.091580 346.665007 L 401.722919 348.342320 L 405.354257 350.019633 L 408.985596 351.696947 L 412.616935 353.374260 L 416.248273 355.051573 L 419.879612 356.728886 L 423.520456 358.385094 L 427.183193 359.992686 L 430.845930 361.600279 L 434.508668 363.207872 L 438.171405 364.815465 L 441.834143 366.423057 L 445.496880 368.030650 L 449.159617 369.638243 L 452.822355 371.245836 L 456.485092 372.853429 L 460.147830 374.461021 L 463.810567 376.068614 L 467.473305 377.676207 L 471.136042 379.283800 L 474.798779 380.891392 L 478.461517 382.498985 L 482.124254 384.106578 L 485.786992 385.714171 L 489.449729 387.321764 L 493.112467 388.929356 L 496.775204 390.536949 L 500.437941 392.144542 L 504.100679 393.752135 L 507.763416 395.359728 L 511.426154 396.967320 L 515.088891 398.574913 L 518.751629 400.182506 L 522.414366 401.790099 L 526.077103 403.397691 L 529.739841 405.005284 L 533.402578 406.612877 L 537.065316 408.220470 L 540.728053 409.828063 L 544.390791 411.435655 L 548.053528 413.043248 L 551.716265 414.650841 L 555.379003 416.258434 L 559.041740 417.866026 L 562.704478 419.473619 L 566.367215 421.081212 L 570.029953 422.688805 L 573.692690 424.296398 L 577.339413 425.939866 L 580.981708 427.593251 L 584.624004 429.246635 L 588.266300 430.900020 L 591.908596 432.553405 L 595.550892 434.206790 L 599.173348 435.903060 L 602.791527 437.608574 L 606.409706 439.314089 L 610.027885 441.019604 L 613.646064 442.725119 L 617.264243 444.430634 L 620.882422 446.136148 L 624.500601 447.841663 L 628.118780 449.547178 L 631.736959 451.252693 L 635.355138 452.958208 L 638.973317 454.663722 L 642.591495 456.369237 L 646.209674 458.074752 L 649.827853 459.780267 L 653.446032 461.485782 L 657.064211 463.191297 L 660.682390 464.896811 L 664.300569 466.602326 L 667.918748 468.307841 L 671.536927 470.013356 L 675.155106 471.718871 L 678.773285 473.424385 L 682.391464 475.129900 L 683.939005 475.859370" fill="none" id="5" stroke="black" stroke-width="0.5" /><path d="M 582.247595 369.496090 L 582.477663 373.489468 L 582.707732 377.482846 L 582.937801 381.476224 L 583.167870 385.469602 L 583.397938 389.462980 L 583.628007 393.456358 L 583.858076 397.449736 L 584.088145 401.443115 L 584.318213 405.436493 L 584.548282 409.429871 L 584.659543 413.427342 L 584.704843 417.427085 L 584.750142 421.426829 L 584.795442 425.426572 L 584.840742 429.426316 L 584.886042 433.426059 L 584.931342 437.425803 L 584.976641 441.425546 L 585.004410 445.425127 L 584.884829 449.423339 L 584.765249 453.421551 L 584.645669 457.419763 L 584.526088 461.417975 L 584.406508 465.416188 L 584.286927 469.414400 L 584.167347 473.412612 L 584.047767 477.410824 L 583.928186 481.409036 L 583.808606 485.407248 L 583.689025 489.405461 L 583.569445 493.403673 L 583.449865 497.401885 L 583.330284 501.400097 L 583.210704 505.398309 L 583.091123 509.396521 L 582.971543 513.394734 L 582.851963 517.392946 L 582.732382 521.391158 L 582.612802 525.389370 L 582.493222 529.387582 L 582.373641 533.385794 L 582.254061 537.384007 L 582.134480 541.382219 L 582.014900 545.380431 L 581.895320 549.378643 L 581.775739 553.376855 L 581.656159 557.375067 L 581.536578 561.373280 L 581.416998 565.371492 L 581.297418 569.369704 L 581.177837 573.367916 L 581.058257 577.366128 L 580.938676 581.364340 L 580.819096 585.362553 L 580.699516 589.360765 L 580.579935 593.358977 L 580.460355 597.357189 L 580.340775 601.355401 L 580.221194 605.353613 L 580.038612 609.348802 L 579.774792 613.340093 L 579.510973 617.331383 L 579.247153 621.322673 L 578.983333 625.313964 L 578.719513 629.305254 L 578.455693 633.296545 L 578.191873 637.287835 L 577.890158 641.276375 L 577.574948 645.263936 L 577.259739 649.251497 L 576.944529 653.239058 L 576.629319 657.226619 L 576.314109 661.214180 L 575.998899 665.201741 L 575.708535 668.875000" fill="none" id="6" stroke="black" stroke-width="0.5" /><path d="M 52.396035 320.792970 L 52.809969 324.771495 L 53.223903 328.750019 L 53.682361 332.722685 L 54.311714 336.672865 L 54.941066 340.623044 L 55.570418 344.573223 L 56.199771 348.523402 L 56.829123 352.473581 L 57.458476 356.423760 L 58.087828 360.373940 L 58.717181 364.324119 L 59.346533 368.274298 L 59.975885 372.224477 L 60.605238 376.174656 L 61.234590 380.124835 L 61.863943 384.075015 L 62.493295 388.025194 L 63.122648 391.975373 L 63.752000 395.925552 L 64.381353 399.875731 L 65.010705 403.825911 L 65.640057 407.776090 L 66.269410 411.726269 L 66.898762 415.676448 L 67.528115 419.626627 L 68.157467 423.576806 L 68.786820 427.526986 L 69.416172 431.477165 L 70.045524 435.427344 L 70.646555 439.381589 L 71.153851 443.349290 L 71.661147 447.316991 L 72.168443 451.284692 L 72.675739 455.252393 L 73.183035 459.220094 L 73.690331 463.187794 L 74.197627 467.155495 L 74.704923 471.123196 L 75.212219 475.090897 L 75.719515 479.058598 L 76.226811 483.026299 L 76.734106 486.994000 L 77.241402 490.961701 L 77.748698 494.929402 L 78.255994 498.897103 L 78.763290 502.864804 L 79.270586 506.832505 L 79.777882 510.800206 L 80.285178 514.767907 L 80.792474 518.735608 L 81.299770 522.703309 L 81.807066 526.671010 L 82.314362 530.638711 L 82.821658 534.606412 L 83.328953 538.574113 L 83.836249 542.541814 L 84.343545 546.509514 L 84.850841 550.477215 L 85.358137 554.444916 L 85.865433 558.412617 L 86.372729 562.380318 L 86.880025 566.348019 L 87.052285 567.695310" fill="none" id="7" stroke="black" stroke-width="0.5" /><path d="M 323.036665 502.339840 L 323.038967 506.339839 L 323.041269 510.339839 L 323.043571 514.339838 L 323.045874 518.339837 L 323.048176 522.339837 L 323.050478 526.339836 L 323.052780 530.339835 L 323.055083 534.339835 L 323.057385 538.339834 L 323.059687 542.339833 L 323.061989 546.339833 L 323.064292 550.339832 L 323.066594 554.339831 L 323.068896 558.339831 L 323.071199 562.339830 L 323.018043 566.339336 L 322.944626 570.338663 L 322.871210 574.337989 L 322.797793 578.337315 L 322.724377 582.336641 L 322.650960 586.335967 L 322.577543 590.335294 L 322.504127 594.334620 L 322.430710 598.333946 L 322.357294 602.333272 L 322.283877 606.332598 L 322.210461 610.331925 L 322.137044 614.331251 L 322.063628 618.330577 L 321.990211 622.329903 L 321.916794 626.329229 L 321.843378 630.328555 L 321.769961 634.327882 L 321.696545 638.327208 L 321.623128 642.326534 L 321.549712 646.325860 L 321.476295 650.325186 L 321.402878 654.324513 L 321.329462 658.323839 L 321.256045 662.323165 L 321.182629 666.322491 L 321.318804 670.318973 L 321.500729 674.314834 L 321.682654 678.310694 L 321.864579 682.306555 L 322.046504 686.302416 L 322.228429 690.298277 L 322.410354 694.294138 L 322.592279 698.289998 L 322.774204 702.285859 L 322.956129 706.281720 L 323.138054 710.277581 L 323.319979 714.273441 L 323.501904 718.269302 L 323.683829 722.265163 L 323.865754 726.261024 L 324.047679 730.256884 L 324.229604 734.252745 L 324.411529 738.248606 L 324.593454 742.244467 L 324.775379 746.240328 L 324.957304 750.236188 L 325.349306 754.215143 L 325.808731 758.188671 L 326.268155 762.162200 L 326.727580 766.135728 L 326.837445 767.085940" fill="none" id="8" stroke="black" stroke-width="0.5" /><path d="M 233.747595 750.046870 L 235.422493 747.928630 L 238.440581 745.309527 L 241.606573 742.865614 L 244.835474 740.504639 L 248.064375 738.143665 L 251.293275 735.782691 L 254.522176 733.421716 L 257.751077 731.060742 L 260.979978 728.699768 L 264.208879 726.338793 L 267.437779 723.977819 L 270.666680 721.616845 L 273.895581 719.255870 L 277.124482 716.894896 L 280.353382 714.533922 L 283.582283 712.172947 L 286.832672 709.842210 L 290.124272 707.569466 L 293.415873 705.296723 L 296.707474 703.023979 L 300.036872 700.807129 L 303.371961 698.598694 L 306.707049 696.390259 L 310.042138 694.181825 L 313.377226 691.973390 L 316.712315 689.764955 L 320.047404 687.556521 L 323.382492 685.348086 L 326.717581 683.139651 L 330.052670 680.931217 L 333.387758 678.722782 L 336.722847 676.514347 L 340.057936 674.305913 L 343.393024 672.097478 L 346.728113 669.889043 L 350.063201 667.680608 L 353.398290 665.472174 L 356.733379 663.263739 L 360.068467 661.055304 L 363.403556 658.846870 L 366.738645 656.638435 L 370.073733 654.430000 L 373.408822 652.221566 L 376.743911 650.013131 L 380.078999 647.804696 L 383.414088 645.596262 L 386.749176 643.387827 L 390.095136 641.196058 L 393.460342 639.033792 L 396.825547 636.871526 L 400.190752 634.709261 L 403.555958 632.546995 L 406.921163 630.384730 L 410.321407 628.278469 L 413.737781 626.197991 L 417.154155 624.117513 L 420.570529 622.037034 L 423.986902 619.956556 L 427.403276 617.876078 L 430.819650 615.795599 L 434.236024 613.715121 L 437.652398 611.634643 L 441.068771 609.554164 L 444.485145 607.473686 L 447.901519 605.393208 L 451.317893 603.312729 L 454.734266 601.232251 L 458.150640 599.151773 L 461.567014 597.071294 L 464.983388 594.990816 L 468.399762 592.910338 L 471.816135 590.829859 L 475.232509 588.749381 L 478.648883 586.668903 L 482.065257 584.588424 L 485.481631 582.507946 L 488.898004 580.427467 L 492.314378 578.346989 L 495.730752 576.266511 L 499.147126 574.186032 L 502.563499 572.105554 L 505.979873 570.025076 L 509.396247 567.944597 L 512.812621 565.864119 L 516.228995 563.783641 L 519.680049 561.761297 L 523.133740 559.743372 L 526.587430 557.725446 L 530.041120 555.707520 L 533.494810 553.689594 L 536.948500 551.671668 L 540.403292 549.655646 L 543.873903 547.666964 L 547.344514 545.678281 L 550.815125 543.689598 L 554.285736 541.700915 L 557.756347 539.712233 L 561.226958 537.723550 L 564.697569 535.734867 L 568.168180 533.746184 L 571.638791 531.757501 L 575.109402 529.768819 L 578.580013 527.780136 L 582.050624 525.791453 L 585.521235 523.802770 L 588.991846 521.814088 L 592.462457 519.825405 L 595.933068 517.836722 L 599.403679 515.848039 L 602.874290 513.859356 L 606.344901 511.870674 L 609.815512 509.881991 L 613.286123 507.893308 L 616.756734 505.904625 L 620.227345 503.915943 L 623.697956 501.927260 L 627.168567 499.938577 L 630.639178 497.949894 L 634.109789 495.961212 L 637.580400 493.972529 L 641.051011 491.983846 L 644.521622 489.995163 L 647.992233 488.006480 L 651.462844 486.017798 L 654.933455 484.029115 L 658.404066 482.040432 L 661.874677 480.051749 L 665.345288 478.063067 L 668.815899 476.074384 L 672.286510 474.085701 L 675.757121 472.097018 L 679.227732 470.108335 L 682.698343 468.119653 L 686.168954 466.130970 L 689.660146 464.178859 L 693.161165 462.244210 L 696.662184 460.309561 L 700.163203 458.374912 L 703.664222 456.440264 L 707.165241 454.505615 L 710.666260 452.570966 L 714.167279 450.636317 L 717.668298 448.701668 L 721.169317 446.767020 L 724.670336 444.832371 L 728.171355 442.897722 L 731.672374 440.963073 L 735.173393 439.028424 L 738.674412 437.093776 L 742.175431 435.159127 L 745.676450 433.224478 L 749.177469 431.289829 L 752.678488 429.355180 L 756.179507 427.420532 L 759.680526 425.485883 L 763.181545 423.551234 L 766.682564 421.616585 L 770.183583 419.681936 L 773.684602 417.747288 L 777.185621 415.812639 L 780.686640 413.877990 L 784.187659 411.943341 L 787.688678 410.008692 L 791.189697 408.074044 L 794.690716 406.139395 L 798.191735 404.204746 L 801.692754 402.270097 L 805.193773 400.335448 L 808.694792 398.400800 L 812.195811 396.466151 L 815.696830 394.531502 L 819.197849 392.596853 L 822.646035 390.691400" fill="none" id="9" stroke="black" stroke-width="0.5" /><path d="M 456.845255 472.574220 L 456.745235 476.572969 L 456.645215 480.571719 L 456.545196 484.570468 L 456.459216 488.569384 L 456.464320 492.569381 L 456.469424 496.569377 L 456.474528 500.569374 L 456.479633 504.569371 L 456.484737 508.569368 L 456.489841 512.569364 L 456.494945 516.569361 L 456.500049 520.569358 L 456.505153 524.569355 L 456.510257 528.569351 L 456.515361 532.569348 L 456.520465 536.569345 L 456.525569 540.569342 L 456.530673 544.569338 L 456.535777 548.569335 L 456.540881 552.569332 L 456.545985 556.569329 L 456.551089 560.569325 L 456.556193 564.569322 L 456.532297 568.569251 L 456.508394 572.569179 L 456.484490 576.569108 L 456.460587 580.569036 L 456.436684 584.568965 L 456.412780 588.568893 L 456.388877 592.568822 L 456.364974 596.568751 L 456.341070 600.568679 L 456.317167 604.568608 L 456.293264 608.568536 L 456.269360 612.568465 L 456.245457 616.568394 L 456.235875 618.171870" fill="none" id="10" stroke="black" stroke-width="0.5" /><path d="M 526.231975 434.855470 L 527.392125 431.393828 L 527.392125 435.393828 L 527.253596 439.391016 L 527.091260 443.387720 L 526.928923 447.384425 L 526.766587 451.381129 L 526.604250 455.377834 L 526.441914 459.374538 L 526.279577 463.371243 L 526.117241 467.367947 L 525.954904 471.364652 L 525.792568 475.361356 L 525.587396 479.356069 L 525.378268 483.350599 L 525.169141 487.345128 L 524.960013 491.339658 L 524.750886 495.334187 L 524.541758 499.328717 L 524.332631 503.323246 L 524.123503 507.317776 L 523.914376 511.312305 L 523.705248 515.306835 L 523.496121 519.301364 L 523.286993 523.295894 L 523.077866 527.290423 L 522.868738 531.284952 L 522.659611 535.279482 L 522.450483 539.274011 L 522.241356 543.268541 L 522.032228 547.263070 L 521.823101 551.257600 L 521.613973 555.252129 L 521.404846 559.246659 L 521.195718 563.241188 L 521.025435 567.237539 L 520.859799 571.234109 L 520.694163 575.230678 L 520.574671 579.228497 L 520.523576 583.228171 L 520.472481 587.227845 L 520.421387 591.227518 L 520.370292 595.227192 L 520.319197 599.226866 L 520.302285 600.550780" fill="none" id="11" stroke="black" stroke-width="0.5" /><path d="M 390.974165 511.906250 L 391.624822 512.517367 L 391.753389 516.515300 L 391.875768 520.513319 L 391.858380 524.513282 L 391.840993 528.513244 L 391.823606 532.513206 L 391.806219 536.513168 L 391.788832 540.513130 L 391.771445 544.513093 L 391.754058 548.513055 L 391.736671 552.513017 L 391.719284 556.512979 L 391.701897 560.512941 L 391.684510 564.512904 L 391.667123 568.512866 L 391.648808 572.512815 L 391.554086 576.511693 L 391.459363 580.510572 L 391.364640 584.509450 L 391.201140 588.505694 L 390.989680 592.500100 L 390.778220 596.494507 L 390.566759 600.488914 L 390.355299 604.483320 L 390.143839 608.477727 L 389.932379 612.472134 L 389.720918 616.466540 L 389.509458 620.460947 L 389.297998 624.455354 L 389.086538 628.449760 L 388.875077 632.444167 L 388.663617 636.438574 L 388.452157 640.432980 L 388.240697 644.427387 L 388.029236 648.421794 L 387.817776 652.416200 L 387.606316 656.410607 L 387.394856 660.405014 L 387.183395 664.399420 L 386.971935 668.393827 L 386.760475 672.388234 L 386.689005 673.738280" fill="none" id="12" stroke="black" stroke-width="0.5" /><path d="M 91.017125 509.039060 L 94.118805 511.564842 L 97.220486 514.090624 L 100.322167 516.616407 L 103.423848 519.142189 L 106.525529 521.667971 L 109.627210 524.193753 L 112.728891 526.719535 L 115.830572 529.245317 L 118.932253 531.771100 L 122.033934 534.296882 L 125.135614 536.822664 L 128.237295 539.348446 L 131.338976 541.874228 L 134.440657 544.400010 L 137.542338 546.925793 L 140.644019 549.451575 L 143.745700 551.977357 L 146.847381 554.503139 L 149.949062 557.028921 L 153.004633 559.608138 L 155.805269 562.446188 L 155.341345 562.640620" fill="none" id="13" stroke="black" stroke-width="0.5" /><path d="M 28.524945 459.820310 L 26.837441 456.193696 L 29.123862 457.742407 L 32.191866 460.308991 L 35.259871 462.875575 L 38.327875 465.442158 L 41.395879 468.008742 L 44.469150 470.568958 L 47.565227 473.101606 L 50.661304 475.634255 L 53.757381 478.166903 L 56.853458 480.699551 L 59.949535 483.232200 L 63.045612 485.764848 L 66.141688 488.297496 L 69.237765 490.830145 L 72.333842 493.362793 L 75.429919 495.895441 L 78.525996 498.428090 L 81.622073 500.960738 L 84.718150 503.493387 L 87.814227 506.026035 L 90.910304 508.558683 L 94.006381 511.091332 L 97.102458 513.623980 L 100.198535 516.156628 L 103.294611 518.689277 L 106.390688 521.221925 L 109.486765 523.754574 L 112.582842 526.287222 L 115.678919 528.819870 L 118.774996 531.352519 L 121.871073 533.885167 L 124.967150 536.417815 L 128.063227 538.950464 L 131.159304 541.483112 L 134.255381 544.015760 L 137.351457 546.548409 L 140.447534 549.081057 L 143.543611 551.613706 L 146.639688 554.146354 L 149.735765 556.679002 L 152.831842 559.211651 L 155.927919 561.744299 L 159.023996 564.276947 L 162.120073 566.809596 L 165.306638 569.223410 L 168.571490 571.534415 L 171.836341 573.845420 L 175.101193 576.156425 L 178.366044 578.467430 L 181.630896 580.778435 L 184.895747 583.089440 L 188.160599 585.400445 L 191.425451 587.711450 L 194.690302 590.022455 L 197.955154 592.333460 L 201.220005 594.644465 L 204.484857 596.955470 L 207.749709 599.266475 L 211.014560 601.577480 L 214.279412 603.888485 L 217.544263 606.199490 L 220.809115 608.510495 L 224.073967 610.821500 L 227.338818 613.132505 L 230.603670 615.443510 L 233.868521 617.754515 L 237.133373 620.065520 L 240.398225 622.376525 L 243.663076 624.687530 L 246.927928 626.998535 L 250.192779 629.309540 L 253.457631 631.620545 L 256.722483 633.931550 L 259.987334 636.242555 L 263.252186 638.553560 L 266.517037 640.864565 L 269.781889 643.175570 L 273.046741 645.486575 L 276.311592 647.797580 L 279.576444 650.108585 L 282.841295 652.419590 L 286.106147 654.730595 L 289.370999 657.041600 L 292.635850 659.352605 L 295.900702 661.663610 L 299.165553 663.974615 L 302.430405 666.285620 L 305.695257 668.596625 L 308.960108 670.907630 L 312.224960 673.218635 L 315.489811 675.529640 L 318.754663 677.840645 L 322.019515 680.151650 L 325.284366 682.462655 L 328.549218 684.773660 L 331.814069 687.084665 L 335.078921 689.395670 L 338.343773 691.706675 L 341.608624 694.017680 L 344.873476 696.328685 L 348.138327 698.639690 L 351.403179 700.950695 L 354.668031 703.261700 L 357.932882 705.572705 L 361.228783 707.839106 L 364.529566 710.098493 L 367.830349 712.357880 L 371.131133 714.617267 L 374.431916 716.876654 L 377.732699 719.136042 L 381.033482 721.395429 L 382.470255 722.378900" fill="none" id="14" stroke="black" stroke-width="0.5" /><path d="M 276.556195 595.625000 L 272.909697 597.269098 L 271.345665 598.165017 L 275.017284 596.583771 L 278.677662 594.970813 L 282.095255 593.464840" fill="none" id="15" stroke="black" stroke-width="0.5" /><path d="M 265.927285 616.625000 L 262.303186 618.317899 L 258.679087 620.010798 L 256.287092 621.266864 L 259.967496 619.742168 L 263.504709 617.874517 L 267.041923 616.006866 L 270.579136 614.139214 L 274.116349 612.271563 L 277.653563 610.403912 L 281.190776 608.536261 L 284.727990 606.668609 L 288.265203 604.800958 L 291.802309 602.933110 L 295.291855 600.977841 L 298.781400 599.022573 L 302.270945 597.067304 L 305.760490 595.112036 L 309.250035 593.156767 L 312.739580 591.201499 L 316.229125 589.246230 L 319.718670 587.290962 L 323.208215 585.335693 L 326.697760 583.380425 L 330.187305 581.425156 L 333.676851 579.469888 L 337.166396 577.514619 L 340.655941 575.559351 L 344.145486 573.604082 L 347.635031 571.648813 L 351.124576 569.693545 L 354.614121 567.738276 L 358.103666 565.783008 L 361.585578 563.814360 L 365.044333 561.805128 L 368.503088 559.795896 L 371.961843 557.786664 L 375.420598 555.777432 L 378.879353 553.768200 L 382.338108 551.758968 L 385.796863 549.749736 L 389.255618 547.740503 L 392.714373 545.731271 L 396.173128 543.722039 L 399.631883 541.712807 L 403.090638 539.703575 L 406.549393 537.694343 L 410.008148 535.685111 L 413.466903 533.675879 L 416.925658 531.666646 L 420.384413 529.657414 L 423.843168 527.648182 L 427.301923 525.638950 L 430.760678 523.629718 L 434.219433 521.620486 L 437.678188 519.611254 L 441.136943 517.602022 L 444.595698 515.592789 L 448.054453 513.583557 L 451.513208 511.574325 L 454.971963 509.565093 L 458.430718 507.555861 L 461.889473 505.546629 L 465.348228 503.537397 L 468.810007 501.533450 L 472.295215 499.570462 L 475.780423 497.607473 L 479.265631 495.644485 L 482.750840 493.681496 L 486.236048 491.718507 L 489.721256 489.755519 L 493.206464 487.792530 L 496.691672 485.829542 L 500.176880 483.866553 L 503.662089 481.903565 L 507.147297 479.940576 L 510.632505 477.977588 L 514.117713 476.014599 L 517.602921 474.051611 L 521.088130 472.088622 L 524.573338 470.125634 L 528.058546 468.162645 L 531.543754 466.199657 L 535.028962 464.236668 L 538.514170 462.273680 L 541.999379 460.310691 L 545.484587 458.347703 L 548.969795 456.384714 L 552.455003 454.421726 L 555.940211 452.458737 L 559.425420 450.495749 L 562.910628 448.532760 L 566.395836 446.569772 L 569.881044 444.606783 L 573.366252 442.643795 L 576.851460 440.680806 L 580.336669 438.717818 L 583.821877 436.754829 L 587.307085 434.791841 L 590.792293 432.828852 L 594.277501 430.865863 L 597.762710 428.902875 L 601.262278 426.965743 L 604.770735 425.044616 L 608.279193 423.123490 L 611.787650 421.202364 L 615.296107 419.281237 L 618.804565 417.360111 L 622.313022 415.438984 L 625.821480 413.517858 L 629.329937 411.596732 L 632.838394 409.675605 L 636.346852 407.754479 L 639.855309 405.833352 L 643.368977 403.921920 L 646.906734 402.055297 L 650.444490 400.188674 L 653.982246 398.322051 L 657.520003 396.455429 L 661.057759 394.588806 L 664.595515 392.722183 L 668.133271 390.855560 L 671.671028 388.988937 L 675.208784 387.122315 L 678.746540 385.255692 L 682.284296 383.389069 L 685.822053 381.522446 L 689.359809 379.655824 L 692.897565 377.789201 L 696.435322 375.922578 L 699.973078 374.055955 L 703.510834 372.189333 L 707.048590 370.322710 L 710.586347 368.456087 L 714.124103 366.589464 L 717.661859 364.722842 L 721.199616 362.856219 L 724.737372 360.989596 L 728.275128 359.122973 L 731.812884 357.256350 L 735.350641 355.389728 L 738.888397 353.523105 L 741.212445 352.296870" fill="none" id="16" stroke="black" stroke-width="0.5" /><path d="M 300.649945 601.777340 L 302.239075 599.754544 L 305.518367 597.464076 L 308.797660 595.173608 L 312.076952 592.883140 L 315.356244 590.592672 L 318.635536 588.302204 L 321.914828 586.011736 L 323.005415 585.250000" fill="none" id="17" stroke="black" stroke-width="0.5" /><path d="M 54.005415 423.804690 L 55.636397 420.501198 L 59.390736 419.121003 L 63.083860 417.590480 L 66.734390 415.955354 L 70.384919 414.320229 L 74.035449 412.685104 L 77.685978 411.049979 L 81.349467 409.444326 L 85.022066 407.859392 L 88.694665 406.274459 L 92.367265 404.689525 L 96.039864 403.104591 L 99.712463 401.519658 L 103.385062 399.934724 L 107.057662 398.349790 L 110.730261 396.764857 L 114.402860 395.179923 L 118.075459 393.594989 L 121.748059 392.010056 L 125.420658 390.425122 L 129.093257 388.840188 L 132.765856 387.255254 L 136.438456 385.670321 L 140.111055 384.085387 L 143.793227 382.523492 L 147.507641 381.039200 L 151.222056 379.554908 L 154.936471 378.070615 L 158.650885 376.586323 L 162.365300 375.102030 L 166.079714 373.617738 L 169.794129 372.133446 L 173.508544 370.649153 L 177.222958 369.164861 L 180.937373 367.680568 L 184.651788 366.196276 L 188.366202 364.711984 L 192.080617 363.227691 L 195.795032 361.743399 L 199.509446 360.259106 L 203.223861 358.774814 L 206.938275 357.290522 L 210.652690 355.806229 L 214.367105 354.321937 L 218.081519 352.837644 L 221.795934 351.353352 L 225.510349 349.869060 L 229.224763 348.384767 L 232.983139 347.016216 L 236.746329 345.660339 L 240.509518 344.304461 L 244.272708 342.948583 L 248.035898 341.592706 L 251.799087 340.236828 L 255.562277 338.880951 L 259.325466 337.525073 L 263.088656 336.169195 L 266.851846 334.813318 L 270.615035 333.457440 L 274.378225 332.101563 L 278.141414 330.745685 L 281.904604 329.389808 L 285.667794 328.033930 L 289.430983 326.678052 L 293.194173 325.322175 L 296.957362 323.966297 L 300.720552 322.610420 L 304.483742 321.254542 L 308.246931 319.898664 L 312.010121 318.542787 L 315.773310 317.186909 L 319.536500 315.831032 L 323.299690 314.475154 L 327.062879 313.119277 L 330.826069 311.763399 L 334.589258 310.407521 L 338.352448 309.051644 L 342.115638 307.695766 L 345.891326 306.376252 L 349.692910 305.132085 L 353.494495 303.887917 L 357.296080 302.643750 L 361.097665 301.399583 L 364.899250 300.155415 L 368.712557 298.947822 L 372.529093 297.750303 L 376.345629 296.552783 L 380.162165 295.355264 L 383.978701 294.157745 L 387.795238 292.960226 L 391.611774 291.762707 L 395.428310 290.565188 L 399.244846 289.367669 L 403.061382 288.170149 L 406.877918 286.972630 L 410.694454 285.775111 L 414.510990 284.577592 L 418.327526 283.380073 L 422.144063 282.182554 L 425.960599 280.985035 L 429.777135 279.787515 L 433.593671 278.589996 L 437.410207 277.392477 L 441.226743 276.194958 L 445.043279 274.997439 L 448.859815 273.799920 L 452.676352 272.602401 L 456.492888 271.404882 L 460.309424 270.207362 L 464.125960 269.009843 L 467.942496 267.812324 L 471.759032 266.614805 L 475.575568 265.417286 L 479.392104 264.219767 L 483.208640 263.022248 L 487.025177 261.824728 L 490.841713 260.627209 L 494.658249 259.429690 L 498.474234 258.230427 L 502.285882 257.017440 L 506.097530 255.804453 L 509.909178 254.591466 L 513.720827 253.378478 L 517.532475 252.165491 L 521.344123 250.952504 L 525.155771 249.739517 L 528.967420 248.526530 L 532.779068 247.313543 L 536.590716 246.100556 L 540.402364 244.887569 L 544.214013 243.674581 L 548.025661 242.461594 L 551.837309 241.248607 L 555.648957 240.035620 L 559.460605 238.822633 L 563.272254 237.609646 L 567.083902 236.396659 L 570.895550 235.183671 L 574.707198 233.970684 L 578.518847 232.757697 L 582.330495 231.544710 L 586.142143 230.331723 L 589.953791 229.118736 L 593.765439 227.905749 L 597.577088 226.692761 L 601.388736 225.479774 L 605.200384 224.266787 L 609.012032 223.053800 L 612.823681 221.840813 L 616.635329 220.627826 L 620.446977 219.414839 L 624.258625 218.201852 L 628.070274 216.988864 L 631.896774 215.824789 L 635.739299 214.713480 L 639.581823 213.602172 L 643.424347 212.490863 L 647.266872 211.379554 L 651.109396 210.268246 L 654.951920 209.156937 L 658.794445 208.045629 L 662.636969 206.934320 L 666.479493 205.823012 L 670.322018 204.711703 L 674.164542 203.600395 L 678.007067 202.489086 L 681.849591 201.377778 L 685.692115 200.266469 L 689.534640 199.155161 L 693.377164 198.043852 L 697.219688 196.932544 L 701.062213 195.821235 L 704.904737 194.709927 L 708.747261 193.598618 L 712.589786 192.487310 L 716.432310 191.376001 L 720.274834 190.264693 L 721.595255 189.882810" fill="none" id="18" stroke="black" stroke-width="0.5" /><path d="M 344.071815 502.015620 L 344.006539 498.016153 L 343.941264 494.016685 L 343.875989 490.017218 L 343.810714 486.017751 L 343.745438 482.018283 L 343.680163 478.018816 L 343.653845 474.019031 L 343.653845 470.019031 L 343.653845 466.019031 L 343.653845 462.019031 L 343.653845 458.019031 L 343.653845 454.019031 L 343.653845 450.019031 L 343.653845 446.019031 L 343.653845 442.019031 L 343.653845 438.019031 L 343.653845 434.019031 L 343.653845 430.019031 L 343.653845 426.019031 L 343.653845 422.019031 L 343.653845 418.019031 L 343.653845 414.019031 L 343.653845 410.019031 L 343.653845 406.019031 L 343.653845 402.019031 L 343.653845 398.019031 L 343.653845 394.019031 L 343.653845 390.019031 L 343.677111 386.019113 L 343.705403 382.019213 L 343.733694 378.019313 L 343.761986 374.019413 L 343.790277 370.019513 L 343.818569 366.019613 L 343.846860 362.019713 L 343.875152 358.019813 L 343.903443 354.019913 L 343.931735 350.020013 L 343.960026 346.020113 L 343.988318 342.020213 L 344.016609 338.020314 L 344.044901 334.020414 L 344.073192 330.020514 L 344.101483 326.020614 L 344.129775 322.020714 L 344.158066 318.020814 L 344.186358 314.020914 L 344.214649 310.021014 L 344.242941 306.021114 L 344.271232 302.021214 L 344.299524 298.021314 L 344.327815 294.021414 L 344.403107 290.022142 L 344.481610 286.022912 L 344.560113 282.023682 L 344.638616 278.024453 L 344.717118 274.025223 L 344.825248 270.026755 L 344.952178 266.028769 L 345.079109 262.030784 L 345.206039 258.032798 L 345.332969 254.034812 L 345.459899 250.036827 L 345.586829 246.038841 L 345.713760 242.040856 L 345.840690 238.042870 L 345.967620 234.044885 L 346.094550 230.046899 L 346.221480 226.048913 L 346.348411 222.050928 L 346.475341 218.052942 L 346.602271 214.054957 L 346.729201 210.056971 L 346.856131 206.058985 L 346.983062 202.061000 L 347.109992 198.063014 L 347.236922 194.065029 L 347.363852 190.067043 L 347.490782 186.069058 L 347.617713 182.071072 L 347.744643 178.073086 L 347.871573 174.075101 L 347.998503 170.077115 L 348.125433 166.079130 L 348.252364 162.081144 L 348.379294 158.083158 L 348.506224 154.085173 L 348.633154 150.087187 L 348.760084 146.089202 L 348.887015 142.091216 L 349.013945 138.093231 L 349.140875 134.095245 L 349.267805 130.097259 L 349.394735 126.099274 L 349.521666 122.101288 L 349.648596 118.103303 L 349.775526 114.105317 L 349.902456 110.107331 L 350.029386 106.109346 L 350.156317 102.111360 L 350.283247 98.113375 L 350.410177 94.115389 L 350.537107 90.117404 L 350.664037 86.119418 L 350.790968 82.121432 L 350.917898 78.123447 L 351.028845 74.628900" fill="none" id="19" stroke="black" stroke-width="0.5" /><path d="M 3.399945 65.031250 L 0.250000 65.065220 L 4.240987 64.796845 L 8.231973 64.528470 L 12.222960 64.260096 L 16.213947 63.991721 L 20.204934 63.723347 L 24.195920 63.454972 L 28.186907 63.186598 L 32.177894 62.918223 L 36.168881 62.649849 L 40.149970 62.270768 L 44.125267 61.826909 L 48.100564 61.383050 L 52.075862 60.939190 L 56.051159 60.495331 L 60.026456 60.051472 L 63.998153 59.577127 L 67.967473 59.082662 L 71.936794 58.588197 L 75.906114 58.093731 L 79.875434 57.599266 L 83.844755 57.104801 L 87.814075 56.610336 L 91.783396 56.115871 L 95.752716 55.621406 L 99.722036 55.126941 L 103.691357 54.632476 L 107.660677 54.138011 L 111.629998 53.643545 L 115.599318 53.149080 L 119.568638 52.654615 L 123.537959 52.160150 L 127.507279 51.665685 L 131.476599 51.171220 L 135.445920 50.676755 L 139.415240 50.182290 L 143.384561 49.687825 L 147.353881 49.193359 L 151.323201 48.698894 L 155.292522 48.204429 L 159.267972 47.762957 L 163.245354 47.338185 L 167.222736 46.913414 L 171.200119 46.488642 L 175.177501 46.063870 L 179.154883 45.639099 L 183.132265 45.214327 L 187.109647 44.789556 L 191.087029 44.364784 L 195.064412 43.940012 L 199.041794 43.515241 L 203.019176 43.090469 L 206.996558 42.665697 L 210.973940 42.240926 L 214.951323 41.816154 L 218.928705 41.391383 L 222.906087 40.966611 L 226.883469 40.541839 L 230.860851 40.117068 L 234.838234 39.692296 L 238.815616 39.267525 L 242.792998 38.842753 L 246.770380 38.417981 L 250.747762 37.993210 L 254.725145 37.568438 L 258.702527 37.143666 L 262.679909 36.718895 L 266.657291 36.294123 L 270.634673 35.869352 L 274.612055 35.444580 L 278.589438 35.019808 L 282.566820 34.595037 L 286.544202 34.170265 L 290.521584 33.745493 L 294.498966 33.320722 L 298.476349 32.895950 L 302.453731 32.471179 L 306.431113 32.046407 L 310.408495 31.621635 L 314.385877 31.196864 L 318.363260 30.772092 L 322.340642 30.347321 L 326.318024 29.922549 L 330.295406 29.497777 L 334.274004 29.085489 L 338.258606 28.734852 L 342.243208 28.384216 L 346.227810 28.033580 L 350.212413 27.682944 L 354.197015 27.332307 L 358.181617 26.981671 L 362.166219 26.631035 L 366.150821 26.280398 L 370.135423 25.929762 L 374.120025 25.579126 L 378.104627 25.228489 L 382.089230 24.877853 L 386.073832 24.527217 L 390.058434 24.176580 L 394.043036 23.825944 L 398.027638 23.475308 L 402.012240 23.124671 L 405.997099 22.777126 L 409.985059 22.467009 L 413.973019 22.156892 L 417.960980 21.846776 L 421.948940 21.536659 L 425.936900 21.226542 L 429.924861 20.916426 L 433.912821 20.606309 L 437.900781 20.296193 L 441.888742 19.986076 L 445.876702 19.675959 L 449.864662 19.365843 L 453.852623 19.055726 L 457.840583 18.745609 L 461.828543 18.435493 L 465.816504 18.125376 L 469.804464 17.815259 L 473.792424 17.505143 L 477.780385 17.195026 L 481.768345 16.884909 L 485.756305 16.574793 L 489.744266 16.264676 L 493.732226 15.954559 L 497.720186 15.644443 L 501.708147 15.334326 L 505.696107 15.024210 L 509.684067 14.714093 L 513.672028 14.403976 L 517.659988 14.093860 L 521.647948 13.783743 L 525.635909 13.473626 L 529.623869 13.163510 L 533.611829 12.853393 L 537.599790 12.543276 L 541.587750 12.233160 L 545.575710 11.923043 L 549.563671 11.612926 L 553.551631 11.302810 L 557.539591 10.992693 L 561.527552 10.682576 L 565.515512 10.372460 L 569.503472 10.062343 L 573.491433 9.752227 L 577.479393 9.442110 L 581.467353 9.131993 L 585.455314 8.821877 L 589.443274 8.511760 L 593.431234 8.201643 L 597.419535 7.896087 L 601.409326 7.610480 L 605.399117 7.324874 L 609.388907 7.039268 L 613.378698 6.753662 L 617.368488 6.468056 L 621.358279 6.182450 L 625.348070 5.896844 L 629.337860 5.611238 L 633.327651 5.325632 L 637.317441 5.040026 L 641.307232 4.754419 L 645.297023 4.468813 L 649.286813 4.183207 L 653.276604 3.897601 L 657.266395 3.611995 L 661.256185 3.326389 L 665.245976 3.040783 L 669.235766 2.755177 L 673.225557 2.469571 L 677.215348 2.183965 L 681.205138 1.898358 L 685.194929 1.612752 L 689.184719 1.327146 L 693.174510 1.041540 L 697.164301 0.755934 L 701.154091 0.470328 L 704.231975 0.250000" fill="none" id="20" stroke="black" stroke-width="0.5" /><path d="M 79.614785 535.871090 L 79.268362 531.886119 L 78.921939 527.901149 L 78.575517 523.916178 L 78.326805 519.925330 L 78.193095 515.927566 L 78.059386 511.929801 L 78.001505 510.199220" fill="none" id="21" stroke="black" stroke-width="0.5" /><path d="M 88.052285 599.972650 L 88.439127 603.953900 L 88.825969 607.935150 L 89.212811 611.916401 L 89.599653 615.897651 L 89.986495 619.878901 L 90.321133 623.864708 L 90.629868 627.852775 L 90.938603 631.840843 L 91.247338 635.828910 L 91.556074 639.816978 L 91.864809 643.805045 L 92.173544 647.793113 L 92.482279 651.781180 L 92.791014 655.769248 L 93.099750 659.757315 L 93.363368 663.748578 L 93.619809 667.740350 L 93.876250 671.732121 L 94.132691 675.723892 L 94.389131 679.715664 L 94.645572 683.707435 L 94.902013 687.699206 L 94.767781 684.130326 L 94.293225 680.158576 L 93.818670 676.186826 L 93.344115 672.215077 L 92.869559 668.243327 L 92.395004 664.271577 L 91.920448 660.299827 L 91.445893 656.328077 L 90.971337 652.356327 L 90.496782 648.384577 L 90.022227 644.412827 L 89.547671 640.441077 L 89.073116 636.469328 L 88.598560 632.497578 L 88.124005 628.525828 L 87.649450 624.554078 L 87.174894 620.582328 L 86.719758 616.608500 L 86.343099 612.626273 L 85.966439 608.644047 L 85.589780 604.661820 L 85.213121 600.679594 L 84.836462 596.697367 L 84.459802 592.715141 L 84.083143 588.732915 L 83.706484 584.750688 L 83.329824 580.768462 L 82.953165 576.786235 L 82.576506 572.804009 L 82.199847 568.821782 L 81.823187 564.839556 L 81.446528 560.857329 L 81.069869 556.875103 L 80.693209 552.892876 L 80.316550 548.910650 L 79.939891 544.928423 L 79.563232 540.946197 L 79.186572 536.963970 L 78.809913 532.981744 L 78.433254 528.999517 L 78.056594 525.017291 L 77.679935 521.035064 L 77.309665 517.052255 L 76.960090 513.067560 L 76.610515 509.082865 L 76.260941 505.098169 L 75.911366 501.113474 L 75.561792 497.128778 L 75.212217 493.144083 L 74.862642 489.159387 L 74.513068 485.174692 L 74.163493 481.189997 L 73.813918 477.205301 L 73.464344 473.220606 L 73.114769 469.235910 L 72.765194 465.251215 L 72.415620 461.266520 L 72.066045 457.281824 L 71.716470 453.297129 L 71.366896 449.312433 L 71.017321 445.327738 L 70.667746 441.343042 L 70.318172 437.358347 L 69.968597 433.373652 L 69.619022 429.388956 L 69.269448 425.404261 L 68.919873 421.419565 L 68.570299 417.434870 L 68.220724 413.450175 L 67.871149 409.465479 L 67.521575 405.480784 L 67.172000 401.496088 L 66.822425 397.511393 L 66.472851 393.526697 L 66.123276 389.542002 L 65.773701 385.557307 L 65.424127 381.572611 L 65.074552 377.587916 L 64.724977 373.603220 L 64.375403 369.618525 L 64.025828 365.633830 L 63.676253 361.649134 L 63.326679 357.664439 L 62.977104 353.679743 L 62.627529 349.695048 L 62.277955 345.710352 L 61.928380 341.725657 L 61.578806 337.740962 L 61.229231 333.756266 L 60.879656 329.771571 L 60.530082 325.786875 L 60.180507 321.802180 L 59.830932 317.817485 L 59.481358 313.832789 L 59.131783 309.848094 L 58.782208 305.863398 L 58.432634 301.878703 L 58.083059 297.894007 L 57.733484 293.909312 L 57.397423 289.923467 L 57.068661 285.937000 L 56.739899 281.950534 L 56.411137 277.964067 L 56.082375 273.977600 L 55.753613 269.991134 L 55.424851 266.004667 L 55.096089 262.018201 L 54.767327 258.031734 L 54.438566 254.045268 L 54.109804 250.058801 L 53.781042 246.072335 L 53.452280 242.085868 L 53.123518 238.099401 L 52.794756 234.112935 L 52.465994 230.126468 L 52.137232 226.140002 L 51.808470 222.153535 L 51.479709 218.167069 L 51.150947 214.180602 L 50.822185 210.194136 L 50.493423 206.207669 L 50.164661 202.221202 L 49.835899 198.234736 L 49.507137 194.248269 L 49.178375 190.261803 L 48.849613 186.275336 L 48.520852 182.288870 L 48.192090 178.302403 L 47.863328 174.315937 L 47.534566 170.329470 L 47.205804 166.343003 L 46.877042 162.356537 L 46.548280 158.370070 L 46.219518 154.383604 L 45.890756 150.397137 L 45.561994 146.410671 L 45.233233 142.424204 L 44.904471 138.437737 L 44.575709 134.451271 L 44.246947 130.464804 L 43.918185 126.478338 L 43.589423 122.491871 L 43.470255 121.046870" fill="none" id="22" stroke="black" stroke-width="0.5" /><path d="M 559.665565 226.121090 L 558.969095 230.059990 L 558.272625 233.998889 L 557.576155 237.937789 L 556.879685 241.876688 L 556.183215 245.815588 L 555.486745 249.754487 L 554.790275 253.693387 L 554.093805 257.632286 L 553.397335 261.571186 L 552.700865 265.510085 L 552.004395 269.448985 L 551.307925 273.387884 L 550.611455 277.326784 L 549.914985 281.265684 L 549.218515 285.204583 L 548.522045 289.143483 L 547.825575 293.082382 L 547.134850 297.022223 L 546.537503 300.977369 L 547.138225 300.660150" fill="none" id="23" stroke="black" stroke-width="0.5" /><path d="M 35.677285 65.578120 L 38.349368 68.554690 L 41.021452 71.531260 L 43.824447 74.384885 L 46.627613 77.238350 L 49.430779 80.091814 L 52.233946 82.945278 L 55.037112 85.798743 L 57.840278 88.652207 L 60.643444 91.505672 L 63.446610 94.359136 L 66.291368 97.170744 L 69.162591 99.955718 L 72.033814 102.740692 L 74.905036 105.525666 L 77.857308 108.224119 L 80.823646 110.907558 L 83.789983 113.590997 L 86.756320 116.274435 L 89.763672 118.911178 L 92.807367 121.506543 L 95.851062 124.101908 L 98.894757 126.697273 L 101.938452 129.292639 L 104.982148 131.888004 L 108.025843 134.483369 L 111.069538 137.078734 L 114.113233 139.674099 L 117.156928 142.269464 L 120.200623 144.864829 L 123.244319 147.460194 L 126.288014 150.055559 L 129.331709 152.650924 L 132.375404 155.246289 L 135.419099 157.841654 L 138.462794 160.437019 L 141.506490 163.032384 L 144.550185 165.627749 L 147.593880 168.223114 L 150.637575 170.818479 L 153.681270 173.413844 L 156.724965 176.009209 L 159.768661 178.604574 L 162.812356 181.199939 L 165.856051 183.795304 L 168.899746 186.390670 L 171.943441 188.986035 L 174.987136 191.581400 L 178.030832 194.176765 L 181.074527 196.772130 L 184.118222 199.367495 L 187.161917 201.962860 L 190.205612 204.558225 L 193.272557 207.125994 L 196.346881 209.685003 L 199.421206 212.244013 L 202.495530 214.803022 L 205.569855 217.362031 L 208.644180 219.921040 L 211.776600 222.408041 L 214.927828 224.871730 L 218.079056 227.335418 L 221.230284 229.799107 L 224.381511 232.262796 L 227.532739 234.726485 L 230.683967 237.190174 L 233.835195 239.653863 L 236.986423 242.117552 L 240.137651 244.581241 L 243.288878 247.044930 L 246.440106 249.508619 L 249.591334 251.972308 L 252.742562 254.435997 L 255.893790 256.899686 L 259.045018 259.363375 L 262.196245 261.827063 L 265.347473 264.290752 L 268.498701 266.754441 L 271.649929 269.218130 L 274.801157 271.681819 L 277.952385 274.145508 L 281.103612 276.609197 L 284.254840 279.072886 L 287.406068 281.536575 L 290.557296 284.000264 L 293.708524 286.463953 L 296.859752 288.927642 L 300.010979 291.391331 L 303.162207 293.855019 L 306.313435 296.318708 L 309.464663 298.782397 L 312.615891 301.246086 L 315.767119 303.709775 L 318.918347 306.173464 L 322.069574 308.637153 L 325.220802 311.100842 L 328.372030 313.564531 L 331.523258 316.028220 L 334.674486 318.491909 L 337.801456 320.986187 L 340.918352 323.493169 L 344.035248 326.000151 L 347.152144 328.507133 L 350.269041 331.014115 L 353.385937 333.521097 L 356.502833 336.028078 L 359.619729 338.535060 L 362.736625 341.042042 L 365.853521 343.549024 L 368.876505 345.980470" fill="none" id="24" stroke="black" stroke-width="0.5" /><path d="M 125.384315 228.890620 L 129.135742 230.278711 L 132.887168 231.666802 L 136.617804 233.108654 L 140.327025 234.605878 L 144.036245 236.103103 L 147.745466 237.600327 L 151.454687 239.097551 L 155.163908 240.594776 L 158.873129 242.092000 L 162.582350 243.589224 L 166.291570 245.086449 L 170.000791 246.583673 L 173.710012 248.080898 L 177.402726 249.617954 L 181.083701 251.183336 L 184.764677 252.748717 L 188.445653 254.314098 L 192.126628 255.879480 L 195.782500 257.502175 L 199.429010 259.146244 L 203.075520 260.790313 L 206.722031 262.434383 L 210.368541 264.078452 L 214.015051 265.722521 L 217.661561 267.366590 L 221.308071 269.010660 L 224.954581 270.654729 L 228.601092 272.298798 L 232.247602 273.942867 L 235.894112 275.586937 L 239.540622 277.231006 L 243.187132 278.875075 L 246.833642 280.519144 L 250.480152 282.163214 L 254.126663 283.807283 L 257.773173 285.451352 L 261.419683 287.095421 L 265.066193 288.739491 L 268.712703 290.383560 L 272.359213 292.027629 L 276.005724 293.671698 L 279.652234 295.315768 L 283.298744 296.959837 L 286.945254 298.603906 L 290.591764 300.247975 L 294.238274 301.892045 L 297.884784 303.536114 L 301.531295 305.180183 L 305.177805 306.824252 L 308.824315 308.468322 L 312.470825 310.112391 L 316.117335 311.756460 L 319.763845 313.400529 L 323.410355 315.044599 L 327.056866 316.688668 L 330.686427 318.369682 L 334.311135 320.061277 L 337.935843 321.752871 L 341.560551 323.444466 L 345.185259 325.136061 L 348.809967 326.827655 L 352.434675 328.519250 L 356.059383 330.210845 L 359.684091 331.902439 L 363.308799 333.594034 L 366.933507 335.285629 L 370.558215 336.977223 L 371.837445 337.574220" fill="none" id="25" stroke="black" stroke-width="0.5" /><path d="M 48.142125 180.316400 L 51.658979 182.222112 L 55.175833 184.127824 L 58.692686 186.033536 L 62.209540 187.939248 L 65.726394 189.844960 L 69.243248 191.750672 L 72.760102 193.656384 L 76.276956 195.562096 L 79.793810 197.467808 L 83.310664 199.373520 L 86.827518 201.279232 L 90.344372 203.184944 L 93.861226 205.090656 L 97.378080 206.996368 L 100.894934 208.902080 L 104.411788 210.807792 L 107.928642 212.713504 L 111.445496 214.619216 L 114.962350 216.524928 L 118.479204 218.430640 L 121.996058 220.336352 L 125.512912 222.242064 L 129.029766 224.147776 L 132.546620 226.053488 L 136.063474 227.959200 L 139.580327 229.864912 L 143.097181 231.770624 L 146.614035 233.676336 L 150.130889 235.582048 L 153.647743 237.487760 L 157.164597 239.393472 L 160.681451 241.299184 L 164.198305 243.204896 L 167.710619 245.118916 L 171.213742 247.049752 L 174.716865 248.980588 L 178.219988 250.911424 L 181.723112 252.842260 L 185.226235 254.773096 L 188.729358 256.703932 L 192.232481 258.634769 L 195.735604 260.565605 L 199.238727 262.496441 L 202.741850 264.427277 L 206.244974 266.358113 L 209.748097 268.288949 L 213.251220 270.219785 L 216.754343 272.150622 L 220.257466 274.081458 L 223.760589 276.012294 L 227.263713 277.943130 L 230.766836 279.873966 L 234.269959 281.804802 L 237.773082 283.735638 L 241.276205 285.666474 L 244.779328 287.597311 L 248.282451 289.528147 L 251.785575 291.458983 L 255.288698 293.389819 L 258.791821 295.320655 L 262.294944 297.251491 L 265.798067 299.182327 L 269.301190 301.113163 L 272.804314 303.044000 L 276.307437 304.974836 L 279.810560 306.905672 L 283.313683 308.836508 L 286.816806 310.767344 L 290.319929 312.698180 L 293.823052 314.629016 L 297.326176 316.559853 L 300.829299 318.490689 L 304.332422 320.421525 L 307.835545 322.352361 L 311.338668 324.283197 L 314.841791 326.214033 L 318.344915 328.144869 L 321.848038 330.075705 L 325.351161 332.006542 L 328.854284 333.937378 L 332.357407 335.868214 L 335.860530 337.799050 L 339.363653 339.729886 L 342.866777 341.660722 L 346.369900 343.591558 L 349.873023 345.522395 L 353.376146 347.453231 L 356.879269 349.384067 L 360.382392 351.314903 L 363.885516 353.245739 L 367.388639 355.176575 L 370.891762 357.107411 L 374.394885 359.038247 L 377.898008 360.969084 L 381.401131 362.899920 L 384.904254 364.830756 L 388.407378 366.761592 L 391.910501 368.692428 L 395.413624 370.623264 L 398.916747 372.554100 L 402.419870 374.484937 L 405.922993 376.415773 L 409.426117 378.346609 L 412.929240 380.277445 L 416.432363 382.208281 L 419.935486 384.139117 L 423.438609 386.069953 L 426.941732 388.000789 L 430.444855 389.931626 L 432.524945 391.078120" fill="none" id="26" stroke="black" stroke-width="0.5" /><path d="M 337.243695 341.117190 L 341.207135 341.656767 L 345.049897 342.733761 L 348.821204 344.054500 L 352.498339 345.628882 L 356.175474 347.203265 L 359.852608 348.777647 L 363.529743 350.352029 L 367.206878 351.926411 L 370.884013 353.500794 L 374.561148 355.075176 L 378.238283 356.649558 L 381.915417 358.223940 L 385.598440 359.783946 L 389.323638 361.240962 L 393.048837 362.697978 L 396.774036 364.154994 L 400.499234 365.612010 L 404.224433 367.069025 L 407.960516 368.497062 L 411.723776 369.852743 L 415.487037 371.208424 L 419.250297 372.564105 L 423.013558 373.919786 L 426.776818 375.275468 L 430.540078 376.631149 L 434.303339 377.986830 L 438.066599 379.342511 L 441.829860 380.698192 L 445.593120 382.053873 L 449.356380 383.409554 L 453.119641 384.765235 L 456.882901 386.120916 L 460.646161 387.476598 L 464.409422 388.832279 L 468.172682 390.187960 L 471.935943 391.543641 L 475.699203 392.899322 L 479.462463 394.255003 L 483.222888 395.618375 L 486.965354 397.030446 L 490.707821 398.442517 L 494.450287 399.854589 L 498.192754 401.266660 L 501.935220 402.678731 L 505.677687 404.090802 L 509.420153 405.502873 L 513.162620 406.914944 L 516.905086 408.327015 L 520.647553 409.739086 L 524.390019 411.151157 L 528.132486 412.563228 L 531.874952 413.975299 L 535.617419 415.387370 L 539.359885 416.799441 L 543.102351 418.211512 L 546.844818 419.623583 L 550.587284 421.035654 L 554.329751 422.447725 L 558.072217 423.859796 L 561.814684 425.271867 L 565.557150 426.683938 L 569.299617 428.096009 L 573.042083 429.508080 L 576.784550 430.920151 L 580.527016 432.332222 L 584.269483 433.744293 L 588.011949 435.156364 L 591.748370 436.583868 L 595.454117 438.089671 L 599.159863 439.595473 L 602.865610 441.101276 L 606.571357 442.607079 L 610.277103 444.112881 L 613.982850 445.618684 L 617.688597 447.124487 L 621.394343 448.630289 L 625.100090 450.136092 L 625.380415 450.250000" fill="none" id="27" stroke="black" stroke-width="0.5" /><path d="M 131.087445 193.234370 L 132.991560 189.716651 L 134.895675 186.198932 L 136.799789 182.681213 L 138.703904 179.163494 L 140.608019 175.645776 L 142.512134 172.128057 L 144.416249 168.610338 L 144.781458 167.270110 L 144.521035 167.558590" fill="none" id="28" stroke="black" stroke-width="0.5" /><path d="M 97.427285 244.191400 L 98.063048 241.255789 L 100.007418 237.760160 L 101.951789 234.264531 L 103.896160 230.768902 L 105.840531 227.273273 L 107.784902 223.777644 L 109.729272 220.282015 L 111.673643 216.786386 L 113.618014 213.290757 L 115.562385 209.795128 L 117.506756 206.299499 L 119.451127 202.803870 L 121.294218 199.253836 L 123.135255 195.702698 L 124.976293 192.151559 L 126.817330 188.600421 L 128.658367 185.049283 L 130.499404 181.498145 L 132.340441 177.947007 L 134.181479 174.395869 L 136.022516 170.844731 L 137.863553 167.293593 L 139.704590 163.742454 L 141.545627 160.191316 L 143.386665 156.640178 L 145.227702 153.089040 L 147.087865 149.548129 L 149.018852 146.045089 L 150.949839 142.542049 L 152.880827 139.039009 L 154.811814 135.535969 L 156.742801 132.032930 L 158.673788 128.529890 L 160.604776 125.026850 L 162.535763 121.523810 L 164.466750 118.020770 L 166.397737 114.517730 L 168.328725 111.014691 L 170.259712 107.511651 L 172.190699 104.008611 L 174.121687 100.505571 L 176.052674 97.002531 L 177.983661 93.499491 L 180.048627 90.073848 L 182.118530 86.651057 L 182.337445 86.289060" fill="none" id="29" stroke="black" stroke-width="0.5" /><path d="M 95.814005 253.984370 L 97.377934 250.302777 L 98.941864 246.621185 L 100.505794 242.939592 L 102.069724 239.258000 L 103.685078 235.599686 L 105.419403 231.995228 L 107.153728 228.390770 L 108.888053 224.786312 L 110.622378 221.181855 L 112.356703 217.577397 L 114.091028 213.972939 L 115.825353 210.368481 L 117.559678 206.764023 L 119.294003 203.159565 L 121.028328 199.555107 L 122.762653 195.950649 L 124.496978 192.346191 L 126.231302 188.741733 L 127.965627 185.137275 L 129.699952 181.532817 L 131.434277 177.928359 L 133.168602 174.323901 L 134.904611 170.720312 L 136.837551 167.218350 L 138.770491 163.716387 L 140.703432 160.214425 L 142.636372 156.712462 L 144.569312 153.210499 L 146.502252 149.708537 L 148.435193 146.206574 L 150.368133 142.704612 L 152.301073 139.202649 L 154.234013 135.700686 L 156.166953 132.198724 L 158.099894 128.696761 L 160.032834 125.194799 L 161.965774 121.692836 L 163.898714 118.190873 L 165.831655 114.688911 L 167.764595 111.186948 L 169.697535 107.684986 L 171.630475 104.183023 L 173.563416 100.681060 L 175.496356 97.179098 L 177.429296 93.677135 L 179.362236 90.175173 L 181.295176 86.673210 L 182.981975 83.617190" fill="none" id="30" stroke="black" stroke-width="0.5" /><path d="M 325.903845 390.273440 L 326.887468 386.396265 L 327.976005 382.550938 L 329.313686 378.781242 L 330.651368 375.011546 L 332.048368 371.263718 L 333.477629 367.527782 L 334.906890 363.791847 L 336.336152 360.055912 L 337.765413 356.319977 L 339.194674 352.584041 L 340.623935 348.848106 L 342.053197 345.112171 L 343.529733 341.395067 L 345.060671 337.699633 L 346.591609 334.004200 L 348.122546 330.308766 L 349.653484 326.613333 L 351.184422 322.917899 L 352.715360 319.222466 L 354.246298 315.527032 L 355.777236 311.831598 L 357.308174 308.136165 L 358.839111 304.440731 L 360.370049 300.745298 L 361.900987 297.049864 L 363.431925 293.354431 L 364.962863 289.658997 L 366.584393 286.002450 L 368.208758 282.347120 L 369.833124 278.691790 L 371.457489 275.036460 L 373.081854 271.381130 L 374.706219 267.725800 L 376.330584 264.070470 L 377.972523 260.423123 L 379.656748 256.794985 L 381.340973 253.166846 L 383.025198 249.538708 L 384.709422 245.910570 L 386.393647 242.282432 L 388.077872 238.654294 L 389.762097 235.026155 L 391.446321 231.398017 L 393.130546 227.769879 L 394.814771 224.141741 L 396.498996 220.513603 L 398.183221 216.885464 L 399.867445 213.257326 L 401.551670 209.629188 L 403.235895 206.001050 L 404.920120 202.372912 L 406.604345 198.744773 L 408.288569 195.116635 L 409.975835 191.489937 L 411.715491 187.888049 L 413.455148 184.286162 L 415.194805 180.684274 L 416.934462 177.082387 L 418.674119 173.480499 L 420.413776 169.878611 L 420.802285 169.074220" fill="none" id="31" stroke="black" stroke-width="0.5" /><path d="M 340.013225 262.554690 L 343.815356 263.797185 L 347.617488 265.039681 L 351.389078 266.365964 L 355.098897 267.861705 L 358.808716 269.357446 L 362.518535 270.853187 L 366.228355 272.348928 L 369.938174 273.844668 L 373.647993 275.340409 L 377.357812 276.836150 L 381.067632 278.331891 L 384.777451 279.827632 L 388.483222 281.333158 L 392.165250 282.896060 L 395.847279 284.458963 L 399.529308 286.021866 L 403.211336 287.584769 L 406.893365 289.147671 L 410.575393 290.710574 L 414.257422 292.273477 L 417.939451 293.836380 L 421.621479 295.399283 L 425.303508 296.962185 L 428.985537 298.525088 L 432.667565 300.087991 L 436.349594 301.650894 L 440.031623 303.213797 L 443.713651 304.776699 L 447.395680 306.339602 L 451.077708 307.902505 L 454.759737 309.465408 L 458.441766 311.028310 L 462.123794 312.591213 L 465.805823 314.154116 L 469.487852 315.717019 L 473.169880 317.279922 L 476.851909 318.842824 L 480.533938 320.405727 L 484.215966 321.968630 L 487.897995 323.531533 L 491.580023 325.094436 L 495.262052 326.657338 L 498.944081 328.220241 L 502.626109 329.783144 L 506.308138 331.346047 L 509.990167 332.908949 L 513.672195 334.471852 L 517.354224 336.034755 L 521.036253 337.597658 L 524.718281 339.160561 L 528.400310 340.723463 L 532.082338 342.286366 L 535.764367 343.849269 L 539.446396 345.412172 L 543.128424 346.975075 L 546.810453 348.537977 L 550.492482 350.100880 L 554.174510 351.663783 L 557.856539 353.226686 L 561.538568 354.789588 L 565.220596 356.352491 L 568.902625 357.915394 L 572.584653 359.478297 L 576.266682 361.041200 L 579.948711 362.604102 L 583.630739 364.167005 L 587.312768 365.729908 L 590.994797 367.292811 L 594.676825 368.855714 L 598.358854 370.418616 L 602.040883 371.981519 L 605.722911 373.544422 L 609.301182 375.324627 L 612.831410 377.205448 L 616.361638 379.086270 L 619.891866 380.967092 L 623.422094 382.847914 L 626.952322 384.728736 L 627.923375 385.246090" fill="none" id="32" stroke="black" stroke-width="0.5" /><path d="M 556.189005 502.015620 L 557.668255 498.299194 L 559.147505 494.582769 L 560.626755 490.866343 L 562.106006 487.149918 L 563.585256 483.433492 L 565.064506 479.717067 L 566.543757 476.000641 L 568.023007 472.284216 L 569.502257 468.567790 L 570.981508 464.851365 L 572.460758 461.134939 L 573.940008 457.418514 L 575.419258 453.702088 L 576.898509 449.985663 L 578.377759 446.269237 L 579.857009 442.552812 L 581.336260 438.836386 L 582.815510 435.119961 L 584.294760 431.403535 L 585.774011 427.687110 L 587.253261 423.970684 L 588.732511 420.254259 L 590.211761 416.537833 L 591.702356 412.826024 L 593.238493 409.132749 L 594.774631 405.439474 L 596.310769 401.746199 L 597.846907 398.052924 L 599.383045 394.359649 L 600.919182 390.666374 L 602.455320 386.973099 L 603.991458 383.279824 L 605.527596 379.586549 L 607.063733 375.893274 L 608.599871 372.199998 L 610.136009 368.506723 L 611.672147 364.813448 L 613.208284 361.120173 L 614.744422 357.426898 L 616.280560 353.733623 L 617.816698 350.040348 L 619.352835 346.347073 L 620.888973 342.653798 L 622.425111 338.960523 L 623.961249 335.267248 L 625.563882 331.602482 L 627.180000 327.943499 L 628.796118 324.284515 L 630.412237 320.625531 L 632.049599 316.976097 L 633.713259 313.338483 L 635.376919 309.700869 L 637.040580 306.063255 L 638.704240 302.425641 L 640.367900 298.788027 L 642.031560 295.150413 L 643.695220 291.512799 L 645.358880 287.875185 L 647.022540 284.237571 L 648.686201 280.599958 L 650.349861 276.962344 L 652.013521 273.324730 L 652.564005 272.121090" fill="none" id="33" stroke="black" stroke-width="0.5" /><path d="M 157.532755 163.726560 L 154.056601 161.747582 L 150.580447 159.768603 L 147.104294 157.789625 L 143.628140 155.810646 L 145.703666 157.695366 L 148.895049 160.100907 L 152.168927 162.399106 L 155.502105 164.598170 L 159.075431 166.395764 L 162.648756 168.193358 L 166.222082 169.990952 L 169.795408 171.788546 L 173.368733 173.586140 L 176.942059 175.383734 L 180.515384 177.181328 L 184.088710 178.978922 L 187.662036 180.776516 L 191.235361 182.574110 L 194.808687 184.371704 L 198.382012 186.169298 L 201.955338 187.966892 L 205.528664 189.764486 L 209.101989 191.562080 L 212.675315 193.359674 L 216.248640 195.157268 L 219.821966 196.954862 L 223.395291 198.752456 L 226.968617 200.550050 L 230.541943 202.347644 L 234.115268 204.145238 L 237.688594 205.942832 L 241.261919 207.740426 L 244.835245 209.538020 L 248.408571 211.335614 L 251.981896 213.133208 L 255.555222 214.930802 L 259.128547 216.728396 L 262.701873 218.525990 L 266.275199 220.323584 L 269.848524 222.121178 L 273.421850 223.918772 L 276.995175 225.716366 L 280.568501 227.513960 L 284.141827 229.311554 L 287.715152 231.109149 L 291.288478 232.906743 L 294.861803 234.704337 L 298.435129 236.501931 L 302.008454 238.299525 L 305.581780 240.097119 L 309.184425 241.833871 L 312.816914 243.508691 L 316.449403 245.183511 L 320.081892 246.858332 L 323.714381 248.533152 L 327.346870 250.207972 L 330.979359 251.882792 L 334.611849 253.557612 L 338.244338 255.232432 L 341.800243 257.061196 L 345.327239 258.948071 L 348.854235 260.834947 L 352.381232 262.721822 L 355.908228 264.608697 L 359.435224 266.495573 L 362.962220 268.382448 L 366.489216 270.269323 L 370.016212 272.156198 L 373.543208 274.043074 L 377.070204 275.929949 L 380.597201 277.816824 L 384.124197 279.703699 L 387.651193 281.590575 L 391.178189 283.477450 L 394.705185 285.364325 L 398.232181 287.251201 L 401.759177 289.138076 L 405.286174 291.024951 L 408.813170 292.911826 L 412.340166 294.798702 L 415.867162 296.685577 L 419.394158 298.572452 L 422.921154 300.459327 L 424.442915 301.273440" fill="none" id="34" stroke="black" stroke-width="0.5" /><path d="M 330.028845 385.699220 L 331.435528 381.954725 L 332.842211 378.210230 L 334.248894 374.465735 L 335.655577 370.721240 L 337.062260 366.976745 L 338.575947 363.274377 L 340.099516 359.575899 L 341.623085 355.877421 L 343.146654 352.178944 L 344.670223 348.480466 L 346.193793 344.781988 L 347.717362 341.083511 L 349.240931 337.385033 L 350.764500 333.686555 L 352.386072 330.030971 L 354.069335 326.402386 L 355.752598 322.773802 L 357.435861 319.145217 L 359.119124 315.516632 L 360.808710 311.891062 L 362.567606 308.298530 L 364.326503 304.705999 L 366.085400 301.113468 L 367.844297 297.520936 L 369.603193 293.928405 L 371.362090 290.335873 L 373.120987 286.743342 L 374.879884 283.150810 L 376.638781 279.558279 L 378.397677 275.965747 L 380.156574 272.373216 L 381.915471 268.780685 L 383.674368 265.188153 L 385.433264 261.595622 L 387.192161 258.003090 L 388.951058 254.410559 L 390.699324 250.812899 L 392.416363 247.200175 L 394.133402 243.587450 L 395.850441 239.974726 L 397.567480 236.362002 L 399.284519 232.749277 L 401.001558 229.136553 L 402.052285 226.925780" fill="none" id="35" stroke="black" stroke-width="0.5" /><path d="M 382.470255 369.914060 L 384.326797 366.371003 L 386.103821 362.789935 L 387.695241 359.120141 L 389.286662 355.450348 L 390.878082 351.780555 L 392.469502 348.110762 L 393.963741 344.401585 L 395.376182 340.659258 L 396.788624 336.916931 L 398.201065 333.174605 L 399.613507 329.432278 L 401.025948 325.689951 L 402.438390 321.947625 L 403.850832 318.205298 L 405.263273 314.462971 L 406.700537 310.730226 L 408.168867 307.009473 L 409.637197 303.288719 L 411.105526 299.567965 L 412.573856 295.847212 L 414.042185 292.126458 L 415.510515 288.405704 L 416.991759 284.690569 L 418.712936 281.079814 L 418.899945 280.687500" fill="none" id="36" stroke="black" stroke-width="0.5" /><path d="M 397.224165 337.125000 L 395.680325 340.815062 L 394.136485 344.505124 L 392.592645 348.195186 L 391.048806 351.885249 L 389.504966 355.575311 L 387.961126 359.265373 L 386.417286 362.955435 L 384.873446 366.645497 L 383.329607 370.335559 L 381.785767 374.025622 L 380.241927 377.715684 L 378.652705 381.385926 L 376.995110 385.026308 L 375.337515 388.666690 L 373.679921 392.307071 L 374.632597 388.975449 L 376.140542 385.270573 L 377.648488 381.565698 L 379.208080 377.882547 L 380.801720 374.213717 L 382.395359 370.544887 L 383.988998 366.876057 L 385.582637 363.207227 L 387.176276 359.538396 L 388.769915 355.869566 L 390.363554 352.200736 L 391.957193 348.531906 L 393.550832 344.863076 L 395.144471 341.194246 L 396.738110 337.525416 L 398.331750 333.856586 L 399.925389 330.187755 L 401.519028 326.518925 L 403.112667 322.850095 L 404.706306 319.181265 L 405.950725 316.316400" fill="none" id="37" stroke="black" stroke-width="0.5" /><path d="M 572.712445 369.851560 L 571.088098 373.506898 L 569.463752 377.162237 L 567.839406 380.817575 L 566.215060 384.472914 L 564.590714 388.128252 L 562.966367 391.783591 L 561.342021 395.438929 L 559.717675 399.094268 L 558.093329 402.749606 L 556.468982 406.404945 L 554.820566 410.049413 L 553.152351 413.684940 L 551.484135 417.320467 L 549.815919 420.955994 L 548.147704 424.591521 L 546.479488 428.227048 L 547.326613 426.531383 L 549.071850 422.932196 L 550.817086 419.333009 L 552.562323 415.733822 L 554.307560 412.134634 L 554.317915 412.113280" fill="none" id="38" stroke="black" stroke-width="0.5" /><path d="M 571.392125 369.011720 L 570.307215 372.861781 L 569.222306 376.711843 L 568.137397 380.561904 L 567.052488 384.411965 L 565.962263 388.260220 L 564.476700 391.974127 L 562.991136 395.688033 L 561.505573 399.401940 L 560.020010 403.115846 L 558.534447 406.829753 L 557.048884 410.543660 L 555.563321 414.257566 L 554.077758 417.971473 L 552.587458 421.683387 L 550.971190 425.342304 L 549.317742 428.984303 L 547.620730 432.606478 L 545.923718 436.228653 L 544.226706 439.850827 L 542.529695 443.473002 L 540.832683 447.095177 L 540.767088 446.898357 L 542.210950 443.168041 L 543.654812 439.437724 L 545.231114 435.762689 L 546.867802 432.112860 L 548.504490 428.463031 L 550.141178 424.813202 L 551.777865 421.163372 L 553.414553 417.513543 L 555.051241 413.863714 L 556.687929 410.213885 L 558.243536 406.529910 L 559.710971 402.808804 L 561.178405 399.087697 L 562.645840 395.366590 L 564.113274 391.645483 L 565.580709 387.924376 L 567.048143 384.203269 L 568.515578 380.482163 L 569.983012 376.761056 L 571.450447 373.039949 L 572.917881 369.318842 L 574.385316 365.597735 L 575.852750 361.876628 L 577.320185 358.155522 L 578.787619 354.434415 L 580.287927 350.726591 L 581.817447 347.030570 L 583.346966 343.334549 L 584.876485 339.638528 L 586.406005 335.942507 L 587.935524 332.246486 L 589.465044 328.550466 L 590.994563 324.854445 L 592.009315 322.402340" fill="none" id="39" stroke="black" stroke-width="0.5" /><path d="M 311.571815 295.117190 L 309.899333 298.750756 L 308.226851 302.384323 L 306.554369 306.017889 L 304.881888 309.651456 L 303.209406 313.285022 L 301.536924 316.918588 L 299.864442 320.552155 L 298.191961 324.185721 L 296.519479 327.819288 L 296.865094 326.920412 L 298.446419 323.246258 L 300.027745 319.572103 L 301.609070 315.897949 L 303.190395 312.223794 L 304.771720 308.549640 L 306.353045 304.875486 L 307.886462 301.181241 L 309.398724 297.478126 L 310.910985 293.775010 L 312.423246 290.071894 L 313.935507 286.368779 L 315.447768 282.665663 L 316.960030 278.962547 L 318.472291 275.259431 L 319.984552 271.556316 L 321.496813 267.853200 L 323.009075 264.150084 L 324.521336 260.446969 L 326.005370 256.732476 L 327.483610 253.015649 L 328.961851 249.298822 L 330.440092 245.581995 L 331.918333 241.865168 L 333.396573 238.148340 L 334.874814 234.431513 L 336.353055 230.714686 L 337.831296 226.997859 L 340.058930 223.719769 L 339.574840 225.607575 L 337.893850 229.237213 L 336.212859 232.866851 L 334.531869 236.496488 L 332.850878 240.126126 L 331.169887 243.755764 L 329.488897 247.385402 L 327.855177 251.036159 L 326.273146 254.710009 L 324.691114 258.383860 L 323.109083 262.057710 L 321.527052 265.731561 L 319.945021 269.405411 L 318.362989 273.079262 L 316.780958 276.753112 L 315.228887 280.439499 L 313.722950 284.145191 L 312.217012 287.850883 L 310.711075 291.556575 L 309.205138 295.262267 L 307.699200 298.967959 L 306.193263 302.673651 L 304.687325 306.379343 L 303.181388 310.085035 L 301.675451 313.790727 L 300.169513 317.496419 L 298.663576 321.202111 L 297.157639 324.907802 L 295.517181 328.555770 L 293.868985 332.200417 L 292.220789 335.845064 L 290.572594 339.489710 L 288.924398 343.134357 L 287.276202 346.779004 L 285.478065 350.136720" fill="none" id="40" stroke="black" stroke-width="0.5" /><path d="M 565.142125 422.742190 L 568.743240 424.483446 L 572.344355 426.224701 L 575.946027 427.964584 L 577.575725 428.507810" fill="none" id="41" stroke="black" stroke-width="0.5" /><path d="M 282.806195 655.957030 L 285.657955 653.213302 L 288.821798 650.765834 L 292.025315 648.373196 L 295.339359 646.133304 L 298.653402 643.893413 L 302.028860 641.748189 L 305.425050 639.634923 L 308.821240 637.521656 L 312.217429 635.408389 L 315.613619 633.295123 L 319.009809 631.181856 L 322.405998 629.068589 L 325.802188 626.955323 L 329.198378 624.842056 L 332.594567 622.728789 L 335.990757 620.615523 L 339.386946 618.502256 L 342.783136 616.388989 L 346.179326 614.275722 L 349.575515 612.162456 L 352.971705 610.049189 L 356.436546 608.050824 L 359.906808 606.061532 L 363.377070 604.072240 L 366.847332 602.082949 L 370.317594 600.093657 L 373.787855 598.104365 L 377.258117 596.115073 L 380.728379 594.125781 L 384.198641 592.136489 L 387.668903 590.147197 L 391.139165 588.157905 L 394.609427 586.168614 L 398.079689 584.179322 L 401.549951 582.190030 L 405.020213 580.200738 L 408.490475 578.211446 L 411.960737 576.222154 L 415.430999 574.232862 L 418.901261 572.243570 L 422.371522 570.254279 L 425.841784 568.264987 L 429.312046 566.275695 L 432.782308 564.286403 L 436.257914 562.306569 L 439.752489 560.360304 L 443.247065 558.414040 L 446.741640 556.467776 L 450.236215 554.521511 L 453.743241 552.598071 L 457.271396 550.713365 L 460.799552 548.828658 L 464.327707 546.943951 L 467.855863 545.059245 L 471.384018 543.174538 L 474.912174 541.289832 L 478.440329 539.405125 L 481.968485 537.520419 L 485.496640 535.635712 L 489.024796 533.751006 L 492.552951 531.866299 L 496.081107 529.981593 L 499.609262 528.096886 L 503.137418 526.212180 L 506.665573 524.327473 L 510.193729 522.442766 L 513.721884 520.558060 L 517.250040 518.673353 L 520.778195 516.788647 L 524.306351 514.903940 L 527.834506 513.019234 L 531.362662 511.134527 L 534.890817 509.249821 L 538.418973 507.365114 L 541.947128 505.480408 L 545.475284 503.595701 L 549.033110 501.767706 L 552.593150 499.943942 L 556.153190 498.120178 L 559.713230 496.296414 L 563.273270 494.472650 L 566.840353 492.662786 L 570.416443 490.870697 L 573.992532 489.078607 L 577.568621 487.286518 L 581.144711 485.494429 L 584.720800 483.702339 L 588.296890 481.910250 L 591.872979 480.118161 L 595.449069 478.326071 L 599.025158 476.533982 L 602.601248 474.741893 L 606.177337 472.949804 L 609.753427 471.157714 L 613.329516 469.365625 L 616.905606 467.573536 L 620.481695 465.781446 L 624.057785 463.989357 L 627.633874 462.197268 L 631.209964 460.405178 L 634.786053 458.613089 L 638.362143 456.821000 L 641.938232 455.028910 L 645.514321 453.236821 L 649.090411 451.444732 L 652.666500 449.652643 L 656.242590 447.860553 L 659.818679 446.068464 L 663.394769 444.276375 L 666.970858 442.484285 L 670.546948 440.692196 L 674.123037 438.900107 L 677.699127 437.108017 L 681.277812 435.321224 L 684.885136 433.592868 L 688.492459 431.864512 L 692.099783 430.136156 L 695.707107 428.407800 L 699.314431 426.679444 L 702.921755 424.951088 L 706.529079 423.222732 L 710.136403 421.494376 L 713.743727 419.766020 L 717.351051 418.037664 L 720.958374 416.309309 L 724.565698 414.580953 L 728.173022 412.852597 L 728.974165 412.468750" fill="none" id="42" stroke="black" stroke-width="0.5" /><path d="M 103.384315 480.015620 L 103.312552 484.014976 L 103.313487 488.012393 L 103.598419 492.002231 L 103.883351 495.992070 L 104.168282 499.981909 L 104.453214 503.971748 L 104.756760 507.959885 L 105.199912 511.935262 L 105.643063 515.910638 L 106.086214 519.886014 L 106.529365 523.861391 L 106.704625 525.433590" fill="none" id="43" stroke="black" stroke-width="0.5" /><path d="M 550.774945 503.207030 L 550.906915 507.204852 L 550.927546 511.200875 L 550.666435 515.192344 L 550.405324 519.183812 L 550.144213 523.175281 L 549.883102 527.166749 L 549.621992 531.158218 L 549.251124 535.140725 L 548.861299 539.121684 L 548.697806 538.809057 L 548.728683 534.809176 L 548.747595 532.359370" fill="none" id="44" stroke="black" stroke-width="0.5" /><path d="M 277.329625 561.414060 L 277.682757 565.398442 L 278.035890 569.382823 L 278.389022 573.367205 L 278.742155 577.351587 L 279.095288 581.335968 L 279.319044 585.329182 L 279.510657 589.324590 L 279.702270 593.319998 L 279.893883 597.315406 L 280.085495 601.310814 L 280.277108 605.306222 L 280.468721 609.301630 L 280.660333 613.297038 L 280.851946 617.292445 L 281.043559 621.287853 L 281.235171 625.283261 L 281.426784 629.278669 L 281.618397 633.274077 L 281.775204 637.270716 L 281.866250 641.269679 L 281.957295 645.268643 L 282.048341 649.267607 L 282.139386 653.266571 L 282.230432 657.265534 L 282.321477 661.264498 L 282.412523 665.263462 L 282.450725 666.941400" fill="none" id="45" stroke="black" stroke-width="0.5" /><path d="M 369.263225 555.648440 L 368.536414 559.581854 L 367.809603 563.515268 L 367.343583 567.481192 L 367.082496 571.472662 L 366.821408 575.464132 L 366.560320 579.455602 L 366.299233 583.447072 L 366.038145 587.438542 L 365.777057 591.430012 L 365.515970 595.421482 L 365.254882 599.412952 L 364.993794 603.404422 L 364.732707 607.395892 L 364.471619 611.387362 L 364.210531 615.378833 L 363.949444 619.370303 L 363.688356 623.361773 L 363.427268 627.353243 L 363.166181 631.344713 L 362.848117 635.331844 L 362.501796 639.316824 L 362.155476 643.301803 L 361.809155 647.286783 L 361.462835 651.271762 L 361.116514 655.256742 L 360.770194 659.241721 L 360.423873 663.226701 L 360.077553 667.211681 L 359.731232 671.196660 L 359.532755 673.480470" fill="none" id="46" stroke="black" stroke-width="0.5" /><path d="M 557.091345 444.195310 L 556.643987 448.170215 L 556.196629 452.145120 L 555.749272 456.120026 L 555.301914 460.094931 L 554.854556 464.069836 L 554.490754 468.052656 L 554.183826 472.040863 L 553.831475 476.025047 L 553.432791 480.005129 L 553.034108 483.985211 L 552.635424 487.965293 L 552.236741 491.945375 L 551.838057 495.925457 L 551.439374 499.905538 L 551.040691 503.885620 L 550.642007 507.865702 L 550.243324 511.845784 L 549.844640 515.825866 L 549.445957 519.805948 L 549.047273 523.786029 L 548.648590 527.766111 L 548.249906 531.746193 L 547.821616 535.723070 L 547.359282 539.696261 L 546.896947 543.669452 L 546.434612 547.642643 L 545.972277 551.615834 L 545.911665 552.136720" fill="none" id="47" stroke="black" stroke-width="0.5" /><path d="M 345.521035 648.484370 L 341.739189 649.787305 L 338.118793 651.383836 L 341.539268 650.715851 L 344.962334 648.646403 L 348.385401 646.576956 L 351.808468 644.507508 L 355.231535 642.438060 L 358.654602 640.368613 L 362.050512 638.256145 L 365.391091 636.056024 L 368.731670 633.855903 L 372.072249 631.655782 L 375.412828 629.455661 L 378.753407 627.255540 L 382.093986 625.055419 L 385.434565 622.855298 L 388.775144 620.655177 L 392.115723 618.455056 L 395.456302 616.254935 L 398.796881 614.054815 L 402.137460 611.854694 L 405.478039 609.654573 L 408.818618 607.454452 L 412.159197 605.254331 L 415.499776 603.054210 L 418.840355 600.854089 L 422.235767 598.740488 L 425.651382 596.658764 L 429.066997 594.577041 L 432.482612 592.495317 L 435.898228 590.413594 L 439.313843 588.331870 L 442.729458 586.250147 L 446.145073 584.168423 L 449.560688 582.086700 L 452.976304 580.004976 L 456.391919 577.923253 L 459.807534 575.841529 L 463.223149 573.759806 L 466.638764 571.678082 L 470.054380 569.596359 L 473.469995 567.514635 L 476.885610 565.432912 L 480.301225 563.351188 L 483.716841 561.269465 L 487.132456 559.187741 L 490.560945 557.127999 L 494.047395 555.167216 L 497.533845 553.206434 L 501.020295 551.245652 L 504.506745 549.284870 L 507.993195 547.324087 L 511.479645 545.363305 L 514.966094 543.402523 L 518.452544 541.441740 L 521.938994 539.480958 L 525.456526 537.576499 L 528.974127 535.672167 L 532.491728 533.767835 L 536.009329 531.863502 L 539.526930 529.959170 L 543.044532 528.054838 L 546.562133 526.150505 L 550.079734 524.246173 L 553.597335 522.341841 L 557.114937 520.437508 L 560.632538 518.533176 L 564.150139 516.628844 L 567.667740 514.724511 L 571.185341 512.820179 L 574.702943 510.915847 L 578.220544 509.011514 L 581.738145 507.107182 L 585.255746 505.202850 L 588.773347 503.298517 L 592.290949 501.394185 L 595.808550 499.489852 L 599.326151 497.585520 L 602.843752 495.681188 L 606.361354 493.776855 L 609.878955 491.872523 L 613.396556 489.968191 L 616.914157 488.063858 L 620.431758 486.159526 L 623.949360 484.255194 L 627.466961 482.350861 L 630.984562 480.446529 L 634.502163 478.542197 L 638.019765 476.637864 L 641.537366 474.733532 L 645.054967 472.829200 L 648.087445 471.187500" fill="none" id="48" stroke="black" stroke-width="0.5" /><path d="M 569.618695 435.820310 L 569.651164 431.820442 L 569.683634 427.820574 L 569.768143 431.459758 L 569.855104 435.458812 L 569.942065 439.457867 L 570.029026 443.456921 L 570.115987 447.455976 L 570.202948 451.455031 L 570.289909 455.454085 L 570.376870 459.453140 L 570.463831 463.452195 L 570.550792 467.451249 L 570.637753 471.450304 L 570.724715 475.449358 L 570.811676 479.448413 L 570.831545 483.446715 L 570.654890 487.442812 L 570.045973 491.395505 L 569.424606 495.346948 L 568.942915 498.410150" fill="none" id="49" stroke="black" stroke-width="0.5" /><path d="M 72.106975 481.109370 L 69.882169 480.200644 L 72.773569 482.886599 L 75.917407 485.359711 L 79.073274 487.817006 L 82.296274 490.186030 L 85.519273 492.555053 L 88.742273 494.924077 L 91.965273 497.293100 L 95.188273 499.662124 L 98.411273 502.031147 L 101.634272 504.400171 L 104.857272 506.769194 L 108.080272 509.138218 L 111.303272 511.507241 L 114.526272 513.876265 L 117.749271 516.245288 L 120.972271 518.614312 L 124.195271 520.983336 L 127.418271 523.352359 L 130.641270 525.721383 L 133.864270 528.090406 L 137.087270 530.459430 L 140.310270 532.828453 L 143.533270 535.197477 L 146.756269 537.566500 L 149.979269 539.935524 L 153.202269 542.304547 L 156.425269 544.673571 L 159.648269 547.042594 L 162.871268 549.411618 L 166.119606 551.745694 L 169.373227 554.072485 L 172.626847 556.399275 L 175.880467 558.726066 L 179.134088 561.052856 L 182.387708 563.379647 L 185.641329 565.706437 L 188.894949 568.033228 L 192.148569 570.360019 L 195.402190 572.686809 L 198.655810 575.013600 L 201.909430 577.340390 L 205.163051 579.667181 L 208.416671 581.993971 L 211.716151 584.255199 L 215.017685 586.513488 L 218.319219 588.771778 L 221.620753 591.030068 L 224.922287 593.288357 L 228.223821 595.546647 L 231.525355 597.804937 L 234.826890 600.063227 L 238.128424 602.321516 L 241.429958 604.579806 L 244.731492 606.838096 L 248.033026 609.096385 L 251.334560 611.354675 L 254.636094 613.612965 L 257.937629 615.871255 L 261.239163 618.129544 L 264.540697 620.387834 L 267.842231 622.646124 L 271.143765 624.904413 L 274.445299 627.162703 L 277.746833 629.420993 L 281.048367 631.679282 L 284.349902 633.937572 L 287.651436 636.195862 L 290.952970 638.454152 L 294.254504 640.712441 L 297.556038 642.970731 L 300.814005 645.199220" fill="none" id="50" stroke="black" stroke-width="0.5" /></svg>