<?xml version="1.0" encoding="utf-8" ?>
<svg baseProfile="full" height="489.5" version="1.1" viewBox="0,0,761.5,489.5" width="761.5" xmlns="http://www.w3.org/2000/svg" xmlns:ev="http://www.w3.org/2001/xml-events" xmlns:xlink="http://www.w3.org/1999/xlink"><defs><style type="text/css"><![CDATA[
	.background { fill: white; }
	.line { stroke: firebrick; stroke-width: .1mm; }
	.blacksquare { fill: indigo; }
	.whitesquare { fill: white; }
]]></style></defs><rect class="background" height="100%" width="100%" x="0" y="0" /><path d="M 254.815223 475.691040 L 255.907223 476.160040 L 256.998223 476.629040 L 258.104223 477.063040 L 259.209223 477.498040 L 260.333223 477.883040 L 261.457223 478.268040 L 262.594223 478.612040 L 263.731223 478.957040 L 264.870223 479.293040 L 266.009223 479.630040 L 267.146223 479.975040 L 268.282223 480.320040 L 269.409223 480.696040 L 270.536223 481.072040 L 271.650223 481.484040 L 272.764223 481.896040 L 273.865223 482.344040 L 274.964223 482.793040 L 276.050223 483.274040 L 277.136223 483.757040 L 278.199223 484.287040 L 279.261223 484.819040 L 280.309223 485.379040 L 281.356223 485.940040 L 282.431223 486.446040 L 283.507223 486.948040 L 284.628223 487.340040 L 285.751223 487.727040 L 286.897223 488.040040 L 288.043223 488.352040" fill="none" id="0" stroke="#c583d9" stroke-width="0.5" /><path d="M 471.004223 253.644040 L 471.057223 251.577040 L 471.109223 249.510040 L 471.161223 247.443040 L 471.214223 245.376040 L 471.266223 243.309040 L 471.319223 241.242040 L 471.371223 239.175040 L 471.424223 237.108040 L 471.476223 235.041040 L 471.529223 232.974040 L 471.581223 230.907040 L 471.634223 228.841040 L 471.686223 226.774040 L 471.739223 224.707040 L 471.791223 222.640040 L 471.844223 220.573040 L 471.896223 218.506040 L 471.949223 216.439040 L 472.001223 214.372040 L 472.054223 212.305040 L 472.106223 210.238040 L 472.159223 208.171040 L 472.211223 206.104040 L 472.264223 204.037040 L 472.316223 201.970040 L 472.369223 199.904040 L 472.421223 197.837040 L 472.474223 195.770040 L 472.526223 193.703040 L 472.579223 191.636040" fill="none" id="1" stroke="#9de993" stroke-width="0.5" /><path d="M 458.789223 64.536240 L 457.603223 69.335940 L 456.837223 74.219340 L 456.623223 79.153940 L 457.134223 84.072340 L 457.612223 88.994140 L 458.089223 93.915840 L 458.567223 98.837640 L 459.044223 103.759040 L 459.499223 108.683040 L 459.836223 113.617040 L 460.133223 118.553040 L 460.421223 123.489040 L 460.640223 128.429040 L 460.805223 133.371040 L 460.965223 138.314040 L 461.116223 143.256040 L 461.216223 148.200040 L 461.282223 153.145040 L 461.344223 158.089040 L 461.406223 163.034040 L 461.468223 167.978040 L 461.530223 172.923040 L 461.592223 177.867040 L 461.654223 182.812040 L 461.716223 187.756040 L 461.779223 192.701040 L 461.841223 197.645040 L 461.903223 202.590040 L 461.965223 207.534040 L 462.027223 212.479040 L 462.089223 217.423040 L 462.151223 222.368040 L 462.213223 227.312040 L 462.275223 232.257040 L 462.337223 237.201040 L 462.399223 242.146040 L 462.461223 247.090040 L 462.523223 252.035040 L 462.585223 256.979040 L 462.647223 261.924040 L 462.709223 266.868040 L 462.771223 271.813040 L 462.833223 276.757040 L 462.896223 281.702040 L 462.958223 286.647040 L 463.020223 291.591040 L 463.082223 296.536040 L 463.144223 301.480040 L 463.206223 306.425040 L 463.268223 311.369040 L 463.330223 316.314040 L 463.392223 321.258040 L 463.454223 326.203040 L 463.516223 331.147040 L 463.578223 336.092040 L 463.641223 341.036040 L 463.717223 345.980040 L 463.830223 350.924040 L 463.952223 355.868040 L 464.074223 360.811040 L 464.196223 365.754040 L 464.318223 370.698040 L 464.441223 375.641040 L 464.572223 380.584040 L 464.734223 385.526040 L 464.914223 390.468040 L 465.094223 395.410040 L 465.274223 400.351040 L 465.453223 405.293040 L 465.633223 410.235040 L 465.813223 415.176040 L 465.992223 420.118040 L 466.172223 425.060040 L 466.352223 430.001040 L 466.532223 434.943040" fill="none" id="2" stroke="#ad5ba7" stroke-width="0.5" /><path d="M 473.902223 151.077040 L 473.432223 148.183040 L 472.963223 145.290040 L 472.494223 142.397040 L 472.024223 139.503040 L 471.555223 136.610040 L 471.086223 133.717040 L 470.616223 130.824040 L 470.147223 127.930040 L 469.677223 125.037040 L 469.208223 122.144040 L 468.739223 119.250040 L 468.285223 116.354040 L 467.842223 113.457040 L 467.415223 110.557040 L 466.996223 107.656040 L 466.581223 104.754040 L 466.167223 101.853040 L 465.752223 98.951140 L 465.338223 96.049540 L 464.923223 93.147840 L 464.506223 90.246540 L 464.085223 87.345740 L 463.631223 84.450040 L 463.145223 81.559840 L 462.597223 78.680340 L 461.960223 75.819840 L 461.272223 72.970740 L 460.490223 70.146040 L 459.658223 67.335840 L 458.789223 64.536240" fill="none" id="3" stroke="#58f2c3" stroke-width="0.5" /><path d="M 129.698223 300.231040 L 131.632223 295.692040 L 133.211223 291.018040 L 134.323223 286.212040 L 135.018223 281.327040 L 135.629223 276.430040 L 136.088223 271.517040 L 136.503223 266.600040 L 136.890223 261.681040 L 137.199223 256.756040 L 137.482223 251.829040 L 137.766223 246.903040 L 138.049223 241.976040 L 138.333223 237.050040 L 138.616223 232.123040 L 138.896223 227.197040 L 139.137223 222.268040 L 139.265223 217.335040 L 139.394223 212.402040 L 139.523223 207.469040 L 139.651223 202.536040 L 139.772223 197.603040 L 139.822223 192.669040 L 139.823223 187.734040 L 139.823223 182.799040 L 139.823223 177.865040 L 139.823223 172.930040 L 139.820223 167.995040 L 139.762223 163.061040 L 139.628223 158.128040 L 139.490223 153.196040 L 139.352223 148.263040 L 139.214223 143.330040 L 139.076223 138.398040 L 138.938223 133.465040 L 138.800223 128.532040 L 138.662223 123.599040 L 138.524223 118.667040 L 138.387223 113.734040 L 138.273223 108.801040 L 138.239223 103.866040 L 138.226223 98.931740 L 138.215223 93.997140 L 138.204223 89.062440 L 138.192223 84.127840 L 138.181223 79.193240 L 138.170223 74.258640 L 138.160223 69.324040 L 138.219223 64.389740 L 138.324223 59.456240 L 138.436223 54.522840 L 138.548223 49.589540 L 138.660223 44.656140 L 138.772223 39.722840 L 138.883223 34.789440 L 138.995223 29.856040 L 139.107223 24.922740 L 139.164223 19.988440 L 139.187223 15.053840 L 139.206223 10.119240 L 139.218223 5.184620 L 139.224223 0.250000" fill="none" id="4" stroke="#c94e76" stroke-width="0.5" /><path d="M 129.618223 232.360040 L 129.523223 234.551040 L 129.428223 236.741040 L 129.333223 238.932040 L 129.238223 241.123040 L 129.144223 243.313040 L 129.049223 245.504040 L 128.954223 247.694040 L 128.859223 249.885040 L 128.764223 252.075040 L 128.669223 254.266040 L 128.581223 256.457040 L 128.497223 258.648040 L 128.437223 260.840040 L 128.393223 263.032040 L 128.364223 265.224040 L 128.348223 267.417040 L 128.332223 269.609040 L 128.318223 271.802040 L 128.304223 273.995040 L 128.290223 276.187040 L 128.278223 278.380040 L 128.272223 280.572040 L 128.276223 282.765040 L 128.309223 284.957040 L 128.363223 287.149040 L 128.499223 289.337040 L 128.647223 291.525040 L 128.873223 293.706040 L 129.104223 295.886040 L 129.401223 298.059040 L 129.698223 300.231040" fill="none" id="5" stroke="#57b870" stroke-width="0.5" /><path d="M 85.366423 429.274040 L 86.064923 428.721040 L 86.763423 428.169040 L 87.463223 427.619040 L 88.163023 427.068040 L 88.863223 426.518040 L 89.563323 425.968040 L 90.268123 425.424040 L 90.972923 424.880040 L 91.693323 424.357040 L 92.413623 423.833040 L 93.134023 423.310040 L 93.854323 422.787040 L 94.574723 422.263040 L 95.295023 421.740040 L 96.020323 421.224040 L 96.745723 420.707040 L 97.475923 420.198040 L 98.206223 419.689040 L 98.936423 419.179040 L 99.666623 418.670040 L 100.397223 418.160040 L 101.127223 417.651040 L 101.857223 417.141040 L 102.587223 416.632040 L 103.318223 416.123040 L 104.048223 415.613040 L 104.778223 415.104040 L 105.508223 414.594040 L 106.239223 414.085040 L 106.969223 413.576040" fill="none" id="6" stroke="#d271bb" stroke-width="0.5" /><path d="M 98.666823 419.760040 L 102.900223 417.160040 L 107.115223 414.532040 L 111.304223 411.862040 L 115.450223 409.127040 L 119.570223 406.352040 L 123.629223 403.487040 L 127.682223 400.616040 L 131.735223 397.743040 L 135.845223 394.954040 L 140.021223 392.268040 L 144.281223 389.712040 L 148.394223 386.929040 L 152.481223 384.104040 L 156.567223 381.280040 L 160.654223 378.456040 L 164.740223 375.631040 L 168.826223 372.807040 L 172.921223 369.994040 L 177.024223 367.193040 L 181.154223 364.434040 L 185.293223 361.686040 L 189.440223 358.952040 L 193.588223 356.219040 L 197.736223 353.485040 L 201.883223 350.751040 L 206.031223 348.017040 L 210.179223 345.284040 L 214.331223 342.556040 L 218.492223 339.843040 L 222.671223 337.158040 L 226.885223 334.528040 L 231.113223 331.920040 L 235.343223 329.317040 L 239.574223 326.713040 L 243.805223 324.110040 L 248.035223 321.506040 L 252.266223 318.903040 L 256.497223 316.299040 L 260.727223 313.696040 L 264.958223 311.092040 L 269.189223 308.489040 L 273.412223 305.874040 L 277.630223 303.250040 L 281.843223 300.618040 L 286.056223 297.985040 L 290.268223 295.353040 L 294.481223 292.720040 L 298.693223 290.087040 L 302.906223 287.454040 L 307.118223 284.821040 L 311.331223 282.189040 L 315.543223 279.556040 L 319.755223 276.923040 L 323.968223 274.290040 L 328.233223 271.744040 L 332.523223 269.241040 L 336.861223 266.820040 L 341.208223 264.415040 L 345.558223 262.017040 L 349.882223 259.571040 L 354.195223 257.107040 L 358.496223 254.621040 L 362.793223 252.128040 L 367.088223 249.634040 L 371.384223 247.140040 L 375.680223 244.645040 L 379.976223 242.151040 L 384.272223 239.656040 L 388.568223 237.162040 L 392.864223 234.668040 L 397.160223 232.173040 L 401.456223 229.680040 L 405.755223 227.190040 L 410.071223 224.731040 L 414.398223 222.291040 L 418.755223 219.905040 L 423.114223 217.523040 L 427.475223 215.144040 L 431.836223 212.766040 L 436.197223 210.387040 L 440.558223 208.008040 L 444.919223 205.629040 L 449.279223 203.250040 L 453.635223 200.863040 L 457.983223 198.460040 L 462.324223 196.045040 L 466.662223 193.624040 L 471.000223 191.203040 L 475.337223 188.782040 L 479.675223 186.361040 L 484.013223 183.940040 L 488.351223 181.520040 L 492.694223 179.109040 L 497.042223 176.706040 L 501.472223 174.458040 L 505.914223 172.236040 L 510.373223 170.047040 L 514.831223 167.855040 L 519.278223 165.641040 L 523.679223 163.339040 L 528.067223 161.010040 L 532.445223 158.662040 L 536.822223 156.313040 L 541.198223 153.963040 L 545.575223 151.613040 L 549.951223 149.263040 L 554.328223 146.913040 L 558.705223 144.563040 L 563.081223 142.213040 L 567.458223 139.863040 L 571.834223 137.513040 L 576.206223 135.155040 L 580.572223 132.784040 L 584.923223 130.387040 L 589.284223 128.010040 L 593.687223 125.709040 L 598.175223 123.585040 L 602.704223 121.546040 L 607.166223 119.361040 L 611.587223 117.099040 L 615.963223 114.747040 L 620.339223 112.396040 L 624.719223 110.053040 L 629.112223 107.734040 L 633.548223 105.499040 L 638.008223 103.311040 L 642.503223 101.198040 L 646.986223 99.057140 L 651.455223 96.888440 L 655.972223 94.820940 L 660.506223 92.792940 L 665.069223 90.828340 L 669.561223 88.711940 L 674.031223 86.544440 L 678.527223 84.431740 L 683.032223 82.339440 L 687.546223 80.265340 L 692.060223 78.191240 L 696.575223 76.120040 L 701.093223 74.054440 L 705.628223 72.027140 L 710.175223 70.027040 L 714.755223 68.104140 L 719.337223 66.184540 L 723.919223 64.267440 L 728.505223 62.356240 L 733.099223 60.467040 L 737.708223 58.614240 L 742.354223 56.857440 L 747.012223 55.130140 L 751.674223 53.414840 L 756.344223 51.722340 L 761.020223 50.045240" fill="none" id="7" stroke="#d271bb" stroke-width="0.5" /><path d="M 426.091223 119.423040 L 427.643223 118.364040 L 429.210223 117.326040 L 430.820223 116.357040 L 432.462223 115.444040 L 434.139223 114.594040 L 435.861223 113.845040 L 437.603223 113.138040 L 439.388223 112.552040 L 441.183223 111.997040 L 443.010223 111.553040 L 444.847223 111.160040 L 446.699223 110.841040 L 448.559223 110.571040 L 450.423223 110.329040 L 452.297223 110.193040 L 454.173223 110.085040 L 456.053223 110.075040 L 457.931223 110.110040 L 459.807223 110.229040 L 461.664223 110.496040 L 463.507223 110.865040 L 465.321223 111.352040 L 467.129223 111.868040 L 468.916223 112.449040 L 470.696223 113.053040 L 472.455223 113.714040 L 474.200223 114.413040 L 475.931223 115.145040 L 477.644223 115.920040 L 479.350223 116.707040" fill="none" id="8" stroke="#64e4ff" stroke-width="0.5" /><path d="M 453.020223 109.596040 L 456.996223 109.262040 L 460.985223 109.205040 L 464.969223 109.411040 L 468.879223 110.182040 L 472.749223 111.148040 L 476.592223 112.222040 L 480.340223 113.581040 L 484.044223 115.065040 L 487.688223 116.687040 L 491.277223 118.429040 L 494.774223 120.346040 L 498.156223 122.460040 L 501.373223 124.814040 L 504.454223 127.348040 L 507.369223 130.066040 L 510.045223 133.021040 L 512.445223 136.202040 L 514.509223 139.609040 L 516.132223 143.242040 L 517.182223 147.078040 L 517.611223 151.035040 L 517.440223 155.010040 L 516.739223 158.936040 L 515.753223 162.792040 L 514.137223 166.433040 L 512.045223 169.828040 L 509.670223 173.033040 L 507.110223 176.093040 L 504.469223 179.084040 L 501.744223 181.998040" fill="none" id="9" stroke="#64e4ff" stroke-width="0.5" /><path d="M 413.744223 220.644040 L 417.794223 220.572040 L 421.845223 220.576040 L 425.894223 220.719040 L 429.941223 220.883040 L 433.992223 220.936040 L 438.043223 220.961040 L 442.084223 220.681040 L 446.112223 220.251040 L 450.114223 219.621040 L 454.086223 218.830040 L 458.040223 217.949040 L 461.949223 216.887040 L 465.796223 215.616040 L 469.568223 214.139040 L 473.260223 212.473040 L 476.902223 210.699040 L 480.489223 208.816040 L 483.968223 206.741040 L 487.322223 204.469040 L 490.599223 202.087040 L 493.816223 199.625040 L 496.874223 196.969040 L 499.730223 194.096040 L 502.390223 191.041040 L 504.823223 187.802040 L 507.021223 184.399040 L 509.131223 180.942040 L 511.062223 177.380040 L 512.852223 173.746040 L 514.577223 170.081040 L 516.232223 166.384040" fill="none" id="10" stroke="#64e4ff" stroke-width="0.5" /><path d="M 266.280223 147.699040 L 270.829223 149.605040 L 275.478223 151.253040 L 280.228223 152.578040 L 285.075223 153.489040 L 289.963223 154.144040 L 294.867223 154.670040 L 299.787223 155.017040 L 304.717223 155.167040 L 309.648223 155.280040 L 314.580223 155.264040 L 319.503223 154.983040 L 324.405223 154.444040 L 329.283223 153.720040 L 334.156223 152.954040 L 339.012223 152.091040 L 343.846223 151.112040 L 348.642223 149.965040 L 353.423223 148.751040 L 358.203223 147.535040 L 362.953223 146.208040 L 367.666223 144.752040 L 372.336223 143.167040 L 376.977223 141.498040 L 381.612223 139.811040 L 386.222223 138.058040 L 390.788223 136.192040 L 395.330223 134.269040 L 399.872223 132.346040 L 404.415223 130.424040 L 408.957223 128.501040 L 413.499223 126.578040 L 418.041223 124.655040 L 422.584223 122.733040 L 427.126223 120.810040 L 431.642223 118.830040 L 436.089223 116.695040 L 440.517223 114.522040 L 444.941223 112.340040 L 449.335223 110.102040 L 453.665223 107.739040 L 457.992223 105.372040 L 462.319223 103.004040 L 466.646223 100.636040 L 470.973223 98.268140 L 475.300223 95.900240 L 479.625223 93.528440 L 483.915223 91.093640 L 488.167223 88.593540 L 492.390223 86.045240" fill="none" id="11" stroke="#e68e54" stroke-width="0.5" /><path d="M 490.784223 91.620040 L 487.107223 90.434840 L 483.297223 90.604240 L 479.870223 92.356840 L 476.861223 94.796040 L 473.889223 97.277640 L 471.028223 99.889040 L 468.213223 102.549040 L 465.407223 105.219040 L 462.602223 107.890040 L 459.797223 110.561040 L 456.992223 113.233040 L 454.187223 115.904040 L 451.382223 118.575040 L 448.577223 121.246040 L 445.772223 123.917040 L 442.967223 126.588040 L 440.163223 129.259040 L 437.367223 131.940040 L 434.602223 134.653040 L 431.876223 137.404040 L 429.170223 140.176040 L 426.469223 142.951040 L 423.767223 145.726040 L 421.065223 148.502040 L 418.374223 151.288040 L 415.727223 154.115040 L 413.147223 157.004040 L 410.615223 159.936040 L 408.155223 162.927040 L 405.744223 165.959040" fill="none" id="12" stroke="#54aeff" stroke-width="0.5" /><path d="M 262.122223 41.116140 L 264.534223 45.442540 L 266.668223 49.913040 L 268.382223 54.559840 L 269.770223 59.314540 L 271.148223 64.072540 L 272.525223 68.830640 L 273.903223 73.588640 L 275.281223 78.346740 L 276.671223 83.101140 L 278.124223 87.836440 L 279.608223 92.562340 L 281.178223 97.260140 L 282.766223 101.952040 L 284.397223 106.629040 L 286.192223 111.245040 L 288.092223 115.820040 L 290.079223 120.357040 L 292.205223 124.831040 L 294.421223 129.261040 L 296.742223 133.636040 L 299.271223 137.893040 L 302.006223 142.022040 L 304.943223 146.008040 L 308.114223 149.811040 L 311.552223 153.372040 L 315.200223 156.721040 L 318.983223 159.917040 L 322.932223 162.902040 L 327.118223 165.538040 L 331.545223 167.748040 L 336.129223 169.620040 L 340.809223 171.235040 L 345.590223 172.516040 L 350.456223 173.424040 L 355.375223 173.972040 L 360.322223 174.206040 L 365.275223 174.234040 L 370.217223 173.981040 L 375.123223 173.322040 L 379.973223 172.324040 L 384.756223 171.046040 L 389.453223 169.479040 L 394.063223 167.668040 L 398.591223 165.662040 L 403.040223 163.485040 L 407.408223 161.150040 L 411.689223 158.660040 L 415.877223 156.016040 L 419.993223 153.260040 L 424.018223 150.373040 L 427.964223 147.381040 L 431.784223 144.227040 L 435.535223 140.992040 L 439.276223 137.745040 L 442.999223 134.478040 L 446.655223 131.136040 L 450.268223 127.747040 L 453.793223 124.267040 L 457.297223 120.766040 L 460.800223 117.263040 L 464.295223 113.754040" fill="none" id="13" stroke="#eed973" stroke-width="0.5" /><path d="M 473.204223 101.716040 L 471.924223 103.443040 L 470.633223 105.161040 L 469.325223 106.867040 L 467.980223 108.543040 L 466.622223 110.210040 L 465.251223 111.866040 L 463.870223 113.513040 L 462.481223 115.152040 L 461.056223 116.762040 L 459.623223 118.365040 L 458.184223 119.961040 L 456.743223 121.556040 L 455.303223 123.152040 L 453.862223 124.747040 L 452.422223 126.342040 L 450.982223 127.938040 L 449.541223 129.533040 L 448.101223 131.129040 L 446.660223 132.724040 L 445.220223 134.319040 L 443.779223 135.915040 L 442.339223 137.510040 L 440.898223 139.106040 L 439.458223 140.701040 L 438.017223 142.297040 L 436.577223 143.892040 L 435.136223 145.487040 L 433.696223 147.083040 L 432.256223 148.678040 L 430.815223 150.274040" fill="none" id="14" stroke="#eed973" stroke-width="0.5" /><path d="M 93.618423 379.171040 L 89.033823 377.321040 L 84.487023 375.379040 L 79.997623 373.308040 L 75.589723 371.069040 L 71.276123 368.654040 L 67.097123 366.012040 L 62.926823 363.356040 L 58.895523 360.494040 L 54.930623 357.541040 L 51.043523 354.486040 L 47.305523 351.250040 L 43.701523 347.865040 L 40.268723 344.307040 L 36.983923 340.612040 L 33.831923 336.804040 L 30.873123 332.843040 L 28.039123 328.792040 L 25.225823 324.726040 L 22.504123 320.599040 L 19.939023 316.372040 L 17.539423 312.050040 L 15.281323 307.651040 L 13.195323 303.169040 L 11.242023 298.627040 L 9.470823 294.011040 L 7.849683 289.341040 L 6.392333 284.616040 L 5.086703 279.848040 L 3.903123 275.048040 L 2.921813 270.202040 L 2.063313 265.333040 L 1.401363 260.434040 L 0.887886 255.517040 L 0.526485 250.586040 L 0.346262 245.645040 L 0.250000 240.702040 L 0.268877 235.758040 L 0.365480 230.815040 L 0.614832 225.877040 L 1.099795 220.957040 L 1.706703 216.051040 L 2.445813 211.162040 L 3.333473 206.298040 L 4.275803 201.445040 L 5.366033 196.623040 L 6.607443 191.837040 L 7.891233 187.063040 L 9.316913 182.329040 L 10.869123 177.635040 L 12.474823 172.959040 L 14.188923 168.322040 L 15.992423 163.718040 L 17.842523 159.133040 L 19.805423 154.596040 L 21.862023 150.100040 L 23.961323 145.624040 L 26.173323 141.202040 L 28.455623 136.817040 L 30.787623 132.457040 L 33.222423 128.154040 L 35.709823 123.882040 L 38.273223 119.654040 L 40.955423 115.501040 L 43.677723 111.374040 L 46.484623 107.304040 L 49.369123 103.289040 L 52.304723 99.310540 L 55.344723 95.411640 L 58.440423 91.556840 L 61.637023 87.785240 L 64.937823 84.104440 L 68.292423 80.472740 L 71.772623 76.961140 L 75.311123 73.508340 L 78.988423 70.203740 L 82.751123 66.996640 L 86.599523 63.893040 L 90.527923 60.891140 L 94.503523 57.952240 L 98.543423 55.102240 L 102.610223 52.290740 L 106.753223 49.592940 L 110.917223 46.927840 L 115.076223 44.254640 L 119.224223 41.564940" fill="none" id="15" stroke="#008bd4" stroke-width="0.5" /><path d="M 78.563323 372.652040 L 83.118323 374.613040 L 87.787423 376.283040 L 92.526423 377.744040 L 97.288923 379.127040 L 102.165223 380.019040 L 107.100223 380.494040 L 112.055223 380.643040 L 117.015223 380.647040 L 121.937223 380.094040 L 126.806223 379.159040 L 131.624223 377.991040 L 136.416223 376.713040 L 141.161223 375.272040 L 145.878223 373.742040 L 150.571223 372.141040 L 155.221223 370.417040 L 159.850223 368.639040 L 164.451223 366.789040 L 169.001223 364.816040 L 173.519223 362.773040 L 178.016223 360.682040 L 182.465223 358.493040 L 186.858223 356.192040 L 191.203223 353.802040 L 195.524223 351.368040 L 199.837223 348.921040 L 204.126223 346.431040 L 208.375223 343.874040 L 212.589223 341.260040 L 216.770223 338.593040 L 220.910223 335.863040 L 225.004223 333.065040 L 229.072223 330.228040 L 233.135223 327.385040 L 237.168223 324.498040 L 241.108223 321.488040 L 244.958223 318.362040 L 248.802223 315.230040 L 252.637223 312.085040 L 256.420223 308.879040 L 260.122223 305.580040 L 263.754223 302.203040 L 267.295223 298.731040 L 270.791223 295.214040 L 274.285223 291.695040 L 277.754223 288.150040 L 281.193223 284.578040 L 284.599223 280.973040 L 287.928223 277.297040 L 291.175223 273.549040 L 294.384223 269.767040 L 297.593223 265.986040 L 300.792223 262.197040 L 303.934223 258.360040 L 307.010223 254.470040 L 310.033223 250.539040 L 312.993223 246.560040 L 315.918223 242.555040 L 318.838223 238.547040 L 321.758223 234.539040 L 324.679223 230.531040 L 327.599223 226.522040 L 330.526223 222.519040 L 333.523223 218.568040 L 336.579223 214.663040 L 339.650223 210.768040 L 342.720223 206.874040 L 345.790223 202.979040 L 348.861223 199.085040 L 351.931223 195.190040 L 355.001223 191.296040 L 358.073223 187.403040 L 361.163223 183.524040 L 364.287223 179.672040 L 367.435223 175.840040 L 370.587223 172.011040 L 373.752223 168.194040 L 376.966223 164.417040 L 380.236223 160.688040 L 383.526223 156.978040 L 386.827223 153.277040 L 390.163223 149.608040 L 393.554223 145.990040 L 397.001223 142.424040 L 400.527223 138.937040 L 404.111223 135.510040 L 407.775223 132.168040 L 411.533223 128.934040 L 415.417223 125.851040 L 419.318223 122.789040 L 423.243223 119.759040 L 427.289223 116.892040 L 431.409223 114.132040 L 435.602223 111.484040 L 439.808223 108.856040 L 444.089223 106.354040 L 448.488223 104.064040 L 452.959223 101.920040 L 457.471223 99.860040 L 462.028223 97.903540" fill="none" id="16" stroke="#008bd4" stroke-width="0.5" /><path d="M 212.516223 24.202740 L 216.293223 25.452640 L 219.988223 26.926540 L 223.564223 28.669340 L 226.988223 30.695940 L 230.352223 32.821140 L 233.686223 34.992440 L 237.004223 37.188640 L 240.254223 39.483040 L 243.416223 41.897640 L 246.526223 44.379340 L 249.582223 46.927340 L 252.547223 49.579740 L 255.416223 52.335940 L 258.221223 55.158340 L 260.998223 58.008540 L 263.749223 60.883140 L 266.448223 63.806340 L 269.099223 66.773440 L 271.736223 69.753040 L 274.374223 72.732640 L 277.002223 75.719940 L 279.591223 78.740940 L 282.121223 81.812340 L 284.615223 84.912540 L 287.104223 88.017240 L 289.587223 91.126540 L 292.022223 94.273040 L 294.369223 97.486440 L 296.663223 100.737040 L 298.910223 104.022040" fill="none" id="17" stroke="#fdb968" stroke-width="0.5" /><path d="M 293.492223 90.746040 L 294.792223 95.432640 L 296.514223 99.980040 L 298.797223 104.273040 L 301.476223 108.332040 L 304.164223 112.385040 L 306.852223 116.439040 L 309.540223 120.492040 L 312.228223 124.546040 L 314.916223 128.599040 L 317.604223 132.653040 L 320.292223 136.706040 L 322.991223 140.752040 L 325.764223 144.748040 L 328.580223 148.713040 L 331.420223 152.662040 L 334.370223 156.528040 L 337.468223 160.278040 L 340.670223 163.938040 L 343.922223 167.555040 L 347.221223 171.129040 L 350.617223 174.610040 L 354.086223 178.019040 L 357.603223 181.379040 L 361.151223 184.705040 L 364.808223 187.913040 L 368.571223 190.993040 L 372.420223 193.967040 L 376.290223 196.913040 L 380.264223 199.716040 L 384.340223 202.371040 L 388.467223 204.945040 L 392.642223 207.439040" fill="none" id="18" stroke="#fdb968" stroke-width="0.5" /><path d="M 366.500223 192.014040 L 368.227223 193.673040 L 369.993223 195.291040 L 371.799223 196.864040 L 373.676223 198.351040 L 375.610223 199.762040 L 377.569223 201.141040 L 379.532223 202.513040 L 381.540223 203.819040 L 383.576223 205.079040 L 385.640223 206.294040 L 387.725223 207.473040 L 389.839223 208.598040 L 391.984223 209.662040 L 394.184223 210.608040 L 396.413223 211.484040 L 398.664223 212.303040 L 400.939223 213.049040 L 403.254223 213.663040 L 405.587223 214.203040 L 407.935223 214.673040 L 410.297223 215.072040 L 412.670223 215.389040 L 415.053223 215.622040 L 417.446223 215.716040 L 419.841223 215.733040 L 422.236223 215.696040 L 424.629223 215.601040 L 427.013223 215.374040 L 429.390223 215.084040 L 431.760223 214.738040" fill="none" id="19" stroke="#fdb968" stroke-width="0.5" /><path d="M 139.634223 15.297240 L 143.592223 14.454440 L 147.589223 13.826540 L 151.620223 13.475740 L 155.666223 13.389840 L 159.713223 13.358740 L 163.758223 13.451640 L 167.791223 13.774740 L 171.805223 14.290540 L 175.809223 14.875640 L 179.809223 15.491440 L 183.795223 16.186840 L 187.765223 16.971240 L 191.729223 17.790440 L 195.691223 18.614340 L 199.636223 19.512740 L 203.549223 20.545240 L 207.444223 21.643540 L 211.334223 22.759140 L 215.179223 24.015640 L 218.977223 25.412140 L 222.762223 26.844540 L 226.544223 28.285040 L 230.295223 29.804540 L 233.996223 31.440040 L 237.659223 33.161340 L 241.278223 34.972640 L 244.850223 36.873040 L 248.365223 38.878340 L 251.816223 40.992440 L 255.212223 43.193040 L 258.563223 45.462640" fill="none" id="20" stroke="#8f6aaf" stroke-width="0.5" /><path d="M 123.099223 26.210640 L 123.836223 25.515540 L 124.574223 24.820440 L 125.349223 24.167440 L 126.125223 23.514640 L 126.945223 22.919840 L 127.767223 22.325540 L 128.630223 21.795340 L 129.494223 21.265240 L 130.371223 20.756440 L 131.248223 20.247640 L 132.137223 19.760440 L 133.026223 19.273540 L 133.943223 18.843240 L 134.861223 18.413040 L 135.795223 18.017940 L 136.728223 17.623040 L 137.676223 17.263740 L 138.624223 16.904640 L 139.590223 16.598840 L 140.557223 16.293040 L 141.529223 16.006440 L 142.501223 15.719840 L 143.479223 15.452740 L 144.457223 15.185840 L 145.453223 15.000640 L 146.450223 14.815340 L 147.447223 14.634940 L 148.445223 14.454540 L 149.446223 14.297140 L 150.447223 14.139740" fill="none" id="21" stroke="#8f6aaf" stroke-width="0.5" /><path d="M 150.447223 14.139740 L 149.532223 14.124040 L 148.616223 14.108240 L 147.702223 14.154340 L 146.787223 14.201240 L 145.884223 14.354140 L 144.981223 14.507140 L 144.084223 14.692440 L 143.188223 14.878040 L 142.307223 15.129340 L 141.427223 15.380940 L 140.557223 15.668940 L 139.688223 15.957340 L 138.841223 16.305240 L 137.994223 16.653140 L 137.147223 17.001140 L 136.300223 17.349140 L 135.453223 17.697240 L 134.606223 18.045340 L 133.771223 18.421840 L 132.936223 18.798340 L 132.109223 19.191640 L 131.282223 19.584940 L 130.455223 19.978140 L 129.628223 20.371340 L 128.801223 20.764140 L 127.973223 21.156840 L 127.145223 21.546440 L 126.316223 21.935940 L 125.486223 22.323740 L 124.657223 22.711640" fill="none" id="22" stroke="#8f6aaf" stroke-width="0.5" /><path d="M 124.657223 22.711640 L 125.241223 22.364440 L 125.825223 22.017340 L 126.409223 21.670240 L 126.994223 21.323140 L 127.578223 20.976040 L 128.162223 20.628840 L 128.746223 20.281740 L 129.330223 19.934640 L 129.915223 19.587540 L 130.499223 19.240440 L 131.083223 18.893240 L 131.667223 18.546140 L 132.255223 18.204640 L 132.842223 17.863240 L 133.432223 17.525940 L 134.022223 17.188740 L 134.617223 16.860640 L 135.213223 16.532540 L 135.814223 16.216640 L 136.416223 15.900840 L 137.022223 15.592740 L 137.627223 15.284740 L 138.243223 14.996440 L 138.858223 14.708140 L 139.476223 14.423940 L 140.093223 14.139640 L 140.716223 13.869840 L 141.340223 13.599940 L 142.595223 13.076740" fill="none" id="23" stroke="#8f6aaf" stroke-width="0.5" /><path d="M 117.776223 31.501940 L 118.545223 30.503140 L 119.314223 29.504540 L 120.179223 28.587340 L 121.045223 27.671840 L 122.019223 26.870840 L 122.995223 26.073540 L 124.076223 25.424240 L 125.158223 24.778240 L 126.312223 24.272240 L 127.468223 23.768040 L 128.656223 23.345740 L 129.844223 22.924740 L 131.051223 22.560940 L 132.258223 22.197140 L 133.465223 21.833440 L 134.672223 21.470140 L 135.885223 21.128640 L 137.099223 20.787240 L 138.314223 20.450740 L 139.529223 20.114340 L 140.745223 19.784640 L 141.962223 19.455540 L 143.195223 19.192040 L 144.428223 18.928640 L 145.664223 18.681640 L 146.900223 18.434740 L 148.138223 18.195540 L 149.376223 17.956340 L 150.615223 17.725240 L 151.854223 17.494140" fill="none" id="24" stroke="#8f6aaf" stroke-width="0.5" /><path d="M 136.705223 19.879940 L 141.393223 18.534440 L 146.110223 17.294340 L 150.864223 16.205140 L 155.644223 15.238440 L 160.455223 14.440940 L 165.293223 13.828840 L 170.151223 13.400440 L 175.019223 13.101540 L 179.891223 12.880740 L 184.766223 12.776740 L 189.641223 12.880140 L 194.502223 13.249840 L 199.332223 13.913840 L 204.116223 14.858840 L 208.845223 16.049440 L 213.514223 17.459340 L 218.098223 19.123740 L 222.540223 21.139740 L 226.919223 23.286740 L 231.173223 25.669740 L 235.230223 28.372540 L 239.142223 31.283640 L 242.925223 34.360440 L 246.623223 37.540240 L 250.292223 40.753740 L 253.934223 43.998340 L 257.544223 47.277840 L 261.130223 50.584140 L 264.686223 53.921740 L 268.236223 57.266140 L 271.786223 60.610540 L 275.337223 63.954940 L 278.887223 67.299340 L 282.437223 70.643740" fill="none" id="25" stroke="#8f6aaf" stroke-width="0.5" /><path d="M 15.035723 165.368040 L 15.758523 160.479040 L 16.806823 155.650040 L 18.242223 150.924040 L 20.128923 146.356040 L 22.103223 141.825040 L 24.203923 137.352040 L 26.429423 132.940040 L 28.806923 128.607040 L 31.249423 124.311040 L 33.722623 120.032040 L 36.268323 115.796040 L 38.877823 111.599040 L 41.540523 107.436040 L 44.288523 103.328040 L 47.071023 99.243440 L 49.855123 95.160040 L 52.639223 91.076640 L 55.423423 86.993240 L 58.213723 82.914040 L 61.074023 78.884340 L 64.071723 74.956040 L 67.167423 71.103740 L 70.343823 67.317840 L 73.650523 63.646140 L 77.089323 60.097240 L 80.596423 56.615140 L 84.151223 53.181840 L 87.769423 49.815440 L 91.414823 46.478340 L 95.063423 43.144640 L 98.717823 39.817340 L 102.398223 36.518940 L 106.121223 33.269140 L 109.966223 30.163840 L 113.889223 27.158340 L 117.974223 24.377240 L 122.278223 21.950840 L 126.721223 19.785440" fill="none" id="26" stroke="#8f6aaf" stroke-width="0.5" /><path d="M 144.516223 11.305140 L 146.150223 16.002440 L 148.049223 20.598540 L 150.225223 25.069140 L 152.551223 29.466740 L 154.895223 33.855140 L 157.314223 38.202140 L 159.826223 42.496040 L 162.366223 46.773540 L 164.935223 51.033640 L 167.618223 55.223040 L 170.442223 59.317740 L 173.338223 63.362840 L 176.320223 67.345040 L 179.330223 71.305840 L 182.342223 75.265540 L 185.356223 79.223340 L 188.416223 83.145840 L 191.591223 86.975840 L 194.792223 90.784240 L 197.995223 94.591340 L 201.197223 98.398340 L 204.443223 102.167040 L 207.832223 105.809040 L 211.322223 109.353040 L 214.914223 112.794040 L 218.633223 116.099040 L 222.453223 119.284040 L 226.382223 122.335040 L 230.411223 125.253040 L 234.531223 128.039040 L 238.736223 130.696040 L 242.999223 133.261040 L 247.314223 135.738040 L 251.671223 138.137040 L 256.080223 140.442040 L 260.544223 142.637040 L 265.060223 144.724040 L 269.585223 146.793040 L 274.122223 148.833040" fill="none" id="27" stroke="#8bb658" stroke-width="0.5" /><path d="M 518.910223 154.289040 L 518.874223 157.222040 L 518.834223 160.155040 L 518.789223 163.088040 L 518.742223 166.021040 L 518.686223 168.954040 L 518.607223 171.886040 L 518.517223 174.818040 L 518.420223 177.750040 L 518.322223 180.682040 L 518.223223 183.613040 L 518.124223 186.545040 L 518.025223 189.477040 L 517.926223 192.408040 L 517.827223 195.340040 L 517.728223 198.272040 L 517.629223 201.203040 L 517.531223 204.135040 L 517.432223 207.067040 L 517.333223 209.998040 L 517.234223 212.930040 L 517.135223 215.862040 L 517.036223 218.793040 L 516.937223 221.725040 L 516.838223 224.657040 L 516.740223 227.588040 L 516.641223 230.520040 L 516.542223 233.452040 L 516.443223 236.383040 L 516.344223 239.315040 L 516.245223 242.247040" fill="none" id="28" stroke="#bbabff" stroke-width="0.5" /><path d="M 517.063223 233.851040 L 517.080223 237.284040 L 517.095223 240.717040 L 517.106223 244.151040 L 517.114223 247.584040 L 517.119223 251.017040 L 517.151223 254.450040 L 517.210223 257.882040 L 517.305223 261.314040 L 517.439223 264.745040 L 517.601223 268.174040 L 517.786223 271.602040 L 517.984223 275.029040 L 518.182223 278.457040 L 518.380223 281.884040 L 518.579223 285.312040 L 518.777223 288.739040 L 518.976223 292.166040 L 519.174223 295.594040 L 519.373223 299.021040 L 519.571223 302.448040 L 519.769223 305.876040 L 519.968223 309.303040 L 520.166223 312.731040 L 520.365223 316.158040 L 520.563223 319.585040 L 520.761223 323.013040 L 520.960223 326.440040 L 521.158223 329.868040 L 521.357223 333.295040 L 521.555223 336.722040" fill="none" id="29" stroke="#bbabff" stroke-width="0.5" /><path d="M 250.280223 205.785040 L 250.931223 206.078040 L 251.583223 206.371040 L 252.234223 206.664040 L 252.886223 206.956040 L 253.537223 207.249040 L 254.189223 207.542040 L 254.840223 207.835040 L 255.494223 208.121040 L 256.152223 208.401040 L 256.809223 208.680040 L 257.466223 208.960040 L 258.130223 209.223040 L 258.797223 209.480040 L 259.463223 209.737040 L 260.129223 209.995040 L 260.801223 210.237040 L 261.473223 210.480040 L 262.145223 210.722040 L 262.817223 210.964040 L 263.489223 211.204040 L 264.162223 211.444040 L 264.835223 211.684040 L 265.508223 211.924040 L 266.180223 212.164040 L 266.853223 212.404040 L 267.526223 212.644040 L 268.198223 212.884040 L 268.871223 213.124040 L 269.544223 213.364040 L 270.217223 213.604040" fill="none" id="30" stroke="#658424" stroke-width="0.5" /><path d="M 71.907923 279.062040 L 71.901023 280.450040 L 71.894123 281.838040 L 71.887723 283.226040 L 71.881223 284.614040 L 71.871723 286.002040 L 71.862223 287.389040 L 71.860523 288.777040 L 71.858723 290.165040 L 71.868423 291.553040 L 71.878123 292.941040 L 71.892223 294.329040 L 71.906423 295.717040 L 71.921023 297.104040 L 71.935623 298.492040 L 71.950323 299.880040 L 71.965023 301.268040 L 71.979723 302.656040 L 71.994523 304.043040 L 72.009223 305.431040 L 72.023923 306.819040 L 72.038623 308.207040 L 72.053423 309.595040 L 72.068123 310.982040 L 72.082823 312.370040 L 72.095523 313.758040 L 72.108323 315.146040 L 72.117723 316.534040 L 72.127123 317.922040 L 72.134323 319.310040 L 72.141623 320.697040" fill="none" id="31" stroke="#f1b9ff" stroke-width="0.5" /><path d="M 71.879123 312.702040 L 71.966723 314.008040 L 72.054423 315.315040 L 72.143223 316.621040 L 72.232123 317.927040 L 72.320923 319.234040 L 72.409623 320.540040 L 72.502623 321.846040 L 72.596523 323.152040 L 72.697123 324.458040 L 72.800123 325.763040 L 72.907123 327.068040 L 73.016023 328.373040 L 73.125623 329.678040 L 73.235723 330.982040 L 73.345923 332.287040 L 73.456323 333.592040 L 73.566623 334.897040 L 73.677023 336.201040 L 73.787423 337.506040 L 73.897823 338.811040 L 74.008223 340.116040 L 74.118623 341.420040 L 74.228923 342.725040 L 74.339323 344.030040 L 74.449723 345.334040 L 74.560123 346.639040 L 74.670523 347.944040 L 74.780823 349.249040 L 74.891223 350.553040 L 75.001623 351.858040 L 75.112023 353.163040" fill="none" id="32" stroke="#f1b9ff" stroke-width="0.5" /><path d="M 26.374323 107.518040 L 27.624423 112.310040 L 29.125723 117.030040 L 30.860323 121.669040 L 32.978923 126.146040 L 35.300723 130.521040 L 37.718923 134.843040 L 40.145123 139.161040 L 42.688323 143.411040 L 45.322123 147.605040 L 48.126823 151.688040 L 50.954823 155.754040 L 53.872123 159.756040 L 56.914923 163.664040 L 60.066923 167.484040 L 63.415423 171.134040 L 66.923623 174.630040 L 70.471923 178.085040 L 74.024123 181.537040 L 77.688723 184.869040 L 81.441023 188.102040 L 85.211923 191.313040 L 88.983023 194.524040 L 92.754223 197.734040 L 96.525323 200.945040 L 100.297223 204.155040 L 104.114223 207.312040 L 108.001223 210.380040 L 111.919223 213.411040 L 115.838223 216.439040 L 119.758223 219.466040 L 123.714223 222.447040 L 127.710223 225.373040 L 131.718223 228.283040 L 135.753223 231.154040 L 139.847223 233.942040 L 144.010223 236.625040 L 148.240223 239.202040 L 152.541223 241.657040 L 156.910223 243.991040 L 161.342223 246.202040 L 165.831223 248.295040 L 170.368223 250.282040 L 174.952223 252.157040 L 179.554223 253.988040 L 184.161223 255.805040 L 188.812223 257.508040 L 193.528223 259.021040 L 198.267223 260.461040 L 203.006223 261.901040 L 207.767223 263.266040 L 212.579223 264.441040 L 217.410223 265.529040 L 222.242223 266.618040 L 227.074223 267.707040 L 231.905223 268.796040 L 236.739223 269.879040 L 241.581223 270.920040 L 246.439223 271.882040 L 251.302223 272.824040 L 256.164223 273.767040 L 261.026223 274.709040 L 265.889223 275.651040 L 270.753223 276.584040 L 275.631223 277.442040 L 280.530223 278.170040 L 285.429223 278.898040 L 290.328223 279.624040 L 295.230223 280.333040 L 300.147223 280.928040 L 305.073223 281.446040 L 310.001223 281.943040 L 314.928223 282.445040 L 319.854223 282.959040" fill="none" id="33" stroke="#989c37" stroke-width="0.5" /></svg>