<?xml version="1.0" encoding="utf-8" ?>
<svg baseProfile="full" height="661.608375" version="1.1" viewBox="0,0,483.608375,661.608375" width="483.608375" xmlns="http://www.w3.org/2000/svg" xmlns:ev="http://www.w3.org/2001/xml-events" xmlns:xlink="http://www.w3.org/1999/xlink"><defs><style type="text/css"><![CDATA[
	.background { fill: white; }
	.line { stroke: firebrick; stroke-width: .1mm; }
	.blacksquare { fill: indigo; }
	.whitesquare { fill: white; }
]]></style></defs><rect class="background" height="100%" width="100%" x="0" y="0" /><path d="M 210.820695 620.511218 L 210.527588 616.523251 L 209.786363 612.592526 L 208.901256 608.694680 L 208.371476 606.726067" fill="none" id="1" stroke="black" stroke-width="0.608375" /><path d="M 205.473036 644.604968 L 206.230562 640.679191 L 206.811249 636.721565 L 207.391936 632.763939 L 208.054799 628.819379 L 208.730261 624.876824 L 209.405724 620.934267 L 210.081187 616.991711 L 210.756649 613.049154 L 211.413729 609.103520 L 212.059628 605.156011 L 212.705527 601.208505 L 213.351426 597.260998 L 213.997324 593.313490 L 214.643223 589.365982 L 215.289122 585.418475 L 215.935021 581.470968 L 216.580920 577.523461 L 217.121916 573.560586 L 217.635372 569.593678 L 218.148829 565.626770 L 218.662284 561.659861 L 219.175742 557.692953 L 219.689198 553.726044 L 220.202655 549.759135 L 220.716111 545.792226 L 221.229568 541.825318 L 221.743024 537.858410 L 222.256480 533.891502 L 222.769937 529.924594 L 223.242154 525.953226 L 223.588562 521.968254 L 223.934970 517.983281 L 224.281378 513.998310 L 224.627786 510.013338 L 224.974194 506.028366 L 225.320602 502.043394 L 225.667010 498.058422 L 226.013418 494.073450 L 226.359825 490.088478 L 226.706232 486.103506 L 227.052641 482.118534 L 227.399049 478.133561 L 227.745457 474.148590 L 228.091865 470.163617 L 228.438140 466.178637 L 228.665503 462.185104 L 228.892867 458.191571 L 229.120230 454.198037 L 229.347593 450.204504 L 229.574956 446.210972 L 229.802320 442.217439 L 230.029683 438.223906 L 230.257046 434.230372 L 230.484409 430.236840 L 230.711773 426.243307 L 230.939136 422.249774 L 231.166499 418.256240 L 231.393862 414.262708 L 231.621225 410.269175 L 231.848589 406.275642 L 232.075952 402.282108 L 232.303314 398.288576 L 232.473283 394.292508 L 232.598657 390.294475 L 232.724032 386.296440 L 232.849406 382.298405 L 232.974781 378.300370 L 233.100155 374.302336 L 233.225530 370.304301 L 233.350904 366.306266 L 233.476279 362.308232 L 233.601653 358.310197 L 233.727028 354.312162 L 233.852402 350.314127 L 233.977777 346.316093 L 234.103150 342.318059 L 234.228526 338.320023 L 234.353900 334.321989 L 234.479275 330.323955 L 234.604649 326.325919 L 234.730024 322.327885 L 234.771540 318.328311 L 234.792935 314.328369 L 234.814329 310.328426 L 234.835724 306.328483 L 234.857118 302.328541 L 234.878512 298.328598 L 234.899907 294.328655 L 234.921301 290.328711 L 234.942696 286.328769 L 234.964091 282.328826 L 234.985485 278.328884 L 235.006880 274.328940 L 235.028274 270.328998 L 235.049669 266.329054 L 235.071063 262.329113 L 235.092458 258.329170 L 235.113852 254.329227 L 235.135247 250.329284 L 235.156641 246.329341 L 235.178036 242.329399 L 235.199430 238.329456 L 235.220825 234.329513 L 235.242219 230.329570 L 235.263614 226.329628 L 235.200058 222.330246 L 235.125806 218.330935 L 235.051554 214.331625 L 234.977302 210.332313 L 234.903050 206.333003 L 234.828798 202.333692 L 234.754546 198.334382 L 234.680294 194.335071 L 234.606042 190.335760 L 234.590226 189.483878" fill="none" id="2" stroke="black" stroke-width="0.608375" /><path d="M 28.855856 518.144037 L 27.033907 516.183342 L 26.941431 520.182274 L 27.078598 524.171991 L 27.491138 528.150660 L 27.903676 532.129331 L 28.316216 536.108000 L 28.728756 540.086669 L 28.758196 540.370598" fill="none" id="3" stroke="black" stroke-width="0.608375" /><path d="M 167.012106 418.190908 L 170.887903 418.952059 L 174.375775 420.910136 L 177.862804 422.869889 L 181.524922 424.478394 L 185.188867 426.083233 L 188.852811 427.688072 L 192.591819 429.089332 L 196.420578 430.247178 L 200.249336 431.405025 L 204.078095 432.562872 L 207.906853 433.720719 L 211.735611 434.878565 L 215.564369 436.036411 L 219.393128 437.194258 L 223.236750 438.299372 L 227.106582 439.311500 L 230.976414 440.323626 L 234.846246 441.335755 L 238.716077 442.347883 L 242.585909 443.360009 L 246.455741 444.372138 L 250.325573 445.384266 L 254.195403 446.396392 L 258.065236 447.408521 L 261.896831 448.551319 L 265.701830 449.785005 L 269.506829 451.018689 L 273.311828 452.252376 L 277.116827 453.486062 L 280.921827 454.719748 L 284.726826 455.953434 L 288.531826 457.187119 L 292.336825 458.420806 L 296.141823 459.654491 L 299.946822 460.888176 L 303.739319 462.156190 L 307.446390 463.658728 L 311.153460 465.161269 L 314.860532 466.663808 L 318.567603 468.166348 L 322.274674 469.668886 L 325.981744 471.171426 L 329.688816 472.673966 L 333.395887 474.176506 L 337.102958 475.679045 L 340.810028 477.181584 L 344.517100 478.684123 L 348.224171 480.186664 L 351.931241 481.689203 L 355.638312 483.191743 L 359.345384 484.694281 L 363.052455 486.196821 L 366.759525 487.699361 L 370.266006 489.120598" fill="none" id="4" stroke="black" stroke-width="0.608375" /><path d="M 28.789446 516.370598 L 25.859756 516.873456 L 23.977872 516.928330 L 26.762106 517.851067" fill="none" id="5" stroke="black" stroke-width="0.608375" /><path d="M 37.453505 289.921378 L 36.315039 286.117235 L 33.686679 283.408907 L 29.835809 282.683246 L 25.836021 282.642209 L 29.321129 283.191381 L 33.018884 284.716701 L 36.652210 286.386056 L 40.253972 288.125972 L 43.855734 289.865889 L 47.457497 291.605806 L 51.157158 293.126248 L 54.858109 294.643802 L 58.559057 296.161357 L 62.260008 297.678911 L 65.960957 299.196464 L 69.661907 300.714019 L 73.401287 302.131525 L 77.166477 303.481840 L 80.931665 304.832155 L 84.696855 306.182471 L 88.462043 307.532785 L 92.227232 308.883101 L 95.992421 310.233416 L 99.757611 311.583731 L 103.522801 312.934046 L 107.287989 314.284360 L 111.053179 315.634677 L 114.818367 316.984992 L 118.583557 318.335307 L 122.403757 319.520464 L 126.226632 320.697588 L 130.049508 321.874712 L 133.872384 323.051837 L 137.695260 324.228962 L 141.518135 325.406086 L 145.341011 326.583211 L 149.163887 327.760334 L 152.986762 328.937458 L 156.809638 330.114584 L 160.632514 331.291708 L 164.455388 332.468832 L 168.278265 333.645957 L 172.110867 334.789357 L 175.973438 335.828851 L 179.836008 336.868345 L 183.698579 337.907838 L 187.561149 338.947332 L 191.423721 339.986825 L 195.286292 341.026319 L 199.148863 342.065811 L 203.011433 343.105304 L 206.874004 344.144799 L 210.736575 345.184292 L 214.599146 346.223786 L 217.133195 346.905748" fill="none" id="6" stroke="black" stroke-width="0.608375" /><path d="M 217.004286 360.788567 L 213.199817 360.032511 L 209.256372 359.375751 L 205.292057 358.842640 L 201.327742 358.309529 L 197.363428 357.776420 L 193.399113 357.243310 L 189.434798 356.710199 L 185.470483 356.177090 L 181.550773 355.411711 L 177.670989 354.438428 L 173.791206 353.465146 L 169.911422 352.491863 L 166.031639 351.518579 L 162.151855 350.545297 L 158.370084 349.243780 L 156.734756 348.675288" fill="none" id="7" stroke="black" stroke-width="0.608375" /><path d="M 218.258195 362.495598 L 215.402760 361.645683 L 216.070695 362.686998" fill="none" id="8" stroke="black" stroke-width="0.608375" /><path d="M 359.961316 261.995598 L 359.946459 259.417323 L 359.863567 263.416457 L 359.853218 267.416444 L 359.842869 271.416430 L 359.832519 275.416417 L 359.948257 279.414721 L 360.065271 283.413009 L 360.182287 287.411298 L 360.299301 291.409586 L 360.416315 295.407874 L 360.533331 299.406162 L 360.650345 303.404450 L 360.767359 307.402738 L 360.884375 311.401027 L 360.918931 315.400794 L 360.945327 319.400706 L 360.971721 323.400619 L 360.998114 327.400531 L 361.024509 331.400444 L 361.050903 335.400357 L 361.077296 339.400271 L 361.103691 343.400184 L 361.130086 347.400097 L 361.156479 351.400010 L 361.182874 355.399923 L 361.209268 359.399835 L 361.235661 363.399748 L 361.115031 367.396051 L 360.892354 371.389848 L 360.669676 375.383645 L 360.446998 379.377442 L 360.224320 383.371239 L 360.001642 387.365036 L 359.778964 391.358833 L 359.556286 395.352630 L 359.333608 399.346427 L 359.110928 403.340224 L 358.888251 407.334021 L 358.665572 411.327818 L 358.442895 415.321615 L 358.220216 419.315412 L 357.997539 423.309209 L 357.774860 427.303006 L 357.552183 431.296803 L 357.271905 435.285653 L 356.810339 439.258934 L 356.348774 443.232214 L 355.887210 447.205494 L 355.425645 451.178775 L 354.964080 455.152056 L 354.502515 459.125336 L 354.040949 463.098616 L 353.579384 467.071897 L 353.117818 471.045178 L 352.656253 475.018458 L 352.194688 478.991738 L 351.733124 482.965018 L 351.271559 486.938300 L 350.809994 490.911580 L 350.348429 494.884860 L 349.886864 498.858140 L 349.395780 502.827596 L 348.829219 506.787269 L 348.262658 510.746940 L 347.696099 514.706614 L 347.430066 516.565907" fill="none" id="9" stroke="black" stroke-width="0.608375" /><path d="M 110.930065 323.034658 L 107.577238 320.859088 L 106.023598 320.321007 L 108.062775 320.674611 L 109.064166 324.547234 L 110.213273 328.376962 L 111.441845 332.183617 L 112.668356 335.983878" fill="none" id="10" stroke="black" stroke-width="0.608375" /><path d="M 163.047256 483.546378 L 164.247346 487.362107 L 165.447435 491.177835 L 166.647524 494.993563 L 167.847614 498.809293 L 169.047703 502.625021 L 170.247793 506.440750 L 171.447882 510.256479 L 172.647972 514.072206 L 173.848061 517.887936 L 175.048151 521.703665 L 176.248240 525.519392 L 177.058976 528.097157" fill="none" id="11" stroke="black" stroke-width="0.608375" /><path d="M 198.578506 579.538567 L 197.643961 575.649272 L 196.709417 571.759974 L 195.774872 567.870679 L 194.840327 563.981382 L 193.905782 560.092086 L 192.971238 556.202789 L 192.036693 552.313494 L 191.102148 548.424196 L 190.167603 544.534901 L 189.398816 541.335438" fill="none" id="12" stroke="black" stroke-width="0.608375" /><path d="M 224.605856 647.280747 L 222.271309 644.032689 L 220.108415 640.670226 L 218.009006 637.265453 L 216.173127 633.715203 L 214.410747 630.124379 L 212.884033 626.429853 L 211.427085 622.704628 L 209.970135 618.979402 L 208.513187 615.254178 L 207.056238 611.528954 L 205.644220 607.786556 L 204.245323 604.039147 L 202.846426 600.291735 L 201.509664 596.521946 L 200.254286 592.905747" fill="none" id="13" stroke="black" stroke-width="0.608375" /><path d="M 19.125386 536.343247 L 20.452136 532.569690 L 21.778886 528.796132 L 23.043804 525.001553 L 24.292175 521.201346 L 25.540547 517.401139 L 26.873833 513.630417 L 28.249096 509.874269 L 29.624358 506.118120 L 30.999621 502.361970 L 32.374883 498.605821 L 33.750146 494.849673 L 35.204496 491.124941 L 36.781515 487.448937 L 38.358535 483.772932 L 39.935555 480.096927 L 41.512575 476.420924 L 43.089595 472.744919 L 44.666615 469.068915 L 46.278671 465.408489 L 47.951736 461.775191 L 49.624801 458.141893 L 51.297866 454.508595 L 52.970931 450.875296 L 54.643995 447.241999 L 56.317060 443.608700 L 57.990125 439.975404 L 59.663190 436.342106 L 61.401090 432.739839 L 63.181379 429.157860 L 64.961668 425.575881 L 66.741957 421.993902 L 68.522245 418.411924 L 70.302534 414.829945 L 72.082824 411.247967 L 73.863112 407.665988 L 75.643401 404.084009 L 77.423690 400.502029 L 79.224761 396.930762 L 81.108993 393.402353 L 82.993225 389.873944 L 84.877457 386.345536 L 86.761690 382.817127 L 88.645922 379.288718 L 90.530154 375.760309 L 92.414386 372.231899 L 94.298619 368.703490 L 96.182851 365.175082 L 98.067082 361.646673 L 99.951314 358.118265 L 101.835546 354.589855 L 103.719779 351.061446 L 105.604011 347.533038 L 107.510610 344.016869 L 109.466822 340.527853 L 111.423034 337.038837 L 113.379246 333.549821 L 115.335459 330.060805 L 117.291670 326.571789 L 119.247883 323.082772 L 121.204094 319.593755 L 123.160307 316.104739 L 125.116518 312.615724 L 127.072730 309.126707 L 129.028942 305.637691 L 130.989494 302.151133 L 132.976270 298.679429 L 134.963045 295.207726 L 136.949820 291.736022 L 138.936595 288.264319 L 140.923370 284.792616 L 142.910145 281.320912 L 144.896920 277.849209 L 146.883696 274.377505 L 148.870471 270.905801 L 150.857246 267.434099 L 152.844020 263.962395 L 154.830380 260.490455 L 156.789231 257.002921 L 158.748083 253.515386 L 160.706934 250.027850 L 162.665785 246.540316 L 164.624637 243.052780 L 166.583489 239.565245 L 168.542340 236.077710 L 170.501192 232.590175 L 172.460043 229.102640 L 174.418895 225.615105 L 176.377746 222.127570 L 178.335341 218.639333 L 180.280518 215.144152 L 182.225695 211.648972 L 184.170873 208.153791 L 186.116050 204.658611 L 188.061227 201.163430 L 190.006404 197.668250 L 191.951581 194.173070 L 193.896758 190.677889 L 195.841935 187.182709 L 197.787112 183.687528 L 199.732289 180.192348 L 201.677466 176.697168 L 203.622643 173.201987 L 205.567820 169.706806 L 207.512997 166.211626 L 208.113666 165.132317" fill="none" id="14" stroke="black" stroke-width="0.608375" /><path d="M 26.922256 88.726067 L 23.961934 88.111509 L 25.922256 87.823718" fill="none" id="15" stroke="black" stroke-width="0.608375" /><path d="M 12.199605 79.608877 L 15.155964 80.667203 L 18.093286 83.299120 L 21.472302 85.439739 L 24.854240 87.574085 L 28.666394 88.785488 L 32.478545 89.996892 L 36.290698 91.208293 L 40.102849 92.419697 L 43.915001 93.631099 L 47.843401 94.381417 L 51.774215 95.122158 L 55.705030 95.862899 L 59.635845 96.603639 L 63.566660 97.344380 L 67.497474 98.085121 L 71.428288 98.825862 L 75.363942 99.536963 L 79.326211 100.085081 L 83.288479 100.633197 L 87.250748 101.181314 L 91.213015 101.729430 L 95.175283 102.277547 L 99.137552 102.825665 L 103.099819 103.373780 L 107.062088 103.921898 L 111.024355 104.470014 L 114.986623 105.018130 L 118.948892 105.566248 L 122.911159 106.114364 L 126.873427 106.662481 L 130.835696 107.210597 L 134.797964 107.758714 L 138.760232 108.306832 L 142.722499 108.854947 L 146.684768 109.403064 L 150.647036 109.951182 L 154.609304 110.499297 L 158.571572 111.047415 L 162.533841 111.595531 L 166.496109 112.143648 L 170.458377 112.691764 L 174.420645 113.239881 L 178.382913 113.787998 L 182.345180 114.336114 L 186.307449 114.884231 L 190.269717 115.432349 L 194.231985 115.980464 L 198.194253 116.528582 L 202.156520 117.076698 L 206.118789 117.624814 L 210.082328 118.163401 L 214.049779 118.672640 L 218.017232 119.181879 L 221.984684 119.691119 L 225.952136 120.200357 L 229.919588 120.709597 L 233.887040 121.218835 L 237.854492 121.728074 L 241.814419 122.289986 L 245.765759 122.912013 L 249.717098 123.534039 L 253.668437 124.156066 L 257.619777 124.778093 L 259.844135 125.284657" fill="none" id="17" stroke="black" stroke-width="0.608375" /><path d="M 216.617566 123.612787 L 213.965775 125.617738 L 213.879286 124.681519 L 214.394916 124.061998" fill="none" id="18" stroke="black" stroke-width="0.608375" /><path d="M 21.766006 77.097157 L 20.834795 79.339804 L 23.271210 82.461190 L 23.281636 82.476067" fill="none" id="19" stroke="black" stroke-width="0.608375" /><path d="M 210.723036 361.655748 L 210.527726 357.660682 L 210.305066 355.054738 L 211.004003 358.970392 L 211.955568 362.855560 L 212.907134 366.740726 L 213.758997 370.647110 L 214.471817 374.583083 L 215.184638 378.519058 L 215.897458 382.455031 L 216.610278 386.391005 L 217.323098 390.326977 L 217.778790 394.299565 L 218.192935 398.278068 L 218.607080 402.256571 L 219.021224 406.235073 L 219.435369 410.213575 L 219.849513 414.192079 L 220.263658 418.170582 L 220.677803 422.149084 L 221.018880 426.132271 L 221.116068 430.131090 L 221.213256 434.129908 L 221.310444 438.128728 L 221.407632 442.127546 L 221.504820 446.126366 L 221.602008 450.125184 L 221.699196 454.124005 L 221.796385 458.122824 L 221.893573 462.121643 L 221.990761 466.120462 L 222.087949 470.119281 L 222.102770 474.118721 L 222.065985 478.118553 L 222.029199 482.118383 L 221.992413 486.118215 L 221.955627 490.118045 L 221.918841 494.117877 L 221.882055 498.117706 L 221.845269 502.117538 L 221.808483 506.117368 L 221.771697 510.117200 L 221.734912 514.117031 L 221.698126 518.116862 L 221.661340 522.116692 L 221.597219 526.116062 L 221.499316 530.114865 L 221.401412 534.113666 L 221.303508 538.112467 L 221.205604 542.111270 L 221.107700 546.110071 L 221.009796 550.108872 L 220.911893 554.107675 L 220.813989 558.106475 L 220.716085 562.105278 L 220.618181 566.104080 L 220.520277 570.102880 L 220.422374 574.101683 L 220.324470 578.100484 L 220.226566 582.099286 L 220.128662 586.098088 L 220.016238 590.096454 L 219.874086 594.093927 L 219.731935 598.091400 L 219.589783 602.088873 L 219.447631 606.086346 L 219.305480 610.083820 L 219.163328 614.081294 L 219.021177 618.078767 L 218.879025 622.076240 L 218.736873 626.073714 L 218.533474 630.067676 L 218.217868 634.055206 L 218.035536 636.358878" fill="none" id="20" stroke="black" stroke-width="0.608375" /><path d="M 22.894915 186.487788 L 21.619450 188.200746 L 22.616761 189.535492 L 24.473036 190.097158" fill="none" id="21" stroke="black" stroke-width="0.608375" /><path d="M 222.832416 242.890128 L 219.040288 242.520456 L 216.115758 245.087392 L 218.146036 246.623439 L 219.547256 246.854968" fill="none" id="24" stroke="black" stroke-width="0.608375" /><path d="M 105.777726 97.745598 L 104.906635 95.837738 L 105.028408 97.721238 L 106.075933 101.549989 L 107.389713 105.328082 L 107.676165 106.151848" fill="none" id="25" stroke="black" stroke-width="0.608375" /><path d="M 115.988665 97.163567 L 119.650776 95.554547 L 123.323143 93.978534 L 121.872224 94.556435 L 118.949606 95.683098" fill="none" id="26" stroke="black" stroke-width="0.608375" /><path d="M 261.262106 41.632317 L 258.769852 39.183097 L 257.269916 41.223527 L 257.269916 45.223527 L 257.269916 45.370597" fill="none" id="27" stroke="black" stroke-width="0.608375" /><path d="M 271.988666 38.991687 L 271.601945 41.754700 L 271.604871 37.970835 L 271.713114 41.969370 L 271.797256 45.077627" fill="none" id="28" stroke="black" stroke-width="0.608375" /><path d="M 261.457416 447.597158 L 262.478591 451.464611 L 263.129286 454.675673 L 262.647480 450.920702 L 261.766638 447.057150 L 261.303744 443.087792 L 261.006764 439.098832 L 260.941786 438.226067" fill="none" id="29" stroke="black" stroke-width="0.608375" /><path d="M 277.305066 0.304187 L 277.106118 4.299237 L 276.907170 8.294287 L 276.533962 12.273882 L 276.026778 16.241598 L 275.519595 20.209314 L 275.012410 24.177029 L 274.403890 28.130184 L 273.773461 32.080191 L 273.143034 36.030198 L 272.512606 39.980206 L 271.882177 43.930214 L 271.230237 47.876656 L 270.552673 51.818852 L 269.875108 55.761047 L 269.197541 59.703243 L 268.519976 63.645438 L 267.842412 67.587634 L 267.164847 71.529829 L 266.487281 75.472026 L 265.809717 79.414220 L 265.248907 83.373976 L 264.736979 87.341082 L 264.225051 91.308188 L 263.713122 95.275294 L 263.201194 99.242399 L 262.689268 103.209505 L 262.177340 107.176611 L 261.665412 111.143717 L 261.169019 115.112487 L 260.829534 119.098055 L 260.490048 123.083621 L 260.150562 127.069189 L 259.811075 131.054757 L 259.471588 135.040325 L 259.132103 139.025892 L 258.792617 143.011460 L 258.453130 146.997028 L 258.113645 150.982595 L 257.838788 154.973073 L 257.572330 158.964188 L 257.305871 162.955303 L 257.039413 166.946418 L 256.772954 170.937533 L 256.506496 174.928648 L 256.240036 178.919763 L 255.973579 182.910877 L 255.707120 186.901994 L 255.440662 190.893109 L 255.174203 194.884224 L 254.907745 198.875338 L 254.617604 202.864767 L 254.315974 206.853379 L 254.014342 210.841990 L 253.712712 214.830601 L 253.411081 218.819213 L 253.109450 222.807824 L 252.807819 226.796435 L 252.506189 230.785046 L 252.204558 234.773657 L 251.902927 238.762268 L 251.626255 242.752578 L 251.384539 246.745269 L 251.142823 250.737959 L 250.901107 254.730649 L 250.659390 258.723339 L 250.417674 262.716028 L 250.175958 266.708719 L 249.934242 270.701409 L 249.692526 274.694098 L 249.450810 278.686788 L 249.237025 282.680537 L 249.175910 286.680070 L 249.114795 290.679602 L 249.053680 294.679136 L 248.992565 298.678669 L 248.931450 302.678202 L 248.870335 306.677734 L 248.809220 310.677268 L 248.748105 314.676802 L 248.686990 318.676334 L 248.637106 322.675953 L 248.637106 326.675953 L 248.637106 330.675953 L 248.637106 334.675953 L 248.637106 338.675953 L 248.637106 342.675953 L 248.637106 346.675953 L 248.637106 350.675953 L 248.637106 354.675953 L 248.637106 358.675953 L 248.637106 362.675953 L 248.637106 366.675953 L 248.637106 370.675953 L 248.511139 374.673884 L 248.379807 378.671728 L 248.248477 382.669572 L 248.117145 386.667415 L 247.985814 390.665258 L 247.854483 394.663102 L 247.723151 398.660946 L 247.591820 402.658789 L 247.460489 406.656632 L 247.329157 410.654475 L 247.083879 414.646024 L 246.773992 418.634002 L 246.464104 422.621980 L 246.445695 422.858878" fill="none" id="30" stroke="black" stroke-width="0.608375" /><path d="M 28.402726 187.745598 L 29.142790 186.571959 L 30.762743 186.942356 L 30.109756 187.456538" fill="none" id="31" stroke="black" stroke-width="0.608375" /><path d="M 96.273815 78.288567 L 96.271727 77.531831 L 98.522754 80.838321 L 100.956153 84.010938 L 103.436148 87.149349 L 105.916142 90.287761 L 108.396137 93.426171 L 110.876132 96.564583 L 113.356127 99.702995 L 115.836123 102.841405 L 118.304859 105.988664 L 120.767623 109.140614 L 123.230389 112.292563 L 125.693153 115.444513 L 128.155919 118.596463 L 130.618683 121.748414 L 133.081448 124.900364 L 135.544213 128.052314 L 138.006977 131.204265 L 140.469741 134.356215 L 142.932507 137.508166 L 145.190876 140.807400 L 147.401504 144.141035 L 149.612133 147.474669 L 151.822761 150.808304 L 154.033389 154.141939 L 156.244018 157.475574 L 158.454645 160.809209 L 160.665275 164.142843 L 162.875903 167.476479 L 165.086532 170.810113 L 167.297160 174.143749 L 167.558976 174.538567" fill="none" id="32" stroke="black" stroke-width="0.608375" /><path d="M 108.609755 92.335437 L 106.273197 89.088825 L 103.796050 85.949744 L 105.606691 88.822512 L 108.174470 91.889515 L 110.742250 94.956518 L 113.339534 97.998159 L 115.986070 100.997467 L 118.632607 103.996775 L 121.279144 106.996082 L 123.925680 109.995390 L 126.572215 112.994698 L 129.218752 115.994006 L 131.865288 118.993313 L 134.436481 122.056016 L 136.939198 125.176339 L 139.441913 128.296661 L 141.944631 131.416984 L 144.447347 134.537306 L 146.950063 137.657628 L 149.452780 140.777950 L 151.955497 143.898272 L 154.458213 147.018595 L 156.960929 150.138917 L 159.463646 153.259239 L 161.966362 156.379561 L 164.469079 159.499883 L 166.971795 162.620204 L 169.291576 165.877477 L 171.580560 169.157806 L 173.869545 172.438134 L 176.158529 175.718462 L 178.447513 178.998790 L 180.736497 182.279118 L 183.025481 185.559446 L 185.314465 188.839774 L 187.603449 192.120102 L 189.892433 195.400430 L 192.181417 198.680757 L 194.470401 201.961086 L 196.759385 205.241414 L 199.048369 208.521742 L 201.337353 211.802070 L 203.626337 215.082398 L 205.915321 218.362727 L 208.204305 221.643055 L 210.493289 224.923383 L 212.782273 228.203710 L 215.071257 231.484039 L 217.308715 234.799160 L 219.496079 238.148106 L 221.683442 241.497051 L 223.870806 244.845997 L 226.058170 248.194943 L 228.245534 251.543889 L 230.432898 254.892835 L 232.620261 258.241781 L 234.807626 261.590727 L 236.994990 264.939673 L 239.182354 268.288618 L 241.369718 271.637564 L 243.129286 274.331538" fill="none" id="33" stroke="black" stroke-width="0.608375" /><path d="M 103.488665 82.573718 L 104.484239 85.879525 L 106.677486 89.173765 L 109.243609 92.242154 L 111.809732 95.310542 L 114.375856 98.378931 L 116.941980 101.447321 L 119.508104 104.515709 L 122.074227 107.584097 L 124.640350 110.652486 L 127.177616 113.744746 L 129.710585 116.840563 L 132.243552 119.936379 L 134.776519 123.032195 L 137.309487 126.128011 L 139.842454 129.223826 L 142.375422 132.319642 L 144.908389 135.415458 L 147.441357 138.511274 L 149.974324 141.607090 L 152.507292 144.702906 L 155.040259 147.798721 L 157.573226 150.894538 L 159.967806 154.095373 L 162.267746 157.368029 L 164.567686 160.640685 L 166.867626 163.913341 L 169.167566 167.185997 L 171.467506 170.458652 L 173.767446 173.731308 L 176.067385 177.003964 L 178.367325 180.276620 L 180.667265 183.549276 L 182.967205 186.821932 L 185.267145 190.094588 L 187.567085 193.367244 L 189.867025 196.639900 L 192.166964 199.912556 L 194.466904 203.185211 L 196.766844 206.457867 L 199.066784 209.730523 L 201.366724 213.003179 L 203.633701 216.298247 L 205.831260 219.640511 L 208.028818 222.982776 L 210.226378 226.325041 L 212.423937 229.667305 L 214.234756 232.421378" fill="none" id="34" stroke="black" stroke-width="0.608375" /><path d="M 185.758195 125.577627 L 183.209140 123.128407 L 180.766006 125.577627" fill="none" id="35" stroke="black" stroke-width="0.608375" /><path d="M 264.742566 31.390128 L 263.281634 27.668334 L 264.024844 29.526188 L 266.327684 32.758975 L 268.837736 35.873399 L 271.347786 38.987824 L 273.885425 42.078505 L 276.591331 45.024363 L 279.297236 47.970220 L 282.003142 50.916078 L 284.709047 53.861935 L 287.414953 56.807792 L 290.120857 59.753650 L 292.826764 62.699507 L 295.532668 65.645365 L 298.238574 68.591223 L 300.944479 71.537080 L 303.557974 74.561270 L 306.020847 77.713135 L 308.483721 80.865000 L 310.946595 84.016865 L 313.409468 87.168730 L 315.872342 90.320595 L 318.335216 93.472460 L 320.798090 96.624325 L 323.260963 99.776190 L 325.723837 102.928055 L 328.186711 106.079921 L 330.649585 109.231786 L 333.112458 112.383651 L 335.575332 115.535516 L 337.996028 118.719110 L 340.341589 121.959223 L 342.687152 125.199337 L 345.032713 128.439453 L 347.378275 131.679567 L 349.723837 134.919680 L 352.069399 138.159795 L 354.414960 141.399909 L 356.760522 144.640024 L 359.106084 147.880138 L 361.451644 151.120252 L 363.797207 154.360366 L 366.142768 157.600481 L 368.488331 160.840595 L 370.833891 164.080709 L 373.179454 167.320823 L 375.525015 170.560938 L 377.098036 172.733878" fill="none" id="36" stroke="black" stroke-width="0.608375" /><path d="M 114.281635 77.194817 L 117.420459 74.726509 L 119.455011 76.149496 L 118.293177 79.977046 L 116.318143 83.429808 L 114.162903 86.799516 L 112.007661 90.169225 L 109.540213 93.316998 L 107.065905 96.459895 L 104.591595 99.602790 L 102.117285 102.745685 L 99.641370 105.887279 L 97.078570 108.958444 L 94.515771 112.029609 L 91.952969 115.100775 L 89.390169 118.171940 L 86.827370 121.243105 L 84.264569 124.314270 L 81.701769 127.385435 L 79.138970 130.456601 L 76.576168 133.527767 L 74.062778 136.639224 L 71.570042 139.767525 L 69.077304 142.895825 L 66.584567 146.024124 L 64.091831 149.152426 L 61.599094 152.280726 L 59.106357 155.409026 L 56.613620 158.537326 L 54.120883 161.665627 L 51.671792 164.827934 L 49.247948 168.009910 L 46.824103 171.191887 L 44.400258 174.373863 L 41.976413 177.555840 L 39.552568 180.737817 L 37.128723 183.919794 L 34.704878 187.101771 L 32.281551 190.284134 L 29.920113 193.512695 L 27.918356 196.249498" fill="none" id="37" stroke="black" stroke-width="0.608375" /><path d="M 156.894916 344.132317 L 156.200885 344.800479 L 156.121476 346.936998" fill="none" id="38" stroke="black" stroke-width="0.608375" /><path d="M 212.914445 296.909658 L 212.198641 297.109765 L 213.812886 299.101067" fill="none" id="39" stroke="black" stroke-width="0.608375" /><path d="M 211.238666 338.593248 L 213.904206 337.920743 L 211.172256 339.077628" fill="none" id="40" stroke="black" stroke-width="0.608375" /><path d="M 203.215226 346.261217 L 204.471433 342.463594 L 205.727640 338.665971 L 207.572361 335.127440 L 208.917657 336.607830 L 212.583191 336.550158 L 216.509683 335.786832 L 220.205665 334.306566 L 223.841275 332.638531 L 227.476885 330.970498 L 231.112496 329.302463 L 231.500386 329.124498" fill="none" id="41" stroke="black" stroke-width="0.608375" /><path d="M 205.117566 344.327628 L 208.402284 342.049509 L 211.796063 339.932567 L 215.146013 337.746740 L 218.495963 335.560915 L 221.845913 333.375090 L 225.141461 331.108173 L 228.434449 328.837440 L 231.727438 326.566706 L 235.020426 324.295973 L 238.313414 322.025239 L 241.606402 319.754506 L 244.876740 317.451273 L 248.147028 315.147966 L 251.417316 312.844662 L 254.687604 310.541356 L 257.957891 308.238049 L 261.228179 305.934744 L 264.498467 303.631438 L 267.768755 301.328133 L 271.039042 299.024827 L 274.309330 296.721520 L 277.579617 294.418215 L 280.930448 292.236120 L 284.320829 290.113545 L 287.711208 287.990972 L 291.101589 285.868399 L 294.491970 283.745825 L 297.882351 281.623251 L 301.272731 279.500676 L 304.663112 277.378103 L 308.053493 275.255529 L 311.443872 273.132955 L 314.875022 271.078770 L 318.354650 269.105908 L 321.834280 267.133047 L 325.313909 265.160185 L 328.793538 263.187323 L 332.273167 261.214462 L 335.752795 259.241601 L 339.232425 257.268738 L 342.712054 255.295878 L 346.191683 253.323016 L 349.720717 251.439995 L 353.250428 249.558204 L 356.780140 247.676412 L 360.309851 245.794620 L 363.839562 243.912829 L 367.369273 242.031036 L 370.898983 240.149246 L 374.454551 238.318080 L 378.048332 236.561739 L 381.642113 234.805397 L 385.235896 233.049057 L 388.829677 231.292716 L 392.452219 229.597255 L 396.091283 227.936770 L 397.066786 227.593248" fill="none" id="42" stroke="black" stroke-width="0.608375" /><path d="M 178.734756 201.050288 L 180.758644 203.115189 L 184.329187 204.918304 L 187.988489 206.527645 L 191.685950 208.053678 L 195.383412 209.579711 L 199.080874 211.105744 L 202.912841 212.235294 L 206.775614 213.274034 L 210.638387 214.312776 L 214.501161 215.351517 L 218.363934 216.390257 L 222.226707 217.428998 L 226.131590 218.295833 L 230.037125 219.160009 L 233.942659 220.024186 L 237.848194 220.888362 L 241.753728 221.752538 L 245.659263 222.616714 L 249.564796 223.480891 L 253.470331 224.345067 L 257.398019 225.101653 L 261.327264 225.850673 L 265.256508 226.599694 L 269.185755 227.348714 L 273.115000 228.097735 L 277.044244 228.846756 L 280.973490 229.595776 L 284.902736 230.344797 L 288.831980 231.093818 L 292.771642 231.783495 L 296.721086 232.417450 L 300.670528 233.051406 L 304.619972 233.685361 L 308.569414 234.319317 L 312.518858 234.953273 L 316.468300 235.587229 L 320.417744 236.221185 L 324.367187 236.855140 L 328.316630 237.489096 L 332.266073 238.123052 L 336.215516 238.757007 L 340.150679 239.467153 L 344.061634 240.306458 L 347.972589 241.145762 L 351.883544 241.985067 L 355.794498 242.824371 L 359.705453 243.663676 L 363.616408 244.502980 L 367.527363 245.342285 L 369.461316 245.757317" fill="none" id="44" stroke="black" stroke-width="0.608375" /><path d="M 19.578506 317.913567 L 15.957731 316.213570 L 12.562321 314.160280 L 9.494410 311.593584 L 6.516148 308.927117 L 3.637039 306.150296 L 0.304187 303.950703 L 1.976993 303.390738 L 5.950990 303.792630 L 9.786066 304.929372 L 13.621143 306.066114 L 17.456222 307.202855 L 21.234358 308.510514 L 24.984922 309.900935 L 28.735486 311.291355 L 32.486050 312.681776 L 36.236613 314.072197 L 39.929975 315.601587 L 43.572553 317.254348 L 47.215132 318.907109 L 50.857710 320.559870 L 54.500290 322.212631 L 58.142868 323.865394 L 61.785447 325.518155 L 65.398943 327.233456 L 69.010039 328.953914 L 72.621138 330.674373 L 76.232235 332.394831 L 79.843331 334.115289 L 83.454430 335.835747 L 87.065527 337.556205 L 90.676623 339.276663 L 94.287722 340.997121 L 97.898819 342.717579 L 101.584107 344.271181 L 105.280462 345.799892 L 108.976816 347.328603 L 112.673171 348.857316 L 116.369526 350.386028 L 120.065882 351.914738 L 123.762237 353.443451 L 127.458592 354.972162 L 131.151675 356.508565 L 134.816291 358.111872 L 138.480906 359.715178 L 142.145522 361.318485 L 145.810138 362.921791 L 149.474753 364.525098 L 153.139369 366.128404 L 156.752351 367.840553 L 160.312282 369.664530 L 163.872213 371.488507 L 167.432144 373.312483 L 170.992075 375.136460 L 174.552006 376.960437 L 178.111937 378.784414 L 181.671868 380.608390 L 185.231799 382.432367 L 188.791730 384.256344 L 192.344747 386.093598 L 195.880533 387.963953 L 199.416318 389.834307 L 202.952103 391.704660 L 206.487887 393.575015 L 210.023673 395.445369 L 213.559458 397.315722 L 217.137548 399.102720 L 220.734574 400.852408 L 224.331600 402.602095 L 227.928625 404.351782 L 231.525651 406.101470 L 235.160693 407.770182 L 238.804625 409.419958 L 242.448557 411.069732 L 246.092489 412.719509 L 246.219136 412.776848" fill="none" id="45" stroke="black" stroke-width="0.608375" /><path d="M 205.664445 385.882317 L 208.377798 387.976067 L 206.363061 386.921766 L 202.826726 385.052453 L 199.272145 383.224313 L 195.511869 381.860378 L 191.751593 380.496442 L 187.991316 379.132506 L 184.231040 377.768570 L 180.465562 376.419747 L 176.662337 375.180602 L 172.859112 373.941457 L 169.055888 372.702312 L 165.252663 371.463166 L 161.449438 370.224021 L 157.894916 369.065908" fill="none" id="46" stroke="black" stroke-width="0.608375" /><path d="M 218.066786 392.452628 L 215.226539 390.960046 L 211.583176 392.584753 L 207.763602 392.461449 L 207.437886 392.421378" fill="none" id="47" stroke="black" stroke-width="0.608375" /><path d="M 158.730856 339.655748 L 160.107169 341.269899 L 163.758391 342.866757 L 167.553955 344.129050 L 171.383083 345.285674 L 175.179450 346.533809 L 178.872633 348.070169 L 182.664799 349.306314 L 186.547520 350.267811 L 190.513021 350.466964 L 193.715226 350.382317" fill="none" id="50" stroke="black" stroke-width="0.608375" /><path d="M 211.430066 338.917467 L 209.681860 342.429297 L 206.924110 345.304924 L 203.486199 347.329009 L 199.798338 348.867005 L 196.022498 350.157970 L 192.042511 350.557590 L 188.054664 350.800288 L 184.054664 350.800288 L 180.054664 350.800288 L 176.122390 350.247066 L 172.240515 349.282159 L 168.358640 348.317252 L 164.597285 347.071386 L 161.222805 344.923623 L 157.848325 342.775860 L 154.473845 340.628097 L 152.289445 339.237788" fill="none" id="51" stroke="black" stroke-width="0.608375" /><path d="M 27.469136 272.686998 L 26.622754 270.705136 L 28.167953 274.361691 L 30.260017 277.764814 L 32.684249 280.946496 L 35.320285 283.909460 L 38.578170 286.230275 L 41.836056 288.551089 L 45.093941 290.871906 L 48.351826 293.192721 L 51.770511 295.263577 L 55.233148 297.266112 L 58.695785 299.268646 L 62.158423 301.271181 L 65.621060 303.273716 L 69.162679 305.128400 L 72.752305 306.893217 L 76.341932 308.658037 L 79.931557 310.422856 L 83.521183 312.187674 L 84.226945 312.534658" fill="none" id="52" stroke="black" stroke-width="0.608375" /><path d="M 28.820696 273.331538 L 25.454121 273.057176 L 26.786518 276.828743 L 28.795920 280.256597 L 31.054437 283.557975 L 33.312953 286.859353 L 35.903292 289.878572 L 38.798775 292.638314 L 41.694260 295.398055 L 44.589742 298.157798 L 47.714862 300.643169 L 50.941429 303.007333 L 54.167995 305.371496 L 57.394562 307.735658 L 60.621129 310.099823 L 64.261048 311.716827 L 67.978234 313.194163 L 71.695420 314.671498 L 75.412607 316.148836 L 79.129795 317.626171 L 82.846981 319.103508 L 86.586354 320.510437 L 90.478993 321.430959 L 94.371631 322.351481 L 98.264270 323.272004 L 101.621476 324.065908" fill="none" id="53" stroke="black" stroke-width="0.608375" /><path d="M 27.082415 319.718248 L 26.798849 315.752076 L 29.087112 312.660941 L 32.319002 310.304060 L 36.156290 309.238821 L 40.072090 308.806918 L 44.047132 309.253057 L 48.022174 309.699196 L 51.938030 310.463850 L 55.807996 311.475463 L 59.677962 312.487077 L 63.547928 313.498692 L 63.805065 313.565908" fill="none" id="55" stroke="black" stroke-width="0.608375" /><path d="M 210.367566 394.644038 L 210.292032 390.647717 L 209.595909 386.719682 L 208.473118 382.881338 L 207.303830 379.056412 L 205.639932 375.432402 L 203.370159 372.143217 L 200.623694 369.241971 L 197.380251 366.906180 L 194.101090 364.616066 L 190.758456 362.419070 L 187.283498 360.455792 L 183.679751 358.719990 L 180.076003 356.984190 L 176.472256 355.248389 L 172.843404 353.567565 L 169.171490 351.981045 L 165.499575 350.394526 L 161.827660 348.808008 L 158.155745 347.221489 L 154.483831 345.634971 L 150.811915 344.048451 L 147.140001 342.461932 L 146.910536 342.362788" fill="none" id="56" stroke="black" stroke-width="0.608375" /><path d="M 362.922256 248.722158 L 362.776849 248.319629 L 362.230000 252.265861 L 361.668356 254.132317" fill="none" id="58" stroke="black" stroke-width="0.608375" /><path d="M 362.922256 248.206538 L 360.844221 251.472520 L 358.615625 254.757309 L 356.084779 257.854859 L 352.841081 260.147415 L 350.683976 261.511217" fill="none" id="59" stroke="black" stroke-width="0.608375" /><path d="M 362.891006 248.753408 L 359.432842 249.956893 L 357.500645 253.450326 L 355.355830 256.826681 L 352.399308 259.476840 L 349.205628 261.827039 L 345.311226 262.740072 L 341.416824 263.653107 L 337.522422 264.566141 L 333.535213 264.754816 L 329.536420 264.853067 L 325.537626 264.951318 L 321.538834 265.049570 L 317.540041 265.147821 L 313.548406 265.074919 L 309.571782 264.643102 L 305.595159 264.211288 L 301.618535 263.779471 L 297.641911 263.347656 L 293.665288 262.915840 L 291.090226 262.636217" fill="none" id="60" stroke="black" stroke-width="0.608375" /><path d="M 358.961316 301.776848 L 358.114777 305.662670 L 357.566477 302.574609 L 355.559440 299.215376 L 352.596429 296.528266 L 349.633419 293.841154 L 346.575730 291.280187 L 343.167962 289.185640 L 339.760196 287.091093 L 336.107950 285.527227 L 332.301436 284.298224 L 328.494921 283.069222 L 324.879286 281.901848" fill="none" id="62" stroke="black" stroke-width="0.608375" /><path d="M 200.863666 349.417467 L 199.082966 352.944042 L 201.940129 351.957481 L 205.461532 350.075337 L 208.824174 347.909089 L 212.186819 345.742841 L 215.549462 343.576594 L 218.912104 341.410346 L 222.274749 339.244099 L 225.637392 337.077851 L 225.734756 337.015128" fill="none" id="63" stroke="black" stroke-width="0.608375" /><path d="M 364.082416 247.948718 L 362.312658 251.535912 L 360.346073 255.015834 L 358.290611 258.447316 L 356.154351 261.822663 L 353.162000 264.440948 L 349.743271 266.510158 L 346.095512 268.096621 L 342.209868 268.607762 L 338.233784 268.171001 L 334.339315 267.265202 L 330.449396 266.333253 L 326.559477 265.401304 L 323.496476 264.667467" fill="none" id="64" stroke="black" stroke-width="0.608375" /><path d="M 337.863666 286.409658 L 340.986083 288.909761 L 342.371476 290.019038" fill="none" id="66" stroke="black" stroke-width="0.608375" /><path d="M 359.863666 305.737788 L 358.330571 302.985411 L 355.729171 299.960843 L 353.530811 296.624222 L 351.204532 293.382303 L 348.227870 290.720992 L 344.779909 288.727189 L 341.226205 286.891107 L 337.419328 285.689907 L 333.577335 284.576762 L 329.735342 283.463617 L 325.893349 282.350473 L 321.978844 281.540173 L 318.049337 280.792527 L 314.119830 280.044881 L 310.190323 279.297234 L 306.777726 278.647938" fill="none" id="67" stroke="black" stroke-width="0.608375" /><path d="M 306.746476 269.144038 L 306.355142 271.391241 L 309.923633 273.198411 L 313.492125 275.005582 L 317.060618 276.812751 L 320.367568 279.057511 L 323.649216 281.344602 L 326.930863 283.631694 L 330.212512 285.918785 L 333.494159 288.205876 L 336.775806 290.492968 L 339.748783 293.161434 L 342.669573 295.894380 L 345.590363 298.627323 L 348.511153 301.360269 L 351.431942 304.093212 L 354.352733 306.826158 L 355.289445 307.702628" fill="none" id="68" stroke="black" stroke-width="0.608375" /><path d="M 306.844135 271.561998 L 309.832318 272.674840 L 313.792177 273.152391 L 317.791273 273.067399 L 321.790370 272.982406 L 325.740310 272.476712 L 329.651270 271.637434 L 333.562230 270.798158 L 337.473191 269.958881 L 341.367908 269.047607 L 345.260328 268.126161 L 348.848036 267.276848" fill="none" id="69" stroke="black" stroke-width="0.608375" /><path d="M 298.211316 269.628408 L 301.590003 269.414021 L 305.581262 269.641806 L 309.581064 269.681604 L 313.578055 269.825637 L 317.558737 270.147689 L 321.491479 270.867656 L 325.407387 271.605564 L 329.401928 271.792668 L 333.397964 271.879804 L 337.389503 272.011217 L 341.267849 271.151684 L 344.853718 269.403550 L 347.825769 266.779080 L 350.355736 263.695472 L 352.597537 260.382721 L 354.481035 256.882835 L 355.918876 253.150194 L 356.383195 251.944817" fill="none" id="70" stroke="black" stroke-width="0.608375" /><path d="M 295.504286 273.589348 L 299.491989 273.902740 L 303.403111 274.644764 L 307.252613 275.731651 L 311.102118 276.818537 L 314.653639 278.618143 L 318.131204 280.594642 L 321.608767 282.571140 L 325.086332 284.547639 L 328.334510 286.868155 L 331.496082 289.318555 L 334.657654 291.768955 L 337.819226 294.219356 L 340.980798 296.669756 L 344.035704 299.243369 L 346.913614 302.021430 L 349.791527 304.799491 L 352.669438 307.577553 L 355.000385 309.827628" fill="none" id="71" stroke="black" stroke-width="0.608375" /><path d="M 303.812885 271.335438 L 301.661969 268.088889 L 304.815440 270.335349 L 308.679474 271.353777 L 312.609636 272.097969 L 316.340619 273.501537 L 319.924376 275.263880 L 323.483279 277.073905 L 327.224472 278.486514 L 330.978386 279.851653 L 334.199471 282.223281 L 337.566689 284.368768 L 340.826954 286.666760 L 343.356620 289.764502 L 345.605163 293.069836 L 347.518136 296.582745 L 348.885959 300.326864 L 350.081780 304.143933 L 350.684195 308.071578 L 350.943470 312.063168 L 351.202745 316.054755 L 351.462021 320.046344 L 351.488666 320.456538" fill="none" id="72" stroke="black" stroke-width="0.608375" /><path d="M 12.586315 509.604967 L 13.342372 509.074030 L 17.071618 510.519158 L 20.776979 512.025909 L 24.482340 513.532661 L 28.187702 515.039412 L 31.888552 516.556869 L 35.555214 518.155491 L 39.221875 519.754114 L 42.888537 521.352736 L 46.555198 522.951358 L 50.221860 524.549982 L 53.888521 526.148605 L 57.555183 527.747227 L 61.221843 529.345849 L 64.877732 530.967606 L 68.461068 532.745160 L 72.044404 534.522716 L 75.627741 536.300271 L 79.211078 538.077826 L 82.794414 539.855381 L 86.377749 541.632935 L 89.961086 543.410490 L 93.544422 545.188045 L 97.127758 546.965600 L 100.711095 548.743155 L 104.294432 550.520708 L 107.877768 552.298263 L 111.409188 554.173991 L 114.895522 556.134982 L 118.381853 558.095974 L 121.868185 560.056966 L 125.354518 562.017956 L 128.840851 563.978949 L 132.327183 565.939940 L 135.813515 567.900931 L 139.299847 569.861922 L 142.786180 571.822914 L 146.272512 573.783906 L 149.758844 575.744896 L 153.245176 577.705889 L 156.731509 579.666880 L 160.217841 581.627871 L 163.704172 583.588863 L 167.190505 585.549854 L 170.670848 587.521338 L 174.132103 589.526261 L 177.593358 591.531183 L 181.054612 593.536106 L 184.515867 595.541030 L 187.977122 597.545952 L 191.438377 599.550874 L 194.899631 601.555798 L 198.360886 603.560721 L 199.320695 604.116688" fill="none" id="73" stroke="black" stroke-width="0.608375" /><path d="M 229.469136 621.573718 L 226.092737 619.457410 L 222.430644 617.848352 L 218.701690 616.401732 L 214.967988 614.966647 L 211.234285 613.531562 L 207.500585 612.096475 L 203.777871 610.634308 L 200.099804 609.062105 L 196.421738 607.489899 L 192.743671 605.917696 L 189.293944 603.896984 L 185.858733 601.847758 L 182.423522 599.798531 L 178.988312 597.749305 L 175.647249 595.557258 L 172.409873 593.207919 L 169.172497 590.858579 L 165.935121 588.509239 L 162.697744 586.159899 L 159.460369 583.810560 L 156.259726 581.411551 L 153.065348 579.004074 L 149.870970 576.596596 L 146.676594 574.189117 L 143.482216 571.781638 L 140.287839 569.374161 L 137.093461 566.966682 L 133.899084 564.559203 L 130.632893 562.253387 L 127.296216 560.047352 L 123.959538 557.841319 L 120.622861 555.635285 L 117.286183 553.429250 L 113.949506 551.223217 L 110.612830 549.017183 L 107.276152 546.811150 L 103.904640 544.658874 L 100.527892 542.514678 L 97.151145 540.370481 L 93.774399 538.226286 L 90.397650 536.082089 L 87.020904 533.937892 L 83.644156 531.793697 L 80.267409 529.649500 L 76.863576 527.549124 L 73.435828 525.487439 L 70.008080 523.425755 L 66.580332 521.364070 L 63.152584 519.302385 L 59.724836 517.240700 L 56.297089 515.179015 L 55.816785 514.890128" fill="none" id="74" stroke="black" stroke-width="0.608375" /><path d="M 362.793356 153.405748 L 365.361994 154.895493 L 366.660536 158.401848" fill="none" id="75" stroke="black" stroke-width="0.608375" /><path d="M 155.445695 344.714348 L 158.989593 346.389719 L 162.757550 347.721334 L 166.402617 349.368600 L 170.252448 350.335124 L 174.179618 351.026781 L 178.137671 351.516482 L 181.982630 352.586948 L 185.941426 353.091923 L 189.894106 353.670690 L 193.893818 353.718643 L 197.799696 353.133306 L 201.574736 351.829633 L 204.432886 349.207493 L 206.339663 345.691216 L 208.041586 342.073008 L 209.696478 338.431396 L 210.778479 334.582262 L 211.269916 332.796378" fill="none" id="79" stroke="black" stroke-width="0.608375" /><path d="M 332.129286 281.351067 L 335.509392 283.489964 L 338.889499 285.628862 L 342.127434 287.968437 L 345.266286 290.447877 L 348.105856 292.690908" fill="none" id="80" stroke="black" stroke-width="0.608375" /><path d="M 331.164445 281.675288 L 329.152830 281.753791 L 332.997353 282.858168 L 336.610636 284.565171 L 338.152726 285.315908" fill="none" id="81" stroke="black" stroke-width="0.608375" /><path d="M 329.035536 279.644038 L 332.459161 281.707731 L 336.008488 283.549481 L 339.635825 285.235433 L 342.970833 287.432821 L 346.169267 289.813686 L 348.915706 292.721790 L 351.560063 295.709238 L 353.700357 299.088459 L 355.776035 302.496684 L 356.878315 306.341808 L 357.980595 310.186932 L 358.512106 313.917467" fill="none" id="82" stroke="black" stroke-width="0.608375" /><path d="M 27.402726 316.655748 L 29.335441 313.293306 L 32.409000 310.799195 L 36.017660 309.087409 L 39.946447 308.335983 L 43.875232 307.584558 L 47.676649 308.527696 L 51.448969 309.857960 L 55.221289 311.188224 L 57.488665 311.987788" fill="none" id="83" stroke="black" stroke-width="0.608375" /><path d="M 27.113665 268.694817 L 26.909782 271.880355 L 27.910363 275.746370 L 29.183110 279.538481 L 31.291532 282.893124 L 33.657915 286.117646 L 35.896845 289.429257 L 38.548733 292.417418 L 41.532869 295.081049 L 44.561372 297.693384 L 47.627323 300.262419 L 50.693275 302.831454 L 53.759227 305.400488 L 56.881206 307.901108 L 60.004257 310.400418 L 62.226945 312.179188" fill="none" id="84" stroke="black" stroke-width="0.608375" /><path d="M 35.777725 288.472158 L 38.349946 291.535438 L 41.056752 294.474695 L 43.900011 297.288212 L 46.804434 300.034345 L 49.879348 302.592646 L 52.954262 305.150947 L 56.192628 307.497175 L 59.453487 309.813563 L 62.809361 311.990284 L 64.738665 313.241688" fill="none" id="85" stroke="black" stroke-width="0.608375" /><path d="M 61.805065 308.733878 L 60.995334 308.780127 L 57.772075 306.411935 L 54.608593 303.964001 L 51.381190 301.603205 L 47.980517 299.500767 L 44.897194 296.983320 L 42.405397 293.883077 L 40.533665 290.348022 L 38.661931 286.812966 L 36.810892 283.267469 L 35.079199 279.661744 L 35.070695 279.644038" fill="none" id="86" stroke="black" stroke-width="0.608375" /><path d="M 58.812886 306.866688 L 55.564950 304.531969 L 52.317014 302.197249 L 49.069080 299.862529 L 46.033292 297.262584 L 43.285602 294.356440 L 40.679087 291.322983 L 38.295963 288.113697 L 35.845401 284.954426 L 33.564974 281.671531 L 31.437952 278.296744 L 30.238665 275.038567" fill="none" id="87" stroke="black" stroke-width="0.608375" /><path d="M 217.133195 231.843248 L 218.361983 233.667355 L 218.277358 232.766123 L 219.195695 232.776848" fill="none" id="88" stroke="black" stroke-width="0.608375" /><path d="M 217.871476 221.987788 L 217.956277 225.986889 L 218.265418 229.973793 L 218.614652 233.958519 L 218.963886 237.943244 L 219.182577 241.934504 L 219.233023 245.934186 L 219.283470 249.933868 L 219.333917 253.933549 L 219.384363 257.933232 L 219.434810 261.932913 L 219.485256 265.932595 L 219.516006 269.932402 L 219.516006 273.932402 L 219.490251 277.931655 L 219.258544 281.924938 L 219.026840 285.918222 L 218.795134 289.911506 L 218.563428 293.904788 L 218.331722 297.898072 L 218.100016 301.891356 L 217.868311 305.884638 L 217.620230 309.876328 L 217.077821 313.839382 L 216.535411 317.802436 L 215.993002 321.765490 L 215.450592 325.728543 L 214.908183 329.691596 L 214.365774 333.654650 L 213.823365 337.617703 L 213.280955 341.580756 L 212.738546 345.543810 L 212.196137 349.506863 L 211.653727 353.469917 L 211.111318 357.432970 L 210.568909 361.396023 L 210.026499 365.359077 L 209.484090 369.322130 L 208.941681 373.285184 L 208.399272 377.248237 L 207.862090 381.211991 L 207.341852 385.178016 L 206.821614 389.144040 L 206.301375 393.110065 L 205.781137 397.076090 L 205.260899 401.042115 L 204.740661 405.008139 L 204.220423 408.974164 L 203.700185 412.940189 L 203.179946 416.906214 L 202.659708 420.872238 L 202.139470 424.838262 L 201.619232 428.804287 L 201.098994 432.770312 L 200.578755 436.736336 L 200.058518 440.702361 L 199.626777 444.678776 L 199.214374 448.657459 L 198.801971 452.636143 L 198.389567 456.614826 L 197.977164 460.593510 L 197.564761 464.572194 L 197.152358 468.550878 L 196.739955 472.529561 L 196.327551 476.508244 L 195.915148 480.486929 L 195.502745 484.465612 L 195.090342 488.444296 L 194.677939 492.422979 L 194.265535 496.401662 L 193.886471 500.383484 L 193.549448 504.369260 L 193.212425 508.355037 L 192.910536 511.925288" fill="none" id="89" stroke="black" stroke-width="0.608375" /><path d="M 311.996476 590.585438 L 311.910978 586.588619 L 311.930557 582.588667 L 310.000836 581.077635 L 309.771767 579.510202 L 309.353596 582.355118 L 311.160536 579.280747" fill="none" id="93" stroke="black" stroke-width="0.608375" /><path d="M 366.402726 158.175288 L 366.745694 162.160557 L 367.088662 166.145826 L 367.431629 170.131096 L 367.774598 174.116366 L 368.117566 178.101635 L 368.460533 182.086905 L 368.803502 186.072174 L 369.146470 190.057444 L 369.489438 194.042713 L 369.706881 198.036757 L 369.921693 202.030985 L 370.136505 206.025213 L 370.351318 210.019441 L 370.566132 214.013668 L 370.780944 218.007896 L 370.995757 222.002124 L 371.210570 225.996352 L 371.425383 229.990580 L 371.640196 233.984807 L 371.668215 237.982174 L 371.587710 241.981363 L 371.507204 245.980553 L 371.426697 249.979743 L 371.346193 253.978933 L 371.265687 257.978122 L 371.185181 261.977311 L 371.104675 265.976501 L 371.024171 269.975692 L 370.943665 273.974882 L 370.910536 275.620598" fill="none" id="94" stroke="black" stroke-width="0.608375" /><path d="M 356.351945 504.163567 L 356.319344 500.163701 L 356.289445 496.495598" fill="none" id="95" stroke="black" stroke-width="0.608375" /><path d="M 354.902726 491.503408 L 357.906118 491.272602 L 354.336412 491.943242 L 350.349918 492.271659 L 346.364286 492.605463 L 342.475230 493.541003 L 340.504286 494.015128" fill="none" id="96" stroke="black" stroke-width="0.608375" /><path d="M 362.148816 144.483878 L 365.033171 144.394731 L 366.160693 148.218432 L 367.197027 152.081851 L 368.233362 155.945271 L 369.315465 159.796111 L 370.399240 163.646492 L 371.483014 167.496873 L 372.566789 171.347254 L 373.650564 175.197634 L 374.685274 179.060540 L 375.579707 182.959257 L 376.474140 186.857973 L 377.368572 190.756690 L 378.263004 194.655406 L 379.157437 198.554123 L 380.051869 202.452840 L 380.946301 206.351556 L 381.840733 210.250273 L 382.668545 214.161945 L 383.300446 218.111718 L 383.932345 222.061490 L 384.564245 226.011263 L 385.196145 229.961035 L 385.828045 233.910808 L 386.459945 237.860580 L 387.091845 241.810353 L 387.723745 245.760125 L 388.355645 249.709897 L 388.987545 253.659670 L 389.619443 257.609442 L 390.251748 261.559148 L 390.903764 265.505651 L 391.555781 269.452152 L 392.207797 273.398654 L 392.859814 277.345156 L 393.511830 281.291656 L 394.163846 285.238158 L 394.815863 289.184660 L 395.467878 293.131162 L 396.119894 297.077663 L 396.771911 301.024164 L 397.423927 304.970666 L 398.075944 308.917168 L 398.727960 312.863670 L 399.379976 316.810171 L 400.192829 320.726495 L 401.015739 324.640933 L 401.838651 328.555369 L 402.661562 332.469807 L 403.484473 336.384244 L 404.307383 340.298680 L 405.130293 344.213118 L 405.953205 348.127555 L 406.776116 352.041991 L 407.599027 355.956430 L 408.421938 359.870867 L 409.244847 363.785303 L 410.067759 367.699741 L 410.890670 371.614178 L 411.752349 375.519062 L 412.842351 379.367684 L 413.932353 383.216307 L 415.022356 387.064930 L 416.112358 390.913552 L 417.202360 394.762175 L 418.292362 398.610796 L 419.382364 402.459420 L 420.472367 406.308042 L 421.562368 410.156665 L 422.652371 414.005287 L 423.742372 417.853909 L 424.832376 421.702532 L 425.922378 425.551154 L 427.012380 429.399777 L 428.102382 433.248400 L 429.192385 437.097022 L 430.283067 440.945436 L 431.532217 444.745386 L 432.781365 448.545338 L 434.030515 452.345289 L 435.279664 456.145240 L 436.528814 459.945190 L 437.777963 463.745140 L 439.027111 467.545092 L 440.276262 471.345043 L 441.525411 475.144993 L 442.359756 477.683098" fill="none" id="97" stroke="black" stroke-width="0.608375" /><path d="M 433.887106 480.581538 L 435.568201 479.306997 L 439.295305 479.464161 L 440.199606 478.874498" fill="none" id="98" stroke="black" stroke-width="0.608375" /><path d="M 270.023816 31.581537 L 270.090226 31.908456 L 269.445695 34.515127" fill="none" id="101" stroke="black" stroke-width="0.608375" /><path d="M 259.586316 471.468248 L 259.469338 467.497230 L 260.164624 463.558121 L 261.577641 459.853946 L 263.529885 456.379404 L 263.603927 455.068184 L 263.613666 455.038567" fill="none" id="102" stroke="black" stroke-width="0.608375" /><path d="M 374.293356 459.550288 L 376.217593 458.952820 L 374.773371 456.220138 L 377.632501 458.923717 L 379.738666 459.741688" fill="none" id="103" stroke="black" stroke-width="0.608375" /><path d="M 371.781635 448.886217 L 374.822082 449.988478 L 378.271368 452.013922 L 381.604913 454.202044 L 384.649259 456.796647 L 387.693604 459.391248 L 390.737952 461.985849 L 393.882021 464.450950 L 397.168354 466.731304 L 400.454687 469.011658 L 403.741019 471.292012 L 407.027353 473.572365 L 410.313686 475.852721 L 413.600019 478.133075 L 416.886351 480.413429 L 420.297949 482.496841 L 423.756449 484.506511 L 427.214949 486.516182 L 429.922256 488.089348" fill="none" id="104" stroke="black" stroke-width="0.608375" /><path d="M 377.031635 453.749498 L 373.151259 454.720412 L 369.187544 455.198379 L 365.203653 455.557002 L 361.218612 455.899208 L 357.223636 456.099646 L 353.228661 456.300084 L 349.233687 456.500521 L 345.238712 456.700960 L 342.402726 456.843248" fill="none" id="105" stroke="black" stroke-width="0.608375" /><path d="M 213.879286 365.651848 L 213.410369 368.472072 L 213.394916 369.483878" fill="none" id="106" stroke="black" stroke-width="0.608375" /><path d="M 209.918356 367.003408 L 210.281319 370.986906 L 210.644283 374.970404 L 210.892108 378.960491 L 210.985972 382.959389 L 211.079836 386.958289 L 211.173701 390.957187 L 211.267565 394.956086 L 211.361430 398.954984 L 211.455294 402.953883 L 211.309359 406.950727 L 211.146984 410.947429 L 210.984610 414.944133 L 210.822235 418.940835 L 210.659861 422.937539 L 210.497486 426.934241 L 210.335112 430.930945 L 210.176166 434.843248" fill="none" id="107" stroke="black" stroke-width="0.608375" /><path d="M 197.547256 629.690907 L 197.460046 633.689956 L 197.372837 637.689006 L 197.285627 641.688056 L 197.198417 645.687105 L 197.111208 649.686154 L 197.023998 653.685203 L 196.936788 657.684251 L 196.871476 660.679188" fill="none" id="108" stroke="black" stroke-width="0.608375" /><path d="M 208.305066 371.772938 L 209.401083 375.619852 L 210.497101 379.466766 L 211.626078 383.302991 L 212.996183 387.061024 L 214.366287 390.819056 L 215.736393 394.577090 L 217.106497 398.335124 L 218.476602 402.093157 L 219.846707 405.851190 L 221.236052 409.602099 L 222.643774 413.346203 L 224.051496 417.090307 L 225.459217 420.834412 L 226.866939 424.578517 L 228.274661 428.322622 L 229.682382 432.066727 L 231.090103 435.810831 L 232.497826 439.554935 L 233.905547 443.299040 L 235.201665 447.082855 L 236.475367 450.874648 L 237.749068 454.666440 L 239.022770 458.458231 L 240.296470 462.250023 L 241.570173 466.041814 L 242.843874 469.833606 L 244.117576 473.625398 L 245.391278 477.417190 L 246.664979 481.208981 L 247.938681 485.000773 L 249.212382 488.792565 L 250.486084 492.584357 L 251.759785 496.376148 L 253.033487 500.167939 L 254.101380 504.017011 L 254.969704 507.921626 L 255.838028 511.826239 L 256.706352 515.730854 L 257.574676 519.635469 L 258.442999 523.540083 L 259.311324 527.444697 L 260.179647 531.349311 L 261.047972 535.253927 L 261.916295 539.158540 L 262.784620 543.063154 L 263.652943 546.967770 L 264.521268 550.872383 L 265.303796 554.793892 L 265.980709 558.736200 L 266.657623 562.678508 L 267.334537 566.620816 L 268.011450 570.563122 L 268.688364 574.505430 L 269.365276 578.447738 L 270.042191 582.390046 L 270.719104 586.332352 L 271.396018 590.274660 L 272.072930 594.216968 L 272.755195 598.158305 L 273.504203 602.087554 L 274.253210 606.016802 L 275.002217 609.946049 L 275.751225 613.875296 L 276.500231 617.804545 L 277.249238 621.733793 L 277.998245 625.663040 L 278.842547 629.570899 L 279.844631 633.443343 L 280.846718 637.315789 L 281.848803 641.188233 L 282.008195 641.804188" fill="none" id="109" stroke="black" stroke-width="0.608375" /><path d="M 274.406635 588.655747 L 273.985003 584.697673 L 274.277726 586.304188" fill="none" id="110" stroke="black" stroke-width="0.608375" /><path d="M 263.226945 590.714348 L 261.167486 588.718530 L 264.699788 586.860699 L 268.267220 585.055724 L 271.769041 583.122528 L 275.270862 581.189330 L 278.772683 579.256135 L 280.652726 578.218247" fill="none" id="111" stroke="black" stroke-width="0.608375" /><path d="M 280.976945 579.925287 L 280.481240 583.508939 L 283.128826 585.586887 L 287.128428 585.643287 L 290.969843 584.724435 L 294.746555 583.406694 L 297.984756 582.276848" fill="none" id="112" stroke="black" stroke-width="0.608375" /><path d="M 284.875385 580.409657 L 281.728394 582.878755 L 278.581402 585.347852 L 275.434410 587.816949 L 272.206356 590.168769 L 268.784415 592.240077 L 265.011774 593.485260 L 264.160536 593.710438" fill="none" id="113" stroke="black" stroke-width="0.608375" /><path d="M 280.332416 583.952628 L 276.903336 586.007149 L 273.368118 587.878186 L 269.981615 589.965871 L 266.531618 591.971813 L 262.836816 593.488147 L 259.007431 594.615759 L 255.100959 595.475685 L 251.194487 596.335610 L 247.265721 597.082159 L 243.324489 597.765306 L 239.383257 598.448451 L 235.442024 599.131597 L 234.558976 599.284657" fill="none" id="114" stroke="black" stroke-width="0.608375" /><path d="M 283.391006 580.667468 L 283.605891 583.353414 L 284.364049 587.015256 L 288.316233 587.397938 L 292.311457 587.265618 L 296.301049 586.977243 L 300.245673 586.325172 L 304.185361 585.633173 L 307.777726 584.854968" fill="none" id="115" stroke="black" stroke-width="0.608375" /><path d="M 362.793356 456.585438 L 359.037899 455.651848 L 355.485001 455.367380 L 359.330652 454.717418 L 363.330080 454.649728 L 367.327382 454.514925 L 371.323078 454.329424 L 375.318774 454.143924 L 379.133479 453.719116 L 375.305254 452.924827 L 371.351604 452.317668 L 368.109756 451.819817" fill="none" id="116" stroke="black" stroke-width="0.608375" /><path d="M 311.676166 448.112788 L 315.510253 449.252865 L 319.344339 450.392944 L 323.178427 451.533022 L 327.012514 452.673100 L 330.422256 453.686998" fill="none" id="117" stroke="black" stroke-width="0.608375" /><path d="M 130.418356 441.093248 L 134.418356 441.093248 L 138.411285 440.928877 L 142.396509 440.585375 L 146.381732 440.241874 L 150.319324 439.553237 L 154.248617 438.804467 L 158.177911 438.055699 L 162.107204 437.306930 L 166.036496 436.558159 L 169.906903 435.555763 L 173.764149 434.496679 L 177.621394 433.437594 L 181.478639 432.378511 L 185.335885 431.319427 L 189.189429 430.247255 L 193.030012 429.129258 L 196.870596 428.011260 L 200.711179 426.893263 L 204.551763 425.775265 L 208.392346 424.657268 L 212.232930 423.539271 L 216.103699 422.538699 L 220.007330 421.665964 L 223.910960 420.793229 L 227.814591 419.920496 L 231.718221 419.047761 L 235.621853 418.175027 L 239.525484 417.302293 L 241.613666 416.835438" fill="none" id="119" stroke="black" stroke-width="0.608375" /><path d="M 253.726945 426.081538 L 253.881923 426.751664 L 255.980856 429.237788" fill="none" id="120" stroke="black" stroke-width="0.608375" /><path d="M 253.305066 427.015128 L 254.810263 426.232778 L 258.670258 427.281794 L 262.285252 428.952936 L 265.824007 430.817663 L 269.362764 432.682389 L 272.970033 434.410059 L 276.585352 436.121631 L 280.200671 437.833201 L 283.815989 439.544772 L 287.494969 441.096595 L 291.296557 442.340751 L 295.098144 443.584907 L 298.899734 444.829065 L 302.701322 446.073220 L 306.502909 447.317378 L 310.304499 448.561533 L 314.180426 449.542997 L 318.070236 450.475402 L 321.960046 451.407806 L 325.849855 452.340212 L 329.739666 453.272617 L 333.629475 454.205021 L 337.519285 455.137427 L 341.409095 456.069832 L 345.298904 457.002237 L 349.188715 457.934641 L 353.076183 458.876597 L 356.956026 459.849643 L 360.835869 460.822688 L 364.715711 461.795734 L 368.595554 462.768778 L 372.475397 463.741825 L 376.355241 464.714870 L 380.235084 465.687916 L 384.114927 466.660961 L 387.994771 467.634006 L 391.829203 468.768503 L 395.647412 469.960676 L 399.465621 471.152849 L 403.283831 472.345023 L 407.102039 473.537195 L 410.920250 474.729369 L 414.738459 475.921542 L 418.556668 477.113716 L 422.371451 478.316303 L 426.151544 479.624313 L 429.931639 480.932323 L 433.711731 482.240334 L 437.491826 483.548343 L 441.271920 484.856355 L 443.164445 485.511217" fill="none" id="121" stroke="black" stroke-width="0.608375" /><path d="M 248.312886 426.628408 L 252.148207 426.372142 L 255.872516 427.831430 L 259.648678 429.140220 L 263.481473 430.284627 L 267.314271 431.429035 L 271.155409 432.543793 L 275.022660 433.565738 L 278.889910 434.587682 L 282.757161 435.609626 L 286.624413 436.631571 L 290.488536 437.665153 L 294.346932 438.720036 L 298.205328 439.774921 L 302.063724 440.829805 L 305.922119 441.884689 L 309.780515 442.939572 L 313.638911 443.994458 L 317.497307 445.049342 L 321.386325 445.970754 L 325.318681 446.703266 L 329.251036 447.435780 L 333.183393 448.168294 L 337.115748 448.900806 L 341.048106 449.633321 L 344.980461 450.365834 L 348.912818 451.098347 L 352.878119 451.621483 L 356.845412 452.131953 L 360.812705 452.642423 L 364.780000 453.152893 L 368.747294 453.663364 L 372.714587 454.173834 L 376.681881 454.684303 L 380.640259 455.256425 L 384.589625 455.890862 L 388.538991 456.525298 L 392.488357 457.159734 L 396.437723 457.794171 L 398.129286 458.065908" fill="none" id="123" stroke="black" stroke-width="0.608375" /><path d="M 270.055066 432.718248 L 266.085300 432.227373 L 262.115534 431.736496 L 265.234794 432.304726 L 269.013118 433.617840 L 272.804774 434.889897 L 276.633767 436.046967 L 280.462760 437.204039 L 284.291753 438.361109 L 288.174141 439.312374 L 292.082699 440.162767 L 295.991258 441.013160 L 299.899816 441.863553 L 303.808376 442.713946 L 307.716935 443.564339 L 311.625494 444.414732 L 315.534052 445.265125 L 319.456159 446.050615 L 323.378520 446.834892 L 327.300880 447.619167 L 331.223241 448.403443 L 335.145601 449.187719 L 339.067961 449.971994 L 342.990321 450.756270 L 346.914102 451.532746 L 350.861237 452.180917 L 354.808372 452.829088 L 358.755507 453.477260 L 362.702642 454.125430 L 366.649777 454.773601 L 370.596912 455.421774 L 374.544047 456.069945 L 378.491180 456.718117 L 382.458336 457.226346 L 386.428881 457.710873 L 390.399428 458.195401 L 394.369973 458.679929 L 398.340519 459.164456 L 402.311064 459.648983 L 406.281610 460.133510 L 410.252156 460.618039 L 414.222702 461.102567 L 415.234756 461.226067" fill="none" id="125" stroke="black" stroke-width="0.608375" /><path d="M 356.836316 452.397938 L 360.527961 452.976067 L 364.527961 452.976067 L 368.470747 453.610232 L 372.218818 455.004752 L 369.116720 455.231560 L 365.117378 455.304051 L 361.118035 455.376541 L 360.811971 454.053311 L 364.776325 453.718442 L 368.763871 453.937544 L 372.745253 454.323029 L 376.690251 454.957087 L 380.615097 455.728828 L 382.508195 456.101067" fill="none" id="126" stroke="black" stroke-width="0.608375" /><path d="M 374.004286 454.589348 L 373.040891 452.953883 L 376.073526 455.562163 L 379.389950 457.764619 L 382.880561 459.717985 L 386.371172 461.671351 L 389.861782 463.624718 L 393.352392 465.578083 L 397.035754 467.113584 L 400.787454 468.500940 L 404.597975 469.698518 L 408.476649 470.676211 L 412.355323 471.653904 L 416.233997 472.631597 L 420.112673 473.609289 L 423.991347 474.586984 L 427.870022 475.564677 L 431.748696 476.542370 L 435.627370 477.520062 L 439.506046 478.497756 L 443.384720 479.475450 L 447.263395 480.453143 L 451.142068 481.430836 L 455.020744 482.408528 L 458.899418 483.386222 L 462.778093 484.363915 L 466.656767 485.341609 L 470.535441 486.319301 L 474.414116 487.296995 L 478.292791 488.274688 L 482.171465 489.252381 L 483.043356 489.472158" fill="none" id="127" stroke="black" stroke-width="0.608375" /><path d="M 181.086316 201.694817 L 180.842927 205.554917 L 182.346531 209.235707 L 183.989800 212.882576 L 185.633069 216.529448 L 188.143300 219.633533 L 190.706060 222.704732 L 193.268820 225.775931 L 196.323828 228.250497 L 199.825972 230.183108 L 203.328117 232.115719 L 206.830261 234.048330 L 210.355580 235.930120 L 214.111114 237.307061 L 217.866647 238.684001 L 221.622182 240.060942 L 225.377716 241.437882 L 229.133249 242.814823 L 232.906925 244.137338 L 236.737502 245.289156 L 240.568078 246.440974 L 243.867566 247.433098" fill="none" id="129" stroke="black" stroke-width="0.608375" /><path d="M 208.629286 235.675288 L 205.248363 233.634034 L 201.459804 232.362405 L 197.555125 231.494371 L 193.573435 231.327628 L 189.641267 231.858409 L 185.756309 232.804805 L 181.867630 233.678929 L 178.531029 235.722700 L 176.619731 239.236521 L 175.450749 243.050046 L 175.094136 243.761218" fill="none" id="130" stroke="black" stroke-width="0.608375" /></svg>