<?xml version="1.0" encoding="utf-8" ?>
<svg baseProfile="full" height="594.55584" version="1.1" viewBox="0,0,746.55584,594.55584" width="746.55584" xmlns="http://www.w3.org/2000/svg" xmlns:ev="http://www.w3.org/2001/xml-events" xmlns:xlink="http://www.w3.org/1999/xlink"><defs><style type="text/css"><![CDATA[
	.background { fill: white; }
	.line { stroke: firebrick; stroke-width: .1mm; }
	.blacksquare { fill: indigo; }
	.whitesquare { fill: white; }
]]></style></defs><rect class="background" height="100%" width="100%" x="0" y="0" /><path d="M 176.458920 480.631920 L 180.649920 477.914920 L 184.887920 475.271920 L 189.216920 472.781920 L 193.643920 470.469920 L 198.050920 468.118920 L 202.441920 465.738920 L 206.771920 463.249920 L 211.067920 460.701920 L 215.360920 458.148920 L 219.653920 455.595920 L 223.945920 453.042920 L 228.238920 450.489920 L 232.531920 447.936920 L 236.826920 445.387920 L 241.134920 442.859920 L 245.457920 440.358920 L 249.786920 437.866920 L 254.114920 435.375920 L 258.443920 432.883920 L 262.772920 430.391920 L 267.101920 427.900920 L 271.429920 425.408920 L 275.754920 422.909920 L 280.050920 420.362920 L 284.303920 417.743920 L 288.539920 415.098920 L 292.776920 412.453920 L 297.012920 409.807920 L 301.252920 407.167920 L 305.507920 404.552920 L 309.789920 401.980920 L 314.086920 399.435920 L 318.387920 396.896920 L 322.688920 394.357920 L 326.989920 391.817920 L 331.290920 389.278920 L 335.591920 386.739920 L 339.892920 384.200920 L 344.181920 381.640920 L 348.439920 379.029920 L 352.674920 376.382920 L 356.904920 373.726920 L 361.134920 371.071920 L 365.364920 368.415920 L 369.595920 365.759920 L 373.825920 363.104920 L 378.055920 360.448920 L 382.288920 357.797920 L 386.541920 355.179920 L 390.839920 352.636920 L 395.159920 350.128920 L 399.481920 347.625920 L 403.803920 345.121920 L 408.125920 342.618920 L 412.447920 340.115920 L 416.765920 337.604920 L 421.059920 335.054920 L 425.336920 332.475920 L 429.611920 329.892920 L 433.886920 327.309920 L 438.161920 324.726920 L 442.435920 322.143920 L 446.712920 319.563920 L 451.015920 317.027920 L 455.334920 314.518920 L 459.657920 312.017920 L 463.980920 309.515920 L 468.300920 307.009920" fill="none" id="0" stroke="#c583d9" stroke-width="0.5" /><path d="M 175.797920 475.009920 L 180.397920 473.165920 L 184.948920 471.203920 L 189.431920 469.091920 L 193.888920 466.923920 L 198.333920 464.732920 L 202.733920 462.451920 L 207.051920 460.019920 L 211.355920 457.561920 L 215.658920 455.102920 L 219.961920 452.643920 L 224.264920 450.184920 L 228.567920 447.725920 L 232.870920 445.266920 L 237.173920 442.807920 L 241.476920 440.348920 L 245.779920 437.889920 L 250.082920 435.430920 L 254.385920 432.971920 L 258.687920 430.512920 L 262.989920 428.050920 L 267.265920 425.544920 L 271.516920 422.997920 L 275.761920 420.439920 L 280.002920 417.875920 L 284.199920 415.240920 L 288.372920 412.566920 L 292.542920 409.888920 L 296.712920 407.210920 L 300.882920 404.532920 L 305.072920 401.885920 L 309.307920 399.311920 L 313.575920 396.791920 L 317.872920 394.323920 L 322.185920 391.881920 L 326.498920 389.439920 L 330.811920 386.997920 L 335.123920 384.555920 L 339.427920 382.098920 L 343.690920 379.570920 L 347.913920 376.977920 L 352.128920 374.369920 L 356.342920 371.761920 L 360.557920 369.154920 L 364.771920 366.546920 L 368.986920 363.938920 L 373.203920 361.335920 L 377.441920 358.766920 L 381.710920 356.249920 L 386.000920 353.767920 L 390.312920 351.324920 L 394.631920 348.893920 L 398.950920 346.462920 L 403.268920 344.030920 L 407.586920 341.597920 L 411.888920 339.138920 L 416.161920 336.627920 L 420.416920 334.085920 L 424.651920 331.511920 L 428.883920 328.932920 L 433.116920 326.354920 L 437.348920 323.775920 L 441.581920 321.197920 L 445.813920 318.618920 L 450.046920 316.040920 L 454.278920 313.461920 L 458.510920 310.883920 L 462.743920 308.304920 L 466.975920 305.725920 L 471.210920 303.150920 L 475.459920 300.600920 L 479.727920 298.081920 L 483.996920 295.563920 L 488.242920 293.008920 L 492.412920 290.329920 L 496.545920 287.594920 L 500.680920 284.862920 L 504.853920 282.189920 L 509.039920 279.534920 L 513.237920 276.901920 L 517.466920 274.316920" fill="none" id="1" stroke="#c583d9" stroke-width="0.5" /><path d="M 465.592920 57.892120 L 465.287920 62.858820 L 465.018920 67.827620 L 464.806920 72.799220 L 464.620920 77.771820 L 464.434920 82.744420 L 464.248920 87.717020 L 464.062920 92.689620 L 463.890920 97.662620 L 463.819920 102.637920 L 463.795920 107.613920 L 463.776920 112.589920 L 463.757920 117.565920 L 463.738920 122.541920 L 463.714920 127.517920 L 463.660920 132.493920 L 463.560920 137.468920 L 463.450920 142.443920 L 463.370920 147.419920 L 463.321920 152.394920 L 463.278920 157.370920 L 463.236920 162.346920 L 463.194920 167.322920 L 463.157920 172.298920 L 463.138920 177.274920 L 463.132920 182.250920 L 463.129920 187.226920 L 463.127920 192.202920 L 463.125920 197.178920 L 463.123920 202.154920 L 463.120920 207.131920 L 463.118920 212.107920 L 463.116920 217.083920 L 463.114920 222.059920 L 463.112920 227.035920 L 463.109920 232.011920 L 463.107920 236.987920 L 463.108920 241.963920 L 463.121920 246.939920 L 463.147920 251.915920 L 463.176920 256.891920 L 463.206920 261.867920 L 463.236920 266.843920 L 463.265920 271.819920 L 463.295920 276.795920 L 463.324920 281.771920 L 463.354920 286.747920 L 463.383920 291.723920 L 463.413920 296.699920 L 463.442920 301.675920 L 463.472920 306.651920 L 463.501920 311.627920 L 463.531920 316.603920 L 463.560920 321.579920 L 463.590920 326.555920 L 463.619920 331.531920 L 463.649920 336.507920 L 463.678920 341.483920 L 463.708920 346.459920 L 463.738920 351.435920 L 463.767920 356.411920 L 463.797920 361.387920" fill="none" id="2" stroke="#f375a0" stroke-width="0.5" /><path d="M 563.608920 166.718920 L 560.502920 170.592920 L 557.319920 174.402920 L 553.984920 178.080920 L 550.321920 181.431920 L 546.724920 184.853920 L 543.165920 188.315920 L 539.633920 191.804920 L 536.102920 195.294920 L 532.571920 198.784920 L 529.039920 202.274920 L 525.508920 205.764920 L 521.977920 209.254920 L 518.446920 212.744920 L 514.914920 216.234920 L 511.383920 219.724920 L 507.859920 223.220920 L 504.397920 226.779920 L 500.976920 230.377920 L 497.560920 233.980920 L 494.140920 237.579920 L 490.683920 241.142920 L 487.197920 244.677920 L 483.706920 248.208920 L 480.215920 251.738920 L 476.724920 255.268920 L 473.233920 258.799920 L 469.742920 262.329920 L 466.261920 265.869920 L 462.820920 269.448920 L 459.392920 273.039920 L 455.964920 276.631920 L 452.536920 280.222920 L 449.108920 283.813920 L 445.680920 287.405920 L 442.252920 290.996920 L 438.830920 294.593920 L 435.439920 298.220920 L 432.073920 301.869920 L 428.712920 305.523920 L 425.351920 309.177920 L 421.989920 312.831920 L 418.628920 316.485920 L 415.267920 320.139920 L 411.906920 323.793920 L 408.534920 327.438920 L 405.140920 331.061920 L 401.733920 334.672920 L 398.326920 338.283920 L 394.918920 341.894920 L 391.511920 345.505920 L 388.104920 349.116920 L 384.697920 352.727920 L 381.291920 356.340920 L 377.913920 359.979920 L 374.584920 363.661920 L 371.308920 367.392920 L 368.081920 371.165920 L 364.857920 374.941920 L 361.633920 378.716920 L 358.402920 382.486920 L 355.132920 386.222920 L 351.811920 389.912920 L 348.475920 393.589920 L 345.139920 397.266920 L 341.806920 400.946920 L 338.484920 404.636920 L 335.180920 408.341920 L 331.880920 412.050920 L 328.580920 415.760920 L 325.280920 419.469920 L 321.980920 423.179920 L 318.680920 426.888920 L 315.389920 430.605920 L 312.123920 434.345920 L 308.865920 438.091920 L 305.634920 441.860920 L 302.403920 445.630920 L 299.172920 449.400920 L 295.941920 453.169920 L 292.706920 456.936920 L 289.448920 460.682920 L 286.144920 464.388920 L 282.828920 468.083920 L 279.512920 471.778920 L 276.196920 475.473920 L 272.879920 479.167920 L 269.542920 482.843920 L 266.138920 486.457920 L 262.727920 490.065920 L 259.251920 493.610920 L 255.691920 497.070920 L 252.118920 500.518920 L 248.547920 503.966920 L 245.000920 507.441920 L 241.314920 510.767920 L 237.551920 514.004920 L 233.749920 517.198920" fill="none" id="3" stroke="#9de993" stroke-width="0.5" /><path d="M 256.836920 494.663920 L 258.810920 490.162920 L 260.947920 485.736920 L 263.273920 481.406920 L 265.847920 477.219920 L 268.529920 473.100920 L 271.230920 468.994920 L 273.933920 464.889920 L 276.635920 460.783920 L 279.341920 456.680920 L 282.096920 452.609920 L 284.878920 448.558920 L 287.665920 444.509920 L 290.451920 440.460920 L 293.238920 436.412920 L 296.011920 432.354920 L 298.730920 428.259920 L 301.421920 424.146920 L 304.111920 420.033920 L 306.802920 415.920920 L 309.492920 411.807920 L 312.184920 407.694920 L 314.934920 403.620920 L 317.773920 399.608920 L 320.647920 395.621920 L 323.520920 391.633920 L 326.393920 387.645920 L 329.253920 383.648920 L 332.084920 379.630920 L 334.892920 375.596920 L 337.701920 371.563920 L 340.509920 367.529920 L 343.317920 363.495920 L 346.125920 359.462920 L 348.952920 355.441920 L 351.862920 351.479920 L 354.790920 347.532920 L 357.719920 343.585920 L 360.648920 339.638920 L 363.577920 335.691920 L 366.506920 331.744920 L 369.434920 327.797920" fill="none" id="4" stroke="#ad5ba7" stroke-width="0.5" /><path d="M 252.836920 501.962920 L 255.852920 498.040920 L 258.828920 494.089920 L 261.754920 490.099920 L 264.629920 486.073920 L 267.504920 482.047920 L 270.379920 478.021920 L 273.254920 473.995920 L 276.136920 469.974920 L 279.042920 465.970920 L 281.957920 461.973920 L 284.872920 457.976920 L 287.788920 453.980920 L 290.704920 449.983920 L 293.620920 445.986920 L 296.543920 441.995920 L 299.484920 438.017920 L 302.438920 434.049920 L 305.395920 430.082920 L 308.351920 426.115920 L 311.317920 422.156920 L 314.310920 418.217920 L 317.325920 414.294920 L 320.344920 410.375920 L 323.374920 406.464920 L 326.426920 402.570920 L 329.491920 398.687920 L 332.559920 394.806920 L 335.626920 390.925920 L 338.691920 387.041920 L 341.741920 383.146920 L 344.757920 379.225920 L 347.755920 375.289920 L 350.751920 371.352920 L 353.746920 367.415920 L 356.741920 363.477920 L 359.737920 359.540920 L 362.735920 355.605920 L 365.760920 351.690920 L 368.852920 347.828920 L 371.996920 344.009920 L 375.185920 340.227920 L 378.382920 336.451920 L 381.592920 332.686920" fill="none" id="5" stroke="#58f2c3" stroke-width="0.5" /><path d="M 416.270920 286.235920 L 415.734920 286.859920 L 415.197920 287.482920 L 414.654920 288.100920 L 414.111920 288.718920 L 413.556920 289.326920 L 413.001920 289.933920 L 412.441920 290.535920 L 411.880920 291.137920 L 411.320920 291.740920 L 410.761920 292.343920 L 410.200920 292.945920 L 409.639920 293.546920 L 409.078920 294.148920 L 408.517920 294.750920 L 407.956920 295.352920 L 407.395920 295.954920 L 406.835920 296.556920 L 406.274920 297.158920 L 405.713920 297.760920 L 405.152920 298.361920 L 404.591920 298.963920 L 404.031920 299.565920 L 403.470920 300.167920 L 402.909920 300.769920 L 402.348920 301.371920 L 401.787920 301.973920 L 401.227920 302.575920 L 400.666920 303.177920 L 400.105920 303.778920 L 399.544920 304.380920" fill="none" id="6" stroke="#c94e76" stroke-width="0.5" /><path d="M 404.506920 299.269920 L 403.602920 300.247920 L 402.698920 301.226920 L 401.794920 302.205920 L 400.890920 303.183920 L 399.985920 304.162920 L 399.081920 305.141920 L 398.177920 306.119920 L 397.273920 307.098920 L 396.369920 308.077920 L 395.464920 309.056920 L 394.560920 310.034920 L 393.656920 311.013920 L 392.752920 311.992920 L 391.848920 312.970920 L 390.943920 313.949920 L 390.039920 314.928920 L 389.135920 315.906920 L 388.231920 316.885920 L 387.327920 317.864920 L 386.422920 318.843920 L 385.518920 319.821920 L 384.614920 320.800920 L 383.710920 321.779920 L 382.806920 322.757920 L 381.901920 323.736920 L 380.997920 324.715920 L 380.093920 325.693920 L 379.189920 326.672920 L 378.285920 327.651920 L 377.381920 328.630920" fill="none" id="7" stroke="#c94e76" stroke-width="0.5" /><path d="M 383.983920 321.919920 L 383.549920 322.414920 L 383.116920 322.908920 L 382.682920 323.402920 L 382.249920 323.897920 L 381.815920 324.391920 L 381.382920 324.885920 L 380.948920 325.380920 L 380.515920 325.874920 L 380.081920 326.368920 L 379.648920 326.863920 L 379.214920 327.357920 L 378.781920 327.851920 L 378.347920 328.346920 L 377.914920 328.840920 L 377.480920 329.334920 L 377.047920 329.829920 L 376.613920 330.323920 L 376.180920 330.817920 L 375.746920 331.312920 L 375.313920 331.806920 L 374.879920 332.300920 L 374.446920 332.795920 L 374.012920 333.289920 L 373.579920 333.783920 L 373.145920 334.278920 L 372.712920 334.772920 L 372.278920 335.266920 L 371.845920 335.761920 L 371.411920 336.255920 L 370.978920 336.749920" fill="none" id="8" stroke="#c94e76" stroke-width="0.5" /><path d="M 0.277920 350.486920 L 4.971830 352.121920 L 9.603640 353.923920 L 14.114020 356.011920 L 18.494220 358.360920 L 22.788820 360.862920 L 27.024620 363.462920 L 31.221220 366.126920 L 35.407020 368.805920 L 39.592520 371.486920 L 43.826520 374.089920 L 48.086220 376.650920 L 52.348220 379.207920 L 56.620120 381.748920 L 60.933520 384.217920 L 65.267420 386.651920 L 69.603720 389.080920 L 73.940020 391.509920 L 78.276320 393.938920 L 82.612420 396.367920 L 86.889220 398.899920 L 91.107220 401.529920 L 95.313720 404.176920 L 99.520220 406.823920 L 103.726920 409.471920 L 107.932920 412.118920 L 112.139920 414.766920 L 116.353920 417.402920 L 120.592920 419.995920 L 124.843920 422.571920 L 129.094920 425.146920 L 133.345920 427.722920 L 137.596920 430.297920 L 141.847920 432.873920 L 146.087920 435.466920 L 150.315920 438.080920 L 154.539920 440.699920 L 158.763920 443.318920 L 162.987920 445.937920 L 167.211920 448.556920 L 171.436920 451.176920 L 175.660920 453.795920 L 179.884920 456.414920 L 184.113920 459.025920 L 188.355920 461.615920 L 192.606920 464.191920 L 196.856920 466.767920 L 201.107920 469.344920 L 205.357920 471.920920 L 209.608920 474.496920 L 213.858920 477.072920 L 218.118920 479.633920 L 222.393920 482.167920 L 226.676920 484.690920 L 230.958920 487.213920 L 235.241920 489.736920 L 239.523920 492.258920 L 243.806920 494.781920 L 248.088920 497.304920 L 252.382920 499.808920 L 256.693920 502.280920 L 261.009920 504.745920 L 265.326920 507.210920 L 269.642920 509.674920 L 273.958920 512.139920 L 278.274920 514.604920 L 282.590920 517.068920 L 286.906920 519.533920 L 291.222920 521.998920 L 295.541920 524.458920 L 299.880920 526.882920 L 304.260920 529.231920 L 308.654920 531.555920 L 313.047920 533.879920 L 317.441920 536.203920 L 321.837920 538.521920 L 326.248920 540.812920 L 330.673920 543.076920 L 335.098920 545.339920 L 339.523920 547.603920 L 343.946920 549.870920 L 348.357920 552.159920 L 352.743920 554.498920 L 357.120920 556.854920 L 361.496920 559.209920 L 365.873920 561.565920 L 370.249920 563.921920 L 374.626920 566.277920 L 379.003920 568.631920 L 383.394920 570.960920 L 387.815920 573.232920 L 392.245920 575.484920 L 396.676920 577.736920 L 401.107920 579.988920 L 405.537920 582.240920 L 409.968920 584.493920 L 414.395920 586.753920 L 418.816920 589.024920 L 423.219920 591.329920 L 427.608920 593.663920" fill="none" id="9" stroke="#57b870" stroke-width="0.5" /><path d="M 136.080920 432.183920 L 137.104920 432.721920 L 138.128920 433.260920 L 139.152920 433.798920 L 140.176920 434.337920 L 141.200920 434.875920 L 142.224920 435.414920 L 143.248920 435.952920 L 144.272920 436.491920 L 145.296920 437.029920 L 146.320920 437.568920 L 147.344920 438.107920 L 148.368920 438.645920 L 149.392920 439.184920 L 150.416920 439.722920 L 151.440920 440.261920 L 152.464920 440.799920 L 153.488920 441.338920 L 154.512920 441.876920 L 155.536920 442.415920 L 156.560920 442.953920 L 157.584920 443.492920 L 158.608920 444.031920 L 159.632920 444.569920 L 160.656920 445.108920 L 161.680920 445.647920 L 162.704920 446.186920 L 163.727920 446.727920 L 164.750920 447.268920 L 165.772920 447.809920 L 166.795920 448.350920" fill="none" id="10" stroke="#57b870" stroke-width="0.5" /><path d="M 158.150920 444.064920 L 161.216920 445.758920 L 164.285920 447.447920 L 167.355920 449.133920 L 170.428920 450.815920 L 173.513920 452.474920 L 176.606920 454.120920 L 179.701920 455.760920 L 182.798920 457.397920 L 185.899920 459.026920 L 189.009920 460.638920 L 192.126920 462.237920 L 195.247920 463.826920 L 198.370920 465.415920 L 201.492920 467.003920 L 204.614920 468.591920 L 207.737920 470.178920 L 210.863920 471.758920 L 214.012920 473.292920 L 217.165920 474.820920 L 220.318920 476.346920 L 223.471920 477.872920 L 226.624920 479.399920 L 229.757920 480.964920 L 232.865920 482.580920 L 235.945920 484.249920 L 238.994920 485.972920 L 241.970920 487.821920 L 244.893920 489.750920 L 247.768920 491.751920 L 250.600920 493.812920" fill="none" id="11" stroke="#57b870" stroke-width="0.5" /><path d="M 152.238920 439.529920 L 155.151920 441.546920 L 158.105920 443.504920 L 161.113920 445.377920 L 164.166920 447.176920 L 167.224920 448.968920 L 170.281920 450.759920 L 173.339920 452.551920 L 176.421920 454.298920 L 179.539920 455.983920 L 182.677920 457.630920 L 185.821920 459.264920 L 188.966920 460.897920 L 192.111920 462.529920 L 195.257920 464.162920 L 198.402920 465.795920 L 201.547920 467.427920 L 204.692920 469.060920 L 207.837920 470.693920 L 210.983920 472.326920 L 214.128920 473.958920 L 217.270920 475.596920 L 220.393920 477.271920 L 223.459920 479.046920 L 226.449920 480.948920 L 229.404920 482.904920 L 232.359920 484.861920 L 235.350920 486.758920 L 238.489920 488.403920 L 241.695920 489.913920 L 244.962920 491.285920" fill="none" id="12" stroke="#57b870" stroke-width="0.5" /><path d="M 198.379920 84.230620 L 198.321920 89.229620 L 198.347920 94.228720 L 198.521920 99.224920 L 198.799920 104.215920 L 198.949920 109.212920 L 198.977920 114.212920 L 198.998920 119.211920 L 199.018920 124.210920 L 199.039920 129.209920 L 199.054920 134.208920 L 199.015920 139.208920 L 198.922920 144.206920 L 198.818920 149.204920 L 198.712920 154.202920 L 198.607920 159.200920 L 198.502920 164.199920 L 198.397920 169.197920 L 198.292920 174.195920 L 198.187920 179.193920 L 198.082920 184.191920 L 197.977920 189.189920 L 197.872920 194.188920 L 197.767920 199.186920 L 197.662920 204.184920 L 197.556920 209.182920 L 197.451920 214.180920 L 197.346920 219.178920 L 197.241920 224.176920 L 197.136920 229.175920 L 197.031920 234.173920 L 196.926920 239.171920 L 196.821920 244.169920 L 196.716920 249.167920 L 196.610920 254.165920 L 196.497920 259.163920 L 196.364920 264.161920 L 196.220920 269.158920 L 196.074920 274.155920 L 195.928920 279.152920 L 195.782920 284.149920 L 195.636920 289.147920 L 195.491920 294.144920 L 195.345920 299.141920 L 195.199920 304.138920 L 195.053920 309.135920 L 194.907920 314.132920 L 194.761920 319.129920 L 194.615920 324.127920 L 194.469920 329.124920 L 194.323920 334.121920 L 194.177920 339.118920 L 194.032920 344.115920 L 193.886920 349.112920 L 193.740920 354.109920 L 193.594920 359.107920 L 193.448920 364.104920 L 193.307920 369.101920 L 193.186920 374.099920 L 193.096920 379.097920 L 193.019920 384.096920 L 192.944920 389.095920 L 192.869920 394.093920 L 192.804920 399.092920 L 192.773920 404.091920 L 192.765920 409.090920 L 192.760920 414.090920 L 192.756920 419.089920 L 192.751920 424.088920 L 192.747920 429.087920 L 192.742920 434.087920 L 192.737920 439.086920 L 192.733920 444.085920 L 192.728920 449.085920 L 192.724920 454.084920 L 192.719920 459.083920 L 192.715920 464.082920 L 192.726920 469.082920 L 192.781920 474.081920 L 192.847920 479.079920 L 192.913920 484.078920 L 192.980920 489.077920 L 193.046920 494.076920 L 193.113920 499.075920 L 193.179920 504.073920 L 193.245920 509.072920" fill="none" id="13" stroke="#d271bb" stroke-width="0.5" /><path d="M 262.442920 43.931420 L 261.815920 48.853820 L 261.045920 53.756020 L 260.200920 58.645720 L 259.323920 63.529820 L 258.044920 68.323620 L 256.748920 73.113420 L 255.451920 77.903320 L 254.157920 82.693920 L 252.954920 87.507820 L 251.806920 92.335420 L 250.663920 97.164120 L 249.475920 101.981920 L 248.262920 106.793920 L 247.047920 111.604920 L 245.832920 116.415920 L 244.616920 121.226920 L 243.401920 126.037920 L 242.186920 130.849920 L 240.971920 135.660920 L 239.695920 140.455920 L 238.379920 145.239920 L 237.056920 150.022920 L 235.733920 154.805920 L 234.410920 159.587920 L 233.087920 164.370920 L 231.764920 169.153920 L 230.441920 173.935920 L 229.114920 178.716920 L 227.726920 183.480920 L 226.275920 188.226920 L 224.806920 192.966920 L 223.338920 197.706920 L 221.869920 202.446920 L 220.401920 207.186920 L 218.933920 211.926920 L 217.464920 216.665920 L 216.000920 221.407920 L 214.558920 226.155920 L 213.141920 230.910920 L 211.732920 235.668920 L 210.323920 240.426920 L 208.914920 245.184920 L 207.504920 249.942920 L 206.095920 254.700920 L 204.686920 259.458920 L 203.277920 264.216920 L 201.868920 268.974920 L 200.458920 273.732920 L 199.049920 278.490920 L 197.636920 283.246920 L 196.213920 288.000920 L 194.781920 292.751920 L 193.347920 297.502920 L 191.914920 302.253920 L 190.481920 307.003920 L 189.047920 311.754920 L 187.614920 316.505920 L 186.181920 321.255920 L 184.747920 326.006920 L 183.314920 330.757920 L 181.887920 335.509920 L 180.481920 340.268920 L 179.099920 345.034920 L 177.722920 349.801920 L 176.344920 354.568920 L 174.966920 359.335920 L 173.588920 364.103920 L 172.210920 368.870920 L 170.833920 373.637920 L 169.455920 378.404920 L 168.077920 383.171920 L 166.699920 387.938920 L 165.315920 392.703920 L 163.914920 397.464920 L 162.499920 402.220920 L 161.085920 406.976920 L 159.671920 411.733920 L 158.257920 416.489920 L 156.839920 421.244920 L 155.393920 425.991920 L 153.938920 430.736920 L 152.484920 435.480920 L 151.029920 440.224920 L 149.575920 444.968920 L 148.120920 449.713920 L 146.666920 454.457920 L 145.211920 459.201920 L 143.745920 463.942920 L 142.250920 468.674920 L 140.755920 473.405920 L 139.260920 478.137920 L 137.764920 482.868920 L 136.269920 487.600920" fill="none" id="14" stroke="#3d8e43" stroke-width="0.5" /><path d="M 176.017920 192.348920 L 180.845920 191.106920 L 185.641920 189.747920 L 190.385920 188.217920 L 195.066920 186.501920 L 199.751920 184.798920 L 204.436920 183.094920 L 209.113920 181.368920 L 213.741920 179.517920 L 218.351920 177.619920 L 222.945920 175.683920 L 227.511920 173.684920 L 232.068920 171.663920 L 236.625920 169.641920 L 241.181920 167.619920 L 245.738920 165.596920 L 250.299920 163.584920 L 254.884920 161.629920 L 259.500920 159.747920 L 264.123920 157.881920 L 268.748920 156.020920 L 273.383920 154.185920 L 278.031920 152.382920 L 282.682920 150.588920 L 287.333920 148.794920 L 291.984920 147.000920 L 296.635920 145.206920 L 301.286920 143.412920 L 305.938920 141.619920 L 310.595920 139.843920 L 315.264920 138.096920 L 319.938920 136.361920 L 324.612920 134.627920 L 329.285920 132.893920 L 333.959920 131.159920 L 338.633920 129.425920 L 343.307920 127.691920 L 347.977920 125.948920 L 352.633920 124.166920 L 357.266920 122.327920 L 361.889920 120.461920 L 366.511920 118.592920 L 371.132920 116.724920 L 375.754920 114.855920 L 380.380920 112.999920 L 385.020920 111.176920 L 389.674920 109.389920 L 394.340920 107.634920 L 399.017920 105.908920 L 403.697920 104.190920 L 408.377920 102.473920 L 413.056920 100.756920 L 417.736920 99.039520 L 422.416920 97.322220 L 427.096920 95.605020 L 431.776920 93.887720 L 436.456920 92.170420 L 441.137920 90.454220 L 445.820920 88.745720 L 450.510920 87.056420 L 455.204920 85.378820 L 459.899920 83.703120 L 464.594920 82.027320 L 469.289920 80.351620 L 473.984920 78.675820 L 478.677920 76.994020 L 483.349920 75.254720 L 487.964920 73.371020 L 492.571920 71.466820 L 497.175920 69.554120 L 501.743920 67.558720 L 506.299920 65.534220 L 510.853920 63.507920 L 515.408920 61.482720 L 519.982920 59.498520 L 524.600920 57.622020 L 529.245920 55.813320" fill="none" id="15" stroke="#00d4db" stroke-width="0.5" /><path d="M 30.695120 374.923920 L 35.388220 373.320920 L 40.012920 371.530920 L 44.564220 369.558920 L 49.116320 367.587920 L 53.669320 365.618920 L 58.214520 363.632920 L 62.742720 361.607920 L 67.258620 359.554920 L 71.774620 357.502920 L 76.290620 355.450920 L 80.806520 353.398920 L 85.322520 351.345920 L 89.837620 349.291920 L 94.345720 347.222920 L 98.841320 345.125920 L 103.332920 343.020920 L 107.823920 340.914920 L 112.314920 338.808920 L 116.806920 336.703920 L 121.297920 334.597920 L 125.788920 332.491920 L 130.289920 330.406920 L 134.804920 328.352920 L 139.323920 326.306920 L 143.842920 324.260920 L 148.357920 322.206920 L 152.857920 320.119920 L 157.342920 318.001920 L 161.827920 315.881920 L 166.311920 313.760920 L 170.795920 311.640920 L 175.280920 309.519920 L 179.777920 307.426920 L 184.303920 305.397920 L 188.851920 303.416920 L 193.403920 301.446920 L 197.956920 299.476920 L 202.508920 297.507920 L 207.061920 295.538920 L 211.609920 293.558920 L 216.146920 291.553920 L 220.675920 289.529920 L 225.202920 287.500920 L 229.728920 285.471920 L 234.255920 283.443920 L 238.782920 281.416920 L 243.325920 279.424920 L 247.889920 277.481920 L 252.462920 275.559920 L 257.036920 273.639920 L 261.610920 271.719920 L 266.184920 269.800920 L 270.758920 267.880920 L 275.332920 265.961920 L 279.905920 264.041920 L 284.479920 262.121920 L 289.053920 260.202920 L 293.627920 258.282920 L 298.201920 256.363920 L 302.776920 254.445920 L 307.355920 252.538920 L 311.944920 250.655920 L 316.538920 248.782920 L 321.132920 246.911920 L 325.726920 245.040920 L 330.312920 243.151920 L 334.867920 241.186920 L 339.407920 239.188920 L 343.946920 237.188920 L 348.485920 235.188920 L 353.025920 233.187920 L 357.564920 231.187920 L 362.103920 229.187920 L 366.639920 227.178920 L 371.212920 225.257920 L 375.813920 223.403920 L 380.458920 221.662920 L 385.151920 220.057920" fill="none" id="16" stroke="#d55969" stroke-width="0.5" /><path d="M 148.332920 328.387920 L 152.993920 326.667920 L 157.620920 324.860920 L 162.216920 322.972920 L 166.774920 320.997920 L 171.315920 318.981920 L 175.856920 316.965920 L 180.396920 314.949920 L 184.937920 312.933920 L 189.478920 310.917920 L 194.020920 308.904920 L 198.574920 306.920920 L 203.144920 304.971920 L 207.718920 303.032920 L 212.293920 301.094920 L 216.867920 299.156920 L 221.442920 297.219920 L 226.016920 295.281920 L 230.589920 293.340920 L 235.154920 291.379920 L 239.706920 289.389920 L 244.252920 287.385920 L 248.798920 285.379920 L 253.343920 283.374920 L 257.888920 281.368920 L 262.433920 279.362920 L 266.977920 277.354920 L 271.517920 275.336920 L 276.047920 273.296920 L 280.565920 271.230920 L 285.066920 269.127920 L 289.553920 266.996920 L 294.037920 264.856920 L 298.521920 262.717920 L 303.005920 260.577920 L 307.489920 258.438920 L 311.980920 256.315920 L 316.492920 254.235920 L 321.021920 252.193920 L 325.554920 250.161920 L 330.088920 248.129920 L 334.622920 246.097920 L 339.155920 244.066920 L 343.689920 242.034920 L 348.222920 240.002920 L 352.755920 237.969920 L 357.282920 235.921920 L 361.793920 233.841920 L 366.296920 231.742920 L 370.797920 229.639920 L 375.299920 227.537920 L 379.800920 225.435920 L 384.302920 223.333920 L 388.803920 221.231920 L 393.305920 219.129920 L 397.805920 217.025920 L 402.300920 214.910920 L 406.788920 212.778920 L 411.272920 210.640920 L 415.757920 208.503920 L 420.242920 206.365920 L 424.726920 204.227920 L 429.214920 202.096920 L 433.728920 200.022920 L 438.261920 197.987920 L 442.795920 195.957920 L 447.329920 193.926920 L 451.863920 191.896920 L 456.397920 189.865920 L 460.932920 187.835920 L 465.466920 185.805920" fill="none" id="17" stroke="#64e4ff" stroke-width="0.5" /><path d="M 170.820920 332.899920 L 175.281920 330.730920 L 179.741920 328.561920 L 184.201920 326.392920 L 188.662920 324.223920 L 193.122920 322.054920 L 197.583920 319.885920 L 202.031920 317.690920 L 206.468920 315.474920 L 210.903920 313.254920 L 215.339920 311.035920 L 219.774920 308.815920 L 224.210920 306.596920 L 228.645920 304.376920 L 233.081920 302.156920 L 237.552920 300.010920 L 242.081920 297.988920 L 246.626920 296.003920 L 251.173920 294.021920 L 255.720920 292.039920 L 260.266920 290.056920 L 264.813920 288.074920 L 269.359920 286.092920 L 273.906920 284.110920 L 278.445920 282.112920 L 282.955920 280.047920 L 287.451920 277.953920 L 291.947920 275.859920 L 296.444920 273.766920 L 300.940920 271.672920 L 305.436920 269.578920 L 309.932920 267.484920 L 314.429920 265.390920 L 318.925920 263.297920 L 323.421920 261.203920 L 327.917920 259.109920 L 332.414920 257.015920 L 336.911920 254.924920 L 341.425920 252.868920 L 345.960920 250.860920 L 350.502920 248.868920 L 355.034920 246.851920 L 359.547920 244.795920 L 364.052920 242.720920 L 368.557920 240.645920 L 373.062920 238.571920 L 377.567920 236.496920 L 382.083920 234.444920 L 386.618920 232.436920 L 391.158920 230.438920 L 395.697920 228.441920 L 400.237920 226.443920 L 404.771920 224.433920 L 409.275920 222.354920 L 413.726920 220.166920 L 418.160920 217.944920 L 422.576920 215.686920 L 426.966920 213.378920 L 431.357920 211.070920 L 435.747920 208.763920 L 440.142920 206.463920 L 444.564920 204.217920 L 449.044920 202.089920 L 453.571920 200.063920 L 458.109920 198.062920 L 462.648920 196.062920 L 467.183920 194.053920 L 471.686920 191.975920 L 476.150920 189.811920 L 480.611920 187.645920 L 485.073920 185.479920 L 489.535920 183.313920 L 493.999920 181.150920 L 498.451920 178.966920 L 502.882920 176.737920 L 507.302920 174.487920" fill="none" id="18" stroke="#e68e54" stroke-width="0.5" /><path d="M 231.545920 274.364920 L 235.574920 271.452920 L 239.541920 268.457920 L 243.422920 265.351920 L 247.238920 262.164920 L 251.060920 258.986920 L 254.928920 255.862920 L 258.872920 252.838920 L 262.918920 249.949920 L 267.035920 247.165920 L 271.169920 244.402920 L 275.302920 241.640920 L 279.425920 238.863920 L 283.514920 236.037920 L 287.572920 233.165920 L 291.617920 230.275920 L 295.644920 227.361920 L 299.644920 224.409920 L 303.630920 221.439920 L 307.621920 218.475920 L 311.631920 215.536920 L 315.659920 212.623920 L 319.693920 209.718920 L 323.742920 206.835920 L 327.835920 204.013920 L 331.958920 201.235920 L 336.123920 198.522920 L 340.313920 195.846920 L 344.502920 193.170920 L 348.659920 190.444920 L 352.686920 187.530920 L 356.604920 184.471920 L 360.426920 181.293920" fill="none" id="19" stroke="#54aeff" stroke-width="0.5" /><path d="M 386.505920 71.758220 L 386.104920 76.689320 L 385.759920 81.624620 L 385.558920 86.567820 L 385.628920 91.514620 L 385.827920 96.458020 L 386.086920 101.398920 L 386.224920 106.343920 L 386.254920 111.290920 L 386.258920 116.238920 L 386.261920 121.185920 L 386.263920 126.132920 L 386.266920 131.080920 L 386.268920 136.027920 L 386.271920 140.974920 L 386.274920 145.922920 L 386.276920 150.869920 L 386.279920 155.816920 L 386.281920 160.764920 L 386.282920 165.711920 L 386.185920 170.658920 L 386.039920 175.603920 L 385.886920 180.548920 L 385.734920 185.493920 L 385.582920 190.438920 L 385.430920 195.383920 L 385.278920 200.328920 L 385.126920 205.273920 L 384.974920 210.218920 L 384.822920 215.163920 L 384.670920 220.108920 L 384.518920 225.053920 L 384.368920 229.998920 L 384.233920 234.944920 L 384.113920 239.889920 L 383.999920 244.835920 L 383.885920 249.781920 L 383.770920 254.728920 L 383.656920 259.674920 L 383.541920 264.620920 L 383.427920 269.566920 L 383.313920 274.512920 L 383.209920 279.458920 L 383.128920 284.405920 L 383.058920 289.351920 L 382.988920 294.298920 L 382.918920 299.245920 L 382.848920 304.192920 L 382.778920 309.139920 L 382.708920 314.086920 L 382.638920 319.033920 L 382.566920 323.979920 L 382.484920 328.926920 L 382.389920 333.873920 L 382.294920 338.819920 L 382.199920 343.765920 L 382.104920 348.712920 L 382.009920 353.658920 L 381.914920 358.605920 L 381.819920 363.551920 L 381.724920 368.498920 L 381.629920 373.444920 L 381.533920 378.391920 L 381.438920 383.337920 L 381.343920 388.283920 L 381.248920 393.230920 L 381.153920 398.176920 L 381.058920 403.123920 L 380.963920 408.069920 L 380.868920 413.016920 L 380.773920 417.962920" fill="none" id="20" stroke="#eed973" stroke-width="0.5" /><path d="M 233.497920 505.576920 L 237.766920 502.997920 L 242.073920 500.482920 L 246.416920 498.031920 L 250.777920 495.610920 L 255.150920 493.214920 L 259.522920 490.813920 L 263.863920 488.358920 L 268.179920 485.859920 L 272.487920 483.345920 L 276.772920 480.793920 L 281.041920 478.216920 L 285.307920 475.631920 L 289.555920 473.019920 L 293.783920 470.374920 L 298.007920 467.722920 L 302.231920 465.071920 L 306.455920 462.419920 L 310.686920 459.777920 L 314.942920 457.178920 L 319.221920 454.616920 L 323.504920 452.062920 L 327.788920 449.508920 L 332.072920 446.953920 L 336.355920 444.399920 L 340.639920 441.845920 L 344.923920 439.291920 L 349.204920 436.732920 L 353.467920 434.144920 L 357.699920 431.506920 L 361.918920 428.846920 L 366.135920 426.184920 L 370.353920 423.522920 L 374.571920 420.861920 L 378.789920 418.199920 L 383.009920 415.542920 L 387.240920 412.900920 L 391.480920 410.275920 L 395.723920 407.654920 L 399.967920 405.035920 L 404.211920 402.415920 L 408.455920 399.795920 L 412.699920 397.175920 L 416.942920 394.555920 L 421.186920 391.935920 L 425.430920 389.316920 L 429.674920 386.696920 L 433.918920 384.076920 L 438.161920 381.455920 L 442.397920 378.823920 L 446.621920 376.171920 L 450.839920 373.511920 L 455.058920 370.851920 L 459.277920 368.191920 L 463.496920 365.532920 L 467.715920 362.872920 L 471.934920 360.212920 L 476.153920 357.552920 L 480.372920 354.892920 L 484.591920 352.233920 L 488.810920 349.573920 L 493.029920 346.915920 L 497.258920 344.270920 L 501.503920 341.653920 L 505.759920 339.052920 L 510.041920 336.495920 L 514.337920 333.962920 L 518.635920 331.432920 L 522.933920 328.902920 L 527.231920 326.372920 L 531.528920 323.841920 L 535.817920 321.296920 L 540.072920 318.694920 L 544.308920 316.061920 L 548.542920 313.426920 L 552.777920 310.791920 L 557.011920 308.156920 L 561.245920 305.521920" fill="none" id="21" stroke="#008bd4" stroke-width="0.5" /><path d="M 296.615920 536.781920 L 300.815920 534.107920 L 305.055920 531.498920 L 309.344920 528.970920 L 313.650920 526.472920 L 317.964920 523.987920 L 322.278920 521.501920 L 326.572920 518.982920 L 330.812920 516.374920 L 335.036920 513.738920 L 339.258920 511.100920 L 343.480920 508.462920 L 347.694920 505.812920 L 351.872920 503.105920 L 356.042920 500.385920 L 360.211920 497.664920 L 364.381920 494.944920 L 368.550920 492.224920 L 372.723920 489.509920 L 376.907920 486.810920 L 381.098920 484.124920 L 385.291920 481.440920 L 389.484920 478.756920 L 393.677920 476.072920 L 397.871920 473.388920 L 402.064920 470.704920 L 406.257920 468.020920 L 410.450920 465.337920 L 414.635920 462.641920 L 418.801920 459.915920 L 422.957920 457.174920 L 427.111920 454.430920 L 431.265920 451.686920 L 435.419920 448.943920 L 439.576920 446.203920 L 443.742920 443.477920 L 447.918920 440.767920 L 452.097920 438.061920 L 456.276920 435.356920 L 460.456920 432.650920 L 464.635920 429.945920 L 468.814920 427.239920 L 472.993920 424.534920 L 477.169920 421.823920 L 481.331920 419.091920 L 485.477920 416.335920 L 489.616920 413.569920 L 493.754920 410.801920 L 497.892920 408.034920 L 502.032920 405.268920 L 506.183920 402.519920 L 510.362920 399.813920 L 514.563920 397.143920 L 518.770920 394.481920 L 522.977920 391.819920 L 527.184920 389.157920 L 531.390920 386.493920 L 535.588920 383.817920 L 539.773920 381.120920 L 543.953920 378.417920 L 548.133920 375.713920 L 552.314920 373.009920 L 556.494920 370.306920 L 560.675920 367.602920 L 564.860920 364.906920 L 569.076920 362.258920 L 573.315920 359.647920 L 577.561920 357.048920 L 581.834920 354.494920 L 586.153920 352.018920 L 590.486920 349.566920 L 594.819920 347.116920 L 599.153920 344.665920 L 603.487920 342.215920 L 607.798920 339.726920 L 612.091920 337.205920 L 616.334920 334.600920 L 620.521920 331.907920" fill="none" id="22" stroke="#fdb968" stroke-width="0.5" /><path d="M 352.395920 559.057920 L 356.687920 556.539920 L 360.956920 553.982920 L 365.177920 551.347920 L 369.302920 548.564920 L 373.464920 545.836920 L 377.685920 543.201920 L 381.920920 540.589920 L 386.157920 537.979920 L 390.392920 535.366920 L 394.613920 532.731920 L 398.814920 530.064920 L 403.011920 527.390920 L 407.207920 524.716920 L 411.393920 522.026920 L 415.546920 519.284920 L 419.672920 516.503920 L 423.794920 513.716920 L 427.916920 510.928920 L 432.038920 508.140920 L 436.161920 505.354920 L 440.296920 502.586920 L 444.471920 499.879920 L 448.687920 497.236920 L 452.914920 494.610920 L 457.141920 491.984920 L 461.367920 489.358920 L 465.594920 486.732920 L 469.821920 484.106920 L 474.046920 481.477920 L 478.260920 478.831920 L 482.456920 476.156920 L 486.639920 473.461920 L 490.820920 470.762920 L 495.001920 468.064920 L 499.181920 465.365920 L 503.365920 462.672920 L 507.571920 460.012920 L 511.811920 457.408920 L 516.066920 454.828920 L 520.322920 452.248920 L 524.577920 449.669920 L 528.832920 447.089920 L 533.087920 444.509920 L 537.342920 441.929920 L 541.596920 439.348920 L 545.842920 436.753920 L 550.068920 434.126920 L 554.277920 431.471920 L 558.480920 428.808920 L 562.684920 426.145920 L 566.887920 423.482920 L 571.091920 420.819920 L 575.295920 418.156920 L 579.499920 415.494920 L 583.710920 412.843920 L 587.949920 410.238920 L 592.213920 407.672920 L 596.481920 405.113920 L 600.749920 402.555920 L 605.017920 399.997920 L 609.285920 397.438920 L 613.553920 394.880920 L 617.818920 392.317920 L 622.064920 389.721920 L 626.291920 387.097920 L 630.517920 384.469920 L 634.742920 381.841920 L 638.971920 379.218920 L 643.231920 376.645920 L 647.501920 374.091920 L 651.773920 371.539920 L 656.049920 368.994920" fill="none" id="23" stroke="#6f73bc" stroke-width="0.5" /><path d="M 249.655920 502.033920 L 254.302920 500.189920 L 258.983920 498.434920 L 263.747920 496.938920 L 268.586920 495.678920 L 273.420920 494.401920 L 278.258920 493.141920 L 283.096920 491.883920 L 287.935920 490.625920 L 292.772920 489.359920 L 297.602920 488.070920 L 302.427920 486.760920 L 307.251920 485.445920 L 312.074920 484.130920 L 316.898920 482.815920 L 321.721920 481.499920 L 326.545920 480.184920 L 331.368920 478.869920 L 336.192920 477.554920 L 341.015920 476.238920 L 345.839920 474.923920 L 350.662920 473.608920 L 355.485920 472.293920 L 360.309920 470.977920 L 365.132920 469.662920 L 369.956920 468.347920 L 374.779920 467.031920 L 379.601920 465.708920 L 384.416920 464.363920 L 389.228920 463.008920 L 394.041920 461.653920 L 398.853920 460.299920 L 403.666920 458.944920 L 408.478920 457.589920 L 413.291920 456.234920 L 418.103920 454.879920 L 422.916920 453.524920 L 427.728920 452.169920 L 432.541920 450.814920 L 437.355920 449.464920 L 442.177920 448.145920 L 447.012920 446.873920 L 451.851920 445.617920 L 456.691920 444.364920 L 461.531920 443.111920 L 466.371920 441.858920 L 471.211920 440.605920 L 476.051920 439.351920 L 480.891920 438.098920 L 485.732920 436.849920 L 490.577920 435.616920 L 495.428920 434.403920 L 500.280920 433.197920 L 505.132920 431.991920 L 509.984920 430.785920 L 514.836920 429.581920 L 519.692920 428.392920 L 524.555920 427.233920 L 529.424920 426.095920 L 534.293920 424.960920 L 539.162920 423.826920 L 544.031920 422.692920 L 548.900920 421.557920 L 553.770920 420.423920 L 558.639920 419.289920 L 563.508920 418.155920 L 568.377920 417.020920 L 573.246920 415.886920 L 578.116920 414.752920 L 582.985920 413.617920 L 587.854920 412.482920 L 592.721920 411.340920 L 597.584920 410.178920 L 602.444920 409.007920 L 607.304920 407.834920 L 612.165920 406.661920 L 617.025920 405.490920" fill="none" id="24" stroke="#8f6aaf" stroke-width="0.5" /><path d="M 244.426920 501.820920 L 249.244920 500.691920 L 254.052920 499.524920 L 258.841920 498.281920 L 263.580920 496.861920 L 268.330920 495.477920 L 273.080920 494.092920 L 277.830920 492.708920 L 282.580920 491.323920 L 287.330920 489.936920 L 292.069920 488.516920 L 296.799920 487.062920 L 301.527920 485.605920 L 306.255920 484.148920 L 310.983920 482.690920 L 315.711920 481.233920 L 320.442920 479.783920 L 325.193920 478.403920 L 329.949920 477.039920 L 334.705920 475.674920 L 339.460920 474.309920 L 344.216920 472.944920 L 348.972920 471.579920 L 353.728920 470.215920 L 358.483920 468.848920 L 363.224920 467.435920 L 367.960920 466.000920 L 372.694920 464.564920 L 377.429920 463.129920 L 382.164920 461.693920 L 386.899920 460.257920 L 391.633920 458.821920 L 396.368920 457.385920 L 401.103920 455.949920 L 405.838920 454.513920 L 410.572920 453.077920 L 415.308920 451.644920 L 420.048920 450.225920 L 424.790920 448.815920 L 429.533920 447.404920 L 434.275920 445.994920 L 439.017920 444.583920 L 443.760920 443.173920 L 448.502920 441.762920 L 453.244920 440.351920 L 457.987920 438.941920 L 462.726920 437.520920 L 467.456920 436.068920 L 472.178920 434.591920 L 476.899920 433.110920 L 481.620920 431.629920 L 486.341920 430.148920 L 491.061920 428.667920 L 495.783920 427.188920 L 500.509920 425.722920 L 505.242920 424.282920 L 509.979920 422.854920 L 514.716920 421.427920 L 519.454920 419.999920 L 524.191920 418.571920 L 528.928920 417.143920 L 533.659920 415.695920 L 538.373920 414.193920 L 543.075920 412.651920 L 547.776920 411.110920 L 552.477920 409.568920 L 557.179920 408.026920 L 561.880920 406.485920 L 566.581920 404.943920 L 571.284920 403.406920 L 575.997920 401.898920 L 580.726920 400.443920 L 585.457920 398.997920 L 590.189920 397.552920 L 594.921920 396.106920 L 599.653920 394.661920 L 604.385920 393.215920 L 609.116920 391.769920 L 613.846920 390.317920 L 618.561920 388.818920 L 623.257920 387.258920 L 627.949920 385.691920 L 632.642920 384.123920 L 637.335920 382.555920 L 642.028920 380.988920 L 646.721920 379.420920 L 651.413920 377.853920 L 656.106920 376.285920 L 660.793920 374.700920 L 665.452920 373.035920 L 670.075920 371.271920 L 674.663920 369.419920" fill="none" id="25" stroke="#8f6aaf" stroke-width="0.5" /><path d="M 255.632920 493.632920 L 260.515920 492.839920 L 265.394920 492.019920 L 270.264920 491.149920 L 275.120920 490.205920 L 279.951920 489.138920 L 284.738920 487.890920 L 289.523920 486.631920 L 294.280920 485.273920 L 299.024920 483.869920 L 303.766920 482.461920 L 308.520920 481.090920 L 313.281920 479.746920 L 318.043920 478.406920 L 322.805920 477.066920 L 327.568920 475.726920 L 332.330920 474.386920 L 337.092920 473.046920 L 341.854920 471.706920 L 346.612920 470.348920 L 351.354920 468.939920 L 356.089920 467.507920 L 360.824920 466.074920 L 365.559920 464.640920 L 370.294920 463.206920 L 375.029920 461.773920 L 379.764920 460.339920 L 384.499920 458.905920 L 389.234920 457.472920 L 393.969920 456.038920 L 398.704920 454.604920 L 403.439920 453.171920 L 408.174920 451.737920 L 412.922920 450.350920 L 417.686920 449.013920 L 422.453920 447.690920 L 427.220920 446.367920 L 431.987920 445.044920 L 436.754920 443.721920 L 441.521920 442.398920 L 446.288920 441.075920 L 451.055920 439.753920 L 455.822920 438.430920 L 460.589920 437.107920 L 465.356920 435.784920 L 470.123920 434.461920 L 474.890920 433.138920 L 479.657920 431.815920 L 484.430920 430.513920 L 489.211920 429.240920 L 493.994920 427.976920 L 498.776920 426.711920 L 503.559920 425.446920 L 508.342920 424.181920 L 513.125920 422.917920 L 517.908920 421.652920 L 522.690920 420.385920 L 527.464920 419.088920 L 532.226920 417.745920 L 536.987920 416.403920 L 541.749920 415.060920 L 546.510920 413.717920 L 551.267920 412.358920 L 556.014920 410.966920 L 560.755920 409.553920 L 565.497920 408.140920 L 570.239920 406.730920 L 574.988920 405.346920 L 579.756920 404.025920 L 584.531920 402.732920 L 589.306920 401.438920 L 594.081920 400.144920 L 598.856920 398.850920 L 603.631920 397.556920 L 608.406920 396.262920 L 613.181920 394.968920 L 617.956920 393.674920 L 622.731920 392.380920 L 627.506920 391.085920 L 632.276920 389.775920 L 637.035920 388.423920 L 641.789920 387.055920 L 646.544920 385.686920 L 651.298920 384.317920 L 656.052920 382.948920 L 660.806920 381.580920 L 665.560920 380.211920 L 670.314920 378.842920 L 675.068920 377.473920 L 679.798920 376.023920 L 684.516920 374.534920 L 689.204920 372.955920 L 693.844920 371.238920" fill="none" id="26" stroke="#8f6aaf" stroke-width="0.5" /><path d="M 254.442920 497.686920 L 259.284920 496.518920 L 264.113920 495.296920 L 268.918920 493.982920 L 273.719920 492.659920 L 278.520920 491.332920 L 283.313920 489.977920 L 288.088920 488.557920 L 292.856920 487.116920 L 297.623920 485.674920 L 302.391920 484.232920 L 307.159920 482.790920 L 311.926920 481.348920 L 316.696920 479.911920 L 321.475920 478.510920 L 326.268920 477.152920 L 331.063920 475.805920 L 335.858920 474.458920 L 340.654920 473.111920 L 345.449920 471.764920 L 350.244920 470.418920 L 355.040920 469.071920 L 359.835920 467.724920 L 364.631920 466.377920 L 369.426920 465.030920 L 374.222920 463.684920 L 379.017920 462.337920 L 383.812920 460.990920 L 388.608920 459.643920 L 393.403920 458.296920 L 398.199920 456.949920 L 402.994920 455.603920 L 407.789920 454.256920 L 412.585920 452.910920 L 417.382920 451.570920 L 422.182920 450.237920 L 426.986920 448.921920 L 431.799920 447.640920 L 436.618920 446.379920 L 441.438920 445.122920 L 446.257920 443.865920 L 451.077920 442.608920 L 455.897920 441.351920 L 460.717920 440.094920 L 465.536920 438.837920 L 470.355920 437.577920 L 475.169920 436.298920 L 479.975920 434.988920 L 484.775920 433.659920 L 489.574920 432.326920 L 494.374920 430.993920 L 499.173920 429.660920 L 503.972920 428.327920 L 508.771920 426.994920 L 513.571920 425.661920 L 518.370920 424.328920 L 523.169920 422.995920 L 527.968920 421.662920 L 532.765920 420.319920 L 537.551920 418.941920 L 542.327920 417.525920 L 547.094920 416.080920 L 551.847920 414.593920 L 556.597920 413.092920 L 561.346920 411.591920 L 566.096920 410.090920 L 570.845920 408.589920 L 575.594920 407.088920 L 580.344920 405.587920 L 585.093920 404.086920 L 589.844920 402.589920 L 594.601920 401.114920 L 599.369920 399.673920 L 604.140920 398.242920 L 608.912920 396.812920 L 613.683920 395.383920 L 618.454920 393.953920 L 623.226920 392.523920 L 627.997920 391.093920 L 632.769920 389.665920 L 637.550920 388.267920 L 642.338920 386.894920 L 647.130920 385.536920 L 651.905920 384.121920 L 656.673920 382.679920 L 661.437920 381.225920" fill="none" id="27" stroke="#8f6aaf" stroke-width="0.5" /><path d="M 131.671920 442.222920 L 136.182920 440.083920 L 140.684920 437.924920 L 145.173920 435.737920 L 149.677920 433.582920 L 154.160920 431.385920 L 158.616920 429.132920 L 163.049920 426.834920 L 167.452920 424.479920 L 171.837920 422.091920 L 176.219920 419.698920 L 180.601920 417.304920 L 184.983920 414.911920 L 189.365920 412.517920 L 193.747920 410.124920 L 198.128920 407.731920 L 202.510920 405.337920 L 206.892920 402.944920 L 211.274920 400.550920 L 215.656920 398.157920 L 220.038920 395.763920 L 224.420920 393.370920 L 228.802920 390.976920 L 233.184920 388.583920 L 237.566920 386.189920 L 241.948920 383.796920 L 246.330920 381.402920 L 250.712920 379.009920 L 255.094920 376.615920 L 259.476920 374.222920 L 263.858920 371.829920 L 268.240920 369.435920 L 272.621920 367.040920 L 276.984920 364.612920 L 281.334920 362.162920 L 285.684920 359.711920 L 290.034920 357.259920 L 294.384920 354.808920 L 298.777920 352.436920 L 303.186920 350.093920 L 307.597920 347.753920 L 312.008920 345.413920 L 316.424920 343.084920 L 320.877920 340.824920 L 325.346920 338.597920 L 329.817920 336.376920 L 334.288920 334.152920 L 338.751920 331.914920 L 343.192920 329.632920 L 347.614920 327.313920 L 352.030920 324.983920 L 356.446920 322.654920 L 360.862920 320.324920 L 365.279920 317.994920 L 369.695920 315.665920 L 374.111920 313.335920 L 378.528920 311.007920 L 382.961920 308.710920 L 387.435920 306.493920 L 391.936920 304.332920 L 396.442920 302.181920 L 400.948920 300.030920 L 405.454920 297.879920 L 409.959920 295.727920 L 414.458920 293.561920 L 418.940920 291.361920 L 423.408920 289.133920 L 427.874920 286.900920 L 432.340920 284.667920 L 436.806920 282.434920 L 441.272920 280.201920 L 445.737920 277.968920 L 450.203920 275.735920 L 454.669920 273.502920 L 459.135920 271.269920" fill="none" id="28" stroke="#8bb658" stroke-width="0.5" /><path d="M 411.485920 290.959920 L 415.329920 292.568920 L 419.149920 294.234920 L 422.927920 295.991920 L 426.685920 297.792920 L 430.440920 299.598920 L 434.196920 301.403920 L 437.969920 303.172920 L 441.763920 304.896920 L 445.567920 306.596920 L 449.397920 308.239920 L 453.252920 309.819920 L 457.125920 311.357920 L 461.015920 312.851920 L 464.919920 314.309920 L 468.827920 315.755920 L 472.736920 317.201920 L 476.644920 318.647920 L 480.550920 320.098920 L 484.444920 321.581920 L 488.314920 323.126920 L 492.165920 324.718920 L 496.016920 326.310920 L 499.868920 327.899920 L 503.728920 329.471920 L 507.606920 330.996920 L 511.498920 332.485920 L 515.390920 333.972920 L 519.270920 335.494920 L 523.130920 337.062920 L 526.978920 338.663920" fill="none" id="29" stroke="#bbabff" stroke-width="0.5" /><path d="M 276.143920 225.537920 L 280.508920 227.898920 L 284.865920 230.272920 L 289.252920 232.592920 L 293.684920 234.823920 L 298.083920 237.118920 L 302.477920 239.424920 L 306.896920 241.683920 L 311.363920 243.843920 L 315.869920 245.921920 L 320.404920 247.935920 L 324.948920 249.929920 L 329.493920 251.921920 L 334.038920 253.912920 L 338.576920 255.920920 L 343.087920 257.987920 L 347.580920 260.094920 L 352.070920 262.207920 L 356.560920 264.320920 L 361.049920 266.433920 L 365.539920 268.546920 L 370.041920 270.634920 L 374.564920 272.674920 L 379.098920 274.691920 L 383.633920 276.706920 L 388.168920 278.720920 L 392.703920 280.734920 L 397.237920 282.751920 L 401.765920 284.782920 L 406.287920 286.824920 L 410.809920 288.867920 L 415.331920 290.911920 L 419.853920 292.955920 L 424.375920 294.999920 L 428.896920 297.043920 L 433.418920 299.087920 L 437.940920 301.131920 L 442.462920 303.175920 L 446.983920 305.219920 L 451.505920 307.263920 L 456.023920 309.316920 L 460.536920 311.379920 L 465.047920 313.446920 L 469.558920 315.513920 L 474.070920 317.580920 L 478.581920 319.647920 L 483.092920 321.714920 L 487.604920 323.781920 L 492.115920 325.848920 L 496.626920 327.915920 L 501.138920 329.981920 L 505.655920 332.034920 L 510.188920 334.054920 L 514.734920 336.043920 L 519.285920 338.021920 L 523.836920 339.999920 L 528.387920 341.977920 L 532.938920 343.955920 L 537.489920 345.933920 L 542.040920 347.911920 L 546.591920 349.890920 L 551.137920 351.878920 L 555.666920 353.905920 L 560.174920 355.980920 L 564.674920 358.071920 L 569.174920 360.163920 L 573.674920 362.254920 L 578.174920 364.346920 L 582.674920 366.437920 L 587.174920 368.529920 L 591.674920 370.621920 L 596.174920 372.712920 L 600.673920 374.804920 L 605.173920 376.895920 L 609.673920 378.987920 L 614.173920 381.078920 L 618.673920 383.170920 L 623.175920 385.257920 L 627.685920 387.326920 L 632.207920 389.371920 L 636.733920 391.406920 L 641.259920 393.440920 L 645.785920 395.474920 L 650.311920 397.509920 L 654.837920 399.544920 L 659.356920 401.593920 L 663.852920 403.692920 L 668.321920 405.850920 L 672.763920 408.062920 L 677.186920 410.311920 L 681.606920 412.566920 L 686.026920 414.821920 L 690.447920 417.076920 L 694.868920 419.329920 L 699.300920 421.562920 L 703.761920 423.735920 L 708.251920 425.847920 L 712.741920 427.959920 L 717.232920 430.070920 L 721.722920 432.182920 L 726.213920 434.294920 L 730.703920 436.406920 L 735.194920 438.518920 L 739.684920 440.630920 L 744.175920 442.742920" fill="none" id="30" stroke="#bbabff" stroke-width="0.5" /><path d="M 77.750220 405.135920 L 82.554720 403.861920 L 87.320120 402.449920 L 91.996320 400.768920 L 96.509620 398.686920 L 101.008920 396.573920 L 105.500920 394.446920 L 109.992920 392.317920 L 114.484920 390.189920 L 118.976920 388.061920 L 123.468920 385.932920 L 127.960920 383.804920 L 132.451920 381.676920 L 136.943920 379.548920 L 141.434920 377.416920 L 145.914920 375.264920 L 150.373920 373.068920 L 154.822920 370.851920 L 159.269920 368.631920 L 163.717920 366.411920 L 168.164920 364.192920 L 172.611920 361.972920 L 177.059920 359.752920 L 181.506920 357.532920 L 185.953920 355.313920 L 190.414920 353.121920 L 194.907920 350.994920 L 199.413920 348.895920 L 203.919920 346.798920 L 208.422920 344.695920 L 212.914920 342.566920 L 217.393920 340.410920 L 221.867920 338.245920 L 226.341920 336.080920 L 230.816920 333.915920 L 235.290920 331.750920 L 239.764920 329.585920 L 244.239920 327.421920 L 248.717920 325.263920 L 253.208920 323.133920 L 257.713920 321.035920 L 262.225920 318.948920 L 266.736920 316.862920 L 271.247920 314.775920 L 275.759920 312.688920 L 280.270920 310.602920 L 284.782920 308.515920 L 289.293920 306.428920 L 293.804920 304.342920 L 298.316920 302.255920 L 302.827920 300.169920 L 307.339920 298.083920 L 311.854920 296.005920 L 316.376920 293.942920 L 320.903920 291.888920 L 325.430920 289.836920 L 329.957920 287.784920 L 334.484920 285.731920 L 339.011920 283.679920 L 343.538920 281.627920 L 348.065920 279.574920 L 352.592920 277.522920 L 357.119920 275.469920 L 361.646920 273.417920 L 366.174920 271.366920 L 370.708920 269.329920 L 375.254920 267.320920 L 379.803920 265.317920 L 384.353920 263.315920 L 388.902920 261.313920 L 393.452920 259.311920 L 398.001920 257.308920" fill="none" id="31" stroke="#658424" stroke-width="0.5" /><path d="M 139.104920 447.726920 L 141.055920 445.361920 L 143.007920 442.996920 L 144.960920 440.631920 L 146.912920 438.267920 L 148.866920 435.903920 L 150.820920 433.540920 L 152.810920 431.207920 L 154.818920 428.889920 L 156.857920 426.599920 L 158.887920 424.301920 L 160.909920 421.995920 L 162.920920 419.680920 L 164.929920 417.364920 L 166.939920 415.048920 L 168.962920 412.743920 L 170.994920 410.447920 L 173.054920 408.175920 L 175.128920 405.917920 L 177.212920 403.667920 L 179.298920 401.420920 L 181.381920 399.169920 L 183.459920 396.915920 L 185.511920 394.636920 L 187.550920 392.345920 L 189.567920 390.036920 L 191.582920 387.725920 L 193.597920 385.413920 L 195.612920 383.101920 L 197.627920 380.789920 L 199.641920 378.477920" fill="none" id="32" stroke="#f1b9ff" stroke-width="0.5" /><path d="M 196.306920 383.200920 L 199.793920 379.694920 L 203.259920 376.167920 L 206.699920 372.615920 L 210.105920 369.031920 L 213.509920 365.444920 L 216.904920 361.849920 L 220.251920 358.209920 L 223.570920 354.544920 L 226.887920 350.876920 L 230.203920 347.208920 L 233.519920 343.540920 L 236.835920 339.872920 L 240.157920 336.210920 L 243.509920 332.575920 L 246.871920 328.949920 L 250.233920 325.323920 L 253.616920 321.716920 L 257.018920 318.128920 L 260.424920 314.543920 L 263.831920 310.959920 L 267.237920 307.375920 L 270.643920 303.790920 L 274.050920 300.206920 L 277.456920 296.622920 L 280.862920 293.038920 L 284.269920 289.453920 L 287.665920 285.859920 L 291.036920 282.242920 L 294.390920 278.608920 L 297.742920 274.973920 L 301.093920 271.337920 L 304.445920 267.702920 L 307.803920 264.072920 L 311.202920 260.481920 L 314.667920 256.954920 L 318.156920 253.449920 L 321.644920 249.945920 L 325.133920 246.440920 L 328.621920 242.936920 L 332.109920 239.431920 L 335.598920 235.927920 L 339.093920 232.429920 L 342.608920 228.951920 L 346.133920 225.483920 L 349.657920 222.014920 L 353.159920 218.524920 L 356.555920 214.929920 L 359.885920 211.274920 L 363.215920 207.619920 L 366.545920 203.964920 L 369.875920 200.308920" fill="none" id="33" stroke="#f1b9ff" stroke-width="0.5" /><path d="M 260.930920 273.017920 L 258.207920 277.203920 L 255.733920 281.540920 L 253.608920 286.059920 L 251.769920 290.702920 L 249.849920 295.312920 L 247.909920 299.914920 L 246.009920 304.533920 L 244.208920 309.191920 L 242.442920 313.862920 L 240.681920 318.535920 L 238.921920 323.209920 L 237.198920 327.896920 L 235.553920 332.612920 L 233.934920 337.336920 L 232.315920 342.061920 L 230.697920 346.785920 L 229.078920 351.510920 L 227.459920 356.234920 L 225.841920 360.959920 L 224.222920 365.683920 L 222.603920 370.408920 L 220.984920 375.132920 L 219.366920 379.857920 L 217.747920 384.581920 L 216.131920 389.306920 L 214.528920 394.036920 L 212.951920 398.775920 L 211.391920 403.519920 L 209.845920 408.268920 L 208.327920 413.026920 L 206.833920 417.791920 L 205.345920 422.558920 L 203.856920 427.325920 L 202.367920 432.092920 L 200.878920 436.859920 L 199.389920 441.626920 L 197.901920 446.393920 L 196.412920 451.160920 L 194.923920 455.927920 L 193.434920 460.694920" fill="none" id="34" stroke="#989c37" stroke-width="0.5" /><path d="M 258.789920 278.308920 L 255.754920 282.205920 L 253.184920 286.417920 L 251.239920 290.953920 L 249.683920 295.642920 L 247.964920 300.274920 L 246.239920 304.903920 L 244.513920 309.533920 L 242.787920 314.162920 L 241.061920 318.792920 L 239.335920 323.421920 L 237.609920 328.050920 L 235.884920 332.680920 L 234.158920 337.309920 L 232.434920 341.939920 L 230.732920 346.577920 L 229.065920 351.228920 L 227.419920 355.887920 L 225.775920 360.546920 L 224.132920 365.205920 L 222.488920 369.864920 L 220.845920 374.524920 L 219.201920 379.183920 L 217.576920 383.848920 L 216.000920 388.531920 L 214.469920 393.228920 L 212.955920 397.931920 L 211.461920 402.640920 L 210.003920 407.361920 L 208.569920 412.089920 L 207.140920 416.818920 L 205.710920 421.548920 L 204.282920 426.278920 L 202.867920 431.011920 L 201.477920 435.752920 L 200.093920 440.495920 L 198.709920 445.238920 L 197.326920 449.981920 L 195.942920 454.724920 L 194.558920 459.467920 L 193.182920 464.212920 L 192.018920 469.013920 L 191.129920 473.873920 L 190.442920 478.765920" fill="none" id="35" stroke="#989c37" stroke-width="0.5" /><path d="M 204.521920 32.852720 L 209.067920 34.861420 L 213.665920 36.745420 L 218.350920 38.399220 L 223.097920 39.867620 L 227.858920 41.294020 L 232.595920 42.794720 L 237.306920 44.376220 L 242.011920 45.975820 L 246.716920 47.576320 L 251.421920 49.176720 L 256.126920 50.777220 L 260.825920 52.395820 L 265.511920 54.049720 L 270.194920 55.715120 L 274.876920 57.382020 L 279.555920 59.055820 L 284.216920 60.778220 L 288.849920 62.577420 L 293.474920 64.396120 L 298.098920 66.216120 L 302.723920 68.036020 L 307.347920 69.855920 L 311.972920 71.675820 L 316.596920 73.495720 L 321.221920 75.315720 L 325.846920 77.133120 L 330.477920 78.936120 L 335.118920 80.713920 L 339.765920 82.475120 L 344.414920 84.232620 L 349.062920 85.990220 L 353.711920 87.747820 L 358.359920 89.505420 L 363.008920 91.263020 L 367.657920 93.020620 L 372.305920 94.778220 L 376.956920 96.530520 L 381.613920 98.264320 L 386.281920 99.969820 L 390.953920 101.662920 L 395.626920 103.355920 L 400.298920 105.048920 L 404.970920 106.742920 L 409.643920 108.435920 L 414.314920 110.132920 L 418.976920 111.853920 L 423.627920 113.603920 L 428.273920 115.368920 L 432.919920 117.132920 L 437.565920 118.896920 L 442.211920 120.660920 L 446.857920 122.425920 L 451.503920 124.189920 L 456.149920 125.953920 L 460.795920 127.717920 L 465.441920 129.482920 L 470.087920 131.246920 L 474.733920 133.010920 L 479.379920 134.775920 L 484.023920 136.544920 L 488.659920 138.334920 L 493.282920 140.160920 L 497.899920 141.997920 L 502.517920 143.835920 L 507.134920 145.673920 L 511.751920 147.512920 L 516.368920 149.350920 L 520.985920 151.189920 L 525.603920 153.027920 L 530.220920 154.865920 L 534.836920 156.706920 L 539.442920 158.571920 L 544.028920 160.488920 L 548.602920 162.429920 L 553.176920 164.375920 L 557.749920 166.320920 L 562.322920 168.266920 L 566.895920 170.211920 L 571.468920 172.157920 L 576.042920 174.100920 L 580.620920 176.032920 L 585.210920 177.939920 L 589.805920 179.831920 L 594.401920 181.723920 L 598.997920 183.614920 L 603.592920 185.506920 L 608.188920 187.397920 L 612.784920 189.289920 L 617.379920 191.180920 L 621.975920 193.072920 L 626.570920 194.964920 L 631.164920 196.859920 L 635.752920 198.771920 L 640.334920 200.695920 L 644.915920 202.622920 L 649.496920 204.549920 L 654.077920 206.476920 L 658.658920 208.402920 L 663.239920 210.329920 L 667.820920 212.257920 L 672.397920 214.191920 L 676.961920 216.159920 L 681.506920 218.168920 L 686.051920 220.178920 L 690.596920 222.189920 L 695.141920 224.199920 L 699.686920 226.209920 L 704.231920 228.220920 L 708.776920 230.230920 L 713.321920 232.241920 L 717.866920 234.251920 L 722.411920 236.261920" fill="none" id="36" stroke="#cfe395" stroke-width="0.5" /><path d="M 271.951920 61.199220 L 276.857920 61.904920 L 281.726920 62.827520 L 286.551920 63.955520 L 291.328920 65.277120 L 296.045920 66.794920 L 300.697920 68.502720 L 305.345920 70.223220 L 309.992920 71.943820 L 314.640920 73.664320 L 319.287920 75.384820 L 323.935920 77.105420 L 328.580920 78.830620 L 333.195920 80.636120 L 337.800920 82.469020 L 342.403920 84.304620 L 347.006920 86.140120 L 351.609920 87.975720 L 356.213920 89.811220 L 360.816920 91.646720 L 365.419920 93.482220 L 370.039920 95.275420 L 374.703920 96.952020 L 379.381920 98.587820 L 384.059920 100.223020 L 388.737920 101.857920 L 393.415920 103.492920 L 398.093920 105.128920 L 402.769920 106.770920 L 407.428920 108.459920 L 412.078920 110.173920 L 416.728920 111.888920 L 421.377920 113.602920 L 426.027920 115.316920 L 430.677920 117.031920 L 435.327920 118.745920 L 439.976920 120.459920 L 444.626920 122.174920 L 449.284920 123.865920 L 453.965920 125.493920 L 458.663920 127.069920 L 463.364920 128.637920 L 468.065920 130.206920 L 472.766920 131.774920 L 477.467920 133.342920 L 482.168920 134.910920 L 486.870920 136.479920 L 491.571920 138.047920 L 496.272920 139.615920 L 500.976920 141.173920 L 505.691920 142.699920 L 510.416920 144.192920 L 515.155920 145.644920 L 519.908920 147.047920 L 524.661920 148.449920 L 529.413920 149.853920 L 534.158920 151.285920 L 538.879920 152.791920 L 543.595920 154.314920 L 548.311920 155.838920 L 553.027920 157.361920 L 557.743920 158.884920 L 562.456920 160.415920 L 567.157920 161.983920 L 571.849920 163.578920 L 576.540920 165.175920 L 581.232920 166.771920 L 585.923920 168.368920 L 590.615920 169.965920 L 595.306920 171.561920 L 599.997920 173.161920 L 604.670920 174.809920 L 609.322920 176.518920 L 613.972920 178.231920 L 618.622920 179.945920 L 623.272920 181.658920 L 627.923920 183.371920" fill="none" id="37" stroke="#cfe395" stroke-width="0.5" /><path d="M 295.167920 25.695220 L 299.914920 27.237620 L 304.672920 28.744420 L 309.453920 30.178920 L 314.250920 31.556220 L 319.044920 32.947420 L 323.830920 34.363120 L 328.596920 35.847120 L 333.353920 37.358620 L 338.109920 38.872020 L 342.866920 40.385420 L 347.622920 41.898820 L 352.378920 43.412220 L 357.136920 44.921920 L 361.904920 46.397320 L 366.692920 47.806820 L 371.489920 49.185920 L 376.298920 50.525120 L 381.114920 51.833920 L 385.932920 53.137620 L 390.751920 54.441420 L 395.568920 55.746120 L 400.383920 57.064020 L 405.185920 58.423620 L 409.979920 59.814620 L 414.766920 61.225620 L 419.538920 62.689620 L 424.292920 64.211320 L 429.041920 65.747820 L 433.790920 67.284320 L 438.539920 68.820820 L 443.288920 70.357320 L 448.041920 71.881220 L 452.805920 73.369320 L 457.576920 74.835320 L 462.349920 76.297220 L 467.121920 77.759220 L 471.891920 79.227920 L 476.652920 80.728220 L 481.397920 82.274920 L 486.136920 83.844820 L 490.873920 85.417620 L 495.610920 86.990420 L 500.347920 88.563220 L 505.084920 90.135420 L 509.824920 91.698720 L 514.572920 93.237420 L 519.328920 94.751820 L 524.087920 96.258020 L 528.846920 97.764320 L 533.604920 99.270520 L 538.363920 100.776920 L 543.122920 102.283920 L 547.876920 103.801920 L 552.618920 105.359920 L 557.345920 106.961920 L 562.067920 108.579920 L 566.789920 110.197920 L 571.511920 111.815920 L 576.233920 113.433920 L 580.954920 115.051920 L 585.676920 116.669920 L 590.398920 118.287920 L 595.120920 119.905920 L 599.842920 121.523920 L 604.562920 123.145920 L 609.274920 124.791920 L 613.972920 126.477920 L 618.664920 128.179920 L 623.356920 129.883920 L 628.047920 131.587920 L 632.739920 133.291920 L 637.430920 134.995920 L 642.122920 136.698920 L 646.817920 138.392920 L 651.519920 140.066920 L 656.225920 141.732920 L 660.930920 143.396920 L 665.636920 145.061920 L 670.341920 146.726920 L 675.047920 148.390920 L 679.752920 150.056920 L 684.454920 151.731920 L 689.146920 153.433920 L 693.835920 155.146920 L 698.523920 156.859920 L 703.211920 158.573920 L 707.899920 160.286920 L 712.587920 161.999920 L 717.275920 163.713920 L 721.963920 165.426920 L 726.651920 167.140920 L 731.339920 168.853920 L 736.027920 170.567920 L 740.715920 172.280920 L 745.403920 173.994920" fill="none" id="38" stroke="#c45372" stroke-width="0.5" /><path d="M 637.403920 106.931920 L 637.691920 111.859920 L 637.876920 116.791920 L 638.018920 121.726920 L 638.125920 126.661920 L 638.127920 131.597920 L 638.127920 136.534920 L 638.047920 141.469920 L 637.901920 146.404920 L 637.747920 151.338920 L 637.592920 156.272920 L 637.438920 161.206920 L 637.283920 166.139920 L 637.129920 171.073920 L 636.975920 176.007920 L 636.820920 180.941920 L 636.667920 185.875920 L 636.609920 190.811920 L 636.590920 195.748920 L 636.574920 200.684920 L 636.559920 205.620920 L 636.543920 210.557920 L 636.528920 215.493920 L 636.512920 220.430920 L 636.496920 225.366920 L 636.460920 230.302920 L 636.411920 235.238920 L 636.361920 240.174920 L 636.310920 245.110920 L 636.259920 250.047920 L 636.209920 254.983920 L 636.158920 259.919920 L 636.107920 264.855920 L 636.056920 269.791920 L 636.006920 274.727920 L 635.955920 279.663920 L 635.904920 284.599920 L 635.854920 289.536920 L 635.803920 294.472920 L 635.752920 299.408920 L 635.702920 304.344920 L 635.671920 309.280920 L 635.665920 314.217920 L 635.662920 319.153920 L 635.658920 324.089920 L 635.654920 329.026920 L 635.651920 333.962920 L 635.647920 338.898920 L 635.643920 343.835920 L 635.639920 348.771920 L 635.636920 353.708920 L 635.632920 358.644920 L 635.628920 363.580920 L 635.625920 368.517920 L 635.621920 373.453920 L 635.617920 378.389920 L 635.613920 383.326920 L 635.610920 388.262920 L 635.606920 393.199920 L 635.602920 398.135920 L 635.598920 403.071920 L 635.595920 408.008920 L 635.591920 412.944920 L 635.587920 417.880920 L 635.584920 422.817920 L 635.578920 427.753920 L 635.548920 432.689920 L 635.441920 437.625920 L 635.301920 442.559920 L 635.150920 447.493920 L 634.863920 452.421920 L 634.533920 457.347920 L 634.184920 462.271920 L 633.781920 467.190920" fill="none" id="39" stroke="#008c6f" stroke-width="0.5" /><path d="M 641.560920 132.820920 L 641.582920 137.798920 L 641.570920 142.775920 L 641.532920 147.752920 L 641.407920 152.728920 L 641.255920 157.703920 L 641.101920 162.678920 L 640.947920 167.653920 L 640.793920 172.628920 L 640.639920 177.603920 L 640.485920 182.578920 L 640.336920 187.553920 L 640.211920 192.529920 L 640.104920 197.505920 L 640.001920 202.481920 L 639.898920 207.458920 L 639.795920 212.434920 L 639.692920 217.410920 L 639.589920 222.386920 L 639.486920 227.363920 L 639.383920 232.339920 L 639.284920 237.315920 L 639.206920 242.292920 L 639.168920 247.269920 L 639.157920 252.247920 L 639.152920 257.224920 L 639.147920 262.201920 L 639.142920 267.179920 L 639.137920 272.156920 L 639.132920 277.133920 L 639.127920 282.111920 L 639.122920 287.088920 L 639.117920 292.065920 L 639.112920 297.043920 L 639.106920 302.020920 L 639.101920 306.998920 L 639.096920 311.975920 L 639.091920 316.952920 L 639.086920 321.930920 L 639.081920 326.907920 L 639.076920 331.884920 L 639.071920 336.862920 L 639.066920 341.839920 L 639.061920 346.816920 L 639.056920 351.794920 L 639.051920 356.771920 L 639.046920 361.748920 L 639.041920 366.726920" fill="none" id="40" stroke="#ff94af" stroke-width="0.5" /><path d="M 639.041920 413.994920 L 639.060920 416.643920 L 639.080920 419.292920 L 639.100920 421.942920 L 639.120920 424.591920 L 639.140920 427.241920 L 639.160920 429.890920 L 639.179920 432.540920 L 639.199920 435.189920 L 639.219920 437.839920 L 639.239920 440.488920 L 639.261920 443.138920 L 639.291920 445.787920 L 639.343920 448.436920 L 639.410920 451.085920 L 639.490920 453.733920 L 639.576920 456.381920 L 639.662920 459.030920 L 639.748920 461.678920 L 639.834920 464.326920 L 639.920920 466.974920 L 640.006920 469.622920 L 640.092920 472.270920 L 640.178920 474.919920 L 640.265920 477.567920 L 640.351920 480.215920 L 640.437920 482.863920 L 640.523920 485.511920 L 640.609920 488.159920 L 640.695920 490.807920 L 640.781920 493.456920 L 640.867920 496.104920" fill="none" id="41" stroke="#488656" stroke-width="0.5" /><path d="M 631.891920 91.459020 L 632.216920 96.447820 L 632.440920 101.441920 L 632.640920 106.437920 L 632.858920 111.431920 L 632.862920 116.430920 L 632.858920 121.430920 L 632.854920 126.429920 L 632.850920 131.428920 L 632.846920 136.428920 L 632.842920 141.427920 L 632.825920 146.426920 L 632.719920 151.425920 L 632.536920 156.421920 L 632.341920 161.416920 L 632.146920 166.412920 L 631.951920 171.407920 L 631.756920 176.403920 L 631.561920 181.398920 L 631.367920 186.394920 L 631.172920 191.390920 L 630.981920 196.385920 L 630.806920 201.382920 L 630.651920 206.379920 L 630.502920 211.376920 L 630.353920 216.373920 L 630.205920 221.370920 L 630.057920 226.367920 L 629.908920 231.364920 L 629.760920 236.362920 L 629.611920 241.359920 L 629.463920 246.356920 L 629.314920 251.353920 L 629.166920 256.350920 L 629.027920 261.348920 L 628.916920 266.346920 L 628.837920 271.345920 L 628.769920 276.344920 L 628.702920 281.342920 L 628.639920 286.341920 L 628.595920 291.341920 L 628.578920 296.340920 L 628.574920 301.339920 L 628.569920 306.339920 L 628.565920 311.338920 L 628.560920 316.337920 L 628.568920 321.337920 L 628.624920 326.336920 L 628.737920 331.334920 L 628.873920 336.331920 L 629.011920 341.329920 L 629.149920 346.326920 L 629.287920 351.324920 L 629.425920 356.321920 L 629.564920 361.319920 L 629.702920 366.316920 L 629.840920 371.314920 L 629.978920 376.311920 L 630.116920 381.309920 L 630.254920 386.306920 L 630.393920 391.303920 L 630.531920 396.301920 L 630.669920 401.298920 L 630.808920 406.296920 L 630.952920 411.293920 L 631.110920 416.290920 L 631.271920 421.287920 L 631.431920 426.284920 L 631.591920 431.280920 L 631.751920 436.277920 L 631.911920 441.274920 L 632.072920 446.271920 L 632.232920 451.268920 L 632.392920 456.264920 L 632.552920 461.261920" fill="none" id="42" stroke="#ffc0e1" stroke-width="0.5" /><path d="M 322.820920 9.703110 L 322.278920 14.632420 L 321.860920 19.573720 L 321.633920 24.527520 L 321.600920 29.486420 L 321.554920 34.445220 L 321.493920 39.403920 L 321.367920 44.361320 L 321.209920 49.317720 L 321.048920 54.274120 L 320.886920 59.230520 L 320.725920 64.186920 L 320.564920 69.143320 L 320.403920 74.099620 L 320.241920 79.056020 L 320.080920 84.012420 L 319.919920 88.968820 L 319.757920 93.925220 L 319.596920 98.881520 L 319.444920 103.837920 L 319.327920 108.795920 L 319.223920 113.753920 L 319.119920 118.711920 L 319.016920 123.669920 L 318.913920 128.627920 L 318.810920 133.585920 L 318.707920 138.543920 L 318.604920 143.500920 L 318.501920 148.458920 L 318.397920 153.416920 L 318.294920 158.374920 L 318.191920 163.332920 L 318.088920 168.290920 L 318.004920 173.248920 L 317.967920 178.207920 L 317.959920 183.166920 L 317.954920 188.125920 L 317.948920 193.084920 L 317.942920 198.043920 L 317.936920 203.002920 L 317.931920 207.961920 L 317.925920 212.920920 L 317.919920 217.879920 L 317.914920 222.838920 L 317.908920 227.797920 L 317.902920 232.756920 L 317.897920 237.715920 L 317.891920 242.674920 L 317.885920 247.633920 L 317.879920 252.592920 L 317.874920 257.551920 L 317.868920 262.510920 L 317.862920 267.469920 L 317.857920 272.428920 L 317.851920 277.387920 L 317.849920 282.346920 L 317.864920 287.305920 L 317.891920 292.264920 L 317.918920 297.223920 L 317.945920 302.182920 L 317.973920 307.141920 L 318.000920 312.100920 L 318.027920 317.059920 L 318.054920 322.018920 L 318.081920 326.977920 L 318.109920 331.936920 L 318.136920 336.895920 L 318.163920 341.853920 L 318.190920 346.812920" fill="none" id="43" stroke="#6c8139" stroke-width="0.5" /><path d="M 37.183320 117.820920 L 41.951720 116.426920 L 46.724920 115.049920 L 51.506820 113.702920 L 56.306320 112.419920 L 61.097320 111.105920 L 65.873520 109.738920 L 70.647720 108.365920 L 75.421920 106.991920 L 80.196020 105.617920 L 84.970220 104.242920 L 89.744320 102.868920 L 94.518520 101.494920 L 99.292720 100.121220 L 104.066920 98.747220 L 108.840920 97.373120 L 113.614920 95.999120 L 118.385920 94.612420 L 123.145920 93.191320 L 127.901920 91.755020 L 132.656920 90.316720 L 137.411920 88.878420 L 142.166920 87.440120 L 146.922920 86.001820 L 151.677920 84.563520 L 156.432920 83.125220 L 161.186920 81.682920 L 165.933920 80.216520 L 170.674920 78.734720 L 175.416920 77.250720 L 180.157920 75.766620 L 184.898920 74.282620 L 189.639920 72.798620 L 194.380920 71.314520 L 199.119920 69.824020 L 203.847920 68.296820 L 208.565920 66.741220 L 213.282920 65.182020 L 217.999920 63.622820 L 222.715920 62.063620 L 227.432920 60.504420 L 232.149920 58.945220 L 236.872920 57.404320 L 241.622920 55.947820 L 246.395920 54.569220 L 251.170920 53.197320 L 255.944920 51.825320 L 260.719920 50.453420 L 265.494920 49.081520 L 270.269920 47.709520 L 275.043920 46.337620 L 279.818920 44.964920 L 284.589920 43.578620 L 289.349920 42.156420 L 294.101920 40.707720 L 298.853920 39.259020 L 303.605920 37.810320 L 308.357920 36.361620 L 313.109920 34.912920 L 317.861920 33.464220 L 322.613920 32.015520 L 327.365920 30.566820 L 332.117920 29.117320 L 336.859920 27.635920 L 341.565920 26.045620 L 346.261920 24.423320 L 350.956920 22.801020 L 355.652920 21.178720 L 360.348920 19.556420 L 365.043920 17.934120 L 369.739920 16.311820 L 374.434920 14.689720 L 379.133920 13.076520 L 383.854920 11.528020 L 388.593920 10.038520 L 393.336920 8.559880 L 398.099920 7.149490 L 402.873920 5.775180 L 407.648920 4.400860 L 412.422920 3.026550 L 417.196920 1.652230 L 421.970920 0.277920" fill="none" id="44" stroke="#a9d0ff" stroke-width="0.5" /><path d="M 278.285920 254.710920 L 279.603920 251.243920 L 280.993920 247.804920 L 282.489920 244.410920 L 284.041920 241.042920 L 285.680920 237.714920 L 287.357920 234.406920 L 289.040920 231.101920 L 290.723920 227.795920 L 292.400920 224.487920 L 294.045920 221.162920 L 295.631920 217.810920 L 297.172920 214.436920 L 298.698920 211.055920 L 300.224920 207.674920 L 301.749920 204.294920 L 303.275920 200.913920 L 304.797920 197.530920 L 306.301920 194.140920 L 307.789920 190.742920 L 309.275920 187.344920 L 310.761920 183.945920 L 312.247920 180.547920 L 313.786920 177.172920 L 315.398920 173.832920 L 317.045920 170.508920 L 318.700920 167.189920 L 320.336920 163.861920 L 321.694920 160.413920 L 322.663920 156.836920 L 323.293920 153.183920" fill="none" id="45" stroke="#a98c2c" stroke-width="0.5" /><path d="M 319.167920 169.812920 L 317.140920 173.498920 L 315.274920 177.268920 L 313.611920 181.130920 L 312.191920 185.090920 L 310.795920 189.057920 L 309.302920 192.989920 L 307.673920 196.867920 L 305.981920 200.718920 L 304.291920 204.570920 L 302.633920 208.435920 L 301.002920 212.312920 L 299.376920 216.192920 L 297.748920 220.070920 L 296.107920 223.943920 L 294.424920 227.798920 L 292.703920 231.636920 L 290.968920 235.468920 L 289.195920 239.281920 L 287.390920 243.081920 L 285.582920 246.879920 L 283.774920 250.676920 L 282.011920 254.495920 L 280.322920 258.347920 L 278.670920 262.216920 L 277.026920 266.087920 L 275.383920 269.959920 L 273.731920 273.828920 L 271.831920 277.576920 L 269.604920 281.141920 L 267.104920 284.521920" fill="none" id="46" stroke="#0294bb" stroke-width="0.5" /></svg>