<?xml version="1.0" encoding="utf-8" ?>
<svg baseProfile="full" height="771.5" version="1.1" viewBox="0,0,566.5,771.5" width="566.5" xmlns="http://www.w3.org/2000/svg" xmlns:ev="http://www.w3.org/2001/xml-events" xmlns:xlink="http://www.w3.org/1999/xlink"><defs><style type="text/css"><![CDATA[
	.background { fill: white; }
	.line { stroke: firebrick; stroke-width: .1mm; }
	.blacksquare { fill: indigo; }
	.whitesquare { fill: white; }
]]></style></defs><rect class="background" height="100%" width="100%" x="0" y="0" /><path d="M 301.214000 294.531289 L 296.396000 293.240289 L 291.691000 291.585289 L 287.116000 289.598289 L 282.625000 287.429289 L 278.190000 285.146289 L 273.755000 282.863289 L 269.321000 280.579289 L 264.886000 278.296289 L 260.449000 276.016289 L 255.997000 273.769289 L 251.517000 271.576289 L 247.028000 269.400289 L 242.539000 267.225289 L 238.047000 265.058289 L 233.534000 262.934289 L 228.995000 260.866289 L 224.450000 258.810289 L 219.906000 256.754289 L 215.361000 254.699289 L 210.816000 252.643289 L 206.271000 250.587289 L 201.726000 248.534289 L 197.169000 246.505289 L 192.590000 244.528289 L 188.001000 242.572289 L 183.412000 240.618289 L 178.824000 238.661289 L 174.242000 236.689289 L 169.674000 234.687289 L 165.114000 232.667289 L 160.554000 230.644289 L 155.995000 228.621289 L 151.444000 226.578289 L 146.925000 224.468289 L 142.442000 222.281289 L 137.975000 220.062289 L 133.509000 217.841289 L 129.043000 215.620289 L 124.558000 213.437289 L 120.060000 211.280289 L 115.610000 209.030289 L 111.196000 206.705289 L 106.787000 204.374289 L 102.378000 202.042289 L 97.971100 199.705289 L 93.585400 197.329289 L 89.240000 194.880289 L 84.909100 192.406289 L 80.602100 189.890289 L 76.372900 187.247289 L 72.175300 184.553289 L 67.979500 181.855289 L 63.783700 179.158289 L 59.588000 176.461289 L 55.357400 173.819289 L 51.011400 171.373289 L 46.836800 168.648289 L 42.703300 165.857289 L 38.569900 163.065289 L 34.436400 160.273289 L 30.301100 157.484289 L 26.142600 154.729289 L 21.916900 152.080289 L 17.668500 149.466289 L 13.366500 146.942289 L 9.039020 144.461289 L 4.672160 142.051289 L 0.250000 139.743289" fill="none" id="0" stroke="#c583d9" stroke-width="0.5" /><path d="M 277.020000 406.245289 L 277.760000 402.088289 L 278.209000 397.891289 L 278.291000 393.673289 L 277.966000 389.469289 L 277.447000 385.279289 L 276.911000 381.091289 L 276.395000 376.901289 L 275.905000 372.707289 L 275.501000 368.504289 L 275.097000 364.302289 L 274.761000 360.093289 L 274.460000 355.881289 L 274.163000 351.670289 L 273.885000 347.457289 L 273.671000 343.240289 L 273.501000 339.021289 L 273.331000 334.803289 L 273.192000 330.583289 L 273.166000 326.361289 L 273.204000 322.139289 L 273.243000 317.917289 L 273.283000 313.695289 L 273.388000 309.474289 L 273.605000 305.258289 L 273.887000 301.045289 L 274.183000 296.833289 L 274.497000 292.623289 L 274.880000 288.419289 L 275.386000 284.227289 L 275.970000 280.045289" fill="none" id="1" stroke="#f375a0" stroke-width="0.5" /><path d="M 431.199000 117.983289 L 431.106000 118.615289 L 431.013000 119.246289 L 430.918000 119.876289 L 430.823000 120.507289 L 430.726000 121.138289 L 430.630000 121.769289 L 430.543000 122.401289 L 430.457000 123.033289 L 430.372000 123.665289 L 430.288000 124.297289 L 430.222000 124.932289 L 430.156000 125.566289 L 430.096000 126.202289 L 430.037000 126.837289 L 429.990000 127.473289 L 429.944000 128.109289 L 429.908000 128.746289 L 429.873000 129.383289 L 429.845000 130.021289 L 429.817000 130.658289 L 429.807000 131.296289 L 429.797000 131.934289 L 429.790000 132.572289 L 429.783000 133.210289 L 429.788000 133.847289 L 429.794000 134.485289 L 429.807000 135.123289 L 429.821000 135.761289 L 429.855000 137.037289" fill="none" id="2" stroke="#9de993" stroke-width="0.5" /><path d="M 194.187000 48.344689 L 197.694000 51.871689 L 201.504000 55.068589 L 205.701000 57.734689 L 210.244000 59.760989 L 214.909000 61.486489 L 219.575000 63.211889 L 224.241000 64.937389 L 228.906000 66.662889 L 233.572000 68.388289 L 238.239000 70.111389 L 242.922000 71.786889 L 247.618000 73.428689 L 252.319000 75.056689 L 257.056000 76.574589 L 261.827000 77.983589 L 266.597000 79.392589 L 271.368000 80.801489 L 276.140000 82.208989 L 280.922000 83.578589 L 285.744000 84.800289 L 290.574000 85.989989 L 295.404000 87.179689 L 300.234000 88.369489 L 305.064000 89.559189 L 309.895000 90.748889 L 314.725000 91.938589 L 319.555000 93.128389 L 324.385000 94.318089 L 329.215000 95.507789 L 334.045000 96.698189 L 338.870000 97.907289 L 343.681000 99.174389 L 348.487000 100.456289 L 353.294000 101.738289 L 358.100000 103.020289 L 362.906000 104.304289 L 367.693000 105.659289 L 372.461000 107.076289 L 377.229000 108.493289 L 381.998000 109.911289 L 386.766000 111.328289 L 391.535000 112.745289 L 396.303000 114.162289 L 401.071000 115.579289 L 405.837000 117.005289 L 410.574000 118.523289 L 415.287000 120.116289 L 419.999000 121.710289 L 424.711000 123.304289 L 429.423000 124.898289 L 434.136000 126.492289 L 438.842000 128.103289 L 443.530000 129.766289 L 448.216000 131.437289 L 452.902000 133.107289 L 457.587000 134.778289 L 462.273000 136.448289 L 466.958000 138.120289 L 471.637000 139.808289 L 476.309000 141.517289 L 480.981000 143.226289 L 485.652000 144.936289 L 490.324000 146.645289 L 494.996000 148.354289 L 499.667000 150.064289 L 504.320000 151.823289 L 508.969000 153.593289 L 513.618000 155.363289 L 518.267000 157.133289 L 522.916000 158.904289 L 527.565000 160.674289 L 532.214000 162.444289 L 536.863000 164.214289 L 541.512000 165.984289 L 546.174000 167.717289 L 550.842000 169.437289 L 555.517000 171.137289 L 560.204000 172.805289" fill="none" id="3" stroke="#ad5ba7" stroke-width="0.5" /><path d="M 228.414000 55.545489 L 227.425000 54.899589 L 226.435000 54.253689 L 225.396000 53.690789 L 224.357000 53.129789 L 223.248000 52.722089 L 222.138000 52.314589 L 221.014000 51.950689 L 219.890000 51.587189 L 218.742000 51.305289 L 217.595000 51.023589 L 216.440000 50.773389 L 215.285000 50.523389 L 214.120000 50.325489 L 212.955000 50.127589 L 211.788000 49.942289 L 210.621000 49.756989 L 209.452000 49.584089 L 208.283000 49.411189 L 207.115000 49.233389 L 205.947000 49.055589 L 204.779000 48.874789 L 203.611000 48.693989 L 202.437000 48.559589 L 201.263000 48.425289 L 200.087000 48.317689 L 198.910000 48.210189 L 197.728000 48.212489 L 196.546000 48.215289 L 195.367000 48.279989 L 194.187000 48.344689" fill="none" id="4" stroke="#58f2c3" stroke-width="0.5" /><path d="M 258.205000 307.358289 L 261.998000 304.111289 L 265.778000 300.850289 L 269.479000 297.502289 L 272.831000 293.803289 L 276.319000 290.232289 L 280.021000 286.882289 L 283.834000 283.659289 L 287.730000 280.536289 L 291.650000 277.444289 L 295.565000 274.346289 L 299.438000 271.196289 L 303.207000 267.921289 L 306.935000 264.600289 L 310.662000 261.278289 L 314.389000 257.955289 L 318.086000 254.600289 L 321.694000 251.149289 L 325.263000 247.657289 L 328.807000 244.141289 L 332.294000 240.568289 L 335.748000 236.963289 L 339.201000 233.356289 L 342.672000 229.767289 L 346.166000 226.200289 L 349.670000 222.643289 L 353.175000 219.087289 L 356.680000 215.532289 L 360.185000 211.976289 L 363.690000 208.420289 L 367.190000 204.859289 L 370.664000 201.273289 L 374.100000 197.651289 L 377.483000 193.980289 L 380.805000 190.252289 L 384.068000 186.473289 L 387.269000 182.641289 L 390.419000 178.768289 L 393.519000 174.855289 L 396.575000 170.906289 L 399.617000 166.947289 L 402.659000 162.987289 L 405.700000 159.028289 L 408.742000 155.068289 L 411.788000 151.112289 L 414.871000 147.185289 L 418.022000 143.313289 L 421.217000 139.476289 L 424.453000 135.673289 L 427.723000 131.900289 L 431.002000 128.135289 L 434.281000 124.370289 L 437.560000 120.605289 L 440.840000 116.840289 L 444.119000 113.075289 L 447.398000 109.310289 L 450.671000 105.539289 L 453.897000 101.729289 L 457.043000 97.852789 L 460.177000 93.965889 L 463.311000 90.078989 L 466.445000 86.192089 L 469.584000 82.309089 L 472.783000 78.476089 L 476.181000 74.818189 L 479.709000 71.285989 L 483.349000 67.868389 L 487.132000 64.610089 L 491.047000 61.512089" fill="none" id="5" stroke="#c94e76" stroke-width="0.5" /><path d="M 75.338100 209.978289 L 78.987600 206.649289 L 82.725600 203.420289 L 86.573900 200.323289 L 90.532600 197.368289 L 94.556600 194.503289 L 98.675300 191.776289 L 102.812000 189.076289 L 106.941000 186.364289 L 111.019000 183.577289 L 115.062000 180.739289 L 119.037000 177.805289 L 122.919000 174.751289 L 126.714000 171.590289 L 130.435000 168.341289 L 134.120000 165.050289 L 137.799000 161.754289 L 141.478000 158.457289 L 145.157000 155.160289 L 148.842000 151.871289 L 152.565000 148.624289 L 156.347000 145.447289 L 160.163000 142.310289 L 163.979000 139.173289 L 167.795000 136.036289 L 171.609000 132.897289 L 175.406000 129.737289 L 179.166000 126.533289 L 182.898000 123.297289 L 186.626000 120.055289 L 190.352000 116.812289 L 194.048000 113.535289 L 197.699000 110.208289 L 201.309000 106.836289 L 204.846000 103.388289 L 208.334000 99.890589 L 211.819000 96.389089 L 215.303000 92.887489 L 218.788000 89.385989 L 222.272000 85.884389 L 225.761000 82.387589 L 229.295000 78.936289 L 232.900000 75.558589 L 236.543000 72.222689 L 240.259000 68.968089 L 244.045000 65.795889 L 247.876000 62.677589 L 251.770000 59.638189 L 255.718000 56.669789 L 259.710000 53.759589 L 263.744000 50.908789 L 267.796000 48.082289 L 271.849000 45.258689 L 275.892000 42.419989 L 279.895000 39.525689 L 283.852000 36.569589 L 287.801000 33.600989 L 291.748000 30.630989 L 295.672000 27.630689 L 299.476000 24.479489 L 303.203000 21.236789 L 306.864000 17.920089 L 310.425000 14.497189 L 313.917000 11.002789" fill="none" id="6" stroke="#57b870" stroke-width="0.5" /><path d="M 77.495600 214.539289 L 79.751000 210.127289 L 82.378100 205.928289 L 85.536400 202.127289 L 89.305600 198.908289 L 93.149300 195.778289 L 96.993000 192.649289 L 100.837000 189.519289 L 104.680000 186.389289 L 108.524000 183.260289 L 112.341000 180.098289 L 116.051000 176.811289 L 119.674000 173.429289 L 123.282000 170.030289 L 126.847000 166.587289 L 130.351000 163.081289 L 133.835000 159.556289 L 137.318000 156.028289 L 140.800000 152.501289 L 144.285000 148.976289 L 147.796000 145.477289 L 151.356000 142.029289 L 154.968000 138.635289 L 158.654000 135.320289 L 162.395000 132.069289 L 166.151000 128.835289 L 169.908000 125.602289 L 173.665000 122.369289 L 177.422000 119.135289 L 181.179000 115.902289 L 184.936000 112.669289 L 188.693000 109.436289 L 192.444000 106.195289 L 196.162000 102.918289 L 199.835000 99.589489 L 203.486000 96.236489 L 207.133000 92.879889 L 210.780000 89.523289 L 214.428000 86.166789 L 218.075000 82.810189 L 221.725000 79.456989 L 225.410000 76.141689 L 229.177000 72.920389 L 233.011000 69.778989 L 236.895000 66.700189 L 240.871000 63.740989 L 244.897000 60.849989 L 248.955000 58.003589 L 253.056000 55.219389 L 257.173000 52.459189 L 261.292000 49.701389 L 265.410000 46.943589 L 269.529000 44.185889 L 273.646000 41.425689 L 277.745000 38.638289 L 281.775000 35.752789 L 285.757000 32.800789 L 289.708000 29.807889 L 293.596000 26.733889 L 297.432000 23.594689 L 301.237000 20.417989 L 304.969000 17.156089 L 308.597000 13.778689" fill="none" id="7" stroke="#57b870" stroke-width="0.5" /><path d="M 75.496600 205.765289 L 79.909600 203.525289 L 84.249600 201.147289 L 88.497700 198.609289 L 92.730800 196.045289 L 96.967700 193.487289 L 101.205000 190.930289 L 105.442000 188.373289 L 109.672000 185.802289 L 113.860000 183.165289 L 117.989000 180.437289 L 122.077000 177.648289 L 126.078000 174.734289 L 129.944000 171.645289 L 133.733000 168.461289 L 137.491000 165.241289 L 141.250000 162.021289 L 145.008000 158.801289 L 148.776000 155.591289 L 152.583000 152.429289 L 156.437000 149.325289 L 160.292000 146.220289 L 164.146000 143.115289 L 168.000000 140.011289 L 171.854000 136.906289 L 175.708000 133.801289 L 179.562000 130.696289 L 183.406000 127.579289 L 187.206000 124.408289 L 190.964000 121.187289 L 194.717000 117.961289 L 198.470000 114.735289 L 202.213000 111.497289 L 205.917000 108.214289 L 209.581000 104.887289 L 213.219000 101.532289 L 216.813000 98.130289 L 220.381000 94.699989 L 223.943000 91.263789 L 227.505000 87.827589 L 231.067000 84.391389 L 234.628000 80.955189 L 238.190000 77.518989 L 241.758000 74.088589 L 245.376000 70.712289 L 249.101000 67.454989 L 252.910000 64.294889 L 256.900000 61.375089 L 261.109000 58.776489 L 265.205000 56.007989 L 269.195000 53.080689 L 273.160000 50.118389 L 277.114000 47.141989 L 281.068000 44.164789 L 285.021000 41.187489 L 288.969000 38.202389 L 292.876000 35.164889 L 296.704000 32.028589 L 300.509000 28.863189 L 304.302000 25.683889 L 307.906000 22.294089 L 311.163000 18.571589 L 314.378000 14.808789 L 317.561000 11.018389 L 320.904000 7.369899 L 324.324000 3.792639 L 327.780000 0.250000" fill="none" id="8" stroke="#57b870" stroke-width="0.5" /><path d="M 70.370400 269.963289 L 75.243600 271.003289 L 80.044200 272.337289 L 84.726200 274.040289 L 89.265200 276.097289 L 93.788000 278.189289 L 98.310000 280.283289 L 102.832000 282.377289 L 107.354000 284.471289 L 111.875000 286.566289 L 116.386000 288.683289 L 120.859000 290.879289 L 125.301000 293.139289 L 129.736000 295.412289 L 134.156000 297.712289 L 138.529000 300.102289 L 142.841000 302.599289 L 147.101000 305.184289 L 151.321000 307.835289 L 155.526000 310.509289 L 159.730000 313.185289 L 163.933000 315.861289 L 168.137000 318.536289 L 172.346000 321.205289 L 176.570000 323.848289 L 180.812000 326.464289 L 185.058000 329.072289 L 189.305000 331.679289 L 193.552000 334.286289 L 197.799000 336.894289 L 202.045000 339.501289 L 206.292000 342.108289 L 210.539000 344.716289 L 214.786000 347.323289 L 219.032000 349.930289 L 223.279000 352.538289 L 227.533000 355.134289 L 231.828000 357.660289 L 236.185000 360.079289 L 240.604000 362.382289 L 245.043000 364.645289 L 249.484000 366.906289 L 253.925000 369.167289 L 258.366000 371.428289" fill="none" id="9" stroke="#d271bb" stroke-width="0.5" /><path d="M 273.100000 389.615289 L 273.928000 394.419289 L 275.070000 399.159289 L 276.454000 403.833289 L 278.584000 408.218289 L 281.085000 412.403289 L 283.865000 416.407289 L 286.900000 420.223289 L 290.183000 423.827289 L 293.806000 427.089289 L 297.794000 429.892289 L 302.128000 432.123289 L 306.700000 433.814289 L 311.431000 434.991289 L 316.263000 435.641289 L 321.131000 435.889289 L 326.006000 435.903289 L 330.873000 435.610289 L 335.712000 435.019289 L 340.539000 434.334289 L 345.351000 433.553289 L 350.137000 432.626289 L 354.903000 431.598289 L 359.643000 430.459289 L 364.346000 429.175289 L 369.007000 427.747289 L 373.602000 426.116289 L 378.151000 424.364289 L 382.619000 422.412289 L 387.081000 420.448289 L 391.542000 418.482289 L 396.002000 416.513289" fill="none" id="10" stroke="#3d8e43" stroke-width="0.5" /><path d="M 275.163000 389.711289 L 275.214000 391.696289 L 275.264000 393.680289 L 275.464000 395.656289 L 275.664000 397.631289 L 276.034000 399.581289 L 276.406000 401.532289 L 277.025000 403.418289 L 277.647000 405.304289 L 278.564000 407.064289 L 279.487000 408.822289 L 280.734000 410.367289 L 281.981000 411.911289 L 283.420000 413.279289 L 284.863000 414.641289 L 286.564000 415.666289 L 288.267000 416.686289 L 290.071000 417.515289 L 291.876000 418.341289 L 293.738000 419.030289 L 295.601000 419.717289 L 297.504000 420.281289 L 299.408000 420.845289 L 301.323000 421.371289 L 303.237000 421.896289 L 305.156000 422.407289 L 307.074000 422.918289 L 308.994000 423.425289 L 310.913000 423.933289 L 312.834000 424.435289 L 314.755000 424.937289" fill="none" id="11" stroke="#00d4db" stroke-width="0.5" /><path d="M 498.269000 387.541289 L 501.259000 386.264289 L 504.230000 384.945289 L 507.177000 383.573289 L 510.097000 382.144289 L 512.920000 380.541289 L 515.629000 378.746289 L 518.273000 376.855289 L 520.890000 374.926289 L 523.464000 372.942289 L 525.967000 370.868289 L 528.385000 368.695289 L 530.724000 366.437289 L 532.978000 364.096289 L 535.183000 361.707289 L 537.363000 359.295289 L 539.520000 356.864289 L 541.651000 354.409289 L 543.765000 351.939289 L 545.872000 349.464289 L 547.921000 346.940289 L 549.839000 344.316289 L 551.739000 341.678289 L 553.611000 339.020289 L 555.451000 336.340289 L 557.272000 333.647289 L 559.087000 330.951289 L 560.895000 328.249289 L 562.678000 325.531289 L 564.420000 322.786289 L 566.136000 320.025289" fill="none" id="12" stroke="#d55969" stroke-width="0.5" /><path d="M 504.040000 381.638289 L 507.293000 380.778289 L 510.479000 379.698289 L 513.557000 378.343289 L 516.495000 376.709289 L 519.355000 374.937289 L 522.129000 373.035289 L 524.803000 370.995289 L 527.383000 368.836289 L 529.905000 366.609289 L 532.396000 364.349289 L 534.832000 362.029289 L 537.167000 359.608289 L 539.375000 357.069289 L 541.508000 354.467289 L 543.589000 351.823289 L 545.576000 349.108289 L 547.458000 346.319289 L 549.192000 343.436289 L 550.750000 340.456289 L 552.165000 337.404289 L 553.445000 334.293289 L 554.568000 331.123289 L 555.545000 327.904289 L 556.417000 324.655289 L 557.191000 321.381289 L 557.831000 318.079289 L 558.336000 314.753289 L 558.736000 311.412289 L 559.066000 308.064289 L 559.333000 304.710289" fill="none" id="13" stroke="#d55969" stroke-width="0.5" /><path d="M 283.256000 518.138289 L 283.585000 513.157289 L 284.223000 508.207289 L 285.238000 503.322289 L 286.651000 498.534289 L 288.170000 493.779289 L 289.884000 489.093289 L 291.903000 484.529289 L 294.179000 480.088289 L 296.688000 475.775289 L 299.472000 471.634289 L 302.458000 467.634289 L 305.566000 463.728289 L 308.861000 459.981289 L 312.340000 456.403289 L 315.919000 452.923289 L 319.580000 449.530289 L 323.395000 446.314289 L 327.406000 443.347289 L 331.598000 440.640289 L 335.946000 438.190289 L 340.450000 436.045289 L 345.096000 434.224289 L 349.854000 432.722289 L 354.646000 431.323289 L 359.464000 430.017289 L 364.339000 428.949289 L 369.250000 428.056289 L 374.181000 427.279289 L 379.123000 426.572289 L 384.073000 425.926289" fill="none" id="14" stroke="#64e4ff" stroke-width="0.5" /><path d="M 282.279000 522.669289 L 282.732000 518.544289 L 283.574000 514.481289 L 284.895000 510.551289 L 286.730000 506.835289 L 288.792000 503.234289 L 290.896000 499.658289 L 293.084000 496.132289 L 295.322000 492.637289 L 297.635000 489.193289 L 300.050000 485.818289 L 302.518000 482.483289 L 305.060000 479.202289 L 307.680000 475.984289 L 310.352000 472.810289 L 313.129000 469.726289 L 315.952000 466.684289 L 318.815000 463.680289 L 321.748000 460.745289 L 324.853000 457.993289 L 328.083000 455.388289 L 331.459000 452.979289 L 334.976000 450.780289 L 338.612000 448.783289 L 342.349000 446.982289 L 346.165000 445.353289 L 350.046000 443.890289 L 353.995000 442.616289 L 357.993000 441.510289 L 362.056000 440.667289 L 366.153000 440.010289 L 370.274000 439.518289" fill="none" id="15" stroke="#e68e54" stroke-width="0.5" /><path d="M 503.009000 384.669289 L 505.045000 382.175289 L 507.726000 380.389289 L 510.864000 379.585289 L 514.052000 380.048289 L 517.047000 381.229289 L 519.795000 382.917289 L 522.345000 384.909289 L 524.794000 387.029289 L 527.224000 389.172289 L 529.627000 391.343289 L 532.114000 393.418289 L 534.680000 395.393289 L 537.276000 397.331289 L 539.875000 399.264289 L 542.458000 401.218289 L 544.973000 403.258289 L 547.294000 405.517289 L 549.126000 408.178289 L 550.702000 411.004289 L 551.877000 414.005289 L 552.597000 417.155289 L 552.948000 420.371289 L 552.984000 423.610289 L 552.722000 426.838289 L 552.185000 430.031289 L 551.508000 433.197289 L 550.831000 436.365289 L 550.241000 439.549289 L 549.753000 442.751289 L 549.339000 445.963289" fill="none" id="16" stroke="#54aeff" stroke-width="0.5" /><path d="M 507.329000 385.308289 L 509.797000 383.466289 L 512.529000 382.063289 L 515.478000 381.261289 L 518.525000 381.119289 L 521.567000 381.542289 L 524.549000 382.309289 L 527.508000 383.162289 L 530.391000 384.241289 L 533.219000 385.457289 L 535.974000 386.827289 L 538.640000 388.365289 L 541.208000 390.062289 L 543.612000 391.986289 L 545.778000 394.171289 L 547.754000 396.528289 L 549.602000 398.990289 L 551.365000 401.514289 L 553.044000 404.095289 L 554.664000 406.714289 L 556.260000 409.347289 L 557.777000 412.026289 L 559.199000 414.757289 L 560.524000 417.535289 L 561.742000 420.363289 L 562.753000 423.272289 L 563.668000 426.212289 L 564.441000 429.191289 L 565.088000 432.201289 L 565.640000 435.230289 L 566.104000 438.274289" fill="none" id="17" stroke="#eed973" stroke-width="0.5" /><path d="M 496.947000 388.881289 L 499.835000 387.599289 L 502.779000 386.453289 L 505.789000 385.509289 L 508.866000 384.792289 L 511.962000 384.161289 L 515.059000 383.533289 L 518.161000 382.926289 L 521.271000 382.371289 L 524.403000 381.958289 L 527.546000 381.631289 L 530.699000 381.440289 L 533.852000 381.461289 L 536.991000 381.828289 L 539.791000 383.268289 L 542.491000 384.905289 L 544.814000 386.951289 L 546.506000 389.617289 L 547.767000 392.515289 L 548.903000 395.462289 L 549.974000 398.435289 L 551.000000 401.424289 L 551.918000 404.447289 L 552.732000 407.500289 L 553.488000 410.568289 L 554.212000 413.644289 L 554.936000 416.720289 L 555.726000 419.780289 L 556.559000 422.828289 L 557.430000 425.865289 L 558.334000 428.893289" fill="none" id="18" stroke="#008bd4" stroke-width="0.5" /><path d="M 96.291900 296.127289 L 95.973500 291.347289 L 95.621300 286.570289 L 95.279900 281.792289 L 94.781300 277.028289 L 94.226700 272.270289 L 93.666000 267.513289 L 93.105300 262.756289 L 92.544700 257.999289 L 92.146200 253.226289 L 91.827800 248.446289 L 91.518300 243.666289 L 91.208800 238.886289 L 90.899400 234.106289 L 90.605100 229.325289 L 90.362800 224.542289 L 90.156800 219.756289 L 89.952000 214.970289 L 89.751500 210.184289 L 89.573600 205.398289 L 89.425700 200.610289 L 89.285200 195.822289 L 89.150200 191.034289 L 89.052200 186.245289 L 89.026500 181.455289 L 89.017400 176.665289 L 89.032900 171.875289 L 89.188600 167.088289 L 89.457100 162.305289 L 89.789200 157.527289 L 90.296700 152.764289 L 90.907700 148.013289" fill="none" id="19" stroke="#fdb968" stroke-width="0.5" /><path d="M 88.973300 263.549289 L 88.872900 266.757289 L 89.027600 269.959289 L 89.456900 273.133289 L 90.194700 276.250289 L 91.442100 279.208289 L 92.934800 282.046289 L 94.515500 284.839289 L 96.128500 287.614289 L 97.746700 290.386289 L 99.366200 293.157289 L 100.990000 295.925289 L 102.630000 298.684289 L 104.302000 301.423289 L 106.088000 304.090289 L 108.282000 306.401289 L 110.821000 308.340289 L 113.614000 309.900289 L 116.766000 310.505289 L 119.962000 310.560289 L 123.138000 310.193289 L 126.277000 309.523289 L 129.410000 308.827289 L 132.520000 308.037289 L 135.611000 307.174289 L 138.684000 306.247289 L 141.738000 305.259289 L 144.789000 304.262289 L 147.839000 303.264289 L 150.889000 302.265289 L 153.938000 301.264289" fill="none" id="20" stroke="#6f73bc" stroke-width="0.5" /><path d="M 94.841100 262.975289 L 92.085500 264.294289 L 89.856300 266.343289 L 88.801700 269.127289 L 88.743000 272.127289 L 89.210700 275.146289 L 89.756400 278.151289 L 90.510700 281.111289 L 91.383700 284.039289 L 92.332300 286.943289 L 93.341500 289.826289 L 94.417700 292.685289 L 95.595200 295.503289 L 96.987300 298.223289 L 98.463400 300.897289 L 99.973300 303.553289 L 101.646000 306.103289 L 103.629000 308.403289 L 105.998000 310.333289 L 108.417000 312.198289 L 111.196000 313.436289 L 114.128000 314.260289 L 117.141000 314.721289 L 120.189000 314.891289 L 123.244000 314.881289 L 126.288000 314.620289 L 129.308000 314.164289 L 132.317000 313.639289 L 135.324000 313.094289 L 138.329000 312.545289 L 141.332000 311.985289" fill="none" id="21" stroke="#bee481" stroke-width="0.5" /><path d="M 88.876500 259.688289 L 87.129700 262.811289 L 85.836500 266.147289 L 85.154400 269.659289 L 85.077100 273.232289 L 85.282800 276.802289 L 85.800100 280.339289 L 86.658600 283.806289 L 87.837900 287.180289 L 89.273900 290.455289 L 90.866200 293.660289 L 92.505600 296.839289 L 94.418600 299.863289 L 96.868100 302.466289 L 99.413200 304.981289 L 102.329000 307.022289 L 105.463000 308.743289 L 108.717000 310.222289 L 112.071000 311.465289 L 115.484000 312.534289 L 118.951000 313.418289 L 122.444000 314.194289 L 125.968000 314.815289 L 129.507000 315.337289 L 133.053000 315.818289 L 136.601000 316.280289 L 140.149000 316.748289 L 143.689000 317.266289 L 147.215000 317.869289 L 150.728000 318.549289 L 154.229000 319.291289" fill="none" id="22" stroke="#8f6aaf" stroke-width="0.5" /><path d="M 91.068500 377.787289 L 89.417800 374.299289 L 88.510500 370.554289 L 88.514200 366.694289 L 89.368200 362.923289 L 90.528200 359.235289 L 92.032900 355.675289 L 93.907400 352.298289 L 96.033200 349.071289 L 98.369500 345.993289 L 100.920000 343.092289 L 103.625000 340.330289 L 106.439000 337.679289 L 109.386000 335.179289 L 112.456000 332.830289 L 115.579000 330.552289 L 118.830000 328.459289 L 122.171000 326.513289 L 125.520000 324.582289 L 128.902000 322.707289 L 132.371000 321.001289 L 135.902000 319.427289 L 139.498000 318.011289 L 143.143000 316.721289 L 146.830000 315.559289 L 150.563000 314.559289 L 154.341000 313.744289 L 158.157000 313.120289 L 161.990000 312.618289 L 165.828000 312.148289 L 169.672000 311.729289" fill="none" id="23" stroke="#8bb658" stroke-width="0.5" /><path d="M 94.139200 376.140289 L 93.502600 372.107289 L 93.351000 368.028289 L 93.866500 363.987289 L 94.843000 360.029289 L 96.079800 356.140289 L 97.535800 352.329289 L 99.222600 348.611289 L 101.069000 344.970289 L 103.085000 341.420289 L 105.190000 337.922289 L 107.372000 334.471289 L 109.702000 331.120289 L 112.163000 327.863289 L 114.769000 324.724289 L 117.572000 321.755289 L 120.468000 318.877289 L 123.520000 316.165289 L 126.653000 313.548289 L 130.018000 311.249289 L 133.665000 309.453289 L 137.498000 308.051289 L 141.419000 306.965289 L 145.475000 306.516289 L 149.558000 306.461289 L 153.634000 306.678289 L 157.703000 307.015289 L 161.768000 307.394289 L 165.832000 307.787289 L 169.896000 308.185289 L 173.959000 308.584289 L 178.022000 308.985289" fill="none" id="24" stroke="#8bb658" stroke-width="0.5" /><path d="M 95.679300 376.310289 L 95.551300 373.040289 L 95.776700 369.782289 L 96.429100 366.594289 L 97.481300 363.500289 L 98.885800 360.545289 L 100.329000 357.609289 L 101.839000 354.707289 L 103.436000 351.851289 L 105.239000 349.121289 L 107.185000 346.494289 L 109.260000 343.967289 L 111.472000 341.557289 L 113.874000 339.336289 L 116.341000 337.188289 L 118.866000 335.109289 L 121.503000 333.172289 L 124.226000 331.361289 L 126.999000 329.625289 L 129.809000 327.949289 L 132.648000 326.322289 L 135.520000 324.756289 L 138.423000 323.247289 L 141.359000 321.803289 L 144.305000 320.381289 L 147.253000 318.962289 L 150.201000 317.543289 L 153.150000 316.124289 L 156.098000 314.705289 L 159.046000 313.286289 L 161.994000 311.867289" fill="none" id="25" stroke="#8bb658" stroke-width="0.5" /><path d="M 155.367000 315.230289 L 156.864000 314.663289 L 158.361000 314.097289 L 159.861000 313.540289 L 161.362000 312.982289 L 162.866000 312.435289 L 164.370000 311.887289 L 165.879000 311.353289 L 167.387000 310.819289 L 168.899000 310.294289 L 170.411000 309.768289 L 171.925000 309.248289 L 173.439000 308.728289 L 174.956000 308.218289 L 176.473000 307.709289 L 178.005000 307.243289 L 179.536000 306.778289 L 181.079000 306.353289 L 182.622000 305.928289 L 184.166000 305.504289 L 185.709000 305.079289 L 187.257000 304.672289 L 188.805000 304.265289 L 190.358000 303.877289 L 191.911000 303.489289 L 193.468000 303.119289 L 195.025000 302.748289 L 196.585000 302.388289 L 198.144000 302.028289 L 199.706000 301.678289 L 201.268000 301.327289" fill="none" id="26" stroke="#8bb658" stroke-width="0.5" /><path d="M 92.100600 541.462289 L 91.081700 545.641289 L 90.509500 549.904289 L 90.470900 554.202289 L 91.122500 558.452289 L 92.366700 562.565289 L 94.359300 566.371289 L 97.092900 569.688289 L 100.353000 572.490289 L 104.010000 574.748289 L 108.008000 576.334289 L 112.166000 577.437289 L 116.394000 578.232289 L 120.670000 578.697289 L 124.969000 578.880289 L 129.271000 578.871289 L 133.566000 578.635289 L 137.822000 578.000289 L 142.072000 577.336289 L 146.286000 576.464289 L 150.495000 575.571289 L 154.689000 574.615289 L 158.805000 573.362289 L 162.870000 571.952289 L 166.893000 570.425289 L 170.810000 568.645289 L 174.639000 566.684289 L 178.424000 564.638289 L 182.183000 562.544289 L 185.802000 560.217289 L 189.339000 557.767289" fill="none" id="27" stroke="#bbabff" stroke-width="0.5" /><path d="M 281.020000 722.462289 L 281.533000 727.052289 L 282.176000 731.626289 L 282.989000 736.172289 L 283.965000 740.686289 L 285.192000 745.135289 L 286.723000 749.488289 L 288.494000 753.753289 L 290.462000 757.927289 L 292.835000 761.883289 L 295.791000 765.431289 L 299.791000 767.740289 L 304.021000 769.586289 L 308.544000 770.342289 L 313.155000 770.443289 L 317.733000 769.951289 L 322.229000 768.923289 L 326.630000 767.531289 L 330.963000 765.932289 L 335.264000 764.251289 L 339.480000 762.364289 L 343.652000 760.382289 L 347.782000 758.315289 L 351.855000 756.137289 L 355.896000 753.901289 L 359.889000 751.580289 L 363.804000 749.131289 L 367.625000 746.538289 L 371.357000 743.818289 L 375.009000 740.990289 L 378.592000 738.075289" fill="none" id="28" stroke="#658424" stroke-width="0.5" /><path d="M 496.947000 666.571289 L 500.783000 664.945289 L 504.457000 662.982289 L 507.857000 660.575289 L 510.996000 657.837289 L 513.978000 654.928289 L 516.893000 651.952289 L 519.736000 648.908289 L 522.507000 645.797289 L 525.254000 642.666289 L 528.000000 639.533289 L 530.745000 636.400289 L 533.407000 633.195289 L 535.862000 629.831289 L 537.871000 626.182289 L 539.456000 622.329289 L 540.738000 618.366289 L 541.785000 614.334289 L 542.685000 610.266289 L 543.471000 606.175289 L 544.218000 602.077289 L 544.966000 597.979289 L 545.713000 593.881289 L 546.460000 589.783289 L 547.208000 585.684289 L 547.955000 581.586289 L 548.711000 577.490289 L 549.524000 573.404289 L 550.453000 569.343289 L 551.382000 565.282289 L 552.311000 561.221289 L 553.240000 557.161289" fill="none" id="29" stroke="#f1b9ff" stroke-width="0.5" /><path d="M 500.462000 664.880289 L 504.637000 662.872289 L 508.612000 660.494289 L 512.250000 657.627289 L 515.653000 654.483289 L 518.916000 651.193289 L 522.102000 647.828289 L 525.248000 644.426289 L 528.389000 641.019289 L 531.528000 637.611289 L 534.657000 634.192289 L 537.738000 630.731289 L 540.716000 627.182289 L 543.502000 623.483289 L 546.049000 619.614289 L 548.367000 615.604289 L 550.429000 611.457289 L 552.307000 607.221289 L 554.047000 602.927289 L 555.625000 598.571289 L 556.994000 594.145289 L 558.184000 589.667289 L 559.179000 585.142289 L 559.907000 580.568289 L 560.411000 575.962289 L 560.742000 571.341289 L 560.884000 566.710289 L 560.948000 562.076289 L 560.763000 557.447289 L 560.199000 552.848289 L 559.366000 548.290289" fill="none" id="30" stroke="#f1b9ff" stroke-width="0.5" /><path d="M 492.176000 667.050289 L 497.072000 666.047289 L 501.874000 664.668289 L 506.531000 662.864289 L 510.887000 660.424289 L 514.900000 657.449289 L 518.677000 654.176289 L 522.393000 650.835289 L 526.001000 647.377289 L 529.532000 643.840289 L 533.023000 640.264289 L 536.424000 636.603289 L 539.618000 632.765289 L 542.429000 628.639289 L 544.887000 624.291289 L 547.025000 619.776289 L 548.860000 615.130289 L 550.417000 610.383289 L 551.693000 605.552289 L 552.699000 600.658289 L 553.381000 595.710289 L 553.752000 590.728289 L 553.950000 585.734289 L 554.018000 580.737289 L 553.972000 575.740289 L 553.750000 570.747289 L 553.495000 565.756289 L 553.318000 560.761289 L 553.220000 555.764289 L 553.137000 550.767289 L 553.079000 545.770289" fill="none" id="31" stroke="#f1b9ff" stroke-width="0.5" /></svg>