<?xml version="1.0" encoding="utf-8" ?>
<svg baseProfile="full" height="448.5" version="1.1" viewBox="0,0,862.5,448.5" width="862.5" xmlns="http://www.w3.org/2000/svg" xmlns:ev="http://www.w3.org/2001/xml-events" xmlns:xlink="http://www.w3.org/1999/xlink"><defs><style type="text/css"><![CDATA[
	.background { fill: white; }
	.line { stroke: firebrick; stroke-width: .1mm; }
	.blacksquare { fill: indigo; }
	.whitesquare { fill: white; }
]]></style></defs><rect class="background" height="100%" width="100%" x="0" y="0" /><path d="M 123.935000 318.935000 L 128.209000 316.404000 L 132.515000 313.927000 L 136.878000 311.554000 L 141.333000 309.361000 L 145.844000 307.282000 L 150.339000 305.166000 L 154.833000 303.050000 L 159.327000 300.935000 L 163.821000 298.819000 L 168.316000 296.703000 L 172.810000 294.587000 L 177.304000 292.471000 L 181.799000 290.356000 L 186.293000 288.240000 L 190.787000 286.124000 L 195.282000 284.008000 L 199.776000 281.892000 L 204.269000 279.774000 L 208.751000 277.632000 L 213.212000 275.447000 L 217.666000 273.249000 L 222.121000 271.050000 L 226.575000 268.851000 L 231.029000 266.652000 L 235.483000 264.454000 L 239.938000 262.255000 L 244.392000 260.056000 L 248.846000 257.857000 L 253.301000 255.658000 L 257.742000 253.433000 L 262.155000 251.154000 L 266.547000 248.834000 L 270.940000 246.515000 L 275.363000 244.253000 L 279.840000 242.101000 L 284.336000 239.990000 L 288.834000 237.881000 L 293.332000 235.773000 L 297.829000 233.665000 L 302.316000 231.533000 L 306.765000 229.324000 L 311.139000 226.969000 L 315.473000 224.543000 L 319.951000 222.400000 L 324.538000 220.499000 L 329.122000 218.589000 L 333.624000 216.492000 L 338.068000 214.273000 L 342.513000 212.054000 L 346.957000 209.835000 L 351.401000 207.616000 L 355.846000 205.397000 L 360.290000 203.178000 L 364.734000 200.959000 L 369.179000 198.740000 L 373.623000 196.522000 L 378.067000 194.303000 L 382.511000 192.084000 L 386.958000 189.869000 L 391.419000 187.685000 L 395.912000 185.565000 L 400.438000 183.519000 L 404.977000 181.502000 L 409.558000 179.581000 L 414.123000 177.623000 L 418.616000 175.508000 L 423.061000 173.291000 L 427.506000 171.073000 L 431.951000 168.856000 L 436.396000 166.638000 L 440.843000 164.425000 L 445.311000 162.254000 L 449.813000 160.156000 L 454.343000 158.117000 L 458.877000 156.089000 L 463.392000 154.017000 L 467.842000 151.810000 L 472.239000 149.498000 L 476.691000 147.297000 L 481.256000 145.348000 L 485.864000 143.496000 L 490.406000 141.487000 L 494.860000 139.289000 L 499.315000 137.091000 L 503.770000 134.893000 L 508.270000 132.790000 L 512.863000 130.907000 L 517.492000 129.106000 L 522.058000 127.154000 L 526.554000 125.040000 L 531.049000 122.926000 L 535.544000 120.812000 L 540.048000 118.717000 L 544.577000 116.678000 L 549.125000 114.679000 L 553.662000 112.658000 L 558.174000 110.579000 L 562.685000 108.499000 L 567.198000 106.425000 L 571.723000 104.374000 L 576.262000 102.357000 L 580.811000 100.362000 L 585.361000 98.368900 L 589.911000 96.375300 L 594.461000 94.381800 L 599.010000 92.386000 L 603.550000 90.369300 L 608.068000 88.305900 L 612.568000 86.203000 L 617.065000 84.091700 L 621.561000 81.980500 L 626.058000 79.869200 L 630.554000 77.757800 L 635.035000 75.614100 L 639.502000 73.441200 L 643.951000 71.232700 L 648.371000 68.966100 L 652.754000 66.627900" fill="none" id="0" stroke="#c583d9" stroke-width="0.5" /><path d="M 287.683000 420.722000 L 291.182000 417.190000 L 294.825000 413.808000 L 298.652000 410.641000 L 302.676000 407.728000 L 306.880000 405.072000 L 311.089000 402.425000 L 315.338000 399.844000 L 319.600000 397.283000 L 323.869000 394.735000 L 328.159000 392.221000 L 332.448000 389.707000 L 336.738000 387.193000 L 341.027000 384.678000 L 345.317000 382.164000 L 349.606000 379.650000 L 353.896000 377.136000 L 358.185000 374.622000 L 362.475000 372.107000 L 366.764000 369.593000 L 371.054000 367.079000 L 375.343000 364.565000 L 379.632000 362.051000 L 383.922000 359.536000 L 388.211000 357.022000 L 392.501000 354.508000 L 396.790000 351.994000 L 401.080000 349.479000 L 405.369000 346.965000 L 409.659000 344.451000 L 413.948000 341.936000 L 418.219000 339.390000 L 422.472000 336.815000 L 426.720000 334.231000 L 430.967000 331.647000 L 435.215000 329.062000 L 439.462000 326.478000 L 443.710000 323.894000 L 448.168000 321.742000 L 452.730000 319.799000 L 457.027000 317.299000 L 461.325000 314.799000 L 465.623000 312.298000 L 469.920000 309.798000 L 474.218000 307.298000 L 478.515000 304.798000 L 482.813000 302.298000 L 487.111000 299.797000 L 491.408000 297.297000 L 495.703000 294.792000 L 499.989000 292.272000 L 504.238000 289.689000 L 508.482000 287.099000 L 512.752000 284.553000 L 517.139000 282.237000 L 521.771000 280.433000 L 526.092000 277.974000 L 530.414000 275.515000 L 534.735000 273.056000 L 539.057000 270.598000 L 543.378000 268.139000 L 547.700000 265.680000 L 552.021000 263.221000 L 556.342000 260.762000 L 560.664000 258.303000 L 564.985000 255.844000 L 569.307000 253.385000 L 573.628000 250.926000 L 577.950000 248.468000 L 582.271000 246.009000 L 586.592000 243.550000 L 590.914000 241.092000 L 595.252000 238.662000 L 599.598000 236.246000 L 603.945000 233.834000 L 608.293000 231.421000 L 612.641000 229.009000 L 616.988000 226.597000 L 621.336000 224.185000 L 625.684000 221.773000 L 630.031000 219.361000 L 634.379000 216.949000 L 638.727000 214.536000 L 643.075000 212.124000 L 647.422000 209.712000 L 651.770000 207.300000 L 656.118000 204.888000 L 660.465000 202.476000 L 664.813000 200.064000 L 669.161000 197.651000 L 673.508000 195.239000 L 677.856000 192.827000 L 682.194000 190.398000 L 686.522000 187.949000 L 690.841000 185.487000 L 695.161000 183.025000 L 699.480000 180.563000 L 703.800000 178.101000 L 708.119000 175.638000 L 712.439000 173.176000 L 716.758000 170.714000 L 721.079000 168.253000 L 725.554000 166.096000 L 730.075000 164.027000 L 734.552000 161.868000 L 738.912000 159.479000 L 743.272000 157.090000 L 747.633000 154.701000 L 751.993000 152.312000 L 756.354000 149.923000 L 760.714000 147.533000 L 765.074000 145.145000 L 769.457000 142.796000 L 773.852000 140.471000 L 778.251000 138.155000 L 782.651000 135.839000 L 787.050000 133.521000 L 791.430000 131.169000 L 795.794000 128.787000 L 800.149000 126.387000 L 804.503000 123.987000 L 808.834000 121.544000 L 813.157000 119.089000 L 817.471000 116.616000 L 821.769000 114.117000 L 826.045000 111.581000" fill="none" id="1" stroke="#f375a0" stroke-width="0.5" /><path d="M 49.180500 195.530000 L 52.260200 197.711000 L 55.389500 199.820000 L 58.578900 201.837000 L 61.831700 203.750000 L 65.058000 205.707000 L 68.261100 207.703000 L 71.458600 209.708000 L 74.636200 211.743000 L 77.770700 213.844000 L 80.867100 216.002000 L 83.953100 218.174000 L 87.039100 220.346000 L 90.125000 222.519000 L 93.211000 224.691000 L 96.297000 226.864000 L 99.390500 229.025000 L 102.523000 231.130000 L 105.711000 233.149000 L 108.932000 235.116000 L 112.159000 237.072000 L 115.386000 239.028000 L 118.613000 240.985000 L 121.841000 242.941000 L 125.068000 244.898000 L 128.294000 246.855000 L 131.514000 248.823000 L 134.717000 250.819000 L 137.900000 252.847000 L 141.079000 254.881000 L 144.250000 256.927000" fill="none" id="2" stroke="#9de993" stroke-width="0.5" /><path d="M 29.982300 169.242000 L 33.943900 172.230000 L 37.952900 175.154000 L 42.008200 178.014000 L 46.080300 180.849000 L 50.172800 183.655000 L 54.265500 186.461000 L 58.358200 189.266000 L 62.450900 192.072000 L 66.543600 194.878000 L 70.636300 197.683000 L 74.729000 200.489000 L 78.821200 203.295000 L 82.892700 206.132000 L 86.940400 209.002000 L 90.984700 211.877000 L 95.029100 214.752000 L 99.073400 217.627000 L 103.118000 220.502000 L 107.162000 223.377000 L 111.246000 226.195000 L 115.393000 228.921000 L 119.553000 231.626000 L 123.712000 234.330000 L 127.872000 237.035000 L 132.032000 239.740000 L 136.192000 242.445000 L 140.352000 245.150000 L 144.512000 247.855000 L 148.672000 250.560000 L 152.832000 253.265000 L 156.992000 255.970000 L 161.152000 258.675000 L 165.312000 261.380000 L 169.472000 264.085000 L 173.660000 266.746000 L 177.894000 269.333000 L 182.148000 271.888000 L 186.393000 274.458000 L 190.582000 277.118000 L 194.722000 279.853000 L 198.850000 282.606000 L 203.006000 285.318000 L 207.214000 287.947000 L 211.453000 290.526000 L 215.695000 293.100000 L 219.937000 295.674000 L 224.180000 298.249000 L 228.422000 300.823000 L 232.664000 303.397000 L 236.906000 305.971000 L 241.148000 308.545000 L 245.390000 311.120000 L 249.637000 313.686000 L 253.898000 316.228000 L 258.172000 318.749000 L 262.447000 321.269000 L 266.722000 323.788000 L 270.997000 326.307000 L 275.272000 328.826000 L 279.550000 331.340000 L 283.845000 333.825000 L 288.167000 336.263000 L 292.495000 338.689000 L 296.824000 341.116000 L 301.152000 343.542000 L 305.481000 345.968000 L 309.809000 348.394000 L 314.138000 350.821000 L 318.466000 353.247000 L 322.794000 355.673000 L 327.116000 358.112000 L 331.412000 360.595000 L 335.695000 363.100000 L 339.976000 365.610000 L 344.241000 368.146000 L 348.491000 370.706000 L 352.740000 373.269000 L 356.989000 375.832000 L 361.238000 378.396000 L 365.486000 380.959000 L 369.735000 383.522000 L 373.984000 386.085000 L 378.233000 388.648000 L 382.482000 391.211000 L 386.731000 393.774000 L 390.977000 396.341000 L 395.198000 398.950000 L 399.359000 401.653000 L 403.510000 404.372000 L 407.618000 407.155000 L 411.663000 410.029000 L 415.701000 412.914000 L 419.736000 415.801000 L 423.772000 418.688000 L 427.809000 421.573000" fill="none" id="3" stroke="#ad5ba7" stroke-width="0.5" /><path d="M 271.579000 337.376000 L 274.877000 339.848000 L 278.222000 342.257000 L 281.628000 344.578000 L 285.089000 346.816000 L 288.550000 349.055000 L 292.012000 351.293000 L 295.473000 353.531000 L 298.934000 355.769000 L 302.395000 358.007000 L 305.857000 360.245000 L 309.318000 362.483000 L 312.779000 364.722000 L 316.240000 366.960000 L 319.702000 369.198000 L 323.163000 371.436000 L 326.630000 373.665000 L 330.202000 375.723000 L 333.784000 377.761000 L 337.368000 379.797000 L 340.951000 381.834000 L 344.535000 383.871000 L 348.118000 385.908000 L 351.702000 387.945000 L 355.285000 389.982000 L 358.868000 392.018000 L 362.452000 394.055000 L 366.035000 396.092000 L 369.619000 398.129000 L 373.202000 400.166000 L 376.785000 402.203000" fill="none" id="4" stroke="#58f2c3" stroke-width="0.5" /><path d="M 402.549000 22.289400 L 407.394000 23.479800 L 412.215000 24.763800 L 416.982000 26.237300 L 421.673000 27.935100 L 426.381000 29.585900 L 431.089000 31.236600 L 435.798000 32.887400 L 440.506000 34.538100 L 445.214000 36.188900 L 449.921000 37.842000 L 454.617000 39.527500 L 459.273000 41.319800 L 463.905000 43.173400 L 468.534000 45.033700 L 473.164000 46.894100 L 477.793000 48.754500 L 482.422000 50.614900 L 487.052000 52.475300 L 491.681000 54.335600 L 496.310000 56.196000 L 500.940000 58.056400 L 505.569000 59.916800 L 510.198000 61.777100 L 514.828000 63.637500 L 519.457000 65.497900 L 524.086000 67.358300 L 528.716000 69.218700 L 533.345000 71.079000 L 537.979000 72.927000 L 542.628000 74.738900 L 547.285000 76.529200 L 551.943000 78.315700 L 556.608000 80.084700 L 561.289000 81.811000 L 565.978000 83.515400 L 570.668000 85.217700 L 575.358000 86.920000 L 580.047000 88.622300 L 584.737000 90.324700 L 589.427000 92.026700 L 594.123000 93.712500 L 598.830000 95.364500 L 603.545000 96.998100 L 608.259000 98.630300 L 612.974000 100.262000 L 617.689000 101.894000 L 622.403000 103.527000 L 627.092000 105.231000 L 631.737000 107.050000 L 636.382000 108.871000 L 641.044000 110.648000 L 645.708000 112.420000 L 650.372000 114.192000 L 655.036000 115.964000 L 659.700000 117.735000 L 664.364000 119.507000 L 669.028000 121.279000 L 673.692000 123.051000 L 678.356000 124.823000 L 683.019000 126.594000 L 687.683000 128.366000 L 692.347000 130.138000 L 697.011000 131.910000 L 701.675000 133.681000 L 706.339000 135.453000 L 711.005000 137.222000 L 715.680000 138.963000 L 720.377000 140.644000 L 725.089000 142.286000 L 729.802000 143.920000 L 734.516000 145.555000 L 739.230000 147.190000 L 743.944000 148.824000 L 748.657000 150.459000 L 753.372000 152.093000 L 758.090000 153.713000 L 762.822000 155.297000 L 767.559000 156.861000 L 772.298000 158.423000 L 777.036000 159.985000 L 781.774000 161.546000 L 786.513000 163.108000 L 791.251000 164.670000 L 795.989000 166.232000 L 800.725000 167.803000 L 805.405000 169.531000 L 810.016000 171.437000 L 814.597000 173.413000 L 819.146000 175.462000 L 823.652000 177.604000" fill="none" id="5" stroke="#c94e76" stroke-width="0.5" /><path d="M 287.053000 447.935000 L 289.242000 446.999000 L 291.430000 446.064000 L 293.616000 445.123000 L 295.803000 444.183000 L 297.989000 443.242000 L 300.174000 442.300000 L 302.353000 441.342000 L 304.532000 440.384000 L 306.686000 439.371000 L 308.839000 438.358000 L 310.972000 437.301000 L 313.104000 436.245000 L 315.233000 435.181000 L 317.363000 434.118000 L 319.480000 433.030000 L 321.597000 431.943000 L 323.692000 430.813000 L 325.787000 429.684000 L 327.846000 428.491000 L 329.906000 427.298000 L 331.931000 426.048000 L 333.956000 424.798000 L 335.982000 423.548000 L 338.007000 422.298000 L 340.033000 421.049000 L 342.059000 419.800000 L 344.086000 418.553000 L 346.113000 417.305000 L 348.140000 416.059000 L 350.168000 414.813000" fill="none" id="6" stroke="#57b870" stroke-width="0.5" /><path d="M 343.638000 419.434000 L 347.972000 416.949000 L 352.299000 414.451000 L 356.618000 411.940000 L 360.928000 409.414000 L 365.223000 406.862000 L 369.518000 404.310000 L 373.813000 401.757000 L 378.107000 399.205000 L 382.402000 396.653000 L 386.697000 394.100000 L 390.992000 391.548000 L 395.287000 388.996000 L 399.581000 386.443000 L 403.876000 383.891000 L 408.171000 381.339000 L 412.466000 378.786000 L 416.761000 376.234000 L 421.055000 373.682000 L 425.350000 371.129000 L 429.645000 368.577000 L 433.940000 366.025000 L 438.235000 363.472000 L 442.529000 360.920000 L 446.824000 358.367000 L 451.195000 355.948000 L 455.556000 353.511000 L 459.905000 351.051000 L 464.244000 348.575000 L 468.583000 346.098000 L 472.922000 343.622000 L 477.261000 341.145000 L 481.600000 338.669000 L 485.954000 336.219000 L 490.313000 333.778000 L 494.675000 331.343000 L 499.038000 328.908000 L 503.400000 326.474000 L 507.763000 324.039000 L 512.125000 321.604000 L 516.488000 319.169000 L 520.851000 316.735000 L 525.213000 314.300000 L 529.576000 311.865000 L 533.938000 309.431000 L 538.301000 306.996000 L 542.663000 304.561000 L 547.026000 302.126000 L 551.388000 299.692000 L 555.751000 297.257000 L 560.114000 294.822000 L 564.476000 292.388000 L 568.839000 289.953000 L 573.201000 287.518000 L 577.564000 285.083000 L 581.926000 282.649000 L 586.289000 280.214000 L 590.652000 277.779000 L 595.014000 275.344000 L 599.377000 272.910000 L 603.739000 270.475000 L 608.102000 268.040000 L 612.464000 265.606000 L 616.827000 263.171000 L 621.189000 260.736000 L 625.552000 258.301000 L 629.911000 255.860000 L 634.264000 253.409000 L 638.608000 250.942000 L 642.950000 248.469000 L 647.290000 245.995000 L 651.630000 243.521000 L 655.971000 241.047000 L 660.311000 238.573000 L 664.652000 236.099000 L 668.992000 233.625000 L 673.333000 231.151000 L 677.673000 228.677000 L 682.013000 226.203000 L 686.354000 223.729000 L 690.694000 221.256000 L 695.035000 218.782000 L 699.375000 216.308000 L 703.716000 213.834000 L 708.056000 211.360000 L 712.396000 208.886000 L 716.737000 206.412000 L 721.077000 203.938000 L 725.418000 201.464000 L 729.758000 198.990000 L 734.099000 196.516000 L 738.439000 194.042000 L 742.784000 191.576000 L 747.143000 189.136000 L 751.517000 186.721000 L 755.904000 184.331000 L 760.291000 181.941000 L 764.679000 179.551000 L 769.066000 177.162000 L 773.454000 174.772000 L 777.841000 172.382000 L 782.228000 169.992000 L 786.616000 167.603000 L 791.003000 165.213000 L 795.390000 162.823000 L 799.778000 160.434000 L 804.173000 158.059000 L 808.588000 155.721000 L 813.164000 153.716000 L 817.649000 151.520000 L 822.095000 149.241000 L 826.541000 146.962000 L 830.987000 144.683000 L 835.433000 142.404000 L 839.879000 140.125000 L 844.325000 137.846000 L 848.771000 135.567000 L 853.216000 133.288000 L 857.662000 131.009000 L 862.108000 128.730000" fill="none" id="7" stroke="#57b870" stroke-width="0.5" /><path d="M 0.250000 243.108000 L 4.212150 240.107000 L 8.270890 237.239000 L 12.489500 234.620000 L 16.883100 232.305000 L 21.418100 230.270000 L 25.913000 228.148000 L 30.407800 226.026000 L 34.902700 223.904000 L 39.397600 221.782000 L 43.892500 219.660000 L 48.387400 217.538000 L 52.882200 215.416000 L 57.377100 213.294000 L 61.872000 211.172000 L 66.366900 209.050000 L 70.861900 206.928000 L 75.364300 204.822000 L 79.879600 202.744000 L 84.401900 200.681000 L 88.925500 198.621000 L 93.449100 196.561000 L 97.973000 194.501000 L 102.525000 192.506000 L 107.098000 190.556000 L 111.679000 188.627000 L 116.260000 186.699000 L 120.841000 184.770000 L 125.422000 182.841000 L 129.995000 180.893000 L 134.554000 178.912000 L 139.096000 176.893000 L 143.638000 174.874000 L 148.181000 172.856000 L 152.723000 170.837000 L 157.265000 168.819000 L 161.820000 166.832000 L 166.551000 165.307000 L 171.139000 163.404000 L 175.695000 161.417000 L 180.252000 159.431000 L 184.808000 157.444000 L 189.364000 155.458000 L 193.922000 153.474000 L 198.553000 151.675000 L 203.229000 149.989000 L 207.896000 148.280000 L 212.512000 146.435000 L 217.127000 144.590000 L 221.743000 142.745000 L 226.358000 140.901000 L 230.974000 139.056000 L 235.590000 137.211000 L 240.205000 135.366000 L 244.821000 133.521000 L 249.436000 131.676000 L 254.052000 129.830000 L 258.665000 127.981000 L 263.263000 126.091000 L 267.854000 124.187000 L 272.443000 122.277000 L 277.033000 120.368000 L 281.622000 118.459000 L 286.211000 116.550000 L 290.801000 114.640000 L 295.390000 112.731000 L 299.985000 110.835000 L 304.592000 108.970000 L 309.207000 107.124000 L 313.823000 105.279000 L 318.485000 103.560000 L 323.155000 101.861000 L 327.768000 100.008800 L 332.361000 98.108500 L 336.954000 96.208200 L 341.547000 94.307900 L 346.140000 92.407600 L 350.733000 90.507300 L 355.326000 88.607000 L 359.919000 86.706700 L 364.512000 84.806400 L 369.105000 82.906300 L 373.707000 81.028800 L 378.353000 79.260700 L 382.960000 77.394300 L 387.535000 75.453700 L 392.099000 73.483100 L 396.662000 71.512400 L 401.225000 69.541700 L 405.789000 67.571000 L 410.352000 65.600400 L 414.915000 63.629700 L 419.478000 61.659000 L 424.042000 59.688300 L 428.605000 57.718000 L 433.241000 55.926800 L 437.833000 54.032000 L 442.367000 51.995000 L 446.901000 49.958000 L 451.435000 47.921000 L 455.969000 45.884000 L 460.503000 43.847100 L 465.118000 42.031700 L 469.884000 40.629300 L 474.476000 38.725800 L 479.068000 36.822200 L 483.659000 34.918700 L 488.251000 33.015200 L 492.843000 31.111600 L 497.434000 29.208100 L 502.026000 27.304500 L 506.618000 25.401000 L 511.209000 23.497400 L 515.801000 21.593500 L 520.392000 19.687700 L 524.972000 17.757900 L 529.548000 15.816500 L 534.122000 13.870700 L 538.696000 11.924900 L 543.270000 9.979070 L 547.844000 8.033260 L 552.418000 6.087440 L 556.992000 4.141630 L 561.566000 2.195810 L 566.140000 0.250000" fill="none" id="8" stroke="#d271bb" stroke-width="0.5" /><path d="M 348.533000 394.006000 L 353.219000 392.337000 L 357.865000 390.560000 L 362.445000 388.620000 L 366.982000 386.578000 L 371.504000 384.508000 L 375.952000 382.281000 L 380.373000 380.001000 L 384.708000 377.561000 L 389.016000 375.075000 L 393.325000 372.589000 L 397.600000 370.046000 L 401.774000 367.342000 L 405.924000 364.598000 L 410.073000 361.854000 L 414.222000 359.110000 L 418.371000 356.367000 L 422.525000 353.630000 L 426.678000 350.894000 L 430.858000 348.197000 L 435.039000 345.502000 L 439.220000 342.807000 L 443.400000 340.111000 L 447.581000 337.416000 L 451.762000 334.721000 L 455.943000 332.026000 L 460.123000 329.331000 L 464.304000 326.635000 L 468.485000 323.940000 L 472.630000 321.191000 L 476.751000 318.405000 L 480.871000 315.618000 L 484.992000 312.832000 L 489.113000 310.045000 L 493.233000 307.259000 L 497.354000 304.473000 L 501.474000 301.686000 L 505.595000 298.900000 L 509.715000 296.113000 L 513.836000 293.327000 L 517.956000 290.541000 L 522.077000 287.754000 L 526.194000 284.963000 L 530.260000 282.098000 L 534.270000 279.154000 L 538.279000 276.209000 L 542.288000 273.265000 L 546.297000 270.321000" fill="none" id="9" stroke="#3d8e43" stroke-width="0.5" /><path d="M 247.400000 139.880000 L 250.590000 141.987000 L 253.780000 144.095000 L 256.970000 146.203000 L 260.165000 148.303000 L 263.390000 150.357000 L 266.627000 152.392000 L 269.865000 154.424000 L 273.104000 156.457000 L 276.342000 158.489000 L 279.581000 160.522000 L 282.814000 162.563000 L 286.026000 164.636000 L 289.213000 166.749000 L 292.386000 168.882000 L 295.557000 171.019000 L 298.737000 173.141000 L 301.954000 175.208000 L 305.220000 177.195000 L 308.504000 179.152000 L 311.789000 181.110000 L 315.073000 183.067000 L 318.357000 185.025000 L 321.625000 187.010000 L 324.836000 189.086000 L 328.029000 191.188000 L 331.223000 193.290000 L 334.417000 195.392000 L 337.611000 197.494000 L 340.804000 199.597000 L 343.998000 201.699000" fill="none" id="10" stroke="#00d4db" stroke-width="0.5" /><path d="M 680.250000 103.856000 L 678.857000 108.620000 L 676.920000 113.187000 L 674.316000 117.407000 L 671.124000 121.207000 L 667.677000 124.779000 L 664.192000 128.312000 L 660.599000 131.737000 L 656.936000 135.087000 L 653.260000 138.422000 L 649.552000 141.721000 L 645.800000 144.971000 L 642.039000 148.210000 L 638.277000 151.448000 L 634.515000 154.686000 L 630.754000 157.925000 L 626.992000 161.163000 L 623.230000 164.402000 L 619.468000 167.640000 L 615.707000 170.878000 L 611.943000 174.114000 L 608.143000 177.308000 L 604.267000 180.407000 L 600.337000 183.440000 L 596.397000 186.458000 L 592.457000 189.477000 L 588.600000 192.599000 L 584.862000 195.864000 L 581.061000 199.054000 L 577.145000 202.102000 L 573.199000 205.114000 L 569.254000 208.126000 L 565.310000 211.140000 L 561.383000 214.176000 L 557.513000 217.284000 L 553.706000 220.468000 L 549.913000 223.670000 L 546.092000 226.838000 L 542.214000 229.935000 L 538.312000 233.004000 L 534.445000 236.116000 L 530.672000 239.340000 L 526.773000 242.409000 L 522.836000 245.433000 L 518.900000 248.456000 L 514.963000 251.479000 L 511.027000 254.503000 L 507.090000 257.526000 L 503.154000 260.550000 L 499.217000 263.573000 L 495.281000 266.597000 L 491.344000 269.620000 L 487.407000 272.644000" fill="none" id="11" stroke="#d55969" stroke-width="0.5" /><path d="M 287.211000 102.675000 L 286.502000 102.305000 L 285.794000 101.935000 L 285.086000 101.564000 L 284.378000 101.193000 L 283.671000 100.821000 L 282.963000 100.449000 L 282.254000 100.081300 L 281.544000 99.713300 L 280.845000 99.326100 L 280.146000 98.938800 L 279.445000 98.554200 L 278.744000 98.169500 L 278.060000 97.756300 L 277.376000 97.343100 L 276.697000 96.921100 L 276.019000 96.499100 L 275.345000 96.069500 L 274.671000 95.639800 L 274.019000 95.177600 L 273.367000 94.715500 L 272.712000 94.257400 L 272.057000 93.799300 L 271.423000 93.311900 L 270.790000 92.824400 L 270.156000 92.337800 L 269.522000 91.851000 L 268.896000 91.353600 L 268.271000 90.856000 L 267.038000 89.838500" fill="none" id="12" stroke="#64e4ff" stroke-width="0.5" /><path d="M 267.038000 89.838500 L 271.741000 91.529100 L 276.413000 93.304100 L 281.015000 95.252400 L 285.464000 97.530800 L 289.945000 99.743800 L 294.426000 101.957000 L 298.907000 104.170000 L 303.389000 106.383000 L 307.870000 108.596000 L 312.351000 110.809000 L 316.833000 113.022000 L 321.314000 115.235000 L 325.795000 117.449000 L 330.269000 119.676000 L 334.713000 121.963000 L 339.125000 124.310000 L 343.533000 126.667000 L 347.941000 129.023000 L 352.348000 131.380000 L 356.756000 133.736000 L 361.163000 136.092000 L 365.571000 138.449000 L 369.979000 140.805000 L 374.386000 143.161000 L 378.794000 145.518000 L 383.199000 147.879000 L 387.586000 150.273000 L 391.943000 152.722000 L 396.283000 155.201000 L 400.619000 157.685000 L 404.956000 160.170000 L 409.293000 162.654000 L 413.630000 165.138000 L 417.967000 167.622000 L 422.304000 170.107000 L 426.640000 172.591000 L 430.977000 175.075000 L 435.314000 177.559000 L 439.651000 180.044000 L 443.988000 182.528000 L 448.324000 185.012000 L 452.661000 187.497000 L 456.998000 189.981000 L 461.335000 192.465000 L 465.671000 194.951000 L 469.997000 197.454000 L 474.307000 199.984000 L 478.609000 202.529000 L 482.892000 205.103000 L 487.146000 207.728000 L 491.385000 210.375000 L 495.623000 213.024000 L 499.862000 215.673000 L 504.103000 218.317000 L 508.358000 220.939000 L 512.636000 223.522000 L 516.927000 226.085000 L 521.221000 228.643000 L 525.514000 231.202000 L 529.807000 233.761000 L 534.100000 236.320000 L 538.394000 238.879000 L 542.689000 241.433000 L 546.997000 243.968000 L 551.317000 246.481000 L 555.640000 248.989000 L 559.963000 251.497000 L 564.286000 254.006000 L 568.609000 256.514000 L 572.932000 259.022000 L 577.255000 261.530000 L 581.578000 264.038000 L 585.901000 266.546000 L 590.224000 269.055000 L 594.548000 271.563000 L 598.871000 274.071000 L 603.194000 276.579000 L 607.517000 279.087000 L 611.840000 281.595000 L 616.163000 284.103000 L 620.486000 286.612000 L 624.809000 289.120000 L 629.132000 291.628000" fill="none" id="13" stroke="#e68e54" stroke-width="0.5" /><path d="M 200.344000 233.943000 L 200.381000 236.740000 L 200.462000 239.536000 L 200.605000 242.330000 L 200.808000 245.120000 L 201.047000 247.907000 L 201.206000 250.700000 L 201.332000 253.494000 L 201.446000 256.289000 L 201.556000 259.085000 L 201.666000 261.880000 L 201.754000 264.676000 L 201.802000 267.473000 L 201.822000 270.270000 L 201.825000 273.068000 L 201.825000 275.865000 L 201.825000 278.663000 L 201.784000 281.460000 L 201.693000 284.256000 L 201.564000 287.050000 L 201.432000 289.844000 L 201.301000 292.639000 L 201.169000 295.433000 L 201.037000 298.227000 L 200.907000 301.022000 L 200.780000 303.816000 L 200.687000 306.612000 L 200.631000 309.409000 L 200.601000 312.206000 L 200.589000 315.004000 L 200.596000 317.801000" fill="none" id="14" stroke="#54aeff" stroke-width="0.5" /><path d="M 208.880000 235.313000 L 208.941000 237.882000 L 208.979000 240.451000 L 208.993000 243.020000 L 208.973000 245.590000 L 208.906000 248.158000 L 208.824000 250.727000 L 208.731000 253.295000 L 208.636000 255.862000 L 208.540000 258.430000 L 208.445000 260.998000 L 208.350000 263.566000 L 208.255000 266.133000 L 208.160000 268.701000 L 208.065000 271.269000 L 207.970000 273.837000 L 207.874000 276.404000 L 207.779000 278.972000 L 207.690000 281.540000 L 207.618000 284.109000 L 207.585000 286.678000 L 207.564000 289.247000 L 207.549000 291.817000 L 207.536000 294.386000 L 207.523000 296.956000 L 207.510000 299.525000 L 207.500000 302.095000 L 207.516000 304.664000 L 207.576000 307.233000 L 207.665000 309.801000 L 207.778000 312.368000" fill="none" id="15" stroke="#eed973" stroke-width="0.5" /><path d="M 131.242000 197.778000 L 135.532000 200.217000 L 139.821000 202.657000 L 144.111000 205.097000 L 148.400000 207.537000 L 152.688000 209.979000 L 156.965000 212.442000 L 161.218000 214.944000 L 165.463000 217.460000 L 169.708000 219.978000 L 173.953000 222.494000 L 178.211000 224.988000 L 182.503000 227.423000 L 186.819000 229.816000 L 191.139000 232.201000 L 195.460000 234.585000 L 199.780000 236.970000 L 204.101000 239.355000 L 208.421000 241.739000 L 212.733000 244.140000 L 217.017000 246.588000 L 221.274000 249.085000 L 225.520000 251.600000 L 229.766000 254.115000 L 234.012000 256.630000 L 238.257000 259.145000 L 242.503000 261.660000 L 246.749000 264.175000 L 250.995000 266.690000 L 255.241000 269.205000 L 259.487000 271.720000 L 263.735000 274.231000 L 268.005000 276.704000 L 272.335000 279.071000 L 276.691000 281.390000 L 281.050000 283.704000 L 285.415000 286.006000" fill="none" id="16" stroke="#008bd4" stroke-width="0.5" /><path d="M 427.557000 132.037000 L 432.352000 130.983000 L 437.230000 130.512000 L 442.143000 130.492000 L 447.055000 130.397000 L 451.967000 130.302000 L 456.879000 130.207000 L 461.791000 130.110000 L 466.703000 129.988000 L 471.613000 129.823000 L 476.523000 129.641000 L 481.432000 129.459000 L 486.342000 129.277000 L 491.252000 129.095000 L 496.161000 128.913000 L 501.071000 128.731000 L 505.981000 128.549000 L 510.890000 128.367000 L 515.800000 128.185000 L 520.710000 128.003000 L 525.619000 127.821000 L 530.529000 127.640000 L 535.439000 127.458000 L 540.348000 127.276000 L 545.258000 127.094000 L 550.168000 126.914000 L 555.078000 126.746000 L 559.989000 126.590000 L 564.899000 126.437000 L 569.810000 126.283000 L 574.721000 126.130000 L 579.631000 125.977000 L 584.542000 125.823000 L 589.453000 125.670000 L 594.363000 125.517000 L 599.274000 125.363000 L 604.185000 125.210000 L 609.095000 125.057000 L 614.006000 124.903000 L 618.917000 124.755000 L 623.826000 124.576000 L 628.732000 124.314000 L 633.636000 124.006000" fill="none" id="17" stroke="#fdb968" stroke-width="0.5" /><path d="M 368.281000 161.801000 L 372.511000 159.255000 L 376.817000 156.840000 L 381.211000 154.590000 L 385.701000 152.538000 L 390.202000 150.510000 L 394.752000 148.595000 L 399.314000 146.710000 L 403.878000 144.826000 L 408.441000 142.943000 L 413.005000 141.060000 L 417.568000 139.177000 L 422.132000 137.294000 L 426.695000 135.410000 L 431.259000 133.527000 L 435.823000 131.646000 L 440.402000 129.802000 L 444.999000 128.003000 L 449.601000 126.216000 L 454.203000 124.429000 L 458.805000 122.642000 L 463.407000 120.855000 L 468.003000 119.053000 L 472.584000 117.212000 L 477.157000 115.352000 L 481.730000 113.492000 L 486.303000 111.632000 L 490.876000 109.772000 L 495.449000 107.912000 L 500.022000 106.053000 L 504.595000 104.193000 L 509.171000 102.341000 L 513.760000 100.520000 L 518.361000 98.730700 L 522.965000 96.949500 L 527.569000 95.168200 L 532.173000 93.386900 L 536.778000 91.605600 L 541.382000 89.824300 L 545.986000 88.043000 L 550.590000 86.261700 L 555.194000 84.480400 L 559.798000 82.699100 L 564.403000 80.917800 L 569.007000 79.137100 L 573.616000 77.367500 L 578.239000 75.636400 L 582.864000 73.910900 L 587.490000 72.185500 L 592.115000 70.458600 L 596.730000 68.707200 L 601.297000 66.830900 L 605.846000 64.914000 L 610.395000 62.997100 L 614.945000 61.080300 L 619.494000 59.163400" fill="none" id="18" stroke="#6f73bc" stroke-width="0.5" /><path d="M 477.699000 211.573000 L 476.651000 212.139000 L 475.603000 212.706000 L 474.555000 213.272000 L 473.508000 213.838000 L 472.460000 214.405000 L 471.412000 214.971000 L 470.364000 215.538000 L 469.316000 216.104000 L 468.269000 216.670000 L 467.221000 217.237000 L 466.173000 217.804000 L 465.126000 218.370000 L 464.076000 218.934000 L 463.027000 219.497000 L 461.976000 220.059000 L 460.926000 220.620000 L 459.869000 221.169000 L 458.812000 221.718000 L 457.752000 222.262000 L 456.693000 222.806000 L 455.618000 223.320000 L 454.544000 223.835000 L 453.469000 224.347000 L 452.394000 224.860000 L 451.294000 225.317000 L 450.194000 225.775000 L 449.056000 226.127000 L 447.918000 226.478000 L 446.766000 226.778000 L 445.613000 227.077000" fill="none" id="19" stroke="#bee481" stroke-width="0.5" /><path d="M 445.613000 227.077000 L 449.615000 224.190000 L 453.665000 221.370000 L 457.780000 218.644000 L 461.951000 216.006000 L 466.124000 213.370000 L 470.296000 210.734000 L 474.469000 208.098000 L 478.641000 205.462000 L 482.813000 202.826000 L 487.009000 200.226000 L 491.234000 197.676000 L 495.466000 195.135000 L 499.697000 192.595000 L 503.928000 190.054000 L 508.159000 187.513000 L 512.390000 184.973000 L 516.622000 182.432000 L 520.853000 179.891000 L 525.084000 177.350000 L 529.269000 174.734000 L 533.419000 172.063000 L 537.563000 169.382000 L 541.706000 166.701000 L 545.850000 164.020000 L 549.994000 161.339000 L 554.137000 158.658000 L 558.281000 155.977000 L 562.426000 153.297000 L 566.581000 150.633000 L 570.755000 148.000000 L 574.938000 145.381000 L 579.122000 142.763000 L 583.305000 140.144000 L 587.489000 137.526000 L 591.673000 134.908000 L 595.853000 132.284000 L 600.011000 129.626000 L 604.142000 126.925000 L 608.272000 124.223000 L 612.401000 121.520000 L 616.531000 118.817000 L 620.661000 116.114000 L 624.790000 113.412000 L 628.920000 110.709000 L 633.054000 108.013000 L 637.213000 105.356000 L 641.413000 102.764000 L 645.627000 100.195400 L 649.841000 97.626500 L 654.056000 95.057700 L 658.270000 92.488900 L 662.484000 89.920000 L 666.698000 87.351200 L 670.914000 84.785900 L 675.149000 82.251500 L 679.426000 79.787200 L 683.710000 77.337000 L 687.994000 74.886800 L 692.278000 72.436600 L 696.563000 69.986400 L 700.847000 67.536200 L 705.131000 65.086000 L 709.415000 62.635800" fill="none" id="20" stroke="#8f6aaf" stroke-width="0.5" /><path d="M 393.825000 111.911000 L 395.290000 112.835000 L 396.755000 113.758000 L 398.240000 114.648000 L 399.725000 115.539000 L 401.240000 116.377000 L 402.755000 117.216000 L 404.286000 118.026000 L 405.817000 118.835000 L 407.348000 119.644000 L 408.879000 120.453000 L 410.416000 121.252000 L 411.952000 122.050000 L 413.496000 122.835000 L 415.040000 123.620000 L 416.596000 124.380000 L 418.152000 125.140000 L 419.715000 125.885000 L 421.278000 126.630000 L 422.843000 127.371000 L 424.408000 128.113000 L 425.973000 128.855000 L 427.538000 129.596000 L 429.102000 130.338000 L 430.667000 131.079000 L 432.232000 131.821000 L 433.797000 132.563000 L 435.362000 133.304000 L 436.927000 134.046000 L 438.491000 134.788000 L 440.056000 135.529000" fill="none" id="21" stroke="#8bb658" stroke-width="0.5" /><path d="M 430.127000 131.287000 L 431.613000 131.992000 L 433.098000 132.697000 L 434.585000 133.401000 L 436.071000 134.105000 L 437.558000 134.807000 L 439.046000 135.509000 L 440.533000 136.210000 L 442.021000 136.911000 L 443.509000 137.612000 L 444.996000 138.313000 L 446.484000 139.014000 L 447.972000 139.715000 L 449.459000 140.416000 L 450.947000 141.117000 L 452.435000 141.818000 L 453.923000 142.519000 L 455.410000 143.221000 L 456.898000 143.922000 L 458.386000 144.623000 L 459.873000 145.324000 L 461.361000 146.025000 L 462.849000 146.726000 L 464.336000 147.427000 L 465.824000 148.128000 L 467.311000 148.831000 L 468.798000 149.533000 L 470.284000 150.239000 L 471.769000 150.945000 L 473.254000 151.652000 L 474.738000 152.360000" fill="none" id="22" stroke="#8bb658" stroke-width="0.5" /><path d="M 467.373000 149.236000 L 470.862000 151.092000 L 474.351000 152.947000 L 477.840000 154.803000 L 481.328000 156.658000 L 484.817000 158.514000 L 488.306000 160.369000 L 491.795000 162.225000 L 495.284000 164.080000 L 498.773000 165.935000 L 502.262000 167.791000 L 505.750000 169.646000 L 509.239000 171.501000 L 512.728000 173.357000 L 516.234000 175.180000 L 519.763000 176.957000 L 523.311000 178.697000 L 526.868000 180.419000 L 530.425000 182.139000 L 533.982000 183.860000 L 537.540000 185.580000 L 541.097000 187.301000 L 544.650000 189.030000 L 548.193000 190.781000 L 551.712000 192.578000 L 555.203000 194.429000 L 558.694000 196.280000 L 562.185000 198.131000 L 565.677000 199.982000 L 569.168000 201.832000 L 572.659000 203.683000" fill="none" id="23" stroke="#8bb658" stroke-width="0.5" /><path d="M 79.746100 189.911000 L 79.656400 191.863000 L 79.573200 193.815000 L 79.510600 195.767000 L 79.465100 197.720000 L 79.438800 199.673000 L 79.437600 201.627000 L 79.446700 203.580000 L 79.466900 205.534000 L 79.488900 207.487000 L 79.516300 209.441000 L 79.544400 211.394000 L 79.573300 213.347000 L 79.602300 215.301000 L 79.631200 217.254000 L 79.660200 219.207000 L 79.689200 221.161000 L 79.718100 223.114000 L 79.747100 225.067000 L 79.776000 227.020000 L 79.805000 228.974000 L 79.834000 230.927000 L 79.876100 232.880000 L 79.924200 234.833000 L 80.025800 236.784000 L 80.152900 238.733000 L 80.342100 240.677000 L 80.621100 242.609000 L 80.981100 244.529000 L 81.422000 246.432000 L 81.887800 248.329000" fill="none" id="24" stroke="#bbabff" stroke-width="0.5" /><path d="M 354.011000 372.849000 L 354.334000 374.160000 L 354.657000 375.471000 L 354.940000 376.792000 L 355.222000 378.113000 L 355.427000 379.448000 L 355.630000 380.783000 L 355.758000 382.127000 L 355.885000 383.472000 L 356.026000 384.815000 L 356.166000 386.158000 L 356.307000 387.501000 L 356.448000 388.845000 L 356.590000 390.188000 L 356.731000 391.531000 L 356.872000 392.874000 L 357.013000 394.217000 L 357.154000 395.560000 L 357.296000 396.904000 L 357.437000 398.247000 L 357.578000 399.590000 L 357.719000 400.933000 L 357.861000 402.276000 L 358.002000 403.619000 L 358.143000 404.963000 L 358.284000 406.306000 L 358.425000 407.649000 L 358.567000 408.992000 L 358.708000 410.335000 L 358.849000 411.678000 L 358.990000 413.022000" fill="none" id="25" stroke="#658424" stroke-width="0.5" /></svg>