<?xml version="1.0" encoding="utf-8" ?>
<svg baseProfile="full" height="547.515255" version="1.1" viewBox="0,0,737.515255,547.515255" width="737.515255" xmlns="http://www.w3.org/2000/svg" xmlns:ev="http://www.w3.org/2001/xml-events" xmlns:xlink="http://www.w3.org/1999/xlink"><defs><style type="text/css"><![CDATA[
	.background { fill: white; }
	.line { stroke: firebrick; stroke-width: .1mm; }
	.blacksquare { fill: indigo; }
	.whitesquare { fill: white; }
]]></style></defs><rect class="background" height="100%" width="100%" x="0" y="0" /><path d="M 21.242953 294.541088 L 24.620320 296.684306 L 27.997688 298.827527 L 31.375055 300.970746 L 34.752423 303.113965 L 38.129790 305.257184 L 41.507157 307.400404 L 44.884524 309.543623 L 48.261891 311.686843 L 51.639260 313.830061 L 52.584565 314.436216 L 49.199323 312.305456 L 45.814080 310.174699 L 45.172309 309.741872 L 48.589444 311.821100 L 52.006580 313.900327 L 55.423716 315.979555 L 58.840850 318.058782 L 62.257987 320.138009 L 65.675122 322.217236 L 69.058769 324.350145 L 72.428854 326.504800 L 75.798936 328.659456 L 79.169020 330.814111 L 82.539102 332.968767 L 85.909187 335.123422 L 89.279269 337.278076 L 92.649352 339.432731 L 96.019436 341.587387 L 99.389519 343.742043 L 102.759602 345.896698 L 103.476562 346.350197 L 100.112121 344.186742 L 100.219332 344.201079 L 103.631417 346.288586 L 107.043500 348.376093 L 110.455585 350.463599 L 113.883270 352.525059 L 117.333912 354.548192 L 120.784554 356.571325 L 124.235197 358.594458 L 127.685840 360.617591 L 131.136482 362.640724 L 134.587125 364.663857 L 138.037767 366.686990 L 141.488410 368.710123 L 144.899562 370.798571 L 148.294271 372.914215 L 151.688980 375.029858 L 155.083690 377.145503 L 158.478399 379.261146 L 161.873108 381.376791 L 165.267817 383.492434 L 168.662527 385.608078 L 172.057236 387.723722 L 175.474604 389.802256 L 178.907392 391.855539 L 182.340180 393.908820 L 185.772968 395.962102 L 189.205757 398.015383 L 192.638545 400.068665 L 196.071333 402.121947 L 199.504120 404.175229 L 202.936909 406.228510 L 206.369698 408.281791 L 209.802486 410.335073 L 213.235274 412.388354 L 216.649762 414.471835 L 220.058734 416.564421 L 223.467706 418.657005 L 226.876677 420.749590 L 230.285650 422.842174 L 233.694622 424.934758 L 237.103594 427.027344 L 240.512566 429.119928 L 243.921537 431.212513 L 247.330510 433.305096 L 250.739482 435.397682 L 254.148454 437.490267 L 257.592618 439.524038 L 261.048050 441.538977 L 264.503484 443.553919 L 267.958916 445.568859 L 271.414349 447.583799 L 274.869781 449.598740 L 278.325215 451.613679 L 281.795817 453.602183 L 285.278957 455.568840 L 288.762096 457.535497 L 292.245236 459.502154 L 295.728376 461.468811 L 299.211515 463.435468 L 302.694654 465.402126 L 306.177794 467.368783 L 309.660933 469.335440 L 313.144071 471.302097 L 316.627211 473.268754 L 320.110351 475.235411 L 323.593490 477.202068 L 327.076630 479.168725 L 330.559769 481.135382 L 334.042908 483.102039 L 337.526048 485.068696 L 341.009186 487.035355 L 344.492325 489.002012 L 347.975465 490.968669 L 351.477876 492.900490 L 354.994660 494.806332 L 358.511442 496.712175 L 362.028227 498.618017 L 365.545009 500.523860 L 369.061793 502.429702 L 372.625061 504.246696 L 376.195964 506.049100 L 379.766865 507.851502 L 383.337769 509.653905 L 386.908671 511.456308 L 390.479574 513.258710 L 394.050476 515.061113 L 397.621378 516.863516 L 399.416182 517.769437" fill="none" id="1" stroke="black" stroke-width="0.515255" /><path d="M 528.046102 194.052898 L 524.585529 196.058996 L 521.124955 198.065094 L 517.664381 200.071192 L 514.203808 202.077290 L 510.743234 204.083388 L 507.282660 206.089486 L 503.822087 208.095584 L 500.361513 210.101682 L 496.900938 212.107780 L 493.440364 214.113878 L 489.979791 216.119976 L 486.519218 218.126074 L 483.058644 220.132171 L 479.598724 222.139362 L 476.196762 224.243323 L 472.794800 226.347285 L 469.392837 228.451247 L 465.990876 230.555208 L 462.588913 232.659170 L 459.186952 234.763132 L 455.784989 236.867094 L 452.383028 238.971055 L 448.981065 241.075017 L 445.579104 243.178978 L 442.177142 245.282940 L 438.775180 247.386902 L 435.373218 249.490864 L 431.971257 251.594826 L 428.569295 253.698787 L 425.167332 255.802749 L 421.765371 257.906711 L 418.363408 260.010672 L 414.961447 262.114634 L 411.559484 264.218595 L 408.157523 266.322558 L 404.755561 268.426518 L 401.353599 270.530481 L 397.951637 272.634443 L 394.559810 274.754455 L 391.197636 276.921434 L 387.835464 279.088412 L 384.473292 281.255390 L 381.111119 283.422369 L 377.748946 285.589347 L 374.386774 287.756326 L 371.024601 289.923304 L 367.662429 292.090282 L 364.300255 294.257261 L 360.938084 296.424239 L 357.575911 298.591217 L 354.213738 300.758195 L 350.851565 302.925174 L 347.489393 305.092152 L 344.127220 307.259131 L 340.765048 309.426108 L 337.402874 311.593088 L 334.040703 313.760065 L 330.678530 315.927044 L 327.316357 318.094022 L 323.954184 320.261001 L 320.592012 322.427979 L 317.229840 324.594958 L 313.867666 326.761935 L 310.505494 328.928915 L 307.143322 331.095892 L 303.781149 333.262871 L 300.418975 335.429849 L 297.056804 337.596828 L 293.694631 339.763806 L 290.332459 341.930785 L 286.949465 344.065034 L 283.561792 346.191926 L 280.174119 348.318818 L 276.786446 350.445710 L 273.398773 352.572603 L 270.011099 354.699495 L 266.623425 356.826387 L 263.235752 358.953279 L 259.848080 361.080171 L 256.460407 363.207063 L 253.072733 365.333956 L 249.685060 367.460847 L 246.297387 369.587739 L 242.932913 371.750949 L 239.578924 373.930573 L 236.224935 376.110196 L 232.870946 378.289820 L 229.516957 380.469443 L 226.162968 382.649066 L 222.808979 384.828688 L 219.454990 387.008311 L 216.101001 389.187936 L 212.747012 391.367559 L 209.393023 393.547182 L 206.039033 395.726805 L 202.685044 397.906428 L 199.331055 400.086050 L 195.977066 402.265674 L 192.623077 404.445298 L 189.269088 406.624921 L 185.915098 408.804544 L 182.561110 410.984167 L 179.207121 413.163791 L 175.853132 415.343413 L 172.499143 417.523036 L 169.145154 419.702660 L 165.791164 421.882283 L 162.437175 424.061907 L 159.083186 426.241530 L 155.729197 428.421153 L 152.375208 430.600775 L 149.021219 432.780398 L 145.667230 434.960022 L 142.288074 437.099938 L 138.885375 439.202707 L 135.482675 441.305475 L 132.079975 443.408244 L 128.641311 445.451230 L 125.189402 447.472202 L 121.737493 449.493175 L 118.285585 451.514148 L 114.833677 453.535120 L 111.381770 455.556093 L 107.929862 457.577065 L 104.477953 459.598038 L 101.026045 461.619010 L 97.574136 463.639983 L 94.122228 465.660956 L 90.670321 467.681928 L 87.294814 469.827872 L 83.922442 471.978942 L 83.794142 472.060778" fill="none" id="2" stroke="black" stroke-width="0.515255" /><path d="M 582.345323 165.045028 L 579.131064 167.425899 L 575.916807 169.806769 L 572.702548 172.187640 L 569.488290 174.568510 L 566.274031 176.949381 L 563.059774 179.330251 L 559.845516 181.711122 L 556.631258 184.091992 L 553.416999 186.472863 L 550.155467 188.787080 L 546.845728 191.033327 L 543.535989 193.279573 L 540.226248 195.525820 L 536.916508 197.772066 L 533.606770 200.018313 L 530.286914 202.248795 L 526.865682 204.321273 L 523.444449 206.393751 L 520.023215 208.466228 L 516.565796 210.477731 L 513.107602 212.487930 L 509.649409 214.498128 L 506.191215 216.508327 L 502.733023 218.518526 L 499.274830 220.528725 L 495.816636 222.538923 L 492.358443 224.549122 L 488.900250 226.559321 L 485.442057 228.569519 L 481.983862 230.579718 L 478.525669 232.589917 L 475.067476 234.600116 L 471.609283 236.610314 L 468.151090 238.620513 L 464.692897 240.630712 L 461.234703 242.640911 L 457.776510 244.651109 L 454.318317 246.661308 L 450.860122 248.671507 L 447.401929 250.681706 L 443.943736 252.691904 L 440.485543 254.702103 L 437.027350 256.712302 L 433.569157 258.722501 L 430.110963 260.732699 L 426.652770 262.742898 L 423.194577 264.753097 L 419.763318 266.808073 L 416.366950 268.921053 L 412.970582 271.034033 L 409.574215 273.147014 L 406.177846 275.259994 L 402.781478 277.372974 L 399.385111 279.485954 L 395.988743 281.598936 L 392.592376 283.711916 L 389.196008 285.824896 L 385.799641 287.937877 L 382.403273 290.050857 L 379.006905 292.163837 L 375.610537 294.276817 L 372.214170 296.389799 L 368.817802 298.502779 L 365.421434 300.615759 L 362.025067 302.728740 L 358.628698 304.841720 L 355.232330 306.954701 L 351.835962 309.067680 L 348.439595 311.180661 L 345.043228 313.293642 L 341.646860 315.406622 L 338.250493 317.519603 L 334.854125 319.632583 L 331.457757 321.745564 L 328.079624 323.887499 L 324.706522 326.037427 L 321.333419 328.187353 L 317.960318 330.337280 L 314.587216 332.487206 L 311.214113 334.637133 L 307.841013 336.787059 L 304.467911 338.936985 L 301.094808 341.086911 L 297.721707 343.236838 L 294.348605 345.386765 L 290.975503 347.536691 L 287.602400 349.686618 L 284.229299 351.836544 L 280.890436 354.039188 L 277.554643 356.246559 L 274.218853 358.453933 L 270.883060 360.661305 L 267.547269 362.868676 L 264.211477 365.076050 L 260.875686 367.283422 L 257.539894 369.490794 L 254.204102 371.698167 L 250.868310 373.905540 L 247.588616 376.194637 L 244.329680 378.513977 L 241.070743 380.833316 L 237.811807 383.152655 L 234.552870 385.471993 L 231.293934 387.791333 L 228.034998 390.110672 L 224.776060 392.430011 L 221.517125 394.749349 L 218.258188 397.068689 L 214.999252 399.388028 L 211.740315 401.707367 L 208.481379 404.026705 L 205.222442 406.346045 L 201.963506 408.665384 L 198.624478 410.864640 L 195.230996 412.982252 L 191.837514 415.099864 L 188.444032 417.217476 L 185.050551 419.335087 L 181.657069 421.452699 L 178.263587 423.570312 L 174.930808 425.779134 L 171.667255 428.091972 L 168.450677 430.464516 L 166.986293 432.091177 L 170.159331 429.662910 L 173.412846 427.335972 L 174.061853 426.871798" fill="none" id="3" stroke="black" stroke-width="0.515255" /><path d="M 680.235082 237.989908 L 677.113310 240.490814 L 673.991537 242.991721 L 670.869763 245.492627 L 667.747991 247.993534 L 664.626218 250.494439 L 661.504444 252.995347 L 658.382672 255.496253 L 655.260898 257.997160 L 652.139124 260.498065 L 649.094476 263.092224 L 646.052196 265.689248 L 643.009915 268.286271 L 639.967635 270.883295 L 637.093020 273.662816 L 634.248041 276.474594 L 631.403063 279.286372 L 628.558084 282.098150 L 625.713105 284.909928 L 622.868127 287.721705 L 619.988739 290.498034 L 617.093410 293.257937 L 614.198080 296.017841 L 611.302751 298.777743 L 608.407421 301.537647 L 605.512091 304.297551 L 602.616763 307.057455 L 599.721432 309.817359 L 596.826104 312.577262 L 593.930773 315.337166 L 591.035445 318.097069 L 588.140115 320.856973 L 585.244786 323.616875 L 582.355285 326.382828 L 579.489938 329.173849 L 576.624594 331.964869 L 573.759248 334.755890 L 570.893902 337.546910 L 568.028558 340.337931 L 565.163211 343.128951 L 562.297867 345.919972 L 559.432521 348.710992 L 556.567175 351.502013 L 553.701830 354.293033 L 550.836484 357.084054 L 547.971139 359.875073 L 545.136518 362.697259 L 542.305115 365.522706 L 539.473711 368.348154 L 536.642307 371.173601 L 533.810902 373.999048 L 530.979499 376.824495 L 528.148096 379.649942 L 525.316692 382.475390 L 522.485288 385.300837 L 519.629253 388.101266 L 516.759968 390.888236 L 513.890683 393.675207 L 511.021399 396.462176 L 508.152113 399.249147 L 505.282828 402.036118 L 502.413544 404.823089 L 499.544260 407.610060 L 496.674975 410.397030 L 493.823660 413.202079 L 491.019510 416.054576 L 488.215360 418.907074 L 485.411208 421.759570 L 482.607058 424.612069 L 479.802909 427.464565 L 476.998759 430.317064 L 474.194608 433.169560 L 471.390458 436.022058 L 468.586308 438.874555 L 465.782158 441.727053 L 462.978007 444.579551 L 460.173856 447.432048 L 457.309213 450.222788 L 454.399406 452.967423 L 451.489599 455.712060 L 448.579792 458.456696 L 445.669986 461.201332 L 442.760179 463.945967 L 439.850373 466.690603 L 436.981169 469.477548 L 434.119084 472.271912 L 431.257001 475.066279 L 428.394918 477.860644 L 425.532834 480.655009 L 422.670749 483.449374 L 419.778891 486.212762 L 416.873544 488.962118 L 413.968196 491.711473 L 411.062848 494.460827 L 408.157500 497.210183 L 405.252152 499.959539 L 402.346804 502.708893 L 399.441456 505.458249 L 396.487428 508.154622 L 393.502520 510.817388 L 390.517611 513.480155 L 387.532704 516.142922 L 384.547796 518.805687 L 381.562887 521.468455 L 378.633283 524.191674 L 375.715904 526.928259 L 372.798523 529.664844 L 369.881145 532.401430 L 366.861369 535.024525 L 363.840179 537.646053 L 360.707021 540.129428 L 357.516591 542.542134 L 354.326160 544.954841 L 351.447682 547.131638" fill="none" id="4" stroke="black" stroke-width="0.515255" /><path d="M 687.605163 246.399358 L 684.342159 248.712972 L 681.079157 251.026586 L 677.840127 253.372016 L 674.716652 255.870796 L 671.646148 258.433097 L 668.626946 261.056913 L 665.607741 263.680728 L 662.588538 266.304545 L 659.569334 268.928360 L 656.550131 271.552177 L 653.530927 274.175993 L 650.511724 276.799809 L 647.492521 279.423625 L 644.473317 282.047440 L 641.454114 284.671257 L 638.434910 287.295072 L 635.415707 289.918888 L 632.396502 292.542704 L 629.377300 295.166519 L 626.358095 297.790336 L 623.338893 300.414152 L 620.319688 303.037968 L 617.300485 305.661784 L 614.281281 308.285599 L 611.262078 310.909416 L 608.242874 313.533231 L 605.223671 316.157048 L 602.204467 318.780864 L 599.213464 321.436599 L 596.237632 324.109503 L 593.261799 326.782407 L 590.285964 329.455310 L 587.310132 332.128215 L 584.334299 334.801119 L 581.358465 337.474022 L 578.382632 340.146927 L 575.406799 342.819831 L 572.430965 345.492735 L 569.455131 348.165639 L 566.479299 350.838543 L 563.503466 353.511447 L 560.527631 356.184350 L 557.551799 358.857256 L 554.575966 361.530160 L 551.631763 364.237725 L 548.698526 366.957306 L 545.765289 369.676887 L 542.832053 372.396468 L 539.898816 375.116050 L 536.965579 377.835631 L 534.032343 380.555211 L 531.099106 383.274793 L 528.165869 385.994374 L 525.232633 388.713955 L 522.299396 391.433537 L 519.366158 394.153119 L 516.432923 396.872700 L 513.454477 399.542322 L 510.456315 402.190156 L 507.458153 404.837988 L 504.459990 407.485823 L 501.461828 410.133657 L 498.463665 412.781491 L 495.465504 415.429325 L 492.467342 418.077158 L 489.469179 420.724991 L 486.502946 423.408544 L 483.536771 426.092164 L 480.570599 428.775783 L 477.604425 431.459404 L 474.638253 434.143025 L 471.672079 436.826644 L 468.672832 439.472956 L 465.653001 442.096049 L 462.633171 444.719144 L 459.613339 447.342238 L 456.535779 449.895930 L 453.406604 452.387566 L 450.277427 454.879205 L 447.148252 457.370842 L 444.019075 459.862480 L 440.889900 462.354118 L 437.760724 464.845754 L 434.631549 467.337393 L 431.539283 469.874581 L 428.453115 472.419296 L 425.366948 474.964010 L 422.280780 477.508724 L 419.194613 480.053439 L 416.108446 482.598153 L 413.022279 485.142867 L 409.858894 487.590862 L 406.693905 490.036847 L 403.528916 492.482833 L 400.363926 494.928819 L 397.149749 497.307633 L 393.862407 499.586530 L 390.575063 501.865428 L 387.287720 504.144325 L 383.986324 506.402332 L 380.636437 508.588256 L 377.286553 510.774180 L 373.936667 512.960106 L 370.586782 515.146031 L 367.236896 517.331956 L 363.887011 519.517880 L 360.537125 521.703805 L 357.234553 523.959640 L 353.960036 526.256929 L 350.685519 528.554218 L 347.411001 530.851507 L 344.136483 533.148796 L 343.195713 533.808808" fill="none" id="5" stroke="black" stroke-width="0.515255" /><path d="M 436.172093 154.722198 L 432.616806 156.555213 L 429.061521 158.388227 L 425.506236 160.221243 L 421.950950 162.054257 L 418.395664 163.887272 L 414.840377 165.720287 L 411.285093 167.553302 L 407.729806 169.386317 L 404.227397 171.317390 L 400.742395 173.280746 L 397.257395 175.244101 L 393.772394 177.207457 L 390.287392 179.170812 L 386.802391 181.134168 L 383.317388 183.097523 L 379.832388 185.060879 L 376.347386 187.024234 L 372.862385 188.987590 L 369.377384 190.950946 L 365.892381 192.914301 L 362.407380 194.877657 L 358.922379 196.841012 L 355.437378 198.804368 L 351.952376 200.767723 L 348.467375 202.731079 L 344.976348 204.683600 L 341.470026 206.608621 L 337.963705 208.533645 L 334.457383 210.458667 L 330.951063 212.383689 L 327.444741 214.308712 L 323.938420 216.233733 L 320.432098 218.158756 L 316.925777 220.083779 L 313.426513 222.021330 L 309.962896 224.022171 L 306.499281 226.023013 L 303.035665 228.023854 L 299.572049 230.024696 L 296.108434 232.025537 L 292.644818 234.026379 L 289.181204 236.027220 L 285.717588 238.028062 L 282.253972 240.028903 L 278.777596 242.007225 L 275.281246 243.950299 L 271.784896 245.893374 L 268.288546 247.836449 L 264.774765 249.747271 L 261.233738 251.607681 L 257.692711 253.468091 L 254.151684 255.328502 L 250.610657 257.188912 L 247.069629 259.049322 L 243.528602 260.909732 L 239.987575 262.770143 L 236.446548 264.630553 L 232.905521 266.490963 L 229.365787 268.353799 L 225.848446 270.258611 L 222.331104 272.163422 L 218.813761 274.068234 L 215.296421 275.973046 L 211.779079 277.877858 L 208.261738 279.782669 L 204.744396 281.687480 L 201.227054 283.592292 L 197.709713 285.497105 L 194.192371 287.401917 L 190.675029 289.306729 L 187.157688 291.211540 L 183.619548 293.076602 L 180.049277 294.880256 L 176.479007 296.683911 L 172.908736 298.487565 L 169.338465 300.291219 L 165.768195 302.094873 L 162.197429 303.897522 L 158.593722 305.633408 L 154.990015 307.369294 L 151.386310 309.105180 L 147.782603 310.841066 L 144.150080 312.515545 L 140.511951 314.178078 L 136.873822 315.840611 L 133.235692 317.503144 L 129.597563 319.165678 L 125.959434 320.828211 L 122.321304 322.490744 L 118.683176 324.153277 L 115.045046 325.815810 L 111.406916 327.478342 L 107.768788 329.140875 L 104.130658 330.803408 L 100.492530 332.465941 L 96.854400 334.128475 L 93.225234 335.810349 L 89.605002 337.511501 L 85.984770 339.212653 L 82.364538 340.913807 L 78.744306 342.614959 L 75.124074 344.316112 L 71.503843 346.017265 L 67.883611 347.718416 L 64.263379 349.419570 L 60.643147 351.120722 L 57.022914 352.821875 L 53.402682 354.523028 L 49.782450 356.224180 L 46.162219 357.925334 L 42.553441 359.650258 L 38.967184 361.421912 L 35.380927 363.193567 L 31.794671 364.965221 L 28.208414 366.736875 L 24.683396 368.627129 L 21.162484 370.525331 L 17.641571 372.423535 L 14.120658 374.321738 L 10.599745 376.219941 L 7.078832 378.118143 L 3.557919 380.016345 L 3.227212 380.194637" fill="none" id="6" stroke="black" stroke-width="0.515255" /><path d="M 451.353193 145.769438 L 447.663405 147.313933 L 443.973616 148.858428 L 440.283829 150.402923 L 436.594041 151.947418 L 432.904252 153.491912 L 429.214465 155.036406 L 425.524676 156.580902 L 421.834889 158.125397 L 418.130686 159.634908 L 414.423901 161.138154 L 410.717116 162.641400 L 407.010332 164.144644 L 403.303547 165.647891 L 399.596763 167.151137 L 395.889977 168.654381 L 392.183193 170.157628 L 388.476408 171.660874 L 384.769624 173.164119 L 381.062838 174.667365 L 377.356055 176.170611 L 373.649270 177.673856 L 369.942485 179.177102 L 366.261739 180.742274 L 362.594505 182.339583 L 358.927271 183.936892 L 355.260038 185.534202 L 351.592804 187.131511 L 347.925569 188.728820 L 344.258336 190.326130 L 340.591103 191.923439 L 336.923869 193.520747 L 333.256636 195.118058 L 329.589402 196.715367 L 325.922168 198.312676 L 322.254933 199.909986 L 318.587701 201.507295 L 314.920467 203.104604 L 311.253233 204.701913 L 307.586000 206.299223 L 303.918766 207.896532 L 300.251531 209.493841 L 296.584298 211.091151 L 292.917065 212.688460 L 289.249831 214.285769 L 285.582598 215.883079 L 281.915364 217.480388 L 278.248130 219.077697 L 274.580895 220.675007 L 270.913662 222.272316 L 267.246429 223.869625 L 263.579195 225.466934 L 259.921762 227.086420 L 256.271749 228.722700 L 252.621737 230.358979 L 248.971725 231.995259 L 245.321713 233.631538 L 241.671700 235.267817 L 238.021688 236.904097 L 234.371676 238.540376 L 230.721663 240.176655 L 227.071651 241.812935 L 223.421639 243.449214 L 219.771625 245.085494 L 216.116072 246.709276 L 212.453110 248.316359 L 208.790149 249.923441 L 205.127188 251.530524 L 201.464226 253.137606 L 197.801265 254.744689 L 194.138304 256.351771 L 190.475343 257.958854 L 186.812381 259.565937 L 183.149420 261.173019 L 179.486459 262.780102 L 175.823497 264.387184 L 172.160536 265.994267 L 168.497575 267.601350 L 164.840418 269.221118 L 161.229523 270.942002 L 157.618628 272.662886 L 154.007734 274.383769 L 150.396839 276.104652 L 146.785944 277.825536 L 143.175050 279.546420 L 139.564155 281.267304 L 135.953260 282.988187 L 132.342367 284.709070 L 128.731472 286.429955 L 125.120576 288.150838 L 121.476478 289.800119 L 117.830181 291.444663 L 114.183886 293.089207 L 110.537589 294.733752 L 106.891294 296.378297 L 103.244997 298.022841 L 99.598702 299.667385 L 95.952405 301.311929 L 92.306110 302.956473 L 88.659813 304.601018 L 84.975831 306.158364 L 81.279550 307.687252 L 77.583268 309.216141 L 73.886986 310.745030 L 70.190704 312.273920 L 66.480824 313.768768 L 62.748490 315.207408 L 59.016157 316.646049 L 55.283823 318.084689 L 51.551490 319.523329 L 47.838882 321.011306 L 44.143533 322.542448 L 40.448184 324.073589 L 36.752834 325.604730 L 33.057485 327.135871 L 29.362136 328.667012 L 25.673093 330.212664 L 22.032374 331.869517 L 18.391654 333.526370 L 14.750934 335.183223 L 11.110216 336.840078 L 7.523769 338.610103 L 3.952517 340.411814 L 0.381267 342.213527 L 0.257628 341.545941 L 1.337442 340.651328" fill="none" id="7" stroke="black" stroke-width="0.515255" /><path d="M 384.959493 155.572588 L 388.727096 156.916152 L 392.494700 158.259715 L 396.262303 159.603280 L 400.029907 160.946843 L 403.797509 162.290407 L 407.565113 163.633971 L 411.332717 164.977535 L 415.094058 166.337907 L 418.822168 167.787456 L 422.550278 169.237005 L 426.278389 170.686553 L 430.006500 172.136102 L 433.734611 173.585651 L 437.462720 175.035199 L 441.167376 176.543218 L 444.863700 178.072003 L 448.560025 179.600788 L 452.256350 181.129573 L 455.952675 182.658358 L 459.649000 184.187143 L 463.344489 185.717901 L 467.014679 187.308405 L 470.684869 188.898909 L 474.355060 190.489413 L 478.025251 192.079917 L 481.695441 193.670421 L 485.365631 195.260925 L 489.035821 196.851429 L 492.706011 198.441933 L 496.376202 200.032437 L 500.046393 201.622940 L 503.716583 203.213445 L 507.390534 204.795027 L 511.091876 206.311622 L 514.793218 207.828219 L 518.494562 209.344814 L 522.195903 210.861410 L 525.897247 212.378006 L 529.598590 213.894602 L 533.299931 215.411197 L 537.001275 216.927793 L 540.695064 218.462238 L 544.360677 220.063263 L 548.026289 221.664288 L 551.691902 223.265313 L 555.357515 224.866338 L 559.023128 226.467363 L 562.688741 228.068388 L 566.354354 229.669413 L 570.019968 231.270438 L 573.685581 232.871463 L 577.351194 234.472487 L 581.016807 236.073513 L 584.682420 237.674538 L 588.348033 239.275564 L 592.013646 240.876589 L 595.679259 242.477614 L 599.344872 244.078639 L 603.010484 245.679664 L 606.676097 247.280689 L 610.339876 248.885863 L 613.990103 250.521663 L 617.640329 252.157464 L 621.290555 253.793264 L 624.940783 255.429065 L 628.591010 257.064864 L 632.241237 258.700666 L 635.891463 260.336467 L 639.541690 261.972266 L 643.191918 263.608068 L 646.842145 265.243868 L 650.492371 266.879669 L 654.142598 268.515468 L 657.792826 270.151270 L 661.438288 271.797522 L 665.067567 273.479287 L 668.696846 275.161051 L 672.326125 276.842817 L 675.955404 278.524582 L 679.584683 280.206346 L 683.213963 281.888112 L 686.843242 283.569877 L 690.472521 285.251642 L 694.101800 286.933406 L 697.741286 288.592266 L 701.418573 290.166291 L 705.095862 291.740317 L 708.773149 293.314343 L 712.477668 294.822635 L 716.190744 296.310274 L 719.903820 297.797912 L 723.616895 299.285551 L 727.329971 300.773190 L 731.043047 302.260829 L 734.756123 303.748467 L 736.361072 304.391488" fill="none" id="8" stroke="black" stroke-width="0.515255" /><path d="M 396.046103 153.706448 L 399.828312 155.008330 L 403.610520 156.310212 L 407.392729 157.612094 L 411.174937 158.913976 L 414.957147 160.215857 L 418.739355 161.517740 L 422.521564 162.819622 L 426.303773 164.121504 L 430.085982 165.423386 L 433.868191 166.725268 L 437.650398 168.027150 L 441.432608 169.329032 L 445.214817 170.630914 L 448.997026 171.932796 L 452.779235 173.234678 L 456.561442 174.536560 L 460.326077 175.887918 L 464.082054 177.263653 L 467.838029 178.639388 L 471.594005 180.015123 L 475.349980 181.390859 L 479.105955 182.766593 L 482.861932 184.142329 L 486.617907 185.518064 L 490.373883 186.893799 L 494.129858 188.269535 L 497.885833 189.645270 L 501.641809 191.021005 L 505.397785 192.396740 L 509.153761 193.772476 L 512.909736 195.148211 L 516.665712 196.523946 L 520.421686 197.899681 L 524.177662 199.275416 L 527.933639 200.651152 L 531.689614 202.026887 L 535.441800 203.412612 L 539.165347 204.873844 L 542.888893 206.335076 L 546.612441 207.796308 L 550.335987 209.257540 L 554.059535 210.718772 L 557.783081 212.180004 L 561.506629 213.641236 L 565.230174 215.102468 L 568.953722 216.563700 L 572.677268 218.024932 L 576.400816 219.486164 L 580.124362 220.947395 L 583.834381 222.441932 L 587.522154 223.991233 L 591.209926 225.540534 L 594.897699 227.089835 L 598.584252 228.641974 L 602.246637 230.250370 L 605.909021 231.858765 L 609.571406 233.467161 L 613.233792 235.075556 L 616.896177 236.683952 L 620.558561 238.292347 L 624.220946 239.900743 L 627.883332 241.509138 L 631.545717 243.117533 L 635.210488 244.720239 L 638.924329 246.205965 L 642.638171 247.691691 L 646.352013 249.177417 L 650.065855 250.663143 L 653.779696 252.148869 L 657.493538 253.634594 L 661.207379 255.120320 L 664.921221 256.606045 L 668.635062 258.091771 L 672.348904 259.577497 L 676.062745 261.063223 L 679.776587 262.548949 L 683.490428 264.034675 L 687.204270 265.520401 L 690.918111 267.006126 L 694.631953 268.491852 L 698.309987 270.060483 L 701.937689 271.745648 L 705.565391 273.430812 L 709.193092 275.115976 L 710.786263 275.856047" fill="none" id="9" stroke="black" stroke-width="0.515255" /><path d="M 415.227213 158.667078 L 418.929720 160.180829 L 422.632227 161.694580 L 426.385996 163.072071 L 430.168146 164.374122 L 433.950297 165.676175 L 437.732447 166.978228 L 441.514597 168.280280 L 445.295288 169.586441 L 449.051308 170.962052 L 452.807329 172.337665 L 456.563350 173.713277 L 460.313368 175.104338 L 464.012924 176.625286 L 467.712481 178.146234 L 471.412036 179.667182 L 475.111594 181.188130 L 478.811149 182.709078 L 482.510706 184.230026 L 486.210262 185.750974 L 489.909819 187.271922 L 493.609375 188.792870 L 497.308932 190.313817 L 501.008488 191.834766 L 504.708044 193.355714 L 508.407601 194.876662 L 512.107156 196.397610 L 515.806713 197.918558 L 519.506270 199.439506 L 523.205826 200.960453 L 526.905381 202.481402 L 530.604939 204.002350 L 534.304495 205.523298 L 538.004051 207.044246 L 541.703607 208.565194 L 545.403164 210.086142 L 549.102721 211.607090 L 552.802277 213.128038 L 556.501832 214.648987 L 560.201390 216.169935 L 563.874290 217.753969 L 567.543562 219.346589 L 571.212834 220.939209 L 574.882107 222.531829 L 578.551380 224.124448 L 582.220653 225.717069 L 585.889925 227.309689 L 589.559197 228.902309 L 593.193891 230.571848 L 596.820550 232.259252 L 600.447210 233.946657 L 604.073871 235.634062 L 607.700532 237.321466 L 611.327192 239.008871 L 614.953853 240.696276 L 618.580513 242.383681 L 622.207172 244.071085 L 625.833833 245.758490 L 629.478619 247.405777 L 633.141953 249.012008 L 636.805288 250.618239 L 640.468624 252.224470 L 644.131958 253.830701 L 647.795293 255.436932 L 651.458628 257.043162 L 655.145999 258.593094 L 658.839835 260.127883 L 662.533669 261.662672 L 666.227506 263.197463 L 669.891520 264.800572 L 673.528525 266.465566 L 674.282322 266.643448" fill="none" id="10" stroke="black" stroke-width="0.515255" /><path d="M 229.746893 234.092268 L 233.357653 235.813433 L 236.968412 237.534599 L 240.579174 239.255764 L 244.189934 240.976929 L 247.800694 242.698095 L 251.410921 244.420352 L 254.988630 246.209206 L 258.566340 247.998059 L 262.144048 249.786912 L 265.699570 251.617530 L 269.184629 253.580785 L 272.669687 255.544041 L 276.154743 257.507295 L 279.639802 259.470551 L 283.124860 261.433807 L 286.609917 263.397063 L 290.094976 265.360318 L 293.580033 267.323574 L 297.065090 269.286830 L 300.550149 271.250085 L 304.035207 273.213341 L 307.520263 275.176596 L 311.005322 277.139852 L 314.490380 279.103107 L 317.975437 281.066363 L 321.460771 283.029119 L 324.979460 284.931441 L 328.498149 286.833763 L 332.016838 288.736085 L 335.535527 290.638407 L 339.054215 292.540728 L 342.572903 294.443050 L 346.091592 296.345371 L 349.610281 298.247694 L 353.128971 300.150015 L 356.665235 302.018350 L 360.251401 303.790188 L 363.837569 305.562026 L 367.423736 307.333864 L 371.009902 309.105702 L 374.596069 310.877540 L 378.182234 312.649378 L 381.768402 314.421216 L 385.354568 316.193054 L 388.940735 317.964892 L 392.526901 319.736729 L 396.113067 321.508567 L 399.699233 323.280405 L 403.270744 325.080894 L 406.806106 326.952049 L 410.341467 328.823205 L 413.876827 330.694360 L 417.412189 332.565515 L 420.947550 334.436669 L 424.482912 336.307825 L 428.018273 338.178980 L 431.553633 340.050135 L 435.088995 341.921290 L 438.624357 343.792444 L 442.159717 345.663600 L 445.695079 347.534755 L 449.230439 349.405910 L 452.765801 351.277064 L 456.301163 353.148220 L 459.836523 355.019375 L 463.371885 356.890530 L 466.907245 358.761685 L 470.442608 360.632839 L 473.977969 362.503995 L 477.513329 364.375150 L 481.044331 366.254480 L 484.567994 368.147572 L 488.091658 370.040662 L 491.615321 371.933755 L 495.138985 373.826845 L 498.662648 375.719938 L 502.186311 377.613030 L 505.709975 379.506121 L 509.233639 381.399213 L 512.757303 383.292305 L 516.280965 385.185396 L 519.808638 387.070900 L 523.358175 388.915025 L 526.907711 390.759149 L 530.457246 392.603272 L 534.006782 394.447396 L 537.556319 396.291519 L 541.105855 398.135643 L 544.655392 399.979767 L 548.204928 401.823891 L 548.676033 402.068647" fill="none" id="11" stroke="black" stroke-width="0.515255" /><path d="M 228.707523 225.895418 L 232.186464 227.869492 L 235.753525 229.673357 L 239.389578 231.339057 L 243.073421 232.897677 L 246.757265 234.456296 L 250.441109 236.014916 L 254.124952 237.573536 L 257.808796 239.132156 L 261.492639 240.690776 L 265.176483 242.249396 L 268.860326 243.808016 L 272.497699 245.470661 L 276.116692 247.174449 L 279.735683 248.878237 L 283.354677 250.582024 L 286.973670 252.285812 L 290.592662 253.989598 L 294.211655 255.693387 L 297.833274 257.391500 L 301.474356 259.047551 L 305.115441 260.703605 L 308.756525 262.359657 L 312.397607 264.015710 L 316.038692 265.671762 L 319.656876 267.376316 L 323.249269 269.135494 L 326.841661 270.894675 L 330.434055 272.653854 L 334.010392 274.444975 L 337.565314 276.278695 L 341.120236 278.112414 L 344.675158 279.946134 L 348.230079 281.779854 L 351.785003 283.613574 L 355.339924 285.447294 L 358.894847 287.281013 L 362.449769 289.114733 L 366.004691 290.948453 L 369.562337 292.776752 L 373.155419 294.534523 L 376.748503 296.292292 L 380.341586 298.050062 L 383.934668 299.807832 L 387.527752 301.565601 L 391.120835 303.323371 L 394.713918 305.081140 L 398.307001 306.838909 L 401.900083 308.596679 L 405.493168 310.354448 L 409.086251 312.112219 L 412.679333 313.869988 L 416.272417 315.627758 L 419.865499 317.385527 L 423.458583 319.143297 L 427.051666 320.901067 L 430.644748 322.658836 L 434.237832 324.416606 L 437.830915 326.174374 L 441.423997 327.932144 L 445.017082 329.689913 L 448.610164 331.447684 L 452.203248 333.205454 L 455.796331 334.963223 L 459.389413 336.720993 L 462.967985 338.507985 L 466.539905 340.308370 L 470.111826 342.108754 L 473.683745 343.909139 L 477.255667 345.709522 L 480.827586 347.509907 L 484.399508 349.310292 L 487.971428 351.110676 L 491.543349 352.911061 L 495.115269 354.711445 L 498.687189 356.511830 L 502.259110 358.312213 L 505.831030 360.112598 L 509.402951 361.912982 L 512.974872 363.713367 L 516.546792 365.513752 L 520.118712 367.314136 L 523.690632 369.114521 L 527.296477 370.845110 L 530.918937 372.541511 L 534.541399 374.237912 L 538.170701 375.916907 L 541.967363 376.891018 L 541.967363 376.580458" fill="none" id="12" stroke="black" stroke-width="0.515255" /><path d="M 241.715403 222.966288 L 245.242509 224.852957 L 248.769616 226.739626 L 252.296722 228.626295 L 255.823829 230.512964 L 259.350934 232.399633 L 262.878040 234.286303 L 266.405147 236.172972 L 269.990724 237.945492 L 273.582735 239.705452 L 277.174746 241.465412 L 280.766755 243.225373 L 284.358767 244.985332 L 281.612996 243.744743 L 277.975066 242.081774 L 275.782162 241.129570 L 279.319949 242.996136 L 282.857735 244.862700 L 286.395524 246.729264 L 289.933311 248.595829 L 293.493327 250.419525 L 297.057330 252.235532 L 300.621332 254.051540 L 304.200226 255.837496 L 307.803952 257.573343 L 311.407678 259.309189 L 315.011404 261.045034 L 318.615129 262.780881 L 322.218855 264.516727 L 325.822581 266.252572 L 329.426306 267.988419 L 333.012465 269.759077 L 336.549723 271.626644 L 340.086979 273.494213 L 343.624237 275.361781 L 347.161495 277.229348 L 350.698753 279.096916 L 354.236010 280.964483 L 357.773268 282.832051 L 361.310526 284.699618 L 364.854199 286.554841 L 368.415123 288.376879 L 371.976047 290.198916 L 375.536970 292.020955 L 379.097894 293.842993 L 382.658818 295.665031 L 386.219741 297.487069 L 389.780665 299.309106 L 393.341589 301.131145 L 396.902513 302.953183 L 400.448107 304.804685 L 403.984005 306.674826 L 407.519902 308.544969 L 411.055800 310.415111 L 414.591697 312.285253 L 418.107675 314.192576 L 421.623441 316.100293 L 425.139207 318.008010 L 428.654975 319.915727 L 432.170742 321.823444 L 435.686508 323.731161 L 439.190710 325.659719 L 442.669808 327.633514 L 446.148909 329.607309 L 449.628009 331.581104 L 453.107109 333.554899 L 456.586208 335.528693 L 460.065308 337.502488 L 463.544408 339.476282 L 467.023507 341.450077 L 470.502607 343.423871 L 473.981707 345.397666 L 477.460806 347.371461 L 480.939907 349.345255 L 484.419006 351.319050 L 487.898105 353.292844 L 491.377206 355.266638 L 494.860916 357.232153 L 498.371402 359.149565 L 501.881890 361.066980 L 505.392379 362.984394 L 508.902867 364.901808 L 512.413354 366.819221 L 515.923841 368.736635 L 519.401811 370.711496 L 522.852463 372.734611 L 526.303116 374.757724 L 529.753769 376.780840 L 533.204423 378.803954 L 536.655077 380.827068 L 540.105730 382.850183 L 543.556383 384.873298 L 547.078463 386.768324 L 550.667315 388.521747 L 552.172092 389.100147" fill="none" id="13" stroke="black" stroke-width="0.515255" /><path d="M 199.290203 120.234008 L 198.998744 124.223374 L 198.916066 128.220216 L 198.921489 132.220213 L 198.926912 136.220210 L 198.932333 140.220206 L 198.937757 144.220202 L 198.943179 148.220199 L 198.948602 152.220195 L 198.954025 156.220191 L 198.959447 160.220188 L 198.964870 164.220184 L 198.970292 168.220181 L 198.988684 172.219918 L 199.143015 176.216940 L 199.297346 180.213961 L 199.451677 184.210983 L 199.606008 188.208005 L 199.760339 192.205026 L 199.914670 196.202048 L 200.069001 200.199069 L 200.223332 204.196091 L 200.377663 208.193113 L 200.498379 212.191147 L 200.584847 216.190212 L 200.671312 220.189277 L 200.757779 224.188343 L 200.844245 228.187408 L 200.930712 232.186473 L 201.017178 236.185539 L 201.103645 240.184604 L 201.190111 244.183669 L 201.276577 248.182735 L 201.363043 252.181800 L 201.449510 256.180864 L 201.535976 260.179931 L 201.622442 264.178995 L 201.708909 268.178061 L 201.795375 272.177126 L 201.881841 276.176192 L 201.968308 280.175256 L 202.054774 284.174323 L 202.254506 288.169190 L 202.464337 292.163681 L 202.674168 296.158175 L 202.883999 300.152667 L 203.093829 304.147159 L 203.366580 308.137737 L 203.653646 312.127422 L 203.940712 316.117108 L 204.227778 320.106794 L 204.514844 324.096479 L 204.801910 328.086165 L 205.088976 332.075851 L 205.376042 336.065538 L 205.663108 340.055223 L 205.835479 344.051378 L 205.998893 348.048039 L 206.162306 352.044700 L 206.325721 356.041360 L 206.489134 360.038021 L 206.652548 364.034682 L 206.815962 368.031341 L 206.976981 372.028072 L 207.045714 376.027482 L 207.114446 380.026891 L 207.183179 384.026300 L 207.251912 388.025710 L 207.320644 392.025120 L 207.477276 396.021181 L 207.712975 400.014230 L 208.063243 403.993980 L 208.748608 407.934826 L 210.621267 411.054032 L 212.487053 408.422978" fill="none" id="14" stroke="black" stroke-width="0.515255" /><path d="M 536.990993 11.100148 L 536.594273 15.058215 L 535.772545 18.972288 L 535.272353 22.940891 L 535.058453 26.933298 L 534.896357 30.930012 L 534.734261 34.926727 L 534.572163 38.923440 L 534.431653 42.920713 L 534.387181 46.920465 L 534.342712 50.920217 L 534.298242 54.919970 L 534.253770 58.919723 L 534.209301 62.919476 L 534.164830 66.919229 L 534.120360 70.918982 L 534.075890 74.918734 L 534.031419 78.918487 L 534.028612 82.918481 L 534.026817 86.918481 L 534.025024 90.918481 L 534.023231 94.918480 L 534.021438 98.918480 L 534.019644 102.918478 L 534.017851 106.918478 L 534.016056 110.918478 L 534.014263 114.918477 L 534.012470 118.918477 L 534.010676 122.918476 L 534.008883 126.918476 L 534.007089 130.918477 L 534.005295 134.918475 L 534.003501 138.918475 L 534.001709 142.918475 L 533.999915 146.918475 L 533.972022 150.918257 L 533.907075 154.917730 L 533.842127 158.917202 L 533.777178 162.916674 L 533.712231 166.916148 L 533.647282 170.915620 L 533.582335 174.915093 L 533.517387 178.914566 L 533.452437 182.914038 L 533.527035 186.903507 L 534.161808 190.852819 L 534.786263 194.672921 L 535.704715 197.616106 L 535.208988 201.516291 L 534.511532 202.359406 L 534.282322 201.304868" fill="none" id="15" stroke="black" stroke-width="0.515255" /><path d="M 52.802012 309.210377 L 56.054775 311.538367 L 59.307536 313.866357 L 62.560299 316.194347 L 65.813062 318.522337 L 69.029197 320.899168 L 72.175033 323.369737 L 75.320867 325.840308 L 78.466702 328.310879 L 81.612538 330.781451 L 84.758374 333.252022 L 87.904208 335.722593 L 91.088634 338.142518 L 94.305354 340.520060 L 97.522075 342.897604 L 100.738795 345.275147 L 103.955517 347.652689 L 107.172236 350.030232 L 110.388958 352.407774 L 113.605678 354.785317 L 116.822398 357.162860 L 120.039119 359.540402 L 123.239690 361.939432 L 126.417974 364.368119 L 129.596257 366.796805 L 132.774540 369.225492 L 135.866382 371.762010 L 138.928421 374.335707 L 141.990460 376.909403 L 145.040447 379.497038 L 148.029044 382.155663 L 151.017640 384.814289 L 154.006236 387.472915 L 154.534293 387.942668" fill="none" id="16" stroke="black" stroke-width="0.515255" /><path d="M 64.865003 318.588338 L 68.017162 321.050835 L 71.169321 323.513331 L 74.321480 325.975828 L 77.473641 328.438325 L 80.625799 330.900822 L 83.777959 333.363318 L 86.930118 335.825816 L 90.115487 338.243825 L 93.372659 340.565641 L 96.629831 342.887455 L 99.887003 345.209271 L 103.144176 347.531088 L 106.401348 349.852904 L 109.726912 352.075086 L 113.064280 354.280076 L 116.401648 356.485065 L 119.739016 358.690054 L 123.076385 360.895042 L 126.413752 363.100032 L 129.751120 365.305020 L 133.088488 367.510009 L 136.425856 369.714998 L 139.757750 371.928065 L 143.042475 374.210734 L 146.327200 376.493403 L 149.611925 378.776073 L 152.896650 381.058743 L 156.181375 383.341412 L 159.466100 385.624082 L 162.750825 387.906753 L 166.035550 390.189422 L 169.320276 392.472092 L 172.605001 394.754762 L 175.960701 396.930724 L 179.335658 399.077739 L 182.710614 401.224754 L 186.085570 403.371768 L 189.460526 405.518782 L 192.835482 407.665797 L 196.210438 409.812812 L 199.585394 411.959827 L 202.960350 414.106841 L 206.335307 416.253855 L 209.710262 418.400869 L 213.077365 420.560061 L 216.425165 422.749178 L 219.772966 424.938293 L 223.120767 427.127410 L 226.468567 429.316527 L 229.816368 431.505644 L 233.164169 433.694760 L 235.951623 435.517468" fill="none" id="17" stroke="black" stroke-width="0.515255" /><path d="M 541.116972 0.257628 L 537.399033 1.733070 L 533.681094 3.208511 L 529.963155 4.683954 L 526.230204 6.120406 L 522.482817 7.519367 L 518.735430 8.918326 L 514.988043 10.317286 L 511.240655 11.716245 L 507.493268 13.115206 L 503.745880 14.514166 L 499.998493 15.913125 L 496.251105 17.312086 L 492.503718 18.711046 L 488.756331 20.110006 L 485.017916 21.532207 L 481.302457 23.013884 L 477.586997 24.495561 L 473.871540 25.977238 L 470.156081 27.458915 L 466.475052 29.023258 L 462.806291 30.617059 L 459.137532 32.210859 L 455.468772 33.804659 L 451.800012 35.398460 L 448.131252 36.992259 L 444.462491 38.586060 L 440.793732 40.179860 L 437.124972 41.773661 L 433.456211 43.367461 L 429.787452 44.961262 L 426.118692 46.555062 L 422.449931 48.148862 L 418.781172 49.742663 L 415.112412 51.336464 L 411.443651 52.930264 L 407.774892 54.524065 L 404.106132 56.117866 L 400.437372 57.711665 L 396.768612 59.305467 L 393.099851 60.899266 L 389.431092 62.493066 L 385.762332 64.086867 L 382.093571 65.680667 L 378.424811 67.274468 L 374.753112 68.861466 L 371.077638 70.439718 L 367.402162 72.017969 L 363.726686 73.596221 L 360.051210 75.174472 L 356.375735 76.752724 L 352.700259 78.330975 L 349.024783 79.909228 L 345.349307 81.487478 L 341.655023 83.020616 L 337.946942 84.520662 L 334.238861 86.020708 L 330.529761 87.518081 L 326.764836 88.869130 L 322.999910 90.220180 L 319.234983 91.571230 L 315.470058 92.922280 L 311.705132 94.273330 L 307.940207 95.624378 L 304.175282 96.975428 L 300.410356 98.326478 L 296.645431 99.677527 L 292.880505 101.028577 L 289.115580 102.379627 L 285.350654 103.730677 L 281.562509 105.014625 L 277.767775 106.279536 L 273.973042 107.544448 L 270.178309 108.809358 L 266.383575 110.074269 L 262.588842 111.339180 L 258.794108 112.604090 L 254.999376 113.869001 L 251.204642 115.133912 L 247.409909 116.398823 L 243.615176 117.663733 L 239.820443 118.928645 L 236.025709 120.193556 L 232.230975 121.458467 L 228.483613 122.856562 L 224.742413 124.271985 L 221.001212 125.687406 L 217.265753 127.117132 L 213.584063 128.680834 L 209.902373 130.244535 L 206.220684 131.808236 L 202.538994 133.371937 L 198.857305 134.935639 L 195.175615 136.499340 L 191.455470 137.968831 L 187.731184 139.428179 L 184.006899 140.887529 L 180.282614 142.346877 L 176.558328 143.806226 L 172.805429 145.189811 L 169.019533 146.460760 L 165.094628 147.232208 L 165.085473 147.234008" fill="none" id="18" stroke="black" stroke-width="0.515255" /><path d="M 188.266582 127.391487 L 192.220373 126.785236 L 196.166368 126.135792 L 200.082612 125.321528 L 203.984044 124.440888 L 207.874883 123.512789 L 211.765723 122.584689 L 215.656562 121.656590 L 219.547402 120.728492 L 223.438241 119.800392 L 227.329081 118.872293 L 231.219920 117.944193 L 235.110760 117.016093 L 239.001599 116.087994 L 242.892439 115.159896 L 246.783278 114.231796 L 250.674117 113.303697 L 254.564957 112.375597 L 258.455796 111.447497 L 262.346635 110.519398 L 266.232227 109.570048 L 270.107840 108.580287 L 273.983452 107.590527 L 277.859065 106.600768 L 281.734679 105.611007 L 285.610292 104.621247 L 289.485904 103.631487 L 293.361516 102.641728 L 297.236003 101.647793 L 301.082805 100.551384 L 304.929607 99.454976 L 308.776409 98.358566 L 312.623212 97.262158 L 316.470013 96.165748 L 320.316816 95.069339 L 324.151074 93.931604 L 327.958323 92.704877 L 331.765572 91.478150 L 335.572820 90.251421 L 339.337778 88.901097 L 343.098492 87.538366 L 346.859205 86.175636 L 350.619917 84.812905 L 354.393269 83.486279 L 358.182932 82.206260 L 361.972596 80.926240 L 365.762260 79.646221 L 369.551923 78.366202 L 373.357746 77.135424 L 377.168981 75.921139 L 380.980215 74.706854 L 384.791450 73.492570 L 388.602686 72.278285 L 392.413922 71.064000 L 396.225157 69.849716 L 400.036392 68.635431 L 403.847626 67.421148 L 407.657751 66.203594 L 411.419277 64.843110 L 415.180804 63.482625 L 418.942331 62.122141 L 422.703857 60.761657 L 426.465384 59.401173 L 430.226911 58.040689 L 433.988437 56.680204 L 437.788358 55.433287 L 441.603768 54.232186 L 445.419178 53.031084 L 449.234589 51.829983 L 453.049999 50.628882 L 456.865409 49.427781 L 460.655588 48.152369 L 464.413490 46.781907 L 468.171393 45.411445 L 471.929296 44.040983 L 475.687199 42.670521 L 479.445101 41.300058 L 483.203004 39.929596 L 486.960907 38.559134 L 490.718810 37.188672 L 494.476713 35.818210 L 498.234615 34.447747 L 501.992518 33.077285 L 505.750421 31.706824 L 509.546155 30.445245 L 513.344209 29.190337 L 517.142262 27.935429 L 520.940314 26.680521 L 524.738366 25.425613 L 528.536419 24.170704 L 532.334473 22.915796 L 536.132526 21.660888 L 539.930579 20.405980 L 543.728632 19.151072 L 547.526684 17.896164 L 551.305068 16.585530 L 555.049331 15.178233 L 558.793596 13.770934 L 562.537860 12.363637 L 561.178741 12.656933 L 560.927992 12.730068" fill="none" id="19" stroke="black" stroke-width="0.515255" /><path d="M 380.392562 168.588338 L 382.749257 170.268990 L 386.421401 171.854982 L 390.093543 173.440975 L 393.765685 175.026967 L 397.437827 176.612959 L 401.109969 178.198951 L 404.782111 179.784944 L 408.454253 181.370936 L 412.126396 182.956928 L 415.798538 184.542920 L 419.470681 186.128913 L 423.142823 187.714905 L 426.829355 189.266212 L 430.545750 190.745536 L 434.262147 192.224860 L 437.978544 193.704183 L 441.694940 195.183507 L 445.411336 196.662831 L 449.127733 198.142155 L 452.844129 199.621479 L 456.560524 201.100802 L 460.276921 202.580126 L 463.993317 204.059449 L 467.709714 205.538773 L 471.426109 207.018097 L 475.142507 208.497421 L 478.858902 209.976745 L 482.575299 211.456068 L 486.291695 212.935392 L 490.008092 214.414715 L 493.724488 215.894040 L 497.440883 217.373363 L 501.157280 218.852687 L 504.856358 220.374421 L 508.545964 221.919352 L 512.235568 223.464284 L 515.925174 225.009215 L 519.614780 226.554146 L 523.304384 228.099077 L 526.993989 229.644009 L 530.683596 231.188940 L 534.372934 232.734489 L 538.027257 234.361119 L 541.681579 235.987750 L 545.335901 237.614380 L 548.990225 239.241010 L 552.644547 240.867641 L 556.298870 242.494270 L 559.953192 244.120902 L 563.607514 245.747532 L 567.261836 247.374163 L 570.916160 249.000793 L 574.570482 250.627424 L 578.224805 252.254054 L 581.879126 253.880685 L 585.533449 255.507315 L 589.187773 257.133946 L 592.842095 258.760576 L 596.496418 260.387206 L 600.136683 262.044952 L 603.772746 263.711999 L 607.408807 265.379047 L 611.044871 267.046095 L 614.680934 268.713142 L 618.302557 270.411192 L 621.918315 272.121833 L 625.534073 273.832472 L 629.149832 275.543114 L 632.765590 277.253754 L 636.381349 278.964395 L 639.997106 280.675036 L 643.612865 282.385675 L 647.228624 284.096317 L 650.844382 285.806958 L 654.460140 287.517598 L 658.075898 289.228239 L 661.691658 290.938878 L 665.307416 292.649519 L 668.923173 294.360161 L 672.538932 296.070801 L 676.046102 297.730068" fill="none" id="20" stroke="black" stroke-width="0.515255" /><path d="M 397.116973 166.367858 L 397.697740 168.363074 L 401.050666 170.544331 L 404.492778 172.574703 L 408.020392 174.460424 L 411.548005 176.346145 L 415.075619 178.231866 L 418.603232 180.117586 L 422.130846 182.003307 L 425.658459 183.889028 L 429.186074 185.774749 L 432.713686 187.660469 L 436.241301 189.546190 L 439.783366 191.404421 L 443.336593 193.241424 L 446.889820 195.078427 L 450.443047 196.915429 L 453.996274 198.752432 L 457.549501 200.589435 L 461.102728 202.426438 L 464.655955 204.263441 L 468.209181 206.100443 L 471.762407 207.937446 L 475.315634 209.774449 L 478.868862 211.611452 L 482.424985 213.442824 L 485.984825 215.266979 L 489.544666 217.091134 L 493.104506 218.915289 L 496.664346 220.739443 L 500.224185 222.563598 L 503.784024 224.387753 L 507.343864 226.211908 L 510.903705 228.036062 L 514.463545 229.860217 L 518.023384 231.684372 L 521.583224 233.508527 L 525.143064 235.332682 L 528.702904 237.156835 L 532.262744 238.980991 L 535.822583 240.805146 L 539.382422 242.629300 L 542.942262 244.453455 L 546.502102 246.277610 L 550.061942 248.101765 L 553.621781 249.925920 L 557.181622 251.750075 L 560.742068 253.572989 L 564.365611 255.267081 L 567.989152 256.961173 L 571.612693 258.655264 L 575.236235 260.349356 L 578.859777 262.043449 L 582.483317 263.737540 L 586.106860 265.431632 L 589.730400 267.125723 L 593.353943 268.819816 L 596.975169 270.518651 L 600.540459 272.332130 L 604.105750 274.145608 L 607.671041 275.959086 L 611.236332 277.772563 L 614.801623 279.586042 L 618.366913 281.399519 L 621.932204 283.212998 L 625.497494 285.026476 L 629.077779 286.809970 L 632.667569 288.574455 L 636.257359 290.338940 L 639.847149 292.103425 L 643.436938 293.867909 L 647.026728 295.632395 L 650.616518 297.396880 L 654.206308 299.161365 L 657.796098 300.925851 L 661.385888 302.690336 L 664.975678 304.454821 L 664.990993 304.462348" fill="none" id="21" stroke="black" stroke-width="0.515255" /><path d="M 496.676033 22.816678 L 496.341882 26.798020 L 496.283388 30.797592 L 496.224892 34.797165 L 496.173628 38.796775 L 496.189392 42.796744 L 496.205156 46.796712 L 496.220922 50.796681 L 496.236687 54.796650 L 496.252451 58.796619 L 496.268215 62.796588 L 496.283980 66.796557 L 496.299745 70.796526 L 496.315510 74.796495 L 496.331275 78.796464 L 496.347038 82.796433 L 496.362803 86.796402 L 496.378569 90.796371 L 496.394333 94.796340 L 496.410098 98.796309 L 496.425862 102.796278 L 496.441626 106.796247 L 496.457392 110.796216 L 496.473157 114.796184 L 496.488921 118.796154 L 496.504685 122.796122 L 496.520451 126.796092 L 496.536215 130.796061 L 496.551980 134.796030 L 496.567745 138.795999 L 496.557755 142.795404 L 496.367070 146.790857 L 496.176382 150.786309 L 495.985697 154.781761 L 495.795009 158.777214 L 495.604324 162.772666 L 495.326928 166.762854 L 495.032918 170.752035 L 494.738910 174.741215 L 494.444900 178.730395 L 494.150891 182.719575 L 493.856881 186.708755 L 494.166308 190.594049 L 495.164213 194.252395 L 494.912253 196.485968" fill="none" id="22" stroke="black" stroke-width="0.515255" /><path d="M 66.754773 305.359987 L 69.470990 308.234117 L 72.068094 311.271879 L 74.996760 313.996380 L 77.925427 316.720883 L 80.854094 319.445384 L 83.884446 322.054888 L 86.946968 324.628011 L 90.009490 327.201134 L 93.072012 329.774258 L 96.134532 332.347380 L 99.197053 334.920503 L 102.291330 337.454890 L 105.415263 339.953096 L 108.539198 342.451302 L 111.663131 344.949510 L 114.787065 347.447717 L 117.948408 349.897639 L 121.147741 352.298528 L 124.347076 354.699417 L 127.546408 357.100305 L 130.745742 359.501194 L 133.945075 361.902083 L 137.144407 364.302972 L 140.343742 366.703861 L 143.543075 369.104750 L 146.742408 371.505639 L 149.941741 373.906528 L 153.141074 376.307415 L 156.340408 378.708304 L 159.539741 381.109194 L 162.739074 383.510083 L 165.938407 385.910972 L 169.137740 388.311860 L 172.371585 390.665279 L 175.642117 392.968240 L 178.912648 395.271200 L 182.183180 397.574160 L 185.453710 399.877118 L 188.724243 402.180079 L 191.994774 404.483039 L 195.265306 406.785999 L 198.535837 409.088958 L 201.806369 411.391919 L 205.050719 413.730985 L 208.256098 416.123796 L 211.461477 418.516607 L 214.666856 420.909418 L 217.872235 423.302229 L 221.077614 425.695040 L 224.282993 428.087851 L 227.488373 430.480661 L 230.693752 432.873472 L 233.899131 435.266283 L 237.104510 437.659095 L 240.352034 439.994236 L 243.605403 442.321378 L 246.864676 444.640122 L 250.155456 446.914055 L 253.446235 449.187988 L 256.737014 451.461920 L 260.027794 453.735853 L 263.318574 456.009786 L 266.609352 458.283719 L 269.900133 460.557652 L 273.186247 462.838223 L 276.440508 465.164117 L 279.694770 467.490011 L 282.949030 469.815904 L 286.203292 472.141798 L 289.457554 474.467692 L 292.711815 476.793587 L 295.966075 479.119481 L 299.220338 481.445375 L 302.474599 483.771269 L 305.728860 486.097163 L 309.048509 488.328170 L 312.380650 490.541051 L 315.712789 492.753931 L 319.044931 494.966812 L 322.377071 497.179691 L 325.709211 499.392573 L 329.041352 501.605454 L 332.373492 503.818333 L 335.705633 506.031215 L 339.037773 508.244095 L 342.369912 510.456975 L 345.702054 512.669856 L 349.034194 514.882736 L 352.366334 517.095617 L 355.698475 519.308498 L 359.030615 521.521378 L 362.362755 523.734259 L 365.694896 525.947140 L 369.035797 528.146258 L 372.451099 530.228493 L 375.866403 532.310727 L 379.312761 534.338164 L 382.854038 536.198098 L 386.395315 538.058031 L 389.958750 539.871304 L 393.638256 541.440136 L 397.055522 541.611024 L 396.802012 540.470227" fill="none" id="23" stroke="black" stroke-width="0.515255" /><path d="M 375.447682 187.296998 L 375.454852 191.296992 L 375.462021 195.296985 L 375.469191 199.296979 L 375.476360 203.296972 L 375.555281 207.295776 L 375.680795 211.293806 L 375.806309 215.291836 L 375.931825 219.289866 L 376.057340 223.287897 L 376.182854 227.285927 L 376.308369 231.283957 L 376.433883 235.281987 L 376.550043 239.280165 L 376.550043 243.280165 L 376.550043 247.280165 L 376.550043 251.280165 L 376.550043 255.280165 L 376.550043 259.280165 L 376.550043 263.280165 L 376.550043 267.280165 L 377.022483 268.556838" fill="none" id="24" stroke="black" stroke-width="0.515255" /><path d="M 374.660282 191.572588 L 374.174386 191.877350 L 373.775234 195.853735 L 373.756289 199.853690 L 373.737343 203.853645 L 373.718398 207.853600 L 373.846131 211.851055 L 374.001408 215.848039 L 374.156683 219.845025 L 374.311960 223.842010 L 374.467238 227.838995 L 374.611555 231.836313 L 374.699365 235.835349 L 374.787173 239.834386 L 374.874982 243.833422 L 374.962792 247.832458 L 375.050601 251.831494 L 375.138410 255.830530 L 375.188873 259.830139 L 375.223796 263.829987 L 375.258721 267.829834 L 375.293644 271.829681 L 375.328568 275.829529 L 375.363491 279.829377 L 375.506287 283.824572 L 375.990523 287.784658 L 377.228792 285.804105 L 376.795903 281.853156 L 375.994945 277.934168 L 375.951622 277.722197" fill="none" id="25" stroke="black" stroke-width="0.515255" /><path d="M 373.589413 175.580458 L 373.713619 172.030410 L 373.456691 176.017222 L 373.440022 180.017187 L 373.463229 184.016931 L 373.524035 188.016469 L 373.584842 192.016008 L 373.645647 196.015545 L 373.706454 200.015083 L 373.798886 204.013767 L 373.954108 208.010754 L 374.109330 212.007741 L 374.387184 215.993453 L 374.963355 219.951740 L 375.983113 221.076528" fill="none" id="26" stroke="black" stroke-width="0.515255" /><path d="M 373.715403 180.588338 L 373.870195 176.591334 L 373.719459 177.188039 L 373.683902 177.564708" fill="none" id="27" stroke="black" stroke-width="0.515255" /><path d="M 428.739023 95.052898 L 425.802349 97.768768 L 422.865677 100.484639 L 419.929005 103.200509 L 416.992332 105.916381 L 414.159647 108.739019 L 411.367263 111.603036 L 408.574879 114.467051 L 405.782494 117.331069 L 402.990111 120.195086 L 400.197726 123.059102 L 397.341300 125.858538 L 394.454039 128.626880 L 391.566777 131.395223 L 388.679515 134.163565 L 385.792252 136.931907 L 382.904989 139.700249 L 380.017728 142.468591 L 377.130466 145.236933 L 374.231087 147.992208 L 371.253087 150.662699 L 368.275089 153.333190 L 365.258905 155.958005 L 362.102890 158.415559 L 360.172093 159.919048" fill="none" id="28" stroke="black" stroke-width="0.515255" /><path d="M 113.431933 175.509598 L 115.575834 177.873445 L 118.762748 180.290794 L 121.990637 182.650129 L 125.334375 184.845446 L 128.678115 187.040762 L 132.021853 189.236079 L 135.365591 191.431395 L 138.709329 193.626711 L 142.068087 195.798541 L 145.463726 197.912691 L 148.859366 200.026841 L 152.255006 202.140991 L 155.670590 204.222259 L 159.114610 206.256644 L 162.558631 208.291029 L 166.002652 210.325414 L 169.446672 212.359799 L 172.890693 214.394184 L 176.334714 216.428569 L 179.778734 218.462954 L 183.207237 220.523111 L 186.616528 222.615175 L 190.025820 224.707240 L 193.435111 226.799304 L 196.844402 228.891368 L 200.253692 230.983433 L 203.609362 233.160370 L 206.962754 235.340912 L 210.316146 237.521454 L 213.669538 239.701995 L 217.022930 241.882537 L 220.376322 244.063079 L 223.729714 246.243621 L 227.083106 248.424162 L 230.436498 250.604703 L 233.789890 252.785246 L 237.143282 254.965787 L 240.527836 257.097231 L 243.928420 259.203419 L 247.329003 261.309608 L 250.729588 263.415796 L 254.130171 265.521986 L 257.530755 267.628174 L 260.931339 269.734363 L 264.315725 271.865903 L 267.656165 274.066236 L 270.996605 276.266568 L 274.337045 278.466900 L 277.677484 280.667233 L 281.017924 282.867565 L 284.358364 285.067897 L 287.740441 287.203246 L 291.135417 289.318461 L 294.530393 291.433676 L 297.925368 293.548893 L 301.320345 295.664108 L 304.715321 297.779325 L 308.110297 299.894540 L 311.505272 302.009756 L 314.900249 304.124972 L 318.276310 306.269525 L 321.604238 308.488737 L 324.932165 310.707946 L 328.260094 312.927158 L 331.588022 315.146367 L 333.462429 314.600807 L 333.242953 314.312748" fill="none" id="29" stroke="black" stroke-width="0.515255" /><path d="M 112.235083 179.690697 L 115.492764 182.011798 L 118.762010 184.315221 L 122.193958 186.369906 L 125.625906 188.424591 L 129.057856 190.479275 L 132.489804 192.533961 L 135.921753 194.588646 L 139.353701 196.643330 L 142.759059 198.741577 L 146.155228 200.854876 L 149.551398 202.968175 L 152.947567 205.081474 L 156.343736 207.194774 L 159.754221 209.284319 L 163.209136 211.300146 L 166.664053 213.315974 L 170.118968 215.331801 L 173.573884 217.347628 L 177.028799 219.363456 L 180.483714 221.379283 L 183.938630 223.395110 L 187.393545 225.410938 L 190.848460 227.426765 L 194.303376 229.442592 L 197.758291 231.458420 L 201.213206 233.474247 L 204.668122 235.490075 L 208.123037 237.505902 L 211.577952 239.521729 L 215.032868 241.537557 L 218.493758 243.542848 L 221.997140 245.473215 L 225.500521 247.403582 L 229.003903 249.333949 L 232.507285 251.264316 L 236.010666 253.194682 L 239.514048 255.125050 L 243.017430 257.055417 L 246.590345 258.853431 L 250.167690 260.643013 L 253.745034 262.432596 L 257.322378 264.222180 L 260.899722 266.011763 L 264.477067 267.801346 L 268.054411 269.590929 L 271.631755 271.380512 L 275.182567 273.220093 L 278.669749 275.179573 L 282.156929 277.139052 L 285.644112 279.098534 L 289.131294 281.058014 L 292.618475 283.017494 L 296.105658 284.976973 L 299.592839 286.936455 L 303.080020 288.895935 L 306.567203 290.855414 L 310.054385 292.814895 L 313.541566 294.774376 L 317.028749 296.733856 L 320.515930 298.693335 L 324.003111 300.652816 L 327.445384 302.690076 L 330.885815 304.730527 L 334.326244 306.770980 L 337.766674 308.811432 L 341.207103 310.851883 L 341.899233 311.197354 L 341.179962 310.060778" fill="none" id="30" stroke="black" stroke-width="0.515255" /></svg>