<?xml version="1.0" encoding="utf-8" ?>
<svg baseProfile="full" height="533.79426" version="1.1" viewBox="0,0,652.79426,533.79426" width="652.79426" xmlns="http://www.w3.org/2000/svg" xmlns:ev="http://www.w3.org/2001/xml-events" xmlns:xlink="http://www.w3.org/1999/xlink"><defs><style type="text/css"><![CDATA[
	.background { fill: white; }
	.line { stroke: firebrick; stroke-width: .1mm; }
	.blacksquare { fill: indigo; }
	.whitesquare { fill: white; }
]]></style></defs><rect class="background" height="100%" width="100%" x="0" y="0" /><path d="M 0.397130 271.058550 L 3.490826 273.594106 L 6.588064 276.125076 L 9.823729 278.476770 L 13.059395 280.828465 L 16.313680 283.153365 L 19.646152 285.365746 L 22.978623 287.578128 L 26.311094 289.790510 L 29.643566 292.002892 L 32.976037 294.215274 L 36.308509 296.427656 L 39.640980 298.640038 L 42.973452 300.852420 L 46.305923 303.064802 L 49.593213 305.342692 L 52.845217 307.671741 L 56.097222 310.000789 L 59.349226 312.329838 L 62.601231 314.658886 L 65.853235 316.987935 L 69.105240 319.316983 L 72.357244 321.646031 L 75.609249 323.975080 L 78.861253 326.304128 L 82.113258 328.633177 L 85.365262 330.962225 L 88.617267 333.291274 L 91.869271 335.620322 L 95.142968 337.918275 L 98.451687 340.166024 L 101.760407 342.413773 L 105.069126 344.661522 L 108.377846 346.909271 L 111.686565 349.157020 L 114.995285 351.404769 L 118.304004 353.652518 L 121.612724 355.900267 L 124.921443 358.148016 L 128.230163 360.395765 L 131.538882 362.643514 L 134.847602 364.891263 L 138.156321 367.139012 L 141.465041 369.386761 L 144.773760 371.634510 L 148.122366 373.822296 L 151.474279 376.005111 L 154.826191 378.187926 L 158.178104 380.370742 L 161.530016 382.553557 L 164.881929 384.736372 L 168.233841 386.919187 L 171.600854 389.078505 L 174.979008 391.220484 L 178.357161 393.362464 L 181.735315 395.504443 L 185.113469 397.646423 L 188.491623 399.788403 L 191.869777 401.930382 L 195.247931 404.072362 L 198.626084 406.214342 L 202.004238 408.356321 L 205.382392 410.498301 L 208.760546 412.640280 L 212.138700 414.782260 L 215.516854 416.924240 L 218.895007 419.066219 L 222.273161 421.208199 L 225.651315 423.350178 L 229.066853 425.431844 L 232.488087 427.504321 L 235.909320 429.576799 L 239.330553 431.649276 L 242.751787 433.721753 L 246.173020 435.794231 L 249.594254 437.866708 L 253.015487 439.939185 L 256.437083 442.011054 L 259.889639 444.030919 L 263.342196 446.050784 L 266.794752 448.070648 L 270.247308 450.090513 L 273.725984 452.065047 L 277.204963 454.039054 L 280.683942 456.013062 L 284.162921 457.987070 L 287.641900 459.961078 L 291.120878 461.935085 L 294.599857 463.909093 L 298.078836 465.883101 L 301.557815 467.857108 L 305.068822 469.772964 L 308.596726 471.658141 L 312.124631 473.543318 L 315.652535 475.428495 L 319.180439 477.313671 L 322.708343 479.198848 L 326.253118 481.051205 L 329.839360 482.822890 L 333.425602 484.594575 L 337.011844 486.366260 L 340.614830 488.102295 L 344.268249 489.730954 L 347.921669 491.359612 L 351.575088 492.988270 L 355.304903 494.431341 L 359.046150 495.846638 L 362.787398 497.261935 L 366.528646 498.677232 L 370.274973 500.078059 L 374.079994 501.311677 L 377.885016 502.545295 L 381.099889 503.387798 L 378.759330 502.530990" fill="none" id="1" stroke="black" stroke-width="0.79426" /><path d="M 650.916810 253.412880 L 652.127101 253.782924 L 650.097910 253.294770" fill="none" id="3" stroke="black" stroke-width="0.79426" /><path d="M 514.034920 361.436500 L 517.341444 363.066000 L 515.735710 361.861700" fill="none" id="4" stroke="black" stroke-width="0.79426" /><path d="M 172.208150 114.184530 L 168.833796 112.036570 L 165.459441 109.888610 L 162.249104 107.507310 L 163.726860 107.663953 L 167.257848 109.543349 L 170.788835 111.422745 L 174.319822 113.302141 L 177.850809 115.181537 L 181.381796 117.060933 L 178.088169 115.030705 L 174.588946 113.092809 L 171.089723 111.154914 L 167.507616 109.375824 L 163.916867 107.613291 L 160.326118 105.850758 L 156.735369 104.088225 L 155.263270 103.365640" fill="none" id="8" stroke="black" stroke-width="0.79426" /><path d="M 166.129410 116.546740 L 169.726719 114.957189 L 173.294417 113.156185 L 176.968033 111.573608 L 180.641648 109.991031 L 184.416266 108.672923 L 188.209602 107.403829 L 192.002939 106.134736 L 195.818719 104.937640 L 199.661271 103.826428 L 203.503823 102.715216 L 207.368844 101.685523 L 211.238103 100.671209 L 215.107362 99.656894 L 218.976621 98.642580 L 222.845880 97.628265 L 226.732611 96.684632 L 230.628836 95.779407 L 234.525061 94.874182 L 238.421286 93.968958 L 242.317510 93.063733 L 246.213735 92.158508 L 250.109960 91.253283 L 254.006185 90.348058 L 257.902410 89.442833 L 261.798635 88.537608 L 265.694859 87.632383 L 269.591084 86.727158 L 273.487309 85.821933 L 277.383534 84.916709 L 281.279759 84.011484 L 285.175983 83.106259 L 289.072208 82.201034 L 292.968433 81.295809 L 296.864658 80.390584 L 300.760883 79.485359 L 304.657108 78.580134 L 308.530386 77.585793 L 312.379268 76.496708 L 316.228150 75.407623 L 320.077032 74.318537 L 323.902970 73.154612 L 327.700909 71.899359 L 331.498848 70.644107 L 335.296787 69.388855 L 339.069408 68.061354 L 342.820123 66.671341 L 346.570839 65.281328 L 350.321554 63.891316 L 354.072269 62.501303 L 357.822984 61.111290 L 361.571017 59.714253 L 365.293604 58.250578 L 369.016192 56.786903 L 372.738779 55.323228 L 376.438753 53.804816 L 380.082537 52.157854 L 383.656032 50.360596 L 387.229526 48.563338 L 390.803021 46.766080 L 394.376516 44.968822 L 398.006744 43.290582 L 401.653133 41.646244 L 405.299522 40.001907 L 408.945911 38.357569 L 412.592301 36.713232 L 416.246839 35.087354 L 419.918748 33.500822 L 423.590658 31.914290 L 427.262567 30.327759 L 430.934476 28.741227 L 434.606385 27.154696 L 438.278295 25.568164 L 441.950204 23.981633 L 445.622113 22.395101 L 449.290426 20.800434 L 452.935245 19.152619 L 456.580064 17.504804 L 460.224883 15.856989 L 463.869702 14.209174 L 467.514521 12.561359 L 471.159340 10.913544 L 474.883340 9.454153 L 478.656291 8.130160 L 482.459046 6.889574 L 486.295138 5.758122 L 490.142025 4.662010 L 493.988912 3.565899 L 497.835078 2.467669 L 501.552065 0.989831 L 503.042800 0.397130" fill="none" id="9" stroke="black" stroke-width="0.79426" /><path d="M 502.129410 8.145160 L 506.121318 8.107355 L 510.075728 8.709552 L 514.030138 9.311748 L 517.984548 9.913945 L 514.034466 9.638599 L 510.093284 8.955159 L 506.152103 8.271719 L 502.241907 7.452483 L 499.609730 6.704220" fill="none" id="10" stroke="black" stroke-width="0.79426" /><path d="M 30.475870 306.656970 L 30.854253 302.686439 L 32.015501 298.865195 L 33.317694 295.083093 L 34.710182 291.337497 L 36.402369 287.713065 L 38.094556 284.088634 L 39.786743 280.464202 L 41.452436 276.827907 L 43.029339 273.151853 L 44.606242 269.475798 L 46.183145 265.799744 L 47.760048 262.123689 L 49.336951 258.447635 L 50.913854 254.771580 L 52.490757 251.095526 L 54.171890 247.467925 L 55.965870 243.892783 L 57.759850 240.317642 L 59.553830 236.742501 L 61.450898 233.221478 L 63.374831 229.714559 L 65.321227 226.220424 L 67.353824 222.775348 L 69.386421 219.330272 L 71.519684 215.949033 L 73.769227 212.641533 L 76.018770 209.334033 L 78.268313 206.026533 L 80.564253 202.752836 L 83.023092 199.597823 L 85.481931 196.442809 L 87.940770 193.287796 L 90.399610 190.132782 L 93.067570 187.152916 L 95.742225 184.178655 L 98.416879 181.204395 L 101.091533 178.230135 L 103.766187 175.255874 L 106.465493 172.304812 L 109.271910 169.454545 L 112.078327 166.604277 L 114.884743 163.754009 L 117.691160 160.903742 L 120.607766 158.166970 L 123.539753 155.446042 L 126.489863 152.745836 L 129.577079 150.202393 L 132.664294 147.658949 L 135.799263 145.176242 L 139.013489 142.796312 L 142.337881 140.571808 L 145.662273 138.347304 L 149.052144 136.226642 L 152.533924 134.261271 L 156.096943 132.443334 L 159.659962 130.625397 L 163.341320 129.061936 L 167.027473 127.508785 L 170.773205 126.110004 L 174.547013 124.783968 L 178.392832 123.708726 L 182.295271 122.830677 L 186.250878 122.305119 L 190.246841 122.272429 L 194.246062 122.351359 L 198.126115 123.288850 L 201.990353 124.317872 L 205.679925 125.861151 L 209.221516 127.720488 L 212.580012 129.892382 L 215.803397 132.258918 L 218.844774 134.850499 L 221.799659 137.546543 L 224.754544 140.242588 L 227.444167 143.201807 L 230.116785 146.177897 L 232.789403 149.153987 L 235.284653 152.278796 L 237.720553 155.450548 L 240.012036 158.729131 L 242.241155 162.049045 L 244.367815 165.436864 L 246.423247 168.867224 L 248.397667 172.345969 L 250.287115 175.870030 L 252.075970 179.447739 L 253.864825 183.025447 L 255.653680 186.603155 L 257.442535 190.180864 L 259.231390 193.758572 L 261.020245 197.336281 L 262.656703 200.985820 L 264.277749 204.642623 L 265.898795 208.299427 L 267.519841 211.956230 L 269.140887 215.613033 L 270.761933 219.269836 L 272.382979 222.926639 L 273.961443 226.601601 L 275.478222 230.302869 L 276.995000 234.004137 L 278.511779 237.705405 L 280.028557 241.406673 L 281.545335 245.107940 L 283.062114 248.809208 L 284.578892 252.510476 L 286.095671 256.211744 L 287.612449 259.913011 L 289.129227 263.614279 L 290.646006 267.315547 L 292.057679 271.058066 L 293.463358 274.802938 L 294.869038 278.547810 L 296.274717 282.292682 L 297.680396 286.037554 L 299.086075 289.782426 L 300.491755 293.527298 L 301.897434 297.272170 L 303.303113 301.017042 L 304.661392 304.779015 L 305.970452 308.558745 L 307.279513 312.338476 L 308.588573 316.118206 L 309.897634 319.897936 L 311.206694 323.677666 L 312.515755 327.457397 L 313.734858 331.266994 L 314.946371 335.079111 L 316.157885 338.891227 L 317.369398 342.703344 L 318.580912 346.515461 L 319.792426 350.327578 L 321.003939 354.139695 L 322.215453 357.951812 L 323.426966 361.763928 L 324.638480 365.576045 L 325.785804 369.407693 L 326.902820 373.248562 L 328.019836 377.089431 L 329.136852 380.930300 L 330.253868 384.771169 L 331.370884 388.612038 L 332.487900 392.452907 L 333.509178 396.319753 L 334.486739 400.198461 L 335.464300 404.077169 L 336.441860 407.955877 L 337.419421 411.834585 L 338.396982 415.713293 L 339.374543 419.592000 L 340.241270 423.496243 L 341.059353 427.411691 L 341.877436 431.327140 L 342.695519 435.242589 L 343.513602 439.158038 L 344.331686 443.073487 L 345.144252 446.989972 L 345.802464 450.935445 L 346.460677 454.880918 L 347.118889 458.826391 L 347.777101 462.771864 L 348.435313 466.717337 L 349.093525 470.662810 L 349.661742 474.622006 L 350.209378 478.584340 L 350.757015 482.546675 L 351.218478 486.519838 L 351.668275 490.494468 L 352.118071 494.469098 L 352.567867 498.443728 L 353.017663 502.418358 L 353.398545 506.399349 L 353.683844 510.389161 L 353.969144 514.378974 L 354.254443 518.368787 L 354.539743 522.358599 L 354.825042 526.348412 L 355.110342 530.338224 L 355.326260 533.357760" fill="none" id="12" stroke="black" stroke-width="0.79426" /><path d="M 473.530990 185.806580 L 473.870584 189.781096 L 473.701288 193.752738 L 472.840204 197.653353 L 472.882643 201.653128 L 472.925081 205.652903 L 472.066060 204.005751 L 471.605407 200.039439 L 471.263270 196.066637 L 471.263270 192.066637 L 471.278428 193.751203 L 471.299761 197.751146 L 471.321093 201.751089 L 471.704210 200.338807 L 471.292134 196.376911 L 470.744946 192.421126 L 470.570360 188.427038 L 470.570360 184.427038 L 470.949328 180.453664 L 471.508639 176.492960 L 471.980082 172.523690 L 472.177726 168.529009 L 472.189540 164.529026 L 472.201353 160.529044 L 472.213167 156.529061 L 472.224981 152.529079 L 472.236795 148.529096 L 472.461826 144.537248 L 472.754801 140.547992 L 473.047775 136.558735 L 473.340750 132.569479 L 473.633724 128.580223 L 473.926699 124.590966 L 474.143698 120.597518 L 474.291430 116.600247 L 474.439161 112.602976 L 474.455104 108.603725 L 474.427472 104.603821 L 474.232574 100.612502 L 473.850518 96.630790 L 473.468462 92.649077 L 473.086406 88.667365 L 472.901060 86.735720" fill="none" id="14" stroke="black" stroke-width="0.79426" /><path d="M 358.696340 172.885320 L 360.275541 169.210252 L 361.854742 165.535184 L 363.433944 161.860117 L 365.013145 158.185049 L 366.592346 154.509981 L 368.171547 150.834913 L 369.563158 147.086168 L 370.907084 143.318693 L 372.251009 139.551218 L 373.594935 135.783744 L 374.938860 132.016269 L 376.334372 128.267963 L 377.776697 124.537052 L 379.219022 120.806141 L 380.706125 117.093539 L 382.290959 113.420896 L 383.875793 109.748254 L 385.460627 106.075612 L 387.251342 102.498867 L 389.043018 98.922571 L 391.002149 95.436808 L 393.013349 91.979197 L 395.024549 88.521587 L 397.100924 85.104440 L 399.307728 81.768272 L 401.514533 78.432105 L 403.721338 75.095938 L 406.041284 71.838723 L 408.411170 68.616358 L 410.781057 65.393992 L 413.150943 62.171627 L 415.767469 59.146118 L 418.384212 56.120782 L 421.000955 53.095446 L 423.681441 50.128529 L 426.467635 47.258490 L 429.253829 44.388451 L 432.040023 41.518413 L 434.918074 38.741736 L 437.832998 36.002535 L 440.747921 33.263334 L 443.662844 30.524133 L 446.596764 27.806184 L 449.648276 25.220123 L 452.760879 22.707812 L 456.035625 20.410922 L 459.311114 18.115019 L 462.819432 16.197049 L 466.343224 14.304198 L 470.087686 12.902469 L 473.844993 11.531497 L 477.733667 10.597096 L 481.679268 9.950660 L 485.668492 9.682394 L 489.668475 9.694157 L 493.656408 9.821677 L 497.573069 10.633939 L 501.487002 11.456261 L 505.277595 12.733528 L 508.917639 14.384845 L 512.536174 16.089604 L 516.038022 18.005307 L 519.405052 20.164730 L 522.772082 22.324153 L 526.015683 24.662623 L 529.176378 27.111670 L 532.253081 29.667819 L 535.329784 32.223968 L 538.322886 34.872246 L 541.164895 37.687025 L 544.006905 40.501804 L 546.809837 43.353142 L 549.429297 46.376125 L 552.048758 49.399107 L 554.668219 52.422090 L 557.097949 55.596657 L 559.468029 58.818879 L 561.838110 62.041102 L 564.208186 65.263327 L 566.361277 68.634410 L 568.514368 72.005493 L 570.460610 75.500047 L 572.406008 78.995104 L 574.351406 82.490161 L 576.296804 85.985219 L 578.142584 89.533257 L 579.952990 93.100109 L 581.763396 96.666960 L 583.573803 100.233812 L 585.350585 103.816820 L 587.004371 107.458934 L 588.658157 111.101048 L 590.311943 114.743162 L 591.965729 118.385275 L 593.619515 122.027389 L 595.273301 125.669503 L 596.927086 129.311616 L 598.523502 132.979041 L 600.098705 136.655825 L 601.673907 140.332608 L 603.249110 144.009391 L 604.824313 147.686175 L 606.399516 151.362958 L 607.974718 155.039742 L 609.549921 158.716525 L 611.032119 162.431227 L 612.476713 166.161260 L 613.921308 169.891293 L 615.365903 173.621326 L 616.810498 177.351359 L 618.255093 181.081392 L 619.699688 184.811425 L 621.144282 188.541458 L 622.572581 192.277520 L 623.903721 196.049531 L 625.234861 199.821542 L 626.566001 203.593553 L 627.897141 207.365564 L 629.228281 211.137575 L 630.517156 214.923549 L 631.695005 218.746201 L 632.872854 222.568854 L 634.050703 226.391506 L 635.228552 230.214158 L 636.406401 234.036811 L 637.516290 237.878742 L 638.521144 241.750469 L 639.525997 245.622196 L 640.530851 249.493922 L 641.535705 253.365649 L 642.540559 257.237376 L 643.414708 261.139645 L 644.229654 265.055748 L 645.044599 268.971851 L 645.859545 272.887954 L 646.674491 276.804057 L 647.263270 279.633350" fill="none" id="15" stroke="black" stroke-width="0.79426" /><path d="M 613.279020 281.570360 L 612.586321 285.214462 L 615.528859 283.363890 L 616.298200 279.450330 L 616.603816 275.462022 L 616.909433 271.473715 L 616.989037 267.477017 L 616.979968 263.477027 L 616.970900 259.477037 L 616.884222 255.480292 L 616.559372 251.493505 L 616.234523 247.506718 L 615.909673 243.519930 L 615.584823 239.533143 L 615.259974 235.546356 L 614.935124 231.559569 L 614.610274 227.572781 L 614.285425 223.585994 L 613.960575 219.599207 L 613.635726 215.612420 L 613.253491 211.631026 L 612.829806 207.653528 L 612.359559 203.681640 L 611.826262 199.717350 L 611.292965 195.753061 L 610.759667 191.788771 L 610.226370 187.824481 L 609.556165 183.881800 L 608.842519 179.945976 L 608.128873 176.010153 L 607.415226 172.074329 L 606.701580 168.138505 L 605.897831 164.220696 L 605.043308 160.313038 L 604.188785 156.405380 L 603.193459 152.531232 L 602.196105 148.657566 L 601.140245 144.800396 L 599.967265 140.976247 L 598.794284 137.152098 L 597.535809 133.355677 L 596.240987 129.571046 L 594.922123 125.795522 L 593.384336 122.102933 L 591.846549 118.410345 L 590.308762 114.717756 L 588.770975 111.025167 L 587.211146 107.342404 L 585.492647 103.730375 L 583.774148 100.118345 L 582.055649 96.506315 L 580.337150 92.894285 L 578.618651 89.282255 L 576.900152 85.670225 L 575.181652 82.058195 L 573.463153 78.446165 L 572.113660 75.609730" fill="none" id="16" stroke="black" stroke-width="0.79426" /><path d="M 155.987680 135.727840 L 157.730086 132.194279 L 160.756306 129.581095 L 164.020552 127.323302 L 167.611220 125.560604 L 171.514089 124.718582 L 175.513931 124.683079 L 179.513774 124.647575 L 183.513616 124.612072 L 187.503568 124.638296 L 191.292078 125.921725 L 195.080589 127.205154 L 198.869099 128.488582 L 202.567235 130.000042 L 206.116229 131.837032 L 209.596224 133.809248 L 213.050264 135.823384 L 216.366955 138.059354 L 219.683646 140.295324 L 223.000337 142.531293 L 226.173938 144.962661 L 229.306774 147.449694 L 232.439611 149.936727 L 235.473874 152.534883 L 238.316767 155.348769 L 240.891202 158.401617 L 243.276697 161.606691 L 245.226600 165.096599 L 247.062842 168.650219 L 248.996775 172.150450 L 250.996034 175.614979 L 252.995294 179.079508 L 254.994554 182.544037 L 256.993814 186.008565 L 258.974777 189.482765 L 260.711345 193.086143 L 262.447914 196.689521 L 264.037833 200.359542 L 265.610221 204.037530 L 267.182608 207.715518 L 268.754996 211.393506 L 270.490899 214.996393 L 272.256336 218.585715 L 274.021773 222.175037 L 275.787210 225.764359 L 277.552647 229.353681 L 279.318084 232.943003 L 281.048558 236.548678 L 282.671910 240.204458 L 284.295263 243.860238 L 285.918615 247.516018 L 287.541967 251.171798 L 289.165319 254.827578 L 290.788671 258.483358 L 292.412023 262.139138 L 294.203156 265.715459 L 296.002939 269.287682 L 297.802723 272.859906 L 299.602506 276.432129 L 301.402289 280.004352 L 303.202073 283.576576 L 304.893914 287.199941 L 306.518467 290.855188 L 307.906171 294.603950 L 309.216932 298.383090 L 310.527693 302.162231 L 311.838454 305.941372 L 313.149216 309.720513 L 314.326718 313.543201 L 315.500532 317.367094 L 316.674345 321.190988 L 317.848158 325.014881 L 319.021972 328.838775 L 320.195785 332.662669 L 321.369598 336.486562 L 322.543411 340.310456 L 323.740910 344.126720 L 325.019645 347.916818 L 326.298380 351.706915 L 327.382288 355.554547 L 328.367677 359.431274 L 329.353066 363.308000 L 330.330100 367.186391 L 330.905190 371.144834 L 331.480279 375.103277 L 332.055369 379.061720 L 332.630459 383.020163 L 333.205548 386.978606 L 333.824275 390.929160 L 334.671640 394.838376 L 335.519006 398.747592 L 336.366371 402.656809 L 337.089744 406.590780 L 337.808447 410.525683 L 338.527150 414.460587 L 339.245852 418.395491 L 340.088784 422.304181 L 341.021173 426.193994 L 341.953563 430.083808 L 342.885952 433.973622 L 343.818342 437.863435 L 344.750732 441.753249 L 345.683121 445.643062 L 346.498213 449.557664 L 347.219307 453.492130 L 347.940401 457.426596 L 348.661495 461.361062 L 349.382589 465.295529 L 350.089549 469.232501 L 350.765597 473.174957 L 351.435739 477.118280 L 351.920682 481.088775 L 352.185825 485.073179 L 352.205256 489.073132 L 352.224688 493.073085 L 352.239650 496.153040" fill="none" id="17" stroke="black" stroke-width="0.79426" /><path d="M 352.869570 490.861700 L 352.869570 486.861700 L 352.869570 482.861700 L 352.869570 480.397130" fill="none" id="18" stroke="black" stroke-width="0.79426" /><path d="M 50.538860 312.444380 L 49.476177 309.032552 L 49.090040 305.056038 L 49.413284 301.101032 L 50.505684 297.253089 L 51.598083 293.405146 L 52.454704 289.500733 L 53.224054 285.575418 L 53.993405 281.650103 L 55.121002 277.816153 L 56.325529 274.001822 L 57.218315 270.117524 L 57.759408 266.154291 L 58.300501 262.191057 L 59.285741 258.323952 L 60.431846 254.491662 L 61.528695 250.648113 L 62.161418 246.698472 L 62.794142 242.748832 L 63.426865 238.799191 L 64.485954 234.945971 L 65.614264 231.108404 L 66.624943 227.240436 L 67.497362 223.336734 L 68.456791 219.455618 L 69.653569 215.641556 L 71.229535 211.967163 L 72.975216 208.368191 L 74.720898 204.769220 L 76.466579 201.170248 L 78.169359 197.551345 L 79.793911 193.896098 L 81.511885 190.285914 L 83.361318 186.739142 L 85.210751 183.192369 L 87.060184 179.645596 L 88.825888 176.057472 L 90.518099 172.433052 L 92.497165 168.967406 L 94.669973 165.608999 L 96.842782 162.250591 L 99.015591 158.892183 L 101.188399 155.533775 L 103.558053 152.317446 L 106.061192 149.197462 L 108.564331 146.077479 L 111.563621 143.435293 L 114.653401 140.897358 L 117.816689 138.449173 L 121.097524 136.166884 L 124.455930 133.994072 L 128.069376 132.288198 L 131.772073 130.794889 L 135.599998 129.634291 L 139.457979 128.588415 L 143.363248 127.723044 L 147.280571 126.921444 L 151.232299 126.301894 L 155.184027 125.682343 L 159.154559 125.243646 L 163.149219 125.037028 L 167.147130 124.956190 L 171.147130 124.956190 L 175.127788 125.274204 L 179.035162 126.127820 L 182.859874 127.272120 L 186.607718 128.662410 L 190.174212 130.473521 L 193.652772 132.436283 L 196.996299 134.631919 L 200.299488 136.885727 L 203.507680 139.273568 L 206.610027 141.798533 L 209.712373 144.323497 L 211.515240 145.790830" fill="none" id="20" stroke="black" stroke-width="0.79426" /><path d="M 48.586100 301.625480 L 46.811329 302.363770 L 46.840608 298.366773 L 47.582292 294.457916 L 48.697001 290.621227 L 50.073025 286.865358 L 51.449049 283.109488 L 52.907564 279.385773 L 54.436379 275.689460 L 56.114395 272.058543 L 57.997824 268.532032 L 59.945922 265.038479 L 61.894019 261.544925 L 63.754807 258.005520 L 65.452281 254.385630 L 66.979063 250.688477 L 68.505844 246.991325 L 70.032626 243.294172 L 71.559408 239.597019 L 73.086189 235.899867 L 74.612971 232.202714 L 76.139752 228.505561 L 77.666534 224.808409 L 78.863528 220.995210 L 79.988426 217.156642 L 81.113324 213.318074 L 82.238223 209.479506 L 83.363121 205.640938 L 84.488019 201.802370 L 85.612917 197.963802 L 86.737816 194.125234 L 88.065698 190.355032 L 89.521855 186.630280 L 91.146407 182.975033 L 92.770959 179.319786 L 94.211095 175.593014 L 95.476006 171.798281 L 97.008968 168.106141 L 98.600933 164.436584 L 100.348791 160.840770 L 102.363246 157.389661 L 104.505626 154.011762 L 106.648007 150.633862 L 108.790387 147.255962 L 111.170600 144.046536 L 113.646490 140.904886 L 116.278952 137.899702 L 119.053022 135.017943 L 121.971424 132.285884 L 125.009071 129.689048 L 128.272445 127.379026 L 131.721203 125.352682 L 135.188680 123.361213 L 138.783455 121.606907 L 142.491116 120.110526 L 146.218853 118.660017 L 149.946590 117.209509 L 153.746074 115.967030 L 157.605617 114.929123 L 161.519492 114.103543 L 165.436107 113.296152 L 169.420591 112.955150 L 173.420561 112.939608 L 177.355763 113.461151 L 181.237370 114.427136 L 185.004349 115.755575 L 188.694902 117.292306 L 192.316039 118.991531 L 195.832411 120.893400 L 199.312500 122.865449 L 202.792590 124.837498 L 206.272679 126.809547 L 207.420750 127.460120" fill="none" id="21" stroke="black" stroke-width="0.79426" /><path d="M 145.845950 129.798710 L 148.347746 126.677650 L 151.118926 123.818684 L 154.594384 121.838485 L 158.334745 120.433841 L 162.195190 119.407183 L 166.104536 118.569202 L 170.055248 117.943204 L 174.026578 117.493897 L 178.015278 117.193442 L 182.011749 117.169444 L 186.011028 117.245378 L 189.955684 117.872327 L 193.827702 118.847947 L 197.629056 120.083856 L 201.240338 121.791219 L 204.740650 123.727148 L 208.020027 126.007871 L 211.241454 128.379033 L 214.432236 130.788682 L 217.464707 133.397152 L 220.497178 136.005623 L 223.529650 138.614093 L 226.160910 140.877450" fill="none" id="22" stroke="black" stroke-width="0.79426" /><path d="M 361.593980 214.861700 L 360.725859 217.159352 L 360.460120 221.150344 L 360.460120 225.150344 L 360.460120 229.150344 L 360.460120 233.150344 L 360.460120 237.150344 L 360.460120 241.150344 L 360.460120 245.150344 L 360.622776 249.146959 L 360.789146 253.143498 L 360.955516 257.140037 L 361.121886 261.136575 L 361.288256 265.133114 L 361.454626 269.129653 L 361.734329 273.118489 L 362.110187 277.100792 L 362.486044 281.083094 L 362.861901 285.065396 L 363.237759 289.047698 L 363.925808 291.024589 L 365.227195 287.264361 L 365.310510 284.523120" fill="none" id="23" stroke="black" stroke-width="0.79426" /><path d="M 232.145160 217.507370 L 232.939496 213.623137 L 234.836847 210.112813 L 237.132055 206.836837 L 239.427263 203.560861 L 241.787818 200.337761 L 244.512828 197.409567 L 247.275152 194.518815 L 250.212659 191.803847 L 253.165149 189.107027 L 256.387316 186.736872 L 259.791016 184.661385 L 263.357149 182.849562 L 266.933836 181.061434 L 270.665843 179.621944 L 274.526627 178.587434 L 278.438758 177.777322 L 282.394971 177.187081 L 286.351183 176.596840 L 290.324562 176.169553 L 294.316922 175.922449 L 298.315748 175.898596 L 302.312553 176.001531 L 306.296097 176.341442 L 310.254193 176.918915 L 314.212289 177.496388 L 318.134360 178.265720 L 322.032333 179.163385 L 325.866719 180.289228 L 329.667150 181.536917 L 333.426814 182.896339 L 337.137787 184.389215 L 340.848760 185.882091 L 344.559733 187.374967 L 348.236474 188.946357 L 351.855749 190.649545 L 355.475023 192.352733 L 359.029454 194.185083 L 362.557453 196.070083 L 366.085451 197.955084 L 369.613450 199.840084 L 373.141449 201.725084 L 376.630844 203.677194 L 380.013399 205.810936 L 383.317363 208.065670 L 386.610846 210.334982 L 389.800502 212.748712 L 392.990158 215.162443 L 396.179814 217.576173 L 399.268377 220.116635 L 402.319230 222.702973 L 405.249124 225.426155 L 408.148309 228.181297 L 410.986272 231.000156 L 413.824235 233.819015 L 416.662198 236.637874 L 419.500161 239.456733 L 422.338124 242.275592 L 425.176087 245.094451 L 428.014050 247.913310 L 430.852013 250.732169 L 433.667312 253.573178 L 436.420354 256.475033 L 439.152896 259.395460 L 441.769639 262.420795 L 444.386382 265.446131 L 447.003125 268.471467 L 449.572756 271.536366 L 452.100180 274.636709 L 454.627603 277.737053 L 457.155027 280.837396 L 459.682451 283.937740 L 462.209874 287.038083 L 464.517037 290.302443 L 466.763015 293.612366 L 469.008992 296.922288 L 471.254970 300.232210 L 473.500947 303.542133 L 475.746924 306.852055 L 477.992902 310.161977 L 480.454625 313.314525 L 482.920462 316.464072 L 485.386299 319.613620 L 487.852136 322.763167 L 490.317973 325.912715 L 492.783809 329.062262 L 495.249646 332.211809 L 497.715483 335.361357 L 500.003111 338.636719 L 502.145598 342.014552 L 504.288084 345.392384 L 506.406517 348.784282 L 508.299645 352.307926 L 510.192773 355.831570 L 512.293273 359.220187 L 514.749929 362.376901 L 516.380312 364.322574 L 516.150045 362.789961 L 514.444370 364.129420" fill="none" id="24" stroke="black" stroke-width="0.79426" /><path d="M 235.578230 215.995560 L 235.003518 212.428803 L 236.388442 208.712200 L 238.691523 205.444400 L 241.185436 202.319607 L 243.981908 199.459582 L 246.778380 196.599557 L 249.691066 193.867480 L 252.806079 191.358159 L 256.067993 189.060304 L 259.562253 187.123962 L 263.212116 185.487349 L 266.861978 183.850736 L 270.511841 182.214124 L 274.198723 180.676538 L 278.027142 179.517570 L 281.855562 178.358603 L 285.743790 177.421260 L 289.635504 176.496836 L 293.537560 175.624050 L 297.490698 175.028234 L 301.485840 174.865506 L 305.485823 174.853924 L 309.465496 175.070050 L 313.397797 175.800204 L 317.251868 176.870781 L 321.105940 177.941359 L 324.939091 179.080913 L 328.738547 180.331566 L 332.457651 181.801793 L 336.166917 183.298907 L 339.876182 184.796020 L 343.585448 186.293134 L 347.232605 187.932045 L 350.848092 189.643258 L 354.463580 191.354471 L 358.027940 193.169665 L 361.590744 194.988023 L 365.102289 196.902906 L 368.604068 198.836179 L 372.105846 200.769452 L 375.607625 202.702726 L 379.022908 204.784655 L 382.434061 206.873683 L 385.802871 209.028103 L 389.104777 211.285850 L 392.406682 213.543596 L 395.708588 215.801343 L 398.973329 218.111125 L 402.180147 220.502007 L 405.386965 222.892890 L 408.589515 225.289352 L 411.736342 227.758658 L 414.883170 230.227965 L 418.029998 232.697272 L 421.176825 235.166579 L 424.323653 237.635886 L 427.432340 240.152137 L 430.493687 242.726658 L 433.555033 245.301179 L 436.616380 247.875700 L 439.539004 250.606424 L 442.457152 253.342190 L 445.375300 256.077955 L 448.179643 258.926692 L 450.893875 261.864879 L 453.608107 264.803067 L 456.322338 267.741254 L 459.036570 270.679442 L 461.674046 273.686400 L 464.297641 276.705796 L 466.921236 279.725191 L 469.544832 282.744587 L 472.168427 285.763982 L 474.694470 288.865378 L 477.217790 291.969061 L 479.741111 295.072745 L 482.264431 298.176429 L 484.787752 301.280113 L 487.262754 304.421384 L 489.650333 307.630662 L 492.037911 310.839941 L 494.371636 314.087096 L 496.584757 317.419077 L 498.698812 320.811636 L 500.656236 324.299972 L 502.495468 327.850592 L 504.266340 331.437236 L 506.037212 335.023879 L 507.808084 338.610523 L 509.578956 342.197166 L 511.349829 345.783810 L 513.120701 349.370453 L 514.939602 352.928688 L 516.243330 354.351920 L 517.090040 356.499490" fill="none" id="25" stroke="black" stroke-width="0.79426" /><path d="M 233.940430 217.082170 L 235.505700 213.502458 L 237.744078 210.187392 L 240.027481 206.904570 L 242.445282 203.717999 L 245.107615 200.734394 L 248.028593 198.003555 L 251.005899 195.334827 L 254.164473 192.881307 L 257.418128 190.554564 L 260.677946 188.237016 L 264.071103 186.119779 L 267.658750 184.350941 L 271.246397 182.582103 L 274.834044 180.813264 L 278.557156 179.356776 L 282.300228 177.946311 L 286.043300 176.535845 L 289.845005 175.315713 L 293.732917 174.375427 L 297.636084 173.523556 L 301.614300 173.106662 L 305.592515 172.689768 L 309.575830 172.342432 L 313.572312 172.174696 L 317.568793 172.006960 L 321.565415 171.845434 L 325.565394 171.832559 L 329.553156 171.963535 L 333.493666 172.650831 L 337.363907 173.617247 L 341.160119 174.877713 L 344.781695 176.568460 L 348.382566 178.310219 L 351.983438 180.051978 L 355.584309 181.793737 L 359.185181 183.535496 L 362.712680 185.419670 L 366.221217 187.340652 L 369.729754 189.261633 L 373.238291 191.182614 L 376.670676 193.233442 L 380.059906 195.357851 L 383.449137 197.482261 L 386.838368 199.606670 L 390.132923 201.873426 L 393.402463 204.177793 L 396.672003 206.482161 L 399.941542 208.786529 L 401.656970 209.995560" fill="none" id="27" stroke="black" stroke-width="0.79426" /><path d="M 268.523110 182.405010 L 271.836056 180.656393 L 275.306408 178.667360 L 278.941418 176.998440 L 282.693210 175.611336 L 286.550969 174.567336 L 290.483750 173.893905 L 294.462392 173.481103 L 298.450976 173.210778 L 302.449372 173.121540 L 306.449372 173.121540 L 310.444443 173.301302 L 314.435689 173.556154 L 318.416195 173.950578 L 322.396701 174.345001 L 326.377207 174.739425 L 330.268102 175.617690 L 334.125839 176.674980 L 337.983577 177.732270 L 341.841314 178.789560 L 345.624445 180.088730 L 349.407486 181.388191 L 353.190528 182.687653 L 357.046576 183.748770 L 360.908404 184.791022 L 364.701975 186.053275 L 368.314723 187.768794 L 371.848608 189.637124 L 373.247520 190.436500" fill="none" id="28" stroke="black" stroke-width="0.79426" /><path d="M 337.877440 174.279020 L 341.702012 175.083874 L 345.612181 175.847728 L 349.582212 176.255825 L 353.322576 177.655151 L 356.939145 179.364077 L 360.555714 181.073004 L 364.252260 182.600423 L 367.953969 184.116123 L 371.655679 185.631822 L 375.234046 187.413022 L 378.763984 189.293107 L 382.223249 191.301461 L 385.682513 193.309816 L 389.128043 195.340746 L 392.501804 197.489638 L 395.875565 199.638530 L 399.249326 201.787422 L 402.623087 203.936314 L 405.836578 206.313167 L 409.000444 208.760605 L 412.164310 211.208043 L 415.328176 213.655481 L 418.373181 216.249029 L 421.413336 218.848541 L 424.432971 221.471426 L 427.404330 224.149303 L 430.375690 226.827179 L 433.347049 229.505056 L 436.318409 232.182933 L 439.289768 234.860809 L 442.261128 237.538686 L 445.129793 240.325484 L 447.811958 243.281846 L 450.272365 246.435637 L 452.783236 249.547914 L 455.403523 252.570181 L 458.194823 255.431677 L 461.049701 258.233404 L 463.904579 261.035130 L 466.662157 263.930723 L 469.159447 267.042644 L 471.412368 270.347844 L 473.665288 273.653045 L 476.031773 276.875734 L 478.540296 279.987994 L 481.250451 282.929942 L 484.136063 285.698895 L 487.039429 288.450343 L 489.903713 291.238278 L 492.449497 294.323563 L 494.904562 297.475213 L 497.074144 300.835705 L 498.939876 304.372114 L 500.773923 307.926868 L 502.607971 311.481621 L 504.442018 315.036374 L 506.380435 318.530904 L 508.540251 321.897682 L 510.949507 325.087784 L 513.408790 328.242451 L 515.658594 331.549524 L 517.533634 335.072470 L 518.954182 338.802075 L 520.171009 342.612499 L 521.431329 346.405829 L 523.522373 349.799502 L 523.830200 351.609730" fill="none" id="29" stroke="black" stroke-width="0.79426" /><path d="M 342.160910 181.530990 L 344.361536 179.555512 L 348.265153 180.090640 L 352.079482 181.295169 L 355.799155 182.740446 L 359.412441 184.456301 L 363.025728 186.172156 L 366.638867 187.888303 L 370.157335 189.791033 L 373.675804 191.693763 L 377.194272 193.596492 L 380.712740 195.499222 L 384.231209 197.401951 L 387.780881 199.244640 L 391.360033 201.030606 L 394.939184 202.816572 L 398.518336 204.602538 L 402.077226 206.425742 L 405.520835 208.460824 L 408.964444 210.495906 L 412.408052 212.530988 L 415.711211 214.786229 L 419.008126 217.051257 L 422.305041 219.316284 L 425.601957 221.581312 L 428.898872 223.846339 L 432.195787 226.111367 L 435.438038 228.453541 L 438.667858 230.813257 L 441.897678 233.172974 L 445.043697 235.638253 L 448.074542 238.248612 L 450.950790 241.020410 L 453.689861 243.935455 L 456.428933 246.850501 L 459.168004 249.765546 L 461.813595 252.762047 L 464.326475 255.874190 L 466.839355 258.986334 L 469.352234 262.098477 L 471.865114 265.210620 L 474.377994 268.322763 L 476.922688 271.407431 L 479.635808 274.346645 L 482.465322 277.171938 L 485.345632 279.947513 L 487.914872 283.009753 L 490.238350 286.249347 L 492.213649 289.727593 L 494.013195 293.299368 L 495.794744 296.880720 L 497.923814 300.259055 L 500.168557 303.569815 L 502.413299 306.880574 L 504.388829 310.338088 L 505.955200 314.018642 L 507.521571 317.699197 L 509.087943 321.379751 L 510.783668 325.000788 L 512.559822 328.584819 L 514.335975 332.168850 L 515.882251 335.853044 L 517.297822 339.594188 L 518.713392 343.335332 L 520.213244 347.041554 L 521.858587 350.687489 L 523.136353 354.424034 L 522.824306 353.667831 L 522.444370 351.468000" fill="none" id="30" stroke="black" stroke-width="0.79426" /><path d="M 372.491620 161.995560 L 372.339179 158.823234 L 373.316895 154.944565 L 374.670790 151.181927 L 375.750483 147.336192 L 377.107362 143.594957 L 379.126499 140.145869 L 380.635683 136.441498 L 381.860920 132.634691 L 383.064294 128.819997 L 384.267667 125.005303 L 385.470153 121.190372 L 386.323350 117.282425 L 387.176548 113.374477 L 388.437840 109.585768 L 390.116549 105.955075 L 391.795258 102.324381 L 393.473967 98.693688 L 395.883582 95.504941 L 398.318898 92.331735 L 400.773695 89.174094 L 403.331106 86.098440 L 405.888518 83.022786 L 408.266285 79.819456 L 410.330057 76.392964 L 412.393828 72.966473 L 414.457600 69.539981 L 416.521372 66.113489 L 418.585143 62.686997 L 420.846224 59.402942 L 423.448817 56.365425 L 426.035738 53.315133 L 428.486408 50.153769 L 431.041681 47.092379 L 434.088908 44.501162 L 437.317646 42.147810 L 440.137902 39.352184 L 442.277668 35.980853 L 444.809109 32.883790 L 447.280117 29.741801 L 449.516351 26.425288 L 452.113552 23.471146 L 455.438715 21.247795 L 458.763879 19.024444 L 462.357298 17.365986 L 466.181786 16.194112 L 470.006275 15.022238 L 473.839747 13.889481 L 477.799960 13.347952 L 481.793766 13.125438 L 485.792472 13.106257 L 489.792360 13.136158 L 493.768802 13.438153 L 497.714839 14.092973 L 501.660876 14.747792 L 505.606914 15.402612 L 509.469729 16.419506 L 513.250731 17.706698 L 516.895899 19.336749 L 520.208642 21.578564 L 523.521385 23.820379 L 526.834128 26.062194 L 529.715098 28.816081 L 532.484318 31.702502 L 535.253538 34.588922 L 538.100679 37.398287 L 540.955952 40.199610 L 543.811226 43.000934 L 546.618695 45.844440 L 548.933597 49.102159 L 551.072694 52.482138 L 553.513643 55.647685 L 556.001003 58.780262 L 558.488363 61.912840 L 560.975723 65.045417 L 563.463084 68.177994 L 565.739331 71.464804 L 567.967472 74.786760 L 570.102913 78.167143 L 572.138749 81.610306 L 574.204466 85.034781 L 576.409219 88.372305 L 578.613971 91.709829 L 580.818724 95.047353 L 582.859427 98.475206 L 584.396952 102.162994 L 585.502168 106.005479 L 586.508609 109.876793 L 587.515051 113.748108 L 588.605380 117.595183 L 589.818837 121.406682 L 591.032294 125.218181 L 592.200981 129.043154 L 593.292916 132.891229 L 594.384851 136.739303 L 595.861009 140.456374 L 597.347290 144.169994 L 598.833571 147.883613 L 600.340491 151.588639 L 601.928794 155.259783 L 603.517097 158.930926 L 605.105401 162.602069 L 606.693704 166.273213 L 608.002043 170.050926 L 609.256936 173.848984 L 610.511830 177.647041 L 611.872635 181.404474 L 613.479628 185.067474 L 615.086622 188.730475 L 616.504040 192.458495 L 617.483499 196.336724 L 618.529376 200.192699 L 620.084125 203.878179 L 621.638873 207.563658 L 623.193621 211.249137 L 624.602921 214.980623 L 625.647458 218.835541 L 626.921049 222.627370 L 627.731790 226.538378 L 628.447878 230.473758 L 629.341876 234.361320 L 630.612899 238.149006 L 631.620154 242.010003 L 632.611887 245.856968 L 633.164515 249.818274 L 634.192609 253.683895 L 635.220703 257.549515 L 635.515240 258.656970" fill="none" id="31" stroke="black" stroke-width="0.79426" /><path d="M 629.499490 262.105790 L 627.412858 262.809402 L 627.308319 266.808035 L 626.675245 270.747085 L 625.560973 267.766891 L 625.232671 263.780387 L 624.983166 259.790203 L 624.938576 255.790452 L 624.893985 251.790700 L 624.849395 247.790949 L 624.703334 243.794055 L 624.522727 239.798135 L 624.342120 235.802214 L 624.258689 231.803849 L 624.238178 227.803902 L 624.217666 223.803955 L 623.720296 219.860212 L 622.810262 215.965108 L 622.297861 212.016193 L 622.139897 208.019313 L 621.981933 204.022433 L 621.823969 200.025554 L 621.469989 196.042948 L 620.384229 192.202859 L 618.954236 188.467204 L 617.632621 184.695635 L 616.548810 180.845264 L 615.286680 177.052021 L 613.784689 173.347324 L 612.169571 169.687899 L 610.554452 166.028473 L 609.153477 162.283888 L 607.814374 158.514696 L 606.303059 154.812520 L 604.742210 151.129621 L 603.570628 147.305484 L 602.406706 143.478568 L 601.242783 139.651653 L 599.498810 136.054703 L 597.501070 132.590946 L 595.368345 129.208790 L 593.141881 125.885710 L 590.915417 122.562630 L 588.777360 119.182829 L 586.684619 115.773953 L 584.854099 112.221916 L 583.248617 108.561214 L 581.782819 104.839462 L 580.243256 101.148813 L 578.601797 97.501126 L 576.640869 94.017630 L 574.630388 90.559601 L 573.656970 88.885320" fill="none" id="32" stroke="black" stroke-width="0.79426" /><path d="M 624.995550 271.483750 L 627.727526 268.562054 L 629.901233 265.677775 L 627.787145 269.016241 L 625.172077 272.043024 L 622.557008 275.069807 L 619.941940 278.096590 L 617.391694 281.177581 L 616.779156 282.475792 L 619.585799 279.625748 L 622.392442 276.775703 L 625.200550 273.927260 L 628.289434 271.385844 L 627.451944 272.115890 L 624.394778 274.695373 L 621.337611 277.274857 L 618.280445 279.854340 L 615.223278 282.433823 L 614.223900 282.964060" fill="none" id="33" stroke="black" stroke-width="0.79426" /><path d="M 237.153030 212.971940 L 239.982844 210.249731 L 242.516251 207.154275 L 245.466380 204.464821 L 248.857432 202.356608 L 252.482385 200.665539 L 256.088887 198.937574 L 259.616420 197.051703 L 262.961532 194.889462 L 266.082169 192.387138 L 269.513949 190.406778 L 273.109013 188.676749 L 274.759330 188.050680" fill="none" id="34" stroke="black" stroke-width="0.79426" /><path d="M 238.538860 214.956190 L 239.285643 211.192426 L 241.154876 207.656048 L 243.223590 204.239107 L 246.130779 201.516631 L 249.151684 198.894774 L 252.076495 196.170258 L 254.891997 193.328964 L 257.918980 190.760572 L 261.328679 188.674865 L 264.579823 186.344616 L 267.883181 184.095079 L 271.302350 182.025630 L 274.595035 179.767034 L 278.096316 177.832859 L 281.214600 175.382341 L 284.266411 172.823771 L 287.614487 170.635076 L 291.312757 169.112499 L 294.868212 167.298072 L 298.374765 165.383130 L 302.065059 163.839844 L 305.788962 162.386018 L 309.661101 161.409041 L 313.485172 160.280824 L 317.440764 159.788817 L 321.440658 159.759690 L 325.440552 159.730563 L 329.425128 160.061829 L 333.408124 160.430258 L 337.362328 161.002417 L 341.273828 161.824082 L 345.104883 162.974307 L 348.935938 164.124533 L 352.766992 165.274758 L 356.598047 166.424984 L 360.429102 167.575210 L 360.491620 167.593980" fill="none" id="35" stroke="black" stroke-width="0.79426" /><path d="M 242.601850 208.105790 L 244.056455 206.057063 L 246.856740 203.200771 L 249.854652 200.556662 L 252.902409 197.966067 L 255.642080 195.053820 L 258.865520 192.698048 L 262.025646 190.251242 L 265.232973 187.880892 L 268.675646 185.844228 L 272.161179 183.888642 L 275.638139 181.950950 L 278.827274 179.536531 L 281.719960 177.586110" fill="none" id="36" stroke="black" stroke-width="0.79426" /><path d="M 243.200280 209.097920 L 244.703049 206.061770 L 246.952454 202.754177 L 249.201859 199.446583 L 251.451264 196.138989 L 253.830687 192.929568 L 256.396067 189.860557 L 259.126081 186.949883 L 262.092740 184.266800 L 265.003245 181.526525 L 267.832693 178.719744 L 271.084381 176.410771 L 274.048373 173.742316 L 277.456873 171.657296 L 281.093472 170.004623 L 284.816672 168.542509 L 288.637456 167.401840 L 292.545130 166.547390 L 296.452804 165.692941 L 300.395981 165.029857 L 304.293105 164.133735 L 308.184186 163.206645 L 312.075266 162.279556 L 315.886032 161.064783 L 319.698496 159.860912 L 323.679601 159.472582 L 327.660706 159.084252 L 331.647196 158.806580 L 335.644064 158.892180 L 339.633368 159.184500 L 343.622672 159.476820 L 347.579205 160.018298 L 351.508413 160.767514 L 355.437621 161.516730 L 359.321614 162.464110 L 363.186934 163.493335 L 367.052254 164.522560 L 370.763366 166.011251 L 374.466969 167.522321 L 378.170571 169.033390 L 381.716574 170.873204 L 385.214028 172.814290 L 388.711482 174.755376 L 392.171563 176.755967 L 395.438774 179.063634 L 398.728207 181.337861 L 402.121340 183.456033 L 405.398935 185.743459 L 408.570306 188.179570 L 411.662724 190.716686 L 414.755141 193.253802 L 417.847558 195.790917 L 420.994183 198.256836 L 424.262629 200.562754 L 427.531076 202.868672 L 430.799523 205.174589 L 433.902197 207.697449 L 436.977359 210.255117 L 439.966202 212.913466 L 442.885190 215.645966 L 445.717003 218.471003 L 448.508432 221.332198 L 451.004553 224.457799 L 453.500674 227.583400 L 455.996795 230.709001 L 458.492916 233.834601 L 460.989037 236.960202 L 463.485158 240.085803 L 465.981279 243.211404 L 468.477400 246.337005 L 470.893426 249.523006 L 473.212238 252.782317 L 475.375620 256.141904 L 477.389298 259.598073 L 479.402976 263.054241 L 481.416655 266.510409 L 483.430333 269.966578 L 485.444011 273.422746 L 487.457689 276.878915 L 489.471367 280.335083 L 491.485046 283.791251 L 493.498724 287.247420 L 495.314867 290.809001 L 497.064940 294.405839 L 498.815013 298.002677 L 500.724039 301.512915 L 502.797248 304.933705 L 504.870457 308.354495 L 506.794185 311.860682 L 508.466243 315.487761 L 509.950459 319.201378 L 510.763058 323.117969 L 511.575657 327.034560 L 512.652656 330.870390 L 514.167188 334.572578 L 515.681720 338.274765 L 517.051915 342.030380 L 518.312880 345.826426 L 518.716189 348.642003 L 518.223900 347.971940" fill="none" id="37" stroke="black" stroke-width="0.79426" /><path d="M 181.814450 114.538860 L 179.105790 112.776651 L 182.631364 114.480184 L 186.247383 116.182990 L 189.827924 117.966169 L 193.408466 119.749347 L 196.989007 121.532525 L 200.569548 123.315704 L 204.161193 125.075715 L 207.793991 126.749864 L 211.426789 128.424014 L 215.059588 130.098164 L 218.692386 131.772313 L 222.325184 133.446463 L 226.000542 135.020506 L 229.726741 136.474961 L 233.452940 137.929416 L 237.179139 139.383872 L 240.905338 140.838327 L 244.631537 142.292782 L 248.357736 143.747238 L 252.083936 145.201693 L 255.810135 146.656148 L 259.536334 148.110604 L 263.307149 149.439248 L 267.117164 150.657357 L 270.927178 151.875466 L 274.804441 152.857232 L 278.685011 153.827374 L 282.565581 154.797516 L 286.439581 155.791063 L 290.258154 156.982072 L 294.076727 158.173080 L 297.895300 159.364088 L 301.772357 160.335439 L 305.677605 161.200910 L 309.582853 162.066381 L 313.488100 162.931852 L 317.393348 163.797323 L 321.328096 164.495635 L 325.293682 165.019209 L 329.259267 165.542784 L 333.233012 165.955469 L 337.232524 166.017962 L 341.232036 166.080455 L 345.231548 166.142948 L 349.226851 165.977097 L 353.221344 165.767268 L 357.206712 165.430942 L 361.189970 165.065346 L 365.147810 164.511989 L 369.084910 163.805419 L 373.007097 163.027764 L 376.896200 162.092413 L 380.747985 161.026932 L 384.541733 159.759070 L 388.317206 158.439407 L 391.937093 156.737521 L 395.655898 155.267920 L 399.391408 153.837550 L 403.032586 152.185494 L 406.793334 150.822859 L 410.554082 149.460223 L 414.222278 147.879927 L 417.688255 145.887276 L 421.124384 143.839589 L 424.303298 141.458359 L 427.181157 138.685111 L 430.506095 136.461423 L 433.692646 134.052180 L 436.841793 131.589830 L 439.979405 129.138293 L 442.541694 126.066702 L 445.283244 123.158998 L 448.113398 120.332298 L 450.747472 117.339412 L 453.072037 114.084201 L 455.567852 110.967863 L 458.272731 108.021063 L 460.977609 105.074262 L 463.263692 101.806178 L 465.485836 98.482147 L 467.823561 95.236375 L 469.862646 91.800634 L 471.811578 88.307546 L 473.760509 84.814457 L 475.334661 81.151554 L 476.675962 77.383144 L 478.017263 73.614735 L 479.519644 69.909700 L 481.105716 66.237592 L 482.691787 62.565483 L 484.029251 58.796557 L 485.344419 55.018948 L 486.975331 51.374586 L 488.264049 47.593413 L 489.480828 43.782973 L 490.697607 39.972534 L 492.198430 36.265790 L 493.722819 32.567651 L 495.247209 28.869511 L 496.744441 25.160689 L 498.148127 21.415069 L 499.551813 17.669450 L 500.955499 13.923830 L 502.359185 10.178211 L 504.634541 7.020188 L 505.719960 6.279020" fill="none" id="38" stroke="black" stroke-width="0.79426" /><path d="M 510.538860 361.318390 L 513.857641 359.757959 L 516.932062 357.199065 L 520.006483 354.640172 L 523.080904 352.081278 L 525.954572 349.302874 L 528.777191 346.468650 L 531.599809 343.634426 L 534.501894 340.885243 L 537.520685 338.260953 L 540.513771 335.609519 L 543.298353 332.737916 L 546.007455 329.797756 L 548.598746 326.750592 L 551.190037 323.703428 L 553.643984 320.550733 L 555.920939 317.262044 L 558.197894 313.973355 L 560.474849 310.684666 L 562.217343 307.090278 L 563.897673 303.460335 L 565.578003 299.830391 L 567.258334 296.200448 L 568.938664 292.570504 L 570.618994 288.940561 L 572.223402 285.278430 L 573.663981 281.546844 L 575.104560 277.815258 L 576.288847 273.998405 L 577.370935 270.147550 L 578.453023 266.296694 L 579.535112 262.445839 L 580.541740 258.575861 L 581.424208 254.674419 L 582.306677 250.772977 L 583.130611 246.858986 L 583.925126 242.938687 L 584.719641 239.018387 L 585.514156 235.098088 L 586.047716 231.134819 L 586.552131 227.166751 L 587.093806 223.205433 L 588.013626 219.312628 L 588.792523 215.401588 L 588.893837 211.402872 L 588.995151 207.404155 L 589.597166 203.464514 L 590.429269 199.552021 L 590.778132 195.579033 L 590.936164 191.582156 L 591.094195 187.585279 L 591.268164 183.589278 L 591.549311 179.599171 L 591.830457 175.609064 L 592.062182 171.616889 L 592.115298 167.617241 L 592.168414 163.617594 L 592.221530 159.617947 L 592.274646 155.618299 L 592.327762 151.618652 L 592.310619 147.620222 L 592.118993 143.624815 L 591.927367 139.629407 L 591.054195 135.739119 L 590.033082 131.871648 L 589.320582 127.935996 L 588.617312 123.998305 L 587.695927 120.116821 L 586.408542 116.329653 L 585.121157 112.542486 L 584.072973 108.683650 L 583.065846 104.812514 L 581.864549 101.000742 L 580.320719 97.317624 L 578.573101 93.719592 L 576.709553 90.181378 L 574.773771 86.681439 L 572.690684 83.266655 L 570.607597 79.851872 L 568.303606 76.582261 L 565.987348 73.321486 L 563.493323 70.194212 L 560.999297 67.066939 L 558.424170 64.007220 L 555.799260 60.988968 L 553.174349 57.970716 L 550.549439 54.952464 L 549.593980 53.853830" fill="none" id="39" stroke="black" stroke-width="0.79426" /><path d="M 230.570360 216.680600 L 233.637305 214.854196 L 237.396956 213.488537 L 241.099252 211.988757 L 244.683865 210.213778 L 248.268478 208.438800 L 251.846117 206.650186 L 255.383277 204.782434 L 258.920438 202.914682 L 262.457598 201.046930 L 265.994758 199.179178 L 269.531918 197.311426 L 273.099834 195.504833 L 276.708454 193.779186 L 280.317074 192.053538 L 283.900200 190.278516 L 287.396614 188.335556 L 290.869219 186.350964 L 294.316909 184.322804 L 297.764600 182.294644 L 301.212290 180.266484 L 304.626145 178.186450 L 307.871950 175.848770 L 311.117755 173.511089 L 314.363560 171.173408 L 317.609364 168.835728 L 320.855169 166.498047 L 323.896499 163.905324 L 326.950805 161.326882 L 330.142863 158.916328 L 333.153831 156.284871 L 336.158066 153.645155 L 339.343966 151.226469 L 342.529866 148.807783 L 345.792386 146.495477 L 349.066860 144.200790 L 352.192896 141.705214 L 355.318932 139.209638 L 358.444967 136.714062 L 361.347112 133.976449 L 364.078243 131.053963 L 366.894887 128.214609 L 369.739073 125.402029 L 372.583259 122.589449 L 375.265032 119.624158 L 377.897314 116.612332 L 380.457724 113.544774 L 382.719359 110.245531 L 385.288115 107.181277 L 387.669863 103.973897 L 389.932285 100.675193 L 392.391293 97.525547 L 394.906245 94.417368 L 397.245971 91.173037 L 399.585697 87.928706 L 401.545854 84.444800 L 403.467995 80.936898 L 405.935132 77.800703 L 408.062105 74.413080 L 410.700906 71.417115 L 413.340065 68.422072 L 415.429595 65.011226 L 417.783105 61.788563 L 420.326070 58.700954 L 422.869035 55.613345 L 425.412000 52.525735 L 428.127043 49.596936 L 431.001111 46.814898 L 433.919860 44.081688 L 436.945344 41.465116 L 439.970828 38.848544 L 442.996311 36.231972 L 446.148172 33.769395 L 449.447618 31.533436 L 452.795582 29.375158 L 455.974878 26.952018 L 459.362055 24.840380 L 463.065542 23.329030 L 466.587184 21.433547 L 470.228843 19.809672 L 474.079923 18.782933 L 478.039659 18.286775 L 482.036853 18.259614 L 485.977241 18.947618 L 487.830200 19.271150" fill="none" id="40" stroke="black" stroke-width="0.79426" /><path d="M 320.712090 160.672720 L 324.225759 158.761142 L 327.692420 156.771243 L 331.018134 154.549881 L 334.220029 152.152411 L 337.421925 149.754940 L 340.623820 147.357469 L 343.825715 144.959998 L 347.027611 142.562527 L 350.191773 140.120585 L 353.078679 137.351872 L 355.965585 134.583158 L 358.852491 131.814445 L 361.739397 129.045731 L 364.626303 126.277018 L 367.513209 123.508305 L 370.280848 120.621182 L 373.028662 117.714376 L 375.757058 114.789728 L 378.421397 111.806225 L 381.085737 108.822721 L 383.750076 105.839217 L 386.129512 102.628191 L 388.449794 99.369926 L 391.157305 96.429553 L 393.799821 93.433331 L 396.213593 90.243707 L 398.627365 87.054082 L 401.041137 83.864458 L 403.550253 80.751995 L 406.166520 77.726248 L 408.782788 74.700501 L 411.494574 71.761907 L 414.268548 68.880056 L 417.042523 65.998205 L 419.860229 63.159665 L 422.715179 60.358013 L 425.570130 57.556360 L 428.425080 54.754707 L 431.280031 51.953055 L 434.134981 49.151402 L 436.989932 46.349750 L 437.719960 45.633350" fill="none" id="41" stroke="black" stroke-width="0.79426" /><path d="M 450.192400 27.019180 L 453.471075 24.971168 L 456.734685 22.659991 L 460.303360 20.914539 L 464.009601 19.423973 L 467.701091 17.892611 L 471.486177 16.599119 L 475.290037 15.367422 L 479.154977 14.336773 L 483.050901 13.447681 L 487.023243 13.084074 L 491.022330 12.998624 L 495.021417 12.913174 L 498.957919 13.512824 L 502.802779 14.611016 L 506.638662 15.745035 L 510.474546 16.879054 L 514.222749 18.268697 L 517.947104 19.727866 L 521.671460 21.187036 L 525.262610 22.947240 L 528.847212 24.722241 L 532.341004 26.665439 L 535.791560 28.688719 L 539.156040 30.849119 L 542.412465 33.169269 L 545.604180 35.580276 L 548.795894 37.991284 L 549.562480 38.570360" fill="none" id="42" stroke="black" stroke-width="0.79426" /><path d="M 526.475870 342.609730 L 523.297754 344.779767 L 520.184547 347.291328 L 517.071339 349.802889 L 514.035178 352.396443 L 511.335008 355.347558 L 508.634837 358.298673 L 505.914708 361.228582 L 502.805502 363.745094 L 499.696295 366.261606 L 496.250017 368.227613 L 492.595040 369.852773 L 488.918171 371.423531 L 485.156279 372.783004 L 481.394387 374.142477 L 477.632495 375.501950 L 473.721287 376.257950 L 469.759498 376.809518 L 465.795402 377.340114 L 461.808449 377.662922 L 457.812609 377.797729 L 453.812983 377.852469 L 449.813358 377.907208 L 445.813732 377.961947 L 441.814921 378.049954 L 437.817405 378.190891 L 433.819888 378.331828 L 429.822372 378.472764 L 425.869587 378.007755 L 421.936099 377.281345 L 418.002611 376.554934 L 414.120936 375.613660 L 410.276688 374.515816 L 406.352840 373.739019 L 402.465509 372.807391 L 398.648479 371.634682 L 394.982786 370.033841 L 391.465586 368.133815 L 387.996383 366.143332 L 384.556088 364.102652 L 381.115794 362.061972 L 377.675500 360.021292 L 374.235205 357.980612 L 370.796247 355.937865 L 367.523720 353.637742 L 364.291240 351.283673 L 361.142431 348.816894 L 357.993621 346.350115 L 354.844812 343.883335 L 351.696003 341.416556 L 348.716600 338.766537 L 346.185069 335.673854 L 343.743036 332.505814 L 341.039157 329.564825 L 338.074349 326.884563 L 334.820429 324.560416 L 331.566879 322.236119 L 328.815572 319.367825 L 326.923459 315.860042 L 325.138803 312.290686 L 322.831143 309.023469 L 320.290204 305.937032 L 318.171152 302.550200 L 316.857974 298.775237 L 315.572424 294.987446 L 314.198909 291.234885 L 312.304195 287.720500 L 310.191756 284.323795 L 308.220466 280.846731 L 306.628393 277.186221 L 305.641981 273.339292 L 305.499490 272.003430" fill="none" id="43" stroke="black" stroke-width="0.79426" /><path d="M 196.680590 128.735720 L 199.501624 129.608837 L 203.144860 131.248187 L 206.895950 132.637188 L 210.600028 134.137637 L 214.110299 136.050511 L 217.351573 138.390878 L 220.284359 141.098957 L 223.120905 143.919242 L 225.870075 146.819797 L 228.440236 149.884805 L 231.010398 152.949812 L 233.580559 156.014820 L 236.150720 159.079827 L 238.318390 161.664850" fill="none" id="44" stroke="black" stroke-width="0.79426" /><path d="M 193.593980 131.027050 L 197.204264 130.745651 L 200.815307 132.391975 L 204.212678 134.496973 L 207.486572 136.795151 L 210.711825 139.158858 L 213.859431 141.627173 L 217.007037 144.095487 L 220.154643 146.563801 L 223.384448 148.922962 L 226.626219 151.266234 L 229.867989 153.609506 L 233.109760 155.952779 L 236.329402 158.321240 L 239.070861 161.234040 L 241.812320 164.146840 L 244.381966 167.212070 L 246.947432 170.281008 L 249.305382 173.502655 L 251.472438 176.864778 L 253.639494 180.226900 L 255.806550 183.589023 L 257.987614 186.941533 L 260.345397 190.172764 L 262.615276 193.465199 L 264.827528 196.797757 L 267.039780 200.130315 L 269.148659 203.523583 L 270.981621 207.078896 L 272.814582 210.634209 L 274.579686 214.223470 L 276.325761 217.822251 L 278.071836 221.421031 L 279.817911 225.019812 L 281.563985 228.618593 L 283.310060 232.217374 L 285.056135 235.816154 L 286.957968 239.333149 L 288.929138 242.813737 L 290.771069 246.362877 L 292.547225 249.946907 L 294.323381 253.530937 L 296.506542 256.866903 L 298.878064 260.088064 L 300.679940 263.641838 L 301.930766 267.434478 L 302.765322 271.346449 L 303.963188 275.159756 L 305.788386 278.693221 L 308.426218 281.653194 L 308.901060 282.090050" fill="none" id="45" stroke="black" stroke-width="0.79426" /><path d="M 292.082170 248.121540 L 294.299580 251.211273 L 295.644299 254.978464 L 296.989019 258.745655 L 298.333738 262.512847 L 299.786810 266.236263 L 301.436239 269.880352 L 303.085667 273.524441 L 304.735096 277.168531 L 306.384524 280.812620 L 308.131383 284.408841 L 310.007892 287.941363 L 311.565965 291.616892 L 312.700047 295.452756 L 314.738446 298.841921 L 317.076659 302.084866 L 319.064003 305.533377 L 321.344952 308.815554 L 323.489343 312.192178 L 325.633735 315.568801 L 327.960072 318.815629 L 330.454925 321.942242 L 333.077755 324.958624 L 335.800173 327.889228 L 338.207516 331.066640 L 340.556917 334.290069 L 343.264613 337.234281 L 345.972309 340.178492 L 348.856350 342.932438 L 351.956602 345.457376 L 354.923010 348.140737 L 358.159111 350.484359 L 361.445505 352.764624 L 364.731900 355.044890 L 368.039545 357.293284 L 371.408147 359.450254 L 374.776749 361.607223 L 378.145352 363.764193 L 381.513954 365.921162 L 384.749614 368.262971 L 387.866167 370.770379 L 391.136275 373.031785 L 394.757751 374.730289 L 398.379227 376.428793 L 402.032591 378.043074 L 405.870853 379.169015 L 409.724258 380.220397 L 413.697656 380.680951 L 417.643134 381.303090 L 421.540699 382.202526 L 425.488048 382.834191 L 429.448440 383.395698 L 433.408833 383.957205 L 437.404432 384.004597 L 441.404398 383.988205 L 445.404146 383.968277 L 449.375858 383.493398 L 453.347569 383.018520 L 457.338095 382.763729 L 461.325988 382.501966 L 465.252889 381.740752 L 469.179791 380.979538 L 473.048486 379.991214 L 476.857440 378.769795 L 480.615690 377.432779 L 484.094064 375.457706 L 487.572437 373.482632 L 491.169397 371.734508 L 494.961896 370.492912 L 498.743304 369.204318 L 502.456631 367.717307 L 505.960144 365.823058 L 509.326470 363.662537 L 512.692796 361.502016 L 515.820176 359.018863 L 518.868335 356.428742 L 522.078757 354.046150 L 523.168780 353.263270" fill="none" id="46" stroke="black" stroke-width="0.79426" /><path d="M 300.082170 264.113670 L 300.594593 263.936038 L 298.616495 260.459384 L 296.741725 256.926951 L 294.920606 253.365557 L 293.099488 249.804163 L 291.278370 246.242769 L 289.457252 242.681374 L 287.636134 239.119980 L 285.815016 235.558586 L 284.018629 231.984963 L 282.294116 228.375800 L 280.569602 224.766638 L 278.845089 221.157476 L 277.032891 217.593412 L 275.044136 214.125957 L 272.775098 210.831801 L 270.506060 207.537645 L 268.237022 204.243488 L 266.017400 200.917182 L 263.925255 197.507940 L 261.620937 194.244495 L 259.188425 191.069139 L 257.023797 187.716682 L 255.257605 184.134686 L 253.632866 180.484545 L 251.303881 177.243413 L 248.546614 174.351425 L 245.693377 171.548027 L 242.934785 168.667643 L 240.771092 165.303355 L 238.493107 162.021052 L 235.750452 159.119805 L 232.836310 156.381546 L 229.807105 153.769282 L 226.777901 151.157019 L 223.857474 148.428821 L 221.057760 145.571969 L 218.063383 142.923212 L 214.982930 140.373165 L 211.828019 137.914194 L 208.596667 135.564152 L 205.211381 133.433462 L 201.884093 131.215949 L 198.619547 128.904512 L 195.355001 126.593075 L 191.836929 124.715444 L 188.074980 123.360868 L 184.431136 121.730418 L 180.807361 120.055065 L 177.017163 118.776628 L 173.327065 118.975671 L 169.352470 119.270983 L 166.633350 119.357760" fill="none" id="47" stroke="black" stroke-width="0.79426" /><path d="M 104.901060 157.200280 L 103.374464 160.897509 L 101.860700 164.598774 L 100.996502 168.504303 L 100.553494 172.464416 L 100.460120 176.462549 L 100.615561 180.451559 L 101.178351 184.411770 L 101.892888 188.342332 L 102.862061 192.223144 L 103.945682 196.071375 L 105.403632 199.779207 L 107.310991 203.295168 L 109.491278 206.648347 L 111.238456 210.244280 L 113.297736 213.654363 L 116.092135 216.496971 L 119.024384 219.217616 L 121.791340 222.101844 L 124.742539 224.784272 L 128.237384 226.677861 L 131.848563 228.391327 L 135.307627 230.396186 L 139.107141 231.633692 L 142.944622 232.742207 L 146.695108 234.126065 L 150.673769 234.474072 L 154.666221 234.625459 L 158.615166 235.262507 L 162.565140 235.889799 L 166.560115 236.090252 L 170.555089 236.290704 L 174.553949 236.351941 L 178.553885 236.374666 L 182.540514 236.107382 L 186.521563 235.718479 L 190.423932 234.867684 L 194.205806 233.588990 L 197.933036 232.137177 L 201.663846 230.695756 L 205.494303 229.543542 L 209.282440 228.265927 L 213.027757 226.861436 L 216.634131 225.135080 L 220.099586 223.144491 L 223.512935 221.059053 L 226.926283 218.973615 L 230.380011 216.964680 L 234.078024 215.454574 L 235.861690 214.885320" fill="none" id="50" stroke="black" stroke-width="0.79426" /><path d="M 237.688470 217.530990 L 238.442079 213.679415 L 237.737570 214.679492 L 234.757796 217.341121 L 231.661967 219.874072 L 228.449138 222.245483 L 225.077087 224.397056 L 221.705035 226.548629 L 224.517715 224.749699 L 226.986716 221.602632 L 229.455718 218.455565 L 232.046642 215.413959 L 234.805259 212.517404 L 232.420957 215.667480 L 230.004649 218.855185 L 227.588342 222.042889 L 225.033616 225.111546 L 224.311308 226.352776 L 227.154610 223.605521 L 229.261985 220.205672 L 231.404582 216.830515 L 233.964776 214.005358 L 232.243991 217.545847 L 229.776721 220.693235 L 227.264231 223.805692 L 224.751741 226.918150 L 222.219855 230.011090 L 221.310510 229.861700" fill="none" id="51" stroke="black" stroke-width="0.79426" /><path d="M 219.515240 225.373510 L 216.175686 227.492405 L 214.538860 228.160910" fill="none" id="52" stroke="black" stroke-width="0.79426" /><path d="M 221.593980 225.326270 L 217.988252 227.021407 L 215.305501 229.963613 L 212.283600 232.571391 L 208.687396 234.292410 L 204.944707 235.657037 L 201.490975 237.597907 L 197.588689 238.321361 L 193.740294 239.304385 L 189.741527 239.403692 L 185.768369 239.864395 L 181.769131 239.877450 L 177.798654 240.341854 L 173.830855 240.848380 L 169.853235 241.205050 L 165.853266 241.220677 L 161.853296 241.236304 L 157.863927 241.093296 L 153.901596 240.545630 L 149.939266 239.997964 L 146.049202 239.103533 L 142.197959 238.022829 L 138.402406 236.791903 L 135.057419 234.654517 L 132.195822 231.866922 L 128.861226 229.657745 L 126.738149 226.318525 L 124.232523 223.267494 L 121.510287 220.349663 L 118.361784 217.984257 L 115.550543 215.205288 L 113.019181 212.145981 L 110.354118 209.180873 L 108.173921 205.827257 L 105.993724 202.473641 L 104.421037 198.799397 L 102.952432 195.084963 L 102.084708 191.180216 L 101.399445 187.254847 L 101.373810 183.254929 L 100.775979 179.300349 L 101.018139 175.370449 L 101.779318 171.457827 L 102.133992 167.475530 L 103.125298 163.600796 L 104.623150 159.891828 L 106.506535 156.374891 L 108.644523 153.000954 L 111.164543 149.894590 L 111.389250 149.617600" fill="none" id="53" stroke="black" stroke-width="0.79426" /><path d="M 101.027050 183.279020 L 98.323736 184.214872 L 98.353529 180.214983 L 98.492421 176.239908 L 100.195605 172.620632 L 101.285185 168.774471 L 102.785271 165.112159 L 105.432232 162.129500 L 107.727533 158.856938 L 109.887914 155.490523 L 111.586172 151.871097 L 113.364445 148.290266 L 115.364228 144.832211 L 118.098588 141.939529 L 120.549773 138.793323 L 123.318844 135.944450 L 126.007331 133.015275 L 128.881121 130.354007 L 132.362400 128.384059 L 135.683802 126.156722 L 139.027349 123.970454 L 142.651284 122.278152 L 146.151519 120.342085 L 149.862820 118.920326 L 153.714016 117.839450 L 157.565282 116.758895 L 161.542821 116.596561 L 165.521567 116.887829 L 169.406543 117.840176 L 173.285738 118.812987 L 177.094838 120.033953 L 180.586100 121.153040" fill="none" id="54" stroke="black" stroke-width="0.79426" /><path d="M 107.515240 156.822330 L 106.887883 153.962797 L 105.028571 157.476283 L 104.130200 161.365202 L 103.521047 165.313640 L 103.147558 169.296165 L 102.937647 173.286812 L 102.914789 177.286746 L 102.891932 181.286681 L 102.869075 185.286616 L 103.002901 189.278193 L 103.503022 193.244631 L 104.369131 197.147695 L 105.824741 200.853313 L 108.224217 203.983022 L 108.901060 204.302640" fill="none" id="55" stroke="black" stroke-width="0.79426" /><path d="M 99.830200 168.704220 L 99.065966 172.303743 L 99.247751 176.287923 L 100.115471 180.192672 L 100.983192 184.097420 L 101.904246 187.987726 L 103.125365 191.796777 L 104.346485 195.605828 L 105.919507 199.280944 L 107.539995 202.937994 L 109.487070 206.424699 L 111.622245 209.805131 L 113.909256 213.086835 L 116.196268 216.368539 L 118.370512 219.719272 L 120.046680 223.343316 L 120.964060 225.704220" fill="none" id="56" stroke="black" stroke-width="0.79426" /><path d="M 103.137280 197.570360 L 105.063019 201.076287 L 106.988759 204.582215 L 109.302809 207.838600 L 111.846014 210.926012 L 114.567925 213.854172 L 117.534584 216.537255 L 120.541913 219.172644 L 123.659949 221.678209 L 126.777985 224.183774 L 129.896020 226.689338 L 133.144891 229.021304 L 136.412513 231.328390 L 139.709872 233.590793 L 143.099742 235.714181 L 146.489612 237.837570 L 149.879483 239.960958 L 153.277506 242.070479 L 156.781435 243.999852 L 160.357016 245.789259 L 163.989668 247.461221 L 167.695050 248.967923 L 171.472234 250.280052 L 173.719960 251.027050" fill="none" id="57" stroke="black" stroke-width="0.79426" /></svg>